<svg version="1.1" width="1150" height="870" xmlns="http://www.w3.org/2000/svg">
  <!-- Seed: 523797986492890420 -->
  <g stroke="black" fill="none">
    <circle cx="80.0" cy="70.0" r="5.0"/>
    <circle cx="80.39259815759068" cy="79.99229036240723" r="10.47520627640808"/>
    <circle cx="81.56918191455689" cy="89.93834667466255" r="15.815594803123158"/>
    <circle cx="83.52612192373513" cy="99.79205370864779" r="20.889667490884136"/>
    <circle cx="86.25737860160923" cy="109.50753362380551" r="25.57248383023656"/>
    <circle cx="89.75451610080641" cy="119.03926402016153" r="29.74873734152916"/>
    <circle cx="94.00672183135433" cy="128.34219522386059" r="33.31559480312316"/>
    <circle cx="99.0008314905552" cy="137.37186655175532" r="36.18522834659288"/>
    <circle cx="104.7213595499958" cy="146.0845213036123" r="38.28697807033037"/>
    <circle cx="111.15053513697437" cy="154.43722023302357" r="39.56909192082982"/>
    <circle cx="118.26834323650898" cy="162.3879532511287" r="40.0"/>
    <circle cx="126.0525711291171" cy="169.89574912075892" r="39.56909192082982"/>
    <circle cx="134.4788599687456" cy="176.92078290260415" r="38.28697807033038"/>
    <circle cx="143.52076139460416" cy="183.42448091946363" r="36.18522834659288"/>
    <circle cx="153.14979906023285" cy="189.36962300957293" r="33.31559480312316"/>
    <circle cx="163.33553495294032" cy="194.7204418453818" r="29.748737341529164"/>
    <circle cx="174.0456403667957" cy="199.4427190999916" r="25.572483830236564"/>
    <circle cx="185.24597138267177" cy="203.50387824972663" r="20.88966749088414"/>
    <circle cx="196.90064869943308" cy="206.87307380800559" r="15.815594803123163"/>
    <circle cx="208.97214165125894" cy="209.52127679278024" r="10.475206276408084"/>
    <circle cx="221.42135623730948" cy="211.4213562373095" r="5.000000000000004"/>
    <circle cx="280.0" cy="70.0" r="5.0"/>
    <circle cx="280.39259815759067" cy="79.99229036240723" r="7.424734208123578"/>
    <circle cx="281.5691819145569" cy="89.93834667466255" r="9.789763412811684"/>
    <circle cx="283.5261219237351" cy="99.79205370864779" r="12.036852745962975"/>
    <circle cx="286.2573786016092" cy="109.50753362380551" r="14.110671410533334"/>
    <circle cx="289.7545161008064" cy="119.03926402016153" r="15.960155108391486"/>
    <circle cx="294.0067218313543" cy="128.34219522386059" r="17.539763412811688"/>
    <circle cx="299.0008314905552" cy="137.37186655175532" r="18.810601124919703"/>
    <circle cx="304.7213595499958" cy="146.0845213036123" r="19.74137600257488"/>
    <circle cx="311.1505351369744" cy="154.43722023302357" r="20.309169279224633"/>
    <circle cx="318.268343236509" cy="162.3879532511287" r="20.5"/>
    <circle cx="326.0525711291171" cy="169.89574912075892" r="20.309169279224633"/>
    <circle cx="334.4788599687456" cy="176.92078290260415" r="19.74137600257488"/>
    <circle cx="343.52076139460416" cy="183.42448091946363" r="18.810601124919703"/>
    <circle cx="353.14979906023285" cy="189.36962300957293" r="17.539763412811688"/>
    <circle cx="363.3355349529403" cy="194.7204418453818" r="15.960155108391488"/>
    <circle cx="374.04564036679574" cy="199.4427190999916" r="14.110671410533335"/>
    <circle cx="385.24597138267177" cy="203.50387824972663" r="12.036852745962976"/>
    <circle cx="396.9006486994331" cy="206.87307380800559" r="9.789763412811686"/>
    <circle cx="408.97214165125894" cy="209.52127679278024" r="7.42473420812358"/>
    <circle cx="421.4213562373095" cy="211.4213562373095" r="5.000000000000002"/>
    <circle cx="480.0" cy="70.0" r="5.0"/>
    <circle cx="480.39259815759067" cy="79.99229036240723" r="8.989078858525886"/>
    <circle cx="481.5691819145569" cy="89.93834667466255" r="12.879933356561159"/>
    <circle cx="483.5261219237351" cy="99.79205370864779" r="16.576757743358442"/>
    <circle cx="486.2573786016092" cy="109.50753362380551" r="19.988523933458065"/>
    <circle cx="489.7545161008064" cy="119.03926402016153" r="23.031222920256962"/>
    <circle cx="494.0067218313543" cy="128.34219522386059" r="25.62993335656116"/>
    <circle cx="499.0008314905552" cy="137.37186655175532" r="27.720666366803382"/>
    <circle cx="504.7213595499958" cy="146.0845213036123" r="29.251941165526414"/>
    <circle cx="511.1505351369744" cy="154.43722023302357" r="30.186052685176012"/>
    <circle cx="518.2683432365089" cy="162.3879532511287" r="30.5"/>
    <circle cx="526.052571129117" cy="169.89574912075892" r="30.186052685176012"/>
    <circle cx="534.4788599687456" cy="176.92078290260415" r="29.251941165526418"/>
    <circle cx="543.5207613946042" cy="183.42448091946363" r="27.720666366803382"/>
    <circle cx="553.1497990602328" cy="189.36962300957293" r="25.62993335656116"/>
    <circle cx="563.3355349529403" cy="194.7204418453818" r="23.031222920256962"/>
    <circle cx="574.0456403667957" cy="199.4427190999916" r="19.98852393345807"/>
    <circle cx="585.2459713826718" cy="203.50387824972663" r="16.576757743358446"/>
    <circle cx="596.9006486994331" cy="206.87307380800559" r="12.87993335656116"/>
    <circle cx="608.9721416512589" cy="209.52127679278024" r="8.98907885852589"/>
    <circle cx="621.4213562373095" cy="211.4213562373095" r="5.0000000000000036"/>
    <circle cx="680.0" cy="70.0" r="5.0"/>
    <circle cx="680.3925981575907" cy="79.99229036240723" r="7.268299743083348"/>
    <circle cx="681.5691819145569" cy="89.93834667466255" r="9.480746418436738"/>
    <circle cx="683.5261219237351" cy="99.79205370864779" r="11.582862246223428"/>
    <circle cx="686.2573786016093" cy="109.50753362380551" r="13.52288615824086"/>
    <circle cx="689.7545161008064" cy="119.03926402016153" r="15.253048327204938"/>
    <circle cx="694.0067218313543" cy="128.34219522386059" r="16.730746418436738"/>
    <circle cx="699.0008314905552" cy="137.37186655175532" r="17.919594600731337"/>
    <circle cx="704.7213595499958" cy="146.0845213036123" r="18.790319486279728"/>
    <circle cx="711.1505351369743" cy="154.43722023302357" r="19.3214809386295"/>
    <circle cx="718.2683432365089" cy="162.3879532511287" r="19.5"/>
    <circle cx="726.052571129117" cy="169.89574912075892" r="19.321480938629495"/>
    <circle cx="734.4788599687456" cy="176.92078290260415" r="18.790319486279728"/>
    <circle cx="743.5207613946042" cy="183.42448091946363" r="17.919594600731337"/>
    <circle cx="753.1497990602328" cy="189.36962300957293" r="16.730746418436738"/>
    <circle cx="763.3355349529403" cy="194.7204418453818" r="15.25304832720494"/>
    <circle cx="774.0456403667957" cy="199.4427190999916" r="13.522886158240862"/>
    <circle cx="785.2459713826718" cy="203.50387824972663" r="11.58286224622343"/>
    <circle cx="796.9006486994331" cy="206.87307380800559" r="9.480746418436738"/>
    <circle cx="808.9721416512589" cy="209.52127679278024" r="7.268299743083349"/>
    <circle cx="821.4213562373095" cy="211.4213562373095" r="5.000000000000002"/>
    <circle cx="880.0" cy="70.0" r="5.0"/>
    <circle cx="880.3925981575907" cy="79.99229036240723" r="10.084120113807504"/>
    <circle cx="881.5691819145569" cy="89.93834667466255" r="15.04305231718579"/>
    <circle cx="883.5261219237351" cy="99.79205370864779" r="19.75469124153527"/>
    <circle cx="886.2573786016093" cy="109.50753362380551" r="24.103020699505375"/>
    <circle cx="889.7545161008064" cy="119.03926402016153" r="27.980970388562792"/>
    <circle cx="894.0067218313543" cy="128.34219522386059" r="31.293052317185793"/>
    <circle cx="899.0008314905552" cy="137.37186655175532" r="33.95771203612196"/>
    <circle cx="904.7213595499958" cy="146.0845213036123" r="35.90933677959249"/>
    <circle cx="911.1505351369743" cy="154.43722023302357" r="37.09987106934198"/>
    <circle cx="918.2683432365089" cy="162.3879532511287" r="37.5"/>
    <circle cx="926.052571129117" cy="169.89574912075892" r="37.09987106934197"/>
    <circle cx="934.4788599687456" cy="176.92078290260415" r="35.90933677959249"/>
    <circle cx="943.5207613946042" cy="183.42448091946363" r="33.95771203612196"/>
    <circle cx="953.1497990602328" cy="189.36962300957293" r="31.293052317185793"/>
    <circle cx="963.3355349529403" cy="194.7204418453818" r="27.980970388562795"/>
    <circle cx="974.0456403667957" cy="199.4427190999916" r="24.10302069950538"/>
    <circle cx="985.2459713826718" cy="203.50387824972663" r="19.754691241535273"/>
    <circle cx="996.9006486994331" cy="206.87307380800559" r="15.043052317185793"/>
    <circle cx="1008.9721416512589" cy="209.52127679278024" r="10.084120113807508"/>
    <circle cx="1021.4213562373095" cy="211.4213562373095" r="5.0000000000000036"/>
    <circle cx="270.0" cy="185.0" r="5.0"/>
    <circle cx="269.60740184240933" cy="194.99229036240723" r="9.536599486166695"/>
    <circle cx="268.4308180854431" cy="204.93834667466257" r="13.961492836873475"/>
    <circle cx="266.4738780762649" cy="214.79205370864779" r="18.165724492446856"/>
    <circle cx="263.7426213983908" cy="224.5075336238055" r="22.04577231648172"/>
    <circle cx="260.2454838991936" cy="234.0392640201615" r="25.506096654409877"/>
    <circle cx="255.99327816864567" cy="243.34219522386059" r="28.461492836873475"/>
    <circle cx="250.99916850944481" cy="252.37186655175532" r="30.83918920146267"/>
    <circle cx="245.27864045000422" cy="261.0845213036123" r="32.580638972559456"/>
    <circle cx="238.84946486302564" cy="269.4372202330236" r="33.642961877259"/>
    <circle cx="231.731656763491" cy="277.3879532511287" r="34.0"/>
    <circle cx="223.9474288708829" cy="284.8957491207589" r="33.64296187725899"/>
    <circle cx="215.5211400312544" cy="291.9207829026042" r="32.580638972559456"/>
    <circle cx="206.47923860539584" cy="298.42448091946363" r="30.83918920146267"/>
    <circle cx="196.85020093976715" cy="304.36962300957293" r="28.461492836873475"/>
    <circle cx="186.66446504705968" cy="309.7204418453818" r="25.50609665440988"/>
    <circle cx="175.9543596332043" cy="314.44271909999156" r="22.045772316481724"/>
    <circle cx="164.75402861732823" cy="318.50387824972665" r="18.16572449244686"/>
    <circle cx="153.09935130056692" cy="321.8730738080056" r="13.961492836873477"/>
    <circle cx="141.02785834874106" cy="324.5212767927802" r="9.536599486166699"/>
    <circle cx="128.57864376269052" cy="326.4213562373095" r="5.0000000000000036"/>
    <circle cx="470.0" cy="185.0" r="5.0"/>
    <circle cx="469.60740184240933" cy="194.99229036240723" r="7.190082510563232"/>
    <circle cx="468.4308180854431" cy="204.93834667466257" r="9.326237921249263"/>
    <circle cx="466.4738780762649" cy="214.79205370864779" r="11.355866996353654"/>
    <circle cx="463.7426213983908" cy="224.5075336238055" r="13.228993532094623"/>
    <circle cx="460.2454838991936" cy="234.0392640201615" r="14.899494936611664"/>
    <circle cx="455.9932781686457" cy="243.34219522386059" r="16.326237921249266"/>
    <circle cx="450.9991685094448" cy="252.37186655175532" r="17.47409133863715"/>
    <circle cx="445.2786404500042" cy="261.0845213036123" r="18.31479122813215"/>
    <circle cx="438.8494648630256" cy="269.4372202330236" r="18.827636768331928"/>
    <circle cx="431.731656763491" cy="277.3879532511287" r="19.0"/>
    <circle cx="423.9474288708829" cy="284.8957491207589" r="18.827636768331928"/>
    <circle cx="415.5211400312544" cy="291.9207829026042" r="18.31479122813215"/>
    <circle cx="406.47923860539584" cy="298.42448091946363" r="17.47409133863715"/>
    <circle cx="396.85020093976715" cy="304.36962300957293" r="16.326237921249266"/>
    <circle cx="386.6644650470597" cy="309.7204418453818" r="14.899494936611665"/>
    <circle cx="375.95435963320426" cy="314.44271909999156" r="13.228993532094625"/>
    <circle cx="364.75402861732823" cy="318.50387824972665" r="11.355866996353656"/>
    <circle cx="353.0993513005669" cy="321.8730738080056" r="9.326237921249266"/>
    <circle cx="341.02785834874106" cy="324.5212767927802" r="7.190082510563234"/>
    <circle cx="328.5786437626905" cy="326.4213562373095" r="5.000000000000002"/>
    <circle cx="670.0" cy="185.0" r="5.0"/>
    <circle cx="669.6074018424093" cy="194.99229036240723" r="10.709857973968425"/>
    <circle cx="668.4308180854431" cy="204.93834667466257" r="16.27912029468558"/>
    <circle cx="666.4738780762649" cy="214.79205370864779" r="21.57065324049346"/>
    <circle cx="663.7426213983907" cy="224.5075336238055" r="26.45416170867527"/>
    <circle cx="660.2454838991936" cy="234.0392640201615" r="30.809397513308983"/>
    <circle cx="655.9932781686457" cy="243.34219522386059" r="34.52912029468558"/>
    <circle cx="650.9991685094448" cy="252.37186655175532" r="37.52173813287543"/>
    <circle cx="645.2786404500042" cy="261.0845213036123" r="39.7135628447731"/>
    <circle cx="638.8494648630257" cy="269.4372202330236" r="41.050624431722525"/>
    <circle cx="631.7316567634911" cy="277.3879532511287" r="41.5"/>
    <circle cx="623.947428870883" cy="284.8957491207589" r="41.050624431722525"/>
    <circle cx="615.5211400312544" cy="291.9207829026042" r="39.71356284477311"/>
    <circle cx="606.4792386053958" cy="298.42448091946363" r="37.52173813287543"/>
    <circle cx="596.8502009397672" cy="304.36962300957293" r="34.52912029468558"/>
    <circle cx="586.6644650470597" cy="309.7204418453818" r="30.809397513308987"/>
    <circle cx="575.9543596332043" cy="314.44271909999156" r="26.454161708675272"/>
    <circle cx="564.7540286173282" cy="318.50387824972665" r="21.57065324049346"/>
    <circle cx="553.0993513005669" cy="321.8730738080056" r="16.279120294685583"/>
    <circle cx="541.0278583487411" cy="324.5212767927802" r="10.70985797396843"/>
    <circle cx="528.5786437626905" cy="326.4213562373095" r="5.000000000000004"/>
    <circle cx="870.0" cy="185.0" r="5.0"/>
    <circle cx="869.6074018424093" cy="194.99229036240723" r="7.346516975603463"/>
    <circle cx="868.4308180854431" cy="204.93834667466257" r="9.63525491562421"/>
    <circle cx="866.4738780762649" cy="214.79205370864779" r="11.809857496093201"/>
    <circle cx="863.7426213983907" cy="224.5075336238055" r="13.816778784387097"/>
    <circle cx="860.2454838991936" cy="234.0392640201615" r="15.606601717798211"/>
    <circle cx="855.9932781686457" cy="243.34219522386059" r="17.135254915624213"/>
    <circle cx="850.9991685094448" cy="252.37186655175532" r="18.365097862825518"/>
    <circle cx="845.2786404500042" cy="261.0845213036123" r="19.265847744427305"/>
    <circle cx="838.8494648630257" cy="269.4372202330236" r="19.815325108927066"/>
    <circle cx="831.7316567634911" cy="277.3879532511287" r="20.0"/>
    <circle cx="823.947428870883" cy="284.8957491207589" r="19.815325108927063"/>
    <circle cx="815.5211400312544" cy="291.9207829026042" r="19.265847744427305"/>
    <circle cx="806.4792386053958" cy="298.42448091946363" r="18.365097862825518"/>
    <circle cx="796.8502009397672" cy="304.36962300957293" r="17.135254915624213"/>
    <circle cx="786.6644650470597" cy="309.7204418453818" r="15.606601717798213"/>
    <circle cx="775.9543596332043" cy="314.44271909999156" r="13.816778784387099"/>
    <circle cx="764.7540286173282" cy="318.50387824972665" r="11.809857496093203"/>
    <circle cx="753.0993513005669" cy="321.8730738080056" r="9.635254915624213"/>
    <circle cx="741.0278583487411" cy="324.5212767927802" r="7.346516975603464"/>
    <circle cx="728.5786437626905" cy="326.4213562373095" r="5.000000000000002"/>
    <circle cx="1070.0" cy="185.0" r="5.0"/>
    <circle cx="1069.6074018424092" cy="194.99229036240723" r="7.111865278043117"/>
    <circle cx="1068.4308180854432" cy="204.93834667466257" r="9.171729424061791"/>
    <circle cx="1066.4738780762648" cy="214.79205370864779" r="11.128871746483881"/>
    <circle cx="1063.7426213983908" cy="224.5075336238055" r="12.935100905948389"/>
    <circle cx="1060.2454838991937" cy="234.0392640201615" r="14.54594154601839"/>
    <circle cx="1055.9932781686457" cy="243.34219522386059" r="15.921729424061791"/>
    <circle cx="1050.9991685094449" cy="252.37186655175532" r="17.028588076542967"/>
    <circle cx="1045.278640450004" cy="261.0845213036123" r="17.839262969984574"/>
    <circle cx="1038.8494648630256" cy="269.4372202330236" r="18.33379259803436"/>
    <circle cx="1031.731656763491" cy="277.3879532511287" r="18.5"/>
    <circle cx="1023.947428870883" cy="284.8957491207589" r="18.333792598034357"/>
    <circle cx="1015.5211400312544" cy="291.9207829026042" r="17.839262969984574"/>
    <circle cx="1006.4792386053958" cy="298.42448091946363" r="17.028588076542967"/>
    <circle cx="996.8502009397672" cy="304.36962300957293" r="15.921729424061791"/>
    <circle cx="986.6644650470597" cy="309.7204418453818" r="14.545941546018392"/>
    <circle cx="975.9543596332043" cy="314.44271909999156" r="12.935100905948389"/>
    <circle cx="964.7540286173282" cy="318.50387824972665" r="11.128871746483883"/>
    <circle cx="953.0993513005669" cy="321.8730738080056" r="9.171729424061791"/>
    <circle cx="941.0278583487411" cy="324.5212767927802" r="7.111865278043118"/>
    <circle cx="928.5786437626905" cy="326.4213562373095" r="5.000000000000002"/>
    <circle cx="80.0" cy="300.0" r="5.0"/>
    <circle cx="80.39259815759068" cy="309.99229036240723" r="8.363340998364963"/>
    <circle cx="81.56918191455689" cy="319.93834667466257" r="11.643865379061369"/>
    <circle cx="83.52612192373513" cy="329.7920537086478" r="14.760795744400257"/>
    <circle cx="86.25737860160923" cy="339.5075336238055" r="17.637382924288172"/>
    <circle cx="89.75451610080641" cy="349.0392640201615" r="20.20279579551077"/>
    <circle cx="94.00672183135433" cy="358.3421952238606" r="22.39386537906137"/>
    <circle cx="99.0008314905552" cy="367.3718665517553" r="24.15664027004991"/>
    <circle cx="104.7213595499958" cy="376.0845213036123" r="25.4477151003458"/>
    <circle cx="111.15053513697437" cy="384.4372202330236" r="26.235299322795463"/>
    <circle cx="118.26834323650898" cy="392.3879532511287" r="26.5"/>
    <circle cx="126.0525711291171" cy="399.8957491207589" r="26.23529932279546"/>
    <circle cx="134.4788599687456" cy="406.9207829026042" r="25.447715100345803"/>
    <circle cx="143.52076139460416" cy="413.42448091946363" r="24.15664027004991"/>
    <circle cx="153.14979906023285" cy="419.36962300957293" r="22.39386537906137"/>
    <circle cx="163.33553495294032" cy="424.7204418453818" r="20.202795795510774"/>
    <circle cx="174.0456403667957" cy="429.44271909999156" r="17.637382924288175"/>
    <circle cx="185.24597138267177" cy="433.50387824972665" r="14.760795744400257"/>
    <circle cx="196.90064869943308" cy="436.8730738080056" r="11.64386537906137"/>
    <circle cx="208.97214165125894" cy="439.5212767927802" r="8.363340998364967"/>
    <circle cx="221.42135623730948" cy="441.4213562373095" r="5.000000000000003"/>
    <circle cx="280.0" cy="300.0" r="5.0"/>
    <circle cx="280.39259815759067" cy="309.99229036240723" r="9.067296091046003"/>
    <circle cx="281.5691819145569" cy="319.93834667466257" r="13.034441853748632"/>
    <circle cx="283.5261219237351" cy="329.7920537086478" r="16.803752993228215"/>
    <circle cx="286.2573786016092" cy="339.5075336238055" r="20.2824165596043"/>
    <circle cx="289.7545161008064" cy="349.0392640201615" r="23.384776310850235"/>
    <circle cx="294.0067218313543" cy="358.3421952238606" r="26.034441853748632"/>
    <circle cx="299.0008314905552" cy="367.3718665517553" r="28.166169628897567"/>
    <circle cx="304.7213595499958" cy="376.0845213036123" r="29.72746942367399"/>
    <circle cx="311.1505351369744" cy="384.4372202330236" r="30.679896855473583"/>
    <circle cx="318.268343236509" cy="392.3879532511287" r="31.0"/>
    <circle cx="326.0525711291171" cy="399.8957491207589" r="30.67989685547358"/>
    <circle cx="334.4788599687456" cy="406.9207829026042" r="29.727469423673995"/>
    <circle cx="343.52076139460416" cy="413.42448091946363" r="28.166169628897567"/>
    <circle cx="353.14979906023285" cy="419.36962300957293" r="26.034441853748632"/>
    <circle cx="363.3355349529403" cy="424.7204418453818" r="23.38477631085024"/>
    <circle cx="374.04564036679574" cy="429.44271909999156" r="20.282416559604304"/>
    <circle cx="385.24597138267177" cy="433.50387824972665" r="16.80375299322822"/>
    <circle cx="396.9006486994331" cy="436.8730738080056" r="13.034441853748636"/>
    <circle cx="408.97214165125894" cy="439.5212767927802" r="9.067296091046005"/>
    <circle cx="421.4213562373095" cy="441.4213562373095" r="5.0000000000000036"/>
    <circle cx="480.0" cy="300.0" r="5.0"/>
    <circle cx="480.39259815759067" cy="309.99229036240723" r="6.642561882922424"/>
    <circle cx="481.5691819145569" cy="319.93834667466257" r="8.244678440936948"/>
    <circle cx="483.5261219237351" cy="329.7920537086478" r="9.76690024726524"/>
    <circle cx="486.2573786016092" cy="339.5075336238055" r="11.171745149070968"/>
    <circle cx="489.7545161008064" cy="349.0392640201615" r="12.424621202458749"/>
    <circle cx="494.0067218313543" cy="358.3421952238606" r="13.494678440936948"/>
    <circle cx="499.0008314905552" cy="367.3718665517553" r="14.355568503977864"/>
    <circle cx="504.7213595499958" cy="376.0845213036123" r="14.986093421099111"/>
    <circle cx="511.1505351369744" cy="384.4372202330236" r="15.370727576248946"/>
    <circle cx="518.2683432365089" cy="392.3879532511287" r="15.5"/>
    <circle cx="526.052571129117" cy="399.8957491207589" r="15.370727576248946"/>
    <circle cx="534.4788599687456" cy="406.9207829026042" r="14.986093421099113"/>
    <circle cx="543.5207613946042" cy="413.42448091946363" r="14.355568503977864"/>
    <circle cx="553.1497990602328" cy="419.36962300957293" r="13.494678440936948"/>
    <circle cx="563.3355349529403" cy="424.7204418453818" r="12.424621202458749"/>
    <circle cx="574.0456403667957" cy="429.44271909999156" r="11.171745149070968"/>
    <circle cx="585.2459713826718" cy="433.50387824972665" r="9.76690024726524"/>
    <circle cx="596.9006486994331" cy="436.8730738080056" r="8.244678440936948"/>
    <circle cx="608.9721416512589" cy="439.5212767927802" r="6.6425618829224256"/>
    <circle cx="621.4213562373095" cy="441.4213562373095" r="5.000000000000001"/>
    <circle cx="680.0" cy="300.0" r="5.0"/>
    <circle cx="680.3925981575907" cy="309.99229036240723" r="10.788075206488543"/>
    <circle cx="681.5691819145569" cy="319.93834667466257" r="16.433628791873055"/>
    <circle cx="683.5261219237351" cy="329.7920537086478" r="21.797648490363233"/>
    <circle cx="686.2573786016093" cy="339.5075336238055" r="26.748054334821507"/>
    <circle cx="689.7545161008064" cy="349.0392640201615" r="31.162950903902257"/>
    <circle cx="694.0067218313543" cy="358.3421952238606" r="34.933628791873055"/>
    <circle cx="699.0008314905552" cy="367.3718665517553" r="37.96724139496961"/>
    <circle cx="704.7213595499958" cy="376.0845213036123" r="40.18909110292068"/>
    <circle cx="711.1505351369743" cy="384.4372202330236" r="41.544468602020096"/>
    <circle cx="718.2683432365089" cy="392.3879532511287" r="42.0"/>
    <circle cx="726.052571129117" cy="399.8957491207589" r="41.544468602020096"/>
    <circle cx="734.4788599687456" cy="406.9207829026042" r="40.189091102920685"/>
    <circle cx="743.5207613946042" cy="413.42448091946363" r="37.96724139496961"/>
    <circle cx="753.1497990602328" cy="419.36962300957293" r="34.933628791873055"/>
    <circle cx="763.3355349529403" cy="424.7204418453818" r="31.16295090390226"/>
    <circle cx="774.0456403667957" cy="429.44271909999156" r="26.74805433482151"/>
    <circle cx="785.2459713826718" cy="433.50387824972665" r="21.797648490363233"/>
    <circle cx="796.9006486994331" cy="436.8730738080056" r="16.43362879187306"/>
    <circle cx="808.9721416512589" cy="439.5212767927802" r="10.788075206488546"/>
    <circle cx="821.4213562373095" cy="441.4213562373095" r="5.000000000000004"/>
    <circle cx="880.0" cy="300.0" r="5.0"/>
    <circle cx="880.3925981575907" cy="309.99229036240723" r="7.972254835764387"/>
    <circle cx="881.5691819145569" cy="319.93834667466257" r="10.871322893124"/>
    <circle cx="883.5261219237351" cy="329.7920537086478" r="13.62581949505139"/>
    <circle cx="886.2573786016093" cy="339.5075336238055" r="16.16791979355699"/>
    <circle cx="889.7545161008064" cy="349.0392640201615" r="18.4350288425444"/>
    <circle cx="894.0067218313543" cy="358.3421952238606" r="20.371322893124002"/>
    <circle cx="899.0008314905552" cy="367.3718665517553" r="21.92912395957899"/>
    <circle cx="904.7213595499958" cy="376.0845213036123" r="23.070073809607916"/>
    <circle cx="911.1505351369743" cy="384.4372202330236" r="23.76607847130762"/>
    <circle cx="918.2683432365089" cy="392.3879532511287" r="24.0"/>
    <circle cx="926.052571129117" cy="399.8957491207589" r="23.766078471307615"/>
    <circle cx="934.4788599687456" cy="406.9207829026042" r="23.07007380960792"/>
    <circle cx="943.5207613946042" cy="413.42448091946363" r="21.92912395957899"/>
    <circle cx="953.1497990602328" cy="419.36962300957293" r="20.371322893124002"/>
    <circle cx="963.3355349529403" cy="424.7204418453818" r="18.435028842544405"/>
    <circle cx="974.0456403667957" cy="429.44271909999156" r="16.16791979355699"/>
    <circle cx="985.2459713826718" cy="433.50387824972665" r="13.62581949505139"/>
    <circle cx="996.9006486994331" cy="436.8730738080056" r="10.871322893124002"/>
    <circle cx="1008.9721416512589" cy="439.5212767927802" r="7.972254835764389"/>
    <circle cx="1021.4213562373095" cy="441.4213562373095" r="5.000000000000003"/>
    <circle cx="270.0" cy="415.0" r="5.0"/>
    <circle cx="269.60740184240933" cy="424.99229036240723" r="6.642561882922424"/>
    <circle cx="268.4308180854431" cy="434.93834667466257" r="8.244678440936948"/>
    <circle cx="266.4738780762649" cy="444.7920537086478" r="9.76690024726524"/>
    <circle cx="263.7426213983908" cy="454.5075336238055" r="11.171745149070968"/>
    <circle cx="260.2454838991936" cy="464.0392640201615" r="12.424621202458749"/>
    <circle cx="255.99327816864567" cy="473.3421952238606" r="13.494678440936948"/>
    <circle cx="250.99916850944481" cy="482.3718665517553" r="14.355568503977864"/>
    <circle cx="245.27864045000422" cy="491.0845213036123" r="14.986093421099111"/>
    <circle cx="238.84946486302564" cy="499.4372202330236" r="15.370727576248946"/>
    <circle cx="231.731656763491" cy="507.3879532511287" r="15.5"/>
    <circle cx="223.9474288708829" cy="514.895749120759" r="15.370727576248946"/>
    <circle cx="215.5211400312544" cy="521.9207829026042" r="14.986093421099113"/>
    <circle cx="206.47923860539584" cy="528.4244809194636" r="14.355568503977864"/>
    <circle cx="196.85020093976715" cy="534.3696230095729" r="13.494678440936948"/>
    <circle cx="186.66446504705968" cy="539.7204418453817" r="12.424621202458749"/>
    <circle cx="175.9543596332043" cy="544.4427190999916" r="11.171745149070968"/>
    <circle cx="164.75402861732823" cy="548.5038782497267" r="9.76690024726524"/>
    <circle cx="153.09935130056692" cy="551.8730738080055" r="8.244678440936948"/>
    <circle cx="141.02785834874106" cy="554.5212767927802" r="6.6425618829224256"/>
    <circle cx="128.57864376269052" cy="556.4213562373095" r="5.000000000000001"/>
    <circle cx="470.0" cy="415.0" r="5.0"/>
    <circle cx="469.60740184240933" cy="424.99229036240723" r="10.631640741448312"/>
    <circle cx="468.4308180854431" cy="434.93834667466257" r="16.124611797498105"/>
    <circle cx="466.4738780762649" cy="444.7920537086478" r="21.343657990623687"/>
    <circle cx="463.7426213983908" cy="454.5075336238055" r="26.160269082529034"/>
    <circle cx="460.2454838991936" cy="464.0392640201615" r="30.45584412271571"/>
    <circle cx="455.9932781686457" cy="473.3421952238606" r="34.124611797498105"/>
    <circle cx="450.9991685094448" cy="482.3718665517553" r="37.07623487078124"/>
    <circle cx="445.2786404500042" cy="491.0845213036123" r="39.238034586625524"/>
    <circle cx="438.8494648630256" cy="499.4372202330236" r="40.55678026142496"/>
    <circle cx="431.731656763491" cy="507.3879532511287" r="41.0"/>
    <circle cx="423.9474288708829" cy="514.895749120759" r="40.556780261424954"/>
    <circle cx="415.5211400312544" cy="521.9207829026042" r="39.23803458662553"/>
    <circle cx="406.47923860539584" cy="528.4244809194636" r="37.07623487078124"/>
    <circle cx="396.85020093976715" cy="534.3696230095729" r="34.124611797498105"/>
    <circle cx="386.6644650470597" cy="539.7204418453817" r="30.455844122715714"/>
    <circle cx="375.95435963320426" cy="544.4427190999916" r="26.160269082529037"/>
    <circle cx="364.75402861732823" cy="548.5038782497267" r="21.343657990623687"/>
    <circle cx="353.0993513005669" cy="551.8730738080055" r="16.124611797498112"/>
    <circle cx="341.02785834874106" cy="554.5212767927802" r="10.631640741448315"/>
    <circle cx="328.5786437626905" cy="556.4213562373095" r="5.000000000000004"/>
    <circle cx="670.0" cy="415.0" r="5.0"/>
    <circle cx="669.6074018424093" cy="424.99229036240723" r="7.190082510563232"/>
    <circle cx="668.4308180854431" cy="434.93834667466257" r="9.326237921249263"/>
    <circle cx="666.4738780762649" cy="444.7920537086478" r="11.355866996353654"/>
    <circle cx="663.7426213983907" cy="454.5075336238055" r="13.228993532094623"/>
    <circle cx="660.2454838991936" cy="464.0392640201615" r="14.899494936611664"/>
    <circle cx="655.9932781686457" cy="473.3421952238606" r="16.326237921249266"/>
    <circle cx="650.9991685094448" cy="482.3718665517553" r="17.47409133863715"/>
    <circle cx="645.2786404500042" cy="491.0845213036123" r="18.31479122813215"/>
    <circle cx="638.8494648630257" cy="499.4372202330236" r="18.827636768331928"/>
    <circle cx="631.7316567634911" cy="507.3879532511287" r="19.0"/>
    <circle cx="623.947428870883" cy="514.895749120759" r="18.827636768331928"/>
    <circle cx="615.5211400312544" cy="521.9207829026042" r="18.31479122813215"/>
    <circle cx="606.4792386053958" cy="528.4244809194636" r="17.47409133863715"/>
    <circle cx="596.8502009397672" cy="534.3696230095729" r="16.326237921249266"/>
    <circle cx="586.6644650470597" cy="539.7204418453817" r="14.899494936611665"/>
    <circle cx="575.9543596332043" cy="544.4427190999916" r="13.228993532094625"/>
    <circle cx="564.7540286173282" cy="548.5038782497267" r="11.355866996353656"/>
    <circle cx="553.0993513005669" cy="551.8730738080055" r="9.326237921249266"/>
    <circle cx="541.0278583487411" cy="554.5212767927802" r="7.190082510563234"/>
    <circle cx="528.5786437626905" cy="556.4213562373095" r="5.000000000000002"/>
    <circle cx="870.0" cy="415.0" r="5.0"/>
    <circle cx="869.6074018424093" cy="424.99229036240723" r="7.111865278043117"/>
    <circle cx="868.4308180854431" cy="434.93834667466257" r="9.171729424061791"/>
    <circle cx="866.4738780762649" cy="444.7920537086478" r="11.128871746483881"/>
    <circle cx="863.7426213983907" cy="454.5075336238055" r="12.935100905948389"/>
    <circle cx="860.2454838991936" cy="464.0392640201615" r="14.54594154601839"/>
    <circle cx="855.9932781686457" cy="473.3421952238606" r="15.921729424061791"/>
    <circle cx="850.9991685094448" cy="482.3718665517553" r="17.028588076542967"/>
    <circle cx="845.2786404500042" cy="491.0845213036123" r="17.839262969984574"/>
    <circle cx="838.8494648630257" cy="499.4372202330236" r="18.33379259803436"/>
    <circle cx="831.7316567634911" cy="507.3879532511287" r="18.5"/>
    <circle cx="823.947428870883" cy="514.895749120759" r="18.333792598034357"/>
    <circle cx="815.5211400312544" cy="521.9207829026042" r="17.839262969984574"/>
    <circle cx="806.4792386053958" cy="528.4244809194636" r="17.028588076542967"/>
    <circle cx="796.8502009397672" cy="534.3696230095729" r="15.921729424061791"/>
    <circle cx="786.6644650470597" cy="539.7204418453817" r="14.545941546018392"/>
    <circle cx="775.9543596332043" cy="544.4427190999916" r="12.935100905948389"/>
    <circle cx="764.7540286173282" cy="548.5038782497267" r="11.128871746483883"/>
    <circle cx="753.0993513005669" cy="551.8730738080055" r="9.171729424061791"/>
    <circle cx="741.0278583487411" cy="554.5212767927802" r="7.111865278043118"/>
    <circle cx="728.5786437626905" cy="556.4213562373095" r="5.000000000000002"/>
    <circle cx="1070.0" cy="415.0" r="5.0"/>
    <circle cx="1069.6074018424092" cy="424.99229036240723" r="9.536599486166695"/>
    <circle cx="1068.4308180854432" cy="434.93834667466257" r="13.961492836873475"/>
    <circle cx="1066.4738780762648" cy="444.7920537086478" r="18.165724492446856"/>
    <circle cx="1063.7426213983908" cy="454.5075336238055" r="22.04577231648172"/>
    <circle cx="1060.2454838991937" cy="464.0392640201615" r="25.506096654409877"/>
    <circle cx="1055.9932781686457" cy="473.3421952238606" r="28.461492836873475"/>
    <circle cx="1050.9991685094449" cy="482.3718665517553" r="30.83918920146267"/>
    <circle cx="1045.278640450004" cy="491.0845213036123" r="32.580638972559456"/>
    <circle cx="1038.8494648630256" cy="499.4372202330236" r="33.642961877259"/>
    <circle cx="1031.731656763491" cy="507.3879532511287" r="34.0"/>
    <circle cx="1023.947428870883" cy="514.895749120759" r="33.64296187725899"/>
    <circle cx="1015.5211400312544" cy="521.9207829026042" r="32.580638972559456"/>
    <circle cx="1006.4792386053958" cy="528.4244809194636" r="30.83918920146267"/>
    <circle cx="996.8502009397672" cy="534.3696230095729" r="28.461492836873475"/>
    <circle cx="986.6644650470597" cy="539.7204418453817" r="25.50609665440988"/>
    <circle cx="975.9543596332043" cy="544.4427190999916" r="22.045772316481724"/>
    <circle cx="964.7540286173282" cy="548.5038782497267" r="18.16572449244686"/>
    <circle cx="953.0993513005669" cy="551.8730738080055" r="13.961492836873477"/>
    <circle cx="941.0278583487411" cy="554.5212767927802" r="9.536599486166699"/>
    <circle cx="928.5786437626905" cy="556.4213562373095" r="5.0000000000000036"/>
    <circle cx="80.0" cy="530.0" r="5.0"/>
    <circle cx="80.39259815759068" cy="539.9922903624072" r="6.955430813002886"/>
    <circle cx="81.56918191455689" cy="549.9383466746625" r="8.862712429686843"/>
    <circle cx="83.52612192373513" cy="559.7920537086478" r="10.674881246744334"/>
    <circle cx="86.25737860160923" cy="569.5075336238056" r="12.347315653655915"/>
    <circle cx="89.75451610080641" cy="579.0392640201616" r="13.838834764831843"/>
    <circle cx="94.00672183135433" cy="588.3421952238606" r="15.112712429686843"/>
    <circle cx="99.0008314905552" cy="597.3718665517554" r="16.137581552354597"/>
    <circle cx="104.7213595499958" cy="606.0845213036123" r="16.88820645368942"/>
    <circle cx="111.15053513697437" cy="614.4372202330236" r="17.346104257439222"/>
    <circle cx="118.26834323650898" cy="622.3879532511287" r="17.5"/>
    <circle cx="126.0525711291171" cy="629.895749120759" r="17.346104257439222"/>
    <circle cx="134.4788599687456" cy="636.9207829026042" r="16.88820645368942"/>
    <circle cx="143.52076139460416" cy="643.4244809194636" r="16.137581552354597"/>
    <circle cx="153.14979906023285" cy="649.3696230095729" r="15.112712429686843"/>
    <circle cx="163.33553495294032" cy="654.7204418453817" r="13.838834764831844"/>
    <circle cx="174.0456403667957" cy="659.4427190999916" r="12.347315653655915"/>
    <circle cx="185.24597138267177" cy="663.5038782497267" r="10.674881246744336"/>
    <circle cx="196.90064869943308" cy="666.8730738080055" r="8.862712429686844"/>
    <circle cx="208.97214165125894" cy="669.5212767927802" r="6.955430813002887"/>
    <circle cx="221.42135623730948" cy="671.4213562373095" r="5.000000000000002"/>
    <circle cx="280.0" cy="530.0" r="5.0"/>
    <circle cx="280.39259815759067" cy="539.9922903624072" r="8.206906533324734"/>
    <circle cx="281.5691819145569" cy="549.9383466746625" r="11.33484838468642"/>
    <circle cx="283.5261219237351" cy="559.7920537086478" r="14.30680524466071"/>
    <circle cx="286.2573786016092" cy="569.5075336238056" r="17.0495976719957"/>
    <circle cx="289.7545161008064" cy="579.0392640201616" r="19.49568901432422"/>
    <circle cx="294.0067218313543" cy="588.3421952238606" r="21.584848384686424"/>
    <circle cx="299.0008314905552" cy="597.3718665517554" r="23.265633745861543"/>
    <circle cx="304.7213595499958" cy="606.0845213036123" r="24.496658584050646"/>
    <circle cx="311.1505351369744" cy="614.4372202330236" r="25.247610982200325"/>
    <circle cx="318.268343236509" cy="622.3879532511287" r="25.5"/>
    <circle cx="326.0525711291171" cy="629.895749120759" r="25.24761098220032"/>
    <circle cx="334.4788599687456" cy="636.9207829026042" r="24.49665858405065"/>
    <circle cx="343.52076139460416" cy="643.4244809194636" r="23.265633745861543"/>
    <circle cx="353.14979906023285" cy="649.3696230095729" r="21.584848384686424"/>
    <circle cx="363.3355349529403" cy="654.7204418453817" r="19.495689014324228"/>
    <circle cx="374.04564036679574" cy="659.4427190999916" r="17.049597671995702"/>
    <circle cx="385.24597138267177" cy="663.5038782497267" r="14.30680524466071"/>
    <circle cx="396.9006486994331" cy="666.8730738080055" r="11.334848384686424"/>
    <circle cx="408.97214165125894" cy="669.5212767927802" r="8.206906533324736"/>
    <circle cx="421.4213562373095" cy="671.4213562373095" r="5.000000000000003"/>
    <circle cx="480.0" cy="530.0" r="5.0"/>
    <circle cx="480.39259815759067" cy="539.9922903624072" r="6.8772135804827705"/>
    <circle cx="481.5691819145569" cy="549.9383466746625" r="8.70820393249937"/>
    <circle cx="483.5261219237351" cy="559.7920537086478" r="10.447885996874561"/>
    <circle cx="486.2573786016092" cy="569.5075336238056" r="12.053423027509677"/>
    <circle cx="489.7545161008064" cy="579.0392640201616" r="13.48528137423857"/>
    <circle cx="494.0067218313543" cy="588.3421952238606" r="14.70820393249937"/>
    <circle cx="499.0008314905552" cy="597.3718665517554" r="15.692078290260415"/>
    <circle cx="504.7213595499958" cy="606.0845213036123" r="16.412678195541844"/>
    <circle cx="511.1505351369744" cy="614.4372202330236" r="16.85226008714165"/>
    <circle cx="518.2683432365089" cy="622.3879532511287" r="17.0"/>
    <circle cx="526.052571129117" cy="629.895749120759" r="16.85226008714165"/>
    <circle cx="534.4788599687456" cy="636.9207829026042" r="16.412678195541844"/>
    <circle cx="543.5207613946042" cy="643.4244809194636" r="15.692078290260415"/>
    <circle cx="553.1497990602328" cy="649.3696230095729" r="14.70820393249937"/>
    <circle cx="563.3355349529403" cy="654.7204418453817" r="13.485281374238571"/>
    <circle cx="574.0456403667957" cy="659.4427190999916" r="12.053423027509679"/>
    <circle cx="585.2459713826718" cy="663.5038782497267" r="10.447885996874563"/>
    <circle cx="596.9006486994331" cy="666.8730738080055" r="8.70820393249937"/>
    <circle cx="608.9721416512589" cy="669.5212767927802" r="6.877213580482772"/>
    <circle cx="621.4213562373095" cy="671.4213562373095" r="5.000000000000002"/>
    <circle cx="680.0" cy="530.0" r="5.0"/>
    <circle cx="680.3925981575907" cy="539.9922903624072" r="7.190082510563232"/>
    <circle cx="681.5691819145569" cy="549.9383466746625" r="9.326237921249263"/>
    <circle cx="683.5261219237351" cy="559.7920537086478" r="11.355866996353654"/>
    <circle cx="686.2573786016093" cy="569.5075336238056" r="13.228993532094623"/>
    <circle cx="689.7545161008064" cy="579.0392640201616" r="14.899494936611664"/>
    <circle cx="694.0067218313543" cy="588.3421952238606" r="16.326237921249266"/>
    <circle cx="699.0008314905552" cy="597.3718665517554" r="17.47409133863715"/>
    <circle cx="704.7213595499958" cy="606.0845213036123" r="18.31479122813215"/>
    <circle cx="711.1505351369743" cy="614.4372202330236" r="18.827636768331928"/>
    <circle cx="718.2683432365089" cy="622.3879532511287" r="19.0"/>
    <circle cx="726.052571129117" cy="629.895749120759" r="18.827636768331928"/>
    <circle cx="734.4788599687456" cy="636.9207829026042" r="18.31479122813215"/>
    <circle cx="743.5207613946042" cy="643.4244809194636" r="17.47409133863715"/>
    <circle cx="753.1497990602328" cy="649.3696230095729" r="16.326237921249266"/>
    <circle cx="763.3355349529403" cy="654.7204418453817" r="14.899494936611665"/>
    <circle cx="774.0456403667957" cy="659.4427190999916" r="13.228993532094625"/>
    <circle cx="785.2459713826718" cy="663.5038782497267" r="11.355866996353656"/>
    <circle cx="796.9006486994331" cy="666.8730738080055" r="9.326237921249266"/>
    <circle cx="808.9721416512589" cy="669.5212767927802" r="7.190082510563234"/>
    <circle cx="821.4213562373095" cy="671.4213562373095" r="5.000000000000002"/>
    <circle cx="880.0" cy="530.0" r="5.0"/>
    <circle cx="880.3925981575907" cy="539.9922903624072" r="9.849468416247156"/>
    <circle cx="881.5691819145569" cy="549.9383466746625" r="14.57952682562337"/>
    <circle cx="883.5261219237351" cy="559.7920537086478" r="19.07370549192595"/>
    <circle cx="886.2573786016093" cy="569.5075336238056" r="23.221342821066667"/>
    <circle cx="889.7545161008064" cy="579.0392640201616" r="26.920310216782973"/>
    <circle cx="894.0067218313543" cy="588.3421952238606" r="30.079526825623372"/>
    <circle cx="899.0008314905552" cy="597.3718665517554" r="32.621202249839406"/>
    <circle cx="904.7213595499958" cy="606.0845213036123" r="34.48275200514976"/>
    <circle cx="911.1505351369743" cy="614.4372202330236" r="35.61833855844927"/>
    <circle cx="918.2683432365089" cy="622.3879532511287" r="36.0"/>
    <circle cx="926.052571129117" cy="629.895749120759" r="35.61833855844927"/>
    <circle cx="934.4788599687456" cy="636.9207829026042" r="34.48275200514976"/>
    <circle cx="943.5207613946042" cy="643.4244809194636" r="32.621202249839406"/>
    <circle cx="953.1497990602328" cy="649.3696230095729" r="30.079526825623372"/>
    <circle cx="963.3355349529403" cy="654.7204418453817" r="26.920310216782976"/>
    <circle cx="974.0456403667957" cy="659.4427190999916" r="23.22134282106667"/>
    <circle cx="985.2459713826718" cy="663.5038782497267" r="19.073705491925953"/>
    <circle cx="996.9006486994331" cy="666.8730738080055" r="14.579526825623372"/>
    <circle cx="1008.9721416512589" cy="669.5212767927802" r="9.84946841624716"/>
    <circle cx="1021.4213562373095" cy="671.4213562373095" r="5.0000000000000036"/>
    <circle cx="270.0" cy="645.0" r="5.0"/>
    <circle cx="269.60740184240933" cy="654.9922903624072" r="10.631640741448312"/>
    <circle cx="268.4308180854431" cy="664.9383466746625" r="16.124611797498105"/>
    <circle cx="266.4738780762649" cy="674.7920537086478" r="21.343657990623687"/>
    <circle cx="263.7426213983908" cy="684.5075336238056" r="26.160269082529034"/>
    <circle cx="260.2454838991936" cy="694.0392640201616" r="30.45584412271571"/>
    <circle cx="255.99327816864567" cy="703.3421952238606" r="34.124611797498105"/>
    <circle cx="250.99916850944481" cy="712.3718665517554" r="37.07623487078124"/>
    <circle cx="245.27864045000422" cy="721.0845213036123" r="39.238034586625524"/>
    <circle cx="238.84946486302564" cy="729.4372202330236" r="40.55678026142496"/>
    <circle cx="231.731656763491" cy="737.3879532511287" r="41.0"/>
    <circle cx="223.9474288708829" cy="744.895749120759" r="40.556780261424954"/>
    <circle cx="215.5211400312544" cy="751.9207829026042" r="39.23803458662553"/>
    <circle cx="206.47923860539584" cy="758.4244809194636" r="37.07623487078124"/>
    <circle cx="196.85020093976715" cy="764.3696230095729" r="34.124611797498105"/>
    <circle cx="186.66446504705968" cy="769.7204418453817" r="30.455844122715714"/>
    <circle cx="175.9543596332043" cy="774.4427190999916" r="26.160269082529037"/>
    <circle cx="164.75402861732823" cy="778.5038782497267" r="21.343657990623687"/>
    <circle cx="153.09935130056692" cy="781.8730738080055" r="16.124611797498112"/>
    <circle cx="141.02785834874106" cy="784.5212767927802" r="10.631640741448315"/>
    <circle cx="128.57864376269052" cy="786.4213562373095" r="5.000000000000004"/>
    <circle cx="470.0" cy="645.0" r="5.0"/>
    <circle cx="469.60740184240933" cy="654.9922903624072" r="9.380165021126464"/>
    <circle cx="468.4308180854431" cy="664.9383466746625" r="13.652475842498527"/>
    <circle cx="466.4738780762649" cy="674.7920537086478" r="17.71173399270731"/>
    <circle cx="463.7426213983908" cy="684.5075336238056" r="21.457987064189247"/>
    <circle cx="460.2454838991936" cy="694.0392640201616" r="24.798989873223327"/>
    <circle cx="455.9932781686457" cy="703.3421952238606" r="27.65247584249853"/>
    <circle cx="450.9991685094448" cy="712.3718665517554" r="29.9481826772743"/>
    <circle cx="445.2786404500042" cy="721.0845213036123" r="31.6295824562643"/>
    <circle cx="438.8494648630256" cy="729.4372202330236" r="32.655273536663856"/>
    <circle cx="431.731656763491" cy="737.3879532511287" r="33.0"/>
    <circle cx="423.9474288708829" cy="744.895749120759" r="32.655273536663856"/>
    <circle cx="415.5211400312544" cy="751.9207829026042" r="31.629582456264302"/>
    <circle cx="406.47923860539584" cy="758.4244809194636" r="29.9481826772743"/>
    <circle cx="396.85020093976715" cy="764.3696230095729" r="27.65247584249853"/>
    <circle cx="386.6644650470597" cy="769.7204418453817" r="24.79898987322333"/>
    <circle cx="375.95435963320426" cy="774.4427190999916" r="21.45798706418925"/>
    <circle cx="364.75402861732823" cy="778.5038782497267" r="17.711733992707313"/>
    <circle cx="353.0993513005669" cy="781.8730738080055" r="13.65247584249853"/>
    <circle cx="341.02785834874106" cy="784.5212767927802" r="9.380165021126468"/>
    <circle cx="328.5786437626905" cy="786.4213562373095" r="5.0000000000000036"/>
    <circle cx="670.0" cy="645.0" r="5.0"/>
    <circle cx="669.6074018424093" cy="654.9922903624072" r="9.067296091046003"/>
    <circle cx="668.4308180854431" cy="664.9383466746625" r="13.034441853748632"/>
    <circle cx="666.4738780762649" cy="674.7920537086478" r="16.803752993228215"/>
    <circle cx="663.7426213983907" cy="684.5075336238056" r="20.2824165596043"/>
    <circle cx="660.2454838991936" cy="694.0392640201616" r="23.384776310850235"/>
    <circle cx="655.9932781686457" cy="703.3421952238606" r="26.034441853748632"/>
    <circle cx="650.9991685094448" cy="712.3718665517554" r="28.166169628897567"/>
    <circle cx="645.2786404500042" cy="721.0845213036123" r="29.72746942367399"/>
    <circle cx="638.8494648630257" cy="729.4372202330236" r="30.679896855473583"/>
    <circle cx="631.7316567634911" cy="737.3879532511287" r="31.0"/>
    <circle cx="623.947428870883" cy="744.895749120759" r="30.67989685547358"/>
    <circle cx="615.5211400312544" cy="751.9207829026042" r="29.727469423673995"/>
    <circle cx="606.4792386053958" cy="758.4244809194636" r="28.166169628897567"/>
    <circle cx="596.8502009397672" cy="764.3696230095729" r="26.034441853748632"/>
    <circle cx="586.6644650470597" cy="769.7204418453817" r="23.38477631085024"/>
    <circle cx="575.9543596332043" cy="774.4427190999916" r="20.282416559604304"/>
    <circle cx="564.7540286173282" cy="778.5038782497267" r="16.80375299322822"/>
    <circle cx="553.0993513005669" cy="781.8730738080055" r="13.034441853748636"/>
    <circle cx="541.0278583487411" cy="784.5212767927802" r="9.067296091046005"/>
    <circle cx="528.5786437626905" cy="786.4213562373095" r="5.0000000000000036"/>
    <circle cx="870.0" cy="645.0" r="5.0"/>
    <circle cx="869.6074018424093" cy="654.9922903624072" r="8.59799269592531"/>
    <circle cx="868.4308180854431" cy="664.9383466746625" r="12.10739087062379"/>
    <circle cx="866.4738780762649" cy="674.7920537086478" r="15.441781494009577"/>
    <circle cx="863.7426213983907" cy="684.5075336238056" r="18.519060802726884"/>
    <circle cx="860.2454838991936" cy="694.0392640201616" r="21.263455967290593"/>
    <circle cx="855.9932781686457" cy="703.3421952238606" r="23.607390870623792"/>
    <circle cx="850.9991685094448" cy="712.3718665517554" r="25.49315005633246"/>
    <circle cx="845.2786404500042" cy="721.0845213036123" r="26.87429987478853"/>
    <circle cx="838.8494648630257" cy="729.4372202330236" r="27.71683183368817"/>
    <circle cx="831.7316567634911" cy="737.3879532511287" r="28.0"/>
    <circle cx="823.947428870883" cy="744.895749120759" r="27.716831833688165"/>
    <circle cx="815.5211400312544" cy="751.9207829026042" r="26.874299874788534"/>
    <circle cx="806.4792386053958" cy="758.4244809194636" r="25.49315005633246"/>
    <circle cx="796.8502009397672" cy="764.3696230095729" r="23.607390870623792"/>
    <circle cx="786.6644650470597" cy="769.7204418453817" r="21.263455967290593"/>
    <circle cx="775.9543596332043" cy="774.4427190999916" r="18.519060802726884"/>
    <circle cx="764.7540286173282" cy="778.5038782497267" r="15.441781494009577"/>
    <circle cx="753.0993513005669" cy="781.8730738080055" r="12.107390870623792"/>
    <circle cx="741.0278583487411" cy="784.5212767927802" r="8.597992695925313"/>
    <circle cx="728.5786437626905" cy="786.4213562373095" r="5.000000000000003"/>
    <circle cx="1070.0" cy="645.0" r="5.0"/>
    <circle cx="1069.6074018424092" cy="654.9922903624072" r="9.849468416247156"/>
    <circle cx="1068.4308180854432" cy="664.9383466746625" r="14.57952682562337"/>
    <circle cx="1066.4738780762648" cy="674.7920537086478" r="19.07370549192595"/>
    <circle cx="1063.7426213983908" cy="684.5075336238056" r="23.221342821066667"/>
    <circle cx="1060.2454838991937" cy="694.0392640201616" r="26.920310216782973"/>
    <circle cx="1055.9932781686457" cy="703.3421952238606" r="30.079526825623372"/>
    <circle cx="1050.9991685094449" cy="712.3718665517554" r="32.621202249839406"/>
    <circle cx="1045.278640450004" cy="721.0845213036123" r="34.48275200514976"/>
    <circle cx="1038.8494648630256" cy="729.4372202330236" r="35.61833855844927"/>
    <circle cx="1031.731656763491" cy="737.3879532511287" r="36.0"/>
    <circle cx="1023.947428870883" cy="744.895749120759" r="35.61833855844927"/>
    <circle cx="1015.5211400312544" cy="751.9207829026042" r="34.48275200514976"/>
    <circle cx="1006.4792386053958" cy="758.4244809194636" r="32.621202249839406"/>
    <circle cx="996.8502009397672" cy="764.3696230095729" r="30.079526825623372"/>
    <circle cx="986.6644650470597" cy="769.7204418453817" r="26.920310216782976"/>
    <circle cx="975.9543596332043" cy="774.4427190999916" r="23.22134282106667"/>
    <circle cx="964.7540286173282" cy="778.5038782497267" r="19.073705491925953"/>
    <circle cx="953.0993513005669" cy="781.8730738080055" r="14.579526825623372"/>
    <circle cx="941.0278583487411" cy="784.5212767927802" r="9.84946841624716"/>
    <circle cx="928.5786437626905" cy="786.4213562373095" r="5.0000000000000036"/>
    <g stroke="red">
      <rect x="50" y="50" width="1050" height="770"/>
    </g>
  </g>
</svg>
