<svg version="1.1" width="1150" height="870" xmlns="http://www.w3.org/2000/svg">
  <!-- Seed: 1634668814858270366 -->
  <g stroke="black" fill="none">
    <g stroke="red">
      <rect x="50" y="50" width="1050" height="770"/>
    </g>
    <g transform="translate(50.0,50.0)">
      <circle cx="50.0" cy="50.0" r="0.0"/>
      <circle cx="50.62790519529313" cy="59.98026728428272" r="4.944271909999158"/>
      <circle cx="52.50666467128609" cy="69.84229402628955" r="9.40456403667957"/>
      <circle cx="55.62143943757174" cy="79.46861752186066" r="12.94427190999916"/>
      <circle cx="59.947595486594196" cy="88.74332644514524" r="15.216904260722456"/>
      <circle cx="65.45084971874738" cy="97.55282581475768" r="16.0"/>
      <circle cx="72.08747316108068" cy="105.78658915329507" r="15.216904260722458"/>
      <circle cx="79.80455040955509" cy="113.33789367262138" r="12.94427190999916"/>
      <circle cx="88.54029392813723" cy="120.10453440350909" r="9.404564036679572"/>
      <circle cx="98.2244115481097" cy="125.98951329518135" r="4.94427190999916"/>
      <circle cx="108.77852522924732" cy="130.90169943749476" r="1.959434878635765e-15"/>
      <circle cx="145.0" cy="50.0" r="0.0"/>
      <circle cx="145.62790519529312" cy="59.98026728428272" r="2.1631189606246317"/>
      <circle cx="147.50666467128607" cy="69.84229402628955" r="4.114496766047312"/>
      <circle cx="150.62143943757175" cy="79.46861752186066" r="5.663118960624632"/>
      <circle cx="154.9475954865942" cy="88.74332644514524" r="6.657395614066075"/>
      <circle cx="160.45084971874738" cy="97.55282581475768" r="7.0"/>
      <circle cx="167.08747316108068" cy="105.78658915329507" r="6.6573956140660755"/>
      <circle cx="174.80455040955508" cy="113.33789367262138" r="5.663118960624632"/>
      <circle cx="183.54029392813723" cy="120.10453440350909" r="4.114496766047313"/>
      <circle cx="193.22441154810969" cy="125.98951329518135" r="2.1631189606246326"/>
      <circle cx="203.77852522924732" cy="130.90169943749476" r="8.572527594031472e-16"/>
      <circle cx="240.0" cy="50.0" r="0.0"/>
      <circle cx="240.62790519529312" cy="59.98026728428272" r="3.7082039324993685"/>
      <circle cx="242.50666467128607" cy="69.84229402628955" r="7.053423027509678"/>
      <circle cx="245.62143943757175" cy="79.46861752186066" r="9.70820393249937"/>
      <circle cx="249.9475954865942" cy="88.74332644514524" r="11.412678195541842"/>
      <circle cx="255.45084971874738" cy="97.55282581475768" r="12.0"/>
      <circle cx="262.08747316108065" cy="105.78658915329507" r="11.412678195541844"/>
      <circle cx="269.8045504095551" cy="113.33789367262138" r="9.70820393249937"/>
      <circle cx="278.5402939281372" cy="120.10453440350909" r="7.0534230275096785"/>
      <circle cx="288.2244115481097" cy="125.98951329518135" r="3.7082039324993703"/>
      <circle cx="298.7785252292473" cy="130.90169943749476" r="1.4695761589768238e-15"/>
      <circle cx="335.0" cy="50.0" r="0.0"/>
      <circle cx="335.6279051952931" cy="59.98026728428272" r="7.416407864998737"/>
      <circle cx="337.5066646712861" cy="69.84229402628955" r="14.106846055019355"/>
      <circle cx="340.6214394375717" cy="79.46861752186066" r="19.41640786499874"/>
      <circle cx="344.9475954865942" cy="88.74332644514524" r="22.825356391083684"/>
      <circle cx="350.45084971874735" cy="97.55282581475768" r="24.0"/>
      <circle cx="357.08747316108065" cy="105.78658915329507" r="22.825356391083687"/>
      <circle cx="364.8045504095551" cy="113.33789367262138" r="19.41640786499874"/>
      <circle cx="373.5402939281372" cy="120.10453440350909" r="14.106846055019357"/>
      <circle cx="383.2244115481097" cy="125.98951329518135" r="7.416407864998741"/>
      <circle cx="393.7785252292473" cy="130.90169943749476" r="2.9391523179536475e-15"/>
      <circle cx="430.0" cy="50.0" r="0.0"/>
      <circle cx="430.6279051952931" cy="59.98026728428272" r="5.098780407186632"/>
      <circle cx="432.5066646712861" cy="69.84229402628955" r="9.698456662825807"/>
      <circle cx="435.6214394375717" cy="79.46861752186066" r="13.348780407186633"/>
      <circle cx="439.9475954865942" cy="88.74332644514524" r="15.692432518870033"/>
      <circle cx="445.45084971874735" cy="97.55282581475768" r="16.5"/>
      <circle cx="452.08747316108065" cy="105.78658915329507" r="15.692432518870035"/>
      <circle cx="459.8045504095551" cy="113.33789367262138" r="13.348780407186633"/>
      <circle cx="468.5402939281372" cy="120.10453440350909" r="9.698456662825809"/>
      <circle cx="478.2244115481097" cy="125.98951329518135" r="5.098780407186634"/>
      <circle cx="488.7785252292473" cy="130.90169943749476" r="2.0206672185931327e-15"/>
      <circle cx="525.0" cy="50.0" r="0.0"/>
      <circle cx="525.6279051952931" cy="59.98026728428272" r="1.8541019662496843"/>
      <circle cx="527.5066646712861" cy="69.84229402628955" r="3.526711513754839"/>
      <circle cx="530.6214394375718" cy="79.46861752186066" r="4.854101966249685"/>
      <circle cx="534.9475954865942" cy="88.74332644514524" r="5.706339097770921"/>
      <circle cx="540.4508497187473" cy="97.55282581475768" r="6.0"/>
      <circle cx="547.0874731610807" cy="105.78658915329507" r="5.706339097770922"/>
      <circle cx="554.8045504095551" cy="113.33789367262138" r="4.854101966249685"/>
      <circle cx="563.5402939281372" cy="120.10453440350909" r="3.5267115137548393"/>
      <circle cx="573.2244115481097" cy="125.98951329518135" r="1.8541019662496852"/>
      <circle cx="583.7785252292473" cy="130.90169943749476" r="7.347880794884119e-16"/>
      <circle cx="620.0" cy="50.0" r="0.0"/>
      <circle cx="620.6279051952931" cy="59.98026728428272" r="2.7811529493745266"/>
      <circle cx="622.5066646712861" cy="69.84229402628955" r="5.2900672706322585"/>
      <circle cx="625.6214394375718" cy="79.46861752186066" r="7.281152949374527"/>
      <circle cx="629.9475954865942" cy="88.74332644514524" r="8.559508646656381"/>
      <circle cx="635.4508497187473" cy="97.55282581475768" r="9.0"/>
      <circle cx="642.0874731610807" cy="105.78658915329507" r="8.559508646656383"/>
      <circle cx="649.8045504095551" cy="113.33789367262138" r="7.281152949374527"/>
      <circle cx="658.5402939281372" cy="120.10453440350909" r="5.290067270632259"/>
      <circle cx="668.2244115481097" cy="125.98951329518135" r="2.7811529493745275"/>
      <circle cx="678.7785252292473" cy="130.90169943749476" r="1.102182119232618e-15"/>
      <circle cx="715.0" cy="50.0" r="0.0"/>
      <circle cx="715.6279051952931" cy="59.98026728428272" r="1.6995934690622108"/>
      <circle cx="717.5066646712861" cy="69.84229402628955" r="3.232818887608602"/>
      <circle cx="720.6214394375718" cy="79.46861752186066" r="4.449593469062211"/>
      <circle cx="724.9475954865942" cy="88.74332644514524" r="5.230810839623344"/>
      <circle cx="730.4508497187473" cy="97.55282581475768" r="5.5"/>
      <circle cx="737.0874731610807" cy="105.78658915329507" r="5.230810839623345"/>
      <circle cx="744.8045504095551" cy="113.33789367262138" r="4.449593469062211"/>
      <circle cx="753.5402939281372" cy="120.10453440350909" r="3.232818887608603"/>
      <circle cx="763.2244115481097" cy="125.98951329518135" r="1.6995934690622112"/>
      <circle cx="773.7785252292473" cy="130.90169943749476" r="6.735557395310443e-16"/>
      <circle cx="810.0" cy="50.0" r="0.0"/>
      <circle cx="810.6279051952931" cy="59.98026728428272" r="4.017220926874316"/>
      <circle cx="812.5066646712861" cy="69.84229402628955" r="7.641208279802151"/>
      <circle cx="815.6214394375718" cy="79.46861752186066" r="10.517220926874316"/>
      <circle cx="819.9475954865942" cy="88.74332644514524" r="12.363734711836996"/>
      <circle cx="825.4508497187473" cy="97.55282581475768" r="13.0"/>
      <circle cx="832.0874731610807" cy="105.78658915329507" r="12.363734711836997"/>
      <circle cx="839.8045504095551" cy="113.33789367262138" r="10.517220926874316"/>
      <circle cx="848.5402939281372" cy="120.10453440350909" r="7.641208279802152"/>
      <circle cx="858.2244115481097" cy="125.98951329518135" r="4.017220926874318"/>
      <circle cx="868.7785252292473" cy="130.90169943749476" r="1.592040838891559e-15"/>
      <circle cx="905.0" cy="50.0" r="0.0"/>
      <circle cx="905.6279051952931" cy="59.98026728428272" r="6.334848384686421"/>
      <circle cx="907.5066646712861" cy="69.84229402628955" r="12.049597671995699"/>
      <circle cx="910.6214394375718" cy="79.46861752186066" r="16.584848384686424"/>
      <circle cx="914.9475954865942" cy="88.74332644514524" r="19.496658584050646"/>
      <circle cx="920.4508497187473" cy="97.55282581475768" r="20.5"/>
      <circle cx="927.0874731610807" cy="105.78658915329507" r="19.49665858405065"/>
      <circle cx="934.8045504095551" cy="113.33789367262138" r="16.584848384686424"/>
      <circle cx="943.5402939281372" cy="120.10453440350909" r="12.049597671995702"/>
      <circle cx="953.2244115481097" cy="125.98951329518135" r="6.334848384686424"/>
      <circle cx="963.7785252292473" cy="130.90169943749476" r="2.510525938252074e-15"/>
      <circle cx="50.0" cy="177.61904761904762" r="0.0"/>
      <circle cx="50.62790519529313" cy="187.59931490333034" r="3.3991869381244215"/>
      <circle cx="52.50666467128609" cy="197.46134164533717" r="6.465637775217204"/>
      <circle cx="55.62143943757174" cy="207.08766514090829" r="8.899186938124423"/>
      <circle cx="59.947595486594196" cy="216.36237406419286" r="10.461621679246688"/>
      <circle cx="65.45084971874738" cy="225.1718734338053" r="11.0"/>
      <circle cx="72.08747316108068" cy="233.4056367723427" r="10.46162167924669"/>
      <circle cx="79.80455040955509" cy="240.956941291669" r="8.899186938124423"/>
      <circle cx="88.54029392813723" cy="247.7235820225567" r="6.465637775217206"/>
      <circle cx="98.2244115481097" cy="253.60856091422897" r="3.3991869381244224"/>
      <circle cx="108.77852522924732" cy="258.52074705654235" r="1.3471114790620886e-15"/>
      <circle cx="145.0" cy="177.61904761904762" r="0.0"/>
      <circle cx="145.62790519529312" cy="187.59931490333034" r="5.407797401561579"/>
      <circle cx="147.50666467128607" cy="197.46134164533717" r="10.28624191511828"/>
      <circle cx="150.62143943757175" cy="207.08766514090829" r="14.15779740156158"/>
      <circle cx="154.9475954865942" cy="216.36237406419286" r="16.643489035165185"/>
      <circle cx="160.45084971874738" cy="225.1718734338053" r="17.5"/>
      <circle cx="167.08747316108068" cy="233.4056367723427" r="16.64348903516519"/>
      <circle cx="174.80455040955508" cy="240.956941291669" r="14.15779740156158"/>
      <circle cx="183.54029392813723" cy="247.7235820225567" r="10.286241915118282"/>
      <circle cx="193.22441154810969" cy="253.60856091422897" r="5.407797401561582"/>
      <circle cx="203.77852522924732" cy="258.52074705654235" r="2.1431318985078682e-15"/>
      <circle cx="240.0" cy="177.61904761904762" r="0.0"/>
      <circle cx="240.62790519529312" cy="187.59931490333034" r="5.098780407186632"/>
      <circle cx="242.50666467128607" cy="197.46134164533717" r="9.698456662825807"/>
      <circle cx="245.62143943757175" cy="207.08766514090829" r="13.348780407186633"/>
      <circle cx="249.9475954865942" cy="216.36237406419286" r="15.692432518870033"/>
      <circle cx="255.45084971874738" cy="225.1718734338053" r="16.5"/>
      <circle cx="262.08747316108065" cy="233.4056367723427" r="15.692432518870035"/>
      <circle cx="269.8045504095551" cy="240.956941291669" r="13.348780407186633"/>
      <circle cx="278.5402939281372" cy="247.7235820225567" r="9.698456662825809"/>
      <circle cx="288.2244115481097" cy="253.60856091422897" r="5.098780407186634"/>
      <circle cx="298.7785252292473" cy="258.52074705654235" r="2.0206672185931327e-15"/>
      <circle cx="335.0" cy="177.61904761904762" r="0.0"/>
      <circle cx="335.6279051952931" cy="187.59931490333034" r="5.562305898749053"/>
      <circle cx="337.5066646712861" cy="197.46134164533717" r="10.580134541264517"/>
      <circle cx="340.6214394375717" cy="207.08766514090829" r="14.562305898749054"/>
      <circle cx="344.9475954865942" cy="216.36237406419286" r="17.119017293312762"/>
      <circle cx="350.45084971874735" cy="225.1718734338053" r="18.0"/>
      <circle cx="357.08747316108065" cy="233.4056367723427" r="17.119017293312766"/>
      <circle cx="364.8045504095551" cy="240.956941291669" r="14.562305898749054"/>
      <circle cx="373.5402939281372" cy="247.7235820225567" r="10.580134541264519"/>
      <circle cx="383.2244115481097" cy="253.60856091422897" r="5.562305898749055"/>
      <circle cx="393.7785252292473" cy="258.52074705654235" r="2.204364238465236e-15"/>
      <circle cx="430.0" cy="177.61904761904762" r="0.0"/>
      <circle cx="430.6279051952931" cy="187.59931490333034" r="3.090169943749474"/>
      <circle cx="432.5066646712861" cy="197.46134164533717" r="5.877852522924732"/>
      <circle cx="435.6214394375717" cy="207.08766514090829" r="8.090169943749475"/>
      <circle cx="439.9475954865942" cy="216.36237406419286" r="9.510565162951535"/>
      <circle cx="445.45084971874735" cy="225.1718734338053" r="10.0"/>
      <circle cx="452.08747316108065" cy="233.4056367723427" r="9.510565162951536"/>
      <circle cx="459.8045504095551" cy="240.956941291669" r="8.090169943749475"/>
      <circle cx="468.5402939281372" cy="247.7235820225567" r="5.877852522924733"/>
      <circle cx="478.2244115481097" cy="253.60856091422897" r="3.090169943749475"/>
      <circle cx="488.7785252292473" cy="258.52074705654235" r="1.2246467991473533e-15"/>
      <circle cx="525.0" cy="177.61904761904762" r="0.0"/>
      <circle cx="525.6279051952931" cy="187.59931490333034" r="6.025831390311474"/>
      <circle cx="527.5066646712861" cy="197.46134164533717" r="11.461812419703227"/>
      <circle cx="530.6214394375718" cy="207.08766514090829" r="15.775831390311476"/>
      <circle cx="534.9475954865942" cy="216.36237406419286" r="18.545602067755492"/>
      <circle cx="540.4508497187473" cy="225.1718734338053" r="19.5"/>
      <circle cx="547.0874731610807" cy="233.4056367723427" r="18.545602067755496"/>
      <circle cx="554.8045504095551" cy="240.956941291669" r="15.775831390311476"/>
      <circle cx="563.5402939281372" cy="247.7235820225567" r="11.461812419703229"/>
      <circle cx="573.2244115481097" cy="253.60856091422897" r="6.025831390311477"/>
      <circle cx="583.7785252292473" cy="258.52074705654235" r="2.388061258337339e-15"/>
      <circle cx="620.0" cy="177.61904761904762" r="0.0"/>
      <circle cx="620.6279051952931" cy="187.59931490333034" r="2.3176274578121054"/>
      <circle cx="622.5066646712861" cy="197.46134164533717" r="4.408389392193548"/>
      <circle cx="625.6214394375718" cy="207.08766514090829" r="6.067627457812106"/>
      <circle cx="629.9475954865942" cy="216.36237406419286" r="7.132923872213651"/>
      <circle cx="635.4508497187473" cy="225.1718734338053" r="7.5"/>
      <circle cx="642.0874731610807" cy="233.4056367723427" r="7.132923872213652"/>
      <circle cx="649.8045504095551" cy="240.956941291669" r="6.067627457812106"/>
      <circle cx="658.5402939281372" cy="247.7235820225567" r="4.408389392193549"/>
      <circle cx="668.2244115481097" cy="253.60856091422897" r="2.3176274578121063"/>
      <circle cx="678.7785252292473" cy="258.52074705654235" r="9.18485099360515e-16"/>
      <circle cx="715.0" cy="177.61904761904762" r="0.0"/>
      <circle cx="715.6279051952931" cy="187.59931490333034" r="7.261899367811264"/>
      <circle cx="717.5066646712861" cy="197.46134164533717" r="13.812953428873119"/>
      <circle cx="720.6214394375718" cy="207.08766514090829" r="19.011899367811264"/>
      <circle cx="724.9475954865942" cy="216.36237406419286" r="22.349828132936107"/>
      <circle cx="730.4508497187473" cy="225.1718734338053" r="23.5"/>
      <circle cx="737.0874731610807" cy="233.4056367723427" r="22.34982813293611"/>
      <circle cx="744.8045504095551" cy="240.956941291669" r="19.011899367811264"/>
      <circle cx="753.5402939281372" cy="247.7235820225567" r="13.812953428873122"/>
      <circle cx="763.2244115481097" cy="253.60856091422897" r="7.261899367811266"/>
      <circle cx="773.7785252292473" cy="258.52074705654235" r="2.87791997799628e-15"/>
      <circle cx="810.0" cy="177.61904761904762" r="0.0"/>
      <circle cx="810.6279051952931" cy="187.59931490333034" r="6.798373876248843"/>
      <circle cx="812.5066646712861" cy="197.46134164533717" r="12.931275550434409"/>
      <circle cx="815.6214394375718" cy="207.08766514090829" r="17.798373876248846"/>
      <circle cx="819.9475954865942" cy="216.36237406419286" r="20.923243358493377"/>
      <circle cx="825.4508497187473" cy="225.1718734338053" r="22.0"/>
      <circle cx="832.0874731610807" cy="233.4056367723427" r="20.92324335849338"/>
      <circle cx="839.8045504095551" cy="240.956941291669" r="17.798373876248846"/>
      <circle cx="848.5402939281372" cy="247.7235820225567" r="12.931275550434412"/>
      <circle cx="858.2244115481097" cy="253.60856091422897" r="6.798373876248845"/>
      <circle cx="868.7785252292473" cy="258.52074705654235" r="2.6942229581241772e-15"/>
      <circle cx="905.0" cy="177.61904761904762" r="0.0"/>
      <circle cx="905.6279051952931" cy="187.59931490333034" r="4.480746418436738"/>
      <circle cx="907.5066646712861" cy="197.46134164533717" r="8.52288615824086"/>
      <circle cx="910.6214394375718" cy="207.08766514090829" r="11.730746418436738"/>
      <circle cx="914.9475954865942" cy="216.36237406419286" r="13.790319486279726"/>
      <circle cx="920.4508497187473" cy="225.1718734338053" r="14.5"/>
      <circle cx="927.0874731610807" cy="233.4056367723427" r="13.790319486279728"/>
      <circle cx="934.8045504095551" cy="240.956941291669" r="11.730746418436738"/>
      <circle cx="943.5402939281372" cy="247.7235820225567" r="8.522886158240862"/>
      <circle cx="953.2244115481097" cy="253.60856091422897" r="4.4807464184367385"/>
      <circle cx="963.7785252292473" cy="258.52074705654235" r="1.7757378587636622e-15"/>
      <circle cx="50.0" cy="305.23809523809524" r="0.0"/>
      <circle cx="50.62790519529313" cy="315.21836252237796" r="4.944271909999158"/>
      <circle cx="52.50666467128609" cy="325.0803892643848" r="9.40456403667957"/>
      <circle cx="55.62143943757174" cy="334.7067127599559" r="12.94427190999916"/>
      <circle cx="59.947595486594196" cy="343.98142168324046" r="15.216904260722456"/>
      <circle cx="65.45084971874738" cy="352.7909210528529" r="16.0"/>
      <circle cx="72.08747316108068" cy="361.02468439139034" r="15.216904260722458"/>
      <circle cx="79.80455040955509" cy="368.5759889107166" r="12.94427190999916"/>
      <circle cx="88.54029392813723" cy="375.34262964160433" r="9.404564036679572"/>
      <circle cx="98.2244115481097" cy="381.22760853327657" r="4.94427190999916"/>
      <circle cx="108.77852522924732" cy="386.13979467559" r="1.959434878635765e-15"/>
      <circle cx="145.0" cy="305.23809523809524" r="0.0"/>
      <circle cx="145.62790519529312" cy="315.21836252237796" r="2.7811529493745266"/>
      <circle cx="147.50666467128607" cy="325.0803892643848" r="5.2900672706322585"/>
      <circle cx="150.62143943757175" cy="334.7067127599559" r="7.281152949374527"/>
      <circle cx="154.9475954865942" cy="343.98142168324046" r="8.559508646656381"/>
      <circle cx="160.45084971874738" cy="352.7909210528529" r="9.0"/>
      <circle cx="167.08747316108068" cy="361.02468439139034" r="8.559508646656383"/>
      <circle cx="174.80455040955508" cy="368.5759889107166" r="7.281152949374527"/>
      <circle cx="183.54029392813723" cy="375.34262964160433" r="5.290067270632259"/>
      <circle cx="193.22441154810969" cy="381.22760853327657" r="2.7811529493745275"/>
      <circle cx="203.77852522924732" cy="386.13979467559" r="1.102182119232618e-15"/>
      <circle cx="240.0" cy="305.23809523809524" r="0.0"/>
      <circle cx="240.62790519529312" cy="315.21836252237796" r="5.407797401561579"/>
      <circle cx="242.50666467128607" cy="325.0803892643848" r="10.28624191511828"/>
      <circle cx="245.62143943757175" cy="334.7067127599559" r="14.15779740156158"/>
      <circle cx="249.9475954865942" cy="343.98142168324046" r="16.643489035165185"/>
      <circle cx="255.45084971874738" cy="352.7909210528529" r="17.5"/>
      <circle cx="262.08747316108065" cy="361.02468439139034" r="16.64348903516519"/>
      <circle cx="269.8045504095551" cy="368.5759889107166" r="14.15779740156158"/>
      <circle cx="278.5402939281372" cy="375.34262964160433" r="10.286241915118282"/>
      <circle cx="288.2244115481097" cy="381.22760853327657" r="5.407797401561582"/>
      <circle cx="298.7785252292473" cy="386.13979467559" r="2.1431318985078682e-15"/>
      <circle cx="335.0" cy="305.23809523809524" r="0.0"/>
      <circle cx="335.6279051952931" cy="315.21836252237796" r="5.098780407186632"/>
      <circle cx="337.5066646712861" cy="325.0803892643848" r="9.698456662825807"/>
      <circle cx="340.6214394375717" cy="334.7067127599559" r="13.348780407186633"/>
      <circle cx="344.9475954865942" cy="343.98142168324046" r="15.692432518870033"/>
      <circle cx="350.45084971874735" cy="352.7909210528529" r="16.5"/>
      <circle cx="357.08747316108065" cy="361.02468439139034" r="15.692432518870035"/>
      <circle cx="364.8045504095551" cy="368.5759889107166" r="13.348780407186633"/>
      <circle cx="373.5402939281372" cy="375.34262964160433" r="9.698456662825809"/>
      <circle cx="383.2244115481097" cy="381.22760853327657" r="5.098780407186634"/>
      <circle cx="393.7785252292473" cy="386.13979467559" r="2.0206672185931327e-15"/>
      <circle cx="430.0" cy="305.23809523809524" r="0.0"/>
      <circle cx="430.6279051952931" cy="315.21836252237796" r="3.090169943749474"/>
      <circle cx="432.5066646712861" cy="325.0803892643848" r="5.877852522924732"/>
      <circle cx="435.6214394375717" cy="334.7067127599559" r="8.090169943749475"/>
      <circle cx="439.9475954865942" cy="343.98142168324046" r="9.510565162951535"/>
      <circle cx="445.45084971874735" cy="352.7909210528529" r="10.0"/>
      <circle cx="452.08747316108065" cy="361.02468439139034" r="9.510565162951536"/>
      <circle cx="459.8045504095551" cy="368.5759889107166" r="8.090169943749475"/>
      <circle cx="468.5402939281372" cy="375.34262964160433" r="5.877852522924733"/>
      <circle cx="478.2244115481097" cy="381.22760853327657" r="3.090169943749475"/>
      <circle cx="488.7785252292473" cy="386.13979467559" r="1.2246467991473533e-15"/>
      <circle cx="525.0" cy="305.23809523809524" r="0.0"/>
      <circle cx="525.6279051952931" cy="315.21836252237796" r="5.7168143959365265"/>
      <circle cx="527.5066646712861" cy="325.0803892643848" r="10.874027167410754"/>
      <circle cx="530.6214394375718" cy="334.7067127599559" r="14.966814395936527"/>
      <circle cx="534.9475954865942" cy="343.98142168324046" r="17.59454555146034"/>
      <circle cx="540.4508497187473" cy="352.7909210528529" r="18.5"/>
      <circle cx="547.0874731610807" cy="361.02468439139034" r="17.594545551460342"/>
      <circle cx="554.8045504095551" cy="368.5759889107166" r="14.966814395936527"/>
      <circle cx="563.5402939281372" cy="375.34262964160433" r="10.874027167410755"/>
      <circle cx="573.2244115481097" cy="381.22760853327657" r="5.716814395936529"/>
      <circle cx="583.7785252292473" cy="386.13979467559" r="2.2655965784226034e-15"/>
      <circle cx="620.0" cy="305.23809523809524" r="0.0"/>
      <circle cx="620.6279051952931" cy="315.21836252237796" r="5.098780407186632"/>
      <circle cx="622.5066646712861" cy="325.0803892643848" r="9.698456662825807"/>
      <circle cx="625.6214394375718" cy="334.7067127599559" r="13.348780407186633"/>
      <circle cx="629.9475954865942" cy="343.98142168324046" r="15.692432518870033"/>
      <circle cx="635.4508497187473" cy="352.7909210528529" r="16.5"/>
      <circle cx="642.0874731610807" cy="361.02468439139034" r="15.692432518870035"/>
      <circle cx="649.8045504095551" cy="368.5759889107166" r="13.348780407186633"/>
      <circle cx="658.5402939281372" cy="375.34262964160433" r="9.698456662825809"/>
      <circle cx="668.2244115481097" cy="381.22760853327657" r="5.098780407186634"/>
      <circle cx="678.7785252292473" cy="386.13979467559" r="2.0206672185931327e-15"/>
      <circle cx="715.0" cy="305.23809523809524" r="0.0"/>
      <circle cx="715.6279051952931" cy="315.21836252237796" r="3.7082039324993685"/>
      <circle cx="717.5066646712861" cy="325.0803892643848" r="7.053423027509678"/>
      <circle cx="720.6214394375718" cy="334.7067127599559" r="9.70820393249937"/>
      <circle cx="724.9475954865942" cy="343.98142168324046" r="11.412678195541842"/>
      <circle cx="730.4508497187473" cy="352.7909210528529" r="12.0"/>
      <circle cx="737.0874731610807" cy="361.02468439139034" r="11.412678195541844"/>
      <circle cx="744.8045504095551" cy="368.5759889107166" r="9.70820393249937"/>
      <circle cx="753.5402939281372" cy="375.34262964160433" r="7.0534230275096785"/>
      <circle cx="763.2244115481097" cy="381.22760853327657" r="3.7082039324993703"/>
      <circle cx="773.7785252292473" cy="386.13979467559" r="1.4695761589768238e-15"/>
      <circle cx="810.0" cy="305.23809523809524" r="0.0"/>
      <circle cx="810.6279051952931" cy="315.21836252237796" r="7.570916362186211"/>
      <circle cx="812.5066646712861" cy="325.0803892643848" r="14.400738681165592"/>
      <circle cx="815.6214394375718" cy="334.7067127599559" r="19.820916362186214"/>
      <circle cx="819.9475954865942" cy="343.98142168324046" r="23.30088464923126"/>
      <circle cx="825.4508497187473" cy="352.7909210528529" r="24.5"/>
      <circle cx="832.0874731610807" cy="361.02468439139034" r="23.300884649231264"/>
      <circle cx="839.8045504095551" cy="368.5759889107166" r="19.820916362186214"/>
      <circle cx="848.5402939281372" cy="375.34262964160433" r="14.400738681165594"/>
      <circle cx="858.2244115481097" cy="381.22760853327657" r="7.570916362186214"/>
      <circle cx="868.7785252292473" cy="386.13979467559" r="3.0003846579110155e-15"/>
      <circle cx="905.0" cy="305.23809523809524" r="0.0"/>
      <circle cx="905.6279051952931" cy="315.21836252237796" r="2.1631189606246317"/>
      <circle cx="907.5066646712861" cy="325.0803892643848" r="4.114496766047312"/>
      <circle cx="910.6214394375718" cy="334.7067127599559" r="5.663118960624632"/>
      <circle cx="914.9475954865942" cy="343.98142168324046" r="6.657395614066075"/>
      <circle cx="920.4508497187473" cy="352.7909210528529" r="7.0"/>
      <circle cx="927.0874731610807" cy="361.02468439139034" r="6.6573956140660755"/>
      <circle cx="934.8045504095551" cy="368.5759889107166" r="5.663118960624632"/>
      <circle cx="943.5402939281372" cy="375.34262964160433" r="4.114496766047313"/>
      <circle cx="953.2244115481097" cy="381.22760853327657" r="2.1631189606246326"/>
      <circle cx="963.7785252292473" cy="386.13979467559" r="8.572527594031472e-16"/>
      <circle cx="50.0" cy="432.8571428571429" r="0.0"/>
      <circle cx="50.62790519529313" cy="442.8374101414256" r="6.489356881873896"/>
      <circle cx="52.50666467128609" cy="452.69943688343244" r="12.343490298141935"/>
      <circle cx="55.62143943757174" cy="462.32576037900355" r="16.989356881873896"/>
      <circle cx="59.947595486594196" cy="471.60046930228816" r="19.972186842198223"/>
      <circle cx="65.45084971874738" cy="480.4099686719006" r="21.0"/>
      <circle cx="72.08747316108068" cy="488.643732010438" r="19.972186842198226"/>
      <circle cx="79.80455040955509" cy="496.19503652976425" r="16.989356881873896"/>
      <circle cx="88.54029392813723" cy="502.961677260652" r="12.343490298141939"/>
      <circle cx="98.2244115481097" cy="508.8466561523243" r="6.489356881873897"/>
      <circle cx="108.77852522924732" cy="513.7588422946376" r="2.5717582782094417e-15"/>
      <circle cx="145.0" cy="432.8571428571429" r="0.0"/>
      <circle cx="145.62790519529312" cy="442.8374101414256" r="2.3176274578121054"/>
      <circle cx="147.50666467128607" cy="452.69943688343244" r="4.408389392193548"/>
      <circle cx="150.62143943757175" cy="462.32576037900355" r="6.067627457812106"/>
      <circle cx="154.9475954865942" cy="471.60046930228816" r="7.132923872213651"/>
      <circle cx="160.45084971874738" cy="480.4099686719006" r="7.5"/>
      <circle cx="167.08747316108068" cy="488.643732010438" r="7.132923872213652"/>
      <circle cx="174.80455040955508" cy="496.19503652976425" r="6.067627457812106"/>
      <circle cx="183.54029392813723" cy="502.961677260652" r="4.408389392193549"/>
      <circle cx="193.22441154810969" cy="508.8466561523243" r="2.3176274578121063"/>
      <circle cx="203.77852522924732" cy="513.7588422946376" r="9.18485099360515e-16"/>
      <circle cx="240.0" cy="432.8571428571429" r="0.0"/>
      <circle cx="240.62790519529312" cy="442.8374101414256" r="2.008610463437158"/>
      <circle cx="242.50666467128607" cy="452.69943688343244" r="3.8206041399010755"/>
      <circle cx="245.62143943757175" cy="462.32576037900355" r="5.258610463437158"/>
      <circle cx="249.9475954865942" cy="471.60046930228816" r="6.181867355918498"/>
      <circle cx="255.45084971874738" cy="480.4099686719006" r="6.5"/>
      <circle cx="262.08747316108065" cy="488.643732010438" r="6.181867355918499"/>
      <circle cx="269.8045504095551" cy="496.19503652976425" r="5.258610463437158"/>
      <circle cx="278.5402939281372" cy="502.961677260652" r="3.820604139901076"/>
      <circle cx="288.2244115481097" cy="508.8466561523243" r="2.008610463437159"/>
      <circle cx="298.7785252292473" cy="513.7588422946376" r="7.960204194457795e-16"/>
      <circle cx="335.0" cy="432.8571428571429" r="0.0"/>
      <circle cx="335.6279051952931" cy="442.8374101414256" r="4.326237921249263"/>
      <circle cx="337.5066646712861" cy="452.69943688343244" r="8.228993532094623"/>
      <circle cx="340.6214394375717" cy="462.32576037900355" r="11.326237921249264"/>
      <circle cx="344.9475954865942" cy="471.60046930228816" r="13.31479122813215"/>
      <circle cx="350.45084971874735" cy="480.4099686719006" r="14.0"/>
      <circle cx="357.08747316108065" cy="488.643732010438" r="13.314791228132151"/>
      <circle cx="364.8045504095551" cy="496.19503652976425" r="11.326237921249264"/>
      <circle cx="373.5402939281372" cy="502.961677260652" r="8.228993532094625"/>
      <circle cx="383.2244115481097" cy="508.8466561523243" r="4.326237921249265"/>
      <circle cx="393.7785252292473" cy="513.7588422946376" r="1.7145055188062944e-15"/>
      <circle cx="430.0" cy="432.8571428571429" r="0.0"/>
      <circle cx="430.6279051952931" cy="442.8374101414256" r="7.416407864998737"/>
      <circle cx="432.5066646712861" cy="452.69943688343244" r="14.106846055019355"/>
      <circle cx="435.6214394375717" cy="462.32576037900355" r="19.41640786499874"/>
      <circle cx="439.9475954865942" cy="471.60046930228816" r="22.825356391083684"/>
      <circle cx="445.45084971874735" cy="480.4099686719006" r="24.0"/>
      <circle cx="452.08747316108065" cy="488.643732010438" r="22.825356391083687"/>
      <circle cx="459.8045504095551" cy="496.19503652976425" r="19.41640786499874"/>
      <circle cx="468.5402939281372" cy="502.961677260652" r="14.106846055019357"/>
      <circle cx="478.2244115481097" cy="508.8466561523243" r="7.416407864998741"/>
      <circle cx="488.7785252292473" cy="513.7588422946376" r="2.9391523179536475e-15"/>
      <circle cx="525.0" cy="432.8571428571429" r="0.0"/>
      <circle cx="525.6279051952931" cy="442.8374101414256" r="6.952882373436316"/>
      <circle cx="527.5066646712861" cy="452.69943688343244" r="13.225168176580645"/>
      <circle cx="530.6214394375718" cy="462.32576037900355" r="18.202882373436317"/>
      <circle cx="534.9475954865942" cy="471.60046930228816" r="21.398771616640953"/>
      <circle cx="540.4508497187473" cy="480.4099686719006" r="22.5"/>
      <circle cx="547.0874731610807" cy="488.643732010438" r="21.398771616640957"/>
      <circle cx="554.8045504095551" cy="496.19503652976425" r="18.202882373436317"/>
      <circle cx="563.5402939281372" cy="502.961677260652" r="13.225168176580649"/>
      <circle cx="573.2244115481097" cy="508.8466561523243" r="6.952882373436319"/>
      <circle cx="583.7785252292473" cy="513.7588422946376" r="2.7554552980815448e-15"/>
      <circle cx="620.0" cy="432.8571428571429" r="0.0"/>
      <circle cx="620.6279051952931" cy="442.8374101414256" r="2.008610463437158"/>
      <circle cx="622.5066646712861" cy="452.69943688343244" r="3.8206041399010755"/>
      <circle cx="625.6214394375718" cy="462.32576037900355" r="5.258610463437158"/>
      <circle cx="629.9475954865942" cy="471.60046930228816" r="6.181867355918498"/>
      <circle cx="635.4508497187473" cy="480.4099686719006" r="6.5"/>
      <circle cx="642.0874731610807" cy="488.643732010438" r="6.181867355918499"/>
      <circle cx="649.8045504095551" cy="496.19503652976425" r="5.258610463437158"/>
      <circle cx="658.5402939281372" cy="502.961677260652" r="3.820604139901076"/>
      <circle cx="668.2244115481097" cy="508.8466561523243" r="2.008610463437159"/>
      <circle cx="678.7785252292473" cy="513.7588422946376" r="7.960204194457795e-16"/>
      <circle cx="715.0" cy="432.8571428571429" r="0.0"/>
      <circle cx="715.6279051952931" cy="442.8374101414256" r="6.643865379061369"/>
      <circle cx="717.5066646712861" cy="452.69943688343244" r="12.637382924288172"/>
      <circle cx="720.6214394375718" cy="462.32576037900355" r="17.39386537906137"/>
      <circle cx="724.9475954865942" cy="471.60046930228816" r="20.4477151003458"/>
      <circle cx="730.4508497187473" cy="480.4099686719006" r="21.5"/>
      <circle cx="737.0874731610807" cy="488.643732010438" r="20.447715100345803"/>
      <circle cx="744.8045504095551" cy="496.19503652976425" r="17.39386537906137"/>
      <circle cx="753.5402939281372" cy="502.961677260652" r="12.637382924288175"/>
      <circle cx="763.2244115481097" cy="508.8466561523243" r="6.6438653790613715"/>
      <circle cx="773.7785252292473" cy="513.7588422946376" r="2.6329906181668092e-15"/>
      <circle cx="810.0" cy="432.8571428571429" r="0.0"/>
      <circle cx="810.6279051952931" cy="442.8374101414256" r="2.472135954999579"/>
      <circle cx="812.5066646712861" cy="452.69943688343244" r="4.702282018339785"/>
      <circle cx="815.6214394375718" cy="462.32576037900355" r="6.47213595499958"/>
      <circle cx="819.9475954865942" cy="471.60046930228816" r="7.608452130361228"/>
      <circle cx="825.4508497187473" cy="480.4099686719006" r="8.0"/>
      <circle cx="832.0874731610807" cy="488.643732010438" r="7.608452130361229"/>
      <circle cx="839.8045504095551" cy="496.19503652976425" r="6.47213595499958"/>
      <circle cx="848.5402939281372" cy="502.961677260652" r="4.702282018339786"/>
      <circle cx="858.2244115481097" cy="508.8466561523243" r="2.47213595499958"/>
      <circle cx="868.7785252292473" cy="513.7588422946376" r="9.797174393178826e-16"/>
      <circle cx="905.0" cy="432.8571428571429" r="0.0"/>
      <circle cx="905.6279051952931" cy="442.8374101414256" r="4.017220926874316"/>
      <circle cx="907.5066646712861" cy="452.69943688343244" r="7.641208279802151"/>
      <circle cx="910.6214394375718" cy="462.32576037900355" r="10.517220926874316"/>
      <circle cx="914.9475954865942" cy="471.60046930228816" r="12.363734711836996"/>
      <circle cx="920.4508497187473" cy="480.4099686719006" r="13.0"/>
      <circle cx="927.0874731610807" cy="488.643732010438" r="12.363734711836997"/>
      <circle cx="934.8045504095551" cy="496.19503652976425" r="10.517220926874316"/>
      <circle cx="943.5402939281372" cy="502.961677260652" r="7.641208279802152"/>
      <circle cx="953.2244115481097" cy="508.8466561523243" r="4.017220926874318"/>
      <circle cx="963.7785252292473" cy="513.7588422946376" r="1.592040838891559e-15"/>
      <circle cx="50.0" cy="560.4761904761905" r="0.0"/>
      <circle cx="50.62790519529313" cy="570.4564577604732" r="6.180339887498948"/>
      <circle cx="52.50666467128609" cy="580.31848450248" r="11.755705045849464"/>
      <circle cx="55.62143943757174" cy="589.9448079980511" r="16.18033988749895"/>
      <circle cx="59.947595486594196" cy="599.2195169213358" r="19.02113032590307"/>
      <circle cx="65.45084971874738" cy="608.0290162909481" r="20.0"/>
      <circle cx="72.08747316108068" cy="616.2627796294855" r="19.021130325903073"/>
      <circle cx="79.80455040955509" cy="623.8140841488118" r="16.18033988749895"/>
      <circle cx="88.54029392813723" cy="630.5807248796996" r="11.755705045849465"/>
      <circle cx="98.2244115481097" cy="636.4657037713719" r="6.18033988749895"/>
      <circle cx="108.77852522924732" cy="641.3778899136852" r="2.4492935982947065e-15"/>
      <circle cx="145.0" cy="560.4761904761905" r="0.0"/>
      <circle cx="145.62790519529312" cy="570.4564577604732" r="3.244678440936948"/>
      <circle cx="147.50666467128607" cy="580.31848450248" r="6.171745149070968"/>
      <circle cx="150.62143943757175" cy="589.9448079980511" r="8.494678440936948"/>
      <circle cx="154.9475954865942" cy="599.2195169213358" r="9.986093421099111"/>
      <circle cx="160.45084971874738" cy="608.0290162909481" r="10.5"/>
      <circle cx="167.08747316108068" cy="616.2627796294855" r="9.986093421099113"/>
      <circle cx="174.80455040955508" cy="623.8140841488118" r="8.494678440936948"/>
      <circle cx="183.54029392813723" cy="630.5807248796996" r="6.171745149070969"/>
      <circle cx="193.22441154810969" cy="636.4657037713719" r="3.2446784409369487"/>
      <circle cx="203.77852522924732" cy="641.3778899136852" r="1.2858791391047208e-15"/>
      <circle cx="240.0" cy="560.4761904761905" r="0.0"/>
      <circle cx="240.62790519529312" cy="570.4564577604732" r="3.3991869381244215"/>
      <circle cx="242.50666467128607" cy="580.31848450248" r="6.465637775217204"/>
      <circle cx="245.62143943757175" cy="589.9448079980511" r="8.899186938124423"/>
      <circle cx="249.9475954865942" cy="599.2195169213358" r="10.461621679246688"/>
      <circle cx="255.45084971874738" cy="608.0290162909481" r="11.0"/>
      <circle cx="262.08747316108065" cy="616.2627796294855" r="10.46162167924669"/>
      <circle cx="269.8045504095551" cy="623.8140841488118" r="8.899186938124423"/>
      <circle cx="278.5402939281372" cy="630.5807248796996" r="6.465637775217206"/>
      <circle cx="288.2244115481097" cy="636.4657037713719" r="3.3991869381244224"/>
      <circle cx="298.7785252292473" cy="641.3778899136852" r="1.3471114790620886e-15"/>
      <circle cx="335.0" cy="560.4761904761905" r="0.0"/>
      <circle cx="335.6279051952931" cy="570.4564577604732" r="7.1073908706237905"/>
      <circle cx="337.5066646712861" cy="580.31848450248" r="13.519060802726882"/>
      <circle cx="340.6214394375717" cy="589.9448079980511" r="18.607390870623792"/>
      <circle cx="344.9475954865942" cy="599.2195169213358" r="21.87429987478853"/>
      <circle cx="350.45084971874735" cy="608.0290162909481" r="23.0"/>
      <circle cx="357.08747316108065" cy="616.2627796294855" r="21.874299874788534"/>
      <circle cx="364.8045504095551" cy="623.8140841488118" r="18.607390870623792"/>
      <circle cx="373.5402939281372" cy="630.5807248796996" r="13.519060802726885"/>
      <circle cx="383.2244115481097" cy="636.4657037713719" r="7.107390870623792"/>
      <circle cx="393.7785252292473" cy="641.3778899136852" r="2.8166876380389124e-15"/>
      <circle cx="430.0" cy="560.4761904761905" r="0.0"/>
      <circle cx="430.6279051952931" cy="570.4564577604732" r="4.480746418436738"/>
      <circle cx="432.5066646712861" cy="580.31848450248" r="8.52288615824086"/>
      <circle cx="435.6214394375717" cy="589.9448079980511" r="11.730746418436738"/>
      <circle cx="439.9475954865942" cy="599.2195169213358" r="13.790319486279726"/>
      <circle cx="445.45084971874735" cy="608.0290162909481" r="14.5"/>
      <circle cx="452.08747316108065" cy="616.2627796294855" r="13.790319486279728"/>
      <circle cx="459.8045504095551" cy="623.8140841488118" r="11.730746418436738"/>
      <circle cx="468.5402939281372" cy="630.5807248796996" r="8.522886158240862"/>
      <circle cx="478.2244115481097" cy="636.4657037713719" r="4.4807464184367385"/>
      <circle cx="488.7785252292473" cy="641.3778899136852" r="1.7757378587636622e-15"/>
      <circle cx="525.0" cy="560.4761904761905" r="0.0"/>
      <circle cx="525.6279051952931" cy="570.4564577604732" r="4.480746418436738"/>
      <circle cx="527.5066646712861" cy="580.31848450248" r="8.52288615824086"/>
      <circle cx="530.6214394375718" cy="589.9448079980511" r="11.730746418436738"/>
      <circle cx="534.9475954865942" cy="599.2195169213358" r="13.790319486279726"/>
      <circle cx="540.4508497187473" cy="608.0290162909481" r="14.5"/>
      <circle cx="547.0874731610807" cy="616.2627796294855" r="13.790319486279728"/>
      <circle cx="554.8045504095551" cy="623.8140841488118" r="11.730746418436738"/>
      <circle cx="563.5402939281372" cy="630.5807248796996" r="8.522886158240862"/>
      <circle cx="573.2244115481097" cy="636.4657037713719" r="4.4807464184367385"/>
      <circle cx="583.7785252292473" cy="641.3778899136852" r="1.7757378587636622e-15"/>
      <circle cx="620.0" cy="560.4761904761905" r="0.0"/>
      <circle cx="620.6279051952931" cy="570.4564577604732" r="5.098780407186632"/>
      <circle cx="622.5066646712861" cy="580.31848450248" r="9.698456662825807"/>
      <circle cx="625.6214394375718" cy="589.9448079980511" r="13.348780407186633"/>
      <circle cx="629.9475954865942" cy="599.2195169213358" r="15.692432518870033"/>
      <circle cx="635.4508497187473" cy="608.0290162909481" r="16.5"/>
      <circle cx="642.0874731610807" cy="616.2627796294855" r="15.692432518870035"/>
      <circle cx="649.8045504095551" cy="623.8140841488118" r="13.348780407186633"/>
      <circle cx="658.5402939281372" cy="630.5807248796996" r="9.698456662825809"/>
      <circle cx="668.2244115481097" cy="636.4657037713719" r="5.098780407186634"/>
      <circle cx="678.7785252292473" cy="641.3778899136852" r="2.0206672185931327e-15"/>
      <circle cx="715.0" cy="560.4761904761905" r="0.0"/>
      <circle cx="715.6279051952931" cy="570.4564577604732" r="5.098780407186632"/>
      <circle cx="717.5066646712861" cy="580.31848450248" r="9.698456662825807"/>
      <circle cx="720.6214394375718" cy="589.9448079980511" r="13.348780407186633"/>
      <circle cx="724.9475954865942" cy="599.2195169213358" r="15.692432518870033"/>
      <circle cx="730.4508497187473" cy="608.0290162909481" r="16.5"/>
      <circle cx="737.0874731610807" cy="616.2627796294855" r="15.692432518870035"/>
      <circle cx="744.8045504095551" cy="623.8140841488118" r="13.348780407186633"/>
      <circle cx="753.5402939281372" cy="630.5807248796996" r="9.698456662825809"/>
      <circle cx="763.2244115481097" cy="636.4657037713719" r="5.098780407186634"/>
      <circle cx="773.7785252292473" cy="641.3778899136852" r="2.0206672185931327e-15"/>
      <circle cx="810.0" cy="560.4761904761905" r="0.0"/>
      <circle cx="810.6279051952931" cy="570.4564577604732" r="4.17172942406179"/>
      <circle cx="812.5066646712861" cy="580.31848450248" r="7.935100905948388"/>
      <circle cx="815.6214394375718" cy="589.9448079980511" r="10.921729424061791"/>
      <circle cx="819.9475954865942" cy="599.2195169213358" r="12.839262969984572"/>
      <circle cx="825.4508497187473" cy="608.0290162909481" r="13.5"/>
      <circle cx="832.0874731610807" cy="616.2627796294855" r="12.839262969984574"/>
      <circle cx="839.8045504095551" cy="623.8140841488118" r="10.921729424061791"/>
      <circle cx="848.5402939281372" cy="630.5807248796996" r="7.935100905948389"/>
      <circle cx="858.2244115481097" cy="636.4657037713719" r="4.171729424061791"/>
      <circle cx="868.7785252292473" cy="641.3778899136852" r="1.6532731788489269e-15"/>
      <circle cx="905.0" cy="560.4761904761905" r="0.0"/>
      <circle cx="905.6279051952931" cy="570.4564577604732" r="1.8541019662496843"/>
      <circle cx="907.5066646712861" cy="580.31848450248" r="3.526711513754839"/>
      <circle cx="910.6214394375718" cy="589.9448079980511" r="4.854101966249685"/>
      <circle cx="914.9475954865942" cy="599.2195169213358" r="5.706339097770921"/>
      <circle cx="920.4508497187473" cy="608.0290162909481" r="6.0"/>
      <circle cx="927.0874731610807" cy="616.2627796294855" r="5.706339097770922"/>
      <circle cx="934.8045504095551" cy="623.8140841488118" r="4.854101966249685"/>
      <circle cx="943.5402939281372" cy="630.5807248796996" r="3.5267115137548393"/>
      <circle cx="953.2244115481097" cy="636.4657037713719" r="1.8541019662496852"/>
      <circle cx="963.7785252292473" cy="641.3778899136852" r="7.347880794884119e-16"/>
      <g transform="translate(1050,63.80952380952381) scale(-1,1)">
        <circle cx="50.0" cy="50.0" r="0.0"/>
        <circle cx="50.62790519529313" cy="59.98026728428272" r="3.5536954353118952"/>
        <circle cx="52.50666467128609" cy="69.84229402628955" r="6.759530401363441"/>
        <circle cx="55.62143943757174" cy="79.46861752186066" r="9.303695435311896"/>
        <circle cx="59.947595486594196" cy="88.74332644514524" r="10.937149937394265"/>
        <circle cx="65.45084971874738" cy="97.55282581475768" r="11.5"/>
        <circle cx="72.08747316108068" cy="105.78658915329507" r="10.937149937394267"/>
        <circle cx="79.80455040955509" cy="113.33789367262138" r="9.303695435311896"/>
        <circle cx="88.54029392813723" cy="120.10453440350909" r="6.759530401363443"/>
        <circle cx="98.2244115481097" cy="125.98951329518135" r="3.553695435311896"/>
        <circle cx="108.77852522924732" cy="130.90169943749476" r="1.4083438190194562e-15"/>
        <circle cx="145.0" cy="50.0" r="0.0"/>
        <circle cx="145.62790519529312" cy="59.98026728428272" r="3.3991869381244215"/>
        <circle cx="147.50666467128607" cy="69.84229402628955" r="6.465637775217204"/>
        <circle cx="150.62143943757175" cy="79.46861752186066" r="8.899186938124423"/>
        <circle cx="154.9475954865942" cy="88.74332644514524" r="10.461621679246688"/>
        <circle cx="160.45084971874738" cy="97.55282581475768" r="11.0"/>
        <circle cx="167.08747316108068" cy="105.78658915329507" r="10.46162167924669"/>
        <circle cx="174.80455040955508" cy="113.33789367262138" r="8.899186938124423"/>
        <circle cx="183.54029392813723" cy="120.10453440350909" r="6.465637775217206"/>
        <circle cx="193.22441154810969" cy="125.98951329518135" r="3.3991869381244224"/>
        <circle cx="203.77852522924732" cy="130.90169943749476" r="1.3471114790620886e-15"/>
        <circle cx="240.0" cy="50.0" r="0.0"/>
        <circle cx="240.62790519529312" cy="59.98026728428272" r="5.407797401561579"/>
        <circle cx="242.50666467128607" cy="69.84229402628955" r="10.28624191511828"/>
        <circle cx="245.62143943757175" cy="79.46861752186066" r="14.15779740156158"/>
        <circle cx="249.9475954865942" cy="88.74332644514524" r="16.643489035165185"/>
        <circle cx="255.45084971874738" cy="97.55282581475768" r="17.5"/>
        <circle cx="262.08747316108065" cy="105.78658915329507" r="16.64348903516519"/>
        <circle cx="269.8045504095551" cy="113.33789367262138" r="14.15779740156158"/>
        <circle cx="278.5402939281372" cy="120.10453440350909" r="10.286241915118282"/>
        <circle cx="288.2244115481097" cy="125.98951329518135" r="5.407797401561582"/>
        <circle cx="298.7785252292473" cy="130.90169943749476" r="2.1431318985078682e-15"/>
        <circle cx="335.0" cy="50.0" r="0.0"/>
        <circle cx="335.6279051952931" cy="59.98026728428272" r="4.944271909999158"/>
        <circle cx="337.5066646712861" cy="69.84229402628955" r="9.40456403667957"/>
        <circle cx="340.6214394375717" cy="79.46861752186066" r="12.94427190999916"/>
        <circle cx="344.9475954865942" cy="88.74332644514524" r="15.216904260722456"/>
        <circle cx="350.45084971874735" cy="97.55282581475768" r="16.0"/>
        <circle cx="357.08747316108065" cy="105.78658915329507" r="15.216904260722458"/>
        <circle cx="364.8045504095551" cy="113.33789367262138" r="12.94427190999916"/>
        <circle cx="373.5402939281372" cy="120.10453440350909" r="9.404564036679572"/>
        <circle cx="383.2244115481097" cy="125.98951329518135" r="4.94427190999916"/>
        <circle cx="393.7785252292473" cy="130.90169943749476" r="1.959434878635765e-15"/>
        <circle cx="430.0" cy="50.0" r="0.0"/>
        <circle cx="430.6279051952931" cy="59.98026728428272" r="2.1631189606246317"/>
        <circle cx="432.5066646712861" cy="69.84229402628955" r="4.114496766047312"/>
        <circle cx="435.6214394375717" cy="79.46861752186066" r="5.663118960624632"/>
        <circle cx="439.9475954865942" cy="88.74332644514524" r="6.657395614066075"/>
        <circle cx="445.45084971874735" cy="97.55282581475768" r="7.0"/>
        <circle cx="452.08747316108065" cy="105.78658915329507" r="6.6573956140660755"/>
        <circle cx="459.8045504095551" cy="113.33789367262138" r="5.663118960624632"/>
        <circle cx="468.5402939281372" cy="120.10453440350909" r="4.114496766047313"/>
        <circle cx="478.2244115481097" cy="125.98951329518135" r="2.1631189606246326"/>
        <circle cx="488.7785252292473" cy="130.90169943749476" r="8.572527594031472e-16"/>
        <circle cx="525.0" cy="50.0" r="0.0"/>
        <circle cx="525.6279051952931" cy="59.98026728428272" r="3.3991869381244215"/>
        <circle cx="527.5066646712861" cy="69.84229402628955" r="6.465637775217204"/>
        <circle cx="530.6214394375718" cy="79.46861752186066" r="8.899186938124423"/>
        <circle cx="534.9475954865942" cy="88.74332644514524" r="10.461621679246688"/>
        <circle cx="540.4508497187473" cy="97.55282581475768" r="11.0"/>
        <circle cx="547.0874731610807" cy="105.78658915329507" r="10.46162167924669"/>
        <circle cx="554.8045504095551" cy="113.33789367262138" r="8.899186938124423"/>
        <circle cx="563.5402939281372" cy="120.10453440350909" r="6.465637775217206"/>
        <circle cx="573.2244115481097" cy="125.98951329518135" r="3.3991869381244224"/>
        <circle cx="583.7785252292473" cy="130.90169943749476" r="1.3471114790620886e-15"/>
        <circle cx="620.0" cy="50.0" r="0.0"/>
        <circle cx="620.6279051952931" cy="59.98026728428272" r="4.326237921249263"/>
        <circle cx="622.5066646712861" cy="69.84229402628955" r="8.228993532094623"/>
        <circle cx="625.6214394375718" cy="79.46861752186066" r="11.326237921249264"/>
        <circle cx="629.9475954865942" cy="88.74332644514524" r="13.31479122813215"/>
        <circle cx="635.4508497187473" cy="97.55282581475768" r="14.0"/>
        <circle cx="642.0874731610807" cy="105.78658915329507" r="13.314791228132151"/>
        <circle cx="649.8045504095551" cy="113.33789367262138" r="11.326237921249264"/>
        <circle cx="658.5402939281372" cy="120.10453440350909" r="8.228993532094625"/>
        <circle cx="668.2244115481097" cy="125.98951329518135" r="4.326237921249265"/>
        <circle cx="678.7785252292473" cy="130.90169943749476" r="1.7145055188062944e-15"/>
        <circle cx="715.0" cy="50.0" r="0.0"/>
        <circle cx="715.6279051952931" cy="59.98026728428272" r="2.472135954999579"/>
        <circle cx="717.5066646712861" cy="69.84229402628955" r="4.702282018339785"/>
        <circle cx="720.6214394375718" cy="79.46861752186066" r="6.47213595499958"/>
        <circle cx="724.9475954865942" cy="88.74332644514524" r="7.608452130361228"/>
        <circle cx="730.4508497187473" cy="97.55282581475768" r="8.0"/>
        <circle cx="737.0874731610807" cy="105.78658915329507" r="7.608452130361229"/>
        <circle cx="744.8045504095551" cy="113.33789367262138" r="6.47213595499958"/>
        <circle cx="753.5402939281372" cy="120.10453440350909" r="4.702282018339786"/>
        <circle cx="763.2244115481097" cy="125.98951329518135" r="2.47213595499958"/>
        <circle cx="773.7785252292473" cy="130.90169943749476" r="9.797174393178826e-16"/>
        <circle cx="810.0" cy="50.0" r="0.0"/>
        <circle cx="810.6279051952931" cy="59.98026728428272" r="7.261899367811264"/>
        <circle cx="812.5066646712861" cy="69.84229402628955" r="13.812953428873119"/>
        <circle cx="815.6214394375718" cy="79.46861752186066" r="19.011899367811264"/>
        <circle cx="819.9475954865942" cy="88.74332644514524" r="22.349828132936107"/>
        <circle cx="825.4508497187473" cy="97.55282581475768" r="23.5"/>
        <circle cx="832.0874731610807" cy="105.78658915329507" r="22.34982813293611"/>
        <circle cx="839.8045504095551" cy="113.33789367262138" r="19.011899367811264"/>
        <circle cx="848.5402939281372" cy="120.10453440350909" r="13.812953428873122"/>
        <circle cx="858.2244115481097" cy="125.98951329518135" r="7.261899367811266"/>
        <circle cx="868.7785252292473" cy="130.90169943749476" r="2.87791997799628e-15"/>
        <circle cx="905.0" cy="50.0" r="0.0"/>
        <circle cx="905.6279051952931" cy="59.98026728428272" r="7.261899367811264"/>
        <circle cx="907.5066646712861" cy="69.84229402628955" r="13.812953428873119"/>
        <circle cx="910.6214394375718" cy="79.46861752186066" r="19.011899367811264"/>
        <circle cx="914.9475954865942" cy="88.74332644514524" r="22.349828132936107"/>
        <circle cx="920.4508497187473" cy="97.55282581475768" r="23.5"/>
        <circle cx="927.0874731610807" cy="105.78658915329507" r="22.34982813293611"/>
        <circle cx="934.8045504095551" cy="113.33789367262138" r="19.011899367811264"/>
        <circle cx="943.5402939281372" cy="120.10453440350909" r="13.812953428873122"/>
        <circle cx="953.2244115481097" cy="125.98951329518135" r="7.261899367811266"/>
        <circle cx="963.7785252292473" cy="130.90169943749476" r="2.87791997799628e-15"/>
        <circle cx="50.0" cy="177.61904761904762" r="0.0"/>
        <circle cx="50.62790519529313" cy="187.59931490333034" r="5.7168143959365265"/>
        <circle cx="52.50666467128609" cy="197.46134164533717" r="10.874027167410754"/>
        <circle cx="55.62143943757174" cy="207.08766514090829" r="14.966814395936527"/>
        <circle cx="59.947595486594196" cy="216.36237406419286" r="17.59454555146034"/>
        <circle cx="65.45084971874738" cy="225.1718734338053" r="18.5"/>
        <circle cx="72.08747316108068" cy="233.4056367723427" r="17.594545551460342"/>
        <circle cx="79.80455040955509" cy="240.956941291669" r="14.966814395936527"/>
        <circle cx="88.54029392813723" cy="247.7235820225567" r="10.874027167410755"/>
        <circle cx="98.2244115481097" cy="253.60856091422897" r="5.716814395936529"/>
        <circle cx="108.77852522924732" cy="258.52074705654235" r="2.2655965784226034e-15"/>
        <circle cx="145.0" cy="177.61904761904762" r="0.0"/>
        <circle cx="145.62790519529312" cy="187.59931490333034" r="4.944271909999158"/>
        <circle cx="147.50666467128607" cy="197.46134164533717" r="9.40456403667957"/>
        <circle cx="150.62143943757175" cy="207.08766514090829" r="12.94427190999916"/>
        <circle cx="154.9475954865942" cy="216.36237406419286" r="15.216904260722456"/>
        <circle cx="160.45084971874738" cy="225.1718734338053" r="16.0"/>
        <circle cx="167.08747316108068" cy="233.4056367723427" r="15.216904260722458"/>
        <circle cx="174.80455040955508" cy="240.956941291669" r="12.94427190999916"/>
        <circle cx="183.54029392813723" cy="247.7235820225567" r="9.404564036679572"/>
        <circle cx="193.22441154810969" cy="253.60856091422897" r="4.94427190999916"/>
        <circle cx="203.77852522924732" cy="258.52074705654235" r="1.959434878635765e-15"/>
        <circle cx="240.0" cy="177.61904761904762" r="0.0"/>
        <circle cx="240.62790519529312" cy="187.59931490333034" r="4.789763412811685"/>
        <circle cx="242.50666467128607" cy="197.46134164533717" r="9.110671410533334"/>
        <circle cx="245.62143943757175" cy="207.08766514090829" r="12.539763412811686"/>
        <circle cx="249.9475954865942" cy="216.36237406419286" r="14.74137600257488"/>
        <circle cx="255.45084971874738" cy="225.1718734338053" r="15.5"/>
        <circle cx="262.08747316108065" cy="233.4056367723427" r="14.741376002574881"/>
        <circle cx="269.8045504095551" cy="240.956941291669" r="12.539763412811686"/>
        <circle cx="278.5402939281372" cy="247.7235820225567" r="9.110671410533335"/>
        <circle cx="288.2244115481097" cy="253.60856091422897" r="4.789763412811686"/>
        <circle cx="298.7785252292473" cy="258.52074705654235" r="1.8982025386783976e-15"/>
        <circle cx="335.0" cy="177.61904761904762" r="0.0"/>
        <circle cx="335.6279051952931" cy="187.59931490333034" r="5.407797401561579"/>
        <circle cx="337.5066646712861" cy="197.46134164533717" r="10.28624191511828"/>
        <circle cx="340.6214394375717" cy="207.08766514090829" r="14.15779740156158"/>
        <circle cx="344.9475954865942" cy="216.36237406419286" r="16.643489035165185"/>
        <circle cx="350.45084971874735" cy="225.1718734338053" r="17.5"/>
        <circle cx="357.08747316108065" cy="233.4056367723427" r="16.64348903516519"/>
        <circle cx="364.8045504095551" cy="240.956941291669" r="14.15779740156158"/>
        <circle cx="373.5402939281372" cy="247.7235820225567" r="10.286241915118282"/>
        <circle cx="383.2244115481097" cy="253.60856091422897" r="5.407797401561582"/>
        <circle cx="393.7785252292473" cy="258.52074705654235" r="2.1431318985078682e-15"/>
        <circle cx="430.0" cy="177.61904761904762" r="0.0"/>
        <circle cx="430.6279051952931" cy="187.59931490333034" r="4.17172942406179"/>
        <circle cx="432.5066646712861" cy="197.46134164533717" r="7.935100905948388"/>
        <circle cx="435.6214394375717" cy="207.08766514090829" r="10.921729424061791"/>
        <circle cx="439.9475954865942" cy="216.36237406419286" r="12.839262969984572"/>
        <circle cx="445.45084971874735" cy="225.1718734338053" r="13.5"/>
        <circle cx="452.08747316108065" cy="233.4056367723427" r="12.839262969984574"/>
        <circle cx="459.8045504095551" cy="240.956941291669" r="10.921729424061791"/>
        <circle cx="468.5402939281372" cy="247.7235820225567" r="7.935100905948389"/>
        <circle cx="478.2244115481097" cy="253.60856091422897" r="4.171729424061791"/>
        <circle cx="488.7785252292473" cy="258.52074705654235" r="1.6532731788489269e-15"/>
        <circle cx="525.0" cy="177.61904761904762" r="0.0"/>
        <circle cx="525.6279051952931" cy="187.59931490333034" r="3.3991869381244215"/>
        <circle cx="527.5066646712861" cy="197.46134164533717" r="6.465637775217204"/>
        <circle cx="530.6214394375718" cy="207.08766514090829" r="8.899186938124423"/>
        <circle cx="534.9475954865942" cy="216.36237406419286" r="10.461621679246688"/>
        <circle cx="540.4508497187473" cy="225.1718734338053" r="11.0"/>
        <circle cx="547.0874731610807" cy="233.4056367723427" r="10.46162167924669"/>
        <circle cx="554.8045504095551" cy="240.956941291669" r="8.899186938124423"/>
        <circle cx="563.5402939281372" cy="247.7235820225567" r="6.465637775217206"/>
        <circle cx="573.2244115481097" cy="253.60856091422897" r="3.3991869381244224"/>
        <circle cx="583.7785252292473" cy="258.52074705654235" r="1.3471114790620886e-15"/>
        <circle cx="620.0" cy="177.61904761904762" r="0.0"/>
        <circle cx="620.6279051952931" cy="187.59931490333034" r="3.7082039324993685"/>
        <circle cx="622.5066646712861" cy="197.46134164533717" r="7.053423027509678"/>
        <circle cx="625.6214394375718" cy="207.08766514090829" r="9.70820393249937"/>
        <circle cx="629.9475954865942" cy="216.36237406419286" r="11.412678195541842"/>
        <circle cx="635.4508497187473" cy="225.1718734338053" r="12.0"/>
        <circle cx="642.0874731610807" cy="233.4056367723427" r="11.412678195541844"/>
        <circle cx="649.8045504095551" cy="240.956941291669" r="9.70820393249937"/>
        <circle cx="658.5402939281372" cy="247.7235820225567" r="7.0534230275096785"/>
        <circle cx="668.2244115481097" cy="253.60856091422897" r="3.7082039324993703"/>
        <circle cx="678.7785252292473" cy="258.52074705654235" r="1.4695761589768238e-15"/>
        <circle cx="715.0" cy="177.61904761904762" r="0.0"/>
        <circle cx="715.6279051952931" cy="187.59931490333034" r="4.17172942406179"/>
        <circle cx="717.5066646712861" cy="197.46134164533717" r="7.935100905948388"/>
        <circle cx="720.6214394375718" cy="207.08766514090829" r="10.921729424061791"/>
        <circle cx="724.9475954865942" cy="216.36237406419286" r="12.839262969984572"/>
        <circle cx="730.4508497187473" cy="225.1718734338053" r="13.5"/>
        <circle cx="737.0874731610807" cy="233.4056367723427" r="12.839262969984574"/>
        <circle cx="744.8045504095551" cy="240.956941291669" r="10.921729424061791"/>
        <circle cx="753.5402939281372" cy="247.7235820225567" r="7.935100905948389"/>
        <circle cx="763.2244115481097" cy="253.60856091422897" r="4.171729424061791"/>
        <circle cx="773.7785252292473" cy="258.52074705654235" r="1.6532731788489269e-15"/>
        <circle cx="810.0" cy="177.61904761904762" r="0.0"/>
        <circle cx="810.6279051952931" cy="187.59931490333034" r="1.8541019662496843"/>
        <circle cx="812.5066646712861" cy="197.46134164533717" r="3.526711513754839"/>
        <circle cx="815.6214394375718" cy="207.08766514090829" r="4.854101966249685"/>
        <circle cx="819.9475954865942" cy="216.36237406419286" r="5.706339097770921"/>
        <circle cx="825.4508497187473" cy="225.1718734338053" r="6.0"/>
        <circle cx="832.0874731610807" cy="233.4056367723427" r="5.706339097770922"/>
        <circle cx="839.8045504095551" cy="240.956941291669" r="4.854101966249685"/>
        <circle cx="848.5402939281372" cy="247.7235820225567" r="3.5267115137548393"/>
        <circle cx="858.2244115481097" cy="253.60856091422897" r="1.8541019662496852"/>
        <circle cx="868.7785252292473" cy="258.52074705654235" r="7.347880794884119e-16"/>
        <circle cx="905.0" cy="177.61904761904762" r="0.0"/>
        <circle cx="905.6279051952931" cy="187.59931490333034" r="4.326237921249263"/>
        <circle cx="907.5066646712861" cy="197.46134164533717" r="8.228993532094623"/>
        <circle cx="910.6214394375718" cy="207.08766514090829" r="11.326237921249264"/>
        <circle cx="914.9475954865942" cy="216.36237406419286" r="13.31479122813215"/>
        <circle cx="920.4508497187473" cy="225.1718734338053" r="14.0"/>
        <circle cx="927.0874731610807" cy="233.4056367723427" r="13.314791228132151"/>
        <circle cx="934.8045504095551" cy="240.956941291669" r="11.326237921249264"/>
        <circle cx="943.5402939281372" cy="247.7235820225567" r="8.228993532094625"/>
        <circle cx="953.2244115481097" cy="253.60856091422897" r="4.326237921249265"/>
        <circle cx="963.7785252292473" cy="258.52074705654235" r="1.7145055188062944e-15"/>
        <circle cx="50.0" cy="305.23809523809524" r="0.0"/>
        <circle cx="50.62790519529313" cy="315.21836252237796" r="4.944271909999158"/>
        <circle cx="52.50666467128609" cy="325.0803892643848" r="9.40456403667957"/>
        <circle cx="55.62143943757174" cy="334.7067127599559" r="12.94427190999916"/>
        <circle cx="59.947595486594196" cy="343.98142168324046" r="15.216904260722456"/>
        <circle cx="65.45084971874738" cy="352.7909210528529" r="16.0"/>
        <circle cx="72.08747316108068" cy="361.02468439139034" r="15.216904260722458"/>
        <circle cx="79.80455040955509" cy="368.5759889107166" r="12.94427190999916"/>
        <circle cx="88.54029392813723" cy="375.34262964160433" r="9.404564036679572"/>
        <circle cx="98.2244115481097" cy="381.22760853327657" r="4.94427190999916"/>
        <circle cx="108.77852522924732" cy="386.13979467559" r="1.959434878635765e-15"/>
        <circle cx="145.0" cy="305.23809523809524" r="0.0"/>
        <circle cx="145.62790519529312" cy="315.21836252237796" r="6.643865379061369"/>
        <circle cx="147.50666467128607" cy="325.0803892643848" r="12.637382924288172"/>
        <circle cx="150.62143943757175" cy="334.7067127599559" r="17.39386537906137"/>
        <circle cx="154.9475954865942" cy="343.98142168324046" r="20.4477151003458"/>
        <circle cx="160.45084971874738" cy="352.7909210528529" r="21.5"/>
        <circle cx="167.08747316108068" cy="361.02468439139034" r="20.447715100345803"/>
        <circle cx="174.80455040955508" cy="368.5759889107166" r="17.39386537906137"/>
        <circle cx="183.54029392813723" cy="375.34262964160433" r="12.637382924288175"/>
        <circle cx="193.22441154810969" cy="381.22760853327657" r="6.6438653790613715"/>
        <circle cx="203.77852522924732" cy="386.13979467559" r="2.6329906181668092e-15"/>
        <circle cx="240.0" cy="305.23809523809524" r="0.0"/>
        <circle cx="240.62790519529312" cy="315.21836252237796" r="6.025831390311474"/>
        <circle cx="242.50666467128607" cy="325.0803892643848" r="11.461812419703227"/>
        <circle cx="245.62143943757175" cy="334.7067127599559" r="15.775831390311476"/>
        <circle cx="249.9475954865942" cy="343.98142168324046" r="18.545602067755492"/>
        <circle cx="255.45084971874738" cy="352.7909210528529" r="19.5"/>
        <circle cx="262.08747316108065" cy="361.02468439139034" r="18.545602067755496"/>
        <circle cx="269.8045504095551" cy="368.5759889107166" r="15.775831390311476"/>
        <circle cx="278.5402939281372" cy="375.34262964160433" r="11.461812419703229"/>
        <circle cx="288.2244115481097" cy="381.22760853327657" r="6.025831390311477"/>
        <circle cx="298.7785252292473" cy="386.13979467559" r="2.388061258337339e-15"/>
        <circle cx="335.0" cy="305.23809523809524" r="0.0"/>
        <circle cx="335.6279051952931" cy="315.21836252237796" r="4.635254915624211"/>
        <circle cx="337.5066646712861" cy="325.0803892643848" r="8.816778784387097"/>
        <circle cx="340.6214394375717" cy="334.7067127599559" r="12.135254915624213"/>
        <circle cx="344.9475954865942" cy="343.98142168324046" r="14.265847744427303"/>
        <circle cx="350.45084971874735" cy="352.7909210528529" r="15.0"/>
        <circle cx="357.08747316108065" cy="361.02468439139034" r="14.265847744427305"/>
        <circle cx="364.8045504095551" cy="368.5759889107166" r="12.135254915624213"/>
        <circle cx="373.5402939281372" cy="375.34262964160433" r="8.816778784387099"/>
        <circle cx="383.2244115481097" cy="381.22760853327657" r="4.635254915624213"/>
        <circle cx="393.7785252292473" cy="386.13979467559" r="1.83697019872103e-15"/>
        <circle cx="430.0" cy="305.23809523809524" r="0.0"/>
        <circle cx="430.6279051952931" cy="315.21836252237796" r="5.562305898749053"/>
        <circle cx="432.5066646712861" cy="325.0803892643848" r="10.580134541264517"/>
        <circle cx="435.6214394375717" cy="334.7067127599559" r="14.562305898749054"/>
        <circle cx="439.9475954865942" cy="343.98142168324046" r="17.119017293312762"/>
        <circle cx="445.45084971874735" cy="352.7909210528529" r="18.0"/>
        <circle cx="452.08747316108065" cy="361.02468439139034" r="17.119017293312766"/>
        <circle cx="459.8045504095551" cy="368.5759889107166" r="14.562305898749054"/>
        <circle cx="468.5402939281372" cy="375.34262964160433" r="10.580134541264519"/>
        <circle cx="478.2244115481097" cy="381.22760853327657" r="5.562305898749055"/>
        <circle cx="488.7785252292473" cy="386.13979467559" r="2.204364238465236e-15"/>
        <circle cx="525.0" cy="305.23809523809524" r="0.0"/>
        <circle cx="525.6279051952931" cy="315.21836252237796" r="2.9356614465620003"/>
        <circle cx="527.5066646712861" cy="325.0803892643848" r="5.583959896778495"/>
        <circle cx="530.6214394375718" cy="334.7067127599559" r="7.685661446562001"/>
        <circle cx="534.9475954865942" cy="343.98142168324046" r="9.035036904803958"/>
        <circle cx="540.4508497187473" cy="352.7909210528529" r="9.5"/>
        <circle cx="547.0874731610807" cy="361.02468439139034" r="9.03503690480396"/>
        <circle cx="554.8045504095551" cy="368.5759889107166" r="7.685661446562001"/>
        <circle cx="563.5402939281372" cy="375.34262964160433" r="5.583959896778496"/>
        <circle cx="573.2244115481097" cy="381.22760853327657" r="2.9356614465620012"/>
        <circle cx="583.7785252292473" cy="386.13979467559" r="1.1634144591899855e-15"/>
        <circle cx="620.0" cy="305.23809523809524" r="0.0"/>
        <circle cx="620.6279051952931" cy="315.21836252237796" r="1.545084971874737"/>
        <circle cx="622.5066646712861" cy="325.0803892643848" r="2.938926261462366"/>
        <circle cx="625.6214394375718" cy="334.7067127599559" r="4.045084971874737"/>
        <circle cx="629.9475954865942" cy="343.98142168324046" r="4.755282581475767"/>
        <circle cx="635.4508497187473" cy="352.7909210528529" r="5.0"/>
        <circle cx="642.0874731610807" cy="361.02468439139034" r="4.755282581475768"/>
        <circle cx="649.8045504095551" cy="368.5759889107166" r="4.045084971874737"/>
        <circle cx="658.5402939281372" cy="375.34262964160433" r="2.9389262614623664"/>
        <circle cx="668.2244115481097" cy="381.22760853327657" r="1.5450849718747375"/>
        <circle cx="678.7785252292473" cy="386.13979467559" r="6.123233995736766e-16"/>
        <circle cx="715.0" cy="305.23809523809524" r="0.0"/>
        <circle cx="715.6279051952931" cy="315.21836252237796" r="7.416407864998737"/>
        <circle cx="717.5066646712861" cy="325.0803892643848" r="14.106846055019355"/>
        <circle cx="720.6214394375718" cy="334.7067127599559" r="19.41640786499874"/>
        <circle cx="724.9475954865942" cy="343.98142168324046" r="22.825356391083684"/>
        <circle cx="730.4508497187473" cy="352.7909210528529" r="24.0"/>
        <circle cx="737.0874731610807" cy="361.02468439139034" r="22.825356391083687"/>
        <circle cx="744.8045504095551" cy="368.5759889107166" r="19.41640786499874"/>
        <circle cx="753.5402939281372" cy="375.34262964160433" r="14.106846055019357"/>
        <circle cx="763.2244115481097" cy="381.22760853327657" r="7.416407864998741"/>
        <circle cx="773.7785252292473" cy="386.13979467559" r="2.9391523179536475e-15"/>
        <circle cx="810.0" cy="305.23809523809524" r="0.0"/>
        <circle cx="810.6279051952931" cy="315.21836252237796" r="7.261899367811264"/>
        <circle cx="812.5066646712861" cy="325.0803892643848" r="13.812953428873119"/>
        <circle cx="815.6214394375718" cy="334.7067127599559" r="19.011899367811264"/>
        <circle cx="819.9475954865942" cy="343.98142168324046" r="22.349828132936107"/>
        <circle cx="825.4508497187473" cy="352.7909210528529" r="23.5"/>
        <circle cx="832.0874731610807" cy="361.02468439139034" r="22.34982813293611"/>
        <circle cx="839.8045504095551" cy="368.5759889107166" r="19.011899367811264"/>
        <circle cx="848.5402939281372" cy="375.34262964160433" r="13.812953428873122"/>
        <circle cx="858.2244115481097" cy="381.22760853327657" r="7.261899367811266"/>
        <circle cx="868.7785252292473" cy="386.13979467559" r="2.87791997799628e-15"/>
        <circle cx="905.0" cy="305.23809523809524" r="0.0"/>
        <circle cx="905.6279051952931" cy="315.21836252237796" r="4.17172942406179"/>
        <circle cx="907.5066646712861" cy="325.0803892643848" r="7.935100905948388"/>
        <circle cx="910.6214394375718" cy="334.7067127599559" r="10.921729424061791"/>
        <circle cx="914.9475954865942" cy="343.98142168324046" r="12.839262969984572"/>
        <circle cx="920.4508497187473" cy="352.7909210528529" r="13.5"/>
        <circle cx="927.0874731610807" cy="361.02468439139034" r="12.839262969984574"/>
        <circle cx="934.8045504095551" cy="368.5759889107166" r="10.921729424061791"/>
        <circle cx="943.5402939281372" cy="375.34262964160433" r="7.935100905948389"/>
        <circle cx="953.2244115481097" cy="381.22760853327657" r="4.171729424061791"/>
        <circle cx="963.7785252292473" cy="386.13979467559" r="1.6532731788489269e-15"/>
        <circle cx="50.0" cy="432.8571428571429" r="0.0"/>
        <circle cx="50.62790519529313" cy="442.8374101414256" r="5.253288904374106"/>
        <circle cx="52.50666467128609" cy="452.69943688343244" r="9.992349288972044"/>
        <circle cx="55.62143943757174" cy="462.32576037900355" r="13.753288904374106"/>
        <circle cx="59.947595486594196" cy="471.60046930228816" r="16.16796077701761"/>
        <circle cx="65.45084971874738" cy="480.4099686719006" r="17.0"/>
        <circle cx="72.08747316108068" cy="488.643732010438" r="16.167960777017612"/>
        <circle cx="79.80455040955509" cy="496.19503652976425" r="13.753288904374106"/>
        <circle cx="88.54029392813723" cy="502.961677260652" r="9.992349288972045"/>
        <circle cx="98.2244115481097" cy="508.8466561523243" r="5.253288904374108"/>
        <circle cx="108.77852522924732" cy="513.7588422946376" r="2.0818995585505003e-15"/>
        <circle cx="145.0" cy="432.8571428571429" r="0.0"/>
        <circle cx="145.62790519529312" cy="442.8374101414256" r="6.489356881873896"/>
        <circle cx="147.50666467128607" cy="452.69943688343244" r="12.343490298141935"/>
        <circle cx="150.62143943757175" cy="462.32576037900355" r="16.989356881873896"/>
        <circle cx="154.9475954865942" cy="471.60046930228816" r="19.972186842198223"/>
        <circle cx="160.45084971874738" cy="480.4099686719006" r="21.0"/>
        <circle cx="167.08747316108068" cy="488.643732010438" r="19.972186842198226"/>
        <circle cx="174.80455040955508" cy="496.19503652976425" r="16.989356881873896"/>
        <circle cx="183.54029392813723" cy="502.961677260652" r="12.343490298141939"/>
        <circle cx="193.22441154810969" cy="508.8466561523243" r="6.489356881873897"/>
        <circle cx="203.77852522924732" cy="513.7588422946376" r="2.5717582782094417e-15"/>
        <circle cx="240.0" cy="432.8571428571429" r="0.0"/>
        <circle cx="240.62790519529312" cy="442.8374101414256" r="6.025831390311474"/>
        <circle cx="242.50666467128607" cy="452.69943688343244" r="11.461812419703227"/>
        <circle cx="245.62143943757175" cy="462.32576037900355" r="15.775831390311476"/>
        <circle cx="249.9475954865942" cy="471.60046930228816" r="18.545602067755492"/>
        <circle cx="255.45084971874738" cy="480.4099686719006" r="19.5"/>
        <circle cx="262.08747316108065" cy="488.643732010438" r="18.545602067755496"/>
        <circle cx="269.8045504095551" cy="496.19503652976425" r="15.775831390311476"/>
        <circle cx="278.5402939281372" cy="502.961677260652" r="11.461812419703229"/>
        <circle cx="288.2244115481097" cy="508.8466561523243" r="6.025831390311477"/>
        <circle cx="298.7785252292473" cy="513.7588422946376" r="2.388061258337339e-15"/>
        <circle cx="335.0" cy="432.8571428571429" r="0.0"/>
        <circle cx="335.6279051952931" cy="442.8374101414256" r="2.3176274578121054"/>
        <circle cx="337.5066646712861" cy="452.69943688343244" r="4.408389392193548"/>
        <circle cx="340.6214394375717" cy="462.32576037900355" r="6.067627457812106"/>
        <circle cx="344.9475954865942" cy="471.60046930228816" r="7.132923872213651"/>
        <circle cx="350.45084971874735" cy="480.4099686719006" r="7.5"/>
        <circle cx="357.08747316108065" cy="488.643732010438" r="7.132923872213652"/>
        <circle cx="364.8045504095551" cy="496.19503652976425" r="6.067627457812106"/>
        <circle cx="373.5402939281372" cy="502.961677260652" r="4.408389392193549"/>
        <circle cx="383.2244115481097" cy="508.8466561523243" r="2.3176274578121063"/>
        <circle cx="393.7785252292473" cy="513.7588422946376" r="9.18485099360515e-16"/>
        <circle cx="430.0" cy="432.8571428571429" r="0.0"/>
        <circle cx="430.6279051952931" cy="442.8374101414256" r="6.334848384686421"/>
        <circle cx="432.5066646712861" cy="452.69943688343244" r="12.049597671995699"/>
        <circle cx="435.6214394375717" cy="462.32576037900355" r="16.584848384686424"/>
        <circle cx="439.9475954865942" cy="471.60046930228816" r="19.496658584050646"/>
        <circle cx="445.45084971874735" cy="480.4099686719006" r="20.5"/>
        <circle cx="452.08747316108065" cy="488.643732010438" r="19.49665858405065"/>
        <circle cx="459.8045504095551" cy="496.19503652976425" r="16.584848384686424"/>
        <circle cx="468.5402939281372" cy="502.961677260652" r="12.049597671995702"/>
        <circle cx="478.2244115481097" cy="508.8466561523243" r="6.334848384686424"/>
        <circle cx="488.7785252292473" cy="513.7588422946376" r="2.510525938252074e-15"/>
        <circle cx="525.0" cy="432.8571428571429" r="0.0"/>
        <circle cx="525.6279051952931" cy="442.8374101414256" r="1.545084971874737"/>
        <circle cx="527.5066646712861" cy="452.69943688343244" r="2.938926261462366"/>
        <circle cx="530.6214394375718" cy="462.32576037900355" r="4.045084971874737"/>
        <circle cx="534.9475954865942" cy="471.60046930228816" r="4.755282581475767"/>
        <circle cx="540.4508497187473" cy="480.4099686719006" r="5.0"/>
        <circle cx="547.0874731610807" cy="488.643732010438" r="4.755282581475768"/>
        <circle cx="554.8045504095551" cy="496.19503652976425" r="4.045084971874737"/>
        <circle cx="563.5402939281372" cy="502.961677260652" r="2.9389262614623664"/>
        <circle cx="573.2244115481097" cy="508.8466561523243" r="1.5450849718747375"/>
        <circle cx="583.7785252292473" cy="513.7588422946376" r="6.123233995736766e-16"/>
        <circle cx="620.0" cy="432.8571428571429" r="0.0"/>
        <circle cx="620.6279051952931" cy="442.8374101414256" r="4.17172942406179"/>
        <circle cx="622.5066646712861" cy="452.69943688343244" r="7.935100905948388"/>
        <circle cx="625.6214394375718" cy="462.32576037900355" r="10.921729424061791"/>
        <circle cx="629.9475954865942" cy="471.60046930228816" r="12.839262969984572"/>
        <circle cx="635.4508497187473" cy="480.4099686719006" r="13.5"/>
        <circle cx="642.0874731610807" cy="488.643732010438" r="12.839262969984574"/>
        <circle cx="649.8045504095551" cy="496.19503652976425" r="10.921729424061791"/>
        <circle cx="658.5402939281372" cy="502.961677260652" r="7.935100905948389"/>
        <circle cx="668.2244115481097" cy="508.8466561523243" r="4.171729424061791"/>
        <circle cx="678.7785252292473" cy="513.7588422946376" r="1.6532731788489269e-15"/>
        <circle cx="715.0" cy="432.8571428571429" r="0.0"/>
        <circle cx="715.6279051952931" cy="442.8374101414256" r="6.489356881873896"/>
        <circle cx="717.5066646712861" cy="452.69943688343244" r="12.343490298141935"/>
        <circle cx="720.6214394375718" cy="462.32576037900355" r="16.989356881873896"/>
        <circle cx="724.9475954865942" cy="471.60046930228816" r="19.972186842198223"/>
        <circle cx="730.4508497187473" cy="480.4099686719006" r="21.0"/>
        <circle cx="737.0874731610807" cy="488.643732010438" r="19.972186842198226"/>
        <circle cx="744.8045504095551" cy="496.19503652976425" r="16.989356881873896"/>
        <circle cx="753.5402939281372" cy="502.961677260652" r="12.343490298141939"/>
        <circle cx="763.2244115481097" cy="508.8466561523243" r="6.489356881873897"/>
        <circle cx="773.7785252292473" cy="513.7588422946376" r="2.5717582782094417e-15"/>
        <circle cx="810.0" cy="432.8571428571429" r="0.0"/>
        <circle cx="810.6279051952931" cy="442.8374101414256" r="3.090169943749474"/>
        <circle cx="812.5066646712861" cy="452.69943688343244" r="5.877852522924732"/>
        <circle cx="815.6214394375718" cy="462.32576037900355" r="8.090169943749475"/>
        <circle cx="819.9475954865942" cy="471.60046930228816" r="9.510565162951535"/>
        <circle cx="825.4508497187473" cy="480.4099686719006" r="10.0"/>
        <circle cx="832.0874731610807" cy="488.643732010438" r="9.510565162951536"/>
        <circle cx="839.8045504095551" cy="496.19503652976425" r="8.090169943749475"/>
        <circle cx="848.5402939281372" cy="502.961677260652" r="5.877852522924733"/>
        <circle cx="858.2244115481097" cy="508.8466561523243" r="3.090169943749475"/>
        <circle cx="868.7785252292473" cy="513.7588422946376" r="1.2246467991473533e-15"/>
        <circle cx="905.0" cy="432.8571428571429" r="0.0"/>
        <circle cx="905.6279051952931" cy="442.8374101414256" r="2.9356614465620003"/>
        <circle cx="907.5066646712861" cy="452.69943688343244" r="5.583959896778495"/>
        <circle cx="910.6214394375718" cy="462.32576037900355" r="7.685661446562001"/>
        <circle cx="914.9475954865942" cy="471.60046930228816" r="9.035036904803958"/>
        <circle cx="920.4508497187473" cy="480.4099686719006" r="9.5"/>
        <circle cx="927.0874731610807" cy="488.643732010438" r="9.03503690480396"/>
        <circle cx="934.8045504095551" cy="496.19503652976425" r="7.685661446562001"/>
        <circle cx="943.5402939281372" cy="502.961677260652" r="5.583959896778496"/>
        <circle cx="953.2244115481097" cy="508.8466561523243" r="2.9356614465620012"/>
        <circle cx="963.7785252292473" cy="513.7588422946376" r="1.1634144591899855e-15"/>
        <circle cx="50.0" cy="560.4761904761905" r="0.0"/>
        <circle cx="50.62790519529313" cy="570.4564577604732" r="4.789763412811685"/>
        <circle cx="52.50666467128609" cy="580.31848450248" r="9.110671410533334"/>
        <circle cx="55.62143943757174" cy="589.9448079980511" r="12.539763412811686"/>
        <circle cx="59.947595486594196" cy="599.2195169213358" r="14.74137600257488"/>
        <circle cx="65.45084971874738" cy="608.0290162909481" r="15.5"/>
        <circle cx="72.08747316108068" cy="616.2627796294855" r="14.741376002574881"/>
        <circle cx="79.80455040955509" cy="623.8140841488118" r="12.539763412811686"/>
        <circle cx="88.54029392813723" cy="630.5807248796996" r="9.110671410533335"/>
        <circle cx="98.2244115481097" cy="636.4657037713719" r="4.789763412811686"/>
        <circle cx="108.77852522924732" cy="641.3778899136852" r="1.8982025386783976e-15"/>
        <circle cx="145.0" cy="560.4761904761905" r="0.0"/>
        <circle cx="145.62790519529312" cy="570.4564577604732" r="6.798373876248843"/>
        <circle cx="147.50666467128607" cy="580.31848450248" r="12.931275550434409"/>
        <circle cx="150.62143943757175" cy="589.9448079980511" r="17.798373876248846"/>
        <circle cx="154.9475954865942" cy="599.2195169213358" r="20.923243358493377"/>
        <circle cx="160.45084971874738" cy="608.0290162909481" r="22.0"/>
        <circle cx="167.08747316108068" cy="616.2627796294855" r="20.92324335849338"/>
        <circle cx="174.80455040955508" cy="623.8140841488118" r="17.798373876248846"/>
        <circle cx="183.54029392813723" cy="630.5807248796996" r="12.931275550434412"/>
        <circle cx="193.22441154810969" cy="636.4657037713719" r="6.798373876248845"/>
        <circle cx="203.77852522924732" cy="641.3778899136852" r="2.6942229581241772e-15"/>
        <circle cx="240.0" cy="560.4761904761905" r="0.0"/>
        <circle cx="240.62790519529312" cy="570.4564577604732" r="3.7082039324993685"/>
        <circle cx="242.50666467128607" cy="580.31848450248" r="7.053423027509678"/>
        <circle cx="245.62143943757175" cy="589.9448079980511" r="9.70820393249937"/>
        <circle cx="249.9475954865942" cy="599.2195169213358" r="11.412678195541842"/>
        <circle cx="255.45084971874738" cy="608.0290162909481" r="12.0"/>
        <circle cx="262.08747316108065" cy="616.2627796294855" r="11.412678195541844"/>
        <circle cx="269.8045504095551" cy="623.8140841488118" r="9.70820393249937"/>
        <circle cx="278.5402939281372" cy="630.5807248796996" r="7.0534230275096785"/>
        <circle cx="288.2244115481097" cy="636.4657037713719" r="3.7082039324993703"/>
        <circle cx="298.7785252292473" cy="641.3778899136852" r="1.4695761589768238e-15"/>
        <circle cx="335.0" cy="560.4761904761905" r="0.0"/>
        <circle cx="335.6279051952931" cy="570.4564577604732" r="6.025831390311474"/>
        <circle cx="337.5066646712861" cy="580.31848450248" r="11.461812419703227"/>
        <circle cx="340.6214394375717" cy="589.9448079980511" r="15.775831390311476"/>
        <circle cx="344.9475954865942" cy="599.2195169213358" r="18.545602067755492"/>
        <circle cx="350.45084971874735" cy="608.0290162909481" r="19.5"/>
        <circle cx="357.08747316108065" cy="616.2627796294855" r="18.545602067755496"/>
        <circle cx="364.8045504095551" cy="623.8140841488118" r="15.775831390311476"/>
        <circle cx="373.5402939281372" cy="630.5807248796996" r="11.461812419703229"/>
        <circle cx="383.2244115481097" cy="636.4657037713719" r="6.025831390311477"/>
        <circle cx="393.7785252292473" cy="641.3778899136852" r="2.388061258337339e-15"/>
        <circle cx="430.0" cy="560.4761904761905" r="0.0"/>
        <circle cx="430.6279051952931" cy="570.4564577604732" r="5.562305898749053"/>
        <circle cx="432.5066646712861" cy="580.31848450248" r="10.580134541264517"/>
        <circle cx="435.6214394375717" cy="589.9448079980511" r="14.562305898749054"/>
        <circle cx="439.9475954865942" cy="599.2195169213358" r="17.119017293312762"/>
        <circle cx="445.45084971874735" cy="608.0290162909481" r="18.0"/>
        <circle cx="452.08747316108065" cy="616.2627796294855" r="17.119017293312766"/>
        <circle cx="459.8045504095551" cy="623.8140841488118" r="14.562305898749054"/>
        <circle cx="468.5402939281372" cy="630.5807248796996" r="10.580134541264519"/>
        <circle cx="478.2244115481097" cy="636.4657037713719" r="5.562305898749055"/>
        <circle cx="488.7785252292473" cy="641.3778899136852" r="2.204364238465236e-15"/>
        <circle cx="525.0" cy="560.4761904761905" r="0.0"/>
        <circle cx="525.6279051952931" cy="570.4564577604732" r="1.8541019662496843"/>
        <circle cx="527.5066646712861" cy="580.31848450248" r="3.526711513754839"/>
        <circle cx="530.6214394375718" cy="589.9448079980511" r="4.854101966249685"/>
        <circle cx="534.9475954865942" cy="599.2195169213358" r="5.706339097770921"/>
        <circle cx="540.4508497187473" cy="608.0290162909481" r="6.0"/>
        <circle cx="547.0874731610807" cy="616.2627796294855" r="5.706339097770922"/>
        <circle cx="554.8045504095551" cy="623.8140841488118" r="4.854101966249685"/>
        <circle cx="563.5402939281372" cy="630.5807248796996" r="3.5267115137548393"/>
        <circle cx="573.2244115481097" cy="636.4657037713719" r="1.8541019662496852"/>
        <circle cx="583.7785252292473" cy="641.3778899136852" r="7.347880794884119e-16"/>
        <circle cx="620.0" cy="560.4761904761905" r="0.0"/>
        <circle cx="620.6279051952931" cy="570.4564577604732" r="5.562305898749053"/>
        <circle cx="622.5066646712861" cy="580.31848450248" r="10.580134541264517"/>
        <circle cx="625.6214394375718" cy="589.9448079980511" r="14.562305898749054"/>
        <circle cx="629.9475954865942" cy="599.2195169213358" r="17.119017293312762"/>
        <circle cx="635.4508497187473" cy="608.0290162909481" r="18.0"/>
        <circle cx="642.0874731610807" cy="616.2627796294855" r="17.119017293312766"/>
        <circle cx="649.8045504095551" cy="623.8140841488118" r="14.562305898749054"/>
        <circle cx="658.5402939281372" cy="630.5807248796996" r="10.580134541264519"/>
        <circle cx="668.2244115481097" cy="636.4657037713719" r="5.562305898749055"/>
        <circle cx="678.7785252292473" cy="641.3778899136852" r="2.204364238465236e-15"/>
        <circle cx="715.0" cy="560.4761904761905" r="0.0"/>
        <circle cx="715.6279051952931" cy="570.4564577604732" r="2.626644452187053"/>
        <circle cx="717.5066646712861" cy="580.31848450248" r="4.996174644486022"/>
        <circle cx="720.6214394375718" cy="589.9448079980511" r="6.876644452187053"/>
        <circle cx="724.9475954865942" cy="599.2195169213358" r="8.083980388508804"/>
        <circle cx="730.4508497187473" cy="608.0290162909481" r="8.5"/>
        <circle cx="737.0874731610807" cy="616.2627796294855" r="8.083980388508806"/>
        <circle cx="744.8045504095551" cy="623.8140841488118" r="6.876644452187053"/>
        <circle cx="753.5402939281372" cy="630.5807248796996" r="4.996174644486023"/>
        <circle cx="763.2244115481097" cy="636.4657037713719" r="2.626644452187054"/>
        <circle cx="773.7785252292473" cy="641.3778899136852" r="1.0409497792752501e-15"/>
        <circle cx="810.0" cy="560.4761904761905" r="0.0"/>
        <circle cx="810.6279051952931" cy="570.4564577604732" r="3.7082039324993685"/>
        <circle cx="812.5066646712861" cy="580.31848450248" r="7.053423027509678"/>
        <circle cx="815.6214394375718" cy="589.9448079980511" r="9.70820393249937"/>
        <circle cx="819.9475954865942" cy="599.2195169213358" r="11.412678195541842"/>
        <circle cx="825.4508497187473" cy="608.0290162909481" r="12.0"/>
        <circle cx="832.0874731610807" cy="616.2627796294855" r="11.412678195541844"/>
        <circle cx="839.8045504095551" cy="623.8140841488118" r="9.70820393249937"/>
        <circle cx="848.5402939281372" cy="630.5807248796996" r="7.0534230275096785"/>
        <circle cx="858.2244115481097" cy="636.4657037713719" r="3.7082039324993703"/>
        <circle cx="868.7785252292473" cy="641.3778899136852" r="1.4695761589768238e-15"/>
        <circle cx="905.0" cy="560.4761904761905" r="0.0"/>
        <circle cx="905.6279051952931" cy="570.4564577604732" r="5.098780407186632"/>
        <circle cx="907.5066646712861" cy="580.31848450248" r="9.698456662825807"/>
        <circle cx="910.6214394375718" cy="589.9448079980511" r="13.348780407186633"/>
        <circle cx="914.9475954865942" cy="599.2195169213358" r="15.692432518870033"/>
        <circle cx="920.4508497187473" cy="608.0290162909481" r="16.5"/>
        <circle cx="927.0874731610807" cy="616.2627796294855" r="15.692432518870035"/>
        <circle cx="934.8045504095551" cy="623.8140841488118" r="13.348780407186633"/>
        <circle cx="943.5402939281372" cy="630.5807248796996" r="9.698456662825809"/>
        <circle cx="953.2244115481097" cy="636.4657037713719" r="5.098780407186634"/>
        <circle cx="963.7785252292473" cy="641.3778899136852" r="2.0206672185931327e-15"/>
      </g>
    </g>
  </g>
</svg>
