<svg version="1.1" width="1150" height="870" xmlns="http://www.w3.org/2000/svg">
  <!-- Seed: 8716524647440925414 -->
  <rect x="50" y="50" width="1050" height="770" stroke="red" fill-opacity="0"/>
  <circle cx="80.0" cy="70.0" r="5.0" stroke="black" fill-opacity="0"/>
  <circle cx="80.39259815759068" cy="79.99229036240723" r="7.190082510563232" stroke="black" fill-opacity="0"/>
  <circle cx="81.56918191455689" cy="89.93834667466255" r="9.326237921249263" stroke="black" fill-opacity="0"/>
  <circle cx="83.52612192373513" cy="99.79205370864779" r="11.355866996353654" stroke="black" fill-opacity="0"/>
  <circle cx="86.25737860160923" cy="109.50753362380551" r="13.228993532094623" stroke="black" fill-opacity="0"/>
  <circle cx="89.75451610080641" cy="119.03926402016153" r="14.899494936611665" stroke="black" fill-opacity="0"/>
  <circle cx="94.00672183135433" cy="128.34219522386059" r="16.326237921249266" stroke="black" fill-opacity="0"/>
  <circle cx="99.0008314905552" cy="137.37186655175532" r="17.474091338637148" stroke="black" fill-opacity="0"/>
  <circle cx="104.7213595499958" cy="146.0845213036123" r="18.31479122813215" stroke="black" fill-opacity="0"/>
  <circle cx="111.15053513697437" cy="154.43722023302357" r="18.827636768331928" stroke="black" fill-opacity="0"/>
  <circle cx="118.26834323650898" cy="162.3879532511287" r="19.0" stroke="black" fill-opacity="0"/>
  <circle cx="126.0525711291171" cy="169.89574912075892" r="18.827636768331928" stroke="black" fill-opacity="0"/>
  <circle cx="134.4788599687456" cy="176.92078290260415" r="18.31479122813215" stroke="black" fill-opacity="0"/>
  <circle cx="143.52076139460414" cy="183.42448091946363" r="17.47409133863715" stroke="black" fill-opacity="0"/>
  <circle cx="153.14979906023285" cy="189.36962300957293" r="16.326237921249266" stroke="black" fill-opacity="0"/>
  <circle cx="163.33553495294032" cy="194.7204418453818" r="14.899494936611665" stroke="black" fill-opacity="0"/>
  <circle cx="174.0456403667957" cy="199.4427190999916" r="13.228993532094625" stroke="black" fill-opacity="0"/>
  <circle cx="185.24597138267177" cy="203.50387824972663" r="11.355866996353656" stroke="black" fill-opacity="0"/>
  <circle cx="196.90064869943308" cy="206.87307380800559" r="9.326237921249266" stroke="black" fill-opacity="0"/>
  <circle cx="208.97214165125894" cy="209.52127679278024" r="7.190082510563234" stroke="black" fill-opacity="0"/>
  <circle cx="221.4213562373095" cy="211.4213562373095" r="5.000000000000002" stroke="black" fill-opacity="0"/>
  <circle cx="280.0" cy="70.0" r="5.0" stroke="black" fill-opacity="0"/>
  <circle cx="280.39259815759067" cy="79.99229036240723" r="10.553423508928196" stroke="black" fill-opacity="0"/>
  <circle cx="281.5691819145569" cy="89.93834667466255" r="15.970103300310633" stroke="black" fill-opacity="0"/>
  <circle cx="283.5261219237351" cy="99.79205370864779" r="21.11666274075391" stroke="black" fill-opacity="0"/>
  <circle cx="286.2573786016092" cy="109.50753362380551" r="25.866376456382795" stroke="black" fill-opacity="0"/>
  <circle cx="289.7545161008064" cy="119.03926402016153" r="30.102290732122437" stroke="black" fill-opacity="0"/>
  <circle cx="294.0067218313543" cy="128.34219522386059" r="33.72010330031063" stroke="black" fill-opacity="0"/>
  <circle cx="299.0008314905552" cy="137.37186655175532" r="36.63073160868706" stroke="black" fill-opacity="0"/>
  <circle cx="304.7213595499958" cy="146.0845213036123" r="38.76250632847795" stroke="black" fill-opacity="0"/>
  <circle cx="311.1505351369744" cy="154.43722023302357" r="40.06293609112739" stroke="black" fill-opacity="0"/>
  <circle cx="318.268343236509" cy="162.3879532511287" r="40.5" stroke="black" fill-opacity="0"/>
  <circle cx="326.0525711291171" cy="169.89574912075892" r="40.06293609112738" stroke="black" fill-opacity="0"/>
  <circle cx="334.4788599687456" cy="176.92078290260415" r="38.762506328477954" stroke="black" fill-opacity="0"/>
  <circle cx="343.52076139460416" cy="183.42448091946363" r="36.63073160868706" stroke="black" fill-opacity="0"/>
  <circle cx="353.14979906023285" cy="189.36962300957293" r="33.72010330031063" stroke="black" fill-opacity="0"/>
  <circle cx="363.3355349529403" cy="194.7204418453818" r="30.102290732122437" stroke="black" fill-opacity="0"/>
  <circle cx="374.04564036679574" cy="199.4427190999916" r="25.8663764563828" stroke="black" fill-opacity="0"/>
  <circle cx="385.24597138267177" cy="203.50387824972663" r="21.116662740753913" stroke="black" fill-opacity="0"/>
  <circle cx="396.9006486994331" cy="206.87307380800559" r="15.970103300310637" stroke="black" fill-opacity="0"/>
  <circle cx="408.97214165125894" cy="209.52127679278024" r="10.5534235089282" stroke="black" fill-opacity="0"/>
  <circle cx="421.4213562373095" cy="211.4213562373095" r="5.000000000000004" stroke="black" fill-opacity="0"/>
  <circle cx="480.0" cy="70.0" r="5.0" stroke="black" fill-opacity="0"/>
  <circle cx="480.39259815759067" cy="79.99229036240723" r="6.798996347962655" stroke="black" fill-opacity="0"/>
  <circle cx="481.5691819145569" cy="89.93834667466255" r="8.553695435311894" stroke="black" fill-opacity="0"/>
  <circle cx="483.5261219237351" cy="99.79205370864779" r="10.220890747004788" stroke="black" fill-opacity="0"/>
  <circle cx="486.2573786016092" cy="109.50753362380551" r="11.759530401363442" stroke="black" fill-opacity="0"/>
  <circle cx="489.7545161008064" cy="119.03926402016153" r="13.131727983645296" stroke="black" fill-opacity="0"/>
  <circle cx="494.0067218313543" cy="128.34219522386059" r="14.303695435311896" stroke="black" fill-opacity="0"/>
  <circle cx="499.0008314905552" cy="137.37186655175532" r="15.24657502816623" stroke="black" fill-opacity="0"/>
  <circle cx="504.7213595499958" cy="146.0845213036123" r="15.937149937394265" stroke="black" fill-opacity="0"/>
  <circle cx="511.1505351369744" cy="154.43722023302357" r="16.358415916844084" stroke="black" fill-opacity="0"/>
  <circle cx="518.2683432365089" cy="162.3879532511287" r="16.5" stroke="black" fill-opacity="0"/>
  <circle cx="526.052571129117" cy="169.89574912075892" r="16.35841591684408" stroke="black" fill-opacity="0"/>
  <circle cx="534.4788599687456" cy="176.92078290260415" r="15.937149937394267" stroke="black" fill-opacity="0"/>
  <circle cx="543.5207613946042" cy="183.42448091946363" r="15.24657502816623" stroke="black" fill-opacity="0"/>
  <circle cx="553.1497990602328" cy="189.36962300957293" r="14.303695435311896" stroke="black" fill-opacity="0"/>
  <circle cx="563.3355349529403" cy="194.7204418453818" r="13.131727983645296" stroke="black" fill-opacity="0"/>
  <circle cx="574.0456403667957" cy="199.4427190999916" r="11.759530401363442" stroke="black" fill-opacity="0"/>
  <circle cx="585.2459713826718" cy="203.50387824972663" r="10.220890747004788" stroke="black" fill-opacity="0"/>
  <circle cx="596.9006486994331" cy="206.87307380800559" r="8.553695435311896" stroke="black" fill-opacity="0"/>
  <circle cx="608.9721416512589" cy="209.52127679278024" r="6.798996347962657" stroke="black" fill-opacity="0"/>
  <circle cx="621.4213562373095" cy="211.4213562373095" r="5.000000000000002" stroke="black" fill-opacity="0"/>
  <circle cx="680.0" cy="70.0" r="5.0" stroke="black" fill-opacity="0"/>
  <circle cx="680.3925981575907" cy="79.99229036240723" r="8.363340998364963" stroke="black" fill-opacity="0"/>
  <circle cx="681.5691819145569" cy="89.93834667466255" r="11.643865379061369" stroke="black" fill-opacity="0"/>
  <circle cx="683.5261219237351" cy="99.79205370864779" r="14.760795744400255" stroke="black" fill-opacity="0"/>
  <circle cx="686.2573786016093" cy="109.50753362380551" r="17.637382924288172" stroke="black" fill-opacity="0"/>
  <circle cx="689.7545161008064" cy="119.03926402016153" r="20.202795795510774" stroke="black" fill-opacity="0"/>
  <circle cx="694.0067218313543" cy="128.34219522386059" r="22.39386537906137" stroke="black" fill-opacity="0"/>
  <circle cx="699.0008314905552" cy="137.37186655175532" r="24.15664027004991" stroke="black" fill-opacity="0"/>
  <circle cx="704.7213595499958" cy="146.0845213036123" r="25.4477151003458" stroke="black" fill-opacity="0"/>
  <circle cx="711.1505351369743" cy="154.43722023302357" r="26.235299322795463" stroke="black" fill-opacity="0"/>
  <circle cx="718.2683432365089" cy="162.3879532511287" r="26.5" stroke="black" fill-opacity="0"/>
  <circle cx="726.052571129117" cy="169.89574912075892" r="26.23529932279546" stroke="black" fill-opacity="0"/>
  <circle cx="734.4788599687456" cy="176.92078290260415" r="25.447715100345803" stroke="black" fill-opacity="0"/>
  <circle cx="743.5207613946042" cy="183.42448091946363" r="24.15664027004991" stroke="black" fill-opacity="0"/>
  <circle cx="753.1497990602328" cy="189.36962300957293" r="22.39386537906137" stroke="black" fill-opacity="0"/>
  <circle cx="763.3355349529403" cy="194.7204418453818" r="20.202795795510774" stroke="black" fill-opacity="0"/>
  <circle cx="774.0456403667957" cy="199.4427190999916" r="17.637382924288175" stroke="black" fill-opacity="0"/>
  <circle cx="785.2459713826718" cy="203.50387824972663" r="14.760795744400257" stroke="black" fill-opacity="0"/>
  <circle cx="796.9006486994331" cy="206.87307380800559" r="11.64386537906137" stroke="black" fill-opacity="0"/>
  <circle cx="808.9721416512589" cy="209.52127679278024" r="8.363340998364967" stroke="black" fill-opacity="0"/>
  <circle cx="821.4213562373095" cy="211.4213562373095" r="5.000000000000003" stroke="black" fill-opacity="0"/>
  <circle cx="880.0" cy="70.0" r="5.0" stroke="black" fill-opacity="0"/>
  <circle cx="880.3925981575907" cy="79.99229036240723" r="6.564344650402308" stroke="black" fill-opacity="0"/>
  <circle cx="881.5691819145569" cy="89.93834667466255" r="8.090169943749475" stroke="black" fill-opacity="0"/>
  <circle cx="883.5261219237351" cy="99.79205370864779" r="9.539904997395467" stroke="black" fill-opacity="0"/>
  <circle cx="886.2573786016093" cy="109.50753362380551" r="10.877852522924732" stroke="black" fill-opacity="0"/>
  <circle cx="889.7545161008064" cy="119.03926402016153" r="12.071067811865476" stroke="black" fill-opacity="0"/>
  <circle cx="894.0067218313543" cy="128.34219522386059" r="13.090169943749475" stroke="black" fill-opacity="0"/>
  <circle cx="899.0008314905552" cy="137.37186655175532" r="13.910065241883679" stroke="black" fill-opacity="0"/>
  <circle cx="904.7213595499958" cy="146.0845213036123" r="14.510565162951535" stroke="black" fill-opacity="0"/>
  <circle cx="911.1505351369743" cy="154.43722023302357" r="14.876883405951379" stroke="black" fill-opacity="0"/>
  <circle cx="918.2683432365089" cy="162.3879532511287" r="15.0" stroke="black" fill-opacity="0"/>
  <circle cx="926.052571129117" cy="169.89574912075892" r="14.876883405951377" stroke="black" fill-opacity="0"/>
  <circle cx="934.4788599687456" cy="176.92078290260415" r="14.510565162951536" stroke="black" fill-opacity="0"/>
  <circle cx="943.5207613946042" cy="183.42448091946363" r="13.910065241883679" stroke="black" fill-opacity="0"/>
  <circle cx="953.1497990602328" cy="189.36962300957293" r="13.090169943749475" stroke="black" fill-opacity="0"/>
  <circle cx="963.3355349529403" cy="194.7204418453818" r="12.071067811865476" stroke="black" fill-opacity="0"/>
  <circle cx="974.0456403667957" cy="199.4427190999916" r="10.877852522924734" stroke="black" fill-opacity="0"/>
  <circle cx="985.2459713826718" cy="203.50387824972663" r="9.539904997395467" stroke="black" fill-opacity="0"/>
  <circle cx="996.9006486994331" cy="206.87307380800559" r="8.090169943749475" stroke="black" fill-opacity="0"/>
  <circle cx="1008.9721416512589" cy="209.52127679278024" r="6.56434465040231" stroke="black" fill-opacity="0"/>
  <circle cx="1021.4213562373095" cy="211.4213562373095" r="5.000000000000001" stroke="black" fill-opacity="0"/>
  <circle cx="270.0" cy="185.0" r="5.0" stroke="black" fill-opacity="0"/>
  <circle cx="269.60740184240933" cy="194.99229036240723" r="8.206906533324734" stroke="black" fill-opacity="0"/>
  <circle cx="268.4308180854431" cy="204.93834667466257" r="11.33484838468642" stroke="black" fill-opacity="0"/>
  <circle cx="266.4738780762649" cy="214.79205370864779" r="14.306805244660708" stroke="black" fill-opacity="0"/>
  <circle cx="263.7426213983908" cy="224.5075336238055" r="17.0495976719957" stroke="black" fill-opacity="0"/>
  <circle cx="260.2454838991936" cy="234.0392640201615" r="19.495689014324228" stroke="black" fill-opacity="0"/>
  <circle cx="255.99327816864567" cy="243.34219522386059" r="21.584848384686424" stroke="black" fill-opacity="0"/>
  <circle cx="250.99916850944481" cy="252.37186655175532" r="23.26563374586154" stroke="black" fill-opacity="0"/>
  <circle cx="245.27864045000422" cy="261.0845213036123" r="24.496658584050646" stroke="black" fill-opacity="0"/>
  <circle cx="238.84946486302564" cy="269.4372202330236" r="25.247610982200325" stroke="black" fill-opacity="0"/>
  <circle cx="231.731656763491" cy="277.3879532511287" r="25.5" stroke="black" fill-opacity="0"/>
  <circle cx="223.9474288708829" cy="284.8957491207589" r="25.24761098220032" stroke="black" fill-opacity="0"/>
  <circle cx="215.5211400312544" cy="291.9207829026042" r="24.49665858405065" stroke="black" fill-opacity="0"/>
  <circle cx="206.47923860539586" cy="298.42448091946363" r="23.265633745861543" stroke="black" fill-opacity="0"/>
  <circle cx="196.85020093976715" cy="304.36962300957293" r="21.584848384686424" stroke="black" fill-opacity="0"/>
  <circle cx="186.66446504705968" cy="309.7204418453818" r="19.495689014324228" stroke="black" fill-opacity="0"/>
  <circle cx="175.9543596332043" cy="314.44271909999156" r="17.049597671995702" stroke="black" fill-opacity="0"/>
  <circle cx="164.75402861732823" cy="318.50387824972665" r="14.30680524466071" stroke="black" fill-opacity="0"/>
  <circle cx="153.09935130056692" cy="321.8730738080056" r="11.334848384686424" stroke="black" fill-opacity="0"/>
  <circle cx="141.02785834874106" cy="324.5212767927802" r="8.206906533324736" stroke="black" fill-opacity="0"/>
  <circle cx="128.5786437626905" cy="326.4213562373095" r="5.000000000000003" stroke="black" fill-opacity="0"/>
  <circle cx="470.0" cy="185.0" r="5.0" stroke="black" fill-opacity="0"/>
  <circle cx="469.60740184240933" cy="194.99229036240723" r="9.301947788606348" stroke="black" fill-opacity="0"/>
  <circle cx="468.4308180854431" cy="204.93834667466257" r="13.497967345311054" stroke="black" fill-opacity="0"/>
  <circle cx="466.4738780762649" cy="214.79205370864779" r="17.484738742837536" stroke="black" fill-opacity="0"/>
  <circle cx="463.7426213983908" cy="224.5075336238055" r="21.164094438043012" stroke="black" fill-opacity="0"/>
  <circle cx="460.2454838991936" cy="234.0392640201615" r="24.445436482630058" stroke="black" fill-opacity="0"/>
  <circle cx="455.9932781686457" cy="243.34219522386059" r="27.247967345311054" stroke="black" fill-opacity="0"/>
  <circle cx="450.9991685094448" cy="252.37186655175532" r="29.502679415180115" stroke="black" fill-opacity="0"/>
  <circle cx="445.2786404500042" cy="261.0845213036123" r="31.15405419811672" stroke="black" fill-opacity="0"/>
  <circle cx="438.8494648630256" cy="269.4372202330236" r="32.16142936636629" stroke="black" fill-opacity="0"/>
  <circle cx="431.731656763491" cy="277.3879532511287" r="32.5" stroke="black" fill-opacity="0"/>
  <circle cx="423.9474288708829" cy="284.8957491207589" r="32.161429366366285" stroke="black" fill-opacity="0"/>
  <circle cx="415.5211400312544" cy="291.9207829026042" r="31.154054198116725" stroke="black" fill-opacity="0"/>
  <circle cx="406.47923860539584" cy="298.42448091946363" r="29.50267941518012" stroke="black" fill-opacity="0"/>
  <circle cx="396.85020093976715" cy="304.36962300957293" r="27.247967345311054" stroke="black" fill-opacity="0"/>
  <circle cx="386.6644650470597" cy="309.7204418453818" r="24.445436482630058" stroke="black" fill-opacity="0"/>
  <circle cx="375.95435963320426" cy="314.44271909999156" r="21.164094438043016" stroke="black" fill-opacity="0"/>
  <circle cx="364.75402861732823" cy="318.50387824972665" r="17.48473874283754" stroke="black" fill-opacity="0"/>
  <circle cx="353.0993513005669" cy="321.8730738080056" r="13.497967345311057" stroke="black" fill-opacity="0"/>
  <circle cx="341.02785834874106" cy="324.5212767927802" r="9.301947788606352" stroke="black" fill-opacity="0"/>
  <circle cx="328.5786437626905" cy="326.4213562373095" r="5.0000000000000036" stroke="black" fill-opacity="0"/>
  <circle cx="670.0" cy="185.0" r="5.0" stroke="black" fill-opacity="0"/>
  <circle cx="669.6074018424093" cy="194.99229036240723" r="8.050472068284503" stroke="black" fill-opacity="0"/>
  <circle cx="668.4308180854431" cy="204.93834667466257" r="11.025831390311474" stroke="black" fill-opacity="0"/>
  <circle cx="666.4738780762649" cy="214.79205370864779" r="13.852814744921162" stroke="black" fill-opacity="0"/>
  <circle cx="663.7426213983907" cy="224.5075336238055" r="16.46181241970323" stroke="black" fill-opacity="0"/>
  <circle cx="660.2454838991936" cy="234.0392640201615" r="18.788582233137678" stroke="black" fill-opacity="0"/>
  <circle cx="655.9932781686457" cy="243.34219522386059" r="20.775831390311474" stroke="black" fill-opacity="0"/>
  <circle cx="650.9991685094448" cy="252.37186655175532" r="22.374627221673173" stroke="black" fill-opacity="0"/>
  <circle cx="645.2786404500042" cy="261.0845213036123" r="23.545602067755492" stroke="black" fill-opacity="0"/>
  <circle cx="638.8494648630257" cy="269.4372202330236" r="24.259922641605186" stroke="black" fill-opacity="0"/>
  <circle cx="631.7316567634911" cy="277.3879532511287" r="24.5" stroke="black" fill-opacity="0"/>
  <circle cx="623.947428870883" cy="284.8957491207589" r="24.259922641605183" stroke="black" fill-opacity="0"/>
  <circle cx="615.5211400312544" cy="291.9207829026042" r="23.545602067755496" stroke="black" fill-opacity="0"/>
  <circle cx="606.4792386053958" cy="298.42448091946363" r="22.374627221673173" stroke="black" fill-opacity="0"/>
  <circle cx="596.8502009397672" cy="304.36962300957293" r="20.775831390311474" stroke="black" fill-opacity="0"/>
  <circle cx="586.6644650470597" cy="309.7204418453818" r="18.788582233137678" stroke="black" fill-opacity="0"/>
  <circle cx="575.9543596332043" cy="314.44271909999156" r="16.46181241970323" stroke="black" fill-opacity="0"/>
  <circle cx="564.7540286173282" cy="318.50387824972665" r="13.852814744921163" stroke="black" fill-opacity="0"/>
  <circle cx="553.0993513005669" cy="321.8730738080056" r="11.025831390311478" stroke="black" fill-opacity="0"/>
  <circle cx="541.0278583487411" cy="324.5212767927802" r="8.050472068284504" stroke="black" fill-opacity="0"/>
  <circle cx="528.5786437626905" cy="326.4213562373095" r="5.000000000000003" stroke="black" fill-opacity="0"/>
  <circle cx="870.0" cy="185.0" r="5.0" stroke="black" fill-opacity="0"/>
  <circle cx="869.6074018424093" cy="194.99229036240723" r="9.61481671868681" stroke="black" fill-opacity="0"/>
  <circle cx="868.4308180854431" cy="204.93834667466257" r="14.116001334060948" stroke="black" fill-opacity="0"/>
  <circle cx="866.4738780762649" cy="214.79205370864779" r="18.39271974231663" stroke="black" fill-opacity="0"/>
  <circle cx="863.7426213983907" cy="224.5075336238055" r="22.33966494262796" stroke="black" fill-opacity="0"/>
  <circle cx="860.2454838991936" cy="234.0392640201615" r="25.859650045003153" stroke="black" fill-opacity="0"/>
  <circle cx="855.9932781686457" cy="243.34219522386059" r="28.86600133406095" stroke="black" fill-opacity="0"/>
  <circle cx="850.9991685094448" cy="252.37186655175532" r="31.28469246355685" stroke="black" fill-opacity="0"/>
  <circle cx="845.2786404500042" cy="261.0845213036123" r="33.05616723070703" stroke="black" fill-opacity="0"/>
  <circle cx="838.8494648630257" cy="269.4372202330236" r="34.13680604755656" stroke="black" fill-opacity="0"/>
  <circle cx="831.7316567634911" cy="277.3879532511287" r="34.5" stroke="black" fill-opacity="0"/>
  <circle cx="823.947428870883" cy="284.8957491207589" r="34.13680604755656" stroke="black" fill-opacity="0"/>
  <circle cx="815.5211400312544" cy="291.9207829026042" r="33.05616723070703" stroke="black" fill-opacity="0"/>
  <circle cx="806.4792386053958" cy="298.42448091946363" r="31.28469246355685" stroke="black" fill-opacity="0"/>
  <circle cx="796.8502009397672" cy="304.36962300957293" r="28.86600133406095" stroke="black" fill-opacity="0"/>
  <circle cx="786.6644650470597" cy="309.7204418453818" r="25.859650045003153" stroke="black" fill-opacity="0"/>
  <circle cx="775.9543596332043" cy="314.44271909999156" r="22.339664942627962" stroke="black" fill-opacity="0"/>
  <circle cx="764.7540286173282" cy="318.50387824972665" r="18.392719742316633" stroke="black" fill-opacity="0"/>
  <circle cx="753.0993513005669" cy="321.8730738080056" r="14.116001334060952" stroke="black" fill-opacity="0"/>
  <circle cx="741.0278583487411" cy="324.5212767927802" r="9.614816718686814" stroke="black" fill-opacity="0"/>
  <circle cx="728.5786437626905" cy="326.4213562373095" r="5.0000000000000036" stroke="black" fill-opacity="0"/>
  <circle cx="1070.0" cy="185.0" r="5.0" stroke="black" fill-opacity="0"/>
  <circle cx="1069.6074018424092" cy="194.99229036240723" r="9.536599486166695" stroke="black" fill-opacity="0"/>
  <circle cx="1068.4308180854432" cy="204.93834667466257" r="13.961492836873475" stroke="black" fill-opacity="0"/>
  <circle cx="1066.4738780762648" cy="214.79205370864779" r="18.165724492446856" stroke="black" fill-opacity="0"/>
  <circle cx="1063.7426213983908" cy="224.5075336238055" r="22.04577231648172" stroke="black" fill-opacity="0"/>
  <circle cx="1060.2454838991937" cy="234.0392640201615" r="25.50609665440988" stroke="black" fill-opacity="0"/>
  <circle cx="1055.9932781686457" cy="243.34219522386059" r="28.461492836873475" stroke="black" fill-opacity="0"/>
  <circle cx="1050.9991685094449" cy="252.37186655175532" r="30.839189201462666" stroke="black" fill-opacity="0"/>
  <circle cx="1045.278640450004" cy="261.0845213036123" r="32.580638972559456" stroke="black" fill-opacity="0"/>
  <circle cx="1038.8494648630256" cy="269.4372202330236" r="33.642961877259" stroke="black" fill-opacity="0"/>
  <circle cx="1031.731656763491" cy="277.3879532511287" r="34.0" stroke="black" fill-opacity="0"/>
  <circle cx="1023.947428870883" cy="284.8957491207589" r="33.64296187725899" stroke="black" fill-opacity="0"/>
  <circle cx="1015.5211400312544" cy="291.9207829026042" r="32.580638972559456" stroke="black" fill-opacity="0"/>
  <circle cx="1006.4792386053958" cy="298.42448091946363" r="30.83918920146267" stroke="black" fill-opacity="0"/>
  <circle cx="996.8502009397672" cy="304.36962300957293" r="28.461492836873475" stroke="black" fill-opacity="0"/>
  <circle cx="986.6644650470597" cy="309.7204418453818" r="25.50609665440988" stroke="black" fill-opacity="0"/>
  <circle cx="975.9543596332043" cy="314.44271909999156" r="22.045772316481724" stroke="black" fill-opacity="0"/>
  <circle cx="964.7540286173282" cy="318.50387824972665" r="18.16572449244686" stroke="black" fill-opacity="0"/>
  <circle cx="953.0993513005669" cy="321.8730738080056" r="13.961492836873477" stroke="black" fill-opacity="0"/>
  <circle cx="941.0278583487411" cy="324.5212767927802" r="9.536599486166699" stroke="black" fill-opacity="0"/>
  <circle cx="928.5786437626905" cy="326.4213562373095" r="5.0000000000000036" stroke="black" fill-opacity="0"/>
  <circle cx="80.0" cy="300.0" r="5.0" stroke="black" fill-opacity="0"/>
  <circle cx="80.39259815759068" cy="309.99229036240723" r="8.285123765844848" stroke="black" fill-opacity="0"/>
  <circle cx="81.56918191455689" cy="319.93834667466257" r="11.489356881873896" stroke="black" fill-opacity="0"/>
  <circle cx="83.52612192373513" cy="329.7920537086478" r="14.533800494530482" stroke="black" fill-opacity="0"/>
  <circle cx="86.25737860160923" cy="339.5075336238055" r="17.343490298141937" stroke="black" fill-opacity="0"/>
  <circle cx="89.75451610080641" cy="349.0392640201615" r="19.849242404917497" stroke="black" fill-opacity="0"/>
  <circle cx="94.00672183135433" cy="358.3421952238606" r="21.989356881873896" stroke="black" fill-opacity="0"/>
  <circle cx="99.0008314905552" cy="367.3718665517553" r="23.711137007955724" stroke="black" fill-opacity="0"/>
  <circle cx="104.7213595499958" cy="376.0845213036123" r="24.972186842198223" stroke="black" fill-opacity="0"/>
  <circle cx="111.15053513697437" cy="384.4372202330236" r="25.741455152497892" stroke="black" fill-opacity="0"/>
  <circle cx="118.26834323650898" cy="392.3879532511287" r="26.0" stroke="black" fill-opacity="0"/>
  <circle cx="126.0525711291171" cy="399.8957491207589" r="25.741455152497892" stroke="black" fill-opacity="0"/>
  <circle cx="134.4788599687456" cy="406.9207829026042" r="24.972186842198226" stroke="black" fill-opacity="0"/>
  <circle cx="143.52076139460414" cy="413.42448091946363" r="23.711137007955728" stroke="black" fill-opacity="0"/>
  <circle cx="153.14979906023285" cy="419.36962300957293" r="21.989356881873896" stroke="black" fill-opacity="0"/>
  <circle cx="163.33553495294032" cy="424.7204418453818" r="19.849242404917497" stroke="black" fill-opacity="0"/>
  <circle cx="174.0456403667957" cy="429.44271909999156" r="17.343490298141937" stroke="black" fill-opacity="0"/>
  <circle cx="185.24597138267177" cy="433.50387824972665" r="14.533800494530484" stroke="black" fill-opacity="0"/>
  <circle cx="196.90064869943308" cy="436.8730738080056" r="11.489356881873897" stroke="black" fill-opacity="0"/>
  <circle cx="208.97214165125894" cy="439.5212767927802" r="8.285123765844851" stroke="black" fill-opacity="0"/>
  <circle cx="221.4213562373095" cy="441.4213562373095" r="5.000000000000003" stroke="black" fill-opacity="0"/>
  <circle cx="280.0" cy="300.0" r="5.0" stroke="black" fill-opacity="0"/>
  <circle cx="280.39259815759067" cy="309.99229036240723" r="9.145513323566117" stroke="black" fill-opacity="0"/>
  <circle cx="281.5691819145569" cy="319.93834667466257" r="13.188950350936105" stroke="black" fill-opacity="0"/>
  <circle cx="283.5261219237351" cy="329.7920537086478" r="17.03074824309799" stroke="black" fill-opacity="0"/>
  <circle cx="286.2573786016092" cy="339.5075336238055" r="20.57630918575054" stroke="black" fill-opacity="0"/>
  <circle cx="289.7545161008064" cy="349.0392640201615" r="23.73832970144351" stroke="black" fill-opacity="0"/>
  <circle cx="294.0067218313543" cy="358.3421952238606" r="26.438950350936107" stroke="black" fill-opacity="0"/>
  <circle cx="299.0008314905552" cy="367.3718665517553" r="28.611672890991745" stroke="black" fill-opacity="0"/>
  <circle cx="304.7213595499958" cy="376.0845213036123" r="30.202997681821568" stroke="black" fill-opacity="0"/>
  <circle cx="311.1505351369744" cy="384.4372202330236" r="31.17374102577115" stroke="black" fill-opacity="0"/>
  <circle cx="318.268343236509" cy="392.3879532511287" r="31.5" stroke="black" fill-opacity="0"/>
  <circle cx="326.0525711291171" cy="399.8957491207589" r="31.173741025771147" stroke="black" fill-opacity="0"/>
  <circle cx="334.4788599687456" cy="406.9207829026042" r="30.20299768182157" stroke="black" fill-opacity="0"/>
  <circle cx="343.52076139460416" cy="413.42448091946363" r="28.61167289099175" stroke="black" fill-opacity="0"/>
  <circle cx="353.14979906023285" cy="419.36962300957293" r="26.438950350936107" stroke="black" fill-opacity="0"/>
  <circle cx="363.3355349529403" cy="424.7204418453818" r="23.73832970144351" stroke="black" fill-opacity="0"/>
  <circle cx="374.04564036679574" cy="429.44271909999156" r="20.57630918575054" stroke="black" fill-opacity="0"/>
  <circle cx="385.24597138267177" cy="433.50387824972665" r="17.030748243097992" stroke="black" fill-opacity="0"/>
  <circle cx="396.9006486994331" cy="436.8730738080056" r="13.188950350936109" stroke="black" fill-opacity="0"/>
  <circle cx="408.97214165125894" cy="439.5212767927802" r="9.14551332356612" stroke="black" fill-opacity="0"/>
  <circle cx="421.4213562373095" cy="441.4213562373095" r="5.0000000000000036" stroke="black" fill-opacity="0"/>
  <circle cx="480.0" cy="300.0" r="5.0" stroke="black" fill-opacity="0"/>
  <circle cx="480.39259815759067" cy="309.99229036240723" r="10.788075206488543" stroke="black" fill-opacity="0"/>
  <circle cx="481.5691819145569" cy="319.93834667466257" r="16.433628791873055" stroke="black" fill-opacity="0"/>
  <circle cx="483.5261219237351" cy="329.7920537086478" r="21.79764849036323" stroke="black" fill-opacity="0"/>
  <circle cx="486.2573786016092" cy="339.5075336238055" r="26.748054334821507" stroke="black" fill-opacity="0"/>
  <circle cx="489.7545161008064" cy="349.0392640201615" r="31.16295090390226" stroke="black" fill-opacity="0"/>
  <circle cx="494.0067218313543" cy="358.3421952238606" r="34.933628791873055" stroke="black" fill-opacity="0"/>
  <circle cx="499.0008314905552" cy="367.3718665517553" r="37.967241394969605" stroke="black" fill-opacity="0"/>
  <circle cx="504.7213595499958" cy="376.0845213036123" r="40.18909110292068" stroke="black" fill-opacity="0"/>
  <circle cx="511.1505351369744" cy="384.4372202330236" r="41.544468602020096" stroke="black" fill-opacity="0"/>
  <circle cx="518.2683432365089" cy="392.3879532511287" r="42.0" stroke="black" fill-opacity="0"/>
  <circle cx="526.052571129117" cy="399.8957491207589" r="41.544468602020096" stroke="black" fill-opacity="0"/>
  <circle cx="534.4788599687456" cy="406.9207829026042" r="40.189091102920685" stroke="black" fill-opacity="0"/>
  <circle cx="543.5207613946042" cy="413.42448091946363" r="37.96724139496961" stroke="black" fill-opacity="0"/>
  <circle cx="553.1497990602328" cy="419.36962300957293" r="34.933628791873055" stroke="black" fill-opacity="0"/>
  <circle cx="563.3355349529403" cy="424.7204418453818" r="31.16295090390226" stroke="black" fill-opacity="0"/>
  <circle cx="574.0456403667957" cy="429.44271909999156" r="26.74805433482151" stroke="black" fill-opacity="0"/>
  <circle cx="585.2459713826718" cy="433.50387824972665" r="21.797648490363233" stroke="black" fill-opacity="0"/>
  <circle cx="596.9006486994331" cy="436.8730738080056" r="16.43362879187306" stroke="black" fill-opacity="0"/>
  <circle cx="608.9721416512589" cy="439.5212767927802" r="10.788075206488546" stroke="black" fill-opacity="0"/>
  <circle cx="621.4213562373095" cy="441.4213562373095" r="5.000000000000004" stroke="black" fill-opacity="0"/>
  <circle cx="680.0" cy="300.0" r="5.0" stroke="black" fill-opacity="0"/>
  <circle cx="680.3925981575907" cy="309.99229036240723" r="9.301947788606348" stroke="black" fill-opacity="0"/>
  <circle cx="681.5691819145569" cy="319.93834667466257" r="13.497967345311054" stroke="black" fill-opacity="0"/>
  <circle cx="683.5261219237351" cy="329.7920537086478" r="17.484738742837536" stroke="black" fill-opacity="0"/>
  <circle cx="686.2573786016093" cy="339.5075336238055" r="21.164094438043012" stroke="black" fill-opacity="0"/>
  <circle cx="689.7545161008064" cy="349.0392640201615" r="24.445436482630058" stroke="black" fill-opacity="0"/>
  <circle cx="694.0067218313543" cy="358.3421952238606" r="27.247967345311054" stroke="black" fill-opacity="0"/>
  <circle cx="699.0008314905552" cy="367.3718665517553" r="29.502679415180115" stroke="black" fill-opacity="0"/>
  <circle cx="704.7213595499958" cy="376.0845213036123" r="31.15405419811672" stroke="black" fill-opacity="0"/>
  <circle cx="711.1505351369743" cy="384.4372202330236" r="32.16142936636629" stroke="black" fill-opacity="0"/>
  <circle cx="718.2683432365089" cy="392.3879532511287" r="32.5" stroke="black" fill-opacity="0"/>
  <circle cx="726.052571129117" cy="399.8957491207589" r="32.161429366366285" stroke="black" fill-opacity="0"/>
  <circle cx="734.4788599687456" cy="406.9207829026042" r="31.154054198116725" stroke="black" fill-opacity="0"/>
  <circle cx="743.5207613946042" cy="413.42448091946363" r="29.50267941518012" stroke="black" fill-opacity="0"/>
  <circle cx="753.1497990602328" cy="419.36962300957293" r="27.247967345311054" stroke="black" fill-opacity="0"/>
  <circle cx="763.3355349529403" cy="424.7204418453818" r="24.445436482630058" stroke="black" fill-opacity="0"/>
  <circle cx="774.0456403667957" cy="429.44271909999156" r="21.164094438043016" stroke="black" fill-opacity="0"/>
  <circle cx="785.2459713826718" cy="433.50387824972665" r="17.48473874283754" stroke="black" fill-opacity="0"/>
  <circle cx="796.9006486994331" cy="436.8730738080056" r="13.497967345311057" stroke="black" fill-opacity="0"/>
  <circle cx="808.9721416512589" cy="439.5212767927802" r="9.301947788606352" stroke="black" fill-opacity="0"/>
  <circle cx="821.4213562373095" cy="441.4213562373095" r="5.0000000000000036" stroke="black" fill-opacity="0"/>
  <circle cx="880.0" cy="300.0" r="5.0" stroke="black" fill-opacity="0"/>
  <circle cx="880.3925981575907" cy="309.99229036240723" r="9.067296091046003" stroke="black" fill-opacity="0"/>
  <circle cx="881.5691819145569" cy="319.93834667466257" r="13.034441853748632" stroke="black" fill-opacity="0"/>
  <circle cx="883.5261219237351" cy="329.7920537086478" r="16.803752993228215" stroke="black" fill-opacity="0"/>
  <circle cx="886.2573786016093" cy="339.5075336238055" r="20.2824165596043" stroke="black" fill-opacity="0"/>
  <circle cx="889.7545161008064" cy="349.0392640201615" r="23.38477631085024" stroke="black" fill-opacity="0"/>
  <circle cx="894.0067218313543" cy="358.3421952238606" r="26.034441853748632" stroke="black" fill-opacity="0"/>
  <circle cx="899.0008314905552" cy="367.3718665517553" r="28.166169628897563" stroke="black" fill-opacity="0"/>
  <circle cx="904.7213595499958" cy="376.0845213036123" r="29.72746942367399" stroke="black" fill-opacity="0"/>
  <circle cx="911.1505351369743" cy="384.4372202330236" r="30.679896855473583" stroke="black" fill-opacity="0"/>
  <circle cx="918.2683432365089" cy="392.3879532511287" r="31.0" stroke="black" fill-opacity="0"/>
  <circle cx="926.052571129117" cy="399.8957491207589" r="30.67989685547358" stroke="black" fill-opacity="0"/>
  <circle cx="934.4788599687456" cy="406.9207829026042" r="29.727469423673995" stroke="black" fill-opacity="0"/>
  <circle cx="943.5207613946042" cy="413.42448091946363" r="28.166169628897567" stroke="black" fill-opacity="0"/>
  <circle cx="953.1497990602328" cy="419.36962300957293" r="26.034441853748632" stroke="black" fill-opacity="0"/>
  <circle cx="963.3355349529403" cy="424.7204418453818" r="23.38477631085024" stroke="black" fill-opacity="0"/>
  <circle cx="974.0456403667957" cy="429.44271909999156" r="20.282416559604304" stroke="black" fill-opacity="0"/>
  <circle cx="985.2459713826718" cy="433.50387824972665" r="16.80375299322822" stroke="black" fill-opacity="0"/>
  <circle cx="996.9006486994331" cy="436.8730738080056" r="13.034441853748636" stroke="black" fill-opacity="0"/>
  <circle cx="1008.9721416512589" cy="439.5212767927802" r="9.067296091046005" stroke="black" fill-opacity="0"/>
  <circle cx="1021.4213562373095" cy="441.4213562373095" r="5.0000000000000036" stroke="black" fill-opacity="0"/>
  <circle cx="270.0" cy="415.0" r="5.0" stroke="black" fill-opacity="0"/>
  <circle cx="269.60740184240933" cy="424.99229036240723" r="10.005902881287387" stroke="black" fill-opacity="0"/>
  <circle cx="268.4308180854431" cy="434.93834667466257" r="14.888543819998317" stroke="black" fill-opacity="0"/>
  <circle cx="266.4738780762649" cy="444.7920537086478" r="19.527695991665496" stroke="black" fill-opacity="0"/>
  <circle cx="263.7426213983908" cy="454.5075336238055" r="23.80912807335914" stroke="black" fill-opacity="0"/>
  <circle cx="260.2454838991936" cy="464.0392640201615" r="27.627416997969522" stroke="black" fill-opacity="0"/>
  <circle cx="255.99327816864567" cy="473.3421952238606" r="30.88854381999832" stroke="black" fill-opacity="0"/>
  <circle cx="250.99916850944481" cy="482.3718665517553" r="33.51220877402777" stroke="black" fill-opacity="0"/>
  <circle cx="245.27864045000422" cy="491.0845213036123" r="35.43380852144492" stroke="black" fill-opacity="0"/>
  <circle cx="238.84946486302564" cy="499.4372202330236" r="36.60602689904441" stroke="black" fill-opacity="0"/>
  <circle cx="231.731656763491" cy="507.3879532511287" r="37.0" stroke="black" fill-opacity="0"/>
  <circle cx="223.9474288708829" cy="514.895749120759" r="36.60602689904441" stroke="black" fill-opacity="0"/>
  <circle cx="215.5211400312544" cy="521.9207829026042" r="35.43380852144492" stroke="black" fill-opacity="0"/>
  <circle cx="206.47923860539586" cy="528.4244809194636" r="33.51220877402777" stroke="black" fill-opacity="0"/>
  <circle cx="196.85020093976715" cy="534.3696230095729" r="30.88854381999832" stroke="black" fill-opacity="0"/>
  <circle cx="186.66446504705968" cy="539.7204418453817" r="27.627416997969522" stroke="black" fill-opacity="0"/>
  <circle cx="175.9543596332043" cy="544.4427190999916" r="23.809128073359144" stroke="black" fill-opacity="0"/>
  <circle cx="164.75402861732823" cy="548.5038782497267" r="19.5276959916655" stroke="black" fill-opacity="0"/>
  <circle cx="153.09935130056692" cy="551.8730738080055" r="14.88854381999832" stroke="black" fill-opacity="0"/>
  <circle cx="141.02785834874106" cy="554.5212767927802" r="10.00590288128739" stroke="black" fill-opacity="0"/>
  <circle cx="128.5786437626905" cy="556.4213562373095" r="5.0000000000000036" stroke="black" fill-opacity="0"/>
  <circle cx="470.0" cy="415.0" r="5.0" stroke="black" fill-opacity="0"/>
  <circle cx="469.60740184240933" cy="424.99229036240723" r="6.955430813002886" stroke="black" fill-opacity="0"/>
  <circle cx="468.4308180854431" cy="434.93834667466257" r="8.862712429686843" stroke="black" fill-opacity="0"/>
  <circle cx="466.4738780762649" cy="444.7920537086478" r="10.674881246744334" stroke="black" fill-opacity="0"/>
  <circle cx="463.7426213983908" cy="454.5075336238055" r="12.347315653655915" stroke="black" fill-opacity="0"/>
  <circle cx="460.2454838991936" cy="464.0392640201615" r="13.838834764831844" stroke="black" fill-opacity="0"/>
  <circle cx="455.9932781686457" cy="473.3421952238606" r="15.112712429686843" stroke="black" fill-opacity="0"/>
  <circle cx="450.9991685094448" cy="482.3718665517553" r="16.137581552354597" stroke="black" fill-opacity="0"/>
  <circle cx="445.2786404500042" cy="491.0845213036123" r="16.88820645368942" stroke="black" fill-opacity="0"/>
  <circle cx="438.8494648630256" cy="499.4372202330236" r="17.346104257439222" stroke="black" fill-opacity="0"/>
  <circle cx="431.731656763491" cy="507.3879532511287" r="17.5" stroke="black" fill-opacity="0"/>
  <circle cx="423.9474288708829" cy="514.895749120759" r="17.346104257439222" stroke="black" fill-opacity="0"/>
  <circle cx="415.5211400312544" cy="521.9207829026042" r="16.88820645368942" stroke="black" fill-opacity="0"/>
  <circle cx="406.47923860539584" cy="528.4244809194636" r="16.137581552354597" stroke="black" fill-opacity="0"/>
  <circle cx="396.85020093976715" cy="534.3696230095729" r="15.112712429686843" stroke="black" fill-opacity="0"/>
  <circle cx="386.6644650470597" cy="539.7204418453817" r="13.838834764831844" stroke="black" fill-opacity="0"/>
  <circle cx="375.95435963320426" cy="544.4427190999916" r="12.347315653655915" stroke="black" fill-opacity="0"/>
  <circle cx="364.75402861732823" cy="548.5038782497267" r="10.674881246744336" stroke="black" fill-opacity="0"/>
  <circle cx="353.0993513005669" cy="551.8730738080055" r="8.862712429686844" stroke="black" fill-opacity="0"/>
  <circle cx="341.02785834874106" cy="554.5212767927802" r="6.955430813002887" stroke="black" fill-opacity="0"/>
  <circle cx="328.5786437626905" cy="556.4213562373095" r="5.000000000000002" stroke="black" fill-opacity="0"/>
  <circle cx="670.0" cy="415.0" r="5.0" stroke="black" fill-opacity="0"/>
  <circle cx="669.6074018424093" cy="424.99229036240723" r="8.519775463405194" stroke="black" fill-opacity="0"/>
  <circle cx="668.4308180854431" cy="434.93834667466257" r="11.952882373436317" stroke="black" fill-opacity="0"/>
  <circle cx="666.4738780762649" cy="444.7920537086478" r="15.214786244139802" stroke="black" fill-opacity="0"/>
  <circle cx="663.7426213983907" cy="454.5075336238055" r="18.225168176580645" stroke="black" fill-opacity="0"/>
  <circle cx="660.2454838991936" cy="464.0392640201615" r="20.90990257669732" stroke="black" fill-opacity="0"/>
  <circle cx="655.9932781686457" cy="473.3421952238606" r="23.202882373436317" stroke="black" fill-opacity="0"/>
  <circle cx="650.9991685094448" cy="482.3718665517553" r="25.047646794238275" stroke="black" fill-opacity="0"/>
  <circle cx="645.2786404500042" cy="491.0845213036123" r="26.398771616640953" stroke="black" fill-opacity="0"/>
  <circle cx="638.8494648630257" cy="499.4372202330236" r="27.2229876633906" stroke="black" fill-opacity="0"/>
  <circle cx="631.7316567634911" cy="507.3879532511287" r="27.5" stroke="black" fill-opacity="0"/>
  <circle cx="623.947428870883" cy="514.895749120759" r="27.222987663390597" stroke="black" fill-opacity="0"/>
  <circle cx="615.5211400312544" cy="521.9207829026042" r="26.398771616640957" stroke="black" fill-opacity="0"/>
  <circle cx="606.4792386053958" cy="528.4244809194636" r="25.04764679423828" stroke="black" fill-opacity="0"/>
  <circle cx="596.8502009397672" cy="534.3696230095729" r="23.202882373436317" stroke="black" fill-opacity="0"/>
  <circle cx="586.6644650470597" cy="539.7204418453817" r="20.90990257669732" stroke="black" fill-opacity="0"/>
  <circle cx="575.9543596332043" cy="544.4427190999916" r="18.22516817658065" stroke="black" fill-opacity="0"/>
  <circle cx="564.7540286173282" cy="548.5038782497267" r="15.214786244139804" stroke="black" fill-opacity="0"/>
  <circle cx="553.0993513005669" cy="551.8730738080055" r="11.952882373436319" stroke="black" fill-opacity="0"/>
  <circle cx="541.0278583487411" cy="554.5212767927802" r="8.519775463405196" stroke="black" fill-opacity="0"/>
  <circle cx="528.5786437626905" cy="556.4213562373095" r="5.000000000000003" stroke="black" fill-opacity="0"/>
  <circle cx="870.0" cy="415.0" r="5.0" stroke="black" fill-opacity="0"/>
  <circle cx="869.6074018424093" cy="424.99229036240723" r="8.050472068284503" stroke="black" fill-opacity="0"/>
  <circle cx="868.4308180854431" cy="434.93834667466257" r="11.025831390311474" stroke="black" fill-opacity="0"/>
  <circle cx="866.4738780762649" cy="444.7920537086478" r="13.852814744921162" stroke="black" fill-opacity="0"/>
  <circle cx="863.7426213983907" cy="454.5075336238055" r="16.46181241970323" stroke="black" fill-opacity="0"/>
  <circle cx="860.2454838991936" cy="464.0392640201615" r="18.788582233137678" stroke="black" fill-opacity="0"/>
  <circle cx="855.9932781686457" cy="473.3421952238606" r="20.775831390311474" stroke="black" fill-opacity="0"/>
  <circle cx="850.9991685094448" cy="482.3718665517553" r="22.374627221673173" stroke="black" fill-opacity="0"/>
  <circle cx="845.2786404500042" cy="491.0845213036123" r="23.545602067755492" stroke="black" fill-opacity="0"/>
  <circle cx="838.8494648630257" cy="499.4372202330236" r="24.259922641605186" stroke="black" fill-opacity="0"/>
  <circle cx="831.7316567634911" cy="507.3879532511287" r="24.5" stroke="black" fill-opacity="0"/>
  <circle cx="823.947428870883" cy="514.895749120759" r="24.259922641605183" stroke="black" fill-opacity="0"/>
  <circle cx="815.5211400312544" cy="521.9207829026042" r="23.545602067755496" stroke="black" fill-opacity="0"/>
  <circle cx="806.4792386053958" cy="528.4244809194636" r="22.374627221673173" stroke="black" fill-opacity="0"/>
  <circle cx="796.8502009397672" cy="534.3696230095729" r="20.775831390311474" stroke="black" fill-opacity="0"/>
  <circle cx="786.6644650470597" cy="539.7204418453817" r="18.788582233137678" stroke="black" fill-opacity="0"/>
  <circle cx="775.9543596332043" cy="544.4427190999916" r="16.46181241970323" stroke="black" fill-opacity="0"/>
  <circle cx="764.7540286173282" cy="548.5038782497267" r="13.852814744921163" stroke="black" fill-opacity="0"/>
  <circle cx="753.0993513005669" cy="551.8730738080055" r="11.025831390311478" stroke="black" fill-opacity="0"/>
  <circle cx="741.0278583487411" cy="554.5212767927802" r="8.050472068284504" stroke="black" fill-opacity="0"/>
  <circle cx="728.5786437626905" cy="556.4213562373095" r="5.000000000000003" stroke="black" fill-opacity="0"/>
  <circle cx="1070.0" cy="415.0" r="5.0" stroke="black" fill-opacity="0"/>
  <circle cx="1069.6074018424092" cy="424.99229036240723" r="9.849468416247156" stroke="black" fill-opacity="0"/>
  <circle cx="1068.4308180854432" cy="434.93834667466257" r="14.57952682562337" stroke="black" fill-opacity="0"/>
  <circle cx="1066.4738780762648" cy="444.7920537086478" r="19.07370549192595" stroke="black" fill-opacity="0"/>
  <circle cx="1063.7426213983908" cy="454.5075336238055" r="23.221342821066667" stroke="black" fill-opacity="0"/>
  <circle cx="1060.2454838991937" cy="464.0392640201615" r="26.920310216782976" stroke="black" fill-opacity="0"/>
  <circle cx="1055.9932781686457" cy="473.3421952238606" r="30.079526825623372" stroke="black" fill-opacity="0"/>
  <circle cx="1050.9991685094449" cy="482.3718665517553" r="32.6212022498394" stroke="black" fill-opacity="0"/>
  <circle cx="1045.278640450004" cy="491.0845213036123" r="34.48275200514976" stroke="black" fill-opacity="0"/>
  <circle cx="1038.8494648630256" cy="499.4372202330236" r="35.61833855844927" stroke="black" fill-opacity="0"/>
  <circle cx="1031.731656763491" cy="507.3879532511287" r="36.0" stroke="black" fill-opacity="0"/>
  <circle cx="1023.947428870883" cy="514.895749120759" r="35.61833855844927" stroke="black" fill-opacity="0"/>
  <circle cx="1015.5211400312544" cy="521.9207829026042" r="34.48275200514976" stroke="black" fill-opacity="0"/>
  <circle cx="1006.4792386053958" cy="528.4244809194636" r="32.621202249839406" stroke="black" fill-opacity="0"/>
  <circle cx="996.8502009397672" cy="534.3696230095729" r="30.079526825623372" stroke="black" fill-opacity="0"/>
  <circle cx="986.6644650470597" cy="539.7204418453817" r="26.920310216782976" stroke="black" fill-opacity="0"/>
  <circle cx="975.9543596332043" cy="544.4427190999916" r="23.22134282106667" stroke="black" fill-opacity="0"/>
  <circle cx="964.7540286173282" cy="548.5038782497267" r="19.073705491925953" stroke="black" fill-opacity="0"/>
  <circle cx="953.0993513005669" cy="551.8730738080055" r="14.579526825623372" stroke="black" fill-opacity="0"/>
  <circle cx="941.0278583487411" cy="554.5212767927802" r="9.84946841624716" stroke="black" fill-opacity="0"/>
  <circle cx="928.5786437626905" cy="556.4213562373095" r="5.0000000000000036" stroke="black" fill-opacity="0"/>
  <circle cx="80.0" cy="530.0" r="5.0" stroke="black" fill-opacity="0"/>
  <circle cx="80.39259815759068" cy="539.9922903624072" r="10.005902881287387" stroke="black" fill-opacity="0"/>
  <circle cx="81.56918191455689" cy="549.9383466746625" r="14.888543819998317" stroke="black" fill-opacity="0"/>
  <circle cx="83.52612192373513" cy="559.7920537086478" r="19.527695991665496" stroke="black" fill-opacity="0"/>
  <circle cx="86.25737860160923" cy="569.5075336238056" r="23.80912807335914" stroke="black" fill-opacity="0"/>
  <circle cx="89.75451610080641" cy="579.0392640201616" r="27.627416997969522" stroke="black" fill-opacity="0"/>
  <circle cx="94.00672183135433" cy="588.3421952238606" r="30.88854381999832" stroke="black" fill-opacity="0"/>
  <circle cx="99.0008314905552" cy="597.3718665517554" r="33.51220877402777" stroke="black" fill-opacity="0"/>
  <circle cx="104.7213595499958" cy="606.0845213036123" r="35.43380852144492" stroke="black" fill-opacity="0"/>
  <circle cx="111.15053513697437" cy="614.4372202330236" r="36.60602689904441" stroke="black" fill-opacity="0"/>
  <circle cx="118.26834323650898" cy="622.3879532511287" r="37.0" stroke="black" fill-opacity="0"/>
  <circle cx="126.0525711291171" cy="629.895749120759" r="36.60602689904441" stroke="black" fill-opacity="0"/>
  <circle cx="134.4788599687456" cy="636.9207829026042" r="35.43380852144492" stroke="black" fill-opacity="0"/>
  <circle cx="143.52076139460414" cy="643.4244809194636" r="33.51220877402777" stroke="black" fill-opacity="0"/>
  <circle cx="153.14979906023285" cy="649.3696230095729" r="30.88854381999832" stroke="black" fill-opacity="0"/>
  <circle cx="163.33553495294032" cy="654.7204418453817" r="27.627416997969522" stroke="black" fill-opacity="0"/>
  <circle cx="174.0456403667957" cy="659.4427190999916" r="23.809128073359144" stroke="black" fill-opacity="0"/>
  <circle cx="185.24597138267177" cy="663.5038782497267" r="19.5276959916655" stroke="black" fill-opacity="0"/>
  <circle cx="196.90064869943308" cy="666.8730738080055" r="14.88854381999832" stroke="black" fill-opacity="0"/>
  <circle cx="208.97214165125894" cy="669.5212767927802" r="10.00590288128739" stroke="black" fill-opacity="0"/>
  <circle cx="221.4213562373095" cy="671.4213562373095" r="5.0000000000000036" stroke="black" fill-opacity="0"/>
  <circle cx="280.0" cy="530.0" r="5.0" stroke="black" fill-opacity="0"/>
  <circle cx="280.39259815759067" cy="539.9922903624072" r="7.033648045523002" stroke="black" fill-opacity="0"/>
  <circle cx="281.5691819145569" cy="549.9383466746625" r="9.017220926874316" stroke="black" fill-opacity="0"/>
  <circle cx="283.5261219237351" cy="559.7920537086478" r="10.901876496614108" stroke="black" fill-opacity="0"/>
  <circle cx="286.2573786016092" cy="569.5075336238056" r="12.64120827980215" stroke="black" fill-opacity="0"/>
  <circle cx="289.7545161008064" cy="579.0392640201616" r="14.19238815542512" stroke="black" fill-opacity="0"/>
  <circle cx="294.0067218313543" cy="588.3421952238606" r="15.517220926874316" stroke="black" fill-opacity="0"/>
  <circle cx="299.0008314905552" cy="597.3718665517554" r="16.58308481444878" stroke="black" fill-opacity="0"/>
  <circle cx="304.7213595499958" cy="606.0845213036123" r="17.363734711836997" stroke="black" fill-opacity="0"/>
  <circle cx="311.1505351369744" cy="614.4372202330236" r="17.839948427736793" stroke="black" fill-opacity="0"/>
  <circle cx="318.268343236509" cy="622.3879532511287" r="18.0" stroke="black" fill-opacity="0"/>
  <circle cx="326.0525711291171" cy="629.895749120759" r="17.83994842773679" stroke="black" fill-opacity="0"/>
  <circle cx="334.4788599687456" cy="636.9207829026042" r="17.363734711836997" stroke="black" fill-opacity="0"/>
  <circle cx="343.52076139460416" cy="643.4244809194636" r="16.58308481444878" stroke="black" fill-opacity="0"/>
  <circle cx="353.14979906023285" cy="649.3696230095729" r="15.517220926874316" stroke="black" fill-opacity="0"/>
  <circle cx="363.3355349529403" cy="654.7204418453817" r="14.19238815542512" stroke="black" fill-opacity="0"/>
  <circle cx="374.04564036679574" cy="659.4427190999916" r="12.641208279802152" stroke="black" fill-opacity="0"/>
  <circle cx="385.24597138267177" cy="663.5038782497267" r="10.90187649661411" stroke="black" fill-opacity="0"/>
  <circle cx="396.9006486994331" cy="666.8730738080055" r="9.017220926874318" stroke="black" fill-opacity="0"/>
  <circle cx="408.97214165125894" cy="669.5212767927802" r="7.033648045523003" stroke="black" fill-opacity="0"/>
  <circle cx="421.4213562373095" cy="671.4213562373095" r="5.000000000000002" stroke="black" fill-opacity="0"/>
  <circle cx="480.0" cy="530.0" r="5.0" stroke="black" fill-opacity="0"/>
  <circle cx="480.39259815759067" cy="539.9922903624072" r="6.8772135804827705" stroke="black" fill-opacity="0"/>
  <circle cx="481.5691819145569" cy="549.9383466746625" r="8.70820393249937" stroke="black" fill-opacity="0"/>
  <circle cx="483.5261219237351" cy="559.7920537086478" r="10.447885996874561" stroke="black" fill-opacity="0"/>
  <circle cx="486.2573786016092" cy="569.5075336238056" r="12.053423027509677" stroke="black" fill-opacity="0"/>
  <circle cx="489.7545161008064" cy="579.0392640201616" r="13.485281374238571" stroke="black" fill-opacity="0"/>
  <circle cx="494.0067218313543" cy="588.3421952238606" r="14.70820393249937" stroke="black" fill-opacity="0"/>
  <circle cx="499.0008314905552" cy="597.3718665517554" r="15.692078290260413" stroke="black" fill-opacity="0"/>
  <circle cx="504.7213595499958" cy="606.0845213036123" r="16.412678195541844" stroke="black" fill-opacity="0"/>
  <circle cx="511.1505351369744" cy="614.4372202330236" r="16.85226008714165" stroke="black" fill-opacity="0"/>
  <circle cx="518.2683432365089" cy="622.3879532511287" r="17.0" stroke="black" fill-opacity="0"/>
  <circle cx="526.052571129117" cy="629.895749120759" r="16.85226008714165" stroke="black" fill-opacity="0"/>
  <circle cx="534.4788599687456" cy="636.9207829026042" r="16.412678195541844" stroke="black" fill-opacity="0"/>
  <circle cx="543.5207613946042" cy="643.4244809194636" r="15.692078290260415" stroke="black" fill-opacity="0"/>
  <circle cx="553.1497990602328" cy="649.3696230095729" r="14.70820393249937" stroke="black" fill-opacity="0"/>
  <circle cx="563.3355349529403" cy="654.7204418453817" r="13.485281374238571" stroke="black" fill-opacity="0"/>
  <circle cx="574.0456403667957" cy="659.4427190999916" r="12.053423027509679" stroke="black" fill-opacity="0"/>
  <circle cx="585.2459713826718" cy="663.5038782497267" r="10.447885996874563" stroke="black" fill-opacity="0"/>
  <circle cx="596.9006486994331" cy="666.8730738080055" r="8.70820393249937" stroke="black" fill-opacity="0"/>
  <circle cx="608.9721416512589" cy="669.5212767927802" r="6.877213580482772" stroke="black" fill-opacity="0"/>
  <circle cx="621.4213562373095" cy="671.4213562373095" r="5.000000000000002" stroke="black" fill-opacity="0"/>
  <circle cx="680.0" cy="530.0" r="5.0" stroke="black" fill-opacity="0"/>
  <circle cx="680.3925981575907" cy="539.9922903624072" r="8.441558230885079" stroke="black" fill-opacity="0"/>
  <circle cx="681.5691819145569" cy="549.9383466746625" r="11.798373876248842" stroke="black" fill-opacity="0"/>
  <circle cx="683.5261219237351" cy="559.7920537086478" r="14.987790994270028" stroke="black" fill-opacity="0"/>
  <circle cx="686.2573786016093" cy="569.5075336238056" r="17.931275550434407" stroke="black" fill-opacity="0"/>
  <circle cx="689.7545161008064" cy="579.0392640201616" r="20.556349186104047" stroke="black" fill-opacity="0"/>
  <circle cx="694.0067218313543" cy="588.3421952238606" r="22.798373876248846" stroke="black" fill-opacity="0"/>
  <circle cx="699.0008314905552" cy="597.3718665517554" r="24.60214353214409" stroke="black" fill-opacity="0"/>
  <circle cx="704.7213595499958" cy="606.0845213036123" r="25.923243358493377" stroke="black" fill-opacity="0"/>
  <circle cx="711.1505351369743" cy="614.4372202330236" r="26.72914349309303" stroke="black" fill-opacity="0"/>
  <circle cx="718.2683432365089" cy="622.3879532511287" r="27.0" stroke="black" fill-opacity="0"/>
  <circle cx="726.052571129117" cy="629.895749120759" r="26.72914349309303" stroke="black" fill-opacity="0"/>
  <circle cx="734.4788599687456" cy="636.9207829026042" r="25.92324335849338" stroke="black" fill-opacity="0"/>
  <circle cx="743.5207613946042" cy="643.4244809194636" r="24.602143532144094" stroke="black" fill-opacity="0"/>
  <circle cx="753.1497990602328" cy="649.3696230095729" r="22.798373876248846" stroke="black" fill-opacity="0"/>
  <circle cx="763.3355349529403" cy="654.7204418453817" r="20.556349186104047" stroke="black" fill-opacity="0"/>
  <circle cx="774.0456403667957" cy="659.4427190999916" r="17.931275550434414" stroke="black" fill-opacity="0"/>
  <circle cx="785.2459713826718" cy="663.5038782497267" r="14.98779099427003" stroke="black" fill-opacity="0"/>
  <circle cx="796.9006486994331" cy="666.8730738080055" r="11.798373876248846" stroke="black" fill-opacity="0"/>
  <circle cx="808.9721416512589" cy="669.5212767927802" r="8.441558230885082" stroke="black" fill-opacity="0"/>
  <circle cx="821.4213562373095" cy="671.4213562373095" r="5.000000000000003" stroke="black" fill-opacity="0"/>
  <circle cx="880.0" cy="530.0" r="5.0" stroke="black" fill-opacity="0"/>
  <circle cx="880.3925981575907" cy="539.9922903624072" r="9.301947788606348" stroke="black" fill-opacity="0"/>
  <circle cx="881.5691819145569" cy="549.9383466746625" r="13.497967345311054" stroke="black" fill-opacity="0"/>
  <circle cx="883.5261219237351" cy="559.7920537086478" r="17.484738742837536" stroke="black" fill-opacity="0"/>
  <circle cx="886.2573786016093" cy="569.5075336238056" r="21.164094438043012" stroke="black" fill-opacity="0"/>
  <circle cx="889.7545161008064" cy="579.0392640201616" r="24.445436482630058" stroke="black" fill-opacity="0"/>
  <circle cx="894.0067218313543" cy="588.3421952238606" r="27.247967345311054" stroke="black" fill-opacity="0"/>
  <circle cx="899.0008314905552" cy="597.3718665517554" r="29.502679415180115" stroke="black" fill-opacity="0"/>
  <circle cx="904.7213595499958" cy="606.0845213036123" r="31.15405419811672" stroke="black" fill-opacity="0"/>
  <circle cx="911.1505351369743" cy="614.4372202330236" r="32.16142936636629" stroke="black" fill-opacity="0"/>
  <circle cx="918.2683432365089" cy="622.3879532511287" r="32.5" stroke="black" fill-opacity="0"/>
  <circle cx="926.052571129117" cy="629.895749120759" r="32.161429366366285" stroke="black" fill-opacity="0"/>
  <circle cx="934.4788599687456" cy="636.9207829026042" r="31.154054198116725" stroke="black" fill-opacity="0"/>
  <circle cx="943.5207613946042" cy="643.4244809194636" r="29.50267941518012" stroke="black" fill-opacity="0"/>
  <circle cx="953.1497990602328" cy="649.3696230095729" r="27.247967345311054" stroke="black" fill-opacity="0"/>
  <circle cx="963.3355349529403" cy="654.7204418453817" r="24.445436482630058" stroke="black" fill-opacity="0"/>
  <circle cx="974.0456403667957" cy="659.4427190999916" r="21.164094438043016" stroke="black" fill-opacity="0"/>
  <circle cx="985.2459713826718" cy="663.5038782497267" r="17.48473874283754" stroke="black" fill-opacity="0"/>
  <circle cx="996.9006486994331" cy="666.8730738080055" r="13.497967345311057" stroke="black" fill-opacity="0"/>
  <circle cx="1008.9721416512589" cy="669.5212767927802" r="9.301947788606352" stroke="black" fill-opacity="0"/>
  <circle cx="1021.4213562373095" cy="671.4213562373095" r="5.0000000000000036" stroke="black" fill-opacity="0"/>
  <circle cx="270.0" cy="645.0" r="5.0" stroke="black" fill-opacity="0"/>
  <circle cx="269.60740184240933" cy="654.9922903624072" r="7.5029514406436935" stroke="black" fill-opacity="0"/>
  <circle cx="268.4308180854431" cy="664.9383466746625" r="9.94427190999916" stroke="black" fill-opacity="0"/>
  <circle cx="266.4738780762649" cy="674.7920537086478" r="12.263847995832748" stroke="black" fill-opacity="0"/>
  <circle cx="263.7426213983908" cy="684.5075336238056" r="14.40456403667957" stroke="black" fill-opacity="0"/>
  <circle cx="260.2454838991936" cy="694.0392640201616" r="16.31370849898476" stroke="black" fill-opacity="0"/>
  <circle cx="255.99327816864567" cy="703.3421952238606" r="17.94427190999916" stroke="black" fill-opacity="0"/>
  <circle cx="250.99916850944481" cy="712.3718665517554" r="19.256104387013885" stroke="black" fill-opacity="0"/>
  <circle cx="245.27864045000422" cy="721.0845213036123" r="20.21690426072246" stroke="black" fill-opacity="0"/>
  <circle cx="238.84946486302564" cy="729.4372202330236" r="20.803013449522204" stroke="black" fill-opacity="0"/>
  <circle cx="231.731656763491" cy="737.3879532511287" r="21.0" stroke="black" fill-opacity="0"/>
  <circle cx="223.9474288708829" cy="744.895749120759" r="20.803013449522204" stroke="black" fill-opacity="0"/>
  <circle cx="215.5211400312544" cy="751.9207829026042" r="20.21690426072246" stroke="black" fill-opacity="0"/>
  <circle cx="206.47923860539586" cy="758.4244809194636" r="19.256104387013885" stroke="black" fill-opacity="0"/>
  <circle cx="196.85020093976715" cy="764.3696230095729" r="17.94427190999916" stroke="black" fill-opacity="0"/>
  <circle cx="186.66446504705968" cy="769.7204418453817" r="16.31370849898476" stroke="black" fill-opacity="0"/>
  <circle cx="175.9543596332043" cy="774.4427190999916" r="14.404564036679572" stroke="black" fill-opacity="0"/>
  <circle cx="164.75402861732823" cy="778.5038782497267" r="12.26384799583275" stroke="black" fill-opacity="0"/>
  <circle cx="153.09935130056692" cy="781.8730738080055" r="9.94427190999916" stroke="black" fill-opacity="0"/>
  <circle cx="141.02785834874106" cy="784.5212767927802" r="7.502951440643695" stroke="black" fill-opacity="0"/>
  <circle cx="128.5786437626905" cy="786.4213562373095" r="5.000000000000002" stroke="black" fill-opacity="0"/>
  <circle cx="470.0" cy="645.0" r="5.0" stroke="black" fill-opacity="0"/>
  <circle cx="469.60740184240933" cy="654.9922903624072" r="7.5029514406436935" stroke="black" fill-opacity="0"/>
  <circle cx="468.4308180854431" cy="664.9383466746625" r="9.94427190999916" stroke="black" fill-opacity="0"/>
  <circle cx="466.4738780762649" cy="674.7920537086478" r="12.263847995832748" stroke="black" fill-opacity="0"/>
  <circle cx="463.7426213983908" cy="684.5075336238056" r="14.40456403667957" stroke="black" fill-opacity="0"/>
  <circle cx="460.2454838991936" cy="694.0392640201616" r="16.31370849898476" stroke="black" fill-opacity="0"/>
  <circle cx="455.9932781686457" cy="703.3421952238606" r="17.94427190999916" stroke="black" fill-opacity="0"/>
  <circle cx="450.9991685094448" cy="712.3718665517554" r="19.256104387013885" stroke="black" fill-opacity="0"/>
  <circle cx="445.2786404500042" cy="721.0845213036123" r="20.21690426072246" stroke="black" fill-opacity="0"/>
  <circle cx="438.8494648630256" cy="729.4372202330236" r="20.803013449522204" stroke="black" fill-opacity="0"/>
  <circle cx="431.731656763491" cy="737.3879532511287" r="21.0" stroke="black" fill-opacity="0"/>
  <circle cx="423.9474288708829" cy="744.895749120759" r="20.803013449522204" stroke="black" fill-opacity="0"/>
  <circle cx="415.5211400312544" cy="751.9207829026042" r="20.21690426072246" stroke="black" fill-opacity="0"/>
  <circle cx="406.47923860539584" cy="758.4244809194636" r="19.256104387013885" stroke="black" fill-opacity="0"/>
  <circle cx="396.85020093976715" cy="764.3696230095729" r="17.94427190999916" stroke="black" fill-opacity="0"/>
  <circle cx="386.6644650470597" cy="769.7204418453817" r="16.31370849898476" stroke="black" fill-opacity="0"/>
  <circle cx="375.95435963320426" cy="774.4427190999916" r="14.404564036679572" stroke="black" fill-opacity="0"/>
  <circle cx="364.75402861732823" cy="778.5038782497267" r="12.26384799583275" stroke="black" fill-opacity="0"/>
  <circle cx="353.0993513005669" cy="781.8730738080055" r="9.94427190999916" stroke="black" fill-opacity="0"/>
  <circle cx="341.02785834874106" cy="784.5212767927802" r="7.502951440643695" stroke="black" fill-opacity="0"/>
  <circle cx="328.5786437626905" cy="786.4213562373095" r="5.000000000000002" stroke="black" fill-opacity="0"/>
  <circle cx="670.0" cy="645.0" r="5.0" stroke="black" fill-opacity="0"/>
  <circle cx="669.6074018424093" cy="654.9922903624072" r="7.972254835764387" stroke="black" fill-opacity="0"/>
  <circle cx="668.4308180854431" cy="664.9383466746625" r="10.871322893124" stroke="black" fill-opacity="0"/>
  <circle cx="666.4738780762649" cy="674.7920537086478" r="13.625819495051388" stroke="black" fill-opacity="0"/>
  <circle cx="663.7426213983907" cy="684.5075336238056" r="16.16791979355699" stroke="black" fill-opacity="0"/>
  <circle cx="660.2454838991936" cy="694.0392640201616" r="18.435028842544405" stroke="black" fill-opacity="0"/>
  <circle cx="655.9932781686457" cy="703.3421952238606" r="20.371322893124002" stroke="black" fill-opacity="0"/>
  <circle cx="650.9991685094448" cy="712.3718665517554" r="21.929123959578988" stroke="black" fill-opacity="0"/>
  <circle cx="645.2786404500042" cy="721.0845213036123" r="23.070073809607916" stroke="black" fill-opacity="0"/>
  <circle cx="638.8494648630257" cy="729.4372202330236" r="23.76607847130762" stroke="black" fill-opacity="0"/>
  <circle cx="631.7316567634911" cy="737.3879532511287" r="24.0" stroke="black" fill-opacity="0"/>
  <circle cx="623.947428870883" cy="744.895749120759" r="23.766078471307615" stroke="black" fill-opacity="0"/>
  <circle cx="615.5211400312544" cy="751.9207829026042" r="23.07007380960792" stroke="black" fill-opacity="0"/>
  <circle cx="606.4792386053958" cy="758.4244809194636" r="21.92912395957899" stroke="black" fill-opacity="0"/>
  <circle cx="596.8502009397672" cy="764.3696230095729" r="20.371322893124002" stroke="black" fill-opacity="0"/>
  <circle cx="586.6644650470597" cy="769.7204418453817" r="18.435028842544405" stroke="black" fill-opacity="0"/>
  <circle cx="575.9543596332043" cy="774.4427190999916" r="16.16791979355699" stroke="black" fill-opacity="0"/>
  <circle cx="564.7540286173282" cy="778.5038782497267" r="13.62581949505139" stroke="black" fill-opacity="0"/>
  <circle cx="553.0993513005669" cy="781.8730738080055" r="10.871322893124002" stroke="black" fill-opacity="0"/>
  <circle cx="541.0278583487411" cy="784.5212767927802" r="7.972254835764389" stroke="black" fill-opacity="0"/>
  <circle cx="528.5786437626905" cy="786.4213562373095" r="5.000000000000003" stroke="black" fill-opacity="0"/>
  <circle cx="870.0" cy="645.0" r="5.0" stroke="black" fill-opacity="0"/>
  <circle cx="869.6074018424093" cy="654.9922903624072" r="10.396989043887965" stroke="black" fill-opacity="0"/>
  <circle cx="868.4308180854431" cy="664.9383466746625" r="15.661086305935685" stroke="black" fill-opacity="0"/>
  <circle cx="866.4738780762649" cy="674.7920537086478" r="20.662672241014363" stroke="black" fill-opacity="0"/>
  <circle cx="863.7426213983907" cy="684.5075336238056" r="25.278591204090322" stroke="black" fill-opacity="0"/>
  <circle cx="860.2454838991936" cy="694.0392640201616" r="29.39518395093589" stroke="black" fill-opacity="0"/>
  <circle cx="855.9932781686457" cy="703.3421952238606" r="32.91108630593568" stroke="black" fill-opacity="0"/>
  <circle cx="850.9991685094448" cy="712.3718665517554" r="35.73972508449869" stroke="black" fill-opacity="0"/>
  <circle cx="845.2786404500042" cy="721.0845213036123" r="37.81144981218279" stroke="black" fill-opacity="0"/>
  <circle cx="838.8494648630257" cy="729.4372202330236" r="39.075247750532256" stroke="black" fill-opacity="0"/>
  <circle cx="831.7316567634911" cy="737.3879532511287" r="39.5" stroke="black" fill-opacity="0"/>
  <circle cx="823.947428870883" cy="744.895749120759" r="39.07524775053225" stroke="black" fill-opacity="0"/>
  <circle cx="815.5211400312544" cy="751.9207829026042" r="37.8114498121828" stroke="black" fill-opacity="0"/>
  <circle cx="806.4792386053958" cy="758.4244809194636" r="35.739725084498694" stroke="black" fill-opacity="0"/>
  <circle cx="796.8502009397672" cy="764.3696230095729" r="32.91108630593568" stroke="black" fill-opacity="0"/>
  <circle cx="786.6644650470597" cy="769.7204418453817" r="29.39518395093589" stroke="black" fill-opacity="0"/>
  <circle cx="775.9543596332043" cy="774.4427190999916" r="25.278591204090326" stroke="black" fill-opacity="0"/>
  <circle cx="764.7540286173282" cy="778.5038782497267" r="20.662672241014366" stroke="black" fill-opacity="0"/>
  <circle cx="753.0993513005669" cy="781.8730738080055" r="15.661086305935688" stroke="black" fill-opacity="0"/>
  <circle cx="741.0278583487411" cy="784.5212767927802" r="10.396989043887968" stroke="black" fill-opacity="0"/>
  <circle cx="728.5786437626905" cy="786.4213562373095" r="5.000000000000004" stroke="black" fill-opacity="0"/>
  <circle cx="1070.0" cy="645.0" r="5.0" stroke="black" fill-opacity="0"/>
  <circle cx="1069.6074018424092" cy="654.9922903624072" r="8.441558230885079" stroke="black" fill-opacity="0"/>
  <circle cx="1068.4308180854432" cy="664.9383466746625" r="11.798373876248842" stroke="black" fill-opacity="0"/>
  <circle cx="1066.4738780762648" cy="674.7920537086478" r="14.987790994270028" stroke="black" fill-opacity="0"/>
  <circle cx="1063.7426213983908" cy="684.5075336238056" r="17.931275550434407" stroke="black" fill-opacity="0"/>
  <circle cx="1060.2454838991937" cy="694.0392640201616" r="20.556349186104047" stroke="black" fill-opacity="0"/>
  <circle cx="1055.9932781686457" cy="703.3421952238606" r="22.798373876248846" stroke="black" fill-opacity="0"/>
  <circle cx="1050.9991685094449" cy="712.3718665517554" r="24.60214353214409" stroke="black" fill-opacity="0"/>
  <circle cx="1045.278640450004" cy="721.0845213036123" r="25.923243358493377" stroke="black" fill-opacity="0"/>
  <circle cx="1038.8494648630256" cy="729.4372202330236" r="26.72914349309303" stroke="black" fill-opacity="0"/>
  <circle cx="1031.731656763491" cy="737.3879532511287" r="27.0" stroke="black" fill-opacity="0"/>
  <circle cx="1023.947428870883" cy="744.895749120759" r="26.72914349309303" stroke="black" fill-opacity="0"/>
  <circle cx="1015.5211400312544" cy="751.9207829026042" r="25.92324335849338" stroke="black" fill-opacity="0"/>
  <circle cx="1006.4792386053958" cy="758.4244809194636" r="24.602143532144094" stroke="black" fill-opacity="0"/>
  <circle cx="996.8502009397672" cy="764.3696230095729" r="22.798373876248846" stroke="black" fill-opacity="0"/>
  <circle cx="986.6644650470597" cy="769.7204418453817" r="20.556349186104047" stroke="black" fill-opacity="0"/>
  <circle cx="975.9543596332043" cy="774.4427190999916" r="17.931275550434414" stroke="black" fill-opacity="0"/>
  <circle cx="964.7540286173282" cy="778.5038782497267" r="14.98779099427003" stroke="black" fill-opacity="0"/>
  <circle cx="953.0993513005669" cy="781.8730738080055" r="11.798373876248846" stroke="black" fill-opacity="0"/>
  <circle cx="941.0278583487411" cy="784.5212767927802" r="8.441558230885082" stroke="black" fill-opacity="0"/>
  <circle cx="928.5786437626905" cy="786.4213562373095" r="5.000000000000003" stroke="black" fill-opacity="0"/>
</svg>
