<svg version="1.1" width="1150" height="870" xmlns="http://www.w3.org/2000/svg">
  <!-- Seed: 1 -->
  <g stroke="black" fill="none">
    <path d="M212.5 200v-50m-12.5 0h25.0"/>
    <path d="M255.0 200h-25.0v-50h25.0m-25.0 25.0h12.5"/>
    <path d="M260.0 200h12.5q12.5 0 12.5 -12.5q0 -12.5 -12.5 -12.5q-12.5 0 -12.5 -12.5q0 -12.5 12.5 -12.5h12.5"/>
    <path d="M302.5 200v-50m-12.5 0h25.0"/>
    <path d="M362.5 200v-50m-12.5 0h25.0"/>
    <path d="M405.0 200h-25.0v-50h25.0m-25.0 25.0h12.5"/>
    <path d="M410.0 150l25.0 50m0 -50l-25.0 50"/>
    <path d="M452.5 200v-50m-12.5 0h25.0"/>
    <g stroke="red">
      <rect x="50" y="50" width="1050" height="770"/>
    </g>
  </g>
</svg>
