<svg version="1.1" width="1150" height="870" xmlns="http://www.w3.org/2000/svg">
  <!-- Seed: 1934709873857659625 -->
  <!-- Size: SvgSize.Size9x12 -->
  <!-- Params:
    draw_lines: False
    draw_aligned_vertical: True
    draw_aligned_horizontal: False
    draw_filled_checkers: False
    pad: 0
    size: [RangeInt] min: 10 max: 150
    skew_vert_degs: [RangeFloat] min: 0 max: 45
    skew_horiz_degs: [RangeFloat] min: 0 max: 45
    interior_space_aligned: 5
    interior_space_filled: 5
  -->
  <g stroke="black" fill="none">
    <g stroke="red">
      <path d="M116.08 50.0L50.0 234.47M50.0 248.66L121.17 50.0M126.25 50.0L50.0 262.85M50.0 277.04L131.33 50.0M136.42 50.0L50.0 291.23M50.0 305.42L141.5 50.0M146.58 50.0L50.0 319.61M50.0 333.8L151.67 50.0M156.75 50.0L50.0 347.99M50.0 362.19L161.83 50.0M166.92 50.0L50.0 376.38M50.0 575.04L238.08 50.0M243.17 50.0L50.0 589.23M50.0 603.42L248.25 50.0M253.33 50.0L50.0 617.61M50.0 631.8L258.42 50.0M263.5 50.0L50.0 645.99M50.0 660.18L268.58 50.0M273.67 50.0L50.0 674.37M50.0 688.56L278.75 50.0M283.83 50.0L50.0 702.75M50.0 716.94L288.92 50.0M360.08 50.0L84.25 820.0M89.33 820.0L365.17 50.0M370.25 50.0L94.41 820.0M99.5 820.0L375.33 50.0M380.42 50.0L104.58 820.0M109.66 820.0L385.5 50.0M390.58 50.0L114.75 820.0M119.83 820.0L395.67 50.0M400.75 50.0L124.91 820.0M130.0 820.0L405.83 50.0M410.92 50.0L135.08 820.0M206.25 820.0L482.08 50.0M487.17 50.0L211.33 820.0M216.41 820.0L492.25 50.0M497.33 50.0L221.5 820.0M226.58 820.0L502.42 50.0M507.5 50.0L231.66 820.0M236.75 820.0L512.58 50.0M517.67 50.0L241.83 820.0M246.91 820.0L522.75 50.0M527.83 50.0L252.0 820.0M257.08 820.0L532.92 50.0M604.08 50.0L328.25 820.0M333.33 820.0L609.17 50.0M614.25 50.0L338.41 820.0M343.5 820.0L619.33 50.0M624.42 50.0L348.58 820.0M353.66 820.0L629.5 50.0M634.58 50.0L358.75 820.0M363.83 820.0L639.67 50.0M644.75 50.0L368.91 820.0M374.0 820.0L649.83 50.0M654.92 50.0L379.08 820.0M450.25 820.0L726.08 50.0M731.17 50.0L455.33 820.0M460.41 820.0L736.25 50.0M741.33 50.0L465.5 820.0M470.58 820.0L746.42 50.0M751.5 50.0L475.66 820.0M480.75 820.0L756.58 50.0M761.67 50.0L485.83 820.0M490.91 820.0L766.75 50.0M771.83 50.0L496.0 820.0M501.08 820.0L776.92 50.0M848.08 50.0L572.25 820.0M577.33 820.0L853.17 50.0M858.25 50.0L582.41 820.0M587.5 820.0L863.33 50.0M868.42 50.0L592.58 820.0M597.66 820.0L873.5 50.0M878.58 50.0L602.75 820.0M607.83 820.0L883.67 50.0M888.75 50.0L612.91 820.0M618.0 820.0L893.83 50.0M898.92 50.0L623.08 820.0M694.25 820.0L970.08 50.0M975.17 50.0L699.33 820.0M704.41 820.0L980.25 50.0M985.33 50.0L709.5 820.0M714.58 820.0L990.42 50.0M995.5 50.0L719.66 820.0M724.75 820.0L1000.58 50.0M1005.67 50.0L729.83 820.0M734.91 820.0L1010.75 50.0M1015.83 50.0L740.0 820.0M745.08 820.0L1020.92 50.0M1092.08 50.0L816.25 820.0M821.33 820.0L1097.17 50.0M1100.0 56.28L826.41 820.0M831.5 820.0L1100.0 70.47M1100.0 84.66L836.58 820.0M841.66 820.0L1100.0 98.85M1100.0 113.04L846.75 820.0M851.83 820.0L1100.0 127.23M1100.0 141.42L856.91 820.0M862.0 820.0L1100.0 155.61M1100.0 169.8L867.08 820.0M938.25 820.0L1100.0 368.47M1100.0 382.66L943.33 820.0M948.41 820.0L1100.0 396.85M1100.0 411.04L953.5 820.0M958.58 820.0L1100.0 425.23M1100.0 439.42L963.66 820.0M968.75 820.0L1100.0 453.61M1100.0 467.8L973.83 820.0M978.91 820.0L1100.0 481.99M1100.0 496.18L984.0 820.0M989.08 820.0L1100.0 510.37M1100.0 709.03L1060.25 820.0M1065.33 820.0L1100.0 723.22M1100.0 737.41L1070.41 820.0M1075.5 820.0L1100.0 751.6M1100.0 765.79L1080.58 820.0M1085.66 820.0L1100.0 779.98M1100.0 794.17L1090.75 820.0M1095.83 820.0L1100.0 808.36"/>
    </g>
  </g>
</svg>
