<svg version="1.1" width="1150" height="870" xmlns="http://www.w3.org/2000/svg">
  <!-- Seed: 8316051837341584768 -->
  <!-- Size: SvgSize.Size9x12 -->
  <!-- Params:
    draw_lines: False
    draw_aligned_vertical: True
    draw_aligned_horizontal: False
    draw_filled_checkers: False
    pad: 0
    size: [RangeInt] min: 10 max: 150
    skew_vert_degs: [RangeFloat] min: 0 max: 45
    skew_horiz_degs: [RangeFloat] min: 0 max: 45
    interior_space_aligned: 5
    interior_space_filled: 5
  -->
  <g stroke="black" fill="none">
    <g stroke="red">
      <path d="M55.0 50.0L50.0 59.51M50.0 69.03L60.0 50.0M65.0 50.0L50.0 78.54M50.0 88.06L70.0 50.0M75.0 50.0L50.0 97.57M50.0 107.09L80.0 50.0M85.0 50.0L50.0 116.6M50.0 126.12L90.0 50.0M95.0 50.0L50.0 135.63M50.0 145.14L100.0 50.0M105.0 50.0L50.0 154.66M50.0 287.86L175.0 50.0M180.0 50.0L50.0 297.38M50.0 306.89L185.0 50.0M190.0 50.0L50.0 316.41M50.0 325.92L195.0 50.0M200.0 50.0L50.0 335.43M50.0 344.95L205.0 50.0M210.0 50.0L50.0 354.46M50.0 363.98L215.0 50.0M220.0 50.0L50.0 373.49M50.0 383.01L225.0 50.0M295.0 50.0L50.0 516.21M50.0 525.72L300.0 50.0M305.0 50.0L50.0 535.24M50.0 544.75L310.0 50.0M315.0 50.0L50.0 554.27M50.0 563.78L320.0 50.0M325.0 50.0L50.0 573.3M50.0 582.81L330.0 50.0M335.0 50.0L50.0 592.33M50.0 601.84L340.0 50.0M345.0 50.0L50.0 611.35M50.0 744.56L415.0 50.0M420.0 50.0L50.0 754.07M50.0 763.59L425.0 50.0M430.0 50.0L50.0 773.1M50.0 782.61L435.0 50.0M440.0 50.0L50.0 792.13M50.0 801.64L445.0 50.0M450.0 50.0L50.0 811.16M50.35 820.0L455.0 50.0M460.0 50.0L55.35 820.0M60.35 820.0L465.0 50.0M535.0 50.0L130.35 820.0M135.35 820.0L540.0 50.0M545.0 50.0L140.35 820.0M145.35 820.0L550.0 50.0M555.0 50.0L150.35 820.0M155.35 820.0L560.0 50.0M565.0 50.0L160.35 820.0M165.35 820.0L570.0 50.0M575.0 50.0L170.35 820.0M175.35 820.0L580.0 50.0M585.0 50.0L180.35 820.0M250.35 820.0L655.0 50.0M660.0 50.0L255.35 820.0M260.35 820.0L665.0 50.0M670.0 50.0L265.35 820.0M270.35 820.0L675.0 50.0M680.0 50.0L275.35 820.0M280.35 820.0L685.0 50.0M690.0 50.0L285.35 820.0M290.35 820.0L695.0 50.0M700.0 50.0L295.35 820.0M300.35 820.0L705.0 50.0M775.0 50.0L370.35 820.0M375.35 820.0L780.0 50.0M785.0 50.0L380.35 820.0M385.35 820.0L790.0 50.0M795.0 50.0L390.35 820.0M395.35 820.0L800.0 50.0M805.0 50.0L400.35 820.0M405.35 820.0L810.0 50.0M815.0 50.0L410.35 820.0M415.35 820.0L820.0 50.0M825.0 50.0L420.35 820.0M490.35 820.0L895.0 50.0M900.0 50.0L495.35 820.0M500.35 820.0L905.0 50.0M910.0 50.0L505.35 820.0M510.35 820.0L915.0 50.0M920.0 50.0L515.35 820.0M520.35 820.0L925.0 50.0M930.0 50.0L525.35 820.0M530.35 820.0L935.0 50.0M940.0 50.0L535.35 820.0M540.35 820.0L945.0 50.0M1015.0 50.0L610.35 820.0M615.35 820.0L1020.0 50.0M1025.0 50.0L620.35 820.0M625.35 820.0L1030.0 50.0M1035.0 50.0L630.35 820.0M635.35 820.0L1040.0 50.0M1045.0 50.0L640.35 820.0M645.35 820.0L1050.0 50.0M1055.0 50.0L650.35 820.0M655.35 820.0L1060.0 50.0M1065.0 50.0L660.35 820.0M730.35 820.0L1100.0 116.6M1100.0 126.12L735.35 820.0M740.35 820.0L1100.0 135.63M1100.0 145.14L745.35 820.0M750.35 820.0L1100.0 154.66M1100.0 164.17L755.35 820.0M760.35 820.0L1100.0 173.69M1100.0 183.2L765.35 820.0M770.35 820.0L1100.0 192.72M1100.0 202.23L775.35 820.0M780.35 820.0L1100.0 211.75M1100.0 344.95L850.35 820.0M855.35 820.0L1100.0 354.46M1100.0 363.98L860.35 820.0M865.35 820.0L1100.0 373.49M1100.0 383.01L870.35 820.0M875.35 820.0L1100.0 392.52M1100.0 402.04L880.35 820.0M885.35 820.0L1100.0 411.55M1100.0 421.06L890.35 820.0M895.35 820.0L1100.0 430.58M1100.0 440.09L900.35 820.0M970.35 820.0L1100.0 573.3M1100.0 582.81L975.35 820.0M980.35 820.0L1100.0 592.33M1100.0 601.84L985.35 820.0M990.35 820.0L1100.0 611.35M1100.0 620.87L995.35 820.0M1000.35 820.0L1100.0 630.38M1100.0 639.9L1005.35 820.0M1010.35 820.0L1100.0 649.41M1100.0 658.93L1015.35 820.0M1020.35 820.0L1100.0 668.44M1100.0 801.64L1090.35 820.0M1095.35 820.0L1100.0 811.16"/>
    </g>
  </g>
</svg>
