<svg version="1.1" width="1150" height="870" xmlns="http://www.w3.org/2000/svg">
  <!-- Seed: 2932255199565203573 -->
  <!-- Size: SvgSize.Size9x12 -->
  <!-- Params:
    draw_lines: False
    draw_aligned_vertical: True
    draw_aligned_horizontal: False
    draw_filled_checkers: False
    pad: 0
    size: [RangeInt] min: 10 max: 150
    skew_vert_degs: [RangeFloat] min: 0 max: 45
    skew_horiz_degs: [RangeFloat] min: 0 max: 45
    interior_space_aligned: 5
    interior_space_filled: 5
  -->
  <g stroke="black" fill="none">
    <g stroke="red">
      <path d="M55.37 50.0L50.0 69.96M50.0 89.92L60.75 50.0M66.13 50.0L50.0 109.87M50.0 129.83L71.5 50.0M76.88 50.0L50.0 149.79M50.0 169.75L82.25 50.0M87.63 50.0L50.0 189.7M50.0 389.28L141.37 50.0M146.75 50.0L50.0 409.24M50.0 429.2L152.13 50.0M157.5 50.0L50.0 449.16M50.0 469.11L162.88 50.0M168.25 50.0L50.0 489.07M50.0 509.03L173.63 50.0M227.38 50.0L50.0 708.61M50.0 728.57L232.75 50.0M238.13 50.0L50.0 748.52M50.0 768.48L243.5 50.0M248.88 50.0L50.0 788.44M50.0 808.4L254.25 50.0M259.63 50.0L52.25 820.0M106.0 820.0L313.38 50.0M318.75 50.0L111.38 820.0M116.75 820.0L324.13 50.0M329.5 50.0L122.13 820.0M127.5 820.0L334.87 50.0M340.25 50.0L132.88 820.0M138.25 820.0L345.63 50.0M399.38 50.0L192.0 820.0M197.38 820.0L404.75 50.0M410.13 50.0L202.75 820.0M208.13 820.0L415.5 50.0M420.87 50.0L213.5 820.0M218.88 820.0L426.25 50.0M431.63 50.0L224.25 820.0M278.0 820.0L485.38 50.0M490.75 50.0L283.38 820.0M288.75 820.0L496.13 50.0M501.5 50.0L294.13 820.0M299.5 820.0L506.88 50.0M512.25 50.0L304.88 820.0M310.25 820.0L517.63 50.0M571.38 50.0L364.0 820.0M369.38 820.0L576.75 50.0M582.12 50.0L374.75 820.0M380.13 820.0L587.5 50.0M592.88 50.0L385.5 820.0M390.88 820.0L598.25 50.0M603.62 50.0L396.25 820.0M450.0 820.0L657.38 50.0M662.75 50.0L455.38 820.0M460.75 820.0L668.13 50.0M673.5 50.0L466.13 820.0M471.5 820.0L678.88 50.0M684.25 50.0L476.88 820.0M482.25 820.0L689.63 50.0M743.37 50.0L536.0 820.0M541.38 820.0L748.75 50.0M754.13 50.0L546.75 820.0M552.13 820.0L759.5 50.0M764.87 50.0L557.5 820.0M562.88 820.0L770.25 50.0M775.62 50.0L568.25 820.0M622.0 820.0L829.37 50.0M834.75 50.0L627.38 820.0M632.75 820.0L840.12 50.0M845.5 50.0L638.13 820.0M643.5 820.0L850.87 50.0M856.25 50.0L648.88 820.0M654.25 820.0L861.63 50.0M915.37 50.0L708.0 820.0M713.38 820.0L920.75 50.0M926.12 50.0L718.75 820.0M724.13 820.0L931.5 50.0M936.87 50.0L729.5 820.0M734.88 820.0L942.25 50.0M947.62 50.0L740.25 820.0M794.0 820.0L1001.37 50.0M1006.75 50.0L799.38 820.0M804.75 820.0L1012.12 50.0M1017.5 50.0L810.13 820.0M815.5 820.0L1022.88 50.0M1028.25 50.0L820.88 820.0M826.25 820.0L1033.63 50.0M1087.37 50.0L880.0 820.0M885.38 820.0L1092.75 50.0M1098.12 50.0L890.75 820.0M896.13 820.0L1100.0 63.0M1100.0 82.95L901.5 820.0M906.88 820.0L1100.0 102.91M1100.0 122.87L912.25 820.0M966.0 820.0L1100.0 322.45M1100.0 342.41L971.38 820.0M976.75 820.0L1100.0 362.36M1100.0 382.32L982.13 820.0M987.5 820.0L1100.0 402.28M1100.0 422.24L992.88 820.0M998.25 820.0L1100.0 442.19M1100.0 641.77L1052.0 820.0M1057.38 820.0L1100.0 661.73M1100.0 681.69L1062.75 820.0M1068.13 820.0L1100.0 701.65M1100.0 721.6L1073.5 820.0M1078.88 820.0L1100.0 741.56M1100.0 761.52L1084.25 820.0"/>
    </g>
  </g>
</svg>
