<svg version="1.1" width="1150" height="870" xmlns="http://www.w3.org/2000/svg">
  <!-- Seed: 5893366671987551668 -->
  <!-- Size: SvgSize.Size9x12 -->
  <!-- Params:
    draw_lines: False
    draw_aligned_vertical: True
    draw_aligned_horizontal: False
    draw_filled_checkers: False
    pad: 0
    size: [RangeInt] min: 10 max: 150
    skew_vert_degs: [RangeFloat] min: 0 max: 45
    skew_horiz_degs: [RangeFloat] min: 0 max: 45
    interior_space_aligned: 5
    interior_space_filled: 5
  -->
  <g stroke="black" fill="none">
    <g stroke="red">
      <path d="M55.05 50.0L50.0 65.58M50.0 81.16L60.1 50.0M65.15 50.0L50.0 96.75M50.0 112.33L70.2 50.0M75.25 50.0L50.0 127.91M50.0 143.49L80.3 50.0M85.35 50.0L50.0 159.07M50.0 174.66L90.4 50.0M95.45 50.0L50.0 190.24M50.0 205.82L100.5 50.0M105.55 50.0L50.0 221.4M50.0 236.99L110.6 50.0M115.65 50.0L50.0 252.57M50.0 268.15L120.7 50.0M125.75 50.0L50.0 283.73M50.0 299.31L130.8 50.0M135.85 50.0L50.0 314.9M50.0 330.48L140.9 50.0M145.95 50.0L50.0 346.06M50.0 688.87L257.05 50.0M262.1 50.0L50.0 704.45M50.0 720.03L267.15 50.0M272.2 50.0L50.0 735.61M50.0 751.2L277.25 50.0M282.3 50.0L50.0 766.78M50.0 782.36L287.35 50.0M292.4 50.0L50.0 797.94M50.0 813.52L297.45 50.0M302.5 50.0L52.95 820.0M58.0 820.0L307.55 50.0M312.6 50.0L63.05 820.0M68.1 820.0L317.65 50.0M322.7 50.0L73.15 820.0M78.2 820.0L327.75 50.0M332.8 50.0L83.25 820.0M88.3 820.0L337.85 50.0M342.9 50.0L93.35 820.0M98.4 820.0L347.95 50.0M459.05 50.0L209.5 820.0M214.55 820.0L464.1 50.0M469.15 50.0L219.6 820.0M224.65 820.0L474.2 50.0M479.25 50.0L229.7 820.0M234.75 820.0L484.3 50.0M489.35 50.0L239.8 820.0M244.85 820.0L494.4 50.0M499.45 50.0L249.9 820.0M254.95 820.0L504.5 50.0M509.55 50.0L260.0 820.0M265.05 820.0L514.6 50.0M519.65 50.0L270.1 820.0M275.15 820.0L524.7 50.0M529.75 50.0L280.2 820.0M285.25 820.0L534.8 50.0M539.85 50.0L290.3 820.0M295.35 820.0L544.9 50.0M549.95 50.0L300.4 820.0M411.5 820.0L661.05 50.0M666.1 50.0L416.55 820.0M421.6 820.0L671.15 50.0M676.2 50.0L426.65 820.0M431.7 820.0L681.25 50.0M686.3 50.0L436.75 820.0M441.8 820.0L691.35 50.0M696.4 50.0L446.85 820.0M451.9 820.0L701.45 50.0M706.5 50.0L456.95 820.0M462.0 820.0L711.55 50.0M716.6 50.0L467.05 820.0M472.1 820.0L721.65 50.0M726.7 50.0L477.15 820.0M482.2 820.0L731.75 50.0M736.8 50.0L487.25 820.0M492.3 820.0L741.85 50.0M746.9 50.0L497.35 820.0M502.4 820.0L751.95 50.0M863.05 50.0L613.5 820.0M618.55 820.0L868.1 50.0M873.15 50.0L623.6 820.0M628.65 820.0L878.2 50.0M883.25 50.0L633.7 820.0M638.75 820.0L888.3 50.0M893.35 50.0L643.8 820.0M648.85 820.0L898.4 50.0M903.45 50.0L653.9 820.0M658.95 820.0L908.5 50.0M913.55 50.0L664.0 820.0M669.05 820.0L918.6 50.0M923.65 50.0L674.1 820.0M679.15 820.0L928.7 50.0M933.75 50.0L684.2 820.0M689.25 820.0L938.8 50.0M943.85 50.0L694.3 820.0M699.35 820.0L948.9 50.0M953.95 50.0L704.4 820.0M815.5 820.0L1065.05 50.0M1070.1 50.0L820.55 820.0M825.6 820.0L1075.15 50.0M1080.2 50.0L830.65 820.0M835.7 820.0L1085.25 50.0M1090.3 50.0L840.75 820.0M845.8 820.0L1095.35 50.0M1100.0 51.23L850.85 820.0M855.9 820.0L1100.0 66.82M1100.0 82.4L860.95 820.0M866.0 820.0L1100.0 97.98M1100.0 113.56L871.05 820.0M876.1 820.0L1100.0 129.14M1100.0 144.73L881.15 820.0M886.2 820.0L1100.0 160.31M1100.0 175.89L891.25 820.0M896.3 820.0L1100.0 191.47M1100.0 207.06L901.35 820.0M906.4 820.0L1100.0 222.64M1100.0 565.44L1017.5 820.0M1022.55 820.0L1100.0 581.03M1100.0 596.61L1027.6 820.0M1032.65 820.0L1100.0 612.19M1100.0 627.77L1037.7 820.0M1042.75 820.0L1100.0 643.36M1100.0 658.94L1047.8 820.0M1052.85 820.0L1100.0 674.52M1100.0 690.1L1057.9 820.0M1062.95 820.0L1100.0 705.68M1100.0 721.27L1068.0 820.0M1073.05 820.0L1100.0 736.85M1100.0 752.43L1078.1 820.0M1083.15 820.0L1100.0 768.01M1100.0 783.59L1088.2 820.0M1093.25 820.0L1100.0 799.18M1100.0 814.76L1098.3 820.0"/>
    </g>
  </g>
</svg>
