<svg version="1.1" width="1150" height="870" xmlns="http://www.w3.org/2000/svg">
  <!-- Seed: 136942926160812745 -->
  <!-- Size: SvgSize.Size9x12 -->
  <!-- Params:
    draw_lines: False
    draw_aligned_vertical: True
    draw_aligned_horizontal: False
    draw_filled_checkers: False
    pad: 0
    size: [RangeInt] min: 10 max: 150
    skew_vert_degs: [RangeFloat] min: 0 max: 45
    skew_horiz_degs: [RangeFloat] min: 0 max: 45
    interior_space_aligned: 5
    interior_space_filled: 5
  -->
  <g stroke="black" fill="none">
    <g stroke="red">
      <path d="M186.04 50.0L50.0 341.53M50.0 352.32L191.08 50.0M196.12 50.0L50.0 363.12M50.0 373.92L201.15 50.0M206.19 50.0L50.0 384.72M50.0 395.51L211.23 50.0M216.27 50.0L50.0 406.31M50.0 417.11L221.31 50.0M226.35 50.0L50.0 427.9M50.0 438.7L231.38 50.0M236.42 50.0L50.0 449.5M50.0 460.3L241.46 50.0M246.5 50.0L50.0 471.09M50.0 481.89L251.54 50.0M256.58 50.0L50.0 492.69M50.0 503.49L261.62 50.0M266.65 50.0L50.0 514.28M50.0 525.08L271.69 50.0M276.73 50.0L50.0 535.88M50.0 546.67L281.77 50.0M286.81 50.0L50.0 557.47M50.0 568.27L291.85 50.0M296.88 50.0L50.0 579.07M50.0 589.86L301.92 50.0M306.96 50.0L50.0 600.66M88.72 820.0L448.04 50.0M453.08 50.0L93.76 820.0M98.8 820.0L458.12 50.0M463.15 50.0L103.84 820.0M108.88 820.0L468.19 50.0M473.23 50.0L113.92 820.0M118.95 820.0L478.27 50.0M483.31 50.0L123.99 820.0M129.03 820.0L488.35 50.0M493.38 50.0L134.07 820.0M139.11 820.0L498.42 50.0M503.46 50.0L144.15 820.0M149.19 820.0L508.5 50.0M513.54 50.0L154.22 820.0M159.26 820.0L518.58 50.0M523.62 50.0L164.3 820.0M169.34 820.0L528.65 50.0M533.69 50.0L174.38 820.0M179.42 820.0L538.73 50.0M543.77 50.0L184.45 820.0M189.49 820.0L548.81 50.0M553.85 50.0L194.53 820.0M199.57 820.0L558.88 50.0M563.92 50.0L204.61 820.0M209.65 820.0L568.96 50.0M710.04 50.0L350.72 820.0M355.76 820.0L715.08 50.0M720.12 50.0L360.8 820.0M365.84 820.0L725.15 50.0M730.19 50.0L370.88 820.0M375.92 820.0L735.23 50.0M740.27 50.0L380.95 820.0M385.99 820.0L745.31 50.0M750.35 50.0L391.03 820.0M396.07 820.0L755.38 50.0M760.42 50.0L401.11 820.0M406.15 820.0L765.46 50.0M770.5 50.0L411.19 820.0M416.22 820.0L775.54 50.0M780.58 50.0L421.26 820.0M426.3 820.0L785.62 50.0M790.65 50.0L431.34 820.0M436.38 820.0L795.69 50.0M800.73 50.0L441.42 820.0M446.45 820.0L805.77 50.0M810.81 50.0L451.49 820.0M456.53 820.0L815.85 50.0M820.88 50.0L461.57 820.0M466.61 820.0L825.92 50.0M830.96 50.0L471.65 820.0M612.72 820.0L972.04 50.0M977.08 50.0L617.76 820.0M622.8 820.0L982.12 50.0M987.15 50.0L627.84 820.0M632.88 820.0L992.19 50.0M997.23 50.0L637.92 820.0M642.95 820.0L1002.27 50.0M1007.31 50.0L647.99 820.0M653.03 820.0L1012.35 50.0M1017.38 50.0L658.07 820.0M663.11 820.0L1022.42 50.0M1027.46 50.0L668.15 820.0M673.19 820.0L1032.5 50.0M1037.54 50.0L678.22 820.0M683.26 820.0L1042.58 50.0M1047.62 50.0L688.3 820.0M693.34 820.0L1052.65 50.0M1057.69 50.0L698.38 820.0M703.42 820.0L1062.73 50.0M1067.77 50.0L708.45 820.0M713.49 820.0L1072.81 50.0M1077.85 50.0L718.53 820.0M723.57 820.0L1082.88 50.0M1087.92 50.0L728.61 820.0M733.65 820.0L1092.96 50.0M1100.0 337.24L874.72 820.0M879.76 820.0L1100.0 348.04M1100.0 358.83L884.8 820.0M889.84 820.0L1100.0 369.63M1100.0 380.43L894.88 820.0M899.92 820.0L1100.0 391.23M1100.0 402.02L904.95 820.0M909.99 820.0L1100.0 412.82M1100.0 423.62L915.03 820.0M920.07 820.0L1100.0 434.42M1100.0 445.21L925.11 820.0M930.15 820.0L1100.0 456.01M1100.0 466.81L935.19 820.0M940.22 820.0L1100.0 477.6M1100.0 488.4L945.26 820.0M950.3 820.0L1100.0 499.2M1100.0 510.0L955.34 820.0M960.38 820.0L1100.0 520.79M1100.0 531.59L965.42 820.0M970.45 820.0L1100.0 542.39M1100.0 553.19L975.49 820.0M980.53 820.0L1100.0 563.98M1100.0 574.78L985.57 820.0M990.61 820.0L1100.0 585.58M1100.0 596.37L995.65 820.0"/>
    </g>
  </g>
</svg>
