<svg version="1.1" width="1150" height="870" xmlns="http://www.w3.org/2000/svg">
  <!-- Seed: 6528220759101027758 -->
  <!-- Size: SvgSize.Size9x12 -->
  <!-- Params:
    draw_lines: False
    draw_aligned_vertical: True
    draw_aligned_horizontal: False
    draw_filled_checkers: False
    pad: 0
    size: [RangeInt] min: 10 max: 150
    skew_vert_degs: [RangeFloat] min: 0 max: 45
    skew_horiz_degs: [RangeFloat] min: 0 max: 45
    interior_space_aligned: 5
    interior_space_filled: 2
  -->
  <g stroke="black" fill="none">
    <g stroke="red">
      <path d="M56.5 50.0L50.0 141.75M50.0 508.74L82.5 50.0M108.5 50.0L53.95 820.0M79.95 820.0L134.5 50.0M160.5 50.0L105.95 820.0M131.95 820.0L186.5 50.0M212.5 50.0L157.95 820.0M183.95 820.0L238.5 50.0M264.5 50.0L209.95 820.0M235.95 820.0L290.5 50.0M316.5 50.0L261.95 820.0M287.95 820.0L342.5 50.0M368.5 50.0L313.95 820.0M339.95 820.0L394.5 50.0M420.5 50.0L365.95 820.0M391.95 820.0L446.5 50.0M472.5 50.0L417.95 820.0M443.95 820.0L498.5 50.0M524.5 50.0L469.95 820.0M495.95 820.0L550.5 50.0M576.5 50.0L521.95 820.0M547.95 820.0L602.5 50.0M628.5 50.0L573.95 820.0M599.95 820.0L654.5 50.0M680.5 50.0L625.95 820.0M651.95 820.0L706.5 50.0M732.5 50.0L677.95 820.0M703.95 820.0L758.5 50.0M784.5 50.0L729.95 820.0M755.95 820.0L810.5 50.0M836.5 50.0L781.95 820.0M807.95 820.0L862.5 50.0M888.5 50.0L833.95 820.0M859.95 820.0L914.5 50.0M940.5 50.0L885.95 820.0M911.95 820.0L966.5 50.0M992.5 50.0L937.95 820.0M963.95 820.0L1018.5 50.0M1044.5 50.0L989.95 820.0M1015.95 820.0L1070.5 50.0M1096.5 50.0L1041.95 820.0M1067.95 820.0L1100.0 367.59M1100.0 734.59L1093.95 820.0"/>
    </g>
  </g>
</svg>
