<svg version="1.1" width="1150" height="870" xmlns="http://www.w3.org/2000/svg">
  <!-- Seed: 6918645441254094299 -->
  <g stroke="black" fill="none">
    <g stroke="blue">
      <path d="M50 763.4529552188247h1050"/>
      <path d="M50 424.0h1050"/>
      <path d="M50 109.49999079732459h1050"/>
      <path d="M50 257.72320421009044h1050"/>
      <path d="M50 691.5749239253528h1050"/>
      <circle cx="130.0" cy="633.1707447146987" r="10"/>
      <circle cx="130.0" cy="221.96729242433165" r="10"/>
      <circle cx="130.0" cy="192.2144406649161" r="10"/>
      <circle cx="130.0" cy="569.8885196073923" r="10"/>
      <circle cx="130.0" cy="308.98548659444566" r="10"/>
      <path d="M1015.0 143.78 L1015.0 148.78"/>
      <path d="M1020.88 141.87 L1023.82 145.91"/>
      <path d="M1024.51 136.87 L1029.27 138.42"/>
      <path d="M1024.51 130.69 L1029.27 129.15"/>
      <path d="M1020.88 125.69 L1023.82 121.65"/>
      <path d="M1015.0 123.78 L1015.0 118.78"/>
      <path d="M1009.12 125.69 L1006.18 121.65"/>
      <path d="M1005.49 130.69 L1000.73 129.15"/>
      <path d="M1005.49 136.87 L1000.73 138.42"/>
      <path d="M1009.12 141.87 L1006.18 145.91"/>
      <path d="M1015.0 532.16 L1015.0 537.16"/>
      <path d="M1020.88 530.25 L1023.82 534.29"/>
      <path d="M1024.51 525.25 L1029.27 526.8"/>
      <path d="M1024.51 519.07 L1029.27 517.53"/>
      <path d="M1020.88 514.07 L1023.82 510.03"/>
      <path d="M1015.0 512.16 L1015.0 507.16"/>
      <path d="M1009.12 514.07 L1006.18 510.03"/>
      <path d="M1005.49 519.07 L1000.73 517.53"/>
      <path d="M1005.49 525.25 L1000.73 526.8"/>
      <path d="M1009.12 530.25 L1006.18 534.29"/>
      <path d="M1015.0 725.55 L1015.0 730.55"/>
      <path d="M1020.88 723.64 L1023.82 727.68"/>
      <path d="M1024.51 718.64 L1029.27 720.18"/>
      <path d="M1024.51 712.46 L1029.26 710.91"/>
      <path d="M1020.88 707.46 L1023.82 703.41"/>
      <path d="M1015.0 705.55 L1015.0 700.55"/>
      <path d="M1009.12 707.46 L1006.18 703.41"/>
      <path d="M1005.49 712.46 L1000.74 710.91"/>
      <path d="M1005.49 718.64 L1000.73 720.18"/>
      <path d="M1009.12 723.64 L1006.18 727.68"/>
      <path d="M1015.0 338.97 L1015.0 343.97"/>
      <path d="M1020.88 337.06 L1023.82 341.1"/>
      <path d="M1024.51 332.06 L1029.27 333.6"/>
      <path d="M1024.51 325.88 L1029.27 324.33"/>
      <path d="M1020.88 320.88 L1023.82 316.84"/>
      <path d="M1015.0 318.97 L1015.0 313.97"/>
      <path d="M1009.12 320.88 L1006.18 316.84"/>
      <path d="M1005.49 325.88 L1000.73 324.33"/>
      <path d="M1005.49 332.06 L1000.73 333.6"/>
      <path d="M1009.12 337.06 L1006.18 341.1"/>
      <path d="M1015.0 658.29 L1015.0 663.29"/>
      <path d="M1020.88 656.38 L1023.82 660.42"/>
      <path d="M1024.51 651.38 L1029.27 652.92"/>
      <path d="M1024.51 645.2 L1029.26 643.65"/>
      <path d="M1020.88 640.2 L1023.82 636.15"/>
      <path d="M1015.0 638.29 L1015.0 633.29"/>
      <path d="M1009.12 640.2 L1006.18 636.15"/>
      <path d="M1005.49 645.2 L1000.74 643.65"/>
      <path d="M1005.49 651.38 L1000.73 652.92"/>
      <path d="M1009.12 656.38 L1006.18 660.42"/>
    </g>
  </g>
</svg>
