<svg version="1.1" width="1630" height="1060" xmlns="http://www.w3.org/2000/svg">
  <!-- Seed: 2964735786125057197 -->
  <g stroke="black" fill="none">
    <g stroke="blue">
      <path d="M50 599.0h1530"/>
      <path d="M50 196.16367025325863h1530"/>
      <path d="M50 766.0h1530"/>
      <path d="M50 915.5253979002418h1530"/>
      <path d="M50 665.7051199984245h1530"/>
      <path d="M50 948.8359502621727h1530"/>
      <path d="M50 211.0h1530"/>
      <path d="M50 710.0h1530"/>
      <path d="M50 803.011999876555h1530"/>
      <path d="M50 142.58293283093883h1530"/>
      <circle cx="130.0" cy="450.9131496157372" r="10"/>
      <circle cx="130.0" cy="640.5003025153113" r="10"/>
      <circle cx="130.0" cy="888.3233670618457" r="10"/>
      <path d="M1495.0 757.08 L1495.0 762.08"/>
      <path d="M1500.88 755.17 L1503.82 759.22"/>
      <path d="M1504.51 750.17 L1509.26 751.72"/>
      <path d="M1504.51 743.99 L1509.27 742.45"/>
      <path d="M1500.88 738.99 L1503.82 734.95"/>
      <path d="M1495.0 737.08 L1495.0 732.08"/>
      <path d="M1489.12 738.99 L1486.18 734.95"/>
      <path d="M1485.49 743.99 L1480.73 742.45"/>
      <path d="M1485.49 750.17 L1480.74 751.72"/>
      <path d="M1489.12 755.17 L1486.18 759.22"/>
      <path d="M1495.0 183.3 L1495.0 188.3"/>
      <path d="M1500.88 181.39 L1503.82 185.43"/>
      <path d="M1504.51 176.39 L1509.27 177.93"/>
      <path d="M1504.51 170.21 L1509.26 168.66"/>
      <path d="M1500.88 165.21 L1503.82 161.16"/>
      <path d="M1495.0 163.3 L1495.0 158.3"/>
      <path d="M1489.12 165.21 L1486.18 161.16"/>
      <path d="M1485.49 170.21 L1480.74 168.66"/>
      <path d="M1485.49 176.39 L1480.73 177.93"/>
      <path d="M1489.12 181.39 L1486.18 185.43"/>
      <path d="M1495.0 872.88 L1495.0 877.88"/>
      <path d="M1500.88 870.97 L1503.82 875.01"/>
      <path d="M1504.51 865.97 L1509.26 867.52"/>
      <path d="M1504.51 859.79 L1509.27 858.25"/>
      <path d="M1500.88 854.79 L1503.82 850.75"/>
      <path d="M1495.0 852.88 L1495.0 847.88"/>
      <path d="M1489.12 854.79 L1486.18 850.75"/>
      <path d="M1485.49 859.79 L1480.73 858.25"/>
      <path d="M1485.49 865.97 L1480.74 867.52"/>
      <path d="M1489.12 870.97 L1486.18 875.01"/>
    </g>
  </g>
</svg>
