<svg version="1.1" width="1150" height="870" xmlns="http://www.w3.org/2000/svg">
  <!-- Seed: 8665858595145569890 -->
  <g stroke="black" fill="none">
    <g stroke="blue">
      <path d="M50 118.0h1050"/>
      <path d="M50 197.0h1050"/>
      <path d="M50 718.0h1050"/>
      <circle cx="130" cy="401.0" r="10"/>
      <circle cx="130" cy="310.0" r="10"/>
      <circle cx="130" cy="446.0" r="10"/>
      <circle cx="130" cy="356.0" r="10"/>
      <path d="M1015.0 570.0 L1015.0 575.0"/>
      <path d="M1020.88 568.09 L1023.82 572.13"/>
      <path d="M1024.51 563.09 L1029.27 564.64"/>
      <path d="M1024.51 556.91 L1029.27 555.36"/>
      <path d="M1020.88 551.91 L1023.82 547.87"/>
      <path d="M1015.0 550.0 L1015.0 545.0"/>
      <path d="M1009.12 551.91 L1006.18 547.87"/>
      <path d="M1005.49 556.91 L1000.73 555.36"/>
      <path d="M1005.49 563.09 L1000.73 564.64"/>
      <path d="M1009.12 568.09 L1006.18 572.13"/>
      <path d="M1015.0 660.0 L1015.0 665.0"/>
      <path d="M1020.88 658.09 L1023.82 662.13"/>
      <path d="M1024.51 653.09 L1029.27 654.64"/>
      <path d="M1024.51 646.91 L1029.27 645.36"/>
      <path d="M1020.88 641.91 L1023.82 637.87"/>
      <path d="M1015.0 640.0 L1015.0 635.0"/>
      <path d="M1009.12 641.91 L1006.18 637.87"/>
      <path d="M1005.49 646.91 L1000.73 645.36"/>
      <path d="M1005.49 653.09 L1000.73 654.64"/>
      <path d="M1009.12 658.09 L1006.18 662.13"/>
      <path d="M1015.0 298.0 L1015.0 303.0"/>
      <path d="M1020.88 296.09 L1023.82 300.13"/>
      <path d="M1024.51 291.09 L1029.27 292.64"/>
      <path d="M1024.51 284.91 L1029.27 283.36"/>
      <path d="M1020.88 279.91 L1023.82 275.87"/>
      <path d="M1015.0 278.0 L1015.0 273.0"/>
      <path d="M1009.12 279.91 L1006.18 275.87"/>
      <path d="M1005.49 284.91 L1000.73 283.36"/>
      <path d="M1005.49 291.09 L1000.73 292.64"/>
      <path d="M1009.12 296.09 L1006.18 300.13"/>
      <path d="M1015.0 547.0 L1015.0 552.0"/>
      <path d="M1020.88 545.09 L1023.82 549.13"/>
      <path d="M1024.51 540.09 L1029.27 541.64"/>
      <path d="M1024.51 533.91 L1029.27 532.36"/>
      <path d="M1020.88 528.91 L1023.82 524.87"/>
      <path d="M1015.0 527.0 L1015.0 522.0"/>
      <path d="M1009.12 528.91 L1006.18 524.87"/>
      <path d="M1005.49 533.91 L1000.73 532.36"/>
      <path d="M1005.49 540.09 L1000.73 541.64"/>
      <path d="M1009.12 545.09 L1006.18 549.13"/>
    </g>
  </g>
</svg>
