<svg version="1.1" width="1150" height="870" xmlns="http://www.w3.org/2000/svg">
  <!-- Seed: 6374588235393689609 -->
  <g stroke="black" fill="none">
    <g stroke="blue">
      <path d="M50 369.0h1050"/>
      <path d="M50 554.0h1050"/>
      <path d="M50 422.0h1050"/>
      <path d="M50 183.0h1050"/>
      <path d="M50 634.0h1050"/>
      <path d="M50 289.0h1050"/>
      <path d="M50 408.0h1050"/>
      <circle cx="130" cy="541.0" r="10"/>
      <circle cx="130" cy="488.0" r="10"/>
      <circle cx="130" cy="780.0" r="10"/>
      <circle cx="130" cy="594.0" r="10"/>
      <circle cx="130" cy="515.0" r="10"/>
      <path d="M1015.0 445.0 L1015.0 450.0"/>
      <path d="M1020.88 443.09 L1023.82 447.13"/>
      <path d="M1024.51 438.09 L1029.27 439.64"/>
      <path d="M1024.51 431.91 L1029.27 430.36"/>
      <path d="M1020.88 426.91 L1023.82 422.87"/>
      <path d="M1015.0 425.0 L1015.0 420.0"/>
      <path d="M1009.12 426.91 L1006.18 422.87"/>
      <path d="M1005.49 431.91 L1000.73 430.36"/>
      <path d="M1005.49 438.09 L1000.73 439.64"/>
      <path d="M1009.12 443.09 L1006.18 447.13"/>
      <path d="M1015.0 817.0 L1015.0 822.0"/>
      <path d="M1020.88 815.09 L1023.82 819.13"/>
      <path d="M1024.51 810.09 L1029.27 811.64"/>
      <path d="M1024.51 803.91 L1029.27 802.36"/>
      <path d="M1020.88 798.91 L1023.82 794.87"/>
      <path d="M1015.0 797.0 L1015.0 792.0"/>
      <path d="M1009.12 798.91 L1006.18 794.87"/>
      <path d="M1005.49 803.91 L1000.73 802.36"/>
      <path d="M1005.49 810.09 L1000.73 811.64"/>
      <path d="M1009.12 815.09 L1006.18 819.13"/>
      <path d="M1015.0 153.0 L1015.0 158.0"/>
      <path d="M1020.88 151.09 L1023.82 155.13"/>
      <path d="M1024.51 146.09 L1029.27 147.64"/>
      <path d="M1024.51 139.91 L1029.27 138.36"/>
      <path d="M1020.88 134.91 L1023.82 130.87"/>
      <path d="M1015.0 133.0 L1015.0 128.0"/>
      <path d="M1009.12 134.91 L1006.18 130.87"/>
      <path d="M1005.49 139.91 L1000.73 138.36"/>
      <path d="M1005.49 146.09 L1000.73 147.64"/>
      <path d="M1009.12 151.09 L1006.18 155.13"/>
      <path d="M1015.0 737.0 L1015.0 742.0"/>
      <path d="M1020.88 735.09 L1023.82 739.13"/>
      <path d="M1024.51 730.09 L1029.27 731.64"/>
      <path d="M1024.51 723.91 L1029.27 722.36"/>
      <path d="M1020.88 718.91 L1023.82 714.87"/>
      <path d="M1015.0 717.0 L1015.0 712.0"/>
      <path d="M1009.12 718.91 L1006.18 714.87"/>
      <path d="M1005.49 723.91 L1000.73 722.36"/>
      <path d="M1005.49 730.09 L1000.73 731.64"/>
      <path d="M1009.12 735.09 L1006.18 739.13"/>
      <path d="M1015.0 472.0 L1015.0 477.0"/>
      <path d="M1020.88 470.09 L1023.82 474.13"/>
      <path d="M1024.51 465.09 L1029.27 466.64"/>
      <path d="M1024.51 458.91 L1029.27 457.36"/>
      <path d="M1020.88 453.91 L1023.82 449.87"/>
      <path d="M1015.0 452.0 L1015.0 447.0"/>
      <path d="M1009.12 453.91 L1006.18 449.87"/>
      <path d="M1005.49 458.91 L1000.73 457.36"/>
      <path d="M1005.49 465.09 L1000.73 466.64"/>
      <path d="M1009.12 470.09 L1006.18 474.13"/>
    </g>
  </g>
</svg>
