<svg version="1.1" width="1150" height="870" xmlns="http://www.w3.org/2000/svg">
  <!-- Seed: 5462574509489046022 -->
  <g stroke="black" fill="none">
    <g stroke="blue">
      <path d="M50 207.0h1050"/>
      <path d="M50 292.0h1050"/>
      <path d="M50 164.0h1050"/>
      <path d="M50 107.0h1050"/>
      <path d="M50 734.0h1050"/>
      <circle cx="130" cy="150.0" r="10"/>
      <path d="M 1015.0 588.0 L1015.0 593.0"/>
      <path d="M 1020.8778525229247 586.0901699437495 L1023.8167787843871 590.1352549156243"/>
      <path d="M 1024.5105651629515 581.0901699437495 L1029.2658477444272 582.6352549156243"/>
      <path d="M 1024.5105651629515 574.9098300562505 L1029.2658477444272 573.3647450843757"/>
      <path d="M 1020.8778525229247 569.9098300562505 L1023.8167787843871 565.8647450843757"/>
      <path d="M 1015.0 568.0 L1015.0 563.0"/>
      <path d="M 1009.1221474770753 569.9098300562505 L1006.1832212156129 565.8647450843757"/>
      <path d="M 1005.4894348370485 574.9098300562505 L1000.7341522555728 573.3647450843757"/>
      <path d="M 1005.4894348370485 581.0901699437495 L1000.7341522555728 582.6352549156243"/>
      <path d="M 1009.1221474770753 586.0901699437495 L1006.1832212156129 590.1352549156243"/>
    </g>
  </g>
</svg>
