<svg version="1.1" width="1150" height="870" xmlns="http://www.w3.org/2000/svg">
  <!-- Seed: 6528220759101027758 -->
  <!-- Size: SvgSize.Size9x12 -->
  <!-- Params:
    draw_lines: False
    draw_aligned_vertical: False
    draw_aligned_horizontal: True
    draw_filled_checkers: False
    pad: 0
    size: [RangeInt] min: 10 max: 150
    skew_vert_degs: [RangeFloat] min: 0 max: 45
    skew_horiz_degs: [RangeFloat] min: 0 max: 45
    interior_space_aligned: 5
    interior_space_filled: 2
  -->
  <g stroke="black" fill="none">
    <g stroke="blue">
      <path d="M1028.18 50.0L1100.0 67.66M1100.0 93.66L922.43 50.0M816.68 50.0L1100.0 119.66M1100.0 145.66L710.93 50.0M605.18 50.0L1100.0 171.66M1100.0 197.66L499.43 50.0M393.68 50.0L1100.0 223.66M1100.0 249.66L287.94 50.0M182.19 50.0L1100.0 275.66M1100.0 301.66L76.44 50.0M50.0 69.5L1100.0 327.66M1100.0 353.66L50.0 95.5M50.0 121.5L1100.0 379.66M1100.0 405.66L50.0 147.5M50.0 173.5L1100.0 431.66M1100.0 457.66L50.0 199.5M50.0 225.5L1100.0 483.66M1100.0 509.66L50.0 251.5M50.0 277.5L1100.0 535.66M1100.0 561.66L50.0 303.5M50.0 329.5L1100.0 587.66M1100.0 613.66L50.0 355.5M50.0 381.5L1100.0 639.66M1100.0 665.66L50.0 407.5M50.0 433.5L1100.0 691.66M1100.0 717.66L50.0 459.5M50.0 485.5L1100.0 743.66M1100.0 769.66L50.0 511.5M50.0 537.5L1100.0 795.66M1093.26 820.0L50.0 563.5M50.0 589.5L987.51 820.0M881.76 820.0L50.0 615.5M50.0 641.5L776.01 820.0M670.26 820.0L50.0 667.5M50.0 693.5L564.51 820.0M458.76 820.0L50.0 719.5M50.0 745.5L353.01 820.0M247.26 820.0L50.0 771.5M50.0 797.5L141.51 820.0"/>
    </g>
  </g>
</svg>
