<svg version="1.1" width="1150" height="870" xmlns="http://www.w3.org/2000/svg">
  <!-- Seed: 1934709873857659625 -->
  <!-- Size: SvgSize.Size9x12 -->
  <!-- Params:
    draw_lines: False
    draw_aligned_vertical: False
    draw_aligned_horizontal: True
    draw_filled_checkers: False
    pad: 0
    size: [RangeInt] min: 10 max: 150
    skew_vert_degs: [RangeFloat] min: 0 max: 45
    skew_horiz_degs: [RangeFloat] min: 0 max: 45
    interior_space_aligned: 5
    interior_space_filled: 5
  -->
  <g stroke="black" fill="none">
    <g stroke="blue">
      <path d="M1035.41 50.0L1100.0 93.64M1100.0 98.73L1027.89 50.0M1020.37 50.0L1100.0 103.81M1100.0 108.89L1012.85 50.0M1005.33 50.0L1100.0 113.98M1100.0 119.06L997.8 50.0M990.28 50.0L1100.0 124.14M1100.0 129.23L982.76 50.0M975.24 50.0L1100.0 134.31M1100.0 139.39L967.71 50.0M960.19 50.0L1100.0 144.48M1100.0 215.64L854.88 50.0M847.36 50.0L1100.0 220.73M1100.0 225.81L839.84 50.0M832.31 50.0L1100.0 230.89M1100.0 235.98L824.79 50.0M817.27 50.0L1100.0 241.06M1100.0 246.14L809.75 50.0M802.22 50.0L1100.0 251.23M1100.0 256.31L794.7 50.0M787.18 50.0L1100.0 261.39M1100.0 266.48L779.66 50.0M674.35 50.0L1100.0 337.64M1100.0 342.73L666.82 50.0M659.3 50.0L1100.0 347.81M1100.0 352.89L651.78 50.0M644.26 50.0L1100.0 357.98M1100.0 363.06L636.74 50.0M629.21 50.0L1100.0 368.14M1100.0 373.23L621.69 50.0M614.17 50.0L1100.0 378.31M1100.0 383.39L606.65 50.0M599.12 50.0L1100.0 388.48M1100.0 459.64L493.81 50.0M486.29 50.0L1100.0 464.73M1100.0 469.81L478.77 50.0M471.25 50.0L1100.0 474.89M1100.0 479.98L463.72 50.0M456.2 50.0L1100.0 485.06M1100.0 490.14L448.68 50.0M441.16 50.0L1100.0 495.23M1100.0 500.31L433.63 50.0M426.11 50.0L1100.0 505.39M1100.0 510.48L418.59 50.0M313.28 50.0L1100.0 581.64M1100.0 586.73L305.76 50.0M298.23 50.0L1100.0 591.81M1100.0 596.89L290.71 50.0M283.19 50.0L1100.0 601.98M1100.0 607.06L275.67 50.0M268.15 50.0L1100.0 612.14M1100.0 617.23L260.62 50.0M253.1 50.0L1100.0 622.31M1100.0 627.39L245.58 50.0M238.06 50.0L1100.0 632.48M1100.0 703.64L132.74 50.0M125.22 50.0L1100.0 708.73M1100.0 713.81L117.7 50.0M110.18 50.0L1100.0 718.89M1100.0 723.98L102.66 50.0M95.13 50.0L1100.0 729.06M1100.0 734.14L87.61 50.0M80.09 50.0L1100.0 739.23M1100.0 744.31L72.57 50.0M65.04 50.0L1100.0 749.39M1100.0 754.48L57.52 50.0M50.0 116.08L1091.65 820.0M1084.12 820.0L50.0 121.17M50.0 126.25L1076.6 820.0M1069.08 820.0L50.0 131.33M50.0 136.42L1061.56 820.0M1054.04 820.0L50.0 141.5M50.0 146.58L1046.51 820.0M1038.99 820.0L50.0 151.67M50.0 156.75L1031.47 820.0M1023.95 820.0L50.0 161.83M50.0 166.92L1016.42 820.0M911.11 820.0L50.0 238.08M50.0 243.17L903.59 820.0M896.07 820.0L50.0 248.25M50.0 253.33L888.55 820.0M881.02 820.0L50.0 258.42M50.0 263.5L873.5 820.0M865.98 820.0L50.0 268.58M50.0 273.67L858.46 820.0M850.93 820.0L50.0 278.75M50.0 283.83L843.41 820.0M835.89 820.0L50.0 288.92M50.0 360.08L730.58 820.0M723.06 820.0L50.0 365.17M50.0 370.25L715.53 820.0M708.01 820.0L50.0 375.33M50.0 380.42L700.49 820.0M692.97 820.0L50.0 385.5M50.0 390.58L685.45 820.0M677.92 820.0L50.0 395.67M50.0 400.75L670.4 820.0M662.88 820.0L50.0 405.83M50.0 410.92L655.36 820.0M550.04 820.0L50.0 482.08M50.0 487.17L542.52 820.0M535.0 820.0L50.0 492.25M50.0 497.33L527.48 820.0M519.96 820.0L50.0 502.42M50.0 507.5L512.43 820.0M504.91 820.0L50.0 512.58M50.0 517.67L497.39 820.0M489.87 820.0L50.0 522.75M50.0 527.83L482.34 820.0M474.82 820.0L50.0 532.92M50.0 604.08L369.51 820.0M361.99 820.0L50.0 609.17M50.0 614.25L354.47 820.0M346.94 820.0L50.0 619.33M50.0 624.42L339.42 820.0M331.9 820.0L50.0 629.5M50.0 634.58L324.38 820.0M316.85 820.0L50.0 639.67M50.0 644.75L309.33 820.0M301.81 820.0L50.0 649.83M50.0 654.92L294.29 820.0M188.98 820.0L50.0 726.08M50.0 731.17L181.45 820.0M173.93 820.0L50.0 736.25M50.0 741.33L166.41 820.0M158.89 820.0L50.0 746.42M50.0 751.5L151.37 820.0M143.84 820.0L50.0 756.58M50.0 761.67L136.32 820.0M128.8 820.0L50.0 766.75M50.0 771.83L121.28 820.0M113.75 820.0L50.0 776.92"/>
    </g>
  </g>
</svg>
