<svg version="1.1" width="1150" height="870" xmlns="http://www.w3.org/2000/svg">
  <!-- Seed: 136942926160812745 -->
  <!-- Size: SvgSize.Size9x12 -->
  <!-- Params:
    draw_lines: False
    draw_aligned_vertical: False
    draw_aligned_horizontal: True
    draw_filled_checkers: False
    pad: 0
    size: [RangeInt] min: 10 max: 150
    skew_vert_degs: [RangeFloat] min: 0 max: 45
    skew_horiz_degs: [RangeFloat] min: 0 max: 45
    interior_space_aligned: 5
    interior_space_filled: 5
  -->
  <g stroke="black" fill="none">
    <g stroke="blue">
      <path d="M958.33 50.0L1100.0 130.94M1100.0 135.98L949.51 50.0M940.69 50.0L1100.0 141.02M1100.0 146.06L931.87 50.0M923.06 50.0L1100.0 151.09M1100.0 156.13L914.24 50.0M905.42 50.0L1100.0 161.17M1100.0 166.21L896.6 50.0M887.78 50.0L1100.0 171.25M1100.0 176.29L878.96 50.0M870.14 50.0L1100.0 181.33M1100.0 186.36L861.32 50.0M852.51 50.0L1100.0 191.4M1100.0 196.44L843.69 50.0M834.87 50.0L1100.0 201.48M1100.0 206.52L826.05 50.0M817.23 50.0L1100.0 211.56M1100.0 216.59L808.41 50.0M799.59 50.0L1100.0 221.63M1100.0 226.67L790.77 50.0M781.96 50.0L1100.0 231.71M1100.0 236.75L773.14 50.0M764.32 50.0L1100.0 241.79M1100.0 246.83L755.5 50.0M746.68 50.0L1100.0 251.86M1100.0 392.94L499.76 50.0M490.94 50.0L1100.0 397.98M1100.0 403.02L482.12 50.0M473.3 50.0L1100.0 408.06M1100.0 413.09L464.48 50.0M455.66 50.0L1100.0 418.13M1100.0 423.17L446.84 50.0M438.02 50.0L1100.0 428.21M1100.0 433.25L429.21 50.0M420.39 50.0L1100.0 438.29M1100.0 443.33L411.57 50.0M402.75 50.0L1100.0 448.36M1100.0 453.4L393.93 50.0M385.11 50.0L1100.0 458.44M1100.0 463.48L376.29 50.0M367.47 50.0L1100.0 468.52M1100.0 473.56L358.66 50.0M349.84 50.0L1100.0 478.59M1100.0 483.63L341.02 50.0M332.2 50.0L1100.0 488.67M1100.0 493.71L323.38 50.0M314.56 50.0L1100.0 498.75M1100.0 503.79L305.74 50.0M296.92 50.0L1100.0 508.83M1100.0 513.86L288.11 50.0M50.0 55.04L1100.0 654.94M1100.0 659.98L50.0 60.08M50.0 65.12L1100.0 665.02M1100.0 670.06L50.0 70.15M50.0 75.19L1100.0 675.09M1100.0 680.13L50.0 80.23M50.0 85.27L1100.0 685.17M1100.0 690.21L50.0 90.31M50.0 95.35L1100.0 695.25M1100.0 700.29L50.0 100.38M50.0 105.42L1100.0 705.33M1100.0 710.36L50.0 110.46M50.0 115.5L1100.0 715.4M1100.0 720.44L50.0 120.54M50.0 125.58L1100.0 725.48M1100.0 730.52L50.0 130.62M50.0 135.65L1100.0 735.56M1100.0 740.59L50.0 140.69M50.0 145.73L1100.0 745.63M1100.0 750.67L50.0 150.77M50.0 155.81L1100.0 755.71M1100.0 760.75L50.0 160.85M50.0 165.88L1100.0 765.79M1100.0 770.83L50.0 170.92M50.0 175.96L1100.0 775.86M930.33 820.0L50.0 317.04M50.0 322.08L921.51 820.0M912.69 820.0L50.0 327.12M50.0 332.15L903.87 820.0M895.05 820.0L50.0 337.19M50.0 342.23L886.23 820.0M877.41 820.0L50.0 347.27M50.0 352.31L868.6 820.0M859.78 820.0L50.0 357.35M50.0 362.38L850.96 820.0M842.14 820.0L50.0 367.42M50.0 372.46L833.32 820.0M824.5 820.0L50.0 377.5M50.0 382.54L815.68 820.0M806.86 820.0L50.0 387.58M50.0 392.62L798.05 820.0M789.23 820.0L50.0 397.65M50.0 402.69L780.41 820.0M771.59 820.0L50.0 407.73M50.0 412.77L762.77 820.0M753.95 820.0L50.0 417.81M50.0 422.85L745.13 820.0M736.31 820.0L50.0 427.88M50.0 432.92L727.5 820.0M718.68 820.0L50.0 437.96M50.0 579.04L471.75 820.0M462.93 820.0L50.0 584.08M50.0 589.12L454.11 820.0M445.3 820.0L50.0 594.15M50.0 599.19L436.48 820.0M427.66 820.0L50.0 604.23M50.0 609.27L418.84 820.0M410.02 820.0L50.0 614.31M50.0 619.35L401.2 820.0M392.38 820.0L50.0 624.38M50.0 629.42L383.56 820.0M374.75 820.0L50.0 634.46M50.0 639.5L365.93 820.0M357.11 820.0L50.0 644.54M50.0 649.58L348.29 820.0M339.47 820.0L50.0 654.62M50.0 659.65L330.65 820.0M321.83 820.0L50.0 664.69M50.0 669.73L313.01 820.0M304.2 820.0L50.0 674.77M50.0 679.81L295.38 820.0M286.56 820.0L50.0 684.85M50.0 689.88L277.74 820.0M268.92 820.0L50.0 694.92M50.0 699.96L260.1 820.0"/>
    </g>
  </g>
</svg>
