<svg version="1.1" width="1150" height="870" xmlns="http://www.w3.org/2000/svg">
  <!-- Seed: 2932255199565203573 -->
  <!-- Size: SvgSize.Size9x12 -->
  <!-- Params:
    draw_lines: False
    draw_aligned_vertical: False
    draw_aligned_horizontal: True
    draw_filled_checkers: False
    pad: 0
    size: [RangeInt] min: 10 max: 150
    skew_vert_degs: [RangeFloat] min: 0 max: 45
    skew_horiz_degs: [RangeFloat] min: 0 max: 45
    interior_space_aligned: 5
    interior_space_filled: 5
  -->
  <g stroke="black" fill="none">
    <g stroke="blue">
      <path d="M1025.94 50.0L1100.0 85.49M1100.0 90.86L1014.72 50.0M1003.5 50.0L1100.0 96.24M1100.0 101.61L992.28 50.0M981.06 50.0L1100.0 106.99M1100.0 112.36L969.85 50.0M958.63 50.0L1100.0 117.74M1100.0 171.49L846.45 50.0M835.24 50.0L1100.0 176.86M1100.0 182.24L824.02 50.0M812.8 50.0L1100.0 187.61M1100.0 192.99L801.58 50.0M790.36 50.0L1100.0 198.36M1100.0 203.74L779.15 50.0M666.97 50.0L1100.0 257.49M1100.0 262.86L655.75 50.0M644.54 50.0L1100.0 268.24M1100.0 273.61L633.32 50.0M622.1 50.0L1100.0 278.99M1100.0 284.36L610.88 50.0M599.66 50.0L1100.0 289.74M1100.0 343.49L487.49 50.0M476.27 50.0L1100.0 348.86M1100.0 354.24L465.05 50.0M453.84 50.0L1100.0 359.61M1100.0 364.99L442.62 50.0M431.4 50.0L1100.0 370.36M1100.0 375.74L420.18 50.0M308.01 50.0L1100.0 429.49M1100.0 434.86L296.79 50.0M285.57 50.0L1100.0 440.24M1100.0 445.61L274.35 50.0M263.14 50.0L1100.0 450.99M1100.0 456.36L251.92 50.0M240.7 50.0L1100.0 461.74M1100.0 515.49L128.52 50.0M117.31 50.0L1100.0 520.86M1100.0 526.24L106.09 50.0M94.87 50.0L1100.0 531.61M1100.0 536.99L83.65 50.0M72.44 50.0L1100.0 542.36M1100.0 547.74L61.22 50.0M50.0 98.37L1100.0 601.49M1100.0 606.86L50.0 103.75M50.0 109.12L1100.0 612.24M1100.0 617.61L50.0 114.5M50.0 119.88L1100.0 622.99M1100.0 628.36L50.0 125.25M50.0 130.62L1100.0 633.74M1100.0 687.49L50.0 184.38M50.0 189.75L1100.0 692.86M1100.0 698.24L50.0 195.13M50.0 200.5L1100.0 703.61M1100.0 708.99L50.0 205.88M50.0 211.25L1100.0 714.36M1100.0 719.74L50.0 216.63M50.0 270.38L1100.0 773.49M1100.0 778.86L50.0 275.75M50.0 281.13L1100.0 784.24M1100.0 789.61L50.0 286.5M50.0 291.88L1100.0 794.99M1100.0 800.36L50.0 297.25M50.0 302.63L1100.0 805.74M1017.59 820.0L50.0 356.38M50.0 361.75L1006.37 820.0M995.15 820.0L50.0 367.12M50.0 372.5L983.93 820.0M972.72 820.0L50.0 377.87M50.0 383.25L961.5 820.0M950.28 820.0L50.0 388.62M50.0 442.37L838.1 820.0M826.89 820.0L50.0 447.75M50.0 453.12L815.67 820.0M804.45 820.0L50.0 458.5M50.0 463.88L793.23 820.0M782.02 820.0L50.0 469.25M50.0 474.63L770.8 820.0M658.62 820.0L50.0 528.38M50.0 533.75L647.4 820.0M636.19 820.0L50.0 539.13M50.0 544.5L624.97 820.0M613.75 820.0L50.0 549.88M50.0 555.25L602.53 820.0M591.32 820.0L50.0 560.63M50.0 614.37L479.14 820.0M467.92 820.0L50.0 619.75M50.0 625.12L456.7 820.0M445.49 820.0L50.0 630.5M50.0 635.87L434.27 820.0M423.05 820.0L50.0 641.25M50.0 646.62L411.83 820.0M299.66 820.0L50.0 700.38M50.0 705.75L288.44 820.0M277.22 820.0L50.0 711.13M50.0 716.5L266.0 820.0M254.79 820.0L50.0 721.88M50.0 727.25L243.57 820.0M232.35 820.0L50.0 732.63M50.0 786.38L120.18 820.0M108.96 820.0L50.0 791.75M50.0 797.12L97.74 820.0M86.52 820.0L50.0 802.5M50.0 807.88L75.3 820.0M64.09 820.0L50.0 813.25M50.0 818.62L52.87 820.0"/>
    </g>
  </g>
</svg>
