<svg version="1.1" width="1150" height="870" xmlns="http://www.w3.org/2000/svg">
  <!-- Seed: 8316051837341584768 -->
  <!-- Size: SvgSize.Size9x12 -->
  <!-- Params:
    draw_lines: False
    draw_aligned_vertical: False
    draw_aligned_horizontal: True
    draw_filled_checkers: False
    pad: 0
    size: [RangeInt] min: 10 max: 150
    skew_vert_degs: [RangeFloat] min: 0 max: 45
    skew_horiz_degs: [RangeFloat] min: 0 max: 45
    interior_space_aligned: 5
    interior_space_filled: 5
  -->
  <g stroke="black" fill="none">
    <g stroke="blue">
      <path d="M1054.33 50.0L1100.0 57.96M1100.0 62.96L1025.64 50.0M996.94 50.0L1100.0 67.96M1100.0 72.96L968.25 50.0M939.55 50.0L1100.0 77.96M1100.0 82.96L910.86 50.0M882.16 50.0L1100.0 87.96M1100.0 92.96L853.47 50.0M824.77 50.0L1100.0 97.96M1100.0 102.96L796.08 50.0M767.38 50.0L1100.0 107.96M1100.0 177.96L365.65 50.0M336.95 50.0L1100.0 182.96M1100.0 187.96L308.26 50.0M279.56 50.0L1100.0 192.96M1100.0 197.96L250.87 50.0M222.17 50.0L1100.0 202.96M1100.0 207.96L193.48 50.0M164.78 50.0L1100.0 212.96M1100.0 217.96L136.09 50.0M107.39 50.0L1100.0 222.96M1100.0 227.96L78.7 50.0M50.0 115.0L1100.0 297.96M1100.0 302.96L50.0 120.0M50.0 125.0L1100.0 307.96M1100.0 312.96L50.0 130.0M50.0 135.0L1100.0 317.96M1100.0 322.96L50.0 140.0M50.0 145.0L1100.0 327.96M1100.0 332.96L50.0 150.0M50.0 155.0L1100.0 337.96M1100.0 342.96L50.0 160.0M50.0 165.0L1100.0 347.96M1100.0 417.96L50.0 235.0M50.0 240.0L1100.0 422.96M1100.0 427.96L50.0 245.0M50.0 250.0L1100.0 432.96M1100.0 437.96L50.0 255.0M50.0 260.0L1100.0 442.96M1100.0 447.96L50.0 265.0M50.0 270.0L1100.0 452.96M1100.0 457.96L50.0 275.0M50.0 280.0L1100.0 462.96M1100.0 467.96L50.0 285.0M50.0 355.0L1100.0 537.96M1100.0 542.96L50.0 360.0M50.0 365.0L1100.0 547.96M1100.0 552.96L50.0 370.0M50.0 375.0L1100.0 557.96M1100.0 562.96L50.0 380.0M50.0 385.0L1100.0 567.96M1100.0 572.96L50.0 390.0M50.0 395.0L1100.0 577.96M1100.0 582.96L50.0 400.0M50.0 405.0L1100.0 587.96M1100.0 657.96L50.0 475.0M50.0 480.0L1100.0 662.96M1100.0 667.96L50.0 485.0M50.0 490.0L1100.0 672.96M1100.0 677.96L50.0 495.0M50.0 500.0L1100.0 682.96M1100.0 687.96L50.0 505.0M50.0 510.0L1100.0 692.96M1100.0 697.96L50.0 515.0M50.0 520.0L1100.0 702.96M1100.0 707.96L50.0 525.0M50.0 595.0L1100.0 777.96M1100.0 782.96L50.0 600.0M50.0 605.0L1100.0 787.96M1100.0 792.96L50.0 610.0M50.0 615.0L1100.0 797.96M1100.0 802.96L50.0 620.0M50.0 625.0L1100.0 807.96M1100.0 812.96L50.0 630.0M50.0 635.0L1100.0 817.96M1083.03 820.0L50.0 640.0M50.0 645.0L1054.33 820.0M652.6 820.0L50.0 715.0M50.0 720.0L623.91 820.0M595.21 820.0L50.0 725.0M50.0 730.0L566.51 820.0M537.82 820.0L50.0 735.0M50.0 740.0L509.12 820.0M480.43 820.0L50.0 745.0M50.0 750.0L451.73 820.0M423.04 820.0L50.0 755.0M50.0 760.0L394.34 820.0M365.65 820.0L50.0 765.0"/>
    </g>
  </g>
</svg>
