<svg version="1.1" width="1630" height="1060" xmlns="http://www.w3.org/2000/svg">
  <!-- Seed: 7308483006666344611 -->
  <g stroke="black" fill="none">
    <g stroke="blue">
      <circle cx="815.0" cy="530.0" r="380.0"/>
      <path d="M 815.0 920.0 L815.0 935.0"/>
      <path d="M 839.4883026164322 919.2304240870259 L840.4301604093719 934.20082501345"/>
      <path d="M 863.8799610900786 916.9247335126463 L865.7599595935432 931.8064540323635"/>
      <path d="M 888.0787126884326 913.0920277841885 L890.8894324072185 927.8263365451188"/>
      <path d="M 911.9890559942934 907.7474328401661 L915.7194043017662 922.2761802570956"/>
      <path d="M 935.5166278062295 900.9120413551099 L940.1518827218537 915.1778890995372"/>
      <path d="M 958.5685755470244 892.612829496418 L964.0904438372945 906.5594767847418"/>
      <path d="M 981.0539237103784 882.8825504617475 L987.4406130838545 896.4549562487379"/>
      <path d="M 1002.8839328996689 871.7596052171068 L1010.1102380111946 884.9042054177647"/>
      <path d="M 1023.9724500418087 859.2878909457859 L1032.0098519664937 871.952809828316"/>
      <path d="M 1044.2362483940644 845.5166278062295 L1053.0530271784514 857.6518827218537"/>
      <path d="M 1063.5953560019889 830.5001646825579 L1073.1567158482192 842.0578633241947"/>
      <path d="M 1081.9733713121886 814.2977646943505 L1092.241577901119 825.2322941056716"/>
      <path d="M 1099.2977646943505 796.9733713121885 L1110.2322941056716 807.2415779011188"/>
      <path d="M 1115.5001646825579 778.595356001989 L1127.0578633241946 788.1567158482193"/>
      <path d="M 1130.5166278062295 759.2362483940645 L1142.6518827218538 768.0530271784517"/>
      <path d="M 1144.2878909457859 738.9724500418087 L1156.952809828316 747.0098519664936"/>
      <path d="M 1156.7596052171068 717.8839328996689 L1169.9042054177648 725.1102380111946"/>
      <path d="M 1167.8825504617475 696.0539237103783 L1181.4549562487377 702.4406130838544"/>
      <path d="M 1177.612829496418 673.5685755470245 L1191.5594767847417 679.0904438372946"/>
      <path d="M 1185.91204135511 650.5166278062295 L1200.1778890995372 655.1518827218537"/>
      <path d="M 1192.747432840166 626.9890559942935 L1207.2761802570956 630.7194043017663"/>
      <path d="M 1198.0920277841885 603.0787126884327 L1212.826336545119 605.8894324072186"/>
      <path d="M 1201.9247335126463 578.8799610900786 L1216.8064540323635 580.7599595935432"/>
      <path d="M 1204.2304240870258 554.4883026164323 L1219.2008250134497 555.430160409372"/>
      <path d="M 1205.0 530.0 L1220.0 530.0"/>
      <path d="M 1204.2304240870258 505.51169738356776 L1219.2008250134497 504.5698395906281"/>
      <path d="M 1201.9247335126463 481.1200389099213 L1216.8064540323635 479.2400404064567"/>
      <path d="M 1198.0920277841885 456.9212873115673 L1212.826336545119 454.1105675927814"/>
      <path d="M 1192.747432840166 433.0109440057067 L1207.2761802570956 429.28059569823387"/>
      <path d="M 1185.91204135511 409.48337219377055 L1200.1778890995372 404.84811727814633"/>
      <path d="M 1177.612829496418 386.4314244529756 L1191.5594767847417 380.9095561627054"/>
      <path d="M 1167.8825504617475 363.9460762896216 L1181.4549562487377 357.5593869161455"/>
      <path d="M 1156.7596052171068 342.11606710033095 L1169.9042054177648 334.8897619888052"/>
      <path d="M 1144.2878909457859 321.02754995819123 L1156.952809828316 312.9901480335063"/>
      <path d="M 1130.5166278062295 300.7637516059355 L1142.6518827218538 291.9469728215484"/>
      <path d="M 1115.5001646825579 281.404643998011 L1127.0578633241946 271.84328415178067"/>
      <path d="M 1099.2977646943505 263.0266286878114 L1110.2322941056716 252.75842209888108"/>
      <path d="M 1081.9733713121886 245.7022353056496 L1092.241577901119 234.76770589432843"/>
      <path d="M 1063.595356001989 229.49983531744226 L1073.1567158482194 217.94213667580541"/>
      <path d="M 1044.2362483940647 214.48337219377055 L1053.0530271784517 202.34811727814633"/>
      <path d="M 1023.9724500418088 200.71210905421418 L1032.0098519664937 188.04719017168395"/>
      <path d="M 1002.883932899669 188.2403947828933 L1010.1102380111948 175.09579458223536"/>
      <path d="M 981.0539237103784 177.11744953825246 L987.4406130838545 163.54504375126217"/>
      <path d="M 958.5685755470245 167.38717050358196 L964.0904438372946 153.4405232152582"/>
      <path d="M 935.5166278062295 159.08795864489014 L940.1518827218537 144.82211090046283"/>
      <path d="M 911.9890559942934 152.25256715983386 L915.7194043017662 137.7238197429044"/>
      <path d="M 888.0787126884328 146.90797221581147 L890.8894324072187 132.17366345488114"/>
      <path d="M 863.8799610900787 143.07526648735364 L865.7599595935433 128.19354596763648"/>
      <path d="M 839.4883026164323 140.76957591297412 L840.430160409372 125.79917498655004"/>
      <path d="M 815.0 140.0 L815.0 125.0"/>
      <path d="M 790.5116973835678 140.76957591297412 L789.5698395906281 125.79917498655004"/>
      <path d="M 766.1200389099213 143.07526648735364 L764.2400404064567 128.19354596763648"/>
      <path d="M 741.9212873115673 146.90797221581147 L739.1105675927814 132.17366345488114"/>
      <path d="M 718.0109440057065 152.25256715983386 L714.2805956982337 137.7238197429044"/>
      <path d="M 694.4833721937704 159.08795864489014 L689.8481172781462 144.82211090046283"/>
      <path d="M 671.4314244529754 167.387170503582 L665.9095561627053 153.44052321525825"/>
      <path d="M 648.9460762896218 177.11744953825234 L642.5593869161457 163.54504375126206"/>
      <path d="M 627.1160671003312 188.24039478289313 L619.8897619888055 175.0957945822352"/>
      <path d="M 606.0275499581915 200.71210905421407 L597.9901480335066 188.04719017168384"/>
      <path d="M 585.7637516059356 214.4833721937705 L576.9469728215485 202.34811727814628"/>
      <path d="M 566.404643998011 229.4998353174422 L556.8432841517806 217.94213667580536"/>
      <path d="M 548.0266286878114 245.70223530564948 L537.758422098881 234.76770589432832"/>
      <path d="M 530.7022353056495 263.0266286878113 L519.7677058943284 252.75842209888097"/>
      <path d="M 514.4998353174421 281.4046439980111 L502.94213667580533 271.8432841517808"/>
      <path d="M 499.48337219377055 300.76375160593545 L487.34811727814633 291.94697282154834"/>
      <path d="M 485.712109054214 321.02754995819146 L473.0471901716838 312.9901480335065"/>
      <path d="M 473.2403947828932 342.11606710033107 L460.0957945822352 334.88976198880533"/>
      <path d="M 462.1174495382523 363.94607628962183 L448.54504375126197 357.55938691614574"/>
      <path d="M 452.38717050358207 386.43142445297536 L438.4405232152583 380.9095561627052"/>
      <path d="M 444.08795864489014 409.48337219377044 L429.82211090046286 404.8481172781462"/>
      <path d="M 437.2525671598339 433.01094400570645 L422.7238197429044 429.28059569823364"/>
      <path d="M 431.9079722158114 456.9212873115674 L417.1736634548811 454.11056759278154"/>
      <path d="M 428.07526648735364 481.1200389099212 L413.19354596763645 479.24004040645667"/>
      <path d="M 425.7695759129741 505.5116973835678 L410.79917498655004 504.56983959062813"/>
      <path d="M 425.0 529.9999999999999 L410.0 529.9999999999999"/>
      <path d="M 425.7695759129741 554.488302616432 L410.79917498655004 555.4301604093716"/>
      <path d="M 428.07526648735364 578.8799610900786 L413.19354596763645 580.7599595935432"/>
      <path d="M 431.9079722158114 603.0787126884325 L417.1736634548811 605.8894324072184"/>
      <path d="M 437.25256715983386 626.9890559942934 L422.72381974290437 630.7194043017662"/>
      <path d="M 444.0879586448901 650.5166278062294 L429.8221109004628 655.1518827218536"/>
      <path d="M 452.387170503582 673.5685755470245 L438.4405232152582 679.0904438372946"/>
      <path d="M 462.11744953825223 696.0539237103781 L448.5450437512619 702.4406130838541"/>
      <path d="M 473.24039478289313 717.8839328996688 L460.09579458223516 725.1102380111945"/>
      <path d="M 485.71210905421395 738.9724500418084 L473.0471901716837 747.0098519664933"/>
      <path d="M 499.48337219377044 759.2362483940644 L487.3481172781462 768.0530271784515"/>
      <path d="M 514.499835317442 778.5953560019889 L502.9421366758052 788.1567158482192"/>
      <path d="M 530.7022353056495 796.9733713121885 L519.7677058943284 807.2415779011188"/>
      <path d="M 548.0266286878114 814.2977646943505 L537.758422098881 825.2322941056716"/>
      <path d="M 566.404643998011 830.5001646825579 L556.8432841517807 842.0578633241947"/>
      <path d="M 585.7637516059353 845.5166278062295 L576.9469728215482 857.6518827218537"/>
      <path d="M 606.0275499581915 859.287890945786 L597.9901480335066 871.9528098283163"/>
      <path d="M 627.1160671003311 871.7596052171068 L619.8897619888054 884.9042054177647"/>
      <path d="M 648.9460762896218 882.8825504617477 L642.5593869161457 896.454956248738"/>
      <path d="M 671.4314244529753 892.6128294964179 L665.9095561627051 906.5594767847417"/>
      <path d="M 694.4833721937704 900.9120413551099 L689.8481172781462 915.1778890995372"/>
      <path d="M 718.0109440057064 907.7474328401661 L714.2805956982336 922.2761802570956"/>
      <path d="M 741.9212873115673 913.0920277841885 L739.1105675927814 927.8263365451188"/>
      <path d="M 766.1200389099212 916.9247335126463 L764.2400404064566 931.8064540323635"/>
      <path d="M 790.5116973835678 919.2304240870259 L789.5698395906281 934.20082501345"/>
    </g>
    <g stroke="red">
    </g>
  </g>
</svg>
