<svg version="1.1" width="1630" height="1060" xmlns="http://www.w3.org/2000/svg">
  <!-- Seed: 3177875144149716905 -->
  <g stroke="black" fill="none">
    <g stroke="blue">
      <circle cx="815.0" cy="530.0" r="380.0"/>
      <circle cx="815.0" cy="530.0" r="390.0"/>
      <circle cx="1215.0" cy="530.0" r="5"/>
      <circle cx="1214.2106913713087" cy="555.1162078117253" r="5"/>
      <circle cx="1211.845880525791" cy="580.1332934257217" r="5"/>
      <circle cx="1207.9149002914755" cy="604.9525258342899" r="5"/>
      <circle cx="1202.4332644514525" cy="629.475954865942" r="5"/>
      <circle cx="1195.4226065180615" cy="653.6067977499789" r="5"/>
      <circle cx="1186.9105943553006" cy="677.2498210738712" r="5"/>
      <circle cx="1176.9308209864078" cy="700.3117166260291" r="5"/>
      <circle cx="1165.5226720175456" cy="722.7014696406861" r="5"/>
      <circle cx="1152.731170200806" cy="744.3307179915987" r="5"/>
      <circle cx="1138.606797749979" cy="765.1141009169893" r="5"/>
      <circle cx="1123.2052971103158" cy="784.9695958994758" r="5"/>
      <circle cx="1106.5874509685646" cy="803.8188423714755" r="5"/>
      <circle cx="1088.8188423714755" cy="821.5874509685646" r="5"/>
      <circle cx="1069.9695958994757" cy="838.2052971103158" r="5"/>
      <circle cx="1050.1141009169892" cy="853.606797749979" r="5"/>
      <circle cx="1029.3307179915987" cy="867.731170200806" r="5"/>
      <circle cx="1007.7014696406861" cy="880.5226720175455" r="5"/>
      <circle cx="985.311716626029" cy="891.9308209864078" r="5"/>
      <circle cx="962.2498210738712" cy="901.9105943553005" r="5"/>
      <circle cx="938.606797749979" cy="910.4226065180615" r="5"/>
      <circle cx="914.475954865942" cy="917.4332644514525" r="5"/>
      <circle cx="889.9525258342899" cy="922.9149002914754" r="5"/>
      <circle cx="865.1332934257217" cy="926.8458805257911" r="5"/>
      <circle cx="840.1162078117254" cy="929.2106913713086" r="5"/>
      <circle cx="815.0" cy="930.0" r="5"/>
      <circle cx="789.8837921882746" cy="929.2106913713086" r="5"/>
      <circle cx="764.8667065742783" cy="926.8458805257911" r="5"/>
      <circle cx="740.0474741657101" cy="922.9149002914754" r="5"/>
      <circle cx="715.5240451340582" cy="917.4332644514525" r="5"/>
      <circle cx="691.3932022500211" cy="910.4226065180615" r="5"/>
      <circle cx="667.7501789261288" cy="901.9105943553005" r="5"/>
      <circle cx="644.6882833739709" cy="891.9308209864078" r="5"/>
      <circle cx="622.2985303593139" cy="880.5226720175453" r="5"/>
      <circle cx="600.6692820084013" cy="867.731170200806" r="5"/>
      <circle cx="579.8858990830108" cy="853.606797749979" r="5"/>
      <circle cx="560.030404100524" cy="838.2052971103158" r="5"/>
      <circle cx="541.1811576285245" cy="821.5874509685646" r="5"/>
      <circle cx="523.4125490314354" cy="803.8188423714755" r="5"/>
      <circle cx="506.79470288968434" cy="784.969595899476" r="5"/>
      <circle cx="491.3932022500211" cy="765.1141009169893" r="5"/>
      <circle cx="477.26882979919407" cy="744.3307179915988" r="5"/>
      <circle cx="464.47732798245465" cy="722.7014696406862" r="5"/>
      <circle cx="453.06917901359225" cy="700.3117166260291" r="5"/>
      <circle cx="443.08940564469947" cy="677.2498210738713" r="5"/>
      <circle cx="434.5773934819386" cy="653.606797749979" r="5"/>
      <circle cx="427.56673554854757" cy="629.475954865942" r="5"/>
      <circle cx="422.0850997085246" cy="604.95252583429" r="5"/>
      <circle cx="418.15411947420887" cy="580.1332934257218" r="5"/>
      <circle cx="415.7893086286914" cy="555.1162078117254" r="5"/>
      <circle cx="415.0" cy="530.0" r="5"/>
      <circle cx="415.7893086286914" cy="504.88379218827464" r="5"/>
      <circle cx="418.15411947420887" cy="479.8667065742783" r="5"/>
      <circle cx="422.0850997085246" cy="455.0474741657101" r="5"/>
      <circle cx="427.56673554854757" cy="430.524045134058" r="5"/>
      <circle cx="434.5773934819386" cy="406.3932022500209" r="5"/>
      <circle cx="443.0894056446995" cy="382.7501789261287" r="5"/>
      <circle cx="453.06917901359213" cy="359.6882833739711" r="5"/>
      <circle cx="464.47732798245454" cy="337.298530359314" r="5"/>
      <circle cx="477.26882979919395" cy="315.6692820084014" r="5"/>
      <circle cx="491.39320225002103" cy="294.8858990830108" r="5"/>
      <circle cx="506.7947028896843" cy="275.03040410052415" r="5"/>
      <circle cx="523.4125490314354" cy="256.1811576285245" r="5"/>
      <circle cx="541.1811576285245" cy="238.41254903143545" r="5"/>
      <circle cx="560.0304041005242" cy="221.79470288968423" r="5"/>
      <circle cx="579.8858990830107" cy="206.3932022500211" r="5"/>
      <circle cx="600.6692820084015" cy="192.2688297991939" r="5"/>
      <circle cx="622.2985303593139" cy="179.47732798245454" r="5"/>
      <circle cx="644.6882833739711" cy="168.06917901359208" r="5"/>
      <circle cx="667.7501789261286" cy="158.08940564469953" r="5"/>
      <circle cx="691.393202250021" cy="149.5773934819386" r="5"/>
      <circle cx="715.5240451340579" cy="142.56673554854763" r="5"/>
      <circle cx="740.0474741657101" cy="137.08509970852452" r="5"/>
      <circle cx="764.8667065742782" cy="133.15411947420887" r="5"/>
      <circle cx="789.8837921882747" cy="130.7893086286914" r="5"/>
      <circle cx="814.9999999999999" cy="130.0" r="5"/>
      <circle cx="840.1162078117252" cy="130.7893086286914" r="5"/>
      <circle cx="865.1332934257217" cy="133.15411947420887" r="5"/>
      <circle cx="889.9525258342896" cy="137.08509970852452" r="5"/>
      <circle cx="914.475954865942" cy="142.56673554854757" r="5"/>
      <circle cx="938.6067977499789" cy="149.57739348193854" r="5"/>
      <circle cx="962.2498210738713" cy="158.08940564469953" r="5"/>
      <circle cx="985.3117166260288" cy="168.06917901359202" r="5"/>
      <circle cx="1007.701469640686" cy="179.47732798245448" r="5"/>
      <circle cx="1029.3307179915985" cy="192.26882979919378" r="5"/>
      <circle cx="1050.1141009169892" cy="206.39320225002098" r="5"/>
      <circle cx="1069.9695958994757" cy="221.79470288968417" r="5"/>
      <circle cx="1088.8188423714755" cy="238.4125490314354" r="5"/>
      <circle cx="1106.5874509685646" cy="256.18115762852443" r="5"/>
      <circle cx="1123.2052971103158" cy="275.03040410052415" r="5"/>
      <circle cx="1138.6067977499788" cy="294.88589908301066" r="5"/>
      <circle cx="1152.731170200806" cy="315.66928200840147" r="5"/>
      <circle cx="1165.5226720175456" cy="337.2985303593139" r="5"/>
      <circle cx="1176.930820986408" cy="359.6882833739711" r="5"/>
      <circle cx="1186.9105943553004" cy="382.7501789261285" r="5"/>
      <circle cx="1195.4226065180615" cy="406.3932022500209" r="5"/>
      <circle cx="1202.4332644514525" cy="430.52404513405787" r="5"/>
      <circle cx="1207.9149002914755" cy="455.0474741657101" r="5"/>
      <circle cx="1211.845880525791" cy="479.86670657427817" r="5"/>
      <circle cx="1214.2106913713087" cy="504.8837921882747" r="5"/>
    </g>
    <g stroke="red">
    </g>
  </g>
</svg>
