<svg version="1.1" width="1630" height="1060" xmlns="http://www.w3.org/2000/svg">
  <!-- Seed: 5528374922242242177 -->
  <g stroke="black" fill="none">
    <g stroke="blue">
      <path d="M 815.0 910.0 L815.0 925.0"/>
      <path d="M 838.860397421139 909.2501568027433 L839.8022552140787 924.2205577291674"/>
      <path d="M 862.6266287544356 907.0035864995016 L864.5066272579002 921.8853070192188"/>
      <path d="M 886.2048995425754 903.2691552769018 L889.0156192613613 918.003464037832"/>
      <path d="M 909.5021571226448 898.0616012288798 L913.2325054301176 912.5903486458093"/>
      <path d="M 932.42645786248 891.4014761921583 L937.0617127781042 905.6673239365856"/>
      <path d="M 954.8873300201776 883.3150646375356 L960.4091983104478 897.2617119258593"/>
      <path d="M 976.7961307947277 873.8342799370873 L983.1828201682038 887.4066857240776"/>
      <path d="M 998.0663961586519 862.9965384166682 L1005.2927012701775 876.1411386173261"/>
      <path d="M 1018.6141820920187 850.8446116907658 L1026.6515840167037 863.5095305732959"/>
      <path d="M 1038.3583958711397 837.42645786248 L1047.1751746555267 849.5617127781042"/>
      <path d="M 1057.221116104502 822.7950322547999 L1066.7824759507323 834.3527308964368"/>
      <path d="M 1075.1279002529018 807.0080784201364 L1085.396106841832 817.9426078314575"/>
      <path d="M 1092.0080784201364 790.1279002529017 L1102.9426078314575 800.396106841832"/>
      <path d="M 1107.7950322548 772.221116104502 L1119.3527308964367 781.7824759507323"/>
      <path d="M 1122.42645786248 753.3583958711398 L1134.5617127781043 762.1751746555269"/>
      <path d="M 1135.8446116907658 733.6141820920187 L1148.509530573296 741.6515840167036"/>
      <path d="M 1147.9965384166683 713.0663961586517 L1161.1411386173263 720.2927012701774"/>
      <path d="M 1158.8342799370876 691.7961307947276 L1172.4066857240778 698.1828201682036"/>
      <path d="M 1168.3150646375354 669.8873300201776 L1182.2617119258591 675.4091983104478"/>
      <path d="M 1176.4014761921583 647.42645786248 L1190.6673239365855 652.0617127781042"/>
      <path d="M 1183.0616012288797 624.5021571226449 L1197.5903486458092 628.2325054301177"/>
      <path d="M 1188.2691552769018 601.2048995425754 L1203.0034640378321 604.0156192613613"/>
      <path d="M 1192.0035864995016 577.6266287544356 L1206.8853070192188 579.5066272579002"/>
      <path d="M 1194.2501568027433 553.8603974211392 L1209.2205577291672 554.8022552140789"/>
      <path d="M 1195.0 530.0 L1210.0 530.0"/>
      <path d="M 1194.2501568027433 506.1396025788609 L1209.2205577291672 505.1977447859212"/>
      <path d="M 1192.0035864995016 482.37337124556433 L1206.8853070192188 480.4933727420998"/>
      <path d="M 1188.2691552769018 458.79510045742455 L1203.0034640378321 455.98438073863866"/>
      <path d="M 1183.06160122888 435.49784287735525 L1197.5903486458094 431.76749456988244"/>
      <path d="M 1176.4014761921585 412.57354213752 L1190.6673239365857 407.9382872218958"/>
      <path d="M 1168.3150646375354 390.1126699798224 L1182.2617119258591 384.5908016895522"/>
      <path d="M 1158.8342799370873 368.2038692052723 L1172.4066857240775 361.81717983179624"/>
      <path d="M 1147.996538416668 346.93360384134814 L1161.141138617326 339.7072987298224"/>
      <path d="M 1135.8446116907658 326.38581790798116 L1148.509530573296 318.3484159832962"/>
      <path d="M 1122.42645786248 306.64160412886025 L1134.5617127781043 297.82482534447314"/>
      <path d="M 1107.7950322548 287.77888389549787 L1119.3527308964367 278.2175240492675"/>
      <path d="M 1092.0080784201364 269.8720997470983 L1102.9426078314575 259.6038931581679"/>
      <path d="M 1075.1279002529018 252.99192157986369 L1085.396106841832 242.05739216854252"/>
      <path d="M 1057.2211161045022 237.20496774520012 L1066.7824759507325 225.64726910356327"/>
      <path d="M 1038.35839587114 222.57354213752 L1047.175174655527 210.4382872218958"/>
      <path d="M 1018.6141820920188 209.15538830923435 L1026.6515840167037 196.49046942670412"/>
      <path d="M 998.066396158652 197.0034615833319 L1005.2927012701778 183.85886138267395"/>
      <path d="M 976.7961307947277 186.16572006291267 L983.1828201682038 172.59331427592238"/>
      <path d="M 954.8873300201777 176.6849353624645 L960.4091983104479 162.73828807414074"/>
      <path d="M 932.42645786248 168.59852380784167 L937.0617127781042 154.33267606341437"/>
      <path d="M 909.5021571226448 161.9383987711202 L913.2325054301176 147.40965135419074"/>
      <path d="M 886.2048995425755 156.7308447230983 L889.0156192613614 141.99653596216797"/>
      <path d="M 862.6266287544357 152.99641350049848 L864.5066272579003 138.1146929807813"/>
      <path d="M 838.8603974211392 150.74984319725678 L839.8022552140789 135.7794422708327"/>
      <path d="M 815.0 150.0 L815.0 135.0"/>
      <path d="M 791.139602578861 150.74984319725678 L790.1977447859213 135.7794422708327"/>
      <path d="M 767.3733712455644 152.99641350049842 L765.4933727420998 138.11469298078126"/>
      <path d="M 743.7951004574246 156.7308447230983 L740.9843807386387 141.99653596216797"/>
      <path d="M 720.4978428773551 161.9383987711202 L716.7674945698823 147.40965135419074"/>
      <path d="M 697.5735421375199 168.59852380784167 L692.9382872218957 154.33267606341437"/>
      <path d="M 675.1126699798223 176.68493536246456 L669.5908016895521 162.7382880741408"/>
      <path d="M 653.2038692052726 186.1657200629125 L646.8171798317965 172.5933142759222"/>
      <path d="M 631.9336038413483 197.00346158333178 L624.7072987298226 183.85886138267384"/>
      <path d="M 611.3858179079814 209.15538830923424 L603.3484159832965 196.490469426704"/>
      <path d="M 591.6416041288603 222.57354213751995 L582.8248253444732 210.43828722189573"/>
      <path d="M 572.778883895498 237.20496774520007 L563.2175240492677 225.64726910356322"/>
      <path d="M 554.8720997470982 252.99192157986363 L544.6038931581679 242.05739216854246"/>
      <path d="M 537.9919215798636 269.8720997470982 L527.0573921685425 259.60389315816786"/>
      <path d="M 522.2049677452001 287.778883895498 L510.64726910356325 278.21752404926764"/>
      <path d="M 507.57354213752 306.6416041288602 L495.4382872218958 297.8248253444731"/>
      <path d="M 494.1553883092342 326.3858179079814 L481.49046942670395 318.34841598329643"/>
      <path d="M 482.00346158333184 346.9336038413482 L468.85886138267387 339.70729872982247"/>
      <path d="M 471.1657200629125 368.20386920527255 L457.5933142759222 361.81717983179647"/>
      <path d="M 461.68493536246456 390.11266997982216 L447.73828807414077 384.590801689552"/>
      <path d="M 453.5985238078417 412.5735421375199 L439.3326760634144 407.9382872218957"/>
      <path d="M 446.9383987711202 435.49784287735497 L432.4096513541907 431.76749456988216"/>
      <path d="M 441.7308447230983 458.7951004574246 L426.99653596216797 455.9843807386387"/>
      <path d="M 437.9964135004985 482.3733712455643 L423.1146929807813 480.4933727420997"/>
      <path d="M 435.7498431972568 506.139602578861 L420.7794422708327 505.1977447859213"/>
      <path d="M 435.0 529.9999999999999 L420.0 529.9999999999999"/>
      <path d="M 435.7498431972568 553.8603974211388 L420.7794422708327 554.8022552140785"/>
      <path d="M 437.9964135004984 577.6266287544356 L423.11469298078123 579.5066272579002"/>
      <path d="M 441.7308447230983 601.2048995425753 L426.99653596216797 604.0156192613612"/>
      <path d="M 446.9383987711202 624.5021571226449 L432.4096513541907 628.2325054301177"/>
      <path d="M 453.5985238078416 647.42645786248 L439.33267606341434 652.0617127781042"/>
      <path d="M 461.68493536246456 669.8873300201777 L447.73828807414077 675.4091983104479"/>
      <path d="M 471.16572006291244 691.7961307947273 L457.5933142759221 698.1828201682034"/>
      <path d="M 482.0034615833317 713.0663961586517 L468.85886138267375 720.2927012701774"/>
      <path d="M 494.1553883092341 733.6141820920185 L481.4904694267039 741.6515840167034"/>
      <path d="M 507.57354213751995 753.3583958711397 L495.43828722189573 762.1751746555268"/>
      <path d="M 522.2049677452 772.2211161045019 L510.64726910356313 781.7824759507322"/>
      <path d="M 537.9919215798636 790.1279002529017 L527.0573921685425 800.396106841832"/>
      <path d="M 554.8720997470982 807.0080784201364 L544.6038931581679 817.9426078314575"/>
      <path d="M 572.778883895498 822.7950322547999 L563.2175240492677 834.3527308964368"/>
      <path d="M 591.6416041288601 837.42645786248 L582.824825344473 849.5617127781042"/>
      <path d="M 611.3858179079814 850.8446116907658 L603.3484159832965 863.5095305732959"/>
      <path d="M 631.9336038413481 862.9965384166682 L624.7072987298225 876.1411386173261"/>
      <path d="M 653.2038692052726 873.8342799370876 L646.8171798317965 887.4066857240779"/>
      <path d="M 675.1126699798222 883.3150646375354 L669.590801689552 897.2617119258592"/>
      <path d="M 697.5735421375199 891.4014761921583 L692.9382872218957 905.6673239365856"/>
      <path d="M 720.497842877355 898.0616012288798 L716.7674945698822 912.5903486458093"/>
      <path d="M 743.7951004574246 903.2691552769018 L740.9843807386387 918.003464037832"/>
      <path d="M 767.3733712455643 907.0035864995016 L765.4933727420997 921.8853070192188"/>
      <path d="M 791.139602578861 909.2501568027433 L790.1977447859213 924.2205577291674"/>
    </g>
    <g stroke="red">
    </g>
  </g>
</svg>
