<svg version="1.1" width="1630" height="1060" xmlns="http://www.w3.org/2000/svg">
  <!-- Seed: 7223643726442924093 -->
  <g stroke="black" fill="none">
    <g stroke="blue">
      <circle cx="815.0" cy="530.0" r="380.0"/>
      <circle cx="1205.0" cy="530.0" r="5"/>
      <circle cx="1204.2304240870258" cy="554.4883026164322" r="5"/>
      <circle cx="1201.9247335126463" cy="578.8799610900786" r="5"/>
      <circle cx="1198.0920277841885" cy="603.0787126884326" r="5"/>
      <circle cx="1192.747432840166" cy="626.9890559942934" r="5"/>
      <circle cx="1185.91204135511" cy="650.5166278062295" r="5"/>
      <circle cx="1177.612829496418" cy="673.5685755470244" r="5"/>
      <circle cx="1167.8825504617475" cy="696.0539237103784" r="5"/>
      <circle cx="1156.7596052171068" cy="717.8839328996689" r="5"/>
      <circle cx="1144.2878909457859" cy="738.9724500418087" r="5"/>
      <circle cx="1130.5166278062295" cy="759.2362483940645" r="5"/>
      <circle cx="1115.5001646825579" cy="778.595356001989" r="5"/>
      <circle cx="1099.2977646943505" cy="796.9733713121885" r="5"/>
      <circle cx="1081.9733713121886" cy="814.2977646943505" r="5"/>
      <circle cx="1063.5953560019889" cy="830.5001646825579" r="5"/>
      <circle cx="1044.2362483940644" cy="845.5166278062295" r="5"/>
      <circle cx="1023.9724500418087" cy="859.2878909457859" r="5"/>
      <circle cx="1002.8839328996689" cy="871.7596052171068" r="5"/>
      <circle cx="981.0539237103783" cy="882.8825504617477" r="5"/>
      <circle cx="958.5685755470245" cy="892.612829496418" r="5"/>
      <circle cx="935.5166278062295" cy="900.9120413551099" r="5"/>
      <circle cx="911.9890559942935" cy="907.7474328401661" r="5"/>
      <circle cx="888.0787126884327" cy="913.0920277841885" r="5"/>
      <circle cx="863.8799610900786" cy="916.9247335126463" r="5"/>
      <circle cx="839.4883026164323" cy="919.2304240870259" r="5"/>
      <circle cx="815.0" cy="920.0" r="5"/>
      <circle cx="790.5116973835678" cy="919.2304240870259" r="5"/>
      <circle cx="766.1200389099213" cy="916.9247335126463" r="5"/>
      <circle cx="741.9212873115673" cy="913.0920277841885" r="5"/>
      <circle cx="718.0109440057067" cy="907.7474328401661" r="5"/>
      <circle cx="694.4833721937705" cy="900.91204135511" r="5"/>
      <circle cx="671.4314244529755" cy="892.612829496418" r="5"/>
      <circle cx="648.9460762896216" cy="882.8825504617475" r="5"/>
      <circle cx="627.116067100331" cy="871.7596052171068" r="5"/>
      <circle cx="606.0275499581912" cy="859.2878909457859" r="5"/>
      <circle cx="585.7637516059356" cy="845.5166278062295" r="5"/>
      <circle cx="566.404643998011" cy="830.5001646825579" r="5"/>
      <circle cx="548.0266286878114" cy="814.2977646943505" r="5"/>
      <circle cx="530.7022353056495" cy="796.9733713121886" r="5"/>
      <circle cx="514.4998353174423" cy="778.5953560019891" r="5"/>
      <circle cx="499.48337219377055" cy="759.2362483940645" r="5"/>
      <circle cx="485.7121090542142" cy="738.9724500418088" r="5"/>
      <circle cx="473.2403947828933" cy="717.883932899669" r="5"/>
      <circle cx="462.11744953825246" cy="696.0539237103784" r="5"/>
      <circle cx="452.38717050358196" cy="673.5685755470245" r="5"/>
      <circle cx="444.08795864489014" cy="650.5166278062295" r="5"/>
      <circle cx="437.25256715983386" cy="626.9890559942934" r="5"/>
      <circle cx="431.90797221581147" cy="603.0787126884328" r="5"/>
      <circle cx="428.07526648735364" cy="578.8799610900787" r="5"/>
      <circle cx="425.7695759129741" cy="554.4883026164323" r="5"/>
      <circle cx="425.0" cy="530.0" r="5"/>
      <circle cx="425.7695759129741" cy="505.5116973835678" r="5"/>
      <circle cx="428.07526648735364" cy="481.12003890992133" r="5"/>
      <circle cx="431.90797221581147" cy="456.9212873115673" r="5"/>
      <circle cx="437.25256715983386" cy="433.01094400570656" r="5"/>
      <circle cx="444.08795864489014" cy="409.4833721937704" r="5"/>
      <circle cx="452.387170503582" cy="386.4314244529754" r="5"/>
      <circle cx="462.11744953825234" cy="363.94607628962183" r="5"/>
      <circle cx="473.24039478289313" cy="342.1160671003312" r="5"/>
      <circle cx="485.71210905421407" cy="321.0275499581914" r="5"/>
      <circle cx="499.4833721937705" cy="300.7637516059355" r="5"/>
      <circle cx="514.4998353174421" cy="281.404643998011" r="5"/>
      <circle cx="530.7022353056495" cy="263.0266286878114" r="5"/>
      <circle cx="548.0266286878114" cy="245.7022353056496" r="5"/>
      <circle cx="566.4046439980111" cy="229.49983531744215" r="5"/>
      <circle cx="585.7637516059355" cy="214.48337219377055" r="5"/>
      <circle cx="606.0275499581915" cy="200.712109054214" r="5"/>
      <circle cx="627.1160671003311" cy="188.2403947828932" r="5"/>
      <circle cx="648.9460762896218" cy="177.1174495382523" r="5"/>
      <circle cx="671.4314244529753" cy="167.38717050358207" r="5"/>
      <circle cx="694.4833721937705" cy="159.08795864489014" r="5"/>
      <circle cx="718.0109440057064" cy="152.25256715983392" r="5"/>
      <circle cx="741.9212873115674" cy="146.9079722158114" r="5"/>
      <circle cx="766.1200389099212" cy="143.07526648735364" r="5"/>
      <circle cx="790.5116973835678" cy="140.76957591297412" r="5"/>
      <circle cx="814.9999999999999" cy="140.0" r="5"/>
      <circle cx="839.488302616432" cy="140.76957591297412" r="5"/>
      <circle cx="863.8799610900786" cy="143.07526648735364" r="5"/>
      <circle cx="888.0787126884325" cy="146.9079722158114" r="5"/>
      <circle cx="911.9890559942934" cy="152.25256715983386" r="5"/>
      <circle cx="935.5166278062294" cy="159.08795864489008" r="5"/>
      <circle cx="958.5685755470245" cy="167.387170503582" r="5"/>
      <circle cx="981.0539237103781" cy="177.11744953825223" r="5"/>
      <circle cx="1002.8839328996688" cy="188.24039478289313" r="5"/>
      <circle cx="1023.9724500418084" cy="200.71210905421395" r="5"/>
      <circle cx="1044.2362483940644" cy="214.48337219377044" r="5"/>
      <circle cx="1063.5953560019889" cy="229.49983531744203" r="5"/>
      <circle cx="1081.9733713121886" cy="245.70223530564948" r="5"/>
      <circle cx="1099.2977646943505" cy="263.0266286878113" r="5"/>
      <circle cx="1115.5001646825579" cy="281.404643998011" r="5"/>
      <circle cx="1130.5166278062295" cy="300.7637516059354" r="5"/>
      <circle cx="1144.2878909457859" cy="321.02754995819146" r="5"/>
      <circle cx="1156.7596052171068" cy="342.11606710033107" r="5"/>
      <circle cx="1167.8825504617475" cy="363.94607628962183" r="5"/>
      <circle cx="1177.6128294964178" cy="386.4314244529753" r="5"/>
      <circle cx="1185.91204135511" cy="409.4833721937704" r="5"/>
      <circle cx="1192.747432840166" cy="433.0109440057064" r="5"/>
      <circle cx="1198.0920277841885" cy="456.92128731156737" r="5"/>
      <circle cx="1201.9247335126463" cy="481.12003890992116" r="5"/>
      <circle cx="1204.2304240870258" cy="505.5116973835678" r="5"/>
    </g>
    <g stroke="red">
    </g>
  </g>
</svg>
