<svg version="1.1" width="1150" height="870" xmlns="http://www.w3.org/2000/svg">
  <!-- Seed: 1549232824620374358 -->
  <g stroke="black" fill="none">
    <circle cx="132" cy="550.0" r="1"/>
    <circle cx="134.50518135270852" cy="545.6728685725943" r="11.757690477473163"/>
    <circle cx="137.01036270541704" cy="541.3457371451888" r="25.514297204433973"/>
    <circle cx="137.5" cy="540.5" r="26"/>
    <circle cx="140.26133333333337" cy="537.2780000000001" r="25.809016994374947"/>
    <circle cx="144.14533333333333" cy="535.212" r="25.309016994374947"/>
    <circle cx="149.152" cy="534.302" r="24.690983005625053"/>
    <circle cx="155.28133333333335" cy="534.548" r="24.190983005625053"/>
    <circle cx="162.53333333333333" cy="535.95" r="24"/>
    <circle cx="172.05555555555557" cy="539.9722222222223" r="20.5"/>
    <circle cx="174.57777777777778" cy="545.4388888888889" r="13.500000000000002"/>
    <circle cx="170.1" cy="552.3499999999999" r="10"/>
    <circle cx="167.26258503401363" cy="555.8051020408162" r="10.693217924683067"/>
    <circle cx="165.58843537414967" cy="559.6275510204081" r="12.635571386988865"/>
    <circle cx="165.07755102040812" cy="563.8173469387754" r="15.4423534623058"/>
    <circle cx="165.7299319727891" cy="568.3744897959184" r="18.5576465376942"/>
    <circle cx="167.54557823129252" cy="573.2989795918368" r="21.364428613011135"/>
    <circle cx="170.52448979591836" cy="578.5908163265306" r="23.30678207531693"/>
    <circle cx="174.66666666666666" cy="584.25" r="24"/>
    <circle cx="178.40246913580245" cy="588.5537037037036" r="24.180922137642273"/>
    <circle cx="182.2617283950617" cy="592.3759259259259" r="24.701866670643067"/>
    <circle cx="186.24444444444447" cy="595.7166666666667" r="25.5"/>
    <circle cx="190.3506172839506" cy="598.5759259259258" r="26.47905546699921"/>
    <circle cx="194.58024691358025" cy="600.9537037037036" r="27.52094453300079"/>
    <circle cx="198.93333333333334" cy="602.8499999999999" r="28.5"/>
    <circle cx="203.40987654320986" cy="604.2648148148147" r="29.298133329356933"/>
    <circle cx="208.00987654320988" cy="605.198148148148" r="29.819077862357723"/>
    <circle cx="212.73333333333332" cy="605.6499999999999" r="30"/>
    <circle cx="219.52222222222224" cy="606.2027777777777" r="28.325317547305485"/>
    <circle cx="225.53333333333336" cy="607.2277777777776" r="23.75"/>
    <circle cx="230.76666666666665" cy="608.7249999999999" r="17.5"/>
    <circle cx="235.22222222222223" cy="610.6944444444443" r="11.250000000000004"/>
    <circle cx="238.9" cy="613.1361111111111" r="6.674682452694515"/>
    <circle cx="241.79999999999998" cy="616.05" r="5"/>
    <circle cx="243.97333333333336" cy="620.09" r="7.673762078750736"/>
    <circle cx="244.46666666666664" cy="624.6499999999999" r="14.673762078750736"/>
    <circle cx="243.27999999999997" cy="629.7299999999999" r="23.326237921249266"/>
    <circle cx="240.41333333333336" cy="635.3299999999999" r="30.326237921249266"/>
    <circle cx="235.86666666666665" cy="641.4499999999998" r="33"/>
    <circle cx="232.3361111111111" cy="646.7388888888888" r="31.72724133595217"/>
    <circle cx="230.72222222222223" cy="651.9722222222222" r="28.25"/>
    <circle cx="231.02499999999998" cy="657.1499999999999" r="23.5"/>
    <circle cx="233.2444444444444" cy="662.2722222222221" r="18.75"/>
    <circle cx="237.38055555555553" cy="667.3388888888887" r="15.272758664047831"/>
    <circle cx="243.4333333333333" cy="672.3499999999998" r="14"/>
    <circle cx="252.44999999999996" cy="678.1687499999998" r="13.414213562373096"/>
    <circle cx="258.46666666666664" cy="680.6749999999997" r="12.0"/>
    <circle cx="261.48333333333335" cy="679.8687499999999" r="10.585786437626904"/>
    <circle cx="261.5" cy="675.7499999999998" r="10"/>
    <circle cx="261.51666666666665" cy="671.6937499999998" r="13.514718625761429"/>
    <circle cx="264.5333333333333" cy="671.0749999999998" r="22.0"/>
    <circle cx="270.54999999999995" cy="673.8937499999998" r="30.485281374238568"/>
    <circle cx="279.5666666666666" cy="680.1499999999999" r="34"/>
    <circle cx="284.6921875" cy="683.8874999999998" r="33.80969883127822"/>
    <circle cx="289.55208333333326" cy="687.1249999999998" r="33.26776695296637"/>
    <circle cx="294.14635416666664" cy="689.8624999999997" r="32.456708580912725"/>
    <circle cx="298.47499999999997" cy="692.0999999999998" r="31.5"/>
    <circle cx="302.5380208333333" cy="693.8374999999997" r="30.543291419087275"/>
    <circle cx="306.3354166666667" cy="695.0749999999997" r="29.73223304703363"/>
    <circle cx="309.8671875" cy="695.8124999999998" r="29.19030116872178"/>
    <circle cx="313.1333333333333" cy="696.0499999999997" r="29"/>
    <circle cx="320.20740740740746" cy="696.2999999999998" r="29.75"/>
    <circle cx="324.7185185185185" cy="697.1166666666666" r="31.25"/>
    <circle cx="326.66666666666663" cy="698.4999999999999" r="32"/>
    <circle cx="327.0526041666666" cy="698.4374999999999" r="31.847759065022572"/>
    <circle cx="327.7104166666666" cy="697.0" r="31.414213562373096"/>
    <circle cx="328.6401041666666" cy="694.1875" r="30.76536686473018"/>
    <circle cx="329.84166666666664" cy="690.0" r="30.0"/>
    <circle cx="331.31510416666663" cy="684.4375" r="29.23463313526982"/>
    <circle cx="333.06041666666664" cy="677.5" r="28.585786437626904"/>
    <circle cx="335.0776041666666" cy="669.1875" r="28.152240934977428"/>
    <circle cx="337.3666666666666" cy="659.5" r="28"/>
    <circle cx="338.1600504095778" cy="655.8478260869565" r="27.93014459527248"/>
    <circle cx="338.85324511657217" cy="652.108695652174" r="27.721879655108495"/>
    <circle cx="339.44625078764955" cy="648.2826086956521" r="27.379084761290898"/>
    <circle cx="339.93906742281024" cy="644.3695652173913" r="26.908145534098665"/>
    <circle cx="340.3316950220542" cy="640.3695652173915" r="26.31783468028315"/>
    <circle cx="340.6241335853812" cy="636.282608695652" r="25.619148574139906"/>
    <circle cx="340.81638311279136" cy="632.1086956521739" r="24.825102415861505"/>
    <circle cx="340.90844360428474" cy="627.8478260869565" r="23.950487782983643"/>
    <circle cx="340.9003150598613" cy="623.5000000000001" r="23.011597091282397"/>
    <circle cx="340.79199747952106" cy="619.0652173913044" r="22.025920097894755"/>
    <circle cx="340.583490863264" cy="614.5434782608696" r="21.011818100235033"/>
    <circle cx="340.27479521109007" cy="609.9347826086957" r="19.988181899764967"/>
    <circle cx="339.86591052299934" cy="605.2391304347826" r="18.974079902105245"/>
    <circle cx="339.35683679899176" cy="600.4565217391305" r="17.988402908717603"/>
    <circle cx="338.74757403906733" cy="595.5869565217391" r="17.049512217016357"/>
    <circle cx="338.0381222432261" cy="590.6304347826087" r="16.1748975841385"/>
    <circle cx="337.2284814114681" cy="585.5869565217391" r="15.380851425860097"/>
    <circle cx="336.3186515437933" cy="580.4565217391305" r="14.682165319716852"/>
    <circle cx="335.30863264020155" cy="575.2391304347825" r="14.091854465901335"/>
    <circle cx="334.19842470069307" cy="569.9347826086957" r="13.620915238709104"/>
    <circle cx="332.9880277252677" cy="564.5434782608695" r="13.278120344891507"/>
    <circle cx="331.6774417139256" cy="559.0652173913044" r="13.06985540472752"/>
    <circle cx="330.2666666666666" cy="553.5" r="13"/>
    <circle cx="328.85022054190296" cy="547.9328922495274" r="13.11176864756403"/>
    <circle cx="327.52262129804654" cy="542.4489603024575" r="13.444992551826408"/>
    <circle cx="326.2838689350976" cy="537.0482041587902" r="13.993464381934563"/>
    <circle cx="325.13396345305597" cy="531.7306238185255" r="14.746967145442138"/>
    <circle cx="324.0729048519218" cy="526.4962192816636" r="15.691464511546961"/>
    <circle cx="323.10069313169487" cy="521.3449905482041" r="16.80936228137615"/>
    <circle cx="322.21732829237544" cy="516.2769376181475" r="18.079836134621594"/>
    <circle cx="321.4228103339634" cy="511.2920604914934" r="19.479219547226172"/>
    <circle cx="320.7171392564587" cy="506.39035916824196" r="20.981444653948166"/>
    <circle cx="320.1003150598613" cy="501.57183364839324" r="22.558527843368392"/>
    <circle cx="319.5723377441713" cy="496.8364839319471" r="24.18109103962395"/>
    <circle cx="319.1332073093887" cy="492.1843100189036" r="25.81890896037605"/>
    <circle cx="318.7829237555135" cy="487.61531190926274" r="27.441472156631605"/>
    <circle cx="318.5214870825456" cy="483.1294896030246" r="29.018555346051834"/>
    <circle cx="318.34889729048507" cy="478.72684310018906" r="30.520780452773828"/>
    <circle cx="318.265154379332" cy="474.4073724007562" r="31.920163865378406"/>
    <circle cx="318.27025834908625" cy="470.1710775047259" r="33.19063771862385"/>
    <circle cx="318.3642091997479" cy="466.0179584120983" r="34.30853548845304"/>
    <circle cx="318.54700693131684" cy="461.94801512287336" r="35.25303285455786"/>
    <circle cx="318.81865154379324" cy="457.9612476370511" r="36.006535618065435"/>
    <circle cx="319.17914303717697" cy="454.0576559546314" r="36.55500744817359"/>
    <circle cx="319.6284814114681" cy="450.23724007561435" r="36.888231352435966"/>
    <circle cx="320.1666666666666" cy="446.5" r="37"/>
    <circle cx="320.69461805555545" cy="442.90885416666674" r="36.897338336485724"/>
    <circle cx="321.1618055555554" cy="439.21874999999994" r="36.59110991546882"/>
    <circle cx="321.5682291666666" cy="435.4296875" r="36.08655439013544"/>
    <circle cx="321.9138888888889" cy="431.5416666666667" r="35.392304845413264"/>
    <circle cx="322.1987847222221" cy="427.5546875" r="34.52024008349482"/>
    <circle cx="322.4229166666666" cy="423.46875" r="33.48528137423857"/>
    <circle cx="322.5862847222221" cy="419.28385416666663" r="32.30513714810465"/>
    <circle cx="322.6888888888888" cy="415.00000000000006" r="31.0"/>
    <circle cx="322.73072916666655" cy="410.6171875" r="29.59220118838108"/>
    <circle cx="322.7118055555554" cy="406.13541666666663" r="28.10582854123025"/>
    <circle cx="322.6321180555555" cy="401.55468750000006" r="26.56631430664062"/>
    <circle cx="322.49166666666656" cy="396.875" r="25.0"/>
    <circle cx="322.29045138888875" cy="392.0963541666667" r="23.433685693359383"/>
    <circle cx="322.02847222222215" cy="387.21875" r="21.89417145876975"/>
    <circle cx="321.7057291666666" cy="382.2421875" r="20.407798811618925"/>
    <circle cx="321.32222222222214" cy="377.1666666666667" r="19.000000000000004"/>
    <circle cx="320.8779513888888" cy="371.9921875" r="17.69486285189535"/>
    <circle cx="320.3729166666666" cy="366.71875" r="16.514718625761432"/>
    <circle cx="319.80711805555546" cy="361.34635416666663" r="15.47975991650518"/>
    <circle cx="319.18055555555543" cy="355.875" r="14.607695154586736"/>
    <circle cx="318.49322916666654" cy="350.3046875" r="13.91344560986456"/>
    <circle cx="317.74513888888873" cy="344.63541666666663" r="13.40889008453118"/>
    <circle cx="316.9362847222221" cy="338.8671875" r="13.102661663514276"/>
    <circle cx="316.06666666666655" cy="333.0" r="13"/>
    <circle cx="315.34145858105427" cy="328.115338882283" r="12.99413795715436"/>
    <circle cx="314.6554894966309" cy="323.25445897740786" r="12.976620555710086"/>
    <circle cx="314.0087594133966" cy="318.41736028537457" r="12.947653171182802"/>
    <circle cx="313.4012683313514" cy="313.60404280618303" r="12.907575419670957"/>
    <circle cx="312.83301625049535" cy="308.81450653983353" r="12.856857176167589"/>
    <circle cx="312.3040031708283" cy="304.04875148632584" r="12.796093065705644"/>
    <circle cx="311.8142290923502" cy="299.30677764565985" r="12.72599549192313"/>
    <circle cx="311.36369401506136" cy="294.5885850178359" r="12.647386284781827"/>
    <circle cx="310.9523979389615" cy="289.89417360285375" r="12.561187065362382"/>
    <circle cx="310.5803408640506" cy="285.2235434007134" r="12.46840844069979"/>
    <circle cx="310.24752279032884" cy="280.57669441141496" r="12.370138155339914"/>
    <circle cx="309.9539437177962" cy="275.9536266349584" r="12.267528338529221"/>
    <circle cx="309.69960364645254" cy="271.3543400713436" r="12.161781996552765"/>
    <circle cx="309.4845025762979" cy="266.7788347205707" r="12.054138908585418"/>
    <circle cx="309.3086405073324" cy="262.2271105826397" r="11.945861091414582"/>
    <circle cx="309.17201743955593" cy="257.69916765755056" r="11.838218003447235"/>
    <circle cx="309.07463337296855" cy="253.1950059453032" r="11.732471661470779"/>
    <circle cx="309.0164883075702" cy="248.71462544589772" r="11.629861844660086"/>
    <circle cx="308.99758224336097" cy="244.25802615933412" r="11.53159155930021"/>
    <circle cx="309.0179151803407" cy="239.82520808561236" r="11.438812934637618"/>
    <circle cx="309.07748711850957" cy="235.41617122473247" r="11.352613715218173"/>
    <circle cx="309.1762980578675" cy="231.03091557669438" r="11.27400450807687"/>
    <circle cx="309.31434799841446" cy="226.66944114149823" r="11.203906934294356"/>
    <circle cx="309.49163694015044" cy="222.33174791914388" r="11.143142823832411"/>
    <circle cx="309.70816488307554" cy="218.0178359096314" r="11.092424580329043"/>
    <circle cx="309.9639318271897" cy="213.72770511296076" r="11.052346828817198"/>
    <circle cx="310.2589377724929" cy="209.461355529132" r="11.023379444289914"/>
    <circle cx="310.5931827189852" cy="205.21878715814506" r="11.00586204284564"/>
    <circle cx="310.9666666666665" cy="201.0" r="11"/>
    <circle cx="311.9430555555554" cy="191.2847222222222" r="10.897777478867205"/>
    <circle cx="312.97222222222206" cy="182.47222222222223" r="10.598076211353316"/>
    <circle cx="314.05416666666656" cy="174.5625" r="10.121320343559642"/>
    <circle cx="315.18888888888875" cy="167.5555555555556" r="9.5"/>
    <circle cx="316.3763888888887" cy="161.45138888888886" r="8.776457135307563"/>
    <circle cx="317.6166666666665" cy="156.25" r="8.0"/>
    <circle cx="318.90972222222206" cy="151.95138888888889" r="7.223542864692438"/>
    <circle cx="320.2555555555554" cy="148.55555555555557" r="6.500000000000001"/>
    <circle cx="321.6541666666666" cy="146.0625" r="5.878679656440358"/>
    <circle cx="323.10555555555544" cy="144.47222222222223" r="5.401923788646684"/>
    <circle cx="324.6097222222221" cy="143.78472222222223" r="5.102222521132795"/>
    <circle cx="326.1666666666666" cy="144.0" r="5"/>
    <circle cx="329.85995370370364" cy="146.82291666666666" r="7.4895923599143455"/>
    <circle cx="331.4398148148148" cy="151.29166666666669" r="13.499999999999998"/>
    <circle cx="330.90625" cy="157.40625" r="19.510407640085653"/>
    <circle cx="328.25925925925924" cy="165.16666666666669" r="22"/>
    <circle cx="327.39192708333326" cy="167.46484375000003" r="22.009607359798384"/>
    <circle cx="326.6417824074074" cy="170.06770833333337" r="22.038060233744357"/>
    <circle cx="326.0088252314814" cy="172.97526041666669" r="22.084265193848726"/>
    <circle cx="325.4930555555555" cy="176.1875" r="22.146446609406727"/>
    <circle cx="325.09447337962956" cy="179.70442708333334" r="22.2222148834902"/>
    <circle cx="324.8130787037037" cy="183.52604166666669" r="22.308658283817454"/>
    <circle cx="324.6488715277777" cy="187.65234375" r="22.402454838991936"/>
    <circle cx="324.6018518518518" cy="192.08333333333334" r="22.5"/>
    <circle cx="324.67201967592587" cy="196.81901041666669" r="22.597545161008064"/>
    <circle cx="324.85937499999994" cy="201.859375" r="22.691341716182546"/>
    <circle cx="325.163917824074" cy="207.20442708333334" r="22.7777851165098"/>
    <circle cx="325.58564814814804" cy="212.85416666666669" r="22.853553390593273"/>
    <circle cx="326.1245659722221" cy="218.80859375" r="22.915734806151274"/>
    <circle cx="326.7806712962962" cy="225.06770833333334" r="22.961939766255643"/>
    <circle cx="327.55396412037027" cy="231.63151041666666" r="22.990392640201616"/>
    <circle cx="328.44444444444434" cy="238.5" r="23"/>
    <circle cx="329.53265395573084" cy="246.836291913215" r="23.174349095443688"/>
    <circle cx="330.46110015340776" cy="254.5631163708087" r="23.68726384608074"/>
    <circle cx="331.2297830374752" cy="261.6804733727811" r="24.508935510973394"/>
    <circle cx="331.83870260793327" cy="268.18836291913215" r="25.591611519613064"/>
    <circle cx="332.28785886478187" cy="274.08678500986196" r="26.872370677744787"/>
    <circle cx="332.57725180802095" cy="279.3757396449704" r="28.276779918468062"/>
    <circle cx="332.70688143765057" cy="284.0552268244576" r="29.723220081531938"/>
    <circle cx="332.6767477536707" cy="288.1252465483235" r="31.127629322255213"/>
    <circle cx="332.4868507560814" cy="291.58579881656806" r="32.40838848038693"/>
    <circle cx="332.13719044488266" cy="294.43688362919136" r="33.491064489026606"/>
    <circle cx="331.62776682007444" cy="296.6785009861933" r="34.31273615391926"/>
    <circle cx="330.9585798816567" cy="298.310650887574" r="34.82565090455631"/>
    <circle cx="330.12962962962956" cy="299.33333333333337" r="35"/>
    <circle cx="329.454081632653" cy="300.26020408163265" r="34.71167099009097"/>
    <circle cx="329.115268329554" cy="301.70748299319735" r="33.86114198087782"/>
    <circle cx="329.11318972033246" cy="303.6751700680272" r="32.49106204838235"/>
    <circle cx="329.44784580498856" cy="306.16326530612247" r="30.670132721375438"/>
    <circle cx="330.11923658352214" cy="309.1717687074829" r="28.48966299985192"/>
    <circle cx="331.1273620559333" cy="312.7006802721088" r="26.058990740497617"/>
    <circle cx="332.4722222222221" cy="316.75" r="23.5"/>
    <circle cx="334.1538170823884" cy="321.3197278911565" r="20.941009259502387"/>
    <circle cx="336.1721466364322" cy="326.4098639455782" r="18.510337000148084"/>
    <circle cx="338.5272108843536" cy="332.0204081632653" r="16.329867278624565"/>
    <circle cx="341.21900982615256" cy="338.15136054421765" r="14.508937951617657"/>
    <circle cx="344.247543461829" cy="344.80272108843536" r="13.138858019122182"/>
    <circle cx="347.612811791383" cy="351.9744897959183" r="12.288329009909031"/>
    <circle cx="351.31481481481467" cy="359.66666666666663" r="12"/>
    <circle cx="354.8427160493826" cy="366.87555555555554" r="12.284081190460526"/>
    <circle cx="358.2017283950616" cy="373.6577777777777" r="13.123909050646189"/>
    <circle cx="361.39185185185175" cy="380.0133333333334" r="14.482779073125684"/>
    <circle cx="364.413086419753" cy="385.94222222222226" r="16.301302117334842"/>
    <circle cx="367.26543209876536" cy="391.44444444444446" r="18.5"/>
    <circle cx="369.94888888888875" cy="396.52" r="20.982779073125684"/>
    <circle cx="372.4634567901233" cy="401.1688888888889" r="23.641129977520507"/>
    <circle cx="374.80913580246903" cy="405.3911111111111" r="26.358870022479493"/>
    <circle cx="376.9859259259258" cy="409.1866666666666" r="29.017220926874316"/>
    <circle cx="378.9938271604937" cy="412.55555555555554" r="31.499999999999996"/>
    <circle cx="380.8328395061727" cy="415.49777777777774" r="33.69869788266515"/>
    <circle cx="382.5029629629629" cy="418.0133333333333" r="35.517220926874316"/>
    <circle cx="384.0041975308641" cy="420.1022222222222" r="36.87609094935381"/>
    <circle cx="385.3365432098764" cy="421.76444444444445" r="37.715918809539474"/>
    <circle cx="386.4999999999999" cy="423.0" r="38"/>
    <circle cx="387.70359412667096" cy="424.4428007889547" r="37.88376726970421"/>
    <circle cx="388.82434801665556" cy="426.41222879684415" r="37.54182410261284"/>
    <circle cx="389.86226166995385" cy="428.9082840236686" r="36.994042992684406"/>
    <circle cx="390.8173350865657" cy="431.930966469428" r="36.272258986924626"/>
    <circle cx="391.6895682664912" cy="435.4802761341223" r="35.41841954817014"/>
    <circle cx="392.4789612097303" cy="439.5562130177515" r="34.482146721021294"/>
    <circle cx="393.18551391628296" cy="444.15877712031556" r="33.517853278978706"/>
    <circle cx="393.8092263861493" cy="449.28796844181454" r="32.58158045182986"/>
    <circle cx="394.3500986193292" cy="454.94378698224847" r="31.727741013075377"/>
    <circle cx="394.80813061582273" cy="461.12623274161734" r="31.005957007315594"/>
    <circle cx="395.18332237562987" cy="467.83530571992105" r="30.45817589738716"/>
    <circle cx="395.47567389875064" cy="475.07100591715977" r="30.116232730295792"/>
    <circle cx="395.685185185185" cy="482.8333333333333" r="30"/>
    <circle cx="395.73975308641957" cy="489.62888888888887" r="29.759623608071863"/>
    <circle cx="395.61209876543194" cy="496.1044444444444" r="29.04900003406861"/>
    <circle cx="395.3022222222221" cy="502.2600000000001" r="27.899186938124423"/>
    <circle cx="394.81012345679" cy="508.0955555555556" r="26.36043666994744"/>
    <circle cx="394.1358024691357" cy="513.6111111111112" r="24.5"/>
    <circle cx="393.2792592592591" cy="518.8066666666667" r="22.399186938124423"/>
    <circle cx="392.2404938271603" cy="523.6822222222222" r="20.14981309594419"/>
    <circle cx="391.01950617283933" cy="528.2377777777778" r="17.850186904055814"/>
    <circle cx="389.6162962962961" cy="532.4733333333334" r="15.600813061875577"/>
    <circle cx="388.0308641975307" cy="536.3888888888889" r="13.500000000000004"/>
    <circle cx="386.26320987654304" cy="539.9844444444444" r="11.639563330052564"/>
    <circle cx="384.31333333333316" cy="543.26" r="10.100813061875577"/>
    <circle cx="382.1812345679011" cy="546.2155555555555" r="8.950999965931388"/>
    <circle cx="379.8669135802468" cy="548.8511111111111" r="8.240376391928137"/>
    <circle cx="377.3703703703702" cy="551.1666666666666" r="8"/>
    <circle cx="374.205387205387" cy="554.2796143250688" r="8.081014052771005"/>
    <circle cx="371.76767676767656" cy="557.7396694214875" r="8.317492934337638"/>
    <circle cx="370.05723905723886" cy="561.5468319559228" r="8.69027853210943"/>
    <circle cx="369.0740740740739" cy="565.7011019283747" r="9.169169973996228"/>
    <circle cx="368.8181818181816" cy="570.2024793388429" r="9.71537032345343"/>
    <circle cx="369.28956228956207" cy="575.0509641873277" r="10.28462967654657"/>
    <circle cx="370.48821548821525" cy="580.2465564738292" r="10.830830026003772"/>
    <circle cx="372.41414141414117" cy="585.7892561983471" r="11.30972146789057"/>
    <circle cx="375.06734006733984" cy="591.6790633608816" r="11.682507065662364"/>
    <circle cx="378.4478114478112" cy="597.9159779614325" r="11.918985947228995"/>
    <circle cx="382.5555555555553" cy="604.5" r="12"/>
    <circle cx="385.5261140046294" cy="609.1282552083334" r="12.211361915564465"/>
    <circle cx="388.2896412037035" cy="613.7213541666666" r="12.837325142375846"/>
    <circle cx="390.84613715277754" cy="618.279296875" r="13.853834264672003"/>
    <circle cx="393.1956018518516" cy="622.8020833333334" r="15.221825406947977"/>
    <circle cx="395.33803530092564" cy="627.2897135416666" r="16.888727436784375"/>
    <circle cx="397.2734374999998" cy="631.7421875" r="18.790482243984012"/>
    <circle cx="399.0018084490738" cy="636.1595052083333" r="20.85400645782259"/>
    <circle cx="400.5231481481479" cy="640.5416666666666" r="23.0"/>
    <circle cx="401.837456597222" cy="644.888671875" r="25.145993542177408"/>
    <circle cx="402.9447337962961" cy="649.2005208333333" r="27.209517756015984"/>
    <circle cx="403.84497974537015" cy="653.4772135416666" r="29.11127256321562"/>
    <circle cx="404.53819444444423" cy="657.71875" r="30.77817459305202"/>
    <circle cx="405.0243778935183" cy="661.9251302083333" r="32.146165735328"/>
    <circle cx="405.3035300925924" cy="666.0963541666665" r="33.162674857624154"/>
    <circle cx="405.3756510416664" cy="670.2324218749999" r="33.78863808443553"/>
    <circle cx="405.24074074074053" cy="674.3333333333333" r="34"/>
    <circle cx="402.9588477366253" cy="690.0370370370371" r="33.25"/>
    <circle cx="398.65637860082285" cy="693.5925925925926" r="31.75"/>
    <circle cx="392.3333333333332" cy="685.0" r="31"/>
    <circle cx="391.2594644506001" cy="682.5567867036011" r="30.965903258506806"/>
    <circle cx="390.3536472760848" cy="679.8587257617728" r="30.864543104251588"/>
    <circle cx="389.6158818097875" cy="676.905817174515" r="30.69868437801622"/>
    <circle cx="389.04616805170815" cy="673.6980609418283" r="30.472851273490985"/>
    <circle cx="388.6445060018467" cy="670.235457063712" r="30.193203929064353"/>
    <circle cx="388.41089566020304" cy="666.5180055401662" r="29.867370395306068"/>
    <circle cx="388.3453370267773" cy="662.545706371191" r="29.504238561632423"/>
    <circle cx="388.44783010156965" cy="658.3185595567868" r="29.113713717851997"/>
    <circle cx="388.7183748845799" cy="653.836565096953" r="28.70644836368083"/>
    <circle cx="389.15697137580787" cy="649.0997229916898" r="28.29355163631917"/>
    <circle cx="389.76361957525387" cy="644.1080332409972" r="27.886286282148003"/>
    <circle cx="390.53831948291776" cy="638.8614958448753" r="27.495761438367577"/>
    <circle cx="391.4810710987996" cy="633.3601108033241" r="27.132629604693932"/>
    <circle cx="392.5918744228993" cy="627.6038781163435" r="26.806796070935647"/>
    <circle cx="393.870729455217" cy="621.5927977839335" r="26.527148726509015"/>
    <circle cx="395.31763619575247" cy="615.3268698060942" r="26.301315621983775"/>
    <circle cx="396.93259464450597" cy="608.8060941828255" r="26.135456895748412"/>
    <circle cx="398.7156048014773" cy="602.0304709141274" r="26.034096741493194"/>
    <circle cx="400.66666666666663" cy="595.0" r="26"/>
    <circle cx="401.72569444444434" cy="591.1994598765432" r="26.003805301908255"/>
    <circle cx="402.75462962962956" cy="587.3533950617283" r="26.01519224698779"/>
    <circle cx="403.7534722222222" cy="583.4618055555555" r="26.03407417371093"/>
    <circle cx="404.7222222222222" cy="579.5246913580246" r="26.06030737921409"/>
    <circle cx="405.6608796296297" cy="575.5420524691359" r="26.09369221296335"/>
    <circle cx="406.56944444444446" cy="571.5138888888889" r="26.133974596215563"/>
    <circle cx="407.4479166666667" cy="567.440200617284" r="26.18084795571101"/>
    <circle cx="408.29629629629625" cy="563.320987654321" r="26.23395555688102"/>
    <circle cx="409.1145833333333" cy="559.15625" r="26.292893218813454"/>
    <circle cx="409.90277777777777" cy="554.945987654321" r="26.35721239031346"/>
    <circle cx="410.6608796296296" cy="550.6902006172838" r="26.426423563648953"/>
    <circle cx="411.3888888888889" cy="546.3888888888889" r="26.5"/>
    <circle cx="412.0868055555555" cy="542.0420524691358" r="26.5773817382593"/>
    <circle cx="412.7546296296296" cy="537.6496913580247" r="26.65797985667433"/>
    <circle cx="413.3923611111111" cy="533.2118055555554" r="26.74118095489748"/>
    <circle cx="414.0" cy="528.7283950617284" r="26.82635182233307"/>
    <circle cx="414.5775462962963" cy="524.1994598765432" r="26.912844257252342"/>
    <circle cx="415.125" cy="519.625" r="27.0"/>
    <circle cx="415.6423611111111" cy="515.0050154320987" r="27.087155742747658"/>
    <circle cx="416.12962962962956" cy="510.3395061728395" r="27.17364817766693"/>
    <circle cx="416.5868055555556" cy="505.6284722222222" r="27.25881904510252"/>
    <circle cx="417.0138888888889" cy="500.8719135802469" r="27.34202014332567"/>
    <circle cx="417.4108796296296" cy="496.0698302469136" r="27.4226182617407"/>
    <circle cx="417.7777777777778" cy="491.2222222222223" r="27.5"/>
    <circle cx="418.11458333333337" cy="486.32908950617286" r="27.573576436351047"/>
    <circle cx="418.4212962962963" cy="481.39043209876536" r="27.64278760968654"/>
    <circle cx="418.6979166666667" cy="476.40625" r="27.707106781186546"/>
    <circle cx="418.94444444444446" cy="471.37654320987656" r="27.76604444311898"/>
    <circle cx="419.1608796296296" cy="466.30131172839504" r="27.81915204428899"/>
    <circle cx="419.34722222222223" cy="461.18055555555554" r="27.866025403784437"/>
    <circle cx="419.5034722222223" cy="456.014274691358" r="27.90630778703665"/>
    <circle cx="419.6296296296297" cy="450.80246913580254" r="27.93969262078591"/>
    <circle cx="419.72569444444446" cy="445.54513888888886" r="27.96592582628907"/>
    <circle cx="419.79166666666674" cy="440.2422839506173" r="27.98480775301221"/>
    <circle cx="419.8275462962963" cy="434.89390432098764" r="27.996194698091745"/>
    <circle cx="419.83333333333337" cy="429.5" r="28"/>
    <circle cx="419.83" cy="424.6325" r="27.993834667466256"/>
    <circle cx="419.8366666666667" cy="419.78" r="27.975376681190276"/>
    <circle cx="419.8533333333334" cy="414.94250000000005" r="27.944739840795354"/>
    <circle cx="419.88000000000005" cy="410.12" r="27.902113032590307"/>
    <circle cx="419.91666666666674" cy="405.3125" r="27.847759065022572"/>
    <circle cx="419.9633333333333" cy="400.52" r="27.782013048376736"/>
    <circle cx="420.02" cy="395.74249999999995" r="27.705280328708184"/>
    <circle cx="420.0866666666668" cy="390.9800000000001" r="27.618033988749893"/>
    <circle cx="420.1633333333334" cy="386.2325" r="27.52081193120006"/>
    <circle cx="420.25" cy="381.5" r="27.414213562373096"/>
    <circle cx="420.3466666666667" cy="376.7825" r="27.298896096660368"/>
    <circle cx="420.4533333333334" cy="372.08" r="27.175570504584947"/>
    <circle cx="420.57000000000005" cy="367.39250000000004" r="27.0449971294319"/>
    <circle cx="420.69666666666666" cy="362.71999999999997" r="26.907980999479093"/>
    <circle cx="420.83333333333337" cy="358.0625" r="26.76536686473018"/>
    <circle cx="420.9800000000001" cy="353.42" r="26.618033988749893"/>
    <circle cx="421.13666666666666" cy="348.7925" r="26.46689072771181"/>
    <circle cx="421.3033333333334" cy="344.18" r="26.312868930080462"/>
    <circle cx="421.48" cy="339.5825" r="26.15691819145569"/>
    <circle cx="421.6666666666667" cy="335.0" r="26.0"/>
    <circle cx="421.86333333333334" cy="330.4325" r="25.843081808544312"/>
    <circle cx="422.07000000000005" cy="325.88" r="25.687131069919538"/>
    <circle cx="422.2866666666667" cy="321.34250000000003" r="25.53310927228819"/>
    <circle cx="422.5133333333333" cy="316.82" r="25.381966011250107"/>
    <circle cx="422.75" cy="312.3125" r="25.23463313526982"/>
    <circle cx="422.99666666666667" cy="307.82" r="25.092019000520907"/>
    <circle cx="423.25333333333333" cy="303.3425" r="24.9550028705681"/>
    <circle cx="423.52" cy="298.88" r="24.824429495415053"/>
    <circle cx="423.7966666666667" cy="294.4325" r="24.701103903339632"/>
    <circle cx="424.08333333333337" cy="290.0" r="24.585786437626904"/>
    <circle cx="424.38" cy="285.5825" r="24.47918806879994"/>
    <circle cx="424.6866666666667" cy="281.18" r="24.381966011250107"/>
    <circle cx="425.00333333333333" cy="276.7925" r="24.294719671291816"/>
    <circle cx="425.33" cy="272.41999999999996" r="24.217986951623264"/>
    <circle cx="425.6666666666667" cy="268.0625" r="24.152240934977428"/>
    <circle cx="426.0133333333334" cy="263.72" r="24.097886967409693"/>
    <circle cx="426.37" cy="259.3925" r="24.055260159204646"/>
    <circle cx="426.7366666666667" cy="255.08000000000004" r="24.024623318809724"/>
    <circle cx="427.11333333333334" cy="250.7825" r="24.006165332533744"/>
    <circle cx="427.5" cy="246.5" r="24"/>
    <circle cx="428.1711432506887" cy="238.87086776859508" r="23.938928651285597"/>
    <circle cx="428.76033057851237" cy="231.5289256198347" r="23.756957841686983"/>
    <circle cx="429.2675619834711" cy="224.47417355371903" r="23.45779197212711"/>
    <circle cx="429.69283746556465" cy="217.70661157024793" r="23.047521196987088"/>
    <circle cx="430.0361570247934" cy="211.2262396694215" r="22.53449744612555"/>
    <circle cx="430.297520661157" cy="205.03305785123968" r="21.92916440367171"/>
    <circle cx="430.4769283746557" cy="199.1270661157025" r="21.243844904733585"/>
    <circle cx="430.57438016528926" cy="193.5082644628099" r="20.49249007801132"/>
    <circle cx="430.58987603305786" cy="188.17665289256195" r="19.69039534104858"/>
    <circle cx="430.5234159779614" cy="183.13223140495867" r="18.85388902963971"/>
    <circle cx="430.375" cy="178.375" r="18.0"/>
    <circle cx="430.1446280991736" cy="173.90495867768593" r="17.14611097036029"/>
    <circle cx="429.8323002754821" cy="169.72210743801654" r="16.30960465895142"/>
    <circle cx="429.43801652892563" cy="165.82644628099175" r="15.507509921988682"/>
    <circle cx="428.9617768595042" cy="162.21797520661158" r="14.756155095266417"/>
    <circle cx="428.40358126721765" cy="158.89669421487602" r="14.07083559632829"/>
    <circle cx="427.76342975206614" cy="155.86260330578511" r="13.465502553874451"/>
    <circle cx="427.0413223140497" cy="153.11570247933884" r="12.952478803012912"/>
    <circle cx="426.23725895316807" cy="150.65599173553719" r="12.542208027872888"/>
    <circle cx="425.35123966942155" cy="148.48347107438016" r="12.243042158313017"/>
    <circle cx="424.38326446281" cy="146.5981404958678" r="12.061071348714403"/>
    <circle cx="423.33333333333337" cy="145.0" r="12"/>
    <circle cx="419.83000000000004" cy="140.905" r="12.095491502812527"/>
    <circle cx="418.9200000000001" cy="141.42" r="12.345491502812527"/>
    <circle cx="420.60333333333335" cy="146.54500000000002" r="12.654508497187473"/>
    <circle cx="424.88" cy="156.28" r="12.904508497187473"/>
    <circle cx="431.75" cy="170.625" r="13"/>
    <circle cx="433.9938271604938" cy="175.23302469135803" r="13.174710840359607"/>
    <circle cx="436.1882716049383" cy="179.8070987654321" r="13.693534860962053"/>
    <circle cx="438.33333333333337" cy="184.34722222222223" r="14.540707856478955"/>
    <circle cx="440.429012345679" cy="188.8533950617284" r="15.690488904131753"/>
    <circle cx="442.4753086419753" cy="193.3256172839506" r="17.1079424886048"/>
    <circle cx="444.47222222222223" cy="197.7638888888889" r="18.75"/>
    <circle cx="446.4197530864198" cy="202.16820987654322" r="20.56676835175481"/>
    <circle cx="448.31790123456784" cy="206.53858024691357" r="22.5030459568303"/>
    <circle cx="450.16666666666663" cy="210.875" r="24.5"/>
    <circle cx="451.96604938271605" cy="215.17746913580248" r="26.496954043169698"/>
    <circle cx="453.71604938271594" cy="219.44598765432102" r="28.43323164824519"/>
    <circle cx="455.41666666666663" cy="223.68055555555557" r="30.249999999999996"/>
    <circle cx="457.0679012345679" cy="227.88117283950618" r="31.8920575113952"/>
    <circle cx="458.66975308641975" cy="232.04783950617286" r="33.309511095868245"/>
    <circle cx="460.2222222222222" cy="236.18055555555557" r="34.45929214352105"/>
    <circle cx="461.7253086419753" cy="240.27932098765433" r="35.30646513903795"/>
    <circle cx="463.179012345679" cy="244.34413580246914" r="35.82528915964039"/>
    <circle cx="464.58333333333326" cy="248.375" r="36"/>
    <circle cx="465.83624999999995" cy="252.02625" r="35.901506724761106"/>
    <circle cx="467.1116666666666" cy="255.75500000000002" r="35.60845213036123"/>
    <circle cx="468.4095833333333" cy="259.56125" r="35.128052193506946"/>
    <circle cx="469.73" cy="263.44500000000005" r="34.47213595499958"/>
    <circle cx="471.0729166666666" cy="267.40625" r="33.65685424949238"/>
    <circle cx="472.4383333333332" cy="271.44499999999994" r="32.70228201833979"/>
    <circle cx="473.82624999999996" cy="275.56125000000003" r="31.631923997916374"/>
    <circle cx="475.23666666666657" cy="279.755" r="30.47213595499958"/>
    <circle cx="476.6695833333334" cy="284.02625" r="29.25147572032185"/>
    <circle cx="478.1249999999999" cy="288.375" r="28.0"/>
    <circle cx="479.6029166666666" cy="292.80125" r="26.74852427967815"/>
    <circle cx="481.10333333333324" cy="297.305" r="25.52786404500042"/>
    <circle cx="482.6262499999999" cy="301.88625" r="24.368076002083626"/>
    <circle cx="484.1716666666666" cy="306.54499999999996" r="23.297717981660217"/>
    <circle cx="485.7395833333333" cy="311.28125" r="22.34314575050762"/>
    <circle cx="487.3299999999999" cy="316.095" r="21.52786404500042"/>
    <circle cx="488.9429166666666" cy="320.98625" r="20.871947806493058"/>
    <circle cx="490.57833333333326" cy="325.95500000000004" r="20.39154786963877"/>
    <circle cx="492.23625" cy="331.00124999999997" r="20.098493275238898"/>
    <circle cx="493.91666666666663" cy="336.125" r="20"/>
    <circle cx="495.59958333333327" cy="341.25" r="20.05540246732188"/>
    <circle cx="497.265" cy="346.3" r="20.22024567667181"/>
    <circle cx="498.91291666666655" cy="351.275" r="20.490470641152346"/>
    <circle cx="500.5433333333334" cy="356.17500000000007" r="20.859423525312735"/>
    <circle cx="502.15625" cy="361.0" r="21.318019484660535"/>
    <circle cx="503.75166666666655" cy="365.75" r="21.85496636468387"/>
    <circle cx="505.32958333333323" cy="370.42499999999995" r="22.45704275117204"/>
    <circle cx="506.88999999999993" cy="375.02500000000003" r="23.109423525312735"/>
    <circle cx="508.43291666666664" cy="379.55000000000007" r="23.79604490731896"/>
    <circle cx="509.95833333333326" cy="384.0" r="24.5"/>
    <circle cx="511.46624999999995" cy="388.375" r="25.20395509268104"/>
    <circle cx="512.9566666666666" cy="392.675" r="25.890576474687265"/>
    <circle cx="514.4295833333333" cy="396.9" r="26.54295724882796"/>
    <circle cx="515.885" cy="401.04999999999995" r="27.14503363531613"/>
    <circle cx="517.3229166666666" cy="405.125" r="27.681980515339465"/>
    <circle cx="518.7433333333333" cy="409.12500000000006" r="28.140576474687265"/>
    <circle cx="520.1462499999999" cy="413.04999999999995" r="28.509529358847654"/>
    <circle cx="521.5316666666666" cy="416.90000000000003" r="28.77975432332819"/>
    <circle cx="522.8995833333333" cy="420.675" r="28.94459753267812"/>
    <circle cx="524.25" cy="424.375" r="29"/>
    <circle cx="526.1896258503402" cy="429.51785714285717" r="28.774351209636414"/>
    <circle cx="528.1751700680272" cy="434.48214285714295" r="28.108719811121773"/>
    <circle cx="530.2066326530612" cy="439.2678571428571" r="27.036483342212268"/>
    <circle cx="532.2840136054422" cy="443.875" r="25.611408216728602"/>
    <circle cx="534.4073129251699" cy="448.3035714285714" r="23.904953652058023"/>
    <circle cx="536.5765306122447" cy="452.55357142857133" r="22.00268840560683"/>
    <circle cx="538.7916666666666" cy="456.625" r="20.0"/>
    <circle cx="541.0527210884354" cy="460.51785714285717" r="17.99731159439317"/>
    <circle cx="543.359693877551" cy="464.2321428571429" r="16.095046347941977"/>
    <circle cx="545.7125850340135" cy="467.7678571428571" r="14.3885917832714"/>
    <circle cx="548.1113945578231" cy="471.125" r="12.963516657787732"/>
    <circle cx="550.5561224489795" cy="474.30357142857144" r="11.891280188878227"/>
    <circle cx="553.0467687074829" cy="477.30357142857144" r="11.22564879036359"/>
    <circle cx="555.5833333333333" cy="480.125" r="11"/>
    <circle cx="558.0969387755101" cy="482.9693877551021" r="10.924783736545471"/>
    <circle cx="560.5187074829931" cy="486.0382653061225" r="10.702906603707257"/>
    <circle cx="562.8486394557823" cy="489.3316326530612" r="10.34549444740409"/>
    <circle cx="565.0867346938775" cy="492.8494897959183" r="9.8704694055762"/>
    <circle cx="567.2329931972788" cy="496.59183673469374" r="9.301651217352674"/>
    <circle cx="569.2874149659863" cy="500.55867346938766" r="8.667562801868943"/>
    <circle cx="571.25" cy="504.75" r="8.0"/>
    <circle cx="573.1207482993198" cy="509.1658163265306" r="7.332437198131057"/>
    <circle cx="574.8996598639457" cy="513.8061224489796" r="6.698348782647326"/>
    <circle cx="576.5867346938776" cy="518.670918367347" r="6.1295305944238"/>
    <circle cx="578.1819727891157" cy="523.7602040816327" r="5.654505552595911"/>
    <circle cx="579.68537414966" cy="529.0739795918367" r="5.297093396292743"/>
    <circle cx="581.0969387755102" cy="534.6122448979592" r="5.0752162634545295"/>
    <circle cx="582.4166666666667" cy="540.375" r="5"/>
    <circle cx="583.7134353741498" cy="546.1505102040817" r="5.012536043909088"/>
    <circle cx="585.0561224489797" cy="551.7270408163265" r="5.0495155660487905"/>
    <circle cx="586.4447278911565" cy="557.1045918367347" r="5.109084258765985"/>
    <circle cx="587.8792517006804" cy="562.283163265306" r="5.188255099070633"/>
    <circle cx="589.359693877551" cy="567.2627551020407" r="5.283058130441221"/>
    <circle cx="590.8860544217687" cy="572.0433673469387" r="5.388739533021843"/>
    <circle cx="592.4583333333334" cy="576.625" r="5.5"/>
    <circle cx="594.0765306122449" cy="581.0076530612245" r="5.611260466978157"/>
    <circle cx="595.7406462585035" cy="585.1913265306123" r="5.716941869558779"/>
    <circle cx="597.4506802721089" cy="589.1760204081633" r="5.811744900929367"/>
    <circle cx="599.2066326530613" cy="592.9617346938776" r="5.890915741234015"/>
    <circle cx="601.0085034013606" cy="596.5484693877552" r="5.9504844339512095"/>
    <circle cx="602.8562925170069" cy="599.9362244897959" r="5.987463956090911"/>
    <circle cx="604.7500000000001" cy="603.125" r="6"/>
    <circle cx="606.3163206459055" cy="605.7833044982699" r="6.0425672507902455"/>
    <circle cx="607.8584198385237" cy="608.6699826989619" r="6.168819426489111"/>
    <circle cx="609.3762975778546" cy="611.7850346020762" r="6.374457160675965"/>
    <circle cx="610.8699538638986" cy="615.1284602076124" r="6.6524777069483525"/>
    <circle cx="612.3393886966551" cy="618.7002595155709" r="6.993413409051859"/>
    <circle cx="613.7846020761247" cy="622.5004325259515" r="7.385654110558654"/>
    <circle cx="615.205594002307" cy="626.5289792387543" r="7.815842524819793"/>
    <circle cx="616.602364475202" cy="630.7858996539792" r="8.269329101341745"/>
    <circle cx="617.9749134948098" cy="635.2711937716263" r="8.730670898658254"/>
    <circle cx="619.3232410611304" cy="639.9848615916956" r="9.184157475180207"/>
    <circle cx="620.647347174164" cy="644.9269031141869" r="9.614345889441346"/>
    <circle cx="621.9472318339101" cy="650.0973183391004" r="10.00658659094814"/>
    <circle cx="623.2228950403692" cy="655.496107266436" r="10.347522293051647"/>
    <circle cx="624.474336793541" cy="661.1232698961937" r="10.625542839324035"/>
    <circle cx="625.7015570934257" cy="666.9788062283737" r="10.831180573510888"/>
    <circle cx="626.9045559400232" cy="673.0627162629758" r="10.957432749209755"/>
    <circle cx="628.0833333333335" cy="679.375" r="11"/>
    <circle cx="629.9575000000002" cy="689.66875" r="11.538378320753312"/>
    <circle cx="631.6133333333337" cy="698.7" r="13.100813061875577"/>
    <circle cx="633.0508333333335" cy="706.4687499999999" r="15.534362224782797"/>
    <circle cx="634.2700000000002" cy="712.975" r="18.600813061875577"/>
    <circle cx="635.2708333333335" cy="718.21875" r="22.0"/>
    <circle cx="636.0533333333335" cy="722.2" r="25.399186938124423"/>
    <circle cx="636.6175000000001" cy="724.91875" r="28.465637775217203"/>
    <circle cx="636.9633333333334" cy="726.375" r="30.899186938124423"/>
    <circle cx="637.0908333333334" cy="726.56875" r="32.46162167924669"/>
    <circle cx="637.0" cy="725.5" r="33"/>
    <circle cx="636.853125" cy="724.216015625" r="32.74060128544361"/>
    <circle cx="636.6625" cy="722.4890625" r="31.972373688902373"/>
    <circle cx="636.428125" cy="720.319140625" r="30.72483976608436"/>
    <circle cx="636.15" cy="717.70625" r="29.04594154601839"/>
    <circle cx="635.828125" cy="714.650390625" r="27.00019814576463"/>
    <circle cx="635.4625" cy="711.1515625" r="24.666226336928712"/>
    <circle cx="635.053125" cy="707.209765625" r="22.133719347217735"/>
    <circle cx="634.6" cy="702.825" r="19.5"/>
    <circle cx="634.103125" cy="697.997265625" r="16.86628065278227"/>
    <circle cx="633.5625" cy="692.7265625" r="14.333773663071291"/>
    <circle cx="632.978125" cy="687.012890625" r="11.999801854235372"/>
    <circle cx="632.3499999999999" cy="680.85625" r="9.95405845398161"/>
    <circle cx="631.6781249999999" cy="674.256640625" r="8.275160233915638"/>
    <circle cx="630.9625" cy="667.2140625" r="7.027626311097627"/>
    <circle cx="630.203125" cy="659.728515625" r="6.25939871455639"/>
    <circle cx="629.4" cy="651.8" r="6"/>
    <circle cx="628.9100591715976" cy="646.8008875739645" r="6.0"/>
    <circle cx="628.4556213017752" cy="641.8343195266272" r="6.0"/>
    <circle cx="628.0366863905325" cy="636.9002958579881" r="6.0"/>
    <circle cx="627.6532544378698" cy="631.9988165680473" r="6.0"/>
    <circle cx="627.305325443787" cy="627.1298816568047" r="6.0"/>
    <circle cx="626.992899408284" cy="622.2934911242603" r="6.0"/>
    <circle cx="626.715976331361" cy="617.4896449704144" r="6.0"/>
    <circle cx="626.4745562130178" cy="612.7183431952662" r="6.0"/>
    <circle cx="626.2686390532543" cy="607.9795857988165" r="6.0"/>
    <circle cx="626.0982248520711" cy="603.2733727810652" r="6.0"/>
    <circle cx="625.9633136094674" cy="598.5997041420118" r="6.0"/>
    <circle cx="625.8639053254437" cy="593.9585798816568" r="6.0"/>
    <circle cx="625.8" cy="589.35" r="6.0"/>
    <circle cx="625.771597633136" cy="584.7739644970414" r="6.0"/>
    <circle cx="625.778698224852" cy="580.230473372781" r="6.0"/>
    <circle cx="625.8213017751478" cy="575.719526627219" r="6.0"/>
    <circle cx="625.8994082840236" cy="571.241124260355" r="6.0"/>
    <circle cx="626.0130177514792" cy="566.7952662721893" r="6.0"/>
    <circle cx="626.1621301775147" cy="562.3819526627219" r="6.0"/>
    <circle cx="626.3467455621301" cy="558.0011834319528" r="6.0"/>
    <circle cx="626.5668639053254" cy="553.6529585798817" r="6.0"/>
    <circle cx="626.8224852071005" cy="549.337278106509" r="6.0"/>
    <circle cx="627.1136094674556" cy="545.0541420118344" r="6.0"/>
    <circle cx="627.4402366863904" cy="540.8035502958581" r="6.0"/>
    <circle cx="627.8023668639053" cy="536.5855029585799" r="6.0"/>
    <circle cx="628.1999999999999" cy="532.4000000000001" r="6"/>
    <circle cx="628.7598765432099" cy="526.4472222222223" r="5.992403876506104"/>
    <circle cx="629.2395061728395" cy="520.6333333333334" r="5.969846310392954"/>
    <circle cx="629.6388888888889" cy="514.9583333333335" r="5.93301270189222"/>
    <circle cx="629.958024691358" cy="509.4222222222223" r="5.883022221559489"/>
    <circle cx="630.1969135802468" cy="504.0250000000001" r="5.82139380484327"/>
    <circle cx="630.3555555555555" cy="498.76666666666677" r="5.75"/>
    <circle cx="630.433950617284" cy="493.64722222222235" r="5.671010071662835"/>
    <circle cx="630.432098765432" cy="488.6666666666667" r="5.586824088833465"/>
    <circle cx="630.3499999999999" cy="483.82500000000005" r="5.5"/>
    <circle cx="630.1876543209876" cy="479.12222222222226" r="5.413175911166535"/>
    <circle cx="629.945061728395" cy="474.5583333333334" r="5.328989928337165"/>
    <circle cx="629.6222222222221" cy="470.1333333333334" r="5.25"/>
    <circle cx="629.219135802469" cy="465.8472222222223" r="5.17860619515673"/>
    <circle cx="628.7358024691357" cy="461.70000000000005" r="5.116977778440511"/>
    <circle cx="628.1722222222221" cy="457.6916666666667" r="5.06698729810778"/>
    <circle cx="627.5283950617284" cy="453.82222222222225" r="5.030153689607046"/>
    <circle cx="626.8043209876543" cy="450.09166666666675" r="5.0075961234938955"/>
    <circle cx="625.9999999999999" cy="446.50000000000006" r="5"/>
    <circle cx="625.2376417233558" cy="443.4163265306122" r="5.1396146721858935"/>
    <circle cx="624.3981859410429" cy="440.20340136054426" r="5.5553399276732405"/>
    <circle cx="623.4816326530612" cy="436.8612244897961" r="6.237889151219761"/>
    <circle cx="622.4879818594103" cy="433.3897959183674" r="7.172015321050064"/>
    <circle cx="621.4172335600905" cy="429.7891156462585" r="8.33685160212717"/>
    <circle cx="620.269387755102" cy="426.0591836734695" r="9.70637747676583"/>
    <circle cx="619.0444444444444" cy="422.20000000000016" r="11.249999999999998"/>
    <circle cx="617.7424036281178" cy="418.21156462585043" r="12.933237195420059"/>
    <circle cx="616.3632653061222" cy="414.09387755102046" r="14.718488325546069"/>
    <circle cx="614.907029478458" cy="409.84693877551024" r="16.565873830169696"/>
    <circle cx="613.3736961451245" cy="405.4707482993198" r="18.434126169830304"/>
    <circle cx="611.7632653061223" cy="400.9653061224491" r="20.28151167445393"/>
    <circle cx="610.0757369614511" cy="396.330612244898" r="22.066762804579938"/>
    <circle cx="608.3111111111109" cy="391.5666666666668" r="23.749999999999996"/>
    <circle cx="606.4693877551019" cy="386.6734693877552" r="25.293622523234166"/>
    <circle cx="604.5505668934238" cy="381.6510204081634" r="26.663148397872824"/>
    <circle cx="602.5546485260769" cy="376.49931972789125" r="27.827984678949935"/>
    <circle cx="600.4816326530611" cy="371.21836734693886" r="28.76211084878024"/>
    <circle cx="598.3315192743763" cy="365.80816326530623" r="29.44466007232676"/>
    <circle cx="596.1043083900227" cy="360.26870748299325" r="29.860385327814104"/>
    <circle cx="593.7999999999998" cy="354.6000000000001" r="30"/>
    <circle cx="591.9565088757395" cy="349.97366863905336" r="29.948962118686378"/>
    <circle cx="590.2106508875738" cy="345.3562130177516" r="29.796592721982364"/>
    <circle cx="588.5624260355028" cy="340.74763313609475" r="29.545113698797905"/>
    <circle cx="587.0118343195264" cy="336.14792899408286" r="29.19819217957247"/>
    <circle cx="585.5588757396449" cy="331.5571005917161" r="28.760887061255595"/>
    <circle cx="584.2035502958578" cy="326.97514792899415" r="28.23957523719771"/>
    <circle cx="582.9458579881655" cy="322.40207100591726" r="27.641858607685567"/>
    <circle cx="581.7857988165679" cy="317.8378698224853" r="26.976453227118093"/>
    <circle cx="580.7233727810649" cy="313.2825443786983" r="26.25306220430638"/>
    <circle cx="579.7585798816567" cy="308.7360946745564" r="25.48223420929775"/>
    <circle cx="578.8914201183429" cy="304.1985207100592" r="24.675209650012903"/>
    <circle cx="578.1218934911241" cy="299.6698224852072" r="23.84375676178726"/>
    <circle cx="577.4499999999998" cy="295.1500000000001" r="23.0"/>
    <circle cx="576.8757396449703" cy="290.63905325443795" r="22.15624323821274"/>
    <circle cx="576.3991124260353" cy="286.1369822485208" r="21.324790349987097"/>
    <circle cx="576.020118343195" cy="281.64378698224857" r="20.51776579070225"/>
    <circle cx="575.7387573964495" cy="277.1594674556214" r="19.74693779569362"/>
    <circle cx="575.5550295857986" cy="272.68402366863916" r="19.02354677288191"/>
    <circle cx="575.4689349112424" cy="268.21745562130184" r="18.358141392314437"/>
    <circle cx="575.4804733727808" cy="263.75976331360954" r="17.760424762802295"/>
    <circle cx="575.589644970414" cy="259.3109467455622" r="17.239112938744405"/>
    <circle cx="575.7964497041418" cy="254.87100591715986" r="16.80180782042753"/>
    <circle cx="576.1008875739643" cy="250.43994082840246" r="16.454886301202095"/>
    <circle cx="576.5029585798815" cy="246.01775147929004" r="16.203407278017636"/>
    <circle cx="577.0026627218933" cy="241.60443786982256" r="16.051037881313622"/>
    <circle cx="577.5999999999998" cy="237.2000000000001" r="16"/>
    <circle cx="579.1159999999999" cy="226.41700000000012" r="15.730810839623345"/>
    <circle cx="580.3039999999999" cy="216.94800000000015" r="14.949593469062211"/>
    <circle cx="581.1639999999998" cy="208.7930000000001" r="13.732818887608602"/>
    <circle cx="581.6959999999998" cy="201.9520000000001" r="12.199593469062211"/>
    <circle cx="581.8999999999999" cy="196.42500000000007" r="10.5"/>
    <circle cx="581.7759999999998" cy="192.2120000000001" r="8.800406530937789"/>
    <circle cx="581.3239999999998" cy="189.31300000000007" r="7.267181112391398"/>
    <circle cx="580.5439999999999" cy="187.72800000000007" r="6.050406530937789"/>
    <circle cx="579.4359999999999" cy="187.45700000000008" r="5.269189160376655"/>
    <circle cx="577.9999999999999" cy="188.50000000000006" r="5"/>
    <circle cx="576.6233333333333" cy="190.48571428571435" r="5.024471741852423"/>
    <circle cx="575.6933333333334" cy="193.0428571428572" r="5.095491502812527"/>
    <circle cx="575.2099999999999" cy="196.17142857142858" r="5.206107373853763"/>
    <circle cx="575.1733333333333" cy="199.8714285714286" r="5.345491502812527"/>
    <circle cx="575.5833333333333" cy="204.14285714285714" r="5.5"/>
    <circle cx="576.4399999999999" cy="208.9857142857143" r="5.654508497187473"/>
    <circle cx="577.7433333333333" cy="214.39999999999998" r="5.793892626146237"/>
    <circle cx="579.4933333333333" cy="220.3857142857143" r="5.904508497187473"/>
    <circle cx="581.6899999999999" cy="226.94285714285715" r="5.975528258147577"/>
    <circle cx="584.3333333333333" cy="234.07142857142856" r="6"/>
    <circle cx="586.6562499999998" cy="240.09722222222217" r="6.1703708685546585"/>
    <circle cx="588.8472222222222" cy="245.81746031746033" r="6.669872981077806"/>
    <circle cx="590.90625" cy="251.23214285714283" r="7.464466094067262"/>
    <circle cx="592.8333333333334" cy="256.3412698412698" r="8.5"/>
    <circle cx="594.6284722222221" cy="261.1448412698412" r="9.705904774487397"/>
    <circle cx="596.2916666666666" cy="265.6428571428571" r="11.0"/>
    <circle cx="597.8229166666666" cy="269.83531746031747" r="12.294095225512603"/>
    <circle cx="599.2222222222222" cy="273.7222222222222" r="13.5"/>
    <circle cx="600.4895833333333" cy="277.3035714285714" r="14.535533905932738"/>
    <circle cx="601.625" cy="280.57936507936506" r="15.330127018922195"/>
    <circle cx="602.6284722222222" cy="283.54960317460313" r="15.82962913144534"/>
    <circle cx="603.5" cy="286.21428571428567" r="16"/>
    <circle cx="604.2135416666666" cy="288.2290736607143" r="15.98078528040323"/>
    <circle cx="605.1458333333333" cy="290.50558035714283" r="15.923879532511286"/>
    <circle cx="606.296875" cy="293.0438058035714" r="15.831469612302545"/>
    <circle cx="607.6666666666666" cy="295.84375" r="15.707106781186548"/>
    <circle cx="609.2552083333333" cy="298.90541294642856" r="15.555570233019603"/>
    <circle cx="611.0625" cy="302.2287946428571" r="15.38268343236509"/>
    <circle cx="613.0885416666666" cy="305.81389508928567" r="15.195090322016128"/>
    <circle cx="615.3333333333333" cy="309.6607142857143" r="15.0"/>
    <circle cx="617.7968749999999" cy="313.7692522321429" r="14.804909677983872"/>
    <circle cx="620.4791666666665" cy="318.13950892857144" r="14.61731656763491"/>
    <circle cx="623.3802083333333" cy="322.771484375" r="14.444429766980399"/>
    <circle cx="626.4999999999999" cy="327.6651785714286" r="14.292893218813452"/>
    <circle cx="629.8385416666665" cy="332.82059151785717" r="14.168530387697455"/>
    <circle cx="633.3958333333333" cy="338.2377232142857" r="14.076120467488714"/>
    <circle cx="637.1718749999999" cy="343.9165736607143" r="14.01921471959677"/>
    <circle cx="641.1666666666665" cy="349.8571428571429" r="14"/>
    <circle cx="644.0075614366729" cy="354.06467728868495" r="14.102454593600362"/>
    <circle cx="646.8201008191555" cy="358.2400756143668" r="14.407909839174208"/>
    <circle cx="649.6042848141145" cy="362.3833378341885" r="14.910675683440017"/>
    <circle cx="652.36011342155" cy="366.49446394815016" r="15.601386549988625"/>
    <circle cx="655.0875866414618" cy="370.57345395625174" r="16.467175802251383"/>
    <circle cx="657.7867044738498" cy="374.6203078584931" r="17.491915424594804"/>
    <circle cx="660.4574669187143" cy="378.6350256548744" r="18.656516456736462"/>
    <circle cx="663.0998739760553" cy="382.61760734539564" r="19.939284584957328"/>
    <circle cx="665.7139256458726" cy="386.56805293005675" r="21.316324266119153"/>
    <circle cx="668.2996219281663" cy="390.48636240885776" r="22.761983856421026"/>
    <circle cx="670.8569628229362" cy="394.37253578179855" r="24.24933345298862"/>
    <circle cx="673.3859483301826" cy="398.22657304887935" r="25.750666547011377"/>
    <circle cx="675.8865784499054" cy="402.0484742100999" r="27.23801614357897"/>
    <circle cx="678.3588531821044" cy="405.8382392654604" r="28.683675733880847"/>
    <circle cx="680.80277252678" cy="409.5958682149609" r="30.060715415042672"/>
    <circle cx="683.2183364839318" cy="413.32136105860116" r="31.343483543263538"/>
    <circle cx="685.60554505356" cy="417.0147177963813" r="32.50808457540519"/>
    <circle cx="687.9643982356647" cy="420.67593842830144" r="33.53282419774862"/>
    <circle cx="690.2948960302456" cy="424.30502295436133" r="34.398613450011375"/>
    <circle cx="692.597038437303" cy="427.9019713745612" r="35.08932431655998"/>
    <circle cx="694.8708254568367" cy="431.4667836889009" r="35.59209016082579"/>
    <circle cx="697.1162570888467" cy="434.9994598973805" r="35.89754540639964"/>
    <circle cx="699.3333333333333" cy="438.5" r="36"/>
    <circle cx="702.4277343749999" cy="443.45424107142856" r="35.827067523629076"/>
    <circle cx="705.3776041666665" cy="448.29910714285717" r="35.31491579260158"/>
    <circle cx="708.1829427083333" cy="453.03459821428567" r="34.48322651072291"/>
    <circle cx="710.8437499999999" cy="457.6607142857143" r="33.36396103067893"/>
    <circle cx="713.3600260416665" cy="462.1774553571428" r="32.00013209717642"/>
    <circle cx="715.7317708333333" cy="466.5848214285714" r="30.44415089128581"/>
    <circle cx="717.9589843749999" cy="470.8828125" r="28.755812898145155"/>
    <circle cx="720.0416666666665" cy="475.07142857142856" r="27.0"/>
    <circle cx="721.9798177083333" cy="479.1506696428571" r="25.24418710185485"/>
    <circle cx="723.7734374999999" cy="483.12053571428567" r="23.55584910871419"/>
    <circle cx="725.4225260416665" cy="486.9810267857142" r="21.99986790282358"/>
    <circle cx="726.9270833333333" cy="490.73214285714283" r="20.63603896932107"/>
    <circle cx="728.2871093749999" cy="494.37388392857144" r="19.516773489277092"/>
    <circle cx="729.5026041666665" cy="497.90625" r="18.68508420739842"/>
    <circle cx="730.5735677083333" cy="501.32924107142856" r="18.172932476370924"/>
    <circle cx="731.4999999999999" cy="504.6428571428571" r="18"/>
    <circle cx="732.3039215686274" cy="507.7965892239248" r="17.957432749209755"/>
    <circle cx="733.1078431372546" cy="511.12333168561537" r="17.83118057351089"/>
    <circle cx="733.9117647058822" cy="514.6230845279288" r="17.625542839324037"/>
    <circle cx="734.7156862745096" cy="518.295847750865" r="17.347522293051647"/>
    <circle cx="735.519607843137" cy="522.141621354424" r="17.006586590948142"/>
    <circle cx="736.3235294117644" cy="526.160405338606" r="16.614345889441346"/>
    <circle cx="737.127450980392" cy="530.3521997034107" r="16.184157475180207"/>
    <circle cx="737.9313725490194" cy="534.7170044488383" r="15.730670898658255"/>
    <circle cx="738.7352941176468" cy="539.2548195748886" r="15.269329101341746"/>
    <circle cx="739.5392156862742" cy="543.965645081562" r="14.815842524819793"/>
    <circle cx="740.3431372549019" cy="548.8494809688581" r="14.385654110558654"/>
    <circle cx="741.1470588235293" cy="553.9063272367771" r="13.99341340905186"/>
    <circle cx="741.9509803921567" cy="559.1361838853188" r="13.652477706948353"/>
    <circle cx="742.7549019607842" cy="564.5390509144834" r="13.374457160675965"/>
    <circle cx="743.5588235294116" cy="570.1149283242709" r="13.168819426489112"/>
    <circle cx="744.3627450980391" cy="575.8638161146812" r="13.042567250790245"/>
    <circle cx="745.1666666666665" cy="581.7857142857142" r="13"/>
    <circle cx="745.986111111111" cy="587.376984126984" r="12.96201938253052"/>
    <circle cx="746.9259259259258" cy="592.8015873015871" r="12.84923155196477"/>
    <circle cx="747.986111111111" cy="598.0595238095239" r="12.665063509461097"/>
    <circle cx="749.1666666666664" cy="603.1507936507936" r="12.415111107797445"/>
    <circle cx="750.4675925925924" cy="608.0753968253969" r="12.106969024216347"/>
    <circle cx="751.8888888888888" cy="612.8333333333334" r="11.75"/>
    <circle cx="753.4305555555554" cy="617.4246031746031" r="11.355050358314172"/>
    <circle cx="755.0925925925924" cy="621.8492063492063" r="10.934120444167327"/>
    <circle cx="756.8749999999998" cy="626.1071428571428" r="10.5"/>
    <circle cx="758.7777777777776" cy="630.1984126984125" r="10.065879555832675"/>
    <circle cx="760.8009259259256" cy="634.1230158730158" r="9.644949641685828"/>
    <circle cx="762.9444444444442" cy="637.8809523809523" r="9.25"/>
    <circle cx="765.208333333333" cy="641.4722222222222" r="8.893030975783653"/>
    <circle cx="767.5925925925924" cy="644.8968253968253" r="8.584888892202555"/>
    <circle cx="770.097222222222" cy="648.1547619047618" r="8.334936490538903"/>
    <circle cx="772.722222222222" cy="651.2460317460316" r="8.15076844803523"/>
    <circle cx="775.4675925925923" cy="654.1706349206348" r="8.03798061746948"/>
    <circle cx="778.333333333333" cy="656.9285714285713" r="8"/>
    <circle cx="785.1768707482992" cy="663.4475218658891" r="9.28740471726855"/>
    <circle cx="790.659863945578" cy="669.2492711370262" r="12.894632575836464"/>
    <circle cx="794.7823129251698" cy="674.3338192419824" r="18.10722785856791"/>
    <circle cx="797.5442176870747" cy="678.7011661807579" r="23.892772141432086"/>
    <circle cx="798.9455782312923" cy="682.3513119533527" r="29.105367424163532"/>
    <circle cx="798.986394557823" cy="685.2842565597667" r="32.71259528273145"/>
    <circle cx="797.6666666666665" cy="687.5" r="34"/>
    <circle cx="796.816032295271" cy="687.9521337946944" r="33.96594619936781"/>
    <circle cx="795.9111880046133" cy="687.7791234140715" r="33.864944458808715"/>
    <circle cx="794.9521337946942" cy="686.9809688581315" r="33.70043427145923"/>
    <circle cx="793.938869665513" cy="685.5576701268743" r="33.47801783444132"/>
    <circle cx="792.8713956170702" cy="683.5092272202999" r="33.205269272758514"/>
    <circle cx="791.7497116493655" cy="680.8356401384082" r="32.891476711553075"/>
    <circle cx="790.5738177623991" cy="677.5369088811996" r="32.547325980144166"/>
    <circle cx="789.3437139561706" cy="673.6130334486736" r="32.1845367189266"/>
    <circle cx="788.0594002306805" cy="669.0640138408304" r="31.815463281073395"/>
    <circle cx="786.7208765859284" cy="663.8898500576702" r="31.452674019855834"/>
    <circle cx="785.3281430219147" cy="658.0905420991927" r="31.108523288446925"/>
    <circle cx="783.8811995386388" cy="651.666089965398" r="30.794730727241486"/>
    <circle cx="782.3800461361016" cy="644.6164936562861" r="30.521982165558683"/>
    <circle cx="780.8246828143022" cy="636.941753171857" r="30.29956572854077"/>
    <circle cx="779.2151095732411" cy="628.6418685121107" r="30.13505554119129"/>
    <circle cx="777.5513264129181" cy="619.7168396770473" r="30.034053800632197"/>
    <circle cx="775.8333333333333" cy="610.1666666666667" r="30"/>
    <circle cx="775.077216066482" cy="605.7488457987074" r="29.984630218530015"/>
    <circle cx="774.3702677746999" cy="601.3199445983381" r="29.93862586531225"/>
    <circle cx="773.712488457987" cy="596.8799630655586" r="29.862301196726985"/>
    <circle cx="773.1038781163435" cy="592.4289012003694" r="29.756177587652857"/>
    <circle cx="772.5444367497691" cy="587.9667590027701" r="29.620979969947758"/>
    <circle cx="772.034164358264" cy="583.4935364727609" r="29.4576318804292"/>
    <circle cx="771.5730609418282" cy="579.0092336103417" r="29.26724915218138"/>
    <circle cx="771.1611265004616" cy="574.5138504155125" r="29.05113229228377"/>
    <circle cx="770.7983610341643" cy="570.0073868882733" r="28.81075759802909"/>
    <circle cx="770.4847645429364" cy="565.4898430286243" r="28.547767072315835"/>
    <circle cx="770.2203370267774" cy="560.9612188365652" r="28.263957207103505"/>
    <circle cx="770.0050784856878" cy="556.4215143120961" r="27.96126671155092"/>
    <circle cx="769.8389889196676" cy="551.8707294552171" r="27.641763268666832"/>
    <circle cx="769.7220683287164" cy="547.3088642659279" r="27.307629410938365"/>
    <circle cx="769.6543167128347" cy="542.735918744229" r="26.961147611421076"/>
    <circle cx="769.6357340720222" cy="538.15189289012" r="26.604684692133596"/>
    <circle cx="769.6663204062788" cy="533.5567867036011" r="26.240675656263303"/>
    <circle cx="769.7460757156048" cy="528.9506001846723" r="25.871607054625496"/>
    <circle cx="769.875" cy="524.3333333333334" r="25.5"/>
    <circle cx="770.0530932594645" cy="519.7049861495846" r="25.128392945374504"/>
    <circle cx="770.2803554939982" cy="515.0655586334258" r="24.759324343736697"/>
    <circle cx="770.5567867036011" cy="510.41505078485693" r="24.395315307866404"/>
    <circle cx="770.8823868882733" cy="505.7534626038782" r="24.038852388578924"/>
    <circle cx="771.2571560480148" cy="501.08079409048946" r="23.69237058906164"/>
    <circle cx="771.6810941828255" cy="496.39704524469073" r="23.358236731333168"/>
    <circle cx="772.1542012927055" cy="491.70221606648204" r="23.03873328844908"/>
    <circle cx="772.6764773776547" cy="486.9963065558634" r="22.736042792896495"/>
    <circle cx="773.2479224376731" cy="482.27931671283477" r="22.452232927684165"/>
    <circle cx="773.8685364727609" cy="477.5512465373962" r="22.18924240197091"/>
    <circle cx="774.5383194829178" cy="472.81209602954766" r="21.94886770771623"/>
    <circle cx="775.257271468144" cy="468.06186518928905" r="21.73275084781862"/>
    <circle cx="776.0253924284395" cy="463.30055401662054" r="21.5423681195708"/>
    <circle cx="776.8426823638042" cy="458.52816251154206" r="21.379020030052242"/>
    <circle cx="777.7091412742383" cy="453.74469067405363" r="21.243822412347143"/>
    <circle cx="778.6247691597415" cy="448.9501385041552" r="21.13769880327301"/>
    <circle cx="779.589566020314" cy="444.14450600184676" r="21.06137413468775"/>
    <circle cx="780.6035318559558" cy="439.32779316712845" r="21.015369781469985"/>
    <circle cx="781.6666666666667" cy="434.50000000000006" r="21"/>
    <circle cx="782.5915977961434" cy="430.3167183195593" r="20.989808458441015"/>
    <circle cx="783.4876033057852" cy="426.11535812672184" r="20.95928576752373"/>
    <circle cx="784.3546831955924" cy="421.8959194214877" r="20.908587463884636"/>
    <circle cx="785.1928374655647" cy="417.6584022038568" r="20.83797189445799"/>
    <circle cx="786.0020661157026" cy="413.40280647382923" r="20.747798899999047"/>
    <circle cx="786.7823691460055" cy="409.12913223140504" r="20.638527981418072"/>
    <circle cx="787.5337465564741" cy="404.83737947658415" r="20.510715958269024"/>
    <circle cx="788.2561983471074" cy="400.52754820936644" r="20.365014131324724"/>
    <circle cx="788.9497245179064" cy="396.19963842975216" r="20.20216496369744"/>
    <circle cx="789.6143250688705" cy="391.85365013774106" r="20.022998297417033"/>
    <circle cx="790.25" cy="387.48958333333337" r="19.82842712474619"/>
    <circle cx="790.8567493112948" cy="383.107438016529" r="19.61944293578114"/>
    <circle cx="791.434573002755" cy="378.70721418732796" r="19.39711066604539"/>
    <circle cx="791.9834710743803" cy="374.2889118457301" r="19.162563269822392"/>
    <circle cx="792.5034435261708" cy="369.8525309917357" r="18.916995946880228"/>
    <circle cx="792.9944903581268" cy="365.39807162534447" r="18.661660052007544"/>
    <circle cx="793.456611570248" cy="360.92553374655654" r="18.397856718396394"/>
    <circle cx="793.8898071625343" cy="356.4349173553719" r="18.12693022736572"/>
    <circle cx="794.2940771349862" cy="351.9262224517907" r="17.850261158211907"/>
    <circle cx="794.6694214876032" cy="347.39944903581267" r="17.56925935309314"/>
    <circle cx="795.0158402203856" cy="342.85459710743805" r="17.28535673279693"/>
    <circle cx="795.3333333333334" cy="338.29166666666674" r="17.0"/>
    <circle cx="795.6219008264462" cy="333.7106577134987" r="16.714643267203073"/>
    <circle cx="795.8815426997246" cy="329.11157024793397" r="16.43074064690686"/>
    <circle cx="796.1122589531682" cy="324.4944042699725" r="16.149738841788093"/>
    <circle cx="796.314049586777" cy="319.8591597796144" r="15.873069772634281"/>
    <circle cx="796.486914600551" cy="315.20583677685954" r="15.602143281603606"/>
    <circle cx="796.6308539944904" cy="310.5344352617081" r="15.338339947992456"/>
    <circle cx="796.7458677685951" cy="305.8449552341599" r="15.083004053119774"/>
    <circle cx="796.8319559228651" cy="301.13739669421494" r="14.837436730177611"/>
    <circle cx="796.8891184573004" cy="296.41175964187335" r="14.602889333954613"/>
    <circle cx="796.9173553719008" cy="291.66804407713505" r="14.38055706421886"/>
    <circle cx="796.9166666666667" cy="286.9062500000001" r="14.17157287525381"/>
    <circle cx="796.8870523415978" cy="282.1263774104684" r="13.977001702582967"/>
    <circle cx="796.8285123966944" cy="277.3284263085401" r="13.797835036302558"/>
    <circle cx="796.741046831956" cy="272.512396694215" r="13.634985868675274"/>
    <circle cx="796.624655647383" cy="267.6782885674932" r="13.489284041730977"/>
    <circle cx="796.4793388429753" cy="262.8261019283747" r="13.361472018581926"/>
    <circle cx="796.3050964187329" cy="257.9558367768596" r="13.252201100000953"/>
    <circle cx="796.1019283746556" cy="253.06749311294774" r="13.16202810554201"/>
    <circle cx="795.8698347107437" cy="248.1610709366392" r="13.091412536115362"/>
    <circle cx="795.6088154269974" cy="243.236570247934" r="13.040714232476269"/>
    <circle cx="795.318870523416" cy="238.29399104683205" r="13.010191541558985"/>
    <circle cx="795.0" cy="233.33333333333343" r="13"/>
    <circle cx="794.3143939393941" cy="223.64049586776872" r="13.09669630213114"/>
    <circle cx="793.5909090909091" cy="214.44077134986233" r="13.384816750662274"/>
    <circle cx="792.8295454545455" cy="205.73415977961443" r="13.858496044132075"/>
    <circle cx="792.030303030303" cy="197.52066115702485" r="14.50809143810378"/>
    <circle cx="791.1931818181818" cy="189.80027548209375" r="15.320379043634546"/>
    <circle cx="790.3181818181819" cy="182.573002754821" r="16.278823027519792"/>
    <circle cx="789.4053030303031" cy="175.83884297520672" r="17.36391223417182"/>
    <circle cx="788.4545454545455" cy="169.59779614325078" r="18.55355737648208"/>
    <circle cx="787.465909090909" cy="163.84986225895324" r="19.82354071000642"/>
    <circle cx="786.439393939394" cy="158.5950413223141" r="21.148009036403792"/>
    <circle cx="785.375" cy="153.83333333333343" r="22.5"/>
    <circle cx="784.2727272727273" cy="149.5647382920111" r="23.851990963596208"/>
    <circle cx="783.1325757575758" cy="145.78925619834718" r="25.17645928999358"/>
    <circle cx="781.9545454545455" cy="142.50688705234168" r="26.446442623517918"/>
    <circle cx="780.7386363636365" cy="139.71763085399456" r="27.636087765828172"/>
    <circle cx="779.4848484848485" cy="137.42148760330585" r="28.721176972480208"/>
    <circle cx="778.1931818181819" cy="135.61845730027554" r="29.679620956365454"/>
    <circle cx="776.8636363636365" cy="134.30853994490366" r="30.491908561896224"/>
    <circle cx="775.4962121212122" cy="133.49173553719015" r="31.141503955867925"/>
    <circle cx="774.0909090909091" cy="133.16804407713505" r="31.615183249337726"/>
    <circle cx="772.6477272727275" cy="133.33746556473835" r="31.90330369786886"/>
    <circle cx="771.1666666666667" cy="134.00000000000006" r="32"/>
    <circle cx="768.7897764628535" cy="135.76923076923083" r="32.07264545643487"/>
    <circle cx="766.7360289283367" cy="138.00000000000003" r="32.286359935866976"/>
    <circle cx="765.0054240631163" cy="140.6923076923077" r="32.62872312957225"/>
    <circle cx="763.5979618671927" cy="143.84615384615387" r="33.07983813317211"/>
    <circle cx="762.5136423405654" cy="147.4615384615385" r="33.61348778239366"/>
    <circle cx="761.7524654832347" cy="151.53846153846155" r="34.19865829936169"/>
    <circle cx="761.3144312952004" cy="156.0769230769231" r="34.801341700638304"/>
    <circle cx="761.1995397764629" cy="161.0769230769231" r="35.38651221760634"/>
    <circle cx="761.4077909270217" cy="166.53846153846155" r="35.92016186682789"/>
    <circle cx="761.939184746877" cy="172.46153846153845" r="36.37127687042775"/>
    <circle cx="762.7937212360289" cy="178.84615384615384" r="36.713640064133024"/>
    <circle cx="763.9714003944773" cy="185.6923076923077" r="36.92735454356513"/>
    <circle cx="765.4722222222222" cy="193.0" r="37"/>
    <circle cx="766.456611570248" cy="197.45971074380165" r="36.84223234915446"/>
    <circle cx="767.4451331496784" cy="201.9297520661157" r="36.37214109102471"/>
    <circle cx="768.4377869605142" cy="206.41012396694214" r="35.59929592799504"/>
    <circle cx="769.4345730027547" cy="210.90082644628097" r="34.53942975888331"/>
    <circle cx="770.4354912764003" cy="215.4018595041322" r="33.214118402491"/>
    <circle cx="771.4405417814507" cy="219.91322314049586" r="31.65034137615192"/>
    <circle cx="772.4497245179064" cy="224.4349173553719" r="29.879932670561764"/>
    <circle cx="773.4630394857667" cy="228.96694214876032" r="27.93893270152924"/>
    <circle cx="774.480486685032" cy="233.5092975206611" r="25.86685463104216"/>
    <circle cx="775.5020661157023" cy="238.06198347107434" r="23.70587999323592"/>
    <circle cx="776.5277777777776" cy="242.625" r="21.5"/>
    <circle cx="777.557621671258" cy="247.19834710743802" r="19.294120006764082"/>
    <circle cx="778.5915977961432" cy="251.78202479338842" r="17.13314536895784"/>
    <circle cx="779.6297061524333" cy="256.37603305785126" r="15.06106729847076"/>
    <circle cx="780.6719467401285" cy="260.98037190082647" r="13.120067329438243"/>
    <circle cx="781.7183195592286" cy="265.59504132231405" r="11.349658623848082"/>
    <circle cx="782.7688246097337" cy="270.22004132231405" r="9.785881597508997"/>
    <circle cx="783.8234618916437" cy="274.85537190082647" r="8.460570241116688"/>
    <circle cx="784.8822314049586" cy="279.50103305785126" r="7.400704072004963"/>
    <circle cx="785.9451331496786" cy="284.1570247933884" r="6.627858908975291"/>
    <circle cx="787.0121671258034" cy="288.82334710743805" r="6.157767650845543"/>
    <circle cx="788.0833333333333" cy="293.5" r="6"/>
    <circle cx="789.3440289319791" cy="298.86288088642664" r="6.075012831285028"/>
    <circle cx="790.6407356109571" cy="304.10941828254846" r="6.298005170646509"/>
    <circle cx="791.9734533702675" cy="309.2396121883656" r="6.66289436836431"/>
    <circle cx="793.3421822099107" cy="314.2534626038781" r="7.159727198319835"/>
    <circle cx="794.7469221298861" cy="319.15096952908596" r="7.774951356058424"/>
    <circle cx="796.1876731301938" cy="323.9321329639889" r="8.491785130326651"/>
    <circle cx="797.664435210834" cy="328.59695290858724" r="9.290675164408668"/>
    <circle cx="799.1772083718066" cy="333.1454293628809" r="10.149829820725603"/>
    <circle cx="800.7259926131118" cy="337.57756232686984" r="11.045813599902171"/>
    <circle cx="802.3107879347491" cy="341.893351800554" r="11.954186400097829"/>
    <circle cx="803.931594336719" cy="346.0927977839335" r="12.850170179274397"/>
    <circle cx="805.5884118190211" cy="350.1759002770083" r="13.709324835591332"/>
    <circle cx="807.2812403816558" cy="354.1426592797784" r="14.508214869673347"/>
    <circle cx="809.0100800246229" cy="357.99307479224376" r="15.225048643941575"/>
    <circle cx="810.7749307479223" cy="361.7271468144044" r="15.840272801680165"/>
    <circle cx="812.5757925515543" cy="365.34487534626044" r="16.337105631635687"/>
    <circle cx="814.4126654355184" cy="368.84626038781164" r="16.701994829353488"/>
    <circle cx="816.2855493998152" cy="372.23130193905814" r="16.92498716871497"/>
    <circle cx="818.1944444444443" cy="375.5" r="17"/>
    <circle cx="819.9749999999999" cy="378.62875" r="16.987688340595138"/>
    <circle cx="821.6555555555555" cy="381.915" r="16.951056516295154"/>
    <circle cx="823.236111111111" cy="385.35875" r="16.891006524188366"/>
    <circle cx="824.7166666666667" cy="388.9600000000001" r="16.809016994374947"/>
    <circle cx="826.0972222222221" cy="392.71875" r="16.707106781186546"/>
    <circle cx="827.3777777777775" cy="396.635" r="16.587785252292473"/>
    <circle cx="828.5583333333332" cy="400.70874999999995" r="16.453990499739547"/>
    <circle cx="829.6388888888888" cy="404.94" r="16.309016994374947"/>
    <circle cx="830.6194444444445" cy="409.32875" r="16.15643446504023"/>
    <circle cx="831.5" cy="413.875" r="16.0"/>
    <circle cx="832.2805555555555" cy="418.57875" r="15.843565534959769"/>
    <circle cx="832.961111111111" cy="423.44" r="15.690983005625053"/>
    <circle cx="833.5416666666665" cy="428.45875" r="15.546009500260453"/>
    <circle cx="834.0222222222221" cy="433.635" r="15.412214747707527"/>
    <circle cx="834.4027777777776" cy="438.96875" r="15.292893218813452"/>
    <circle cx="834.6833333333333" cy="444.46000000000004" r="15.190983005625053"/>
    <circle cx="834.8638888888887" cy="450.10874999999993" r="15.108993475811632"/>
    <circle cx="834.9444444444443" cy="455.915" r="15.048943483704846"/>
    <circle cx="834.925" cy="461.87875" r="15.012311659404862"/>
    <circle cx="834.8055555555554" cy="468.0" r="15"/>
    <circle cx="834.6872637944065" cy="473.8390022675736" r="14.949738718013078"/>
    <circle cx="834.6551398337112" cy="479.54648526077096" r="14.800077626037634"/>
    <circle cx="834.7091836734694" cy="485.1224489795919" r="14.554359905560887"/>
    <circle cx="834.8493953136809" cy="490.56689342403627" r="14.218074484421978"/>
    <circle cx="835.075774754346" cy="495.8798185941042" r="13.798733423234218"/>
    <circle cx="835.3883219954647" cy="501.0612244897959" r="13.305704108364301"/>
    <circle cx="835.7870370370371" cy="506.11111111111114" r="12.75"/>
    <circle cx="836.2719198790626" cy="511.0294784580499" r="12.144034609648779"/>
    <circle cx="836.8429705215417" cy="515.8163265306122" r="11.501344202803415"/>
    <circle cx="837.5001889644745" cy="520.4716553287981" r="10.83628542113891"/>
    <circle cx="838.2435752078608" cy="524.9954648526077" r="10.16371457886109"/>
    <circle cx="839.0731292517005" cy="529.3877551020407" r="9.498655797196585"/>
    <circle cx="839.9888510959938" cy="533.6485260770976" r="8.855965390351223"/>
    <circle cx="840.9907407407406" cy="537.7777777777778" r="8.25"/>
    <circle cx="842.0787981859409" cy="541.7755102040817" r="7.6942958916357"/>
    <circle cx="843.2530234315947" cy="545.641723356009" r="7.201266576765783"/>
    <circle cx="844.513416477702" cy="549.3764172335601" r="6.781925515578024"/>
    <circle cx="845.8599773242629" cy="552.9795918367347" r="6.4456400944391135"/>
    <circle cx="847.2927059712772" cy="556.4512471655329" r="6.199922373962366"/>
    <circle cx="848.8116024187451" cy="559.7913832199547" r="6.050261281986922"/>
    <circle cx="850.4166666666665" cy="563.0" r="6"/>
    <circle cx="852.138472222222" cy="566.3562499999999" r="6.1600515722632085"/>
    <circle cx="853.8427777777777" cy="569.825" r="6.636265288163004"/>
    <circle cx="855.5295833333331" cy="573.40625" r="7.416915185551217"/>
    <circle cx="857.1988888888887" cy="577.1000000000001" r="8.482779073125684"/>
    <circle cx="858.8506944444442" cy="580.90625" r="9.807611844574883"/>
    <circle cx="860.4849999999998" cy="584.8249999999999" r="11.35879172019785"/>
    <circle cx="862.1018055555554" cy="588.85625" r="13.098123503385892"/>
    <circle cx="863.701111111111" cy="593.0" r="14.982779073125684"/>
    <circle cx="865.2829166666667" cy="597.2562500000001" r="16.966351954477"/>
    <circle cx="866.847222222222" cy="601.625" r="19.0"/>
    <circle cx="868.3940277777776" cy="606.10625" r="21.033648045523"/>
    <circle cx="869.9233333333332" cy="610.6999999999999" r="23.017220926874316"/>
    <circle cx="871.4351388888888" cy="615.40625" r="24.901876496614108"/>
    <circle cx="872.9294444444442" cy="620.2249999999999" r="26.641208279802147"/>
    <circle cx="874.4062499999998" cy="625.15625" r="28.192388155425117"/>
    <circle cx="875.8655555555555" cy="630.2" r="29.517220926874316"/>
    <circle cx="877.3073611111108" cy="635.3562499999999" r="30.58308481444878"/>
    <circle cx="878.7316666666666" cy="640.625" r="31.363734711836997"/>
    <circle cx="880.138472222222" cy="646.00625" r="31.83994842773679"/>
    <circle cx="881.5277777777776" cy="651.5" r="32"/>
    <circle cx="883.422090729783" cy="659.7485207100592" r="31.622243626538676"/>
    <circle cx="884.8571663379353" cy="667.4171597633136" r="30.51092833349173"/>
    <circle cx="885.8330046022351" cy="674.5059171597632" r="28.730639726224315"/>
    <circle cx="886.3496055226823" cy="681.0147928994083" r="26.384841707505025"/>
    <circle cx="886.4069690992768" cy="686.9437869822485" r="23.60986353155296"/>
    <circle cx="886.0050953320182" cy="692.292899408284" r="20.5669768433192"/>
    <circle cx="885.1439842209071" cy="697.0621301775147" r="17.433023156680804"/>
    <circle cx="883.8236357659433" cy="701.2514792899408" r="14.39013646844704"/>
    <circle cx="882.0440499671267" cy="704.8609467455622" r="11.615158292494975"/>
    <circle cx="879.8052268244575" cy="707.8905325443786" r="9.269360273775685"/>
    <circle cx="877.1071663379355" cy="710.3402366863905" r="7.4890716665082735"/>
    <circle cx="873.9498685075607" cy="712.2100591715977" r="6.377756373461324"/>
    <circle cx="870.3333333333333" cy="713.5" r="6"/>
    <circle cx="866.5083333333332" cy="714.0833333333333" r="6.221482129121056"/>
    <circle cx="863.3666666666667" cy="713.6666666666667" r="6.870834875401148"/>
    <circle cx="860.9083333333333" cy="712.25" r="7.903805922287441"/>
    <circle cx="859.1333333333332" cy="709.8333333333334" r="9.25"/>
    <circle cx="858.0416666666664" cy="706.4166666666666" r="10.817676206833616"/>
    <circle cx="857.6333333333333" cy="702.0" r="12.5"/>
    <circle cx="857.9083333333332" cy="696.5833333333334" r="14.182323793166384"/>
    <circle cx="858.8666666666666" cy="690.1666666666667" r="15.749999999999998"/>
    <circle cx="860.5083333333332" cy="682.75" r="17.09619407771256"/>
    <circle cx="862.8333333333333" cy="674.3333333333334" r="18.129165124598853"/>
    <circle cx="865.8416666666665" cy="664.9166666666667" r="18.778517870878943"/>
    <circle cx="869.5333333333332" cy="654.5" r="19"/>
    <circle cx="871.4517333333332" cy="649.2968" r="19.067025038826937"/>
    <circle cx="873.3349333333333" cy="644.1672" r="19.267043130406634"/>
    <circle cx="875.1829333333333" cy="639.1111999999999" r="19.596899869949862"/>
    <circle cx="876.9957333333331" cy="634.1288" r="20.05139321962716"/>
    <circle cx="878.7733333333334" cy="629.2200000000001" r="20.623355547812945"/>
    <circle cx="880.5157333333332" cy="624.3847999999999" r="21.303766666918"/>
    <circle cx="882.2229333333332" cy="619.6232" r="22.081896087136137"/>
    <circle cx="883.894933333333" cy="614.9351999999999" r="22.94547224267853"/>
    <circle cx="885.5317333333332" cy="610.3208000000001" r="23.88087602169688"/>
    <circle cx="887.1333333333332" cy="605.78" r="24.87335554781295"/>
    <circle cx="888.6997333333333" cy="601.3128" r="25.90725882602134"/>
    <circle cx="890.2309333333333" cy="596.9192" r="26.966280584000835"/>
    <circle cx="891.7269333333332" cy="592.5992" r="28.033719415999165"/>
    <circle cx="893.1877333333332" cy="588.3527999999999" r="29.09274117397866"/>
    <circle cx="894.6133333333332" cy="584.18" r="30.12664445218705"/>
    <circle cx="896.0037333333331" cy="580.0808" r="31.119123978303115"/>
    <circle cx="897.3589333333332" cy="576.0552" r="32.05452775732147"/>
    <circle cx="898.6789333333331" cy="572.1032" r="32.91810391286386"/>
    <circle cx="899.9637333333332" cy="568.2248" r="33.696233333082"/>
    <circle cx="901.2133333333331" cy="564.42" r="34.37664445218705"/>
    <circle cx="902.4277333333332" cy="560.6888" r="34.94860678037284"/>
    <circle cx="903.6069333333331" cy="557.0311999999999" r="35.403100130050134"/>
    <circle cx="904.7509333333331" cy="553.4472000000001" r="35.732956869593366"/>
    <circle cx="905.8597333333332" cy="549.9368000000001" r="35.93297496117306"/>
    <circle cx="906.9333333333332" cy="546.5" r="36"/>
    <circle cx="908.0785812672176" cy="542.5960743801654" r="35.95928576752373"/>
    <circle cx="909.1143250688704" cy="538.6115702479339" r="35.837971894457986"/>
    <circle cx="910.0405647382918" cy="534.5464876033058" r="35.63852798141807"/>
    <circle cx="910.8573002754817" cy="530.4008264462809" r="35.36501413132473"/>
    <circle cx="911.5645316804405" cy="526.1745867768594" r="35.02299829741703"/>
    <circle cx="912.1622589531678" cy="521.8677685950413" r="34.61944293578114"/>
    <circle cx="912.6504820936639" cy="517.4803719008265" r="34.16256326982239"/>
    <circle cx="913.0292011019282" cy="513.0123966942149" r="33.66166005200755"/>
    <circle cx="913.2984159779611" cy="508.46384297520655" r="33.12693022736572"/>
    <circle cx="913.4581267217629" cy="503.83471074380157" r="32.569259353093145"/>
    <circle cx="913.5083333333332" cy="499.125" r="32.0"/>
    <circle cx="913.449035812672" cy="494.3347107438017" r="31.43074064690686"/>
    <circle cx="913.2802341597795" cy="489.4638429752066" r="30.87306977263428"/>
    <circle cx="913.0019283746556" cy="484.5123966942149" r="30.338339947992456"/>
    <circle cx="912.6141184573003" cy="479.48037190082647" r="29.83743673017761"/>
    <circle cx="912.1168044077133" cy="474.3677685950413" r="29.38055706421886"/>
    <circle cx="911.5099862258952" cy="469.1745867768595" r="28.977001702582967"/>
    <circle cx="910.7936639118457" cy="463.90082644628103" r="28.634985868675273"/>
    <circle cx="909.9678374655647" cy="458.54648760330576" r="28.361472018581928"/>
    <circle cx="909.0325068870523" cy="453.11157024793386" r="28.16202810554201"/>
    <circle cx="907.9876721763085" cy="447.5960743801653" r="28.04071423247627"/>
    <circle cx="906.8333333333333" cy="442.0" r="28"/>
    <circle cx="905.7514807813484" cy="436.63988657844993" r="27.925487568290645"/>
    <circle cx="904.8189666036548" cy="431.34215500945186" r="27.703338298782395"/>
    <circle cx="904.035790800252" cy="426.10680529300566" r="27.337690412043624"/>
    <circle cx="903.4019533711404" cy="420.9338374291115" r="26.83535523637191"/>
    <circle cx="902.91745431632" cy="415.82325141776937" r="26.20569032563536"/>
    <circle cx="902.5822936357905" cy="410.77504725897916" r="25.460425145749234"/>
    <circle cx="902.3964713295524" cy="405.789224952741" r="24.613442576918935"/>
    <circle cx="902.3599873976053" cy="400.8657844990548" r="23.680520301849217"/>
    <circle cx="902.4728418399496" cy="396.00472589792065" r="22.679036897367887"/>
    <circle cx="902.7350346565847" cy="391.2060491493384" r="21.62764810442107"/>
    <circle cx="903.1465658475108" cy="386.4697542533081" r="20.54593930691737"/>
    <circle cx="903.7074354127283" cy="381.79584120982986" r="19.45406069308263"/>
    <circle cx="904.4176433522368" cy="377.1843100189036" r="18.37235189557893"/>
    <circle cx="905.2771896660363" cy="372.63516068052934" r="17.32096310263211"/>
    <circle cx="906.2860743541271" cy="368.148393194707" r="16.319479698150783"/>
    <circle cx="907.4442974165089" cy="363.7240075614367" r="15.386557423081063"/>
    <circle cx="908.7518588531818" cy="359.3620037807184" r="14.53957485425077"/>
    <circle cx="910.208758664146" cy="355.062381852552" r="13.79430967436464"/>
    <circle cx="911.814996849401" cy="350.8251417769376" r="13.164644763628091"/>
    <circle cx="913.5705734089476" cy="346.6502835538753" r="12.662309587956377"/>
    <circle cx="915.4754883427848" cy="342.5378071833648" r="12.296661701217607"/>
    <circle cx="917.5297416509136" cy="338.48771266540643" r="12.074512431709355"/>
    <circle cx="919.7333333333331" cy="334.5" r="12"/>
    <circle cx="921.7581333333331" cy="330.8184" r="12.015770597371045"/>
    <circle cx="923.6405333333332" cy="327.0536" r="12.062833677742738"/>
    <circle cx="925.3805333333331" cy="323.20559999999995" r="12.140447028223496"/>
    <circle cx="926.9781333333331" cy="319.27439999999996" r="12.247386639912273"/>
    <circle cx="928.4333333333333" cy="315.26000000000005" r="12.381966011250105"/>
    <circle cx="929.7461333333332" cy="311.16240000000005" r="12.542062745157176"/>
    <circle cx="930.9165333333332" cy="306.9816" r="12.725152020502621"/>
    <circle cx="931.9445333333331" cy="302.71759999999995" r="12.928346410042007"/>
    <circle cx="932.8301333333332" cy="298.3704" r="13.148441416869854"/>
    <circle cx="933.5733333333332" cy="293.94" r="13.381966011250105"/>
    <circle cx="934.1741333333332" cy="289.42640000000006" r="13.62523737082855"/>
    <circle cx="934.6325333333332" cy="284.8296" r="13.874418960941373"/>
    <circle cx="934.9485333333332" cy="280.1496" r="14.125581039058627"/>
    <circle cx="935.1221333333331" cy="275.3864" r="14.37476262917145"/>
    <circle cx="935.1533333333332" cy="270.54" r="14.618033988749895"/>
    <circle cx="935.0421333333331" cy="265.6104" r="14.851558583130146"/>
    <circle cx="934.7885333333331" cy="260.5976" r="15.071653589957993"/>
    <circle cx="934.3925333333332" cy="255.5016" r="15.27484797949738"/>
    <circle cx="933.8541333333332" cy="250.32240000000002" r="15.457937254842822"/>
    <circle cx="933.1733333333332" cy="245.06" r="15.618033988749895"/>
    <circle cx="932.3501333333331" cy="239.7144" r="15.752613360087727"/>
    <circle cx="931.3845333333331" cy="234.2856" r="15.859552971776502"/>
    <circle cx="930.2765333333332" cy="228.7736" r="15.937166322257262"/>
    <circle cx="929.0261333333333" cy="223.1784" r="15.984229402628955"/>
    <circle cx="927.6333333333332" cy="217.5" r="16"/>
    <circle cx="925.3124444444444" cy="208.28444444444443" r="16.174819194129554"/>
    <circle cx="923.2297777777777" cy="199.70444444444445" r="16.691636338859194"/>
    <circle cx="921.3853333333334" cy="191.76000000000002" r="17.52786404500042"/>
    <circle cx="919.7791111111111" cy="184.45111111111115" r="18.646955149129134"/>
    <circle cx="918.411111111111" cy="177.77777777777783" r="20.0"/>
    <circle cx="917.2813333333332" cy="171.74" r="21.52786404500042"/>
    <circle cx="916.3897777777777" cy="166.33777777777777" r="23.163772293858774"/>
    <circle cx="915.7364444444443" cy="161.57111111111112" r="24.836227706141226"/>
    <circle cx="915.3213333333332" cy="157.44" r="26.47213595499958"/>
    <circle cx="915.1444444444444" cy="153.94444444444446" r="28.0"/>
    <circle cx="915.2057777777777" cy="151.08444444444444" r="29.353044850870862"/>
    <circle cx="915.5053333333333" cy="148.86" r="30.47213595499958"/>
    <circle cx="916.0431111111111" cy="147.2711111111111" r="31.30836366114081"/>
    <circle cx="916.819111111111" cy="146.3177777777778" r="31.825180805870446"/>
    <circle cx="917.8333333333333" cy="146.0" r="32"/>
    <circle cx="918.941189236111" cy="146.27669270833334" r="31.74060128544361"/>
    <circle cx="920.1397569444443" cy="147.10677083333334" r="30.972373688902373"/>
    <circle cx="921.4290364583333" cy="148.490234375" r="29.72483976608436"/>
    <circle cx="922.8090277777778" cy="150.42708333333334" r="28.04594154601839"/>
    <circle cx="924.2797309027778" cy="152.91731770833334" r="26.00019814576463"/>
    <circle cx="925.8411458333333" cy="155.9609375" r="23.666226336928712"/>
    <circle cx="927.4932725694445" cy="159.55794270833334" r="21.133719347217735"/>
    <circle cx="929.2361111111111" cy="163.70833333333334" r="18.5"/>
    <circle cx="931.0696614583333" cy="168.412109375" r="15.866280652782269"/>
    <circle cx="932.9939236111111" cy="173.66927083333334" r="13.333773663071291"/>
    <circle cx="935.0088975694443" cy="179.47981770833334" r="10.999801854235372"/>
    <circle cx="937.1145833333333" cy="185.84375" r="8.95405845398161"/>
    <circle cx="939.3109809027777" cy="192.76106770833334" r="7.2751602339156385"/>
    <circle cx="941.5980902777777" cy="200.23177083333334" r="6.027626311097627"/>
    <circle cx="943.9759114583333" cy="208.255859375" r="5.25939871455639"/>
    <circle cx="946.4444444444443" cy="216.83333333333334" r="5"/>
    <circle cx="947.9544707429322" cy="222.25172583826432" r="5.054683444264596"/>
    <circle cx="949.3905325443787" cy="227.60946745562134" r="5.21793636930461"/>
    <circle cx="950.7526298487836" cy="232.90655818540435" r="5.487378179859388"/>
    <circle cx="952.0407626561471" cy="238.14299802761343" r="5.859079807600926"/>
    <circle cx="953.2549309664694" cy="243.31878698224855" r="6.327621005797577"/>
    <circle cx="954.3951347797502" cy="248.43392504930966" r="6.886169388716742"/>
    <circle cx="955.4613740959895" cy="253.4884122287969" r="7.526580063194036"/>
    <circle cx="956.4536489151873" cy="258.4822485207101" r="8.239514399516331"/>
    <circle cx="957.3719592373437" cy="263.41543392504934" r="9.014576209671736"/>
    <circle cx="958.216305062459" cy="268.28796844181466" r="9.840463347180982"/>
    <circle cx="958.9866863905324" cy="273.0998520710059" r="10.705132517843317"/>
    <circle cx="959.6831032215648" cy="277.8510848126233" r="11.595974898085078"/>
    <circle cx="960.3055555555557" cy="282.5416666666667" r="12.5"/>
    <circle cx="960.854043392505" cy="287.1715976331361" r="13.404025101914922"/>
    <circle cx="961.3285667324128" cy="291.74087771203153" r="14.294867482156683"/>
    <circle cx="961.7291255752796" cy="296.2495069033531" r="15.159536652819018"/>
    <circle cx="962.0557199211046" cy="300.6974852071006" r="15.985423790328264"/>
    <circle cx="962.3083497698882" cy="305.08481262327416" r="16.76048560048367"/>
    <circle cx="962.4870151216305" cy="309.41148915187375" r="17.47341993680596"/>
    <circle cx="962.5917159763314" cy="313.6775147928994" r="18.11383061128326"/>
    <circle cx="962.6224523339909" cy="317.8828895463511" r="18.672378994202422"/>
    <circle cx="962.5792241946089" cy="322.0276134122288" r="19.140920192399072"/>
    <circle cx="962.4620315581856" cy="326.11168639053255" r="19.51262182014061"/>
    <circle cx="962.2708744247207" cy="330.13510848126236" r="19.78206363069539"/>
    <circle cx="962.0057527942143" cy="334.0978796844181" r="19.945316555735403"/>
    <circle cx="961.6666666666667" cy="338.0" r="20"/>
    <circle cx="961.3353174603177" cy="341.63159013605446" r="20.00314389505338"/>
    <circle cx="961.0396825396826" cy="345.3358843537415" r="20.012536043909087"/>
    <circle cx="960.779761904762" cy="349.11288265306126" r="20.028058334845817"/>
    <circle cx="960.5555555555558" cy="352.9625850340136" r="20.04951556604879"/>
    <circle cx="960.3670634920635" cy="356.88499149659856" r="20.076637900385858"/>
    <circle cx="960.2142857142858" cy="360.8801020408163" r="20.109084258765986"/>
    <circle cx="960.0972222222223" cy="364.9479166666667" r="20.146446609406727"/>
    <circle cx="960.0158730158731" cy="369.08843537414964" r="20.188255099070634"/>
    <circle cx="959.9702380952383" cy="373.30165816326536" r="20.233983961742332"/>
    <circle cx="959.9603174603174" cy="377.5875850340136" r="20.28305813044122"/>
    <circle cx="959.9861111111113" cy="381.9462159863946" r="20.334860469022416"/>
    <circle cx="960.047619047619" cy="386.37755102040813" r="20.38873953302184"/>
    <circle cx="960.1448412698413" cy="390.88159013605446" r="20.444017761948345"/>
    <circle cx="960.2777777777778" cy="395.45833333333337" r="20.5"/>
    <circle cx="960.4464285714287" cy="400.10778061224494" r="20.555982238051655"/>
    <circle cx="960.6507936507937" cy="404.82993197278915" r="20.61126046697816"/>
    <circle cx="960.890873015873" cy="409.624787414966" r="20.665139530977584"/>
    <circle cx="961.1666666666667" cy="414.49234693877554" r="20.71694186955878"/>
    <circle cx="961.4781746031747" cy="419.4326105442177" r="20.766016038257668"/>
    <circle cx="961.8253968253969" cy="424.44557823129253" r="20.811744900929366"/>
    <circle cx="962.2083333333334" cy="429.53125" r="20.853553390593273"/>
    <circle cx="962.6269841269842" cy="434.6896258503401" r="20.890915741234014"/>
    <circle cx="963.0813492063492" cy="439.9207057823129" r="20.923362099614142"/>
    <circle cx="963.5714285714287" cy="445.22448979591843" r="20.95048443395121"/>
    <circle cx="964.0972222222222" cy="450.6009778911565" r="20.971941665154183"/>
    <circle cx="964.6587301587301" cy="456.0501700680272" r="20.987463956090913"/>
    <circle cx="965.2559523809524" cy="461.5720663265306" r="20.996856104946623"/>
    <circle cx="965.8888888888889" cy="467.1666666666667" r="21"/>
    <circle cx="966.4629394276528" cy="472.13360395023943" r="20.80474196694704"/>
    <circle cx="967.0369899664166" cy="477.1005412338122" r="20.226593007682506"/>
    <circle cx="967.6110405051805" cy="482.06747851738487" r="19.28813076792592"/>
    <circle cx="968.1850910439445" cy="487.0344158009576" r="18.02600370588315"/>
    <circle cx="968.7591415827083" cy="492.00135308453036" r="16.489499911073672"/>
    <circle cx="969.3331921214722" cy="496.9682903681031" r="14.738622325248064"/>
    <circle cx="969.9072426602361" cy="501.93522765167586" r="12.841745531111297"/>
    <circle cx="970.4812931989999" cy="506.90216493524855" r="10.872945615016754"/>
    <circle cx="971.0553437377638" cy="511.8691022188213" r="8.909107376782723"/>
    <circle cx="971.6293942765277" cy="516.8360395023941" r="7.026921854735562"/>
    <circle cx="972.2034448152915" cy="521.8029767859668" r="5.299891417450413"/>
    <circle cx="972.7774953540554" cy="526.7699140695395" r="3.795459378168644"/>
    <circle cx="973.3515458928193" cy="531.7368513531123" r="2.572376225060662"/>
    <circle cx="973.9255964315831" cy="536.703788636685" r="1.6784053202736828"/>
    <circle cx="974.499646970347" cy="541.6707259202577" r="1.1484576639027608"/>
    <circle cx="975.0000000000001" cy="546.0" r="1"/>
    <circle cx="162.0" cy="550.0" r="5"/>
    <circle cx="156.27050983124843" cy="567.6335575687742" r="5"/>
    <circle cx="141.27050983124843" cy="578.5316954888546" r="5"/>
    <circle cx="122.72949016875158" cy="578.5316954888547" r="5"/>
    <circle cx="107.72949016875158" cy="567.6335575687742" r="5"/>
    <circle cx="102.0" cy="550.0" r="5"/>
    <circle cx="107.72949016875157" cy="532.3664424312258" r="5"/>
    <circle cx="122.72949016875157" cy="521.4683045111454" r="5"/>
    <circle cx="141.2705098312484" cy="521.4683045111453" r="5"/>
    <circle cx="156.27050983124843" cy="532.3664424312258" r="5"/>
    <circle cx="1005.0000000000001" cy="546.0" r="5"/>
    <circle cx="999.2705098312485" cy="563.6335575687742" r="5"/>
    <circle cx="984.2705098312485" cy="574.5316954888546" r="5"/>
    <circle cx="965.7294901687517" cy="574.5316954888547" r="5"/>
    <circle cx="950.7294901687517" cy="563.6335575687742" r="5"/>
    <circle cx="945.0000000000001" cy="546.0" r="5"/>
    <circle cx="950.7294901687517" cy="528.3664424312258" r="5"/>
    <circle cx="965.7294901687517" cy="517.4683045111454" r="5"/>
    <circle cx="984.2705098312485" cy="517.4683045111453" r="5"/>
    <circle cx="999.2705098312485" cy="528.3664424312258" r="5"/>
    <circle cx="622.8" cy="586.6" r="50"/>
    <circle cx="476.99999999999994" cy="284.5" r="50"/>
    <circle cx="264.46666666666664" cy="687.2999999999998" r="50"/>
  </g>
</svg>
