<svg version="1.1" width="1150" height="870" xmlns="http://www.w3.org/2000/svg">
  <!-- Seed: 7378447963931342354 -->
  <g stroke="black" fill="none">
    <circle cx="155" cy="443.0" r="1"/>
    <circle cx="158.0" cy="439.0" r="1.08"/>
    <circle cx="161.0" cy="435.0" r="1.32"/>
    <circle cx="164.0" cy="431.0" r="1.73"/>
    <circle cx="167.0" cy="427.0" r="2.29"/>
    <circle cx="170.0" cy="423.0" r="3.0"/>
    <circle cx="173.0" cy="419.0" r="3.87"/>
    <circle cx="176.0" cy="415.0" r="4.88"/>
    <circle cx="179.0" cy="411.0" r="6.02"/>
    <circle cx="183.0" cy="407.0" r="7.3"/>
    <circle cx="186.0" cy="403.0" r="8.69"/>
    <circle cx="189.0" cy="400.0" r="10.2"/>
    <circle cx="192.0" cy="396.0" r="11.8"/>
    <circle cx="195.0" cy="392.0" r="13.5"/>
    <circle cx="198.0" cy="388.0" r="15.28"/>
    <circle cx="201.0" cy="384.0" r="17.13"/>
    <circle cx="204.0" cy="380.0" r="19.03"/>
    <circle cx="207.0" cy="376.0" r="20.97"/>
    <circle cx="210.0" cy="372.0" r="22.95"/>
    <circle cx="213.0" cy="368.0" r="24.94"/>
    <circle cx="216.0" cy="364.0" r="26.93"/>
    <circle cx="219.0" cy="360.0" r="28.92"/>
    <circle cx="222.0" cy="356.0" r="30.88"/>
    <circle cx="225.0" cy="352.0" r="32.81"/>
    <circle cx="228.0" cy="348.0" r="34.69"/>
    <circle cx="231.0" cy="344.0" r="36.5"/>
    <circle cx="235.0" cy="340.0" r="38.25"/>
    <circle cx="238.0" cy="336.0" r="39.91"/>
    <circle cx="241.0" cy="332.0" r="41.47"/>
    <circle cx="244.0" cy="328.0" r="42.93"/>
    <circle cx="247.0" cy="324.0" r="44.28"/>
    <circle cx="250.0" cy="320.0" r="45.49"/>
    <circle cx="253.0" cy="316.0" r="46.58"/>
    <circle cx="256.0" cy="313.0" r="47.53"/>
    <circle cx="259.0" cy="309.0" r="48.33"/>
    <circle cx="262.0" cy="305.0" r="48.97"/>
    <circle cx="265.0" cy="301.0" r="49.47"/>
    <circle cx="268.0" cy="297.0" r="49.8"/>
    <circle cx="271.0" cy="293.0" r="49.97"/>
    <circle cx="273.0" cy="290.0" r="50"/>
    <circle cx="279.0" cy="283.0" r="49.97"/>
    <circle cx="285.0" cy="275.0" r="49.89"/>
    <circle cx="291.0" cy="267.0" r="49.76"/>
    <circle cx="296.0" cy="260.0" r="49.57"/>
    <circle cx="302.0" cy="253.0" r="49.33"/>
    <circle cx="307.0" cy="247.0" r="49.04"/>
    <circle cx="312.0" cy="240.0" r="48.7"/>
    <circle cx="317.0" cy="234.0" r="48.31"/>
    <circle cx="322.0" cy="228.0" r="47.89"/>
    <circle cx="327.0" cy="222.0" r="47.42"/>
    <circle cx="331.0" cy="217.0" r="46.91"/>
    <circle cx="335.0" cy="211.0" r="46.38"/>
    <circle cx="339.0" cy="206.0" r="45.81"/>
    <circle cx="343.0" cy="201.0" r="45.21"/>
    <circle cx="347.0" cy="197.0" r="44.6"/>
    <circle cx="351.0" cy="192.0" r="43.96"/>
    <circle cx="354.0" cy="188.0" r="43.32"/>
    <circle cx="357.0" cy="184.0" r="42.66"/>
    <circle cx="360.0" cy="181.0" r="42.0"/>
    <circle cx="363.0" cy="177.0" r="41.34"/>
    <circle cx="366.0" cy="174.0" r="40.68"/>
    <circle cx="369.0" cy="171.0" r="40.04"/>
    <circle cx="371.0" cy="169.0" r="39.4"/>
    <circle cx="373.0" cy="166.0" r="38.79"/>
    <circle cx="375.0" cy="164.0" r="38.19"/>
    <circle cx="377.0" cy="162.0" r="37.62"/>
    <circle cx="379.0" cy="160.0" r="37.09"/>
    <circle cx="380.0" cy="159.0" r="36.58"/>
    <circle cx="382.0" cy="157.0" r="36.11"/>
    <circle cx="383.0" cy="156.0" r="35.69"/>
    <circle cx="384.0" cy="155.0" r="35.3"/>
    <circle cx="385.0" cy="155.0" r="34.96"/>
    <circle cx="386.0" cy="155.0" r="34.67"/>
    <circle cx="386.0" cy="154.0" r="34.43"/>
    <circle cx="386.0" cy="155.0" r="34.24"/>
    <circle cx="387.0" cy="155.0" r="34.11"/>
    <circle cx="387.0" cy="156.0" r="34.03"/>
    <circle cx="386.0" cy="156.0" r="34"/>
    <circle cx="386.0" cy="160.0" r="34.38"/>
    <circle cx="385.0" cy="164.0" r="35.51"/>
    <circle cx="385.0" cy="168.0" r="37.28"/>
    <circle cx="385.0" cy="172.0" r="39.55"/>
    <circle cx="385.0" cy="176.0" r="42.15"/>
    <circle cx="385.0" cy="181.0" r="44.85"/>
    <circle cx="386.0" cy="186.0" r="47.45"/>
    <circle cx="387.0" cy="191.0" r="49.72"/>
    <circle cx="388.0" cy="196.0" r="51.49"/>
    <circle cx="389.0" cy="202.0" r="52.62"/>
    <circle cx="390.0" cy="208.0" r="53"/>
    <circle cx="391.0" cy="211.0" r="52.76"/>
    <circle cx="392.0" cy="215.0" r="52.05"/>
    <circle cx="393.0" cy="218.0" r="50.89"/>
    <circle cx="393.0" cy="222.0" r="49.31"/>
    <circle cx="394.0" cy="226.0" r="47.35"/>
    <circle cx="395.0" cy="230.0" r="45.07"/>
    <circle cx="396.0" cy="235.0" r="42.53"/>
    <circle cx="397.0" cy="239.0" r="39.8"/>
    <circle cx="397.0" cy="243.0" r="36.95"/>
    <circle cx="398.0" cy="248.0" r="34.05"/>
    <circle cx="399.0" cy="253.0" r="31.2"/>
    <circle cx="400.0" cy="258.0" r="28.47"/>
    <circle cx="401.0" cy="263.0" r="25.93"/>
    <circle cx="402.0" cy="268.0" r="23.65"/>
    <circle cx="402.0" cy="273.0" r="21.69"/>
    <circle cx="403.0" cy="278.0" r="20.11"/>
    <circle cx="404.0" cy="284.0" r="18.95"/>
    <circle cx="405.0" cy="289.0" r="18.24"/>
    <circle cx="406.0" cy="295.0" r="18"/>
    <circle cx="406.0" cy="302.0" r="18.05"/>
    <circle cx="407.0" cy="309.0" r="18.22"/>
    <circle cx="407.0" cy="315.0" r="18.48"/>
    <circle cx="408.0" cy="322.0" r="18.83"/>
    <circle cx="408.0" cy="327.0" r="19.25"/>
    <circle cx="407.0" cy="333.0" r="19.73"/>
    <circle cx="407.0" cy="338.0" r="20.24"/>
    <circle cx="406.0" cy="343.0" r="20.76"/>
    <circle cx="405.0" cy="347.0" r="21.27"/>
    <circle cx="404.0" cy="351.0" r="21.75"/>
    <circle cx="403.0" cy="355.0" r="22.17"/>
    <circle cx="401.0" cy="358.0" r="22.52"/>
    <circle cx="399.0" cy="361.0" r="22.78"/>
    <circle cx="397.0" cy="364.0" r="22.95"/>
    <circle cx="394.0" cy="366.0" r="23"/>
    <circle cx="392.0" cy="368.0" r="22.88"/>
    <circle cx="390.0" cy="371.0" r="22.52"/>
    <circle cx="387.0" cy="374.0" r="21.95"/>
    <circle cx="385.0" cy="377.0" r="21.18"/>
    <circle cx="383.0" cy="380.0" r="20.25"/>
    <circle cx="380.0" cy="384.0" r="19.2"/>
    <circle cx="378.0" cy="388.0" r="18.07"/>
    <circle cx="376.0" cy="392.0" r="16.93"/>
    <circle cx="374.0" cy="397.0" r="15.8"/>
    <circle cx="372.0" cy="401.0" r="14.75"/>
    <circle cx="370.0" cy="406.0" r="13.82"/>
    <circle cx="368.0" cy="412.0" r="13.05"/>
    <circle cx="366.0" cy="417.0" r="12.48"/>
    <circle cx="364.0" cy="423.0" r="12.12"/>
    <circle cx="362.0" cy="430.0" r="12"/>
    <circle cx="361.0" cy="435.0" r="12.17"/>
    <circle cx="359.0" cy="441.0" r="12.69"/>
    <circle cx="358.0" cy="447.0" r="13.52"/>
    <circle cx="357.0" cy="452.0" r="14.64"/>
    <circle cx="356.0" cy="457.0" r="16.0"/>
    <circle cx="355.0" cy="463.0" r="17.56"/>
    <circle cx="355.0" cy="468.0" r="19.24"/>
    <circle cx="354.0" cy="472.0" r="21.0"/>
    <circle cx="354.0" cy="477.0" r="22.76"/>
    <circle cx="353.0" cy="482.0" r="24.44"/>
    <circle cx="353.0" cy="486.0" r="26.0"/>
    <circle cx="354.0" cy="490.0" r="27.36"/>
    <circle cx="354.0" cy="494.0" r="28.48"/>
    <circle cx="354.0" cy="498.0" r="29.31"/>
    <circle cx="355.0" cy="502.0" r="29.83"/>
    <circle cx="356.0" cy="506.0" r="30"/>
    <circle cx="356.0" cy="511.0" r="30.09"/>
    <circle cx="357.0" cy="516.0" r="30.33"/>
    <circle cx="358.0" cy="520.0" r="30.73"/>
    <circle cx="358.0" cy="525.0" r="31.25"/>
    <circle cx="359.0" cy="530.0" r="31.85"/>
    <circle cx="359.0" cy="535.0" r="32.5"/>
    <circle cx="359.0" cy="539.0" r="33.15"/>
    <circle cx="358.0" cy="544.0" r="33.75"/>
    <circle cx="358.0" cy="549.0" r="34.27"/>
    <circle cx="357.0" cy="553.0" r="34.67"/>
    <circle cx="356.0" cy="558.0" r="34.91"/>
    <circle cx="356.0" cy="562.0" r="35"/>
    <circle cx="354.0" cy="567.0" r="35.14"/>
    <circle cx="353.0" cy="572.0" r="35.56"/>
    <circle cx="353.0" cy="577.0" r="36.21"/>
    <circle cx="352.0" cy="582.0" r="37.05"/>
    <circle cx="352.0" cy="587.0" r="38.0"/>
    <circle cx="352.0" cy="592.0" r="39.0"/>
    <circle cx="351.0" cy="596.0" r="39.95"/>
    <circle cx="352.0" cy="601.0" r="40.79"/>
    <circle cx="352.0" cy="605.0" r="41.44"/>
    <circle cx="352.0" cy="610.0" r="41.86"/>
    <circle cx="353.0" cy="614.0" r="42"/>
    <circle cx="354.0" cy="620.0" r="42.27"/>
    <circle cx="357.0" cy="623.0" r="43.03"/>
    <circle cx="360.0" cy="624.0" r="44.16"/>
    <circle cx="364.0" cy="624.0" r="45.5"/>
    <circle cx="369.0" cy="621.0" r="46.84"/>
    <circle cx="375.0" cy="617.0" r="47.97"/>
    <circle cx="382.0" cy="611.0" r="48.73"/>
    <circle cx="390.0" cy="602.0" r="49"/>
    <circle cx="393.0" cy="600.0" r="48.84"/>
    <circle cx="395.0" cy="597.0" r="48.38"/>
    <circle cx="397.0" cy="594.0" r="47.6"/>
    <circle cx="400.0" cy="590.0" r="46.54"/>
    <circle cx="402.0" cy="587.0" r="45.19"/>
    <circle cx="404.0" cy="584.0" r="43.59"/>
    <circle cx="406.0" cy="580.0" r="41.76"/>
    <circle cx="409.0" cy="577.0" r="39.71"/>
    <circle cx="411.0" cy="573.0" r="37.49"/>
    <circle cx="413.0" cy="569.0" r="35.12"/>
    <circle cx="415.0" cy="565.0" r="32.65"/>
    <circle cx="416.0" cy="561.0" r="30.09"/>
    <circle cx="418.0" cy="557.0" r="27.5"/>
    <circle cx="420.0" cy="553.0" r="24.91"/>
    <circle cx="422.0" cy="548.0" r="22.35"/>
    <circle cx="423.0" cy="544.0" r="19.88"/>
    <circle cx="425.0" cy="539.0" r="17.51"/>
    <circle cx="427.0" cy="534.0" r="15.29"/>
    <circle cx="428.0" cy="530.0" r="13.24"/>
    <circle cx="430.0" cy="525.0" r="11.41"/>
    <circle cx="431.0" cy="520.0" r="9.81"/>
    <circle cx="432.0" cy="515.0" r="8.46"/>
    <circle cx="434.0" cy="509.0" r="7.4"/>
    <circle cx="435.0" cy="504.0" r="6.62"/>
    <circle cx="436.0" cy="499.0" r="6.16"/>
    <circle cx="437.0" cy="493.0" r="6"/>
    <circle cx="438.0" cy="487.0" r="6.03"/>
    <circle cx="439.0" cy="482.0" r="6.12"/>
    <circle cx="441.0" cy="477.0" r="6.26"/>
    <circle cx="442.0" cy="471.0" r="6.46"/>
    <circle cx="443.0" cy="466.0" r="6.71"/>
    <circle cx="445.0" cy="461.0" r="7.01"/>
    <circle cx="446.0" cy="457.0" r="7.35"/>
    <circle cx="448.0" cy="452.0" r="7.73"/>
    <circle cx="450.0" cy="447.0" r="8.14"/>
    <circle cx="452.0" cy="443.0" r="8.58"/>
    <circle cx="453.0" cy="438.0" r="9.04"/>
    <circle cx="455.0" cy="434.0" r="9.52"/>
    <circle cx="458.0" cy="430.0" r="10.0"/>
    <circle cx="460.0" cy="426.0" r="10.48"/>
    <circle cx="462.0" cy="422.0" r="10.96"/>
    <circle cx="464.0" cy="418.0" r="11.42"/>
    <circle cx="466.0" cy="415.0" r="11.86"/>
    <circle cx="469.0" cy="411.0" r="12.27"/>
    <circle cx="471.0" cy="408.0" r="12.65"/>
    <circle cx="474.0" cy="404.0" r="12.99"/>
    <circle cx="477.0" cy="401.0" r="13.29"/>
    <circle cx="479.0" cy="398.0" r="13.54"/>
    <circle cx="482.0" cy="395.0" r="13.74"/>
    <circle cx="485.0" cy="392.0" r="13.88"/>
    <circle cx="488.0" cy="390.0" r="13.97"/>
    <circle cx="491.0" cy="387.0" r="14"/>
    <circle cx="494.0" cy="385.0" r="14.12"/>
    <circle cx="497.0" cy="382.0" r="14.46"/>
    <circle cx="500.0" cy="379.0" r="15.04"/>
    <circle cx="502.0" cy="377.0" r="15.83"/>
    <circle cx="505.0" cy="374.0" r="16.84"/>
    <circle cx="508.0" cy="371.0" r="18.04"/>
    <circle cx="511.0" cy="368.0" r="19.42"/>
    <circle cx="513.0" cy="365.0" r="20.97"/>
    <circle cx="516.0" cy="362.0" r="22.66"/>
    <circle cx="519.0" cy="358.0" r="24.47"/>
    <circle cx="522.0" cy="355.0" r="26.39"/>
    <circle cx="524.0" cy="351.0" r="28.38"/>
    <circle cx="527.0" cy="348.0" r="30.43"/>
    <circle cx="530.0" cy="344.0" r="32.5"/>
    <circle cx="533.0" cy="340.0" r="34.57"/>
    <circle cx="535.0" cy="336.0" r="36.62"/>
    <circle cx="538.0" cy="332.0" r="38.61"/>
    <circle cx="541.0" cy="328.0" r="40.53"/>
    <circle cx="543.0" cy="323.0" r="42.34"/>
    <circle cx="546.0" cy="319.0" r="44.03"/>
    <circle cx="548.0" cy="314.0" r="45.58"/>
    <circle cx="551.0" cy="310.0" r="46.96"/>
    <circle cx="554.0" cy="305.0" r="48.16"/>
    <circle cx="556.0" cy="300.0" r="49.17"/>
    <circle cx="559.0" cy="295.0" r="49.96"/>
    <circle cx="561.0" cy="290.0" r="50.54"/>
    <circle cx="564.0" cy="285.0" r="50.88"/>
    <circle cx="566.0" cy="280.0" r="51"/>
    <circle cx="571.0" cy="272.0" r="50.64"/>
    <circle cx="574.0" cy="266.0" r="49.58"/>
    <circle cx="578.0" cy="261.0" r="47.85"/>
    <circle cx="581.0" cy="257.0" r="45.52"/>
    <circle cx="584.0" cy="256.0" r="42.66"/>
    <circle cx="587.0" cy="255.0" r="39.36"/>
    <circle cx="589.0" cy="257.0" r="35.75"/>
    <circle cx="591.0" cy="260.0" r="31.94"/>
    <circle cx="593.0" cy="264.0" r="28.06"/>
    <circle cx="595.0" cy="270.0" r="24.25"/>
    <circle cx="596.0" cy="277.0" r="20.64"/>
    <circle cx="597.0" cy="286.0" r="17.34"/>
    <circle cx="598.0" cy="297.0" r="14.48"/>
    <circle cx="599.0" cy="309.0" r="12.15"/>
    <circle cx="599.0" cy="323.0" r="10.42"/>
    <circle cx="599.0" cy="338.0" r="9.36"/>
    <circle cx="598.0" cy="354.0" r="9"/>
    <circle cx="598.0" cy="359.0" r="9.01"/>
    <circle cx="598.0" cy="364.0" r="9.06"/>
    <circle cx="598.0" cy="368.0" r="9.13"/>
    <circle cx="598.0" cy="373.0" r="9.23"/>
    <circle cx="598.0" cy="377.0" r="9.36"/>
    <circle cx="598.0" cy="382.0" r="9.52"/>
    <circle cx="598.0" cy="386.0" r="9.71"/>
    <circle cx="598.0" cy="391.0" r="9.92"/>
    <circle cx="597.0" cy="396.0" r="10.16"/>
    <circle cx="597.0" cy="400.0" r="10.43"/>
    <circle cx="597.0" cy="405.0" r="10.73"/>
    <circle cx="597.0" cy="409.0" r="11.04"/>
    <circle cx="597.0" cy="414.0" r="11.39"/>
    <circle cx="597.0" cy="419.0" r="11.75"/>
    <circle cx="597.0" cy="423.0" r="12.14"/>
    <circle cx="597.0" cy="428.0" r="12.56"/>
    <circle cx="596.0" cy="432.0" r="12.99"/>
    <circle cx="596.0" cy="437.0" r="13.44"/>
    <circle cx="596.0" cy="441.0" r="13.91"/>
    <circle cx="596.0" cy="446.0" r="14.4"/>
    <circle cx="596.0" cy="451.0" r="14.9"/>
    <circle cx="596.0" cy="455.0" r="15.43"/>
    <circle cx="596.0" cy="460.0" r="15.96"/>
    <circle cx="596.0" cy="464.0" r="16.51"/>
    <circle cx="595.0" cy="469.0" r="17.07"/>
    <circle cx="595.0" cy="473.0" r="17.64"/>
    <circle cx="595.0" cy="478.0" r="18.22"/>
    <circle cx="595.0" cy="483.0" r="18.8"/>
    <circle cx="595.0" cy="487.0" r="19.4"/>
    <circle cx="595.0" cy="492.0" r="19.99"/>
    <circle cx="594.0" cy="496.0" r="20.59"/>
    <circle cx="594.0" cy="501.0" r="21.2"/>
    <circle cx="594.0" cy="506.0" r="21.8"/>
    <circle cx="594.0" cy="510.0" r="22.41"/>
    <circle cx="594.0" cy="515.0" r="23.01"/>
    <circle cx="594.0" cy="519.0" r="23.6"/>
    <circle cx="594.0" cy="524.0" r="24.2"/>
    <circle cx="593.0" cy="528.0" r="24.78"/>
    <circle cx="593.0" cy="533.0" r="25.36"/>
    <circle cx="593.0" cy="538.0" r="25.93"/>
    <circle cx="593.0" cy="542.0" r="26.49"/>
    <circle cx="593.0" cy="547.0" r="27.04"/>
    <circle cx="593.0" cy="551.0" r="27.57"/>
    <circle cx="592.0" cy="556.0" r="28.1"/>
    <circle cx="592.0" cy="561.0" r="28.6"/>
    <circle cx="592.0" cy="565.0" r="29.09"/>
    <circle cx="592.0" cy="570.0" r="29.56"/>
    <circle cx="592.0" cy="574.0" r="30.01"/>
    <circle cx="592.0" cy="579.0" r="30.44"/>
    <circle cx="591.0" cy="584.0" r="30.86"/>
    <circle cx="591.0" cy="588.0" r="31.25"/>
    <circle cx="591.0" cy="593.0" r="31.61"/>
    <circle cx="591.0" cy="597.0" r="31.96"/>
    <circle cx="591.0" cy="602.0" r="32.27"/>
    <circle cx="590.0" cy="607.0" r="32.57"/>
    <circle cx="590.0" cy="611.0" r="32.84"/>
    <circle cx="590.0" cy="616.0" r="33.08"/>
    <circle cx="590.0" cy="620.0" r="33.29"/>
    <circle cx="590.0" cy="625.0" r="33.48"/>
    <circle cx="589.0" cy="630.0" r="33.64"/>
    <circle cx="589.0" cy="634.0" r="33.77"/>
    <circle cx="589.0" cy="639.0" r="33.87"/>
    <circle cx="589.0" cy="643.0" r="33.94"/>
    <circle cx="589.0" cy="648.0" r="33.99"/>
    <circle cx="588.0" cy="652.0" r="34"/>
    <circle cx="588.0" cy="668.0" r="33.86"/>
    <circle cx="587.0" cy="683.0" r="33.43"/>
    <circle cx="587.0" cy="696.0" r="32.73"/>
    <circle cx="587.0" cy="708.0" r="31.78"/>
    <circle cx="587.0" cy="719.0" r="30.61"/>
    <circle cx="588.0" cy="728.0" r="29.25"/>
    <circle cx="588.0" cy="736.0" r="27.75"/>
    <circle cx="589.0" cy="742.0" r="26.15"/>
    <circle cx="590.0" cy="747.0" r="24.5"/>
    <circle cx="591.0" cy="751.0" r="22.85"/>
    <circle cx="593.0" cy="753.0" r="21.25"/>
    <circle cx="594.0" cy="754.0" r="19.75"/>
    <circle cx="596.0" cy="754.0" r="18.39"/>
    <circle cx="598.0" cy="753.0" r="17.22"/>
    <circle cx="600.0" cy="750.0" r="16.27"/>
    <circle cx="602.0" cy="745.0" r="15.57"/>
    <circle cx="605.0" cy="740.0" r="15.14"/>
    <circle cx="608.0" cy="732.0" r="15"/>
    <circle cx="609.0" cy="728.0" r="15.04"/>
    <circle cx="611.0" cy="723.0" r="15.14"/>
    <circle cx="613.0" cy="719.0" r="15.32"/>
    <circle cx="614.0" cy="714.0" r="15.56"/>
    <circle cx="616.0" cy="710.0" r="15.87"/>
    <circle cx="617.0" cy="705.0" r="16.24"/>
    <circle cx="619.0" cy="701.0" r="16.67"/>
    <circle cx="621.0" cy="696.0" r="17.15"/>
    <circle cx="622.0" cy="692.0" r="17.68"/>
    <circle cx="624.0" cy="687.0" r="18.25"/>
    <circle cx="625.0" cy="683.0" r="18.86"/>
    <circle cx="627.0" cy="678.0" r="19.49"/>
    <circle cx="628.0" cy="674.0" r="20.15"/>
    <circle cx="630.0" cy="670.0" r="20.82"/>
    <circle cx="631.0" cy="665.0" r="21.5"/>
    <circle cx="632.0" cy="661.0" r="22.18"/>
    <circle cx="634.0" cy="657.0" r="22.85"/>
    <circle cx="635.0" cy="652.0" r="23.51"/>
    <circle cx="637.0" cy="648.0" r="24.14"/>
    <circle cx="638.0" cy="644.0" r="24.75"/>
    <circle cx="639.0" cy="640.0" r="25.32"/>
    <circle cx="641.0" cy="635.0" r="25.85"/>
    <circle cx="642.0" cy="631.0" r="26.33"/>
    <circle cx="643.0" cy="627.0" r="26.76"/>
    <circle cx="644.0" cy="623.0" r="27.13"/>
    <circle cx="646.0" cy="619.0" r="27.44"/>
    <circle cx="647.0" cy="615.0" r="27.68"/>
    <circle cx="648.0" cy="611.0" r="27.86"/>
    <circle cx="649.0" cy="607.0" r="27.96"/>
    <circle cx="650.0" cy="602.0" r="28"/>
    <circle cx="652.0" cy="598.0" r="27.95"/>
    <circle cx="653.0" cy="593.0" r="27.81"/>
    <circle cx="655.0" cy="589.0" r="27.58"/>
    <circle cx="656.0" cy="584.0" r="27.26"/>
    <circle cx="657.0" cy="580.0" r="26.85"/>
    <circle cx="659.0" cy="575.0" r="26.37"/>
    <circle cx="660.0" cy="571.0" r="25.81"/>
    <circle cx="662.0" cy="566.0" r="25.19"/>
    <circle cx="663.0" cy="562.0" r="24.52"/>
    <circle cx="665.0" cy="557.0" r="23.8"/>
    <circle cx="666.0" cy="553.0" r="23.06"/>
    <circle cx="668.0" cy="548.0" r="22.28"/>
    <circle cx="669.0" cy="544.0" r="21.5"/>
    <circle cx="671.0" cy="540.0" r="20.72"/>
    <circle cx="673.0" cy="535.0" r="19.94"/>
    <circle cx="674.0" cy="531.0" r="19.2"/>
    <circle cx="676.0" cy="527.0" r="18.48"/>
    <circle cx="677.0" cy="523.0" r="17.81"/>
    <circle cx="679.0" cy="518.0" r="17.19"/>
    <circle cx="681.0" cy="514.0" r="16.63"/>
    <circle cx="682.0" cy="510.0" r="16.15"/>
    <circle cx="684.0" cy="506.0" r="15.74"/>
    <circle cx="686.0" cy="502.0" r="15.42"/>
    <circle cx="687.0" cy="498.0" r="15.19"/>
    <circle cx="689.0" cy="494.0" r="15.05"/>
    <circle cx="691.0" cy="490.0" r="15"/>
    <circle cx="693.0" cy="485.0" r="15.14"/>
    <circle cx="695.0" cy="480.0" r="15.57"/>
    <circle cx="697.0" cy="475.0" r="16.27"/>
    <circle cx="699.0" cy="471.0" r="17.22"/>
    <circle cx="700.0" cy="466.0" r="18.42"/>
    <circle cx="702.0" cy="461.0" r="19.83"/>
    <circle cx="703.0" cy="456.0" r="21.43"/>
    <circle cx="704.0" cy="452.0" r="23.18"/>
    <circle cx="705.0" cy="447.0" r="25.06"/>
    <circle cx="707.0" cy="443.0" r="27.01"/>
    <circle cx="708.0" cy="438.0" r="29.0"/>
    <circle cx="708.0" cy="433.0" r="30.99"/>
    <circle cx="709.0" cy="429.0" r="32.94"/>
    <circle cx="710.0" cy="424.0" r="34.82"/>
    <circle cx="710.0" cy="420.0" r="36.57"/>
    <circle cx="711.0" cy="415.0" r="38.17"/>
    <circle cx="711.0" cy="411.0" r="39.58"/>
    <circle cx="711.0" cy="406.0" r="40.78"/>
    <circle cx="711.0" cy="402.0" r="41.73"/>
    <circle cx="711.0" cy="397.0" r="42.43"/>
    <circle cx="711.0" cy="393.0" r="42.86"/>
    <circle cx="711.0" cy="388.0" r="43"/>
    <circle cx="711.0" cy="384.0" r="42.84"/>
    <circle cx="711.0" cy="379.0" r="42.36"/>
    <circle cx="711.0" cy="375.0" r="41.56"/>
    <circle cx="711.0" cy="370.0" r="40.48"/>
    <circle cx="711.0" cy="366.0" r="39.13"/>
    <circle cx="712.0" cy="361.0" r="37.54"/>
    <circle cx="713.0" cy="356.0" r="35.75"/>
    <circle cx="713.0" cy="352.0" r="33.8"/>
    <circle cx="714.0" cy="347.0" r="31.73"/>
    <circle cx="716.0" cy="343.0" r="29.58"/>
    <circle cx="717.0" cy="338.0" r="27.42"/>
    <circle cx="718.0" cy="334.0" r="25.27"/>
    <circle cx="720.0" cy="329.0" r="23.2"/>
    <circle cx="721.0" cy="325.0" r="21.25"/>
    <circle cx="723.0" cy="320.0" r="19.46"/>
    <circle cx="725.0" cy="316.0" r="17.87"/>
    <circle cx="727.0" cy="312.0" r="16.52"/>
    <circle cx="730.0" cy="307.0" r="15.44"/>
    <circle cx="732.0" cy="303.0" r="14.64"/>
    <circle cx="735.0" cy="298.0" r="14.16"/>
    <circle cx="738.0" cy="294.0" r="14"/>
    <circle cx="740.0" cy="290.0" r="14.07"/>
    <circle cx="742.0" cy="286.0" r="14.29"/>
    <circle cx="745.0" cy="282.0" r="14.65"/>
    <circle cx="747.0" cy="278.0" r="15.14"/>
    <circle cx="749.0" cy="274.0" r="15.76"/>
    <circle cx="751.0" cy="270.0" r="16.49"/>
    <circle cx="753.0" cy="266.0" r="17.33"/>
    <circle cx="755.0" cy="262.0" r="18.25"/>
    <circle cx="757.0" cy="258.0" r="19.25"/>
    <circle cx="758.0" cy="253.0" r="20.3"/>
    <circle cx="760.0" cy="249.0" r="21.39"/>
    <circle cx="762.0" cy="245.0" r="22.5"/>
    <circle cx="763.0" cy="240.0" r="23.61"/>
    <circle cx="765.0" cy="236.0" r="24.7"/>
    <circle cx="766.0" cy="231.0" r="25.75"/>
    <circle cx="767.0" cy="227.0" r="26.75"/>
    <circle cx="769.0" cy="222.0" r="27.67"/>
    <circle cx="770.0" cy="218.0" r="28.51"/>
    <circle cx="771.0" cy="213.0" r="29.24"/>
    <circle cx="772.0" cy="208.0" r="29.86"/>
    <circle cx="773.0" cy="204.0" r="30.35"/>
    <circle cx="774.0" cy="199.0" r="30.71"/>
    <circle cx="774.0" cy="194.0" r="30.93"/>
    <circle cx="775.0" cy="189.0" r="31"/>
    <circle cx="778.0" cy="172.0" r="30.73"/>
    <circle cx="780.0" cy="160.0" r="30.0"/>
    <circle cx="782.0" cy="153.0" r="29.0"/>
    <circle cx="784.0" cy="151.0" r="28.0"/>
    <circle cx="786.0" cy="154.0" r="27.27"/>
    <circle cx="788.0" cy="162.0" r="27"/>
    <circle cx="788.0" cy="165.0" r="27.24"/>
    <circle cx="789.0" cy="170.0" r="27.95"/>
    <circle cx="789.0" cy="174.0" r="29.11"/>
    <circle cx="790.0" cy="178.0" r="30.66"/>
    <circle cx="790.0" cy="182.0" r="32.56"/>
    <circle cx="791.0" cy="187.0" r="34.72"/>
    <circle cx="791.0" cy="191.0" r="37.06"/>
    <circle cx="792.0" cy="196.0" r="39.5"/>
    <circle cx="792.0" cy="201.0" r="41.94"/>
    <circle cx="793.0" cy="206.0" r="44.28"/>
    <circle cx="793.0" cy="211.0" r="46.44"/>
    <circle cx="794.0" cy="216.0" r="48.34"/>
    <circle cx="794.0" cy="221.0" r="49.89"/>
    <circle cx="795.0" cy="226.0" r="51.05"/>
    <circle cx="795.0" cy="232.0" r="51.76"/>
    <circle cx="796.0" cy="237.0" r="52"/>
    <circle cx="796.0" cy="243.0" r="51.9"/>
    <circle cx="796.0" cy="248.0" r="51.61"/>
    <circle cx="797.0" cy="254.0" r="51.14"/>
    <circle cx="797.0" cy="259.0" r="50.51"/>
    <circle cx="797.0" cy="264.0" r="49.75"/>
    <circle cx="797.0" cy="269.0" r="48.89"/>
    <circle cx="798.0" cy="274.0" r="47.97"/>
    <circle cx="798.0" cy="279.0" r="47.03"/>
    <circle cx="798.0" cy="284.0" r="46.11"/>
    <circle cx="798.0" cy="288.0" r="45.25"/>
    <circle cx="798.0" cy="292.0" r="44.49"/>
    <circle cx="798.0" cy="296.0" r="43.86"/>
    <circle cx="797.0" cy="300.0" r="43.39"/>
    <circle cx="797.0" cy="304.0" r="43.1"/>
    <circle cx="797.0" cy="308.0" r="43"/>
    <circle cx="797.0" cy="312.0" r="42.37"/>
    <circle cx="797.0" cy="317.0" r="40.54"/>
    <circle cx="797.0" cy="322.0" r="37.65"/>
    <circle cx="797.0" cy="327.0" r="33.94"/>
    <circle cx="797.0" cy="331.0" r="29.71"/>
    <circle cx="797.0" cy="336.0" r="25.29"/>
    <circle cx="798.0" cy="341.0" r="21.06"/>
    <circle cx="799.0" cy="346.0" r="17.35"/>
    <circle cx="799.0" cy="350.0" r="14.46"/>
    <circle cx="800.0" cy="355.0" r="12.63"/>
    <circle cx="802.0" cy="360.0" r="12"/>
    <circle cx="802.0" cy="363.0" r="12.38"/>
    <circle cx="803.0" cy="366.0" r="13.52"/>
    <circle cx="803.0" cy="369.0" r="15.37"/>
    <circle cx="804.0" cy="373.0" r="17.87"/>
    <circle cx="804.0" cy="377.0" r="20.94"/>
    <circle cx="804.0" cy="381.0" r="24.47"/>
    <circle cx="804.0" cy="386.0" r="28.34"/>
    <circle cx="805.0" cy="390.0" r="32.42"/>
    <circle cx="804.0" cy="395.0" r="36.58"/>
    <circle cx="804.0" cy="400.0" r="40.66"/>
    <circle cx="804.0" cy="405.0" r="44.53"/>
    <circle cx="804.0" cy="410.0" r="48.06"/>
    <circle cx="803.0" cy="416.0" r="51.13"/>
    <circle cx="803.0" cy="422.0" r="53.63"/>
    <circle cx="802.0" cy="427.0" r="55.48"/>
    <circle cx="801.0" cy="434.0" r="56.62"/>
    <circle cx="800.0" cy="440.0" r="57"/>
    <circle cx="800.0" cy="447.0" r="56.71"/>
    <circle cx="799.0" cy="453.0" r="55.86"/>
    <circle cx="798.0" cy="459.0" r="54.47"/>
    <circle cx="797.0" cy="465.0" r="52.61"/>
    <circle cx="796.0" cy="471.0" r="50.33"/>
    <circle cx="795.0" cy="476.0" r="47.74"/>
    <circle cx="794.0" cy="481.0" r="44.93"/>
    <circle cx="793.0" cy="485.0" r="42.0"/>
    <circle cx="792.0" cy="490.0" r="39.07"/>
    <circle cx="792.0" cy="494.0" r="36.26"/>
    <circle cx="791.0" cy="497.0" r="33.67"/>
    <circle cx="790.0" cy="501.0" r="31.39"/>
    <circle cx="789.0" cy="504.0" r="29.53"/>
    <circle cx="788.0" cy="507.0" r="28.14"/>
    <circle cx="787.0" cy="509.0" r="27.29"/>
    <circle cx="786.0" cy="512.0" r="27"/>
    <circle cx="786.0" cy="514.0" r="27.19"/>
    <circle cx="785.0" cy="517.0" r="27.73"/>
    <circle cx="785.0" cy="520.0" r="28.62"/>
    <circle cx="785.0" cy="523.0" r="29.81"/>
    <circle cx="785.0" cy="526.0" r="31.25"/>
    <circle cx="785.0" cy="530.0" r="32.87"/>
    <circle cx="786.0" cy="535.0" r="34.61"/>
    <circle cx="787.0" cy="539.0" r="36.39"/>
    <circle cx="788.0" cy="544.0" r="38.13"/>
    <circle cx="789.0" cy="549.0" r="39.75"/>
    <circle cx="791.0" cy="555.0" r="41.19"/>
    <circle cx="792.0" cy="560.0" r="42.38"/>
    <circle cx="794.0" cy="566.0" r="43.27"/>
    <circle cx="797.0" cy="573.0" r="43.81"/>
    <circle cx="799.0" cy="580.0" r="44"/>
    <circle cx="801.0" cy="585.0" r="44.01"/>
    <circle cx="803.0" cy="590.0" r="44.03"/>
    <circle cx="805.0" cy="595.0" r="44.06"/>
    <circle cx="806.0" cy="600.0" r="44.11"/>
    <circle cx="808.0" cy="605.0" r="44.16"/>
    <circle cx="810.0" cy="610.0" r="44.23"/>
    <circle cx="811.0" cy="615.0" r="44.3"/>
    <circle cx="813.0" cy="620.0" r="44.38"/>
    <circle cx="814.0" cy="624.0" r="44.46"/>
    <circle cx="815.0" cy="628.0" r="44.54"/>
    <circle cx="816.0" cy="633.0" r="44.62"/>
    <circle cx="817.0" cy="637.0" r="44.7"/>
    <circle cx="818.0" cy="641.0" r="44.77"/>
    <circle cx="819.0" cy="645.0" r="44.84"/>
    <circle cx="820.0" cy="649.0" r="44.89"/>
    <circle cx="821.0" cy="653.0" r="44.94"/>
    <circle cx="822.0" cy="656.0" r="44.97"/>
    <circle cx="822.0" cy="660.0" r="44.99"/>
    <circle cx="823.0" cy="664.0" r="45"/>
    <circle cx="824.0" cy="667.0" r="44.75"/>
    <circle cx="825.0" cy="669.0" r="44.02"/>
    <circle cx="826.0" cy="671.0" r="42.83"/>
    <circle cx="827.0" cy="671.0" r="41.2"/>
    <circle cx="829.0" cy="672.0" r="39.19"/>
    <circle cx="831.0" cy="671.0" r="36.85"/>
    <circle cx="833.0" cy="670.0" r="34.23"/>
    <circle cx="836.0" cy="668.0" r="31.42"/>
    <circle cx="839.0" cy="665.0" r="28.49"/>
    <circle cx="842.0" cy="662.0" r="25.51"/>
    <circle cx="845.0" cy="657.0" r="22.58"/>
    <circle cx="849.0" cy="652.0" r="19.77"/>
    <circle cx="853.0" cy="647.0" r="17.15"/>
    <circle cx="857.0" cy="641.0" r="14.81"/>
    <circle cx="861.0" cy="633.0" r="12.8"/>
    <circle cx="866.0" cy="626.0" r="11.17"/>
    <circle cx="871.0" cy="617.0" r="9.98"/>
    <circle cx="876.0" cy="608.0" r="9.25"/>
    <circle cx="882.0" cy="598.0" r="9"/>
    <circle cx="884.0" cy="594.0" r="8.96"/>
    <circle cx="886.0" cy="589.0" r="8.84"/>
    <circle cx="889.0" cy="585.0" r="8.65"/>
    <circle cx="891.0" cy="580.0" r="8.38"/>
    <circle cx="893.0" cy="576.0" r="8.05"/>
    <circle cx="896.0" cy="572.0" r="7.66"/>
    <circle cx="898.0" cy="567.0" r="7.21"/>
    <circle cx="901.0" cy="563.0" r="6.72"/>
    <circle cx="903.0" cy="559.0" r="6.2"/>
    <circle cx="905.0" cy="554.0" r="5.65"/>
    <circle cx="908.0" cy="550.0" r="5.09"/>
    <circle cx="910.0" cy="545.0" r="4.53"/>
    <circle cx="913.0" cy="541.0" r="3.98"/>
    <circle cx="915.0" cy="537.0" r="3.45"/>
    <circle cx="917.0" cy="532.0" r="2.95"/>
    <circle cx="920.0" cy="528.0" r="2.48"/>
    <circle cx="922.0" cy="523.0" r="2.07"/>
    <circle cx="925.0" cy="519.0" r="1.72"/>
    <circle cx="927.0" cy="515.0" r="1.43"/>
    <circle cx="929.0" cy="510.0" r="1.21"/>
    <circle cx="932.0" cy="506.0" r="1.07"/>
    <circle cx="934.0" cy="501.0" r="1.0"/>
    <circle cx="935.0" cy="500.0" r="1"/>
    <g stroke="blue">
      <circle cx="185.0" cy="443.0" r="5"/>
      <circle cx="179.27050983124843" cy="460.6335575687742" r="5"/>
      <circle cx="164.27050983124843" cy="471.5316954888546" r="5"/>
      <circle cx="145.72949016875157" cy="471.5316954888546" r="5"/>
      <circle cx="130.72949016875157" cy="460.6335575687742" r="5"/>
      <circle cx="125.0" cy="443.0" r="5"/>
      <circle cx="130.72949016875157" cy="425.36644243122583" r="5"/>
      <circle cx="145.72949016875157" cy="414.4683045111454" r="5"/>
      <circle cx="164.2705098312484" cy="414.4683045111454" r="5"/>
      <circle cx="179.27050983124843" cy="425.3664424312258" r="5"/>
      <path d="M935.0 530.0 L935.0 540.0"/>
      <path d="M952.63 524.27 L958.51 532.36"/>
      <path d="M963.53 509.27 L973.04 512.36"/>
      <path d="M963.53 490.73 L973.04 487.64"/>
      <path d="M952.63 475.73 L958.51 467.64"/>
      <path d="M935.0 470.0 L935.0 460.0"/>
      <path d="M917.37 475.73 L911.49 467.64"/>
      <path d="M906.47 490.73 L896.96 487.64"/>
      <path d="M906.47 509.27 L896.96 512.36"/>
      <path d="M917.37 524.27 L911.49 532.36"/>
      <circle cx="785.0" cy="523.0" r="49.81"/>
      <path d="M785.0 582.81 L785.0 592.81"/>
      <path d="M803.48 579.88 L806.57 589.39"/>
      <path d="M820.16 571.39 L826.04 579.48"/>
      <path d="M833.39 558.16 L841.48 564.04"/>
      <path d="M841.88 541.48 L851.39 544.57"/>
      <path d="M844.81 523.0 L854.81 523.0"/>
      <path d="M841.88 504.52 L851.39 501.43"/>
      <path d="M833.39 487.84 L841.48 481.96"/>
      <path d="M820.16 474.61 L826.04 466.52"/>
      <path d="M803.48 466.12 L806.57 456.61"/>
      <path d="M785.0 463.19 L785.0 453.19"/>
      <path d="M766.52 466.12 L763.43 456.61"/>
      <path d="M749.84 474.61 L743.96 466.52"/>
      <path d="M736.61 487.84 L728.52 481.96"/>
      <path d="M728.12 504.52 L718.61 501.43"/>
      <path d="M725.19 523.0 L715.19 523.0"/>
      <path d="M728.12 541.48 L718.61 544.57"/>
      <path d="M736.61 558.16 L728.52 564.04"/>
      <path d="M749.84 571.39 L743.96 579.48"/>
      <path d="M766.52 579.88 L763.43 589.39"/>
      <circle cx="713.0" cy="356.0" r="55.75"/>
      <path d="M713.0 421.75 L713.0 431.75"/>
      <path d="M733.32 418.53 L736.41 428.04"/>
      <path d="M751.65 409.19 L757.53 417.28"/>
      <path d="M766.19 394.65 L774.28 400.53"/>
      <path d="M775.53 376.32 L785.04 379.41"/>
      <path d="M778.75 356.0 L788.75 356.0"/>
      <path d="M775.53 335.68 L785.04 332.59"/>
      <path d="M766.19 317.35 L774.28 311.47"/>
      <path d="M751.65 302.81 L757.53 294.72"/>
      <path d="M733.32 293.47 L736.41 283.96"/>
      <path d="M713.0 290.25 L713.0 280.25"/>
      <path d="M692.68 293.47 L689.59 283.96"/>
      <path d="M674.35 302.81 L668.47 294.72"/>
      <path d="M659.81 317.35 L651.72 311.47"/>
      <path d="M650.47 335.68 L640.96 332.59"/>
      <path d="M647.25 356.0 L637.25 356.0"/>
      <path d="M650.47 376.32 L640.96 379.41"/>
      <path d="M659.81 394.65 L651.72 400.53"/>
      <path d="M674.35 409.19 L668.47 417.28"/>
      <path d="M692.68 418.53 L689.59 428.04"/>
      <path d="M 713.0 356.0 L596.0 446.0"/>
      <circle cx="596.0" cy="446.0" r="34.4"/>
      <circle cx="591.0" cy="593.0" r="51.61"/>
      <circle cx="469.0" cy="411.0" r="32.269999999999996"/>
      <g transform="translate(859.715,523.0) scale(0.5,0.5)">
        <path d="M25.0 0h-25.0v-12.5q0 -12.5 12.5 -12.5q12.5 0 12.5 -12.5q0 -12.5 -12.5 -12.5q-12.5 0 -12.5 12.5"/>
        <path d="M35.0 -50v25.0h25.0m0 25.0v-50"/>
        <path d="M70.0 0h12.5q12.5 0 12.5 -12.5q0 -12.5 -12.5 -12.5h-6.25m6.25 0q12.5 0 12.5 -12.5q0 -12.5 -12.5 -12.5h-12.5"/>
        <path d="M130.0 -50h-25.0v25.0h12.5q12.5 0 12.5 12.5q0 12.5 -12.5 12.5h-12.5"/>
        <path d="M165.0 -50h-25.0v25.0h12.5q12.5 0 12.5 12.5q0 12.5 -12.5 12.5h-12.5"/>
      </g>
      <g transform="translate(668.415,593.0) scale(0.5,0.5)">
        <path d="M0 0h12.5q12.5 0 12.5 -12.5q0 -12.5 -12.5 -12.5h-6.25m6.25 0q12.5 0 12.5 -12.5q0 -12.5 -12.5 -12.5h-12.5"/>
        <path d="M60.0 -50h-12.5q-12.5 0 -12.5 12.5v25.0q0 12.5 12.5 12.5q12.5 0 12.5 -12.5q0 -12.5 -12.5 -12.5h-12.5"/>
        <path d="M82.5 0q-12.5 0 -12.5 -12.5v-25.0q0 -12.5 12.5 -12.5q12.5 0 12.5 12.5v25.0q0 12.5 -12.5 12.5m-12.5 -12.5l25.0 -25.0"/>
        <path d="M105.0 -50v25.0h25.0m0 25.0v-50"/>
        <path d="M140.0 -50h25.0l-25.0 50"/>
      </g>
    </g>
  </g>
</svg>
