<svg version="1.1" width="1150" height="870" xmlns="http://www.w3.org/2000/svg">
  <!-- Seed: 5073394988251132968 -->
  <g stroke="black" fill="none">
    <circle cx="108" cy="408.0" r="1"/>
    <circle cx="111.0" cy="412.0" r="1.02"/>
    <circle cx="114.0" cy="416.0" r="1.07"/>
    <circle cx="117.0" cy="420.0" r="1.17"/>
    <circle cx="119.0" cy="424.0" r="1.29"/>
    <circle cx="122.0" cy="429.0" r="1.46"/>
    <circle cx="125.0" cy="433.0" r="1.65"/>
    <circle cx="128.0" cy="437.0" r="1.89"/>
    <circle cx="131.0" cy="441.0" r="2.15"/>
    <circle cx="134.0" cy="445.0" r="2.45"/>
    <circle cx="136.0" cy="449.0" r="2.77"/>
    <circle cx="139.0" cy="453.0" r="3.13"/>
    <circle cx="142.0" cy="457.0" r="3.51"/>
    <circle cx="145.0" cy="461.0" r="3.91"/>
    <circle cx="148.0" cy="466.0" r="4.34"/>
    <circle cx="151.0" cy="470.0" r="4.78"/>
    <circle cx="154.0" cy="474.0" r="5.25"/>
    <circle cx="156.0" cy="478.0" r="5.73"/>
    <circle cx="159.0" cy="482.0" r="6.23"/>
    <circle cx="162.0" cy="486.0" r="6.73"/>
    <circle cx="165.0" cy="490.0" r="7.25"/>
    <circle cx="168.0" cy="494.0" r="7.77"/>
    <circle cx="171.0" cy="498.0" r="8.3"/>
    <circle cx="173.0" cy="503.0" r="8.82"/>
    <circle cx="176.0" cy="507.0" r="9.35"/>
    <circle cx="179.0" cy="511.0" r="9.87"/>
    <circle cx="182.0" cy="515.0" r="10.38"/>
    <circle cx="185.0" cy="519.0" r="10.89"/>
    <circle cx="188.0" cy="523.0" r="11.38"/>
    <circle cx="191.0" cy="527.0" r="11.86"/>
    <circle cx="193.0" cy="531.0" r="12.32"/>
    <circle cx="196.0" cy="535.0" r="12.76"/>
    <circle cx="199.0" cy="540.0" r="13.18"/>
    <circle cx="202.0" cy="544.0" r="13.58"/>
    <circle cx="205.0" cy="548.0" r="13.96"/>
    <circle cx="208.0" cy="552.0" r="14.3"/>
    <circle cx="211.0" cy="556.0" r="14.62"/>
    <circle cx="213.0" cy="560.0" r="14.91"/>
    <circle cx="216.0" cy="564.0" r="15.17"/>
    <circle cx="219.0" cy="568.0" r="15.39"/>
    <circle cx="222.0" cy="572.0" r="15.58"/>
    <circle cx="225.0" cy="576.0" r="15.74"/>
    <circle cx="228.0" cy="581.0" r="15.86"/>
    <circle cx="230.0" cy="585.0" r="15.94"/>
    <circle cx="233.0" cy="589.0" r="15.99"/>
    <circle cx="236.0" cy="592.0" r="16"/>
    <circle cx="242.0" cy="601.0" r="16.03"/>
    <circle cx="248.0" cy="609.0" r="16.11"/>
    <circle cx="254.0" cy="618.0" r="16.25"/>
    <circle cx="259.0" cy="626.0" r="16.44"/>
    <circle cx="265.0" cy="633.0" r="16.69"/>
    <circle cx="270.0" cy="641.0" r="16.99"/>
    <circle cx="276.0" cy="648.0" r="17.33"/>
    <circle cx="281.0" cy="655.0" r="17.73"/>
    <circle cx="286.0" cy="661.0" r="18.17"/>
    <circle cx="291.0" cy="668.0" r="18.66"/>
    <circle cx="295.0" cy="674.0" r="19.18"/>
    <circle cx="300.0" cy="679.0" r="19.74"/>
    <circle cx="304.0" cy="685.0" r="20.34"/>
    <circle cx="309.0" cy="690.0" r="20.96"/>
    <circle cx="313.0" cy="695.0" r="21.61"/>
    <circle cx="317.0" cy="699.0" r="22.29"/>
    <circle cx="321.0" cy="704.0" r="22.98"/>
    <circle cx="325.0" cy="708.0" r="23.69"/>
    <circle cx="328.0" cy="711.0" r="24.41"/>
    <circle cx="332.0" cy="715.0" r="25.14"/>
    <circle cx="335.0" cy="718.0" r="25.86"/>
    <circle cx="338.0" cy="721.0" r="26.59"/>
    <circle cx="341.0" cy="723.0" r="27.31"/>
    <circle cx="344.0" cy="726.0" r="28.02"/>
    <circle cx="347.0" cy="728.0" r="28.71"/>
    <circle cx="350.0" cy="729.0" r="29.39"/>
    <circle cx="352.0" cy="731.0" r="30.04"/>
    <circle cx="355.0" cy="732.0" r="30.66"/>
    <circle cx="357.0" cy="733.0" r="31.26"/>
    <circle cx="359.0" cy="734.0" r="31.82"/>
    <circle cx="361.0" cy="734.0" r="32.34"/>
    <circle cx="363.0" cy="734.0" r="32.83"/>
    <circle cx="364.0" cy="734.0" r="33.27"/>
    <circle cx="366.0" cy="733.0" r="33.67"/>
    <circle cx="367.0" cy="732.0" r="34.01"/>
    <circle cx="368.0" cy="731.0" r="34.31"/>
    <circle cx="370.0" cy="730.0" r="34.56"/>
    <circle cx="370.0" cy="728.0" r="34.75"/>
    <circle cx="371.0" cy="726.0" r="34.89"/>
    <circle cx="372.0" cy="724.0" r="34.97"/>
    <circle cx="372.0" cy="722.0" r="35"/>
    <circle cx="373.0" cy="717.0" r="35.03"/>
    <circle cx="374.0" cy="712.0" r="35.1"/>
    <circle cx="375.0" cy="707.0" r="35.23"/>
    <circle cx="375.0" cy="702.0" r="35.4"/>
    <circle cx="375.0" cy="697.0" r="35.61"/>
    <circle cx="375.0" cy="692.0" r="35.86"/>
    <circle cx="375.0" cy="687.0" r="36.15"/>
    <circle cx="375.0" cy="683.0" r="36.46"/>
    <circle cx="375.0" cy="678.0" r="36.8"/>
    <circle cx="375.0" cy="673.0" r="37.14"/>
    <circle cx="374.0" cy="669.0" r="37.5"/>
    <circle cx="374.0" cy="664.0" r="37.86"/>
    <circle cx="373.0" cy="659.0" r="38.2"/>
    <circle cx="372.0" cy="655.0" r="38.54"/>
    <circle cx="371.0" cy="650.0" r="38.85"/>
    <circle cx="370.0" cy="646.0" r="39.14"/>
    <circle cx="369.0" cy="641.0" r="39.39"/>
    <circle cx="367.0" cy="637.0" r="39.6"/>
    <circle cx="366.0" cy="632.0" r="39.77"/>
    <circle cx="364.0" cy="628.0" r="39.9"/>
    <circle cx="362.0" cy="623.0" r="39.97"/>
    <circle cx="360.0" cy="619.0" r="40"/>
    <circle cx="357.0" cy="612.0" r="39.87"/>
    <circle cx="355.0" cy="605.0" r="39.48"/>
    <circle cx="353.0" cy="599.0" r="38.87"/>
    <circle cx="351.0" cy="593.0" r="38.06"/>
    <circle cx="350.0" cy="587.0" r="37.1"/>
    <circle cx="349.0" cy="582.0" r="36.04"/>
    <circle cx="349.0" cy="578.0" r="34.96"/>
    <circle cx="350.0" cy="574.0" r="33.9"/>
    <circle cx="350.0" cy="570.0" r="32.94"/>
    <circle cx="352.0" cy="566.0" r="32.13"/>
    <circle cx="353.0" cy="564.0" r="31.52"/>
    <circle cx="356.0" cy="561.0" r="31.13"/>
    <circle cx="358.0" cy="559.0" r="31"/>
    <circle cx="362.0" cy="557.0" r="31.05"/>
    <circle cx="364.0" cy="554.0" r="31.2"/>
    <circle cx="367.0" cy="551.0" r="31.44"/>
    <circle cx="369.0" cy="548.0" r="31.75"/>
    <circle cx="371.0" cy="544.0" r="32.11"/>
    <circle cx="373.0" cy="540.0" r="32.5"/>
    <circle cx="374.0" cy="535.0" r="32.89"/>
    <circle cx="375.0" cy="530.0" r="33.25"/>
    <circle cx="376.0" cy="524.0" r="33.56"/>
    <circle cx="376.0" cy="518.0" r="33.8"/>
    <circle cx="376.0" cy="512.0" r="33.95"/>
    <circle cx="376.0" cy="505.0" r="34"/>
    <circle cx="376.0" cy="501.0" r="34.05"/>
    <circle cx="376.0" cy="497.0" r="34.18"/>
    <circle cx="376.0" cy="493.0" r="34.41"/>
    <circle cx="376.0" cy="489.0" r="34.71"/>
    <circle cx="376.0" cy="485.0" r="35.1"/>
    <circle cx="376.0" cy="481.0" r="35.55"/>
    <circle cx="376.0" cy="477.0" r="36.07"/>
    <circle cx="376.0" cy="472.0" r="36.63"/>
    <circle cx="376.0" cy="468.0" r="37.23"/>
    <circle cx="377.0" cy="463.0" r="37.86"/>
    <circle cx="377.0" cy="459.0" r="38.5"/>
    <circle cx="377.0" cy="454.0" r="39.14"/>
    <circle cx="378.0" cy="450.0" r="39.77"/>
    <circle cx="378.0" cy="445.0" r="40.37"/>
    <circle cx="379.0" cy="440.0" r="40.93"/>
    <circle cx="379.0" cy="435.0" r="41.45"/>
    <circle cx="380.0" cy="430.0" r="41.9"/>
    <circle cx="381.0" cy="425.0" r="42.29"/>
    <circle cx="381.0" cy="420.0" r="42.59"/>
    <circle cx="382.0" cy="415.0" r="42.82"/>
    <circle cx="383.0" cy="410.0" r="42.95"/>
    <circle cx="384.0" cy="404.0" r="43"/>
    <circle cx="385.0" cy="398.0" r="43.02"/>
    <circle cx="386.0" cy="392.0" r="43.06"/>
    <circle cx="387.0" cy="386.0" r="43.13"/>
    <circle cx="388.0" cy="380.0" r="43.23"/>
    <circle cx="388.0" cy="374.0" r="43.36"/>
    <circle cx="389.0" cy="369.0" r="43.5"/>
    <circle cx="389.0" cy="364.0" r="43.66"/>
    <circle cx="390.0" cy="359.0" r="43.83"/>
    <circle cx="390.0" cy="354.0" r="44.0"/>
    <circle cx="390.0" cy="349.0" r="44.17"/>
    <circle cx="390.0" cy="345.0" r="44.34"/>
    <circle cx="390.0" cy="340.0" r="44.5"/>
    <circle cx="390.0" cy="336.0" r="44.64"/>
    <circle cx="389.0" cy="332.0" r="44.77"/>
    <circle cx="389.0" cy="329.0" r="44.87"/>
    <circle cx="388.0" cy="325.0" r="44.94"/>
    <circle cx="388.0" cy="322.0" r="44.98"/>
    <circle cx="387.0" cy="318.0" r="45"/>
    <circle cx="386.0" cy="315.0" r="44.97"/>
    <circle cx="385.0" cy="311.0" r="44.89"/>
    <circle cx="385.0" cy="308.0" r="44.75"/>
    <circle cx="384.0" cy="304.0" r="44.56"/>
    <circle cx="383.0" cy="300.0" r="44.33"/>
    <circle cx="382.0" cy="295.0" r="44.07"/>
    <circle cx="382.0" cy="291.0" r="43.79"/>
    <circle cx="381.0" cy="287.0" r="43.5"/>
    <circle cx="380.0" cy="282.0" r="43.21"/>
    <circle cx="380.0" cy="277.0" r="42.93"/>
    <circle cx="379.0" cy="272.0" r="42.67"/>
    <circle cx="379.0" cy="267.0" r="42.44"/>
    <circle cx="378.0" cy="262.0" r="42.25"/>
    <circle cx="378.0" cy="257.0" r="42.11"/>
    <circle cx="377.0" cy="252.0" r="42.03"/>
    <circle cx="377.0" cy="246.0" r="42"/>
    <circle cx="377.0" cy="241.0" r="41.98"/>
    <circle cx="376.0" cy="236.0" r="41.91"/>
    <circle cx="376.0" cy="231.0" r="41.8"/>
    <circle cx="375.0" cy="226.0" r="41.65"/>
    <circle cx="375.0" cy="221.0" r="41.46"/>
    <circle cx="374.0" cy="217.0" r="41.25"/>
    <circle cx="374.0" cy="212.0" r="41.01"/>
    <circle cx="373.0" cy="207.0" r="40.76"/>
    <circle cx="372.0" cy="202.0" r="40.5"/>
    <circle cx="372.0" cy="197.0" r="40.24"/>
    <circle cx="371.0" cy="193.0" r="39.99"/>
    <circle cx="370.0" cy="188.0" r="39.75"/>
    <circle cx="370.0" cy="183.0" r="39.54"/>
    <circle cx="369.0" cy="179.0" r="39.35"/>
    <circle cx="368.0" cy="174.0" r="39.2"/>
    <circle cx="367.0" cy="170.0" r="39.09"/>
    <circle cx="366.0" cy="165.0" r="39.02"/>
    <circle cx="365.0" cy="160.0" r="39"/>
    <circle cx="373.0" cy="164.0" r="39"/>
    <circle cx="374.0" cy="168.0" r="38.96"/>
    <circle cx="376.0" cy="171.0" r="38.83"/>
    <circle cx="377.0" cy="175.0" r="38.62"/>
    <circle cx="379.0" cy="179.0" r="38.33"/>
    <circle cx="381.0" cy="183.0" r="37.97"/>
    <circle cx="382.0" cy="187.0" r="37.54"/>
    <circle cx="384.0" cy="191.0" r="37.04"/>
    <circle cx="385.0" cy="195.0" r="36.5"/>
    <circle cx="387.0" cy="199.0" r="35.91"/>
    <circle cx="389.0" cy="203.0" r="35.29"/>
    <circle cx="391.0" cy="207.0" r="34.65"/>
    <circle cx="392.0" cy="212.0" r="34.0"/>
    <circle cx="394.0" cy="216.0" r="33.35"/>
    <circle cx="396.0" cy="220.0" r="32.71"/>
    <circle cx="398.0" cy="225.0" r="32.09"/>
    <circle cx="400.0" cy="229.0" r="31.5"/>
    <circle cx="402.0" cy="234.0" r="30.96"/>
    <circle cx="404.0" cy="238.0" r="30.46"/>
    <circle cx="406.0" cy="243.0" r="30.03"/>
    <circle cx="408.0" cy="248.0" r="29.67"/>
    <circle cx="410.0" cy="252.0" r="29.38"/>
    <circle cx="413.0" cy="257.0" r="29.17"/>
    <circle cx="415.0" cy="262.0" r="29.04"/>
    <circle cx="417.0" cy="267.0" r="29"/>
    <circle cx="419.0" cy="272.0" r="29.05"/>
    <circle cx="422.0" cy="278.0" r="29.18"/>
    <circle cx="424.0" cy="283.0" r="29.41"/>
    <circle cx="426.0" cy="288.0" r="29.71"/>
    <circle cx="429.0" cy="292.0" r="30.1"/>
    <circle cx="431.0" cy="297.0" r="30.55"/>
    <circle cx="433.0" cy="302.0" r="31.07"/>
    <circle cx="435.0" cy="306.0" r="31.63"/>
    <circle cx="437.0" cy="311.0" r="32.23"/>
    <circle cx="439.0" cy="315.0" r="32.86"/>
    <circle cx="441.0" cy="320.0" r="33.5"/>
    <circle cx="443.0" cy="324.0" r="34.14"/>
    <circle cx="444.0" cy="328.0" r="34.77"/>
    <circle cx="446.0" cy="332.0" r="35.37"/>
    <circle cx="448.0" cy="335.0" r="35.93"/>
    <circle cx="449.0" cy="339.0" r="36.45"/>
    <circle cx="451.0" cy="343.0" r="36.9"/>
    <circle cx="452.0" cy="346.0" r="37.29"/>
    <circle cx="454.0" cy="350.0" r="37.59"/>
    <circle cx="455.0" cy="353.0" r="37.82"/>
    <circle cx="457.0" cy="356.0" r="37.95"/>
    <circle cx="458.0" cy="359.0" r="38"/>
    <circle cx="460.0" cy="363.0" r="37.96"/>
    <circle cx="461.0" cy="368.0" r="37.83"/>
    <circle cx="463.0" cy="372.0" r="37.62"/>
    <circle cx="464.0" cy="377.0" r="37.34"/>
    <circle cx="466.0" cy="381.0" r="37.0"/>
    <circle cx="467.0" cy="386.0" r="36.62"/>
    <circle cx="468.0" cy="391.0" r="36.21"/>
    <circle cx="469.0" cy="395.0" r="35.79"/>
    <circle cx="469.0" cy="400.0" r="35.38"/>
    <circle cx="470.0" cy="405.0" r="35.0"/>
    <circle cx="470.0" cy="410.0" r="34.66"/>
    <circle cx="471.0" cy="414.0" r="34.38"/>
    <circle cx="471.0" cy="419.0" r="34.17"/>
    <circle cx="471.0" cy="424.0" r="34.04"/>
    <circle cx="471.0" cy="429.0" r="34"/>
    <circle cx="471.0" cy="433.0" r="33.94"/>
    <circle cx="471.0" cy="436.0" r="33.76"/>
    <circle cx="471.0" cy="440.0" r="33.46"/>
    <circle cx="471.0" cy="444.0" r="33.04"/>
    <circle cx="471.0" cy="448.0" r="32.53"/>
    <circle cx="472.0" cy="452.0" r="31.93"/>
    <circle cx="472.0" cy="456.0" r="31.25"/>
    <circle cx="473.0" cy="460.0" r="30.51"/>
    <circle cx="473.0" cy="465.0" r="29.72"/>
    <circle cx="474.0" cy="469.0" r="28.91"/>
    <circle cx="474.0" cy="474.0" r="28.09"/>
    <circle cx="475.0" cy="478.0" r="27.28"/>
    <circle cx="476.0" cy="483.0" r="26.49"/>
    <circle cx="477.0" cy="488.0" r="25.75"/>
    <circle cx="478.0" cy="493.0" r="25.07"/>
    <circle cx="479.0" cy="498.0" r="24.47"/>
    <circle cx="480.0" cy="503.0" r="23.96"/>
    <circle cx="481.0" cy="509.0" r="23.54"/>
    <circle cx="483.0" cy="514.0" r="23.24"/>
    <circle cx="484.0" cy="519.0" r="23.06"/>
    <circle cx="486.0" cy="525.0" r="23"/>
    <circle cx="487.0" cy="530.0" r="23.13"/>
    <circle cx="488.0" cy="534.0" r="23.52"/>
    <circle cx="489.0" cy="539.0" r="24.16"/>
    <circle cx="491.0" cy="544.0" r="25.04"/>
    <circle cx="492.0" cy="548.0" r="26.15"/>
    <circle cx="493.0" cy="553.0" r="27.47"/>
    <circle cx="494.0" cy="557.0" r="28.98"/>
    <circle cx="496.0" cy="562.0" r="30.66"/>
    <circle cx="497.0" cy="567.0" r="32.47"/>
    <circle cx="498.0" cy="571.0" r="34.4"/>
    <circle cx="500.0" cy="575.0" r="36.41"/>
    <circle cx="501.0" cy="580.0" r="38.46"/>
    <circle cx="502.0" cy="584.0" r="40.54"/>
    <circle cx="503.0" cy="589.0" r="42.59"/>
    <circle cx="505.0" cy="593.0" r="44.6"/>
    <circle cx="506.0" cy="597.0" r="46.53"/>
    <circle cx="508.0" cy="602.0" r="48.34"/>
    <circle cx="509.0" cy="606.0" r="50.02"/>
    <circle cx="510.0" cy="610.0" r="51.53"/>
    <circle cx="512.0" cy="615.0" r="52.85"/>
    <circle cx="513.0" cy="619.0" r="53.96"/>
    <circle cx="514.0" cy="623.0" r="54.84"/>
    <circle cx="516.0" cy="627.0" r="55.48"/>
    <circle cx="517.0" cy="631.0" r="55.87"/>
    <circle cx="518.0" cy="636.0" r="56"/>
    <circle cx="520.0" cy="640.0" r="55.87"/>
    <circle cx="522.0" cy="644.0" r="55.48"/>
    <circle cx="523.0" cy="649.0" r="54.84"/>
    <circle cx="525.0" cy="653.0" r="53.96"/>
    <circle cx="526.0" cy="658.0" r="52.86"/>
    <circle cx="528.0" cy="662.0" r="51.56"/>
    <circle cx="530.0" cy="667.0" r="50.07"/>
    <circle cx="532.0" cy="671.0" r="48.44"/>
    <circle cx="533.0" cy="675.0" r="46.69"/>
    <circle cx="535.0" cy="680.0" r="44.85"/>
    <circle cx="537.0" cy="684.0" r="42.96"/>
    <circle cx="539.0" cy="688.0" r="41.04"/>
    <circle cx="541.0" cy="693.0" r="39.15"/>
    <circle cx="543.0" cy="697.0" r="37.31"/>
    <circle cx="545.0" cy="701.0" r="35.56"/>
    <circle cx="547.0" cy="705.0" r="33.93"/>
    <circle cx="549.0" cy="710.0" r="32.44"/>
    <circle cx="551.0" cy="714.0" r="31.14"/>
    <circle cx="553.0" cy="718.0" r="30.04"/>
    <circle cx="555.0" cy="722.0" r="29.16"/>
    <circle cx="557.0" cy="727.0" r="28.52"/>
    <circle cx="559.0" cy="731.0" r="28.13"/>
    <circle cx="562.0" cy="735.0" r="28"/>
    <circle cx="562.0" cy="737.0" r="28.0"/>
    <circle cx="563.0" cy="738.0" r="27.99"/>
    <circle cx="564.0" cy="739.0" r="27.98"/>
    <circle cx="565.0" cy="740.0" r="27.96"/>
    <circle cx="566.0" cy="741.0" r="27.95"/>
    <circle cx="567.0" cy="741.0" r="27.92"/>
    <circle cx="568.0" cy="741.0" r="27.89"/>
    <circle cx="569.0" cy="741.0" r="27.86"/>
    <circle cx="569.0" cy="741.0" r="27.83"/>
    <circle cx="570.0" cy="741.0" r="27.79"/>
    <circle cx="571.0" cy="740.0" r="27.74"/>
    <circle cx="572.0" cy="740.0" r="27.69"/>
    <circle cx="573.0" cy="739.0" r="27.64"/>
    <circle cx="574.0" cy="737.0" r="27.59"/>
    <circle cx="575.0" cy="736.0" r="27.53"/>
    <circle cx="576.0" cy="734.0" r="27.47"/>
    <circle cx="577.0" cy="733.0" r="27.41"/>
    <circle cx="577.0" cy="731.0" r="27.34"/>
    <circle cx="578.0" cy="728.0" r="27.27"/>
    <circle cx="579.0" cy="726.0" r="27.2"/>
    <circle cx="580.0" cy="723.0" r="27.13"/>
    <circle cx="581.0" cy="720.0" r="27.06"/>
    <circle cx="582.0" cy="717.0" r="26.98"/>
    <circle cx="583.0" cy="714.0" r="26.9"/>
    <circle cx="584.0" cy="710.0" r="26.82"/>
    <circle cx="585.0" cy="706.0" r="26.74"/>
    <circle cx="586.0" cy="703.0" r="26.66"/>
    <circle cx="586.0" cy="698.0" r="26.58"/>
    <circle cx="587.0" cy="694.0" r="26.5"/>
    <circle cx="588.0" cy="689.0" r="26.42"/>
    <circle cx="589.0" cy="685.0" r="26.34"/>
    <circle cx="590.0" cy="680.0" r="26.26"/>
    <circle cx="591.0" cy="674.0" r="26.18"/>
    <circle cx="592.0" cy="669.0" r="26.1"/>
    <circle cx="593.0" cy="663.0" r="26.02"/>
    <circle cx="594.0" cy="657.0" r="25.94"/>
    <circle cx="595.0" cy="651.0" r="25.87"/>
    <circle cx="596.0" cy="645.0" r="25.8"/>
    <circle cx="596.0" cy="639.0" r="25.73"/>
    <circle cx="597.0" cy="632.0" r="25.66"/>
    <circle cx="598.0" cy="625.0" r="25.59"/>
    <circle cx="599.0" cy="618.0" r="25.53"/>
    <circle cx="600.0" cy="610.0" r="25.47"/>
    <circle cx="601.0" cy="603.0" r="25.41"/>
    <circle cx="602.0" cy="595.0" r="25.36"/>
    <circle cx="603.0" cy="587.0" r="25.31"/>
    <circle cx="604.0" cy="579.0" r="25.26"/>
    <circle cx="605.0" cy="571.0" r="25.21"/>
    <circle cx="606.0" cy="562.0" r="25.17"/>
    <circle cx="607.0" cy="553.0" r="25.14"/>
    <circle cx="608.0" cy="544.0" r="25.11"/>
    <circle cx="608.0" cy="535.0" r="25.08"/>
    <circle cx="609.0" cy="525.0" r="25.05"/>
    <circle cx="610.0" cy="516.0" r="25.04"/>
    <circle cx="611.0" cy="506.0" r="25.02"/>
    <circle cx="612.0" cy="496.0" r="25.01"/>
    <circle cx="613.0" cy="486.0" r="25.0"/>
    <circle cx="614.0" cy="475.0" r="25"/>
    <circle cx="615.0" cy="465.0" r="25.0"/>
    <circle cx="616.0" cy="455.0" r="25.02"/>
    <circle cx="617.0" cy="445.0" r="25.04"/>
    <circle cx="617.0" cy="435.0" r="25.07"/>
    <circle cx="618.0" cy="426.0" r="25.1"/>
    <circle cx="619.0" cy="417.0" r="25.15"/>
    <circle cx="620.0" cy="408.0" r="25.2"/>
    <circle cx="621.0" cy="399.0" r="25.26"/>
    <circle cx="621.0" cy="390.0" r="25.33"/>
    <circle cx="622.0" cy="382.0" r="25.4"/>
    <circle cx="623.0" cy="374.0" r="25.48"/>
    <circle cx="623.0" cy="365.0" r="25.57"/>
    <circle cx="624.0" cy="358.0" r="25.67"/>
    <circle cx="625.0" cy="350.0" r="25.77"/>
    <circle cx="625.0" cy="342.0" r="25.88"/>
    <circle cx="626.0" cy="335.0" r="25.99"/>
    <circle cx="626.0" cy="328.0" r="26.11"/>
    <circle cx="627.0" cy="321.0" r="26.24"/>
    <circle cx="628.0" cy="314.0" r="26.37"/>
    <circle cx="628.0" cy="308.0" r="26.5"/>
    <circle cx="629.0" cy="301.0" r="26.64"/>
    <circle cx="629.0" cy="295.0" r="26.78"/>
    <circle cx="630.0" cy="289.0" r="26.92"/>
    <circle cx="630.0" cy="283.0" r="27.07"/>
    <circle cx="630.0" cy="278.0" r="27.22"/>
    <circle cx="631.0" cy="272.0" r="27.38"/>
    <circle cx="631.0" cy="267.0" r="27.53"/>
    <circle cx="632.0" cy="262.0" r="27.69"/>
    <circle cx="632.0" cy="257.0" r="27.84"/>
    <circle cx="632.0" cy="252.0" r="28.0"/>
    <circle cx="633.0" cy="248.0" r="28.16"/>
    <circle cx="633.0" cy="243.0" r="28.31"/>
    <circle cx="633.0" cy="239.0" r="28.47"/>
    <circle cx="633.0" cy="235.0" r="28.62"/>
    <circle cx="634.0" cy="232.0" r="28.78"/>
    <circle cx="634.0" cy="228.0" r="28.93"/>
    <circle cx="634.0" cy="225.0" r="29.08"/>
    <circle cx="634.0" cy="222.0" r="29.22"/>
    <circle cx="634.0" cy="219.0" r="29.36"/>
    <circle cx="634.0" cy="216.0" r="29.5"/>
    <circle cx="635.0" cy="213.0" r="29.63"/>
    <circle cx="635.0" cy="211.0" r="29.76"/>
    <circle cx="635.0" cy="209.0" r="29.89"/>
    <circle cx="635.0" cy="207.0" r="30.01"/>
    <circle cx="635.0" cy="205.0" r="30.12"/>
    <circle cx="635.0" cy="203.0" r="30.23"/>
    <circle cx="635.0" cy="202.0" r="30.33"/>
    <circle cx="635.0" cy="200.0" r="30.43"/>
    <circle cx="635.0" cy="199.0" r="30.52"/>
    <circle cx="635.0" cy="198.0" r="30.6"/>
    <circle cx="635.0" cy="198.0" r="30.67"/>
    <circle cx="635.0" cy="197.0" r="30.74"/>
    <circle cx="634.0" cy="197.0" r="30.8"/>
    <circle cx="634.0" cy="197.0" r="30.85"/>
    <circle cx="634.0" cy="197.0" r="30.9"/>
    <circle cx="634.0" cy="197.0" r="30.93"/>
    <circle cx="634.0" cy="198.0" r="30.96"/>
    <circle cx="633.0" cy="198.0" r="30.98"/>
    <circle cx="633.0" cy="199.0" r="31.0"/>
    <circle cx="633.0" cy="200.0" r="31"/>
    <circle cx="632.0" cy="205.0" r="30.77"/>
    <circle cx="631.0" cy="210.0" r="30.08"/>
    <circle cx="631.0" cy="215.0" r="28.99"/>
    <circle cx="631.0" cy="220.0" r="27.54"/>
    <circle cx="632.0" cy="225.0" r="25.84"/>
    <circle cx="633.0" cy="229.0" r="23.96"/>
    <circle cx="634.0" cy="234.0" r="22.04"/>
    <circle cx="636.0" cy="239.0" r="20.16"/>
    <circle cx="638.0" cy="243.0" r="18.46"/>
    <circle cx="641.0" cy="248.0" r="17.01"/>
    <circle cx="644.0" cy="252.0" r="15.92"/>
    <circle cx="648.0" cy="256.0" r="15.23"/>
    <circle cx="652.0" cy="260.0" r="15"/>
    <circle cx="655.0" cy="265.0" r="15.35"/>
    <circle cx="659.0" cy="269.0" r="16.37"/>
    <circle cx="663.0" cy="273.0" r="18.02"/>
    <circle cx="666.0" cy="277.0" r="20.18"/>
    <circle cx="668.0" cy="281.0" r="22.74"/>
    <circle cx="671.0" cy="286.0" r="25.55"/>
    <circle cx="673.0" cy="290.0" r="28.45"/>
    <circle cx="675.0" cy="294.0" r="31.26"/>
    <circle cx="677.0" cy="298.0" r="33.82"/>
    <circle cx="679.0" cy="302.0" r="35.98"/>
    <circle cx="680.0" cy="306.0" r="37.63"/>
    <circle cx="681.0" cy="310.0" r="38.65"/>
    <circle cx="682.0" cy="314.0" r="39"/>
    <circle cx="682.0" cy="317.0" r="38.99"/>
    <circle cx="682.0" cy="321.0" r="38.97"/>
    <circle cx="683.0" cy="324.0" r="38.93"/>
    <circle cx="683.0" cy="328.0" r="38.87"/>
    <circle cx="684.0" cy="332.0" r="38.8"/>
    <circle cx="684.0" cy="336.0" r="38.72"/>
    <circle cx="684.0" cy="340.0" r="38.64"/>
    <circle cx="685.0" cy="345.0" r="38.55"/>
    <circle cx="685.0" cy="350.0" r="38.45"/>
    <circle cx="686.0" cy="355.0" r="38.36"/>
    <circle cx="686.0" cy="360.0" r="38.28"/>
    <circle cx="687.0" cy="365.0" r="38.2"/>
    <circle cx="687.0" cy="371.0" r="38.13"/>
    <circle cx="688.0" cy="376.0" r="38.07"/>
    <circle cx="688.0" cy="382.0" r="38.03"/>
    <circle cx="689.0" cy="389.0" r="38.01"/>
    <circle cx="689.0" cy="395.0" r="38"/>
    <circle cx="689.0" cy="400.0" r="37.96"/>
    <circle cx="690.0" cy="406.0" r="37.85"/>
    <circle cx="690.0" cy="411.0" r="37.67"/>
    <circle cx="691.0" cy="416.0" r="37.43"/>
    <circle cx="691.0" cy="422.0" r="37.12"/>
    <circle cx="692.0" cy="427.0" r="36.76"/>
    <circle cx="692.0" cy="432.0" r="36.36"/>
    <circle cx="693.0" cy="436.0" r="35.93"/>
    <circle cx="694.0" cy="441.0" r="35.47"/>
    <circle cx="694.0" cy="446.0" r="35.0"/>
    <circle cx="695.0" cy="451.0" r="34.53"/>
    <circle cx="696.0" cy="455.0" r="34.07"/>
    <circle cx="696.0" cy="460.0" r="33.64"/>
    <circle cx="697.0" cy="464.0" r="33.24"/>
    <circle cx="698.0" cy="468.0" r="32.88"/>
    <circle cx="699.0" cy="473.0" r="32.57"/>
    <circle cx="699.0" cy="477.0" r="32.33"/>
    <circle cx="700.0" cy="481.0" r="32.15"/>
    <circle cx="701.0" cy="485.0" r="32.04"/>
    <circle cx="702.0" cy="489.0" r="32"/>
    <circle cx="703.0" cy="495.0" r="32.06"/>
    <circle cx="705.0" cy="501.0" r="32.23"/>
    <circle cx="706.0" cy="506.0" r="32.5"/>
    <circle cx="707.0" cy="511.0" r="32.86"/>
    <circle cx="709.0" cy="516.0" r="33.29"/>
    <circle cx="710.0" cy="521.0" r="33.76"/>
    <circle cx="711.0" cy="526.0" r="34.24"/>
    <circle cx="712.0" cy="531.0" r="34.71"/>
    <circle cx="713.0" cy="535.0" r="35.14"/>
    <circle cx="714.0" cy="539.0" r="35.5"/>
    <circle cx="715.0" cy="543.0" r="35.77"/>
    <circle cx="716.0" cy="547.0" r="35.94"/>
    <circle cx="718.0" cy="550.0" r="36"/>
    <circle cx="718.0" cy="554.0" r="36.09"/>
    <circle cx="719.0" cy="558.0" r="36.33"/>
    <circle cx="720.0" cy="562.0" r="36.73"/>
    <circle cx="721.0" cy="566.0" r="37.25"/>
    <circle cx="721.0" cy="571.0" r="37.85"/>
    <circle cx="721.0" cy="575.0" r="38.5"/>
    <circle cx="721.0" cy="580.0" r="39.15"/>
    <circle cx="721.0" cy="585.0" r="39.75"/>
    <circle cx="720.0" cy="590.0" r="40.27"/>
    <circle cx="720.0" cy="596.0" r="40.67"/>
    <circle cx="719.0" cy="601.0" r="40.91"/>
    <circle cx="718.0" cy="607.0" r="41"/>
    <circle cx="718.0" cy="612.0" r="40.71"/>
    <circle cx="717.0" cy="618.0" r="39.85"/>
    <circle cx="716.0" cy="623.0" r="38.49"/>
    <circle cx="716.0" cy="628.0" r="36.68"/>
    <circle cx="716.0" cy="633.0" r="34.55"/>
    <circle cx="715.0" cy="638.0" r="32.21"/>
    <circle cx="715.0" cy="643.0" r="29.79"/>
    <circle cx="715.0" cy="648.0" r="27.45"/>
    <circle cx="715.0" cy="652.0" r="25.32"/>
    <circle cx="716.0" cy="657.0" r="23.51"/>
    <circle cx="716.0" cy="662.0" r="22.15"/>
    <circle cx="716.0" cy="666.0" r="21.29"/>
    <circle cx="717.0" cy="670.0" r="21"/>
    <circle cx="718.0" cy="674.0" r="20.99"/>
    <circle cx="718.0" cy="676.0" r="20.94"/>
    <circle cx="718.0" cy="677.0" r="20.87"/>
    <circle cx="718.0" cy="677.0" r="20.78"/>
    <circle cx="718.0" cy="675.0" r="20.68"/>
    <circle cx="718.0" cy="671.0" r="20.56"/>
    <circle cx="717.0" cy="667.0" r="20.44"/>
    <circle cx="716.0" cy="660.0" r="20.32"/>
    <circle cx="716.0" cy="653.0" r="20.22"/>
    <circle cx="715.0" cy="644.0" r="20.13"/>
    <circle cx="713.0" cy="633.0" r="20.06"/>
    <circle cx="712.0" cy="621.0" r="20.01"/>
    <circle cx="710.0" cy="608.0" r="20"/>
    <circle cx="710.0" cy="603.0" r="20.02"/>
    <circle cx="710.0" cy="599.0" r="20.07"/>
    <circle cx="709.0" cy="594.0" r="20.16"/>
    <circle cx="709.0" cy="589.0" r="20.28"/>
    <circle cx="708.0" cy="585.0" r="20.44"/>
    <circle cx="708.0" cy="580.0" r="20.63"/>
    <circle cx="708.0" cy="575.0" r="20.85"/>
    <circle cx="707.0" cy="571.0" r="21.1"/>
    <circle cx="707.0" cy="566.0" r="21.38"/>
    <circle cx="707.0" cy="561.0" r="21.69"/>
    <circle cx="707.0" cy="557.0" r="22.02"/>
    <circle cx="707.0" cy="552.0" r="22.38"/>
    <circle cx="707.0" cy="547.0" r="22.75"/>
    <circle cx="707.0" cy="543.0" r="23.14"/>
    <circle cx="707.0" cy="538.0" r="23.55"/>
    <circle cx="707.0" cy="534.0" r="23.97"/>
    <circle cx="707.0" cy="529.0" r="24.4"/>
    <circle cx="707.0" cy="524.0" r="24.84"/>
    <circle cx="707.0" cy="520.0" r="25.28"/>
    <circle cx="707.0" cy="515.0" r="25.72"/>
    <circle cx="708.0" cy="510.0" r="26.16"/>
    <circle cx="708.0" cy="506.0" r="26.6"/>
    <circle cx="708.0" cy="501.0" r="27.03"/>
    <circle cx="709.0" cy="496.0" r="27.45"/>
    <circle cx="709.0" cy="492.0" r="27.86"/>
    <circle cx="710.0" cy="487.0" r="28.25"/>
    <circle cx="710.0" cy="482.0" r="28.62"/>
    <circle cx="711.0" cy="478.0" r="28.98"/>
    <circle cx="711.0" cy="473.0" r="29.31"/>
    <circle cx="712.0" cy="469.0" r="29.62"/>
    <circle cx="712.0" cy="464.0" r="29.9"/>
    <circle cx="713.0" cy="459.0" r="30.15"/>
    <circle cx="714.0" cy="455.0" r="30.37"/>
    <circle cx="715.0" cy="450.0" r="30.56"/>
    <circle cx="715.0" cy="445.0" r="30.72"/>
    <circle cx="716.0" cy="441.0" r="30.84"/>
    <circle cx="717.0" cy="436.0" r="30.93"/>
    <circle cx="718.0" cy="432.0" r="30.98"/>
    <circle cx="719.0" cy="427.0" r="31"/>
    <circle cx="720.0" cy="423.0" r="31.02"/>
    <circle cx="721.0" cy="418.0" r="31.09"/>
    <circle cx="721.0" cy="414.0" r="31.2"/>
    <circle cx="722.0" cy="410.0" r="31.36"/>
    <circle cx="723.0" cy="405.0" r="31.55"/>
    <circle cx="724.0" cy="401.0" r="31.79"/>
    <circle cx="724.0" cy="397.0" r="32.07"/>
    <circle cx="725.0" cy="392.0" r="32.39"/>
    <circle cx="725.0" cy="388.0" r="32.75"/>
    <circle cx="726.0" cy="383.0" r="33.14"/>
    <circle cx="726.0" cy="379.0" r="33.56"/>
    <circle cx="726.0" cy="374.0" r="34.01"/>
    <circle cx="727.0" cy="370.0" r="34.49"/>
    <circle cx="727.0" cy="365.0" r="35.0"/>
    <circle cx="727.0" cy="361.0" r="35.53"/>
    <circle cx="727.0" cy="356.0" r="36.08"/>
    <circle cx="727.0" cy="352.0" r="36.64"/>
    <circle cx="727.0" cy="347.0" r="37.22"/>
    <circle cx="727.0" cy="343.0" r="37.81"/>
    <circle cx="727.0" cy="338.0" r="38.4"/>
    <circle cx="727.0" cy="334.0" r="39.0"/>
    <circle cx="727.0" cy="329.0" r="39.6"/>
    <circle cx="727.0" cy="324.0" r="40.19"/>
    <circle cx="726.0" cy="320.0" r="40.78"/>
    <circle cx="726.0" cy="315.0" r="41.36"/>
    <circle cx="726.0" cy="310.0" r="41.92"/>
    <circle cx="725.0" cy="306.0" r="42.47"/>
    <circle cx="725.0" cy="301.0" r="43.0"/>
    <circle cx="724.0" cy="296.0" r="43.51"/>
    <circle cx="724.0" cy="291.0" r="43.99"/>
    <circle cx="723.0" cy="287.0" r="44.44"/>
    <circle cx="722.0" cy="282.0" r="44.86"/>
    <circle cx="722.0" cy="277.0" r="45.25"/>
    <circle cx="721.0" cy="272.0" r="45.61"/>
    <circle cx="720.0" cy="267.0" r="45.93"/>
    <circle cx="719.0" cy="262.0" r="46.21"/>
    <circle cx="718.0" cy="258.0" r="46.45"/>
    <circle cx="717.0" cy="253.0" r="46.64"/>
    <circle cx="716.0" cy="248.0" r="46.8"/>
    <circle cx="715.0" cy="243.0" r="46.91"/>
    <circle cx="714.0" cy="238.0" r="46.98"/>
    <circle cx="713.0" cy="233.0" r="47"/>
    <circle cx="712.0" cy="227.0" r="46.94"/>
    <circle cx="711.0" cy="221.0" r="46.78"/>
    <circle cx="710.0" cy="216.0" r="46.5"/>
    <circle cx="710.0" cy="211.0" r="46.12"/>
    <circle cx="710.0" cy="207.0" r="45.64"/>
    <circle cx="710.0" cy="203.0" r="45.06"/>
    <circle cx="711.0" cy="200.0" r="44.39"/>
    <circle cx="712.0" cy="197.0" r="43.63"/>
    <circle cx="714.0" cy="195.0" r="42.8"/>
    <circle cx="716.0" cy="194.0" r="41.89"/>
    <circle cx="718.0" cy="192.0" r="40.92"/>
    <circle cx="720.0" cy="192.0" r="39.9"/>
    <circle cx="723.0" cy="192.0" r="38.84"/>
    <circle cx="727.0" cy="192.0" r="37.74"/>
    <circle cx="731.0" cy="193.0" r="36.63"/>
    <circle cx="735.0" cy="194.0" r="35.5"/>
    <circle cx="739.0" cy="196.0" r="34.37"/>
    <circle cx="744.0" cy="199.0" r="33.26"/>
    <circle cx="749.0" cy="202.0" r="32.16"/>
    <circle cx="755.0" cy="205.0" r="31.1"/>
    <circle cx="761.0" cy="209.0" r="30.08"/>
    <circle cx="767.0" cy="214.0" r="29.11"/>
    <circle cx="773.0" cy="219.0" r="28.2"/>
    <circle cx="780.0" cy="224.0" r="27.37"/>
    <circle cx="788.0" cy="230.0" r="26.61"/>
    <circle cx="795.0" cy="237.0" r="25.94"/>
    <circle cx="804.0" cy="244.0" r="25.36"/>
    <circle cx="812.0" cy="252.0" r="24.88"/>
    <circle cx="821.0" cy="260.0" r="24.5"/>
    <circle cx="830.0" cy="268.0" r="24.22"/>
    <circle cx="840.0" cy="277.0" r="24.06"/>
    <circle cx="850.0" cy="287.0" r="24"/>
    <circle cx="853.0" cy="290.0" r="23.97"/>
    <circle cx="857.0" cy="294.0" r="23.89"/>
    <circle cx="860.0" cy="297.0" r="23.75"/>
    <circle cx="864.0" cy="301.0" r="23.56"/>
    <circle cx="867.0" cy="304.0" r="23.31"/>
    <circle cx="871.0" cy="308.0" r="23.01"/>
    <circle cx="875.0" cy="311.0" r="22.66"/>
    <circle cx="878.0" cy="315.0" r="22.27"/>
    <circle cx="882.0" cy="318.0" r="21.82"/>
    <circle cx="885.0" cy="322.0" r="21.33"/>
    <circle cx="889.0" cy="325.0" r="20.8"/>
    <circle cx="892.0" cy="329.0" r="20.22"/>
    <circle cx="896.0" cy="332.0" r="19.61"/>
    <circle cx="900.0" cy="336.0" r="18.97"/>
    <circle cx="903.0" cy="339.0" r="18.29"/>
    <circle cx="907.0" cy="343.0" r="17.59"/>
    <circle cx="910.0" cy="346.0" r="16.86"/>
    <circle cx="914.0" cy="350.0" r="16.11"/>
    <circle cx="917.0" cy="353.0" r="15.34"/>
    <circle cx="921.0" cy="357.0" r="14.56"/>
    <circle cx="925.0" cy="360.0" r="13.77"/>
    <circle cx="928.0" cy="364.0" r="12.97"/>
    <circle cx="932.0" cy="367.0" r="12.17"/>
    <circle cx="935.0" cy="371.0" r="11.38"/>
    <circle cx="939.0" cy="374.0" r="10.58"/>
    <circle cx="942.0" cy="378.0" r="9.8"/>
    <circle cx="946.0" cy="381.0" r="9.03"/>
    <circle cx="950.0" cy="385.0" r="8.28"/>
    <circle cx="953.0" cy="388.0" r="7.55"/>
    <circle cx="957.0" cy="392.0" r="6.84"/>
    <circle cx="960.0" cy="395.0" r="6.15"/>
    <circle cx="964.0" cy="399.0" r="5.5"/>
    <circle cx="967.0" cy="402.0" r="4.89"/>
    <circle cx="971.0" cy="406.0" r="4.31"/>
    <circle cx="975.0" cy="409.0" r="3.77"/>
    <circle cx="978.0" cy="413.0" r="3.27"/>
    <circle cx="982.0" cy="416.0" r="2.81"/>
    <circle cx="985.0" cy="420.0" r="2.41"/>
    <circle cx="989.0" cy="423.0" r="2.05"/>
    <circle cx="992.0" cy="427.0" r="1.74"/>
    <circle cx="996.0" cy="430.0" r="1.48"/>
    <circle cx="1000.0" cy="434.0" r="1.28"/>
    <circle cx="1003.0" cy="437.0" r="1.13"/>
    <circle cx="1007.0" cy="441.0" r="1.04"/>
    <circle cx="1010.0" cy="444.0" r="1.0"/>
    <circle cx="1011.0" cy="445.0" r="1"/>
    <g stroke="blue">
      <circle cx="138.0" cy="408.0" r="5"/>
      <circle cx="132.27050983124843" cy="425.6335575687742" r="5"/>
      <circle cx="117.27050983124842" cy="436.5316954888546" r="5"/>
      <circle cx="98.72949016875158" cy="436.5316954888546" r="5"/>
      <circle cx="83.72949016875158" cy="425.6335575687742" r="5"/>
      <circle cx="78.0" cy="408.0" r="5"/>
      <circle cx="83.72949016875157" cy="390.36644243122583" r="5"/>
      <circle cx="98.72949016875157" cy="379.4683045111454" r="5"/>
      <circle cx="117.27050983124842" cy="379.4683045111454" r="5"/>
      <circle cx="132.27050983124843" cy="390.3664424312258" r="5"/>
      <path d="M 1011.0 475.0 L1011.0 485.0"/>
      <path d="M 1028.6335575687742 469.27050983124843 L1034.511410091699 477.3606797749979"/>
      <path d="M 1039.5316954888547 454.27050983124843 L1049.0422606518061 457.3606797749979"/>
      <path d="M 1039.5316954888547 435.72949016875157 L1049.0422606518061 432.6393202250021"/>
      <path d="M 1028.6335575687742 420.72949016875157 L1034.511410091699 412.6393202250021"/>
      <path d="M 1011.0 415.0 L1011.0 405.0"/>
      <path d="M 993.3664424312258 420.72949016875157 L987.488589908301 412.6393202250021"/>
      <path d="M 982.4683045111454 435.72949016875157 L972.957739348194 432.6393202250021"/>
      <path d="M 982.4683045111453 454.27050983124843 L972.9577393481939 457.3606797749979"/>
      <path d="M 993.3664424312258 469.27050983124843 L987.488589908301 477.3606797749979"/>
      <circle cx="634.0" cy="222.0" r="49.22"/>
      <circle cx="455.0" cy="353.0" r="57.82"/>
      <circle cx="455.0" cy="353.0" r="67.82"/>
      <circle cx="725.0" cy="388.0" r="52.75"/>
      <circle cx="725.0" cy="388.0" r="62.75"/>
      <g transform="translate(707.83,222.0) scale(0.5,0.5)">
        <path d="M0 0h12.5q12.5 0 12.5 -12.5q0 -12.5 -12.5 -12.5h-6.25m6.25 0q12.5 0 12.5 -12.5q0 -12.5 -12.5 -12.5h-12.5"/>
        <path d="M35.0 0h12.5q12.5 0 12.5 -12.5q0 -12.5 -12.5 -12.5h-6.25m6.25 0q12.5 0 12.5 -12.5q0 -12.5 -12.5 -12.5h-12.5"/>
        <path d="M95.0 -50h-12.5q-12.5 0 -12.5 12.5v25.0q0 12.5 12.5 12.5q12.5 0 12.5 -12.5q0 -12.5 -12.5 -12.5h-12.5"/>
        <path d="M105.0 0h12.5q12.5 0 12.5 -12.5q0 -12.5 -12.5 -12.5h-6.25m6.25 0q12.5 0 12.5 -12.5q0 -12.5 -12.5 -12.5h-12.5"/>
        <path d="M140.0 0h25.0m-12.5 0v-50l-12.5 12.5"/>
      </g>
      <g transform="translate(541.73,353.0) scale(0.5,0.5)">
        <path d="M0 0h12.5q12.5 0 12.5 -12.5q0 -12.5 -12.5 -12.5h-6.25m6.25 0q12.5 0 12.5 -12.5q0 -12.5 -12.5 -12.5h-12.5"/>
        <path d="M60.0 0h-25.0v-12.5q0 -12.5 12.5 -12.5q12.5 0 12.5 -12.5q0 -12.5 -12.5 -12.5q-12.5 0 -12.5 12.5"/>
        <path d="M70.0 -50h25.0l-25.0 50"/>
        <path d="M105.0 -50v25.0h25.0m0 25.0v-50"/>
        <path d="M165.0 -50h-12.5q-12.5 0 -12.5 12.5v25.0q0 12.5 12.5 12.5q12.5 0 12.5 -12.5q0 -12.5 -12.5 -12.5h-12.5"/>
      </g>
    </g>
  </g>
</svg>
