<svg version="1.1" width="1150" height="870" xmlns="http://www.w3.org/2000/svg">
  <!-- Seed: 8681189903756516533 -->
  <g stroke="black" fill="none">
    <circle cx="160" cy="425.0" r="1"/>
    <circle cx="162.0" cy="429.0" r="1.06"/>
    <circle cx="165.0" cy="434.0" r="1.25"/>
    <circle cx="167.0" cy="438.0" r="1.56"/>
    <circle cx="170.0" cy="442.0" r="2.0"/>
    <circle cx="172.0" cy="447.0" r="2.55"/>
    <circle cx="175.0" cy="451.0" r="3.22"/>
    <circle cx="177.0" cy="455.0" r="3.99"/>
    <circle cx="180.0" cy="460.0" r="4.87"/>
    <circle cx="182.0" cy="464.0" r="5.85"/>
    <circle cx="185.0" cy="468.0" r="6.92"/>
    <circle cx="187.0" cy="473.0" r="8.08"/>
    <circle cx="190.0" cy="477.0" r="9.3"/>
    <circle cx="192.0" cy="481.0" r="10.6"/>
    <circle cx="195.0" cy="486.0" r="11.95"/>
    <circle cx="197.0" cy="490.0" r="13.35"/>
    <circle cx="200.0" cy="494.0" r="14.78"/>
    <circle cx="202.0" cy="499.0" r="16.24"/>
    <circle cx="205.0" cy="503.0" r="17.72"/>
    <circle cx="207.0" cy="507.0" r="19.21"/>
    <circle cx="210.0" cy="512.0" r="20.68"/>
    <circle cx="212.0" cy="516.0" r="22.15"/>
    <circle cx="215.0" cy="520.0" r="23.58"/>
    <circle cx="217.0" cy="525.0" r="24.98"/>
    <circle cx="220.0" cy="529.0" r="26.34"/>
    <circle cx="222.0" cy="533.0" r="27.63"/>
    <circle cx="225.0" cy="538.0" r="28.86"/>
    <circle cx="227.0" cy="542.0" r="30.02"/>
    <circle cx="230.0" cy="546.0" r="31.1"/>
    <circle cx="232.0" cy="551.0" r="32.08"/>
    <circle cx="235.0" cy="555.0" r="32.97"/>
    <circle cx="237.0" cy="559.0" r="33.75"/>
    <circle cx="240.0" cy="564.0" r="34.42"/>
    <circle cx="242.0" cy="568.0" r="34.98"/>
    <circle cx="245.0" cy="572.0" r="35.42"/>
    <circle cx="247.0" cy="577.0" r="35.74"/>
    <circle cx="250.0" cy="581.0" r="35.93"/>
    <circle cx="252.0" cy="585.0" r="36.0"/>
    <circle cx="252.0" cy="586.0" r="36"/>
    <circle cx="260.0" cy="598.0" r="35.9"/>
    <circle cx="267.0" cy="610.0" r="35.59"/>
    <circle cx="273.0" cy="621.0" r="35.09"/>
    <circle cx="279.0" cy="631.0" r="34.39"/>
    <circle cx="285.0" cy="641.0" r="33.52"/>
    <circle cx="290.0" cy="649.0" r="32.48"/>
    <circle cx="295.0" cy="657.0" r="31.29"/>
    <circle cx="300.0" cy="665.0" r="29.97"/>
    <circle cx="304.0" cy="671.0" r="28.54"/>
    <circle cx="308.0" cy="677.0" r="27.02"/>
    <circle cx="312.0" cy="682.0" r="25.44"/>
    <circle cx="315.0" cy="687.0" r="23.82"/>
    <circle cx="318.0" cy="690.0" r="22.18"/>
    <circle cx="321.0" cy="693.0" r="20.56"/>
    <circle cx="323.0" cy="696.0" r="18.98"/>
    <circle cx="325.0" cy="697.0" r="17.46"/>
    <circle cx="326.0" cy="698.0" r="16.03"/>
    <circle cx="327.0" cy="698.0" r="14.71"/>
    <circle cx="328.0" cy="697.0" r="13.52"/>
    <circle cx="328.0" cy="696.0" r="12.48"/>
    <circle cx="328.0" cy="694.0" r="11.61"/>
    <circle cx="328.0" cy="691.0" r="10.91"/>
    <circle cx="327.0" cy="687.0" r="10.41"/>
    <circle cx="326.0" cy="683.0" r="10.1"/>
    <circle cx="324.0" cy="678.0" r="10"/>
    <circle cx="323.0" cy="672.0" r="10.08"/>
    <circle cx="322.0" cy="667.0" r="10.32"/>
    <circle cx="320.0" cy="662.0" r="10.72"/>
    <circle cx="319.0" cy="657.0" r="11.28"/>
    <circle cx="318.0" cy="653.0" r="11.97"/>
    <circle cx="317.0" cy="648.0" r="12.81"/>
    <circle cx="317.0" cy="643.0" r="13.77"/>
    <circle cx="316.0" cy="638.0" r="14.83"/>
    <circle cx="315.0" cy="633.0" r="16.0"/>
    <circle cx="315.0" cy="629.0" r="17.25"/>
    <circle cx="314.0" cy="624.0" r="18.56"/>
    <circle cx="314.0" cy="619.0" r="19.92"/>
    <circle cx="314.0" cy="615.0" r="21.3"/>
    <circle cx="314.0" cy="610.0" r="22.7"/>
    <circle cx="314.0" cy="605.0" r="24.08"/>
    <circle cx="314.0" cy="601.0" r="25.44"/>
    <circle cx="314.0" cy="596.0" r="26.75"/>
    <circle cx="315.0" cy="592.0" r="28.0"/>
    <circle cx="315.0" cy="588.0" r="29.17"/>
    <circle cx="316.0" cy="583.0" r="30.23"/>
    <circle cx="317.0" cy="579.0" r="31.19"/>
    <circle cx="317.0" cy="575.0" r="32.03"/>
    <circle cx="318.0" cy="570.0" r="32.72"/>
    <circle cx="319.0" cy="566.0" r="33.28"/>
    <circle cx="320.0" cy="562.0" r="33.68"/>
    <circle cx="322.0" cy="558.0" r="33.92"/>
    <circle cx="323.0" cy="554.0" r="34"/>
    <circle cx="325.0" cy="549.0" r="34.0"/>
    <circle cx="326.0" cy="544.0" r="34.0"/>
    <circle cx="327.0" cy="540.0" r="34.0"/>
    <circle cx="329.0" cy="535.0" r="34.0"/>
    <circle cx="330.0" cy="530.0" r="34.0"/>
    <circle cx="331.0" cy="526.0" r="34.0"/>
    <circle cx="333.0" cy="521.0" r="34.0"/>
    <circle cx="334.0" cy="517.0" r="34.0"/>
    <circle cx="335.0" cy="512.0" r="34.0"/>
    <circle cx="336.0" cy="508.0" r="34.0"/>
    <circle cx="337.0" cy="503.0" r="34.0"/>
    <circle cx="337.0" cy="498.0" r="34.0"/>
    <circle cx="338.0" cy="494.0" r="34.0"/>
    <circle cx="339.0" cy="489.0" r="34.0"/>
    <circle cx="340.0" cy="485.0" r="34.0"/>
    <circle cx="340.0" cy="480.0" r="34.0"/>
    <circle cx="341.0" cy="476.0" r="34.0"/>
    <circle cx="341.0" cy="471.0" r="34.0"/>
    <circle cx="341.0" cy="467.0" r="34.0"/>
    <circle cx="342.0" cy="462.0" r="34.0"/>
    <circle cx="342.0" cy="458.0" r="34.0"/>
    <circle cx="342.0" cy="453.0" r="34.0"/>
    <circle cx="342.0" cy="449.0" r="34.0"/>
    <circle cx="342.0" cy="444.0" r="34"/>
    <circle cx="343.0" cy="439.0" r="33.88"/>
    <circle cx="342.0" cy="433.0" r="33.52"/>
    <circle cx="342.0" cy="427.0" r="32.93"/>
    <circle cx="342.0" cy="422.0" r="32.13"/>
    <circle cx="342.0" cy="417.0" r="31.14"/>
    <circle cx="342.0" cy="412.0" r="30.0"/>
    <circle cx="341.0" cy="407.0" r="28.74"/>
    <circle cx="341.0" cy="402.0" r="27.39"/>
    <circle cx="340.0" cy="397.0" r="26.0"/>
    <circle cx="339.0" cy="393.0" r="24.61"/>
    <circle cx="339.0" cy="388.0" r="23.26"/>
    <circle cx="338.0" cy="384.0" r="22.0"/>
    <circle cx="337.0" cy="380.0" r="20.86"/>
    <circle cx="336.0" cy="376.0" r="19.87"/>
    <circle cx="335.0" cy="372.0" r="19.07"/>
    <circle cx="334.0" cy="369.0" r="18.48"/>
    <circle cx="333.0" cy="365.0" r="18.12"/>
    <circle cx="332.0" cy="362.0" r="18"/>
    <circle cx="330.0" cy="359.0" r="18.01"/>
    <circle cx="329.0" cy="356.0" r="18.04"/>
    <circle cx="328.0" cy="353.0" r="18.1"/>
    <circle cx="327.0" cy="350.0" r="18.17"/>
    <circle cx="326.0" cy="346.0" r="18.27"/>
    <circle cx="325.0" cy="342.0" r="18.38"/>
    <circle cx="325.0" cy="339.0" r="18.5"/>
    <circle cx="324.0" cy="335.0" r="18.63"/>
    <circle cx="323.0" cy="331.0" r="18.78"/>
    <circle cx="322.0" cy="326.0" r="18.93"/>
    <circle cx="321.0" cy="322.0" r="19.07"/>
    <circle cx="320.0" cy="317.0" r="19.22"/>
    <circle cx="320.0" cy="312.0" r="19.37"/>
    <circle cx="319.0" cy="307.0" r="19.5"/>
    <circle cx="318.0" cy="302.0" r="19.62"/>
    <circle cx="317.0" cy="297.0" r="19.73"/>
    <circle cx="317.0" cy="291.0" r="19.83"/>
    <circle cx="316.0" cy="286.0" r="19.9"/>
    <circle cx="316.0" cy="280.0" r="19.96"/>
    <circle cx="315.0" cy="274.0" r="19.99"/>
    <circle cx="314.0" cy="268.0" r="20"/>
    <circle cx="314.0" cy="257.0" r="20.24"/>
    <circle cx="313.0" cy="247.0" r="20.95"/>
    <circle cx="313.0" cy="238.0" r="22.07"/>
    <circle cx="314.0" cy="231.0" r="23.51"/>
    <circle cx="315.0" cy="225.0" r="25.15"/>
    <circle cx="316.0" cy="220.0" r="26.85"/>
    <circle cx="318.0" cy="217.0" r="28.49"/>
    <circle cx="320.0" cy="215.0" r="29.93"/>
    <circle cx="323.0" cy="214.0" r="31.05"/>
    <circle cx="326.0" cy="215.0" r="31.76"/>
    <circle cx="329.0" cy="216.0" r="32"/>
    <circle cx="334.0" cy="220.0" r="33.03"/>
    <circle cx="337.0" cy="224.0" r="35.95"/>
    <circle cx="340.0" cy="228.0" r="40.33"/>
    <circle cx="341.0" cy="233.0" r="45.5"/>
    <circle cx="342.0" cy="238.0" r="50.67"/>
    <circle cx="341.0" cy="243.0" r="55.05"/>
    <circle cx="340.0" cy="249.0" r="57.97"/>
    <circle cx="337.0" cy="254.0" r="59"/>
    <circle cx="335.0" cy="258.0" r="58.59"/>
    <circle cx="334.0" cy="262.0" r="57.4"/>
    <circle cx="333.0" cy="266.0" r="55.48"/>
    <circle cx="332.0" cy="271.0" r="52.95"/>
    <circle cx="332.0" cy="275.0" r="49.96"/>
    <circle cx="332.0" cy="280.0" r="46.69"/>
    <circle cx="332.0" cy="284.0" r="43.31"/>
    <circle cx="332.0" cy="289.0" r="40.04"/>
    <circle cx="333.0" cy="294.0" r="37.05"/>
    <circle cx="335.0" cy="299.0" r="34.52"/>
    <circle cx="336.0" cy="305.0" r="32.6"/>
    <circle cx="338.0" cy="310.0" r="31.41"/>
    <circle cx="340.0" cy="316.0" r="31"/>
    <circle cx="343.0" cy="321.0" r="31.12"/>
    <circle cx="345.0" cy="327.0" r="31.47"/>
    <circle cx="348.0" cy="332.0" r="32.03"/>
    <circle cx="351.0" cy="337.0" r="32.75"/>
    <circle cx="354.0" cy="341.0" r="33.59"/>
    <circle cx="358.0" cy="344.0" r="34.5"/>
    <circle cx="361.0" cy="348.0" r="35.41"/>
    <circle cx="365.0" cy="351.0" r="36.25"/>
    <circle cx="368.0" cy="353.0" r="36.97"/>
    <circle cx="372.0" cy="356.0" r="37.53"/>
    <circle cx="376.0" cy="357.0" r="37.88"/>
    <circle cx="380.0" cy="358.0" r="38"/>
    <circle cx="385.0" cy="360.0" r="37.88"/>
    <circle cx="389.0" cy="362.0" r="37.52"/>
    <circle cx="394.0" cy="364.0" r="36.96"/>
    <circle cx="398.0" cy="366.0" r="36.25"/>
    <circle cx="401.0" cy="369.0" r="35.43"/>
    <circle cx="405.0" cy="372.0" r="34.57"/>
    <circle cx="408.0" cy="375.0" r="33.75"/>
    <circle cx="412.0" cy="379.0" r="33.04"/>
    <circle cx="415.0" cy="383.0" r="32.48"/>
    <circle cx="418.0" cy="387.0" r="32.12"/>
    <circle cx="420.0" cy="392.0" r="32"/>
    <circle cx="423.0" cy="396.0" r="32.09"/>
    <circle cx="425.0" cy="400.0" r="32.35"/>
    <circle cx="427.0" cy="404.0" r="32.76"/>
    <circle cx="428.0" cy="408.0" r="33.32"/>
    <circle cx="430.0" cy="412.0" r="33.98"/>
    <circle cx="432.0" cy="416.0" r="34.72"/>
    <circle cx="434.0" cy="420.0" r="35.5"/>
    <circle cx="436.0" cy="425.0" r="36.28"/>
    <circle cx="437.0" cy="429.0" r="37.02"/>
    <circle cx="439.0" cy="434.0" r="37.68"/>
    <circle cx="441.0" cy="438.0" r="38.24"/>
    <circle cx="442.0" cy="443.0" r="38.65"/>
    <circle cx="444.0" cy="447.0" r="38.91"/>
    <circle cx="446.0" cy="452.0" r="39"/>
    <circle cx="447.0" cy="458.0" r="38.88"/>
    <circle cx="449.0" cy="463.0" r="38.52"/>
    <circle cx="452.0" cy="468.0" r="37.96"/>
    <circle cx="454.0" cy="473.0" r="37.25"/>
    <circle cx="456.0" cy="478.0" r="36.43"/>
    <circle cx="458.0" cy="482.0" r="35.57"/>
    <circle cx="461.0" cy="485.0" r="34.75"/>
    <circle cx="463.0" cy="489.0" r="34.04"/>
    <circle cx="466.0" cy="492.0" r="33.48"/>
    <circle cx="469.0" cy="494.0" r="33.12"/>
    <circle cx="472.0" cy="496.0" r="33"/>
    <circle cx="474.0" cy="498.0" r="33.06"/>
    <circle cx="476.0" cy="501.0" r="33.23"/>
    <circle cx="479.0" cy="503.0" r="33.5"/>
    <circle cx="481.0" cy="506.0" r="33.86"/>
    <circle cx="484.0" cy="510.0" r="34.29"/>
    <circle cx="486.0" cy="513.0" r="34.76"/>
    <circle cx="489.0" cy="517.0" r="35.24"/>
    <circle cx="492.0" cy="522.0" r="35.71"/>
    <circle cx="494.0" cy="527.0" r="36.14"/>
    <circle cx="497.0" cy="532.0" r="36.5"/>
    <circle cx="500.0" cy="537.0" r="36.77"/>
    <circle cx="502.0" cy="543.0" r="36.94"/>
    <circle cx="505.0" cy="549.0" r="37"/>
    <circle cx="508.0" cy="555.0" r="36.89"/>
    <circle cx="510.0" cy="560.0" r="36.55"/>
    <circle cx="512.0" cy="565.0" r="36.02"/>
    <circle cx="515.0" cy="570.0" r="35.31"/>
    <circle cx="517.0" cy="575.0" r="34.45"/>
    <circle cx="519.0" cy="580.0" r="33.5"/>
    <circle cx="521.0" cy="584.0" r="32.5"/>
    <circle cx="523.0" cy="588.0" r="31.5"/>
    <circle cx="525.0" cy="592.0" r="30.55"/>
    <circle cx="527.0" cy="595.0" r="29.69"/>
    <circle cx="529.0" cy="599.0" r="28.98"/>
    <circle cx="531.0" cy="602.0" r="28.45"/>
    <circle cx="532.0" cy="604.0" r="28.11"/>
    <circle cx="534.0" cy="607.0" r="28"/>
    <circle cx="537.0" cy="611.0" r="29.03"/>
    <circle cx="540.0" cy="615.0" r="31.95"/>
    <circle cx="543.0" cy="619.0" r="36.33"/>
    <circle cx="546.0" cy="622.0" r="41.5"/>
    <circle cx="550.0" cy="625.0" r="46.67"/>
    <circle cx="554.0" cy="628.0" r="51.05"/>
    <circle cx="557.0" cy="631.0" r="53.97"/>
    <circle cx="562.0" cy="633.0" r="55"/>
    <circle cx="568.0" cy="634.0" r="59"/>
    <circle cx="566.0" cy="631.0" r="56.52"/>
    <circle cx="564.0" cy="628.0" r="49.59"/>
    <circle cx="564.0" cy="624.0" r="39.56"/>
    <circle cx="565.0" cy="618.0" r="28.44"/>
    <circle cx="566.0" cy="613.0" r="18.41"/>
    <circle cx="569.0" cy="606.0" r="11.48"/>
    <circle cx="573.0" cy="598.0" r="9"/>
    <circle cx="575.0" cy="594.0" r="9.2"/>
    <circle cx="577.0" cy="589.0" r="9.79"/>
    <circle cx="579.0" cy="584.0" r="10.73"/>
    <circle cx="579.0" cy="579.0" r="11.92"/>
    <circle cx="580.0" cy="574.0" r="13.29"/>
    <circle cx="579.0" cy="570.0" r="14.71"/>
    <circle cx="579.0" cy="565.0" r="16.08"/>
    <circle cx="577.0" cy="561.0" r="17.27"/>
    <circle cx="575.0" cy="556.0" r="18.21"/>
    <circle cx="573.0" cy="552.0" r="18.8"/>
    <circle cx="570.0" cy="548.0" r="19"/>
    <circle cx="566.0" cy="543.0" r="19.69"/>
    <circle cx="564.0" cy="538.0" r="21.67"/>
    <circle cx="562.0" cy="533.0" r="24.77"/>
    <circle cx="562.0" cy="528.0" r="28.67"/>
    <circle cx="562.0" cy="523.0" r="33.0"/>
    <circle cx="563.0" cy="518.0" r="37.33"/>
    <circle cx="565.0" cy="513.0" r="41.23"/>
    <circle cx="568.0" cy="508.0" r="44.33"/>
    <circle cx="572.0" cy="503.0" r="46.31"/>
    <circle cx="576.0" cy="498.0" r="47"/>
    <circle cx="581.0" cy="493.0" r="46.24"/>
    <circle cx="586.0" cy="488.0" r="44.04"/>
    <circle cx="589.0" cy="483.0" r="40.61"/>
    <circle cx="592.0" cy="478.0" r="36.29"/>
    <circle cx="595.0" cy="474.0" r="31.5"/>
    <circle cx="597.0" cy="470.0" r="26.71"/>
    <circle cx="598.0" cy="466.0" r="22.39"/>
    <circle cx="599.0" cy="462.0" r="18.96"/>
    <circle cx="599.0" cy="458.0" r="16.76"/>
    <circle cx="599.0" cy="454.0" r="16"/>
    <circle cx="599.0" cy="451.0" r="16.46"/>
    <circle cx="598.0" cy="448.0" r="17.83"/>
    <circle cx="598.0" cy="444.0" r="20.02"/>
    <circle cx="599.0" cy="440.0" r="22.91"/>
    <circle cx="599.0" cy="436.0" r="26.33"/>
    <circle cx="600.0" cy="432.0" r="30.07"/>
    <circle cx="601.0" cy="427.0" r="33.93"/>
    <circle cx="602.0" cy="422.0" r="37.67"/>
    <circle cx="603.0" cy="417.0" r="41.09"/>
    <circle cx="604.0" cy="411.0" r="43.98"/>
    <circle cx="606.0" cy="405.0" r="46.17"/>
    <circle cx="608.0" cy="399.0" r="47.54"/>
    <circle cx="610.0" cy="392.0" r="48"/>
    <circle cx="612.0" cy="384.0" r="47.23"/>
    <circle cx="614.0" cy="377.0" r="44.98"/>
    <circle cx="616.0" cy="371.0" r="41.44"/>
    <circle cx="618.0" cy="365.0" r="36.89"/>
    <circle cx="620.0" cy="360.0" r="31.7"/>
    <circle cx="621.0" cy="356.0" r="26.3"/>
    <circle cx="623.0" cy="352.0" r="21.11"/>
    <circle cx="624.0" cy="349.0" r="16.56"/>
    <circle cx="625.0" cy="346.0" r="13.02"/>
    <circle cx="626.0" cy="345.0" r="10.77"/>
    <circle cx="626.0" cy="344.0" r="10"/>
    <circle cx="627.0" cy="342.0" r="10.3"/>
    <circle cx="628.0" cy="339.0" r="11.13"/>
    <circle cx="628.0" cy="335.0" r="12.33"/>
    <circle cx="627.0" cy="330.0" r="13.67"/>
    <circle cx="626.0" cy="324.0" r="14.87"/>
    <circle cx="625.0" cy="317.0" r="15.7"/>
    <circle cx="624.0" cy="308.0" r="16"/>
    <circle cx="623.0" cy="304.0" r="16.32"/>
    <circle cx="622.0" cy="299.0" r="17.26"/>
    <circle cx="622.0" cy="294.0" r="18.77"/>
    <circle cx="622.0" cy="290.0" r="20.75"/>
    <circle cx="622.0" cy="285.0" r="23.1"/>
    <circle cx="623.0" cy="280.0" r="25.67"/>
    <circle cx="624.0" cy="275.0" r="28.33"/>
    <circle cx="625.0" cy="271.0" r="30.9"/>
    <circle cx="627.0" cy="266.0" r="33.25"/>
    <circle cx="629.0" cy="261.0" r="35.23"/>
    <circle cx="631.0" cy="256.0" r="36.74"/>
    <circle cx="634.0" cy="251.0" r="37.68"/>
    <circle cx="636.0" cy="246.0" r="38"/>
    <circle cx="643.0" cy="238.0" r="36.12"/>
    <circle cx="648.0" cy="234.0" r="31.0"/>
    <circle cx="652.0" cy="235.0" r="24.0"/>
    <circle cx="656.0" cy="240.0" r="17.0"/>
    <circle cx="658.0" cy="249.0" r="11.88"/>
    <circle cx="660.0" cy="262.0" r="10"/>
    <circle cx="660.0" cy="267.0" r="9.98"/>
    <circle cx="661.0" cy="272.0" r="9.9"/>
    <circle cx="661.0" cy="277.0" r="9.78"/>
    <circle cx="662.0" cy="281.0" r="9.62"/>
    <circle cx="662.0" cy="286.0" r="9.41"/>
    <circle cx="663.0" cy="291.0" r="9.18"/>
    <circle cx="663.0" cy="295.0" r="8.91"/>
    <circle cx="664.0" cy="300.0" r="8.62"/>
    <circle cx="665.0" cy="305.0" r="8.31"/>
    <circle cx="665.0" cy="309.0" r="8.0"/>
    <circle cx="666.0" cy="314.0" r="7.69"/>
    <circle cx="667.0" cy="318.0" r="7.38"/>
    <circle cx="667.0" cy="323.0" r="7.09"/>
    <circle cx="668.0" cy="327.0" r="6.82"/>
    <circle cx="669.0" cy="332.0" r="6.59"/>
    <circle cx="670.0" cy="336.0" r="6.38"/>
    <circle cx="670.0" cy="341.0" r="6.22"/>
    <circle cx="671.0" cy="345.0" r="6.1"/>
    <circle cx="672.0" cy="350.0" r="6.02"/>
    <circle cx="673.0" cy="354.0" r="6"/>
    <circle cx="674.0" cy="358.0" r="6.26"/>
    <circle cx="675.0" cy="362.0" r="7.02"/>
    <circle cx="676.0" cy="367.0" r="8.28"/>
    <circle cx="677.0" cy="371.0" r="10.0"/>
    <circle cx="678.0" cy="375.0" r="12.14"/>
    <circle cx="679.0" cy="380.0" r="14.66"/>
    <circle cx="680.0" cy="384.0" r="17.5"/>
    <circle cx="681.0" cy="389.0" r="20.6"/>
    <circle cx="682.0" cy="393.0" r="23.88"/>
    <circle cx="683.0" cy="398.0" r="27.28"/>
    <circle cx="684.0" cy="402.0" r="30.72"/>
    <circle cx="686.0" cy="407.0" r="34.12"/>
    <circle cx="687.0" cy="411.0" r="37.4"/>
    <circle cx="688.0" cy="416.0" r="40.5"/>
    <circle cx="689.0" cy="421.0" r="43.34"/>
    <circle cx="691.0" cy="425.0" r="45.86"/>
    <circle cx="692.0" cy="430.0" r="48.0"/>
    <circle cx="694.0" cy="435.0" r="49.72"/>
    <circle cx="695.0" cy="440.0" r="50.98"/>
    <circle cx="696.0" cy="445.0" r="51.74"/>
    <circle cx="698.0" cy="450.0" r="52"/>
    <circle cx="700.0" cy="457.0" r="51.67"/>
    <circle cx="702.0" cy="463.0" r="50.71"/>
    <circle cx="704.0" cy="470.0" r="49.16"/>
    <circle cx="705.0" cy="476.0" r="47.11"/>
    <circle cx="706.0" cy="481.0" r="44.64"/>
    <circle cx="707.0" cy="486.0" r="41.89"/>
    <circle cx="707.0" cy="491.0" r="39.0"/>
    <circle cx="707.0" cy="496.0" r="36.11"/>
    <circle cx="707.0" cy="500.0" r="33.36"/>
    <circle cx="707.0" cy="503.0" r="30.89"/>
    <circle cx="706.0" cy="506.0" r="28.84"/>
    <circle cx="706.0" cy="509.0" r="27.29"/>
    <circle cx="704.0" cy="512.0" r="26.33"/>
    <circle cx="703.0" cy="514.0" r="26"/>
    <circle cx="702.0" cy="515.0" r="25.97"/>
    <circle cx="701.0" cy="517.0" r="25.88"/>
    <circle cx="700.0" cy="519.0" r="25.73"/>
    <circle cx="699.0" cy="522.0" r="25.53"/>
    <circle cx="698.0" cy="525.0" r="25.29"/>
    <circle cx="697.0" cy="528.0" r="25.0"/>
    <circle cx="697.0" cy="532.0" r="24.68"/>
    <circle cx="696.0" cy="536.0" r="24.35"/>
    <circle cx="696.0" cy="540.0" r="24.0"/>
    <circle cx="695.0" cy="545.0" r="23.65"/>
    <circle cx="695.0" cy="550.0" r="23.32"/>
    <circle cx="695.0" cy="556.0" r="23.0"/>
    <circle cx="694.0" cy="561.0" r="22.71"/>
    <circle cx="694.0" cy="567.0" r="22.47"/>
    <circle cx="694.0" cy="574.0" r="22.27"/>
    <circle cx="695.0" cy="581.0" r="22.12"/>
    <circle cx="695.0" cy="588.0" r="22.03"/>
    <circle cx="695.0" cy="596.0" r="22"/>
    <circle cx="695.0" cy="603.0" r="22.24"/>
    <circle cx="696.0" cy="610.0" r="22.95"/>
    <circle cx="696.0" cy="616.0" r="24.11"/>
    <circle cx="697.0" cy="622.0" r="25.69"/>
    <circle cx="698.0" cy="628.0" r="27.65"/>
    <circle cx="699.0" cy="634.0" r="29.93"/>
    <circle cx="700.0" cy="639.0" r="32.47"/>
    <circle cx="701.0" cy="645.0" r="35.2"/>
    <circle cx="702.0" cy="649.0" r="38.05"/>
    <circle cx="703.0" cy="654.0" r="40.95"/>
    <circle cx="704.0" cy="658.0" r="43.8"/>
    <circle cx="706.0" cy="662.0" r="46.53"/>
    <circle cx="707.0" cy="666.0" r="49.07"/>
    <circle cx="709.0" cy="669.0" r="51.35"/>
    <circle cx="710.0" cy="672.0" r="53.31"/>
    <circle cx="712.0" cy="675.0" r="54.89"/>
    <circle cx="714.0" cy="677.0" r="56.05"/>
    <circle cx="716.0" cy="679.0" r="56.76"/>
    <circle cx="718.0" cy="681.0" r="57"/>
    <circle cx="722.0" cy="685.0" r="55.61"/>
    <circle cx="726.0" cy="688.0" r="51.62"/>
    <circle cx="729.0" cy="692.0" r="45.5"/>
    <circle cx="732.0" cy="696.0" r="37.99"/>
    <circle cx="735.0" cy="700.0" r="30.01"/>
    <circle cx="737.0" cy="704.0" r="22.5"/>
    <circle cx="738.0" cy="709.0" r="16.38"/>
    <circle cx="739.0" cy="713.0" r="12.39"/>
    <circle cx="740.0" cy="718.0" r="11"/>
    <circle cx="741.0" cy="724.0" r="11.15"/>
    <circle cx="742.0" cy="723.0" r="11.5"/>
    <circle cx="742.0" cy="714.0" r="11.85"/>
    <circle cx="743.0" cy="697.0" r="12"/>
    <circle cx="743.0" cy="692.0" r="12.11"/>
    <circle cx="744.0" cy="686.0" r="12.43"/>
    <circle cx="744.0" cy="681.0" r="12.95"/>
    <circle cx="744.0" cy="676.0" r="13.65"/>
    <circle cx="745.0" cy="671.0" r="14.5"/>
    <circle cx="746.0" cy="666.0" r="15.45"/>
    <circle cx="747.0" cy="662.0" r="16.48"/>
    <circle cx="748.0" cy="657.0" r="17.52"/>
    <circle cx="749.0" cy="653.0" r="18.55"/>
    <circle cx="750.0" cy="649.0" r="19.5"/>
    <circle cx="752.0" cy="644.0" r="20.35"/>
    <circle cx="753.0" cy="640.0" r="21.05"/>
    <circle cx="755.0" cy="636.0" r="21.57"/>
    <circle cx="757.0" cy="633.0" r="21.89"/>
    <circle cx="758.0" cy="629.0" r="22"/>
    <circle cx="760.0" cy="626.0" r="22.05"/>
    <circle cx="762.0" cy="622.0" r="22.19"/>
    <circle cx="763.0" cy="618.0" r="22.42"/>
    <circle cx="765.0" cy="614.0" r="22.73"/>
    <circle cx="766.0" cy="610.0" r="23.11"/>
    <circle cx="767.0" cy="606.0" r="23.54"/>
    <circle cx="767.0" cy="601.0" r="24.01"/>
    <circle cx="768.0" cy="596.0" r="24.5"/>
    <circle cx="769.0" cy="592.0" r="24.99"/>
    <circle cx="769.0" cy="586.0" r="25.46"/>
    <circle cx="769.0" cy="581.0" r="25.89"/>
    <circle cx="769.0" cy="576.0" r="26.27"/>
    <circle cx="769.0" cy="570.0" r="26.58"/>
    <circle cx="769.0" cy="565.0" r="26.81"/>
    <circle cx="769.0" cy="559.0" r="26.95"/>
    <circle cx="768.0" cy="552.0" r="27"/>
    <circle cx="768.0" cy="548.0" r="27.16"/>
    <circle cx="767.0" cy="543.0" r="27.64"/>
    <circle cx="767.0" cy="538.0" r="28.42"/>
    <circle cx="766.0" cy="533.0" r="29.48"/>
    <circle cx="766.0" cy="528.0" r="30.81"/>
    <circle cx="766.0" cy="523.0" r="32.36"/>
    <circle cx="765.0" cy="519.0" r="34.1"/>
    <circle cx="765.0" cy="514.0" r="35.98"/>
    <circle cx="765.0" cy="509.0" r="37.97"/>
    <circle cx="765.0" cy="505.0" r="40.0"/>
    <circle cx="765.0" cy="500.0" r="42.03"/>
    <circle cx="765.0" cy="496.0" r="44.02"/>
    <circle cx="764.0" cy="491.0" r="45.9"/>
    <circle cx="764.0" cy="487.0" r="47.64"/>
    <circle cx="764.0" cy="482.0" r="49.19"/>
    <circle cx="764.0" cy="478.0" r="50.52"/>
    <circle cx="765.0" cy="474.0" r="51.58"/>
    <circle cx="765.0" cy="469.0" r="52.36"/>
    <circle cx="765.0" cy="465.0" r="52.84"/>
    <circle cx="765.0" cy="461.0" r="53"/>
    <circle cx="765.0" cy="455.0" r="52.59"/>
    <circle cx="765.0" cy="449.0" r="51.4"/>
    <circle cx="765.0" cy="443.0" r="49.48"/>
    <circle cx="765.0" cy="437.0" r="46.95"/>
    <circle cx="765.0" cy="432.0" r="43.96"/>
    <circle cx="765.0" cy="427.0" r="40.69"/>
    <circle cx="764.0" cy="423.0" r="37.31"/>
    <circle cx="763.0" cy="418.0" r="34.04"/>
    <circle cx="763.0" cy="414.0" r="31.05"/>
    <circle cx="762.0" cy="410.0" r="28.52"/>
    <circle cx="761.0" cy="407.0" r="26.6"/>
    <circle cx="760.0" cy="403.0" r="25.41"/>
    <circle cx="758.0" cy="400.0" r="25"/>
    <circle cx="757.0" cy="398.0" r="25.19"/>
    <circle cx="756.0" cy="395.0" r="25.74"/>
    <circle cx="756.0" cy="391.0" r="26.64"/>
    <circle cx="755.0" cy="387.0" r="27.82"/>
    <circle cx="755.0" cy="383.0" r="29.25"/>
    <circle cx="754.0" cy="379.0" r="30.83"/>
    <circle cx="754.0" cy="374.0" r="32.5"/>
    <circle cx="754.0" cy="369.0" r="34.17"/>
    <circle cx="754.0" cy="364.0" r="35.75"/>
    <circle cx="755.0" cy="359.0" r="37.18"/>
    <circle cx="755.0" cy="353.0" r="38.36"/>
    <circle cx="756.0" cy="346.0" r="39.26"/>
    <circle cx="757.0" cy="340.0" r="39.81"/>
    <circle cx="758.0" cy="333.0" r="40"/>
    <circle cx="759.0" cy="328.0" r="39.98"/>
    <circle cx="760.0" cy="322.0" r="39.91"/>
    <circle cx="760.0" cy="317.0" r="39.8"/>
    <circle cx="761.0" cy="312.0" r="39.65"/>
    <circle cx="761.0" cy="307.0" r="39.46"/>
    <circle cx="762.0" cy="302.0" r="39.25"/>
    <circle cx="762.0" cy="297.0" r="39.01"/>
    <circle cx="762.0" cy="292.0" r="38.76"/>
    <circle cx="762.0" cy="288.0" r="38.5"/>
    <circle cx="763.0" cy="283.0" r="38.24"/>
    <circle cx="763.0" cy="278.0" r="37.99"/>
    <circle cx="762.0" cy="274.0" r="37.75"/>
    <circle cx="762.0" cy="270.0" r="37.54"/>
    <circle cx="762.0" cy="265.0" r="37.35"/>
    <circle cx="762.0" cy="261.0" r="37.2"/>
    <circle cx="761.0" cy="257.0" r="37.09"/>
    <circle cx="761.0" cy="253.0" r="37.02"/>
    <circle cx="760.0" cy="249.0" r="37"/>
    <circle cx="758.0" cy="229.0" r="43.5"/>
    <circle cx="762.0" cy="240.0" r="50"/>
    <circle cx="762.0" cy="241.0" r="49.95"/>
    <circle cx="763.0" cy="243.0" r="49.81"/>
    <circle cx="764.0" cy="245.0" r="49.56"/>
    <circle cx="765.0" cy="246.0" r="49.23"/>
    <circle cx="766.0" cy="248.0" r="48.8"/>
    <circle cx="767.0" cy="250.0" r="48.28"/>
    <circle cx="768.0" cy="252.0" r="47.68"/>
    <circle cx="769.0" cy="254.0" r="46.99"/>
    <circle cx="771.0" cy="257.0" r="46.23"/>
    <circle cx="773.0" cy="259.0" r="45.39"/>
    <circle cx="774.0" cy="262.0" r="44.49"/>
    <circle cx="776.0" cy="264.0" r="43.52"/>
    <circle cx="778.0" cy="267.0" r="42.5"/>
    <circle cx="780.0" cy="270.0" r="41.43"/>
    <circle cx="783.0" cy="273.0" r="40.32"/>
    <circle cx="785.0" cy="276.0" r="39.17"/>
    <circle cx="788.0" cy="279.0" r="38.0"/>
    <circle cx="790.0" cy="282.0" r="36.81"/>
    <circle cx="793.0" cy="286.0" r="35.6"/>
    <circle cx="796.0" cy="289.0" r="34.4"/>
    <circle cx="799.0" cy="293.0" r="33.19"/>
    <circle cx="802.0" cy="297.0" r="32.0"/>
    <circle cx="806.0" cy="301.0" r="30.83"/>
    <circle cx="809.0" cy="305.0" r="29.68"/>
    <circle cx="813.0" cy="309.0" r="28.57"/>
    <circle cx="816.0" cy="313.0" r="27.5"/>
    <circle cx="820.0" cy="317.0" r="26.48"/>
    <circle cx="824.0" cy="322.0" r="25.51"/>
    <circle cx="828.0" cy="326.0" r="24.61"/>
    <circle cx="832.0" cy="331.0" r="23.77"/>
    <circle cx="837.0" cy="336.0" r="23.01"/>
    <circle cx="841.0" cy="341.0" r="22.32"/>
    <circle cx="846.0" cy="346.0" r="21.72"/>
    <circle cx="850.0" cy="351.0" r="21.2"/>
    <circle cx="855.0" cy="356.0" r="20.77"/>
    <circle cx="860.0" cy="361.0" r="20.44"/>
    <circle cx="865.0" cy="367.0" r="20.19"/>
    <circle cx="871.0" cy="372.0" r="20.05"/>
    <circle cx="876.0" cy="378.0" r="20"/>
    <circle cx="879.0" cy="382.0" r="19.95"/>
    <circle cx="883.0" cy="385.0" r="19.8"/>
    <circle cx="886.0" cy="389.0" r="19.56"/>
    <circle cx="890.0" cy="393.0" r="19.22"/>
    <circle cx="893.0" cy="396.0" r="18.79"/>
    <circle cx="897.0" cy="400.0" r="18.28"/>
    <circle cx="900.0" cy="403.0" r="17.69"/>
    <circle cx="903.0" cy="407.0" r="17.02"/>
    <circle cx="907.0" cy="411.0" r="16.28"/>
    <circle cx="910.0" cy="414.0" r="15.48"/>
    <circle cx="914.0" cy="418.0" r="14.63"/>
    <circle cx="917.0" cy="422.0" r="13.74"/>
    <circle cx="921.0" cy="425.0" r="12.82"/>
    <circle cx="924.0" cy="429.0" r="11.87"/>
    <circle cx="928.0" cy="432.0" r="10.91"/>
    <circle cx="931.0" cy="436.0" r="9.94"/>
    <circle cx="934.0" cy="440.0" r="8.98"/>
    <circle cx="938.0" cy="443.0" r="8.03"/>
    <circle cx="941.0" cy="447.0" r="7.11"/>
    <circle cx="945.0" cy="451.0" r="6.23"/>
    <circle cx="948.0" cy="454.0" r="5.39"/>
    <circle cx="952.0" cy="458.0" r="4.6"/>
    <circle cx="955.0" cy="462.0" r="3.87"/>
    <circle cx="958.0" cy="465.0" r="3.22"/>
    <circle cx="962.0" cy="469.0" r="2.63"/>
    <circle cx="965.0" cy="472.0" r="2.13"/>
    <circle cx="969.0" cy="476.0" r="1.72"/>
    <circle cx="972.0" cy="480.0" r="1.4"/>
    <circle cx="976.0" cy="483.0" r="1.17"/>
    <circle cx="979.0" cy="487.0" r="1.03"/>
    <circle cx="982.0" cy="490.0" r="1"/>
    <g stroke="blue">
      <circle cx="190.0" cy="425.0" r="5"/>
      <circle cx="184.27050983124843" cy="442.6335575687742" r="5"/>
      <circle cx="169.27050983124843" cy="453.5316954888546" r="5"/>
      <circle cx="150.72949016875157" cy="453.5316954888546" r="5"/>
      <circle cx="135.72949016875157" cy="442.6335575687742" r="5"/>
      <circle cx="130.0" cy="425.0" r="5"/>
      <circle cx="135.72949016875157" cy="407.36644243122583" r="5"/>
      <circle cx="150.72949016875157" cy="396.4683045111454" r="5"/>
      <circle cx="169.2705098312484" cy="396.4683045111454" r="5"/>
      <circle cx="184.27050983124843" cy="407.3664424312258" r="5"/>
      <path d="M 982.0 520.0 L982.0 530.0"/>
      <path d="M 999.6335575687742 514.2705098312484 L1005.511410091699 522.360679774998"/>
      <path d="M 1010.5316954888546 499.27050983124843 L1020.042260651806 502.3606797749979"/>
      <path d="M 1010.5316954888547 480.72949016875157 L1020.0422606518061 477.6393202250021"/>
      <path d="M 999.6335575687742 465.72949016875157 L1005.511410091699 457.6393202250021"/>
      <path d="M 982.0 460.0 L982.0 450.0"/>
      <path d="M 964.3664424312258 465.72949016875157 L958.488589908301 457.6393202250021"/>
      <path d="M 953.4683045111454 480.72949016875157 L943.957739348194 477.6393202250021"/>
      <path d="M 953.4683045111453 499.27050983124843 L943.9577393481939 502.3606797749979"/>
      <path d="M 964.3664424312258 514.2705098312484 L958.488589908301 522.360679774998"/>
      <circle cx="788.0" cy="279.0" r="58.0"/>
      <path d="M 788.0 347.0 L788.0 357.0"/>
      <path d="M 809.0131556174964 343.67184310807045 L812.1033255612459 353.182408271022"/>
      <path d="M 827.9693971558881 334.0131556174964 L833.8472496788129 342.10332556124587"/>
      <path d="M 843.0131556174964 318.96939715588815 L851.1033255612459 324.8472496788129"/>
      <path d="M 852.6718431080704 300.0131556174964 L862.182408271022 303.10332556124587"/>
      <path d="M 856.0 279.0 L866.0 279.0"/>
      <path d="M 852.6718431080704 257.9868443825036 L862.182408271022 254.89667443875413"/>
      <path d="M 843.0131556174964 239.03060284411183 L851.1033255612459 233.15275032118709"/>
      <path d="M 827.9693971558881 223.9868443825036 L833.8472496788129 215.8966744387541"/>
      <path d="M 809.0131556174964 214.32815689192955 L812.1033255612459 204.81759172897802"/>
      <path d="M 788.0 211.0 L788.0 201.0"/>
      <path d="M 766.9868443825036 214.32815689192955 L763.8966744387541 204.81759172897802"/>
      <path d="M 748.0306028441119 223.9868443825036 L742.1527503211871 215.8966744387541"/>
      <path d="M 732.9868443825036 239.03060284411183 L724.8966744387541 233.15275032118709"/>
      <path d="M 723.3281568919296 257.9868443825036 L713.817591728978 254.89667443875413"/>
      <path d="M 720.0 279.0 L710.0 279.0"/>
      <path d="M 723.3281568919296 300.0131556174964 L713.817591728978 303.10332556124587"/>
      <path d="M 732.9868443825036 318.96939715588815 L724.8966744387541 324.8472496788129"/>
      <path d="M 748.0306028441119 334.0131556174964 L742.1527503211871 342.10332556124587"/>
      <path d="M 766.9868443825036 343.67184310807045 L763.8966744387541 353.182408271022"/>
      <path d="M 788.0 279.0 L753.0 640.0"/>
      <circle cx="753.0" cy="640.0" r="41.05"/>
      <circle cx="700.0" cy="457.0" r="71.67"/>
      <circle cx="290.0" cy="649.0" r="52.48"/>
      <g transform="translate(368.72,649.0) scale(0.5,0.5)">
        <path d="M0 -50h25.0l-25.0 50"/>
        <path d="M47.5 0q-12.5 0 -12.5 -12.5v-25.0q0 -12.5 12.5 -12.5q12.5 0 12.5 12.5v25.0q0 12.5 -12.5 12.5m-12.5 -12.5l25.0 -25.0"/>
        <path d="M82.5 0q-12.5 0 -12.5 -12.5v-25.0q0 -12.5 12.5 -12.5q12.5 0 12.5 12.5v25.0q0 12.5 -12.5 12.5m-12.5 -12.5l25.0 -25.0"/>
        <path d="M130.0 -50h-12.5q-12.5 0 -12.5 12.5v25.0q0 12.5 12.5 12.5q12.5 0 12.5 -12.5q0 -12.5 -12.5 -12.5h-12.5"/>
      </g>
    </g>
  </g>
</svg>
