<svg version="1.1" width="1150" height="870" xmlns="http://www.w3.org/2000/svg">
  <!-- Seed: 1565528037561782966 -->
  <g stroke="black" fill="none">
    <circle cx="150" cy="490" r="1"/>
    <circle cx="150.4152273992687" cy="494.9827287912244" r="1.1353620555485144"/>
    <circle cx="150.8304547985374" cy="499.9654575824488" r="1.5322867791528973"/>
    <circle cx="151.2456821978061" cy="504.9481863736732" r="2.163909897570592"/>
    <circle cx="151.6609095970748" cy="509.9309151648976" r="2.987482508981107"/>
    <circle cx="152.0761369963435" cy="514.913643956122" r="3.9472643725974494"/>
    <circle cx="152.4913643956122" cy="519.8963727473464" r="4.978296465450976"/>
    <circle cx="152.9065917948809" cy="524.8791015385708" r="6.010797475829113"/>
    <circle cx="153.3218191941496" cy="529.8618303297952" r="6.974886674171512"/>
    <circle cx="153.7370465934183" cy="534.8445591210196" r="7.805313512668296"/>
    <circle cx="154.15227399268701" cy="539.827287912244" r="8.44587384939868"/>
    <circle cx="154.5675013919557" cy="544.8100167034684" r="8.853213902421325"/>
    <circle cx="154.9827287912244" cy="549.7927454946928" r="8.99976447829404"/>
    <circle cx="155.0" cy="550.0" r="9"/>
    <circle cx="155.50124999999997" cy="555.9362500000001" r="9.184674891072934"/>
    <circle cx="156.00500000000002" cy="561.7450000000001" r="9.734152255572697"/>
    <circle cx="156.51124999999996" cy="567.42625" r="10.634902137174482"/>
    <circle cx="157.02000000000004" cy="572.98" r="11.864745084375787"/>
    <circle cx="157.53125" cy="578.40625" r="13.393398282201787"/>
    <circle cx="158.045" cy="583.7049999999999" r="15.183221215612903"/>
    <circle cx="158.56125000000003" cy="588.8762499999999" r="17.1901425039068"/>
    <circle cx="159.07999999999998" cy="593.9200000000001" r="19.364745084375787"/>
    <circle cx="159.60125" cy="598.8362500000001" r="21.653483024396536"/>
    <circle cx="160.125" cy="603.625" r="24.0"/>
    <circle cx="160.65125" cy="608.28625" r="26.346516975603464"/>
    <circle cx="161.18" cy="612.8199999999999" r="28.635254915624213"/>
    <circle cx="161.71125" cy="617.2262499999999" r="30.8098574960932"/>
    <circle cx="162.245" cy="621.505" r="32.8167787843871"/>
    <circle cx="162.78125" cy="625.65625" r="34.60660171779821"/>
    <circle cx="163.32" cy="629.6800000000001" r="36.135254915624216"/>
    <circle cx="163.86124999999998" cy="633.57625" r="37.36509786282552"/>
    <circle cx="164.405" cy="637.345" r="38.265847744427305"/>
    <circle cx="164.95125" cy="640.98625" r="38.81532510892707"/>
    <circle cx="165.5" cy="644.5" r="39"/>
    <circle cx="166.8984375" cy="652.5859375" r="38.77163859753386"/>
    <circle cx="168.34375" cy="659.59375" r="38.121320343559645"/>
    <circle cx="169.8359375" cy="665.5234375" r="37.14805029709527"/>
    <circle cx="171.375" cy="670.375" r="36.0"/>
    <circle cx="172.9609375" cy="674.1484375" r="34.85194970290473"/>
    <circle cx="174.59375" cy="676.84375" r="33.878679656440355"/>
    <circle cx="176.2734375" cy="678.4609375" r="33.22836140246614"/>
    <circle cx="178.0" cy="679.0" r="33"/>
    <circle cx="178.8671875" cy="678.71875" r="32.86549696282261"/>
    <circle cx="179.71875" cy="677.875" r="32.46715672757901"/>
    <circle cx="180.5546875" cy="676.46875" r="31.820287286117818"/>
    <circle cx="181.375" cy="674.5" r="30.949747468305834"/>
    <circle cx="182.1796875" cy="671.96875" r="29.888991631137216"/>
    <circle cx="182.96875" cy="668.875" r="28.67878402655563"/>
    <circle cx="183.7421875" cy="665.21875" r="27.3656322541129"/>
    <circle cx="184.5" cy="661.0" r="26.0"/>
    <circle cx="185.2421875" cy="656.21875" r="24.634367745887104"/>
    <circle cx="185.96875" cy="650.875" r="23.321215973444374"/>
    <circle cx="186.6796875" cy="644.96875" r="22.111008368862784"/>
    <circle cx="187.375" cy="638.5" r="21.05025253169417"/>
    <circle cx="188.0546875" cy="631.46875" r="20.179712713882182"/>
    <circle cx="188.71875" cy="623.875" r="19.53284327242099"/>
    <circle cx="189.3671875" cy="615.71875" r="19.13450303717739"/>
    <circle cx="190.0" cy="607.0" r="19"/>
    <circle cx="190.29671280276816" cy="602.7560553633217" r="19.036259501492207"/>
    <circle cx="190.598615916955" cy="598.4948096885813" r="19.144728652686833"/>
    <circle cx="190.90570934256056" cy="594.2162629757786" r="19.32448203303104"/>
    <circle cx="191.21799307958474" cy="589.9204152249134" r="19.573986050062977"/>
    <circle cx="191.53546712802768" cy="585.6072664359862" r="19.89111202348197"/>
    <circle cx="191.8581314878893" cy="581.2768166089966" r="20.27315434629828"/>
    <circle cx="192.18598615916957" cy="576.9290657439446" r="20.716853568117966"/>
    <circle cx="192.5190311418685" cy="572.5640138408304" r="21.218424203624398"/>
    <circle cx="192.85726643598616" cy="568.1816608996542" r="21.773587029004265"/>
    <circle cx="193.2006920415225" cy="563.7820069204151" r="22.37760559077632"/>
    <circle cx="193.5493079584775" cy="559.3650519031144" r="23.025326615542475"/>
    <circle cx="193.90311418685118" cy="554.9307958477508" r="23.711223975899426"/>
    <circle cx="194.26211072664358" cy="550.4792387543253" r="24.429445837409197"/>
    <circle cx="194.6262975778547" cy="546.0103806228374" r="25.173864584387296"/>
    <circle cx="194.99567474048442" cy="541.5242214532872" r="25.938129098559152"/>
    <circle cx="195.37024221453285" cy="537.0207612456747" r="26.71571894456193"/>
    <circle cx="195.75" cy="532.5" r="27.5"/>
    <circle cx="196.1349480968858" cy="527.961937716263" r="28.284281055438065"/>
    <circle cx="196.5250865051903" cy="523.4065743944636" r="29.061870901440848"/>
    <circle cx="196.92041522491348" cy="518.833910034602" r="29.826135415612704"/>
    <circle cx="197.32093425605535" cy="514.2439446366782" r="30.5705541625908"/>
    <circle cx="197.7266435986159" cy="509.6366782006921" r="31.288776024100574"/>
    <circle cx="198.13754325259515" cy="505.01211072664364" r="31.974673384457525"/>
    <circle cx="198.55363321799308" cy="500.3702422145329" r="32.62239440922368"/>
    <circle cx="198.9749134948097" cy="495.7110726643599" r="33.22641297099574"/>
    <circle cx="199.401384083045" cy="491.03460207612466" r="33.781575796375606"/>
    <circle cx="199.833044982699" cy="486.340830449827" r="34.28314643188204"/>
    <circle cx="200.26989619377164" cy="481.6297577854671" r="34.726845653701716"/>
    <circle cx="200.71193771626298" cy="476.901384083045" r="35.108887976518034"/>
    <circle cx="201.159169550173" cy="472.15570934256056" r="35.42601394993702"/>
    <circle cx="201.61159169550172" cy="467.39273356401384" r="35.67551796696896"/>
    <circle cx="202.06920415224914" cy="462.61245674740485" r="35.85527134731316"/>
    <circle cx="202.53200692041523" cy="457.8148788927336" r="35.96374049850779"/>
    <circle cx="203.0" cy="453.0" r="36"/>
    <circle cx="203.5311111111111" cy="447.56111111111113" r="35.99452189536827"/>
    <circle cx="204.0577777777778" cy="442.1777777777778" r="35.978147600733806"/>
    <circle cx="204.58" cy="436.85" r="35.951056516295154"/>
    <circle cx="205.0977777777778" cy="431.57777777777784" r="35.9135454576426"/>
    <circle cx="205.61111111111111" cy="426.36111111111114" r="35.86602540378444"/>
    <circle cx="206.12000000000003" cy="421.2000000000001" r="35.80901699437495"/>
    <circle cx="206.62444444444444" cy="416.09444444444443" r="35.743144825477394"/>
    <circle cx="207.1244444444445" cy="411.04444444444454" r="35.669130606358856"/>
    <circle cx="207.61999999999998" cy="406.04999999999995" r="35.58778525229247"/>
    <circle cx="208.11111111111114" cy="401.1111111111112" r="35.5"/>
    <circle cx="208.59777777777776" cy="396.22777777777776" r="35.4067366430758"/>
    <circle cx="209.08" cy="391.4" r="35.30901699437495"/>
    <circle cx="209.5577777777778" cy="386.6277777777778" r="35.20791169081776"/>
    <circle cx="210.0311111111111" cy="381.91111111111115" r="35.104528463267656"/>
    <circle cx="210.5" cy="377.25" r="35.0"/>
    <circle cx="210.96444444444444" cy="372.6444444444444" r="34.895471536732344"/>
    <circle cx="211.42444444444445" cy="368.09444444444443" r="34.79208830918224"/>
    <circle cx="211.88" cy="363.6" r="34.69098300562505"/>
    <circle cx="212.3311111111111" cy="359.1611111111111" r="34.5932633569242"/>
    <circle cx="212.77777777777777" cy="354.7777777777778" r="34.5"/>
    <circle cx="213.22" cy="350.45000000000005" r="34.41221474770753"/>
    <circle cx="213.65777777777777" cy="346.1777777777778" r="34.330869393641144"/>
    <circle cx="214.0911111111111" cy="341.9611111111111" r="34.256855174522606"/>
    <circle cx="214.52" cy="337.8" r="34.19098300562505"/>
    <circle cx="214.94444444444446" cy="333.69444444444446" r="34.13397459621556"/>
    <circle cx="215.36444444444447" cy="329.64444444444445" r="34.0864545423574"/>
    <circle cx="215.78" cy="325.65" r="34.048943483704846"/>
    <circle cx="216.19111111111113" cy="321.7111111111111" r="34.021852399266194"/>
    <circle cx="216.59777777777776" cy="317.8277777777778" r="34.00547810463173"/>
    <circle cx="217.0" cy="314.0" r="34"/>
    <circle cx="218.02430555555551" cy="304.8958333333333" r="33.53999865490242"/>
    <circle cx="219.09722222222226" cy="296.58333333333337" r="32.19134295108992"/>
    <circle cx="220.21875" cy="289.0625" r="30.04594154601839"/>
    <circle cx="221.3888888888889" cy="282.33333333333337" r="27.25"/>
    <circle cx="222.60763888888886" cy="276.39583333333326" r="23.99405710888403"/>
    <circle cx="223.875" cy="271.25" r="20.5"/>
    <circle cx="225.19097222222223" cy="266.8958333333333" r="17.00594289111597"/>
    <circle cx="226.55555555555554" cy="263.3333333333333" r="13.750000000000004"/>
    <circle cx="227.96875" cy="260.5625" r="10.95405845398161"/>
    <circle cx="229.43055555555554" cy="258.58333333333337" r="8.808657048910074"/>
    <circle cx="230.94097222222223" cy="257.3958333333333" r="7.460001345097581"/>
    <circle cx="232.5" cy="257.0" r="7"/>
    <circle cx="236.22000000000006" cy="257.62" r="6.904508497187473"/>
    <circle cx="239.78000000000003" cy="259.48" r="6.654508497187473"/>
    <circle cx="243.18" cy="262.58000000000004" r="6.345491502812527"/>
    <circle cx="246.42000000000002" cy="266.92" r="6.095491502812527"/>
    <circle cx="249.5" cy="272.5" r="6"/>
    <circle cx="250.4453125" cy="274.6015625" r="6.038429439193539"/>
    <circle cx="251.40625" cy="277.03125" r="6.152240934977426"/>
    <circle cx="252.3828125" cy="279.7890625" r="6.337060775394909"/>
    <circle cx="253.375" cy="282.875" r="6.585786437626905"/>
    <circle cx="254.3828125" cy="286.2890625" r="6.888859533960796"/>
    <circle cx="255.40625" cy="290.03125" r="7.234633135269821"/>
    <circle cx="256.4453125" cy="294.1015625" r="7.609819355967743"/>
    <circle cx="257.5" cy="298.5" r="8.0"/>
    <circle cx="258.5703125" cy="303.2265625" r="8.390180644032256"/>
    <circle cx="259.65625" cy="308.28125" r="8.76536686473018"/>
    <circle cx="260.7578125" cy="313.6640625" r="9.111140466039204"/>
    <circle cx="261.875" cy="319.375" r="9.414213562373096"/>
    <circle cx="263.0078125" cy="325.4140625" r="9.66293922460509"/>
    <circle cx="264.15625" cy="331.78125" r="9.847759065022574"/>
    <circle cx="265.3203125" cy="338.4765625" r="9.96157056080646"/>
    <circle cx="266.5" cy="345.5" r="10"/>
    <circle cx="267.2292899408284" cy="349.92603550295854" r="10.003645562950974"/>
    <circle cx="267.9556213017752" cy="354.3579881656805" r="10.014529091286974"/>
    <circle cx="268.67899408284023" cy="358.79585798816566" r="10.032491878657293"/>
    <circle cx="269.3994082840236" cy="363.2396449704142" r="10.057271987173396"/>
    <circle cx="270.1168639053255" cy="367.68934911242604" r="10.088508067053171"/>
    <circle cx="270.8313609467456" cy="372.1449704142011" r="10.12574462591445"/>
    <circle cx="271.5428994082841" cy="376.6065088757397" r="10.168438670879603"/>
    <circle cx="272.2514792899408" cy="381.0739644970414" r="10.215967626634422"/>
    <circle cx="272.95710059171597" cy="385.5473372781065" r="10.267638413978116"/>
    <circle cx="273.65976331360946" cy="390.0266272189349" r="10.322697556478733"/>
    <circle cx="274.35946745562126" cy="394.51183431952654" r="10.38034216785622"/>
    <circle cx="275.0562130177515" cy="399.0029585798817" r="10.439731659872338"/>
    <circle cx="275.75" cy="403.5" r="10.5"/>
    <circle cx="276.44082840236683" cy="408.00295857988164" r="10.560268340127662"/>
    <circle cx="277.1286982248521" cy="412.5118343195266" r="10.619657832143778"/>
    <circle cx="277.81360946745565" cy="417.0266272189349" r="10.677302443521267"/>
    <circle cx="278.4955621301775" cy="421.5473372781065" r="10.732361586021884"/>
    <circle cx="279.17455621301775" cy="426.0739644970414" r="10.784032373365578"/>
    <circle cx="279.8505917159763" cy="430.6065088757396" r="10.831561329120397"/>
    <circle cx="280.52366863905326" cy="435.1449704142011" r="10.87425537408555"/>
    <circle cx="281.1937869822485" cy="439.68934911242604" r="10.911491932946829"/>
    <circle cx="281.8609467455621" cy="444.23964497041413" r="10.942728012826604"/>
    <circle cx="282.5251479289941" cy="448.7958579881657" r="10.967508121342707"/>
    <circle cx="283.1863905325444" cy="453.3579881656805" r="10.985470908713026"/>
    <circle cx="283.844674556213" cy="457.9260355029586" r="10.996354437049026"/>
    <circle cx="284.5" cy="462.5" r="11"/>
    <circle cx="285.10267857142856" cy="466.7633928571429" r="11.066021796120953"/>
    <circle cx="285.69642857142856" cy="471.05357142857144" r="11.263256922090852"/>
    <circle cx="286.28125" cy="475.3705357142857" r="11.58922503176214"/>
    <circle cx="286.8571428571429" cy="479.7142857142857" r="12.0398268870246"/>
    <circle cx="287.4241071428571" cy="484.08482142857144" r="12.609395908103016"/>
    <circle cx="287.98214285714283" cy="488.48214285714283" r="13.290769434085687"/>
    <circle cx="288.53125" cy="492.90625" r="14.075378797541251"/>
    <circle cx="289.07142857142856" cy="497.35714285714283" r="14.953357080483297"/>
    <circle cx="289.6026785714286" cy="501.8348214285715" r="15.913663196588967"/>
    <circle cx="290.12499999999994" cy="506.33928571428567" r="16.94422073926564"/>
    <circle cx="290.6383928571429" cy="510.8705357142858" r="18.032069849470744"/>
    <circle cx="291.1428571428571" cy="515.4285714285713" r="19.163530193458698"/>
    <circle cx="291.6383928571429" cy="520.0133928571429" r="20.324373000915266"/>
    <circle cx="292.125" cy="524.625" r="21.5"/>
    <circle cx="292.60267857142856" cy="529.2633928571429" r="22.675626999084734"/>
    <circle cx="293.07142857142856" cy="533.9285714285713" r="23.836469806541302"/>
    <circle cx="293.53125" cy="538.6205357142857" r="24.96793015052925"/>
    <circle cx="293.9821428571429" cy="543.3392857142858" r="26.05577926073436"/>
    <circle cx="294.4241071428571" cy="548.0848214285714" r="27.086336803411033"/>
    <circle cx="294.8571428571429" cy="552.8571428571429" r="28.0466429195167"/>
    <circle cx="295.28125" cy="557.65625" r="28.92462120245875"/>
    <circle cx="295.69642857142856" cy="562.4821428571429" r="29.70923056591431"/>
    <circle cx="296.10267857142856" cy="567.3348214285713" r="30.390604091896982"/>
    <circle cx="296.5" cy="572.2142857142858" r="30.9601731129754"/>
    <circle cx="296.88839285714283" cy="577.1205357142857" r="31.41077496823786"/>
    <circle cx="297.2678571428571" cy="582.0535714285714" r="31.736743077909146"/>
    <circle cx="297.63839285714283" cy="587.0133928571429" r="31.93397820387905"/>
    <circle cx="298.0" cy="592.0" r="32"/>
    <circle cx="298.50875" cy="598.8762499999999" r="31.88919506535624"/>
    <circle cx="299.035" cy="605.5050000000001" r="31.559508646656383"/>
    <circle cx="299.57875" cy="611.88625" r="31.019058717695312"/>
    <circle cx="300.14000000000004" cy="618.02" r="30.281152949374526"/>
    <circle cx="300.71875" cy="623.90625" r="29.36396103067893"/>
    <circle cx="301.315" cy="629.5449999999998" r="28.290067270632257"/>
    <circle cx="301.92875" cy="634.93625" r="27.08591449765592"/>
    <circle cx="302.56" cy="640.08" r="25.781152949374526"/>
    <circle cx="303.20875" cy="644.9762500000002" r="24.407910185362077"/>
    <circle cx="303.875" cy="649.625" r="23.0"/>
    <circle cx="304.55875000000003" cy="654.02625" r="21.592089814637923"/>
    <circle cx="305.26" cy="658.1800000000001" r="20.218847050625474"/>
    <circle cx="305.97875" cy="662.0862500000001" r="18.91408550234408"/>
    <circle cx="306.71500000000003" cy="665.745" r="17.709932729367743"/>
    <circle cx="307.46875" cy="669.15625" r="16.63603896932107"/>
    <circle cx="308.24" cy="672.32" r="15.718847050625474"/>
    <circle cx="309.02874999999995" cy="675.2362499999999" r="14.980941282304691"/>
    <circle cx="309.83500000000004" cy="677.905" r="14.440491353343617"/>
    <circle cx="310.65875" cy="680.3262500000001" r="14.11080493464376"/>
    <circle cx="311.5" cy="682.5" r="14"/>
    <circle cx="314.36111111111114" cy="688.763888888889" r="13.665063509461097"/>
    <circle cx="317.2777777777778" cy="693.8888888888889" r="12.75"/>
    <circle cx="320.25" cy="697.875" r="11.5"/>
    <circle cx="323.27777777777777" cy="700.7222222222222" r="10.25"/>
    <circle cx="326.36111111111114" cy="702.4305555555555" r="9.334936490538903"/>
    <circle cx="329.5" cy="703.0" r="9"/>
    <circle cx="331.875" cy="702.484375" r="9.152240934977426"/>
    <circle cx="334.25" cy="700.9375" r="9.585786437626904"/>
    <circle cx="336.625" cy="698.359375" r="10.23463313526982"/>
    <circle cx="339.0" cy="694.75" r="11.0"/>
    <circle cx="341.375" cy="690.109375" r="11.76536686473018"/>
    <circle cx="343.75" cy="684.4375" r="12.414213562373096"/>
    <circle cx="346.125" cy="677.734375" r="12.847759065022574"/>
    <circle cx="348.5" cy="670.0" r="13"/>
    <circle cx="349.2544" cy="667.2792" r="12.988172051971716"/>
    <circle cx="349.9976000000001" cy="664.3968000000001" r="12.952874741692947"/>
    <circle cx="350.7296" cy="661.3528" r="12.894664728832376"/>
    <circle cx="351.45039999999995" cy="658.1471999999999" r="12.814460020065795"/>
    <circle cx="352.1600000000001" cy="654.7800000000001" r="12.713525491562422"/>
    <circle cx="352.8584" cy="651.2512" r="12.593452941132117"/>
    <circle cx="353.5456" cy="647.5608" r="12.456135984623035"/>
    <circle cx="354.22159999999997" cy="643.7087999999999" r="12.303740192468496"/>
    <circle cx="354.8864" cy="639.6952000000001" r="12.138668937347608"/>
    <circle cx="355.54" cy="635.5200000000001" r="11.963525491562422"/>
    <circle cx="356.18240000000003" cy="631.1832" r="11.781071971878587"/>
    <circle cx="356.81359999999995" cy="626.6848" r="11.59418577929397"/>
    <circle cx="357.4336" cy="622.0247999999999" r="11.40581422070603"/>
    <circle cx="358.0424" cy="617.2031999999999" r="11.218928028121413"/>
    <circle cx="358.64" cy="612.22" r="11.036474508437578"/>
    <circle cx="359.2264" cy="607.0752" r="10.861331062652392"/>
    <circle cx="359.8016" cy="601.7688" r="10.696259807531504"/>
    <circle cx="360.3656" cy="596.3008" r="10.543864015376965"/>
    <circle cx="360.9184" cy="590.6712" r="10.406547058867883"/>
    <circle cx="361.46000000000004" cy="584.88" r="10.286474508437578"/>
    <circle cx="361.9904" cy="578.9272" r="10.185539979934205"/>
    <circle cx="362.5096" cy="572.8128" r="10.105335271167622"/>
    <circle cx="363.0176" cy="566.5368" r="10.047125258307053"/>
    <circle cx="363.5144" cy="560.0992" r="10.011827948028284"/>
    <circle cx="364.0" cy="553.5" r="10"/>
    <circle cx="364.39021852237255" cy="548.1394380853278" r="10.002565338304052"/>
    <circle cx="364.78668054110307" cy="542.8319458896983" r="10.010235029373753"/>
    <circle cx="365.1893860561914" cy="537.5775234131113" r="10.022930371799976"/>
    <circle cx="365.59833506763783" cy="532.3761706555671" r="10.040521094189884"/>
    <circle cx="366.01352757544225" cy="527.2278876170656" r="10.06282669192771"/>
    <circle cx="366.4349635796045" cy="522.1326742976066" r="10.089618279396362"/>
    <circle cx="366.8626430801248" cy="517.0905306971904" r="10.120620938653605"/>
    <circle cx="367.29656607700315" cy="512.1014568158168" r="10.155516540462157"/>
    <circle cx="367.7367325702394" cy="507.165452653486" r="10.193947008726168"/>
    <circle cx="368.1831425598335" cy="502.28251821019774" r="10.235517994836519"/>
    <circle cx="368.63579604578564" cy="497.45265348595217" r="10.279802924221183"/>
    <circle cx="369.0946930280957" cy="492.67585848074924" r="10.32634737357759"/>
    <circle cx="369.5598335067637" cy="487.95213319458895" r="10.37467373387064"/>
    <circle cx="370.0312174817898" cy="483.2814776274713" r="10.424286111247712"/>
    <circle cx="370.50884495317376" cy="478.66389177939647" r="10.474675415580643"/>
    <circle cx="370.99271592091566" cy="474.09937565036415" r="10.525324584419357"/>
    <circle cx="371.48283038501563" cy="469.58792924037465" r="10.575713888752288"/>
    <circle cx="371.97918834547346" cy="465.1295525494277" r="10.62532626612936"/>
    <circle cx="372.4817898022893" cy="460.72424557752345" r="10.67365262642241"/>
    <circle cx="372.9906347554631" cy="456.3720083246618" r="10.720197075778817"/>
    <circle cx="373.50572320499475" cy="452.07284079084286" r="10.764482005163481"/>
    <circle cx="374.0270551508845" cy="447.8267429760666" r="10.806052991273832"/>
    <circle cx="374.5546305931322" cy="443.633714880333" r="10.844483459537843"/>
    <circle cx="375.08844953173775" cy="439.49375650364203" r="10.879379061346395"/>
    <circle cx="375.62851196670135" cy="435.4068678459937" r="10.910381720603638"/>
    <circle cx="376.17481789802287" cy="431.3730489073881" r="10.93717330807229"/>
    <circle cx="376.7273673257024" cy="427.39229968782513" r="10.959478905810116"/>
    <circle cx="377.28616024973985" cy="423.4646201873049" r="10.977069628200024"/>
    <circle cx="377.8511966701352" cy="419.59001040582723" r="10.989764970626247"/>
    <circle cx="378.4224765868887" cy="415.76847034339227" r="10.997434661695948"/>
    <circle cx="379.0" cy="412.0" r="11"/>
    <circle cx="380.05709342560556" cy="405.3131487889274" r="11.144728652686835"/>
    <circle cx="381.1107266435986" cy="398.89965397923874" r="11.573986050062976"/>
    <circle cx="382.16089965397924" cy="392.75951557093424" r="12.273154346298279"/>
    <circle cx="383.20761245674737" cy="386.8927335640138" r="13.218424203624398"/>
    <circle cx="384.2508650519031" cy="381.29930795847747" r="14.377605590776321"/>
    <circle cx="385.2906574394463" cy="375.97923875432525" r="15.711223975899426"/>
    <circle cx="386.3269896193771" cy="370.93252595155707" r="17.173864584387296"/>
    <circle cx="387.3598615916955" cy="366.15916955017303" r="18.71571894456193"/>
    <circle cx="388.38927335640136" cy="361.659169550173" r="20.284281055438065"/>
    <circle cx="389.4152249134948" cy="357.43252595155707" r="21.826135415612704"/>
    <circle cx="390.43771626297575" cy="353.47923875432525" r="23.288776024100574"/>
    <circle cx="391.45674740484435" cy="349.7993079584775" r="24.62239440922368"/>
    <circle cx="392.4723183391004" cy="346.39273356401384" r="25.781575796375602"/>
    <circle cx="393.48442906574394" cy="343.25951557093424" r="26.72684565370172"/>
    <circle cx="394.4930795847751" cy="340.39965397923874" r="27.426013949937023"/>
    <circle cx="395.4982698961938" cy="337.8131487889274" r="27.855271347313167"/>
    <circle cx="396.5" cy="335.5" r="28"/>
    <circle cx="397.4930795847751" cy="333.18512110726647" r="27.829730996839018"/>
    <circle cx="398.4723183391003" cy="330.59342560553625" r="27.324722294043557"/>
    <circle cx="399.43771626297575" cy="327.72491349480964" r="26.50217135729614"/>
    <circle cx="400.38927335640136" cy="324.57958477508646" r="25.39008917220659"/>
    <circle cx="401.3269896193771" cy="321.15743944636677" r="24.026346363792562"/>
    <circle cx="402.250865051903" cy="317.45847750865045" r="22.457383557765382"/>
    <circle cx="403.16089965397924" cy="313.48269896193773" r="20.73662990072083"/>
    <circle cx="404.05709342560556" cy="309.2301038062284" r="18.92268359463302"/>
    <circle cx="404.93944636678197" cy="304.70069204152253" r="17.077316405366982"/>
    <circle cx="405.8079584775087" cy="299.8944636678201" r="15.263370099279172"/>
    <circle cx="406.66262975778545" cy="294.8114186851211" r="13.542616442234618"/>
    <circle cx="407.5034602076124" cy="289.4515570934256" r="11.973653636207438"/>
    <circle cx="408.33044982698965" cy="283.8148788927336" r="10.60991082779341"/>
    <circle cx="409.14359861591697" cy="277.901384083045" r="9.497828642703858"/>
    <circle cx="409.94290657439444" cy="271.71107266435985" r="8.675277705956443"/>
    <circle cx="410.7283737024221" cy="265.24394463667824" r="8.170269003160982"/>
    <circle cx="411.5" cy="258.5" r="8"/>
    <circle cx="412.5059171597634" cy="249.84615384615387" r="8.0"/>
    <circle cx="413.52366863905326" cy="241.8846153846154" r="8.0"/>
    <circle cx="414.5532544378698" cy="234.61538461538458" r="8.0"/>
    <circle cx="415.594674556213" cy="228.03846153846155" r="8.0"/>
    <circle cx="416.6479289940829" cy="222.1538461538462" r="8.0"/>
    <circle cx="417.7130177514793" cy="216.96153846153845" r="8.0"/>
    <circle cx="418.78994082840234" cy="212.46153846153848" r="8.0"/>
    <circle cx="419.8786982248521" cy="208.65384615384613" r="8.0"/>
    <circle cx="420.9792899408284" cy="205.53846153846155" r="8.0"/>
    <circle cx="422.09171597633133" cy="203.1153846153846" r="8.0"/>
    <circle cx="423.21597633136093" cy="201.3846153846154" r="8.0"/>
    <circle cx="424.3520710059172" cy="200.34615384615384" r="8.0"/>
    <circle cx="425.5" cy="200.0" r="8"/>
    <circle cx="426.3892733564014" cy="200.2664359861592" r="8.017026900316099"/>
    <circle cx="427.2923875432526" cy="201.06574394463664" r="8.067527770595644"/>
    <circle cx="428.2093425605536" cy="202.39792387543253" r="8.149782864270385"/>
    <circle cx="429.1401384083045" cy="204.2629757785467" r="8.260991082779341"/>
    <circle cx="430.08477508650515" cy="206.66089965397921" r="8.397365363620743"/>
    <circle cx="431.0432525951557" cy="209.59169550173007" r="8.554261644223462"/>
    <circle cx="432.01557093425606" cy="213.05536332179932" r="8.726337009927917"/>
    <circle cx="433.0017301038062" cy="217.05190311418687" r="8.907731640536698"/>
    <circle cx="434.0017301038062" cy="221.58131487889273" r="9.092268359463302"/>
    <circle cx="435.01557093425606" cy="226.64359861591697" r="9.273662990072083"/>
    <circle cx="436.0432525951557" cy="232.23875432525952" r="9.445738355776538"/>
    <circle cx="437.0847750865052" cy="238.36678200692046" r="9.602634636379257"/>
    <circle cx="438.14013840830455" cy="245.02768166089965" r="9.739008917220659"/>
    <circle cx="439.20934256055364" cy="252.22145328719722" r="9.850217135729615"/>
    <circle cx="440.29238754325263" cy="259.94809688581313" r="9.932472229404356"/>
    <circle cx="441.3892733564014" cy="268.2076124567474" r="9.982973099683901"/>
    <circle cx="442.5" cy="277.0" r="10"/>
    <circle cx="443.40476190476187" cy="284.2052154195011" r="10.0781842164241"/>
    <circle cx="444.3095238095238" cy="291.1541950113379" r="10.310990359497014"/>
    <circle cx="445.21428571428584" cy="297.8469387755103" r="10.693217924683067"/>
    <circle cx="446.11904761904765" cy="304.2834467120181" r="11.216328579788035"/>
    <circle cx="447.02380952380946" cy="310.46371882086163" r="11.868636897191216"/>
    <circle cx="447.92857142857144" cy="316.38775510204084" r="12.635571386988865"/>
    <circle cx="448.8333333333334" cy="322.05555555555554" r="13.5"/>
    <circle cx="449.7380952380953" cy="327.4671201814059" r="14.442612829435234"/>
    <circle cx="450.6428571428571" cy="332.6224489795918" r="15.4423534623058"/>
    <circle cx="451.54761904761904" cy="337.5215419501134" r="16.476889344895028"/>
    <circle cx="452.45238095238096" cy="342.1643990929705" r="17.523110655104972"/>
    <circle cx="453.3571428571429" cy="346.55102040816325" r="18.5576465376942"/>
    <circle cx="454.2619047619048" cy="350.68140589569157" r="19.557387170564766"/>
    <circle cx="455.1666666666667" cy="354.55555555555554" r="20.5"/>
    <circle cx="456.07142857142856" cy="358.1734693877551" r="21.364428613011135"/>
    <circle cx="456.9761904761905" cy="361.53514739229024" r="22.131363102808784"/>
    <circle cx="457.8809523809524" cy="364.64058956916097" r="22.783671420211967"/>
    <circle cx="458.78571428571433" cy="367.48979591836735" r="23.30678207531693"/>
    <circle cx="459.69047619047626" cy="370.08276643990934" r="23.689009640502988"/>
    <circle cx="460.59523809523813" cy="372.41950113378687" r="23.921815783575898"/>
    <circle cx="461.5" cy="374.5" r="24"/>
    <circle cx="462.32041587901705" cy="376.4045368620038" r="23.967400811127156"/>
    <circle cx="463.12948960302464" cy="378.5529300567108" r="23.8702105057173"/>
    <circle cx="463.92722117202266" cy="380.945179584121" r="23.710239555269087"/>
    <circle cx="464.7136105860113" cy="383.58128544423437" r="23.49046791591271"/>
    <circle cx="465.48865784499066" cy="386.4612476370511" r="23.21498951746547"/>
    <circle cx="466.25236294896024" cy="389.58506616257085" r="22.88893600126529"/>
    <circle cx="467.00472589792054" cy="392.9527410207939" r="22.518381127402034"/>
    <circle cx="467.7457466918715" cy="396.5642722117202" r="22.110227632059033"/>
    <circle cx="468.47542533081287" cy="400.4196597353498" r="21.67207864259845"/>
    <circle cx="469.19376181474485" cy="404.51890359168243" r="21.21209604568422"/>
    <circle cx="469.9007561436673" cy="408.86200378071834" r="20.73884844677635"/>
    <circle cx="470.59640831758037" cy="413.44896030245746" r="20.26115155322365"/>
    <circle cx="471.2807183364839" cy="418.27977315689975" r="19.78790395431578"/>
    <circle cx="471.9536862003781" cy="423.35444234404537" r="19.32792135740155"/>
    <circle cx="472.6153119092628" cy="428.6729678638942" r="18.889772367940967"/>
    <circle cx="473.26559546313797" cy="434.2353497164461" r="18.481618872597966"/>
    <circle cx="473.9045368620038" cy="440.0415879017013" r="18.11106399873471"/>
    <circle cx="474.5321361058601" cy="446.0916824196598" r="17.78501048253453"/>
    <circle cx="475.14839319470696" cy="452.3856332703213" r="17.50953208408729"/>
    <circle cx="475.75330812854446" cy="458.9234404536862" r="17.289760444730916"/>
    <circle cx="476.3468809073724" cy="465.7051039697542" r="17.129789494282704"/>
    <circle cx="476.9291115311909" cy="472.7306238185255" r="17.032599188872844"/>
    <circle cx="477.5" cy="480.0" r="17"/>
    <circle cx="478.2191358024691" cy="489.1820987654321" r="17.106345728914544"/>
    <circle cx="478.9320987654321" cy="497.8395061728395" r="17.42215165449864"/>
    <circle cx="479.63888888888897" cy="505.9722222222223" r="17.93782217350893"/>
    <circle cx="480.3395061728395" cy="513.5802469135803" r="18.637688898167156"/>
    <circle cx="481.03395061728395" cy="520.6635802469136" r="19.500486732194226"/>
    <circle cx="481.7222222222223" cy="527.2222222222223" r="20.5"/>
    <circle cx="482.4043209876544" cy="533.2561728395062" r="21.60585899672032"/>
    <circle cx="483.08024691358025" cy="538.7654320987655" r="22.784462756331486"/>
    <circle cx="483.75" cy="543.75" r="24.0"/>
    <circle cx="484.41358024691357" cy="548.2098765432099" r="25.215537243668514"/>
    <circle cx="485.070987654321" cy="552.145061728395" r="26.394141003279678"/>
    <circle cx="485.72222222222223" cy="555.5555555555555" r="27.5"/>
    <circle cx="486.3672839506173" cy="558.4413580246913" r="28.499513267805774"/>
    <circle cx="487.00617283950623" cy="560.8024691358024" r="29.362311101832844"/>
    <circle cx="487.6388888888889" cy="562.6388888888889" r="30.062177826491073"/>
    <circle cx="488.2654320987655" cy="563.9506172839507" r="30.57784834550136"/>
    <circle cx="488.8858024691358" cy="564.7376543209876" r="30.893654271085456"/>
    <circle cx="489.5" cy="565.0" r="31"/>
    <circle cx="490.625" cy="564.5450000000001" r="30.755282581475768"/>
    <circle cx="491.8000000000001" cy="563.1800000000001" r="30.045084971874736"/>
    <circle cx="493.025" cy="560.905" r="28.938926261462367"/>
    <circle cx="494.3" cy="557.72" r="27.545084971874736"/>
    <circle cx="495.625" cy="553.625" r="26.0"/>
    <circle cx="497.0" cy="548.62" r="24.454915028125264"/>
    <circle cx="498.42499999999995" cy="542.705" r="23.061073738537637"/>
    <circle cx="499.90000000000003" cy="535.8800000000001" r="21.954915028125264"/>
    <circle cx="501.42499999999995" cy="528.145" r="21.244717418524232"/>
    <circle cx="503.0" cy="519.5" r="21"/>
    <circle cx="503.5939643347051" cy="516.0857338820302" r="20.989857536612913"/>
    <circle cx="504.19067215363515" cy="512.5836762688615" r="20.959567305869736"/>
    <circle cx="504.7901234567901" cy="508.99382716049377" r="20.90953893117886"/>
    <circle cx="505.39231824417004" cy="505.3161865569273" r="20.84044896048512"/>
    <circle cx="505.9972565157751" cy="501.550754458162" r="20.753231717119405"/>
    <circle cx="506.60493827160496" cy="497.6975308641975" r="20.649066664678468"/>
    <circle cx="507.2153635116597" cy="493.7565157750342" r="20.5293624568031"/>
    <circle cx="507.8285322359397" cy="489.72770919067216" r="20.39573788755418"/>
    <circle cx="508.4444444444445" cy="485.6111111111112" r="20.25"/>
    <circle cx="509.0631001371743" cy="481.40672153635114" r="20.094119649058737"/>
    <circle cx="509.6844993141289" cy="477.11454046639227" r="19.930204849066634"/>
    <circle cx="510.30864197530866" cy="472.7345679012345" r="19.760472266500397"/>
    <circle cx="510.9355281207134" cy="468.26680384087797" r="19.587217243365714"/>
    <circle cx="511.5651577503429" cy="463.7112482853224" r="19.412782756634286"/>
    <circle cx="512.1975308641976" cy="459.0679012345679" r="19.239527733499603"/>
    <circle cx="512.832647462277" cy="454.33676268861456" r="19.069795150933366"/>
    <circle cx="513.4705075445816" cy="449.5178326474622" r="18.905880350941263"/>
    <circle cx="514.1111111111111" cy="444.6111111111111" r="18.75"/>
    <circle cx="514.7544581618656" cy="439.6165980795611" r="18.60426211244582"/>
    <circle cx="515.4005486968449" cy="434.5342935528121" r="18.4706375431969"/>
    <circle cx="516.0493827160494" cy="429.3641975308642" r="18.350933335321532"/>
    <circle cx="516.7009602194787" cy="424.1063100137174" r="18.246768282880595"/>
    <circle cx="517.355281207133" cy="418.76063100137173" r="18.15955103951488"/>
    <circle cx="518.0123456790124" cy="413.3271604938272" r="18.09046106882114"/>
    <circle cx="518.6721536351166" cy="407.8058984910837" r="18.040432694130264"/>
    <circle cx="519.3347050754458" cy="402.19684499314127" r="18.010142463387083"/>
    <circle cx="520.0" cy="396.5" r="18"/>
    <circle cx="521.0467128027682" cy="387.65051903114187" r="17.982973099683903"/>
    <circle cx="522.0692041522491" cy="379.3373702422145" r="17.932472229404357"/>
    <circle cx="523.0674740484429" cy="371.560553633218" r="17.850217135729615"/>
    <circle cx="524.0415224913495" cy="364.3200692041522" r="17.73900891722066"/>
    <circle cx="524.9913494809689" cy="357.6159169550173" r="17.602634636379257"/>
    <circle cx="525.916955017301" cy="351.4480968858131" r="17.445738355776538"/>
    <circle cx="526.8183391003461" cy="345.8166089965398" r="17.273662990072083"/>
    <circle cx="527.6955017301038" cy="340.7214532871972" r="17.0922683594633"/>
    <circle cx="528.5484429065745" cy="336.16262975778545" r="16.9077316405367"/>
    <circle cx="529.3771626297578" cy="332.1401384083045" r="16.726337009927917"/>
    <circle cx="530.1816608996539" cy="328.65397923875435" r="16.554261644223462"/>
    <circle cx="530.961937716263" cy="325.70415224913495" r="16.397365363620743"/>
    <circle cx="531.7179930795849" cy="323.29065743944636" r="16.26099108277934"/>
    <circle cx="532.4498269896194" cy="321.4134948096886" r="16.149782864270385"/>
    <circle cx="533.1574394463668" cy="320.0726643598616" r="16.067527770595646"/>
    <circle cx="533.840830449827" cy="319.2681660899654" r="16.017026900316097"/>
    <circle cx="534.5" cy="319.0" r="16"/>
    <circle cx="535.1875" cy="319.29296875" r="16.182539836169312"/>
    <circle cx="535.875" cy="320.171875" r="16.723144441142775"/>
    <circle cx="536.5625" cy="321.63671875" r="17.60103868312582"/>
    <circle cx="537.25" cy="323.6875" r="18.782485578727798"/>
    <circle cx="537.9375" cy="326.32421875" r="20.222082786313777"/>
    <circle cx="538.625" cy="329.546875" r="21.864507392531646"/>
    <circle cx="539.3125" cy="333.35546875" r="23.64664194084678"/>
    <circle cx="540.0" cy="337.75" r="25.5"/>
    <circle cx="540.6875" cy="342.73046875" r="27.353358059153216"/>
    <circle cx="541.375" cy="348.296875" r="29.13549260746835"/>
    <circle cx="542.0625" cy="354.44921875" r="30.77791721368622"/>
    <circle cx="542.75" cy="361.1875" r="32.2175144212722"/>
    <circle cx="543.4375" cy="368.51171875" r="33.39896131687418"/>
    <circle cx="544.125" cy="376.421875" r="34.27685555885722"/>
    <circle cx="544.8125" cy="384.91796875" r="34.81746016383069"/>
    <circle cx="545.5" cy="394.0" r="35"/>
    <circle cx="545.984877126654" cy="400.437618147448" r="34.902202433381476"/>
    <circle cx="546.482986767486" cy="406.7069943289225" r="34.610631517151894"/>
    <circle cx="546.9943289224952" cy="412.8081285444234" r="34.13071866580726"/>
    <circle cx="547.5189035916824" cy="418.74102079395084" r="33.47140374773813"/>
    <circle cx="548.0567107750473" cy="424.50567107750476" r="32.644968552396406"/>
    <circle cx="548.6077504725897" cy="430.10207939508496" r="31.666808003795868"/>
    <circle cx="549.17202268431" cy="435.53024574669183" r="30.555143382206104"/>
    <circle cx="549.7495274102079" cy="440.79017013232516" r="29.3306828961771"/>
    <circle cx="550.3402646502835" cy="445.88185255198493" r="28.016235927795353"/>
    <circle cx="550.9442344045369" cy="450.80529300567116" r="26.636288137052656"/>
    <circle cx="551.5614366729678" cy="455.5604914933837" r="25.216545340329045"/>
    <circle cx="552.1918714555766" cy="460.14744801512285" r="23.78345465967096"/>
    <circle cx="552.8355387523629" cy="464.5661625708884" r="22.363711862947348"/>
    <circle cx="553.492438563327" cy="468.8166351606805" r="20.983764072204643"/>
    <circle cx="554.1625708884687" cy="472.89886578449904" r="19.6693171038229"/>
    <circle cx="554.8459357277882" cy="476.812854442344" r="18.444856617793896"/>
    <circle cx="555.5425330812855" cy="480.55860113421545" r="17.333191996204132"/>
    <circle cx="556.2523629489604" cy="484.1361058601134" r="16.35503144760359"/>
    <circle cx="556.9754253308129" cy="487.5453686200378" r="15.528596252261867"/>
    <circle cx="557.7117202268431" cy="490.7863894139887" r="14.869281334192745"/>
    <circle cx="558.461247637051" cy="493.8591682419659" r="14.38936848284811"/>
    <circle cx="559.2240075614367" cy="496.76370510396976" r="14.097797566618528"/>
    <circle cx="560.0" cy="499.5" r="14"/>
    <circle cx="560.9487534626039" cy="502.77700831024936" r="13.952264561909528"/>
    <circle cx="561.9002770083102" cy="506.1869806094183" r="13.81036034595222"/>
    <circle cx="562.854570637119" cy="509.7299168975068" r="13.578158129222711"/>
    <circle cx="563.8116343490304" cy="513.4058171745153" r="13.261991782887378"/>
    <circle cx="564.7714681440443" cy="517.2146814404433" r="12.870485500690094"/>
    <circle cx="565.7340720221606" cy="521.1565096952909" r="12.414318553428494"/>
    <circle cx="566.6994459833794" cy="525.2313019390581" r="11.905933986285394"/>
    <circle cx="567.6675900277007" cy="529.439058171745" r="11.359199204992798"/>
    <circle cx="568.6385041551248" cy="533.7797783933519" r="10.789027709153164"/>
    <circle cx="569.612188365651" cy="538.2534626038781" r="10.210972290846836"/>
    <circle cx="570.5886426592797" cy="542.8601108033241" r="9.640800795007202"/>
    <circle cx="571.5678670360111" cy="547.5997229916898" r="9.094066013714606"/>
    <circle cx="572.5498614958449" cy="552.472299168975" r="8.585681446571506"/>
    <circle cx="573.5346260387812" cy="557.4778393351801" r="8.129514499309906"/>
    <circle cx="574.5221606648199" cy="562.6163434903048" r="7.738008217112623"/>
    <circle cx="575.5124653739612" cy="567.887811634349" r="7.421841870777289"/>
    <circle cx="576.505540166205" cy="573.292243767313" r="7.189639654047779"/>
    <circle cx="577.5013850415513" cy="578.8296398891966" r="7.047735438090472"/>
    <circle cx="578.5" cy="584.5" r="7"/>
    <circle cx="580.0659722222222" cy="593.204861111111" r="7.0"/>
    <circle cx="581.5972222222223" cy="601.1527777777778" r="7.0"/>
    <circle cx="583.09375" cy="608.34375" r="7.0"/>
    <circle cx="584.5555555555557" cy="614.7777777777778" r="7.0"/>
    <circle cx="585.9826388888888" cy="620.454861111111" r="7.0"/>
    <circle cx="587.375" cy="625.375" r="7.0"/>
    <circle cx="588.7326388888889" cy="629.5381944444446" r="7.0"/>
    <circle cx="590.0555555555557" cy="632.9444444444445" r="7.0"/>
    <circle cx="591.34375" cy="635.59375" r="7.0"/>
    <circle cx="592.5972222222223" cy="637.4861111111111" r="7.0"/>
    <circle cx="593.8159722222222" cy="638.6215277777777" r="7.0"/>
    <circle cx="595.0" cy="639.0" r="7"/>
    <circle cx="595.6632653061224" cy="638.7777777777777" r="7.0"/>
    <circle cx="596.3197278911565" cy="638.1111111111111" r="7.0"/>
    <circle cx="596.9693877551022" cy="637.0000000000001" r="7.0"/>
    <circle cx="597.6122448979592" cy="635.4444444444445" r="7.0"/>
    <circle cx="598.2482993197278" cy="633.4444444444443" r="7.0"/>
    <circle cx="598.8775510204081" cy="631.0" r="7.0"/>
    <circle cx="599.5000000000001" cy="628.1111111111111" r="7.0"/>
    <circle cx="600.1156462585034" cy="624.7777777777778" r="7.0"/>
    <circle cx="600.7244897959183" cy="621.0" r="7.0"/>
    <circle cx="601.3265306122448" cy="616.7777777777777" r="7.0"/>
    <circle cx="601.9217687074829" cy="612.1111111111111" r="7.0"/>
    <circle cx="602.5102040816325" cy="607.0" r="7.0"/>
    <circle cx="603.0918367346939" cy="601.4444444444445" r="7.0"/>
    <circle cx="603.6666666666667" cy="595.4444444444445" r="7.0"/>
    <circle cx="604.2346938775511" cy="589.0" r="7.0"/>
    <circle cx="604.795918367347" cy="582.1111111111111" r="7.0"/>
    <circle cx="605.3503401360545" cy="574.7777777777777" r="7.0"/>
    <circle cx="605.8979591836735" cy="567.0" r="7.0"/>
    <circle cx="606.4387755102041" cy="558.7777777777778" r="7.0"/>
    <circle cx="606.9727891156463" cy="550.1111111111111" r="7.0"/>
    <circle cx="607.5" cy="541.0" r="7"/>
    <circle cx="607.755543537047" cy="536.4413196322336" r="7.013338581682242"/>
    <circle cx="608.0105462412114" cy="531.881557598702" r="7.053283159624449"/>
    <circle cx="608.2650081124932" cy="527.320713899405" r="7.1196206122203645"/>
    <circle cx="608.5189291508924" cy="522.758788534343" r="7.21199700045797"/>
    <circle cx="608.7723093564089" cy="518.1957815035154" r="7.32991945633726"/>
    <circle cx="609.0251487290427" cy="513.6316928069226" r="7.472758812534267"/>
    <circle cx="609.2774472687938" cy="509.0665224445646" r="7.639752959280962"/>
    <circle cx="609.5292049756625" cy="504.50027041644137" r="7.830010910550611"/>
    <circle cx="609.7804218496484" cy="499.93293672255265" r="8.04251755785373"/>
    <circle cx="610.0310978907518" cy="495.36452136289887" r="8.27613908628109"/>
    <circle cx="610.2812330989724" cy="490.79502433747973" r="8.529629023896831"/>
    <circle cx="610.5308274743103" cy="486.22444564629524" r="8.801634892205543"/>
    <circle cx="610.7798810167659" cy="481.6527852893456" r="9.090705422210235"/>
    <circle cx="611.0283937263387" cy="477.0800432666306" r="9.395298297560348"/>
    <circle cx="611.2763656030288" cy="472.5062195781504" r="9.713788383476807"/>
    <circle cx="611.5237966468361" cy="467.9313142239048" r="10.04447639754922"/>
    <circle cx="611.7706868577609" cy="463.355327203894" r="10.385597976142769"/>
    <circle cx="612.0170362358031" cy="458.77825851811787" r="10.735333088041596"/>
    <circle cx="612.2628447809627" cy="454.2001081665765" r="11.091815745102817"/>
    <circle cx="612.5081124932397" cy="449.62087614927" r="11.453143958110626"/>
    <circle cx="612.7528393726338" cy="445.0405624661979" r="11.817389884711705"/>
    <circle cx="612.9970254191454" cy="440.4591671173607" r="12.182610115288295"/>
    <circle cx="613.2406706327745" cy="435.87669010275823" r="12.54685604188937"/>
    <circle cx="613.4837750135209" cy="431.2931314223905" r="12.908184254897183"/>
    <circle cx="613.7263385613845" cy="426.7084910762574" r="13.264666911958404"/>
    <circle cx="613.9683612763656" cy="422.12276906435915" r="13.614402023857231"/>
    <circle cx="614.2098431584641" cy="417.53596538669547" r="13.955523602450778"/>
    <circle cx="614.4507842076798" cy="412.9480800432666" r="14.286211616523193"/>
    <circle cx="614.691184424013" cy="408.3591130340725" r="14.604701702439652"/>
    <circle cx="614.9310438074635" cy="403.76906435911303" r="14.909294577789762"/>
    <circle cx="615.1703623580313" cy="399.1779340183883" r="15.198365107794455"/>
    <circle cx="615.4091400757166" cy="394.58572201189827" r="15.470370976103169"/>
    <circle cx="615.6473769605192" cy="389.992428339643" r="15.723860913718909"/>
    <circle cx="615.8850730124391" cy="385.39805300162243" r="15.957482442146269"/>
    <circle cx="616.1222282314765" cy="380.8025959978367" r="16.169989089449388"/>
    <circle cx="616.3588426176311" cy="376.2060573282855" r="16.360247040719038"/>
    <circle cx="616.5949161709032" cy="371.6084369929692" r="16.527241187465734"/>
    <circle cx="616.8304488912926" cy="367.0097349918875" r="16.670080543662742"/>
    <circle cx="617.0654407787994" cy="362.40995132504054" r="16.78800299954203"/>
    <circle cx="617.2998918334235" cy="357.8090859924283" r="16.880379387779634"/>
    <circle cx="617.5338020551649" cy="353.2071389940508" r="16.94671684037555"/>
    <circle cx="617.7671714440238" cy="348.60411032990805" r="16.98666141831776"/>
    <circle cx="618.0" cy="344.0" r="17"/>
    <circle cx="618.3383333333334" cy="337.4683333333333" r="17.0"/>
    <circle cx="618.6866666666667" cy="331.0733333333333" r="17.0"/>
    <circle cx="619.0450000000001" cy="324.81500000000005" r="17.0"/>
    <circle cx="619.4133333333333" cy="318.6933333333333" r="17.0"/>
    <circle cx="619.7916666666667" cy="312.70833333333337" r="17.0"/>
    <circle cx="620.1800000000001" cy="306.86000000000007" r="17.0"/>
    <circle cx="620.5783333333333" cy="301.1483333333333" r="17.0"/>
    <circle cx="620.9866666666668" cy="295.5733333333333" r="17.0"/>
    <circle cx="621.4049999999999" cy="290.135" r="17.0"/>
    <circle cx="621.8333333333335" cy="284.83333333333337" r="17.0"/>
    <circle cx="622.2716666666665" cy="279.66833333333335" r="17.0"/>
    <circle cx="622.72" cy="274.64" r="17.0"/>
    <circle cx="623.1783333333334" cy="269.74833333333333" r="17.0"/>
    <circle cx="623.6466666666666" cy="264.99333333333334" r="17.0"/>
    <circle cx="624.125" cy="260.375" r="17.0"/>
    <circle cx="624.6133333333332" cy="255.89333333333332" r="17.0"/>
    <circle cx="625.1116666666667" cy="251.54833333333335" r="17.0"/>
    <circle cx="625.6199999999999" cy="247.34000000000003" r="17.0"/>
    <circle cx="626.1383333333333" cy="243.26833333333335" r="17.0"/>
    <circle cx="626.6666666666667" cy="239.33333333333337" r="17.0"/>
    <circle cx="627.2049999999999" cy="235.535" r="17.0"/>
    <circle cx="627.7533333333333" cy="231.87333333333333" r="17.0"/>
    <circle cx="628.3116666666667" cy="228.34833333333333" r="17.0"/>
    <circle cx="628.88" cy="224.96000000000004" r="17.0"/>
    <circle cx="629.4583333333333" cy="221.70833333333331" r="17.0"/>
    <circle cx="630.0466666666666" cy="218.59333333333336" r="17.0"/>
    <circle cx="630.645" cy="215.615" r="17.0"/>
    <circle cx="631.2533333333333" cy="212.7733333333333" r="17.0"/>
    <circle cx="631.8716666666666" cy="210.06833333333333" r="17.0"/>
    <circle cx="632.5" cy="207.5" r="17"/>
    <circle cx="634.5802469135803" cy="199.62962962962962" r="17.36184427528455"/>
    <circle cx="636.5987654320988" cy="192.6851851851852" r="18.40373334128613"/>
    <circle cx="638.5555555555557" cy="186.66666666666669" r="20.0"/>
    <circle cx="640.4506172839506" cy="181.57407407407408" r="21.95811093399842"/>
    <circle cx="642.283950617284" cy="177.4074074074074" r="24.04188906600158"/>
    <circle cx="644.0555555555555" cy="174.16666666666669" r="26.0"/>
    <circle cx="645.7654320987655" cy="171.85185185185185" r="27.596266658713866"/>
    <circle cx="647.4135802469136" cy="170.462962962963" r="28.63815572471545"/>
    <circle cx="649.0" cy="170.0" r="29"/>
    <circle cx="650.1527777777777" cy="170.39583333333331" r="28.948888739433603"/>
    <circle cx="651.2777777777778" cy="171.58333333333334" r="28.799038105676658"/>
    <circle cx="652.375" cy="173.5625" r="28.560660171779823"/>
    <circle cx="653.4444444444446" cy="176.33333333333337" r="28.25"/>
    <circle cx="654.486111111111" cy="179.89583333333331" r="27.88822856765378"/>
    <circle cx="655.5" cy="184.25" r="27.5"/>
    <circle cx="656.4861111111111" cy="189.39583333333334" r="27.11177143234622"/>
    <circle cx="657.4444444444446" cy="195.33333333333334" r="26.75"/>
    <circle cx="658.375" cy="202.0625" r="26.439339828220177"/>
    <circle cx="659.2777777777778" cy="209.58333333333334" r="26.200961894323342"/>
    <circle cx="660.1527777777778" cy="217.89583333333334" r="26.051111260566397"/>
    <circle cx="661.0" cy="227.0" r="26"/>
    <circle cx="661.5648148148148" cy="233.2438271604938" r="25.84807753012208"/>
    <circle cx="662.1481481481482" cy="239.30864197530863" r="25.396926207859085"/>
    <circle cx="662.75" cy="245.19444444444446" r="24.660254037844386"/>
    <circle cx="663.3703703703703" cy="250.90123456790124" r="23.66044443118978"/>
    <circle cx="664.0092592592594" cy="256.429012345679" r="22.427876096865393"/>
    <circle cx="664.6666666666667" cy="261.7777777777778" r="21.0"/>
    <circle cx="665.3425925925926" cy="266.9475308641976" r="19.42020143325669"/>
    <circle cx="666.0370370370371" cy="271.9382716049383" r="17.736481776669304"/>
    <circle cx="666.75" cy="276.75" r="16.0"/>
    <circle cx="667.4814814814815" cy="281.38271604938274" r="14.263518223330697"/>
    <circle cx="668.2314814814815" cy="285.8364197530864" r="12.579798566743314"/>
    <circle cx="669.0" cy="290.1111111111111" r="11.000000000000002"/>
    <circle cx="669.7870370370371" cy="294.2067901234568" r="9.572123903134607"/>
    <circle cx="670.5925925925926" cy="298.12345679012344" r="8.33955556881022"/>
    <circle cx="671.4166666666667" cy="301.8611111111111" r="7.339745962155611"/>
    <circle cx="672.2592592592594" cy="305.41975308641975" r="6.603073792140915"/>
    <circle cx="673.1203703703704" cy="308.7993827160494" r="6.151922469877917"/>
    <circle cx="674.0" cy="312.0" r="6"/>
    <circle cx="675.3368055555555" cy="316.63888888888886" r="6.340741737109317"/>
    <circle cx="676.6805555555555" cy="321.22222222222223" r="7.339745962155613"/>
    <circle cx="678.03125" cy="325.75" r="8.928932188134524"/>
    <circle cx="679.3888888888889" cy="330.2222222222223" r="11.0"/>
    <circle cx="680.7534722222222" cy="334.6388888888888" r="13.411809548974793"/>
    <circle cx="682.125" cy="339.0" r="15.999999999999998"/>
    <circle cx="683.5034722222222" cy="343.30555555555554" r="18.588190451025206"/>
    <circle cx="684.8888888888889" cy="347.55555555555554" r="21.0"/>
    <circle cx="686.28125" cy="351.75" r="23.071067811865476"/>
    <circle cx="687.6805555555557" cy="355.8888888888889" r="24.66025403784439"/>
    <circle cx="689.0868055555555" cy="359.97222222222223" r="25.65925826289068"/>
    <circle cx="690.5" cy="364.0" r="26"/>
    <circle cx="691.2048611111112" cy="366.10503472222223" r="25.927281321677388"/>
    <circle cx="691.9027777777777" cy="368.42013888888886" r="25.710369523457082"/>
    <circle cx="692.59375" cy="370.9453125" r="25.35297602634594"/>
    <circle cx="693.2777777777778" cy="373.6805555555556" r="24.861215932167728"/>
    <circle cx="693.954861111111" cy="376.62586805555554" r="24.2435033924755"/>
    <circle cx="694.625" cy="379.78125" r="23.510407640085653"/>
    <circle cx="695.2881944444443" cy="383.14670138888886" r="22.674472146574125"/>
    <circle cx="695.9444444444446" cy="386.7222222222223" r="21.75"/>
    <circle cx="696.59375" cy="390.5078125" r="20.752809175103263"/>
    <circle cx="697.2361111111111" cy="394.5034722222222" r="19.699961883371426"/>
    <circle cx="697.8715277777779" cy="398.7092013888889" r="18.60947263387044"/>
    <circle cx="698.5" cy="403.125" r="17.5"/>
    <circle cx="699.1215277777778" cy="407.75086805555554" r="16.39052736612956"/>
    <circle cx="699.7361111111112" cy="412.58680555555554" r="15.300038116628574"/>
    <circle cx="700.34375" cy="417.6328125" r="14.247190824896737"/>
    <circle cx="700.9444444444445" cy="422.8888888888889" r="13.250000000000002"/>
    <circle cx="701.5381944444443" cy="428.35503472222223" r="12.325527853425875"/>
    <circle cx="702.125" cy="434.03125" r="11.489592359914347"/>
    <circle cx="702.7048611111111" cy="439.9175347222222" r="10.756496607524504"/>
    <circle cx="703.2777777777778" cy="446.0138888888889" r="10.13878406783227"/>
    <circle cx="703.84375" cy="452.3203125" r="9.647023973654061"/>
    <circle cx="704.4027777777778" cy="458.83680555555554" r="9.289630476542921"/>
    <circle cx="704.9548611111111" cy="465.5633680555556" r="9.072718678322612"/>
    <circle cx="705.5" cy="472.5" r="9"/>
    <circle cx="706.089876033058" cy="480.0413223140497" r="8.989821441880933"/>
    <circle cx="706.6776859504132" cy="487.30165289256195" r="8.959492973614497"/>
    <circle cx="707.2634297520661" cy="494.28099173553716" r="8.909631995354518"/>
    <circle cx="707.8471074380163" cy="500.97933884297515" r="8.841253532831182"/>
    <circle cx="708.4287190082644" cy="507.39669421487605" r="8.755749574354258"/>
    <circle cx="709.0082644628098" cy="513.5330578512397" r="8.654860733945284"/>
    <circle cx="709.585743801653" cy="519.3884297520661" r="8.540640817455598"/>
    <circle cx="710.1611570247934" cy="524.9628099173553" r="8.415415013001887"/>
    <circle cx="710.7345041322313" cy="530.2561983471074" r="8.28173255684143"/>
    <circle cx="711.3057851239669" cy="535.2685950413222" r="8.142314838273286"/>
    <circle cx="711.875" cy="540.0" r="8.0"/>
    <circle cx="712.4421487603306" cy="544.4504132231405" r="7.857685161726715"/>
    <circle cx="713.0072314049587" cy="548.6198347107438" r="7.71826744315857"/>
    <circle cx="713.5702479338843" cy="552.5082644628098" r="7.584584986998114"/>
    <circle cx="714.1311983471076" cy="556.1157024793389" r="7.459359182544403"/>
    <circle cx="714.6900826446281" cy="559.4421487603306" r="7.345139266054715"/>
    <circle cx="715.2469008264462" cy="562.4876033057851" r="7.244250425645742"/>
    <circle cx="715.8016528925621" cy="565.2520661157025" r="7.158746467168818"/>
    <circle cx="716.3543388429753" cy="567.7355371900826" r="7.090368004645482"/>
    <circle cx="716.904958677686" cy="569.9380165289256" r="7.0405070263855025"/>
    <circle cx="717.4535123966942" cy="571.8595041322313" r="7.010178558119067"/>
    <circle cx="718.0" cy="573.5" r="7"/>
    <circle cx="719.3271604938271" cy="577.2592592592592" r="7.331690585677504"/>
    <circle cx="720.641975308642" cy="581.2037037037037" r="8.28675556284562"/>
    <circle cx="721.9444444444446" cy="585.3333333333334" r="9.75"/>
    <circle cx="723.2345679012345" cy="589.6481481481482" r="11.544935022831883"/>
    <circle cx="724.5123456790124" cy="594.1481481481482" r="13.455064977168117"/>
    <circle cx="725.7777777777778" cy="598.8333333333333" r="15.249999999999998"/>
    <circle cx="727.030864197531" cy="603.7037037037037" r="16.71324443715438"/>
    <circle cx="728.2716049382716" cy="608.7592592592594" r="17.668309414322497"/>
    <circle cx="729.5" cy="614.0" r="18"/>
    <circle cx="731.3888888888889" cy="621.3333333333333" r="18.870834875401147"/>
    <circle cx="733.3888888888889" cy="627.3333333333335" r="21.25"/>
    <circle cx="735.5" cy="632.0" r="24.5"/>
    <circle cx="737.7222222222223" cy="635.3333333333334" r="27.75"/>
    <circle cx="740.0555555555557" cy="637.3333333333334" r="30.129165124598853"/>
    <circle cx="742.5" cy="638.0" r="31"/>
    <circle cx="744.591836734694" cy="637.3775510204083" r="30.504844339512097"/>
    <circle cx="746.5816326530612" cy="635.5102040816327" r="29.11744900929367"/>
    <circle cx="748.4693877551019" cy="632.3979591836734" r="27.11260466978157"/>
    <circle cx="750.2551020408164" cy="628.0408163265306" r="24.88739533021843"/>
    <circle cx="751.9387755102041" cy="622.4387755102041" r="22.882550990706335"/>
    <circle cx="753.5204081632653" cy="615.591836734694" r="21.495155660487903"/>
    <circle cx="755.0" cy="607.5" r="21"/>
    <circle cx="755.3571428571429" cy="605.2372448979593" r="20.95284157419932"/>
    <circle cx="755.7142857142858" cy="602.8061224489796" r="20.81195934136368"/>
    <circle cx="756.0714285714287" cy="600.2066326530612" r="20.579124977312755"/>
    <circle cx="756.4285714285714" cy="597.4387755102042" r="20.257266509268142"/>
    <circle cx="756.7857142857142" cy="594.5025510204082" r="19.85043149421213"/>
    <circle cx="757.1428571428571" cy="591.3979591836735" r="19.363736118510225"/>
    <circle cx="757.5" cy="588.125" r="18.803300858899107"/>
    <circle cx="757.8571428571429" cy="584.6836734693877" r="18.1761735139405"/>
    <circle cx="758.2142857142859" cy="581.0739795918367" r="17.490240573865023"/>
    <circle cx="758.5714285714286" cy="577.2959183673468" r="16.754128043381687"/>
    <circle cx="758.9285714285716" cy="573.3494897959184" r="15.977092964663754"/>
    <circle cx="759.2857142857142" cy="569.234693877551" r="15.16890700467236"/>
    <circle cx="759.6428571428571" cy="564.9515306122449" r="14.33973357077481"/>
    <circle cx="760.0" cy="560.5" r="13.5"/>
    <circle cx="760.3571428571429" cy="555.8801020408164" r="12.66026642922519"/>
    <circle cx="760.7142857142858" cy="551.0918367346939" r="11.831092995327642"/>
    <circle cx="761.0714285714286" cy="546.1352040816328" r="11.02290703533625"/>
    <circle cx="761.4285714285714" cy="541.0102040816327" r="10.245871956618315"/>
    <circle cx="761.7857142857142" cy="535.7168367346939" r="9.509759426134977"/>
    <circle cx="762.1428571428571" cy="530.2551020408163" r="8.823826486059499"/>
    <circle cx="762.5" cy="524.625" r="8.196699141100893"/>
    <circle cx="762.8571428571429" cy="518.8265306122449" r="7.636263881489777"/>
    <circle cx="763.2142857142857" cy="512.8596938775511" r="7.149568505787869"/>
    <circle cx="763.5714285714287" cy="506.7244897959183" r="6.742733490731858"/>
    <circle cx="763.9285714285713" cy="500.42091836734687" r="6.420875022687243"/>
    <circle cx="764.2857142857142" cy="493.94897959183675" r="6.188040658636323"/>
    <circle cx="764.6428571428572" cy="487.30867346938777" r="6.04715842580068"/>
    <circle cx="765.0" cy="480.5" r="6"/>
    <circle cx="765.3905325443786" cy="473.18491124260356" r="6.113012451480164"/>
    <circle cx="765.792899408284" cy="466.0857988165681" r="6.450401829896194"/>
    <circle cx="766.207100591716" cy="459.20266272189343" r="7.00724823837607"/>
    <circle cx="766.6331360946746" cy="452.53550295857985" r="7.775431602375246"/>
    <circle cx="767.0710059171599" cy="446.08431952662727" r="8.743750078648326"/>
    <circle cx="767.5207100591716" cy="439.8491124260355" r="9.898083403347933"/>
    <circle cx="767.9822485207102" cy="433.82988165680484" r="11.221598797267673"/>
    <circle cx="768.4556213017751" cy="428.0266272189349" r="12.694996425667085"/>
    <circle cx="768.9408284023668" cy="422.43934911242604" r="14.296790833321587"/>
    <circle cx="769.4378698224853" cy="417.06804733727813" r="16.003624250840698"/>
    <circle cx="769.9467455621301" cy="411.9127218934911" r="17.790607203542855"/>
    <circle cx="770.4674556213017" cy="406.9733727810651" r="19.631681456042493"/>
    <circle cx="771.0" cy="402.25" r="21.5"/>
    <circle cx="771.5443786982248" cy="397.7426035502959" r="23.368318543957507"/>
    <circle cx="772.1005917159763" cy="393.45118343195264" r="25.20939279645714"/>
    <circle cx="772.6686390532543" cy="389.3757396449704" r="26.996375749159302"/>
    <circle cx="773.2485207100592" cy="385.51627218934914" r="28.703209166678413"/>
    <circle cx="773.8402366863905" cy="381.87278106508876" r="30.305003574332915"/>
    <circle cx="774.4437869822485" cy="378.4452662721893" r="31.778401202732326"/>
    <circle cx="775.0591715976332" cy="375.23372781065086" r="33.10191659665207"/>
    <circle cx="775.6863905325445" cy="372.2381656804734" r="34.256249921351674"/>
    <circle cx="776.3254437869823" cy="369.4585798816568" r="35.22456839762475"/>
    <circle cx="776.9763313609467" cy="366.89497041420117" r="35.99275176162393"/>
    <circle cx="777.639053254438" cy="364.5473372781065" r="36.549598170103806"/>
    <circle cx="778.3136094674555" cy="362.41568047337273" r="36.88698754851983"/>
    <circle cx="779.0" cy="360.5" r="37"/>
    <circle cx="779.7176" cy="358.508" r="36.9093190651165"/>
    <circle cx="780.4304" cy="356.29200000000003" r="36.638706352979256"/>
    <circle cx="781.1384" cy="353.852" r="36.19242958771489"/>
    <circle cx="781.8416" cy="351.188" r="35.57752682050443"/>
    <circle cx="782.5400000000002" cy="348.30000000000007" r="34.803695435311894"/>
    <circle cx="783.2336" cy="345.188" r="33.88313921534623"/>
    <circle cx="783.9224" cy="341.852" r="32.830375882109934"/>
    <circle cx="784.6063999999999" cy="338.2919999999999" r="31.66200814225846"/>
    <circle cx="785.2855999999999" cy="334.508" r="30.396461852998335"/>
    <circle cx="785.96" cy="330.5" r="29.053695435311894"/>
    <circle cx="786.6296" cy="326.26800000000003" r="27.654885117735834"/>
    <circle cx="787.2944" cy="321.812" r="26.222090974587104"/>
    <circle cx="787.9544" cy="317.132" r="24.777909025412896"/>
    <circle cx="788.6096" cy="312.228" r="23.345114882264163"/>
    <circle cx="789.26" cy="307.1" r="21.946304564688106"/>
    <circle cx="789.9056" cy="301.748" r="20.603538147001665"/>
    <circle cx="790.5464" cy="296.17199999999997" r="19.337991857741535"/>
    <circle cx="791.1823999999999" cy="290.372" r="18.169624117890066"/>
    <circle cx="791.8136" cy="284.348" r="17.11686078465377"/>
    <circle cx="792.44" cy="278.1" r="16.196304564688106"/>
    <circle cx="793.0616" cy="271.628" r="15.422473179495569"/>
    <circle cx="793.6784" cy="264.932" r="14.80757041228511"/>
    <circle cx="794.2904" cy="258.01199999999994" r="14.361293647020744"/>
    <circle cx="794.8976" cy="250.868" r="14.090680934883505"/>
    <circle cx="795.5" cy="243.5" r="14"/>
    <circle cx="796.24875" cy="234.38375" r="14.049246637619449"/>
    <circle cx="796.995" cy="225.735" r="14.195773934819385"/>
    <circle cx="797.73875" cy="217.55374999999998" r="14.435973903246529"/>
    <circle cx="798.4800000000001" cy="209.84000000000003" r="14.76393202250021"/>
    <circle cx="799.21875" cy="202.59375" r="15.17157287525381"/>
    <circle cx="799.9549999999999" cy="195.815" r="15.648858990830107"/>
    <circle cx="800.68875" cy="189.50375000000003" r="16.184038001041813"/>
    <circle cx="801.42" cy="183.66" r="16.76393202250021"/>
    <circle cx="802.1487500000001" cy="178.28375000000003" r="17.374262139839075"/>
    <circle cx="802.875" cy="173.375" r="18.0"/>
    <circle cx="803.5987500000001" cy="168.93375" r="18.625737860160925"/>
    <circle cx="804.3199999999999" cy="164.96" r="19.23606797749979"/>
    <circle cx="805.0387499999999" cy="161.45375" r="19.815961998958187"/>
    <circle cx="805.755" cy="158.41500000000002" r="20.351141009169893"/>
    <circle cx="806.46875" cy="155.84375" r="20.82842712474619"/>
    <circle cx="807.1800000000001" cy="153.74" r="21.23606797749979"/>
    <circle cx="807.88875" cy="152.10375" r="21.564026096753473"/>
    <circle cx="808.595" cy="150.935" r="21.804226065180615"/>
    <circle cx="809.29875" cy="150.23375000000001" r="21.950753362380553"/>
    <circle cx="810.0" cy="150.0" r="22"/>
    <circle cx="811.2892561983471" cy="150.41322314049586" r="22.081014052771007"/>
    <circle cx="812.6115702479339" cy="151.65289256198346" r="22.317492934337636"/>
    <circle cx="813.9669421487603" cy="153.71900826446281" r="22.69027853210943"/>
    <circle cx="815.3553719008264" cy="156.61157024793388" r="23.169169973996226"/>
    <circle cx="816.7768595041322" cy="160.33057851239667" r="23.715370323453428"/>
    <circle cx="818.2314049586777" cy="164.87603305785123" r="24.28462967654657"/>
    <circle cx="819.7190082644628" cy="170.24793388429754" r="24.830830026003774"/>
    <circle cx="821.2396694214875" cy="176.44628099173553" r="25.30972146789057"/>
    <circle cx="822.793388429752" cy="183.4710743801653" r="25.682507065662364"/>
    <circle cx="824.3801652892562" cy="191.32231404958677" r="25.918985947228993"/>
    <circle cx="826.0" cy="200.0" r="26"/>
    <circle cx="826.6878698224853" cy="203.87204142011836" r="25.94167099278443"/>
    <circle cx="827.3668639053257" cy="207.7958579881657" r="25.767534539408416"/>
    <circle cx="828.0369822485206" cy="211.77144970414201" r="25.48012994148332"/>
    <circle cx="828.698224852071" cy="215.79881656804736" r="25.08364820522568"/>
    <circle cx="829.3505917159764" cy="219.8779585798817" r="24.58387092714925"/>
    <circle cx="829.9940828402366" cy="224.00887573964494" r="23.98808598536881"/>
    <circle cx="830.6286982248522" cy="228.1915680473373" r="23.30498126592636"/>
    <circle cx="831.2544378698224" cy="232.42603550295857" r="22.544517973849246"/>
    <circle cx="831.8713017751479" cy="236.71227810650885" r="21.71778537635015"/>
    <circle cx="832.4792899408285" cy="241.0502958579882" r="20.836839096340285"/>
    <circle cx="833.0784023668639" cy="245.4400887573964" r="19.914525314300462"/>
    <circle cx="833.6686390532545" cy="249.88165680473372" r="18.964293442042585"/>
    <circle cx="834.25" cy="254.375" r="18.0"/>
    <circle cx="834.8224852071006" cy="258.92011834319527" r="17.03570655795742"/>
    <circle cx="835.3860946745563" cy="263.51701183431953" r="16.085474685699538"/>
    <circle cx="835.9408284023668" cy="268.1656804733728" r="15.163160903659715"/>
    <circle cx="836.4866863905324" cy="272.86612426035504" r="14.282214623649852"/>
    <circle cx="837.0236686390532" cy="277.6183431952662" r="13.455482026150754"/>
    <circle cx="837.551775147929" cy="282.4223372781065" r="12.695018734073638"/>
    <circle cx="838.0710059171597" cy="287.27810650887574" r="12.011914014631191"/>
    <circle cx="838.5813609467456" cy="292.18565088757396" r="11.41612907285075"/>
    <circle cx="839.0828402366865" cy="297.14497041420117" r="10.916351794774322"/>
    <circle cx="839.5754437869822" cy="302.1560650887574" r="10.519870058516682"/>
    <circle cx="840.0591715976332" cy="307.2189349112426" r="10.232465460591584"/>
    <circle cx="840.534023668639" cy="312.3335798816568" r="10.058329007215569"/>
    <circle cx="841.0" cy="317.5" r="10"/>
    <circle cx="841.3759765625" cy="321.72900390625" r="10.06259855326144"/>
    <circle cx="841.75390625" cy="325.978515625" r="10.249791354758004"/>
    <circle cx="842.1337890625" cy="330.24853515625" r="10.559775635481286"/>
    <circle cx="842.515625" cy="334.5390625" r="10.989566077353272"/>
    <circle cx="842.8994140625" cy="338.85009765625" r="11.535023563471384"/>
    <circle cx="843.28515625" cy="343.181640625" r="12.190895040066913"/>
    <circle cx="843.6728515625" cy="347.53369140625" r="12.950864106284419"/>
    <circle cx="844.0625" cy="351.90625" r="13.807611844574883"/>
    <circle cx="844.4541015625" cy="356.29931640625" r="14.752887305872608"/>
    <circle cx="844.84765625" cy="360.712890625" r="15.777586970745169"/>
    <circle cx="845.2431640625" cy="365.14697265625" r="16.87184242126203"/>
    <circle cx="845.640625" cy="369.6015625" r="18.025115379253833"/>
    <circle cx="846.0400390625" cy="374.07666015625" r="19.22629919569199"/>
    <circle cx="846.44140625" cy="378.572265625" r="20.463825813790333"/>
    <circle cx="846.8447265625" cy="383.08837890625" r="21.72577717571571"/>
    <circle cx="847.25" cy="387.625" r="23.0"/>
    <circle cx="847.6572265625" cy="392.18212890625" r="24.274222824284287"/>
    <circle cx="848.06640625" cy="396.759765625" r="25.536174186209667"/>
    <circle cx="848.4775390625" cy="401.35791015625" r="26.773700804308007"/>
    <circle cx="848.890625" cy="405.9765625" r="27.974884620746167"/>
    <circle cx="849.3056640625" cy="410.61572265625" r="29.12815757873797"/>
    <circle cx="849.72265625" cy="415.275390625" r="30.222413029254824"/>
    <circle cx="850.1416015625" cy="419.95556640625" r="31.247112694127388"/>
    <circle cx="850.5625" cy="424.65625" r="32.19238815542512"/>
    <circle cx="850.9853515625" cy="429.37744140625" r="33.04913589371558"/>
    <circle cx="851.41015625" cy="434.119140625" r="33.809104959933094"/>
    <circle cx="851.8369140625" cy="438.88134765625" r="34.464976436528616"/>
    <circle cx="852.265625" cy="443.6640625" r="35.010433922646726"/>
    <circle cx="852.6962890625" cy="448.46728515625" r="35.44022436451871"/>
    <circle cx="853.12890625" cy="453.291015625" r="35.750208645242"/>
    <circle cx="853.5634765625" cy="458.13525390625" r="35.93740144673856"/>
    <circle cx="854.0" cy="463.0" r="36"/>
    <circle cx="854.4265381083565" cy="467.7217630853995" r="36.00452807742692"/>
    <circle cx="854.8576675849405" cy="472.43250688705234" r="36.01807130273729"/>
    <circle cx="855.2933884297519" cy="477.1322314049587" r="36.040507026385505"/>
    <circle cx="855.7337006427915" cy="481.82093663911843" r="36.07163206698393"/>
    <circle cx="856.1786042240589" cy="486.49862258953175" r="36.11116455134508"/>
    <circle cx="856.6280991735537" cy="491.16528925619826" r="36.15874646716882"/>
    <circle cx="857.0821854912765" cy="495.8209366391184" r="36.21394690525721"/>
    <circle cx="857.5408631772268" cy="500.465564738292" r="36.27626596189493"/>
    <circle cx="858.0041322314048" cy="505.09917355371897" r="36.345139266054716"/>
    <circle cx="858.4719926538108" cy="509.72176308539946" r="36.4199430904288"/>
    <circle cx="858.9444444444446" cy="514.3333333333334" r="36.5"/>
    <circle cx="859.4214876033058" cy="518.9338842975206" r="36.58458498699812"/>
    <circle cx="859.9031221303949" cy="523.5234159779615" r="36.67293203668258"/>
    <circle cx="860.3893480257116" cy="528.1019283746557" r="36.76424106449057"/>
    <circle cx="860.8801652892561" cy="532.6694214876032" r="36.857685161726714"/>
    <circle cx="861.3755739210284" cy="537.2258953168044" r="36.95241808417626"/>
    <circle cx="861.8755739210285" cy="541.771349862259" r="37.04758191582374"/>
    <circle cx="862.3801652892562" cy="546.3057851239669" r="37.142314838273286"/>
    <circle cx="862.8893480257118" cy="550.8292011019284" r="37.23575893550943"/>
    <circle cx="863.4031221303949" cy="555.3415977961432" r="37.32706796331742"/>
    <circle cx="863.9214876033058" cy="559.8429752066116" r="37.41541501300188"/>
    <circle cx="864.4444444444445" cy="564.3333333333334" r="37.5"/>
    <circle cx="864.9719926538108" cy="568.8126721763085" r="37.5800569095712"/>
    <circle cx="865.5041322314049" cy="573.2809917355371" r="37.654860733945284"/>
    <circle cx="866.0408631772268" cy="577.7382920110192" r="37.72373403810507"/>
    <circle cx="866.5821854912764" cy="582.1845730027549" r="37.78605309474279"/>
    <circle cx="867.1280991735538" cy="586.6198347107438" r="37.84125353283118"/>
    <circle cx="867.6786042240587" cy="591.0440771349863" r="37.88883544865492"/>
    <circle cx="868.2337006427915" cy="595.4573002754821" r="37.92836793301607"/>
    <circle cx="868.7933884297521" cy="599.8595041322315" r="37.959492973614495"/>
    <circle cx="869.3576675849403" cy="604.2506887052342" r="37.98192869726271"/>
    <circle cx="869.9265381083563" cy="608.6308539944904" r="37.99547192257308"/>
    <circle cx="870.5" cy="613.0" r="38"/>
    <circle cx="871.673828125" cy="621.71875" r="37.72138656584684"/>
    <circle cx="872.8203125" cy="629.875" r="36.89625322141366"/>
    <circle cx="873.939453125" cy="637.46875" r="35.556309378386906"/>
    <circle cx="875.03125" cy="644.5" r="33.75304832720494"/>
    <circle cx="876.095703125" cy="650.96875" r="31.555768378784233"/>
    <circle cx="877.1328125" cy="656.875" r="29.0489097692938"/>
    <circle cx="878.142578125" cy="662.21875" r="26.328809669233863"/>
    <circle cx="879.125" cy="667.0" r="23.5"/>
    <circle cx="880.080078125" cy="671.21875" r="20.67119033076614"/>
    <circle cx="881.0078125" cy="674.875" r="17.9510902307062"/>
    <circle cx="881.908203125" cy="677.96875" r="15.44423162121577"/>
    <circle cx="882.78125" cy="680.5" r="13.246951672795063"/>
    <circle cx="883.626953125" cy="682.46875" r="11.443690621613094"/>
    <circle cx="884.4453125" cy="683.875" r="10.103746778586341"/>
    <circle cx="885.236328125" cy="684.71875" r="9.278613434153158"/>
    <circle cx="886.0" cy="685.0" r="9"/>
    <circle cx="886.755859375" cy="684.712890625" r="9.192147195967696"/>
    <circle cx="887.5234375" cy="683.8515625" r="9.761204674887132"/>
    <circle cx="888.302734375" cy="682.416015625" r="10.685303876974547"/>
    <circle cx="889.09375" cy="680.40625" r="11.928932188134524"/>
    <circle cx="889.896484375" cy="677.822265625" r="13.444297669803976"/>
    <circle cx="890.7109375" cy="674.6640625" r="15.173165676349102"/>
    <circle cx="891.537109375" cy="670.931640625" r="17.049096779838717"/>
    <circle cx="892.375" cy="666.625" r="19.0"/>
    <circle cx="893.224609375" cy="661.744140625" r="20.95090322016128"/>
    <circle cx="894.0859375" cy="656.2890625" r="22.826834323650896"/>
    <circle cx="894.958984375" cy="650.259765625" r="24.55570233019602"/>
    <circle cx="895.84375" cy="643.65625" r="26.071067811865476"/>
    <circle cx="896.740234375" cy="636.478515625" r="27.314696123025453"/>
    <circle cx="897.6484375" cy="628.7265625" r="28.238795325112868"/>
    <circle cx="898.568359375" cy="620.400390625" r="28.807852804032304"/>
    <circle cx="899.5" cy="611.5" r="29"/>
    <circle cx="900.0739644970414" cy="605.8883136094674" r="28.930734303931512"/>
    <circle cx="900.6420118343198" cy="600.3609467455622" r="28.723947265547494"/>
    <circle cx="901.2041420118344" cy="594.917899408284" r="28.38265430551144"/>
    <circle cx="901.7603550295859" cy="589.559171597633" r="27.911832243705494"/>
    <circle cx="902.310650887574" cy="584.2847633136096" r="27.318346725989734"/>
    <circle cx="902.8550295857988" cy="579.0946745562129" r="26.610852107625462"/>
    <circle cx="903.3934911242604" cy="573.9889053254439" r="25.799665253287557"/>
    <circle cx="903.9260355029586" cy="568.9674556213018" r="24.896615093945982"/>
    <circle cx="904.4526627218935" cy="564.030325443787" r="23.9148701344158"/>
    <circle cx="904.9733727810651" cy="559.1775147928995" r="22.86874642690409"/>
    <circle cx="905.4881656804732" cy="554.409023668639" r="21.773498810731798"/>
    <circle cx="905.9970414201184" cy="549.7248520710059" r="20.64509846242557"/>
    <circle cx="906.5" cy="545.125" r="19.5"/>
    <circle cx="906.9970414201184" cy="540.6094674556213" r="18.354901537574435"/>
    <circle cx="907.4881656804732" cy="536.1782544378698" r="17.226501189268205"/>
    <circle cx="907.9733727810651" cy="531.8313609467456" r="16.13125357309591"/>
    <circle cx="908.4526627218935" cy="527.5687869822485" r="15.085129865584198"/>
    <circle cx="908.9260355029585" cy="523.3905325443786" r="14.103384906054021"/>
    <circle cx="909.3934911242603" cy="519.2965976331361" r="13.200334746712446"/>
    <circle cx="909.8550295857988" cy="515.2869822485206" r="12.389147892374538"/>
    <circle cx="910.310650887574" cy="511.36168639053255" r="11.681653274010266"/>
    <circle cx="910.7603550295858" cy="507.5207100591716" r="11.088167756294506"/>
    <circle cx="911.2041420118343" cy="503.76405325443784" r="10.61734569448856"/>
    <circle cx="911.6420118343195" cy="500.0917159763314" r="10.276052734452506"/>
    <circle cx="912.0739644970414" cy="496.50369822485203" r="10.069265696068488"/>
    <circle cx="912.5" cy="493.0" r="10"/>
    <circle cx="913.19921875" cy="487.443359375" r="10.009607359798384"/>
    <circle cx="913.921875" cy="482.0234375" r="10.038060233744357"/>
    <circle cx="914.66796875" cy="476.740234375" r="10.084265193848728"/>
    <circle cx="915.4375" cy="471.59375" r="10.146446609406727"/>
    <circle cx="916.23046875" cy="466.583984375" r="10.2222148834902"/>
    <circle cx="917.046875" cy="461.7109375" r="10.308658283817454"/>
    <circle cx="917.88671875" cy="456.974609375" r="10.402454838991936"/>
    <circle cx="918.75" cy="452.375" r="10.5"/>
    <circle cx="919.63671875" cy="447.912109375" r="10.597545161008064"/>
    <circle cx="920.546875" cy="443.5859375" r="10.691341716182546"/>
    <circle cx="921.48046875" cy="439.396484375" r="10.7777851165098"/>
    <circle cx="922.4375" cy="435.34375" r="10.853553390593273"/>
    <circle cx="923.41796875" cy="431.427734375" r="10.915734806151272"/>
    <circle cx="924.421875" cy="427.6484375" r="10.961939766255643"/>
    <circle cx="925.44921875" cy="424.005859375" r="10.990392640201616"/>
    <circle cx="926.5" cy="420.5" r="11"/>
    <circle cx="927.1545857988166" cy="418.2906804733728" r="11.03645562950973"/>
    <circle cx="927.8106508875741" cy="415.8934911242604" r="11.14529091286974"/>
    <circle cx="928.4681952662722" cy="413.3084319526627" r="11.324918786572926"/>
    <circle cx="929.1272189349113" cy="410.5355029585799" r="11.57271987173395"/>
    <circle cx="929.787721893491" cy="407.57470414201185" r="11.885080670531718"/>
    <circle cx="930.4497041420117" cy="404.4260355029585" r="12.257446259144494"/>
    <circle cx="931.1131656804736" cy="401.0894970414202" r="12.684386708796023"/>
    <circle cx="931.7781065088758" cy="397.5650887573965" r="13.15967626634422"/>
    <circle cx="932.4445266272189" cy="393.8528106508876" r="13.676384139781156"/>
    <circle cx="933.1124260355032" cy="389.95266272189355" r="14.226975564787322"/>
    <circle cx="933.7818047337277" cy="385.86464497041413" r="14.803421678562211"/>
    <circle cx="934.4526627218935" cy="381.5887573964497" r="15.397316598723386"/>
    <circle cx="935.125" cy="377.125" r="16.0"/>
    <circle cx="935.7988165680473" cy="372.4733727810651" r="16.602683401276614"/>
    <circle cx="936.4741124260355" cy="367.63387573964496" r="17.196578321437787"/>
    <circle cx="937.1508875739646" cy="362.6065088757397" r="17.773024435212676"/>
    <circle cx="937.8291420118344" cy="357.39127218934914" r="18.323615860218844"/>
    <circle cx="938.508875739645" cy="351.98816568047334" r="18.84032373365578"/>
    <circle cx="939.1900887573963" cy="346.3971893491124" r="19.315613291203974"/>
    <circle cx="939.8727810650888" cy="340.6183431952662" r="19.742553740855506"/>
    <circle cx="940.5569526627219" cy="334.6516272189349" r="20.114919329468282"/>
    <circle cx="941.2426035502958" cy="328.49704142011836" r="20.427280128266048"/>
    <circle cx="941.9297337278106" cy="322.1545857988166" r="20.675081213427074"/>
    <circle cx="942.6183431952662" cy="315.6242603550296" r="20.85470908713026"/>
    <circle cx="943.3084319526627" cy="308.9060650887574" r="20.96354437049027"/>
    <circle cx="944.0" cy="302.0" r="21"/>
    <circle cx="944.8949999999999" cy="293.1275" r="20.987688340595138"/>
    <circle cx="945.7800000000001" cy="284.71000000000004" r="20.951056516295154"/>
    <circle cx="946.655" cy="276.74749999999995" r="20.891006524188366"/>
    <circle cx="947.5200000000001" cy="269.24000000000007" r="20.809016994374947"/>
    <circle cx="948.375" cy="262.1875" r="20.707106781186546"/>
    <circle cx="949.2199999999999" cy="255.58999999999997" r="20.587785252292473"/>
    <circle cx="950.055" cy="249.44750000000002" r="20.453990499739547"/>
    <circle cx="950.88" cy="243.76" r="20.309016994374947"/>
    <circle cx="951.695" cy="238.52750000000003" r="20.15643446504023"/>
    <circle cx="952.5" cy="233.75" r="20.0"/>
    <circle cx="953.2950000000001" cy="229.42749999999998" r="19.84356553495977"/>
    <circle cx="954.0799999999999" cy="225.56" r="19.690983005625053"/>
    <circle cx="954.8549999999999" cy="222.1475" r="19.546009500260453"/>
    <circle cx="955.62" cy="219.19" r="19.412214747707527"/>
    <circle cx="956.375" cy="216.6875" r="19.292893218813454"/>
    <circle cx="957.1200000000001" cy="214.64000000000001" r="19.190983005625053"/>
    <circle cx="957.8549999999999" cy="213.04749999999999" r="19.108993475811634"/>
    <circle cx="958.5799999999999" cy="211.91000000000003" r="19.048943483704846"/>
    <circle cx="959.2950000000001" cy="211.2275" r="19.012311659404862"/>
    <circle cx="960.0" cy="211.0" r="19"/>
    <circle cx="960.7368421052632" cy="211.2368421052632" r="19.06137413468775"/>
    <circle cx="961.4736842105264" cy="211.94736842105266" r="19.243822412347143"/>
    <circle cx="962.2105263157893" cy="213.13157894736838" r="19.5423681195708"/>
    <circle cx="962.9473684210526" cy="214.78947368421052" r="19.94886770771623"/>
    <circle cx="963.6842105263158" cy="216.921052631579" r="20.452232927684165"/>
    <circle cx="964.421052631579" cy="219.5263157894737" r="21.03873328844908"/>
    <circle cx="965.157894736842" cy="222.60526315789468" r="21.692370589061635"/>
    <circle cx="965.8947368421053" cy="226.15789473684208" r="22.395315307866404"/>
    <circle cx="966.6315789473686" cy="230.18421052631578" r="23.128392945374504"/>
    <circle cx="967.3684210526317" cy="234.68421052631578" r="23.871607054625496"/>
    <circle cx="968.1052631578948" cy="239.6578947368421" r="24.604684692133596"/>
    <circle cx="968.8421052631579" cy="245.10526315789474" r="25.30762941093836"/>
    <circle cx="969.578947368421" cy="251.0263157894737" r="25.96126671155092"/>
    <circle cx="970.3157894736842" cy="257.42105263157896" r="26.547767072315835"/>
    <circle cx="971.0526315789473" cy="264.2894736842105" r="27.05113229228377"/>
    <circle cx="971.7894736842105" cy="271.6315789473684" r="27.4576318804292"/>
    <circle cx="972.5263157894736" cy="279.4473684210526" r="27.756177587652857"/>
    <circle cx="973.2631578947368" cy="287.7368421052631" r="27.93862586531225"/>
    <circle cx="974.0" cy="296.5" r="28"/>
    <circle cx="974.3576594345825" cy="300.8902038132807" r="27.99675730813421"/>
    <circle cx="974.7126890203813" cy="305.2915844838922" r="27.98705026263791"/>
    <circle cx="975.0650887573967" cy="309.70414201183434" r="27.970941817426052"/>
    <circle cx="975.414858645628" cy="314.1278763971072" r="27.948536441947144"/>
    <circle cx="975.7619986850756" cy="318.56278763971073" r="27.919979443658825"/>
    <circle cx="976.1065088757397" cy="323.00887573964496" r="27.88545602565321"/>
    <circle cx="976.4483892176198" cy="327.4661406969099" r="27.845190085543795"/>
    <circle cx="976.7876397107168" cy="331.9345825115056" r="27.7994427634035"/>
    <circle cx="977.1242603550295" cy="336.41420118343194" r="27.7485107481711"/>
    <circle cx="977.4582511505588" cy="340.904996712689" r="27.6927243535096"/>
    <circle cx="977.7896120973044" cy="345.4069690992768" r="27.632445375595378"/>
    <circle cx="978.1183431952662" cy="349.9201183431952" r="27.568064746731157"/>
    <circle cx="978.4444444444446" cy="354.44444444444446" r="27.5"/>
    <circle cx="978.7679158448389" cy="358.97994740302425" r="27.428692561403054"/>
    <circle cx="979.0887573964498" cy="363.5266272189349" r="27.354604887042534"/>
    <circle cx="979.4069690992768" cy="368.0844838921762" r="27.27821746391645"/>
    <circle cx="979.7225509533201" cy="372.65351742274817" r="27.200025693776045"/>
    <circle cx="980.0355029585799" cy="377.23372781065086" r="27.120536680255324"/>
    <circle cx="980.3458251150557" cy="381.8251150558842" r="27.040265940109414"/>
    <circle cx="980.6535174227481" cy="386.42767915844837" r="26.959734059890586"/>
    <circle cx="980.9585798816568" cy="391.04142011834324" r="26.879463319744676"/>
    <circle cx="981.2610124917817" cy="395.66633793556866" r="26.799974306223955"/>
    <circle cx="981.560815253123" cy="400.3024326101249" r="26.72178253608355"/>
    <circle cx="981.8579881656804" cy="404.9497041420118" r="26.645395112957466"/>
    <circle cx="982.1525312294543" cy="409.6081525312295" r="26.571307438596946"/>
    <circle cx="982.4444444444445" cy="414.2777777777778" r="26.5"/>
    <circle cx="982.7337278106509" cy="418.95857988165676" r="26.431935253268843"/>
    <circle cx="983.0203813280737" cy="423.65055884286653" r="26.367554624404622"/>
    <circle cx="983.3044049967127" cy="428.353714661407" r="26.3072756464904"/>
    <circle cx="983.585798816568" cy="433.06804733727813" r="26.2514892518289"/>
    <circle cx="983.8645627876397" cy="437.79355687047996" r="26.2005572365965"/>
    <circle cx="984.1406969099277" cy="442.53024326101246" r="26.154809914456205"/>
    <circle cx="984.4142011834319" cy="447.27810650887574" r="26.11454397434679"/>
    <circle cx="984.6850756081525" cy="452.0371466140697" r="26.080020556341175"/>
    <circle cx="984.9533201840893" cy="456.80736357659435" r="26.051463558052856"/>
    <circle cx="985.2189349112426" cy="461.58875739644975" r="26.029058182573948"/>
    <circle cx="985.4819197896121" cy="466.38132807363576" r="26.01294973736209"/>
    <circle cx="985.742274819198" cy="471.18507560815254" r="26.00324269186579"/>
    <circle cx="986.0" cy="476.0" r="26"/>
    <circle cx="986.2962802768164" cy="481.5004325259515" r="25.987202528885103"/>
    <circle cx="986.5968858131489" cy="486.9429065743945" r="25.948919299051706"/>
    <circle cx="986.9018166089965" cy="492.32742214532874" r="25.885476929518457"/>
    <circle cx="987.2110726643598" cy="497.6539792387543" r="25.79741668821307"/>
    <circle cx="987.5246539792387" cy="502.9225778546713" r="25.685489874065187"/>
    <circle cx="987.8425605536331" cy="508.13321799307954" r="25.55065140718884"/>
    <circle cx="988.1647923875433" cy="513.2858996539792" r="25.39405168184072"/>
    <circle cx="988.4913494809688" cy="518.3806228373702" r="25.217026751661976"/>
    <circle cx="988.8222318339103" cy="523.4173875432527" r="25.02108693093967"/>
    <circle cx="989.1574394463667" cy="528.3961937716263" r="24.80790390913777"/>
    <circle cx="989.4969723183392" cy="533.3170415224914" r="24.579296488632068"/>
    <circle cx="989.840830449827" cy="538.1799307958477" r="24.337215067329616"/>
    <circle cx="990.1890138408305" cy="542.9848615916954" r="24.083724998561458"/>
    <circle cx="990.5415224913495" cy="547.7318339100345" r="23.82098897021625"/>
    <circle cx="990.8983564013841" cy="552.420847750865" r="23.55124855344971"/>
    <circle cx="991.2595155709342" cy="557.0519031141869" r="23.276805078389906"/>
    <circle cx="991.625" cy="561.625" r="23.0"/>
    <circle cx="991.9948096885814" cy="566.1401384083044" r="22.723194921610094"/>
    <circle cx="992.3689446366782" cy="570.5973183391003" r="22.44875144655029"/>
    <circle cx="992.7474048442907" cy="574.9965397923875" r="22.17901102978375"/>
    <circle cx="993.1301903114187" cy="579.3378027681661" r="21.916275001438542"/>
    <circle cx="993.5173010380622" cy="583.621107266436" r="21.662784932670384"/>
    <circle cx="993.9087370242214" cy="587.8464532871973" r="21.420703511367932"/>
    <circle cx="994.3044982698962" cy="592.0138408304499" r="21.19209609086223"/>
    <circle cx="994.7045847750867" cy="596.1232698961938" r="20.978913069060326"/>
    <circle cx="995.1089965397925" cy="600.1747404844291" r="20.782973248338024"/>
    <circle cx="995.5177335640138" cy="604.1682525951558" r="20.60594831815928"/>
    <circle cx="995.9307958477509" cy="608.1038062283737" r="20.44934859281116"/>
    <circle cx="996.3481833910035" cy="611.9814013840831" r="20.314510125934813"/>
    <circle cx="996.7698961937716" cy="615.8010380622837" r="20.20258331178693"/>
    <circle cx="997.1959342560552" cy="619.5627162629758" r="20.114523070481543"/>
    <circle cx="997.6262975778546" cy="623.2664359861592" r="20.051080700948294"/>
    <circle cx="998.0609861591695" cy="626.9121972318339" r="20.012797471114897"/>
    <circle cx="998.5" cy="630.5" r="20"/>
    <circle cx="999.1151261630116" cy="635.4620177149602" r="19.686386214070264"/>
    <circle cx="999.7302523260232" cy="640.4240354299203" r="18.76625087874951"/>
    <circle cx="1000.3453784890348" cy="645.3860531448805" r="17.30034496794883"/>
    <circle cx="1000.9605046520463" cy="650.3480708598407" r="15.385453387458323"/>
    <circle cx="1001.5756308150579" cy="655.310088574801" r="13.148004852689072"/>
    <circle cx="1002.1907569780695" cy="660.272106289761" r="10.735724564864627"/>
    <circle cx="1002.8058831410812" cy="665.2341240047213" r="8.307880808993062"/>
    <circle cx="1003.4210093040928" cy="670.1961417196815" r="6.024769431795372"/>
    <circle cx="1004.0361354671044" cy="675.1581594346416" r="4.037130475945714"/>
    <circle cx="1004.6512616301159" cy="680.1201771496018" r="2.47619572628734"/>
    <circle cx="1005.2663877931275" cy="685.082194864562" r="1.4450242683843797"/>
    <circle cx="1005.8815139561391" cy="690.0442125795221" r="1.0116981201011832"/>
    <circle cx="1006" cy="691" r="1"/>
    <circle cx="180.0" cy="490.0" r="5"/>
    <circle cx="174.27050983124843" cy="507.6335575687742" r="5"/>
    <circle cx="159.27050983124843" cy="518.5316954888546" r="5"/>
    <circle cx="140.72949016875157" cy="518.5316954888547" r="5"/>
    <circle cx="125.72949016875158" cy="507.6335575687742" r="5"/>
    <circle cx="120.0" cy="490.0" r="5"/>
    <circle cx="125.72949016875157" cy="472.36644243122583" r="5"/>
    <circle cx="140.72949016875157" cy="461.4683045111454" r="5"/>
    <circle cx="159.2705098312484" cy="461.4683045111454" r="5"/>
    <circle cx="174.27050983124843" cy="472.3664424312258" r="5"/>
    <circle cx="1036.0" cy="691.0" r="5"/>
    <circle cx="1030.2705098312483" cy="708.6335575687742" r="5"/>
    <circle cx="1015.2705098312484" cy="719.5316954888546" r="5"/>
    <circle cx="996.7294901687516" cy="719.5316954888547" r="5"/>
    <circle cx="981.7294901687516" cy="708.6335575687742" r="5"/>
    <circle cx="976.0" cy="691.0" r="5"/>
    <circle cx="981.7294901687516" cy="673.3664424312258" r="5"/>
    <circle cx="996.7294901687516" cy="662.4683045111454" r="5"/>
    <circle cx="1015.2705098312484" cy="662.4683045111453" r="5"/>
    <circle cx="1030.2705098312483" cy="673.3664424312258" r="5"/>
    <circle cx="223" cy="257" r="50"/>
  </g>
</svg>
