<svg version="1.1" width="1150" height="870" xmlns="http://www.w3.org/2000/svg">
  <!-- Seed: 5754569612763677565 -->
  <g stroke="black" fill="none">
    <circle cx="150" cy="317" r="1"/>
    <circle cx="150.44465968987254" cy="321.9801885265723" r="1.0969389769759004"/>
    <circle cx="150.88931937974505" cy="326.9603770531446" r="1.3802381756978943"/>
    <circle cx="151.33397906961758" cy="331.9405655797169" r="1.8279274085642199"/>
    <circle cx="151.77863875949012" cy="336.9207541062892" r="2.405287846585127"/>
    <circle cx="152.22329844936263" cy="341.90094263286153" r="3.0675445055941326"/>
    <circle cx="152.66795813923517" cy="346.88113115943383" r="3.7633385991753876"/>
    <circle cx="153.1126178291077" cy="351.86131968600614" r="4.43871047323478"/>
    <circle cx="153.55727751898021" cy="356.84150821257845" r="5.041284240932617"/>
    <circle cx="154.00193720885275" cy="361.8216967391508" r="5.524329594594388"/>
    <circle cx="154.4465968987253" cy="366.8018852657231" r="5.850385796286542"/>
    <circle cx="154.8912565885978" cy="371.7820737922954" r="5.9941668023061325"/>
    <circle cx="155.0" cy="373.0" r="6"/>
    <circle cx="155.53739612188366" cy="378.8240997229918" r="6.197761100660526"/>
    <circle cx="156.09695290858727" cy="384.50692520775624" r="6.785649995340798"/>
    <circle cx="156.67867036011077" cy="390.04847645429356" r="7.747630607505909"/>
    <circle cx="157.28254847645428" cy="395.44875346260386" r="9.057462613752293"/>
    <circle cx="157.90858725761774" cy="400.7077562326871" r="10.679417211426754"/>
    <circle cx="158.55678670360112" cy="405.825484764543" r="12.56925170722481"/>
    <circle cx="159.22714681440442" cy="410.80193905817174" r="14.67541634253194"/>
    <circle cx="159.91966759002767" cy="415.6371191135734" r="16.940460436458412"/>
    <circle cx="160.63434903047093" cy="420.33102493074796" r="19.302599490651183"/>
    <circle cx="161.37119113573408" cy="424.88365650969536" r="21.697400509348817"/>
    <circle cx="162.13019390581718" cy="429.29501385041556" r="24.059539563541588"/>
    <circle cx="162.9113573407202" cy="433.56509695290856" r="26.324583657468057"/>
    <circle cx="163.7146814404432" cy="437.6939058171745" r="28.43074829277519"/>
    <circle cx="164.54016620498612" cy="441.68144044321326" r="30.320582788573244"/>
    <circle cx="165.38781163434902" cy="445.52770083102496" r="31.942537386247704"/>
    <circle cx="166.25761772853184" cy="449.2326869806094" r="33.25236939249409"/>
    <circle cx="167.14958448753464" cy="452.79639889196676" r="34.2143500046592"/>
    <circle cx="168.06371191135733" cy="456.2188365650969" r="34.80223889933947"/>
    <circle cx="169.0" cy="459.5" r="35"/>
    <circle cx="170.125" cy="463.3671875" r="34.750208645242"/>
    <circle cx="171.25" cy="467.34375" r="34.010433922646726"/>
    <circle cx="172.375" cy="471.4296875" r="32.80910495993309"/>
    <circle cx="173.5" cy="475.625" r="31.192388155425117"/>
    <circle cx="174.625" cy="479.9296875" r="29.22241302925483"/>
    <circle cx="175.75" cy="484.34375" r="26.974884620746167"/>
    <circle cx="176.875" cy="488.8671875" r="24.536174186209667"/>
    <circle cx="178.0" cy="493.5" r="22.0"/>
    <circle cx="179.125" cy="498.2421875" r="19.463825813790333"/>
    <circle cx="180.25" cy="503.09375" r="17.025115379253833"/>
    <circle cx="181.375" cy="508.0546875" r="14.777586970745176"/>
    <circle cx="182.5" cy="513.125" r="12.807611844574883"/>
    <circle cx="183.625" cy="518.3046875" r="11.19089504006691"/>
    <circle cx="184.75" cy="523.59375" r="9.989566077353274"/>
    <circle cx="185.875" cy="528.9921875" r="9.249791354758003"/>
    <circle cx="187.0" cy="534.5" r="9"/>
    <circle cx="188.19333333333333" cy="540.3444444444444" r="9.142040595230263"/>
    <circle cx="189.37333333333333" cy="546.0111111111112" r="9.561954525323095"/>
    <circle cx="190.54000000000005" cy="551.5000000000001" r="10.241389536562842"/>
    <circle cx="191.69333333333336" cy="556.8111111111112" r="11.150651058667421"/>
    <circle cx="192.83333333333334" cy="561.9444444444446" r="12.25"/>
    <circle cx="193.95999999999998" cy="566.9000000000001" r="13.491389536562842"/>
    <circle cx="195.07333333333332" cy="571.6777777777778" r="14.820564988760253"/>
    <circle cx="196.17333333333335" cy="576.2777777777778" r="16.179435011239747"/>
    <circle cx="197.26" cy="580.7" r="17.508610463437158"/>
    <circle cx="198.33333333333334" cy="584.9444444444446" r="18.75"/>
    <circle cx="199.39333333333332" cy="589.0111111111112" r="19.849348941332575"/>
    <circle cx="200.44000000000003" cy="592.9000000000001" r="20.758610463437158"/>
    <circle cx="201.47333333333333" cy="596.6111111111111" r="21.438045474676905"/>
    <circle cx="202.49333333333334" cy="600.1444444444445" r="21.857959404769737"/>
    <circle cx="203.5" cy="603.5" r="22"/>
    <circle cx="204.50444444444446" cy="606.8466666666668" r="22.0"/>
    <circle cx="205.5177777777778" cy="610.3533333333334" r="22.0"/>
    <circle cx="206.54000000000005" cy="614.0200000000001" r="22.0"/>
    <circle cx="207.57111111111115" cy="617.8466666666667" r="22.0"/>
    <circle cx="208.61111111111111" cy="621.8333333333335" r="22.0"/>
    <circle cx="209.66" cy="625.98" r="22.0"/>
    <circle cx="210.71777777777777" cy="630.2866666666666" r="22.0"/>
    <circle cx="211.78444444444443" cy="634.7533333333333" r="22.0"/>
    <circle cx="212.86" cy="639.38" r="22.0"/>
    <circle cx="213.94444444444446" cy="644.1666666666667" r="22.0"/>
    <circle cx="215.03777777777776" cy="649.1133333333333" r="22.0"/>
    <circle cx="216.14000000000001" cy="654.22" r="22.0"/>
    <circle cx="217.25111111111113" cy="659.4866666666667" r="22.0"/>
    <circle cx="218.37111111111113" cy="664.9133333333334" r="22.0"/>
    <circle cx="219.5" cy="670.5" r="22"/>
    <circle cx="221.35185185185185" cy="679.4197530864196" r="21.819077862357727"/>
    <circle cx="223.12962962962962" cy="687.2901234567901" r="21.298133329356933"/>
    <circle cx="224.83333333333337" cy="694.1111111111111" r="20.5"/>
    <circle cx="226.46296296296293" cy="699.8827160493827" r="19.52094453300079"/>
    <circle cx="228.01851851851853" cy="704.604938271605" r="18.47905546699921"/>
    <circle cx="229.5" cy="708.2777777777778" r="17.5"/>
    <circle cx="230.9074074074074" cy="710.9012345679012" r="16.701866670643067"/>
    <circle cx="232.24074074074076" cy="712.4753086419753" r="16.180922137642277"/>
    <circle cx="233.5" cy="713.0" r="16"/>
    <circle cx="234.62500000000003" cy="712.5650000000002" r="15.804226065180615"/>
    <circle cx="235.80000000000004" cy="711.2600000000001" r="15.23606797749979"/>
    <circle cx="237.02499999999998" cy="709.0849999999999" r="14.351141009169893"/>
    <circle cx="238.3" cy="706.0400000000001" r="13.23606797749979"/>
    <circle cx="239.625" cy="702.125" r="12.0"/>
    <circle cx="241.0" cy="697.34" r="10.76393202250021"/>
    <circle cx="242.425" cy="691.685" r="9.648858990830108"/>
    <circle cx="243.90000000000003" cy="685.1600000000001" r="8.76393202250021"/>
    <circle cx="245.425" cy="677.7650000000001" r="8.195773934819385"/>
    <circle cx="247.0" cy="669.5" r="8"/>
    <circle cx="247.61686390532543" cy="666.1028106508876" r="8.054683444264596"/>
    <circle cx="248.23668639053258" cy="662.6035502958581" r="8.21793636930461"/>
    <circle cx="248.85946745562129" cy="659.0022189349113" r="8.48737817985939"/>
    <circle cx="249.48520710059174" cy="655.2988165680473" r="8.859079807600926"/>
    <circle cx="250.1139053254438" cy="651.4933431952663" r="9.327621005797578"/>
    <circle cx="250.7455621301775" cy="647.585798816568" r="9.886169388716741"/>
    <circle cx="251.38017751479293" cy="643.5761834319527" r="10.526580063194036"/>
    <circle cx="252.01775147928996" cy="639.4644970414201" r="11.239514399516331"/>
    <circle cx="252.65828402366864" cy="635.2507396449705" r="12.014576209671736"/>
    <circle cx="253.301775147929" cy="630.9349112426036" r="12.840463347180982"/>
    <circle cx="253.94822485207095" cy="626.5170118343195" r="13.705132517843317"/>
    <circle cx="254.59763313609466" cy="621.9970414201183" r="14.595974898085078"/>
    <circle cx="255.25" cy="617.375" r="15.5"/>
    <circle cx="255.90532544378698" cy="612.6508875739645" r="16.40402510191492"/>
    <circle cx="256.5636094674556" cy="607.8247041420118" r="17.294867482156683"/>
    <circle cx="257.2248520710059" cy="602.896449704142" r="18.159536652819018"/>
    <circle cx="257.88905325443784" cy="597.866124260355" r="18.985423790328262"/>
    <circle cx="258.5562130177515" cy="592.7337278106509" r="19.76048560048367"/>
    <circle cx="259.22633136094674" cy="587.4992603550295" r="20.473419936805964"/>
    <circle cx="259.89940828402365" cy="582.1627218934912" r="21.11383061128326"/>
    <circle cx="260.57544378698225" cy="576.7241124260355" r="21.672378994202422"/>
    <circle cx="261.2544378698225" cy="571.1834319526627" r="22.140920192399072"/>
    <circle cx="261.9363905325444" cy="565.5406804733728" r="22.51262182014061"/>
    <circle cx="262.62130177514797" cy="559.7958579881657" r="22.78206363069539"/>
    <circle cx="263.3091715976331" cy="553.9489644970414" r="22.945316555735403"/>
    <circle cx="264.0" cy="548.0" r="23"/>
    <circle cx="264.6422193877551" cy="542.4630102040817" r="23.02829505548041"/>
    <circle cx="265.2831632653061" cy="536.9948979591837" r="23.112824395181793"/>
    <circle cx="265.9228316326531" cy="531.5956632653061" r="23.252525013612345"/>
    <circle cx="266.56122448979596" cy="526.265306122449" r="23.445640094439113"/>
    <circle cx="267.1983418367347" cy="521.0038265306122" r="23.68974110347272"/>
    <circle cx="267.8341836734694" cy="515.8112244897959" r="23.981758328893864"/>
    <circle cx="268.46875" cy="510.6875" r="24.318019484660535"/>
    <circle cx="269.10204081632656" cy="505.6326530612245" r="24.694295891635697"/>
    <circle cx="269.73405612244903" cy="500.6466836734694" r="25.105855655680987"/>
    <circle cx="270.3647959183673" cy="495.72959183673464" r="25.547523173970987"/>
    <circle cx="270.9942602040816" cy="490.8813775510205" r="26.013744221201748"/>
    <circle cx="271.6224489795918" cy="486.1020408163265" r="26.498655797196584"/>
    <circle cx="272.24936224489795" cy="481.391581632653" r="26.996159857535115"/>
    <circle cx="272.875" cy="476.75" r="27.5"/>
    <circle cx="273.49936224489795" cy="472.17729591836735" r="28.003840142464885"/>
    <circle cx="274.1224489795918" cy="467.6734693877551" r="28.501344202803416"/>
    <circle cx="274.7442602040817" cy="463.23852040816325" r="28.986255778798252"/>
    <circle cx="275.36479591836735" cy="458.8724489795918" r="29.452476826029013"/>
    <circle cx="275.98405612244903" cy="454.57525510204084" r="29.894144344319013"/>
    <circle cx="276.6020408163265" cy="450.34693877551024" r="30.3057041083643"/>
    <circle cx="277.21875" cy="446.1875" r="30.681980515339465"/>
    <circle cx="277.8341836734694" cy="442.0969387755102" r="31.018241671106132"/>
    <circle cx="278.4483418367347" cy="438.0752551020407" r="31.31025889652728"/>
    <circle cx="279.0612244897959" cy="434.12244897959187" r="31.554359905560887"/>
    <circle cx="279.6728316326531" cy="430.23852040816325" r="31.747474986387655"/>
    <circle cx="280.28316326530614" cy="426.42346938775506" r="31.887175604818204"/>
    <circle cx="280.8922193877551" cy="422.67729591836735" r="31.971704944519594"/>
    <circle cx="281.5" cy="419.0" r="32"/>
    <circle cx="282.6355555555556" cy="412.3555555555556" r="31.912590402935223"/>
    <circle cx="283.77555555555557" cy="406.02222222222224" r="31.654181830570405"/>
    <circle cx="284.92" cy="400.00000000000006" r="31.23606797749979"/>
    <circle cx="286.068888888889" cy="394.28888888888895" r="30.676522425435433"/>
    <circle cx="287.22222222222223" cy="388.8888888888889" r="30.0"/>
    <circle cx="288.38" cy="383.8" r="29.23606797749979"/>
    <circle cx="289.5422222222222" cy="379.0222222222222" r="28.418113853070615"/>
    <circle cx="290.70888888888885" cy="374.5555555555556" r="27.581886146929385"/>
    <circle cx="291.88" cy="370.4" r="26.76393202250021"/>
    <circle cx="293.05555555555554" cy="366.55555555555554" r="26.0"/>
    <circle cx="294.23555555555555" cy="363.02222222222224" r="25.32347757456457"/>
    <circle cx="295.42" cy="359.8" r="24.76393202250021"/>
    <circle cx="296.6088888888889" cy="356.88888888888886" r="24.345818169429595"/>
    <circle cx="297.8022222222222" cy="354.2888888888889" r="24.087409597064777"/>
    <circle cx="299.0" cy="352.0" r="24"/>
    <circle cx="300.126953125" cy="349.84375" r="23.86549696282261"/>
    <circle cx="301.2578125" cy="347.375" r="23.467156727579006"/>
    <circle cx="302.392578125" cy="344.59375" r="22.820287286117818"/>
    <circle cx="303.53125" cy="341.5" r="21.949747468305834"/>
    <circle cx="304.673828125" cy="338.09375" r="20.888991631137216"/>
    <circle cx="305.8203125" cy="334.375" r="19.67878402655563"/>
    <circle cx="306.970703125" cy="330.34375" r="18.3656322541129"/>
    <circle cx="308.125" cy="326.0" r="17.0"/>
    <circle cx="309.283203125" cy="321.34375" r="15.634367745887102"/>
    <circle cx="310.4453125" cy="316.375" r="14.321215973444373"/>
    <circle cx="311.611328125" cy="311.09375" r="13.111008368862786"/>
    <circle cx="312.78125" cy="305.5" r="12.050252531694168"/>
    <circle cx="313.955078125" cy="299.59375" r="11.179712713882182"/>
    <circle cx="315.1328125" cy="293.375" r="10.532843272420992"/>
    <circle cx="316.314453125" cy="286.84375" r="10.134503037177387"/>
    <circle cx="317.5" cy="280.0" r="10"/>
    <circle cx="318.681640625" cy="273.150390625" r="10.220969275362851"/>
    <circle cx="319.8515625" cy="266.6015625" r="10.875385376120203"/>
    <circle cx="321.009765625" cy="260.353515625" r="11.93809945852073"/>
    <circle cx="322.15625" cy="254.40625" r="13.368272016354704"/>
    <circle cx="323.291015625" cy="248.759765625" r="15.110942320274575"/>
    <circle cx="324.4140625" cy="243.4140625" r="17.099140527801467"/>
    <circle cx="325.525390625" cy="238.369140625" r="19.256461296814525"/>
    <circle cx="326.625" cy="233.625" r="21.5"/>
    <circle cx="327.712890625" cy="229.181640625" r="23.74353870318547"/>
    <circle cx="328.7890625" cy="225.0390625" r="25.90085947219853"/>
    <circle cx="329.853515625" cy="221.197265625" r="27.889057679725422"/>
    <circle cx="330.90625" cy="217.65625" r="29.631727983645295"/>
    <circle cx="331.947265625" cy="214.416015625" r="31.06190054147927"/>
    <circle cx="332.9765625" cy="211.4765625" r="32.12461462387979"/>
    <circle cx="333.994140625" cy="208.837890625" r="32.77903072463715"/>
    <circle cx="335.0" cy="206.5" r="33"/>
    <circle cx="338.2000000000001" cy="200.20000000000005" r="31.663118960624633"/>
    <circle cx="341.40000000000003" cy="195.3" r="28.163118960624633"/>
    <circle cx="344.6" cy="191.8" r="23.836881039375367"/>
    <circle cx="347.8" cy="189.7" r="20.336881039375367"/>
    <circle cx="351.0" cy="189.0" r="19"/>
    <circle cx="351.75510204081627" cy="189.2222222222222" r="19.10610715086128"/>
    <circle cx="352.4965986394558" cy="189.88888888888889" r="19.42205834503166"/>
    <circle cx="353.22448979591843" cy="191.00000000000003" r="19.940795754927017"/>
    <circle cx="353.9387755102041" cy="192.55555555555554" r="20.65073164399805"/>
    <circle cx="354.6394557823129" cy="194.55555555555551" r="21.53600721761665"/>
    <circle cx="355.3265306122449" cy="196.99999999999997" r="22.576846882342032"/>
    <circle cx="356.00000000000006" cy="199.88888888888889" r="23.75"/>
    <circle cx="356.65986394557825" cy="203.2222222222222" r="25.029260268519245"/>
    <circle cx="357.3061224489795" cy="207.0" r="26.386051127415012"/>
    <circle cx="357.93877551020404" cy="211.22222222222223" r="27.790064110928967"/>
    <circle cx="358.5578231292517" cy="215.88888888888889" r="29.209935889071033"/>
    <circle cx="359.16326530612247" cy="221.0" r="30.613948872584984"/>
    <circle cx="359.7551020408163" cy="226.55555555555554" r="31.970739731480755"/>
    <circle cx="360.33333333333337" cy="232.55555555555554" r="33.25"/>
    <circle cx="360.8979591836735" cy="239.0" r="34.42315311765797"/>
    <circle cx="361.44897959183675" cy="245.88888888888889" r="35.46399278238334"/>
    <circle cx="361.98639455782313" cy="253.22222222222223" r="36.34926835600195"/>
    <circle cx="362.51020408163265" cy="261.0" r="37.059204245072976"/>
    <circle cx="363.0204081632653" cy="269.22222222222223" r="37.57794165496834"/>
    <circle cx="363.5170068027211" cy="277.8888888888889" r="37.89389284913872"/>
    <circle cx="364.0" cy="287.0" r="38"/>
    <circle cx="364.2573964497042" cy="292.0157790927022" r="37.965951735409206"/>
    <circle cx="364.5167652859961" cy="297.0118343195266" r="37.86402775769808"/>
    <circle cx="364.7781065088758" cy="301.9881656804734" r="37.694889082973546"/>
    <circle cx="365.04142011834324" cy="306.9447731755424" r="37.45963264044503"/>
    <circle cx="365.3067061143984" cy="311.8816568047337" r="37.15978415841766"/>
    <circle cx="365.5739644970414" cy="316.79881656804736" r="36.7972882693587"/>
    <circle cx="365.8431952662722" cy="321.6962524654832" r="36.374495898209844"/>
    <circle cx="366.11439842209074" cy="326.5739644970414" r="35.894149015736765"/>
    <circle cx="366.387573964497" cy="331.43195266272187" r="35.35936285579656"/>
    <circle cx="366.66272189349115" cy="336.27021696252467" r="34.77360571185079"/>
    <circle cx="366.939842209073" cy="341.0887573964497" r="34.14067644375146"/>
    <circle cx="367.21893491124257" cy="345.88757396449705" r="33.464679840677135"/>
    <circle cx="367.50000000000006" cy="350.6666666666667" r="32.75"/>
    <circle cx="367.78303747534517" cy="355.42603550295854" r="32.00127189473207"/>
    <circle cx="368.06804733727813" cy="360.1656804733728" r="31.223351313946623"/>
    <circle cx="368.35502958579883" cy="364.8856015779093" r="30.421283371122755"/>
    <circle cx="368.6439842209073" cy="369.58579881656806" r="29.600269784648468"/>
    <circle cx="368.93491124260356" cy="374.26627218934914" r="28.765635142680892"/>
    <circle cx="369.2278106508875" cy="378.92702169625244" r="27.92279237114886"/>
    <circle cx="369.5226824457593" cy="383.5680473372781" r="27.07720762885114"/>
    <circle cx="369.819526627219" cy="388.18934911242604" r="26.234364857319108"/>
    <circle cx="370.1183431952663" cy="392.79092702169623" r="25.399730215351536"/>
    <circle cx="370.41913214990143" cy="397.37278106508876" r="24.57871662887725"/>
    <circle cx="370.72189349112426" cy="401.93491124260356" r="23.776648686053377"/>
    <circle cx="371.0266272189349" cy="406.47731755424064" r="22.99872810526793"/>
    <circle cx="371.33333333333337" cy="411.0" r="22.25"/>
    <circle cx="371.64201183431953" cy="415.50295857988164" r="21.535320159322865"/>
    <circle cx="371.9526627218935" cy="419.98619329388555" r="20.85932355624854"/>
    <circle cx="372.26528599605524" cy="424.4497041420119" r="20.226394288149205"/>
    <circle cx="372.57988165680473" cy="428.8934911242604" r="19.64063714420344"/>
    <circle cx="372.896449704142" cy="433.3175542406311" r="19.105850984263242"/>
    <circle cx="373.21499013806704" cy="437.72189349112426" r="18.625504101790156"/>
    <circle cx="373.53550295857985" cy="442.1065088757397" r="18.202711730641298"/>
    <circle cx="373.85798816568047" cy="446.47140039447737" r="17.840215841582346"/>
    <circle cx="374.1824457593688" cy="450.8165680473373" r="17.540367359554974"/>
    <circle cx="374.50887573964496" cy="455.14201183431953" r="17.305110917026454"/>
    <circle cx="374.8372781065089" cy="459.4477317554241" r="17.135972242301918"/>
    <circle cx="375.1676528599606" cy="463.7337278106509" r="17.034048264590798"/>
    <circle cx="375.5" cy="468.0" r="17"/>
    <circle cx="375.91935483870975" cy="473.3303850156088" r="17.028218721344576"/>
    <circle cx="376.3387096774194" cy="478.61186264308014" r="17.11258532311128"/>
    <circle cx="376.75806451612897" cy="483.8444328824141" r="17.25223408979973"/>
    <circle cx="377.1774193548388" cy="489.02809573361077" r="17.44573203608873"/>
    <circle cx="377.5967741935484" cy="494.16285119667015" r="17.6910936112048"/>
    <circle cx="378.01612903225805" cy="499.24869927159205" r="17.98580107335998"/>
    <circle cx="378.4354838709677" cy="504.2856399583767" r="18.32683032518965"/>
    <circle cx="378.85483870967744" cy="509.2736732570239" r="18.710681945083724"/>
    <circle cx="379.2741935483871" cy="514.212799167534" r="19.133417095987856"/>
    <circle cx="379.6935483870968" cy="519.1030176899064" r="19.590697943201707"/>
    <circle cx="380.11290322580646" cy="523.9443288241415" r="20.077832166433012"/>
    <circle cx="380.5322580645161" cy="528.7367325702394" r="20.589821109353487"/>
    <circle cx="380.9516129032258" cy="533.4802289281997" r="21.121411072577036"/>
    <circle cx="381.3709677419355" cy="538.1748178980229" r="21.66714722372483"/>
    <circle cx="381.7903225806451" cy="542.8204994797087" r="22.22142957138708"/>
    <circle cx="382.2096774193548" cy="547.417273673257" r="22.77857042861292"/>
    <circle cx="382.6290322580645" cy="551.965140478668" r="23.332852776275168"/>
    <circle cx="383.04838709677415" cy="556.4640998959417" r="23.878588927422964"/>
    <circle cx="383.4677419354839" cy="560.914151925078" r="24.410178890646513"/>
    <circle cx="383.88709677419354" cy="565.315296566077" r="24.922167833566988"/>
    <circle cx="384.30645161290323" cy="569.6675338189386" r="25.409302056798293"/>
    <circle cx="384.7258064516129" cy="573.9708636836629" r="25.866582904012148"/>
    <circle cx="385.14516129032256" cy="578.2252861602498" r="26.289318054916276"/>
    <circle cx="385.56451612903226" cy="582.4308012486993" r="26.67316967481035"/>
    <circle cx="385.9838709677419" cy="586.5874089490114" r="27.01419892664002"/>
    <circle cx="386.4032258064516" cy="590.6951092611863" r="27.3089063887952"/>
    <circle cx="386.8225806451613" cy="594.7539021852238" r="27.55426796391127"/>
    <circle cx="387.241935483871" cy="598.7637877211238" r="27.74776591020027"/>
    <circle cx="387.6612903225806" cy="602.7247658688866" r="27.887414676888717"/>
    <circle cx="388.0806451612903" cy="606.636836628512" r="27.97178127865542"/>
    <circle cx="388.5" cy="610.5" r="28"/>
    <circle cx="389.5118343195267" cy="619.3017751479291" r="27.723947265547494"/>
    <circle cx="390.5473372781065" cy="627.3994082840237" r="26.911832243705494"/>
    <circle cx="391.6065088757396" cy="634.792899408284" r="25.610852107625462"/>
    <circle cx="392.689349112426" cy="641.4822485207101" r="23.896615093945982"/>
    <circle cx="393.7958579881657" cy="647.4674556213017" r="21.86874642690409"/>
    <circle cx="394.92603550295854" cy="652.7485207100592" r="19.64509846242557"/>
    <circle cx="396.07988165680473" cy="657.3254437869822" r="17.354901537574435"/>
    <circle cx="397.2573964497041" cy="661.198224852071" r="15.131253573095911"/>
    <circle cx="398.45857988165676" cy="664.3668639053254" r="13.103384906054021"/>
    <circle cx="399.68343195266266" cy="666.8313609467456" r="11.389147892374538"/>
    <circle cx="400.93195266272187" cy="668.5917159763313" r="10.088167756294506"/>
    <circle cx="402.20414201183434" cy="669.6479289940829" r="9.276052734452506"/>
    <circle cx="403.5" cy="670.0" r="9"/>
    <circle cx="407.53125" cy="668.90625" r="10.318019484660535"/>
    <circle cx="411.125" cy="665.625" r="13.5"/>
    <circle cx="414.28125" cy="660.15625" r="16.681980515339465"/>
    <circle cx="417.0" cy="652.5" r="18"/>
    <circle cx="418.15432098765433" cy="648.5123456790124" r="18.331690585677503"/>
    <circle cx="419.39506172839504" cy="644.3271604938271" r="19.28675556284562"/>
    <circle cx="420.72222222222223" cy="639.9444444444445" r="20.75"/>
    <circle cx="422.1358024691358" cy="635.3641975308642" r="22.544935022831883"/>
    <circle cx="423.6358024691358" cy="630.5864197530865" r="24.455064977168117"/>
    <circle cx="425.22222222222223" cy="625.6111111111111" r="26.25"/>
    <circle cx="426.89506172839504" cy="620.4382716049382" r="27.71324443715438"/>
    <circle cx="428.6543209876544" cy="615.0679012345679" r="28.668309414322497"/>
    <circle cx="430.5" cy="609.5" r="29"/>
    <circle cx="431.2675619834711" cy="607.081611570248" r="29.050892790595338"/>
    <circle cx="432.0247933884297" cy="604.4628099173553" r="29.20253513192751"/>
    <circle cx="432.77169421487605" cy="601.6435950413223" r="29.45184002322741"/>
    <circle cx="433.5082644628099" cy="598.6239669421487" r="29.793732335844094"/>
    <circle cx="434.2345041322314" cy="595.4039256198347" r="30.22125212822871"/>
    <circle cx="434.9504132231405" cy="591.9834710743801" r="30.725696330273575"/>
    <circle cx="435.65599173553727" cy="588.3626033057852" r="31.29679591272201"/>
    <circle cx="436.35123966942155" cy="584.5413223140496" r="31.92292493499057"/>
    <circle cx="437.03615702479334" cy="580.5196280991735" r="32.591337215792855"/>
    <circle cx="437.7107438016528" cy="576.2975206611569" r="33.288425808633576"/>
    <circle cx="438.375" cy="571.875" r="34.0"/>
    <circle cx="439.0289256198347" cy="567.2520661157025" r="34.711574191366424"/>
    <circle cx="439.672520661157" cy="562.4287190082645" r="35.40866278420715"/>
    <circle cx="440.305785123967" cy="557.404958677686" r="36.07707506500943"/>
    <circle cx="440.92871900826447" cy="552.180785123967" r="36.70320408727799"/>
    <circle cx="441.5413223140496" cy="546.7561983471073" r="37.27430366972642"/>
    <circle cx="442.14359504132227" cy="541.1311983471074" r="37.77874787177129"/>
    <circle cx="442.73553719008265" cy="535.305785123967" r="38.20626766415591"/>
    <circle cx="443.3171487603306" cy="529.279958677686" r="38.548159976772595"/>
    <circle cx="443.8884297520661" cy="523.0537190082645" r="38.79746486807249"/>
    <circle cx="444.4493801652893" cy="516.6270661157025" r="38.949107209404666"/>
    <circle cx="445.0" cy="510.0" r="39"/>
    <circle cx="445.5736961451247" cy="503.0691609977324" r="38.9218157835759"/>
    <circle cx="446.1519274376418" cy="496.3718820861678" r="38.68900964050299"/>
    <circle cx="446.7346938775511" cy="489.9081632653062" r="38.30678207531693"/>
    <circle cx="447.32199546485253" cy="483.6780045351474" r="37.78367142021197"/>
    <circle cx="447.91383219954645" cy="477.68140589569157" r="37.131363102808784"/>
    <circle cx="448.51020408163265" cy="471.9183673469388" r="36.364428613011135"/>
    <circle cx="449.1111111111112" cy="466.38888888888897" r="35.5"/>
    <circle cx="449.7165532879819" cy="461.09297052154193" r="34.557387170564766"/>
    <circle cx="450.3265306122448" cy="456.03061224489795" r="33.557646537694204"/>
    <circle cx="450.9410430839002" cy="451.2018140589569" r="32.52311065510497"/>
    <circle cx="451.5600907029479" cy="446.6065759637188" r="31.476889344895028"/>
    <circle cx="452.18367346938777" cy="442.2448979591837" r="30.4423534623058"/>
    <circle cx="452.81179138321994" cy="438.11678004535145" r="29.442612829435234"/>
    <circle cx="453.44444444444446" cy="434.2222222222223" r="28.5"/>
    <circle cx="454.08163265306126" cy="430.5612244897959" r="27.635571386988865"/>
    <circle cx="454.7233560090703" cy="427.13378684807253" r="26.868636897191216"/>
    <circle cx="455.3696145124716" cy="423.93990929705217" r="26.216328579788033"/>
    <circle cx="456.0204081632653" cy="420.9795918367347" r="25.69321792468307"/>
    <circle cx="456.67573696145126" cy="418.2528344671202" r="25.310990359497012"/>
    <circle cx="457.3356009070295" cy="415.75963718820867" r="25.078184216424102"/>
    <circle cx="458.0" cy="413.5" r="25"/>
    <circle cx="458.7340720221607" cy="411.0138504155125" r="24.863613034027225"/>
    <circle cx="459.46260387811634" cy="408.292243767313" r="24.458172417006345"/>
    <circle cx="460.185595567867" cy="405.33518005540157" r="23.79473751206489"/>
    <circle cx="460.90304709141276" cy="402.14265927977834" r="22.891405093963936"/>
    <circle cx="461.61495844875355" cy="398.7146814404433" r="21.772815716257412"/>
    <circle cx="462.32132963988926" cy="395.0512465373961" r="20.46948158122427"/>
    <circle cx="463.02216066481986" cy="391.15235457063704" r="19.016954246529696"/>
    <circle cx="463.7174515235457" cy="387.0180055401662" r="17.454854871407992"/>
    <circle cx="464.40720221606654" cy="382.64819944598344" r="15.825793454723323"/>
    <circle cx="465.0914127423823" cy="378.04293628808864" r="14.174206545276677"/>
    <circle cx="465.7700831024931" cy="373.2022160664819" r="12.545145128592008"/>
    <circle cx="466.4432132963989" cy="368.12603878116346" r="10.983045753470307"/>
    <circle cx="467.1108033240997" cy="362.81440443213296" r="9.530518418775733"/>
    <circle cx="467.7728531855955" cy="357.2673130193906" r="8.227184283742591"/>
    <circle cx="468.42936288088646" cy="351.4847645429363" r="7.108594906036064"/>
    <circle cx="469.08033240997224" cy="345.46675900277006" r="6.205262487935109"/>
    <circle cx="469.72576177285316" cy="339.21329639889194" r="5.541827582993655"/>
    <circle cx="470.36565096952904" cy="332.72437673130196" r="5.136386965972775"/>
    <circle cx="471.0" cy="326.0" r="5"/>
    <circle cx="471.8545918367347" cy="317.04591836734687" r="5.325937141636293"/>
    <circle cx="472.7040816326531" cy="308.7551020408164" r="6.287404717268551"/>
    <circle cx="473.54846938775506" cy="301.12755102040813" r="7.836190727915612"/>
    <circle cx="474.38775510204084" cy="294.16326530612247" r="9.894632575836464"/>
    <circle cx="475.2219387755101" cy="287.86224489795916" r="12.359511391471743"/>
    <circle cx="476.0510204081632" cy="282.2244897959184" r="15.107227858567912"/>
    <circle cx="476.875" cy="277.25" r="18.0"/>
    <circle cx="477.6938775510204" cy="272.9387755102041" r="20.892772141432086"/>
    <circle cx="478.50765306122446" cy="269.2908163265306" r="23.640488608528255"/>
    <circle cx="479.3163265306123" cy="266.3061224489796" r="26.105367424163532"/>
    <circle cx="480.11989795918373" cy="263.984693877551" r="28.163809272084386"/>
    <circle cx="480.9183673469388" cy="262.3265306122449" r="29.71259528273145"/>
    <circle cx="481.71173469387753" cy="261.3316326530612" r="30.674062858363705"/>
    <circle cx="482.5" cy="261.0" r="31"/>
    <circle cx="483.1095679012345" cy="261.2530864197531" r="30.84807753012208"/>
    <circle cx="483.716049382716" cy="262.01234567901236" r="30.396926207859085"/>
    <circle cx="484.31944444444457" cy="263.2777777777778" r="29.660254037844386"/>
    <circle cx="484.91975308641975" cy="265.04938271604937" r="28.66044443118978"/>
    <circle cx="485.516975308642" cy="267.3271604938272" r="27.427876096865393"/>
    <circle cx="486.11111111111114" cy="270.11111111111114" r="26.0"/>
    <circle cx="486.70216049382725" cy="273.40123456790127" r="24.42020143325669"/>
    <circle cx="487.29012345679007" cy="277.1975308641976" r="22.736481776669304"/>
    <circle cx="487.875" cy="281.5" r="21.0"/>
    <circle cx="488.4567901234568" cy="286.30864197530866" r="19.2635182233307"/>
    <circle cx="489.0354938271605" cy="291.62345679012344" r="17.579798566743314"/>
    <circle cx="489.61111111111114" cy="297.44444444444446" r="16.0"/>
    <circle cx="490.18364197530866" cy="303.7716049382716" r="14.572123903134607"/>
    <circle cx="490.7530864197531" cy="310.6049382716049" r="13.33955556881022"/>
    <circle cx="491.31944444444446" cy="317.94444444444446" r="12.339745962155611"/>
    <circle cx="491.88271604938274" cy="325.7901234567902" r="11.603073792140915"/>
    <circle cx="492.4429012345679" cy="334.141975308642" r="11.151922469877917"/>
    <circle cx="493.0" cy="343.0" r="11"/>
    <circle cx="493.4863945578231" cy="350.66099773242627" r="11.1563684328482"/>
    <circle cx="493.99319727891157" cy="358.0249433106576" r="11.62198071899403"/>
    <circle cx="494.52040816326536" cy="365.0918367346939" r="12.386435849366132"/>
    <circle cx="495.06802721088434" cy="371.8616780045351" r="13.43265715957607"/>
    <circle cx="495.6360544217686" cy="378.33446712018133" r="14.737273794382432"/>
    <circle cx="496.2244897959184" cy="384.51020408163265" r="16.27114277397773"/>
    <circle cx="496.83333333333337" cy="390.3888888888889" r="18.0"/>
    <circle cx="497.4625850340136" cy="395.9705215419501" r="19.885225658870468"/>
    <circle cx="498.1122448979591" cy="401.25510204081627" r="21.8847069246116"/>
    <circle cx="498.78231292517" cy="406.2426303854875" r="23.95377868979006"/>
    <circle cx="499.4727891156462" cy="410.93310657596373" r="26.04622131020994"/>
    <circle cx="500.1836734693877" cy="415.32653061224494" r="28.1152930753884"/>
    <circle cx="500.9149659863946" cy="419.4229024943311" r="30.114774341129532"/>
    <circle cx="501.6666666666667" cy="423.22222222222223" r="31.999999999999996"/>
    <circle cx="502.4387755102041" cy="426.7244897959184" r="33.72885722602227"/>
    <circle cx="503.2312925170068" cy="429.92970521541946" r="35.26272620561757"/>
    <circle cx="504.0442176870748" cy="432.8378684807256" r="36.56734284042393"/>
    <circle cx="504.8775510204082" cy="435.44897959183675" r="37.61356415063386"/>
    <circle cx="505.7312925170068" cy="437.76303854875283" r="38.378019281005976"/>
    <circle cx="506.6054421768708" cy="439.7800453514739" r="38.843631567151796"/>
    <circle cx="507.5" cy="441.5" r="39"/>
    <circle cx="508.95562130177524" cy="444.1834319526628" r="38.78206363069539"/>
    <circle cx="510.39940828402365" cy="447.15680473372777" r="38.14092019239907"/>
    <circle cx="511.8313609467455" cy="450.4201183431952" r="37.113830611283255"/>
    <circle cx="513.2514792899408" cy="453.97337278106505" r="35.76048560048367"/>
    <circle cx="514.6597633136096" cy="457.8165680473373" r="34.159536652819014"/>
    <circle cx="516.0562130177515" cy="461.9497041420118" r="32.404025101914925"/>
    <circle cx="517.4408284023668" cy="466.3727810650887" r="30.59597489808508"/>
    <circle cx="518.8136094674555" cy="471.08579881656806" r="28.840463347180982"/>
    <circle cx="520.1745562130177" cy="476.08875739644964" r="27.23951439951633"/>
    <circle cx="521.5236686390533" cy="481.3816568047338" r="25.88616938871674"/>
    <circle cx="522.8609467455622" cy="486.9644970414201" r="24.859079807600928"/>
    <circle cx="524.1863905325444" cy="492.83727810650885" r="24.21793636930461"/>
    <circle cx="525.5" cy="499.0" r="24"/>
    <circle cx="526.801775147929" cy="505.1656804733728" r="23.811121813269338"/>
    <circle cx="528.0917159763313" cy="511.04733727810645" r="23.255464166745863"/>
    <circle cx="529.369822485207" cy="516.6449704142011" r="22.365319863112155"/>
    <circle cx="530.6360946745563" cy="521.9585798816568" r="21.192420853752512"/>
    <circle cx="531.8905325443787" cy="526.9881656804735" r="19.80493176577648"/>
    <circle cx="533.1331360946746" cy="531.7337278106509" r="18.283488421659598"/>
    <circle cx="534.3639053254437" cy="536.1952662721893" r="16.716511578340402"/>
    <circle cx="535.5828402366864" cy="540.3727810650888" r="15.19506823422352"/>
    <circle cx="536.7899408284023" cy="544.2662721893491" r="13.807579146247488"/>
    <circle cx="537.9852071005917" cy="547.8757396449704" r="12.634680136887843"/>
    <circle cx="539.1686390532544" cy="551.2011834319527" r="11.744535833254137"/>
    <circle cx="540.3402366863905" cy="554.2426035502958" r="11.188878186730662"/>
    <circle cx="541.5" cy="557.0" r="11"/>
    <circle cx="543.1666666666666" cy="560.8518518518517" r="11.452305344105687"/>
    <circle cx="544.8333333333334" cy="564.851851851852" r="12.754666676607664"/>
    <circle cx="546.5000000000001" cy="569.0000000000001" r="14.75"/>
    <circle cx="548.1666666666667" cy="573.2962962962963" r="17.197638667498023"/>
    <circle cx="549.8333333333333" cy="577.7407407407406" r="19.802361332501977"/>
    <circle cx="551.5" cy="582.3333333333334" r="22.25"/>
    <circle cx="553.1666666666666" cy="587.0740740740741" r="24.245333323392334"/>
    <circle cx="554.8333333333334" cy="591.962962962963" r="25.54769465589431"/>
    <circle cx="556.5" cy="597.0" r="26"/>
    <circle cx="557.5" cy="600.1733333333334" r="25.781476007338057"/>
    <circle cx="558.5" cy="603.56" r="25.13545457642601"/>
    <circle cx="559.5000000000001" cy="607.1600000000001" r="24.090169943749473"/>
    <circle cx="560.5000000000001" cy="610.9733333333335" r="22.691306063588584"/>
    <circle cx="561.5" cy="615.0" r="21.0"/>
    <circle cx="562.5" cy="619.24" r="19.090169943749473"/>
    <circle cx="563.5" cy="623.6933333333334" r="17.045284632676534"/>
    <circle cx="564.5" cy="628.36" r="14.954715367323466"/>
    <circle cx="565.5" cy="633.24" r="12.909830056250525"/>
    <circle cx="566.5" cy="638.3333333333333" r="11.000000000000002"/>
    <circle cx="567.5" cy="643.6400000000001" r="9.308693936411423"/>
    <circle cx="568.5" cy="649.1600000000001" r="7.909830056250527"/>
    <circle cx="569.5" cy="654.8933333333333" r="6.86454542357399"/>
    <circle cx="570.5" cy="660.84" r="6.218523992661943"/>
    <circle cx="571.5" cy="667.0" r="6"/>
    <circle cx="573.0" cy="675.93" r="6.75862399742512"/>
    <circle cx="574.5000000000001" cy="683.9200000000002" r="8.960236587188314"/>
    <circle cx="575.9999999999999" cy="690.97" r="12.389328589466666"/>
    <circle cx="577.5" cy="697.0799999999999" r="16.710236587188312"/>
    <circle cx="579.0" cy="702.25" r="21.5"/>
    <circle cx="580.5" cy="706.48" r="26.289763412811684"/>
    <circle cx="582.0" cy="709.77" r="30.61067141053333"/>
    <circle cx="583.5" cy="712.12" r="34.03976341281168"/>
    <circle cx="585.0" cy="713.53" r="36.24137600257488"/>
    <circle cx="586.5" cy="714.0" r="37"/>
    <circle cx="587.9950000000001" cy="713.545" r="36.730810839623345"/>
    <circle cx="589.48" cy="712.1800000000002" r="35.94959346906221"/>
    <circle cx="590.9549999999999" cy="709.905" r="34.7328188876086"/>
    <circle cx="592.4200000000001" cy="706.72" r="33.19959346906221"/>
    <circle cx="593.875" cy="702.625" r="31.5"/>
    <circle cx="595.32" cy="697.62" r="29.80040653093779"/>
    <circle cx="596.755" cy="691.705" r="28.2671811123914"/>
    <circle cx="598.1800000000001" cy="684.8800000000001" r="27.05040653093779"/>
    <circle cx="599.595" cy="677.145" r="26.269189160376655"/>
    <circle cx="601.0" cy="668.5" r="26"/>
    <circle cx="601.5000000000001" cy="665.1989795918369" r="25.94969767914594"/>
    <circle cx="602.0" cy="661.795918367347" r="25.799423297454588"/>
    <circle cx="602.5" cy="658.2908163265307" r="25.551066642466942"/>
    <circle cx="603.0000000000001" cy="654.6836734693878" r="25.207750943219352"/>
    <circle cx="603.4999999999999" cy="650.9744897959183" r="24.773793593826273"/>
    <circle cx="604.0" cy="647.1632653061225" r="24.25465185974424"/>
    <circle cx="604.5" cy="643.25" r="23.65685424949238"/>
    <circle cx="605.0" cy="639.2346938775511" r="22.987918414869867"/>
    <circle cx="605.5" cy="635.1173469387757" r="22.25625661212269"/>
    <circle cx="605.9999999999999" cy="630.8979591836733" r="21.471069912940465"/>
    <circle cx="606.5000000000001" cy="626.5765306122449" r="20.642232495641338"/>
    <circle cx="606.9999999999999" cy="622.1530612244896" r="19.780167471650515"/>
    <circle cx="607.5" cy="617.6275510204082" r="18.895715808826463"/>
    <circle cx="608.0" cy="613.0" r="18.0"/>
    <circle cx="608.5" cy="608.2704081632653" r="17.104284191173537"/>
    <circle cx="609.0" cy="603.4387755102041" r="16.219832528349485"/>
    <circle cx="609.5" cy="598.5051020408163" r="15.357767504358666"/>
    <circle cx="610.0" cy="593.469387755102" r="14.528930087059535"/>
    <circle cx="610.5" cy="588.3316326530612" r="13.74374338787731"/>
    <circle cx="611.0" cy="583.0918367346939" r="13.012081585130133"/>
    <circle cx="611.5" cy="577.75" r="12.34314575050762"/>
    <circle cx="612.0" cy="572.3061224489795" r="11.745348140255762"/>
    <circle cx="612.5" cy="566.7602040816327" r="11.226206406173727"/>
    <circle cx="613.0" cy="561.1122448979592" r="10.792249056780648"/>
    <circle cx="613.5" cy="555.3622448979592" r="10.44893335753306"/>
    <circle cx="614.0" cy="549.5102040816325" r="10.200576702545412"/>
    <circle cx="614.5" cy="543.5561224489796" r="10.050302320854058"/>
    <circle cx="615.0" cy="537.5" r="10"/>
    <circle cx="615.4839476813318" cy="531.6504161712248" r="10.046896342765123"/>
    <circle cx="615.9702734839476" cy="525.8947681331747" r="10.187035554319307"/>
    <circle cx="616.4589774078478" cy="520.2330558858501" r="10.41877463053758"/>
    <circle cx="616.9500594530319" cy="514.6652794292509" r="10.739396642632343"/>
    <circle cx="617.4435196195005" cy="509.19143876337694" r="11.145142590659287"/>
    <circle cx="617.9393579072533" cy="503.8115338882284" r="11.63125547435485"/>
    <circle cx="618.4375743162901" cy="498.5255648038049" r="12.192036064614953"/>
    <circle cx="618.9381688466112" cy="493.33353151010704" r="12.82090972174538"/>
    <circle cx="619.4411414982164" cy="488.2354340071344" r="13.510503477100942"/>
    <circle cx="619.9464922711059" cy="483.231272294887" r="14.252732474401679"/>
    <circle cx="620.4542211652795" cy="478.32104637336505" r="15.038894757280683"/>
    <circle cx="620.9643281807372" cy="473.5047562425684" r="15.859773291766231"/>
    <circle cx="621.4768133174791" cy="468.78240190249704" r="16.705744027577882"/>
    <circle cx="621.9916765755053" cy="464.1539833531509" r="17.56688873131666"/>
    <circle cx="622.5089179548157" cy="459.61950059453034" r="18.43311126868334"/>
    <circle cx="623.0285374554102" cy="455.178953626635" r="19.294255972422118"/>
    <circle cx="623.5505350772889" cy="450.83234244946493" r="20.140226708233765"/>
    <circle cx="624.0749108204518" cy="446.5796670630202" r="20.961105242719317"/>
    <circle cx="624.6016646848989" cy="442.42092746730077" r="21.74726752559832"/>
    <circle cx="625.1307966706302" cy="438.3561236623068" r="22.48949652289906"/>
    <circle cx="625.6623067776457" cy="434.3852556480381" r="23.17909027825462"/>
    <circle cx="626.1961950059454" cy="430.5083234244947" r="23.807963935385043"/>
    <circle cx="626.7324613555292" cy="426.7253269916766" r="24.36874452564515"/>
    <circle cx="627.2711058263972" cy="423.03626634958385" r="24.854857409340713"/>
    <circle cx="627.8121284185493" cy="419.4411414982164" r="25.260603357367657"/>
    <circle cx="628.3555291319858" cy="415.93995243757433" r="25.58122536946242"/>
    <circle cx="628.9013079667063" cy="412.53269916765754" r="25.81296444568069"/>
    <circle cx="629.4494649227111" cy="409.2193816884661" r="25.953103657234877"/>
    <circle cx="630.0" cy="406.0" r="26"/>
    <circle cx="630.8448753462606" cy="401.1689750692521" r="25.931806517013612"/>
    <circle cx="631.6952908587258" cy="396.36011080332406" r="25.729086208503173"/>
    <circle cx="632.551246537396" cy="391.57340720221606" r="25.397368756032446"/>
    <circle cx="633.4127423822715" cy="386.808864265928" r="24.94570254698197"/>
    <circle cx="634.279778393352" cy="382.0664819944599" r="24.386407858128706"/>
    <circle cx="635.1523545706372" cy="377.3462603878117" r="23.734740790612136"/>
    <circle cx="636.0304709141274" cy="372.6481994459833" r="23.008477123264846"/>
    <circle cx="636.9141274238227" cy="367.9722991689751" r="22.227427435703994"/>
    <circle cx="637.8033240997231" cy="363.31855955678674" r="21.412896727361662"/>
    <circle cx="638.6980609418283" cy="358.68698060941836" r="20.587103272638338"/>
    <circle cx="639.5983379501384" cy="354.07756232686984" r="19.772572564296006"/>
    <circle cx="640.5041551246537" cy="349.49030470914124" r="18.991522876735154"/>
    <circle cx="641.4155124653739" cy="344.9252077562327" r="18.265259209387867"/>
    <circle cx="642.3324099722992" cy="340.38227146814404" r="17.613592141871294"/>
    <circle cx="643.2548476454294" cy="335.8614958448753" r="17.05429745301803"/>
    <circle cx="644.1828254847645" cy="331.36288088642664" r="16.602631243967554"/>
    <circle cx="645.1163434903046" cy="326.8864265927978" r="16.270913791496827"/>
    <circle cx="646.0554016620499" cy="322.4321329639889" r="16.068193482986388"/>
    <circle cx="647.0" cy="318.0" r="16"/>
    <circle cx="648.9876543209876" cy="309.18518518518516" r="15.84923155196477"/>
    <circle cx="650.9506172839506" cy="301.4074074074074" r="15.415111107797445"/>
    <circle cx="652.8888888888889" cy="294.66666666666674" r="14.75"/>
    <circle cx="654.8024691358025" cy="288.962962962963" r="13.934120444167327"/>
    <circle cx="656.6913580246913" cy="284.2962962962963" r="13.065879555832675"/>
    <circle cx="658.5555555555557" cy="280.66666666666663" r="12.25"/>
    <circle cx="660.3950617283951" cy="278.0740740740741" r="11.584888892202555"/>
    <circle cx="662.2098765432099" cy="276.51851851851853" r="11.15076844803523"/>
    <circle cx="664.0" cy="276.0" r="11"/>
    <circle cx="665.96875" cy="276.5703125" r="12.065686544841986"/>
    <circle cx="667.875" cy="278.28125" r="15.100505063388333"/>
    <circle cx="669.71875" cy="281.1328125" r="19.642431946888742"/>
    <circle cx="671.5" cy="285.125" r="25.0"/>
    <circle cx="673.21875" cy="290.2578125" r="30.357568053111255"/>
    <circle cx="674.875" cy="296.53125" r="34.89949493661166"/>
    <circle cx="676.46875" cy="303.9453125" r="37.93431345515802"/>
    <circle cx="678.0" cy="312.5" r="39"/>
    <circle cx="678.4478737997256" cy="315.2709190672154" r="38.94252604080651"/>
    <circle cx="678.9026063100138" cy="318.17626886145405" r="38.770881399928506"/>
    <circle cx="679.3641975308642" cy="321.21604938271605" r="38.487387276680224"/>
    <circle cx="679.832647462277" cy="324.3902606310014" r="38.09587744274901"/>
    <circle cx="680.3079561042525" cy="327.69890260631" r="37.60164639700996"/>
    <circle cx="680.7901234567902" cy="331.14197530864203" r="37.011377766511316"/>
    <circle cx="681.2791495198901" cy="334.7194787379972" r="36.333053921884236"/>
    <circle cx="681.7750342935528" cy="338.43141289437585" r="35.57584802947368"/>
    <circle cx="682.2777777777778" cy="342.27777777777777" r="34.75"/>
    <circle cx="682.7873799725651" cy="346.25857338820305" r="33.86667801133284"/>
    <circle cx="683.3038408779149" cy="350.37379972565157" r="32.93782747804427"/>
    <circle cx="683.8271604938273" cy="354.62345679012344" r="31.976009510168907"/>
    <circle cx="684.3573388203017" cy="359.00754458161873" r="30.994231045739046"/>
    <circle cx="684.8943758573388" cy="363.52606310013715" r="30.005768954260958"/>
    <circle cx="685.4382716049383" cy="368.17901234567904" r="29.023990489831093"/>
    <circle cx="685.9890260631001" cy="372.9663923182442" r="28.062172521955738"/>
    <circle cx="686.5466392318244" cy="377.88820301783267" r="27.133321988667166"/>
    <circle cx="687.1111111111111" cy="382.94444444444446" r="26.25"/>
    <circle cx="687.6824417009602" cy="388.13511659807955" r="25.424151970526317"/>
    <circle cx="688.2606310013717" cy="393.46021947873794" r="24.666946078115764"/>
    <circle cx="688.8456790123457" cy="398.91975308641975" r="23.988622233488687"/>
    <circle cx="689.437585733882" cy="404.51371742112485" r="23.398353602990042"/>
    <circle cx="690.0363511659807" cy="410.2421124828532" r="22.904122557250997"/>
    <circle cx="690.641975308642" cy="416.1049382716049" r="22.51261272331978"/>
    <circle cx="691.2544581618656" cy="422.10219478738" r="22.229118600071498"/>
    <circle cx="691.8737997256516" cy="428.23388203017834" r="22.057473959193484"/>
    <circle cx="692.5" cy="434.5" r="22"/>
    <circle cx="693.1531065088757" cy="440.99778106508876" r="22.03645562950973"/>
    <circle cx="693.8047337278108" cy="447.33727810650896" r="22.14529091286974"/>
    <circle cx="694.4548816568047" cy="453.5184911242603" r="22.324918786572926"/>
    <circle cx="695.1035502958579" cy="459.54142011834324" r="22.572719871733952"/>
    <circle cx="695.7507396449704" cy="465.40606508875743" r="22.885080670531718"/>
    <circle cx="696.396449704142" cy="471.11242603550295" r="23.257446259144494"/>
    <circle cx="697.0406804733728" cy="476.66050295857997" r="23.684386708796023"/>
    <circle cx="697.6834319526628" cy="482.05029585798815" r="24.15967626634422"/>
    <circle cx="698.3247041420118" cy="487.2818047337278" r="24.676384139781156"/>
    <circle cx="698.9644970414203" cy="492.35502958579883" r="25.226975564787324"/>
    <circle cx="699.6028106508875" cy="497.2699704142011" r="25.80342167856221"/>
    <circle cx="700.2396449704141" cy="502.0266272189349" r="26.397316598723386"/>
    <circle cx="700.875" cy="506.625" r="27.0"/>
    <circle cx="701.508875739645" cy="511.06508875739644" r="27.602683401276614"/>
    <circle cx="702.1412721893491" cy="515.3468934911243" r="28.196578321437787"/>
    <circle cx="702.7721893491124" cy="519.4704142011834" r="28.773024435212676"/>
    <circle cx="703.4016272189349" cy="523.435650887574" r="29.323615860218844"/>
    <circle cx="704.0295857988165" cy="527.2426035502958" r="29.84032373365578"/>
    <circle cx="704.6560650887574" cy="530.8912721893491" r="30.315613291203974"/>
    <circle cx="705.2810650887575" cy="534.3816568047337" r="30.742553740855506"/>
    <circle cx="705.9045857988166" cy="537.7137573964498" r="31.114919329468282"/>
    <circle cx="706.5266272189349" cy="540.887573964497" r="31.427280128266048"/>
    <circle cx="707.1471893491124" cy="543.9031065088757" r="31.675081213427074"/>
    <circle cx="707.7662721893491" cy="546.7603550295859" r="31.85470908713026"/>
    <circle cx="708.3838757396449" cy="549.4593195266272" r="31.96354437049027"/>
    <circle cx="709.0" cy="552.0" r="32"/>
    <circle cx="710.3229166666665" cy="557.2604166666665" r="31.96592582628907"/>
    <circle cx="711.625" cy="562.3750000000001" r="31.866025403784437"/>
    <circle cx="712.90625" cy="567.34375" r="31.707106781186546"/>
    <circle cx="714.1666666666667" cy="572.1666666666667" r="31.5"/>
    <circle cx="715.4062499999999" cy="576.84375" r="31.25881904510252"/>
    <circle cx="716.625" cy="581.375" r="31.0"/>
    <circle cx="717.8229166666667" cy="585.7604166666666" r="30.74118095489748"/>
    <circle cx="719.0" cy="590.0" r="30.5"/>
    <circle cx="720.15625" cy="594.09375" r="30.292893218813454"/>
    <circle cx="721.2916666666666" cy="598.0416666666666" r="30.133974596215563"/>
    <circle cx="722.40625" cy="601.84375" r="30.03407417371093"/>
    <circle cx="723.5" cy="605.5" r="30"/>
    <circle cx="724.83" cy="609.8050000000001" r="29.583980388508806"/>
    <circle cx="726.2200000000001" cy="614.1200000000001" r="28.376644452187055"/>
    <circle cx="727.6699999999998" cy="618.4449999999998" r="26.496174644486022"/>
    <circle cx="729.18" cy="622.78" r="24.12664445218705"/>
    <circle cx="730.75" cy="627.125" r="21.5"/>
    <circle cx="732.3799999999999" cy="631.48" r="18.87335554781295"/>
    <circle cx="734.0699999999999" cy="635.845" r="16.50382535551398"/>
    <circle cx="735.82" cy="640.22" r="14.623355547812947"/>
    <circle cx="737.63" cy="644.605" r="13.416019611491194"/>
    <circle cx="739.5" cy="649.0" r="13"/>
    <circle cx="742.6527777777778" cy="655.7222222222223" r="14.339745962155613"/>
    <circle cx="745.7777777777778" cy="661.2222222222223" r="18.0"/>
    <circle cx="748.875" cy="665.5" r="23.0"/>
    <circle cx="751.9444444444445" cy="668.5555555555557" r="28.0"/>
    <circle cx="754.9861111111111" cy="670.3888888888889" r="31.66025403784439"/>
    <circle cx="758.0" cy="671.0" r="33"/>
    <circle cx="759.1844444444444" cy="670.6955555555556" r="33.03277859889929"/>
    <circle cx="760.3377777777779" cy="669.7822222222222" r="33.1296818135361"/>
    <circle cx="761.4600000000002" cy="668.2600000000002" r="33.28647450843758"/>
    <circle cx="762.5511111111111" cy="666.1288888888889" r="33.49630409046171"/>
    <circle cx="763.6111111111112" cy="663.388888888889" r="33.75"/>
    <circle cx="764.64" cy="660.04" r="34.03647450843758"/>
    <circle cx="765.6377777777777" cy="656.0822222222222" r="34.34320730509852"/>
    <circle cx="766.6044444444444" cy="651.5155555555555" r="34.65679269490148"/>
    <circle cx="767.54" cy="646.34" r="34.96352549156242"/>
    <circle cx="768.4444444444445" cy="640.5555555555557" r="35.25"/>
    <circle cx="769.3177777777778" cy="634.1622222222222" r="35.50369590953829"/>
    <circle cx="770.1600000000001" cy="627.1600000000001" r="35.71352549156242"/>
    <circle cx="770.9711111111111" cy="619.5488888888889" r="35.870318186463905"/>
    <circle cx="771.7511111111112" cy="611.3288888888889" r="35.96722140110071"/>
    <circle cx="772.5" cy="602.5" r="36"/>
    <circle cx="773.0831024930749" cy="595.4238227146816" r="36.00681934829864"/>
    <circle cx="773.6745152354571" cy="588.6163434903048" r="36.02709137914968"/>
    <circle cx="774.2742382271467" cy="582.0775623268697" r="36.060263124396755"/>
    <circle cx="774.8822714681442" cy="575.8074792243768" r="36.105429745301805"/>
    <circle cx="775.4986149584489" cy="569.8060941828256" r="36.16135921418713"/>
    <circle cx="776.1232686980609" cy="564.073407202216" r="36.22652592093878"/>
    <circle cx="776.7562326869804" cy="558.6094182825484" r="36.299152287673515"/>
    <circle cx="777.3975069252077" cy="553.4141274238227" r="36.3772572564296"/>
    <circle cx="778.0470914127425" cy="548.4875346260388" r="36.45871032726384"/>
    <circle cx="778.7049861495844" cy="543.8296398891966" r="36.54128967273616"/>
    <circle cx="779.3711911357341" cy="539.4404432132964" r="36.6227427435704"/>
    <circle cx="780.045706371191" cy="535.319944598338" r="36.700847712326485"/>
    <circle cx="780.7285318559557" cy="531.4681440443214" r="36.77347407906122"/>
    <circle cx="781.4196675900278" cy="527.8850415512466" r="36.83864078581287"/>
    <circle cx="782.1191135734073" cy="524.5706371191136" r="36.894570254698195"/>
    <circle cx="782.8268698060941" cy="521.5249307479224" r="36.939736875603245"/>
    <circle cx="783.5429362880886" cy="518.7479224376732" r="36.97290862085032"/>
    <circle cx="784.2673130193905" cy="516.2396121883656" r="36.99318065170136"/>
    <circle cx="785.0" cy="514.0" r="37"/>
    <circle cx="785.869140625" cy="511.373046875" r="36.93274848141131"/>
    <circle cx="786.7265625" cy="508.4921875" r="36.733578363789505"/>
    <circle cx="787.572265625" cy="505.357421875" r="36.41014364305891"/>
    <circle cx="788.40625" cy="501.96875" r="35.974873734152915"/>
    <circle cx="789.228515625" cy="498.326171875" r="35.44449581556861"/>
    <circle cx="790.0390625" cy="494.4296875" r="34.839392013277816"/>
    <circle cx="790.837890625" cy="490.279296875" r="34.18281612705645"/>
    <circle cx="791.625" cy="485.875" r="33.5"/>
    <circle cx="792.400390625" cy="481.216796875" r="32.81718387294355"/>
    <circle cx="793.1640625" cy="476.3046875" r="32.160607986722184"/>
    <circle cx="793.916015625" cy="471.138671875" r="31.555504184431392"/>
    <circle cx="794.65625" cy="465.71875" r="31.025126265847085"/>
    <circle cx="795.384765625" cy="460.044921875" r="30.58985635694109"/>
    <circle cx="796.1015625" cy="454.1171875" r="30.266421636210495"/>
    <circle cx="796.806640625" cy="447.935546875" r="30.067251518588694"/>
    <circle cx="797.5" cy="441.5" r="30"/>
    <circle cx="798.1095679012346" cy="435.7376543209877" r="30.030384493975586"/>
    <circle cx="798.7160493827159" cy="430.11728395061726" r="30.120614758428182"/>
    <circle cx="799.3194444444445" cy="424.6388888888889" r="30.26794919243112"/>
    <circle cx="799.9197530864197" cy="419.3024691358025" r="30.467911113762042"/>
    <circle cx="800.516975308642" cy="414.108024691358" r="30.71442478062692"/>
    <circle cx="801.1111111111113" cy="409.05555555555566" r="31.0"/>
    <circle cx="801.7021604938273" cy="404.1450617283951" r="31.31595971334866"/>
    <circle cx="802.2901234567902" cy="399.37654320987656" r="31.65270364466614"/>
    <circle cx="802.875" cy="394.75" r="32.0"/>
    <circle cx="803.4567901234568" cy="390.2654320987655" r="32.34729635533386"/>
    <circle cx="804.0354938271605" cy="385.92283950617286" r="32.68404028665134"/>
    <circle cx="804.6111111111111" cy="381.7222222222223" r="33.0"/>
    <circle cx="805.1836419753085" cy="377.6635802469136" r="33.28557521937308"/>
    <circle cx="805.7530864197531" cy="373.7469135802469" r="33.53208888623796"/>
    <circle cx="806.3194444444445" cy="369.97222222222223" r="33.732050807568875"/>
    <circle cx="806.8827160493828" cy="366.3395061728395" r="33.87938524157182"/>
    <circle cx="807.4429012345679" cy="362.8487654320988" r="33.96961550602442"/>
    <circle cx="808.0" cy="359.5" r="34"/>
    <circle cx="808.8437499999998" cy="354.60763888888886" r="33.67629534974615"/>
    <circle cx="809.7083333333335" cy="349.7638888888889" r="32.727241335952165"/>
    <circle cx="810.59375" cy="344.96875" r="31.217514421272202"/>
    <circle cx="811.5000000000001" cy="340.22222222222223" r="29.25"/>
    <circle cx="812.4270833333331" cy="335.5243055555555" r="26.95878092847395"/>
    <circle cx="813.375" cy="330.875" r="24.5"/>
    <circle cx="814.34375" cy="326.27430555555554" r="22.04121907152605"/>
    <circle cx="815.3333333333335" cy="321.7222222222223" r="19.75"/>
    <circle cx="816.34375" cy="317.21875" r="17.782485578727798"/>
    <circle cx="817.375" cy="312.7638888888889" r="16.27275866404783"/>
    <circle cx="818.4270833333333" cy="308.35763888888886" r="15.323704650253852"/>
    <circle cx="819.5" cy="304.0" r="15"/>
    <circle cx="820.6983471074379" cy="299.28099173553716" r="15.121521079156508"/>
    <circle cx="821.9297520661156" cy="294.5785123966942" r="15.476239401506456"/>
    <circle cx="823.1942148760329" cy="289.89256198347107" r="16.035417798164143"/>
    <circle cx="824.4917355371902" cy="285.22314049586777" r="16.753754960994343"/>
    <circle cx="825.8223140495867" cy="280.5702479338843" r="17.573055485180145"/>
    <circle cx="827.185950413223" cy="275.93388429752065" r="18.426944514819855"/>
    <circle cx="828.5826446280992" cy="271.3140495867769" r="19.246245039005657"/>
    <circle cx="830.0123966942149" cy="266.7107438016528" r="19.964582201835857"/>
    <circle cx="831.4752066115703" cy="262.1239669421488" r="20.523760598493546"/>
    <circle cx="832.9710743801653" cy="257.55371900826447" r="20.87847892084349"/>
    <circle cx="834.5" cy="253.0" r="21"/>
    <circle cx="837.263888888889" cy="245.36111111111114" r="21.73686027918559"/>
    <circle cx="839.888888888889" cy="239.11111111111117" r="23.75"/>
    <circle cx="842.375" cy="234.25" r="26.5"/>
    <circle cx="844.7222222222222" cy="230.77777777777777" r="29.25"/>
    <circle cx="846.9305555555555" cy="228.69444444444446" r="31.263139720814415"/>
    <circle cx="849.0" cy="228.0" r="32"/>
    <circle cx="851.4200000000003" cy="228.8" r="31.045084971874736"/>
    <circle cx="853.88" cy="231.2" r="28.545084971874736"/>
    <circle cx="856.38" cy="235.20000000000002" r="25.454915028125264"/>
    <circle cx="858.9200000000001" cy="240.8" r="22.954915028125264"/>
    <circle cx="861.5" cy="248.0" r="22"/>
    <circle cx="862.0029585798817" cy="249.65310650887574" r="21.98906331114708"/>
    <circle cx="862.5118343195268" cy="251.5355029585799" r="21.956412726139078"/>
    <circle cx="863.0266272189349" cy="253.6471893491124" r="21.90252436402812"/>
    <circle cx="863.5473372781065" cy="255.9881656804734" r="21.828184038479815"/>
    <circle cx="864.0739644970415" cy="258.5584319526628" r="21.734475798840485"/>
    <circle cx="864.6065088757396" cy="261.35798816568047" r="21.622766122256653"/>
    <circle cx="865.1449704142013" cy="264.38683431952666" r="21.494683987361192"/>
    <circle cx="865.689349112426" cy="267.64497041420117" r="21.352097120096733"/>
    <circle cx="866.2396449704142" cy="271.1323964497041" r="21.197084758065653"/>
    <circle cx="866.7958579881657" cy="274.84911242603556" r="21.031907330563804"/>
    <circle cx="867.3579881656804" cy="278.7951183431952" r="20.858973496431336"/>
    <circle cx="867.9260355029586" cy="282.9704142011834" r="20.680805020382984"/>
    <circle cx="868.5" cy="287.375" r="20.5"/>
    <circle cx="869.0798816568048" cy="292.00887573964496" r="20.319194979617016"/>
    <circle cx="869.6656804733728" cy="296.8720414201183" r="20.141026503568664"/>
    <circle cx="870.2573964497042" cy="301.96449704142015" r="19.968092669436196"/>
    <circle cx="870.8550295857988" cy="307.28624260355025" r="19.802915241934347"/>
    <circle cx="871.4585798816568" cy="312.83727810650885" r="19.647902879903267"/>
    <circle cx="872.0680473372781" cy="318.6176035502958" r="19.505316012638808"/>
    <circle cx="872.6834319526627" cy="324.62721893491124" r="19.37723387774335"/>
    <circle cx="873.3047337278107" cy="330.86612426035504" r="19.265524201159515"/>
    <circle cx="873.9319526627219" cy="337.3343195266272" r="19.171815961520185"/>
    <circle cx="874.5650887573964" cy="344.0318047337278" r="19.09747563597188"/>
    <circle cx="875.2041420118344" cy="350.9585798816568" r="19.043587273860922"/>
    <circle cx="875.8491124260355" cy="358.1146449704142" r="19.01093668885292"/>
    <circle cx="876.5" cy="365.5" r="19"/>
    <circle cx="876.9865306122449" cy="371.0444897959184" r="18.977858616973815"/>
    <circle cx="877.474693877551" cy="376.53510204081635" r="18.91161273729246"/>
    <circle cx="877.9644897959182" cy="381.97183673469385" r="18.80179573382719"/>
    <circle cx="878.4559183673468" cy="387.354693877551" r="18.649291788518553"/>
    <circle cx="878.9489795918369" cy="392.68367346938777" r="18.455328773463304"/>
    <circle cx="879.4436734693876" cy="397.958775510204" r="18.221468364810264"/>
    <circle cx="879.9400000000002" cy="403.18000000000006" r="17.94959346906221"/>
    <circle cx="880.4379591836735" cy="408.3473469387755" r="17.64189306301986"/>
    <circle cx="880.9375510204083" cy="413.4608163265306" r="17.300844569427756"/>
    <circle cx="881.4387755102041" cy="418.5204081632653" r="16.929193910223034"/>
    <circle cx="881.9416326530611" cy="423.5261224489796" r="16.529933397986564"/>
    <circle cx="882.4461224489796" cy="428.4779591836735" r="16.106277643601494"/>
    <circle cx="882.9522448979592" cy="433.3759183673469" r="15.66163767409658"/>
    <circle cx="883.4599999999999" cy="438.21999999999997" r="15.199593469062211"/>
    <circle cx="883.9693877551019" cy="443.01020408163265" r="14.72386513675973"/>
    <circle cx="884.4804081632656" cy="447.746530612245" r="14.238282961997104"/>
    <circle cx="884.9930612244898" cy="452.4289795918367" r="13.746756566927832"/>
    <circle cx="885.5073469387755" cy="457.0575510204082" r="13.25324343307217"/>
    <circle cx="886.0232653061225" cy="461.63224489795914" r="12.761717038002896"/>
    <circle cx="886.5408163265306" cy="466.15306122448976" r="12.276134863240271"/>
    <circle cx="887.0600000000001" cy="470.62" r="11.800406530937789"/>
    <circle cx="887.5808163265306" cy="475.03306122448976" r="11.33836232590342"/>
    <circle cx="888.1032653061225" cy="479.3922448979592" r="10.893722356398508"/>
    <circle cx="888.6273469387755" cy="483.6975510204081" r="10.470066602013436"/>
    <circle cx="889.1530612244899" cy="487.94897959183675" r="10.070806089776966"/>
    <circle cx="889.6804081632654" cy="492.14653061224493" r="9.699155430572244"/>
    <circle cx="890.209387755102" cy="496.2902040816326" r="9.35810693698014"/>
    <circle cx="890.74" cy="500.38000000000005" r="9.050406530937789"/>
    <circle cx="891.2722448979591" cy="504.415918367347" r="8.778531635189736"/>
    <circle cx="891.8061224489796" cy="508.3979591836735" r="8.544671226536696"/>
    <circle cx="892.3416326530613" cy="512.3261224489796" r="8.350708211481445"/>
    <circle cx="892.8787755102042" cy="516.2004081632653" r="8.198204266172807"/>
    <circle cx="893.4175510204082" cy="520.0208163265306" r="8.088387262707537"/>
    <circle cx="893.9579591836734" cy="523.7873469387755" r="8.022141383026185"/>
    <circle cx="894.5" cy="527.5" r="8"/>
    <circle cx="895.8520408163265" cy="536.3852040816327" r="8.13789648299997"/>
    <circle cx="897.1938775510206" cy="544.6122448979593" r="8.544671226536694"/>
    <circle cx="898.5255102040817" cy="552.1811224489795" r="9.199926846425836"/>
    <circle cx="899.8469387755102" cy="559.091836734694" r="10.070806089776966"/>
    <circle cx="901.158163265306" cy="565.3443877551019" r="11.11363943485343"/>
    <circle cx="902.4591836734693" cy="570.938775510204" r="12.27613486324027"/>
    <circle cx="903.75" cy="575.875" r="13.5"/>
    <circle cx="905.0306122448981" cy="580.1530612244899" r="14.723865136759729"/>
    <circle cx="906.3010204081634" cy="583.7729591836735" r="15.88636056514657"/>
    <circle cx="907.5612244897959" cy="586.7346938775511" r="16.929193910223034"/>
    <circle cx="908.8112244897959" cy="589.0382653061225" r="17.80007315357416"/>
    <circle cx="910.0510204081633" cy="590.6836734693877" r="18.455328773463304"/>
    <circle cx="911.2806122448978" cy="591.670918367347" r="18.86210351700003"/>
    <circle cx="912.5" cy="592.0" r="19"/>
    <circle cx="913.8958333333333" cy="591.6076388888888" r="18.897777478867205"/>
    <circle cx="915.2500000000001" cy="590.4305555555557" r="18.598076211353316"/>
    <circle cx="916.5625" cy="588.46875" r="18.121320343559642"/>
    <circle cx="917.8333333333335" cy="585.7222222222223" r="17.5"/>
    <circle cx="919.0624999999999" cy="582.1909722222222" r="16.776457135307563"/>
    <circle cx="920.25" cy="577.875" r="16.0"/>
    <circle cx="921.3958333333334" cy="572.7743055555555" r="15.223542864692437"/>
    <circle cx="922.5" cy="566.8888888888889" r="14.5"/>
    <circle cx="923.5625" cy="560.21875" r="13.878679656440358"/>
    <circle cx="924.5833333333333" cy="552.7638888888889" r="13.401923788646684"/>
    <circle cx="925.5625" cy="544.5243055555555" r="13.102222521132795"/>
    <circle cx="926.5" cy="535.5" r="13"/>
    <circle cx="926.9448" cy="530.976" r="13.043369142770372"/>
    <circle cx="927.3992000000001" cy="526.444" r="13.172792613792529"/>
    <circle cx="927.8631999999999" cy="521.904" r="13.386229327614616"/>
    <circle cx="928.3368" cy="517.3559999999999" r="13.68031325975875"/>
    <circle cx="928.8200000000003" cy="512.8000000000001" r="14.050406530937789"/>
    <circle cx="929.3127999999999" cy="508.236" r="14.490672549182236"/>
    <circle cx="929.8151999999999" cy="503.664" r="14.994168056382208"/>
    <circle cx="930.3271999999998" cy="499.0839999999999" r="15.552952627615518"/>
    <circle cx="930.8488" cy="494.496" r="16.158213896392102"/>
    <circle cx="931.3799999999999" cy="489.9" r="16.80040653093779"/>
    <circle cx="931.9208000000001" cy="485.29600000000005" r="17.469402769778515"/>
    <circle cx="932.4712" cy="480.68399999999997" r="18.154652142588777"/>
    <circle cx="933.0312" cy="476.06399999999996" r="18.845347857411223"/>
    <circle cx="933.6007999999999" cy="471.43600000000004" r="19.53059723022149"/>
    <circle cx="934.1800000000001" cy="466.8" r="20.19959346906221"/>
    <circle cx="934.7688" cy="462.15599999999995" r="20.8417861036079"/>
    <circle cx="935.3671999999999" cy="457.50399999999996" r="21.447047372384482"/>
    <circle cx="935.9752" cy="452.844" r="22.005831943617792"/>
    <circle cx="936.5928" cy="448.17600000000004" r="22.509327450817764"/>
    <circle cx="937.22" cy="443.5" r="22.94959346906221"/>
    <circle cx="937.8568" cy="438.81600000000003" r="23.31968674024125"/>
    <circle cx="938.5031999999999" cy="434.124" r="23.61377067238538"/>
    <circle cx="939.1592" cy="429.424" r="23.82720738620747"/>
    <circle cx="939.8248" cy="424.716" r="23.956630857229626"/>
    <circle cx="940.5" cy="420.0" r="24"/>
    <circle cx="941.03076171875" cy="416.28271484375" r="24.02889163996682"/>
    <circle cx="941.560546875" cy="412.505859375" r="24.115288317580617"/>
    <circle cx="942.08935546875" cy="408.66943359375" r="24.258357985606747"/>
    <circle cx="942.6171875" cy="404.7734375" r="24.45672280493228"/>
    <circle cx="943.14404296875" cy="400.81787109375" r="24.70847241390987"/>
    <circle cx="943.669921875" cy="396.802734375" r="25.011182326184727"/>
    <circle cx="944.19482421875" cy="392.72802734375" r="25.36193727982358"/>
    <circle cx="944.71875" cy="388.59375" r="25.757359312880716"/>
    <circle cx="945.24169921875" cy="384.39990234375" r="26.193640295018128"/>
    <circle cx="945.763671875" cy="380.146484375" r="26.666578601882385"/>
    <circle cx="946.28466796875" cy="375.83349609375" r="27.171619579044012"/>
    <circle cx="946.8046875" cy="371.4609375" r="27.703899405809462"/>
    <circle cx="947.32373046875" cy="367.02880859375" r="28.258291936473228"/>
    <circle cx="947.841796875" cy="362.537109375" r="28.829458067903232"/>
    <circle cx="948.35888671875" cy="357.98583984375" r="29.411897158022636"/>
    <circle cx="948.875" cy="353.375" r="30.0"/>
    <circle cx="949.39013671875" cy="348.70458984375" r="30.588102841977364"/>
    <circle cx="949.904296875" cy="343.974609375" r="31.170541932096768"/>
    <circle cx="950.41748046875" cy="339.18505859375" r="31.741708063526772"/>
    <circle cx="950.9296875" cy="334.3359375" r="32.296100594190534"/>
    <circle cx="951.44091796875" cy="329.42724609375" r="32.82838042095599"/>
    <circle cx="951.951171875" cy="324.458984375" r="33.33342139811761"/>
    <circle cx="952.46044921875" cy="319.43115234375" r="33.80635970498187"/>
    <circle cx="952.96875" cy="314.34375" r="34.242640687119284"/>
    <circle cx="953.47607421875" cy="309.19677734375" r="34.63806272017642"/>
    <circle cx="953.982421875" cy="303.990234375" r="34.98881767381528"/>
    <circle cx="954.48779296875" cy="298.72412109375" r="35.291527586090126"/>
    <circle cx="954.9921875" cy="293.3984375" r="35.543277195067716"/>
    <circle cx="955.49560546875" cy="288.01318359375" r="35.74164201439325"/>
    <circle cx="955.998046875" cy="282.568359375" r="35.88471168241938"/>
    <circle cx="956.49951171875" cy="277.06396484375" r="35.971108360033185"/>
    <circle cx="957.0" cy="271.5" r="36"/>
    <circle cx="957.8337950138505" cy="262.3268698060942" r="36.02045804489592"/>
    <circle cx="958.6509695290858" cy="253.64958448753464" r="36.08127413744905"/>
    <circle cx="959.4515235457062" cy="245.46814404432132" r="36.180789373190265"/>
    <circle cx="960.2354570637119" cy="237.78254847645428" r="36.31628923590541"/>
    <circle cx="961.0027700831026" cy="230.59279778393352" r="36.48407764256139"/>
    <circle cx="961.7534626038781" cy="223.89889196675904" r="36.67957776281636"/>
    <circle cx="962.4875346260386" cy="217.70083102493072" r="36.897456863020544"/>
    <circle cx="963.2049861495846" cy="211.99861495844874" r="37.131771769288804"/>
    <circle cx="963.9058171745153" cy="206.79224376731307" r="37.376130981791505"/>
    <circle cx="964.590027700831" cy="202.08171745152356" r="37.623869018208495"/>
    <circle cx="965.2576177285318" cy="197.86703601108033" r="37.868228230711196"/>
    <circle cx="965.9085872576178" cy="194.14819944598338" r="38.102543136979456"/>
    <circle cx="966.5429362880886" cy="190.92520775623268" r="38.32042223718364"/>
    <circle cx="967.1606648199446" cy="188.19806094182826" r="38.51592235743861"/>
    <circle cx="967.7617728531857" cy="185.9667590027701" r="38.68371076409459"/>
    <circle cx="968.3462603878116" cy="184.23130193905817" r="38.819210626809735"/>
    <circle cx="968.9141274238227" cy="182.9916897506925" r="38.91872586255095"/>
    <circle cx="969.4653739612188" cy="182.24792243767314" r="38.97954195510408"/>
    <circle cx="970.0" cy="182.0" r="39"/>
    <circle cx="971.7083333333335" cy="182.7638888888889" r="37.593266739736606"/>
    <circle cx="973.5000000000001" cy="185.05555555555557" r="33.75"/>
    <circle cx="975.375" cy="188.875" r="28.5"/>
    <circle cx="977.3333333333334" cy="194.22222222222223" r="23.25"/>
    <circle cx="979.375" cy="201.09722222222223" r="19.406733260263394"/>
    <circle cx="981.5" cy="209.5" r="18"/>
    <circle cx="982.2237654320987" cy="212.64197530864197" r="18.03798061746948"/>
    <circle cx="982.9506172839506" cy="215.95679012345678" r="18.15076844803523"/>
    <circle cx="983.6805555555557" cy="219.44444444444449" r="18.334936490538905"/>
    <circle cx="984.4135802469135" cy="223.10493827160496" r="18.584888892202557"/>
    <circle cx="985.1496913580247" cy="226.93827160493828" r="18.893030975783653"/>
    <circle cx="985.888888888889" cy="230.94444444444446" r="19.25"/>
    <circle cx="986.6311728395062" cy="235.12345679012347" r="19.644949641685827"/>
    <circle cx="987.3765432098766" cy="239.4753086419753" r="20.065879555832673"/>
    <circle cx="988.125" cy="244.0" r="20.5"/>
    <circle cx="988.8765432098764" cy="248.69753086419752" r="20.934120444167327"/>
    <circle cx="989.6311728395062" cy="253.5679012345679" r="21.355050358314173"/>
    <circle cx="990.3888888888889" cy="258.6111111111111" r="21.75"/>
    <circle cx="991.1496913580247" cy="263.82716049382714" r="22.106969024216347"/>
    <circle cx="991.9135802469136" cy="269.21604938271605" r="22.415111107797443"/>
    <circle cx="992.6805555555555" cy="274.7777777777778" r="22.6650635094611"/>
    <circle cx="993.4506172839506" cy="280.51234567901236" r="22.84923155196477"/>
    <circle cx="994.2237654320987" cy="286.41975308641975" r="22.96201938253052"/>
    <circle cx="995.0" cy="292.5" r="23"/>
    <circle cx="995.6256737201277" cy="297.46069878101275" r="22.569169299510186"/>
    <circle cx="996.2513474402555" cy="302.4213975620255" r="21.31042539667429"/>
    <circle cx="996.8770211603832" cy="307.3820963430383" r="19.32236929465524"/>
    <circle cx="997.502694880511" cy="312.34279512405107" r="16.760731103097747"/>
    <circle cx="998.1283686006386" cy="317.3034939050638" r="13.8261712540873"/>
    <circle cx="998.7540423207664" cy="322.26419268607657" r="10.748562197692708"/>
    <circle cx="999.3797160408942" cy="327.2248914670894" r="7.7689818367503864"/>
    <circle cx="1000.0053897610219" cy="332.18559024810213" r="5.120829206545874"/>
    <circle cx="1000.6310634811496" cy="337.1462890291149" r="3.011541662110986"/>
    <circle cx="1001.2567372012774" cy="342.10698781012763" r="1.6063457180463239"/>
    <circle cx="1001.8824109214052" cy="347.0676865911404" r="1.0153143839713152"/>
    <circle cx="1002" cy="348" r="1"/>
    <circle cx="180.0" cy="317.0" r="5"/>
    <circle cx="1032.0" cy="348.0" r="5"/>
    <circle cx="174.27050983124843" cy="334.6335575687742" r="5"/>
    <circle cx="1026.2705098312483" cy="365.6335575687742" r="5"/>
    <circle cx="159.27050983124843" cy="345.5316954888546" r="5"/>
    <circle cx="1011.2705098312484" cy="376.5316954888546" r="5"/>
    <circle cx="140.72949016875157" cy="345.5316954888546" r="5"/>
    <circle cx="992.7294901687516" cy="376.5316954888546" r="5"/>
    <circle cx="125.72949016875158" cy="334.6335575687742" r="5"/>
    <circle cx="977.7294901687516" cy="365.6335575687742" r="5"/>
    <circle cx="120.0" cy="317.0" r="5"/>
    <circle cx="972.0" cy="348.0" r="5"/>
    <circle cx="125.72949016875157" cy="299.36644243122583" r="5"/>
    <circle cx="977.7294901687516" cy="330.36644243122583" r="5"/>
    <circle cx="140.72949016875157" cy="288.4683045111454" r="5"/>
    <circle cx="992.7294901687516" cy="319.4683045111454" r="5"/>
    <circle cx="159.2705098312484" cy="288.4683045111454" r="5"/>
    <circle cx="1011.2705098312484" cy="319.4683045111454" r="5"/>
    <circle cx="174.27050983124843" cy="299.3664424312258" r="5"/>
    <circle cx="1026.2705098312483" cy="330.3664424312258" r="5"/>
    <circle cx="921" cy="592" r="50"/>
    <circle cx="488" cy="261" r="50"/>
    <circle cx="451" cy="436" r="50"/>
  </g>
</svg>
