<svg version="1.1" width="1630" height="1060" xmlns="http://www.w3.org/2000/svg">
  <!-- Seed: 7327525469434984680 -->
  <g stroke="black" fill="none">
    <circle cx="181" cy="435.0" r="1"/>
    <circle cx="185.0" cy="431.0" r="1.0389207677077774"/>
    <circle cx="188.0" cy="428.0" r="1.1554500206528089"/>
    <circle cx="192.0" cy="424.0" r="1.3488900037604714"/>
    <circle cx="195.0" cy="421.0" r="1.6180824350849314"/>
    <circle cx="199.0" cy="417.0" r="1.9614154413818392"/>
    <circle cx="202.0" cy="414.0" r="2.3768332096997353"/>
    <circle cx="206.0" cy="410.0" r="2.86184829719825"/>
    <circle cx="209.0" cy="407.0" r="3.4135565254842613"/>
    <circle cx="213.0" cy="403.0" r="4.028654370281527"/>
    <circle cx="216.0" cy="399.0" r="4.7034587423077525"/>
    <circle cx="220.0" cy="396.0" r="5.433929040914964"/>
    <circle cx="223.0" cy="392.0" r="6.215691348440158"/>
    <circle cx="227.0" cy="389.0" r="7.044064620395044"/>
    <circle cx="230.0" cy="385.0" r="7.914088714672996"/>
    <circle cx="234.0" cy="382.0" r="8.820554091939616"/>
    <circle cx="237.0" cy="378.0" r="9.758033009366638"/>
    <circle cx="241.0" cy="374.0" r="10.720912020926963"/>
    <circle cx="244.0" cy="371.0" r="11.703425589645274"/>
    <circle cx="248.0" cy="367.0" r="12.69969061054036"/>
    <circle cx="251.0" cy="364.0" r="13.703741637542429"/>
    <circle cx="255.0" cy="360.0" r="14.709566603453226"/>
    <circle cx="258.0" cy="357.0" r="15.7111428190646"/>
    <circle cx="262.0" cy="353.0" r="16.70247303587972"/>
    <circle cx="265.0" cy="350.0" r="17.677621356500076"/>
    <circle cx="269.0" cy="346.0" r="18.630748777653736"/>
    <circle cx="272.0" cy="342.0" r="19.55614815303999"/>
    <circle cx="276.0" cy="339.0" r="20.448278366639403"/>
    <circle cx="279.0" cy="335.0" r="21.301797511866038"/>
    <circle cx="283.0" cy="332.0" r="22.11159487789136"/>
    <circle cx="286.0" cy="328.0" r="22.872821551611754"/>
    <circle cx="290.0" cy="325.0" r="23.58091945202094"/>
    <circle cx="293.0" cy="321.0" r="24.23164862313489"/>
    <circle cx="297.0" cy="318.0" r="24.82111262204444"/>
    <circle cx="300.0" cy="314.0" r="25.34578185007671"/>
    <circle cx="304.0" cy="310.0" r="25.802514687362837"/>
    <circle cx="307.0" cy="307.0" r="26.188576304262117"/>
    <circle cx="311.0" cy="303.0" r="26.501655037003445"/>
    <circle cx="314.0" cy="300.0" r="26.7398762294897"/>
    <circle cx="318.0" cy="296.0" r="26.90181345838306"/>
    <circle cx="321.0" cy="293.0" r="26.98649707425753"/>
    <circle cx="324.0" cy="290.0" r="27"/>
    <circle cx="332.0" cy="282.0" r="27.05"/>
    <circle cx="341.0" cy="273.0" r="27.18"/>
    <circle cx="349.0" cy="266.0" r="27.41"/>
    <circle cx="357.0" cy="258.0" r="27.72"/>
    <circle cx="365.0" cy="251.0" r="28.12"/>
    <circle cx="372.0" cy="245.0" r="28.6"/>
    <circle cx="379.0" cy="239.0" r="29.16"/>
    <circle cx="386.0" cy="234.0" r="29.78"/>
    <circle cx="392.0" cy="229.0" r="30.47"/>
    <circle cx="399.0" cy="225.0" r="31.22"/>
    <circle cx="405.0" cy="221.0" r="32.02"/>
    <circle cx="410.0" cy="217.0" r="32.86"/>
    <circle cx="416.0" cy="214.0" r="33.74"/>
    <circle cx="421.0" cy="212.0" r="34.65"/>
    <circle cx="426.0" cy="210.0" r="35.57"/>
    <circle cx="430.0" cy="208.0" r="36.5"/>
    <circle cx="434.0" cy="208.0" r="37.43"/>
    <circle cx="438.0" cy="207.0" r="38.35"/>
    <circle cx="442.0" cy="207.0" r="39.26"/>
    <circle cx="446.0" cy="208.0" r="40.14"/>
    <circle cx="449.0" cy="209.0" r="40.98"/>
    <circle cx="452.0" cy="210.0" r="41.78"/>
    <circle cx="454.0" cy="212.0" r="42.53"/>
    <circle cx="457.0" cy="214.0" r="43.22"/>
    <circle cx="459.0" cy="217.0" r="43.84"/>
    <circle cx="460.0" cy="221.0" r="44.4"/>
    <circle cx="462.0" cy="225.0" r="44.88"/>
    <circle cx="463.0" cy="229.0" r="45.28"/>
    <circle cx="464.0" cy="234.0" r="45.59"/>
    <circle cx="465.0" cy="239.0" r="45.82"/>
    <circle cx="465.0" cy="245.0" r="45.95"/>
    <circle cx="465.0" cy="252.0" r="46"/>
    <circle cx="465.0" cy="257.0" r="45.97"/>
    <circle cx="465.0" cy="262.0" r="45.88"/>
    <circle cx="465.0" cy="266.0" r="45.74"/>
    <circle cx="465.0" cy="271.0" r="45.53"/>
    <circle cx="465.0" cy="276.0" r="45.27"/>
    <circle cx="465.0" cy="281.0" r="44.96"/>
    <circle cx="465.0" cy="286.0" r="44.59"/>
    <circle cx="465.0" cy="291.0" r="44.18"/>
    <circle cx="465.0" cy="296.0" r="43.71"/>
    <circle cx="465.0" cy="301.0" r="43.2"/>
    <circle cx="466.0" cy="306.0" r="42.64"/>
    <circle cx="466.0" cy="310.0" r="42.05"/>
    <circle cx="466.0" cy="315.0" r="41.41"/>
    <circle cx="466.0" cy="320.0" r="40.75"/>
    <circle cx="466.0" cy="325.0" r="40.06"/>
    <circle cx="466.0" cy="329.0" r="39.34"/>
    <circle cx="467.0" cy="334.0" r="38.59"/>
    <circle cx="467.0" cy="339.0" r="37.84"/>
    <circle cx="467.0" cy="343.0" r="37.06"/>
    <circle cx="467.0" cy="348.0" r="36.28"/>
    <circle cx="468.0" cy="353.0" r="35.5"/>
    <circle cx="468.0" cy="357.0" r="34.72"/>
    <circle cx="468.0" cy="362.0" r="33.94"/>
    <circle cx="469.0" cy="367.0" r="33.16"/>
    <circle cx="469.0" cy="371.0" r="32.41"/>
    <circle cx="470.0" cy="376.0" r="31.66"/>
    <circle cx="470.0" cy="380.0" r="30.94"/>
    <circle cx="470.0" cy="385.0" r="30.25"/>
    <circle cx="471.0" cy="389.0" r="29.59"/>
    <circle cx="471.0" cy="394.0" r="28.95"/>
    <circle cx="472.0" cy="398.0" r="28.36"/>
    <circle cx="472.0" cy="402.0" r="27.8"/>
    <circle cx="473.0" cy="407.0" r="27.29"/>
    <circle cx="473.0" cy="411.0" r="26.82"/>
    <circle cx="474.0" cy="416.0" r="26.41"/>
    <circle cx="474.0" cy="420.0" r="26.04"/>
    <circle cx="475.0" cy="424.0" r="25.73"/>
    <circle cx="475.0" cy="428.0" r="25.47"/>
    <circle cx="476.0" cy="433.0" r="25.26"/>
    <circle cx="477.0" cy="437.0" r="25.12"/>
    <circle cx="477.0" cy="441.0" r="25.03"/>
    <circle cx="478.0" cy="446.0" r="25"/>
    <circle cx="479.0" cy="450.0" r="25.01"/>
    <circle cx="479.0" cy="454.0" r="25.06"/>
    <circle cx="480.0" cy="459.0" r="25.12"/>
    <circle cx="481.0" cy="463.0" r="25.22"/>
    <circle cx="482.0" cy="468.0" r="25.34"/>
    <circle cx="482.0" cy="472.0" r="25.49"/>
    <circle cx="483.0" cy="477.0" r="25.66"/>
    <circle cx="484.0" cy="481.0" r="25.86"/>
    <circle cx="485.0" cy="485.0" r="26.08"/>
    <circle cx="486.0" cy="490.0" r="26.32"/>
    <circle cx="487.0" cy="494.0" r="26.58"/>
    <circle cx="488.0" cy="499.0" r="26.85"/>
    <circle cx="488.0" cy="503.0" r="27.15"/>
    <circle cx="489.0" cy="508.0" r="27.46"/>
    <circle cx="490.0" cy="512.0" r="27.78"/>
    <circle cx="491.0" cy="517.0" r="28.11"/>
    <circle cx="492.0" cy="521.0" r="28.45"/>
    <circle cx="493.0" cy="526.0" r="28.8"/>
    <circle cx="494.0" cy="530.0" r="29.15"/>
    <circle cx="495.0" cy="535.0" r="29.5"/>
    <circle cx="496.0" cy="539.0" r="29.85"/>
    <circle cx="497.0" cy="544.0" r="30.2"/>
    <circle cx="498.0" cy="548.0" r="30.55"/>
    <circle cx="499.0" cy="553.0" r="30.89"/>
    <circle cx="501.0" cy="557.0" r="31.22"/>
    <circle cx="502.0" cy="562.0" r="31.54"/>
    <circle cx="503.0" cy="566.0" r="31.85"/>
    <circle cx="504.0" cy="571.0" r="32.15"/>
    <circle cx="505.0" cy="575.0" r="32.42"/>
    <circle cx="506.0" cy="580.0" r="32.68"/>
    <circle cx="508.0" cy="584.0" r="32.92"/>
    <circle cx="509.0" cy="589.0" r="33.14"/>
    <circle cx="510.0" cy="593.0" r="33.34"/>
    <circle cx="511.0" cy="598.0" r="33.51"/>
    <circle cx="512.0" cy="602.0" r="33.66"/>
    <circle cx="514.0" cy="607.0" r="33.78"/>
    <circle cx="515.0" cy="611.0" r="33.88"/>
    <circle cx="516.0" cy="616.0" r="33.94"/>
    <circle cx="518.0" cy="620.0" r="33.99"/>
    <circle cx="519.0" cy="625.0" r="34"/>
    <circle cx="520.0" cy="629.0" r="33.96"/>
    <circle cx="521.0" cy="633.0" r="33.86"/>
    <circle cx="522.0" cy="637.0" r="33.68"/>
    <circle cx="524.0" cy="642.0" r="33.43"/>
    <circle cx="525.0" cy="646.0" r="33.12"/>
    <circle cx="526.0" cy="650.0" r="32.73"/>
    <circle cx="527.0" cy="654.0" r="32.29"/>
    <circle cx="528.0" cy="659.0" r="31.78"/>
    <circle cx="528.0" cy="663.0" r="31.21"/>
    <circle cx="529.0" cy="667.0" r="30.58"/>
    <circle cx="530.0" cy="672.0" r="29.9"/>
    <circle cx="531.0" cy="676.0" r="29.17"/>
    <circle cx="532.0" cy="680.0" r="28.39"/>
    <circle cx="532.0" cy="685.0" r="27.57"/>
    <circle cx="533.0" cy="689.0" r="26.71"/>
    <circle cx="533.0" cy="694.0" r="25.82"/>
    <circle cx="534.0" cy="698.0" r="24.89"/>
    <circle cx="534.0" cy="703.0" r="23.94"/>
    <circle cx="535.0" cy="707.0" r="22.98"/>
    <circle cx="535.0" cy="712.0" r="21.99"/>
    <circle cx="536.0" cy="716.0" r="21.0"/>
    <circle cx="536.0" cy="721.0" r="20.0"/>
    <circle cx="536.0" cy="725.0" r="19.0"/>
    <circle cx="537.0" cy="730.0" r="18.01"/>
    <circle cx="537.0" cy="734.0" r="17.02"/>
    <circle cx="537.0" cy="739.0" r="16.06"/>
    <circle cx="537.0" cy="744.0" r="15.11"/>
    <circle cx="537.0" cy="748.0" r="14.18"/>
    <circle cx="537.0" cy="753.0" r="13.29"/>
    <circle cx="537.0" cy="758.0" r="12.43"/>
    <circle cx="537.0" cy="762.0" r="11.61"/>
    <circle cx="537.0" cy="767.0" r="10.83"/>
    <circle cx="537.0" cy="772.0" r="10.1"/>
    <circle cx="537.0" cy="777.0" r="9.42"/>
    <circle cx="537.0" cy="781.0" r="8.79"/>
    <circle cx="537.0" cy="786.0" r="8.22"/>
    <circle cx="536.0" cy="791.0" r="7.71"/>
    <circle cx="536.0" cy="796.0" r="7.27"/>
    <circle cx="536.0" cy="801.0" r="6.88"/>
    <circle cx="535.0" cy="806.0" r="6.57"/>
    <circle cx="535.0" cy="811.0" r="6.32"/>
    <circle cx="535.0" cy="816.0" r="6.14"/>
    <circle cx="534.0" cy="821.0" r="6.04"/>
    <circle cx="534.0" cy="826.0" r="6"/>
    <circle cx="532.0" cy="847.0" r="7.51"/>
    <circle cx="531.0" cy="862.0" r="11.85"/>
    <circle cx="533.0" cy="872.0" r="18.5"/>
    <circle cx="535.0" cy="876.0" r="26.66"/>
    <circle cx="540.0" cy="874.0" r="35.34"/>
    <circle cx="546.0" cy="866.0" r="43.5"/>
    <circle cx="554.0" cy="852.0" r="50.15"/>
    <circle cx="563.0" cy="832.0" r="54.49"/>
    <circle cx="574.0" cy="806.0" r="56"/>
    <circle cx="576.0" cy="801.0" r="55.96"/>
    <circle cx="578.0" cy="796.0" r="55.83"/>
    <circle cx="580.0" cy="792.0" r="55.62"/>
    <circle cx="582.0" cy="787.0" r="55.33"/>
    <circle cx="584.0" cy="782.0" r="54.95"/>
    <circle cx="586.0" cy="778.0" r="54.49"/>
    <circle cx="588.0" cy="773.0" r="53.96"/>
    <circle cx="590.0" cy="768.0" r="53.34"/>
    <circle cx="591.0" cy="764.0" r="52.65"/>
    <circle cx="593.0" cy="759.0" r="51.89"/>
    <circle cx="595.0" cy="754.0" r="51.05"/>
    <circle cx="596.0" cy="750.0" r="50.15"/>
    <circle cx="598.0" cy="745.0" r="49.18"/>
    <circle cx="600.0" cy="741.0" r="48.16"/>
    <circle cx="601.0" cy="736.0" r="47.07"/>
    <circle cx="603.0" cy="731.0" r="45.93"/>
    <circle cx="604.0" cy="727.0" r="44.74"/>
    <circle cx="606.0" cy="722.0" r="43.5"/>
    <circle cx="607.0" cy="718.0" r="42.22"/>
    <circle cx="609.0" cy="713.0" r="40.9"/>
    <circle cx="610.0" cy="709.0" r="39.55"/>
    <circle cx="612.0" cy="705.0" r="38.17"/>
    <circle cx="613.0" cy="700.0" r="36.77"/>
    <circle cx="614.0" cy="696.0" r="35.34"/>
    <circle cx="616.0" cy="691.0" r="33.9"/>
    <circle cx="617.0" cy="687.0" r="32.45"/>
    <circle cx="618.0" cy="682.0" r="31.0"/>
    <circle cx="620.0" cy="678.0" r="29.55"/>
    <circle cx="621.0" cy="674.0" r="28.1"/>
    <circle cx="622.0" cy="669.0" r="26.66"/>
    <circle cx="623.0" cy="665.0" r="25.23"/>
    <circle cx="624.0" cy="661.0" r="23.83"/>
    <circle cx="626.0" cy="657.0" r="22.45"/>
    <circle cx="627.0" cy="652.0" r="21.1"/>
    <circle cx="628.0" cy="648.0" r="19.78"/>
    <circle cx="629.0" cy="644.0" r="18.5"/>
    <circle cx="630.0" cy="640.0" r="17.26"/>
    <circle cx="631.0" cy="635.0" r="16.07"/>
    <circle cx="632.0" cy="631.0" r="14.93"/>
    <circle cx="633.0" cy="627.0" r="13.84"/>
    <circle cx="634.0" cy="623.0" r="12.82"/>
    <circle cx="634.0" cy="619.0" r="11.85"/>
    <circle cx="635.0" cy="615.0" r="10.95"/>
    <circle cx="636.0" cy="610.0" r="10.11"/>
    <circle cx="637.0" cy="606.0" r="9.35"/>
    <circle cx="638.0" cy="602.0" r="8.66"/>
    <circle cx="638.0" cy="598.0" r="8.04"/>
    <circle cx="639.0" cy="594.0" r="7.51"/>
    <circle cx="640.0" cy="590.0" r="7.05"/>
    <circle cx="641.0" cy="586.0" r="6.67"/>
    <circle cx="641.0" cy="582.0" r="6.38"/>
    <circle cx="642.0" cy="578.0" r="6.17"/>
    <circle cx="642.0" cy="574.0" r="6.04"/>
    <circle cx="643.0" cy="570.0" r="6"/>
    <circle cx="644.0" cy="566.0" r="6.03"/>
    <circle cx="644.0" cy="562.0" r="6.12"/>
    <circle cx="645.0" cy="558.0" r="6.28"/>
    <circle cx="645.0" cy="554.0" r="6.49"/>
    <circle cx="646.0" cy="550.0" r="6.77"/>
    <circle cx="646.0" cy="546.0" r="7.1"/>
    <circle cx="647.0" cy="542.0" r="7.5"/>
    <circle cx="648.0" cy="538.0" r="7.95"/>
    <circle cx="648.0" cy="534.0" r="8.46"/>
    <circle cx="649.0" cy="530.0" r="9.02"/>
    <circle cx="650.0" cy="526.0" r="9.63"/>
    <circle cx="650.0" cy="522.0" r="10.29"/>
    <circle cx="651.0" cy="517.0" r="11.0"/>
    <circle cx="652.0" cy="513.0" r="11.76"/>
    <circle cx="652.0" cy="509.0" r="12.56"/>
    <circle cx="653.0" cy="505.0" r="13.4"/>
    <circle cx="654.0" cy="500.0" r="14.28"/>
    <circle cx="654.0" cy="496.0" r="15.19"/>
    <circle cx="655.0" cy="492.0" r="16.13"/>
    <circle cx="656.0" cy="487.0" r="17.11"/>
    <circle cx="656.0" cy="483.0" r="18.11"/>
    <circle cx="657.0" cy="479.0" r="19.13"/>
    <circle cx="658.0" cy="474.0" r="20.17"/>
    <circle cx="659.0" cy="470.0" r="21.23"/>
    <circle cx="660.0" cy="465.0" r="22.3"/>
    <circle cx="660.0" cy="461.0" r="23.37"/>
    <circle cx="661.0" cy="456.0" r="24.46"/>
    <circle cx="662.0" cy="452.0" r="25.54"/>
    <circle cx="663.0" cy="447.0" r="26.63"/>
    <circle cx="664.0" cy="442.0" r="27.7"/>
    <circle cx="664.0" cy="438.0" r="28.77"/>
    <circle cx="665.0" cy="433.0" r="29.83"/>
    <circle cx="666.0" cy="428.0" r="30.87"/>
    <circle cx="667.0" cy="424.0" r="31.89"/>
    <circle cx="668.0" cy="419.0" r="32.89"/>
    <circle cx="669.0" cy="414.0" r="33.87"/>
    <circle cx="670.0" cy="410.0" r="34.81"/>
    <circle cx="670.0" cy="405.0" r="35.72"/>
    <circle cx="671.0" cy="400.0" r="36.6"/>
    <circle cx="672.0" cy="395.0" r="37.44"/>
    <circle cx="673.0" cy="390.0" r="38.24"/>
    <circle cx="674.0" cy="385.0" r="39.0"/>
    <circle cx="675.0" cy="380.0" r="39.71"/>
    <circle cx="676.0" cy="375.0" r="40.37"/>
    <circle cx="677.0" cy="370.0" r="40.98"/>
    <circle cx="678.0" cy="365.0" r="41.54"/>
    <circle cx="679.0" cy="360.0" r="42.05"/>
    <circle cx="680.0" cy="355.0" r="42.5"/>
    <circle cx="681.0" cy="350.0" r="42.9"/>
    <circle cx="682.0" cy="345.0" r="43.23"/>
    <circle cx="683.0" cy="340.0" r="43.51"/>
    <circle cx="684.0" cy="335.0" r="43.72"/>
    <circle cx="685.0" cy="330.0" r="43.88"/>
    <circle cx="686.0" cy="325.0" r="43.97"/>
    <circle cx="687.0" cy="320.0" r="44"/>
    <circle cx="691.0" cy="302.0" r="43.86"/>
    <circle cx="694.0" cy="287.0" r="43.43"/>
    <circle cx="697.0" cy="273.0" r="42.74"/>
    <circle cx="700.0" cy="261.0" r="41.8"/>
    <circle cx="702.0" cy="251.0" r="40.67"/>
    <circle cx="705.0" cy="242.0" r="39.37"/>
    <circle cx="707.0" cy="235.0" r="37.96"/>
    <circle cx="709.0" cy="230.0" r="36.5"/>
    <circle cx="711.0" cy="227.0" r="35.04"/>
    <circle cx="712.0" cy="225.0" r="33.63"/>
    <circle cx="714.0" cy="225.0" r="32.33"/>
    <circle cx="715.0" cy="226.0" r="31.2"/>
    <circle cx="716.0" cy="229.0" r="30.26"/>
    <circle cx="716.0" cy="234.0" r="29.57"/>
    <circle cx="717.0" cy="241.0" r="29.14"/>
    <circle cx="717.0" cy="249.0" r="29"/>
    <circle cx="717.0" cy="254.0" r="29.01"/>
    <circle cx="717.0" cy="259.0" r="29.03"/>
    <circle cx="717.0" cy="264.0" r="29.07"/>
    <circle cx="717.0" cy="268.0" r="29.13"/>
    <circle cx="718.0" cy="273.0" r="29.2"/>
    <circle cx="718.0" cy="278.0" r="29.29"/>
    <circle cx="718.0" cy="283.0" r="29.39"/>
    <circle cx="718.0" cy="287.0" r="29.5"/>
    <circle cx="718.0" cy="292.0" r="29.62"/>
    <circle cx="718.0" cy="297.0" r="29.75"/>
    <circle cx="719.0" cy="301.0" r="29.89"/>
    <circle cx="719.0" cy="306.0" r="30.04"/>
    <circle cx="719.0" cy="311.0" r="30.19"/>
    <circle cx="719.0" cy="315.0" r="30.34"/>
    <circle cx="720.0" cy="320.0" r="30.5"/>
    <circle cx="720.0" cy="324.0" r="30.66"/>
    <circle cx="720.0" cy="329.0" r="30.81"/>
    <circle cx="720.0" cy="333.0" r="30.96"/>
    <circle cx="721.0" cy="338.0" r="31.11"/>
    <circle cx="721.0" cy="342.0" r="31.25"/>
    <circle cx="721.0" cy="347.0" r="31.38"/>
    <circle cx="722.0" cy="351.0" r="31.5"/>
    <circle cx="722.0" cy="356.0" r="31.61"/>
    <circle cx="722.0" cy="360.0" r="31.71"/>
    <circle cx="723.0" cy="364.0" r="31.8"/>
    <circle cx="723.0" cy="369.0" r="31.87"/>
    <circle cx="724.0" cy="373.0" r="31.93"/>
    <circle cx="724.0" cy="377.0" r="31.97"/>
    <circle cx="725.0" cy="382.0" r="31.99"/>
    <circle cx="725.0" cy="386.0" r="32"/>
    <circle cx="726.0" cy="391.0" r="31.99"/>
    <circle cx="726.0" cy="395.0" r="31.97"/>
    <circle cx="726.0" cy="400.0" r="31.94"/>
    <circle cx="727.0" cy="405.0" r="31.89"/>
    <circle cx="727.0" cy="410.0" r="31.84"/>
    <circle cx="727.0" cy="414.0" r="31.77"/>
    <circle cx="728.0" cy="419.0" r="31.69"/>
    <circle cx="728.0" cy="424.0" r="31.6"/>
    <circle cx="728.0" cy="428.0" r="31.5"/>
    <circle cx="728.0" cy="433.0" r="31.4"/>
    <circle cx="729.0" cy="438.0" r="31.29"/>
    <circle cx="729.0" cy="442.0" r="31.17"/>
    <circle cx="729.0" cy="447.0" r="31.06"/>
    <circle cx="729.0" cy="451.0" r="30.94"/>
    <circle cx="729.0" cy="456.0" r="30.83"/>
    <circle cx="729.0" cy="461.0" r="30.71"/>
    <circle cx="729.0" cy="465.0" r="30.6"/>
    <circle cx="729.0" cy="470.0" r="30.5"/>
    <circle cx="728.0" cy="474.0" r="30.4"/>
    <circle cx="728.0" cy="479.0" r="30.31"/>
    <circle cx="728.0" cy="483.0" r="30.23"/>
    <circle cx="728.0" cy="488.0" r="30.16"/>
    <circle cx="727.0" cy="492.0" r="30.11"/>
    <circle cx="727.0" cy="497.0" r="30.06"/>
    <circle cx="727.0" cy="502.0" r="30.03"/>
    <circle cx="726.0" cy="506.0" r="30.01"/>
    <circle cx="726.0" cy="510.0" r="30"/>
    <circle cx="726.0" cy="516.0" r="29.97"/>
    <circle cx="725.0" cy="521.0" r="29.87"/>
    <circle cx="725.0" cy="526.0" r="29.71"/>
    <circle cx="724.0" cy="531.0" r="29.49"/>
    <circle cx="724.0" cy="536.0" r="29.21"/>
    <circle cx="724.0" cy="541.0" r="28.89"/>
    <circle cx="723.0" cy="546.0" r="28.52"/>
    <circle cx="723.0" cy="551.0" r="28.11"/>
    <circle cx="723.0" cy="556.0" r="27.67"/>
    <circle cx="723.0" cy="561.0" r="27.21"/>
    <circle cx="723.0" cy="565.0" r="26.74"/>
    <circle cx="723.0" cy="570.0" r="26.26"/>
    <circle cx="723.0" cy="575.0" r="25.79"/>
    <circle cx="723.0" cy="579.0" r="25.33"/>
    <circle cx="723.0" cy="584.0" r="24.89"/>
    <circle cx="723.0" cy="588.0" r="24.48"/>
    <circle cx="724.0" cy="593.0" r="24.11"/>
    <circle cx="724.0" cy="597.0" r="23.79"/>
    <circle cx="724.0" cy="601.0" r="23.51"/>
    <circle cx="725.0" cy="606.0" r="23.29"/>
    <circle cx="725.0" cy="610.0" r="23.13"/>
    <circle cx="726.0" cy="614.0" r="23.03"/>
    <circle cx="726.0" cy="618.0" r="23"/>
    <circle cx="726.0" cy="622.0" r="23.01"/>
    <circle cx="727.0" cy="625.0" r="23.03"/>
    <circle cx="727.0" cy="629.0" r="23.06"/>
    <circle cx="728.0" cy="633.0" r="23.11"/>
    <circle cx="728.0" cy="637.0" r="23.18"/>
    <circle cx="729.0" cy="641.0" r="23.25"/>
    <circle cx="729.0" cy="645.0" r="23.34"/>
    <circle cx="730.0" cy="649.0" r="23.43"/>
    <circle cx="731.0" cy="653.0" r="23.54"/>
    <circle cx="731.0" cy="658.0" r="23.65"/>
    <circle cx="732.0" cy="662.0" r="23.76"/>
    <circle cx="732.0" cy="666.0" r="23.88"/>
    <circle cx="733.0" cy="671.0" r="24.0"/>
    <circle cx="733.0" cy="676.0" r="24.12"/>
    <circle cx="734.0" cy="680.0" r="24.24"/>
    <circle cx="735.0" cy="685.0" r="24.35"/>
    <circle cx="735.0" cy="690.0" r="24.46"/>
    <circle cx="736.0" cy="695.0" r="24.57"/>
    <circle cx="736.0" cy="700.0" r="24.66"/>
    <circle cx="737.0" cy="705.0" r="24.75"/>
    <circle cx="738.0" cy="710.0" r="24.82"/>
    <circle cx="738.0" cy="715.0" r="24.89"/>
    <circle cx="739.0" cy="720.0" r="24.94"/>
    <circle cx="740.0" cy="725.0" r="24.97"/>
    <circle cx="740.0" cy="731.0" r="24.99"/>
    <circle cx="741.0" cy="736.0" r="25"/>
    <circle cx="742.0" cy="741.0" r="25.09"/>
    <circle cx="742.0" cy="746.0" r="25.38"/>
    <circle cx="743.0" cy="752.0" r="25.84"/>
    <circle cx="743.0" cy="757.0" r="26.49"/>
    <circle cx="743.0" cy="762.0" r="27.3"/>
    <circle cx="744.0" cy="767.0" r="28.28"/>
    <circle cx="744.0" cy="772.0" r="29.39"/>
    <circle cx="744.0" cy="776.0" r="30.64"/>
    <circle cx="744.0" cy="781.0" r="32.0"/>
    <circle cx="744.0" cy="786.0" r="33.45"/>
    <circle cx="744.0" cy="791.0" r="34.98"/>
    <circle cx="744.0" cy="796.0" r="36.57"/>
    <circle cx="744.0" cy="800.0" r="38.19"/>
    <circle cx="743.0" cy="805.0" r="39.81"/>
    <circle cx="743.0" cy="809.0" r="41.43"/>
    <circle cx="743.0" cy="814.0" r="43.02"/>
    <circle cx="742.0" cy="818.0" r="44.55"/>
    <circle cx="742.0" cy="823.0" r="46.0"/>
    <circle cx="741.0" cy="827.0" r="47.36"/>
    <circle cx="740.0" cy="831.0" r="48.61"/>
    <circle cx="740.0" cy="836.0" r="49.72"/>
    <circle cx="739.0" cy="840.0" r="50.7"/>
    <circle cx="738.0" cy="844.0" r="51.51"/>
    <circle cx="737.0" cy="848.0" r="52.16"/>
    <circle cx="736.0" cy="852.0" r="52.62"/>
    <circle cx="735.0" cy="856.0" r="52.91"/>
    <circle cx="734.0" cy="860.0" r="53"/>
    <circle cx="730.0" cy="875.0" r="51.19"/>
    <circle cx="729.0" cy="885.0" r="46.25"/>
    <circle cx="732.0" cy="890.0" r="39.5"/>
    <circle cx="739.0" cy="890.0" r="32.75"/>
    <circle cx="748.0" cy="884.0" r="27.81"/>
    <circle cx="762.0" cy="874.0" r="26"/>
    <circle cx="765.0" cy="871.0" r="25.97"/>
    <circle cx="769.0" cy="867.0" r="25.88"/>
    <circle cx="772.0" cy="864.0" r="25.73"/>
    <circle cx="775.0" cy="860.0" r="25.53"/>
    <circle cx="778.0" cy="857.0" r="25.28"/>
    <circle cx="781.0" cy="853.0" r="24.97"/>
    <circle cx="784.0" cy="849.0" r="24.63"/>
    <circle cx="787.0" cy="846.0" r="24.25"/>
    <circle cx="790.0" cy="842.0" r="23.84"/>
    <circle cx="792.0" cy="838.0" r="23.41"/>
    <circle cx="794.0" cy="834.0" r="22.96"/>
    <circle cx="797.0" cy="830.0" r="22.5"/>
    <circle cx="799.0" cy="825.0" r="22.04"/>
    <circle cx="801.0" cy="821.0" r="21.59"/>
    <circle cx="802.0" cy="817.0" r="21.16"/>
    <circle cx="804.0" cy="812.0" r="20.75"/>
    <circle cx="806.0" cy="808.0" r="20.37"/>
    <circle cx="807.0" cy="803.0" r="20.03"/>
    <circle cx="808.0" cy="799.0" r="19.72"/>
    <circle cx="810.0" cy="794.0" r="19.47"/>
    <circle cx="811.0" cy="789.0" r="19.27"/>
    <circle cx="812.0" cy="784.0" r="19.12"/>
    <circle cx="812.0" cy="780.0" r="19.03"/>
    <circle cx="813.0" cy="774.0" r="19"/>
    <circle cx="814.0" cy="770.0" r="19.0"/>
    <circle cx="814.0" cy="765.0" r="18.98"/>
    <circle cx="815.0" cy="760.0" r="18.96"/>
    <circle cx="816.0" cy="755.0" r="18.94"/>
    <circle cx="817.0" cy="751.0" r="18.9"/>
    <circle cx="818.0" cy="746.0" r="18.86"/>
    <circle cx="818.0" cy="742.0" r="18.82"/>
    <circle cx="820.0" cy="737.0" r="18.77"/>
    <circle cx="821.0" cy="733.0" r="18.71"/>
    <circle cx="822.0" cy="728.0" r="18.65"/>
    <circle cx="823.0" cy="724.0" r="18.59"/>
    <circle cx="824.0" cy="719.0" r="18.53"/>
    <circle cx="826.0" cy="715.0" r="18.47"/>
    <circle cx="827.0" cy="711.0" r="18.41"/>
    <circle cx="829.0" cy="706.0" r="18.35"/>
    <circle cx="830.0" cy="702.0" r="18.29"/>
    <circle cx="832.0" cy="698.0" r="18.23"/>
    <circle cx="833.0" cy="694.0" r="18.18"/>
    <circle cx="835.0" cy="690.0" r="18.14"/>
    <circle cx="837.0" cy="686.0" r="18.1"/>
    <circle cx="839.0" cy="682.0" r="18.06"/>
    <circle cx="841.0" cy="678.0" r="18.04"/>
    <circle cx="843.0" cy="674.0" r="18.02"/>
    <circle cx="845.0" cy="670.0" r="18.0"/>
    <circle cx="847.0" cy="666.0" r="18"/>
    <circle cx="849.0" cy="662.0" r="18.07"/>
    <circle cx="852.0" cy="658.0" r="18.28"/>
    <circle cx="854.0" cy="654.0" r="18.62"/>
    <circle cx="856.0" cy="649.0" r="19.09"/>
    <circle cx="859.0" cy="645.0" r="19.68"/>
    <circle cx="861.0" cy="641.0" r="20.38"/>
    <circle cx="863.0" cy="637.0" r="21.17"/>
    <circle cx="866.0" cy="633.0" r="22.05"/>
    <circle cx="868.0" cy="629.0" r="22.99"/>
    <circle cx="870.0" cy="625.0" r="23.97"/>
    <circle cx="872.0" cy="621.0" r="24.99"/>
    <circle cx="875.0" cy="617.0" r="26.01"/>
    <circle cx="877.0" cy="613.0" r="27.03"/>
    <circle cx="879.0" cy="609.0" r="28.01"/>
    <circle cx="881.0" cy="605.0" r="28.95"/>
    <circle cx="884.0" cy="601.0" r="29.83"/>
    <circle cx="886.0" cy="597.0" r="30.62"/>
    <circle cx="888.0" cy="593.0" r="31.32"/>
    <circle cx="890.0" cy="589.0" r="31.91"/>
    <circle cx="892.0" cy="585.0" r="32.38"/>
    <circle cx="895.0" cy="581.0" r="32.72"/>
    <circle cx="897.0" cy="577.0" r="32.93"/>
    <circle cx="899.0" cy="573.0" r="33"/>
    <circle cx="901.0" cy="569.0" r="33.09"/>
    <circle cx="903.0" cy="565.0" r="33.34"/>
    <circle cx="906.0" cy="561.0" r="33.77"/>
    <circle cx="908.0" cy="557.0" r="34.35"/>
    <circle cx="910.0" cy="552.0" r="35.08"/>
    <circle cx="912.0" cy="548.0" r="35.93"/>
    <circle cx="914.0" cy="544.0" r="36.9"/>
    <circle cx="916.0" cy="540.0" r="37.97"/>
    <circle cx="918.0" cy="536.0" r="39.11"/>
    <circle cx="920.0" cy="532.0" r="40.29"/>
    <circle cx="922.0" cy="527.0" r="41.5"/>
    <circle cx="923.0" cy="523.0" r="42.71"/>
    <circle cx="925.0" cy="519.0" r="43.89"/>
    <circle cx="927.0" cy="515.0" r="45.03"/>
    <circle cx="929.0" cy="510.0" r="46.1"/>
    <circle cx="930.0" cy="506.0" r="47.07"/>
    <circle cx="932.0" cy="502.0" r="47.92"/>
    <circle cx="934.0" cy="498.0" r="48.65"/>
    <circle cx="935.0" cy="493.0" r="49.23"/>
    <circle cx="937.0" cy="489.0" r="49.66"/>
    <circle cx="938.0" cy="485.0" r="49.91"/>
    <circle cx="940.0" cy="480.0" r="50"/>
    <circle cx="941.0" cy="477.0" r="50.0"/>
    <circle cx="942.0" cy="473.0" r="50.02"/>
    <circle cx="944.0" cy="469.0" r="50.04"/>
    <circle cx="945.0" cy="465.0" r="50.06"/>
    <circle cx="947.0" cy="461.0" r="50.1"/>
    <circle cx="948.0" cy="457.0" r="50.14"/>
    <circle cx="950.0" cy="453.0" r="50.18"/>
    <circle cx="952.0" cy="449.0" r="50.23"/>
    <circle cx="953.0" cy="445.0" r="50.29"/>
    <circle cx="955.0" cy="441.0" r="50.35"/>
    <circle cx="957.0" cy="437.0" r="50.41"/>
    <circle cx="959.0" cy="433.0" r="50.47"/>
    <circle cx="961.0" cy="428.0" r="50.53"/>
    <circle cx="963.0" cy="424.0" r="50.59"/>
    <circle cx="965.0" cy="420.0" r="50.65"/>
    <circle cx="968.0" cy="416.0" r="50.71"/>
    <circle cx="970.0" cy="411.0" r="50.77"/>
    <circle cx="972.0" cy="407.0" r="50.82"/>
    <circle cx="975.0" cy="403.0" r="50.86"/>
    <circle cx="977.0" cy="398.0" r="50.9"/>
    <circle cx="980.0" cy="394.0" r="50.94"/>
    <circle cx="983.0" cy="389.0" r="50.96"/>
    <circle cx="985.0" cy="385.0" r="50.98"/>
    <circle cx="988.0" cy="380.0" r="51.0"/>
    <circle cx="991.0" cy="376.0" r="51"/>
    <circle cx="994.0" cy="371.0" r="51.0"/>
    <circle cx="997.0" cy="366.0" r="51.0"/>
    <circle cx="999.0" cy="362.0" r="51.0"/>
    <circle cx="1002.0" cy="357.0" r="51.0"/>
    <circle cx="1005.0" cy="353.0" r="51.0"/>
    <circle cx="1007.0" cy="349.0" r="51.0"/>
    <circle cx="1010.0" cy="344.0" r="51.0"/>
    <circle cx="1012.0" cy="340.0" r="51.0"/>
    <circle cx="1014.0" cy="335.0" r="51.0"/>
    <circle cx="1016.0" cy="331.0" r="51.0"/>
    <circle cx="1019.0" cy="327.0" r="51.0"/>
    <circle cx="1021.0" cy="323.0" r="51.0"/>
    <circle cx="1023.0" cy="319.0" r="51.0"/>
    <circle cx="1025.0" cy="314.0" r="51.0"/>
    <circle cx="1027.0" cy="310.0" r="51.0"/>
    <circle cx="1028.0" cy="306.0" r="51.0"/>
    <circle cx="1030.0" cy="302.0" r="51.0"/>
    <circle cx="1032.0" cy="298.0" r="51.0"/>
    <circle cx="1034.0" cy="294.0" r="51.0"/>
    <circle cx="1035.0" cy="290.0" r="51.0"/>
    <circle cx="1037.0" cy="286.0" r="51.0"/>
    <circle cx="1038.0" cy="282.0" r="51.0"/>
    <circle cx="1039.0" cy="279.0" r="51.0"/>
    <circle cx="1041.0" cy="275.0" r="51.0"/>
    <circle cx="1042.0" cy="271.0" r="51"/>
    <circle cx="1044.0" cy="266.0" r="50.79"/>
    <circle cx="1045.0" cy="262.0" r="50.17"/>
    <circle cx="1047.0" cy="257.0" r="49.15"/>
    <circle cx="1049.0" cy="253.0" r="47.75"/>
    <circle cx="1050.0" cy="248.0" r="46.02"/>
    <circle cx="1052.0" cy="244.0" r="43.99"/>
    <circle cx="1054.0" cy="239.0" r="41.72"/>
    <circle cx="1057.0" cy="235.0" r="39.25"/>
    <circle cx="1059.0" cy="231.0" r="36.66"/>
    <circle cx="1061.0" cy="227.0" r="34.0"/>
    <circle cx="1063.0" cy="223.0" r="31.34"/>
    <circle cx="1066.0" cy="219.0" r="28.75"/>
    <circle cx="1068.0" cy="215.0" r="26.28"/>
    <circle cx="1071.0" cy="211.0" r="24.01"/>
    <circle cx="1074.0" cy="207.0" r="21.98"/>
    <circle cx="1076.0" cy="203.0" r="20.25"/>
    <circle cx="1079.0" cy="199.0" r="18.85"/>
    <circle cx="1082.0" cy="195.0" r="17.83"/>
    <circle cx="1085.0" cy="192.0" r="17.21"/>
    <circle cx="1088.0" cy="188.0" r="17"/>
    <circle cx="1094.0" cy="181.0" r="16.67"/>
    <circle cx="1100.0" cy="177.0" r="15.71"/>
    <circle cx="1105.0" cy="176.0" r="14.25"/>
    <circle cx="1109.0" cy="177.0" r="12.46"/>
    <circle cx="1112.0" cy="181.0" r="10.54"/>
    <circle cx="1115.0" cy="188.0" r="8.75"/>
    <circle cx="1116.0" cy="197.0" r="7.29"/>
    <circle cx="1117.0" cy="209.0" r="6.33"/>
    <circle cx="1117.0" cy="223.0" r="6"/>
    <circle cx="1117.0" cy="229.0" r="6.13"/>
    <circle cx="1117.0" cy="234.0" r="6.52"/>
    <circle cx="1116.0" cy="240.0" r="7.16"/>
    <circle cx="1116.0" cy="245.0" r="8.04"/>
    <circle cx="1116.0" cy="250.0" r="9.15"/>
    <circle cx="1116.0" cy="256.0" r="10.47"/>
    <circle cx="1116.0" cy="261.0" r="11.98"/>
    <circle cx="1115.0" cy="266.0" r="13.66"/>
    <circle cx="1115.0" cy="271.0" r="15.47"/>
    <circle cx="1115.0" cy="276.0" r="17.4"/>
    <circle cx="1115.0" cy="281.0" r="19.41"/>
    <circle cx="1114.0" cy="286.0" r="21.46"/>
    <circle cx="1114.0" cy="290.0" r="23.54"/>
    <circle cx="1114.0" cy="295.0" r="25.59"/>
    <circle cx="1114.0" cy="299.0" r="27.6"/>
    <circle cx="1113.0" cy="304.0" r="29.53"/>
    <circle cx="1113.0" cy="308.0" r="31.34"/>
    <circle cx="1113.0" cy="313.0" r="33.02"/>
    <circle cx="1112.0" cy="317.0" r="34.53"/>
    <circle cx="1112.0" cy="321.0" r="35.85"/>
    <circle cx="1112.0" cy="325.0" r="36.96"/>
    <circle cx="1111.0" cy="329.0" r="37.84"/>
    <circle cx="1111.0" cy="333.0" r="38.48"/>
    <circle cx="1110.0" cy="337.0" r="38.87"/>
    <circle cx="1110.0" cy="340.0" r="39"/>
    <circle cx="1110.0" cy="345.0" r="39.01"/>
    <circle cx="1109.0" cy="349.0" r="39.02"/>
    <circle cx="1109.0" cy="354.0" r="39.05"/>
    <circle cx="1109.0" cy="358.0" r="39.09"/>
    <circle cx="1109.0" cy="363.0" r="39.13"/>
    <circle cx="1108.0" cy="368.0" r="39.19"/>
    <circle cx="1108.0" cy="372.0" r="39.25"/>
    <circle cx="1109.0" cy="377.0" r="39.32"/>
    <circle cx="1109.0" cy="381.0" r="39.39"/>
    <circle cx="1109.0" cy="386.0" r="39.46"/>
    <circle cx="1109.0" cy="391.0" r="39.54"/>
    <circle cx="1110.0" cy="395.0" r="39.61"/>
    <circle cx="1110.0" cy="400.0" r="39.68"/>
    <circle cx="1111.0" cy="405.0" r="39.75"/>
    <circle cx="1111.0" cy="410.0" r="39.81"/>
    <circle cx="1112.0" cy="415.0" r="39.87"/>
    <circle cx="1113.0" cy="419.0" r="39.91"/>
    <circle cx="1114.0" cy="424.0" r="39.95"/>
    <circle cx="1114.0" cy="429.0" r="39.98"/>
    <circle cx="1115.0" cy="434.0" r="39.99"/>
    <circle cx="1116.0" cy="439.0" r="40"/>
    <circle cx="1117.0" cy="443.0" r="39.89"/>
    <circle cx="1118.0" cy="447.0" r="39.58"/>
    <circle cx="1119.0" cy="451.0" r="39.06"/>
    <circle cx="1120.0" cy="455.0" r="38.34"/>
    <circle cx="1120.0" cy="460.0" r="37.43"/>
    <circle cx="1121.0" cy="464.0" r="36.35"/>
    <circle cx="1121.0" cy="468.0" r="35.12"/>
    <circle cx="1122.0" cy="473.0" r="33.74"/>
    <circle cx="1122.0" cy="477.0" r="32.24"/>
    <circle cx="1122.0" cy="482.0" r="30.64"/>
    <circle cx="1123.0" cy="486.0" r="28.97"/>
    <circle cx="1123.0" cy="491.0" r="27.25"/>
    <circle cx="1123.0" cy="495.0" r="25.5"/>
    <circle cx="1123.0" cy="500.0" r="23.75"/>
    <circle cx="1123.0" cy="505.0" r="22.03"/>
    <circle cx="1123.0" cy="510.0" r="20.36"/>
    <circle cx="1123.0" cy="514.0" r="18.76"/>
    <circle cx="1123.0" cy="519.0" r="17.26"/>
    <circle cx="1123.0" cy="524.0" r="15.88"/>
    <circle cx="1122.0" cy="529.0" r="14.65"/>
    <circle cx="1122.0" cy="534.0" r="13.57"/>
    <circle cx="1122.0" cy="540.0" r="12.66"/>
    <circle cx="1121.0" cy="545.0" r="11.94"/>
    <circle cx="1121.0" cy="550.0" r="11.42"/>
    <circle cx="1120.0" cy="555.0" r="11.11"/>
    <circle cx="1120.0" cy="560.0" r="11"/>
    <circle cx="1119.0" cy="566.0" r="11.03"/>
    <circle cx="1118.0" cy="572.0" r="11.1"/>
    <circle cx="1117.0" cy="577.0" r="11.23"/>
    <circle cx="1117.0" cy="583.0" r="11.4"/>
    <circle cx="1116.0" cy="588.0" r="11.62"/>
    <circle cx="1115.0" cy="594.0" r="11.88"/>
    <circle cx="1115.0" cy="599.0" r="12.17"/>
    <circle cx="1114.0" cy="604.0" r="12.5"/>
    <circle cx="1113.0" cy="609.0" r="12.85"/>
    <circle cx="1113.0" cy="614.0" r="13.22"/>
    <circle cx="1112.0" cy="619.0" r="13.61"/>
    <circle cx="1111.0" cy="623.0" r="14.0"/>
    <circle cx="1111.0" cy="628.0" r="14.39"/>
    <circle cx="1110.0" cy="632.0" r="14.78"/>
    <circle cx="1109.0" cy="637.0" r="15.15"/>
    <circle cx="1109.0" cy="641.0" r="15.5"/>
    <circle cx="1108.0" cy="645.0" r="15.83"/>
    <circle cx="1107.0" cy="650.0" r="16.12"/>
    <circle cx="1107.0" cy="654.0" r="16.38"/>
    <circle cx="1106.0" cy="658.0" r="16.6"/>
    <circle cx="1105.0" cy="661.0" r="16.77"/>
    <circle cx="1105.0" cy="665.0" r="16.9"/>
    <circle cx="1104.0" cy="669.0" r="16.97"/>
    <circle cx="1104.0" cy="672.0" r="17"/>
    <circle cx="1103.0" cy="676.0" r="17.04"/>
    <circle cx="1102.0" cy="679.0" r="17.15"/>
    <circle cx="1102.0" cy="683.0" r="17.32"/>
    <circle cx="1102.0" cy="686.0" r="17.57"/>
    <circle cx="1101.0" cy="690.0" r="17.89"/>
    <circle cx="1101.0" cy="694.0" r="18.26"/>
    <circle cx="1101.0" cy="698.0" r="18.68"/>
    <circle cx="1101.0" cy="702.0" r="19.16"/>
    <circle cx="1101.0" cy="706.0" r="19.68"/>
    <circle cx="1101.0" cy="711.0" r="20.23"/>
    <circle cx="1101.0" cy="715.0" r="20.8"/>
    <circle cx="1101.0" cy="720.0" r="21.4"/>
    <circle cx="1101.0" cy="724.0" r="22.0"/>
    <circle cx="1102.0" cy="729.0" r="22.6"/>
    <circle cx="1102.0" cy="734.0" r="23.2"/>
    <circle cx="1102.0" cy="739.0" r="23.77"/>
    <circle cx="1103.0" cy="744.0" r="24.32"/>
    <circle cx="1103.0" cy="749.0" r="24.84"/>
    <circle cx="1104.0" cy="754.0" r="25.32"/>
    <circle cx="1105.0" cy="760.0" r="25.74"/>
    <circle cx="1105.0" cy="765.0" r="26.11"/>
    <circle cx="1106.0" cy="771.0" r="26.43"/>
    <circle cx="1107.0" cy="777.0" r="26.68"/>
    <circle cx="1108.0" cy="782.0" r="26.85"/>
    <circle cx="1109.0" cy="788.0" r="26.96"/>
    <circle cx="1110.0" cy="794.0" r="27"/>
    <circle cx="1112.0" cy="805.0" r="27.2"/>
    <circle cx="1113.0" cy="815.0" r="27.79"/>
    <circle cx="1115.0" cy="824.0" r="28.75"/>
    <circle cx="1116.0" cy="832.0" r="30.01"/>
    <circle cx="1116.0" cy="840.0" r="31.53"/>
    <circle cx="1117.0" cy="846.0" r="33.22"/>
    <circle cx="1117.0" cy="851.0" r="35.0"/>
    <circle cx="1117.0" cy="855.0" r="36.78"/>
    <circle cx="1117.0" cy="859.0" r="38.47"/>
    <circle cx="1116.0" cy="861.0" r="39.99"/>
    <circle cx="1115.0" cy="863.0" r="41.25"/>
    <circle cx="1114.0" cy="863.0" r="42.21"/>
    <circle cx="1112.0" cy="863.0" r="42.8"/>
    <circle cx="1110.0" cy="862.0" r="43"/>
    <circle cx="1110.0" cy="861.0" r="42.98"/>
    <circle cx="1110.0" cy="860.0" r="42.94"/>
    <circle cx="1110.0" cy="860.0" r="42.86"/>
    <circle cx="1110.0" cy="859.0" r="42.75"/>
    <circle cx="1110.0" cy="858.0" r="42.61"/>
    <circle cx="1110.0" cy="857.0" r="42.44"/>
    <circle cx="1110.0" cy="856.0" r="42.24"/>
    <circle cx="1111.0" cy="855.0" r="42.01"/>
    <circle cx="1112.0" cy="854.0" r="41.75"/>
    <circle cx="1112.0" cy="852.0" r="41.47"/>
    <circle cx="1113.0" cy="851.0" r="41.16"/>
    <circle cx="1114.0" cy="849.0" r="40.82"/>
    <circle cx="1116.0" cy="847.0" r="40.46"/>
    <circle cx="1117.0" cy="846.0" r="40.07"/>
    <circle cx="1118.0" cy="844.0" r="39.66"/>
    <circle cx="1120.0" cy="842.0" r="39.23"/>
    <circle cx="1122.0" cy="840.0" r="38.79"/>
    <circle cx="1124.0" cy="838.0" r="38.32"/>
    <circle cx="1126.0" cy="835.0" r="37.84"/>
    <circle cx="1128.0" cy="833.0" r="37.34"/>
    <circle cx="1130.0" cy="831.0" r="36.83"/>
    <circle cx="1132.0" cy="828.0" r="36.3"/>
    <circle cx="1135.0" cy="825.0" r="35.77"/>
    <circle cx="1138.0" cy="823.0" r="35.23"/>
    <circle cx="1140.0" cy="820.0" r="34.68"/>
    <circle cx="1143.0" cy="817.0" r="34.12"/>
    <circle cx="1146.0" cy="814.0" r="33.56"/>
    <circle cx="1150.0" cy="811.0" r="33.0"/>
    <circle cx="1153.0" cy="808.0" r="32.44"/>
    <circle cx="1156.0" cy="804.0" r="31.88"/>
    <circle cx="1160.0" cy="801.0" r="31.32"/>
    <circle cx="1164.0" cy="797.0" r="30.77"/>
    <circle cx="1168.0" cy="794.0" r="30.23"/>
    <circle cx="1172.0" cy="790.0" r="29.7"/>
    <circle cx="1176.0" cy="786.0" r="29.17"/>
    <circle cx="1180.0" cy="782.0" r="28.66"/>
    <circle cx="1185.0" cy="778.0" r="28.16"/>
    <circle cx="1189.0" cy="774.0" r="27.68"/>
    <circle cx="1194.0" cy="770.0" r="27.21"/>
    <circle cx="1199.0" cy="766.0" r="26.77"/>
    <circle cx="1204.0" cy="761.0" r="26.34"/>
    <circle cx="1209.0" cy="757.0" r="25.93"/>
    <circle cx="1214.0" cy="752.0" r="25.54"/>
    <circle cx="1219.0" cy="747.0" r="25.18"/>
    <circle cx="1225.0" cy="743.0" r="24.84"/>
    <circle cx="1230.0" cy="738.0" r="24.53"/>
    <circle cx="1236.0" cy="733.0" r="24.25"/>
    <circle cx="1242.0" cy="728.0" r="23.99"/>
    <circle cx="1248.0" cy="722.0" r="23.76"/>
    <circle cx="1254.0" cy="717.0" r="23.56"/>
    <circle cx="1260.0" cy="712.0" r="23.39"/>
    <circle cx="1267.0" cy="706.0" r="23.25"/>
    <circle cx="1273.0" cy="701.0" r="23.14"/>
    <circle cx="1280.0" cy="695.0" r="23.06"/>
    <circle cx="1287.0" cy="689.0" r="23.02"/>
    <circle cx="1294.0" cy="684.0" r="23"/>
    <circle cx="1298.0" cy="680.0" r="22.97950657828427"/>
    <circle cx="1302.0" cy="677.0" r="22.91810267319773"/>
    <circle cx="1305.0" cy="674.0" r="22.81601708039892"/>
    <circle cx="1309.0" cy="671.0" r="22.673630178634077"/>
    <circle cx="1313.0" cy="667.0" r="22.49147251241678"/>
    <circle cx="1317.0" cy="664.0" r="22.270222815178396"/>
    <circle cx="1321.0" cy="661.0" r="22.01070548025529"/>
    <circle cx="1325.0" cy="658.0" r="21.713887489136027"/>
    <circle cx="1328.0" cy="655.0" r="21.380874808414212"/>
    <circle cx="1332.0" cy="651.0" r="21.01290826887216"/>
    <circle cx="1336.0" cy="648.0" r="20.61135894205025"/>
    <circle cx="1340.0" cy="645.0" r="20.17772303152925"/>
    <circle cx="1344.0" cy="642.0" r="19.713616297961057"/>
    <circle cx="1348.0" cy="638.0" r="19.220768038620598"/>
    <circle cx="1351.0" cy="635.0" r="18.701014643911606"/>
    <circle cx="1355.0" cy="632.0" r="18.156292754835167"/>
    <circle cx="1359.0" cy="629.0" r="17.588632046916846"/>
    <circle cx="1363.0" cy="626.0" r="17.000147667480064"/>
    <circle cx="1367.0" cy="622.0" r="16.393032354444994"/>
    <circle cx="1371.0" cy="619.0" r="15.769548266018923"/>
    <circle cx="1374.0" cy="616.0" r="15.132018551721337"/>
    <circle cx="1378.0" cy="613.0" r="14.482818696150675"/>
    <circle cx="1382.0" cy="610.0" r="13.824367667746573"/>
    <circle cx="1386.0" cy="606.0" r="13.159118905527984"/>
    <circle cx="1390.0" cy="603.0" r="12.489551177391277"/>
    <circle cx="1394.0" cy="600.0" r="11.818159344030983"/>
    <circle cx="1397.0" cy="597.0" r="11.147445062897571"/>
    <circle cx="1401.0" cy="593.0" r="10.479907466829953"/>
    <circle cx="1405.0" cy="590.0" r="9.818033852094915"/>
    <circle cx="1409.0" cy="587.0" r="9.164290410530507"/>
    <circle cx="1413.0" cy="584.0" r="8.521113040326162"/>
    <circle cx="1417.0" cy="581.0" r="7.890898269679264"/>
    <circle cx="1420.0" cy="577.0" r="7.27599432714733"/>
    <circle cx="1424.0" cy="574.0" r="6.6786923919683545"/>
    <circle cx="1428.0" cy="571.0" r="6.101218056951289"/>
    <circle cx="1432.0" cy="568.0" r="5.5457230357466045"/>
    <circle cx="1436.0" cy="565.0" r="5.0142771453962"/>
    <circle cx="1439.0" cy="561.0" r="4.508860594036456"/>
    <circle cx="1443.0" cy="558.0" r="4.0313566024908525"/>
    <circle cx="1447.0" cy="555.0" r="3.5835443872447748"/>
    <circle cx="1451.0" cy="552.0" r="3.1670925309485085"/>
    <circle cx="1455.0" cy="548.0" r="2.7835527651502936"/>
    <circle cx="1459.0" cy="545.0" r="2.434354188425644"/>
    <circle cx="1462.0" cy="542.0" r="2.120797941446426"/>
    <circle cx="1466.0" cy="539.0" r="1.8440523588310036"/>
    <circle cx="1470.0" cy="536.0" r="1.6051486158398305"/>
    <circle cx="1474.0" cy="532.0" r="1.4049768861373764"/>
    <circle cx="1478.0" cy="529.0" r="1.2442830249367987"/>
    <circle cx="1482.0" cy="526.0" r="1.1236657898862248"/>
    <circle cx="1485.0" cy="523.0" r="1.0435746100518521"/>
    <circle cx="1489.0" cy="519.0" r="1.0043079113107822"/>
    <circle cx="1491.0" cy="518.0" r="1"/>
    <g stroke="blue">
      <circle cx="211.0" cy="435.0" r="5"/>
      <circle cx="205.27050983124843" cy="452.6335575687742" r="5"/>
      <circle cx="190.27050983124843" cy="463.5316954888546" r="5"/>
      <circle cx="171.72949016875157" cy="463.5316954888546" r="5"/>
      <circle cx="156.72949016875157" cy="452.6335575687742" r="5"/>
      <circle cx="151.0" cy="435.0" r="5"/>
      <circle cx="156.72949016875157" cy="417.36644243122583" r="5"/>
      <circle cx="171.72949016875157" cy="406.4683045111454" r="5"/>
      <circle cx="190.2705098312484" cy="406.4683045111454" r="5"/>
      <circle cx="205.27050983124843" cy="417.3664424312258" r="5"/>
      <path d="M 1491.0 548.0 L1491.0 558.0"/>
      <path d="M 1508.6335575687742 542.2705098312484 L1514.511410091699 550.360679774998"/>
      <path d="M 1519.5316954888547 527.2705098312484 L1529.0422606518061 530.360679774998"/>
      <path d="M 1519.5316954888547 508.72949016875157 L1529.0422606518061 505.6393202250021"/>
      <path d="M 1508.6335575687742 493.72949016875157 L1514.511410091699 485.6393202250021"/>
      <path d="M 1491.0 488.0 L1491.0 478.0"/>
      <path d="M 1473.3664424312258 493.72949016875157 L1467.488589908301 485.6393202250021"/>
      <path d="M 1462.4683045111453 508.72949016875157 L1452.9577393481939 505.6393202250021"/>
      <path d="M 1462.4683045111453 527.2705098312484 L1452.9577393481939 530.360679774998"/>
      <path d="M 1473.3664424312258 542.2705098312484 L1467.488589908301 550.360679774998"/>
      <circle cx="1110.0" cy="400.0" r="59.68"/>
      <circle cx="1110.0" cy="400.0" r="69.68"/>
      <circle cx="452.0" cy="210.0" r="61.78"/>
      <path d="M 452.0 281.78 L452.0 291.78"/>
      <path d="M 474.18123985623373 278.26683673966613 L477.2714097999832 287.77740190261767"/>
      <path d="M 494.19122540955374 268.0712398562337 L500.0690779324785 276.1614097999832"/>
      <path d="M 510.0712398562337 252.19122540955374 L518.1614097999832 258.0690779324785"/>
      <path d="M 520.2668367396661 232.18123985623373 L529.7774019026176 235.27140979998322"/>
      <path d="M 523.78 210.0 L533.78 210.0"/>
      <path d="M 520.2668367396661 187.81876014376627 L529.7774019026176 184.72859020001678"/>
      <path d="M 510.0712398562337 167.8087745904463 L518.1614097999832 161.93092206752155"/>
      <path d="M 494.19122540955374 151.92876014376628 L500.0690779324785 143.83859020001682"/>
      <path d="M 474.18123985623373 141.73316326033387 L477.2714097999832 132.22259809738233"/>
      <path d="M 452.0 138.22 L452.0 128.22"/>
      <path d="M 429.81876014376627 141.73316326033387 L426.7285902000168 132.22259809738233"/>
      <path d="M 409.80877459044626 151.92876014376628 L403.9309220675215 143.83859020001682"/>
      <path d="M 393.9287601437663 167.80877459044626 L385.8385902000168 161.93092206752152"/>
      <path d="M 383.73316326033387 187.81876014376627 L374.22259809738233 184.72859020001678"/>
      <path d="M 380.22 210.0 L370.22 210.0"/>
      <path d="M 383.73316326033387 232.1812398562337 L374.22259809738233 235.27140979998316"/>
      <path d="M 393.9287601437663 252.1912254095537 L385.8385902000168 258.0690779324784"/>
      <path d="M 409.80877459044626 268.0712398562337 L403.9309220675215 276.1614097999832"/>
      <path d="M 429.81876014376627 278.26683673966613 L426.7285902000168 287.77740190261767"/>
      <circle cx="1122.0" cy="840.0" r="58.79"/>
      <path d="M 1122.0 908.79 L1122.0 918.79"/>
      <path d="M 1143.2572790430527 905.4231777559436 L1146.3474489868022 914.9337429188951"/>
      <path d="M 1162.4337475051993 895.6522790430527 L1168.311600028124 903.7424489868022"/>
      <path d="M 1177.6522790430527 880.4337475051992 L1185.7424489868022 886.311600028124"/>
      <path d="M 1187.4231777559437 861.2572790430527 L1196.9337429188952 864.3474489868022"/>
      <path d="M 1190.79 840.0 L1200.79 840.0"/>
      <path d="M 1187.4231777559437 818.7427209569473 L1196.9337429188952 815.6525510131978"/>
      <path d="M 1177.6522790430527 799.5662524948008 L1185.7424489868022 793.688399971876"/>
      <path d="M 1162.4337475051993 784.3477209569473 L1168.311600028124 776.2575510131978"/>
      <path d="M 1143.2572790430527 774.5768222440564 L1146.3474489868022 765.0662570811049"/>
      <path d="M 1122.0 771.21 L1122.0 761.21"/>
      <path d="M 1100.7427209569473 774.5768222440564 L1097.6525510131978 765.0662570811049"/>
      <path d="M 1081.566252494801 784.3477209569473 L1075.6883999718762 776.2575510131978"/>
      <path d="M 1066.3477209569473 799.5662524948008 L1058.2575510131978 793.688399971876"/>
      <path d="M 1056.5768222440563 818.7427209569473 L1047.0662570811048 815.6525510131978"/>
      <path d="M 1053.21 840.0 L1043.21 840.0"/>
      <path d="M 1056.5768222440563 861.2572790430526 L1047.0662570811048 864.3474489868021"/>
      <path d="M 1066.3477209569473 880.4337475051992 L1058.2575510131978 886.311600028124"/>
      <path d="M 1081.5662524948007 895.6522790430527 L1075.688399971876 903.7424489868022"/>
      <path d="M 1100.7427209569473 905.4231777559436 L1097.6525510131978 914.9337429188951"/>
      <path d="M 1122.0 840.0 L1117.0 577.0"/>
      <circle cx="1117.0" cy="577.0" r="31.23"/>
      <path d="M 1117.0 618.23 L1117.0 628.23"/>
      <path d="M 1129.7407706780791 616.2120601668491 L1132.8309406218286 625.7226253298006"/>
      <path d="M 1141.2343859520188 610.3557706780791 L1147.1122384749435 618.4459406218286"/>
      <path d="M 1150.3557706780791 601.2343859520187 L1158.4459406218286 607.1122384749434"/>
      <path d="M 1156.2120601668491 589.7407706780791 L1165.7226253298006 592.8309406218286"/>
      <path d="M 1158.23 577.0 L1168.23 577.0"/>
      <path d="M 1156.2120601668491 564.2592293219209 L1165.7226253298006 561.1690593781714"/>
      <path d="M 1150.3557706780791 552.7656140479813 L1158.4459406218286 546.8877615250566"/>
      <path d="M 1141.2343859520188 543.6442293219209 L1147.1122384749435 535.5540593781714"/>
      <path d="M 1129.7407706780791 537.7879398331509 L1132.8309406218286 528.2773746701994"/>
      <path d="M 1117.0 535.77 L1117.0 525.77"/>
      <path d="M 1104.2592293219209 537.7879398331509 L1101.1690593781714 528.2773746701994"/>
      <path d="M 1092.7656140479814 543.6442293219209 L1086.8877615250567 535.5540593781714"/>
      <path d="M 1083.6442293219209 552.7656140479813 L1075.5540593781714 546.8877615250566"/>
      <path d="M 1077.7879398331509 564.2592293219209 L1068.2773746701994 561.1690593781714"/>
      <path d="M 1075.77 577.0 L1065.77 577.0"/>
      <path d="M 1077.7879398331509 589.7407706780791 L1068.2773746701994 592.8309406218286"/>
      <path d="M 1083.6442293219209 601.2343859520187 L1075.5540593781714 607.1122384749434"/>
      <path d="M 1092.7656140479812 610.3557706780791 L1086.8877615250565 618.4459406218286"/>
      <path d="M 1104.2592293219209 616.2120601668491 L1101.1690593781714 625.7226253298006"/>
      <path d="M 1117.0 577.0 L624.0 661.0"/>
      <circle cx="624.0" cy="661.0" r="43.83"/>
      <circle cx="624.0" cy="661.0" r="53.83"/>
    </g>
  </g>
</svg>
