<svg version="1.1" width="1150" height="870" xmlns="http://www.w3.org/2000/svg">
  <!-- Seed: 6528220759101027758 -->
  <!-- Size: SvgSize.Size9x12 -->
  <!-- Params:
    draw_lines: True
    draw_aligned_vertical: False
    draw_aligned_horizontal: False
    draw_filled_checkers: False
    pad: 0
    size: [RangeInt] min: 10 max: 150
    skew_vert_degs: [RangeFloat] min: 0 max: 45
    skew_horiz_degs: [RangeFloat] min: 0 max: 45
    interior_space_aligned: 5
    interior_space_filled: 2
  -->
  <g stroke="black" fill="none">
    <path d="M50.0 50.0L50.0 50.0M50.0 233.5L63.0 50.0M76.0 50.0L50.0 416.99M50.0 600.49L89.0 50.0M102.0 50.0L50.0 783.99M60.45 820.0L115.0 50.0M128.0 50.0L73.45 820.0M86.45 820.0L141.0 50.0M154.0 50.0L99.45 820.0M112.45 820.0L167.0 50.0M180.0 50.0L125.45 820.0M138.45 820.0L193.0 50.0M206.0 50.0L151.45 820.0M164.45 820.0L219.0 50.0M232.0 50.0L177.45 820.0M190.45 820.0L245.0 50.0M258.0 50.0L203.45 820.0M216.45 820.0L271.0 50.0M284.0 50.0L229.45 820.0M242.45 820.0L297.0 50.0M310.0 50.0L255.45 820.0M268.45 820.0L323.0 50.0M336.0 50.0L281.45 820.0M294.45 820.0L349.0 50.0M362.0 50.0L307.45 820.0M320.45 820.0L375.0 50.0M388.0 50.0L333.45 820.0M346.45 820.0L401.0 50.0M414.0 50.0L359.45 820.0M372.45 820.0L427.0 50.0M440.0 50.0L385.45 820.0M398.45 820.0L453.0 50.0M466.0 50.0L411.45 820.0M424.45 820.0L479.0 50.0M492.0 50.0L437.45 820.0M450.45 820.0L505.0 50.0M518.0 50.0L463.45 820.0M476.45 820.0L531.0 50.0M544.0 50.0L489.45 820.0M502.45 820.0L557.0 50.0M570.0 50.0L515.45 820.0M528.45 820.0L583.0 50.0M596.0 50.0L541.45 820.0M554.45 820.0L609.0 50.0M622.0 50.0L567.45 820.0M580.45 820.0L635.0 50.0M648.0 50.0L593.45 820.0M606.45 820.0L661.0 50.0M674.0 50.0L619.45 820.0M632.45 820.0L687.0 50.0M700.0 50.0L645.45 820.0M658.45 820.0L713.0 50.0M726.0 50.0L671.45 820.0M684.45 820.0L739.0 50.0M752.0 50.0L697.45 820.0M710.45 820.0L765.0 50.0M778.0 50.0L723.45 820.0M736.45 820.0L791.0 50.0M804.0 50.0L749.45 820.0M762.45 820.0L817.0 50.0M830.0 50.0L775.45 820.0M788.45 820.0L843.0 50.0M856.0 50.0L801.45 820.0M814.45 820.0L869.0 50.0M882.0 50.0L827.45 820.0M840.45 820.0L895.0 50.0M908.0 50.0L853.45 820.0M866.45 820.0L921.0 50.0M934.0 50.0L879.45 820.0M892.45 820.0L947.0 50.0M960.0 50.0L905.45 820.0M918.45 820.0L973.0 50.0M986.0 50.0L931.45 820.0M944.45 820.0L999.0 50.0M1012.0 50.0L957.45 820.0M970.45 820.0L1025.0 50.0M1038.0 50.0L983.45 820.0M996.45 820.0L1051.0 50.0M1064.0 50.0L1009.45 820.0M1022.45 820.0L1077.0 50.0M1090.0 50.0L1035.45 820.0M1048.45 820.0L1100.0 92.35M1100.0 275.84L1061.45 820.0M1074.45 820.0L1100.0 459.34M1100.0 642.84L1087.45 820.0M1054.62 50.0L1100.0 61.16M1100.0 74.16L1001.74 50.0M948.87 50.0L1100.0 87.16M1100.0 100.16L895.99 50.0M843.12 50.0L1100.0 113.16M1100.0 126.16L790.24 50.0M737.37 50.0L1100.0 139.16M1100.0 152.16L684.5 50.0M631.62 50.0L1100.0 165.16M1100.0 178.16L578.75 50.0M525.87 50.0L1100.0 191.16M1100.0 204.16L473.0 50.0M420.12 50.0L1100.0 217.16M1100.0 230.16L367.25 50.0M314.37 50.0L1100.0 243.16M1100.0 256.16L261.5 50.0M208.62 50.0L1100.0 269.16M1100.0 282.16L155.75 50.0M102.87 50.0L1100.0 295.16M1100.0 308.16L50.0 50.0M50.0 63.0L1100.0 321.16M1100.0 334.16L50.0 76.0M50.0 89.0L1100.0 347.16M1100.0 360.16L50.0 102.0M50.0 115.0L1100.0 373.16M1100.0 386.16L50.0 128.0M50.0 141.0L1100.0 399.16M1100.0 412.16L50.0 154.0M50.0 167.0L1100.0 425.16M1100.0 438.16L50.0 180.0M50.0 193.0L1100.0 451.16M1100.0 464.16L50.0 206.0M50.0 219.0L1100.0 477.16M1100.0 490.16L50.0 232.0M50.0 245.0L1100.0 503.16M1100.0 516.16L50.0 258.0M50.0 271.0L1100.0 529.16M1100.0 542.16L50.0 284.0M50.0 297.0L1100.0 555.16M1100.0 568.16L50.0 310.0M50.0 323.0L1100.0 581.16M1100.0 594.16L50.0 336.0M50.0 349.0L1100.0 607.16M1100.0 620.16L50.0 362.0M50.0 375.0L1100.0 633.16M1100.0 646.16L50.0 388.0M50.0 401.0L1100.0 659.16M1100.0 672.16L50.0 414.0M50.0 427.0L1100.0 685.16M1100.0 698.16L50.0 440.0M50.0 453.0L1100.0 711.16M1100.0 724.16L50.0 466.0M50.0 479.0L1100.0 737.16M1100.0 750.16L50.0 492.0M50.0 505.0L1100.0 763.16M1100.0 776.16L50.0 518.0M50.0 531.0L1100.0 789.16M1100.0 802.16L50.0 544.0M50.0 557.0L1100.0 815.16M1066.82 820.0L50.0 570.0M50.0 583.0L1013.94 820.0M961.07 820.0L50.0 596.0M50.0 609.0L908.2 820.0M855.32 820.0L50.0 622.0M50.0 635.0L802.45 820.0M749.57 820.0L50.0 648.0M50.0 661.0L696.7 820.0M643.82 820.0L50.0 674.0M50.0 687.0L590.95 820.0M538.07 820.0L50.0 700.0M50.0 713.0L485.2 820.0M432.32 820.0L50.0 726.0M50.0 739.0L379.45 820.0M326.57 820.0L50.0 752.0M50.0 765.0L273.7 820.0M220.83 820.0L50.0 778.0M50.0 791.0L167.95 820.0M115.08 820.0L50.0 804.0M50.0 817.0L62.2 820.0"/>
  </g>
</svg>
