<svg version="1.1" width="1150" height="870" xmlns="http://www.w3.org/2000/svg">
  <!-- Seed: 1934709873857659625 -->
  <!-- Size: SvgSize.Size9x12 -->
  <!-- Params:
    draw_lines: True
    draw_aligned_vertical: False
    draw_aligned_horizontal: False
    draw_filled_checkers: False
    pad: 0
    size: [RangeInt] min: 10 max: 150
    skew_vert_degs: [RangeFloat] min: 0 max: 45
    skew_horiz_degs: [RangeFloat] min: 0 max: 45
    interior_space_aligned: 5
    interior_space_filled: 5
  -->
  <g stroke="black" fill="none">
    <path d="M111.0 50.0L50.0 220.28M50.0 390.57L172.0 50.0M233.0 50.0L50.0 560.85M50.0 731.13L294.0 50.0M355.0 50.0L79.16 820.0M140.16 820.0L416.0 50.0M477.0 50.0L201.16 820.0M262.16 820.0L538.0 50.0M599.0 50.0L323.16 820.0M384.16 820.0L660.0 50.0M721.0 50.0L445.16 820.0M506.16 820.0L782.0 50.0M843.0 50.0L567.16 820.0M628.16 820.0L904.0 50.0M965.0 50.0L689.16 820.0M750.16 820.0L1026.0 50.0M1087.0 50.0L811.16 820.0M872.16 820.0L1100.0 183.99M1100.0 354.28L933.16 820.0M994.16 820.0L1100.0 524.56M1100.0 694.84L1055.16 820.0M1042.94 50.0L1100.0 88.56M1100.0 149.56L952.67 50.0M862.4 50.0L1100.0 210.56M1100.0 271.56L772.14 50.0M681.87 50.0L1100.0 332.56M1100.0 393.56L591.6 50.0M501.33 50.0L1100.0 454.56M1100.0 515.56L411.07 50.0M320.8 50.0L1100.0 576.56M1100.0 637.56L230.53 50.0M140.27 50.0L1100.0 698.56M1100.0 759.56L50.0 50.0M50.0 111.0L1099.17 820.0M1008.9 820.0L50.0 172.0M50.0 233.0L918.63 820.0M828.37 820.0L50.0 294.0M50.0 355.0L738.1 820.0M647.83 820.0L50.0 416.0M50.0 477.0L557.57 820.0M467.3 820.0L50.0 538.0M50.0 599.0L377.03 820.0M286.77 820.0L50.0 660.0M50.0 721.0L196.5 820.0M106.23 820.0L50.0 782.0"/>
  </g>
</svg>
