<svg version="1.1" width="1150" height="870" xmlns="http://www.w3.org/2000/svg">
  <!-- Seed: 8316051837341584768 -->
  <!-- Size: SvgSize.Size9x12 -->
  <!-- Params:
    draw_lines: True
    draw_aligned_vertical: False
    draw_aligned_horizontal: False
    draw_filled_checkers: False
    pad: 0
    size: [RangeInt] min: 10 max: 150
    skew_vert_degs: [RangeFloat] min: 0 max: 45
    skew_horiz_degs: [RangeFloat] min: 0 max: 45
    interior_space_aligned: 5
    interior_space_filled: 5
  -->
  <g stroke="black" fill="none">
    <path d="M50.0 50.0L50.0 50.0M50.0 164.17L110.0 50.0M170.0 50.0L50.0 278.35M50.0 392.52L230.0 50.0M290.0 50.0L50.0 506.69M50.0 620.87L350.0 50.0M410.0 50.0L50.0 735.04M65.35 820.0L470.0 50.0M530.0 50.0L125.35 820.0M185.35 820.0L590.0 50.0M650.0 50.0L245.35 820.0M305.35 820.0L710.0 50.0M770.0 50.0L365.35 820.0M425.35 820.0L830.0 50.0M890.0 50.0L485.35 820.0M545.35 820.0L950.0 50.0M1010.0 50.0L605.35 820.0M665.35 820.0L1070.0 50.0M1100.0 107.09L725.35 820.0M785.35 820.0L1100.0 221.26M1100.0 335.43L845.35 820.0M905.35 820.0L1100.0 449.61M1100.0 563.78L965.35 820.0M1025.35 820.0L1100.0 677.96M1100.0 792.13L1085.35 820.0M1083.03 50.0L1100.0 52.96M1100.0 112.96L738.69 50.0M394.34 50.0L1100.0 172.96M1100.0 232.96L50.0 50.0M50.0 110.0L1100.0 292.96M1100.0 352.96L50.0 170.0M50.0 230.0L1100.0 412.96M1100.0 472.96L50.0 290.0M50.0 350.0L1100.0 532.96M1100.0 592.96L50.0 410.0M50.0 470.0L1100.0 652.96M1100.0 712.96L50.0 530.0M50.0 590.0L1100.0 772.96M1025.64 820.0L50.0 650.0M50.0 710.0L681.3 820.0M336.95 820.0L50.0 770.0"/>
  </g>
</svg>
