<svg version="1.1" width="1150" height="870" xmlns="http://www.w3.org/2000/svg">
  <!-- Seed: 2932255199565203573 -->
  <!-- Size: SvgSize.Size9x12 -->
  <!-- Params:
    draw_lines: True
    draw_aligned_vertical: False
    draw_aligned_horizontal: False
    draw_filled_checkers: False
    pad: 0
    size: [RangeInt] min: 10 max: 150
    skew_vert_degs: [RangeFloat] min: 0 max: 45
    skew_horiz_degs: [RangeFloat] min: 0 max: 45
    interior_space_aligned: 5
    interior_space_filled: 5
  -->
  <g stroke="black" fill="none">
    <path d="M50.0 50.0L50.0 50.0M50.0 209.66L93.0 50.0M136.0 50.0L50.0 369.33M50.0 528.99L179.0 50.0M222.0 50.0L50.0 688.65M57.63 820.0L265.0 50.0M308.0 50.0L100.63 820.0M143.63 820.0L351.0 50.0M394.0 50.0L186.63 820.0M229.63 820.0L437.0 50.0M480.0 50.0L272.63 820.0M315.63 820.0L523.0 50.0M566.0 50.0L358.63 820.0M401.63 820.0L609.0 50.0M652.0 50.0L444.63 820.0M487.63 820.0L695.0 50.0M738.0 50.0L530.63 820.0M573.63 820.0L781.0 50.0M824.0 50.0L616.63 820.0M659.63 820.0L867.0 50.0M910.0 50.0L702.63 820.0M745.63 820.0L953.0 50.0M996.0 50.0L788.63 820.0M831.63 820.0L1039.0 50.0M1082.0 50.0L874.63 820.0M917.63 820.0L1100.0 142.83M1100.0 302.49L960.63 820.0M1003.63 820.0L1100.0 462.15M1100.0 621.81L1046.63 820.0M1089.63 820.0L1100.0 781.48M1037.15 50.0L1100.0 80.11M1100.0 123.11L947.41 50.0M857.67 50.0L1100.0 166.11M1100.0 209.11L767.93 50.0M678.19 50.0L1100.0 252.11M1100.0 295.11L588.45 50.0M498.71 50.0L1100.0 338.11M1100.0 381.11L408.96 50.0M319.22 50.0L1100.0 424.11M1100.0 467.11L229.48 50.0M139.74 50.0L1100.0 510.11M1100.0 553.11L50.0 50.0M50.0 93.0L1100.0 596.11M1100.0 639.11L50.0 136.0M50.0 179.0L1100.0 682.11M1100.0 725.11L50.0 222.0M50.0 265.0L1100.0 768.11M1100.0 811.11L50.0 308.0M50.0 351.0L1028.8 820.0M939.06 820.0L50.0 394.0M50.0 437.0L849.32 820.0M759.58 820.0L50.0 480.0M50.0 523.0L669.84 820.0M580.1 820.0L50.0 566.0M50.0 609.0L490.36 820.0M400.62 820.0L50.0 652.0M50.0 695.0L310.88 820.0M221.13 820.0L50.0 738.0M50.0 781.0L131.39 820.0"/>
  </g>
</svg>
