<svg version="1.1" width="1150" height="870" xmlns="http://www.w3.org/2000/svg">
  <!-- Seed: 5893366671987551668 -->
  <!-- Size: SvgSize.Size9x12 -->
  <!-- Params:
    draw_lines: True
    draw_aligned_vertical: False
    draw_aligned_horizontal: False
    draw_filled_checkers: False
    pad: 0
    size: [RangeInt] min: 10 max: 150
    skew_vert_degs: [RangeFloat] min: 0 max: 45
    skew_horiz_degs: [RangeFloat] min: 0 max: 45
    interior_space_aligned: 5
    interior_space_filled: 5
  -->
  <g stroke="black" fill="none">
    <path d="M50.0 50.0L50.0 50.0M50.0 361.64L151.0 50.0M252.0 50.0L50.0 673.29M103.45 820.0L353.0 50.0M454.0 50.0L204.45 820.0M305.45 820.0L555.0 50.0M656.0 50.0L406.45 820.0M507.45 820.0L757.0 50.0M858.0 50.0L608.45 820.0M709.45 820.0L959.0 50.0M1060.0 50.0L810.45 820.0M911.45 820.0L1100.0 238.22M1100.0 549.86L1012.45 820.0M1077.42 50.0L1100.0 63.32M1100.0 164.32L906.19 50.0M734.95 50.0L1100.0 265.32M1100.0 366.32L563.71 50.0M392.47 50.0L1100.0 467.32M1100.0 568.32L221.24 50.0M50.0 50.0L1100.0 669.32M1100.0 770.32L50.0 151.0M50.0 252.0L1013.0 820.0M841.76 820.0L50.0 353.0M50.0 454.0L670.52 820.0M499.29 820.0L50.0 555.0M50.0 656.0L328.05 820.0M156.81 820.0L50.0 757.0"/>
  </g>
</svg>
