<svg version="1.1" width="1150" height="870" xmlns="http://www.w3.org/2000/svg">
  <!-- Seed: 3596705365598245472 -->
  <!-- Size: SvgSize.Size9x12 -->
  <!-- Params:
    draw: True
    pad: 0
    size: [RangeInt] min: 10 max: 150
    skew_vert_degs: [RangeFloat] min: -45 max: 45
    skew_horiz_degs: [RangeFloat] min: -45 max: 45
    interior_space: 5
    draw_aligned_interior: True
  -->
  <g stroke="black" fill="none">
    <path d="M50.0 50.0L50.0 50.0M117.86 820.0L197.0 50.0M344.0 50.0L264.86 820.0M411.86 820.0L491.0 50.0M638.0 50.0L558.86 820.0M705.86 820.0L785.0 50.0M932.0 50.0L852.86 820.0M999.86 820.0L1079.0 50.0M50.0 50.0L50.0 50.0M270.08 50.0L50.0 197.0M50.0 344.0L490.15 50.0M710.23 50.0L50.0 491.0M50.0 638.0L930.31 50.0M1100.0 83.66L50.0 785.0M217.68 820.0L1100.0 230.66M1100.0 377.66L437.76 820.0M657.83 820.0L1100.0 524.66M1100.0 671.66L877.91 820.0M1097.99 820.0L1100.0 818.66"/>
    <g stroke="red">
      <path d="M50.0 50.0L50.0 50.0M50.0 99.32L55.07 50.0M60.14 50.0L50.0 148.64M50.0 197.97L65.21 50.0M70.28 50.0L50.0 247.29M50.0 296.61L75.34 50.0M80.41 50.0L50.0 345.93M50.0 395.25L85.48 50.0M90.55 50.0L50.0 444.58M50.0 493.9L95.62 50.0M100.69 50.0L50.0 543.22M50.0 592.54L105.76 50.0M110.83 50.0L50.0 641.86M50.0 691.19L115.9 50.0M120.97 50.0L50.0 740.51M50.0 789.83L126.03 50.0M131.1 50.0L51.97 820.0M57.04 820.0L136.17 50.0M141.24 50.0L62.11 820.0M67.18 820.0L146.31 50.0M151.38 50.0L72.24 820.0M77.31 820.0L156.45 50.0M161.52 50.0L82.38 820.0M87.45 820.0L166.59 50.0M171.66 50.0L92.52 820.0M97.59 820.0L176.72 50.0M181.79 50.0L102.66 820.0M107.73 820.0L186.86 50.0M191.93 50.0L112.8 820.0M264.86 820.0L344.0 50.0M349.07 50.0L269.93 820.0M275.0 820.0L354.14 50.0M359.21 50.0L280.07 820.0M285.14 820.0L364.28 50.0M369.34 50.0L290.21 820.0M295.28 820.0L374.41 50.0M379.48 50.0L300.35 820.0M305.42 820.0L384.55 50.0M389.62 50.0L310.49 820.0M315.55 820.0L394.69 50.0M399.76 50.0L320.62 820.0M325.69 820.0L404.83 50.0M409.9 50.0L330.76 820.0M335.83 820.0L414.97 50.0M420.03 50.0L340.9 820.0M345.97 820.0L425.1 50.0M430.17 50.0L351.04 820.0M356.11 820.0L435.24 50.0M440.31 50.0L361.18 820.0M366.24 820.0L445.38 50.0M450.45 50.0L371.31 820.0M376.38 820.0L455.52 50.0M460.59 50.0L381.45 820.0M386.52 820.0L465.66 50.0M470.72 50.0L391.59 820.0M396.66 820.0L475.79 50.0M480.86 50.0L401.73 820.0M406.8 820.0L485.93 50.0M638.0 50.0L558.86 820.0M563.93 820.0L643.07 50.0M648.14 50.0L569.0 820.0M574.07 820.0L653.21 50.0M658.28 50.0L579.14 820.0M584.21 820.0L663.34 50.0M668.41 50.0L589.28 820.0M594.35 820.0L673.48 50.0M678.55 50.0L599.42 820.0M604.49 820.0L683.62 50.0M688.69 50.0L609.55 820.0M614.62 820.0L693.76 50.0M698.83 50.0L619.69 820.0M624.76 820.0L703.9 50.0M708.97 50.0L629.83 820.0M634.9 820.0L714.03 50.0M719.1 50.0L639.97 820.0M645.04 820.0L724.17 50.0M729.24 50.0L650.11 820.0M655.18 820.0L734.31 50.0M739.38 50.0L660.24 820.0M665.31 820.0L744.45 50.0M749.52 50.0L670.38 820.0M675.45 820.0L754.59 50.0M759.66 50.0L680.52 820.0M685.59 820.0L764.72 50.0M769.79 50.0L690.66 820.0M695.73 820.0L774.86 50.0M779.93 50.0L700.8 820.0M852.86 820.0L932.0 50.0M937.07 50.0L857.93 820.0M863.0 820.0L942.14 50.0M947.21 50.0L868.07 820.0M873.14 820.0L952.28 50.0M957.34 50.0L878.21 820.0M883.28 820.0L962.41 50.0M967.48 50.0L888.35 820.0M893.42 820.0L972.55 50.0M977.62 50.0L898.49 820.0M903.55 820.0L982.69 50.0M987.76 50.0L908.62 820.0M913.69 820.0L992.83 50.0M997.9 50.0L918.76 820.0M923.83 820.0L1002.97 50.0M1008.03 50.0L928.9 820.0M933.97 820.0L1013.1 50.0M1018.17 50.0L939.04 820.0M944.11 820.0L1023.24 50.0M1028.31 50.0L949.18 820.0M954.24 820.0L1033.38 50.0M1038.45 50.0L959.31 820.0M964.38 820.0L1043.52 50.0M1048.59 50.0L969.45 820.0M974.52 820.0L1053.66 50.0M1058.72 50.0L979.59 820.0M984.66 820.0L1063.79 50.0M1068.86 50.0L989.73 820.0M994.8 820.0L1073.93 50.0"/>
    </g>
    <g stroke="blue">
      <path d="M50.0 50.0L50.0 50.0M57.59 50.0L50.0 55.07M50.0 60.14L65.18 50.0M72.77 50.0L50.0 65.21M50.0 70.28L80.36 50.0M87.94 50.0L50.0 75.34M50.0 80.41L95.53 50.0M103.12 50.0L50.0 85.48M50.0 90.55L110.71 50.0M118.3 50.0L50.0 95.62M50.0 100.69L125.89 50.0M133.48 50.0L50.0 105.76M50.0 110.83L141.07 50.0M148.66 50.0L50.0 115.9M50.0 120.97L156.24 50.0M163.83 50.0L50.0 126.03M50.0 131.1L171.42 50.0M179.01 50.0L50.0 136.17M50.0 141.24L186.6 50.0M194.19 50.0L50.0 146.31M50.0 151.38L201.78 50.0M209.37 50.0L50.0 156.45M50.0 161.52L216.96 50.0M224.54 50.0L50.0 166.59M50.0 171.66L232.13 50.0M239.72 50.0L50.0 176.72M50.0 181.79L247.31 50.0M254.9 50.0L50.0 186.86M50.0 191.93L262.49 50.0M490.15 50.0L50.0 344.0M50.0 349.07L497.74 50.0M505.33 50.0L50.0 354.14M50.0 359.21L512.92 50.0M520.51 50.0L50.0 364.28M50.0 369.34L528.1 50.0M535.69 50.0L50.0 374.41M50.0 379.48L543.28 50.0M550.87 50.0L50.0 384.55M50.0 389.62L558.45 50.0M566.04 50.0L50.0 394.69M50.0 399.76L573.63 50.0M581.22 50.0L50.0 404.83M50.0 409.9L588.81 50.0M596.4 50.0L50.0 414.97M50.0 420.03L603.99 50.0M611.58 50.0L50.0 425.1M50.0 430.17L619.17 50.0M626.75 50.0L50.0 435.24M50.0 440.31L634.34 50.0M641.93 50.0L50.0 445.38M50.0 450.45L649.52 50.0M657.11 50.0L50.0 455.52M50.0 460.59L664.7 50.0M672.29 50.0L50.0 465.66M50.0 470.72L679.88 50.0M687.46 50.0L50.0 475.79M50.0 480.86L695.05 50.0M702.64 50.0L50.0 485.93M50.0 638.0L930.31 50.0M937.9 50.0L50.0 643.07M50.0 648.14L945.49 50.0M953.08 50.0L50.0 653.21M50.0 658.28L960.66 50.0M968.25 50.0L50.0 663.34M50.0 668.41L975.84 50.0M983.43 50.0L50.0 673.48M50.0 678.55L991.02 50.0M998.61 50.0L50.0 683.62M50.0 688.69L1006.2 50.0M1013.79 50.0L50.0 693.76M50.0 698.83L1021.38 50.0M1028.96 50.0L50.0 703.9M50.0 708.97L1036.55 50.0M1044.14 50.0L50.0 714.03M50.0 719.1L1051.73 50.0M1059.32 50.0L50.0 724.17M50.0 729.24L1066.91 50.0M1074.5 50.0L50.0 734.31M50.0 739.38L1082.09 50.0M1089.67 50.0L50.0 744.45M50.0 749.52L1097.26 50.0M1100.0 53.24L50.0 754.59M50.0 759.66L1100.0 58.31M1100.0 63.38L50.0 764.72M50.0 769.79L1100.0 68.45M1100.0 73.52L50.0 774.86M50.0 779.93L1100.0 78.59M1100.0 230.66L217.68 820.0M225.27 820.0L1100.0 235.72M1100.0 240.79L232.86 820.0M240.44 820.0L1100.0 245.86M1100.0 250.93L248.03 820.0M255.62 820.0L1100.0 256.0M1100.0 261.07L263.21 820.0M270.8 820.0L1100.0 266.14M1100.0 271.21L278.39 820.0M285.98 820.0L1100.0 276.28M1100.0 281.34L293.57 820.0M301.16 820.0L1100.0 286.41M1100.0 291.48L308.74 820.0M316.33 820.0L1100.0 296.55M1100.0 301.62L323.92 820.0M331.51 820.0L1100.0 306.69M1100.0 311.76L339.1 820.0M346.69 820.0L1100.0 316.83M1100.0 321.9L354.28 820.0M361.87 820.0L1100.0 326.97M1100.0 332.03L369.46 820.0M377.04 820.0L1100.0 337.1M1100.0 342.17L384.63 820.0M392.22 820.0L1100.0 347.24M1100.0 352.31L399.81 820.0M407.4 820.0L1100.0 357.38M1100.0 362.45L414.99 820.0M422.58 820.0L1100.0 367.52M1100.0 372.59L430.17 820.0M657.83 820.0L1100.0 524.66M1100.0 529.72L665.42 820.0M673.01 820.0L1100.0 534.79M1100.0 539.86L680.6 820.0M688.19 820.0L1100.0 544.93M1100.0 550.0L695.78 820.0M703.37 820.0L1100.0 555.07M1100.0 560.14L710.95 820.0M718.54 820.0L1100.0 565.21M1100.0 570.28L726.13 820.0M733.72 820.0L1100.0 575.34M1100.0 580.41L741.31 820.0M748.9 820.0L1100.0 585.48M1100.0 590.55L756.49 820.0M764.08 820.0L1100.0 595.62M1100.0 600.69L771.67 820.0M779.25 820.0L1100.0 605.76M1100.0 610.83L786.84 820.0M794.43 820.0L1100.0 615.9M1100.0 620.97L802.02 820.0M809.61 820.0L1100.0 626.03M1100.0 631.1L817.2 820.0M824.79 820.0L1100.0 636.17M1100.0 641.24L832.38 820.0M839.97 820.0L1100.0 646.31M1100.0 651.38L847.55 820.0M855.14 820.0L1100.0 656.45M1100.0 661.52L862.73 820.0M870.32 820.0L1100.0 666.59M1100.0 818.66L1097.99 820.0"/>
    </g>
  </g>
</svg>
