<svg version="1.1" width="1150" height="870" xmlns="http://www.w3.org/2000/svg">
  <!-- Seed: 7029013920372309594 -->
  <!-- Size: SvgSize.Size9x12 -->
  <!-- Params:
    draw: True
    pad: 0
    size: [RangeInt] min: 10 max: 150
    skew_vert_degs: [RangeFloat] min: -45 max: 45
    skew_horiz_degs: [RangeFloat] min: -45 max: 45
  -->
  <g stroke="black" fill="none">
    <path d="M1065.605267683195 50.0L1100.0 77.4316548595359"/>
    <path d="M1009.1827528119055 50.0L1100.0 122.43165485953658"/>
    <path d="M952.7602379406161 50.0L1100.0 167.43165485953728"/>
    <path d="M896.3377230693266 50.0L1100.0 212.43165485953796"/>
    <path d="M839.9152081980429 50.0L1100.0 257.431654859534"/>
    <path d="M783.4926933267535 50.0L1100.0 302.4316548595347"/>
    <path d="M727.0701784555245 50.0L1100.0 347.4316548594601"/>
    <path d="M670.6476635842298 50.0L1100.0 392.43165485946076"/>
    <path d="M614.2251487129353 50.0L1100.0 437.43165485946145"/>
    <path d="M557.8026338416406 50.0L1100.0 482.4316548594621"/>
    <path d="M501.3801189703518 50.0L1100.0 527.4316548594581"/>
    <path d="M444.95760409905716 50.0L1100.0 572.4316548594588"/>
    <path d="M388.53508922774483 50.0L1100.0 617.4316548594995"/>
    <path d="M332.1125743564557 50.0L1100.0 662.4316548594979"/>
    <path d="M275.69005948516514 50.0L1100.0 707.4316548594975"/>
    <path d="M219.26754461387452 50.0L1100.0 752.4316548594969"/>
    <path d="M162.84502974258245 50.0L1100.0 797.4316548594976"/>
    <path d="M106.42251487129153 50.0L1071.8744360022797 820.0"/>
    <path d="M50.000000000000014 50.0L50.0 50.00000000000002"/>
    <path d="M50.0 50.00000000000014L1015.4519211309823 820.0"/>
    <path d="M95.00000000000013 50.0L50.0 111.19475294079066"/>
    <path d="M50.0 94.99999999999967L959.0294062596918 820.0"/>
    <path d="M139.9999999999997 50.0L50.0 172.38950588158053"/>
    <path d="M50.0 139.9999999999992L902.6068913884012 820.0"/>
    <path d="M185.00000000000037 50.0L50.0 233.5842588223719"/>
    <path d="M50.0 185.00000000000105L846.1843765171077 820.0"/>
    <path d="M229.99999999999878 50.0L50.0 294.77901176316027"/>
    <path d="M50.0 230.00000000000173L789.7618616458157 820.0"/>
    <path d="M274.9999999999995 50.0L50.0 355.97376470395164"/>
    <path d="M50.0 274.9999999999983L733.3393467745599 820.0"/>
    <path d="M320.0000000000001 50.0L50.0 417.1685176447431"/>
    <path d="M50.0 319.999999999999L676.9168319032652 820.0"/>
    <path d="M365.0000000000008 50.0L50.0 478.3632705855345"/>
    <path d="M50.0 364.99999999999966L620.4943170319707 820.0"/>
    <path d="M410.0000000000015 50.0L50.0 539.5580235263259"/>
    <path d="M50.0 410.00000000000034L564.071802160676 820.0"/>
    <path d="M455.00000000000216 50.0L50.0 600.7527764671173"/>
    <path d="M50.0 455.0000000000011L507.6492872893814 820.0"/>
    <path d="M500.00000000000284 50.0L50.0 661.9475294079087"/>
    <path d="M50.0 500.00000000000176L451.2267724180868 820.0"/>
    <path d="M545.0000000000025 50.0L50.0 723.1422823487634"/>
    <path d="M50.0 545.0000000000014L394.804257546762 820.0"/>
    <path d="M589.9999999999987 50.0L50.0 784.3370352895545"/>
    <path d="M50.0 590.0000000000022L338.3817426754725 820.0"/>
    <path d="M634.9999999999994 50.0L68.77498339567411 820.0"/>
    <path d="M50.0 634.9999999999982L281.95922780418886 820.0"/>
    <path d="M680.0000000000001 50.0L113.7749833956748 820.0"/>
    <path d="M50.0 680.0000000000035L225.53671293289355 820.0"/>
    <path d="M725.0000000000052 50.0L158.77498339567998 820.0"/>
    <path d="M50.0 725.0000000000042L169.11419806160407 820.0"/>
    <path d="M770.0000000000015 50.0L203.77498339567614 820.0"/>
    <path d="M50.0 770.0000000000049L112.69168319031458 820.0"/>
    <path d="M814.9999999999976 50.0L248.7749833956723 820.0"/>
    <path d="M50.0 814.9999999999962L56.269168319036766 820.0"/>
    <path d="M860.0000000000028 50.0L293.7749833956775 820.0"/>
    <path d="M904.999999999999 50.0L338.77498339567364 820.0"/>
    <path d="M950.0000000000041 50.0L383.7749833956789 820.0"/>
    <path d="M995.0000000000003 50.0L428.774983395675 820.0"/>
    <path d="M1039.9999999999984 50.0L473.7749833955645 820.0"/>
    <path d="M1085.0000000000036 50.0L518.7749833955697 820.0"/>
    <path d="M1100.0 90.79650196052286L563.7749833955659 820.0"/>
    <path d="M1100.0 151.99125490131453L608.7749833955711 820.0"/>
    <path d="M1100.0 213.18600784209394L653.7749833955672 820.0"/>
    <path d="M1100.0 274.3807607828856L698.7749833955725 820.0"/>
    <path d="M1100.0 335.57551372367726L743.7749833955776 820.0"/>
    <path d="M1100.0 396.7702666644444L788.7749833955647 820.0"/>
    <path d="M1100.0 457.9650196052361L833.77498339557 820.0"/>
    <path d="M1100.0 519.1597725460277L878.7749833955752 820.0"/>
    <path d="M1100.0 580.3545254867948L923.7749833955622 820.0"/>
    <path d="M1100.0 641.5492784275865L968.7749833955675 820.0"/>
    <path d="M1100.0 702.7440313683783L1013.7749833955727 820.0"/>
    <path d="M1100.0 763.9387843091699L1058.774983395578 820.0"/>
    <g stroke="red">
      <rect x="50" y="50" width="1050" height="770"/>
    </g>
  </g>
</svg>
