<svg version="1.1" width="1630" height="1060" xmlns="http://www.w3.org/2000/svg">
  <!-- Seed: 4350106542806413899 -->
  <!-- Size: SvgSize.Size11x17 -->
  <!-- Params:
    draw: True
    pad: 0
    size: [RangeInt] min: 10 max: 150
    skew_vert_degs: [RangeFloat] min: -45 max: 45
    skew_horiz_degs: [RangeFloat] min: -45 max: 45
  -->
  <g stroke="black" fill="none">
    <path d="M81.86 1010.0L50.0 941.55M50.0 763.24L164.86 1010.0M247.86 1010.0L50.0 584.93M50.0 406.62L330.86 1010.0M413.86 1010.0L50.0 228.31M50.0 50.0L496.86 1010.0M579.86 1010.0L133.0 50.0M216.0 50.0L662.86 1010.0M745.86 1010.0L299.0 50.0M382.0 50.0L828.86 1010.0M911.86 1010.0L465.0 50.0M548.0 50.0L994.86 1010.0M1077.86 1010.0L631.0 50.0M714.0 50.0L1160.86 1010.0M1243.86 1010.0L797.0 50.0M880.0 50.0L1326.86 1010.0M1409.86 1010.0L963.0 50.0M1046.0 50.0L1492.86 1010.0M1575.86 1010.0L1129.0 50.0M1212.0 50.0L1580.0 840.58M1580.0 662.27L1295.0 50.0M1378.0 50.0L1580.0 483.96M1580.0 305.65L1461.0 50.0M1544.0 50.0L1580.0 127.34M1580.0 64.49L1352.62 50.0M50.0 50.0L1580.0 147.49M1580.0 230.49L50.0 133.0M50.0 216.0L1580.0 313.49M1580.0 396.49L50.0 299.0M50.0 382.0L1580.0 479.49M1580.0 562.49L50.0 465.0M50.0 548.0L1580.0 645.49M1580.0 728.49L50.0 631.0M50.0 714.0L1580.0 811.49M1580.0 894.49L50.0 797.0M50.0 880.0L1580.0 977.49M787.63 1010.0L50.0 963.0"/>
  </g>
</svg>
