<svg version="1.1" width="1150" height="870" xmlns="http://www.w3.org/2000/svg">
  <!-- Seed: 2730294303452884138 -->
  <g stroke="black" fill="none">
    <circle cx="100.0" cy="350.0" r="5.0"/>
    <circle cx="110.0" cy="360.0" r="8.227015120523607"/>
    <circle cx="120.0" cy="370.0" r="11.42804821275092"/>
    <circle cx="130.0" cy="380.0" r="14.577326440400304"/>
    <circle cx="140.0" cy="390.0" r="17.649493666928336"/>
    <circle cx="150.0" cy="400.0" r="20.61981460823209"/>
    <circle cx="160.0" cy="410.0" r="23.46437398661262"/>
    <circle cx="170.0" cy="420.0" r="26.160269082529034"/>
    <circle cx="180.0" cy="430.0" r="28.685794133829653"/>
    <circle cx="190.0" cy="440.0" r="31.02061509778609"/>
    <circle cx="200.0" cy="450.0" r="33.14593336884907"/>
    <circle cx="210.0" cy="460.0" r="35.044637133966894"/>
    <circle cx="220.0" cy="470.0" r="36.70143914684257"/>
    <circle cx="230.0" cy="480.0" r="38.10299981185222"/>
    <circle cx="240.0" cy="490.0" r="39.238034586625524"/>
    <circle cx="250.0" cy="500.0" r="40.09740483854565"/>
    <circle cx="260.0" cy="510.0" r="40.67419142364565"/>
    <circle cx="270.0" cy="520.0" r="40.963750395487324"/>
    <circle cx="280.0" cy="530.0" r="40.96375039548733"/>
    <circle cx="290.0" cy="540.0" r="40.67419142364565"/>
    <circle cx="300.0" cy="550.0" r="40.09740483854565"/>
    <circle cx="310.0" cy="560.0" r="39.23803458662553"/>
    <circle cx="320.0" cy="570.0" r="38.10299981185222"/>
    <circle cx="330.0" cy="580.0" r="36.70143914684257"/>
    <circle cx="340.0" cy="590.0" r="35.0446371339669"/>
    <circle cx="350.0" cy="600.0" r="33.14593336884908"/>
    <circle cx="360.0" cy="610.0" r="31.020615097786095"/>
    <circle cx="370.0" cy="620.0" r="28.685794133829656"/>
    <circle cx="380.0" cy="630.0" r="26.160269082529037"/>
    <circle cx="390.0" cy="640.0" r="23.464373986612625"/>
    <circle cx="400.0" cy="650.0" r="20.619814608232097"/>
    <circle cx="410.0" cy="660.0" r="17.64949366692834"/>
    <circle cx="420.0" cy="670.0" r="14.577326440400308"/>
    <circle cx="430.0" cy="680.0" r="11.428048212750923"/>
    <circle cx="440.0" cy="690.0" r="8.22701512052361"/>
    <circle cx="450.0" cy="700.0" r="5.000000000000004"/>
    <circle cx="200.0" cy="450.0" r="5.0"/>
    <circle cx="210.0" cy="460.0" r="9.078588555106224"/>
    <circle cx="220.0" cy="470.0" r="13.124338713337968"/>
    <circle cx="230.0" cy="480.0" r="17.104676473283718"/>
    <circle cx="240.0" cy="490.0" r="20.98755449570109"/>
    <circle cx="250.0" cy="500.0" r="24.741710129848894"/>
    <circle cx="260.0" cy="510.0" r="28.336917121968728"/>
    <circle cx="270.0" cy="520.0" r="31.74422897930753"/>
    <circle cx="280.0" cy="530.0" r="34.936212030256925"/>
    <circle cx="290.0" cy="540.0" r="37.88716630414631"/>
    <circle cx="300.0" cy="550.0" r="40.573332452295354"/>
    <circle cx="310.0" cy="560.0" r="42.97308304431927"/>
    <circle cx="320.0" cy="570.0" r="45.06709669948158"/>
    <circle cx="330.0" cy="580.0" r="46.838513651091"/>
    <circle cx="340.0" cy="590.0" r="48.273071491429484"/>
    <circle cx="350.0" cy="600.0" r="49.35922000427298"/>
    <circle cx="360.0" cy="610.0" r="50.08821416044103"/>
    <circle cx="370.0" cy="620.0" r="50.45418452762981"/>
    <circle cx="380.0" cy="630.0" r="50.45418452762982"/>
    <circle cx="390.0" cy="640.0" r="50.088214160441034"/>
    <circle cx="400.0" cy="650.0" r="49.35922000427298"/>
    <circle cx="410.0" cy="660.0" r="48.27307149142949"/>
    <circle cx="420.0" cy="670.0" r="46.838513651091006"/>
    <circle cx="430.0" cy="680.0" r="45.06709669948158"/>
    <circle cx="440.0" cy="690.0" r="42.973083044319274"/>
    <circle cx="450.0" cy="700.0" r="40.57333245229536"/>
    <circle cx="460.0" cy="710.0" r="37.88716630414631"/>
    <circle cx="470.0" cy="720.0" r="34.936212030256925"/>
    <circle cx="480.0" cy="730.0" r="31.744228979307533"/>
    <circle cx="490.0" cy="740.0" r="28.336917121968735"/>
    <circle cx="500.0" cy="750.0" r="24.7417101298489"/>
    <circle cx="510.0" cy="760.0" r="20.987554495701097"/>
    <circle cx="520.0" cy="770.0" r="17.104676473283725"/>
    <circle cx="530.0" cy="780.0" r="13.124338713337973"/>
    <circle cx="540.0" cy="790.0" r="9.07858855510623"/>
    <circle cx="550.0" cy="800.0" r="5.000000000000005"/>
    <circle cx="200.0" cy="600.0" r="5.0"/>
    <circle cx="210.0" cy="610.0" r="9.571604754075107"/>
    <circle cx="220.0" cy="620.0" r="14.106401634730469"/>
    <circle cx="230.0" cy="630.0" r="18.567879123900433"/>
    <circle cx="240.0" cy="640.0" r="22.920116028148477"/>
    <circle cx="250.0" cy="650.0" r="27.128070694995465"/>
    <circle cx="260.0" cy="660.0" r="31.157863147701214"/>
    <circle cx="270.0" cy="670.0" r="34.97704786691613"/>
    <circle cx="280.0" cy="680.0" r="38.554875022925344"/>
    <circle cx="290.0" cy="690.0" r="41.862538055196964"/>
    <circle cx="300.0" cy="700.0" r="44.87340560586952"/>
    <circle cx="310.0" cy="710.0" r="47.56323593978644"/>
    <circle cx="320.0" cy="720.0" r="49.91037212469364"/>
    <circle cx="330.0" cy="730.0" r="51.89591640012398"/>
    <circle cx="340.0" cy="740.0" r="53.50388233105283"/>
    <circle cx="350.0" cy="750.0" r="54.72132352127301"/>
    <circle cx="360.0" cy="760.0" r="55.53843785016467"/>
    <circle cx="250.0" cy="700.0" r="5.0"/>
    <circle cx="260.0" cy="710.0" r="10.288719225302575"/>
    <circle cx="270.0" cy="720.0" r="15.534856793119562"/>
    <circle cx="280.0" cy="730.0" r="20.696173888433833"/>
    <circle cx="290.0" cy="740.0" r="25.731114620799218"/>
    <circle cx="300.0" cy="750.0" r="30.59914060793593"/>
    <circle cx="310.0" cy="760.0" r="35.261057366948464"/>
    <circle cx="320.0" cy="770.0" r="39.67932988525592"/>
    <circle cx="400.0" cy="600.0" r="5.0"/>
    <circle cx="410.0" cy="610.0" r="9.437145790719958"/>
    <circle cx="420.0" cy="620.0" r="13.838566292532514"/>
    <circle cx="430.0" cy="630.0" r="18.168823855550418"/>
    <circle cx="440.0" cy="640.0" r="22.393053792026464"/>
    <circle cx="450.0" cy="650.0" r="26.477245086319126"/>
    <circle cx="460.0" cy="660.0" r="30.388514231592353"/>
    <circle cx="470.0" cy="670.0" r="34.095369988477415"/>
    <circle cx="480.0" cy="680.0" r="37.56796693401577"/>
    <circle cx="490.0" cy="690.0" r="40.778345759455874"/>
    <circle cx="500.0" cy="700.0" r="43.700658382167475"/>
    <circle cx="510.0" cy="710.0" r="46.311376059204484"/>
    <circle cx="520.0" cy="720.0" r="48.58947882690853"/>
    <circle cx="530.0" cy="730.0" r="50.5166247412968"/>
    <circle cx="540.0" cy="740.0" r="52.0772975566101"/>
    <circle cx="550.0" cy="750.0" r="53.25893165300027"/>
    <circle cx="560.0" cy="760.0" r="54.052013207512765"/>
    <circle cx="400.0" cy="750.0" r="5.0"/>
    <circle cx="410.0" cy="760.0" r="11.005833696530043"/>
    <circle cx="420.0" cy="770.0" r="16.963311951508658"/>
    <circle cx="430.0" cy="780.0" r="22.824468652967234"/>
    <circle cx="440.0" cy="790.0" r="28.54211321344996"/>
    <circle cx="460.0" cy="60.0" r="9.750883371881976"/>
    <circle cx="470.0" cy="70.0" r="14.463515424327742"/>
    <circle cx="480.0" cy="80.0" r="19.09995281503378"/>
    <circle cx="490.0" cy="90.0" r="23.62286567631116"/>
    <circle cx="500.0" cy="100.0" r="27.99583817323058"/>
    <circle cx="510.0" cy="110.0" r="32.18366170251302"/>
    <circle cx="520.0" cy="120.0" r="36.15261837150108"/>
    <circle cx="530.0" cy="130.0" r="39.87075247480477"/>
    <circle cx="540.0" cy="140.0" r="43.30812778285175"/>
    <circle cx="550.0" cy="150.0" r="46.43706857080558"/>
    <circle cx="560.0" cy="160.0" r="49.23238244722904"/>
    <circle cx="570.0" cy="170.0" r="51.67156318840711"/>
    <circle cx="580.0" cy="180.0" r="53.73497194522688"/>
    <circle cx="590.0" cy="190.0" r="55.405995363643136"/>
    <circle cx="600.0" cy="200.0" r="56.67117934563665"/>
    <circle cx="610.0" cy="210.0" r="57.52033737370054"/>
    <circle cx="620.0" cy="220.0" r="57.946632526689676"/>
    <circle cx="630.0" cy="230.0" r="57.946632526689676"/>
    <circle cx="640.0" cy="240.0" r="57.52033737370054"/>
    <circle cx="650.0" cy="250.0" r="56.67117934563665"/>
    <circle cx="660.0" cy="260.0" r="55.40599536364314"/>
    <circle cx="670.0" cy="270.0" r="53.73497194522689"/>
    <circle cx="680.0" cy="280.0" r="51.67156318840711"/>
    <circle cx="690.0" cy="290.0" r="49.23238244722904"/>
    <circle cx="700.0" cy="300.0" r="46.437068570805586"/>
    <circle cx="710.0" cy="310.0" r="43.308127782851756"/>
    <circle cx="720.0" cy="320.0" r="39.870752474804775"/>
    <circle cx="730.0" cy="330.0" r="36.15261837150108"/>
    <circle cx="740.0" cy="340.0" r="32.183661702513035"/>
    <circle cx="750.0" cy="350.0" r="27.995838173230585"/>
    <circle cx="760.0" cy="360.0" r="23.622865676311168"/>
    <circle cx="770.0" cy="370.0" r="19.099952815033788"/>
    <circle cx="780.0" cy="380.0" r="14.463515424327749"/>
    <circle cx="790.0" cy="390.0" r="9.750883371881983"/>
    <circle cx="800.0" cy="400.0" r="5.000000000000006"/>
    <circle cx="450.0" cy="200.0" r="5.0"/>
    <circle cx="460.0" cy="210.0" r="10.692096115368027"/>
    <circle cx="470.0" cy="220.0" r="16.338362819713428"/>
    <circle cx="480.0" cy="230.0" r="21.89333969348387"/>
    <circle cx="490.0" cy="240.0" r="27.312301329165262"/>
    <circle cx="500.0" cy="250.0" r="32.551617433964935"/>
    <circle cx="510.0" cy="260.0" r="37.56910411527504"/>
    <circle cx="520.0" cy="270.0" r="42.32436352057204"/>
    <circle cx="530.0" cy="280.0" r="46.77910909717175"/>
    <circle cx="540.0" cy="290.0" r="50.89747385303936"/>
    <circle cx="550.0" cy="300.0" r="54.64629913671989"/>
    <circle cx="560.0" cy="310.0" r="57.99540161130272"/>
    <circle cx="570.0" cy="320.0" r="60.91781627290286"/>
    <circle cx="580.0" cy="330.0" r="63.39001355701711"/>
    <circle cx="590.0" cy="340.0" r="65.39208878474224"/>
    <circle cx="600.0" cy="350.0" r="66.9079224235458"/>
    <circle cx="610.0" cy="360.0" r="67.92530987226385"/>
    <circle cx="620.0" cy="370.0" r="68.43605972537347"/>
    <circle cx="630.0" cy="380.0" r="68.43605972537348"/>
    <circle cx="640.0" cy="390.0" r="67.92530987226385"/>
    <circle cx="650.0" cy="400.0" r="66.9079224235458"/>
    <circle cx="660.0" cy="410.0" r="65.39208878474226"/>
    <circle cx="670.0" cy="420.0" r="63.39001355701712"/>
    <circle cx="680.0" cy="430.0" r="60.91781627290286"/>
    <circle cx="690.0" cy="440.0" r="57.995401611302725"/>
    <circle cx="700.0" cy="450.0" r="54.6462991367199"/>
    <circle cx="710.0" cy="460.0" r="50.897473853039365"/>
    <circle cx="720.0" cy="470.0" r="46.779109097171755"/>
    <circle cx="730.0" cy="480.0" r="42.32436352057205"/>
    <circle cx="740.0" cy="490.0" r="37.569104115275046"/>
    <circle cx="750.0" cy="500.0" r="32.55161743396495"/>
    <circle cx="760.0" cy="510.0" r="27.31230132916527"/>
    <circle cx="770.0" cy="520.0" r="21.893339693483878"/>
    <circle cx="780.0" cy="530.0" r="16.338362819713435"/>
    <circle cx="790.0" cy="540.0" r="10.692096115368035"/>
    <circle cx="800.0" cy="550.0" r="5.000000000000008"/>
    <circle cx="450.0" cy="400.0" r="5.0"/>
    <circle cx="460.0" cy="410.0" r="9.168227864009658"/>
    <circle cx="470.0" cy="420.0" r="13.302895608136604"/>
    <circle cx="480.0" cy="430.0" r="17.37071331885039"/>
    <circle cx="490.0" cy="440.0" r="21.338929319782434"/>
    <circle cx="500.0" cy="450.0" r="25.175593868966452"/>
    <circle cx="510.0" cy="460.0" r="28.849816399374635"/>
    <circle cx="520.0" cy="470.0" r="32.3320142316"/>
    <circle cx="530.0" cy="480.0" r="35.59415075619664"/>
    <circle cx="540.0" cy="490.0" r="38.6099611679737"/>
    <circle cx="550.0" cy="500.0" r="41.35516393476338"/>
    <circle cx="560.0" cy="510.0" r="43.80765629804057"/>
    <circle cx="570.0" cy="520.0" r="45.947692231338316"/>
    <circle cx="580.0" cy="530.0" r="47.75804142364245"/>
    <circle cx="590.0" cy="540.0" r="49.22412800772464"/>
    <circle cx="600.0" cy="550.0" r="50.334147916454796"/>
    <circle cx="610.0" cy="560.0" r="51.07916392220896"/>
    <circle cx="620.0" cy="570.0" r="51.45317759417113"/>
    <circle cx="630.0" cy="580.0" r="51.45317759417113"/>
    <circle cx="640.0" cy="590.0" r="51.07916392220897"/>
    <circle cx="650.0" cy="600.0" r="50.334147916454796"/>
    <circle cx="660.0" cy="610.0" r="49.224128007724644"/>
    <circle cx="670.0" cy="620.0" r="47.75804142364246"/>
    <circle cx="680.0" cy="630.0" r="45.947692231338316"/>
    <circle cx="690.0" cy="640.0" r="43.80765629804058"/>
    <circle cx="700.0" cy="650.0" r="41.35516393476339"/>
    <circle cx="710.0" cy="660.0" r="38.60996116797371"/>
    <circle cx="720.0" cy="670.0" r="35.59415075619664"/>
    <circle cx="730.0" cy="680.0" r="32.332014231600006"/>
    <circle cx="740.0" cy="690.0" r="28.84981639937464"/>
    <circle cx="750.0" cy="700.0" r="25.17559386896646"/>
    <circle cx="760.0" cy="710.0" r="21.33892931978244"/>
    <circle cx="770.0" cy="720.0" r="17.3707133188504"/>
    <circle cx="780.0" cy="730.0" r="13.302895608136609"/>
    <circle cx="790.0" cy="740.0" r="9.168227864009664"/>
    <circle cx="800.0" cy="750.0" r="5.000000000000005"/>
    <circle cx="550.0" cy="200.0" r="5.0"/>
    <circle cx="560.0" cy="210.0" r="10.64727646091631"/>
    <circle cx="570.0" cy="220.0" r="16.24908437231411"/>
    <circle cx="580.0" cy="230.0" r="21.760321270700533"/>
    <circle cx="590.0" cy="240.0" r="27.13661391712459"/>
    <circle cx="600.0" cy="250.0" r="32.33467556440616"/>
    <circle cx="610.0" cy="260.0" r="37.312654476572085"/>
    <circle cx="620.0" cy="270.0" r="42.03047089442581"/>
    <circle cx="630.0" cy="280.0" r="46.45013973420189"/>
    <circle cx="640.0" cy="290.0" r="50.536076421125664"/>
    <circle cx="650.0" cy="300.0" r="54.25538339548588"/>
    <circle cx="660.0" cy="310.0" r="57.57811498444207"/>
    <circle cx="670.0" cy="320.0" r="60.47751850697449"/>
    <circle cx="680.0" cy="330.0" r="62.93024967074139"/>
    <circle cx="690.0" cy="340.0" r="64.91656052659468"/>
    <circle cx="700.0" cy="350.0" r="66.42045846745489"/>
    <circle cx="710.0" cy="360.0" r="67.42983499137989"/>
    <circle cx="720.0" cy="370.0" r="67.93656319210282"/>
    <circle cx="730.0" cy="380.0" r="67.93656319210282"/>
    <circle cx="740.0" cy="390.0" r="67.42983499137989"/>
    <circle cx="750.0" cy="400.0" r="66.42045846745489"/>
    <circle cx="760.0" cy="410.0" r="64.91656052659468"/>
    <circle cx="770.0" cy="420.0" r="62.9302496707414"/>
    <circle cx="780.0" cy="430.0" r="60.47751850697449"/>
    <circle cx="790.0" cy="440.0" r="57.578114984442074"/>
    <circle cx="800.0" cy="450.0" r="54.255383395485886"/>
    <circle cx="810.0" cy="460.0" r="50.53607642112567"/>
    <circle cx="820.0" cy="470.0" r="46.4501397342019"/>
    <circle cx="830.0" cy="480.0" r="42.03047089442582"/>
    <circle cx="840.0" cy="490.0" r="37.31265447657209"/>
    <circle cx="850.0" cy="500.0" r="32.33467556440617"/>
    <circle cx="860.0" cy="510.0" r="27.136613917124595"/>
    <circle cx="870.0" cy="520.0" r="21.76032127070054"/>
    <circle cx="880.0" cy="530.0" r="16.249084372314115"/>
    <circle cx="890.0" cy="540.0" r="10.647276460916318"/>
    <circle cx="900.0" cy="550.0" r="5.000000000000008"/>
    <circle cx="550.0" cy="250.0" r="5.0"/>
    <circle cx="560.0" cy="260.0" r="11.140292659885194"/>
    <circle cx="570.0" cy="270.0" r="17.231147293706613"/>
    <circle cx="580.0" cy="280.0" r="23.223523921317245"/>
    <circle cx="590.0" cy="290.0" r="29.069175449571976"/>
    <circle cx="600.0" cy="300.0" r="34.72103612955273"/>
    <circle cx="610.0" cy="310.0" r="40.13360050230457"/>
    <circle cx="620.0" cy="320.0" r="45.26328978203441"/>
    <circle cx="630.0" cy="330.0" r="50.06880272687031"/>
    <circle cx="640.0" cy="340.0" r="54.511448172176316"/>
    <circle cx="650.0" cy="350.0" r="58.55545654906004"/>
    <circle cx="660.0" cy="360.0" r="62.16826787990923"/>
    <circle cx="670.0" cy="370.0" r="65.32079393218655"/>
    <circle cx="680.0" cy="380.0" r="67.98765241977436"/>
    <circle cx="690.0" cy="390.0" r="70.14737136621801"/>
    <circle cx="700.0" cy="400.0" r="71.78256198445492"/>
    <circle cx="710.0" cy="410.0" r="72.88005868110352"/>
    <circle cx="720.0" cy="420.0" r="73.43102505808005"/>
    <circle cx="730.0" cy="430.0" r="73.43102505808005"/>
    <circle cx="740.0" cy="440.0" r="72.88005868110353"/>
    <circle cx="750.0" cy="450.0" r="71.78256198445492"/>
    <circle cx="760.0" cy="460.0" r="70.14737136621802"/>
    <circle cx="770.0" cy="470.0" r="67.98765241977438"/>
    <circle cx="780.0" cy="480.0" r="65.32079393218655"/>
    <circle cx="790.0" cy="490.0" r="62.16826787990924"/>
    <circle cx="800.0" cy="500.0" r="58.55545654906005"/>
    <circle cx="810.0" cy="510.0" r="54.51144817217632"/>
    <circle cx="820.0" cy="520.0" r="50.06880272687032"/>
    <circle cx="830.0" cy="530.0" r="45.26328978203442"/>
    <circle cx="840.0" cy="540.0" r="40.133600502304574"/>
    <circle cx="850.0" cy="550.0" r="34.72103612955274"/>
    <circle cx="860.0" cy="560.0" r="29.069175449571983"/>
    <circle cx="870.0" cy="570.0" r="23.223523921317252"/>
    <circle cx="880.0" cy="580.0" r="17.23114729370662"/>
    <circle cx="890.0" cy="590.0" r="11.140292659885203"/>
    <circle cx="900.0" cy="600.0" r="5.000000000000008"/>
    <circle cx="550.0" cy="650.0" r="5.0"/>
    <circle cx="560.0" cy="660.0" r="11.005833696530043"/>
    <circle cx="570.0" cy="670.0" r="16.963311951508658"/>
    <circle cx="580.0" cy="680.0" r="22.824468652967234"/>
    <circle cx="590.0" cy="690.0" r="28.54211321344996"/>
    <circle cx="600.0" cy="700.0" r="34.070210520876394"/>
    <circle cx="610.0" cy="710.0" r="39.364251586195714"/>
    <circle cx="620.0" cy="720.0" r="44.3816119035957"/>
    <circle cx="630.0" cy="730.0" r="49.081894637960744"/>
    <circle cx="640.0" cy="740.0" r="53.427255876435225"/>
    <circle cx="650.0" cy="750.0" r="57.382709325358"/>
    <circle cx="550.0" cy="800.0" r="5.0"/>
    <circle cx="560.0" cy="810.0" r="7.240982722585837"/>
    <circle cx="600.0" cy="500.0" r="5.0"/>
    <circle cx="610.0" cy="510.0" r="10.10944060749571"/>
    <circle cx="620.0" cy="520.0" r="15.17774300352229"/>
    <circle cx="630.0" cy="530.0" r="20.16410019730048"/>
    <circle cx="640.0" cy="540.0" r="25.028364972636535"/>
    <circle cx="650.0" cy="550.0" r="29.731373129700813"/>
    <circle cx="660.0" cy="560.0" r="34.23525881213665"/>
    <circle cx="670.0" cy="570.0" r="38.50375938067097"/>
    <circle cx="680.0" cy="580.0" r="42.50250737856362"/>
    <circle cx="690.0" cy="590.0" r="46.19930723816131"/>
    <circle cx="700.0" cy="600.0" r="49.5643945006777"/>
    <circle cx="710.0" cy="610.0" r="52.57067546211425"/>
    <circle cx="720.0" cy="620.0" r="55.193945315834064"/>
    <circle cx="730.0" cy="630.0" r="57.413083035432685"/>
    <circle cx="740.0" cy="640.0" r="59.21022142882375"/>
    <circle cx="750.0" cy="650.0" r="60.57089099436395"/>
    <circle cx="760.0" cy="660.0" r="61.48413642077228"/>
    <circle cx="770.0" cy="670.0" r="61.94260479285493"/>
    <circle cx="780.0" cy="680.0" r="61.94260479285494"/>
    <circle cx="790.0" cy="690.0" r="61.48413642077229"/>
    <circle cx="800.0" cy="700.0" r="60.57089099436395"/>
    <circle cx="810.0" cy="710.0" r="59.21022142882376"/>
    <circle cx="820.0" cy="720.0" r="57.41308303543269"/>
    <circle cx="830.0" cy="730.0" r="55.193945315834064"/>
    <circle cx="840.0" cy="740.0" r="52.57067546211426"/>
    <circle cx="850.0" cy="750.0" r="49.56439450067771"/>
    <circle cx="860.0" cy="760.0" r="46.19930723816132"/>
    <circle cx="870.0" cy="770.0" r="42.50250737856362"/>
    <circle cx="880.0" cy="780.0" r="38.50375938067098"/>
    <circle cx="750.0" cy="250.0" r="5.0"/>
    <circle cx="760.0" cy="260.0" r="8.137375811620172"/>
    <circle cx="770.0" cy="270.0" r="11.249491317952284"/>
    <circle cx="780.0" cy="280.0" r="14.31128959483363"/>
    <circle cx="790.0" cy="290.0" r="17.298118842846996"/>
    <circle cx="800.0" cy="300.0" r="20.185930869114536"/>
    <circle cx="810.0" cy="310.0" r="22.951474709206714"/>
    <circle cx="820.0" cy="320.0" r="25.57248383023656"/>
    <circle cx="830.0" cy="330.0" r="28.02785540788994"/>
    <circle cx="840.0" cy="340.0" r="30.2978202339587"/>
    <circle cx="850.0" cy="350.0" r="32.36410188638104"/>
    <circle cx="860.0" cy="360.0" r="34.21006388024559"/>
    <circle cx="870.0" cy="370.0" r="35.82084361498583"/>
    <circle cx="880.0" cy="380.0" r="37.18347203930077"/>
    <circle cx="890.0" cy="390.0" r="38.28697807033037"/>
    <circle cx="900.0" cy="400.0" r="39.122476926363824"/>
    <circle cx="910.0" cy="410.0" r="39.683241661877716"/>
    <circle cx="920.0" cy="420.0" r="39.964757328946014"/>
    <circle cx="930.0" cy="430.0" r="39.964757328946014"/>
    <circle cx="940.0" cy="440.0" r="39.683241661877716"/>
    <circle cx="950.0" cy="450.0" r="39.122476926363824"/>
    <circle cx="960.0" cy="460.0" r="38.28697807033038"/>
    <circle cx="970.0" cy="470.0" r="37.183472039300774"/>
    <circle cx="980.0" cy="480.0" r="35.82084361498583"/>
    <circle cx="990.0" cy="490.0" r="34.2100638802456"/>
    <circle cx="1000.0" cy="500.0" r="32.36410188638105"/>
    <circle cx="1010.0" cy="510.0" r="30.297820233958703"/>
    <circle cx="1020.0" cy="520.0" r="28.027855407889945"/>
    <circle cx="1030.0" cy="530.0" r="25.572483830236564"/>
    <circle cx="1040.0" cy="540.0" r="22.951474709206718"/>
    <circle cx="1050.0" cy="550.0" r="20.185930869114536"/>
    <circle cx="1060.0" cy="560.0" r="17.298118842846996"/>
    <circle cx="1070.0" cy="570.0" r="14.311289594833633"/>
    <circle cx="1080.0" cy="580.0" r="11.249491317952288"/>
    <circle cx="1090.0" cy="590.0" r="8.137375811620178"/>
    <circle cx="800.0" cy="800.0" r="5.0"/>
    <circle cx="810.0" cy="810.0" r="9.168227864009658"/>
    <circle cx="960.0" cy="60.0" r="9.661244062978541"/>
    <circle cx="970.0" cy="70.0" r="14.284958529529106"/>
    <circle cx="980.0" cy="80.0" r="18.833915969467107"/>
    <circle cx="990.0" cy="90.0" r="23.27149085222982"/>
    <circle cx="1000.0" cy="100.0" r="27.561954434113023"/>
    <circle cx="1010.0" cy="110.0" r="31.670762425107117"/>
    <circle cx="1020.0" cy="120.0" r="35.5648331192086"/>
    <circle cx="1030.0" cy="130.0" r="39.21281374886505"/>
    <circle cx="1040.0" cy="140.0" r="42.58533291902435"/>
    <circle cx="1050.0" cy="150.0" r="45.65523708833755"/>
    <circle cx="950.0" cy="700.0" r="5.0"/>
    <circle cx="960.0" cy="710.0" r="9.437145790719958"/>
    <circle cx="970.0" cy="720.0" r="13.838566292532514"/>
    <circle cx="980.0" cy="730.0" r="18.168823855550418"/>
    <circle cx="990.0" cy="740.0" r="22.393053792026464"/>
    <circle cx="1000.0" cy="750.0" r="26.477245086319126"/>
    <circle cx="1010.0" cy="760.0" r="30.388514231592353"/>
    <circle cx="1020.0" cy="770.0" r="34.095369988477415"/>
    <circle cx="1030.0" cy="780.0" r="37.56796693401577"/>
    <circle cx="1050.0" cy="650.0" r="5.0"/>
    <circle cx="1060.0" cy="660.0" r="10.333538879754293"/>
    <circle cx="1070.0" cy="670.0" r="15.62413524051888"/>
  </g>
</svg>
