<svg version="1.1" width="1150" height="870" xmlns="http://www.w3.org/2000/svg">
  <!-- Seed: 2094809178046745651 -->
  <!-- Size: SvgSize.Size9x12 -->
  <!-- Params:
    draw: True
    count: 20
    clamp_start: 50
    stack_count: [RangeInt] min: 35 max: 35
    fixed_size: 0
    min_size: 10
    max_size_range: [RangeInt] min: 50 max: 150
  -->
  <g stroke="black" fill="none">
    <circle cx="60.0" cy="810.0" r="8.45111339278219"/>
    <circle cx="100.0" cy="550.0" r="5.0"/>
    <circle cx="110.0" cy="560.0" r="7.465080994844421"/>
    <circle cx="120.0" cy="570.0" r="9.910314606962508"/>
    <circle cx="130.0" cy="580.0" r="12.316013253083565"/>
    <circle cx="140.0" cy="590.0" r="14.662807662236924"/>
    <circle cx="150.0" cy="600.0" r="16.93180282573285"/>
    <circle cx="160.0" cy="610.0" r="19.104730128662418"/>
    <circle cx="170.0" cy="620.0" r="21.164094438043012"/>
    <circle cx="180.0" cy="630.0" r="23.093314963342095"/>
    <circle cx="190.0" cy="640.0" r="24.876858755253263"/>
    <circle cx="200.0" cy="650.0" r="26.500365767870818"/>
    <circle cx="210.0" cy="660.0" r="27.950764477335824"/>
    <circle cx="220.0" cy="670.0" r="29.216377126060294"/>
    <circle cx="230.0" cy="680.0" r="30.28701374516489"/>
    <circle cx="240.0" cy="690.0" r="31.15405419811672"/>
    <circle cx="250.0" cy="700.0" r="31.81051758500015"/>
    <circle cx="260.0" cy="710.0" r="32.2511184486182"/>
    <circle cx="270.0" cy="720.0" r="32.47230932988615"/>
    <circle cx="280.0" cy="730.0" r="32.47230932988616"/>
    <circle cx="290.0" cy="740.0" r="32.25111844861821"/>
    <circle cx="300.0" cy="750.0" r="31.81051758500015"/>
    <circle cx="310.0" cy="760.0" r="31.154054198116725"/>
    <circle cx="320.0" cy="770.0" r="30.287013745164895"/>
    <circle cx="330.0" cy="780.0" r="29.216377126060294"/>
    <circle cx="340.0" cy="790.0" r="27.950764477335827"/>
    <circle cx="150.0" cy="200.0" r="5.0"/>
    <circle cx="160.0" cy="210.0" r="10.51281749756116"/>
    <circle cx="170.0" cy="220.0" r="15.981249030116153"/>
    <circle cx="180.0" cy="230.0" r="21.36126600235052"/>
    <circle cx="190.0" cy="240.0" r="26.609551681002575"/>
    <circle cx="200.0" cy="250.0" r="31.683849955729823"/>
    <circle cx="210.0" cy="260.0" r="36.543305560463224"/>
    <circle cx="220.0" cy="270.0" r="41.148793015987096"/>
    <circle cx="230.0" cy="280.0" r="45.463231645292325"/>
    <circle cx="240.0" cy="290.0" r="49.451884125384574"/>
    <circle cx="250.0" cy="300.0" r="53.08263617178383"/>
    <circle cx="260.0" cy="310.0" r="56.32625510386011"/>
    <circle cx="270.0" cy="320.0" r="59.156625209189386"/>
    <circle cx="280.0" cy="330.0" r="61.55095801191421"/>
    <circle cx="290.0" cy="340.0" r="63.48997575215194"/>
    <circle cx="300.0" cy="350.0" r="64.95806659918216"/>
    <circle cx="310.0" cy="360.0" r="65.94341034872798"/>
    <circle cx="320.0" cy="370.0" r="66.43807359229085"/>
    <circle cx="330.0" cy="380.0" r="66.43807359229086"/>
    <circle cx="340.0" cy="390.0" r="65.943410348728"/>
    <circle cx="350.0" cy="400.0" r="64.95806659918216"/>
    <circle cx="360.0" cy="410.0" r="63.48997575215195"/>
    <circle cx="370.0" cy="420.0" r="61.55095801191422"/>
    <circle cx="380.0" cy="430.0" r="59.156625209189386"/>
    <circle cx="390.0" cy="440.0" r="56.32625510386012"/>
    <circle cx="400.0" cy="450.0" r="53.08263617178384"/>
    <circle cx="410.0" cy="460.0" r="49.45188412538458"/>
    <circle cx="420.0" cy="470.0" r="45.46323164529233"/>
    <circle cx="430.0" cy="480.0" r="41.1487930159871"/>
    <circle cx="440.0" cy="490.0" r="36.54330556046324"/>
    <circle cx="450.0" cy="500.0" r="31.68384995572983"/>
    <circle cx="460.0" cy="510.0" r="26.609551681002582"/>
    <circle cx="470.0" cy="520.0" r="21.361266002350526"/>
    <circle cx="480.0" cy="530.0" r="15.98124903011616"/>
    <circle cx="490.0" cy="540.0" r="10.512817497561167"/>
    <circle cx="500.0" cy="550.0" r="5.000000000000007"/>
    <circle cx="150.0" cy="600.0" r="5.0"/>
    <circle cx="160.0" cy="610.0" r="8.271834774975323"/>
    <circle cx="170.0" cy="620.0" r="11.517326660150237"/>
    <circle cx="180.0" cy="630.0" r="14.710344863183641"/>
    <circle cx="190.0" cy="640.0" r="17.82518107896901"/>
    <circle cx="200.0" cy="650.0" r="20.83675647779087"/>
    <circle cx="210.0" cy="660.0" r="23.720823625315575"/>
    <circle cx="220.0" cy="670.0" r="26.45416170867527"/>
    <circle cx="230.0" cy="680.0" r="29.01476349679951"/>
    <circle cx="240.0" cy="690.0" r="31.38201252969979"/>
    <circle cx="250.0" cy="700.0" r="33.53684911008309"/>
    <circle cx="260.0" cy="710.0" r="35.461923760827545"/>
    <circle cx="270.0" cy="720.0" r="37.14173691277094"/>
    <circle cx="280.0" cy="730.0" r="38.562763698127945"/>
    <circle cx="290.0" cy="740.0" r="39.7135628447731"/>
    <circle cx="300.0" cy="750.0" r="40.58486879463656"/>
    <circle cx="310.0" cy="760.0" r="41.16966630452961"/>
    <circle cx="320.0" cy="770.0" r="41.46324692875798"/>
    <circle cx="250.0" cy="350.0" r="5.0"/>
    <circle cx="260.0" cy="360.0" r="9.481965445171674"/>
    <circle cx="270.0" cy="370.0" r="13.927844739931832"/>
    <circle cx="280.0" cy="380.0" r="18.30184227833376"/>
    <circle cx="290.0" cy="390.0" r="22.568741204067134"/>
    <circle cx="300.0" cy="400.0" r="26.694186955877907"/>
    <circle cx="310.0" cy="410.0" r="30.644963870295307"/>
    <circle cx="320.0" cy="420.0" r="34.38926261462366"/>
    <circle cx="330.0" cy="430.0" r="37.89693629698563"/>
    <circle cx="340.0" cy="440.0" r="41.139743191369575"/>
    <circle cx="350.0" cy="450.0" r="44.09157412340149"/>
    <circle cx="360.0" cy="460.0" r="46.728662686065135"/>
    <circle cx="370.0" cy="470.0" r="49.0297765928369"/>
    <circle cx="380.0" cy="480.0" r="50.976388627572526"/>
    <circle cx="390.0" cy="490.0" r="52.552825814757675"/>
    <circle cx="400.0" cy="500.0" r="53.74639560909118"/>
    <circle cx="410.0" cy="510.0" r="54.54748808839673"/>
    <circle cx="420.0" cy="520.0" r="54.94965332706573"/>
    <circle cx="430.0" cy="530.0" r="54.94965332706573"/>
    <circle cx="440.0" cy="540.0" r="54.54748808839674"/>
    <circle cx="450.0" cy="550.0" r="53.74639560909118"/>
    <circle cx="460.0" cy="560.0" r="52.55282581475768"/>
    <circle cx="470.0" cy="570.0" r="50.97638862757253"/>
    <circle cx="480.0" cy="580.0" r="49.0297765928369"/>
    <circle cx="490.0" cy="590.0" r="46.728662686065135"/>
    <circle cx="500.0" cy="600.0" r="44.09157412340149"/>
    <circle cx="510.0" cy="610.0" r="41.139743191369575"/>
    <circle cx="520.0" cy="620.0" r="37.896936296985636"/>
    <circle cx="530.0" cy="630.0" r="34.38926261462366"/>
    <circle cx="540.0" cy="640.0" r="30.644963870295314"/>
    <circle cx="550.0" cy="650.0" r="26.69418695587791"/>
    <circle cx="560.0" cy="660.0" r="22.56874120406714"/>
    <circle cx="570.0" cy="670.0" r="18.301842278333762"/>
    <circle cx="580.0" cy="680.0" r="13.927844739931839"/>
    <circle cx="590.0" cy="690.0" r="9.481965445171681"/>
    <circle cx="600.0" cy="700.0" r="5.000000000000006"/>
    <circle cx="250.0" cy="600.0" r="5.0"/>
    <circle cx="260.0" cy="610.0" r="10.423178188657726"/>
    <circle cx="270.0" cy="620.0" r="15.802692135317518"/>
    <circle cx="280.0" cy="630.0" r="21.095229156783844"/>
    <circle cx="290.0" cy="640.0" r="26.25817685692123"/>
    <circle cx="300.0" cy="650.0" r="31.249966216612265"/>
    <circle cx="310.0" cy="660.0" r="36.03040628305732"/>
    <circle cx="320.0" cy="670.0" r="40.561007763694626"/>
    <circle cx="330.0" cy="680.0" r="44.80529291935261"/>
    <circle cx="340.0" cy="690.0" r="48.729089261557185"/>
    <circle cx="350.0" cy="700.0" r="52.300804689315804"/>
    <circle cx="360.0" cy="710.0" r="55.49168185013881"/>
    <circle cx="370.0" cy="720.0" r="58.27602967733265"/>
    <circle cx="380.0" cy="730.0" r="60.63143023936276"/>
    <circle cx="390.0" cy="740.0" r="62.53891923585679"/>
    <circle cx="400.0" cy="750.0" r="63.98313868700033"/>
    <circle cx="300.0" cy="750.0" r="5.0"/>
    <circle cx="310.0" cy="760.0" r="8.899309937299357"/>
    <circle cx="320.0" cy="770.0" r="12.767224923740695"/>
    <circle cx="330.0" cy="780.0" r="16.57260278215037"/>
    <circle cx="340.0" cy="790.0" r="20.284804847538407"/>
    <circle cx="350.0" cy="350.0" r="5.0"/>
    <circle cx="360.0" cy="360.0" r="11.229931968788627"/>
    <circle cx="370.0" cy="370.0" r="17.409704188505245"/>
    <circle cx="380.0" cy="380.0" r="23.48956076688392"/>
    <circle cx="390.0" cy="390.0" r="29.420550273653316"/>
    <circle cx="400.0" cy="400.0" r="35.15491986867029"/>
    <circle cx="410.0" cy="410.0" r="40.646499779710474"/>
    <circle cx="420.0" cy="420.0" r="45.85107503432688"/>
    <circle cx="430.0" cy="430.0" r="50.726741452810025"/>
    <circle cx="440.0" cy="440.0" r="55.234243036003704"/>
    <circle cx="450.0" cy="450.0" r="59.33728803152807"/>
    <circle cx="460.0" cy="460.0" r="63.00284113363053"/>
    <circle cx="470.0" cy="470.0" r="66.20138946404329"/>
    <circle cx="480.0" cy="480.0" r="68.90718019232582"/>
    <circle cx="490.0" cy="490.0" r="71.09842788251316"/>
    <circle cx="500.0" cy="500.0" r="72.75748989663674"/>
    <circle cx="510.0" cy="510.0" r="73.87100844287146"/>
    <circle cx="520.0" cy="520.0" r="74.43001812462137"/>
    <circle cx="530.0" cy="530.0" r="74.43001812462137"/>
    <circle cx="540.0" cy="540.0" r="73.87100844287147"/>
    <circle cx="550.0" cy="550.0" r="72.75748989663674"/>
    <circle cx="560.0" cy="560.0" r="71.09842788251318"/>
    <circle cx="570.0" cy="570.0" r="68.90718019232582"/>
    <circle cx="580.0" cy="580.0" r="66.20138946404329"/>
    <circle cx="590.0" cy="590.0" r="63.00284113363054"/>
    <circle cx="600.0" cy="600.0" r="59.33728803152808"/>
    <circle cx="610.0" cy="610.0" r="55.23424303600371"/>
    <circle cx="620.0" cy="620.0" r="50.72674145281003"/>
    <circle cx="630.0" cy="630.0" r="45.85107503432689"/>
    <circle cx="640.0" cy="640.0" r="40.64649977971048"/>
    <circle cx="650.0" cy="650.0" r="35.1549198686703"/>
    <circle cx="660.0" cy="660.0" r="29.420550273653323"/>
    <circle cx="670.0" cy="670.0" r="23.48956076688393"/>
    <circle cx="680.0" cy="680.0" r="17.409704188505255"/>
    <circle cx="690.0" cy="690.0" r="11.229931968788637"/>
    <circle cx="700.0" cy="700.0" r="5.000000000000009"/>
    <circle cx="400.0" cy="300.0" r="5.0"/>
    <circle cx="410.0" cy="310.0" r="11.722948167757512"/>
    <circle cx="420.0" cy="320.0" r="18.39176710989775"/>
    <circle cx="430.0" cy="330.0" r="24.952763417500634"/>
    <circle cx="440.0" cy="340.0" r="31.353111806100703"/>
    <circle cx="450.0" cy="350.0" r="37.54128043381686"/>
    <circle cx="460.0" cy="360.0" r="43.467445805442956"/>
    <circle cx="470.0" cy="370.0" r="49.083893921935484"/>
    <circle cx="480.0" cy="380.0" r="54.345404445478444"/>
    <circle cx="490.0" cy="390.0" r="59.209614787054356"/>
    <circle cx="500.0" cy="400.0" r="63.637361185102236"/>
    <circle cx="510.0" cy="410.0" r="67.5929940290977"/>
    <circle cx="520.0" cy="420.0" r="71.04466488925534"/>
    <circle cx="530.0" cy="430.0" r="73.9645829413588"/>
    <circle cx="540.0" cy="440.0" r="76.32923872213651"/>
    <circle cx="550.0" cy="450.0" r="78.11959341363678"/>
    <circle cx="560.0" cy="460.0" r="79.3212321325951"/>
    <circle cx="570.0" cy="470.0" r="79.9244799905986"/>
    <circle cx="580.0" cy="480.0" r="79.9244799905986"/>
    <circle cx="590.0" cy="490.0" r="79.32123213259511"/>
    <circle cx="600.0" cy="500.0" r="78.11959341363678"/>
    <circle cx="610.0" cy="510.0" r="76.32923872213652"/>
    <circle cx="620.0" cy="520.0" r="73.9645829413588"/>
    <circle cx="630.0" cy="530.0" r="71.04466488925534"/>
    <circle cx="640.0" cy="540.0" r="67.59299402909771"/>
    <circle cx="650.0" cy="550.0" r="63.63736118510224"/>
    <circle cx="660.0" cy="560.0" r="59.20961478705436"/>
    <circle cx="670.0" cy="570.0" r="54.34540444547845"/>
    <circle cx="680.0" cy="580.0" r="49.08389392193549"/>
    <circle cx="690.0" cy="590.0" r="43.46744580544297"/>
    <circle cx="700.0" cy="600.0" r="37.541280433816866"/>
    <circle cx="710.0" cy="610.0" r="31.35311180610071"/>
    <circle cx="720.0" cy="620.0" r="24.95276341750064"/>
    <circle cx="730.0" cy="630.0" r="18.391767109897756"/>
    <circle cx="740.0" cy="640.0" r="11.722948167757522"/>
    <circle cx="750.0" cy="650.0" r="5.000000000000009"/>
    <circle cx="450.0" cy="150.0" r="5.0"/>
    <circle cx="460.0" cy="160.0" r="8.85449028284764"/>
    <circle cx="470.0" cy="170.0" r="12.677946476341376"/>
    <circle cx="480.0" cy="180.0" r="16.439584359367032"/>
    <circle cx="490.0" cy="190.0" r="20.109117435497737"/>
    <circle cx="500.0" cy="200.0" r="23.657000782055"/>
    <circle cx="510.0" cy="210.0" r="27.054668928453964"/>
    <circle cx="520.0" cy="220.0" r="30.274765848576344"/>
    <circle cx="530.0" cy="230.0" r="33.29136521540764"/>
    <circle cx="540.0" cy="240.0" r="36.08017914457783"/>
    <circle cx="550.0" cy="250.0" r="38.61875374612528"/>
    <circle cx="560.0" cy="260.0" r="40.88664991001601"/>
    <circle cx="570.0" cy="270.0" r="42.865607869839735"/>
    <circle cx="580.0" cy="280.0" r="44.53969421971237"/>
    <circle cx="590.0" cy="290.0" r="45.8954302006916"/>
    <circle cx="600.0" cy="300.0" r="46.92190022381842"/>
    <circle cx="610.0" cy="310.0" r="47.61083975602119"/>
    <circle cx="620.0" cy="320.0" r="47.95670186127653"/>
    <circle cx="630.0" cy="330.0" r="47.956701861276535"/>
    <circle cx="640.0" cy="340.0" r="47.6108397560212"/>
    <circle cx="650.0" cy="350.0" r="46.92190022381842"/>
    <circle cx="660.0" cy="360.0" r="45.89543020069161"/>
    <circle cx="670.0" cy="370.0" r="44.53969421971238"/>
    <circle cx="680.0" cy="380.0" r="42.865607869839735"/>
    <circle cx="690.0" cy="390.0" r="40.88664991001602"/>
    <circle cx="700.0" cy="400.0" r="38.618753746125286"/>
    <circle cx="710.0" cy="410.0" r="36.08017914457784"/>
    <circle cx="720.0" cy="420.0" r="33.291365215407644"/>
    <circle cx="730.0" cy="430.0" r="30.27476584857635"/>
    <circle cx="740.0" cy="440.0" r="27.054668928453967"/>
    <circle cx="750.0" cy="450.0" r="23.657000782055004"/>
    <circle cx="760.0" cy="460.0" r="20.10911743549774"/>
    <circle cx="770.0" cy="470.0" r="16.439584359367036"/>
    <circle cx="780.0" cy="480.0" r="12.677946476341381"/>
    <circle cx="790.0" cy="490.0" r="8.854490282847646"/>
    <circle cx="800.0" cy="500.0" r="5.000000000000005"/>
    <circle cx="450.0" cy="800.0" r="5.0"/>
    <circle cx="460.0" cy="810.0" r="8.809670628395924"/>
    <circle cx="700.0" cy="400.0" r="5.0"/>
    <circle cx="710.0" cy="410.0" r="8.85449028284764"/>
    <circle cx="720.0" cy="420.0" r="12.677946476341376"/>
    <circle cx="730.0" cy="430.0" r="16.439584359367032"/>
    <circle cx="740.0" cy="440.0" r="20.109117435497737"/>
    <circle cx="750.0" cy="450.0" r="23.657000782055"/>
    <circle cx="760.0" cy="460.0" r="27.054668928453964"/>
    <circle cx="770.0" cy="470.0" r="30.274765848576344"/>
    <circle cx="780.0" cy="480.0" r="33.29136521540764"/>
    <circle cx="790.0" cy="490.0" r="36.08017914457783"/>
    <circle cx="800.0" cy="500.0" r="38.61875374612528"/>
    <circle cx="810.0" cy="510.0" r="40.88664991001601"/>
    <circle cx="820.0" cy="520.0" r="42.865607869839735"/>
    <circle cx="830.0" cy="530.0" r="44.53969421971237"/>
    <circle cx="840.0" cy="540.0" r="45.8954302006916"/>
    <circle cx="850.0" cy="550.0" r="46.92190022381842"/>
    <circle cx="860.0" cy="560.0" r="47.61083975602119"/>
    <circle cx="870.0" cy="570.0" r="47.95670186127653"/>
    <circle cx="880.0" cy="580.0" r="47.956701861276535"/>
    <circle cx="890.0" cy="590.0" r="47.6108397560212"/>
    <circle cx="900.0" cy="600.0" r="46.92190022381842"/>
    <circle cx="910.0" cy="610.0" r="45.89543020069161"/>
    <circle cx="920.0" cy="620.0" r="44.53969421971238"/>
    <circle cx="930.0" cy="630.0" r="42.865607869839735"/>
    <circle cx="940.0" cy="640.0" r="40.88664991001602"/>
    <circle cx="950.0" cy="650.0" r="38.618753746125286"/>
    <circle cx="960.0" cy="660.0" r="36.08017914457784"/>
    <circle cx="970.0" cy="670.0" r="33.291365215407644"/>
    <circle cx="980.0" cy="680.0" r="30.27476584857635"/>
    <circle cx="990.0" cy="690.0" r="27.054668928453967"/>
    <circle cx="1000.0" cy="700.0" r="23.657000782055004"/>
    <circle cx="1010.0" cy="710.0" r="20.10911743549774"/>
    <circle cx="1020.0" cy="720.0" r="16.439584359367036"/>
    <circle cx="1030.0" cy="730.0" r="12.677946476341381"/>
    <circle cx="1040.0" cy="740.0" r="8.854490282847646"/>
    <circle cx="1050.0" cy="750.0" r="5.000000000000005"/>
    <circle cx="750.0" cy="250.0" r="5.0"/>
    <circle cx="760.0" cy="260.0" r="11.140292659885194"/>
    <circle cx="770.0" cy="270.0" r="17.231147293706613"/>
    <circle cx="780.0" cy="280.0" r="23.223523921317245"/>
    <circle cx="790.0" cy="290.0" r="29.069175449571976"/>
    <circle cx="800.0" cy="300.0" r="34.72103612955273"/>
    <circle cx="810.0" cy="310.0" r="40.13360050230457"/>
    <circle cx="820.0" cy="320.0" r="45.26328978203441"/>
    <circle cx="830.0" cy="330.0" r="50.06880272687031"/>
    <circle cx="840.0" cy="340.0" r="54.511448172176316"/>
    <circle cx="850.0" cy="350.0" r="58.55545654906004"/>
    <circle cx="860.0" cy="360.0" r="62.16826787990923"/>
    <circle cx="870.0" cy="370.0" r="65.32079393218655"/>
    <circle cx="880.0" cy="380.0" r="67.98765241977436"/>
    <circle cx="890.0" cy="390.0" r="70.14737136621801"/>
    <circle cx="900.0" cy="400.0" r="71.78256198445492"/>
    <circle cx="910.0" cy="410.0" r="72.88005868110352"/>
    <circle cx="920.0" cy="420.0" r="73.43102505808005"/>
    <circle cx="930.0" cy="430.0" r="73.43102505808005"/>
    <circle cx="940.0" cy="440.0" r="72.88005868110353"/>
    <circle cx="950.0" cy="450.0" r="71.78256198445492"/>
    <circle cx="960.0" cy="460.0" r="70.14737136621802"/>
    <circle cx="970.0" cy="470.0" r="67.98765241977438"/>
    <circle cx="980.0" cy="480.0" r="65.32079393218655"/>
    <circle cx="990.0" cy="490.0" r="62.16826787990924"/>
    <circle cx="1000.0" cy="500.0" r="58.55545654906005"/>
    <circle cx="1010.0" cy="510.0" r="54.51144817217632"/>
    <circle cx="1020.0" cy="520.0" r="50.06880272687032"/>
    <circle cx="1030.0" cy="530.0" r="45.26328978203442"/>
    <circle cx="1040.0" cy="540.0" r="40.133600502304574"/>
    <circle cx="1050.0" cy="550.0" r="34.72103612955274"/>
    <circle cx="1060.0" cy="560.0" r="29.069175449571983"/>
    <circle cx="1070.0" cy="570.0" r="23.223523921317252"/>
    <circle cx="1080.0" cy="580.0" r="17.23114729370662"/>
    <circle cx="800.0" cy="800.0" r="5.0"/>
    <circle cx="810.0" cy="810.0" r="9.257867172913091"/>
    <circle cx="850.0" cy="700.0" r="5.0"/>
    <circle cx="860.0" cy="710.0" r="10.288719225302575"/>
    <circle cx="870.0" cy="720.0" r="15.534856793119562"/>
    <circle cx="880.0" cy="730.0" r="20.696173888433833"/>
    <circle cx="890.0" cy="740.0" r="25.731114620799218"/>
    <circle cx="900.0" cy="750.0" r="30.59914060793593"/>
    <circle cx="910.0" cy="760.0" r="35.261057366948464"/>
    <circle cx="920.0" cy="770.0" r="39.67932988525592"/>
    <circle cx="900.0" cy="500.0" r="5.0"/>
    <circle cx="910.0" cy="510.0" r="11.454030241047212"/>
    <circle cx="920.0" cy="520.0" r="17.85609642550184"/>
    <circle cx="930.0" cy="530.0" r="24.154652880800608"/>
    <circle cx="940.0" cy="540.0" r="30.298987333856672"/>
    <circle cx="950.0" cy="550.0" r="36.23962921646418"/>
    <circle cx="960.0" cy="560.0" r="41.92874797322524"/>
    <circle cx="970.0" cy="570.0" r="47.32053816505807"/>
    <circle cx="980.0" cy="580.0" r="52.371588267659305"/>
    <circle cx="990.0" cy="590.0" r="57.04123019557218"/>
    <circle cx="1000.0" cy="600.0" r="61.29186673769814"/>
    <circle cx="1010.0" cy="610.0" r="65.08927426793379"/>
    <circle cx="1020.0" cy="620.0" r="68.40287829368513"/>
    <circle cx="1050.0" cy="500.0" r="5.0"/>
    <circle cx="1060.0" cy="510.0" r="7.778818576006438"/>
    <circle cx="1070.0" cy="520.0" r="10.535263738757736"/>
    <circle cx="1080.0" cy="530.0" r="13.247142212566928"/>
    <circle cx="1050.0" cy="550.0" r="5.0"/>
    <circle cx="1060.0" cy="560.0" r="11.678128513305795"/>
    <circle cx="1070.0" cy="570.0" r="18.30248866249843"/>
  </g>
</svg>
