<svg version="1.1" width="1150" height="870" xmlns="http://www.w3.org/2000/svg">
  <!-- Seed: 4108004023934161891 -->
  <!-- Size: SvgSize.Size9x12 -->
  <!-- Params:
    draw: True
    count: 20
    clamp_start: 50
    stack_count: [RangeInt] min: 35 max: 35
    fixed_size: 0
    min_size: 10
    max_size_range: [RangeInt] min: 50 max: 150
  -->
  <g stroke="black" fill="none">
    <circle cx="110" cy="60" r="8.5"/>
    <circle cx="120" cy="70" r="11.96"/>
    <circle cx="130" cy="80" r="15.38"/>
    <circle cx="140" cy="90" r="18.7"/>
    <circle cx="150" cy="100" r="21.92"/>
    <circle cx="160" cy="110" r="25.0"/>
    <circle cx="170" cy="120" r="27.92"/>
    <circle cx="180" cy="130" r="30.66"/>
    <circle cx="190" cy="140" r="33.19"/>
    <circle cx="200" cy="150" r="35.49"/>
    <circle cx="210" cy="160" r="37.55"/>
    <circle cx="220" cy="170" r="39.34"/>
    <circle cx="230" cy="180" r="40.86"/>
    <circle cx="240" cy="190" r="42.09"/>
    <circle cx="250" cy="200" r="43.02"/>
    <circle cx="260" cy="210" r="43.65"/>
    <circle cx="270" cy="220" r="43.96"/>
    <circle cx="280" cy="230" r="43.96"/>
    <circle cx="290" cy="240" r="43.65"/>
    <circle cx="300" cy="250" r="43.02"/>
    <circle cx="310" cy="260" r="42.09"/>
    <circle cx="320" cy="270" r="40.86"/>
    <circle cx="330" cy="280" r="39.34"/>
    <circle cx="340" cy="290" r="37.55"/>
    <circle cx="350" cy="300" r="35.49"/>
    <circle cx="360" cy="310" r="33.19"/>
    <circle cx="370" cy="320" r="30.66"/>
    <circle cx="380" cy="330" r="27.92"/>
    <circle cx="390" cy="340" r="25.0"/>
    <circle cx="400" cy="350" r="21.92"/>
    <circle cx="410" cy="360" r="18.7"/>
    <circle cx="420" cy="370" r="15.38"/>
    <circle cx="430" cy="380" r="11.96"/>
    <circle cx="440" cy="390" r="8.5"/>
    <circle cx="450" cy="400" r="5.0"/>
    <circle cx="200" cy="150" r="5.0"/>
    <circle cx="210" cy="160" r="10.65"/>
    <circle cx="220" cy="170" r="16.25"/>
    <circle cx="230" cy="180" r="21.76"/>
    <circle cx="240" cy="190" r="27.14"/>
    <circle cx="250" cy="200" r="32.33"/>
    <circle cx="260" cy="210" r="37.31"/>
    <circle cx="270" cy="220" r="42.03"/>
    <circle cx="280" cy="230" r="46.45"/>
    <circle cx="290" cy="240" r="50.54"/>
    <circle cx="300" cy="250" r="54.26"/>
    <circle cx="310" cy="260" r="57.58"/>
    <circle cx="320" cy="270" r="60.48"/>
    <circle cx="330" cy="280" r="62.93"/>
    <circle cx="340" cy="290" r="64.92"/>
    <circle cx="350" cy="300" r="66.42"/>
    <circle cx="360" cy="310" r="67.43"/>
    <circle cx="370" cy="320" r="67.94"/>
    <circle cx="380" cy="330" r="67.94"/>
    <circle cx="390" cy="340" r="67.43"/>
    <circle cx="400" cy="350" r="66.42"/>
    <circle cx="410" cy="360" r="64.92"/>
    <circle cx="420" cy="370" r="62.93"/>
    <circle cx="430" cy="380" r="60.48"/>
    <circle cx="440" cy="390" r="57.58"/>
    <circle cx="450" cy="400" r="54.26"/>
    <circle cx="460" cy="410" r="50.54"/>
    <circle cx="470" cy="420" r="46.45"/>
    <circle cx="480" cy="430" r="42.03"/>
    <circle cx="490" cy="440" r="37.31"/>
    <circle cx="500" cy="450" r="32.33"/>
    <circle cx="510" cy="460" r="27.14"/>
    <circle cx="520" cy="470" r="21.76"/>
    <circle cx="530" cy="480" r="16.25"/>
    <circle cx="540" cy="490" r="10.65"/>
    <circle cx="550" cy="500" r="5.0"/>
    <circle cx="200" cy="600" r="5.0"/>
    <circle cx="210" cy="610" r="11.14"/>
    <circle cx="220" cy="620" r="17.23"/>
    <circle cx="230" cy="630" r="23.22"/>
    <circle cx="240" cy="640" r="29.07"/>
    <circle cx="250" cy="650" r="34.72"/>
    <circle cx="260" cy="660" r="40.13"/>
    <circle cx="270" cy="670" r="45.26"/>
    <circle cx="280" cy="680" r="50.07"/>
    <circle cx="290" cy="690" r="54.51"/>
    <circle cx="300" cy="700" r="58.56"/>
    <circle cx="310" cy="710" r="62.17"/>
    <circle cx="320" cy="720" r="65.32"/>
    <circle cx="330" cy="730" r="67.99"/>
    <circle cx="340" cy="740" r="70.15"/>
    <circle cx="300" cy="600" r="5.0"/>
    <circle cx="310" cy="610" r="11.72"/>
    <circle cx="320" cy="620" r="18.39"/>
    <circle cx="330" cy="630" r="24.95"/>
    <circle cx="340" cy="640" r="31.35"/>
    <circle cx="350" cy="650" r="37.54"/>
    <circle cx="360" cy="660" r="43.47"/>
    <circle cx="370" cy="670" r="49.08"/>
    <circle cx="380" cy="680" r="54.35"/>
    <circle cx="390" cy="690" r="59.21"/>
    <circle cx="400" cy="700" r="63.64"/>
    <circle cx="410" cy="710" r="67.59"/>
    <circle cx="420" cy="720" r="71.04"/>
    <circle cx="430" cy="730" r="73.96"/>
    <circle cx="440" cy="740" r="76.33"/>
    <circle cx="400" cy="300" r="5.0"/>
    <circle cx="410" cy="310" r="8.59"/>
    <circle cx="420" cy="320" r="12.14"/>
    <circle cx="430" cy="330" r="15.64"/>
    <circle cx="440" cy="340" r="19.05"/>
    <circle cx="450" cy="350" r="22.36"/>
    <circle cx="460" cy="360" r="25.52"/>
    <circle cx="470" cy="370" r="28.51"/>
    <circle cx="480" cy="380" r="31.32"/>
    <circle cx="490" cy="390" r="33.91"/>
    <circle cx="500" cy="400" r="36.27"/>
    <circle cx="510" cy="410" r="38.38"/>
    <circle cx="520" cy="420" r="40.22"/>
    <circle cx="530" cy="430" r="41.78"/>
    <circle cx="540" cy="440" r="43.04"/>
    <circle cx="550" cy="450" r="44.0"/>
    <circle cx="560" cy="460" r="44.64"/>
    <circle cx="570" cy="470" r="44.96"/>
    <circle cx="580" cy="480" r="44.96"/>
    <circle cx="590" cy="490" r="44.64"/>
    <circle cx="600" cy="500" r="44.0"/>
    <circle cx="610" cy="510" r="43.04"/>
    <circle cx="620" cy="520" r="41.78"/>
    <circle cx="630" cy="530" r="40.22"/>
    <circle cx="640" cy="540" r="38.38"/>
    <circle cx="650" cy="550" r="36.27"/>
    <circle cx="660" cy="560" r="33.91"/>
    <circle cx="670" cy="570" r="31.32"/>
    <circle cx="680" cy="580" r="28.51"/>
    <circle cx="690" cy="590" r="25.52"/>
    <circle cx="700" cy="600" r="22.36"/>
    <circle cx="710" cy="610" r="19.05"/>
    <circle cx="720" cy="620" r="15.64"/>
    <circle cx="730" cy="630" r="12.14"/>
    <circle cx="740" cy="640" r="8.59"/>
    <circle cx="750" cy="650" r="5.0"/>
    <circle cx="400" cy="450" r="5.0"/>
    <circle cx="410" cy="460" r="11.14"/>
    <circle cx="420" cy="470" r="17.23"/>
    <circle cx="430" cy="480" r="23.22"/>
    <circle cx="440" cy="490" r="29.07"/>
    <circle cx="450" cy="500" r="34.72"/>
    <circle cx="460" cy="510" r="40.13"/>
    <circle cx="470" cy="520" r="45.26"/>
    <circle cx="480" cy="530" r="50.07"/>
    <circle cx="490" cy="540" r="54.51"/>
    <circle cx="500" cy="550" r="58.56"/>
    <circle cx="510" cy="560" r="62.17"/>
    <circle cx="520" cy="570" r="65.32"/>
    <circle cx="530" cy="580" r="67.99"/>
    <circle cx="540" cy="590" r="70.15"/>
    <circle cx="550" cy="600" r="71.78"/>
    <circle cx="560" cy="610" r="72.88"/>
    <circle cx="570" cy="620" r="73.43"/>
    <circle cx="580" cy="630" r="73.43"/>
    <circle cx="590" cy="640" r="72.88"/>
    <circle cx="600" cy="650" r="71.78"/>
    <circle cx="610" cy="660" r="70.15"/>
    <circle cx="620" cy="670" r="67.99"/>
    <circle cx="630" cy="680" r="65.32"/>
    <circle cx="640" cy="690" r="62.17"/>
    <circle cx="650" cy="700" r="58.56"/>
    <circle cx="660" cy="710" r="54.51"/>
    <circle cx="670" cy="720" r="50.07"/>
    <circle cx="680" cy="730" r="45.26"/>
    <circle cx="690" cy="740" r="40.13"/>
    <circle cx="700" cy="750" r="34.72"/>
    <circle cx="710" cy="760" r="29.07"/>
    <circle cx="720" cy="770" r="23.22"/>
    <circle cx="730" cy="780" r="17.23"/>
    <circle cx="740" cy="790" r="11.14"/>
    <circle cx="750" cy="800" r="5.0"/>
    <circle cx="450" cy="300" r="5.0"/>
    <circle cx="460" cy="310" r="8.99"/>
    <circle cx="470" cy="320" r="12.95"/>
    <circle cx="480" cy="330" r="16.84"/>
    <circle cx="490" cy="340" r="20.64"/>
    <circle cx="500" cy="350" r="24.31"/>
    <circle cx="510" cy="360" r="27.82"/>
    <circle cx="520" cy="370" r="31.16"/>
    <circle cx="530" cy="380" r="34.28"/>
    <circle cx="540" cy="390" r="37.16"/>
    <circle cx="550" cy="400" r="39.79"/>
    <circle cx="560" cy="410" r="42.14"/>
    <circle cx="570" cy="420" r="44.19"/>
    <circle cx="580" cy="430" r="45.92"/>
    <circle cx="590" cy="440" r="47.32"/>
    <circle cx="600" cy="450" r="48.38"/>
    <circle cx="610" cy="460" r="49.1"/>
    <circle cx="620" cy="470" r="49.46"/>
    <circle cx="630" cy="480" r="49.46"/>
    <circle cx="640" cy="490" r="49.1"/>
    <circle cx="650" cy="500" r="48.38"/>
    <circle cx="660" cy="510" r="47.32"/>
    <circle cx="670" cy="520" r="45.92"/>
    <circle cx="680" cy="530" r="44.19"/>
    <circle cx="690" cy="540" r="42.14"/>
    <circle cx="700" cy="550" r="39.79"/>
    <circle cx="710" cy="560" r="37.16"/>
    <circle cx="720" cy="570" r="34.28"/>
    <circle cx="730" cy="580" r="31.16"/>
    <circle cx="740" cy="590" r="27.82"/>
    <circle cx="750" cy="600" r="24.31"/>
    <circle cx="760" cy="610" r="20.64"/>
    <circle cx="770" cy="620" r="16.84"/>
    <circle cx="780" cy="630" r="12.95"/>
    <circle cx="790" cy="640" r="8.99"/>
    <circle cx="800" cy="650" r="5.0"/>
    <circle cx="450" cy="350" r="5.0"/>
    <circle cx="460" cy="360" r="8.81"/>
    <circle cx="470" cy="370" r="12.59"/>
    <circle cx="480" cy="380" r="16.31"/>
    <circle cx="490" cy="390" r="19.93"/>
    <circle cx="500" cy="400" r="23.44"/>
    <circle cx="510" cy="410" r="26.8"/>
    <circle cx="520" cy="420" r="29.98"/>
    <circle cx="530" cy="430" r="32.96"/>
    <circle cx="540" cy="440" r="35.72"/>
    <circle cx="550" cy="450" r="38.23"/>
    <circle cx="560" cy="460" r="40.47"/>
    <circle cx="570" cy="470" r="42.43"/>
    <circle cx="580" cy="480" r="44.08"/>
    <circle cx="590" cy="490" r="45.42"/>
    <circle cx="600" cy="500" r="46.43"/>
    <circle cx="610" cy="510" r="47.12"/>
    <circle cx="620" cy="520" r="47.46"/>
    <circle cx="630" cy="530" r="47.46"/>
    <circle cx="640" cy="540" r="47.12"/>
    <circle cx="650" cy="550" r="46.43"/>
    <circle cx="660" cy="560" r="45.42"/>
    <circle cx="670" cy="570" r="44.08"/>
    <circle cx="680" cy="580" r="42.43"/>
    <circle cx="690" cy="590" r="40.47"/>
    <circle cx="700" cy="600" r="38.23"/>
    <circle cx="710" cy="610" r="35.72"/>
    <circle cx="720" cy="620" r="32.96"/>
    <circle cx="730" cy="630" r="29.98"/>
    <circle cx="740" cy="640" r="26.8"/>
    <circle cx="750" cy="650" r="23.44"/>
    <circle cx="760" cy="660" r="19.93"/>
    <circle cx="770" cy="670" r="16.31"/>
    <circle cx="780" cy="680" r="12.59"/>
    <circle cx="790" cy="690" r="8.81"/>
    <circle cx="800" cy="700" r="5.0"/>
    <circle cx="450" cy="400" r="5.0"/>
    <circle cx="460" cy="410" r="8.85"/>
    <circle cx="470" cy="420" r="12.68"/>
    <circle cx="480" cy="430" r="16.44"/>
    <circle cx="490" cy="440" r="20.11"/>
    <circle cx="500" cy="450" r="23.66"/>
    <circle cx="510" cy="460" r="27.05"/>
    <circle cx="520" cy="470" r="30.27"/>
    <circle cx="530" cy="480" r="33.29"/>
    <circle cx="540" cy="490" r="36.08"/>
    <circle cx="550" cy="500" r="38.62"/>
    <circle cx="560" cy="510" r="40.89"/>
    <circle cx="570" cy="520" r="42.87"/>
    <circle cx="580" cy="530" r="44.54"/>
    <circle cx="590" cy="540" r="45.9"/>
    <circle cx="600" cy="550" r="46.92"/>
    <circle cx="610" cy="560" r="47.61"/>
    <circle cx="620" cy="570" r="47.96"/>
    <circle cx="630" cy="580" r="47.96"/>
    <circle cx="640" cy="590" r="47.61"/>
    <circle cx="650" cy="600" r="46.92"/>
    <circle cx="660" cy="610" r="45.9"/>
    <circle cx="670" cy="620" r="44.54"/>
    <circle cx="680" cy="630" r="42.87"/>
    <circle cx="690" cy="640" r="40.89"/>
    <circle cx="700" cy="650" r="38.62"/>
    <circle cx="710" cy="660" r="36.08"/>
    <circle cx="720" cy="670" r="33.29"/>
    <circle cx="730" cy="680" r="30.27"/>
    <circle cx="740" cy="690" r="27.05"/>
    <circle cx="750" cy="700" r="23.66"/>
    <circle cx="760" cy="710" r="20.11"/>
    <circle cx="770" cy="720" r="16.44"/>
    <circle cx="780" cy="730" r="12.68"/>
    <circle cx="790" cy="740" r="8.85"/>
    <circle cx="800" cy="750" r="5.0"/>
    <circle cx="500" cy="150" r="5.0"/>
    <circle cx="510" cy="160" r="9.26"/>
    <circle cx="520" cy="170" r="13.48"/>
    <circle cx="530" cy="180" r="17.64"/>
    <circle cx="540" cy="190" r="21.69"/>
    <circle cx="550" cy="200" r="25.61"/>
    <circle cx="560" cy="210" r="29.36"/>
    <circle cx="570" cy="220" r="32.92"/>
    <circle cx="580" cy="230" r="36.25"/>
    <circle cx="590" cy="240" r="39.33"/>
    <circle cx="600" cy="250" r="42.14"/>
    <circle cx="610" cy="260" r="44.64"/>
    <circle cx="620" cy="270" r="46.83"/>
    <circle cx="630" cy="280" r="48.68"/>
    <circle cx="640" cy="290" r="50.18"/>
    <circle cx="650" cy="300" r="51.31"/>
    <circle cx="660" cy="310" r="52.07"/>
    <circle cx="670" cy="320" r="52.45"/>
    <circle cx="680" cy="330" r="52.45"/>
    <circle cx="690" cy="340" r="52.07"/>
    <circle cx="700" cy="350" r="51.31"/>
    <circle cx="710" cy="360" r="50.18"/>
    <circle cx="720" cy="370" r="48.68"/>
    <circle cx="730" cy="380" r="46.83"/>
    <circle cx="740" cy="390" r="44.64"/>
    <circle cx="750" cy="400" r="42.14"/>
    <circle cx="760" cy="410" r="39.33"/>
    <circle cx="770" cy="420" r="36.25"/>
    <circle cx="780" cy="430" r="32.92"/>
    <circle cx="790" cy="440" r="29.36"/>
    <circle cx="800" cy="450" r="25.61"/>
    <circle cx="810" cy="460" r="21.69"/>
    <circle cx="820" cy="470" r="17.64"/>
    <circle cx="830" cy="480" r="13.48"/>
    <circle cx="840" cy="490" r="9.26"/>
    <circle cx="850" cy="500" r="5.0"/>
    <circle cx="500" cy="750" r="5.0"/>
    <circle cx="510" cy="760" r="7.73"/>
    <circle cx="520" cy="770" r="10.45"/>
    <circle cx="530" cy="780" r="13.11"/>
    <circle cx="540" cy="790" r="15.72"/>
    <circle cx="550" cy="800" r="18.23"/>
    <circle cx="550" cy="100" r="5.0"/>
    <circle cx="560" cy="110" r="10.83"/>
    <circle cx="570" cy="120" r="16.61"/>
    <circle cx="580" cy="130" r="22.29"/>
    <circle cx="590" cy="140" r="27.84"/>
    <circle cx="600" cy="150" r="33.2"/>
    <circle cx="610" cy="160" r="38.34"/>
    <circle cx="620" cy="170" r="43.21"/>
    <circle cx="630" cy="180" r="47.77"/>
    <circle cx="640" cy="190" r="51.98"/>
    <circle cx="650" cy="200" r="55.82"/>
    <circle cx="660" cy="210" r="59.25"/>
    <circle cx="670" cy="220" r="62.24"/>
    <circle cx="680" cy="230" r="64.77"/>
    <circle cx="690" cy="240" r="66.82"/>
    <circle cx="700" cy="250" r="68.37"/>
    <circle cx="710" cy="260" r="69.41"/>
    <circle cx="720" cy="270" r="69.93"/>
    <circle cx="730" cy="280" r="69.93"/>
    <circle cx="740" cy="290" r="69.41"/>
    <circle cx="750" cy="300" r="68.37"/>
    <circle cx="760" cy="310" r="66.82"/>
    <circle cx="770" cy="320" r="64.77"/>
    <circle cx="780" cy="330" r="62.24"/>
    <circle cx="790" cy="340" r="59.25"/>
    <circle cx="800" cy="350" r="55.82"/>
    <circle cx="810" cy="360" r="51.98"/>
    <circle cx="820" cy="370" r="47.77"/>
    <circle cx="830" cy="380" r="43.21"/>
    <circle cx="840" cy="390" r="38.34"/>
    <circle cx="850" cy="400" r="33.2"/>
    <circle cx="860" cy="410" r="27.84"/>
    <circle cx="870" cy="420" r="22.29"/>
    <circle cx="880" cy="430" r="16.61"/>
    <circle cx="890" cy="440" r="10.83"/>
    <circle cx="900" cy="450" r="5.0"/>
    <circle cx="600" cy="350" r="5.0"/>
    <circle cx="610" cy="360" r="11.19"/>
    <circle cx="620" cy="370" r="17.32"/>
    <circle cx="630" cy="380" r="23.36"/>
    <circle cx="640" cy="390" r="29.24"/>
    <circle cx="650" cy="400" r="34.94"/>
    <circle cx="660" cy="410" r="40.39"/>
    <circle cx="670" cy="420" r="45.56"/>
    <circle cx="680" cy="430" r="50.4"/>
    <circle cx="690" cy="440" r="54.87"/>
    <circle cx="700" cy="450" r="58.95"/>
    <circle cx="710" cy="460" r="62.59"/>
    <circle cx="720" cy="470" r="65.76"/>
    <circle cx="730" cy="480" r="68.45"/>
    <circle cx="740" cy="490" r="70.62"/>
    <circle cx="750" cy="500" r="72.27"/>
    <circle cx="760" cy="510" r="73.38"/>
    <circle cx="770" cy="520" r="73.93"/>
    <circle cx="780" cy="530" r="73.93"/>
    <circle cx="790" cy="540" r="73.38"/>
    <circle cx="800" cy="550" r="72.27"/>
    <circle cx="810" cy="560" r="70.62"/>
    <circle cx="820" cy="570" r="68.45"/>
    <circle cx="830" cy="580" r="65.76"/>
    <circle cx="840" cy="590" r="62.59"/>
    <circle cx="850" cy="600" r="58.95"/>
    <circle cx="860" cy="610" r="54.87"/>
    <circle cx="870" cy="620" r="50.4"/>
    <circle cx="880" cy="630" r="45.56"/>
    <circle cx="890" cy="640" r="40.39"/>
    <circle cx="900" cy="650" r="34.94"/>
    <circle cx="910" cy="660" r="29.24"/>
    <circle cx="920" cy="670" r="23.36"/>
    <circle cx="930" cy="680" r="17.32"/>
    <circle cx="940" cy="690" r="11.19"/>
    <circle cx="950" cy="700" r="5.0"/>
    <circle cx="600" cy="700" r="5.0"/>
    <circle cx="610" cy="710" r="8.45"/>
    <circle cx="620" cy="720" r="11.87"/>
    <circle cx="630" cy="730" r="15.24"/>
    <circle cx="640" cy="740" r="18.53"/>
    <circle cx="650" cy="750" r="21.7"/>
    <circle cx="660" cy="760" r="24.75"/>
    <circle cx="670" cy="770" r="27.63"/>
    <circle cx="680" cy="780" r="30.33"/>
    <circle cx="850" cy="150" r="5.0"/>
    <circle cx="860" cy="160" r="7.91"/>
    <circle cx="870" cy="170" r="10.8"/>
    <circle cx="880" cy="180" r="13.65"/>
    <circle cx="890" cy="190" r="16.42"/>
    <circle cx="900" cy="200" r="19.1"/>
    <circle cx="910" cy="210" r="21.67"/>
    <circle cx="920" cy="220" r="24.1"/>
    <circle cx="930" cy="230" r="26.38"/>
    <circle cx="940" cy="240" r="28.49"/>
    <circle cx="950" cy="250" r="30.41"/>
    <circle cx="960" cy="260" r="32.12"/>
    <circle cx="970" cy="270" r="33.62"/>
    <circle cx="980" cy="280" r="34.88"/>
    <circle cx="990" cy="290" r="35.91"/>
    <circle cx="1000" cy="300" r="36.69"/>
    <circle cx="1010" cy="310" r="37.21"/>
    <circle cx="1020" cy="320" r="37.47"/>
    <circle cx="1030" cy="330" r="37.47"/>
    <circle cx="1040" cy="340" r="37.21"/>
    <circle cx="1050" cy="350" r="36.69"/>
    <circle cx="1060" cy="360" r="35.91"/>
    <circle cx="850" cy="200" r="5.0"/>
    <circle cx="860" cy="210" r="7.82"/>
    <circle cx="870" cy="220" r="10.62"/>
    <circle cx="880" cy="230" r="13.38"/>
    <circle cx="890" cy="240" r="16.07"/>
    <circle cx="900" cy="250" r="18.67"/>
    <circle cx="910" cy="260" r="21.16"/>
    <circle cx="920" cy="270" r="23.52"/>
    <circle cx="930" cy="280" r="25.73"/>
    <circle cx="940" cy="290" r="27.77"/>
    <circle cx="950" cy="300" r="29.63"/>
    <circle cx="960" cy="310" r="31.29"/>
    <circle cx="970" cy="320" r="32.74"/>
    <circle cx="980" cy="330" r="33.97"/>
    <circle cx="990" cy="340" r="34.96"/>
    <circle cx="1000" cy="350" r="35.71"/>
    <circle cx="1010" cy="360" r="36.21"/>
    <circle cx="1020" cy="370" r="36.47"/>
    <circle cx="1030" cy="380" r="36.47"/>
    <circle cx="1040" cy="390" r="36.21"/>
    <circle cx="1050" cy="400" r="35.71"/>
    <circle cx="1060" cy="410" r="34.96"/>
    <circle cx="910" cy="60" r="7.29"/>
    <circle cx="920" cy="70" r="9.55"/>
    <circle cx="930" cy="80" r="11.78"/>
    <circle cx="940" cy="90" r="13.96"/>
    <circle cx="950" cy="100" r="16.06"/>
    <circle cx="960" cy="110" r="18.08"/>
    <circle cx="970" cy="120" r="19.99"/>
    <circle cx="980" cy="130" r="21.78"/>
    <circle cx="990" cy="140" r="23.43"/>
    <circle cx="1000" cy="150" r="24.94"/>
    <circle cx="1010" cy="160" r="26.28"/>
    <circle cx="1020" cy="170" r="27.46"/>
    <circle cx="1030" cy="180" r="28.45"/>
    <circle cx="1040" cy="190" r="29.25"/>
    <circle cx="1050" cy="200" r="29.86"/>
    <circle cx="1060" cy="210" r="30.27"/>
    <circle cx="900" cy="150" r="5.0"/>
    <circle cx="910" cy="160" r="8.5"/>
    <circle cx="920" cy="170" r="11.96"/>
    <circle cx="930" cy="180" r="15.38"/>
    <circle cx="940" cy="190" r="18.7"/>
    <circle cx="950" cy="200" r="21.92"/>
    <circle cx="960" cy="210" r="25.0"/>
    <circle cx="970" cy="220" r="27.92"/>
    <circle cx="980" cy="230" r="30.66"/>
    <circle cx="990" cy="240" r="33.19"/>
    <circle cx="1000" cy="250" r="35.49"/>
    <circle cx="1010" cy="260" r="37.55"/>
    <circle cx="1020" cy="270" r="39.34"/>
    <circle cx="1030" cy="280" r="40.86"/>
    <circle cx="1040" cy="290" r="42.09"/>
    <circle cx="1050" cy="300" r="43.02"/>
    <circle cx="950" cy="350" r="5.0"/>
    <circle cx="960" cy="360" r="8.59"/>
    <circle cx="970" cy="370" r="12.14"/>
    <circle cx="980" cy="380" r="15.64"/>
    <circle cx="990" cy="390" r="19.05"/>
    <circle cx="1000" cy="400" r="22.36"/>
    <circle cx="1010" cy="410" r="25.52"/>
    <circle cx="1020" cy="420" r="28.51"/>
    <circle cx="1030" cy="430" r="31.32"/>
    <circle cx="1040" cy="440" r="33.91"/>
    <circle cx="1050" cy="450" r="36.27"/>
    <circle cx="1060" cy="460" r="38.38"/>
    <circle cx="1000" cy="250" r="5.0"/>
    <circle cx="1010" cy="260" r="9.84"/>
    <circle cx="1020" cy="270" r="14.64"/>
    <circle cx="1030" cy="280" r="19.37"/>
    <circle cx="1040" cy="290" r="23.97"/>
    <circle cx="1050" cy="300" r="28.43"/>
    <circle cx="1060" cy="310" r="32.7"/>
  </g>
</svg>
