<svg version="1.1" width="1150" height="870" xmlns="http://www.w3.org/2000/svg">
  <!-- Seed: 5714263140079069681 -->
  <g stroke="black" fill="none">
    <circle cx="60.0" cy="310.0" r="7.644359612651288"/>
    <circle cx="70.0" cy="320.0" r="10.267428396559781"/>
    <circle cx="80.0" cy="330.0" r="12.848086944216917"/>
    <circle cx="90.0" cy="340.0" r="15.365557310399609"/>
    <circle cx="100.0" cy="350.0" r="17.799570303967965"/>
    <circle cx="110.0" cy="360.0" r="20.130528683474232"/>
    <circle cx="120.0" cy="370.0" r="22.33966494262796"/>
    <circle cx="130.0" cy="380.0" r="24.409192415221522"/>
    <circle cx="140.0" cy="390.0" r="26.322448482908047"/>
    <circle cx="150.0" cy="400.0" r="28.06402873280688"/>
    <circle cx="160.0" cy="410.0" r="29.61991098477843"/>
    <circle cx="170.0" cy="420.0" r="30.97756818977377"/>
    <circle cx="180.0" cy="430.0" r="32.12606929026779"/>
    <circle cx="190.0" cy="440.0" r="33.05616723070703"/>
    <circle cx="200.0" cy="450.0" r="33.760373409363794"/>
    <circle cx="210.0" cy="460.0" r="34.23301797215407"/>
    <circle cx="220.0" cy="470.0" r="34.47029546296878"/>
    <circle cx="230.0" cy="480.0" r="34.470295462968785"/>
    <circle cx="240.0" cy="490.0" r="34.23301797215407"/>
    <circle cx="250.0" cy="500.0" r="33.760373409363794"/>
    <circle cx="260.0" cy="510.0" r="33.05616723070703"/>
    <circle cx="270.0" cy="520.0" r="32.12606929026779"/>
    <circle cx="280.0" cy="530.0" r="30.97756818977377"/>
    <circle cx="290.0" cy="540.0" r="29.619910984778432"/>
    <circle cx="300.0" cy="550.0" r="28.064028732806882"/>
    <circle cx="310.0" cy="560.0" r="26.32244848290805"/>
    <circle cx="320.0" cy="570.0" r="24.409192415221526"/>
    <circle cx="330.0" cy="580.0" r="22.339664942627962"/>
    <circle cx="340.0" cy="590.0" r="20.130528683474232"/>
    <circle cx="350.0" cy="600.0" r="17.79957030396797"/>
    <circle cx="360.0" cy="610.0" r="15.365557310399613"/>
    <circle cx="370.0" cy="620.0" r="12.84808694421692"/>
    <circle cx="380.0" cy="630.0" r="10.267428396559785"/>
    <circle cx="390.0" cy="640.0" r="7.644359612651291"/>
    <circle cx="400.0" cy="650.0" r="5.0000000000000036"/>
    <circle cx="150.0" cy="200.0" r="5.0"/>
    <circle cx="160.0" cy="210.0" r="11.454030241047212"/>
    <circle cx="170.0" cy="220.0" r="17.85609642550184"/>
    <circle cx="180.0" cy="230.0" r="24.154652880800608"/>
    <circle cx="190.0" cy="240.0" r="30.298987333856672"/>
    <circle cx="200.0" cy="250.0" r="36.23962921646418"/>
    <circle cx="210.0" cy="260.0" r="41.92874797322524"/>
    <circle cx="220.0" cy="270.0" r="47.32053816505807"/>
    <circle cx="230.0" cy="280.0" r="52.371588267659305"/>
    <circle cx="240.0" cy="290.0" r="57.04123019557218"/>
    <circle cx="250.0" cy="300.0" r="61.29186673769814"/>
    <circle cx="260.0" cy="310.0" r="65.08927426793379"/>
    <circle cx="270.0" cy="320.0" r="68.40287829368513"/>
    <circle cx="280.0" cy="330.0" r="71.20599962370444"/>
    <circle cx="290.0" cy="340.0" r="73.47606917325105"/>
    <circle cx="300.0" cy="350.0" r="75.1948096770913"/>
    <circle cx="310.0" cy="360.0" r="76.3483828472913"/>
    <circle cx="320.0" cy="370.0" r="76.92750079097465"/>
    <circle cx="330.0" cy="380.0" r="76.92750079097466"/>
    <circle cx="340.0" cy="390.0" r="76.3483828472913"/>
    <circle cx="350.0" cy="400.0" r="75.1948096770913"/>
    <circle cx="360.0" cy="410.0" r="73.47606917325106"/>
    <circle cx="370.0" cy="420.0" r="71.20599962370444"/>
    <circle cx="380.0" cy="430.0" r="68.40287829368513"/>
    <circle cx="390.0" cy="440.0" r="65.0892742679338"/>
    <circle cx="400.0" cy="450.0" r="61.29186673769816"/>
    <circle cx="410.0" cy="460.0" r="57.04123019557219"/>
    <circle cx="420.0" cy="470.0" r="52.37158826765931"/>
    <circle cx="430.0" cy="480.0" r="47.320538165058075"/>
    <circle cx="440.0" cy="490.0" r="41.92874797322525"/>
    <circle cx="450.0" cy="500.0" r="36.239629216464195"/>
    <circle cx="460.0" cy="510.0" r="30.29898733385668"/>
    <circle cx="470.0" cy="520.0" r="24.154652880800615"/>
    <circle cx="480.0" cy="530.0" r="17.856096425501846"/>
    <circle cx="490.0" cy="540.0" r="11.45403024104722"/>
    <circle cx="500.0" cy="550.0" r="5.000000000000009"/>
    <circle cx="150.0" cy="250.0" r="5.0"/>
    <circle cx="160.0" cy="260.0" r="8.182195466071889"/>
    <circle cx="170.0" cy="270.0" r="11.3387697653516"/>
    <circle cx="180.0" cy="280.0" r="14.444308017616967"/>
    <circle cx="190.0" cy="290.0" r="17.473806254887663"/>
    <circle cx="200.0" cy="300.0" r="20.402872738673313"/>
    <circle cx="210.0" cy="310.0" r="23.207924347909668"/>
    <circle cx="220.0" cy="320.0" r="25.866376456382795"/>
    <circle cx="230.0" cy="330.0" r="28.356824770859795"/>
    <circle cx="240.0" cy="340.0" r="30.659217665872397"/>
    <circle cx="250.0" cy="350.0" r="32.75501762761506"/>
    <circle cx="260.0" cy="360.0" r="34.62735050710624"/>
    <circle cx="270.0" cy="370.0" r="36.2611413809142"/>
    <circle cx="280.0" cy="380.0" r="37.6432359255765"/>
    <circle cx="290.0" cy="390.0" r="38.76250632847795"/>
    <circle cx="300.0" cy="400.0" r="39.60994088245474"/>
    <circle cx="310.0" cy="410.0" r="40.178716542761684"/>
    <circle cx="320.0" cy="420.0" r="40.464253862216665"/>
    <circle cx="330.0" cy="430.0" r="40.46425386221667"/>
    <circle cx="340.0" cy="440.0" r="40.178716542761684"/>
    <circle cx="350.0" cy="450.0" r="39.60994088245474"/>
    <circle cx="360.0" cy="460.0" r="38.762506328477954"/>
    <circle cx="370.0" cy="470.0" r="37.6432359255765"/>
    <circle cx="380.0" cy="480.0" r="36.2611413809142"/>
    <circle cx="390.0" cy="490.0" r="34.62735050710624"/>
    <circle cx="400.0" cy="500.0" r="32.75501762761506"/>
    <circle cx="410.0" cy="510.0" r="30.6592176658724"/>
    <circle cx="420.0" cy="520.0" r="28.356824770859802"/>
    <circle cx="430.0" cy="530.0" r="25.8663764563828"/>
    <circle cx="440.0" cy="540.0" r="23.20792434790967"/>
    <circle cx="450.0" cy="550.0" r="20.402872738673317"/>
    <circle cx="460.0" cy="560.0" r="17.47380625488767"/>
    <circle cx="470.0" cy="570.0" r="14.44430801761697"/>
    <circle cx="480.0" cy="580.0" r="11.338769765351605"/>
    <circle cx="490.0" cy="590.0" r="8.182195466071894"/>
    <circle cx="500.0" cy="600.0" r="5.000000000000004"/>
    <circle cx="200.0" cy="300.0" r="5.0"/>
    <circle cx="210.0" cy="310.0" r="10.91619438762661"/>
    <circle cx="220.0" cy="320.0" r="16.78475505671002"/>
    <circle cx="230.0" cy="330.0" r="22.55843180740056"/>
    <circle cx="240.0" cy="340.0" r="28.19073838936862"/>
    <circle cx="250.0" cy="350.0" r="33.63632678175884"/>
    <circle cx="260.0" cy="360.0" r="38.85135230878981"/>
    <circle cx="270.0" cy="370.0" r="43.79382665130323"/>
    <circle cx="280.0" cy="380.0" r="48.42395591202103"/>
    <circle cx="290.0" cy="390.0" r="52.70446101260784"/>
    <circle cx="300.0" cy="400.0" r="56.600877842889965"/>
    <circle cx="310.0" cy="410.0" r="60.081834745605974"/>
    <circle cx="320.0" cy="420.0" r="63.11930510254471"/>
    <circle cx="330.0" cy="430.0" r="65.68883298839575"/>
    <circle cx="340.0" cy="440.0" r="67.76973007548014"/>
    <circle cx="350.0" cy="450.0" r="69.34524220400036"/>
    <circle cx="360.0" cy="460.0" r="70.40268427668369"/>
    <circle cx="370.0" cy="470.0" r="70.93354239172676"/>
    <circle cx="380.0" cy="480.0" r="70.93354239172677"/>
    <circle cx="390.0" cy="490.0" r="70.4026842766837"/>
    <circle cx="400.0" cy="500.0" r="69.34524220400036"/>
    <circle cx="410.0" cy="510.0" r="67.76973007548014"/>
    <circle cx="420.0" cy="520.0" r="65.68883298839575"/>
    <circle cx="430.0" cy="530.0" r="63.11930510254471"/>
    <circle cx="440.0" cy="540.0" r="60.08183474560598"/>
    <circle cx="450.0" cy="550.0" r="56.60087784288997"/>
    <circle cx="460.0" cy="560.0" r="52.704461012607844"/>
    <circle cx="470.0" cy="570.0" r="48.423955912021036"/>
    <circle cx="480.0" cy="580.0" r="43.793826651303235"/>
    <circle cx="490.0" cy="590.0" r="38.851352308789814"/>
    <circle cx="500.0" cy="600.0" r="33.63632678175884"/>
    <circle cx="510.0" cy="610.0" r="28.190738389368626"/>
    <circle cx="520.0" cy="620.0" r="22.558431807400567"/>
    <circle cx="530.0" cy="630.0" r="16.784755056710026"/>
    <circle cx="540.0" cy="640.0" r="10.916194387626618"/>
    <circle cx="550.0" cy="650.0" r="5.000000000000008"/>
    <circle cx="200.0" cy="350.0" r="5.0"/>
    <circle cx="210.0" cy="360.0" r="9.616424408526825"/>
    <circle cx="220.0" cy="370.0" r="14.195680082129787"/>
    <circle cx="230.0" cy="380.0" r="18.70089754668377"/>
    <circle cx="240.0" cy="390.0" r="23.095803440189147"/>
    <circle cx="250.0" cy="400.0" r="27.345012564554242"/>
    <circle cx="260.0" cy="410.0" r="31.414312786404167"/>
    <circle cx="270.0" cy="420.0" r="35.27094049306237"/>
    <circle cx="280.0" cy="430.0" r="38.883844385895195"/>
    <circle cx="290.0" cy="440.0" r="42.22393548711066"/>
    <circle cx="300.0" cy="450.0" r="45.26432134710353"/>
    <circle cx="310.0" cy="460.0" r="47.98052256664709"/>
    <circle cx="320.0" cy="470.0" r="50.35066989062201"/>
    <circle cx="330.0" cy="480.0" r="52.3556802863997"/>
    <circle cx="340.0" cy="490.0" r="53.979410589200405"/>
    <circle cx="350.0" cy="500.0" r="55.20878747736391"/>
    <circle cx="360.0" cy="510.0" r="56.03391273104864"/>
    <circle cx="370.0" cy="520.0" r="56.4481429268777"/>
    <circle cx="380.0" cy="530.0" r="56.44814292687771"/>
    <circle cx="390.0" cy="540.0" r="56.033912731048645"/>
    <circle cx="400.0" cy="550.0" r="55.20878747736391"/>
    <circle cx="410.0" cy="560.0" r="53.97941058920041"/>
    <circle cx="420.0" cy="570.0" r="52.35568028639971"/>
    <circle cx="430.0" cy="580.0" r="50.35066989062201"/>
    <circle cx="440.0" cy="590.0" r="47.98052256664709"/>
    <circle cx="450.0" cy="600.0" r="45.26432134710354"/>
    <circle cx="460.0" cy="610.0" r="42.223935487110666"/>
    <circle cx="470.0" cy="620.0" r="38.8838443858952"/>
    <circle cx="480.0" cy="630.0" r="35.27094049306237"/>
    <circle cx="490.0" cy="640.0" r="31.41431278640417"/>
    <circle cx="500.0" cy="650.0" r="27.34501256455425"/>
    <circle cx="510.0" cy="660.0" r="23.095803440189155"/>
    <circle cx="520.0" cy="670.0" r="18.700897546683777"/>
    <circle cx="530.0" cy="680.0" r="14.195680082129794"/>
    <circle cx="540.0" cy="690.0" r="9.616424408526832"/>
    <circle cx="550.0" cy="700.0" r="5.000000000000006"/>
    <circle cx="300.0" cy="350.0" r="5.0"/>
    <circle cx="310.0" cy="360.0" r="11.58848920440236"/>
    <circle cx="320.0" cy="370.0" r="18.123931767699794"/>
    <circle cx="330.0" cy="380.0" r="24.553708149150623"/>
    <circle cx="340.0" cy="390.0" r="30.826049569978686"/>
    <circle cx="350.0" cy="400.0" r="36.89045482514052"/>
    <circle cx="360.0" cy="410.0" r="42.6980968893341"/>
    <circle cx="370.0" cy="420.0" r="48.202216043496776"/>
    <circle cx="380.0" cy="430.0" r="53.35849635656888"/>
    <circle cx="390.0" cy="440.0" r="58.12542249131327"/>
    <circle cx="400.0" cy="450.0" r="62.46461396140019"/>
    <circle cx="410.0" cy="460.0" r="66.34113414851575"/>
    <circle cx="420.0" cy="470.0" r="69.72377159147024"/>
    <circle cx="430.0" cy="480.0" r="72.58529128253161"/>
    <circle cx="440.0" cy="490.0" r="74.90265394769378"/>
    <circle cx="450.0" cy="500.0" r="76.65720154536403"/>
    <circle cx="460.0" cy="510.0" r="77.8348074899432"/>
    <circle cx="470.0" cy="520.0" r="78.42599039078662"/>
    <circle cx="480.0" cy="530.0" r="78.42599039078664"/>
    <circle cx="490.0" cy="540.0" r="77.8348074899432"/>
    <circle cx="500.0" cy="550.0" r="76.65720154536403"/>
    <circle cx="510.0" cy="560.0" r="74.90265394769379"/>
    <circle cx="520.0" cy="570.0" r="72.58529128253163"/>
    <circle cx="530.0" cy="580.0" r="69.72377159147024"/>
    <circle cx="540.0" cy="590.0" r="66.34113414851575"/>
    <circle cx="550.0" cy="600.0" r="62.4646139614002"/>
    <circle cx="560.0" cy="610.0" r="58.12542249131328"/>
    <circle cx="570.0" cy="620.0" r="53.358496356568885"/>
    <circle cx="580.0" cy="630.0" r="48.20221604349678"/>
    <circle cx="590.0" cy="640.0" r="42.69809688933411"/>
    <circle cx="600.0" cy="650.0" r="36.89045482514053"/>
    <circle cx="610.0" cy="660.0" r="30.826049569978696"/>
    <circle cx="620.0" cy="670.0" r="24.55370814915063"/>
    <circle cx="630.0" cy="680.0" r="18.1239317676998"/>
    <circle cx="640.0" cy="690.0" r="11.588489204402372"/>
    <circle cx="650.0" cy="700.0" r="5.000000000000009"/>
    <circle cx="350.0" cy="300.0" r="5.0"/>
    <circle cx="360.0" cy="310.0" r="8.495933047233907"/>
    <circle cx="370.0" cy="320.0" r="11.96371889714683"/>
    <circle cx="380.0" cy="330.0" r="15.37543697710033"/>
    <circle cx="390.0" cy="340.0" r="18.703618139172363"/>
    <circle cx="400.0" cy="350.0" r="21.921465825584768"/>
    <circle cx="410.0" cy="360.0" r="25.00307181883034"/>
    <circle cx="420.0" cy="370.0" r="27.923624839406454"/>
    <circle cx="430.0" cy="380.0" r="30.65961031164879"/>
    <circle cx="440.0" cy="390.0" r="33.188999689268265"/>
    <circle cx="450.0" cy="400.0" r="35.491427816253164"/>
    <circle cx="460.0" cy="410.0" r="37.5483568951308"/>
    <circle cx="470.0" cy="420.0" r="39.343225742412784"/>
    <circle cx="480.0" cy="430.0" r="40.86158312950657"/>
    <circle cx="490.0" cy="440.0" r="42.091204135510985"/>
    <circle cx="500.0" cy="450.0" r="43.02218857509112"/>
    <circle cx="510.0" cy="460.0" r="43.647040708949454"/>
    <circle cx="520.0" cy="470.0" r="43.96072959511127"/>
    <circle cx="530.0" cy="480.0" r="43.960729595111275"/>
    <circle cx="540.0" cy="490.0" r="43.647040708949454"/>
    <circle cx="550.0" cy="500.0" r="43.02218857509112"/>
    <circle cx="560.0" cy="510.0" r="42.09120413551099"/>
    <circle cx="570.0" cy="520.0" r="40.86158312950658"/>
    <circle cx="580.0" cy="530.0" r="39.343225742412784"/>
    <circle cx="590.0" cy="540.0" r="37.54835689513081"/>
    <circle cx="600.0" cy="550.0" r="35.491427816253164"/>
    <circle cx="610.0" cy="560.0" r="33.18899968926827"/>
    <circle cx="620.0" cy="570.0" r="30.659610311648795"/>
    <circle cx="630.0" cy="580.0" r="27.923624839406457"/>
    <circle cx="640.0" cy="590.0" r="25.003071818830342"/>
    <circle cx="650.0" cy="600.0" r="21.92146582558477"/>
    <circle cx="660.0" cy="610.0" r="18.70361813917237"/>
    <circle cx="670.0" cy="620.0" r="15.375436977100334"/>
    <circle cx="680.0" cy="630.0" r="11.963718897146833"/>
    <circle cx="690.0" cy="640.0" r="8.495933047233912"/>
    <circle cx="700.0" cy="650.0" r="5.000000000000004"/>
    <circle cx="450.0" cy="750.0" r="5.0"/>
    <circle cx="460.0" cy="760.0" r="10.78173542427146"/>
    <circle cx="470.0" cy="770.0" r="16.516919714512063"/>
    <circle cx="480.0" cy="780.0" r="22.159376539050545"/>
    <circle cx="490.0" cy="790.0" r="27.663676153246602"/>
    <circle cx="500.0" cy="450.0" r="5.0"/>
    <circle cx="510.0" cy="460.0" r="7.465080994844421"/>
    <circle cx="520.0" cy="470.0" r="9.910314606962508"/>
    <circle cx="530.0" cy="480.0" r="12.316013253083565"/>
    <circle cx="540.0" cy="490.0" r="14.662807662236924"/>
    <circle cx="550.0" cy="500.0" r="16.93180282573285"/>
    <circle cx="560.0" cy="510.0" r="19.104730128662418"/>
    <circle cx="570.0" cy="520.0" r="21.164094438043012"/>
    <circle cx="580.0" cy="530.0" r="23.093314963342095"/>
    <circle cx="590.0" cy="540.0" r="24.876858755253263"/>
    <circle cx="600.0" cy="550.0" r="26.500365767870818"/>
    <circle cx="610.0" cy="560.0" r="27.950764477335824"/>
    <circle cx="620.0" cy="570.0" r="29.216377126060294"/>
    <circle cx="630.0" cy="580.0" r="30.28701374516489"/>
    <circle cx="640.0" cy="590.0" r="31.15405419811672"/>
    <circle cx="650.0" cy="600.0" r="31.81051758500015"/>
    <circle cx="660.0" cy="610.0" r="32.2511184486182"/>
    <circle cx="670.0" cy="620.0" r="32.47230932988615"/>
    <circle cx="680.0" cy="630.0" r="32.47230932988616"/>
    <circle cx="690.0" cy="640.0" r="32.25111844861821"/>
    <circle cx="700.0" cy="650.0" r="31.81051758500015"/>
    <circle cx="710.0" cy="660.0" r="31.154054198116725"/>
    <circle cx="720.0" cy="670.0" r="30.287013745164895"/>
    <circle cx="730.0" cy="680.0" r="29.216377126060294"/>
    <circle cx="740.0" cy="690.0" r="27.950764477335827"/>
    <circle cx="750.0" cy="700.0" r="26.50036576787082"/>
    <circle cx="760.0" cy="710.0" r="24.876858755253267"/>
    <circle cx="770.0" cy="720.0" r="23.0933149633421"/>
    <circle cx="780.0" cy="730.0" r="21.164094438043016"/>
    <circle cx="790.0" cy="740.0" r="19.10473012866242"/>
    <circle cx="800.0" cy="750.0" r="16.931802825732852"/>
    <circle cx="810.0" cy="760.0" r="14.662807662236927"/>
    <circle cx="820.0" cy="770.0" r="12.316013253083568"/>
    <circle cx="830.0" cy="780.0" r="9.910314606962512"/>
    <circle cx="840.0" cy="790.0" r="7.465080994844424"/>
    <circle cx="850.0" cy="800.0" r="5.0000000000000036"/>
    <circle cx="500.0" cy="650.0" r="5.0"/>
    <circle cx="510.0" cy="660.0" r="8.809670628395924"/>
    <circle cx="520.0" cy="670.0" r="12.588668028942058"/>
    <circle cx="530.0" cy="680.0" r="16.306565936583695"/>
    <circle cx="540.0" cy="690.0" r="19.933430023457063"/>
    <circle cx="550.0" cy="700.0" r="23.44005891249622"/>
    <circle cx="560.0" cy="710.0" r="26.79821928975101"/>
    <circle cx="570.0" cy="720.0" r="29.98087322243011"/>
    <circle cx="580.0" cy="730.0" r="32.96239585243778"/>
    <circle cx="590.0" cy="740.0" r="35.71878171266414"/>
    <circle cx="600.0" cy="750.0" r="38.22783800489127"/>
    <circle cx="610.0" cy="760.0" r="40.46936328315536"/>
    <circle cx="620.0" cy="770.0" r="42.425310103911364"/>
    <circle cx="550.0" cy="100.0" r="5.0"/>
    <circle cx="560.0" cy="110.0" r="7.330622031489271"/>
    <circle cx="570.0" cy="120.0" r="9.642479264764553"/>
    <circle cx="580.0" cy="130.0" r="11.916957984733553"/>
    <circle cx="590.0" cy="140.0" r="14.13574542611491"/>
    <circle cx="600.0" cy="150.0" r="16.28097721705651"/>
    <circle cx="610.0" cy="160.0" r="18.335381212553557"/>
    <circle cx="620.0" cy="170.0" r="20.2824165596043"/>
    <circle cx="630.0" cy="180.0" r="22.106406874432526"/>
    <circle cx="640.0" cy="190.0" r="23.792666459512176"/>
    <circle cx="650.0" cy="200.0" r="25.327618544168775"/>
    <circle cx="660.0" cy="210.0" r="26.69890459675387"/>
    <circle cx="670.0" cy="220.0" r="27.89548382827519"/>
    <circle cx="680.0" cy="230.0" r="28.907722086337714"/>
    <circle cx="690.0" cy="240.0" r="29.72746942367399"/>
    <circle cx="700.0" cy="250.0" r="30.348125716727413"/>
    <circle cx="710.0" cy="260.0" r="30.764693805966303"/>
    <circle cx="720.0" cy="270.0" r="30.97381973007418"/>
    <circle cx="730.0" cy="280.0" r="30.973819730074183"/>
    <circle cx="740.0" cy="290.0" r="30.764693805966306"/>
    <circle cx="750.0" cy="300.0" r="30.348125716727413"/>
    <circle cx="760.0" cy="310.0" r="29.727469423673995"/>
    <circle cx="770.0" cy="320.0" r="28.907722086337717"/>
    <circle cx="780.0" cy="330.0" r="27.89548382827519"/>
    <circle cx="790.0" cy="340.0" r="26.69890459675387"/>
    <circle cx="800.0" cy="350.0" r="25.32761854416878"/>
    <circle cx="810.0" cy="360.0" r="23.79266645951218"/>
    <circle cx="820.0" cy="370.0" r="22.10640687443253"/>
    <circle cx="830.0" cy="380.0" r="20.282416559604304"/>
    <circle cx="840.0" cy="390.0" r="18.335381212553564"/>
    <circle cx="850.0" cy="400.0" r="16.280977217056513"/>
    <circle cx="860.0" cy="410.0" r="14.135745426114912"/>
    <circle cx="870.0" cy="420.0" r="11.916957984733557"/>
    <circle cx="880.0" cy="430.0" r="9.642479264764557"/>
    <circle cx="890.0" cy="440.0" r="7.330622031489274"/>
    <circle cx="900.0" cy="450.0" r="5.0000000000000036"/>
    <circle cx="600.0" cy="600.0" r="5.0"/>
    <circle cx="610.0" cy="610.0" r="7.689179267103005"/>
    <circle cx="620.0" cy="620.0" r="10.356706843959099"/>
    <circle cx="630.0" cy="630.0" r="12.981105367000254"/>
    <circle cx="640.0" cy="640.0" r="15.54124472244028"/>
    <circle cx="650.0" cy="650.0" r="18.016512173526742"/>
    <circle cx="660.0" cy="660.0" r="20.386978322177185"/>
    <circle cx="670.0" cy="670.0" r="22.633557568774194"/>
    <circle cx="680.0" cy="680.0" r="24.738161778191376"/>
    <circle cx="690.0" cy="690.0" r="26.68384591482174"/>
    <circle cx="700.0" cy="700.0" r="28.454944474040893"/>
    <circle cx="710.0" cy="710.0" r="30.03719761163908"/>
    <circle cx="720.0" cy="720.0" r="31.41786595570214"/>
    <circle cx="730.0" cy="730.0" r="32.58583317654352"/>
    <circle cx="740.0" cy="740.0" r="33.53169548885461"/>
    <circle cx="750.0" cy="750.0" r="34.24783736545471"/>
    <circle cx="760.0" cy="760.0" r="34.72849285303804"/>
    <circle cx="770.0" cy="770.0" r="34.96979199623944"/>
    <circle cx="780.0" cy="780.0" r="34.96979199623944"/>
    <circle cx="650.0" cy="550.0" r="5.0"/>
    <circle cx="660.0" cy="560.0" r="7.2858023770375535"/>
    <circle cx="670.0" cy="570.0" r="9.553200817365234"/>
    <circle cx="680.0" cy="580.0" r="11.783939561950216"/>
    <circle cx="690.0" cy="590.0" r="13.960058014074239"/>
    <circle cx="700.0" cy="600.0" r="16.064035347497732"/>
    <circle cx="710.0" cy="610.0" r="18.078931573850607"/>
    <circle cx="720.0" cy="620.0" r="19.988523933458065"/>
    <circle cx="730.0" cy="630.0" r="21.777437511462672"/>
    <circle cx="740.0" cy="640.0" r="23.431269027598482"/>
    <circle cx="750.0" cy="650.0" r="24.93670280293476"/>
    <circle cx="760.0" cy="660.0" r="26.28161796989322"/>
    <circle cx="770.0" cy="670.0" r="27.45518606234682"/>
    <circle cx="780.0" cy="680.0" r="28.44795820006199"/>
    <circle cx="790.0" cy="690.0" r="29.251941165526414"/>
    <circle cx="800.0" cy="700.0" r="29.860661760636503"/>
    <circle cx="810.0" cy="710.0" r="30.269218925082335"/>
    <circle cx="820.0" cy="720.0" r="30.47432319680352"/>
    <circle cx="830.0" cy="730.0" r="30.474323196803525"/>
    <circle cx="840.0" cy="740.0" r="30.26921892508234"/>
    <circle cx="850.0" cy="750.0" r="29.860661760636503"/>
    <circle cx="860.0" cy="760.0" r="29.251941165526418"/>
    <circle cx="870.0" cy="770.0" r="28.447958200061993"/>
    <circle cx="880.0" cy="780.0" r="27.45518606234682"/>
    <circle cx="890.0" cy="790.0" r="26.28161796989322"/>
    <circle cx="650.0" cy="700.0" r="5.0"/>
    <circle cx="660.0" cy="710.0" r="9.347506481816524"/>
    <circle cx="670.0" cy="720.0" r="13.660009397733878"/>
    <circle cx="680.0" cy="730.0" r="17.902787009983744"/>
    <circle cx="690.0" cy="740.0" r="22.04167896794512"/>
    <circle cx="700.0" cy="750.0" r="26.043361347201568"/>
    <circle cx="710.0" cy="760.0" r="29.875614954186446"/>
    <circle cx="720.0" cy="770.0" r="33.507584736184945"/>
    <circle cx="730.0" cy="780.0" r="36.910028208076056"/>
    <circle cx="700.0" cy="750.0" r="5.0"/>
    <circle cx="710.0" cy="760.0" r="9.437145790719958"/>
    <circle cx="720.0" cy="770.0" r="13.838566292532514"/>
    <circle cx="730.0" cy="780.0" r="18.168823855550418"/>
    <circle cx="740.0" cy="790.0" r="22.393053792026464"/>
    <circle cx="750.0" cy="500.0" r="5.0"/>
    <circle cx="760.0" cy="510.0" r="10.961014042078327"/>
    <circle cx="770.0" cy="520.0" r="16.874033504109338"/>
    <circle cx="780.0" cy="530.0" r="22.691450230183897"/>
    <circle cx="790.0" cy="540.0" r="28.36642580140929"/>
    <circle cx="800.0" cy="550.0" r="33.85326865131762"/>
    <circle cx="810.0" cy="560.0" r="39.10780194749276"/>
    <circle cx="820.0" cy="570.0" r="44.087719277449466"/>
    <circle cx="830.0" cy="580.0" r="48.752925274990886"/>
    <circle cx="840.0" cy="590.0" r="53.06585844452153"/>
    <circle cx="850.0" cy="600.0" r="56.99179358412398"/>
    <circle cx="860.0" cy="610.0" r="60.499121372466625"/>
    <circle cx="870.0" cy="620.0" r="63.55960286847308"/>
    <circle cx="880.0" cy="630.0" r="66.14859687467145"/>
    <circle cx="890.0" cy="640.0" r="68.2452583336277"/>
    <circle cx="900.0" cy="650.0" r="69.83270616009128"/>
    <circle cx="910.0" cy="660.0" r="70.89815915756766"/>
    <circle cx="920.0" cy="670.0" r="71.43303892499742"/>
    <circle cx="930.0" cy="680.0" r="71.43303892499743"/>
    <circle cx="940.0" cy="690.0" r="70.89815915756766"/>
    <circle cx="950.0" cy="700.0" r="69.83270616009128"/>
    <circle cx="960.0" cy="710.0" r="68.24525833362772"/>
    <circle cx="970.0" cy="720.0" r="66.14859687467147"/>
    <circle cx="980.0" cy="730.0" r="63.55960286847308"/>
    <circle cx="990.0" cy="740.0" r="60.49912137246663"/>
    <circle cx="1000.0" cy="750.0" r="56.99179358412399"/>
    <circle cx="1010.0" cy="760.0" r="53.06585844452154"/>
    <circle cx="1020.0" cy="770.0" r="48.75292527499089"/>
    <circle cx="900.0" cy="200.0" r="5.0"/>
    <circle cx="910.0" cy="210.0" r="8.406293738330472"/>
    <circle cx="920.0" cy="220.0" r="11.785162002348192"/>
    <circle cx="930.0" cy="230.0" r="15.109400131533654"/>
    <circle cx="940.0" cy="240.0" r="18.352243315091023"/>
    <circle cx="950.0" cy="250.0" r="21.48758208646721"/>
    <circle cx="960.0" cy="260.0" r="24.490172541424432"/>
    <circle cx="970.0" cy="270.0" r="27.33583958711398"/>
    <circle cx="980.0" cy="280.0" r="30.00167158570908"/>
    <circle cx="990.0" cy="290.0" r="32.466204825440876"/>
    <circle cx="1000.0" cy="300.0" r="34.70959633378513"/>
    <circle cx="1010.0" cy="310.0" r="36.7137836414095"/>
    <circle cx="1020.0" cy="320.0" r="38.46263021055604"/>
    <circle cx="1030.0" cy="330.0" r="39.94205535695512"/>
    <circle cx="1040.0" cy="340.0" r="41.14014761921583"/>
    <circle cx="1050.0" cy="350.0" r="42.047260662909295"/>
    <circle cx="900.0" cy="250.0" r="5.0"/>
    <circle cx="910.0" cy="260.0" r="11.005833696530043"/>
    <circle cx="920.0" cy="270.0" r="16.963311951508658"/>
    <circle cx="930.0" cy="280.0" r="22.824468652967234"/>
    <circle cx="940.0" cy="290.0" r="28.54211321344996"/>
    <circle cx="950.0" cy="300.0" r="34.070210520876394"/>
    <circle cx="960.0" cy="310.0" r="39.364251586195714"/>
    <circle cx="970.0" cy="320.0" r="44.3816119035957"/>
    <circle cx="980.0" cy="330.0" r="49.081894637960744"/>
    <circle cx="990.0" cy="340.0" r="53.427255876435225"/>
    <circle cx="1000.0" cy="350.0" r="57.382709325358"/>
    <circle cx="1010.0" cy="360.0" r="60.91640799932728"/>
    <circle cx="1020.0" cy="370.0" r="63.99990063440145"/>
    <circle cx="1030.0" cy="380.0" r="66.60836076094719"/>
    <circle cx="1000.0" cy="350.0" r="5.0"/>
    <circle cx="1010.0" cy="360.0" r="8.495933047233907"/>
    <circle cx="1020.0" cy="370.0" r="11.96371889714683"/>
    <circle cx="1030.0" cy="380.0" r="15.37543697710033"/>
    <circle cx="1040.0" cy="390.0" r="18.703618139172363"/>
    <circle cx="1050.0" cy="400.0" r="21.921465825584768"/>
    <circle cx="1060.0" cy="410.0" r="25.00307181883034"/>
    <circle cx="1070.0" cy="420.0" r="27.923624839406454"/>
  </g>
</svg>
