<svg version="1.1" width="1150" height="870" xmlns="http://www.w3.org/2000/svg">
  <!-- Seed: 8337707861333983427 -->
  <g stroke="black" fill="none">
    <circle cx="100.0" cy="200.0" r="5.0"/>
    <circle cx="110.0" cy="210.0" r="9.750883371881976"/>
    <circle cx="120.0" cy="220.0" r="14.463515424327742"/>
    <circle cx="130.0" cy="230.0" r="19.09995281503378"/>
    <circle cx="140.0" cy="240.0" r="23.62286567631116"/>
    <circle cx="150.0" cy="250.0" r="27.99583817323058"/>
    <circle cx="160.0" cy="260.0" r="32.18366170251302"/>
    <circle cx="170.0" cy="270.0" r="36.15261837150108"/>
    <circle cx="180.0" cy="280.0" r="39.87075247480477"/>
    <circle cx="190.0" cy="290.0" r="43.30812778285175"/>
    <circle cx="200.0" cy="300.0" r="46.43706857080558"/>
    <circle cx="210.0" cy="310.0" r="49.23238244722904"/>
    <circle cx="220.0" cy="320.0" r="51.67156318840711"/>
    <circle cx="230.0" cy="330.0" r="53.73497194522688"/>
    <circle cx="240.0" cy="340.0" r="55.405995363643136"/>
    <circle cx="250.0" cy="350.0" r="56.67117934563665"/>
    <circle cx="260.0" cy="360.0" r="57.52033737370054"/>
    <circle cx="270.0" cy="370.0" r="57.946632526689676"/>
    <circle cx="280.0" cy="380.0" r="57.946632526689676"/>
    <circle cx="290.0" cy="390.0" r="57.52033737370054"/>
    <circle cx="300.0" cy="400.0" r="56.67117934563665"/>
    <circle cx="310.0" cy="410.0" r="55.40599536364314"/>
    <circle cx="320.0" cy="420.0" r="53.73497194522689"/>
    <circle cx="330.0" cy="430.0" r="51.67156318840711"/>
    <circle cx="340.0" cy="440.0" r="49.23238244722904"/>
    <circle cx="350.0" cy="450.0" r="46.437068570805586"/>
    <circle cx="360.0" cy="460.0" r="43.308127782851756"/>
    <circle cx="370.0" cy="470.0" r="39.870752474804775"/>
    <circle cx="380.0" cy="480.0" r="36.15261837150108"/>
    <circle cx="390.0" cy="490.0" r="32.183661702513035"/>
    <circle cx="400.0" cy="500.0" r="27.995838173230585"/>
    <circle cx="410.0" cy="510.0" r="23.622865676311168"/>
    <circle cx="420.0" cy="520.0" r="19.099952815033788"/>
    <circle cx="430.0" cy="530.0" r="14.463515424327749"/>
    <circle cx="440.0" cy="540.0" r="9.750883371881983"/>
    <circle cx="450.0" cy="550.0" r="5.000000000000006"/>
    <circle cx="150.0" cy="200.0" r="5.0"/>
    <circle cx="160.0" cy="210.0" r="9.706063717430258"/>
    <circle cx="170.0" cy="220.0" r="14.374236976928424"/>
    <circle cx="180.0" cy="230.0" r="18.966934392250444"/>
    <circle cx="190.0" cy="240.0" r="23.44717826427049"/>
    <circle cx="200.0" cy="250.0" r="27.7788963036718"/>
    <circle cx="210.0" cy="260.0" r="31.92721206381007"/>
    <circle cx="220.0" cy="270.0" r="35.85872574535484"/>
    <circle cx="230.0" cy="280.0" r="39.54178311183491"/>
    <circle cx="240.0" cy="290.0" r="42.946730350938054"/>
    <circle cx="250.0" cy="300.0" r="46.04615282957157"/>
    <circle cx="260.0" cy="310.0" r="48.81509582036839"/>
    <circle cx="270.0" cy="320.0" r="51.23126542247874"/>
    <circle cx="280.0" cy="330.0" r="53.27520805895116"/>
    <circle cx="290.0" cy="340.0" r="54.93046710549556"/>
    <circle cx="300.0" cy="350.0" r="56.18371538954574"/>
    <circle cx="310.0" cy="360.0" r="57.024862492816574"/>
    <circle cx="320.0" cy="370.0" r="57.44713599341902"/>
    <circle cx="330.0" cy="380.0" r="57.447135993419025"/>
    <circle cx="340.0" cy="390.0" r="57.02486249281658"/>
    <circle cx="350.0" cy="400.0" r="56.18371538954574"/>
    <circle cx="360.0" cy="410.0" r="54.930467105495566"/>
    <circle cx="370.0" cy="420.0" r="53.27520805895116"/>
    <circle cx="380.0" cy="430.0" r="51.23126542247874"/>
    <circle cx="390.0" cy="440.0" r="48.81509582036839"/>
    <circle cx="400.0" cy="450.0" r="46.04615282957157"/>
    <circle cx="410.0" cy="460.0" r="42.946730350938054"/>
    <circle cx="420.0" cy="470.0" r="39.54178311183492"/>
    <circle cx="430.0" cy="480.0" r="35.858725745354846"/>
    <circle cx="440.0" cy="490.0" r="31.927212063810078"/>
    <circle cx="450.0" cy="500.0" r="27.778896303671807"/>
    <circle cx="460.0" cy="510.0" r="23.447178264270498"/>
    <circle cx="470.0" cy="520.0" r="18.96693439225045"/>
    <circle cx="480.0" cy="530.0" r="14.37423697692843"/>
    <circle cx="490.0" cy="540.0" r="9.706063717430265"/>
    <circle cx="500.0" cy="550.0" r="5.000000000000006"/>
    <circle cx="200.0" cy="350.0" r="5.0"/>
    <circle cx="210.0" cy="360.0" r="10.826555078723178"/>
    <circle cx="220.0" cy="370.0" r="16.606198161911383"/>
    <circle cx="230.0" cy="380.0" r="22.29239496183388"/>
    <circle cx="240.0" cy="390.0" r="27.839363565287275"/>
    <circle cx="250.0" cy="400.0" r="33.20244304264128"/>
    <circle cx="260.0" cy="410.0" r="38.3384530313839"/>
    <circle cx="270.0" cy="420.0" r="43.20604139901075"/>
    <circle cx="280.0" cy="430.0" r="47.76601718608132"/>
    <circle cx="290.0" cy="440.0" r="51.98166614878044"/>
    <circle cx="300.0" cy="450.0" r="55.819046360421936"/>
    <circle cx="310.0" cy="460.0" r="59.24726149188467"/>
    <circle cx="320.0" cy="470.0" r="62.23870957068797"/>
    <circle cx="330.0" cy="480.0" r="64.76930521584428"/>
    <circle cx="340.0" cy="490.0" r="66.81867355918499"/>
    <circle cx="350.0" cy="500.0" r="68.37031429181854"/>
    <circle cx="360.0" cy="510.0" r="69.41173451491575"/>
    <circle cx="370.0" cy="520.0" r="69.93454932518544"/>
    <circle cx="380.0" cy="530.0" r="69.93454932518546"/>
    <circle cx="390.0" cy="540.0" r="69.41173451491576"/>
    <circle cx="400.0" cy="550.0" r="68.37031429181854"/>
    <circle cx="410.0" cy="560.0" r="66.81867355918499"/>
    <circle cx="420.0" cy="570.0" r="64.7693052158443"/>
    <circle cx="430.0" cy="580.0" r="62.23870957068797"/>
    <circle cx="440.0" cy="590.0" r="59.24726149188468"/>
    <circle cx="450.0" cy="600.0" r="55.81904636042194"/>
    <circle cx="460.0" cy="610.0" r="51.98166614878045"/>
    <circle cx="470.0" cy="620.0" r="47.76601718608133"/>
    <circle cx="480.0" cy="630.0" r="43.20604139901076"/>
    <circle cx="490.0" cy="640.0" r="38.33845303138391"/>
    <circle cx="500.0" cy="650.0" r="33.202443042641285"/>
    <circle cx="510.0" cy="660.0" r="27.839363565287282"/>
    <circle cx="520.0" cy="670.0" r="22.29239496183389"/>
    <circle cx="530.0" cy="680.0" r="16.60619816191139"/>
    <circle cx="540.0" cy="690.0" r="10.826555078723185"/>
    <circle cx="550.0" cy="700.0" r="5.000000000000008"/>
    <circle cx="260.0" cy="60.0" r="8.98894924620279"/>
    <circle cx="270.0" cy="70.0" r="12.94578181853933"/>
    <circle cx="280.0" cy="80.0" r="16.838639627717043"/>
    <circle cx="290.0" cy="90.0" r="20.63617967161975"/>
    <circle cx="300.0" cy="100.0" r="24.307826390731336"/>
    <circle cx="310.0" cy="110.0" r="27.82401784456282"/>
    <circle cx="320.0" cy="120.0" r="31.156443727015056"/>
    <circle cx="330.0" cy="130.0" r="34.27827330431721"/>
    <circle cx="340.0" cy="140.0" r="37.16437144031892"/>
    <circle cx="350.0" cy="150.0" r="39.791500969827325"/>
    <circle cx="360.0" cy="160.0" r="42.138509790597965"/>
    <circle cx="370.0" cy="170.0" r="44.18650116762484"/>
    <circle cx="380.0" cy="180.0" r="45.91898587853955"/>
    <circle cx="390.0" cy="190.0" r="47.32201497513433"/>
    <circle cx="400.0" cy="200.0" r="48.38429209209115"/>
    <circle cx="410.0" cy="210.0" r="49.0972643986731"/>
    <circle cx="420.0" cy="220.0" r="49.455191461088496"/>
    <circle cx="430.0" cy="230.0" r="49.4551914610885"/>
    <circle cx="440.0" cy="240.0" r="49.0972643986731"/>
    <circle cx="450.0" cy="250.0" r="48.38429209209115"/>
    <circle cx="460.0" cy="260.0" r="47.32201497513434"/>
    <circle cx="470.0" cy="270.0" r="45.91898587853956"/>
    <circle cx="480.0" cy="280.0" r="44.18650116762484"/>
    <circle cx="490.0" cy="290.0" r="42.13850979059797"/>
    <circle cx="500.0" cy="300.0" r="39.79150096982733"/>
    <circle cx="510.0" cy="310.0" r="37.164371440318924"/>
    <circle cx="520.0" cy="320.0" r="34.27827330431721"/>
    <circle cx="530.0" cy="330.0" r="31.15644372701506"/>
    <circle cx="540.0" cy="340.0" r="27.824017844562828"/>
    <circle cx="550.0" cy="350.0" r="24.307826390731343"/>
    <circle cx="560.0" cy="360.0" r="20.636179671619754"/>
    <circle cx="570.0" cy="370.0" r="16.838639627717047"/>
    <circle cx="580.0" cy="380.0" r="12.945781818539336"/>
    <circle cx="590.0" cy="390.0" r="8.988949246202797"/>
    <circle cx="600.0" cy="400.0" r="5.000000000000005"/>
    <circle cx="300.0" cy="350.0" r="5.0"/>
    <circle cx="310.0" cy="360.0" r="7.689179267103005"/>
    <circle cx="320.0" cy="370.0" r="10.356706843959099"/>
    <circle cx="330.0" cy="380.0" r="12.981105367000254"/>
    <circle cx="340.0" cy="390.0" r="15.54124472244028"/>
    <circle cx="350.0" cy="400.0" r="18.016512173526742"/>
    <circle cx="360.0" cy="410.0" r="20.386978322177185"/>
    <circle cx="370.0" cy="420.0" r="22.633557568774194"/>
    <circle cx="380.0" cy="430.0" r="24.738161778191376"/>
    <circle cx="390.0" cy="440.0" r="26.68384591482174"/>
    <circle cx="400.0" cy="450.0" r="28.454944474040893"/>
    <circle cx="410.0" cy="460.0" r="30.03719761163908"/>
    <circle cx="420.0" cy="470.0" r="31.41786595570214"/>
    <circle cx="430.0" cy="480.0" r="32.58583317654352"/>
    <circle cx="440.0" cy="490.0" r="33.53169548885461"/>
    <circle cx="450.0" cy="500.0" r="34.24783736545471"/>
    <circle cx="460.0" cy="510.0" r="34.72849285303804"/>
    <circle cx="470.0" cy="520.0" r="34.96979199623944"/>
    <circle cx="480.0" cy="530.0" r="34.96979199623944"/>
    <circle cx="490.0" cy="540.0" r="34.72849285303805"/>
    <circle cx="500.0" cy="550.0" r="34.24783736545471"/>
    <circle cx="510.0" cy="560.0" r="33.53169548885461"/>
    <circle cx="520.0" cy="570.0" r="32.58583317654352"/>
    <circle cx="530.0" cy="580.0" r="31.41786595570214"/>
    <circle cx="540.0" cy="590.0" r="30.037197611639083"/>
    <circle cx="550.0" cy="600.0" r="28.454944474040897"/>
    <circle cx="560.0" cy="610.0" r="26.683845914821745"/>
    <circle cx="570.0" cy="620.0" r="24.73816177819138"/>
    <circle cx="580.0" cy="630.0" r="22.633557568774197"/>
    <circle cx="590.0" cy="640.0" r="20.386978322177185"/>
    <circle cx="600.0" cy="650.0" r="18.01651217352675"/>
    <circle cx="610.0" cy="660.0" r="15.541244722440284"/>
    <circle cx="620.0" cy="670.0" r="12.981105367000257"/>
    <circle cx="630.0" cy="680.0" r="10.356706843959103"/>
    <circle cx="640.0" cy="690.0" r="7.689179267103009"/>
    <circle cx="650.0" cy="700.0" r="5.0000000000000036"/>
    <circle cx="350.0" cy="700.0" r="5.0"/>
    <circle cx="360.0" cy="710.0" r="7.554720303747855"/>
    <circle cx="370.0" cy="720.0" r="10.088871501761144"/>
    <circle cx="380.0" cy="730.0" r="12.58205009865024"/>
    <circle cx="390.0" cy="740.0" r="15.014182486318267"/>
    <circle cx="400.0" cy="750.0" r="17.365686564850407"/>
    <circle cx="410.0" cy="760.0" r="19.617629406068325"/>
    <circle cx="420.0" cy="770.0" r="21.751879690335485"/>
    <circle cx="430.0" cy="780.0" r="23.75125368928181"/>
    <circle cx="440.0" cy="790.0" r="25.599653619080655"/>
    <circle cx="400.0" cy="100.0" r="5.0"/>
    <circle cx="410.0" cy="110.0" r="7.958097193813305"/>
    <circle cx="420.0" cy="120.0" r="10.89237752835501"/>
    <circle cx="430.0" cy="130.0" r="13.77921590370028"/>
    <circle cx="440.0" cy="140.0" r="16.59536919468431"/>
    <circle cx="450.0" cy="150.0" r="19.31816339087942"/>
    <circle cx="460.0" cy="160.0" r="21.925676154394903"/>
    <circle cx="470.0" cy="170.0" r="24.396913325651614"/>
    <circle cx="480.0" cy="180.0" r="26.711977956010514"/>
    <circle cx="490.0" cy="190.0" r="28.85223050630392"/>
    <circle cx="500.0" cy="200.0" r="30.800438921444982"/>
    <circle cx="510.0" cy="210.0" r="32.54091737280299"/>
    <circle cx="520.0" cy="220.0" r="34.05965255127235"/>
    <circle cx="530.0" cy="230.0" r="35.34441649419787"/>
    <circle cx="540.0" cy="240.0" r="36.38486503774007"/>
    <circle cx="550.0" cy="250.0" r="37.17262110200018"/>
    <circle cx="560.0" cy="260.0" r="37.70134213834184"/>
    <circle cx="570.0" cy="270.0" r="37.96677119586338"/>
    <circle cx="580.0" cy="280.0" r="37.96677119586339"/>
    <circle cx="590.0" cy="290.0" r="37.70134213834185"/>
    <circle cx="600.0" cy="300.0" r="37.17262110200018"/>
    <circle cx="610.0" cy="310.0" r="36.38486503774007"/>
    <circle cx="620.0" cy="320.0" r="35.34441649419787"/>
    <circle cx="630.0" cy="330.0" r="34.05965255127235"/>
    <circle cx="640.0" cy="340.0" r="32.540917372802994"/>
    <circle cx="650.0" cy="350.0" r="30.800438921444986"/>
    <circle cx="660.0" cy="360.0" r="28.852230506303922"/>
    <circle cx="670.0" cy="370.0" r="26.711977956010518"/>
    <circle cx="680.0" cy="380.0" r="24.396913325651617"/>
    <circle cx="690.0" cy="390.0" r="21.925676154394907"/>
    <circle cx="700.0" cy="400.0" r="19.31816339087942"/>
    <circle cx="710.0" cy="410.0" r="16.595369194684313"/>
    <circle cx="720.0" cy="420.0" r="13.779215903700283"/>
    <circle cx="730.0" cy="430.0" r="10.892377528355013"/>
    <circle cx="740.0" cy="440.0" r="7.958097193813309"/>
    <circle cx="750.0" cy="450.0" r="5.000000000000004"/>
    <circle cx="400.0" cy="700.0" r="5.0"/>
    <circle cx="410.0" cy="710.0" r="11.58848920440236"/>
    <circle cx="420.0" cy="720.0" r="18.123931767699794"/>
    <circle cx="430.0" cy="730.0" r="24.553708149150623"/>
    <circle cx="440.0" cy="740.0" r="30.826049569978686"/>
    <circle cx="450.0" cy="750.0" r="36.89045482514052"/>
    <circle cx="460.0" cy="760.0" r="42.6980968893341"/>
    <circle cx="470.0" cy="770.0" r="48.202216043496776"/>
    <circle cx="450.0" cy="250.0" r="5.0"/>
    <circle cx="460.0" cy="260.0" r="8.899309937299357"/>
    <circle cx="470.0" cy="270.0" r="12.767224923740695"/>
    <circle cx="480.0" cy="280.0" r="16.57260278215037"/>
    <circle cx="490.0" cy="290.0" r="20.284804847538407"/>
    <circle cx="500.0" cy="300.0" r="23.873942651613778"/>
    <circle cx="510.0" cy="310.0" r="27.311118567156917"/>
    <circle cx="520.0" cy="320.0" r="30.568658474722582"/>
    <circle cx="530.0" cy="330.0" r="33.620334578377495"/>
    <circle cx="540.0" cy="340.0" r="36.44157657649153"/>
    <circle cx="550.0" cy="350.0" r="39.0096694873593"/>
    <circle cx="560.0" cy="360.0" r="41.30393653687666"/>
    <circle cx="570.0" cy="370.0" r="43.305905635768106"/>
    <circle cx="580.0" cy="380.0" r="44.9994581059881"/>
    <circle cx="590.0" cy="390.0" r="46.370958458839176"/>
    <circle cx="600.0" cy="400.0" r="47.409364179909325"/>
    <circle cx="610.0" cy="410.0" r="48.10631463690516"/>
    <circle cx="620.0" cy="420.0" r="48.45619839454719"/>
    <circle cx="630.0" cy="430.0" r="48.45619839454719"/>
    <circle cx="640.0" cy="440.0" r="48.10631463690516"/>
    <circle cx="650.0" cy="450.0" r="47.409364179909325"/>
    <circle cx="660.0" cy="460.0" r="46.37095845883918"/>
    <circle cx="670.0" cy="470.0" r="44.999458105988104"/>
    <circle cx="680.0" cy="480.0" r="43.305905635768106"/>
    <circle cx="690.0" cy="490.0" r="41.30393653687667"/>
    <circle cx="700.0" cy="500.0" r="39.009669487359304"/>
    <circle cx="710.0" cy="510.0" r="36.44157657649153"/>
    <circle cx="720.0" cy="520.0" r="33.6203345783775"/>
    <circle cx="730.0" cy="530.0" r="30.568658474722586"/>
    <circle cx="740.0" cy="540.0" r="27.31111856715692"/>
    <circle cx="750.0" cy="550.0" r="23.873942651613785"/>
    <circle cx="760.0" cy="560.0" r="20.28480484753841"/>
    <circle cx="770.0" cy="570.0" r="16.572602782150373"/>
    <circle cx="780.0" cy="580.0" r="12.767224923740699"/>
    <circle cx="790.0" cy="590.0" r="8.899309937299362"/>
    <circle cx="800.0" cy="600.0" r="5.000000000000005"/>
    <circle cx="500.0" cy="150.0" r="5.0"/>
    <circle cx="510.0" cy="160.0" r="10.557637152012877"/>
    <circle cx="520.0" cy="170.0" r="16.070527477515473"/>
    <circle cx="530.0" cy="180.0" r="21.494284425133856"/>
    <circle cx="540.0" cy="190.0" r="26.785239093043245"/>
    <circle cx="550.0" cy="200.0" r="31.900791825288604"/>
    <circle cx="560.0" cy="210.0" r="36.799755199166185"/>
    <circle cx="570.0" cy="220.0" r="41.442685642133334"/>
    <circle cx="580.0" cy="230.0" r="45.79220100826218"/>
    <circle cx="590.0" cy="240.0" r="49.81328155729827"/>
    <circle cx="600.0" cy="250.0" r="53.47355191301785"/>
    <circle cx="610.0" cy="260.0" r="56.743541730720764"/>
    <circle cx="620.0" cy="270.0" r="59.59692297511776"/>
    <circle cx="630.0" cy="280.0" r="62.010721898189935"/>
    <circle cx="640.0" cy="290.0" r="63.96550401029952"/>
    <circle cx="650.0" cy="300.0" r="65.44553055527307"/>
    <circle cx="660.0" cy="310.0" r="66.43888522961194"/>
    <circle cx="670.0" cy="320.0" r="66.9375701255615"/>
    <circle cx="680.0" cy="330.0" r="66.9375701255615"/>
    <circle cx="690.0" cy="340.0" r="66.43888522961196"/>
    <circle cx="700.0" cy="350.0" r="65.44553055527307"/>
    <circle cx="710.0" cy="360.0" r="63.965504010299526"/>
    <circle cx="720.0" cy="370.0" r="62.01072189818994"/>
    <circle cx="730.0" cy="380.0" r="59.59692297511776"/>
    <circle cx="740.0" cy="390.0" r="56.74354173072077"/>
    <circle cx="750.0" cy="400.0" r="53.47355191301786"/>
    <circle cx="760.0" cy="410.0" r="49.813281557298275"/>
    <circle cx="770.0" cy="420.0" r="45.79220100826219"/>
    <circle cx="780.0" cy="430.0" r="41.44268564213334"/>
    <circle cx="790.0" cy="440.0" r="36.799755199166185"/>
    <circle cx="800.0" cy="450.0" r="31.90079182528861"/>
    <circle cx="810.0" cy="460.0" r="26.785239093043252"/>
    <circle cx="820.0" cy="470.0" r="21.494284425133863"/>
    <circle cx="830.0" cy="480.0" r="16.07052747751548"/>
    <circle cx="840.0" cy="490.0" r="10.557637152012884"/>
    <circle cx="850.0" cy="500.0" r="5.000000000000008"/>
    <circle cx="500.0" cy="300.0" r="5.0"/>
    <circle cx="510.0" cy="310.0" r="10.64727646091631"/>
    <circle cx="520.0" cy="320.0" r="16.24908437231411"/>
    <circle cx="530.0" cy="330.0" r="21.760321270700533"/>
    <circle cx="540.0" cy="340.0" r="27.13661391712459"/>
    <circle cx="550.0" cy="350.0" r="32.33467556440616"/>
    <circle cx="560.0" cy="360.0" r="37.312654476572085"/>
    <circle cx="570.0" cy="370.0" r="42.03047089442581"/>
    <circle cx="580.0" cy="380.0" r="46.45013973420189"/>
    <circle cx="590.0" cy="390.0" r="50.536076421125664"/>
    <circle cx="600.0" cy="400.0" r="54.25538339548588"/>
    <circle cx="610.0" cy="410.0" r="57.57811498444207"/>
    <circle cx="620.0" cy="420.0" r="60.47751850697449"/>
    <circle cx="630.0" cy="430.0" r="62.93024967074139"/>
    <circle cx="640.0" cy="440.0" r="64.91656052659468"/>
    <circle cx="650.0" cy="450.0" r="66.42045846745489"/>
    <circle cx="660.0" cy="460.0" r="67.42983499137989"/>
    <circle cx="670.0" cy="470.0" r="67.93656319210282"/>
    <circle cx="680.0" cy="480.0" r="67.93656319210282"/>
    <circle cx="690.0" cy="490.0" r="67.42983499137989"/>
    <circle cx="700.0" cy="500.0" r="66.42045846745489"/>
    <circle cx="710.0" cy="510.0" r="64.91656052659468"/>
    <circle cx="720.0" cy="520.0" r="62.9302496707414"/>
    <circle cx="730.0" cy="530.0" r="60.47751850697449"/>
    <circle cx="740.0" cy="540.0" r="57.578114984442074"/>
    <circle cx="750.0" cy="550.0" r="54.255383395485886"/>
    <circle cx="760.0" cy="560.0" r="50.53607642112567"/>
    <circle cx="770.0" cy="570.0" r="46.4501397342019"/>
    <circle cx="780.0" cy="580.0" r="42.03047089442582"/>
    <circle cx="790.0" cy="590.0" r="37.31265447657209"/>
    <circle cx="800.0" cy="600.0" r="32.33467556440617"/>
    <circle cx="810.0" cy="610.0" r="27.136613917124595"/>
    <circle cx="820.0" cy="620.0" r="21.76032127070054"/>
    <circle cx="830.0" cy="630.0" r="16.249084372314115"/>
    <circle cx="840.0" cy="640.0" r="10.647276460916318"/>
    <circle cx="850.0" cy="650.0" r="5.000000000000008"/>
    <circle cx="500.0" cy="350.0" r="5.0"/>
    <circle cx="510.0" cy="360.0" r="7.554720303747855"/>
    <circle cx="520.0" cy="370.0" r="10.088871501761144"/>
    <circle cx="530.0" cy="380.0" r="12.58205009865024"/>
    <circle cx="540.0" cy="390.0" r="15.014182486318267"/>
    <circle cx="550.0" cy="400.0" r="17.365686564850407"/>
    <circle cx="560.0" cy="410.0" r="19.617629406068325"/>
    <circle cx="570.0" cy="420.0" r="21.751879690335485"/>
    <circle cx="580.0" cy="430.0" r="23.75125368928181"/>
    <circle cx="590.0" cy="440.0" r="25.599653619080655"/>
    <circle cx="600.0" cy="450.0" r="27.28219725033885"/>
    <circle cx="610.0" cy="460.0" r="28.785337731057126"/>
    <circle cx="620.0" cy="470.0" r="30.096972657917032"/>
    <circle cx="630.0" cy="480.0" r="31.206541517716342"/>
    <circle cx="640.0" cy="490.0" r="32.10511071441188"/>
    <circle cx="650.0" cy="500.0" r="32.785445497181975"/>
    <circle cx="660.0" cy="510.0" r="33.24206821038614"/>
    <circle cx="670.0" cy="520.0" r="33.47130239642746"/>
    <circle cx="680.0" cy="530.0" r="33.47130239642747"/>
    <circle cx="690.0" cy="540.0" r="33.242068210386144"/>
    <circle cx="700.0" cy="550.0" r="32.785445497181975"/>
    <circle cx="710.0" cy="560.0" r="32.10511071441188"/>
    <circle cx="720.0" cy="570.0" r="31.206541517716346"/>
    <circle cx="730.0" cy="580.0" r="30.096972657917032"/>
    <circle cx="740.0" cy="590.0" r="28.78533773105713"/>
    <circle cx="750.0" cy="600.0" r="27.282197250338854"/>
    <circle cx="760.0" cy="610.0" r="25.59965361908066"/>
    <circle cx="770.0" cy="620.0" r="23.75125368928181"/>
    <circle cx="780.0" cy="630.0" r="21.75187969033549"/>
    <circle cx="790.0" cy="640.0" r="19.61762940606833"/>
    <circle cx="800.0" cy="650.0" r="17.36568656485041"/>
    <circle cx="810.0" cy="660.0" r="15.01418248631827"/>
    <circle cx="820.0" cy="670.0" r="12.582050098650244"/>
    <circle cx="830.0" cy="680.0" r="10.088871501761147"/>
    <circle cx="840.0" cy="690.0" r="7.5547203037478585"/>
    <circle cx="850.0" cy="700.0" r="5.0000000000000036"/>
    <circle cx="750.0" cy="300.0" r="5.0"/>
    <circle cx="760.0" cy="310.0" r="8.495933047233907"/>
    <circle cx="770.0" cy="320.0" r="11.96371889714683"/>
    <circle cx="780.0" cy="330.0" r="15.37543697710033"/>
    <circle cx="790.0" cy="340.0" r="18.703618139172363"/>
    <circle cx="800.0" cy="350.0" r="21.921465825584768"/>
    <circle cx="810.0" cy="360.0" r="25.00307181883034"/>
    <circle cx="820.0" cy="370.0" r="27.923624839406454"/>
    <circle cx="830.0" cy="380.0" r="30.65961031164879"/>
    <circle cx="840.0" cy="390.0" r="33.188999689268265"/>
    <circle cx="850.0" cy="400.0" r="35.491427816253164"/>
    <circle cx="860.0" cy="410.0" r="37.5483568951308"/>
    <circle cx="870.0" cy="420.0" r="39.343225742412784"/>
    <circle cx="880.0" cy="430.0" r="40.86158312950657"/>
    <circle cx="890.0" cy="440.0" r="42.091204135510985"/>
    <circle cx="900.0" cy="450.0" r="43.02218857509112"/>
    <circle cx="910.0" cy="460.0" r="43.647040708949454"/>
    <circle cx="920.0" cy="470.0" r="43.96072959511127"/>
    <circle cx="930.0" cy="480.0" r="43.960729595111275"/>
    <circle cx="940.0" cy="490.0" r="43.647040708949454"/>
    <circle cx="950.0" cy="500.0" r="43.02218857509112"/>
    <circle cx="960.0" cy="510.0" r="42.09120413551099"/>
    <circle cx="970.0" cy="520.0" r="40.86158312950658"/>
    <circle cx="980.0" cy="530.0" r="39.343225742412784"/>
    <circle cx="990.0" cy="540.0" r="37.54835689513081"/>
    <circle cx="1000.0" cy="550.0" r="35.491427816253164"/>
    <circle cx="1010.0" cy="560.0" r="33.18899968926827"/>
    <circle cx="1020.0" cy="570.0" r="30.659610311648795"/>
    <circle cx="1030.0" cy="580.0" r="27.923624839406457"/>
    <circle cx="1040.0" cy="590.0" r="25.003071818830342"/>
    <circle cx="1050.0" cy="600.0" r="21.92146582558477"/>
    <circle cx="1060.0" cy="610.0" r="18.70361813917237"/>
    <circle cx="1070.0" cy="620.0" r="15.375436977100334"/>
    <circle cx="1080.0" cy="630.0" r="11.963718897146833"/>
    <circle cx="1090.0" cy="640.0" r="8.495933047233912"/>
    <circle cx="800.0" cy="500.0" r="5.0"/>
    <circle cx="810.0" cy="510.0" r="10.019801298592276"/>
    <circle cx="820.0" cy="520.0" r="14.999186108723652"/>
    <circle cx="830.0" cy="530.0" r="19.898063351733807"/>
    <circle cx="840.0" cy="540.0" r="24.67699014855519"/>
    <circle cx="850.0" cy="550.0" r="29.297489390583255"/>
    <circle cx="860.0" cy="560.0" r="33.72235953473074"/>
    <circle cx="870.0" cy="570.0" r="37.915974128378494"/>
    <circle cx="880.0" cy="580.0" r="41.844568652623906"/>
    <circle cx="890.0" cy="590.0" r="45.47651237433392"/>
    <circle cx="900.0" cy="600.0" r="48.78256301820967"/>
    <circle cx="910.0" cy="610.0" r="51.73610220839295"/>
    <circle cx="920.0" cy="620.0" r="54.31334978397733"/>
    <circle cx="930.0" cy="630.0" r="56.49355526288123"/>
    <circle cx="940.0" cy="640.0" r="58.2591649125286"/>
    <circle cx="950.0" cy="650.0" r="59.595963082182124"/>
    <circle cx="960.0" cy="660.0" r="60.493186659004344"/>
    <circle cx="970.0" cy="670.0" r="60.94361172631362"/>
    <circle cx="980.0" cy="680.0" r="60.94361172631362"/>
    <circle cx="990.0" cy="690.0" r="60.49318665900435"/>
    <circle cx="1000.0" cy="700.0" r="59.595963082182124"/>
    <circle cx="1010.0" cy="710.0" r="58.259164912528604"/>
    <circle cx="1020.0" cy="720.0" r="56.49355526288124"/>
    <circle cx="1030.0" cy="730.0" r="54.31334978397733"/>
    <circle cx="1040.0" cy="740.0" r="51.73610220839296"/>
    <circle cx="1050.0" cy="750.0" r="48.78256301820967"/>
    <circle cx="800.0" cy="600.0" r="5.0"/>
    <circle cx="810.0" cy="610.0" r="8.764850973944206"/>
    <circle cx="820.0" cy="620.0" r="12.49938958154274"/>
    <circle cx="830.0" cy="630.0" r="16.173547513800354"/>
    <circle cx="840.0" cy="640.0" r="19.757742611416393"/>
    <circle cx="850.0" cy="650.0" r="23.223117042937442"/>
    <circle cx="860.0" cy="660.0" r="26.541769651048057"/>
    <circle cx="870.0" cy="670.0" r="29.68698059628387"/>
    <circle cx="880.0" cy="680.0" r="32.63342648946793"/>
    <circle cx="890.0" cy="690.0" r="35.35738428075044"/>
    <circle cx="900.0" cy="700.0" r="37.83692226365725"/>
    <circle cx="910.0" cy="710.0" r="40.05207665629471"/>
    <circle cx="920.0" cy="720.0" r="41.985012337982994"/>
    <circle cx="930.0" cy="730.0" r="43.620166447160926"/>
    <circle cx="940.0" cy="740.0" r="44.944373684396446"/>
    <circle cx="950.0" cy="750.0" r="45.94697231163659"/>
    <circle cx="960.0" cy="760.0" r="46.619889994253256"/>
    <circle cx="970.0" cy="770.0" r="46.95770879473521"/>
    <circle cx="800.0" cy="700.0" r="5.0"/>
    <circle cx="810.0" cy="710.0" r="10.736915769819744"/>
    <circle cx="820.0" cy="720.0" r="16.427641267112747"/>
    <circle cx="830.0" cy="730.0" r="22.026358116267208"/>
    <circle cx="840.0" cy="740.0" r="27.487988741205932"/>
    <circle cx="850.0" cy="750.0" r="32.768559303523716"/>
    <circle cx="860.0" cy="760.0" r="37.82555375397799"/>
    <circle cx="870.0" cy="770.0" r="42.61825614671828"/>
    <circle cx="900.0" cy="700.0" r="5.0"/>
    <circle cx="910.0" cy="710.0" r="10.019801298592276"/>
    <circle cx="920.0" cy="720.0" r="14.999186108723652"/>
    <circle cx="930.0" cy="730.0" r="19.898063351733807"/>
    <circle cx="940.0" cy="740.0" r="24.67699014855519"/>
    <circle cx="950.0" cy="750.0" r="29.297489390583255"/>
    <circle cx="960.0" cy="760.0" r="33.72235953473074"/>
    <circle cx="970.0" cy="770.0" r="37.915974128378494"/>
    <circle cx="950.0" cy="650.0" r="5.0"/>
    <circle cx="960.0" cy="660.0" r="7.644359612651288"/>
    <circle cx="970.0" cy="670.0" r="10.267428396559781"/>
    <circle cx="980.0" cy="680.0" r="12.848086944216917"/>
    <circle cx="990.0" cy="690.0" r="15.365557310399609"/>
    <circle cx="1000.0" cy="700.0" r="17.799570303967965"/>
    <circle cx="1010.0" cy="710.0" r="20.130528683474232"/>
    <circle cx="1020.0" cy="720.0" r="22.33966494262796"/>
    <circle cx="1030.0" cy="730.0" r="24.409192415221522"/>
    <circle cx="1040.0" cy="740.0" r="26.322448482908047"/>
    <circle cx="1050.0" cy="750.0" r="28.06402873280688"/>
    <circle cx="1060.0" cy="760.0" r="29.61991098477843"/>
    <circle cx="1000.0" cy="600.0" r="5.0"/>
    <circle cx="1010.0" cy="610.0" r="10.064620953043992"/>
    <circle cx="1020.0" cy="620.0" r="15.08846455612297"/>
    <circle cx="1030.0" cy="630.0" r="20.031081774517144"/>
    <circle cx="1040.0" cy="640.0" r="24.85267756059586"/>
    <circle cx="1050.0" cy="650.0" r="29.514431260142032"/>
    <circle cx="1060.0" cy="660.0" r="33.978809173433696"/>
  </g>
</svg>
