<svg version="1.1" width="1150" height="870" xmlns="http://www.w3.org/2000/svg">
  <!-- Seed: 4359507827660407980 -->
  <!-- Size: SvgSize.Size9x12 -->
  <!-- Params:
    draw: True
    count: 20
    clamp_start: 50
    stack_count: [RangeInt] min: 35 max: 35
    fixed_size: 0
    min_size: 10
    max_size_range: [RangeInt] min: 50 max: 150
  -->
  <g stroke="black" fill="none">
    <circle cx="70.0" cy="220.0" r="15.18"/>
    <circle cx="80.0" cy="230.0" r="20.16"/>
    <circle cx="90.0" cy="240.0" r="25.03"/>
    <circle cx="100.0" cy="250.0" r="29.73"/>
    <circle cx="110.0" cy="260.0" r="34.24"/>
    <circle cx="120.0" cy="270.0" r="38.5"/>
    <circle cx="130.0" cy="280.0" r="42.5"/>
    <circle cx="140.0" cy="290.0" r="46.2"/>
    <circle cx="150.0" cy="300.0" r="49.56"/>
    <circle cx="160.0" cy="310.0" r="52.57"/>
    <circle cx="170.0" cy="320.0" r="55.19"/>
    <circle cx="180.0" cy="330.0" r="57.41"/>
    <circle cx="190.0" cy="340.0" r="59.21"/>
    <circle cx="200.0" cy="350.0" r="60.57"/>
    <circle cx="210.0" cy="360.0" r="61.48"/>
    <circle cx="220.0" cy="370.0" r="61.94"/>
    <circle cx="230.0" cy="380.0" r="61.94"/>
    <circle cx="240.0" cy="390.0" r="61.48"/>
    <circle cx="250.0" cy="400.0" r="60.57"/>
    <circle cx="260.0" cy="410.0" r="59.21"/>
    <circle cx="270.0" cy="420.0" r="57.41"/>
    <circle cx="280.0" cy="430.0" r="55.19"/>
    <circle cx="290.0" cy="440.0" r="52.57"/>
    <circle cx="300.0" cy="450.0" r="49.56"/>
    <circle cx="310.0" cy="460.0" r="46.2"/>
    <circle cx="320.0" cy="470.0" r="42.5"/>
    <circle cx="330.0" cy="480.0" r="38.5"/>
    <circle cx="340.0" cy="490.0" r="34.24"/>
    <circle cx="350.0" cy="500.0" r="29.73"/>
    <circle cx="360.0" cy="510.0" r="25.03"/>
    <circle cx="370.0" cy="520.0" r="20.16"/>
    <circle cx="380.0" cy="530.0" r="15.18"/>
    <circle cx="390.0" cy="540.0" r="10.11"/>
    <circle cx="400.0" cy="550.0" r="5.0"/>
    <circle cx="100.0" cy="100.0" r="5.0"/>
    <circle cx="110.0" cy="110.0" r="9.75"/>
    <circle cx="120.0" cy="120.0" r="14.46"/>
    <circle cx="130.0" cy="130.0" r="19.1"/>
    <circle cx="140.0" cy="140.0" r="23.62"/>
    <circle cx="150.0" cy="150.0" r="28.0"/>
    <circle cx="160.0" cy="160.0" r="32.18"/>
    <circle cx="170.0" cy="170.0" r="36.15"/>
    <circle cx="180.0" cy="180.0" r="39.87"/>
    <circle cx="190.0" cy="190.0" r="43.31"/>
    <circle cx="200.0" cy="200.0" r="46.44"/>
    <circle cx="210.0" cy="210.0" r="49.23"/>
    <circle cx="220.0" cy="220.0" r="51.67"/>
    <circle cx="230.0" cy="230.0" r="53.73"/>
    <circle cx="240.0" cy="240.0" r="55.41"/>
    <circle cx="250.0" cy="250.0" r="56.67"/>
    <circle cx="260.0" cy="260.0" r="57.52"/>
    <circle cx="270.0" cy="270.0" r="57.95"/>
    <circle cx="280.0" cy="280.0" r="57.95"/>
    <circle cx="290.0" cy="290.0" r="57.52"/>
    <circle cx="300.0" cy="300.0" r="56.67"/>
    <circle cx="310.0" cy="310.0" r="55.41"/>
    <circle cx="320.0" cy="320.0" r="53.73"/>
    <circle cx="330.0" cy="330.0" r="51.67"/>
    <circle cx="340.0" cy="340.0" r="49.23"/>
    <circle cx="350.0" cy="350.0" r="46.44"/>
    <circle cx="360.0" cy="360.0" r="43.31"/>
    <circle cx="370.0" cy="370.0" r="39.87"/>
    <circle cx="380.0" cy="380.0" r="36.15"/>
    <circle cx="390.0" cy="390.0" r="32.18"/>
    <circle cx="400.0" cy="400.0" r="28.0"/>
    <circle cx="410.0" cy="410.0" r="23.62"/>
    <circle cx="420.0" cy="420.0" r="19.1"/>
    <circle cx="430.0" cy="430.0" r="14.46"/>
    <circle cx="440.0" cy="440.0" r="9.75"/>
    <circle cx="450.0" cy="450.0" r="5.0"/>
    <circle cx="150.0" cy="400.0" r="5.0"/>
    <circle cx="160.0" cy="410.0" r="7.51"/>
    <circle cx="170.0" cy="420.0" r="10.0"/>
    <circle cx="180.0" cy="430.0" r="12.45"/>
    <circle cx="190.0" cy="440.0" r="14.84"/>
    <circle cx="200.0" cy="450.0" r="17.15"/>
    <circle cx="210.0" cy="460.0" r="19.36"/>
    <circle cx="220.0" cy="470.0" r="21.46"/>
    <circle cx="230.0" cy="480.0" r="23.42"/>
    <circle cx="240.0" cy="490.0" r="25.24"/>
    <circle cx="250.0" cy="500.0" r="26.89"/>
    <circle cx="260.0" cy="510.0" r="28.37"/>
    <circle cx="270.0" cy="520.0" r="29.66"/>
    <circle cx="280.0" cy="530.0" r="30.75"/>
    <circle cx="290.0" cy="540.0" r="31.63"/>
    <circle cx="300.0" cy="550.0" r="32.3"/>
    <circle cx="310.0" cy="560.0" r="32.75"/>
    <circle cx="320.0" cy="570.0" r="32.97"/>
    <circle cx="330.0" cy="580.0" r="32.97"/>
    <circle cx="340.0" cy="590.0" r="32.75"/>
    <circle cx="350.0" cy="600.0" r="32.3"/>
    <circle cx="360.0" cy="610.0" r="31.63"/>
    <circle cx="370.0" cy="620.0" r="30.75"/>
    <circle cx="380.0" cy="630.0" r="29.66"/>
    <circle cx="390.0" cy="640.0" r="28.37"/>
    <circle cx="400.0" cy="650.0" r="26.89"/>
    <circle cx="410.0" cy="660.0" r="25.24"/>
    <circle cx="420.0" cy="670.0" r="23.42"/>
    <circle cx="430.0" cy="680.0" r="21.46"/>
    <circle cx="440.0" cy="690.0" r="19.36"/>
    <circle cx="450.0" cy="700.0" r="17.15"/>
    <circle cx="460.0" cy="710.0" r="14.84"/>
    <circle cx="470.0" cy="720.0" r="12.45"/>
    <circle cx="480.0" cy="730.0" r="10.0"/>
    <circle cx="490.0" cy="740.0" r="7.51"/>
    <circle cx="500.0" cy="750.0" r="5.0"/>
    <circle cx="200.0" cy="400.0" r="5.0"/>
    <circle cx="210.0" cy="410.0" r="10.51"/>
    <circle cx="220.0" cy="420.0" r="15.98"/>
    <circle cx="230.0" cy="430.0" r="21.36"/>
    <circle cx="240.0" cy="440.0" r="26.61"/>
    <circle cx="250.0" cy="450.0" r="31.68"/>
    <circle cx="260.0" cy="460.0" r="36.54"/>
    <circle cx="270.0" cy="470.0" r="41.15"/>
    <circle cx="280.0" cy="480.0" r="45.46"/>
    <circle cx="290.0" cy="490.0" r="49.45"/>
    <circle cx="300.0" cy="500.0" r="53.08"/>
    <circle cx="310.0" cy="510.0" r="56.33"/>
    <circle cx="320.0" cy="520.0" r="59.16"/>
    <circle cx="330.0" cy="530.0" r="61.55"/>
    <circle cx="340.0" cy="540.0" r="63.49"/>
    <circle cx="350.0" cy="550.0" r="64.96"/>
    <circle cx="360.0" cy="560.0" r="65.94"/>
    <circle cx="370.0" cy="570.0" r="66.44"/>
    <circle cx="380.0" cy="580.0" r="66.44"/>
    <circle cx="390.0" cy="590.0" r="65.94"/>
    <circle cx="400.0" cy="600.0" r="64.96"/>
    <circle cx="410.0" cy="610.0" r="63.49"/>
    <circle cx="420.0" cy="620.0" r="61.55"/>
    <circle cx="430.0" cy="630.0" r="59.16"/>
    <circle cx="440.0" cy="640.0" r="56.33"/>
    <circle cx="450.0" cy="650.0" r="53.08"/>
    <circle cx="460.0" cy="660.0" r="49.45"/>
    <circle cx="470.0" cy="670.0" r="45.46"/>
    <circle cx="480.0" cy="680.0" r="41.15"/>
    <circle cx="490.0" cy="690.0" r="36.54"/>
    <circle cx="500.0" cy="700.0" r="31.68"/>
    <circle cx="510.0" cy="710.0" r="26.61"/>
    <circle cx="520.0" cy="720.0" r="21.36"/>
    <circle cx="530.0" cy="730.0" r="15.98"/>
    <circle cx="540.0" cy="740.0" r="10.51"/>
    <circle cx="550.0" cy="750.0" r="5.0"/>
    <circle cx="200.0" cy="500.0" r="5.0"/>
    <circle cx="210.0" cy="510.0" r="11.36"/>
    <circle cx="220.0" cy="520.0" r="17.68"/>
    <circle cx="230.0" cy="530.0" r="23.89"/>
    <circle cx="240.0" cy="540.0" r="29.95"/>
    <circle cx="250.0" cy="550.0" r="35.81"/>
    <circle cx="260.0" cy="560.0" r="41.42"/>
    <circle cx="270.0" cy="570.0" r="46.73"/>
    <circle cx="280.0" cy="580.0" r="51.71"/>
    <circle cx="290.0" cy="590.0" r="56.32"/>
    <circle cx="300.0" cy="600.0" r="60.51"/>
    <circle cx="310.0" cy="610.0" r="64.25"/>
    <circle cx="320.0" cy="620.0" r="67.52"/>
    <circle cx="330.0" cy="630.0" r="70.29"/>
    <circle cx="340.0" cy="640.0" r="72.53"/>
    <circle cx="350.0" cy="650.0" r="74.22"/>
    <circle cx="360.0" cy="660.0" r="75.36"/>
    <circle cx="370.0" cy="670.0" r="75.93"/>
    <circle cx="380.0" cy="680.0" r="75.93"/>
    <circle cx="390.0" cy="690.0" r="75.36"/>
    <circle cx="400.0" cy="700.0" r="74.22"/>
    <circle cx="410.0" cy="710.0" r="72.53"/>
    <circle cx="420.0" cy="720.0" r="70.29"/>
    <circle cx="430.0" cy="730.0" r="67.52"/>
    <circle cx="440.0" cy="740.0" r="64.25"/>
    <circle cx="450.0" cy="750.0" r="60.51"/>
    <circle cx="460.0" cy="760.0" r="56.32"/>
    <circle cx="250.0" cy="500.0" r="5.0"/>
    <circle cx="260.0" cy="510.0" r="10.78"/>
    <circle cx="270.0" cy="520.0" r="16.52"/>
    <circle cx="280.0" cy="530.0" r="22.16"/>
    <circle cx="290.0" cy="540.0" r="27.66"/>
    <circle cx="300.0" cy="550.0" r="32.99"/>
    <circle cx="310.0" cy="560.0" r="38.08"/>
    <circle cx="320.0" cy="570.0" r="42.91"/>
    <circle cx="330.0" cy="580.0" r="47.44"/>
    <circle cx="340.0" cy="590.0" r="51.62"/>
    <circle cx="350.0" cy="600.0" r="55.43"/>
    <circle cx="360.0" cy="610.0" r="58.83"/>
    <circle cx="370.0" cy="620.0" r="61.8"/>
    <circle cx="380.0" cy="630.0" r="64.31"/>
    <circle cx="390.0" cy="640.0" r="66.34"/>
    <circle cx="400.0" cy="650.0" r="67.88"/>
    <circle cx="410.0" cy="660.0" r="68.92"/>
    <circle cx="420.0" cy="670.0" r="69.44"/>
    <circle cx="430.0" cy="680.0" r="69.44"/>
    <circle cx="440.0" cy="690.0" r="68.92"/>
    <circle cx="450.0" cy="700.0" r="67.88"/>
    <circle cx="460.0" cy="710.0" r="66.34"/>
    <circle cx="470.0" cy="720.0" r="64.31"/>
    <circle cx="480.0" cy="730.0" r="61.8"/>
    <circle cx="490.0" cy="740.0" r="58.83"/>
    <circle cx="500.0" cy="750.0" r="55.43"/>
    <circle cx="510.0" cy="760.0" r="51.62"/>
    <circle cx="520.0" cy="770.0" r="47.44"/>
    <circle cx="350.0" cy="650.0" r="5.0"/>
    <circle cx="360.0" cy="660.0" r="10.6"/>
    <circle cx="370.0" cy="670.0" r="16.16"/>
    <circle cx="380.0" cy="680.0" r="21.63"/>
    <circle cx="390.0" cy="690.0" r="26.96"/>
    <circle cx="400.0" cy="700.0" r="32.12"/>
    <circle cx="410.0" cy="710.0" r="37.06"/>
    <circle cx="420.0" cy="720.0" r="41.74"/>
    <circle cx="430.0" cy="730.0" r="46.12"/>
    <circle cx="440.0" cy="740.0" r="50.17"/>
    <circle cx="450.0" cy="750.0" r="53.86"/>
    <circle cx="460.0" cy="760.0" r="57.16"/>
    <circle cx="500.0" cy="100.0" r="5.0"/>
    <circle cx="510.0" cy="110.0" r="11.41"/>
    <circle cx="520.0" cy="120.0" r="17.77"/>
    <circle cx="530.0" cy="130.0" r="24.02"/>
    <circle cx="540.0" cy="140.0" r="30.12"/>
    <circle cx="550.0" cy="150.0" r="36.02"/>
    <circle cx="560.0" cy="160.0" r="41.67"/>
    <circle cx="570.0" cy="170.0" r="47.03"/>
    <circle cx="580.0" cy="180.0" r="52.04"/>
    <circle cx="590.0" cy="190.0" r="56.68"/>
    <circle cx="600.0" cy="200.0" r="60.9"/>
    <circle cx="610.0" cy="210.0" r="64.67"/>
    <circle cx="620.0" cy="220.0" r="67.96"/>
    <circle cx="630.0" cy="230.0" r="70.75"/>
    <circle cx="640.0" cy="240.0" r="73.0"/>
    <circle cx="650.0" cy="250.0" r="74.71"/>
    <circle cx="660.0" cy="260.0" r="75.85"/>
    <circle cx="670.0" cy="270.0" r="76.43"/>
    <circle cx="680.0" cy="280.0" r="76.43"/>
    <circle cx="690.0" cy="290.0" r="75.85"/>
    <circle cx="700.0" cy="300.0" r="74.71"/>
    <circle cx="710.0" cy="310.0" r="73.0"/>
    <circle cx="720.0" cy="320.0" r="70.75"/>
    <circle cx="730.0" cy="330.0" r="67.96"/>
    <circle cx="740.0" cy="340.0" r="64.67"/>
    <circle cx="750.0" cy="350.0" r="60.9"/>
    <circle cx="760.0" cy="360.0" r="56.68"/>
    <circle cx="770.0" cy="370.0" r="52.04"/>
    <circle cx="780.0" cy="380.0" r="47.03"/>
    <circle cx="790.0" cy="390.0" r="41.67"/>
    <circle cx="800.0" cy="400.0" r="36.02"/>
    <circle cx="810.0" cy="410.0" r="30.12"/>
    <circle cx="820.0" cy="420.0" r="24.02"/>
    <circle cx="830.0" cy="430.0" r="17.77"/>
    <circle cx="840.0" cy="440.0" r="11.41"/>
    <circle cx="850.0" cy="450.0" r="5.0"/>
    <circle cx="550.0" cy="400.0" r="5.0"/>
    <circle cx="560.0" cy="410.0" r="8.36"/>
    <circle cx="570.0" cy="420.0" r="11.7"/>
    <circle cx="580.0" cy="430.0" r="14.98"/>
    <circle cx="590.0" cy="440.0" r="18.18"/>
    <circle cx="600.0" cy="450.0" r="21.27"/>
    <circle cx="610.0" cy="460.0" r="24.23"/>
    <circle cx="620.0" cy="470.0" r="27.04"/>
    <circle cx="630.0" cy="480.0" r="29.67"/>
    <circle cx="640.0" cy="490.0" r="32.1"/>
    <circle cx="650.0" cy="500.0" r="34.32"/>
    <circle cx="660.0" cy="510.0" r="36.3"/>
    <circle cx="670.0" cy="520.0" r="38.02"/>
    <circle cx="680.0" cy="530.0" r="39.48"/>
    <circle cx="690.0" cy="540.0" r="40.66"/>
    <circle cx="700.0" cy="550.0" r="41.56"/>
    <circle cx="710.0" cy="560.0" r="42.16"/>
    <circle cx="720.0" cy="570.0" r="42.46"/>
    <circle cx="730.0" cy="580.0" r="42.46"/>
    <circle cx="740.0" cy="590.0" r="42.16"/>
    <circle cx="750.0" cy="600.0" r="41.56"/>
    <circle cx="760.0" cy="610.0" r="40.66"/>
    <circle cx="770.0" cy="620.0" r="39.48"/>
    <circle cx="780.0" cy="630.0" r="38.02"/>
    <circle cx="790.0" cy="640.0" r="36.3"/>
    <circle cx="800.0" cy="650.0" r="34.32"/>
    <circle cx="810.0" cy="660.0" r="32.1"/>
    <circle cx="820.0" cy="670.0" r="29.67"/>
    <circle cx="830.0" cy="680.0" r="27.04"/>
    <circle cx="840.0" cy="690.0" r="24.23"/>
    <circle cx="850.0" cy="700.0" r="21.27"/>
    <circle cx="860.0" cy="710.0" r="18.18"/>
    <circle cx="870.0" cy="720.0" r="14.98"/>
    <circle cx="880.0" cy="730.0" r="11.7"/>
    <circle cx="890.0" cy="740.0" r="8.36"/>
    <circle cx="900.0" cy="750.0" r="5.0"/>
    <circle cx="600.0" cy="700.0" r="5.0"/>
    <circle cx="610.0" cy="710.0" r="7.42"/>
    <circle cx="620.0" cy="720.0" r="9.82"/>
    <circle cx="630.0" cy="730.0" r="12.18"/>
    <circle cx="640.0" cy="740.0" r="14.49"/>
    <circle cx="650.0" cy="750.0" r="16.71"/>
    <circle cx="660.0" cy="760.0" r="18.85"/>
    <circle cx="670.0" cy="770.0" r="20.87"/>
    <circle cx="680.0" cy="780.0" r="22.76"/>
    <circle cx="690.0" cy="790.0" r="24.52"/>
    <circle cx="650.0" cy="650.0" r="5.0"/>
    <circle cx="660.0" cy="660.0" r="10.69"/>
    <circle cx="670.0" cy="670.0" r="16.34"/>
    <circle cx="680.0" cy="680.0" r="21.89"/>
    <circle cx="690.0" cy="690.0" r="27.31"/>
    <circle cx="700.0" cy="700.0" r="32.55"/>
    <circle cx="710.0" cy="710.0" r="37.57"/>
    <circle cx="720.0" cy="720.0" r="42.32"/>
    <circle cx="730.0" cy="730.0" r="46.78"/>
    <circle cx="740.0" cy="740.0" r="50.9"/>
    <circle cx="750.0" cy="750.0" r="54.65"/>
    <circle cx="760.0" cy="760.0" r="58.0"/>
    <circle cx="700.0" cy="150.0" r="5.0"/>
    <circle cx="710.0" cy="160.0" r="8.59"/>
    <circle cx="720.0" cy="170.0" r="12.14"/>
    <circle cx="730.0" cy="180.0" r="15.64"/>
    <circle cx="740.0" cy="190.0" r="19.05"/>
    <circle cx="750.0" cy="200.0" r="22.36"/>
    <circle cx="760.0" cy="210.0" r="25.52"/>
    <circle cx="770.0" cy="220.0" r="28.51"/>
    <circle cx="780.0" cy="230.0" r="31.32"/>
    <circle cx="790.0" cy="240.0" r="33.91"/>
    <circle cx="800.0" cy="250.0" r="36.27"/>
    <circle cx="810.0" cy="260.0" r="38.38"/>
    <circle cx="820.0" cy="270.0" r="40.22"/>
    <circle cx="830.0" cy="280.0" r="41.78"/>
    <circle cx="840.0" cy="290.0" r="43.04"/>
    <circle cx="850.0" cy="300.0" r="44.0"/>
    <circle cx="860.0" cy="310.0" r="44.64"/>
    <circle cx="870.0" cy="320.0" r="44.96"/>
    <circle cx="880.0" cy="330.0" r="44.96"/>
    <circle cx="890.0" cy="340.0" r="44.64"/>
    <circle cx="900.0" cy="350.0" r="44.0"/>
    <circle cx="910.0" cy="360.0" r="43.04"/>
    <circle cx="920.0" cy="370.0" r="41.78"/>
    <circle cx="930.0" cy="380.0" r="40.22"/>
    <circle cx="940.0" cy="390.0" r="38.38"/>
    <circle cx="950.0" cy="400.0" r="36.27"/>
    <circle cx="960.0" cy="410.0" r="33.91"/>
    <circle cx="970.0" cy="420.0" r="31.32"/>
    <circle cx="980.0" cy="430.0" r="28.51"/>
    <circle cx="990.0" cy="440.0" r="25.52"/>
    <circle cx="1000.0" cy="450.0" r="22.36"/>
    <circle cx="1010.0" cy="460.0" r="19.05"/>
    <circle cx="1020.0" cy="470.0" r="15.64"/>
    <circle cx="1030.0" cy="480.0" r="12.14"/>
    <circle cx="1040.0" cy="490.0" r="8.59"/>
    <circle cx="1050.0" cy="500.0" r="5.0"/>
    <circle cx="700.0" cy="300.0" r="5.0"/>
    <circle cx="710.0" cy="310.0" r="8.94"/>
    <circle cx="720.0" cy="320.0" r="12.86"/>
    <circle cx="730.0" cy="330.0" r="16.71"/>
    <circle cx="740.0" cy="340.0" r="20.46"/>
    <circle cx="750.0" cy="350.0" r="24.09"/>
    <circle cx="760.0" cy="360.0" r="27.57"/>
    <circle cx="770.0" cy="370.0" r="30.86"/>
    <circle cx="780.0" cy="380.0" r="33.95"/>
    <circle cx="790.0" cy="390.0" r="36.8"/>
    <circle cx="800.0" cy="400.0" r="39.4"/>
    <circle cx="810.0" cy="410.0" r="41.72"/>
    <circle cx="820.0" cy="420.0" r="43.75"/>
    <circle cx="830.0" cy="430.0" r="45.46"/>
    <circle cx="840.0" cy="440.0" r="46.85"/>
    <circle cx="850.0" cy="450.0" r="47.9"/>
    <circle cx="860.0" cy="460.0" r="48.6"/>
    <circle cx="870.0" cy="470.0" r="48.96"/>
    <circle cx="880.0" cy="480.0" r="48.96"/>
    <circle cx="890.0" cy="490.0" r="48.6"/>
    <circle cx="900.0" cy="500.0" r="47.9"/>
    <circle cx="910.0" cy="510.0" r="46.85"/>
    <circle cx="920.0" cy="520.0" r="45.46"/>
    <circle cx="930.0" cy="530.0" r="43.75"/>
    <circle cx="940.0" cy="540.0" r="41.72"/>
    <circle cx="950.0" cy="550.0" r="39.4"/>
    <circle cx="960.0" cy="560.0" r="36.8"/>
    <circle cx="970.0" cy="570.0" r="33.95"/>
    <circle cx="980.0" cy="580.0" r="30.86"/>
    <circle cx="990.0" cy="590.0" r="27.57"/>
    <circle cx="1000.0" cy="600.0" r="24.09"/>
    <circle cx="1010.0" cy="610.0" r="20.46"/>
    <circle cx="1020.0" cy="620.0" r="16.71"/>
    <circle cx="1030.0" cy="630.0" r="12.86"/>
    <circle cx="1040.0" cy="640.0" r="8.94"/>
    <circle cx="1050.0" cy="650.0" r="5.0"/>
    <circle cx="750.0" cy="300.0" r="5.0"/>
    <circle cx="760.0" cy="310.0" r="8.36"/>
    <circle cx="770.0" cy="320.0" r="11.7"/>
    <circle cx="780.0" cy="330.0" r="14.98"/>
    <circle cx="790.0" cy="340.0" r="18.18"/>
    <circle cx="800.0" cy="350.0" r="21.27"/>
    <circle cx="810.0" cy="360.0" r="24.23"/>
    <circle cx="820.0" cy="370.0" r="27.04"/>
    <circle cx="830.0" cy="380.0" r="29.67"/>
    <circle cx="840.0" cy="390.0" r="32.1"/>
    <circle cx="850.0" cy="400.0" r="34.32"/>
    <circle cx="860.0" cy="410.0" r="36.3"/>
    <circle cx="870.0" cy="420.0" r="38.02"/>
    <circle cx="880.0" cy="430.0" r="39.48"/>
    <circle cx="890.0" cy="440.0" r="40.66"/>
    <circle cx="900.0" cy="450.0" r="41.56"/>
    <circle cx="910.0" cy="460.0" r="42.16"/>
    <circle cx="920.0" cy="470.0" r="42.46"/>
    <circle cx="930.0" cy="480.0" r="42.46"/>
    <circle cx="940.0" cy="490.0" r="42.16"/>
    <circle cx="950.0" cy="500.0" r="41.56"/>
    <circle cx="960.0" cy="510.0" r="40.66"/>
    <circle cx="970.0" cy="520.0" r="39.48"/>
    <circle cx="980.0" cy="530.0" r="38.02"/>
    <circle cx="990.0" cy="540.0" r="36.3"/>
    <circle cx="1000.0" cy="550.0" r="34.32"/>
    <circle cx="1010.0" cy="560.0" r="32.1"/>
    <circle cx="1020.0" cy="570.0" r="29.67"/>
    <circle cx="1030.0" cy="580.0" r="27.04"/>
    <circle cx="1040.0" cy="590.0" r="24.23"/>
    <circle cx="1050.0" cy="600.0" r="21.27"/>
    <circle cx="1060.0" cy="610.0" r="18.18"/>
    <circle cx="1070.0" cy="620.0" r="14.98"/>
    <circle cx="1080.0" cy="630.0" r="11.7"/>
    <circle cx="1090.0" cy="640.0" r="8.36"/>
    <circle cx="800.0" cy="450.0" r="5.0"/>
    <circle cx="810.0" cy="460.0" r="8.9"/>
    <circle cx="820.0" cy="470.0" r="12.77"/>
    <circle cx="830.0" cy="480.0" r="16.57"/>
    <circle cx="840.0" cy="490.0" r="20.28"/>
    <circle cx="850.0" cy="500.0" r="23.87"/>
    <circle cx="860.0" cy="510.0" r="27.31"/>
    <circle cx="870.0" cy="520.0" r="30.57"/>
    <circle cx="880.0" cy="530.0" r="33.62"/>
    <circle cx="890.0" cy="540.0" r="36.44"/>
    <circle cx="900.0" cy="550.0" r="39.01"/>
    <circle cx="910.0" cy="560.0" r="41.3"/>
    <circle cx="920.0" cy="570.0" r="43.31"/>
    <circle cx="930.0" cy="580.0" r="45.0"/>
    <circle cx="940.0" cy="590.0" r="46.37"/>
    <circle cx="950.0" cy="600.0" r="47.41"/>
    <circle cx="960.0" cy="610.0" r="48.11"/>
    <circle cx="970.0" cy="620.0" r="48.46"/>
    <circle cx="980.0" cy="630.0" r="48.46"/>
    <circle cx="990.0" cy="640.0" r="48.11"/>
    <circle cx="1000.0" cy="650.0" r="47.41"/>
    <circle cx="1010.0" cy="660.0" r="46.37"/>
    <circle cx="1020.0" cy="670.0" r="45.0"/>
    <circle cx="1030.0" cy="680.0" r="43.31"/>
    <circle cx="1040.0" cy="690.0" r="41.3"/>
    <circle cx="1050.0" cy="700.0" r="39.01"/>
    <circle cx="1060.0" cy="710.0" r="36.44"/>
    <circle cx="900.0" cy="150.0" r="5.0"/>
    <circle cx="910.0" cy="160.0" r="10.15"/>
    <circle cx="920.0" cy="170.0" r="15.27"/>
    <circle cx="930.0" cy="180.0" r="20.3"/>
    <circle cx="940.0" cy="190.0" r="25.2"/>
    <circle cx="950.0" cy="200.0" r="29.95"/>
    <circle cx="960.0" cy="210.0" r="34.49"/>
    <circle cx="970.0" cy="220.0" r="38.8"/>
    <circle cx="980.0" cy="230.0" r="42.83"/>
    <circle cx="990.0" cy="240.0" r="46.56"/>
    <circle cx="1000.0" cy="250.0" r="49.96"/>
    <circle cx="1010.0" cy="260.0" r="52.99"/>
    <circle cx="1020.0" cy="270.0" r="55.63"/>
    <circle cx="1030.0" cy="280.0" r="57.87"/>
    <circle cx="1040.0" cy="290.0" r="59.69"/>
    <circle cx="900.0" cy="300.0" r="5.0"/>
    <circle cx="910.0" cy="310.0" r="9.35"/>
    <circle cx="920.0" cy="320.0" r="13.66"/>
    <circle cx="930.0" cy="330.0" r="17.9"/>
    <circle cx="940.0" cy="340.0" r="22.04"/>
    <circle cx="950.0" cy="350.0" r="26.04"/>
    <circle cx="960.0" cy="360.0" r="29.88"/>
    <circle cx="970.0" cy="370.0" r="33.51"/>
    <circle cx="980.0" cy="380.0" r="36.91"/>
    <circle cx="990.0" cy="390.0" r="40.06"/>
    <circle cx="1000.0" cy="400.0" r="42.92"/>
    <circle cx="1010.0" cy="410.0" r="45.48"/>
    <circle cx="1020.0" cy="420.0" r="47.71"/>
    <circle cx="1030.0" cy="430.0" r="49.6"/>
    <circle cx="1040.0" cy="440.0" r="51.13"/>
    <circle cx="900.0" cy="750.0" r="5.0"/>
    <circle cx="910.0" cy="760.0" r="9.48"/>
    <circle cx="920.0" cy="770.0" r="13.93"/>
    <circle cx="930.0" cy="780.0" r="18.3"/>
    <circle cx="940.0" cy="790.0" r="22.57"/>
    <circle cx="1000.0" cy="500.0" r="5.0"/>
    <circle cx="1010.0" cy="510.0" r="9.39"/>
    <circle cx="1020.0" cy="520.0" r="13.75"/>
    <circle cx="1030.0" cy="530.0" r="18.04"/>
    <circle cx="1040.0" cy="540.0" r="22.22"/>
    <circle cx="1050.0" cy="550.0" r="26.26"/>
    <circle cx="1060.0" cy="560.0" r="30.13"/>
    <circle cx="1050.0" cy="300.0" r="5.0"/>
    <circle cx="1060.0" cy="310.0" r="11.36"/>
    <circle cx="1070.0" cy="320.0" r="17.68"/>
  </g>
</svg>
