<svg version="1.1" width="1150" height="870" xmlns="http://www.w3.org/2000/svg">
  <!-- Seed: 6639803300450383061 -->
  <g stroke="black" fill="none">
    <g transform="translate(50, 319.9601593625498) scale(0.41832669322709165, 0.41832669322709165)">
      <path d="M12.5 68.75v-6.25"/>
      <path d="M47.5 68.75v-6.25"/>
      <path d="M82.5 68.75v-6.25"/>
      <path d="M117.5 68.75v-37.5m-12.5 12.5h25.0"/>
      <path d="M140.0 18.75v50m0 -12.5q0 -12.5 12.5 -12.5q12.5 0 12.5 12.5v12.5"/>
      <path d="M187.5 68.75v-25.0m0 -12.5v-6.25"/>
      <path d="M210.0 68.75v-25.0m0 12.5q0 -12.5 12.5 -12.5q12.5 0 12.5 12.5v12.5"/>
      <path d="M245.0 18.75v50m25.0 -25.0l-25.0 12.5l25.0 12.5"/>
      <path d="M292.5 68.75v-25.0m0 -12.5v-6.25"/>
      <path d="M315.0 68.75v-25.0m0 12.5q0 -12.5 12.5 -12.5q12.5 0 12.5 12.5v12.5"/>
      <path d="M375.0 56.25q0 -12.5 -12.5 -12.5q-12.5 0 -12.5 12.5q0 12.5 12.5 12.5q12.5 0 12.5 -12.5m0 -12.5v25.0q0 12.5 -12.5 12.5h-12.5"/>
      <path d="M420.0 18.75v50m0 -12.5q0 -12.5 12.5 -12.5q12.5 0 12.5 12.5v12.5"/>
      <path d="M467.5 68.75v-25.0m0 -12.5v-6.25"/>
      <path d="M490.0 68.75v-25.0m0 6.25q0 -6.25 6.25 -6.25q6.25 0 6.25 6.25v6.25m0 -6.25q0 -6.25 6.25 -6.25q6.25 0 6.25 6.25v18.75"/>
      <path d="M585.0 56.25q0 12.5 -12.5 12.5q-12.5 0 -12.5 -12.5q0 -12.5 12.5 -12.5q12.5 0 12.5 12.5m0 12.5v-25.0q0 -12.5 -12.5 -12.5h-6.25"/>
      <path d="M607.5 68.75v-37.5m-12.5 12.5h25.0"/>
      <path d="M690.0 56.25q0 12.5 -12.5 12.5q-12.5 0 -12.5 -12.5q0 -12.5 12.5 -12.5q12.5 0 12.5 12.5m0 12.5v-25.0q0 -12.5 -12.5 -12.5h-6.25"/>
      <path d="M712.5 68.75v-50"/>
      <path d="M747.5 68.75v-50"/>
      <path d="M830.0 56.25q0 12.5 -12.5 12.5q-12.5 0 -12.5 -12.5q0 -12.5 12.5 -12.5q12.5 0 12.5 12.5m0 12.5v-25.0q0 -12.5 -12.5 -12.5h-6.25"/>
      <path d="M887.5 68.75v-37.5m-12.5 12.5h25.0"/>
      <path d="M922.5 68.75v-25.0m0 -12.5v-6.25"/>
      <path d="M945.0 68.75v-25.0m0 12.5q0 -12.5 12.5 -12.5q12.5 0 12.5 12.5"/>
      <path d="M980.0 56.25h25.0q0 -12.5 -12.5 -12.5q-12.5 0 -12.5 12.5q0 12.5 12.5 12.5h12.5"/>
      <path d="M1015.0 68.75h18.75q6.25 0 6.25 -6.25q0 -6.25 -6.25 -6.25h-12.5q-6.25 0 -6.25 -6.25q0 -6.25 6.25 -6.25h18.75"/>
      <path d="M1062.5 68.75q-12.5 0 -12.5 -12.5q0 -12.5 12.5 -12.5q12.5 0 12.5 12.5q0 12.5 -12.5 12.5"/>
      <path d="M1085.0 68.75v-25.0m0 6.25q0 -6.25 6.25 -6.25q6.25 0 6.25 6.25v6.25m0 -6.25q0 -6.25 6.25 -6.25q6.25 0 6.25 6.25v18.75"/>
      <path d="M1120.0 56.25h25.0q0 -12.5 -12.5 -12.5q-12.5 0 -12.5 12.5q0 12.5 12.5 12.5h12.5"/>
      <path d="M1190.0 43.75v18.75q0 6.25 6.25 6.25q6.25 0 6.25 -6.25v-6.25m0 6.25q0 6.25 6.25 6.25q6.25 0 6.25 -6.25m0 -18.75v25.0"/>
      <path d="M1225.0 68.75v-25.0m0 12.5q0 -12.5 12.5 -12.5q12.5 0 12.5 12.5"/>
      <path d="M1260.0 56.25h25.0q0 -12.5 -12.5 -12.5q-12.5 0 -12.5 12.5q0 12.5 12.5 12.5h12.5"/>
      <path d="M1307.5 68.75v-37.5m-12.5 12.5h25.0"/>
      <path d="M1355.0 68.75h-12.5q-12.5 0 -12.5 -12.5q0 -12.5 12.5 -12.5h12.5"/>
      <path d="M1365.0 18.75v50m0 -12.5q0 -12.5 12.5 -12.5q12.5 0 12.5 12.5v12.5"/>
      <path d="M1412.5 68.75v-6.25"/>
      <path d="M1444.375 25.0v6.25m6.25 0v-6.25"/>
      <path d="M9.375 93.75v6.25m6.25 0v-6.25"/>
      <path d="M35.0 137.5v-50h12.5q12.5 0 12.5 12.5q0 12.5 -12.5 12.5h-12.5"/>
      <path d="M70.0 137.5v-25.0m0 12.5q0 -12.5 12.5 -12.5q12.5 0 12.5 12.5"/>
      <path d="M130.0 125.0q0 12.5 -12.5 12.5q-12.5 0 -12.5 -12.5q0 -12.5 12.5 -12.5q12.5 0 12.5 12.5m0 12.5v-25.0q0 -12.5 -12.5 -12.5h-6.25"/>
      <path d="M140.0 112.5l12.5 25.0m12.5 -25.0l-18.75 37.5"/>
      <path d="M181.25 137.5q6.25 0 6.25 -6.25v-6.25"/>
      <path d="M245.0 137.5v-50l12.5 50l12.5 -50v50"/>
      <path d="M280.0 137.5v-25.0m0 12.5q0 -12.5 12.5 -12.5q12.5 0 12.5 12.5"/>
      <path d="M327.5 137.5v-6.25"/>
      <path d="M385.0 137.5v-50m25.0 0l-25.0 25.0l25.0 25.0"/>
      <path d="M420.0 137.5v-25.0m0 12.5q0 -12.5 12.5 -12.5q12.5 0 12.5 12.5v12.5"/>
      <path d="M467.5 137.5v-25.0m0 -12.5v-6.25"/>
      <path d="M515.0 125.0q0 -12.5 -12.5 -12.5q-12.5 0 -12.5 12.5q0 12.5 12.5 12.5q12.5 0 12.5 -12.5m0 -12.5v25.0q0 12.5 -12.5 12.5h-12.5"/>
      <path d="M525.0 87.5v50m0 -12.5q0 -12.5 12.5 -12.5q12.5 0 12.5 12.5v12.5"/>
      <path d="M572.5 137.5v-37.5m-12.5 12.5h25.0"/>
      <path d="M607.5 137.5v-50"/>
      <path d="M630.0 125.0h25.0q0 -12.5 -12.5 -12.5q-12.5 0 -12.5 12.5q0 12.5 12.5 12.5h12.5"/>
      <path d="M665.0 112.5l12.5 25.0m12.5 -25.0l-18.75 37.5"/>
      <path d="M706.25 137.5q6.25 0 6.25 -6.25v-6.25"/>
      <path d="M744.375 93.75v6.25m6.25 0v-6.25"/>
      <path d="M805.0 137.5h18.75q6.25 0 6.25 -6.25q0 -6.25 -6.25 -6.25h-12.5q-6.25 0 -6.25 -6.25q0 -6.25 6.25 -6.25h18.75"/>
      <path d="M865.0 125.0q0 12.5 -12.5 12.5q-12.5 0 -12.5 -12.5q0 -12.5 12.5 -12.5q12.5 0 12.5 12.5m0 12.5v-25.0q0 -12.5 -12.5 -12.5h-6.25"/>
      <path d="M887.5 137.5v-25.0m0 -12.5v-6.25"/>
      <path d="M935.0 137.5v-50M935.0 125.0q0 -12.5 -12.5 -12.5q-12.5 0 -12.5 12.5q0 12.5 12.5 12.5q12.5 0 12.5 -12.5"/>
      <path d="M1005.0 137.5h-25.0v-50h25.0m-25.0 25.0h12.5"/>
      <path d="M1015.0 137.5v-25.0m0 6.25q0 -6.25 6.25 -6.25q6.25 0 6.25 6.25v6.25m0 -6.25q0 -6.25 6.25 -6.25q6.25 0 6.25 6.25v18.75"/>
      <path d="M1050.0 137.5v-25.0m0 6.25q0 -6.25 6.25 -6.25q6.25 0 6.25 6.25v6.25m0 -6.25q0 -6.25 6.25 -6.25q6.25 0 6.25 6.25v18.75"/>
      <path d="M1110.0 125.0q0 12.5 -12.5 12.5q-12.5 0 -12.5 -12.5q0 -12.5 12.5 -12.5q12.5 0 12.5 12.5m0 12.5v-25.0q0 -12.5 -12.5 -12.5h-6.25"/>
      <path d="M1126.25 137.5q6.25 0 6.25 -6.25v-6.25"/>
      <path d="M1190.0 112.5v18.75q0 6.25 6.25 6.25q6.25 0 6.25 -6.25v-6.25m0 6.25q0 6.25 6.25 6.25q6.25 0 6.25 -6.25m0 -18.75v25.0"/>
      <path d="M1225.0 87.5v50m0 -12.5q0 -12.5 12.5 -12.5q12.5 0 12.5 12.5v12.5"/>
      <path d="M1272.5 137.5q-12.5 0 -12.5 -12.5q0 -12.5 12.5 -12.5q12.5 0 12.5 12.5q0 12.5 -12.5 12.5"/>
      <path d="M1330.0 87.5v50m0 -12.5q0 -12.5 12.5 -12.5q12.5 0 12.5 12.5v12.5"/>
      <path d="M1390.0 125.0q0 12.5 -12.5 12.5q-12.5 0 -12.5 -12.5q0 -12.5 12.5 -12.5q12.5 0 12.5 12.5m0 12.5v-25.0q0 -12.5 -12.5 -12.5h-6.25"/>
      <path d="M1425.0 137.5v-50M1425.0 125.0q0 -12.5 -12.5 -12.5q-12.5 0 -12.5 12.5q0 12.5 12.5 12.5q12.5 0 12.5 -12.5"/>
      <path d="M1470.0 137.5v-50M1470.0 125.0q0 -12.5 12.5 -12.5q12.5 0 12.5 12.5q0 12.5 -12.5 12.5q-12.5 0 -12.5 -12.5"/>
      <path d="M1505.0 125.0h25.0q0 -12.5 -12.5 -12.5q-12.5 0 -12.5 12.5q0 12.5 12.5 12.5h12.5"/>
      <path d="M1540.0 125.0h25.0q0 -12.5 -12.5 -12.5q-12.5 0 -12.5 12.5q0 12.5 12.5 12.5h12.5"/>
      <path d="M1575.0 137.5v-25.0m0 12.5q0 -12.5 12.5 -12.5q12.5 0 12.5 12.5v12.5"/>
      <path d="M1645.0 137.5h18.75q6.25 0 6.25 -6.25q0 -6.25 -6.25 -6.25h-12.5q-6.25 0 -6.25 -6.25q0 -6.25 6.25 -6.25h18.75"/>
      <path d="M1680.0 137.5v-25.0m0 6.25q0 -6.25 6.25 -6.25q6.25 0 6.25 6.25v6.25m0 -6.25q0 -6.25 6.25 -6.25q6.25 0 6.25 6.25v18.75"/>
      <path d="M1727.5 137.5v-25.0m0 -12.5v-6.25"/>
      <path d="M1762.5 137.5v-50"/>
      <path d="M1797.5 137.5v-25.0m0 -12.5v-6.25"/>
      <path d="M1820.0 137.5v-25.0m0 12.5q0 -12.5 12.5 -12.5q12.5 0 12.5 12.5v12.5"/>
      <path d="M1880.0 125.0q0 -12.5 -12.5 -12.5q-12.5 0 -12.5 12.5q0 12.5 12.5 12.5q12.5 0 12.5 -12.5m0 -12.5v25.0q0 12.5 -12.5 12.5h-12.5"/>
      <path d="M1937.5 137.5v-37.5m-12.5 12.5h25.0"/>
      <path d="M1972.5 137.5q-12.5 0 -12.5 -12.5q0 -12.5 12.5 -12.5q12.5 0 12.5 12.5q0 12.5 -12.5 12.5"/>
      <path d="M2030.0 87.5v50m0 -12.5q0 -12.5 12.5 -12.5q12.5 0 12.5 12.5v12.5"/>
      <path d="M2065.0 125.0h25.0q0 -12.5 -12.5 -12.5q-12.5 0 -12.5 12.5q0 12.5 12.5 12.5h12.5"/>
      <path d="M2100.0 137.5v-25.0m0 12.5q0 -12.5 12.5 -12.5q12.5 0 12.5 12.5"/>
      <path d="M2135.0 137.5h18.75q6.25 0 6.25 -6.25q0 -6.25 -6.25 -6.25h-12.5q-6.25 0 -6.25 -6.25q0 -6.25 6.25 -6.25h18.75"/>
      <path d="M2170.0 125.0h25.0q0 -12.5 -12.5 -12.5q-12.5 0 -12.5 12.5q0 12.5 12.5 12.5h12.5"/>
      <path d="M2217.5 137.5v-50"/>
      <path d="M2252.5 137.5v-37.5q0 -12.5 12.5 -12.5m-25.0 25.0h25.0"/>
      <path d="M12.5 206.25v-37.5m-12.5 12.5h25.0"/>
      <path d="M35.0 156.25v50m0 -12.5q0 -12.5 12.5 -12.5q12.5 0 12.5 12.5v12.5"/>
      <path d="M70.0 206.25v-25.0m0 12.5q0 -12.5 12.5 -12.5q12.5 0 12.5 12.5"/>
      <path d="M117.5 206.25q-12.5 0 -12.5 -12.5q0 -12.5 12.5 -12.5q12.5 0 12.5 12.5q0 12.5 -12.5 12.5"/>
      <path d="M140.0 181.25v12.5q0 12.5 12.5 12.5q12.5 0 12.5 -12.5m0 12.5v-25.0"/>
      <path d="M200.0 193.75q0 -12.5 -12.5 -12.5q-12.5 0 -12.5 12.5q0 12.5 12.5 12.5q12.5 0 12.5 -12.5m0 -12.5v25.0q0 12.5 -12.5 12.5h-12.5"/>
      <path d="M210.0 156.25v50m0 -12.5q0 -12.5 12.5 -12.5q12.5 0 12.5 12.5v12.5"/>
      <path d="M305.0 193.75q0 12.5 -12.5 12.5q-12.5 0 -12.5 -12.5q0 -12.5 12.5 -12.5q12.5 0 12.5 12.5m0 12.5v-25.0q0 -12.5 -12.5 -12.5h-6.25"/>
      <path d="M375.0 193.75q0 -12.5 -12.5 -12.5q-12.5 0 -12.5 12.5q0 12.5 12.5 12.5q12.5 0 12.5 -12.5m0 -12.5v25.0q0 12.5 -12.5 12.5h-12.5"/>
      <path d="M385.0 206.25v-25.0m0 12.5q0 -12.5 12.5 -12.5q12.5 0 12.5 12.5"/>
      <path d="M420.0 193.75h25.0q0 -12.5 -12.5 -12.5q-12.5 0 -12.5 12.5q0 12.5 12.5 12.5h12.5"/>
      <path d="M480.0 193.75q0 12.5 -12.5 12.5q-12.5 0 -12.5 -12.5q0 -12.5 12.5 -12.5q12.5 0 12.5 12.5m0 12.5v-25.0q0 -12.5 -12.5 -12.5h-6.25"/>
      <path d="M502.5 206.25v-37.5m-12.5 12.5h25.0"/>
      <path d="M560.0 193.75q0 -12.5 12.5 -12.5q12.5 0 12.5 12.5q0 12.5 -12.5 12.5q-12.5 0 -12.5 -12.5m0 -12.5v37.5"/>
      <path d="M620.0 193.75q0 12.5 -12.5 12.5q-12.5 0 -12.5 -12.5q0 -12.5 12.5 -12.5q12.5 0 12.5 12.5m0 12.5v-25.0q0 -12.5 -12.5 -12.5h-6.25"/>
      <path d="M630.0 206.25v-25.0m0 12.5q0 -12.5 12.5 -12.5q12.5 0 12.5 12.5"/>
      <path d="M677.5 206.25v-37.5m-12.5 12.5h25.0"/>
      <path d="M747.5 206.25q-12.5 0 -12.5 -12.5q0 -12.5 12.5 -12.5q12.5 0 12.5 12.5q0 12.5 -12.5 12.5"/>
      <path d="M782.5 206.25v-37.5q0 -12.5 12.5 -12.5m-25.0 25.0h25.0"/>
      <path d="M852.5 206.25v-37.5m-12.5 12.5h25.0"/>
      <path d="M875.0 156.25v50m0 -12.5q0 -12.5 12.5 -12.5q12.5 0 12.5 12.5v12.5"/>
      <path d="M922.5 206.25v-25.0m0 -12.5v-6.25"/>
      <path d="M945.0 206.25h18.75q6.25 0 6.25 -6.25q0 -6.25 -6.25 -6.25h-12.5q-6.25 0 -6.25 -6.25q0 -6.25 6.25 -6.25h18.75"/>
      <path d="M1015.0 206.25h18.75q6.25 0 6.25 -6.25q0 -6.25 -6.25 -6.25h-12.5q-6.25 0 -6.25 -6.25q0 -6.25 6.25 -6.25h18.75"/>
      <path d="M1050.0 193.75q0 -12.5 12.5 -12.5q12.5 0 12.5 12.5q0 12.5 -12.5 12.5q-12.5 0 -12.5 -12.5m0 -12.5v37.5"/>
      <path d="M1085.0 193.75h25.0q0 -12.5 -12.5 -12.5q-12.5 0 -12.5 12.5q0 12.5 12.5 12.5h12.5"/>
      <path d="M1120.0 193.75h25.0q0 -12.5 -12.5 -12.5q-12.5 0 -12.5 12.5q0 12.5 12.5 12.5h12.5"/>
      <path d="M1180.0 206.25h-12.5q-12.5 0 -12.5 -12.5q0 -12.5 12.5 -12.5h12.5"/>
      <path d="M1190.0 156.25v50m0 -12.5q0 -12.5 12.5 -12.5q12.5 0 12.5 12.5v12.5"/>
      <path d="M1231.25 206.25q6.25 0 6.25 -6.25v-6.25"/>
      <path d="M1304.375 162.5v6.25m6.25 0v-6.25"/>
      <path d="M1330.0 156.25v50m0 -12.5q0 -12.5 12.5 -12.5q12.5 0 12.5 12.5v12.5"/>
      <path d="M1377.5 206.25q-12.5 0 -12.5 -12.5q0 -12.5 12.5 -12.5q12.5 0 12.5 12.5q0 12.5 -12.5 12.5"/>
      <path d="M1400.0 181.25v18.75q0 6.25 6.25 6.25q6.25 0 6.25 -6.25v-6.25m0 6.25q0 6.25 6.25 6.25q6.25 0 6.25 -6.25m0 -18.75v25.0"/>
      <path d="M1495.0 206.25v-50M1495.0 193.75q0 -12.5 -12.5 -12.5q-12.5 0 -12.5 12.5q0 12.5 12.5 12.5q12.5 0 12.5 -12.5"/>
      <path d="M1517.5 206.25q-12.5 0 -12.5 -12.5q0 -12.5 12.5 -12.5q12.5 0 12.5 12.5q0 12.5 -12.5 12.5"/>
      <path d="M1575.0 181.25l12.5 25.0m12.5 -25.0l-18.75 37.5"/>
      <path d="M1622.5 206.25q-12.5 0 -12.5 -12.5q0 -12.5 12.5 -12.5q12.5 0 12.5 12.5q0 12.5 -12.5 12.5"/>
      <path d="M1645.0 181.25v12.5q0 12.5 12.5 12.5q12.5 0 12.5 -12.5m0 12.5v-25.0"/>
      <path d="M1715.0 156.25v50m25.0 -25.0l-25.0 12.5l25.0 12.5"/>
      <path d="M1750.0 206.25v-25.0m0 12.5q0 -12.5 12.5 -12.5q12.5 0 12.5 12.5v12.5"/>
      <path d="M1797.5 206.25q-12.5 0 -12.5 -12.5q0 -12.5 12.5 -12.5q12.5 0 12.5 12.5q0 12.5 -12.5 12.5"/>
      <path d="M1820.0 181.25v18.75q0 6.25 6.25 6.25q6.25 0 6.25 -6.25v-6.25m0 6.25q0 6.25 6.25 6.25q6.25 0 6.25 -6.25m0 -18.75v25.0"/>
      <path d="M1902.5 206.25v-37.5m-12.5 12.5h25.0"/>
      <path d="M1925.0 156.25v50m0 -12.5q0 -12.5 12.5 -12.5q12.5 0 12.5 12.5v12.5"/>
      <path d="M1985.0 193.75q0 12.5 -12.5 12.5q-12.5 0 -12.5 -12.5q0 -12.5 12.5 -12.5q12.5 0 12.5 12.5m0 12.5v-25.0q0 -12.5 -12.5 -12.5h-6.25"/>
      <path d="M2007.5 206.25v-37.5m-12.5 12.5h25.0"/>
      <path d="M2065.0 206.25v-50l12.5 50l12.5 -50v50"/>
      <path d="M2100.0 206.25v-25.0m0 12.5q0 -12.5 12.5 -12.5q12.5 0 12.5 12.5"/>
      <path d="M2147.5 206.25v-6.25"/>
      <path d="M2205.0 206.25v-50l12.5 50l12.5 -50v50"/>
      <path d="M2265.0 193.75q0 12.5 -12.5 12.5q-12.5 0 -12.5 -12.5q0 -12.5 12.5 -12.5q12.5 0 12.5 12.5m0 12.5v-25.0q0 -12.5 -12.5 -12.5h-6.25"/>
      <path d="M2275.0 206.25v-25.0m0 12.5q0 -12.5 12.5 -12.5q12.5 0 12.5 12.5"/>
      <path d="M2322.5 206.25v-37.5m-12.5 12.5h25.0"/>
      <path d="M2357.5 206.25v-25.0m0 -12.5v-6.25"/>
      <path d="M2380.0 206.25v-25.0m0 12.5q0 -12.5 12.5 -12.5q12.5 0 12.5 12.5v12.5"/>
      <path d="M25.0 275.0v-50M25.0 262.5q0 -12.5 -12.5 -12.5q-12.5 0 -12.5 12.5q0 12.5 12.5 12.5q12.5 0 12.5 -12.5"/>
      <path d="M47.5 275.0v-25.0m0 -12.5v-6.25"/>
      <path d="M95.0 275.0v-50M95.0 262.5q0 -12.5 -12.5 -12.5q-12.5 0 -12.5 12.5q0 12.5 12.5 12.5q12.5 0 12.5 -12.5"/>
      <path d="M140.0 275.0v-25.0m0 12.5q0 -12.5 12.5 -12.5q12.5 0 12.5 12.5v12.5"/>
      <path d="M187.5 275.0q-12.5 0 -12.5 -12.5q0 -12.5 12.5 -12.5q12.5 0 12.5 12.5q0 12.5 -12.5 12.5"/>
      <path d="M222.5 275.0v-37.5m-12.5 12.5h25.0"/>
      <path d="M280.0 275.0h18.75q6.25 0 6.25 -6.25q0 -6.25 -6.25 -6.25h-12.5q-6.25 0 -6.25 -6.25q0 -6.25 6.25 -6.25h18.75"/>
      <path d="M315.0 262.5q0 -12.5 12.5 -12.5q12.5 0 12.5 12.5q0 12.5 -12.5 12.5q-12.5 0 -12.5 -12.5m0 -12.5v37.5"/>
      <path d="M350.0 262.5h25.0q0 -12.5 -12.5 -12.5q-12.5 0 -12.5 12.5q0 12.5 12.5 12.5h12.5"/>
      <path d="M410.0 262.5q0 12.5 -12.5 12.5q-12.5 0 -12.5 -12.5q0 -12.5 12.5 -12.5q12.5 0 12.5 12.5m0 12.5v-25.0q0 -12.5 -12.5 -12.5h-6.25"/>
      <path d="M420.0 225.0v50m25.0 -25.0l-25.0 12.5l25.0 12.5"/>
      <path d="M490.0 250.0l12.5 25.0m12.5 -25.0l-18.75 37.5"/>
      <path d="M525.0 262.5h25.0q0 -12.5 -12.5 -12.5q-12.5 0 -12.5 12.5q0 12.5 12.5 12.5h12.5"/>
      <path d="M560.0 275.0h18.75q6.25 0 6.25 -6.25q0 -6.25 -6.25 -6.25h-12.5q-6.25 0 -6.25 -6.25q0 -6.25 6.25 -6.25h18.75"/>
      <path d="M607.5 275.0v-37.5m-12.5 12.5h25.0"/>
      <path d="M630.0 262.5h25.0q0 -12.5 -12.5 -12.5q-12.5 0 -12.5 12.5q0 12.5 12.5 12.5h12.5"/>
      <path d="M665.0 275.0v-25.0m0 12.5q0 -12.5 12.5 -12.5q12.5 0 12.5 12.5"/>
      <path d="M725.0 275.0v-50M725.0 262.5q0 -12.5 -12.5 -12.5q-12.5 0 -12.5 12.5q0 12.5 12.5 12.5q12.5 0 12.5 -12.5"/>
      <path d="M760.0 262.5q0 12.5 -12.5 12.5q-12.5 0 -12.5 -12.5q0 -12.5 12.5 -12.5q12.5 0 12.5 12.5m0 12.5v-25.0q0 -12.5 -12.5 -12.5h-6.25"/>
      <path d="M770.0 250.0l12.5 25.0m12.5 -25.0l-18.75 37.5"/>
      <path d="M817.5 275.0v-6.25m0 -12.5v-6.25q0 -6.25 6.25 -6.25q6.25 0 6.25 -6.25v-6.25q0 -6.25 -6.25 -6.25h-12.5q-6.25 0 -6.25 6.25v6.25"/>
      <path d="M849.375 231.25v6.25m6.25 0v-6.25"/>
      <path d="M9.375 300.0v6.25m6.25 0v-6.25"/>
      <path d="M60.0 343.75h-12.5q-12.5 0 -12.5 -12.5v-25.0q0 -12.5 12.5 -12.5h12.5"/>
      <path d="M70.0 331.25h25.0q0 -12.5 -12.5 -12.5q-12.5 0 -12.5 12.5q0 12.5 12.5 12.5h12.5"/>
      <path d="M105.0 343.75v-25.0m0 12.5q0 -12.5 12.5 -12.5q12.5 0 12.5 12.5"/>
      <path d="M152.5 343.75v-37.5m-12.5 12.5h25.0"/>
      <path d="M200.0 331.25q0 12.5 -12.5 12.5q-12.5 0 -12.5 -12.5q0 -12.5 12.5 -12.5q12.5 0 12.5 12.5m0 12.5v-25.0q0 -12.5 -12.5 -12.5h-6.25"/>
      <path d="M222.5 343.75v-25.0m0 -12.5v-6.25"/>
      <path d="M245.0 343.75v-25.0m0 12.5q0 -12.5 12.5 -12.5q12.5 0 12.5 12.5v12.5"/>
      <path d="M292.5 343.75v-50"/>
      <path d="M315.0 318.75l12.5 25.0m12.5 -25.0l-18.75 37.5"/>
      <path d="M356.25 343.75q6.25 0 6.25 -6.25v-6.25"/>
      <path d="M394.375 300.0v6.25m6.25 0v-6.25"/>
      <path d="M455.0 343.75v-25.0m0 12.5q0 -12.5 12.5 -12.5q12.5 0 12.5 12.5"/>
      <path d="M490.0 331.25h25.0q0 -12.5 -12.5 -12.5q-12.5 0 -12.5 12.5q0 12.5 12.5 12.5h12.5"/>
      <path d="M525.0 331.25q0 -12.5 12.5 -12.5q12.5 0 12.5 12.5q0 12.5 -12.5 12.5q-12.5 0 -12.5 -12.5m0 -12.5v37.5"/>
      <path d="M572.5 343.75v-50"/>
      <path d="M607.5 343.75v-25.0m0 -12.5v-6.25"/>
      <path d="M630.0 331.25h25.0q0 -12.5 -12.5 -12.5q-12.5 0 -12.5 12.5q0 12.5 12.5 12.5h12.5"/>
      <path d="M690.0 343.75v-50M690.0 331.25q0 -12.5 -12.5 -12.5q-12.5 0 -12.5 12.5q0 12.5 12.5 12.5q12.5 0 12.5 -12.5"/>
      <path d="M735.0 293.75v50m0 -12.5q0 -12.5 12.5 -12.5q12.5 0 12.5 12.5v12.5"/>
      <path d="M770.0 331.25h25.0q0 -12.5 -12.5 -12.5q-12.5 0 -12.5 12.5q0 12.5 12.5 12.5h12.5"/>
      <path d="M811.25 343.75q6.25 0 6.25 -6.25v-6.25"/>
      <path d="M875.0 343.75h18.75q6.25 0 6.25 -6.25q0 -6.25 -6.25 -6.25h-12.5q-6.25 0 -6.25 -6.25q0 -6.25 6.25 -6.25h18.75"/>
      <path d="M910.0 318.75v12.5q0 12.5 12.5 12.5q12.5 0 12.5 -12.5m0 12.5v-25.0"/>
      <path d="M945.0 343.75v-25.0m0 12.5q0 -12.5 12.5 -12.5q12.5 0 12.5 12.5"/>
      <path d="M980.0 331.25q0 -12.5 12.5 -12.5q12.5 0 12.5 12.5q0 12.5 -12.5 12.5q-12.5 0 -12.5 -12.5m0 -12.5v37.5"/>
      <path d="M1015.0 343.75v-25.0m0 12.5q0 -12.5 12.5 -12.5q12.5 0 12.5 12.5"/>
      <path d="M1062.5 343.75v-25.0m0 -12.5v-6.25"/>
      <path d="M1110.0 343.75h-25.0l25.0 -25.0h-25.0"/>
      <path d="M1120.0 331.25h25.0q0 -12.5 -12.5 -12.5q-12.5 0 -12.5 12.5q0 12.5 12.5 12.5h12.5"/>
      <path d="M1180.0 343.75v-50M1180.0 331.25q0 -12.5 -12.5 -12.5q-12.5 0 -12.5 12.5q0 12.5 12.5 12.5q12.5 0 12.5 -12.5"/>
      <path d="M1196.25 343.75q6.25 0 6.25 -6.25v-6.25"/>
      <path d="M1269.375 300.0v6.25m6.25 0v-6.25"/>
      <path d="M1295.0 343.75h25.0m-12.5 0v-50m-12.5 0h25.0"/>
      <path d="M1390.0 343.75v-50M1390.0 331.25q0 -12.5 -12.5 -12.5q-12.5 0 -12.5 12.5q0 12.5 12.5 12.5q12.5 0 12.5 -12.5"/>
      <path d="M1412.5 343.75q-12.5 0 -12.5 -12.5q0 -12.5 12.5 -12.5q12.5 0 12.5 12.5q0 12.5 -12.5 12.5"/>
      <path d="M1470.0 343.75v-25.0m0 12.5q0 -12.5 12.5 -12.5q12.5 0 12.5 12.5v12.5"/>
      <path d="M1517.5 343.75q-12.5 0 -12.5 -12.5q0 -12.5 12.5 -12.5q12.5 0 12.5 12.5q0 12.5 -12.5 12.5"/>
      <path d="M1552.5 343.75v-37.5m-12.5 12.5h25.0"/>
      <path d="M1635.0 331.25q0 12.5 -12.5 12.5q-12.5 0 -12.5 -12.5q0 -12.5 12.5 -12.5q12.5 0 12.5 12.5m0 12.5v-25.0q0 -12.5 -12.5 -12.5h-6.25"/>
      <path d="M1645.0 343.75v-50M1645.0 331.25q0 -12.5 12.5 -12.5q12.5 0 12.5 12.5q0 12.5 -12.5 12.5q-12.5 0 -12.5 -12.5"/>
      <path d="M1680.0 343.75h18.75q6.25 0 6.25 -6.25q0 -6.25 -6.25 -6.25h-12.5q-6.25 0 -6.25 -6.25q0 -6.25 6.25 -6.25h18.75"/>
      <path d="M1727.5 343.75q-12.5 0 -12.5 -12.5q0 -12.5 12.5 -12.5q12.5 0 12.5 12.5q0 12.5 -12.5 12.5"/>
      <path d="M1762.5 343.75v-50"/>
      <path d="M1785.0 318.75v12.5q0 12.5 12.5 12.5q12.5 0 12.5 -12.5m0 12.5v-25.0"/>
      <path d="M1832.5 343.75v-37.5m-12.5 12.5h25.0"/>
      <path d="M1855.0 331.25h25.0q0 -12.5 -12.5 -12.5q-12.5 0 -12.5 12.5q0 12.5 12.5 12.5h12.5"/>
      <path d="M1902.5 343.75v-50"/>
      <path d="M1925.0 318.75l12.5 25.0m12.5 -25.0l-18.75 37.5"/>
      <path d="M1995.0 293.75v50m25.0 -25.0l-25.0 12.5l25.0 12.5"/>
      <path d="M2030.0 343.75v-25.0m0 12.5q0 -12.5 12.5 -12.5q12.5 0 12.5 12.5v12.5"/>
      <path d="M2077.5 343.75q-12.5 0 -12.5 -12.5q0 -12.5 12.5 -12.5q12.5 0 12.5 12.5q0 12.5 -12.5 12.5"/>
      <path d="M2100.0 318.75v18.75q0 6.25 6.25 6.25q6.25 0 6.25 -6.25v-6.25m0 6.25q0 6.25 6.25 6.25q6.25 0 6.25 -6.25m0 -18.75v25.0"/>
      <path d="M2182.5 343.75v-25.0m0 -12.5v-6.25"/>
      <path d="M2217.5 343.75v-37.5m-12.5 12.5h25.0"/>
      <path d="M2246.25 343.75q6.25 0 6.25 -6.25v-6.25m0 -12.5v-6.25"/>
      <path d="M2310.0 343.75v-50M2310.0 331.25q0 -12.5 12.5 -12.5q12.5 0 12.5 12.5q0 12.5 -12.5 12.5q-12.5 0 -12.5 -12.5"/>
      <path d="M2345.0 318.75v12.5q0 12.5 12.5 12.5q12.5 0 12.5 -12.5m0 12.5v-25.0"/>
      <path d="M2392.5 343.75v-37.5m-12.5 12.5h25.0"/>
      <path d="M12.5 412.5v-25.0m0 -12.5v-6.25"/>
      <path d="M47.5 412.5v-37.5m-12.5 12.5h25.0"/>
      <path d="M105.0 412.5v-25.0m0 6.25q0 -6.25 6.25 -6.25q6.25 0 6.25 6.25v6.25m0 -6.25q0 -6.25 6.25 -6.25q6.25 0 6.25 6.25v18.75"/>
      <path d="M165.0 400.0q0 12.5 -12.5 12.5q-12.5 0 -12.5 -12.5q0 -12.5 12.5 -12.5q12.5 0 12.5 12.5m0 12.5v-25.0q0 -12.5 -12.5 -12.5h-6.25"/>
      <path d="M175.0 387.5l12.5 25.0m12.5 -25.0l-18.75 37.5"/>
      <path d="M245.0 412.5v-50M245.0 400.0q0 -12.5 12.5 -12.5q12.5 0 12.5 12.5q0 12.5 -12.5 12.5q-12.5 0 -12.5 -12.5"/>
      <path d="M280.0 400.0h25.0q0 -12.5 -12.5 -12.5q-12.5 0 -12.5 12.5q0 12.5 12.5 12.5h12.5"/>
      <path d="M362.5 412.5v-25.0m0 -12.5v-6.25"/>
      <path d="M385.0 412.5v-25.0m0 12.5q0 -12.5 12.5 -12.5q12.5 0 12.5 12.5v12.5"/>
      <path d="M432.5 412.5v-37.5q0 -12.5 12.5 -12.5m-25.0 25.0h25.0"/>
      <path d="M455.0 400.0h25.0q0 -12.5 -12.5 -12.5q-12.5 0 -12.5 12.5q0 12.5 12.5 12.5h12.5"/>
      <path d="M490.0 412.5v-25.0m0 12.5q0 -12.5 12.5 -12.5q12.5 0 12.5 12.5"/>
      <path d="M525.0 412.5v-25.0m0 12.5q0 -12.5 12.5 -12.5q12.5 0 12.5 12.5"/>
      <path d="M560.0 400.0h25.0q0 -12.5 -12.5 -12.5q-12.5 0 -12.5 12.5q0 12.5 12.5 12.5h12.5"/>
      <path d="M620.0 412.5v-50M620.0 400.0q0 -12.5 -12.5 -12.5q-12.5 0 -12.5 12.5q0 12.5 12.5 12.5q12.5 0 12.5 -12.5"/>
      <path d="M642.5 412.5v-6.25"/>
      <path d="M700.0 362.5l6.25 50l6.25 -25.0l6.25 25.0l6.25 -50"/>
      <path d="M760.0 400.0q0 12.5 -12.5 12.5q-12.5 0 -12.5 -12.5q0 -12.5 12.5 -12.5q12.5 0 12.5 12.5m0 12.5v-25.0q0 -12.5 -12.5 -12.5h-6.25"/>
      <path d="M770.0 412.5h18.75q6.25 0 6.25 -6.25q0 -6.25 -6.25 -6.25h-12.5q-6.25 0 -6.25 -6.25q0 -6.25 6.25 -6.25h18.75"/>
      <path d="M840.0 412.5v-25.0m0 12.5q0 -12.5 12.5 -12.5q12.5 0 12.5 12.5v12.5"/>
      <path d="M887.5 412.5q-12.5 0 -12.5 -12.5q0 -12.5 12.5 -12.5q12.5 0 12.5 12.5q0 12.5 -12.5 12.5"/>
      <path d="M922.5 412.5v-37.5m-12.5 12.5h25.0"/>
      <path d="M980.0 412.5h18.75q6.25 0 6.25 -6.25q0 -6.25 -6.25 -6.25h-12.5q-6.25 0 -6.25 -6.25q0 -6.25 6.25 -6.25h18.75"/>
      <path d="M1015.0 362.5v50m0 -12.5q0 -12.5 12.5 -12.5q12.5 0 12.5 12.5v12.5"/>
      <path d="M1050.0 400.0h25.0q0 -12.5 -12.5 -12.5q-12.5 0 -12.5 12.5q0 12.5 12.5 12.5h12.5"/>
      <path d="M1132.5 412.5v-37.5m-12.5 12.5h25.0"/>
      <path d="M1155.0 362.5v50m0 -12.5q0 -12.5 12.5 -12.5q12.5 0 12.5 12.5v12.5"/>
      <path d="M1190.0 400.0h25.0q0 -12.5 -12.5 -12.5q-12.5 0 -12.5 12.5q0 12.5 12.5 12.5h12.5"/>
      <path d="M1260.0 387.5v18.75q0 6.25 6.25 6.25q6.25 0 6.25 -6.25v-6.25m0 6.25q0 6.25 6.25 6.25q6.25 0 6.25 -6.25m0 -18.75v25.0"/>
      <path d="M1295.0 362.5v50m0 -12.5q0 -12.5 12.5 -12.5q12.5 0 12.5 12.5v12.5"/>
      <path d="M1342.5 412.5q-12.5 0 -12.5 -12.5q0 -12.5 12.5 -12.5q12.5 0 12.5 12.5q0 12.5 -12.5 12.5"/>
      <path d="M1377.5 412.5v-50"/>
      <path d="M1400.0 400.0h25.0q0 -12.5 -12.5 -12.5q-12.5 0 -12.5 12.5q0 12.5 12.5 12.5h12.5"/>
      <path d="M1495.0 412.5v-50M1495.0 400.0q0 -12.5 -12.5 -12.5q-12.5 0 -12.5 12.5q0 12.5 12.5 12.5q12.5 0 12.5 -12.5"/>
      <path d="M1530.0 400.0q0 12.5 -12.5 12.5q-12.5 0 -12.5 -12.5q0 -12.5 12.5 -12.5q12.5 0 12.5 12.5m0 12.5v-25.0q0 -12.5 -12.5 -12.5h-6.25"/>
      <path d="M1540.0 387.5l12.5 25.0m12.5 -25.0l-18.75 37.5"/>
      <path d="M1610.0 387.5v18.75q0 6.25 6.25 6.25q6.25 0 6.25 -6.25v-6.25m0 6.25q0 6.25 6.25 6.25q6.25 0 6.25 -6.25m0 -18.75v25.0"/>
      <path d="M1657.5 412.5v-25.0m0 -12.5v-6.25"/>
      <path d="M1692.5 412.5v-37.5m-12.5 12.5h25.0"/>
      <path d="M1715.0 362.5v50m0 -12.5q0 -12.5 12.5 -12.5q12.5 0 12.5 12.5v12.5"/>
      <path d="M1785.0 387.5l12.5 25.0m12.5 -25.0l-18.75 37.5"/>
      <path d="M1832.5 412.5q-12.5 0 -12.5 -12.5q0 -12.5 12.5 -12.5q12.5 0 12.5 12.5q0 12.5 -12.5 12.5"/>
      <path d="M1855.0 387.5v12.5q0 12.5 12.5 12.5q12.5 0 12.5 -12.5m0 12.5v-25.0"/>
      <path d="M1902.5 412.5v-6.25m0 -12.5v-6.25q0 -6.25 6.25 -6.25q6.25 0 6.25 -6.25v-6.25q0 -6.25 -6.25 -6.25h-12.5q-6.25 0 -6.25 6.25v6.25"/>
      <path d="M1934.375 368.75v6.25m6.25 0v-6.25"/>
      <path d="M9.375 437.5v6.25m6.25 0v-6.25"/>
      <path d="M60.0 481.25h-12.5q-12.5 0 -12.5 -12.5v-25.0q0 -12.5 12.5 -12.5h12.5"/>
      <path d="M82.5 481.25q-12.5 0 -12.5 -12.5q0 -12.5 12.5 -12.5q12.5 0 12.5 12.5q0 12.5 -12.5 12.5"/>
      <path d="M105.0 481.25v-25.0m0 6.25q0 -6.25 6.25 -6.25q6.25 0 6.25 6.25v6.25m0 -6.25q0 -6.25 6.25 -6.25q6.25 0 6.25 6.25v18.75"/>
      <path d="M140.0 468.75h25.0q0 -12.5 -12.5 -12.5q-12.5 0 -12.5 12.5q0 12.5 12.5 12.5h12.5"/>
      <path d="M181.25 481.25q6.25 0 6.25 -6.25v-6.25"/>
      <path d="M219.375 437.5v6.25m6.25 0v-6.25"/>
      <path d="M280.0 481.25h18.75q6.25 0 6.25 -6.25q0 -6.25 -6.25 -6.25h-12.5q-6.25 0 -6.25 -6.25q0 -6.25 6.25 -6.25h18.75"/>
      <path d="M340.0 468.75q0 12.5 -12.5 12.5q-12.5 0 -12.5 -12.5q0 -12.5 12.5 -12.5q12.5 0 12.5 12.5m0 12.5v-25.0q0 -12.5 -12.5 -12.5h-6.25"/>
      <path d="M362.5 481.25v-25.0m0 -12.5v-6.25"/>
      <path d="M410.0 481.25v-50M410.0 468.75q0 -12.5 -12.5 -12.5q-12.5 0 -12.5 12.5q0 12.5 12.5 12.5q12.5 0 12.5 -12.5"/>
      <path d="M455.0 481.25h18.75q6.25 0 6.25 -6.25q0 -6.25 -6.25 -6.25h-12.5q-6.25 0 -6.25 -6.25q0 -6.25 6.25 -6.25h18.75"/>
      <path d="M490.0 431.25v50m0 -12.5q0 -12.5 12.5 -12.5q12.5 0 12.5 12.5v12.5"/>
      <path d="M525.0 468.75h25.0q0 -12.5 -12.5 -12.5q-12.5 0 -12.5 12.5q0 12.5 12.5 12.5h12.5"/>
      <path d="M566.25 481.25q6.25 0 6.25 -6.25v-6.25"/>
      <path d="M639.375 437.5v6.25m6.25 0v-6.25"/>
      <path d="M665.0 481.25h25.0m-12.5 0v-50m-12.5 0h25.0"/>
      <path d="M735.0 456.25v18.75q0 6.25 6.25 6.25q6.25 0 6.25 -6.25v-6.25m0 6.25q0 6.25 6.25 6.25q6.25 0 6.25 -6.25m0 -18.75v25.0"/>
      <path d="M782.5 481.25v-25.0m0 -12.5v-6.25"/>
      <path d="M817.5 481.25v-50"/>
      <path d="M852.5 481.25v-50"/>
      <path d="M922.5 481.25v-37.5m-12.5 12.5h25.0"/>
      <path d="M945.0 468.75h25.0q0 -12.5 -12.5 -12.5q-12.5 0 -12.5 12.5q0 12.5 12.5 12.5h12.5"/>
      <path d="M992.5 481.25v-50"/>
      <path d="M1027.5 481.25v-50"/>
      <path d="M1085.0 456.25l12.5 25.0m12.5 -25.0l-18.75 37.5"/>
      <path d="M1132.5 481.25q-12.5 0 -12.5 -12.5q0 -12.5 12.5 -12.5q12.5 0 12.5 12.5q0 12.5 -12.5 12.5"/>
      <path d="M1155.0 456.25v12.5q0 12.5 12.5 12.5q12.5 0 12.5 -12.5m0 12.5v-25.0"/>
      <path d="M1225.0 481.25h18.75q6.25 0 6.25 -6.25q0 -6.25 -6.25 -6.25h-12.5q-6.25 0 -6.25 -6.25q0 -6.25 6.25 -6.25h18.75"/>
      <path d="M1272.5 481.25q-12.5 0 -12.5 -12.5q0 -12.5 12.5 -12.5q12.5 0 12.5 12.5q0 12.5 -12.5 12.5"/>
      <path d="M1295.0 481.25v-25.0m0 6.25q0 -6.25 6.25 -6.25q6.25 0 6.25 6.25v6.25m0 -6.25q0 -6.25 6.25 -6.25q6.25 0 6.25 6.25v18.75"/>
      <path d="M1330.0 468.75h25.0q0 -12.5 -12.5 -12.5q-12.5 0 -12.5 12.5q0 12.5 12.5 12.5h12.5"/>
      <path d="M1377.5 481.25v-37.5m-12.5 12.5h25.0"/>
      <path d="M1400.0 431.25v50m0 -12.5q0 -12.5 12.5 -12.5q12.5 0 12.5 12.5v12.5"/>
      <path d="M1447.5 481.25v-25.0m0 -12.5v-6.25"/>
      <path d="M1470.0 481.25v-25.0m0 12.5q0 -12.5 12.5 -12.5q12.5 0 12.5 12.5v12.5"/>
      <path d="M1530.0 468.75q0 -12.5 -12.5 -12.5q-12.5 0 -12.5 12.5q0 12.5 12.5 12.5q12.5 0 12.5 -12.5m0 -12.5v25.0q0 12.5 -12.5 12.5h-12.5"/>
      <path d="M1546.25 481.25q6.25 0 6.25 -6.25v-6.25"/>
      <path d="M1622.5 481.25v-25.0m0 -12.5v-6.25"/>
      <path d="M1645.0 481.25v-25.0m0 12.5q0 -12.5 12.5 -12.5q12.5 0 12.5 12.5v12.5"/>
      <path d="M1715.0 481.25v-25.0m0 12.5q0 -12.5 12.5 -12.5q12.5 0 12.5 12.5"/>
      <path d="M1750.0 468.75h25.0q0 -12.5 -12.5 -12.5q-12.5 0 -12.5 12.5q0 12.5 12.5 12.5h12.5"/>
      <path d="M1797.5 481.25v-37.5m-12.5 12.5h25.0"/>
      <path d="M1820.0 456.25v12.5q0 12.5 12.5 12.5q12.5 0 12.5 -12.5m0 12.5v-25.0"/>
      <path d="M1855.0 481.25v-25.0m0 12.5q0 -12.5 12.5 -12.5q12.5 0 12.5 12.5"/>
      <path d="M1890.0 481.25v-25.0m0 12.5q0 -12.5 12.5 -12.5q12.5 0 12.5 12.5v12.5"/>
      <path d="M1972.5 481.25v-37.5q0 -12.5 12.5 -12.5m-25.0 25.0h25.0"/>
      <path d="M2007.5 481.25q-12.5 0 -12.5 -12.5q0 -12.5 12.5 -12.5q12.5 0 12.5 12.5q0 12.5 -12.5 12.5"/>
      <path d="M2030.0 481.25v-25.0m0 12.5q0 -12.5 12.5 -12.5q12.5 0 12.5 12.5"/>
      <path d="M2100.0 456.25v18.75q0 6.25 6.25 6.25q6.25 0 6.25 -6.25v-6.25m0 6.25q0 6.25 6.25 6.25q6.25 0 6.25 -6.25m0 -18.75v25.0"/>
      <path d="M2135.0 431.25v50m0 -12.5q0 -12.5 12.5 -12.5q12.5 0 12.5 12.5v12.5"/>
      <path d="M2195.0 468.75q0 12.5 -12.5 12.5q-12.5 0 -12.5 -12.5q0 -12.5 12.5 -12.5q12.5 0 12.5 12.5m0 12.5v-25.0q0 -12.5 -12.5 -12.5h-6.25"/>
      <path d="M2217.5 481.25v-37.5m-12.5 12.5h25.0"/>
      <path d="M2275.0 456.25l12.5 25.0m12.5 -25.0l-18.75 37.5"/>
      <path d="M2322.5 481.25q-12.5 0 -12.5 -12.5q0 -12.5 12.5 -12.5q12.5 0 12.5 12.5q0 12.5 -12.5 12.5"/>
      <path d="M2345.0 456.25v12.5q0 12.5 12.5 12.5q12.5 0 12.5 -12.5m0 12.5v-25.0"/>
      <path d="M0 500.0v50m0 -12.5q0 -12.5 12.5 -12.5q12.5 0 12.5 12.5v12.5"/>
      <path d="M60.0 537.5q0 12.5 -12.5 12.5q-12.5 0 -12.5 -12.5q0 -12.5 12.5 -12.5q12.5 0 12.5 12.5m0 12.5v-25.0q0 -12.5 -12.5 -12.5h-6.25"/>
      <path d="M70.0 525.0l12.5 25.0l12.5 -25.0"/>
      <path d="M105.0 537.5h25.0q0 -12.5 -12.5 -12.5q-12.5 0 -12.5 12.5q0 12.5 12.5 12.5h12.5"/>
      <path d="M187.5 550.0v-37.5m-12.5 12.5h25.0"/>
      <path d="M222.5 550.0q-12.5 0 -12.5 -12.5q0 -12.5 12.5 -12.5q12.5 0 12.5 12.5q0 12.5 -12.5 12.5"/>
      <path d="M257.5 550.0v-50"/>
      <path d="M305.0 550.0v-50M305.0 537.5q0 -12.5 -12.5 -12.5q-12.5 0 -12.5 12.5q0 12.5 12.5 12.5q12.5 0 12.5 -12.5"/>
      <path d="M350.0 550.0v-25.0m0 6.25q0 -6.25 6.25 -6.25q6.25 0 6.25 6.25v6.25m0 -6.25q0 -6.25 6.25 -6.25q6.25 0 6.25 6.25v18.75"/>
      <path d="M385.0 537.5h25.0q0 -12.5 -12.5 -12.5q-12.5 0 -12.5 12.5q0 12.5 12.5 12.5h12.5"/>
      <path d="M432.5 550.0v-6.25"/>
      <path d="M490.0 550.0v-50m25.0 0v50m0 -25.0h-25.0"/>
      <path d="M525.0 537.5h25.0q0 -12.5 -12.5 -12.5q-12.5 0 -12.5 12.5q0 12.5 12.5 12.5h12.5"/>
      <path d="M620.0 550.0v-50M620.0 537.5q0 -12.5 -12.5 -12.5q-12.5 0 -12.5 12.5q0 12.5 12.5 12.5q12.5 0 12.5 -12.5"/>
      <path d="M642.5 550.0v-25.0m0 -12.5v-6.25"/>
      <path d="M690.0 550.0v-50M690.0 537.5q0 -12.5 -12.5 -12.5q-12.5 0 -12.5 12.5q0 12.5 12.5 12.5q12.5 0 12.5 -12.5"/>
      <path d="M735.0 550.0h18.75q6.25 0 6.25 -6.25q0 -6.25 -6.25 -6.25h-12.5q-6.25 0 -6.25 -6.25q0 -6.25 6.25 -6.25h18.75"/>
      <path d="M770.0 537.5q0 -12.5 12.5 -12.5q12.5 0 12.5 12.5q0 12.5 -12.5 12.5q-12.5 0 -12.5 -12.5m0 -12.5v37.5"/>
      <path d="M805.0 537.5h25.0q0 -12.5 -12.5 -12.5q-12.5 0 -12.5 12.5q0 12.5 12.5 12.5h12.5"/>
      <path d="M865.0 537.5q0 12.5 -12.5 12.5q-12.5 0 -12.5 -12.5q0 -12.5 12.5 -12.5q12.5 0 12.5 12.5m0 12.5v-25.0q0 -12.5 -12.5 -12.5h-6.25"/>
      <path d="M875.0 500.0v50m25.0 -25.0l-25.0 12.5l25.0 12.5"/>
      <path d="M945.0 525.0l12.5 25.0m12.5 -25.0l-18.75 37.5"/>
      <path d="M980.0 537.5h25.0q0 -12.5 -12.5 -12.5q-12.5 0 -12.5 12.5q0 12.5 12.5 12.5h12.5"/>
      <path d="M1015.0 550.0h18.75q6.25 0 6.25 -6.25q0 -6.25 -6.25 -6.25h-12.5q-6.25 0 -6.25 -6.25q0 -6.25 6.25 -6.25h18.75"/>
      <path d="M1062.5 550.0v-37.5m-12.5 12.5h25.0"/>
      <path d="M1085.0 537.5h25.0q0 -12.5 -12.5 -12.5q-12.5 0 -12.5 12.5q0 12.5 12.5 12.5h12.5"/>
      <path d="M1120.0 550.0v-25.0m0 12.5q0 -12.5 12.5 -12.5q12.5 0 12.5 12.5"/>
      <path d="M1180.0 550.0v-50M1180.0 537.5q0 -12.5 -12.5 -12.5q-12.5 0 -12.5 12.5q0 12.5 12.5 12.5q12.5 0 12.5 -12.5"/>
      <path d="M1215.0 537.5q0 12.5 -12.5 12.5q-12.5 0 -12.5 -12.5q0 -12.5 12.5 -12.5q12.5 0 12.5 12.5m0 12.5v-25.0q0 -12.5 -12.5 -12.5h-6.25"/>
      <path d="M1225.0 525.0l12.5 25.0m12.5 -25.0l-18.75 37.5"/>
      <path d="M1260.0 525.0h25.0"/>
      <path d="M1307.5 550.0v-37.5m-12.5 12.5h25.0"/>
      <path d="M1330.0 500.0v50m0 -12.5q0 -12.5 12.5 -12.5q12.5 0 12.5 12.5v12.5"/>
      <path d="M1390.0 537.5q0 12.5 -12.5 12.5q-12.5 0 -12.5 -12.5q0 -12.5 12.5 -12.5q12.5 0 12.5 12.5m0 12.5v-25.0q0 -12.5 -12.5 -12.5h-6.25"/>
      <path d="M1412.5 550.0v-37.5m-12.5 12.5h25.0"/>
      <path d="M1482.5 550.0v-25.0m0 -12.5v-6.25"/>
      <path d="M1505.0 550.0h18.75q6.25 0 6.25 -6.25q0 -6.25 -6.25 -6.25h-12.5q-6.25 0 -6.25 -6.25q0 -6.25 6.25 -6.25h18.75"/>
      <path d="M1546.25 550.0q6.25 0 6.25 -6.25v-6.25"/>
      <path d="M1610.0 500.0v50m0 -12.5q0 -12.5 12.5 -12.5q12.5 0 12.5 12.5v12.5"/>
      <path d="M1645.0 537.5h25.0q0 -12.5 -12.5 -12.5q-12.5 0 -12.5 12.5q0 12.5 12.5 12.5h12.5"/>
      <path d="M1715.0 525.0v18.75q0 6.25 6.25 6.25q6.25 0 6.25 -6.25v-6.25m0 6.25q0 6.25 6.25 6.25q6.25 0 6.25 -6.25m0 -18.75v25.0"/>
      <path d="M1750.0 550.0v-25.0m0 12.5q0 -12.5 12.5 -12.5q12.5 0 12.5 12.5"/>
      <path d="M1797.5 550.0q-12.5 0 -12.5 -12.5q0 -12.5 12.5 -12.5q12.5 0 12.5 12.5q0 12.5 -12.5 12.5"/>
      <path d="M1832.5 550.0v-37.5m-12.5 12.5h25.0"/>
      <path d="M1855.0 537.5h25.0q0 -12.5 -12.5 -12.5q-12.5 0 -12.5 12.5q0 12.5 12.5 12.5h12.5"/>
      <path d="M1896.25 550.0q6.25 0 6.25 -6.25v-6.25"/>
      <path d="M1985.0 537.5q0 12.5 -12.5 12.5q-12.5 0 -12.5 -12.5q0 -12.5 12.5 -12.5q12.5 0 12.5 12.5m0 12.5v-25.0q0 -12.5 -12.5 -12.5h-6.25"/>
      <path d="M1995.0 550.0v-25.0m0 12.5q0 -12.5 12.5 -12.5q12.5 0 12.5 12.5v12.5"/>
      <path d="M2055.0 550.0v-50M2055.0 537.5q0 -12.5 -12.5 -12.5q-12.5 0 -12.5 12.5q0 12.5 12.5 12.5q12.5 0 12.5 -12.5"/>
      <path d="M2100.0 525.0v18.75q0 6.25 6.25 6.25q6.25 0 6.25 -6.25v-6.25m0 6.25q0 6.25 6.25 6.25q6.25 0 6.25 -6.25m0 -18.75v25.0"/>
      <path d="M2160.0 537.5q0 12.5 -12.5 12.5q-12.5 0 -12.5 -12.5q0 -12.5 12.5 -12.5q12.5 0 12.5 12.5m0 12.5v-25.0q0 -12.5 -12.5 -12.5h-6.25"/>
      <path d="M2170.0 550.0h18.75q6.25 0 6.25 -6.25q0 -6.25 -6.25 -6.25h-12.5q-6.25 0 -6.25 -6.25q0 -6.25 6.25 -6.25h18.75"/>
      <path d="M2217.5 550.0v-6.25"/>
      <path d="M2252.5 550.0v-6.25"/>
      <path d="M2287.5 550.0v-6.25"/>
    </g>
  </g>
</svg>
