<svg version="1.1" width="1150" height="870" xmlns="http://www.w3.org/2000/svg">
  <!-- Seed: 4916815838841233054 -->
  <g stroke="black" fill="none">
    <g transform="translate(50, 296.97418738049714) scale(0.40152963671128106, 0.40152963671128106)">
      <path d="M12.5 68.75v-6.25"/>
      <path d="M47.5 68.75v-6.25"/>
      <path d="M82.5 68.75v-6.25"/>
      <path d="M117.5 68.75q-12.5 0 -12.5 -12.5q0 -12.5 12.5 -12.5q12.5 0 12.5 12.5q0 12.5 -12.5 12.5"/>
      <path d="M140.0 56.25q0 -12.5 12.5 -12.5q12.5 0 12.5 12.5q0 12.5 -12.5 12.5q-12.5 0 -12.5 -12.5m0 -12.5v37.5"/>
      <path d="M175.0 56.25h25.0q0 -12.5 -12.5 -12.5q-12.5 0 -12.5 12.5q0 12.5 12.5 12.5h12.5"/>
      <path d="M210.0 68.75v-25.0m0 12.5q0 -12.5 12.5 -12.5q12.5 0 12.5 12.5v12.5"/>
      <path d="M257.5 68.75v-25.0m0 -6.25v-6.25"/>
      <path d="M280.0 68.75v-25.0m0 12.5q0 -12.5 12.5 -12.5q12.5 0 12.5 12.5v12.5"/>
      <path d="M340.0 56.25q0 -12.5 -12.5 -12.5q-12.5 0 -12.5 12.5q0 12.5 12.5 12.5q12.5 0 12.5 -12.5m0 -12.5v25.0q0 12.5 -12.5 12.5h-12.5"/>
      <path d="M397.5 68.75q-12.5 0 -12.5 -12.5q0 -12.5 12.5 -12.5q12.5 0 12.5 12.5q0 12.5 -12.5 12.5"/>
      <path d="M432.5 68.75v-37.5q0 -12.5 12.5 -12.5m-25.0 25.0h25.0"/>
      <path d="M502.5 68.75q-12.5 0 -12.5 -12.5q0 -12.5 12.5 -12.5q12.5 0 12.5 12.5q0 12.5 -12.5 12.5"/>
      <path d="M525.0 43.75v12.5q0 12.5 12.5 12.5q12.5 0 12.5 -12.5m0 12.5v-25.0"/>
      <path d="M560.0 68.75v-25.0m0 12.5q0 -12.5 12.5 -12.5q12.5 0 12.5 12.5"/>
      <path d="M630.0 68.75h18.75q6.25 0 6.25 -6.25q0 -6.25 -6.25 -6.25h-12.5q-6.25 0 -6.25 -6.25q0 -6.25 6.25 -6.25h18.75"/>
      <path d="M665.0 18.75v50m0 -12.5q0 -12.5 12.5 -12.5q12.5 0 12.5 12.5v12.5"/>
      <path d="M700.0 56.25h25.0q0 -12.5 -12.5 -12.5q-12.5 0 -12.5 12.5q0 12.5 12.5 12.5h12.5"/>
      <path d="M747.5 68.75v-50"/>
      <path d="M782.5 68.75v-37.5m-12.5 12.5h25.0"/>
      <path d="M805.0 56.25h25.0q0 -12.5 -12.5 -12.5q-12.5 0 -12.5 12.5q0 12.5 12.5 12.5h12.5"/>
      <path d="M840.0 68.75v-25.0m0 12.5q0 -12.5 12.5 -12.5q12.5 0 12.5 12.5"/>
      <path d="M887.5 68.75v-6.25"/>
      <path d="M954.375 25.0v6.25m6.25 0v-6.25"/>
      <path d="M992.5 68.75v-50m-12.5 0h25.0"/>
      <path d="M1015.0 18.75v50m0 -12.5q0 -12.5 12.5 -12.5q12.5 0 12.5 12.5v12.5"/>
      <path d="M1050.0 56.25h25.0q0 -12.5 -12.5 -12.5q-12.5 0 -12.5 12.5q0 12.5 12.5 12.5h12.5"/>
      <path d="M1085.0 43.75l12.5 25.0m12.5 -25.0l-18.75 37.5"/>
      <path d="M1180.0 68.75v-12.5q0 -12.5 -12.5 -12.5q-12.5 0 -12.5 12.5q0 12.5 12.5 12.5q12.5 0 12.5 -12.5"/>
      <path d="M1190.0 68.75v-25.0m0 12.5q0 -12.5 12.5 -12.5q12.5 0 12.5 12.5"/>
      <path d="M1225.0 56.25h25.0q0 -12.5 -12.5 -12.5q-12.5 0 -12.5 12.5q0 12.5 12.5 12.5h12.5"/>
      <path d="M1320.0 68.75v-12.5q0 -12.5 -12.5 -12.5q-12.5 0 -12.5 12.5q0 12.5 12.5 12.5q12.5 0 12.5 -12.5"/>
      <path d="M1342.5 68.75v-50"/>
      <path d="M1377.5 68.75v-50"/>
      <path d="M1460.0 68.75h-12.5q-12.5 0 -12.5 -12.5q0 -12.5 12.5 -12.5h12.5"/>
      <path d="M1482.5 68.75q-12.5 0 -12.5 -12.5q0 -12.5 12.5 -12.5q12.5 0 12.5 12.5q0 12.5 -12.5 12.5"/>
      <path d="M1505.0 68.75v-25.0m0 12.5q0 -12.5 12.5 -12.5q12.5 0 12.5 12.5v12.5"/>
      <path d="M1540.0 43.75l12.5 25.0l12.5 -25.0"/>
      <path d="M1575.0 56.25h25.0q0 -12.5 -12.5 -12.5q-12.5 0 -12.5 12.5q0 12.5 12.5 12.5h12.5"/>
      <path d="M1610.0 68.75v-25.0m0 12.5q0 -12.5 12.5 -12.5q12.5 0 12.5 12.5"/>
      <path d="M1670.0 56.25q0 -12.5 -12.5 -12.5q-12.5 0 -12.5 12.5q0 12.5 12.5 12.5q12.5 0 12.5 -12.5m0 -12.5v25.0q0 12.5 -12.5 12.5h-12.5"/>
      <path d="M1692.5 68.75v-25.0m0 -6.25v-6.25"/>
      <path d="M1715.0 68.75v-25.0m0 12.5q0 -12.5 12.5 -12.5q12.5 0 12.5 12.5v12.5"/>
      <path d="M1775.0 56.25q0 -12.5 -12.5 -12.5q-12.5 0 -12.5 12.5q0 12.5 12.5 12.5q12.5 0 12.5 -12.5m0 -12.5v25.0q0 12.5 -12.5 12.5h-12.5"/>
      <path d="M1791.25 68.75q6.25 0 6.25 -6.25v-6.25"/>
      <path d="M1829.375 25.0v6.25m6.25 0v-6.25"/>
      <path d="M1890.0 18.75v50m0 -12.5q0 -12.5 12.5 -12.5q12.5 0 12.5 12.5v12.5"/>
      <path d="M1925.0 56.25h25.0q0 -12.5 -12.5 -12.5q-12.5 0 -12.5 12.5q0 12.5 12.5 12.5h12.5"/>
      <path d="M1995.0 68.75h18.75q6.25 0 6.25 -6.25q0 -6.25 -6.25 -6.25h-12.5q-6.25 0 -6.25 -6.25q0 -6.25 6.25 -6.25h18.75"/>
      <path d="M2055.0 68.75v-12.5q0 -12.5 -12.5 -12.5q-12.5 0 -12.5 12.5q0 12.5 12.5 12.5q12.5 0 12.5 -12.5"/>
      <path d="M2077.5 68.75v-25.0m0 -6.25v-6.25"/>
      <path d="M2125.0 68.75v-50M2125.0 56.25q0 -12.5 -12.5 -12.5q-12.5 0 -12.5 12.5q0 12.5 12.5 12.5q12.5 0 12.5 -12.5"/>
      <path d="M2147.5 68.75v-6.25"/>
      <path d="M2214.375 25.0v6.25m6.25 0v-6.25"/>
      <path d="M2240.0 18.75l6.25 50l6.25 -25.0l6.25 25.0l6.25 -50"/>
      <path d="M2275.0 18.75v50m0 -12.5q0 -12.5 12.5 -12.5q12.5 0 12.5 12.5v12.5"/>
      <path d="M2310.0 56.25h25.0q0 -12.5 -12.5 -12.5q-12.5 0 -12.5 12.5q0 12.5 12.5 12.5h12.5"/>
      <path d="M2345.0 68.75v-25.0m0 12.5q0 -12.5 12.5 -12.5q12.5 0 12.5 12.5v12.5"/>
      <path d="M2427.5 68.75v-37.5m-12.5 12.5h25.0"/>
      <path d="M2450.0 18.75v50m0 -12.5q0 -12.5 12.5 -12.5q12.5 0 12.5 12.5v12.5"/>
      <path d="M2485.0 56.25h25.0q0 -12.5 -12.5 -12.5q-12.5 0 -12.5 12.5q0 12.5 12.5 12.5h12.5"/>
      <path d="M12.5 137.5v-37.5m-12.5 12.5h25.0"/>
      <path d="M47.5 137.5v-25.0m0 -6.25v-6.25"/>
      <path d="M70.0 137.5v-25.0m0 6.25q0 -6.25 6.25 -6.25q6.25 0 6.25 6.25v6.25m0 -6.25q0 -6.25 6.25 -6.25q6.25 0 6.25 6.25v18.75"/>
      <path d="M105.0 125.0h25.0q0 -12.5 -12.5 -12.5q-12.5 0 -12.5 12.5q0 12.5 12.5 12.5h12.5"/>
      <path d="M200.0 137.5h-12.5q-12.5 0 -12.5 -12.5q0 -12.5 12.5 -12.5h12.5"/>
      <path d="M222.5 137.5q-12.5 0 -12.5 -12.5q0 -12.5 12.5 -12.5q12.5 0 12.5 12.5q0 12.5 -12.5 12.5"/>
      <path d="M245.0 137.5v-25.0m0 6.25q0 -6.25 6.25 -6.25q6.25 0 6.25 6.25v6.25m0 -6.25q0 -6.25 6.25 -6.25q6.25 0 6.25 6.25v18.75"/>
      <path d="M280.0 125.0h25.0q0 -12.5 -12.5 -12.5q-12.5 0 -12.5 12.5q0 12.5 12.5 12.5h12.5"/>
      <path d="M315.0 137.5h18.75q6.25 0 6.25 -6.25q0 -6.25 -6.25 -6.25h-12.5q-6.25 0 -6.25 -6.25q0 -6.25 6.25 -6.25h18.75"/>
      <path d="M385.0 112.5v18.75q0 6.25 6.25 6.25q6.25 0 6.25 -6.25v-6.25m0 6.25q0 6.25 6.25 6.25q6.25 0 6.25 -6.25m0 -18.75v25.0"/>
      <path d="M420.0 125.0h25.0q0 -12.5 -12.5 -12.5q-12.5 0 -12.5 12.5q0 12.5 12.5 12.5h12.5"/>
      <path d="M490.0 137.5h18.75q6.25 0 6.25 -6.25q0 -6.25 -6.25 -6.25h-12.5q-6.25 0 -6.25 -6.25q0 -6.25 6.25 -6.25h18.75"/>
      <path d="M525.0 87.5v50m0 -12.5q0 -12.5 12.5 -12.5q12.5 0 12.5 12.5v12.5"/>
      <path d="M585.0 137.5v-12.5q0 -12.5 -12.5 -12.5q-12.5 0 -12.5 12.5q0 12.5 12.5 12.5q12.5 0 12.5 -12.5"/>
      <path d="M607.5 137.5v-50"/>
      <path d="M642.5 137.5v-50"/>
      <path d="M700.0 87.5v50m0 -12.5q0 -12.5 12.5 -12.5q12.5 0 12.5 12.5v12.5"/>
      <path d="M760.0 137.5v-12.5q0 -12.5 -12.5 -12.5q-12.5 0 -12.5 12.5q0 12.5 12.5 12.5q12.5 0 12.5 -12.5"/>
      <path d="M770.0 112.5l12.5 25.0l12.5 -25.0"/>
      <path d="M805.0 125.0h25.0q0 -12.5 -12.5 -12.5q-12.5 0 -12.5 12.5q0 12.5 12.5 12.5h12.5"/>
      <path d="M900.0 125.0q0 -12.5 -12.5 -12.5q-12.5 0 -12.5 12.5q0 12.5 12.5 12.5q12.5 0 12.5 -12.5m0 -12.5v25.0q0 12.5 -12.5 12.5h-12.5"/>
      <path d="M910.0 112.5l12.5 25.0m12.5 -25.0l-18.75 37.5"/>
      <path d="M945.0 125.0q0 -12.5 12.5 -12.5q12.5 0 12.5 12.5q0 12.5 -12.5 12.5q-12.5 0 -12.5 -12.5m0 -12.5v37.5"/>
      <path d="M980.0 137.5h18.75q6.25 0 6.25 -6.25q0 -6.25 -6.25 -6.25h-12.5q-6.25 0 -6.25 -6.25q0 -6.25 6.25 -6.25h18.75"/>
      <path d="M1027.5 137.5v-25.0m0 -6.25v-6.25"/>
      <path d="M1050.0 125.0h25.0q0 -12.5 -12.5 -12.5q-12.5 0 -12.5 12.5q0 12.5 12.5 12.5h12.5"/>
      <path d="M1085.0 137.5h18.75q6.25 0 6.25 -6.25q0 -6.25 -6.25 -6.25h-12.5q-6.25 0 -6.25 -6.25q0 -6.25 6.25 -6.25h18.75"/>
      <path d="M1167.5 137.5q-12.5 0 -12.5 -12.5q0 -12.5 12.5 -12.5q12.5 0 12.5 12.5q0 12.5 -12.5 12.5"/>
      <path d="M1190.0 137.5v-25.0m0 12.5q0 -12.5 12.5 -12.5q12.5 0 12.5 12.5v12.5"/>
      <path d="M1285.0 137.5v-12.5q0 -12.5 -12.5 -12.5q-12.5 0 -12.5 12.5q0 12.5 12.5 12.5q12.5 0 12.5 -12.5"/>
      <path d="M1307.5 137.5v-50"/>
      <path d="M1342.5 137.5v-50"/>
      <path d="M1400.0 137.5h18.75q6.25 0 6.25 -6.25q0 -6.25 -6.25 -6.25h-12.5q-6.25 0 -6.25 -6.25q0 -6.25 6.25 -6.25h18.75"/>
      <path d="M1447.5 137.5v-25.0m0 -6.25v-6.25"/>
      <path d="M1495.0 137.5v-50M1495.0 125.0q0 -12.5 -12.5 -12.5q-12.5 0 -12.5 12.5q0 12.5 12.5 12.5q12.5 0 12.5 -12.5"/>
      <path d="M1505.0 125.0h25.0q0 -12.5 -12.5 -12.5q-12.5 0 -12.5 12.5q0 12.5 12.5 12.5h12.5"/>
      <path d="M1540.0 137.5h18.75q6.25 0 6.25 -6.25q0 -6.25 -6.25 -6.25h-12.5q-6.25 0 -6.25 -6.25q0 -6.25 6.25 -6.25h18.75"/>
      <path d="M1587.5 137.5v-6.25"/>
      <path d="M1619.375 93.75v6.25m6.25 0v-6.25"/>
      <path d="M1680.0 137.5h25.0m-12.5 0v-50m-12.5 0h25.0"/>
      <path d="M1775.0 125.0q0 -12.5 -12.5 -12.5q-12.5 0 -12.5 12.5q0 12.5 12.5 12.5q12.5 0 12.5 -12.5m0 -12.5v25.0q0 12.5 -12.5 12.5h-12.5"/>
      <path d="M1797.5 137.5q-12.5 0 -12.5 -12.5q0 -12.5 12.5 -12.5q12.5 0 12.5 12.5q0 12.5 -12.5 12.5"/>
      <path d="M1832.5 137.5v-37.5m-12.5 12.5h25.0"/>
      <path d="M1902.5 137.5q-12.5 0 -12.5 -12.5q0 -12.5 12.5 -12.5q12.5 0 12.5 12.5q0 12.5 -12.5 12.5"/>
      <path d="M1925.0 112.5v12.5q0 12.5 12.5 12.5q12.5 0 12.5 -12.5m0 12.5v-25.0"/>
      <path d="M1972.5 137.5v-37.5m-12.5 12.5h25.0"/>
      <path d="M2030.0 137.5v-25.0m0 6.25q0 -6.25 6.25 -6.25q6.25 0 6.25 6.25v6.25m0 -6.25q0 -6.25 6.25 -6.25q6.25 0 6.25 6.25v18.75"/>
      <path d="M2065.0 112.5l12.5 25.0m12.5 -25.0l-18.75 37.5"/>
      <path d="M2135.0 137.5v-25.0m0 12.5q0 -12.5 12.5 -12.5q12.5 0 12.5 12.5"/>
      <path d="M2170.0 125.0h25.0q0 -12.5 -12.5 -12.5q-12.5 0 -12.5 12.5q0 12.5 12.5 12.5h12.5"/>
      <path d="M2205.0 112.5l12.5 25.0l12.5 -25.0"/>
      <path d="M2252.5 137.5q-12.5 0 -12.5 -12.5q0 -12.5 12.5 -12.5q12.5 0 12.5 12.5q0 12.5 -12.5 12.5"/>
      <path d="M2287.5 137.5v-50"/>
      <path d="M2310.0 112.5l12.5 25.0l12.5 -25.0"/>
      <path d="M2345.0 125.0h25.0q0 -12.5 -12.5 -12.5q-12.5 0 -12.5 12.5q0 12.5 12.5 12.5h12.5"/>
      <path d="M2380.0 137.5v-25.0m0 12.5q0 -12.5 12.5 -12.5q12.5 0 12.5 12.5"/>
      <path d="M0 206.25v-25.0m0 12.5q0 -12.5 12.5 -12.5q12.5 0 12.5 12.5"/>
      <path d="M35.0 193.75h25.0q0 -12.5 -12.5 -12.5q-12.5 0 -12.5 12.5q0 12.5 12.5 12.5h12.5"/>
      <path d="M95.0 206.25v-12.5q0 -12.5 -12.5 -12.5q-12.5 0 -12.5 12.5q0 12.5 12.5 12.5q12.5 0 12.5 -12.5"/>
      <path d="M130.0 206.25v-50M130.0 193.75q0 -12.5 -12.5 -12.5q-12.5 0 -12.5 12.5q0 12.5 12.5 12.5q12.5 0 12.5 -12.5"/>
      <path d="M140.0 181.25l12.5 25.0m12.5 -25.0l-18.75 37.5"/>
      <path d="M222.5 206.25v-37.5m-12.5 12.5h25.0"/>
      <path d="M257.5 206.25q-12.5 0 -12.5 -12.5q0 -12.5 12.5 -12.5q12.5 0 12.5 12.5q0 12.5 -12.5 12.5"/>
      <path d="M315.0 156.25v50m0 -12.5q0 -12.5 12.5 -12.5q12.5 0 12.5 12.5v12.5"/>
      <path d="M375.0 206.25v-12.5q0 -12.5 -12.5 -12.5q-12.5 0 -12.5 12.5q0 12.5 12.5 12.5q12.5 0 12.5 -12.5"/>
      <path d="M385.0 206.25v-25.0m0 12.5q0 -12.5 12.5 -12.5q12.5 0 12.5 12.5v12.5"/>
      <path d="M445.0 206.25v-50M445.0 193.75q0 -12.5 -12.5 -12.5q-12.5 0 -12.5 12.5q0 12.5 12.5 12.5q12.5 0 12.5 -12.5"/>
      <path d="M461.25 206.25q6.25 0 6.25 -6.25v-6.25"/>
      <path d="M537.5 206.25v-37.5q0 -12.5 12.5 -12.5m-25.0 25.0h25.0"/>
      <path d="M572.5 206.25q-12.5 0 -12.5 -12.5q0 -12.5 12.5 -12.5q12.5 0 12.5 12.5q0 12.5 -12.5 12.5"/>
      <path d="M595.0 206.25v-25.0m0 12.5q0 -12.5 12.5 -12.5q12.5 0 12.5 12.5"/>
      <path d="M665.0 181.25v18.75q0 6.25 6.25 6.25q6.25 0 6.25 -6.25v-6.25m0 6.25q0 6.25 6.25 6.25q6.25 0 6.25 -6.25m0 -18.75v25.0"/>
      <path d="M700.0 156.25v50m0 -12.5q0 -12.5 12.5 -12.5q12.5 0 12.5 12.5v12.5"/>
      <path d="M747.5 206.25v-25.0m0 -6.25v-6.25"/>
      <path d="M782.5 206.25v-50"/>
      <path d="M805.0 206.25h18.75q6.25 0 6.25 -6.25q0 -6.25 -6.25 -6.25h-12.5q-6.25 0 -6.25 -6.25q0 -6.25 6.25 -6.25h18.75"/>
      <path d="M852.5 206.25v-37.5m-12.5 12.5h25.0"/>
      <path d="M910.0 181.25v18.75q0 6.25 6.25 6.25q6.25 0 6.25 -6.25v-6.25m0 6.25q0 6.25 6.25 6.25q6.25 0 6.25 -6.25m0 -18.75v25.0"/>
      <path d="M945.0 193.75h25.0q0 -12.5 -12.5 -12.5q-12.5 0 -12.5 12.5q0 12.5 12.5 12.5h12.5"/>
      <path d="M1015.0 181.25v18.75q0 6.25 6.25 6.25q6.25 0 6.25 -6.25v-6.25m0 6.25q0 6.25 6.25 6.25q6.25 0 6.25 -6.25m0 -18.75v25.0"/>
      <path d="M1050.0 193.75h25.0q0 -12.5 -12.5 -12.5q-12.5 0 -12.5 12.5q0 12.5 12.5 12.5h12.5"/>
      <path d="M1085.0 206.25v-25.0m0 12.5q0 -12.5 12.5 -12.5q12.5 0 12.5 12.5"/>
      <path d="M1120.0 193.75h25.0q0 -12.5 -12.5 -12.5q-12.5 0 -12.5 12.5q0 12.5 12.5 12.5h12.5"/>
      <path d="M1190.0 206.25h18.75q6.25 0 6.25 -6.25q0 -6.25 -6.25 -6.25h-12.5q-6.25 0 -6.25 -6.25q0 -6.25 6.25 -6.25h18.75"/>
      <path d="M1225.0 193.75q0 -12.5 12.5 -12.5q12.5 0 12.5 12.5q0 12.5 -12.5 12.5q-12.5 0 -12.5 -12.5m0 -12.5v37.5"/>
      <path d="M1260.0 193.75h25.0q0 -12.5 -12.5 -12.5q-12.5 0 -12.5 12.5q0 12.5 12.5 12.5h12.5"/>
      <path d="M1320.0 206.25v-12.5q0 -12.5 -12.5 -12.5q-12.5 0 -12.5 12.5q0 12.5 12.5 12.5q12.5 0 12.5 -12.5"/>
      <path d="M1330.0 156.25v50m25.0 -25.0l-25.0 12.5l25.0 12.5"/>
      <path d="M1377.5 206.25v-25.0m0 -6.25v-6.25"/>
      <path d="M1400.0 206.25v-25.0m0 12.5q0 -12.5 12.5 -12.5q12.5 0 12.5 12.5v12.5"/>
      <path d="M1460.0 193.75q0 -12.5 -12.5 -12.5q-12.5 0 -12.5 12.5q0 12.5 12.5 12.5q12.5 0 12.5 -12.5m0 -12.5v25.0q0 12.5 -12.5 12.5h-12.5"/>
      <path d="M1517.5 206.25v-37.5m-12.5 12.5h25.0"/>
      <path d="M1540.0 156.25v50m0 -12.5q0 -12.5 12.5 -12.5q12.5 0 12.5 12.5v12.5"/>
      <path d="M1575.0 193.75h25.0q0 -12.5 -12.5 -12.5q-12.5 0 -12.5 12.5q0 12.5 12.5 12.5h12.5"/>
      <path d="M1645.0 156.25v50m0 -12.5q0 -12.5 12.5 -12.5q12.5 0 12.5 12.5v12.5"/>
      <path d="M1692.5 206.25q-12.5 0 -12.5 -12.5q0 -12.5 12.5 -12.5q12.5 0 12.5 12.5q0 12.5 -12.5 12.5"/>
      <path d="M1715.0 181.25v18.75q0 6.25 6.25 6.25q6.25 0 6.25 -6.25v-6.25m0 6.25q0 6.25 6.25 6.25q6.25 0 6.25 -6.25m0 -18.75v25.0"/>
      <path d="M1762.5 206.25v-50"/>
      <path d="M1797.5 206.25v-25.0m0 -6.25v-6.25"/>
      <path d="M1820.0 206.25v-25.0m0 12.5q0 -12.5 12.5 -12.5q12.5 0 12.5 12.5v12.5"/>
      <path d="M1880.0 193.75q0 -12.5 -12.5 -12.5q-12.5 0 -12.5 12.5q0 12.5 12.5 12.5q12.5 0 12.5 -12.5m0 -12.5v25.0q0 12.5 -12.5 12.5h-12.5"/>
      <path d="M1937.5 206.25q-12.5 0 -12.5 -12.5q0 -12.5 12.5 -12.5q12.5 0 12.5 12.5q0 12.5 -12.5 12.5"/>
      <path d="M1972.5 206.25v-37.5q0 -12.5 12.5 -12.5m-25.0 25.0h25.0"/>
      <path d="M2030.0 181.25v18.75q0 6.25 6.25 6.25q6.25 0 6.25 -6.25v-6.25m0 6.25q0 6.25 6.25 6.25q6.25 0 6.25 -6.25m0 -18.75v25.0"/>
      <path d="M2077.5 206.25q-12.5 0 -12.5 -12.5q0 -12.5 12.5 -12.5q12.5 0 12.5 12.5q0 12.5 -12.5 12.5"/>
      <path d="M2112.5 206.25v-50"/>
      <path d="M2135.0 181.25l12.5 25.0l12.5 -25.0"/>
      <path d="M2170.0 193.75h25.0q0 -12.5 -12.5 -12.5q-12.5 0 -12.5 12.5q0 12.5 12.5 12.5h12.5"/>
      <path d="M2205.0 206.25h18.75q6.25 0 6.25 -6.25q0 -6.25 -6.25 -6.25h-12.5q-6.25 0 -6.25 -6.25q0 -6.25 6.25 -6.25h18.75"/>
      <path d="M2300.0 206.25h-12.5q-12.5 0 -12.5 -12.5q0 -12.5 12.5 -12.5h12.5"/>
      <path d="M2335.0 206.25v-12.5q0 -12.5 -12.5 -12.5q-12.5 0 -12.5 12.5q0 12.5 12.5 12.5q12.5 0 12.5 -12.5"/>
      <path d="M2345.0 206.25v-25.0m0 6.25q0 -6.25 6.25 -6.25q6.25 0 6.25 6.25v6.25m0 -6.25q0 -6.25 6.25 -6.25q6.25 0 6.25 6.25v18.75"/>
      <path d="M2380.0 193.75h25.0q0 -12.5 -12.5 -12.5q-12.5 0 -12.5 12.5q0 12.5 12.5 12.5h12.5"/>
      <path d="M12.5 275.0v-50"/>
      <path d="M47.5 275.0q-12.5 0 -12.5 -12.5q0 -12.5 12.5 -12.5q12.5 0 12.5 12.5q0 12.5 -12.5 12.5"/>
      <path d="M70.0 250.0v12.5q0 12.5 12.5 12.5q12.5 0 12.5 -12.5m0 12.5v-25.0"/>
      <path d="M130.0 275.0v-50M130.0 262.5q0 -12.5 -12.5 -12.5q-12.5 0 -12.5 12.5q0 12.5 12.5 12.5q12.5 0 12.5 -12.5"/>
      <path d="M140.0 262.5h25.0q0 -12.5 -12.5 -12.5q-12.5 0 -12.5 12.5q0 12.5 12.5 12.5h12.5"/>
      <path d="M175.0 275.0v-25.0m0 12.5q0 -12.5 12.5 -12.5q12.5 0 12.5 12.5"/>
      <path d="M270.0 275.0v-12.5q0 -12.5 -12.5 -12.5q-12.5 0 -12.5 12.5q0 12.5 12.5 12.5q12.5 0 12.5 -12.5"/>
      <path d="M280.0 275.0v-25.0m0 12.5q0 -12.5 12.5 -12.5q12.5 0 12.5 12.5v12.5"/>
      <path d="M340.0 275.0v-50M340.0 262.5q0 -12.5 -12.5 -12.5q-12.5 0 -12.5 12.5q0 12.5 12.5 12.5q12.5 0 12.5 -12.5"/>
      <path d="M410.0 275.0h-12.5q-12.5 0 -12.5 -12.5q0 -12.5 12.5 -12.5h12.5"/>
      <path d="M432.5 275.0v-50"/>
      <path d="M467.5 275.0q-12.5 0 -12.5 -12.5q0 -12.5 12.5 -12.5q12.5 0 12.5 12.5q0 12.5 -12.5 12.5"/>
      <path d="M490.0 275.0h18.75q6.25 0 6.25 -6.25q0 -6.25 -6.25 -6.25h-12.5q-6.25 0 -6.25 -6.25q0 -6.25 6.25 -6.25h18.75"/>
      <path d="M525.0 262.5h25.0q0 -12.5 -12.5 -12.5q-12.5 0 -12.5 12.5q0 12.5 12.5 12.5h12.5"/>
      <path d="M560.0 275.0v-25.0m0 12.5q0 -12.5 12.5 -12.5q12.5 0 12.5 12.5"/>
      <path d="M607.5 275.0v-6.25"/>
      <path d="M665.0 225.0l6.25 50l6.25 -25.0l6.25 25.0l6.25 -50"/>
      <path d="M700.0 225.0v50m0 -12.5q0 -12.5 12.5 -12.5q12.5 0 12.5 12.5v12.5"/>
      <path d="M735.0 262.5h25.0q0 -12.5 -12.5 -12.5q-12.5 0 -12.5 12.5q0 12.5 12.5 12.5h12.5"/>
      <path d="M770.0 275.0v-25.0m0 12.5q0 -12.5 12.5 -12.5q12.5 0 12.5 12.5v12.5"/>
      <path d="M852.5 275.0v-37.5m-12.5 12.5h25.0"/>
      <path d="M875.0 225.0v50m0 -12.5q0 -12.5 12.5 -12.5q12.5 0 12.5 12.5v12.5"/>
      <path d="M910.0 262.5h25.0q0 -12.5 -12.5 -12.5q-12.5 0 -12.5 12.5q0 12.5 12.5 12.5h12.5"/>
      <path d="M980.0 275.0h18.75q6.25 0 6.25 -6.25q0 -6.25 -6.25 -6.25h-12.5q-6.25 0 -6.25 -6.25q0 -6.25 6.25 -6.25h18.75"/>
      <path d="M1015.0 275.0v-25.0m0 12.5q0 -12.5 12.5 -12.5q12.5 0 12.5 12.5v12.5"/>
      <path d="M1062.5 275.0q-12.5 0 -12.5 -12.5q0 -12.5 12.5 -12.5q12.5 0 12.5 12.5q0 12.5 -12.5 12.5"/>
      <path d="M1085.0 250.0v18.75q0 6.25 6.25 6.25q6.25 0 6.25 -6.25v-6.25m0 6.25q0 6.25 6.25 6.25q6.25 0 6.25 -6.25m0 -18.75v25.0"/>
      <path d="M1155.0 275.0h18.75q6.25 0 6.25 -6.25q0 -6.25 -6.25 -6.25h-12.5q-6.25 0 -6.25 -6.25q0 -6.25 6.25 -6.25h18.75"/>
      <path d="M1202.5 275.0v-37.5m-12.5 12.5h25.0"/>
      <path d="M1237.5 275.0q-12.5 0 -12.5 -12.5q0 -12.5 12.5 -12.5q12.5 0 12.5 12.5q0 12.5 -12.5 12.5"/>
      <path d="M1260.0 275.0v-25.0m0 12.5q0 -12.5 12.5 -12.5q12.5 0 12.5 12.5"/>
      <path d="M1295.0 275.0v-25.0m0 6.25q0 -6.25 6.25 -6.25q6.25 0 6.25 6.25v6.25m0 -6.25q0 -6.25 6.25 -6.25q6.25 0 6.25 6.25v18.75"/>
      <path d="M1390.0 275.0v-12.5q0 -12.5 -12.5 -12.5q-12.5 0 -12.5 12.5q0 12.5 12.5 12.5q12.5 0 12.5 -12.5"/>
      <path d="M1400.0 275.0v-50M1400.0 262.5q0 -12.5 12.5 -12.5q12.5 0 12.5 12.5q0 12.5 -12.5 12.5q-12.5 0 -12.5 -12.5"/>
      <path d="M1460.0 275.0v-12.5q0 -12.5 -12.5 -12.5q-12.5 0 -12.5 12.5q0 12.5 12.5 12.5q12.5 0 12.5 -12.5"/>
      <path d="M1482.5 275.0v-37.5m-12.5 12.5h25.0"/>
      <path d="M1505.0 262.5h25.0q0 -12.5 -12.5 -12.5q-12.5 0 -12.5 12.5q0 12.5 12.5 12.5h12.5"/>
      <path d="M1565.0 275.0v-50M1565.0 262.5q0 -12.5 -12.5 -12.5q-12.5 0 -12.5 12.5q0 12.5 12.5 12.5q12.5 0 12.5 -12.5"/>
      <path d="M1635.0 275.0v-12.5q0 -12.5 -12.5 -12.5q-12.5 0 -12.5 12.5q0 12.5 12.5 12.5q12.5 0 12.5 -12.5"/>
      <path d="M1680.0 275.0v-25.0m0 6.25q0 -6.25 6.25 -6.25q6.25 0 6.25 6.25v6.25m0 -6.25q0 -6.25 6.25 -6.25q6.25 0 6.25 6.25v18.75"/>
      <path d="M1727.5 275.0q-12.5 0 -12.5 -12.5q0 -12.5 12.5 -12.5q12.5 0 12.5 12.5q0 12.5 -12.5 12.5"/>
      <path d="M1750.0 275.0v-25.0m0 6.25q0 -6.25 6.25 -6.25q6.25 0 6.25 6.25v6.25m0 -6.25q0 -6.25 6.25 -6.25q6.25 0 6.25 6.25v18.75"/>
      <path d="M1785.0 262.5h25.0q0 -12.5 -12.5 -12.5q-12.5 0 -12.5 12.5q0 12.5 12.5 12.5h12.5"/>
      <path d="M1820.0 275.0v-25.0m0 12.5q0 -12.5 12.5 -12.5q12.5 0 12.5 12.5v12.5"/>
      <path d="M1867.5 275.0v-37.5m-12.5 12.5h25.0"/>
      <path d="M1925.0 250.0v18.75q0 6.25 6.25 6.25q6.25 0 6.25 -6.25v-6.25m0 6.25q0 6.25 6.25 6.25q6.25 0 6.25 -6.25m0 -18.75v25.0"/>
      <path d="M1960.0 262.5h25.0q0 -12.5 -12.5 -12.5q-12.5 0 -12.5 12.5q0 12.5 12.5 12.5h12.5"/>
      <path d="M2042.5 275.0v-50"/>
      <path d="M2077.5 275.0q-12.5 0 -12.5 -12.5q0 -12.5 12.5 -12.5q12.5 0 12.5 12.5q0 12.5 -12.5 12.5"/>
      <path d="M2112.5 275.0q-12.5 0 -12.5 -12.5q0 -12.5 12.5 -12.5q12.5 0 12.5 12.5q0 12.5 -12.5 12.5"/>
      <path d="M2135.0 225.0v50m25.0 -25.0l-25.0 12.5l25.0 12.5"/>
      <path d="M2170.0 262.5h25.0q0 -12.5 -12.5 -12.5q-12.5 0 -12.5 12.5q0 12.5 12.5 12.5h12.5"/>
      <path d="M2230.0 275.0v-50M2230.0 262.5q0 -12.5 -12.5 -12.5q-12.5 0 -12.5 12.5q0 12.5 12.5 12.5q12.5 0 12.5 -12.5"/>
      <path d="M2300.0 275.0v-12.5q0 -12.5 -12.5 -12.5q-12.5 0 -12.5 12.5q0 12.5 12.5 12.5q12.5 0 12.5 -12.5"/>
      <path d="M2335.0 262.5q0 -12.5 -12.5 -12.5q-12.5 0 -12.5 12.5q0 12.5 12.5 12.5q12.5 0 12.5 -12.5m0 -12.5v25.0q0 12.5 -12.5 12.5h-12.5"/>
      <path d="M2370.0 275.0v-12.5q0 -12.5 -12.5 -12.5q-12.5 0 -12.5 12.5q0 12.5 12.5 12.5q12.5 0 12.5 -12.5"/>
      <path d="M2392.5 275.0v-25.0m0 -6.25v-6.25"/>
      <path d="M2415.0 275.0v-25.0m0 12.5q0 -12.5 12.5 -12.5q12.5 0 12.5 12.5v12.5"/>
      <path d="M2462.5 275.0v-6.25"/>
      <path d="M0 343.75h25.0m-12.5 0v-50m-12.5 0h25.0"/>
      <path d="M47.5 343.75v-37.5m-12.5 12.5h25.0"/>
      <path d="M105.0 318.75v18.75q0 6.25 6.25 6.25q6.25 0 6.25 -6.25v-6.25m0 6.25q0 6.25 6.25 6.25q6.25 0 6.25 -6.25m0 -18.75v25.0"/>
      <path d="M165.0 343.75v-12.5q0 -12.5 -12.5 -12.5q-12.5 0 -12.5 12.5q0 12.5 12.5 12.5q12.5 0 12.5 -12.5"/>
      <path d="M175.0 343.75h18.75q6.25 0 6.25 -6.25q0 -6.25 -6.25 -6.25h-12.5q-6.25 0 -6.25 -6.25q0 -6.25 6.25 -6.25h18.75"/>
      <path d="M245.0 343.75h18.75q6.25 0 6.25 -6.25q0 -6.25 -6.25 -6.25h-12.5q-6.25 0 -6.25 -6.25q0 -6.25 6.25 -6.25h18.75"/>
      <path d="M292.5 343.75v-37.5m-12.5 12.5h25.0"/>
      <path d="M315.0 343.75v-25.0m0 12.5q0 -12.5 12.5 -12.5q12.5 0 12.5 12.5"/>
      <path d="M375.0 343.75v-12.5q0 -12.5 -12.5 -12.5q-12.5 0 -12.5 12.5q0 12.5 12.5 12.5q12.5 0 12.5 -12.5"/>
      <path d="M385.0 343.75v-25.0m0 12.5q0 -12.5 12.5 -12.5q12.5 0 12.5 12.5v12.5"/>
      <path d="M445.0 331.25q0 -12.5 -12.5 -12.5q-12.5 0 -12.5 12.5q0 12.5 12.5 12.5q12.5 0 12.5 -12.5m0 -12.5v25.0q0 12.5 -12.5 12.5h-12.5"/>
      <path d="M455.0 331.25h25.0q0 -12.5 -12.5 -12.5q-12.5 0 -12.5 12.5q0 12.5 12.5 12.5h12.5"/>
      <path d="M537.5 343.75v-37.5m-12.5 12.5h25.0"/>
      <path d="M572.5 343.75q-12.5 0 -12.5 -12.5q0 -12.5 12.5 -12.5q12.5 0 12.5 12.5q0 12.5 -12.5 12.5"/>
      <path d="M630.0 343.75h18.75q6.25 0 6.25 -6.25q0 -6.25 -6.25 -6.25h-12.5q-6.25 0 -6.25 -6.25q0 -6.25 6.25 -6.25h18.75"/>
      <path d="M665.0 331.25h25.0q0 -12.5 -12.5 -12.5q-12.5 0 -12.5 12.5q0 12.5 12.5 12.5h12.5"/>
      <path d="M700.0 331.25h25.0q0 -12.5 -12.5 -12.5q-12.5 0 -12.5 12.5q0 12.5 12.5 12.5h12.5"/>
      <path d="M782.5 343.75v-37.5m-12.5 12.5h25.0"/>
      <path d="M805.0 293.75v50m0 -12.5q0 -12.5 12.5 -12.5q12.5 0 12.5 12.5v12.5"/>
      <path d="M840.0 331.25h25.0q0 -12.5 -12.5 -12.5q-12.5 0 -12.5 12.5q0 12.5 12.5 12.5h12.5"/>
      <path d="M910.0 343.75h18.75q6.25 0 6.25 -6.25q0 -6.25 -6.25 -6.25h-12.5q-6.25 0 -6.25 -6.25q0 -6.25 6.25 -6.25h18.75"/>
      <path d="M945.0 343.75v-25.0m0 12.5q0 -12.5 12.5 -12.5q12.5 0 12.5 12.5v12.5"/>
      <path d="M992.5 343.75q-12.5 0 -12.5 -12.5q0 -12.5 12.5 -12.5q12.5 0 12.5 12.5q0 12.5 -12.5 12.5"/>
      <path d="M1015.0 318.75v18.75q0 6.25 6.25 6.25q6.25 0 6.25 -6.25v-6.25m0 6.25q0 6.25 6.25 6.25q6.25 0 6.25 -6.25m0 -18.75v25.0"/>
      <path d="M1097.5 343.75v-37.5q0 -12.5 12.5 -12.5m-25.0 25.0h25.0"/>
      <path d="M1145.0 343.75v-12.5q0 -12.5 -12.5 -12.5q-12.5 0 -12.5 12.5q0 12.5 12.5 12.5q12.5 0 12.5 -12.5"/>
      <path d="M1167.5 343.75v-50"/>
      <path d="M1202.5 343.75v-50"/>
      <path d="M1237.5 343.75v-25.0m0 -6.25v-6.25"/>
      <path d="M1260.0 343.75v-25.0m0 12.5q0 -12.5 12.5 -12.5q12.5 0 12.5 12.5v12.5"/>
      <path d="M1320.0 331.25q0 -12.5 -12.5 -12.5q-12.5 0 -12.5 12.5q0 12.5 12.5 12.5q12.5 0 12.5 -12.5m0 -12.5v25.0q0 12.5 -12.5 12.5h-12.5"/>
      <path d="M1377.5 343.75v-25.0m0 -6.25v-6.25"/>
      <path d="M1400.0 343.75v-25.0m0 12.5q0 -12.5 12.5 -12.5q12.5 0 12.5 12.5v12.5"/>
      <path d="M1470.0 343.75h18.75q6.25 0 6.25 -6.25q0 -6.25 -6.25 -6.25h-12.5q-6.25 0 -6.25 -6.25q0 -6.25 6.25 -6.25h18.75"/>
      <path d="M1505.0 318.75v12.5q0 12.5 12.5 12.5q12.5 0 12.5 -12.5m0 12.5v-25.0"/>
      <path d="M1565.0 343.75h-12.5q-12.5 0 -12.5 -12.5q0 -12.5 12.5 -12.5h12.5"/>
      <path d="M1575.0 293.75v50m0 -12.5q0 -12.5 12.5 -12.5q12.5 0 12.5 12.5v12.5"/>
      <path d="M1645.0 293.75v50m0 -12.5q0 -12.5 12.5 -12.5q12.5 0 12.5 12.5v12.5"/>
      <path d="M1680.0 331.25h25.0q0 -12.5 -12.5 -12.5q-12.5 0 -12.5 12.5q0 12.5 12.5 12.5h12.5"/>
      <path d="M1740.0 343.75v-12.5q0 -12.5 -12.5 -12.5q-12.5 0 -12.5 12.5q0 12.5 12.5 12.5q12.5 0 12.5 -12.5"/>
      <path d="M1750.0 318.75l12.5 25.0l12.5 -25.0"/>
      <path d="M1785.0 318.75l12.5 25.0m12.5 -25.0l-18.75 37.5"/>
      <path d="M1867.5 343.75v-37.5q0 -12.5 12.5 -12.5m-25.0 25.0h25.0"/>
      <path d="M1902.5 343.75v-50"/>
      <path d="M1950.0 343.75v-12.5q0 -12.5 -12.5 -12.5q-12.5 0 -12.5 12.5q0 12.5 12.5 12.5q12.5 0 12.5 -12.5"/>
      <path d="M1960.0 293.75v50m25.0 -25.0l-25.0 12.5l25.0 12.5"/>
      <path d="M1995.0 331.25h25.0q0 -12.5 -12.5 -12.5q-12.5 0 -12.5 12.5q0 12.5 12.5 12.5h12.5"/>
      <path d="M2030.0 343.75h18.75q6.25 0 6.25 -6.25q0 -6.25 -6.25 -6.25h-12.5q-6.25 0 -6.25 -6.25q0 -6.25 6.25 -6.25h18.75"/>
      <path d="M2125.0 343.75h-12.5q-12.5 0 -12.5 -12.5q0 -12.5 12.5 -12.5h12.5"/>
      <path d="M2147.5 343.75v-50"/>
      <path d="M2182.5 343.75q-12.5 0 -12.5 -12.5q0 -12.5 12.5 -12.5q12.5 0 12.5 12.5q0 12.5 -12.5 12.5"/>
      <path d="M2205.0 343.75h18.75q6.25 0 6.25 -6.25q0 -6.25 -6.25 -6.25h-12.5q-6.25 0 -6.25 -6.25q0 -6.25 6.25 -6.25h18.75"/>
      <path d="M2240.0 331.25h25.0q0 -12.5 -12.5 -12.5q-12.5 0 -12.5 12.5q0 12.5 12.5 12.5h12.5"/>
      <path d="M2322.5 343.75v-37.5m-12.5 12.5h25.0"/>
      <path d="M2357.5 343.75q-12.5 0 -12.5 -12.5q0 -12.5 12.5 -12.5q12.5 0 12.5 12.5q0 12.5 -12.5 12.5"/>
      <path d="M2415.0 318.75v12.5q0 12.5 12.5 12.5q12.5 0 12.5 -12.5m0 12.5v-25.0"/>
      <path d="M2450.0 343.75h18.75q6.25 0 6.25 -6.25q0 -6.25 -6.25 -6.25h-12.5q-6.25 0 -6.25 -6.25q0 -6.25 6.25 -6.25h18.75"/>
      <path d="M2491.25 343.75q6.25 0 6.25 -6.25v-6.25"/>
      <path d="M25.0 412.5v-12.5q0 -12.5 -12.5 -12.5q-12.5 0 -12.5 12.5q0 12.5 12.5 12.5q12.5 0 12.5 -12.5"/>
      <path d="M35.0 412.5v-25.0m0 12.5q0 -12.5 12.5 -12.5q12.5 0 12.5 12.5v12.5"/>
      <path d="M95.0 412.5v-50M95.0 400.0q0 -12.5 -12.5 -12.5q-12.5 0 -12.5 12.5q0 12.5 12.5 12.5q12.5 0 12.5 -12.5"/>
      <path d="M140.0 412.5v-50M140.0 400.0q0 -12.5 12.5 -12.5q12.5 0 12.5 12.5q0 12.5 -12.5 12.5q-12.5 0 -12.5 -12.5"/>
      <path d="M175.0 400.0h25.0q0 -12.5 -12.5 -12.5q-12.5 0 -12.5 12.5q0 12.5 12.5 12.5h12.5"/>
      <path d="M210.0 387.5l12.5 25.0m12.5 -25.0l-18.75 37.5"/>
      <path d="M257.5 412.5q-12.5 0 -12.5 -12.5q0 -12.5 12.5 -12.5q12.5 0 12.5 12.5q0 12.5 -12.5 12.5"/>
      <path d="M280.0 412.5v-25.0m0 12.5q0 -12.5 12.5 -12.5q12.5 0 12.5 12.5v12.5"/>
      <path d="M340.0 412.5v-50M340.0 400.0q0 -12.5 -12.5 -12.5q-12.5 0 -12.5 12.5q0 12.5 12.5 12.5q12.5 0 12.5 -12.5"/>
      <path d="M356.25 412.5q6.25 0 6.25 -6.25v-6.25"/>
      <path d="M432.5 412.5v-37.5m-12.5 12.5h25.0"/>
      <path d="M455.0 362.5v50m0 -12.5q0 -12.5 12.5 -12.5q12.5 0 12.5 12.5v12.5"/>
      <path d="M490.0 400.0h25.0q0 -12.5 -12.5 -12.5q-12.5 0 -12.5 12.5q0 12.5 12.5 12.5h12.5"/>
      <path d="M560.0 412.5h18.75q6.25 0 6.25 -6.25q0 -6.25 -6.25 -6.25h-12.5q-6.25 0 -6.25 -6.25q0 -6.25 6.25 -6.25h18.75"/>
      <path d="M595.0 387.5v12.5q0 12.5 12.5 12.5q12.5 0 12.5 -12.5m0 12.5v-25.0"/>
      <path d="M630.0 412.5v-25.0m0 12.5q0 -12.5 12.5 -12.5q12.5 0 12.5 12.5v12.5"/>
      <path d="M700.0 412.5h18.75q6.25 0 6.25 -6.25q0 -6.25 -6.25 -6.25h-12.5q-6.25 0 -6.25 -6.25q0 -6.25 6.25 -6.25h18.75"/>
      <path d="M735.0 362.5v50m0 -12.5q0 -12.5 12.5 -12.5q12.5 0 12.5 12.5v12.5"/>
      <path d="M782.5 412.5v-25.0m0 -6.25v-6.25"/>
      <path d="M805.0 412.5v-25.0m0 12.5q0 -12.5 12.5 -12.5q12.5 0 12.5 12.5v12.5"/>
      <path d="M852.5 412.5v-25.0m0 -6.25v-6.25"/>
      <path d="M875.0 412.5v-25.0m0 12.5q0 -12.5 12.5 -12.5q12.5 0 12.5 12.5v12.5"/>
      <path d="M935.0 400.0q0 -12.5 -12.5 -12.5q-12.5 0 -12.5 12.5q0 12.5 12.5 12.5q12.5 0 12.5 -12.5m0 -12.5v25.0q0 12.5 -12.5 12.5h-12.5"/>
      <path d="M980.0 412.5v-25.0m0 6.25q0 -6.25 6.25 -6.25q6.25 0 6.25 6.25v6.25m0 -6.25q0 -6.25 6.25 -6.25q6.25 0 6.25 6.25v18.75"/>
      <path d="M1027.5 412.5q-12.5 0 -12.5 -12.5q0 -12.5 12.5 -12.5q12.5 0 12.5 12.5q0 12.5 -12.5 12.5"/>
      <path d="M1050.0 412.5v-25.0m0 12.5q0 -12.5 12.5 -12.5q12.5 0 12.5 12.5"/>
      <path d="M1085.0 400.0h25.0q0 -12.5 -12.5 -12.5q-12.5 0 -12.5 12.5q0 12.5 12.5 12.5h12.5"/>
      <path d="M1180.0 412.5v-12.5q0 -12.5 -12.5 -12.5q-12.5 0 -12.5 12.5q0 12.5 12.5 12.5q12.5 0 12.5 -12.5"/>
      <path d="M1190.0 412.5v-25.0m0 12.5q0 -12.5 12.5 -12.5q12.5 0 12.5 12.5v12.5"/>
      <path d="M1250.0 412.5v-50M1250.0 400.0q0 -12.5 -12.5 -12.5q-12.5 0 -12.5 12.5q0 12.5 12.5 12.5q12.5 0 12.5 -12.5"/>
      <path d="M1295.0 412.5v-25.0m0 6.25q0 -6.25 6.25 -6.25q6.25 0 6.25 6.25v6.25m0 -6.25q0 -6.25 6.25 -6.25q6.25 0 6.25 6.25v18.75"/>
      <path d="M1342.5 412.5q-12.5 0 -12.5 -12.5q0 -12.5 12.5 -12.5q12.5 0 12.5 12.5q0 12.5 -12.5 12.5"/>
      <path d="M1365.0 412.5v-25.0m0 12.5q0 -12.5 12.5 -12.5q12.5 0 12.5 12.5"/>
      <path d="M1400.0 400.0h25.0q0 -12.5 -12.5 -12.5q-12.5 0 -12.5 12.5q0 12.5 12.5 12.5h12.5"/>
      <path d="M1470.0 412.5v-50M1470.0 400.0q0 -12.5 12.5 -12.5q12.5 0 12.5 12.5q0 12.5 -12.5 12.5q-12.5 0 -12.5 -12.5"/>
      <path d="M1505.0 412.5v-25.0m0 12.5q0 -12.5 12.5 -12.5q12.5 0 12.5 12.5"/>
      <path d="M1552.5 412.5v-25.0m0 -6.25v-6.25"/>
      <path d="M1600.0 400.0q0 -12.5 -12.5 -12.5q-12.5 0 -12.5 12.5q0 12.5 12.5 12.5q12.5 0 12.5 -12.5m0 -12.5v25.0q0 12.5 -12.5 12.5h-12.5"/>
      <path d="M1610.0 362.5v50m0 -12.5q0 -12.5 12.5 -12.5q12.5 0 12.5 12.5v12.5"/>
      <path d="M1657.5 412.5v-37.5m-12.5 12.5h25.0"/>
      <path d="M1692.5 412.5v-50"/>
      <path d="M1715.0 387.5l12.5 25.0m12.5 -25.0l-18.75 37.5"/>
      <path d="M1810.0 412.5v-12.5q0 -12.5 -12.5 -12.5q-12.5 0 -12.5 12.5q0 12.5 12.5 12.5q12.5 0 12.5 -12.5"/>
      <path d="M1820.0 412.5h18.75q6.25 0 6.25 -6.25q0 -6.25 -6.25 -6.25h-12.5q-6.25 0 -6.25 -6.25q0 -6.25 6.25 -6.25h18.75"/>
      <path d="M1902.5 412.5v-25.0m0 -6.25v-6.25"/>
      <path d="M1937.5 412.5v-37.5m-12.5 12.5h25.0"/>
      <path d="M1995.0 412.5h18.75q6.25 0 6.25 -6.25q0 -6.25 -6.25 -6.25h-12.5q-6.25 0 -6.25 -6.25q0 -6.25 6.25 -6.25h18.75"/>
      <path d="M2055.0 412.5v-12.5q0 -12.5 -12.5 -12.5q-12.5 0 -12.5 12.5q0 12.5 12.5 12.5q12.5 0 12.5 -12.5"/>
      <path d="M2065.0 412.5v-25.0m0 12.5q0 -12.5 12.5 -12.5q12.5 0 12.5 12.5v12.5"/>
      <path d="M2100.0 362.5v50m25.0 -25.0l-25.0 12.5l25.0 12.5"/>
      <path d="M2195.0 412.5v-50M2195.0 400.0q0 -12.5 -12.5 -12.5q-12.5 0 -12.5 12.5q0 12.5 12.5 12.5q12.5 0 12.5 -12.5"/>
      <path d="M2217.5 412.5q-12.5 0 -12.5 -12.5q0 -12.5 12.5 -12.5q12.5 0 12.5 12.5q0 12.5 -12.5 12.5"/>
      <path d="M2240.0 387.5v18.75q0 6.25 6.25 6.25q6.25 0 6.25 -6.25v-6.25m0 6.25q0 6.25 6.25 6.25q6.25 0 6.25 -6.25m0 -18.75v25.0"/>
      <path d="M2275.0 412.5v-25.0m0 12.5q0 -12.5 12.5 -12.5q12.5 0 12.5 12.5v12.5"/>
      <path d="M12.5 481.25v-37.5m-12.5 12.5h25.0"/>
      <path d="M47.5 481.25q-12.5 0 -12.5 -12.5q0 -12.5 12.5 -12.5q12.5 0 12.5 12.5q0 12.5 -12.5 12.5"/>
      <path d="M70.0 456.25v18.75q0 6.25 6.25 6.25q6.25 0 6.25 -6.25v-6.25m0 6.25q0 6.25 6.25 6.25q6.25 0 6.25 -6.25m0 -18.75v25.0"/>
      <path d="M130.0 481.25v-12.5q0 -12.5 -12.5 -12.5q-12.5 0 -12.5 12.5q0 12.5 12.5 12.5q12.5 0 12.5 -12.5"/>
      <path d="M140.0 481.25v-25.0m0 12.5q0 -12.5 12.5 -12.5q12.5 0 12.5 12.5"/>
      <path d="M200.0 481.25v-50M200.0 468.75q0 -12.5 -12.5 -12.5q-12.5 0 -12.5 12.5q0 12.5 12.5 12.5q12.5 0 12.5 -12.5"/>
      <path d="M210.0 481.25h18.75q6.25 0 6.25 -6.25q0 -6.25 -6.25 -6.25h-12.5q-6.25 0 -6.25 -6.25q0 -6.25 6.25 -6.25h18.75"/>
      <path d="M292.5 481.25v-37.5m-12.5 12.5h25.0"/>
      <path d="M315.0 431.25v50m0 -12.5q0 -12.5 12.5 -12.5q12.5 0 12.5 12.5v12.5"/>
      <path d="M350.0 468.75h25.0q0 -12.5 -12.5 -12.5q-12.5 0 -12.5 12.5q0 12.5 12.5 12.5h12.5"/>
      <path d="M432.5 481.25v-37.5q0 -12.5 12.5 -12.5m-25.0 25.0h25.0"/>
      <path d="M480.0 481.25v-12.5q0 -12.5 -12.5 -12.5q-12.5 0 -12.5 12.5q0 12.5 12.5 12.5q12.5 0 12.5 -12.5"/>
      <path d="M490.0 481.25v-25.0m0 12.5q0 -12.5 12.5 -12.5q12.5 0 12.5 12.5"/>
      <path d="M560.0 481.25v-25.0m0 6.25q0 -6.25 6.25 -6.25q6.25 0 6.25 6.25v6.25m0 -6.25q0 -6.25 6.25 -6.25q6.25 0 6.25 6.25v18.75"/>
      <path d="M607.5 481.25q-12.5 0 -12.5 -12.5q0 -12.5 12.5 -12.5q12.5 0 12.5 12.5q0 12.5 -12.5 12.5"/>
      <path d="M630.0 456.25v12.5q0 12.5 12.5 12.5q12.5 0 12.5 -12.5m0 12.5v-25.0"/>
      <path d="M665.0 481.25v-25.0m0 12.5q0 -12.5 12.5 -12.5q12.5 0 12.5 12.5v12.5"/>
      <path d="M712.5 481.25v-37.5m-12.5 12.5h25.0"/>
      <path d="M760.0 481.25v-12.5q0 -12.5 -12.5 -12.5q-12.5 0 -12.5 12.5q0 12.5 12.5 12.5q12.5 0 12.5 -12.5"/>
      <path d="M782.5 481.25v-25.0m0 -6.25v-6.25"/>
      <path d="M805.0 481.25v-25.0m0 12.5q0 -12.5 12.5 -12.5q12.5 0 12.5 12.5v12.5"/>
      <path d="M887.5 481.25v-37.5m-12.5 12.5h25.0"/>
      <path d="M922.5 481.25q-12.5 0 -12.5 -12.5q0 -12.5 12.5 -12.5q12.5 0 12.5 12.5q0 12.5 -12.5 12.5"/>
      <path d="M945.0 468.75q0 -12.5 12.5 -12.5q12.5 0 12.5 12.5q0 12.5 -12.5 12.5q-12.5 0 -12.5 -12.5m0 -12.5v37.5"/>
      <path d="M980.0 481.25h18.75q6.25 0 6.25 -6.25q0 -6.25 -6.25 -6.25h-12.5q-6.25 0 -6.25 -6.25q0 -6.25 6.25 -6.25h18.75"/>
      <path d="M1027.5 481.25v-6.25"/>
      <path d="M1085.0 481.25h12.5q12.5 0 12.5 -12.5q0 -12.5 -12.5 -12.5q-12.5 0 -12.5 -12.5q0 -12.5 12.5 -12.5h12.5"/>
      <path d="M1120.0 456.25v18.75q0 6.25 6.25 6.25q6.25 0 6.25 -6.25v-6.25m0 6.25q0 6.25 6.25 6.25q6.25 0 6.25 -6.25m0 -18.75v25.0"/>
      <path d="M1155.0 468.75h25.0q0 -12.5 -12.5 -12.5q-12.5 0 -12.5 12.5q0 12.5 12.5 12.5h12.5"/>
      <path d="M1190.0 468.75h25.0q0 -12.5 -12.5 -12.5q-12.5 0 -12.5 12.5q0 12.5 12.5 12.5h12.5"/>
      <path d="M1225.0 468.75q0 -12.5 12.5 -12.5q12.5 0 12.5 12.5q0 12.5 -12.5 12.5q-12.5 0 -12.5 -12.5m0 -12.5v37.5"/>
      <path d="M1272.5 481.25v-25.0m0 -6.25v-6.25"/>
      <path d="M1295.0 481.25v-25.0m0 12.5q0 -12.5 12.5 -12.5q12.5 0 12.5 12.5v12.5"/>
      <path d="M1355.0 468.75q0 -12.5 -12.5 -12.5q-12.5 0 -12.5 12.5q0 12.5 12.5 12.5q12.5 0 12.5 -12.5m0 -12.5v25.0q0 12.5 -12.5 12.5h-12.5"/>
      <path d="M1412.5 481.25v-37.5m-12.5 12.5h25.0"/>
      <path d="M1435.0 431.25v50m0 -12.5q0 -12.5 12.5 -12.5q12.5 0 12.5 12.5v12.5"/>
      <path d="M1470.0 468.75h25.0q0 -12.5 -12.5 -12.5q-12.5 0 -12.5 12.5q0 12.5 12.5 12.5h12.5"/>
      <path d="M1565.0 468.75q0 -12.5 -12.5 -12.5q-12.5 0 -12.5 12.5q0 12.5 12.5 12.5q12.5 0 12.5 -12.5m0 -12.5v25.0q0 12.5 -12.5 12.5h-12.5"/>
      <path d="M1587.5 481.25v-50"/>
      <path d="M1635.0 481.25v-12.5q0 -12.5 -12.5 -12.5q-12.5 0 -12.5 12.5q0 12.5 12.5 12.5q12.5 0 12.5 -12.5"/>
      <path d="M1645.0 481.25h18.75q6.25 0 6.25 -6.25q0 -6.25 -6.25 -6.25h-12.5q-6.25 0 -6.25 -6.25q0 -6.25 6.25 -6.25h18.75"/>
      <path d="M1680.0 481.25h18.75q6.25 0 6.25 -6.25q0 -6.25 -6.25 -6.25h-12.5q-6.25 0 -6.25 -6.25q0 -6.25 6.25 -6.25h18.75"/>
      <path d="M1775.0 481.25v-12.5q0 -12.5 -12.5 -12.5q-12.5 0 -12.5 12.5q0 12.5 12.5 12.5q12.5 0 12.5 -12.5"/>
      <path d="M1797.5 481.25v-50"/>
      <path d="M1832.5 481.25v-50"/>
      <path d="M1915.0 481.25v-12.5q0 -12.5 -12.5 -12.5q-12.5 0 -12.5 12.5q0 12.5 12.5 12.5q12.5 0 12.5 -12.5"/>
      <path d="M1925.0 481.25v-25.0m0 12.5q0 -12.5 12.5 -12.5q12.5 0 12.5 12.5"/>
      <path d="M1972.5 481.25q-12.5 0 -12.5 -12.5q0 -12.5 12.5 -12.5q12.5 0 12.5 12.5q0 12.5 -12.5 12.5"/>
      <path d="M1995.0 456.25v12.5q0 12.5 12.5 12.5q12.5 0 12.5 -12.5m0 12.5v-25.0"/>
      <path d="M2030.0 481.25v-25.0m0 12.5q0 -12.5 12.5 -12.5q12.5 0 12.5 12.5v12.5"/>
      <path d="M2090.0 481.25v-50M2090.0 468.75q0 -12.5 -12.5 -12.5q-12.5 0 -12.5 12.5q0 12.5 12.5 12.5q12.5 0 12.5 -12.5"/>
      <path d="M2135.0 456.25v12.5q0 12.5 12.5 12.5q12.5 0 12.5 -12.5m0 12.5v-25.0"/>
      <path d="M2170.0 481.25h18.75q6.25 0 6.25 -6.25q0 -6.25 -6.25 -6.25h-12.5q-6.25 0 -6.25 -6.25q0 -6.25 6.25 -6.25h18.75"/>
      <path d="M2240.0 481.25h25.0m-12.5 0v-50m-12.5 0h25.0"/>
      <path d="M2335.0 481.25h-12.5q-12.5 0 -12.5 -12.5q0 -12.5 12.5 -12.5h12.5"/>
      <path d="M2357.5 481.25q-12.5 0 -12.5 -12.5q0 -12.5 12.5 -12.5q12.5 0 12.5 12.5q0 12.5 -12.5 12.5"/>
      <path d="M2380.0 456.25v12.5q0 12.5 12.5 12.5q12.5 0 12.5 -12.5m0 12.5v-25.0"/>
      <path d="M2427.5 481.25v-50"/>
      <path d="M2475.0 481.25v-50M2475.0 468.75q0 -12.5 -12.5 -12.5q-12.5 0 -12.5 12.5q0 12.5 12.5 12.5q12.5 0 12.5 -12.5"/>
      <path d="M0 550.0h18.75q6.25 0 6.25 -6.25q0 -6.25 -6.25 -6.25h-12.5q-6.25 0 -6.25 -6.25q0 -6.25 6.25 -6.25h18.75"/>
      <path d="M35.0 537.5h25.0q0 -12.5 -12.5 -12.5q-12.5 0 -12.5 12.5q0 12.5 12.5 12.5h12.5"/>
      <path d="M70.0 537.5h25.0q0 -12.5 -12.5 -12.5q-12.5 0 -12.5 12.5q0 12.5 12.5 12.5h12.5"/>
      <path d="M140.0 500.0v50m0 -12.5q0 -12.5 12.5 -12.5q12.5 0 12.5 12.5v12.5"/>
      <path d="M175.0 537.5h25.0q0 -12.5 -12.5 -12.5q-12.5 0 -12.5 12.5q0 12.5 12.5 12.5h12.5"/>
      <path d="M210.0 550.0v-25.0m0 12.5q0 -12.5 12.5 -12.5q12.5 0 12.5 12.5"/>
      <path d="M245.0 537.5h25.0q0 -12.5 -12.5 -12.5q-12.5 0 -12.5 12.5q0 12.5 12.5 12.5h12.5"/>
      <path d="M340.0 550.0v-12.5q0 -12.5 -12.5 -12.5q-12.5 0 -12.5 12.5q0 12.5 12.5 12.5q12.5 0 12.5 -12.5"/>
      <path d="M350.0 550.0v-25.0m0 12.5q0 -12.5 12.5 -12.5q12.5 0 12.5 12.5v12.5"/>
      <path d="M410.0 550.0v-50M410.0 537.5q0 -12.5 -12.5 -12.5q-12.5 0 -12.5 12.5q0 12.5 12.5 12.5q12.5 0 12.5 -12.5"/>
      <path d="M467.5 550.0v-37.5m-12.5 12.5h25.0"/>
      <path d="M490.0 500.0v50m0 -12.5q0 -12.5 12.5 -12.5q12.5 0 12.5 12.5v12.5"/>
      <path d="M525.0 537.5h25.0q0 -12.5 -12.5 -12.5q-12.5 0 -12.5 12.5q0 12.5 12.5 12.5h12.5"/>
      <path d="M560.0 550.0v-25.0m0 12.5q0 -12.5 12.5 -12.5q12.5 0 12.5 12.5"/>
      <path d="M595.0 537.5h25.0q0 -12.5 -12.5 -12.5q-12.5 0 -12.5 12.5q0 12.5 12.5 12.5h12.5"/>
      <path d="M690.0 550.0v-50M690.0 537.5q0 -12.5 -12.5 -12.5q-12.5 0 -12.5 12.5q0 12.5 12.5 12.5q12.5 0 12.5 -12.5"/>
      <path d="M712.5 550.0q-12.5 0 -12.5 -12.5q0 -12.5 12.5 -12.5q12.5 0 12.5 12.5q0 12.5 -12.5 12.5"/>
      <path d="M747.5 550.0v-37.5m-12.5 12.5h25.0"/>
      <path d="M770.0 550.0h18.75q6.25 0 6.25 -6.25q0 -6.25 -6.25 -6.25h-12.5q-6.25 0 -6.25 -6.25q0 -6.25 6.25 -6.25h18.75"/>
      <path d="M840.0 550.0v-25.0m0 6.25q0 -6.25 6.25 -6.25q6.25 0 6.25 6.25v6.25m0 -6.25q0 -6.25 6.25 -6.25q6.25 0 6.25 6.25v18.75"/>
      <path d="M887.5 550.0q-12.5 0 -12.5 -12.5q0 -12.5 12.5 -12.5q12.5 0 12.5 12.5q0 12.5 -12.5 12.5"/>
      <path d="M910.0 525.0l12.5 25.0l12.5 -25.0"/>
      <path d="M957.5 550.0v-25.0m0 -6.25v-6.25"/>
      <path d="M980.0 550.0v-25.0m0 12.5q0 -12.5 12.5 -12.5q12.5 0 12.5 12.5v12.5"/>
      <path d="M1040.0 537.5q0 -12.5 -12.5 -12.5q-12.5 0 -12.5 12.5q0 12.5 12.5 12.5q12.5 0 12.5 -12.5m0 -12.5v25.0q0 12.5 -12.5 12.5h-12.5"/>
      <path d="M1085.0 550.0h18.75q6.25 0 6.25 -6.25q0 -6.25 -6.25 -6.25h-12.5q-6.25 0 -6.25 -6.25q0 -6.25 6.25 -6.25h18.75"/>
      <path d="M1132.5 550.0v-25.0m0 -6.25v-6.25"/>
      <path d="M1155.0 550.0v-25.0m0 12.5q0 -12.5 12.5 -12.5q12.5 0 12.5 12.5v12.5"/>
      <path d="M1215.0 537.5q0 -12.5 -12.5 -12.5q-12.5 0 -12.5 12.5q0 12.5 12.5 12.5q12.5 0 12.5 -12.5m0 -12.5v25.0q0 12.5 -12.5 12.5h-12.5"/>
      <path d="M1237.5 550.0v-50"/>
      <path d="M1260.0 525.0l12.5 25.0m12.5 -25.0l-18.75 37.5"/>
      <path d="M1355.0 550.0v-12.5q0 -12.5 -12.5 -12.5q-12.5 0 -12.5 12.5q0 12.5 12.5 12.5q12.5 0 12.5 -12.5"/>
      <path d="M1365.0 550.0v-25.0m0 12.5q0 -12.5 12.5 -12.5q12.5 0 12.5 12.5v12.5"/>
      <path d="M1425.0 550.0v-50M1425.0 537.5q0 -12.5 -12.5 -12.5q-12.5 0 -12.5 12.5q0 12.5 12.5 12.5q12.5 0 12.5 -12.5"/>
      <path d="M1482.5 550.0v-25.0m0 -6.25v-6.25"/>
      <path d="M1505.0 550.0v-25.0m0 12.5q0 -12.5 12.5 -12.5q12.5 0 12.5 12.5v12.5"/>
      <path d="M1587.5 550.0v-37.5m-12.5 12.5h25.0"/>
      <path d="M1610.0 525.0v18.75q0 6.25 6.25 6.25q6.25 0 6.25 -6.25v-6.25m0 6.25q0 6.25 6.25 6.25q6.25 0 6.25 -6.25m0 -18.75v25.0"/>
      <path d="M1657.5 550.0q-12.5 0 -12.5 -12.5q0 -12.5 12.5 -12.5q12.5 0 12.5 12.5q0 12.5 -12.5 12.5"/>
      <path d="M1680.0 550.0h18.75q6.25 0 6.25 -6.25q0 -6.25 -6.25 -6.25h-12.5q-6.25 0 -6.25 -6.25q0 -6.25 6.25 -6.25h18.75"/>
      <path d="M1775.0 550.0v-12.5q0 -12.5 -12.5 -12.5q-12.5 0 -12.5 12.5q0 12.5 12.5 12.5q12.5 0 12.5 -12.5"/>
      <path d="M1785.0 550.0v-25.0m0 12.5q0 -12.5 12.5 -12.5q12.5 0 12.5 12.5v12.5"/>
      <path d="M1845.0 550.0v-50M1845.0 537.5q0 -12.5 -12.5 -12.5q-12.5 0 -12.5 12.5q0 12.5 12.5 12.5q12.5 0 12.5 -12.5"/>
      <path d="M1902.5 550.0v-37.5m-12.5 12.5h25.0"/>
      <path d="M1925.0 500.0v50m0 -12.5q0 -12.5 12.5 -12.5q12.5 0 12.5 12.5v12.5"/>
      <path d="M1960.0 550.0v-25.0m0 12.5q0 -12.5 12.5 -12.5q12.5 0 12.5 12.5"/>
      <path d="M1995.0 537.5h25.0q0 -12.5 -12.5 -12.5q-12.5 0 -12.5 12.5q0 12.5 12.5 12.5h12.5"/>
      <path d="M2030.0 537.5h25.0q0 -12.5 -12.5 -12.5q-12.5 0 -12.5 12.5q0 12.5 12.5 12.5h12.5"/>
      <path d="M2065.0 550.0h18.75q6.25 0 6.25 -6.25q0 -6.25 -6.25 -6.25h-12.5q-6.25 0 -6.25 -6.25q0 -6.25 6.25 -6.25h18.75"/>
      <path d="M2160.0 550.0v-12.5q0 -12.5 -12.5 -12.5q-12.5 0 -12.5 12.5q0 12.5 12.5 12.5q12.5 0 12.5 -12.5"/>
      <path d="M2170.0 550.0v-25.0m0 12.5q0 -12.5 12.5 -12.5q12.5 0 12.5 12.5v12.5"/>
      <path d="M2230.0 550.0v-50M2230.0 537.5q0 -12.5 -12.5 -12.5q-12.5 0 -12.5 12.5q0 12.5 12.5 12.5q12.5 0 12.5 -12.5"/>
      <path d="M2287.5 550.0v-50"/>
      <path d="M2335.0 550.0v-12.5q0 -12.5 -12.5 -12.5q-12.5 0 -12.5 12.5q0 12.5 12.5 12.5q12.5 0 12.5 -12.5"/>
      <path d="M2345.0 550.0v-25.0m0 12.5q0 -12.5 12.5 -12.5q12.5 0 12.5 12.5"/>
      <path d="M2405.0 537.5q0 -12.5 -12.5 -12.5q-12.5 0 -12.5 12.5q0 12.5 12.5 12.5q12.5 0 12.5 -12.5m0 -12.5v25.0q0 12.5 -12.5 12.5h-12.5"/>
      <path d="M2415.0 537.5h25.0q0 -12.5 -12.5 -12.5q-12.5 0 -12.5 12.5q0 12.5 12.5 12.5h12.5"/>
      <path d="M2450.0 550.0v-25.0m0 12.5q0 -12.5 12.5 -12.5q12.5 0 12.5 12.5"/>
      <path d="M0 618.75v-25.0m0 12.5q0 -12.5 12.5 -12.5q12.5 0 12.5 12.5v12.5"/>
      <path d="M35.0 593.75v12.5q0 12.5 12.5 12.5q12.5 0 12.5 -12.5m0 12.5v-25.0"/>
      <path d="M70.0 618.75v-25.0m0 6.25q0 -6.25 6.25 -6.25q6.25 0 6.25 6.25v6.25m0 -6.25q0 -6.25 6.25 -6.25q6.25 0 6.25 6.25v18.75"/>
      <path d="M105.0 618.75v-50M105.0 606.25q0 -12.5 12.5 -12.5q12.5 0 12.5 12.5q0 12.5 -12.5 12.5q-12.5 0 -12.5 -12.5"/>
      <path d="M140.0 606.25h25.0q0 -12.5 -12.5 -12.5q-12.5 0 -12.5 12.5q0 12.5 12.5 12.5h12.5"/>
      <path d="M175.0 618.75v-25.0m0 12.5q0 -12.5 12.5 -12.5q12.5 0 12.5 12.5"/>
      <path d="M210.0 618.75h18.75q6.25 0 6.25 -6.25q0 -6.25 -6.25 -6.25h-12.5q-6.25 0 -6.25 -6.25q0 -6.25 6.25 -6.25h18.75"/>
      <path d="M245.0 593.75h25.0"/>
      <path d="M280.0 593.75h25.0"/>
      <path d="M327.5 618.75v-37.5m-12.5 12.5h25.0"/>
      <path d="M350.0 568.75v50m0 -12.5q0 -12.5 12.5 -12.5q12.5 0 12.5 12.5v12.5"/>
      <path d="M385.0 606.25h25.0q0 -12.5 -12.5 -12.5q-12.5 0 -12.5 12.5q0 12.5 12.5 12.5h12.5"/>
      <path d="M455.0 593.75v18.75q0 6.25 6.25 6.25q6.25 0 6.25 -6.25v-6.25m0 6.25q0 6.25 6.25 6.25q6.25 0 6.25 -6.25m0 -18.75v25.0"/>
      <path d="M502.5 618.75q-12.5 0 -12.5 -12.5q0 -12.5 12.5 -12.5q12.5 0 12.5 12.5q0 12.5 -12.5 12.5"/>
      <path d="M537.5 618.75v-50"/>
      <path d="M560.0 593.75l12.5 25.0l12.5 -25.0"/>
      <path d="M595.0 606.25h25.0q0 -12.5 -12.5 -12.5q-12.5 0 -12.5 12.5q0 12.5 12.5 12.5h12.5"/>
      <path d="M630.0 618.75h18.75q6.25 0 6.25 -6.25q0 -6.25 -6.25 -6.25h-12.5q-6.25 0 -6.25 -6.25q0 -6.25 6.25 -6.25h18.75"/>
      <path d="M700.0 593.75v18.75q0 6.25 6.25 6.25q6.25 0 6.25 -6.25v-6.25m0 6.25q0 6.25 6.25 6.25q6.25 0 6.25 -6.25m0 -18.75v25.0"/>
      <path d="M735.0 606.25h25.0q0 -12.5 -12.5 -12.5q-12.5 0 -12.5 12.5q0 12.5 12.5 12.5h12.5"/>
      <path d="M770.0 618.75v-25.0m0 12.5q0 -12.5 12.5 -12.5q12.5 0 12.5 12.5"/>
      <path d="M805.0 606.25h25.0q0 -12.5 -12.5 -12.5q-12.5 0 -12.5 12.5q0 12.5 12.5 12.5h12.5"/>
      <path d="M900.0 606.25q0 -12.5 -12.5 -12.5q-12.5 0 -12.5 12.5q0 12.5 12.5 12.5q12.5 0 12.5 -12.5m0 -12.5v25.0q0 12.5 -12.5 12.5h-12.5"/>
      <path d="M935.0 618.75v-12.5q0 -12.5 -12.5 -12.5q-12.5 0 -12.5 12.5q0 12.5 12.5 12.5q12.5 0 12.5 -12.5"/>
      <path d="M957.5 618.75v-37.5m-12.5 12.5h25.0"/>
      <path d="M980.0 568.75v50m0 -12.5q0 -12.5 12.5 -12.5q12.5 0 12.5 12.5v12.5"/>
      <path d="M1015.0 606.25h25.0q0 -12.5 -12.5 -12.5q-12.5 0 -12.5 12.5q0 12.5 12.5 12.5h12.5"/>
      <path d="M1050.0 618.75v-25.0m0 12.5q0 -12.5 12.5 -12.5q12.5 0 12.5 12.5"/>
      <path d="M1097.5 618.75v-25.0m0 -6.25v-6.25"/>
      <path d="M1120.0 618.75v-25.0m0 12.5q0 -12.5 12.5 -12.5q12.5 0 12.5 12.5v12.5"/>
      <path d="M1180.0 606.25q0 -12.5 -12.5 -12.5q-12.5 0 -12.5 12.5q0 12.5 12.5 12.5q12.5 0 12.5 -12.5m0 -12.5v25.0q0 12.5 -12.5 12.5h-12.5"/>
      <path d="M1237.5 618.75v-37.5q0 -12.5 12.5 -12.5m-25.0 25.0h25.0"/>
      <path d="M1272.5 618.75q-12.5 0 -12.5 -12.5q0 -12.5 12.5 -12.5q12.5 0 12.5 12.5q0 12.5 -12.5 12.5"/>
      <path d="M1295.0 618.75v-25.0m0 12.5q0 -12.5 12.5 -12.5q12.5 0 12.5 12.5"/>
      <path d="M1377.5 618.75v-37.5m-12.5 12.5h25.0"/>
      <path d="M1400.0 568.75v50m0 -12.5q0 -12.5 12.5 -12.5q12.5 0 12.5 12.5v12.5"/>
      <path d="M1435.0 606.25h25.0q0 -12.5 -12.5 -12.5q-12.5 0 -12.5 12.5q0 12.5 12.5 12.5h12.5"/>
      <path d="M1482.5 618.75v-25.0m0 -6.25v-6.25"/>
      <path d="M1505.0 618.75v-25.0m0 12.5q0 -12.5 12.5 -12.5q12.5 0 12.5 12.5"/>
      <path d="M1575.0 606.25q0 -12.5 12.5 -12.5q12.5 0 12.5 12.5q0 12.5 -12.5 12.5q-12.5 0 -12.5 -12.5m0 -12.5v37.5"/>
      <path d="M1610.0 618.75v-25.0m0 12.5q0 -12.5 12.5 -12.5q12.5 0 12.5 12.5"/>
      <path d="M1645.0 606.25h25.0q0 -12.5 -12.5 -12.5q-12.5 0 -12.5 12.5q0 12.5 12.5 12.5h12.5"/>
      <path d="M1680.0 593.75l12.5 25.0m12.5 -25.0l-18.75 37.5"/>
      <path d="M1727.5 618.75v-6.25"/>
      <path d="M25.0 687.5h-25.0v-50h25.0m-25.0 25.0h12.5"/>
      <path d="M35.0 662.5l12.5 25.0l12.5 -25.0"/>
      <path d="M70.0 675.0h25.0q0 -12.5 -12.5 -12.5q-12.5 0 -12.5 12.5q0 12.5 12.5 12.5h12.5"/>
      <path d="M105.0 687.5v-25.0m0 12.5q0 -12.5 12.5 -12.5q12.5 0 12.5 12.5"/>
      <path d="M140.0 662.5l12.5 25.0m12.5 -25.0l-18.75 37.5"/>
      <path d="M222.5 687.5v-25.0m0 -6.25v-6.25"/>
      <path d="M245.0 687.5v-25.0m0 12.5q0 -12.5 12.5 -12.5q12.5 0 12.5 12.5v12.5"/>
      <path d="M280.0 687.5h18.75q6.25 0 6.25 -6.25q0 -6.25 -6.25 -6.25h-12.5q-6.25 0 -6.25 -6.25q0 -6.25 6.25 -6.25h18.75"/>
      <path d="M327.5 687.5v-37.5m-12.5 12.5h25.0"/>
      <path d="M375.0 687.5v-12.5q0 -12.5 -12.5 -12.5q-12.5 0 -12.5 12.5q0 12.5 12.5 12.5q12.5 0 12.5 -12.5"/>
      <path d="M385.0 687.5v-25.0m0 12.5q0 -12.5 12.5 -12.5q12.5 0 12.5 12.5v12.5"/>
      <path d="M432.5 687.5v-37.5m-12.5 12.5h25.0"/>
      <path d="M490.0 687.5h18.75q6.25 0 6.25 -6.25q0 -6.25 -6.25 -6.25h-12.5q-6.25 0 -6.25 -6.25q0 -6.25 6.25 -6.25h18.75"/>
      <path d="M525.0 675.0h25.0q0 -12.5 -12.5 -12.5q-12.5 0 -12.5 12.5q0 12.5 12.5 12.5h12.5"/>
      <path d="M560.0 675.0h25.0q0 -12.5 -12.5 -12.5q-12.5 0 -12.5 12.5q0 12.5 12.5 12.5h12.5"/>
      <path d="M595.0 687.5v-25.0m0 6.25q0 -6.25 6.25 -6.25q6.25 0 6.25 6.25v6.25m0 -6.25q0 -6.25 6.25 -6.25q6.25 0 6.25 6.25v18.75"/>
      <path d="M630.0 675.0h25.0q0 -12.5 -12.5 -12.5q-12.5 0 -12.5 12.5q0 12.5 12.5 12.5h12.5"/>
      <path d="M690.0 687.5v-50M690.0 675.0q0 -12.5 -12.5 -12.5q-12.5 0 -12.5 12.5q0 12.5 12.5 12.5q12.5 0 12.5 -12.5"/>
      <path d="M760.0 687.5v-12.5q0 -12.5 -12.5 -12.5q-12.5 0 -12.5 12.5q0 12.5 12.5 12.5q12.5 0 12.5 -12.5"/>
      <path d="M770.0 687.5v-25.0m0 12.5q0 -12.5 12.5 -12.5q12.5 0 12.5 12.5v12.5"/>
      <path d="M865.0 687.5v-12.5q0 -12.5 -12.5 -12.5q-12.5 0 -12.5 12.5q0 12.5 12.5 12.5q12.5 0 12.5 -12.5"/>
      <path d="M900.0 675.0q0 -12.5 -12.5 -12.5q-12.5 0 -12.5 12.5q0 12.5 12.5 12.5q12.5 0 12.5 -12.5m0 -12.5v25.0q0 12.5 -12.5 12.5h-12.5"/>
      <path d="M910.0 675.0h25.0q0 -12.5 -12.5 -12.5q-12.5 0 -12.5 12.5q0 12.5 12.5 12.5h12.5"/>
      <path d="M980.0 662.5v18.75q0 6.25 6.25 6.25q6.25 0 6.25 -6.25v-6.25m0 6.25q0 6.25 6.25 6.25q6.25 0 6.25 -6.25m0 -18.75v25.0"/>
      <path d="M1015.0 637.5v50m0 -12.5q0 -12.5 12.5 -12.5q12.5 0 12.5 12.5v12.5"/>
      <path d="M1062.5 687.5v-25.0m0 -6.25v-6.25"/>
      <path d="M1097.5 687.5v-50"/>
      <path d="M1120.0 687.5h18.75q6.25 0 6.25 -6.25q0 -6.25 -6.25 -6.25h-12.5q-6.25 0 -6.25 -6.25q0 -6.25 6.25 -6.25h18.75"/>
      <path d="M1167.5 687.5v-37.5m-12.5 12.5h25.0"/>
      <path d="M1225.0 662.5v18.75q0 6.25 6.25 6.25q6.25 0 6.25 -6.25v-6.25m0 6.25q0 6.25 6.25 6.25q6.25 0 6.25 -6.25m0 -18.75v25.0"/>
      <path d="M1260.0 675.0h25.0q0 -12.5 -12.5 -12.5q-12.5 0 -12.5 12.5q0 12.5 12.5 12.5h12.5"/>
      <path d="M1330.0 662.5v18.75q0 6.25 6.25 6.25q6.25 0 6.25 -6.25v-6.25m0 6.25q0 6.25 6.25 6.25q6.25 0 6.25 -6.25m0 -18.75v25.0"/>
      <path d="M1390.0 687.5v-12.5q0 -12.5 -12.5 -12.5q-12.5 0 -12.5 12.5q0 12.5 12.5 12.5q12.5 0 12.5 -12.5"/>
      <path d="M1412.5 687.5v-25.0m0 -6.25v-6.25"/>
      <path d="M1447.5 687.5v-37.5m-12.5 12.5h25.0"/>
      <path d="M1470.0 675.0h25.0q0 -12.5 -12.5 -12.5q-12.5 0 -12.5 12.5q0 12.5 12.5 12.5h12.5"/>
      <path d="M1530.0 687.5v-50M1530.0 675.0q0 -12.5 -12.5 -12.5q-12.5 0 -12.5 12.5q0 12.5 12.5 12.5q12.5 0 12.5 -12.5"/>
      <path d="M1552.5 687.5v-6.25"/>
      <path d="M1622.5 687.5v-50m-12.5 0h25.0"/>
      <path d="M1645.0 637.5v50m0 -12.5q0 -12.5 12.5 -12.5q12.5 0 12.5 12.5v12.5"/>
      <path d="M1680.0 675.0h25.0q0 -12.5 -12.5 -12.5q-12.5 0 -12.5 12.5q0 12.5 12.5 12.5h12.5"/>
      <path d="M1750.0 662.5v18.75q0 6.25 6.25 6.25q6.25 0 6.25 -6.25v-6.25m0 6.25q0 6.25 6.25 6.25q6.25 0 6.25 -6.25m0 -18.75v25.0"/>
      <path d="M1797.5 687.5v-25.0m0 -6.25v-6.25"/>
      <path d="M1820.0 687.5v-25.0m0 12.5q0 -12.5 12.5 -12.5q12.5 0 12.5 12.5v12.5"/>
      <path d="M1880.0 687.5v-50M1880.0 675.0q0 -12.5 -12.5 -12.5q-12.5 0 -12.5 12.5q0 12.5 12.5 12.5q12.5 0 12.5 -12.5"/>
      <path d="M1950.0 687.5h-12.5q-12.5 0 -12.5 -12.5q0 -12.5 12.5 -12.5h12.5"/>
      <path d="M1985.0 687.5v-12.5q0 -12.5 -12.5 -12.5q-12.5 0 -12.5 12.5q0 12.5 12.5 12.5q12.5 0 12.5 -12.5"/>
      <path d="M1995.0 687.5v-25.0m0 6.25q0 -6.25 6.25 -6.25q6.25 0 6.25 6.25v6.25m0 -6.25q0 -6.25 6.25 -6.25q6.25 0 6.25 6.25v18.75"/>
      <path d="M2030.0 675.0h25.0q0 -12.5 -12.5 -12.5q-12.5 0 -12.5 12.5q0 12.5 12.5 12.5h12.5"/>
      <path d="M2100.0 687.5v-25.0m0 12.5q0 -12.5 12.5 -12.5q12.5 0 12.5 12.5v12.5"/>
      <path d="M2147.5 687.5q-12.5 0 -12.5 -12.5q0 -12.5 12.5 -12.5q12.5 0 12.5 12.5q0 12.5 -12.5 12.5"/>
      <path d="M2170.0 662.5v18.75q0 6.25 6.25 6.25q6.25 0 6.25 -6.25v-6.25m0 6.25q0 6.25 6.25 6.25q6.25 0 6.25 -6.25m0 -18.75v25.0"/>
      <path d="M2252.5 687.5v-25.0m0 -6.25v-6.25"/>
      <path d="M2275.0 687.5v-25.0m0 12.5q0 -12.5 12.5 -12.5q12.5 0 12.5 12.5v12.5"/>
      <path d="M2322.5 687.5v-6.25"/>
      <path d="M2357.5 687.5v-6.25"/>
      <path d="M2392.5 687.5v-6.25"/>
    </g>
  </g>
</svg>
