<svg version="1.1" width="1150" height="870" xmlns="http://www.w3.org/2000/svg">
  <!-- Seed: 795687728014151166 -->
  <g stroke="black" fill="none">
    <g transform="translate(50, 295.1017441860465) scale(0.4069767441860465, 0.4069767441860465)">
      <path d="M12.5 68.75v-6.25"/>
      <path d="M47.5 68.75v-6.25"/>
      <path d="M82.5 68.75v-6.25"/>
      <path d="M105.0 68.75h18.75q6.25 0 6.25 -6.25q0 -6.25 -6.25 -6.25h-12.5q-6.25 0 -6.25 -6.25q0 -6.25 6.25 -6.25h18.75"/>
      <path d="M140.0 43.75v12.5q0 12.5 12.5 12.5q12.5 0 12.5 -12.5m0 12.5v-25.0"/>
      <path d="M175.0 68.75v-25.0m0 12.5q0 -12.5 12.5 -12.5q12.5 0 12.5 12.5"/>
      <path d="M210.0 43.75l12.5 25.0l12.5 -25.0"/>
      <path d="M245.0 56.25h25.0q0 -12.5 -12.5 -12.5q-12.5 0 -12.5 12.5q0 12.5 12.5 12.5h12.5"/>
      <path d="M280.0 43.75l12.5 25.0m12.5 -25.0l-18.75 37.5"/>
      <path d="M362.5 68.75q-12.5 0 -12.5 -12.5q0 -12.5 12.5 -12.5q12.5 0 12.5 12.5q0 12.5 -12.5 12.5"/>
      <path d="M397.5 68.75v-37.5q0 -12.5 12.5 -12.5m-25.0 25.0h25.0"/>
      <path d="M467.5 68.75v-37.5m-12.5 12.5h25.0"/>
      <path d="M490.0 18.75v50m0 -12.5q0 -12.5 12.5 -12.5q12.5 0 12.5 12.5v12.5"/>
      <path d="M525.0 56.25h25.0q0 -12.5 -12.5 -12.5q-12.5 0 -12.5 12.5q0 12.5 12.5 12.5h12.5"/>
      <path d="M595.0 18.75v50m0 -12.5q0 -12.5 12.5 -12.5q12.5 0 12.5 12.5v12.5"/>
      <path d="M642.5 68.75q-12.5 0 -12.5 -12.5q0 -12.5 12.5 -12.5q12.5 0 12.5 12.5q0 12.5 -12.5 12.5"/>
      <path d="M665.0 43.75v12.5q0 12.5 12.5 12.5q12.5 0 12.5 -12.5m0 12.5v-25.0"/>
      <path d="M700.0 68.75h18.75q6.25 0 6.25 -6.25q0 -6.25 -6.25 -6.25h-12.5q-6.25 0 -6.25 -6.25q0 -6.25 6.25 -6.25h18.75"/>
      <path d="M735.0 56.25h25.0q0 -12.5 -12.5 -12.5q-12.5 0 -12.5 12.5q0 12.5 12.5 12.5h12.5"/>
      <path d="M770.0 43.75h25.0"/>
      <path d="M817.5 68.75v-37.5q0 -12.5 12.5 -12.5m-25.0 25.0h25.0"/>
      <path d="M840.0 68.75v-25.0m0 12.5q0 -12.5 12.5 -12.5q12.5 0 12.5 12.5"/>
      <path d="M887.5 68.75q-12.5 0 -12.5 -12.5q0 -12.5 12.5 -12.5q12.5 0 12.5 12.5q0 12.5 -12.5 12.5"/>
      <path d="M910.0 68.75v-25.0m0 12.5q0 -12.5 12.5 -12.5q12.5 0 12.5 12.5v12.5"/>
      <path d="M957.5 68.75v-37.5m-12.5 12.5h25.0"/>
      <path d="M992.5 68.75v-6.25"/>
      <path d="M1050.0 68.75h25.0m-12.5 0v-50m-12.5 0h25.0"/>
      <path d="M1120.0 43.75v18.75q0 6.25 6.25 6.25q6.25 0 6.25 -6.25v-6.25m0 6.25q0 6.25 6.25 6.25q6.25 0 6.25 -6.25m0 -18.75v25.0"/>
      <path d="M1180.0 68.75v-12.5q0 -12.5 -12.5 -12.5q-12.5 0 -12.5 12.5q0 12.5 12.5 12.5q12.5 0 12.5 -12.5"/>
      <path d="M1190.0 68.75h18.75q6.25 0 6.25 -6.25q0 -6.25 -6.25 -6.25h-12.5q-6.25 0 -6.25 -6.25q0 -6.25 6.25 -6.25h18.75"/>
      <path d="M1260.0 68.75h18.75q6.25 0 6.25 -6.25q0 -6.25 -6.25 -6.25h-12.5q-6.25 0 -6.25 -6.25q0 -6.25 6.25 -6.25h18.75"/>
      <path d="M1307.5 68.75v-37.5m-12.5 12.5h25.0"/>
      <path d="M1355.0 68.75v-12.5q0 -12.5 -12.5 -12.5q-12.5 0 -12.5 12.5q0 12.5 12.5 12.5q12.5 0 12.5 -12.5"/>
      <path d="M1365.0 68.75v-25.0m0 12.5q0 -12.5 12.5 -12.5q12.5 0 12.5 12.5v12.5"/>
      <path d="M1425.0 68.75v-50M1425.0 56.25q0 -12.5 -12.5 -12.5q-12.5 0 -12.5 12.5q0 12.5 12.5 12.5q12.5 0 12.5 -12.5"/>
      <path d="M1447.5 68.75v-25.0m0 -6.25v-6.25"/>
      <path d="M1470.0 68.75v-25.0m0 12.5q0 -12.5 12.5 -12.5q12.5 0 12.5 12.5v12.5"/>
      <path d="M1530.0 56.25q0 -12.5 -12.5 -12.5q-12.5 0 -12.5 12.5q0 12.5 12.5 12.5q12.5 0 12.5 -12.5m0 -12.5v25.0q0 12.5 -12.5 12.5h-12.5"/>
      <path d="M1575.0 68.75v-50M1575.0 56.25q0 -12.5 12.5 -12.5q12.5 0 12.5 12.5q0 12.5 -12.5 12.5q-12.5 0 -12.5 -12.5"/>
      <path d="M1610.0 43.75l12.5 25.0m12.5 -25.0l-18.75 37.5"/>
      <path d="M1692.5 68.75v-37.5m-12.5 12.5h25.0"/>
      <path d="M1715.0 18.75v50m0 -12.5q0 -12.5 12.5 -12.5q12.5 0 12.5 12.5v12.5"/>
      <path d="M1750.0 56.25h25.0q0 -12.5 -12.5 -12.5q-12.5 0 -12.5 12.5q0 12.5 12.5 12.5h12.5"/>
      <path d="M1820.0 18.75v50m25.0 -25.0l-25.0 12.5l25.0 12.5"/>
      <path d="M1867.5 68.75v-25.0m0 -6.25v-6.25"/>
      <path d="M1902.5 68.75v-37.5m-12.5 12.5h25.0"/>
      <path d="M1950.0 68.75h-12.5q-12.5 0 -12.5 -12.5q0 -12.5 12.5 -12.5h12.5"/>
      <path d="M1960.0 18.75v50m0 -12.5q0 -12.5 12.5 -12.5q12.5 0 12.5 12.5v12.5"/>
      <path d="M1995.0 56.25h25.0q0 -12.5 -12.5 -12.5q-12.5 0 -12.5 12.5q0 12.5 12.5 12.5h12.5"/>
      <path d="M2030.0 68.75v-25.0m0 12.5q0 -12.5 12.5 -12.5q12.5 0 12.5 12.5v12.5"/>
      <path d="M2065.0 43.75h25.0"/>
      <path d="M2100.0 43.75v18.75q0 6.25 6.25 6.25q6.25 0 6.25 -6.25v-6.25m0 6.25q0 6.25 6.25 6.25q6.25 0 6.25 -6.25m0 -18.75v25.0"/>
      <path d="M2147.5 68.75v-25.0m0 -6.25v-6.25"/>
      <path d="M2170.0 68.75v-25.0m0 12.5q0 -12.5 12.5 -12.5q12.5 0 12.5 12.5v12.5"/>
      <path d="M2230.0 68.75v-50M2230.0 56.25q0 -12.5 -12.5 -12.5q-12.5 0 -12.5 12.5q0 12.5 12.5 12.5q12.5 0 12.5 -12.5"/>
      <path d="M2252.5 68.75q-12.5 0 -12.5 -12.5q0 -12.5 12.5 -12.5q12.5 0 12.5 12.5q0 12.5 -12.5 12.5"/>
      <path d="M2275.0 43.75v18.75q0 6.25 6.25 6.25q6.25 0 6.25 -6.25v-6.25m0 6.25q0 6.25 6.25 6.25q6.25 0 6.25 -6.25m0 -18.75v25.0"/>
      <path d="M2316.25 68.75q6.25 0 6.25 -6.25v-6.25"/>
      <path d="M2380.0 68.75v-50M2380.0 56.25q0 -12.5 12.5 -12.5q12.5 0 12.5 12.5q0 12.5 -12.5 12.5q-12.5 0 -12.5 -12.5"/>
      <path d="M2415.0 43.75v12.5q0 12.5 12.5 12.5q12.5 0 12.5 -12.5m0 12.5v-25.0"/>
      <path d="M2462.5 68.75v-37.5m-12.5 12.5h25.0"/>
      <path d="M2520.0 68.75h25.0m-12.5 0v-50m-12.5 0h25.0"/>
      <path d="M25.0 137.5v-50M25.0 125.0q0 -12.5 -12.5 -12.5q-12.5 0 -12.5 12.5q0 12.5 12.5 12.5q12.5 0 12.5 -12.5"/>
      <path d="M35.0 137.5v-25.0m0 12.5q0 -12.5 12.5 -12.5q12.5 0 12.5 12.5"/>
      <path d="M70.0 125.0h25.0q0 -12.5 -12.5 -12.5q-12.5 0 -12.5 12.5q0 12.5 12.5 12.5h12.5"/>
      <path d="M105.0 112.5v18.75q0 6.25 6.25 6.25q6.25 0 6.25 -6.25v-6.25m0 6.25q0 6.25 6.25 6.25q6.25 0 6.25 -6.25m0 -18.75v25.0"/>
      <path d="M187.5 137.5q-12.5 0 -12.5 -12.5q0 -12.5 12.5 -12.5q12.5 0 12.5 12.5q0 12.5 -12.5 12.5"/>
      <path d="M210.0 112.5v12.5q0 12.5 12.5 12.5q12.5 0 12.5 -12.5m0 12.5v-25.0"/>
      <path d="M257.5 137.5v-37.5m-12.5 12.5h25.0"/>
      <path d="M327.5 137.5q-12.5 0 -12.5 -12.5q0 -12.5 12.5 -12.5q12.5 0 12.5 12.5q0 12.5 -12.5 12.5"/>
      <path d="M362.5 137.5v-37.5q0 -12.5 12.5 -12.5m-25.0 25.0h25.0"/>
      <path d="M420.0 137.5h18.75q6.25 0 6.25 -6.25q0 -6.25 -6.25 -6.25h-12.5q-6.25 0 -6.25 -6.25q0 -6.25 6.25 -6.25h18.75"/>
      <path d="M467.5 137.5v-25.0m0 -6.25v-6.25"/>
      <path d="M515.0 125.0q0 -12.5 -12.5 -12.5q-12.5 0 -12.5 12.5q0 12.5 12.5 12.5q12.5 0 12.5 -12.5m0 -12.5v25.0q0 12.5 -12.5 12.5h-12.5"/>
      <path d="M525.0 87.5v50m0 -12.5q0 -12.5 12.5 -12.5q12.5 0 12.5 12.5v12.5"/>
      <path d="M572.5 137.5v-37.5m-12.5 12.5h25.0"/>
      <path d="M607.5 137.5v-6.25"/>
      <path d="M665.0 137.5v-50m25.0 0v50m0 -25.0h-25.0"/>
      <path d="M700.0 125.0h25.0q0 -12.5 -12.5 -12.5q-12.5 0 -12.5 12.5q0 12.5 12.5 12.5h12.5"/>
      <path d="M782.5 137.5v-37.5m-12.5 12.5h25.0"/>
      <path d="M805.0 87.5v50m0 -12.5q0 -12.5 12.5 -12.5q12.5 0 12.5 12.5v12.5"/>
      <path d="M840.0 125.0h25.0q0 -12.5 -12.5 -12.5q-12.5 0 -12.5 12.5q0 12.5 12.5 12.5h12.5"/>
      <path d="M875.0 137.5v-25.0m0 12.5q0 -12.5 12.5 -12.5q12.5 0 12.5 12.5v12.5"/>
      <path d="M945.0 137.5h18.75q6.25 0 6.25 -6.25q0 -6.25 -6.25 -6.25h-12.5q-6.25 0 -6.25 -6.25q0 -6.25 6.25 -6.25h18.75"/>
      <path d="M992.5 137.5v-37.5m-12.5 12.5h25.0"/>
      <path d="M1015.0 125.0h25.0q0 -12.5 -12.5 -12.5q-12.5 0 -12.5 12.5q0 12.5 12.5 12.5h12.5"/>
      <path d="M1050.0 125.0q0 -12.5 12.5 -12.5q12.5 0 12.5 12.5q0 12.5 -12.5 12.5q-12.5 0 -12.5 -12.5m0 -12.5v37.5"/>
      <path d="M1085.0 125.0q0 -12.5 12.5 -12.5q12.5 0 12.5 12.5q0 12.5 -12.5 12.5q-12.5 0 -12.5 -12.5m0 -12.5v37.5"/>
      <path d="M1120.0 125.0h25.0q0 -12.5 -12.5 -12.5q-12.5 0 -12.5 12.5q0 12.5 12.5 12.5h12.5"/>
      <path d="M1180.0 137.5v-50M1180.0 125.0q0 -12.5 -12.5 -12.5q-12.5 0 -12.5 12.5q0 12.5 12.5 12.5q12.5 0 12.5 -12.5"/>
      <path d="M1250.0 137.5v-12.5q0 -12.5 -12.5 -12.5q-12.5 0 -12.5 12.5q0 12.5 12.5 12.5q12.5 0 12.5 -12.5"/>
      <path d="M1285.0 137.5h-12.5q-12.5 0 -12.5 -12.5q0 -12.5 12.5 -12.5h12.5"/>
      <path d="M1295.0 137.5v-25.0m0 12.5q0 -12.5 12.5 -12.5q12.5 0 12.5 12.5"/>
      <path d="M1342.5 137.5q-12.5 0 -12.5 -12.5q0 -12.5 12.5 -12.5q12.5 0 12.5 12.5q0 12.5 -12.5 12.5"/>
      <path d="M1365.0 137.5h18.75q6.25 0 6.25 -6.25q0 -6.25 -6.25 -6.25h-12.5q-6.25 0 -6.25 -6.25q0 -6.25 6.25 -6.25h18.75"/>
      <path d="M1400.0 137.5h18.75q6.25 0 6.25 -6.25q0 -6.25 -6.25 -6.25h-12.5q-6.25 0 -6.25 -6.25q0 -6.25 6.25 -6.25h18.75"/>
      <path d="M1482.5 137.5v-37.5m-12.5 12.5h25.0"/>
      <path d="M1505.0 87.5v50m0 -12.5q0 -12.5 12.5 -12.5q12.5 0 12.5 12.5v12.5"/>
      <path d="M1540.0 125.0h25.0q0 -12.5 -12.5 -12.5q-12.5 0 -12.5 12.5q0 12.5 12.5 12.5h12.5"/>
      <path d="M1610.0 125.0q0 -12.5 12.5 -12.5q12.5 0 12.5 12.5q0 12.5 -12.5 12.5q-12.5 0 -12.5 -12.5m0 -12.5v37.5"/>
      <path d="M1670.0 137.5v-12.5q0 -12.5 -12.5 -12.5q-12.5 0 -12.5 12.5q0 12.5 12.5 12.5q12.5 0 12.5 -12.5"/>
      <path d="M1680.0 112.5l12.5 25.0l12.5 -25.0"/>
      <path d="M1715.0 125.0h25.0q0 -12.5 -12.5 -12.5q-12.5 0 -12.5 12.5q0 12.5 12.5 12.5h12.5"/>
      <path d="M1750.0 137.5v-25.0m0 6.25q0 -6.25 6.25 -6.25q6.25 0 6.25 6.25v6.25m0 -6.25q0 -6.25 6.25 -6.25q6.25 0 6.25 6.25v18.75"/>
      <path d="M1785.0 125.0h25.0q0 -12.5 -12.5 -12.5q-12.5 0 -12.5 12.5q0 12.5 12.5 12.5h12.5"/>
      <path d="M1820.0 137.5v-25.0m0 12.5q0 -12.5 12.5 -12.5q12.5 0 12.5 12.5v12.5"/>
      <path d="M1867.5 137.5v-37.5m-12.5 12.5h25.0"/>
      <path d="M1937.5 137.5v-37.5m-12.5 12.5h25.0"/>
      <path d="M1972.5 137.5q-12.5 0 -12.5 -12.5q0 -12.5 12.5 -12.5q12.5 0 12.5 12.5q0 12.5 -12.5 12.5"/>
      <path d="M2030.0 87.5v50m0 -12.5q0 -12.5 12.5 -12.5q12.5 0 12.5 12.5v12.5"/>
      <path d="M2065.0 125.0h25.0q0 -12.5 -12.5 -12.5q-12.5 0 -12.5 12.5q0 12.5 12.5 12.5h12.5"/>
      <path d="M2100.0 137.5v-25.0m0 12.5q0 -12.5 12.5 -12.5q12.5 0 12.5 12.5"/>
      <path d="M2141.25 137.5q6.25 0 6.25 -6.25v-6.25"/>
      <path d="M2230.0 137.5v-12.5q0 -12.5 -12.5 -12.5q-12.5 0 -12.5 12.5q0 12.5 12.5 12.5q12.5 0 12.5 -12.5"/>
      <path d="M2240.0 137.5v-25.0m0 12.5q0 -12.5 12.5 -12.5q12.5 0 12.5 12.5v12.5"/>
      <path d="M2300.0 137.5v-50M2300.0 125.0q0 -12.5 -12.5 -12.5q-12.5 0 -12.5 12.5q0 12.5 12.5 12.5q12.5 0 12.5 -12.5"/>
      <path d="M2345.0 137.5h18.75q6.25 0 6.25 -6.25q0 -6.25 -6.25 -6.25h-12.5q-6.25 0 -6.25 -6.25q0 -6.25 6.25 -6.25h18.75"/>
      <path d="M2405.0 137.5v-12.5q0 -12.5 -12.5 -12.5q-12.5 0 -12.5 12.5q0 12.5 12.5 12.5q12.5 0 12.5 -12.5"/>
      <path d="M2427.5 137.5v-25.0m0 -6.25v-6.25"/>
      <path d="M2475.0 137.5v-50M2475.0 125.0q0 -12.5 -12.5 -12.5q-12.5 0 -12.5 12.5q0 12.5 12.5 12.5q12.5 0 12.5 -12.5"/>
      <path d="M0 206.25h18.75q6.25 0 6.25 -6.25q0 -6.25 -6.25 -6.25h-12.5q-6.25 0 -6.25 -6.25q0 -6.25 6.25 -6.25h18.75"/>
      <path d="M47.5 206.25q-12.5 0 -12.5 -12.5q0 -12.5 12.5 -12.5q12.5 0 12.5 12.5q0 12.5 -12.5 12.5"/>
      <path d="M70.0 206.25v-25.0m0 6.25q0 -6.25 6.25 -6.25q6.25 0 6.25 6.25v6.25m0 -6.25q0 -6.25 6.25 -6.25q6.25 0 6.25 6.25v18.75"/>
      <path d="M105.0 193.75h25.0q0 -12.5 -12.5 -12.5q-12.5 0 -12.5 12.5q0 12.5 12.5 12.5h12.5"/>
      <path d="M152.5 206.25v-37.5m-12.5 12.5h25.0"/>
      <path d="M175.0 156.25v50m0 -12.5q0 -12.5 12.5 -12.5q12.5 0 12.5 12.5v12.5"/>
      <path d="M222.5 206.25v-25.0m0 -6.25v-6.25"/>
      <path d="M245.0 206.25v-25.0m0 12.5q0 -12.5 12.5 -12.5q12.5 0 12.5 12.5v12.5"/>
      <path d="M305.0 193.75q0 -12.5 -12.5 -12.5q-12.5 0 -12.5 12.5q0 12.5 12.5 12.5q12.5 0 12.5 -12.5m0 -12.5v25.0q0 12.5 -12.5 12.5h-12.5"/>
      <path d="M327.5 193.75v-6.25m0 -12.5v-6.25"/>
      <path d="M385.0 206.25h18.75q6.25 0 6.25 -6.25q0 -6.25 -6.25 -6.25h-12.5q-6.25 0 -6.25 -6.25q0 -6.25 6.25 -6.25h18.75"/>
      <path d="M420.0 156.25v50m0 -12.5q0 -12.5 12.5 -12.5q12.5 0 12.5 12.5v12.5"/>
      <path d="M455.0 193.75h25.0q0 -12.5 -12.5 -12.5q-12.5 0 -12.5 12.5q0 12.5 12.5 12.5h12.5"/>
      <path d="M525.0 206.25h18.75q6.25 0 6.25 -6.25q0 -6.25 -6.25 -6.25h-12.5q-6.25 0 -6.25 -6.25q0 -6.25 6.25 -6.25h18.75"/>
      <path d="M560.0 193.75h25.0q0 -12.5 -12.5 -12.5q-12.5 0 -12.5 12.5q0 12.5 12.5 12.5h12.5"/>
      <path d="M595.0 193.75h25.0q0 -12.5 -12.5 -12.5q-12.5 0 -12.5 12.5q0 12.5 12.5 12.5h12.5"/>
      <path d="M630.0 206.25v-25.0m0 6.25q0 -6.25 6.25 -6.25q6.25 0 6.25 6.25v6.25m0 -6.25q0 -6.25 6.25 -6.25q6.25 0 6.25 6.25v18.75"/>
      <path d="M665.0 193.75h25.0q0 -12.5 -12.5 -12.5q-12.5 0 -12.5 12.5q0 12.5 12.5 12.5h12.5"/>
      <path d="M725.0 206.25v-50M725.0 193.75q0 -12.5 -12.5 -12.5q-12.5 0 -12.5 12.5q0 12.5 12.5 12.5q12.5 0 12.5 -12.5"/>
      <path d="M770.0 193.75h25.0q0 -12.5 -12.5 -12.5q-12.5 0 -12.5 12.5q0 12.5 12.5 12.5h12.5"/>
      <path d="M805.0 206.25v-25.0m0 6.25q0 -6.25 6.25 -6.25q6.25 0 6.25 6.25v6.25m0 -6.25q0 -6.25 6.25 -6.25q6.25 0 6.25 6.25v18.75"/>
      <path d="M840.0 206.25v-50M840.0 193.75q0 -12.5 12.5 -12.5q12.5 0 12.5 12.5q0 12.5 -12.5 12.5q-12.5 0 -12.5 -12.5"/>
      <path d="M900.0 206.25v-12.5q0 -12.5 -12.5 -12.5q-12.5 0 -12.5 12.5q0 12.5 12.5 12.5q12.5 0 12.5 -12.5"/>
      <path d="M910.0 206.25v-25.0m0 12.5q0 -12.5 12.5 -12.5q12.5 0 12.5 12.5"/>
      <path d="M945.0 206.25v-25.0m0 12.5q0 -12.5 12.5 -12.5q12.5 0 12.5 12.5"/>
      <path d="M1005.0 206.25v-12.5q0 -12.5 -12.5 -12.5q-12.5 0 -12.5 12.5q0 12.5 12.5 12.5q12.5 0 12.5 -12.5"/>
      <path d="M1015.0 206.25h18.75q6.25 0 6.25 -6.25q0 -6.25 -6.25 -6.25h-12.5q-6.25 0 -6.25 -6.25q0 -6.25 6.25 -6.25h18.75"/>
      <path d="M1050.0 206.25h18.75q6.25 0 6.25 -6.25q0 -6.25 -6.25 -6.25h-12.5q-6.25 0 -6.25 -6.25q0 -6.25 6.25 -6.25h18.75"/>
      <path d="M1085.0 193.75h25.0q0 -12.5 -12.5 -12.5q-12.5 0 -12.5 12.5q0 12.5 12.5 12.5h12.5"/>
      <path d="M1145.0 206.25v-50M1145.0 193.75q0 -12.5 -12.5 -12.5q-12.5 0 -12.5 12.5q0 12.5 12.5 12.5q12.5 0 12.5 -12.5"/>
      <path d="M1161.25 206.25q6.25 0 6.25 -6.25v-6.25"/>
      <path d="M1250.0 206.25v-12.5q0 -12.5 -12.5 -12.5q-12.5 0 -12.5 12.5q0 12.5 12.5 12.5q12.5 0 12.5 -12.5"/>
      <path d="M1260.0 206.25v-25.0m0 12.5q0 -12.5 12.5 -12.5q12.5 0 12.5 12.5v12.5"/>
      <path d="M1320.0 206.25v-50M1320.0 193.75q0 -12.5 -12.5 -12.5q-12.5 0 -12.5 12.5q0 12.5 12.5 12.5q12.5 0 12.5 -12.5"/>
      <path d="M1390.0 206.25v-50M1390.0 193.75q0 -12.5 -12.5 -12.5q-12.5 0 -12.5 12.5q0 12.5 12.5 12.5q12.5 0 12.5 -12.5"/>
      <path d="M1400.0 193.75h25.0q0 -12.5 -12.5 -12.5q-12.5 0 -12.5 12.5q0 12.5 12.5 12.5h12.5"/>
      <path d="M1435.0 206.25h18.75q6.25 0 6.25 -6.25q0 -6.25 -6.25 -6.25h-12.5q-6.25 0 -6.25 -6.25q0 -6.25 6.25 -6.25h18.75"/>
      <path d="M1482.5 206.25v-25.0m0 -6.25v-6.25"/>
      <path d="M1505.0 206.25v-25.0m0 12.5q0 -12.5 12.5 -12.5q12.5 0 12.5 12.5"/>
      <path d="M1552.5 206.25q-12.5 0 -12.5 -12.5q0 -12.5 12.5 -12.5q12.5 0 12.5 12.5q0 12.5 -12.5 12.5"/>
      <path d="M1575.0 181.25v12.5q0 12.5 12.5 12.5q12.5 0 12.5 -12.5m0 12.5v-25.0"/>
      <path d="M1610.0 206.25h18.75q6.25 0 6.25 -6.25q0 -6.25 -6.25 -6.25h-12.5q-6.25 0 -6.25 -6.25q0 -6.25 6.25 -6.25h18.75"/>
      <path d="M1692.5 206.25q-12.5 0 -12.5 -12.5q0 -12.5 12.5 -12.5q12.5 0 12.5 12.5q0 12.5 -12.5 12.5"/>
      <path d="M1727.5 206.25v-37.5q0 -12.5 12.5 -12.5m-25.0 25.0h25.0"/>
      <path d="M1810.0 193.75q0 -12.5 -12.5 -12.5q-12.5 0 -12.5 12.5q0 12.5 12.5 12.5q12.5 0 12.5 -12.5m0 -12.5v25.0q0 12.5 -12.5 12.5h-12.5"/>
      <path d="M1820.0 193.75h25.0q0 -12.5 -12.5 -12.5q-12.5 0 -12.5 12.5q0 12.5 12.5 12.5h12.5"/>
      <path d="M1867.5 206.25v-37.5m-12.5 12.5h25.0"/>
      <path d="M1902.5 206.25v-37.5m-12.5 12.5h25.0"/>
      <path d="M1937.5 206.25v-25.0m0 -6.25v-6.25"/>
      <path d="M1960.0 206.25v-25.0m0 12.5q0 -12.5 12.5 -12.5q12.5 0 12.5 12.5v12.5"/>
      <path d="M2020.0 193.75q0 -12.5 -12.5 -12.5q-12.5 0 -12.5 12.5q0 12.5 12.5 12.5q12.5 0 12.5 -12.5m0 -12.5v25.0q0 12.5 -12.5 12.5h-12.5"/>
      <path d="M2090.0 206.25v-12.5q0 -12.5 -12.5 -12.5q-12.5 0 -12.5 12.5q0 12.5 12.5 12.5q12.5 0 12.5 -12.5"/>
      <path d="M2100.0 181.25v18.75q0 6.25 6.25 6.25q6.25 0 6.25 -6.25v-6.25m0 6.25q0 6.25 6.25 6.25q6.25 0 6.25 -6.25m0 -18.75v25.0"/>
      <path d="M2160.0 206.25v-12.5q0 -12.5 -12.5 -12.5q-12.5 0 -12.5 12.5q0 12.5 12.5 12.5q12.5 0 12.5 -12.5"/>
      <path d="M2170.0 181.25l12.5 25.0m12.5 -25.0l-18.75 37.5"/>
      <path d="M2211.25 206.25q6.25 0 6.25 -6.25v-6.25m0 -6.25v-6.25"/>
      <path d="M2287.5 206.25v-37.5m-12.5 12.5h25.0"/>
      <path d="M2322.5 206.25q-12.5 0 -12.5 -12.5q0 -12.5 12.5 -12.5q12.5 0 12.5 12.5q0 12.5 -12.5 12.5"/>
      <path d="M0 262.5q0 -12.5 12.5 -12.5q12.5 0 12.5 12.5q0 12.5 -12.5 12.5q-12.5 0 -12.5 -12.5m0 -12.5v37.5"/>
      <path d="M35.0 275.0v-25.0m0 12.5q0 -12.5 12.5 -12.5q12.5 0 12.5 12.5"/>
      <path d="M70.0 262.5h25.0q0 -12.5 -12.5 -12.5q-12.5 0 -12.5 12.5q0 12.5 12.5 12.5h12.5"/>
      <path d="M105.0 250.0l12.5 25.0l12.5 -25.0"/>
      <path d="M140.0 262.5h25.0q0 -12.5 -12.5 -12.5q-12.5 0 -12.5 12.5q0 12.5 12.5 12.5h12.5"/>
      <path d="M175.0 275.0v-25.0m0 12.5q0 -12.5 12.5 -12.5q12.5 0 12.5 12.5v12.5"/>
      <path d="M222.5 275.0v-37.5m-12.5 12.5h25.0"/>
      <path d="M292.5 275.0v-25.0m0 -6.25v-6.25"/>
      <path d="M327.5 275.0v-37.5m-12.5 12.5h25.0"/>
      <path d="M356.25 275.0q6.25 0 6.25 -6.25v-6.25"/>
      <path d="M420.0 225.0v50m0 -12.5q0 -12.5 12.5 -12.5q12.5 0 12.5 12.5v12.5"/>
      <path d="M455.0 262.5h25.0q0 -12.5 -12.5 -12.5q-12.5 0 -12.5 12.5q0 12.5 12.5 12.5h12.5"/>
      <path d="M537.5 275.0v-50"/>
      <path d="M585.0 275.0v-12.5q0 -12.5 -12.5 -12.5q-12.5 0 -12.5 12.5q0 12.5 12.5 12.5q12.5 0 12.5 -12.5"/>
      <path d="M607.5 275.0v-25.0m0 -6.25v-6.25"/>
      <path d="M655.0 275.0v-50M655.0 262.5q0 -12.5 -12.5 -12.5q-12.5 0 -12.5 12.5q0 12.5 12.5 12.5q12.5 0 12.5 -12.5"/>
      <path d="M700.0 225.0v50m0 -12.5q0 -12.5 12.5 -12.5q12.5 0 12.5 12.5v12.5"/>
      <path d="M747.5 275.0v-25.0m0 -6.25v-6.25"/>
      <path d="M770.0 275.0h18.75q6.25 0 6.25 -6.25q0 -6.25 -6.25 -6.25h-12.5q-6.25 0 -6.25 -6.25q0 -6.25 6.25 -6.25h18.75"/>
      <path d="M840.0 225.0v50m0 -12.5q0 -12.5 12.5 -12.5q12.5 0 12.5 12.5v12.5"/>
      <path d="M900.0 275.0v-12.5q0 -12.5 -12.5 -12.5q-12.5 0 -12.5 12.5q0 12.5 12.5 12.5q12.5 0 12.5 -12.5"/>
      <path d="M910.0 275.0v-25.0m0 12.5q0 -12.5 12.5 -12.5q12.5 0 12.5 12.5v12.5"/>
      <path d="M970.0 275.0v-50M970.0 262.5q0 -12.5 -12.5 -12.5q-12.5 0 -12.5 12.5q0 12.5 12.5 12.5q12.5 0 12.5 -12.5"/>
      <path d="M1027.5 275.0q-12.5 0 -12.5 -12.5q0 -12.5 12.5 -12.5q12.5 0 12.5 12.5q0 12.5 -12.5 12.5"/>
      <path d="M1050.0 275.0v-25.0m0 12.5q0 -12.5 12.5 -12.5q12.5 0 12.5 12.5v12.5"/>
      <path d="M1120.0 225.0v50m0 -12.5q0 -12.5 12.5 -12.5q12.5 0 12.5 12.5v12.5"/>
      <path d="M1155.0 262.5h25.0q0 -12.5 -12.5 -12.5q-12.5 0 -12.5 12.5q0 12.5 12.5 12.5h12.5"/>
      <path d="M1190.0 275.0v-25.0m0 12.5q0 -12.5 12.5 -12.5q12.5 0 12.5 12.5"/>
      <path d="M1285.0 275.0v-12.5q0 -12.5 -12.5 -12.5q-12.5 0 -12.5 12.5q0 12.5 12.5 12.5q12.5 0 12.5 -12.5"/>
      <path d="M1295.0 275.0v-25.0m0 12.5q0 -12.5 12.5 -12.5q12.5 0 12.5 12.5"/>
      <path d="M1330.0 275.0v-25.0m0 6.25q0 -6.25 6.25 -6.25q6.25 0 6.25 6.25v6.25m0 -6.25q0 -6.25 6.25 -6.25q6.25 0 6.25 6.25v18.75"/>
      <path d="M1377.5 275.0v-6.25"/>
      <path d="M1435.0 275.0h12.5q12.5 0 12.5 -12.5q0 -12.5 -12.5 -12.5q-12.5 0 -12.5 -12.5q0 -12.5 12.5 -12.5h12.5"/>
      <path d="M1470.0 225.0v50m0 -12.5q0 -12.5 12.5 -12.5q12.5 0 12.5 12.5v12.5"/>
      <path d="M1505.0 262.5h25.0q0 -12.5 -12.5 -12.5q-12.5 0 -12.5 12.5q0 12.5 12.5 12.5h12.5"/>
      <path d="M1600.0 275.0v-12.5q0 -12.5 -12.5 -12.5q-12.5 0 -12.5 12.5q0 12.5 12.5 12.5q12.5 0 12.5 -12.5"/>
      <path d="M1610.0 250.0l12.5 25.0l12.5 -25.0"/>
      <path d="M1645.0 262.5h25.0q0 -12.5 -12.5 -12.5q-12.5 0 -12.5 12.5q0 12.5 12.5 12.5h12.5"/>
      <path d="M1680.0 275.0v-25.0m0 12.5q0 -12.5 12.5 -12.5q12.5 0 12.5 12.5"/>
      <path d="M1727.5 275.0v-37.5m-12.5 12.5h25.0"/>
      <path d="M1750.0 262.5h25.0q0 -12.5 -12.5 -12.5q-12.5 0 -12.5 12.5q0 12.5 12.5 12.5h12.5"/>
      <path d="M1810.0 275.0v-50M1810.0 262.5q0 -12.5 -12.5 -12.5q-12.5 0 -12.5 12.5q0 12.5 12.5 12.5q12.5 0 12.5 -12.5"/>
      <path d="M1855.0 225.0v50m0 -12.5q0 -12.5 12.5 -12.5q12.5 0 12.5 12.5v12.5"/>
      <path d="M1890.0 262.5h25.0q0 -12.5 -12.5 -12.5q-12.5 0 -12.5 12.5q0 12.5 12.5 12.5h12.5"/>
      <path d="M1925.0 275.0v-25.0m0 12.5q0 -12.5 12.5 -12.5q12.5 0 12.5 12.5"/>
      <path d="M2007.5 275.0v-37.5q0 -12.5 12.5 -12.5m-25.0 25.0h25.0"/>
      <path d="M2055.0 275.0v-12.5q0 -12.5 -12.5 -12.5q-12.5 0 -12.5 12.5q0 12.5 12.5 12.5q12.5 0 12.5 -12.5"/>
      <path d="M2090.0 275.0h-12.5q-12.5 0 -12.5 -12.5q0 -12.5 12.5 -12.5h12.5"/>
      <path d="M2100.0 262.5h25.0q0 -12.5 -12.5 -12.5q-12.5 0 -12.5 12.5q0 12.5 12.5 12.5h12.5"/>
      <path d="M2147.5 262.5v-6.25m0 -12.5v-6.25"/>
      <path d="M2205.0 225.0v50m0 -12.5q0 -12.5 12.5 -12.5q12.5 0 12.5 12.5v12.5"/>
      <path d="M2240.0 262.5h25.0q0 -12.5 -12.5 -12.5q-12.5 0 -12.5 12.5q0 12.5 12.5 12.5h12.5"/>
      <path d="M25.0 343.75v-12.5q0 -12.5 -12.5 -12.5q-12.5 0 -12.5 12.5q0 12.5 12.5 12.5q12.5 0 12.5 -12.5"/>
      <path d="M35.0 331.25q0 -12.5 12.5 -12.5q12.5 0 12.5 12.5q0 12.5 -12.5 12.5q-12.5 0 -12.5 -12.5m0 -12.5v37.5"/>
      <path d="M70.0 331.25q0 -12.5 12.5 -12.5q12.5 0 12.5 12.5q0 12.5 -12.5 12.5q-12.5 0 -12.5 -12.5m0 -12.5v37.5"/>
      <path d="M130.0 343.75v-12.5q0 -12.5 -12.5 -12.5q-12.5 0 -12.5 12.5q0 12.5 12.5 12.5q12.5 0 12.5 -12.5"/>
      <path d="M140.0 343.75v-25.0m0 12.5q0 -12.5 12.5 -12.5q12.5 0 12.5 12.5"/>
      <path d="M175.0 331.25h25.0q0 -12.5 -12.5 -12.5q-12.5 0 -12.5 12.5q0 12.5 12.5 12.5h12.5"/>
      <path d="M210.0 343.75v-25.0m0 12.5q0 -12.5 12.5 -12.5q12.5 0 12.5 12.5v12.5"/>
      <path d="M257.5 343.75v-37.5m-12.5 12.5h25.0"/>
      <path d="M292.5 343.75v-50"/>
      <path d="M315.0 318.75l12.5 25.0m12.5 -25.0l-18.75 37.5"/>
      <path d="M385.0 331.25q0 -12.5 12.5 -12.5q12.5 0 12.5 12.5q0 12.5 -12.5 12.5q-12.5 0 -12.5 -12.5m0 -12.5v37.5"/>
      <path d="M420.0 318.75v12.5q0 12.5 12.5 12.5q12.5 0 12.5 -12.5m0 12.5v-25.0"/>
      <path d="M467.5 343.75v-37.5m-12.5 12.5h25.0"/>
      <path d="M525.0 343.75h18.75q6.25 0 6.25 -6.25q0 -6.25 -6.25 -6.25h-12.5q-6.25 0 -6.25 -6.25q0 -6.25 6.25 -6.25h18.75"/>
      <path d="M572.5 343.75q-12.5 0 -12.5 -12.5q0 -12.5 12.5 -12.5q12.5 0 12.5 12.5q0 12.5 -12.5 12.5"/>
      <path d="M595.0 343.75v-25.0m0 6.25q0 -6.25 6.25 -6.25q6.25 0 6.25 6.25v6.25m0 -6.25q0 -6.25 6.25 -6.25q6.25 0 6.25 6.25v18.75"/>
      <path d="M630.0 331.25h25.0q0 -12.5 -12.5 -12.5q-12.5 0 -12.5 12.5q0 12.5 12.5 12.5h12.5"/>
      <path d="M725.0 331.25q0 -12.5 -12.5 -12.5q-12.5 0 -12.5 12.5q0 12.5 12.5 12.5q12.5 0 12.5 -12.5m0 -12.5v37.5"/>
      <path d="M735.0 318.75v12.5q0 12.5 12.5 12.5q12.5 0 12.5 -12.5m0 12.5v-25.0"/>
      <path d="M770.0 331.25h25.0q0 -12.5 -12.5 -12.5q-12.5 0 -12.5 12.5q0 12.5 12.5 12.5h12.5"/>
      <path d="M805.0 343.75h18.75q6.25 0 6.25 -6.25q0 -6.25 -6.25 -6.25h-12.5q-6.25 0 -6.25 -6.25q0 -6.25 6.25 -6.25h18.75"/>
      <path d="M852.5 343.75v-37.5m-12.5 12.5h25.0"/>
      <path d="M887.5 343.75v-25.0m0 -6.25v-6.25"/>
      <path d="M922.5 343.75q-12.5 0 -12.5 -12.5q0 -12.5 12.5 -12.5q12.5 0 12.5 12.5q0 12.5 -12.5 12.5"/>
      <path d="M945.0 343.75v-25.0m0 12.5q0 -12.5 12.5 -12.5q12.5 0 12.5 12.5v12.5"/>
      <path d="M1015.0 318.75v18.75q0 6.25 6.25 6.25q6.25 0 6.25 -6.25v-6.25m0 6.25q0 6.25 6.25 6.25q6.25 0 6.25 -6.25m0 -18.75v25.0"/>
      <path d="M1050.0 293.75v50m0 -12.5q0 -12.5 12.5 -12.5q12.5 0 12.5 12.5v12.5"/>
      <path d="M1097.5 343.75v-25.0m0 -6.25v-6.25"/>
      <path d="M1145.0 343.75h-12.5q-12.5 0 -12.5 -12.5q0 -12.5 12.5 -12.5h12.5"/>
      <path d="M1155.0 293.75v50m0 -12.5q0 -12.5 12.5 -12.5q12.5 0 12.5 12.5v12.5"/>
      <path d="M1225.0 343.75h18.75q6.25 0 6.25 -6.25q0 -6.25 -6.25 -6.25h-12.5q-6.25 0 -6.25 -6.25q0 -6.25 6.25 -6.25h18.75"/>
      <path d="M1260.0 293.75v50m0 -12.5q0 -12.5 12.5 -12.5q12.5 0 12.5 12.5v12.5"/>
      <path d="M1295.0 331.25h25.0q0 -12.5 -12.5 -12.5q-12.5 0 -12.5 12.5q0 12.5 12.5 12.5h12.5"/>
      <path d="M1365.0 293.75v50m0 -12.5q0 -12.5 12.5 -12.5q12.5 0 12.5 12.5v12.5"/>
      <path d="M1425.0 343.75v-12.5q0 -12.5 -12.5 -12.5q-12.5 0 -12.5 12.5q0 12.5 12.5 12.5q12.5 0 12.5 -12.5"/>
      <path d="M1460.0 343.75v-50M1460.0 331.25q0 -12.5 -12.5 -12.5q-12.5 0 -12.5 12.5q0 12.5 12.5 12.5q12.5 0 12.5 -12.5"/>
      <path d="M1505.0 343.75v-25.0m0 12.5q0 -12.5 12.5 -12.5q12.5 0 12.5 12.5v12.5"/>
      <path d="M1552.5 343.75q-12.5 0 -12.5 -12.5q0 -12.5 12.5 -12.5q12.5 0 12.5 12.5q0 12.5 -12.5 12.5"/>
      <path d="M1610.0 343.75v-25.0m0 6.25q0 -6.25 6.25 -6.25q6.25 0 6.25 6.25v6.25m0 -6.25q0 -6.25 6.25 -6.25q6.25 0 6.25 6.25v18.75"/>
      <path d="M1657.5 343.75v-25.0m0 -6.25v-6.25"/>
      <path d="M1680.0 343.75v-25.0m0 12.5q0 -12.5 12.5 -12.5q12.5 0 12.5 12.5v12.5"/>
      <path d="M1740.0 343.75v-50M1740.0 331.25q0 -12.5 -12.5 -12.5q-12.5 0 -12.5 12.5q0 12.5 12.5 12.5q12.5 0 12.5 -12.5"/>
      <path d="M1797.5 343.75v-37.5m-12.5 12.5h25.0"/>
      <path d="M1832.5 343.75q-12.5 0 -12.5 -12.5q0 -12.5 12.5 -12.5q12.5 0 12.5 12.5q0 12.5 -12.5 12.5"/>
      <path d="M1915.0 343.75v-12.5q0 -12.5 -12.5 -12.5q-12.5 0 -12.5 12.5q0 12.5 12.5 12.5q12.5 0 12.5 -12.5"/>
      <path d="M1925.0 343.75v-25.0m0 12.5q0 -12.5 12.5 -12.5q12.5 0 12.5 12.5v12.5"/>
      <path d="M1960.0 343.75h18.75q6.25 0 6.25 -6.25q0 -6.25 -6.25 -6.25h-12.5q-6.25 0 -6.25 -6.25q0 -6.25 6.25 -6.25h18.75"/>
      <path d="M1995.0 318.75v18.75q0 6.25 6.25 6.25q6.25 0 6.25 -6.25v-6.25m0 6.25q0 6.25 6.25 6.25q6.25 0 6.25 -6.25m0 -18.75v25.0"/>
      <path d="M2030.0 331.25h25.0q0 -12.5 -12.5 -12.5q-12.5 0 -12.5 12.5q0 12.5 12.5 12.5h12.5"/>
      <path d="M2065.0 343.75v-25.0m0 12.5q0 -12.5 12.5 -12.5q12.5 0 12.5 12.5"/>
      <path d="M2112.5 343.75v-6.25"/>
      <path d="M2182.5 343.75v-50m-12.5 0h25.0"/>
      <path d="M2205.0 293.75v50m0 -12.5q0 -12.5 12.5 -12.5q12.5 0 12.5 12.5v12.5"/>
      <path d="M2240.0 331.25h25.0q0 -12.5 -12.5 -12.5q-12.5 0 -12.5 12.5q0 12.5 12.5 12.5h12.5"/>
      <path d="M2275.0 343.75v-25.0m0 12.5q0 -12.5 12.5 -12.5q12.5 0 12.5 12.5"/>
      <path d="M2310.0 331.25h25.0q0 -12.5 -12.5 -12.5q-12.5 0 -12.5 12.5q0 12.5 12.5 12.5h12.5"/>
      <path d="M2380.0 318.75v18.75q0 6.25 6.25 6.25q6.25 0 6.25 -6.25v-6.25m0 6.25q0 6.25 6.25 6.25q6.25 0 6.25 -6.25m0 -18.75v25.0"/>
      <path d="M2440.0 343.75v-12.5q0 -12.5 -12.5 -12.5q-12.5 0 -12.5 12.5q0 12.5 12.5 12.5q12.5 0 12.5 -12.5"/>
      <path d="M2450.0 343.75h18.75q6.25 0 6.25 -6.25q0 -6.25 -6.25 -6.25h-12.5q-6.25 0 -6.25 -6.25q0 -6.25 6.25 -6.25h18.75"/>
      <path d="M25.0 412.5v-12.5q0 -12.5 -12.5 -12.5q-12.5 0 -12.5 12.5q0 12.5 12.5 12.5q12.5 0 12.5 -12.5"/>
      <path d="M35.0 412.5v-25.0m0 12.5q0 -12.5 12.5 -12.5q12.5 0 12.5 12.5v12.5"/>
      <path d="M82.5 412.5q-12.5 0 -12.5 -12.5q0 -12.5 12.5 -12.5q12.5 0 12.5 12.5q0 12.5 -12.5 12.5"/>
      <path d="M117.5 412.5v-37.5m-12.5 12.5h25.0"/>
      <path d="M140.0 362.5v50m0 -12.5q0 -12.5 12.5 -12.5q12.5 0 12.5 12.5v12.5"/>
      <path d="M175.0 400.0h25.0q0 -12.5 -12.5 -12.5q-12.5 0 -12.5 12.5q0 12.5 12.5 12.5h12.5"/>
      <path d="M210.0 412.5v-25.0m0 12.5q0 -12.5 12.5 -12.5q12.5 0 12.5 12.5"/>
      <path d="M280.0 412.5v-25.0m0 12.5q0 -12.5 12.5 -12.5q12.5 0 12.5 12.5"/>
      <path d="M340.0 412.5v-12.5q0 -12.5 -12.5 -12.5q-12.5 0 -12.5 12.5q0 12.5 12.5 12.5q12.5 0 12.5 -12.5"/>
      <path d="M350.0 400.0q0 -12.5 12.5 -12.5q12.5 0 12.5 12.5q0 12.5 -12.5 12.5q-12.5 0 -12.5 -12.5m0 -12.5v37.5"/>
      <path d="M397.5 412.5v-25.0m0 -6.25v-6.25"/>
      <path d="M445.0 412.5v-50M445.0 400.0q0 -12.5 -12.5 -12.5q-12.5 0 -12.5 12.5q0 12.5 12.5 12.5q12.5 0 12.5 -12.5"/>
      <path d="M515.0 400.0q0 -12.5 -12.5 -12.5q-12.5 0 -12.5 12.5q0 12.5 12.5 12.5q12.5 0 12.5 -12.5m0 -12.5v25.0q0 12.5 -12.5 12.5h-12.5"/>
      <path d="M537.5 412.5v-50"/>
      <path d="M585.0 412.5v-12.5q0 -12.5 -12.5 -12.5q-12.5 0 -12.5 12.5q0 12.5 12.5 12.5q12.5 0 12.5 -12.5"/>
      <path d="M595.0 412.5v-25.0m0 12.5q0 -12.5 12.5 -12.5q12.5 0 12.5 12.5v12.5"/>
      <path d="M655.0 412.5h-12.5q-12.5 0 -12.5 -12.5q0 -12.5 12.5 -12.5h12.5"/>
      <path d="M665.0 400.0h25.0q0 -12.5 -12.5 -12.5q-12.5 0 -12.5 12.5q0 12.5 12.5 12.5h12.5"/>
      <path d="M760.0 412.5v-12.5q0 -12.5 -12.5 -12.5q-12.5 0 -12.5 12.5q0 12.5 12.5 12.5q12.5 0 12.5 -12.5"/>
      <path d="M782.5 412.5v-37.5m-12.5 12.5h25.0"/>
      <path d="M852.5 412.5v-37.5m-12.5 12.5h25.0"/>
      <path d="M875.0 362.5v50m0 -12.5q0 -12.5 12.5 -12.5q12.5 0 12.5 12.5v12.5"/>
      <path d="M910.0 400.0h25.0q0 -12.5 -12.5 -12.5q-12.5 0 -12.5 12.5q0 12.5 12.5 12.5h12.5"/>
      <path d="M980.0 362.5v50m0 -12.5q0 -12.5 12.5 -12.5q12.5 0 12.5 12.5v12.5"/>
      <path d="M1027.5 412.5q-12.5 0 -12.5 -12.5q0 -12.5 12.5 -12.5q12.5 0 12.5 12.5q0 12.5 -12.5 12.5"/>
      <path d="M1050.0 387.5v12.5q0 12.5 12.5 12.5q12.5 0 12.5 -12.5m0 12.5v-25.0"/>
      <path d="M1085.0 412.5h18.75q6.25 0 6.25 -6.25q0 -6.25 -6.25 -6.25h-12.5q-6.25 0 -6.25 -6.25q0 -6.25 6.25 -6.25h18.75"/>
      <path d="M1120.0 400.0h25.0q0 -12.5 -12.5 -12.5q-12.5 0 -12.5 12.5q0 12.5 12.5 12.5h12.5"/>
      <path d="M1161.25 412.5q6.25 0 6.25 -6.25v-6.25"/>
      <path d="M1250.0 412.5v-12.5q0 -12.5 -12.5 -12.5q-12.5 0 -12.5 12.5q0 12.5 12.5 12.5q12.5 0 12.5 -12.5"/>
      <path d="M1260.0 412.5v-25.0m0 12.5q0 -12.5 12.5 -12.5q12.5 0 12.5 12.5v12.5"/>
      <path d="M1320.0 412.5v-50M1320.0 400.0q0 -12.5 -12.5 -12.5q-12.5 0 -12.5 12.5q0 12.5 12.5 12.5q12.5 0 12.5 -12.5"/>
      <path d="M1365.0 412.5h18.75q6.25 0 6.25 -6.25q0 -6.25 -6.25 -6.25h-12.5q-6.25 0 -6.25 -6.25q0 -6.25 6.25 -6.25h18.75"/>
      <path d="M1400.0 387.5v12.5q0 12.5 12.5 12.5q12.5 0 12.5 -12.5m0 12.5v-25.0"/>
      <path d="M1435.0 400.0q0 -12.5 12.5 -12.5q12.5 0 12.5 12.5q0 12.5 -12.5 12.5q-12.5 0 -12.5 -12.5m0 -12.5v37.5"/>
      <path d="M1470.0 400.0q0 -12.5 12.5 -12.5q12.5 0 12.5 12.5q0 12.5 -12.5 12.5q-12.5 0 -12.5 -12.5m0 -12.5v37.5"/>
      <path d="M1517.5 412.5q-12.5 0 -12.5 -12.5q0 -12.5 12.5 -12.5q12.5 0 12.5 12.5q0 12.5 -12.5 12.5"/>
      <path d="M1540.0 412.5h18.75q6.25 0 6.25 -6.25q0 -6.25 -6.25 -6.25h-12.5q-6.25 0 -6.25 -6.25q0 -6.25 6.25 -6.25h18.75"/>
      <path d="M1587.5 412.5v-25.0m0 -6.25v-6.25"/>
      <path d="M1610.0 412.5v-25.0m0 12.5q0 -12.5 12.5 -12.5q12.5 0 12.5 12.5v12.5"/>
      <path d="M1670.0 400.0q0 -12.5 -12.5 -12.5q-12.5 0 -12.5 12.5q0 12.5 12.5 12.5q12.5 0 12.5 -12.5m0 -12.5v25.0q0 12.5 -12.5 12.5h-12.5"/>
      <path d="M1715.0 362.5v50m0 -12.5q0 -12.5 12.5 -12.5q12.5 0 12.5 12.5v12.5"/>
      <path d="M1762.5 412.5v-25.0m0 -6.25v-6.25"/>
      <path d="M1785.0 412.5v-25.0m0 6.25q0 -6.25 6.25 -6.25q6.25 0 6.25 6.25v6.25m0 -6.25q0 -6.25 6.25 -6.25q6.25 0 6.25 6.25v18.75"/>
      <path d="M1820.0 412.5h18.75q6.25 0 6.25 -6.25q0 -6.25 -6.25 -6.25h-12.5q-6.25 0 -6.25 -6.25q0 -6.25 6.25 -6.25h18.75"/>
      <path d="M1855.0 400.0h25.0q0 -12.5 -12.5 -12.5q-12.5 0 -12.5 12.5q0 12.5 12.5 12.5h12.5"/>
      <path d="M1902.5 412.5v-50"/>
      <path d="M1937.5 412.5v-37.5q0 -12.5 12.5 -12.5m-25.0 25.0h25.0"/>
      <path d="M1995.0 387.5v12.5q0 12.5 12.5 12.5q12.5 0 12.5 -12.5m0 12.5v-25.0"/>
      <path d="M2030.0 412.5v-25.0m0 12.5q0 -12.5 12.5 -12.5q12.5 0 12.5 12.5v12.5"/>
      <path d="M2065.0 412.5h18.75q6.25 0 6.25 -6.25q0 -6.25 -6.25 -6.25h-12.5q-6.25 0 -6.25 -6.25q0 -6.25 6.25 -6.25h18.75"/>
      <path d="M2100.0 400.0h25.0q0 -12.5 -12.5 -12.5q-12.5 0 -12.5 12.5q0 12.5 12.5 12.5h12.5"/>
      <path d="M2135.0 400.0h25.0q0 -12.5 -12.5 -12.5q-12.5 0 -12.5 12.5q0 12.5 12.5 12.5h12.5"/>
      <path d="M2170.0 412.5v-25.0m0 12.5q0 -12.5 12.5 -12.5q12.5 0 12.5 12.5v12.5"/>
      <path d="M2211.25 412.5q6.25 0 6.25 -6.25v-6.25"/>
      <path d="M2287.5 412.5v-37.5m-12.5 12.5h25.0"/>
      <path d="M2310.0 362.5v50m0 -12.5q0 -12.5 12.5 -12.5q12.5 0 12.5 12.5v12.5"/>
      <path d="M2345.0 400.0h25.0q0 -12.5 -12.5 -12.5q-12.5 0 -12.5 12.5q0 12.5 12.5 12.5h12.5"/>
      <path d="M0 481.25h18.75q6.25 0 6.25 -6.25q0 -6.25 -6.25 -6.25h-12.5q-6.25 0 -6.25 -6.25q0 -6.25 6.25 -6.25h18.75"/>
      <path d="M60.0 481.25h-12.5q-12.5 0 -12.5 -12.5q0 -12.5 12.5 -12.5h12.5"/>
      <path d="M82.5 481.25q-12.5 0 -12.5 -12.5q0 -12.5 12.5 -12.5q12.5 0 12.5 12.5q0 12.5 -12.5 12.5"/>
      <path d="M105.0 456.25v12.5q0 12.5 12.5 12.5q12.5 0 12.5 -12.5m0 12.5v-25.0"/>
      <path d="M140.0 481.25v-25.0m0 12.5q0 -12.5 12.5 -12.5q12.5 0 12.5 12.5v12.5"/>
      <path d="M200.0 481.25v-50M200.0 468.75q0 -12.5 -12.5 -12.5q-12.5 0 -12.5 12.5q0 12.5 12.5 12.5q12.5 0 12.5 -12.5"/>
      <path d="M210.0 481.25v-25.0m0 12.5q0 -12.5 12.5 -12.5q12.5 0 12.5 12.5"/>
      <path d="M245.0 468.75h25.0q0 -12.5 -12.5 -12.5q-12.5 0 -12.5 12.5q0 12.5 12.5 12.5h12.5"/>
      <path d="M292.5 481.25v-50"/>
      <path d="M350.0 431.25v50m0 -12.5q0 -12.5 12.5 -12.5q12.5 0 12.5 12.5v12.5"/>
      <path d="M410.0 481.25v-12.5q0 -12.5 -12.5 -12.5q-12.5 0 -12.5 12.5q0 12.5 12.5 12.5q12.5 0 12.5 -12.5"/>
      <path d="M445.0 481.25v-50M445.0 468.75q0 -12.5 -12.5 -12.5q-12.5 0 -12.5 12.5q0 12.5 12.5 12.5q12.5 0 12.5 -12.5"/>
      <path d="M502.5 481.25v-37.5m-12.5 12.5h25.0"/>
      <path d="M525.0 431.25v50m0 -12.5q0 -12.5 12.5 -12.5q12.5 0 12.5 12.5v12.5"/>
      <path d="M560.0 468.75h25.0q0 -12.5 -12.5 -12.5q-12.5 0 -12.5 12.5q0 12.5 12.5 12.5h12.5"/>
      <path d="M642.5 481.25v-25.0m0 -6.25v-6.25"/>
      <path d="M665.0 481.25v-25.0m0 6.25q0 -6.25 6.25 -6.25q6.25 0 6.25 6.25v6.25m0 -6.25q0 -6.25 6.25 -6.25q6.25 0 6.25 6.25v18.75"/>
      <path d="M700.0 468.75q0 -12.5 12.5 -12.5q12.5 0 12.5 12.5q0 12.5 -12.5 12.5q-12.5 0 -12.5 -12.5m0 -12.5v37.5"/>
      <path d="M735.0 456.25v12.5q0 12.5 12.5 12.5q12.5 0 12.5 -12.5m0 12.5v-25.0"/>
      <path d="M795.0 481.25v-50M795.0 468.75q0 -12.5 -12.5 -12.5q-12.5 0 -12.5 12.5q0 12.5 12.5 12.5q12.5 0 12.5 -12.5"/>
      <path d="M805.0 468.75h25.0q0 -12.5 -12.5 -12.5q-12.5 0 -12.5 12.5q0 12.5 12.5 12.5h12.5"/>
      <path d="M840.0 481.25v-25.0m0 12.5q0 -12.5 12.5 -12.5q12.5 0 12.5 12.5v12.5"/>
      <path d="M900.0 481.25h-12.5q-12.5 0 -12.5 -12.5q0 -12.5 12.5 -12.5h12.5"/>
      <path d="M910.0 468.75h25.0q0 -12.5 -12.5 -12.5q-12.5 0 -12.5 12.5q0 12.5 12.5 12.5h12.5"/>
      <path d="M992.5 481.25v-37.5m-12.5 12.5h25.0"/>
      <path d="M1027.5 481.25q-12.5 0 -12.5 -12.5q0 -12.5 12.5 -12.5q12.5 0 12.5 12.5q0 12.5 -12.5 12.5"/>
      <path d="M1085.0 468.75h25.0q0 -12.5 -12.5 -12.5q-12.5 0 -12.5 12.5q0 12.5 12.5 12.5h12.5"/>
      <path d="M1120.0 481.25v-25.0m0 6.25q0 -6.25 6.25 -6.25q6.25 0 6.25 6.25v6.25m0 -6.25q0 -6.25 6.25 -6.25q6.25 0 6.25 6.25v18.75"/>
      <path d="M1155.0 481.25v-50M1155.0 468.75q0 -12.5 12.5 -12.5q12.5 0 12.5 12.5q0 12.5 -12.5 12.5q-12.5 0 -12.5 -12.5"/>
      <path d="M1190.0 481.25v-25.0m0 12.5q0 -12.5 12.5 -12.5q12.5 0 12.5 12.5"/>
      <path d="M1250.0 481.25v-12.5q0 -12.5 -12.5 -12.5q-12.5 0 -12.5 12.5q0 12.5 12.5 12.5q12.5 0 12.5 -12.5"/>
      <path d="M1285.0 481.25h-12.5q-12.5 0 -12.5 -12.5q0 -12.5 12.5 -12.5h12.5"/>
      <path d="M1295.0 468.75h25.0q0 -12.5 -12.5 -12.5q-12.5 0 -12.5 12.5q0 12.5 12.5 12.5h12.5"/>
      <path d="M1365.0 431.25v50m0 -12.5q0 -12.5 12.5 -12.5q12.5 0 12.5 12.5v12.5"/>
      <path d="M1400.0 468.75h25.0q0 -12.5 -12.5 -12.5q-12.5 0 -12.5 12.5q0 12.5 12.5 12.5h12.5"/>
      <path d="M1435.0 481.25v-25.0m0 12.5q0 -12.5 12.5 -12.5q12.5 0 12.5 12.5"/>
      <path d="M1482.5 481.25v-6.25"/>
      <path d="M9.375 506.25v6.25m6.25 0v-6.25"/>
      <path d="M60.0 500.0v37.5q0 12.5 -12.5 12.5q-12.5 0 -12.5 -12.5"/>
      <path d="M70.0 525.0v12.5q0 12.5 12.5 12.5q12.5 0 12.5 -12.5m0 12.5v-25.0"/>
      <path d="M130.0 550.0v-50M130.0 537.5q0 -12.5 -12.5 -12.5q-12.5 0 -12.5 12.5q0 12.5 12.5 12.5q12.5 0 12.5 -12.5"/>
      <path d="M165.0 550.0v-12.5q0 -12.5 -12.5 -12.5q-12.5 0 -12.5 12.5q0 12.5 12.5 12.5q12.5 0 12.5 -12.5"/>
      <path d="M175.0 550.0h18.75q6.25 0 6.25 -6.25q0 -6.25 -6.25 -6.25h-12.5q-6.25 0 -6.25 -6.25q0 -6.25 6.25 -6.25h18.75"/>
      <path d="M222.5 500.0v31.25m0 12.5v6.25"/>
      <path d="M292.5 550.0v-50m-12.5 0h25.0"/>
      <path d="M315.0 550.0v-25.0m0 12.5q0 -12.5 12.5 -12.5q12.5 0 12.5 12.5"/>
      <path d="M375.0 550.0v-12.5q0 -12.5 -12.5 -12.5q-12.5 0 -12.5 12.5q0 12.5 12.5 12.5q12.5 0 12.5 -12.5"/>
      <path d="M397.5 550.0v-25.0m0 -6.25v-6.25"/>
      <path d="M432.5 550.0v-37.5m-12.5 12.5h25.0"/>
      <path d="M467.5 550.0q-12.5 0 -12.5 -12.5q0 -12.5 12.5 -12.5q12.5 0 12.5 12.5q0 12.5 -12.5 12.5"/>
      <path d="M490.0 550.0v-25.0m0 12.5q0 -12.5 12.5 -12.5q12.5 0 12.5 12.5"/>
      <path d="M537.5 500.0v31.25m0 12.5v6.25"/>
      <path d="M569.375 506.25v6.25m6.25 0v-6.25"/>
      <path d="M630.0 550.0h25.0m-12.5 0v-50m-12.5 0h25.0"/>
      <path d="M700.0 537.5h25.0q0 -12.5 -12.5 -12.5q-12.5 0 -12.5 12.5q0 12.5 12.5 12.5h12.5"/>
      <path d="M747.5 512.5v6.25m0 6.25v25.0q0 12.5 -12.5 12.5h-6.25"/>
      <path d="M795.0 550.0v-12.5q0 -12.5 -12.5 -12.5q-12.5 0 -12.5 12.5q0 12.5 12.5 12.5q12.5 0 12.5 -12.5"/>
      <path d="M830.0 550.0h-12.5q-12.5 0 -12.5 -12.5q0 -12.5 12.5 -12.5h12.5"/>
      <path d="M840.0 525.0v12.5q0 12.5 12.5 12.5q12.5 0 12.5 -12.5m0 12.5v-25.0"/>
      <path d="M887.5 550.0v-50"/>
      <path d="M935.0 550.0v-12.5q0 -12.5 -12.5 -12.5q-12.5 0 -12.5 12.5q0 12.5 12.5 12.5q12.5 0 12.5 -12.5"/>
      <path d="M957.5 550.0v-37.5m-12.5 12.5h25.0"/>
      <path d="M980.0 537.5h25.0q0 -12.5 -12.5 -12.5q-12.5 0 -12.5 12.5q0 12.5 12.5 12.5h12.5"/>
      <path d="M1040.0 550.0v-50M1040.0 537.5q0 -12.5 -12.5 -12.5q-12.5 0 -12.5 12.5q0 12.5 12.5 12.5q12.5 0 12.5 -12.5"/>
      <path d="M1062.5 550.0v-6.25"/>
      <path d="M1129.375 506.25v6.25m6.25 0v-6.25"/>
      <path d="M1155.0 500.0l12.5 25.0l12.5 -25.0m-12.5 25.0v25.0"/>
      <path d="M1202.5 550.0q-12.5 0 -12.5 -12.5q0 -12.5 12.5 -12.5q12.5 0 12.5 12.5q0 12.5 -12.5 12.5"/>
      <path d="M1225.0 525.0v12.5q0 12.5 12.5 12.5q12.5 0 12.5 -12.5m0 12.5v-25.0"/>
      <path d="M1320.0 550.0v-12.5q0 -12.5 -12.5 -12.5q-12.5 0 -12.5 12.5q0 12.5 12.5 12.5q12.5 0 12.5 -12.5"/>
      <path d="M1330.0 550.0v-25.0m0 12.5q0 -12.5 12.5 -12.5q12.5 0 12.5 12.5"/>
      <path d="M1365.0 537.5h25.0q0 -12.5 -12.5 -12.5q-12.5 0 -12.5 12.5q0 12.5 12.5 12.5h12.5"/>
      <path d="M1460.0 550.0v-12.5q0 -12.5 -12.5 -12.5q-12.5 0 -12.5 12.5q0 12.5 12.5 12.5q12.5 0 12.5 -12.5"/>
      <path d="M1505.0 500.0v50m0 -12.5q0 -12.5 12.5 -12.5q12.5 0 12.5 12.5v12.5"/>
      <path d="M1540.0 525.0l12.5 25.0m12.5 -25.0l-18.75 37.5"/>
      <path d="M1575.0 537.5q0 -12.5 12.5 -12.5q12.5 0 12.5 12.5q0 12.5 -12.5 12.5q-12.5 0 -12.5 -12.5m0 -12.5v37.5"/>
      <path d="M1622.5 550.0q-12.5 0 -12.5 -12.5q0 -12.5 12.5 -12.5q12.5 0 12.5 12.5q0 12.5 -12.5 12.5"/>
      <path d="M1670.0 550.0h-12.5q-12.5 0 -12.5 -12.5q0 -12.5 12.5 -12.5h12.5"/>
      <path d="M1680.0 550.0v-25.0m0 12.5q0 -12.5 12.5 -12.5q12.5 0 12.5 12.5"/>
      <path d="M1727.5 550.0v-25.0m0 -6.25v-6.25"/>
      <path d="M1762.5 550.0v-37.5m-12.5 12.5h25.0"/>
      <path d="M1785.0 537.5h25.0q0 -12.5 -12.5 -12.5q-12.5 0 -12.5 12.5q0 12.5 12.5 12.5h12.5"/>
      <path d="M1826.25 550.0q6.25 0 6.25 -6.25v-6.25"/>
      <path d="M1902.5 550.0v-37.5m-12.5 12.5h25.0"/>
      <path d="M1937.5 550.0q-12.5 0 -12.5 -12.5q0 -12.5 12.5 -12.5q12.5 0 12.5 12.5q0 12.5 -12.5 12.5"/>
      <path d="M1972.5 550.0q-12.5 0 -12.5 -12.5q0 -12.5 12.5 -12.5q12.5 0 12.5 12.5q0 12.5 -12.5 12.5"/>
      <path d="M2001.25 550.0q6.25 0 6.25 -6.25v-6.25"/>
      <path d="M2090.0 550.0v-12.5q0 -12.5 -12.5 -12.5q-12.5 0 -12.5 12.5q0 12.5 12.5 12.5q12.5 0 12.5 -12.5"/>
      <path d="M2100.0 550.0v-25.0m0 12.5q0 -12.5 12.5 -12.5q12.5 0 12.5 12.5"/>
      <path d="M2135.0 537.5h25.0q0 -12.5 -12.5 -12.5q-12.5 0 -12.5 12.5q0 12.5 12.5 12.5h12.5"/>
      <path d="M2205.0 525.0l12.5 25.0m12.5 -25.0l-18.75 37.5"/>
      <path d="M2252.5 550.0q-12.5 0 -12.5 -12.5q0 -12.5 12.5 -12.5q12.5 0 12.5 12.5q0 12.5 -12.5 12.5"/>
      <path d="M2275.0 525.0v12.5q0 12.5 12.5 12.5q12.5 0 12.5 -12.5m0 12.5v-25.0"/>
      <path d="M2322.5 550.0v-6.25m0 -12.5v-6.25q0 -6.25 6.25 -6.25q6.25 0 6.25 -6.25v-6.25q0 -6.25 -6.25 -6.25h-12.5q-6.25 0 -6.25 6.25v6.25"/>
      <path d="M2380.0 550.0l12.5 -50l12.5 50M2386.25 525.0h12.5"/>
      <path d="M25.0 618.75v-50M25.0 606.25q0 -12.5 -12.5 -12.5q-12.5 0 -12.5 12.5q0 12.5 12.5 12.5q12.5 0 12.5 -12.5"/>
      <path d="M35.0 606.25h25.0q0 -12.5 -12.5 -12.5q-12.5 0 -12.5 12.5q0 12.5 12.5 12.5h12.5"/>
      <path d="M82.5 618.75v-50"/>
      <path d="M117.5 618.75v-25.0m0 -6.25v-6.25"/>
      <path d="M140.0 618.75v-50M140.0 606.25q0 -12.5 12.5 -12.5q12.5 0 12.5 12.5q0 12.5 -12.5 12.5q-12.5 0 -12.5 -12.5"/>
      <path d="M175.0 606.25h25.0q0 -12.5 -12.5 -12.5q-12.5 0 -12.5 12.5q0 12.5 12.5 12.5h12.5"/>
      <path d="M210.0 618.75v-25.0m0 12.5q0 -12.5 12.5 -12.5q12.5 0 12.5 12.5"/>
      <path d="M270.0 618.75v-12.5q0 -12.5 -12.5 -12.5q-12.5 0 -12.5 12.5q0 12.5 12.5 12.5q12.5 0 12.5 -12.5"/>
      <path d="M292.5 618.75v-37.5m-12.5 12.5h25.0"/>
      <path d="M315.0 606.25h25.0q0 -12.5 -12.5 -12.5q-12.5 0 -12.5 12.5q0 12.5 12.5 12.5h12.5"/>
      <path d="M410.0 618.75v-50M410.0 606.25q0 -12.5 -12.5 -12.5q-12.5 0 -12.5 12.5q0 12.5 12.5 12.5q12.5 0 12.5 -12.5"/>
      <path d="M420.0 606.25h25.0q0 -12.5 -12.5 -12.5q-12.5 0 -12.5 12.5q0 12.5 12.5 12.5h12.5"/>
      <path d="M480.0 618.75h-12.5q-12.5 0 -12.5 -12.5q0 -12.5 12.5 -12.5h12.5"/>
      <path d="M490.0 606.25h25.0q0 -12.5 -12.5 -12.5q-12.5 0 -12.5 12.5q0 12.5 12.5 12.5h12.5"/>
      <path d="M537.5 618.75v-25.0m0 -6.25v-6.25"/>
      <path d="M560.0 593.75l12.5 25.0l12.5 -25.0"/>
      <path d="M595.0 606.25h25.0q0 -12.5 -12.5 -12.5q-12.5 0 -12.5 12.5q0 12.5 12.5 12.5h12.5"/>
      <path d="M630.0 618.75v-25.0m0 12.5q0 -12.5 12.5 -12.5q12.5 0 12.5 12.5"/>
      <path d="M677.5 618.75v-6.25"/>
      <path d="M709.375 575.0v6.25m6.25 0v-6.25"/>
      <path d="M9.375 643.75v6.25m6.25 0v-6.25"/>
      <path d="M35.0 637.5l6.25 50l6.25 -25.0l6.25 25.0l6.25 -50"/>
      <path d="M70.0 637.5v50m0 -12.5q0 -12.5 12.5 -12.5q12.5 0 12.5 12.5v12.5"/>
      <path d="M117.5 687.5q-12.5 0 -12.5 -12.5q0 -12.5 12.5 -12.5q12.5 0 12.5 12.5q0 12.5 -12.5 12.5"/>
      <path d="M187.5 687.5v-25.0m0 -6.25v-6.25"/>
      <path d="M210.0 687.5h18.75q6.25 0 6.25 -6.25q0 -6.25 -6.25 -6.25h-12.5q-6.25 0 -6.25 -6.25q0 -6.25 6.25 -6.25h18.75"/>
      <path d="M251.25 687.5q6.25 0 6.25 -6.25v-6.25"/>
      <path d="M315.0 687.5v-50l25.0 50v-50"/>
      <path d="M350.0 675.0h25.0q0 -12.5 -12.5 -12.5q-12.5 0 -12.5 12.5q0 12.5 12.5 12.5h12.5"/>
      <path d="M397.5 687.5v-50"/>
      <path d="M432.5 687.5v-50"/>
      <path d="M455.0 662.5l12.5 25.0m12.5 -25.0l-18.75 37.5"/>
      <path d="M502.5 687.5v-6.25m0 -12.5v-6.25q0 -6.25 6.25 -6.25q6.25 0 6.25 -6.25v-6.25q0 -6.25 -6.25 -6.25h-12.5q-6.25 0 -6.25 6.25v6.25"/>
      <path d="M534.375 643.75v6.25m6.25 0v-6.25"/>
      <path d="M595.0 687.5h18.75q6.25 0 6.25 -6.25q0 -6.25 -6.25 -6.25h-12.5q-6.25 0 -6.25 -6.25q0 -6.25 6.25 -6.25h18.75"/>
      <path d="M655.0 687.5v-12.5q0 -12.5 -12.5 -12.5q-12.5 0 -12.5 12.5q0 12.5 12.5 12.5q12.5 0 12.5 -12.5"/>
      <path d="M677.5 687.5v-25.0m0 -6.25v-6.25"/>
      <path d="M725.0 687.5v-50M725.0 675.0q0 -12.5 -12.5 -12.5q-12.5 0 -12.5 12.5q0 12.5 12.5 12.5q12.5 0 12.5 -12.5"/>
      <path d="M795.0 687.5h-12.5q-12.5 0 -12.5 -12.5v-25.0q0 -12.5 12.5 -12.5h12.5"/>
      <path d="M830.0 687.5v-12.5q0 -12.5 -12.5 -12.5q-12.5 0 -12.5 12.5q0 12.5 12.5 12.5q12.5 0 12.5 -12.5"/>
      <path d="M852.5 687.5v-37.5m-12.5 12.5h25.0"/>
      <path d="M875.0 637.5v50m0 -12.5q0 -12.5 12.5 -12.5q12.5 0 12.5 12.5v12.5"/>
      <path d="M910.0 675.0h25.0q0 -12.5 -12.5 -12.5q-12.5 0 -12.5 12.5q0 12.5 12.5 12.5h12.5"/>
      <path d="M945.0 687.5v-25.0m0 12.5q0 -12.5 12.5 -12.5q12.5 0 12.5 12.5"/>
      <path d="M992.5 687.5v-25.0m0 -6.25v-6.25"/>
      <path d="M1015.0 687.5v-25.0m0 12.5q0 -12.5 12.5 -12.5q12.5 0 12.5 12.5v12.5"/>
      <path d="M1050.0 675.0h25.0q0 -12.5 -12.5 -12.5q-12.5 0 -12.5 12.5q0 12.5 12.5 12.5h12.5"/>
      <path d="M1097.5 643.75v6.25"/>
      <path d="M1120.0 687.5h18.75q6.25 0 6.25 -6.25q0 -6.25 -6.25 -6.25h-12.5q-6.25 0 -6.25 -6.25q0 -6.25 6.25 -6.25h18.75"/>
      <path d="M1190.0 662.5l12.5 25.0l12.5 -25.0"/>
      <path d="M1237.5 687.5q-12.5 0 -12.5 -12.5q0 -12.5 12.5 -12.5q12.5 0 12.5 12.5q0 12.5 -12.5 12.5"/>
      <path d="M1272.5 687.5v-25.0m0 -6.25v-6.25"/>
      <path d="M1320.0 687.5h-12.5q-12.5 0 -12.5 -12.5q0 -12.5 12.5 -12.5h12.5"/>
      <path d="M1330.0 675.0h25.0q0 -12.5 -12.5 -12.5q-12.5 0 -12.5 12.5q0 12.5 12.5 12.5h12.5"/>
      <path d="M1425.0 687.5v-12.5q0 -12.5 -12.5 -12.5q-12.5 0 -12.5 12.5q0 12.5 12.5 12.5q12.5 0 12.5 -12.5"/>
      <path d="M1447.5 687.5v-37.5m-12.5 12.5h25.0"/>
      <path d="M1505.0 687.5v-25.0m0 6.25q0 -6.25 6.25 -6.25q6.25 0 6.25 6.25v6.25m0 -6.25q0 -6.25 6.25 -6.25q6.25 0 6.25 6.25v18.75"/>
      <path d="M1540.0 662.5l12.5 25.0m12.5 -25.0l-18.75 37.5"/>
      <path d="M1610.0 675.0h25.0q0 -12.5 -12.5 -12.5q-12.5 0 -12.5 12.5q0 12.5 12.5 12.5h12.5"/>
      <path d="M1657.5 687.5v-50"/>
      <path d="M1680.0 687.5v-50M1680.0 675.0q0 -12.5 12.5 -12.5q12.5 0 12.5 12.5q0 12.5 -12.5 12.5q-12.5 0 -12.5 -12.5"/>
      <path d="M1727.5 687.5q-12.5 0 -12.5 -12.5q0 -12.5 12.5 -12.5q12.5 0 12.5 12.5q0 12.5 -12.5 12.5"/>
      <path d="M1750.0 662.5v18.75q0 6.25 6.25 6.25q6.25 0 6.25 -6.25v-6.25m0 6.25q0 6.25 6.25 6.25q6.25 0 6.25 -6.25m0 -18.75v25.0"/>
      <path d="M1797.5 675.0v-6.25m0 -12.5v-6.25"/>
      <path d="M1855.0 687.5h25.0m-12.5 0v-50m-12.5 0h25.0"/>
      <path d="M1925.0 637.5v50m0 -12.5q0 -12.5 12.5 -12.5q12.5 0 12.5 12.5v12.5"/>
      <path d="M1985.0 687.5v-12.5q0 -12.5 -12.5 -12.5q-12.5 0 -12.5 12.5q0 12.5 12.5 12.5q12.5 0 12.5 -12.5"/>
      <path d="M2020.0 687.5v-50M2020.0 675.0q0 -12.5 -12.5 -12.5q-12.5 0 -12.5 12.5q0 12.5 12.5 12.5q12.5 0 12.5 -12.5"/>
      <path d="M2065.0 687.5v-50M2065.0 675.0q0 -12.5 12.5 -12.5q12.5 0 12.5 12.5q0 12.5 -12.5 12.5q-12.5 0 -12.5 -12.5"/>
      <path d="M2100.0 675.0h25.0q0 -12.5 -12.5 -12.5q-12.5 0 -12.5 12.5q0 12.5 12.5 12.5h12.5"/>
      <path d="M2135.0 675.0h25.0q0 -12.5 -12.5 -12.5q-12.5 0 -12.5 12.5q0 12.5 12.5 12.5h12.5"/>
      <path d="M2170.0 687.5v-25.0m0 12.5q0 -12.5 12.5 -12.5q12.5 0 12.5 12.5v12.5"/>
      <path d="M2217.5 687.5v-6.25"/>
      <path d="M2252.5 687.5v-6.25"/>
      <path d="M2287.5 687.5v-6.25"/>
    </g>
  </g>
</svg>
