<svg version="1.1" width="1150" height="870" xmlns="http://www.w3.org/2000/svg">
  <!-- Seed: 5374159125031248616 -->
  <!-- Size: SvgSize.Size9x12 -->
  <!-- Params:
    draw: True
    text_file_override: 
    line_count: [RangeInt] min: 5 max: 15
  -->
  <g stroke="black" fill="none">
    <g transform="translate(50, 323.0813953488372) scale(0.4069767441860465, 0.4069767441860465)">
      <path d="M12.5 68.75v-6.25"/>
      <path d="M47.5 68.75v-6.25"/>
      <path d="M82.5 68.75v-6.25"/>
      <path d="M117.5 68.75v-37.5m-12.5 12.5h25.0"/>
      <path d="M140.0 18.75v50m0 -12.5q0 -12.5 12.5 -12.5q12.5 0 12.5 12.5v12.5"/>
      <path d="M175.0 56.25h25.0q0 -12.5 -12.5 -12.5q-12.5 0 -12.5 12.5q0 12.5 12.5 12.5h12.5"/>
      <path d="M270.0 68.75v-50M270.0 56.25q0 -12.5 -12.5 -12.5q-12.5 0 -12.5 12.5q0 12.5 12.5 12.5q12.5 0 12.5 -12.5"/>
      <path d="M280.0 68.75v-25.0m0 12.5q0 -12.5 12.5 -12.5q12.5 0 12.5 12.5"/>
      <path d="M340.0 56.25q0 12.5 -12.5 12.5q-12.5 0 -12.5 -12.5q0 -12.5 12.5 -12.5q12.5 0 12.5 12.5m0 12.5v-18.75q0 -12.5 -12.5 -12.5h-6.25"/>
      <path d="M350.0 43.75v18.75q0 6.25 6.25 6.25q6.25 0 6.25 -6.25v-6.25m0 6.25q0 6.25 6.25 6.25q6.25 0 6.25 -6.25m0 -18.75v25.0"/>
      <path d="M397.5 68.75v-25.0m0 -12.5v-6.25"/>
      <path d="M420.0 68.75v-25.0m0 12.5q0 -12.5 12.5 -12.5q12.5 0 12.5 12.5v12.5"/>
      <path d="M480.0 56.25q0 -12.5 -12.5 -12.5q-12.5 0 -12.5 12.5q0 12.5 12.5 12.5q12.5 0 12.5 -12.5m0 -12.5v25.0q0 12.5 -12.5 12.5h-12.5"/>
      <path d="M490.0 43.75h25.0"/>
      <path d="M525.0 68.75v-25.0m0 12.5q0 -12.5 12.5 -12.5q12.5 0 12.5 12.5"/>
      <path d="M572.5 68.75q-12.5 0 -12.5 -12.5q0 -12.5 12.5 -12.5q12.5 0 12.5 12.5q0 12.5 -12.5 12.5"/>
      <path d="M607.5 68.75q-12.5 0 -12.5 -12.5q0 -12.5 12.5 -12.5q12.5 0 12.5 12.5q0 12.5 -12.5 12.5"/>
      <path d="M630.0 68.75v-25.0m0 6.25q0 -6.25 6.25 -6.25q6.25 0 6.25 6.25v6.25m0 -6.25q0 -6.25 6.25 -6.25q6.25 0 6.25 6.25v18.75"/>
      <path d="M712.5 68.75v-37.5q0 -12.5 12.5 -12.5m-25.0 25.0h25.0"/>
      <path d="M747.5 68.75v-50"/>
      <path d="M782.5 68.75q-12.5 0 -12.5 -12.5q0 -12.5 12.5 -12.5q12.5 0 12.5 12.5q0 12.5 -12.5 12.5"/>
      <path d="M817.5 68.75q-12.5 0 -12.5 -12.5q0 -12.5 12.5 -12.5q12.5 0 12.5 12.5q0 12.5 -12.5 12.5"/>
      <path d="M840.0 68.75v-25.0m0 12.5q0 -12.5 12.5 -12.5q12.5 0 12.5 12.5"/>
      <path d="M881.25 68.75q6.25 0 6.25 -6.25v-6.25m0 -12.5v-6.25"/>
      <path d="M970.0 56.25q0 12.5 -12.5 12.5q-12.5 0 -12.5 -12.5q0 -12.5 12.5 -12.5q12.5 0 12.5 12.5m0 12.5v-18.75q0 -12.5 -12.5 -12.5h-6.25"/>
      <path d="M980.0 68.75v-25.0m0 12.5q0 -12.5 12.5 -12.5q12.5 0 12.5 12.5v12.5"/>
      <path d="M1040.0 68.75v-50M1040.0 56.25q0 -12.5 -12.5 -12.5q-12.5 0 -12.5 12.5q0 12.5 12.5 12.5q12.5 0 12.5 -12.5"/>
      <path d="M1097.5 68.75v-37.5m-12.5 12.5h25.0"/>
      <path d="M1120.0 18.75v50m0 -12.5q0 -12.5 12.5 -12.5q12.5 0 12.5 12.5v12.5"/>
      <path d="M1155.0 56.25h25.0q0 -12.5 -12.5 -12.5q-12.5 0 -12.5 12.5q0 12.5 12.5 12.5h12.5"/>
      <path d="M1190.0 68.75v-25.0m0 12.5q0 -12.5 12.5 -12.5q12.5 0 12.5 12.5"/>
      <path d="M1225.0 56.25h25.0q0 -12.5 -12.5 -12.5q-12.5 0 -12.5 12.5q0 12.5 12.5 12.5h12.5"/>
      <path d="M1266.25 68.75q6.25 0 6.25 -6.25v-6.25"/>
      <path d="M1342.5 68.75v-25.0m0 -12.5v-6.25"/>
      <path d="M1365.0 68.75v-25.0m0 12.5q0 -12.5 12.5 -12.5q12.5 0 12.5 12.5v12.5"/>
      <path d="M1447.5 68.75v-37.5m-12.5 12.5h25.0"/>
      <path d="M1470.0 18.75v50m0 -12.5q0 -12.5 12.5 -12.5q12.5 0 12.5 12.5v12.5"/>
      <path d="M1505.0 56.25h25.0q0 -12.5 -12.5 -12.5q-12.5 0 -12.5 12.5q0 12.5 12.5 12.5h12.5"/>
      <path d="M1575.0 43.75l12.5 25.0l12.5 -25.0"/>
      <path d="M1610.0 56.25h25.0q0 -12.5 -12.5 -12.5q-12.5 0 -12.5 12.5q0 12.5 12.5 12.5h12.5"/>
      <path d="M1645.0 68.75v-25.0m0 12.5q0 -12.5 12.5 -12.5q12.5 0 12.5 12.5"/>
      <path d="M1680.0 43.75l12.5 25.0m12.5 -25.0l-18.75 37.5"/>
      <path d="M1750.0 68.75v-25.0m0 6.25q0 -6.25 6.25 -6.25q6.25 0 6.25 6.25v6.25m0 -6.25q0 -6.25 6.25 -6.25q6.25 0 6.25 6.25v18.75"/>
      <path d="M1797.5 68.75q-12.5 0 -12.5 -12.5q0 -12.5 12.5 -12.5q12.5 0 12.5 12.5q0 12.5 -12.5 12.5"/>
      <path d="M1845.0 68.75v-50M1845.0 56.25q0 -12.5 -12.5 -12.5q-12.5 0 -12.5 12.5q0 12.5 12.5 12.5q12.5 0 12.5 -12.5"/>
      <path d="M1855.0 56.25h25.0q0 -12.5 -12.5 -12.5q-12.5 0 -12.5 12.5q0 12.5 12.5 12.5h12.5"/>
      <path d="M1890.0 68.75v-25.0m0 12.5q0 -12.5 12.5 -12.5q12.5 0 12.5 12.5"/>
      <path d="M1950.0 56.25q0 12.5 -12.5 12.5q-12.5 0 -12.5 -12.5q0 -12.5 12.5 -12.5q12.5 0 12.5 12.5m0 12.5v-18.75q0 -12.5 -12.5 -12.5h-6.25"/>
      <path d="M1972.5 68.75v-37.5m-12.5 12.5h25.0"/>
      <path d="M1995.0 56.25h25.0q0 -12.5 -12.5 -12.5q-12.5 0 -12.5 12.5q0 12.5 12.5 12.5h12.5"/>
      <path d="M2030.0 43.75h25.0"/>
      <path d="M2065.0 68.75h18.75q6.25 0 6.25 -6.25q0 -6.25 -6.25 -6.25h-12.5q-6.25 0 -6.25 -6.25q0 -6.25 6.25 -6.25h18.75"/>
      <path d="M2112.5 68.75v-25.0m0 -12.5v-6.25"/>
      <path d="M2160.0 68.75h-25.0l25.0 -25.0h-25.0"/>
      <path d="M2170.0 56.25h25.0q0 -12.5 -12.5 -12.5q-12.5 0 -12.5 12.5q0 12.5 12.5 12.5h12.5"/>
      <path d="M2230.0 68.75v-50M2230.0 56.25q0 -12.5 -12.5 -12.5q-12.5 0 -12.5 12.5q0 12.5 12.5 12.5q12.5 0 12.5 -12.5"/>
      <path d="M25.0 125.0q0 12.5 -12.5 12.5q-12.5 0 -12.5 -12.5q0 -12.5 12.5 -12.5q12.5 0 12.5 12.5m0 12.5v-18.75q0 -12.5 -12.5 -12.5h-6.25"/>
      <path d="M35.0 125.0q0 -12.5 12.5 -12.5q12.5 0 12.5 12.5q0 12.5 -12.5 12.5q-12.5 0 -12.5 -12.5m0 -12.5v37.5"/>
      <path d="M95.0 125.0q0 12.5 -12.5 12.5q-12.5 0 -12.5 -12.5q0 -12.5 12.5 -12.5q12.5 0 12.5 12.5m0 12.5v-18.75q0 -12.5 -12.5 -12.5h-6.25"/>
      <path d="M105.0 137.5v-25.0m0 12.5q0 -12.5 12.5 -12.5q12.5 0 12.5 12.5"/>
      <path d="M152.5 137.5v-37.5m-12.5 12.5h25.0"/>
      <path d="M175.0 137.5v-25.0m0 6.25q0 -6.25 6.25 -6.25q6.25 0 6.25 6.25v6.25m0 -6.25q0 -6.25 6.25 -6.25q6.25 0 6.25 6.25v18.75"/>
      <path d="M210.0 125.0h25.0q0 -12.5 -12.5 -12.5q-12.5 0 -12.5 12.5q0 12.5 12.5 12.5h12.5"/>
      <path d="M245.0 137.5v-25.0m0 12.5q0 -12.5 12.5 -12.5q12.5 0 12.5 12.5v12.5"/>
      <path d="M292.5 137.5v-37.5m-12.5 12.5h25.0"/>
      <path d="M321.25 137.5q6.25 0 6.25 -6.25v-6.25"/>
      <path d="M385.0 112.5v18.75q0 6.25 6.25 6.25q6.25 0 6.25 -6.25v-6.25m0 6.25q0 6.25 6.25 6.25q6.25 0 6.25 -6.25m0 -18.75v25.0"/>
      <path d="M420.0 87.5v50m0 -12.5q0 -12.5 12.5 -12.5q12.5 0 12.5 12.5v12.5"/>
      <path d="M467.5 137.5v-25.0m0 -12.5v-6.25"/>
      <path d="M515.0 137.5h-12.5q-12.5 0 -12.5 -12.5q0 -12.5 12.5 -12.5h12.5"/>
      <path d="M525.0 87.5v50m0 -12.5q0 -12.5 12.5 -12.5q12.5 0 12.5 12.5v12.5"/>
      <path d="M595.0 112.5v18.75q0 6.25 6.25 6.25q6.25 0 6.25 -6.25v-6.25m0 6.25q0 6.25 6.25 6.25q6.25 0 6.25 -6.25m0 -18.75v25.0"/>
      <path d="M655.0 125.0q0 12.5 -12.5 12.5q-12.5 0 -12.5 -12.5q0 -12.5 12.5 -12.5q12.5 0 12.5 12.5m0 12.5v-18.75q0 -12.5 -12.5 -12.5h-6.25"/>
      <path d="M665.0 137.5h18.75q6.25 0 6.25 -6.25q0 -6.25 -6.25 -6.25h-12.5q-6.25 0 -6.25 -6.25q0 -6.25 6.25 -6.25h18.75"/>
      <path d="M735.0 125.0h25.0q0 -12.5 -12.5 -12.5q-12.5 0 -12.5 12.5q0 12.5 12.5 12.5h12.5"/>
      <path d="M770.0 112.5l12.5 25.0l12.5 -25.0"/>
      <path d="M805.0 125.0h25.0q0 -12.5 -12.5 -12.5q-12.5 0 -12.5 12.5q0 12.5 12.5 12.5h12.5"/>
      <path d="M840.0 137.5v-25.0m0 12.5q0 -12.5 12.5 -12.5q12.5 0 12.5 12.5"/>
      <path d="M875.0 112.5l12.5 25.0m12.5 -25.0l-18.75 37.5"/>
      <path d="M957.5 137.5v-37.5m-12.5 12.5h25.0"/>
      <path d="M980.0 87.5v50m0 -12.5q0 -12.5 12.5 -12.5q12.5 0 12.5 12.5v12.5"/>
      <path d="M1027.5 137.5v-25.0m0 -12.5v-6.25"/>
      <path d="M1050.0 137.5v-25.0m0 12.5q0 -12.5 12.5 -12.5q12.5 0 12.5 12.5v12.5"/>
      <path d="M1110.0 125.0q0 -12.5 -12.5 -12.5q-12.5 0 -12.5 12.5q0 12.5 12.5 12.5q12.5 0 12.5 -12.5m0 -12.5v25.0q0 12.5 -12.5 12.5h-12.5"/>
      <path d="M1167.5 137.5v-37.5m-12.5 12.5h25.0"/>
      <path d="M1202.5 137.5q-12.5 0 -12.5 -12.5q0 -12.5 12.5 -12.5q12.5 0 12.5 12.5q0 12.5 -12.5 12.5"/>
      <path d="M1272.5 137.5v-37.5m-12.5 12.5h25.0"/>
      <path d="M1295.0 87.5v50m0 -12.5q0 -12.5 12.5 -12.5q12.5 0 12.5 12.5v12.5"/>
      <path d="M1330.0 125.0h25.0q0 -12.5 -12.5 -12.5q-12.5 0 -12.5 12.5q0 12.5 12.5 12.5h12.5"/>
      <path d="M1365.0 137.5v-25.0m0 6.25q0 -6.25 6.25 -6.25q6.25 0 6.25 6.25v6.25m0 -6.25q0 -6.25 6.25 -6.25q6.25 0 6.25 6.25v18.75"/>
      <path d="M1406.25 137.5q6.25 0 6.25 -6.25v-6.25"/>
      <path d="M1482.5 137.5v-37.5m-12.5 12.5h25.0"/>
      <path d="M1505.0 87.5v50m0 -12.5q0 -12.5 12.5 -12.5q12.5 0 12.5 12.5v12.5"/>
      <path d="M1540.0 125.0h25.0q0 -12.5 -12.5 -12.5q-12.5 0 -12.5 12.5q0 12.5 12.5 12.5h12.5"/>
      <path d="M1610.0 112.5l12.5 25.0l12.5 -25.0"/>
      <path d="M1657.5 137.5v-25.0m0 -12.5v-6.25"/>
      <path d="M1680.0 137.5h18.75q6.25 0 6.25 -6.25q0 -6.25 -6.25 -6.25h-12.5q-6.25 0 -6.25 -6.25q0 -6.25 6.25 -6.25h18.75"/>
      <path d="M1727.5 137.5v-25.0m0 -12.5v-6.25"/>
      <path d="M1762.5 137.5v-37.5m-12.5 12.5h25.0"/>
      <path d="M1797.5 137.5q-12.5 0 -12.5 -12.5q0 -12.5 12.5 -12.5q12.5 0 12.5 12.5q0 12.5 -12.5 12.5"/>
      <path d="M1820.0 137.5v-25.0m0 12.5q0 -12.5 12.5 -12.5q12.5 0 12.5 12.5"/>
      <path d="M1855.0 137.5h18.75q6.25 0 6.25 -6.25q0 -6.25 -6.25 -6.25h-12.5q-6.25 0 -6.25 -6.25q0 -6.25 6.25 -6.25h18.75"/>
      <path d="M1925.0 112.5v18.75q0 6.25 6.25 6.25q6.25 0 6.25 -6.25v-6.25m0 6.25q0 6.25 6.25 6.25q6.25 0 6.25 -6.25m0 -18.75v25.0"/>
      <path d="M1960.0 125.0h25.0q0 -12.5 -12.5 -12.5q-12.5 0 -12.5 12.5q0 12.5 12.5 12.5h12.5"/>
      <path d="M1995.0 137.5v-25.0m0 12.5q0 -12.5 12.5 -12.5q12.5 0 12.5 12.5"/>
      <path d="M2030.0 125.0h25.0q0 -12.5 -12.5 -12.5q-12.5 0 -12.5 12.5q0 12.5 12.5 12.5h12.5"/>
      <path d="M2100.0 137.5v-25.0m0 6.25q0 -6.25 6.25 -6.25q6.25 0 6.25 6.25v6.25m0 -6.25q0 -6.25 6.25 -6.25q6.25 0 6.25 6.25v18.75"/>
      <path d="M2147.5 137.5q-12.5 0 -12.5 -12.5q0 -12.5 12.5 -12.5q12.5 0 12.5 12.5q0 12.5 -12.5 12.5"/>
      <path d="M2170.0 137.5h18.75q6.25 0 6.25 -6.25q0 -6.25 -6.25 -6.25h-12.5q-6.25 0 -6.25 -6.25q0 -6.25 6.25 -6.25h18.75"/>
      <path d="M2217.5 137.5v-37.5m-12.5 12.5h25.0"/>
      <path d="M25.0 206.25h-12.5q-12.5 0 -12.5 -12.5q0 -12.5 12.5 -12.5h12.5"/>
      <path d="M47.5 206.25q-12.5 0 -12.5 -12.5q0 -12.5 12.5 -12.5q12.5 0 12.5 12.5q0 12.5 -12.5 12.5"/>
      <path d="M70.0 206.25v-25.0m0 12.5q0 -12.5 12.5 -12.5q12.5 0 12.5 12.5"/>
      <path d="M130.0 206.25v-50M130.0 193.75q0 -12.5 -12.5 -12.5q-12.5 0 -12.5 12.5q0 12.5 12.5 12.5q12.5 0 12.5 -12.5"/>
      <path d="M152.5 206.25v-25.0m0 -12.5v-6.25"/>
      <path d="M200.0 193.75q0 12.5 -12.5 12.5q-12.5 0 -12.5 -12.5q0 -12.5 12.5 -12.5q12.5 0 12.5 12.5m0 12.5v-18.75q0 -12.5 -12.5 -12.5h-6.25"/>
      <path d="M222.5 206.25v-50"/>
      <path d="M257.5 206.25v-50"/>
      <path d="M280.0 181.25l12.5 25.0m12.5 -25.0l-18.75 37.5"/>
      <path d="M375.0 193.75q0 12.5 -12.5 12.5q-12.5 0 -12.5 -12.5q0 -12.5 12.5 -12.5q12.5 0 12.5 12.5m0 12.5v-18.75q0 -12.5 -12.5 -12.5h-6.25"/>
      <path d="M385.0 206.25v-25.0m0 12.5q0 -12.5 12.5 -12.5q12.5 0 12.5 12.5v12.5"/>
      <path d="M445.0 206.25v-50M445.0 193.75q0 -12.5 -12.5 -12.5q-12.5 0 -12.5 12.5q0 12.5 12.5 12.5q12.5 0 12.5 -12.5"/>
      <path d="M490.0 193.75h25.0q0 -12.5 -12.5 -12.5q-12.5 0 -12.5 12.5q0 12.5 12.5 12.5h12.5"/>
      <path d="M525.0 181.25l12.5 25.0l12.5 -25.0"/>
      <path d="M560.0 193.75h25.0q0 -12.5 -12.5 -12.5q-12.5 0 -12.5 12.5q0 12.5 12.5 12.5h12.5"/>
      <path d="M595.0 206.25v-25.0m0 12.5q0 -12.5 12.5 -12.5q12.5 0 12.5 12.5v12.5"/>
      <path d="M690.0 193.75q0 -12.5 -12.5 -12.5q-12.5 0 -12.5 12.5q0 12.5 12.5 12.5q12.5 0 12.5 -12.5m0 -12.5v25.0q0 12.5 -12.5 12.5h-12.5"/>
      <path d="M700.0 206.25v-25.0m0 12.5q0 -12.5 12.5 -12.5q12.5 0 12.5 12.5"/>
      <path d="M760.0 193.75q0 12.5 -12.5 12.5q-12.5 0 -12.5 -12.5q0 -12.5 12.5 -12.5q12.5 0 12.5 12.5m0 12.5v-18.75q0 -12.5 -12.5 -12.5h-6.25"/>
      <path d="M782.5 206.25v-37.5m-12.5 12.5h25.0"/>
      <path d="M805.0 193.75h25.0q0 -12.5 -12.5 -12.5q-12.5 0 -12.5 12.5q0 12.5 12.5 12.5h12.5"/>
      <path d="M852.5 206.25v-37.5q0 -12.5 12.5 -12.5m-25.0 25.0h25.0"/>
      <path d="M875.0 181.25v12.5q0 12.5 12.5 12.5q12.5 0 12.5 -12.5m0 12.5v-25.0"/>
      <path d="M922.5 206.25v-50"/>
      <path d="M957.5 206.25v-50"/>
      <path d="M980.0 181.25l12.5 25.0m12.5 -25.0l-18.75 37.5"/>
      <path d="M1050.0 181.25v18.75q0 6.25 6.25 6.25q6.25 0 6.25 -6.25v-6.25m0 6.25q0 6.25 6.25 6.25q6.25 0 6.25 -6.25m0 -18.75v25.0"/>
      <path d="M1085.0 193.75h25.0q0 -12.5 -12.5 -12.5q-12.5 0 -12.5 12.5q0 12.5 12.5 12.5h12.5"/>
      <path d="M1132.5 206.25v-50"/>
      <path d="M1180.0 206.25h-12.5q-12.5 0 -12.5 -12.5q0 -12.5 12.5 -12.5h12.5"/>
      <path d="M1202.5 206.25q-12.5 0 -12.5 -12.5q0 -12.5 12.5 -12.5q12.5 0 12.5 12.5q0 12.5 -12.5 12.5"/>
      <path d="M1225.0 206.25v-25.0m0 6.25q0 -6.25 6.25 -6.25q6.25 0 6.25 6.25v6.25m0 -6.25q0 -6.25 6.25 -6.25q6.25 0 6.25 6.25v18.75"/>
      <path d="M1260.0 193.75h25.0q0 -12.5 -12.5 -12.5q-12.5 0 -12.5 12.5q0 12.5 12.5 12.5h12.5"/>
      <path d="M1320.0 206.25v-50M1320.0 193.75q0 -12.5 -12.5 -12.5q-12.5 0 -12.5 12.5q0 12.5 12.5 12.5q12.5 0 12.5 -12.5"/>
      <path d="M1336.25 206.25q6.25 0 6.25 -6.25v-6.25m0 -12.5v-6.25"/>
      <path d="M1412.5 206.25v-37.5m-12.5 12.5h25.0"/>
      <path d="M1435.0 156.25v50m0 -12.5q0 -12.5 12.5 -12.5q12.5 0 12.5 12.5v12.5"/>
      <path d="M1470.0 193.75h25.0q0 -12.5 -12.5 -12.5q-12.5 0 -12.5 12.5q0 12.5 12.5 12.5h12.5"/>
      <path d="M1565.0 193.75q0 -12.5 -12.5 -12.5q-12.5 0 -12.5 12.5q0 12.5 12.5 12.5q12.5 0 12.5 -12.5m0 -12.5v37.5"/>
      <path d="M1575.0 181.25v12.5q0 12.5 12.5 12.5q12.5 0 12.5 -12.5m0 12.5v-25.0"/>
      <path d="M1622.5 206.25v-25.0m0 -12.5v-6.25"/>
      <path d="M1645.0 193.75h25.0q0 -12.5 -12.5 -12.5q-12.5 0 -12.5 12.5q0 12.5 12.5 12.5h12.5"/>
      <path d="M1692.5 206.25v-37.5m-12.5 12.5h25.0"/>
      <path d="M1750.0 206.25v-25.0m0 12.5q0 -12.5 12.5 -12.5q12.5 0 12.5 12.5v12.5"/>
      <path d="M1785.0 193.75h25.0q0 -12.5 -12.5 -12.5q-12.5 0 -12.5 12.5q0 12.5 12.5 12.5h12.5"/>
      <path d="M1845.0 193.75q0 12.5 -12.5 12.5q-12.5 0 -12.5 -12.5q0 -12.5 12.5 -12.5q12.5 0 12.5 12.5m0 12.5v-18.75q0 -12.5 -12.5 -12.5h-6.25"/>
      <path d="M1867.5 206.25v-37.5m-12.5 12.5h25.0"/>
      <path d="M1937.5 206.25q-12.5 0 -12.5 -12.5q0 -12.5 12.5 -12.5q12.5 0 12.5 12.5q0 12.5 -12.5 12.5"/>
      <path d="M1972.5 206.25v-50"/>
      <path d="M2020.0 206.25v-50M2020.0 193.75q0 -12.5 -12.5 -12.5q-12.5 0 -12.5 12.5q0 12.5 12.5 12.5q12.5 0 12.5 -12.5"/>
      <path d="M2077.5 206.25v-50"/>
      <path d="M2125.0 193.75q0 12.5 -12.5 12.5q-12.5 0 -12.5 -12.5q0 -12.5 12.5 -12.5q12.5 0 12.5 12.5m0 12.5v-18.75q0 -12.5 -12.5 -12.5h-6.25"/>
      <path d="M2160.0 206.25v-50M2160.0 193.75q0 -12.5 -12.5 -12.5q-12.5 0 -12.5 12.5q0 12.5 12.5 12.5q12.5 0 12.5 -12.5"/>
      <path d="M2170.0 181.25l12.5 25.0m12.5 -25.0l-18.75 37.5"/>
      <path d="M2211.25 206.25q6.25 0 6.25 -6.25v-6.25"/>
      <path d="M2275.0 181.25v18.75q0 6.25 6.25 6.25q6.25 0 6.25 -6.25v-6.25m0 6.25q0 6.25 6.25 6.25q6.25 0 6.25 -6.25m0 -18.75v25.0"/>
      <path d="M2310.0 156.25v50m0 -12.5q0 -12.5 12.5 -12.5q12.5 0 12.5 12.5v12.5"/>
      <path d="M2357.5 206.25q-12.5 0 -12.5 -12.5q0 -12.5 12.5 -12.5q12.5 0 12.5 12.5q0 12.5 -12.5 12.5"/>
      <path d="M0 250.0v18.75q0 6.25 6.25 6.25q6.25 0 6.25 -6.25v-6.25m0 6.25q0 6.25 6.25 6.25q6.25 0 6.25 -6.25m0 -18.75v25.0"/>
      <path d="M47.5 275.0v-25.0m0 -12.5v-6.25"/>
      <path d="M82.5 275.0v-37.5m-12.5 12.5h25.0"/>
      <path d="M105.0 225.0v50m0 -12.5q0 -12.5 12.5 -12.5q12.5 0 12.5 12.5v12.5"/>
      <path d="M175.0 225.0v50m0 -12.5q0 -12.5 12.5 -12.5q12.5 0 12.5 12.5v12.5"/>
      <path d="M210.0 262.5h25.0q0 -12.5 -12.5 -12.5q-12.5 0 -12.5 12.5q0 12.5 12.5 12.5h12.5"/>
      <path d="M245.0 275.0v-25.0m0 12.5q0 -12.5 12.5 -12.5q12.5 0 12.5 12.5"/>
      <path d="M315.0 225.0v50m25.0 -25.0l-25.0 12.5l25.0 12.5"/>
      <path d="M350.0 275.0v-25.0m0 12.5q0 -12.5 12.5 -12.5q12.5 0 12.5 12.5v12.5"/>
      <path d="M397.5 275.0v-25.0m0 -12.5v-6.25"/>
      <path d="M432.5 275.0v-37.5m-12.5 12.5h25.0"/>
      <path d="M467.5 275.0v-37.5m-12.5 12.5h25.0"/>
      <path d="M502.5 275.0v-25.0m0 -12.5v-6.25"/>
      <path d="M525.0 275.0v-25.0m0 12.5q0 -12.5 12.5 -12.5q12.5 0 12.5 12.5v12.5"/>
      <path d="M585.0 262.5q0 -12.5 -12.5 -12.5q-12.5 0 -12.5 12.5q0 12.5 12.5 12.5q12.5 0 12.5 -12.5m0 -12.5v25.0q0 12.5 -12.5 12.5h-12.5"/>
      <path d="M630.0 250.0v18.75q0 6.25 6.25 6.25q6.25 0 6.25 -6.25v-6.25m0 6.25q0 6.25 6.25 6.25q6.25 0 6.25 -6.25m0 -18.75v25.0"/>
      <path d="M690.0 262.5q0 12.5 -12.5 12.5q-12.5 0 -12.5 -12.5q0 -12.5 12.5 -12.5q12.5 0 12.5 12.5m0 12.5v-18.75q0 -12.5 -12.5 -12.5h-6.25"/>
      <path d="M700.0 275.0h18.75q6.25 0 6.25 -6.25q0 -6.25 -6.25 -6.25h-12.5q-6.25 0 -6.25 -6.25q0 -6.25 6.25 -6.25h18.75"/>
      <path d="M770.0 275.0h18.75q6.25 0 6.25 -6.25q0 -6.25 -6.25 -6.25h-12.5q-6.25 0 -6.25 -6.25q0 -6.25 6.25 -6.25h18.75"/>
      <path d="M805.0 262.5h25.0q0 -12.5 -12.5 -12.5q-12.5 0 -12.5 12.5q0 12.5 12.5 12.5h12.5"/>
      <path d="M865.0 262.5q0 12.5 -12.5 12.5q-12.5 0 -12.5 -12.5q0 -12.5 12.5 -12.5q12.5 0 12.5 12.5m0 12.5v-18.75q0 -12.5 -12.5 -12.5h-6.25"/>
      <path d="M887.5 275.0v-37.5m-12.5 12.5h25.0"/>
      <path d="M910.0 262.5h25.0q0 -12.5 -12.5 -12.5q-12.5 0 -12.5 12.5q0 12.5 12.5 12.5h12.5"/>
      <path d="M970.0 275.0v-50M970.0 262.5q0 -12.5 -12.5 -12.5q-12.5 0 -12.5 12.5q0 12.5 12.5 12.5q12.5 0 12.5 -12.5"/>
      <path d="M1027.5 275.0v-25.0m0 -12.5v-6.25"/>
      <path d="M1050.0 275.0v-25.0m0 12.5q0 -12.5 12.5 -12.5q12.5 0 12.5 12.5v12.5"/>
      <path d="M1132.5 275.0v-37.5m-12.5 12.5h25.0"/>
      <path d="M1155.0 225.0v50m0 -12.5q0 -12.5 12.5 -12.5q12.5 0 12.5 12.5v12.5"/>
      <path d="M1190.0 262.5h25.0q0 -12.5 -12.5 -12.5q-12.5 0 -12.5 12.5q0 12.5 12.5 12.5h12.5"/>
      <path d="M1260.0 250.0v18.75q0 6.25 6.25 6.25q6.25 0 6.25 -6.25v-6.25m0 6.25q0 6.25 6.25 6.25q6.25 0 6.25 -6.25m0 -18.75v25.0"/>
      <path d="M1320.0 262.5q0 12.5 -12.5 12.5q-12.5 0 -12.5 -12.5q0 -12.5 12.5 -12.5q12.5 0 12.5 12.5m0 12.5v-18.75q0 -12.5 -12.5 -12.5h-6.25"/>
      <path d="M1330.0 275.0v-25.0m0 12.5q0 -12.5 12.5 -12.5q12.5 0 12.5 12.5"/>
      <path d="M1365.0 275.0v-25.0m0 6.25q0 -6.25 6.25 -6.25q6.25 0 6.25 6.25v6.25m0 -6.25q0 -6.25 6.25 -6.25q6.25 0 6.25 6.25v18.75"/>
      <path d="M1400.0 262.5h25.0q0 -12.5 -12.5 -12.5q-12.5 0 -12.5 12.5q0 12.5 12.5 12.5h12.5"/>
      <path d="M1435.0 275.0h18.75q6.25 0 6.25 -6.25q0 -6.25 -6.25 -6.25h-12.5q-6.25 0 -6.25 -6.25q0 -6.25 6.25 -6.25h18.75"/>
      <path d="M1482.5 275.0v-37.5m-12.5 12.5h25.0"/>
      <path d="M1565.0 275.0h-12.5q-12.5 0 -12.5 -12.5q0 -12.5 12.5 -12.5h12.5"/>
      <path d="M1587.5 275.0q-12.5 0 -12.5 -12.5q0 -12.5 12.5 -12.5q12.5 0 12.5 12.5q0 12.5 -12.5 12.5"/>
      <path d="M1610.0 275.0v-25.0m0 12.5q0 -12.5 12.5 -12.5q12.5 0 12.5 12.5"/>
      <path d="M1645.0 275.0v-25.0m0 12.5q0 -12.5 12.5 -12.5q12.5 0 12.5 12.5v12.5"/>
      <path d="M1680.0 262.5h25.0q0 -12.5 -12.5 -12.5q-12.5 0 -12.5 12.5q0 12.5 12.5 12.5h12.5"/>
      <path d="M1715.0 275.0v-25.0m0 12.5q0 -12.5 12.5 -12.5q12.5 0 12.5 12.5"/>
      <path d="M1756.25 275.0q6.25 0 6.25 -6.25v-6.25"/>
      <path d="M1820.0 250.0v18.75q0 6.25 6.25 6.25q6.25 0 6.25 -6.25v-6.25m0 6.25q0 6.25 6.25 6.25q6.25 0 6.25 -6.25m0 -18.75v25.0"/>
      <path d="M1880.0 262.5q0 12.5 -12.5 12.5q-12.5 0 -12.5 -12.5q0 -12.5 12.5 -12.5q12.5 0 12.5 12.5m0 12.5v-18.75q0 -12.5 -12.5 -12.5h-6.25"/>
      <path d="M1890.0 275.0v-25.0m0 12.5q0 -12.5 12.5 -12.5q12.5 0 12.5 12.5v12.5"/>
      <path d="M1937.5 275.0v-37.5m-12.5 12.5h25.0"/>
      <path d="M1972.5 275.0v-25.0m0 -12.5v-6.25"/>
      <path d="M1995.0 275.0v-25.0m0 12.5q0 -12.5 12.5 -12.5q12.5 0 12.5 12.5v12.5"/>
      <path d="M2055.0 262.5q0 -12.5 -12.5 -12.5q-12.5 0 -12.5 12.5q0 12.5 12.5 12.5q12.5 0 12.5 -12.5m0 -12.5v25.0q0 12.5 -12.5 12.5h-12.5"/>
      <path d="M2100.0 262.5h25.0q0 -12.5 -12.5 -12.5q-12.5 0 -12.5 12.5q0 12.5 12.5 12.5h12.5"/>
      <path d="M2135.0 250.0l12.5 25.0l12.5 -25.0"/>
      <path d="M2170.0 262.5h25.0q0 -12.5 -12.5 -12.5q-12.5 0 -12.5 12.5q0 12.5 12.5 12.5h12.5"/>
      <path d="M2205.0 275.0v-25.0m0 12.5q0 -12.5 12.5 -12.5q12.5 0 12.5 12.5v12.5"/>
      <path d="M2287.5 275.0v-37.5m-12.5 12.5h25.0"/>
      <path d="M2322.5 275.0q-12.5 0 -12.5 -12.5q0 -12.5 12.5 -12.5q12.5 0 12.5 12.5q0 12.5 -12.5 12.5"/>
      <path d="M25.0 331.25q0 -12.5 -12.5 -12.5q-12.5 0 -12.5 12.5q0 12.5 12.5 12.5q12.5 0 12.5 -12.5m0 -12.5v25.0q0 12.5 -12.5 12.5h-12.5"/>
      <path d="M47.5 343.75v-25.0m0 -12.5v-6.25"/>
      <path d="M70.0 318.75l12.5 25.0l12.5 -25.0"/>
      <path d="M105.0 331.25h25.0q0 -12.5 -12.5 -12.5q-12.5 0 -12.5 12.5q0 12.5 12.5 12.5h12.5"/>
      <path d="M175.0 318.75v12.5q0 12.5 12.5 12.5q12.5 0 12.5 -12.5m0 12.5v-25.0"/>
      <path d="M210.0 331.25q0 -12.5 12.5 -12.5q12.5 0 12.5 12.5q0 12.5 -12.5 12.5q-12.5 0 -12.5 -12.5m0 -12.5v37.5"/>
      <path d="M280.0 293.75v50m0 -12.5q0 -12.5 12.5 -12.5q12.5 0 12.5 12.5v12.5"/>
      <path d="M315.0 331.25h25.0q0 -12.5 -12.5 -12.5q-12.5 0 -12.5 12.5q0 12.5 12.5 12.5h12.5"/>
      <path d="M350.0 343.75v-25.0m0 12.5q0 -12.5 12.5 -12.5q12.5 0 12.5 12.5"/>
      <path d="M420.0 331.25q0 -12.5 12.5 -12.5q12.5 0 12.5 12.5q0 12.5 -12.5 12.5q-12.5 0 -12.5 -12.5m0 -12.5v37.5"/>
      <path d="M467.5 343.75v-50"/>
      <path d="M515.0 331.25q0 12.5 -12.5 12.5q-12.5 0 -12.5 -12.5q0 -12.5 12.5 -12.5q12.5 0 12.5 12.5m0 12.5v-18.75q0 -12.5 -12.5 -12.5h-6.25"/>
      <path d="M550.0 343.75h-12.5q-12.5 0 -12.5 -12.5q0 -12.5 12.5 -12.5h12.5"/>
      <path d="M560.0 331.25h25.0q0 -12.5 -12.5 -12.5q-12.5 0 -12.5 12.5q0 12.5 12.5 12.5h12.5"/>
      <path d="M642.5 343.75v-37.5m-12.5 12.5h25.0"/>
      <path d="M677.5 343.75q-12.5 0 -12.5 -12.5q0 -12.5 12.5 -12.5q12.5 0 12.5 12.5q0 12.5 -12.5 12.5"/>
      <path d="M735.0 343.75v-50l12.5 50l12.5 -50v50"/>
      <path d="M782.5 343.75v-25.0m0 -12.5v-6.25"/>
      <path d="M805.0 343.75h18.75q6.25 0 6.25 -6.25q0 -6.25 -6.25 -6.25h-12.5q-6.25 0 -6.25 -6.25q0 -6.25 6.25 -6.25h18.75"/>
      <path d="M840.0 343.75h18.75q6.25 0 6.25 -6.25q0 -6.25 -6.25 -6.25h-12.5q-6.25 0 -6.25 -6.25q0 -6.25 6.25 -6.25h18.75"/>
      <path d="M910.0 293.75l6.25 50l6.25 -25.0l6.25 25.0l6.25 -50"/>
      <path d="M957.5 343.75q-12.5 0 -12.5 -12.5q0 -12.5 12.5 -12.5q12.5 0 12.5 12.5q0 12.5 -12.5 12.5"/>
      <path d="M992.5 343.75q-12.5 0 -12.5 -12.5q0 -12.5 12.5 -12.5q12.5 0 12.5 12.5q0 12.5 -12.5 12.5"/>
      <path d="M1040.0 343.75v-50M1040.0 331.25q0 -12.5 -12.5 -12.5q-12.5 0 -12.5 12.5q0 12.5 12.5 12.5q12.5 0 12.5 -12.5"/>
      <path d="M1050.0 293.75v50m0 -12.5q0 -12.5 12.5 -12.5q12.5 0 12.5 12.5v12.5"/>
      <path d="M1097.5 343.75q-12.5 0 -12.5 -12.5q0 -12.5 12.5 -12.5q12.5 0 12.5 12.5q0 12.5 -12.5 12.5"/>
      <path d="M1120.0 318.75v12.5q0 12.5 12.5 12.5q12.5 0 12.5 -12.5m0 12.5v-25.0"/>
      <path d="M1155.0 343.75h18.75q6.25 0 6.25 -6.25q0 -6.25 -6.25 -6.25h-12.5q-6.25 0 -6.25 -6.25q0 -6.25 6.25 -6.25h18.75"/>
      <path d="M1190.0 331.25h25.0q0 -12.5 -12.5 -12.5q-12.5 0 -12.5 12.5q0 12.5 12.5 12.5h12.5"/>
      <path d="M1231.25 343.75q6.25 0 6.25 -6.25v-6.25"/>
      <path d="M1320.0 331.25q0 12.5 -12.5 12.5q-12.5 0 -12.5 -12.5q0 -12.5 12.5 -12.5q12.5 0 12.5 12.5m0 12.5v-18.75q0 -12.5 -12.5 -12.5h-6.25"/>
      <path d="M1330.0 343.75v-25.0m0 12.5q0 -12.5 12.5 -12.5q12.5 0 12.5 12.5v12.5"/>
      <path d="M1390.0 343.75v-50M1390.0 331.25q0 -12.5 -12.5 -12.5q-12.5 0 -12.5 12.5q0 12.5 12.5 12.5q12.5 0 12.5 -12.5"/>
      <path d="M1435.0 293.75v50m0 -12.5q0 -12.5 12.5 -12.5q12.5 0 12.5 12.5v12.5"/>
      <path d="M1470.0 331.25h25.0q0 -12.5 -12.5 -12.5q-12.5 0 -12.5 12.5q0 12.5 12.5 12.5h12.5"/>
      <path d="M1505.0 343.75v-25.0m0 12.5q0 -12.5 12.5 -12.5q12.5 0 12.5 12.5"/>
      <path d="M1575.0 343.75v-25.0m0 6.25q0 -6.25 6.25 -6.25q6.25 0 6.25 6.25v6.25m0 -6.25q0 -6.25 6.25 -6.25q6.25 0 6.25 6.25v18.75"/>
      <path d="M1622.5 343.75q-12.5 0 -12.5 -12.5q0 -12.5 12.5 -12.5q12.5 0 12.5 12.5q0 12.5 -12.5 12.5"/>
      <path d="M1645.0 343.75v-25.0m0 12.5q0 -12.5 12.5 -12.5q12.5 0 12.5 12.5"/>
      <path d="M1680.0 331.25h25.0q0 -12.5 -12.5 -12.5q-12.5 0 -12.5 12.5q0 12.5 12.5 12.5h12.5"/>
      <path d="M1775.0 331.25q0 12.5 -12.5 12.5q-12.5 0 -12.5 -12.5q0 -12.5 12.5 -12.5q12.5 0 12.5 12.5m0 12.5v-18.75q0 -12.5 -12.5 -12.5h-6.25"/>
      <path d="M1810.0 343.75h-12.5q-12.5 0 -12.5 -12.5q0 -12.5 12.5 -12.5h12.5"/>
      <path d="M1832.5 343.75v-37.5m-12.5 12.5h25.0"/>
      <path d="M1867.5 343.75v-25.0m0 -12.5v-6.25"/>
      <path d="M1890.0 318.75l12.5 25.0l12.5 -25.0"/>
      <path d="M1925.0 331.25h25.0q0 -12.5 -12.5 -12.5q-12.5 0 -12.5 12.5q0 12.5 12.5 12.5h12.5"/>
      <path d="M1966.25 343.75q6.25 0 6.25 -6.25v-6.25"/>
      <path d="M2042.5 343.75v-37.5m-12.5 12.5h25.0"/>
      <path d="M2090.0 331.25q0 12.5 -12.5 12.5q-12.5 0 -12.5 -12.5q0 -12.5 12.5 -12.5q12.5 0 12.5 12.5m0 12.5v-18.75q0 -12.5 -12.5 -12.5h-6.25"/>
      <path d="M2112.5 343.75v-50"/>
      <path d="M2135.0 293.75v50m25.0 -25.0l-25.0 12.5l25.0 12.5"/>
      <path d="M2182.5 343.75v-25.0m0 -12.5v-6.25"/>
      <path d="M2205.0 343.75v-25.0m0 12.5q0 -12.5 12.5 -12.5q12.5 0 12.5 12.5v12.5"/>
      <path d="M2265.0 331.25q0 -12.5 -12.5 -12.5q-12.5 0 -12.5 12.5q0 12.5 12.5 12.5q12.5 0 12.5 -12.5m0 -12.5v25.0q0 12.5 -12.5 12.5h-12.5"/>
      <path d="M25.0 412.5v-50M25.0 400.0q0 -12.5 -12.5 -12.5q-12.5 0 -12.5 12.5q0 12.5 12.5 12.5q12.5 0 12.5 -12.5"/>
      <path d="M60.0 400.0q0 12.5 -12.5 12.5q-12.5 0 -12.5 -12.5q0 -12.5 12.5 -12.5q12.5 0 12.5 12.5m0 12.5v-18.75q0 -12.5 -12.5 -12.5h-6.25"/>
      <path d="M70.0 387.5v12.5q0 12.5 12.5 12.5q12.5 0 12.5 -12.5m0 12.5v-25.0"/>
      <path d="M130.0 400.0q0 -12.5 -12.5 -12.5q-12.5 0 -12.5 12.5q0 12.5 12.5 12.5q12.5 0 12.5 -12.5m0 -12.5v25.0q0 12.5 -12.5 12.5h-12.5"/>
      <path d="M140.0 362.5v50m0 -12.5q0 -12.5 12.5 -12.5q12.5 0 12.5 12.5v12.5"/>
      <path d="M187.5 412.5v-37.5m-12.5 12.5h25.0"/>
      <path d="M210.0 400.0h25.0q0 -12.5 -12.5 -12.5q-12.5 0 -12.5 12.5q0 12.5 12.5 12.5h12.5"/>
      <path d="M245.0 412.5v-25.0m0 12.5q0 -12.5 12.5 -12.5q12.5 0 12.5 12.5"/>
      <path d="M286.25 412.5q6.25 0 6.25 -6.25v-6.25"/>
      <path d="M375.0 400.0q0 12.5 -12.5 12.5q-12.5 0 -12.5 -12.5q0 -12.5 12.5 -12.5q12.5 0 12.5 12.5m0 12.5v-18.75q0 -12.5 -12.5 -12.5h-6.25"/>
      <path d="M397.5 412.5v-50"/>
      <path d="M420.0 412.5v-25.0m0 6.25q0 -6.25 6.25 -6.25q6.25 0 6.25 6.25v6.25m0 -6.25q0 -6.25 6.25 -6.25q6.25 0 6.25 6.25v18.75"/>
      <path d="M467.5 412.5q-12.5 0 -12.5 -12.5q0 -12.5 12.5 -12.5q12.5 0 12.5 12.5q0 12.5 -12.5 12.5"/>
      <path d="M490.0 412.5h18.75q6.25 0 6.25 -6.25q0 -6.25 -6.25 -6.25h-12.5q-6.25 0 -6.25 -6.25q0 -6.25 6.25 -6.25h18.75"/>
      <path d="M537.5 412.5v-37.5m-12.5 12.5h25.0"/>
      <path d="M595.0 412.5v-25.0m0 12.5q0 -12.5 12.5 -12.5q12.5 0 12.5 12.5"/>
      <path d="M630.0 400.0h25.0q0 -12.5 -12.5 -12.5q-12.5 0 -12.5 12.5q0 12.5 12.5 12.5h12.5"/>
      <path d="M690.0 400.0q0 12.5 -12.5 12.5q-12.5 0 -12.5 -12.5q0 -12.5 12.5 -12.5q12.5 0 12.5 12.5m0 12.5v-18.75q0 -12.5 -12.5 -12.5h-6.25"/>
      <path d="M725.0 412.5v-50M725.0 400.0q0 -12.5 -12.5 -12.5q-12.5 0 -12.5 12.5q0 12.5 12.5 12.5q12.5 0 12.5 -12.5"/>
      <path d="M735.0 387.5l12.5 25.0m12.5 -25.0l-18.75 37.5"/>
      <path d="M817.5 412.5v-37.5m-12.5 12.5h25.0"/>
      <path d="M852.5 412.5q-12.5 0 -12.5 -12.5q0 -12.5 12.5 -12.5q12.5 0 12.5 12.5q0 12.5 -12.5 12.5"/>
      <path d="M922.5 412.5q-12.5 0 -12.5 -12.5q0 -12.5 12.5 -12.5q12.5 0 12.5 12.5q0 12.5 -12.5 12.5"/>
      <path d="M945.0 387.5l12.5 25.0l12.5 -25.0"/>
      <path d="M980.0 400.0h25.0q0 -12.5 -12.5 -12.5q-12.5 0 -12.5 12.5q0 12.5 12.5 12.5h12.5"/>
      <path d="M1015.0 412.5v-25.0m0 12.5q0 -12.5 12.5 -12.5q12.5 0 12.5 12.5"/>
      <path d="M1050.0 400.0q0 -12.5 12.5 -12.5q12.5 0 12.5 12.5q0 12.5 -12.5 12.5q-12.5 0 -12.5 -12.5m0 -12.5v37.5"/>
      <path d="M1097.5 412.5q-12.5 0 -12.5 -12.5q0 -12.5 12.5 -12.5q12.5 0 12.5 12.5q0 12.5 -12.5 12.5"/>
      <path d="M1120.0 387.5v18.75q0 6.25 6.25 6.25q6.25 0 6.25 -6.25v-6.25m0 6.25q0 6.25 6.25 6.25q6.25 0 6.25 -6.25m0 -18.75v25.0"/>
      <path d="M1155.0 400.0h25.0q0 -12.5 -12.5 -12.5q-12.5 0 -12.5 12.5q0 12.5 12.5 12.5h12.5"/>
      <path d="M1190.0 412.5v-25.0m0 12.5q0 -12.5 12.5 -12.5q12.5 0 12.5 12.5"/>
      <path d="M1272.5 412.5v-37.5m-12.5 12.5h25.0"/>
      <path d="M1295.0 362.5v50m0 -12.5q0 -12.5 12.5 -12.5q12.5 0 12.5 12.5v12.5"/>
      <path d="M1330.0 400.0h25.0q0 -12.5 -12.5 -12.5q-12.5 0 -12.5 12.5q0 12.5 12.5 12.5h12.5"/>
      <path d="M1365.0 412.5v-25.0m0 6.25q0 -6.25 6.25 -6.25q6.25 0 6.25 6.25v6.25m0 -6.25q0 -6.25 6.25 -6.25q6.25 0 6.25 6.25v18.75"/>
      <path d="M1435.0 387.5v18.75q0 6.25 6.25 6.25q6.25 0 6.25 -6.25v-6.25m0 6.25q0 6.25 6.25 6.25q6.25 0 6.25 -6.25m0 -18.75v25.0"/>
      <path d="M1482.5 412.5v-25.0m0 -12.5v-6.25"/>
      <path d="M1517.5 412.5v-37.5m-12.5 12.5h25.0"/>
      <path d="M1540.0 362.5v50m0 -12.5q0 -12.5 12.5 -12.5q12.5 0 12.5 12.5v12.5"/>
      <path d="M1635.0 412.5h-12.5q-12.5 0 -12.5 -12.5q0 -12.5 12.5 -12.5h12.5"/>
      <path d="M1670.0 400.0q0 12.5 -12.5 12.5q-12.5 0 -12.5 -12.5q0 -12.5 12.5 -12.5q12.5 0 12.5 12.5m0 12.5v-18.75q0 -12.5 -12.5 -12.5h-6.25"/>
      <path d="M1680.0 412.5v-25.0m0 12.5q0 -12.5 12.5 -12.5q12.5 0 12.5 12.5"/>
      <path d="M1715.0 400.0h25.0q0 -12.5 -12.5 -12.5q-12.5 0 -12.5 12.5q0 12.5 12.5 12.5h12.5"/>
      <path d="M1810.0 400.0q0 12.5 -12.5 12.5q-12.5 0 -12.5 -12.5q0 -12.5 12.5 -12.5q12.5 0 12.5 12.5m0 12.5v-18.75q0 -12.5 -12.5 -12.5h-6.25"/>
      <path d="M1820.0 412.5v-25.0m0 12.5q0 -12.5 12.5 -12.5q12.5 0 12.5 12.5v12.5"/>
      <path d="M1880.0 412.5v-50M1880.0 400.0q0 -12.5 -12.5 -12.5q-12.5 0 -12.5 12.5q0 12.5 12.5 12.5q12.5 0 12.5 -12.5"/>
      <path d="M1925.0 362.5v50m25.0 -25.0l-25.0 12.5l25.0 12.5"/>
      <path d="M1972.5 412.5v-25.0m0 -12.5v-6.25"/>
      <path d="M1995.0 412.5v-25.0m0 12.5q0 -12.5 12.5 -12.5q12.5 0 12.5 12.5v12.5"/>
      <path d="M2055.0 412.5v-50M2055.0 400.0q0 -12.5 -12.5 -12.5q-12.5 0 -12.5 12.5q0 12.5 12.5 12.5q12.5 0 12.5 -12.5"/>
      <path d="M2065.0 412.5v-25.0m0 12.5q0 -12.5 12.5 -12.5q12.5 0 12.5 12.5v12.5"/>
      <path d="M2100.0 400.0h25.0q0 -12.5 -12.5 -12.5q-12.5 0 -12.5 12.5q0 12.5 12.5 12.5h12.5"/>
      <path d="M2135.0 412.5h18.75q6.25 0 6.25 -6.25q0 -6.25 -6.25 -6.25h-12.5q-6.25 0 -6.25 -6.25q0 -6.25 6.25 -6.25h18.75"/>
      <path d="M2170.0 412.5h18.75q6.25 0 6.25 -6.25q0 -6.25 -6.25 -6.25h-12.5q-6.25 0 -6.25 -6.25q0 -6.25 6.25 -6.25h18.75"/>
      <path d="M2211.25 412.5q6.25 0 6.25 -6.25v-6.25"/>
      <path d="M2287.5 412.5v-37.5m-12.5 12.5h25.0"/>
      <path d="M2310.0 362.5v50m0 -12.5q0 -12.5 12.5 -12.5q12.5 0 12.5 12.5v12.5"/>
      <path d="M2370.0 400.0q0 12.5 -12.5 12.5q-12.5 0 -12.5 -12.5q0 -12.5 12.5 -12.5q12.5 0 12.5 12.5m0 12.5v-18.75q0 -12.5 -12.5 -12.5h-6.25"/>
      <path d="M2380.0 412.5v-25.0m0 12.5q0 -12.5 12.5 -12.5q12.5 0 12.5 12.5v12.5"/>
      <path d="M2415.0 362.5v50m25.0 -25.0l-25.0 12.5l25.0 12.5"/>
      <path d="M2450.0 412.5h18.75q6.25 0 6.25 -6.25q0 -6.25 -6.25 -6.25h-12.5q-6.25 0 -6.25 -6.25q0 -6.25 6.25 -6.25h18.75"/>
      <path d="M12.5 481.25v-37.5q0 -12.5 12.5 -12.5m-25.0 25.0h25.0"/>
      <path d="M47.5 481.25q-12.5 0 -12.5 -12.5q0 -12.5 12.5 -12.5q12.5 0 12.5 12.5q0 12.5 -12.5 12.5"/>
      <path d="M70.0 481.25v-25.0m0 12.5q0 -12.5 12.5 -12.5q12.5 0 12.5 12.5"/>
      <path d="M152.5 481.25v-37.5m-12.5 12.5h25.0"/>
      <path d="M175.0 431.25v50m0 -12.5q0 -12.5 12.5 -12.5q12.5 0 12.5 12.5v12.5"/>
      <path d="M210.0 468.75h25.0q0 -12.5 -12.5 -12.5q-12.5 0 -12.5 12.5q0 12.5 12.5 12.5h12.5"/>
      <path d="M257.5 481.25v-25.0m0 -12.5v-6.25"/>
      <path d="M280.0 481.25v-25.0m0 12.5q0 -12.5 12.5 -12.5q12.5 0 12.5 12.5"/>
      <path d="M350.0 456.25l12.5 25.0l12.5 -25.0"/>
      <path d="M397.5 481.25v-25.0m0 -12.5v-6.25"/>
      <path d="M420.0 481.25h18.75q6.25 0 6.25 -6.25q0 -6.25 -6.25 -6.25h-12.5q-6.25 0 -6.25 -6.25q0 -6.25 6.25 -6.25h18.75"/>
      <path d="M467.5 481.25v-25.0m0 -12.5v-6.25"/>
      <path d="M502.5 481.25v-37.5m-12.5 12.5h25.0"/>
      <path d="M531.25 481.25q6.25 0 6.25 -6.25v-6.25"/>
      <path d="M595.0 481.25h18.75q6.25 0 6.25 -6.25q0 -6.25 -6.25 -6.25h-12.5q-6.25 0 -6.25 -6.25q0 -6.25 6.25 -6.25h18.75"/>
      <path d="M642.5 481.25q-12.5 0 -12.5 -12.5q0 -12.5 12.5 -12.5q12.5 0 12.5 12.5q0 12.5 -12.5 12.5"/>
      <path d="M677.5 481.25v-50"/>
      <path d="M712.5 481.25v-25.0m0 -12.5v-6.25"/>
      <path d="M760.0 481.25h-12.5q-12.5 0 -12.5 -12.5q0 -12.5 12.5 -12.5h12.5"/>
      <path d="M782.5 481.25v-25.0m0 -12.5v-6.25"/>
      <path d="M817.5 481.25v-37.5m-12.5 12.5h25.0"/>
      <path d="M840.0 456.25v12.5q0 12.5 12.5 12.5q12.5 0 12.5 -12.5m0 12.5v-25.0"/>
      <path d="M900.0 481.25v-50M900.0 468.75q0 -12.5 -12.5 -12.5q-12.5 0 -12.5 12.5q0 12.5 12.5 12.5q12.5 0 12.5 -12.5"/>
      <path d="M910.0 468.75h25.0q0 -12.5 -12.5 -12.5q-12.5 0 -12.5 12.5q0 12.5 12.5 12.5h12.5"/>
      <path d="M992.5 481.25v-37.5q0 -12.5 12.5 -12.5m-25.0 25.0h25.0"/>
      <path d="M1027.5 481.25q-12.5 0 -12.5 -12.5q0 -12.5 12.5 -12.5q12.5 0 12.5 12.5q0 12.5 -12.5 12.5"/>
      <path d="M1050.0 481.25v-25.0m0 12.5q0 -12.5 12.5 -12.5q12.5 0 12.5 12.5"/>
      <path d="M1132.5 481.25v-37.5m-12.5 12.5h25.0"/>
      <path d="M1155.0 431.25v50m0 -12.5q0 -12.5 12.5 -12.5q12.5 0 12.5 12.5v12.5"/>
      <path d="M1190.0 468.75h25.0q0 -12.5 -12.5 -12.5q-12.5 0 -12.5 12.5q0 12.5 12.5 12.5h12.5"/>
      <path d="M1237.5 481.25v-25.0m0 -12.5v-6.25"/>
      <path d="M1260.0 481.25v-25.0m0 12.5q0 -12.5 12.5 -12.5q12.5 0 12.5 12.5"/>
      <path d="M1330.0 481.25h18.75q6.25 0 6.25 -6.25q0 -6.25 -6.25 -6.25h-12.5q-6.25 0 -6.25 -6.25q0 -6.25 6.25 -6.25h18.75"/>
      <path d="M1365.0 431.25v50m0 -12.5q0 -12.5 12.5 -12.5q12.5 0 12.5 12.5v12.5"/>
      <path d="M1412.5 481.25q-12.5 0 -12.5 -12.5q0 -12.5 12.5 -12.5q12.5 0 12.5 12.5q0 12.5 -12.5 12.5"/>
      <path d="M1435.0 468.75h25.0q0 -12.5 -12.5 -12.5q-12.5 0 -12.5 12.5q0 12.5 12.5 12.5h12.5"/>
      <path d="M1470.0 481.25h18.75q6.25 0 6.25 -6.25q0 -6.25 -6.25 -6.25h-12.5q-6.25 0 -6.25 -6.25q0 -6.25 6.25 -6.25h18.75"/>
      <path d="M1511.25 481.25q6.25 0 6.25 -6.25v-6.25"/>
      <path d="M1600.0 468.75q0 12.5 -12.5 12.5q-12.5 0 -12.5 -12.5q0 -12.5 12.5 -12.5q12.5 0 12.5 12.5m0 12.5v-18.75q0 -12.5 -12.5 -12.5h-6.25"/>
      <path d="M1610.0 481.25v-25.0m0 12.5q0 -12.5 12.5 -12.5q12.5 0 12.5 12.5v12.5"/>
      <path d="M1645.0 456.25l25.0 25.0m0 -25.0l-25.0 25.0"/>
      <path d="M1692.5 481.25v-25.0m0 -12.5v-6.25"/>
      <path d="M1727.5 481.25q-12.5 0 -12.5 -12.5q0 -12.5 12.5 -12.5q12.5 0 12.5 12.5q0 12.5 -12.5 12.5"/>
      <path d="M1750.0 456.25v12.5q0 12.5 12.5 12.5q12.5 0 12.5 -12.5m0 12.5v-25.0"/>
      <path d="M1785.0 481.25h18.75q6.25 0 6.25 -6.25q0 -6.25 -6.25 -6.25h-12.5q-6.25 0 -6.25 -6.25q0 -6.25 6.25 -6.25h18.75"/>
      <path d="M1867.5 481.25v-25.0m0 -12.5v-6.25"/>
      <path d="M1890.0 481.25v-25.0m0 12.5q0 -12.5 12.5 -12.5q12.5 0 12.5 12.5v12.5"/>
      <path d="M1950.0 468.75q0 -12.5 -12.5 -12.5q-12.5 0 -12.5 12.5q0 12.5 12.5 12.5q12.5 0 12.5 -12.5m0 -12.5v37.5"/>
      <path d="M1960.0 456.25v12.5q0 12.5 12.5 12.5q12.5 0 12.5 -12.5m0 12.5v-25.0"/>
      <path d="M2007.5 481.25v-25.0m0 -12.5v-6.25"/>
      <path d="M2030.0 481.25v-25.0m0 12.5q0 -12.5 12.5 -12.5q12.5 0 12.5 12.5"/>
      <path d="M2077.5 481.25v-25.0m0 -12.5v-6.25"/>
      <path d="M2100.0 468.75h25.0q0 -12.5 -12.5 -12.5q-12.5 0 -12.5 12.5q0 12.5 12.5 12.5h12.5"/>
      <path d="M2135.0 481.25h18.75q6.25 0 6.25 -6.25q0 -6.25 -6.25 -6.25h-12.5q-6.25 0 -6.25 -6.25q0 -6.25 6.25 -6.25h18.75"/>
      <path d="M2230.0 468.75q0 12.5 -12.5 12.5q-12.5 0 -12.5 -12.5q0 -12.5 12.5 -12.5q12.5 0 12.5 12.5m0 12.5v-18.75q0 -12.5 -12.5 -12.5h-6.25"/>
      <path d="M2252.5 481.25v-37.5q0 -12.5 12.5 -12.5m-25.0 25.0h25.0"/>
      <path d="M2287.5 481.25v-37.5m-12.5 12.5h25.0"/>
      <path d="M2310.0 468.75h25.0q0 -12.5 -12.5 -12.5q-12.5 0 -12.5 12.5q0 12.5 12.5 12.5h12.5"/>
      <path d="M2345.0 481.25v-25.0m0 12.5q0 -12.5 12.5 -12.5q12.5 0 12.5 12.5"/>
      <path d="M0 550.0v-50l12.5 50l12.5 -50v50"/>
      <path d="M35.0 550.0v-25.0m0 12.5q0 -12.5 12.5 -12.5q12.5 0 12.5 12.5"/>
      <path d="M82.5 550.0v-6.25"/>
      <path d="M140.0 500.0l6.25 50l6.25 -25.0l6.25 25.0l6.25 -50"/>
      <path d="M187.5 550.0q-12.5 0 -12.5 -12.5q0 -12.5 12.5 -12.5q12.5 0 12.5 12.5q0 12.5 -12.5 12.5"/>
      <path d="M222.5 550.0q-12.5 0 -12.5 -12.5q0 -12.5 12.5 -12.5q12.5 0 12.5 12.5q0 12.5 -12.5 12.5"/>
      <path d="M270.0 550.0v-50M270.0 537.5q0 -12.5 -12.5 -12.5q-12.5 0 -12.5 12.5q0 12.5 12.5 12.5q12.5 0 12.5 -12.5"/>
      <path d="M280.0 500.0v50m0 -12.5q0 -12.5 12.5 -12.5q12.5 0 12.5 12.5v12.5"/>
      <path d="M327.5 550.0q-12.5 0 -12.5 -12.5q0 -12.5 12.5 -12.5q12.5 0 12.5 12.5q0 12.5 -12.5 12.5"/>
      <path d="M350.0 525.0v12.5q0 12.5 12.5 12.5q12.5 0 12.5 -12.5m0 12.5v-25.0"/>
      <path d="M385.0 550.0h18.75q6.25 0 6.25 -6.25q0 -6.25 -6.25 -6.25h-12.5q-6.25 0 -6.25 -6.25q0 -6.25 6.25 -6.25h18.75"/>
      <path d="M420.0 537.5h25.0q0 -12.5 -12.5 -12.5q-12.5 0 -12.5 12.5q0 12.5 12.5 12.5h12.5"/>
      <path d="M467.5 506.25v6.25"/>
      <path d="M490.0 550.0h18.75q6.25 0 6.25 -6.25q0 -6.25 -6.25 -6.25h-12.5q-6.25 0 -6.25 -6.25q0 -6.25 6.25 -6.25h18.75"/>
      <path d="M560.0 500.0v50m0 -12.5q0 -12.5 12.5 -12.5q12.5 0 12.5 12.5v12.5"/>
      <path d="M595.0 537.5h25.0q0 -12.5 -12.5 -12.5q-12.5 0 -12.5 12.5q0 12.5 12.5 12.5h12.5"/>
      <path d="M655.0 537.5q0 12.5 -12.5 12.5q-12.5 0 -12.5 -12.5q0 -12.5 12.5 -12.5q12.5 0 12.5 12.5m0 12.5v-18.75q0 -12.5 -12.5 -12.5h-6.25"/>
      <path d="M677.5 550.0v-50"/>
      <path d="M712.5 550.0v-37.5m-12.5 12.5h25.0"/>
      <path d="M735.0 500.0v50m0 -12.5q0 -12.5 12.5 -12.5q12.5 0 12.5 12.5v12.5"/>
      <path d="M776.25 550.0q6.25 0 6.25 -6.25v-6.25"/>
      <path d="M865.0 550.0h-12.5q-12.5 0 -12.5 -12.5q0 -12.5 12.5 -12.5h12.5"/>
      <path d="M875.0 500.0v50m0 -12.5q0 -12.5 12.5 -12.5q12.5 0 12.5 12.5v12.5"/>
      <path d="M910.0 537.5h25.0q0 -12.5 -12.5 -12.5q-12.5 0 -12.5 12.5q0 12.5 12.5 12.5h12.5"/>
      <path d="M945.0 537.5h25.0q0 -12.5 -12.5 -12.5q-12.5 0 -12.5 12.5q0 12.5 12.5 12.5h12.5"/>
      <path d="M980.0 550.0v-25.0m0 12.5q0 -12.5 12.5 -12.5q12.5 0 12.5 12.5"/>
      <path d="M1027.5 550.0v-37.5q0 -12.5 12.5 -12.5m-25.0 25.0h25.0"/>
      <path d="M1050.0 525.0v12.5q0 12.5 12.5 12.5q12.5 0 12.5 -12.5m0 12.5v-25.0"/>
      <path d="M1097.5 550.0v-50"/>
      <path d="M1180.0 550.0h-12.5q-12.5 0 -12.5 -12.5q0 -12.5 12.5 -12.5h12.5"/>
      <path d="M1202.5 550.0q-12.5 0 -12.5 -12.5q0 -12.5 12.5 -12.5q12.5 0 12.5 12.5q0 12.5 -12.5 12.5"/>
      <path d="M1225.0 550.0v-25.0m0 6.25q0 -6.25 6.25 -6.25q6.25 0 6.25 6.25v6.25m0 -6.25q0 -6.25 6.25 -6.25q6.25 0 6.25 6.25v18.75"/>
      <path d="M1260.0 550.0v-25.0m0 6.25q0 -6.25 6.25 -6.25q6.25 0 6.25 6.25v6.25m0 -6.25q0 -6.25 6.25 -6.25q6.25 0 6.25 6.25v18.75"/>
      <path d="M1295.0 525.0v12.5q0 12.5 12.5 12.5q12.5 0 12.5 -12.5m0 12.5v-25.0"/>
      <path d="M1330.0 550.0v-25.0m0 12.5q0 -12.5 12.5 -12.5q12.5 0 12.5 12.5v12.5"/>
      <path d="M1377.5 550.0v-25.0m0 -12.5v-6.25"/>
      <path d="M1425.0 550.0h-12.5q-12.5 0 -12.5 -12.5q0 -12.5 12.5 -12.5h12.5"/>
      <path d="M1460.0 537.5q0 12.5 -12.5 12.5q-12.5 0 -12.5 -12.5q0 -12.5 12.5 -12.5q12.5 0 12.5 12.5m0 12.5v-18.75q0 -12.5 -12.5 -12.5h-6.25"/>
      <path d="M1482.5 550.0v-37.5m-12.5 12.5h25.0"/>
      <path d="M1517.5 550.0v-25.0m0 -12.5v-6.25"/>
      <path d="M1552.5 550.0q-12.5 0 -12.5 -12.5q0 -12.5 12.5 -12.5q12.5 0 12.5 12.5q0 12.5 -12.5 12.5"/>
      <path d="M1575.0 550.0v-25.0m0 12.5q0 -12.5 12.5 -12.5q12.5 0 12.5 12.5v12.5"/>
      <path d="M1610.0 550.0h18.75q6.25 0 6.25 -6.25q0 -6.25 -6.25 -6.25h-12.5q-6.25 0 -6.25 -6.25q0 -6.25 6.25 -6.25h18.75"/>
      <path d="M1705.0 537.5q0 12.5 -12.5 12.5q-12.5 0 -12.5 -12.5q0 -12.5 12.5 -12.5q12.5 0 12.5 12.5m0 12.5v-18.75q0 -12.5 -12.5 -12.5h-6.25"/>
      <path d="M1715.0 550.0v-50M1715.0 537.5q0 -12.5 12.5 -12.5q12.5 0 12.5 12.5q0 12.5 -12.5 12.5q-12.5 0 -12.5 -12.5"/>
      <path d="M1762.5 550.0q-12.5 0 -12.5 -12.5q0 -12.5 12.5 -12.5q12.5 0 12.5 12.5q0 12.5 -12.5 12.5"/>
      <path d="M1785.0 525.0v12.5q0 12.5 12.5 12.5q12.5 0 12.5 -12.5m0 12.5v-25.0"/>
      <path d="M1832.5 550.0v-37.5m-12.5 12.5h25.0"/>
      <path d="M1890.0 500.0v50m0 -12.5q0 -12.5 12.5 -12.5q12.5 0 12.5 12.5v12.5"/>
      <path d="M1925.0 537.5h25.0q0 -12.5 -12.5 -12.5q-12.5 0 -12.5 12.5q0 12.5 12.5 12.5h12.5"/>
      <path d="M1960.0 550.0v-25.0m0 12.5q0 -12.5 12.5 -12.5q12.5 0 12.5 12.5"/>
      <path d="M2030.0 550.0v-25.0m0 6.25q0 -6.25 6.25 -6.25q6.25 0 6.25 6.25v6.25m0 -6.25q0 -6.25 6.25 -6.25q6.25 0 6.25 6.25v18.75"/>
      <path d="M2077.5 550.0q-12.5 0 -12.5 -12.5q0 -12.5 12.5 -12.5q12.5 0 12.5 12.5q0 12.5 -12.5 12.5"/>
      <path d="M2112.5 550.0v-37.5m-12.5 12.5h25.0"/>
      <path d="M2135.0 500.0v50m0 -12.5q0 -12.5 12.5 -12.5q12.5 0 12.5 12.5v12.5"/>
      <path d="M2170.0 537.5h25.0q0 -12.5 -12.5 -12.5q-12.5 0 -12.5 12.5q0 12.5 12.5 12.5h12.5"/>
      <path d="M2205.0 550.0v-25.0m0 12.5q0 -12.5 12.5 -12.5q12.5 0 12.5 12.5"/>
      <path d="M2252.5 506.25v6.25"/>
      <path d="M2275.0 550.0h18.75q6.25 0 6.25 -6.25q0 -6.25 -6.25 -6.25h-12.5q-6.25 0 -6.25 -6.25q0 -6.25 6.25 -6.25h18.75"/>
      <path d="M2316.25 550.0q6.25 0 6.25 -6.25v-6.25"/>
      <path d="M2405.0 537.5q0 12.5 -12.5 12.5q-12.5 0 -12.5 -12.5q0 -12.5 12.5 -12.5q12.5 0 12.5 12.5m0 12.5v-18.75q0 -12.5 -12.5 -12.5h-6.25"/>
      <path d="M2415.0 550.0v-25.0m0 12.5q0 -12.5 12.5 -12.5q12.5 0 12.5 12.5v12.5"/>
      <path d="M2475.0 550.0v-50M2475.0 537.5q0 -12.5 -12.5 -12.5q-12.5 0 -12.5 12.5q0 12.5 12.5 12.5q12.5 0 12.5 -12.5"/>
      <path d="M2497.5 550.0v-6.25"/>
      <path d="M2532.5 550.0v-6.25"/>
      <path d="M2567.5 550.0v-6.25"/>
    </g>
  </g>
</svg>
