<svg version="1.1" width="1150" height="870" xmlns="http://www.w3.org/2000/svg">
  <!-- Seed: 8323053368878642591 -->
  <!-- Size: SvgSize.Size9x12 -->
  <!-- Params:
    draw: True
    text_file_override: 
    line_count: [RangeInt] min: 5 max: 15
  -->
  <g stroke="black" fill="none">
    <g transform="translate(50, 267.12209302325584) scale(0.4069767441860465, 0.4069767441860465)">
      <path d="M12.5 68.75v-6.25"/>
      <path d="M47.5 68.75v-6.25"/>
      <path d="M82.5 68.75v-6.25"/>
      <path d="M105.0 68.75h18.75q6.25 0 6.25 -6.25q0 -6.25 -6.25 -6.25h-12.5q-6.25 0 -6.25 -6.25q0 -6.25 6.25 -6.25h18.75"/>
      <path d="M152.5 68.75q-12.5 0 -12.5 -12.5q0 -12.5 12.5 -12.5q12.5 0 12.5 12.5q0 12.5 -12.5 12.5"/>
      <path d="M187.5 68.75v-37.5q0 -12.5 12.5 -12.5m-25.0 25.0h25.0"/>
      <path d="M222.5 68.75v-37.5m-12.5 12.5h25.0"/>
      <path d="M245.0 56.25h25.0q0 -12.5 -12.5 -12.5q-12.5 0 -12.5 12.5q0 12.5 12.5 12.5h12.5"/>
      <path d="M280.0 68.75v-25.0m0 12.5q0 -12.5 12.5 -12.5q12.5 0 12.5 12.5v12.5"/>
      <path d="M315.0 56.25h25.0q0 -12.5 -12.5 -12.5q-12.5 0 -12.5 12.5q0 12.5 12.5 12.5h12.5"/>
      <path d="M375.0 68.75v-50M375.0 56.25q0 -12.5 -12.5 -12.5q-12.5 0 -12.5 12.5q0 12.5 12.5 12.5q12.5 0 12.5 -12.5"/>
      <path d="M432.5 68.75v-37.5m-12.5 12.5h25.0"/>
      <path d="M467.5 68.75q-12.5 0 -12.5 -12.5q0 -12.5 12.5 -12.5q12.5 0 12.5 12.5q0 12.5 -12.5 12.5"/>
      <path d="M490.0 43.75v18.75q0 6.25 6.25 6.25q6.25 0 6.25 -6.25v-6.25m0 6.25q0 6.25 6.25 6.25q6.25 0 6.25 -6.25m0 -18.75v25.0"/>
      <path d="M550.0 56.25q0 12.5 -12.5 12.5q-12.5 0 -12.5 -12.5q0 -12.5 12.5 -12.5q12.5 0 12.5 12.5m0 12.5v-18.75q0 -12.5 -12.5 -12.5h-6.25"/>
      <path d="M560.0 68.75v-25.0m0 12.5q0 -12.5 12.5 -12.5q12.5 0 12.5 12.5"/>
      <path d="M620.0 68.75v-50M620.0 56.25q0 -12.5 -12.5 -12.5q-12.5 0 -12.5 12.5q0 12.5 12.5 12.5q12.5 0 12.5 -12.5"/>
      <path d="M630.0 68.75h18.75q6.25 0 6.25 -6.25q0 -6.25 -6.25 -6.25h-12.5q-6.25 0 -6.25 -6.25q0 -6.25 6.25 -6.25h18.75"/>
      <path d="M712.5 68.75v-37.5m-12.5 12.5h25.0"/>
      <path d="M735.0 18.75v50m0 -12.5q0 -12.5 12.5 -12.5q12.5 0 12.5 12.5v12.5"/>
      <path d="M770.0 56.25h25.0q0 -12.5 -12.5 -12.5q-12.5 0 -12.5 12.5q0 12.5 12.5 12.5h12.5"/>
      <path d="M840.0 68.75v-50M840.0 56.25q0 -12.5 12.5 -12.5q12.5 0 12.5 12.5q0 12.5 -12.5 12.5q-12.5 0 -12.5 -12.5"/>
      <path d="M875.0 56.25h25.0q0 -12.5 -12.5 -12.5q-12.5 0 -12.5 12.5q0 12.5 12.5 12.5h12.5"/>
      <path d="M922.5 68.75v-25.0m0 -12.5v-6.25"/>
      <path d="M945.0 68.75v-25.0m0 12.5q0 -12.5 12.5 -12.5q12.5 0 12.5 12.5v12.5"/>
      <path d="M1005.0 56.25q0 -12.5 -12.5 -12.5q-12.5 0 -12.5 12.5q0 12.5 12.5 12.5q12.5 0 12.5 -12.5m0 -12.5v25.0q0 12.5 -12.5 12.5h-12.5"/>
      <path d="M1050.0 68.75v-50M1050.0 56.25q0 -12.5 12.5 -12.5q12.5 0 12.5 12.5q0 12.5 -12.5 12.5q-12.5 0 -12.5 -12.5"/>
      <path d="M1085.0 43.75l12.5 25.0m12.5 -25.0l-18.75 37.5"/>
      <path d="M1155.0 43.75v18.75q0 6.25 6.25 6.25q6.25 0 6.25 -6.25v-6.25m0 6.25q0 6.25 6.25 6.25q6.25 0 6.25 -6.25m0 -18.75v25.0"/>
      <path d="M1190.0 18.75v50m0 -12.5q0 -12.5 12.5 -12.5q12.5 0 12.5 12.5v12.5"/>
      <path d="M1237.5 68.75q-12.5 0 -12.5 -12.5q0 -12.5 12.5 -12.5q12.5 0 12.5 12.5q0 12.5 -12.5 12.5"/>
      <path d="M1260.0 68.75h18.75q6.25 0 6.25 -6.25q0 -6.25 -6.25 -6.25h-12.5q-6.25 0 -6.25 -6.25q0 -6.25 6.25 -6.25h18.75"/>
      <path d="M1295.0 56.25h25.0q0 -12.5 -12.5 -12.5q-12.5 0 -12.5 12.5q0 12.5 12.5 12.5h12.5"/>
      <path d="M1365.0 68.75v-25.0m0 6.25q0 -6.25 6.25 -6.25q6.25 0 6.25 6.25v6.25m0 -6.25q0 -6.25 6.25 -6.25q6.25 0 6.25 6.25v18.75"/>
      <path d="M1400.0 56.25h25.0q0 -12.5 -12.5 -12.5q-12.5 0 -12.5 12.5q0 12.5 12.5 12.5h12.5"/>
      <path d="M1460.0 56.25q0 12.5 -12.5 12.5q-12.5 0 -12.5 -12.5q0 -12.5 12.5 -12.5q12.5 0 12.5 12.5m0 12.5v-18.75q0 -12.5 -12.5 -12.5h-6.25"/>
      <path d="M1470.0 68.75v-25.0m0 12.5q0 -12.5 12.5 -12.5q12.5 0 12.5 12.5v12.5"/>
      <path d="M1505.0 68.75h18.75q6.25 0 6.25 -6.25q0 -6.25 -6.25 -6.25h-12.5q-6.25 0 -6.25 -6.25q0 -6.25 6.25 -6.25h18.75"/>
      <path d="M1575.0 68.75h25.0m-12.5 0v-50m-12.5 0h25.0"/>
      <path d="M1645.0 56.25h25.0q0 -12.5 -12.5 -12.5q-12.5 0 -12.5 12.5q0 12.5 12.5 12.5h12.5"/>
      <path d="M1705.0 56.25q0 12.5 -12.5 12.5q-12.5 0 -12.5 -12.5q0 -12.5 12.5 -12.5q12.5 0 12.5 12.5m0 12.5v-18.75q0 -12.5 -12.5 -12.5h-6.25"/>
      <path d="M1715.0 68.75v-25.0m0 12.5q0 -12.5 12.5 -12.5q12.5 0 12.5 12.5"/>
      <path d="M1750.0 68.75v-25.0m0 12.5q0 -12.5 12.5 -12.5q12.5 0 12.5 12.5v12.5"/>
      <path d="M1785.0 56.25h25.0q0 -12.5 -12.5 -12.5q-12.5 0 -12.5 12.5q0 12.5 12.5 12.5h12.5"/>
      <path d="M1845.0 68.75v-50M1845.0 56.25q0 -12.5 -12.5 -12.5q-12.5 0 -12.5 12.5q0 12.5 12.5 12.5q12.5 0 12.5 -12.5"/>
      <path d="M1902.5 68.75v-37.5m-12.5 12.5h25.0"/>
      <path d="M1925.0 18.75v50m0 -12.5q0 -12.5 12.5 -12.5q12.5 0 12.5 12.5v12.5"/>
      <path d="M1960.0 56.25h25.0q0 -12.5 -12.5 -12.5q-12.5 0 -12.5 12.5q0 12.5 12.5 12.5h12.5"/>
      <path d="M1995.0 68.75v-25.0m0 6.25q0 -6.25 6.25 -6.25q6.25 0 6.25 6.25v6.25m0 -6.25q0 -6.25 6.25 -6.25q6.25 0 6.25 6.25v18.75"/>
      <path d="M2036.25 68.75q6.25 0 6.25 -6.25v-6.25"/>
      <path d="M2125.0 56.25q0 12.5 -12.5 12.5q-12.5 0 -12.5 -12.5q0 -12.5 12.5 -12.5q12.5 0 12.5 12.5m0 12.5v-18.75q0 -12.5 -12.5 -12.5h-6.25"/>
      <path d="M2135.0 68.75v-25.0m0 12.5q0 -12.5 12.5 -12.5q12.5 0 12.5 12.5v12.5"/>
      <path d="M2195.0 68.75v-50M2195.0 56.25q0 -12.5 -12.5 -12.5q-12.5 0 -12.5 12.5q0 12.5 12.5 12.5q12.5 0 12.5 -12.5"/>
      <path d="M2252.5 68.75v-37.5m-12.5 12.5h25.0"/>
      <path d="M2275.0 18.75v50m0 -12.5q0 -12.5 12.5 -12.5q12.5 0 12.5 12.5v12.5"/>
      <path d="M2310.0 43.75v12.5q0 12.5 12.5 12.5q12.5 0 12.5 -12.5m0 12.5v-25.0"/>
      <path d="M2345.0 68.75h18.75q6.25 0 6.25 -6.25q0 -6.25 -6.25 -6.25h-12.5q-6.25 0 -6.25 -6.25q0 -6.25 6.25 -6.25h18.75"/>
      <path d="M0 137.5v-50m25.0 0v50m0 -25.0h-25.0"/>
      <path d="M47.5 137.5v-25.0m0 -12.5v-6.25"/>
      <path d="M70.0 137.5v-25.0m0 12.5q0 -12.5 12.5 -12.5q12.5 0 12.5 12.5v12.5"/>
      <path d="M130.0 137.5v-50M130.0 125.0q0 -12.5 -12.5 -12.5q-12.5 0 -12.5 12.5q0 12.5 12.5 12.5q12.5 0 12.5 -12.5"/>
      <path d="M152.5 137.5v-50"/>
      <path d="M175.0 125.0h25.0q0 -12.5 -12.5 -12.5q-12.5 0 -12.5 12.5q0 12.5 12.5 12.5h12.5"/>
      <path d="M210.0 112.5l12.5 25.0m12.5 -25.0l-18.75 37.5"/>
      <path d="M292.5 137.5v-50"/>
      <path d="M327.5 137.5q-12.5 0 -12.5 -12.5q0 -12.5 12.5 -12.5q12.5 0 12.5 12.5q0 12.5 -12.5 12.5"/>
      <path d="M350.0 137.5h18.75q6.25 0 6.25 -6.25q0 -6.25 -6.25 -6.25h-12.5q-6.25 0 -6.25 -6.25q0 -6.25 6.25 -6.25h18.75"/>
      <path d="M397.5 137.5v-37.5m-12.5 12.5h25.0"/>
      <path d="M455.0 87.5v50m0 -12.5q0 -12.5 12.5 -12.5q12.5 0 12.5 12.5v12.5"/>
      <path d="M502.5 137.5v-25.0m0 -12.5v-6.25"/>
      <path d="M525.0 137.5h18.75q6.25 0 6.25 -6.25q0 -6.25 -6.25 -6.25h-12.5q-6.25 0 -6.25 -6.25q0 -6.25 6.25 -6.25h18.75"/>
      <path d="M607.5 137.5v-50"/>
      <path d="M655.0 125.0q0 12.5 -12.5 12.5q-12.5 0 -12.5 -12.5q0 -12.5 12.5 -12.5q12.5 0 12.5 12.5m0 12.5v-18.75q0 -12.5 -12.5 -12.5h-6.25"/>
      <path d="M665.0 137.5h18.75q6.25 0 6.25 -6.25q0 -6.25 -6.25 -6.25h-12.5q-6.25 0 -6.25 -6.25q0 -6.25 6.25 -6.25h18.75"/>
      <path d="M712.5 137.5v-37.5m-12.5 12.5h25.0"/>
      <path d="M795.0 125.0q0 12.5 -12.5 12.5q-12.5 0 -12.5 -12.5q0 -12.5 12.5 -12.5q12.5 0 12.5 12.5m0 12.5v-18.75q0 -12.5 -12.5 -12.5h-6.25"/>
      <path d="M817.5 137.5v-50"/>
      <path d="M852.5 137.5v-50"/>
      <path d="M875.0 112.5l12.5 25.0m12.5 -25.0l-18.75 37.5"/>
      <path d="M922.5 125.0v-6.25m0 -12.5v-6.25"/>
      <path d="M980.0 137.5h18.75q6.25 0 6.25 -6.25q0 -6.25 -6.25 -6.25h-12.5q-6.25 0 -6.25 -6.25q0 -6.25 6.25 -6.25h18.75"/>
      <path d="M1027.5 137.5v-37.5m-12.5 12.5h25.0"/>
      <path d="M1062.5 137.5v-25.0m0 -12.5v-6.25"/>
      <path d="M1097.5 137.5v-50"/>
      <path d="M1132.5 137.5v-50"/>
      <path d="M1190.0 137.5h25.0m-12.5 0v-50m-12.5 0h25.0"/>
      <path d="M1285.0 137.5h-12.5q-12.5 0 -12.5 -12.5q0 -12.5 12.5 -12.5h12.5"/>
      <path d="M1307.5 137.5q-12.5 0 -12.5 -12.5q0 -12.5 12.5 -12.5q12.5 0 12.5 12.5q0 12.5 -12.5 12.5"/>
      <path d="M1330.0 112.5v12.5q0 12.5 12.5 12.5q12.5 0 12.5 -12.5m0 12.5v-25.0"/>
      <path d="M1377.5 137.5v-50"/>
      <path d="M1425.0 137.5v-50M1425.0 125.0q0 -12.5 -12.5 -12.5q-12.5 0 -12.5 12.5q0 12.5 12.5 12.5q12.5 0 12.5 -12.5"/>
      <path d="M1435.0 137.5v-25.0m0 12.5q0 -12.5 12.5 -12.5q12.5 0 12.5 12.5v12.5"/>
      <path d="M1482.5 93.75v6.25"/>
      <path d="M1517.5 137.5v-37.5m-12.5 12.5h25.0"/>
      <path d="M1600.0 137.5v-50M1600.0 125.0q0 -12.5 -12.5 -12.5q-12.5 0 -12.5 12.5q0 12.5 12.5 12.5q12.5 0 12.5 -12.5"/>
      <path d="M1622.5 137.5q-12.5 0 -12.5 -12.5q0 -12.5 12.5 -12.5q12.5 0 12.5 12.5q0 12.5 -12.5 12.5"/>
      <path d="M1657.5 137.5v-37.5m-12.5 12.5h25.0"/>
      <path d="M1680.0 125.0h25.0q0 -12.5 -12.5 -12.5q-12.5 0 -12.5 12.5q0 12.5 12.5 12.5h12.5"/>
      <path d="M1762.5 137.5q-12.5 0 -12.5 -12.5q0 -12.5 12.5 -12.5q12.5 0 12.5 12.5q0 12.5 -12.5 12.5"/>
      <path d="M1785.0 137.5v-25.0m0 12.5q0 -12.5 12.5 -12.5q12.5 0 12.5 12.5v12.5"/>
      <path d="M1855.0 137.5v-50m25.0 0v50m0 -25.0h-25.0"/>
      <path d="M1890.0 125.0h25.0q0 -12.5 -12.5 -12.5q-12.5 0 -12.5 12.5q0 12.5 12.5 12.5h12.5"/>
      <path d="M1950.0 125.0q0 12.5 -12.5 12.5q-12.5 0 -12.5 -12.5q0 -12.5 12.5 -12.5q12.5 0 12.5 12.5m0 12.5v-18.75q0 -12.5 -12.5 -12.5h-6.25"/>
      <path d="M1972.5 137.5v-37.5m-12.5 12.5h25.0"/>
      <path d="M1995.0 87.5v50m0 -12.5q0 -12.5 12.5 -12.5q12.5 0 12.5 12.5v12.5"/>
      <path d="M2055.0 137.5h-12.5q-12.5 0 -12.5 -12.5q0 -12.5 12.5 -12.5h12.5"/>
      <path d="M2077.5 137.5v-50"/>
      <path d="M2112.5 137.5v-25.0m0 -12.5v-6.25"/>
      <path d="M2147.5 137.5v-37.5q0 -12.5 12.5 -12.5m-25.0 25.0h25.0"/>
      <path d="M2182.5 137.5v-37.5q0 -12.5 12.5 -12.5m-25.0 25.0h25.0"/>
      <path d="M2211.25 137.5q6.25 0 6.25 -6.25v-6.25"/>
      <path d="M2300.0 125.0q0 12.5 -12.5 12.5q-12.5 0 -12.5 -12.5q0 -12.5 12.5 -12.5q12.5 0 12.5 12.5m0 12.5v-18.75q0 -12.5 -12.5 -12.5h-6.25"/>
      <path d="M2310.0 137.5v-25.0m0 12.5q0 -12.5 12.5 -12.5q12.5 0 12.5 12.5v12.5"/>
      <path d="M2370.0 137.5v-50M2370.0 125.0q0 -12.5 -12.5 -12.5q-12.5 0 -12.5 12.5q0 12.5 12.5 12.5q12.5 0 12.5 -12.5"/>
      <path d="M2415.0 137.5h25.0m-12.5 0v-50m-12.5 0h25.0"/>
      <path d="M0 181.25v18.75q0 6.25 6.25 6.25q6.25 0 6.25 -6.25v-6.25m0 6.25q0 6.25 6.25 6.25q6.25 0 6.25 -6.25m0 -18.75v25.0"/>
      <path d="M47.5 206.25q-12.5 0 -12.5 -12.5q0 -12.5 12.5 -12.5q12.5 0 12.5 12.5q0 12.5 -12.5 12.5"/>
      <path d="M70.0 206.25v-25.0m0 12.5q0 -12.5 12.5 -12.5q12.5 0 12.5 12.5v12.5"/>
      <path d="M130.0 206.25v-50M130.0 193.75q0 -12.5 -12.5 -12.5q-12.5 0 -12.5 12.5q0 12.5 12.5 12.5q12.5 0 12.5 -12.5"/>
      <path d="M140.0 193.75h25.0q0 -12.5 -12.5 -12.5q-12.5 0 -12.5 12.5q0 12.5 12.5 12.5h12.5"/>
      <path d="M175.0 206.25v-25.0m0 12.5q0 -12.5 12.5 -12.5q12.5 0 12.5 12.5"/>
      <path d="M210.0 193.75h25.0q0 -12.5 -12.5 -12.5q-12.5 0 -12.5 12.5q0 12.5 12.5 12.5h12.5"/>
      <path d="M270.0 206.25v-50M270.0 193.75q0 -12.5 -12.5 -12.5q-12.5 0 -12.5 12.5q0 12.5 12.5 12.5q12.5 0 12.5 -12.5"/>
      <path d="M327.5 206.25q-12.5 0 -12.5 -12.5q0 -12.5 12.5 -12.5q12.5 0 12.5 12.5q0 12.5 -12.5 12.5"/>
      <path d="M362.5 206.25v-37.5q0 -12.5 12.5 -12.5m-25.0 25.0h25.0"/>
      <path d="M397.5 206.25v-37.5m-12.5 12.5h25.0"/>
      <path d="M420.0 193.75h25.0q0 -12.5 -12.5 -12.5q-12.5 0 -12.5 12.5q0 12.5 12.5 12.5h12.5"/>
      <path d="M455.0 206.25v-25.0m0 12.5q0 -12.5 12.5 -12.5q12.5 0 12.5 12.5v12.5"/>
      <path d="M525.0 181.25v18.75q0 6.25 6.25 6.25q6.25 0 6.25 -6.25v-6.25m0 6.25q0 6.25 6.25 6.25q6.25 0 6.25 -6.25m0 -18.75v25.0"/>
      <path d="M560.0 156.25v50m0 -12.5q0 -12.5 12.5 -12.5q12.5 0 12.5 12.5v12.5"/>
      <path d="M620.0 193.75q0 12.5 -12.5 12.5q-12.5 0 -12.5 -12.5q0 -12.5 12.5 -12.5q12.5 0 12.5 12.5m0 12.5v-18.75q0 -12.5 -12.5 -12.5h-6.25"/>
      <path d="M642.5 206.25v-37.5m-12.5 12.5h25.0"/>
      <path d="M700.0 206.25v-25.0m0 6.25q0 -6.25 6.25 -6.25q6.25 0 6.25 6.25v6.25m0 -6.25q0 -6.25 6.25 -6.25q6.25 0 6.25 6.25v18.75"/>
      <path d="M735.0 181.25l12.5 25.0m12.5 -25.0l-18.75 37.5"/>
      <path d="M805.0 206.25v-25.0m0 6.25q0 -6.25 6.25 -6.25q6.25 0 6.25 6.25v6.25m0 -6.25q0 -6.25 6.25 -6.25q6.25 0 6.25 6.25v18.75"/>
      <path d="M865.0 193.75q0 12.5 -12.5 12.5q-12.5 0 -12.5 -12.5q0 -12.5 12.5 -12.5q12.5 0 12.5 12.5m0 12.5v-18.75q0 -12.5 -12.5 -12.5h-6.25"/>
      <path d="M875.0 206.25h18.75q6.25 0 6.25 -6.25q0 -6.25 -6.25 -6.25h-12.5q-6.25 0 -6.25 -6.25q0 -6.25 6.25 -6.25h18.75"/>
      <path d="M922.5 206.25v-37.5m-12.5 12.5h25.0"/>
      <path d="M945.0 193.75h25.0q0 -12.5 -12.5 -12.5q-12.5 0 -12.5 12.5q0 12.5 12.5 12.5h12.5"/>
      <path d="M980.0 206.25v-25.0m0 12.5q0 -12.5 12.5 -12.5q12.5 0 12.5 12.5"/>
      <path d="M1050.0 206.25h18.75q6.25 0 6.25 -6.25q0 -6.25 -6.25 -6.25h-12.5q-6.25 0 -6.25 -6.25q0 -6.25 6.25 -6.25h18.75"/>
      <path d="M1110.0 193.75q0 12.5 -12.5 12.5q-12.5 0 -12.5 -12.5q0 -12.5 12.5 -12.5q12.5 0 12.5 12.5m0 12.5v-18.75q0 -12.5 -12.5 -12.5h-6.25"/>
      <path d="M1120.0 181.25v18.75q0 6.25 6.25 6.25q6.25 0 6.25 -6.25v-6.25m0 6.25q0 6.25 6.25 6.25q6.25 0 6.25 -6.25m0 -18.75v25.0"/>
      <path d="M1202.5 206.25v-37.5m-12.5 12.5h25.0"/>
      <path d="M1237.5 206.25q-12.5 0 -12.5 -12.5q0 -12.5 12.5 -12.5q12.5 0 12.5 12.5q0 12.5 -12.5 12.5"/>
      <path d="M1320.0 193.75q0 12.5 -12.5 12.5q-12.5 0 -12.5 -12.5q0 -12.5 12.5 -12.5q12.5 0 12.5 12.5m0 12.5v-18.75q0 -12.5 -12.5 -12.5h-6.25"/>
      <path d="M1355.0 206.25v-50M1355.0 193.75q0 -12.5 -12.5 -12.5q-12.5 0 -12.5 12.5q0 12.5 12.5 12.5q12.5 0 12.5 -12.5"/>
      <path d="M1365.0 206.25v-25.0m0 6.25q0 -6.25 6.25 -6.25q6.25 0 6.25 6.25v6.25m0 -6.25q0 -6.25 6.25 -6.25q6.25 0 6.25 6.25v18.75"/>
      <path d="M1412.5 206.25v-25.0m0 -12.5v-6.25"/>
      <path d="M1435.0 206.25v-25.0m0 12.5q0 -12.5 12.5 -12.5q12.5 0 12.5 12.5"/>
      <path d="M1470.0 193.75h25.0q0 -12.5 -12.5 -12.5q-12.5 0 -12.5 12.5q0 12.5 12.5 12.5h12.5"/>
      <path d="M1540.0 206.25h18.75q6.25 0 6.25 -6.25q0 -6.25 -6.25 -6.25h-12.5q-6.25 0 -6.25 -6.25q0 -6.25 6.25 -6.25h18.75"/>
      <path d="M1587.5 206.25q-12.5 0 -12.5 -12.5q0 -12.5 12.5 -12.5q12.5 0 12.5 12.5q0 12.5 -12.5 12.5"/>
      <path d="M1645.0 206.25v-25.0m0 6.25q0 -6.25 6.25 -6.25q6.25 0 6.25 6.25v6.25m0 -6.25q0 -6.25 6.25 -6.25q6.25 0 6.25 6.25v18.75"/>
      <path d="M1680.0 181.25v12.5q0 12.5 12.5 12.5q12.5 0 12.5 -12.5m0 12.5v-25.0"/>
      <path d="M1740.0 206.25h-12.5q-12.5 0 -12.5 -12.5q0 -12.5 12.5 -12.5h12.5"/>
      <path d="M1750.0 156.25v50m0 -12.5q0 -12.5 12.5 -12.5q12.5 0 12.5 12.5v12.5"/>
      <path d="M1832.5 206.25v-25.0m0 -12.5v-6.25"/>
      <path d="M1855.0 206.25v-25.0m0 12.5q0 -12.5 12.5 -12.5q12.5 0 12.5 12.5v12.5"/>
      <path d="M1937.5 206.25v-37.5m-12.5 12.5h25.0"/>
      <path d="M1960.0 156.25v50m0 -12.5q0 -12.5 12.5 -12.5q12.5 0 12.5 12.5v12.5"/>
      <path d="M1995.0 193.75h25.0q0 -12.5 -12.5 -12.5q-12.5 0 -12.5 12.5q0 12.5 12.5 12.5h12.5"/>
      <path d="M2065.0 206.25h18.75q6.25 0 6.25 -6.25q0 -6.25 -6.25 -6.25h-12.5q-6.25 0 -6.25 -6.25q0 -6.25 6.25 -6.25h18.75"/>
      <path d="M2100.0 181.25v12.5q0 12.5 12.5 12.5q12.5 0 12.5 -12.5m0 12.5v-25.0"/>
      <path d="M2147.5 206.25v-50"/>
      <path d="M2182.5 206.25v-50"/>
      <path d="M2205.0 193.75h25.0q0 -12.5 -12.5 -12.5q-12.5 0 -12.5 12.5q0 12.5 12.5 12.5h12.5"/>
      <path d="M2240.0 206.25v-25.0m0 12.5q0 -12.5 12.5 -12.5q12.5 0 12.5 12.5v12.5"/>
      <path d="M2310.0 206.25v-50M2310.0 193.75q0 -12.5 12.5 -12.5q12.5 0 12.5 12.5q0 12.5 -12.5 12.5q-12.5 0 -12.5 -12.5"/>
      <path d="M2357.5 206.25q-12.5 0 -12.5 -12.5q0 -12.5 12.5 -12.5q12.5 0 12.5 12.5q0 12.5 -12.5 12.5"/>
      <path d="M2380.0 181.25l12.5 25.0m12.5 -25.0l-18.75 37.5"/>
      <path d="M2421.25 206.25q6.25 0 6.25 -6.25v-6.25m0 -12.5v-6.25"/>
      <path d="M0 250.0v18.75q0 6.25 6.25 6.25q6.25 0 6.25 -6.25v-6.25m0 6.25q0 6.25 6.25 6.25q6.25 0 6.25 -6.25m0 -18.75v25.0"/>
      <path d="M35.0 225.0v50m0 -12.5q0 -12.5 12.5 -12.5q12.5 0 12.5 12.5v12.5"/>
      <path d="M82.5 275.0q-12.5 0 -12.5 -12.5q0 -12.5 12.5 -12.5q12.5 0 12.5 12.5q0 12.5 -12.5 12.5"/>
      <path d="M140.0 275.0v-25.0m0 12.5q0 -12.5 12.5 -12.5q12.5 0 12.5 12.5v12.5"/>
      <path d="M175.0 262.5h25.0q0 -12.5 -12.5 -12.5q-12.5 0 -12.5 12.5q0 12.5 12.5 12.5h12.5"/>
      <path d="M210.0 250.0l12.5 25.0l12.5 -25.0"/>
      <path d="M245.0 262.5h25.0q0 -12.5 -12.5 -12.5q-12.5 0 -12.5 12.5q0 12.5 12.5 12.5h12.5"/>
      <path d="M280.0 275.0v-25.0m0 12.5q0 -12.5 12.5 -12.5q12.5 0 12.5 12.5"/>
      <path d="M321.25 275.0q6.25 0 6.25 -6.25v-6.25"/>
      <path d="M397.5 275.0v-37.5m-12.5 12.5h25.0"/>
      <path d="M432.5 275.0q-12.5 0 -12.5 -12.5q0 -12.5 12.5 -12.5q12.5 0 12.5 12.5q0 12.5 -12.5 12.5"/>
      <path d="M490.0 275.0v-25.0m0 6.25q0 -6.25 6.25 -6.25q6.25 0 6.25 6.25v6.25m0 -6.25q0 -6.25 6.25 -6.25q6.25 0 6.25 6.25v18.75"/>
      <path d="M525.0 250.0l12.5 25.0m12.5 -25.0l-18.75 37.5"/>
      <path d="M595.0 275.0v-25.0m0 12.5q0 -12.5 12.5 -12.5q12.5 0 12.5 12.5"/>
      <path d="M630.0 262.5h25.0q0 -12.5 -12.5 -12.5q-12.5 0 -12.5 12.5q0 12.5 12.5 12.5h12.5"/>
      <path d="M690.0 275.0h-12.5q-12.5 0 -12.5 -12.5q0 -12.5 12.5 -12.5h12.5"/>
      <path d="M712.5 275.0q-12.5 0 -12.5 -12.5q0 -12.5 12.5 -12.5q12.5 0 12.5 12.5q0 12.5 -12.5 12.5"/>
      <path d="M747.5 275.0v-50"/>
      <path d="M782.5 275.0v-50"/>
      <path d="M805.0 262.5h25.0q0 -12.5 -12.5 -12.5q-12.5 0 -12.5 12.5q0 12.5 12.5 12.5h12.5"/>
      <path d="M865.0 275.0h-12.5q-12.5 0 -12.5 -12.5q0 -12.5 12.5 -12.5h12.5"/>
      <path d="M887.5 275.0v-37.5m-12.5 12.5h25.0"/>
      <path d="M922.5 275.0v-25.0m0 -12.5v-6.25"/>
      <path d="M957.5 275.0q-12.5 0 -12.5 -12.5q0 -12.5 12.5 -12.5q12.5 0 12.5 12.5q0 12.5 -12.5 12.5"/>
      <path d="M980.0 275.0v-25.0m0 12.5q0 -12.5 12.5 -12.5q12.5 0 12.5 12.5v12.5"/>
      <path d="M1021.25 275.0q6.25 0 6.25 -6.25v-6.25"/>
      <path d="M1085.0 275.0v-25.0m0 12.5q0 -12.5 12.5 -12.5q12.5 0 12.5 12.5"/>
      <path d="M1120.0 262.5h25.0q0 -12.5 -12.5 -12.5q-12.5 0 -12.5 12.5q0 12.5 12.5 12.5h12.5"/>
      <path d="M1155.0 262.5q0 -12.5 12.5 -12.5q12.5 0 12.5 12.5q0 12.5 -12.5 12.5q-12.5 0 -12.5 -12.5m0 -12.5v37.5"/>
      <path d="M1215.0 262.5q0 12.5 -12.5 12.5q-12.5 0 -12.5 -12.5q0 -12.5 12.5 -12.5q12.5 0 12.5 12.5m0 12.5v-18.75q0 -12.5 -12.5 -12.5h-6.25"/>
      <path d="M1237.5 275.0v-25.0m0 -12.5v-6.25"/>
      <path d="M1285.0 275.0v-50M1285.0 262.5q0 -12.5 -12.5 -12.5q-12.5 0 -12.5 12.5q0 12.5 12.5 12.5q12.5 0 12.5 -12.5"/>
      <path d="M1330.0 225.0v50m0 -12.5q0 -12.5 12.5 -12.5q12.5 0 12.5 12.5v12.5"/>
      <path d="M1377.5 275.0v-25.0m0 -12.5v-6.25"/>
      <path d="M1400.0 275.0h18.75q6.25 0 6.25 -6.25q0 -6.25 -6.25 -6.25h-12.5q-6.25 0 -6.25 -6.25q0 -6.25 6.25 -6.25h18.75"/>
      <path d="M1482.5 275.0v-25.0m0 -12.5v-6.25"/>
      <path d="M1505.0 275.0v-25.0m0 12.5q0 -12.5 12.5 -12.5q12.5 0 12.5 12.5v12.5"/>
      <path d="M1565.0 275.0v-50M1565.0 262.5q0 -12.5 -12.5 -12.5q-12.5 0 -12.5 12.5q0 12.5 12.5 12.5q12.5 0 12.5 -12.5"/>
      <path d="M1575.0 250.0v12.5q0 12.5 12.5 12.5q12.5 0 12.5 -12.5m0 12.5v-25.0"/>
      <path d="M1622.5 275.0v-50"/>
      <path d="M1670.0 262.5q0 -12.5 -12.5 -12.5q-12.5 0 -12.5 12.5q0 12.5 12.5 12.5q12.5 0 12.5 -12.5m0 -12.5v25.0q0 12.5 -12.5 12.5h-12.5"/>
      <path d="M1680.0 262.5h25.0q0 -12.5 -12.5 -12.5q-12.5 0 -12.5 12.5q0 12.5 12.5 12.5h12.5"/>
      <path d="M1715.0 275.0v-25.0m0 12.5q0 -12.5 12.5 -12.5q12.5 0 12.5 12.5v12.5"/>
      <path d="M1775.0 275.0h-12.5q-12.5 0 -12.5 -12.5q0 -12.5 12.5 -12.5h12.5"/>
      <path d="M1785.0 262.5h25.0q0 -12.5 -12.5 -12.5q-12.5 0 -12.5 12.5q0 12.5 12.5 12.5h12.5"/>
      <path d="M1855.0 275.0v-50M1855.0 262.5q0 -12.5 12.5 -12.5q12.5 0 12.5 12.5q0 12.5 -12.5 12.5q-12.5 0 -12.5 -12.5"/>
      <path d="M1890.0 250.0l12.5 25.0m12.5 -25.0l-18.75 37.5"/>
      <path d="M1985.0 262.5q0 12.5 -12.5 12.5q-12.5 0 -12.5 -12.5q0 -12.5 12.5 -12.5q12.5 0 12.5 12.5m0 12.5v-18.75q0 -12.5 -12.5 -12.5h-6.25"/>
      <path d="M1995.0 275.0v-25.0m0 12.5q0 -12.5 12.5 -12.5q12.5 0 12.5 12.5v12.5"/>
      <path d="M2030.0 250.0l12.5 25.0m12.5 -25.0l-18.75 37.5"/>
      <path d="M2100.0 275.0h18.75q6.25 0 6.25 -6.25q0 -6.25 -6.25 -6.25h-12.5q-6.25 0 -6.25 -6.25q0 -6.25 6.25 -6.25h18.75"/>
      <path d="M2147.5 275.0v-25.0m0 -12.5v-6.25"/>
      <path d="M2195.0 262.5q0 -12.5 -12.5 -12.5q-12.5 0 -12.5 12.5q0 12.5 12.5 12.5q12.5 0 12.5 -12.5m0 -12.5v25.0q0 12.5 -12.5 12.5h-12.5"/>
      <path d="M2205.0 275.0v-25.0m0 12.5q0 -12.5 12.5 -12.5q12.5 0 12.5 12.5v12.5"/>
      <path d="M2287.5 275.0q-12.5 0 -12.5 -12.5q0 -12.5 12.5 -12.5q12.5 0 12.5 12.5q0 12.5 -12.5 12.5"/>
      <path d="M2322.5 275.0v-37.5q0 -12.5 12.5 -12.5m-25.0 25.0h25.0"/>
      <path d="M25.0 331.25q0 -12.5 -12.5 -12.5q-12.5 0 -12.5 12.5q0 12.5 12.5 12.5q12.5 0 12.5 -12.5m0 -12.5v25.0q0 12.5 -12.5 12.5h-12.5"/>
      <path d="M35.0 343.75v-25.0m0 12.5q0 -12.5 12.5 -12.5q12.5 0 12.5 12.5"/>
      <path d="M95.0 331.25q0 12.5 -12.5 12.5q-12.5 0 -12.5 -12.5q0 -12.5 12.5 -12.5q12.5 0 12.5 12.5m0 12.5v-18.75q0 -12.5 -12.5 -12.5h-6.25"/>
      <path d="M117.5 343.75v-37.5m-12.5 12.5h25.0"/>
      <path d="M152.5 343.75v-25.0m0 -12.5v-6.25"/>
      <path d="M187.5 343.75v-37.5m-12.5 12.5h25.0"/>
      <path d="M210.0 318.75v12.5q0 12.5 12.5 12.5q12.5 0 12.5 -12.5m0 12.5v-25.0"/>
      <path d="M270.0 343.75v-50M270.0 331.25q0 -12.5 -12.5 -12.5q-12.5 0 -12.5 12.5q0 12.5 12.5 12.5q12.5 0 12.5 -12.5"/>
      <path d="M280.0 331.25h25.0q0 -12.5 -12.5 -12.5q-12.5 0 -12.5 12.5q0 12.5 12.5 12.5h12.5"/>
      <path d="M327.5 343.75v-6.25"/>
      <path d="M385.0 343.75v-50m25.0 0v50m0 -25.0h-25.0"/>
      <path d="M420.0 331.25h25.0q0 -12.5 -12.5 -12.5q-12.5 0 -12.5 12.5q0 12.5 12.5 12.5h12.5"/>
      <path d="M490.0 318.75v18.75q0 6.25 6.25 6.25q6.25 0 6.25 -6.25v-6.25m0 6.25q0 6.25 6.25 6.25q6.25 0 6.25 -6.25m0 -18.75v25.0"/>
      <path d="M550.0 331.25q0 12.5 -12.5 12.5q-12.5 0 -12.5 -12.5q0 -12.5 12.5 -12.5q12.5 0 12.5 12.5m0 12.5v-18.75q0 -12.5 -12.5 -12.5h-6.25"/>
      <path d="M560.0 343.75h18.75q6.25 0 6.25 -6.25q0 -6.25 -6.25 -6.25h-12.5q-6.25 0 -6.25 -6.25q0 -6.25 6.25 -6.25h18.75"/>
      <path d="M630.0 343.75v-25.0m0 12.5q0 -12.5 12.5 -12.5q12.5 0 12.5 12.5v12.5"/>
      <path d="M677.5 343.75q-12.5 0 -12.5 -12.5q0 -12.5 12.5 -12.5q12.5 0 12.5 12.5q0 12.5 -12.5 12.5"/>
      <path d="M712.5 343.75v-37.5m-12.5 12.5h25.0"/>
      <path d="M782.5 343.75v-25.0m0 -12.5v-6.25"/>
      <path d="M805.0 343.75v-25.0m0 12.5q0 -12.5 12.5 -12.5q12.5 0 12.5 12.5v12.5"/>
      <path d="M840.0 343.75h18.75q6.25 0 6.25 -6.25q0 -6.25 -6.25 -6.25h-12.5q-6.25 0 -6.25 -6.25q0 -6.25 6.25 -6.25h18.75"/>
      <path d="M887.5 343.75q-12.5 0 -12.5 -12.5q0 -12.5 12.5 -12.5q12.5 0 12.5 12.5q0 12.5 -12.5 12.5"/>
      <path d="M922.5 343.75v-50"/>
      <path d="M945.0 331.25h25.0q0 -12.5 -12.5 -12.5q-12.5 0 -12.5 12.5q0 12.5 12.5 12.5h12.5"/>
      <path d="M980.0 343.75v-25.0m0 12.5q0 -12.5 12.5 -12.5q12.5 0 12.5 12.5v12.5"/>
      <path d="M1027.5 343.75v-37.5m-12.5 12.5h25.0"/>
      <path d="M1097.5 343.75v-37.5m-12.5 12.5h25.0"/>
      <path d="M1132.5 343.75q-12.5 0 -12.5 -12.5q0 -12.5 12.5 -12.5q12.5 0 12.5 12.5q0 12.5 -12.5 12.5"/>
      <path d="M1190.0 293.75v50m0 -12.5q0 -12.5 12.5 -12.5q12.5 0 12.5 12.5v12.5"/>
      <path d="M1237.5 343.75v-25.0m0 -12.5v-6.25"/>
      <path d="M1260.0 343.75h18.75q6.25 0 6.25 -6.25q0 -6.25 -6.25 -6.25h-12.5q-6.25 0 -6.25 -6.25q0 -6.25 6.25 -6.25h18.75"/>
      <path d="M1330.0 343.75v-50M1330.0 331.25q0 -12.5 12.5 -12.5q12.5 0 12.5 12.5q0 12.5 -12.5 12.5q-12.5 0 -12.5 -12.5"/>
      <path d="M1365.0 331.25h25.0q0 -12.5 -12.5 -12.5q-12.5 0 -12.5 12.5q0 12.5 12.5 12.5h12.5"/>
      <path d="M1400.0 343.75v-25.0m0 12.5q0 -12.5 12.5 -12.5q12.5 0 12.5 12.5v12.5"/>
      <path d="M1435.0 331.25h25.0q0 -12.5 -12.5 -12.5q-12.5 0 -12.5 12.5q0 12.5 12.5 12.5h12.5"/>
      <path d="M1482.5 343.75v-37.5q0 -12.5 12.5 -12.5m-25.0 25.0h25.0"/>
      <path d="M1530.0 331.25q0 12.5 -12.5 12.5q-12.5 0 -12.5 -12.5q0 -12.5 12.5 -12.5q12.5 0 12.5 12.5m0 12.5v-18.75q0 -12.5 -12.5 -12.5h-6.25"/>
      <path d="M1565.0 343.75h-12.5q-12.5 0 -12.5 -12.5q0 -12.5 12.5 -12.5h12.5"/>
      <path d="M1587.5 343.75v-37.5m-12.5 12.5h25.0"/>
      <path d="M1622.5 343.75q-12.5 0 -12.5 -12.5q0 -12.5 12.5 -12.5q12.5 0 12.5 12.5q0 12.5 -12.5 12.5"/>
      <path d="M1645.0 343.75v-25.0m0 12.5q0 -12.5 12.5 -12.5q12.5 0 12.5 12.5"/>
      <path d="M1686.25 343.75q6.25 0 6.25 -6.25v-6.25"/>
      <path d="M1750.0 293.75v50m0 -12.5q0 -12.5 12.5 -12.5q12.5 0 12.5 12.5v12.5"/>
      <path d="M1785.0 331.25h25.0q0 -12.5 -12.5 -12.5q-12.5 0 -12.5 12.5q0 12.5 12.5 12.5h12.5"/>
      <path d="M1855.0 318.75v18.75q0 6.25 6.25 6.25q6.25 0 6.25 -6.25v-6.25m0 6.25q0 6.25 6.25 6.25q6.25 0 6.25 -6.25m0 -18.75v25.0"/>
      <path d="M1915.0 331.25q0 12.5 -12.5 12.5q-12.5 0 -12.5 -12.5q0 -12.5 12.5 -12.5q12.5 0 12.5 12.5m0 12.5v-18.75q0 -12.5 -12.5 -12.5h-6.25"/>
      <path d="M1925.0 343.75h18.75q6.25 0 6.25 -6.25q0 -6.25 -6.25 -6.25h-12.5q-6.25 0 -6.25 -6.25q0 -6.25 6.25 -6.25h18.75"/>
      <path d="M1995.0 343.75h18.75q6.25 0 6.25 -6.25q0 -6.25 -6.25 -6.25h-12.5q-6.25 0 -6.25 -6.25q0 -6.25 6.25 -6.25h18.75"/>
      <path d="M2042.5 343.75v-25.0m0 -12.5v-6.25"/>
      <path d="M2065.0 343.75v-25.0m0 6.25q0 -6.25 6.25 -6.25q6.25 0 6.25 6.25v6.25m0 -6.25q0 -6.25 6.25 -6.25q6.25 0 6.25 6.25v18.75"/>
      <path d="M2100.0 331.25q0 -12.5 12.5 -12.5q12.5 0 12.5 12.5q0 12.5 -12.5 12.5q-12.5 0 -12.5 -12.5m0 -12.5v37.5"/>
      <path d="M2147.5 343.75v-50"/>
      <path d="M2170.0 318.75l12.5 25.0m12.5 -25.0l-18.75 37.5"/>
      <path d="M12.5 412.5v-25.0m0 -12.5v-6.25"/>
      <path d="M35.0 412.5v-25.0m0 12.5q0 -12.5 12.5 -12.5q12.5 0 12.5 12.5v12.5"/>
      <path d="M70.0 412.5h18.75q6.25 0 6.25 -6.25q0 -6.25 -6.25 -6.25h-12.5q-6.25 0 -6.25 -6.25q0 -6.25 6.25 -6.25h18.75"/>
      <path d="M105.0 400.0h25.0q0 -12.5 -12.5 -12.5q-12.5 0 -12.5 12.5q0 12.5 12.5 12.5h12.5"/>
      <path d="M140.0 412.5v-25.0m0 12.5q0 -12.5 12.5 -12.5q12.5 0 12.5 12.5v12.5"/>
      <path d="M175.0 412.5h18.75q6.25 0 6.25 -6.25q0 -6.25 -6.25 -6.25h-12.5q-6.25 0 -6.25 -6.25q0 -6.25 6.25 -6.25h18.75"/>
      <path d="M222.5 412.5v-25.0m0 -12.5v-6.25"/>
      <path d="M245.0 412.5v-50M245.0 400.0q0 -12.5 12.5 -12.5q12.5 0 12.5 12.5q0 12.5 -12.5 12.5q-12.5 0 -12.5 -12.5"/>
      <path d="M292.5 412.5v-50"/>
      <path d="M315.0 400.0h25.0q0 -12.5 -12.5 -12.5q-12.5 0 -12.5 12.5q0 12.5 12.5 12.5h12.5"/>
      <path d="M356.25 412.5q6.25 0 6.25 -6.25v-6.25m0 -12.5v-6.25"/>
      <path d="M432.5 412.5v-37.5m-12.5 12.5h25.0"/>
      <path d="M455.0 362.5v50m0 -12.5q0 -12.5 12.5 -12.5q12.5 0 12.5 12.5v12.5"/>
      <path d="M502.5 412.5q-12.5 0 -12.5 -12.5q0 -12.5 12.5 -12.5q12.5 0 12.5 12.5q0 12.5 -12.5 12.5"/>
      <path d="M525.0 387.5v12.5q0 12.5 12.5 12.5q12.5 0 12.5 -12.5m0 12.5v-25.0"/>
      <path d="M585.0 400.0q0 -12.5 -12.5 -12.5q-12.5 0 -12.5 12.5q0 12.5 12.5 12.5q12.5 0 12.5 -12.5m0 -12.5v25.0q0 12.5 -12.5 12.5h-12.5"/>
      <path d="M595.0 362.5v50m0 -12.5q0 -12.5 12.5 -12.5q12.5 0 12.5 12.5v12.5"/>
      <path d="M665.0 362.5v50m25.0 -25.0l-25.0 12.5l25.0 12.5"/>
      <path d="M700.0 412.5v-25.0m0 12.5q0 -12.5 12.5 -12.5q12.5 0 12.5 12.5v12.5"/>
      <path d="M747.5 412.5q-12.5 0 -12.5 -12.5q0 -12.5 12.5 -12.5q12.5 0 12.5 12.5q0 12.5 -12.5 12.5"/>
      <path d="M770.0 387.5v18.75q0 6.25 6.25 6.25q6.25 0 6.25 -6.25v-6.25m0 6.25q0 6.25 6.25 6.25q6.25 0 6.25 -6.25m0 -18.75v25.0"/>
      <path d="M817.5 412.5v-25.0m0 -12.5v-6.25"/>
      <path d="M840.0 412.5v-25.0m0 12.5q0 -12.5 12.5 -12.5q12.5 0 12.5 12.5v12.5"/>
      <path d="M900.0 400.0q0 -12.5 -12.5 -12.5q-12.5 0 -12.5 12.5q0 12.5 12.5 12.5q12.5 0 12.5 -12.5m0 -12.5v25.0q0 12.5 -12.5 12.5h-12.5"/>
      <path d="M945.0 400.0q0 -12.5 12.5 -12.5q12.5 0 12.5 12.5q0 12.5 -12.5 12.5q-12.5 0 -12.5 -12.5m0 -12.5v37.5"/>
      <path d="M980.0 400.0h25.0q0 -12.5 -12.5 -12.5q-12.5 0 -12.5 12.5q0 12.5 12.5 12.5h12.5"/>
      <path d="M1015.0 412.5v-25.0m0 12.5q0 -12.5 12.5 -12.5q12.5 0 12.5 12.5"/>
      <path d="M1062.5 412.5v-37.5q0 -12.5 12.5 -12.5m-25.0 25.0h25.0"/>
      <path d="M1085.0 400.0h25.0q0 -12.5 -12.5 -12.5q-12.5 0 -12.5 12.5q0 12.5 12.5 12.5h12.5"/>
      <path d="M1145.0 412.5h-12.5q-12.5 0 -12.5 -12.5q0 -12.5 12.5 -12.5h12.5"/>
      <path d="M1167.5 412.5v-37.5m-12.5 12.5h25.0"/>
      <path d="M1202.5 412.5v-50"/>
      <path d="M1225.0 387.5l12.5 25.0m12.5 -25.0l-18.75 37.5"/>
      <path d="M1307.5 412.5v-37.5m-12.5 12.5h25.0"/>
      <path d="M1330.0 362.5v50m0 -12.5q0 -12.5 12.5 -12.5q12.5 0 12.5 12.5v12.5"/>
      <path d="M1365.0 400.0h25.0q0 -12.5 -12.5 -12.5q-12.5 0 -12.5 12.5q0 12.5 12.5 12.5h12.5"/>
      <path d="M1435.0 362.5v50m0 -12.5q0 -12.5 12.5 -12.5q12.5 0 12.5 12.5v12.5"/>
      <path d="M1482.5 412.5q-12.5 0 -12.5 -12.5q0 -12.5 12.5 -12.5q12.5 0 12.5 12.5q0 12.5 -12.5 12.5"/>
      <path d="M1517.5 412.5v-50"/>
      <path d="M1565.0 412.5v-50M1565.0 400.0q0 -12.5 -12.5 -12.5q-12.5 0 -12.5 12.5q0 12.5 12.5 12.5q12.5 0 12.5 -12.5"/>
      <path d="M1610.0 362.5v50m0 -12.5q0 -12.5 12.5 -12.5q12.5 0 12.5 12.5v12.5"/>
      <path d="M1645.0 400.0h25.0q0 -12.5 -12.5 -12.5q-12.5 0 -12.5 12.5q0 12.5 12.5 12.5h12.5"/>
      <path d="M1715.0 362.5v50m0 -12.5q0 -12.5 12.5 -12.5q12.5 0 12.5 12.5v12.5"/>
      <path d="M1775.0 400.0q0 12.5 -12.5 12.5q-12.5 0 -12.5 -12.5q0 -12.5 12.5 -12.5q12.5 0 12.5 12.5m0 12.5v-18.75q0 -12.5 -12.5 -12.5h-6.25"/>
      <path d="M1810.0 412.5v-50M1810.0 400.0q0 -12.5 -12.5 -12.5q-12.5 0 -12.5 12.5q0 12.5 12.5 12.5q12.5 0 12.5 -12.5"/>
      <path d="M1867.5 412.5q-12.5 0 -12.5 -12.5q0 -12.5 12.5 -12.5q12.5 0 12.5 12.5q0 12.5 -12.5 12.5"/>
      <path d="M1890.0 412.5v-25.0m0 12.5q0 -12.5 12.5 -12.5q12.5 0 12.5 12.5v12.5"/>
      <path d="M1960.0 362.5v50m0 -12.5q0 -12.5 12.5 -12.5q12.5 0 12.5 12.5v12.5"/>
      <path d="M2007.5 412.5v-25.0m0 -12.5v-6.25"/>
      <path d="M2030.0 412.5h18.75q6.25 0 6.25 -6.25q0 -6.25 -6.25 -6.25h-12.5q-6.25 0 -6.25 -6.25q0 -6.25 6.25 -6.25h18.75"/>
      <path d="M2100.0 362.5v50m0 -12.5q0 -12.5 12.5 -12.5q12.5 0 12.5 12.5v12.5"/>
      <path d="M2135.0 400.0h25.0q0 -12.5 -12.5 -12.5q-12.5 0 -12.5 12.5q0 12.5 12.5 12.5h12.5"/>
      <path d="M2195.0 400.0q0 12.5 -12.5 12.5q-12.5 0 -12.5 -12.5q0 -12.5 12.5 -12.5q12.5 0 12.5 12.5m0 12.5v-18.75q0 -12.5 -12.5 -12.5h-6.25"/>
      <path d="M2205.0 412.5v-25.0m0 12.5q0 -12.5 12.5 -12.5q12.5 0 12.5 12.5"/>
      <path d="M2252.5 412.5v-37.5m-12.5 12.5h25.0"/>
      <path d="M2281.25 412.5q6.25 0 6.25 -6.25v-6.25"/>
      <path d="M2370.0 400.0q0 12.5 -12.5 12.5q-12.5 0 -12.5 -12.5q0 -12.5 12.5 -12.5q12.5 0 12.5 12.5m0 12.5v-18.75q0 -12.5 -12.5 -12.5h-6.25"/>
      <path d="M2380.0 412.5v-25.0m0 12.5q0 -12.5 12.5 -12.5q12.5 0 12.5 12.5v12.5"/>
      <path d="M2440.0 412.5v-50M2440.0 400.0q0 -12.5 -12.5 -12.5q-12.5 0 -12.5 12.5q0 12.5 12.5 12.5q12.5 0 12.5 -12.5"/>
      <path d="M25.0 481.25h-12.5q-12.5 0 -12.5 -12.5q0 -12.5 12.5 -12.5h12.5"/>
      <path d="M47.5 481.25q-12.5 0 -12.5 -12.5q0 -12.5 12.5 -12.5q12.5 0 12.5 12.5q0 12.5 -12.5 12.5"/>
      <path d="M70.0 481.25v-25.0m0 12.5q0 -12.5 12.5 -12.5q12.5 0 12.5 12.5v12.5"/>
      <path d="M105.0 481.25h18.75q6.25 0 6.25 -6.25q0 -6.25 -6.25 -6.25h-12.5q-6.25 0 -6.25 -6.25q0 -6.25 6.25 -6.25h18.75"/>
      <path d="M165.0 481.25h-12.5q-12.5 0 -12.5 -12.5q0 -12.5 12.5 -12.5h12.5"/>
      <path d="M187.5 481.25v-25.0m0 -12.5v-6.25"/>
      <path d="M222.5 481.25q-12.5 0 -12.5 -12.5q0 -12.5 12.5 -12.5q12.5 0 12.5 12.5q0 12.5 -12.5 12.5"/>
      <path d="M245.0 456.25v12.5q0 12.5 12.5 12.5q12.5 0 12.5 -12.5m0 12.5v-25.0"/>
      <path d="M280.0 481.25h18.75q6.25 0 6.25 -6.25q0 -6.25 -6.25 -6.25h-12.5q-6.25 0 -6.25 -6.25q0 -6.25 6.25 -6.25h18.75"/>
      <path d="M350.0 431.25v50m0 -12.5q0 -12.5 12.5 -12.5q12.5 0 12.5 12.5v12.5"/>
      <path d="M385.0 468.75h25.0q0 -12.5 -12.5 -12.5q-12.5 0 -12.5 12.5q0 12.5 12.5 12.5h12.5"/>
      <path d="M455.0 431.25v50m0 -12.5q0 -12.5 12.5 -12.5q12.5 0 12.5 12.5v12.5"/>
      <path d="M515.0 468.75q0 12.5 -12.5 12.5q-12.5 0 -12.5 -12.5q0 -12.5 12.5 -12.5q12.5 0 12.5 12.5m0 12.5v-18.75q0 -12.5 -12.5 -12.5h-6.25"/>
      <path d="M550.0 481.25v-50M550.0 468.75q0 -12.5 -12.5 -12.5q-12.5 0 -12.5 12.5q0 12.5 12.5 12.5q12.5 0 12.5 -12.5"/>
      <path d="M607.5 481.25q-12.5 0 -12.5 -12.5q0 -12.5 12.5 -12.5q12.5 0 12.5 12.5q0 12.5 -12.5 12.5"/>
      <path d="M630.0 481.25v-25.0m0 12.5q0 -12.5 12.5 -12.5q12.5 0 12.5 12.5v12.5"/>
      <path d="M677.5 481.25v-50"/>
      <path d="M700.0 456.25l12.5 25.0m12.5 -25.0l-18.75 37.5"/>
      <path d="M782.5 481.25v-37.5m-12.5 12.5h25.0"/>
      <path d="M817.5 481.25q-12.5 0 -12.5 -12.5q0 -12.5 12.5 -12.5q12.5 0 12.5 12.5q0 12.5 -12.5 12.5"/>
      <path d="M875.0 481.25h18.75q6.25 0 6.25 -6.25q0 -6.25 -6.25 -6.25h-12.5q-6.25 0 -6.25 -6.25q0 -6.25 6.25 -6.25h18.75"/>
      <path d="M910.0 468.75q0 -12.5 12.5 -12.5q12.5 0 12.5 12.5q0 12.5 -12.5 12.5q-12.5 0 -12.5 -12.5m0 -12.5v37.5"/>
      <path d="M945.0 468.75h25.0q0 -12.5 -12.5 -12.5q-12.5 0 -12.5 12.5q0 12.5 12.5 12.5h12.5"/>
      <path d="M1005.0 468.75q0 12.5 -12.5 12.5q-12.5 0 -12.5 -12.5q0 -12.5 12.5 -12.5q12.5 0 12.5 12.5m0 12.5v-18.75q0 -12.5 -12.5 -12.5h-6.25"/>
      <path d="M1015.0 431.25v50m25.0 -25.0l-25.0 12.5l25.0 12.5"/>
      <path d="M1110.0 468.75q0 12.5 -12.5 12.5q-12.5 0 -12.5 -12.5q0 -12.5 12.5 -12.5q12.5 0 12.5 12.5m0 12.5v-18.75q0 -12.5 -12.5 -12.5h-6.25"/>
      <path d="M1120.0 481.25v-25.0m0 12.5q0 -12.5 12.5 -12.5q12.5 0 12.5 12.5v12.5"/>
      <path d="M1180.0 481.25v-50M1180.0 468.75q0 -12.5 -12.5 -12.5q-12.5 0 -12.5 12.5q0 12.5 12.5 12.5q12.5 0 12.5 -12.5"/>
      <path d="M1250.0 468.75q0 12.5 -12.5 12.5q-12.5 0 -12.5 -12.5q0 -12.5 12.5 -12.5q12.5 0 12.5 12.5m0 12.5v-18.75q0 -12.5 -12.5 -12.5h-6.25"/>
      <path d="M1272.5 481.25v-50"/>
      <path d="M1307.5 481.25v-50"/>
      <path d="M1377.5 481.25v-37.5m-12.5 12.5h25.0"/>
      <path d="M1400.0 431.25v50m0 -12.5q0 -12.5 12.5 -12.5q12.5 0 12.5 12.5v12.5"/>
      <path d="M1435.0 468.75h25.0q0 -12.5 -12.5 -12.5q-12.5 0 -12.5 12.5q0 12.5 12.5 12.5h12.5"/>
      <path d="M1505.0 431.25v50m0 -12.5q0 -12.5 12.5 -12.5q12.5 0 12.5 12.5v12.5"/>
      <path d="M1552.5 481.25q-12.5 0 -12.5 -12.5q0 -12.5 12.5 -12.5q12.5 0 12.5 12.5q0 12.5 -12.5 12.5"/>
      <path d="M1575.0 456.25v12.5q0 12.5 12.5 12.5q12.5 0 12.5 -12.5m0 12.5v-25.0"/>
      <path d="M1610.0 481.25h18.75q6.25 0 6.25 -6.25q0 -6.25 -6.25 -6.25h-12.5q-6.25 0 -6.25 -6.25q0 -6.25 6.25 -6.25h18.75"/>
      <path d="M1645.0 468.75h25.0q0 -12.5 -12.5 -12.5q-12.5 0 -12.5 12.5q0 12.5 12.5 12.5h12.5"/>
      <path d="M1715.0 456.25v18.75q0 6.25 6.25 6.25q6.25 0 6.25 -6.25v-6.25m0 6.25q0 6.25 6.25 6.25q6.25 0 6.25 -6.25m0 -18.75v25.0"/>
      <path d="M1762.5 481.25q-12.5 0 -12.5 -12.5q0 -12.5 12.5 -12.5q12.5 0 12.5 12.5q0 12.5 -12.5 12.5"/>
      <path d="M1785.0 456.25v12.5q0 12.5 12.5 12.5q12.5 0 12.5 -12.5m0 12.5v-25.0"/>
      <path d="M1832.5 481.25v-50"/>
      <path d="M1880.0 481.25v-50M1880.0 468.75q0 -12.5 -12.5 -12.5q-12.5 0 -12.5 12.5q0 12.5 12.5 12.5q12.5 0 12.5 -12.5"/>
      <path d="M1925.0 481.25v-50M1925.0 468.75q0 -12.5 12.5 -12.5q12.5 0 12.5 12.5q0 12.5 -12.5 12.5q-12.5 0 -12.5 -12.5"/>
      <path d="M1960.0 468.75h25.0q0 -12.5 -12.5 -12.5q-12.5 0 -12.5 12.5q0 12.5 12.5 12.5h12.5"/>
      <path d="M2042.5 481.25q-12.5 0 -12.5 -12.5q0 -12.5 12.5 -12.5q12.5 0 12.5 12.5q0 12.5 -12.5 12.5"/>
      <path d="M2065.0 481.25v-50M2065.0 468.75q0 -12.5 12.5 -12.5q12.5 0 12.5 12.5q0 12.5 -12.5 12.5q-12.5 0 -12.5 -12.5"/>
      <path d="M2112.5 481.25v-50"/>
      <path d="M2147.5 481.25v-25.0m0 -12.5v-6.25"/>
      <path d="M2195.0 468.75q0 -12.5 -12.5 -12.5q-12.5 0 -12.5 12.5q0 12.5 12.5 12.5q12.5 0 12.5 -12.5m0 -12.5v25.0q0 12.5 -12.5 12.5h-12.5"/>
      <path d="M2205.0 468.75h25.0q0 -12.5 -12.5 -12.5q-12.5 0 -12.5 12.5q0 12.5 12.5 12.5h12.5"/>
      <path d="M2265.0 481.25v-50M2265.0 468.75q0 -12.5 -12.5 -12.5q-12.5 0 -12.5 12.5q0 12.5 12.5 12.5q12.5 0 12.5 -12.5"/>
      <path d="M2322.5 481.25v-37.5m-12.5 12.5h25.0"/>
      <path d="M2357.5 481.25q-12.5 0 -12.5 -12.5q0 -12.5 12.5 -12.5q12.5 0 12.5 12.5q0 12.5 -12.5 12.5"/>
      <path d="M0 550.0v-50M0 537.5q0 -12.5 12.5 -12.5q12.5 0 12.5 12.5q0 12.5 -12.5 12.5q-12.5 0 -12.5 -12.5"/>
      <path d="M35.0 537.5h25.0q0 -12.5 -12.5 -12.5q-12.5 0 -12.5 12.5q0 12.5 12.5 12.5h12.5"/>
      <path d="M70.0 550.0v-25.0m0 12.5q0 -12.5 12.5 -12.5q12.5 0 12.5 12.5v12.5"/>
      <path d="M130.0 550.0v-50M130.0 537.5q0 -12.5 -12.5 -12.5q-12.5 0 -12.5 12.5q0 12.5 12.5 12.5q12.5 0 12.5 -12.5"/>
      <path d="M187.5 550.0v-37.5m-12.5 12.5h25.0"/>
      <path d="M222.5 550.0q-12.5 0 -12.5 -12.5q0 -12.5 12.5 -12.5q12.5 0 12.5 12.5q0 12.5 -12.5 12.5"/>
      <path d="M280.0 500.0v50m0 -12.5q0 -12.5 12.5 -12.5q12.5 0 12.5 12.5v12.5"/>
      <path d="M327.5 550.0v-25.0m0 -12.5v-6.25"/>
      <path d="M350.0 550.0h18.75q6.25 0 6.25 -6.25q0 -6.25 -6.25 -6.25h-12.5q-6.25 0 -6.25 -6.25q0 -6.25 6.25 -6.25h18.75"/>
      <path d="M420.0 525.0v18.75q0 6.25 6.25 6.25q6.25 0 6.25 -6.25v-6.25m0 6.25q0 6.25 6.25 6.25q6.25 0 6.25 -6.25m0 -18.75v25.0"/>
      <path d="M467.5 550.0v-25.0m0 -12.5v-6.25"/>
      <path d="M490.0 550.0h18.75q6.25 0 6.25 -6.25q0 -6.25 -6.25 -6.25h-12.5q-6.25 0 -6.25 -6.25q0 -6.25 6.25 -6.25h18.75"/>
      <path d="M525.0 500.0v50m0 -12.5q0 -12.5 12.5 -12.5q12.5 0 12.5 12.5v12.5"/>
      <path d="M560.0 537.5h25.0q0 -12.5 -12.5 -12.5q-12.5 0 -12.5 12.5q0 12.5 12.5 12.5h12.5"/>
      <path d="M595.0 550.0h18.75q6.25 0 6.25 -6.25q0 -6.25 -6.25 -6.25h-12.5q-6.25 0 -6.25 -6.25q0 -6.25 6.25 -6.25h18.75"/>
      <path d="M642.5 550.0v-6.25"/>
      <path d="M700.0 550.0l12.5 -50l12.5 50M706.25 525.0h12.5"/>
      <path d="M735.0 550.0h18.75q6.25 0 6.25 -6.25q0 -6.25 -6.25 -6.25h-12.5q-6.25 0 -6.25 -6.25q0 -6.25 6.25 -6.25h18.75"/>
      <path d="M830.0 537.5q0 12.5 -12.5 12.5q-12.5 0 -12.5 -12.5q0 -12.5 12.5 -12.5q12.5 0 12.5 12.5m0 12.5v-18.75q0 -12.5 -12.5 -12.5h-6.25"/>
      <path d="M840.0 550.0v-25.0m0 12.5q0 -12.5 12.5 -12.5q12.5 0 12.5 12.5v12.5"/>
      <path d="M922.5 550.0v-25.0m0 -12.5v-6.25"/>
      <path d="M945.0 550.0v-25.0m0 12.5q0 -12.5 12.5 -12.5q12.5 0 12.5 12.5v12.5"/>
      <path d="M980.0 550.0h18.75q6.25 0 6.25 -6.25q0 -6.25 -6.25 -6.25h-12.5q-6.25 0 -6.25 -6.25q0 -6.25 6.25 -6.25h18.75"/>
      <path d="M1027.5 550.0v-37.5m-12.5 12.5h25.0"/>
      <path d="M1075.0 537.5q0 12.5 -12.5 12.5q-12.5 0 -12.5 -12.5q0 -12.5 12.5 -12.5q12.5 0 12.5 12.5m0 12.5v-18.75q0 -12.5 -12.5 -12.5h-6.25"/>
      <path d="M1085.0 550.0v-25.0m0 12.5q0 -12.5 12.5 -12.5q12.5 0 12.5 12.5v12.5"/>
      <path d="M1145.0 550.0h-12.5q-12.5 0 -12.5 -12.5q0 -12.5 12.5 -12.5h12.5"/>
      <path d="M1155.0 537.5h25.0q0 -12.5 -12.5 -12.5q-12.5 0 -12.5 12.5q0 12.5 12.5 12.5h12.5"/>
      <path d="M1196.25 550.0q6.25 0 6.25 -6.25v-6.25"/>
      <path d="M1260.0 550.0h25.0m-12.5 0v-50m-12.5 0h25.0"/>
      <path d="M1330.0 550.0v-25.0m0 12.5q0 -12.5 12.5 -12.5q12.5 0 12.5 12.5"/>
      <path d="M1365.0 537.5h25.0q0 -12.5 -12.5 -12.5q-12.5 0 -12.5 12.5q0 12.5 12.5 12.5h12.5"/>
      <path d="M1400.0 550.0v-25.0m0 6.25q0 -6.25 6.25 -6.25q6.25 0 6.25 6.25v6.25m0 -6.25q0 -6.25 6.25 -6.25q6.25 0 6.25 6.25v18.75"/>
      <path d="M1435.0 537.5h25.0q0 -12.5 -12.5 -12.5q-12.5 0 -12.5 12.5q0 12.5 12.5 12.5h12.5"/>
      <path d="M1470.0 550.0v-25.0m0 6.25q0 -6.25 6.25 -6.25q6.25 0 6.25 6.25v6.25m0 -6.25q0 -6.25 6.25 -6.25q6.25 0 6.25 6.25v18.75"/>
      <path d="M1505.0 550.0v-50M1505.0 537.5q0 -12.5 12.5 -12.5q12.5 0 12.5 12.5q0 12.5 -12.5 12.5q-12.5 0 -12.5 -12.5"/>
      <path d="M1540.0 537.5h25.0q0 -12.5 -12.5 -12.5q-12.5 0 -12.5 12.5q0 12.5 12.5 12.5h12.5"/>
      <path d="M1575.0 550.0v-25.0m0 12.5q0 -12.5 12.5 -12.5q12.5 0 12.5 12.5"/>
      <path d="M1645.0 550.0v-50l12.5 50l12.5 -50v50"/>
      <path d="M1680.0 550.0v-25.0m0 12.5q0 -12.5 12.5 -12.5q12.5 0 12.5 12.5"/>
      <path d="M1727.5 550.0v-6.25"/>
      <path d="M1810.0 550.0h-25.0v-50h25.0m-25.0 25.0h12.5"/>
      <path d="M1845.0 537.5q0 12.5 -12.5 12.5q-12.5 0 -12.5 -12.5q0 -12.5 12.5 -12.5q12.5 0 12.5 12.5m0 12.5v-18.75q0 -12.5 -12.5 -12.5h-6.25"/>
      <path d="M1855.0 550.0v-25.0m0 12.5q0 -12.5 12.5 -12.5q12.5 0 12.5 12.5"/>
      <path d="M1890.0 550.0v-25.0m0 12.5q0 -12.5 12.5 -12.5q12.5 0 12.5 12.5v12.5"/>
      <path d="M1925.0 550.0h18.75q6.25 0 6.25 -6.25q0 -6.25 -6.25 -6.25h-12.5q-6.25 0 -6.25 -6.25q0 -6.25 6.25 -6.25h18.75"/>
      <path d="M1960.0 500.0v50m0 -12.5q0 -12.5 12.5 -12.5q12.5 0 12.5 12.5v12.5"/>
      <path d="M2020.0 537.5q0 12.5 -12.5 12.5q-12.5 0 -12.5 -12.5q0 -12.5 12.5 -12.5q12.5 0 12.5 12.5m0 12.5v-18.75q0 -12.5 -12.5 -12.5h-6.25"/>
      <path d="M2030.0 525.0v18.75q0 6.25 6.25 6.25q6.25 0 6.25 -6.25v-6.25m0 6.25q0 6.25 6.25 6.25q6.25 0 6.25 -6.25m0 -18.75v25.0"/>
      <path d="M2112.5 550.0q-12.5 0 -12.5 -12.5q0 -12.5 12.5 -12.5q12.5 0 12.5 12.5q0 12.5 -12.5 12.5"/>
      <path d="M2135.0 550.0v-25.0m0 12.5q0 -12.5 12.5 -12.5q12.5 0 12.5 12.5v12.5"/>
      <path d="M2195.0 550.0h-12.5q-12.5 0 -12.5 -12.5q0 -12.5 12.5 -12.5h12.5"/>
      <path d="M2205.0 537.5h25.0q0 -12.5 -12.5 -12.5q-12.5 0 -12.5 12.5q0 12.5 12.5 12.5h12.5"/>
      <path d="M2275.0 550.0v-50M2275.0 537.5q0 -12.5 12.5 -12.5q12.5 0 12.5 12.5q0 12.5 -12.5 12.5q-12.5 0 -12.5 -12.5"/>
      <path d="M2322.5 550.0q-12.5 0 -12.5 -12.5q0 -12.5 12.5 -12.5q12.5 0 12.5 12.5q0 12.5 -12.5 12.5"/>
      <path d="M2345.0 525.0v12.5q0 12.5 12.5 12.5q12.5 0 12.5 -12.5m0 12.5v-25.0"/>
      <path d="M2405.0 537.5q0 -12.5 -12.5 -12.5q-12.5 0 -12.5 12.5q0 12.5 12.5 12.5q12.5 0 12.5 -12.5m0 -12.5v25.0q0 12.5 -12.5 12.5h-12.5"/>
      <path d="M2415.0 500.0v50m0 -12.5q0 -12.5 12.5 -12.5q12.5 0 12.5 12.5v12.5"/>
      <path d="M2462.5 550.0v-37.5m-12.5 12.5h25.0"/>
      <path d="M25.0 606.25q0 12.5 -12.5 12.5q-12.5 0 -12.5 -12.5q0 -12.5 12.5 -12.5q12.5 0 12.5 12.5m0 12.5v-18.75q0 -12.5 -12.5 -12.5h-6.25"/>
      <path d="M95.0 618.75h-12.5q-12.5 0 -12.5 -12.5q0 -12.5 12.5 -12.5h12.5"/>
      <path d="M117.5 618.75q-12.5 0 -12.5 -12.5q0 -12.5 12.5 -12.5q12.5 0 12.5 12.5q0 12.5 -12.5 12.5"/>
      <path d="M140.0 593.75v12.5q0 12.5 12.5 12.5q12.5 0 12.5 -12.5m0 12.5v-25.0"/>
      <path d="M175.0 606.25q0 -12.5 12.5 -12.5q12.5 0 12.5 12.5q0 12.5 -12.5 12.5q-12.5 0 -12.5 -12.5m0 -12.5v37.5"/>
      <path d="M222.5 618.75v-50"/>
      <path d="M245.0 606.25h25.0q0 -12.5 -12.5 -12.5q-12.5 0 -12.5 12.5q0 12.5 12.5 12.5h12.5"/>
      <path d="M327.5 618.75q-12.5 0 -12.5 -12.5q0 -12.5 12.5 -12.5q12.5 0 12.5 12.5q0 12.5 -12.5 12.5"/>
      <path d="M362.5 618.75v-37.5q0 -12.5 12.5 -12.5m-25.0 25.0h25.0"/>
      <path d="M445.0 618.75h-12.5q-12.5 0 -12.5 -12.5q0 -12.5 12.5 -12.5h12.5"/>
      <path d="M467.5 618.75q-12.5 0 -12.5 -12.5q0 -12.5 12.5 -12.5q12.5 0 12.5 12.5q0 12.5 -12.5 12.5"/>
      <path d="M502.5 618.75v-50"/>
      <path d="M537.5 618.75v-37.5m-12.5 12.5h25.0"/>
      <path d="M560.0 618.75h18.75q6.25 0 6.25 -6.25q0 -6.25 -6.25 -6.25h-12.5q-6.25 0 -6.25 -6.25q0 -6.25 6.25 -6.25h18.75"/>
      <path d="M655.0 606.25q0 12.5 -12.5 12.5q-12.5 0 -12.5 -12.5q0 -12.5 12.5 -12.5q12.5 0 12.5 12.5m0 12.5v-18.75q0 -12.5 -12.5 -12.5h-6.25"/>
      <path d="M677.5 618.75v-37.5m-12.5 12.5h25.0"/>
      <path d="M747.5 618.75v-37.5m-12.5 12.5h25.0"/>
      <path d="M770.0 568.75v50m0 -12.5q0 -12.5 12.5 -12.5q12.5 0 12.5 12.5v12.5"/>
      <path d="M805.0 606.25h25.0q0 -12.5 -12.5 -12.5q-12.5 0 -12.5 12.5q0 12.5 12.5 12.5h12.5"/>
      <path d="M875.0 606.25q0 -12.5 12.5 -12.5q12.5 0 12.5 12.5q0 12.5 -12.5 12.5q-12.5 0 -12.5 -12.5m0 -12.5v37.5"/>
      <path d="M935.0 606.25q0 12.5 -12.5 12.5q-12.5 0 -12.5 -12.5q0 -12.5 12.5 -12.5q12.5 0 12.5 12.5m0 12.5v-18.75q0 -12.5 -12.5 -12.5h-6.25"/>
      <path d="M945.0 618.75v-25.0m0 12.5q0 -12.5 12.5 -12.5q12.5 0 12.5 12.5"/>
      <path d="M992.5 618.75v-25.0m0 -12.5v-6.25"/>
      <path d="M1015.0 618.75h18.75q6.25 0 6.25 -6.25q0 -6.25 -6.25 -6.25h-12.5q-6.25 0 -6.25 -6.25q0 -6.25 6.25 -6.25h18.75"/>
      <path d="M1050.0 568.75v50m0 -12.5q0 -12.5 12.5 -12.5q12.5 0 12.5 12.5v12.5"/>
      <path d="M1132.5 618.75v-37.5q0 -12.5 12.5 -12.5m-25.0 25.0h25.0"/>
      <path d="M1180.0 606.25q0 12.5 -12.5 12.5q-12.5 0 -12.5 -12.5q0 -12.5 12.5 -12.5q12.5 0 12.5 12.5m0 12.5v-18.75q0 -12.5 -12.5 -12.5h-6.25"/>
      <path d="M1202.5 618.75v-25.0m0 -12.5v-6.25"/>
      <path d="M1225.0 618.75v-25.0m0 12.5q0 -12.5 12.5 -12.5q12.5 0 12.5 12.5"/>
      <path d="M1266.25 618.75q6.25 0 6.25 -6.25v-6.25"/>
      <path d="M1355.0 606.25q0 12.5 -12.5 12.5q-12.5 0 -12.5 -12.5q0 -12.5 12.5 -12.5q12.5 0 12.5 12.5m0 12.5v-18.75q0 -12.5 -12.5 -12.5h-6.25"/>
      <path d="M1365.0 618.75v-25.0m0 12.5q0 -12.5 12.5 -12.5q12.5 0 12.5 12.5v12.5"/>
      <path d="M1425.0 618.75v-50M1425.0 606.25q0 -12.5 -12.5 -12.5q-12.5 0 -12.5 12.5q0 12.5 12.5 12.5q12.5 0 12.5 -12.5"/>
      <path d="M1495.0 606.25q0 -12.5 -12.5 -12.5q-12.5 0 -12.5 12.5q0 12.5 12.5 12.5q12.5 0 12.5 -12.5m0 -12.5v25.0q0 12.5 -12.5 12.5h-12.5"/>
      <path d="M1530.0 606.25q0 12.5 -12.5 12.5q-12.5 0 -12.5 -12.5q0 -12.5 12.5 -12.5q12.5 0 12.5 12.5m0 12.5v-18.75q0 -12.5 -12.5 -12.5h-6.25"/>
      <path d="M1540.0 593.75l12.5 25.0l12.5 -25.0"/>
      <path d="M1575.0 606.25h25.0q0 -12.5 -12.5 -12.5q-12.5 0 -12.5 12.5q0 12.5 12.5 12.5h12.5"/>
      <path d="M1657.5 618.75v-37.5m-12.5 12.5h25.0"/>
      <path d="M1680.0 568.75v50m0 -12.5q0 -12.5 12.5 -12.5q12.5 0 12.5 12.5v12.5"/>
      <path d="M1715.0 606.25h25.0q0 -12.5 -12.5 -12.5q-12.5 0 -12.5 12.5q0 12.5 12.5 12.5h12.5"/>
      <path d="M1797.5 618.75v-50"/>
      <path d="M1845.0 606.25q0 12.5 -12.5 12.5q-12.5 0 -12.5 -12.5q0 -12.5 12.5 -12.5q12.5 0 12.5 12.5m0 12.5v-18.75q0 -12.5 -12.5 -12.5h-6.25"/>
      <path d="M1880.0 618.75v-50M1880.0 606.25q0 -12.5 -12.5 -12.5q-12.5 0 -12.5 12.5q0 12.5 12.5 12.5q12.5 0 12.5 -12.5"/>
      <path d="M1890.0 618.75h18.75q6.25 0 6.25 -6.25q0 -6.25 -6.25 -6.25h-12.5q-6.25 0 -6.25 -6.25q0 -6.25 6.25 -6.25h18.75"/>
      <path d="M1960.0 606.25h25.0q0 -12.5 -12.5 -12.5q-12.5 0 -12.5 12.5q0 12.5 12.5 12.5h12.5"/>
      <path d="M2020.0 606.25q0 12.5 -12.5 12.5q-12.5 0 -12.5 -12.5q0 -12.5 12.5 -12.5q12.5 0 12.5 12.5m0 12.5v-18.75q0 -12.5 -12.5 -12.5h-6.25"/>
      <path d="M2055.0 618.75h-12.5q-12.5 0 -12.5 -12.5q0 -12.5 12.5 -12.5h12.5"/>
      <path d="M2065.0 568.75v50m0 -12.5q0 -12.5 12.5 -12.5q12.5 0 12.5 12.5v12.5"/>
      <path d="M2147.5 618.75q-12.5 0 -12.5 -12.5q0 -12.5 12.5 -12.5q12.5 0 12.5 12.5q0 12.5 -12.5 12.5"/>
      <path d="M2170.0 618.75v-25.0m0 12.5q0 -12.5 12.5 -12.5q12.5 0 12.5 12.5v12.5"/>
      <path d="M2205.0 606.25h25.0q0 -12.5 -12.5 -12.5q-12.5 0 -12.5 12.5q0 12.5 12.5 12.5h12.5"/>
      <path d="M2252.5 618.75v-6.25"/>
      <path d="M0 687.5v-50m25.0 0v50m0 -25.0h-25.0"/>
      <path d="M35.0 675.0h25.0q0 -12.5 -12.5 -12.5q-12.5 0 -12.5 12.5q0 12.5 12.5 12.5h12.5"/>
      <path d="M95.0 675.0q0 12.5 -12.5 12.5q-12.5 0 -12.5 -12.5q0 -12.5 12.5 -12.5q12.5 0 12.5 12.5m0 12.5v-18.75q0 -12.5 -12.5 -12.5h-6.25"/>
      <path d="M117.5 687.5v-37.5m-12.5 12.5h25.0"/>
      <path d="M140.0 637.5v50m0 -12.5q0 -12.5 12.5 -12.5q12.5 0 12.5 12.5v12.5"/>
      <path d="M200.0 687.5h-12.5q-12.5 0 -12.5 -12.5q0 -12.5 12.5 -12.5h12.5"/>
      <path d="M222.5 687.5v-50"/>
      <path d="M257.5 687.5v-25.0m0 -12.5v-6.25"/>
      <path d="M292.5 687.5v-37.5q0 -12.5 12.5 -12.5m-25.0 25.0h25.0"/>
      <path d="M327.5 687.5v-37.5q0 -12.5 12.5 -12.5m-25.0 25.0h25.0"/>
      <path d="M397.5 687.5v-37.5m-12.5 12.5h25.0"/>
      <path d="M432.5 687.5q-12.5 0 -12.5 -12.5q0 -12.5 12.5 -12.5q12.5 0 12.5 12.5q0 12.5 -12.5 12.5"/>
      <path d="M467.5 687.5q-12.5 0 -12.5 -12.5q0 -12.5 12.5 -12.5q12.5 0 12.5 12.5q0 12.5 -12.5 12.5"/>
      <path d="M490.0 637.5v50m25.0 -25.0l-25.0 12.5l25.0 12.5"/>
      <path d="M572.5 687.5v-37.5m-12.5 12.5h25.0"/>
      <path d="M595.0 637.5v50m0 -12.5q0 -12.5 12.5 -12.5q12.5 0 12.5 12.5v12.5"/>
      <path d="M630.0 675.0h25.0q0 -12.5 -12.5 -12.5q-12.5 0 -12.5 12.5q0 12.5 12.5 12.5h12.5"/>
      <path d="M700.0 637.5v50m0 -12.5q0 -12.5 12.5 -12.5q12.5 0 12.5 12.5v12.5"/>
      <path d="M760.0 675.0q0 12.5 -12.5 12.5q-12.5 0 -12.5 -12.5q0 -12.5 12.5 -12.5q12.5 0 12.5 12.5m0 12.5v-18.75q0 -12.5 -12.5 -12.5h-6.25"/>
      <path d="M770.0 687.5v-25.0m0 12.5q0 -12.5 12.5 -12.5q12.5 0 12.5 12.5v12.5"/>
      <path d="M830.0 687.5v-50M830.0 675.0q0 -12.5 -12.5 -12.5q-12.5 0 -12.5 12.5q0 12.5 12.5 12.5q12.5 0 12.5 -12.5"/>
      <path d="M840.0 687.5h18.75q6.25 0 6.25 -6.25q0 -6.25 -6.25 -6.25h-12.5q-6.25 0 -6.25 -6.25q0 -6.25 6.25 -6.25h18.75"/>
      <path d="M887.5 687.5q-12.5 0 -12.5 -12.5q0 -12.5 12.5 -12.5q12.5 0 12.5 12.5q0 12.5 -12.5 12.5"/>
      <path d="M910.0 687.5v-25.0m0 6.25q0 -6.25 6.25 -6.25q6.25 0 6.25 6.25v6.25m0 -6.25q0 -6.25 6.25 -6.25q6.25 0 6.25 6.25v18.75"/>
      <path d="M945.0 675.0h25.0q0 -12.5 -12.5 -12.5q-12.5 0 -12.5 12.5q0 12.5 12.5 12.5h12.5"/>
      <path d="M980.0 687.5h18.75q6.25 0 6.25 -6.25q0 -6.25 -6.25 -6.25h-12.5q-6.25 0 -6.25 -6.25q0 -6.25 6.25 -6.25h18.75"/>
      <path d="M1027.5 687.5v-37.5m-12.5 12.5h25.0"/>
      <path d="M1056.25 687.5q6.25 0 6.25 -6.25v-6.25"/>
      <path d="M1120.0 687.5v-50M1120.0 675.0q0 -12.5 12.5 -12.5q12.5 0 12.5 12.5q0 12.5 -12.5 12.5q-12.5 0 -12.5 -12.5"/>
      <path d="M1155.0 662.5v12.5q0 12.5 12.5 12.5q12.5 0 12.5 -12.5m0 12.5v-25.0"/>
      <path d="M1202.5 687.5v-37.5m-12.5 12.5h25.0"/>
      <path d="M1272.5 687.5v-25.0m0 -12.5v-6.25"/>
      <path d="M1307.5 687.5v-37.5m-12.5 12.5h25.0"/>
      <path d="M1365.0 687.5h18.75q6.25 0 6.25 -6.25q0 -6.25 -6.25 -6.25h-12.5q-6.25 0 -6.25 -6.25q0 -6.25 6.25 -6.25h18.75"/>
      <path d="M1412.5 687.5q-12.5 0 -12.5 -12.5q0 -12.5 12.5 -12.5q12.5 0 12.5 12.5q0 12.5 -12.5 12.5"/>
      <path d="M1447.5 687.5q-12.5 0 -12.5 -12.5q0 -12.5 12.5 -12.5q12.5 0 12.5 12.5q0 12.5 -12.5 12.5"/>
      <path d="M1470.0 687.5v-25.0m0 12.5q0 -12.5 12.5 -12.5q12.5 0 12.5 12.5v12.5"/>
      <path d="M1552.5 687.5v-37.5q0 -12.5 12.5 -12.5m-25.0 25.0h25.0"/>
      <path d="M1575.0 675.0h25.0q0 -12.5 -12.5 -12.5q-12.5 0 -12.5 12.5q0 12.5 12.5 12.5h12.5"/>
      <path d="M1622.5 687.5v-50"/>
      <path d="M1657.5 687.5v-50"/>
      <path d="M1727.5 687.5v-50"/>
      <path d="M1775.0 675.0q0 12.5 -12.5 12.5q-12.5 0 -12.5 -12.5q0 -12.5 12.5 -12.5q12.5 0 12.5 12.5m0 12.5v-18.75q0 -12.5 -12.5 -12.5h-6.25"/>
      <path d="M1785.0 687.5v-25.0m0 6.25q0 -6.25 6.25 -6.25q6.25 0 6.25 6.25v6.25m0 -6.25q0 -6.25 6.25 -6.25q6.25 0 6.25 6.25v18.75"/>
      <path d="M1820.0 675.0h25.0q0 -12.5 -12.5 -12.5q-12.5 0 -12.5 12.5q0 12.5 12.5 12.5h12.5"/>
      <path d="M1861.25 687.5q6.25 0 6.25 -6.25v-6.25"/>
      <path d="M1950.0 675.0q0 12.5 -12.5 12.5q-12.5 0 -12.5 -12.5q0 -12.5 12.5 -12.5q12.5 0 12.5 12.5m0 12.5v-18.75q0 -12.5 -12.5 -12.5h-6.25"/>
      <path d="M1960.0 687.5v-25.0m0 12.5q0 -12.5 12.5 -12.5q12.5 0 12.5 12.5v12.5"/>
      <path d="M2020.0 687.5v-50M2020.0 675.0q0 -12.5 -12.5 -12.5q-12.5 0 -12.5 12.5q0 12.5 12.5 12.5q12.5 0 12.5 -12.5"/>
      <path d="M2065.0 662.5v18.75q0 6.25 6.25 6.25q6.25 0 6.25 -6.25v-6.25m0 6.25q0 6.25 6.25 6.25q6.25 0 6.25 -6.25m0 -18.75v25.0"/>
      <path d="M2100.0 637.5v50m0 -12.5q0 -12.5 12.5 -12.5q12.5 0 12.5 12.5v12.5"/>
      <path d="M2135.0 675.0h25.0q0 -12.5 -12.5 -12.5q-12.5 0 -12.5 12.5q0 12.5 12.5 12.5h12.5"/>
      <path d="M2170.0 687.5v-25.0m0 12.5q0 -12.5 12.5 -12.5q12.5 0 12.5 12.5v12.5"/>
      <path d="M2240.0 637.5v50m0 -12.5q0 -12.5 12.5 -12.5q12.5 0 12.5 12.5v12.5"/>
      <path d="M2275.0 675.0h25.0q0 -12.5 -12.5 -12.5q-12.5 0 -12.5 12.5q0 12.5 12.5 12.5h12.5"/>
      <path d="M25.0 756.25v-50M25.0 743.75q0 -12.5 -12.5 -12.5q-12.5 0 -12.5 12.5q0 12.5 12.5 12.5q12.5 0 12.5 -12.5"/>
      <path d="M47.5 756.25v-25.0m0 -12.5v-6.25"/>
      <path d="M70.0 756.25h18.75q6.25 0 6.25 -6.25q0 -6.25 -6.25 -6.25h-12.5q-6.25 0 -6.25 -6.25q0 -6.25 6.25 -6.25h18.75"/>
      <path d="M130.0 756.25h-12.5q-12.5 0 -12.5 -12.5q0 -12.5 12.5 -12.5h12.5"/>
      <path d="M152.5 756.25q-12.5 0 -12.5 -12.5q0 -12.5 12.5 -12.5q12.5 0 12.5 12.5q0 12.5 -12.5 12.5"/>
      <path d="M175.0 731.25l12.5 25.0l12.5 -25.0"/>
      <path d="M210.0 743.75h25.0q0 -12.5 -12.5 -12.5q-12.5 0 -12.5 12.5q0 12.5 12.5 12.5h12.5"/>
      <path d="M245.0 756.25v-25.0m0 12.5q0 -12.5 12.5 -12.5q12.5 0 12.5 12.5"/>
      <path d="M280.0 743.75h25.0q0 -12.5 -12.5 -12.5q-12.5 0 -12.5 12.5q0 12.5 12.5 12.5h12.5"/>
      <path d="M340.0 756.25v-50M340.0 743.75q0 -12.5 -12.5 -12.5q-12.5 0 -12.5 12.5q0 12.5 12.5 12.5q12.5 0 12.5 -12.5"/>
      <path d="M397.5 756.25v-25.0m0 -12.5v-6.25"/>
      <path d="M432.5 756.25v-37.5m-12.5 12.5h25.0"/>
      <path d="M461.25 756.25q6.25 0 6.25 -6.25v-6.25"/>
      <path d="M525.0 706.25v50m0 -12.5q0 -12.5 12.5 -12.5q12.5 0 12.5 12.5v12.5"/>
      <path d="M560.0 743.75h25.0q0 -12.5 -12.5 -12.5q-12.5 0 -12.5 12.5q0 12.5 12.5 12.5h12.5"/>
      <path d="M630.0 756.25h18.75q6.25 0 6.25 -6.25q0 -6.25 -6.25 -6.25h-12.5q-6.25 0 -6.25 -6.25q0 -6.25 6.25 -6.25h18.75"/>
      <path d="M690.0 743.75q0 12.5 -12.5 12.5q-12.5 0 -12.5 -12.5q0 -12.5 12.5 -12.5q12.5 0 12.5 12.5m0 12.5v-18.75q0 -12.5 -12.5 -12.5h-6.25"/>
      <path d="M712.5 756.25v-25.0m0 -12.5v-6.25"/>
      <path d="M760.0 756.25v-50M760.0 743.75q0 -12.5 -12.5 -12.5q-12.5 0 -12.5 12.5q0 12.5 12.5 12.5q12.5 0 12.5 -12.5"/>
      <path d="M817.5 756.25v-37.5m-12.5 12.5h25.0"/>
      <path d="M852.5 756.25q-12.5 0 -12.5 -12.5q0 -12.5 12.5 -12.5q12.5 0 12.5 12.5q0 12.5 -12.5 12.5"/>
      <path d="M910.0 756.25v-50m25.0 0v50m0 -25.0h-25.0"/>
      <path d="M957.5 756.25v-25.0m0 -12.5v-6.25"/>
      <path d="M980.0 756.25v-25.0m0 12.5q0 -12.5 12.5 -12.5q12.5 0 12.5 12.5v12.5"/>
      <path d="M1040.0 756.25v-50M1040.0 743.75q0 -12.5 -12.5 -12.5q-12.5 0 -12.5 12.5q0 12.5 12.5 12.5q12.5 0 12.5 -12.5"/>
      <path d="M1062.5 756.25v-50"/>
      <path d="M1085.0 743.75h25.0q0 -12.5 -12.5 -12.5q-12.5 0 -12.5 12.5q0 12.5 12.5 12.5h12.5"/>
      <path d="M1120.0 731.25l12.5 25.0m12.5 -25.0l-18.75 37.5"/>
      <path d="M1155.0 731.25h25.0"/>
      <path d="M9.375 781.25v6.25m6.25 0v-6.25"/>
      <path d="M35.0 775.0l12.5 25.0l12.5 -25.0m-12.5 25.0v25.0"/>
      <path d="M82.5 825.0q-12.5 0 -12.5 -12.5q0 -12.5 12.5 -12.5q12.5 0 12.5 12.5q0 12.5 -12.5 12.5"/>
      <path d="M105.0 800.0v12.5q0 12.5 12.5 12.5q12.5 0 12.5 -12.5m0 12.5v-25.0"/>
      <path d="M175.0 825.0v-25.0m0 6.25q0 -6.25 6.25 -6.25q6.25 0 6.25 6.25v6.25m0 -6.25q0 -6.25 6.25 -6.25q6.25 0 6.25 6.25v18.75"/>
      <path d="M210.0 800.0v12.5q0 12.5 12.5 12.5q12.5 0 12.5 -12.5m0 12.5v-25.0"/>
      <path d="M245.0 825.0h18.75q6.25 0 6.25 -6.25q0 -6.25 -6.25 -6.25h-12.5q-6.25 0 -6.25 -6.25q0 -6.25 6.25 -6.25h18.75"/>
      <path d="M292.5 825.0v-37.5m-12.5 12.5h25.0"/>
      <path d="M350.0 812.5h25.0q0 -12.5 -12.5 -12.5q-12.5 0 -12.5 12.5q0 12.5 12.5 12.5h12.5"/>
      <path d="M385.0 800.0l25.0 25.0m0 -25.0l-25.0 25.0"/>
      <path d="M445.0 825.0h-12.5q-12.5 0 -12.5 -12.5q0 -12.5 12.5 -12.5h12.5"/>
      <path d="M455.0 775.0v50m0 -12.5q0 -12.5 12.5 -12.5q12.5 0 12.5 12.5v12.5"/>
      <path d="M515.0 812.5q0 12.5 -12.5 12.5q-12.5 0 -12.5 -12.5q0 -12.5 12.5 -12.5q12.5 0 12.5 12.5m0 12.5v-18.75q0 -12.5 -12.5 -12.5h-6.25"/>
      <path d="M525.0 825.0v-25.0m0 12.5q0 -12.5 12.5 -12.5q12.5 0 12.5 12.5v12.5"/>
      <path d="M585.0 812.5q0 -12.5 -12.5 -12.5q-12.5 0 -12.5 12.5q0 12.5 12.5 12.5q12.5 0 12.5 -12.5m0 -12.5v25.0q0 12.5 -12.5 12.5h-12.5"/>
      <path d="M595.0 812.5h25.0q0 -12.5 -12.5 -12.5q-12.5 0 -12.5 12.5q0 12.5 12.5 12.5h12.5"/>
      <path d="M665.0 775.0v50m0 -12.5q0 -12.5 12.5 -12.5q12.5 0 12.5 12.5v12.5"/>
      <path d="M712.5 825.0q-12.5 0 -12.5 -12.5q0 -12.5 12.5 -12.5q12.5 0 12.5 12.5q0 12.5 -12.5 12.5"/>
      <path d="M735.0 825.0v-25.0m0 12.5q0 -12.5 12.5 -12.5q12.5 0 12.5 12.5"/>
      <path d="M770.0 825.0h18.75q6.25 0 6.25 -6.25q0 -6.25 -6.25 -6.25h-12.5q-6.25 0 -6.25 -6.25q0 -6.25 6.25 -6.25h18.75"/>
      <path d="M805.0 812.5h25.0q0 -12.5 -12.5 -12.5q-12.5 0 -12.5 12.5q0 12.5 12.5 12.5h12.5"/>
      <path d="M840.0 825.0h18.75q6.25 0 6.25 -6.25q0 -6.25 -6.25 -6.25h-12.5q-6.25 0 -6.25 -6.25q0 -6.25 6.25 -6.25h18.75"/>
      <path d="M910.0 800.0v18.75q0 6.25 6.25 6.25q6.25 0 6.25 -6.25v-6.25m0 6.25q0 6.25 6.25 6.25q6.25 0 6.25 -6.25m0 -18.75v25.0"/>
      <path d="M957.5 825.0v-25.0m0 -12.5v-6.25"/>
      <path d="M992.5 825.0v-37.5m-12.5 12.5h25.0"/>
      <path d="M1015.0 775.0v50m0 -12.5q0 -12.5 12.5 -12.5q12.5 0 12.5 12.5v12.5"/>
      <path d="M1085.0 825.0v-25.0m0 6.25q0 -6.25 6.25 -6.25q6.25 0 6.25 6.25v6.25m0 -6.25q0 -6.25 6.25 -6.25q6.25 0 6.25 6.25v18.75"/>
      <path d="M1120.0 812.5h25.0q0 -12.5 -12.5 -12.5q-12.5 0 -12.5 12.5q0 12.5 12.5 12.5h12.5"/>
      <path d="M1167.5 812.5v-6.25m0 -12.5v-6.25"/>
      <path d="M1225.0 825.0h25.0m-12.5 0v-50m-12.5 0h25.0"/>
      <path d="M1320.0 825.0v-50M1320.0 812.5q0 -12.5 -12.5 -12.5q-12.5 0 -12.5 12.5q0 12.5 12.5 12.5q12.5 0 12.5 -12.5"/>
      <path d="M1342.5 825.0q-12.5 0 -12.5 -12.5q0 -12.5 12.5 -12.5q12.5 0 12.5 12.5q0 12.5 -12.5 12.5"/>
      <path d="M1365.0 825.0v-25.0m0 12.5q0 -12.5 12.5 -12.5q12.5 0 12.5 12.5v12.5"/>
      <path d="M1412.5 781.25v6.25"/>
      <path d="M1447.5 825.0v-37.5m-12.5 12.5h25.0"/>
      <path d="M1517.5 825.0v-50"/>
      <path d="M1552.5 825.0v-25.0m0 -12.5v-6.25"/>
      <path d="M1575.0 775.0v50m25.0 -25.0l-25.0 12.5l25.0 12.5"/>
      <path d="M1610.0 812.5h25.0q0 -12.5 -12.5 -12.5q-12.5 0 -12.5 12.5q0 12.5 12.5 12.5h12.5"/>
      <path d="M1680.0 825.0v-25.0m0 6.25q0 -6.25 6.25 -6.25q6.25 0 6.25 6.25v6.25m0 -6.25q0 -6.25 6.25 -6.25q6.25 0 6.25 6.25v18.75"/>
      <path d="M1727.5 825.0v-25.0m0 -12.5v-6.25"/>
      <path d="M1750.0 825.0v-25.0m0 12.5q0 -12.5 12.5 -12.5q12.5 0 12.5 12.5v12.5"/>
      <path d="M1785.0 812.5h25.0q0 -12.5 -12.5 -12.5q-12.5 0 -12.5 12.5q0 12.5 12.5 12.5h12.5"/>
      <path d="M1826.25 825.0q6.25 0 6.25 -6.25v-6.25m0 -12.5v-6.25"/>
      <path d="M1915.0 812.5q0 12.5 -12.5 12.5q-12.5 0 -12.5 -12.5q0 -12.5 12.5 -12.5q12.5 0 12.5 12.5m0 12.5v-18.75q0 -12.5 -12.5 -12.5h-6.25"/>
      <path d="M1925.0 825.0v-25.0m0 12.5q0 -12.5 12.5 -12.5q12.5 0 12.5 12.5v12.5"/>
      <path d="M1985.0 825.0v-50M1985.0 812.5q0 -12.5 -12.5 -12.5q-12.5 0 -12.5 12.5q0 12.5 12.5 12.5q12.5 0 12.5 -12.5"/>
      <path d="M2042.5 825.0v-25.0m0 -12.5v-6.25"/>
      <path d="M2077.5 825.0v-37.5q0 -12.5 12.5 -12.5m-25.0 25.0h25.0"/>
      <path d="M2135.0 800.0l12.5 25.0m12.5 -25.0l-18.75 37.5"/>
      <path d="M2182.5 825.0q-12.5 0 -12.5 -12.5q0 -12.5 12.5 -12.5q12.5 0 12.5 12.5q0 12.5 -12.5 12.5"/>
      <path d="M2205.0 800.0v12.5q0 12.5 12.5 12.5q12.5 0 12.5 -12.5m0 12.5v-25.0"/>
      <path d="M2275.0 800.0v18.75q0 6.25 6.25 6.25q6.25 0 6.25 -6.25v-6.25m0 6.25q0 6.25 6.25 6.25q6.25 0 6.25 -6.25m0 -18.75v25.0"/>
      <path d="M2322.5 825.0q-12.5 0 -12.5 -12.5q0 -12.5 12.5 -12.5q12.5 0 12.5 12.5q0 12.5 -12.5 12.5"/>
      <path d="M2345.0 825.0v-25.0m0 12.5q0 -12.5 12.5 -12.5q12.5 0 12.5 12.5v12.5"/>
      <path d="M2392.5 781.25v6.25"/>
      <path d="M2427.5 825.0v-37.5m-12.5 12.5h25.0"/>
      <path d="M2462.5 825.0v-6.25"/>
      <path d="M2497.5 825.0v-6.25"/>
      <path d="M2532.5 825.0v-6.25"/>
    </g>
  </g>
</svg>
