<svg version="1.1" width="1150" height="870" xmlns="http://www.w3.org/2000/svg">
  <!-- Seed: 2382237050817939922 -->
  <!-- Size: SvgSize.Size9x12 -->
  <!-- Params:
    draw_worm: True
    draw_highlight: True
    draw_highlight2: True
    ring_distance: 10
    weight_rings: [(0, 1), (1, 1), (2, 0.5), (3, 0.1), (4, 0.05)]
    weight_border: [(<SpiralWormBorderType.Empty: 0>, 1), (<SpiralWormBorderType.Sunburst: 1>, 0.5), (<SpiralWormBorderType.Circles: 2>, 0.5)]
    h2_size: [RangeInt] min: 25 max: 100
    padding: 100
    spiral_rows: 4
    points_per_ring: 10
    rough_shuffle_range: 20
    fine_shuffle_range: 30
    rough_clamp_distance: 30
    subdivision_range: [RangeInt] min: 3 max: 7
    position_range: [RangeInt] min: 1 max: 50
    position_steps: 10
    ring_range: [RangeInt] min: 1 max: 4
  -->
  <g stroke="black" fill="none">
    <circle cx="548.0" cy="443.0" r="1"/>
    <circle cx="558.0" cy="445.0" r="6.71"/>
    <circle cx="568.0" cy="446.0" r="20.74"/>
    <circle cx="578.0" cy="448.0" r="35.45"/>
    <circle cx="587.0" cy="450.0" r="42.85"/>
    <circle cx="589.0" cy="450.0" r="43"/>
    <circle cx="598.0" cy="452.0" r="41.59"/>
    <circle cx="604.0" cy="453.0" r="37.58"/>
    <circle cx="608.0" cy="453.0" r="31.58"/>
    <circle cx="610.0" cy="454.0" r="24.5"/>
    <circle cx="608.0" cy="454.0" r="17.42"/>
    <circle cx="605.0" cy="453.0" r="11.42"/>
    <circle cx="598.0" cy="452.0" r="7.41"/>
    <circle cx="590.0" cy="451.0" r="6"/>
    <circle cx="572.0" cy="449.0" r="6.88"/>
    <circle cx="558.0" cy="448.0" r="9.0"/>
    <circle cx="550.0" cy="450.0" r="11.12"/>
    <circle cx="546.0" cy="452.0" r="12"/>
    <circle cx="545.0" cy="454.0" r="13.03"/>
    <circle cx="544.0" cy="450.0" r="15.5"/>
    <circle cx="543.0" cy="440.0" r="17.97"/>
    <circle cx="543.0" cy="426.0" r="19"/>
    <circle cx="544.0" cy="411.0" r="19.88"/>
    <circle cx="545.0" cy="401.0" r="22.0"/>
    <circle cx="548.0" cy="395.0" r="24.12"/>
    <circle cx="552.0" cy="395.0" r="25"/>
    <circle cx="558.0" cy="393.0" r="31"/>
    <circle cx="560.0" cy="390.0" r="40.5"/>
    <circle cx="574.0" cy="392.0" r="50"/>
    <circle cx="590.0" cy="394.0" r="31.0"/>
    <circle cx="602.0" cy="393.0" r="12"/>
    <circle cx="609.0" cy="394.0" r="11.25"/>
    <circle cx="618.0" cy="400.0" r="9.75"/>
    <circle cx="628.0" cy="412.0" r="9"/>
    <circle cx="635.0" cy="421.0" r="10.72"/>
    <circle cx="642.0" cy="429.0" r="15.22"/>
    <circle cx="649.0" cy="438.0" r="20.78"/>
    <circle cx="656.0" cy="446.0" r="25.28"/>
    <circle cx="663.0" cy="454.0" r="27"/>
    <circle cx="669.0" cy="462.0" r="24.9"/>
    <circle cx="674.0" cy="472.0" r="19.4"/>
    <circle cx="677.0" cy="482.0" r="12.6"/>
    <circle cx="679.0" cy="493.0" r="7.1"/>
    <circle cx="680.0" cy="504.0" r="5"/>
    <circle cx="679.0" cy="515.0" r="6.05"/>
    <circle cx="677.0" cy="521.0" r="8.8"/>
    <circle cx="674.0" cy="524.0" r="12.2"/>
    <circle cx="670.0" cy="523.0" r="14.95"/>
    <circle cx="666.0" cy="518.0" r="16"/>
    <circle cx="657.0" cy="511.0" r="19.25"/>
    <circle cx="650.0" cy="509.0" r="25.75"/>
    <circle cx="644.0" cy="514.0" r="29"/>
    <circle cx="638.0" cy="524.0" r="25.5"/>
    <circle cx="632.0" cy="534.0" r="18.5"/>
    <circle cx="626.0" cy="546.0" r="15"/>
    <circle cx="619.0" cy="556.0" r="13.5"/>
    <circle cx="611.0" cy="562.0" r="10.5"/>
    <circle cx="603.0" cy="562.0" r="9"/>
    <circle cx="595.0" cy="560.0" r="8.12"/>
    <circle cx="586.0" cy="556.0" r="6.0"/>
    <circle cx="574.0" cy="550.0" r="3.88"/>
    <circle cx="560.0" cy="543.0" r="3"/>
    <circle cx="544.0" cy="534.0" r="4.5"/>
    <circle cx="535.0" cy="529.0" r="7.5"/>
    <circle cx="534.0" cy="528.0" r="9"/>
    <circle cx="532.0" cy="526.0" r="7.5"/>
    <circle cx="517.0" cy="518.0" r="6"/>
    <circle cx="508.0" cy="514.0" r="8.29"/>
    <circle cx="500.0" cy="509.0" r="14.29"/>
    <circle cx="491.0" cy="504.0" r="21.71"/>
    <circle cx="483.0" cy="498.0" r="27.71"/>
    <circle cx="474.0" cy="492.0" r="30"/>
    <circle cx="466.0" cy="484.0" r="27.51"/>
    <circle cx="462.0" cy="476.0" r="21.5"/>
    <circle cx="461.0" cy="469.0" r="15.49"/>
    <circle cx="465.0" cy="462.0" r="13"/>
    <circle cx="472.0" cy="452.0" r="13.0"/>
    <circle cx="479.0" cy="442.0" r="13.0"/>
    <circle cx="486.0" cy="431.0" r="13"/>
    <circle cx="490.0" cy="422.0" r="14.75"/>
    <circle cx="488.0" cy="417.0" r="18.25"/>
    <circle cx="480.0" cy="414.0" r="20"/>
    <circle cx="475.0" cy="413.0" r="23.66"/>
    <circle cx="474.0" cy="410.0" r="32.5"/>
    <circle cx="477.0" cy="404.0" r="41.34"/>
    <circle cx="484.0" cy="396.0" r="45"/>
    <circle cx="493.0" cy="388.0" r="43.39"/>
    <circle cx="497.0" cy="380.0" r="39.5"/>
    <circle cx="499.0" cy="372.0" r="35.61"/>
    <circle cx="496.0" cy="366.0" r="34"/>
    <circle cx="495.0" cy="360.0" r="35.46"/>
    <circle cx="498.0" cy="355.0" r="39.0"/>
    <circle cx="504.0" cy="352.0" r="42.54"/>
    <circle cx="516.0" cy="351.0" r="44"/>
    <circle cx="524.0" cy="350.0" r="43.4"/>
    <circle cx="531.0" cy="346.0" r="41.75"/>
    <circle cx="536.0" cy="340.0" r="39.5"/>
    <circle cx="541.0" cy="333.0" r="37.25"/>
    <circle cx="544.0" cy="323.0" r="35.6"/>
    <circle cx="546.0" cy="311.0" r="35"/>
    <circle cx="549.0" cy="298.0" r="34.14"/>
    <circle cx="551.0" cy="288.0" r="31.89"/>
    <circle cx="554.0" cy="283.0" r="29.11"/>
    <circle cx="558.0" cy="283.0" r="26.86"/>
    <circle cx="562.0" cy="286.0" r="26"/>
    <circle cx="571.0" cy="295.0" r="25.75"/>
    <circle cx="581.0" cy="300.0" r="25.25"/>
    <circle cx="592.0" cy="302.0" r="25"/>
    <circle cx="609.0" cy="304.0" r="29.5"/>
    <circle cx="620.0" cy="306.0" r="34"/>
    <circle cx="624.0" cy="310.0" r="46"/>
    <circle cx="626.0" cy="310.0" r="46"/>
    <circle cx="630.0" cy="310.0" r="44.57"/>
    <circle cx="637.0" cy="312.0" r="40.82"/>
    <circle cx="646.0" cy="316.0" r="36.18"/>
    <circle cx="657.0" cy="322.0" r="32.43"/>
    <circle cx="671.0" cy="329.0" r="31"/>
    <circle cx="687.0" cy="338.0" r="26.75"/>
    <circle cx="698.0" cy="345.0" r="16.5"/>
    <circle cx="704.0" cy="350.0" r="6.25"/>
    <circle cx="704.0" cy="352.0" r="2"/>
    <circle cx="700.0" cy="358.0" r="15.5"/>
    <circle cx="696.0" cy="371.0" r="29"/>
    <circle cx="695.0" cy="380.0" r="26.95"/>
    <circle cx="696.0" cy="390.0" r="22.0"/>
    <circle cx="699.0" cy="401.0" r="17.05"/>
    <circle cx="704.0" cy="413.0" r="15"/>
    <circle cx="710.0" cy="425.0" r="16.9"/>
    <circle cx="716.0" cy="436.0" r="21.5"/>
    <circle cx="720.0" cy="445.0" r="26.1"/>
    <circle cx="724.0" cy="452.0" r="28"/>
    <circle cx="729.0" cy="461.0" r="28.0"/>
    <circle cx="732.0" cy="472.0" r="28.0"/>
    <circle cx="734.0" cy="484.0" r="28"/>
    <circle cx="737.0" cy="496.0" r="34.0"/>
    <circle cx="739.0" cy="494.0" r="40"/>
    <circle cx="738.0" cy="493.0" r="38.66"/>
    <circle cx="735.0" cy="494.0" r="35.16"/>
    <circle cx="729.0" cy="499.0" r="30.84"/>
    <circle cx="721.0" cy="506.0" r="27.34"/>
    <circle cx="710.0" cy="517.0" r="26"/>
    <circle cx="700.0" cy="527.0" r="25.26"/>
    <circle cx="691.0" cy="535.0" r="23.25"/>
    <circle cx="684.0" cy="544.0" r="20.5"/>
    <circle cx="679.0" cy="551.0" r="17.75"/>
    <circle cx="674.0" cy="557.0" r="15.74"/>
    <circle cx="672.0" cy="563.0" r="15"/>
    <circle cx="667.0" cy="571.0" r="17.0"/>
    <circle cx="661.0" cy="573.0" r="21.0"/>
    <circle cx="655.0" cy="570.0" r="23"/>
    <circle cx="651.0" cy="568.0" r="21.68"/>
    <circle cx="650.0" cy="570.0" r="18.5"/>
    <circle cx="652.0" cy="578.0" r="15.32"/>
    <circle cx="656.0" cy="590.0" r="14"/>
    <circle cx="662.0" cy="606.0" r="14.5"/>
    <circle cx="669.0" cy="617.0" r="15.5"/>
    <circle cx="674.0" cy="622.0" r="16"/>
    <circle cx="676.0" cy="622.0" r="17.76"/>
    <circle cx="672.0" cy="621.0" r="22.0"/>
    <circle cx="664.0" cy="618.0" r="26.24"/>
    <circle cx="650.0" cy="612.0" r="28"/>
    <circle cx="635.0" cy="607.0" r="30.64"/>
    <circle cx="625.0" cy="606.0" r="37.0"/>
    <circle cx="619.0" cy="608.0" r="43.36"/>
    <circle cx="617.0" cy="613.0" r="46"/>
    <circle cx="616.0" cy="617.0" r="41.17"/>
    <circle cx="613.0" cy="616.0" r="29.5"/>
    <circle cx="607.0" cy="610.0" r="17.83"/>
    <circle cx="598.0" cy="598.0" r="13"/>
    <circle cx="592.0" cy="590.0" r="12.87"/>
    <circle cx="585.0" cy="584.0" r="12.5"/>
    <circle cx="577.0" cy="579.0" r="12.0"/>
    <circle cx="569.0" cy="577.0" r="11.5"/>
    <circle cx="561.0" cy="576.0" r="11.13"/>
    <circle cx="552.0" cy="578.0" r="11"/>
    <circle cx="540.0" cy="583.0" r="12.17"/>
    <circle cx="531.0" cy="589.0" r="15.0"/>
    <circle cx="523.0" cy="596.0" r="17.83"/>
    <circle cx="518.0" cy="605.0" r="19"/>
    <circle cx="513.0" cy="615.0" r="25.0"/>
    <circle cx="508.0" cy="619.0" r="37.0"/>
    <circle cx="502.0" cy="618.0" r="43"/>
    <circle cx="495.0" cy="605.0" r="25"/>
    <circle cx="494.0" cy="599.0" r="24.0"/>
    <circle cx="488.0" cy="590.0" r="22.0"/>
    <circle cx="476.0" cy="579.0" r="21"/>
    <circle cx="468.0" cy="572.0" r="22.43"/>
    <circle cx="460.0" cy="565.0" r="26.18"/>
    <circle cx="452.0" cy="559.0" r="30.82"/>
    <circle cx="443.0" cy="553.0" r="34.57"/>
    <circle cx="434.0" cy="548.0" r="36"/>
    <circle cx="419.0" cy="538.0" r="40.5"/>
    <circle cx="415.0" cy="535.0" r="45"/>
    <circle cx="415.0" cy="532.0" r="42.75"/>
    <circle cx="411.0" cy="521.0" r="38.25"/>
    <circle cx="405.0" cy="502.0" r="36"/>
    <circle cx="401.0" cy="491.0" r="35.2"/>
    <circle cx="396.0" cy="482.0" r="33.0"/>
    <circle cx="391.0" cy="473.0" r="30.0"/>
    <circle cx="386.0" cy="465.0" r="27.0"/>
    <circle cx="380.0" cy="459.0" r="24.8"/>
    <circle cx="374.0" cy="454.0" r="24"/>
    <circle cx="368.0" cy="449.0" r="25.14"/>
    <circle cx="366.0" cy="443.0" r="28.25"/>
    <circle cx="366.0" cy="438.0" r="32.5"/>
    <circle cx="370.0" cy="432.0" r="36.75"/>
    <circle cx="376.0" cy="426.0" r="39.86"/>
    <circle cx="384.0" cy="419.0" r="41"/>
    <circle cx="393.0" cy="413.0" r="40.33"/>
    <circle cx="399.0" cy="408.0" r="38.5"/>
    <circle cx="401.0" cy="403.0" r="36.0"/>
    <circle cx="400.0" cy="400.0" r="33.5"/>
    <circle cx="396.0" cy="397.0" r="31.67"/>
    <circle cx="389.0" cy="396.0" r="31"/>
    <circle cx="382.0" cy="395.0" r="32.07"/>
    <circle cx="378.0" cy="392.0" r="35.0"/>
    <circle cx="377.0" cy="389.0" r="39.0"/>
    <circle cx="379.0" cy="385.0" r="43.0"/>
    <circle cx="384.0" cy="380.0" r="45.93"/>
    <circle cx="392.0" cy="374.0" r="47"/>
    <circle cx="404.0" cy="366.0" r="46.56"/>
    <circle cx="412.0" cy="363.0" r="45.5"/>
    <circle cx="417.0" cy="364.0" r="44.44"/>
    <circle cx="417.0" cy="369.0" r="44"/>
    <circle cx="416.0" cy="377.0" r="39.0"/>
    <circle cx="417.0" cy="370.0" r="34"/>
    <circle cx="419.0" cy="364.0" r="34.67"/>
    <circle cx="424.0" cy="356.0" r="36.42"/>
    <circle cx="430.0" cy="346.0" r="38.58"/>
    <circle cx="438.0" cy="335.0" r="40.33"/>
    <circle cx="449.0" cy="323.0" r="41"/>
    <circle cx="458.0" cy="312.0" r="40.26"/>
    <circle cx="464.0" cy="302.0" r="38.25"/>
    <circle cx="468.0" cy="292.0" r="35.5"/>
    <circle cx="470.0" cy="283.0" r="32.75"/>
    <circle cx="470.0" cy="275.0" r="30.74"/>
    <circle cx="467.0" cy="266.0" r="30"/>
    <circle cx="464.0" cy="258.0" r="30.67"/>
    <circle cx="464.0" cy="251.0" r="32.42"/>
    <circle cx="468.0" cy="245.0" r="34.58"/>
    <circle cx="474.0" cy="241.0" r="36.33"/>
    <circle cx="484.0" cy="239.0" r="37"/>
    <circle cx="497.0" cy="237.0" r="33.92"/>
    <circle cx="508.0" cy="236.0" r="26.5"/>
    <circle cx="517.0" cy="236.0" r="19.08"/>
    <circle cx="524.0" cy="236.0" r="16"/>
    <circle cx="533.0" cy="235.0" r="14.0"/>
    <circle cx="542.0" cy="231.0" r="10.0"/>
    <circle cx="552.0" cy="226.0" r="8"/>
    <circle cx="562.0" cy="218.0" r="16.25"/>
    <circle cx="568.0" cy="210.0" r="32.75"/>
    <circle cx="572.0" cy="200.0" r="41"/>
    <circle cx="573.0" cy="195.0" r="35.87"/>
    <circle cx="576.0" cy="195.0" r="23.5"/>
    <circle cx="579.0" cy="199.0" r="11.13"/>
    <circle cx="584.0" cy="208.0" r="6"/>
    <circle cx="587.0" cy="215.0" r="7.27"/>
    <circle cx="592.0" cy="220.0" r="10.75"/>
    <circle cx="599.0" cy="223.0" r="15.5"/>
    <circle cx="606.0" cy="223.0" r="20.25"/>
    <circle cx="615.0" cy="222.0" r="23.73"/>
    <circle cx="626.0" cy="218.0" r="25"/>
    <circle cx="639.0" cy="213.0" r="21.63"/>
    <circle cx="649.0" cy="211.0" r="13.5"/>
    <circle cx="654.0" cy="212.0" r="5.37"/>
    <circle cx="654.0" cy="218.0" r="2"/>
    <circle cx="654.0" cy="224.0" r="4.75"/>
    <circle cx="661.0" cy="225.0" r="10.25"/>
    <circle cx="674.0" cy="222.0" r="13"/>
    <circle cx="682.0" cy="219.0" r="15.28"/>
    <circle cx="690.0" cy="219.0" r="21.5"/>
    <circle cx="699.0" cy="221.0" r="30.0"/>
    <circle cx="709.0" cy="226.0" r="38.5"/>
    <circle cx="719.0" cy="232.0" r="44.72"/>
    <circle cx="730.0" cy="240.0" r="47"/>
    <circle cx="739.0" cy="248.0" r="44.97"/>
    <circle cx="747.0" cy="256.0" r="39.28"/>
    <circle cx="753.0" cy="264.0" r="31.06"/>
    <circle cx="759.0" cy="272.0" r="21.94"/>
    <circle cx="763.0" cy="279.0" r="13.72"/>
    <circle cx="766.0" cy="287.0" r="8.03"/>
    <circle cx="768.0" cy="294.0" r="6"/>
    <circle cx="772.0" cy="310.0" r="11.5"/>
    <circle cx="777.0" cy="322.0" r="22.5"/>
    <circle cx="782.0" cy="330.0" r="28"/>
    <circle cx="786.0" cy="338.0" r="33.25"/>
    <circle cx="790.0" cy="349.0" r="43.75"/>
    <circle cx="794.0" cy="364.0" r="49"/>
    <circle cx="795.0" cy="373.0" r="48.53"/>
    <circle cx="796.0" cy="383.0" r="47.25"/>
    <circle cx="796.0" cy="394.0" r="45.5"/>
    <circle cx="795.0" cy="406.0" r="43.75"/>
    <circle cx="794.0" cy="418.0" r="42.47"/>
    <circle cx="792.0" cy="432.0" r="42"/>
    <circle cx="789.0" cy="447.0" r="41.52"/>
    <circle cx="789.0" cy="459.0" r="40.27"/>
    <circle cx="790.0" cy="468.0" r="38.73"/>
    <circle cx="793.0" cy="474.0" r="37.48"/>
    <circle cx="798.0" cy="477.0" r="37"/>
    <circle cx="804.0" cy="480.0" r="34.71"/>
    <circle cx="809.0" cy="485.0" r="28.71"/>
    <circle cx="815.0" cy="494.0" r="21.29"/>
    <circle cx="820.0" cy="505.0" r="15.29"/>
    <circle cx="826.0" cy="519.0" r="13"/>
    <circle cx="829.0" cy="530.0" r="12.95"/>
    <circle cx="830.0" cy="540.0" r="12.81"/>
    <circle cx="830.0" cy="548.0" r="12.61"/>
    <circle cx="828.0" cy="557.0" r="12.39"/>
    <circle cx="824.0" cy="564.0" r="12.19"/>
    <circle cx="819.0" cy="570.0" r="12.05"/>
    <circle cx="812.0" cy="576.0" r="12"/>
    <circle cx="801.0" cy="584.0" r="11.27"/>
    <circle cx="795.0" cy="590.0" r="9.5"/>
    <circle cx="793.0" cy="596.0" r="7.73"/>
    <circle cx="795.0" cy="600.0" r="7"/>
    <circle cx="798.0" cy="606.0" r="24.5"/>
    <circle cx="788.0" cy="607.0" r="42"/>
    <circle cx="778.0" cy="608.0" r="38.75"/>
    <circle cx="772.0" cy="612.0" r="32.25"/>
    <circle cx="770.0" cy="620.0" r="29"/>
    <circle cx="768.0" cy="627.0" r="24.5"/>
    <circle cx="761.0" cy="629.0" r="15.5"/>
    <circle cx="752.0" cy="627.0" r="11"/>
    <circle cx="745.0" cy="626.0" r="11.0"/>
    <circle cx="738.0" cy="628.0" r="11.0"/>
    <circle cx="732.0" cy="633.0" r="11.0"/>
    <circle cx="725.0" cy="641.0" r="11.0"/>
    <circle cx="720.0" cy="652.0" r="11"/>
    <circle cx="714.0" cy="662.0" r="10.73"/>
    <circle cx="709.0" cy="668.0" r="10.0"/>
    <circle cx="703.0" cy="671.0" r="9.0"/>
    <circle cx="697.0" cy="672.0" r="8.0"/>
    <circle cx="690.0" cy="669.0" r="7.27"/>
    <circle cx="683.0" cy="663.0" r="7"/>
    <circle cx="673.0" cy="653.0" r="9.78"/>
    <circle cx="664.0" cy="647.0" r="16.5"/>
    <circle cx="657.0" cy="643.0" r="23.22"/>
    <circle cx="651.0" cy="642.0" r="26"/>
    <circle cx="644.0" cy="645.0" r="27.5"/>
    <circle cx="636.0" cy="651.0" r="30.5"/>
    <circle cx="627.0" cy="661.0" r="32"/>
    <circle cx="620.0" cy="672.0" r="34.0"/>
    <circle cx="616.0" cy="682.0" r="38.0"/>
    <circle cx="616.0" cy="690.0" r="40"/>
    <circle cx="616.0" cy="696.0" r="34.75"/>
    <circle cx="610.0" cy="700.0" r="24.25"/>
    <circle cx="600.0" cy="704.0" r="19"/>
    <circle cx="587.0" cy="704.0" r="25.0"/>
    <circle cx="578.0" cy="699.0" r="37.0"/>
    <circle cx="571.0" cy="690.0" r="43"/>
    <circle cx="568.0" cy="686.0" r="41.53"/>
    <circle cx="563.0" cy="684.0" r="37.5"/>
    <circle cx="556.0" cy="685.0" r="32.0"/>
    <circle cx="549.0" cy="689.0" r="26.5"/>
    <circle cx="539.0" cy="695.0" r="22.47"/>
    <circle cx="528.0" cy="704.0" r="21"/>
    <circle cx="516.0" cy="716.0" r="22.05"/>
    <circle cx="504.0" cy="724.0" r="24.8"/>
    <circle cx="495.0" cy="730.0" r="28.2"/>
    <circle cx="488.0" cy="732.0" r="30.95"/>
    <circle cx="482.0" cy="732.0" r="32"/>
    <circle cx="473.0" cy="729.0" r="36.0"/>
    <circle cx="462.0" cy="724.0" r="44.0"/>
    <circle cx="448.0" cy="718.0" r="48"/>
    <circle cx="440.0" cy="713.0" r="45.99"/>
    <circle cx="433.0" cy="707.0" r="40.74"/>
    <circle cx="426.0" cy="700.0" r="34.26"/>
    <circle cx="420.0" cy="691.0" r="29.01"/>
    <circle cx="414.0" cy="682.0" r="27"/>
    <circle cx="409.0" cy="672.0" r="28.24"/>
    <circle cx="402.0" cy="664.0" r="31.49"/>
    <circle cx="396.0" cy="658.0" r="35.51"/>
    <circle cx="388.0" cy="653.0" r="38.76"/>
    <circle cx="380.0" cy="649.0" r="40"/>
    <circle cx="373.0" cy="646.0" r="38.12"/>
    <circle cx="366.0" cy="641.0" r="33.0"/>
    <circle cx="358.0" cy="636.0" r="26.0"/>
    <circle cx="350.0" cy="628.0" r="19.0"/>
    <circle cx="341.0" cy="619.0" r="13.88"/>
    <circle cx="332.0" cy="609.0" r="12"/>
    <circle cx="324.0" cy="598.0" r="12.07"/>
    <circle cx="318.0" cy="588.0" r="12.25"/>
    <circle cx="312.0" cy="578.0" r="12.5"/>
    <circle cx="309.0" cy="569.0" r="12.75"/>
    <circle cx="308.0" cy="560.0" r="12.93"/>
    <circle cx="308.0" cy="552.0" r="13"/>
    <circle cx="308.0" cy="542.0" r="12.33"/>
    <circle cx="307.0" cy="532.0" r="10.58"/>
    <circle cx="304.0" cy="522.0" r="8.42"/>
    <circle cx="300.0" cy="512.0" r="6.67"/>
    <circle cx="294.0" cy="501.0" r="6"/>
    <circle cx="288.0" cy="491.0" r="6.38"/>
    <circle cx="282.0" cy="481.0" r="7.38"/>
    <circle cx="276.0" cy="472.0" r="8.62"/>
    <circle cx="270.0" cy="463.0" r="9.62"/>
    <circle cx="264.0" cy="456.0" r="10"/>
    <circle cx="259.0" cy="448.0" r="12.29"/>
    <circle cx="258.0" cy="441.0" r="18.29"/>
    <circle cx="259.0" cy="434.0" r="25.71"/>
    <circle cx="264.0" cy="427.0" r="31.71"/>
    <circle cx="272.0" cy="420.0" r="34"/>
    <circle cx="284.0" cy="413.0" r="31.95"/>
    <circle cx="292.0" cy="406.0" r="27.0"/>
    <circle cx="299.0" cy="400.0" r="22.05"/>
    <circle cx="304.0" cy="395.0" r="20"/>
    <circle cx="307.0" cy="389.0" r="23.81"/>
    <circle cx="310.0" cy="381.0" r="33.0"/>
    <circle cx="313.0" cy="370.0" r="42.19"/>
    <circle cx="316.0" cy="356.0" r="46"/>
    <circle cx="319.0" cy="343.0" r="45.27"/>
    <circle cx="323.0" cy="331.0" r="43.5"/>
    <circle cx="328.0" cy="321.0" r="41.73"/>
    <circle cx="334.0" cy="314.0" r="41"/>
    <circle cx="342.0" cy="305.0" r="32.5"/>
    <circle cx="352.0" cy="296.0" r="15.5"/>
    <circle cx="363.0" cy="288.0" r="7"/>
    <circle cx="375.0" cy="280.0" r="7.5"/>
    <circle cx="386.0" cy="275.0" r="8.5"/>
    <circle cx="397.0" cy="271.0" r="9"/>
    <circle cx="403.0" cy="268.0" r="8.71"/>
    <circle cx="407.0" cy="262.0" r="7.96"/>
    <circle cx="410.0" cy="253.0" r="7.04"/>
    <circle cx="411.0" cy="241.0" r="6.29"/>
    <circle cx="410.0" cy="226.0" r="6"/>
    <circle cx="410.0" cy="212.0" r="9.44"/>
    <circle cx="410.0" cy="202.0" r="18.44"/>
    <circle cx="411.0" cy="196.0" r="29.56"/>
    <circle cx="413.0" cy="194.0" r="38.56"/>
    <circle cx="416.0" cy="196.0" r="42"/>
    <circle cx="420.0" cy="198.0" r="39.33"/>
    <circle cx="428.0" cy="199.0" r="32.33"/>
    <circle cx="437.0" cy="198.0" r="23.67"/>
    <circle cx="449.0" cy="195.0" r="16.67"/>
    <circle cx="464.0" cy="190.0" r="14"/>
    <circle cx="478.0" cy="185.0" r="14.57"/>
    <circle cx="489.0" cy="179.0" r="16.07"/>
    <circle cx="497.0" cy="174.0" r="17.93"/>
    <circle cx="500.0" cy="168.0" r="19.43"/>
    <circle cx="501.0" cy="163.0" r="20"/>
    <circle cx="502.0" cy="156.0" r="17.5"/>
    <circle cx="509.0" cy="160.0" r="15"/>
    <circle cx="514.0" cy="164.0" r="13.76"/>
    <circle cx="521.0" cy="164.0" r="10.51"/>
    <circle cx="530.0" cy="162.0" r="6.49"/>
    <circle cx="541.0" cy="158.0" r="3.24"/>
    <circle cx="553.0" cy="152.0" r="2"/>
    <circle cx="564.0" cy="145.0" r="3.07"/>
    <circle cx="573.0" cy="138.0" r="6.0"/>
    <circle cx="582.0" cy="132.0" r="10.0"/>
    <circle cx="589.0" cy="126.0" r="14.0"/>
    <circle cx="596.0" cy="119.0" r="16.93"/>
    <circle cx="602.0" cy="112.0" r="18"/>
    <circle cx="608.0" cy="105.0" r="15.66"/>
    <circle cx="612.0" cy="102.0" r="10.0"/>
    <circle cx="614.0" cy="103.0" r="4.34"/>
    <circle cx="613.0" cy="108.0" r="2"/>
    <circle cx="613.0" cy="118.0" r="9.25"/>
    <circle cx="618.0" cy="127.0" r="23.75"/>
    <circle cx="628.0" cy="135.0" r="31"/>
    <circle cx="638.0" cy="139.0" r="28.07"/>
    <circle cx="649.0" cy="141.0" r="21.0"/>
    <circle cx="659.0" cy="140.0" r="13.93"/>
    <circle cx="670.0" cy="136.0" r="11"/>
    <circle cx="680.0" cy="133.0" r="11.29"/>
    <circle cx="689.0" cy="133.0" r="12.04"/>
    <circle cx="698.0" cy="136.0" r="12.96"/>
    <circle cx="707.0" cy="141.0" r="13.71"/>
    <circle cx="716.0" cy="149.0" r="14"/>
    <circle cx="726.0" cy="159.0" r="18.25"/>
    <circle cx="732.0" cy="168.0" r="28.5"/>
    <circle cx="733.0" cy="173.0" r="38.75"/>
    <circle cx="731.0" cy="177.0" r="43"/>
    <circle cx="722.0" cy="178.0" r="46"/>
    <circle cx="725.0" cy="178.0" r="45.0"/>
    <circle cx="732.0" cy="185.0" r="43.0"/>
    <circle cx="745.0" cy="200.0" r="42"/>
    <circle cx="753.0" cy="208.0" r="41.6"/>
    <circle cx="762.0" cy="214.0" r="40.5"/>
    <circle cx="771.0" cy="219.0" r="39.0"/>
    <circle cx="781.0" cy="223.0" r="37.5"/>
    <circle cx="791.0" cy="225.0" r="36.4"/>
    <circle cx="802.0" cy="226.0" r="36"/>
    <circle cx="806.0" cy="226.0" r="35.78"/>
    <circle cx="810.0" cy="227.0" r="35.12"/>
    <circle cx="815.0" cy="230.0" r="34.06"/>
    <circle cx="819.0" cy="233.0" r="32.63"/>
    <circle cx="823.0" cy="237.0" r="30.89"/>
    <circle cx="827.0" cy="242.0" r="28.9"/>
    <circle cx="832.0" cy="249.0" r="26.74"/>
    <circle cx="836.0" cy="256.0" r="24.5"/>
    <circle cx="840.0" cy="264.0" r="22.26"/>
    <circle cx="844.0" cy="273.0" r="20.1"/>
    <circle cx="848.0" cy="283.0" r="18.11"/>
    <circle cx="852.0" cy="294.0" r="16.37"/>
    <circle cx="857.0" cy="306.0" r="14.94"/>
    <circle cx="861.0" cy="319.0" r="13.88"/>
    <circle cx="865.0" cy="333.0" r="13.22"/>
    <circle cx="869.0" cy="348.0" r="13"/>
    <circle cx="872.0" cy="357.0" r="12.82"/>
    <circle cx="874.0" cy="367.0" r="12.28"/>
    <circle cx="877.0" cy="376.0" r="11.42"/>
    <circle cx="879.0" cy="386.0" r="10.29"/>
    <circle cx="882.0" cy="396.0" r="8.96"/>
    <circle cx="885.0" cy="405.0" r="7.51"/>
    <circle cx="887.0" cy="415.0" r="6.03"/>
    <circle cx="890.0" cy="425.0" r="4.61"/>
    <circle cx="892.0" cy="434.0" r="3.33"/>
    <circle cx="895.0" cy="444.0" r="2.28"/>
    <circle cx="898.0" cy="454.0" r="1.52"/>
    <circle cx="900.0" cy="463.0" r="1.09"/>
    <circle cx="902.0" cy="470.0" r="1"/>
    <g stroke="blue">
      <circle cx="575" cy="435" r="285.0"/>
    </g>
    <g stroke="red">
      <circle cx="295" cy="435" r="100"/>
      <circle cx="855" cy="435" r="100"/>
      <path d="M295 435L768.0 627.0L855 435"/>
      <circle cx="768.0" cy="627.0" r="34.5"/>
    </g>
  </g>
</svg>
