<svg version="1.1" width="1630" height="1060" xmlns="http://www.w3.org/2000/svg">
  <!-- Seed: 210447692552850631 -->
  <g stroke="black" fill="none">
    <circle cx="833.0" cy="503.0" r="1"/>
    <circle cx="837.0" cy="507.0" r="9.87"/>
    <circle cx="840.0" cy="510.0" r="23.36"/>
    <circle cx="842.0" cy="512.0" r="25"/>
    <circle cx="843.0" cy="514.0" r="25.99"/>
    <circle cx="844.0" cy="516.0" r="28.77"/>
    <circle cx="842.0" cy="518.0" r="32.77"/>
    <circle cx="840.0" cy="519.0" r="37.23"/>
    <circle cx="836.0" cy="521.0" r="41.23"/>
    <circle cx="830.0" cy="522.0" r="44.01"/>
    <circle cx="824.0" cy="522.0" r="45"/>
    <circle cx="818.0" cy="523.0" r="44.58"/>
    <circle cx="814.0" cy="524.0" r="43.38"/>
    <circle cx="810.0" cy="526.0" r="41.5"/>
    <circle cx="807.0" cy="528.0" r="39.13"/>
    <circle cx="804.0" cy="530.0" r="36.5"/>
    <circle cx="802.0" cy="533.0" r="33.87"/>
    <circle cx="800.0" cy="536.0" r="31.5"/>
    <circle cx="799.0" cy="540.0" r="29.62"/>
    <circle cx="799.0" cy="544.0" r="28.42"/>
    <circle cx="799.0" cy="548.0" r="28"/>
    <circle cx="799.0" cy="554.0" r="27.28"/>
    <circle cx="799.0" cy="559.0" r="25.22"/>
    <circle cx="797.0" cy="562.0" r="22.14"/>
    <circle cx="796.0" cy="565.0" r="18.5"/>
    <circle cx="793.0" cy="567.0" r="14.86"/>
    <circle cx="790.0" cy="568.0" r="11.78"/>
    <circle cx="786.0" cy="569.0" r="9.72"/>
    <circle cx="782.0" cy="568.0" r="9"/>
    <circle cx="776.0" cy="567.0" r="11.41"/>
    <circle cx="772.0" cy="565.0" r="18.0"/>
    <circle cx="769.0" cy="563.0" r="27.0"/>
    <circle cx="768.0" cy="561.0" r="36.0"/>
    <circle cx="768.0" cy="558.0" r="42.59"/>
    <circle cx="770.0" cy="556.0" r="45"/>
    <circle cx="772.0" cy="553.0" r="43.85"/>
    <circle cx="772.0" cy="551.0" r="40.85"/>
    <circle cx="771.0" cy="550.0" r="37.15"/>
    <circle cx="768.0" cy="551.0" r="34.15"/>
    <circle cx="764.0" cy="552.0" r="33"/>
    <circle cx="761.0" cy="553.0" r="32.04"/>
    <circle cx="758.0" cy="553.0" r="29.26"/>
    <circle cx="756.0" cy="552.0" r="25.0"/>
    <circle cx="753.0" cy="549.0" r="19.78"/>
    <circle cx="752.0" cy="546.0" r="14.22"/>
    <circle cx="750.0" cy="542.0" r="9.0"/>
    <circle cx="749.0" cy="537.0" r="4.74"/>
    <circle cx="747.0" cy="530.0" r="1.96"/>
    <circle cx="746.0" cy="523.0" r="1"/>
    <circle cx="746.0" cy="517.0" r="1.22"/>
    <circle cx="746.0" cy="511.0" r="1.87"/>
    <circle cx="747.0" cy="506.0" r="2.9"/>
    <circle cx="747.0" cy="501.0" r="4.22"/>
    <circle cx="749.0" cy="497.0" r="5.72"/>
    <circle cx="751.0" cy="493.0" r="7.28"/>
    <circle cx="753.0" cy="490.0" r="8.78"/>
    <circle cx="755.0" cy="487.0" r="10.1"/>
    <circle cx="759.0" cy="485.0" r="11.13"/>
    <circle cx="762.0" cy="483.0" r="11.78"/>
    <circle cx="766.0" cy="482.0" r="12"/>
    <circle cx="771.0" cy="480.0" r="13.18"/>
    <circle cx="776.0" cy="478.0" r="16.54"/>
    <circle cx="779.0" cy="476.0" r="21.57"/>
    <circle cx="782.0" cy="473.0" r="27.5"/>
    <circle cx="783.0" cy="469.0" r="33.43"/>
    <circle cx="784.0" cy="465.0" r="38.46"/>
    <circle cx="784.0" cy="461.0" r="41.82"/>
    <circle cx="783.0" cy="456.0" r="43"/>
    <circle cx="781.0" cy="452.0" r="41.71"/>
    <circle cx="780.0" cy="448.0" r="38.11"/>
    <circle cx="779.0" cy="447.0" r="32.89"/>
    <circle cx="779.0" cy="447.0" r="27.11"/>
    <circle cx="779.0" cy="448.0" r="21.89"/>
    <circle cx="779.0" cy="451.0" r="18.29"/>
    <circle cx="780.0" cy="456.0" r="17"/>
    <circle cx="780.0" cy="459.0" r="17.64"/>
    <circle cx="782.0" cy="462.0" r="19.48"/>
    <circle cx="784.0" cy="464.0" r="22.36"/>
    <circle cx="786.0" cy="467.0" r="25.98"/>
    <circle cx="789.0" cy="468.0" r="30.0"/>
    <circle cx="793.0" cy="469.0" r="34.02"/>
    <circle cx="797.0" cy="470.0" r="37.64"/>
    <circle cx="802.0" cy="470.0" r="40.52"/>
    <circle cx="807.0" cy="470.0" r="42.36"/>
    <circle cx="814.0" cy="469.0" r="43"/>
    <circle cx="820.0" cy="468.0" r="42.66"/>
    <circle cx="826.0" cy="467.0" r="41.66"/>
    <circle cx="831.0" cy="466.0" r="40.11"/>
    <circle cx="837.0" cy="466.0" r="38.16"/>
    <circle cx="842.0" cy="465.0" r="36.0"/>
    <circle cx="847.0" cy="465.0" r="33.84"/>
    <circle cx="852.0" cy="464.0" r="31.89"/>
    <circle cx="857.0" cy="464.0" r="30.34"/>
    <circle cx="861.0" cy="464.0" r="29.34"/>
    <circle cx="865.0" cy="464.0" r="29"/>
    <circle cx="869.0" cy="464.0" r="29.8"/>
    <circle cx="872.0" cy="464.0" r="32.08"/>
    <circle cx="874.0" cy="465.0" r="35.48"/>
    <circle cx="874.0" cy="465.0" r="39.5"/>
    <circle cx="874.0" cy="466.0" r="43.52"/>
    <circle cx="871.0" cy="466.0" r="46.92"/>
    <circle cx="868.0" cy="467.0" r="49.2"/>
    <circle cx="863.0" cy="468.0" r="50"/>
    <circle cx="859.0" cy="469.0" r="49.97"/>
    <circle cx="855.0" cy="470.0" r="49.88"/>
    <circle cx="853.0" cy="471.0" r="49.75"/>
    <circle cx="852.0" cy="473.0" r="49.59"/>
    <circle cx="852.0" cy="474.0" r="49.41"/>
    <circle cx="853.0" cy="476.0" r="49.25"/>
    <circle cx="855.0" cy="477.0" r="49.12"/>
    <circle cx="858.0" cy="479.0" r="49.03"/>
    <circle cx="862.0" cy="481.0" r="49"/>
    <circle cx="868.0" cy="483.0" r="48.89"/>
    <circle cx="872.0" cy="486.0" r="48.56"/>
    <circle cx="876.0" cy="489.0" r="48.07"/>
    <circle cx="880.0" cy="492.0" r="47.5"/>
    <circle cx="883.0" cy="496.0" r="46.93"/>
    <circle cx="885.0" cy="499.0" r="46.44"/>
    <circle cx="887.0" cy="503.0" r="46.11"/>
    <circle cx="888.0" cy="508.0" r="46"/>
    <circle cx="889.0" cy="512.0" r="44.02"/>
    <circle cx="892.0" cy="516.0" r="38.47"/>
    <circle cx="895.0" cy="518.0" r="30.45"/>
    <circle cx="898.0" cy="520.0" r="21.55"/>
    <circle cx="902.0" cy="521.0" r="13.53"/>
    <circle cx="907.0" cy="521.0" r="7.98"/>
    <circle cx="913.0" cy="520.0" r="6"/>
    <circle cx="918.0" cy="519.0" r="6.76"/>
    <circle cx="923.0" cy="519.0" r="8.93"/>
    <circle cx="927.0" cy="519.0" r="12.17"/>
    <circle cx="931.0" cy="520.0" r="16.0"/>
    <circle cx="934.0" cy="522.0" r="19.83"/>
    <circle cx="937.0" cy="525.0" r="23.07"/>
    <circle cx="939.0" cy="528.0" r="25.24"/>
    <circle cx="942.0" cy="532.0" r="26"/>
    <circle cx="943.0" cy="536.0" r="26.49"/>
    <circle cx="944.0" cy="541.0" r="27.9"/>
    <circle cx="944.0" cy="545.0" r="30.01"/>
    <circle cx="943.0" cy="550.0" r="32.5"/>
    <circle cx="941.0" cy="554.0" r="34.99"/>
    <circle cx="939.0" cy="559.0" r="37.1"/>
    <circle cx="936.0" cy="563.0" r="38.51"/>
    <circle cx="932.0" cy="568.0" r="39"/>
    <circle cx="928.0" cy="573.0" r="38.85"/>
    <circle cx="925.0" cy="577.0" r="38.41"/>
    <circle cx="923.0" cy="582.0" r="37.77"/>
    <circle cx="921.0" cy="586.0" r="37.0"/>
    <circle cx="920.0" cy="590.0" r="36.23"/>
    <circle cx="920.0" cy="595.0" r="35.59"/>
    <circle cx="921.0" cy="599.0" r="35.15"/>
    <circle cx="922.0" cy="602.0" r="35"/>
    <circle cx="923.0" cy="606.0" r="34.31"/>
    <circle cx="924.0" cy="608.0" r="32.31"/>
    <circle cx="923.0" cy="610.0" r="29.25"/>
    <circle cx="922.0" cy="610.0" r="25.5"/>
    <circle cx="920.0" cy="611.0" r="21.5"/>
    <circle cx="917.0" cy="610.0" r="17.75"/>
    <circle cx="913.0" cy="609.0" r="14.69"/>
    <circle cx="909.0" cy="607.0" r="12.69"/>
    <circle cx="904.0" cy="604.0" r="12"/>
    <circle cx="900.0" cy="602.0" r="12.31"/>
    <circle cx="897.0" cy="601.0" r="13.2"/>
    <circle cx="894.0" cy="600.0" r="14.64"/>
    <circle cx="892.0" cy="599.0" r="16.54"/>
    <circle cx="891.0" cy="600.0" r="18.78"/>
    <circle cx="890.0" cy="600.0" r="21.23"/>
    <circle cx="890.0" cy="601.0" r="23.77"/>
    <circle cx="890.0" cy="603.0" r="26.22"/>
    <circle cx="891.0" cy="605.0" r="28.46"/>
    <circle cx="892.0" cy="608.0" r="30.36"/>
    <circle cx="894.0" cy="611.0" r="31.8"/>
    <circle cx="897.0" cy="615.0" r="32.69"/>
    <circle cx="900.0" cy="619.0" r="33"/>
    <circle cx="903.0" cy="623.0" r="32.86"/>
    <circle cx="905.0" cy="627.0" r="32.44"/>
    <circle cx="907.0" cy="630.0" r="31.76"/>
    <circle cx="908.0" cy="634.0" r="30.85"/>
    <circle cx="908.0" cy="637.0" r="29.75"/>
    <circle cx="908.0" cy="640.0" r="28.51"/>
    <circle cx="908.0" cy="643.0" r="27.18"/>
    <circle cx="907.0" cy="646.0" r="25.82"/>
    <circle cx="906.0" cy="649.0" r="24.49"/>
    <circle cx="904.0" cy="652.0" r="23.25"/>
    <circle cx="901.0" cy="655.0" r="22.15"/>
    <circle cx="898.0" cy="657.0" r="21.24"/>
    <circle cx="895.0" cy="660.0" r="20.56"/>
    <circle cx="891.0" cy="662.0" r="20.14"/>
    <circle cx="886.0" cy="664.0" r="20"/>
    <circle cx="880.0" cy="667.0" r="20.47"/>
    <circle cx="874.0" cy="670.0" r="21.83"/>
    <circle cx="868.0" cy="672.0" r="23.97"/>
    <circle cx="863.0" cy="673.0" r="26.72"/>
    <circle cx="858.0" cy="675.0" r="29.86"/>
    <circle cx="853.0" cy="675.0" r="33.14"/>
    <circle cx="849.0" cy="676.0" r="36.28"/>
    <circle cx="844.0" cy="676.0" r="39.03"/>
    <circle cx="840.0" cy="675.0" r="41.17"/>
    <circle cx="837.0" cy="675.0" r="42.53"/>
    <circle cx="834.0" cy="674.0" r="43"/>
    <circle cx="827.0" cy="671.0" r="41.85"/>
    <circle cx="823.0" cy="668.0" r="38.85"/>
    <circle cx="821.0" cy="666.0" r="35.15"/>
    <circle cx="820.0" cy="663.0" r="32.15"/>
    <circle cx="822.0" cy="662.0" r="31"/>
    <circle cx="823.0" cy="659.0" r="30.71"/>
    <circle cx="823.0" cy="656.0" r="30.0"/>
    <circle cx="820.0" cy="652.0" r="29.29"/>
    <circle cx="816.0" cy="648.0" r="29"/>
    <circle cx="813.0" cy="647.0" r="28.01"/>
    <circle cx="810.0" cy="646.0" r="25.19"/>
    <circle cx="806.0" cy="646.0" r="20.97"/>
    <circle cx="802.0" cy="647.0" r="16.0"/>
    <circle cx="798.0" cy="649.0" r="11.03"/>
    <circle cx="794.0" cy="652.0" r="6.81"/>
    <circle cx="789.0" cy="656.0" r="3.99"/>
    <circle cx="784.0" cy="660.0" r="3"/>
    <circle cx="781.0" cy="664.0" r="3.1"/>
    <circle cx="778.0" cy="666.0" r="3.4"/>
    <circle cx="775.0" cy="667.0" r="3.88"/>
    <circle cx="773.0" cy="668.0" r="4.5"/>
    <circle cx="772.0" cy="668.0" r="5.22"/>
    <circle cx="770.0" cy="668.0" r="6.0"/>
    <circle cx="770.0" cy="667.0" r="6.78"/>
    <circle cx="769.0" cy="664.0" r="7.5"/>
    <circle cx="769.0" cy="662.0" r="8.12"/>
    <circle cx="769.0" cy="658.0" r="8.6"/>
    <circle cx="770.0" cy="654.0" r="8.9"/>
    <circle cx="772.0" cy="649.0" r="9"/>
    <circle cx="773.0" cy="643.0" r="9.78"/>
    <circle cx="774.0" cy="637.0" r="12.06"/>
    <circle cx="774.0" cy="632.0" r="15.6"/>
    <circle cx="774.0" cy="628.0" r="20.06"/>
    <circle cx="773.0" cy="624.0" r="25.0"/>
    <circle cx="771.0" cy="621.0" r="29.94"/>
    <circle cx="769.0" cy="619.0" r="34.4"/>
    <circle cx="766.0" cy="617.0" r="37.94"/>
    <circle cx="763.0" cy="616.0" r="40.22"/>
    <circle cx="759.0" cy="615.0" r="41"/>
    <circle cx="755.0" cy="615.0" r="41.12"/>
    <circle cx="750.0" cy="614.0" r="41.48"/>
    <circle cx="745.0" cy="614.0" r="42.03"/>
    <circle cx="740.0" cy="614.0" r="42.73"/>
    <circle cx="735.0" cy="614.0" r="43.5"/>
    <circle cx="730.0" cy="615.0" r="44.27"/>
    <circle cx="724.0" cy="615.0" r="44.97"/>
    <circle cx="718.0" cy="616.0" r="45.52"/>
    <circle cx="712.0" cy="616.0" r="45.88"/>
    <circle cx="706.0" cy="617.0" r="46"/>
    <circle cx="701.0" cy="618.0" r="46.0"/>
    <circle cx="696.0" cy="618.0" r="46.0"/>
    <circle cx="692.0" cy="617.0" r="46.0"/>
    <circle cx="689.0" cy="617.0" r="46.0"/>
    <circle cx="687.0" cy="616.0" r="46.0"/>
    <circle cx="686.0" cy="614.0" r="46.0"/>
    <circle cx="686.0" cy="612.0" r="46.0"/>
    <circle cx="686.0" cy="610.0" r="46.0"/>
    <circle cx="687.0" cy="607.0" r="46.0"/>
    <circle cx="690.0" cy="604.0" r="46.0"/>
    <circle cx="692.0" cy="601.0" r="46"/>
    <circle cx="695.0" cy="598.0" r="45.64"/>
    <circle cx="697.0" cy="595.0" r="44.59"/>
    <circle cx="698.0" cy="592.0" r="42.92"/>
    <circle cx="699.0" cy="590.0" r="40.75"/>
    <circle cx="699.0" cy="588.0" r="38.22"/>
    <circle cx="698.0" cy="586.0" r="35.5"/>
    <circle cx="696.0" cy="584.0" r="32.78"/>
    <circle cx="693.0" cy="583.0" r="30.25"/>
    <circle cx="690.0" cy="582.0" r="28.08"/>
    <circle cx="686.0" cy="581.0" r="26.41"/>
    <circle cx="681.0" cy="580.0" r="25.36"/>
    <circle cx="676.0" cy="580.0" r="25"/>
    <circle cx="669.0" cy="580.0" r="24.44"/>
    <circle cx="663.0" cy="579.0" r="22.8"/>
    <circle cx="658.0" cy="578.0" r="20.26"/>
    <circle cx="653.0" cy="576.0" r="17.05"/>
    <circle cx="650.0" cy="575.0" r="13.5"/>
    <circle cx="647.0" cy="572.0" r="9.95"/>
    <circle cx="645.0" cy="570.0" r="6.74"/>
    <circle cx="643.0" cy="567.0" r="4.2"/>
    <circle cx="643.0" cy="564.0" r="2.56"/>
    <circle cx="643.0" cy="560.0" r="2"/>
    <circle cx="644.0" cy="554.0" r="3.53"/>
    <circle cx="643.0" cy="549.0" r="7.53"/>
    <circle cx="642.0" cy="545.0" r="12.47"/>
    <circle cx="640.0" cy="542.0" r="16.47"/>
    <circle cx="636.0" cy="542.0" r="18"/>
    <circle cx="631.0" cy="540.0" r="14.25"/>
    <circle cx="626.0" cy="538.0" r="6.75"/>
    <circle cx="623.0" cy="534.0" r="3"/>
    <circle cx="622.0" cy="531.0" r="4.0"/>
    <circle cx="620.0" cy="527.0" r="6.75"/>
    <circle cx="619.0" cy="522.0" r="10.5"/>
    <circle cx="617.0" cy="517.0" r="14.25"/>
    <circle cx="615.0" cy="510.0" r="17.0"/>
    <circle cx="614.0" cy="502.0" r="18"/>
    <circle cx="613.0" cy="497.0" r="18.61"/>
    <circle cx="613.0" cy="493.0" r="20.39"/>
    <circle cx="613.0" cy="489.0" r="23.15"/>
    <circle cx="614.0" cy="486.0" r="26.64"/>
    <circle cx="616.0" cy="483.0" r="30.5"/>
    <circle cx="618.0" cy="481.0" r="34.36"/>
    <circle cx="621.0" cy="479.0" r="37.85"/>
    <circle cx="625.0" cy="478.0" r="40.61"/>
    <circle cx="629.0" cy="477.0" r="42.39"/>
    <circle cx="634.0" cy="476.0" r="43"/>
    <circle cx="639.0" cy="476.0" r="42.22"/>
    <circle cx="644.0" cy="475.0" r="39.96"/>
    <circle cx="649.0" cy="474.0" r="36.5"/>
    <circle cx="652.0" cy="472.0" r="32.26"/>
    <circle cx="655.0" cy="469.0" r="27.74"/>
    <circle cx="658.0" cy="466.0" r="23.5"/>
    <circle cx="659.0" cy="463.0" r="20.04"/>
    <circle cx="660.0" cy="459.0" r="17.78"/>
    <circle cx="661.0" cy="454.0" r="17"/>
    <circle cx="661.0" cy="450.0" r="16.8"/>
    <circle cx="662.0" cy="446.0" r="16.21"/>
    <circle cx="663.0" cy="442.0" r="15.27"/>
    <circle cx="665.0" cy="437.0" r="14.08"/>
    <circle cx="666.0" cy="433.0" r="12.71"/>
    <circle cx="669.0" cy="429.0" r="11.29"/>
    <circle cx="671.0" cy="424.0" r="9.92"/>
    <circle cx="674.0" cy="419.0" r="8.73"/>
    <circle cx="677.0" cy="415.0" r="7.79"/>
    <circle cx="681.0" cy="410.0" r="7.2"/>
    <circle cx="685.0" cy="405.0" r="7"/>
    <circle cx="690.0" cy="399.0" r="8.45"/>
    <circle cx="695.0" cy="393.0" r="12.56"/>
    <circle cx="700.0" cy="388.0" r="18.73"/>
    <circle cx="704.0" cy="383.0" r="26.0"/>
    <circle cx="707.0" cy="380.0" r="33.27"/>
    <circle cx="709.0" cy="377.0" r="39.44"/>
    <circle cx="711.0" cy="374.0" r="43.55"/>
    <circle cx="713.0" cy="372.0" r="45"/>
    <circle cx="716.0" cy="371.0" r="43.95"/>
    <circle cx="719.0" cy="369.0" r="41.2"/>
    <circle cx="725.0" cy="368.0" r="37.8"/>
    <circle cx="731.0" cy="367.0" r="35.05"/>
    <circle cx="738.0" cy="367.0" r="34"/>
    <circle cx="746.0" cy="367.0" r="35.43"/>
    <circle cx="751.0" cy="366.0" r="39.18"/>
    <circle cx="755.0" cy="364.0" r="43.82"/>
    <circle cx="758.0" cy="362.0" r="47.57"/>
    <circle cx="758.0" cy="359.0" r="49"/>
    <circle cx="758.0" cy="358.0" r="48.28"/>
    <circle cx="759.0" cy="357.0" r="46.19"/>
    <circle cx="761.0" cy="356.0" r="42.85"/>
    <circle cx="763.0" cy="356.0" r="38.5"/>
    <circle cx="767.0" cy="356.0" r="33.44"/>
    <circle cx="770.0" cy="356.0" r="28.0"/>
    <circle cx="775.0" cy="356.0" r="22.56"/>
    <circle cx="781.0" cy="357.0" r="17.5"/>
    <circle cx="787.0" cy="357.0" r="13.15"/>
    <circle cx="794.0" cy="359.0" r="9.81"/>
    <circle cx="802.0" cy="360.0" r="7.72"/>
    <circle cx="810.0" cy="362.0" r="7"/>
    <circle cx="818.0" cy="363.0" r="7.48"/>
    <circle cx="825.0" cy="364.0" r="8.89"/>
    <circle cx="831.0" cy="365.0" r="11.15"/>
    <circle cx="837.0" cy="366.0" r="14.13"/>
    <circle cx="842.0" cy="366.0" r="17.65"/>
    <circle cx="846.0" cy="366.0" r="21.51"/>
    <circle cx="850.0" cy="366.0" r="25.49"/>
    <circle cx="853.0" cy="366.0" r="29.35"/>
    <circle cx="855.0" cy="365.0" r="32.87"/>
    <circle cx="856.0" cy="364.0" r="35.85"/>
    <circle cx="857.0" cy="363.0" r="38.11"/>
    <circle cx="857.0" cy="362.0" r="39.52"/>
    <circle cx="856.0" cy="360.0" r="40"/>
    <circle cx="855.0" cy="356.0" r="37.92"/>
    <circle cx="855.0" cy="353.0" r="32.25"/>
    <circle cx="856.0" cy="349.0" r="24.5"/>
    <circle cx="859.0" cy="346.0" r="16.75"/>
    <circle cx="864.0" cy="343.0" r="11.08"/>
    <circle cx="870.0" cy="341.0" r="9"/>
    <circle cx="873.0" cy="340.0" r="8.9"/>
    <circle cx="877.0" cy="340.0" r="8.6"/>
    <circle cx="881.0" cy="340.0" r="8.14"/>
    <circle cx="885.0" cy="340.0" r="7.54"/>
    <circle cx="889.0" cy="342.0" r="6.86"/>
    <circle cx="893.0" cy="343.0" r="6.14"/>
    <circle cx="897.0" cy="346.0" r="5.46"/>
    <circle cx="902.0" cy="349.0" r="4.86"/>
    <circle cx="906.0" cy="352.0" r="4.4"/>
    <circle cx="911.0" cy="356.0" r="4.1"/>
    <circle cx="916.0" cy="361.0" r="4"/>
    <circle cx="922.0" cy="367.0" r="4.51"/>
    <circle cx="927.0" cy="372.0" r="5.99"/>
    <circle cx="932.0" cy="376.0" r="8.25"/>
    <circle cx="937.0" cy="380.0" r="11.02"/>
    <circle cx="941.0" cy="383.0" r="13.98"/>
    <circle cx="945.0" cy="385.0" r="16.75"/>
    <circle cx="949.0" cy="387.0" r="19.01"/>
    <circle cx="952.0" cy="388.0" r="20.49"/>
    <circle cx="954.0" cy="389.0" r="21"/>
    <circle cx="960.0" cy="390.0" r="24.95"/>
    <circle cx="964.0" cy="392.0" r="34.5"/>
    <circle cx="967.0" cy="395.0" r="44.05"/>
    <circle cx="970.0" cy="399.0" r="48"/>
    <circle cx="971.0" cy="403.0" r="44.85"/>
    <circle cx="972.0" cy="408.0" r="36.6"/>
    <circle cx="973.0" cy="413.0" r="26.4"/>
    <circle cx="974.0" cy="420.0" r="18.15"/>
    <circle cx="974.0" cy="427.0" r="15"/>
    <circle cx="975.0" cy="433.0" r="15.54"/>
    <circle cx="976.0" cy="439.0" r="17.0"/>
    <circle cx="978.0" cy="444.0" r="19.0"/>
    <circle cx="979.0" cy="449.0" r="21.0"/>
    <circle cx="982.0" cy="453.0" r="22.46"/>
    <circle cx="984.0" cy="457.0" r="23"/>
    <circle cx="988.0" cy="461.0" r="20.95"/>
    <circle cx="992.0" cy="464.0" r="16.0"/>
    <circle cx="997.0" cy="464.0" r="11.05"/>
    <circle cx="1002.0" cy="462.0" r="9"/>
    <circle cx="1006.0" cy="460.0" r="9.67"/>
    <circle cx="1010.0" cy="460.0" r="11.42"/>
    <circle cx="1015.0" cy="460.0" r="13.58"/>
    <circle cx="1021.0" cy="462.0" r="15.33"/>
    <circle cx="1027.0" cy="465.0" r="16"/>
    <circle cx="1031.0" cy="467.0" r="15.92"/>
    <circle cx="1034.0" cy="470.0" r="15.71"/>
    <circle cx="1038.0" cy="474.0" r="15.38"/>
    <circle cx="1040.0" cy="478.0" r="15.0"/>
    <circle cx="1043.0" cy="482.0" r="14.62"/>
    <circle cx="1045.0" cy="486.0" r="14.29"/>
    <circle cx="1047.0" cy="491.0" r="14.08"/>
    <circle cx="1049.0" cy="497.0" r="14"/>
    <circle cx="1050.0" cy="503.0" r="14.27"/>
    <circle cx="1052.0" cy="508.0" r="15.03"/>
    <circle cx="1054.0" cy="513.0" r="16.16"/>
    <circle cx="1055.0" cy="519.0" r="17.5"/>
    <circle cx="1056.0" cy="524.0" r="18.84"/>
    <circle cx="1058.0" cy="528.0" r="19.97"/>
    <circle cx="1060.0" cy="533.0" r="20.73"/>
    <circle cx="1061.0" cy="538.0" r="21"/>
    <circle cx="1063.0" cy="543.0" r="21.1"/>
    <circle cx="1064.0" cy="548.0" r="21.38"/>
    <circle cx="1064.0" cy="553.0" r="21.78"/>
    <circle cx="1065.0" cy="558.0" r="22.22"/>
    <circle cx="1065.0" cy="564.0" r="22.62"/>
    <circle cx="1065.0" cy="569.0" r="22.9"/>
    <circle cx="1064.0" cy="574.0" r="23"/>
    <circle cx="1063.0" cy="581.0" r="21.28"/>
    <circle cx="1062.0" cy="586.0" r="16.78"/>
    <circle cx="1062.0" cy="589.0" r="11.22"/>
    <circle cx="1062.0" cy="589.0" r="6.72"/>
    <circle cx="1062.0" cy="588.0" r="5"/>
    <circle cx="1063.0" cy="587.0" r="6.67"/>
    <circle cx="1062.0" cy="588.0" r="11.25"/>
    <circle cx="1061.0" cy="590.0" r="17.5"/>
    <circle cx="1059.0" cy="594.0" r="23.75"/>
    <circle cx="1056.0" cy="600.0" r="28.33"/>
    <circle cx="1053.0" cy="608.0" r="30"/>
    <circle cx="1050.0" cy="615.0" r="29.46"/>
    <circle cx="1047.0" cy="622.0" r="28.0"/>
    <circle cx="1044.0" cy="628.0" r="26.0"/>
    <circle cx="1043.0" cy="633.0" r="24.0"/>
    <circle cx="1042.0" cy="636.0" r="22.54"/>
    <circle cx="1041.0" cy="639.0" r="22"/>
    <circle cx="1040.0" cy="640.0" r="22.07"/>
    <circle cx="1039.0" cy="642.0" r="22.29"/>
    <circle cx="1037.0" cy="645.0" r="22.62"/>
    <circle cx="1034.0" cy="648.0" r="23.04"/>
    <circle cx="1031.0" cy="651.0" r="23.5"/>
    <circle cx="1027.0" cy="655.0" r="23.96"/>
    <circle cx="1022.0" cy="659.0" r="24.38"/>
    <circle cx="1016.0" cy="664.0" r="24.71"/>
    <circle cx="1010.0" cy="669.0" r="24.93"/>
    <circle cx="1003.0" cy="675.0" r="25"/>
    <circle cx="998.0" cy="680.0" r="25.36"/>
    <circle cx="993.0" cy="684.0" r="26.43"/>
    <circle cx="988.0" cy="688.0" r="28.14"/>
    <circle cx="985.0" cy="693.0" r="30.4"/>
    <circle cx="981.0" cy="697.0" r="33.07"/>
    <circle cx="979.0" cy="701.0" r="35.99"/>
    <circle cx="976.0" cy="704.0" r="39.01"/>
    <circle cx="975.0" cy="708.0" r="41.93"/>
    <circle cx="974.0" cy="712.0" r="44.6"/>
    <circle cx="973.0" cy="715.0" r="46.86"/>
    <circle cx="973.0" cy="719.0" r="48.57"/>
    <circle cx="973.0" cy="722.0" r="49.64"/>
    <circle cx="974.0" cy="725.0" r="50"/>
    <circle cx="977.0" cy="731.0" r="47.66"/>
    <circle cx="978.0" cy="735.0" r="41.25"/>
    <circle cx="979.0" cy="738.0" r="32.5"/>
    <circle cx="979.0" cy="740.0" r="23.75"/>
    <circle cx="978.0" cy="740.0" r="17.34"/>
    <circle cx="976.0" cy="738.0" r="15"/>
    <circle cx="974.0" cy="737.0" r="15.33"/>
    <circle cx="972.0" cy="736.0" r="16.29"/>
    <circle cx="968.0" cy="736.0" r="17.75"/>
    <circle cx="965.0" cy="737.0" r="19.54"/>
    <circle cx="960.0" cy="738.0" r="21.46"/>
    <circle cx="955.0" cy="739.0" r="23.25"/>
    <circle cx="949.0" cy="742.0" r="24.71"/>
    <circle cx="943.0" cy="745.0" r="25.67"/>
    <circle cx="936.0" cy="748.0" r="26"/>
    <circle cx="930.0" cy="751.0" r="25.84"/>
    <circle cx="924.0" cy="754.0" r="25.37"/>
    <circle cx="919.0" cy="757.0" r="24.62"/>
    <circle cx="915.0" cy="761.0" r="23.66"/>
    <circle cx="911.0" cy="764.0" r="22.57"/>
    <circle cx="907.0" cy="767.0" r="21.43"/>
    <circle cx="904.0" cy="770.0" r="20.34"/>
    <circle cx="901.0" cy="774.0" r="19.38"/>
    <circle cx="899.0" cy="777.0" r="18.63"/>
    <circle cx="897.0" cy="781.0" r="18.16"/>
    <circle cx="896.0" cy="784.0" r="18"/>
    <circle cx="894.0" cy="788.0" r="18.38"/>
    <circle cx="893.0" cy="791.0" r="19.46"/>
    <circle cx="891.0" cy="793.0" r="21.09"/>
    <circle cx="890.0" cy="793.0" r="23.0"/>
    <circle cx="890.0" cy="792.0" r="24.91"/>
    <circle cx="889.0" cy="790.0" r="26.54"/>
    <circle cx="889.0" cy="786.0" r="27.62"/>
    <circle cx="888.0" cy="782.0" r="28"/>
    <circle cx="888.0" cy="777.0" r="28.12"/>
    <circle cx="887.0" cy="774.0" r="28.47"/>
    <circle cx="886.0" cy="771.0" r="29.0"/>
    <circle cx="884.0" cy="769.0" r="29.65"/>
    <circle cx="882.0" cy="769.0" r="30.35"/>
    <circle cx="880.0" cy="769.0" r="31.0"/>
    <circle cx="877.0" cy="770.0" r="31.53"/>
    <circle cx="873.0" cy="771.0" r="31.88"/>
    <circle cx="869.0" cy="774.0" r="32"/>
    <circle cx="864.0" cy="778.0" r="31.8"/>
    <circle cx="859.0" cy="781.0" r="31.25"/>
    <circle cx="854.0" cy="784.0" r="30.45"/>
    <circle cx="850.0" cy="787.0" r="29.55"/>
    <circle cx="845.0" cy="789.0" r="28.75"/>
    <circle cx="842.0" cy="791.0" r="28.2"/>
    <circle cx="838.0" cy="792.0" r="28"/>
    <circle cx="834.0" cy="794.0" r="29.41"/>
    <circle cx="832.0" cy="797.0" r="33.25"/>
    <circle cx="830.0" cy="801.0" r="38.5"/>
    <circle cx="830.0" cy="806.0" r="43.75"/>
    <circle cx="830.0" cy="811.0" r="47.59"/>
    <circle cx="832.0" cy="818.0" r="49"/>
    <circle cx="832.0" cy="820.0" r="48.59"/>
    <circle cx="832.0" cy="822.0" r="47.4"/>
    <circle cx="832.0" cy="824.0" r="45.48"/>
    <circle cx="832.0" cy="825.0" r="42.95"/>
    <circle cx="831.0" cy="825.0" r="39.96"/>
    <circle cx="829.0" cy="824.0" r="36.69"/>
    <circle cx="827.0" cy="823.0" r="33.31"/>
    <circle cx="825.0" cy="822.0" r="30.04"/>
    <circle cx="823.0" cy="819.0" r="27.05"/>
    <circle cx="820.0" cy="816.0" r="24.52"/>
    <circle cx="816.0" cy="812.0" r="22.6"/>
    <circle cx="812.0" cy="808.0" r="21.41"/>
    <circle cx="808.0" cy="802.0" r="21"/>
    <circle cx="805.0" cy="798.0" r="21.14"/>
    <circle cx="801.0" cy="795.0" r="21.57"/>
    <circle cx="797.0" cy="791.0" r="22.27"/>
    <circle cx="794.0" cy="788.0" r="23.22"/>
    <circle cx="790.0" cy="785.0" r="24.38"/>
    <circle cx="786.0" cy="782.0" r="25.71"/>
    <circle cx="782.0" cy="780.0" r="27.17"/>
    <circle cx="777.0" cy="777.0" r="28.72"/>
    <circle cx="773.0" cy="775.0" r="30.28"/>
    <circle cx="769.0" cy="774.0" r="31.83"/>
    <circle cx="764.0" cy="772.0" r="33.29"/>
    <circle cx="760.0" cy="771.0" r="34.62"/>
    <circle cx="755.0" cy="770.0" r="35.78"/>
    <circle cx="750.0" cy="769.0" r="36.73"/>
    <circle cx="745.0" cy="769.0" r="37.43"/>
    <circle cx="740.0" cy="769.0" r="37.86"/>
    <circle cx="735.0" cy="769.0" r="38"/>
    <circle cx="728.0" cy="769.0" r="37.98"/>
    <circle cx="721.0" cy="770.0" r="37.93"/>
    <circle cx="715.0" cy="770.0" r="37.85"/>
    <circle cx="709.0" cy="770.0" r="37.75"/>
    <circle cx="703.0" cy="770.0" r="37.63"/>
    <circle cx="698.0" cy="770.0" r="37.5"/>
    <circle cx="693.0" cy="770.0" r="37.37"/>
    <circle cx="689.0" cy="770.0" r="37.25"/>
    <circle cx="684.0" cy="770.0" r="37.15"/>
    <circle cx="681.0" cy="770.0" r="37.07"/>
    <circle cx="677.0" cy="770.0" r="37.02"/>
    <circle cx="674.0" cy="770.0" r="37"/>
    <circle cx="670.0" cy="770.0" r="36.89"/>
    <circle cx="666.0" cy="770.0" r="36.56"/>
    <circle cx="661.0" cy="770.0" r="36.07"/>
    <circle cx="656.0" cy="770.0" r="35.5"/>
    <circle cx="650.0" cy="771.0" r="34.93"/>
    <circle cx="644.0" cy="771.0" r="34.44"/>
    <circle cx="638.0" cy="772.0" r="34.11"/>
    <circle cx="632.0" cy="772.0" r="34"/>
    <circle cx="627.0" cy="773.0" r="34.12"/>
    <circle cx="622.0" cy="773.0" r="34.48"/>
    <circle cx="618.0" cy="772.0" r="35.04"/>
    <circle cx="615.0" cy="771.0" r="35.75"/>
    <circle cx="611.0" cy="769.0" r="36.57"/>
    <circle cx="608.0" cy="767.0" r="37.43"/>
    <circle cx="605.0" cy="764.0" r="38.25"/>
    <circle cx="603.0" cy="761.0" r="38.96"/>
    <circle cx="601.0" cy="757.0" r="39.52"/>
    <circle cx="599.0" cy="753.0" r="39.88"/>
    <circle cx="597.0" cy="748.0" r="40"/>
    <circle cx="596.0" cy="744.0" r="39.51"/>
    <circle cx="595.0" cy="740.0" r="38.07"/>
    <circle cx="594.0" cy="736.0" r="35.75"/>
    <circle cx="593.0" cy="732.0" r="32.66"/>
    <circle cx="592.0" cy="727.0" r="28.96"/>
    <circle cx="591.0" cy="722.0" r="24.84"/>
    <circle cx="591.0" cy="718.0" r="20.5"/>
    <circle cx="590.0" cy="712.0" r="16.16"/>
    <circle cx="589.0" cy="707.0" r="12.04"/>
    <circle cx="589.0" cy="702.0" r="8.34"/>
    <circle cx="588.0" cy="697.0" r="5.25"/>
    <circle cx="588.0" cy="691.0" r="2.93"/>
    <circle cx="588.0" cy="685.0" r="1.49"/>
    <circle cx="588.0" cy="680.0" r="1"/>
    <circle cx="587.0" cy="673.0" r="1.03"/>
    <circle cx="587.0" cy="667.0" r="1.11"/>
    <circle cx="586.0" cy="662.0" r="1.25"/>
    <circle cx="585.0" cy="656.0" r="1.43"/>
    <circle cx="584.0" cy="651.0" r="1.65"/>
    <circle cx="582.0" cy="647.0" r="1.88"/>
    <circle cx="581.0" cy="642.0" r="2.12"/>
    <circle cx="579.0" cy="638.0" r="2.35"/>
    <circle cx="577.0" cy="635.0" r="2.57"/>
    <circle cx="575.0" cy="631.0" r="2.75"/>
    <circle cx="572.0" cy="628.0" r="2.89"/>
    <circle cx="569.0" cy="625.0" r="2.97"/>
    <circle cx="566.0" cy="623.0" r="3"/>
    <circle cx="560.0" cy="618.0" r="5.14"/>
    <circle cx="555.0" cy="614.0" r="11.0"/>
    <circle cx="551.0" cy="610.0" r="19.0"/>
    <circle cx="548.0" cy="606.0" r="27.0"/>
    <circle cx="546.0" cy="603.0" r="32.86"/>
    <circle cx="544.0" cy="600.0" r="35"/>
    <circle cx="544.0" cy="596.0" r="36.43"/>
    <circle cx="543.0" cy="592.0" r="40.18"/>
    <circle cx="542.0" cy="587.0" r="44.82"/>
    <circle cx="541.0" cy="581.0" r="48.57"/>
    <circle cx="540.0" cy="574.0" r="50"/>
    <circle cx="539.0" cy="569.0" r="48.66"/>
    <circle cx="538.0" cy="564.0" r="45.0"/>
    <circle cx="536.0" cy="560.0" r="40.0"/>
    <circle cx="534.0" cy="556.0" r="35.0"/>
    <circle cx="531.0" cy="552.0" r="31.34"/>
    <circle cx="528.0" cy="550.0" r="30"/>
    <circle cx="525.0" cy="547.0" r="28.71"/>
    <circle cx="523.0" cy="544.0" r="25.11"/>
    <circle cx="522.0" cy="540.0" r="19.89"/>
    <circle cx="521.0" cy="536.0" r="14.11"/>
    <circle cx="521.0" cy="531.0" r="8.89"/>
    <circle cx="521.0" cy="525.0" r="5.29"/>
    <circle cx="522.0" cy="518.0" r="4"/>
    <circle cx="523.0" cy="512.0" r="5.27"/>
    <circle cx="523.0" cy="506.0" r="8.75"/>
    <circle cx="523.0" cy="502.0" r="13.5"/>
    <circle cx="522.0" cy="500.0" r="18.25"/>
    <circle cx="520.0" cy="500.0" r="21.73"/>
    <circle cx="518.0" cy="502.0" r="23"/>
    <circle cx="516.0" cy="503.0" r="23.46"/>
    <circle cx="515.0" cy="502.0" r="24.76"/>
    <circle cx="514.0" cy="501.0" r="26.7"/>
    <circle cx="514.0" cy="499.0" r="29.0"/>
    <circle cx="513.0" cy="495.0" r="31.3"/>
    <circle cx="514.0" cy="491.0" r="33.24"/>
    <circle cx="515.0" cy="485.0" r="34.54"/>
    <circle cx="516.0" cy="478.0" r="35"/>
    <circle cx="518.0" cy="470.0" r="35.15"/>
    <circle cx="519.0" cy="463.0" r="35.56"/>
    <circle cx="519.0" cy="458.0" r="36.17"/>
    <circle cx="519.0" cy="453.0" r="36.83"/>
    <circle cx="519.0" cy="450.0" r="37.44"/>
    <circle cx="519.0" cy="448.0" r="37.85"/>
    <circle cx="518.0" cy="447.0" r="38"/>
    <circle cx="517.0" cy="446.0" r="37.12"/>
    <circle cx="518.0" cy="445.0" r="34.63"/>
    <circle cx="519.0" cy="444.0" r="30.9"/>
    <circle cx="522.0" cy="441.0" r="26.5"/>
    <circle cx="527.0" cy="438.0" r="22.1"/>
    <circle cx="532.0" cy="435.0" r="18.37"/>
    <circle cx="539.0" cy="430.0" r="15.88"/>
    <circle cx="546.0" cy="426.0" r="15"/>
    <circle cx="551.0" cy="422.0" r="14.99"/>
    <circle cx="556.0" cy="419.0" r="14.94"/>
    <circle cx="559.0" cy="416.0" r="14.87"/>
    <circle cx="563.0" cy="412.0" r="14.78"/>
    <circle cx="565.0" cy="409.0" r="14.68"/>
    <circle cx="568.0" cy="405.0" r="14.56"/>
    <circle cx="569.0" cy="402.0" r="14.44"/>
    <circle cx="570.0" cy="398.0" r="14.32"/>
    <circle cx="571.0" cy="394.0" r="14.22"/>
    <circle cx="571.0" cy="391.0" r="14.13"/>
    <circle cx="570.0" cy="387.0" r="14.06"/>
    <circle cx="569.0" cy="383.0" r="14.01"/>
    <circle cx="567.0" cy="379.0" r="14"/>
    <circle cx="565.0" cy="374.0" r="14.69"/>
    <circle cx="564.0" cy="370.0" r="16.7"/>
    <circle cx="563.0" cy="366.0" r="19.87"/>
    <circle cx="563.0" cy="363.0" r="23.94"/>
    <circle cx="564.0" cy="359.0" r="28.58"/>
    <circle cx="565.0" cy="356.0" r="33.42"/>
    <circle cx="568.0" cy="354.0" r="38.06"/>
    <circle cx="571.0" cy="351.0" r="42.13"/>
    <circle cx="574.0" cy="349.0" r="45.3"/>
    <circle cx="578.0" cy="347.0" r="47.31"/>
    <circle cx="584.0" cy="346.0" r="48"/>
    <circle cx="591.0" cy="344.0" r="46.27"/>
    <circle cx="598.0" cy="342.0" r="41.41"/>
    <circle cx="603.0" cy="340.0" r="34.39"/>
    <circle cx="608.0" cy="338.0" r="26.61"/>
    <circle cx="611.0" cy="335.0" r="19.59"/>
    <circle cx="613.0" cy="333.0" r="14.73"/>
    <circle cx="614.0" cy="331.0" r="13"/>
    <circle cx="614.0" cy="328.0" r="13.6"/>
    <circle cx="616.0" cy="325.0" r="15.25"/>
    <circle cx="619.0" cy="322.0" r="17.5"/>
    <circle cx="623.0" cy="318.0" r="19.75"/>
    <circle cx="628.0" cy="315.0" r="21.4"/>
    <circle cx="634.0" cy="310.0" r="22"/>
    <circle cx="639.0" cy="307.0" r="22.38"/>
    <circle cx="643.0" cy="304.0" r="23.46"/>
    <circle cx="648.0" cy="301.0" r="25.09"/>
    <circle cx="652.0" cy="297.0" r="27.0"/>
    <circle cx="655.0" cy="294.0" r="28.91"/>
    <circle cx="658.0" cy="290.0" r="30.54"/>
    <circle cx="661.0" cy="286.0" r="31.62"/>
    <circle cx="664.0" cy="282.0" r="32"/>
    <circle cx="668.0" cy="276.0" r="30.85"/>
    <circle cx="672.0" cy="272.0" r="27.85"/>
    <circle cx="676.0" cy="269.0" r="24.15"/>
    <circle cx="680.0" cy="268.0" r="21.15"/>
    <circle cx="684.0" cy="268.0" r="20"/>
    <circle cx="686.0" cy="268.0" r="19.67"/>
    <circle cx="689.0" cy="268.0" r="18.71"/>
    <circle cx="693.0" cy="268.0" r="17.25"/>
    <circle cx="697.0" cy="269.0" r="15.46"/>
    <circle cx="703.0" cy="269.0" r="13.54"/>
    <circle cx="708.0" cy="269.0" r="11.75"/>
    <circle cx="715.0" cy="270.0" r="10.29"/>
    <circle cx="722.0" cy="270.0" r="9.33"/>
    <circle cx="730.0" cy="270.0" r="9"/>
    <circle cx="736.0" cy="270.0" r="9.24"/>
    <circle cx="741.0" cy="270.0" r="9.94"/>
    <circle cx="745.0" cy="269.0" r="11.05"/>
    <circle cx="749.0" cy="269.0" r="12.5"/>
    <circle cx="752.0" cy="268.0" r="14.19"/>
    <circle cx="754.0" cy="266.0" r="16.0"/>
    <circle cx="755.0" cy="265.0" r="17.81"/>
    <circle cx="756.0" cy="263.0" r="19.5"/>
    <circle cx="755.0" cy="261.0" r="20.95"/>
    <circle cx="755.0" cy="258.0" r="22.06"/>
    <circle cx="753.0" cy="256.0" r="22.76"/>
    <circle cx="750.0" cy="253.0" r="23"/>
    <circle cx="748.0" cy="249.0" r="23.17"/>
    <circle cx="746.0" cy="246.0" r="23.67"/>
    <circle cx="745.0" cy="243.0" r="24.44"/>
    <circle cx="744.0" cy="240.0" r="25.42"/>
    <circle cx="745.0" cy="237.0" r="26.5"/>
    <circle cx="746.0" cy="234.0" r="27.58"/>
    <circle cx="749.0" cy="231.0" r="28.56"/>
    <circle cx="752.0" cy="229.0" r="29.33"/>
    <circle cx="756.0" cy="226.0" r="29.83"/>
    <circle cx="761.0" cy="224.0" r="30"/>
    <circle cx="768.0" cy="221.0" r="30.59"/>
    <circle cx="775.0" cy="219.0" r="32.26"/>
    <circle cx="781.0" cy="217.0" r="34.66"/>
    <circle cx="786.0" cy="216.0" r="37.34"/>
    <circle cx="791.0" cy="215.0" r="39.74"/>
    <circle cx="794.0" cy="215.0" r="41.41"/>
    <circle cx="798.0" cy="216.0" r="42"/>
    <circle cx="802.0" cy="216.0" r="40.09"/>
    <circle cx="806.0" cy="216.0" r="35.09"/>
    <circle cx="811.0" cy="214.0" r="28.91"/>
    <circle cx="816.0" cy="212.0" r="23.91"/>
    <circle cx="822.0" cy="208.0" r="22"/>
    <circle cx="825.0" cy="207.0" r="22.48"/>
    <circle cx="828.0" cy="206.0" r="23.87"/>
    <circle cx="831.0" cy="206.0" r="26.0"/>
    <circle cx="834.0" cy="208.0" r="28.61"/>
    <circle cx="837.0" cy="210.0" r="31.39"/>
    <circle cx="841.0" cy="213.0" r="34.0"/>
    <circle cx="844.0" cy="217.0" r="36.13"/>
    <circle cx="847.0" cy="222.0" r="37.52"/>
    <circle cx="850.0" cy="228.0" r="38"/>
    <circle cx="852.0" cy="232.0" r="37.83"/>
    <circle cx="855.0" cy="235.0" r="37.31"/>
    <circle cx="858.0" cy="239.0" r="36.49"/>
    <circle cx="861.0" cy="242.0" r="35.41"/>
    <circle cx="864.0" cy="244.0" r="34.13"/>
    <circle cx="868.0" cy="246.0" r="32.72"/>
    <circle cx="871.0" cy="248.0" r="31.28"/>
    <circle cx="875.0" cy="250.0" r="29.87"/>
    <circle cx="880.0" cy="250.0" r="28.59"/>
    <circle cx="884.0" cy="251.0" r="27.51"/>
    <circle cx="889.0" cy="251.0" r="26.69"/>
    <circle cx="894.0" cy="251.0" r="26.17"/>
    <circle cx="900.0" cy="250.0" r="26"/>
    <circle cx="909.0" cy="248.0" r="25.41"/>
    <circle cx="917.0" cy="247.0" r="23.74"/>
    <circle cx="924.0" cy="246.0" r="21.34"/>
    <circle cx="929.0" cy="245.0" r="18.66"/>
    <circle cx="934.0" cy="245.0" r="16.26"/>
    <circle cx="936.0" cy="244.0" r="14.59"/>
    <circle cx="938.0" cy="244.0" r="14"/>
    <circle cx="939.0" cy="245.0" r="14.65"/>
    <circle cx="941.0" cy="246.0" r="16.49"/>
    <circle cx="944.0" cy="248.0" r="19.25"/>
    <circle cx="948.0" cy="251.0" r="22.5"/>
    <circle cx="953.0" cy="255.0" r="25.75"/>
    <circle cx="959.0" cy="259.0" r="28.51"/>
    <circle cx="966.0" cy="264.0" r="30.35"/>
    <circle cx="974.0" cy="270.0" r="31"/>
    <circle cx="979.0" cy="274.0" r="30.86"/>
    <circle cx="984.0" cy="278.0" r="30.46"/>
    <circle cx="988.0" cy="282.0" r="29.83"/>
    <circle cx="993.0" cy="286.0" r="29.0"/>
    <circle cx="997.0" cy="290.0" r="28.04"/>
    <circle cx="1000.0" cy="294.0" r="27.0"/>
    <circle cx="1004.0" cy="298.0" r="25.96"/>
    <circle cx="1007.0" cy="302.0" r="25.0"/>
    <circle cx="1010.0" cy="306.0" r="24.17"/>
    <circle cx="1012.0" cy="309.0" r="23.54"/>
    <circle cx="1014.0" cy="313.0" r="23.14"/>
    <circle cx="1016.0" cy="316.0" r="23"/>
    <circle cx="1019.0" cy="322.0" r="23.89"/>
    <circle cx="1022.0" cy="327.0" r="26.39"/>
    <circle cx="1025.0" cy="331.0" r="30.0"/>
    <circle cx="1028.0" cy="334.0" r="34.0"/>
    <circle cx="1032.0" cy="336.0" r="37.61"/>
    <circle cx="1035.0" cy="337.0" r="40.11"/>
    <circle cx="1039.0" cy="338.0" r="41"/>
    <circle cx="1044.0" cy="337.0" r="39.12"/>
    <circle cx="1049.0" cy="338.0" r="34.0"/>
    <circle cx="1054.0" cy="338.0" r="27.0"/>
    <circle cx="1060.0" cy="338.0" r="20.0"/>
    <circle cx="1066.0" cy="339.0" r="14.88"/>
    <circle cx="1073.0" cy="340.0" r="13"/>
    <circle cx="1076.0" cy="340.0" r="13.34"/>
    <circle cx="1080.0" cy="341.0" r="14.34"/>
    <circle cx="1084.0" cy="343.0" r="15.93"/>
    <circle cx="1087.0" cy="345.0" r="18.0"/>
    <circle cx="1090.0" cy="347.0" r="20.41"/>
    <circle cx="1094.0" cy="350.0" r="23.0"/>
    <circle cx="1098.0" cy="354.0" r="25.59"/>
    <circle cx="1101.0" cy="358.0" r="28.0"/>
    <circle cx="1104.0" cy="362.0" r="30.07"/>
    <circle cx="1108.0" cy="367.0" r="31.66"/>
    <circle cx="1112.0" cy="372.0" r="32.66"/>
    <circle cx="1115.0" cy="378.0" r="33"/>
    <circle cx="1119.0" cy="384.0" r="32.82"/>
    <circle cx="1122.0" cy="389.0" r="32.29"/>
    <circle cx="1126.0" cy="394.0" r="31.45"/>
    <circle cx="1129.0" cy="399.0" r="30.37"/>
    <circle cx="1133.0" cy="403.0" r="29.14"/>
    <circle cx="1136.0" cy="406.0" r="27.86"/>
    <circle cx="1139.0" cy="409.0" r="26.63"/>
    <circle cx="1142.0" cy="411.0" r="25.55"/>
    <circle cx="1145.0" cy="413.0" r="24.71"/>
    <circle cx="1147.0" cy="414.0" r="24.18"/>
    <circle cx="1150.0" cy="415.0" r="24"/>
    <circle cx="1153.0" cy="416.0" r="23.79"/>
    <circle cx="1154.0" cy="417.0" r="23.18"/>
    <circle cx="1155.0" cy="418.0" r="22.25"/>
    <circle cx="1155.0" cy="420.0" r="21.11"/>
    <circle cx="1154.0" cy="423.0" r="19.89"/>
    <circle cx="1151.0" cy="426.0" r="18.75"/>
    <circle cx="1148.0" cy="429.0" r="17.82"/>
    <circle cx="1144.0" cy="433.0" r="17.21"/>
    <circle cx="1139.0" cy="438.0" r="17"/>
    <circle cx="1135.0" cy="441.0" r="17.06"/>
    <circle cx="1131.0" cy="445.0" r="17.24"/>
    <circle cx="1128.0" cy="449.0" r="17.52"/>
    <circle cx="1126.0" cy="452.0" r="17.88"/>
    <circle cx="1125.0" cy="456.0" r="18.29"/>
    <circle cx="1124.0" cy="459.0" r="18.71"/>
    <circle cx="1124.0" cy="463.0" r="19.12"/>
    <circle cx="1125.0" cy="467.0" r="19.48"/>
    <circle cx="1126.0" cy="470.0" r="19.76"/>
    <circle cx="1128.0" cy="474.0" r="19.94"/>
    <circle cx="1131.0" cy="477.0" r="20"/>
    <circle cx="1135.0" cy="481.0" r="19.67"/>
    <circle cx="1138.0" cy="486.0" r="18.71"/>
    <circle cx="1140.0" cy="490.0" r="17.25"/>
    <circle cx="1142.0" cy="494.0" r="15.46"/>
    <circle cx="1144.0" cy="499.0" r="13.54"/>
    <circle cx="1145.0" cy="503.0" r="11.75"/>
    <circle cx="1146.0" cy="508.0" r="10.29"/>
    <circle cx="1146.0" cy="513.0" r="9.33"/>
    <circle cx="1146.0" cy="518.0" r="9"/>
    <circle cx="1145.0" cy="525.0" r="11.86"/>
    <circle cx="1144.0" cy="531.0" r="19.36"/>
    <circle cx="1144.0" cy="534.0" r="28.64"/>
    <circle cx="1143.0" cy="536.0" r="36.14"/>
    <circle cx="1142.0" cy="535.0" r="39"/>
    <circle cx="1140.0" cy="534.0" r="40.5"/>
    <circle cx="1138.0" cy="536.0" r="43.5"/>
    <circle cx="1134.0" cy="541.0" r="45"/>
    <circle cx="1133.0" cy="544.0" r="44.31"/>
    <circle cx="1133.0" cy="547.0" r="42.31"/>
    <circle cx="1132.0" cy="550.0" r="39.25"/>
    <circle cx="1132.0" cy="555.0" r="35.5"/>
    <circle cx="1132.0" cy="560.0" r="31.5"/>
    <circle cx="1132.0" cy="566.0" r="27.75"/>
    <circle cx="1133.0" cy="572.0" r="24.69"/>
    <circle cx="1134.0" cy="579.0" r="22.69"/>
    <circle cx="1135.0" cy="586.0" r="22"/>
    <circle cx="1136.0" cy="594.0" r="21.64"/>
    <circle cx="1137.0" cy="601.0" r="20.6"/>
    <circle cx="1137.0" cy="607.0" r="19.0"/>
    <circle cx="1138.0" cy="613.0" r="17.04"/>
    <circle cx="1137.0" cy="618.0" r="14.96"/>
    <circle cx="1137.0" cy="622.0" r="13.0"/>
    <circle cx="1136.0" cy="626.0" r="11.4"/>
    <circle cx="1135.0" cy="629.0" r="10.36"/>
    <circle cx="1133.0" cy="631.0" r="10"/>
    <circle cx="1130.0" cy="635.0" r="11.72"/>
    <circle cx="1129.0" cy="639.0" r="16.22"/>
    <circle cx="1129.0" cy="644.0" r="21.78"/>
    <circle cx="1130.0" cy="650.0" r="26.28"/>
    <circle cx="1132.0" cy="656.0" r="28"/>
    <circle cx="1135.0" cy="662.0" r="27.14"/>
    <circle cx="1138.0" cy="667.0" r="24.89"/>
    <circle cx="1142.0" cy="671.0" r="22.11"/>
    <circle cx="1145.0" cy="673.0" r="19.86"/>
    <circle cx="1150.0" cy="674.0" r="19"/>
    <circle cx="1152.0" cy="674.0" r="18.62"/>
    <circle cx="1153.0" cy="676.0" r="17.54"/>
    <circle cx="1154.0" cy="678.0" r="15.91"/>
    <circle cx="1155.0" cy="682.0" r="14.0"/>
    <circle cx="1154.0" cy="686.0" r="12.09"/>
    <circle cx="1153.0" cy="691.0" r="10.46"/>
    <circle cx="1151.0" cy="697.0" r="9.38"/>
    <circle cx="1149.0" cy="704.0" r="9"/>
    <circle cx="1147.0" cy="709.0" r="9.19"/>
    <circle cx="1145.0" cy="713.0" r="9.74"/>
    <circle cx="1143.0" cy="717.0" r="10.64"/>
    <circle cx="1141.0" cy="721.0" r="11.82"/>
    <circle cx="1138.0" cy="725.0" r="13.25"/>
    <circle cx="1135.0" cy="728.0" r="14.83"/>
    <circle cx="1132.0" cy="732.0" r="16.5"/>
    <circle cx="1128.0" cy="735.0" r="18.17"/>
    <circle cx="1124.0" cy="738.0" r="19.75"/>
    <circle cx="1120.0" cy="741.0" r="21.18"/>
    <circle cx="1116.0" cy="744.0" r="22.36"/>
    <circle cx="1111.0" cy="747.0" r="23.26"/>
    <circle cx="1107.0" cy="750.0" r="23.81"/>
    <circle cx="1102.0" cy="752.0" r="24"/>
    <circle cx="1095.0" cy="756.0" r="24.02"/>
    <circle cx="1090.0" cy="759.0" r="24.08"/>
    <circle cx="1085.0" cy="762.0" r="24.17"/>
    <circle cx="1081.0" cy="765.0" r="24.29"/>
    <circle cx="1077.0" cy="768.0" r="24.43"/>
    <circle cx="1075.0" cy="772.0" r="24.57"/>
    <circle cx="1073.0" cy="775.0" r="24.71"/>
    <circle cx="1071.0" cy="778.0" r="24.83"/>
    <circle cx="1071.0" cy="781.0" r="24.92"/>
    <circle cx="1071.0" cy="784.0" r="24.98"/>
    <circle cx="1072.0" cy="788.0" r="25"/>
    <circle cx="1073.0" cy="791.0" r="25.22"/>
    <circle cx="1073.0" cy="795.0" r="25.86"/>
    <circle cx="1073.0" cy="798.0" r="26.85"/>
    <circle cx="1072.0" cy="802.0" r="28.11"/>
    <circle cx="1070.0" cy="805.0" r="29.5"/>
    <circle cx="1067.0" cy="808.0" r="30.89"/>
    <circle cx="1064.0" cy="812.0" r="32.15"/>
    <circle cx="1060.0" cy="816.0" r="33.14"/>
    <circle cx="1055.0" cy="819.0" r="33.78"/>
    <circle cx="1050.0" cy="822.0" r="34"/>
    <circle cx="1044.0" cy="826.0" r="34.32"/>
    <circle cx="1040.0" cy="830.0" r="35.24"/>
    <circle cx="1035.0" cy="833.0" r="36.68"/>
    <circle cx="1031.0" cy="837.0" r="38.49"/>
    <circle cx="1028.0" cy="841.0" r="40.5"/>
    <circle cx="1025.0" cy="845.0" r="42.51"/>
    <circle cx="1023.0" cy="848.0" r="44.32"/>
    <circle cx="1021.0" cy="852.0" r="45.76"/>
    <circle cx="1020.0" cy="856.0" r="46.68"/>
    <circle cx="1020.0" cy="860.0" r="47"/>
    <circle cx="1019.0" cy="864.0" r="47.02"/>
    <circle cx="1018.0" cy="867.0" r="47.1"/>
    <circle cx="1016.0" cy="870.0" r="47.21"/>
    <circle cx="1014.0" cy="871.0" r="47.35"/>
    <circle cx="1012.0" cy="872.0" r="47.5"/>
    <circle cx="1009.0" cy="872.0" r="47.65"/>
    <circle cx="1005.0" cy="872.0" r="47.79"/>
    <circle cx="1001.0" cy="871.0" r="47.9"/>
    <circle cx="996.0" cy="869.0" r="47.98"/>
    <circle cx="991.0" cy="866.0" r="48"/>
    <circle cx="987.0" cy="865.0" r="47.7"/>
    <circle cx="984.0" cy="863.0" r="46.83"/>
    <circle cx="980.0" cy="862.0" r="45.42"/>
    <circle cx="976.0" cy="861.0" r="43.53"/>
    <circle cx="971.0" cy="860.0" r="41.25"/>
    <circle cx="967.0" cy="860.0" r="38.67"/>
    <circle cx="963.0" cy="860.0" r="35.91"/>
    <circle cx="958.0" cy="860.0" r="33.09"/>
    <circle cx="954.0" cy="861.0" r="30.33"/>
    <circle cx="949.0" cy="861.0" r="27.75"/>
    <circle cx="944.0" cy="862.0" r="25.47"/>
    <circle cx="939.0" cy="864.0" r="23.58"/>
    <circle cx="934.0" cy="865.0" r="22.17"/>
    <circle cx="928.0" cy="867.0" r="21.3"/>
    <circle cx="923.0" cy="870.0" r="21"/>
    <circle cx="915.0" cy="873.0" r="21.49"/>
    <circle cx="909.0" cy="876.0" r="22.91"/>
    <circle cx="903.0" cy="879.0" r="25.12"/>
    <circle cx="898.0" cy="882.0" r="27.91"/>
    <circle cx="894.0" cy="884.0" r="31.0"/>
    <circle cx="892.0" cy="886.0" r="34.09"/>
    <circle cx="890.0" cy="888.0" r="36.88"/>
    <circle cx="889.0" cy="890.0" r="39.09"/>
    <circle cx="889.0" cy="891.0" r="40.51"/>
    <circle cx="890.0" cy="892.0" r="41"/>
    <circle cx="892.0" cy="893.0" r="40.93"/>
    <circle cx="892.0" cy="894.0" r="40.71"/>
    <circle cx="891.0" cy="895.0" r="40.38"/>
    <circle cx="889.0" cy="895.0" r="39.96"/>
    <circle cx="887.0" cy="896.0" r="39.5"/>
    <circle cx="883.0" cy="896.0" r="39.04"/>
    <circle cx="878.0" cy="896.0" r="38.62"/>
    <circle cx="873.0" cy="896.0" r="38.29"/>
    <circle cx="866.0" cy="897.0" r="38.07"/>
    <circle cx="858.0" cy="896.0" r="38"/>
    <circle cx="853.0" cy="896.0" r="38.1"/>
    <circle cx="847.0" cy="896.0" r="38.4"/>
    <circle cx="842.0" cy="896.0" r="38.87"/>
    <circle cx="836.0" cy="895.0" r="39.51"/>
    <circle cx="831.0" cy="895.0" r="40.26"/>
    <circle cx="825.0" cy="894.0" r="41.11"/>
    <circle cx="820.0" cy="893.0" r="42.0"/>
    <circle cx="815.0" cy="892.0" r="42.89"/>
    <circle cx="810.0" cy="892.0" r="43.74"/>
    <circle cx="805.0" cy="890.0" r="44.49"/>
    <circle cx="800.0" cy="889.0" r="45.13"/>
    <circle cx="795.0" cy="888.0" r="45.6"/>
    <circle cx="790.0" cy="887.0" r="45.9"/>
    <circle cx="786.0" cy="885.0" r="46"/>
    <circle cx="780.0" cy="883.0" r="45.15"/>
    <circle cx="774.0" cy="881.0" r="42.67"/>
    <circle cx="769.0" cy="880.0" r="38.75"/>
    <circle cx="763.0" cy="879.0" r="33.72"/>
    <circle cx="758.0" cy="878.0" r="27.99"/>
    <circle cx="753.0" cy="877.0" r="22.01"/>
    <circle cx="748.0" cy="877.0" r="16.28"/>
    <circle cx="744.0" cy="877.0" r="11.25"/>
    <circle cx="739.0" cy="877.0" r="7.33"/>
    <circle cx="735.0" cy="877.0" r="4.85"/>
    <circle cx="731.0" cy="878.0" r="4"/>
    <circle cx="727.0" cy="879.0" r="4.29"/>
    <circle cx="723.0" cy="879.0" r="5.14"/>
    <circle cx="719.0" cy="879.0" r="6.49"/>
    <circle cx="714.0" cy="879.0" r="8.25"/>
    <circle cx="710.0" cy="879.0" r="10.3"/>
    <circle cx="705.0" cy="879.0" r="12.5"/>
    <circle cx="699.0" cy="879.0" r="14.7"/>
    <circle cx="694.0" cy="878.0" r="16.75"/>
    <circle cx="688.0" cy="877.0" r="18.51"/>
    <circle cx="682.0" cy="876.0" r="19.86"/>
    <circle cx="676.0" cy="875.0" r="20.71"/>
    <circle cx="670.0" cy="874.0" r="21"/>
    <circle cx="664.0" cy="873.0" r="20.96"/>
    <circle cx="659.0" cy="872.0" r="20.83"/>
    <circle cx="654.0" cy="870.0" r="20.62"/>
    <circle cx="650.0" cy="868.0" r="20.34"/>
    <circle cx="645.0" cy="867.0" r="20.0"/>
    <circle cx="641.0" cy="864.0" r="19.62"/>
    <circle cx="636.0" cy="862.0" r="19.21"/>
    <circle cx="632.0" cy="860.0" r="18.79"/>
    <circle cx="628.0" cy="857.0" r="18.38"/>
    <circle cx="624.0" cy="855.0" r="18.0"/>
    <circle cx="621.0" cy="852.0" r="17.66"/>
    <circle cx="617.0" cy="849.0" r="17.38"/>
    <circle cx="614.0" cy="845.0" r="17.17"/>
    <circle cx="611.0" cy="842.0" r="17.04"/>
    <circle cx="608.0" cy="838.0" r="17"/>
    <circle cx="604.0" cy="834.0" r="17.03"/>
    <circle cx="600.0" cy="831.0" r="17.11"/>
    <circle cx="597.0" cy="827.0" r="17.25"/>
    <circle cx="593.0" cy="823.0" r="17.43"/>
    <circle cx="589.0" cy="820.0" r="17.65"/>
    <circle cx="585.0" cy="817.0" r="17.88"/>
    <circle cx="581.0" cy="815.0" r="18.12"/>
    <circle cx="576.0" cy="812.0" r="18.35"/>
    <circle cx="572.0" cy="810.0" r="18.57"/>
    <circle cx="567.0" cy="808.0" r="18.75"/>
    <circle cx="563.0" cy="806.0" r="18.89"/>
    <circle cx="558.0" cy="805.0" r="18.97"/>
    <circle cx="553.0" cy="804.0" r="19"/>
    <circle cx="549.0" cy="802.0" r="19.3"/>
    <circle cx="545.0" cy="801.0" r="20.18"/>
    <circle cx="541.0" cy="799.0" r="21.61"/>
    <circle cx="538.0" cy="797.0" r="23.54"/>
    <circle cx="534.0" cy="795.0" r="25.89"/>
    <circle cx="531.0" cy="792.0" r="28.57"/>
    <circle cx="528.0" cy="789.0" r="31.48"/>
    <circle cx="524.0" cy="786.0" r="34.5"/>
    <circle cx="521.0" cy="782.0" r="37.52"/>
    <circle cx="518.0" cy="778.0" r="40.43"/>
    <circle cx="516.0" cy="774.0" r="43.11"/>
    <circle cx="513.0" cy="769.0" r="45.46"/>
    <circle cx="510.0" cy="765.0" r="47.39"/>
    <circle cx="508.0" cy="759.0" r="48.82"/>
    <circle cx="505.0" cy="754.0" r="49.7"/>
    <circle cx="503.0" cy="748.0" r="50"/>
    <circle cx="501.0" cy="743.0" r="49.86"/>
    <circle cx="499.0" cy="738.0" r="49.46"/>
    <circle cx="497.0" cy="733.0" r="48.79"/>
    <circle cx="495.0" cy="729.0" r="47.89"/>
    <circle cx="492.0" cy="724.0" r="46.77"/>
    <circle cx="490.0" cy="720.0" r="45.47"/>
    <circle cx="487.0" cy="715.0" r="44.02"/>
    <circle cx="485.0" cy="711.0" r="42.45"/>
    <circle cx="482.0" cy="707.0" r="40.83"/>
    <circle cx="479.0" cy="703.0" r="39.17"/>
    <circle cx="476.0" cy="699.0" r="37.55"/>
    <circle cx="473.0" cy="695.0" r="35.98"/>
    <circle cx="470.0" cy="691.0" r="34.53"/>
    <circle cx="467.0" cy="687.0" r="33.23"/>
    <circle cx="464.0" cy="684.0" r="32.11"/>
    <circle cx="460.0" cy="680.0" r="31.21"/>
    <circle cx="457.0" cy="677.0" r="30.54"/>
    <circle cx="453.0" cy="674.0" r="30.14"/>
    <circle cx="450.0" cy="670.0" r="30"/>
    <circle cx="445.0" cy="667.0" r="29.89"/>
    <circle cx="441.0" cy="663.0" r="29.58"/>
    <circle cx="437.0" cy="659.0" r="29.07"/>
    <circle cx="433.0" cy="655.0" r="28.39"/>
    <circle cx="430.0" cy="652.0" r="27.56"/>
    <circle cx="426.0" cy="648.0" r="26.6"/>
    <circle cx="423.0" cy="644.0" r="25.57"/>
    <circle cx="420.0" cy="640.0" r="24.5"/>
    <circle cx="418.0" cy="636.0" r="23.43"/>
    <circle cx="415.0" cy="631.0" r="22.4"/>
    <circle cx="413.0" cy="627.0" r="21.44"/>
    <circle cx="411.0" cy="623.0" r="20.61"/>
    <circle cx="409.0" cy="619.0" r="19.93"/>
    <circle cx="407.0" cy="615.0" r="19.42"/>
    <circle cx="405.0" cy="610.0" r="19.11"/>
    <circle cx="404.0" cy="606.0" r="19"/>
    <circle cx="403.0" cy="601.0" r="18.74"/>
    <circle cx="401.0" cy="595.0" r="17.97"/>
    <circle cx="401.0" cy="590.0" r="16.74"/>
    <circle cx="400.0" cy="585.0" r="15.11"/>
    <circle cx="399.0" cy="580.0" r="13.19"/>
    <circle cx="399.0" cy="575.0" r="11.08"/>
    <circle cx="399.0" cy="570.0" r="8.92"/>
    <circle cx="400.0" cy="566.0" r="6.81"/>
    <circle cx="400.0" cy="561.0" r="4.89"/>
    <circle cx="401.0" cy="556.0" r="3.26"/>
    <circle cx="402.0" cy="552.0" r="2.03"/>
    <circle cx="403.0" cy="547.0" r="1.26"/>
    <circle cx="405.0" cy="543.0" r="1"/>
    <circle cx="407.0" cy="537.0" r="1.15"/>
    <circle cx="409.0" cy="532.0" r="1.57"/>
    <circle cx="411.0" cy="527.0" r="2.24"/>
    <circle cx="413.0" cy="522.0" r="3.07"/>
    <circle cx="415.0" cy="517.0" r="4.0"/>
    <circle cx="417.0" cy="512.0" r="4.93"/>
    <circle cx="419.0" cy="507.0" r="5.76"/>
    <circle cx="420.0" cy="503.0" r="6.43"/>
    <circle cx="422.0" cy="499.0" r="6.85"/>
    <circle cx="424.0" cy="494.0" r="7"/>
    <circle cx="425.0" cy="489.0" r="6.85"/>
    <circle cx="426.0" cy="484.0" r="6.41"/>
    <circle cx="427.0" cy="480.0" r="5.77"/>
    <circle cx="427.0" cy="475.0" r="5.0"/>
    <circle cx="426.0" cy="470.0" r="4.23"/>
    <circle cx="425.0" cy="466.0" r="3.59"/>
    <circle cx="424.0" cy="462.0" r="3.15"/>
    <circle cx="422.0" cy="458.0" r="3"/>
    <circle cx="418.0" cy="450.0" r="6.22"/>
    <circle cx="414.0" cy="445.0" r="14.0"/>
    <circle cx="411.0" cy="442.0" r="21.78"/>
    <circle cx="409.0" cy="441.0" r="25"/>
    <circle cx="408.0" cy="440.0" r="24.37"/>
    <circle cx="407.0" cy="439.0" r="22.54"/>
    <circle cx="407.0" cy="436.0" r="19.75"/>
    <circle cx="406.0" cy="433.0" r="16.32"/>
    <circle cx="406.0" cy="428.0" r="12.68"/>
    <circle cx="405.0" cy="422.0" r="9.25"/>
    <circle cx="405.0" cy="416.0" r="6.46"/>
    <circle cx="405.0" cy="408.0" r="4.63"/>
    <circle cx="404.0" cy="399.0" r="4"/>
    <circle cx="405.0" cy="394.0" r="4.13"/>
    <circle cx="405.0" cy="388.0" r="4.52"/>
    <circle cx="406.0" cy="383.0" r="5.15"/>
    <circle cx="407.0" cy="379.0" r="5.99"/>
    <circle cx="408.0" cy="375.0" r="7.0"/>
    <circle cx="410.0" cy="371.0" r="8.15"/>
    <circle cx="412.0" cy="367.0" r="9.37"/>
    <circle cx="414.0" cy="363.0" r="10.63"/>
    <circle cx="417.0" cy="360.0" r="11.85"/>
    <circle cx="420.0" cy="357.0" r="13.0"/>
    <circle cx="424.0" cy="355.0" r="14.01"/>
    <circle cx="427.0" cy="352.0" r="14.85"/>
    <circle cx="431.0" cy="350.0" r="15.48"/>
    <circle cx="436.0" cy="348.0" r="15.87"/>
    <circle cx="440.0" cy="347.0" r="16"/>
    <circle cx="447.0" cy="345.0" r="16.08"/>
    <circle cx="452.0" cy="343.0" r="16.32"/>
    <circle cx="457.0" cy="341.0" r="16.69"/>
    <circle cx="462.0" cy="339.0" r="17.17"/>
    <circle cx="465.0" cy="336.0" r="17.72"/>
    <circle cx="468.0" cy="334.0" r="18.28"/>
    <circle cx="470.0" cy="331.0" r="18.83"/>
    <circle cx="472.0" cy="328.0" r="19.31"/>
    <circle cx="472.0" cy="325.0" r="19.68"/>
    <circle cx="473.0" cy="322.0" r="19.92"/>
    <circle cx="472.0" cy="318.0" r="20"/>
    <circle cx="471.0" cy="314.0" r="19.58"/>
    <circle cx="471.0" cy="310.0" r="18.36"/>
    <circle cx="471.0" cy="306.0" r="16.5"/>
    <circle cx="472.0" cy="301.0" r="14.22"/>
    <circle cx="474.0" cy="297.0" r="11.78"/>
    <circle cx="476.0" cy="292.0" r="9.5"/>
    <circle cx="479.0" cy="288.0" r="7.64"/>
    <circle cx="483.0" cy="283.0" r="6.42"/>
    <circle cx="487.0" cy="278.0" r="6"/>
    <circle cx="491.0" cy="273.0" r="7.33"/>
    <circle cx="495.0" cy="268.0" r="11.15"/>
    <circle cx="499.0" cy="264.0" r="17.0"/>
    <circle cx="502.0" cy="259.0" r="24.18"/>
    <circle cx="505.0" cy="255.0" r="31.82"/>
    <circle cx="508.0" cy="250.0" r="39.0"/>
    <circle cx="510.0" cy="246.0" r="44.85"/>
    <circle cx="512.0" cy="242.0" r="48.67"/>
    <circle cx="514.0" cy="238.0" r="50"/>
    <circle cx="516.0" cy="234.0" r="48.85"/>
    <circle cx="518.0" cy="230.0" r="45.55"/>
    <circle cx="521.0" cy="227.0" r="40.5"/>
    <circle cx="524.0" cy="225.0" r="34.3"/>
    <circle cx="528.0" cy="223.0" r="27.7"/>
    <circle cx="532.0" cy="221.0" r="21.5"/>
    <circle cx="537.0" cy="220.0" r="16.45"/>
    <circle cx="542.0" cy="220.0" r="13.15"/>
    <circle cx="548.0" cy="220.0" r="12"/>
    <circle cx="553.0" cy="219.0" r="12.24"/>
    <circle cx="558.0" cy="219.0" r="12.95"/>
    <circle cx="563.0" cy="217.0" r="14.06"/>
    <circle cx="567.0" cy="216.0" r="15.45"/>
    <circle cx="570.0" cy="214.0" r="17.0"/>
    <circle cx="574.0" cy="211.0" r="18.55"/>
    <circle cx="577.0" cy="207.0" r="19.94"/>
    <circle cx="579.0" cy="204.0" r="21.05"/>
    <circle cx="582.0" cy="199.0" r="21.76"/>
    <circle cx="584.0" cy="194.0" r="22"/>
    <circle cx="585.0" cy="190.0" r="22.61"/>
    <circle cx="587.0" cy="186.0" r="24.39"/>
    <circle cx="590.0" cy="183.0" r="27.15"/>
    <circle cx="592.0" cy="180.0" r="30.64"/>
    <circle cx="595.0" cy="178.0" r="34.5"/>
    <circle cx="598.0" cy="178.0" r="38.36"/>
    <circle cx="602.0" cy="177.0" r="41.85"/>
    <circle cx="605.0" cy="178.0" r="44.61"/>
    <circle cx="609.0" cy="179.0" r="46.39"/>
    <circle cx="614.0" cy="182.0" r="47"/>
    <circle cx="618.0" cy="184.0" r="46.49"/>
    <circle cx="623.0" cy="186.0" r="45.01"/>
    <circle cx="627.0" cy="187.0" r="42.75"/>
    <circle cx="631.0" cy="187.0" r="39.98"/>
    <circle cx="635.0" cy="186.0" r="37.02"/>
    <circle cx="639.0" cy="185.0" r="34.25"/>
    <circle cx="642.0" cy="183.0" r="31.99"/>
    <circle cx="645.0" cy="181.0" r="30.51"/>
    <circle cx="648.0" cy="178.0" r="30"/>
    <circle cx="651.0" cy="174.0" r="29.55"/>
    <circle cx="654.0" cy="171.0" r="28.25"/>
    <circle cx="657.0" cy="168.0" r="26.2"/>
    <circle cx="661.0" cy="165.0" r="23.57"/>
    <circle cx="664.0" cy="162.0" r="20.57"/>
    <circle cx="669.0" cy="159.0" r="17.43"/>
    <circle cx="673.0" cy="156.0" r="14.43"/>
    <circle cx="678.0" cy="152.0" r="11.8"/>
    <circle cx="683.0" cy="149.0" r="9.75"/>
    <circle cx="688.0" cy="146.0" r="8.45"/>
    <circle cx="694.0" cy="142.0" r="8"/>
    <circle cx="697.0" cy="140.0" r="8.16"/>
    <circle cx="701.0" cy="139.0" r="8.64"/>
    <circle cx="705.0" cy="137.0" r="9.42"/>
    <circle cx="709.0" cy="135.0" r="10.48"/>
    <circle cx="713.0" cy="134.0" r="11.77"/>
    <circle cx="718.0" cy="133.0" r="13.27"/>
    <circle cx="722.0" cy="132.0" r="14.9"/>
    <circle cx="727.0" cy="132.0" r="16.62"/>
    <circle cx="731.0" cy="131.0" r="18.38"/>
    <circle cx="736.0" cy="131.0" r="20.1"/>
    <circle cx="741.0" cy="131.0" r="21.73"/>
    <circle cx="746.0" cy="132.0" r="23.23"/>
    <circle cx="751.0" cy="132.0" r="24.52"/>
    <circle cx="756.0" cy="133.0" r="25.58"/>
    <circle cx="761.0" cy="134.0" r="26.36"/>
    <circle cx="767.0" cy="135.0" r="26.84"/>
    <circle cx="772.0" cy="136.0" r="27"/>
    <circle cx="779.0" cy="138.0" r="27.17"/>
    <circle cx="786.0" cy="139.0" r="27.69"/>
    <circle cx="792.0" cy="141.0" r="28.51"/>
    <circle cx="798.0" cy="142.0" r="29.59"/>
    <circle cx="804.0" cy="143.0" r="30.87"/>
    <circle cx="810.0" cy="143.0" r="32.28"/>
    <circle cx="815.0" cy="144.0" r="33.72"/>
    <circle cx="820.0" cy="144.0" r="35.13"/>
    <circle cx="824.0" cy="144.0" r="36.41"/>
    <circle cx="829.0" cy="144.0" r="37.49"/>
    <circle cx="833.0" cy="144.0" r="38.31"/>
    <circle cx="836.0" cy="144.0" r="38.83"/>
    <circle cx="840.0" cy="143.0" r="39"/>
    <circle cx="841.0" cy="143.0" r="39.0"/>
    <circle cx="843.0" cy="142.0" r="39.0"/>
    <circle cx="845.0" cy="142.0" r="39.0"/>
    <circle cx="847.0" cy="142.0" r="39.0"/>
    <circle cx="850.0" cy="142.0" r="39.0"/>
    <circle cx="853.0" cy="142.0" r="39.0"/>
    <circle cx="856.0" cy="142.0" r="39.0"/>
    <circle cx="860.0" cy="142.0" r="39.0"/>
    <circle cx="863.0" cy="142.0" r="39.0"/>
    <circle cx="867.0" cy="142.0" r="39.0"/>
    <circle cx="871.0" cy="142.0" r="39.0"/>
    <circle cx="876.0" cy="142.0" r="39.0"/>
    <circle cx="881.0" cy="143.0" r="39.0"/>
    <circle cx="886.0" cy="143.0" r="39.0"/>
    <circle cx="891.0" cy="143.0" r="39.0"/>
    <circle cx="896.0" cy="144.0" r="39.0"/>
    <circle cx="902.0" cy="144.0" r="39.0"/>
    <circle cx="908.0" cy="145.0" r="39.0"/>
    <circle cx="914.0" cy="145.0" r="39.0"/>
    <circle cx="921.0" cy="146.0" r="39.0"/>
    <circle cx="928.0" cy="146.0" r="39.0"/>
    <circle cx="935.0" cy="147.0" r="39.0"/>
    <circle cx="942.0" cy="148.0" r="39.0"/>
    <circle cx="950.0" cy="149.0" r="39.0"/>
    <circle cx="957.0" cy="150.0" r="39.0"/>
    <circle cx="966.0" cy="151.0" r="39.0"/>
    <circle cx="974.0" cy="151.0" r="39.0"/>
    <circle cx="982.0" cy="152.0" r="39"/>
    <circle cx="987.0" cy="153.0" r="38.85"/>
    <circle cx="992.0" cy="154.0" r="38.39"/>
    <circle cx="997.0" cy="154.0" r="37.63"/>
    <circle cx="1002.0" cy="155.0" r="36.59"/>
    <circle cx="1007.0" cy="155.0" r="35.28"/>
    <circle cx="1012.0" cy="156.0" r="33.72"/>
    <circle cx="1017.0" cy="157.0" r="31.94"/>
    <circle cx="1022.0" cy="157.0" r="29.96"/>
    <circle cx="1027.0" cy="158.0" r="27.83"/>
    <circle cx="1032.0" cy="158.0" r="25.57"/>
    <circle cx="1037.0" cy="159.0" r="23.22"/>
    <circle cx="1042.0" cy="160.0" r="20.81"/>
    <circle cx="1047.0" cy="160.0" r="18.39"/>
    <circle cx="1052.0" cy="161.0" r="16.0"/>
    <circle cx="1057.0" cy="161.0" r="13.68"/>
    <circle cx="1062.0" cy="162.0" r="11.45"/>
    <circle cx="1067.0" cy="162.0" r="9.37"/>
    <circle cx="1072.0" cy="163.0" r="7.45"/>
    <circle cx="1077.0" cy="164.0" r="5.74"/>
    <circle cx="1082.0" cy="164.0" r="4.26"/>
    <circle cx="1087.0" cy="165.0" r="3.04"/>
    <circle cx="1092.0" cy="165.0" r="2.09"/>
    <circle cx="1097.0" cy="166.0" r="1.43"/>
    <circle cx="1102.0" cy="167.0" r="1.07"/>
    <circle cx="1105.0" cy="167.0" r="1"/>
    <g stroke="blue">
      <path d="M815.0 910.0 L815.0 925.0"/>
      <path d="M838.86 909.25 L839.8 924.22"/>
      <path d="M862.63 907.0 L864.51 921.88"/>
      <path d="M886.2 903.27 L889.01 918.0"/>
      <path d="M909.5 898.06 L913.23 912.59"/>
      <path d="M932.43 891.4 L937.07 905.67"/>
      <path d="M954.89 883.32 L960.41 897.27"/>
      <path d="M976.8 873.83 L983.19 887.4"/>
      <path d="M998.07 863.0 L1005.3 876.14"/>
      <path d="M1018.61 850.84 L1026.65 863.5"/>
      <path d="M1038.36 837.43 L1047.18 849.57"/>
      <path d="M1057.22 822.8 L1066.78 834.36"/>
      <path d="M1075.13 807.01 L1085.4 817.94"/>
      <path d="M1092.01 790.13 L1102.94 800.4"/>
      <path d="M1107.8 772.22 L1119.36 781.78"/>
      <path d="M1122.43 753.36 L1134.57 762.18"/>
      <path d="M1135.84 733.61 L1148.5 741.65"/>
      <path d="M1148.0 713.07 L1161.14 720.3"/>
      <path d="M1158.83 691.8 L1172.4 698.19"/>
      <path d="M1168.32 669.89 L1182.27 675.41"/>
      <path d="M1176.4 647.43 L1190.67 652.07"/>
      <path d="M1183.06 624.5 L1197.59 628.23"/>
      <path d="M1188.27 601.2 L1203.0 604.01"/>
      <path d="M1192.0 577.63 L1206.88 579.51"/>
      <path d="M1194.25 553.86 L1209.22 554.8"/>
      <path d="M1195.0 530.0 L1210.0 530.0"/>
      <path d="M1194.25 506.14 L1209.22 505.2"/>
      <path d="M1192.0 482.37 L1206.88 480.49"/>
      <path d="M1188.27 458.8 L1203.0 455.99"/>
      <path d="M1183.06 435.5 L1197.59 431.77"/>
      <path d="M1176.4 412.57 L1190.67 407.93"/>
      <path d="M1168.32 390.11 L1182.27 384.59"/>
      <path d="M1158.83 368.2 L1172.4 361.81"/>
      <path d="M1148.0 346.93 L1161.14 339.7"/>
      <path d="M1135.84 326.39 L1148.5 318.35"/>
      <path d="M1122.43 306.64 L1134.57 297.82"/>
      <path d="M1107.8 287.78 L1119.36 278.22"/>
      <path d="M1092.01 269.87 L1102.94 259.6"/>
      <path d="M1075.13 252.99 L1085.4 242.06"/>
      <path d="M1057.22 237.2 L1066.78 225.64"/>
      <path d="M1038.36 222.57 L1047.18 210.43"/>
      <path d="M1018.61 209.16 L1026.65 196.5"/>
      <path d="M998.07 197.0 L1005.3 183.86"/>
      <path d="M976.8 186.17 L983.19 172.6"/>
      <path d="M954.89 176.68 L960.41 162.73"/>
      <path d="M932.43 168.6 L937.07 154.33"/>
      <path d="M909.5 161.94 L913.23 147.41"/>
      <path d="M886.2 156.73 L889.01 142.0"/>
      <path d="M862.63 153.0 L864.51 138.12"/>
      <path d="M838.86 150.75 L839.8 135.78"/>
      <path d="M815.0 150.0 L815.0 135.0"/>
      <path d="M791.14 150.75 L790.2 135.78"/>
      <path d="M767.37 153.0 L765.49 138.12"/>
      <path d="M743.8 156.73 L740.99 142.0"/>
      <path d="M720.5 161.94 L716.77 147.41"/>
      <path d="M697.57 168.6 L692.93 154.33"/>
      <path d="M675.11 176.68 L669.59 162.73"/>
      <path d="M653.2 186.17 L646.81 172.6"/>
      <path d="M631.93 197.0 L624.7 183.86"/>
      <path d="M611.39 209.16 L603.35 196.5"/>
      <path d="M591.64 222.57 L582.82 210.43"/>
      <path d="M572.78 237.2 L563.22 225.64"/>
      <path d="M554.87 252.99 L544.6 242.06"/>
      <path d="M537.99 269.87 L527.06 259.6"/>
      <path d="M522.2 287.78 L510.64 278.22"/>
      <path d="M507.57 306.64 L495.43 297.82"/>
      <path d="M494.16 326.39 L481.5 318.35"/>
      <path d="M482.0 346.93 L468.86 339.7"/>
      <path d="M471.17 368.2 L457.6 361.81"/>
      <path d="M461.68 390.11 L447.73 384.59"/>
      <path d="M453.6 412.57 L439.33 407.93"/>
      <path d="M446.94 435.5 L432.41 431.77"/>
      <path d="M441.73 458.8 L427.0 455.99"/>
      <path d="M438.0 482.37 L423.12 480.49"/>
      <path d="M435.75 506.14 L420.78 505.2"/>
      <path d="M435.0 530.0 L420.0 530.0"/>
      <path d="M435.75 553.86 L420.78 554.8"/>
      <path d="M438.0 577.63 L423.12 579.51"/>
      <path d="M441.73 601.2 L427.0 604.01"/>
      <path d="M446.94 624.5 L432.41 628.23"/>
      <path d="M453.6 647.43 L439.33 652.07"/>
      <path d="M461.68 669.89 L447.73 675.41"/>
      <path d="M471.17 691.8 L457.6 698.19"/>
      <path d="M482.0 713.07 L468.86 720.3"/>
      <path d="M494.16 733.61 L481.5 741.65"/>
      <path d="M507.57 753.36 L495.43 762.18"/>
      <path d="M522.2 772.22 L510.64 781.78"/>
      <path d="M537.99 790.13 L527.06 800.4"/>
      <path d="M554.87 807.01 L544.6 817.94"/>
      <path d="M572.78 822.8 L563.22 834.36"/>
      <path d="M591.64 837.43 L582.82 849.57"/>
      <path d="M611.39 850.84 L603.35 863.5"/>
      <path d="M631.93 863.0 L624.7 876.14"/>
      <path d="M653.2 873.83 L646.81 887.4"/>
      <path d="M675.11 883.32 L669.59 897.27"/>
      <path d="M697.57 891.4 L692.93 905.67"/>
      <path d="M720.5 898.06 L716.77 912.59"/>
      <path d="M743.8 903.27 L740.99 918.0"/>
      <path d="M767.37 907.0 L765.49 921.88"/>
      <path d="M791.14 909.25 L790.2 924.22"/>
    </g>
    <g stroke="red">
      <circle cx="245" cy="530" r="43"/>
      <circle cx="245" cy="530" r="53"/>
      <circle cx="1385" cy="530" r="43"/>
      <path d="M245 530L779.0 451.0L1385 530"/>
      <circle cx="779.0" cy="451.0" r="28.29"/>
    </g>
  </g>
</svg>
