<svg version="1.1" width="1150" height="870" xmlns="http://www.w3.org/2000/svg">
  <!-- Seed: 3689662645907748008 -->
  <!-- Size: SvgSize.Size9x12 -->
  <!-- Params:
    draw_circles: True
    draw_border: True
    rotate_range: 0.3141592653589793
    ring_pad: 5
    ring_weights: [(0, 5), (1, 2), (2, 1), (3, 0.5)]
    border_weights: [(<BorderType.Empty: 0>, 5), (<BorderType.Circles: 1>, 1), (<BorderType.Starburst: 2>, 2)]
    padding: 0
    size_range: [RangeInt] min: 20 max: 350
    size_pad: 20
    origin_shuffle_range: 0
  -->
  <g stroke="black" fill="none">
    <path d="M291.0 295.35Q300.66 299.02 310.0 295.0Q319.9 298.23 330.0 295.0Q337.86 279.62 350.0 295.0Q359.0 295.18 369.0 295.0Q377.12 276.22 388.0 295.0Q397.76 302.92 408.0 295.0"/>
    <path d="M290.95 296.35Q300.2 300.96 309.89 297.89Q319.42 302.09 329.79 299.88Q339.15 285.36 349.69 301.87Q358.63 302.95 368.6 303.76Q378.54 285.89 387.5 305.66Q396.42 314.5 407.4 307.65"/>
    <path d="M290.8 297.33Q299.55 302.84 309.49 300.75Q318.55 305.88 329.1 304.72Q339.85 291.2 348.7 308.68Q357.49 310.64 367.32 312.44Q379.0 295.65 385.95 316.21Q393.94 325.9 405.55 320.17"/>
    <path d="M290.56 298.3Q298.71 304.65 308.81 303.56Q317.32 309.57 327.93 309.46Q339.98 297.08 347.04 315.35Q355.59 318.18 365.19 320.95Q378.48 305.4 383.35 326.55Q390.34 336.99 402.46 332.45"/>
    <path d="M290.21 299.23Q297.69 306.37 307.86 306.29Q315.72 313.11 326.29 314.06Q339.51 302.94 344.72 321.83Q352.94 325.49 362.23 329.21Q377.0 315.06 379.73 336.59Q385.65 347.67 398.16 344.36"/>
    <path d="M289.78 300.13Q296.51 307.98 306.64 308.91Q313.78 316.48 324.2 318.48Q338.46 308.73 341.76 328.04Q349.58 332.5 358.45 337.13Q374.56 324.52 375.14 346.22Q379.92 357.83 392.7 355.78"/>
    <path d="M289.26 300.98Q295.18 309.46 305.16 311.4Q311.51 319.64 321.68 322.66Q336.85 314.38 338.21 333.93Q345.54 339.15 353.91 344.63Q371.19 333.69 369.6 355.34Q373.21 367.37 386.13 366.6"/>
    <path d="M288.66 301.78Q293.7 310.8 303.44 313.72Q308.94 322.56 318.76 326.58Q334.67 319.85 334.08 339.43Q340.86 345.36 348.64 351.65Q366.92 342.48 363.19 363.86Q365.58 376.19 378.51 376.72"/>
    <path d="M287.98 302.51Q292.1 311.99 301.5 315.87Q306.1 325.2 315.46 330.18Q331.97 325.07 329.43 344.5Q335.59 351.07 342.7 358.1Q361.8 350.8 355.96 371.7Q357.11 384.21 369.93 386.02"/>
    <path d="M287.23 303.17Q290.39 313.01 299.35 317.8Q303.0 327.55 311.82 333.44Q328.75 330.0 324.29 349.08Q329.77 356.23 336.14 363.93Q355.88 358.57 347.99 378.79Q347.88 391.35 360.46 394.42"/>
    <path d="M286.43 303.75Q288.59 313.86 297.03 319.52Q299.68 329.59 307.88 336.32Q325.07 334.58 318.73 353.12Q323.46 360.78 329.04 369.08Q349.21 365.71 339.35 385.04Q337.99 397.53 350.2 401.84"/>
    <path d="M285.56 304.25Q286.71 314.52 294.54 321.0Q296.18 331.28 303.67 338.79Q320.94 338.78 312.79 356.59Q316.74 364.68 321.46 373.5Q341.87 372.15 330.13 390.41Q327.53 402.7 339.25 408.2"/>
    <path d="M284.65 304.66Q284.77 314.99 291.92 322.22Q292.53 332.61 299.23 340.83Q316.42 342.54 306.53 359.45Q309.66 367.9 313.48 377.14Q333.92 377.83 320.42 394.83Q316.61 406.8 327.72 413.44"/>
    <path d="M283.71 304.98Q282.79 315.27 289.19 323.17Q288.76 333.57 294.61 342.42Q311.55 345.83 300.02 361.68Q302.29 370.39 305.17 379.97Q325.44 382.69 310.32 398.26Q305.34 409.79 315.73 417.51"/>
    <path d="M282.74 305.2Q280.8 315.35 286.38 323.85Q284.92 334.15 289.85 343.54Q306.37 348.62 293.33 363.24Q294.71 372.14 296.63 381.95Q316.53 386.68 299.93 400.66Q293.82 411.65 303.4 420.36"/>
    <path d="M281.75 305.32Q278.81 315.23 283.52 324.24Q281.04 334.35 285.01 344.19Q300.94 350.88 286.51 364.13Q287.0 373.12 287.93 383.08Q307.26 389.77 289.35 402.02Q282.18 412.34 290.84 421.97"/>
    <path d="M280.75 305.35Q276.84 314.92 280.63 324.35Q277.15 334.16 280.13 344.34Q295.31 352.59 279.63 364.34Q279.23 373.33 279.16 383.33Q297.72 391.91 278.68 402.33Q270.53 411.88 278.18 422.32"/>
    <path d="M279.76 305.27Q274.91 314.4 277.74 324.17Q273.31 333.59 275.25 344.01Q289.54 353.73 272.77 363.86Q271.47 372.77 270.41 382.71Q288.03 393.1 268.04 401.56Q258.98 410.26 265.56 421.41"/>
    <path d="M278.77 305.1Q273.05 313.7 274.89 323.7Q269.54 332.63 270.44 343.2Q283.68 354.29 265.99 362.7Q263.81 371.43 261.76 381.22Q278.26 393.31 257.53 399.75Q247.64 407.49 253.08 419.24"/>
    <path d="M277.82 304.83Q271.26 312.82 272.1 322.95Q265.88 331.3 265.73 341.91Q277.8 354.26 259.36 360.87Q256.32 369.34 253.3 378.88Q268.52 392.55 247.25 396.89Q236.64 403.62 240.88 415.85"/>
    <path d="M276.89 304.47Q269.57 311.76 269.39 321.93Q262.38 329.62 261.17 340.16Q271.95 353.65 252.94 358.39Q249.08 366.52 245.13 375.71Q258.9 390.83 237.31 393.03Q226.08 398.66 229.09 411.26"/>
    <path d="M276.0 304.01Q267.99 310.54 266.8 320.64Q259.06 327.59 256.8 337.96Q266.19 352.46 246.8 355.28Q242.15 362.99 237.3 371.74Q249.51 388.15 227.8 388.19Q216.07 392.68 217.8 405.51"/>
    <path d="M275.16 303.47Q266.54 309.17 264.36 319.1Q255.96 325.25 252.68 335.34Q260.58 350.7 241.01 351.58Q235.61 358.78 229.91 367.0Q240.42 384.56 218.82 382.43Q206.7 385.73 207.15 398.67"/>
    <path d="M274.38 302.85Q265.24 307.67 262.07 317.33Q253.1 322.61 248.84 332.32Q255.17 348.4 235.61 347.32Q229.52 353.95 223.03 361.56Q231.74 380.07 210.46 375.81Q198.07 377.89 197.23 390.8"/>
    <path d="M273.67 302.15Q264.09 306.04 259.98 315.33Q250.53 319.69 245.32 328.94Q250.02 345.56 230.66 342.54Q223.94 348.53 216.73 355.46Q223.55 374.75 202.8 368.39Q190.27 369.22 188.14 381.99"/>
    <path d="M273.03 301.39Q263.11 304.3 258.09 313.14Q248.26 316.54 242.15 325.22Q245.17 342.23 226.21 337.29Q218.93 342.58 211.06 348.76Q215.93 368.63 195.92 360.24Q183.36 359.82 179.98 372.31"/>
    <path d="M272.47 300.56Q262.31 302.47 256.44 310.77Q246.31 313.17 239.37 321.2Q240.68 338.43 222.31 331.63Q214.53 336.17 206.09 341.53Q208.96 361.79 189.88 351.44Q177.43 349.77 172.81 361.87"/>
    <path d="M271.99 299.69Q261.69 300.58 255.02 308.25Q244.71 309.63 237.0 316.93Q236.59 334.2 218.99 325.6Q210.8 329.35 201.87 333.85Q202.7 354.29 184.75 342.09Q172.52 339.19 166.73 350.77"/>
    <path d="M271.6 298.77Q261.27 298.63 253.87 305.6Q243.47 305.95 235.07 312.44Q232.95 329.58 216.28 319.28Q207.76 322.19 198.43 325.78Q197.22 346.2 180.57 332.28Q168.7 328.17 161.78 339.12"/>
    <path d="M271.31 297.82Q261.04 296.65 252.98 302.85Q242.6 302.16 233.6 307.78Q229.78 324.63 214.22 312.72Q205.45 314.76 195.81 317.4Q192.58 337.6 177.4 322.09Q165.99 316.83 158.01 327.03"/>
    <path d="M271.11 296.84Q261.01 294.65 252.38 300.02Q242.11 298.3 232.6 303.0Q227.11 319.38 212.82 305.98Q203.9 307.14 194.04 308.81Q188.81 328.59 175.25 311.64Q164.42 305.27 155.47 314.62"/>
    <path d="M271.01 295.85Q261.18 292.67 252.05 297.15Q242.01 294.41 232.08 298.14Q224.99 313.9 212.1 299.14Q203.1 299.41 193.13 300.09Q185.96 319.24 174.15 301.03Q164.01 293.61 154.18 302.03"/>
    <path d="M271.01 294.85Q261.54 290.71 252.02 294.25Q242.3 290.54 232.04 293.26Q223.42 308.23 212.07 292.26Q203.09 291.63 193.09 291.31Q184.05 309.66 174.12 290.37Q164.77 281.97 154.14 289.37"/>
    <path d="M271.11 293.86Q262.1 288.79 252.27 291.37Q242.97 286.71 232.5 288.39Q222.43 302.43 212.72 285.41Q203.85 283.89 193.93 282.58Q183.11 299.94 175.14 279.75Q166.68 270.47 155.37 276.77"/>
    <path d="M271.31 292.88Q262.85 286.94 252.81 288.53Q244.02 282.96 233.43 283.6Q222.01 296.56 214.05 278.66Q205.37 276.27 195.63 273.97Q183.14 290.17 177.22 269.29Q169.72 259.21 157.84 264.35"/>
    <path d="M271.6 291.93Q263.78 285.18 253.63 285.76Q245.44 279.34 234.84 278.92Q222.18 290.68 216.04 272.08Q207.64 268.83 198.19 265.58Q184.14 280.45 180.33 259.08Q173.87 248.31 161.54 252.24"/>
    <path d="M271.99 291.01Q264.88 283.51 254.72 283.08Q247.21 275.88 236.7 274.41Q222.94 284.85 218.68 265.73Q210.65 261.66 201.56 257.48Q186.1 270.88 184.44 249.24Q179.09 237.88 166.43 240.56"/>
    <path d="M272.47 290.14Q266.13 281.97 256.07 280.53Q249.31 272.61 239.01 270.1Q224.27 279.12 221.94 259.67Q214.35 254.82 205.73 249.76Q189.01 261.55 189.52 239.86Q185.32 228.01 172.45 229.43"/>
    <path d="M273.03 289.31Q267.54 280.55 257.67 278.12Q251.73 269.57 241.73 266.04Q226.17 273.56 225.79 253.97Q218.72 248.39 210.64 242.49Q192.83 252.56 195.5 231.02Q192.5 218.82 179.55 218.95"/>
    <path d="M273.67 288.55Q269.08 279.29 259.5 275.88Q254.45 266.78 244.84 262.28Q228.61 268.2 230.18 248.67Q223.7 242.42 216.25 235.75Q197.53 244.0 202.33 222.83Q200.56 210.39 187.66 209.22"/>
    <path d="M274.38 287.85Q270.74 278.18 261.55 273.84Q257.42 264.28 248.31 258.84Q231.58 263.12 235.08 243.85Q229.26 236.98 222.51 229.6Q203.06 235.94 209.94 215.36Q209.42 202.8 196.7 200.36"/>
    <path d="M275.16 287.23Q272.5 277.24 263.79 272.01Q260.63 262.09 252.11 255.77Q235.03 258.36 240.44 239.53Q235.33 232.12 229.35 224.1Q209.36 228.48 218.26 208.68Q218.99 196.14 206.58 192.44"/>
    <path d="M276.0 286.69Q274.35 276.49 266.2 270.41Q264.05 260.23 256.2 253.09Q238.94 253.97 246.2 235.77Q241.85 227.89 236.7 219.31Q216.38 221.67 227.2 202.86Q229.17 190.45 217.2 185.54"/>
    <path d="M276.89 286.23Q276.26 275.92 268.75 269.06Q267.63 258.71 260.53 250.83Q243.27 249.99 252.3 232.6Q248.76 224.32 244.49 215.28Q224.03 215.61 236.67 197.96Q239.88 185.81 228.45 179.73"/>
    <path d="M277.82 285.87Q278.22 275.54 271.43 267.97Q271.34 257.56 265.06 249.01Q247.98 246.46 258.69 230.05Q256.0 221.47 252.64 212.04Q232.26 210.33 246.59 194.03Q250.99 182.26 240.22 175.07"/>
    <path d="M278.77 285.6Q280.2 275.36 274.21 267.15Q275.15 256.79 269.76 247.66Q253.01 243.41 265.3 228.16Q263.48 219.34 261.08 209.63Q240.96 205.9 256.85 191.11Q262.4 179.84 252.4 171.61"/>
    <path d="M279.76 285.43Q282.2 275.38 277.05 266.62Q279.02 256.4 274.56 246.77Q258.32 240.88 272.07 226.93Q271.13 217.98 269.71 208.08Q250.07 202.36 267.35 189.22Q273.99 178.56 264.86 169.38"/>
    <path d="M280.75 285.35Q284.18 275.6 279.93 266.37Q282.91 256.4 279.43 246.37Q263.86 238.89 278.93 226.38Q278.88 217.38 278.46 207.39Q259.48 199.74 277.98 188.39Q285.65 178.44 277.48 168.4"/>
    <path d="M281.75 285.38Q286.13 276.02 282.82 266.4Q286.78 256.78 284.31 246.46Q269.56 237.47 285.81 226.52Q286.66 217.55 287.23 207.57Q269.11 198.07 288.65 188.62Q297.27 179.49 290.14 168.68"/>
    <path d="M282.74 285.5Q288.03 276.62 285.69 266.73Q290.59 257.55 289.16 247.03Q275.38 236.62 292.64 227.34Q294.38 218.5 295.94 208.63Q278.85 197.37 299.24 189.91Q308.73 181.68 302.71 170.22"/>
    <path d="M283.71 285.72Q289.86 277.41 288.52 267.34Q294.31 258.69 293.93 248.09Q281.26 236.35 299.35 228.83Q301.96 220.22 304.5 210.54Q288.62 197.65 309.64 192.25Q319.91 185.01 315.06 173.0"/>
    <path d="M284.65 286.04Q291.6 278.39 291.27 268.23Q297.89 260.2 298.58 249.61Q287.13 236.67 305.88 230.99Q309.34 222.68 312.82 213.31Q298.31 198.89 319.77 195.62Q330.7 189.43 327.07 177.0"/>
    <path d="M285.56 286.45Q293.24 279.53 293.92 269.38Q301.31 262.05 303.04 251.59Q292.94 237.57 312.17 233.79Q316.43 225.86 320.84 216.88Q307.83 201.09 329.5 199.97Q341.0 194.9 338.63 182.18"/>
    <path d="M286.43 286.95Q294.75 280.82 296.44 270.8Q304.52 264.24 307.29 254.0Q298.64 239.05 318.14 237.2Q323.17 229.73 328.45 221.24Q317.08 204.23 338.76 205.28Q350.7 201.38 349.61 188.48"/>
    <path d="M287.23 287.53Q296.13 282.26 298.81 272.46Q307.5 266.74 311.28 256.82Q304.15 241.08 323.75 241.19Q329.5 234.26 335.59 226.33Q325.97 208.28 347.44 211.48Q359.71 208.78 359.91 195.84"/>
    <path d="M287.98 288.19Q297.36 283.84 301.0 274.35Q310.22 269.52 314.96 260.03Q309.44 243.66 328.93 245.71Q335.34 239.39 342.19 232.11Q334.42 213.19 355.46 218.51Q367.94 217.05 369.43 204.19"/>
    <path d="M288.66 288.92Q298.42 285.52 302.99 276.44Q312.65 272.55 318.31 263.59Q314.45 246.75 333.63 250.73Q340.64 245.08 348.19 238.52Q342.33 218.92 362.74 226.3Q375.3 226.1 378.06 213.45"/>
    <path d="M289.26 289.72Q299.31 287.3 304.76 278.72Q314.76 275.82 321.29 267.46Q319.12 250.32 337.81 256.19Q345.35 251.27 353.51 245.49Q349.64 225.4 369.21 234.79Q381.73 235.83 385.74 223.52"/>
    <path d="M289.78 290.57Q300.02 289.17 306.3 281.17Q316.54 279.28 323.87 271.61Q323.42 254.34 341.43 262.04Q349.42 257.9 358.12 252.96Q356.26 232.58 374.8 243.87Q387.16 246.16 392.37 234.3"/>
    <path d="M290.21 291.47Q300.54 291.09 307.59 283.76Q317.96 282.9 326.02 275.99Q327.29 258.76 344.45 268.23Q352.81 264.89 361.95 260.85Q362.14 240.39 379.46 253.46Q391.53 256.97 397.89 245.7"/>
    <path d="M290.56 292.4Q300.87 293.06 308.61 286.47Q319.02 286.64 327.72 280.57Q330.7 263.56 346.83 274.68Q355.48 272.2 364.99 269.08Q367.21 248.74 383.14 263.48Q394.8 268.17 402.25 257.58"/>
    <path d="M290.8 293.37Q301.0 295.05 309.36 289.26Q319.69 290.47 328.96 285.3Q333.62 268.66 348.56 281.33Q357.42 279.73 367.19 277.57Q371.42 257.56 385.81 273.81Q396.94 279.63 405.41 269.84"/>
    <path d="M290.95 294.35Q300.93 297.04 309.82 292.11Q319.99 294.34 329.72 290.12Q336.02 274.03 349.62 288.13Q358.6 287.41 368.53 286.24Q374.73 266.75 387.43 284.35Q397.93 291.25 407.33 282.36"/>
    <path d="M585.0 295.35Q594.41 300.19 604.0 295.0Q613.13 303.54 624.0 295.0Q632.63 308.0 644.0 295.0Q650.78 276.88 663.0 295.0Q669.93 319.68 682.0 295.0Q691.39 307.28 702.0 295.0"/>
    <path d="M584.95 296.35Q593.83 302.1 603.89 297.89Q612.13 307.3 623.79 299.88Q631.08 313.67 643.69 301.87Q652.25 284.52 662.6 303.76Q667.04 329.01 681.5 305.66Q689.62 318.81 701.4 307.65"/>
    <path d="M584.8 297.33Q593.07 303.94 603.49 300.75Q610.75 310.93 623.1 304.72Q628.98 319.17 642.7 308.68Q652.94 292.27 661.32 312.44Q663.23 338.01 679.95 316.21Q686.72 330.11 699.55 320.17"/>
    <path d="M584.56 298.3Q592.12 305.69 602.81 303.56Q609.02 314.42 621.93 309.46Q626.34 324.42 641.04 315.35Q652.86 300.04 659.19 320.95Q658.54 346.58 677.35 326.55Q682.7 341.06 696.46 332.45"/>
    <path d="M584.21 299.23Q591.01 307.35 601.86 306.29Q606.96 317.71 620.29 314.06Q623.19 329.39 638.72 321.83Q652.01 307.77 656.23 329.21Q653.03 354.64 673.73 336.59Q677.62 351.56 692.16 344.36"/>
    <path d="M583.78 300.13Q589.73 308.88 600.64 308.91Q604.57 320.78 618.2 318.48Q619.56 334.02 635.76 328.04Q650.39 315.38 652.45 337.13Q646.74 362.12 669.14 346.22Q671.51 361.49 686.7 355.78"/>
    <path d="M583.26 300.98Q588.31 310.28 599.16 311.4Q601.89 323.6 615.68 322.66Q615.49 338.26 632.21 333.93Q648.02 322.78 647.91 344.63Q639.73 368.93 663.6 355.34Q664.44 370.78 680.13 366.6"/>
    <path d="M582.66 301.78Q586.76 311.53 597.44 313.72Q598.95 326.13 612.76 326.58Q611.02 342.08 628.08 339.43Q644.92 329.92 642.64 351.65Q632.08 375.01 657.19 363.86Q656.49 379.31 672.51 376.72"/>
    <path d="M581.98 302.51Q585.09 312.62 595.5 315.87Q595.76 328.37 609.46 330.18Q606.18 345.44 623.43 344.5Q641.13 336.71 636.7 358.1Q623.87 380.3 649.96 371.7Q647.72 387.0 663.93 386.02"/>
    <path d="M581.23 303.17Q583.32 313.54 593.35 317.8Q592.37 330.27 605.82 333.44Q601.04 348.29 618.29 349.08Q636.69 343.09 630.14 363.93Q615.17 384.74 641.99 378.79Q638.24 393.79 654.46 394.42"/>
    <path d="M580.43 303.75Q581.47 314.28 591.03 319.52Q588.81 331.83 601.88 336.32Q595.64 350.62 612.73 353.12Q631.63 348.99 623.04 369.08Q606.07 388.3 633.35 385.04Q628.12 399.6 644.2 401.84"/>
    <path d="M579.56 304.25Q579.55 314.83 588.54 321.0Q585.11 333.02 597.67 338.79Q590.04 352.4 606.79 356.59Q626.0 354.36 615.46 373.5Q596.66 390.93 624.13 390.41Q617.48 404.37 633.25 408.2"/>
    <path d="M578.65 304.66Q577.59 315.18 585.92 322.22Q581.31 333.84 593.23 340.83Q584.28 353.62 600.53 359.45Q619.88 359.15 607.48 377.14Q587.03 392.61 614.42 394.83Q606.41 408.05 621.72 413.44"/>
    <path d="M577.71 304.98Q575.6 315.34 583.19 323.17Q577.44 334.27 588.61 342.42Q578.43 354.25 594.02 361.68Q613.3 363.3 599.17 379.97Q577.29 393.32 604.32 398.26Q595.04 410.62 609.73 417.51"/>
    <path d="M576.74 305.2Q573.61 315.3 580.38 323.85Q573.56 334.32 583.85 343.54Q572.55 354.3 587.33 363.24Q606.34 366.78 590.63 381.95Q567.52 393.07 593.93 400.66Q583.46 412.04 597.4 420.36"/>
    <path d="M575.75 305.32Q571.63 315.07 577.52 324.24Q569.68 333.99 579.01 344.19Q566.69 353.76 580.51 364.13Q599.08 369.54 581.93 383.08Q557.83 391.84 583.35 402.02Q571.8 412.31 584.84 421.97"/>
    <path d="M574.75 305.35Q569.68 314.63 574.63 324.35Q565.86 333.27 574.13 344.34Q560.92 352.65 573.63 364.34Q591.57 371.57 573.16 383.33Q548.31 389.65 572.68 402.33Q560.17 411.41 572.18 422.32"/>
    <path d="M573.76 305.27Q567.79 314.01 571.74 324.17Q562.13 332.17 569.25 344.01Q555.28 350.96 566.77 363.86Q583.9 372.84 564.41 382.71Q539.05 386.52 562.04 401.56Q548.69 409.35 559.56 421.41"/>
    <path d="M572.77 305.1Q565.96 313.2 568.89 323.7Q558.53 330.7 564.44 343.2Q549.84 348.72 559.99 362.7Q576.14 373.34 555.76 381.22Q530.16 382.49 551.53 399.75Q537.47 406.17 547.08 419.24"/>
    <path d="M571.82 304.83Q564.23 312.21 566.1 322.95Q555.09 328.89 559.73 341.91Q544.66 345.95 553.36 360.87Q568.37 373.07 547.3 378.88Q521.7 377.59 541.25 396.89Q526.62 401.88 534.88 415.85"/>
    <path d="M570.89 304.47Q562.61 311.05 563.39 321.93Q551.85 326.74 555.17 340.16Q539.77 342.68 546.94 358.39Q560.66 372.02 539.13 375.71Q513.78 371.87 531.31 393.03Q516.25 396.53 523.09 411.26"/>
    <path d="M570.0 304.01Q561.11 309.74 560.8 320.64Q548.84 324.28 550.8 337.96Q535.23 338.93 540.8 355.28Q553.1 370.21 531.3 371.74Q506.46 365.4 521.8 388.19Q506.47 390.18 511.8 405.51"/>
    <path d="M569.16 303.47Q559.74 308.29 558.36 319.1Q546.09 321.53 546.68 335.34Q531.09 334.76 535.01 351.58Q545.75 367.66 523.91 367.0Q499.83 358.23 512.82 382.43Q497.37 382.89 501.15 398.67"/>
    <path d="M568.38 302.85Q558.53 306.7 556.07 317.33Q543.63 318.52 542.84 332.32Q527.38 330.19 529.61 347.32Q538.7 364.39 517.03 361.56Q493.94 350.43 504.46 375.81Q489.04 374.72 491.23 390.8"/>
    <path d="M567.67 302.15Q557.48 305.01 553.98 315.33Q541.48 315.28 539.32 328.94Q524.15 325.28 524.66 342.54Q532.01 360.43 510.73 355.46Q488.86 342.09 496.8 368.39Q481.56 365.77 482.14 381.99"/>
    <path d="M567.03 301.39Q556.61 303.21 552.09 313.14Q539.66 311.85 536.15 325.22Q521.42 320.06 520.21 337.29Q525.74 355.83 505.06 348.76Q484.64 333.28 489.92 360.24Q475.02 356.11 473.98 372.31"/>
    <path d="M566.47 300.56Q555.92 301.34 550.44 310.77Q538.19 308.25 533.37 321.2Q519.23 314.61 516.31 331.63Q519.96 350.62 500.09 341.53Q481.31 324.09 483.88 351.44Q469.46 345.86 466.81 361.87"/>
    <path d="M565.99 299.69Q555.41 299.41 549.02 308.25Q537.09 304.52 531.0 316.93Q517.59 308.96 512.99 325.6Q514.73 344.87 495.87 333.85Q478.91 314.62 478.75 342.09Q464.96 335.1 460.73 350.77"/>
    <path d="M565.6 298.77Q555.11 297.44 547.87 305.6Q536.37 300.7 529.07 312.44Q516.52 303.17 510.28 319.28Q510.1 338.62 492.43 325.78Q477.47 304.96 474.57 332.28Q461.55 323.94 455.78 339.12"/>
    <path d="M565.31 297.82Q555.0 295.45 546.98 302.85Q536.03 296.82 527.6 307.78Q516.03 297.31 508.22 312.72Q506.12 331.94 489.81 317.4Q477.0 295.2 471.4 322.09Q459.26 312.51 452.01 327.03"/>
    <path d="M565.11 296.84Q555.09 293.46 546.38 300.02Q536.07 292.94 526.6 303.0Q516.13 291.43 506.82 305.98Q502.81 324.9 488.04 308.81Q477.5 285.44 469.25 311.64Q458.13 300.9 449.47 314.62"/>
    <path d="M565.01 295.85Q555.37 291.49 546.05 297.15Q536.51 289.07 526.08 298.14Q516.81 285.59 506.1 299.14Q500.23 317.57 487.13 300.09Q478.97 275.78 468.15 301.03Q458.16 289.23 448.18 302.03"/>
    <path d="M565.01 294.85Q555.86 289.55 546.02 294.25Q537.32 285.27 526.04 293.26Q518.07 279.84 506.07 292.26Q498.39 310.01 487.09 291.31Q481.4 266.32 468.12 290.37Q459.35 277.63 448.14 289.37"/>
    <path d="M565.11 293.86Q556.53 287.67 546.27 291.37Q538.51 281.57 526.5 288.39Q519.9 274.25 506.72 285.41Q497.31 302.31 487.93 282.58Q484.75 257.14 469.14 279.75Q461.69 266.2 449.37 276.77"/>
    <path d="M565.31 292.88Q557.38 285.87 546.81 288.53Q540.07 278.0 527.43 283.6Q522.27 268.87 508.05 278.66Q497.0 294.54 489.63 273.97Q489.01 248.35 471.22 269.29Q465.15 255.06 451.84 264.35"/>
    <path d="M565.6 291.93Q558.42 284.17 547.63 285.76Q541.97 274.61 528.84 278.92Q525.17 263.75 510.04 272.08Q497.47 286.78 492.19 265.58Q494.11 240.02 474.33 259.08Q469.71 244.33 455.54 252.24"/>
    <path d="M565.99 291.01Q559.61 282.57 548.72 283.08Q544.2 271.43 530.7 274.41Q528.57 258.95 512.68 265.73Q498.71 279.11 495.56 257.48Q500.03 232.24 478.44 249.24Q475.31 234.1 460.43 240.56"/>
    <path d="M566.47 290.14Q560.96 281.1 550.07 280.53Q546.73 268.48 533.01 270.1Q532.42 254.51 515.94 259.67Q500.71 271.59 499.73 249.76Q506.68 225.09 483.52 239.86Q481.91 224.48 466.45 229.43"/>
    <path d="M567.03 289.31Q562.45 279.77 551.67 278.12Q549.55 265.8 535.73 266.04Q536.7 250.47 519.79 253.97Q503.44 264.31 504.64 242.49Q514.02 218.64 489.5 231.02Q489.43 215.56 473.55 218.95"/>
    <path d="M567.67 288.55Q564.06 278.6 553.5 275.88Q552.62 263.41 538.84 262.28Q541.36 246.88 524.18 248.67Q506.89 257.34 510.25 235.75Q521.96 212.94 496.33 222.83Q497.8 207.44 481.66 209.22"/>
    <path d="M568.38 287.85Q565.78 277.6 555.55 273.84Q555.91 261.34 542.31 258.84Q546.35 243.77 529.08 243.85Q511.01 250.75 516.51 229.6Q530.43 208.07 503.94 215.36Q506.93 200.19 490.7 200.36"/>
    <path d="M569.16 287.23Q567.6 276.77 557.79 272.01Q559.39 259.61 546.11 255.77Q551.63 241.18 534.44 239.53Q515.77 244.6 523.35 224.1Q539.34 204.07 512.26 208.68Q516.75 193.88 500.58 192.44"/>
    <path d="M570.0 286.69Q569.48 276.12 560.2 270.41Q563.03 258.23 550.2 253.09Q557.14 239.12 540.2 235.77Q521.12 238.95 530.7 219.31Q548.6 200.97 521.2 202.86Q527.14 188.59 511.2 185.54"/>
    <path d="M570.89 286.23Q571.43 275.67 562.75 269.06Q566.78 257.22 554.53 250.83Q562.83 237.62 546.3 232.6Q527.0 233.87 538.49 215.28Q558.13 198.81 530.67 197.96Q538.01 184.35 522.45 179.73"/>
    <path d="M571.82 285.87Q573.4 275.41 565.43 267.97Q570.62 256.6 559.06 249.01Q568.64 236.69 552.69 230.05Q533.36 229.39 546.64 212.04Q567.83 197.61 540.59 194.03Q549.24 181.22 534.22 175.07"/>
    <path d="M572.77 285.6Q575.4 275.35 568.21 267.15Q574.5 256.35 563.76 247.66Q574.51 236.35 559.3 228.16Q540.13 225.58 555.08 209.63Q577.6 197.38 550.85 191.11Q560.74 179.22 546.4 171.61"/>
    <path d="M573.76 285.43Q577.39 275.49 571.05 266.62Q578.38 256.5 568.56 246.77Q580.38 236.6 566.07 226.93Q547.25 222.45 563.71 208.08Q587.34 198.13 561.35 189.22Q572.37 178.38 558.86 169.38"/>
    <path d="M574.75 285.35Q579.35 275.83 573.93 266.37Q582.24 257.03 573.43 246.37Q586.21 237.42 572.93 226.38Q554.65 220.05 572.46 207.39Q596.96 199.84 571.98 188.39Q584.03 178.7 571.48 168.4"/>
    <path d="M575.75 285.38Q581.27 276.36 576.82 266.4Q586.02 257.94 578.31 246.46Q591.92 238.83 579.81 226.52Q562.25 218.4 581.23 207.57Q606.36 202.5 582.65 188.62Q595.6 180.18 584.14 168.68"/>
    <path d="M576.74 285.5Q583.13 277.08 579.69 266.73Q589.69 259.22 583.16 247.03Q597.46 240.79 586.64 227.34Q569.98 217.51 589.94 208.63Q615.45 206.08 593.24 189.91Q606.96 182.8 596.71 170.22"/>
    <path d="M577.71 285.72Q584.91 277.98 582.52 267.34Q593.21 260.86 587.93 248.09Q602.78 243.3 593.35 228.83Q577.75 217.4 598.5 210.54Q624.13 210.56 603.64 192.25Q618.01 186.54 609.06 173.0"/>
    <path d="M578.65 286.04Q586.59 279.05 585.27 268.23Q596.55 262.85 592.58 249.61Q607.83 246.33 599.88 230.99Q585.5 218.06 606.82 213.31Q632.33 215.87 613.77 195.62Q628.63 191.37 621.07 177.0"/>
    <path d="M579.56 286.45Q588.16 280.29 587.92 269.38Q599.68 265.15 597.04 251.59Q612.55 249.84 606.17 233.79Q593.14 219.49 614.84 216.88Q639.96 221.97 623.5 199.97Q638.72 197.22 632.63 182.18"/>
    <path d="M580.43 286.95Q589.59 281.67 590.44 270.8Q602.57 267.76 601.29 254.0Q616.89 253.8 612.14 237.2Q600.6 221.67 622.45 221.24Q646.94 228.8 632.76 205.28Q648.17 204.05 643.61 188.48"/>
    <path d="M581.23 287.53Q590.88 283.19 592.81 272.46Q605.18 270.64 605.28 256.82Q620.82 258.18 617.75 241.19Q607.81 224.59 629.59 226.33Q653.21 236.3 641.44 211.48Q656.9 211.79 653.91 195.84"/>
    <path d="M581.98 288.19Q592.02 284.83 595.0 274.35Q607.49 273.77 608.96 260.03Q624.29 262.93 622.93 245.71Q614.7 228.21 636.19 232.11Q658.7 244.38 649.46 218.51Q664.81 220.36 663.43 204.19"/>
    <path d="M582.66 288.92Q592.98 286.58 596.99 276.44Q609.48 277.11 612.31 263.59Q627.28 268.0 627.63 250.73Q621.18 232.49 642.19 238.52Q663.36 252.97 656.74 226.3Q671.83 229.68 672.06 213.45"/>
    <path d="M583.26 289.72Q593.76 288.41 598.76 278.72Q611.12 280.64 615.29 267.46Q629.74 273.34 631.81 256.19Q627.21 237.4 647.51 245.49Q667.14 261.97 663.21 234.79Q677.89 239.65 679.74 223.52"/>
    <path d="M583.78 290.57Q594.36 290.32 600.3 281.17Q612.41 284.31 617.87 271.61Q631.66 278.9 635.43 262.04Q632.72 242.89 652.12 252.96Q670.01 271.32 668.8 243.87Q682.92 250.17 686.37 234.3"/>
    <path d="M584.21 291.47Q594.76 292.27 601.59 283.76Q613.32 288.08 620.02 275.99Q633.02 284.62 638.45 268.23Q637.66 248.9 655.95 260.85Q671.93 280.89 673.46 253.46Q686.89 261.14 691.89 245.7"/>
    <path d="M584.56 292.4Q594.97 294.25 602.61 286.47Q613.85 291.94 621.72 280.57Q633.8 290.45 640.83 274.68Q641.97 255.37 658.99 269.08Q672.89 290.62 677.14 263.48Q689.74 272.45 696.25 257.58"/>
    <path d="M584.8 293.37Q594.98 296.25 603.36 289.26Q614.0 295.82 622.96 285.3Q633.99 296.33 642.56 281.33Q645.62 262.23 661.19 277.57Q672.87 300.39 679.81 273.81Q691.45 283.99 699.41 269.84"/>
    <path d="M584.95 294.35Q594.79 298.23 603.82 292.11Q613.76 299.7 623.72 290.12Q633.6 302.2 643.62 288.13Q648.57 269.43 662.53 286.24Q671.88 310.11 681.43 284.35Q692.0 295.64 701.33 282.36"/>
    <path d="M879.0 295.35Q888.18 301.03 898.0 295.0Q907.97 293.86 918.0 295.0Q927.98 296.75 938.0 295.0Q946.85 300.16 957.0 295.0Q965.76 310.87 976.0 295.0Q985.89 300.55 996.0 295.0"/>
    <path d="M878.95 296.35Q887.52 302.92 897.89 297.89Q907.93 297.75 917.79 299.88Q927.55 302.61 937.69 301.87Q945.99 307.89 956.6 303.76Q963.74 320.42 975.5 305.66Q984.79 312.16 995.4 307.65"/>
    <path d="M878.8 297.33Q886.67 304.72 897.49 300.75Q907.5 301.61 917.1 304.72Q926.54 308.41 936.7 308.68Q944.36 315.49 955.32 312.44Q960.77 329.73 973.95 316.21Q982.54 323.6 993.55 320.17"/>
    <path d="M878.56 298.3Q885.65 306.44 896.81 303.56Q906.68 305.41 915.93 309.46Q924.95 314.07 935.04 315.35Q941.98 322.89 953.19 320.95Q956.89 338.7 971.35 326.55Q979.16 334.77 990.46 332.45"/>
    <path d="M878.21 299.23Q884.46 308.04 895.86 306.29Q905.49 309.11 914.29 314.06Q922.81 319.55 932.72 321.83Q938.87 330.02 950.23 329.21Q952.14 347.23 967.73 336.59Q974.69 345.54 986.16 344.36"/>
    <path d="M877.78 300.13Q883.12 309.51 894.64 308.91Q903.94 312.68 912.2 318.48Q920.13 324.79 929.76 328.04Q935.07 336.81 946.45 337.13Q946.56 355.25 963.14 346.22Q969.17 355.81 980.7 355.78"/>
    <path d="M877.26 300.98Q881.64 310.85 893.16 311.4Q902.04 316.07 909.68 322.66Q916.95 329.73 926.21 333.93Q930.61 343.18 941.91 344.63Q940.21 362.68 957.6 355.34Q962.65 365.49 974.13 366.6"/>
    <path d="M876.66 301.78Q880.04 312.03 891.44 313.72Q899.81 319.26 906.76 326.58Q913.29 334.34 922.08 339.43Q925.55 349.08 936.64 351.65Q933.15 369.43 951.19 363.86Q955.2 374.46 966.51 376.72"/>
    <path d="M875.98 302.51Q878.32 313.05 889.5 315.87Q897.28 322.21 903.46 330.18Q909.18 338.55 917.43 344.5Q919.92 354.44 930.7 358.1Q925.46 375.45 943.96 371.7Q946.89 382.65 957.93 386.02"/>
    <path d="M875.23 303.17Q876.51 313.89 887.35 317.8Q894.47 324.89 899.82 333.44Q904.68 342.34 912.29 349.08Q913.78 359.22 924.14 363.93Q917.2 380.68 935.99 378.79Q937.81 389.97 948.46 394.42"/>
    <path d="M874.43 303.75Q874.63 314.54 885.03 319.52Q891.4 327.28 895.88 336.32Q899.83 345.66 906.73 353.12Q907.2 363.36 917.04 369.08Q908.47 385.05 927.35 385.04Q928.05 396.36 938.2 401.84"/>
    <path d="M873.56 304.25Q872.69 315.01 882.54 321.0Q888.11 329.35 891.67 338.79Q894.66 348.48 900.79 356.59Q900.24 366.82 909.46 373.5Q899.34 388.54 918.13 390.41Q917.7 401.73 927.25 408.2"/>
    <path d="M872.65 304.66Q870.71 315.28 879.92 322.22Q884.63 331.08 887.23 340.83Q889.25 350.77 894.53 359.45Q892.96 369.58 901.48 377.14Q889.91 391.09 908.42 394.83Q906.87 406.05 915.72 413.44"/>
    <path d="M871.71 304.98Q868.72 315.35 877.19 323.17Q880.99 332.46 882.61 342.42Q883.63 352.51 888.02 361.68Q885.45 371.6 893.17 379.97Q880.27 392.7 898.32 398.26Q895.65 409.27 903.73 417.51"/>
    <path d="M870.74 305.2Q866.73 315.22 874.38 323.85Q877.24 333.47 877.85 343.54Q877.87 353.68 881.33 363.24Q877.78 372.85 884.63 381.95Q870.52 393.34 887.93 400.66Q884.18 411.36 891.4 420.36"/>
    <path d="M869.75 305.32Q864.76 314.9 871.52 324.24Q873.4 334.1 873.01 344.19Q872.01 354.27 874.51 364.13Q870.02 373.34 875.93 383.08Q860.76 393.0 877.35 402.02Q872.55 412.3 878.84 421.97"/>
    <path d="M868.75 305.35Q862.84 314.38 868.63 324.35Q869.52 334.35 868.13 344.34Q866.13 354.28 867.63 364.34Q862.25 373.06 867.16 383.33Q851.08 391.7 866.68 402.33Q860.89 412.07 866.18 422.32"/>
    <path d="M867.76 305.27Q860.97 313.67 865.74 324.17Q865.63 334.21 863.25 344.01Q860.28 353.7 860.77 363.86Q854.55 372.0 858.41 382.71Q841.57 389.43 856.04 401.56Q849.31 410.68 853.56 421.41"/>
    <path d="M866.77 305.1Q859.19 312.78 862.89 323.7Q861.78 333.68 858.44 343.2Q854.51 352.54 853.99 362.7Q846.99 370.18 849.76 381.22Q832.34 386.24 845.53 399.75Q837.92 408.15 841.08 419.24"/>
    <path d="M865.82 304.83Q857.5 311.72 860.1 322.95Q858.0 332.77 853.73 341.91Q848.89 350.82 847.36 360.87Q839.64 367.62 841.3 378.88Q823.47 382.13 835.25 396.89Q826.85 404.49 828.88 415.85"/>
    <path d="M864.89 304.47Q855.93 310.49 857.39 321.93Q854.33 331.49 849.17 340.16Q843.47 348.54 840.94 358.39Q832.6 364.33 833.13 375.71Q815.06 377.17 825.31 393.03Q816.19 399.75 817.09 411.26"/>
    <path d="M864.0 304.01Q854.49 309.12 854.8 320.64Q850.81 329.85 844.8 337.96Q838.3 345.73 834.8 355.28Q825.91 360.37 825.3 371.74Q807.18 371.39 815.8 388.19Q806.06 393.98 805.8 405.51"/>
    <path d="M863.16 303.47Q853.19 307.6 852.36 319.1Q847.46 327.86 840.68 335.34Q833.43 342.43 829.01 351.58Q819.65 355.75 817.91 367.0Q799.92 364.86 806.82 382.43Q796.55 387.22 795.15 398.67"/>
    <path d="M862.38 302.85Q852.05 305.97 850.07 317.33Q844.33 325.56 836.84 332.32Q828.92 338.65 823.61 347.32Q813.88 350.54 811.03 361.56Q793.34 357.64 798.46 375.81Q787.76 379.55 785.23 390.8"/>
    <path d="M861.67 302.15Q851.07 304.23 847.98 315.33Q841.45 322.95 833.32 328.94Q824.81 334.44 818.66 342.54Q808.66 344.78 804.73 355.46Q787.51 349.79 790.8 368.39Q779.78 371.04 776.14 381.99"/>
    <path d="M861.03 301.39Q850.28 302.4 846.09 313.14Q838.83 320.07 830.15 325.22Q821.14 329.85 814.21 337.29Q804.04 338.52 799.06 348.76Q782.5 341.41 783.92 360.24Q772.69 361.78 767.98 372.31"/>
    <path d="M860.47 300.56Q849.67 300.5 844.44 310.77Q836.52 316.95 827.37 321.2Q817.94 324.91 810.31 331.63Q800.06 331.84 794.09 341.53Q778.34 332.57 777.88 351.44Q766.55 351.86 760.81 361.87"/>
    <path d="M859.99 299.69Q849.25 298.55 843.02 308.25Q834.53 313.6 825.0 316.93Q815.25 319.68 806.99 325.6Q796.77 324.79 789.87 333.85Q775.09 323.36 772.75 342.09Q761.44 341.38 754.73 350.77"/>
    <path d="M859.6 298.77Q849.03 296.57 841.87 305.6Q832.89 310.08 823.07 312.44Q813.09 314.21 804.28 319.28Q794.2 317.46 786.43 325.78Q772.76 313.87 768.57 332.28Q757.39 330.44 749.78 339.12"/>
    <path d="M859.31 297.82Q849.01 294.57 840.98 302.85Q831.6 306.41 821.6 307.78Q811.49 308.55 802.22 312.72Q792.37 309.9 783.81 317.4Q771.4 304.19 765.4 322.09Q754.45 319.16 746.01 327.03"/>
    <path d="M859.11 296.84Q849.19 292.59 840.38 300.02Q830.68 302.63 820.6 303.0Q810.47 302.76 800.82 305.98Q791.3 302.2 782.04 308.81Q771.0 294.43 763.25 311.64Q752.65 307.63 743.47 314.62"/>
    <path d="M859.01 295.85Q849.56 290.63 840.05 297.15Q830.15 298.78 820.08 298.14Q810.02 296.89 800.1 299.14Q791.0 294.43 781.13 300.09Q771.58 284.68 762.15 301.03Q752.0 295.99 742.18 302.03"/>
    <path d="M859.01 294.85Q850.13 288.72 840.02 294.25Q830.0 294.9 820.04 293.26Q810.16 291.01 800.07 292.26Q791.48 286.66 781.09 291.31Q773.13 275.03 762.12 290.37Q752.52 284.33 742.14 289.37"/>
    <path d="M859.11 293.86Q850.88 286.87 840.27 291.37Q830.24 291.02 820.5 288.39Q810.88 285.18 800.72 285.41Q792.73 278.99 781.93 282.58Q775.63 265.59 763.14 279.75Q754.2 272.79 743.37 276.77"/>
    <path d="M859.31 292.88Q851.82 285.11 840.81 288.53Q830.86 287.18 821.43 283.6Q812.18 279.44 802.05 278.66Q794.74 271.48 783.63 273.97Q779.06 256.44 765.22 269.29Q757.01 261.47 745.84 264.35"/>
    <path d="M859.6 291.93Q852.92 283.45 841.63 285.76Q831.87 283.42 822.84 278.92Q814.05 273.86 804.04 272.08Q797.49 264.2 786.19 265.58Q783.38 247.67 768.33 259.08Q760.94 250.49 749.54 252.24"/>
    <path d="M859.99 291.01Q854.19 281.91 842.72 283.08Q833.24 279.78 824.7 274.41Q816.46 268.5 806.68 265.73Q800.94 257.24 789.56 257.48Q788.55 239.39 772.44 249.24Q765.95 239.95 754.43 240.56"/>
    <path d="M860.47 290.14Q855.6 280.5 844.07 280.53Q834.97 276.3 827.01 270.1Q819.4 263.4 809.94 259.67Q805.08 250.65 793.73 249.76Q794.52 231.65 777.52 239.86Q771.97 229.97 760.45 229.43"/>
    <path d="M861.03 289.31Q857.14 279.24 845.67 278.12Q837.03 273.01 829.73 266.04Q822.83 258.62 813.79 253.97Q809.85 244.51 798.64 242.49Q801.23 224.56 783.5 231.02Q778.97 220.63 767.55 218.95"/>
    <path d="M861.67 288.55Q858.81 278.14 847.5 275.88Q839.42 269.94 832.84 262.28Q826.71 254.21 818.18 248.67Q815.2 238.87 804.25 235.75Q808.62 218.16 790.33 222.83Q786.85 212.04 775.66 209.22"/>
    <path d="M862.38 287.85Q860.57 277.21 849.55 273.84Q842.09 267.12 836.31 258.84Q831.02 250.2 823.08 243.85Q821.09 233.79 810.51 229.6Q816.61 212.53 797.94 215.36Q795.56 204.27 784.7 200.36"/>
    <path d="M863.16 287.23Q862.42 276.46 851.79 272.01Q845.04 264.58 840.11 255.77Q835.7 246.64 828.44 239.53Q827.46 229.33 817.35 224.1Q825.11 207.73 806.26 208.68Q804.99 197.41 794.58 192.44"/>
    <path d="M864.0 286.69Q864.33 275.9 854.2 270.41Q848.22 262.34 844.2 253.09Q840.72 243.57 834.2 235.77Q834.24 225.52 824.7 219.31Q834.05 203.79 815.2 202.86Q815.06 191.53 805.2 185.54"/>
    <path d="M864.89 286.23Q866.29 275.53 856.75 269.06Q851.61 260.44 848.53 250.83Q846.02 241.01 840.3 232.6Q841.37 222.41 832.49 215.28Q843.34 200.77 824.67 197.96Q825.66 186.67 816.45 179.73"/>
    <path d="M865.82 285.87Q868.28 275.36 859.43 267.97Q855.17 258.88 853.06 249.01Q851.54 238.99 846.69 230.05Q848.77 220.02 840.64 212.04Q852.89 198.68 834.59 194.03Q836.7 182.9 828.22 175.07"/>
    <path d="M866.77 285.6Q870.27 275.39 862.21 267.15Q858.87 257.69 857.76 247.66Q857.24 237.53 853.3 228.16Q856.37 218.38 849.08 209.63Q862.59 197.56 844.85 191.11Q848.06 180.24 840.4 171.61"/>
    <path d="M867.76 285.43Q872.26 275.61 865.05 266.62Q862.67 256.87 862.56 246.77Q863.05 236.65 860.07 226.93Q864.09 217.5 857.71 208.08Q872.36 197.41 855.35 189.22Q859.62 178.73 852.86 169.38"/>
    <path d="M868.75 285.35Q874.2 276.04 867.93 266.37Q866.54 256.43 867.43 246.37Q868.93 236.35 866.93 226.38Q871.87 217.4 866.46 207.39Q882.1 198.23 865.98 188.39Q871.28 178.37 865.48 168.4"/>
    <path d="M869.75 285.38Q876.1 276.65 870.82 266.4Q870.42 256.37 872.31 246.46Q874.8 236.64 873.81 226.52Q879.62 218.07 875.23 207.57Q891.7 200.02 876.65 188.62Q882.92 179.18 878.14 168.68"/>
    <path d="M870.74 285.5Q877.93 277.45 873.69 266.73Q874.3 256.71 877.16 247.03Q880.62 237.5 880.64 227.34Q887.26 219.52 883.94 208.63Q901.08 202.75 887.24 189.91Q894.41 181.14 890.71 170.22"/>
    <path d="M871.71 285.72Q879.67 278.43 876.52 267.34Q878.12 257.43 881.93 248.09Q886.32 238.95 887.35 228.83Q894.72 221.71 892.5 210.54Q910.14 206.4 897.64 192.25Q905.66 184.24 903.06 173.0"/>
    <path d="M872.65 286.04Q881.3 279.57 879.27 268.23Q881.85 258.53 886.58 249.61Q891.85 240.95 893.88 230.99Q901.92 224.64 900.82 213.31Q918.8 210.94 907.77 195.62Q916.54 188.44 915.07 177.0"/>
    <path d="M873.56 286.45Q882.81 280.88 881.92 269.38Q885.45 259.99 891.04 251.59Q897.15 243.5 900.17 233.79Q908.8 228.27 908.84 216.88Q926.95 216.32 917.5 199.97Q926.95 193.71 926.63 182.18"/>
    <path d="M874.43 286.95Q884.18 282.32 884.44 270.8Q888.89 261.8 895.29 254.0Q902.18 246.56 906.14 237.2Q915.28 232.56 916.45 221.24Q934.53 222.48 926.76 205.28Q936.78 199.98 937.61 188.48"/>
    <path d="M875.23 287.53Q885.4 283.9 886.81 272.46Q892.13 263.95 899.28 256.82Q906.87 250.11 911.75 241.19Q921.3 237.48 923.59 226.33Q941.46 229.37 935.44 211.48Q945.94 207.21 947.91 195.84"/>
    <path d="M875.98 288.19Q886.46 285.59 889.0 274.35Q895.14 266.41 902.96 260.03Q911.19 254.1 916.93 245.71Q926.8 242.98 930.19 232.11Q947.67 236.91 943.46 218.51Q954.33 215.3 957.43 204.19"/>
    <path d="M876.66 288.92Q887.35 287.38 890.99 276.44Q897.9 269.16 906.31 263.59Q915.08 258.51 921.63 250.73Q931.73 248.99 936.19 238.52Q953.1 245.04 950.74 226.3Q961.88 224.2 966.06 213.45"/>
    <path d="M877.26 289.72Q888.05 289.24 892.76 278.72Q900.36 272.16 909.29 267.46Q918.52 263.28 925.81 256.19Q936.03 255.47 941.51 245.49Q957.69 253.66 957.21 234.79Q968.5 233.8 973.74 223.52"/>
    <path d="M877.78 290.57Q888.56 291.17 894.3 281.17Q902.51 275.4 911.87 271.61Q921.47 268.37 929.43 262.04Q939.67 262.34 946.12 252.96Q961.4 262.7 962.8 243.87Q974.14 244.01 980.37 234.3"/>
    <path d="M878.21 291.47Q888.88 293.14 895.59 283.76Q904.33 278.84 914.02 275.99Q923.9 273.73 932.45 268.23Q942.61 269.54 949.95 260.85Q964.19 272.06 967.46 253.46Q978.73 254.74 985.89 245.7"/>
    <path d="M878.56 292.4Q889.0 295.13 896.61 286.47Q905.8 282.44 915.72 280.57Q925.78 279.3 934.83 274.68Q944.81 277.0 952.99 269.08Q966.04 281.65 971.14 263.48Q982.22 265.86 990.25 257.58"/>
    <path d="M878.8 293.37Q888.92 297.12 897.36 289.26Q906.9 286.16 916.96 285.3Q927.09 285.03 936.56 281.33Q946.26 284.64 955.19 277.57Q966.92 291.38 973.81 273.81Q984.6 277.28 993.41 269.84"/>
    <path d="M878.95 294.35Q888.65 299.1 897.82 292.11Q907.63 289.98 917.72 290.12Q927.83 290.87 937.62 288.13Q946.94 292.39 956.53 286.24Q966.83 301.15 975.43 284.35Q985.82 288.88 995.33 282.36"/>
    <path d="M438.0 545.25Q447.91 547.14 458.0 545.0Q466.75 540.84 477.0 545.0Q486.92 548.35 496.0 545.0Q503.18 524.47 516.0 545.0Q521.55 574.45 536.0 545.0Q541.47 516.72 555.0 545.0"/>
    <path d="M437.95 546.25Q447.62 549.11 457.88 547.99Q467.0 544.72 476.78 549.88Q486.32 554.2 495.69 551.77Q504.88 532.06 515.59 553.76Q518.18 583.62 535.49 555.75Q543.75 528.16 554.39 557.65"/>
    <path d="M437.8 547.23Q447.14 551.05 457.45 550.95Q466.86 548.61 476.08 554.71Q485.14 559.97 494.7 558.48Q505.81 539.78 514.3 562.44Q513.91 592.41 533.91 566.4Q544.87 539.77 552.53 570.17"/>
    <path d="M437.56 548.2Q446.47 552.93 456.74 553.85Q466.33 552.46 474.9 559.45Q483.39 565.58 493.05 565.05Q505.97 547.55 512.16 570.95Q508.79 600.73 531.28 576.84Q544.84 551.43 549.43 582.45"/>
    <path d="M437.21 549.13Q445.61 554.73 455.74 556.67Q465.42 556.24 473.25 564.05Q481.09 571.0 490.76 571.43Q505.35 555.3 509.19 579.2Q502.86 608.49 527.62 586.97Q543.64 563.04 545.12 594.35"/>
    <path d="M436.78 550.03Q444.58 556.43 454.47 559.38Q464.14 559.91 471.15 568.46Q478.26 576.15 487.84 577.55Q503.96 562.95 505.4 587.12Q496.19 615.63 522.97 596.68Q541.29 574.46 539.65 605.77"/>
    <path d="M436.26 550.88Q443.39 558.03 452.93 561.94Q462.5 563.44 468.63 572.65Q474.93 581.0 484.33 583.35Q501.82 570.43 500.85 594.62Q488.85 622.07 517.37 605.88Q537.82 585.6 533.07 616.59"/>
    <path d="M435.66 551.68Q442.04 559.5 451.14 564.34Q460.52 566.78 465.7 576.56Q471.14 585.5 480.25 588.77Q498.95 577.65 495.57 601.62Q480.89 627.75 510.89 614.48Q533.26 596.33 525.45 626.69"/>
    <path d="M434.98 552.41Q440.55 560.82 449.13 566.55Q458.21 569.91 462.39 580.15Q466.92 589.59 475.66 593.75Q495.37 584.56 489.62 608.07Q472.42 632.61 503.59 622.39Q527.65 606.56 516.86 635.99"/>
    <path d="M434.23 553.07Q438.94 562.0 446.9 568.55Q455.61 572.8 458.75 583.4Q462.31 593.25 470.59 598.26Q491.12 591.07 483.06 613.9Q463.5 636.6 495.53 629.53Q521.05 616.18 507.38 644.39"/>
    <path d="M433.43 553.65Q437.22 563.0 444.49 570.32Q452.73 575.41 454.79 586.28Q457.36 596.43 465.1 602.24Q486.25 597.13 475.95 619.04Q454.23 639.68 486.81 635.84Q513.53 625.09 497.11 651.8"/>
    <path d="M432.56 554.15Q435.4 563.83 441.91 571.83Q449.6 577.72 450.58 588.74Q452.12 599.1 459.24 605.65Q480.79 602.67 468.37 623.44Q444.69 641.82 477.49 641.24Q505.15 633.21 486.16 658.15"/>
    <path d="M431.65 554.56Q433.51 564.48 439.19 573.08Q446.26 579.71 446.13 590.77Q446.64 601.23 453.08 608.46Q474.81 607.64 460.38 627.08Q435.0 643.0 467.69 645.69Q496.01 640.45 474.63 663.38"/>
    <path d="M430.71 554.88Q431.57 564.93 436.37 574.06Q442.74 581.36 441.51 592.35Q440.97 602.81 446.66 610.64Q468.37 611.99 452.07 629.89Q425.23 643.21 457.49 649.15Q486.19 646.75 462.64 667.44"/>
    <path d="M429.74 555.1Q429.6 565.19 433.46 574.75Q439.07 582.65 436.75 593.46Q435.18 603.81 440.05 612.17Q461.52 615.68 443.53 631.87Q415.49 642.45 447.0 651.57Q475.8 652.04 450.3 670.28"/>
    <path d="M428.75 555.22Q427.6 565.25 430.49 575.15Q435.29 583.56 431.91 594.09Q429.31 604.24 433.33 613.04Q454.34 618.67 434.83 632.99Q405.87 640.72 436.32 652.93Q464.93 656.27 437.74 671.88"/>
    <path d="M427.75 555.25Q425.61 565.11 427.5 575.25Q431.44 584.1 427.03 594.24Q423.43 604.07 426.55 613.24Q446.9 620.93 426.06 633.23Q396.48 638.04 425.56 653.22Q453.69 659.39 425.08 672.22"/>
    <path d="M426.76 555.17Q423.65 564.77 424.52 575.05Q427.56 584.25 422.16 593.9Q417.59 603.33 419.79 612.75Q439.27 622.43 417.31 632.6Q387.39 634.44 414.82 652.44Q442.2 661.39 412.46 671.3"/>
    <path d="M425.77 555.0Q421.73 564.24 421.57 574.55Q423.68 584.01 417.34 593.08Q411.86 602.0 413.11 611.6Q431.53 623.17 408.66 631.1Q378.72 629.96 404.21 650.6Q430.56 662.22 399.98 669.12"/>
    <path d="M424.82 554.73Q419.87 563.52 418.68 573.77Q419.84 583.39 412.63 591.78Q406.29 600.11 406.58 609.79Q423.76 623.13 400.21 628.75Q370.53 624.63 393.84 647.71Q418.9 661.9 387.79 665.72"/>
    <path d="M423.89 554.37Q418.09 562.62 415.89 572.7Q416.08 582.38 408.07 590.02Q400.94 597.68 400.26 607.34Q416.02 622.33 392.03 625.57Q362.91 618.51 383.81 643.8Q407.34 660.41 375.99 661.11"/>
    <path d="M423.0 553.91Q416.41 561.55 413.22 571.36Q412.44 581.01 403.72 587.81Q395.85 594.72 394.22 604.26Q408.41 620.75 384.22 621.59Q355.94 611.67 374.22 638.91Q395.97 657.78 364.72 655.36"/>
    <path d="M422.16 553.37Q414.84 560.31 410.69 569.75Q408.96 579.29 399.6 585.18Q391.09 591.28 388.51 600.61Q400.99 618.42 376.83 616.85Q349.68 604.16 365.16 633.09Q384.93 654.03 354.07 648.51"/>
    <path d="M421.38 552.75Q413.41 558.93 408.34 567.91Q405.66 577.22 395.76 582.15Q386.69 587.37 383.19 596.4Q393.84 615.37 369.96 611.4Q344.21 596.07 356.73 626.39Q374.31 649.2 344.15 640.64"/>
    <path d="M420.67 552.05Q412.12 557.41 406.18 565.84Q402.59 574.84 392.25 578.76Q382.7 583.05 378.32 591.69Q387.02 611.62 363.66 605.29Q339.56 587.47 349.0 618.89Q364.23 643.34 335.07 631.82"/>
    <path d="M420.03 551.29Q410.99 555.77 404.24 563.56Q399.77 572.16 389.09 575.04Q379.16 578.35 373.95 586.51Q380.62 607.21 358.0 598.58Q335.8 578.46 342.06 610.66Q354.78 636.5 326.92 622.13"/>
    <path d="M419.47 550.46Q410.02 554.02 402.53 561.11Q397.23 569.22 386.32 571.01Q376.11 573.32 370.11 580.92Q374.69 602.19 353.04 591.35Q332.95 569.11 335.97 601.78Q346.05 628.76 319.76 611.69"/>
    <path d="M418.99 549.59Q409.24 552.19 401.08 558.49Q395.0 566.04 383.96 566.74Q373.57 568.02 366.84 574.98Q369.28 596.59 348.82 583.66Q331.05 559.53 330.8 592.33Q338.15 620.19 313.69 600.58"/>
    <path d="M418.6 548.67Q408.64 550.28 399.89 555.75Q393.09 562.65 382.04 562.24Q371.57 562.49 364.19 568.74Q364.46 590.49 345.39 575.58Q330.11 549.81 326.6 582.42Q331.13 610.87 308.74 588.92"/>
    <path d="M418.31 547.72Q408.24 548.33 398.99 552.89Q391.54 559.08 380.58 557.58Q370.14 556.78 362.16 562.27Q360.27 583.94 342.78 567.21Q330.14 540.04 323.4 572.14Q325.08 600.9 304.99 576.83"/>
    <path d="M418.11 546.74Q408.03 546.35 398.37 549.97Q390.34 555.39 379.58 552.8Q369.28 550.96 360.8 555.63Q356.76 577.01 341.02 558.61Q331.14 530.32 321.24 561.59Q320.05 590.37 302.46 564.43"/>
    <path d="M418.01 545.75Q408.02 544.35 398.05 547.0Q389.52 551.59 379.07 547.94Q369.0 545.09 360.1 548.89Q353.95 569.75 340.12 549.89Q333.11 520.75 320.15 550.88Q316.09 579.4 301.17 551.83"/>
    <path d="M418.01 544.75Q408.21 542.37 398.02 544.0Q389.08 547.72 379.05 543.06Q369.31 539.21 360.07 542.11Q351.88 562.26 340.1 541.11Q336.02 511.42 320.12 540.12Q313.25 568.09 301.15 539.17"/>
    <path d="M418.11 543.76Q408.59 540.41 398.3 541.03Q389.02 543.83 379.51 538.19Q370.2 533.4 360.72 535.36Q350.56 554.6 340.95 532.38Q339.85 502.43 321.17 529.4Q311.55 556.55 302.38 526.57"/>
    <path d="M418.31 542.78Q409.17 538.5 398.87 538.09Q389.36 539.96 380.45 533.4Q371.67 527.7 362.04 528.71Q350.02 546.84 342.66 523.78Q344.55 493.87 323.28 518.84Q311.0 544.9 304.87 514.15"/>
    <path d="M418.6 541.83Q409.94 536.66 399.72 535.22Q390.08 536.14 381.87 528.73Q373.7 522.18 364.02 522.23Q350.25 539.07 345.22 515.39Q350.08 485.82 326.43 508.55Q311.62 533.25 308.57 502.05"/>
    <path d="M418.99 540.91Q410.88 534.91 400.86 532.46Q391.17 532.41 383.74 524.21Q376.26 516.89 366.63 515.97Q351.25 531.35 348.61 507.29Q356.38 478.35 330.59 498.62Q313.39 521.72 313.47 490.37"/>
    <path d="M419.47 540.04Q411.99 533.25 402.27 529.82Q392.64 528.81 386.06 519.91Q379.34 511.88 369.85 510.01Q353.01 523.78 352.78 499.58Q363.4 471.55 335.71 489.15Q316.3 510.43 319.5 479.24"/>
    <path d="M420.03 539.21Q413.27 531.72 403.94 527.34Q394.45 525.37 388.79 515.86Q382.91 507.2 373.64 504.39Q355.52 516.42 357.7 492.31Q371.06 465.49 341.76 480.24Q320.32 499.48 326.61 468.77"/>
    <path d="M420.67 538.45Q414.69 530.32 405.84 525.03Q396.59 522.12 391.91 512.1Q386.92 502.9 377.98 499.18Q358.75 509.35 363.32 485.58Q379.28 460.22 348.66 471.97Q325.42 488.98 334.73 459.05"/>
    <path d="M421.38 537.75Q416.24 529.07 407.96 522.92Q399.05 519.11 395.39 508.68Q391.34 499.02 382.82 494.43Q362.67 502.63 369.58 479.43Q387.99 455.79 356.35 464.44Q331.53 479.05 343.78 450.19"/>
    <path d="M422.16 537.13Q417.91 527.98 410.28 521.04Q401.8 516.36 399.19 505.61Q396.13 495.6 388.1 490.18Q367.24 496.34 376.43 473.95Q397.1 452.25 364.75 457.71Q338.6 469.77 353.66 442.28"/>
    <path d="M423.0 536.59Q419.68 527.06 412.78 519.39Q404.81 513.9 403.28 502.94Q401.23 492.67 393.78 486.49Q372.41 490.53 383.78 469.16Q406.51 449.63 373.78 451.84Q346.56 461.25 364.28 435.39"/>
    <path d="M423.89 536.13Q421.53 526.32 415.43 518.01Q408.04 511.74 407.62 500.69Q406.6 490.27 399.8 483.37Q378.14 485.27 391.58 465.14Q416.14 447.97 383.35 446.91Q355.33 453.56 375.54 429.59"/>
    <path d="M424.82 535.77Q423.45 525.77 418.21 516.89Q411.48 509.92 412.16 498.88Q412.18 488.41 406.11 480.87Q384.36 480.6 399.74 461.91Q425.89 447.27 393.37 442.95Q364.82 446.78 387.32 424.94"/>
    <path d="M425.77 535.5Q425.41 525.42 421.08 516.06Q415.08 508.45 416.85 497.53Q417.91 487.12 412.62 479.01Q391.01 476.58 408.17 459.51Q435.65 447.55 403.72 440.01Q374.94 440.97 399.5 421.49"/>
    <path d="M426.76 535.33Q427.4 525.26 424.02 515.51Q418.81 507.35 421.66 496.66Q423.75 486.4 419.3 477.81Q398.03 473.24 416.81 457.96Q445.34 448.8 414.32 438.12Q385.58 436.21 411.96 419.27"/>
    <path d="M427.75 535.25Q429.39 525.3 427.0 515.27Q422.63 506.62 426.53 496.27Q429.63 486.27 426.05 477.28Q405.35 470.61 425.56 457.28Q454.86 451.0 425.06 437.29Q396.65 432.53 424.58 418.3"/>
    <path d="M428.75 535.28Q431.37 525.53 429.99 515.32Q426.5 506.28 431.41 496.37Q435.5 486.73 432.83 477.42Q412.89 468.73 434.33 457.48Q464.11 454.14 435.82 437.53Q408.03 429.97 437.24 418.59"/>
    <path d="M429.74 535.4Q433.32 525.97 432.96 515.66Q430.39 506.32 436.26 496.95Q441.29 487.77 439.56 478.24Q420.59 467.6 443.03 458.54Q473.0 458.19 446.51 438.85Q419.61 428.55 449.81 420.14"/>
    <path d="M430.71 535.62Q435.21 526.59 435.88 516.3Q434.25 506.75 441.03 498.01Q446.94 489.37 446.18 479.72Q428.36 467.25 451.59 460.47Q481.45 463.11 457.01 441.22Q431.27 428.3 462.16 422.93"/>
    <path d="M431.65 535.94Q437.03 527.41 438.73 517.23Q438.05 507.57 445.67 499.55Q452.41 491.54 452.61 481.86Q436.12 467.67 459.92 463.24Q489.36 468.84 467.22 444.62Q442.9 429.2 474.17 426.94"/>
    <path d="M432.56 536.35Q438.77 528.39 441.46 518.44Q441.76 508.76 450.13 501.53Q457.64 494.24 458.8 484.62Q443.8 468.87 467.92 466.83Q496.66 475.32 477.05 449.03Q454.38 431.26 485.72 432.12"/>
    <path d="M433.43 536.85Q440.39 529.55 444.07 519.91Q445.32 510.31 454.37 503.95Q462.57 497.44 464.68 487.99Q451.33 470.82 475.53 471.19Q503.28 482.51 486.38 454.39Q465.6 434.46 496.69 438.43"/>
    <path d="M434.23 537.43Q441.89 530.86 446.51 521.64Q448.71 512.2 458.36 506.78Q467.16 501.12 470.2 491.93Q458.63 473.51 482.67 476.29Q509.16 490.32 495.14 460.66Q476.44 438.75 506.99 445.8"/>
    <path d="M434.98 538.09Q443.26 532.32 448.77 523.6Q451.9 514.43 462.03 510.0Q471.36 505.24 475.3 496.4Q465.62 476.92 489.27 482.08Q514.22 498.67 503.23 467.76Q486.81 444.1 516.5 454.16"/>
    <path d="M435.66 538.82Q444.47 533.9 450.82 525.77Q454.85 516.96 465.38 513.56Q475.13 509.75 479.93 501.35Q472.23 481.0 495.25 488.49Q518.43 507.49 510.57 475.64Q496.58 450.46 525.13 463.42"/>
    <path d="M436.26 539.62Q445.52 535.6 452.65 528.14Q457.53 519.78 468.34 517.44Q478.43 514.62 484.04 506.74Q478.41 485.73 500.57 495.47Q521.74 516.68 517.09 484.2Q505.68 457.76 532.79 473.5"/>
    <path d="M436.78 540.47Q446.39 537.39 454.23 530.68Q459.92 522.85 470.91 521.6Q481.23 519.8 487.6 512.51Q484.09 491.04 505.16 502.94Q524.12 526.15 522.73 493.38Q514.01 465.93 539.41 484.29"/>
    <path d="M437.21 541.37Q447.08 539.26 455.55 533.37Q462.0 526.14 473.06 525.99Q483.5 525.22 490.56 518.61Q489.2 496.9 508.99 510.84Q525.55 535.82 527.42 503.07Q521.48 474.89 544.93 495.69"/>
    <path d="M437.56 542.3Q447.58 541.19 456.59 536.17Q463.73 529.61 474.75 530.57Q485.22 530.85 492.91 524.97Q493.71 503.23 512.02 519.07Q526.0 545.58 531.13 513.18Q528.02 484.54 549.28 507.58"/>
    <path d="M437.8 543.27Q447.89 543.16 457.36 539.06Q465.11 533.25 475.98 535.3Q486.37 536.62 494.6 531.53Q497.57 509.98 514.21 527.57Q525.48 555.33 533.81 523.61Q533.57 494.8 552.43 519.84"/>
    <path d="M437.95 544.25Q448.0 545.15 457.83 542.01Q466.12 537.0 476.73 540.12Q486.94 542.47 495.64 538.23Q500.74 517.09 515.54 536.24Q523.99 564.99 535.44 534.25Q538.06 505.57 554.34 532.36"/>
    <path d="M732.0 545.25Q741.42 540.45 752.0 545.0Q760.93 547.52 771.0 545.0Q778.25 563.06 790.0 545.0Q796.59 568.07 810.0 545.0Q818.51 528.21 830.0 545.0Q837.32 525.48 849.0 545.0"/>
    <path d="M731.95 546.25Q741.8 542.41 751.88 547.99Q760.52 551.38 770.78 549.88Q776.2 568.57 789.69 551.77Q793.94 575.38 809.59 553.76Q819.72 537.91 829.49 555.75Q838.71 537.06 848.39 557.65"/>
    <path d="M731.8 547.23Q741.98 544.39 751.45 550.95Q759.71 555.19 770.08 554.71Q773.6 573.85 788.7 558.48Q790.59 582.4 808.3 562.44Q819.97 547.67 827.91 566.4Q838.95 548.73 846.53 570.17"/>
    <path d="M731.56 548.2Q741.97 546.39 750.74 553.85Q758.54 558.89 768.9 559.45Q770.5 578.85 787.05 565.05Q786.55 589.04 806.16 570.95Q819.24 557.42 825.28 576.84Q838.02 560.35 843.43 582.45"/>
    <path d="M731.21 549.13Q741.76 548.37 749.74 556.67Q757.0 562.46 767.25 564.05Q766.91 583.51 784.76 571.43Q781.87 595.25 803.19 579.2Q817.55 567.04 821.62 586.97Q835.94 571.83 839.12 594.35"/>
    <path d="M730.78 550.03Q741.35 550.32 748.47 559.38Q755.11 565.86 765.15 568.46Q762.88 587.79 781.84 577.55Q776.59 600.96 799.4 587.12Q814.9 576.44 816.97 596.68Q832.73 583.04 833.65 605.77"/>
    <path d="M730.26 550.88Q740.75 552.22 746.93 561.94Q752.89 569.06 762.63 572.65Q758.44 591.65 778.33 583.35Q770.77 606.12 794.85 594.62Q811.34 585.54 811.37 605.88Q828.42 593.88 827.07 616.59"/>
    <path d="M729.66 551.68Q739.96 554.05 745.14 564.34Q750.37 572.01 759.7 576.56Q753.64 595.05 774.25 588.77Q764.47 610.68 789.57 601.62Q806.88 594.23 804.89 614.48Q823.04 604.23 819.45 626.69"/>
    <path d="M728.98 552.41Q738.99 555.8 743.13 566.55Q747.56 574.71 756.39 580.15Q748.52 597.95 769.66 593.75Q757.74 614.58 783.62 608.07Q801.58 602.44 797.59 622.39Q816.67 614.0 810.86 635.99"/>
    <path d="M728.23 553.07Q737.86 557.44 740.9 568.55Q744.5 577.1 752.75 583.4Q743.15 600.33 764.59 598.26Q750.66 617.79 777.06 613.9Q795.49 610.08 789.53 629.53Q809.35 623.09 801.38 644.39"/>
    <path d="M727.43 553.65Q736.57 558.96 738.49 570.32Q741.22 579.19 748.79 586.28Q737.56 602.16 759.1 602.24Q743.3 620.29 769.95 619.04Q788.67 617.08 780.81 635.84Q801.17 631.4 791.11 651.8"/>
    <path d="M726.56 554.15Q735.13 560.34 735.91 571.83Q737.74 580.93 744.58 588.74Q731.81 603.43 753.24 605.65Q735.72 622.03 762.37 623.44Q781.19 623.36 771.49 641.24Q792.2 638.85 780.16 658.15"/>
    <path d="M725.65 554.56Q733.56 561.57 733.19 573.08Q734.11 582.32 740.13 590.77Q725.97 604.12 747.08 608.46Q728.01 623.02 754.38 627.08Q773.12 628.86 761.69 645.69Q782.53 645.38 768.63 663.38"/>
    <path d="M724.71 554.88Q731.88 562.64 730.37 574.06Q730.36 583.34 735.51 592.35Q720.09 604.22 740.66 610.64Q720.23 623.23 746.07 629.89Q764.54 633.54 751.49 649.15Q772.26 650.9 756.64 667.44"/>
    <path d="M723.74 555.1Q730.1 563.54 727.46 574.75Q726.53 583.99 730.75 593.46Q714.23 603.74 734.05 612.17Q712.48 622.67 737.53 631.87Q755.54 637.33 741.0 651.57Q761.49 655.38 744.3 670.28"/>
    <path d="M722.75 555.22Q728.24 564.25 724.49 575.15Q722.65 584.25 725.91 594.09Q708.44 602.67 727.33 613.04Q704.82 621.33 728.83 632.99Q746.2 640.22 730.32 652.93Q750.33 658.77 731.74 671.88"/>
    <path d="M721.75 555.25Q726.32 564.78 721.5 575.25Q718.76 584.12 721.03 594.24Q702.79 601.04 720.55 613.24Q697.33 619.25 720.06 633.23Q736.62 642.15 719.56 653.22Q738.89 661.03 719.08 672.22"/>
    <path d="M720.76 555.17Q724.35 565.11 718.52 575.05Q714.91 583.6 716.16 593.9Q697.33 598.85 713.79 612.75Q690.08 616.42 711.31 632.6Q726.9 643.13 708.82 652.44Q727.27 662.13 706.46 671.3"/>
    <path d="M719.77 555.0Q722.36 565.25 715.57 574.55Q711.12 582.7 711.34 593.08Q692.12 596.12 707.11 611.6Q683.15 612.89 702.66 631.1Q717.13 643.13 698.21 650.6Q715.61 662.08 693.98 669.12"/>
    <path d="M718.82 554.73Q720.37 565.18 712.68 573.77Q707.45 581.43 706.63 591.78Q687.2 592.9 700.58 609.79Q676.61 608.69 694.21 628.75Q707.41 642.16 687.84 647.71Q704.01 660.86 681.79 665.72"/>
    <path d="M717.89 554.37Q718.39 564.92 709.89 572.7Q703.92 579.81 702.07 590.02Q682.63 589.2 694.26 607.34Q670.52 603.85 686.03 625.57Q697.84 640.22 677.81 643.8Q692.59 658.49 669.99 661.11"/>
    <path d="M717.0 553.91Q716.45 564.47 707.22 571.36Q700.57 577.83 697.72 587.81Q678.45 585.06 688.22 604.26Q664.94 598.43 678.22 621.59Q688.5 637.35 668.22 638.91Q681.46 655.0 658.72 655.36"/>
    <path d="M716.16 553.37Q714.56 563.82 704.69 569.75Q697.43 575.54 693.6 585.18Q674.7 580.52 682.51 600.61Q659.93 592.49 670.83 616.85Q679.5 633.55 659.16 633.09Q670.73 650.42 648.07 648.51"/>
    <path d="M715.38 552.75Q712.75 562.99 702.34 567.91Q694.54 572.94 689.76 582.15Q671.43 575.64 677.19 596.4Q655.54 586.07 663.96 611.4Q670.92 628.88 650.73 626.39Q660.52 644.79 638.15 640.64"/>
    <path d="M714.67 552.05Q711.03 561.98 700.18 565.84Q691.92 570.07 686.25 578.76Q668.65 570.45 672.32 591.69Q651.8 579.25 657.66 605.29Q662.84 623.38 643.0 618.89Q650.91 638.18 629.07 631.82"/>
    <path d="M714.03 551.29Q709.42 560.8 698.24 563.56Q689.59 566.95 683.09 575.04Q666.41 565.02 667.95 586.51Q648.76 572.09 652.0 598.58Q655.36 617.1 636.06 610.66Q642.01 630.64 620.92 622.13"/>
    <path d="M713.47 550.46Q707.94 559.47 696.53 561.11Q687.59 563.62 680.32 571.01Q664.72 559.38 664.11 580.92Q646.46 564.67 647.04 591.35Q648.53 610.11 629.97 601.78Q633.91 622.25 613.76 611.69"/>
    <path d="M712.99 549.59Q706.59 558.0 695.08 558.49Q685.94 560.1 677.96 566.74Q663.59 553.61 660.84 574.98Q644.9 557.05 642.82 583.66Q642.44 602.47 624.8 592.33Q626.68 613.09 607.69 600.58"/>
    <path d="M712.6 548.67Q705.4 556.4 693.89 555.75Q684.64 556.43 676.04 562.24Q663.05 547.75 658.19 568.74Q644.11 549.32 639.39 575.58Q637.14 594.27 620.6 582.42Q620.4 603.27 602.74 588.92"/>
    <path d="M712.31 547.72Q704.37 554.69 692.99 552.89Q683.71 552.66 674.58 557.58Q663.1 541.87 656.16 562.27Q644.09 541.54 636.78 567.21Q632.68 585.57 617.4 572.14Q615.12 592.86 598.99 576.83"/>
    <path d="M712.11 546.74Q703.52 552.89 692.37 549.97Q683.16 548.81 673.58 552.8Q663.73 536.02 654.8 555.63Q644.84 533.8 635.02 558.61Q629.11 576.48 615.24 561.59Q610.92 581.98 596.46 564.43"/>
    <path d="M712.01 545.75Q702.85 551.01 692.05 547.0Q683.0 544.92 673.07 547.94Q664.93 530.27 654.1 548.89Q646.37 526.18 634.12 549.89Q626.46 567.08 614.15 550.88Q607.81 570.74 595.17 551.83"/>
    <path d="M712.01 544.75Q702.37 549.08 692.02 544.0Q683.23 541.04 673.05 543.06Q666.71 524.66 654.07 542.11Q648.64 518.74 634.1 541.11Q624.76 557.45 614.12 540.12Q605.84 559.24 595.15 539.17"/>
    <path d="M712.11 543.76Q702.08 547.1 692.3 541.03Q683.84 537.2 673.51 538.19Q669.03 519.25 654.72 535.36Q651.65 511.57 634.95 532.38Q624.03 547.71 615.17 529.4Q605.02 547.61 596.38 526.57"/>
    <path d="M712.31 542.78Q702.0 545.11 692.87 538.09Q684.83 533.44 674.45 533.4Q671.89 514.11 656.04 528.71Q655.35 504.73 636.66 523.78Q624.27 537.95 617.28 518.84Q605.37 535.95 598.87 514.15"/>
    <path d="M712.6 541.83Q702.11 543.12 693.72 535.22Q686.19 529.8 675.87 528.73Q675.24 509.28 658.02 522.23Q659.72 498.3 639.22 515.39Q625.49 528.25 620.43 508.55Q606.88 524.38 602.57 502.05"/>
    <path d="M712.99 540.91Q702.42 541.15 694.86 532.46Q687.91 526.31 677.74 524.21Q679.05 504.8 660.63 515.97Q664.7 492.33 642.61 507.29Q627.66 518.73 624.59 498.62Q609.53 513.02 607.47 490.37"/>
    <path d="M713.47 540.04Q702.93 539.22 696.27 529.82Q689.96 523.01 680.06 519.91Q683.29 500.72 663.85 510.01Q670.25 486.88 646.78 499.58Q630.77 509.46 629.71 489.15Q613.29 501.99 613.5 479.24"/>
    <path d="M714.03 539.21Q703.62 537.35 697.94 527.34Q692.33 519.93 682.79 515.86Q687.92 497.09 667.64 504.39Q676.32 482.02 651.7 492.31Q634.78 500.56 635.76 480.24Q618.14 491.38 620.61 468.77"/>
    <path d="M714.67 538.45Q704.5 535.56 699.84 525.03Q695.0 517.1 685.91 512.1Q692.88 493.94 671.98 499.18Q682.85 477.79 657.32 485.58Q639.67 492.1 642.66 471.97Q624.02 481.3 628.73 459.05"/>
    <path d="M715.38 537.75Q705.55 533.87 701.96 522.92Q697.94 514.56 689.39 508.68Q698.14 491.29 676.82 494.43Q689.76 474.23 663.58 479.43Q645.37 484.16 650.35 464.44Q630.87 471.87 637.78 450.19"/>
    <path d="M716.16 537.13Q706.77 532.29 704.28 521.04Q701.11 512.31 693.19 505.61Q703.63 489.18 682.1 490.18Q696.99 471.37 670.43 473.95Q651.83 476.84 658.75 457.71Q638.63 463.16 647.66 442.28"/>
    <path d="M717.0 536.59Q708.13 530.84 706.78 519.39Q704.5 510.4 697.28 502.94Q709.3 487.63 687.78 486.49Q704.47 469.25 677.78 469.16Q658.99 470.19 667.78 451.84Q647.22 455.26 658.28 435.39"/>
    <path d="M717.89 536.13Q709.64 529.53 709.43 518.01Q708.05 508.83 701.62 500.69Q715.1 486.65 693.8 483.37Q712.12 467.88 685.58 465.14Q666.78 464.29 677.35 446.91Q656.55 448.27 669.54 429.59"/>
    <path d="M718.82 535.77Q711.26 528.37 712.21 516.89Q711.75 507.62 706.16 498.88Q720.97 486.26 700.11 480.87Q719.88 467.28 693.74 461.91Q675.11 459.19 687.37 442.95Q666.54 442.23 681.32 424.94"/>
    <path d="M719.77 535.5Q713.0 527.39 715.08 516.06Q715.55 506.79 710.85 497.53Q726.85 486.45 706.62 479.01Q727.65 467.45 702.17 459.51Q683.92 454.95 697.72 440.01Q677.07 437.22 693.5 421.49"/>
    <path d="M720.76 535.33Q714.82 526.58 718.02 515.51Q719.41 506.34 715.66 496.66Q732.68 487.22 713.3 477.81Q735.37 468.4 710.81 457.96Q693.1 451.61 708.32 438.12Q688.05 433.28 705.96 419.27"/>
    <path d="M721.75 535.25Q716.72 525.96 721.0 515.27Q723.3 506.27 720.53 496.27Q738.4 488.58 720.05 477.28Q742.95 470.12 719.56 457.28Q702.56 449.2 719.06 437.29Q699.36 430.46 718.58 418.3"/>
    <path d="M722.75 535.28Q718.66 525.53 723.99 515.32Q727.17 506.59 725.41 496.37Q743.96 490.49 726.83 477.42Q750.33 472.58 728.33 457.48Q712.22 447.74 729.82 437.53Q710.91 428.78 731.24 418.59"/>
    <path d="M723.74 535.4Q720.64 525.29 726.96 515.66Q731.0 507.3 730.26 496.95Q749.31 492.95 733.56 478.24Q757.43 475.76 737.03 458.54Q721.98 447.25 740.51 438.85Q722.56 428.25 743.81 420.14"/>
    <path d="M724.71 535.62Q722.64 525.26 729.88 516.3Q734.73 508.38 735.03 498.01Q754.38 495.93 740.18 479.72Q764.17 479.63 745.59 460.47Q731.74 447.73 751.01 441.22Q734.21 428.89 756.16 422.93"/>
    <path d="M725.65 535.94Q724.62 525.42 732.73 517.23Q738.34 509.84 739.67 499.55Q759.13 499.4 746.61 481.86Q770.49 484.16 753.92 463.24Q741.4 449.19 761.22 444.62Q745.73 430.68 768.17 426.94"/>
    <path d="M726.56 536.35Q726.59 525.78 735.46 518.44Q741.78 511.64 744.13 501.53Q763.51 503.32 752.8 484.62Q776.34 489.29 761.92 466.83Q750.87 451.6 771.05 449.03Q757.02 433.61 779.72 432.12"/>
    <path d="M727.43 536.85Q728.5 526.33 738.07 519.91Q745.03 513.77 748.37 503.95Q767.48 507.66 758.68 487.99Q781.64 494.98 769.53 471.19Q760.05 454.94 780.38 454.39Q767.96 437.66 790.69 438.43"/>
    <path d="M728.23 537.43Q730.35 527.08 740.51 521.64Q748.05 516.22 752.36 506.78Q771.0 512.38 764.2 491.93Q786.35 501.16 776.67 476.29Q768.85 459.17 789.14 460.66Q778.45 442.77 800.99 445.8"/>
    <path d="M728.98 538.09Q732.12 528.0 742.77 523.6Q750.81 518.96 756.03 510.0Q774.02 517.42 769.3 496.4Q790.42 507.79 783.27 482.08Q777.19 464.27 797.23 467.76Q788.37 448.9 810.5 454.16"/>
    <path d="M729.66 538.82Q733.79 529.09 744.82 525.77Q753.28 521.96 759.38 513.56Q776.54 522.74 773.93 501.35Q793.81 514.79 789.25 488.49Q784.98 470.17 804.57 475.64Q797.63 455.98 819.13 463.42"/>
    <path d="M730.26 539.62Q735.34 530.35 746.65 528.14Q755.45 525.19 762.34 517.44Q778.51 528.28 778.04 506.74Q796.48 522.09 794.57 495.47Q792.14 476.81 811.09 484.2Q806.15 463.96 826.79 473.5"/>
    <path d="M730.78 540.47Q736.76 531.75 748.23 530.68Q757.28 528.62 764.91 521.6Q779.92 533.99 781.6 512.51Q798.42 529.62 799.16 502.94Q798.61 484.13 816.73 493.38Q813.82 472.74 833.41 484.29"/>
    <path d="M731.21 541.37Q738.03 533.28 749.55 533.37Q758.76 532.22 767.06 525.99Q780.75 539.81 784.56 518.61Q799.59 537.31 802.99 510.84Q804.31 492.06 821.42 503.07Q820.59 482.24 838.93 495.69"/>
    <path d="M731.56 542.3Q739.14 534.94 750.59 536.17Q759.87 535.94 768.75 530.57Q781.0 545.69 786.91 524.97Q800.0 545.07 806.02 519.07Q809.2 500.52 825.13 513.18Q826.37 492.37 843.28 507.58"/>
    <path d="M731.8 543.27Q740.08 536.7 751.36 539.06Q760.61 539.76 769.98 535.3Q780.66 551.56 788.6 531.53Q799.63 552.84 808.21 527.57Q813.22 509.43 827.81 523.61Q831.12 503.03 846.43 519.84"/>
    <path d="M731.95 544.25Q740.84 538.54 751.83 542.01Q760.97 543.63 770.73 540.12Q779.74 557.37 789.64 538.23Q798.49 560.53 809.54 536.24Q816.33 518.69 829.44 534.25Q834.78 514.1 848.34 532.36"/>
    <g stroke="blue">
      <circle cx="418.0" cy="295.35" r="5"/>
      <circle cx="416.47" cy="315.77" r="5"/>
      <circle cx="411.91" cy="335.73" r="5"/>
      <circle cx="404.43" cy="354.79" r="5"/>
      <circle cx="394.19" cy="372.52" r="5"/>
      <circle cx="381.43" cy="388.53" r="5"/>
      <circle cx="366.42" cy="402.46" r="5"/>
      <circle cx="349.5" cy="414.0" r="5"/>
      <circle cx="331.05" cy="422.88" r="5"/>
      <circle cx="311.49" cy="428.92" r="5"/>
      <circle cx="291.24" cy="431.97" r="5"/>
      <circle cx="270.76" cy="431.97" r="5"/>
      <circle cx="250.51" cy="428.92" r="5"/>
      <circle cx="230.95" cy="422.88" r="5"/>
      <circle cx="212.5" cy="414.0" r="5"/>
      <circle cx="195.58" cy="402.46" r="5"/>
      <circle cx="180.57" cy="388.53" r="5"/>
      <circle cx="167.81" cy="372.52" r="5"/>
      <circle cx="157.57" cy="354.79" r="5"/>
      <circle cx="150.09" cy="335.73" r="5"/>
      <circle cx="145.53" cy="315.77" r="5"/>
      <circle cx="144.0" cy="295.35" r="5"/>
      <circle cx="145.53" cy="274.93" r="5"/>
      <circle cx="150.09" cy="254.97" r="5"/>
      <circle cx="157.57" cy="235.91" r="5"/>
      <circle cx="167.81" cy="218.18" r="5"/>
      <circle cx="180.57" cy="202.17" r="5"/>
      <circle cx="195.58" cy="188.24" r="5"/>
      <circle cx="212.5" cy="176.7" r="5"/>
      <circle cx="230.95" cy="167.82" r="5"/>
      <circle cx="250.51" cy="161.78" r="5"/>
      <circle cx="270.76" cy="158.73" r="5"/>
      <circle cx="291.24" cy="158.73" r="5"/>
      <circle cx="311.49" cy="161.78" r="5"/>
      <circle cx="331.05" cy="167.82" r="5"/>
      <circle cx="349.5" cy="176.7" r="5"/>
      <circle cx="366.42" cy="188.24" r="5"/>
      <circle cx="381.43" cy="202.17" r="5"/>
      <circle cx="394.19" cy="218.18" r="5"/>
      <circle cx="404.43" cy="235.91" r="5"/>
      <circle cx="411.91" cy="254.97" r="5"/>
      <circle cx="416.47" cy="274.93" r="5"/>
      <circle cx="575.0" cy="295.35" r="132"/>
      <circle cx="428.0" cy="545.25" r="132"/>
    </g>
  </g>
</svg>
