<svg version="1.1" width="1150" height="870" xmlns="http://www.w3.org/2000/svg">
  <!-- Seed: 4447666951987690051 -->
  <!-- Size: SvgSize.Size9x12 -->
  <!-- Params:
    draw_circles: True
    draw_border: True
    rotate_range: 0.3141592653589793
    ring_pad: 5
    ring_weights: [(0, 5), (1, 2), (2, 1), (3, 0.5)]
    border_weights: [(<BorderType.Empty: 0>, 5), (<BorderType.Circles: 1>, 1), (<BorderType.Starburst: 2>, 2)]
    padding: 0
    size_range: [RangeInt] min: 20 max: 350
    size_pad: 20
    origin_shuffle_range: 0
  -->
  <g stroke="black" fill="none">
    <path d="M255.0 237.0Q262.33 232.12 271.0 237.0Q277.76 246.08 287.0 237.0Q293.58 225.18 303.0 237.0Q310.99 237.94 319.0 237.0Q324.2 258.23 335.0 237.0"/>
    <path d="M254.9 238.39Q262.84 234.58 270.75 240.62Q276.18 250.56 286.59 242.85Q294.75 232.06 302.44 245.07Q310.22 247.12 318.28 247.3Q320.48 269.05 334.12 249.53"/>
    <path d="M254.61 239.76Q263.0 237.09 269.99 244.17Q273.99 254.76 285.37 248.58Q294.96 239.03 300.75 252.99Q308.18 256.1 316.13 257.4Q315.28 279.24 331.51 261.81"/>
    <path d="M254.14 241.07Q262.81 239.59 268.75 247.58Q271.24 258.63 283.37 254.08Q294.19 245.96 297.99 260.59Q304.9 264.71 312.6 267.1Q308.72 288.61 327.22 273.61"/>
    <path d="M253.48 242.3Q262.28 242.05 267.05 250.78Q267.97 262.07 280.62 259.26Q292.46 252.72 294.19 267.74Q300.46 272.77 307.76 276.21Q300.92 296.98 321.32 284.69"/>
    <path d="M252.66 243.43Q261.41 244.4 264.92 253.71Q264.26 265.02 277.17 264.0Q289.81 259.17 289.43 274.28Q294.95 280.14 301.69 284.57Q292.02 304.18 313.94 294.85"/>
    <path d="M251.69 244.43Q260.22 246.61 262.4 256.32Q260.17 267.43 273.1 268.21Q286.29 265.19 283.81 280.1Q288.46 286.67 294.52 291.99Q282.22 310.07 305.22 303.88"/>
    <path d="M250.59 245.29Q258.73 248.64 259.54 258.55Q255.79 269.24 268.49 271.82Q281.97 270.67 277.43 285.08Q281.12 292.24 286.38 298.35Q271.69 314.54 295.33 311.61"/>
    <path d="M249.38 245.99Q256.98 250.44 256.4 260.37Q251.2 270.43 263.41 274.75Q276.92 275.48 270.43 289.13Q273.08 296.73 277.44 303.51Q260.64 317.5 284.45 317.89"/>
    <path d="M248.09 246.51Q254.99 251.97 253.03 261.73Q246.48 270.97 257.98 276.94Q271.26 279.55 262.92 292.16Q264.49 300.06 267.87 307.38Q249.28 318.89 272.81 322.6"/>
    <path d="M246.74 246.85Q252.81 253.22 249.51 262.61Q241.74 270.84 252.29 278.36Q265.08 282.79 255.07 294.12Q255.53 302.15 257.85 309.88Q237.84 318.69 260.63 325.63"/>
    <path d="M245.35 246.99Q250.48 254.15 245.91 262.98Q237.06 270.06 246.47 278.97Q258.51 285.14 247.02 294.96Q246.36 302.99 247.58 310.95Q226.54 316.9 248.14 326.95"/>
    <path d="M243.95 246.95Q248.04 254.74 242.28 262.86Q232.54 268.63 240.61 278.77Q251.68 286.55 238.94 294.68Q237.16 302.53 237.26 310.59Q215.6 313.55 235.59 326.51"/>
    <path d="M242.58 246.7Q245.54 254.99 238.71 262.23Q228.26 266.59 234.84 277.75Q244.72 287.0 230.97 293.28Q228.12 300.8 227.1 308.8Q205.24 308.71 223.23 324.33"/>
    <path d="M241.25 246.27Q243.03 254.89 235.26 261.11Q224.3 263.98 229.27 275.94Q237.76 286.47 223.27 290.78Q219.4 297.83 217.28 305.61Q195.64 302.48 211.29 320.45"/>
    <path d="M240.0 245.66Q240.56 254.44 232.0 259.52Q220.75 260.83 224.0 273.37Q230.95 284.98 216.0 287.23Q211.19 293.68 208.0 301.09Q187.01 294.97 200.0 314.94"/>
    <path d="M238.84 244.88Q238.17 253.66 228.99 257.49Q217.67 257.23 219.14 270.1Q224.4 282.56 209.29 282.7Q203.63 288.42 199.44 295.31Q179.51 286.34 189.59 307.92"/>
    <path d="M237.81 243.95Q235.92 252.54 226.3 255.06Q215.12 253.23 214.79 266.18Q218.26 279.25 203.28 277.29Q196.87 282.16 191.77 288.4Q173.28 276.74 180.26 299.52"/>
    <path d="M236.91 242.88Q233.85 251.13 223.97 252.28Q213.15 248.91 211.02 261.69Q212.64 275.12 198.08 271.09Q191.05 275.03 185.13 280.5Q168.44 266.38 172.19 289.9"/>
    <path d="M236.17 241.69Q231.99 249.44 222.04 249.21Q211.81 244.36 207.92 256.72Q207.65 270.25 193.79 264.23Q186.29 267.15 179.66 271.74Q165.1 255.43 165.53 279.25"/>
    <path d="M235.6 240.42Q230.39 247.51 220.57 245.89Q211.1 239.67 205.53 251.36Q203.39 264.72 190.5 256.84Q182.66 258.68 175.46 262.31Q163.31 244.14 160.43 267.78"/>
    <path d="M235.22 239.08Q229.07 245.37 219.57 242.41Q211.06 234.93 203.92 245.73Q199.94 258.66 188.27 249.06Q180.25 249.8 172.62 252.39Q163.11 232.7 156.97 255.71"/>
    <path d="M235.02 237.7Q228.06 243.07 219.06 238.81Q211.68 230.22 203.1 239.93Q197.36 252.18 187.14 241.05Q179.1 240.66 171.18 242.16Q164.51 221.34 155.22 243.28"/>
    <path d="M235.02 236.3Q227.38 240.66 219.06 235.19Q212.95 225.65 203.1 234.07Q195.71 245.4 187.14 232.95Q179.23 231.45 171.18 231.84Q167.47 210.29 155.22 230.72"/>
    <path d="M235.22 234.92Q227.04 238.17 219.57 231.59Q214.84 221.3 203.92 228.27Q195.02 238.46 188.27 224.94Q180.65 222.35 172.62 221.61Q171.94 199.76 156.97 218.29"/>
    <path d="M235.6 233.58Q227.05 235.66 220.57 228.11Q217.32 217.26 205.53 222.64Q195.3 231.49 190.5 217.16Q183.31 213.54 175.46 211.69Q177.84 189.96 160.43 206.22"/>
    <path d="M236.17 232.31Q227.41 233.17 222.04 224.79Q220.34 213.6 207.92 217.28Q196.55 224.63 193.79 209.77Q187.18 205.18 179.66 202.26Q185.04 181.07 165.53 194.75"/>
    <path d="M236.91 231.12Q228.12 230.76 223.97 221.72Q223.83 210.39 211.02 212.31Q198.75 218.01 198.08 202.91Q192.17 197.45 185.13 193.5Q193.4 173.27 172.19 184.1"/>
    <path d="M237.81 230.05Q229.15 228.47 226.3 218.94Q227.74 207.71 214.79 207.82Q201.84 211.75 203.28 196.71Q198.18 190.48 191.77 185.6Q202.78 166.71 180.26 174.48"/>
    <path d="M238.84 229.12Q230.49 226.35 228.99 216.51Q231.99 205.59 219.14 203.9Q205.77 205.99 209.29 191.3Q205.12 184.41 199.44 178.69Q212.97 161.51 189.59 166.08"/>
    <path d="M240.0 228.34Q232.11 224.43 232.0 214.48Q236.49 204.08 224.0 200.63Q210.47 200.84 216.0 186.77Q212.82 179.38 208.0 172.91Q223.79 157.79 200.0 159.06"/>
    <path d="M241.25 227.73Q233.99 222.76 235.26 212.89Q241.15 203.22 229.27 198.06Q215.84 196.38 223.27 183.22Q221.15 175.46 217.28 168.39Q235.02 155.61 211.29 153.55"/>
    <path d="M242.58 227.3Q236.08 221.37 238.71 211.77Q245.89 203.01 234.84 196.25Q221.78 192.72 230.97 180.72Q229.95 172.74 227.1 165.2Q246.44 155.01 223.23 149.67"/>
    <path d="M243.95 227.05Q238.34 220.28 242.28 211.14Q250.61 203.47 240.61 195.23Q228.17 189.92 238.94 179.32Q239.04 171.27 237.26 163.41Q257.84 156.01 235.59 147.49"/>
    <path d="M245.35 227.01Q240.73 219.51 245.91 211.02Q255.22 204.57 246.47 195.03Q234.88 188.03 247.02 179.04Q248.25 171.08 247.58 163.05Q268.99 158.59 248.14 147.05"/>
    <path d="M246.74 227.15Q243.21 219.09 249.51 211.39Q259.64 206.31 252.29 195.64Q241.8 187.1 255.07 179.88Q257.39 172.17 257.85 164.12Q279.66 162.69 260.63 148.37"/>
    <path d="M248.09 227.49Q245.72 219.01 253.03 212.27Q263.76 208.65 257.98 197.06Q248.77 187.14 262.92 181.84Q266.29 174.53 267.87 166.62Q289.67 168.24 272.81 151.4"/>
    <path d="M249.38 228.01Q248.21 219.29 256.4 213.63Q267.53 211.53 263.41 199.25Q255.67 188.15 270.43 184.87Q274.78 178.1 277.44 170.49Q298.81 175.12 284.45 156.11"/>
    <path d="M250.59 228.71Q250.65 219.91 259.54 215.45Q270.85 214.92 268.49 202.18Q262.37 190.11 277.43 188.92Q282.69 182.82 286.38 175.65Q306.89 183.21 295.33 162.39"/>
    <path d="M251.69 229.57Q252.97 220.86 262.4 217.68Q273.67 218.73 273.1 205.79Q268.72 192.99 283.81 193.9Q289.86 188.59 294.52 182.01Q313.78 192.35 305.22 170.12"/>
    <path d="M252.66 230.57Q255.14 222.13 264.92 220.29Q275.94 222.9 277.17 210.0Q274.62 196.72 289.43 199.72Q296.16 195.3 301.69 189.43Q319.32 202.36 313.94 179.15"/>
    <path d="M253.48 231.7Q257.11 223.68 267.05 223.22Q277.6 227.34 280.62 214.74Q279.94 201.23 294.19 206.26Q301.47 202.83 307.76 197.79Q323.42 213.04 321.32 189.31"/>
    <path d="M254.14 232.93Q258.85 225.5 268.75 226.42Q278.63 231.97 283.37 219.92Q284.57 206.44 297.99 213.41Q305.67 211.02 312.6 206.9Q325.99 224.18 327.22 200.39"/>
    <path d="M254.61 234.24Q260.31 227.54 269.99 229.83Q279.0 236.7 285.37 225.42Q288.44 212.25 300.75 221.01Q308.7 219.72 316.13 216.6Q326.99 235.58 331.51 212.19"/>
    <path d="M254.9 235.61Q261.48 229.76 270.75 233.38Q278.71 241.44 286.59 231.15Q291.46 218.53 302.44 228.93Q310.48 228.75 318.28 226.7Q326.39 247.0 334.12 224.47"/>
    <path d="M475.0 237.0Q482.6 233.21 491.0 237.0Q498.86 233.89 507.0 237.0Q514.37 244.93 523.0 237.0Q530.52 244.93 539.0 237.0Q546.26 248.02 555.0 237.0"/>
    <path d="M474.9 238.39Q482.95 235.7 490.75 240.62Q498.96 238.63 506.59 242.85Q512.78 251.72 522.44 245.07Q528.78 253.98 538.28 247.3Q543.93 259.22 554.12 249.53"/>
    <path d="M474.61 239.76Q482.96 238.21 489.99 244.17Q498.4 243.34 505.37 248.58Q510.27 258.23 520.75 252.99Q525.8 262.69 536.13 257.4Q540.07 269.99 551.51 261.81"/>
    <path d="M474.14 241.07Q482.62 240.69 488.75 247.58Q497.19 247.93 503.37 254.08Q506.88 264.32 517.99 260.59Q521.63 270.9 532.6 267.1Q534.75 280.12 547.22 273.61"/>
    <path d="M473.48 242.3Q481.93 243.11 487.05 250.78Q495.36 252.31 500.62 259.26Q502.67 269.88 514.19 267.74Q516.36 278.45 527.76 276.21Q528.07 289.41 541.32 284.69"/>
    <path d="M472.66 243.43Q480.92 245.41 484.92 253.71Q492.93 256.38 497.17 264.0Q497.72 274.81 509.43 274.28Q510.09 285.19 521.69 284.57Q520.16 297.67 533.94 294.85"/>
    <path d="M471.69 244.43Q479.59 247.54 482.4 256.32Q489.97 260.08 493.1 268.21Q492.14 278.99 503.81 280.1Q502.95 291.0 514.52 291.99Q511.18 304.76 525.22 303.88"/>
    <path d="M470.59 245.29Q477.98 249.47 479.54 258.55Q486.51 263.33 488.49 271.82Q486.03 282.36 497.43 285.08Q495.06 295.76 506.38 298.35Q501.3 310.53 515.33 311.61"/>
    <path d="M469.38 245.99Q476.12 251.15 476.4 260.37Q482.64 266.07 483.41 274.75Q479.52 284.85 490.43 289.13Q486.59 299.37 497.44 303.51Q490.71 314.86 504.45 317.89"/>
    <path d="M468.09 246.51Q474.04 252.56 473.03 261.73Q478.42 268.24 477.98 276.94Q472.72 286.4 482.92 292.16Q477.7 301.77 487.87 307.38Q479.63 317.68 492.81 322.6"/>
    <path d="M466.74 246.85Q471.79 253.67 469.51 262.61Q473.94 269.8 472.29 278.36Q465.77 286.99 475.07 294.12Q468.56 302.9 477.85 309.88Q468.26 318.94 480.63 325.63"/>
    <path d="M465.35 246.99Q469.4 254.45 465.91 262.98Q469.29 270.73 466.47 278.97Q458.8 286.61 467.02 294.96Q459.36 302.76 467.58 310.95Q456.82 318.59 468.14 326.95"/>
    <path d="M463.95 246.95Q466.93 254.9 462.28 262.86Q464.55 271.0 460.61 278.77Q451.96 285.27 458.94 294.68Q450.26 301.33 457.26 310.59Q445.55 316.66 455.59 326.51"/>
    <path d="M462.58 246.7Q464.42 254.99 458.71 262.23Q459.83 270.6 454.84 277.75Q445.37 282.98 450.97 293.28Q441.45 298.66 447.1 308.8Q434.65 313.18 443.23 324.33"/>
    <path d="M461.25 246.27Q461.92 254.73 455.26 261.11Q455.2 269.56 449.27 275.94Q439.16 279.8 443.27 290.78Q433.1 294.78 437.28 305.61Q424.34 308.21 431.29 320.45"/>
    <path d="M460.0 245.66Q459.48 254.13 452.0 259.52Q450.76 267.88 444.0 273.37Q433.45 275.79 436.0 287.23Q425.37 289.78 428.0 301.09Q414.83 301.86 420.0 314.94"/>
    <path d="M458.84 244.88Q457.15 253.2 448.99 257.49Q446.6 265.59 439.14 270.1Q428.36 271.02 429.29 282.7Q418.41 283.75 419.44 295.31Q406.29 294.25 409.59 307.92"/>
    <path d="M457.81 243.95Q454.97 251.95 446.3 255.06Q442.8 262.76 434.79 266.18Q423.98 265.59 423.28 277.29Q412.36 276.81 411.77 288.4Q398.89 285.52 400.26 299.52"/>
    <path d="M456.91 242.88Q452.99 250.41 443.97 252.28Q439.44 259.42 431.02 261.69Q420.4 259.6 418.08 271.09Q407.33 269.09 405.13 280.5Q392.78 275.84 392.19 289.9"/>
    <path d="M456.17 241.69Q451.24 248.61 442.04 249.21Q436.56 255.64 427.92 256.72Q417.69 253.18 413.79 264.23Q403.42 260.75 399.66 271.74Q388.08 265.42 385.53 279.25"/>
    <path d="M455.6 240.42Q449.76 246.58 440.57 245.89Q434.25 251.5 425.53 251.36Q415.9 246.44 410.5 256.84Q400.72 251.95 395.46 262.31Q384.87 254.43 380.43 267.78"/>
    <path d="M455.22 239.08Q448.58 244.37 439.57 242.41Q432.53 247.08 423.92 245.73Q415.06 239.51 408.27 249.06Q399.26 242.86 392.62 252.39Q383.23 243.11 376.97 255.71"/>
    <path d="M455.02 237.7Q447.71 242.01 439.06 238.81Q431.44 242.46 423.1 239.93Q415.2 232.54 407.14 241.05Q399.08 233.65 391.18 242.16Q383.17 231.67 375.22 243.28"/>
    <path d="M455.02 236.3Q447.18 239.55 439.06 235.19Q431.01 237.74 423.1 234.07Q416.31 225.65 407.14 232.95Q400.19 224.51 391.18 231.84Q384.71 220.34 375.22 230.72"/>
    <path d="M455.22 234.92Q447.0 237.05 439.57 231.59Q431.24 233.0 423.92 228.27Q418.36 218.98 408.27 224.94Q402.56 215.62 392.62 221.61Q387.81 209.33 376.97 218.29"/>
    <path d="M455.6 233.58Q447.17 234.54 440.57 228.11Q432.12 228.34 425.53 222.64Q421.32 212.67 410.5 217.16Q406.14 207.13 395.46 211.69Q392.41 198.85 380.43 206.22"/>
    <path d="M456.17 232.31Q447.68 232.09 442.04 224.79Q433.65 223.85 427.92 217.28Q425.13 206.82 413.79 209.77Q410.87 199.23 399.66 202.26Q398.43 189.12 385.53 194.75"/>
    <path d="M456.91 231.12Q448.54 229.72 443.97 221.72Q435.78 219.61 431.02 212.31Q429.72 201.57 418.08 202.91Q416.66 192.07 405.13 193.5Q405.74 180.32 392.19 184.1"/>
    <path d="M457.81 230.05Q449.71 227.5 446.3 218.94Q438.49 215.72 434.79 207.82Q434.99 197.0 423.28 196.71Q423.38 185.78 411.77 185.6Q414.21 172.63 400.26 174.48"/>
    <path d="M458.84 229.12Q451.18 225.47 448.99 216.51Q441.71 212.23 439.14 203.9Q440.85 193.22 429.29 191.3Q430.91 180.48 419.44 178.69Q423.66 166.18 409.59 166.08"/>
    <path d="M460.0 228.34Q452.92 223.66 452.0 214.48Q445.38 209.23 444.0 200.63Q447.18 190.28 436.0 186.77Q439.11 176.29 428.0 172.91Q433.92 161.12 420.0 159.06"/>
    <path d="M461.25 227.73Q454.89 222.1 455.26 212.89Q449.43 206.77 449.27 198.06Q453.86 188.26 443.27 183.22Q447.81 173.28 437.28 168.39Q444.78 157.53 431.29 153.55"/>
    <path d="M462.58 227.3Q457.07 220.84 458.71 211.77Q453.79 204.9 454.84 196.25Q460.75 187.18 450.97 180.72Q456.85 171.51 447.1 165.2Q456.04 155.49 443.23 149.67"/>
    <path d="M463.95 227.05Q459.39 219.9 462.28 211.14Q458.37 203.65 460.61 195.23Q467.72 187.07 458.94 179.32Q466.04 171.01 457.26 163.41Q467.47 155.04 455.59 147.49"/>
    <path d="M465.35 227.01Q461.83 219.28 465.91 211.02Q463.07 203.05 466.47 195.03Q474.64 187.94 467.02 179.04Q475.22 171.8 467.58 163.05Q478.85 156.18 468.14 147.05"/>
    <path d="M466.74 227.15Q464.32 219.01 469.51 211.39Q467.82 203.12 472.29 195.64Q481.38 189.76 475.07 179.88Q484.19 173.85 477.85 164.12Q489.96 158.89 480.63 148.37"/>
    <path d="M468.09 227.49Q466.83 219.09 473.03 212.27Q472.51 203.84 477.98 197.06Q487.79 192.5 482.92 181.84Q492.79 177.14 487.87 166.62Q500.59 163.13 492.81 151.4"/>
    <path d="M469.38 228.01Q469.31 219.52 476.4 213.63Q477.05 205.21 483.41 199.25Q493.77 196.1 490.43 184.87Q500.85 181.59 497.44 170.49Q510.53 168.8 504.45 156.11"/>
    <path d="M470.59 228.71Q471.7 220.29 479.54 215.45Q481.36 207.19 488.49 202.18Q499.18 200.5 497.43 188.92Q508.22 187.12 506.38 175.65Q519.57 175.8 515.33 162.39"/>
    <path d="M471.69 229.57Q473.96 221.39 482.4 217.68Q485.34 209.76 493.1 205.79Q503.92 205.62 503.81 193.9Q514.74 193.62 514.52 182.01Q527.56 183.99 525.22 170.12"/>
    <path d="M472.66 230.57Q476.04 222.79 484.92 220.29Q488.94 212.86 497.17 210.0Q507.91 211.34 509.43 199.72Q520.29 200.96 521.69 189.43Q534.33 193.21 533.94 179.15"/>
    <path d="M473.48 231.7Q477.91 224.46 487.05 223.22Q492.07 216.42 500.62 214.74Q511.07 217.56 514.19 206.26Q524.77 209.01 527.76 197.79Q539.75 203.29 541.32 189.31"/>
    <path d="M474.14 232.93Q479.53 226.38 488.75 226.42Q494.67 220.39 503.37 219.92Q513.32 224.16 517.99 213.41Q528.08 217.6 532.6 206.9Q543.71 214.02 547.22 200.39"/>
    <path d="M474.61 234.24Q480.87 228.51 489.99 229.83Q496.69 224.68 505.37 225.42Q514.64 231.01 520.75 221.01Q530.17 226.57 536.13 216.6Q546.15 225.2 551.51 212.19"/>
    <path d="M474.9 235.61Q481.9 230.8 490.75 233.38Q498.1 229.21 506.59 231.15Q514.99 237.98 522.44 228.93Q530.99 235.74 538.28 226.7Q547.0 236.61 554.12 224.47"/>
    <path d="M695.0 237.0Q703.0 237.41 711.0 237.0Q718.69 232.4 727.0 237.0Q734.8 241.49 743.0 237.0Q750.99 235.68 759.0 237.0Q766.98 235.02 775.0 237.0"/>
    <path d="M694.9 238.39Q702.76 239.91 710.75 240.62Q719.0 237.14 726.59 242.85Q733.69 248.38 742.44 245.07Q750.53 244.87 758.28 247.3Q766.45 246.45 774.12 249.53"/>
    <path d="M694.61 239.76Q702.18 242.36 709.99 244.17Q718.65 241.87 725.37 248.58Q731.63 255.04 740.75 252.99Q748.8 253.92 756.13 257.4Q764.35 257.69 771.51 261.81"/>
    <path d="M694.14 241.07Q701.27 244.69 708.75 247.58Q717.65 246.5 723.37 254.08Q728.67 261.36 737.99 260.59Q745.82 262.63 752.6 267.1Q760.69 268.53 767.22 273.61"/>
    <path d="M693.48 242.3Q700.04 246.88 707.05 250.78Q716.01 250.95 720.62 259.26Q724.85 267.2 734.19 267.74Q741.66 270.84 747.76 276.21Q755.57 278.76 761.32 284.69"/>
    <path d="M692.66 243.43Q698.52 248.88 704.92 253.71Q713.76 255.13 717.17 264.0Q720.26 272.45 729.43 274.28Q736.4 278.4 741.69 284.57Q749.07 288.18 753.94 294.85"/>
    <path d="M691.69 244.43Q696.74 250.65 702.4 256.32Q710.96 258.96 713.1 268.21Q714.99 277.01 723.81 280.1Q730.14 285.15 734.52 291.99Q741.32 296.6 745.22 303.88"/>
    <path d="M690.59 245.29Q694.72 252.15 699.54 258.55Q707.65 262.36 708.49 271.82Q709.12 280.79 717.43 285.08Q723.0 290.97 726.38 298.35Q732.48 303.85 735.33 311.61"/>
    <path d="M689.38 245.99Q692.52 253.35 696.4 260.37Q703.9 265.26 703.41 274.75Q702.79 283.73 710.43 289.13Q715.12 295.73 717.44 303.51Q722.72 309.81 724.45 317.89"/>
    <path d="M688.09 246.51Q690.17 254.24 693.03 261.73Q699.78 267.62 697.98 276.94Q696.12 285.75 702.92 292.16Q706.65 299.35 707.87 307.38Q712.22 314.35 712.81 322.6"/>
    <path d="M686.74 246.85Q687.72 254.79 689.51 262.61Q695.38 269.38 692.29 278.36Q689.23 286.82 695.07 294.12Q697.76 301.75 697.85 309.88Q701.19 317.39 700.63 325.63"/>
    <path d="M685.35 246.99Q685.22 255.0 685.91 262.98Q690.77 270.51 686.47 278.97Q682.25 286.92 687.02 294.96Q688.63 302.9 687.58 310.95Q689.84 318.86 688.14 326.95"/>
    <path d="M683.95 246.95Q682.71 254.85 682.28 262.86Q686.05 270.98 680.61 278.77Q675.33 286.06 678.94 294.68Q679.42 302.76 677.26 310.59Q678.4 318.73 675.59 326.51"/>
    <path d="M682.58 246.7Q680.25 254.36 678.71 262.23Q681.31 270.8 674.84 277.75Q668.6 284.23 670.97 293.28Q670.32 301.35 667.1 308.8Q667.09 317.02 663.23 324.33"/>
    <path d="M681.25 246.27Q677.88 253.53 675.26 261.11Q676.64 269.96 669.27 275.94Q662.18 281.49 663.27 290.78Q661.51 298.68 657.28 305.61Q656.13 313.75 651.29 320.45"/>
    <path d="M680.0 245.66Q675.65 252.38 672.0 259.52Q672.14 268.47 664.0 273.37Q656.21 277.88 656.0 287.23Q653.15 294.81 648.0 301.09Q645.73 308.98 640.0 314.94"/>
    <path d="M678.84 244.88Q673.6 250.93 668.99 257.49Q667.88 266.38 659.14 270.1Q650.8 273.48 649.29 282.7Q645.42 289.81 639.44 295.31Q636.09 302.82 629.59 307.92"/>
    <path d="M677.81 243.95Q671.77 249.2 666.3 255.06Q663.96 263.71 654.79 266.18Q646.06 268.36 643.28 277.29Q638.45 283.79 631.77 288.4Q627.41 295.37 620.26 299.52"/>
    <path d="M676.91 242.88Q670.2 247.24 663.97 252.28Q660.45 260.52 651.02 261.69Q642.07 262.64 638.08 271.09Q632.39 276.86 625.13 280.5Q619.84 286.79 612.19 289.9"/>
    <path d="M676.17 241.69Q668.92 245.09 662.04 249.21Q657.41 256.88 647.92 256.72Q638.92 256.41 633.79 264.23Q627.36 269.15 619.66 271.74Q613.55 277.23 605.53 279.25"/>
    <path d="M675.6 240.42Q667.95 242.77 660.57 245.89Q654.92 252.84 645.53 251.36Q636.67 249.81 630.5 256.84Q623.45 260.81 615.46 262.31Q608.64 266.9 600.43 267.78"/>
    <path d="M675.22 239.08Q667.31 240.34 659.57 242.41Q653.0 248.5 643.92 245.73Q635.36 242.96 628.27 249.06Q620.73 252.01 612.62 252.39Q605.23 255.98 596.97 255.71"/>
    <path d="M675.02 237.7Q667.02 237.85 659.06 238.81Q651.72 243.94 643.1 239.93Q635.01 236.0 627.14 241.05Q619.27 242.92 611.18 242.16Q603.36 244.69 595.22 243.28"/>
    <path d="M675.02 236.3Q667.08 235.33 659.06 235.19Q651.07 239.24 643.1 234.07Q635.64 229.05 627.14 232.95Q619.08 233.72 611.18 231.84Q603.09 233.26 595.22 230.72"/>
    <path d="M675.22 234.92Q667.48 232.86 659.57 231.59Q651.09 234.49 643.92 228.27Q637.22 222.26 628.27 224.94Q620.18 224.58 612.62 221.61Q604.4 221.89 596.97 218.29"/>
    <path d="M675.6 233.58Q668.23 230.46 660.57 228.11Q651.77 229.8 645.53 222.64Q639.74 215.75 630.5 217.16Q622.54 215.68 615.46 211.69Q607.29 210.82 600.43 206.22"/>
    <path d="M676.17 232.31Q669.3 228.19 662.04 224.79Q653.1 225.24 647.92 217.28Q643.14 209.66 633.79 209.77Q626.12 207.19 619.66 202.26Q611.69 200.26 605.53 194.75"/>
    <path d="M676.91 231.12Q670.68 226.09 663.97 221.72Q655.04 220.92 651.02 212.31Q647.35 204.1 638.08 202.91Q630.84 199.29 625.13 193.5Q617.52 190.42 612.19 184.1"/>
    <path d="M677.81 230.05Q672.34 224.2 666.3 218.94Q657.57 216.91 654.79 207.82Q652.3 199.18 643.28 196.71Q636.61 192.11 631.77 185.6Q624.66 181.48 620.26 174.48"/>
    <path d="M678.84 229.12Q674.25 222.57 668.99 216.51Q660.64 213.28 659.14 203.9Q657.88 194.99 649.29 191.3Q643.33 185.82 639.44 178.69Q632.97 173.62 629.59 166.08"/>
    <path d="M680.0 228.34Q676.36 221.21 672.0 214.48Q664.17 210.12 664.0 200.63Q663.99 191.63 656.0 186.77Q650.86 180.52 648.0 172.91Q642.3 167.0 640.0 159.06"/>
    <path d="M681.25 227.73Q678.64 220.16 675.26 212.89Q668.12 207.49 669.27 198.06Q670.51 189.15 663.27 183.22Q659.05 176.31 657.28 168.39Q652.46 161.73 651.29 153.55"/>
    <path d="M682.58 227.3Q681.05 219.44 678.71 211.77Q672.39 205.43 674.84 196.25Q677.31 187.6 670.97 180.72Q667.75 173.29 667.1 165.2Q663.25 157.94 663.23 149.67"/>
    <path d="M683.95 227.05Q683.53 219.06 682.28 211.14Q676.91 203.98 680.61 195.23Q684.26 187.01 678.94 179.32Q676.79 171.51 677.26 163.41Q674.46 155.68 675.59 147.49"/>
    <path d="M685.35 227.01Q686.04 219.03 685.91 211.02Q681.58 203.17 686.47 195.03Q691.22 187.39 687.02 179.04Q685.98 171.01 687.58 163.05Q685.88 155.0 688.14 147.05"/>
    <path d="M686.74 227.15Q688.53 219.35 689.51 211.39Q686.32 203.03 692.29 195.64Q698.07 188.74 695.07 179.88Q695.15 171.79 697.85 164.12Q697.28 155.93 700.63 148.37"/>
    <path d="M688.09 227.49Q690.95 220.01 693.03 212.27Q691.04 203.54 697.98 197.06Q704.66 191.03 702.92 181.84Q704.13 173.83 707.87 166.62Q708.45 158.42 712.81 151.4"/>
    <path d="M689.38 228.01Q693.26 221.01 696.4 213.63Q695.64 204.71 703.41 199.25Q710.87 194.21 710.43 184.87Q712.74 177.11 717.44 170.49Q719.16 162.45 724.45 156.11"/>
    <path d="M690.59 228.71Q695.4 222.31 699.54 215.45Q700.03 206.5 708.49 202.18Q716.57 198.23 717.43 188.92Q720.8 181.55 726.38 175.65Q729.2 167.93 735.33 162.39"/>
    <path d="M691.69 229.57Q697.35 223.9 702.4 217.68Q704.12 208.89 713.1 205.79Q721.66 203.0 723.81 193.9Q728.17 187.08 734.52 182.01Q738.38 174.75 745.22 170.12"/>
    <path d="M692.66 230.57Q699.05 225.75 704.92 220.29Q707.85 211.82 717.17 210.0Q726.03 208.43 729.43 199.72Q734.7 193.57 741.69 189.43Q746.52 182.79 753.94 179.15"/>
    <path d="M693.48 231.7Q700.48 227.81 707.05 223.22Q711.13 215.25 720.62 214.74Q729.61 214.42 734.19 206.26Q740.26 200.91 747.76 197.79Q753.47 191.88 761.32 189.31"/>
    <path d="M694.14 232.93Q701.61 230.06 708.75 226.42Q713.91 219.1 723.37 219.92Q732.32 220.85 737.99 213.41Q744.74 208.95 752.6 206.9Q759.08 201.85 767.22 200.39"/>
    <path d="M694.61 234.24Q702.41 232.44 709.99 229.83Q716.12 223.29 725.37 225.42Q734.11 227.59 740.75 221.01Q748.07 217.54 756.13 216.6Q763.25 212.5 771.51 212.19"/>
    <path d="M694.9 235.61Q702.88 234.9 710.75 233.38Q717.72 227.76 726.59 231.15Q734.94 234.52 742.44 228.93Q750.16 226.51 758.28 226.7Q765.9 223.63 774.12 224.47"/>
    <path d="M915.0 237.0Q922.62 233.3 931.0 237.0Q938.85 233.8 947.0 237.0Q954.66 231.16 963.0 237.0Q969.49 251.05 979.0 237.0Q986.98 238.88 995.0 237.0"/>
    <path d="M914.9 238.39Q922.96 235.79 930.75 240.62Q938.97 238.54 946.59 242.85Q954.99 238.13 962.44 245.07Q966.9 259.89 978.28 247.3Q985.92 250.27 994.12 249.53"/>
    <path d="M914.61 239.76Q922.95 238.3 929.99 244.17Q938.42 243.25 945.37 248.58Q954.34 245.07 960.75 252.99Q963.11 268.28 976.13 257.4Q983.29 261.4 991.51 261.81"/>
    <path d="M914.14 241.07Q922.6 240.78 928.75 247.58Q937.22 247.84 943.37 254.08Q952.74 251.86 957.99 260.59Q958.19 276.07 972.6 267.1Q979.13 272.06 987.22 273.61"/>
    <path d="M913.48 242.3Q921.9 243.2 927.05 250.78Q935.4 252.22 940.62 259.26Q950.21 258.36 954.19 267.74Q952.24 283.09 967.76 276.21Q973.53 282.03 981.32 284.69"/>
    <path d="M912.66 243.43Q920.87 245.49 924.92 253.71Q932.99 256.31 937.17 264.0Q946.79 264.44 949.43 274.28Q945.37 289.22 961.69 284.57Q966.59 291.13 973.94 294.85"/>
    <path d="M911.69 244.43Q919.54 247.61 922.4 256.32Q930.03 260.01 933.1 268.21Q942.57 269.99 943.81 280.1Q937.71 294.33 954.52 291.99Q958.46 299.18 965.22 303.88"/>
    <path d="M910.59 245.29Q917.92 249.53 919.54 258.55Q926.58 263.27 928.49 271.82Q937.61 274.9 937.43 285.08Q929.41 298.32 946.38 298.35Q949.28 306.01 955.33 311.61"/>
    <path d="M909.38 245.99Q916.05 251.21 916.4 260.37Q922.71 266.02 923.41 274.75Q932.02 279.07 930.43 289.13Q920.64 301.12 937.44 303.51Q939.25 311.51 944.45 317.89"/>
    <path d="M908.09 246.51Q913.96 252.61 913.03 261.73Q918.5 268.2 917.98 276.94Q925.9 282.42 922.92 292.16Q911.56 302.67 927.87 307.38Q928.55 315.55 932.81 322.6"/>
    <path d="M906.74 246.85Q911.7 253.71 909.51 262.61Q914.03 269.78 912.29 278.36Q919.38 284.89 915.07 294.12Q902.36 302.95 917.85 309.88Q917.39 318.06 920.63 325.63"/>
    <path d="M905.35 246.99Q909.31 254.48 905.91 262.98Q909.38 270.72 906.47 278.97Q912.57 286.42 907.02 294.96Q893.2 301.94 907.58 310.95Q905.98 318.99 908.14 326.95"/>
    <path d="M903.95 246.95Q906.84 254.91 902.28 262.86Q904.64 271.0 900.61 278.77Q905.62 287.0 898.94 294.68Q884.28 299.66 897.26 310.59Q894.56 318.33 895.59 326.51"/>
    <path d="M902.58 246.7Q904.33 254.99 898.71 262.23Q899.92 270.62 894.84 277.75Q898.65 286.6 890.97 293.28Q875.76 296.17 887.1 308.8Q883.34 316.09 883.23 324.33"/>
    <path d="M901.25 246.27Q901.83 254.72 895.26 261.11Q895.29 269.58 889.27 275.94Q891.81 285.23 883.27 290.78Q867.81 291.53 877.28 305.61Q872.55 312.31 871.29 320.45"/>
    <path d="M900.0 245.66Q899.4 254.11 892.0 259.52Q890.85 267.91 884.0 273.37Q885.23 282.93 876.0 287.23Q860.59 285.82 868.0 301.09Q862.38 307.06 860.0 314.94"/>
    <path d="M898.84 244.88Q897.07 253.16 888.99 257.49Q886.68 265.64 879.14 270.1Q879.03 279.73 869.29 282.7Q854.22 279.16 859.44 295.31Q853.05 300.44 849.59 307.92"/>
    <path d="M897.81 243.95Q894.9 251.9 886.3 255.06Q882.87 262.82 874.79 266.18Q873.34 275.7 863.28 277.29Q848.85 271.69 851.77 288.4Q844.72 292.6 840.26 299.52"/>
    <path d="M896.91 242.88Q892.92 250.35 883.97 252.28Q879.5 259.49 871.02 261.69Q868.26 270.91 858.08 271.09Q844.57 263.53 845.13 280.5Q837.57 283.67 832.19 289.9"/>
    <path d="M896.17 241.69Q891.18 248.54 882.04 249.21Q876.62 255.72 867.92 256.72Q863.9 265.47 853.79 264.23Q841.46 254.87 839.66 271.74Q831.74 273.83 825.53 279.25"/>
    <path d="M895.6 240.42Q889.71 246.5 880.57 245.89Q874.29 251.58 865.53 251.36Q860.33 259.47 850.5 256.84Q839.6 245.85 835.46 262.31Q827.32 263.27 820.43 267.78"/>
    <path d="M895.22 239.08Q888.54 244.28 879.57 242.41Q872.56 247.17 863.92 245.73Q857.64 253.04 848.27 249.06Q839.0 236.66 832.62 252.39Q824.42 252.21 816.97 255.71"/>
    <path d="M895.02 237.7Q887.69 241.92 879.06 238.81Q871.46 242.55 863.1 239.93Q855.87 246.29 847.14 241.05Q839.69 227.48 831.18 242.16Q823.09 240.84 815.22 243.28"/>
    <path d="M895.02 236.3Q887.17 239.46 879.06 235.19Q871.01 237.83 863.1 234.07Q855.06 239.36 847.14 232.95Q841.65 218.48 831.18 231.84Q823.35 229.41 815.22 230.72"/>
    <path d="M895.22 234.92Q887.0 236.96 879.57 231.59Q871.23 233.09 863.92 228.27Q855.21 232.39 848.27 224.94Q844.84 209.85 832.62 221.61Q825.2 218.12 816.97 218.29"/>
    <path d="M895.6 233.58Q887.18 234.45 880.57 228.11Q872.1 228.43 865.53 222.64Q856.34 225.51 850.5 217.16Q849.21 201.74 835.46 211.69Q828.61 207.2 820.43 206.22"/>
    <path d="M896.17 232.31Q887.71 232.0 882.04 224.79Q873.61 223.93 867.92 217.28Q858.41 218.84 853.79 209.77Q854.66 194.32 839.66 202.26Q833.5 196.85 825.53 194.75"/>
    <path d="M896.91 231.12Q888.57 229.64 883.97 221.72Q875.73 219.69 871.02 212.31Q861.39 212.54 858.08 202.91Q861.09 187.73 845.13 193.5Q839.78 187.29 832.19 184.1"/>
    <path d="M897.81 230.05Q889.76 227.43 886.3 218.94Q878.43 215.79 874.79 207.82Q865.22 206.71 863.28 196.71Q868.38 182.09 851.77 185.6Q847.33 178.7 840.26 174.48"/>
    <path d="M898.84 229.12Q891.24 225.4 888.99 216.51Q881.64 212.3 879.14 203.9Q869.82 201.47 869.29 191.3Q876.37 177.53 859.44 178.69Q856.01 171.24 849.59 166.08"/>
    <path d="M900.0 228.34Q892.99 223.6 892.0 214.48Q885.3 209.29 884.0 200.63Q875.11 196.92 876.0 186.77Q884.93 174.13 868.0 172.91Q865.64 165.07 860.0 159.06"/>
    <path d="M901.25 227.73Q894.97 222.05 895.26 212.89Q889.35 206.81 889.27 198.06Q880.98 193.15 883.27 183.22Q893.87 171.94 877.28 168.39Q876.03 160.29 871.29 153.55"/>
    <path d="M902.58 227.3Q897.15 220.8 898.71 211.77Q893.71 204.93 894.84 196.25Q887.32 190.23 890.97 180.72Q903.04 171.03 887.1 165.2Q886.99 157.0 883.23 149.67"/>
    <path d="M903.95 227.05Q899.48 219.87 902.28 211.14Q898.28 203.67 900.61 195.23Q894.0 188.23 898.94 179.32Q912.24 171.4 897.26 163.41Q898.3 155.27 895.59 147.49"/>
    <path d="M905.35 227.01Q901.92 219.27 905.91 211.02Q902.98 203.06 906.47 195.03Q900.9 187.17 907.02 179.04Q921.3 173.04 907.58 163.05Q909.74 155.14 908.14 147.05"/>
    <path d="M906.74 227.15Q904.41 219.01 909.51 211.39Q907.73 203.11 912.29 195.64Q907.87 187.08 915.07 179.88Q930.04 175.93 917.85 164.12Q921.09 156.59 920.63 148.37"/>
    <path d="M908.09 227.49Q906.92 219.1 913.03 212.27Q912.42 203.82 917.98 197.06Q914.79 187.97 922.92 181.84Q938.29 180.01 927.87 166.62Q932.12 159.61 932.81 151.4"/>
    <path d="M909.38 228.01Q909.4 219.54 916.4 213.63Q916.96 205.17 923.41 199.25Q921.52 189.81 930.43 184.87Q945.9 185.2 937.44 170.49Q942.63 164.14 944.45 156.11"/>
    <path d="M910.59 228.71Q911.78 220.33 919.54 215.45Q921.27 207.15 928.49 202.18Q927.93 192.57 937.43 188.92Q952.71 191.4 946.38 175.65Q952.4 170.09 955.33 162.39"/>
    <path d="M911.69 229.57Q914.04 221.43 922.4 217.68Q925.27 209.7 933.1 205.79Q933.89 196.19 943.81 193.9Q958.59 198.48 954.52 182.01Q961.25 177.34 965.22 170.12"/>
    <path d="M912.66 230.57Q916.12 222.84 924.92 220.29Q928.87 212.79 937.17 210.0Q939.29 200.61 949.43 199.72Q963.43 206.32 961.69 189.43Q969.01 185.74 973.94 179.15"/>
    <path d="M913.48 231.7Q917.98 224.53 927.05 223.22Q932.01 216.35 940.62 214.74Q944.02 205.73 954.19 206.26Q967.14 214.75 967.76 197.79Q975.52 195.15 981.32 189.31"/>
    <path d="M914.14 232.93Q919.59 226.45 928.75 226.42Q934.62 220.31 943.37 219.92Q947.99 211.47 957.99 213.41Q969.63 223.61 972.6 206.9Q980.66 205.37 987.22 200.39"/>
    <path d="M914.61 234.24Q920.91 228.59 929.99 229.83Q936.66 224.59 945.37 225.42Q951.12 217.7 960.75 221.01Q970.86 232.74 976.13 216.6Q984.32 216.21 991.51 212.19"/>
    <path d="M914.9 235.61Q921.93 230.88 930.75 233.38Q938.07 229.12 946.59 231.15Q953.36 224.3 962.44 228.93Q970.81 241.94 978.28 226.7Q986.44 227.45 994.12 224.47"/>
    <path d="M365.0 424.0Q372.51 428.16 381.0 424.0Q388.59 429.28 397.0 424.0Q402.81 409.36 413.0 424.0Q419.21 439.27 429.0 424.0Q433.82 446.61 445.0 424.0"/>
    <path d="M364.9 425.39Q371.76 430.56 380.75 427.62Q387.53 433.9 396.59 429.85Q404.38 416.16 412.44 432.07Q416.46 448.06 428.28 434.3Q429.91 457.36 444.12 436.53"/>
    <path d="M364.61 426.76Q370.69 432.83 379.99 431.17Q385.83 438.33 395.37 435.58Q404.99 423.11 410.75 439.99Q412.51 456.38 426.13 444.4Q424.54 467.46 441.51 448.81"/>
    <path d="M364.14 428.07Q369.31 434.93 378.75 434.58Q383.54 442.48 393.37 441.08Q404.63 430.07 407.99 447.59Q407.44 464.07 422.6 454.1Q417.81 476.71 437.22 460.61"/>
    <path d="M363.48 429.3Q367.65 436.81 377.05 437.78Q380.69 446.27 390.62 446.26Q403.3 436.92 404.19 454.74Q401.36 470.98 417.76 463.21Q409.87 484.94 431.32 471.69"/>
    <path d="M362.66 430.43Q365.74 438.44 374.92 440.71Q377.34 449.63 387.17 451.0Q401.03 443.52 399.43 461.28Q394.37 476.97 411.69 471.57Q400.85 491.98 423.94 481.85"/>
    <path d="M361.69 431.43Q363.62 439.8 372.4 443.32Q373.55 452.49 383.1 455.21Q397.87 449.73 393.81 467.1Q386.61 481.94 404.52 478.99Q390.94 497.7 415.22 490.88"/>
    <path d="M360.59 432.29Q361.34 440.85 369.54 445.55Q369.41 454.8 378.49 458.82Q393.87 455.45 387.43 472.08Q378.24 485.77 396.38 485.35Q380.34 501.99 405.33 498.61"/>
    <path d="M359.38 432.99Q358.94 441.56 366.4 447.37Q364.98 456.5 373.41 461.75Q389.12 460.55 380.43 476.13Q369.42 488.41 387.44 490.51Q369.24 504.75 394.45 504.89"/>
    <path d="M358.09 433.51Q356.45 441.94 363.03 448.73Q360.36 457.57 367.98 463.94Q383.7 464.94 372.92 479.16Q360.31 489.79 377.87 494.38Q357.86 505.95 382.81 509.6"/>
    <path d="M356.74 433.85Q353.94 441.97 359.51 449.61Q355.64 457.99 362.29 465.36Q377.72 468.54 365.07 481.12Q351.11 489.89 367.85 496.88Q346.43 505.55 370.63 512.63"/>
    <path d="M355.35 433.99Q351.45 441.65 355.91 449.98Q350.9 457.75 356.47 465.97Q371.3 471.27 357.02 481.96Q341.98 488.7 357.58 497.95Q335.16 503.56 358.14 513.95"/>
    <path d="M353.95 433.95Q349.03 440.98 352.28 449.86Q346.24 456.85 350.61 465.77Q364.56 473.08 348.94 481.68Q333.1 486.26 347.26 497.59Q324.28 500.03 345.59 513.51"/>
    <path d="M352.58 433.7Q346.72 439.99 348.71 449.23Q341.75 455.31 344.84 464.75Q357.64 473.93 340.97 480.28Q324.65 482.61 337.1 495.8Q314.0 495.01 333.23 511.33"/>
    <path d="M351.25 433.27Q344.58 438.68 345.26 448.11Q337.52 453.17 339.27 462.94Q350.66 473.81 333.27 477.78Q316.79 477.81 327.28 492.61Q304.51 488.61 321.29 507.45"/>
    <path d="M350.0 432.66Q342.64 437.08 342.0 446.52Q333.64 450.45 334.0 460.37Q343.77 472.72 326.0 474.23Q309.67 471.97 318.0 488.09Q296.01 480.96 310.0 501.94"/>
    <path d="M348.84 431.88Q340.94 435.24 338.99 444.49Q330.16 447.22 329.14 457.1Q337.1 470.69 319.29 469.7Q303.43 465.19 309.44 482.31Q288.66 472.2 299.59 494.92"/>
    <path d="M347.81 430.95Q339.51 433.17 336.3 442.06Q327.17 443.54 324.79 453.18Q330.78 467.74 313.28 464.29Q298.2 457.62 301.77 475.4Q282.6 462.49 290.26 486.52"/>
    <path d="M346.91 429.88Q338.39 430.93 333.97 439.28Q324.72 439.47 321.02 448.69Q324.93 463.95 308.08 458.09Q294.08 449.38 295.13 467.5Q277.94 452.04 282.19 476.9"/>
    <path d="M346.17 428.69Q337.58 428.55 332.04 436.21Q322.87 435.11 317.92 443.72Q319.66 459.37 303.79 451.23Q291.14 440.66 289.66 458.74Q274.79 441.05 275.53 466.25"/>
    <path d="M345.6 427.42Q337.12 426.08 330.57 432.89Q321.63 430.53 315.53 438.36Q315.08 454.11 300.5 443.84Q289.44 431.61 285.46 449.31Q273.2 429.72 270.43 454.78"/>
    <path d="M345.22 426.08Q337.01 423.57 329.57 429.41Q321.05 425.82 313.92 432.73Q311.28 448.26 298.27 436.06Q289.02 422.41 282.62 439.39Q273.2 418.28 266.97 442.71"/>
    <path d="M345.02 424.7Q337.24 421.07 329.06 425.81Q321.13 421.08 313.1 426.93Q308.33 441.94 297.14 428.05Q289.88 413.24 281.18 429.16Q274.79 406.95 265.22 430.28"/>
    <path d="M345.02 423.3Q337.82 418.63 329.06 422.19Q321.86 416.39 313.1 421.07Q306.29 435.27 297.14 419.95Q292.01 404.28 281.18 418.84Q277.95 395.95 265.22 417.72"/>
    <path d="M345.22 421.92Q338.74 416.29 329.57 418.59Q323.24 411.85 313.92 415.27Q305.19 428.38 298.27 411.94Q295.37 395.71 282.62 408.61Q282.6 385.5 266.97 405.29"/>
    <path d="M345.6 420.58Q339.97 414.1 330.57 415.11Q325.24 407.55 315.53 409.64Q305.07 421.41 300.5 404.16Q299.89 387.69 285.46 398.69Q288.66 375.8 270.43 393.22"/>
    <path d="M346.17 419.31Q341.49 412.1 332.04 411.79Q327.82 403.57 317.92 404.28Q305.91 414.48 303.79 396.77Q305.48 380.37 289.66 389.26Q296.02 367.04 275.53 381.75"/>
    <path d="M346.91 418.12Q343.28 410.34 333.97 408.72Q330.93 399.99 321.02 399.31Q307.72 407.74 308.08 389.91Q312.03 373.9 295.13 380.5Q304.52 359.38 282.19 371.1"/>
    <path d="M347.81 417.05Q345.29 408.84 336.3 405.94Q334.5 396.87 324.79 394.82Q310.44 401.32 313.28 383.71Q319.42 368.41 301.77 372.6Q314.0 352.98 290.26 361.48"/>
    <path d="M348.84 416.12Q347.5 407.64 338.99 403.51Q338.48 394.28 329.14 390.9Q314.03 395.34 319.29 378.3Q327.51 364.0 309.44 365.69Q324.29 347.97 299.59 353.08"/>
    <path d="M350.0 415.34Q349.85 406.75 342.0 401.48Q342.78 392.27 334.0 387.63Q318.42 389.92 326.0 373.77Q336.12 360.76 318.0 359.91Q335.17 344.43 310.0 346.06"/>
    <path d="M351.25 414.73Q352.3 406.2 345.26 399.89Q347.31 390.88 339.27 385.06Q323.52 385.16 333.27 370.22Q345.11 358.75 327.28 355.39Q346.43 342.45 321.29 340.55"/>
    <path d="M352.58 414.3Q354.8 406.0 348.71 398.77Q351.99 390.13 344.84 383.25Q329.23 381.15 340.97 367.72Q354.29 358.0 337.1 352.2Q357.87 342.05 333.23 336.67"/>
    <path d="M353.95 414.05Q357.31 406.15 352.28 398.14Q356.74 390.04 350.61 382.23Q335.44 377.98 348.94 366.32Q363.48 358.55 347.26 350.41Q369.24 343.25 345.59 334.49"/>
    <path d="M355.35 414.01Q359.77 406.64 355.91 398.02Q361.45 390.62 356.47 382.03Q342.04 375.71 357.02 366.04Q372.51 360.36 357.58 350.05Q380.34 346.01 358.14 334.05"/>
    <path d="M356.74 414.15Q362.14 407.48 359.51 398.39Q366.03 391.84 362.29 382.64Q348.88 374.38 365.07 366.88Q381.19 363.42 367.85 351.12Q390.95 350.3 370.63 335.37"/>
    <path d="M358.09 414.49Q364.37 408.63 363.03 399.27Q370.4 393.69 367.98 384.06Q355.85 374.01 372.92 368.84Q389.37 367.65 377.87 353.62Q400.86 356.02 382.81 338.4"/>
    <path d="M359.38 415.01Q366.42 410.08 366.4 400.63Q374.47 396.12 373.41 386.25Q362.8 374.61 380.43 371.87Q396.88 372.99 387.44 357.49Q409.87 363.06 394.45 343.11"/>
    <path d="M360.59 415.71Q368.24 411.81 369.54 402.45Q378.16 399.11 378.49 389.18Q369.6 376.18 387.43 375.92Q403.57 379.31 396.38 362.65Q417.82 371.29 405.33 349.39"/>
    <path d="M361.69 416.57Q369.81 413.77 372.4 404.68Q381.4 402.57 383.1 392.79Q376.11 378.68 393.81 380.9Q409.31 386.5 404.52 369.01Q424.54 380.55 415.22 357.12"/>
    <path d="M362.66 417.57Q371.09 415.93 374.92 407.29Q384.12 406.45 387.17 397.0Q382.21 382.05 399.43 386.72Q414.0 394.43 411.69 376.43Q429.91 390.65 423.94 366.15"/>
    <path d="M363.48 418.7Q372.06 418.25 377.05 410.22Q386.28 410.68 390.62 401.74Q387.79 386.25 404.19 393.26Q417.55 402.93 417.76 384.79Q433.82 401.4 431.32 376.31"/>
    <path d="M364.14 419.93Q372.69 420.68 378.75 413.42Q387.83 415.16 393.37 406.92Q392.72 391.18 407.99 400.41Q419.87 411.84 422.6 393.9Q436.2 412.59 437.22 387.39"/>
    <path d="M364.61 421.24Q372.98 423.17 379.99 416.83Q388.74 419.81 395.37 412.42Q396.92 396.75 410.75 408.01Q420.93 420.98 426.13 403.6Q437.0 424.0 441.51 399.19"/>
    <path d="M364.9 422.61Q372.92 425.68 380.75 420.38Q389.0 424.55 396.59 418.15Q400.31 402.85 412.44 415.93Q420.71 430.19 428.28 413.7Q436.2 435.42 444.12 411.47"/>
    <path d="M585.0 424.0Q592.8 421.3 601.0 424.0Q608.37 417.48 617.0 424.0Q623.98 434.04 633.0 424.0Q639.86 436.24 649.0 424.0Q656.01 436.71 665.0 424.0"/>
    <path d="M584.9 425.39Q593.0 423.81 600.75 427.62Q608.95 422.19 616.59 429.85Q622.11 440.76 632.44 432.07Q637.52 445.14 648.28 434.3Q653.45 447.86 664.12 436.53"/>
    <path d="M584.61 426.76Q592.85 426.31 599.99 431.17Q608.87 426.93 615.37 435.58Q619.32 447.15 630.75 439.99Q633.97 453.64 646.13 444.4Q649.37 458.55 661.51 448.81"/>
    <path d="M584.14 428.07Q592.36 428.77 598.75 434.58Q608.14 431.62 613.37 441.08Q615.66 453.1 627.99 447.59Q629.27 461.56 642.6 454.1Q643.83 468.56 657.22 460.61"/>
    <path d="M583.48 429.3Q591.52 431.14 597.05 437.78Q606.75 436.16 610.62 446.26Q611.22 458.47 624.19 454.74Q623.52 468.75 637.76 463.21Q636.96 477.71 651.32 471.69"/>
    <path d="M582.66 430.43Q590.37 433.37 594.92 440.71Q604.75 440.46 607.17 451.0Q606.07 463.18 619.43 461.28Q616.82 475.06 631.69 471.57Q628.88 485.81 643.94 481.85"/>
    <path d="M581.69 431.43Q588.91 435.42 592.4 443.32Q602.17 444.44 603.1 455.21Q600.31 467.12 613.81 467.1Q609.3 480.39 624.52 478.99Q619.76 492.71 635.22 490.88"/>
    <path d="M580.59 432.29Q587.19 437.25 589.54 445.55Q599.06 448.02 598.49 458.82Q594.07 470.22 607.43 472.08Q601.12 484.61 616.38 485.35Q609.76 498.27 625.33 498.61"/>
    <path d="M579.38 432.99Q585.23 438.81 586.4 447.37Q595.49 451.14 593.41 461.75Q587.45 472.43 600.43 476.13Q592.43 487.66 607.44 490.51Q599.09 502.38 614.45 504.89"/>
    <path d="M578.09 433.51Q583.06 440.09 583.03 448.73Q591.51 453.72 587.98 463.94Q580.59 473.69 592.92 479.16Q583.4 489.46 597.87 494.38Q587.94 504.97 602.81 509.6"/>
    <path d="M576.74 433.85Q580.75 441.06 579.51 449.61Q587.21 455.73 582.29 465.36Q573.62 473.98 585.07 481.12Q574.21 490.0 587.85 496.88Q576.55 505.99 590.63 512.63"/>
    <path d="M575.35 433.99Q578.32 441.69 575.91 449.98Q582.68 457.12 576.47 465.97Q566.67 473.3 577.02 481.96Q565.03 489.24 577.58 497.95Q565.12 505.4 578.14 513.95"/>
    <path d="M573.95 433.95Q575.82 441.98 572.28 449.86Q577.99 457.87 570.61 465.77Q559.89 471.66 568.94 481.68Q556.05 487.22 567.26 497.59Q553.89 503.24 565.59 513.51"/>
    <path d="M572.58 433.7Q573.31 441.92 568.71 449.23Q573.25 457.95 564.84 464.75Q553.41 469.1 560.97 480.28Q547.44 483.97 557.1 495.8Q543.07 499.53 553.23 511.33"/>
    <path d="M571.25 433.27Q570.83 441.51 565.26 448.11Q568.54 457.38 559.27 462.94Q547.34 465.65 553.27 477.78Q539.36 479.55 547.28 492.61Q532.87 494.35 541.29 507.45"/>
    <path d="M570.0 432.66Q568.44 440.76 562.0 446.52Q563.96 456.16 554.0 460.37Q541.81 461.4 546.0 474.23Q531.97 474.05 538.0 488.09Q523.49 487.8 530.0 501.94"/>
    <path d="M568.84 431.88Q566.17 439.68 558.99 444.49Q559.59 454.31 549.14 457.1Q536.93 456.42 539.29 469.7Q525.43 467.57 529.44 482.31Q515.11 480.01 519.59 494.92"/>
    <path d="M567.81 430.95Q564.07 438.3 556.3 442.06Q555.52 451.87 544.79 453.18Q532.79 450.8 533.28 464.29Q519.85 460.25 521.77 475.4Q507.9 471.13 510.26 486.52"/>
    <path d="M566.91 429.88Q562.19 436.64 553.97 439.28Q551.83 448.89 541.02 448.69Q529.47 444.67 528.08 458.09Q515.34 452.22 515.13 467.5Q501.99 461.33 502.19 476.9"/>
    <path d="M566.17 428.69Q560.55 434.74 552.04 436.21Q548.6 445.42 537.92 443.72Q527.04 438.13 523.79 451.23Q511.99 443.64 509.66 458.74Q497.51 450.81 495.53 466.25"/>
    <path d="M565.6 427.42Q559.2 432.62 550.57 432.89Q545.87 441.54 535.53 438.36Q525.54 431.32 520.5 443.84Q509.87 434.68 505.46 449.31Q494.53 439.76 490.43 454.78"/>
    <path d="M565.22 426.08Q558.15 430.34 549.57 429.41Q543.71 437.31 533.92 432.73Q525.0 424.36 518.27 436.06Q509.02 425.51 502.62 439.39Q493.12 428.41 486.97 442.71"/>
    <path d="M565.02 424.7Q557.43 427.93 549.06 425.81Q542.17 432.83 533.1 426.93Q525.44 417.4 517.14 428.05Q509.45 416.32 501.18 429.16Q493.3 416.97 485.22 430.28"/>
    <path d="M565.02 423.3Q557.06 425.45 549.06 422.19Q541.26 428.17 533.1 421.07Q526.84 410.57 517.14 419.95Q511.16 407.27 501.18 418.84Q495.08 405.67 485.22 417.72"/>
    <path d="M565.22 421.92Q557.03 422.94 549.57 418.59Q541.0 423.44 533.92 415.27Q529.18 403.99 518.27 411.94Q514.11 398.55 502.62 408.61Q498.4 394.72 486.97 405.29"/>
    <path d="M565.6 420.58Q557.35 420.45 550.57 415.11Q541.41 418.71 535.53 409.64Q532.41 397.81 520.5 404.16Q518.24 390.32 505.46 398.69Q503.23 384.35 490.43 393.22"/>
    <path d="M566.17 419.31Q558.02 418.03 552.04 411.79Q542.48 414.09 537.92 404.28Q536.47 392.14 523.79 396.77Q523.48 382.75 509.66 389.26Q509.44 374.74 495.53 381.75"/>
    <path d="M566.91 418.12Q559.02 415.72 553.97 408.72Q544.17 409.66 541.02 399.31Q541.28 387.09 528.08 389.91Q529.72 375.98 515.13 380.5Q516.94 366.1 502.19 371.1"/>
    <path d="M567.81 417.05Q560.32 413.58 556.3 405.94Q546.47 405.51 544.79 394.82Q546.74 382.75 533.28 383.71Q536.85 370.14 521.77 372.6Q525.56 358.58 510.26 361.48"/>
    <path d="M568.84 416.12Q561.92 411.64 558.99 403.51Q549.32 401.72 549.14 390.9Q552.76 379.22 539.29 378.3Q544.71 365.36 529.44 365.69Q535.14 352.34 519.59 353.08"/>
    <path d="M570.0 415.34Q563.77 409.94 562.0 401.48Q552.67 398.36 554.0 387.63Q559.21 376.56 546.0 373.77Q553.17 361.71 538.0 359.91Q545.51 347.49 530.0 346.06"/>
    <path d="M571.25 414.73Q565.83 408.51 565.26 399.89Q556.46 395.5 559.27 385.06Q565.96 374.82 553.27 370.22Q562.05 359.28 547.28 355.39Q556.44 344.13 541.29 340.55"/>
    <path d="M572.58 414.3Q568.08 407.38 568.71 398.77Q560.6 393.2 564.84 383.25Q572.89 374.04 560.97 367.72Q571.18 358.11 557.1 352.2Q567.74 342.32 553.23 336.67"/>
    <path d="M573.95 414.05Q570.46 406.58 572.28 398.14Q565.03 391.49 570.61 382.23Q579.87 374.24 568.94 366.32Q580.39 358.22 567.26 350.41Q579.18 342.11 565.59 334.49"/>
    <path d="M575.35 414.01Q572.93 406.12 575.91 398.02Q569.65 390.42 576.47 382.03Q586.74 375.4 577.02 366.04Q589.49 359.61 577.58 350.05Q590.53 343.48 578.14 334.05"/>
    <path d="M576.74 414.15Q575.43 406.01 579.51 398.39Q574.38 390.01 582.29 382.64Q593.39 377.51 585.07 366.88Q598.31 362.25 587.85 351.12Q601.59 346.43 590.63 335.37"/>
    <path d="M578.09 414.49Q577.93 406.24 583.03 399.27Q579.11 390.25 587.98 384.06Q599.69 380.52 592.92 368.84Q606.68 366.1 597.87 353.62Q612.12 350.88 602.81 338.4"/>
    <path d="M579.38 415.01Q580.38 406.82 586.4 400.63Q583.77 391.15 593.41 386.25Q605.5 384.38 600.43 371.87Q614.43 371.07 607.44 357.49Q621.94 356.76 614.45 343.11"/>
    <path d="M580.59 415.71Q582.72 407.74 589.54 402.45Q588.26 392.69 598.49 389.18Q610.71 389.01 607.43 375.92Q621.41 377.08 616.38 362.65Q630.84 363.95 625.33 349.39"/>
    <path d="M581.69 416.57Q584.9 408.97 592.4 404.68Q592.49 394.84 603.1 392.79Q615.24 394.32 613.81 380.9Q627.49 383.99 624.52 369.01Q638.65 372.31 635.22 357.12"/>
    <path d="M582.66 417.57Q586.9 410.49 594.92 407.29Q596.37 397.56 607.17 397.0Q618.98 400.21 619.43 386.72Q632.55 391.69 631.69 376.43Q645.23 381.67 643.94 366.15"/>
    <path d="M583.48 418.7Q588.66 412.28 597.05 410.22Q599.85 400.79 610.62 401.74Q621.86 406.56 624.19 393.26Q636.49 400.01 637.76 384.79Q650.44 391.85 651.32 376.31"/>
    <path d="M584.14 419.93Q590.16 414.3 598.75 413.42Q602.83 404.47 613.37 406.92Q623.83 413.25 627.99 400.41Q639.23 408.8 642.6 393.9Q654.18 402.67 657.22 387.39"/>
    <path d="M584.61 421.24Q591.36 416.5 599.99 416.83Q605.28 408.54 615.37 412.42Q624.85 420.15 630.75 408.01Q640.72 417.89 646.13 403.6Q656.37 413.89 661.51 399.19"/>
    <path d="M584.9 422.61Q592.25 418.85 600.75 420.38Q607.14 412.9 616.59 418.15Q624.9 427.13 632.44 415.93Q640.93 427.09 648.28 413.7Q656.99 425.32 664.12 411.47"/>
    <path d="M805.0 424.0Q812.63 427.61 821.0 424.0Q827.57 414.23 837.0 424.0Q844.46 431.36 853.0 424.0Q858.95 440.33 869.0 424.0Q876.25 412.91 885.0 424.0"/>
    <path d="M804.9 425.39Q811.96 430.03 820.75 427.62Q828.61 418.86 836.59 429.85Q842.95 438.17 852.44 432.07Q856.05 449.07 868.28 434.3Q877.0 424.32 884.12 436.53"/>
    <path d="M804.61 426.76Q810.95 432.34 819.99 431.17Q829.0 423.59 835.37 435.58Q840.51 444.71 850.75 439.99Q851.97 457.32 866.13 444.4Q876.16 435.73 881.51 448.81"/>
    <path d="M804.14 428.07Q809.64 434.47 818.75 434.58Q828.72 428.33 833.37 441.08Q837.19 450.84 847.99 447.59Q846.78 464.93 862.6 454.1Q873.73 446.91 877.22 460.61"/>
    <path d="M803.48 429.3Q808.04 436.41 817.05 437.78Q827.79 432.98 830.62 446.26Q833.04 456.45 844.19 454.74Q840.58 471.74 857.76 463.21Q869.78 457.65 871.32 471.69"/>
    <path d="M802.66 430.43Q806.18 438.1 814.92 440.71Q826.23 437.45 827.17 451.0Q828.15 461.43 839.43 461.28Q833.49 477.61 851.69 471.57Q864.37 467.73 863.94 481.85"/>
    <path d="M801.69 431.43Q804.11 439.52 812.4 443.32Q824.05 441.67 823.1 455.21Q822.62 465.68 833.81 467.1Q825.65 482.45 844.52 478.99Q857.61 476.96 855.22 490.88"/>
    <path d="M800.59 432.29Q801.86 440.64 809.54 445.55Q821.31 445.54 818.49 458.82Q816.55 469.12 827.43 472.08Q817.22 486.15 836.38 485.35Q849.63 485.15 845.33 498.61"/>
    <path d="M799.38 432.99Q799.48 441.43 806.4 447.37Q818.05 448.99 813.41 461.75Q810.06 471.68 820.43 476.13Q808.36 488.63 827.44 490.51Q840.59 492.16 834.45 504.89"/>
    <path d="M798.09 433.51Q797.01 441.89 803.03 448.73Q814.35 451.96 807.98 463.94Q803.28 473.31 812.92 479.16Q799.23 489.86 817.87 494.38Q830.66 497.84 822.81 509.6"/>
    <path d="M796.74 433.85Q794.5 441.99 799.51 449.61Q810.27 454.38 802.29 465.36Q796.34 473.98 805.07 481.12Q790.02 489.81 807.85 496.88Q820.03 502.09 810.63 512.63"/>
    <path d="M795.35 433.99Q792.0 441.75 795.91 449.98Q805.9 456.21 796.47 465.97Q789.37 473.68 797.02 481.96Q780.91 488.48 797.58 497.95Q808.92 504.81 798.14 513.95"/>
    <path d="M793.95 433.95Q789.56 441.16 792.28 449.86Q801.31 457.41 790.61 465.77Q782.51 472.41 788.94 481.68Q772.07 485.89 787.26 497.59Q797.54 505.96 785.59 513.51"/>
    <path d="M792.58 433.7Q787.23 440.24 788.71 449.23Q796.6 457.96 784.84 464.75Q775.89 470.21 780.97 480.28Q763.68 482.1 777.1 495.8Q786.11 505.52 773.23 511.33"/>
    <path d="M791.25 433.27Q785.04 439.0 785.26 448.11Q791.85 457.85 779.27 462.94Q769.65 467.1 773.27 477.78Q755.9 477.17 767.28 492.61Q774.85 503.49 761.29 507.45"/>
    <path d="M790.0 432.66Q783.05 437.46 782.0 446.52Q787.17 457.09 774.0 460.37Q763.9 463.15 766.0 474.23Q748.88 471.22 758.0 488.09Q763.98 499.91 750.0 501.94"/>
    <path d="M788.84 431.88Q781.3 435.67 778.99 444.49Q782.64 455.68 769.14 457.1Q758.75 458.44 759.29 469.7Q742.76 464.34 749.44 482.31Q753.72 494.85 739.59 494.92"/>
    <path d="M787.81 430.95Q779.8 433.65 776.3 442.06Q778.36 453.65 764.79 453.18Q754.31 453.06 753.28 464.29Q737.66 456.67 741.77 475.4Q744.26 488.42 730.26 486.52"/>
    <path d="M786.91 429.88Q778.61 431.44 773.97 439.28Q774.39 451.04 761.02 448.69Q750.66 447.11 748.08 458.09Q733.67 448.38 735.13 467.5Q735.79 480.73 722.19 476.9"/>
    <path d="M786.17 428.69Q777.73 429.09 772.04 436.21Q770.83 447.91 757.92 443.72Q747.88 440.72 743.79 451.23Q730.87 439.6 729.66 458.74Q728.47 471.94 715.53 466.25"/>
    <path d="M785.6 427.42Q777.19 426.63 770.57 432.89Q767.74 444.32 755.53 438.36Q746.01 434.0 740.5 443.84Q729.32 430.53 725.46 449.31Q722.45 462.21 710.43 454.78"/>
    <path d="M785.22 426.08Q777.0 424.13 769.57 429.41Q765.17 440.32 753.92 432.73Q745.1 427.08 738.27 436.06Q729.05 421.32 722.62 439.39Q717.84 451.74 706.97 442.71"/>
    <path d="M785.02 424.7Q777.16 421.62 769.06 425.81Q763.19 436.01 753.1 426.93Q745.15 420.11 737.14 428.05Q730.07 412.17 721.18 429.16Q714.73 440.73 705.22 430.28"/>
    <path d="M785.02 423.3Q777.66 419.16 769.06 422.19Q761.83 431.47 753.1 421.07Q746.18 413.21 737.14 419.95Q732.35 403.25 721.18 418.84Q713.18 429.4 705.22 417.72"/>
    <path d="M785.22 421.92Q778.5 416.8 769.57 418.59Q761.11 426.78 753.92 415.27Q748.16 406.52 738.27 411.94Q735.84 394.73 722.62 408.61Q713.22 417.96 706.97 405.29"/>
    <path d="M785.6 420.58Q779.67 414.57 770.57 415.11Q761.06 422.04 755.53 409.64Q751.05 400.17 740.5 404.16Q740.49 386.78 725.46 398.69Q714.86 406.64 710.43 393.22"/>
    <path d="M786.17 419.31Q781.13 412.53 772.04 411.79Q761.66 417.33 757.92 404.28Q754.79 394.28 743.79 396.77Q746.2 379.56 729.66 389.26Q718.06 395.65 715.53 381.75"/>
    <path d="M786.91 418.12Q782.86 410.71 773.97 408.72Q762.91 412.76 761.02 399.31Q759.32 388.98 748.08 389.91Q752.86 373.2 735.13 380.5Q722.75 385.22 722.19 371.1"/>
    <path d="M787.81 417.05Q784.83 409.15 776.3 405.94Q764.79 408.4 764.79 394.82Q764.54 384.35 753.28 383.71Q760.34 367.83 741.77 372.6Q728.85 375.54 730.26 361.48"/>
    <path d="M788.84 416.12Q786.99 407.88 778.99 403.51Q767.25 404.35 769.14 390.9Q770.35 380.5 759.29 378.3Q768.5 363.55 749.44 365.69Q736.24 366.81 739.59 353.08"/>
    <path d="M790.0 415.34Q789.31 406.92 782.0 401.48Q770.26 400.68 774.0 387.63Q776.65 377.49 766.0 373.77Q777.17 360.45 758.0 359.91Q744.77 359.19 750.0 346.06"/>
    <path d="M791.25 414.73Q791.75 406.3 785.26 399.89Q773.75 397.46 779.27 385.06Q783.3 375.39 773.27 370.22Q786.19 358.59 767.28 355.39Q754.28 352.83 761.29 340.55"/>
    <path d="M792.58 414.3Q794.24 406.02 788.71 398.77Q777.65 394.76 784.84 383.25Q790.18 374.23 780.97 367.72Q795.37 358.0 777.1 352.2Q764.58 347.85 773.23 336.67"/>
    <path d="M793.95 414.05Q796.75 406.09 792.28 398.14Q781.88 392.63 790.61 382.23Q797.15 374.05 788.94 366.32Q804.56 358.7 787.26 350.41Q775.48 344.36 785.59 334.49"/>
    <path d="M795.35 414.01Q799.23 406.5 795.91 398.02Q786.38 391.11 796.47 382.03Q804.08 374.83 797.02 366.04Q813.55 360.66 797.58 350.05Q786.75 342.42 798.14 334.05"/>
    <path d="M796.74 414.15Q801.62 407.26 799.51 398.39Q791.04 390.23 802.29 382.64Q810.84 376.57 805.07 366.88Q822.19 363.86 807.85 351.12Q798.18 342.06 810.63 335.37"/>
    <path d="M798.09 414.49Q803.89 408.35 803.03 399.27Q795.78 390.01 807.98 384.06Q817.28 379.24 812.92 368.84Q830.29 368.23 817.87 353.62Q809.56 343.3 822.81 338.4"/>
    <path d="M799.38 415.01Q805.98 409.74 806.4 400.63Q800.5 390.45 813.41 386.25Q823.3 382.78 820.43 371.87Q837.71 373.68 827.44 357.49Q820.65 346.11 834.45 343.11"/>
    <path d="M800.59 415.71Q807.86 411.4 809.54 402.45Q805.12 391.54 818.49 389.18Q828.76 387.12 827.43 375.92Q844.3 380.12 836.38 362.65Q831.24 350.44 845.33 349.39"/>
    <path d="M801.69 416.57Q809.49 413.31 812.4 404.68Q809.53 393.26 823.1 392.79Q833.56 392.17 833.81 380.9Q849.93 387.4 844.52 369.01Q841.12 356.2 855.22 357.12"/>
    <path d="M802.66 417.57Q810.83 415.43 814.92 407.29Q813.67 395.59 827.17 397.0Q837.62 397.85 839.43 386.72Q854.48 395.4 851.69 376.43Q850.11 363.28 863.94 366.15"/>
    <path d="M803.48 418.7Q811.87 417.72 817.05 410.22Q817.44 398.46 830.62 401.74Q840.84 404.04 844.19 393.26Q857.88 403.96 857.76 384.79Q858.02 371.54 871.32 376.31"/>
    <path d="M804.14 419.93Q812.58 420.13 818.75 413.42Q820.78 401.83 833.37 406.92Q843.17 410.61 847.99 400.41Q860.06 412.91 862.6 393.9Q864.71 380.82 877.22 387.39"/>
    <path d="M804.61 421.24Q812.95 422.61 819.99 416.83Q823.61 405.64 835.37 412.42Q844.57 417.44 850.75 408.01Q860.97 422.07 866.13 403.6Q870.04 390.94 881.51 399.19"/>
    <path d="M804.9 422.61Q812.96 425.13 820.75 420.38Q825.89 409.8 836.59 418.15Q845.0 424.41 852.44 415.93Q860.6 431.27 868.28 413.7Q873.91 401.71 884.12 411.47"/>
    <path d="M255.0 611.0Q262.97 611.97 271.0 611.0Q278.46 617.01 287.0 611.0Q294.02 601.15 303.0 611.0Q310.98 612.55 319.0 611.0Q323.84 588.46 335.0 611.0"/>
    <path d="M254.9 612.39Q262.66 614.46 270.75 614.62Q277.3 621.61 286.59 616.85Q294.91 608.07 302.44 619.07Q310.12 621.72 318.28 621.3Q326.21 599.65 334.12 623.53"/>
    <path d="M254.61 613.76Q262.01 616.88 269.99 618.17Q275.51 626.0 285.37 622.58Q294.84 615.04 300.75 626.99Q308.0 630.68 316.13 631.4Q327.0 611.06 331.51 635.81"/>
    <path d="M254.14 615.07Q261.03 619.19 268.75 621.58Q273.13 630.1 283.37 628.08Q293.79 621.94 297.99 634.59Q304.65 639.26 312.6 641.1Q326.19 622.47 327.22 647.61"/>
    <path d="M253.48 616.3Q259.73 621.34 267.05 624.78Q270.19 633.83 280.62 633.26Q291.79 628.62 294.19 641.74Q300.13 647.28 307.76 650.21Q323.81 633.66 321.32 658.69"/>
    <path d="M252.66 617.43Q258.15 623.29 264.92 627.71Q266.77 637.11 277.17 638.0Q288.88 634.96 289.43 648.28Q294.55 654.6 301.69 658.57Q319.89 644.41 313.94 668.85"/>
    <path d="M251.69 618.43Q256.31 625.0 262.4 630.32Q262.93 639.89 273.1 642.21Q285.12 640.84 283.81 654.1Q288.0 661.07 294.52 665.99Q314.51 654.5 305.22 677.88"/>
    <path d="M250.59 619.29Q254.25 626.44 259.54 632.55Q258.73 642.1 268.49 645.82Q280.58 646.13 277.43 659.08Q280.61 666.57 286.38 672.35Q307.78 663.75 295.33 685.61"/>
    <path d="M249.38 619.99Q252.01 627.58 256.4 634.37Q254.27 643.71 263.41 648.75Q275.34 650.74 270.43 663.13Q272.53 670.99 277.44 677.51Q299.82 671.98 284.45 691.89"/>
    <path d="M248.09 620.51Q249.64 628.39 253.03 635.73Q249.62 644.68 257.98 650.94Q269.52 654.58 262.92 666.16Q263.91 674.23 267.87 681.38Q290.8 679.01 272.81 696.6"/>
    <path d="M246.74 620.85Q247.17 628.87 249.51 636.61Q244.89 645.0 252.29 652.36Q263.21 657.56 255.07 668.12Q254.93 676.25 257.85 683.88Q280.89 684.73 260.63 699.63"/>
    <path d="M245.35 620.99Q244.66 629.0 245.91 636.98Q240.16 644.65 246.47 652.97Q256.56 659.65 247.02 668.96Q245.75 677.0 247.58 684.95Q270.28 689.01 248.14 700.95"/>
    <path d="M243.95 620.95Q242.16 628.77 242.28 636.86Q235.52 643.65 240.61 652.77Q249.67 660.78 238.94 668.68Q236.56 676.46 237.26 684.59Q259.18 691.76 235.59 700.51"/>
    <path d="M242.58 620.7Q239.71 628.21 238.71 636.23Q231.07 642.02 234.84 651.75Q242.7 660.95 230.97 667.28Q227.53 674.65 227.1 682.8Q247.8 692.95 223.23 698.33"/>
    <path d="M241.25 620.27Q237.37 627.3 235.26 635.11Q226.89 639.78 229.27 649.94Q235.77 660.14 223.27 664.78Q218.84 671.59 217.28 679.61Q236.37 692.54 211.29 694.45"/>
    <path d="M240.0 619.66Q235.18 626.08 232.0 633.52Q223.06 636.98 224.0 647.37Q229.02 658.38 216.0 661.23Q210.66 667.36 208.0 675.09Q225.1 690.55 200.0 688.94"/>
    <path d="M238.84 618.88Q233.17 624.57 228.99 631.49Q219.66 633.67 219.14 644.1Q222.58 655.69 209.29 656.7Q203.15 662.04 199.44 669.31Q214.23 687.01 189.59 681.92"/>
    <path d="M237.81 617.95Q231.4 622.79 226.3 629.06Q216.75 629.92 214.79 640.18Q216.58 652.14 203.28 651.29Q196.46 655.72 191.77 662.4Q203.95 681.98 180.26 673.52"/>
    <path d="M236.91 616.88Q229.89 620.78 223.97 626.28Q214.39 625.81 211.02 635.69Q211.13 647.78 198.08 645.09Q190.71 648.53 185.13 654.5Q194.47 675.58 172.19 663.9"/>
    <path d="M236.17 615.69Q228.68 618.58 222.04 623.21Q212.63 621.4 207.92 630.72Q206.34 642.71 193.79 638.23Q186.01 640.6 179.66 645.74Q185.97 667.92 165.53 653.25"/>
    <path d="M235.6 614.42Q227.78 616.24 220.57 619.89Q211.5 616.8 205.53 625.36Q202.31 637.02 190.5 630.84Q182.47 632.11 175.46 636.31Q178.63 659.15 160.43 641.78"/>
    <path d="M235.22 613.08Q227.22 613.79 219.57 616.41Q211.02 612.08 203.92 619.73Q199.1 630.83 188.27 623.06Q180.14 623.2 172.62 626.39Q172.57 649.44 156.97 629.71"/>
    <path d="M235.02 611.7Q227.0 611.29 219.06 612.81Q211.2 607.34 203.1 613.93Q196.79 624.25 187.14 615.05Q179.07 614.05 171.18 616.16Q167.92 638.99 155.22 617.28"/>
    <path d="M235.02 610.3Q227.14 608.78 219.06 609.19Q212.04 602.67 203.1 608.07Q195.41 617.41 187.14 606.95Q179.29 604.85 171.18 605.84Q164.78 627.99 155.22 604.72"/>
    <path d="M235.22 608.92Q227.62 606.32 219.57 605.59Q213.52 598.16 203.92 602.27Q195.0 610.44 188.27 598.94Q180.78 595.76 172.62 595.61Q163.2 616.66 156.97 592.29"/>
    <path d="M235.6 607.58Q228.44 603.94 220.57 602.11Q215.61 593.91 205.53 596.64Q195.57 603.49 190.5 591.16Q183.53 586.97 175.46 585.69Q163.2 605.22 160.43 580.22"/>
    <path d="M236.17 606.31Q229.58 601.71 222.04 598.79Q218.27 589.98 207.92 591.28Q197.09 596.69 193.79 583.77Q187.47 578.65 179.66 576.26Q164.8 593.89 165.53 568.75"/>
    <path d="M236.91 605.12Q231.03 599.65 223.97 595.72Q221.46 586.47 211.02 586.31Q199.55 590.16 198.08 576.91Q192.53 570.96 185.13 567.5Q167.97 582.9 172.19 558.1"/>
    <path d="M237.81 604.05Q232.74 597.82 226.3 592.94Q225.1 583.43 214.79 581.82Q202.89 584.03 203.28 570.71Q198.62 564.05 191.77 559.6Q172.63 572.45 180.26 548.48"/>
    <path d="M238.84 603.12Q234.7 596.24 228.99 590.51Q229.13 580.93 219.14 577.9Q207.06 578.44 209.29 565.3Q205.6 558.05 199.44 552.69Q178.7 562.75 189.59 540.08"/>
    <path d="M240.0 602.34Q236.85 594.95 232.0 588.48Q233.47 579.01 224.0 574.63Q211.96 573.47 216.0 560.77Q213.36 553.08 208.0 546.91Q186.06 553.99 200.0 533.06"/>
    <path d="M241.25 601.73Q239.16 593.97 235.26 586.89Q238.04 577.72 229.27 572.06Q217.5 569.24 223.27 557.22Q221.72 549.24 217.28 542.39Q194.56 546.35 211.29 527.55"/>
    <path d="M242.58 601.3Q241.59 593.33 238.71 585.77Q242.74 577.08 234.84 570.25Q223.58 565.82 230.97 554.72Q230.55 546.6 227.1 539.2Q204.05 539.96 223.23 523.67"/>
    <path d="M243.95 601.05Q244.08 593.02 242.28 585.14Q247.48 577.09 240.61 569.23Q230.08 563.28 238.94 553.32Q239.65 545.22 237.26 537.41Q214.34 534.95 235.59 521.49"/>
    <path d="M245.35 601.01Q246.59 593.07 245.91 585.02Q252.17 577.77 246.47 569.03Q236.87 561.67 247.02 553.04Q248.86 545.11 247.58 537.05Q225.22 531.42 248.14 521.05"/>
    <path d="M246.74 601.15Q249.07 593.47 249.51 585.39Q256.73 579.09 252.29 569.64Q243.81 561.01 255.07 553.88Q257.99 546.29 257.85 538.12Q236.49 529.44 260.63 522.37"/>
    <path d="M248.09 601.49Q251.47 594.2 253.03 586.27Q261.06 581.03 257.98 571.06Q250.78 561.34 262.92 555.84Q266.87 548.73 267.87 540.62Q247.92 529.05 272.81 525.4"/>
    <path d="M249.38 602.01Q253.75 595.27 256.4 587.63Q265.07 583.56 263.41 573.25Q257.63 562.62 270.43 558.87Q275.32 552.38 277.44 544.49Q259.3 530.26 284.45 530.11"/>
    <path d="M250.59 602.71Q255.85 596.64 259.54 589.45Q268.7 586.62 268.49 576.18Q264.24 564.85 277.43 562.92Q283.19 557.17 286.38 549.65Q270.4 533.03 295.33 536.39"/>
    <path d="M251.69 603.57Q257.75 598.29 262.4 591.68Q271.86 590.15 273.1 579.79Q270.48 567.98 283.81 567.9Q290.31 563.01 294.52 556.01Q281.0 537.33 305.22 544.12"/>
    <path d="M252.66 604.57Q259.39 600.19 264.92 594.29Q274.5 594.09 277.17 584.0Q276.22 571.94 289.43 573.72Q296.54 569.78 301.69 563.43Q290.9 543.05 313.94 553.15"/>
    <path d="M253.48 605.7Q260.76 602.29 267.05 597.22Q276.56 598.36 280.62 588.74Q281.35 576.67 294.19 580.26Q301.78 577.35 307.76 571.79Q299.91 550.1 321.32 563.31"/>
    <path d="M254.14 606.93Q261.81 604.57 268.75 600.42Q278.02 602.88 283.37 593.92Q285.77 582.06 297.99 587.41Q305.91 585.58 312.6 580.9Q307.85 558.34 327.22 574.39"/>
    <path d="M254.61 608.24Q262.54 606.97 269.99 603.83Q278.82 607.55 285.37 599.42Q289.41 588.02 300.75 595.01Q308.85 594.31 316.13 590.6Q314.57 567.6 331.51 586.19"/>
    <path d="M254.9 609.61Q262.93 609.46 270.75 607.38Q278.98 612.29 286.59 605.15Q292.17 594.42 302.44 602.93Q310.56 603.36 318.28 600.7Q319.94 577.7 334.12 598.47"/>
    <path d="M475.0 611.0Q482.93 612.53 491.0 611.0Q497.77 601.94 507.0 611.0Q514.03 620.81 523.0 611.0Q530.94 613.76 539.0 611.0Q545.84 624.75 555.0 611.0"/>
    <path d="M474.9 612.39Q482.55 615.01 490.75 614.62Q498.71 606.59 506.59 616.85Q512.19 627.54 522.44 619.07Q529.92 622.92 538.28 621.3Q543.14 635.86 554.12 623.53"/>
    <path d="M474.61 613.76Q481.82 617.41 489.99 618.17Q499.0 611.33 505.37 622.58Q509.42 633.94 520.75 626.99Q527.63 631.83 536.13 631.4Q538.92 646.5 551.51 635.81"/>
    <path d="M474.14 615.07Q480.76 619.69 488.75 621.58Q498.62 616.05 503.37 628.08Q505.8 639.9 517.99 634.59Q524.12 640.35 532.6 641.1Q533.26 656.44 547.22 647.61"/>
    <path d="M473.48 616.3Q479.4 621.8 487.05 624.78Q497.59 620.68 500.62 633.26Q501.38 645.3 514.19 641.74Q519.46 648.29 527.76 650.21Q526.27 665.5 541.32 658.69"/>
    <path d="M472.66 617.43Q477.76 623.7 484.92 627.71Q495.93 625.13 497.17 638.0Q496.25 650.03 509.43 648.28Q513.74 655.5 521.69 658.57Q518.09 673.49 533.94 668.85"/>
    <path d="M471.69 618.43Q475.86 625.35 482.4 630.32Q493.66 629.29 493.1 642.21Q490.52 654.0 503.81 654.1Q507.07 661.85 514.52 665.99Q508.88 680.27 525.22 677.88"/>
    <path d="M470.59 619.29Q473.76 626.72 479.54 632.55Q490.84 633.1 488.49 645.82Q484.28 657.13 497.43 659.08Q499.58 667.21 506.38 672.35Q498.81 685.71 515.33 685.61"/>
    <path d="M469.38 619.99Q471.49 627.79 476.4 634.37Q487.51 636.48 483.41 648.75Q477.67 659.37 490.43 663.13Q491.42 671.48 497.44 677.51Q488.08 689.68 504.45 691.89"/>
    <path d="M468.09 620.51Q469.09 628.53 473.03 635.73Q483.74 639.37 477.98 650.94Q470.82 660.66 482.92 666.16Q482.75 674.57 487.87 681.38Q476.91 692.13 492.81 696.6"/>
    <path d="M466.74 620.85Q466.61 628.93 469.51 636.61Q479.61 641.7 472.29 652.36Q463.85 660.99 475.07 668.12Q473.73 676.42 477.85 683.88Q465.5 693.0 480.63 699.63"/>
    <path d="M465.35 620.99Q464.1 628.98 465.91 636.98Q475.2 643.43 466.47 652.97Q456.91 660.34 467.02 668.96Q464.54 677.0 467.58 684.95Q454.08 692.27 468.14 700.95"/>
    <path d="M463.95 620.95Q461.6 628.68 462.28 636.86Q470.58 644.54 460.61 652.77Q450.12 658.73 458.94 668.68Q455.36 676.29 457.26 684.59Q442.88 689.96 455.59 700.51"/>
    <path d="M462.58 620.7Q459.18 628.03 458.71 636.23Q465.86 644.99 454.84 651.75Q443.62 656.2 450.97 667.28Q446.36 674.31 447.1 682.8Q432.11 686.11 443.23 698.33"/>
    <path d="M461.25 620.27Q456.86 627.06 455.26 635.11Q461.12 644.78 449.27 649.94Q437.54 652.78 443.27 664.78Q437.73 671.1 437.28 679.61Q421.97 680.8 431.29 694.45"/>
    <path d="M460.0 619.66Q454.71 625.77 452.0 633.52Q456.46 643.91 444.0 647.37Q431.99 648.55 436.0 661.23Q429.63 666.73 428.0 675.09Q412.68 674.14 420.0 688.94"/>
    <path d="M458.84 618.88Q452.75 624.19 448.99 631.49Q451.96 642.4 439.14 644.1Q427.08 643.59 429.29 656.7Q422.22 661.26 419.44 669.31Q404.4 666.24 409.59 681.92"/>
    <path d="M457.81 617.95Q451.04 622.36 446.3 629.06Q447.72 640.28 434.79 640.18Q422.92 638.0 423.28 651.29Q415.64 654.82 411.77 662.4Q397.3 657.27 400.26 673.52"/>
    <path d="M456.91 616.88Q449.59 620.3 443.97 626.28Q443.81 637.59 431.02 635.69Q419.57 631.88 418.08 645.09Q410.03 647.52 405.13 654.5Q391.52 647.4 392.19 663.9"/>
    <path d="M456.17 615.69Q448.45 618.07 442.04 623.21Q440.32 634.38 427.92 630.72Q417.1 625.35 413.79 638.23Q405.48 639.52 399.66 645.74Q387.17 636.82 385.53 653.25"/>
    <path d="M455.6 614.42Q447.62 615.7 440.57 619.89Q437.3 630.72 425.53 625.36Q415.57 618.55 410.5 630.84Q402.09 630.96 395.46 636.31Q384.33 625.73 380.43 641.78"/>
    <path d="M455.22 613.08Q447.14 613.23 439.57 616.41Q434.83 626.67 423.92 619.73Q415.0 611.6 408.27 623.06Q399.92 622.01 392.62 626.39Q383.07 614.36 376.97 629.71"/>
    <path d="M455.02 611.7Q447.0 610.73 439.06 612.81Q432.94 622.32 423.1 613.93Q415.41 604.63 407.14 615.05Q399.03 612.84 391.18 616.16Q383.4 602.93 375.22 617.28"/>
    <path d="M455.02 610.3Q447.22 608.22 439.06 609.19Q431.68 617.75 423.1 608.07Q416.78 597.79 407.14 606.95Q399.41 603.64 391.18 605.84Q385.32 591.65 375.22 604.72"/>
    <path d="M455.22 608.92Q447.77 605.78 439.57 605.59Q431.06 613.05 423.92 602.27Q419.08 591.21 408.27 598.94Q401.07 594.59 392.62 595.61Q388.78 580.75 376.97 592.29"/>
    <path d="M455.6 607.58Q448.67 603.43 440.57 602.11Q431.11 608.3 425.53 596.64Q422.28 585.01 410.5 591.16Q403.98 585.85 395.46 585.69Q393.74 570.43 380.43 580.22"/>
    <path d="M456.17 606.31Q449.88 601.23 442.04 598.79Q431.81 603.61 427.92 591.28Q426.32 579.32 413.79 583.77Q408.07 577.6 399.66 576.26Q400.08 560.91 385.53 568.75"/>
    <path d="M456.91 605.12Q451.39 599.22 443.97 595.72Q433.16 599.07 431.02 586.31Q431.1 574.24 418.08 576.91Q413.28 570.0 405.13 567.5Q407.68 552.36 392.19 558.1"/>
    <path d="M457.81 604.05Q453.16 597.44 446.3 592.94Q435.13 594.75 434.79 581.82Q436.55 569.88 423.28 570.71Q419.49 563.2 411.77 559.6Q416.4 544.96 400.26 548.48"/>
    <path d="M458.84 603.12Q455.16 595.93 448.99 590.51Q437.69 590.75 439.14 577.9Q442.55 566.33 429.29 565.3Q426.58 557.33 419.44 552.69Q426.06 538.83 409.59 540.08"/>
    <path d="M460.0 602.34Q457.36 594.7 452.0 588.48Q440.77 587.15 444.0 574.63Q448.98 563.63 436.0 560.77Q434.42 552.51 428.0 546.91Q436.48 534.12 420.0 533.06"/>
    <path d="M461.25 601.73Q459.7 593.8 455.26 586.89Q444.32 584.01 449.27 572.06Q455.73 561.87 443.27 557.22Q442.86 548.82 437.28 542.39Q447.46 530.9 431.29 527.55"/>
    <path d="M462.58 601.3Q462.14 593.23 458.71 585.77Q448.28 581.39 454.84 570.25Q462.66 561.05 450.97 554.72Q451.73 546.35 447.1 539.2Q458.78 529.24 443.23 523.67"/>
    <path d="M463.95 601.05Q464.65 593.0 462.28 585.14Q452.57 579.36 460.61 569.23Q469.63 561.22 458.94 553.32Q460.86 545.13 457.26 537.41Q470.22 529.17 455.59 521.49"/>
    <path d="M465.35 601.01Q467.15 593.13 465.91 585.02Q457.09 577.93 466.47 569.03Q476.52 562.34 467.02 553.04Q470.06 545.19 467.58 537.05Q481.56 530.69 468.14 521.05"/>
    <path d="M466.74 601.15Q469.62 593.6 469.51 585.39Q461.77 577.15 472.29 569.64Q483.18 564.42 475.07 553.88Q479.17 546.54 477.85 538.12Q492.57 533.78 480.63 522.37"/>
    <path d="M468.09 601.49Q472.0 594.42 473.03 586.27Q466.51 577.03 477.98 571.06Q489.48 567.4 482.92 555.84Q488.01 549.14 487.87 540.62Q503.05 538.36 492.81 525.4"/>
    <path d="M469.38 602.01Q474.24 595.55 476.4 587.63Q471.22 577.57 483.41 573.25Q495.31 571.23 490.43 558.87Q496.39 552.94 497.44 544.49Q512.79 544.37 504.45 530.11"/>
    <path d="M470.59 602.71Q476.3 596.99 479.54 589.45Q475.82 578.77 488.49 576.18Q500.55 575.84 497.43 562.92Q504.17 557.88 506.38 549.65Q521.6 551.67 515.33 536.39"/>
    <path d="M471.69 603.57Q478.14 598.7 482.4 591.68Q480.2 580.58 493.1 579.79Q505.1 581.13 503.81 567.9Q511.18 563.85 514.52 556.01Q529.31 560.12 525.22 544.12"/>
    <path d="M472.66 604.57Q479.72 600.64 484.92 594.29Q484.28 583.0 497.17 584.0Q508.86 587.0 509.43 573.72Q517.29 570.73 521.69 563.43Q535.76 569.57 533.94 553.15"/>
    <path d="M473.48 605.7Q481.02 602.79 487.05 597.22Q487.99 585.95 500.62 588.74Q511.78 593.34 514.19 580.26Q522.39 578.4 527.76 571.79Q540.84 579.82 541.32 563.31"/>
    <path d="M474.14 606.93Q482.01 605.1 488.75 600.42Q491.25 589.4 503.37 593.92Q513.78 600.02 517.99 587.41Q526.37 586.7 532.6 580.9Q544.44 590.68 547.22 574.39"/>
    <path d="M474.61 608.24Q482.66 607.53 489.99 603.83Q494.0 593.26 505.37 599.42Q514.83 606.92 520.75 595.01Q529.15 595.48 536.13 590.6Q546.5 601.93 551.51 586.19"/>
    <path d="M474.9 609.61Q482.97 610.02 490.75 607.38Q496.19 597.47 506.59 605.15Q514.92 613.89 522.44 602.93Q530.69 604.56 538.28 600.7Q546.97 613.36 554.12 598.47"/>
    <path d="M695.0 611.0Q702.38 615.68 711.0 611.0Q718.52 605.28 727.0 611.0Q733.21 597.75 743.0 611.0Q748.2 591.97 759.0 611.0Q766.87 606.4 775.0 611.0"/>
    <path d="M694.9 612.39Q701.56 618.05 710.75 614.62Q718.99 610.0 726.59 616.85Q734.59 604.59 742.44 619.07Q750.23 600.96 758.28 621.3Q766.71 617.84 774.12 623.53"/>
    <path d="M694.61 613.76Q700.42 620.29 709.99 618.17Q718.79 614.74 725.37 622.58Q735.0 611.56 740.75 626.99Q750.99 610.13 756.13 631.4Q764.97 629.15 771.51 635.81"/>
    <path d="M694.14 615.07Q698.98 622.34 708.75 621.58Q717.94 619.41 723.37 628.08Q734.43 618.51 737.99 634.59Q750.47 619.32 752.6 641.1Q761.66 640.1 767.22 647.61"/>
    <path d="M693.48 616.3Q697.26 624.18 707.05 624.78Q716.45 623.91 720.62 633.26Q732.91 625.32 734.19 641.74Q748.68 628.36 747.76 650.21Q756.87 650.48 761.32 658.69"/>
    <path d="M692.66 617.43Q695.31 625.76 704.92 627.71Q714.35 628.16 717.17 638.0Q730.45 631.84 729.43 648.28Q745.64 637.05 741.69 658.57Q750.67 660.1 753.94 668.85"/>
    <path d="M691.69 618.43Q693.15 627.05 702.4 630.32Q711.68 632.08 713.1 642.21Q727.1 637.97 723.81 654.1Q741.43 645.24 734.52 665.99Q743.2 668.76 745.22 677.88"/>
    <path d="M690.59 619.29Q690.84 628.03 699.54 632.55Q708.48 635.59 708.49 645.82Q722.94 643.56 717.43 659.08Q736.11 652.76 726.38 672.35Q734.59 676.3 735.33 685.61"/>
    <path d="M689.38 619.99Q688.42 628.67 696.4 634.37Q704.83 638.62 703.41 648.75Q718.04 648.53 710.43 663.13Q729.8 659.46 717.44 677.51Q725.02 682.57 724.45 691.89"/>
    <path d="M688.09 620.51Q685.92 628.98 693.03 635.73Q700.8 641.11 697.98 650.94Q712.5 652.76 702.92 666.16Q722.62 665.23 707.87 681.38Q714.67 687.44 712.81 696.6"/>
    <path d="M686.74 620.85Q683.41 628.93 689.51 636.61Q696.45 643.01 692.29 652.36Q706.42 656.18 695.07 668.12Q714.71 669.93 697.85 683.88Q703.75 690.83 700.63 699.63"/>
    <path d="M685.35 620.99Q680.93 628.53 685.91 636.98Q691.89 644.3 686.47 652.97Q699.92 658.72 687.02 668.96Q706.22 673.5 687.58 684.95Q692.45 692.66 688.14 700.95"/>
    <path d="M683.95 620.95Q678.53 627.8 682.28 636.86Q687.18 644.93 680.61 652.77Q693.13 660.33 678.94 668.68Q697.31 675.84 677.26 684.59Q681.02 692.9 675.59 700.51"/>
    <path d="M682.58 620.7Q676.26 626.73 678.71 636.23Q682.44 644.9 674.84 651.75Q686.19 660.99 670.97 667.28Q688.17 676.92 667.1 682.8Q669.66 691.55 663.23 698.33"/>
    <path d="M681.25 620.27Q674.15 625.36 675.26 635.11Q677.75 644.22 669.27 649.94Q679.22 660.66 663.27 664.78Q678.97 676.72 657.28 679.61Q658.59 688.63 651.29 694.45"/>
    <path d="M680.0 619.66Q672.26 623.71 672.0 633.52Q673.2 642.88 664.0 647.37Q672.36 659.38 656.0 661.23Q669.88 675.24 648.0 675.09Q648.05 684.2 640.0 688.94"/>
    <path d="M678.84 618.88Q670.61 621.82 668.99 631.49Q668.87 640.93 659.14 644.1Q665.75 657.15 649.29 656.7Q661.08 672.51 639.44 669.31Q638.22 678.35 629.59 681.92"/>
    <path d="M677.81 617.95Q669.25 619.71 666.3 629.06Q664.86 638.4 654.79 640.18Q659.52 654.02 643.28 651.29Q652.75 668.59 631.77 662.4Q629.3 671.18 620.26 673.52"/>
    <path d="M676.91 616.88Q668.19 617.43 663.97 626.28Q661.25 635.33 651.02 635.69Q653.78 650.06 638.08 645.09Q645.05 663.54 625.13 654.5Q621.47 662.84 612.19 663.9"/>
    <path d="M676.17 615.69Q667.46 615.03 662.04 623.21Q658.09 631.78 647.92 630.72Q648.65 645.33 633.79 638.23Q638.13 657.47 619.66 645.74Q614.87 653.5 605.53 653.25"/>
    <path d="M675.6 614.42Q667.07 612.55 660.57 619.89Q655.46 627.84 645.53 625.36Q644.22 639.94 630.5 630.84Q632.12 650.49 615.46 636.31Q609.64 643.32 600.43 641.78"/>
    <path d="M675.22 613.08Q667.03 610.04 659.57 616.41Q653.41 623.56 643.92 619.73Q640.59 633.98 628.27 623.06Q627.14 642.75 612.62 626.39Q605.87 632.52 596.97 629.71"/>
    <path d="M675.02 611.7Q667.33 607.55 659.06 612.81Q651.97 619.04 643.1 613.93Q637.83 627.58 627.14 615.05Q623.28 634.39 611.18 616.16Q603.65 621.3 595.22 617.28"/>
    <path d="M675.02 610.3Q667.99 605.12 659.06 609.19Q651.17 614.37 643.1 608.07Q635.98 620.85 627.14 606.95Q620.63 625.57 611.18 605.84Q603.01 609.88 595.22 604.72"/>
    <path d="M675.22 608.92Q668.97 602.81 659.57 605.59Q651.03 609.63 643.92 602.27Q635.09 613.93 628.27 598.94Q619.23 616.47 612.62 595.61Q603.96 598.48 596.97 592.29"/>
    <path d="M675.6 607.58Q670.27 600.66 660.57 602.11Q651.55 604.91 645.53 596.64Q635.16 606.96 630.5 591.16Q619.11 607.26 615.46 585.69Q606.49 587.32 600.43 580.22"/>
    <path d="M676.17 606.31Q671.85 598.71 662.04 598.79Q652.72 600.32 647.92 591.28Q636.21 600.06 633.79 583.77Q620.27 598.13 619.66 576.26Q610.55 576.62 605.53 568.75"/>
    <path d="M676.91 605.12Q673.69 597.0 663.97 595.72Q654.52 595.93 651.02 586.31Q638.21 593.38 638.08 576.91Q622.69 589.24 625.13 567.5Q616.06 566.6 612.19 558.1"/>
    <path d="M677.81 604.05Q675.75 595.56 666.3 592.94Q656.92 591.83 654.79 581.82Q641.12 587.04 643.28 570.71Q626.32 580.78 631.77 559.6Q622.91 557.44 620.26 548.48"/>
    <path d="M678.84 603.12Q677.98 594.42 668.99 590.51Q659.86 588.11 659.14 577.9Q644.88 581.16 649.29 565.3Q631.1 572.91 639.44 552.69Q630.97 549.32 629.59 540.08"/>
    <path d="M680.0 602.34Q680.36 593.61 672.0 588.48Q663.29 584.83 664.0 574.63Q649.42 575.87 656.0 560.77Q636.92 565.78 648.0 546.91Q640.08 542.4 640.0 533.06"/>
    <path d="M681.25 601.73Q682.83 593.13 675.26 586.89Q667.14 582.07 669.27 572.06Q654.66 571.26 663.27 557.22Q643.69 559.53 657.28 542.39Q650.07 536.81 651.29 527.55"/>
    <path d="M682.58 601.3Q685.33 593.0 678.71 585.77Q671.34 579.86 674.84 570.25Q660.48 567.42 670.97 554.72Q651.25 554.28 667.1 539.2Q660.73 532.67 663.23 523.67"/>
    <path d="M683.95 601.05Q687.83 593.22 682.28 585.14Q675.81 578.27 680.61 569.23Q666.79 564.44 678.94 553.32Q659.47 550.14 677.26 537.41Q671.87 530.06 675.59 521.49"/>
    <path d="M685.35 601.01Q690.28 593.79 685.91 585.02Q680.45 577.31 686.47 569.03Q673.44 562.35 687.02 553.04Q668.19 547.18 687.58 537.05Q683.26 529.02 688.14 521.05"/>
    <path d="M686.74 601.15Q692.62 594.69 689.51 585.39Q685.19 577.0 692.29 569.64Q680.33 561.22 695.07 553.88Q677.24 545.46 697.85 538.12Q694.69 529.57 700.63 522.37"/>
    <path d="M688.09 601.49Q694.82 595.91 693.03 586.27Q689.92 577.36 697.98 571.06Q687.3 561.05 702.92 555.84Q686.44 545.02 707.87 540.62Q705.93 531.71 712.81 525.4"/>
    <path d="M689.38 602.01Q696.82 597.43 696.4 587.63Q694.55 578.37 703.41 573.25Q694.23 561.86 710.43 558.87Q695.6 545.86 717.44 544.49Q716.76 535.4 724.45 530.11"/>
    <path d="M690.59 602.71Q698.6 599.21 699.54 589.45Q699.0 580.02 708.49 576.18Q700.98 563.62 717.43 562.92Q704.57 547.97 726.38 549.65Q726.97 540.55 735.33 536.39"/>
    <path d="M691.69 603.57Q700.11 601.21 702.4 591.68Q703.18 582.27 713.1 579.79Q707.42 566.31 723.81 567.9Q713.15 551.3 734.52 556.01Q736.36 547.08 745.22 544.12"/>
    <path d="M692.66 604.57Q701.32 603.41 704.92 594.29Q707.0 585.08 717.17 584.0Q713.42 569.86 729.43 573.72Q721.18 555.8 741.69 563.43Q744.76 554.85 753.94 553.15"/>
    <path d="M693.48 605.7Q702.22 605.76 707.05 597.22Q710.39 588.39 720.62 588.74Q718.87 574.22 734.19 580.26Q728.51 561.38 747.76 571.79Q751.99 563.71 761.32 563.31"/>
    <path d="M694.14 606.93Q702.78 608.2 708.75 600.42Q713.29 592.14 723.37 593.92Q723.66 579.29 737.99 587.41Q735.0 567.91 752.6 580.9Q757.92 573.5 767.22 574.39"/>
    <path d="M694.61 608.24Q703.0 610.7 709.99 603.83Q715.64 596.26 725.37 599.42Q727.69 584.98 740.75 595.01Q740.51 575.29 756.13 590.6Q762.43 584.01 771.51 586.19"/>
    <path d="M694.9 609.61Q702.86 613.21 710.75 607.38Q717.39 600.67 726.59 605.15Q730.9 591.17 742.44 602.93Q744.94 583.36 758.28 600.7Q765.43 595.05 774.12 598.47"/>
    <path d="M915.0 611.0Q922.5 615.22 931.0 611.0Q937.75 601.87 947.0 611.0Q954.81 606.69 963.0 611.0Q970.82 615.81 979.0 611.0Q984.75 591.92 995.0 611.0"/>
    <path d="M914.9 612.39Q921.74 617.61 930.75 614.62Q938.7 606.52 946.59 616.85Q954.93 613.67 962.44 619.07Q969.51 624.93 978.28 621.3Q986.63 603.21 994.12 623.53"/>
    <path d="M914.61 613.76Q920.66 619.88 929.99 618.17Q939.0 611.25 945.37 622.58Q954.07 620.59 960.75 626.99Q966.95 633.77 976.13 631.4Q986.92 614.64 991.51 635.81"/>
    <path d="M914.14 615.07Q919.27 621.97 928.75 621.58Q938.63 615.98 943.37 628.08Q952.26 627.32 957.99 634.59Q963.18 642.17 972.6 641.1Q985.61 626.01 987.22 647.61"/>
    <path d="M913.48 616.3Q917.6 623.85 927.05 624.78Q937.61 620.62 940.62 633.26Q949.53 633.74 954.19 641.74Q958.27 649.96 967.76 650.21Q982.74 637.08 981.32 658.69"/>
    <path d="M912.66 617.43Q915.69 625.48 924.92 627.71Q935.96 625.06 937.17 638.0Q945.93 639.72 949.43 648.28Q952.33 657.0 961.69 658.57Q978.35 647.65 973.94 668.85"/>
    <path d="M911.69 618.43Q913.57 626.83 922.4 630.32Q933.7 629.23 933.1 642.21Q941.53 645.14 943.81 654.1Q945.47 663.14 954.52 665.99Q972.54 657.5 965.22 677.88"/>
    <path d="M910.59 619.29Q911.29 627.87 919.54 632.55Q930.88 633.05 928.49 645.82Q936.43 649.89 937.43 659.08Q937.82 668.26 946.38 672.35Q965.41 666.45 955.33 685.61"/>
    <path d="M909.38 619.99Q908.88 628.58 916.4 634.37Q927.56 636.44 923.41 648.75Q930.71 653.88 930.43 663.13Q929.53 672.27 937.44 677.51Q957.11 674.32 944.45 691.89"/>
    <path d="M908.09 620.51Q906.39 628.95 913.03 635.73Q923.8 639.33 917.98 650.94Q924.49 657.04 922.92 666.16Q920.76 675.09 927.87 681.38Q947.79 680.95 932.81 696.6"/>
    <path d="M906.74 620.85Q903.88 628.97 909.51 636.61Q919.68 641.67 912.29 652.36Q917.89 659.31 915.07 668.12Q911.69 676.66 917.85 683.88Q937.64 686.23 920.63 699.63"/>
    <path d="M905.35 620.99Q901.39 628.64 905.91 636.98Q915.26 643.41 906.47 652.97Q911.05 660.63 907.02 668.96Q902.49 676.95 907.58 684.95Q926.85 690.04 908.14 700.95"/>
    <path d="M903.95 620.95Q898.97 627.96 902.28 636.86Q910.65 644.53 900.61 652.77Q904.08 660.99 898.94 668.68Q893.33 675.96 897.26 684.59Q915.64 692.31 895.59 700.51"/>
    <path d="M902.58 620.7Q896.67 626.96 898.71 636.23Q905.93 644.99 894.84 651.75Q897.13 660.38 890.97 667.28Q884.41 673.71 887.1 682.8Q904.22 693.0 883.23 698.33"/>
    <path d="M901.25 620.27Q894.53 625.64 895.26 635.11Q901.19 644.79 889.27 649.94Q890.34 658.8 883.27 664.78Q875.88 670.23 877.28 679.61Q892.81 692.09 871.29 694.45"/>
    <path d="M900.0 619.66Q892.6 624.04 892.0 633.52Q896.53 643.93 884.0 647.37Q883.83 656.29 876.0 661.23Q867.92 665.6 868.0 675.09Q881.65 689.6 860.0 688.94"/>
    <path d="M898.84 618.88Q890.9 622.19 888.99 631.49Q892.03 642.43 879.14 644.1Q877.73 652.91 869.29 656.7Q860.68 659.91 859.44 669.31Q870.93 685.59 849.59 681.92"/>
    <path d="M897.81 617.95Q889.48 620.12 886.3 629.06Q887.78 640.32 874.79 640.18Q872.16 648.7 863.28 651.29Q854.31 653.26 851.77 662.4Q860.88 680.12 840.26 673.52"/>
    <path d="M896.91 616.88Q888.36 617.87 883.97 626.28Q883.87 637.63 871.02 635.69Q867.23 643.77 858.08 645.09Q848.92 645.8 845.13 654.5Q851.69 673.31 832.19 663.9"/>
    <path d="M896.17 615.69Q887.57 615.49 882.04 623.21Q880.37 634.43 867.92 630.72Q863.04 638.19 853.79 638.23Q844.62 637.65 839.66 645.74Q843.54 665.28 825.53 653.25"/>
    <path d="M895.6 614.42Q887.11 613.02 880.57 619.89Q877.34 630.78 865.53 625.36Q859.66 632.09 850.5 630.84Q841.5 628.99 835.46 636.31Q836.58 656.2 820.43 641.78"/>
    <path d="M895.22 613.08Q887.01 610.51 879.57 616.41Q874.86 626.74 863.92 619.73Q857.17 625.57 848.27 623.06Q839.61 619.98 832.62 626.39Q830.96 646.24 816.97 629.71"/>
    <path d="M895.02 611.7Q887.25 608.01 879.06 612.81Q872.96 622.39 863.1 613.93Q855.61 618.77 847.14 615.05Q839.0 610.79 831.18 616.16Q826.77 635.59 815.22 617.28"/>
    <path d="M895.02 610.3Q887.84 605.57 879.06 609.19Q871.69 617.82 863.1 608.07Q855.01 611.82 847.14 606.95Q839.67 601.61 831.18 605.84Q824.11 624.47 815.22 604.72"/>
    <path d="M895.22 608.92Q888.76 603.23 879.57 605.59Q871.07 613.12 863.92 602.27Q855.38 604.86 848.27 598.94Q841.61 592.61 832.62 595.61Q823.03 613.08 816.97 592.29"/>
    <path d="M895.6 607.58Q890.0 601.05 880.57 602.11Q871.1 608.37 865.53 596.64Q856.72 598.01 850.5 591.16Q844.79 583.97 835.46 585.69Q823.53 601.65 820.43 580.22"/>
    <path d="M896.17 606.31Q891.53 599.06 882.04 598.79Q871.8 603.68 867.92 591.28Q858.99 591.42 853.79 583.77Q849.14 575.85 839.66 576.26Q825.63 590.4 825.53 568.75"/>
    <path d="M896.91 605.12Q893.32 597.3 883.97 595.72Q873.14 599.13 871.02 586.31Q862.17 585.21 858.08 576.91Q854.58 568.42 845.13 567.5Q829.27 579.56 832.19 558.1"/>
    <path d="M897.81 604.05Q895.34 595.81 886.3 592.94Q875.1 594.81 874.79 581.82Q866.17 579.5 863.28 570.71Q860.99 561.81 851.77 559.6Q834.38 569.32 840.26 548.48"/>
    <path d="M898.84 603.12Q897.55 594.61 888.99 590.51Q877.64 590.81 879.14 577.9Q870.94 574.4 869.29 565.3Q868.27 556.17 859.44 552.69Q840.87 559.9 849.59 540.08"/>
    <path d="M900.0 602.34Q899.9 593.74 892.0 588.48Q880.72 587.2 884.0 574.63Q876.36 570.01 876.0 560.77Q876.25 551.59 868.0 546.91Q848.6 551.47 860.0 533.06"/>
    <path d="M901.25 601.73Q902.36 593.2 895.26 586.89Q884.27 584.05 889.27 572.06Q882.34 566.43 883.27 557.22Q884.8 548.17 877.28 542.39Q857.44 544.2 871.29 527.55"/>
    <path d="M902.58 601.3Q904.86 593.0 898.71 585.77Q888.22 581.43 894.84 570.25Q888.77 563.71 890.97 554.72Q893.74 545.97 887.1 539.2Q867.2 538.23 883.23 523.67"/>
    <path d="M903.95 601.05Q907.37 593.16 902.28 585.14Q892.5 579.38 900.61 569.23Q895.51 561.91 898.94 553.32Q902.9 545.03 897.26 537.41Q877.69 533.68 895.59 521.49"/>
    <path d="M905.35 601.01Q909.83 593.66 905.91 585.02Q897.02 577.95 906.47 569.03Q902.43 561.07 907.02 553.04Q912.11 545.38 907.58 537.05Q888.72 530.63 908.14 521.05"/>
    <path d="M906.74 601.15Q912.19 594.5 909.51 585.39Q901.7 577.16 912.29 569.64Q909.41 561.19 915.07 553.88Q921.17 547.01 917.85 538.12Q900.06 529.15 920.63 522.37"/>
    <path d="M908.09 601.49Q914.42 595.66 913.03 586.27Q906.44 577.03 917.98 571.06Q916.29 562.29 922.92 555.84Q929.92 549.88 927.87 540.62Q911.5 529.26 932.81 525.4"/>
    <path d="M909.38 602.01Q916.46 597.12 916.4 587.63Q911.15 577.56 923.41 573.25Q922.96 564.34 930.43 558.87Q938.18 553.95 937.44 544.49Q922.81 530.96 944.45 530.11"/>
    <path d="M910.59 602.71Q918.28 598.85 919.54 589.45Q915.75 578.74 928.49 576.18Q929.28 567.29 937.43 562.92Q945.8 559.12 946.38 549.65Q933.78 534.22 955.33 536.39"/>
    <path d="M911.69 603.57Q919.84 600.82 922.4 591.68Q920.13 580.55 933.1 579.79Q935.13 571.1 943.81 567.9Q952.62 565.3 954.52 556.01Q944.19 538.97 965.22 544.12"/>
    <path d="M912.66 604.57Q921.12 602.98 924.92 594.29Q924.22 582.96 937.17 584.0Q940.39 575.68 949.43 573.72Q958.52 572.37 961.69 563.43Q953.83 545.12 973.94 553.15"/>
    <path d="M913.48 605.7Q922.08 605.31 927.05 597.22Q927.94 585.9 940.62 588.74Q944.96 580.95 954.19 580.26Q963.37 580.2 967.76 571.79Q962.52 552.56 981.32 563.31"/>
    <path d="M914.14 606.93Q922.7 607.74 928.75 600.42Q931.21 589.34 943.37 593.92Q948.75 586.8 957.99 587.41Q967.09 588.62 972.6 580.9Q970.1 561.14 987.22 574.39"/>
    <path d="M914.61 608.24Q922.98 610.23 929.99 603.83Q933.97 593.2 945.37 599.42Q951.7 593.13 960.75 595.01Q969.6 597.48 976.13 590.6Q976.4 570.68 991.51 586.19"/>
    <path d="M914.9 609.61Q922.92 612.74 930.75 607.38Q936.16 597.4 946.59 605.15Q953.73 599.8 962.44 602.93Q970.85 606.6 978.28 600.7Q981.32 581.01 994.12 598.47"/>
    <g stroke="blue">
      <circle cx="465.0" cy="237.0" r="95"/>
      <path d="M465.0 342.0 L465.0 347.0"/>
      <path d="M486.83 339.71 L487.87 344.6"/>
      <path d="M507.71 332.92 L509.74 337.49"/>
      <path d="M526.72 321.95 L529.66 326.0"/>
      <path d="M543.03 307.26 L546.75 310.61"/>
      <path d="M555.93 289.5 L560.26 292.0"/>
      <path d="M564.86 269.45 L569.62 271.0"/>
      <path d="M569.42 247.98 L574.39 248.5"/>
      <path d="M569.42 226.02 L574.39 225.5"/>
      <path d="M564.86 204.55 L569.62 203.0"/>
      <path d="M555.93 184.5 L560.26 182.0"/>
      <path d="M543.03 166.74 L546.75 163.39"/>
      <path d="M526.72 152.05 L529.66 148.0"/>
      <path d="M507.71 141.08 L509.74 136.51"/>
      <path d="M486.83 134.29 L487.87 129.4"/>
      <path d="M465.0 132.0 L465.0 127.0"/>
      <path d="M443.17 134.29 L442.13 129.4"/>
      <path d="M422.29 141.08 L420.26 136.51"/>
      <path d="M403.28 152.05 L400.34 148.0"/>
      <path d="M386.97 166.74 L383.25 163.39"/>
      <path d="M374.07 184.5 L369.74 182.0"/>
      <path d="M365.14 204.55 L360.38 203.0"/>
      <path d="M360.58 226.02 L355.61 225.5"/>
      <path d="M360.58 247.98 L355.61 248.5"/>
      <path d="M365.14 269.45 L360.38 271.0"/>
      <path d="M374.07 289.5 L369.74 292.0"/>
      <path d="M386.97 307.26 L383.25 310.61"/>
      <path d="M403.28 321.95 L400.34 326.0"/>
      <path d="M422.29 332.92 L420.26 337.49"/>
      <path d="M443.17 339.71 L442.13 344.6"/>
      <circle cx="685.0" cy="237.0" r="95"/>
      <circle cx="685.0" cy="237.0" r="100"/>
      <circle cx="905.0" cy="237.0" r="95"/>
      <circle cx="1010.0" cy="237.0" r="5"/>
      <circle cx="1007.71" cy="258.83" r="5"/>
      <circle cx="1000.92" cy="279.71" r="5"/>
      <circle cx="989.95" cy="298.72" r="5"/>
      <circle cx="975.26" cy="315.03" r="5"/>
      <circle cx="957.5" cy="327.93" r="5"/>
      <circle cx="937.45" cy="336.86" r="5"/>
      <circle cx="915.98" cy="341.42" r="5"/>
      <circle cx="894.02" cy="341.42" r="5"/>
      <circle cx="872.55" cy="336.86" r="5"/>
      <circle cx="852.5" cy="327.93" r="5"/>
      <circle cx="834.74" cy="315.03" r="5"/>
      <circle cx="820.05" cy="298.72" r="5"/>
      <circle cx="809.08" cy="279.71" r="5"/>
      <circle cx="802.29" cy="258.83" r="5"/>
      <circle cx="800.0" cy="237.0" r="5"/>
      <circle cx="802.29" cy="215.17" r="5"/>
      <circle cx="809.08" cy="194.29" r="5"/>
      <circle cx="820.05" cy="175.28" r="5"/>
      <circle cx="834.74" cy="158.97" r="5"/>
      <circle cx="852.5" cy="146.07" r="5"/>
      <circle cx="872.55" cy="137.14" r="5"/>
      <circle cx="894.02" cy="132.58" r="5"/>
      <circle cx="915.98" cy="132.58" r="5"/>
      <circle cx="937.45" cy="137.14" r="5"/>
      <circle cx="957.5" cy="146.07" r="5"/>
      <circle cx="975.26" cy="158.97" r="5"/>
      <circle cx="989.95" cy="175.28" r="5"/>
      <circle cx="1000.92" cy="194.29" r="5"/>
      <circle cx="1007.71" cy="215.17" r="5"/>
      <path d="M355.0 524.0 L355.0 529.0"/>
      <path d="M375.79 521.81 L376.83 526.7"/>
      <path d="M395.67 515.35 L397.7 519.92"/>
      <path d="M413.78 504.9 L416.72 508.95"/>
      <path d="M429.31 490.91 L433.03 494.26"/>
      <path d="M441.6 474.0 L445.93 476.5"/>
      <path d="M450.11 454.9 L454.87 456.44"/>
      <path d="M454.45 434.45 L459.42 434.97"/>
      <path d="M454.45 413.55 L459.42 413.03"/>
      <path d="M450.11 393.1 L454.87 391.56"/>
      <path d="M441.6 374.0 L445.93 371.5"/>
      <path d="M429.31 357.09 L433.03 353.74"/>
      <path d="M413.78 343.1 L416.72 339.05"/>
      <path d="M395.67 332.65 L397.7 328.08"/>
      <path d="M375.79 326.19 L376.83 321.3"/>
      <path d="M355.0 324.0 L355.0 319.0"/>
      <path d="M334.21 326.19 L333.17 321.3"/>
      <path d="M314.33 332.65 L312.3 328.08"/>
      <path d="M296.22 343.1 L293.28 339.05"/>
      <path d="M280.69 357.09 L276.97 353.74"/>
      <path d="M268.4 374.0 L264.07 371.5"/>
      <path d="M259.89 393.1 L255.13 391.56"/>
      <path d="M255.55 413.55 L250.58 413.03"/>
      <path d="M255.55 434.45 L250.58 434.97"/>
      <path d="M259.89 454.9 L255.13 456.44"/>
      <path d="M268.4 474.0 L264.07 476.5"/>
      <path d="M280.69 490.91 L276.97 494.26"/>
      <path d="M296.22 504.9 L293.28 508.95"/>
      <path d="M314.33 515.35 L312.3 519.92"/>
      <path d="M334.21 521.81 L333.17 526.7"/>
      <path d="M575.0 524.0 L575.0 529.0"/>
      <path d="M595.79 521.81 L596.83 526.7"/>
      <path d="M615.67 515.35 L617.7 519.92"/>
      <path d="M633.78 504.9 L636.72 508.95"/>
      <path d="M649.31 490.91 L653.03 494.26"/>
      <path d="M661.6 474.0 L665.93 476.5"/>
      <path d="M670.11 454.9 L674.87 456.44"/>
      <path d="M674.45 434.45 L679.42 434.97"/>
      <path d="M674.45 413.55 L679.42 413.03"/>
      <path d="M670.11 393.1 L674.87 391.56"/>
      <path d="M661.6 374.0 L665.93 371.5"/>
      <path d="M649.31 357.09 L653.03 353.74"/>
      <path d="M633.78 343.1 L636.72 339.05"/>
      <path d="M615.67 332.65 L617.7 328.08"/>
      <path d="M595.79 326.19 L596.83 321.3"/>
      <path d="M575.0 324.0 L575.0 319.0"/>
      <path d="M554.21 326.19 L553.17 321.3"/>
      <path d="M534.33 332.65 L532.3 328.08"/>
      <path d="M516.22 343.1 L513.28 339.05"/>
      <path d="M500.69 357.09 L496.97 353.74"/>
      <path d="M488.4 374.0 L484.07 371.5"/>
      <path d="M479.89 393.1 L475.13 391.56"/>
      <path d="M475.55 413.55 L470.58 413.03"/>
      <path d="M475.55 434.45 L470.58 434.97"/>
      <path d="M479.89 454.9 L475.13 456.44"/>
      <path d="M488.4 474.0 L484.07 476.5"/>
      <path d="M500.69 490.91 L496.97 494.26"/>
      <path d="M516.22 504.9 L513.28 508.95"/>
      <path d="M534.33 515.35 L532.3 519.92"/>
      <path d="M554.21 521.81 L553.17 526.7"/>
      <path d="M795.0 524.0 L795.0 529.0"/>
      <path d="M815.79 521.81 L816.83 526.7"/>
      <path d="M835.67 515.35 L837.7 519.92"/>
      <path d="M853.78 504.9 L856.72 508.95"/>
      <path d="M869.31 490.91 L873.03 494.26"/>
      <path d="M881.6 474.0 L885.93 476.5"/>
      <path d="M890.11 454.9 L894.87 456.44"/>
      <path d="M894.45 434.45 L899.42 434.97"/>
      <path d="M894.45 413.55 L899.42 413.03"/>
      <path d="M890.11 393.1 L894.87 391.56"/>
      <path d="M881.6 374.0 L885.93 371.5"/>
      <path d="M869.31 357.09 L873.03 353.74"/>
      <path d="M853.78 343.1 L856.72 339.05"/>
      <path d="M835.67 332.65 L837.7 328.08"/>
      <path d="M815.79 326.19 L816.83 321.3"/>
      <path d="M795.0 324.0 L795.0 319.0"/>
      <path d="M774.21 326.19 L773.17 321.3"/>
      <path d="M754.33 332.65 L752.3 328.08"/>
      <path d="M736.22 343.1 L733.28 339.05"/>
      <path d="M720.69 357.09 L716.97 353.74"/>
      <path d="M708.4 374.0 L704.07 371.5"/>
      <path d="M699.89 393.1 L695.13 391.56"/>
      <path d="M695.55 413.55 L690.58 413.03"/>
      <path d="M695.55 434.45 L690.58 434.97"/>
      <path d="M699.89 454.9 L695.13 456.44"/>
      <path d="M708.4 474.0 L704.07 476.5"/>
      <path d="M720.69 490.91 L716.97 494.26"/>
      <path d="M736.22 504.9 L733.28 508.95"/>
      <path d="M754.33 515.35 L752.3 519.92"/>
      <path d="M774.21 521.81 L773.17 526.7"/>
      <circle cx="345.0" cy="611.0" r="5"/>
      <circle cx="342.81" cy="631.79" r="5"/>
      <circle cx="336.35" cy="651.67" r="5"/>
      <circle cx="325.9" cy="669.78" r="5"/>
      <circle cx="311.91" cy="685.31" r="5"/>
      <circle cx="295.0" cy="697.6" r="5"/>
      <circle cx="275.9" cy="706.11" r="5"/>
      <circle cx="255.45" cy="710.45" r="5"/>
      <circle cx="234.55" cy="710.45" r="5"/>
      <circle cx="214.1" cy="706.11" r="5"/>
      <circle cx="195.0" cy="697.6" r="5"/>
      <circle cx="178.09" cy="685.31" r="5"/>
      <circle cx="164.1" cy="669.78" r="5"/>
      <circle cx="153.65" cy="651.67" r="5"/>
      <circle cx="147.19" cy="631.79" r="5"/>
      <circle cx="145.0" cy="611.0" r="5"/>
      <circle cx="147.19" cy="590.21" r="5"/>
      <circle cx="153.65" cy="570.33" r="5"/>
      <circle cx="164.1" cy="552.22" r="5"/>
      <circle cx="178.09" cy="536.69" r="5"/>
      <circle cx="195.0" cy="524.4" r="5"/>
      <circle cx="214.1" cy="515.89" r="5"/>
      <circle cx="234.55" cy="511.55" r="5"/>
      <circle cx="255.45" cy="511.55" r="5"/>
      <circle cx="275.9" cy="515.89" r="5"/>
      <circle cx="295.0" cy="524.4" r="5"/>
      <circle cx="311.91" cy="536.69" r="5"/>
      <circle cx="325.9" cy="552.22" r="5"/>
      <circle cx="336.35" cy="570.33" r="5"/>
      <circle cx="342.81" cy="590.21" r="5"/>
      <circle cx="685.0" cy="611.0" r="95"/>
    </g>
  </g>
</svg>
