<svg version="1.1" width="1150" height="870" xmlns="http://www.w3.org/2000/svg">
  <!-- Seed: 5308955800364947455 -->
  <g stroke="black" fill="none">
    <circle cx="80.0" cy="70.0" r="5.0"/>
    <circle cx="80.39259815759068" cy="79.99229036240723" r="5.0"/>
    <circle cx="81.56918191455689" cy="89.93834667466255" r="5.0"/>
    <circle cx="83.52612192373513" cy="99.79205370864779" r="5.0"/>
    <circle cx="86.25737860160923" cy="109.50753362380551" r="5.0"/>
    <circle cx="89.75451610080641" cy="119.03926402016153" r="5.0"/>
    <circle cx="94.00672183135433" cy="128.34219522386059" r="5.0"/>
    <circle cx="99.0008314905552" cy="137.37186655175532" r="5.0"/>
    <circle cx="104.7213595499958" cy="146.0845213036123" r="5.0"/>
    <circle cx="111.15053513697437" cy="154.43722023302357" r="5.0"/>
    <circle cx="118.26834323650898" cy="162.3879532511287" r="5.0"/>
    <circle cx="126.0525711291171" cy="169.89574912075892" r="5.0"/>
    <circle cx="134.4788599687456" cy="176.92078290260415" r="5.0"/>
    <circle cx="143.52076139460416" cy="183.42448091946363" r="5.0"/>
    <circle cx="153.14979906023285" cy="189.36962300957293" r="5.0"/>
    <circle cx="163.33553495294032" cy="194.7204418453818" r="5.0"/>
    <circle cx="174.0456403667957" cy="199.4427190999916" r="5.0"/>
    <circle cx="185.24597138267177" cy="203.50387824972663" r="5.0"/>
    <circle cx="196.90064869943308" cy="206.87307380800559" r="5.0"/>
    <circle cx="208.97214165125894" cy="209.52127679278024" r="5.0"/>
    <circle cx="221.42135623730948" cy="211.4213562373095" r="5.0"/>
    <circle cx="280.0" cy="70.0" r="5.0"/>
    <circle cx="280.39259815759067" cy="79.99229036240723" r="5.0"/>
    <circle cx="281.5691819145569" cy="89.93834667466255" r="5.0"/>
    <circle cx="283.5261219237351" cy="99.79205370864779" r="5.0"/>
    <circle cx="286.2573786016092" cy="109.50753362380551" r="5.0"/>
    <circle cx="289.7545161008064" cy="119.03926402016153" r="5.0"/>
    <circle cx="294.0067218313543" cy="128.34219522386059" r="5.0"/>
    <circle cx="299.0008314905552" cy="137.37186655175532" r="5.0"/>
    <circle cx="304.7213595499958" cy="146.0845213036123" r="5.0"/>
    <circle cx="311.1505351369744" cy="154.43722023302357" r="5.0"/>
    <circle cx="318.268343236509" cy="162.3879532511287" r="5.0"/>
    <circle cx="326.0525711291171" cy="169.89574912075892" r="5.0"/>
    <circle cx="334.4788599687456" cy="176.92078290260415" r="5.0"/>
    <circle cx="343.52076139460416" cy="183.42448091946363" r="5.0"/>
    <circle cx="353.14979906023285" cy="189.36962300957293" r="5.0"/>
    <circle cx="363.3355349529403" cy="194.7204418453818" r="5.0"/>
    <circle cx="374.04564036679574" cy="199.4427190999916" r="5.0"/>
    <circle cx="385.24597138267177" cy="203.50387824972663" r="5.0"/>
    <circle cx="396.9006486994331" cy="206.87307380800559" r="5.0"/>
    <circle cx="408.97214165125894" cy="209.52127679278024" r="5.0"/>
    <circle cx="421.4213562373095" cy="211.4213562373095" r="5.0"/>
    <circle cx="480.0" cy="70.0" r="5.0"/>
    <circle cx="480.39259815759067" cy="79.99229036240723" r="5.0"/>
    <circle cx="481.5691819145569" cy="89.93834667466255" r="5.0"/>
    <circle cx="483.5261219237351" cy="99.79205370864779" r="5.0"/>
    <circle cx="486.2573786016092" cy="109.50753362380551" r="5.0"/>
    <circle cx="489.7545161008064" cy="119.03926402016153" r="5.0"/>
    <circle cx="494.0067218313543" cy="128.34219522386059" r="5.0"/>
    <circle cx="499.0008314905552" cy="137.37186655175532" r="5.0"/>
    <circle cx="504.7213595499958" cy="146.0845213036123" r="5.0"/>
    <circle cx="511.1505351369744" cy="154.43722023302357" r="5.0"/>
    <circle cx="518.2683432365089" cy="162.3879532511287" r="5.0"/>
    <circle cx="526.052571129117" cy="169.89574912075892" r="5.0"/>
    <circle cx="534.4788599687456" cy="176.92078290260415" r="5.0"/>
    <circle cx="543.5207613946042" cy="183.42448091946363" r="5.0"/>
    <circle cx="553.1497990602328" cy="189.36962300957293" r="5.0"/>
    <circle cx="563.3355349529403" cy="194.7204418453818" r="5.0"/>
    <circle cx="574.0456403667957" cy="199.4427190999916" r="5.0"/>
    <circle cx="585.2459713826718" cy="203.50387824972663" r="5.0"/>
    <circle cx="596.9006486994331" cy="206.87307380800559" r="5.0"/>
    <circle cx="608.9721416512589" cy="209.52127679278024" r="5.0"/>
    <circle cx="621.4213562373095" cy="211.4213562373095" r="5.0"/>
    <circle cx="680.0" cy="70.0" r="5.0"/>
    <circle cx="680.3925981575907" cy="79.99229036240723" r="5.0"/>
    <circle cx="681.5691819145569" cy="89.93834667466255" r="5.0"/>
    <circle cx="683.5261219237351" cy="99.79205370864779" r="5.0"/>
    <circle cx="686.2573786016093" cy="109.50753362380551" r="5.0"/>
    <circle cx="689.7545161008064" cy="119.03926402016153" r="5.0"/>
    <circle cx="694.0067218313543" cy="128.34219522386059" r="5.0"/>
    <circle cx="699.0008314905552" cy="137.37186655175532" r="5.0"/>
    <circle cx="704.7213595499958" cy="146.0845213036123" r="5.0"/>
    <circle cx="711.1505351369743" cy="154.43722023302357" r="5.0"/>
    <circle cx="718.2683432365089" cy="162.3879532511287" r="5.0"/>
    <circle cx="726.052571129117" cy="169.89574912075892" r="5.0"/>
    <circle cx="734.4788599687456" cy="176.92078290260415" r="5.0"/>
    <circle cx="743.5207613946042" cy="183.42448091946363" r="5.0"/>
    <circle cx="753.1497990602328" cy="189.36962300957293" r="5.0"/>
    <circle cx="763.3355349529403" cy="194.7204418453818" r="5.0"/>
    <circle cx="774.0456403667957" cy="199.4427190999916" r="5.0"/>
    <circle cx="785.2459713826718" cy="203.50387824972663" r="5.0"/>
    <circle cx="796.9006486994331" cy="206.87307380800559" r="5.0"/>
    <circle cx="808.9721416512589" cy="209.52127679278024" r="5.0"/>
    <circle cx="821.4213562373095" cy="211.4213562373095" r="5.0"/>
    <circle cx="880.0" cy="70.0" r="5.0"/>
    <circle cx="880.3925981575907" cy="79.99229036240723" r="5.0"/>
    <circle cx="881.5691819145569" cy="89.93834667466255" r="5.0"/>
    <circle cx="883.5261219237351" cy="99.79205370864779" r="5.0"/>
    <circle cx="886.2573786016093" cy="109.50753362380551" r="5.0"/>
    <circle cx="889.7545161008064" cy="119.03926402016153" r="5.0"/>
    <circle cx="894.0067218313543" cy="128.34219522386059" r="5.0"/>
    <circle cx="899.0008314905552" cy="137.37186655175532" r="5.0"/>
    <circle cx="904.7213595499958" cy="146.0845213036123" r="5.0"/>
    <circle cx="911.1505351369743" cy="154.43722023302357" r="5.0"/>
    <circle cx="918.2683432365089" cy="162.3879532511287" r="5.0"/>
    <circle cx="926.052571129117" cy="169.89574912075892" r="5.0"/>
    <circle cx="934.4788599687456" cy="176.92078290260415" r="5.0"/>
    <circle cx="943.5207613946042" cy="183.42448091946363" r="5.0"/>
    <circle cx="953.1497990602328" cy="189.36962300957293" r="5.0"/>
    <circle cx="963.3355349529403" cy="194.7204418453818" r="5.0"/>
    <circle cx="974.0456403667957" cy="199.4427190999916" r="5.0"/>
    <circle cx="985.2459713826718" cy="203.50387824972663" r="5.0"/>
    <circle cx="996.9006486994331" cy="206.87307380800559" r="5.0"/>
    <circle cx="1008.9721416512589" cy="209.52127679278024" r="5.0"/>
    <circle cx="1021.4213562373095" cy="211.4213562373095" r="5.0"/>
    <circle cx="270.0" cy="185.0" r="5.0"/>
    <circle cx="269.60740184240933" cy="194.99229036240723" r="5.0"/>
    <circle cx="268.4308180854431" cy="204.93834667466257" r="5.0"/>
    <circle cx="266.4738780762649" cy="214.79205370864779" r="5.0"/>
    <circle cx="263.7426213983908" cy="224.5075336238055" r="5.0"/>
    <circle cx="260.2454838991936" cy="234.0392640201615" r="5.0"/>
    <circle cx="255.99327816864567" cy="243.34219522386059" r="5.0"/>
    <circle cx="250.99916850944481" cy="252.37186655175532" r="5.0"/>
    <circle cx="245.27864045000422" cy="261.0845213036123" r="5.0"/>
    <circle cx="238.84946486302564" cy="269.4372202330236" r="5.0"/>
    <circle cx="231.731656763491" cy="277.3879532511287" r="5.0"/>
    <circle cx="223.9474288708829" cy="284.8957491207589" r="5.0"/>
    <circle cx="215.5211400312544" cy="291.9207829026042" r="5.0"/>
    <circle cx="206.47923860539584" cy="298.42448091946363" r="5.0"/>
    <circle cx="196.85020093976715" cy="304.36962300957293" r="5.0"/>
    <circle cx="186.66446504705968" cy="309.7204418453818" r="5.0"/>
    <circle cx="175.9543596332043" cy="314.44271909999156" r="5.0"/>
    <circle cx="164.75402861732823" cy="318.50387824972665" r="5.0"/>
    <circle cx="153.09935130056692" cy="321.8730738080056" r="5.0"/>
    <circle cx="141.02785834874106" cy="324.5212767927802" r="5.0"/>
    <circle cx="128.57864376269052" cy="326.4213562373095" r="5.0"/>
    <circle cx="470.0" cy="185.0" r="5.0"/>
    <circle cx="469.60740184240933" cy="194.99229036240723" r="5.0"/>
    <circle cx="468.4308180854431" cy="204.93834667466257" r="5.0"/>
    <circle cx="466.4738780762649" cy="214.79205370864779" r="5.0"/>
    <circle cx="463.7426213983908" cy="224.5075336238055" r="5.0"/>
    <circle cx="460.2454838991936" cy="234.0392640201615" r="5.0"/>
    <circle cx="455.9932781686457" cy="243.34219522386059" r="5.0"/>
    <circle cx="450.9991685094448" cy="252.37186655175532" r="5.0"/>
    <circle cx="445.2786404500042" cy="261.0845213036123" r="5.0"/>
    <circle cx="438.8494648630256" cy="269.4372202330236" r="5.0"/>
    <circle cx="431.731656763491" cy="277.3879532511287" r="5.0"/>
    <circle cx="423.9474288708829" cy="284.8957491207589" r="5.0"/>
    <circle cx="415.5211400312544" cy="291.9207829026042" r="5.0"/>
    <circle cx="406.47923860539584" cy="298.42448091946363" r="5.0"/>
    <circle cx="396.85020093976715" cy="304.36962300957293" r="5.0"/>
    <circle cx="386.6644650470597" cy="309.7204418453818" r="5.0"/>
    <circle cx="375.95435963320426" cy="314.44271909999156" r="5.0"/>
    <circle cx="364.75402861732823" cy="318.50387824972665" r="5.0"/>
    <circle cx="353.0993513005669" cy="321.8730738080056" r="5.0"/>
    <circle cx="341.02785834874106" cy="324.5212767927802" r="5.0"/>
    <circle cx="328.5786437626905" cy="326.4213562373095" r="5.0"/>
    <circle cx="670.0" cy="185.0" r="5.0"/>
    <circle cx="669.6074018424093" cy="194.99229036240723" r="5.0"/>
    <circle cx="668.4308180854431" cy="204.93834667466257" r="5.0"/>
    <circle cx="666.4738780762649" cy="214.79205370864779" r="5.0"/>
    <circle cx="663.7426213983907" cy="224.5075336238055" r="5.0"/>
    <circle cx="660.2454838991936" cy="234.0392640201615" r="5.0"/>
    <circle cx="655.9932781686457" cy="243.34219522386059" r="5.0"/>
    <circle cx="650.9991685094448" cy="252.37186655175532" r="5.0"/>
    <circle cx="645.2786404500042" cy="261.0845213036123" r="5.0"/>
    <circle cx="638.8494648630257" cy="269.4372202330236" r="5.0"/>
    <circle cx="631.7316567634911" cy="277.3879532511287" r="5.0"/>
    <circle cx="623.947428870883" cy="284.8957491207589" r="5.0"/>
    <circle cx="615.5211400312544" cy="291.9207829026042" r="5.0"/>
    <circle cx="606.4792386053958" cy="298.42448091946363" r="5.0"/>
    <circle cx="596.8502009397672" cy="304.36962300957293" r="5.0"/>
    <circle cx="586.6644650470597" cy="309.7204418453818" r="5.0"/>
    <circle cx="575.9543596332043" cy="314.44271909999156" r="5.0"/>
    <circle cx="564.7540286173282" cy="318.50387824972665" r="5.0"/>
    <circle cx="553.0993513005669" cy="321.8730738080056" r="5.0"/>
    <circle cx="541.0278583487411" cy="324.5212767927802" r="5.0"/>
    <circle cx="528.5786437626905" cy="326.4213562373095" r="5.0"/>
    <circle cx="870.0" cy="185.0" r="5.0"/>
    <circle cx="869.6074018424093" cy="194.99229036240723" r="5.0"/>
    <circle cx="868.4308180854431" cy="204.93834667466257" r="5.0"/>
    <circle cx="866.4738780762649" cy="214.79205370864779" r="5.0"/>
    <circle cx="863.7426213983907" cy="224.5075336238055" r="5.0"/>
    <circle cx="860.2454838991936" cy="234.0392640201615" r="5.0"/>
    <circle cx="855.9932781686457" cy="243.34219522386059" r="5.0"/>
    <circle cx="850.9991685094448" cy="252.37186655175532" r="5.0"/>
    <circle cx="845.2786404500042" cy="261.0845213036123" r="5.0"/>
    <circle cx="838.8494648630257" cy="269.4372202330236" r="5.0"/>
    <circle cx="831.7316567634911" cy="277.3879532511287" r="5.0"/>
    <circle cx="823.947428870883" cy="284.8957491207589" r="5.0"/>
    <circle cx="815.5211400312544" cy="291.9207829026042" r="5.0"/>
    <circle cx="806.4792386053958" cy="298.42448091946363" r="5.0"/>
    <circle cx="796.8502009397672" cy="304.36962300957293" r="5.0"/>
    <circle cx="786.6644650470597" cy="309.7204418453818" r="5.0"/>
    <circle cx="775.9543596332043" cy="314.44271909999156" r="5.0"/>
    <circle cx="764.7540286173282" cy="318.50387824972665" r="5.0"/>
    <circle cx="753.0993513005669" cy="321.8730738080056" r="5.0"/>
    <circle cx="741.0278583487411" cy="324.5212767927802" r="5.0"/>
    <circle cx="728.5786437626905" cy="326.4213562373095" r="5.0"/>
    <circle cx="1070.0" cy="185.0" r="5.0"/>
    <circle cx="1069.6074018424092" cy="194.99229036240723" r="5.0"/>
    <circle cx="1068.4308180854432" cy="204.93834667466257" r="5.0"/>
    <circle cx="1066.4738780762648" cy="214.79205370864779" r="5.0"/>
    <circle cx="1063.7426213983908" cy="224.5075336238055" r="5.0"/>
    <circle cx="1060.2454838991937" cy="234.0392640201615" r="5.0"/>
    <circle cx="1055.9932781686457" cy="243.34219522386059" r="5.0"/>
    <circle cx="1050.9991685094449" cy="252.37186655175532" r="5.0"/>
    <circle cx="1045.278640450004" cy="261.0845213036123" r="5.0"/>
    <circle cx="1038.8494648630256" cy="269.4372202330236" r="5.0"/>
    <circle cx="1031.731656763491" cy="277.3879532511287" r="5.0"/>
    <circle cx="1023.947428870883" cy="284.8957491207589" r="5.0"/>
    <circle cx="1015.5211400312544" cy="291.9207829026042" r="5.0"/>
    <circle cx="1006.4792386053958" cy="298.42448091946363" r="5.0"/>
    <circle cx="996.8502009397672" cy="304.36962300957293" r="5.0"/>
    <circle cx="986.6644650470597" cy="309.7204418453818" r="5.0"/>
    <circle cx="975.9543596332043" cy="314.44271909999156" r="5.0"/>
    <circle cx="964.7540286173282" cy="318.50387824972665" r="5.0"/>
    <circle cx="953.0993513005669" cy="321.8730738080056" r="5.0"/>
    <circle cx="941.0278583487411" cy="324.5212767927802" r="5.0"/>
    <circle cx="928.5786437626905" cy="326.4213562373095" r="5.0"/>
    <circle cx="80.0" cy="300.0" r="5.0"/>
    <circle cx="80.39259815759068" cy="309.99229036240723" r="5.0"/>
    <circle cx="81.56918191455689" cy="319.93834667466257" r="5.0"/>
    <circle cx="83.52612192373513" cy="329.7920537086478" r="5.0"/>
    <circle cx="86.25737860160923" cy="339.5075336238055" r="5.0"/>
    <circle cx="89.75451610080641" cy="349.0392640201615" r="5.0"/>
    <circle cx="94.00672183135433" cy="358.3421952238606" r="5.0"/>
    <circle cx="99.0008314905552" cy="367.3718665517553" r="5.0"/>
    <circle cx="104.7213595499958" cy="376.0845213036123" r="5.0"/>
    <circle cx="111.15053513697437" cy="384.4372202330236" r="5.0"/>
    <circle cx="118.26834323650898" cy="392.3879532511287" r="5.0"/>
    <circle cx="126.0525711291171" cy="399.8957491207589" r="5.0"/>
    <circle cx="134.4788599687456" cy="406.9207829026042" r="5.0"/>
    <circle cx="143.52076139460416" cy="413.42448091946363" r="5.0"/>
    <circle cx="153.14979906023285" cy="419.36962300957293" r="5.0"/>
    <circle cx="163.33553495294032" cy="424.7204418453818" r="5.0"/>
    <circle cx="174.0456403667957" cy="429.44271909999156" r="5.0"/>
    <circle cx="185.24597138267177" cy="433.50387824972665" r="5.0"/>
    <circle cx="196.90064869943308" cy="436.8730738080056" r="5.0"/>
    <circle cx="208.97214165125894" cy="439.5212767927802" r="5.0"/>
    <circle cx="221.42135623730948" cy="441.4213562373095" r="5.0"/>
    <circle cx="280.0" cy="300.0" r="5.0"/>
    <circle cx="280.39259815759067" cy="309.99229036240723" r="5.0"/>
    <circle cx="281.5691819145569" cy="319.93834667466257" r="5.0"/>
    <circle cx="283.5261219237351" cy="329.7920537086478" r="5.0"/>
    <circle cx="286.2573786016092" cy="339.5075336238055" r="5.0"/>
    <circle cx="289.7545161008064" cy="349.0392640201615" r="5.0"/>
    <circle cx="294.0067218313543" cy="358.3421952238606" r="5.0"/>
    <circle cx="299.0008314905552" cy="367.3718665517553" r="5.0"/>
    <circle cx="304.7213595499958" cy="376.0845213036123" r="5.0"/>
    <circle cx="311.1505351369744" cy="384.4372202330236" r="5.0"/>
    <circle cx="318.268343236509" cy="392.3879532511287" r="5.0"/>
    <circle cx="326.0525711291171" cy="399.8957491207589" r="5.0"/>
    <circle cx="334.4788599687456" cy="406.9207829026042" r="5.0"/>
    <circle cx="343.52076139460416" cy="413.42448091946363" r="5.0"/>
    <circle cx="353.14979906023285" cy="419.36962300957293" r="5.0"/>
    <circle cx="363.3355349529403" cy="424.7204418453818" r="5.0"/>
    <circle cx="374.04564036679574" cy="429.44271909999156" r="5.0"/>
    <circle cx="385.24597138267177" cy="433.50387824972665" r="5.0"/>
    <circle cx="396.9006486994331" cy="436.8730738080056" r="5.0"/>
    <circle cx="408.97214165125894" cy="439.5212767927802" r="5.0"/>
    <circle cx="421.4213562373095" cy="441.4213562373095" r="5.0"/>
    <circle cx="480.0" cy="300.0" r="5.0"/>
    <circle cx="480.39259815759067" cy="309.99229036240723" r="5.0"/>
    <circle cx="481.5691819145569" cy="319.93834667466257" r="5.0"/>
    <circle cx="483.5261219237351" cy="329.7920537086478" r="5.0"/>
    <circle cx="486.2573786016092" cy="339.5075336238055" r="5.0"/>
    <circle cx="489.7545161008064" cy="349.0392640201615" r="5.0"/>
    <circle cx="494.0067218313543" cy="358.3421952238606" r="5.0"/>
    <circle cx="499.0008314905552" cy="367.3718665517553" r="5.0"/>
    <circle cx="504.7213595499958" cy="376.0845213036123" r="5.0"/>
    <circle cx="511.1505351369744" cy="384.4372202330236" r="5.0"/>
    <circle cx="518.2683432365089" cy="392.3879532511287" r="5.0"/>
    <circle cx="526.052571129117" cy="399.8957491207589" r="5.0"/>
    <circle cx="534.4788599687456" cy="406.9207829026042" r="5.0"/>
    <circle cx="543.5207613946042" cy="413.42448091946363" r="5.0"/>
    <circle cx="553.1497990602328" cy="419.36962300957293" r="5.0"/>
    <circle cx="563.3355349529403" cy="424.7204418453818" r="5.0"/>
    <circle cx="574.0456403667957" cy="429.44271909999156" r="5.0"/>
    <circle cx="585.2459713826718" cy="433.50387824972665" r="5.0"/>
    <circle cx="596.9006486994331" cy="436.8730738080056" r="5.0"/>
    <circle cx="608.9721416512589" cy="439.5212767927802" r="5.0"/>
    <circle cx="621.4213562373095" cy="441.4213562373095" r="5.0"/>
    <circle cx="680.0" cy="300.0" r="5.0"/>
    <circle cx="680.3925981575907" cy="309.99229036240723" r="5.0"/>
    <circle cx="681.5691819145569" cy="319.93834667466257" r="5.0"/>
    <circle cx="683.5261219237351" cy="329.7920537086478" r="5.0"/>
    <circle cx="686.2573786016093" cy="339.5075336238055" r="5.0"/>
    <circle cx="689.7545161008064" cy="349.0392640201615" r="5.0"/>
    <circle cx="694.0067218313543" cy="358.3421952238606" r="5.0"/>
    <circle cx="699.0008314905552" cy="367.3718665517553" r="5.0"/>
    <circle cx="704.7213595499958" cy="376.0845213036123" r="5.0"/>
    <circle cx="711.1505351369743" cy="384.4372202330236" r="5.0"/>
    <circle cx="718.2683432365089" cy="392.3879532511287" r="5.0"/>
    <circle cx="726.052571129117" cy="399.8957491207589" r="5.0"/>
    <circle cx="734.4788599687456" cy="406.9207829026042" r="5.0"/>
    <circle cx="743.5207613946042" cy="413.42448091946363" r="5.0"/>
    <circle cx="753.1497990602328" cy="419.36962300957293" r="5.0"/>
    <circle cx="763.3355349529403" cy="424.7204418453818" r="5.0"/>
    <circle cx="774.0456403667957" cy="429.44271909999156" r="5.0"/>
    <circle cx="785.2459713826718" cy="433.50387824972665" r="5.0"/>
    <circle cx="796.9006486994331" cy="436.8730738080056" r="5.0"/>
    <circle cx="808.9721416512589" cy="439.5212767927802" r="5.0"/>
    <circle cx="821.4213562373095" cy="441.4213562373095" r="5.0"/>
    <circle cx="880.0" cy="300.0" r="5.0"/>
    <circle cx="880.3925981575907" cy="309.99229036240723" r="5.0"/>
    <circle cx="881.5691819145569" cy="319.93834667466257" r="5.0"/>
    <circle cx="883.5261219237351" cy="329.7920537086478" r="5.0"/>
    <circle cx="886.2573786016093" cy="339.5075336238055" r="5.0"/>
    <circle cx="889.7545161008064" cy="349.0392640201615" r="5.0"/>
    <circle cx="894.0067218313543" cy="358.3421952238606" r="5.0"/>
    <circle cx="899.0008314905552" cy="367.3718665517553" r="5.0"/>
    <circle cx="904.7213595499958" cy="376.0845213036123" r="5.0"/>
    <circle cx="911.1505351369743" cy="384.4372202330236" r="5.0"/>
    <circle cx="918.2683432365089" cy="392.3879532511287" r="5.0"/>
    <circle cx="926.052571129117" cy="399.8957491207589" r="5.0"/>
    <circle cx="934.4788599687456" cy="406.9207829026042" r="5.0"/>
    <circle cx="943.5207613946042" cy="413.42448091946363" r="5.0"/>
    <circle cx="953.1497990602328" cy="419.36962300957293" r="5.0"/>
    <circle cx="963.3355349529403" cy="424.7204418453818" r="5.0"/>
    <circle cx="974.0456403667957" cy="429.44271909999156" r="5.0"/>
    <circle cx="985.2459713826718" cy="433.50387824972665" r="5.0"/>
    <circle cx="996.9006486994331" cy="436.8730738080056" r="5.0"/>
    <circle cx="1008.9721416512589" cy="439.5212767927802" r="5.0"/>
    <circle cx="1021.4213562373095" cy="441.4213562373095" r="5.0"/>
    <circle cx="270.0" cy="415.0" r="5.0"/>
    <circle cx="269.60740184240933" cy="424.99229036240723" r="5.0"/>
    <circle cx="268.4308180854431" cy="434.93834667466257" r="5.0"/>
    <circle cx="266.4738780762649" cy="444.7920537086478" r="5.0"/>
    <circle cx="263.7426213983908" cy="454.5075336238055" r="5.0"/>
    <circle cx="260.2454838991936" cy="464.0392640201615" r="5.0"/>
    <circle cx="255.99327816864567" cy="473.3421952238606" r="5.0"/>
    <circle cx="250.99916850944481" cy="482.3718665517553" r="5.0"/>
    <circle cx="245.27864045000422" cy="491.0845213036123" r="5.0"/>
    <circle cx="238.84946486302564" cy="499.4372202330236" r="5.0"/>
    <circle cx="231.731656763491" cy="507.3879532511287" r="5.0"/>
    <circle cx="223.9474288708829" cy="514.895749120759" r="5.0"/>
    <circle cx="215.5211400312544" cy="521.9207829026042" r="5.0"/>
    <circle cx="206.47923860539584" cy="528.4244809194636" r="5.0"/>
    <circle cx="196.85020093976715" cy="534.3696230095729" r="5.0"/>
    <circle cx="186.66446504705968" cy="539.7204418453817" r="5.0"/>
    <circle cx="175.9543596332043" cy="544.4427190999916" r="5.0"/>
    <circle cx="164.75402861732823" cy="548.5038782497267" r="5.0"/>
    <circle cx="153.09935130056692" cy="551.8730738080055" r="5.0"/>
    <circle cx="141.02785834874106" cy="554.5212767927802" r="5.0"/>
    <circle cx="128.57864376269052" cy="556.4213562373095" r="5.0"/>
    <circle cx="470.0" cy="415.0" r="5.0"/>
    <circle cx="469.60740184240933" cy="424.99229036240723" r="5.0"/>
    <circle cx="468.4308180854431" cy="434.93834667466257" r="5.0"/>
    <circle cx="466.4738780762649" cy="444.7920537086478" r="5.0"/>
    <circle cx="463.7426213983908" cy="454.5075336238055" r="5.0"/>
    <circle cx="460.2454838991936" cy="464.0392640201615" r="5.0"/>
    <circle cx="455.9932781686457" cy="473.3421952238606" r="5.0"/>
    <circle cx="450.9991685094448" cy="482.3718665517553" r="5.0"/>
    <circle cx="445.2786404500042" cy="491.0845213036123" r="5.0"/>
    <circle cx="438.8494648630256" cy="499.4372202330236" r="5.0"/>
    <circle cx="431.731656763491" cy="507.3879532511287" r="5.0"/>
    <circle cx="423.9474288708829" cy="514.895749120759" r="5.0"/>
    <circle cx="415.5211400312544" cy="521.9207829026042" r="5.0"/>
    <circle cx="406.47923860539584" cy="528.4244809194636" r="5.0"/>
    <circle cx="396.85020093976715" cy="534.3696230095729" r="5.0"/>
    <circle cx="386.6644650470597" cy="539.7204418453817" r="5.0"/>
    <circle cx="375.95435963320426" cy="544.4427190999916" r="5.0"/>
    <circle cx="364.75402861732823" cy="548.5038782497267" r="5.0"/>
    <circle cx="353.0993513005669" cy="551.8730738080055" r="5.0"/>
    <circle cx="341.02785834874106" cy="554.5212767927802" r="5.0"/>
    <circle cx="328.5786437626905" cy="556.4213562373095" r="5.0"/>
    <circle cx="670.0" cy="415.0" r="5.0"/>
    <circle cx="669.6074018424093" cy="424.99229036240723" r="5.0"/>
    <circle cx="668.4308180854431" cy="434.93834667466257" r="5.0"/>
    <circle cx="666.4738780762649" cy="444.7920537086478" r="5.0"/>
    <circle cx="663.7426213983907" cy="454.5075336238055" r="5.0"/>
    <circle cx="660.2454838991936" cy="464.0392640201615" r="5.0"/>
    <circle cx="655.9932781686457" cy="473.3421952238606" r="5.0"/>
    <circle cx="650.9991685094448" cy="482.3718665517553" r="5.0"/>
    <circle cx="645.2786404500042" cy="491.0845213036123" r="5.0"/>
    <circle cx="638.8494648630257" cy="499.4372202330236" r="5.0"/>
    <circle cx="631.7316567634911" cy="507.3879532511287" r="5.0"/>
    <circle cx="623.947428870883" cy="514.895749120759" r="5.0"/>
    <circle cx="615.5211400312544" cy="521.9207829026042" r="5.0"/>
    <circle cx="606.4792386053958" cy="528.4244809194636" r="5.0"/>
    <circle cx="596.8502009397672" cy="534.3696230095729" r="5.0"/>
    <circle cx="586.6644650470597" cy="539.7204418453817" r="5.0"/>
    <circle cx="575.9543596332043" cy="544.4427190999916" r="5.0"/>
    <circle cx="564.7540286173282" cy="548.5038782497267" r="5.0"/>
    <circle cx="553.0993513005669" cy="551.8730738080055" r="5.0"/>
    <circle cx="541.0278583487411" cy="554.5212767927802" r="5.0"/>
    <circle cx="528.5786437626905" cy="556.4213562373095" r="5.0"/>
    <circle cx="870.0" cy="415.0" r="5.0"/>
    <circle cx="869.6074018424093" cy="424.99229036240723" r="5.0"/>
    <circle cx="868.4308180854431" cy="434.93834667466257" r="5.0"/>
    <circle cx="866.4738780762649" cy="444.7920537086478" r="5.0"/>
    <circle cx="863.7426213983907" cy="454.5075336238055" r="5.0"/>
    <circle cx="860.2454838991936" cy="464.0392640201615" r="5.0"/>
    <circle cx="855.9932781686457" cy="473.3421952238606" r="5.0"/>
    <circle cx="850.9991685094448" cy="482.3718665517553" r="5.0"/>
    <circle cx="845.2786404500042" cy="491.0845213036123" r="5.0"/>
    <circle cx="838.8494648630257" cy="499.4372202330236" r="5.0"/>
    <circle cx="831.7316567634911" cy="507.3879532511287" r="5.0"/>
    <circle cx="823.947428870883" cy="514.895749120759" r="5.0"/>
    <circle cx="815.5211400312544" cy="521.9207829026042" r="5.0"/>
    <circle cx="806.4792386053958" cy="528.4244809194636" r="5.0"/>
    <circle cx="796.8502009397672" cy="534.3696230095729" r="5.0"/>
    <circle cx="786.6644650470597" cy="539.7204418453817" r="5.0"/>
    <circle cx="775.9543596332043" cy="544.4427190999916" r="5.0"/>
    <circle cx="764.7540286173282" cy="548.5038782497267" r="5.0"/>
    <circle cx="753.0993513005669" cy="551.8730738080055" r="5.0"/>
    <circle cx="741.0278583487411" cy="554.5212767927802" r="5.0"/>
    <circle cx="728.5786437626905" cy="556.4213562373095" r="5.0"/>
    <circle cx="1070.0" cy="415.0" r="5.0"/>
    <circle cx="1069.6074018424092" cy="424.99229036240723" r="5.0"/>
    <circle cx="1068.4308180854432" cy="434.93834667466257" r="5.0"/>
    <circle cx="1066.4738780762648" cy="444.7920537086478" r="5.0"/>
    <circle cx="1063.7426213983908" cy="454.5075336238055" r="5.0"/>
    <circle cx="1060.2454838991937" cy="464.0392640201615" r="5.0"/>
    <circle cx="1055.9932781686457" cy="473.3421952238606" r="5.0"/>
    <circle cx="1050.9991685094449" cy="482.3718665517553" r="5.0"/>
    <circle cx="1045.278640450004" cy="491.0845213036123" r="5.0"/>
    <circle cx="1038.8494648630256" cy="499.4372202330236" r="5.0"/>
    <circle cx="1031.731656763491" cy="507.3879532511287" r="5.0"/>
    <circle cx="1023.947428870883" cy="514.895749120759" r="5.0"/>
    <circle cx="1015.5211400312544" cy="521.9207829026042" r="5.0"/>
    <circle cx="1006.4792386053958" cy="528.4244809194636" r="5.0"/>
    <circle cx="996.8502009397672" cy="534.3696230095729" r="5.0"/>
    <circle cx="986.6644650470597" cy="539.7204418453817" r="5.0"/>
    <circle cx="975.9543596332043" cy="544.4427190999916" r="5.0"/>
    <circle cx="964.7540286173282" cy="548.5038782497267" r="5.0"/>
    <circle cx="953.0993513005669" cy="551.8730738080055" r="5.0"/>
    <circle cx="941.0278583487411" cy="554.5212767927802" r="5.0"/>
    <circle cx="928.5786437626905" cy="556.4213562373095" r="5.0"/>
    <circle cx="80.0" cy="530.0" r="5.0"/>
    <circle cx="80.39259815759068" cy="539.9922903624072" r="5.0"/>
    <circle cx="81.56918191455689" cy="549.9383466746625" r="5.0"/>
    <circle cx="83.52612192373513" cy="559.7920537086478" r="5.0"/>
    <circle cx="86.25737860160923" cy="569.5075336238056" r="5.0"/>
    <circle cx="89.75451610080641" cy="579.0392640201616" r="5.0"/>
    <circle cx="94.00672183135433" cy="588.3421952238606" r="5.0"/>
    <circle cx="99.0008314905552" cy="597.3718665517554" r="5.0"/>
    <circle cx="104.7213595499958" cy="606.0845213036123" r="5.0"/>
    <circle cx="111.15053513697437" cy="614.4372202330236" r="5.0"/>
    <circle cx="118.26834323650898" cy="622.3879532511287" r="5.0"/>
    <circle cx="126.0525711291171" cy="629.895749120759" r="5.0"/>
    <circle cx="134.4788599687456" cy="636.9207829026042" r="5.0"/>
    <circle cx="143.52076139460416" cy="643.4244809194636" r="5.0"/>
    <circle cx="153.14979906023285" cy="649.3696230095729" r="5.0"/>
    <circle cx="163.33553495294032" cy="654.7204418453817" r="5.0"/>
    <circle cx="174.0456403667957" cy="659.4427190999916" r="5.0"/>
    <circle cx="185.24597138267177" cy="663.5038782497267" r="5.0"/>
    <circle cx="196.90064869943308" cy="666.8730738080055" r="5.0"/>
    <circle cx="208.97214165125894" cy="669.5212767927802" r="5.0"/>
    <circle cx="221.42135623730948" cy="671.4213562373095" r="5.0"/>
    <circle cx="280.0" cy="530.0" r="5.0"/>
    <circle cx="280.39259815759067" cy="539.9922903624072" r="5.0"/>
    <circle cx="281.5691819145569" cy="549.9383466746625" r="5.0"/>
    <circle cx="283.5261219237351" cy="559.7920537086478" r="5.0"/>
    <circle cx="286.2573786016092" cy="569.5075336238056" r="5.0"/>
    <circle cx="289.7545161008064" cy="579.0392640201616" r="5.0"/>
    <circle cx="294.0067218313543" cy="588.3421952238606" r="5.0"/>
    <circle cx="299.0008314905552" cy="597.3718665517554" r="5.0"/>
    <circle cx="304.7213595499958" cy="606.0845213036123" r="5.0"/>
    <circle cx="311.1505351369744" cy="614.4372202330236" r="5.0"/>
    <circle cx="318.268343236509" cy="622.3879532511287" r="5.0"/>
    <circle cx="326.0525711291171" cy="629.895749120759" r="5.0"/>
    <circle cx="334.4788599687456" cy="636.9207829026042" r="5.0"/>
    <circle cx="343.52076139460416" cy="643.4244809194636" r="5.0"/>
    <circle cx="353.14979906023285" cy="649.3696230095729" r="5.0"/>
    <circle cx="363.3355349529403" cy="654.7204418453817" r="5.0"/>
    <circle cx="374.04564036679574" cy="659.4427190999916" r="5.0"/>
    <circle cx="385.24597138267177" cy="663.5038782497267" r="5.0"/>
    <circle cx="396.9006486994331" cy="666.8730738080055" r="5.0"/>
    <circle cx="408.97214165125894" cy="669.5212767927802" r="5.0"/>
    <circle cx="421.4213562373095" cy="671.4213562373095" r="5.0"/>
    <circle cx="480.0" cy="530.0" r="5.0"/>
    <circle cx="480.39259815759067" cy="539.9922903624072" r="5.0"/>
    <circle cx="481.5691819145569" cy="549.9383466746625" r="5.0"/>
    <circle cx="483.5261219237351" cy="559.7920537086478" r="5.0"/>
    <circle cx="486.2573786016092" cy="569.5075336238056" r="5.0"/>
    <circle cx="489.7545161008064" cy="579.0392640201616" r="5.0"/>
    <circle cx="494.0067218313543" cy="588.3421952238606" r="5.0"/>
    <circle cx="499.0008314905552" cy="597.3718665517554" r="5.0"/>
    <circle cx="504.7213595499958" cy="606.0845213036123" r="5.0"/>
    <circle cx="511.1505351369744" cy="614.4372202330236" r="5.0"/>
    <circle cx="518.2683432365089" cy="622.3879532511287" r="5.0"/>
    <circle cx="526.052571129117" cy="629.895749120759" r="5.0"/>
    <circle cx="534.4788599687456" cy="636.9207829026042" r="5.0"/>
    <circle cx="543.5207613946042" cy="643.4244809194636" r="5.0"/>
    <circle cx="553.1497990602328" cy="649.3696230095729" r="5.0"/>
    <circle cx="563.3355349529403" cy="654.7204418453817" r="5.0"/>
    <circle cx="574.0456403667957" cy="659.4427190999916" r="5.0"/>
    <circle cx="585.2459713826718" cy="663.5038782497267" r="5.0"/>
    <circle cx="596.9006486994331" cy="666.8730738080055" r="5.0"/>
    <circle cx="608.9721416512589" cy="669.5212767927802" r="5.0"/>
    <circle cx="621.4213562373095" cy="671.4213562373095" r="5.0"/>
    <circle cx="680.0" cy="530.0" r="5.0"/>
    <circle cx="680.3925981575907" cy="539.9922903624072" r="5.0"/>
    <circle cx="681.5691819145569" cy="549.9383466746625" r="5.0"/>
    <circle cx="683.5261219237351" cy="559.7920537086478" r="5.0"/>
    <circle cx="686.2573786016093" cy="569.5075336238056" r="5.0"/>
    <circle cx="689.7545161008064" cy="579.0392640201616" r="5.0"/>
    <circle cx="694.0067218313543" cy="588.3421952238606" r="5.0"/>
    <circle cx="699.0008314905552" cy="597.3718665517554" r="5.0"/>
    <circle cx="704.7213595499958" cy="606.0845213036123" r="5.0"/>
    <circle cx="711.1505351369743" cy="614.4372202330236" r="5.0"/>
    <circle cx="718.2683432365089" cy="622.3879532511287" r="5.0"/>
    <circle cx="726.052571129117" cy="629.895749120759" r="5.0"/>
    <circle cx="734.4788599687456" cy="636.9207829026042" r="5.0"/>
    <circle cx="743.5207613946042" cy="643.4244809194636" r="5.0"/>
    <circle cx="753.1497990602328" cy="649.3696230095729" r="5.0"/>
    <circle cx="763.3355349529403" cy="654.7204418453817" r="5.0"/>
    <circle cx="774.0456403667957" cy="659.4427190999916" r="5.0"/>
    <circle cx="785.2459713826718" cy="663.5038782497267" r="5.0"/>
    <circle cx="796.9006486994331" cy="666.8730738080055" r="5.0"/>
    <circle cx="808.9721416512589" cy="669.5212767927802" r="5.0"/>
    <circle cx="821.4213562373095" cy="671.4213562373095" r="5.0"/>
    <circle cx="880.0" cy="530.0" r="5.0"/>
    <circle cx="880.3925981575907" cy="539.9922903624072" r="5.0"/>
    <circle cx="881.5691819145569" cy="549.9383466746625" r="5.0"/>
    <circle cx="883.5261219237351" cy="559.7920537086478" r="5.0"/>
    <circle cx="886.2573786016093" cy="569.5075336238056" r="5.0"/>
    <circle cx="889.7545161008064" cy="579.0392640201616" r="5.0"/>
    <circle cx="894.0067218313543" cy="588.3421952238606" r="5.0"/>
    <circle cx="899.0008314905552" cy="597.3718665517554" r="5.0"/>
    <circle cx="904.7213595499958" cy="606.0845213036123" r="5.0"/>
    <circle cx="911.1505351369743" cy="614.4372202330236" r="5.0"/>
    <circle cx="918.2683432365089" cy="622.3879532511287" r="5.0"/>
    <circle cx="926.052571129117" cy="629.895749120759" r="5.0"/>
    <circle cx="934.4788599687456" cy="636.9207829026042" r="5.0"/>
    <circle cx="943.5207613946042" cy="643.4244809194636" r="5.0"/>
    <circle cx="953.1497990602328" cy="649.3696230095729" r="5.0"/>
    <circle cx="963.3355349529403" cy="654.7204418453817" r="5.0"/>
    <circle cx="974.0456403667957" cy="659.4427190999916" r="5.0"/>
    <circle cx="985.2459713826718" cy="663.5038782497267" r="5.0"/>
    <circle cx="996.9006486994331" cy="666.8730738080055" r="5.0"/>
    <circle cx="1008.9721416512589" cy="669.5212767927802" r="5.0"/>
    <circle cx="1021.4213562373095" cy="671.4213562373095" r="5.0"/>
    <circle cx="270.0" cy="645.0" r="5.0"/>
    <circle cx="269.60740184240933" cy="654.9922903624072" r="5.0"/>
    <circle cx="268.4308180854431" cy="664.9383466746625" r="5.0"/>
    <circle cx="266.4738780762649" cy="674.7920537086478" r="5.0"/>
    <circle cx="263.7426213983908" cy="684.5075336238056" r="5.0"/>
    <circle cx="260.2454838991936" cy="694.0392640201616" r="5.0"/>
    <circle cx="255.99327816864567" cy="703.3421952238606" r="5.0"/>
    <circle cx="250.99916850944481" cy="712.3718665517554" r="5.0"/>
    <circle cx="245.27864045000422" cy="721.0845213036123" r="5.0"/>
    <circle cx="238.84946486302564" cy="729.4372202330236" r="5.0"/>
    <circle cx="231.731656763491" cy="737.3879532511287" r="5.0"/>
    <circle cx="223.9474288708829" cy="744.895749120759" r="5.0"/>
    <circle cx="215.5211400312544" cy="751.9207829026042" r="5.0"/>
    <circle cx="206.47923860539584" cy="758.4244809194636" r="5.0"/>
    <circle cx="196.85020093976715" cy="764.3696230095729" r="5.0"/>
    <circle cx="186.66446504705968" cy="769.7204418453817" r="5.0"/>
    <circle cx="175.9543596332043" cy="774.4427190999916" r="5.0"/>
    <circle cx="164.75402861732823" cy="778.5038782497267" r="5.0"/>
    <circle cx="153.09935130056692" cy="781.8730738080055" r="5.0"/>
    <circle cx="141.02785834874106" cy="784.5212767927802" r="5.0"/>
    <circle cx="128.57864376269052" cy="786.4213562373095" r="5.0"/>
    <circle cx="470.0" cy="645.0" r="5.0"/>
    <circle cx="469.60740184240933" cy="654.9922903624072" r="5.0"/>
    <circle cx="468.4308180854431" cy="664.9383466746625" r="5.0"/>
    <circle cx="466.4738780762649" cy="674.7920537086478" r="5.0"/>
    <circle cx="463.7426213983908" cy="684.5075336238056" r="5.0"/>
    <circle cx="460.2454838991936" cy="694.0392640201616" r="5.0"/>
    <circle cx="455.9932781686457" cy="703.3421952238606" r="5.0"/>
    <circle cx="450.9991685094448" cy="712.3718665517554" r="5.0"/>
    <circle cx="445.2786404500042" cy="721.0845213036123" r="5.0"/>
    <circle cx="438.8494648630256" cy="729.4372202330236" r="5.0"/>
    <circle cx="431.731656763491" cy="737.3879532511287" r="5.0"/>
    <circle cx="423.9474288708829" cy="744.895749120759" r="5.0"/>
    <circle cx="415.5211400312544" cy="751.9207829026042" r="5.0"/>
    <circle cx="406.47923860539584" cy="758.4244809194636" r="5.0"/>
    <circle cx="396.85020093976715" cy="764.3696230095729" r="5.0"/>
    <circle cx="386.6644650470597" cy="769.7204418453817" r="5.0"/>
    <circle cx="375.95435963320426" cy="774.4427190999916" r="5.0"/>
    <circle cx="364.75402861732823" cy="778.5038782497267" r="5.0"/>
    <circle cx="353.0993513005669" cy="781.8730738080055" r="5.0"/>
    <circle cx="341.02785834874106" cy="784.5212767927802" r="5.0"/>
    <circle cx="328.5786437626905" cy="786.4213562373095" r="5.0"/>
    <circle cx="670.0" cy="645.0" r="5.0"/>
    <circle cx="669.6074018424093" cy="654.9922903624072" r="5.0"/>
    <circle cx="668.4308180854431" cy="664.9383466746625" r="5.0"/>
    <circle cx="666.4738780762649" cy="674.7920537086478" r="5.0"/>
    <circle cx="663.7426213983907" cy="684.5075336238056" r="5.0"/>
    <circle cx="660.2454838991936" cy="694.0392640201616" r="5.0"/>
    <circle cx="655.9932781686457" cy="703.3421952238606" r="5.0"/>
    <circle cx="650.9991685094448" cy="712.3718665517554" r="5.0"/>
    <circle cx="645.2786404500042" cy="721.0845213036123" r="5.0"/>
    <circle cx="638.8494648630257" cy="729.4372202330236" r="5.0"/>
    <circle cx="631.7316567634911" cy="737.3879532511287" r="5.0"/>
    <circle cx="623.947428870883" cy="744.895749120759" r="5.0"/>
    <circle cx="615.5211400312544" cy="751.9207829026042" r="5.0"/>
    <circle cx="606.4792386053958" cy="758.4244809194636" r="5.0"/>
    <circle cx="596.8502009397672" cy="764.3696230095729" r="5.0"/>
    <circle cx="586.6644650470597" cy="769.7204418453817" r="5.0"/>
    <circle cx="575.9543596332043" cy="774.4427190999916" r="5.0"/>
    <circle cx="564.7540286173282" cy="778.5038782497267" r="5.0"/>
    <circle cx="553.0993513005669" cy="781.8730738080055" r="5.0"/>
    <circle cx="541.0278583487411" cy="784.5212767927802" r="5.0"/>
    <circle cx="528.5786437626905" cy="786.4213562373095" r="5.0"/>
    <circle cx="870.0" cy="645.0" r="5.0"/>
    <circle cx="869.6074018424093" cy="654.9922903624072" r="5.0"/>
    <circle cx="868.4308180854431" cy="664.9383466746625" r="5.0"/>
    <circle cx="866.4738780762649" cy="674.7920537086478" r="5.0"/>
    <circle cx="863.7426213983907" cy="684.5075336238056" r="5.0"/>
    <circle cx="860.2454838991936" cy="694.0392640201616" r="5.0"/>
    <circle cx="855.9932781686457" cy="703.3421952238606" r="5.0"/>
    <circle cx="850.9991685094448" cy="712.3718665517554" r="5.0"/>
    <circle cx="845.2786404500042" cy="721.0845213036123" r="5.0"/>
    <circle cx="838.8494648630257" cy="729.4372202330236" r="5.0"/>
    <circle cx="831.7316567634911" cy="737.3879532511287" r="5.0"/>
    <circle cx="823.947428870883" cy="744.895749120759" r="5.0"/>
    <circle cx="815.5211400312544" cy="751.9207829026042" r="5.0"/>
    <circle cx="806.4792386053958" cy="758.4244809194636" r="5.0"/>
    <circle cx="796.8502009397672" cy="764.3696230095729" r="5.0"/>
    <circle cx="786.6644650470597" cy="769.7204418453817" r="5.0"/>
    <circle cx="775.9543596332043" cy="774.4427190999916" r="5.0"/>
    <circle cx="764.7540286173282" cy="778.5038782497267" r="5.0"/>
    <circle cx="753.0993513005669" cy="781.8730738080055" r="5.0"/>
    <circle cx="741.0278583487411" cy="784.5212767927802" r="5.0"/>
    <circle cx="728.5786437626905" cy="786.4213562373095" r="5.0"/>
    <circle cx="1070.0" cy="645.0" r="5.0"/>
    <circle cx="1069.6074018424092" cy="654.9922903624072" r="5.0"/>
    <circle cx="1068.4308180854432" cy="664.9383466746625" r="5.0"/>
    <circle cx="1066.4738780762648" cy="674.7920537086478" r="5.0"/>
    <circle cx="1063.7426213983908" cy="684.5075336238056" r="5.0"/>
    <circle cx="1060.2454838991937" cy="694.0392640201616" r="5.0"/>
    <circle cx="1055.9932781686457" cy="703.3421952238606" r="5.0"/>
    <circle cx="1050.9991685094449" cy="712.3718665517554" r="5.0"/>
    <circle cx="1045.278640450004" cy="721.0845213036123" r="5.0"/>
    <circle cx="1038.8494648630256" cy="729.4372202330236" r="5.0"/>
    <circle cx="1031.731656763491" cy="737.3879532511287" r="5.0"/>
    <circle cx="1023.947428870883" cy="744.895749120759" r="5.0"/>
    <circle cx="1015.5211400312544" cy="751.9207829026042" r="5.0"/>
    <circle cx="1006.4792386053958" cy="758.4244809194636" r="5.0"/>
    <circle cx="996.8502009397672" cy="764.3696230095729" r="5.0"/>
    <circle cx="986.6644650470597" cy="769.7204418453817" r="5.0"/>
    <circle cx="975.9543596332043" cy="774.4427190999916" r="5.0"/>
    <circle cx="964.7540286173282" cy="778.5038782497267" r="5.0"/>
    <circle cx="953.0993513005669" cy="781.8730738080055" r="5.0"/>
    <circle cx="941.0278583487411" cy="784.5212767927802" r="5.0"/>
    <circle cx="928.5786437626905" cy="786.4213562373095" r="5.0"/>
    <g stroke="red">
      <rect x="50" y="50" width="1050" height="770"/>
    </g>
  </g>
</svg>
