<svg version="1.1" width="1150" height="870" xmlns="http://www.w3.org/2000/svg">
  <!-- Seed: 1 -->
  <g stroke="black" fill="none">
    <g stroke="red">
      <rect x="50" y="50" width="1050" height="770"/>
    </g>
    <g transform="translate(50.0,50.0)">
      <circle cx="50.0" cy="50.0" r="0.0"/>
      <circle cx="50.62790519529313" cy="59.98026728428272" r="2.5"/>
      <circle cx="52.50666467128609" cy="69.84229402628955" r="2.5"/>
      <circle cx="55.62143943757174" cy="79.46861752186066" r="2.5"/>
      <circle cx="59.947595486594196" cy="88.74332644514524" r="2.5"/>
      <circle cx="65.45084971874738" cy="97.55282581475768" r="2.5"/>
      <circle cx="72.08747316108068" cy="105.78658915329507" r="2.5"/>
      <circle cx="79.80455040955509" cy="113.33789367262138" r="2.5"/>
      <circle cx="88.54029392813723" cy="120.10453440350909" r="2.5"/>
      <circle cx="98.2244115481097" cy="125.98951329518135" r="2.5"/>
      <circle cx="108.77852522924732" cy="130.90169943749476" r="1.102182119232618e-15"/>
      <circle cx="145.0" cy="50.0" r="0.0"/>
      <circle cx="145.62790519529312" cy="59.98026728428272" r="2.5"/>
      <circle cx="147.50666467128607" cy="69.84229402628955" r="2.5"/>
      <circle cx="150.62143943757175" cy="79.46861752186066" r="2.5"/>
      <circle cx="154.9475954865942" cy="88.74332644514524" r="2.5"/>
      <circle cx="160.45084971874738" cy="97.55282581475768" r="2.5"/>
      <circle cx="167.08747316108068" cy="105.78658915329507" r="2.5"/>
      <circle cx="174.80455040955508" cy="113.33789367262138" r="2.5"/>
      <circle cx="183.54029392813723" cy="120.10453440350909" r="2.5"/>
      <circle cx="193.22441154810969" cy="125.98951329518135" r="2.5"/>
      <circle cx="203.77852522924732" cy="130.90169943749476" r="2.8166876380389124e-15"/>
      <circle cx="240.0" cy="50.0" r="0.0"/>
      <circle cx="240.62790519529312" cy="59.98026728428272" r="2.1631189606246317"/>
      <circle cx="242.50666467128607" cy="69.84229402628955" r="2.5"/>
      <circle cx="245.62143943757175" cy="79.46861752186066" r="2.5"/>
      <circle cx="249.9475954865942" cy="88.74332644514524" r="2.5"/>
      <circle cx="255.45084971874738" cy="97.55282581475768" r="2.5"/>
      <circle cx="262.08747316108065" cy="105.78658915329507" r="2.5"/>
      <circle cx="269.8045504095551" cy="113.33789367262138" r="2.5"/>
      <circle cx="278.5402939281372" cy="120.10453440350909" r="2.5"/>
      <circle cx="288.2244115481097" cy="125.98951329518135" r="2.1631189606246326"/>
      <circle cx="298.7785252292473" cy="130.90169943749476" r="8.572527594031472e-16"/>
      <circle cx="335.0" cy="50.0" r="0.0"/>
      <circle cx="335.6279051952931" cy="59.98026728428272" r="2.5"/>
      <circle cx="337.5066646712861" cy="69.84229402628955" r="2.5"/>
      <circle cx="340.6214394375717" cy="79.46861752186066" r="2.5"/>
      <circle cx="344.9475954865942" cy="88.74332644514524" r="2.5"/>
      <circle cx="350.45084971874735" cy="97.55282581475768" r="2.5"/>
      <circle cx="357.08747316108065" cy="105.78658915329507" r="2.5"/>
      <circle cx="364.8045504095551" cy="113.33789367262138" r="2.5"/>
      <circle cx="373.5402939281372" cy="120.10453440350909" r="2.5"/>
      <circle cx="383.2244115481097" cy="125.98951329518135" r="2.5"/>
      <circle cx="393.7785252292473" cy="130.90169943749476" r="1.592040838891559e-15"/>
      <circle cx="430.0" cy="50.0" r="0.0"/>
      <circle cx="430.6279051952931" cy="59.98026728428272" r="2.5"/>
      <circle cx="432.5066646712861" cy="69.84229402628955" r="2.5"/>
      <circle cx="435.6214394375717" cy="79.46861752186066" r="2.5"/>
      <circle cx="439.9475954865942" cy="88.74332644514524" r="2.5"/>
      <circle cx="445.45084971874735" cy="97.55282581475768" r="2.5"/>
      <circle cx="452.08747316108065" cy="105.78658915329507" r="2.5"/>
      <circle cx="459.8045504095551" cy="113.33789367262138" r="2.5"/>
      <circle cx="468.5402939281372" cy="120.10453440350909" r="2.5"/>
      <circle cx="478.2244115481097" cy="125.98951329518135" r="2.5"/>
      <circle cx="488.7785252292473" cy="130.90169943749476" r="1.0409497792752501e-15"/>
      <circle cx="525.0" cy="50.0" r="0.0"/>
      <circle cx="525.6279051952931" cy="59.98026728428272" r="2.5"/>
      <circle cx="527.5066646712861" cy="69.84229402628955" r="2.5"/>
      <circle cx="530.6214394375718" cy="79.46861752186066" r="2.5"/>
      <circle cx="534.9475954865942" cy="88.74332644514524" r="2.5"/>
      <circle cx="540.4508497187473" cy="97.55282581475768" r="2.5"/>
      <circle cx="547.0874731610807" cy="105.78658915329507" r="2.5"/>
      <circle cx="554.8045504095551" cy="113.33789367262138" r="2.5"/>
      <circle cx="563.5402939281372" cy="120.10453440350909" r="2.5"/>
      <circle cx="573.2244115481097" cy="125.98951329518135" r="2.5"/>
      <circle cx="583.7785252292473" cy="130.90169943749476" r="2.510525938252074e-15"/>
      <circle cx="620.0" cy="50.0" r="0.0"/>
      <circle cx="620.6279051952931" cy="59.98026728428272" r="2.5"/>
      <circle cx="622.5066646712861" cy="69.84229402628955" r="2.5"/>
      <circle cx="625.6214394375718" cy="79.46861752186066" r="2.5"/>
      <circle cx="629.9475954865942" cy="88.74332644514524" r="2.5"/>
      <circle cx="635.4508497187473" cy="97.55282581475768" r="2.5"/>
      <circle cx="642.0874731610807" cy="105.78658915329507" r="2.5"/>
      <circle cx="649.8045504095551" cy="113.33789367262138" r="2.5"/>
      <circle cx="658.5402939281372" cy="120.10453440350909" r="2.5"/>
      <circle cx="668.2244115481097" cy="125.98951329518135" r="2.5"/>
      <circle cx="678.7785252292473" cy="130.90169943749476" r="2.326828918379971e-15"/>
      <circle cx="715.0" cy="50.0" r="0.0"/>
      <circle cx="715.6279051952931" cy="59.98026728428272" r="2.5"/>
      <circle cx="717.5066646712861" cy="69.84229402628955" r="2.5"/>
      <circle cx="720.6214394375718" cy="79.46861752186066" r="2.5"/>
      <circle cx="724.9475954865942" cy="88.74332644514524" r="2.5"/>
      <circle cx="730.4508497187473" cy="97.55282581475768" r="2.5"/>
      <circle cx="737.0874731610807" cy="105.78658915329507" r="2.5"/>
      <circle cx="744.8045504095551" cy="113.33789367262138" r="2.5"/>
      <circle cx="753.5402939281372" cy="120.10453440350909" r="2.5"/>
      <circle cx="763.2244115481097" cy="125.98951329518135" r="2.5"/>
      <circle cx="773.7785252292473" cy="130.90169943749476" r="2.4492935982947065e-15"/>
      <circle cx="810.0" cy="50.0" r="0.0"/>
      <circle cx="810.6279051952931" cy="59.98026728428272" r="2.5"/>
      <circle cx="812.5066646712861" cy="69.84229402628955" r="2.5"/>
      <circle cx="815.6214394375718" cy="79.46861752186066" r="2.5"/>
      <circle cx="819.9475954865942" cy="88.74332644514524" r="2.5"/>
      <circle cx="825.4508497187473" cy="97.55282581475768" r="2.5"/>
      <circle cx="832.0874731610807" cy="105.78658915329507" r="2.5"/>
      <circle cx="839.8045504095551" cy="113.33789367262138" r="2.5"/>
      <circle cx="848.5402939281372" cy="120.10453440350909" r="2.5"/>
      <circle cx="858.2244115481097" cy="125.98951329518135" r="2.5"/>
      <circle cx="868.7785252292473" cy="130.90169943749476" r="2.0818995585505003e-15"/>
      <circle cx="905.0" cy="50.0" r="0.0"/>
      <circle cx="905.6279051952931" cy="59.98026728428272" r="2.5"/>
      <circle cx="907.5066646712861" cy="69.84229402628955" r="2.5"/>
      <circle cx="910.6214394375718" cy="79.46861752186066" r="2.5"/>
      <circle cx="914.9475954865942" cy="88.74332644514524" r="2.5"/>
      <circle cx="920.4508497187473" cy="97.55282581475768" r="2.5"/>
      <circle cx="927.0874731610807" cy="105.78658915329507" r="2.5"/>
      <circle cx="934.8045504095551" cy="113.33789367262138" r="2.5"/>
      <circle cx="943.5402939281372" cy="120.10453440350909" r="2.5"/>
      <circle cx="953.2244115481097" cy="125.98951329518135" r="2.5"/>
      <circle cx="963.7785252292473" cy="130.90169943749476" r="1.4083438190194562e-15"/>
      <circle cx="50.0" cy="177.61904761904762" r="0.0"/>
      <circle cx="50.62790519529313" cy="187.59931490333034" r="2.472135954999579"/>
      <circle cx="52.50666467128609" cy="197.46134164533717" r="2.5"/>
      <circle cx="55.62143943757174" cy="207.08766514090829" r="2.5"/>
      <circle cx="59.947595486594196" cy="216.36237406419286" r="2.5"/>
      <circle cx="65.45084971874738" cy="225.1718734338053" r="2.5"/>
      <circle cx="72.08747316108068" cy="233.4056367723427" r="2.5"/>
      <circle cx="79.80455040955509" cy="240.956941291669" r="2.5"/>
      <circle cx="88.54029392813723" cy="247.7235820225567" r="2.5"/>
      <circle cx="98.2244115481097" cy="253.60856091422897" r="2.47213595499958"/>
      <circle cx="108.77852522924732" cy="258.52074705654235" r="9.797174393178826e-16"/>
      <circle cx="145.0" cy="177.61904761904762" r="0.0"/>
      <circle cx="145.62790519529312" cy="187.59931490333034" r="2.5"/>
      <circle cx="147.50666467128607" cy="197.46134164533717" r="2.5"/>
      <circle cx="150.62143943757175" cy="207.08766514090829" r="2.5"/>
      <circle cx="154.9475954865942" cy="216.36237406419286" r="2.5"/>
      <circle cx="160.45084971874738" cy="225.1718734338053" r="2.5"/>
      <circle cx="167.08747316108068" cy="233.4056367723427" r="2.5"/>
      <circle cx="174.80455040955508" cy="240.956941291669" r="2.5"/>
      <circle cx="183.54029392813723" cy="247.7235820225567" r="2.5"/>
      <circle cx="193.22441154810969" cy="253.60856091422897" r="2.5"/>
      <circle cx="203.77852522924732" cy="258.52074705654235" r="2.510525938252074e-15"/>
      <circle cx="240.0" cy="177.61904761904762" r="0.0"/>
      <circle cx="240.62790519529312" cy="187.59931490333034" r="1.6995934690622108"/>
      <circle cx="242.50666467128607" cy="197.46134164533717" r="2.5"/>
      <circle cx="245.62143943757175" cy="207.08766514090829" r="2.5"/>
      <circle cx="249.9475954865942" cy="216.36237406419286" r="2.5"/>
      <circle cx="255.45084971874738" cy="225.1718734338053" r="2.5"/>
      <circle cx="262.08747316108065" cy="233.4056367723427" r="2.5"/>
      <circle cx="269.8045504095551" cy="240.956941291669" r="2.5"/>
      <circle cx="278.5402939281372" cy="247.7235820225567" r="2.5"/>
      <circle cx="288.2244115481097" cy="253.60856091422897" r="1.6995934690622112"/>
      <circle cx="298.7785252292473" cy="258.52074705654235" r="6.735557395310443e-16"/>
      <circle cx="335.0" cy="177.61904761904762" r="0.0"/>
      <circle cx="335.6279051952931" cy="187.59931490333034" r="2.5"/>
      <circle cx="337.5066646712861" cy="197.46134164533717" r="2.5"/>
      <circle cx="340.6214394375717" cy="207.08766514090829" r="2.5"/>
      <circle cx="344.9475954865942" cy="216.36237406419286" r="2.5"/>
      <circle cx="350.45084971874735" cy="225.1718734338053" r="2.5"/>
      <circle cx="357.08747316108065" cy="233.4056367723427" r="2.5"/>
      <circle cx="364.8045504095551" cy="240.956941291669" r="2.5"/>
      <circle cx="373.5402939281372" cy="247.7235820225567" r="2.5"/>
      <circle cx="383.2244115481097" cy="253.60856091422897" r="2.5"/>
      <circle cx="393.7785252292473" cy="258.52074705654235" r="2.0818995585505003e-15"/>
      <circle cx="430.0" cy="177.61904761904762" r="0.0"/>
      <circle cx="430.6279051952931" cy="187.59931490333034" r="2.5"/>
      <circle cx="432.5066646712861" cy="197.46134164533717" r="2.5"/>
      <circle cx="435.6214394375717" cy="207.08766514090829" r="2.5"/>
      <circle cx="439.9475954865942" cy="216.36237406419286" r="2.5"/>
      <circle cx="445.45084971874735" cy="225.1718734338053" r="2.5"/>
      <circle cx="452.08747316108065" cy="233.4056367723427" r="2.5"/>
      <circle cx="459.8045504095551" cy="240.956941291669" r="2.5"/>
      <circle cx="468.5402939281372" cy="247.7235820225567" r="2.5"/>
      <circle cx="478.2244115481097" cy="253.60856091422897" r="2.5"/>
      <circle cx="488.7785252292473" cy="258.52074705654235" r="2.2655965784226034e-15"/>
      <circle cx="525.0" cy="177.61904761904762" r="0.0"/>
      <circle cx="525.6279051952931" cy="187.59931490333034" r="2.5"/>
      <circle cx="527.5066646712861" cy="197.46134164533717" r="2.5"/>
      <circle cx="530.6214394375718" cy="207.08766514090829" r="2.5"/>
      <circle cx="534.9475954865942" cy="216.36237406419286" r="2.5"/>
      <circle cx="540.4508497187473" cy="225.1718734338053" r="2.5"/>
      <circle cx="547.0874731610807" cy="233.4056367723427" r="2.5"/>
      <circle cx="554.8045504095551" cy="240.956941291669" r="2.5"/>
      <circle cx="563.5402939281372" cy="247.7235820225567" r="2.5"/>
      <circle cx="573.2244115481097" cy="253.60856091422897" r="2.5"/>
      <circle cx="583.7785252292473" cy="258.52074705654235" r="2.9391523179536475e-15"/>
      <circle cx="620.0" cy="177.61904761904762" r="0.0"/>
      <circle cx="620.6279051952931" cy="187.59931490333034" r="1.545084971874737"/>
      <circle cx="622.5066646712861" cy="197.46134164533717" r="2.5"/>
      <circle cx="625.6214394375718" cy="207.08766514090829" r="2.5"/>
      <circle cx="629.9475954865942" cy="216.36237406419286" r="2.5"/>
      <circle cx="635.4508497187473" cy="225.1718734338053" r="2.5"/>
      <circle cx="642.0874731610807" cy="233.4056367723427" r="2.5"/>
      <circle cx="649.8045504095551" cy="240.956941291669" r="2.5"/>
      <circle cx="658.5402939281372" cy="247.7235820225567" r="2.5"/>
      <circle cx="668.2244115481097" cy="253.60856091422897" r="1.5450849718747375"/>
      <circle cx="678.7785252292473" cy="258.52074705654235" r="6.123233995736766e-16"/>
      <circle cx="715.0" cy="177.61904761904762" r="0.0"/>
      <circle cx="715.6279051952931" cy="187.59931490333034" r="2.5"/>
      <circle cx="717.5066646712861" cy="197.46134164533717" r="2.5"/>
      <circle cx="720.6214394375718" cy="207.08766514090829" r="2.5"/>
      <circle cx="724.9475954865942" cy="216.36237406419286" r="2.5"/>
      <circle cx="730.4508497187473" cy="225.1718734338053" r="2.5"/>
      <circle cx="737.0874731610807" cy="233.4056367723427" r="2.5"/>
      <circle cx="744.8045504095551" cy="240.956941291669" r="2.5"/>
      <circle cx="753.5402939281372" cy="247.7235820225567" r="2.5"/>
      <circle cx="763.2244115481097" cy="253.60856091422897" r="2.5"/>
      <circle cx="773.7785252292473" cy="258.52074705654235" r="2.326828918379971e-15"/>
      <circle cx="810.0" cy="177.61904761904762" r="0.0"/>
      <circle cx="810.6279051952931" cy="187.59931490333034" r="2.5"/>
      <circle cx="812.5066646712861" cy="197.46134164533717" r="2.5"/>
      <circle cx="815.6214394375718" cy="207.08766514090829" r="2.5"/>
      <circle cx="819.9475954865942" cy="216.36237406419286" r="2.5"/>
      <circle cx="825.4508497187473" cy="225.1718734338053" r="2.5"/>
      <circle cx="832.0874731610807" cy="233.4056367723427" r="2.5"/>
      <circle cx="839.8045504095551" cy="240.956941291669" r="2.5"/>
      <circle cx="848.5402939281372" cy="247.7235820225567" r="2.5"/>
      <circle cx="858.2244115481097" cy="253.60856091422897" r="2.5"/>
      <circle cx="868.7785252292473" cy="258.52074705654235" r="1.6532731788489269e-15"/>
      <circle cx="905.0" cy="177.61904761904762" r="0.0"/>
      <circle cx="905.6279051952931" cy="187.59931490333034" r="2.5"/>
      <circle cx="907.5066646712861" cy="197.46134164533717" r="2.5"/>
      <circle cx="910.6214394375718" cy="207.08766514090829" r="2.5"/>
      <circle cx="914.9475954865942" cy="216.36237406419286" r="2.5"/>
      <circle cx="920.4508497187473" cy="225.1718734338053" r="2.5"/>
      <circle cx="927.0874731610807" cy="233.4056367723427" r="2.5"/>
      <circle cx="934.8045504095551" cy="240.956941291669" r="2.5"/>
      <circle cx="943.5402939281372" cy="247.7235820225567" r="2.5"/>
      <circle cx="953.2244115481097" cy="253.60856091422897" r="2.5"/>
      <circle cx="963.7785252292473" cy="258.52074705654235" r="1.4695761589768238e-15"/>
      <circle cx="50.0" cy="305.23809523809524" r="0.0"/>
      <circle cx="50.62790519529313" cy="315.21836252237796" r="2.5"/>
      <circle cx="52.50666467128609" cy="325.0803892643848" r="2.5"/>
      <circle cx="55.62143943757174" cy="334.7067127599559" r="2.5"/>
      <circle cx="59.947595486594196" cy="343.98142168324046" r="2.5"/>
      <circle cx="65.45084971874738" cy="352.7909210528529" r="2.5"/>
      <circle cx="72.08747316108068" cy="361.02468439139034" r="2.5"/>
      <circle cx="79.80455040955509" cy="368.5759889107166" r="2.5"/>
      <circle cx="88.54029392813723" cy="375.34262964160433" r="2.5"/>
      <circle cx="98.2244115481097" cy="381.22760853327657" r="2.5"/>
      <circle cx="108.77852522924732" cy="386.13979467559" r="2.87791997799628e-15"/>
      <circle cx="145.0" cy="305.23809523809524" r="0.0"/>
      <circle cx="145.62790519529312" cy="315.21836252237796" r="2.472135954999579"/>
      <circle cx="147.50666467128607" cy="325.0803892643848" r="2.5"/>
      <circle cx="150.62143943757175" cy="334.7067127599559" r="2.5"/>
      <circle cx="154.9475954865942" cy="343.98142168324046" r="2.5"/>
      <circle cx="160.45084971874738" cy="352.7909210528529" r="2.5"/>
      <circle cx="167.08747316108068" cy="361.02468439139034" r="2.5"/>
      <circle cx="174.80455040955508" cy="368.5759889107166" r="2.5"/>
      <circle cx="183.54029392813723" cy="375.34262964160433" r="2.5"/>
      <circle cx="193.22441154810969" cy="381.22760853327657" r="2.47213595499958"/>
      <circle cx="203.77852522924732" cy="386.13979467559" r="9.797174393178826e-16"/>
      <circle cx="240.0" cy="305.23809523809524" r="0.0"/>
      <circle cx="240.62790519529312" cy="315.21836252237796" r="2.5"/>
      <circle cx="242.50666467128607" cy="325.0803892643848" r="2.5"/>
      <circle cx="245.62143943757175" cy="334.7067127599559" r="2.5"/>
      <circle cx="249.9475954865942" cy="343.98142168324046" r="2.5"/>
      <circle cx="255.45084971874738" cy="352.7909210528529" r="2.5"/>
      <circle cx="262.08747316108065" cy="361.02468439139034" r="2.5"/>
      <circle cx="269.8045504095551" cy="368.5759889107166" r="2.5"/>
      <circle cx="278.5402939281372" cy="375.34262964160433" r="2.5"/>
      <circle cx="288.2244115481097" cy="381.22760853327657" r="2.5"/>
      <circle cx="298.7785252292473" cy="386.13979467559" r="1.83697019872103e-15"/>
      <circle cx="335.0" cy="305.23809523809524" r="0.0"/>
      <circle cx="335.6279051952931" cy="315.21836252237796" r="1.6995934690622108"/>
      <circle cx="337.5066646712861" cy="325.0803892643848" r="2.5"/>
      <circle cx="340.6214394375717" cy="334.7067127599559" r="2.5"/>
      <circle cx="344.9475954865942" cy="343.98142168324046" r="2.5"/>
      <circle cx="350.45084971874735" cy="352.7909210528529" r="2.5"/>
      <circle cx="357.08747316108065" cy="361.02468439139034" r="2.5"/>
      <circle cx="364.8045504095551" cy="368.5759889107166" r="2.5"/>
      <circle cx="373.5402939281372" cy="375.34262964160433" r="2.5"/>
      <circle cx="383.2244115481097" cy="381.22760853327657" r="1.6995934690622112"/>
      <circle cx="393.7785252292473" cy="386.13979467559" r="6.735557395310443e-16"/>
      <circle cx="430.0" cy="305.23809523809524" r="0.0"/>
      <circle cx="430.6279051952931" cy="315.21836252237796" r="1.6995934690622108"/>
      <circle cx="432.5066646712861" cy="325.0803892643848" r="2.5"/>
      <circle cx="435.6214394375717" cy="334.7067127599559" r="2.5"/>
      <circle cx="439.9475954865942" cy="343.98142168324046" r="2.5"/>
      <circle cx="445.45084971874735" cy="352.7909210528529" r="2.5"/>
      <circle cx="452.08747316108065" cy="361.02468439139034" r="2.5"/>
      <circle cx="459.8045504095551" cy="368.5759889107166" r="2.5"/>
      <circle cx="468.5402939281372" cy="375.34262964160433" r="2.5"/>
      <circle cx="478.2244115481097" cy="381.22760853327657" r="1.6995934690622112"/>
      <circle cx="488.7785252292473" cy="386.13979467559" r="6.735557395310443e-16"/>
      <circle cx="525.0" cy="305.23809523809524" r="0.0"/>
      <circle cx="525.6279051952931" cy="315.21836252237796" r="1.6995934690622108"/>
      <circle cx="527.5066646712861" cy="325.0803892643848" r="2.5"/>
      <circle cx="530.6214394375718" cy="334.7067127599559" r="2.5"/>
      <circle cx="534.9475954865942" cy="343.98142168324046" r="2.5"/>
      <circle cx="540.4508497187473" cy="352.7909210528529" r="2.5"/>
      <circle cx="547.0874731610807" cy="361.02468439139034" r="2.5"/>
      <circle cx="554.8045504095551" cy="368.5759889107166" r="2.5"/>
      <circle cx="563.5402939281372" cy="375.34262964160433" r="2.5"/>
      <circle cx="573.2244115481097" cy="381.22760853327657" r="1.6995934690622112"/>
      <circle cx="583.7785252292473" cy="386.13979467559" r="6.735557395310443e-16"/>
      <circle cx="620.0" cy="305.23809523809524" r="0.0"/>
      <circle cx="620.6279051952931" cy="315.21836252237796" r="2.5"/>
      <circle cx="622.5066646712861" cy="325.0803892643848" r="2.5"/>
      <circle cx="625.6214394375718" cy="334.7067127599559" r="2.5"/>
      <circle cx="629.9475954865942" cy="343.98142168324046" r="2.5"/>
      <circle cx="635.4508497187473" cy="352.7909210528529" r="2.5"/>
      <circle cx="642.0874731610807" cy="361.02468439139034" r="2.5"/>
      <circle cx="649.8045504095551" cy="368.5759889107166" r="2.5"/>
      <circle cx="658.5402939281372" cy="375.34262964160433" r="2.5"/>
      <circle cx="668.2244115481097" cy="381.22760853327657" r="2.5"/>
      <circle cx="678.7785252292473" cy="386.13979467559" r="2.6942229581241772e-15"/>
      <circle cx="715.0" cy="305.23809523809524" r="0.0"/>
      <circle cx="715.6279051952931" cy="315.21836252237796" r="1.545084971874737"/>
      <circle cx="717.5066646712861" cy="325.0803892643848" r="2.5"/>
      <circle cx="720.6214394375718" cy="334.7067127599559" r="2.5"/>
      <circle cx="724.9475954865942" cy="343.98142168324046" r="2.5"/>
      <circle cx="730.4508497187473" cy="352.7909210528529" r="2.5"/>
      <circle cx="737.0874731610807" cy="361.02468439139034" r="2.5"/>
      <circle cx="744.8045504095551" cy="368.5759889107166" r="2.5"/>
      <circle cx="753.5402939281372" cy="375.34262964160433" r="2.5"/>
      <circle cx="763.2244115481097" cy="381.22760853327657" r="1.5450849718747375"/>
      <circle cx="773.7785252292473" cy="386.13979467559" r="6.123233995736766e-16"/>
      <circle cx="810.0" cy="305.23809523809524" r="0.0"/>
      <circle cx="810.6279051952931" cy="315.21836252237796" r="2.5"/>
      <circle cx="812.5066646712861" cy="325.0803892643848" r="2.5"/>
      <circle cx="815.6214394375718" cy="334.7067127599559" r="2.5"/>
      <circle cx="819.9475954865942" cy="343.98142168324046" r="2.5"/>
      <circle cx="825.4508497187473" cy="352.7909210528529" r="2.5"/>
      <circle cx="832.0874731610807" cy="361.02468439139034" r="2.5"/>
      <circle cx="839.8045504095551" cy="368.5759889107166" r="2.5"/>
      <circle cx="848.5402939281372" cy="375.34262964160433" r="2.5"/>
      <circle cx="858.2244115481097" cy="381.22760853327657" r="2.5"/>
      <circle cx="868.7785252292473" cy="386.13979467559" r="2.0818995585505003e-15"/>
      <circle cx="905.0" cy="305.23809523809524" r="0.0"/>
      <circle cx="905.6279051952931" cy="315.21836252237796" r="2.5"/>
      <circle cx="907.5066646712861" cy="325.0803892643848" r="2.5"/>
      <circle cx="910.6214394375718" cy="334.7067127599559" r="2.5"/>
      <circle cx="914.9475954865942" cy="343.98142168324046" r="2.5"/>
      <circle cx="920.4508497187473" cy="352.7909210528529" r="2.5"/>
      <circle cx="927.0874731610807" cy="361.02468439139034" r="2.5"/>
      <circle cx="934.8045504095551" cy="368.5759889107166" r="2.5"/>
      <circle cx="943.5402939281372" cy="375.34262964160433" r="2.5"/>
      <circle cx="953.2244115481097" cy="381.22760853327657" r="2.5"/>
      <circle cx="963.7785252292473" cy="386.13979467559" r="1.4083438190194562e-15"/>
      <circle cx="50.0" cy="432.8571428571429" r="0.0"/>
      <circle cx="50.62790519529313" cy="442.8374101414256" r="2.5"/>
      <circle cx="52.50666467128609" cy="452.69943688343244" r="2.5"/>
      <circle cx="55.62143943757174" cy="462.32576037900355" r="2.5"/>
      <circle cx="59.947595486594196" cy="471.60046930228816" r="2.5"/>
      <circle cx="65.45084971874738" cy="480.4099686719006" r="2.5"/>
      <circle cx="72.08747316108068" cy="488.643732010438" r="2.5"/>
      <circle cx="79.80455040955509" cy="496.19503652976425" r="2.5"/>
      <circle cx="88.54029392813723" cy="502.961677260652" r="2.5"/>
      <circle cx="98.2244115481097" cy="508.8466561523243" r="2.5"/>
      <circle cx="108.77852522924732" cy="513.7588422946376" r="2.2655965784226034e-15"/>
      <circle cx="145.0" cy="432.8571428571429" r="0.0"/>
      <circle cx="145.62790519529312" cy="442.8374101414256" r="1.6995934690622108"/>
      <circle cx="147.50666467128607" cy="452.69943688343244" r="2.5"/>
      <circle cx="150.62143943757175" cy="462.32576037900355" r="2.5"/>
      <circle cx="154.9475954865942" cy="471.60046930228816" r="2.5"/>
      <circle cx="160.45084971874738" cy="480.4099686719006" r="2.5"/>
      <circle cx="167.08747316108068" cy="488.643732010438" r="2.5"/>
      <circle cx="174.80455040955508" cy="496.19503652976425" r="2.5"/>
      <circle cx="183.54029392813723" cy="502.961677260652" r="2.5"/>
      <circle cx="193.22441154810969" cy="508.8466561523243" r="1.6995934690622112"/>
      <circle cx="203.77852522924732" cy="513.7588422946376" r="6.735557395310443e-16"/>
      <circle cx="240.0" cy="432.8571428571429" r="0.0"/>
      <circle cx="240.62790519529312" cy="442.8374101414256" r="2.5"/>
      <circle cx="242.50666467128607" cy="452.69943688343244" r="2.5"/>
      <circle cx="245.62143943757175" cy="462.32576037900355" r="2.5"/>
      <circle cx="249.9475954865942" cy="471.60046930228816" r="2.5"/>
      <circle cx="255.45084971874738" cy="480.4099686719006" r="2.5"/>
      <circle cx="262.08747316108065" cy="488.643732010438" r="2.5"/>
      <circle cx="269.8045504095551" cy="496.19503652976425" r="2.5"/>
      <circle cx="278.5402939281372" cy="502.961677260652" r="2.5"/>
      <circle cx="288.2244115481097" cy="508.8466561523243" r="2.5"/>
      <circle cx="298.7785252292473" cy="513.7588422946376" r="2.6329906181668092e-15"/>
      <circle cx="335.0" cy="432.8571428571429" r="0.0"/>
      <circle cx="335.6279051952931" cy="442.8374101414256" r="2.5"/>
      <circle cx="337.5066646712861" cy="452.69943688343244" r="2.5"/>
      <circle cx="340.6214394375717" cy="462.32576037900355" r="2.5"/>
      <circle cx="344.9475954865942" cy="471.60046930228816" r="2.5"/>
      <circle cx="350.45084971874735" cy="480.4099686719006" r="2.5"/>
      <circle cx="357.08747316108065" cy="488.643732010438" r="2.5"/>
      <circle cx="364.8045504095551" cy="496.19503652976425" r="2.5"/>
      <circle cx="373.5402939281372" cy="502.961677260652" r="2.5"/>
      <circle cx="383.2244115481097" cy="508.8466561523243" r="2.5"/>
      <circle cx="393.7785252292473" cy="513.7588422946376" r="1.4695761589768238e-15"/>
      <circle cx="430.0" cy="432.8571428571429" r="0.0"/>
      <circle cx="430.6279051952931" cy="442.8374101414256" r="2.5"/>
      <circle cx="432.5066646712861" cy="452.69943688343244" r="2.5"/>
      <circle cx="435.6214394375717" cy="462.32576037900355" r="2.5"/>
      <circle cx="439.9475954865942" cy="471.60046930228816" r="2.5"/>
      <circle cx="445.45084971874735" cy="480.4099686719006" r="2.5"/>
      <circle cx="452.08747316108065" cy="488.643732010438" r="2.5"/>
      <circle cx="459.8045504095551" cy="496.19503652976425" r="2.5"/>
      <circle cx="468.5402939281372" cy="502.961677260652" r="2.5"/>
      <circle cx="478.2244115481097" cy="508.8466561523243" r="2.5"/>
      <circle cx="488.7785252292473" cy="513.7588422946376" r="2.326828918379971e-15"/>
      <circle cx="525.0" cy="432.8571428571429" r="0.0"/>
      <circle cx="525.6279051952931" cy="442.8374101414256" r="2.5"/>
      <circle cx="527.5066646712861" cy="452.69943688343244" r="2.5"/>
      <circle cx="530.6214394375718" cy="462.32576037900355" r="2.5"/>
      <circle cx="534.9475954865942" cy="471.60046930228816" r="2.5"/>
      <circle cx="540.4508497187473" cy="480.4099686719006" r="2.5"/>
      <circle cx="547.0874731610807" cy="488.643732010438" r="2.5"/>
      <circle cx="554.8045504095551" cy="496.19503652976425" r="2.5"/>
      <circle cx="563.5402939281372" cy="502.961677260652" r="2.5"/>
      <circle cx="573.2244115481097" cy="508.8466561523243" r="2.5"/>
      <circle cx="583.7785252292473" cy="513.7588422946376" r="2.510525938252074e-15"/>
      <circle cx="620.0" cy="432.8571428571429" r="0.0"/>
      <circle cx="620.6279051952931" cy="442.8374101414256" r="2.5"/>
      <circle cx="622.5066646712861" cy="452.69943688343244" r="2.5"/>
      <circle cx="625.6214394375718" cy="462.32576037900355" r="2.5"/>
      <circle cx="629.9475954865942" cy="471.60046930228816" r="2.5"/>
      <circle cx="635.4508497187473" cy="480.4099686719006" r="2.5"/>
      <circle cx="642.0874731610807" cy="488.643732010438" r="2.5"/>
      <circle cx="649.8045504095551" cy="496.19503652976425" r="2.5"/>
      <circle cx="658.5402939281372" cy="502.961677260652" r="2.5"/>
      <circle cx="668.2244115481097" cy="508.8466561523243" r="2.5"/>
      <circle cx="678.7785252292473" cy="513.7588422946376" r="2.7554552980815448e-15"/>
      <circle cx="715.0" cy="432.8571428571429" r="0.0"/>
      <circle cx="715.6279051952931" cy="442.8374101414256" r="2.5"/>
      <circle cx="717.5066646712861" cy="452.69943688343244" r="2.5"/>
      <circle cx="720.6214394375718" cy="462.32576037900355" r="2.5"/>
      <circle cx="724.9475954865942" cy="471.60046930228816" r="2.5"/>
      <circle cx="730.4508497187473" cy="480.4099686719006" r="2.5"/>
      <circle cx="737.0874731610807" cy="488.643732010438" r="2.5"/>
      <circle cx="744.8045504095551" cy="496.19503652976425" r="2.5"/>
      <circle cx="753.5402939281372" cy="502.961677260652" r="2.5"/>
      <circle cx="763.2244115481097" cy="508.8466561523243" r="2.5"/>
      <circle cx="773.7785252292473" cy="513.7588422946376" r="1.4695761589768238e-15"/>
      <circle cx="810.0" cy="432.8571428571429" r="0.0"/>
      <circle cx="810.6279051952931" cy="442.8374101414256" r="2.5"/>
      <circle cx="812.5066646712861" cy="452.69943688343244" r="2.5"/>
      <circle cx="815.6214394375718" cy="462.32576037900355" r="2.5"/>
      <circle cx="819.9475954865942" cy="471.60046930228816" r="2.5"/>
      <circle cx="825.4508497187473" cy="480.4099686719006" r="2.5"/>
      <circle cx="832.0874731610807" cy="488.643732010438" r="2.5"/>
      <circle cx="839.8045504095551" cy="496.19503652976425" r="2.5"/>
      <circle cx="848.5402939281372" cy="502.961677260652" r="2.5"/>
      <circle cx="858.2244115481097" cy="508.8466561523243" r="2.5"/>
      <circle cx="868.7785252292473" cy="513.7588422946376" r="1.959434878635765e-15"/>
      <circle cx="905.0" cy="432.8571428571429" r="0.0"/>
      <circle cx="905.6279051952931" cy="442.8374101414256" r="2.5"/>
      <circle cx="907.5066646712861" cy="452.69943688343244" r="2.5"/>
      <circle cx="910.6214394375718" cy="462.32576037900355" r="2.5"/>
      <circle cx="914.9475954865942" cy="471.60046930228816" r="2.5"/>
      <circle cx="920.4508497187473" cy="480.4099686719006" r="2.5"/>
      <circle cx="927.0874731610807" cy="488.643732010438" r="2.5"/>
      <circle cx="934.8045504095551" cy="496.19503652976425" r="2.5"/>
      <circle cx="943.5402939281372" cy="502.961677260652" r="2.5"/>
      <circle cx="953.2244115481097" cy="508.8466561523243" r="2.5"/>
      <circle cx="963.7785252292473" cy="513.7588422946376" r="1.4695761589768238e-15"/>
      <circle cx="50.0" cy="560.4761904761905" r="0.0"/>
      <circle cx="50.62790519529313" cy="570.4564577604732" r="2.5"/>
      <circle cx="52.50666467128609" cy="580.31848450248" r="2.5"/>
      <circle cx="55.62143943757174" cy="589.9448079980511" r="2.5"/>
      <circle cx="59.947595486594196" cy="599.2195169213358" r="2.5"/>
      <circle cx="65.45084971874738" cy="608.0290162909481" r="2.5"/>
      <circle cx="72.08747316108068" cy="616.2627796294855" r="2.5"/>
      <circle cx="79.80455040955509" cy="623.8140841488118" r="2.5"/>
      <circle cx="88.54029392813723" cy="630.5807248796996" r="2.5"/>
      <circle cx="98.2244115481097" cy="636.4657037713719" r="2.5"/>
      <circle cx="108.77852522924732" cy="641.3778899136852" r="1.4695761589768238e-15"/>
      <circle cx="145.0" cy="560.4761904761905" r="0.0"/>
      <circle cx="145.62790519529312" cy="570.4564577604732" r="2.5"/>
      <circle cx="147.50666467128607" cy="580.31848450248" r="2.5"/>
      <circle cx="150.62143943757175" cy="589.9448079980511" r="2.5"/>
      <circle cx="154.9475954865942" cy="599.2195169213358" r="2.5"/>
      <circle cx="160.45084971874738" cy="608.0290162909481" r="2.5"/>
      <circle cx="167.08747316108068" cy="616.2627796294855" r="2.5"/>
      <circle cx="174.80455040955508" cy="623.8140841488118" r="2.5"/>
      <circle cx="183.54029392813723" cy="630.5807248796996" r="2.5"/>
      <circle cx="193.22441154810969" cy="636.4657037713719" r="2.5"/>
      <circle cx="203.77852522924732" cy="641.3778899136852" r="2.388061258337339e-15"/>
      <circle cx="240.0" cy="560.4761904761905" r="0.0"/>
      <circle cx="240.62790519529312" cy="570.4564577604732" r="2.5"/>
      <circle cx="242.50666467128607" cy="580.31848450248" r="2.5"/>
      <circle cx="245.62143943757175" cy="589.9448079980511" r="2.5"/>
      <circle cx="249.9475954865942" cy="599.2195169213358" r="2.5"/>
      <circle cx="255.45084971874738" cy="608.0290162909481" r="2.5"/>
      <circle cx="262.08747316108065" cy="616.2627796294855" r="2.5"/>
      <circle cx="269.8045504095551" cy="623.8140841488118" r="2.5"/>
      <circle cx="278.5402939281372" cy="630.5807248796996" r="2.5"/>
      <circle cx="288.2244115481097" cy="636.4657037713719" r="2.5"/>
      <circle cx="298.7785252292473" cy="641.3778899136852" r="1.7145055188062944e-15"/>
      <circle cx="335.0" cy="560.4761904761905" r="0.0"/>
      <circle cx="335.6279051952931" cy="570.4564577604732" r="1.6995934690622108"/>
      <circle cx="337.5066646712861" cy="580.31848450248" r="2.5"/>
      <circle cx="340.6214394375717" cy="589.9448079980511" r="2.5"/>
      <circle cx="344.9475954865942" cy="599.2195169213358" r="2.5"/>
      <circle cx="350.45084971874735" cy="608.0290162909481" r="2.5"/>
      <circle cx="357.08747316108065" cy="616.2627796294855" r="2.5"/>
      <circle cx="364.8045504095551" cy="623.8140841488118" r="2.5"/>
      <circle cx="373.5402939281372" cy="630.5807248796996" r="2.5"/>
      <circle cx="383.2244115481097" cy="636.4657037713719" r="1.6995934690622112"/>
      <circle cx="393.7785252292473" cy="641.3778899136852" r="6.735557395310443e-16"/>
      <circle cx="430.0" cy="560.4761904761905" r="0.0"/>
      <circle cx="430.6279051952931" cy="570.4564577604732" r="2.5"/>
      <circle cx="432.5066646712861" cy="580.31848450248" r="2.5"/>
      <circle cx="435.6214394375717" cy="589.9448079980511" r="2.5"/>
      <circle cx="439.9475954865942" cy="599.2195169213358" r="2.5"/>
      <circle cx="445.45084971874735" cy="608.0290162909481" r="2.5"/>
      <circle cx="452.08747316108065" cy="616.2627796294855" r="2.5"/>
      <circle cx="459.8045504095551" cy="623.8140841488118" r="2.5"/>
      <circle cx="468.5402939281372" cy="630.5807248796996" r="2.5"/>
      <circle cx="478.2244115481097" cy="636.4657037713719" r="2.5"/>
      <circle cx="488.7785252292473" cy="641.3778899136852" r="2.204364238465236e-15"/>
      <circle cx="525.0" cy="560.4761904761905" r="0.0"/>
      <circle cx="525.6279051952931" cy="570.4564577604732" r="2.5"/>
      <circle cx="527.5066646712861" cy="580.31848450248" r="2.5"/>
      <circle cx="530.6214394375718" cy="589.9448079980511" r="2.5"/>
      <circle cx="534.9475954865942" cy="599.2195169213358" r="2.5"/>
      <circle cx="540.4508497187473" cy="608.0290162909481" r="2.5"/>
      <circle cx="547.0874731610807" cy="616.2627796294855" r="2.5"/>
      <circle cx="554.8045504095551" cy="623.8140841488118" r="2.5"/>
      <circle cx="563.5402939281372" cy="630.5807248796996" r="2.5"/>
      <circle cx="573.2244115481097" cy="636.4657037713719" r="2.5"/>
      <circle cx="583.7785252292473" cy="641.3778899136852" r="2.7554552980815448e-15"/>
      <circle cx="620.0" cy="560.4761904761905" r="0.0"/>
      <circle cx="620.6279051952931" cy="570.4564577604732" r="2.472135954999579"/>
      <circle cx="622.5066646712861" cy="580.31848450248" r="2.5"/>
      <circle cx="625.6214394375718" cy="589.9448079980511" r="2.5"/>
      <circle cx="629.9475954865942" cy="599.2195169213358" r="2.5"/>
      <circle cx="635.4508497187473" cy="608.0290162909481" r="2.5"/>
      <circle cx="642.0874731610807" cy="616.2627796294855" r="2.5"/>
      <circle cx="649.8045504095551" cy="623.8140841488118" r="2.5"/>
      <circle cx="658.5402939281372" cy="630.5807248796996" r="2.5"/>
      <circle cx="668.2244115481097" cy="636.4657037713719" r="2.47213595499958"/>
      <circle cx="678.7785252292473" cy="641.3778899136852" r="9.797174393178826e-16"/>
      <circle cx="715.0" cy="560.4761904761905" r="0.0"/>
      <circle cx="715.6279051952931" cy="570.4564577604732" r="2.5"/>
      <circle cx="717.5066646712861" cy="580.31848450248" r="2.5"/>
      <circle cx="720.6214394375718" cy="589.9448079980511" r="2.5"/>
      <circle cx="724.9475954865942" cy="599.2195169213358" r="2.5"/>
      <circle cx="730.4508497187473" cy="608.0290162909481" r="2.5"/>
      <circle cx="737.0874731610807" cy="616.2627796294855" r="2.5"/>
      <circle cx="744.8045504095551" cy="623.8140841488118" r="2.5"/>
      <circle cx="753.5402939281372" cy="630.5807248796996" r="2.5"/>
      <circle cx="763.2244115481097" cy="636.4657037713719" r="2.5"/>
      <circle cx="773.7785252292473" cy="641.3778899136852" r="1.2858791391047208e-15"/>
      <circle cx="810.0" cy="560.4761904761905" r="0.0"/>
      <circle cx="810.6279051952931" cy="570.4564577604732" r="2.5"/>
      <circle cx="812.5066646712861" cy="580.31848450248" r="2.5"/>
      <circle cx="815.6214394375718" cy="589.9448079980511" r="2.5"/>
      <circle cx="819.9475954865942" cy="599.2195169213358" r="2.5"/>
      <circle cx="825.4508497187473" cy="608.0290162909481" r="2.5"/>
      <circle cx="832.0874731610807" cy="616.2627796294855" r="2.5"/>
      <circle cx="839.8045504095551" cy="623.8140841488118" r="2.5"/>
      <circle cx="848.5402939281372" cy="630.5807248796996" r="2.5"/>
      <circle cx="858.2244115481097" cy="636.4657037713719" r="2.5"/>
      <circle cx="868.7785252292473" cy="641.3778899136852" r="1.7145055188062944e-15"/>
      <circle cx="905.0" cy="560.4761904761905" r="0.0"/>
      <circle cx="905.6279051952931" cy="570.4564577604732" r="2.5"/>
      <circle cx="907.5066646712861" cy="580.31848450248" r="2.5"/>
      <circle cx="910.6214394375718" cy="589.9448079980511" r="2.5"/>
      <circle cx="914.9475954865942" cy="599.2195169213358" r="2.5"/>
      <circle cx="920.4508497187473" cy="608.0290162909481" r="2.5"/>
      <circle cx="927.0874731610807" cy="616.2627796294855" r="2.5"/>
      <circle cx="934.8045504095551" cy="623.8140841488118" r="2.5"/>
      <circle cx="943.5402939281372" cy="630.5807248796996" r="2.5"/>
      <circle cx="953.2244115481097" cy="636.4657037713719" r="2.5"/>
      <circle cx="963.7785252292473" cy="641.3778899136852" r="1.0409497792752501e-15"/>
      <g transform="translate(1050,63.80952380952381) scale(-1,1)">
        <circle cx="50.0" cy="50.0" r="0.0"/>
        <circle cx="50.62790519529313" cy="59.98026728428272" r="2.5"/>
        <circle cx="52.50666467128609" cy="69.84229402628955" r="2.5"/>
        <circle cx="55.62143943757174" cy="79.46861752186066" r="2.5"/>
        <circle cx="59.947595486594196" cy="88.74332644514524" r="2.5"/>
        <circle cx="65.45084971874738" cy="97.55282581475768" r="2.5"/>
        <circle cx="72.08747316108068" cy="105.78658915329507" r="2.5"/>
        <circle cx="79.80455040955509" cy="113.33789367262138" r="2.5"/>
        <circle cx="88.54029392813723" cy="120.10453440350909" r="2.5"/>
        <circle cx="98.2244115481097" cy="125.98951329518135" r="2.5"/>
        <circle cx="108.77852522924732" cy="130.90169943749476" r="1.8982025386783976e-15"/>
        <circle cx="145.0" cy="50.0" r="0.0"/>
        <circle cx="145.62790519529312" cy="59.98026728428272" r="2.5"/>
        <circle cx="147.50666467128607" cy="69.84229402628955" r="2.5"/>
        <circle cx="150.62143943757175" cy="79.46861752186066" r="2.5"/>
        <circle cx="154.9475954865942" cy="88.74332644514524" r="2.5"/>
        <circle cx="160.45084971874738" cy="97.55282581475768" r="2.5"/>
        <circle cx="167.08747316108068" cy="105.78658915329507" r="2.5"/>
        <circle cx="174.80455040955508" cy="113.33789367262138" r="2.5"/>
        <circle cx="183.54029392813723" cy="120.10453440350909" r="2.5"/>
        <circle cx="193.22441154810969" cy="125.98951329518135" r="2.5"/>
        <circle cx="203.77852522924732" cy="130.90169943749476" r="2.5717582782094417e-15"/>
        <circle cx="240.0" cy="50.0" r="0.0"/>
        <circle cx="240.62790519529312" cy="59.98026728428272" r="2.5"/>
        <circle cx="242.50666467128607" cy="69.84229402628955" r="2.5"/>
        <circle cx="245.62143943757175" cy="79.46861752186066" r="2.5"/>
        <circle cx="249.9475954865942" cy="88.74332644514524" r="2.5"/>
        <circle cx="255.45084971874738" cy="97.55282581475768" r="2.5"/>
        <circle cx="262.08747316108065" cy="105.78658915329507" r="2.5"/>
        <circle cx="269.8045504095551" cy="113.33789367262138" r="2.5"/>
        <circle cx="278.5402939281372" cy="120.10453440350909" r="2.5"/>
        <circle cx="288.2244115481097" cy="125.98951329518135" r="2.5"/>
        <circle cx="298.7785252292473" cy="130.90169943749476" r="2.2655965784226034e-15"/>
        <circle cx="335.0" cy="50.0" r="0.0"/>
        <circle cx="335.6279051952931" cy="59.98026728428272" r="2.5"/>
        <circle cx="337.5066646712861" cy="69.84229402628955" r="2.5"/>
        <circle cx="340.6214394375717" cy="79.46861752186066" r="2.5"/>
        <circle cx="344.9475954865942" cy="88.74332644514524" r="2.5"/>
        <circle cx="350.45084971874735" cy="97.55282581475768" r="2.5"/>
        <circle cx="357.08747316108065" cy="105.78658915329507" r="2.5"/>
        <circle cx="364.8045504095551" cy="113.33789367262138" r="2.5"/>
        <circle cx="373.5402939281372" cy="120.10453440350909" r="2.5"/>
        <circle cx="383.2244115481097" cy="125.98951329518135" r="2.5"/>
        <circle cx="393.7785252292473" cy="130.90169943749476" r="2.5717582782094417e-15"/>
        <circle cx="430.0" cy="50.0" r="0.0"/>
        <circle cx="430.6279051952931" cy="59.98026728428272" r="2.5"/>
        <circle cx="432.5066646712861" cy="69.84229402628955" r="2.5"/>
        <circle cx="435.6214394375717" cy="79.46861752186066" r="2.5"/>
        <circle cx="439.9475954865942" cy="88.74332644514524" r="2.5"/>
        <circle cx="445.45084971874735" cy="97.55282581475768" r="2.5"/>
        <circle cx="452.08747316108065" cy="105.78658915329507" r="2.5"/>
        <circle cx="459.8045504095551" cy="113.33789367262138" r="2.5"/>
        <circle cx="468.5402939281372" cy="120.10453440350909" r="2.5"/>
        <circle cx="478.2244115481097" cy="125.98951329518135" r="2.5"/>
        <circle cx="488.7785252292473" cy="130.90169943749476" r="1.3471114790620886e-15"/>
        <circle cx="525.0" cy="50.0" r="0.0"/>
        <circle cx="525.6279051952931" cy="59.98026728428272" r="2.5"/>
        <circle cx="527.5066646712861" cy="69.84229402628955" r="2.5"/>
        <circle cx="530.6214394375718" cy="79.46861752186066" r="2.5"/>
        <circle cx="534.9475954865942" cy="88.74332644514524" r="2.5"/>
        <circle cx="540.4508497187473" cy="97.55282581475768" r="2.5"/>
        <circle cx="547.0874731610807" cy="105.78658915329507" r="2.5"/>
        <circle cx="554.8045504095551" cy="113.33789367262138" r="2.5"/>
        <circle cx="563.5402939281372" cy="120.10453440350909" r="2.5"/>
        <circle cx="573.2244115481097" cy="125.98951329518135" r="2.5"/>
        <circle cx="583.7785252292473" cy="130.90169943749476" r="1.7757378587636622e-15"/>
        <circle cx="620.0" cy="50.0" r="0.0"/>
        <circle cx="620.6279051952931" cy="59.98026728428272" r="2.5"/>
        <circle cx="622.5066646712861" cy="69.84229402628955" r="2.5"/>
        <circle cx="625.6214394375718" cy="79.46861752186066" r="2.5"/>
        <circle cx="629.9475954865942" cy="88.74332644514524" r="2.5"/>
        <circle cx="635.4508497187473" cy="97.55282581475768" r="2.5"/>
        <circle cx="642.0874731610807" cy="105.78658915329507" r="2.5"/>
        <circle cx="649.8045504095551" cy="113.33789367262138" r="2.5"/>
        <circle cx="658.5402939281372" cy="120.10453440350909" r="2.5"/>
        <circle cx="668.2244115481097" cy="125.98951329518135" r="2.5"/>
        <circle cx="678.7785252292473" cy="130.90169943749476" r="1.7145055188062944e-15"/>
        <circle cx="715.0" cy="50.0" r="0.0"/>
        <circle cx="715.6279051952931" cy="59.98026728428272" r="2.5"/>
        <circle cx="717.5066646712861" cy="69.84229402628955" r="2.5"/>
        <circle cx="720.6214394375718" cy="79.46861752186066" r="2.5"/>
        <circle cx="724.9475954865942" cy="88.74332644514524" r="2.5"/>
        <circle cx="730.4508497187473" cy="97.55282581475768" r="2.5"/>
        <circle cx="737.0874731610807" cy="105.78658915329507" r="2.5"/>
        <circle cx="744.8045504095551" cy="113.33789367262138" r="2.5"/>
        <circle cx="753.5402939281372" cy="120.10453440350909" r="2.5"/>
        <circle cx="763.2244115481097" cy="125.98951329518135" r="2.5"/>
        <circle cx="773.7785252292473" cy="130.90169943749476" r="2.87791997799628e-15"/>
        <circle cx="810.0" cy="50.0" r="0.0"/>
        <circle cx="810.6279051952931" cy="59.98026728428272" r="2.5"/>
        <circle cx="812.5066646712861" cy="69.84229402628955" r="2.5"/>
        <circle cx="815.6214394375718" cy="79.46861752186066" r="2.5"/>
        <circle cx="819.9475954865942" cy="88.74332644514524" r="2.5"/>
        <circle cx="825.4508497187473" cy="97.55282581475768" r="2.5"/>
        <circle cx="832.0874731610807" cy="105.78658915329507" r="2.5"/>
        <circle cx="839.8045504095551" cy="113.33789367262138" r="2.5"/>
        <circle cx="848.5402939281372" cy="120.10453440350909" r="2.5"/>
        <circle cx="858.2244115481097" cy="125.98951329518135" r="2.5"/>
        <circle cx="868.7785252292473" cy="130.90169943749476" r="2.510525938252074e-15"/>
        <circle cx="905.0" cy="50.0" r="0.0"/>
        <circle cx="905.6279051952931" cy="59.98026728428272" r="2.5"/>
        <circle cx="907.5066646712861" cy="69.84229402628955" r="2.5"/>
        <circle cx="910.6214394375718" cy="79.46861752186066" r="2.5"/>
        <circle cx="914.9475954865942" cy="88.74332644514524" r="2.5"/>
        <circle cx="920.4508497187473" cy="97.55282581475768" r="2.5"/>
        <circle cx="927.0874731610807" cy="105.78658915329507" r="2.5"/>
        <circle cx="934.8045504095551" cy="113.33789367262138" r="2.5"/>
        <circle cx="943.5402939281372" cy="120.10453440350909" r="2.5"/>
        <circle cx="953.2244115481097" cy="125.98951329518135" r="2.5"/>
        <circle cx="963.7785252292473" cy="130.90169943749476" r="2.5717582782094417e-15"/>
        <circle cx="50.0" cy="177.61904761904762" r="0.0"/>
        <circle cx="50.62790519529313" cy="187.59931490333034" r="2.5"/>
        <circle cx="52.50666467128609" cy="197.46134164533717" r="2.5"/>
        <circle cx="55.62143943757174" cy="207.08766514090829" r="2.5"/>
        <circle cx="59.947595486594196" cy="216.36237406419286" r="2.5"/>
        <circle cx="65.45084971874738" cy="225.1718734338053" r="2.5"/>
        <circle cx="72.08747316108068" cy="233.4056367723427" r="2.5"/>
        <circle cx="79.80455040955509" cy="240.956941291669" r="2.5"/>
        <circle cx="88.54029392813723" cy="247.7235820225567" r="2.5"/>
        <circle cx="98.2244115481097" cy="253.60856091422897" r="2.5"/>
        <circle cx="108.77852522924732" cy="258.52074705654235" r="2.1431318985078682e-15"/>
        <circle cx="145.0" cy="177.61904761904762" r="0.0"/>
        <circle cx="145.62790519529312" cy="187.59931490333034" r="2.5"/>
        <circle cx="147.50666467128607" cy="197.46134164533717" r="2.5"/>
        <circle cx="150.62143943757175" cy="207.08766514090829" r="2.5"/>
        <circle cx="154.9475954865942" cy="216.36237406419286" r="2.5"/>
        <circle cx="160.45084971874738" cy="225.1718734338053" r="2.5"/>
        <circle cx="167.08747316108068" cy="233.4056367723427" r="2.5"/>
        <circle cx="174.80455040955508" cy="240.956941291669" r="2.5"/>
        <circle cx="183.54029392813723" cy="247.7235820225567" r="2.5"/>
        <circle cx="193.22441154810969" cy="253.60856091422897" r="2.5"/>
        <circle cx="203.77852522924732" cy="258.52074705654235" r="2.87791997799628e-15"/>
        <circle cx="240.0" cy="177.61904761904762" r="0.0"/>
        <circle cx="240.62790519529312" cy="187.59931490333034" r="1.8541019662496843"/>
        <circle cx="242.50666467128607" cy="197.46134164533717" r="2.5"/>
        <circle cx="245.62143943757175" cy="207.08766514090829" r="2.5"/>
        <circle cx="249.9475954865942" cy="216.36237406419286" r="2.5"/>
        <circle cx="255.45084971874738" cy="225.1718734338053" r="2.5"/>
        <circle cx="262.08747316108065" cy="233.4056367723427" r="2.5"/>
        <circle cx="269.8045504095551" cy="240.956941291669" r="2.5"/>
        <circle cx="278.5402939281372" cy="247.7235820225567" r="2.5"/>
        <circle cx="288.2244115481097" cy="253.60856091422897" r="1.8541019662496852"/>
        <circle cx="298.7785252292473" cy="258.52074705654235" r="7.347880794884119e-16"/>
        <circle cx="335.0" cy="177.61904761904762" r="0.0"/>
        <circle cx="335.6279051952931" cy="187.59931490333034" r="2.5"/>
        <circle cx="337.5066646712861" cy="197.46134164533717" r="2.5"/>
        <circle cx="340.6214394375717" cy="207.08766514090829" r="2.5"/>
        <circle cx="344.9475954865942" cy="216.36237406419286" r="2.5"/>
        <circle cx="350.45084971874735" cy="225.1718734338053" r="2.5"/>
        <circle cx="357.08747316108065" cy="233.4056367723427" r="2.5"/>
        <circle cx="364.8045504095551" cy="240.956941291669" r="2.5"/>
        <circle cx="373.5402939281372" cy="247.7235820225567" r="2.5"/>
        <circle cx="383.2244115481097" cy="253.60856091422897" r="2.5"/>
        <circle cx="393.7785252292473" cy="258.52074705654235" r="2.4492935982947065e-15"/>
        <circle cx="430.0" cy="177.61904761904762" r="0.0"/>
        <circle cx="430.6279051952931" cy="187.59931490333034" r="2.5"/>
        <circle cx="432.5066646712861" cy="197.46134164533717" r="2.5"/>
        <circle cx="435.6214394375717" cy="207.08766514090829" r="2.5"/>
        <circle cx="439.9475954865942" cy="216.36237406419286" r="2.5"/>
        <circle cx="445.45084971874735" cy="225.1718734338053" r="2.5"/>
        <circle cx="452.08747316108065" cy="233.4056367723427" r="2.5"/>
        <circle cx="459.8045504095551" cy="240.956941291669" r="2.5"/>
        <circle cx="468.5402939281372" cy="247.7235820225567" r="2.5"/>
        <circle cx="478.2244115481097" cy="253.60856091422897" r="2.5"/>
        <circle cx="488.7785252292473" cy="258.52074705654235" r="1.5308084989341915e-15"/>
        <circle cx="525.0" cy="177.61904761904762" r="0.0"/>
        <circle cx="525.6279051952931" cy="187.59931490333034" r="2.5"/>
        <circle cx="527.5066646712861" cy="197.46134164533717" r="2.5"/>
        <circle cx="530.6214394375718" cy="207.08766514090829" r="2.5"/>
        <circle cx="534.9475954865942" cy="216.36237406419286" r="2.5"/>
        <circle cx="540.4508497187473" cy="225.1718734338053" r="2.5"/>
        <circle cx="547.0874731610807" cy="233.4056367723427" r="2.5"/>
        <circle cx="554.8045504095551" cy="240.956941291669" r="2.5"/>
        <circle cx="563.5402939281372" cy="247.7235820225567" r="2.5"/>
        <circle cx="573.2244115481097" cy="253.60856091422897" r="2.5"/>
        <circle cx="583.7785252292473" cy="258.52074705654235" r="2.1431318985078682e-15"/>
        <circle cx="620.0" cy="177.61904761904762" r="0.0"/>
        <circle cx="620.6279051952931" cy="187.59931490333034" r="2.5"/>
        <circle cx="622.5066646712861" cy="197.46134164533717" r="2.5"/>
        <circle cx="625.6214394375718" cy="207.08766514090829" r="2.5"/>
        <circle cx="629.9475954865942" cy="216.36237406419286" r="2.5"/>
        <circle cx="635.4508497187473" cy="225.1718734338053" r="2.5"/>
        <circle cx="642.0874731610807" cy="233.4056367723427" r="2.5"/>
        <circle cx="649.8045504095551" cy="240.956941291669" r="2.5"/>
        <circle cx="658.5402939281372" cy="247.7235820225567" r="2.5"/>
        <circle cx="668.2244115481097" cy="253.60856091422897" r="2.5"/>
        <circle cx="678.7785252292473" cy="258.52074705654235" r="2.204364238465236e-15"/>
        <circle cx="715.0" cy="177.61904761904762" r="0.0"/>
        <circle cx="715.6279051952931" cy="187.59931490333034" r="2.5"/>
        <circle cx="717.5066646712861" cy="197.46134164533717" r="2.5"/>
        <circle cx="720.6214394375718" cy="207.08766514090829" r="2.5"/>
        <circle cx="724.9475954865942" cy="216.36237406419286" r="2.5"/>
        <circle cx="730.4508497187473" cy="225.1718734338053" r="2.5"/>
        <circle cx="737.0874731610807" cy="233.4056367723427" r="2.5"/>
        <circle cx="744.8045504095551" cy="240.956941291669" r="2.5"/>
        <circle cx="753.5402939281372" cy="247.7235820225567" r="2.5"/>
        <circle cx="763.2244115481097" cy="253.60856091422897" r="2.5"/>
        <circle cx="773.7785252292473" cy="258.52074705654235" r="1.2858791391047208e-15"/>
        <circle cx="810.0" cy="177.61904761904762" r="0.0"/>
        <circle cx="810.6279051952931" cy="187.59931490333034" r="2.5"/>
        <circle cx="812.5066646712861" cy="197.46134164533717" r="2.5"/>
        <circle cx="815.6214394375718" cy="207.08766514090829" r="2.5"/>
        <circle cx="819.9475954865942" cy="216.36237406419286" r="2.5"/>
        <circle cx="825.4508497187473" cy="225.1718734338053" r="2.5"/>
        <circle cx="832.0874731610807" cy="233.4056367723427" r="2.5"/>
        <circle cx="839.8045504095551" cy="240.956941291669" r="2.5"/>
        <circle cx="848.5402939281372" cy="247.7235820225567" r="2.5"/>
        <circle cx="858.2244115481097" cy="253.60856091422897" r="2.5"/>
        <circle cx="868.7785252292473" cy="258.52074705654235" r="2.0206672185931327e-15"/>
        <circle cx="905.0" cy="177.61904761904762" r="0.0"/>
        <circle cx="905.6279051952931" cy="187.59931490333034" r="2.5"/>
        <circle cx="907.5066646712861" cy="197.46134164533717" r="2.5"/>
        <circle cx="910.6214394375718" cy="207.08766514090829" r="2.5"/>
        <circle cx="914.9475954865942" cy="216.36237406419286" r="2.5"/>
        <circle cx="920.4508497187473" cy="225.1718734338053" r="2.5"/>
        <circle cx="927.0874731610807" cy="233.4056367723427" r="2.5"/>
        <circle cx="934.8045504095551" cy="240.956941291669" r="2.5"/>
        <circle cx="943.5402939281372" cy="247.7235820225567" r="2.5"/>
        <circle cx="953.2244115481097" cy="253.60856091422897" r="2.5"/>
        <circle cx="963.7785252292473" cy="258.52074705654235" r="2.7554552980815448e-15"/>
        <circle cx="50.0" cy="305.23809523809524" r="0.0"/>
        <circle cx="50.62790519529313" cy="315.21836252237796" r="2.5"/>
        <circle cx="52.50666467128609" cy="325.0803892643848" r="2.5"/>
        <circle cx="55.62143943757174" cy="334.7067127599559" r="2.5"/>
        <circle cx="59.947595486594196" cy="343.98142168324046" r="2.5"/>
        <circle cx="65.45084971874738" cy="352.7909210528529" r="2.5"/>
        <circle cx="72.08747316108068" cy="361.02468439139034" r="2.5"/>
        <circle cx="79.80455040955509" cy="368.5759889107166" r="2.5"/>
        <circle cx="88.54029392813723" cy="375.34262964160433" r="2.5"/>
        <circle cx="98.2244115481097" cy="381.22760853327657" r="2.5"/>
        <circle cx="108.77852522924732" cy="386.13979467559" r="2.0206672185931327e-15"/>
        <circle cx="145.0" cy="305.23809523809524" r="0.0"/>
        <circle cx="145.62790519529312" cy="315.21836252237796" r="2.3176274578121054"/>
        <circle cx="147.50666467128607" cy="325.0803892643848" r="2.5"/>
        <circle cx="150.62143943757175" cy="334.7067127599559" r="2.5"/>
        <circle cx="154.9475954865942" cy="343.98142168324046" r="2.5"/>
        <circle cx="160.45084971874738" cy="352.7909210528529" r="2.5"/>
        <circle cx="167.08747316108068" cy="361.02468439139034" r="2.5"/>
        <circle cx="174.80455040955508" cy="368.5759889107166" r="2.5"/>
        <circle cx="183.54029392813723" cy="375.34262964160433" r="2.5"/>
        <circle cx="193.22441154810969" cy="381.22760853327657" r="2.3176274578121063"/>
        <circle cx="203.77852522924732" cy="386.13979467559" r="9.18485099360515e-16"/>
        <circle cx="240.0" cy="305.23809523809524" r="0.0"/>
        <circle cx="240.62790519529312" cy="315.21836252237796" r="2.5"/>
        <circle cx="242.50666467128607" cy="325.0803892643848" r="2.5"/>
        <circle cx="245.62143943757175" cy="334.7067127599559" r="2.5"/>
        <circle cx="249.9475954865942" cy="343.98142168324046" r="2.5"/>
        <circle cx="255.45084971874738" cy="352.7909210528529" r="2.5"/>
        <circle cx="262.08747316108065" cy="361.02468439139034" r="2.5"/>
        <circle cx="269.8045504095551" cy="368.5759889107166" r="2.5"/>
        <circle cx="278.5402939281372" cy="375.34262964160433" r="2.5"/>
        <circle cx="288.2244115481097" cy="381.22760853327657" r="2.5"/>
        <circle cx="298.7785252292473" cy="386.13979467559" r="2.326828918379971e-15"/>
        <circle cx="335.0" cy="305.23809523809524" r="0.0"/>
        <circle cx="335.6279051952931" cy="315.21836252237796" r="2.5"/>
        <circle cx="337.5066646712861" cy="325.0803892643848" r="2.5"/>
        <circle cx="340.6214394375717" cy="334.7067127599559" r="2.5"/>
        <circle cx="344.9475954865942" cy="343.98142168324046" r="2.5"/>
        <circle cx="350.45084971874735" cy="352.7909210528529" r="2.5"/>
        <circle cx="357.08747316108065" cy="361.02468439139034" r="2.5"/>
        <circle cx="364.8045504095551" cy="368.5759889107166" r="2.5"/>
        <circle cx="373.5402939281372" cy="375.34262964160433" r="2.5"/>
        <circle cx="383.2244115481097" cy="381.22760853327657" r="2.5"/>
        <circle cx="393.7785252292473" cy="386.13979467559" r="2.5717582782094417e-15"/>
        <circle cx="430.0" cy="305.23809523809524" r="0.0"/>
        <circle cx="430.6279051952931" cy="315.21836252237796" r="2.472135954999579"/>
        <circle cx="432.5066646712861" cy="325.0803892643848" r="2.5"/>
        <circle cx="435.6214394375717" cy="334.7067127599559" r="2.5"/>
        <circle cx="439.9475954865942" cy="343.98142168324046" r="2.5"/>
        <circle cx="445.45084971874735" cy="352.7909210528529" r="2.5"/>
        <circle cx="452.08747316108065" cy="361.02468439139034" r="2.5"/>
        <circle cx="459.8045504095551" cy="368.5759889107166" r="2.5"/>
        <circle cx="468.5402939281372" cy="375.34262964160433" r="2.5"/>
        <circle cx="478.2244115481097" cy="381.22760853327657" r="2.47213595499958"/>
        <circle cx="488.7785252292473" cy="386.13979467559" r="9.797174393178826e-16"/>
        <circle cx="525.0" cy="305.23809523809524" r="0.0"/>
        <circle cx="525.6279051952931" cy="315.21836252237796" r="2.5"/>
        <circle cx="527.5066646712861" cy="325.0803892643848" r="2.5"/>
        <circle cx="530.6214394375718" cy="334.7067127599559" r="2.5"/>
        <circle cx="534.9475954865942" cy="343.98142168324046" r="2.5"/>
        <circle cx="540.4508497187473" cy="352.7909210528529" r="2.5"/>
        <circle cx="547.0874731610807" cy="361.02468439139034" r="2.5"/>
        <circle cx="554.8045504095551" cy="368.5759889107166" r="2.5"/>
        <circle cx="563.5402939281372" cy="375.34262964160433" r="2.5"/>
        <circle cx="573.2244115481097" cy="381.22760853327657" r="2.5"/>
        <circle cx="583.7785252292473" cy="386.13979467559" r="1.2246467991473533e-15"/>
        <circle cx="620.0" cy="305.23809523809524" r="0.0"/>
        <circle cx="620.6279051952931" cy="315.21836252237796" r="2.5"/>
        <circle cx="622.5066646712861" cy="325.0803892643848" r="2.5"/>
        <circle cx="625.6214394375718" cy="334.7067127599559" r="2.5"/>
        <circle cx="629.9475954865942" cy="343.98142168324046" r="2.5"/>
        <circle cx="635.4508497187473" cy="352.7909210528529" r="2.5"/>
        <circle cx="642.0874731610807" cy="361.02468439139034" r="2.5"/>
        <circle cx="649.8045504095551" cy="368.5759889107166" r="2.5"/>
        <circle cx="658.5402939281372" cy="375.34262964160433" r="2.5"/>
        <circle cx="668.2244115481097" cy="381.22760853327657" r="2.5"/>
        <circle cx="678.7785252292473" cy="386.13979467559" r="2.6329906181668092e-15"/>
        <circle cx="715.0" cy="305.23809523809524" r="0.0"/>
        <circle cx="715.6279051952931" cy="315.21836252237796" r="2.5"/>
        <circle cx="717.5066646712861" cy="325.0803892643848" r="2.5"/>
        <circle cx="720.6214394375718" cy="334.7067127599559" r="2.5"/>
        <circle cx="724.9475954865942" cy="343.98142168324046" r="2.5"/>
        <circle cx="730.4508497187473" cy="352.7909210528529" r="2.5"/>
        <circle cx="737.0874731610807" cy="361.02468439139034" r="2.5"/>
        <circle cx="744.8045504095551" cy="368.5759889107166" r="2.5"/>
        <circle cx="753.5402939281372" cy="375.34262964160433" r="2.5"/>
        <circle cx="763.2244115481097" cy="381.22760853327657" r="2.5"/>
        <circle cx="773.7785252292473" cy="386.13979467559" r="2.1431318985078682e-15"/>
        <circle cx="810.0" cy="305.23809523809524" r="0.0"/>
        <circle cx="810.6279051952931" cy="315.21836252237796" r="2.5"/>
        <circle cx="812.5066646712861" cy="325.0803892643848" r="2.5"/>
        <circle cx="815.6214394375718" cy="334.7067127599559" r="2.5"/>
        <circle cx="819.9475954865942" cy="343.98142168324046" r="2.5"/>
        <circle cx="825.4508497187473" cy="352.7909210528529" r="2.5"/>
        <circle cx="832.0874731610807" cy="361.02468439139034" r="2.5"/>
        <circle cx="839.8045504095551" cy="368.5759889107166" r="2.5"/>
        <circle cx="848.5402939281372" cy="375.34262964160433" r="2.5"/>
        <circle cx="858.2244115481097" cy="381.22760853327657" r="2.5"/>
        <circle cx="868.7785252292473" cy="386.13979467559" r="2.0206672185931327e-15"/>
        <circle cx="905.0" cy="305.23809523809524" r="0.0"/>
        <circle cx="905.6279051952931" cy="315.21836252237796" r="2.5"/>
        <circle cx="907.5066646712861" cy="325.0803892643848" r="2.5"/>
        <circle cx="910.6214394375718" cy="334.7067127599559" r="2.5"/>
        <circle cx="914.9475954865942" cy="343.98142168324046" r="2.5"/>
        <circle cx="920.4508497187473" cy="352.7909210528529" r="2.5"/>
        <circle cx="927.0874731610807" cy="361.02468439139034" r="2.5"/>
        <circle cx="934.8045504095551" cy="368.5759889107166" r="2.5"/>
        <circle cx="943.5402939281372" cy="375.34262964160433" r="2.5"/>
        <circle cx="953.2244115481097" cy="381.22760853327657" r="2.5"/>
        <circle cx="963.7785252292473" cy="386.13979467559" r="2.510525938252074e-15"/>
        <circle cx="50.0" cy="432.8571428571429" r="0.0"/>
        <circle cx="50.62790519529313" cy="442.8374101414256" r="1.6995934690622108"/>
        <circle cx="52.50666467128609" cy="452.69943688343244" r="2.5"/>
        <circle cx="55.62143943757174" cy="462.32576037900355" r="2.5"/>
        <circle cx="59.947595486594196" cy="471.60046930228816" r="2.5"/>
        <circle cx="65.45084971874738" cy="480.4099686719006" r="2.5"/>
        <circle cx="72.08747316108068" cy="488.643732010438" r="2.5"/>
        <circle cx="79.80455040955509" cy="496.19503652976425" r="2.5"/>
        <circle cx="88.54029392813723" cy="502.961677260652" r="2.5"/>
        <circle cx="98.2244115481097" cy="508.8466561523243" r="1.6995934690622112"/>
        <circle cx="108.77852522924732" cy="513.7588422946376" r="6.735557395310443e-16"/>
        <circle cx="145.0" cy="432.8571428571429" r="0.0"/>
        <circle cx="145.62790519529312" cy="442.8374101414256" r="2.5"/>
        <circle cx="147.50666467128607" cy="452.69943688343244" r="2.5"/>
        <circle cx="150.62143943757175" cy="462.32576037900355" r="2.5"/>
        <circle cx="154.9475954865942" cy="471.60046930228816" r="2.5"/>
        <circle cx="160.45084971874738" cy="480.4099686719006" r="2.5"/>
        <circle cx="167.08747316108068" cy="488.643732010438" r="2.5"/>
        <circle cx="174.80455040955508" cy="496.19503652976425" r="2.5"/>
        <circle cx="183.54029392813723" cy="502.961677260652" r="2.5"/>
        <circle cx="193.22441154810969" cy="508.8466561523243" r="2.5"/>
        <circle cx="203.77852522924732" cy="513.7588422946376" r="2.4492935982947065e-15"/>
        <circle cx="240.0" cy="432.8571428571429" r="0.0"/>
        <circle cx="240.62790519529312" cy="442.8374101414256" r="1.8541019662496843"/>
        <circle cx="242.50666467128607" cy="452.69943688343244" r="2.5"/>
        <circle cx="245.62143943757175" cy="462.32576037900355" r="2.5"/>
        <circle cx="249.9475954865942" cy="471.60046930228816" r="2.5"/>
        <circle cx="255.45084971874738" cy="480.4099686719006" r="2.5"/>
        <circle cx="262.08747316108065" cy="488.643732010438" r="2.5"/>
        <circle cx="269.8045504095551" cy="496.19503652976425" r="2.5"/>
        <circle cx="278.5402939281372" cy="502.961677260652" r="2.5"/>
        <circle cx="288.2244115481097" cy="508.8466561523243" r="1.8541019662496852"/>
        <circle cx="298.7785252292473" cy="513.7588422946376" r="7.347880794884119e-16"/>
        <circle cx="335.0" cy="432.8571428571429" r="0.0"/>
        <circle cx="335.6279051952931" cy="442.8374101414256" r="2.5"/>
        <circle cx="337.5066646712861" cy="452.69943688343244" r="2.5"/>
        <circle cx="340.6214394375717" cy="462.32576037900355" r="2.5"/>
        <circle cx="344.9475954865942" cy="471.60046930228816" r="2.5"/>
        <circle cx="350.45084971874735" cy="480.4099686719006" r="2.5"/>
        <circle cx="357.08747316108065" cy="488.643732010438" r="2.5"/>
        <circle cx="364.8045504095551" cy="496.19503652976425" r="2.5"/>
        <circle cx="373.5402939281372" cy="502.961677260652" r="2.5"/>
        <circle cx="383.2244115481097" cy="508.8466561523243" r="2.5"/>
        <circle cx="393.7785252292473" cy="513.7588422946376" r="1.7757378587636622e-15"/>
        <circle cx="430.0" cy="432.8571428571429" r="0.0"/>
        <circle cx="430.6279051952931" cy="442.8374101414256" r="2.5"/>
        <circle cx="432.5066646712861" cy="452.69943688343244" r="2.5"/>
        <circle cx="435.6214394375717" cy="462.32576037900355" r="2.5"/>
        <circle cx="439.9475954865942" cy="471.60046930228816" r="2.5"/>
        <circle cx="445.45084971874735" cy="480.4099686719006" r="2.5"/>
        <circle cx="452.08747316108065" cy="488.643732010438" r="2.5"/>
        <circle cx="459.8045504095551" cy="496.19503652976425" r="2.5"/>
        <circle cx="468.5402939281372" cy="502.961677260652" r="2.5"/>
        <circle cx="478.2244115481097" cy="508.8466561523243" r="2.5"/>
        <circle cx="488.7785252292473" cy="513.7588422946376" r="3.0003846579110155e-15"/>
        <circle cx="525.0" cy="432.8571428571429" r="0.0"/>
        <circle cx="525.6279051952931" cy="442.8374101414256" r="2.5"/>
        <circle cx="527.5066646712861" cy="452.69943688343244" r="2.5"/>
        <circle cx="530.6214394375718" cy="462.32576037900355" r="2.5"/>
        <circle cx="534.9475954865942" cy="471.60046930228816" r="2.5"/>
        <circle cx="540.4508497187473" cy="480.4099686719006" r="2.5"/>
        <circle cx="547.0874731610807" cy="488.643732010438" r="2.5"/>
        <circle cx="554.8045504095551" cy="496.19503652976425" r="2.5"/>
        <circle cx="563.5402939281372" cy="502.961677260652" r="2.5"/>
        <circle cx="573.2244115481097" cy="508.8466561523243" r="2.5"/>
        <circle cx="583.7785252292473" cy="513.7588422946376" r="2.87791997799628e-15"/>
        <circle cx="620.0" cy="432.8571428571429" r="0.0"/>
        <circle cx="620.6279051952931" cy="442.8374101414256" r="2.5"/>
        <circle cx="622.5066646712861" cy="452.69943688343244" r="2.5"/>
        <circle cx="625.6214394375718" cy="462.32576037900355" r="2.5"/>
        <circle cx="629.9475954865942" cy="471.60046930228816" r="2.5"/>
        <circle cx="635.4508497187473" cy="480.4099686719006" r="2.5"/>
        <circle cx="642.0874731610807" cy="488.643732010438" r="2.5"/>
        <circle cx="649.8045504095551" cy="496.19503652976425" r="2.5"/>
        <circle cx="658.5402939281372" cy="502.961677260652" r="2.5"/>
        <circle cx="668.2244115481097" cy="508.8466561523243" r="2.5"/>
        <circle cx="678.7785252292473" cy="513.7588422946376" r="2.87791997799628e-15"/>
        <circle cx="715.0" cy="432.8571428571429" r="0.0"/>
        <circle cx="715.6279051952931" cy="442.8374101414256" r="2.5"/>
        <circle cx="717.5066646712861" cy="452.69943688343244" r="2.5"/>
        <circle cx="720.6214394375718" cy="462.32576037900355" r="2.5"/>
        <circle cx="724.9475954865942" cy="471.60046930228816" r="2.5"/>
        <circle cx="730.4508497187473" cy="480.4099686719006" r="2.5"/>
        <circle cx="737.0874731610807" cy="488.643732010438" r="2.5"/>
        <circle cx="744.8045504095551" cy="496.19503652976425" r="2.5"/>
        <circle cx="753.5402939281372" cy="502.961677260652" r="2.5"/>
        <circle cx="763.2244115481097" cy="508.8466561523243" r="2.5"/>
        <circle cx="773.7785252292473" cy="513.7588422946376" r="2.1431318985078682e-15"/>
        <circle cx="810.0" cy="432.8571428571429" r="0.0"/>
        <circle cx="810.6279051952931" cy="442.8374101414256" r="2.5"/>
        <circle cx="812.5066646712861" cy="452.69943688343244" r="2.5"/>
        <circle cx="815.6214394375718" cy="462.32576037900355" r="2.5"/>
        <circle cx="819.9475954865942" cy="471.60046930228816" r="2.5"/>
        <circle cx="825.4508497187473" cy="480.4099686719006" r="2.5"/>
        <circle cx="832.0874731610807" cy="488.643732010438" r="2.5"/>
        <circle cx="839.8045504095551" cy="496.19503652976425" r="2.5"/>
        <circle cx="848.5402939281372" cy="502.961677260652" r="2.5"/>
        <circle cx="858.2244115481097" cy="508.8466561523243" r="2.5"/>
        <circle cx="868.7785252292473" cy="513.7588422946376" r="1.2246467991473533e-15"/>
        <circle cx="905.0" cy="432.8571428571429" r="0.0"/>
        <circle cx="905.6279051952931" cy="442.8374101414256" r="2.5"/>
        <circle cx="907.5066646712861" cy="452.69943688343244" r="2.5"/>
        <circle cx="910.6214394375718" cy="462.32576037900355" r="2.5"/>
        <circle cx="914.9475954865942" cy="471.60046930228816" r="2.5"/>
        <circle cx="920.4508497187473" cy="480.4099686719006" r="2.5"/>
        <circle cx="927.0874731610807" cy="488.643732010438" r="2.5"/>
        <circle cx="934.8045504095551" cy="496.19503652976425" r="2.5"/>
        <circle cx="943.5402939281372" cy="502.961677260652" r="2.5"/>
        <circle cx="953.2244115481097" cy="508.8466561523243" r="2.5"/>
        <circle cx="963.7785252292473" cy="513.7588422946376" r="1.2246467991473533e-15"/>
        <circle cx="50.0" cy="560.4761904761905" r="0.0"/>
        <circle cx="50.62790519529313" cy="570.4564577604732" r="2.5"/>
        <circle cx="52.50666467128609" cy="580.31848450248" r="2.5"/>
        <circle cx="55.62143943757174" cy="589.9448079980511" r="2.5"/>
        <circle cx="59.947595486594196" cy="599.2195169213358" r="2.5"/>
        <circle cx="65.45084971874738" cy="608.0290162909481" r="2.5"/>
        <circle cx="72.08747316108068" cy="616.2627796294855" r="2.5"/>
        <circle cx="79.80455040955509" cy="623.8140841488118" r="2.5"/>
        <circle cx="88.54029392813723" cy="630.5807248796996" r="2.5"/>
        <circle cx="98.2244115481097" cy="636.4657037713719" r="2.5"/>
        <circle cx="108.77852522924732" cy="641.3778899136852" r="2.5717582782094417e-15"/>
        <circle cx="145.0" cy="560.4761904761905" r="0.0"/>
        <circle cx="145.62790519529312" cy="570.4564577604732" r="2.5"/>
        <circle cx="147.50666467128607" cy="580.31848450248" r="2.5"/>
        <circle cx="150.62143943757175" cy="589.9448079980511" r="2.5"/>
        <circle cx="154.9475954865942" cy="599.2195169213358" r="2.5"/>
        <circle cx="160.45084971874738" cy="608.0290162909481" r="2.5"/>
        <circle cx="167.08747316108068" cy="616.2627796294855" r="2.5"/>
        <circle cx="174.80455040955508" cy="623.8140841488118" r="2.5"/>
        <circle cx="183.54029392813723" cy="630.5807248796996" r="2.5"/>
        <circle cx="193.22441154810969" cy="636.4657037713719" r="2.5"/>
        <circle cx="203.77852522924732" cy="641.3778899136852" r="1.4695761589768238e-15"/>
        <circle cx="240.0" cy="560.4761904761905" r="0.0"/>
        <circle cx="240.62790519529312" cy="570.4564577604732" r="1.545084971874737"/>
        <circle cx="242.50666467128607" cy="580.31848450248" r="2.5"/>
        <circle cx="245.62143943757175" cy="589.9448079980511" r="2.5"/>
        <circle cx="249.9475954865942" cy="599.2195169213358" r="2.5"/>
        <circle cx="255.45084971874738" cy="608.0290162909481" r="2.5"/>
        <circle cx="262.08747316108065" cy="616.2627796294855" r="2.5"/>
        <circle cx="269.8045504095551" cy="623.8140841488118" r="2.5"/>
        <circle cx="278.5402939281372" cy="630.5807248796996" r="2.5"/>
        <circle cx="288.2244115481097" cy="636.4657037713719" r="1.5450849718747375"/>
        <circle cx="298.7785252292473" cy="641.3778899136852" r="6.123233995736766e-16"/>
        <circle cx="335.0" cy="560.4761904761905" r="0.0"/>
        <circle cx="335.6279051952931" cy="570.4564577604732" r="2.5"/>
        <circle cx="337.5066646712861" cy="580.31848450248" r="2.5"/>
        <circle cx="340.6214394375717" cy="589.9448079980511" r="2.5"/>
        <circle cx="344.9475954865942" cy="599.2195169213358" r="2.5"/>
        <circle cx="350.45084971874735" cy="608.0290162909481" r="2.5"/>
        <circle cx="357.08747316108065" cy="616.2627796294855" r="2.5"/>
        <circle cx="364.8045504095551" cy="623.8140841488118" r="2.5"/>
        <circle cx="373.5402939281372" cy="630.5807248796996" r="2.5"/>
        <circle cx="383.2244115481097" cy="636.4657037713719" r="2.5"/>
        <circle cx="393.7785252292473" cy="641.3778899136852" r="1.3471114790620886e-15"/>
        <circle cx="430.0" cy="560.4761904761905" r="0.0"/>
        <circle cx="430.6279051952931" cy="570.4564577604732" r="2.5"/>
        <circle cx="432.5066646712861" cy="580.31848450248" r="2.5"/>
        <circle cx="435.6214394375717" cy="589.9448079980511" r="2.5"/>
        <circle cx="439.9475954865942" cy="599.2195169213358" r="2.5"/>
        <circle cx="445.45084971874735" cy="608.0290162909481" r="2.5"/>
        <circle cx="452.08747316108065" cy="616.2627796294855" r="2.5"/>
        <circle cx="459.8045504095551" cy="623.8140841488118" r="2.5"/>
        <circle cx="468.5402939281372" cy="630.5807248796996" r="2.5"/>
        <circle cx="478.2244115481097" cy="636.4657037713719" r="2.5"/>
        <circle cx="488.7785252292473" cy="641.3778899136852" r="2.6942229581241772e-15"/>
        <circle cx="525.0" cy="560.4761904761905" r="0.0"/>
        <circle cx="525.6279051952931" cy="570.4564577604732" r="2.5"/>
        <circle cx="527.5066646712861" cy="580.31848450248" r="2.5"/>
        <circle cx="530.6214394375718" cy="589.9448079980511" r="2.5"/>
        <circle cx="534.9475954865942" cy="599.2195169213358" r="2.5"/>
        <circle cx="540.4508497187473" cy="608.0290162909481" r="2.5"/>
        <circle cx="547.0874731610807" cy="616.2627796294855" r="2.5"/>
        <circle cx="554.8045504095551" cy="623.8140841488118" r="2.5"/>
        <circle cx="563.5402939281372" cy="630.5807248796996" r="2.5"/>
        <circle cx="573.2244115481097" cy="636.4657037713719" r="2.5"/>
        <circle cx="583.7785252292473" cy="641.3778899136852" r="2.7554552980815448e-15"/>
        <circle cx="620.0" cy="560.4761904761905" r="0.0"/>
        <circle cx="620.6279051952931" cy="570.4564577604732" r="2.5"/>
        <circle cx="622.5066646712861" cy="580.31848450248" r="2.5"/>
        <circle cx="625.6214394375718" cy="589.9448079980511" r="2.5"/>
        <circle cx="629.9475954865942" cy="599.2195169213358" r="2.5"/>
        <circle cx="635.4508497187473" cy="608.0290162909481" r="2.5"/>
        <circle cx="642.0874731610807" cy="616.2627796294855" r="2.5"/>
        <circle cx="649.8045504095551" cy="623.8140841488118" r="2.5"/>
        <circle cx="658.5402939281372" cy="630.5807248796996" r="2.5"/>
        <circle cx="668.2244115481097" cy="636.4657037713719" r="2.5"/>
        <circle cx="678.7785252292473" cy="641.3778899136852" r="1.4695761589768238e-15"/>
        <circle cx="715.0" cy="560.4761904761905" r="0.0"/>
        <circle cx="715.6279051952931" cy="570.4564577604732" r="2.5"/>
        <circle cx="717.5066646712861" cy="580.31848450248" r="2.5"/>
        <circle cx="720.6214394375718" cy="589.9448079980511" r="2.5"/>
        <circle cx="724.9475954865942" cy="599.2195169213358" r="2.5"/>
        <circle cx="730.4508497187473" cy="608.0290162909481" r="2.5"/>
        <circle cx="737.0874731610807" cy="616.2627796294855" r="2.5"/>
        <circle cx="744.8045504095551" cy="623.8140841488118" r="2.5"/>
        <circle cx="753.5402939281372" cy="630.5807248796996" r="2.5"/>
        <circle cx="763.2244115481097" cy="636.4657037713719" r="2.5"/>
        <circle cx="773.7785252292473" cy="641.3778899136852" r="2.1431318985078682e-15"/>
        <circle cx="810.0" cy="560.4761904761905" r="0.0"/>
        <circle cx="810.6279051952931" cy="570.4564577604732" r="2.5"/>
        <circle cx="812.5066646712861" cy="580.31848450248" r="2.5"/>
        <circle cx="815.6214394375718" cy="589.9448079980511" r="2.5"/>
        <circle cx="819.9475954865942" cy="599.2195169213358" r="2.5"/>
        <circle cx="825.4508497187473" cy="608.0290162909481" r="2.5"/>
        <circle cx="832.0874731610807" cy="616.2627796294855" r="2.5"/>
        <circle cx="839.8045504095551" cy="623.8140841488118" r="2.5"/>
        <circle cx="848.5402939281372" cy="630.5807248796996" r="2.5"/>
        <circle cx="858.2244115481097" cy="636.4657037713719" r="2.5"/>
        <circle cx="868.7785252292473" cy="641.3778899136852" r="2.5717582782094417e-15"/>
        <circle cx="905.0" cy="560.4761904761905" r="0.0"/>
        <circle cx="905.6279051952931" cy="570.4564577604732" r="2.5"/>
        <circle cx="907.5066646712861" cy="580.31848450248" r="2.5"/>
        <circle cx="910.6214394375718" cy="589.9448079980511" r="2.5"/>
        <circle cx="914.9475954865942" cy="599.2195169213358" r="2.5"/>
        <circle cx="920.4508497187473" cy="608.0290162909481" r="2.5"/>
        <circle cx="927.0874731610807" cy="616.2627796294855" r="2.5"/>
        <circle cx="934.8045504095551" cy="623.8140841488118" r="2.5"/>
        <circle cx="943.5402939281372" cy="630.5807248796996" r="2.5"/>
        <circle cx="953.2244115481097" cy="636.4657037713719" r="2.5"/>
        <circle cx="963.7785252292473" cy="641.3778899136852" r="1.959434878635765e-15"/>
      </g>
    </g>
  </g>
</svg>
