<svg version="1.1" width="1150" height="870" xmlns="http://www.w3.org/2000/svg">
  <!-- Seed: 5109166267725026889 -->
  <!-- Size: SvgSize.Size9x12 -->
  <!-- Params:
    draw: True
    padding: 0
    spacing: 5
    points_per_step_ring: 50
    bump_range: [RangeFloat] min: 0 max: 0.1
    bump_mult: [RangeInt] min: 2 max: 20
  -->
  <g stroke="black" fill="none">
    <path d="M575.0 435.5Q575.0 436.0 575.0 436.5Q575.0 437.0 574.5 436.5Q574.0 436.0 573.5 436.0Q573.0 436.0 572.5 436.0Q572.0 436.0 572.0 435.5Q572.0 435.0 572.0 434.5Q572.0 434.0 572.5 434.0Q573.0 434.0 573.0 433.5Q573.0 433.0 573.0 432.5Q573.0 432.0 573.5 431.5Q574.0 431.0 574.0 430.5Q574.0 430.0 574.5 430.0Q575.0 430.0 575.5 430.5Q576.0 431.0 576.0 431.5Q576.0 432.0 576.5 432.5Q577.0 433.0 577.5 433.0Q578.0 433.0 578.5 433.0Q579.0 433.0 579.5 433.0Q580.0 433.0 580.5 433.0Q581.0 433.0 581.0 433.5Q581.0 434.0 581.0 434.5Q581.0 435.0 581.0 435.5Q581.0 436.0 580.5 436.0Q580.0 436.0 579.5 436.5Q579.0 437.0 578.5 437.0Q578.0 437.0 578.0 437.5Q578.0 438.0 578.0 438.5Q578.0 439.0 578.0 439.5Q578.0 440.0 578.0 440.5Q578.0 441.0 577.5 441.5Q577.0 442.0 577.0 442.5Q577.0 443.0 576.5 443.0Q576.0 443.0 575.5 443.0Q575.0 443.0 574.5 442.5Q574.0 442.0 573.5 441.5Q573.0 441.0 573.0 440.5Q573.0 440.0 573.0 439.5Q573.0 439.0 572.5 439.0Q572.0 439.0 571.5 439.0Q571.0 439.0 570.5 439.0Q570.0 439.0 569.0 439.0Q568.0 439.0 567.5 438.5Q567.0 438.0 566.5 437.5Q566.0 437.0 565.5 436.5Q565.0 436.0 565.5 435.5Q566.0 435.0 566.0 434.5Q566.0 434.0 567.0 433.5Q568.0 433.0 568.5 433.0Q569.0 433.0 569.5 432.5Q570.0 432.0 570.5 432.0Q571.0 432.0 571.0 431.5Q571.0 431.0 571.0 430.5Q571.0 430.0 571.0 429.0Q571.0 428.0 571.0 427.0Q571.0 426.0 571.5 425.5Q572.0 425.0 572.5 424.5Q573.0 424.0 573.5 424.0Q574.0 424.0 575.0 424.0Q576.0 424.0 576.5 425.0Q577.0 426.0 577.5 426.5Q578.0 427.0 578.0 428.0Q578.0 429.0 578.0 429.5Q578.0 430.0 578.5 430.0Q579.0 430.0 579.5 430.0Q580.0 430.0 581.0 430.0Q582.0 430.0 583.0 430.0Q584.0 430.0 585.0 430.5Q586.0 431.0 586.5 431.5Q587.0 432.0 587.5 432.5Q588.0 433.0 588.0 434.0Q588.0 435.0 587.0 435.5Q586.0 436.0 585.5 436.5Q585.0 437.0 584.0 437.5Q583.0 438.0 582.5 438.5Q582.0 439.0 581.5 439.0Q581.0 439.0 581.0 439.5Q581.0 440.0 581.0 441.0Q581.0 442.0 581.0 443.0Q581.0 444.0 580.5 445.0Q580.0 446.0 579.5 447.0Q579.0 448.0 578.5 448.5Q578.0 449.0 577.0 449.5Q576.0 450.0 575.0 449.5Q574.0 449.0 573.5 448.0Q573.0 447.0 572.5 446.0Q572.0 445.0 571.5 444.0Q571.0 443.0 571.0 442.5Q571.0 442.0 570.5 441.5Q570.0 441.0 569.0 441.0Q568.0 441.0 567.0 441.0Q566.0 441.0 565.0 441.0Q564.0 441.0 562.5 440.5Q561.0 440.0 560.0 439.5Q559.0 439.0 559.0 438.0Q559.0 437.0 559.0 436.0Q559.0 435.0 560.0 434.0Q561.0 433.0 562.0 432.5Q563.0 432.0 564.0 431.5Q565.0 431.0 566.0 431.0Q567.0 431.0 567.5 430.5Q568.0 430.0 568.0 429.5Q568.0 429.0 568.0 428.0Q568.0 427.0 568.0 425.5Q568.0 424.0 568.5 422.5Q569.0 421.0 569.5 420.0Q570.0 419.0 571.0 418.0Q572.0 417.0 573.0 417.0Q574.0 417.0 575.0 417.5Q576.0 418.0 577.0 419.0Q578.0 420.0 578.5 421.5Q579.0 423.0 579.5 424.0Q580.0 425.0 580.0 426.0Q580.0 427.0 580.5 427.0Q581.0 427.0 582.0 427.5Q583.0 428.0 584.5 427.5Q586.0 427.0 587.5 427.5Q589.0 428.0 590.0 428.0Q591.0 428.0 592.5 429.0Q594.0 430.0 594.5 431.5Q595.0 433.0 594.5 434.0Q594.0 435.0 593.0 436.0Q592.0 437.0 590.5 438.0Q589.0 439.0 588.0 439.5Q587.0 440.0 586.0 440.0Q585.0 440.0 584.0 440.5Q583.0 441.0 583.0 442.0Q583.0 443.0 583.0 444.0Q583.0 445.0 583.0 446.5Q583.0 448.0 583.0 449.5Q583.0 451.0 582.0 452.5Q581.0 454.0 580.0 455.0Q579.0 456.0 577.5 456.0Q576.0 456.0 575.0 455.5Q574.0 455.0 573.0 453.5Q572.0 452.0 571.0 450.5Q570.0 449.0 570.0 447.5Q570.0 446.0 569.5 445.5Q569.0 445.0 568.5 444.5Q568.0 444.0 567.0 444.0Q566.0 444.0 564.5 444.0Q563.0 444.0 561.0 444.0Q559.0 444.0 557.5 443.5Q556.0 443.0 554.5 442.0Q553.0 441.0 552.5 439.5Q552.0 438.0 552.5 436.5Q553.0 435.0 554.0 433.5Q555.0 432.0 556.5 431.5Q558.0 431.0 559.5 430.5Q561.0 430.0 562.5 429.5Q564.0 429.0 564.5 428.5Q565.0 428.0 565.5 427.0Q566.0 426.0 565.5 424.5Q565.0 423.0 565.0 421.5Q565.0 420.0 565.5 418.0Q566.0 416.0 567.0 414.5Q568.0 413.0 569.0 412.0Q570.0 411.0 571.5 411.0Q573.0 411.0 574.5 411.5Q576.0 412.0 577.5 413.5Q579.0 415.0 579.5 417.0Q580.0 419.0 580.5 420.5Q581.0 422.0 581.5 423.0Q582.0 424.0 582.5 424.5Q583.0 425.0 584.5 425.0Q586.0 425.0 587.5 425.0Q589.0 425.0 591.0 425.0Q593.0 425.0 595.0 425.5Q597.0 426.0 598.5 427.5Q600.0 429.0 600.5 430.5Q601.0 432.0 600.5 433.5Q600.0 435.0 599.0 436.5Q598.0 438.0 596.0 439.0Q594.0 440.0 592.5 440.5Q591.0 441.0 589.5 441.5Q588.0 442.0 587.0 442.5Q586.0 443.0 586.0 444.0Q586.0 445.0 586.0 446.5Q586.0 448.0 586.0 450.0Q586.0 452.0 585.5 454.0Q585.0 456.0 584.0 458.0Q583.0 460.0 581.5 461.0Q580.0 462.0 578.5 462.5Q577.0 463.0 575.0 462.0Q573.0 461.0 572.0 459.0Q571.0 457.0 570.0 455.0Q569.0 453.0 568.5 451.5Q568.0 450.0 567.5 449.0Q567.0 448.0 566.5 447.0Q566.0 446.0 564.5 446.0Q563.0 446.0 561.0 446.5Q559.0 447.0 557.0 446.5Q555.0 446.0 552.5 445.5Q550.0 445.0 548.5 443.5Q547.0 442.0 546.5 440.5Q546.0 439.0 546.5 437.0Q547.0 435.0 548.0 433.5Q549.0 432.0 551.0 430.5Q553.0 429.0 555.0 428.5Q557.0 428.0 559.0 427.5Q561.0 427.0 561.5 426.5Q562.0 426.0 562.5 425.0Q563.0 424.0 563.0 422.0Q563.0 420.0 563.0 418.0Q563.0 416.0 563.5 413.5Q564.0 411.0 565.0 409.0Q566.0 407.0 567.5 405.5Q569.0 404.0 571.0 404.0Q573.0 404.0 575.0 405.0Q577.0 406.0 578.5 408.0Q580.0 410.0 581.0 412.0Q582.0 414.0 582.5 416.0Q583.0 418.0 583.5 419.5Q584.0 421.0 585.0 421.5Q586.0 422.0 587.5 422.0Q589.0 422.0 591.0 422.0Q593.0 422.0 595.5 422.0Q598.0 422.0 600.5 423.0Q603.0 424.0 604.5 425.5Q606.0 427.0 607.0 429.0Q608.0 431.0 607.5 433.0Q607.0 435.0 605.0 437.0Q603.0 439.0 601.0 440.0Q599.0 441.0 596.5 442.0Q594.0 443.0 592.5 443.5Q591.0 444.0 590.0 444.5Q589.0 445.0 588.5 446.0Q588.0 447.0 588.0 449.0Q588.0 451.0 588.5 453.5Q589.0 456.0 588.5 459.0Q588.0 462.0 586.5 464.0Q585.0 466.0 583.0 467.5Q581.0 469.0 579.0 469.0Q577.0 469.0 575.0 468.0Q573.0 467.0 571.5 465.0Q570.0 463.0 569.0 460.5Q568.0 458.0 567.0 455.5Q566.0 453.0 565.5 451.5Q565.0 450.0 564.0 449.5Q563.0 449.0 561.5 449.0Q560.0 449.0 557.5 449.0Q555.0 449.0 552.5 449.0Q550.0 449.0 547.5 448.0Q545.0 447.0 543.0 445.5Q541.0 444.0 540.0 442.0Q539.0 440.0 539.5 437.5Q540.0 435.0 542.0 433.0Q544.0 431.0 546.5 429.5Q549.0 428.0 551.5 427.5Q554.0 427.0 556.0 426.0Q558.0 425.0 559.0 424.5Q560.0 424.0 560.0 422.5Q560.0 421.0 560.0 419.0Q560.0 417.0 560.0 414.5Q560.0 412.0 560.5 409.0Q561.0 406.0 562.5 403.5Q564.0 401.0 566.0 399.5Q568.0 398.0 570.5 398.0Q573.0 398.0 575.0 399.0Q577.0 400.0 579.0 402.5Q581.0 405.0 582.0 407.5Q583.0 410.0 583.5 412.5Q584.0 415.0 585.0 416.5Q586.0 418.0 587.0 419.0Q588.0 420.0 589.5 420.0Q591.0 420.0 593.5 419.5Q596.0 419.0 599.0 419.5Q602.0 420.0 605.0 421.0Q608.0 422.0 610.5 423.5Q613.0 425.0 613.5 427.5Q614.0 430.0 613.5 432.5Q613.0 435.0 611.0 437.0Q609.0 439.0 606.5 440.5Q604.0 442.0 601.0 443.0Q598.0 444.0 596.0 444.5Q594.0 445.0 593.0 446.0Q592.0 447.0 591.5 448.5Q591.0 450.0 591.0 452.0Q591.0 454.0 591.0 457.0Q591.0 460.0 590.5 463.5Q590.0 467.0 588.5 469.5Q587.0 472.0 585.0 473.5Q583.0 475.0 580.5 475.5Q578.0 476.0 575.5 474.5Q573.0 473.0 571.0 470.5Q569.0 468.0 567.5 465.0Q566.0 462.0 565.5 459.5Q565.0 457.0 564.0 455.0Q563.0 453.0 562.0 452.5Q561.0 452.0 559.0 452.0Q557.0 452.0 554.5 452.0Q552.0 452.0 548.5 451.5Q545.0 451.0 542.0 450.0Q539.0 449.0 536.5 447.0Q534.0 445.0 533.0 442.5Q532.0 440.0 533.0 437.5Q534.0 435.0 536.0 432.5Q538.0 430.0 541.0 428.5Q544.0 427.0 547.0 426.0Q550.0 425.0 552.0 424.5Q554.0 424.0 555.5 423.0Q557.0 422.0 557.5 420.5Q558.0 419.0 558.0 416.5Q558.0 414.0 558.0 411.0Q558.0 408.0 558.5 404.5Q559.0 401.0 560.5 398.0Q562.0 395.0 564.5 393.0Q567.0 391.0 569.5 391.0Q572.0 391.0 575.0 392.5Q578.0 394.0 580.0 397.0Q582.0 400.0 583.0 403.0Q584.0 406.0 585.0 408.5Q586.0 411.0 587.0 413.0Q588.0 415.0 589.0 416.0Q590.0 417.0 592.0 417.0Q594.0 417.0 597.0 417.0Q600.0 417.0 603.5 417.0Q607.0 417.0 610.5 418.5Q614.0 420.0 616.5 422.0Q619.0 424.0 620.0 426.5Q621.0 429.0 620.0 432.0Q619.0 435.0 617.0 437.5Q615.0 440.0 611.5 442.0Q608.0 444.0 605.0 445.0Q602.0 446.0 599.5 446.5Q597.0 447.0 595.5 448.0Q594.0 449.0 593.5 450.5Q593.0 452.0 593.5 455.0Q594.0 458.0 594.0 461.5Q594.0 465.0 593.0 468.5Q592.0 472.0 590.5 475.0Q589.0 478.0 586.5 480.0Q584.0 482.0 581.0 482.0Q578.0 482.0 575.0 480.5Q572.0 479.0 570.0 476.0Q568.0 473.0 566.5 469.5Q565.0 466.0 564.0 463.0Q563.0 460.0 562.5 458.0Q562.0 456.0 560.5 455.0Q559.0 454.0 557.0 454.0Q555.0 454.0 551.5 454.0Q548.0 454.0 544.5 454.0Q541.0 454.0 537.0 453.0Q533.0 452.0 530.5 449.5Q528.0 447.0 527.0 444.0Q526.0 441.0 527.0 438.0Q528.0 435.0 530.0 432.5Q532.0 430.0 535.5 428.0Q539.0 426.0 542.5 424.5Q546.0 423.0 548.5 422.5Q551.0 422.0 552.5 421.0Q554.0 420.0 554.5 418.0Q555.0 416.0 555.0 413.5Q555.0 411.0 555.0 407.0Q555.0 403.0 555.5 399.5Q556.0 396.0 558.0 392.5Q560.0 389.0 562.5 387.0Q565.0 385.0 568.5 385.0Q572.0 385.0 575.0 386.5Q578.0 388.0 580.5 391.0Q583.0 394.0 584.5 398.0Q586.0 402.0 587.0 405.0Q588.0 408.0 588.5 410.0Q589.0 412.0 590.5 413.0Q592.0 414.0 594.5 414.0Q597.0 414.0 600.5 414.0Q604.0 414.0 608.0 414.5Q612.0 415.0 616.0 416.0Q620.0 417.0 622.5 419.5Q625.0 422.0 626.0 425.0Q627.0 428.0 626.5 431.5Q626.0 435.0 623.0 438.0Q620.0 441.0 616.5 443.0Q613.0 445.0 609.5 446.0Q606.0 447.0 603.0 448.0Q600.0 449.0 598.5 450.0Q597.0 451.0 596.5 453.0Q596.0 455.0 596.0 458.0Q596.0 461.0 596.0 465.0Q596.0 469.0 595.5 473.0Q595.0 477.0 593.0 480.5Q591.0 484.0 588.0 486.0Q585.0 488.0 581.5 488.5Q578.0 489.0 575.0 487.0Q572.0 485.0 569.5 481.5Q567.0 478.0 565.0 474.5Q563.0 471.0 562.0 467.5Q561.0 464.0 560.5 461.5Q560.0 459.0 558.5 458.0Q557.0 457.0 554.5 457.0Q552.0 457.0 548.5 457.0Q545.0 457.0 540.5 456.5Q536.0 456.0 532.0 455.0Q528.0 454.0 525.0 451.5Q522.0 449.0 520.5 445.5Q519.0 442.0 520.0 438.5Q521.0 435.0 524.0 432.0Q527.0 429.0 530.5 427.0Q534.0 425.0 538.0 423.5Q542.0 422.0 545.0 421.0Q548.0 420.0 550.0 419.0Q552.0 418.0 552.5 416.0Q553.0 414.0 552.5 411.0Q552.0 408.0 552.0 403.5Q552.0 399.0 553.0 394.5Q554.0 390.0 556.0 386.5Q558.0 383.0 561.0 380.5Q564.0 378.0 567.5 378.0Q571.0 378.0 574.5 380.0Q578.0 382.0 581.0 385.5Q584.0 389.0 585.5 393.0Q587.0 397.0 588.0 401.0Q589.0 405.0 590.0 407.0Q591.0 409.0 592.5 410.5Q594.0 412.0 597.0 412.0Q600.0 412.0 603.5 412.0Q607.0 412.0 611.5 412.0Q616.0 412.0 620.5 413.5Q625.0 415.0 628.5 417.5Q632.0 420.0 633.0 424.0Q634.0 428.0 633.0 431.5Q632.0 435.0 629.0 438.0Q626.0 441.0 622.0 443.5Q618.0 446.0 614.0 447.5Q610.0 449.0 606.5 450.0Q603.0 451.0 601.5 452.0Q600.0 453.0 599.5 455.0Q599.0 457.0 599.0 460.5Q599.0 464.0 599.0 468.5Q599.0 473.0 598.0 477.5Q597.0 482.0 595.0 486.0Q593.0 490.0 589.5 492.5Q586.0 495.0 582.5 495.0Q579.0 495.0 575.0 493.0Q571.0 491.0 568.5 487.0Q566.0 483.0 564.0 479.0Q562.0 475.0 561.0 471.0Q560.0 467.0 559.0 464.5Q558.0 462.0 556.5 461.0Q555.0 460.0 552.0 459.5Q549.0 459.0 545.0 459.5Q541.0 460.0 536.0 459.5Q531.0 459.0 526.5 457.5Q522.0 456.0 518.5 453.0Q515.0 450.0 514.0 446.5Q513.0 443.0 514.0 439.0Q515.0 435.0 518.0 431.5Q521.0 428.0 525.5 425.5Q530.0 423.0 534.0 421.5Q538.0 420.0 541.5 419.0Q545.0 418.0 547.0 417.0Q549.0 416.0 549.5 414.0Q550.0 412.0 550.0 408.0Q550.0 404.0 550.0 399.5Q550.0 395.0 551.0 390.0Q552.0 385.0 554.0 381.0Q556.0 377.0 559.5 374.5Q563.0 372.0 567.0 372.0Q571.0 372.0 575.0 374.0Q579.0 376.0 582.0 380.0Q585.0 384.0 587.0 388.5Q589.0 393.0 590.0 397.0Q591.0 401.0 592.0 404.0Q593.0 407.0 594.5 408.0Q596.0 409.0 599.0 409.0Q602.0 409.0 606.5 409.0Q611.0 409.0 616.0 409.5Q621.0 410.0 626.0 411.5Q631.0 413.0 634.5 416.0Q638.0 419.0 639.5 423.0Q641.0 427.0 639.5 431.0Q638.0 435.0 635.0 438.5Q632.0 442.0 627.5 444.5Q623.0 447.0 618.5 448.5Q614.0 450.0 610.5 451.0Q607.0 452.0 605.0 453.5Q603.0 455.0 602.0 457.5Q601.0 460.0 601.5 463.5Q602.0 467.0 602.0 472.0Q602.0 477.0 601.0 482.0Q600.0 487.0 597.5 491.5Q595.0 496.0 591.5 498.5Q588.0 501.0 583.5 501.5Q579.0 502.0 575.0 499.5Q571.0 497.0 568.0 493.0Q565.0 489.0 563.0 484.0Q561.0 479.0 559.5 475.0Q558.0 471.0 557.0 468.0Q556.0 465.0 554.0 463.5Q552.0 462.0 549.0 462.0Q546.0 462.0 541.5 462.0Q537.0 462.0 532.0 462.0Q527.0 462.0 521.5 460.0Q516.0 458.0 512.5 455.0Q509.0 452.0 507.5 448.0Q506.0 444.0 507.5 439.5Q509.0 435.0 512.0 431.0Q515.0 427.0 520.0 424.5Q525.0 422.0 529.5 420.5Q534.0 419.0 538.0 418.0Q542.0 417.0 544.0 415.5Q546.0 414.0 546.5 411.5Q547.0 409.0 547.0 405.0Q547.0 401.0 547.0 396.0Q547.0 391.0 548.0 385.5Q549.0 380.0 551.5 375.5Q554.0 371.0 558.0 368.0Q562.0 365.0 566.5 365.0Q571.0 365.0 575.0 367.5Q579.0 370.0 582.5 374.5Q586.0 379.0 588.0 384.0Q590.0 389.0 591.5 393.5Q593.0 398.0 594.0 401.0Q595.0 404.0 597.0 405.0Q599.0 406.0 602.0 406.5Q605.0 407.0 610.0 406.5Q615.0 406.0 620.5 406.5Q626.0 407.0 631.0 409.0Q636.0 411.0 640.0 414.0Q644.0 417.0 645.5 421.5Q647.0 426.0 646.0 430.5Q645.0 435.0 641.0 439.0Q637.0 443.0 632.5 445.5Q628.0 448.0 623.0 450.0Q618.0 452.0 614.0 453.0Q610.0 454.0 607.5 455.5Q605.0 457.0 604.5 459.5Q604.0 462.0 604.0 466.0Q604.0 470.0 604.0 475.5Q604.0 481.0 603.0 486.5Q602.0 492.0 599.5 497.0Q597.0 502.0 593.0 505.0Q589.0 508.0 584.5 508.0Q580.0 508.0 575.5 505.5Q571.0 503.0 567.5 498.5Q564.0 494.0 561.5 488.5Q559.0 483.0 558.0 478.5Q557.0 474.0 555.5 471.0Q554.0 468.0 552.0 466.5Q550.0 465.0 546.5 465.0Q543.0 465.0 538.5 465.0Q534.0 465.0 528.0 464.5Q522.0 464.0 516.5 462.0Q511.0 460.0 507.0 457.0Q503.0 454.0 501.5 449.5Q500.0 445.0 501.0 440.0Q502.0 435.0 506.0 431.0Q510.0 427.0 515.0 424.0Q520.0 421.0 525.5 419.0Q531.0 417.0 535.0 416.0Q539.0 415.0 541.0 413.5Q543.0 412.0 544.0 409.5Q545.0 407.0 544.5 402.5Q544.0 398.0 544.0 392.5Q544.0 387.0 545.5 381.0Q547.0 375.0 549.5 370.0Q552.0 365.0 556.0 362.0Q560.0 359.0 565.0 359.0Q570.0 359.0 574.5 361.5Q579.0 364.0 583.0 368.5Q587.0 373.0 589.0 378.5Q591.0 384.0 592.5 389.0Q594.0 394.0 595.5 397.5Q597.0 401.0 599.0 402.5Q601.0 404.0 604.5 404.0Q608.0 404.0 613.0 404.0Q618.0 404.0 624.0 404.5Q630.0 405.0 636.0 407.0Q642.0 409.0 646.0 412.5Q650.0 416.0 652.0 420.5Q654.0 425.0 652.5 430.0Q651.0 435.0 647.0 439.5Q643.0 444.0 637.5 447.0Q632.0 450.0 626.5 451.5Q621.0 453.0 617.0 454.5Q613.0 456.0 610.5 457.5Q608.0 459.0 607.0 462.0Q606.0 465.0 606.5 469.0Q607.0 473.0 607.0 479.0Q607.0 485.0 605.5 491.5Q604.0 498.0 601.5 503.0Q599.0 508.0 594.5 511.0Q590.0 514.0 585.0 514.5Q580.0 515.0 575.0 512.0Q570.0 509.0 566.5 504.0Q563.0 499.0 560.5 493.5Q558.0 488.0 556.5 483.0Q555.0 478.0 553.5 474.5Q552.0 471.0 550.0 469.5Q548.0 468.0 544.5 467.5Q541.0 467.0 535.5 467.5Q530.0 468.0 523.5 467.5Q517.0 467.0 511.0 465.0Q505.0 463.0 500.5 459.0Q496.0 455.0 494.5 450.0Q493.0 445.0 494.5 440.0Q496.0 435.0 500.0 430.5Q504.0 426.0 509.5 423.0Q515.0 420.0 521.0 418.0Q527.0 416.0 531.5 414.5Q536.0 413.0 538.5 411.5Q541.0 410.0 541.5 407.0Q542.0 404.0 542.0 399.5Q542.0 395.0 542.0 389.0Q542.0 383.0 543.0 376.5Q544.0 370.0 547.0 364.5Q550.0 359.0 554.5 355.5Q559.0 352.0 564.5 352.0Q570.0 352.0 575.0 355.0Q580.0 358.0 584.0 363.0Q588.0 368.0 590.5 374.0Q593.0 380.0 594.5 385.5Q596.0 391.0 597.5 394.5Q599.0 398.0 601.0 399.5Q603.0 401.0 607.0 401.0Q611.0 401.0 616.5 401.0Q622.0 401.0 628.5 401.5Q635.0 402.0 641.5 404.0Q648.0 406.0 652.5 410.0Q657.0 414.0 658.5 419.0Q660.0 424.0 658.5 429.5Q657.0 435.0 653.0 439.5Q649.0 444.0 643.0 447.5Q637.0 451.0 631.0 453.0Q625.0 455.0 620.5 456.5Q616.0 458.0 613.5 459.5Q611.0 461.0 610.0 464.0Q609.0 467.0 609.0 472.0Q609.0 477.0 609.0 483.0Q609.0 489.0 608.0 496.0Q607.0 503.0 604.0 508.5Q601.0 514.0 596.0 517.5Q591.0 521.0 585.5 521.0Q580.0 521.0 575.0 518.0Q570.0 515.0 566.0 509.5Q562.0 504.0 559.0 498.0Q556.0 492.0 554.5 486.5Q553.0 481.0 552.0 477.5Q551.0 474.0 548.5 472.0Q546.0 470.0 542.0 470.0Q538.0 470.0 532.0 470.0Q526.0 470.0 519.5 469.5Q513.0 469.0 506.5 467.0Q500.0 465.0 495.0 461.0Q490.0 457.0 488.0 451.5Q486.0 446.0 488.0 440.5Q490.0 435.0 494.0 430.0Q498.0 425.0 504.5 421.5Q511.0 418.0 517.0 416.0Q523.0 414.0 527.5 413.0Q532.0 412.0 535.0 410.0Q538.0 408.0 539.0 405.0Q540.0 402.0 539.5 397.0Q539.0 392.0 539.0 385.5Q539.0 379.0 540.5 372.0Q542.0 365.0 545.0 359.0Q548.0 353.0 553.0 349.5Q558.0 346.0 563.5 346.0Q569.0 346.0 574.5 349.0Q580.0 352.0 584.5 357.5Q589.0 363.0 591.5 369.5Q594.0 376.0 595.5 381.5Q597.0 387.0 598.5 391.0Q600.0 395.0 602.5 397.0Q605.0 399.0 609.0 399.0Q613.0 399.0 619.0 398.5Q625.0 398.0 632.5 399.0Q640.0 400.0 646.5 402.0Q653.0 404.0 658.0 408.0Q663.0 412.0 665.0 417.5Q667.0 423.0 665.5 429.0Q664.0 435.0 659.0 440.0Q654.0 445.0 648.0 448.5Q642.0 452.0 635.5 454.0Q629.0 456.0 624.0 457.5Q619.0 459.0 616.0 461.0Q613.0 463.0 612.5 466.0Q612.0 469.0 612.0 474.5Q612.0 480.0 612.0 486.5Q612.0 493.0 610.5 500.5Q609.0 508.0 606.0 514.0Q603.0 520.0 598.0 523.5Q593.0 527.0 587.0 527.5Q581.0 528.0 575.5 524.5Q570.0 521.0 565.5 515.5Q561.0 510.0 558.0 503.0Q555.0 496.0 553.5 490.5Q552.0 485.0 550.5 480.5Q549.0 476.0 546.5 474.5Q544.0 473.0 539.5 472.5Q535.0 472.0 529.0 472.5Q523.0 473.0 515.5 472.5Q508.0 472.0 501.0 469.5Q494.0 467.0 489.0 462.5Q484.0 458.0 482.0 452.5Q480.0 447.0 481.5 441.0Q483.0 435.0 488.0 430.0Q493.0 425.0 499.5 421.0Q506.0 417.0 512.5 415.0Q519.0 413.0 524.0 411.5Q529.0 410.0 532.0 408.0Q535.0 406.0 536.0 402.5Q537.0 399.0 537.0 394.0Q537.0 389.0 537.0 382.0Q537.0 375.0 538.0 367.5Q539.0 360.0 542.5 353.5Q546.0 347.0 551.5 343.0Q557.0 339.0 563.0 339.0Q569.0 339.0 575.0 342.5Q581.0 346.0 585.5 352.0Q590.0 358.0 593.0 365.0Q596.0 372.0 597.5 378.0Q599.0 384.0 600.5 388.0Q602.0 392.0 604.5 394.0Q607.0 396.0 611.5 396.0Q616.0 396.0 622.5 396.0Q629.0 396.0 636.5 396.5Q644.0 397.0 651.5 399.5Q659.0 402.0 664.0 406.5Q669.0 411.0 671.0 417.0Q673.0 423.0 671.5 429.0Q670.0 435.0 665.0 440.5Q660.0 446.0 653.5 449.5Q647.0 453.0 640.0 455.5Q633.0 458.0 627.5 459.5Q622.0 461.0 619.0 463.0Q616.0 465.0 615.0 468.5Q614.0 472.0 614.5 477.5Q615.0 483.0 615.0 490.5Q615.0 498.0 613.5 505.5Q612.0 513.0 608.5 519.5Q605.0 526.0 599.5 530.0Q594.0 534.0 587.5 534.0Q581.0 534.0 575.0 530.5Q569.0 527.0 564.5 521.0Q560.0 515.0 557.0 508.0Q554.0 501.0 552.0 494.5Q550.0 488.0 548.5 483.5Q547.0 479.0 544.5 477.0Q542.0 475.0 537.0 475.0Q532.0 475.0 525.5 475.5Q519.0 476.0 511.5 475.0Q504.0 474.0 496.0 471.5Q488.0 469.0 483.0 464.5Q478.0 460.0 475.5 454.0Q473.0 448.0 475.0 441.5Q477.0 435.0 482.0 429.5Q487.0 424.0 494.0 420.0Q501.0 416.0 508.0 413.5Q515.0 411.0 520.5 409.5Q526.0 408.0 529.0 406.0Q532.0 404.0 533.0 400.5Q534.0 397.0 534.0 391.0Q534.0 385.0 534.0 377.5Q534.0 370.0 535.5 362.0Q537.0 354.0 540.5 347.5Q544.0 341.0 550.0 337.0Q556.0 333.0 562.5 333.0Q569.0 333.0 575.0 336.5Q581.0 340.0 586.0 346.5Q591.0 353.0 594.0 360.0Q597.0 367.0 599.0 373.5Q601.0 380.0 602.5 384.5Q604.0 389.0 607.0 391.0Q610.0 393.0 614.5 393.5Q619.0 394.0 626.0 393.5Q633.0 393.0 641.0 393.5Q649.0 394.0 656.5 397.0Q664.0 400.0 670.0 404.5Q676.0 409.0 678.0 415.5Q680.0 422.0 678.0 428.5Q676.0 435.0 671.0 440.5Q666.0 446.0 658.5 450.5Q651.0 455.0 644.0 457.0Q637.0 459.0 631.0 461.0Q625.0 463.0 622.0 465.0Q619.0 467.0 618.0 470.5Q617.0 474.0 617.0 480.0Q617.0 486.0 617.0 494.0Q617.0 502.0 615.5 510.0Q614.0 518.0 610.5 525.0Q607.0 532.0 601.0 536.0Q595.0 540.0 588.5 540.5Q582.0 541.0 575.5 537.0Q569.0 533.0 564.0 526.5Q559.0 520.0 555.5 512.5Q552.0 505.0 550.0 498.0Q548.0 491.0 546.5 486.5Q545.0 482.0 542.0 480.0Q539.0 478.0 534.5 478.0Q530.0 478.0 523.0 478.0Q516.0 478.0 507.5 477.5Q499.0 477.0 491.0 474.0Q483.0 471.0 477.0 466.5Q471.0 462.0 469.0 455.5Q467.0 449.0 469.0 442.0Q471.0 435.0 476.0 429.0Q481.0 423.0 488.5 419.0Q496.0 415.0 503.5 412.5Q511.0 410.0 517.0 408.0Q523.0 406.0 526.5 404.0Q530.0 402.0 531.0 398.0Q532.0 394.0 531.5 388.0Q531.0 382.0 531.0 374.0Q531.0 366.0 533.0 357.5Q535.0 349.0 538.5 342.0Q542.0 335.0 548.0 330.5Q554.0 326.0 561.0 326.0Q568.0 326.0 574.5 330.0Q581.0 334.0 586.5 340.5Q592.0 347.0 595.0 355.0Q598.0 363.0 600.0 370.0Q602.0 377.0 604.0 381.5Q606.0 386.0 609.0 388.5Q612.0 391.0 617.0 391.0Q622.0 391.0 629.0 390.5Q636.0 390.0 644.5 391.0Q653.0 392.0 661.5 394.5Q670.0 397.0 676.0 402.5Q682.0 408.0 684.5 414.5Q687.0 421.0 685.0 428.0Q683.0 435.0 677.0 441.0Q671.0 447.0 663.5 451.5Q656.0 456.0 648.5 458.5Q641.0 461.0 635.0 462.5Q629.0 464.0 625.5 466.5Q622.0 469.0 620.5 473.0Q619.0 477.0 619.5 483.0Q620.0 489.0 620.0 497.5Q620.0 506.0 618.5 514.5Q617.0 523.0 613.0 530.5Q609.0 538.0 602.5 542.5Q596.0 547.0 589.0 547.0Q582.0 547.0 575.0 543.0Q568.0 539.0 563.0 532.0Q558.0 525.0 554.5 517.0Q551.0 509.0 549.0 502.0Q547.0 495.0 545.0 490.0Q543.0 485.0 540.0 483.0Q537.0 481.0 532.0 480.5Q527.0 480.0 519.5 480.5Q512.0 481.0 503.0 480.0Q494.0 479.0 485.5 476.5Q477.0 474.0 471.0 468.5Q465.0 463.0 462.5 456.5Q460.0 450.0 462.0 442.5Q464.0 435.0 470.0 428.5Q476.0 422.0 484.0 418.0Q492.0 414.0 499.5 411.0Q507.0 408.0 513.5 406.5Q520.0 405.0 523.5 402.5Q527.0 400.0 528.0 396.0Q529.0 392.0 529.0 385.5Q529.0 379.0 529.0 370.5Q529.0 362.0 530.5 353.0Q532.0 344.0 536.0 336.5Q540.0 329.0 546.5 324.5Q553.0 320.0 560.5 320.0Q568.0 320.0 575.0 324.0Q582.0 328.0 587.5 335.0Q593.0 342.0 596.5 350.5Q600.0 359.0 602.0 366.0Q604.0 373.0 606.0 378.0Q608.0 383.0 611.0 385.5Q614.0 388.0 619.5 388.0Q625.0 388.0 632.5 388.0Q640.0 388.0 649.0 388.5Q658.0 389.0 667.0 392.0Q676.0 395.0 682.0 400.5Q688.0 406.0 690.5 413.0Q693.0 420.0 691.0 427.5Q689.0 435.0 683.0 441.5Q677.0 448.0 669.0 452.5Q661.0 457.0 652.5 460.0Q644.0 463.0 638.0 464.5Q632.0 466.0 628.0 468.5Q624.0 471.0 623.0 475.0Q622.0 479.0 622.5 486.0Q623.0 493.0 623.0 501.5Q623.0 510.0 621.0 519.0Q619.0 528.0 614.5 536.0Q610.0 544.0 604.0 548.5Q598.0 553.0 590.0 553.5Q582.0 554.0 575.0 549.5Q568.0 545.0 562.5 538.0Q557.0 531.0 553.0 522.0Q549.0 513.0 547.0 505.5Q545.0 498.0 543.0 493.0Q541.0 488.0 538.0 485.5Q535.0 483.0 529.5 483.0Q524.0 483.0 516.0 483.0Q508.0 483.0 499.0 482.5Q490.0 482.0 481.0 479.0Q472.0 476.0 465.5 470.5Q459.0 465.0 456.5 457.5Q454.0 450.0 456.0 442.5Q458.0 435.0 464.0 428.5Q470.0 422.0 478.5 417.0Q487.0 412.0 495.5 409.5Q504.0 407.0 510.5 405.0Q517.0 403.0 520.5 400.5Q524.0 398.0 525.5 394.0Q527.0 390.0 526.5 383.0Q526.0 376.0 526.0 367.0Q526.0 358.0 528.0 348.5Q530.0 339.0 534.5 331.0Q539.0 323.0 545.5 318.0Q552.0 313.0 559.5 313.0Q567.0 313.0 574.5 317.5Q582.0 322.0 588.0 329.5Q594.0 337.0 597.5 345.5Q601.0 354.0 603.5 362.0Q606.0 370.0 608.0 375.5Q610.0 381.0 613.0 383.0Q616.0 385.0 621.5 385.5Q627.0 386.0 635.5 385.5Q644.0 385.0 653.5 386.0Q663.0 387.0 672.0 390.0Q681.0 393.0 688.0 398.5Q695.0 404.0 697.5 411.5Q700.0 419.0 697.5 427.0Q695.0 435.0 689.0 442.0Q683.0 449.0 674.5 453.5Q666.0 458.0 657.0 461.0Q648.0 464.0 641.5 466.0Q635.0 468.0 631.0 470.5Q627.0 473.0 626.0 477.5Q625.0 482.0 625.0 489.0Q625.0 496.0 625.0 505.0Q625.0 514.0 623.0 524.0Q621.0 534.0 616.5 542.0Q612.0 550.0 605.5 555.0Q599.0 560.0 591.0 560.0Q583.0 560.0 575.5 555.5Q568.0 551.0 562.0 543.5Q556.0 536.0 552.0 527.0Q548.0 518.0 546.0 510.0Q544.0 502.0 542.0 496.5Q540.0 491.0 536.5 488.5Q533.0 486.0 527.0 485.5Q521.0 485.0 513.0 485.5Q505.0 486.0 495.0 485.5Q485.0 485.0 475.5 481.5Q466.0 478.0 459.0 472.5Q452.0 467.0 449.5 459.0Q447.0 451.0 449.5 443.0Q452.0 435.0 458.0 428.0Q464.0 421.0 473.0 416.0Q482.0 411.0 491.0 408.0Q500.0 405.0 507.0 403.0Q514.0 401.0 518.0 398.5Q522.0 396.0 523.0 391.5Q524.0 387.0 523.5 380.0Q523.0 373.0 523.5 363.5Q524.0 354.0 525.5 344.0Q527.0 334.0 532.0 325.5Q537.0 317.0 544.0 312.0Q551.0 307.0 559.0 307.0Q567.0 307.0 575.0 311.5Q583.0 316.0 589.0 324.0Q595.0 332.0 599.0 341.0Q603.0 350.0 605.0 358.0Q607.0 366.0 609.0 372.0Q611.0 378.0 614.5 380.5Q618.0 383.0 624.0 383.0Q630.0 383.0 638.5 383.0Q647.0 383.0 657.0 383.5Q667.0 384.0 677.0 387.5Q687.0 391.0 694.0 397.0Q701.0 403.0 703.5 410.5Q706.0 418.0 704.0 426.5Q702.0 435.0 695.0 442.0Q688.0 449.0 679.0 454.0Q670.0 459.0 661.0 462.5Q652.0 466.0 645.0 468.0Q638.0 470.0 634.0 472.5Q630.0 475.0 628.5 479.5Q627.0 484.0 627.5 491.5Q628.0 499.0 628.0 508.5Q628.0 518.0 626.0 528.5Q624.0 539.0 619.0 547.5Q614.0 556.0 607.0 561.0Q600.0 566.0 591.5 566.5Q583.0 567.0 575.0 562.0Q567.0 557.0 561.0 549.0Q555.0 541.0 551.0 531.5Q547.0 522.0 544.5 513.5Q542.0 505.0 540.0 499.5Q538.0 494.0 534.5 491.5Q531.0 489.0 525.0 488.5Q519.0 488.0 510.0 488.5Q501.0 489.0 490.5 488.0Q480.0 487.0 470.0 483.5Q460.0 480.0 453.0 474.0Q446.0 468.0 443.0 460.0Q440.0 452.0 442.5 443.5Q445.0 435.0 452.0 427.5Q459.0 420.0 468.0 415.0Q477.0 410.0 486.5 407.0Q496.0 404.0 503.0 402.0Q510.0 400.0 514.5 397.0Q519.0 394.0 520.0 389.5Q521.0 385.0 521.0 377.5Q521.0 370.0 521.0 360.0Q521.0 350.0 523.0 339.5Q525.0 329.0 530.0 320.0Q535.0 311.0 542.0 305.5Q549.0 300.0 558.0 300.0Q567.0 300.0 575.0 305.0Q583.0 310.0 589.5 318.0Q596.0 326.0 600.0 336.0Q604.0 346.0 606.5 354.5Q609.0 363.0 611.0 369.0Q613.0 375.0 616.5 377.5Q620.0 380.0 626.5 380.5Q633.0 381.0 642.0 380.5Q651.0 380.0 661.5 381.0Q672.0 382.0 682.0 385.5Q692.0 389.0 699.5 395.0Q707.0 401.0 710.0 409.5Q713.0 418.0 710.5 426.5Q708.0 435.0 701.0 442.5Q694.0 450.0 684.5 455.5Q675.0 461.0 665.5 464.0Q656.0 467.0 648.5 469.0Q641.0 471.0 637.0 474.0Q633.0 477.0 631.5 482.0Q630.0 487.0 630.0 494.5Q630.0 502.0 630.0 512.0Q630.0 522.0 628.0 533.0Q626.0 544.0 621.0 553.0Q616.0 562.0 608.5 567.5Q601.0 573.0 592.5 573.0Q584.0 573.0 575.5 568.0Q567.0 563.0 560.5 554.5Q554.0 546.0 549.5 536.0Q545.0 526.0 542.5 517.5Q540.0 509.0 538.0 503.0Q536.0 497.0 532.0 494.0Q528.0 491.0 522.0 491.0Q516.0 491.0 506.5 491.0Q497.0 491.0 486.5 490.5Q476.0 490.0 465.5 486.5Q455.0 483.0 447.5 476.5Q440.0 470.0 437.0 461.5Q434.0 453.0 436.5 444.0Q439.0 435.0 446.0 427.5Q453.0 420.0 463.0 414.5Q473.0 409.0 482.5 405.5Q492.0 402.0 499.5 400.0Q507.0 398.0 511.5 395.0Q516.0 392.0 517.5 387.0Q519.0 382.0 518.5 374.0Q518.0 366.0 518.0 356.0Q518.0 346.0 520.5 335.0Q523.0 324.0 528.0 314.5Q533.0 305.0 540.5 299.5Q548.0 294.0 557.0 294.0Q566.0 294.0 574.5 299.0Q583.0 304.0 590.0 312.5Q597.0 321.0 601.0 331.0Q605.0 341.0 608.0 350.5Q611.0 360.0 613.0 366.0Q615.0 372.0 619.0 374.5Q623.0 377.0 629.5 377.5Q636.0 378.0 645.0 377.5Q654.0 377.0 665.5 378.0Q677.0 379.0 687.5 382.5Q698.0 386.0 705.5 392.5Q713.0 399.0 716.0 408.0Q719.0 417.0 716.5 426.0Q714.0 435.0 707.0 443.0Q700.0 451.0 690.0 456.5Q680.0 462.0 670.0 465.5Q660.0 469.0 652.0 471.0Q644.0 473.0 639.5 476.0Q635.0 479.0 633.5 484.0Q632.0 489.0 632.5 497.0Q633.0 505.0 633.0 515.5Q633.0 526.0 631.0 537.5Q629.0 549.0 623.5 558.5Q618.0 568.0 610.5 573.5Q603.0 579.0 593.5 579.5Q584.0 580.0 575.5 574.5Q567.0 569.0 560.0 560.0Q553.0 551.0 548.5 541.0Q544.0 531.0 541.5 521.5Q539.0 512.0 536.5 506.0Q534.0 500.0 530.0 497.0Q526.0 494.0 519.5 493.5Q513.0 493.0 503.5 493.5Q494.0 494.0 482.5 493.0Q471.0 492.0 460.0 488.5Q449.0 485.0 441.0 478.0Q433.0 471.0 430.0 462.5Q427.0 454.0 430.0 444.5Q433.0 435.0 440.0 427.0Q447.0 419.0 457.5 413.0Q468.0 407.0 478.0 404.0Q488.0 401.0 496.0 398.5Q504.0 396.0 508.5 393.0Q513.0 390.0 514.5 385.0Q516.0 380.0 516.0 371.5Q516.0 363.0 516.0 352.5Q516.0 342.0 518.0 330.0Q520.0 318.0 525.5 308.5Q531.0 299.0 539.0 293.0Q547.0 287.0 556.5 287.0Q566.0 287.0 575.0 292.5Q584.0 298.0 591.0 307.0Q598.0 316.0 602.5 326.5Q607.0 337.0 609.5 346.5Q612.0 356.0 614.5 362.5Q617.0 369.0 621.0 372.0Q625.0 375.0 631.5 375.0Q638.0 375.0 648.0 375.0Q658.0 375.0 669.5 376.0Q681.0 377.0 692.5 380.5Q704.0 384.0 712.0 391.0Q720.0 398.0 723.0 407.0Q726.0 416.0 723.5 425.5Q721.0 435.0 713.0 443.0Q705.0 451.0 695.0 457.0Q685.0 463.0 674.5 466.5Q664.0 470.0 655.5 472.5Q647.0 475.0 642.5 478.0Q638.0 481.0 636.5 486.0Q635.0 491.0 635.5 499.5Q636.0 508.0 636.0 519.0Q636.0 530.0 633.5 542.0Q631.0 554.0 625.5 564.0Q620.0 574.0 612.0 580.0Q604.0 586.0 594.5 586.0Q585.0 586.0 575.5 580.5Q566.0 575.0 559.0 566.0Q552.0 557.0 547.5 546.0Q543.0 535.0 540.0 525.5Q537.0 516.0 534.5 509.0Q532.0 502.0 528.0 499.5Q524.0 497.0 517.0 496.5Q510.0 496.0 500.0 496.5Q490.0 497.0 478.0 496.0Q466.0 495.0 455.0 491.0Q444.0 487.0 435.5 480.0Q427.0 473.0 424.0 463.5Q421.0 454.0 423.5 444.5Q426.0 435.0 434.0 426.5Q442.0 418.0 452.5 412.0Q463.0 406.0 473.5 402.5Q484.0 399.0 492.5 396.5Q501.0 394.0 506.0 391.0Q511.0 388.0 512.5 382.5Q514.0 377.0 513.5 368.5Q513.0 360.0 513.0 348.5Q513.0 337.0 515.5 325.0Q518.0 313.0 523.5 303.0Q529.0 293.0 537.5 287.0Q546.0 281.0 555.5 280.5Q565.0 280.0 574.5 286.0Q584.0 292.0 591.5 301.5Q599.0 311.0 603.5 322.0Q608.0 333.0 611.0 343.0Q614.0 353.0 616.5 359.5Q619.0 366.0 623.0 369.0Q627.0 372.0 634.0 372.5Q641.0 373.0 651.5 372.5Q662.0 372.0 674.0 373.0Q686.0 374.0 697.5 378.0Q709.0 382.0 717.5 389.0Q726.0 396.0 729.0 405.5Q732.0 415.0 729.5 425.0Q727.0 435.0 719.0 443.5Q711.0 452.0 700.0 458.0Q689.0 464.0 678.5 468.0Q668.0 472.0 659.5 474.5Q651.0 477.0 646.0 480.0Q641.0 483.0 639.5 488.5Q638.0 494.0 638.0 503.0Q638.0 512.0 638.0 523.5Q638.0 535.0 635.5 547.0Q633.0 559.0 627.5 569.5Q622.0 580.0 613.5 586.0Q605.0 592.0 595.0 592.5Q585.0 593.0 575.5 587.0Q566.0 581.0 558.5 571.5Q551.0 562.0 546.0 550.5Q541.0 539.0 538.0 529.0Q535.0 519.0 532.5 512.0Q530.0 505.0 526.0 502.0Q522.0 499.0 514.5 498.5Q507.0 498.0 497.0 498.5Q487.0 499.0 474.5 498.0Q462.0 497.0 450.0 493.0Q438.0 489.0 429.5 482.0Q421.0 475.0 417.5 465.0Q414.0 455.0 417.0 445.0Q420.0 435.0 428.0 426.0Q436.0 417.0 447.0 411.0Q458.0 405.0 469.0 401.5Q480.0 398.0 489.0 395.5Q498.0 393.0 503.0 389.5Q508.0 386.0 509.5 380.5Q511.0 375.0 510.5 366.0Q510.0 357.0 510.0 345.0Q510.0 333.0 512.5 320.5Q515.0 308.0 521.0 297.5Q527.0 287.0 535.5 280.5Q544.0 274.0 554.5 274.0Q565.0 274.0 574.5 279.5Q584.0 285.0 592.0 295.5Q600.0 306.0 605.0 317.5Q610.0 329.0 612.5 339.0Q615.0 349.0 618.0 356.0Q621.0 363.0 625.0 366.5Q629.0 370.0 636.5 370.0Q644.0 370.0 654.5 369.5Q665.0 369.0 678.0 370.0Q691.0 371.0 703.0 375.5Q715.0 380.0 723.5 387.5Q732.0 395.0 735.5 404.5Q739.0 414.0 736.0 424.5Q733.0 435.0 725.0 444.0Q717.0 453.0 705.5 459.5Q694.0 466.0 682.5 469.5Q671.0 473.0 662.5 475.5Q654.0 478.0 648.5 481.5Q643.0 485.0 641.5 490.5Q640.0 496.0 640.5 505.5Q641.0 515.0 641.0 527.0Q641.0 539.0 638.5 551.5Q636.0 564.0 630.0 575.0Q624.0 586.0 615.0 592.5Q606.0 599.0 595.5 599.0Q585.0 599.0 575.0 593.5Q565.0 588.0 557.5 577.5Q550.0 567.0 545.0 555.5Q540.0 544.0 537.0 533.5Q534.0 523.0 531.5 515.5Q529.0 508.0 524.5 505.0Q520.0 502.0 512.5 501.5Q505.0 501.0 494.0 501.5Q483.0 502.0 470.0 501.0Q457.0 500.0 444.5 495.5Q432.0 491.0 423.0 483.5Q414.0 476.0 411.0 466.0Q408.0 456.0 411.0 445.5Q414.0 435.0 422.0 426.0Q430.0 417.0 441.5 410.5Q453.0 404.0 465.0 400.0Q477.0 396.0 486.0 393.5Q495.0 391.0 500.0 387.5Q505.0 384.0 506.5 378.0Q508.0 372.0 508.0 363.0Q508.0 354.0 508.0 341.5Q508.0 329.0 510.5 316.0Q513.0 303.0 519.0 292.0Q525.0 281.0 534.0 274.5Q543.0 268.0 553.5 267.5Q564.0 267.0 574.5 273.0Q585.0 279.0 593.0 289.5Q601.0 300.0 606.0 312.0Q611.0 324.0 614.0 335.0Q617.0 346.0 619.5 353.0Q622.0 360.0 626.5 363.5Q631.0 367.0 639.0 367.5Q647.0 368.0 658.0 367.5Q669.0 367.0 682.0 368.0Q695.0 369.0 707.5 373.0Q720.0 377.0 729.5 385.0Q739.0 393.0 742.5 403.0Q746.0 413.0 743.0 424.0Q740.0 435.0 731.0 444.5Q722.0 454.0 710.5 460.5Q699.0 467.0 687.0 471.0Q675.0 475.0 666.0 477.5Q657.0 480.0 651.5 483.5Q646.0 487.0 644.5 493.0Q643.0 499.0 643.5 508.5Q644.0 518.0 643.5 530.5Q643.0 543.0 640.5 556.5Q638.0 570.0 632.0 581.0Q626.0 592.0 617.0 598.5Q608.0 605.0 597.0 605.5Q586.0 606.0 575.5 600.0Q565.0 594.0 557.0 583.0Q549.0 572.0 543.5 560.0Q538.0 548.0 535.0 537.0Q532.0 526.0 529.5 518.5Q527.0 511.0 522.5 507.5Q518.0 504.0 510.0 504.0Q502.0 504.0 490.5 504.5Q479.0 505.0 465.5 503.5Q452.0 502.0 439.5 498.0Q427.0 494.0 417.5 486.0Q408.0 478.0 404.5 467.5Q401.0 457.0 404.0 446.0Q407.0 435.0 416.0 425.5Q425.0 416.0 437.0 409.5Q449.0 403.0 461.0 399.0Q473.0 395.0 482.5 392.0Q492.0 389.0 497.0 385.5Q502.0 382.0 504.0 376.0Q506.0 370.0 505.5 360.5Q505.0 351.0 505.0 338.0Q505.0 325.0 507.5 311.5Q510.0 298.0 516.5 286.5Q523.0 275.0 532.5 268.0Q542.0 261.0 553.0 261.0Q564.0 261.0 574.5 267.0Q585.0 273.0 593.5 284.0Q602.0 295.0 607.0 307.5Q612.0 320.0 615.5 331.0Q619.0 342.0 621.5 349.5Q624.0 357.0 629.0 360.5Q634.0 364.0 641.5 364.5Q649.0 365.0 661.0 364.5Q673.0 364.0 686.5 365.0Q700.0 366.0 713.0 370.5Q726.0 375.0 735.5 383.0Q745.0 391.0 748.5 402.0Q752.0 413.0 749.0 424.0Q746.0 435.0 737.0 444.5Q728.0 454.0 716.0 461.0Q704.0 468.0 691.5 472.0Q679.0 476.0 669.5 479.0Q660.0 482.0 654.5 485.5Q649.0 489.0 647.0 495.0Q645.0 501.0 645.5 511.0Q646.0 521.0 646.0 534.0Q646.0 547.0 643.5 561.0Q641.0 575.0 634.5 586.5Q628.0 598.0 618.5 605.0Q609.0 612.0 597.5 612.0Q586.0 612.0 575.5 606.0Q565.0 600.0 556.5 589.0Q548.0 578.0 542.5 565.0Q537.0 552.0 534.0 540.5Q531.0 529.0 528.0 521.5Q525.0 514.0 520.0 510.5Q515.0 507.0 507.0 506.5Q499.0 506.0 487.5 506.5Q476.0 507.0 462.0 506.0Q448.0 505.0 434.5 500.5Q421.0 496.0 411.5 487.5Q402.0 479.0 398.5 468.5Q395.0 458.0 398.0 446.5Q401.0 435.0 410.0 425.0Q419.0 415.0 431.5 408.0Q444.0 401.0 456.5 397.0Q469.0 393.0 479.0 390.0Q489.0 387.0 494.5 383.5Q500.0 380.0 501.5 374.0Q503.0 368.0 503.0 357.5Q503.0 347.0 503.0 334.0Q503.0 321.0 505.5 307.0Q508.0 293.0 514.5 281.0Q521.0 269.0 531.0 262.0Q541.0 255.0 552.5 254.5Q564.0 254.0 575.0 260.5Q586.0 267.0 594.5 278.5Q603.0 290.0 608.5 303.0Q614.0 316.0 617.0 327.5Q620.0 339.0 623.0 347.0Q626.0 355.0 631.0 358.5Q636.0 362.0 644.0 362.0Q652.0 362.0 664.0 361.5Q676.0 361.0 690.0 362.5Q704.0 364.0 718.0 368.5Q732.0 373.0 741.5 381.5Q751.0 390.0 755.0 401.0Q759.0 412.0 755.5 423.5Q752.0 435.0 743.0 445.0Q734.0 455.0 721.0 462.0Q708.0 469.0 695.5 473.5Q683.0 478.0 673.0 480.5Q663.0 483.0 657.5 487.0Q652.0 491.0 650.0 497.5Q648.0 504.0 648.5 514.0Q649.0 524.0 649.0 537.5Q649.0 551.0 646.0 565.5Q643.0 580.0 636.5 592.0Q630.0 604.0 620.0 611.0Q610.0 618.0 598.5 618.5Q587.0 619.0 575.5 612.5Q564.0 606.0 555.5 594.5Q547.0 583.0 541.5 569.5Q536.0 556.0 532.5 544.5Q529.0 533.0 526.0 525.0Q523.0 517.0 518.0 513.5Q513.0 510.0 504.5 509.5Q496.0 509.0 484.0 509.5Q472.0 510.0 457.5 508.5Q443.0 507.0 429.5 502.5Q416.0 498.0 406.0 489.5Q396.0 481.0 392.0 470.0Q388.0 459.0 391.5 447.0Q395.0 435.0 404.5 425.0Q414.0 415.0 426.5 407.5Q439.0 400.0 452.0 395.5Q465.0 391.0 475.0 388.5Q485.0 386.0 491.0 382.0Q497.0 378.0 499.0 371.5Q501.0 365.0 500.5 354.5Q500.0 344.0 500.0 330.5Q500.0 317.0 503.0 302.5Q506.0 288.0 512.5 275.5Q519.0 263.0 529.0 255.5Q539.0 248.0 551.0 248.0Q563.0 248.0 574.5 254.5Q586.0 261.0 595.0 273.0Q604.0 285.0 609.5 298.0Q615.0 311.0 618.5 323.0Q622.0 335.0 625.0 343.5Q628.0 352.0 633.0 355.5Q638.0 359.0 646.5 359.5Q655.0 360.0 667.5 359.5Q680.0 359.0 694.5 360.0Q709.0 361.0 723.0 366.0Q737.0 371.0 747.5 379.5Q758.0 388.0 761.5 399.5Q765.0 411.0 762.0 423.0Q759.0 435.0 749.0 445.5Q739.0 456.0 726.0 463.0Q713.0 470.0 700.0 474.5Q687.0 479.0 676.5 482.0Q666.0 485.0 660.0 489.0Q654.0 493.0 652.5 499.5Q651.0 506.0 651.0 516.5Q651.0 527.0 651.0 541.0Q651.0 555.0 648.5 570.0Q646.0 585.0 639.0 597.5Q632.0 610.0 621.5 617.5Q611.0 625.0 599.0 625.0Q587.0 625.0 575.5 618.5Q564.0 612.0 555.0 600.0Q546.0 588.0 540.0 574.5Q534.0 561.0 530.5 548.5Q527.0 536.0 524.0 528.0Q521.0 520.0 516.0 516.0Q511.0 512.0 502.5 511.5Q494.0 511.0 481.0 511.5Q468.0 512.0 453.5 511.0Q439.0 510.0 424.5 505.0Q410.0 500.0 399.5 491.5Q389.0 483.0 385.0 471.0Q381.0 459.0 384.5 447.0Q388.0 435.0 398.0 424.5Q408.0 414.0 421.0 406.5Q434.0 399.0 447.5 394.5Q461.0 390.0 471.5 387.0Q482.0 384.0 488.0 380.0Q494.0 376.0 496.0 369.5Q498.0 363.0 497.5 352.0Q497.0 341.0 497.0 327.0Q497.0 313.0 500.0 297.5Q503.0 282.0 510.0 269.5Q517.0 257.0 527.5 249.5Q538.0 242.0 550.5 241.5Q563.0 241.0 574.5 248.0Q586.0 255.0 595.5 267.0Q605.0 279.0 611.0 293.0Q617.0 307.0 620.5 319.5Q624.0 332.0 627.0 340.5Q630.0 349.0 635.0 352.5Q640.0 356.0 649.0 356.5Q658.0 357.0 670.5 356.5Q683.0 356.0 698.5 357.5Q714.0 359.0 728.5 364.0Q743.0 369.0 753.5 377.5Q764.0 386.0 768.0 398.0Q772.0 410.0 768.5 422.5Q765.0 435.0 755.0 445.5Q745.0 456.0 731.5 464.0Q718.0 472.0 704.5 476.5Q691.0 481.0 680.0 484.0Q669.0 487.0 663.0 491.0Q657.0 495.0 655.0 501.5Q653.0 508.0 653.5 519.5Q654.0 531.0 654.0 545.0Q654.0 559.0 651.0 574.5Q648.0 590.0 641.0 603.0Q634.0 616.0 623.0 623.5Q612.0 631.0 599.5 631.5Q587.0 632.0 575.5 625.0Q564.0 618.0 554.5 605.5Q545.0 593.0 539.0 579.0Q533.0 565.0 529.5 552.5Q526.0 540.0 522.5 531.5Q519.0 523.0 514.0 519.0Q509.0 515.0 500.0 514.5Q491.0 514.0 478.0 514.5Q465.0 515.0 449.5 514.0Q434.0 513.0 419.0 508.0Q404.0 503.0 393.5 493.5Q383.0 484.0 379.0 472.0Q375.0 460.0 378.5 447.5Q382.0 435.0 392.0 424.0Q402.0 413.0 416.0 405.5Q430.0 398.0 443.5 393.0Q457.0 388.0 468.0 385.0Q479.0 382.0 485.5 378.0Q492.0 374.0 493.5 367.0Q495.0 360.0 495.0 349.0Q495.0 338.0 495.0 323.5Q495.0 309.0 498.0 293.0Q501.0 277.0 508.0 264.0Q515.0 251.0 526.0 243.0Q537.0 235.0 549.5 235.0Q562.0 235.0 574.5 242.0Q587.0 249.0 596.5 261.5Q606.0 274.0 612.0 288.5Q618.0 303.0 621.5 315.5Q625.0 328.0 628.5 337.0Q632.0 346.0 637.0 350.0Q642.0 354.0 651.5 354.5Q661.0 355.0 674.0 354.5Q687.0 354.0 702.5 355.0Q718.0 356.0 733.0 361.0Q748.0 366.0 759.0 375.5Q770.0 385.0 774.0 397.0Q778.0 409.0 774.5 422.0Q771.0 435.0 761.0 446.0Q751.0 457.0 737.0 465.0Q723.0 473.0 709.0 477.5Q695.0 482.0 683.5 485.5Q672.0 489.0 666.0 493.0Q660.0 497.0 658.0 504.0Q656.0 511.0 656.5 522.5Q657.0 534.0 657.0 548.5Q657.0 563.0 653.5 579.0Q650.0 595.0 643.0 608.5Q636.0 622.0 625.0 630.0Q614.0 638.0 601.0 638.0Q588.0 638.0 575.5 631.0Q563.0 624.0 553.5 611.0Q544.0 598.0 537.5 583.5Q531.0 569.0 527.5 556.0Q524.0 543.0 520.5 534.5Q517.0 526.0 512.0 522.0Q507.0 518.0 497.5 517.5Q488.0 517.0 474.5 517.5Q461.0 518.0 445.0 516.5Q429.0 515.0 414.0 510.0Q399.0 505.0 388.0 495.5Q377.0 486.0 372.5 473.5Q368.0 461.0 372.0 448.0Q376.0 435.0 386.5 423.5Q397.0 412.0 411.0 404.0Q425.0 396.0 439.5 391.5Q454.0 387.0 465.0 384.0Q476.0 381.0 482.5 376.5Q489.0 372.0 491.0 365.0Q493.0 358.0 492.5 346.5Q492.0 335.0 492.0 319.5Q492.0 304.0 495.0 288.0Q498.0 272.0 505.5 258.5Q513.0 245.0 524.5 237.0Q536.0 229.0 549.0 228.5Q562.0 228.0 574.5 235.5Q587.0 243.0 597.0 256.0Q607.0 269.0 613.0 284.0Q619.0 299.0 623.0 312.0Q627.0 325.0 630.0 334.0Q633.0 343.0 638.5 347.0Q644.0 351.0 653.5 351.5Q663.0 352.0 677.0 351.5Q691.0 351.0 707.0 352.5Q723.0 354.0 738.5 359.0Q754.0 364.0 765.5 373.5Q777.0 383.0 781.0 395.5Q785.0 408.0 781.0 421.5Q777.0 435.0 766.5 446.5Q756.0 458.0 741.5 466.0Q727.0 474.0 712.5 479.0Q698.0 484.0 687.0 487.0Q676.0 490.0 669.0 494.5Q662.0 499.0 660.0 506.0Q658.0 513.0 658.5 525.0Q659.0 537.0 659.0 552.5Q659.0 568.0 656.0 584.0Q653.0 600.0 645.5 614.0Q638.0 628.0 626.5 636.0Q615.0 644.0 601.5 644.5Q588.0 645.0 575.5 637.5Q563.0 630.0 553.0 617.0Q543.0 604.0 536.5 589.0Q530.0 574.0 526.0 560.5Q522.0 547.0 519.0 537.5Q516.0 528.0 510.5 524.0Q505.0 520.0 495.0 519.5Q485.0 519.0 471.5 519.5Q458.0 520.0 441.5 519.0Q425.0 518.0 409.0 512.5Q393.0 507.0 381.5 497.5Q370.0 488.0 366.0 475.0Q362.0 462.0 365.5 448.5Q369.0 435.0 380.0 423.5Q391.0 412.0 405.5 403.5Q420.0 395.0 435.0 390.0Q450.0 385.0 461.5 382.0Q473.0 379.0 479.5 374.5Q486.0 370.0 488.0 362.5Q490.0 355.0 489.5 343.5Q489.0 332.0 489.5 316.0Q490.0 300.0 493.0 283.5Q496.0 267.0 503.5 253.0Q511.0 239.0 522.5 230.5Q534.0 222.0 548.0 222.0Q562.0 222.0 574.5 229.5Q587.0 237.0 597.5 250.5Q608.0 264.0 614.5 279.0Q621.0 294.0 624.5 308.0Q628.0 322.0 631.5 331.0Q635.0 340.0 641.0 344.0Q647.0 348.0 656.5 348.5Q666.0 349.0 680.0 348.5Q694.0 348.0 711.0 349.5Q728.0 351.0 744.0 356.5Q760.0 362.0 771.5 372.0Q783.0 382.0 787.5 395.0Q792.0 408.0 788.0 421.5Q784.0 435.0 773.0 447.0Q762.0 459.0 747.0 467.0Q732.0 475.0 717.0 480.0Q702.0 485.0 690.5 488.5Q679.0 492.0 672.0 496.5Q665.0 501.0 663.0 508.5Q661.0 516.0 661.5 528.0Q662.0 540.0 662.0 556.0Q662.0 572.0 658.5 589.0Q655.0 606.0 647.5 620.0Q640.0 634.0 628.0 642.5Q616.0 651.0 602.5 651.0Q589.0 651.0 575.5 643.5Q562.0 636.0 552.0 622.5Q542.0 609.0 535.5 593.5Q529.0 578.0 525.0 564.0Q521.0 550.0 517.5 540.5Q514.0 531.0 508.0 527.0Q502.0 523.0 492.5 522.5Q483.0 522.0 468.5 522.5Q454.0 523.0 437.0 521.5Q420.0 520.0 404.0 514.5Q388.0 509.0 376.0 499.0Q364.0 489.0 359.5 476.0Q355.0 463.0 359.0 449.0Q363.0 435.0 374.0 423.0Q385.0 411.0 400.0 402.5Q415.0 394.0 430.5 389.0Q446.0 384.0 458.0 380.5Q470.0 377.0 476.5 372.5Q483.0 368.0 485.5 360.5Q488.0 353.0 487.5 340.5Q487.0 328.0 487.0 312.0Q487.0 296.0 490.5 279.0Q494.0 262.0 501.5 247.5Q509.0 233.0 521.0 224.5Q533.0 216.0 547.0 215.5Q561.0 215.0 574.5 223.0Q588.0 231.0 598.5 244.5Q609.0 258.0 615.5 274.0Q622.0 290.0 626.0 304.0Q630.0 318.0 633.5 327.5Q637.0 337.0 643.0 341.5Q649.0 346.0 659.0 346.5Q669.0 347.0 683.5 346.5Q698.0 346.0 715.0 347.5Q732.0 349.0 748.5 354.5Q765.0 360.0 777.0 370.0Q789.0 380.0 793.5 393.5Q798.0 407.0 794.0 421.0Q790.0 435.0 779.0 447.0Q768.0 459.0 752.5 468.0Q737.0 477.0 721.5 482.0Q706.0 487.0 694.0 490.5Q682.0 494.0 675.0 498.5Q668.0 503.0 666.0 510.5Q664.0 518.0 664.5 530.5Q665.0 543.0 664.5 559.5Q664.0 576.0 661.0 593.5Q658.0 611.0 650.0 625.5Q642.0 640.0 629.5 648.5Q617.0 657.0 603.0 657.5Q589.0 658.0 575.5 650.0Q562.0 642.0 551.5 628.0Q541.0 614.0 534.0 598.0Q527.0 582.0 523.0 568.0Q519.0 554.0 515.5 544.0Q512.0 534.0 506.0 529.5Q500.0 525.0 490.0 524.5Q480.0 524.0 465.0 525.0Q450.0 526.0 432.5 524.5Q415.0 523.0 398.5 517.0Q382.0 511.0 370.0 501.0Q358.0 491.0 353.5 477.5Q349.0 464.0 353.0 449.5Q357.0 435.0 368.5 422.5Q380.0 410.0 395.5 401.5Q411.0 393.0 426.5 387.5Q442.0 382.0 454.5 378.5Q467.0 375.0 474.0 370.5Q481.0 366.0 483.0 358.5Q485.0 351.0 484.5 338.0Q484.0 325.0 484.0 308.5Q484.0 292.0 487.5 274.5Q491.0 257.0 499.0 242.0Q507.0 227.0 519.5 218.0Q532.0 209.0 546.5 209.0Q561.0 209.0 574.5 217.0Q588.0 225.0 599.0 239.0Q610.0 253.0 616.5 269.5Q623.0 286.0 627.5 300.5Q632.0 315.0 635.5 324.5Q639.0 334.0 645.0 338.5Q651.0 343.0 661.5 343.5Q672.0 344.0 687.0 343.5Q702.0 343.0 719.5 344.5Q737.0 346.0 754.0 351.5Q771.0 357.0 783.0 367.5Q795.0 378.0 800.0 392.0Q805.0 406.0 800.5 420.5Q796.0 435.0 784.5 447.5Q773.0 460.0 757.5 469.0Q742.0 478.0 726.0 483.0Q710.0 488.0 697.5 491.5Q685.0 495.0 678.0 500.0Q671.0 505.0 668.5 513.0Q666.0 521.0 666.5 533.5Q667.0 546.0 667.0 563.0Q667.0 580.0 663.5 598.0Q660.0 616.0 652.0 631.0Q644.0 646.0 631.5 655.0Q619.0 664.0 604.0 664.0Q589.0 664.0 575.5 656.0Q562.0 648.0 551.0 633.5Q540.0 619.0 533.0 602.5Q526.0 586.0 522.0 571.5Q518.0 557.0 514.0 547.0Q510.0 537.0 504.0 532.5Q498.0 528.0 487.5 527.5Q477.0 527.0 462.0 527.5Q447.0 528.0 429.0 526.5Q411.0 525.0 393.5 519.5Q376.0 514.0 363.5 503.0Q351.0 492.0 346.5 478.0Q342.0 464.0 346.0 449.5Q350.0 435.0 362.0 422.5Q374.0 410.0 390.0 401.0Q406.0 392.0 422.0 386.5Q438.0 381.0 450.5 377.5Q463.0 374.0 470.5 369.0Q478.0 364.0 480.0 356.0Q482.0 348.0 482.0 335.0Q482.0 322.0 482.0 305.0Q482.0 288.0 485.5 270.0Q489.0 252.0 497.0 236.5Q505.0 221.0 518.0 212.0Q531.0 203.0 545.5 202.5Q560.0 202.0 574.5 210.5Q589.0 219.0 600.0 233.5Q611.0 248.0 618.0 264.5Q625.0 281.0 629.0 296.0Q633.0 311.0 637.0 321.0Q641.0 331.0 647.0 336.0Q653.0 341.0 663.5 341.5Q674.0 342.0 689.5 341.0Q705.0 340.0 723.5 341.5Q742.0 343.0 759.0 349.0Q776.0 355.0 789.0 366.0Q802.0 377.0 806.5 391.0Q811.0 405.0 807.0 420.0Q803.0 435.0 791.0 448.0Q779.0 461.0 762.5 470.0Q746.0 479.0 730.0 484.5Q714.0 490.0 701.0 493.5Q688.0 497.0 680.5 501.5Q673.0 506.0 671.0 514.5Q669.0 523.0 669.5 536.5Q670.0 550.0 670.0 567.0Q670.0 584.0 666.5 602.5Q663.0 621.0 654.5 636.5Q646.0 652.0 633.0 661.0Q620.0 670.0 605.0 670.5Q590.0 671.0 575.5 662.5Q561.0 654.0 550.0 639.5Q539.0 625.0 531.5 608.0Q524.0 591.0 520.0 576.0Q516.0 561.0 512.0 550.5Q508.0 540.0 502.0 535.5Q496.0 531.0 485.0 530.5Q474.0 530.0 458.5 530.5Q443.0 531.0 424.5 529.5Q406.0 528.0 388.5 522.0Q371.0 516.0 358.0 505.0Q345.0 494.0 340.0 479.5Q335.0 465.0 339.5 450.0Q344.0 435.0 356.0 422.0Q368.0 409.0 384.5 399.5Q401.0 390.0 417.5 384.5Q434.0 379.0 447.0 375.5Q460.0 372.0 467.5 367.5Q475.0 363.0 477.5 354.5Q480.0 346.0 479.5 332.5Q479.0 319.0 479.0 301.5Q479.0 284.0 482.5 265.0Q486.0 246.0 494.5 230.5Q503.0 215.0 516.0 205.5Q529.0 196.0 544.5 196.0Q560.0 196.0 574.5 204.5Q589.0 213.0 600.5 228.0Q612.0 243.0 619.0 260.0Q626.0 277.0 630.5 292.5Q635.0 308.0 639.0 318.0Q643.0 328.0 649.0 333.0Q655.0 338.0 666.0 338.5Q677.0 339.0 693.0 338.5Q709.0 338.0 727.5 339.5Q746.0 341.0 764.0 347.0Q782.0 353.0 795.0 364.0Q808.0 375.0 813.0 389.5Q818.0 404.0 813.5 419.5Q809.0 435.0 797.0 448.0Q785.0 461.0 768.0 470.5Q751.0 480.0 734.5 485.5Q718.0 491.0 704.5 495.0Q691.0 499.0 683.5 503.5Q676.0 508.0 673.5 517.0Q671.0 526.0 671.5 539.5Q672.0 553.0 672.0 570.5Q672.0 588.0 668.5 607.0Q665.0 626.0 656.5 642.0Q648.0 658.0 634.5 667.5Q621.0 677.0 605.5 677.0Q590.0 677.0 575.5 668.5Q561.0 660.0 549.5 645.0Q538.0 630.0 530.5 612.5Q523.0 595.0 518.5 579.5Q514.0 564.0 510.0 553.5Q506.0 543.0 500.0 538.0Q494.0 533.0 482.5 532.5Q471.0 532.0 455.0 533.0Q439.0 534.0 420.0 532.0Q401.0 530.0 383.0 524.0Q365.0 518.0 352.0 507.0Q339.0 496.0 334.0 481.0Q329.0 466.0 333.5 450.5Q338.0 435.0 350.5 421.5Q363.0 408.0 379.5 398.5Q396.0 389.0 413.0 383.5Q430.0 378.0 443.5 374.0Q457.0 370.0 465.0 365.5Q473.0 361.0 475.0 352.0Q477.0 343.0 476.5 329.5Q476.0 316.0 476.0 298.0Q476.0 280.0 480.0 260.5Q484.0 241.0 492.5 225.0Q501.0 209.0 514.5 199.5Q528.0 190.0 544.0 189.5Q560.0 189.0 574.5 198.0Q589.0 207.0 601.0 222.5Q613.0 238.0 620.5 255.5Q628.0 273.0 632.5 288.5Q637.0 304.0 640.5 315.0Q644.0 326.0 650.5 330.5Q657.0 335.0 668.5 335.5Q680.0 336.0 696.0 335.5Q712.0 335.0 731.5 336.5Q751.0 338.0 769.5 344.5Q788.0 351.0 801.0 362.5Q814.0 374.0 819.0 388.5Q824.0 403.0 819.5 419.0Q815.0 435.0 802.5 448.5Q790.0 462.0 773.0 471.5Q756.0 481.0 738.5 487.0Q721.0 493.0 707.5 497.0Q694.0 501.0 686.5 505.5Q679.0 510.0 676.5 519.0Q674.0 528.0 674.5 542.0Q675.0 556.0 675.0 574.0Q675.0 592.0 671.0 611.5Q667.0 631.0 658.0 647.5Q649.0 664.0 635.5 673.5Q622.0 683.0 606.5 683.5Q591.0 684.0 575.5 675.0Q560.0 666.0 548.5 650.5Q537.0 635.0 529.5 617.0Q522.0 599.0 517.5 583.0Q513.0 567.0 509.0 556.5Q505.0 546.0 498.0 541.0Q491.0 536.0 480.0 535.5Q469.0 535.0 452.5 535.5Q436.0 536.0 416.5 534.5Q397.0 533.0 378.5 526.5Q360.0 520.0 346.0 508.5Q332.0 497.0 327.0 482.0Q322.0 467.0 326.5 451.0Q331.0 435.0 344.0 421.0Q357.0 407.0 374.5 397.5Q392.0 388.0 409.5 382.0Q427.0 376.0 440.5 372.0Q454.0 368.0 462.0 363.5Q470.0 359.0 472.5 350.0Q475.0 341.0 474.5 327.0Q474.0 313.0 474.0 294.5Q474.0 276.0 477.5 256.0Q481.0 236.0 490.5 219.5Q500.0 203.0 513.5 193.0Q527.0 183.0 543.0 183.0Q559.0 183.0 574.5 192.0Q590.0 201.0 602.0 216.5Q614.0 232.0 621.5 250.5Q629.0 269.0 633.5 285.0Q638.0 301.0 642.0 312.0Q646.0 323.0 653.0 328.0Q660.0 333.0 671.5 333.5Q683.0 334.0 699.5 333.5Q716.0 333.0 735.5 334.5Q755.0 336.0 774.0 342.5Q793.0 349.0 807.0 360.5Q821.0 372.0 826.0 387.5Q831.0 403.0 826.5 419.0Q822.0 435.0 809.0 449.0Q796.0 463.0 778.5 473.0Q761.0 483.0 743.0 489.0Q725.0 495.0 711.5 498.5Q698.0 502.0 690.0 507.0Q682.0 512.0 679.5 521.0Q677.0 530.0 677.5 544.5Q678.0 559.0 677.5 577.5Q677.0 596.0 673.5 616.0Q670.0 636.0 660.5 653.0Q651.0 670.0 637.5 680.0Q624.0 690.0 607.5 690.0Q591.0 690.0 575.5 681.0Q560.0 672.0 548.0 656.0Q536.0 640.0 528.0 622.0Q520.0 604.0 515.5 587.5Q511.0 571.0 507.0 560.0Q503.0 549.0 496.0 544.0Q489.0 539.0 477.5 538.0Q466.0 537.0 449.0 538.0Q432.0 539.0 412.0 537.0Q392.0 535.0 373.0 529.0Q354.0 523.0 340.0 511.0Q326.0 499.0 321.0 483.5Q316.0 468.0 320.5 451.5Q325.0 435.0 338.0 421.0Q351.0 407.0 369.0 397.0Q387.0 387.0 405.0 381.0Q423.0 375.0 437.0 371.0Q451.0 367.0 459.0 362.0Q467.0 357.0 469.5 347.5Q472.0 338.0 471.5 323.5Q471.0 309.0 471.0 290.0Q471.0 271.0 475.0 251.0Q479.0 231.0 488.5 214.0Q498.0 197.0 512.0 187.0Q526.0 177.0 542.5 176.5Q559.0 176.0 574.5 185.5Q590.0 195.0 602.5 211.0Q615.0 227.0 622.5 245.5Q630.0 264.0 635.0 280.5Q640.0 297.0 644.0 308.5Q648.0 320.0 655.0 325.0Q662.0 330.0 674.0 330.5Q686.0 331.0 703.0 330.5Q720.0 330.0 740.0 331.5Q760.0 333.0 779.5 339.5Q799.0 346.0 813.0 358.0Q827.0 370.0 832.5 386.0Q838.0 402.0 833.0 418.5Q828.0 435.0 815.0 449.5Q802.0 464.0 784.0 474.0Q766.0 484.0 747.5 490.0Q729.0 496.0 715.0 500.0Q701.0 504.0 692.5 509.0Q684.0 514.0 681.5 523.5Q679.0 533.0 679.5 547.5Q680.0 562.0 680.0 581.5Q680.0 601.0 676.0 621.5Q672.0 642.0 662.5 659.0Q653.0 676.0 639.0 686.0Q625.0 696.0 608.0 696.5Q591.0 697.0 575.5 687.5Q560.0 678.0 547.5 661.5Q535.0 645.0 527.0 626.5Q519.0 608.0 514.0 591.0Q509.0 574.0 505.0 563.0Q501.0 552.0 494.0 546.5Q487.0 541.0 475.0 540.5Q463.0 540.0 445.5 540.5Q428.0 541.0 408.0 539.5Q388.0 538.0 368.0 531.5Q348.0 525.0 334.0 513.0Q320.0 501.0 314.5 485.0Q309.0 469.0 314.0 452.0Q319.0 435.0 332.5 420.5Q346.0 406.0 364.0 395.5Q382.0 385.0 400.5 379.0Q419.0 373.0 433.5 369.0Q448.0 365.0 456.0 360.0Q464.0 355.0 466.5 345.5Q469.0 336.0 468.5 321.0Q468.0 306.0 468.5 286.5Q469.0 267.0 473.0 246.5Q477.0 226.0 486.5 208.5Q496.0 191.0 510.5 180.5Q525.0 170.0 541.5 170.0Q558.0 170.0 574.0 179.5Q590.0 189.0 603.0 205.5Q616.0 222.0 624.0 241.0Q632.0 260.0 636.5 277.0Q641.0 294.0 645.5 305.5Q650.0 317.0 657.0 322.0Q664.0 327.0 676.0 328.0Q688.0 329.0 705.5 328.0Q723.0 327.0 744.0 329.0Q765.0 331.0 784.5 337.5Q804.0 344.0 818.5 356.5Q833.0 369.0 838.5 385.0Q844.0 401.0 839.0 418.0Q834.0 435.0 820.5 449.5Q807.0 464.0 788.5 474.5Q770.0 485.0 751.5 491.5Q733.0 498.0 718.5 502.0Q704.0 506.0 695.5 511.0Q687.0 516.0 684.5 525.5Q682.0 535.0 682.5 550.0Q683.0 565.0 683.0 585.0Q683.0 605.0 679.0 626.0Q675.0 647.0 665.0 664.5Q655.0 682.0 640.5 692.5Q626.0 703.0 609.0 703.0Q592.0 703.0 575.5 693.5Q559.0 684.0 546.5 667.5Q534.0 651.0 525.5 631.5Q517.0 612.0 512.5 595.0Q508.0 578.0 503.5 566.5Q499.0 555.0 492.0 549.5Q485.0 544.0 472.5 543.5Q460.0 543.0 442.5 543.5Q425.0 544.0 404.0 542.5Q383.0 541.0 363.0 534.0Q343.0 527.0 328.5 514.5Q314.0 502.0 308.5 485.5Q303.0 469.0 307.5 452.0Q312.0 435.0 326.0 420.0Q340.0 405.0 358.5 394.5Q377.0 384.0 396.0 378.0Q415.0 372.0 430.0 367.5Q445.0 363.0 453.5 358.0Q462.0 353.0 464.5 343.0Q467.0 333.0 466.5 318.0Q466.0 303.0 466.0 283.0Q466.0 263.0 470.0 242.0Q474.0 221.0 484.0 203.0Q494.0 185.0 508.5 174.5Q523.0 164.0 540.5 163.5Q558.0 163.0 574.5 173.0Q591.0 183.0 604.0 200.0Q617.0 217.0 625.0 236.5Q633.0 256.0 638.0 273.0Q643.0 290.0 647.5 302.0Q652.0 314.0 659.0 319.5Q666.0 325.0 678.5 325.5Q691.0 326.0 709.0 325.5Q727.0 325.0 748.0 326.5Q769.0 328.0 789.5 335.0Q810.0 342.0 825.0 354.5Q840.0 367.0 845.5 383.5Q851.0 400.0 846.0 417.5Q841.0 435.0 827.0 450.0Q813.0 465.0 794.0 475.5Q775.0 486.0 756.0 492.5Q737.0 499.0 722.0 503.5Q707.0 508.0 698.5 513.0Q690.0 518.0 687.0 528.0Q684.0 538.0 685.0 553.5Q686.0 569.0 685.5 589.0Q685.0 609.0 681.0 630.5Q677.0 652.0 667.0 670.0Q657.0 688.0 642.0 698.5Q627.0 709.0 609.5 709.5Q592.0 710.0 575.5 700.0Q559.0 690.0 546.0 673.0Q533.0 656.0 524.5 636.0Q516.0 616.0 511.0 598.5Q506.0 581.0 501.5 569.0Q497.0 557.0 490.0 552.0Q483.0 547.0 470.5 546.0Q458.0 545.0 439.5 546.0Q421.0 547.0 399.5 545.0Q378.0 543.0 357.5 536.0Q337.0 529.0 322.0 516.5Q307.0 504.0 301.5 487.0Q296.0 470.0 301.0 452.5Q306.0 435.0 320.0 420.0Q334.0 405.0 353.5 394.0Q373.0 383.0 392.0 376.5Q411.0 370.0 426.0 366.0Q441.0 362.0 450.0 356.5Q459.0 351.0 461.5 341.0Q464.0 331.0 463.5 315.5Q463.0 300.0 463.0 279.5Q463.0 259.0 467.5 237.5Q472.0 216.0 482.0 197.5Q492.0 179.0 507.0 168.0Q522.0 157.0 539.5 157.0Q557.0 157.0 574.0 167.0Q591.0 177.0 604.5 194.0Q618.0 211.0 626.5 231.0Q635.0 251.0 640.0 269.0Q645.0 287.0 649.5 299.0Q654.0 311.0 661.0 316.5Q668.0 322.0 681.0 322.5Q694.0 323.0 712.5 322.5Q731.0 322.0 752.5 324.0Q774.0 326.0 795.0 333.0Q816.0 340.0 831.0 352.5Q846.0 365.0 851.5 382.0Q857.0 399.0 852.0 417.0Q847.0 435.0 833.0 450.5Q819.0 466.0 799.5 477.0Q780.0 488.0 760.5 494.5Q741.0 501.0 725.5 505.0Q710.0 509.0 701.0 514.5Q692.0 520.0 689.5 530.0Q687.0 540.0 687.5 556.0Q688.0 572.0 688.0 592.5Q688.0 613.0 683.5 635.0Q679.0 657.0 669.0 675.5Q659.0 694.0 644.0 705.0Q629.0 716.0 611.0 716.0Q593.0 716.0 576.0 706.0Q559.0 696.0 545.5 678.5Q532.0 661.0 523.5 641.0Q515.0 621.0 510.0 603.0Q505.0 585.0 500.0 572.5Q495.0 560.0 488.0 554.5Q481.0 549.0 468.0 548.5Q455.0 548.0 436.5 548.5Q418.0 549.0 396.0 547.5Q374.0 546.0 353.0 538.5Q332.0 531.0 316.5 518.0Q301.0 505.0 295.0 488.0Q289.0 471.0 294.5 453.0Q300.0 435.0 314.5 419.5Q329.0 404.0 348.5 393.0Q368.0 382.0 387.5 375.5Q407.0 369.0 422.5 364.5Q438.0 360.0 447.0 354.5Q456.0 349.0 459.0 339.0Q462.0 329.0 461.5 313.0Q461.0 297.0 461.0 276.0Q461.0 255.0 465.0 232.5Q469.0 210.0 479.5 191.5Q490.0 173.0 505.5 162.0Q521.0 151.0 539.0 150.5Q557.0 150.0 574.5 160.5Q592.0 171.0 605.5 188.5Q619.0 206.0 627.5 226.5Q636.0 247.0 641.0 265.0Q646.0 283.0 650.5 295.5Q655.0 308.0 663.0 314.0Q671.0 320.0 684.0 320.5Q697.0 321.0 715.5 320.0Q734.0 319.0 756.5 321.0Q779.0 323.0 800.0 330.0Q821.0 337.0 836.5 350.5Q852.0 364.0 858.0 381.5Q864.0 399.0 858.5 417.0Q853.0 435.0 838.5 450.5Q824.0 466.0 804.5 477.5Q785.0 489.0 765.0 495.5Q745.0 502.0 729.0 506.5Q713.0 511.0 704.0 516.5Q695.0 522.0 692.5 532.5Q690.0 543.0 690.5 559.0Q691.0 575.0 691.0 596.0Q691.0 617.0 686.5 639.5Q682.0 662.0 671.5 681.0Q661.0 700.0 645.5 711.0Q630.0 722.0 611.5 722.5Q593.0 723.0 575.5 712.5Q558.0 702.0 544.5 684.0Q531.0 666.0 522.0 645.5Q513.0 625.0 508.0 606.5Q503.0 588.0 498.5 575.5Q494.0 563.0 486.0 557.5Q478.0 552.0 465.0 551.0Q452.0 550.0 433.0 551.0Q414.0 552.0 391.5 550.0Q369.0 548.0 347.5 541.0Q326.0 534.0 310.5 520.5Q295.0 507.0 289.0 489.5Q283.0 472.0 288.0 453.5Q293.0 435.0 308.0 419.0Q323.0 403.0 343.0 392.0Q363.0 381.0 383.5 374.0Q404.0 367.0 419.5 362.5Q435.0 358.0 444.0 352.5Q453.0 347.0 456.0 336.5Q459.0 326.0 458.5 309.5Q458.0 293.0 458.0 272.0Q458.0 251.0 462.5 228.0Q467.0 205.0 477.5 186.0Q488.0 167.0 504.0 155.5Q520.0 144.0 538.5 144.0Q557.0 144.0 574.5 154.5Q592.0 165.0 606.0 183.0Q620.0 201.0 628.5 222.0Q637.0 243.0 642.5 261.5Q648.0 280.0 652.5 292.5Q657.0 305.0 665.0 311.0Q673.0 317.0 686.0 317.5Q699.0 318.0 718.5 317.5Q738.0 317.0 760.5 318.5Q783.0 320.0 805.0 327.5Q827.0 335.0 843.0 348.5Q859.0 362.0 864.5 380.0Q870.0 398.0 865.0 416.5Q860.0 435.0 845.0 451.0Q830.0 467.0 809.5 478.5Q789.0 490.0 768.5 497.0Q748.0 504.0 732.0 508.5Q716.0 513.0 707.0 518.5Q698.0 524.0 695.0 534.5Q692.0 545.0 692.5 561.5Q693.0 578.0 693.0 599.5Q693.0 621.0 688.5 644.0Q684.0 667.0 673.5 686.5Q663.0 706.0 647.0 717.5Q631.0 729.0 612.5 729.0Q594.0 729.0 576.0 718.5Q558.0 708.0 544.0 690.0Q530.0 672.0 521.0 650.5Q512.0 629.0 506.5 610.5Q501.0 592.0 496.5 579.0Q492.0 566.0 484.0 560.0Q476.0 554.0 462.5 553.5Q449.0 553.0 429.5 554.0Q410.0 555.0 387.0 553.0Q364.0 551.0 342.0 543.5Q320.0 536.0 304.0 522.5Q288.0 509.0 282.0 491.0Q276.0 473.0 281.5 454.0Q287.0 435.0 302.0 418.5Q317.0 402.0 337.5 390.5Q358.0 379.0 379.0 372.5Q400.0 366.0 416.0 361.0Q432.0 356.0 441.5 350.5Q451.0 345.0 453.5 334.5Q456.0 324.0 455.5 307.0Q455.0 290.0 455.5 268.5Q456.0 247.0 460.5 223.5Q465.0 200.0 475.5 180.5Q486.0 161.0 502.0 149.5Q518.0 138.0 537.0 137.5Q556.0 137.0 574.0 148.0Q592.0 159.0 606.5 177.5Q621.0 196.0 630.0 217.5Q639.0 239.0 644.5 258.0Q650.0 277.0 654.5 289.5Q659.0 302.0 667.0 308.0Q675.0 314.0 688.5 315.0Q702.0 316.0 721.5 315.0Q741.0 314.0 764.5 316.0Q788.0 318.0 810.0 325.5Q832.0 333.0 848.5 347.0Q865.0 361.0 871.0 379.0Q877.0 397.0 871.5 416.0Q866.0 435.0 851.0 451.5Q836.0 468.0 815.0 479.5Q794.0 491.0 773.0 498.0Q752.0 505.0 735.5 509.5Q719.0 514.0 710.0 520.0Q701.0 526.0 698.0 537.0Q695.0 548.0 695.5 564.5Q696.0 581.0 696.0 603.0Q696.0 625.0 691.5 648.5Q687.0 672.0 676.0 692.0Q665.0 712.0 648.5 723.5Q632.0 735.0 613.0 735.5Q594.0 736.0 575.5 725.0Q557.0 714.0 543.0 695.5Q529.0 677.0 519.5 655.5Q510.0 634.0 505.0 614.5Q500.0 595.0 495.0 582.0Q490.0 569.0 482.0 563.0Q474.0 557.0 460.0 556.5Q446.0 556.0 426.5 556.5Q407.0 557.0 383.5 555.0Q360.0 553.0 337.5 545.5Q315.0 538.0 298.5 524.0Q282.0 510.0 276.0 492.0Q270.0 474.0 275.5 454.5Q281.0 435.0 296.5 418.5Q312.0 402.0 333.0 390.0Q354.0 378.0 375.0 371.0Q396.0 364.0 412.5 359.5Q429.0 355.0 438.5 349.0Q448.0 343.0 451.0 332.0Q454.0 321.0 453.5 304.0Q453.0 287.0 453.0 265.0Q453.0 243.0 457.5 219.0Q462.0 195.0 473.0 175.0Q484.0 155.0 500.5 143.0Q517.0 131.0 536.5 131.0Q556.0 131.0 574.5 142.0Q593.0 153.0 607.5 172.0Q622.0 191.0 631.0 212.5Q640.0 234.0 645.5 253.5Q651.0 273.0 656.0 286.5Q661.0 300.0 669.0 306.0Q677.0 312.0 691.0 312.5Q705.0 313.0 725.0 312.0Q745.0 311.0 769.0 313.0Q793.0 315.0 815.5 323.0Q838.0 331.0 854.5 345.0Q871.0 359.0 877.5 377.5Q884.0 396.0 878.0 415.5Q872.0 435.0 856.5 452.0Q841.0 469.0 820.0 480.5Q799.0 492.0 777.5 499.5Q756.0 507.0 739.5 511.5Q723.0 516.0 713.0 522.0Q703.0 528.0 700.0 539.0Q697.0 550.0 698.0 567.0Q699.0 584.0 698.5 606.5Q698.0 629.0 693.5 653.5Q689.0 678.0 678.0 698.0Q667.0 718.0 650.5 730.0Q634.0 742.0 614.0 742.0Q594.0 742.0 575.5 731.0Q557.0 720.0 542.5 701.0Q528.0 682.0 518.5 660.0Q509.0 638.0 503.5 618.5Q498.0 599.0 493.0 585.5Q488.0 572.0 480.0 566.0Q472.0 560.0 458.0 559.0Q444.0 558.0 423.5 559.0Q403.0 560.0 379.0 558.0Q355.0 556.0 332.0 548.0Q309.0 540.0 292.5 526.0Q276.0 512.0 269.5 493.0Q263.0 474.0 268.5 454.5Q274.0 435.0 290.0 418.0Q306.0 401.0 327.5 389.0Q349.0 377.0 370.5 370.0Q392.0 363.0 409.0 358.0Q426.0 353.0 435.5 347.0Q445.0 341.0 448.0 330.0Q451.0 319.0 450.5 301.5Q450.0 284.0 450.0 261.0Q450.0 238.0 455.0 214.0Q460.0 190.0 471.0 169.5Q482.0 149.0 499.0 137.0Q516.0 125.0 535.5 124.5Q555.0 124.0 574.0 135.5Q593.0 147.0 608.0 166.0Q623.0 185.0 632.5 207.5Q642.0 230.0 647.5 250.0Q653.0 270.0 658.0 283.5Q663.0 297.0 671.0 303.0Q679.0 309.0 693.5 309.5Q708.0 310.0 728.5 309.5Q749.0 309.0 773.0 311.0Q797.0 313.0 820.5 321.0Q844.0 329.0 860.5 343.0Q877.0 357.0 883.5 376.0Q890.0 395.0 884.5 415.0Q879.0 435.0 863.0 452.0Q847.0 469.0 825.5 481.5Q804.0 494.0 782.0 501.0Q760.0 508.0 743.0 513.0Q726.0 518.0 716.0 524.0Q706.0 530.0 703.0 541.0Q700.0 552.0 700.5 570.0Q701.0 588.0 701.0 611.0Q701.0 634.0 696.5 658.5Q692.0 683.0 680.5 703.5Q669.0 724.0 652.0 736.0Q635.0 748.0 615.0 748.5Q595.0 749.0 576.0 737.5Q557.0 726.0 542.0 706.5Q527.0 687.0 517.5 664.5Q508.0 642.0 502.0 622.0Q496.0 602.0 491.0 588.5Q486.0 575.0 478.0 568.5Q470.0 562.0 455.5 561.5Q441.0 561.0 420.0 562.0Q399.0 563.0 374.5 560.5Q350.0 558.0 326.5 550.0Q303.0 542.0 286.0 527.5Q269.0 513.0 263.0 494.0Q257.0 475.0 262.5 455.0Q268.0 435.0 284.0 417.5Q300.0 400.0 322.0 388.0Q344.0 376.0 366.0 368.5Q388.0 361.0 405.5 356.0Q423.0 351.0 433.0 345.0Q443.0 339.0 446.0 327.5Q449.0 316.0 448.0 298.5Q447.0 281.0 447.5 257.5Q448.0 234.0 452.5 209.5Q457.0 185.0 468.5 164.0Q480.0 143.0 497.5 130.5Q515.0 118.0 535.0 118.0Q555.0 118.0 574.5 129.5Q594.0 141.0 609.0 160.5Q624.0 180.0 633.5 203.0Q643.0 226.0 648.5 246.0Q654.0 266.0 659.5 280.0Q665.0 294.0 673.0 300.0Q681.0 306.0 695.5 307.0Q710.0 308.0 731.0 307.0Q752.0 306.0 777.0 308.0Q802.0 310.0 825.5 318.0Q849.0 326.0 866.5 341.0Q884.0 356.0 890.5 375.0Q897.0 394.0 891.0 414.5Q885.0 435.0 869.0 452.5Q853.0 470.0 830.5 482.5Q808.0 495.0 786.0 502.5Q764.0 510.0 746.5 515.0Q729.0 520.0 719.0 526.0Q709.0 532.0 706.0 543.5Q703.0 555.0 703.5 573.0Q704.0 591.0 704.0 614.5Q704.0 638.0 699.0 663.0Q694.0 688.0 682.5 709.0Q671.0 730.0 653.5 742.5Q636.0 755.0 615.5 755.0Q595.0 755.0 575.5 743.5Q556.0 732.0 541.0 712.5Q526.0 693.0 516.0 669.5Q506.0 646.0 500.5 626.0Q495.0 606.0 489.5 592.0Q484.0 578.0 475.5 571.5Q467.0 565.0 452.5 564.0Q438.0 563.0 417.0 564.0Q396.0 565.0 371.0 563.0Q346.0 561.0 322.0 553.0Q298.0 545.0 280.5 530.0Q263.0 515.0 256.5 495.5Q250.0 476.0 256.0 455.5Q262.0 435.0 278.5 417.5Q295.0 400.0 317.0 387.0Q339.0 374.0 361.5 366.5Q384.0 359.0 402.0 354.5Q420.0 350.0 430.0 343.5Q440.0 337.0 443.0 325.5Q446.0 314.0 445.5 296.0Q445.0 278.0 445.0 254.0Q445.0 230.0 450.0 205.0Q455.0 180.0 466.5 158.5Q478.0 137.0 495.5 124.5Q513.0 112.0 534.0 111.5Q555.0 111.0 574.5 123.0Q594.0 135.0 609.5 155.0Q625.0 175.0 634.5 198.0Q644.0 221.0 650.0 242.0Q656.0 263.0 661.0 277.0Q666.0 291.0 675.0 297.5Q684.0 304.0 698.5 304.5Q713.0 305.0 734.5 304.5Q756.0 304.0 781.0 306.0Q806.0 308.0 830.5 316.0Q855.0 324.0 872.5 339.0Q890.0 354.0 896.5 374.0Q903.0 394.0 897.0 414.5Q891.0 435.0 874.5 453.0Q858.0 471.0 835.5 483.5Q813.0 496.0 790.5 503.5Q768.0 511.0 750.0 516.0Q732.0 521.0 722.0 527.5Q712.0 534.0 708.5 545.5Q705.0 557.0 705.5 575.5Q706.0 594.0 706.0 618.0Q706.0 642.0 701.0 667.5Q696.0 693.0 684.5 714.5Q673.0 736.0 655.0 748.5Q637.0 761.0 616.5 761.5Q596.0 762.0 576.0 750.5Q556.0 739.0 540.5 718.5Q525.0 698.0 515.0 674.5Q505.0 651.0 499.0 630.0Q493.0 609.0 488.0 595.0Q483.0 581.0 474.0 574.5Q465.0 568.0 450.0 567.0Q435.0 566.0 413.5 567.0Q392.0 568.0 366.5 566.0Q341.0 564.0 316.5 555.5Q292.0 547.0 274.5 532.0Q257.0 517.0 250.0 497.0Q243.0 477.0 249.0 456.0Q255.0 435.0 272.0 417.0Q289.0 399.0 312.0 386.0Q335.0 373.0 357.5 365.5Q380.0 358.0 398.0 353.0Q416.0 348.0 426.5 341.5Q437.0 335.0 440.0 323.5Q443.0 312.0 442.5 293.0Q442.0 274.0 442.0 250.0Q442.0 226.0 447.0 200.0Q452.0 174.0 464.0 152.5Q476.0 131.0 494.0 118.0Q512.0 105.0 533.0 105.0Q554.0 105.0 574.0 116.5Q594.0 128.0 610.0 149.0Q626.0 170.0 636.0 193.5Q646.0 217.0 652.0 238.0Q658.0 259.0 663.0 273.5Q668.0 288.0 677.0 294.5Q686.0 301.0 701.0 302.0Q716.0 303.0 738.0 302.0Q760.0 301.0 785.5 303.0Q811.0 305.0 836.0 313.5Q861.0 322.0 878.5 337.0Q896.0 352.0 903.0 372.5Q910.0 393.0 904.0 414.0Q898.0 435.0 881.0 453.0Q864.0 471.0 841.0 484.0Q818.0 497.0 794.5 505.0Q771.0 513.0 753.0 518.0Q735.0 523.0 724.5 529.5Q714.0 536.0 711.0 548.0Q708.0 560.0 708.5 578.5Q709.0 597.0 709.0 621.5Q709.0 646.0 704.0 672.0Q699.0 698.0 687.0 720.0Q675.0 742.0 656.5 755.0Q638.0 768.0 617.0 768.5Q596.0 769.0 576.0 757.0Q556.0 745.0 540.0 724.0Q524.0 703.0 514.0 679.0Q504.0 655.0 498.0 633.5Q492.0 612.0 486.5 597.5Q481.0 583.0 472.0 576.5Q463.0 570.0 448.0 569.5Q433.0 569.0 411.0 569.5Q389.0 570.0 363.0 568.0Q337.0 566.0 312.0 557.5Q287.0 549.0 268.5 533.5Q250.0 518.0 243.5 498.0Q237.0 478.0 243.0 456.5Q249.0 435.0 266.0 416.5Q283.0 398.0 306.5 385.0Q330.0 372.0 353.5 364.0Q377.0 356.0 395.0 351.0Q413.0 346.0 423.5 339.5Q434.0 333.0 437.5 321.0Q441.0 309.0 440.5 290.0Q440.0 271.0 440.0 246.5Q440.0 222.0 445.0 195.5Q450.0 169.0 462.0 147.0Q474.0 125.0 492.5 112.0Q511.0 99.0 532.5 98.5Q554.0 98.0 574.5 110.0Q595.0 122.0 611.0 143.0Q627.0 164.0 637.0 188.5Q647.0 213.0 653.0 234.5Q659.0 256.0 664.5 270.5Q670.0 285.0 679.0 291.5Q688.0 298.0 703.5 299.0Q719.0 300.0 741.0 299.0Q763.0 298.0 789.5 300.5Q816.0 303.0 841.0 311.5Q866.0 320.0 884.5 335.5Q903.0 351.0 909.5 371.5Q916.0 392.0 910.0 413.5Q904.0 435.0 887.0 453.5Q870.0 472.0 846.5 485.5Q823.0 499.0 799.0 506.5Q775.0 514.0 756.5 519.5Q738.0 525.0 727.5 531.5Q717.0 538.0 713.5 550.0Q710.0 562.0 711.0 581.0Q712.0 600.0 711.5 625.0Q711.0 650.0 706.0 676.5Q701.0 703.0 689.0 725.5Q677.0 748.0 658.5 761.0Q640.0 774.0 618.0 774.5Q596.0 775.0 575.5 763.0Q555.0 751.0 539.0 729.5Q523.0 708.0 512.5 683.5Q502.0 659.0 496.0 637.5Q490.0 616.0 484.5 601.0Q479.0 586.0 470.0 579.5Q461.0 573.0 445.5 572.0Q430.0 571.0 407.5 572.0Q385.0 573.0 358.5 571.0Q332.0 569.0 306.5 560.0Q281.0 551.0 262.5 535.5Q244.0 520.0 237.0 499.5Q230.0 479.0 236.5 457.0Q243.0 435.0 260.5 416.0Q278.0 397.0 301.5 384.0Q325.0 371.0 349.0 363.0Q373.0 355.0 391.5 349.5Q410.0 344.0 421.0 337.5Q432.0 331.0 435.0 319.0Q438.0 307.0 437.5 287.5Q437.0 268.0 437.0 243.0Q437.0 218.0 442.5 191.0Q448.0 164.0 460.0 141.5Q472.0 119.0 491.0 105.5Q510.0 92.0 531.5 92.0Q553.0 92.0 574.0 104.0Q595.0 116.0 611.5 137.5Q628.0 159.0 638.5 184.0Q649.0 209.0 655.0 230.5Q661.0 252.0 666.5 267.0Q672.0 282.0 681.0 289.0Q690.0 296.0 706.0 296.5Q722.0 297.0 744.5 296.5Q767.0 296.0 793.5 298.0Q820.0 300.0 846.0 309.0Q872.0 318.0 890.5 333.5Q909.0 349.0 916.0 370.0Q923.0 391.0 916.5 413.0Q910.0 435.0 892.5 454.0Q875.0 473.0 851.0 486.5Q827.0 500.0 803.0 508.0Q779.0 516.0 760.0 521.0Q741.0 526.0 730.5 533.0Q720.0 540.0 716.5 552.5Q713.0 565.0 713.5 584.0Q714.0 603.0 714.0 628.5Q714.0 654.0 709.0 681.0Q704.0 708.0 691.5 731.0Q679.0 754.0 660.0 767.5Q641.0 781.0 619.0 781.5Q597.0 782.0 576.0 769.5Q555.0 757.0 538.5 735.0Q522.0 713.0 511.5 688.5Q501.0 664.0 494.5 641.5Q488.0 619.0 482.5 604.0Q477.0 589.0 468.0 582.0Q459.0 575.0 443.0 574.5Q427.0 574.0 404.0 575.0Q381.0 576.0 354.0 573.5Q327.0 571.0 301.0 562.5Q275.0 554.0 256.5 538.0Q238.0 522.0 231.0 500.5Q224.0 479.0 230.0 457.0Q236.0 435.0 254.0 416.0Q272.0 397.0 296.0 383.5Q320.0 370.0 344.5 361.5Q369.0 353.0 388.0 348.0Q407.0 343.0 418.0 336.0Q429.0 329.0 432.5 316.5Q436.0 304.0 435.0 284.5Q434.0 265.0 434.5 239.5Q435.0 214.0 440.0 186.5Q445.0 159.0 457.5 136.0Q470.0 113.0 489.0 99.5Q508.0 86.0 530.5 85.5Q553.0 85.0 574.0 97.5Q595.0 110.0 612.0 132.0Q629.0 154.0 639.5 179.0Q650.0 204.0 656.5 226.5Q663.0 249.0 668.5 264.0Q674.0 279.0 683.0 286.0Q692.0 293.0 708.0 294.0Q724.0 295.0 747.0 294.0Q770.0 293.0 797.5 295.5Q825.0 298.0 851.0 306.5Q877.0 315.0 896.0 331.5Q915.0 348.0 922.5 369.0Q930.0 390.0 923.5 412.5Q917.0 435.0 899.0 454.5Q881.0 474.0 856.5 487.5Q832.0 501.0 807.5 509.0Q783.0 517.0 764.0 522.5Q745.0 528.0 733.5 535.0Q722.0 542.0 719.0 554.5Q716.0 567.0 716.5 587.0Q717.0 607.0 717.0 632.5Q717.0 658.0 711.5 686.0Q706.0 714.0 693.5 737.0Q681.0 760.0 661.5 773.5Q642.0 787.0 619.5 787.5Q597.0 788.0 575.5 775.5Q554.0 763.0 537.5 741.0Q521.0 719.0 510.0 693.5Q499.0 668.0 493.0 645.5Q487.0 623.0 481.0 607.5Q475.0 592.0 466.0 585.0Q457.0 578.0 440.5 577.5Q424.0 577.0 401.0 577.5Q378.0 578.0 350.5 576.0Q323.0 574.0 296.5 565.0Q270.0 556.0 251.0 539.5Q232.0 523.0 224.5 501.5Q217.0 480.0 223.5 457.5Q230.0 435.0 248.0 415.5Q266.0 396.0 291.0 382.0Q316.0 368.0 340.5 360.0Q365.0 352.0 384.5 346.5Q404.0 341.0 415.0 334.0Q426.0 327.0 429.5 314.5Q433.0 302.0 432.5 282.0Q432.0 262.0 432.0 236.0Q432.0 210.0 437.5 182.0Q443.0 154.0 455.5 130.5Q468.0 107.0 487.5 93.0Q507.0 79.0 530.0 79.0Q553.0 79.0 574.5 91.5Q596.0 104.0 613.0 126.5Q630.0 149.0 640.5 174.5Q651.0 200.0 657.5 222.5Q664.0 245.0 670.0 260.5Q676.0 276.0 685.0 283.5Q694.0 291.0 710.5 291.5Q727.0 292.0 750.5 291.0Q774.0 290.0 802.0 292.5Q830.0 295.0 856.5 304.0Q883.0 313.0 902.5 329.5Q922.0 346.0 929.0 367.5Q936.0 389.0 929.5 412.0Q923.0 435.0 905.0 454.5Q887.0 474.0 862.0 488.0Q837.0 502.0 812.0 510.5Q787.0 519.0 767.5 524.5Q748.0 530.0 736.5 537.0Q725.0 544.0 721.5 556.5Q718.0 569.0 719.0 589.5Q720.0 610.0 719.5 636.0Q719.0 662.0 713.5 690.5Q708.0 719.0 695.5 742.5Q683.0 766.0 663.0 780.0Q643.0 794.0 620.5 794.5Q598.0 795.0 576.0 782.0Q554.0 769.0 537.0 746.5Q520.0 724.0 509.0 698.0Q498.0 672.0 491.5 649.0Q485.0 626.0 479.0 610.5Q473.0 595.0 463.5 588.0Q454.0 581.0 438.0 580.0Q422.0 579.0 398.0 580.0Q374.0 581.0 346.0 578.5Q318.0 576.0 291.0 567.0Q264.0 558.0 244.5 541.5Q225.0 525.0 218.0 503.0Q211.0 481.0 217.5 458.0Q224.0 435.0 242.5 415.0Q261.0 395.0 286.0 381.0Q311.0 367.0 336.0 358.5Q361.0 350.0 381.0 344.5Q401.0 339.0 412.0 332.0Q423.0 325.0 426.5 312.0Q430.0 299.0 429.5 279.0Q429.0 259.0 429.0 232.5Q429.0 206.0 434.5 177.5Q440.0 149.0 453.0 125.0Q466.0 101.0 486.0 87.0Q506.0 73.0 529.0 72.5Q552.0 72.0 574.0 85.0Q596.0 98.0 613.5 121.0Q631.0 144.0 642.0 170.0Q653.0 196.0 659.5 219.0Q666.0 242.0 671.5 258.0Q677.0 274.0 687.0 281.0Q697.0 288.0 713.5 289.0Q730.0 290.0 754.0 289.0Q778.0 288.0 806.0 290.0Q834.0 292.0 861.5 301.5Q889.0 311.0 908.5 327.5Q928.0 344.0 935.5 366.5Q943.0 389.0 936.0 412.0Q929.0 435.0 910.5 455.0Q892.0 475.0 867.0 489.0Q842.0 503.0 816.5 511.5Q791.0 520.0 771.0 526.0Q751.0 532.0 739.5 539.0Q728.0 546.0 724.5 559.0Q721.0 572.0 721.5 592.5Q722.0 613.0 722.0 640.0Q722.0 667.0 716.5 695.5Q711.0 724.0 698.0 748.0Q685.0 772.0 665.0 786.0Q645.0 800.0 621.5 800.5Q598.0 801.0 576.0 788.0Q554.0 775.0 536.5 752.0Q519.0 729.0 508.0 702.5Q497.0 676.0 490.0 653.0Q483.0 630.0 477.5 614.0Q472.0 598.0 462.0 590.5Q452.0 583.0 435.5 582.5Q419.0 582.0 394.5 583.0Q370.0 584.0 341.5 581.5Q313.0 579.0 286.0 569.5Q259.0 560.0 239.0 543.0Q219.0 526.0 211.5 504.0Q204.0 482.0 210.5 458.5Q217.0 435.0 236.0 415.0Q255.0 395.0 280.5 380.5Q306.0 366.0 331.5 357.5Q357.0 349.0 377.5 343.0Q398.0 337.0 409.5 330.0Q421.0 323.0 424.5 310.0Q428.0 297.0 427.0 276.0Q426.0 255.0 426.5 228.0Q427.0 201.0 432.5 172.5Q438.0 144.0 451.0 119.5Q464.0 95.0 484.5 80.5Q505.0 66.0 528.5 66.0Q552.0 66.0 574.5 79.0Q597.0 92.0 614.5 115.0Q632.0 138.0 643.0 164.5Q654.0 191.0 660.5 215.0Q667.0 239.0 673.0 255.0Q679.0 271.0 689.0 278.0Q699.0 285.0 716.0 286.0Q733.0 287.0 757.0 286.0Q781.0 285.0 810.0 287.5Q839.0 290.0 866.5 299.5Q894.0 309.0 914.0 326.0Q934.0 343.0 941.5 365.5Q949.0 388.0 942.5 411.5Q936.0 435.0 917.0 455.5Q898.0 476.0 872.0 490.5Q846.0 505.0 820.5 513.5Q795.0 522.0 774.5 527.5Q754.0 533.0 742.5 540.5Q731.0 548.0 727.0 561.0Q723.0 574.0 724.0 595.0Q725.0 616.0 725.0 643.5Q725.0 671.0 719.0 700.0Q713.0 729.0 700.0 753.5Q687.0 778.0 666.5 792.5Q646.0 807.0 622.0 807.5Q598.0 808.0 575.5 794.5Q553.0 781.0 535.5 757.5Q518.0 734.0 506.5 707.5Q495.0 681.0 488.5 657.0Q482.0 633.0 476.0 617.0Q470.0 601.0 460.0 593.5Q450.0 586.0 433.0 585.0Q416.0 584.0 391.5 585.0Q367.0 586.0 338.0 583.5Q309.0 581.0 281.0 571.5Q253.0 562.0 233.0 545.0Q213.0 528.0 205.5 505.5Q198.0 483.0 204.5 459.0Q211.0 435.0 230.0 414.5Q249.0 394.0 275.0 379.5Q301.0 365.0 327.5 356.0Q354.0 347.0 374.0 341.5Q394.0 336.0 406.0 328.5Q418.0 321.0 421.5 307.5Q425.0 294.0 424.5 273.0Q424.0 252.0 424.0 224.5Q424.0 197.0 429.5 167.5Q435.0 138.0 448.5 113.5Q462.0 89.0 482.5 74.5Q503.0 60.0 527.0 59.5Q551.0 59.0 574.0 72.5Q597.0 86.0 615.0 109.5Q633.0 133.0 644.5 160.0Q656.0 187.0 662.5 211.0Q669.0 235.0 675.0 251.5Q681.0 268.0 691.0 275.5Q701.0 283.0 718.0 283.5Q735.0 284.0 760.0 283.0Q785.0 282.0 814.5 284.5Q844.0 287.0 872.0 296.5Q900.0 306.0 920.5 323.5Q941.0 341.0 948.5 364.0Q956.0 387.0 949.0 411.0Q942.0 435.0 923.0 456.0Q904.0 477.0 877.5 491.5Q851.0 506.0 824.5 514.5Q798.0 523.0 777.5 529.0Q757.0 535.0 745.0 542.5Q733.0 550.0 729.5 563.5Q726.0 577.0 726.5 598.0Q727.0 619.0 727.0 647.0Q727.0 675.0 721.5 704.5Q716.0 734.0 702.0 759.0Q688.0 784.0 667.5 798.5Q647.0 813.0 623.0 813.5Q599.0 814.0 576.0 800.5Q553.0 787.0 535.0 763.5Q517.0 740.0 505.5 712.5Q494.0 685.0 487.0 661.0Q480.0 637.0 474.0 620.5Q468.0 604.0 458.0 596.5Q448.0 589.0 430.5 588.0Q413.0 587.0 388.0 588.0Q363.0 589.0 333.5 586.5Q304.0 584.0 275.5 574.5Q247.0 565.0 226.5 547.5Q206.0 530.0 198.5 507.0Q191.0 484.0 198.0 459.5Q205.0 435.0 224.5 414.0Q244.0 393.0 270.0 378.0Q296.0 363.0 323.0 354.5Q350.0 346.0 370.5 340.0Q391.0 334.0 403.0 326.5Q415.0 319.0 419.0 305.5Q423.0 292.0 422.0 270.5Q421.0 249.0 421.5 221.0Q422.0 193.0 427.5 163.0Q433.0 133.0 447.0 108.0Q461.0 83.0 481.5 68.0Q502.0 53.0 526.5 53.0Q551.0 53.0 574.0 66.5Q597.0 80.0 615.5 104.0Q634.0 128.0 645.5 155.5Q657.0 183.0 664.0 207.5Q671.0 232.0 677.0 248.5Q683.0 265.0 693.0 272.5Q703.0 280.0 720.5 281.0Q738.0 282.0 763.5 281.0Q789.0 280.0 818.5 282.5Q848.0 285.0 876.5 294.5Q905.0 304.0 926.0 322.0Q947.0 340.0 954.5 363.0Q962.0 386.0 955.0 410.5Q948.0 435.0 928.5 456.0Q909.0 477.0 882.5 492.0Q856.0 507.0 829.0 516.0Q802.0 525.0 781.0 531.0Q760.0 537.0 748.0 544.5Q736.0 552.0 732.5 565.5Q729.0 579.0 729.5 600.5Q730.0 622.0 730.0 650.5Q730.0 679.0 724.0 709.0Q718.0 739.0 704.0 764.5Q690.0 790.0 669.0 805.0"/>
  </g>
</svg>
