<svg version="1.1" width="1630" height="1060" xmlns="http://www.w3.org/2000/svg">
  <!-- Seed: 7141471607991972013 -->
  <!-- Size: SvgSize.Size11x17 -->
  <!-- Params:
    draw: True
    padding: 100
    spacing: 20
    points_per_step_ring: 50
    bump_range: [RangeFloat] min: 0 max: 0.1
    bump_mult: [RangeInt] min: 2 max: 20
  -->
  <g stroke="black" fill="none">
    <path d="M815.5 530.0Q816.0 530.0 816.0 530.5Q816.0 531.0 816.5 531.0Q817.0 531.0 817.0 531.5Q817.0 532.0 817.0 532.5Q817.0 533.0 816.5 533.5Q816.0 534.0 815.5 534.5Q815.0 535.0 814.5 535.5Q814.0 536.0 813.5 536.0Q813.0 536.0 812.5 536.0Q812.0 536.0 811.5 536.0Q811.0 536.0 811.0 535.5Q811.0 535.0 810.5 535.0Q810.0 535.0 809.5 535.0Q809.0 535.0 808.0 534.5Q807.0 534.0 806.5 533.5Q806.0 533.0 806.0 532.5Q806.0 532.0 806.0 531.5Q806.0 531.0 805.5 530.5Q805.0 530.0 805.0 529.5Q805.0 529.0 804.5 528.0Q804.0 527.0 804.0 526.5Q804.0 526.0 804.5 525.0Q805.0 524.0 805.0 523.5Q805.0 523.0 805.5 522.5Q806.0 522.0 806.5 521.0Q807.0 520.0 807.5 519.5Q808.0 519.0 808.5 518.0Q809.0 517.0 810.0 516.5Q811.0 516.0 811.5 516.0Q812.0 516.0 813.0 516.0Q814.0 516.0 815.0 515.5Q816.0 515.0 817.0 515.0Q818.0 515.0 819.0 514.5Q820.0 514.0 821.0 514.5Q822.0 515.0 823.0 515.5Q824.0 516.0 825.0 516.5Q826.0 517.0 826.5 517.5Q827.0 518.0 828.0 518.5Q829.0 519.0 830.5 520.0Q832.0 521.0 832.5 522.0Q833.0 523.0 833.5 524.0Q834.0 525.0 834.0 526.5Q834.0 528.0 834.0 529.0Q834.0 530.0 834.5 531.5Q835.0 533.0 835.5 534.0Q836.0 535.0 836.0 536.5Q836.0 538.0 835.0 539.5Q834.0 541.0 833.0 542.0Q832.0 543.0 831.5 544.0Q831.0 545.0 830.0 546.0Q829.0 547.0 828.5 548.5Q828.0 550.0 826.5 551.0Q825.0 552.0 824.0 553.0Q823.0 554.0 821.5 554.0Q820.0 554.0 818.0 554.0Q816.0 554.0 814.5 554.0Q813.0 554.0 811.5 554.5Q810.0 555.0 808.5 555.5Q807.0 556.0 805.0 555.5Q803.0 555.0 802.0 554.0Q801.0 553.0 799.5 551.5Q798.0 550.0 797.0 549.0Q796.0 548.0 794.0 547.0Q792.0 546.0 790.5 545.0Q789.0 544.0 788.0 542.5Q787.0 541.0 786.5 539.0Q786.0 537.0 786.5 535.5Q787.0 534.0 786.5 532.0Q786.0 530.0 785.5 528.0Q785.0 526.0 784.5 524.0Q784.0 522.0 784.5 520.0Q785.0 518.0 786.0 516.0Q787.0 514.0 788.5 513.0Q790.0 512.0 791.0 510.5Q792.0 509.0 793.5 507.0Q795.0 505.0 796.0 503.5Q797.0 502.0 798.5 500.0Q800.0 498.0 802.0 497.5Q804.0 497.0 806.5 497.0Q809.0 497.0 811.0 497.0Q813.0 497.0 815.0 496.5Q817.0 496.0 819.5 495.5Q822.0 495.0 824.5 494.5Q827.0 494.0 829.0 495.0Q831.0 496.0 833.0 497.5Q835.0 499.0 836.5 500.5Q838.0 502.0 839.5 503.5Q841.0 505.0 843.5 506.5Q846.0 508.0 848.0 509.5Q850.0 511.0 851.5 513.0Q853.0 515.0 853.0 517.5Q853.0 520.0 853.0 522.5Q853.0 525.0 853.0 527.5Q853.0 530.0 853.5 532.5Q854.0 535.0 855.0 537.5Q856.0 540.0 855.5 543.0Q855.0 546.0 853.5 548.0Q852.0 550.0 850.0 552.0Q848.0 554.0 846.5 556.0Q845.0 558.0 843.5 560.0Q842.0 562.0 840.5 564.5Q839.0 567.0 836.5 569.0Q834.0 571.0 831.5 572.0Q829.0 573.0 826.0 573.0Q823.0 573.0 820.5 573.0Q818.0 573.0 815.0 573.5Q812.0 574.0 809.0 574.5Q806.0 575.0 803.0 575.0Q800.0 575.0 797.5 574.5Q795.0 574.0 792.5 572.0Q790.0 570.0 788.0 567.5Q786.0 565.0 784.0 563.0Q782.0 561.0 779.0 559.5Q776.0 558.0 773.5 556.0Q771.0 554.0 769.5 551.5Q768.0 549.0 767.5 545.5Q767.0 542.0 767.0 539.0Q767.0 536.0 767.0 533.0Q767.0 530.0 766.5 527.0Q766.0 524.0 765.5 520.5Q765.0 517.0 765.0 513.5Q765.0 510.0 767.0 507.5Q769.0 505.0 771.5 502.5Q774.0 500.0 776.0 498.0Q778.0 496.0 780.0 493.0Q782.0 490.0 784.0 487.0Q786.0 484.0 788.5 481.5Q791.0 479.0 794.5 478.0Q798.0 477.0 801.5 477.0Q805.0 477.0 808.5 477.5Q812.0 478.0 815.0 477.5Q818.0 477.0 821.5 476.0Q825.0 475.0 829.0 475.0Q833.0 475.0 836.5 476.0Q840.0 477.0 842.5 479.5Q845.0 482.0 847.5 485.0Q850.0 488.0 852.5 490.0Q855.0 492.0 858.5 494.0Q862.0 496.0 865.0 498.5Q868.0 501.0 870.0 504.0Q872.0 507.0 872.5 511.0Q873.0 515.0 872.5 519.0Q872.0 523.0 872.0 526.5Q872.0 530.0 873.0 533.5Q874.0 537.0 874.5 541.5Q875.0 546.0 874.5 550.0Q874.0 554.0 872.0 557.0Q870.0 560.0 867.0 563.0Q864.0 566.0 861.0 568.5Q858.0 571.0 856.0 574.0Q854.0 577.0 851.5 580.5Q849.0 584.0 846.0 587.0Q843.0 590.0 839.0 591.5Q835.0 593.0 831.0 593.0Q827.0 593.0 823.0 592.5Q819.0 592.0 815.0 592.5Q811.0 593.0 807.0 594.0Q803.0 595.0 798.5 595.0Q794.0 595.0 790.0 593.5Q786.0 592.0 782.5 589.0Q779.0 586.0 776.5 583.0Q774.0 580.0 771.0 577.0Q768.0 574.0 764.0 572.0Q760.0 570.0 756.5 567.0Q753.0 564.0 750.5 560.0Q748.0 556.0 747.5 551.5Q747.0 547.0 747.5 542.5Q748.0 538.0 748.0 534.0Q748.0 530.0 747.0 525.5Q746.0 521.0 745.5 516.5Q745.0 512.0 745.5 507.5Q746.0 503.0 748.5 499.0Q751.0 495.0 754.5 492.0Q758.0 489.0 761.5 486.0Q765.0 483.0 767.5 479.0Q770.0 475.0 772.5 471.0Q775.0 467.0 778.5 464.0Q782.0 461.0 786.5 459.5Q791.0 458.0 796.0 458.0Q801.0 458.0 805.5 458.0Q810.0 458.0 815.0 457.5Q820.0 457.0 824.5 456.0Q829.0 455.0 834.0 455.0Q839.0 455.0 844.0 456.5Q849.0 458.0 852.5 461.5Q856.0 465.0 859.0 469.0Q862.0 473.0 865.5 476.0Q869.0 479.0 873.5 481.5Q878.0 484.0 882.0 487.5Q886.0 491.0 888.5 495.5Q891.0 500.0 892.0 505.0Q893.0 510.0 892.5 515.0Q892.0 520.0 892.0 525.0Q892.0 530.0 892.5 535.0Q893.0 540.0 894.0 545.5Q895.0 551.0 894.5 556.0Q894.0 561.0 891.0 565.5Q888.0 570.0 884.0 573.5Q880.0 577.0 876.0 580.5Q872.0 584.0 869.0 588.0Q866.0 592.0 863.0 596.5Q860.0 601.0 856.0 605.0Q852.0 609.0 847.0 610.5Q842.0 612.0 836.5 612.0Q831.0 612.0 825.5 611.5Q820.0 611.0 815.0 611.5Q810.0 612.0 804.5 613.5Q799.0 615.0 793.0 615.0Q787.0 615.0 782.0 613.0Q777.0 611.0 772.5 607.0Q768.0 603.0 764.5 599.0Q761.0 595.0 757.5 591.5Q754.0 588.0 749.0 584.5Q744.0 581.0 739.5 577.5Q735.0 574.0 732.0 569.0Q729.0 564.0 728.5 558.0Q728.0 552.0 728.5 546.5Q729.0 541.0 729.0 535.5Q729.0 530.0 728.0 524.5Q727.0 519.0 726.0 513.0Q725.0 507.0 725.5 501.0Q726.0 495.0 729.5 490.0Q733.0 485.0 737.5 481.0Q742.0 477.0 746.5 473.5Q751.0 470.0 754.0 465.0Q757.0 460.0 760.5 455.0Q764.0 450.0 768.5 446.0Q773.0 442.0 779.0 440.0Q785.0 438.0 791.5 438.0Q798.0 438.0 803.5 438.5Q809.0 439.0 815.0 438.5Q821.0 438.0 827.0 437.0Q833.0 436.0 839.5 435.5Q846.0 435.0 852.0 437.5Q858.0 440.0 862.5 444.0Q867.0 448.0 871.0 453.0Q875.0 458.0 879.0 462.0Q883.0 466.0 888.5 469.5Q894.0 473.0 899.0 477.0Q904.0 481.0 907.5 486.5Q911.0 492.0 911.5 498.5Q912.0 505.0 911.5 511.5Q911.0 518.0 911.0 524.0Q911.0 530.0 912.0 536.0Q913.0 542.0 914.0 549.0Q915.0 556.0 914.0 562.5Q913.0 569.0 909.5 574.5Q906.0 580.0 901.0 584.5Q896.0 589.0 891.0 593.0Q886.0 597.0 882.5 602.0Q879.0 607.0 875.0 613.0Q871.0 619.0 866.0 623.5Q861.0 628.0 854.5 630.0Q848.0 632.0 841.0 631.5Q834.0 631.0 827.5 630.5Q821.0 630.0 815.0 630.5Q809.0 631.0 802.0 632.5Q795.0 634.0 788.0 634.5Q781.0 635.0 774.5 632.5Q768.0 630.0 763.0 625.0Q758.0 620.0 753.5 615.0Q749.0 610.0 744.5 605.5Q740.0 601.0 734.0 597.0Q728.0 593.0 722.5 588.5Q717.0 584.0 713.5 578.0Q710.0 572.0 709.0 564.5Q708.0 557.0 709.0 550.0Q710.0 543.0 710.0 536.5Q710.0 530.0 708.5 523.0Q707.0 516.0 706.0 509.0Q705.0 502.0 706.0 494.5Q707.0 487.0 711.0 481.0Q715.0 475.0 720.5 470.5Q726.0 466.0 731.5 461.0Q737.0 456.0 741.0 450.5Q745.0 445.0 749.0 439.0Q753.0 433.0 759.0 428.0Q765.0 423.0 772.0 420.5Q779.0 418.0 786.5 418.5Q794.0 419.0 801.0 419.5Q808.0 420.0 815.0 419.5Q822.0 419.0 829.5 417.5Q837.0 416.0 844.5 415.5Q852.0 415.0 859.0 418.0Q866.0 421.0 872.0 426.0Q878.0 431.0 882.5 437.0Q887.0 443.0 892.0 448.0Q897.0 453.0 903.5 457.0Q910.0 461.0 916.0 466.0Q922.0 471.0 926.0 477.5Q930.0 484.0 931.0 492.0Q932.0 500.0 931.0 507.5Q930.0 515.0 930.0 522.5Q930.0 530.0 931.5 537.5Q933.0 545.0 934.0 553.0Q935.0 561.0 934.0 569.0Q933.0 577.0 928.5 583.5Q924.0 590.0 918.0 595.0Q912.0 600.0 906.0 605.0Q900.0 610.0 895.5 616.0Q891.0 622.0 886.5 629.0Q882.0 636.0 876.0 641.5Q870.0 647.0 862.0 649.0Q854.0 651.0 846.0 651.0Q838.0 651.0 830.5 650.0Q823.0 649.0 815.0 650.0Q807.0 651.0 799.0 652.5Q791.0 654.0 783.0 654.5Q775.0 655.0 767.0 652.0Q759.0 649.0 753.0 643.0Q747.0 637.0 742.0 630.5Q737.0 624.0 731.5 619.0Q726.0 614.0 719.0 609.5Q712.0 605.0 705.5 599.5Q699.0 594.0 694.5 586.5Q690.0 579.0 689.5 570.5Q689.0 562.0 689.5 554.0Q690.0 546.0 690.5 538.0Q691.0 530.0 689.5 522.0Q688.0 514.0 686.5 505.5Q685.0 497.0 686.5 488.5Q688.0 480.0 692.5 472.5Q697.0 465.0 703.5 459.5Q710.0 454.0 716.5 448.5Q723.0 443.0 728.0 436.5Q733.0 430.0 737.5 423.0Q742.0 416.0 749.0 410.0Q756.0 404.0 764.0 401.5Q772.0 399.0 781.0 399.0Q790.0 399.0 798.5 400.0Q807.0 401.0 815.0 400.5Q823.0 400.0 832.0 398.0Q841.0 396.0 850.0 396.0Q859.0 396.0 867.0 399.0Q875.0 402.0 881.5 408.5Q888.0 415.0 893.5 421.5Q899.0 428.0 905.0 434.0Q911.0 440.0 918.5 444.5Q926.0 449.0 933.0 455.0Q940.0 461.0 944.5 469.0Q949.0 477.0 950.0 486.0Q951.0 495.0 950.0 504.0Q949.0 513.0 949.0 521.5Q949.0 530.0 950.5 538.5Q952.0 547.0 953.5 556.5Q955.0 566.0 953.5 575.0Q952.0 584.0 947.0 592.0Q942.0 600.0 934.5 606.0Q927.0 612.0 920.5 617.5Q914.0 623.0 909.0 630.0Q904.0 637.0 898.5 645.0Q893.0 653.0 886.0 659.5Q879.0 666.0 870.0 668.5Q861.0 671.0 851.5 670.5Q842.0 670.0 833.0 669.0Q824.0 668.0 815.0 669.0Q806.0 670.0 797.0 672.0Q788.0 674.0 778.0 674.0Q768.0 674.0 759.0 670.5Q750.0 667.0 743.0 660.5Q736.0 654.0 730.5 646.5Q725.0 639.0 718.5 633.0Q712.0 627.0 704.0 622.0Q696.0 617.0 688.5 610.5Q681.0 604.0 676.0 595.5Q671.0 587.0 670.0 577.5Q669.0 568.0 670.0 558.0Q671.0 548.0 671.0 539.0Q671.0 530.0 669.5 520.5Q668.0 511.0 666.5 501.5Q665.0 492.0 666.5 482.0Q668.0 472.0 673.5 463.5Q679.0 455.0 687.0 449.0Q695.0 443.0 702.0 436.5Q709.0 430.0 714.5 422.5Q720.0 415.0 726.0 407.0Q732.0 399.0 739.5 392.0Q747.0 385.0 756.5 382.0Q766.0 379.0 776.0 379.5Q786.0 380.0 796.0 381.0Q806.0 382.0 815.0 381.0Q824.0 380.0 834.0 378.0Q844.0 376.0 854.5 376.0Q865.0 376.0 874.5 379.5Q884.0 383.0 891.5 390.5Q899.0 398.0 905.0 405.5Q911.0 413.0 918.0 419.5Q925.0 426.0 933.5 432.0Q942.0 438.0 950.5 444.5Q959.0 451.0 964.0 460.0Q969.0 469.0 970.0 479.5Q971.0 490.0 970.0 500.5Q969.0 511.0 968.5 520.5Q968.0 530.0 970.0 540.0Q972.0 550.0 973.5 560.5Q975.0 571.0 973.0 581.5Q971.0 592.0 965.5 600.5Q960.0 609.0 951.5 616.0Q943.0 623.0 935.5 629.5Q928.0 636.0 922.0 644.0Q916.0 652.0 910.0 661.0Q904.0 670.0 896.0 677.0Q888.0 684.0 877.5 687.5Q867.0 691.0 856.0 690.5Q845.0 690.0 835.0 689.0Q825.0 688.0 815.0 688.5Q805.0 689.0 794.5 691.5Q784.0 694.0 773.0 694.0Q762.0 694.0 752.0 690.0Q742.0 686.0 734.0 678.5Q726.0 671.0 719.0 662.5Q712.0 654.0 705.0 647.0Q698.0 640.0 689.0 634.0Q680.0 628.0 671.0 621.0Q662.0 614.0 657.0 604.5Q652.0 595.0 650.5 584.0Q649.0 573.0 650.5 562.0Q652.0 551.0 652.0 540.5Q652.0 530.0 650.5 519.5Q649.0 509.0 647.0 497.5Q645.0 486.0 647.0 475.0Q649.0 464.0 655.0 455.0Q661.0 446.0 670.0 438.5Q679.0 431.0 687.0 424.0Q695.0 417.0 701.5 408.5Q708.0 400.0 714.5 390.5Q721.0 381.0 729.5 373.5Q738.0 366.0 749.0 363.0Q760.0 360.0 771.5 360.5Q783.0 361.0 793.5 362.0Q804.0 363.0 815.0 362.0Q826.0 361.0 837.0 359.0Q848.0 357.0 860.0 356.5Q872.0 356.0 882.5 360.0Q893.0 364.0 901.5 372.5Q910.0 381.0 917.0 390.0Q924.0 399.0 931.5 406.0Q939.0 413.0 948.5 419.5Q958.0 426.0 967.5 433.5Q977.0 441.0 982.5 451.0Q988.0 461.0 989.0 473.0Q990.0 485.0 989.0 496.5Q988.0 508.0 987.5 519.0Q987.0 530.0 989.0 541.0Q991.0 552.0 993.0 564.0Q995.0 576.0 993.0 588.0Q991.0 600.0 984.0 609.5Q977.0 619.0 968.0 627.0Q959.0 635.0 950.5 642.0Q942.0 649.0 935.5 658.0Q929.0 667.0 922.0 677.0Q915.0 687.0 906.0 695.0Q897.0 703.0 885.5 706.5Q874.0 710.0 861.5 709.5Q849.0 709.0 837.5 708.0Q826.0 707.0 815.0 708.0Q804.0 709.0 792.0 711.0Q780.0 713.0 767.5 713.5Q755.0 714.0 744.0 709.5Q733.0 705.0 724.0 696.5Q715.0 688.0 707.5 678.5Q700.0 669.0 692.0 661.0Q684.0 653.0 674.0 646.5Q664.0 640.0 654.0 632.0Q644.0 624.0 638.0 613.0Q632.0 602.0 631.0 590.0Q630.0 578.0 631.5 565.5Q633.0 553.0 633.0 541.5Q633.0 530.0 631.0 518.5Q629.0 507.0 627.0 494.0Q625.0 481.0 627.0 469.0Q629.0 457.0 636.5 446.5Q644.0 436.0 653.5 428.0Q663.0 420.0 672.0 412.0Q681.0 404.0 688.0 394.5Q695.0 385.0 702.5 374.5Q710.0 364.0 719.5 355.5Q729.0 347.0 741.0 343.5Q753.0 340.0 766.0 340.5Q779.0 341.0 791.0 342.5Q803.0 344.0 815.0 343.0Q827.0 342.0 839.5 339.5Q852.0 337.0 865.0 336.5Q878.0 336.0 890.0 341.0Q902.0 346.0 911.0 355.0Q920.0 364.0 928.0 374.0Q936.0 384.0 944.5 392.0Q953.0 400.0 963.5 407.0Q974.0 414.0 984.5 422.5Q995.0 431.0 1001.5 442.5Q1008.0 454.0 1009.0 467.0Q1010.0 480.0 1008.5 493.0Q1007.0 506.0 1006.5 518.0Q1006.0 530.0 1008.5 542.5Q1011.0 555.0 1013.0 568.0Q1015.0 581.0 1012.5 594.0Q1010.0 607.0 1002.5 618.0Q995.0 629.0 985.0 637.5Q975.0 646.0 965.5 654.0Q956.0 662.0 948.5 672.0Q941.0 682.0 933.5 693.0Q926.0 704.0 915.5 713.0Q905.0 722.0 892.5 726.0Q880.0 730.0 866.5 729.5Q853.0 729.0 840.0 727.5Q827.0 726.0 815.0 727.0Q803.0 728.0 789.5 730.5Q776.0 733.0 762.5 733.5Q749.0 734.0 736.5 729.0Q724.0 724.0 714.0 714.5Q704.0 705.0 696.0 694.5Q688.0 684.0 679.0 675.0Q670.0 666.0 659.0 659.0Q648.0 652.0 637.0 643.0Q626.0 634.0 619.5 622.0Q613.0 610.0 611.5 596.5Q610.0 583.0 611.5 569.0Q613.0 555.0 613.5 542.5Q614.0 530.0 612.0 517.0Q610.0 504.0 608.0 490.0Q606.0 476.0 608.0 462.5Q610.0 449.0 618.0 437.5Q626.0 426.0 636.5 417.0Q647.0 408.0 657.0 399.5Q667.0 391.0 675.0 380.5Q683.0 370.0 691.0 358.5Q699.0 347.0 709.5 337.5Q720.0 328.0 733.5 324.0Q747.0 320.0 761.0 321.0Q775.0 322.0 788.5 323.5Q802.0 325.0 815.0 323.5Q828.0 322.0 842.0 319.5Q856.0 317.0 870.0 316.5Q884.0 316.0 897.5 321.5Q911.0 327.0 921.0 337.0Q931.0 347.0 939.5 358.0Q948.0 369.0 957.5 378.0Q967.0 387.0 978.5 395.0Q990.0 403.0 1001.5 412.0Q1013.0 421.0 1020.0 433.5Q1027.0 446.0 1028.5 460.5Q1030.0 475.0 1028.0 489.0Q1026.0 503.0 1026.0 516.5Q1026.0 530.0 1028.0 543.5Q1030.0 557.0 1032.0 571.5Q1034.0 586.0 1032.0 600.5Q1030.0 615.0 1021.5 627.0Q1013.0 639.0 1002.0 648.5Q991.0 658.0 980.5 667.0Q970.0 676.0 961.5 686.5Q953.0 697.0 945.0 709.5Q937.0 722.0 925.5 731.5Q914.0 741.0 900.0 745.0Q886.0 749.0 871.5 748.5Q857.0 748.0 843.0 746.5Q829.0 745.0 815.0 746.0Q801.0 747.0 786.5 750.0Q772.0 753.0 757.0 753.0Q742.0 753.0 728.5 747.5Q715.0 742.0 704.0 731.5Q693.0 721.0 684.5 710.0Q676.0 699.0 666.0 689.5Q656.0 680.0 644.0 671.5Q632.0 663.0 620.0 653.5Q608.0 644.0 600.5 631.0Q593.0 618.0 592.0 603.0Q591.0 588.0 592.5 573.0Q594.0 558.0 594.5 544.0Q595.0 530.0 592.5 516.0Q590.0 502.0 588.0 486.5Q586.0 471.0 588.5 456.0Q591.0 441.0 599.5 428.5Q608.0 416.0 619.5 406.5Q631.0 397.0 642.0 387.5Q653.0 378.0 661.5 366.5Q670.0 355.0 679.0 342.5Q688.0 330.0 699.5 320.0Q711.0 310.0 726.0 305.5Q741.0 301.0 756.5 301.5Q772.0 302.0 786.5 303.5Q801.0 305.0 815.0 304.0Q829.0 303.0 844.0 300.0Q859.0 297.0 875.0 297.0Q891.0 297.0 905.0 302.5Q919.0 308.0 930.5 319.0Q942.0 330.0 951.5 342.0Q961.0 354.0 971.0 364.0Q981.0 374.0 994.0 382.5Q1007.0 391.0 1019.0 401.0Q1031.0 411.0 1038.5 424.5Q1046.0 438.0 1047.5 454.0Q1049.0 470.0 1047.5 485.5Q1046.0 501.0 1045.5 515.5Q1045.0 530.0 1047.5 545.0Q1050.0 560.0 1052.0 575.5Q1054.0 591.0 1051.5 607.0Q1049.0 623.0 1040.0 636.0Q1031.0 649.0 1019.0 659.0Q1007.0 669.0 995.5 679.0Q984.0 689.0 975.0 700.5Q966.0 712.0 956.5 725.5Q947.0 739.0 935.0 749.5Q923.0 760.0 908.0 764.5Q893.0 769.0 876.5 768.0Q860.0 767.0 845.0 765.5Q830.0 764.0 815.0 765.0Q800.0 766.0 784.5 769.5Q769.0 773.0 752.5 773.0Q736.0 773.0 721.0 767.0Q706.0 761.0 694.5 749.5Q683.0 738.0 673.0 725.5Q663.0 713.0 652.5 703.0Q642.0 693.0 628.5 684.0Q615.0 675.0 602.5 664.5Q590.0 654.0 582.0 639.5Q574.0 625.0 572.5 609.0Q571.0 593.0 573.0 576.5Q575.0 560.0 575.5 545.0Q576.0 530.0 573.5 514.5Q571.0 499.0 568.5 482.5Q566.0 466.0 568.5 449.5Q571.0 433.0 580.5 419.5Q590.0 406.0 602.5 395.5Q615.0 385.0 627.0 375.0Q639.0 365.0 648.5 352.5Q658.0 340.0 667.5 326.5Q677.0 313.0 689.5 302.0Q702.0 291.0 718.0 286.0Q734.0 281.0 751.0 282.0Q768.0 283.0 784.0 284.5Q800.0 286.0 815.0 285.0Q830.0 284.0 846.5 281.0Q863.0 278.0 880.0 277.5Q897.0 277.0 912.5 283.0Q928.0 289.0 940.5 301.0Q953.0 313.0 963.0 326.0Q973.0 339.0 984.0 350.0Q995.0 361.0 1009.0 370.0Q1023.0 379.0 1036.0 390.0Q1049.0 401.0 1057.5 416.0Q1066.0 431.0 1067.5 448.0Q1069.0 465.0 1067.0 481.5Q1065.0 498.0 1064.5 514.0Q1064.0 530.0 1066.5 546.0Q1069.0 562.0 1071.5 579.5Q1074.0 597.0 1071.0 613.5Q1068.0 630.0 1058.5 644.5Q1049.0 659.0 1035.5 670.0Q1022.0 681.0 1010.0 691.5Q998.0 702.0 988.0 714.5Q978.0 727.0 968.0 741.5Q958.0 756.0 945.0 767.5Q932.0 779.0 915.5 784.0Q899.0 789.0 881.5 788.0Q864.0 787.0 847.5 785.0Q831.0 783.0 815.0 784.5Q799.0 786.0 782.0 789.0Q765.0 792.0 747.5 792.5Q730.0 793.0 713.5 786.5Q697.0 780.0 684.5 767.5Q672.0 755.0 661.5 741.5Q651.0 728.0 639.5 717.0Q628.0 706.0 613.5 696.5Q599.0 687.0 585.5 675.5Q572.0 664.0 563.5 648.5Q555.0 633.0 553.0 615.5Q551.0 598.0 553.5 580.5Q556.0 563.0 556.5 546.5Q557.0 530.0 554.0 513.5Q551.0 497.0 548.5 479.0Q546.0 461.0 549.0 443.5Q552.0 426.0 562.0 411.0Q572.0 396.0 586.0 385.0Q600.0 374.0 612.5 363.0Q625.0 352.0 635.5 338.5Q646.0 325.0 656.0 310.5Q666.0 296.0 679.5 284.0Q693.0 272.0 710.5 267.0Q728.0 262.0 746.0 262.5Q764.0 263.0 781.0 265.0Q798.0 267.0 815.0 266.0Q832.0 265.0 849.5 261.5Q867.0 258.0 885.5 257.5Q904.0 257.0 920.5 264.0Q937.0 271.0 950.0 283.5Q963.0 296.0 974.0 310.0Q985.0 324.0 997.0 335.5Q1009.0 347.0 1024.0 357.0Q1039.0 367.0 1053.0 379.0Q1067.0 391.0 1076.0 407.0Q1085.0 423.0 1086.5 441.5Q1088.0 460.0 1086.0 478.0Q1084.0 496.0 1083.5 513.0Q1083.0 530.0 1086.0 547.5Q1089.0 565.0 1091.5 583.5Q1094.0 602.0 1091.0 620.0Q1088.0 638.0 1077.5 653.5Q1067.0 669.0 1052.5 680.5Q1038.0 692.0 1025.0 703.5Q1012.0 715.0 1001.5 728.5Q991.0 742.0 980.0 757.5Q969.0 773.0 955.0 785.5Q941.0 798.0 923.0 803.0Q905.0 808.0 886.5 807.0Q868.0 806.0 850.0 804.0Q832.0 802.0 815.0 803.5Q798.0 805.0 779.5 808.5Q761.0 812.0 742.0 812.5Q723.0 813.0 706.0 806.0Q689.0 799.0 675.0 785.5Q661.0 772.0 650.0 757.5Q639.0 743.0 626.5 731.0Q614.0 719.0 598.5 708.5Q583.0 698.0 568.5 686.0Q554.0 674.0 544.5 657.5Q535.0 641.0 533.5 622.0Q532.0 603.0 534.0 584.0Q536.0 565.0 536.5 547.5Q537.0 530.0 534.5 512.0Q532.0 494.0 529.0 475.0Q526.0 456.0 529.0 437.0Q532.0 418.0 543.0 402.5Q554.0 387.0 569.0 374.5Q584.0 362.0 597.5 350.5Q611.0 339.0 622.0 324.5Q633.0 310.0 644.0 294.0Q655.0 278.0 670.0 265.5Q685.0 253.0 703.0 247.5Q721.0 242.0 740.5 243.0Q760.0 244.0 778.5 246.0Q797.0 248.0 815.0 246.5Q833.0 245.0 852.0 241.5Q871.0 238.0 890.5 237.5Q910.0 237.0 928.0 244.5Q946.0 252.0 960.0 265.5Q974.0 279.0 985.5 294.0Q997.0 309.0 1010.0 321.5Q1023.0 334.0 1039.0 345.0Q1055.0 356.0 1070.0 368.5Q1085.0 381.0 1094.5 398.0Q1104.0 415.0 1106.0 435.0Q1108.0 455.0 1105.5 474.5Q1103.0 494.0 1102.5 512.0Q1102.0 530.0 1105.0 548.5Q1108.0 567.0 1111.0 587.0Q1114.0 607.0 1110.5 626.5Q1107.0 646.0 1096.0 662.0Q1085.0 678.0 1069.5 691.0Q1054.0 704.0 1040.0 716.0Q1026.0 728.0 1014.5 742.5Q1003.0 757.0 991.5 773.5Q980.0 790.0 965.0 803.5Q950.0 817.0 931.0 822.5Q912.0 828.0 891.5 827.0Q871.0 826.0 852.0 824.0Q833.0 822.0 814.5 823.0Q796.0 824.0 776.5 828.0Q757.0 832.0 737.0 832.5Q717.0 833.0 698.5 825.0Q680.0 817.0 665.5 803.0Q651.0 789.0 638.5 773.5Q626.0 758.0 613.0 745.0Q600.0 732.0 583.5 721.0Q567.0 710.0 551.5 697.0Q536.0 684.0 526.0 666.0Q516.0 648.0 514.0 628.0Q512.0 608.0 514.5 588.0Q517.0 568.0 517.5 549.0Q518.0 530.0 515.0 511.0Q512.0 492.0 509.0 471.5Q506.0 451.0 509.5 430.5Q513.0 410.0 524.5 393.5Q536.0 377.0 552.0 364.0Q568.0 351.0 582.5 338.5Q597.0 326.0 609.0 310.5Q621.0 295.0 632.5 278.0Q644.0 261.0 660.0 247.5Q676.0 234.0 695.5 228.0Q715.0 222.0 736.0 223.5Q757.0 225.0 776.5 227.0Q796.0 229.0 815.0 227.5Q834.0 226.0 854.0 222.0Q874.0 218.0 895.5 218.0Q917.0 218.0 936.0 225.5Q955.0 233.0 970.0 248.0Q985.0 263.0 997.5 279.0Q1010.0 295.0 1023.5 308.0Q1037.0 321.0 1054.0 332.5Q1071.0 344.0 1087.0 357.5Q1103.0 371.0 1113.5 389.5Q1124.0 408.0 1126.0 429.0Q1128.0 450.0 1125.5 470.5Q1123.0 491.0 1122.0 510.5Q1121.0 530.0 1124.5 550.0Q1128.0 570.0 1131.0 591.0Q1134.0 612.0 1130.5 632.5Q1127.0 653.0 1115.0 670.5Q1103.0 688.0 1086.5 701.5Q1070.0 715.0 1055.0 728.0Q1040.0 741.0 1027.5 756.5Q1015.0 772.0 1003.0 789.5Q991.0 807.0 975.0 821.0Q959.0 835.0 938.5 841.0Q918.0 847.0 896.5 846.0Q875.0 845.0 855.0 843.0Q835.0 841.0 815.0 842.5Q795.0 844.0 774.5 848.0Q754.0 852.0 732.0 852.0Q710.0 852.0 690.5 844.0Q671.0 836.0 655.5 821.0Q640.0 806.0 627.0 789.5Q614.0 773.0 600.0 759.0Q586.0 745.0 568.5 733.5Q551.0 722.0 534.0 708.0Q517.0 694.0 507.0 675.0Q497.0 656.0 495.0 634.5Q493.0 613.0 495.5 591.5Q498.0 570.0 498.5 550.0Q499.0 530.0 495.5 509.5Q492.0 489.0 489.0 467.5Q486.0 446.0 490.0 424.5Q494.0 403.0 506.0 385.0Q518.0 367.0 535.0 353.0Q552.0 339.0 567.5 325.5Q583.0 312.0 595.5 296.0Q608.0 280.0 621.0 262.0Q634.0 244.0 650.5 229.5Q667.0 215.0 688.0 209.0Q709.0 203.0 731.0 204.0Q753.0 205.0 774.0 207.5Q795.0 210.0 815.0 208.5Q835.0 207.0 856.5 202.5Q878.0 198.0 900.5 198.0Q923.0 198.0 943.5 206.0Q964.0 214.0 979.5 230.0Q995.0 246.0 1008.5 263.0Q1022.0 280.0 1036.5 294.0Q1051.0 308.0 1069.0 320.0Q1087.0 332.0 1104.5 346.5Q1122.0 361.0 1132.5 380.5Q1143.0 400.0 1145.0 422.5Q1147.0 445.0 1144.5 467.0Q1142.0 489.0 1141.0 509.5Q1140.0 530.0 1143.5 551.0Q1147.0 572.0 1150.5 594.5Q1154.0 617.0 1150.0 639.0Q1146.0 661.0 1133.5 679.5Q1121.0 698.0 1103.5 712.5Q1086.0 727.0 1070.0 740.5Q1054.0 754.0 1041.0 770.5Q1028.0 787.0 1015.0 805.5Q1002.0 824.0 985.0 839.0Q968.0 854.0 946.0 860.5Q924.0 867.0 901.5 866.0Q879.0 865.0 857.5 862.5Q836.0 860.0 815.0 861.5Q794.0 863.0 772.0 867.0Q750.0 871.0 727.0 871.5Q704.0 872.0 683.0 863.5Q662.0 855.0 645.5 839.0Q629.0 823.0 615.5 805.5Q602.0 788.0 587.0 773.5Q572.0 759.0 553.5 746.0Q535.0 733.0 517.0 718.5Q499.0 704.0 488.0 684.0Q477.0 664.0 475.0 641.0Q473.0 618.0 476.0 595.0Q479.0 572.0 479.5 551.0Q480.0 530.0 476.5 508.5Q473.0 487.0 469.5 464.0Q466.0 441.0 470.0 418.0Q474.0 395.0 487.0 376.0Q500.0 357.0 518.0 342.0Q536.0 327.0 552.5 313.0Q569.0 299.0 582.5 282.0Q596.0 265.0 609.5 246.0Q623.0 227.0 640.5 211.5Q658.0 196.0 680.0 189.5Q702.0 183.0 725.5 184.5Q749.0 186.0 771.5 188.5Q794.0 191.0 815.5 189.0Q837.0 187.0 859.5 183.0Q882.0 179.0 905.5 178.5Q929.0 178.0 950.5 187.0Q972.0 196.0 989.0 212.5Q1006.0 229.0 1020.0 247.0Q1034.0 265.0 1049.5 280.0Q1065.0 295.0 1084.0 308.0Q1103.0 321.0 1121.5 336.0Q1140.0 351.0 1151.5 371.5Q1163.0 392.0 1165.0 416.0Q1167.0 440.0 1164.0 463.0Q1161.0 486.0 1160.5 508.0Q1160.0 530.0 1163.5 552.0Q1167.0 574.0 1170.5 598.0Q1174.0 622.0 1170.0 645.5Q1166.0 669.0 1152.5 688.5Q1139.0 708.0 1120.5 723.0Q1102.0 738.0 1085.0 752.5Q1068.0 767.0 1054.0 784.5Q1040.0 802.0 1026.5 822.0Q1013.0 842.0 994.5 857.5Q976.0 873.0 953.5 880.0Q931.0 887.0 907.0 885.5Q883.0 884.0 860.0 881.5Q837.0 879.0 815.0 880.5Q793.0 882.0 769.5 886.5Q746.0 891.0 721.5 891.5Q697.0 892.0 675.0 883.0Q653.0 874.0 635.5 857.0Q618.0 840.0 604.0 821.0Q590.0 802.0 574.0 787.0Q558.0 772.0 538.5 758.5Q519.0 745.0 500.0 729.0Q481.0 713.0 469.5 692.0Q458.0 671.0 456.0 647.0Q454.0 623.0 456.5 599.0Q459.0 575.0 460.0 552.5Q461.0 530.0 457.0 507.0Q453.0 484.0 450.0 459.5Q447.0 435.0 451.0 411.0Q455.0 387.0 469.0 367.0Q483.0 347.0 501.5 331.5Q520.0 316.0 537.5 301.0Q555.0 286.0 569.0 268.0Q583.0 250.0 597.5 230.0Q612.0 210.0 630.5 193.5Q649.0 177.0 672.5 170.5Q696.0 164.0 721.0 165.0Q746.0 166.0 769.0 169.0Q792.0 172.0 815.0 170.0Q838.0 168.0 862.0 163.5Q886.0 159.0 911.0 158.5Q936.0 158.0 958.5 167.5Q981.0 177.0 999.0 194.5Q1017.0 212.0 1032.0 231.0Q1047.0 250.0 1063.0 266.0Q1079.0 282.0 1099.0 295.5Q1119.0 309.0 1138.5 325.5Q1158.0 342.0 1170.0 363.5Q1182.0 385.0 1184.0 410.0Q1186.0 435.0 1183.0 459.5Q1180.0 484.0 1179.5 507.0Q1179.0 530.0 1182.5 553.5Q1186.0 577.0 1189.5 602.0Q1193.0 627.0 1189.0 651.5Q1185.0 676.0 1170.5 697.0Q1156.0 718.0 1136.5 734.0Q1117.0 750.0 1099.5 765.0Q1082.0 780.0 1067.5 798.5Q1053.0 817.0 1038.5 838.0Q1024.0 859.0 1004.5 875.5Q985.0 892.0 961.0 899.0Q937.0 906.0 911.5 904.5Q886.0 903.0 862.0 900.5Q838.0 898.0 815.0 899.5"/>
  </g>
</svg>
