<svg version="1.1" width="1150" height="870" xmlns="http://www.w3.org/2000/svg">
  <!-- Seed: 4175330415147965022 -->
  <!-- Size: SvgSize.Size9x12 -->
  <!-- Params:
    draw: True
    padding: 0
    spacing: 5
    points_per_step_ring: 50
    bump_range: [RangeFloat] min: 0 max: 0.1
    bump_mult: [RangeInt] min: 2 max: 20
  -->
  <g stroke="black" fill="none">
    <path d="M575.0 435.5Q575.0 436.0 575.0 436.5Q575.0 437.0 574.5 437.0Q574.0 437.0 574.0 436.5Q574.0 436.0 573.5 436.0Q573.0 436.0 573.0 435.5Q573.0 435.0 572.5 435.0Q572.0 435.0 572.0 434.5Q572.0 434.0 572.0 433.5Q572.0 433.0 572.0 432.5Q572.0 432.0 572.5 432.0Q573.0 432.0 573.5 432.0Q574.0 432.0 574.5 432.0Q575.0 432.0 575.5 432.0Q576.0 432.0 576.5 432.0Q577.0 432.0 577.0 431.5Q577.0 431.0 577.5 431.0Q578.0 431.0 578.5 431.0Q579.0 431.0 579.5 431.5Q580.0 432.0 580.0 432.5Q580.0 433.0 580.0 433.5Q580.0 434.0 580.0 434.5Q580.0 435.0 580.0 435.5Q580.0 436.0 579.5 436.0Q579.0 436.0 579.0 436.5Q579.0 437.0 578.5 437.0Q578.0 437.0 578.0 437.5Q578.0 438.0 578.0 438.5Q578.0 439.0 578.0 439.5Q578.0 440.0 578.0 440.5Q578.0 441.0 577.5 441.5Q577.0 442.0 576.5 442.0Q576.0 442.0 575.5 442.5Q575.0 443.0 574.5 443.0Q574.0 443.0 573.5 442.5Q573.0 442.0 572.5 441.5Q572.0 441.0 572.0 440.5Q572.0 440.0 571.5 440.0Q571.0 440.0 571.0 439.5Q571.0 439.0 571.0 438.5Q571.0 438.0 570.5 438.0Q570.0 438.0 570.0 437.5Q570.0 437.0 569.5 437.0Q569.0 437.0 568.5 436.5Q568.0 436.0 568.0 435.5Q568.0 435.0 567.5 434.5Q567.0 434.0 566.5 433.5Q566.0 433.0 566.0 432.0Q566.0 431.0 566.0 430.5Q566.0 430.0 566.5 429.5Q567.0 429.0 567.5 428.5Q568.0 428.0 568.5 428.0Q569.0 428.0 569.5 428.0Q570.0 428.0 571.0 428.0Q572.0 428.0 572.5 428.0Q573.0 428.0 573.5 428.0Q574.0 428.0 574.5 428.0Q575.0 428.0 575.5 428.0Q576.0 428.0 576.5 428.0Q577.0 428.0 578.0 427.5Q579.0 427.0 579.5 427.0Q580.0 427.0 581.0 427.0Q582.0 427.0 582.5 427.0Q583.0 427.0 584.0 427.5Q585.0 428.0 585.5 428.5Q586.0 429.0 586.0 430.0Q586.0 431.0 586.0 431.5Q586.0 432.0 586.0 433.0Q586.0 434.0 585.5 434.5Q585.0 435.0 584.5 435.5Q584.0 436.0 583.5 436.5Q583.0 437.0 582.5 437.5Q582.0 438.0 582.0 438.5Q582.0 439.0 581.5 439.5Q581.0 440.0 581.0 440.5Q581.0 441.0 581.0 441.5Q581.0 442.0 581.0 443.0Q581.0 444.0 580.5 444.5Q580.0 445.0 579.5 446.0Q579.0 447.0 578.5 447.5Q578.0 448.0 577.0 448.5Q576.0 449.0 575.0 449.0Q574.0 449.0 573.0 449.0Q572.0 449.0 571.5 448.5Q571.0 448.0 570.5 447.0Q570.0 446.0 569.5 445.5Q569.0 445.0 568.5 444.0Q568.0 443.0 568.0 442.5Q568.0 442.0 568.0 441.0Q568.0 440.0 567.5 439.5Q567.0 439.0 566.5 438.5Q566.0 438.0 565.5 438.0Q565.0 438.0 564.5 437.0Q564.0 436.0 563.5 435.5Q563.0 435.0 562.0 434.0Q561.0 433.0 561.0 432.0Q561.0 431.0 560.5 430.0Q560.0 429.0 560.5 428.0Q561.0 427.0 561.5 426.5Q562.0 426.0 563.0 425.0Q564.0 424.0 565.0 424.0Q566.0 424.0 567.0 423.5Q568.0 423.0 569.0 423.5Q570.0 424.0 570.5 424.0Q571.0 424.0 572.0 424.0Q573.0 424.0 573.5 424.5Q574.0 425.0 575.0 425.0Q576.0 425.0 576.5 424.5Q577.0 424.0 578.0 424.0Q579.0 424.0 580.0 423.5Q581.0 423.0 582.0 423.0Q583.0 423.0 584.0 423.0Q585.0 423.0 586.5 423.0Q588.0 423.0 589.0 423.5Q590.0 424.0 590.5 425.0Q591.0 426.0 591.5 427.0Q592.0 428.0 592.0 429.5Q592.0 431.0 591.5 432.0Q591.0 433.0 590.5 434.0Q590.0 435.0 589.5 436.0Q589.0 437.0 588.0 437.5Q587.0 438.0 586.5 438.5Q586.0 439.0 585.5 440.0Q585.0 441.0 585.0 441.5Q585.0 442.0 584.5 443.0Q584.0 444.0 584.0 445.0Q584.0 446.0 583.5 447.0Q583.0 448.0 582.5 449.0Q582.0 450.0 581.5 451.0Q581.0 452.0 580.0 453.0Q579.0 454.0 577.5 454.5Q576.0 455.0 575.0 455.0Q574.0 455.0 572.5 455.0Q571.0 455.0 570.0 454.0Q569.0 453.0 568.0 452.0Q567.0 451.0 566.5 450.0Q566.0 449.0 566.0 447.5Q566.0 446.0 565.5 445.0Q565.0 444.0 565.0 443.5Q565.0 443.0 564.5 442.0Q564.0 441.0 563.5 440.5Q563.0 440.0 562.0 439.5Q561.0 439.0 560.0 438.0Q559.0 437.0 558.5 436.0Q558.0 435.0 557.0 434.0Q556.0 433.0 555.5 431.5Q555.0 430.0 555.0 428.5Q555.0 427.0 555.0 425.5Q555.0 424.0 556.0 423.0Q557.0 422.0 558.0 421.0Q559.0 420.0 560.5 419.5Q562.0 419.0 563.5 419.0Q565.0 419.0 566.5 419.0Q568.0 419.0 569.0 419.5Q570.0 420.0 571.0 420.5Q572.0 421.0 573.0 421.0Q574.0 421.0 575.0 421.0Q576.0 421.0 577.0 420.5Q578.0 420.0 579.0 420.0Q580.0 420.0 581.5 419.5Q583.0 419.0 584.5 418.5Q586.0 418.0 587.5 418.0Q589.0 418.0 590.5 418.5Q592.0 419.0 593.5 420.0Q595.0 421.0 595.5 422.0Q596.0 423.0 596.5 424.5Q597.0 426.0 597.0 427.5Q597.0 429.0 597.0 430.5Q597.0 432.0 596.0 433.5Q595.0 435.0 594.0 436.0Q593.0 437.0 592.0 438.0Q591.0 439.0 590.5 440.0Q590.0 441.0 589.0 441.5Q588.0 442.0 588.0 443.0Q588.0 444.0 587.5 445.0Q587.0 446.0 587.0 447.5Q587.0 449.0 586.5 450.5Q586.0 452.0 585.0 453.5Q584.0 455.0 583.0 456.5Q582.0 458.0 581.0 459.0Q580.0 460.0 578.5 460.5Q577.0 461.0 575.0 461.5Q573.0 462.0 571.5 461.0Q570.0 460.0 568.5 459.0Q567.0 458.0 566.0 457.0Q565.0 456.0 564.5 454.5Q564.0 453.0 563.5 451.5Q563.0 450.0 562.5 448.5Q562.0 447.0 561.5 446.0Q561.0 445.0 560.5 444.0Q560.0 443.0 559.5 442.0Q559.0 441.0 558.0 440.5Q557.0 440.0 556.0 439.0Q555.0 438.0 554.0 436.5Q553.0 435.0 552.0 433.5Q551.0 432.0 550.0 430.0Q549.0 428.0 549.0 426.5Q549.0 425.0 549.5 423.0Q550.0 421.0 551.0 419.5Q552.0 418.0 553.5 417.0Q555.0 416.0 556.5 415.5Q558.0 415.0 560.0 415.0Q562.0 415.0 564.0 415.0Q566.0 415.0 567.5 415.5Q569.0 416.0 570.5 416.5Q572.0 417.0 573.0 417.0Q574.0 417.0 575.0 417.0Q576.0 417.0 577.5 417.0Q579.0 417.0 580.0 416.5Q581.0 416.0 583.0 415.5Q585.0 415.0 586.5 414.5Q588.0 414.0 590.0 414.0Q592.0 414.0 594.0 414.5Q596.0 415.0 598.0 416.0Q600.0 417.0 601.0 418.5Q602.0 420.0 602.5 422.0Q603.0 424.0 603.0 426.0Q603.0 428.0 602.5 430.0Q602.0 432.0 601.0 433.5Q600.0 435.0 599.0 436.5Q598.0 438.0 596.5 439.0Q595.0 440.0 594.0 441.0Q593.0 442.0 592.5 443.0Q592.0 444.0 591.5 445.0Q591.0 446.0 590.5 447.5Q590.0 449.0 589.5 450.5Q589.0 452.0 588.5 454.0Q588.0 456.0 587.5 458.0Q587.0 460.0 585.5 461.5Q584.0 463.0 582.5 464.5Q581.0 466.0 579.0 467.0Q577.0 468.0 575.0 468.0Q573.0 468.0 571.0 467.0Q569.0 466.0 567.5 465.0Q566.0 464.0 564.5 462.5Q563.0 461.0 562.0 459.0Q561.0 457.0 560.5 455.0Q560.0 453.0 559.5 451.5Q559.0 450.0 558.5 448.5Q558.0 447.0 557.5 446.0Q557.0 445.0 556.0 444.0Q555.0 443.0 554.0 442.0Q553.0 441.0 551.5 439.5Q550.0 438.0 549.0 436.5Q548.0 435.0 546.5 433.0Q545.0 431.0 544.5 429.0Q544.0 427.0 543.5 424.5Q543.0 422.0 543.5 420.0Q544.0 418.0 545.5 416.5Q547.0 415.0 549.0 413.5Q551.0 412.0 553.0 411.5Q555.0 411.0 557.0 410.5Q559.0 410.0 561.5 410.5Q564.0 411.0 565.5 411.5Q567.0 412.0 569.0 412.5Q571.0 413.0 572.5 413.0Q574.0 413.0 575.0 413.0Q576.0 413.0 577.5 413.0Q579.0 413.0 581.0 412.5Q583.0 412.0 585.0 411.0Q587.0 410.0 589.0 410.0Q591.0 410.0 593.5 410.0Q596.0 410.0 598.5 410.5Q601.0 411.0 603.0 412.5Q605.0 414.0 606.0 415.5Q607.0 417.0 608.0 419.5Q609.0 422.0 609.0 424.0Q609.0 426.0 608.0 428.5Q607.0 431.0 606.0 433.0Q605.0 435.0 603.5 436.5Q602.0 438.0 600.5 439.5Q599.0 441.0 598.0 442.5Q597.0 444.0 596.0 445.0Q595.0 446.0 594.5 447.5Q594.0 449.0 593.5 450.5Q593.0 452.0 592.5 454.0Q592.0 456.0 591.5 458.0Q591.0 460.0 590.0 462.5Q589.0 465.0 587.5 467.0Q586.0 469.0 584.0 470.5Q582.0 472.0 579.5 473.0Q577.0 474.0 575.0 474.0Q573.0 474.0 570.5 473.0Q568.0 472.0 566.0 470.5Q564.0 469.0 562.5 467.0Q561.0 465.0 560.0 463.0Q559.0 461.0 558.0 459.0Q557.0 457.0 556.5 455.0Q556.0 453.0 555.5 451.0Q555.0 449.0 554.5 448.0Q554.0 447.0 553.0 445.5Q552.0 444.0 550.5 443.0Q549.0 442.0 547.5 440.5Q546.0 439.0 544.5 437.0Q543.0 435.0 541.5 433.0Q540.0 431.0 539.0 428.0Q538.0 425.0 538.0 422.5Q538.0 420.0 538.5 417.5Q539.0 415.0 540.5 413.0Q542.0 411.0 544.0 409.5Q546.0 408.0 548.5 407.0Q551.0 406.0 554.0 406.0Q557.0 406.0 559.5 406.5Q562.0 407.0 564.0 407.5Q566.0 408.0 568.0 408.5Q570.0 409.0 571.5 409.5Q573.0 410.0 575.0 410.0Q577.0 410.0 578.5 409.5Q580.0 409.0 582.0 408.0Q584.0 407.0 586.5 406.5Q589.0 406.0 591.5 405.5Q594.0 405.0 596.5 405.0Q599.0 405.0 602.0 406.0Q605.0 407.0 607.5 408.5Q610.0 410.0 611.5 412.0Q613.0 414.0 614.0 416.5Q615.0 419.0 615.0 422.0Q615.0 425.0 614.0 427.5Q613.0 430.0 611.5 432.5Q610.0 435.0 608.5 437.0Q607.0 439.0 605.0 440.5Q603.0 442.0 601.5 443.5Q600.0 445.0 599.0 446.5Q598.0 448.0 597.5 449.5Q597.0 451.0 596.5 453.0Q596.0 455.0 595.5 457.0Q595.0 459.0 594.5 461.5Q594.0 464.0 592.5 466.5Q591.0 469.0 589.5 471.5Q588.0 474.0 585.5 476.0Q583.0 478.0 580.5 479.0Q578.0 480.0 575.0 480.0Q572.0 480.0 569.5 479.0Q567.0 478.0 564.5 476.5Q562.0 475.0 560.0 472.5Q558.0 470.0 557.0 467.5Q556.0 465.0 555.0 462.5Q554.0 460.0 553.5 457.5Q553.0 455.0 552.5 453.5Q552.0 452.0 551.5 450.0Q551.0 448.0 549.5 447.0Q548.0 446.0 546.5 444.5Q545.0 443.0 543.0 441.0Q541.0 439.0 539.5 437.0Q538.0 435.0 536.0 432.5Q534.0 430.0 533.0 427.0Q532.0 424.0 532.0 421.0Q532.0 418.0 532.5 415.0Q533.0 412.0 535.0 409.5Q537.0 407.0 539.5 405.5Q542.0 404.0 545.0 403.0Q548.0 402.0 551.0 402.0Q554.0 402.0 557.0 402.0Q560.0 402.0 562.5 403.0Q565.0 404.0 567.0 404.5Q569.0 405.0 571.0 405.5Q573.0 406.0 575.0 406.0Q577.0 406.0 579.0 405.5Q581.0 405.0 583.0 404.0Q585.0 403.0 588.0 402.5Q591.0 402.0 594.0 401.5Q597.0 401.0 600.0 401.0Q603.0 401.0 606.0 402.0Q609.0 403.0 612.0 404.5Q615.0 406.0 616.5 408.5Q618.0 411.0 619.0 414.0Q620.0 417.0 620.0 420.0Q620.0 423.0 619.0 426.5Q618.0 430.0 616.5 432.5Q615.0 435.0 613.0 437.5Q611.0 440.0 609.0 441.5Q607.0 443.0 605.5 444.5Q604.0 446.0 603.0 448.0Q602.0 450.0 601.0 451.5Q600.0 453.0 599.5 455.0Q599.0 457.0 598.5 460.0Q598.0 463.0 597.0 465.5Q596.0 468.0 594.5 471.0Q593.0 474.0 591.5 477.0Q590.0 480.0 587.0 482.0Q584.0 484.0 581.0 485.0Q578.0 486.0 575.0 486.0Q572.0 486.0 569.0 485.0Q566.0 484.0 563.0 482.0Q560.0 480.0 558.0 477.5Q556.0 475.0 554.5 472.0Q553.0 469.0 552.5 466.0Q552.0 463.0 551.0 460.5Q550.0 458.0 549.5 456.0Q549.0 454.0 548.0 452.0Q547.0 450.0 546.0 448.5Q545.0 447.0 543.0 445.5Q541.0 444.0 539.0 442.0Q537.0 440.0 535.0 437.5Q533.0 435.0 531.0 432.0Q529.0 429.0 528.0 426.0Q527.0 423.0 526.5 419.5Q526.0 416.0 527.0 412.5Q528.0 409.0 530.0 406.5Q532.0 404.0 534.5 402.0Q537.0 400.0 540.5 399.0Q544.0 398.0 547.5 397.5Q551.0 397.0 554.5 397.5Q558.0 398.0 561.0 399.0Q564.0 400.0 566.5 400.5Q569.0 401.0 571.0 401.5Q573.0 402.0 575.0 402.0Q577.0 402.0 579.0 401.5Q581.0 401.0 584.0 400.0Q587.0 399.0 590.0 398.5Q593.0 398.0 596.0 397.5Q599.0 397.0 603.0 397.0Q607.0 397.0 610.5 398.0Q614.0 399.0 617.0 401.0Q620.0 403.0 622.0 405.5Q624.0 408.0 625.0 411.5Q626.0 415.0 626.0 418.5Q626.0 422.0 625.0 425.5Q624.0 429.0 622.0 432.0Q620.0 435.0 618.0 437.5Q616.0 440.0 613.5 442.0Q611.0 444.0 609.5 446.0Q608.0 448.0 606.5 449.5Q605.0 451.0 604.0 453.0Q603.0 455.0 602.5 457.5Q602.0 460.0 601.5 463.0Q601.0 466.0 600.0 469.0Q599.0 472.0 597.5 475.5Q596.0 479.0 593.5 482.0Q591.0 485.0 588.0 487.5Q585.0 490.0 582.0 491.0Q579.0 492.0 575.0 492.5Q571.0 493.0 567.5 491.5Q564.0 490.0 561.0 488.0Q558.0 486.0 556.0 483.0Q554.0 480.0 552.5 476.5Q551.0 473.0 550.0 470.0Q549.0 467.0 548.0 464.0Q547.0 461.0 546.5 458.5Q546.0 456.0 545.0 454.0Q544.0 452.0 542.5 450.0Q541.0 448.0 539.0 446.5Q537.0 445.0 534.5 442.5Q532.0 440.0 530.0 437.5Q528.0 435.0 525.5 431.5Q523.0 428.0 522.0 424.5Q521.0 421.0 520.5 417.0Q520.0 413.0 521.5 409.5Q523.0 406.0 525.0 403.0Q527.0 400.0 530.0 398.0Q533.0 396.0 537.0 394.5Q541.0 393.0 544.5 393.0Q548.0 393.0 552.0 393.5Q556.0 394.0 559.0 395.0Q562.0 396.0 565.0 396.5Q568.0 397.0 570.5 397.5Q573.0 398.0 575.0 398.0Q577.0 398.0 579.5 397.5Q582.0 397.0 585.0 396.0Q588.0 395.0 591.5 394.0Q595.0 393.0 598.5 392.5Q602.0 392.0 606.0 392.0Q610.0 392.0 614.0 393.5Q618.0 395.0 621.5 397.0Q625.0 399.0 627.0 402.0Q629.0 405.0 630.5 409.0Q632.0 413.0 632.0 416.5Q632.0 420.0 630.5 424.0Q629.0 428.0 627.0 431.5Q625.0 435.0 622.5 438.0Q620.0 441.0 617.5 443.0Q615.0 445.0 613.0 447.0Q611.0 449.0 609.5 451.0Q608.0 453.0 607.0 455.5Q606.0 458.0 605.5 460.5Q605.0 463.0 604.0 466.0Q603.0 469.0 602.0 472.5Q601.0 476.0 599.5 480.0Q598.0 484.0 595.5 487.5Q593.0 491.0 590.0 493.5Q587.0 496.0 583.0 497.5Q579.0 499.0 575.0 499.0Q571.0 499.0 567.0 497.5Q563.0 496.0 560.0 493.5Q557.0 491.0 554.5 488.0Q552.0 485.0 550.0 481.0Q548.0 477.0 547.0 473.5Q546.0 470.0 545.0 467.0Q544.0 464.0 543.5 461.0Q543.0 458.0 542.0 456.0Q541.0 454.0 539.5 452.0Q538.0 450.0 535.5 448.0Q533.0 446.0 530.5 443.5Q528.0 441.0 525.5 438.0Q523.0 435.0 520.5 431.5Q518.0 428.0 516.5 424.0Q515.0 420.0 515.0 415.5Q515.0 411.0 516.0 407.0Q517.0 403.0 519.5 399.5Q522.0 396.0 525.5 394.0Q529.0 392.0 533.0 390.5Q537.0 389.0 541.5 389.0Q546.0 389.0 550.0 389.5Q554.0 390.0 557.5 391.0Q561.0 392.0 564.0 392.5Q567.0 393.0 569.5 394.0Q572.0 395.0 575.0 395.0Q578.0 395.0 580.5 394.0Q583.0 393.0 586.0 392.0Q589.0 391.0 593.0 390.0Q597.0 389.0 601.0 388.5Q605.0 388.0 609.5 388.0Q614.0 388.0 618.0 389.5Q622.0 391.0 626.0 393.0Q630.0 395.0 632.5 398.5Q635.0 402.0 636.0 406.0Q637.0 410.0 637.0 414.5Q637.0 419.0 636.0 423.0Q635.0 427.0 632.5 431.0Q630.0 435.0 627.5 438.0Q625.0 441.0 622.0 443.5Q619.0 446.0 617.0 448.5Q615.0 451.0 613.0 453.0Q611.0 455.0 610.0 457.5Q609.0 460.0 608.5 463.0Q608.0 466.0 607.0 469.5Q606.0 473.0 605.0 477.0Q604.0 481.0 602.0 485.0Q600.0 489.0 597.5 492.5Q595.0 496.0 591.5 499.0Q588.0 502.0 583.5 503.5Q579.0 505.0 575.0 505.0Q571.0 505.0 566.5 503.5Q562.0 502.0 558.5 499.5Q555.0 497.0 552.0 493.0Q549.0 489.0 547.5 485.0Q546.0 481.0 544.5 477.5Q543.0 474.0 542.5 470.0Q542.0 466.0 541.0 463.5Q540.0 461.0 539.0 458.5Q538.0 456.0 536.0 453.5Q534.0 451.0 531.5 449.0Q529.0 447.0 526.0 444.5Q523.0 442.0 520.5 438.5Q518.0 435.0 515.5 431.0Q513.0 427.0 511.5 422.5Q510.0 418.0 509.5 413.5Q509.0 409.0 510.5 404.5Q512.0 400.0 514.5 396.5Q517.0 393.0 520.5 390.5Q524.0 388.0 528.5 386.5Q533.0 385.0 538.0 384.5Q543.0 384.0 547.5 384.5Q552.0 385.0 556.0 386.5Q560.0 388.0 563.0 389.0Q566.0 390.0 569.0 390.5Q572.0 391.0 575.0 391.0Q578.0 391.0 581.0 390.0Q584.0 389.0 587.5 388.0Q591.0 387.0 595.0 386.0Q599.0 385.0 603.5 384.5Q608.0 384.0 612.5 384.0Q617.0 384.0 622.0 385.5Q627.0 387.0 631.0 389.5Q635.0 392.0 637.5 395.5Q640.0 399.0 641.5 403.5Q643.0 408.0 643.0 413.0Q643.0 418.0 641.5 422.5Q640.0 427.0 637.5 431.0Q635.0 435.0 632.0 438.5Q629.0 442.0 626.0 444.5Q623.0 447.0 620.5 449.5Q618.0 452.0 616.5 454.5Q615.0 457.0 613.5 459.5Q612.0 462.0 611.5 465.0Q611.0 468.0 610.0 472.0Q609.0 476.0 608.0 480.5Q607.0 485.0 605.0 489.0Q603.0 493.0 600.0 497.5Q597.0 502.0 593.0 505.0Q589.0 508.0 584.5 509.5Q580.0 511.0 575.0 511.0Q570.0 511.0 565.5 509.5Q561.0 508.0 557.0 505.0Q553.0 502.0 550.0 498.0Q547.0 494.0 545.0 490.0Q543.0 486.0 541.5 481.5Q540.0 477.0 539.5 473.0Q539.0 469.0 538.0 466.0Q537.0 463.0 535.5 460.0Q534.0 457.0 532.0 455.0Q530.0 453.0 527.5 450.5Q525.0 448.0 522.0 445.0Q519.0 442.0 516.0 438.5Q513.0 435.0 510.0 430.5Q507.0 426.0 505.5 421.5Q504.0 417.0 503.5 412.0Q503.0 407.0 504.5 402.0Q506.0 397.0 509.0 393.0Q512.0 389.0 516.0 386.0Q520.0 383.0 525.0 381.5Q530.0 380.0 535.0 380.0Q540.0 380.0 545.0 380.5Q550.0 381.0 554.0 382.0Q558.0 383.0 562.0 384.5Q566.0 386.0 569.0 386.5Q572.0 387.0 575.0 387.0Q578.0 387.0 581.0 386.5Q584.0 386.0 588.0 384.5Q592.0 383.0 596.5 382.0Q601.0 381.0 605.5 380.0Q610.0 379.0 615.5 379.5Q621.0 380.0 626.0 381.0Q631.0 382.0 635.5 385.0Q640.0 388.0 643.0 392.0Q646.0 396.0 647.5 401.0Q649.0 406.0 649.0 411.0Q649.0 416.0 647.0 421.0Q645.0 426.0 642.5 430.5Q640.0 435.0 637.0 438.5Q634.0 442.0 630.5 445.0Q627.0 448.0 624.5 451.0Q622.0 454.0 620.0 456.5Q618.0 459.0 616.5 461.5Q615.0 464.0 614.5 467.5Q614.0 471.0 613.0 475.0Q612.0 479.0 610.5 484.0Q609.0 489.0 607.0 493.5Q605.0 498.0 601.5 502.5Q598.0 507.0 594.0 510.5Q590.0 514.0 585.0 515.5Q580.0 517.0 575.0 517.0Q570.0 517.0 565.0 515.5Q560.0 514.0 555.5 511.0Q551.0 508.0 548.0 503.5Q545.0 499.0 542.5 494.5Q540.0 490.0 539.0 485.0Q538.0 480.0 537.0 476.0Q536.0 472.0 535.0 468.5Q534.0 465.0 532.5 462.0Q531.0 459.0 529.0 456.5Q527.0 454.0 524.0 451.5Q521.0 449.0 517.5 446.0Q514.0 443.0 511.0 439.0Q508.0 435.0 505.0 430.5Q502.0 426.0 500.0 420.5Q498.0 415.0 498.0 409.5Q498.0 404.0 499.5 399.0Q501.0 394.0 504.0 389.5Q507.0 385.0 511.5 382.0Q516.0 379.0 521.0 377.5Q526.0 376.0 531.5 375.5Q537.0 375.0 542.5 376.0Q548.0 377.0 552.5 378.0Q557.0 379.0 561.0 380.5Q565.0 382.0 568.5 382.5Q572.0 383.0 575.0 383.0Q578.0 383.0 581.5 382.5Q585.0 382.0 589.0 380.5Q593.0 379.0 598.0 377.5Q603.0 376.0 608.0 375.5Q613.0 375.0 618.5 375.0Q624.0 375.0 629.5 376.5Q635.0 378.0 640.0 381.0Q645.0 384.0 648.0 388.5Q651.0 393.0 653.0 398.0Q655.0 403.0 654.5 409.0Q654.0 415.0 652.5 420.0Q651.0 425.0 648.0 430.0Q645.0 435.0 641.5 439.0Q638.0 443.0 634.5 446.0Q631.0 449.0 628.5 452.0Q626.0 455.0 623.5 457.5Q621.0 460.0 619.5 463.5Q618.0 467.0 617.0 470.5Q616.0 474.0 615.5 478.5Q615.0 483.0 613.5 488.0Q612.0 493.0 609.5 498.0Q607.0 503.0 603.5 507.5Q600.0 512.0 595.5 516.0Q591.0 520.0 586.0 522.0Q581.0 524.0 575.0 524.0Q569.0 524.0 564.0 522.0Q559.0 520.0 554.5 516.5Q550.0 513.0 546.5 508.5Q543.0 504.0 540.5 499.0Q538.0 494.0 536.5 489.0Q535.0 484.0 534.0 479.5Q533.0 475.0 532.0 471.0Q531.0 467.0 529.5 464.0Q528.0 461.0 525.5 458.5Q523.0 456.0 520.0 453.0Q517.0 450.0 513.5 446.5Q510.0 443.0 506.5 439.0Q503.0 435.0 499.5 430.0Q496.0 425.0 494.5 419.5Q493.0 414.0 492.5 408.0Q492.0 402.0 493.5 396.5Q495.0 391.0 498.5 386.5Q502.0 382.0 506.5 378.5Q511.0 375.0 517.0 373.5Q523.0 372.0 528.5 371.5Q534.0 371.0 540.0 372.0Q546.0 373.0 551.0 374.0Q556.0 375.0 560.0 376.5Q564.0 378.0 568.0 379.0Q572.0 380.0 575.0 380.0Q578.0 380.0 582.0 379.0Q586.0 378.0 590.0 376.5Q594.0 375.0 599.5 373.5Q605.0 372.0 610.5 371.0Q616.0 370.0 622.0 370.5Q628.0 371.0 634.0 372.5Q640.0 374.0 645.0 377.5Q650.0 381.0 653.5 385.5Q657.0 390.0 658.5 395.5Q660.0 401.0 660.0 407.0Q660.0 413.0 658.0 419.0Q656.0 425.0 653.0 430.0Q650.0 435.0 646.5 439.5Q643.0 444.0 639.0 447.5Q635.0 451.0 632.0 453.5Q629.0 456.0 627.0 459.0Q625.0 462.0 623.0 465.5Q621.0 469.0 620.0 473.0Q619.0 477.0 618.0 481.5Q617.0 486.0 615.5 491.5Q614.0 497.0 611.5 502.5Q609.0 508.0 605.5 513.0Q602.0 518.0 597.0 522.0Q592.0 526.0 586.5 528.0Q581.0 530.0 575.0 530.0Q569.0 530.0 563.5 528.0Q558.0 526.0 553.0 522.5Q548.0 519.0 544.0 514.0Q540.0 509.0 537.5 503.5Q535.0 498.0 533.5 492.5Q532.0 487.0 531.0 482.5Q530.0 478.0 529.0 473.5Q528.0 469.0 526.0 466.0Q524.0 463.0 522.0 460.0Q520.0 457.0 516.5 454.0Q513.0 451.0 509.0 447.5Q505.0 444.0 501.5 439.5Q498.0 435.0 494.5 429.5Q491.0 424.0 489.0 418.0Q487.0 412.0 486.5 406.0Q486.0 400.0 488.0 394.0Q490.0 388.0 493.5 383.0Q497.0 378.0 502.0 374.5Q507.0 371.0 513.0 369.0Q519.0 367.0 525.5 367.0Q532.0 367.0 538.0 367.5Q544.0 368.0 549.0 369.5Q554.0 371.0 558.5 372.5Q563.0 374.0 567.0 375.0Q571.0 376.0 575.0 376.0Q579.0 376.0 583.0 375.0Q587.0 374.0 591.5 372.5Q596.0 371.0 601.5 369.5Q607.0 368.0 613.0 367.0Q619.0 366.0 625.5 366.5Q632.0 367.0 638.0 368.5Q644.0 370.0 649.5 373.5Q655.0 377.0 658.5 382.0Q662.0 387.0 664.0 393.0Q666.0 399.0 666.0 405.5Q666.0 412.0 664.0 418.0Q662.0 424.0 658.5 429.5Q655.0 435.0 651.0 439.5Q647.0 444.0 643.0 448.0Q639.0 452.0 636.0 455.0Q633.0 458.0 630.5 461.0Q628.0 464.0 626.5 467.5Q625.0 471.0 623.5 475.0Q622.0 479.0 621.0 484.5Q620.0 490.0 618.5 495.5Q617.0 501.0 614.5 507.0Q612.0 513.0 608.0 518.0Q604.0 523.0 598.5 527.0Q593.0 531.0 587.0 533.5Q581.0 536.0 575.0 536.0Q569.0 536.0 563.0 534.0Q557.0 532.0 551.5 528.0Q546.0 524.0 542.0 519.0Q538.0 514.0 535.5 508.0Q533.0 502.0 531.0 496.0Q529.0 490.0 528.0 485.0Q527.0 480.0 525.5 476.0Q524.0 472.0 522.5 468.5Q521.0 465.0 518.5 461.5Q516.0 458.0 512.5 455.0Q509.0 452.0 505.0 448.0Q501.0 444.0 497.0 439.5Q493.0 435.0 489.5 429.5Q486.0 424.0 483.5 417.5Q481.0 411.0 481.0 404.5Q481.0 398.0 482.5 391.5Q484.0 385.0 488.0 380.0Q492.0 375.0 497.5 371.0Q503.0 367.0 509.0 365.0Q515.0 363.0 522.0 362.5Q529.0 362.0 535.5 363.0Q542.0 364.0 547.5 365.5Q553.0 367.0 558.0 368.5Q563.0 370.0 567.0 371.0Q571.0 372.0 575.0 372.0Q579.0 372.0 583.0 371.0Q587.0 370.0 592.0 368.5Q597.0 367.0 603.0 365.5Q609.0 364.0 615.0 363.0Q621.0 362.0 628.0 362.0Q635.0 362.0 641.5 364.0Q648.0 366.0 654.0 369.5Q660.0 373.0 664.0 378.5Q668.0 384.0 670.0 390.5Q672.0 397.0 671.5 403.5Q671.0 410.0 669.0 416.5Q667.0 423.0 663.5 429.0Q660.0 435.0 656.0 440.0Q652.0 445.0 647.5 449.0Q643.0 453.0 639.5 456.0Q636.0 459.0 633.5 462.5Q631.0 466.0 629.5 469.5Q628.0 473.0 626.5 477.5Q625.0 482.0 624.0 487.5Q623.0 493.0 621.0 499.0Q619.0 505.0 616.5 511.0Q614.0 517.0 609.5 523.0Q605.0 529.0 600.0 533.0Q595.0 537.0 588.5 539.5Q582.0 542.0 575.0 542.0Q568.0 542.0 561.5 540.0Q555.0 538.0 549.5 533.5Q544.0 529.0 540.0 523.5Q536.0 518.0 533.0 512.0Q530.0 506.0 528.0 500.0Q526.0 494.0 525.0 488.5Q524.0 483.0 522.5 478.5Q521.0 474.0 519.5 470.0Q518.0 466.0 515.0 463.0Q512.0 460.0 508.5 456.5Q505.0 453.0 500.5 449.0Q496.0 445.0 492.0 440.0Q488.0 435.0 484.0 429.0Q480.0 423.0 478.0 416.0Q476.0 409.0 475.5 402.0Q475.0 395.0 477.0 388.5Q479.0 382.0 483.0 376.5Q487.0 371.0 492.5 367.0Q498.0 363.0 505.0 361.0Q512.0 359.0 519.0 358.5Q526.0 358.0 533.0 359.0Q540.0 360.0 546.0 361.5Q552.0 363.0 557.0 364.5Q562.0 366.0 566.5 367.0Q571.0 368.0 575.0 368.0Q579.0 368.0 583.5 367.0Q588.0 366.0 593.0 364.5Q598.0 363.0 604.5 361.5Q611.0 360.0 617.5 358.5Q624.0 357.0 631.5 357.5Q639.0 358.0 646.0 360.0Q653.0 362.0 659.0 366.0Q665.0 370.0 669.0 375.5Q673.0 381.0 675.0 387.5Q677.0 394.0 677.0 401.5Q677.0 409.0 675.0 416.0Q673.0 423.0 669.0 429.0Q665.0 435.0 660.5 440.0Q656.0 445.0 651.5 449.5Q647.0 454.0 643.5 457.5Q640.0 461.0 637.0 464.5Q634.0 468.0 632.5 471.5Q631.0 475.0 629.5 480.0Q628.0 485.0 627.0 490.5Q626.0 496.0 624.0 502.5Q622.0 509.0 619.0 515.5Q616.0 522.0 611.5 528.0Q607.0 534.0 601.5 538.5Q596.0 543.0 589.0 545.5Q582.0 548.0 575.0 548.5Q568.0 549.0 561.0 546.5Q554.0 544.0 548.5 539.5Q543.0 535.0 538.5 529.0Q534.0 523.0 530.5 516.5Q527.0 510.0 525.0 503.5Q523.0 497.0 522.0 491.5Q521.0 486.0 519.5 481.0Q518.0 476.0 516.5 472.0Q515.0 468.0 512.0 464.5Q509.0 461.0 505.0 457.5Q501.0 454.0 496.5 449.5Q492.0 445.0 487.5 440.0Q483.0 435.0 479.0 428.5Q475.0 422.0 472.5 415.0Q470.0 408.0 469.5 400.5Q469.0 393.0 471.0 386.0Q473.0 379.0 477.5 373.0Q482.0 367.0 488.0 363.0Q494.0 359.0 501.0 356.5Q508.0 354.0 515.5 354.0Q523.0 354.0 530.5 355.0Q538.0 356.0 544.0 357.5Q550.0 359.0 555.5 360.5Q561.0 362.0 566.0 363.5Q571.0 365.0 575.0 364.5Q579.0 364.0 584.0 363.0Q589.0 362.0 594.5 360.5Q600.0 359.0 606.5 357.0Q613.0 355.0 620.0 354.0Q627.0 353.0 634.5 353.5Q642.0 354.0 649.5 356.0Q657.0 358.0 663.5 362.0Q670.0 366.0 674.5 372.0Q679.0 378.0 681.0 385.0Q683.0 392.0 683.0 399.5Q683.0 407.0 680.5 414.5Q678.0 422.0 674.0 428.5Q670.0 435.0 665.5 440.5Q661.0 446.0 656.0 450.5Q651.0 455.0 647.5 458.5Q644.0 462.0 641.0 465.5Q638.0 469.0 636.0 473.5Q634.0 478.0 632.5 483.0Q631.0 488.0 630.0 494.0Q629.0 500.0 627.0 506.5Q625.0 513.0 621.5 520.0Q618.0 527.0 613.5 533.5Q609.0 540.0 603.0 544.5Q597.0 549.0 590.0 552.0Q583.0 555.0 575.0 555.0Q567.0 555.0 560.0 552.5Q553.0 550.0 547.0 545.0Q541.0 540.0 536.0 534.0Q531.0 528.0 528.0 521.0Q525.0 514.0 523.0 507.5Q521.0 501.0 519.5 495.0Q518.0 489.0 516.5 483.5Q515.0 478.0 513.0 474.0Q511.0 470.0 508.0 466.5Q505.0 463.0 501.0 459.0Q497.0 455.0 492.0 450.5Q487.0 446.0 482.5 440.5Q478.0 435.0 473.5 428.5Q469.0 422.0 466.5 414.5Q464.0 407.0 463.5 399.0Q463.0 391.0 465.5 383.5Q468.0 376.0 472.5 370.0Q477.0 364.0 483.5 359.5Q490.0 355.0 497.5 352.5Q505.0 350.0 513.0 349.5Q521.0 349.0 528.5 350.0Q536.0 351.0 542.5 353.0Q549.0 355.0 554.5 357.0Q560.0 359.0 565.0 360.0Q570.0 361.0 575.0 361.0Q580.0 361.0 585.0 360.0Q590.0 359.0 595.5 357.0Q601.0 355.0 608.0 353.0Q615.0 351.0 622.5 350.0Q630.0 349.0 638.0 349.0Q646.0 349.0 653.5 351.5Q661.0 354.0 668.0 358.5Q675.0 363.0 679.5 369.0Q684.0 375.0 686.5 382.5Q689.0 390.0 688.5 398.0Q688.0 406.0 685.5 413.5Q683.0 421.0 679.0 428.0Q675.0 435.0 670.0 440.5Q665.0 446.0 660.0 451.0Q655.0 456.0 651.0 460.0Q647.0 464.0 644.0 467.5Q641.0 471.0 639.0 475.5Q637.0 480.0 635.5 485.0Q634.0 490.0 632.5 496.5Q631.0 503.0 629.0 510.0Q627.0 517.0 624.0 524.5Q621.0 532.0 616.0 538.5Q611.0 545.0 604.5 550.0Q598.0 555.0 590.5 558.0Q583.0 561.0 575.0 561.0Q567.0 561.0 559.5 558.5Q552.0 556.0 545.5 551.0Q539.0 546.0 534.0 539.5Q529.0 533.0 525.5 525.5Q522.0 518.0 520.0 511.0Q518.0 504.0 516.5 497.5Q515.0 491.0 513.5 486.0Q512.0 481.0 510.0 476.5Q508.0 472.0 505.0 468.0Q502.0 464.0 497.5 460.0Q493.0 456.0 488.0 451.5Q483.0 447.0 478.0 441.0Q473.0 435.0 468.5 428.0Q464.0 421.0 461.5 413.0Q459.0 405.0 458.5 397.0Q458.0 389.0 460.0 381.0Q462.0 373.0 467.0 366.5Q472.0 360.0 478.5 355.5Q485.0 351.0 493.0 348.5Q501.0 346.0 509.5 345.5Q518.0 345.0 526.0 346.0Q534.0 347.0 541.0 349.0Q548.0 351.0 554.0 353.0Q560.0 355.0 565.0 356.0Q570.0 357.0 575.0 357.0Q580.0 357.0 585.0 356.0Q590.0 355.0 596.0 353.0Q602.0 351.0 609.0 349.0Q616.0 347.0 624.5 345.5Q633.0 344.0 641.0 344.5Q649.0 345.0 657.5 347.5Q666.0 350.0 673.0 354.5Q680.0 359.0 685.0 365.5Q690.0 372.0 692.5 380.0Q695.0 388.0 694.5 396.0Q694.0 404.0 691.5 412.5Q689.0 421.0 684.5 428.0Q680.0 435.0 675.0 441.0Q670.0 447.0 664.5 452.0Q659.0 457.0 655.0 461.0Q651.0 465.0 647.5 469.0Q644.0 473.0 642.0 477.5Q640.0 482.0 638.5 487.5Q637.0 493.0 635.5 499.5Q634.0 506.0 632.0 513.5Q630.0 521.0 626.5 529.0Q623.0 537.0 618.0 544.0Q613.0 551.0 606.0 556.0Q599.0 561.0 591.0 564.0Q583.0 567.0 575.0 567.0Q567.0 567.0 559.0 564.5Q551.0 562.0 544.0 556.5Q537.0 551.0 532.0 544.5Q527.0 538.0 523.5 530.0Q520.0 522.0 517.5 514.5Q515.0 507.0 513.5 500.5Q512.0 494.0 510.5 488.5Q509.0 483.0 507.0 478.5Q505.0 474.0 501.5 469.5Q498.0 465.0 493.5 461.0Q489.0 457.0 483.5 452.0Q478.0 447.0 473.0 441.0Q468.0 435.0 463.5 427.5Q459.0 420.0 456.0 412.0Q453.0 404.0 452.5 395.0Q452.0 386.0 454.5 378.0Q457.0 370.0 462.0 363.0Q467.0 356.0 474.0 351.5Q481.0 347.0 489.5 344.0Q498.0 341.0 506.5 341.0Q515.0 341.0 523.5 342.0Q532.0 343.0 539.0 345.0Q546.0 347.0 552.5 349.0Q559.0 351.0 564.5 352.0Q570.0 353.0 575.0 353.0Q580.0 353.0 585.5 352.0Q591.0 351.0 597.5 349.0Q604.0 347.0 611.0 345.0Q618.0 343.0 626.5 341.5Q635.0 340.0 644.0 340.5Q653.0 341.0 661.5 343.5Q670.0 346.0 677.5 350.5Q685.0 355.0 690.0 362.0Q695.0 369.0 697.5 377.0Q700.0 385.0 700.0 394.0Q700.0 403.0 697.0 411.5Q694.0 420.0 689.5 427.5Q685.0 435.0 679.5 441.5Q674.0 448.0 669.0 453.0Q664.0 458.0 659.0 462.0Q654.0 466.0 651.0 470.5Q648.0 475.0 645.5 479.5Q643.0 484.0 641.5 490.0Q640.0 496.0 638.5 503.0Q637.0 510.0 634.5 517.5Q632.0 525.0 628.5 533.0Q625.0 541.0 619.5 548.5Q614.0 556.0 607.0 561.5Q600.0 567.0 592.0 570.0Q584.0 573.0 575.0 573.0Q566.0 573.0 558.0 570.5Q550.0 568.0 542.5 562.5Q535.0 557.0 529.5 549.5Q524.0 542.0 520.5 534.0Q517.0 526.0 514.5 518.5Q512.0 511.0 510.5 504.0Q509.0 497.0 507.5 491.0Q506.0 485.0 503.5 480.0Q501.0 475.0 497.5 471.0Q494.0 467.0 489.5 462.5Q485.0 458.0 479.5 453.0Q474.0 448.0 468.5 441.5Q463.0 435.0 458.0 427.5Q453.0 420.0 450.0 411.0Q447.0 402.0 446.5 393.0Q446.0 384.0 448.5 375.5Q451.0 367.0 456.5 360.0Q462.0 353.0 469.5 348.0Q477.0 343.0 485.5 340.0Q494.0 337.0 503.0 336.5Q512.0 336.0 521.0 337.5Q530.0 339.0 537.5 341.0Q545.0 343.0 551.5 345.0Q558.0 347.0 564.0 348.0Q570.0 349.0 575.0 349.0Q580.0 349.0 586.0 348.0Q592.0 347.0 598.5 345.0Q605.0 343.0 612.5 340.5Q620.0 338.0 629.0 337.0Q638.0 336.0 647.5 336.0Q657.0 336.0 665.5 339.0Q674.0 342.0 682.0 347.0Q690.0 352.0 695.5 359.0Q701.0 366.0 703.5 374.5Q706.0 383.0 705.5 392.5Q705.0 402.0 702.5 410.5Q700.0 419.0 695.0 427.0Q690.0 435.0 684.5 441.5Q679.0 448.0 673.5 453.5Q668.0 459.0 663.0 463.5Q658.0 468.0 654.5 472.5Q651.0 477.0 648.5 482.0Q646.0 487.0 644.5 493.0Q643.0 499.0 641.5 506.0Q640.0 513.0 637.5 521.5Q635.0 530.0 631.0 538.0Q627.0 546.0 621.5 553.5Q616.0 561.0 608.5 567.0Q601.0 573.0 592.5 576.5Q584.0 580.0 575.0 580.0Q566.0 580.0 557.5 577.0Q549.0 574.0 541.5 568.0Q534.0 562.0 528.0 554.5Q522.0 547.0 518.0 539.0Q514.0 531.0 511.5 522.5Q509.0 514.0 507.5 507.0Q506.0 500.0 504.5 493.5Q503.0 487.0 500.5 482.0Q498.0 477.0 494.5 472.5Q491.0 468.0 486.0 463.5Q481.0 459.0 475.0 453.5Q469.0 448.0 463.5 441.5Q458.0 435.0 453.0 427.0Q448.0 419.0 445.0 410.0Q442.0 401.0 441.5 391.5Q441.0 382.0 443.5 373.0Q446.0 364.0 451.5 356.5Q457.0 349.0 464.5 343.5Q472.0 338.0 481.0 335.5Q490.0 333.0 500.0 332.5Q510.0 332.0 519.0 333.0Q528.0 334.0 536.0 336.5Q544.0 339.0 550.5 341.0Q557.0 343.0 563.0 344.5Q569.0 346.0 575.0 346.0Q581.0 346.0 587.0 344.5Q593.0 343.0 599.5 341.0Q606.0 339.0 614.0 336.5Q622.0 334.0 631.5 332.5Q641.0 331.0 650.5 331.5Q660.0 332.0 669.5 335.0Q679.0 338.0 687.0 343.0Q695.0 348.0 700.5 355.5Q706.0 363.0 709.0 372.0Q712.0 381.0 711.5 390.5Q711.0 400.0 708.0 409.5Q705.0 419.0 700.0 427.0Q695.0 435.0 689.0 442.0Q683.0 449.0 677.5 454.5Q672.0 460.0 667.0 464.5Q662.0 469.0 658.0 473.5Q654.0 478.0 651.5 483.5Q649.0 489.0 647.5 495.5Q646.0 502.0 644.5 509.5Q643.0 517.0 640.5 525.5Q638.0 534.0 634.0 542.5Q630.0 551.0 624.0 559.0Q618.0 567.0 610.0 573.0Q602.0 579.0 593.0 582.5Q584.0 586.0 575.0 586.0Q566.0 586.0 556.5 583.0Q547.0 580.0 539.5 574.0Q532.0 568.0 526.0 560.0Q520.0 552.0 516.0 543.5Q512.0 535.0 509.5 526.5Q507.0 518.0 505.0 510.0Q503.0 502.0 501.5 496.0Q500.0 490.0 497.5 484.5Q495.0 479.0 491.0 474.5Q487.0 470.0 482.0 465.0Q477.0 460.0 471.0 454.5Q465.0 449.0 459.0 442.0Q453.0 435.0 447.5 426.5Q442.0 418.0 439.0 408.5Q436.0 399.0 435.5 389.5Q435.0 380.0 437.5 370.5Q440.0 361.0 446.0 353.0Q452.0 345.0 460.0 339.5Q468.0 334.0 477.5 331.0Q487.0 328.0 497.0 327.5Q507.0 327.0 516.5 328.5Q526.0 330.0 534.0 332.5Q542.0 335.0 549.5 337.0Q557.0 339.0 563.0 340.5Q569.0 342.0 575.0 342.0Q581.0 342.0 587.0 340.5Q593.0 339.0 600.5 337.0Q608.0 335.0 616.0 332.5Q624.0 330.0 634.0 328.5Q644.0 327.0 654.0 327.5Q664.0 328.0 673.5 330.5Q683.0 333.0 691.5 338.5Q700.0 344.0 706.0 352.0Q712.0 360.0 714.5 369.5Q717.0 379.0 717.0 389.0Q717.0 399.0 714.0 408.5Q711.0 418.0 705.5 426.5Q700.0 435.0 694.0 442.0Q688.0 449.0 682.0 455.0Q676.0 461.0 670.5 466.0Q665.0 471.0 661.0 475.5Q657.0 480.0 654.5 485.5Q652.0 491.0 650.5 497.5Q649.0 504.0 647.0 512.0Q645.0 520.0 642.5 529.0Q640.0 538.0 636.0 547.0Q632.0 556.0 626.0 564.0Q620.0 572.0 612.0 578.5Q604.0 585.0 594.5 588.5Q585.0 592.0 575.0 592.0Q565.0 592.0 555.5 589.0Q546.0 586.0 538.0 579.5Q530.0 573.0 524.0 565.0Q518.0 557.0 513.5 548.0Q509.0 539.0 506.5 530.0Q504.0 521.0 502.0 513.0Q500.0 505.0 498.5 498.5Q497.0 492.0 494.5 486.5Q492.0 481.0 488.0 476.0Q484.0 471.0 478.5 466.0Q473.0 461.0 466.5 455.0Q460.0 449.0 454.0 442.0Q448.0 435.0 442.5 426.5Q437.0 418.0 433.5 408.0Q430.0 398.0 429.5 387.5Q429.0 377.0 432.0 367.5Q435.0 358.0 441.0 350.0Q447.0 342.0 455.0 336.0Q463.0 330.0 473.0 327.0Q483.0 324.0 493.5 323.5Q504.0 323.0 514.0 324.5Q524.0 326.0 532.5 328.5Q541.0 331.0 548.5 333.0Q556.0 335.0 562.5 336.5Q569.0 338.0 575.0 338.0Q581.0 338.0 587.5 336.5Q594.0 335.0 601.5 333.0Q609.0 331.0 617.5 328.5Q626.0 326.0 636.0 324.5Q646.0 323.0 656.5 323.0Q667.0 323.0 677.0 326.0Q687.0 329.0 696.0 335.0Q705.0 341.0 711.0 349.0Q717.0 357.0 720.0 366.5Q723.0 376.0 722.5 386.5Q722.0 397.0 719.0 407.0Q716.0 417.0 710.5 426.0Q705.0 435.0 698.5 442.5Q692.0 450.0 686.0 456.0Q680.0 462.0 674.5 467.0Q669.0 472.0 665.0 477.0Q661.0 482.0 658.0 487.5Q655.0 493.0 653.5 500.0Q652.0 507.0 650.0 515.0Q648.0 523.0 645.5 532.5Q643.0 542.0 638.5 551.5Q634.0 561.0 627.5 569.5Q621.0 578.0 613.0 584.5Q605.0 591.0 595.0 594.5Q585.0 598.0 575.0 598.0Q565.0 598.0 555.0 595.0Q545.0 592.0 536.5 585.5Q528.0 579.0 521.5 570.5Q515.0 562.0 511.0 552.5Q507.0 543.0 504.0 533.5Q501.0 524.0 499.0 516.0Q497.0 508.0 495.5 501.0Q494.0 494.0 491.0 488.5Q488.0 483.0 484.0 478.0Q480.0 473.0 474.5 467.5Q469.0 462.0 462.5 456.0Q456.0 450.0 449.5 442.5Q443.0 435.0 437.0 426.0Q431.0 417.0 428.0 406.5Q425.0 396.0 424.5 385.5Q424.0 375.0 426.5 365.0Q429.0 355.0 435.5 346.5Q442.0 338.0 450.5 332.0Q459.0 326.0 469.5 323.0Q480.0 320.0 490.5 319.5Q501.0 319.0 511.5 320.5Q522.0 322.0 531.0 324.5Q540.0 327.0 547.5 329.0Q555.0 331.0 562.0 332.5Q569.0 334.0 575.0 334.0Q581.0 334.0 588.0 332.5Q595.0 331.0 602.5 329.0Q610.0 327.0 619.0 324.0Q628.0 321.0 638.5 319.5Q649.0 318.0 660.0 318.5Q671.0 319.0 681.5 322.0Q692.0 325.0 701.0 331.0Q710.0 337.0 716.5 345.5Q723.0 354.0 726.0 364.0Q729.0 374.0 728.5 385.0Q728.0 396.0 724.5 406.5Q721.0 417.0 715.5 426.0Q710.0 435.0 703.5 442.5Q697.0 450.0 690.5 456.5Q684.0 463.0 678.0 468.5Q672.0 474.0 668.0 479.0Q664.0 484.0 661.0 490.0Q658.0 496.0 656.5 503.0Q655.0 510.0 653.0 518.5Q651.0 527.0 648.0 536.5Q645.0 546.0 640.5 555.5Q636.0 565.0 629.5 574.0Q623.0 583.0 614.5 590.0Q606.0 597.0 596.0 600.5Q586.0 604.0 575.0 604.5Q564.0 605.0 554.0 601.0Q544.0 597.0 535.5 590.5Q527.0 584.0 520.0 575.0Q513.0 566.0 508.5 556.5Q504.0 547.0 501.0 537.5Q498.0 528.0 496.0 519.5Q494.0 511.0 492.5 503.5Q491.0 496.0 488.0 490.0Q485.0 484.0 480.5 479.0Q476.0 474.0 470.5 468.5Q465.0 463.0 458.0 457.0Q451.0 451.0 444.5 443.0Q438.0 435.0 432.0 425.5Q426.0 416.0 422.5 405.5Q419.0 395.0 418.5 384.0Q418.0 373.0 421.0 362.5Q424.0 352.0 430.5 343.0Q437.0 334.0 446.0 328.0Q455.0 322.0 465.5 319.0Q476.0 316.0 487.0 315.0Q498.0 314.0 509.0 315.5Q520.0 317.0 529.0 320.0Q538.0 323.0 546.5 325.5Q555.0 328.0 561.5 329.5Q568.0 331.0 575.0 331.0Q582.0 331.0 588.5 329.5Q595.0 328.0 603.5 325.0Q612.0 322.0 621.0 319.5Q630.0 317.0 641.0 315.5Q652.0 314.0 663.0 314.5Q674.0 315.0 685.0 318.0Q696.0 321.0 705.5 327.0Q715.0 333.0 721.5 342.0Q728.0 351.0 731.0 361.5Q734.0 372.0 734.0 383.0Q734.0 394.0 730.5 405.0Q727.0 416.0 721.0 425.5Q715.0 435.0 708.0 443.0Q701.0 451.0 694.5 457.5Q688.0 464.0 682.0 469.5Q676.0 475.0 671.5 480.5Q667.0 486.0 664.0 492.0Q661.0 498.0 659.5 505.5Q658.0 513.0 656.0 521.5Q654.0 530.0 651.0 540.0Q648.0 550.0 643.5 560.0Q639.0 570.0 632.0 579.5Q625.0 589.0 616.0 596.0Q607.0 603.0 596.5 607.0Q586.0 611.0 575.0 611.0Q564.0 611.0 553.5 607.0Q543.0 603.0 534.0 596.5Q525.0 590.0 518.0 580.5Q511.0 571.0 506.0 561.0Q501.0 551.0 498.0 541.0Q495.0 531.0 493.0 522.0Q491.0 513.0 489.0 506.0Q487.0 499.0 484.5 492.5Q482.0 486.0 477.5 480.5Q473.0 475.0 467.0 469.5Q461.0 464.0 454.0 457.5Q447.0 451.0 440.0 443.0Q433.0 435.0 427.0 425.0Q421.0 415.0 417.0 404.0Q413.0 393.0 412.5 382.0Q412.0 371.0 415.0 360.0Q418.0 349.0 425.0 340.0Q432.0 331.0 441.0 324.5Q450.0 318.0 461.5 314.5Q473.0 311.0 484.5 310.5Q496.0 310.0 507.0 311.5Q518.0 313.0 527.5 316.0Q537.0 319.0 545.5 321.5Q554.0 324.0 561.0 325.5Q568.0 327.0 575.0 327.0Q582.0 327.0 589.0 325.5Q596.0 324.0 604.5 321.0Q613.0 318.0 622.5 315.5Q632.0 313.0 643.5 311.5Q655.0 310.0 666.5 310.5Q678.0 311.0 689.5 314.0Q701.0 317.0 710.5 323.5Q720.0 330.0 726.5 339.0Q733.0 348.0 736.5 359.0Q740.0 370.0 739.5 381.5Q739.0 393.0 735.5 404.0Q732.0 415.0 726.0 425.0Q720.0 435.0 713.0 443.5Q706.0 452.0 699.0 458.5Q692.0 465.0 685.5 470.5Q679.0 476.0 675.0 482.0Q671.0 488.0 668.0 494.0Q665.0 500.0 663.0 507.5Q661.0 515.0 659.0 524.5Q657.0 534.0 654.0 544.0Q651.0 554.0 646.0 564.5Q641.0 575.0 634.0 584.5Q627.0 594.0 617.5 601.5Q608.0 609.0 597.0 613.0Q586.0 617.0 575.0 617.0Q564.0 617.0 553.0 613.0Q542.0 609.0 532.5 602.0Q523.0 595.0 516.0 585.5Q509.0 576.0 504.0 565.5Q499.0 555.0 496.0 545.0Q493.0 535.0 491.0 525.5Q489.0 516.0 486.5 508.5Q484.0 501.0 481.0 494.5Q478.0 488.0 473.5 482.5Q469.0 477.0 463.0 471.0Q457.0 465.0 449.5 458.5Q442.0 452.0 435.0 443.5Q428.0 435.0 421.5 425.0Q415.0 415.0 411.5 403.5Q408.0 392.0 407.0 380.0Q406.0 368.0 409.5 357.0Q413.0 346.0 420.0 336.5Q427.0 327.0 436.5 320.5Q446.0 314.0 457.5 310.5Q469.0 307.0 481.0 306.5Q493.0 306.0 504.5 307.5Q516.0 309.0 526.0 311.5Q536.0 314.0 544.5 317.0Q553.0 320.0 560.5 321.5Q568.0 323.0 575.0 323.0Q582.0 323.0 589.5 321.5Q597.0 320.0 605.5 317.0Q614.0 314.0 624.0 311.5Q634.0 309.0 645.5 307.0Q657.0 305.0 669.5 305.5Q682.0 306.0 693.5 309.5Q705.0 313.0 715.0 319.5Q725.0 326.0 732.0 335.5Q739.0 345.0 742.5 356.0Q746.0 367.0 745.5 379.0Q745.0 391.0 741.5 402.5Q738.0 414.0 731.5 424.5Q725.0 435.0 717.5 443.5Q710.0 452.0 703.0 459.0Q696.0 466.0 689.5 472.0Q683.0 478.0 678.5 483.5Q674.0 489.0 671.0 495.5Q668.0 502.0 665.5 510.0Q663.0 518.0 661.0 527.5Q659.0 537.0 656.0 547.5Q653.0 558.0 648.0 569.0Q643.0 580.0 635.5 590.0Q628.0 600.0 618.5 607.5Q609.0 615.0 598.0 619.0Q587.0 623.0 575.0 623.0Q563.0 623.0 552.0 619.0Q541.0 615.0 531.0 608.0Q521.0 601.0 513.5 591.0Q506.0 581.0 501.0 570.0Q496.0 559.0 493.0 548.5Q490.0 538.0 488.0 528.5Q486.0 519.0 483.5 511.0Q481.0 503.0 478.0 496.5Q475.0 490.0 470.5 484.0Q466.0 478.0 459.5 472.0Q453.0 466.0 445.5 459.0Q438.0 452.0 430.5 443.5Q423.0 435.0 416.5 424.5Q410.0 414.0 406.0 402.5Q402.0 391.0 401.5 378.5Q401.0 366.0 404.0 354.5Q407.0 343.0 414.5 333.5Q422.0 324.0 432.0 317.0Q442.0 310.0 453.5 306.5Q465.0 303.0 477.5 302.0Q490.0 301.0 502.0 303.0Q514.0 305.0 524.5 307.5Q535.0 310.0 543.5 313.0Q552.0 316.0 560.0 317.5Q568.0 319.0 575.0 319.0Q582.0 319.0 590.0 317.5Q598.0 316.0 607.0 313.0Q616.0 310.0 626.0 307.0Q636.0 304.0 648.0 302.5Q660.0 301.0 672.5 301.5Q685.0 302.0 697.0 305.5Q709.0 309.0 719.5 316.0Q730.0 323.0 737.0 332.5Q744.0 342.0 748.0 353.5Q752.0 365.0 751.5 377.5Q751.0 390.0 747.0 402.0Q743.0 414.0 736.5 424.5Q730.0 435.0 722.5 444.0Q715.0 453.0 707.5 460.0Q700.0 467.0 693.5 473.0Q687.0 479.0 682.0 485.0Q677.0 491.0 674.0 498.0Q671.0 505.0 668.5 513.0Q666.0 521.0 664.0 530.5Q662.0 540.0 659.0 551.0Q656.0 562.0 650.5 573.5Q645.0 585.0 637.5 595.0Q630.0 605.0 620.0 613.0Q610.0 621.0 598.5 625.0Q587.0 629.0 575.0 629.0Q563.0 629.0 551.0 625.0Q539.0 621.0 529.0 613.5Q519.0 606.0 511.5 596.0Q504.0 586.0 499.0 574.5Q494.0 563.0 490.5 552.0Q487.0 541.0 485.0 531.5Q483.0 522.0 480.5 513.5Q478.0 505.0 475.0 498.5Q472.0 492.0 467.0 486.0Q462.0 480.0 455.5 473.5Q449.0 467.0 441.0 460.0Q433.0 453.0 425.5 444.0Q418.0 435.0 411.0 424.0Q404.0 413.0 400.0 401.0Q396.0 389.0 395.5 376.5Q395.0 364.0 398.5 352.0Q402.0 340.0 409.5 330.0Q417.0 320.0 427.0 313.0Q437.0 306.0 449.5 302.0Q462.0 298.0 474.5 297.5Q487.0 297.0 499.5 298.5Q512.0 300.0 522.5 303.0Q533.0 306.0 542.5 309.0Q552.0 312.0 559.5 314.0Q567.0 316.0 575.0 316.0Q583.0 316.0 590.5 314.0Q598.0 312.0 607.5 309.0Q617.0 306.0 627.5 303.0Q638.0 300.0 650.5 298.5Q663.0 297.0 676.0 297.5Q689.0 298.0 701.5 301.5Q714.0 305.0 724.5 312.0Q735.0 319.0 742.5 329.0Q750.0 339.0 753.5 351.0Q757.0 363.0 757.0 375.5Q757.0 388.0 753.0 400.5Q749.0 413.0 742.0 424.0Q735.0 435.0 727.0 444.0Q719.0 453.0 711.5 460.5Q704.0 468.0 697.0 474.5Q690.0 481.0 685.0 487.0Q680.0 493.0 677.0 500.0Q674.0 507.0 671.5 515.5Q669.0 524.0 667.0 534.0Q665.0 544.0 661.5 555.0Q658.0 566.0 653.0 577.5Q648.0 589.0 640.0 600.0Q632.0 611.0 622.0 619.0Q612.0 627.0 600.0 631.5Q588.0 636.0 575.0 636.0Q562.0 636.0 550.0 631.5Q538.0 627.0 528.0 619.0Q518.0 611.0 510.0 601.0Q502.0 591.0 496.5 579.0Q491.0 567.0 487.5 556.0Q484.0 545.0 482.0 534.5Q480.0 524.0 477.5 516.0Q475.0 508.0 472.0 501.0Q469.0 494.0 464.0 487.5Q459.0 481.0 452.0 474.5Q445.0 468.0 437.0 460.5Q429.0 453.0 421.0 444.0Q413.0 435.0 406.0 424.0Q399.0 413.0 394.5 400.5Q390.0 388.0 389.5 374.5Q389.0 361.0 393.0 349.0Q397.0 337.0 404.5 326.5Q412.0 316.0 422.5 309.0Q433.0 302.0 445.5 298.0Q458.0 294.0 471.5 293.5Q485.0 293.0 497.5 294.5Q510.0 296.0 521.0 299.0Q532.0 302.0 541.5 305.0Q551.0 308.0 559.0 310.0Q567.0 312.0 575.0 312.0Q583.0 312.0 591.0 310.0Q599.0 308.0 608.5 305.0Q618.0 302.0 629.0 299.0Q640.0 296.0 653.0 294.0Q666.0 292.0 679.0 292.5Q692.0 293.0 705.0 297.0Q718.0 301.0 729.0 308.0Q740.0 315.0 747.5 325.5Q755.0 336.0 759.0 348.5Q763.0 361.0 762.5 374.0Q762.0 387.0 758.0 399.5Q754.0 412.0 747.0 423.5Q740.0 435.0 732.0 444.5Q724.0 454.0 716.0 461.5Q708.0 469.0 701.0 475.5Q694.0 482.0 689.0 488.5Q684.0 495.0 680.5 502.0Q677.0 509.0 674.5 517.5Q672.0 526.0 670.0 536.5Q668.0 547.0 664.5 558.5Q661.0 570.0 655.5 582.0Q650.0 594.0 642.0 605.0Q634.0 616.0 623.5 624.5Q613.0 633.0 600.5 637.5Q588.0 642.0 575.0 642.0Q562.0 642.0 549.5 637.5Q537.0 633.0 526.5 625.0Q516.0 617.0 508.0 606.0Q500.0 595.0 494.0 583.5Q488.0 572.0 484.5 560.0Q481.0 548.0 479.0 537.5Q477.0 527.0 474.5 518.5Q472.0 510.0 468.5 502.5Q465.0 495.0 460.0 489.0Q455.0 483.0 448.0 476.0Q441.0 469.0 432.5 461.5Q424.0 454.0 416.0 444.5Q408.0 435.0 401.0 423.5Q394.0 412.0 389.5 399.0Q385.0 386.0 384.5 372.5Q384.0 359.0 387.5 346.5Q391.0 334.0 399.0 323.5Q407.0 313.0 418.0 305.5Q429.0 298.0 442.0 294.0Q455.0 290.0 468.5 289.0Q482.0 288.0 495.0 290.0Q508.0 292.0 519.5 295.0Q531.0 298.0 540.5 301.0Q550.0 304.0 558.5 306.0Q567.0 308.0 575.0 308.0Q583.0 308.0 591.5 306.0Q600.0 304.0 609.5 301.0Q619.0 298.0 630.5 295.0Q642.0 292.0 655.0 290.0Q668.0 288.0 682.0 288.5Q696.0 289.0 709.0 293.0Q722.0 297.0 733.5 304.5Q745.0 312.0 753.0 322.5Q761.0 333.0 765.0 345.5Q769.0 358.0 768.5 371.5Q768.0 385.0 763.5 398.5Q759.0 412.0 752.0 423.5Q745.0 435.0 736.5 444.5Q728.0 454.0 720.0 462.0Q712.0 470.0 704.5 476.5Q697.0 483.0 692.0 490.0Q687.0 497.0 683.5 504.0Q680.0 511.0 677.5 520.0Q675.0 529.0 673.0 539.5Q671.0 550.0 667.5 562.0Q664.0 574.0 658.0 586.5Q652.0 599.0 644.0 610.0Q636.0 621.0 625.0 630.0Q614.0 639.0 601.0 643.5Q588.0 648.0 575.0 648.0Q562.0 648.0 549.0 643.5Q536.0 639.0 525.0 630.5Q514.0 622.0 505.5 611.0Q497.0 600.0 491.5 588.0Q486.0 576.0 482.5 564.0Q479.0 552.0 476.5 541.0Q474.0 530.0 471.5 521.0Q469.0 512.0 465.5 504.5Q462.0 497.0 456.5 490.5Q451.0 484.0 444.0 477.0Q437.0 470.0 428.5 462.5Q420.0 455.0 411.5 445.0Q403.0 435.0 395.5 423.0Q388.0 411.0 383.5 398.0Q379.0 385.0 378.5 371.0Q378.0 357.0 382.0 344.0Q386.0 331.0 394.0 320.0Q402.0 309.0 413.0 301.0Q424.0 293.0 437.5 289.0Q451.0 285.0 465.0 284.5Q479.0 284.0 492.5 286.0Q506.0 288.0 517.5 291.0Q529.0 294.0 539.0 297.0Q549.0 300.0 558.0 302.0Q567.0 304.0 575.0 304.0Q583.0 304.0 592.0 302.5Q601.0 301.0 611.0 297.5Q621.0 294.0 632.5 291.0Q644.0 288.0 657.5 285.5Q671.0 283.0 685.0 284.0Q699.0 285.0 713.0 289.0Q727.0 293.0 738.5 300.5Q750.0 308.0 758.0 319.0Q766.0 330.0 770.0 343.0Q774.0 356.0 774.0 370.0Q774.0 384.0 769.5 397.5Q765.0 411.0 757.5 423.0Q750.0 435.0 741.5 445.0Q733.0 455.0 724.5 463.0Q716.0 471.0 708.5 478.0Q701.0 485.0 695.5 491.5Q690.0 498.0 686.5 505.5Q683.0 513.0 680.5 522.5Q678.0 532.0 675.5 543.0Q673.0 554.0 669.5 566.5Q666.0 579.0 660.0 591.5Q654.0 604.0 645.5 615.5Q637.0 627.0 626.0 636.0Q615.0 645.0 602.0 649.5Q589.0 654.0 575.0 654.0Q561.0 654.0 548.0 649.5Q535.0 645.0 523.5 636.5Q512.0 628.0 503.5 616.5Q495.0 605.0 489.0 592.5Q483.0 580.0 479.5 567.5Q476.0 555.0 473.5 544.0Q471.0 533.0 468.5 523.5Q466.0 514.0 462.5 506.5Q459.0 499.0 453.5 492.0Q448.0 485.0 440.5 478.0Q433.0 471.0 424.0 463.0Q415.0 455.0 406.5 445.0Q398.0 435.0 390.5 423.0Q383.0 411.0 378.0 397.0Q373.0 383.0 372.5 369.0Q372.0 355.0 376.0 341.5Q380.0 328.0 388.5 316.5Q397.0 305.0 408.5 297.0Q420.0 289.0 434.0 285.0Q448.0 281.0 462.0 280.5Q476.0 280.0 490.0 281.5Q504.0 283.0 516.0 286.5Q528.0 290.0 538.5 293.5Q549.0 297.0 558.0 299.0Q567.0 301.0 575.0 301.0Q583.0 301.0 592.0 299.0Q601.0 297.0 611.5 293.5Q622.0 290.0 634.0 286.5Q646.0 283.0 660.0 281.0Q674.0 279.0 688.5 279.5Q703.0 280.0 717.0 284.5Q731.0 289.0 743.0 296.5Q755.0 304.0 763.5 315.5Q772.0 327.0 776.0 340.5Q780.0 354.0 779.5 368.5Q779.0 383.0 774.5 396.5Q770.0 410.0 762.5 422.5Q755.0 435.0 746.0 445.5Q737.0 456.0 728.5 464.0Q720.0 472.0 712.5 479.0Q705.0 486.0 699.5 493.0Q694.0 500.0 690.0 508.0Q686.0 516.0 683.5 525.5Q681.0 535.0 678.5 546.0Q676.0 557.0 672.5 570.0Q669.0 583.0 663.0 596.0Q657.0 609.0 648.0 620.5Q639.0 632.0 627.5 641.0Q616.0 650.0 602.5 655.0Q589.0 660.0 575.0 660.5Q561.0 661.0 547.5 656.0Q534.0 651.0 522.5 642.0Q511.0 633.0 502.0 621.5Q493.0 610.0 487.0 597.0Q481.0 584.0 477.0 571.0Q473.0 558.0 470.5 547.0Q468.0 536.0 465.5 526.0Q463.0 516.0 459.0 508.5Q455.0 501.0 449.5 494.0Q444.0 487.0 436.5 480.0Q429.0 473.0 420.0 464.5Q411.0 456.0 402.0 445.5Q393.0 435.0 385.0 422.5Q377.0 410.0 372.5 396.0Q368.0 382.0 367.5 367.0Q367.0 352.0 371.0 338.5Q375.0 325.0 383.5 313.5Q392.0 302.0 404.0 293.5Q416.0 285.0 430.0 281.0Q444.0 277.0 459.0 276.0Q474.0 275.0 488.0 277.0Q502.0 279.0 514.5 282.5Q527.0 286.0 537.5 289.5Q548.0 293.0 557.0 295.0Q566.0 297.0 575.0 297.0Q584.0 297.0 593.0 295.0Q602.0 293.0 612.5 289.5Q623.0 286.0 635.5 282.5Q648.0 279.0 662.5 277.0Q677.0 275.0 692.0 275.5Q707.0 276.0 721.0 280.0Q735.0 284.0 747.5 292.5Q760.0 301.0 768.5 312.5Q777.0 324.0 781.5 338.0Q786.0 352.0 785.5 366.5Q785.0 381.0 780.5 395.5Q776.0 410.0 768.0 422.5Q760.0 435.0 751.0 445.5Q742.0 456.0 733.0 464.5Q724.0 473.0 716.0 480.5Q708.0 488.0 702.5 495.0Q697.0 502.0 693.0 510.0Q689.0 518.0 686.5 527.5Q684.0 537.0 681.5 549.0Q679.0 561.0 675.0 574.0Q671.0 587.0 665.0 600.0Q659.0 613.0 650.0 625.5Q641.0 638.0 629.0 647.0Q617.0 656.0 603.5 661.5Q590.0 667.0 575.0 667.0Q560.0 667.0 546.5 662.0Q533.0 657.0 521.0 648.0Q509.0 639.0 499.5 627.0Q490.0 615.0 484.0 601.5Q478.0 588.0 474.0 575.0Q470.0 562.0 467.5 550.0Q465.0 538.0 462.5 528.5Q460.0 519.0 456.0 511.0Q452.0 503.0 446.5 495.5Q441.0 488.0 433.0 481.0Q425.0 474.0 415.5 465.0Q406.0 456.0 397.0 445.5Q388.0 435.0 380.0 422.0Q372.0 409.0 367.0 394.5Q362.0 380.0 361.5 365.0Q361.0 350.0 365.0 336.0Q369.0 322.0 378.0 310.0Q387.0 298.0 399.0 289.5Q411.0 281.0 425.5 276.5Q440.0 272.0 455.5 271.5Q471.0 271.0 485.5 273.0Q500.0 275.0 512.5 278.5Q525.0 282.0 536.0 285.5Q547.0 289.0 556.5 291.0Q566.0 293.0 575.0 293.0Q584.0 293.0 593.5 291.0Q603.0 289.0 614.0 285.5Q625.0 282.0 637.5 278.5Q650.0 275.0 664.5 272.5Q679.0 270.0 694.5 271.0Q710.0 272.0 725.0 276.0Q740.0 280.0 752.5 288.5Q765.0 297.0 774.0 309.0Q783.0 321.0 787.5 335.0Q792.0 349.0 791.5 364.5Q791.0 380.0 786.0 394.5Q781.0 409.0 773.0 422.0Q765.0 435.0 755.5 446.0Q746.0 457.0 737.0 465.5Q728.0 474.0 720.0 481.5Q712.0 489.0 706.0 496.5Q700.0 504.0 696.0 512.0Q692.0 520.0 689.5 530.0Q687.0 540.0 684.5 552.0Q682.0 564.0 678.0 577.5Q674.0 591.0 667.5 604.5Q661.0 618.0 652.0 630.5Q643.0 643.0 630.5 652.5Q618.0 662.0 604.0 667.5Q590.0 673.0 575.0 673.0Q560.0 673.0 546.0 668.0Q532.0 663.0 519.5 653.5Q507.0 644.0 497.5 631.5Q488.0 619.0 481.5 605.5Q475.0 592.0 471.0 578.5Q467.0 565.0 464.5 553.0Q462.0 541.0 459.5 531.0Q457.0 521.0 453.0 512.5Q449.0 504.0 443.0 497.0Q437.0 490.0 429.0 482.5Q421.0 475.0 411.5 466.0Q402.0 457.0 392.5 446.0Q383.0 435.0 375.0 422.0Q367.0 409.0 361.5 394.0Q356.0 379.0 355.5 363.5Q355.0 348.0 359.5 333.5Q364.0 319.0 373.0 306.5Q382.0 294.0 394.5 285.5Q407.0 277.0 422.0 272.5Q437.0 268.0 452.5 267.0Q468.0 266.0 483.0 268.5Q498.0 271.0 511.0 274.5Q524.0 278.0 535.0 281.5Q546.0 285.0 556.0 287.0Q566.0 289.0 575.0 289.0Q584.0 289.0 594.0 287.0Q604.0 285.0 615.0 281.5Q626.0 278.0 639.0 274.5Q652.0 271.0 667.0 268.5Q682.0 266.0 698.0 266.5Q714.0 267.0 729.0 271.5Q744.0 276.0 757.0 284.5Q770.0 293.0 779.0 305.5Q788.0 318.0 792.5 332.5Q797.0 347.0 796.5 362.5Q796.0 378.0 791.0 393.0Q786.0 408.0 778.0 421.5Q770.0 435.0 760.5 446.0Q751.0 457.0 741.5 466.0Q732.0 475.0 723.5 483.0Q715.0 491.0 709.0 498.5Q703.0 506.0 699.0 514.0Q695.0 522.0 692.5 532.5Q690.0 543.0 687.5 555.0Q685.0 567.0 680.5 581.0Q676.0 595.0 670.0 609.0Q664.0 623.0 654.0 636.0Q644.0 649.0 632.0 658.5Q620.0 668.0 605.0 673.5Q590.0 679.0 575.0 679.0Q560.0 679.0 545.0 674.0Q530.0 669.0 517.5 659.5Q505.0 650.0 495.5 637.0Q486.0 624.0 479.5 610.0Q473.0 596.0 469.0 582.0Q465.0 568.0 462.0 556.0Q459.0 544.0 456.5 533.5Q454.0 523.0 450.0 514.5Q446.0 506.0 439.5 498.5Q433.0 491.0 425.0 483.5Q417.0 476.0 407.5 466.5Q398.0 457.0 388.0 446.0Q378.0 435.0 369.5 421.5Q361.0 408.0 356.0 392.5Q351.0 377.0 350.0 361.5Q349.0 346.0 353.5 331.0Q358.0 316.0 367.5 303.5Q377.0 291.0 390.0 282.0Q403.0 273.0 418.0 268.5Q433.0 264.0 449.0 263.0Q465.0 262.0 480.5 264.0Q496.0 266.0 509.5 270.0Q523.0 274.0 534.5 277.5Q546.0 281.0 556.0 283.5Q566.0 286.0 575.0 286.0Q584.0 286.0 594.0 283.5Q604.0 281.0 615.5 277.5Q627.0 274.0 640.5 270.0Q654.0 266.0 669.5 264.0Q685.0 262.0 701.0 262.5Q717.0 263.0 732.5 267.5Q748.0 272.0 761.5 281.0Q775.0 290.0 784.5 302.5Q794.0 315.0 798.5 330.0Q803.0 345.0 802.5 361.0Q802.0 377.0 797.0 392.5Q792.0 408.0 783.5 421.5Q775.0 435.0 765.0 446.5Q755.0 458.0 745.5 467.0Q736.0 476.0 727.5 484.0Q719.0 492.0 713.0 499.5Q707.0 507.0 702.5 516.0Q698.0 525.0 695.5 535.5Q693.0 546.0 690.0 558.5Q687.0 571.0 683.0 585.0Q679.0 599.0 672.5 613.5Q666.0 628.0 656.0 641.0Q646.0 654.0 633.5 664.0Q621.0 674.0 606.0 679.5Q591.0 685.0 575.0 685.0Q559.0 685.0 544.0 680.0Q529.0 675.0 516.0 665.0Q503.0 655.0 493.5 642.0Q484.0 629.0 477.0 614.5Q470.0 600.0 466.0 586.0Q462.0 572.0 459.0 559.5Q456.0 547.0 453.5 536.0Q451.0 525.0 446.5 516.5Q442.0 508.0 436.0 500.0Q430.0 492.0 421.5 484.5Q413.0 477.0 403.0 467.5Q393.0 458.0 383.0 446.5Q373.0 435.0 364.5 421.0Q356.0 407.0 350.5 391.5Q345.0 376.0 344.5 359.5Q344.0 343.0 348.5 328.0Q353.0 313.0 362.0 300.0Q371.0 287.0 384.5 278.0Q398.0 269.0 414.0 264.0Q430.0 259.0 446.0 258.5Q462.0 258.0 478.0 260.0Q494.0 262.0 507.5 266.0Q521.0 270.0 533.0 273.5Q545.0 277.0 555.0 279.5Q565.0 282.0 575.0 282.0Q585.0 282.0 595.0 279.5Q605.0 277.0 617.0 273.5Q629.0 270.0 642.5 266.0Q656.0 262.0 672.0 259.5Q688.0 257.0 704.5 258.0Q721.0 259.0 737.0 263.5Q753.0 268.0 766.5 277.0Q780.0 286.0 789.5 299.0Q799.0 312.0 804.0 327.0Q809.0 342.0 808.5 358.5Q808.0 375.0 802.5 391.0Q797.0 407.0 788.5 421.0Q780.0 435.0 770.0 446.5Q760.0 458.0 750.0 467.5Q740.0 477.0 731.5 485.0Q723.0 493.0 716.5 501.0Q710.0 509.0 705.5 518.0Q701.0 527.0 698.5 537.5Q696.0 548.0 693.0 561.0Q690.0 574.0 686.0 588.5Q682.0 603.0 675.0 618.0Q668.0 633.0 658.0 646.5Q648.0 660.0 635.0 670.0Q622.0 680.0 606.5 685.5Q591.0 691.0 575.0 691.5Q559.0 692.0 543.5 686.5Q528.0 681.0 515.0 671.0Q502.0 661.0 491.5 647.5Q481.0 634.0 474.5 619.0Q468.0 604.0 463.5 589.5Q459.0 575.0 456.0 562.0Q453.0 549.0 450.0 538.5Q447.0 528.0 443.0 519.0Q439.0 510.0 432.5 502.0Q426.0 494.0 417.5 486.0Q409.0 478.0 399.0 468.5Q389.0 459.0 378.5 447.0Q368.0 435.0 359.0 421.0Q350.0 407.0 344.5 391.0Q339.0 375.0 338.5 358.0Q338.0 341.0 342.5 325.5Q347.0 310.0 356.5 297.0Q366.0 284.0 380.0 274.5Q394.0 265.0 410.0 260.0Q426.0 255.0 443.0 254.0Q460.0 253.0 476.0 255.5Q492.0 258.0 506.0 262.0Q520.0 266.0 532.0 269.5Q544.0 273.0 554.5 275.5Q565.0 278.0 575.0 278.0Q585.0 278.0 595.5 275.5Q606.0 273.0 618.0 269.5Q630.0 266.0 644.0 262.0Q658.0 258.0 674.0 255.5Q690.0 253.0 707.0 253.5Q724.0 254.0 740.5 259.0Q757.0 264.0 771.0 273.5Q785.0 283.0 795.0 296.0Q805.0 309.0 809.5 324.5Q814.0 340.0 813.5 357.0Q813.0 374.0 808.0 390.0Q803.0 406.0 794.0 420.5Q785.0 435.0 774.5 447.0Q764.0 459.0 754.0 468.5Q744.0 478.0 735.0 486.5Q726.0 495.0 719.5 503.0Q713.0 511.0 709.0 520.0Q705.0 529.0 702.0 540.0Q699.0 551.0 696.0 564.5Q693.0 578.0 688.5 592.5Q684.0 607.0 677.0 622.0Q670.0 637.0 660.0 651.0Q650.0 665.0 636.5 675.5Q623.0 686.0 607.5 692.0Q592.0 698.0 575.0 698.0Q558.0 698.0 542.5 692.5Q527.0 687.0 513.5 676.5Q500.0 666.0 489.5 652.5Q479.0 639.0 472.0 623.5Q465.0 608.0 460.5 593.5Q456.0 579.0 453.0 565.5Q450.0 552.0 447.0 541.0Q444.0 530.0 440.0 521.0Q436.0 512.0 429.5 503.5Q423.0 495.0 414.0 487.0Q405.0 479.0 394.5 469.0Q384.0 459.0 373.5 447.0Q363.0 435.0 354.0 420.5Q345.0 406.0 339.5 389.5Q334.0 373.0 333.0 356.0Q332.0 339.0 337.0 323.0Q342.0 307.0 351.5 293.5Q361.0 280.0 375.0 270.5Q389.0 261.0 406.0 256.0Q423.0 251.0 440.0 250.0Q457.0 249.0 473.5 251.5Q490.0 254.0 504.5 258.0Q519.0 262.0 531.0 265.5Q543.0 269.0 554.0 271.5Q565.0 274.0 575.0 274.0Q585.0 274.0 596.0 272.0Q607.0 270.0 619.0 266.0Q631.0 262.0 645.5 258.0Q660.0 254.0 676.5 251.5Q693.0 249.0 710.5 249.5Q728.0 250.0 744.5 255.0Q761.0 260.0 775.5 269.5Q790.0 279.0 800.0 292.5Q810.0 306.0 815.0 322.0Q820.0 338.0 819.5 355.0Q819.0 372.0 813.5 389.0Q808.0 406.0 799.0 420.5Q790.0 435.0 779.5 447.5Q769.0 460.0 758.5 469.5Q748.0 479.0 739.0 487.5Q730.0 496.0 723.0 504.5Q716.0 513.0 712.0 522.0Q708.0 531.0 705.0 542.5Q702.0 554.0 699.0 567.5Q696.0 581.0 691.5 596.0Q687.0 611.0 680.0 626.5Q673.0 642.0 662.5 656.0Q652.0 670.0 638.0 681.0Q624.0 692.0 608.0 698.0Q592.0 704.0 575.0 704.0Q558.0 704.0 542.0 698.5Q526.0 693.0 512.0 682.5Q498.0 672.0 487.5 657.5Q477.0 643.0 469.5 627.5Q462.0 612.0 457.5 597.0Q453.0 582.0 450.0 568.5Q447.0 555.0 444.0 543.5Q441.0 532.0 436.5 522.5Q432.0 513.0 425.5 505.0Q419.0 497.0 410.0 488.5Q401.0 480.0 390.5 470.0Q380.0 460.0 369.0 447.5Q358.0 435.0 348.5 420.0Q339.0 405.0 333.5 388.5Q328.0 372.0 327.5 354.5Q327.0 337.0 331.5 320.5Q336.0 304.0 346.0 290.0Q356.0 276.0 370.5 266.5Q385.0 257.0 402.0 251.5Q419.0 246.0 436.5 245.5Q454.0 245.0 471.0 247.0Q488.0 249.0 502.5 253.5Q517.0 258.0 530.0 262.0Q543.0 266.0 554.0 268.0Q565.0 270.0 575.0 270.5Q585.0 271.0 596.0 268.5Q607.0 266.0 620.0 262.0Q633.0 258.0 647.5 253.5Q662.0 249.0 679.0 246.5Q696.0 244.0 714.0 245.0Q732.0 246.0 749.0 251.0Q766.0 256.0 780.5 265.5Q795.0 275.0 805.5 289.0Q816.0 303.0 821.0 319.5Q826.0 336.0 825.5 353.5Q825.0 371.0 819.5 388.0Q814.0 405.0 804.5 420.0Q795.0 435.0 784.0 447.5Q773.0 460.0 762.5 470.0Q752.0 480.0 742.5 489.0Q733.0 498.0 726.5 506.5Q720.0 515.0 715.5 524.5Q711.0 534.0 708.0 545.5Q705.0 557.0 701.5 570.5Q698.0 584.0 693.5 599.5Q689.0 615.0 682.0 631.0Q675.0 647.0 664.0 661.5Q653.0 676.0 639.0 687.0Q625.0 698.0 608.5 704.0Q592.0 710.0 575.0 710.0Q558.0 710.0 541.5 704.5Q525.0 699.0 510.5 688.0Q496.0 677.0 485.5 662.5Q475.0 648.0 467.5 632.5Q460.0 617.0 455.5 601.0Q451.0 585.0 447.5 571.5Q444.0 558.0 441.0 546.0Q438.0 534.0 433.5 524.5Q429.0 515.0 422.0 506.5Q415.0 498.0 406.0 489.5Q397.0 481.0 386.0 470.5Q375.0 460.0 364.0 447.5Q353.0 435.0 343.5 420.0Q334.0 405.0 328.0 387.5Q322.0 370.0 321.5 352.0Q321.0 334.0 326.0 317.5Q331.0 301.0 341.0 287.0Q351.0 273.0 366.0 263.0Q381.0 253.0 398.0 247.5Q415.0 242.0 433.0 241.0Q451.0 240.0 468.5 242.5Q486.0 245.0 501.0 249.5Q516.0 254.0 529.0 258.0Q542.0 262.0 553.0 264.5Q564.0 267.0 575.0 267.0Q586.0 267.0 597.0 264.5Q608.0 262.0 621.0 258.0Q634.0 254.0 649.0 249.5Q664.0 245.0 681.5 242.5Q699.0 240.0 717.0 240.5Q735.0 241.0 752.5 246.5Q770.0 252.0 785.0 262.0Q800.0 272.0 810.5 286.0Q821.0 300.0 826.0 316.5Q831.0 333.0 830.5 351.0Q830.0 369.0 824.5 386.5Q819.0 404.0 809.5 419.5Q800.0 435.0 789.0 448.0Q778.0 461.0 767.0 471.0Q756.0 481.0 746.5 490.0Q737.0 499.0 730.0 507.5Q723.0 516.0 718.5 526.0Q714.0 536.0 711.0 547.5Q708.0 559.0 704.5 573.5Q701.0 588.0 696.5 603.5Q692.0 619.0 684.5 635.5Q677.0 652.0 666.0 666.5Q655.0 681.0 640.5 692.5Q626.0 704.0 609.5 710.0Q593.0 716.0 575.0 716.5Q557.0 717.0 540.5 711.0Q524.0 705.0 509.5 693.5Q495.0 682.0 483.5 667.5Q472.0 653.0 464.5 637.0Q457.0 621.0 452.5 605.0Q448.0 589.0 444.5 574.5Q441.0 560.0 438.0 548.5Q435.0 537.0 430.5 527.0Q426.0 517.0 419.0 508.5Q412.0 500.0 402.5 491.0Q393.0 482.0 382.0 471.5Q371.0 461.0 359.5 448.0Q348.0 435.0 338.5 419.5Q329.0 404.0 323.0 386.5Q317.0 369.0 316.0 350.5Q315.0 332.0 320.0 315.0Q325.0 298.0 335.5 283.5Q346.0 269.0 361.0 259.0Q376.0 249.0 394.0 243.5Q412.0 238.0 430.5 237.0Q449.0 236.0 466.5 238.5Q484.0 241.0 499.5 245.0Q515.0 249.0 528.0 253.5Q541.0 258.0 552.5 260.5Q564.0 263.0 575.0 263.0Q586.0 263.0 597.5 260.5Q609.0 258.0 622.0 254.0Q635.0 250.0 650.5 245.5Q666.0 241.0 684.0 238.5Q702.0 236.0 720.5 236.5Q739.0 237.0 756.5 242.5Q774.0 248.0 789.5 258.0Q805.0 268.0 816.0 282.5Q827.0 297.0 832.0 314.0Q837.0 331.0 836.5 349.5Q836.0 368.0 830.0 385.5Q824.0 403.0 814.5 419.0Q805.0 435.0 793.5 448.0Q782.0 461.0 771.0 471.5Q760.0 482.0 750.5 491.5Q741.0 501.0 733.5 509.5Q726.0 518.0 721.5 528.0Q717.0 538.0 713.5 550.0Q710.0 562.0 707.0 576.5Q704.0 591.0 699.5 607.0Q695.0 623.0 687.0 640.0Q679.0 657.0 668.0 672.0Q657.0 687.0 642.0 698.5Q627.0 710.0 610.0 716.5Q593.0 723.0 575.0 723.0Q557.0 723.0 539.5 717.0Q522.0 711.0 507.5 699.5Q493.0 688.0 481.5 673.0Q470.0 658.0 462.5 641.5Q455.0 625.0 450.0 608.5Q445.0 592.0 441.5 577.5Q438.0 563.0 435.0 551.0Q432.0 539.0 427.5 529.0Q423.0 519.0 415.5 510.0Q408.0 501.0 398.5 492.0Q389.0 483.0 377.5 472.0Q366.0 461.0 354.5 448.0Q343.0 435.0 333.0 419.0Q323.0 403.0 317.0 385.0Q311.0 367.0 310.5 348.5Q310.0 330.0 315.0 312.5Q320.0 295.0 330.5 280.0Q341.0 265.0 356.5 254.5Q372.0 244.0 390.0 238.5Q408.0 233.0 427.0 232.5Q446.0 232.0 464.0 234.5Q482.0 237.0 497.5 241.0Q513.0 245.0 526.5 249.5Q540.0 254.0 552.0 256.5Q564.0 259.0 575.0 259.0Q586.0 259.0 598.0 256.5Q610.0 254.0 623.5 250.0Q637.0 246.0 652.5 241.5Q668.0 237.0 686.0 234.0Q704.0 231.0 723.0 232.0Q742.0 233.0 760.5 238.5Q779.0 244.0 794.5 254.0Q810.0 264.0 821.0 279.0Q832.0 294.0 837.5 311.5Q843.0 329.0 842.5 348.0Q842.0 367.0 836.0 385.0Q830.0 403.0 820.0 419.0Q810.0 435.0 798.5 448.5Q787.0 462.0 775.5 473.0Q764.0 484.0 754.0 493.0Q744.0 502.0 737.0 511.0Q730.0 520.0 725.0 530.0Q720.0 540.0 716.5 552.5Q713.0 565.0 710.0 579.5Q707.0 594.0 702.0 611.0Q697.0 628.0 689.5 644.5Q682.0 661.0 670.5 676.5Q659.0 692.0 644.0 704.0Q629.0 716.0 611.0 722.5Q593.0 729.0 575.0 729.0Q557.0 729.0 539.0 723.0Q521.0 717.0 506.0 705.0Q491.0 693.0 479.5 678.0Q468.0 663.0 460.0 646.0Q452.0 629.0 447.0 612.5Q442.0 596.0 439.0 581.0Q436.0 566.0 432.5 553.5Q429.0 541.0 424.0 531.0Q419.0 521.0 412.0 511.5Q405.0 502.0 395.0 493.0Q385.0 484.0 373.5 473.0Q362.0 462.0 350.0 448.5Q338.0 435.0 328.0 419.0Q318.0 403.0 311.5 384.5Q305.0 366.0 304.5 347.0Q304.0 328.0 309.0 310.0Q314.0 292.0 325.0 277.0Q336.0 262.0 352.0 251.0Q368.0 240.0 386.5 234.5Q405.0 229.0 424.0 228.0Q443.0 227.0 461.5 229.5Q480.0 232.0 496.0 236.5Q512.0 241.0 526.0 245.5Q540.0 250.0 552.0 252.5Q564.0 255.0 575.0 255.0Q586.0 255.0 598.0 252.5Q610.0 250.0 624.0 245.5Q638.0 241.0 654.0 236.5Q670.0 232.0 688.5 229.5Q707.0 227.0 726.5 228.0Q746.0 229.0 764.5 234.5Q783.0 240.0 799.0 250.5Q815.0 261.0 826.5 276.0Q838.0 291.0 843.5 309.0Q849.0 327.0 848.0 346.0Q847.0 365.0 841.0 383.5Q835.0 402.0 825.0 418.5Q815.0 435.0 803.5 448.5Q792.0 462.0 780.0 473.5Q768.0 485.0 758.0 494.0Q748.0 503.0 740.5 512.5Q733.0 522.0 728.0 532.5Q723.0 543.0 719.5 555.5Q716.0 568.0 713.0 583.0Q710.0 598.0 705.0 615.0Q700.0 632.0 692.0 649.0Q684.0 666.0 672.0 682.0Q660.0 698.0 645.0 710.0Q630.0 722.0 612.0 728.5Q594.0 735.0 575.0 735.0Q556.0 735.0 538.0 729.0Q520.0 723.0 504.5 711.0Q489.0 699.0 477.5 683.5Q466.0 668.0 457.5 650.5Q449.0 633.0 444.0 616.0Q439.0 599.0 436.0 584.0Q433.0 569.0 429.5 556.0Q426.0 543.0 421.0 532.5Q416.0 522.0 408.5 513.0Q401.0 504.0 391.0 494.5Q381.0 485.0 369.0 474.0Q357.0 463.0 345.0 449.0Q333.0 435.0 322.5 418.5Q312.0 402.0 306.0 383.0Q300.0 364.0 299.0 344.5Q298.0 325.0 303.5 307.0Q309.0 289.0 320.0 273.5Q331.0 258.0 347.0 247.0Q363.0 236.0 382.0 230.5Q401.0 225.0 420.5 224.0Q440.0 223.0 459.0 225.5Q478.0 228.0 494.5 232.5Q511.0 237.0 525.0 241.5Q539.0 246.0 551.0 249.0Q563.0 252.0 575.0 252.0Q587.0 252.0 599.0 249.0Q611.0 246.0 625.0 241.5Q639.0 237.0 655.5 232.5Q672.0 228.0 691.0 225.5Q710.0 223.0 729.5 223.5Q749.0 224.0 768.0 229.5Q787.0 235.0 803.5 246.0Q820.0 257.0 831.5 272.5Q843.0 288.0 848.5 306.0Q854.0 324.0 853.5 344.0Q853.0 364.0 847.0 382.5Q841.0 401.0 830.5 418.0Q820.0 435.0 808.0 449.0Q796.0 463.0 784.0 474.5Q772.0 486.0 761.5 495.5Q751.0 505.0 743.5 514.5Q736.0 524.0 731.0 534.5Q726.0 545.0 722.5 557.5Q719.0 570.0 715.5 585.5Q712.0 601.0 707.0 618.5Q702.0 636.0 694.0 653.5Q686.0 671.0 674.0 687.0Q662.0 703.0 646.5 715.5Q631.0 728.0 612.5 734.5Q594.0 741.0 575.0 741.0Q556.0 741.0 537.5 735.0Q519.0 729.0 503.5 716.5Q488.0 704.0 475.5 688.0Q463.0 672.0 455.0 654.5Q447.0 637.0 442.0 619.5Q437.0 602.0 433.5 586.5Q430.0 571.0 426.5 558.5Q423.0 546.0 418.0 535.0Q413.0 524.0 405.0 514.5Q397.0 505.0 387.0 495.5Q377.0 486.0 365.0 474.5Q353.0 463.0 340.5 449.0Q328.0 435.0 317.5 418.0Q307.0 401.0 300.5 382.0Q294.0 363.0 293.0 343.0Q292.0 323.0 297.5 304.5Q303.0 286.0 314.5 270.0Q326.0 254.0 342.5 243.0Q359.0 232.0 378.0 226.0Q397.0 220.0 417.5 219.0Q438.0 218.0 457.0 221.0Q476.0 224.0 492.5 228.5Q509.0 233.0 523.5 237.5Q538.0 242.0 550.5 245.0Q563.0 248.0 575.0 248.0Q587.0 248.0 599.5 245.0Q612.0 242.0 626.5 237.5Q641.0 233.0 657.5 228.5Q674.0 224.0 693.5 221.0Q713.0 218.0 733.0 219.0Q753.0 220.0 772.5 225.5Q792.0 231.0 808.5 242.0Q825.0 253.0 837.0 269.0Q849.0 285.0 854.5 303.5Q860.0 322.0 859.5 342.0Q859.0 362.0 852.5 381.5Q846.0 401.0 835.5 418.0Q825.0 435.0 813.0 449.0Q801.0 463.0 788.5 475.0Q776.0 487.0 765.5 496.5Q755.0 506.0 747.0 515.5Q739.0 525.0 734.0 536.0Q729.0 547.0 725.5 560.0Q722.0 573.0 718.5 589.0Q715.0 605.0 710.0 622.5Q705.0 640.0 696.5 658.0Q688.0 676.0 676.0 692.5Q664.0 709.0 648.0 721.5Q632.0 734.0 613.5 740.5Q595.0 747.0 575.0 747.5Q555.0 748.0 536.5 741.0Q518.0 734.0 502.0 722.0Q486.0 710.0 473.5 693.5Q461.0 677.0 452.5 659.0Q444.0 641.0 439.0 623.5Q434.0 606.0 430.5 590.0Q427.0 574.0 423.5 561.0Q420.0 548.0 414.5 537.0Q409.0 526.0 401.5 516.5Q394.0 507.0 383.5 497.0Q373.0 487.0 360.5 475.5Q348.0 464.0 335.5 449.5Q323.0 435.0 312.5 417.5Q302.0 400.0 295.0 380.5Q288.0 361.0 287.5 341.0Q287.0 321.0 292.5 302.0Q298.0 283.0 309.5 267.0Q321.0 251.0 338.0 239.5Q355.0 228.0 374.5 222.0Q394.0 216.0 414.5 215.0Q435.0 214.0 454.5 217.0Q474.0 220.0 491.0 224.5Q508.0 229.0 523.0 233.5Q538.0 238.0 550.5 241.0Q563.0 244.0 575.0 244.0Q587.0 244.0 599.5 241.5Q612.0 239.0 627.0 234.0Q642.0 229.0 659.0 224.5Q676.0 220.0 695.5 217.0Q715.0 214.0 735.5 215.0Q756.0 216.0 776.0 221.5Q796.0 227.0 813.0 238.5Q830.0 250.0 842.0 266.0Q854.0 282.0 860.0 301.0Q866.0 320.0 865.0 340.5Q864.0 361.0 858.0 380.5Q852.0 400.0 841.0 417.5Q830.0 435.0 817.5 449.5Q805.0 464.0 792.5 476.0Q780.0 488.0 769.5 498.0Q759.0 508.0 751.0 517.5Q743.0 527.0 737.5 538.0Q732.0 549.0 728.5 562.5Q725.0 576.0 721.5 592.0Q718.0 608.0 713.0 626.0Q708.0 644.0 699.5 662.5Q691.0 681.0 678.5 697.5Q666.0 714.0 649.5 727.0Q633.0 740.0 614.0 747.0Q595.0 754.0 575.0 754.0Q555.0 754.0 536.0 747.0Q517.0 740.0 500.5 727.5Q484.0 715.0 471.5 698.5Q459.0 682.0 450.5 663.5Q442.0 645.0 436.5 627.0Q431.0 609.0 427.5 593.0Q424.0 577.0 420.5 563.5Q417.0 550.0 411.5 539.0Q406.0 528.0 398.0 518.0Q390.0 508.0 379.5 498.0Q369.0 488.0 356.5 476.0Q344.0 464.0 331.0 449.5Q318.0 435.0 307.0 417.5Q296.0 400.0 289.5 380.0Q283.0 360.0 282.0 339.5Q281.0 319.0 286.5 299.5Q292.0 280.0 304.0 263.5Q316.0 247.0 333.0 235.5Q350.0 224.0 370.0 218.0Q390.0 212.0 411.0 211.0Q432.0 210.0 452.0 212.5Q472.0 215.0 489.5 220.0Q507.0 225.0 522.0 230.0Q537.0 235.0 550.0 237.5Q563.0 240.0 575.0 240.0Q587.0 240.0 600.0 237.5Q613.0 235.0 628.0 230.0Q643.0 225.0 660.5 220.5Q678.0 216.0 698.0 213.0Q718.0 210.0 739.0 210.5Q760.0 211.0 780.0 217.0Q800.0 223.0 817.5 234.5Q835.0 246.0 847.0 262.5Q859.0 279.0 865.0 298.5Q871.0 318.0 870.5 338.5Q870.0 359.0 863.5 379.0Q857.0 399.0 846.0 417.0Q835.0 435.0 822.5 450.0Q810.0 465.0 797.0 477.0Q784.0 489.0 773.0 499.0Q762.0 509.0 754.0 519.0Q746.0 529.0 740.5 540.5Q735.0 552.0 731.5 565.5Q728.0 579.0 724.5 595.0Q721.0 611.0 715.5 629.5Q710.0 648.0 701.5 666.5Q693.0 685.0 680.0 702.5Q667.0 720.0 650.5 733.0Q634.0 746.0 614.5 753.0Q595.0 760.0 575.0 760.0Q555.0 760.0 535.5 753.0Q516.0 746.0 499.0 733.5Q482.0 721.0 469.5 704.0Q457.0 687.0 448.0 668.0Q439.0 649.0 433.5 631.0Q428.0 613.0 424.5 596.5Q421.0 580.0 417.5 566.0Q414.0 552.0 408.5 541.0Q403.0 530.0 395.0 520.0Q387.0 510.0 376.0 499.5Q365.0 489.0 352.0 477.0Q339.0 465.0 326.0 450.0Q313.0 435.0 302.0 417.0Q291.0 399.0 284.0 379.0Q277.0 359.0 276.0 337.5Q275.0 316.0 281.0 296.5Q287.0 277.0 299.0 260.0Q311.0 243.0 328.5 231.5Q346.0 220.0 366.5 213.5Q387.0 207.0 408.0 206.0Q429.0 205.0 449.5 208.0Q470.0 211.0 487.5 216.0Q505.0 221.0 520.5 226.0Q536.0 231.0 549.5 234.0Q563.0 237.0 575.0 237.0Q587.0 237.0 600.5 234.0Q614.0 231.0 629.0 226.0Q644.0 221.0 662.0 216.0Q680.0 211.0 700.5 208.0Q721.0 205.0 742.5 206.0Q764.0 207.0 784.5 213.0Q805.0 219.0 822.5 230.5Q840.0 242.0 852.5 259.0Q865.0 276.0 871.0 295.5Q877.0 315.0 876.5 336.5Q876.0 358.0 869.0 378.5Q862.0 399.0 851.0 417.0Q840.0 435.0 827.0 450.0Q814.0 465.0 801.0 477.5Q788.0 490.0 777.0 500.5Q766.0 511.0 757.5 521.0Q749.0 531.0 743.5 542.5Q738.0 554.0 734.5 567.5Q731.0 581.0 727.5 598.0Q724.0 615.0 718.5 633.5Q713.0 652.0 704.0 671.0Q695.0 690.0 682.0 707.5Q669.0 725.0 652.0 738.5Q635.0 752.0 615.5 759.0Q596.0 766.0 575.0 766.0Q554.0 766.0 534.0 759.0Q514.0 752.0 497.0 739.0Q480.0 726.0 467.0 709.0Q454.0 692.0 445.0 672.5Q436.0 653.0 430.5 634.5Q425.0 616.0 421.5 599.5Q418.0 583.0 414.0 569.0Q410.0 555.0 405.0 543.0Q400.0 531.0 391.5 521.0Q383.0 511.0 372.0 500.5Q361.0 490.0 348.0 477.5Q335.0 465.0 321.5 450.0Q308.0 435.0 296.5 416.5Q285.0 398.0 278.0 377.5Q271.0 357.0 270.5 335.5Q270.0 314.0 275.5 294.0Q281.0 274.0 293.5 257.0Q306.0 240.0 324.0 228.0Q342.0 216.0 362.5 209.5Q383.0 203.0 405.0 202.0Q427.0 201.0 447.5 204.0Q468.0 207.0 486.0 212.0Q504.0 217.0 519.5 222.0Q535.0 227.0 548.5 230.0Q562.0 233.0 575.0 233.0Q588.0 233.0 601.5 230.0Q615.0 227.0 630.5 222.0Q646.0 217.0 664.0 212.0Q682.0 207.0 703.0 204.0Q724.0 201.0 745.5 202.0Q767.0 203.0 788.0 209.0Q809.0 215.0 827.0 227.0Q845.0 239.0 857.5 256.0Q870.0 273.0 876.5 293.0Q883.0 313.0 882.0 334.5Q881.0 356.0 874.5 377.0Q868.0 398.0 856.5 416.5Q845.0 435.0 832.0 450.5Q819.0 466.0 805.5 478.5Q792.0 491.0 780.5 501.5Q769.0 512.0 761.0 522.5Q753.0 533.0 747.5 544.5Q742.0 556.0 738.0 570.0Q734.0 584.0 730.0 601.0Q726.0 618.0 720.5 637.0Q715.0 656.0 706.0 675.5Q697.0 695.0 684.0 712.5Q671.0 730.0 654.0 744.0Q637.0 758.0 616.5 765.0Q596.0 772.0 575.0 772.5Q554.0 773.0 533.5 765.5Q513.0 758.0 496.0 745.0Q479.0 732.0 465.5 714.0Q452.0 696.0 443.0 677.0Q434.0 658.0 428.0 638.5Q422.0 619.0 418.5 602.0Q415.0 585.0 411.0 571.0Q407.0 557.0 401.5 545.0Q396.0 533.0 388.0 522.5Q380.0 512.0 368.5 501.5Q357.0 491.0 343.5 478.5Q330.0 466.0 316.5 450.5Q303.0 435.0 291.5 416.5Q280.0 398.0 273.0 377.0Q266.0 356.0 265.0 334.0Q264.0 312.0 270.0 291.5Q276.0 271.0 288.5 253.5Q301.0 236.0 319.0 224.0Q337.0 212.0 358.5 205.5Q380.0 199.0 402.0 198.0Q424.0 197.0 445.0 200.0Q466.0 203.0 484.5 208.0Q503.0 213.0 519.0 218.0Q535.0 223.0 548.5 226.0Q562.0 229.0 575.0 229.0Q588.0 229.0 601.5 226.0Q615.0 223.0 631.0 218.0Q647.0 213.0 665.5 208.0Q684.0 203.0 705.0 200.0Q726.0 197.0 748.5 197.5Q771.0 198.0 792.5 204.5Q814.0 211.0 832.0 223.0Q850.0 235.0 863.0 252.5Q876.0 270.0 882.5 290.5Q889.0 311.0 888.0 333.0Q887.0 355.0 880.0 376.0Q873.0 397.0 861.5 416.0Q850.0 435.0 836.5 450.5Q823.0 466.0 809.5 479.0Q796.0 492.0 784.5 502.5Q773.0 513.0 764.5 523.5Q756.0 534.0 750.5 546.0Q745.0 558.0 741.0 572.5Q737.0 587.0 733.0 604.0Q729.0 621.0 723.5 640.5Q718.0 660.0 709.0 680.0Q700.0 700.0 686.5 718.0Q673.0 736.0 655.5 749.5Q638.0 763.0 617.5 771.0Q597.0 779.0 575.0 779.0Q553.0 779.0 532.5 771.5Q512.0 764.0 494.5 750.5Q477.0 737.0 463.5 719.0Q450.0 701.0 440.5 681.5Q431.0 662.0 425.5 642.5Q420.0 623.0 416.0 605.5Q412.0 588.0 408.0 573.5Q404.0 559.0 398.5 547.0Q393.0 535.0 384.5 524.5Q376.0 514.0 364.5 503.0Q353.0 492.0 339.5 479.5Q326.0 467.0 312.0 451.0Q298.0 435.0 286.5 416.0Q275.0 397.0 267.5 375.5Q260.0 354.0 259.0 332.0Q258.0 310.0 264.0 289.0Q270.0 268.0 283.0 250.5Q296.0 233.0 314.5 220.5Q333.0 208.0 354.5 201.0Q376.0 194.0 398.5 193.0Q421.0 192.0 442.5 195.0Q464.0 198.0 483.0 203.5Q502.0 209.0 518.0 214.0Q534.0 219.0 548.0 222.0Q562.0 225.0 575.0 225.0Q588.0 225.0 602.0 222.0Q616.0 219.0 632.0 214.0Q648.0 209.0 667.0 204.0Q686.0 199.0 707.5 195.5Q729.0 192.0 751.5 193.0Q774.0 194.0 796.0 200.5Q818.0 207.0 836.5 219.5Q855.0 232.0 868.0 249.5Q881.0 267.0 887.5 288.0Q894.0 309.0 893.5 331.0Q893.0 353.0 886.0 375.0Q879.0 397.0 867.0 416.0Q855.0 435.0 841.5 451.0Q828.0 467.0 814.0 480.0Q800.0 493.0 788.5 504.0Q777.0 515.0 768.0 525.5Q759.0 536.0 753.5 548.0Q748.0 560.0 744.0 575.0Q740.0 590.0 736.0 607.5Q732.0 625.0 726.5 644.5Q721.0 664.0 711.5 684.5Q702.0 705.0 688.5 723.0Q675.0 741.0 657.0 755.0Q639.0 769.0 618.0 777.0Q597.0 785.0 575.0 785.0Q553.0 785.0 532.0 777.5Q511.0 770.0 493.0 756.5Q475.0 743.0 461.0 724.5Q447.0 706.0 438.0 686.0Q429.0 666.0 423.0 646.0Q417.0 626.0 413.0 608.5Q409.0 591.0 405.0 576.0Q401.0 561.0 395.5 549.0Q390.0 537.0 381.0 526.0Q372.0 515.0 360.5 504.0Q349.0 493.0 335.0 480.0Q321.0 467.0 307.0 451.0Q293.0 435.0 281.0 415.5Q269.0 396.0 261.5 374.5Q254.0 353.0 253.5 330.0Q253.0 307.0 259.0 286.0Q265.0 265.0 278.0 247.0Q291.0 229.0 310.0 216.5Q329.0 204.0 350.5 197.0Q372.0 190.0 395.0 189.0Q418.0 188.0 440.0 191.0Q462.0 194.0 481.0 199.5Q500.0 205.0 516.5 210.0Q533.0 215.0 547.5 218.5Q562.0 222.0 575.0 222.0Q588.0 222.0 602.5 218.5Q617.0 215.0 633.5 210.0Q650.0 205.0 669.0 199.5Q688.0 194.0 710.0 191.0Q732.0 188.0 755.0 189.0Q778.0 190.0 800.0 196.5Q822.0 203.0 841.0 215.5Q860.0 228.0 873.5 246.0Q887.0 264.0 893.5 285.0Q900.0 306.0 899.5 329.0Q899.0 352.0 891.5 374.0Q884.0 396.0 872.0 415.5Q860.0 435.0 846.0 451.0Q832.0 467.0 818.0 480.5Q804.0 494.0 792.0 505.0Q780.0 516.0 771.0 527.0Q762.0 538.0 756.5 550.5Q751.0 563.0 747.0 578.0Q743.0 593.0 739.0 610.5Q735.0 628.0 729.0 648.0Q723.0 668.0 713.5 688.5Q704.0 709.0 690.0 728.0Q676.0 747.0 658.0 761.0Q640.0 775.0 618.5 783.0Q597.0 791.0 575.0 791.0Q553.0 791.0 531.5 783.5Q510.0 776.0 491.5 762.0Q473.0 748.0 459.0 729.5Q445.0 711.0 435.5 690.5Q426.0 670.0 420.0 650.0Q414.0 630.0 410.0 612.0Q406.0 594.0 402.0 579.0Q398.0 564.0 392.0 551.5Q386.0 539.0 377.5 528.0Q369.0 517.0 357.0 505.5Q345.0 494.0 331.0 481.0Q317.0 468.0 302.5 451.5Q288.0 435.0 276.0 415.5Q264.0 396.0 256.5 373.5Q249.0 351.0 248.0 328.0Q247.0 305.0 253.5 283.5Q260.0 262.0 273.0 243.5Q286.0 225.0 305.0 212.0Q324.0 199.0 346.5 192.5Q369.0 186.0 392.0 185.0Q415.0 184.0 437.5 187.0Q460.0 190.0 479.5 195.5Q499.0 201.0 515.5 206.0Q532.0 211.0 546.5 214.5Q561.0 218.0 575.0 218.0Q589.0 218.0 603.5 215.0Q618.0 212.0 634.5 206.5Q651.0 201.0 670.5 195.5Q690.0 190.0 712.5 186.5Q735.0 183.0 758.0 184.0Q781.0 185.0 804.0 192.0Q827.0 199.0 846.0 211.5Q865.0 224.0 878.5 242.5Q892.0 261.0 899.0 282.5Q906.0 304.0 905.0 327.0Q904.0 350.0 897.0 372.5Q890.0 395.0 877.5 415.0Q865.0 435.0 851.0 451.5Q837.0 468.0 822.5 481.5Q808.0 495.0 796.0 506.5Q784.0 518.0 775.0 529.0Q766.0 540.0 760.0 552.5Q754.0 565.0 750.0 580.0Q746.0 595.0 742.0 613.5Q738.0 632.0 732.0 652.0Q726.0 672.0 716.0 693.0Q706.0 714.0 692.0 733.0Q678.0 752.0 659.5 766.5Q641.0 781.0 619.5 789.0Q598.0 797.0 575.0 797.0Q552.0 797.0 530.5 789.5Q509.0 782.0 490.5 767.5Q472.0 753.0 457.5 734.5Q443.0 716.0 433.0 695.0Q423.0 674.0 417.0 653.5Q411.0 633.0 407.0 614.5Q403.0 596.0 399.0 581.0Q395.0 566.0 389.0 553.0Q383.0 540.0 374.0 529.0Q365.0 518.0 353.0 506.5Q341.0 495.0 326.5 481.5Q312.0 468.0 297.5 451.5Q283.0 435.0 270.5 415.0Q258.0 395.0 250.5 372.5Q243.0 350.0 242.0 326.5Q241.0 303.0 247.5 281.0Q254.0 259.0 267.5 240.5Q281.0 222.0 300.5 208.5Q320.0 195.0 342.5 188.0Q365.0 181.0 389.0 180.0Q413.0 179.0 435.5 182.5Q458.0 186.0 478.0 191.5Q498.0 197.0 515.0 202.0Q532.0 207.0 546.5 210.5Q561.0 214.0 575.0 214.0Q589.0 214.0 603.5 211.0Q618.0 208.0 635.0 202.5Q652.0 197.0 672.0 191.5Q692.0 186.0 714.5 182.5Q737.0 179.0 761.0 180.0Q785.0 181.0 808.0 188.0Q831.0 195.0 850.5 208.0Q870.0 221.0 884.0 239.5Q898.0 258.0 904.5 280.0Q911.0 302.0 910.5 325.5Q910.0 349.0 902.5 372.0Q895.0 395.0 882.5 415.0Q870.0 435.0 855.5 452.0Q841.0 469.0 826.5 482.5Q812.0 496.0 799.5 507.5Q787.0 519.0 778.0 530.5Q769.0 542.0 763.0 554.5Q757.0 567.0 753.0 582.5Q749.0 598.0 744.5 616.5Q740.0 635.0 734.0 656.0Q728.0 677.0 718.5 698.0Q709.0 719.0 694.5 738.5Q680.0 758.0 661.0 772.5Q642.0 787.0 620.0 795.0Q598.0 803.0 575.0 803.5Q552.0 804.0 530.0 796.0Q508.0 788.0 489.0 773.5Q470.0 759.0 455.5 739.5Q441.0 720.0 431.0 699.0Q421.0 678.0 414.5 657.0Q408.0 636.0 404.0 617.5Q400.0 599.0 396.0 583.5Q392.0 568.0 386.0 555.0Q380.0 542.0 371.0 530.5Q362.0 519.0 349.5 507.5Q337.0 496.0 322.5 482.5Q308.0 469.0 293.0 452.0Q278.0 435.0 265.5 414.5Q253.0 394.0 245.0 371.0Q237.0 348.0 236.0 324.5Q235.0 301.0 242.0 278.5Q249.0 256.0 262.5 237.0Q276.0 218.0 295.5 204.5Q315.0 191.0 338.5 184.0Q362.0 177.0 386.0 176.0Q410.0 175.0 433.0 178.0Q456.0 181.0 476.0 187.0Q496.0 193.0 513.5 198.5Q531.0 204.0 546.0 207.0Q561.0 210.0 575.0 210.0Q589.0 210.0 604.0 207.0Q619.0 204.0 636.5 198.5Q654.0 193.0 674.0 187.5Q694.0 182.0 717.0 178.5Q740.0 175.0 764.5 176.0Q789.0 177.0 812.0 184.0Q835.0 191.0 855.0 204.0Q875.0 217.0 889.0 236.0Q903.0 255.0 910.0 277.5Q917.0 300.0 916.5 324.0Q916.0 348.0 908.0 371.0Q900.0 394.0 887.5 414.5Q875.0 435.0 860.5 452.0Q846.0 469.0 831.0 483.0Q816.0 497.0 803.5 509.0Q791.0 521.0 781.5 532.0Q772.0 543.0 766.0 556.0Q760.0 569.0 756.0 585.0Q752.0 601.0 747.5 619.5Q743.0 638.0 737.0 659.5Q731.0 681.0 721.0 702.5Q711.0 724.0 696.5 743.5Q682.0 763.0 662.5 778.0Q643.0 793.0 621.0 801.5Q599.0 810.0 575.0 810.0Q551.0 810.0 529.0 802.0Q507.0 794.0 487.5 779.0Q468.0 764.0 453.0 744.5Q438.0 725.0 428.0 703.5Q418.0 682.0 412.0 661.0Q406.0 640.0 401.5 621.0Q397.0 602.0 393.0 586.0Q389.0 570.0 383.0 557.0Q377.0 544.0 367.5 532.5Q358.0 521.0 345.5 509.0Q333.0 497.0 318.0 483.0Q303.0 469.0 288.0 452.0Q273.0 435.0 260.0 414.5Q247.0 394.0 239.5 370.5Q232.0 347.0 231.0 322.5Q230.0 298.0 236.5 275.5Q243.0 253.0 257.0 233.5Q271.0 214.0 291.0 200.5Q311.0 187.0 334.5 180.0Q358.0 173.0 382.5 172.0Q407.0 171.0 430.5 174.0Q454.0 177.0 474.5 183.0Q495.0 189.0 512.5 194.5Q530.0 200.0 545.5 203.5Q561.0 207.0 575.0 207.0Q589.0 207.0 604.5 203.5Q620.0 200.0 637.5 194.5Q655.0 189.0 675.5 183.0Q696.0 177.0 719.5 173.5Q743.0 170.0 767.5 171.0Q792.0 172.0 816.0 179.5Q840.0 187.0 860.0 200.0Q880.0 213.0 894.5 232.0Q909.0 251.0 916.0 274.0Q923.0 297.0 922.0 321.5Q921.0 346.0 913.5 369.5Q906.0 393.0 893.0 414.0Q880.0 435.0 865.0 452.5Q850.0 470.0 835.0 484.0Q820.0 498.0 807.5 510.0Q795.0 522.0 785.5 533.5Q776.0 545.0 769.5 558.5Q763.0 572.0 758.5 588.0Q754.0 604.0 750.0 623.0Q746.0 642.0 739.5 663.5Q733.0 685.0 723.0 707.0Q713.0 729.0 698.0 749.0Q683.0 769.0 663.5 784.0Q644.0 799.0 621.5 807.5Q599.0 816.0 575.0 816.0Q551.0 816.0 528.0 808.0Q505.0 800.0 485.5 785.0Q466.0 770.0 451.0 750.0Q436.0 730.0 426.0 708.0Q416.0 686.0 409.5 664.5Q403.0 643.0 398.5 624.0Q394.0 605.0 390.0 588.5Q386.0 572.0 379.5 559.0Q373.0 546.0 363.5 534.0Q354.0 522.0 341.5 510.0Q329.0 498.0 314.0 484.0Q299.0 470.0 283.5 452.5Q268.0 435.0 255.0 414.0Q242.0 393.0 234.0 369.0Q226.0 345.0 225.0 320.5Q224.0 296.0 231.0 273.0Q238.0 250.0 252.0 230.5Q266.0 211.0 286.5 197.0Q307.0 183.0 331.0 176.0Q355.0 169.0 379.5 167.5Q404.0 166.0 428.0 169.5Q452.0 173.0 473.0 179.0Q494.0 185.0 511.5 190.5Q529.0 196.0 544.5 199.5Q560.0 203.0 575.0 203.0Q590.0 203.0 605.5 199.5Q621.0 196.0 638.5 190.5Q656.0 185.0 677.0 179.0Q698.0 173.0 722.0 169.5Q746.0 166.0 771.0 167.0Q796.0 168.0 820.0 175.0Q844.0 182.0 864.5 196.0Q885.0 210.0 899.5 229.0Q914.0 248.0 921.5 271.5Q929.0 295.0 928.0 320.0Q927.0 345.0 919.0 369.0Q911.0 393.0 898.0 414.0Q885.0 435.0 870.0 452.5Q855.0 470.0 839.5 484.5Q824.0 499.0 811.0 511.0Q798.0 523.0 788.5 535.0Q779.0 547.0 772.5 560.5Q766.0 574.0 761.5 590.0Q757.0 606.0 753.0 625.5Q749.0 645.0 742.5 667.0Q736.0 689.0 725.5 711.0Q715.0 733.0 700.0 753.5Q685.0 774.0 665.5 789.5"/>
  </g>
</svg>
