<svg version="1.1" width="1150" height="870" xmlns="http://www.w3.org/2000/svg">
  <!-- Seed: 8180374426397321482 -->
  <!-- Size: SvgSize.Size9x12 -->
  <!-- Params:
    draw: True
    padding: 0
    spacing: 5
    points_per_step_ring: 50
    bump_range: [RangeFloat] min: 0 max: 0.1
    bump_mult: [RangeInt] min: 2 max: 20
  -->
  <g stroke="black" fill="none">
    <path d="M575.5 435.0Q576.0 435.0 576.0 435.5Q576.0 436.0 576.0 436.5Q576.0 437.0 575.5 436.5Q575.0 436.0 575.0 436.5Q575.0 437.0 574.5 437.5Q574.0 438.0 574.0 437.0Q574.0 436.0 573.5 436.5Q573.0 437.0 573.5 436.0Q574.0 435.0 573.5 435.5Q573.0 436.0 572.0 436.0Q571.0 436.0 571.5 435.5Q572.0 435.0 571.5 435.0Q571.0 435.0 571.5 434.5Q572.0 434.0 571.5 433.5Q571.0 433.0 571.5 433.0Q572.0 433.0 572.0 432.5Q572.0 432.0 572.5 431.5Q573.0 431.0 574.0 432.5Q575.0 434.0 574.5 432.0Q574.0 430.0 574.5 430.0Q575.0 430.0 575.5 429.5Q576.0 429.0 576.5 429.5Q577.0 430.0 578.0 429.5Q579.0 429.0 578.5 430.0Q578.0 431.0 577.0 432.5Q576.0 434.0 578.5 432.5Q581.0 431.0 580.0 432.0Q579.0 433.0 581.0 433.0Q583.0 433.0 581.5 433.5Q580.0 434.0 578.5 434.5Q577.0 435.0 580.5 435.5Q584.0 436.0 581.5 436.0Q579.0 436.0 578.0 436.0Q577.0 436.0 580.5 438.0Q584.0 440.0 581.0 438.5Q578.0 437.0 577.5 437.0Q577.0 437.0 579.5 440.0Q582.0 443.0 579.5 440.5Q577.0 438.0 576.5 438.0Q576.0 438.0 577.0 442.0Q578.0 446.0 576.5 442.5Q575.0 439.0 574.5 443.0Q574.0 447.0 574.0 443.5Q574.0 440.0 572.0 443.0Q570.0 446.0 572.0 441.5Q574.0 437.0 572.5 438.0Q571.0 439.0 568.5 441.0Q566.0 443.0 567.5 440.5Q569.0 438.0 566.0 439.0Q563.0 440.0 568.0 437.5Q573.0 435.0 570.0 435.5Q567.0 436.0 564.5 435.5Q562.0 435.0 564.0 434.0Q566.0 433.0 564.5 431.5Q563.0 430.0 568.5 432.0Q574.0 434.0 570.5 431.5Q567.0 429.0 566.5 427.5Q566.0 426.0 567.5 425.5Q569.0 425.0 569.5 424.5Q570.0 424.0 571.5 423.5Q573.0 423.0 573.5 423.0Q574.0 423.0 576.0 422.5Q578.0 422.0 578.0 423.0Q578.0 424.0 577.0 428.5Q576.0 433.0 579.5 427.5Q583.0 422.0 582.5 424.5Q582.0 427.0 585.0 426.5Q588.0 426.0 586.0 428.0Q584.0 430.0 580.5 432.0Q577.0 434.0 584.5 432.5Q592.0 431.0 588.0 432.5Q584.0 434.0 581.0 434.5Q578.0 435.0 585.5 436.0Q593.0 437.0 588.0 437.0Q583.0 437.0 587.5 440.5Q592.0 444.0 586.5 442.0Q581.0 440.0 580.0 439.0Q579.0 438.0 583.5 444.0Q588.0 450.0 583.5 445.5Q579.0 441.0 578.5 440.5Q578.0 440.0 579.5 447.0Q581.0 454.0 578.5 447.5Q576.0 441.0 575.5 441.5Q575.0 442.0 574.5 449.0Q574.0 456.0 573.0 449.5Q572.0 443.0 569.0 448.5Q566.0 454.0 569.5 446.5Q573.0 439.0 571.0 441.0Q569.0 443.0 564.5 446.5Q560.0 450.0 566.0 443.5Q572.0 437.0 568.5 439.0Q565.0 441.0 560.0 442.0Q555.0 443.0 563.5 439.5Q572.0 436.0 567.0 436.5Q562.0 437.0 558.0 436.0Q554.0 435.0 557.5 433.0Q561.0 431.0 558.5 429.0Q556.0 427.0 564.5 430.5Q573.0 434.0 567.5 429.5Q562.0 425.0 561.0 423.0Q560.0 421.0 567.0 427.0Q574.0 433.0 569.5 426.5Q565.0 420.0 566.0 418.5Q567.0 417.0 569.0 416.5Q571.0 416.0 572.5 416.0Q574.0 416.0 574.5 424.5Q575.0 433.0 577.0 423.5Q579.0 414.0 579.5 416.0Q580.0 418.0 583.5 417.0Q587.0 416.0 586.5 419.0Q586.0 422.0 581.5 427.5Q577.0 433.0 586.0 427.0Q595.0 421.0 591.5 424.5Q588.0 428.0 583.5 431.0Q579.0 434.0 589.5 431.5Q600.0 429.0 594.5 431.0Q589.0 433.0 584.5 434.0Q580.0 435.0 591.0 436.5Q602.0 438.0 594.5 438.0Q587.0 438.0 584.0 437.5Q581.0 437.0 590.5 442.5Q600.0 448.0 592.0 445.0Q584.0 442.0 582.0 441.0Q580.0 440.0 586.5 448.5Q593.0 457.0 586.5 450.5Q580.0 444.0 579.5 443.5Q579.0 443.0 581.5 453.0Q584.0 463.0 580.5 453.5Q577.0 444.0 576.5 444.5Q576.0 445.0 574.5 455.0Q573.0 465.0 573.5 453.5Q574.0 442.0 572.5 444.5Q571.0 447.0 566.5 454.5Q562.0 462.0 567.0 451.0Q572.0 440.0 569.0 443.0Q566.0 446.0 559.5 451.0Q553.0 456.0 562.0 447.0Q571.0 438.0 566.0 440.5Q561.0 443.0 554.0 444.5Q547.0 446.0 552.0 441.5Q557.0 437.0 551.5 436.0Q546.0 435.0 550.5 432.5Q555.0 430.0 551.5 427.0Q548.0 424.0 552.5 423.0Q557.0 422.0 556.0 419.0Q555.0 416.0 564.0 424.5Q573.0 433.0 567.5 423.5Q562.0 414.0 563.0 412.5Q564.0 411.0 569.0 421.5Q574.0 432.0 572.0 420.0Q570.0 408.0 571.5 409.0Q573.0 410.0 574.0 421.0Q575.0 432.0 577.5 419.0Q580.0 406.0 581.0 409.0Q582.0 412.0 579.5 422.0Q577.0 432.0 584.5 420.5Q592.0 409.0 590.5 413.5Q589.0 418.0 583.5 425.0Q578.0 432.0 590.0 424.0Q602.0 416.0 597.5 420.5Q593.0 425.0 586.5 429.0Q580.0 433.0 594.0 429.5Q608.0 426.0 601.0 429.5Q594.0 433.0 587.5 434.0Q581.0 435.0 596.0 437.0Q611.0 439.0 601.0 439.0Q591.0 439.0 586.5 438.5Q582.0 438.0 594.5 445.5Q607.0 453.0 597.0 448.5Q587.0 444.0 584.5 443.0Q582.0 442.0 590.5 453.0Q599.0 464.0 590.5 455.0Q582.0 446.0 581.0 445.5Q580.0 445.0 583.5 458.5Q587.0 472.0 582.0 459.0Q577.0 446.0 576.5 447.5Q576.0 449.0 574.5 461.5Q573.0 474.0 573.0 459.5Q573.0 445.0 571.5 447.5Q570.0 450.0 564.0 460.0Q558.0 470.0 564.5 456.0Q571.0 442.0 567.0 445.5Q563.0 449.0 555.0 455.5Q547.0 462.0 558.0 450.5Q569.0 439.0 563.0 442.0Q557.0 445.0 548.0 447.0Q539.0 449.0 554.0 442.5Q569.0 436.0 560.5 437.0Q552.0 438.0 544.5 436.5Q537.0 435.0 553.5 434.5Q570.0 434.0 559.5 431.0Q549.0 428.0 545.0 424.5Q541.0 421.0 546.0 419.5Q551.0 418.0 550.0 414.5Q549.0 411.0 561.0 421.5Q573.0 432.0 565.5 420.0Q558.0 408.0 559.5 406.0Q561.0 404.0 567.5 417.5Q574.0 431.0 571.5 416.0Q569.0 401.0 571.0 402.0Q573.0 403.0 574.0 417.0Q575.0 431.0 578.5 415.0Q582.0 399.0 583.0 402.5Q584.0 406.0 580.5 418.5Q577.0 431.0 586.5 416.5Q596.0 402.0 594.5 407.5Q593.0 413.0 586.0 422.0Q579.0 431.0 593.5 421.0Q608.0 411.0 603.0 417.0Q598.0 423.0 589.5 428.0Q581.0 433.0 599.0 428.5Q617.0 424.0 607.5 428.0Q598.0 432.0 590.5 433.5Q583.0 435.0 601.0 438.0Q619.0 441.0 607.0 440.5Q595.0 440.0 589.5 439.5Q584.0 439.0 599.5 448.0Q615.0 457.0 602.5 451.5Q590.0 446.0 587.0 444.5Q584.0 443.0 594.5 457.0Q605.0 471.0 594.5 460.0Q584.0 449.0 582.5 448.5Q581.0 448.0 585.5 464.5Q590.0 481.0 584.0 465.0Q578.0 449.0 577.0 450.5Q576.0 452.0 574.0 467.5Q572.0 483.0 572.5 465.0Q573.0 447.0 571.0 450.5Q569.0 454.0 561.5 466.5Q554.0 479.0 562.0 461.5Q570.0 444.0 565.5 448.0Q561.0 452.0 550.5 460.0Q540.0 468.0 554.0 454.0Q568.0 440.0 560.0 443.5Q552.0 447.0 541.5 449.5Q531.0 452.0 549.5 444.5Q568.0 437.0 557.0 438.0Q546.0 439.0 537.5 437.0Q529.0 435.0 549.0 434.5Q569.0 434.0 556.5 430.5Q544.0 427.0 538.5 423.0Q533.0 419.0 539.5 416.5Q546.0 414.0 545.0 409.5Q544.0 405.0 558.0 418.0Q572.0 431.0 563.0 416.5Q554.0 402.0 555.5 400.0Q557.0 398.0 562.0 396.0Q567.0 394.0 570.0 395.0Q573.0 396.0 578.0 393.5Q583.0 391.0 584.5 395.5Q586.0 400.0 593.0 397.5Q600.0 395.0 598.5 402.0Q597.0 409.0 588.5 420.0Q580.0 431.0 597.5 418.5Q615.0 406.0 608.5 413.0Q602.0 420.0 592.0 426.0Q582.0 432.0 603.5 427.0Q625.0 422.0 614.0 426.5Q603.0 431.0 594.0 433.0Q585.0 435.0 606.5 438.5Q628.0 442.0 614.0 441.5Q600.0 441.0 593.0 440.0Q586.0 439.0 604.5 450.5Q623.0 462.0 608.0 455.0Q593.0 448.0 589.0 446.5Q585.0 445.0 598.0 461.5Q611.0 478.0 598.5 465.0Q586.0 452.0 584.0 451.0Q582.0 450.0 587.5 469.5Q593.0 489.0 585.5 470.5Q578.0 452.0 577.0 453.5Q576.0 455.0 573.5 473.5Q571.0 492.0 571.5 470.5Q572.0 449.0 570.0 453.0Q568.0 457.0 559.5 472.0Q551.0 487.0 559.5 466.0Q568.0 445.0 563.0 450.5Q558.0 456.0 546.0 465.0Q534.0 474.0 550.5 457.5Q567.0 441.0 557.5 445.5Q548.0 450.0 535.5 453.0Q523.0 456.0 545.0 446.5Q567.0 437.0 554.0 438.0Q541.0 439.0 530.5 437.0Q520.0 435.0 544.0 434.5Q568.0 434.0 553.0 430.0Q538.0 426.0 532.0 421.0Q526.0 416.0 548.0 424.0Q570.0 432.0 555.5 421.0Q541.0 410.0 539.5 405.0Q538.0 400.0 544.5 398.5Q551.0 397.0 552.5 394.0Q554.0 391.0 563.5 410.5Q573.0 430.0 569.5 408.5Q566.0 387.0 569.0 388.0Q572.0 389.0 573.5 409.0Q575.0 429.0 580.0 406.5Q585.0 384.0 586.5 389.0Q588.0 394.0 583.0 411.5Q578.0 429.0 591.5 408.5Q605.0 388.0 602.5 396.0Q600.0 404.0 590.0 417.0Q580.0 430.0 601.0 415.5Q622.0 401.0 614.5 409.5Q607.0 418.0 595.5 425.0Q584.0 432.0 609.0 426.0Q634.0 420.0 621.0 425.5Q608.0 431.0 597.0 433.0Q586.0 435.0 611.5 439.0Q637.0 443.0 620.5 442.5Q604.0 442.0 596.0 441.0Q588.0 440.0 609.5 453.0Q631.0 466.0 613.5 458.0Q596.0 450.0 591.5 448.0Q587.0 446.0 602.0 466.0Q617.0 486.0 602.0 470.0Q587.0 454.0 585.0 453.5Q583.0 453.0 589.0 475.5Q595.0 498.0 587.0 476.0Q579.0 454.0 577.5 456.0Q576.0 458.0 573.5 479.5Q571.0 501.0 571.5 476.0Q572.0 451.0 569.5 456.0Q567.0 461.0 557.0 478.0Q547.0 495.0 557.0 471.0Q567.0 447.0 561.0 453.0Q555.0 459.0 541.0 469.5Q527.0 480.0 546.5 461.0Q566.0 442.0 555.0 447.0Q544.0 452.0 529.5 455.5Q515.0 459.0 540.5 448.0Q566.0 437.0 551.0 438.5Q536.0 440.0 524.0 437.5Q512.0 435.0 539.5 434.5Q567.0 434.0 550.0 429.0Q533.0 424.0 525.5 418.5Q518.0 413.0 543.5 422.5Q569.0 432.0 552.5 419.5Q536.0 407.0 534.0 401.0Q532.0 395.0 551.5 412.5Q571.0 430.0 559.0 410.5Q547.0 391.0 549.0 388.0Q551.0 385.0 562.0 407.0Q573.0 429.0 568.5 404.5Q564.0 380.0 568.0 381.5Q572.0 383.0 579.0 379.5Q586.0 376.0 588.0 382.0Q590.0 388.0 584.0 408.0Q578.0 428.0 593.5 404.5Q609.0 381.0 606.5 390.5Q604.0 400.0 592.5 414.5Q581.0 429.0 605.0 412.5Q629.0 396.0 620.0 405.5Q611.0 415.0 598.0 423.0Q585.0 431.0 613.5 424.5Q642.0 418.0 627.0 424.0Q612.0 430.0 600.0 432.5Q588.0 435.0 617.0 439.5Q646.0 444.0 627.0 443.5Q608.0 443.0 599.0 442.0Q590.0 441.0 614.5 455.5Q639.0 470.0 619.0 461.5Q599.0 453.0 594.0 450.5Q589.0 448.0 606.0 470.5Q623.0 493.0 606.0 475.0Q589.0 457.0 587.0 456.0Q585.0 455.0 591.5 481.0Q598.0 507.0 588.5 482.0Q579.0 457.0 578.0 459.5Q577.0 462.0 573.5 486.5Q570.0 511.0 570.5 482.5Q571.0 454.0 568.0 459.0Q565.0 464.0 554.0 483.5Q543.0 503.0 554.5 475.5Q566.0 448.0 559.0 455.0Q552.0 462.0 536.5 474.0Q521.0 486.0 542.5 464.5Q564.0 443.0 552.0 448.5Q540.0 454.0 523.5 458.0Q507.0 462.0 535.5 450.0Q564.0 438.0 547.5 439.5Q531.0 441.0 517.5 438.0Q504.0 435.0 535.0 434.5Q566.0 434.0 546.5 428.5Q527.0 423.0 519.0 416.5Q511.0 410.0 539.5 420.5Q568.0 431.0 549.5 417.0Q531.0 403.0 529.0 396.5Q527.0 390.0 548.5 410.0Q570.0 430.0 556.5 407.5Q543.0 385.0 545.5 381.5Q548.0 378.0 560.5 403.0Q573.0 428.0 568.0 400.5Q563.0 373.0 567.0 374.5Q571.0 376.0 573.0 402.0Q575.0 428.0 581.5 398.5Q588.0 369.0 590.0 375.5Q592.0 382.0 602.5 378.5Q613.0 375.0 610.5 385.5Q608.0 396.0 595.0 412.0Q582.0 428.0 609.0 409.5Q636.0 391.0 626.0 401.5Q616.0 412.0 601.0 421.5Q586.0 431.0 618.5 423.5Q651.0 416.0 634.0 423.0Q617.0 430.0 603.0 432.5Q589.0 435.0 622.0 440.0Q655.0 445.0 633.5 444.5Q612.0 444.0 601.5 442.5Q591.0 441.0 619.0 458.0Q647.0 475.0 624.5 465.0Q602.0 455.0 596.0 452.5Q590.0 450.0 609.0 475.0Q628.0 500.0 609.5 480.0Q591.0 460.0 588.5 459.0Q586.0 458.0 593.5 487.0Q601.0 516.0 590.5 488.0Q580.0 460.0 578.5 462.5Q577.0 465.0 573.5 492.5Q570.0 520.0 570.5 488.0Q571.0 456.0 567.5 462.0Q564.0 468.0 551.5 490.0Q539.0 512.0 552.0 481.0Q565.0 450.0 557.5 458.0Q550.0 466.0 532.0 479.0Q514.0 492.0 538.5 468.0Q563.0 444.0 549.5 450.5Q536.0 457.0 517.5 461.0Q499.0 465.0 531.0 451.5Q563.0 438.0 544.0 439.5Q525.0 441.0 510.0 438.0Q495.0 435.0 530.0 434.5Q565.0 434.0 543.0 427.5Q521.0 421.0 512.0 414.0Q503.0 407.0 535.0 419.0Q567.0 431.0 546.5 415.0Q526.0 399.0 523.5 391.5Q521.0 384.0 545.5 406.5Q570.0 429.0 555.0 404.0Q540.0 379.0 542.5 375.5Q545.0 372.0 553.5 369.0Q562.0 366.0 566.5 367.5Q571.0 369.0 573.5 398.0Q576.0 427.0 582.5 394.0Q589.0 361.0 591.5 368.5Q594.0 376.0 586.5 401.5Q579.0 427.0 598.5 397.5Q618.0 368.0 614.5 379.5Q611.0 391.0 597.0 409.5Q583.0 428.0 612.5 407.0Q642.0 386.0 631.5 398.0Q621.0 410.0 604.0 420.0Q587.0 430.0 623.0 421.5Q659.0 413.0 640.5 421.0Q622.0 429.0 606.5 432.0Q591.0 435.0 627.5 440.5Q664.0 446.0 640.0 445.5Q616.0 445.0 604.5 443.5Q593.0 442.0 624.0 460.5Q655.0 479.0 630.0 468.0Q605.0 457.0 598.5 454.0Q592.0 451.0 613.0 479.0Q634.0 507.0 613.0 484.5Q592.0 462.0 589.5 461.0Q587.0 460.0 595.5 492.0Q604.0 524.0 592.0 493.0Q580.0 462.0 578.5 465.0Q577.0 468.0 573.0 498.5Q569.0 529.0 570.0 493.5Q571.0 458.0 567.0 464.5Q563.0 471.0 549.0 495.5Q535.0 520.0 549.5 486.0Q564.0 452.0 555.5 460.5Q547.0 469.0 527.5 483.5Q508.0 498.0 535.0 471.5Q562.0 445.0 547.0 452.0Q532.0 459.0 511.5 463.5Q491.0 468.0 526.5 453.0Q562.0 438.0 541.0 440.0Q520.0 442.0 503.5 438.5Q487.0 435.0 525.5 434.5Q564.0 434.0 540.0 427.0Q516.0 420.0 506.0 412.0Q496.0 404.0 531.5 417.0Q567.0 430.0 544.0 413.0Q521.0 396.0 518.5 387.5Q516.0 379.0 542.5 403.5Q569.0 428.0 552.5 401.0Q536.0 374.0 539.0 369.5Q542.0 365.0 557.0 396.0Q572.0 427.0 566.0 392.5Q560.0 358.0 565.0 360.0Q570.0 362.0 573.0 394.0Q576.0 426.0 583.5 389.5Q591.0 353.0 593.5 361.5Q596.0 370.0 587.5 398.0Q579.0 426.0 600.5 393.5Q622.0 361.0 618.5 374.0Q615.0 387.0 599.5 407.0Q584.0 427.0 616.5 404.0Q649.0 381.0 637.0 394.0Q625.0 407.0 606.5 418.5Q588.0 430.0 627.5 420.5Q667.0 411.0 646.5 420.0Q626.0 429.0 609.5 432.0Q593.0 435.0 633.0 441.0Q673.0 447.0 646.5 447.0Q620.0 447.0 607.5 445.0Q595.0 443.0 629.0 463.0Q663.0 483.0 635.5 471.0Q608.0 459.0 601.0 456.0Q594.0 453.0 617.0 483.5Q640.0 514.0 617.0 489.5Q594.0 465.0 591.0 464.0Q588.0 463.0 597.5 498.0Q607.0 533.0 594.0 499.0Q581.0 465.0 579.0 468.0Q577.0 471.0 573.0 504.5Q569.0 538.0 569.5 499.0Q570.0 460.0 566.0 467.5Q562.0 475.0 546.5 501.5Q531.0 528.0 547.0 490.5Q563.0 453.0 553.5 462.5Q544.0 472.0 522.5 488.0Q501.0 504.0 530.5 475.0Q560.0 446.0 543.5 453.5Q527.0 461.0 505.0 466.5Q483.0 472.0 522.0 455.5Q561.0 439.0 538.0 441.0Q515.0 443.0 496.5 439.0Q478.0 435.0 520.5 434.0Q563.0 433.0 536.5 425.5Q510.0 418.0 499.0 409.5Q488.0 401.0 527.0 415.5Q566.0 430.0 541.0 411.0Q516.0 392.0 513.0 383.0Q510.0 374.0 521.0 371.0Q532.0 368.0 535.5 363.0Q539.0 358.0 555.5 392.0Q572.0 426.0 565.5 388.5Q559.0 351.0 564.5 353.5Q570.0 356.0 573.0 390.5Q576.0 425.0 584.0 385.5Q592.0 346.0 595.0 355.0Q598.0 364.0 589.0 394.5Q580.0 425.0 603.0 389.5Q626.0 354.0 622.5 368.0Q619.0 382.0 601.5 404.0Q584.0 426.0 620.0 401.0Q656.0 376.0 643.0 390.5Q630.0 405.0 610.0 417.0Q590.0 429.0 633.0 419.0Q676.0 409.0 653.5 418.5Q631.0 428.0 612.5 431.5Q594.0 435.0 637.5 441.5Q681.0 448.0 652.5 448.0Q624.0 448.0 610.5 446.0Q597.0 444.0 634.0 466.0Q671.0 488.0 641.0 474.5Q611.0 461.0 603.5 457.5Q596.0 454.0 621.0 487.5Q646.0 521.0 621.0 494.5Q596.0 468.0 592.5 466.5Q589.0 465.0 599.5 503.5Q610.0 542.0 595.5 505.0Q581.0 468.0 579.0 471.0Q577.0 474.0 572.5 510.5Q568.0 547.0 569.0 505.0Q570.0 463.0 565.5 470.5Q561.0 478.0 544.0 507.0Q527.0 536.0 544.5 495.5Q562.0 455.0 552.0 465.0Q542.0 475.0 518.5 492.5Q495.0 510.0 527.0 478.5Q559.0 447.0 541.0 455.0Q523.0 463.0 499.0 469.0Q475.0 475.0 517.0 457.0Q559.0 439.0 534.5 441.0Q510.0 443.0 490.0 439.0Q470.0 435.0 516.0 434.0Q562.0 433.0 533.0 425.0Q504.0 417.0 492.5 407.5Q481.0 398.0 523.0 413.5Q565.0 429.0 538.0 408.5Q511.0 388.0 507.5 378.5Q504.0 369.0 536.0 398.0Q568.0 427.0 548.5 394.5Q529.0 362.0 532.5 357.0Q536.0 352.0 554.0 388.5Q572.0 425.0 565.0 384.5Q558.0 344.0 564.0 346.5Q570.0 349.0 581.5 343.5Q593.0 338.0 596.5 348.5Q600.0 359.0 590.0 391.5Q580.0 424.0 605.5 385.5Q631.0 347.0 626.5 362.5Q622.0 378.0 603.5 401.5Q585.0 425.0 624.0 398.0Q663.0 371.0 648.5 386.5Q634.0 402.0 612.5 415.5Q591.0 429.0 637.5 418.0Q684.0 407.0 660.0 417.0Q636.0 427.0 616.0 431.0Q596.0 435.0 643.0 442.5Q690.0 450.0 659.0 449.5Q628.0 449.0 613.5 446.5Q599.0 444.0 639.0 468.0Q679.0 492.0 646.5 477.5Q614.0 463.0 605.5 459.5Q597.0 456.0 624.5 492.0Q652.0 528.0 624.5 499.0Q597.0 470.0 593.5 469.0Q590.0 468.0 601.5 509.5Q613.0 551.0 597.5 510.5Q582.0 470.0 580.0 474.0Q578.0 478.0 572.5 517.0Q567.0 556.0 568.0 510.5Q569.0 465.0 564.5 473.5Q560.0 482.0 542.0 513.0Q524.0 544.0 542.5 500.5Q561.0 457.0 550.0 468.0Q539.0 479.0 513.5 498.0Q488.0 517.0 523.0 482.0Q558.0 447.0 538.5 456.5Q519.0 466.0 493.0 472.0Q467.0 478.0 512.5 458.5Q558.0 439.0 531.0 441.5Q504.0 444.0 483.0 439.5Q462.0 435.0 511.5 434.0Q561.0 433.0 530.0 424.0Q499.0 415.0 486.0 405.0Q473.0 395.0 518.5 412.0Q564.0 429.0 534.5 406.5Q505.0 384.0 502.0 373.5Q499.0 363.0 533.5 394.5Q568.0 426.0 546.5 391.0Q525.0 356.0 529.0 350.5Q533.0 345.0 544.5 341.0Q556.0 337.0 562.5 339.5Q569.0 342.0 572.5 383.0Q576.0 424.0 585.5 377.5Q595.0 331.0 598.5 342.0Q602.0 353.0 591.0 388.0Q580.0 423.0 607.5 382.0Q635.0 341.0 630.5 357.0Q626.0 373.0 606.0 399.0Q586.0 425.0 628.0 395.5Q670.0 366.0 654.5 383.0Q639.0 400.0 615.5 414.0Q592.0 428.0 642.5 416.5Q693.0 405.0 666.5 416.0Q640.0 427.0 618.5 431.0Q597.0 435.0 648.0 443.0Q699.0 451.0 665.5 450.5Q632.0 450.0 616.0 447.5Q600.0 445.0 643.5 471.0Q687.0 497.0 652.0 481.5Q617.0 466.0 608.0 462.0Q599.0 458.0 628.5 496.5Q658.0 535.0 628.5 504.0Q599.0 473.0 595.5 471.5Q592.0 470.0 603.5 514.5Q615.0 559.0 598.5 516.0Q582.0 473.0 580.0 477.0Q578.0 481.0 572.5 523.5Q567.0 566.0 568.0 516.5Q569.0 467.0 564.0 476.5Q559.0 486.0 539.5 519.5Q520.0 553.0 540.0 505.5Q560.0 458.0 548.0 470.0Q536.0 482.0 509.0 502.5Q482.0 523.0 519.5 485.5Q557.0 448.0 536.0 458.0Q515.0 468.0 486.5 474.5Q458.0 481.0 507.5 460.5Q557.0 440.0 528.0 442.5Q499.0 445.0 476.0 440.0Q453.0 435.0 506.0 434.0Q559.0 433.0 526.0 423.5Q493.0 414.0 479.5 403.0Q466.0 392.0 514.5 410.5Q563.0 429.0 531.5 405.0Q500.0 381.0 496.5 369.5Q493.0 358.0 530.0 392.0Q567.0 426.0 544.5 388.5Q522.0 351.0 526.0 345.0Q530.0 339.0 550.5 381.5Q571.0 424.0 563.0 377.0Q555.0 330.0 562.0 332.5Q569.0 335.0 572.5 379.0Q576.0 423.0 586.0 373.0Q596.0 323.0 600.0 335.0Q604.0 347.0 592.5 385.0Q581.0 423.0 610.0 378.5Q639.0 334.0 634.5 351.5Q630.0 369.0 608.5 396.5Q587.0 424.0 631.5 392.5Q676.0 361.0 660.0 379.0Q644.0 397.0 618.5 412.5Q593.0 428.0 647.0 415.5Q701.0 403.0 673.0 414.5Q645.0 426.0 622.0 430.5Q599.0 435.0 653.5 443.5Q708.0 452.0 672.0 451.5Q636.0 451.0 619.0 448.5Q602.0 446.0 648.5 473.5Q695.0 501.0 657.5 484.5Q620.0 468.0 610.5 463.5Q601.0 459.0 632.5 500.5Q664.0 542.0 632.5 509.0Q601.0 476.0 597.0 474.5Q593.0 473.0 605.5 520.5Q618.0 568.0 600.5 522.0Q583.0 476.0 580.5 480.0Q578.0 484.0 572.0 529.5Q566.0 575.0 567.0 522.5Q568.0 470.0 562.5 479.5Q557.0 489.0 536.5 525.0Q516.0 561.0 537.5 510.5Q559.0 460.0 546.5 472.5Q534.0 485.0 504.5 507.0Q475.0 529.0 515.0 489.0Q555.0 449.0 533.0 459.5Q511.0 470.0 480.5 477.0Q450.0 484.0 503.0 462.0Q556.0 440.0 525.0 442.5Q494.0 445.0 469.5 440.0Q445.0 435.0 501.5 434.0Q558.0 433.0 523.0 423.0Q488.0 413.0 473.0 401.0Q458.0 389.0 510.0 408.5Q562.0 428.0 528.5 402.5Q495.0 377.0 491.5 365.0Q488.0 353.0 527.5 389.0Q567.0 425.0 542.5 385.0Q518.0 345.0 522.5 338.5Q527.0 332.0 549.0 377.5Q571.0 423.0 562.5 373.0Q554.0 323.0 561.0 326.0Q568.0 329.0 572.0 375.5Q576.0 422.0 587.0 369.0Q598.0 316.0 602.0 328.5Q606.0 341.0 593.5 381.5Q581.0 422.0 612.5 374.5Q644.0 327.0 638.5 345.5Q633.0 364.0 610.5 393.5Q588.0 423.0 635.5 389.5Q683.0 356.0 665.5 375.5Q648.0 395.0 621.5 411.0Q595.0 427.0 652.0 413.5Q709.0 400.0 679.5 413.0Q650.0 426.0 625.5 430.5Q601.0 435.0 659.0 444.0Q717.0 453.0 678.5 452.5Q640.0 452.0 622.0 449.0Q604.0 446.0 653.5 475.5Q703.0 505.0 663.0 487.5Q623.0 470.0 612.5 465.5Q602.0 461.0 635.5 505.0Q669.0 549.0 636.0 514.0Q603.0 479.0 598.5 477.0Q594.0 475.0 607.5 526.0Q621.0 577.0 602.0 527.5Q583.0 478.0 580.5 482.5Q578.0 487.0 572.0 535.5Q566.0 584.0 567.0 528.0Q568.0 472.0 562.0 482.5Q556.0 493.0 534.0 531.0Q512.0 569.0 535.0 515.0Q558.0 461.0 544.5 474.5Q531.0 488.0 500.0 511.5Q469.0 535.0 511.5 492.5Q554.0 450.0 530.5 461.5Q507.0 473.0 474.5 480.5Q442.0 488.0 498.0 464.0Q554.0 440.0 521.5 443.0Q489.0 446.0 462.5 440.5Q436.0 435.0 496.5 434.0Q557.0 433.0 519.5 422.0Q482.0 411.0 466.5 398.5Q451.0 386.0 470.5 379.5Q490.0 373.0 486.0 360.5Q482.0 348.0 524.0 386.0Q566.0 424.0 540.0 381.5Q514.0 339.0 519.0 332.5Q524.0 326.0 547.5 374.0Q571.0 422.0 561.5 369.0Q552.0 316.0 560.0 319.0Q568.0 322.0 572.0 371.5Q576.0 421.0 587.5 364.5Q599.0 308.0 603.5 321.5Q608.0 335.0 595.0 378.0Q582.0 421.0 615.0 370.5Q648.0 320.0 642.5 340.0Q637.0 360.0 612.5 391.0Q588.0 422.0 639.0 386.5Q690.0 351.0 671.5 371.5Q653.0 392.0 624.5 409.5Q596.0 427.0 657.0 412.5Q718.0 398.0 686.0 411.5Q654.0 425.0 628.0 430.0Q602.0 435.0 664.0 444.5Q726.0 454.0 685.0 453.5Q644.0 453.0 625.0 450.0Q606.0 447.0 658.5 478.5Q711.0 510.0 668.5 491.0Q626.0 472.0 615.0 467.0Q604.0 462.0 639.5 509.0Q675.0 556.0 639.5 518.5Q604.0 481.0 599.5 479.5Q595.0 478.0 609.5 532.0Q624.0 586.0 604.0 533.5Q584.0 481.0 581.0 485.5Q578.0 490.0 571.5 541.5Q565.0 593.0 566.5 533.5Q568.0 474.0 561.5 485.0Q555.0 496.0 531.5 536.5Q508.0 577.0 532.5 520.0Q557.0 463.0 542.5 477.5Q528.0 492.0 495.0 516.5Q462.0 541.0 507.5 496.0Q553.0 451.0 527.5 463.0Q502.0 475.0 468.0 483.0Q434.0 491.0 493.5 466.0Q553.0 441.0 518.0 444.0Q483.0 447.0 455.5 441.0Q428.0 435.0 492.0 434.0Q556.0 433.0 516.0 421.5Q476.0 410.0 459.5 396.5Q443.0 383.0 502.0 405.0Q561.0 427.0 523.0 398.5Q485.0 370.0 480.5 356.0Q476.0 342.0 493.5 337.5Q511.0 333.0 515.5 326.0Q520.0 319.0 535.5 313.5Q551.0 308.0 559.0 311.5Q567.0 315.0 571.5 367.5Q576.0 420.0 588.5 360.5Q601.0 301.0 605.5 315.0Q610.0 329.0 596.0 374.5Q582.0 420.0 617.0 366.5Q652.0 313.0 646.5 334.5Q641.0 356.0 615.0 389.0Q589.0 422.0 643.0 384.0Q697.0 346.0 677.0 368.0Q657.0 390.0 627.0 408.0Q597.0 426.0 661.5 411.0Q726.0 396.0 692.5 410.0Q659.0 424.0 631.5 429.5Q604.0 435.0 669.5 445.0Q735.0 455.0 691.5 454.5Q648.0 454.0 628.0 451.0Q608.0 448.0 663.5 481.0Q719.0 514.0 674.0 494.0Q629.0 474.0 617.5 469.0Q606.0 464.0 643.5 513.5Q681.0 563.0 643.5 523.5Q606.0 484.0 601.0 482.0Q596.0 480.0 611.5 537.0Q627.0 594.0 605.5 539.0Q584.0 484.0 581.5 489.0Q579.0 494.0 571.5 548.0Q564.0 602.0 565.5 539.0Q567.0 476.0 560.5 488.0Q554.0 500.0 529.0 542.5Q504.0 585.0 530.0 525.0Q556.0 465.0 541.0 480.0Q526.0 495.0 491.0 521.0Q456.0 547.0 503.5 499.5Q551.0 452.0 524.5 464.5Q498.0 477.0 462.0 485.5Q426.0 494.0 489.0 467.5Q552.0 441.0 515.0 444.0Q478.0 447.0 449.0 441.0Q420.0 435.0 487.5 433.5Q555.0 432.0 513.0 420.0Q471.0 408.0 453.5 394.0Q436.0 380.0 498.0 403.5Q560.0 427.0 520.0 396.5Q480.0 366.0 475.5 351.5Q471.0 337.0 518.0 380.0Q565.0 423.0 536.0 375.5Q507.0 328.0 512.0 320.5Q517.0 313.0 543.5 367.0Q570.0 421.0 559.5 361.0Q549.0 301.0 558.0 304.5Q567.0 308.0 584.5 300.5Q602.0 293.0 607.0 308.0Q612.0 323.0 597.0 371.0Q582.0 419.0 619.5 362.5Q657.0 306.0 650.5 328.5Q644.0 351.0 617.0 386.0Q590.0 421.0 647.0 381.0Q704.0 341.0 683.0 364.0Q662.0 387.0 630.0 406.5Q598.0 426.0 666.5 410.0Q735.0 394.0 699.5 409.0Q664.0 424.0 634.5 429.5Q605.0 435.0 674.0 445.5Q743.0 456.0 697.5 455.5Q652.0 455.0 630.5 452.0Q609.0 449.0 668.0 483.5Q727.0 518.0 679.5 497.0Q632.0 476.0 619.5 470.5Q607.0 465.0 647.0 517.5Q687.0 570.0 647.5 528.5Q608.0 487.0 603.0 485.0Q598.0 483.0 614.0 543.0Q630.0 603.0 607.5 544.5Q585.0 486.0 582.0 491.5Q579.0 497.0 571.5 554.0Q564.0 611.0 565.5 545.0Q567.0 479.0 560.0 491.0Q553.0 503.0 526.5 548.5Q500.0 594.0 527.5 530.0Q555.0 466.0 539.0 482.0Q523.0 498.0 486.0 525.5Q449.0 553.0 499.5 503.0Q550.0 453.0 522.0 466.0Q494.0 479.0 456.0 488.0Q418.0 497.0 484.0 469.0Q550.0 441.0 511.5 444.5Q473.0 448.0 442.0 441.5Q411.0 435.0 482.5 433.5Q554.0 432.0 509.5 419.5Q465.0 407.0 446.5 392.0Q428.0 377.0 493.5 401.5Q559.0 426.0 517.0 394.0Q475.0 362.0 470.0 347.0Q465.0 332.0 484.0 327.0Q503.0 322.0 508.5 314.0Q514.0 306.0 542.0 363.0Q570.0 420.0 559.0 357.0Q548.0 294.0 557.5 298.0Q567.0 302.0 571.5 360.5Q576.0 419.0 590.0 352.0Q604.0 285.0 608.5 301.0Q613.0 317.0 598.0 367.5Q583.0 418.0 622.0 359.0Q661.0 300.0 654.5 323.5Q648.0 347.0 619.5 383.5Q591.0 420.0 651.0 378.5Q711.0 337.0 689.0 361.0Q667.0 385.0 633.0 405.0Q599.0 425.0 671.0 408.5Q743.0 392.0 705.5 407.5Q668.0 423.0 637.5 429.0Q607.0 435.0 679.5 446.0Q752.0 457.0 704.0 456.5Q656.0 456.0 633.5 452.5Q611.0 449.0 673.0 486.0Q735.0 523.0 685.0 500.5Q635.0 478.0 622.0 472.5Q609.0 467.0 651.0 522.0Q693.0 577.0 651.0 533.0Q609.0 489.0 604.0 487.0Q599.0 485.0 616.0 548.5Q633.0 612.0 609.0 550.5Q585.0 489.0 582.0 494.5Q579.0 500.0 571.0 560.5Q563.0 621.0 564.5 551.0Q566.0 481.0 559.0 494.0Q552.0 507.0 524.0 554.5Q496.0 602.0 525.0 535.0Q554.0 468.0 537.0 484.5Q520.0 501.0 481.5 530.0Q443.0 559.0 496.0 506.5Q549.0 454.0 519.5 468.0Q490.0 482.0 450.0 491.0Q410.0 500.0 479.5 471.0Q549.0 442.0 508.5 445.5Q468.0 449.0 435.5 442.0Q403.0 435.0 478.0 433.5Q553.0 432.0 506.0 418.5Q459.0 405.0 440.0 389.5Q421.0 374.0 489.5 400.0Q558.0 426.0 514.0 392.0Q470.0 358.0 465.0 342.5Q460.0 327.0 512.0 374.5Q564.0 422.0 532.0 369.0Q500.0 316.0 505.5 308.0Q511.0 300.0 540.5 359.5Q570.0 419.0 558.5 353.0Q547.0 287.0 556.5 291.0Q566.0 295.0 571.0 356.5Q576.0 418.0 590.5 348.0Q605.0 278.0 610.0 294.5Q615.0 311.0 640.0 302.0Q665.0 293.0 658.5 317.5Q652.0 342.0 622.0 380.5Q592.0 419.0 654.5 375.5Q717.0 332.0 694.0 357.0Q671.0 382.0 636.0 403.5Q601.0 425.0 676.5 407.5Q752.0 390.0 712.5 406.5Q673.0 423.0 641.0 429.0Q609.0 435.0 685.0 447.0Q761.0 459.0 710.5 458.0Q660.0 457.0 636.5 453.5Q613.0 450.0 678.0 488.5Q743.0 527.0 690.5 504.0Q638.0 481.0 624.5 475.0Q611.0 469.0 655.0 527.0Q699.0 585.0 655.0 538.5Q611.0 492.0 605.5 490.0Q600.0 488.0 617.5 554.5Q635.0 621.0 610.5 556.5Q586.0 492.0 582.5 497.5Q579.0 503.0 571.0 566.5Q563.0 630.0 564.5 556.5Q566.0 483.0 558.5 496.5Q551.0 510.0 522.0 560.0Q493.0 610.0 523.0 540.0Q553.0 470.0 535.0 487.5Q517.0 505.0 476.5 535.0Q436.0 565.0 492.0 510.0Q548.0 455.0 517.0 469.5Q486.0 484.0 444.0 494.0Q402.0 504.0 475.0 473.0Q548.0 442.0 505.0 445.5Q462.0 449.0 428.0 442.0Q394.0 435.0 473.0 433.5Q552.0 432.0 503.0 418.0Q454.0 404.0 433.5 387.5Q413.0 371.0 485.5 398.0Q558.0 425.0 511.5 390.0Q465.0 355.0 459.5 338.0Q454.0 321.0 509.0 371.0Q564.0 421.0 530.0 365.5Q496.0 310.0 502.0 301.5Q508.0 293.0 526.5 286.5Q545.0 280.0 555.5 284.0Q566.0 288.0 571.0 352.5Q576.0 417.0 591.0 343.5Q606.0 270.0 611.5 287.5Q617.0 305.0 600.5 361.0Q584.0 417.0 627.0 351.5Q670.0 286.0 662.5 312.0Q655.0 338.0 689.5 332.5Q724.0 327.0 700.0 353.5Q676.0 380.0 639.0 402.0Q602.0 424.0 681.0 405.5Q760.0 387.0 719.0 404.5Q678.0 422.0 644.0 428.5Q610.0 435.0 690.0 447.5Q770.0 460.0 717.0 459.0Q664.0 458.0 639.5 454.5Q615.0 451.0 683.0 491.5Q751.0 532.0 696.0 507.5Q641.0 483.0 627.0 476.5Q613.0 470.0 659.0 531.0Q705.0 592.0 659.0 543.5Q613.0 495.0 607.0 492.5Q601.0 490.0 619.5 559.5Q638.0 629.0 612.0 562.0Q586.0 495.0 583.0 501.0Q580.0 507.0 571.0 573.0Q562.0 639.0 563.5 562.0Q565.0 485.0 557.0 499.5Q549.0 514.0 519.0 566.0Q489.0 618.0 520.5 544.5Q552.0 471.0 533.5 489.5Q515.0 508.0 472.5 539.5Q430.0 571.0 488.0 513.5Q546.0 456.0 514.0 471.0Q482.0 486.0 438.0 496.5Q394.0 507.0 470.5 474.5Q547.0 442.0 502.0 446.0Q457.0 450.0 421.5 442.5Q386.0 435.0 468.5 433.5Q551.0 432.0 499.5 417.0Q448.0 402.0 427.0 385.0Q406.0 368.0 481.5 396.5Q557.0 425.0 508.0 388.0Q459.0 351.0 454.0 333.5Q449.0 316.0 506.0 368.5Q563.0 421.0 527.5 363.0Q492.0 305.0 498.5 295.5Q505.0 286.0 537.0 352.0Q569.0 418.0 556.5 345.5Q544.0 273.0 554.5 277.0Q565.0 281.0 570.5 348.5Q576.0 416.0 592.0 339.5Q608.0 263.0 613.5 281.0Q619.0 299.0 601.5 357.5Q584.0 416.0 629.0 347.5Q674.0 279.0 666.5 306.0Q659.0 333.0 626.0 375.5Q593.0 418.0 662.0 370.0Q731.0 322.0 705.5 349.5Q680.0 377.0 641.5 400.5Q603.0 424.0 685.5 404.5Q768.0 385.0 725.5 403.0Q683.0 421.0 647.5 428.0Q612.0 435.0 695.5 448.0Q779.0 461.0 724.0 460.0Q669.0 459.0 643.0 455.0Q617.0 451.0 688.0 493.5Q759.0 536.0 701.5 510.5Q644.0 485.0 629.0 478.5Q614.0 472.0 662.0 535.5Q710.0 599.0 662.5 548.0Q615.0 497.0 608.5 495.0Q602.0 493.0 621.5 565.5Q641.0 638.0 614.0 567.5Q587.0 497.0 583.5 503.5Q580.0 510.0 571.0 579.0Q562.0 648.0 563.5 568.0Q565.0 488.0 556.5 502.5Q548.0 517.0 516.5 571.5Q485.0 626.0 518.0 549.5Q551.0 473.0 531.5 492.0Q512.0 511.0 467.5 544.5Q423.0 578.0 484.0 517.5Q545.0 457.0 511.0 473.0Q477.0 489.0 431.5 499.5Q386.0 510.0 465.5 476.5Q545.0 443.0 498.5 447.0Q452.0 451.0 415.0 443.0Q378.0 435.0 464.0 433.5Q550.0 432.0 496.5 416.5Q443.0 401.0 421.0 383.0Q399.0 365.0 477.5 395.0Q556.0 425.0 505.0 386.0Q454.0 347.0 448.5 329.0Q443.0 311.0 503.0 365.5Q563.0 420.0 526.0 359.5Q489.0 299.0 495.5 289.5Q502.0 280.0 535.5 348.5Q569.0 417.0 556.0 341.5Q543.0 266.0 554.0 270.0Q565.0 274.0 570.5 344.5Q576.0 415.0 592.5 335.0Q609.0 255.0 615.0 274.0Q621.0 293.0 602.5 354.0Q584.0 415.0 631.0 343.5Q678.0 272.0 670.5 300.5Q663.0 329.0 628.5 373.0Q594.0 417.0 666.0 367.0Q738.0 317.0 711.5 346.0Q685.0 375.0 644.5 399.0Q604.0 423.0 690.5 403.0Q777.0 383.0 732.0 402.0Q687.0 421.0 650.0 428.0Q613.0 435.0 700.5 448.5Q788.0 462.0 730.5 461.0Q673.0 460.0 645.5 456.0Q618.0 452.0 692.5 496.0Q767.0 540.0 707.0 513.5Q647.0 487.0 631.5 480.0Q616.0 473.0 666.0 539.5Q716.0 606.0 666.0 553.0Q616.0 500.0 609.5 497.5Q603.0 495.0 623.5 571.0Q644.0 647.0 615.5 573.5Q587.0 500.0 583.5 506.5Q580.0 513.0 570.5 585.0Q561.0 657.0 563.0 573.5Q565.0 490.0 556.0 505.5Q547.0 521.0 514.0 578.0Q481.0 635.0 515.5 554.5Q550.0 474.0 529.5 494.0Q509.0 514.0 463.0 549.0Q417.0 584.0 480.5 521.0Q544.0 458.0 508.5 474.5Q473.0 491.0 425.5 502.0Q378.0 513.0 461.0 478.0Q544.0 443.0 495.5 447.0Q447.0 451.0 408.0 443.0Q369.0 435.0 459.0 433.5Q549.0 432.0 493.0 416.0Q437.0 400.0 414.0 381.0Q391.0 362.0 473.0 393.0Q555.0 424.0 502.0 384.0Q449.0 344.0 443.0 325.0Q437.0 306.0 499.5 362.5Q562.0 419.0 523.5 356.0Q485.0 293.0 492.0 283.0Q499.0 273.0 534.0 344.5Q569.0 416.0 555.0 337.0Q541.0 258.0 552.5 263.0Q564.0 268.0 587.5 258.0Q611.0 248.0 617.0 267.5Q623.0 287.0 604.0 350.5Q585.0 414.0 634.0 339.5Q683.0 265.0 674.5 294.5Q666.0 324.0 630.5 370.0Q595.0 416.0 670.0 364.0Q745.0 312.0 717.5 342.0Q690.0 372.0 648.0 397.5Q606.0 423.0 695.5 402.0Q785.0 381.0 738.5 400.5Q692.0 420.0 653.5 427.5Q615.0 435.0 705.5 449.0Q796.0 463.0 736.5 462.0Q677.0 461.0 648.5 457.0Q620.0 453.0 697.5 499.0Q775.0 545.0 712.5 517.0Q650.0 489.0 634.0 482.0Q618.0 475.0 670.0 544.0Q722.0 613.0 670.0 558.0Q618.0 503.0 611.5 500.5Q605.0 498.0 626.0 577.0Q647.0 656.0 617.5 579.5Q588.0 503.0 584.0 509.5Q580.0 516.0 570.0 591.0Q560.0 666.0 562.0 579.0Q564.0 492.0 555.0 508.0Q546.0 524.0 511.5 583.5Q477.0 643.0 513.0 559.5Q549.0 476.0 528.0 497.0Q507.0 518.0 458.5 554.0Q410.0 590.0 476.5 524.5Q543.0 459.0 506.0 476.0Q469.0 493.0 419.5 504.5Q370.0 516.0 456.5 479.5Q543.0 443.0 492.0 447.5Q441.0 452.0 401.0 443.5Q361.0 435.0 454.5 433.5Q548.0 432.0 489.5 415.0Q431.0 398.0 407.5 378.5Q384.0 359.0 469.0 391.5Q554.0 424.0 499.0 382.0Q444.0 340.0 438.0 320.0Q432.0 300.0 456.5 293.5Q481.0 287.0 488.5 277.0Q496.0 267.0 518.0 259.0Q540.0 251.0 552.0 256.0Q564.0 261.0 570.0 337.5Q576.0 414.0 594.0 327.0Q612.0 240.0 618.5 260.5Q625.0 281.0 605.0 347.0Q585.0 413.0 636.0 336.0Q687.0 259.0 678.5 289.5Q670.0 320.0 633.0 368.0Q596.0 416.0 673.5 361.5Q751.0 307.0 722.5 338.0Q694.0 369.0 650.5 395.5Q607.0 422.0 700.5 400.5Q794.0 379.0 745.5 399.5Q697.0 420.0 657.0 427.5Q617.0 435.0 711.0 449.5Q805.0 464.0 743.0 463.0Q681.0 462.0 651.5 458.0Q622.0 454.0 702.5 501.5Q783.0 549.0 718.0 520.0Q653.0 491.0 636.0 484.0Q619.0 477.0 673.5 548.5Q728.0 620.0 674.0 562.5Q620.0 505.0 613.0 502.5Q606.0 500.0 628.0 582.5Q650.0 665.0 619.0 585.0Q588.0 505.0 584.0 512.0Q580.0 519.0 570.0 597.0Q560.0 675.0 562.0 584.5Q564.0 494.0 554.5 511.0Q545.0 528.0 509.0 589.5Q473.0 651.0 510.5 564.5Q548.0 478.0 526.0 499.5Q504.0 521.0 454.0 558.5Q404.0 596.0 472.5 528.0Q541.0 460.0 503.0 478.0Q465.0 496.0 413.5 507.5Q362.0 519.0 452.0 481.5Q542.0 444.0 489.0 448.5Q436.0 453.0 394.5 444.0Q353.0 435.0 450.0 433.0Q547.0 431.0 486.5 414.0Q426.0 397.0 401.0 376.5Q376.0 356.0 465.0 389.5Q554.0 423.0 496.5 379.5Q439.0 336.0 432.5 315.5Q426.0 295.0 493.5 356.5Q561.0 418.0 519.5 350.0Q478.0 282.0 485.5 271.0Q493.0 260.0 530.5 337.5Q568.0 415.0 553.5 329.5Q539.0 244.0 551.5 249.0Q564.0 254.0 570.0 333.5Q576.0 413.0 595.0 322.5Q614.0 232.0 620.5 253.5Q627.0 275.0 606.5 344.0Q586.0 413.0 638.5 332.5Q691.0 252.0 682.5 284.0Q674.0 316.0 635.0 365.5Q596.0 415.0 677.0 358.5Q758.0 302.0 728.5 334.5Q699.0 367.0 653.5 394.5Q608.0 422.0 705.0 399.5Q802.0 377.0 751.5 398.0Q701.0 419.0 659.5 427.0Q618.0 435.0 716.0 450.0Q814.0 465.0 749.5 464.0Q685.0 463.0 654.5 458.5Q624.0 454.0 707.5 504.0Q791.0 554.0 723.5 524.0Q656.0 494.0 638.5 486.0Q621.0 478.0 677.5 552.5Q734.0 627.0 677.5 567.5Q621.0 508.0 614.0 505.5Q607.0 503.0 629.5 588.0Q652.0 673.0 620.5 590.5Q589.0 508.0 585.0 515.5Q581.0 523.0 570.0 604.0Q559.0 685.0 561.0 591.0Q563.0 497.0 553.5 514.0Q544.0 531.0 506.5 595.0Q469.0 659.0 508.0 569.0Q547.0 479.0 524.0 501.5Q501.0 524.0 449.0 563.0Q397.0 602.0 468.5 531.0Q540.0 460.0 500.5 479.0Q461.0 498.0 407.5 510.5Q354.0 523.0 447.0 483.5Q540.0 444.0 485.5 448.5Q431.0 453.0 387.5 444.0Q344.0 435.0 445.0 433.0Q546.0 431.0 483.0 413.0Q420.0 395.0 394.5 374.0Q369.0 353.0 461.0 388.0Q553.0 423.0 493.5 377.5Q434.0 332.0 427.5 311.0Q421.0 290.0 447.5 283.0Q474.0 276.0 482.0 265.0Q490.0 254.0 529.0 334.0Q568.0 414.0 552.5 325.5Q537.0 237.0 550.0 242.0Q563.0 247.0 569.5 329.5Q576.0 412.0 595.5 318.5Q615.0 225.0 622.0 247.0Q629.0 269.0 607.5 340.5Q586.0 412.0 641.0 328.5Q696.0 245.0 686.5 278.0Q677.0 311.0 637.0 362.5Q597.0 414.0 681.0 355.5Q765.0 297.0 734.0 330.5Q703.0 364.0 656.0 392.5Q609.0 421.0 710.0 398.0Q811.0 375.0 758.5 396.5Q706.0 418.0 663.0 426.5Q620.0 435.0 721.5 450.5Q823.0 466.0 756.0 465.0Q689.0 464.0 657.5 459.5Q626.0 455.0 712.5 506.5Q799.0 558.0 729.0 527.0Q659.0 496.0 641.0 488.0Q623.0 480.0 681.5 557.0Q740.0 634.0 681.5 572.5Q623.0 511.0 615.5 508.0Q608.0 505.0 631.5 593.5Q655.0 682.0 622.0 596.5Q589.0 511.0 585.0 518.5Q581.0 526.0 570.0 610.0Q559.0 694.0 561.0 596.5Q563.0 499.0 552.5 517.0Q542.0 535.0 504.0 601.5Q466.0 668.0 506.0 574.5Q546.0 481.0 522.5 504.0Q499.0 527.0 445.0 567.5Q391.0 608.0 465.0 534.5Q539.0 461.0 498.0 480.5Q457.0 500.0 401.0 513.0Q345.0 526.0 442.0 485.0Q539.0 444.0 482.5 449.0Q426.0 454.0 381.0 444.5Q336.0 435.0 440.5 433.0Q545.0 431.0 479.5 412.5Q414.0 394.0 387.5 372.0Q361.0 350.0 456.5 386.0Q552.0 422.0 490.5 375.5Q429.0 329.0 422.0 307.0Q415.0 285.0 487.5 351.0Q560.0 417.0 515.0 343.5Q470.0 270.0 478.5 258.5Q487.0 247.0 527.5 330.0Q568.0 413.0 552.0 321.5Q536.0 230.0 549.5 235.5Q563.0 241.0 569.5 326.0Q576.0 411.0 596.5 314.0Q617.0 217.0 624.0 240.0Q631.0 263.0 608.5 337.0Q586.0 411.0 643.0 324.5Q700.0 238.0 690.5 272.5Q681.0 307.0 639.5 360.0Q598.0 413.0 685.0 352.5Q772.0 292.0 740.0 327.0Q708.0 362.0 659.0 391.5Q610.0 421.0 714.5 396.5Q819.0 372.0 765.0 395.0Q711.0 418.0 666.5 426.5Q622.0 435.0 727.0 451.0Q832.0 467.0 762.5 466.0Q693.0 465.0 660.0 460.5Q627.0 456.0 716.5 509.0Q806.0 562.0 734.0 530.0Q662.0 498.0 643.0 489.5Q624.0 481.0 685.0 561.0Q746.0 641.0 685.5 577.5Q625.0 514.0 617.0 511.0Q609.0 508.0 633.5 599.5Q658.0 691.0 624.0 602.0Q590.0 513.0 585.5 521.0Q581.0 529.0 569.5 616.0Q558.0 703.0 560.0 602.0Q562.0 501.0 551.5 520.0Q541.0 539.0 501.5 607.5Q462.0 676.0 503.5 579.0Q545.0 482.0 520.5 506.5Q496.0 531.0 440.0 572.5Q384.0 614.0 460.5 538.0Q537.0 462.0 494.5 482.0Q452.0 502.0 394.5 515.5Q337.0 529.0 437.5 487.0Q538.0 445.0 479.0 450.0Q420.0 455.0 373.5 445.0Q327.0 435.0 435.0 433.0Q543.0 431.0 476.0 411.5Q409.0 392.0 381.5 369.5Q354.0 347.0 452.5 384.5Q551.0 422.0 487.5 373.5Q424.0 325.0 416.5 302.0Q409.0 279.0 484.5 347.5Q560.0 416.0 513.5 340.0Q467.0 264.0 475.0 252.5Q483.0 241.0 508.5 232.0Q534.0 223.0 548.0 228.5Q562.0 234.0 569.5 322.5Q577.0 411.0 597.5 310.5Q618.0 210.0 625.5 233.5Q633.0 257.0 610.0 333.5Q587.0 410.0 645.5 320.5Q704.0 231.0 694.5 266.5Q685.0 302.0 642.0 357.5Q599.0 413.0 689.0 350.0Q779.0 287.0 746.0 323.0Q713.0 359.0 662.5 389.5Q612.0 420.0 719.5 395.0Q827.0 370.0 771.0 393.5Q715.0 417.0 669.0 426.0Q623.0 435.0 732.0 452.0Q841.0 469.0 769.0 467.5Q697.0 466.0 663.0 461.0Q629.0 456.0 721.5 511.5Q814.0 567.0 739.5 533.5Q665.0 500.0 645.5 491.5Q626.0 483.0 688.5 565.5Q751.0 648.0 689.0 582.0Q627.0 516.0 618.5 513.0Q610.0 510.0 635.5 605.0Q661.0 700.0 625.5 608.0Q590.0 516.0 585.5 524.0Q581.0 532.0 569.5 622.0Q558.0 712.0 560.0 607.5Q562.0 503.0 551.0 522.5Q540.0 542.0 499.0 613.0Q458.0 684.0 501.0 584.0Q544.0 484.0 518.5 509.0Q493.0 534.0 435.5 577.0Q378.0 620.0 457.0 541.5Q536.0 463.0 492.0 484.0Q448.0 505.0 388.5 518.5Q329.0 532.0 433.0 488.5Q537.0 445.0 476.0 450.0Q415.0 455.0 367.0 445.0Q319.0 435.0 430.5 433.0Q542.0 431.0 472.5 411.0Q403.0 391.0 374.5 367.5Q346.0 344.0 448.0 383.0Q550.0 422.0 484.5 371.5Q419.0 321.0 411.5 297.5Q404.0 274.0 481.5 345.0Q559.0 416.0 511.0 337.5Q463.0 259.0 471.5 246.5Q480.0 234.0 524.0 323.0Q568.0 412.0 550.5 314.0Q533.0 216.0 547.5 221.5Q562.0 227.0 569.5 318.5Q577.0 410.0 598.0 306.0Q619.0 202.0 627.0 226.5Q635.0 251.0 611.0 330.0Q587.0 409.0 648.0 317.0Q709.0 225.0 699.0 261.5Q689.0 298.0 644.5 355.0Q600.0 412.0 692.5 347.0Q785.0 282.0 751.0 319.5Q717.0 357.0 665.0 388.5Q613.0 420.0 724.5 394.0Q836.0 368.0 778.0 392.5Q720.0 417.0 672.5 426.0Q625.0 435.0 737.5 452.5Q850.0 470.0 775.5 468.5Q701.0 467.0 666.0 462.0Q631.0 457.0 726.5 514.0Q822.0 571.0 745.0 536.5Q668.0 502.0 648.0 493.5Q628.0 485.0 692.5 570.0Q757.0 655.0 692.5 587.0Q628.0 519.0 620.0 516.0Q612.0 513.0 638.0 610.5Q664.0 708.0 627.5 613.5Q591.0 519.0 586.0 527.5Q581.0 536.0 569.0 628.5Q557.0 721.0 559.5 613.5Q562.0 506.0 550.5 526.0Q539.0 546.0 496.5 619.0Q454.0 692.0 498.5 589.0Q543.0 486.0 516.5 511.5Q490.0 537.0 430.5 581.5Q371.0 626.0 453.0 545.0Q535.0 464.0 489.5 485.5Q444.0 507.0 382.5 521.0Q321.0 535.0 428.0 490.0Q535.0 445.0 472.5 450.5Q410.0 456.0 360.5 445.5Q311.0 435.0 426.0 433.0Q541.0 431.0 469.5 410.0Q398.0 389.0 368.5 365.0Q339.0 341.0 444.5 381.0Q550.0 421.0 481.5 369.5Q413.0 318.0 405.5 293.5Q398.0 269.0 478.0 342.0Q558.0 415.0 508.5 334.0Q459.0 253.0 468.0 240.0Q477.0 227.0 522.0 319.0Q567.0 411.0 549.5 309.5Q532.0 208.0 546.5 214.0Q561.0 220.0 569.0 314.5Q577.0 409.0 599.0 302.0Q621.0 195.0 629.0 220.0Q637.0 245.0 612.5 326.5Q588.0 408.0 650.5 313.0Q713.0 218.0 702.5 255.5Q692.0 293.0 646.0 352.0Q600.0 411.0 696.0 344.0Q792.0 277.0 757.0 315.5Q722.0 354.0 668.0 386.5Q614.0 419.0 729.0 392.5Q844.0 366.0 784.5 391.0Q725.0 416.0 675.5 425.5Q626.0 435.0 742.0 453.0Q858.0 471.0 781.5 469.5Q705.0 468.0 669.0 463.0Q633.0 458.0 731.5 516.5Q830.0 575.0 750.5 539.5Q671.0 504.0 650.5 495.0Q630.0 486.0 696.5 574.0Q763.0 662.0 696.5 592.0Q630.0 522.0 621.5 518.5Q613.0 515.0 640.0 616.0Q667.0 717.0 629.0 619.0Q591.0 521.0 586.5 530.0Q582.0 539.0 569.0 634.5Q556.0 730.0 558.5 619.0Q561.0 508.0 549.5 528.5Q538.0 549.0 494.0 624.5Q450.0 700.0 496.0 593.5Q542.0 487.0 515.0 513.5Q488.0 540.0 426.5 586.0Q365.0 632.0 449.5 548.5Q534.0 465.0 487.0 487.0Q440.0 509.0 376.5 524.0Q313.0 539.0 423.5 492.0Q534.0 445.0 469.5 451.0Q405.0 457.0 353.5 446.0Q302.0 435.0 421.0 433.0Q540.0 431.0 466.0 409.5Q392.0 388.0 361.5 363.0Q331.0 338.0 440.0 379.5Q549.0 421.0 478.5 367.5Q408.0 314.0 400.5 289.0Q393.0 264.0 475.5 339.0Q558.0 414.0 507.0 330.5Q456.0 247.0 465.0 234.0Q474.0 221.0 520.5 315.5Q567.0 410.0 548.5 305.5Q530.0 201.0 545.5 207.5Q561.0 214.0 569.0 311.0Q577.0 408.0 599.5 297.5Q622.0 187.0 630.5 213.0Q639.0 239.0 678.0 225.0Q717.0 211.0 706.5 250.0Q696.0 289.0 648.5 349.5Q601.0 410.0 700.0 341.0Q799.0 272.0 762.5 312.0Q726.0 352.0 670.5 385.5Q615.0 419.0 734.0 391.5Q853.0 364.0 791.0 390.0Q729.0 416.0 678.5 425.5Q628.0 435.0 747.5 453.5Q867.0 472.0 788.0 470.5Q709.0 469.0 672.0 464.0Q635.0 459.0 736.5 519.5Q838.0 580.0 756.0 543.5Q674.0 507.0 652.5 497.5Q631.0 488.0 700.0 578.5Q769.0 669.0 700.5 596.5Q632.0 524.0 623.0 521.0Q614.0 518.0 642.0 622.0Q670.0 726.0 631.0 625.0Q592.0 524.0 587.0 533.0Q582.0 542.0 569.0 641.0Q556.0 740.0 558.5 625.0Q561.0 510.0 549.0 531.5Q537.0 553.0 491.5 631.0Q446.0 709.0 493.5 599.0Q541.0 489.0 513.0 516.5Q485.0 544.0 421.5 591.5Q358.0 639.0 445.0 552.5Q532.0 466.0 484.0 489.0Q436.0 512.0 370.5 527.0Q305.0 542.0 419.0 494.0Q533.0 446.0 466.5 451.5Q400.0 457.0 347.0 446.0Q294.0 435.0 416.5 432.5Q539.0 430.0 462.5 408.5Q386.0 387.0 355.0 361.0Q324.0 335.0 436.0 377.5Q548.0 420.0 475.5 365.0Q403.0 310.0 395.0 284.0Q387.0 258.0 472.0 336.0Q557.0 414.0 504.5 327.5Q452.0 241.0 461.5 227.5Q471.0 214.0 500.0 204.0Q529.0 194.0 545.0 200.5Q561.0 207.0 569.0 307.0Q577.0 407.0 600.5 293.5Q624.0 180.0 632.5 206.5Q641.0 233.0 614.5 320.0Q588.0 407.0 655.0 305.5Q722.0 204.0 711.0 244.0Q700.0 284.0 651.0 347.0Q602.0 410.0 704.0 338.5Q806.0 267.0 768.5 308.0Q731.0 349.0 674.0 384.0Q617.0 419.0 739.0 390.5Q861.0 362.0 797.5 388.5Q734.0 415.0 682.0 425.0Q630.0 435.0 753.0 454.0Q876.0 473.0 794.5 471.5Q713.0 470.0 675.0 464.5Q637.0 459.0 741.5 521.5Q846.0 584.0 761.5 546.5Q677.0 509.0 655.0 499.0Q633.0 489.0 704.0 583.0Q775.0 677.0 704.0 602.0Q633.0 527.0 624.0 523.5Q615.0 520.0 643.5 627.5Q672.0 735.0 632.0 631.0Q592.0 527.0 587.0 536.0Q582.0 545.0 568.5 647.0Q555.0 749.0 557.5 630.5Q560.0 512.0 548.0 534.0Q536.0 556.0 489.0 636.5Q442.0 717.0 491.0 604.0Q540.0 491.0 511.0 519.0Q482.0 547.0 417.0 596.0Q352.0 645.0 441.5 556.0Q531.0 467.0 481.5 490.5Q432.0 514.0 364.5 529.5Q297.0 545.0 414.5 495.5Q532.0 446.0 463.0 452.0Q394.0 458.0 339.5 446.5Q285.0 435.0 411.5 432.5Q538.0 430.0 459.5 407.5Q381.0 385.0 348.5 358.5Q316.0 332.0 431.5 376.0Q547.0 420.0 472.5 363.0Q398.0 306.0 389.5 279.5Q381.0 253.0 469.0 333.0Q557.0 413.0 503.0 324.5Q449.0 236.0 458.5 222.0Q468.0 208.0 517.5 308.5Q567.0 409.0 547.5 298.0Q528.0 187.0 544.0 193.5Q560.0 200.0 568.5 303.0Q577.0 406.0 601.0 289.0Q625.0 172.0 634.0 199.5Q643.0 227.0 616.0 316.5Q589.0 406.0 657.5 301.5Q726.0 197.0 714.5 238.5Q703.0 280.0 653.0 344.5Q603.0 409.0 708.0 335.5Q813.0 262.0 774.5 304.5Q736.0 347.0 677.0 382.5Q618.0 418.0 744.0 388.5Q870.0 359.0 804.5 386.5Q739.0 414.0 685.0 424.5Q631.0 435.0 758.0 454.5Q885.0 474.0 801.0 473.0Q717.0 472.0 677.5 466.0Q638.0 460.0 746.0 524.5Q854.0 589.0 767.0 550.0Q680.0 511.0 657.5 501.0Q635.0 491.0 708.0 587.5Q781.0 684.0 708.0 607.0Q635.0 530.0 625.5 526.5Q616.0 523.0 645.5 633.0Q675.0 743.0 634.0 636.0Q593.0 529.0 587.5 538.5Q582.0 548.0 568.5 653.0Q555.0 758.0 557.5 636.5Q560.0 515.0 547.0 537.5Q534.0 560.0 486.5 642.5Q439.0 725.0 489.0 608.5Q539.0 492.0 509.5 521.0Q480.0 550.0 412.5 600.5Q345.0 651.0 437.5 559.5Q530.0 468.0 478.5 492.0Q427.0 516.0 358.0 532.0Q289.0 548.0 409.5 497.0Q530.0 446.0 459.5 452.0Q389.0 458.0 333.0 446.5Q277.0 435.0 407.0 432.5Q537.0 430.0 456.0 407.0Q375.0 384.0 342.0 357.0Q309.0 330.0 427.5 374.5Q546.0 419.0 469.5 361.0Q393.0 303.0 384.5 275.5Q376.0 248.0 466.0 330.5Q556.0 413.0 500.5 321.5Q445.0 230.0 455.0 215.5Q465.0 201.0 515.5 304.5Q566.0 408.0 546.0 294.0Q526.0 180.0 543.0 186.5Q560.0 193.0 593.5 178.5Q627.0 164.0 636.0 192.5Q645.0 221.0 617.0 313.0Q589.0 405.0 659.5 297.5Q730.0 190.0 718.5 233.0Q707.0 276.0 655.5 342.0Q604.0 408.0 712.0 332.5Q820.0 257.0 780.0 300.5Q740.0 344.0 679.5 381.0Q619.0 418.0 748.5 387.5Q878.0 357.0 810.5 385.5Q743.0 414.0 688.0 424.5Q633.0 435.0 763.5 455.0Q894.0 475.0 807.5 474.0Q721.0 473.0 680.5 467.0Q640.0 461.0 751.0 527.0Q862.0 593.0 772.0 553.0Q682.0 513.0 659.0 503.0Q636.0 493.0 711.0 592.0Q786.0 691.0 711.5 611.5Q637.0 532.0 627.5 528.5Q618.0 525.0 648.0 638.5Q678.0 752.0 636.0 642.0Q594.0 532.0 588.0 542.0Q582.0 552.0 568.0 659.5Q554.0 767.0 556.5 642.0Q559.0 517.0 546.0 540.0Q533.0 563.0 484.0 648.0Q435.0 733.0 486.5 613.5Q538.0 494.0 507.5 523.5Q477.0 553.0 408.0 605.0Q339.0 657.0 433.5 563.0Q528.0 469.0 475.5 493.5Q423.0 518.0 352.0 534.5Q281.0 551.0 405.0 499.0Q529.0 447.0 456.5 453.0Q384.0 459.0 326.5 447.0Q269.0 435.0 402.5 432.5Q536.0 430.0 452.5 406.0Q369.0 382.0 335.0 354.5Q301.0 327.0 344.5 313.0Q388.0 299.0 379.0 271.0Q370.0 243.0 463.0 327.5Q556.0 412.0 498.5 318.0Q441.0 224.0 451.5 209.5Q462.0 195.0 514.0 301.0Q566.0 407.0 545.5 290.0Q525.0 173.0 542.0 180.0Q559.0 187.0 568.0 296.0Q577.0 405.0 602.5 281.0Q628.0 157.0 637.0 186.0Q646.0 215.0 618.0 309.5Q590.0 404.0 662.5 294.0Q735.0 184.0 723.0 227.5Q711.0 271.0 657.5 339.0Q604.0 407.0 715.0 329.5Q826.0 252.0 785.5 297.0Q745.0 342.0 682.5 379.5Q620.0 417.0 753.0 386.0Q886.0 355.0 817.0 384.0Q748.0 413.0 691.0 424.0Q634.0 435.0 768.5 455.5Q903.0 476.0 814.0 475.0Q725.0 474.0 683.5 468.0Q642.0 462.0 756.0 529.5Q870.0 597.0 777.5 556.0Q685.0 515.0 661.5 504.5Q638.0 494.0 715.0 596.0Q792.0 698.0 715.5 616.5Q639.0 535.0 629.0 531.5Q619.0 528.0 650.0 644.5Q681.0 761.0 637.5 648.0Q594.0 535.0 588.5 545.0Q583.0 555.0 568.5 665.5Q554.0 776.0 556.5 647.5Q559.0 519.0 545.5 543.0Q532.0 567.0 481.5 654.0Q431.0 741.0 484.0 618.0Q537.0 495.0 505.5 526.0Q474.0 557.0 403.0 610.0Q332.0 663.0 429.5 566.5Q527.0 470.0 473.0 495.5Q419.0 521.0 346.0 538.0Q273.0 555.0 400.5 501.0Q528.0 447.0 453.5 453.5Q379.0 460.0 319.5 447.5Q260.0 435.0 397.5 432.5Q535.0 430.0 449.5 405.5Q364.0 381.0 329.0 352.5Q294.0 324.0 419.5 371.0Q545.0 418.0 464.0 356.5Q383.0 295.0 374.0 266.0Q365.0 237.0 460.0 324.0Q555.0 411.0 496.5 314.5Q438.0 218.0 448.5 203.0Q459.0 188.0 491.5 177.0Q524.0 166.0 541.5 173.0Q559.0 180.0 568.0 292.0Q577.0 404.0 603.5 276.5Q630.0 149.0 639.0 179.0Q648.0 209.0 619.0 306.0Q590.0 403.0 664.5 290.0Q739.0 177.0 726.5 222.0Q714.0 267.0 659.5 337.0Q605.0 407.0 719.0 327.0Q833.0 247.0 791.0 293.0Q749.0 339.0 685.5 378.0Q622.0 417.0 758.5 385.0Q895.0 353.0 824.0 383.0Q753.0 413.0 694.5 424.0Q636.0 435.0 774.0 456.5Q912.0 478.0 820.5 476.5Q729.0 475.0 686.5 468.5Q644.0 462.0 761.0 532.0Q878.0 602.0 783.0 559.5Q688.0 517.0 664.0 506.5Q640.0 496.0 719.0 600.5Q798.0 705.0 719.0 621.5Q640.0 538.0 630.0 534.0Q620.0 530.0 652.0 650.0Q684.0 770.0 639.5 653.5Q595.0 537.0 589.0 547.5Q583.0 558.0 568.0 671.5Q553.0 785.0 555.5 653.5Q558.0 522.0 544.5 546.0Q531.0 570.0 479.0 660.0Q427.0 750.0 481.5 623.5Q536.0 497.0 504.0 528.5Q472.0 560.0 399.0 614.5Q326.0 669.0 426.0 570.0Q526.0 471.0 470.5 497.0Q415.0 523.0 340.0 540.5Q265.0 558.0 396.0 502.5Q527.0 447.0 450.0 453.5Q373.0 460.0 312.5 447.5Q252.0 435.0 393.0 432.5Q534.0 430.0 446.0 404.5Q358.0 379.0 322.0 350.0Q286.0 321.0 415.0 369.5Q544.0 418.0 461.0 355.0Q378.0 292.0 368.5 262.0Q359.0 232.0 396.5 222.5Q434.0 213.0 445.0 197.5Q456.0 182.0 511.0 294.0Q566.0 406.0 544.0 282.0Q522.0 158.0 540.5 165.5Q559.0 173.0 568.0 288.0Q577.0 403.0 604.0 272.5Q631.0 142.0 640.5 172.5Q650.0 203.0 620.0 302.5Q590.0 402.0 666.5 286.0Q743.0 170.0 730.5 216.0Q718.0 262.0 662.0 334.0Q606.0 406.0 723.0 324.5Q840.0 243.0 797.0 290.0Q754.0 337.0 688.5 376.5Q623.0 416.0 763.0 383.5Q903.0 351.0 830.0 381.5Q757.0 412.0 697.5 423.5Q638.0 435.0 779.0 457.0Q920.0 479.0 827.0 477.5Q734.0 476.0 690.0 469.5Q646.0 463.0 766.0 534.5Q886.0 606.0 788.5 563.0Q691.0 520.0 666.0 508.5Q641.0 497.0 722.5 604.5Q804.0 712.0 723.0 626.0Q642.0 540.0 631.5 536.5Q621.0 533.0 654.0 655.5Q687.0 778.0 641.0 659.0Q595.0 540.0 589.0 550.5Q583.0 561.0 567.5 678.0Q552.0 795.0 555.0 659.5Q558.0 524.0 544.0 549.0Q530.0 574.0 476.5 666.0Q423.0 758.0 479.0 628.5Q535.0 499.0 502.0 531.0Q469.0 563.0 394.0 619.0Q319.0 675.0 422.0 573.5Q525.0 472.0 468.0 498.5Q411.0 525.0 334.0 543.0Q257.0 561.0 391.0 504.5Q525.0 448.0 446.5 454.5Q368.0 461.0 305.5 448.0Q243.0 435.0 388.0 432.5Q533.0 430.0 443.0 404.0Q353.0 378.0 316.0 348.0Q279.0 318.0 411.0 368.0Q543.0 418.0 458.0 353.0Q373.0 288.0 363.0 257.5Q353.0 227.0 453.5 318.5Q554.0 410.0 492.0 308.5Q430.0 207.0 441.5 191.0Q453.0 175.0 509.0 290.0Q565.0 405.0 543.0 278.0Q521.0 151.0 539.5 158.5Q558.0 166.0 567.5 284.0Q577.0 402.0 604.5 268.0Q632.0 134.0 642.0 165.5Q652.0 197.0 621.5 299.5Q591.0 402.0 669.5 282.5Q748.0 163.0 735.0 210.5Q722.0 258.0 664.5 331.5Q607.0 405.0 727.0 321.5Q847.0 238.0 802.5 286.0Q758.0 334.0 691.0 375.0Q624.0 416.0 768.0 382.5Q912.0 349.0 837.0 380.0Q762.0 411.0 700.5 423.0Q639.0 435.0 784.0 457.5Q929.0 480.0 833.5 478.5Q738.0 477.0 692.5 470.5Q647.0 464.0 770.5 537.0Q894.0 610.0 794.0 566.0Q694.0 522.0 668.5 510.5Q643.0 499.0 726.5 609.0Q810.0 719.0 727.0 631.0Q644.0 543.0 633.0 539.0Q622.0 535.0 655.5 661.0Q689.0 787.0 642.5 665.0Q596.0 543.0 589.5 553.5Q583.0 564.0 567.5 684.0Q552.0 804.0 555.0 665.0Q558.0 526.0 543.5 551.5Q529.0 577.0 474.0 671.5Q419.0 766.0 476.5 633.0Q534.0 500.0 500.0 533.5Q466.0 567.0 389.5 624.0Q313.0 681.0 418.0 577.0Q523.0 473.0 465.0 500.5Q407.0 528.0 328.0 546.0Q249.0 564.0 386.5 506.0Q524.0 448.0 443.5 455.0Q363.0 462.0 299.0 448.5Q235.0 435.0 383.5 432.5Q532.0 430.0 439.5 403.0Q347.0 376.0 309.0 345.5Q271.0 315.0 406.5 366.0Q542.0 417.0 454.5 350.5Q367.0 284.0 357.5 253.0Q348.0 222.0 451.0 315.5Q554.0 409.0 490.5 305.0Q427.0 201.0 438.5 184.5Q450.0 168.0 507.5 286.0Q565.0 404.0 542.5 274.0Q520.0 144.0 539.0 151.5Q558.0 159.0 567.5 280.0Q577.0 401.0 605.5 264.0Q634.0 127.0 644.0 159.0Q654.0 191.0 622.5 296.0Q591.0 401.0 671.5 278.5Q752.0 156.0 738.5 204.5Q725.0 253.0 666.5 328.5Q608.0 404.0 731.0 318.5Q854.0 233.0 808.5 282.5Q763.0 332.0 694.0 373.5Q625.0 415.0 772.5 380.5Q920.0 346.0 843.5 378.5Q767.0 411.0 704.0 423.0Q641.0 435.0 789.5 458.0Q938.0 481.0 840.0 479.5Q742.0 478.0 695.5 471.0Q649.0 464.0 775.5 539.5Q902.0 615.0 799.5 569.5Q697.0 524.0 671.0 512.5Q645.0 501.0 730.5 613.5Q816.0 726.0 730.5 636.0Q645.0 546.0 634.0 542.0Q623.0 538.0 657.5 667.0Q692.0 796.0 644.0 670.5Q596.0 545.0 589.5 556.5Q583.0 568.0 567.0 690.5Q551.0 813.0 554.0 670.5Q557.0 528.0 542.5 554.5Q528.0 581.0 471.5 677.5Q415.0 774.0 474.0 638.0Q533.0 502.0 498.0 536.0Q463.0 570.0 384.5 628.5Q306.0 687.0 414.0 580.0Q522.0 473.0 462.0 501.5Q402.0 530.0 321.5 548.5Q241.0 567.0 382.0 507.5Q523.0 448.0 440.5 455.0Q358.0 462.0 292.5 448.5Q227.0 435.0 379.0 432.0Q531.0 429.0 436.0 402.0Q341.0 375.0 302.5 343.5Q264.0 312.0 313.0 296.0Q362.0 280.0 352.0 248.0Q342.0 216.0 447.5 312.5Q553.0 409.0 488.0 302.0Q423.0 195.0 435.0 178.5Q447.0 162.0 482.5 149.5Q518.0 137.0 537.5 145.0Q557.0 153.0 596.0 136.0Q635.0 119.0 645.5 152.0Q656.0 185.0 623.5 292.5Q591.0 400.0 673.5 274.5Q756.0 149.0 742.5 199.0Q729.0 249.0 794.5 238.5Q860.0 228.0 814.0 278.5Q768.0 329.0 697.0 372.0Q626.0 415.0 777.5 379.5Q929.0 344.0 850.0 377.0Q771.0 410.0 706.5 422.5Q642.0 435.0 794.5 458.5Q947.0 482.0 846.5 480.5Q746.0 479.0 698.5 472.0Q651.0 465.0 780.5 542.0Q910.0 619.0 805.0 572.5Q700.0 526.0 673.5 514.0Q647.0 502.0 734.5 617.5Q822.0 733.0 734.5 641.0Q647.0 549.0 636.0 544.5Q625.0 540.0 660.0 672.5Q695.0 805.0 646.0 676.5Q597.0 548.0 590.5 559.5"/>
  </g>
</svg>
