<svg version="1.1" width="1150" height="870" xmlns="http://www.w3.org/2000/svg">
  <!-- Seed: 3896243509524526318 -->
  <!-- Size: SvgSize.Size9x12 -->
  <!-- Params:
    draw: True
    padding: 0
    spacing: 5
    points_per_step_ring: 50
    bump_range: [RangeFloat] min: 0 max: 0.1
    bump_mult: [RangeInt] min: 2 max: 20
  -->
  <g stroke="black" fill="none">
    <path d="M575.5 435.5Q576.0 436.0 575.5 436.0Q575.0 436.0 575.0 436.5Q575.0 437.0 574.5 437.0Q574.0 437.0 574.0 436.5Q574.0 436.0 573.5 436.5Q573.0 437.0 572.5 436.5Q572.0 436.0 572.5 436.0Q573.0 436.0 573.0 435.5Q573.0 435.0 572.5 435.0Q572.0 435.0 572.0 434.5Q572.0 434.0 572.5 434.0Q573.0 434.0 572.5 433.5Q572.0 433.0 572.5 433.0Q573.0 433.0 573.0 432.0Q573.0 431.0 573.5 432.0Q574.0 433.0 574.0 432.0Q574.0 431.0 574.5 432.0Q575.0 433.0 575.0 431.5Q575.0 430.0 575.5 431.0Q576.0 432.0 576.5 431.0Q577.0 430.0 576.5 431.5Q576.0 433.0 577.0 432.0Q578.0 431.0 578.0 431.5Q578.0 432.0 578.0 432.5Q578.0 433.0 579.5 432.5Q581.0 432.0 579.5 433.0Q578.0 434.0 579.0 434.0Q580.0 434.0 580.5 434.0Q581.0 434.0 579.5 434.5Q578.0 435.0 580.0 435.5Q582.0 436.0 581.0 436.0Q580.0 436.0 579.5 436.5Q579.0 437.0 580.5 438.0Q582.0 439.0 580.0 438.0Q578.0 437.0 579.0 438.0Q580.0 439.0 579.5 439.5Q579.0 440.0 578.0 439.0Q577.0 438.0 577.5 440.0Q578.0 442.0 577.5 441.0Q577.0 440.0 576.5 440.0Q576.0 440.0 576.0 441.5Q576.0 443.0 575.5 441.0Q575.0 439.0 574.5 441.0Q574.0 443.0 573.5 442.5Q573.0 442.0 573.0 440.5Q573.0 439.0 571.5 441.0Q570.0 443.0 571.0 441.0Q572.0 439.0 571.0 439.5Q570.0 440.0 569.0 440.0Q568.0 440.0 569.5 438.5Q571.0 437.0 568.5 437.5Q566.0 438.0 567.0 437.5Q568.0 437.0 569.0 436.5Q570.0 436.0 567.5 435.5Q565.0 435.0 567.5 434.5Q570.0 434.0 568.5 433.5Q567.0 433.0 566.5 432.0Q566.0 431.0 568.5 432.0Q571.0 433.0 568.5 431.0Q566.0 429.0 568.0 429.5Q570.0 430.0 570.5 430.0Q571.0 430.0 570.0 427.5Q569.0 425.0 571.0 427.5Q573.0 430.0 572.5 428.0Q572.0 426.0 572.5 425.5Q573.0 425.0 574.0 427.0Q575.0 429.0 575.5 426.0Q576.0 423.0 576.0 425.5Q576.0 428.0 577.0 427.5Q578.0 427.0 579.0 425.5Q580.0 424.0 579.0 427.0Q578.0 430.0 580.0 428.0Q582.0 426.0 582.0 427.0Q582.0 428.0 581.0 429.5Q580.0 431.0 583.5 430.0Q587.0 429.0 586.0 431.0Q585.0 433.0 586.0 433.0Q587.0 433.0 584.0 434.0Q581.0 435.0 584.5 436.0Q588.0 437.0 586.0 437.0Q584.0 437.0 583.0 437.5Q582.0 438.0 585.0 440.0Q588.0 442.0 584.5 440.5Q581.0 439.0 582.5 441.0Q584.0 443.0 583.5 444.0Q583.0 445.0 581.0 443.0Q579.0 441.0 580.0 444.5Q581.0 448.0 579.5 446.0Q578.0 444.0 577.5 444.0Q577.0 444.0 576.5 447.0Q576.0 450.0 575.5 446.0Q575.0 442.0 573.5 445.0Q572.0 448.0 571.5 447.5Q571.0 447.0 571.5 444.5Q572.0 442.0 569.0 445.5Q566.0 449.0 567.5 445.5Q569.0 442.0 568.0 442.5Q567.0 443.0 564.5 443.5Q562.0 444.0 565.5 441.0Q569.0 438.0 564.5 439.5Q560.0 441.0 561.5 439.5Q563.0 438.0 564.5 437.0Q566.0 436.0 562.0 435.5Q558.0 435.0 562.0 434.5Q566.0 434.0 564.0 433.0Q562.0 432.0 561.0 430.5Q560.0 429.0 564.0 430.0Q568.0 431.0 564.5 428.0Q561.0 425.0 563.5 426.0Q566.0 427.0 567.0 427.0Q568.0 427.0 566.5 423.5Q565.0 420.0 568.0 423.5Q571.0 427.0 570.5 423.5Q570.0 420.0 571.0 420.0Q572.0 420.0 573.0 423.0Q574.0 426.0 575.0 421.0Q576.0 416.0 576.5 420.0Q577.0 424.0 578.0 423.5Q579.0 423.0 581.0 420.5Q583.0 418.0 581.5 423.0Q580.0 428.0 583.0 424.5Q586.0 421.0 586.0 423.0Q586.0 425.0 584.5 427.0Q583.0 429.0 588.0 427.0Q593.0 425.0 589.0 428.0Q585.0 431.0 587.0 431.0Q589.0 431.0 591.5 432.0Q594.0 433.0 589.0 434.0Q584.0 435.0 589.5 436.0Q595.0 437.0 592.0 438.0Q589.0 439.0 587.5 439.0Q586.0 439.0 590.0 442.0Q594.0 445.0 588.5 443.0Q583.0 441.0 585.5 444.0Q588.0 447.0 587.5 448.0Q587.0 449.0 583.5 446.0Q580.0 443.0 582.0 449.0Q584.0 455.0 581.5 451.5Q579.0 448.0 578.5 448.5Q578.0 449.0 577.0 453.0Q576.0 457.0 575.0 451.0Q574.0 445.0 572.5 449.5Q571.0 454.0 570.0 453.0Q569.0 452.0 569.5 448.5Q570.0 445.0 566.5 450.0Q563.0 455.0 565.0 450.0Q567.0 445.0 565.0 445.5Q563.0 446.0 560.0 447.0Q557.0 448.0 561.5 444.0Q566.0 440.0 560.5 441.5Q555.0 443.0 556.5 441.0Q558.0 439.0 560.0 438.0Q562.0 437.0 556.5 436.0Q551.0 435.0 557.0 434.0Q563.0 433.0 560.0 431.5Q557.0 430.0 556.0 428.5Q555.0 427.0 560.0 428.5Q565.0 430.0 560.0 425.5Q555.0 421.0 559.0 422.5Q563.0 424.0 564.5 424.0Q566.0 424.0 563.5 419.0Q561.0 414.0 565.5 419.0Q570.0 424.0 569.0 419.5Q568.0 415.0 569.5 414.5Q571.0 414.0 572.5 418.5Q574.0 423.0 575.5 416.0Q577.0 409.0 577.5 414.5Q578.0 420.0 579.0 419.5Q580.0 419.0 583.0 415.5Q586.0 412.0 583.5 418.5Q581.0 425.0 585.5 421.0Q590.0 417.0 590.0 419.0Q590.0 421.0 588.0 424.0Q586.0 427.0 592.5 424.5Q599.0 422.0 593.5 426.0Q588.0 430.0 591.0 430.0Q594.0 430.0 597.0 431.0Q600.0 432.0 593.5 433.5Q587.0 435.0 594.0 436.5Q601.0 438.0 597.0 439.0Q593.0 440.0 591.5 440.5Q590.0 441.0 595.0 445.0Q600.0 449.0 593.0 446.0Q586.0 443.0 589.0 447.0Q592.0 451.0 591.5 452.5Q591.0 454.0 586.5 450.0Q582.0 446.0 584.5 453.5Q587.0 461.0 583.5 456.5Q580.0 452.0 579.0 452.5Q578.0 453.0 577.5 458.5Q577.0 464.0 575.5 456.0Q574.0 448.0 572.0 454.0Q570.0 460.0 569.0 458.5Q568.0 457.0 568.5 452.5Q569.0 448.0 564.0 454.5Q559.0 461.0 561.5 454.5Q564.0 448.0 562.0 448.5Q560.0 449.0 556.0 450.5Q552.0 452.0 557.5 446.5Q563.0 441.0 556.0 443.0Q549.0 445.0 551.5 442.5Q554.0 440.0 556.5 438.5Q559.0 437.0 551.5 436.0Q544.0 435.0 552.0 434.0Q560.0 433.0 556.0 431.0Q552.0 429.0 550.5 427.0Q549.0 425.0 556.0 426.5Q563.0 428.0 556.5 422.5Q550.0 417.0 555.0 419.0Q560.0 421.0 561.5 420.5Q563.0 420.0 560.5 414.0Q558.0 408.0 563.5 415.0Q569.0 422.0 568.0 415.5Q567.0 409.0 568.5 409.0Q570.0 409.0 572.0 414.5Q574.0 420.0 575.5 411.0Q577.0 402.0 578.0 409.0Q579.0 416.0 580.5 415.0Q582.0 414.0 585.5 410.0Q589.0 406.0 586.0 414.5Q583.0 423.0 588.5 417.5Q594.0 412.0 594.0 415.0Q594.0 418.0 591.5 421.5Q589.0 425.0 597.0 421.5Q605.0 418.0 598.5 423.0Q592.0 428.0 595.5 428.5Q599.0 429.0 602.5 430.0Q606.0 431.0 598.0 433.0Q590.0 435.0 599.0 437.0Q608.0 439.0 603.0 440.0Q598.0 441.0 595.5 441.5Q593.0 442.0 599.5 447.0Q606.0 452.0 597.5 448.5Q589.0 445.0 592.5 449.5Q596.0 454.0 595.0 456.0Q594.0 458.0 589.0 453.5Q584.0 449.0 587.0 458.0Q590.0 467.0 586.0 461.5Q582.0 456.0 580.5 456.5Q579.0 457.0 578.0 464.0Q577.0 471.0 575.5 461.0Q574.0 451.0 571.5 458.5Q569.0 466.0 567.5 464.0Q566.0 462.0 566.5 456.5Q567.0 451.0 561.0 458.5Q555.0 466.0 558.5 458.5Q562.0 451.0 559.0 452.0Q556.0 453.0 551.5 454.5Q547.0 456.0 554.0 449.5Q561.0 443.0 552.0 445.5Q543.0 448.0 546.0 445.0Q549.0 442.0 552.0 440.0Q555.0 438.0 546.0 436.5Q537.0 435.0 546.5 434.0Q556.0 433.0 551.5 430.5Q547.0 428.0 545.0 425.0Q543.0 422.0 551.5 424.5Q560.0 427.0 552.5 420.0Q545.0 413.0 551.0 415.5Q557.0 418.0 558.5 417.5Q560.0 417.0 557.0 409.5Q554.0 402.0 560.5 410.5Q567.0 419.0 566.0 411.5Q565.0 404.0 567.0 403.5Q569.0 403.0 571.5 410.0Q574.0 417.0 576.0 406.0Q578.0 395.0 578.5 403.5Q579.0 412.0 581.0 411.0Q583.0 410.0 587.5 405.0Q592.0 400.0 588.0 410.0Q584.0 420.0 591.0 413.5Q598.0 407.0 597.5 410.5Q597.0 414.0 594.5 418.5Q592.0 423.0 601.5 419.0Q611.0 415.0 603.0 421.0Q595.0 427.0 599.5 427.5Q604.0 428.0 608.5 429.0Q613.0 430.0 603.0 432.5Q593.0 435.0 603.5 437.5Q614.0 440.0 608.5 441.0Q603.0 442.0 600.0 443.0Q597.0 444.0 604.5 449.5Q612.0 455.0 601.5 451.0Q591.0 447.0 595.5 452.5Q600.0 458.0 599.0 460.5Q598.0 463.0 591.5 457.0Q585.0 451.0 589.0 462.0Q593.0 473.0 588.0 466.5Q583.0 460.0 581.5 460.5Q580.0 461.0 579.0 469.0Q578.0 477.0 576.0 465.5Q574.0 454.0 571.0 463.0Q568.0 472.0 566.0 470.0Q564.0 468.0 565.0 461.0Q566.0 454.0 558.5 463.0Q551.0 472.0 555.5 463.0Q560.0 454.0 556.5 455.0Q553.0 456.0 547.0 458.0Q541.0 460.0 549.5 452.0Q558.0 444.0 547.5 447.0Q537.0 450.0 540.5 446.5Q544.0 443.0 547.5 440.5Q551.0 438.0 540.5 436.5Q530.0 435.0 541.5 433.5Q553.0 432.0 547.0 429.0Q541.0 426.0 539.5 423.0Q538.0 420.0 547.5 422.5Q557.0 425.0 548.0 417.0Q539.0 409.0 546.0 412.0Q553.0 415.0 555.5 414.5Q558.0 414.0 554.0 405.0Q550.0 396.0 558.0 406.0Q566.0 416.0 564.5 407.0Q563.0 398.0 565.5 397.5Q568.0 397.0 571.0 405.0Q574.0 413.0 576.0 400.5Q578.0 388.0 579.0 398.0Q580.0 408.0 582.5 407.0Q585.0 406.0 589.5 400.0Q594.0 394.0 590.0 406.0Q586.0 418.0 594.0 410.0Q602.0 402.0 601.5 406.0Q601.0 410.0 597.5 415.5Q594.0 421.0 605.5 416.5Q617.0 412.0 607.5 419.0Q598.0 426.0 603.5 426.0Q609.0 426.0 614.0 427.5Q619.0 429.0 607.5 432.0Q596.0 435.0 608.5 438.0Q621.0 441.0 614.0 442.0Q607.0 443.0 603.5 444.0Q600.0 445.0 609.0 452.0Q618.0 459.0 606.0 454.0Q594.0 449.0 599.0 455.5Q604.0 462.0 603.0 465.0Q602.0 468.0 594.5 461.0Q587.0 454.0 591.5 466.5Q596.0 479.0 590.0 471.5Q584.0 464.0 582.5 465.0Q581.0 466.0 579.5 475.0Q578.0 484.0 576.0 470.5Q574.0 457.0 570.5 467.5Q567.0 478.0 565.0 475.5Q563.0 473.0 564.0 465.0Q565.0 457.0 556.5 467.5Q548.0 478.0 552.5 467.0Q557.0 456.0 553.0 457.5Q549.0 459.0 542.5 461.0Q536.0 463.0 546.0 454.5Q556.0 446.0 543.5 449.5Q531.0 453.0 535.0 448.5Q539.0 444.0 543.5 441.0Q548.0 438.0 535.5 436.5Q523.0 435.0 536.0 433.5Q549.0 432.0 542.5 428.5Q536.0 425.0 534.0 421.5Q532.0 418.0 543.5 421.0Q555.0 424.0 544.5 414.5Q534.0 405.0 542.0 408.5Q550.0 412.0 552.5 411.5Q555.0 411.0 551.0 400.5Q547.0 390.0 556.0 401.5Q565.0 413.0 563.0 403.0Q561.0 393.0 564.0 392.5Q567.0 392.0 570.0 401.0Q573.0 410.0 575.5 395.5Q578.0 381.0 579.5 392.5Q581.0 404.0 583.5 402.5Q586.0 401.0 591.5 394.5Q597.0 388.0 592.5 401.5Q588.0 415.0 597.0 406.0Q606.0 397.0 605.5 402.0Q605.0 407.0 601.0 413.0Q597.0 419.0 610.5 413.5Q624.0 408.0 613.0 416.0Q602.0 424.0 608.0 424.5Q614.0 425.0 619.5 427.0Q625.0 429.0 612.0 432.0Q599.0 435.0 613.0 438.5Q627.0 442.0 619.5 443.0Q612.0 444.0 608.0 445.0Q604.0 446.0 614.0 454.0Q624.0 462.0 610.5 456.5Q597.0 451.0 602.5 458.5Q608.0 466.0 607.0 469.0Q606.0 472.0 597.5 464.0Q589.0 456.0 594.0 471.0Q599.0 486.0 592.5 477.0Q586.0 468.0 584.0 469.0Q582.0 470.0 580.5 480.5Q579.0 491.0 576.0 475.5Q573.0 460.0 569.5 472.0Q566.0 484.0 563.5 481.0Q561.0 478.0 562.0 469.0Q563.0 460.0 553.5 472.0Q544.0 484.0 549.5 471.5Q555.0 459.0 550.5 461.0Q546.0 463.0 538.5 465.0Q531.0 467.0 542.0 457.0Q553.0 447.0 539.0 451.0Q525.0 455.0 529.5 450.0Q534.0 445.0 539.0 442.0Q544.0 439.0 530.0 437.0Q516.0 435.0 531.0 433.0Q546.0 431.0 538.5 427.5Q531.0 424.0 528.5 420.0Q526.0 416.0 539.0 419.0Q552.0 422.0 540.0 411.5Q528.0 401.0 537.5 405.0Q547.0 409.0 550.0 408.5Q553.0 408.0 548.0 396.5Q543.0 385.0 553.0 397.5Q563.0 410.0 561.0 398.5Q559.0 387.0 562.5 386.5Q566.0 386.0 569.5 396.5Q573.0 407.0 576.0 390.5Q579.0 374.0 580.5 387.5Q582.0 401.0 584.5 399.0Q587.0 397.0 593.5 389.5Q600.0 382.0 594.5 397.0Q589.0 412.0 599.5 402.5Q610.0 393.0 609.5 398.0Q609.0 403.0 604.5 410.0Q600.0 417.0 615.0 411.0Q630.0 405.0 617.5 414.0Q605.0 423.0 612.0 423.5Q619.0 424.0 625.0 426.0Q631.0 428.0 616.5 431.5Q602.0 435.0 618.0 438.5Q634.0 442.0 625.0 444.0Q616.0 446.0 612.0 447.0Q608.0 448.0 619.0 456.5Q630.0 465.0 614.5 459.0Q599.0 453.0 605.5 461.5Q612.0 470.0 611.0 473.5Q610.0 477.0 600.0 468.0Q590.0 459.0 596.0 475.5Q602.0 492.0 594.5 482.0Q587.0 472.0 584.5 473.0Q582.0 474.0 580.5 486.0Q579.0 498.0 576.0 480.5Q573.0 463.0 569.0 476.5Q565.0 490.0 562.0 486.5Q559.0 483.0 560.5 473.0Q562.0 463.0 551.0 476.5Q540.0 490.0 546.0 476.0Q552.0 462.0 547.0 464.0Q542.0 466.0 533.5 468.5Q525.0 471.0 537.5 460.0Q550.0 449.0 534.5 453.0Q519.0 457.0 524.5 452.0Q530.0 447.0 535.5 443.0Q541.0 439.0 525.0 437.0Q509.0 435.0 526.0 433.0Q543.0 431.0 534.5 426.5Q526.0 422.0 523.0 417.5Q520.0 413.0 534.5 417.0Q549.0 421.0 536.0 409.0Q523.0 397.0 533.5 401.5Q544.0 406.0 547.0 405.5Q550.0 405.0 544.5 392.0Q539.0 379.0 550.5 393.0Q562.0 407.0 560.0 394.5Q558.0 382.0 561.5 381.5Q565.0 381.0 569.0 392.5Q573.0 404.0 576.0 386.0Q579.0 368.0 580.5 382.5Q582.0 397.0 585.5 395.0Q589.0 393.0 596.0 384.5Q603.0 376.0 597.0 393.0Q591.0 410.0 602.5 399.0Q614.0 388.0 613.0 394.0Q612.0 400.0 607.5 407.5Q603.0 415.0 619.5 408.5Q636.0 402.0 622.0 412.0Q608.0 422.0 616.0 422.0Q624.0 422.0 631.0 424.5Q638.0 427.0 621.5 431.0Q605.0 435.0 622.5 439.0Q640.0 443.0 630.5 445.0Q621.0 447.0 616.0 448.0Q611.0 449.0 623.5 459.0Q636.0 469.0 619.0 461.5Q602.0 454.0 609.0 463.5Q616.0 473.0 614.5 477.0Q613.0 481.0 602.5 471.5Q592.0 462.0 598.5 480.0Q605.0 498.0 596.5 487.0Q588.0 476.0 585.5 477.0Q583.0 478.0 581.0 491.0Q579.0 504.0 576.0 485.5Q573.0 467.0 568.0 481.5Q563.0 496.0 560.5 492.0Q558.0 488.0 559.0 477.0Q560.0 466.0 548.0 481.0Q536.0 496.0 543.0 480.5Q550.0 465.0 544.5 467.0Q539.0 469.0 529.5 472.0Q520.0 475.0 534.0 462.5Q548.0 450.0 530.5 455.0Q513.0 460.0 519.0 454.0Q525.0 448.0 531.0 444.0Q537.0 440.0 519.5 437.5Q502.0 435.0 520.5 432.5Q539.0 430.0 530.0 425.5Q521.0 421.0 518.0 416.0Q515.0 411.0 531.0 415.5Q547.0 420.0 532.0 406.5Q517.0 393.0 529.0 398.0Q541.0 403.0 544.0 402.5Q547.0 402.0 541.5 387.5Q536.0 373.0 548.5 388.5Q561.0 404.0 558.5 390.0Q556.0 376.0 560.0 375.5Q564.0 375.0 568.5 388.0Q573.0 401.0 576.5 381.0Q580.0 361.0 581.5 377.0Q583.0 393.0 586.5 390.5Q590.0 388.0 598.0 379.0Q606.0 370.0 599.5 388.5Q593.0 407.0 605.5 395.0Q618.0 383.0 617.0 389.5Q616.0 396.0 611.0 404.5Q606.0 413.0 624.0 405.5Q642.0 398.0 627.0 409.5Q612.0 421.0 620.5 421.0Q629.0 421.0 636.5 423.5Q644.0 426.0 626.0 430.5Q608.0 435.0 627.5 439.5Q647.0 444.0 636.0 446.0Q625.0 448.0 620.0 449.5Q615.0 451.0 629.0 461.5Q643.0 472.0 623.5 464.0Q604.0 456.0 612.0 466.5Q620.0 477.0 618.5 481.5Q617.0 486.0 605.5 475.0Q594.0 464.0 601.0 484.0Q608.0 504.0 599.0 492.0Q590.0 480.0 587.0 481.0Q584.0 482.0 582.0 496.5Q580.0 511.0 576.5 490.5Q573.0 470.0 567.5 486.0Q562.0 502.0 559.0 498.0Q556.0 494.0 557.5 481.5Q559.0 469.0 546.0 485.5Q533.0 502.0 540.5 485.0Q548.0 468.0 541.5 470.0Q535.0 472.0 525.0 475.5Q515.0 479.0 530.0 465.0Q545.0 451.0 526.0 456.5Q507.0 462.0 513.5 455.5Q520.0 449.0 526.5 444.5Q533.0 440.0 514.0 437.5Q495.0 435.0 515.5 432.5Q536.0 430.0 526.0 425.0Q516.0 420.0 512.5 414.5Q509.0 409.0 526.5 413.5Q544.0 418.0 528.0 403.5Q512.0 389.0 524.5 394.5Q537.0 400.0 541.0 399.0Q545.0 398.0 538.5 382.5Q532.0 367.0 545.5 384.5Q559.0 402.0 556.5 386.5Q554.0 371.0 558.0 370.0Q562.0 369.0 567.5 383.0Q573.0 397.0 576.5 375.5Q580.0 354.0 582.0 371.5Q584.0 389.0 588.0 386.5Q592.0 384.0 600.5 374.0Q609.0 364.0 601.5 384.5Q594.0 405.0 608.0 391.5Q622.0 378.0 621.0 385.5Q620.0 393.0 614.5 402.0Q609.0 411.0 628.5 403.0Q648.0 395.0 631.5 407.0Q615.0 419.0 624.0 419.5Q633.0 420.0 641.5 422.5Q650.0 425.0 630.5 430.0Q611.0 435.0 632.0 440.0Q653.0 445.0 641.5 447.0Q630.0 449.0 624.0 450.5Q618.0 452.0 633.5 464.0Q649.0 476.0 628.0 467.0Q607.0 458.0 615.5 469.5Q624.0 481.0 622.5 485.5Q621.0 490.0 608.0 478.5Q595.0 467.0 602.5 488.5Q610.0 510.0 600.5 497.0Q591.0 484.0 588.0 485.5Q585.0 487.0 582.5 502.5Q580.0 518.0 576.5 495.5Q573.0 473.0 567.0 490.0Q561.0 507.0 557.5 503.0Q554.0 499.0 556.0 485.5Q558.0 472.0 543.5 490.0Q529.0 508.0 537.0 489.5Q545.0 471.0 538.5 473.5Q532.0 476.0 521.0 479.0Q510.0 482.0 526.0 467.5Q542.0 453.0 521.5 458.5Q501.0 464.0 508.0 457.0Q515.0 450.0 522.5 445.5Q530.0 441.0 509.0 438.0Q488.0 435.0 510.0 432.5Q532.0 430.0 521.5 424.0Q511.0 418.0 507.0 412.5Q503.0 407.0 522.5 412.0Q542.0 417.0 524.5 401.0Q507.0 385.0 520.5 391.0Q534.0 397.0 538.0 396.0Q542.0 395.0 535.0 378.0Q528.0 361.0 543.0 380.0Q558.0 399.0 555.0 382.0Q552.0 365.0 556.5 364.5Q561.0 364.0 566.5 379.0Q572.0 394.0 576.5 370.5Q581.0 347.0 583.0 366.0Q585.0 385.0 589.0 382.5Q593.0 380.0 602.0 369.0Q611.0 358.0 603.5 380.0Q596.0 402.0 611.0 387.5Q626.0 373.0 625.0 381.0Q624.0 389.0 617.5 399.0Q611.0 409.0 632.5 400.0Q654.0 391.0 636.0 404.5Q618.0 418.0 628.0 418.5Q638.0 419.0 647.5 422.0Q657.0 425.0 635.5 430.0Q614.0 435.0 637.0 440.5Q660.0 446.0 647.0 448.0Q634.0 450.0 628.0 452.0Q622.0 454.0 638.5 466.5Q655.0 479.0 632.5 469.5Q610.0 460.0 619.0 472.5Q628.0 485.0 626.5 490.0Q625.0 495.0 611.0 482.5Q597.0 470.0 605.0 493.5Q613.0 517.0 602.5 502.5Q592.0 488.0 589.0 489.5Q586.0 491.0 583.5 508.0Q581.0 525.0 576.5 500.5Q572.0 476.0 566.0 494.5Q560.0 513.0 556.5 508.5Q553.0 504.0 554.5 489.5Q556.0 475.0 540.5 494.5Q525.0 514.0 534.0 494.0Q543.0 474.0 535.5 476.5Q528.0 479.0 516.0 482.5Q504.0 486.0 522.0 470.0Q540.0 454.0 517.5 460.5Q495.0 467.0 502.5 459.5Q510.0 452.0 518.0 446.5Q526.0 441.0 503.5 438.0Q481.0 435.0 505.0 432.0Q529.0 429.0 517.5 423.0Q506.0 417.0 502.0 410.5Q498.0 404.0 518.5 409.5Q539.0 415.0 520.0 398.0Q501.0 381.0 516.0 387.0Q531.0 393.0 535.5 392.5Q540.0 392.0 532.5 373.5Q525.0 355.0 541.0 375.5Q557.0 396.0 554.0 378.0Q551.0 360.0 555.5 359.0Q560.0 358.0 566.0 374.5Q572.0 391.0 576.5 365.5Q581.0 340.0 583.0 360.5Q585.0 381.0 589.5 378.0Q594.0 375.0 604.0 363.5Q614.0 352.0 605.5 376.0Q597.0 400.0 613.5 384.5Q630.0 369.0 629.0 377.5Q628.0 386.0 621.0 396.5Q614.0 407.0 637.0 397.5Q660.0 388.0 641.0 402.5Q622.0 417.0 632.5 417.0Q643.0 417.0 653.0 420.5Q663.0 424.0 640.0 429.5Q617.0 435.0 641.5 441.0Q666.0 447.0 652.5 449.0Q639.0 451.0 632.0 453.0Q625.0 455.0 643.0 468.5Q661.0 482.0 636.5 472.0Q612.0 462.0 622.0 475.5Q632.0 489.0 630.0 494.5Q628.0 500.0 613.5 486.0Q599.0 472.0 607.5 497.5Q616.0 523.0 605.0 507.5Q594.0 492.0 590.0 493.5Q586.0 495.0 583.5 513.5Q581.0 532.0 576.5 505.5Q572.0 479.0 565.5 499.0Q559.0 519.0 555.0 514.0Q551.0 509.0 553.0 493.5Q555.0 478.0 538.0 498.5Q521.0 519.0 530.5 498.0Q540.0 477.0 532.5 479.5Q525.0 482.0 512.0 486.0Q499.0 490.0 518.0 473.0Q537.0 456.0 513.0 462.5Q489.0 469.0 497.5 461.0Q506.0 453.0 514.0 447.5Q522.0 442.0 498.0 438.5Q474.0 435.0 500.0 432.0Q526.0 429.0 513.0 422.5Q500.0 416.0 496.0 409.0Q492.0 402.0 514.0 408.0Q536.0 414.0 516.0 395.5Q496.0 377.0 512.0 383.5Q528.0 390.0 532.5 389.5Q537.0 389.0 529.0 369.5Q521.0 350.0 538.0 371.5Q555.0 393.0 552.0 373.5Q549.0 354.0 554.0 353.5Q559.0 353.0 565.5 370.5Q572.0 388.0 576.5 360.5Q581.0 333.0 583.5 355.0Q586.0 377.0 591.0 374.0Q596.0 371.0 606.5 358.5Q617.0 346.0 608.0 371.5Q599.0 397.0 616.5 380.5Q634.0 364.0 632.5 373.0Q631.0 382.0 624.0 393.0Q617.0 404.0 642.0 394.5Q667.0 385.0 646.0 400.0Q625.0 415.0 636.5 415.5Q648.0 416.0 658.5 419.5Q669.0 423.0 644.5 429.0Q620.0 435.0 646.5 441.0Q673.0 447.0 658.5 450.0Q644.0 453.0 636.5 454.5Q629.0 456.0 648.0 471.0Q667.0 486.0 641.0 475.0Q615.0 464.0 625.5 478.0Q636.0 492.0 634.0 498.0Q632.0 504.0 616.0 489.5Q600.0 475.0 609.5 502.0Q619.0 529.0 607.0 512.5Q595.0 496.0 591.0 497.5Q587.0 499.0 584.5 518.5Q582.0 538.0 577.0 510.0Q572.0 482.0 565.0 503.5Q558.0 525.0 553.5 519.5Q549.0 514.0 551.0 497.5Q553.0 481.0 535.5 503.0Q518.0 525.0 528.0 502.5Q538.0 480.0 529.5 482.5Q521.0 485.0 507.5 489.5Q494.0 494.0 514.5 475.5Q535.0 457.0 509.0 464.0Q483.0 471.0 492.0 462.5Q501.0 454.0 510.0 448.0Q519.0 442.0 493.0 438.5Q467.0 435.0 494.5 431.5Q522.0 428.0 508.5 421.5Q495.0 415.0 490.5 407.5Q486.0 400.0 510.0 406.0Q534.0 412.0 512.0 392.5Q490.0 373.0 507.0 380.0Q524.0 387.0 529.0 386.5Q534.0 386.0 525.5 365.0Q517.0 344.0 535.5 367.0Q554.0 390.0 550.5 369.5Q547.0 349.0 552.5 348.0Q558.0 347.0 565.0 366.0Q572.0 385.0 577.0 355.5Q582.0 326.0 584.5 349.5Q587.0 373.0 592.0 370.0Q597.0 367.0 608.5 353.5Q620.0 340.0 610.5 367.5Q601.0 395.0 619.5 377.0Q638.0 359.0 636.5 368.5Q635.0 378.0 627.5 390.0Q620.0 402.0 646.5 391.5Q673.0 381.0 650.5 397.5Q628.0 414.0 640.5 414.5Q653.0 415.0 664.0 418.5Q675.0 422.0 649.0 428.5Q623.0 435.0 651.5 441.5Q680.0 448.0 664.0 451.0Q648.0 454.0 640.5 456.0Q633.0 458.0 653.0 473.5Q673.0 489.0 645.5 477.5Q618.0 466.0 629.0 481.0Q640.0 496.0 638.0 502.5Q636.0 509.0 619.0 493.0Q602.0 477.0 612.0 506.0Q622.0 535.0 609.0 517.5Q596.0 500.0 592.0 502.0Q588.0 504.0 585.0 524.5Q582.0 545.0 577.0 515.0Q572.0 485.0 564.5 508.0Q557.0 531.0 552.5 525.5Q548.0 520.0 550.0 502.0Q552.0 484.0 533.0 507.5Q514.0 531.0 525.0 507.0Q536.0 483.0 527.0 486.0Q518.0 489.0 503.5 493.5Q489.0 498.0 510.5 478.5Q532.0 459.0 504.5 466.5Q477.0 474.0 486.5 464.5Q496.0 455.0 505.5 449.0Q515.0 443.0 487.5 439.0Q460.0 435.0 489.5 431.5Q519.0 428.0 504.5 420.5Q490.0 413.0 485.0 405.5Q480.0 398.0 505.5 404.5Q531.0 411.0 508.0 390.0Q485.0 369.0 503.0 376.5Q521.0 384.0 526.5 383.5Q532.0 383.0 522.5 360.5Q513.0 338.0 533.0 362.5Q553.0 387.0 549.0 365.0Q545.0 343.0 551.0 342.0Q557.0 341.0 564.5 361.0Q572.0 381.0 577.0 350.0Q582.0 319.0 585.0 344.0Q588.0 369.0 593.5 365.5Q599.0 362.0 611.0 348.0Q623.0 334.0 612.5 363.0Q602.0 392.0 622.0 373.0Q642.0 354.0 640.5 364.5Q639.0 375.0 631.0 387.5Q623.0 400.0 651.0 389.0Q679.0 378.0 655.5 395.5Q632.0 413.0 645.0 413.5Q658.0 414.0 670.0 418.0Q682.0 422.0 654.0 428.5Q626.0 435.0 656.0 442.0Q686.0 449.0 669.5 452.0Q653.0 455.0 644.5 457.0Q636.0 459.0 657.5 475.5Q679.0 492.0 649.5 480.0Q620.0 468.0 632.0 484.0Q644.0 500.0 642.0 506.5Q640.0 513.0 622.0 496.5Q604.0 480.0 614.5 510.5Q625.0 541.0 611.0 522.5Q597.0 504.0 593.0 506.0Q589.0 508.0 585.5 530.0Q582.0 552.0 577.0 520.0Q572.0 488.0 564.0 512.5Q556.0 537.0 551.0 531.0Q546.0 525.0 548.0 506.0Q550.0 487.0 530.0 512.0Q510.0 537.0 521.5 511.5Q533.0 486.0 523.5 489.0Q514.0 492.0 498.5 497.0Q483.0 502.0 506.0 481.0Q529.0 460.0 500.0 468.0Q471.0 476.0 481.0 466.5Q491.0 457.0 501.5 450.0Q512.0 443.0 482.5 439.0Q453.0 435.0 484.0 431.0Q515.0 427.0 500.0 419.5Q485.0 412.0 480.0 403.5Q475.0 395.0 501.5 402.0Q528.0 409.0 503.5 387.0Q479.0 365.0 498.5 373.0Q518.0 381.0 523.5 380.5Q529.0 380.0 519.5 356.0Q510.0 332.0 530.5 358.0Q551.0 384.0 547.0 361.0Q543.0 338.0 549.5 337.0Q556.0 336.0 563.5 357.0Q571.0 378.0 577.0 345.0Q583.0 312.0 585.5 338.5Q588.0 365.0 594.0 361.5Q600.0 358.0 613.0 342.5Q626.0 327.0 615.0 358.0Q604.0 389.0 625.0 369.0Q646.0 349.0 644.5 360.0Q643.0 371.0 634.0 384.5Q625.0 398.0 655.0 386.5Q685.0 375.0 660.0 393.0Q635.0 411.0 649.0 411.5Q663.0 412.0 675.5 416.5Q688.0 421.0 658.5 428.0Q629.0 435.0 661.0 442.5Q693.0 450.0 675.0 453.0Q657.0 456.0 648.5 458.5Q640.0 461.0 662.5 478.5Q685.0 496.0 654.0 483.0Q623.0 470.0 635.5 487.0Q648.0 504.0 646.0 511.0Q644.0 518.0 624.5 500.5Q605.0 483.0 616.5 515.0Q628.0 547.0 613.5 527.5Q599.0 508.0 594.5 510.0Q590.0 512.0 586.5 535.5Q583.0 559.0 577.0 525.0Q571.0 491.0 562.5 517.0Q554.0 543.0 549.0 536.5Q544.0 530.0 546.5 510.0Q549.0 490.0 527.5 516.5Q506.0 543.0 518.5 516.0Q531.0 489.0 521.0 492.0Q511.0 495.0 494.5 500.0Q478.0 505.0 502.5 483.5Q527.0 462.0 496.0 470.0Q465.0 478.0 475.5 468.0Q486.0 458.0 497.0 450.5Q508.0 443.0 477.0 439.0Q446.0 435.0 479.0 431.0Q512.0 427.0 496.0 419.0Q480.0 411.0 474.5 402.0Q469.0 393.0 497.5 400.5Q526.0 408.0 500.0 385.0Q474.0 362.0 494.5 370.0Q515.0 378.0 521.0 377.0Q527.0 376.0 516.5 351.0Q506.0 326.0 528.0 353.5Q550.0 381.0 546.0 356.5Q542.0 332.0 548.5 331.0Q555.0 330.0 563.0 352.5Q571.0 375.0 577.0 340.0Q583.0 305.0 586.0 333.0Q589.0 361.0 595.0 357.5Q601.0 354.0 614.5 337.5Q628.0 321.0 616.5 354.0Q605.0 387.0 627.5 366.0Q650.0 345.0 648.5 356.5Q647.0 368.0 637.5 382.0Q628.0 396.0 659.5 383.5Q691.0 371.0 664.5 390.5Q638.0 410.0 653.0 410.5Q668.0 411.0 681.0 415.5Q694.0 420.0 663.0 427.5Q632.0 435.0 665.5 443.0Q699.0 451.0 680.5 454.0Q662.0 457.0 652.5 459.5Q643.0 462.0 667.0 480.5Q691.0 499.0 658.5 485.5Q626.0 472.0 639.0 490.0Q652.0 508.0 649.5 515.0Q647.0 522.0 627.0 503.5Q607.0 485.0 619.0 519.5Q631.0 554.0 615.5 533.0Q600.0 512.0 595.5 514.0Q591.0 516.0 587.0 540.5Q583.0 565.0 577.0 529.5Q571.0 494.0 562.0 521.5Q553.0 549.0 547.5 542.0Q542.0 535.0 545.0 514.0Q548.0 493.0 525.5 521.0Q503.0 549.0 515.5 520.0Q528.0 491.0 517.5 495.0Q507.0 499.0 490.0 504.0Q473.0 509.0 498.5 486.0Q524.0 463.0 491.5 472.0Q459.0 481.0 470.5 470.0Q482.0 459.0 493.0 451.5Q504.0 444.0 471.5 439.5Q439.0 435.0 474.0 431.0Q509.0 427.0 492.0 418.0Q475.0 409.0 469.0 400.0Q463.0 391.0 493.0 398.5Q523.0 406.0 495.5 382.0Q468.0 358.0 489.5 366.5Q511.0 375.0 517.5 374.0Q524.0 373.0 513.0 347.0Q502.0 321.0 525.0 350.0Q548.0 379.0 544.0 353.0Q540.0 327.0 547.0 326.0Q554.0 325.0 562.5 348.5Q571.0 372.0 577.5 335.0Q584.0 298.0 587.0 327.5Q590.0 357.0 596.5 353.0Q603.0 349.0 617.0 332.0Q631.0 315.0 619.0 349.5Q607.0 384.0 630.5 362.0Q654.0 340.0 652.0 352.0Q650.0 364.0 640.5 379.0Q631.0 394.0 664.0 381.0Q697.0 368.0 669.5 388.5Q642.0 409.0 657.5 409.5Q673.0 410.0 687.0 414.5Q701.0 419.0 668.0 427.0Q635.0 435.0 670.5 443.0Q706.0 451.0 686.0 454.5Q666.0 458.0 656.5 460.5Q647.0 463.0 672.0 482.5Q697.0 502.0 662.5 488.0Q628.0 474.0 642.0 492.5Q656.0 511.0 653.5 519.0Q651.0 527.0 630.0 507.5Q609.0 488.0 621.5 524.0Q634.0 560.0 617.5 538.0Q601.0 516.0 596.0 518.5Q591.0 521.0 587.5 546.5Q584.0 572.0 577.5 534.5Q571.0 497.0 561.5 526.0Q552.0 555.0 546.5 547.5Q541.0 540.0 543.5 518.0Q546.0 496.0 522.5 525.5Q499.0 555.0 512.5 524.5Q526.0 494.0 515.0 498.0Q504.0 502.0 485.5 507.5Q467.0 513.0 494.0 488.5Q521.0 464.0 487.0 473.5Q453.0 483.0 465.0 471.5Q477.0 460.0 489.0 452.0Q501.0 444.0 466.5 439.5Q432.0 435.0 468.5 430.5Q505.0 426.0 487.5 417.0Q470.0 408.0 464.0 398.5Q458.0 389.0 489.0 397.0Q520.0 405.0 491.5 379.5Q463.0 354.0 485.5 363.0Q508.0 372.0 514.5 371.0Q521.0 370.0 510.0 342.5Q499.0 315.0 523.0 345.5Q547.0 376.0 542.5 348.5Q538.0 321.0 545.5 320.0Q553.0 319.0 562.0 344.0Q571.0 369.0 577.5 330.5Q584.0 292.0 587.5 322.5Q591.0 353.0 597.5 349.0Q604.0 345.0 619.0 327.0Q634.0 309.0 621.5 345.5Q609.0 382.0 633.5 358.5Q658.0 335.0 656.0 348.0Q654.0 361.0 644.0 376.5Q634.0 392.0 668.5 378.0Q703.0 364.0 674.0 385.5Q645.0 407.0 661.0 408.0Q677.0 409.0 692.0 413.5Q707.0 418.0 672.5 426.5Q638.0 435.0 675.0 443.5Q712.0 452.0 691.5 456.0Q671.0 460.0 661.0 462.5Q651.0 465.0 677.5 485.5Q704.0 506.0 667.5 491.0Q631.0 476.0 645.5 495.5Q660.0 515.0 657.5 523.5Q655.0 532.0 632.5 511.5Q610.0 491.0 623.5 528.5Q637.0 566.0 620.0 543.0Q603.0 520.0 597.5 522.5Q592.0 525.0 588.0 552.0Q584.0 579.0 577.5 539.5Q571.0 500.0 561.0 530.5Q551.0 561.0 545.0 553.0Q539.0 545.0 542.0 522.0Q545.0 499.0 520.0 530.0Q495.0 561.0 509.0 529.0Q523.0 497.0 511.5 501.0Q500.0 505.0 481.0 511.0Q462.0 517.0 490.5 491.5Q519.0 466.0 483.0 476.0Q447.0 486.0 459.5 473.5Q472.0 461.0 484.5 453.0Q497.0 445.0 461.0 440.0Q425.0 435.0 463.5 430.5Q502.0 426.0 483.0 416.5Q464.0 407.0 458.0 396.5Q452.0 386.0 485.0 394.5Q518.0 403.0 488.0 376.5Q458.0 350.0 481.5 359.5Q505.0 369.0 512.0 368.0Q519.0 367.0 507.0 338.0Q495.0 309.0 520.5 341.0Q546.0 373.0 541.0 344.5Q536.0 316.0 544.0 314.5Q552.0 313.0 561.5 339.0Q571.0 365.0 577.5 325.0Q584.0 285.0 587.5 317.5Q591.0 350.0 598.5 345.5Q606.0 341.0 621.5 322.0Q637.0 303.0 623.5 341.0Q610.0 379.0 636.0 354.5Q662.0 330.0 660.0 343.5Q658.0 357.0 647.5 373.5Q637.0 390.0 673.5 375.5Q710.0 361.0 679.0 383.5Q648.0 406.0 665.0 406.5Q682.0 407.0 697.5 412.5Q713.0 418.0 677.0 426.5Q641.0 435.0 680.0 444.0Q719.0 453.0 697.0 457.0Q675.0 461.0 664.5 463.5Q654.0 466.0 682.0 487.5Q710.0 509.0 672.0 493.5Q634.0 478.0 649.0 498.5Q664.0 519.0 661.5 527.5Q659.0 536.0 635.5 514.5Q612.0 493.0 626.0 532.5Q640.0 572.0 622.0 548.0Q604.0 524.0 598.5 526.5Q593.0 529.0 588.5 557.5Q584.0 586.0 577.5 544.5Q571.0 503.0 560.5 534.5Q550.0 566.0 543.5 558.5Q537.0 551.0 540.0 526.5Q543.0 502.0 517.0 534.5Q491.0 567.0 506.0 533.5Q521.0 500.0 509.0 504.0Q497.0 508.0 477.0 514.5Q457.0 521.0 486.5 494.0Q516.0 467.0 478.5 477.5Q441.0 488.0 454.0 475.5Q467.0 463.0 480.0 454.0Q493.0 445.0 455.5 440.0Q418.0 435.0 458.0 430.0Q498.0 425.0 478.5 415.0Q459.0 405.0 452.5 394.5Q446.0 384.0 480.5 393.0Q515.0 402.0 483.5 374.0Q452.0 346.0 477.0 356.0Q502.0 366.0 509.0 365.0Q516.0 364.0 503.5 333.5Q491.0 303.0 517.5 336.5Q544.0 370.0 539.0 340.0Q534.0 310.0 542.5 309.0Q551.0 308.0 560.5 335.0Q570.0 362.0 577.5 320.0Q585.0 278.0 588.5 312.0Q592.0 346.0 599.5 341.0Q607.0 336.0 623.5 316.5Q640.0 297.0 626.0 337.0Q612.0 377.0 639.0 351.5Q666.0 326.0 664.0 339.5Q662.0 353.0 651.0 370.5Q640.0 388.0 678.0 373.0Q716.0 358.0 684.0 381.5Q652.0 405.0 669.5 405.5Q687.0 406.0 703.5 411.5Q720.0 417.0 682.0 426.0Q644.0 435.0 684.5 444.5Q725.0 454.0 702.5 458.0Q680.0 462.0 669.0 465.0Q658.0 468.0 687.0 490.0Q716.0 512.0 676.0 496.0Q636.0 480.0 652.0 501.5Q668.0 523.0 665.0 532.0Q662.0 541.0 638.0 518.5Q614.0 496.0 628.0 537.0Q642.0 578.0 623.5 553.0Q605.0 528.0 599.5 530.5Q594.0 533.0 589.5 563.0Q585.0 593.0 578.0 549.5Q571.0 506.0 560.0 539.0Q549.0 572.0 542.5 564.0Q536.0 556.0 539.0 530.5Q542.0 505.0 515.0 539.0Q488.0 573.0 503.5 538.0Q519.0 503.0 506.0 507.5Q493.0 512.0 472.5 518.5Q452.0 525.0 483.0 497.0Q514.0 469.0 474.5 479.5Q435.0 490.0 448.5 477.0Q462.0 464.0 476.0 455.0Q490.0 446.0 450.5 440.5Q411.0 435.0 453.0 430.0Q495.0 425.0 474.5 414.5Q454.0 404.0 447.0 393.0Q440.0 382.0 476.0 391.0Q512.0 400.0 479.5 371.0Q447.0 342.0 472.5 352.5Q498.0 363.0 506.0 362.0Q514.0 361.0 501.0 329.0Q488.0 297.0 515.5 332.0Q543.0 367.0 538.0 336.0Q533.0 305.0 541.5 303.5Q550.0 302.0 560.0 330.5Q570.0 359.0 577.5 315.0Q585.0 271.0 589.0 306.5Q593.0 342.0 600.5 337.0Q608.0 332.0 625.5 311.5Q643.0 291.0 628.5 332.5Q614.0 374.0 642.0 347.5Q670.0 321.0 668.0 335.5Q666.0 350.0 654.0 368.0Q642.0 386.0 682.0 370.0Q722.0 354.0 688.5 378.5Q655.0 403.0 673.5 404.0Q692.0 405.0 709.0 410.5Q726.0 416.0 686.5 425.5Q647.0 435.0 689.5 445.0Q732.0 455.0 708.0 459.0Q684.0 463.0 672.5 466.0Q661.0 469.0 691.5 492.5Q722.0 516.0 680.5 498.5Q639.0 481.0 655.5 504.0Q672.0 527.0 669.0 536.0Q666.0 545.0 640.5 521.5Q615.0 498.0 630.0 541.5Q645.0 585.0 626.0 558.5Q607.0 532.0 601.0 534.5Q595.0 537.0 590.0 568.0Q585.0 599.0 577.5 554.5Q570.0 510.0 559.0 544.0Q548.0 578.0 541.0 569.5Q534.0 561.0 537.5 534.5Q541.0 508.0 512.5 543.0Q484.0 578.0 500.0 542.0Q516.0 506.0 503.0 510.5Q490.0 515.0 468.0 521.5Q446.0 528.0 478.5 499.0Q511.0 470.0 470.0 481.5Q429.0 493.0 443.5 479.0Q458.0 465.0 472.0 455.5Q486.0 446.0 445.0 440.5Q404.0 435.0 448.0 429.5Q492.0 424.0 470.5 413.5Q449.0 403.0 442.0 391.0Q435.0 379.0 472.5 389.0Q510.0 399.0 475.5 368.5Q441.0 338.0 468.0 349.0Q495.0 360.0 503.0 359.0Q511.0 358.0 497.5 324.5Q484.0 291.0 513.0 327.5Q542.0 364.0 536.5 331.5Q531.0 299.0 540.0 298.0Q549.0 297.0 559.5 326.5Q570.0 356.0 578.0 310.0Q586.0 264.0 590.0 301.0Q594.0 338.0 602.0 333.0Q610.0 328.0 627.5 306.5Q645.0 285.0 630.0 328.5Q615.0 372.0 644.5 344.0Q674.0 316.0 671.5 331.0Q669.0 346.0 657.0 365.0Q645.0 384.0 686.5 367.5Q728.0 351.0 693.0 376.5Q658.0 402.0 677.5 403.0Q697.0 404.0 714.5 409.5Q732.0 415.0 691.0 425.0Q650.0 435.0 694.0 445.5Q738.0 456.0 713.5 460.0Q689.0 464.0 677.0 467.5Q665.0 471.0 696.5 495.0Q728.0 519.0 685.0 501.0Q642.0 483.0 659.5 506.5Q677.0 530.0 673.5 540.0Q670.0 550.0 643.5 525.5Q617.0 501.0 632.5 546.0Q648.0 591.0 628.0 563.5Q608.0 536.0 601.5 539.0Q595.0 542.0 590.5 574.0Q586.0 606.0 578.0 559.5Q570.0 513.0 558.5 548.5Q547.0 584.0 539.5 575.0Q532.0 566.0 535.5 538.5Q539.0 511.0 509.5 547.5Q480.0 584.0 497.0 546.5Q514.0 509.0 500.0 513.5Q486.0 518.0 463.5 525.0Q441.0 532.0 474.5 502.0Q508.0 472.0 465.5 483.5Q423.0 495.0 438.0 480.5Q453.0 466.0 467.5 456.5Q482.0 447.0 439.5 441.0Q397.0 435.0 442.5 429.5Q488.0 424.0 466.0 412.5Q444.0 401.0 436.5 389.0Q429.0 377.0 468.0 387.5Q507.0 398.0 471.5 366.0Q436.0 334.0 464.0 345.5Q492.0 357.0 500.0 355.5Q508.0 354.0 494.0 320.0Q480.0 286.0 510.0 323.5Q540.0 361.0 534.5 327.5Q529.0 294.0 538.5 292.5Q548.0 291.0 559.0 322.0Q570.0 353.0 578.0 305.0Q586.0 257.0 590.0 295.5Q594.0 334.0 602.5 328.5Q611.0 323.0 629.5 301.0Q648.0 279.0 632.5 324.0Q617.0 369.0 647.0 340.0Q677.0 311.0 675.0 327.0Q673.0 343.0 660.5 362.5Q648.0 382.0 691.0 365.0Q734.0 348.0 698.0 374.5Q662.0 401.0 682.0 401.5Q702.0 402.0 720.0 408.0Q738.0 414.0 695.5 424.5Q653.0 435.0 699.0 445.5Q745.0 456.0 719.5 460.5Q694.0 465.0 681.5 468.5Q669.0 472.0 701.5 497.0Q734.0 522.0 689.0 503.5Q644.0 485.0 662.5 509.5Q681.0 534.0 677.5 544.0Q674.0 554.0 646.5 529.0Q619.0 504.0 635.0 550.5Q651.0 597.0 630.0 568.5Q609.0 540.0 602.5 543.0Q596.0 546.0 591.0 579.5Q586.0 613.0 578.0 564.5Q570.0 516.0 557.5 553.0Q545.0 590.0 538.0 580.5Q531.0 571.0 534.5 542.5Q538.0 514.0 507.5 552.0Q477.0 590.0 494.0 551.0Q511.0 512.0 497.0 517.0Q483.0 522.0 459.5 529.0Q436.0 536.0 471.0 504.5Q506.0 473.0 461.5 485.0Q417.0 497.0 432.5 482.5Q448.0 468.0 463.5 457.5Q479.0 447.0 434.5 441.0Q390.0 435.0 437.5 429.5Q485.0 424.0 462.0 412.0Q439.0 400.0 431.0 387.5Q423.0 375.0 463.5 385.5Q504.0 396.0 467.0 363.0Q430.0 330.0 459.5 342.0Q489.0 354.0 497.5 352.5Q506.0 351.0 491.5 315.5Q477.0 280.0 508.0 319.5Q539.0 359.0 533.0 323.5Q527.0 288.0 536.5 287.0Q546.0 286.0 558.0 317.5Q570.0 349.0 578.5 299.5Q587.0 250.0 591.0 290.0Q595.0 330.0 604.0 324.5Q613.0 319.0 632.0 296.0Q651.0 273.0 634.5 320.0Q618.0 367.0 649.5 336.5Q681.0 306.0 679.0 322.5Q677.0 339.0 664.0 359.5Q651.0 380.0 695.5 362.0Q740.0 344.0 702.5 371.5Q665.0 399.0 686.0 400.0Q707.0 401.0 726.0 407.5Q745.0 414.0 700.5 424.5Q656.0 435.0 703.5 446.0Q751.0 457.0 724.5 462.0Q698.0 467.0 685.0 470.0Q672.0 473.0 706.0 499.5Q740.0 526.0 693.5 506.5Q647.0 487.0 666.0 512.5Q685.0 538.0 681.5 548.5Q678.0 559.0 649.0 532.5Q620.0 506.0 637.0 554.5Q654.0 603.0 632.0 573.5Q610.0 544.0 603.5 547.0Q597.0 550.0 592.0 585.0Q587.0 620.0 578.5 569.5Q570.0 519.0 557.0 557.5Q544.0 596.0 536.5 586.5Q529.0 577.0 532.5 547.0Q536.0 517.0 504.5 556.5Q473.0 596.0 491.0 555.5Q509.0 515.0 494.0 520.0Q479.0 525.0 455.0 532.5Q431.0 540.0 467.0 507.5Q503.0 475.0 457.5 487.5Q412.0 500.0 427.5 484.5Q443.0 469.0 459.0 458.5Q475.0 448.0 429.0 441.5Q383.0 435.0 432.0 429.0Q481.0 423.0 457.5 411.0Q434.0 399.0 426.0 386.0Q418.0 373.0 460.0 384.0Q502.0 395.0 463.5 360.5Q425.0 326.0 455.0 338.5Q485.0 351.0 494.0 349.5Q503.0 348.0 488.0 311.0Q473.0 274.0 505.5 315.0Q538.0 356.0 532.0 319.5Q526.0 283.0 535.5 281.5Q545.0 280.0 557.0 313.0Q569.0 346.0 578.0 294.5Q587.0 243.0 591.5 284.5Q596.0 326.0 605.0 320.5Q614.0 315.0 634.0 291.0Q654.0 267.0 637.0 315.5Q620.0 364.0 652.5 333.0Q685.0 302.0 683.0 319.0Q681.0 336.0 667.5 357.0Q654.0 378.0 700.0 359.5Q746.0 341.0 707.0 369.5Q668.0 398.0 690.0 399.0Q712.0 400.0 731.5 406.5Q751.0 413.0 705.0 424.0Q659.0 435.0 708.5 446.5Q758.0 458.0 730.5 463.0Q703.0 468.0 689.5 471.5Q676.0 475.0 711.0 502.0Q746.0 529.0 698.0 509.0Q650.0 489.0 669.5 515.5Q689.0 542.0 685.0 552.5Q681.0 563.0 651.5 536.0Q622.0 509.0 639.5 559.0Q657.0 609.0 634.5 578.5Q612.0 548.0 605.0 551.0Q598.0 554.0 592.5 590.5Q587.0 627.0 578.5 574.5Q570.0 522.0 556.5 562.0Q543.0 602.0 535.0 592.0Q527.0 582.0 531.0 551.0Q535.0 520.0 502.0 561.0Q469.0 602.0 488.0 560.0Q507.0 518.0 491.5 523.0Q476.0 528.0 450.5 536.0Q425.0 544.0 462.5 510.0Q500.0 476.0 453.0 489.0Q406.0 502.0 422.0 486.0Q438.0 470.0 455.0 459.0Q472.0 448.0 424.0 441.5Q376.0 435.0 427.0 429.0Q478.0 423.0 453.5 410.0Q429.0 397.0 420.5 383.5Q412.0 370.0 455.5 381.5Q499.0 393.0 459.5 357.5Q420.0 322.0 451.0 335.0Q482.0 348.0 491.5 346.5Q501.0 345.0 485.0 306.5Q469.0 268.0 502.5 310.5Q536.0 353.0 530.0 315.0Q524.0 277.0 534.0 275.5Q544.0 274.0 556.5 308.5Q569.0 343.0 578.0 289.5Q587.0 236.0 592.0 279.0Q597.0 322.0 606.0 316.0Q615.0 310.0 636.0 285.5Q657.0 261.0 639.5 311.0Q622.0 361.0 655.5 329.0Q689.0 297.0 687.0 314.5Q685.0 332.0 670.5 354.0Q656.0 376.0 704.5 356.5Q753.0 337.0 712.5 367.0Q672.0 397.0 694.5 398.0Q717.0 399.0 737.0 405.5Q757.0 412.0 709.5 423.5Q662.0 435.0 713.0 447.0Q764.0 459.0 735.5 464.0Q707.0 469.0 693.0 472.5Q679.0 476.0 715.5 504.5Q752.0 533.0 702.0 512.0Q652.0 491.0 672.5 518.5Q693.0 546.0 689.0 557.0Q685.0 568.0 654.5 539.5Q624.0 511.0 642.0 563.0Q660.0 615.0 636.5 583.5Q613.0 552.0 606.0 555.5Q599.0 559.0 593.0 596.0Q587.0 633.0 578.0 579.0Q569.0 525.0 555.5 566.5Q542.0 608.0 534.0 597.5Q526.0 587.0 529.5 555.0Q533.0 523.0 499.0 565.5Q465.0 608.0 484.5 564.5Q504.0 521.0 488.0 526.0Q472.0 531.0 446.0 539.5Q420.0 548.0 459.0 512.5Q498.0 477.0 449.0 490.5Q400.0 504.0 417.0 487.5Q434.0 471.0 451.0 460.0Q468.0 449.0 418.5 442.0Q369.0 435.0 422.0 428.5Q475.0 422.0 449.0 409.0Q423.0 396.0 414.5 382.0Q406.0 368.0 451.0 380.0Q496.0 392.0 455.0 355.0Q414.0 318.0 446.5 331.5Q479.0 345.0 488.5 343.5Q498.0 342.0 481.5 302.0Q465.0 262.0 500.0 306.0Q535.0 350.0 528.5 311.0Q522.0 272.0 532.5 270.5Q543.0 269.0 556.0 304.5Q569.0 340.0 578.5 284.5Q588.0 229.0 592.5 273.5Q597.0 318.0 607.0 312.0Q617.0 306.0 638.5 280.5Q660.0 255.0 641.5 307.0Q623.0 359.0 658.0 325.5Q693.0 292.0 690.5 310.5Q688.0 329.0 673.5 351.5Q659.0 374.0 709.0 354.0Q759.0 334.0 717.0 364.5Q675.0 395.0 698.0 396.0Q721.0 397.0 742.5 404.0Q764.0 411.0 714.5 423.0Q665.0 435.0 718.0 447.5Q771.0 460.0 741.5 465.0Q712.0 470.0 697.5 474.0Q683.0 478.0 720.5 507.0Q758.0 536.0 706.5 514.5Q655.0 493.0 676.0 521.0Q697.0 549.0 693.0 561.0Q689.0 573.0 657.0 543.5Q625.0 514.0 644.0 568.0Q663.0 622.0 638.5 589.0Q614.0 556.0 606.5 559.5Q599.0 563.0 593.5 601.5Q588.0 640.0 578.5 584.0Q569.0 528.0 555.0 571.0Q541.0 614.0 532.5 603.0Q524.0 592.0 528.0 559.0Q532.0 526.0 497.0 570.0Q462.0 614.0 482.0 569.0Q502.0 524.0 485.5 529.5Q469.0 535.0 442.0 543.0Q415.0 551.0 455.0 515.0Q495.0 479.0 444.5 493.0Q394.0 507.0 411.5 490.0Q429.0 473.0 446.5 461.0Q464.0 449.0 413.0 442.0Q362.0 435.0 416.5 428.5Q471.0 422.0 444.5 408.5Q418.0 395.0 409.5 380.5Q401.0 366.0 447.5 378.0Q494.0 390.0 451.5 352.0Q409.0 314.0 442.5 328.0Q476.0 342.0 485.5 340.5Q495.0 339.0 478.5 298.0Q462.0 257.0 498.0 302.0Q534.0 347.0 527.0 306.5Q520.0 266.0 531.0 264.5Q542.0 263.0 555.5 300.0Q569.0 337.0 578.5 280.0Q588.0 223.0 593.0 268.5Q598.0 314.0 608.0 308.0Q618.0 302.0 640.5 275.5Q663.0 249.0 644.0 302.5Q625.0 356.0 661.0 321.5Q697.0 287.0 694.5 306.0Q692.0 325.0 677.0 348.5Q662.0 372.0 713.5 351.5Q765.0 331.0 721.5 362.5Q678.0 394.0 702.0 395.0Q726.0 396.0 748.0 403.0Q770.0 410.0 719.0 422.5Q668.0 435.0 722.5 448.0Q777.0 461.0 746.5 466.0Q716.0 471.0 701.0 475.0Q686.0 479.0 725.5 509.0Q765.0 539.0 711.5 517.0Q658.0 495.0 679.5 524.0Q701.0 553.0 697.0 565.0Q693.0 577.0 660.0 547.0Q627.0 517.0 646.5 572.5Q666.0 628.0 641.0 594.0Q616.0 560.0 608.0 563.5Q600.0 567.0 594.0 607.0Q588.0 647.0 578.5 589.0Q569.0 531.0 554.5 575.5Q540.0 620.0 531.0 608.5Q522.0 597.0 526.5 563.0Q531.0 529.0 494.5 574.5Q458.0 620.0 478.5 573.0Q499.0 526.0 482.0 532.0Q465.0 538.0 437.0 546.5Q409.0 555.0 451.0 517.5Q493.0 480.0 440.5 494.5Q388.0 509.0 406.0 491.5Q424.0 474.0 442.5 461.5Q461.0 449.0 408.0 442.0Q355.0 435.0 411.5 428.0Q468.0 421.0 440.5 407.0Q413.0 393.0 404.0 378.5Q395.0 364.0 443.0 376.5Q491.0 389.0 447.0 349.5Q403.0 310.0 437.5 324.5Q472.0 339.0 482.5 337.5Q493.0 336.0 475.5 293.5Q458.0 251.0 495.0 297.5Q532.0 344.0 525.0 302.5Q518.0 261.0 529.5 259.5Q541.0 258.0 555.0 295.5Q569.0 333.0 579.0 274.5Q589.0 216.0 594.0 263.0Q599.0 310.0 609.5 303.5Q620.0 297.0 642.5 270.0Q665.0 243.0 646.0 298.5Q627.0 354.0 664.0 318.0Q701.0 282.0 698.5 301.5Q696.0 321.0 680.5 345.5Q665.0 370.0 718.0 348.5Q771.0 327.0 726.5 360.0Q682.0 393.0 706.5 394.0Q731.0 395.0 753.5 402.5Q776.0 410.0 723.5 422.5Q671.0 435.0 727.5 448.0Q784.0 461.0 752.5 466.5Q721.0 472.0 705.5 476.5Q690.0 481.0 730.5 512.0Q771.0 543.0 715.5 520.0Q660.0 497.0 682.5 527.0Q705.0 557.0 700.5 569.5Q696.0 582.0 662.5 550.5Q629.0 519.0 649.0 576.5Q669.0 634.0 643.0 599.0Q617.0 564.0 609.0 567.5Q601.0 571.0 595.0 612.5Q589.0 654.0 579.0 594.0Q569.0 534.0 554.0 579.5Q539.0 625.0 530.0 614.0Q521.0 603.0 525.0 567.5Q529.0 532.0 491.5 579.0Q454.0 626.0 475.5 577.5Q497.0 529.0 479.5 535.0Q462.0 541.0 433.0 550.0Q404.0 559.0 447.0 520.5Q490.0 482.0 436.0 497.0Q382.0 512.0 400.5 493.5Q419.0 475.0 438.0 462.5Q457.0 450.0 402.5 442.5Q348.0 435.0 406.0 428.0Q464.0 421.0 436.0 406.5Q408.0 392.0 398.5 376.5Q389.0 361.0 438.5 374.0Q488.0 387.0 443.0 346.5Q398.0 306.0 433.5 320.5Q469.0 335.0 479.5 334.0Q490.0 333.0 472.0 289.0Q454.0 245.0 492.5 293.0Q531.0 341.0 524.0 298.0Q517.0 255.0 528.5 253.5Q540.0 252.0 554.0 291.0Q568.0 330.0 578.5 269.5Q589.0 209.0 594.5 257.5Q600.0 306.0 610.5 299.5Q621.0 293.0 644.5 265.0Q668.0 237.0 648.0 294.0Q628.0 351.0 666.5 314.5Q705.0 278.0 702.5 298.0Q700.0 318.0 684.0 343.0Q668.0 368.0 722.5 346.0Q777.0 324.0 731.0 357.5Q685.0 391.0 710.5 392.5Q736.0 394.0 759.0 401.5Q782.0 409.0 728.0 422.0Q674.0 435.0 732.0 448.5Q790.0 462.0 757.5 468.0Q725.0 474.0 709.5 478.0Q694.0 482.0 735.5 514.0Q777.0 546.0 720.0 522.5Q663.0 499.0 686.0 530.0Q709.0 561.0 704.5 573.5Q700.0 586.0 665.0 554.0Q630.0 522.0 651.0 581.0Q672.0 640.0 645.0 604.0Q618.0 568.0 610.0 571.5Q602.0 575.0 595.5 617.5Q589.0 660.0 579.0 598.5Q569.0 537.0 553.5 584.0Q538.0 631.0 528.5 619.5Q519.0 608.0 523.5 571.5Q528.0 535.0 489.0 583.0Q450.0 631.0 472.5 581.5Q495.0 532.0 476.5 538.5Q458.0 545.0 428.5 554.0Q399.0 563.0 443.0 523.0Q487.0 483.0 431.5 498.5Q376.0 514.0 395.0 495.0Q414.0 476.0 433.5 463.0Q453.0 450.0 397.0 442.5Q341.0 435.0 401.0 428.0Q461.0 421.0 432.0 406.0Q403.0 391.0 393.0 375.0Q383.0 359.0 434.5 372.5Q486.0 386.0 439.0 344.0Q392.0 302.0 429.0 317.0Q466.0 332.0 477.0 330.5Q488.0 329.0 469.5 284.0Q451.0 239.0 490.5 289.0Q530.0 339.0 522.5 294.5Q515.0 250.0 527.0 248.0Q539.0 246.0 553.5 286.5Q568.0 327.0 579.0 264.5Q590.0 202.0 595.0 252.5Q600.0 303.0 611.0 296.0Q622.0 289.0 646.5 260.0Q671.0 231.0 650.5 290.0Q630.0 349.0 669.5 311.0Q709.0 273.0 706.5 293.5Q704.0 314.0 687.5 340.0Q671.0 366.0 727.0 343.5Q783.0 321.0 735.5 355.5Q688.0 390.0 714.5 391.0Q741.0 392.0 765.0 400.0Q789.0 408.0 733.0 421.5Q677.0 435.0 737.0 449.0Q797.0 463.0 763.5 469.0Q730.0 475.0 713.5 479.0Q697.0 483.0 740.0 516.0Q783.0 549.0 724.5 525.0Q666.0 501.0 689.5 532.5Q713.0 564.0 708.5 577.5Q704.0 591.0 668.0 558.0Q632.0 525.0 653.0 585.5Q674.0 646.0 647.0 609.0Q620.0 572.0 611.5 576.0Q603.0 580.0 596.5 623.5Q590.0 667.0 579.0 603.5Q568.0 540.0 552.0 588.5Q536.0 637.0 526.5 625.0Q517.0 613.0 521.5 575.5Q526.0 538.0 486.5 587.5Q447.0 637.0 469.5 586.0Q492.0 535.0 473.5 541.5Q455.0 548.0 424.5 557.5Q394.0 567.0 439.5 526.0Q485.0 485.0 427.5 500.5Q370.0 516.0 390.0 496.5Q410.0 477.0 430.0 464.0Q450.0 451.0 392.0 443.0Q334.0 435.0 396.0 427.5Q458.0 420.0 428.0 404.5Q398.0 389.0 388.0 373.0Q378.0 357.0 430.5 370.5Q483.0 384.0 435.0 341.0Q387.0 298.0 425.0 313.5Q463.0 329.0 474.0 327.5Q485.0 326.0 466.0 279.5Q447.0 233.0 487.5 284.5Q528.0 336.0 520.5 290.0Q513.0 244.0 525.5 242.5Q538.0 241.0 553.0 282.5Q568.0 324.0 579.0 259.5Q590.0 195.0 595.5 247.0Q601.0 299.0 612.5 292.0Q624.0 285.0 649.0 255.0Q674.0 225.0 652.5 285.5Q631.0 346.0 672.0 307.0Q713.0 268.0 710.0 289.5Q707.0 311.0 690.0 337.5Q673.0 364.0 731.0 340.5Q789.0 317.0 740.5 353.0Q692.0 389.0 719.0 390.0Q746.0 391.0 770.5 399.0Q795.0 407.0 737.5 421.0Q680.0 435.0 741.5 449.5Q803.0 464.0 769.0 470.0Q735.0 476.0 718.0 480.5Q701.0 485.0 745.0 519.0Q789.0 553.0 728.5 528.0Q668.0 503.0 692.5 535.5Q717.0 568.0 712.5 581.5Q708.0 595.0 671.0 561.0Q634.0 527.0 655.5 590.0Q677.0 653.0 649.0 614.5Q621.0 576.0 612.0 580.0Q603.0 584.0 596.5 629.0Q590.0 674.0 579.0 608.5Q568.0 543.0 551.5 593.0Q535.0 643.0 525.5 630.5Q516.0 618.0 520.5 579.5Q525.0 541.0 484.0 592.0Q443.0 643.0 466.5 590.5Q490.0 538.0 470.5 544.5Q451.0 551.0 419.5 561.0Q388.0 571.0 435.0 528.5Q482.0 486.0 423.0 502.5Q364.0 519.0 384.5 499.0Q405.0 479.0 425.5 465.0Q446.0 451.0 386.5 443.0Q327.0 435.0 390.5 427.5Q454.0 420.0 423.5 404.0Q393.0 388.0 382.5 371.5Q372.0 355.0 426.0 369.0Q480.0 383.0 431.0 338.5Q382.0 294.0 420.5 310.0Q459.0 326.0 470.5 324.5Q482.0 323.0 462.5 275.0Q443.0 227.0 485.0 280.0Q527.0 333.0 519.0 286.0Q511.0 239.0 524.0 237.0Q537.0 235.0 552.5 278.0Q568.0 321.0 579.5 254.5Q591.0 188.0 596.5 241.5Q602.0 295.0 613.5 287.5Q625.0 280.0 651.0 249.5Q677.0 219.0 655.0 281.5Q633.0 344.0 675.0 303.5Q717.0 263.0 714.0 285.0Q711.0 307.0 693.5 334.0Q676.0 361.0 735.5 337.5Q795.0 314.0 745.0 350.5Q695.0 387.0 723.0 388.5Q751.0 390.0 776.0 398.0Q801.0 406.0 742.0 420.5Q683.0 435.0 746.5 450.0Q810.0 465.0 774.5 471.0Q739.0 477.0 721.5 481.5Q704.0 486.0 749.5 521.0Q795.0 556.0 733.0 530.5Q671.0 505.0 696.0 538.5Q721.0 572.0 716.0 586.0Q711.0 600.0 673.0 565.0Q635.0 530.0 657.5 594.5Q680.0 659.0 651.0 619.5Q622.0 580.0 613.0 584.0Q604.0 588.0 597.0 634.5Q590.0 681.0 579.0 613.5Q568.0 546.0 551.0 597.5Q534.0 649.0 524.0 636.0Q514.0 623.0 518.5 583.5Q523.0 544.0 481.0 596.5Q439.0 649.0 463.0 595.0Q487.0 541.0 467.5 547.5Q448.0 554.0 415.5 564.0Q383.0 574.0 431.0 531.0Q479.0 488.0 418.5 504.5Q358.0 521.0 379.0 500.5Q400.0 480.0 421.0 466.0Q442.0 452.0 381.0 443.5Q320.0 435.0 385.5 427.0Q451.0 419.0 419.5 403.0Q388.0 387.0 377.0 369.5Q366.0 352.0 422.0 366.5Q478.0 381.0 427.0 335.5Q376.0 290.0 416.0 306.5Q456.0 323.0 468.0 321.5Q480.0 320.0 460.0 271.0Q440.0 222.0 483.0 276.0Q526.0 330.0 517.5 281.5Q509.0 233.0 522.5 231.5Q536.0 230.0 552.0 273.5Q568.0 317.0 579.5 249.0Q591.0 181.0 597.0 236.0Q603.0 291.0 615.0 283.5Q627.0 276.0 653.5 244.5Q680.0 213.0 657.5 277.0Q635.0 341.0 678.0 299.5Q721.0 258.0 718.0 281.0Q715.0 304.0 697.0 331.5Q679.0 359.0 740.5 334.5Q802.0 310.0 750.0 348.0Q698.0 386.0 727.0 387.5Q756.0 389.0 782.0 397.5Q808.0 406.0 747.0 420.5Q686.0 435.0 751.0 450.5Q816.0 466.0 780.0 472.0Q744.0 478.0 726.0 483.0Q708.0 488.0 754.5 523.5Q801.0 559.0 737.0 533.0Q673.0 507.0 699.0 541.5Q725.0 576.0 720.0 590.5Q715.0 605.0 676.0 568.5Q637.0 532.0 660.0 598.5Q683.0 665.0 653.0 624.5Q623.0 584.0 614.0 588.0Q605.0 592.0 598.0 640.0Q591.0 688.0 579.5 618.5Q568.0 549.0 550.5 602.0Q533.0 655.0 522.5 641.5Q512.0 628.0 517.0 588.0Q522.0 548.0 478.5 601.5Q435.0 655.0 460.0 599.5Q485.0 544.0 464.5 551.0Q444.0 558.0 411.0 568.0Q378.0 578.0 427.5 533.5Q477.0 489.0 414.5 506.0Q352.0 523.0 373.5 502.0Q395.0 481.0 417.0 466.5Q439.0 452.0 376.0 443.5Q313.0 435.0 380.5 427.0Q448.0 419.0 415.0 402.5Q382.0 386.0 371.5 368.0Q361.0 350.0 418.0 365.0Q475.0 380.0 423.0 333.5Q371.0 287.0 412.0 303.5Q453.0 320.0 465.0 318.5Q477.0 317.0 456.5 266.5Q436.0 216.0 480.0 271.5Q524.0 327.0 516.0 277.5Q508.0 228.0 521.5 226.0Q535.0 224.0 551.0 269.0Q567.0 314.0 579.0 244.0Q591.0 174.0 597.0 230.5Q603.0 287.0 615.5 279.5Q628.0 272.0 655.0 239.5Q682.0 207.0 659.0 272.5Q636.0 338.0 680.5 296.0Q725.0 254.0 722.0 277.0Q719.0 300.0 700.5 328.5Q682.0 357.0 745.0 332.0Q808.0 307.0 755.0 346.0Q702.0 385.0 731.5 386.0Q761.0 387.0 787.5 396.0Q814.0 405.0 751.5 420.0Q689.0 435.0 756.0 450.5Q823.0 466.0 785.5 472.5Q748.0 479.0 730.0 484.0Q712.0 489.0 759.5 526.0Q807.0 563.0 741.5 535.5Q676.0 508.0 702.5 544.0Q729.0 580.0 724.0 594.5Q719.0 609.0 679.0 572.0Q639.0 535.0 662.5 603.0Q686.0 671.0 655.5 629.5Q625.0 588.0 615.5 592.5Q606.0 597.0 598.5 645.5Q591.0 694.0 579.5 623.5Q568.0 553.0 550.0 607.0Q532.0 661.0 521.0 647.5Q510.0 634.0 515.5 592.5Q521.0 551.0 476.5 606.0Q432.0 661.0 457.0 604.0Q482.0 547.0 461.5 554.0Q441.0 561.0 407.0 571.5Q373.0 582.0 423.5 536.0Q474.0 490.0 410.0 508.0Q346.0 526.0 368.0 504.0Q390.0 482.0 412.5 467.5Q435.0 453.0 370.5 444.0Q306.0 435.0 375.0 426.5Q444.0 418.0 410.5 401.0Q377.0 384.0 366.0 366.0Q355.0 348.0 413.5 363.5Q472.0 379.0 418.5 331.0Q365.0 283.0 407.5 300.0Q450.0 317.0 462.5 315.5Q475.0 314.0 453.5 262.0Q432.0 210.0 477.5 267.0Q523.0 324.0 514.5 273.0Q506.0 222.0 520.0 220.0Q534.0 218.0 550.5 264.5Q567.0 311.0 579.5 239.0Q592.0 167.0 598.0 225.0Q604.0 283.0 617.0 275.0Q630.0 267.0 657.5 234.0Q685.0 201.0 661.5 268.5Q638.0 336.0 683.5 292.5Q729.0 249.0 726.0 272.5Q723.0 296.0 704.0 325.5Q685.0 355.0 749.5 329.5Q814.0 304.0 759.5 343.5Q705.0 383.0 735.0 384.5Q765.0 386.0 792.5 395.0Q820.0 404.0 756.0 419.5Q692.0 435.0 761.0 451.0Q830.0 467.0 791.5 474.0Q753.0 481.0 734.0 485.5Q715.0 490.0 764.0 528.0Q813.0 566.0 746.0 538.0Q679.0 510.0 706.0 546.5Q733.0 583.0 728.0 598.5Q723.0 614.0 681.5 576.0Q640.0 538.0 664.5 607.5Q689.0 677.0 657.5 634.5Q626.0 592.0 616.5 596.5Q607.0 601.0 599.5 651.0Q592.0 701.0 579.5 628.5Q567.0 556.0 549.0 611.5Q531.0 667.0 520.0 653.0Q509.0 639.0 514.0 596.5Q519.0 554.0 473.5 610.5Q428.0 667.0 454.0 608.5Q480.0 550.0 458.5 557.0Q437.0 564.0 402.0 575.0Q367.0 586.0 419.5 539.0Q472.0 492.0 406.0 510.0Q340.0 528.0 363.0 506.0Q386.0 484.0 409.0 468.5Q432.0 453.0 365.5 444.0Q299.0 435.0 370.0 426.5Q441.0 418.0 406.5 400.5Q372.0 383.0 360.5 364.5Q349.0 346.0 409.5 361.5Q470.0 377.0 415.0 328.0Q360.0 279.0 403.0 296.5Q446.0 314.0 459.0 312.5Q472.0 311.0 450.5 257.5Q429.0 204.0 475.5 262.5Q522.0 321.0 513.0 269.0Q504.0 217.0 518.5 215.0Q533.0 213.0 550.0 260.5Q567.0 308.0 579.5 234.0Q592.0 160.0 598.5 219.5Q605.0 279.0 618.0 271.0Q631.0 263.0 659.5 229.0Q688.0 195.0 663.5 264.0Q639.0 333.0 686.0 288.5Q733.0 244.0 729.5 268.5Q726.0 293.0 706.5 323.0Q687.0 353.0 753.5 326.5Q820.0 300.0 764.0 341.0Q708.0 382.0 739.0 383.5Q770.0 385.0 798.0 394.0Q826.0 403.0 760.5 419.0Q695.0 435.0 765.5 451.5Q836.0 468.0 796.5 475.0Q757.0 482.0 738.0 487.0Q719.0 492.0 769.0 530.5Q819.0 569.0 750.0 540.5Q681.0 512.0 709.0 549.5Q737.0 587.0 732.0 602.5Q727.0 618.0 684.5 579.0Q642.0 540.0 667.0 611.5Q692.0 683.0 659.5 639.5Q627.0 596.0 617.0 600.5Q607.0 605.0 599.5 656.5Q592.0 708.0 579.5 633.5Q567.0 559.0 548.5 616.0Q530.0 673.0 518.5 658.5Q507.0 644.0 512.5 600.5Q518.0 557.0 471.0 615.0Q424.0 673.0 451.0 613.0Q478.0 553.0 456.0 560.5Q434.0 568.0 398.0 579.0Q362.0 590.0 415.5 541.5Q469.0 493.0 401.5 511.5Q334.0 530.0 357.5 507.5Q381.0 485.0 404.5 469.5Q428.0 454.0 360.0 444.5Q292.0 435.0 364.5 426.5Q437.0 418.0 402.0 400.0Q367.0 382.0 355.0 362.5Q343.0 343.0 405.0 359.5Q467.0 376.0 410.5 325.5Q354.0 275.0 398.5 293.0Q443.0 311.0 456.0 309.0Q469.0 307.0 447.0 252.5Q425.0 198.0 472.5 258.0Q520.0 318.0 511.0 264.5Q502.0 211.0 517.0 209.0Q532.0 207.0 549.5 256.0Q567.0 305.0 580.0 229.0Q593.0 153.0 599.5 214.0Q606.0 275.0 619.0 267.0Q632.0 259.0 661.5 224.0Q691.0 189.0 666.0 260.0Q641.0 331.0 689.0 285.0Q737.0 239.0 733.5 264.0Q730.0 289.0 710.0 320.0Q690.0 351.0 758.0 324.0Q826.0 297.0 769.0 339.0Q712.0 381.0 743.5 382.5Q775.0 384.0 804.0 393.0Q833.0 402.0 765.5 418.5Q698.0 435.0 770.5 452.0Q843.0 469.0 802.5 476.0Q762.0 483.0 742.0 488.0Q722.0 493.0 774.0 533.0Q826.0 573.0 755.0 543.5Q684.0 514.0 712.5 552.5Q741.0 591.0 735.5 607.0Q730.0 623.0 687.0 583.0Q644.0 543.0 669.5 616.5Q695.0 690.0 662.0 645.0Q629.0 600.0 618.5 604.5Q608.0 609.0 600.5 662.0Q593.0 715.0 580.0 638.5Q567.0 562.0 548.0 620.5Q529.0 679.0 517.0 664.0Q505.0 649.0 510.5 604.5Q516.0 560.0 468.0 619.5Q420.0 679.0 447.5 617.5Q475.0 556.0 452.5 563.5Q430.0 571.0 393.5 582.5Q357.0 594.0 411.5 544.5Q466.0 495.0 397.0 514.0Q328.0 533.0 352.0 509.5Q376.0 486.0 400.0 470.0Q424.0 454.0 354.5 444.5Q285.0 435.0 359.5 426.0Q434.0 417.0 398.0 398.5Q362.0 380.0 350.0 360.5Q338.0 341.0 401.0 357.5Q464.0 374.0 406.5 322.5Q349.0 271.0 394.5 289.5Q440.0 308.0 453.5 306.0Q467.0 304.0 444.0 248.5Q421.0 193.0 470.0 254.5Q519.0 316.0 509.5 261.0Q500.0 206.0 515.0 204.0Q530.0 202.0 548.5 251.5Q567.0 301.0 580.0 224.0Q593.0 147.0 599.5 209.0Q606.0 271.0 620.0 262.5Q634.0 254.0 664.0 218.5Q694.0 183.0 668.5 255.5Q643.0 328.0 692.0 281.0Q741.0 234.0 737.5 260.0Q734.0 286.0 713.5 317.5Q693.0 349.0 762.5 321.5Q832.0 294.0 773.5 337.0Q715.0 380.0 747.5 381.0Q780.0 382.0 809.5 392.0Q839.0 402.0 770.0 418.5Q701.0 435.0 775.0 452.5Q849.0 470.0 807.5 477.0Q766.0 484.0 746.0 489.5Q726.0 495.0 779.0 535.5Q832.0 576.0 759.5 546.0Q687.0 516.0 716.0 555.5Q745.0 595.0 739.5 611.0Q734.0 627.0 689.5 586.5Q645.0 546.0 671.5 621.0Q698.0 696.0 664.0 650.0Q630.0 604.0 619.5 609.0Q609.0 614.0 601.0 667.5Q593.0 721.0 580.0 643.0Q567.0 565.0 547.0 624.5Q527.0 684.0 515.5 669.0Q504.0 654.0 509.5 608.5Q515.0 563.0 466.0 623.5Q417.0 684.0 445.0 621.0Q473.0 558.0 450.0 566.0Q427.0 574.0 389.5 585.5Q352.0 597.0 408.0 546.5Q464.0 496.0 393.0 515.5Q322.0 535.0 346.5 511.0Q371.0 487.0 396.0 470.5Q421.0 454.0 349.5 444.5Q278.0 435.0 354.5 426.0Q431.0 417.0 394.0 398.0Q357.0 379.0 344.5 359.0Q332.0 339.0 397.0 356.0Q462.0 373.0 402.5 320.0Q343.0 267.0 390.0 286.0Q437.0 305.0 450.5 303.0Q464.0 301.0 440.5 244.0Q417.0 187.0 467.0 250.0Q517.0 313.0 508.0 256.5Q499.0 200.0 514.0 198.0Q529.0 196.0 547.5 247.0Q566.0 298.0 580.0 219.0Q594.0 140.0 600.5 203.5Q607.0 267.0 621.0 258.5Q635.0 250.0 666.0 213.5Q697.0 177.0 670.5 251.5Q644.0 326.0 694.5 278.0Q745.0 230.0 741.5 256.0Q738.0 282.0 717.0 314.5Q696.0 347.0 767.0 318.5Q838.0 290.0 778.0 334.0Q718.0 378.0 751.5 379.5Q785.0 381.0 815.0 391.0Q845.0 401.0 774.5 418.0Q704.0 435.0 780.0 452.5Q856.0 470.0 813.5 477.5Q771.0 485.0 750.0 490.5Q729.0 496.0 783.5 537.5Q838.0 579.0 763.5 548.5Q689.0 518.0 719.0 558.5Q749.0 599.0 743.5 615.5Q738.0 632.0 692.5 590.0Q647.0 548.0 674.0 625.0Q701.0 702.0 666.0 655.0Q631.0 608.0 620.5 613.0Q610.0 618.0 601.5 673.0Q593.0 728.0 580.0 648.0Q567.0 568.0 546.5 629.0Q526.0 690.0 514.0 675.0Q502.0 660.0 508.0 613.0Q514.0 566.0 463.5 628.0Q413.0 690.0 441.5 625.5Q470.0 561.0 446.5 569.0Q423.0 577.0 384.5 589.0Q346.0 601.0 403.5 549.5Q461.0 498.0 388.5 517.5Q316.0 537.0 341.0 513.0Q366.0 489.0 391.5 472.0Q417.0 455.0 344.0 445.0Q271.0 435.0 349.0 425.5Q427.0 416.0 389.5 397.0Q352.0 378.0 339.0 357.5Q326.0 337.0 392.5 354.0Q459.0 371.0 398.5 317.0Q338.0 263.0 385.5 282.5Q433.0 302.0 447.5 300.0Q462.0 298.0 438.0 239.5Q414.0 181.0 465.0 245.5Q516.0 310.0 506.5 252.5Q497.0 195.0 512.5 192.5Q528.0 190.0 547.0 242.5Q566.0 295.0 580.0 214.0Q594.0 133.0 601.0 198.0Q608.0 263.0 622.5 254.5Q637.0 246.0 668.0 208.5Q699.0 171.0 672.5 247.0Q646.0 323.0 697.5 274.0Q749.0 225.0 745.0 252.0Q741.0 279.0 720.0 312.0Q699.0 345.0 772.0 316.0Q845.0 287.0 783.5 332.0Q722.0 377.0 756.0 378.5Q790.0 380.0 821.0 390.0Q852.0 400.0 779.5 417.5Q707.0 435.0 784.5 453.0Q862.0 471.0 819.0 479.0Q776.0 487.0 754.5 492.5Q733.0 498.0 788.5 540.5Q844.0 583.0 768.0 551.5Q692.0 520.0 722.5 561.0Q753.0 602.0 747.5 619.5Q742.0 637.0 695.5 594.0Q649.0 551.0 676.5 629.5Q704.0 708.0 668.5 660.0Q633.0 612.0 622.0 617.0Q611.0 622.0 602.5 678.5Q594.0 735.0 580.0 653.0Q566.0 571.0 545.5 633.5Q525.0 696.0 512.5 680.5Q500.0 665.0 506.0 617.0Q512.0 569.0 460.5 632.5Q409.0 696.0 438.5 630.0Q468.0 564.0 444.0 572.5Q420.0 581.0 380.5 593.0Q341.0 605.0 399.5 552.0Q458.0 499.0 384.0 519.5Q310.0 540.0 336.0 515.0Q362.0 490.0 387.5 472.5Q413.0 455.0 338.5 445.0Q264.0 435.0 344.0 425.5Q424.0 416.0 385.0 396.0Q346.0 376.0 333.5 355.0Q321.0 334.0 388.5 352.0Q456.0 370.0 394.5 314.5Q333.0 259.0 381.5 279.0Q430.0 299.0 444.5 297.0Q459.0 295.0 434.5 235.0Q410.0 175.0 462.5 241.0Q515.0 307.0 505.0 248.0Q495.0 189.0 511.0 187.0Q527.0 185.0 546.5 238.5Q566.0 292.0 580.0 209.0Q594.0 126.0 601.5 192.5Q609.0 259.0 623.5 250.0Q638.0 241.0 670.0 203.0Q702.0 165.0 675.0 243.0Q648.0 321.0 700.5 270.5Q753.0 220.0 749.0 247.5Q745.0 275.0 723.5 309.0Q702.0 343.0 776.5 313.0Q851.0 283.0 788.0 329.5Q725.0 376.0 760.0 377.5Q795.0 379.0 826.5 389.0Q858.0 399.0 784.0 417.0Q710.0 435.0 789.5 453.5Q869.0 472.0 824.5 480.0Q780.0 488.0 758.5 493.5Q737.0 499.0 793.5 542.5Q850.0 586.0 772.5 554.0Q695.0 522.0 726.0 564.0Q757.0 606.0 751.0 623.5Q745.0 641.0 697.5 597.0Q650.0 553.0 678.0 633.5Q706.0 714.0 670.0 665.0Q634.0 616.0 622.5 621.0Q611.0 626.0 602.5 684.0Q594.0 742.0 580.0 658.0Q566.0 574.0 545.0 638.0Q524.0 702.0 511.5 686.0Q499.0 670.0 505.0 621.0Q511.0 572.0 458.0 637.0Q405.0 702.0 435.5 634.5Q466.0 567.0 441.0 575.5Q416.0 584.0 376.0 596.5Q336.0 609.0 396.0 555.0Q456.0 501.0 380.0 521.5Q304.0 542.0 330.5 516.5Q357.0 491.0 383.5 473.5Q410.0 456.0 333.5 445.5Q257.0 435.0 338.5 425.0Q420.0 415.0 380.5 395.0Q341.0 375.0 328.0 353.5Q315.0 332.0 384.5 350.0Q454.0 368.0 390.5 311.5Q327.0 255.0 377.0 275.5Q427.0 296.0 441.5 294.0Q456.0 292.0 431.0 230.5Q406.0 169.0 459.5 236.5Q513.0 304.0 503.0 244.0Q493.0 184.0 509.5 181.5Q526.0 179.0 546.0 234.0Q566.0 289.0 580.5 204.0Q595.0 119.0 602.0 187.0Q609.0 255.0 624.0 246.0Q639.0 237.0 672.0 198.0Q705.0 159.0 677.0 238.5Q649.0 318.0 703.0 266.5Q757.0 215.0 753.0 243.5Q749.0 272.0 726.5 306.5Q704.0 341.0 780.5 310.5Q857.0 280.0 792.5 327.0Q728.0 374.0 764.0 375.5Q800.0 377.0 832.0 387.5Q864.0 398.0 788.5 416.5Q713.0 435.0 794.0 454.0Q875.0 473.0 830.0 481.0Q785.0 489.0 762.5 494.5Q740.0 500.0 798.0 545.0Q856.0 590.0 776.5 557.0Q697.0 524.0 729.0 567.0Q761.0 610.0 755.0 628.0Q749.0 646.0 700.5 601.0Q652.0 556.0 680.5 638.5Q709.0 721.0 672.0 670.5Q635.0 620.0 623.5 625.0Q612.0 630.0 603.5 689.5Q595.0 749.0 580.5 663.0Q566.0 577.0 544.5 642.5Q523.0 708.0 510.0 691.5Q497.0 675.0 503.0 625.0Q509.0 575.0 455.5 641.5Q402.0 708.0 432.5 639.0Q463.0 570.0 438.0 578.5Q413.0 587.0 371.5 600.0Q330.0 613.0 391.5 557.5Q453.0 502.0 375.5 523.5Q298.0 545.0 325.0 518.5Q352.0 492.0 379.0 474.0Q406.0 456.0 328.0 445.5Q250.0 435.0 333.5 425.0Q417.0 415.0 376.5 394.5Q336.0 374.0 322.5 352.0Q309.0 330.0 380.0 348.5Q451.0 367.0 386.5 309.0Q322.0 251.0 373.0 272.0Q424.0 293.0 439.0 291.0Q454.0 289.0 428.5 226.0Q403.0 163.0 457.5 232.0Q512.0 301.0 502.0 239.5Q492.0 178.0 508.5 176.0Q525.0 174.0 545.5 229.5Q566.0 285.0 580.5 198.5Q595.0 112.0 602.5 182.0Q610.0 252.0 625.5 242.5Q641.0 233.0 674.5 193.0Q708.0 153.0 679.5 234.5Q651.0 316.0 706.0 263.5Q761.0 211.0 757.0 239.5Q753.0 268.0 730.0 303.5Q707.0 339.0 785.0 308.0Q863.0 277.0 797.5 325.0Q732.0 373.0 768.5 374.5Q805.0 376.0 837.5 387.0Q870.0 398.0 793.0 416.5Q716.0 435.0 799.0 454.5Q882.0 474.0 835.5 482.0Q789.0 490.0 766.5 496.0Q744.0 502.0 803.0 547.5Q862.0 593.0 781.0 559.5Q700.0 526.0 732.5 570.0Q765.0 614.0 759.0 632.0Q753.0 650.0 703.5 604.5Q654.0 559.0 683.0 643.0Q712.0 727.0 674.5 675.5Q637.0 624.0 625.0 629.5Q613.0 635.0 604.0 695.0Q595.0 755.0 580.5 667.5Q566.0 580.0 544.0 647.0Q522.0 714.0 508.5 697.0Q495.0 680.0 501.5 629.0Q508.0 578.0 453.0 646.0Q398.0 714.0 429.5 643.5Q461.0 573.0 435.0 582.0Q409.0 591.0 367.0 604.0Q325.0 617.0 388.0 560.0Q451.0 503.0 371.5 525.0Q292.0 547.0 319.5 520.0Q347.0 493.0 375.0 475.0Q403.0 457.0 323.0 446.0Q243.0 435.0 328.5 425.0Q414.0 415.0 372.5 393.5Q331.0 372.0 317.0 349.5Q303.0 327.0 375.5 346.0Q448.0 365.0 382.0 306.0Q316.0 247.0 368.0 268.5Q420.0 290.0 435.5 287.5Q451.0 285.0 425.0 221.5Q399.0 158.0 455.0 228.0Q511.0 298.0 500.5 235.5Q490.0 173.0 507.0 170.5Q524.0 168.0 544.5 225.0Q565.0 282.0 580.5 193.5Q596.0 105.0 603.5 176.5Q611.0 248.0 626.5 238.0Q642.0 228.0 676.5 187.0Q711.0 146.0 681.5 229.5Q652.0 313.0 708.5 259.5Q765.0 206.0 761.0 235.0Q757.0 264.0 733.5 300.5Q710.0 337.0 789.5 305.0Q869.0 273.0 802.0 322.5Q735.0 372.0 772.0 373.5Q809.0 375.0 843.0 386.0Q877.0 397.0 798.0 416.0Q719.0 435.0 803.5 455.0Q888.0 475.0 841.0 483.0Q794.0 491.0 770.5 497.0Q747.0 503.0 807.5 549.5Q868.0 596.0 785.5 562.0Q703.0 528.0 736.0 573.0Q769.0 618.0 763.0 636.5Q757.0 655.0 706.0 608.0Q655.0 561.0 685.0 647.0Q715.0 733.0 676.5 680.5Q638.0 628.0 626.0 633.5Q614.0 639.0 605.0 700.5Q596.0 762.0 581.0 672.5Q566.0 583.0 543.5 651.5Q521.0 720.0 507.5 703.0Q494.0 686.0 500.0 633.5Q506.0 581.0 450.0 650.5Q394.0 720.0 426.0 648.0Q458.0 576.0 432.0 585.0Q406.0 594.0 363.0 607.0Q320.0 620.0 384.0 562.5Q448.0 505.0 367.0 527.0Q286.0 549.0 314.5 522.0Q343.0 495.0 371.0 476.0Q399.0 457.0 317.5 446.0Q236.0 435.0 323.0 424.5Q410.0 414.0 368.0 392.5Q326.0 371.0 312.0 348.0Q298.0 325.0 372.0 344.5Q446.0 364.0 378.5 303.5Q311.0 243.0 364.0 265.0Q417.0 287.0 433.0 284.5Q449.0 282.0 422.0 217.0Q395.0 152.0 452.0 224.0Q509.0 296.0 498.5 231.5Q488.0 167.0 505.5 164.5Q523.0 162.0 544.0 220.5Q565.0 279.0 580.5 188.5Q596.0 98.0 603.5 171.0Q611.0 244.0 627.5 234.0Q644.0 224.0 679.0 182.0Q714.0 140.0 684.0 225.0Q654.0 310.0 711.5 255.5Q769.0 201.0 764.5 231.0Q760.0 261.0 736.5 298.0Q713.0 335.0 794.0 302.5Q875.0 270.0 806.5 320.0Q738.0 370.0 776.0 372.0Q814.0 374.0 848.5 385.0Q883.0 396.0 802.5 415.5Q722.0 435.0 808.5 455.0Q895.0 475.0 846.5 483.5Q798.0 492.0 774.5 498.5Q751.0 505.0 812.5 552.5Q874.0 600.0 789.5 565.0Q705.0 530.0 739.5 575.5Q774.0 621.0 767.5 640.0Q761.0 659.0 709.0 611.5Q657.0 564.0 687.5 651.5Q718.0 739.0 678.5 685.5Q639.0 632.0 627.0 637.5Q615.0 643.0 605.5 706.0Q596.0 769.0 580.5 677.5Q565.0 586.0 542.5 656.0Q520.0 726.0 506.0 708.5Q492.0 691.0 498.5 637.5Q505.0 584.0 447.5 655.0Q390.0 726.0 423.0 652.5Q456.0 579.0 429.0 588.0Q402.0 597.0 358.5 610.5Q315.0 624.0 380.0 565.0Q445.0 506.0 362.5 529.0Q280.0 552.0 309.0 524.0Q338.0 496.0 366.5 477.0Q395.0 458.0 312.0 446.5Q229.0 435.0 318.0 424.5Q407.0 414.0 364.0 392.0Q321.0 370.0 306.5 346.5Q292.0 323.0 367.5 342.5Q443.0 362.0 374.0 300.5Q305.0 239.0 359.5 261.5Q414.0 284.0 430.0 281.5Q446.0 279.0 419.0 212.5Q392.0 146.0 450.0 219.5Q508.0 293.0 497.0 227.5Q486.0 162.0 504.0 159.5Q522.0 157.0 543.5 216.5Q565.0 276.0 581.0 183.5Q597.0 91.0 604.5 165.5Q612.0 240.0 628.5 230.0Q645.0 220.0 680.5 177.0Q716.0 134.0 686.0 221.0Q656.0 308.0 714.5 252.0Q773.0 196.0 768.5 226.5Q764.0 257.0 740.0 295.0Q716.0 333.0 798.5 300.0Q881.0 267.0 811.5 318.0Q742.0 369.0 780.5 370.5Q819.0 372.0 854.0 383.5Q889.0 395.0 807.0 415.0Q725.0 435.0 813.0 455.5Q901.0 476.0 852.0 485.0Q803.0 494.0 779.0 500.0Q755.0 506.0 817.5 554.5Q880.0 603.0 794.0 567.5Q708.0 532.0 743.0 578.5Q778.0 625.0 771.0 644.5Q764.0 664.0 711.5 615.5Q659.0 567.0 690.0 656.0Q721.0 745.0 680.5 690.5Q640.0 636.0 628.0 641.5Q616.0 647.0 606.0 711.5Q596.0 776.0 580.5 682.5Q565.0 589.0 541.5 660.5Q518.0 732.0 504.0 714.0Q490.0 696.0 497.0 641.5Q504.0 587.0 445.5 659.5Q387.0 732.0 420.5 657.0Q454.0 582.0 426.5 591.0Q399.0 600.0 354.0 614.0Q309.0 628.0 376.0 568.0Q443.0 508.0 359.0 531.0Q275.0 554.0 304.0 525.5Q333.0 497.0 362.5 477.5Q392.0 458.0 307.0 446.5Q222.0 435.0 312.5 424.0Q403.0 413.0 359.5 390.5Q316.0 368.0 301.0 344.5Q286.0 321.0 363.0 341.0Q440.0 361.0 370.0 298.0Q300.0 235.0 355.5 258.0Q411.0 281.0 427.0 278.5Q443.0 276.0 415.5 208.0Q388.0 140.0 447.5 215.0Q507.0 290.0 495.5 223.0Q484.0 156.0 502.5 153.5Q521.0 151.0 543.0 212.0Q565.0 273.0 581.0 178.5Q597.0 84.0 605.0 160.0Q613.0 236.0 629.5 225.5Q646.0 215.0 682.5 171.5Q719.0 128.0 688.0 216.5Q657.0 305.0 717.0 248.0Q777.0 191.0 772.5 222.5Q768.0 254.0 743.0 292.5Q718.0 331.0 803.0 297.0Q888.0 263.0 816.5 315.5Q745.0 368.0 784.5 369.5Q824.0 371.0 860.0 382.5Q896.0 394.0 812.0 414.5Q728.0 435.0 818.0 456.0Q908.0 477.0 857.5 486.0Q807.0 495.0 782.5 501.5Q758.0 508.0 822.5 557.0Q887.0 606.0 799.0 570.0Q711.0 534.0 746.5 581.5Q782.0 629.0 775.0 648.5Q768.0 668.0 714.0 618.5Q660.0 569.0 692.0 660.5Q724.0 752.0 683.0 696.0Q642.0 640.0 629.0 646.0Q616.0 652.0 606.5 717.0Q597.0 782.0 581.0 687.0Q565.0 592.0 541.0 665.0Q517.0 738.0 503.0 719.5Q489.0 701.0 495.5 645.5Q502.0 590.0 442.5 664.0Q383.0 738.0 417.0 661.5Q451.0 585.0 423.0 594.5Q395.0 604.0 349.5 618.0Q304.0 632.0 372.0 570.5Q440.0 509.0 354.5 532.5Q269.0 556.0 298.5 527.0Q328.0 498.0 358.0 478.5Q388.0 459.0 301.5 447.0Q215.0 435.0 307.5 424.0Q400.0 413.0 355.5 390.0Q311.0 367.0 296.0 342.5Q281.0 318.0 359.5 338.5Q438.0 359.0 366.5 295.0Q295.0 231.0 351.0 254.5Q407.0 278.0 424.0 275.5Q441.0 273.0 412.5 203.5Q384.0 134.0 444.5 210.5Q505.0 287.0 494.0 219.0Q483.0 151.0 501.5 148.5Q520.0 146.0 542.5 207.5Q565.0 269.0 581.0 173.0Q597.0 77.0 605.5 154.5Q614.0 232.0 631.0 221.5Q648.0 211.0 685.0 166.5Q722.0 122.0 690.5 212.5Q659.0 303.0 720.0 245.0Q781.0 187.0 776.5 218.5Q772.0 250.0 746.5 289.5Q721.0 329.0 807.5 294.5Q894.0 260.0 821.5 313.0Q749.0 366.0 789.0 368.0Q829.0 370.0 865.5 382.0Q902.0 394.0 816.5 414.5Q731.0 435.0 822.5 456.5Q914.0 478.0 863.0 487.0Q812.0 496.0 787.0 502.5Q762.0 509.0 827.5 559.5Q893.0 610.0 803.0 572.5Q713.0 535.0 749.5 584.0Q786.0 633.0 779.0 653.0Q772.0 673.0 717.0 622.5Q662.0 572.0 694.5 665.0Q727.0 758.0 685.0 701.0Q643.0 644.0 630.0 650.0Q617.0 656.0 607.0 722.5Q597.0 789.0 581.0 692.5Q565.0 596.0 540.5 669.5Q516.0 743.0 501.5 724.5Q487.0 706.0 494.0 649.5Q501.0 593.0 440.0 668.0Q379.0 743.0 414.0 665.5Q449.0 588.0 420.5 597.5Q392.0 607.0 345.5 621.5Q299.0 636.0 368.0 573.5Q437.0 511.0 350.0 535.0Q263.0 559.0 293.0 529.5Q323.0 500.0 353.5 479.5Q384.0 459.0 296.0 447.0Q208.0 435.0 302.5 423.5Q397.0 412.0 351.0 389.0Q305.0 366.0 290.0 341.0Q275.0 316.0 355.0 337.0Q435.0 358.0 362.0 292.5Q289.0 227.0 346.5 250.5Q404.0 274.0 421.0 272.0Q438.0 270.0 409.5 199.5Q381.0 129.0 442.5 206.5Q504.0 284.0 492.5 214.5Q481.0 145.0 500.0 142.5Q519.0 140.0 541.5 203.0Q564.0 266.0 581.0 168.5Q598.0 71.0 606.0 149.5Q614.0 228.0 631.5 217.5Q649.0 207.0 687.0 161.5Q725.0 116.0 693.0 208.0Q661.0 300.0 722.5 241.0Q784.0 182.0 780.0 214.5Q776.0 247.0 750.0 287.0Q724.0 327.0 812.0 291.5Q900.0 256.0 826.0 310.5Q752.0 365.0 793.0 367.0Q834.0 369.0 871.0 381.0Q908.0 393.0 821.0 414.0Q734.0 435.0 827.5 457.0Q921.0 479.0 869.0 488.0Q817.0 497.0 791.0 503.5Q765.0 510.0 832.0 561.5Q899.0 613.0 807.5 575.0Q716.0 537.0 753.0 587.0Q790.0 637.0 783.0 657.5Q776.0 678.0 720.0 626.0Q664.0 574.0 697.0 669.0Q730.0 764.0 687.0 706.0Q644.0 648.0 631.0 654.0Q618.0 660.0 608.0 728.0Q598.0 796.0 581.5 697.5Q565.0 599.0 540.0 674.0Q515.0 749.0 500.0 730.0Q485.0 711.0 492.0 653.5Q499.0 596.0 437.5 672.5Q376.0 749.0 411.0 670.0Q446.0 591.0 417.0 600.5Q388.0 610.0 341.0 625.0Q294.0 640.0 364.5 576.0Q435.0 512.0 346.0 536.5Q257.0 561.0 288.0 531.0Q319.0 501.0 350.0 480.5Q381.0 460.0 291.0 447.5Q201.0 435.0 297.0 423.5Q393.0 412.0 346.5 388.0Q300.0 364.0 284.5 339.0Q269.0 314.0 350.5 335.5Q432.0 357.0 358.0 290.0Q284.0 223.0 342.5 247.0Q401.0 271.0 418.5 269.0Q436.0 267.0 406.5 195.0Q377.0 123.0 440.0 202.0Q503.0 281.0 491.0 210.5Q479.0 140.0 498.5 137.0Q518.0 134.0 541.0 198.5Q564.0 263.0 581.0 163.5Q598.0 64.0 606.5 144.0Q615.0 224.0 633.0 213.0Q651.0 202.0 689.5 156.0Q728.0 110.0 695.0 204.0Q662.0 298.0 725.0 237.5Q788.0 177.0 783.5 210.0Q779.0 243.0 753.0 284.0Q727.0 325.0 816.5 289.0Q906.0 253.0 830.5 308.5Q755.0 364.0 797.0 365.5Q839.0 367.0 876.5 379.5Q914.0 392.0 825.5 413.5Q737.0 435.0 832.0 457.5Q927.0 480.0 874.0 489.0Q821.0 498.0 795.0 505.0Q769.0 512.0 837.0 564.0Q905.0 616.0 812.0 577.5Q719.0 539.0 756.5 589.5Q794.0 640.0 786.5 661.0Q779.0 682.0 722.0 629.5Q665.0 577.0 699.0 673.5Q733.0 770.0 689.5 711.0Q646.0 652.0 632.5 658.0Q619.0 664.0 608.5 733.5Q598.0 803.0 581.5 702.5Q565.0 602.0 539.5 678.5Q514.0 755.0 498.5 736.0Q483.0 717.0 490.5 658.0Q498.0 599.0 435.0 677.0Q372.0 755.0 408.0 674.0Q444.0 593.0 414.5 603.0Q385.0 613.0 336.5 628.0Q288.0 643.0 360.0 578.5Q432.0 514.0 341.5 538.5Q251.0 563.0 282.5 532.5Q314.0 502.0 345.5 481.0Q377.0 460.0 285.5 447.5Q194.0 435.0 292.0 423.5Q390.0 412.0 342.5 387.5Q295.0 363.0 279.0 337.5Q263.0 312.0 346.5 333.5Q430.0 355.0 354.0 287.0Q278.0 219.0 338.0 243.5Q398.0 268.0 415.5 265.5Q433.0 263.0 403.0 190.0Q373.0 117.0 437.0 197.5Q501.0 278.0 489.0 206.0Q477.0 134.0 497.0 131.5Q517.0 129.0 540.5 194.5Q564.0 260.0 581.5 158.5Q599.0 57.0 607.5 138.5Q616.0 220.0 634.0 209.0Q652.0 198.0 691.5 151.0Q731.0 104.0 697.5 199.5Q664.0 295.0 728.0 233.5Q792.0 172.0 787.5 205.5Q783.0 239.0 756.5 281.0Q730.0 323.0 821.0 286.5Q912.0 250.0 835.5 306.0Q759.0 362.0 801.5 364.0Q844.0 366.0 882.5 378.5Q921.0 391.0 830.5 413.0Q740.0 435.0 837.0 457.5Q934.0 480.0 880.0 489.5Q826.0 499.0 799.5 506.0Q773.0 513.0 842.0 566.5Q911.0 620.0 816.0 580.5Q721.0 541.0 759.5 592.5Q798.0 644.0 790.5 665.5Q783.0 687.0 725.0 633.5Q667.0 580.0 701.5 678.0Q736.0 776.0 691.5 716.0Q647.0 656.0 633.5 662.5Q620.0 669.0 609.5 739.5Q599.0 810.0 581.5 707.5Q564.0 605.0 538.5 683.0Q513.0 761.0 497.5 741.5Q482.0 722.0 489.5 662.0Q497.0 602.0 432.5 681.5Q368.0 761.0 404.5 678.5Q441.0 596.0 411.0 606.5Q381.0 617.0 332.0 632.0Q283.0 647.0 356.5 581.0Q430.0 515.0 337.5 540.5Q245.0 566.0 277.0 534.5Q309.0 503.0 341.0 481.5Q373.0 460.0 280.0 447.5Q187.0 435.0 286.5 423.0Q386.0 411.0 338.0 386.5Q290.0 362.0 274.0 335.5Q258.0 309.0 342.5 331.5Q427.0 354.0 350.0 284.5Q273.0 215.0 333.5 240.0Q394.0 265.0 412.0 262.5Q430.0 260.0 399.5 185.5Q369.0 111.0 434.5 193.5Q500.0 276.0 487.5 202.5Q475.0 129.0 495.5 126.0Q516.0 123.0 540.0 190.0"/>
  </g>
</svg>
