<svg version="1.1" width="1150" height="870" xmlns="http://www.w3.org/2000/svg">
  <!-- Seed: 8966320122321858035 -->
  <!-- Size: SvgSize.Size9x12 -->
  <!-- Params:
    draw: True
    padding: 0
    spacing: 5
    points_per_step_ring: 50
    bump_range: [RangeFloat] min: 0 max: 0.1
    bump_mult: [RangeInt] min: 2 max: 20
  -->
  <g stroke="black" fill="none">
    <path d="M575.5 435.0Q576.0 435.0 576.0 435.5Q576.0 436.0 575.5 436.5Q575.0 437.0 575.0 436.5Q575.0 436.0 574.5 436.5Q574.0 437.0 574.0 436.5Q574.0 436.0 573.5 436.5Q573.0 437.0 572.5 437.0Q572.0 437.0 572.5 436.5Q573.0 436.0 573.0 435.5Q573.0 435.0 572.0 435.5Q571.0 436.0 571.0 435.0Q571.0 434.0 572.0 434.0Q573.0 434.0 572.0 433.5Q571.0 433.0 571.0 432.5Q571.0 432.0 572.0 432.5Q573.0 433.0 573.5 433.0Q574.0 433.0 573.5 431.5Q573.0 430.0 574.0 432.0Q575.0 434.0 574.5 431.5Q574.0 429.0 574.5 430.5Q575.0 432.0 575.5 430.0Q576.0 428.0 577.0 428.5Q578.0 429.0 577.5 430.5Q577.0 432.0 577.0 432.5Q577.0 433.0 578.5 431.5Q580.0 430.0 581.0 430.5Q582.0 431.0 580.0 432.5Q578.0 434.0 580.5 434.0Q583.0 434.0 583.0 435.0Q583.0 436.0 581.0 436.0Q579.0 436.0 578.5 436.0Q578.0 436.0 580.5 437.5Q583.0 439.0 582.5 440.0Q582.0 441.0 580.0 439.5Q578.0 438.0 577.5 438.0Q577.0 438.0 578.0 441.0Q579.0 444.0 578.0 444.5Q577.0 445.0 576.0 442.5Q575.0 440.0 575.0 439.5Q575.0 439.0 574.0 442.5Q573.0 446.0 571.5 445.5Q570.0 445.0 571.0 442.0Q572.0 439.0 569.0 441.0Q566.0 443.0 565.5 442.0Q565.0 441.0 567.5 439.0Q570.0 437.0 570.0 436.5Q570.0 436.0 566.5 436.5Q563.0 437.0 568.5 436.0Q574.0 435.0 568.5 434.0Q563.0 433.0 566.0 433.0Q569.0 433.0 569.5 433.0Q570.0 433.0 566.5 431.0Q563.0 429.0 568.5 431.5Q574.0 434.0 569.5 430.0Q565.0 426.0 568.0 428.0Q571.0 430.0 571.5 430.0Q572.0 430.0 570.5 426.0Q569.0 422.0 570.5 421.5Q572.0 421.0 573.5 424.5Q575.0 428.0 575.0 428.5Q575.0 429.0 576.5 424.5Q578.0 420.0 579.5 420.5Q581.0 421.0 580.0 425.0Q579.0 429.0 579.0 429.5Q579.0 430.0 583.0 427.0Q587.0 424.0 581.5 429.0Q576.0 434.0 582.5 430.5Q589.0 427.0 585.5 429.5Q582.0 432.0 582.0 432.5Q582.0 433.0 587.0 433.0Q592.0 433.0 584.5 434.0Q577.0 435.0 584.0 436.0Q591.0 437.0 587.0 437.0Q583.0 437.0 582.5 437.5Q582.0 438.0 586.0 441.0Q590.0 444.0 589.0 445.5Q588.0 447.0 584.0 444.5Q580.0 442.0 579.5 441.5Q579.0 441.0 581.0 446.5Q583.0 452.0 579.5 444.5Q576.0 437.0 577.0 445.0Q578.0 453.0 577.0 448.5Q576.0 444.0 575.5 443.5Q575.0 443.0 573.0 448.5Q571.0 454.0 569.0 453.0Q567.0 452.0 568.5 447.5Q570.0 443.0 570.0 442.0Q570.0 441.0 565.0 445.0Q560.0 449.0 559.0 447.0Q558.0 445.0 562.0 442.0Q566.0 439.0 566.5 438.0Q567.0 437.0 560.5 437.5Q554.0 438.0 554.0 435.0Q554.0 432.0 559.5 432.5Q565.0 433.0 566.0 432.5Q567.0 432.0 561.5 428.0Q556.0 424.0 557.5 422.0Q559.0 420.0 563.5 423.5Q568.0 427.0 569.0 427.0Q570.0 427.0 567.5 420.5Q565.0 414.0 568.0 413.5Q571.0 413.0 572.5 418.5Q574.0 424.0 575.0 424.5Q576.0 425.0 577.5 418.5Q579.0 412.0 577.5 422.5Q576.0 433.0 580.5 423.5Q585.0 414.0 583.0 420.0Q581.0 426.0 581.0 426.5Q581.0 427.0 587.0 422.5Q593.0 418.0 585.0 426.0Q577.0 434.0 586.5 428.5Q596.0 423.0 591.0 427.0Q586.0 431.0 585.5 431.5Q585.0 432.0 592.5 432.0Q600.0 432.0 589.0 433.5Q578.0 435.0 589.0 436.5Q600.0 438.0 593.5 438.0Q587.0 438.0 586.0 438.5Q585.0 439.0 591.5 443.5Q598.0 448.0 587.5 442.5Q577.0 437.0 585.5 445.0Q594.0 453.0 588.5 449.0Q583.0 445.0 582.0 444.5Q581.0 444.0 583.5 451.5Q586.0 459.0 581.0 448.5Q576.0 438.0 578.0 449.5Q580.0 461.0 578.0 454.5Q576.0 448.0 575.0 447.0Q574.0 446.0 572.0 454.0Q570.0 462.0 572.0 450.0Q574.0 438.0 568.5 449.0Q563.0 460.0 565.5 453.0Q568.0 446.0 568.0 445.0Q568.0 444.0 561.0 449.5Q554.0 455.0 552.0 452.0Q550.0 449.0 556.0 444.5Q562.0 440.0 562.5 439.0Q563.0 438.0 554.5 438.5Q546.0 439.0 559.0 437.0Q572.0 435.0 559.0 433.0Q546.0 431.0 553.5 431.5Q561.0 432.0 562.0 431.0Q563.0 430.0 555.5 425.0Q548.0 420.0 560.0 426.5Q572.0 433.0 562.5 424.0Q553.0 415.0 559.5 419.5Q566.0 424.0 567.0 424.0Q568.0 424.0 565.0 415.5Q562.0 407.0 568.0 419.5Q574.0 432.0 571.5 418.5Q569.0 405.0 571.5 412.5Q574.0 420.0 575.0 421.0Q576.0 422.0 578.5 412.5Q581.0 403.0 578.5 417.5Q576.0 432.0 582.0 419.5Q588.0 407.0 585.5 414.5Q583.0 422.0 583.5 423.5Q584.0 425.0 591.5 418.5Q599.0 412.0 588.5 422.5Q578.0 433.0 590.5 426.5Q603.0 420.0 596.0 424.5Q589.0 429.0 588.5 430.5Q588.0 432.0 598.5 431.5Q609.0 431.0 608.5 435.0Q608.0 439.0 599.0 439.0Q590.0 439.0 589.0 439.5Q588.0 440.0 596.5 446.0Q605.0 452.0 591.5 444.5Q578.0 437.0 589.0 447.5Q600.0 458.0 592.5 453.0Q585.0 448.0 584.0 447.5Q583.0 447.0 586.5 457.0Q590.0 467.0 585.5 468.0Q581.0 469.0 578.5 460.5Q576.0 452.0 575.0 451.0Q574.0 450.0 571.0 460.5Q568.0 471.0 571.0 455.0Q574.0 439.0 567.0 453.0Q560.0 467.0 563.0 458.0Q566.0 449.0 565.5 448.0Q565.0 447.0 556.5 453.5Q548.0 460.0 545.5 456.0Q543.0 452.0 551.0 446.5Q559.0 441.0 559.5 440.0Q560.0 439.0 548.5 439.5Q537.0 440.0 554.0 437.5Q571.0 435.0 554.5 432.5Q538.0 430.0 548.0 430.5Q558.0 431.0 559.0 430.0Q560.0 429.0 550.5 422.5Q541.0 416.0 544.0 412.5Q547.0 409.0 555.0 415.0Q563.0 421.0 564.5 421.0Q566.0 421.0 562.0 410.0Q558.0 399.0 566.0 415.0Q574.0 431.0 571.0 414.0Q568.0 397.0 571.0 406.5Q574.0 416.0 575.0 417.0Q576.0 418.0 579.5 406.5Q583.0 395.0 579.5 413.0Q576.0 431.0 584.0 415.0Q592.0 399.0 588.5 409.0Q585.0 419.0 585.5 420.5Q586.0 422.0 595.5 414.5Q605.0 407.0 607.5 411.5Q610.0 416.0 601.5 422.0Q593.0 428.0 592.5 429.5Q592.0 431.0 604.5 430.5Q617.0 430.0 598.0 432.5Q579.0 435.0 597.5 437.5Q616.0 440.0 605.0 440.0Q594.0 440.0 592.5 440.5Q591.0 441.0 602.0 448.5Q613.0 456.0 596.0 447.0Q579.0 438.0 592.5 451.0Q606.0 464.0 597.0 457.5Q588.0 451.0 586.5 450.5Q585.0 450.0 589.5 462.5Q594.0 475.0 585.0 457.0Q576.0 439.0 579.5 458.0Q583.0 477.0 579.5 466.5Q576.0 456.0 575.0 454.5Q574.0 453.0 570.5 466.0Q567.0 479.0 561.5 476.5Q556.0 474.0 560.0 463.5Q564.0 453.0 563.5 451.0Q563.0 449.0 552.5 457.5Q542.0 466.0 556.5 452.0Q571.0 438.0 553.5 447.0Q536.0 456.0 545.5 449.5Q555.0 443.0 556.0 441.5Q557.0 440.0 543.0 440.5Q529.0 441.0 549.5 438.0Q570.0 435.0 550.0 432.0Q530.0 429.0 542.0 429.5Q554.0 430.0 555.5 429.0Q557.0 428.0 545.0 420.0Q533.0 412.0 537.0 407.5Q541.0 403.0 551.0 410.5Q561.0 418.0 562.5 418.0Q564.0 418.0 559.0 404.5Q554.0 391.0 560.0 390.0Q566.0 389.0 570.0 400.5Q574.0 412.0 575.0 413.5Q576.0 415.0 580.0 401.0Q584.0 387.0 580.5 408.5Q577.0 430.0 586.0 411.0Q595.0 392.0 591.0 404.0Q587.0 416.0 587.5 417.5Q588.0 419.0 599.5 410.0Q611.0 401.0 595.0 416.5Q579.0 432.0 598.5 422.0Q618.0 412.0 607.5 419.0Q597.0 426.0 596.0 428.0Q595.0 430.0 610.0 429.5Q625.0 429.0 602.5 432.0Q580.0 435.0 602.0 438.0Q624.0 441.0 611.0 441.0Q598.0 441.0 596.5 442.0Q595.0 443.0 607.5 451.5Q620.0 460.0 616.0 464.5Q612.0 469.0 601.0 461.5Q590.0 454.0 588.5 453.5Q587.0 453.0 592.0 467.5Q597.0 482.0 587.0 461.0Q577.0 440.0 581.0 462.5Q585.0 485.0 581.0 472.5Q577.0 460.0 575.5 458.5Q574.0 457.0 569.5 472.0Q565.0 487.0 569.0 463.5Q573.0 440.0 563.0 461.0Q553.0 482.0 557.5 469.0Q562.0 456.0 561.5 454.0Q561.0 452.0 548.5 462.0Q536.0 472.0 532.5 466.0Q529.0 460.0 540.0 452.0Q551.0 444.0 552.0 442.5Q553.0 441.0 536.5 441.5Q520.0 442.0 544.5 438.5Q569.0 435.0 545.5 431.5Q522.0 428.0 536.0 428.5Q550.0 429.0 552.0 428.0Q554.0 427.0 540.0 417.5Q526.0 408.0 548.0 420.0Q570.0 432.0 552.5 415.0Q535.0 398.0 546.5 406.5Q558.0 415.0 560.5 415.0Q563.0 415.0 557.0 399.5Q551.0 384.0 558.0 382.5Q565.0 381.0 569.0 394.5Q573.0 408.0 574.5 409.5Q576.0 411.0 581.0 394.5Q586.0 378.0 581.5 403.5Q577.0 429.0 588.0 406.5Q599.0 384.0 594.0 398.0Q589.0 412.0 589.5 414.5Q590.0 417.0 604.0 406.0Q618.0 395.0 599.0 413.5Q580.0 432.0 602.5 420.0Q625.0 408.0 613.0 416.5Q601.0 425.0 600.0 427.0Q599.0 429.0 616.5 428.5Q634.0 428.0 607.5 431.5Q581.0 435.0 606.5 438.5Q632.0 442.0 617.0 442.0Q602.0 442.0 600.0 443.0Q598.0 444.0 613.0 454.0Q628.0 464.0 604.0 451.5Q580.0 439.0 599.0 457.0Q618.0 475.0 605.5 466.0Q593.0 457.0 590.5 456.5Q588.0 456.0 594.5 473.0Q601.0 490.0 589.0 465.5Q577.0 441.0 581.5 467.0Q586.0 493.0 581.5 478.5Q577.0 464.0 575.0 462.0Q573.0 460.0 568.0 478.0Q563.0 496.0 568.0 468.5Q573.0 441.0 561.0 465.0Q549.0 489.0 554.0 474.5Q559.0 460.0 559.0 457.5Q559.0 455.0 544.0 466.5Q529.0 478.0 549.5 458.5Q570.0 439.0 546.0 451.5Q522.0 464.0 535.0 455.0Q548.0 446.0 549.0 443.5Q550.0 441.0 531.0 442.0Q512.0 443.0 513.0 435.0Q514.0 427.0 530.0 427.5Q546.0 428.0 548.0 426.5Q550.0 425.0 534.5 414.5Q519.0 404.0 544.5 417.5Q570.0 431.0 549.5 411.5Q529.0 392.0 542.5 402.0Q556.0 412.0 558.5 412.0Q561.0 412.0 554.0 394.0Q547.0 376.0 560.0 402.5Q573.0 429.0 568.0 401.0Q563.0 373.0 568.0 388.5Q573.0 404.0 575.0 406.0Q577.0 408.0 582.0 389.0Q587.0 370.0 594.5 373.5Q602.0 377.0 597.0 393.0Q592.0 409.0 592.0 411.5Q592.0 414.0 608.0 401.5Q624.0 389.0 602.0 410.0Q580.0 431.0 606.0 417.5Q632.0 404.0 618.0 413.5Q604.0 423.0 603.0 425.5Q602.0 428.0 622.0 427.5Q642.0 427.0 612.0 431.0Q582.0 435.0 611.0 439.0Q640.0 443.0 623.0 443.0Q606.0 443.0 603.5 444.0Q601.0 445.0 618.0 456.5Q635.0 468.0 608.0 453.5Q581.0 439.0 602.5 460.0Q624.0 481.0 610.0 470.5Q596.0 460.0 593.0 459.5Q590.0 459.0 597.5 478.5Q605.0 498.0 591.0 470.0Q577.0 442.0 582.5 471.5Q588.0 501.0 582.5 484.5Q577.0 468.0 575.0 466.0Q573.0 464.0 567.5 484.0Q562.0 504.0 567.5 473.0Q573.0 442.0 559.5 469.5Q546.0 497.0 551.5 480.0Q557.0 463.0 556.5 460.0Q556.0 457.0 539.5 470.5Q523.0 484.0 546.0 461.5Q569.0 439.0 541.5 453.5Q514.0 468.0 529.0 457.5Q544.0 447.0 545.0 444.5Q546.0 442.0 525.0 443.0Q504.0 444.0 536.0 439.5Q568.0 435.0 537.0 430.5Q506.0 426.0 524.0 426.5Q542.0 427.0 544.5 425.5Q547.0 424.0 529.0 412.0Q511.0 400.0 540.0 415.5Q569.0 431.0 546.0 409.0Q523.0 387.0 538.0 398.0Q553.0 409.0 556.0 409.0Q559.0 409.0 551.5 388.5Q544.0 368.0 558.5 398.0Q573.0 428.0 567.5 396.5Q562.0 365.0 567.5 383.0Q573.0 401.0 575.0 403.0Q577.0 405.0 583.0 383.5Q589.0 362.0 583.0 395.0Q577.0 428.0 591.5 399.0Q606.0 370.0 600.0 387.5Q594.0 405.0 594.5 408.0Q595.0 411.0 612.5 397.0Q630.0 383.0 605.5 406.5Q581.0 430.0 610.0 415.0Q639.0 400.0 623.5 411.0Q608.0 422.0 606.5 424.5Q605.0 427.0 628.0 426.0Q651.0 425.0 617.0 430.0Q583.0 435.0 615.5 439.5Q648.0 444.0 629.0 444.0Q610.0 444.0 607.0 445.5Q604.0 447.0 623.5 459.5Q643.0 472.0 612.0 456.0Q581.0 440.0 605.5 463.0Q630.0 486.0 614.0 474.5Q598.0 463.0 595.0 462.5Q592.0 462.0 600.0 484.0Q608.0 506.0 592.5 474.5Q577.0 443.0 583.0 476.0Q589.0 509.0 583.0 490.0Q577.0 471.0 575.0 469.0Q573.0 467.0 566.5 489.5Q560.0 512.0 566.5 477.5Q573.0 443.0 557.5 473.5Q542.0 504.0 548.5 485.0Q555.0 466.0 554.5 463.0Q554.0 460.0 535.5 475.0Q517.0 490.0 542.5 465.0Q568.0 440.0 537.5 456.0Q507.0 472.0 523.5 460.5Q540.0 449.0 541.5 446.0Q543.0 443.0 519.0 444.0Q495.0 445.0 531.0 440.0Q567.0 435.0 532.5 430.0Q498.0 425.0 518.0 425.5Q538.0 426.0 541.0 424.5Q544.0 423.0 524.0 409.5Q504.0 396.0 536.0 413.0Q568.0 430.0 542.5 405.5Q517.0 381.0 534.0 393.5Q551.0 406.0 554.0 406.5Q557.0 407.0 548.5 384.0Q540.0 361.0 556.0 394.0Q572.0 427.0 566.0 392.0Q560.0 357.0 566.5 377.0Q573.0 397.0 575.0 399.0Q577.0 401.0 584.0 377.0Q591.0 353.0 584.5 390.0Q578.0 427.0 593.5 394.5Q609.0 362.0 602.5 382.0Q596.0 402.0 596.5 405.5Q597.0 409.0 616.5 393.5Q636.0 378.0 609.0 404.0Q582.0 430.0 614.0 413.0Q646.0 396.0 629.0 408.5Q612.0 421.0 610.5 423.5Q609.0 426.0 634.0 425.0Q659.0 424.0 621.5 429.5Q584.0 435.0 620.5 440.0Q657.0 445.0 635.0 445.0Q613.0 445.0 610.5 446.5Q608.0 448.0 629.0 462.0Q650.0 476.0 616.0 458.0Q582.0 440.0 609.0 466.0Q636.0 492.0 618.5 479.0Q601.0 466.0 597.5 465.5Q594.0 465.0 603.0 489.0Q612.0 513.0 595.0 478.0Q578.0 443.0 584.5 480.0Q591.0 517.0 584.5 496.0Q578.0 475.0 575.5 473.0Q573.0 471.0 566.0 496.0Q559.0 521.0 565.5 482.0Q572.0 443.0 555.5 477.5Q539.0 512.0 546.0 491.0Q553.0 470.0 552.5 466.5Q552.0 463.0 531.5 479.0Q511.0 495.0 505.5 485.5Q500.0 476.0 518.5 463.0Q537.0 450.0 538.5 447.0Q540.0 444.0 513.5 445.0Q487.0 446.0 526.5 440.5Q566.0 435.0 527.5 429.5Q489.0 424.0 512.0 424.5Q535.0 425.0 538.0 423.0Q541.0 421.0 518.5 406.5Q496.0 392.0 503.5 383.5Q511.0 375.0 529.5 389.0Q548.0 403.0 551.5 403.5Q555.0 404.0 545.5 378.5Q536.0 353.0 554.0 389.5Q572.0 426.0 565.5 387.5Q559.0 349.0 565.5 371.0Q572.0 393.0 574.5 395.5Q577.0 398.0 584.5 371.5Q592.0 345.0 585.0 385.5Q578.0 426.0 595.5 390.5Q613.0 355.0 605.5 377.0Q598.0 399.0 598.5 402.5Q599.0 406.0 620.5 389.0Q642.0 372.0 612.5 400.5Q583.0 429.0 618.5 410.5Q654.0 392.0 634.5 405.5Q615.0 419.0 613.5 422.0Q612.0 425.0 640.0 424.0Q668.0 423.0 666.5 434.5Q665.0 446.0 641.0 446.0Q617.0 446.0 614.0 447.5Q611.0 449.0 634.0 464.5Q657.0 480.0 620.0 460.5Q583.0 441.0 612.5 469.0Q642.0 497.0 622.5 483.0Q603.0 469.0 599.5 468.5Q596.0 468.0 605.5 494.5Q615.0 521.0 596.5 482.5Q578.0 444.0 585.0 484.5Q592.0 525.0 585.0 502.0Q578.0 479.0 575.5 476.5Q573.0 474.0 565.0 501.5Q557.0 529.0 564.5 486.5Q572.0 444.0 553.5 481.5Q535.0 519.0 543.0 496.0Q551.0 473.0 550.5 469.5Q550.0 466.0 527.5 483.5Q505.0 501.0 536.0 471.0Q567.0 441.0 530.0 460.5Q493.0 480.0 513.0 466.0Q533.0 452.0 534.5 448.5Q536.0 445.0 507.0 446.0Q478.0 447.0 521.5 441.0Q565.0 435.0 523.0 429.0Q481.0 423.0 506.0 423.5Q531.0 424.0 534.5 422.0Q538.0 420.0 513.5 404.0Q489.0 388.0 528.0 408.5Q567.0 429.0 536.5 399.5Q506.0 370.0 526.0 385.0Q546.0 400.0 549.5 400.5Q553.0 401.0 543.0 373.0Q533.0 345.0 552.5 385.0Q572.0 425.0 564.5 383.0Q557.0 341.0 564.5 365.0Q572.0 389.0 575.0 391.5Q578.0 394.0 586.0 365.5Q594.0 337.0 586.0 381.0Q578.0 425.0 597.0 386.0Q616.0 347.0 608.0 371.0Q600.0 395.0 600.5 399.0Q601.0 403.0 625.0 384.5Q649.0 366.0 655.0 377.0Q661.0 388.0 640.0 403.0Q619.0 418.0 617.0 421.5Q615.0 425.0 645.5 423.5Q676.0 422.0 630.5 428.5Q585.0 435.0 629.0 441.0Q673.0 447.0 647.0 447.0Q621.0 447.0 617.5 448.5Q614.0 450.0 639.5 467.0Q665.0 484.0 656.0 493.5Q647.0 503.0 626.5 487.5Q606.0 472.0 602.0 471.5Q598.0 471.0 608.5 500.0Q619.0 529.0 598.5 487.0Q578.0 445.0 586.0 489.0Q594.0 533.0 586.0 508.0Q578.0 483.0 575.0 480.5Q572.0 478.0 563.5 507.5Q555.0 537.0 563.5 491.0Q572.0 445.0 552.0 485.5Q532.0 526.0 540.5 501.0Q549.0 476.0 548.5 472.0Q548.0 468.0 523.0 487.5Q498.0 507.0 532.0 474.0Q566.0 441.0 526.0 462.5Q486.0 484.0 507.5 468.5Q529.0 453.0 531.0 449.5Q533.0 446.0 501.5 447.0Q470.0 448.0 517.0 441.5Q564.0 435.0 518.5 428.5Q473.0 422.0 500.0 422.5Q527.0 423.0 530.5 421.0Q534.0 419.0 507.5 401.5Q481.0 384.0 523.5 406.5Q566.0 429.0 533.0 396.5Q500.0 364.0 521.5 380.0Q543.0 396.0 547.0 397.0Q551.0 398.0 540.0 368.0Q529.0 338.0 542.0 335.0Q555.0 332.0 563.5 358.5Q572.0 385.0 575.0 388.0Q578.0 391.0 586.5 359.5Q595.0 328.0 607.5 334.0Q620.0 340.0 611.0 366.0Q602.0 392.0 603.0 396.0Q604.0 400.0 629.5 380.0Q655.0 360.0 619.5 394.0Q584.0 428.0 626.0 406.0Q668.0 384.0 645.5 400.0Q623.0 416.0 621.0 420.0Q619.0 424.0 651.5 422.5Q684.0 421.0 635.0 428.0Q586.0 435.0 633.5 441.5Q681.0 448.0 653.0 448.0Q625.0 448.0 621.0 450.0Q617.0 452.0 644.5 470.5Q672.0 489.0 628.0 465.5Q584.0 442.0 618.5 475.5Q653.0 509.0 630.5 492.0Q608.0 475.0 604.0 474.5Q600.0 474.0 611.5 505.0Q623.0 536.0 601.0 491.0Q579.0 446.0 587.0 494.0Q595.0 542.0 586.5 514.5Q578.0 487.0 575.0 484.0Q572.0 481.0 563.0 513.5Q554.0 546.0 562.5 496.0Q571.0 446.0 549.5 490.0Q528.0 534.0 537.5 507.0Q547.0 480.0 546.0 475.5Q545.0 471.0 518.5 492.0Q492.0 513.0 529.0 477.5Q566.0 442.0 522.5 465.0Q479.0 488.0 502.5 471.5Q526.0 455.0 528.0 451.0Q530.0 447.0 495.5 448.0Q461.0 449.0 512.0 442.0Q563.0 435.0 514.0 428.0Q465.0 421.0 494.0 421.5Q523.0 422.0 527.0 420.0Q531.0 418.0 502.5 398.5Q474.0 379.0 520.0 403.5Q566.0 428.0 530.0 393.5Q494.0 359.0 517.5 376.0Q541.0 393.0 545.0 394.0Q549.0 395.0 537.5 362.5Q526.0 330.0 548.5 377.0Q571.0 424.0 562.5 374.0Q554.0 324.0 563.0 352.5Q572.0 381.0 575.0 384.0Q578.0 387.0 587.5 353.5Q597.0 320.0 588.0 372.0Q579.0 424.0 601.0 378.0Q623.0 332.0 613.5 360.5Q604.0 389.0 605.0 393.5Q606.0 398.0 633.5 376.0Q661.0 354.0 623.0 391.0Q585.0 428.0 630.0 404.0Q675.0 380.0 650.5 397.5Q626.0 415.0 624.0 419.0Q622.0 423.0 657.5 421.5Q693.0 420.0 640.0 427.5Q587.0 435.0 638.0 442.0Q689.0 449.0 659.0 449.0Q629.0 449.0 625.0 451.0Q621.0 453.0 650.5 473.0Q680.0 493.0 632.5 467.5Q585.0 442.0 622.0 478.0Q659.0 514.0 635.0 496.0Q611.0 478.0 606.0 477.5Q601.0 477.0 613.5 510.5Q626.0 544.0 602.5 495.5Q579.0 447.0 588.0 498.5Q597.0 550.0 588.0 520.5Q579.0 491.0 575.5 488.0Q572.0 485.0 562.0 519.5Q552.0 554.0 561.5 500.5Q571.0 447.0 548.0 494.0Q525.0 541.0 535.0 512.0Q545.0 483.0 544.0 478.5Q543.0 474.0 514.5 496.5Q486.0 519.0 525.5 480.5Q565.0 442.0 518.0 467.0Q471.0 492.0 496.5 474.0Q522.0 456.0 524.0 452.0Q526.0 448.0 489.5 449.0Q453.0 450.0 455.0 435.0Q457.0 420.0 488.0 420.5Q519.0 421.0 523.5 418.5Q528.0 416.0 497.0 395.5Q466.0 375.0 515.5 401.5Q565.0 428.0 526.5 390.5Q488.0 353.0 513.0 371.5Q538.0 390.0 543.0 391.0Q548.0 392.0 535.0 357.0Q522.0 322.0 546.5 372.5Q571.0 423.0 561.5 369.5Q552.0 316.0 561.5 346.5Q571.0 377.0 574.5 380.5Q578.0 384.0 588.5 348.0Q599.0 312.0 589.0 367.5Q579.0 423.0 603.0 374.0Q627.0 325.0 616.5 355.0Q606.0 385.0 607.0 390.0Q608.0 395.0 637.5 371.5Q667.0 348.0 626.0 387.5Q585.0 427.0 633.5 401.5Q682.0 376.0 656.0 394.5Q630.0 413.0 628.0 417.5Q626.0 422.0 663.5 420.5Q701.0 419.0 644.5 427.0Q588.0 435.0 642.5 442.5Q697.0 450.0 665.0 450.0Q633.0 450.0 628.5 452.0Q624.0 454.0 655.5 475.5Q687.0 497.0 636.5 470.0Q586.0 443.0 625.5 481.5Q665.0 520.0 639.0 500.5Q613.0 481.0 608.0 480.5Q603.0 480.0 616.5 516.0Q630.0 552.0 614.0 555.0Q598.0 558.0 588.5 526.5Q579.0 495.0 575.5 491.5Q572.0 488.0 561.5 525.0Q551.0 562.0 561.0 505.0Q571.0 448.0 546.0 498.5Q521.0 549.0 531.5 517.5Q542.0 486.0 541.5 481.0Q541.0 476.0 510.5 500.0Q480.0 524.0 522.0 483.5Q564.0 443.0 514.0 469.5Q464.0 496.0 491.0 476.5Q518.0 457.0 520.5 452.5Q523.0 448.0 484.0 449.5Q445.0 451.0 503.5 443.0Q562.0 435.0 505.5 427.0Q449.0 419.0 482.0 419.5Q515.0 420.0 520.0 417.5Q525.0 415.0 492.0 393.0Q459.0 371.0 511.5 399.0Q564.0 427.0 523.0 387.0Q482.0 347.0 509.0 367.0Q536.0 387.0 541.0 388.0Q546.0 389.0 532.0 352.0Q518.0 315.0 544.5 368.5Q571.0 422.0 561.0 365.0Q551.0 308.0 561.0 340.5Q571.0 373.0 574.5 376.5Q578.0 380.0 589.0 341.5Q600.0 303.0 589.5 362.5Q579.0 422.0 604.5 370.0Q630.0 318.0 619.5 350.0Q609.0 382.0 609.5 387.0Q610.0 392.0 641.5 367.5Q673.0 343.0 629.5 385.0Q586.0 427.0 637.5 399.5Q689.0 372.0 661.5 392.0Q634.0 412.0 631.5 416.5Q629.0 421.0 669.5 419.5Q710.0 418.0 649.5 426.5Q589.0 435.0 647.0 443.0Q705.0 451.0 670.5 451.0Q636.0 451.0 631.5 453.5Q627.0 456.0 661.0 478.5Q695.0 501.0 683.0 513.5Q671.0 526.0 643.5 505.0Q616.0 484.0 610.5 483.5Q605.0 483.0 619.5 521.0Q634.0 559.0 606.5 503.5Q579.0 448.0 589.5 507.0Q600.0 566.0 589.5 532.5Q579.0 499.0 575.0 495.5Q571.0 492.0 560.0 531.5Q549.0 571.0 533.5 563.5Q518.0 556.0 529.0 523.0Q540.0 490.0 539.5 484.5Q539.0 479.0 506.5 504.5Q474.0 530.0 465.5 515.0Q457.0 500.0 486.0 479.5Q515.0 459.0 517.0 454.0Q519.0 449.0 477.5 451.0Q436.0 453.0 498.5 444.0Q561.0 435.0 501.0 426.5Q441.0 418.0 476.5 418.5Q512.0 419.0 516.5 416.5Q521.0 414.0 486.5 390.5Q452.0 367.0 507.5 397.0Q563.0 427.0 519.5 384.5Q476.0 342.0 504.5 363.0Q533.0 384.0 538.5 385.0Q544.0 386.0 529.5 346.5Q515.0 307.0 543.0 364.0Q571.0 421.0 560.0 360.5Q549.0 300.0 560.0 334.5Q571.0 369.0 575.0 373.0Q579.0 377.0 590.5 336.0Q602.0 295.0 590.5 358.0Q579.0 421.0 606.5 365.5Q634.0 310.0 622.5 344.5Q611.0 379.0 611.5 384.5Q612.0 390.0 646.0 363.5Q680.0 337.0 633.5 381.5Q587.0 426.0 642.0 397.0Q697.0 368.0 667.0 389.0Q637.0 410.0 634.5 415.0Q632.0 420.0 675.0 418.5Q718.0 417.0 654.0 426.0Q590.0 435.0 652.0 444.0Q714.0 453.0 677.0 452.5Q640.0 452.0 635.0 454.5Q630.0 457.0 666.0 481.0Q702.0 505.0 644.5 474.5Q587.0 444.0 632.0 487.5Q677.0 531.0 647.5 509.0Q618.0 487.0 612.5 486.5Q607.0 486.0 622.0 526.5Q637.0 567.0 608.5 508.0Q580.0 449.0 590.5 511.5Q601.0 574.0 590.0 538.5Q579.0 503.0 575.0 499.0Q571.0 495.0 559.0 537.0Q547.0 579.0 558.5 514.0Q570.0 449.0 542.0 506.5Q514.0 564.0 526.0 528.5Q538.0 493.0 537.0 487.5Q536.0 482.0 501.5 509.0Q467.0 536.0 515.0 490.0Q563.0 444.0 506.5 474.0Q450.0 504.0 480.5 482.0Q511.0 460.0 513.5 455.0Q516.0 450.0 472.0 452.0Q428.0 454.0 494.0 444.5Q560.0 435.0 496.0 426.0Q432.0 417.0 470.0 417.5Q508.0 418.0 513.0 415.0Q518.0 412.0 481.0 387.5Q444.0 363.0 503.5 394.5Q563.0 426.0 516.5 381.0Q470.0 336.0 500.5 358.5Q531.0 381.0 536.5 382.0Q542.0 383.0 526.5 341.0Q511.0 299.0 540.5 360.0Q570.0 421.0 559.0 356.5Q548.0 292.0 559.5 328.5Q571.0 365.0 575.0 369.0Q579.0 373.0 591.0 330.0Q603.0 287.0 591.5 353.5Q580.0 420.0 608.5 361.5Q637.0 303.0 625.0 339.0Q613.0 375.0 614.0 381.0Q615.0 387.0 650.5 359.0Q686.0 331.0 695.0 347.5Q704.0 364.0 672.5 386.5Q641.0 409.0 638.5 414.0Q636.0 419.0 681.5 417.5Q727.0 416.0 724.5 435.0Q722.0 454.0 683.0 453.5Q644.0 453.0 639.0 455.5Q634.0 458.0 672.0 483.5Q710.0 509.0 649.0 476.5Q588.0 444.0 635.5 490.5Q683.0 537.0 652.0 513.5Q621.0 490.0 615.0 489.0Q609.0 488.0 625.0 531.5Q641.0 575.0 610.5 512.5Q580.0 450.0 591.5 516.0Q603.0 582.0 591.5 544.5Q580.0 507.0 575.5 503.0Q571.0 499.0 558.5 543.5Q546.0 588.0 558.0 519.0Q570.0 450.0 540.5 510.5Q511.0 571.0 523.5 533.5Q536.0 496.0 535.0 490.0Q534.0 484.0 497.5 513.0Q461.0 542.0 511.5 493.0Q562.0 444.0 502.5 476.0Q443.0 508.0 475.0 485.0Q507.0 462.0 510.0 456.5Q513.0 451.0 466.0 453.0Q419.0 455.0 489.0 445.0Q559.0 435.0 491.5 425.5Q424.0 416.0 464.0 416.5Q504.0 417.0 509.5 414.0Q515.0 411.0 476.0 385.0Q437.0 359.0 499.5 392.5Q562.0 426.0 513.0 378.0Q464.0 330.0 496.0 354.0Q528.0 378.0 534.0 379.0Q540.0 380.0 523.5 335.5Q507.0 291.0 538.5 355.5Q570.0 420.0 558.0 352.0Q546.0 284.0 558.0 322.5Q570.0 361.0 574.5 365.5Q579.0 370.0 592.0 324.0Q605.0 278.0 623.0 286.5Q641.0 295.0 628.0 333.5Q615.0 372.0 616.0 378.0Q617.0 384.0 654.5 354.5Q692.0 325.0 640.0 375.0Q588.0 425.0 649.5 392.5Q711.0 360.0 678.0 383.5Q645.0 407.0 642.0 413.0Q639.0 419.0 687.0 417.0Q735.0 415.0 663.0 425.0Q591.0 435.0 660.5 445.0Q730.0 455.0 689.0 454.5Q648.0 454.0 642.5 456.5Q637.0 459.0 677.0 486.0Q717.0 513.0 652.5 479.0Q588.0 445.0 638.5 493.5Q689.0 542.0 656.0 517.5Q623.0 493.0 617.0 492.0Q611.0 491.0 627.5 536.5Q644.0 582.0 612.0 516.5Q580.0 451.0 592.5 520.5Q605.0 590.0 592.5 550.5Q580.0 511.0 575.5 506.5Q571.0 502.0 557.5 549.0Q544.0 596.0 557.0 523.5Q570.0 451.0 539.0 514.5Q508.0 578.0 521.0 539.0Q534.0 500.0 533.0 493.5Q532.0 487.0 493.5 517.5Q455.0 548.0 508.0 496.5Q561.0 445.0 498.0 478.5Q435.0 512.0 469.5 487.5Q504.0 463.0 506.5 457.5Q509.0 452.0 460.0 454.0Q411.0 456.0 484.5 445.5Q558.0 435.0 487.0 425.0Q416.0 415.0 458.0 415.5Q500.0 416.0 506.0 413.0Q512.0 410.0 470.5 382.5Q429.0 355.0 495.0 390.0Q561.0 425.0 509.5 375.0Q458.0 325.0 491.5 350.0Q525.0 375.0 531.5 376.0Q538.0 377.0 521.0 330.5Q504.0 284.0 537.0 351.5Q570.0 419.0 557.5 347.5Q545.0 276.0 557.5 316.5Q570.0 357.0 574.5 361.5Q579.0 366.0 592.5 318.0Q606.0 270.0 593.0 344.5Q580.0 419.0 612.0 353.5Q644.0 288.0 630.5 328.5Q617.0 369.0 618.0 375.5Q619.0 382.0 658.5 350.5Q698.0 319.0 643.5 372.0Q589.0 425.0 653.5 390.5Q718.0 356.0 683.0 381.0Q648.0 406.0 645.0 412.0Q642.0 418.0 692.5 416.0Q743.0 414.0 667.5 424.5Q592.0 435.0 665.0 445.5Q738.0 456.0 695.0 455.5Q652.0 455.0 646.0 458.0Q640.0 461.0 682.0 489.0Q724.0 517.0 656.5 481.0Q589.0 445.0 642.0 496.5Q695.0 548.0 660.5 522.0Q626.0 496.0 619.5 495.0Q613.0 494.0 630.5 542.0Q648.0 590.0 614.0 521.0Q580.0 452.0 593.0 525.0Q606.0 598.0 593.0 556.5Q580.0 515.0 575.5 510.5Q571.0 506.0 557.0 555.0Q543.0 604.0 556.5 528.0Q570.0 452.0 537.0 519.0Q504.0 586.0 518.0 544.5Q532.0 503.0 531.0 496.5Q530.0 490.0 489.5 521.5Q449.0 553.0 438.5 534.5Q428.0 516.0 464.0 490.5Q500.0 465.0 503.0 459.0Q506.0 453.0 454.0 455.0Q402.0 457.0 479.5 446.0Q557.0 435.0 482.5 424.5Q408.0 414.0 452.0 414.5Q496.0 415.0 502.0 412.0Q508.0 409.0 465.0 380.0Q422.0 351.0 437.0 335.0Q452.0 319.0 487.5 345.5Q523.0 372.0 529.5 373.0Q536.0 374.0 518.0 325.0Q500.0 276.0 534.5 347.0Q569.0 418.0 556.0 343.0Q543.0 268.0 556.5 310.5Q570.0 353.0 575.0 358.0Q580.0 363.0 594.0 312.5Q608.0 262.0 594.5 340.0Q581.0 418.0 614.5 349.0Q648.0 280.0 633.5 322.5Q619.0 365.0 620.0 372.0Q621.0 379.0 662.5 346.5Q704.0 314.0 647.0 369.0Q590.0 424.0 657.5 388.0Q725.0 352.0 688.5 378.5Q652.0 405.0 649.0 411.0Q646.0 417.0 699.0 415.0Q752.0 413.0 672.5 424.0Q593.0 435.0 669.5 446.0Q746.0 457.0 701.0 456.5Q656.0 456.0 649.5 459.0Q643.0 462.0 687.5 491.5Q732.0 521.0 661.0 483.5Q590.0 446.0 645.5 500.0Q701.0 554.0 664.5 526.5Q628.0 499.0 621.5 498.0Q615.0 497.0 633.5 547.5Q652.0 598.0 616.5 525.0Q581.0 452.0 594.5 529.0Q608.0 606.0 594.0 562.5Q580.0 519.0 575.0 514.0Q570.0 509.0 555.5 561.0Q541.0 613.0 555.0 532.5Q569.0 452.0 535.0 522.5Q501.0 593.0 515.5 549.5Q530.0 506.0 529.0 499.0Q528.0 492.0 485.5 525.5Q443.0 559.0 501.5 502.5Q560.0 446.0 490.5 483.0Q421.0 520.0 458.5 493.0Q496.0 466.0 499.5 460.0Q503.0 454.0 448.5 456.0Q394.0 458.0 475.0 446.5Q556.0 435.0 478.0 424.0Q400.0 413.0 446.5 413.5Q493.0 414.0 499.0 410.5Q505.0 407.0 459.5 377.0Q414.0 347.0 487.0 385.5Q560.0 424.0 503.0 369.0Q446.0 314.0 483.0 341.5Q520.0 369.0 527.5 370.0Q535.0 371.0 516.0 319.5Q497.0 268.0 533.0 342.5Q569.0 417.0 555.5 338.5Q542.0 260.0 556.0 304.5Q570.0 349.0 575.0 354.0Q580.0 359.0 595.0 306.0Q610.0 253.0 595.5 335.0Q581.0 417.0 616.0 345.0Q651.0 273.0 636.0 317.5Q621.0 362.0 622.5 369.0Q624.0 376.0 667.0 342.0Q710.0 308.0 721.5 328.0Q733.0 348.0 694.5 375.5Q656.0 403.0 652.5 409.5Q649.0 416.0 704.5 414.0Q760.0 412.0 677.0 423.5Q594.0 435.0 674.0 446.5Q754.0 458.0 706.5 457.5Q659.0 457.0 653.0 460.0Q647.0 463.0 693.0 494.0Q739.0 525.0 723.0 542.0Q707.0 559.0 669.0 530.5Q631.0 502.0 623.5 501.0Q616.0 500.0 635.5 552.5Q655.0 605.0 618.0 529.0Q581.0 453.0 595.0 533.5Q609.0 614.0 595.0 568.5Q581.0 523.0 575.5 517.5Q570.0 512.0 555.0 566.5Q540.0 621.0 554.5 537.0Q569.0 453.0 533.0 527.0Q497.0 601.0 512.5 555.5Q528.0 510.0 526.5 502.5Q525.0 495.0 480.5 530.0Q436.0 565.0 497.5 505.5Q559.0 446.0 486.5 485.0Q414.0 524.0 453.0 496.0Q492.0 468.0 495.5 461.0Q499.0 454.0 442.5 456.5Q386.0 459.0 389.0 435.5Q392.0 412.0 440.5 412.5Q489.0 413.0 495.5 409.5Q502.0 406.0 454.5 374.5Q407.0 343.0 483.0 383.5Q559.0 424.0 499.5 366.0Q440.0 308.0 479.0 337.0Q518.0 366.0 525.5 367.0Q533.0 368.0 513.0 314.5Q493.0 261.0 531.0 338.5Q569.0 416.0 554.5 334.0Q540.0 252.0 554.5 298.5Q569.0 345.0 574.5 350.5Q580.0 356.0 595.5 300.5Q611.0 245.0 596.0 330.5Q581.0 416.0 618.0 341.0Q655.0 266.0 639.0 312.5Q623.0 359.0 624.5 366.5Q626.0 374.0 671.5 338.0Q717.0 302.0 654.0 362.5Q591.0 423.0 665.5 383.5Q740.0 344.0 699.5 373.0Q659.0 402.0 656.0 408.5Q653.0 415.0 711.0 413.0Q769.0 411.0 682.0 423.0Q595.0 435.0 678.5 447.0Q762.0 459.0 712.5 458.5Q663.0 458.0 656.5 461.5Q650.0 465.0 698.5 497.0Q747.0 529.0 669.0 488.0Q591.0 447.0 652.0 506.0Q713.0 565.0 673.0 535.5Q633.0 506.0 625.5 504.5Q618.0 503.0 638.5 558.0Q659.0 613.0 620.0 533.5Q581.0 454.0 596.0 538.0Q611.0 622.0 596.0 574.5Q581.0 527.0 575.5 521.5Q570.0 516.0 554.0 572.5Q538.0 629.0 553.5 541.5Q569.0 454.0 531.5 531.0Q494.0 608.0 510.0 560.5Q526.0 513.0 524.5 505.5Q523.0 498.0 476.5 534.5Q430.0 571.0 494.5 509.0Q559.0 447.0 483.0 487.5Q407.0 528.0 448.0 498.5Q489.0 469.0 492.5 462.0Q496.0 455.0 436.5 457.5Q377.0 460.0 466.0 447.5Q555.0 435.0 469.5 423.0Q384.0 411.0 434.5 411.5Q485.0 412.0 492.0 408.5Q499.0 405.0 449.5 372.0Q400.0 339.0 479.5 381.0Q559.0 423.0 496.5 362.5Q434.0 302.0 474.5 332.5Q515.0 363.0 523.0 364.0Q531.0 365.0 510.0 309.0Q489.0 253.0 514.0 248.5Q539.0 244.0 554.0 292.5Q569.0 341.0 574.5 346.5Q580.0 352.0 596.5 294.5Q613.0 237.0 635.5 247.5Q658.0 258.0 642.0 306.5Q626.0 355.0 627.0 363.0Q628.0 371.0 675.5 333.5Q723.0 296.0 657.5 359.5Q592.0 423.0 669.5 381.5Q747.0 340.0 705.0 370.0Q663.0 400.0 659.5 407.0Q656.0 414.0 716.5 411.5Q777.0 409.0 686.5 422.0Q596.0 435.0 683.5 447.5Q771.0 460.0 719.0 459.5Q667.0 459.0 660.0 462.5Q653.0 466.0 703.5 500.0Q754.0 534.0 673.0 490.5Q592.0 447.0 655.5 508.5Q719.0 570.0 677.5 539.5Q636.0 509.0 628.0 507.5Q620.0 506.0 641.0 563.5Q662.0 621.0 621.5 538.0Q581.0 455.0 596.5 542.5Q612.0 630.0 596.5 580.5Q581.0 531.0 575.5 525.0Q570.0 519.0 553.0 578.5Q536.0 638.0 552.5 546.5Q569.0 455.0 529.5 535.5Q490.0 616.0 506.5 566.0Q523.0 516.0 522.0 508.0Q521.0 500.0 472.5 538.5Q424.0 577.0 491.0 512.0Q558.0 447.0 478.5 489.5Q399.0 532.0 442.0 501.5Q485.0 471.0 488.5 463.5Q492.0 456.0 430.5 458.5Q369.0 461.0 461.5 448.0Q554.0 435.0 464.5 422.5Q375.0 410.0 428.0 410.5Q481.0 411.0 488.0 407.0Q495.0 403.0 443.5 368.5Q392.0 334.0 475.0 378.5Q558.0 423.0 493.0 360.0Q428.0 297.0 470.5 328.5Q513.0 360.0 521.0 361.0Q529.0 362.0 507.5 303.5Q486.0 245.0 527.0 330.0Q568.0 415.0 552.5 325.5Q537.0 236.0 553.0 286.5Q569.0 337.0 574.5 343.0Q580.0 349.0 597.0 288.5Q614.0 228.0 598.0 321.5Q582.0 415.0 622.0 333.0Q662.0 251.0 645.0 301.5Q628.0 352.0 629.0 360.0Q630.0 368.0 679.5 329.0Q729.0 290.0 660.5 356.0Q592.0 422.0 673.0 379.5Q754.0 337.0 710.5 368.0Q667.0 399.0 663.0 406.0Q659.0 413.0 722.0 410.5Q785.0 408.0 691.0 421.5Q597.0 435.0 688.0 448.0Q779.0 461.0 725.0 460.5Q671.0 460.0 663.5 463.5Q656.0 467.0 709.0 502.5Q762.0 538.0 677.0 493.0Q592.0 448.0 658.5 512.0Q725.0 576.0 681.5 544.0Q638.0 512.0 630.0 510.5Q622.0 509.0 644.0 569.0Q666.0 629.0 624.0 542.5Q582.0 456.0 598.0 547.0Q614.0 638.0 597.5 586.5Q581.0 535.0 575.0 529.0Q569.0 523.0 552.0 584.5Q535.0 646.0 551.5 551.0Q568.0 456.0 527.5 539.5Q487.0 623.0 504.0 571.5Q521.0 520.0 520.0 511.5Q519.0 503.0 468.5 543.0Q418.0 583.0 487.5 515.5Q557.0 448.0 474.5 491.5Q392.0 535.0 436.5 503.5Q481.0 472.0 485.0 464.5Q489.0 457.0 424.5 459.5Q360.0 462.0 456.5 448.5Q553.0 435.0 460.0 422.0Q367.0 409.0 422.0 409.5Q477.0 410.0 484.5 406.0Q492.0 402.0 438.5 366.0Q385.0 330.0 471.0 376.0Q557.0 422.0 489.5 356.5Q422.0 291.0 466.0 324.0Q510.0 357.0 518.5 358.0Q527.0 359.0 504.5 298.5Q482.0 238.0 525.0 326.0Q568.0 414.0 551.5 321.0Q535.0 228.0 552.0 280.5Q569.0 333.0 575.0 339.0Q581.0 345.0 598.5 282.5Q616.0 220.0 599.0 317.0Q582.0 414.0 623.5 328.5Q665.0 243.0 647.5 296.0Q630.0 349.0 631.0 357.5Q632.0 366.0 683.5 325.5Q735.0 285.0 664.0 353.5Q593.0 422.0 677.0 377.5Q761.0 333.0 715.5 365.0Q670.0 397.0 666.5 404.5Q663.0 412.0 728.5 409.5Q794.0 407.0 790.5 434.5Q787.0 462.0 731.0 461.5Q675.0 461.0 667.5 464.5Q660.0 468.0 714.5 505.0Q769.0 542.0 681.0 495.0Q593.0 448.0 662.0 515.0Q731.0 582.0 686.0 548.5Q641.0 515.0 632.5 513.5Q624.0 512.0 647.0 574.0Q670.0 636.0 642.5 641.0Q615.0 646.0 598.5 592.5Q582.0 539.0 575.5 532.5Q569.0 526.0 551.0 590.0Q533.0 654.0 550.5 555.5Q568.0 457.0 525.5 543.5Q483.0 630.0 501.0 576.5Q519.0 523.0 517.5 514.5Q516.0 506.0 464.0 547.0Q412.0 588.0 398.5 563.5Q385.0 539.0 431.5 506.0Q478.0 473.0 482.0 465.5Q486.0 458.0 419.0 460.5Q352.0 463.0 452.0 449.0Q552.0 435.0 455.5 421.5Q359.0 408.0 416.0 408.5Q473.0 409.0 481.0 405.0Q489.0 401.0 433.0 363.5Q377.0 326.0 466.5 374.0Q556.0 422.0 486.0 353.5Q416.0 285.0 462.0 319.5Q508.0 354.0 516.5 355.0Q525.0 356.0 502.0 293.0Q479.0 230.0 523.5 321.5Q568.0 413.0 551.0 316.5Q534.0 220.0 551.0 274.5Q568.0 329.0 574.5 335.5Q581.0 342.0 599.5 277.0Q618.0 212.0 600.0 312.5Q582.0 413.0 625.5 324.5Q669.0 236.0 650.5 290.5Q632.0 345.0 633.5 354.0Q635.0 363.0 688.0 321.0Q741.0 279.0 667.5 350.0Q594.0 421.0 681.5 375.0Q769.0 329.0 721.5 362.5Q674.0 396.0 670.0 404.0Q666.0 412.0 734.0 409.0Q802.0 406.0 700.0 420.5Q598.0 435.0 696.5 449.0Q795.0 463.0 737.0 462.5Q679.0 462.0 671.0 466.0Q663.0 470.0 720.0 508.0Q777.0 546.0 685.5 497.5Q594.0 449.0 665.5 518.0Q737.0 587.0 690.0 552.5Q643.0 518.0 634.5 516.5Q626.0 515.0 649.5 579.5Q673.0 644.0 627.5 550.5Q582.0 457.0 599.5 555.5Q617.0 654.0 599.5 598.0Q582.0 542.0 575.5 536.0Q569.0 530.0 550.5 596.5Q532.0 663.0 506.0 650.5Q480.0 638.0 498.5 582.0Q517.0 526.0 515.5 517.5Q514.0 509.0 459.5 551.5Q405.0 594.0 480.5 521.5Q556.0 449.0 467.0 496.0Q378.0 543.0 426.0 509.0Q474.0 475.0 478.0 467.0Q482.0 459.0 412.5 461.5Q343.0 464.0 447.0 449.5Q551.0 435.0 451.0 421.0Q351.0 407.0 410.5 407.5Q470.0 408.0 478.0 404.0Q486.0 400.0 428.0 361.0Q370.0 322.0 463.0 371.5Q556.0 421.0 483.0 350.5Q410.0 280.0 457.5 315.5Q505.0 351.0 514.0 352.5Q523.0 354.0 499.0 288.0Q475.0 222.0 521.5 317.0Q568.0 412.0 550.0 312.0Q532.0 212.0 550.0 269.0Q568.0 326.0 574.5 332.0Q581.0 338.0 600.0 270.5Q619.0 203.0 600.5 307.5Q582.0 412.0 627.0 320.0Q672.0 228.0 653.0 285.0Q634.0 342.0 635.5 351.0Q637.0 360.0 692.5 316.5Q748.0 273.0 762.0 299.0Q776.0 325.0 727.0 359.5Q678.0 394.0 673.5 402.5Q669.0 411.0 740.0 408.0Q811.0 405.0 705.0 420.0Q599.0 435.0 701.0 449.5Q803.0 464.0 742.5 463.5Q682.0 463.0 674.0 467.0Q666.0 471.0 725.0 510.5Q784.0 550.0 689.5 499.5Q595.0 449.0 669.0 521.0Q743.0 593.0 694.5 557.0Q646.0 521.0 637.0 519.5Q628.0 518.0 652.5 585.0Q677.0 652.0 629.5 555.0Q582.0 458.0 600.0 560.0Q618.0 662.0 600.0 604.0Q582.0 546.0 575.5 539.5Q569.0 533.0 549.5 602.0Q530.0 671.0 548.5 564.5Q567.0 458.0 521.5 551.5Q476.0 645.0 495.5 587.5Q515.0 530.0 513.5 520.5Q512.0 511.0 455.5 555.5Q399.0 600.0 477.0 524.5Q555.0 449.0 463.0 498.0Q371.0 547.0 420.5 511.5Q470.0 476.0 474.5 468.0Q479.0 460.0 407.0 462.5Q335.0 465.0 442.5 450.0Q550.0 435.0 446.5 420.5Q343.0 406.0 404.5 406.5Q466.0 407.0 474.0 402.5Q482.0 398.0 422.0 358.0Q362.0 318.0 458.5 369.5Q555.0 421.0 479.5 347.5Q404.0 274.0 453.5 311.0Q503.0 348.0 512.0 349.5Q521.0 351.0 496.0 283.0Q471.0 215.0 519.0 313.5Q567.0 412.0 549.0 308.0Q531.0 204.0 549.5 263.0Q568.0 322.0 574.5 328.5Q581.0 335.0 601.0 265.0Q621.0 195.0 602.0 303.0Q583.0 411.0 629.5 316.0Q676.0 221.0 656.0 280.0Q636.0 339.0 637.5 348.0Q639.0 357.0 696.5 312.0Q754.0 267.0 674.5 343.5Q595.0 420.0 689.0 370.5Q783.0 321.0 732.0 357.0Q681.0 393.0 677.0 401.5Q673.0 410.0 746.0 407.0Q819.0 404.0 709.5 419.5Q600.0 435.0 705.5 450.0Q811.0 465.0 748.5 464.5Q686.0 464.0 677.5 468.0Q669.0 472.0 730.0 513.0Q791.0 554.0 693.0 502.0Q595.0 450.0 672.0 524.5Q749.0 599.0 698.5 561.5Q648.0 524.0 638.5 522.5Q629.0 521.0 655.0 590.0Q681.0 659.0 632.0 559.0Q583.0 459.0 601.5 564.5Q620.0 670.0 601.0 610.0Q582.0 550.0 575.5 543.5Q569.0 537.0 548.5 608.0Q528.0 679.0 547.5 569.0Q567.0 459.0 520.0 556.0Q473.0 653.0 493.0 593.0Q513.0 533.0 511.5 523.5Q510.0 514.0 451.5 560.0Q393.0 606.0 474.0 528.0Q555.0 450.0 459.0 500.5Q363.0 551.0 415.0 514.5Q467.0 478.0 471.0 469.5Q475.0 461.0 401.0 463.5Q327.0 466.0 331.0 435.5Q335.0 405.0 398.5 405.5Q462.0 406.0 470.5 401.5Q479.0 397.0 417.0 355.5Q355.0 314.0 454.5 367.0Q554.0 420.0 476.0 344.5Q398.0 269.0 449.0 307.0Q500.0 345.0 510.0 346.5Q520.0 348.0 494.0 277.5Q468.0 207.0 517.5 309.0Q567.0 411.0 548.0 303.0Q529.0 195.0 548.5 256.5Q568.0 318.0 575.0 324.5Q582.0 331.0 602.0 259.0Q622.0 187.0 650.5 200.5Q679.0 214.0 658.5 274.5Q638.0 335.0 639.5 345.0Q641.0 355.0 700.5 308.0Q760.0 261.0 678.0 340.5Q596.0 420.0 693.0 368.5Q790.0 317.0 737.5 354.0Q685.0 391.0 680.5 400.0Q676.0 409.0 752.0 406.0Q828.0 403.0 714.5 419.0Q601.0 435.0 710.0 450.5Q819.0 466.0 754.5 465.5Q690.0 465.0 681.0 469.5Q672.0 474.0 735.5 516.0Q799.0 558.0 697.5 504.0Q596.0 450.0 675.5 527.0Q755.0 604.0 703.0 565.5Q651.0 527.0 641.0 525.5Q631.0 524.0 657.5 595.5Q684.0 667.0 633.5 563.5Q583.0 460.0 602.0 569.5Q621.0 679.0 602.0 616.5Q583.0 554.0 575.5 547.0Q568.0 540.0 547.5 614.0Q527.0 688.0 547.0 574.0Q567.0 460.0 518.0 560.0Q469.0 660.0 490.0 598.0Q511.0 536.0 509.5 526.5Q508.0 517.0 447.5 564.5Q387.0 612.0 470.5 531.0Q554.0 450.0 455.0 502.5Q356.0 555.0 409.5 517.0Q463.0 479.0 467.5 470.0Q472.0 461.0 395.0 464.0Q318.0 467.0 433.5 451.0Q549.0 435.0 438.0 419.5Q327.0 404.0 392.5 404.5Q458.0 405.0 467.0 400.5Q476.0 396.0 411.5 353.0Q347.0 310.0 369.5 286.5Q392.0 263.0 445.0 302.5Q498.0 342.0 508.0 343.5Q518.0 345.0 491.0 272.0Q464.0 199.0 515.5 304.5Q567.0 410.0 547.5 298.5Q528.0 187.0 547.5 250.5Q567.0 314.0 574.5 321.0Q582.0 328.0 603.0 253.0Q624.0 178.0 603.5 294.0Q583.0 410.0 633.0 308.0Q683.0 206.0 661.5 269.0Q640.0 332.0 642.0 342.0Q644.0 352.0 705.0 303.5Q766.0 255.0 681.5 337.0Q597.0 419.0 697.0 366.0Q797.0 313.0 743.0 351.5Q689.0 390.0 684.5 399.0Q680.0 408.0 758.0 405.0Q836.0 402.0 719.0 418.5Q602.0 435.0 715.0 451.0Q828.0 467.0 761.0 466.5Q694.0 466.0 685.0 470.5Q676.0 475.0 741.0 518.5Q806.0 562.0 701.5 506.5Q597.0 451.0 679.0 530.5Q761.0 610.0 707.0 570.0Q653.0 530.0 643.0 528.5Q633.0 527.0 660.5 601.0Q688.0 675.0 635.5 568.0Q583.0 461.0 603.0 574.0Q623.0 687.0 603.0 622.5Q583.0 558.0 575.5 551.0Q568.0 544.0 546.5 620.0Q525.0 696.0 546.0 578.5Q567.0 461.0 516.5 564.5Q466.0 668.0 487.5 604.0Q509.0 540.0 507.0 529.5Q505.0 519.0 443.0 568.0Q381.0 617.0 467.0 534.0Q553.0 451.0 451.0 505.0Q349.0 559.0 404.0 520.0Q459.0 481.0 464.0 471.5Q469.0 462.0 389.5 465.5Q310.0 469.0 429.0 452.0Q548.0 435.0 433.0 419.0Q318.0 403.0 386.0 403.5Q454.0 404.0 463.5 399.0Q473.0 394.0 406.5 350.0Q340.0 306.0 446.5 362.5Q553.0 419.0 469.5 338.0Q386.0 257.0 440.5 298.0Q495.0 339.0 505.5 340.5Q516.0 342.0 488.0 267.0Q460.0 192.0 513.5 300.5Q567.0 409.0 546.5 294.0Q526.0 179.0 546.5 244.5Q567.0 310.0 574.5 317.0Q582.0 324.0 604.0 247.0Q626.0 170.0 604.5 289.5Q583.0 409.0 634.5 304.0Q686.0 199.0 664.0 264.0Q642.0 329.0 644.0 339.0Q646.0 349.0 709.0 299.5Q772.0 250.0 788.0 279.5Q804.0 309.0 748.0 349.0Q692.0 389.0 687.5 398.0Q683.0 407.0 763.5 404.0Q844.0 401.0 723.5 418.0Q603.0 435.0 719.5 451.5Q836.0 468.0 767.0 467.5Q698.0 467.0 688.5 471.5Q679.0 476.0 746.5 521.0Q814.0 566.0 790.5 590.5Q767.0 615.0 711.5 574.0Q656.0 533.0 645.5 531.5Q635.0 530.0 663.0 606.0Q691.0 682.0 637.5 571.5Q584.0 461.0 604.5 578.0Q625.0 695.0 604.0 628.5Q583.0 562.0 575.5 554.5Q568.0 547.0 546.0 625.5Q524.0 704.0 545.0 582.5Q566.0 461.0 514.0 568.0Q462.0 675.0 484.0 609.0Q506.0 543.0 504.5 532.5Q503.0 522.0 439.0 572.5Q375.0 623.0 463.5 537.0Q552.0 451.0 447.0 507.0Q342.0 563.0 399.0 522.5Q456.0 482.0 460.5 472.5Q465.0 463.0 383.0 466.5Q301.0 470.0 424.0 452.5Q547.0 435.0 428.5 418.5Q310.0 402.0 380.0 402.5Q450.0 403.0 459.5 398.0Q469.0 393.0 401.0 347.5Q333.0 302.0 442.5 360.5Q552.0 419.0 466.0 335.5Q380.0 252.0 436.5 294.0Q493.0 336.0 503.5 337.5Q514.0 339.0 485.5 261.5Q457.0 184.0 511.5 296.0Q566.0 408.0 545.5 289.5Q525.0 171.0 546.0 238.5Q567.0 306.0 574.5 313.5Q582.0 321.0 604.5 241.5Q627.0 162.0 605.5 285.0Q584.0 408.0 637.0 299.5Q690.0 191.0 667.5 258.0Q645.0 325.0 646.5 336.0Q648.0 347.0 713.5 295.5Q779.0 244.0 688.5 331.0Q598.0 418.0 705.0 361.5Q812.0 305.0 754.0 346.0Q696.0 387.0 691.0 396.5Q686.0 406.0 769.5 403.0Q853.0 400.0 848.5 434.5Q844.0 469.0 773.0 468.0Q702.0 467.0 692.0 472.0Q682.0 477.0 751.5 523.5Q821.0 570.0 709.5 511.0Q598.0 452.0 685.5 536.5Q773.0 621.0 716.0 578.5Q659.0 536.0 648.0 534.5Q637.0 533.0 666.0 611.5Q695.0 690.0 639.5 576.0Q584.0 462.0 605.0 582.5Q626.0 703.0 604.5 634.5Q583.0 566.0 575.5 558.5Q568.0 551.0 545.0 632.0Q522.0 713.0 544.0 587.5Q566.0 462.0 512.5 572.0Q459.0 682.0 481.5 614.0Q504.0 546.0 502.5 535.5Q501.0 525.0 434.5 577.0Q368.0 629.0 460.0 540.5Q552.0 452.0 443.5 509.5Q335.0 567.0 393.5 525.5Q452.0 484.0 457.0 474.0Q462.0 464.0 377.5 467.5Q293.0 471.0 419.5 453.0Q546.0 435.0 424.0 418.0Q302.0 401.0 374.5 401.5Q447.0 402.0 456.5 397.0Q466.0 392.0 395.5 345.0Q325.0 298.0 438.5 358.0Q552.0 418.0 463.0 332.0Q374.0 246.0 432.0 289.5Q490.0 333.0 501.0 334.5Q512.0 336.0 482.5 256.0Q453.0 176.0 509.5 291.5Q566.0 407.0 544.5 285.0Q523.0 163.0 545.0 232.5Q567.0 302.0 574.5 309.5Q582.0 317.0 605.5 235.0Q629.0 153.0 606.5 280.0Q584.0 407.0 638.5 295.5Q693.0 184.0 670.0 253.0Q647.0 322.0 648.5 333.0Q650.0 344.0 717.5 291.0Q785.0 238.0 692.0 328.0Q599.0 418.0 709.0 359.5Q819.0 301.0 759.5 343.5Q700.0 386.0 695.0 396.0Q690.0 406.0 775.5 402.5Q861.0 399.0 732.5 417.0Q604.0 435.0 728.0 452.5Q852.0 470.0 778.5 469.0Q705.0 468.0 695.0 473.5Q685.0 479.0 757.0 526.5Q829.0 574.0 714.0 513.0Q599.0 452.0 689.0 539.5Q779.0 627.0 720.0 583.0Q661.0 539.0 650.0 537.5Q639.0 536.0 669.0 617.0Q699.0 698.0 641.5 580.5Q584.0 463.0 606.0 587.0Q628.0 711.0 606.0 640.5Q584.0 570.0 575.5 562.0Q567.0 554.0 543.5 637.5Q520.0 721.0 543.0 592.0Q566.0 463.0 510.5 576.5Q455.0 690.0 478.5 620.0Q502.0 550.0 500.5 538.5Q499.0 527.0 430.5 581.0Q362.0 635.0 456.5 543.5Q551.0 452.0 439.5 511.5Q328.0 571.0 388.0 528.0Q448.0 485.0 453.5 475.0Q459.0 465.0 371.5 468.5Q284.0 472.0 414.5 453.5Q545.0 435.0 419.5 417.5Q294.0 400.0 368.5 400.5Q443.0 401.0 453.0 396.0Q463.0 391.0 390.5 342.5Q318.0 294.0 434.5 355.5Q551.0 417.0 459.5 329.0Q368.0 241.0 428.0 285.0Q488.0 329.0 499.0 331.0Q510.0 333.0 480.0 250.5Q450.0 168.0 486.0 161.5Q522.0 155.0 544.0 226.5Q566.0 298.0 574.5 306.0Q583.0 314.0 606.5 229.5Q630.0 145.0 663.5 161.0Q697.0 177.0 673.0 248.0Q649.0 319.0 650.5 330.0Q652.0 341.0 721.5 286.5Q791.0 232.0 695.0 324.5Q599.0 417.0 712.5 357.0Q826.0 297.0 764.5 340.5Q703.0 384.0 698.0 394.5Q693.0 405.0 781.5 401.5Q870.0 398.0 737.5 416.5Q605.0 435.0 732.5 453.0Q860.0 471.0 784.5 470.0Q709.0 469.0 699.0 474.5Q689.0 480.0 762.5 529.5Q836.0 579.0 717.5 516.0Q599.0 453.0 692.0 542.5Q785.0 632.0 724.5 587.0Q664.0 542.0 652.5 540.5Q641.0 539.0 671.5 622.0Q702.0 705.0 643.0 584.5Q584.0 464.0 606.5 591.5Q629.0 719.0 606.5 646.5Q584.0 574.0 575.5 566.0Q567.0 558.0 543.0 643.5Q519.0 729.0 542.5 596.5Q566.0 464.0 509.0 580.5Q452.0 697.0 476.0 625.0Q500.0 553.0 498.0 541.5Q496.0 530.0 426.0 585.5Q356.0 641.0 453.0 547.0Q550.0 453.0 435.0 514.0Q320.0 575.0 382.5 531.0Q445.0 487.0 450.0 476.5Q455.0 466.0 365.5 469.5Q276.0 473.0 410.0 454.0Q544.0 435.0 415.0 416.5Q286.0 398.0 362.5 399.0Q439.0 400.0 449.5 394.5Q460.0 389.0 385.0 339.0Q310.0 289.0 430.0 353.0Q550.0 417.0 456.0 326.0Q362.0 235.0 423.5 280.5Q485.0 326.0 496.5 328.0Q508.0 330.0 477.0 245.5Q446.0 161.0 506.0 283.5Q566.0 406.0 543.0 276.5Q520.0 147.0 543.0 220.5Q566.0 294.0 574.5 302.5Q583.0 311.0 607.5 223.5Q632.0 136.0 608.5 271.0Q585.0 406.0 642.5 287.5Q700.0 169.0 675.5 242.0Q651.0 315.0 653.0 327.0Q655.0 339.0 726.0 282.5Q797.0 226.0 698.5 321.5Q600.0 417.0 716.5 355.0Q833.0 293.0 770.0 338.0Q707.0 383.0 701.5 393.5Q696.0 404.0 787.0 400.5Q878.0 397.0 742.0 416.0Q606.0 435.0 737.0 453.5Q868.0 472.0 790.5 471.0Q713.0 470.0 702.5 475.5Q692.0 481.0 768.0 532.0Q844.0 583.0 722.0 518.0Q600.0 453.0 695.5 545.5Q791.0 638.0 728.5 591.5Q666.0 545.0 654.5 543.0Q643.0 541.0 674.5 627.0Q706.0 713.0 645.5 589.0Q585.0 465.0 608.0 596.0Q631.0 727.0 607.5 652.5Q584.0 578.0 575.5 569.5Q567.0 561.0 542.0 649.5Q517.0 738.0 541.0 601.5Q565.0 465.0 506.5 585.0Q448.0 705.0 473.0 630.5Q498.0 556.0 496.0 544.5Q494.0 533.0 422.0 590.0Q350.0 647.0 331.5 613.0Q313.0 579.0 377.0 533.5Q441.0 488.0 446.5 477.5Q452.0 467.0 360.0 470.5Q268.0 474.0 273.0 435.5Q278.0 397.0 356.5 398.0Q435.0 399.0 445.5 393.5Q456.0 388.0 379.5 336.5Q303.0 285.0 426.5 350.5Q550.0 416.0 453.0 322.5Q356.0 229.0 419.5 276.0Q483.0 323.0 494.5 325.0Q506.0 327.0 474.0 240.0Q442.0 153.0 503.5 279.0Q565.0 405.0 542.0 272.0Q519.0 139.0 542.5 214.5Q566.0 290.0 574.5 298.5Q583.0 307.0 608.5 217.5Q634.0 128.0 609.5 266.5Q585.0 405.0 644.5 283.5Q704.0 162.0 678.5 237.0Q653.0 312.0 655.0 324.0Q657.0 336.0 730.0 278.5Q803.0 221.0 702.0 318.5Q601.0 416.0 720.5 352.5Q840.0 289.0 775.5 335.0Q711.0 381.0 705.5 392.0Q700.0 403.0 793.5 399.5Q887.0 396.0 747.0 415.5Q607.0 435.0 741.5 454.0Q876.0 473.0 796.5 472.0Q717.0 471.0 706.0 477.0Q695.0 483.0 773.0 535.0Q851.0 587.0 726.0 520.5Q601.0 454.0 699.0 548.5Q797.0 643.0 733.0 595.5Q669.0 548.0 656.5 546.0Q644.0 544.0 676.5 632.5Q709.0 721.0 670.5 728.0Q632.0 735.0 608.0 658.5Q584.0 582.0 575.5 573.5Q567.0 565.0 541.5 655.5Q516.0 746.0 540.5 606.0Q565.0 466.0 505.0 589.0Q445.0 712.0 470.5 636.0Q496.0 560.0 494.0 547.5Q492.0 535.0 418.0 593.5Q344.0 652.0 446.5 553.0Q549.0 454.0 427.5 518.5Q306.0 583.0 371.5 536.0Q437.0 489.0 442.5 478.0Q448.0 467.0 353.5 471.0Q259.0 475.0 401.0 455.0Q543.0 435.0 406.5 415.5Q270.0 396.0 350.5 397.0Q431.0 398.0 442.0 392.5Q453.0 387.0 374.0 334.0Q295.0 281.0 422.0 348.5Q549.0 416.0 449.5 320.0Q350.0 224.0 415.0 272.0Q480.0 320.0 492.5 322.0Q505.0 324.0 472.0 234.5Q439.0 145.0 502.0 274.5Q565.0 404.0 541.0 267.5Q517.0 131.0 541.5 208.5Q566.0 286.0 574.5 295.0Q583.0 304.0 609.0 212.0Q635.0 120.0 610.0 262.0Q585.0 404.0 646.0 279.0Q707.0 154.0 681.0 231.5Q655.0 309.0 657.0 321.0Q659.0 333.0 734.5 274.0Q810.0 215.0 829.0 250.0Q848.0 285.0 781.0 332.5Q714.0 380.0 708.5 391.0Q703.0 402.0 799.0 398.5Q895.0 395.0 751.5 415.0Q608.0 435.0 746.0 454.5Q884.0 474.0 802.5 473.0Q721.0 472.0 709.5 478.0Q698.0 484.0 778.0 537.5Q858.0 591.0 730.0 522.5Q602.0 454.0 702.5 551.5Q803.0 649.0 737.0 600.0Q671.0 551.0 658.5 549.0Q646.0 547.0 679.5 637.5Q713.0 728.0 649.0 597.0Q585.0 466.0 609.5 604.5Q634.0 743.0 609.0 664.5Q584.0 586.0 575.5 577.0Q567.0 568.0 540.5 661.0Q514.0 754.0 477.5 736.5Q441.0 719.0 467.5 641.0Q494.0 563.0 492.0 550.5Q490.0 538.0 413.5 598.0Q337.0 658.0 442.5 556.0Q548.0 454.0 423.5 520.5Q299.0 587.0 366.5 539.0Q434.0 491.0 439.5 479.5Q445.0 468.0 348.0 472.0Q251.0 476.0 396.5 455.5Q542.0 435.0 401.5 415.0Q261.0 395.0 344.0 396.0Q427.0 397.0 438.5 391.0Q450.0 385.0 369.0 331.0Q288.0 277.0 418.0 346.0Q548.0 415.0 446.0 316.5Q344.0 218.0 411.0 267.5Q478.0 317.0 490.5 319.0Q503.0 321.0 469.0 229.5Q435.0 138.0 500.0 270.5Q565.0 403.0 540.0 263.0Q515.0 123.0 540.0 202.5Q565.0 282.0 574.0 291.0Q583.0 300.0 610.0 205.5Q637.0 111.0 611.0 257.0Q585.0 403.0 648.0 275.0Q711.0 147.0 684.0 226.0Q657.0 305.0 659.0 318.0Q661.0 331.0 738.5 270.0Q816.0 209.0 709.0 312.0Q602.0 415.0 728.5 348.0Q855.0 281.0 786.5 329.5Q718.0 378.0 712.5 389.5Q707.0 401.0 805.0 397.5Q903.0 394.0 756.0 414.5Q609.0 435.0 751.0 455.0Q893.0 475.0 809.0 474.0Q725.0 473.0 713.5 479.0Q702.0 485.0 784.0 540.0Q866.0 595.0 734.0 525.0Q602.0 455.0 705.5 555.0Q809.0 655.0 741.5 604.5Q674.0 554.0 661.0 552.0Q648.0 550.0 682.5 643.0Q717.0 736.0 651.0 601.5Q585.0 467.0 610.0 609.0Q635.0 751.0 610.0 670.5Q585.0 590.0 575.5 581.0Q566.0 572.0 539.0 667.5Q512.0 763.0 538.5 615.0Q565.0 467.0 501.5 597.0Q438.0 727.0 465.0 646.5Q492.0 566.0 490.0 553.5Q488.0 541.0 409.5 602.5Q331.0 664.0 439.5 559.5Q548.0 455.0 420.0 523.0Q292.0 591.0 361.0 541.5Q430.0 492.0 436.0 480.5Q442.0 469.0 342.0 473.0Q242.0 477.0 391.5 456.0Q541.0 435.0 397.0 414.5Q253.0 394.0 338.5 395.0Q424.0 396.0 435.5 390.0Q447.0 384.0 363.5 328.5Q280.0 273.0 413.5 344.0Q547.0 415.0 442.5 313.5Q338.0 212.0 406.5 263.0Q475.0 314.0 488.0 316.0Q501.0 318.0 466.5 224.0Q432.0 130.0 498.0 266.5Q564.0 403.0 539.0 259.0Q514.0 115.0 539.5 196.5Q565.0 278.0 574.5 287.5Q584.0 297.0 611.0 200.0Q638.0 103.0 612.0 252.5Q586.0 402.0 650.0 270.5Q714.0 139.0 686.5 220.5Q659.0 302.0 661.5 315.0Q664.0 328.0 743.0 265.5Q822.0 203.0 712.5 309.0Q603.0 415.0 732.5 346.0Q862.0 277.0 792.0 327.0Q722.0 377.0 716.0 388.5Q710.0 400.0 811.0 396.0Q912.0 392.0 906.5 434.0Q901.0 476.0 814.5 475.0Q728.0 474.0 716.5 480.0Q705.0 486.0 789.0 542.5Q873.0 599.0 738.0 527.0Q603.0 455.0 709.0 557.5Q815.0 660.0 745.5 608.5Q676.0 557.0 663.0 555.0Q650.0 553.0 685.0 648.5Q720.0 744.0 653.0 606.0Q586.0 468.0 611.5 613.5Q637.0 759.0 611.0 676.5Q585.0 594.0 575.5 584.5Q566.0 575.0 538.5 673.0Q511.0 771.0 537.5 619.5Q564.0 468.0 499.0 601.0Q434.0 734.0 462.0 652.0Q490.0 570.0 487.5 556.5Q485.0 543.0 405.0 606.5Q325.0 670.0 436.0 562.5Q547.0 455.0 415.5 525.0Q284.0 595.0 355.0 544.5Q426.0 494.0 432.0 482.0Q438.0 470.0 336.0 474.0Q234.0 478.0 387.0 456.5Q540.0 435.0 392.5 414.0Q245.0 393.0 332.5 394.0Q420.0 395.0 431.5 389.0Q443.0 383.0 358.0 326.0Q273.0 269.0 410.0 341.5Q547.0 414.0 439.5 310.5Q332.0 207.0 402.5 259.0Q473.0 311.0 486.0 313.0Q499.0 315.0 463.5 218.5Q428.0 122.0 496.0 262.0Q564.0 402.0 538.0 254.5Q512.0 107.0 538.5 190.5Q565.0 274.0 574.5 283.5Q584.0 293.0 612.0 194.0Q640.0 95.0 679.0 113.5Q718.0 132.0 690.0 215.5Q662.0 299.0 664.0 312.0Q666.0 325.0 747.0 261.0Q828.0 197.0 715.5 305.5Q603.0 414.0 736.0 343.5Q869.0 273.0 797.5 324.0Q726.0 375.0 719.5 387.0Q713.0 399.0 816.5 395.0Q920.0 391.0 765.0 413.0Q610.0 435.0 759.5 456.0Q909.0 477.0 820.5 476.0Q732.0 475.0 720.0 481.5Q708.0 488.0 794.5 545.5Q881.0 603.0 742.5 529.5Q604.0 456.0 712.5 561.0Q821.0 666.0 750.0 613.0Q679.0 560.0 665.5 558.0Q652.0 556.0 688.0 653.5Q724.0 751.0 655.0 610.0Q586.0 469.0 612.0 618.0Q638.0 767.0 611.5 682.5Q585.0 598.0 575.5 588.5Q566.0 579.0 537.5 679.0Q509.0 779.0 536.5 624.0Q564.0 469.0 497.5 605.5Q431.0 742.0 459.0 657.5Q487.0 573.0 485.0 559.5Q483.0 546.0 401.0 611.0Q319.0 676.0 432.5 566.0Q546.0 456.0 411.5 527.5Q277.0 599.0 350.0 547.0Q423.0 495.0 429.0 483.0Q435.0 471.0 330.0 475.0Q225.0 479.0 382.0 457.0Q539.0 435.0 388.0 413.5Q237.0 392.0 326.5 393.0Q416.0 394.0 428.0 388.0Q440.0 382.0 353.0 323.5Q266.0 265.0 406.0 339.5Q546.0 414.0 436.0 307.5Q326.0 201.0 398.0 254.5Q470.0 308.0 483.5 310.0Q497.0 312.0 460.5 213.5Q424.0 115.0 494.0 258.0Q564.0 401.0 537.5 250.0Q511.0 99.0 538.0 184.5Q565.0 270.0 574.5 280.0Q584.0 290.0 612.5 188.0Q641.0 86.0 613.5 243.5Q586.0 401.0 653.5 263.0Q721.0 125.0 692.5 210.0Q664.0 295.0 666.0 309.0Q668.0 323.0 751.0 257.5Q834.0 192.0 719.0 303.0Q604.0 414.0 740.0 341.5Q876.0 269.0 802.5 321.5Q729.0 374.0 723.0 386.5Q717.0 399.0 823.0 394.5Q929.0 390.0 770.0 412.5Q611.0 435.0 764.0 456.5Q917.0 478.0 826.5 477.0Q736.0 476.0 723.5 482.5Q711.0 489.0 799.5 548.0Q888.0 607.0 857.5 639.5Q827.0 672.0 754.0 617.5Q681.0 563.0 667.5 561.0Q654.0 559.0 691.0 659.0Q728.0 759.0 657.0 614.5Q586.0 470.0 613.0 622.5Q640.0 775.0 612.5 688.5Q585.0 602.0 575.5 592.0Q566.0 582.0 537.0 685.0Q508.0 788.0 536.0 629.0Q564.0 470.0 495.5 609.5Q427.0 749.0 456.0 662.5Q485.0 576.0 483.0 562.5Q481.0 549.0 397.0 615.0Q313.0 681.0 429.0 568.5Q545.0 456.0 407.5 529.5Q270.0 603.0 344.5 550.0Q419.0 497.0 425.5 484.5Q432.0 472.0 324.5 476.0Q217.0 480.0 377.5 457.5Q538.0 435.0 383.5 413.0Q229.0 391.0 320.5 392.0Q412.0 393.0 424.5 386.5Q437.0 380.0 347.5 320.5Q258.0 261.0 401.5 337.0Q545.0 413.0 432.5 304.5Q320.0 196.0 394.0 250.5Q468.0 305.0 481.5 307.0Q495.0 309.0 458.0 208.0Q421.0 107.0 492.5 253.5Q564.0 400.0 536.5 245.5Q509.0 91.0 536.5 178.5Q564.0 266.0 574.0 276.0Q584.0 286.0 613.5 182.0Q643.0 78.0 614.5 239.0Q586.0 400.0 655.5 258.5Q725.0 117.0 695.5 204.5Q666.0 292.0 668.0 306.0Q670.0 320.0 755.0 253.0Q840.0 186.0 722.5 299.5Q605.0 413.0 744.5 339.0Q884.0 265.0 808.5 318.5Q733.0 372.0 726.5 385.0Q720.0 398.0 828.5 393.5Q937.0 389.0 774.5 412.0Q612.0 435.0 768.5 457.0Q925.0 479.0 832.5 478.0Q740.0 477.0 727.5 483.5Q715.0 490.0 805.5 550.5Q896.0 611.0 750.5 534.0Q605.0 457.0 719.0 567.0Q833.0 677.0 758.5 621.5Q684.0 566.0 670.0 564.0Q656.0 562.0 693.5 664.5Q731.0 767.0 686.0 775.0Q641.0 783.0 613.5 694.5Q586.0 606.0 576.0 596.0Q566.0 586.0 536.0 691.0Q506.0 796.0 534.5 633.0Q563.0 470.0 493.5 613.5Q424.0 757.0 453.5 668.5Q483.0 580.0 481.0 566.0Q479.0 552.0 392.5 619.5Q306.0 687.0 425.5 572.0Q545.0 457.0 404.0 532.0Q263.0 607.0 339.0 552.5Q415.0 498.0 421.5 485.5Q428.0 473.0 318.5 477.0Q209.0 481.0 215.0 435.5Q221.0 390.0 314.5 391.0Q408.0 392.0 421.0 385.5Q434.0 379.0 342.5 318.0Q251.0 257.0 282.5 223.5Q314.0 190.0 389.5 246.0Q465.0 302.0 479.0 304.0Q493.0 306.0 455.0 202.5Q417.0 99.0 490.0 249.0Q563.0 399.0 535.5 241.0Q508.0 83.0 536.0 172.5Q564.0 262.0 574.5 272.5Q585.0 283.0 615.0 176.5Q645.0 70.0 616.0 234.5Q587.0 399.0 657.5 254.5Q728.0 110.0 698.0 199.5Q668.0 289.0 670.5 303.0Q673.0 317.0 760.0 248.5Q847.0 180.0 726.5 296.5Q606.0 413.0 748.5 337.0Q891.0 261.0 814.0 316.0Q737.0 371.0 730.0 384.0Q723.0 397.0 834.5 392.5Q946.0 388.0 779.5 411.5Q613.0 435.0 773.0 457.5Q933.0 480.0 838.5 479.0Q744.0 478.0 731.0 485.0Q718.0 492.0 810.5 553.5Q903.0 615.0 754.5 536.0Q606.0 457.0 722.5 570.0Q839.0 683.0 762.5 626.0Q686.0 569.0 672.0 567.0Q658.0 565.0 696.5 670.0Q735.0 775.0 661.0 623.0Q587.0 471.0 615.0 631.0Q643.0 791.0 614.5 700.5Q586.0 610.0 575.5 599.5Q565.0 589.0 535.0 696.5Q505.0 804.0 534.0 637.5Q563.0 471.0 491.5 617.5Q420.0 764.0 450.5 673.5Q481.0 583.0 478.5 568.5Q476.0 554.0 388.0 623.5Q300.0 693.0 422.0 575.0Q544.0 457.0 400.0 534.0Q256.0 611.0 334.0 555.5Q412.0 500.0 418.5 487.0Q425.0 474.0 312.5 478.0Q200.0 482.0 368.5 458.5Q537.0 435.0 375.0 412.0Q213.0 389.0 308.5 390.0Q404.0 391.0 417.5 384.5Q431.0 378.0 337.0 315.5Q243.0 253.0 393.5 332.5Q544.0 412.0 426.0 298.0Q308.0 184.0 385.0 241.5Q462.0 299.0 477.0 301.0Q492.0 303.0 452.5 197.5Q413.0 92.0 488.0 245.0Q563.0 398.0 534.5 236.5Q506.0 75.0 535.0 166.5Q564.0 258.0 574.5 268.5Q585.0 279.0 615.5 170.0Q646.0 61.0 616.5 229.5Q587.0 398.0 659.5 250.0Q732.0 102.0 701.0 193.5Q670.0 285.0 672.5 299.5Q675.0 314.0 764.0 244.0Q853.0 174.0 729.5 293.0Q606.0 412.0 752.0 334.5Q898.0 257.0 819.0 313.5Q740.0 370.0 733.5 383.0Q727.0 396.0 840.5 391.5Q954.0 387.0 784.0 411.0Q614.0 435.0 777.5 458.0Q941.0 481.0 844.5 480.0Q748.0 479.0 734.5 486.0Q721.0 493.0 816.0 556.0Q911.0 619.0 758.5 538.5Q606.0 458.0 725.5 573.0Q845.0 688.0 767.0 630.5Q689.0 573.0 674.0 570.5Q659.0 568.0 698.5 675.0Q738.0 782.0 662.5 627.0Q587.0 472.0 616.0 635.5Q645.0 799.0 615.5 706.5Q586.0 614.0 575.5 603.5Q565.0 593.0 534.0 703.0Q503.0 813.0 533.0 642.5Q563.0 472.0 490.0 621.5Q417.0 771.0 448.0 678.5Q479.0 586.0 476.5 571.5Q474.0 557.0 384.0 628.0Q294.0 699.0 418.5 578.5Q543.0 458.0 395.5 536.5Q248.0 615.0 328.0 558.0Q408.0 501.0 414.5 487.5Q421.0 474.0 306.5 478.5Q192.0 483.0 364.0 459.0Q536.0 435.0 370.0 411.5Q204.0 388.0 302.5 389.0Q401.0 390.0 414.0 383.5Q427.0 377.0 331.5 313.0Q236.0 249.0 389.5 330.5Q543.0 412.0 422.5 295.5Q302.0 179.0 381.0 237.5Q460.0 296.0 475.0 298.5Q490.0 301.0 450.0 192.5Q410.0 84.0 457.5 75.5Q505.0 67.0 534.5 160.5Q564.0 254.0 574.5 265.0Q585.0 276.0 616.5 164.5Q648.0 53.0 691.5 74.0Q735.0 95.0 703.5 188.5Q672.0 282.0 674.5 297.0Q677.0 312.0 768.0 240.0Q859.0 168.0 733.0 290.0Q607.0 412.0 756.0 332.5Q905.0 253.0 824.5 310.5Q744.0 368.0 737.0 381.5Q730.0 395.0 846.0 390.5Q962.0 386.0 788.5 410.5Q615.0 435.0 782.5 458.5Q950.0 482.0 850.5 481.0Q751.0 480.0 737.5 487.0Q724.0 494.0 821.0 559.0Q918.0 624.0 762.5 541.0Q607.0 458.0 729.0 576.0Q851.0 694.0 771.0 635.0Q691.0 576.0 676.0 573.5Q661.0 571.0 701.5 680.5Q742.0 790.0 664.5 631.5Q587.0 473.0 616.5 640.5Q646.0 808.0 616.0 712.5Q586.0 617.0 575.5 606.5"/>
  </g>
</svg>
