<svg version="1.1" width="1150" height="870" xmlns="http://www.w3.org/2000/svg">
  <!-- Seed: 2687678799634525683 -->
  <!-- Size: SvgSize.Size9x12 -->
  <!-- Params:
    draw: True
    padding: 0
    spacing: 5
    points_per_step_ring: 50
    bump_range: [RangeFloat] min: 0 max: 0.1
    bump_mult: [RangeInt] min: 2 max: 20
  -->
  <g stroke="black" fill="none">
    <path d="M575.0 435.5Q575.0 436.0 574.5 436.5Q574.0 437.0 574.0 436.5Q574.0 436.0 573.5 436.0Q573.0 436.0 573.0 435.5Q573.0 435.0 572.5 435.0Q572.0 435.0 572.0 434.5Q572.0 434.0 572.5 434.0Q573.0 434.0 572.5 433.5Q572.0 433.0 572.5 433.0Q573.0 433.0 573.0 432.5Q573.0 432.0 573.5 432.0Q574.0 432.0 574.0 431.5Q574.0 431.0 574.5 431.5Q575.0 432.0 575.0 431.5Q575.0 431.0 575.5 431.0Q576.0 431.0 576.0 431.5Q576.0 432.0 576.5 431.5Q577.0 431.0 577.5 431.5Q578.0 432.0 578.5 432.0Q579.0 432.0 578.5 432.5Q578.0 433.0 578.5 433.0Q579.0 433.0 579.5 433.0Q580.0 433.0 579.5 433.5Q579.0 434.0 579.5 434.0Q580.0 434.0 580.0 434.5Q580.0 435.0 579.5 435.5Q579.0 436.0 579.5 436.0Q580.0 436.0 580.0 436.5Q580.0 437.0 579.5 437.0Q579.0 437.0 579.5 438.0Q580.0 439.0 579.5 439.0Q579.0 439.0 578.5 439.0Q578.0 439.0 578.0 439.5Q578.0 440.0 577.5 440.0Q577.0 440.0 577.0 440.5Q577.0 441.0 576.5 441.5Q576.0 442.0 575.5 441.5Q575.0 441.0 575.0 441.5Q575.0 442.0 574.5 442.0Q574.0 442.0 573.5 441.5Q573.0 441.0 572.5 441.5Q572.0 442.0 571.5 441.5Q571.0 441.0 571.0 440.5Q571.0 440.0 570.0 440.0Q569.0 440.0 569.5 439.5Q570.0 439.0 569.5 438.5Q569.0 438.0 568.5 438.0Q568.0 438.0 568.5 437.5Q569.0 437.0 568.0 436.5Q567.0 436.0 567.0 435.5Q567.0 435.0 567.5 434.5Q568.0 434.0 567.5 433.5Q567.0 433.0 567.5 432.5Q568.0 432.0 568.5 432.0Q569.0 432.0 568.5 431.0Q568.0 430.0 568.5 430.0Q569.0 430.0 569.5 429.5Q570.0 429.0 570.0 428.0Q570.0 427.0 571.0 427.5Q572.0 428.0 572.0 427.5Q572.0 427.0 572.5 426.5Q573.0 426.0 574.0 426.5Q575.0 427.0 575.5 426.5Q576.0 426.0 576.5 426.0Q577.0 426.0 577.0 426.5Q577.0 427.0 578.0 426.5Q579.0 426.0 579.5 426.5Q580.0 427.0 580.0 427.5Q580.0 428.0 581.5 428.0Q583.0 428.0 582.5 429.0Q582.0 430.0 582.5 430.5Q583.0 431.0 584.0 431.0Q585.0 431.0 584.5 432.0Q584.0 433.0 584.5 433.5Q585.0 434.0 585.5 434.5Q586.0 435.0 585.0 435.5Q584.0 436.0 585.0 437.0Q586.0 438.0 585.5 438.5Q585.0 439.0 584.0 439.5Q583.0 440.0 583.5 441.0Q584.0 442.0 583.0 442.0Q582.0 442.0 581.5 442.5Q581.0 443.0 581.0 444.0Q581.0 445.0 580.0 444.5Q579.0 444.0 578.5 444.5Q578.0 445.0 577.5 446.0Q577.0 447.0 576.5 446.0Q576.0 445.0 575.0 446.0Q574.0 447.0 573.5 447.0Q573.0 447.0 572.5 446.0Q572.0 445.0 571.0 445.5Q570.0 446.0 569.5 445.5Q569.0 445.0 568.5 444.0Q568.0 443.0 566.5 443.5Q565.0 444.0 565.5 443.0Q566.0 442.0 565.5 441.5Q565.0 441.0 563.5 440.5Q562.0 440.0 563.0 439.0Q564.0 438.0 563.0 437.5Q562.0 437.0 562.0 436.0Q562.0 435.0 563.0 434.5Q564.0 434.0 563.0 433.0Q562.0 432.0 562.5 431.0Q563.0 430.0 564.0 429.5Q565.0 429.0 564.0 428.0Q563.0 427.0 564.5 426.5Q566.0 426.0 566.5 425.5Q567.0 425.0 567.0 424.0Q567.0 423.0 568.5 423.5Q570.0 424.0 570.5 423.0Q571.0 422.0 571.5 421.0Q572.0 420.0 573.0 421.5Q574.0 423.0 575.0 422.0Q576.0 421.0 577.0 421.0Q578.0 421.0 578.5 422.0Q579.0 423.0 580.5 422.0Q582.0 421.0 582.5 422.0Q583.0 423.0 583.0 424.0Q583.0 425.0 585.0 424.5Q587.0 424.0 586.5 425.5Q586.0 427.0 586.5 427.5Q587.0 428.0 588.5 428.5Q590.0 429.0 589.0 430.5Q588.0 432.0 589.0 432.5Q590.0 433.0 590.5 434.0Q591.0 435.0 589.5 436.0Q588.0 437.0 589.5 438.0Q591.0 439.0 590.5 440.0Q590.0 441.0 588.5 441.5Q587.0 442.0 588.0 443.5Q589.0 445.0 587.5 445.0Q586.0 445.0 585.0 445.5Q584.0 446.0 584.0 448.0Q584.0 450.0 582.5 449.0Q581.0 448.0 580.5 449.0Q580.0 450.0 579.0 451.0Q578.0 452.0 577.0 450.5Q576.0 449.0 575.0 450.5Q574.0 452.0 573.0 452.0Q572.0 452.0 571.0 450.5Q570.0 449.0 568.5 450.0Q567.0 451.0 566.5 450.0Q566.0 449.0 565.5 448.0Q565.0 447.0 563.0 447.5Q561.0 448.0 561.5 446.0Q562.0 444.0 561.5 443.5Q561.0 443.0 559.0 442.5Q557.0 442.0 558.5 440.5Q560.0 439.0 558.5 438.0Q557.0 437.0 556.5 436.0Q556.0 435.0 558.0 434.0Q560.0 433.0 558.5 431.5Q557.0 430.0 557.5 429.0Q558.0 428.0 559.5 427.5Q561.0 427.0 560.0 425.0Q559.0 423.0 560.5 423.0Q562.0 423.0 563.0 422.5Q564.0 422.0 564.0 420.0Q564.0 418.0 566.0 419.0Q568.0 420.0 568.5 419.0Q569.0 418.0 570.0 416.5Q571.0 415.0 572.5 416.5Q574.0 418.0 575.0 416.5Q576.0 415.0 577.5 415.5Q579.0 416.0 579.5 417.5Q580.0 419.0 582.0 417.5Q584.0 416.0 584.5 417.5Q585.0 419.0 585.5 420.0Q586.0 421.0 588.5 420.5Q591.0 420.0 590.5 422.0Q590.0 424.0 591.0 425.0Q592.0 426.0 593.5 426.5Q595.0 427.0 593.5 429.0Q592.0 431.0 593.5 431.5Q595.0 432.0 595.5 433.5Q596.0 435.0 594.5 436.0Q593.0 437.0 594.5 438.5Q596.0 440.0 595.0 441.5Q594.0 443.0 592.5 443.5Q591.0 444.0 592.0 446.0Q593.0 448.0 591.0 448.5Q589.0 449.0 588.0 449.5Q587.0 450.0 587.0 452.5Q587.0 455.0 585.0 453.5Q583.0 452.0 582.0 453.5Q581.0 455.0 580.0 456.5Q579.0 458.0 577.5 456.0Q576.0 454.0 575.0 455.5Q574.0 457.0 572.5 457.0Q571.0 457.0 570.0 455.0Q569.0 453.0 567.0 454.5Q565.0 456.0 564.0 454.5Q563.0 453.0 562.5 451.5Q562.0 450.0 559.5 451.0Q557.0 452.0 557.5 449.5Q558.0 447.0 557.0 446.0Q556.0 445.0 554.0 444.5Q552.0 444.0 554.0 442.0Q556.0 440.0 554.0 439.0Q552.0 438.0 551.5 436.5Q551.0 435.0 553.0 433.5Q555.0 432.0 553.0 430.5Q551.0 429.0 552.0 427.5Q553.0 426.0 555.0 425.5Q557.0 425.0 555.5 422.5Q554.0 420.0 556.5 420.0Q559.0 420.0 560.0 419.0Q561.0 418.0 561.0 415.5Q561.0 413.0 563.5 414.5Q566.0 416.0 567.0 414.5Q568.0 413.0 569.0 411.5Q570.0 410.0 572.0 412.0Q574.0 414.0 575.5 412.0Q577.0 410.0 578.5 410.0Q580.0 410.0 581.0 412.5Q582.0 415.0 584.0 413.0Q586.0 411.0 587.0 413.0Q588.0 415.0 588.5 416.5Q589.0 418.0 592.0 417.0Q595.0 416.0 594.5 418.5Q594.0 421.0 595.0 422.5Q596.0 424.0 598.0 424.5Q600.0 425.0 598.5 427.0Q597.0 429.0 598.5 430.5Q600.0 432.0 601.0 433.5Q602.0 435.0 599.5 436.5Q597.0 438.0 599.0 440.0Q601.0 442.0 600.0 443.5Q599.0 445.0 597.0 445.5Q595.0 446.0 596.5 449.0Q598.0 452.0 595.5 452.0Q593.0 452.0 591.5 453.0Q590.0 454.0 590.0 456.5Q590.0 459.0 587.5 457.5Q585.0 456.0 584.0 458.0Q583.0 460.0 581.5 461.5Q580.0 463.0 578.0 460.5Q576.0 458.0 574.5 460.5Q573.0 463.0 571.5 462.5Q570.0 462.0 569.0 459.5Q568.0 457.0 565.5 459.0Q563.0 461.0 562.0 459.0Q561.0 457.0 560.0 455.5Q559.0 454.0 556.0 454.5Q553.0 455.0 553.5 452.5Q554.0 450.0 553.0 449.0Q552.0 448.0 549.5 447.0Q547.0 446.0 549.0 443.5Q551.0 441.0 549.0 440.0Q547.0 439.0 546.5 437.0Q546.0 435.0 548.5 433.5Q551.0 432.0 548.5 430.0Q546.0 428.0 547.5 426.5Q549.0 425.0 551.0 424.0Q553.0 423.0 551.5 420.0Q550.0 417.0 552.5 416.5Q555.0 416.0 556.5 415.5Q558.0 415.0 558.0 411.5Q558.0 408.0 561.0 409.5Q564.0 411.0 565.0 409.5Q566.0 408.0 567.5 406.0Q569.0 404.0 571.0 406.5Q573.0 409.0 575.0 407.0Q577.0 405.0 579.0 405.0Q581.0 405.0 582.0 407.5Q583.0 410.0 586.0 408.0Q589.0 406.0 590.0 408.5Q591.0 411.0 591.5 412.5Q592.0 414.0 595.5 413.5Q599.0 413.0 598.0 416.0Q597.0 419.0 598.5 420.0Q600.0 421.0 603.0 422.0Q606.0 423.0 603.5 425.5Q601.0 428.0 603.0 429.5Q605.0 431.0 606.0 433.0Q607.0 435.0 604.0 436.5Q601.0 438.0 603.5 440.5Q606.0 443.0 605.0 444.5Q604.0 446.0 601.5 447.0Q599.0 448.0 600.5 451.5Q602.0 455.0 599.5 455.0Q597.0 455.0 595.0 456.0Q593.0 457.0 593.0 460.5Q593.0 464.0 590.0 462.5Q587.0 461.0 586.0 462.5Q585.0 464.0 583.0 466.0Q581.0 468.0 579.0 465.5Q577.0 463.0 575.0 465.5Q573.0 468.0 571.0 467.5Q569.0 467.0 567.5 464.5Q566.0 462.0 563.0 464.0Q560.0 466.0 559.0 464.0Q558.0 462.0 557.0 460.0Q556.0 458.0 552.5 458.5Q549.0 459.0 550.0 456.0Q551.0 453.0 549.5 451.5Q548.0 450.0 545.0 449.0Q542.0 448.0 544.5 445.0Q547.0 442.0 544.5 440.5Q542.0 439.0 541.0 437.0Q540.0 435.0 543.0 433.0Q546.0 431.0 543.5 428.5Q541.0 426.0 542.5 424.5Q544.0 423.0 546.5 422.0Q549.0 421.0 547.0 417.5Q545.0 414.0 548.5 413.5Q552.0 413.0 553.5 412.0Q555.0 411.0 555.0 407.5Q555.0 404.0 558.5 405.5Q562.0 407.0 563.5 405.0Q565.0 403.0 566.5 401.0Q568.0 399.0 570.5 402.0Q573.0 405.0 575.0 402.5Q577.0 400.0 579.5 400.0Q582.0 400.0 583.0 403.0Q584.0 406.0 587.5 403.5Q591.0 401.0 592.0 403.5Q593.0 406.0 594.0 408.5Q595.0 411.0 599.0 410.0Q603.0 409.0 602.0 412.5Q601.0 416.0 602.5 417.5Q604.0 419.0 607.5 420.0Q611.0 421.0 608.0 424.0Q605.0 427.0 607.5 429.0Q610.0 431.0 611.0 433.0Q612.0 435.0 609.0 437.0Q606.0 439.0 609.0 441.5Q612.0 444.0 610.0 446.0Q608.0 448.0 605.5 449.0Q603.0 450.0 605.0 454.0Q607.0 458.0 603.5 458.0Q600.0 458.0 598.0 459.5Q596.0 461.0 596.0 465.0Q596.0 469.0 592.5 467.0Q589.0 465.0 587.5 467.0Q586.0 469.0 584.0 471.5Q582.0 474.0 579.5 470.5Q577.0 467.0 575.0 470.0Q573.0 473.0 570.5 472.5Q568.0 472.0 566.5 469.0Q565.0 466.0 561.5 468.5Q558.0 471.0 556.5 468.5Q555.0 466.0 554.0 463.5Q553.0 461.0 549.0 462.0Q545.0 463.0 546.0 459.0Q547.0 455.0 545.5 453.5Q544.0 452.0 540.5 451.0Q537.0 450.0 539.5 446.5Q542.0 443.0 539.5 441.5Q537.0 440.0 536.0 437.5Q535.0 435.0 538.5 433.0Q542.0 431.0 539.0 428.0Q536.0 425.0 537.5 423.0Q539.0 421.0 542.0 420.0Q545.0 419.0 543.0 414.5Q541.0 410.0 544.5 410.0Q548.0 410.0 550.0 408.5Q552.0 407.0 552.0 403.0Q552.0 399.0 556.0 401.0Q560.0 403.0 561.5 401.0Q563.0 399.0 565.0 396.5Q567.0 394.0 570.0 397.5Q573.0 401.0 575.5 397.5Q578.0 394.0 580.5 394.5Q583.0 395.0 584.5 398.5Q586.0 402.0 589.5 399.0Q593.0 396.0 594.5 399.0Q596.0 402.0 597.0 404.5Q598.0 407.0 602.5 406.0Q607.0 405.0 606.0 409.0Q605.0 413.0 607.0 415.0Q609.0 417.0 612.5 418.0Q616.0 419.0 613.0 422.5Q610.0 426.0 612.5 428.0Q615.0 430.0 616.5 432.5Q618.0 435.0 614.0 437.0Q610.0 439.0 613.5 442.5Q617.0 446.0 615.0 448.0Q613.0 450.0 610.0 451.5Q607.0 453.0 609.0 457.0Q611.0 461.0 607.5 461.5Q604.0 462.0 601.5 463.0Q599.0 464.0 599.0 468.5Q599.0 473.0 595.0 471.0Q591.0 469.0 589.5 471.5Q588.0 474.0 585.5 476.5Q583.0 479.0 580.0 475.5Q577.0 472.0 574.5 475.0Q572.0 478.0 569.5 478.0Q567.0 478.0 565.5 474.0Q564.0 470.0 560.0 473.0Q556.0 476.0 554.5 473.0Q553.0 470.0 552.0 467.5Q551.0 465.0 546.0 466.0Q541.0 467.0 542.0 462.5Q543.0 458.0 541.0 456.5Q539.0 455.0 535.5 453.5Q532.0 452.0 535.0 448.0Q538.0 444.0 535.0 442.0Q532.0 440.0 530.5 437.5Q529.0 435.0 533.5 432.5Q538.0 430.0 534.5 427.0Q531.0 424.0 532.5 421.5Q534.0 419.0 537.5 417.5Q541.0 416.0 539.0 411.5Q537.0 407.0 541.0 407.0Q545.0 407.0 547.0 405.5Q549.0 404.0 549.0 399.0Q549.0 394.0 553.5 396.5Q558.0 399.0 560.0 396.5Q562.0 394.0 564.0 391.0Q566.0 388.0 569.5 392.0Q573.0 396.0 575.5 392.5Q578.0 389.0 581.0 389.5Q584.0 390.0 585.5 394.0Q587.0 398.0 591.5 394.5Q596.0 391.0 597.0 394.5Q598.0 398.0 599.5 401.0Q601.0 404.0 606.0 402.5Q611.0 401.0 610.0 405.5Q609.0 410.0 611.0 412.0Q613.0 414.0 617.0 415.5Q621.0 417.0 617.5 421.0Q614.0 425.0 617.5 427.0Q621.0 429.0 622.0 432.0Q623.0 435.0 619.0 437.5Q615.0 440.0 618.5 443.5Q622.0 447.0 620.0 449.5Q618.0 452.0 614.5 453.5Q611.0 455.0 613.5 460.0Q616.0 465.0 611.5 465.0Q607.0 465.0 604.5 466.5Q602.0 468.0 602.0 473.0Q602.0 478.0 597.5 475.5Q593.0 473.0 591.0 475.5Q589.0 478.0 586.5 481.0Q584.0 484.0 581.0 480.0Q578.0 476.0 575.0 479.5Q572.0 483.0 569.0 483.0Q566.0 483.0 564.0 478.5Q562.0 474.0 557.5 477.5Q553.0 481.0 551.5 477.5Q550.0 474.0 549.0 471.0Q548.0 468.0 542.5 469.5Q537.0 471.0 538.0 466.0Q539.0 461.0 537.0 459.0Q535.0 457.0 531.0 455.5Q527.0 454.0 530.5 450.0Q534.0 446.0 530.5 443.5Q527.0 441.0 525.5 438.0Q524.0 435.0 528.5 432.5Q533.0 430.0 529.0 426.0Q525.0 422.0 527.5 419.5Q530.0 417.0 533.5 415.5Q537.0 414.0 534.5 409.0Q532.0 404.0 536.5 403.5Q541.0 403.0 543.5 401.5Q546.0 400.0 546.0 395.0Q546.0 390.0 551.0 392.5Q556.0 395.0 558.0 392.0Q560.0 389.0 562.5 386.0Q565.0 383.0 568.5 387.5Q572.0 392.0 575.0 388.0Q578.0 384.0 581.5 384.5Q585.0 385.0 586.5 389.0Q588.0 393.0 593.0 389.5Q598.0 386.0 599.5 390.0Q601.0 394.0 602.5 397.0Q604.0 400.0 609.5 398.5Q615.0 397.0 614.0 402.5Q613.0 408.0 615.0 410.0Q617.0 412.0 621.5 413.5Q626.0 415.0 622.0 419.5Q618.0 424.0 622.0 426.5Q626.0 429.0 627.5 432.0Q629.0 435.0 624.0 438.0Q619.0 441.0 623.0 444.5Q627.0 448.0 625.0 451.0Q623.0 454.0 619.0 455.5Q615.0 457.0 617.5 462.5Q620.0 468.0 615.5 468.0Q611.0 468.0 608.0 470.0Q605.0 472.0 605.0 477.5Q605.0 483.0 600.0 480.0Q595.0 477.0 593.0 480.0Q591.0 483.0 588.0 486.5Q585.0 490.0 581.5 485.0Q578.0 480.0 575.0 484.5Q572.0 489.0 568.5 488.5Q565.0 488.0 563.0 483.5Q561.0 479.0 556.0 482.5Q551.0 486.0 549.5 482.0Q548.0 478.0 546.5 475.0Q545.0 472.0 539.0 473.5Q533.0 475.0 534.5 469.5Q536.0 464.0 533.5 461.5Q531.0 459.0 526.0 457.5Q521.0 456.0 525.0 451.5Q529.0 447.0 525.5 444.5Q522.0 442.0 520.5 438.5Q519.0 435.0 524.0 432.0Q529.0 429.0 524.5 425.0Q520.0 421.0 522.5 418.0Q525.0 415.0 529.0 413.5Q533.0 412.0 530.5 406.5Q528.0 401.0 533.0 400.5Q538.0 400.0 540.5 398.0Q543.0 396.0 543.0 390.5Q543.0 385.0 548.5 388.0Q554.0 391.0 556.5 387.5Q559.0 384.0 561.5 381.0Q564.0 378.0 568.0 382.5Q572.0 387.0 575.5 383.0Q579.0 379.0 582.5 379.5Q586.0 380.0 588.0 384.5Q590.0 389.0 595.0 385.5Q600.0 382.0 602.0 386.0Q604.0 390.0 605.5 393.5Q607.0 397.0 613.0 395.5Q619.0 394.0 617.5 399.5Q616.0 405.0 618.5 407.5Q621.0 410.0 626.0 411.5Q631.0 413.0 627.0 418.0Q623.0 423.0 627.0 425.5Q631.0 428.0 632.5 431.5Q634.0 435.0 628.5 438.0Q623.0 441.0 627.5 445.5Q632.0 450.0 629.5 453.0Q627.0 456.0 623.0 457.5Q619.0 459.0 622.0 465.0Q625.0 471.0 619.5 471.5Q614.0 472.0 611.0 473.5Q608.0 475.0 608.0 481.0Q608.0 487.0 602.5 484.0Q597.0 481.0 594.5 484.5Q592.0 488.0 589.0 491.5Q586.0 495.0 582.0 490.0Q578.0 485.0 574.5 489.5Q571.0 494.0 567.5 493.5Q564.0 493.0 561.5 488.0Q559.0 483.0 554.0 487.0Q549.0 491.0 547.0 486.5Q545.0 482.0 543.5 478.5Q542.0 475.0 535.5 476.5Q529.0 478.0 530.5 472.0Q532.0 466.0 529.5 464.0Q527.0 462.0 521.5 460.0Q516.0 458.0 520.5 453.0Q525.0 448.0 521.0 445.0Q517.0 442.0 515.0 438.5Q513.0 435.0 518.5 432.0Q524.0 429.0 519.5 424.5Q515.0 420.0 517.5 416.5Q520.0 413.0 524.5 411.5Q529.0 410.0 526.0 403.5Q523.0 397.0 528.5 397.0Q534.0 397.0 537.0 395.0Q540.0 393.0 540.0 386.5Q540.0 380.0 546.0 383.5Q552.0 387.0 554.5 383.5Q557.0 380.0 560.0 376.0Q563.0 372.0 567.5 377.5Q572.0 383.0 575.5 378.0Q579.0 373.0 583.0 373.5Q587.0 374.0 589.0 379.5Q591.0 385.0 596.5 381.0Q602.0 377.0 604.0 381.0Q606.0 385.0 608.0 389.0Q610.0 393.0 616.5 391.5Q623.0 390.0 621.5 396.0Q620.0 402.0 622.5 404.5Q625.0 407.0 630.5 409.0Q636.0 411.0 631.5 416.5Q627.0 422.0 631.5 424.5Q636.0 427.0 637.5 431.0Q639.0 435.0 633.5 438.5Q628.0 442.0 633.0 446.5Q638.0 451.0 635.0 454.5Q632.0 458.0 627.5 459.5Q623.0 461.0 626.0 467.5Q629.0 474.0 623.5 474.5Q618.0 475.0 614.5 477.0Q611.0 479.0 611.0 485.5Q611.0 492.0 605.0 489.0Q599.0 486.0 596.5 489.5Q594.0 493.0 590.5 496.5Q587.0 500.0 582.5 494.5Q578.0 489.0 574.5 494.0Q571.0 499.0 567.0 498.5Q563.0 498.0 560.5 492.5Q558.0 487.0 552.0 491.5Q546.0 496.0 544.0 491.5Q542.0 487.0 540.5 483.0Q539.0 479.0 532.0 480.5Q525.0 482.0 526.5 475.5Q528.0 469.0 525.0 466.5Q522.0 464.0 516.5 462.0Q511.0 460.0 516.0 454.5Q521.0 449.0 516.5 446.0Q512.0 443.0 510.0 439.0Q508.0 435.0 514.0 431.5Q520.0 428.0 515.0 423.0Q510.0 418.0 512.5 414.5Q515.0 411.0 520.0 409.5Q525.0 408.0 522.0 401.0Q519.0 394.0 525.0 393.5Q531.0 393.0 534.0 391.0Q537.0 389.0 537.0 382.5Q537.0 376.0 543.5 379.0Q550.0 382.0 552.5 378.5Q555.0 375.0 558.5 371.0Q562.0 367.0 566.5 372.5Q571.0 378.0 575.0 373.0Q579.0 368.0 583.5 368.5Q588.0 369.0 590.5 375.0Q593.0 381.0 599.0 376.5Q605.0 372.0 607.0 376.5Q609.0 381.0 611.0 385.0Q613.0 389.0 620.0 387.5Q627.0 386.0 625.5 392.5Q624.0 399.0 627.0 402.0Q630.0 405.0 635.5 407.0Q641.0 409.0 636.5 414.5Q632.0 420.0 636.5 423.5Q641.0 427.0 643.0 431.0Q645.0 435.0 638.5 438.5Q632.0 442.0 637.5 447.0Q643.0 452.0 640.0 456.0Q637.0 460.0 632.0 461.5Q627.0 463.0 630.5 470.5Q634.0 478.0 627.5 478.0Q621.0 478.0 617.5 480.5Q614.0 483.0 614.0 490.0Q614.0 497.0 607.5 493.5Q601.0 490.0 598.0 493.5Q595.0 497.0 592.0 501.5Q589.0 506.0 584.0 500.0Q579.0 494.0 575.0 499.0Q571.0 504.0 566.5 503.5Q562.0 503.0 559.5 497.0Q557.0 491.0 550.5 496.0Q544.0 501.0 542.0 496.0Q540.0 491.0 538.0 486.5Q536.0 482.0 528.5 484.0Q521.0 486.0 522.5 479.0Q524.0 472.0 521.0 469.0Q518.0 466.0 512.0 464.0Q506.0 462.0 511.0 456.0Q516.0 450.0 511.5 447.0Q507.0 444.0 505.0 439.5Q503.0 435.0 509.5 431.0Q516.0 427.0 510.5 422.0Q505.0 417.0 508.0 413.5Q511.0 410.0 516.0 408.0Q521.0 406.0 517.5 398.5Q514.0 391.0 520.5 390.5Q527.0 390.0 530.5 388.0Q534.0 386.0 534.0 378.5Q534.0 371.0 541.0 374.5Q548.0 378.0 551.0 374.0Q554.0 370.0 557.5 366.0Q561.0 362.0 566.0 368.0Q571.0 374.0 575.5 368.5Q580.0 363.0 584.5 363.5Q589.0 364.0 591.5 370.5Q594.0 377.0 600.5 372.0Q607.0 367.0 609.5 372.0Q612.0 377.0 614.0 381.5Q616.0 386.0 623.5 384.0Q631.0 382.0 629.5 389.5Q628.0 397.0 631.0 400.0Q634.0 403.0 640.5 405.0Q647.0 407.0 641.5 413.0Q636.0 419.0 641.0 422.5Q646.0 426.0 648.0 430.5Q650.0 435.0 643.5 439.0Q637.0 443.0 642.5 448.5Q648.0 454.0 645.0 457.5Q642.0 461.0 636.5 463.5Q631.0 466.0 634.5 473.5Q638.0 481.0 631.5 481.5Q625.0 482.0 621.0 484.0Q617.0 486.0 617.0 493.5Q617.0 501.0 610.0 497.5Q603.0 494.0 600.0 498.0Q597.0 502.0 593.5 506.5Q590.0 511.0 584.5 504.5Q579.0 498.0 574.5 504.0Q570.0 510.0 565.5 509.0Q561.0 508.0 558.0 502.0Q555.0 496.0 548.5 501.0Q542.0 506.0 539.5 500.5Q537.0 495.0 535.0 490.5Q533.0 486.0 525.0 488.0Q517.0 490.0 518.5 482.5Q520.0 475.0 517.0 472.0Q514.0 469.0 507.5 466.5Q501.0 464.0 506.5 457.5Q512.0 451.0 507.0 447.5Q502.0 444.0 499.5 439.5Q497.0 435.0 504.0 431.0Q511.0 427.0 505.0 421.5Q499.0 416.0 502.5 412.0Q506.0 408.0 511.5 405.5Q517.0 403.0 513.5 395.5Q510.0 388.0 517.0 387.5Q524.0 387.0 527.5 384.5Q531.0 382.0 531.0 374.0Q531.0 366.0 538.5 370.0Q546.0 374.0 549.0 370.0Q552.0 366.0 556.0 361.0Q560.0 356.0 565.5 363.0Q571.0 370.0 575.5 364.0Q580.0 358.0 585.0 358.5Q590.0 359.0 592.5 365.5Q595.0 372.0 602.0 367.0Q609.0 362.0 611.5 367.5Q614.0 373.0 616.0 377.5Q618.0 382.0 626.5 380.0Q635.0 378.0 633.5 386.0Q632.0 394.0 635.0 397.0Q638.0 400.0 645.0 402.5Q652.0 405.0 646.0 411.5Q640.0 418.0 645.5 421.5Q651.0 425.0 653.0 430.0Q655.0 435.0 648.0 439.0Q641.0 443.0 647.0 449.0Q653.0 455.0 649.5 459.0Q646.0 463.0 640.5 465.5Q635.0 468.0 639.0 476.0Q643.0 484.0 635.5 484.5Q628.0 485.0 624.0 487.5Q620.0 490.0 620.0 498.0Q620.0 506.0 612.5 502.0Q605.0 498.0 601.5 502.5Q598.0 507.0 594.5 512.0Q591.0 517.0 585.0 510.0Q579.0 503.0 574.5 509.0Q570.0 515.0 565.0 514.5Q560.0 514.0 557.0 507.0Q554.0 500.0 546.5 505.5Q539.0 511.0 536.5 505.0Q534.0 499.0 532.0 494.0Q530.0 489.0 521.5 491.5Q513.0 494.0 515.0 485.5Q517.0 477.0 513.5 474.0Q510.0 471.0 503.0 468.5Q496.0 466.0 502.0 459.0Q508.0 452.0 502.5 448.5Q497.0 445.0 494.5 440.0Q492.0 435.0 499.5 430.5Q507.0 426.0 500.5 420.0Q494.0 414.0 497.5 410.0Q501.0 406.0 507.0 403.5Q513.0 401.0 509.0 392.5Q505.0 384.0 512.5 383.5Q520.0 383.0 524.0 380.5Q528.0 378.0 528.0 369.5Q528.0 361.0 536.0 365.5Q544.0 370.0 547.5 365.5Q551.0 361.0 555.0 356.0Q559.0 351.0 565.0 358.0Q571.0 365.0 575.5 358.5Q580.0 352.0 585.0 353.0Q590.0 354.0 593.5 361.0Q597.0 368.0 604.5 362.5Q612.0 357.0 614.5 363.0Q617.0 369.0 619.0 374.0Q621.0 379.0 630.0 377.0Q639.0 375.0 637.0 383.0Q635.0 391.0 638.5 394.5Q642.0 398.0 649.5 400.5Q657.0 403.0 651.0 410.0Q645.0 417.0 650.5 421.0Q656.0 425.0 658.5 430.0Q661.0 435.0 653.0 439.5Q645.0 444.0 651.5 450.0Q658.0 456.0 654.5 460.5Q651.0 465.0 645.0 467.5Q639.0 470.0 643.0 478.5Q647.0 487.0 639.5 487.5Q632.0 488.0 627.5 490.5Q623.0 493.0 623.0 502.0Q623.0 511.0 615.0 506.5Q607.0 502.0 603.5 507.0Q600.0 512.0 596.0 517.0Q592.0 522.0 586.0 514.5Q580.0 507.0 575.0 513.5Q570.0 520.0 564.5 519.5Q559.0 519.0 556.0 511.5Q553.0 504.0 545.0 510.0Q537.0 516.0 534.5 509.5Q532.0 503.0 529.5 498.0Q527.0 493.0 518.0 495.0Q509.0 497.0 511.0 488.5Q513.0 480.0 509.0 476.5Q505.0 473.0 498.0 470.5Q491.0 468.0 497.0 460.5Q503.0 453.0 497.0 449.5Q491.0 446.0 489.0 440.5Q487.0 435.0 494.5 430.5Q502.0 426.0 495.5 419.5Q489.0 413.0 492.5 408.5Q496.0 404.0 503.0 401.5Q510.0 399.0 505.5 390.0Q501.0 381.0 509.0 380.5Q517.0 380.0 521.0 377.5Q525.0 375.0 525.0 366.0Q525.0 357.0 533.5 361.5Q542.0 366.0 545.5 361.0Q549.0 356.0 553.5 350.5Q558.0 345.0 564.0 353.0Q570.0 361.0 575.5 354.0Q581.0 347.0 586.0 348.0Q591.0 349.0 594.5 356.5Q598.0 364.0 606.0 358.0Q614.0 352.0 617.0 358.0Q620.0 364.0 622.0 369.5Q624.0 375.0 633.5 373.0Q643.0 371.0 641.0 379.5Q639.0 388.0 643.0 392.0Q647.0 396.0 654.5 398.5Q662.0 401.0 655.5 408.5Q649.0 416.0 655.0 420.0Q661.0 424.0 663.5 429.5Q666.0 435.0 658.0 439.5Q650.0 444.0 657.0 451.0Q664.0 458.0 660.0 462.5Q656.0 467.0 649.0 469.5Q642.0 472.0 646.5 481.5Q651.0 491.0 643.0 491.0Q635.0 491.0 630.5 494.0Q626.0 497.0 626.0 506.5Q626.0 516.0 617.5 511.0Q609.0 506.0 605.0 511.0Q601.0 516.0 597.0 521.5Q593.0 527.0 586.5 519.5Q580.0 512.0 574.5 518.5Q569.0 525.0 563.5 524.5Q558.0 524.0 554.5 516.0Q551.0 508.0 543.0 514.5Q535.0 521.0 532.0 514.5Q529.0 508.0 526.5 502.0Q524.0 496.0 514.5 498.5Q505.0 501.0 507.0 492.0Q509.0 483.0 505.0 479.5Q501.0 476.0 493.0 473.0Q485.0 470.0 492.0 462.5Q499.0 455.0 492.5 450.5Q486.0 446.0 483.5 440.5Q481.0 435.0 489.5 430.0Q498.0 425.0 491.0 418.5Q484.0 412.0 488.0 407.0Q492.0 402.0 499.0 399.5Q506.0 397.0 501.0 387.5Q496.0 378.0 504.5 377.5Q513.0 377.0 517.5 374.0Q522.0 371.0 522.0 361.5Q522.0 352.0 531.0 357.0Q540.0 362.0 544.0 356.5Q548.0 351.0 552.5 345.5Q557.0 340.0 563.5 348.0Q570.0 356.0 575.5 349.0Q581.0 342.0 586.5 343.0Q592.0 344.0 596.0 352.0Q600.0 360.0 608.0 353.5Q616.0 347.0 619.0 353.5Q622.0 360.0 624.5 366.0Q627.0 372.0 637.0 369.5Q647.0 367.0 645.0 376.5Q643.0 386.0 647.0 389.5Q651.0 393.0 659.0 396.0Q667.0 399.0 660.0 407.0Q653.0 415.0 659.5 419.0Q666.0 423.0 668.5 429.0Q671.0 435.0 662.5 440.0Q654.0 445.0 661.5 452.0Q669.0 459.0 665.0 464.0Q661.0 469.0 653.5 471.5Q646.0 474.0 651.0 484.0Q656.0 494.0 647.5 494.5Q639.0 495.0 634.0 498.0Q629.0 501.0 629.0 510.5Q629.0 520.0 619.5 515.0Q610.0 510.0 606.5 515.5Q603.0 521.0 598.5 527.0Q594.0 533.0 587.0 524.5Q580.0 516.0 574.5 523.5Q569.0 531.0 563.0 530.0Q557.0 529.0 553.5 521.0Q550.0 513.0 541.0 519.5Q532.0 526.0 529.0 519.0Q526.0 512.0 523.5 506.0Q521.0 500.0 510.5 502.5Q500.0 505.0 502.5 495.5Q505.0 486.0 501.0 482.0Q497.0 478.0 488.5 475.0Q480.0 472.0 487.0 464.0Q494.0 456.0 487.5 451.5Q481.0 447.0 478.5 441.0Q476.0 435.0 485.0 430.0Q494.0 425.0 486.5 417.5Q479.0 410.0 483.0 405.0Q487.0 400.0 494.5 397.5Q502.0 395.0 497.0 385.0Q492.0 375.0 501.0 374.5Q510.0 374.0 514.5 370.5Q519.0 367.0 519.0 357.0Q519.0 347.0 529.0 352.5Q539.0 358.0 542.5 352.5Q546.0 347.0 551.0 341.0Q556.0 335.0 563.0 343.5Q570.0 352.0 575.5 344.5Q581.0 337.0 587.0 337.5Q593.0 338.0 597.0 346.5Q601.0 355.0 610.0 348.5Q619.0 342.0 622.0 349.0Q625.0 356.0 627.5 362.0Q630.0 368.0 641.0 365.5Q652.0 363.0 649.5 373.0Q647.0 383.0 651.0 387.0Q655.0 391.0 663.5 393.5Q672.0 396.0 665.0 405.0Q658.0 414.0 664.5 418.5Q671.0 423.0 674.0 429.0Q677.0 435.0 668.0 440.5Q659.0 446.0 666.5 453.0Q674.0 460.0 669.5 465.5Q665.0 471.0 657.5 473.5Q650.0 476.0 655.0 486.5Q660.0 497.0 651.0 497.5Q642.0 498.0 637.0 501.0Q632.0 504.0 632.0 514.5Q632.0 525.0 622.0 520.0Q612.0 515.0 608.0 520.5Q604.0 526.0 599.5 532.0Q595.0 538.0 587.5 529.0Q580.0 520.0 574.5 528.0Q569.0 536.0 562.5 535.0Q556.0 534.0 552.0 525.5Q548.0 517.0 539.0 523.5Q530.0 530.0 527.0 523.0Q524.0 516.0 521.0 509.5Q518.0 503.0 507.0 506.0Q496.0 509.0 498.5 499.0Q501.0 489.0 497.0 484.5Q493.0 480.0 484.0 477.5Q475.0 475.0 482.5 466.0Q490.0 457.0 483.0 452.0Q476.0 447.0 473.5 441.0Q471.0 435.0 480.0 429.5Q489.0 424.0 481.0 416.5Q473.0 409.0 477.5 403.5Q482.0 398.0 490.0 395.0Q498.0 392.0 492.5 381.5Q487.0 371.0 496.5 370.5Q506.0 370.0 511.0 367.0Q516.0 364.0 516.0 353.5Q516.0 343.0 526.5 348.0Q537.0 353.0 541.0 347.5Q545.0 342.0 550.0 335.5Q555.0 329.0 562.0 338.0Q569.0 347.0 575.5 339.5Q582.0 332.0 588.0 332.5Q594.0 333.0 598.0 342.0Q602.0 351.0 611.5 344.0Q621.0 337.0 624.5 344.5Q628.0 352.0 630.5 358.5Q633.0 365.0 644.5 362.0Q656.0 359.0 653.5 369.5Q651.0 380.0 655.0 384.5Q659.0 389.0 668.0 391.5Q677.0 394.0 669.5 403.5Q662.0 413.0 669.0 417.5Q676.0 422.0 679.0 428.5Q682.0 435.0 672.5 440.5Q663.0 446.0 671.0 454.0Q679.0 462.0 674.5 467.5Q670.0 473.0 662.0 476.0Q654.0 479.0 659.5 489.5Q665.0 500.0 655.5 500.5Q646.0 501.0 640.5 504.5Q635.0 508.0 635.0 519.0Q635.0 530.0 624.5 524.5Q614.0 519.0 610.0 524.5Q606.0 530.0 601.0 536.5Q596.0 543.0 588.5 534.0Q581.0 525.0 574.5 533.0Q568.0 541.0 561.5 540.0Q555.0 539.0 551.0 530.0Q547.0 521.0 537.5 528.0Q528.0 535.0 524.5 527.5Q521.0 520.0 518.0 513.5Q515.0 507.0 503.5 510.0Q492.0 513.0 495.0 502.0Q498.0 491.0 493.5 487.0Q489.0 483.0 479.5 480.0Q470.0 477.0 478.0 467.5Q486.0 458.0 478.5 453.0Q471.0 448.0 468.0 441.5Q465.0 435.0 475.0 429.5Q485.0 424.0 476.5 416.0Q468.0 408.0 472.5 402.0Q477.0 396.0 485.5 393.0Q494.0 390.0 488.5 379.0Q483.0 368.0 493.0 367.5Q503.0 367.0 508.0 363.5Q513.0 360.0 513.0 349.0Q513.0 338.0 524.0 343.5Q535.0 349.0 539.0 343.0Q543.0 337.0 548.5 330.5Q554.0 324.0 561.5 333.5Q569.0 343.0 575.5 334.5Q582.0 326.0 588.5 327.0Q595.0 328.0 599.5 337.5Q604.0 347.0 613.5 339.5Q623.0 332.0 626.5 340.0Q630.0 348.0 633.0 354.5Q636.0 361.0 648.0 358.5Q660.0 356.0 657.0 366.5Q654.0 377.0 659.0 381.5Q664.0 386.0 673.5 389.0Q683.0 392.0 674.5 402.0Q666.0 412.0 673.5 417.0Q681.0 422.0 684.0 428.5Q687.0 435.0 677.0 441.0Q667.0 447.0 675.5 455.0Q684.0 463.0 679.5 469.0Q675.0 475.0 666.5 478.0Q658.0 481.0 663.5 492.5Q669.0 504.0 659.0 504.5Q649.0 505.0 643.5 508.5Q638.0 512.0 638.0 523.0Q638.0 534.0 627.0 528.5Q616.0 523.0 612.0 529.0Q608.0 535.0 602.5 542.0Q597.0 549.0 589.0 539.0Q581.0 529.0 574.5 537.5Q568.0 546.0 561.0 545.0Q554.0 544.0 550.0 534.5Q546.0 525.0 535.5 532.5Q525.0 540.0 521.5 532.0Q518.0 524.0 515.0 517.5Q512.0 511.0 500.0 513.5Q488.0 516.0 491.0 505.0Q494.0 494.0 489.0 489.5Q484.0 485.0 474.5 482.0Q465.0 479.0 473.0 469.0Q481.0 459.0 473.5 454.0Q466.0 449.0 463.0 442.0Q460.0 435.0 470.0 429.0Q480.0 423.0 471.5 414.5Q463.0 406.0 468.0 400.5Q473.0 395.0 481.5 391.5Q490.0 388.0 484.0 376.5Q478.0 365.0 488.5 364.5Q499.0 364.0 504.5 360.5Q510.0 357.0 510.0 345.0Q510.0 333.0 521.5 339.0Q533.0 345.0 537.5 338.5Q542.0 332.0 547.5 325.5Q553.0 319.0 561.0 328.5Q569.0 338.0 575.5 329.5Q582.0 321.0 589.0 322.0Q596.0 323.0 600.5 333.0Q605.0 343.0 615.5 335.0Q626.0 327.0 629.5 335.5Q633.0 344.0 636.0 351.0Q639.0 358.0 651.5 355.0Q664.0 352.0 661.0 363.5Q658.0 375.0 663.0 379.5Q668.0 384.0 678.0 387.0Q688.0 390.0 679.5 400.0Q671.0 410.0 678.5 415.5Q686.0 421.0 689.5 428.0Q693.0 435.0 682.5 441.0Q672.0 447.0 681.0 455.5Q690.0 464.0 685.0 470.0Q680.0 476.0 671.0 479.5Q662.0 483.0 668.0 495.0Q674.0 507.0 663.5 507.5Q653.0 508.0 647.0 511.5Q641.0 515.0 641.0 527.0Q641.0 539.0 629.5 533.0Q618.0 527.0 613.5 533.5Q609.0 540.0 603.5 547.0Q598.0 554.0 589.5 544.0Q581.0 534.0 574.5 543.0Q568.0 552.0 560.5 551.0Q553.0 550.0 548.5 539.5Q544.0 529.0 533.5 537.0Q523.0 545.0 519.5 537.0Q516.0 529.0 513.0 521.5Q510.0 514.0 497.0 517.0Q484.0 520.0 487.0 508.5Q490.0 497.0 485.0 492.0Q480.0 487.0 470.0 484.0Q460.0 481.0 468.5 470.5Q477.0 460.0 469.0 454.5Q461.0 449.0 457.5 442.0Q454.0 435.0 465.0 428.5Q476.0 422.0 467.0 413.5Q458.0 405.0 463.0 399.0Q468.0 393.0 477.0 389.5Q486.0 386.0 480.0 374.0Q474.0 362.0 485.0 361.0Q496.0 360.0 501.5 356.5Q507.0 353.0 507.0 341.0Q507.0 329.0 519.0 335.0Q531.0 341.0 535.5 334.5Q540.0 328.0 546.0 320.5Q552.0 313.0 560.5 323.5Q569.0 334.0 575.5 325.0Q582.0 316.0 589.5 317.0Q597.0 318.0 601.5 328.0Q606.0 338.0 617.0 330.0Q628.0 322.0 632.0 330.5Q636.0 339.0 639.0 346.5Q642.0 354.0 655.0 351.0Q668.0 348.0 665.0 360.0Q662.0 372.0 667.0 377.0Q672.0 382.0 682.5 385.0Q693.0 388.0 684.0 398.5Q675.0 409.0 683.5 414.5Q692.0 420.0 695.0 427.5Q698.0 435.0 687.0 441.5Q676.0 448.0 685.5 457.0Q695.0 466.0 689.5 472.0Q684.0 478.0 675.0 481.5Q666.0 485.0 672.0 497.5Q678.0 510.0 667.0 510.5Q656.0 511.0 650.0 515.0Q644.0 519.0 644.0 531.5Q644.0 544.0 632.0 537.5Q620.0 531.0 615.5 538.0Q611.0 545.0 605.0 552.0Q599.0 559.0 590.0 548.5Q581.0 538.0 574.0 547.5Q567.0 557.0 559.5 556.0Q552.0 555.0 547.5 544.5Q543.0 534.0 532.0 542.0Q521.0 550.0 517.0 541.5Q513.0 533.0 510.0 525.5Q507.0 518.0 493.5 521.0Q480.0 524.0 483.0 512.0Q486.0 500.0 481.0 495.0Q476.0 490.0 465.5 486.5Q455.0 483.0 464.0 472.0Q473.0 461.0 464.5 455.5Q456.0 450.0 452.5 442.5Q449.0 435.0 460.5 428.5Q472.0 422.0 462.5 413.0Q453.0 404.0 458.0 397.5Q463.0 391.0 472.5 387.5Q482.0 384.0 475.5 371.0Q469.0 358.0 480.5 357.5Q492.0 357.0 498.0 353.0Q504.0 349.0 504.5 336.5Q505.0 324.0 517.0 330.5Q529.0 337.0 534.0 330.0Q539.0 323.0 545.0 315.5Q551.0 308.0 559.5 319.0Q568.0 330.0 575.5 320.5Q583.0 311.0 590.5 312.0Q598.0 313.0 603.0 323.5Q608.0 334.0 619.0 325.5Q630.0 317.0 634.0 326.0Q638.0 335.0 641.5 343.0Q645.0 351.0 658.5 347.5Q672.0 344.0 669.0 356.5Q666.0 369.0 671.0 374.0Q676.0 379.0 687.0 382.5Q698.0 386.0 688.5 397.0Q679.0 408.0 688.0 414.0Q697.0 420.0 700.5 427.5Q704.0 435.0 692.5 441.5Q681.0 448.0 690.5 457.5Q700.0 467.0 694.5 473.5Q689.0 480.0 679.5 483.5Q670.0 487.0 676.5 500.0Q683.0 513.0 671.5 514.0Q660.0 515.0 653.5 518.5Q647.0 522.0 647.0 535.0Q647.0 548.0 634.5 541.5Q622.0 535.0 617.0 542.0Q612.0 549.0 606.0 557.0Q600.0 565.0 591.0 554.0Q582.0 543.0 574.5 552.5Q567.0 562.0 559.0 561.0Q551.0 560.0 546.5 549.0Q542.0 538.0 530.0 546.5Q518.0 555.0 514.0 546.0Q510.0 537.0 507.0 529.0Q504.0 521.0 490.0 524.5Q476.0 528.0 479.0 515.0Q482.0 502.0 477.0 497.0Q472.0 492.0 460.5 488.5Q449.0 485.0 458.5 473.5Q468.0 462.0 459.5 456.5Q451.0 451.0 447.5 443.0Q444.0 435.0 455.5 428.0Q467.0 421.0 457.5 411.5Q448.0 402.0 453.5 395.5Q459.0 389.0 468.5 385.5Q478.0 382.0 471.5 368.5Q465.0 355.0 476.5 354.5Q488.0 354.0 494.5 350.0Q501.0 346.0 501.5 332.5Q502.0 319.0 514.5 326.0Q527.0 333.0 532.0 325.5Q537.0 318.0 543.5 310.5Q550.0 303.0 559.0 314.0Q568.0 325.0 575.5 315.0Q583.0 305.0 591.0 306.5Q599.0 308.0 604.0 319.0Q609.0 330.0 621.0 321.0Q633.0 312.0 637.0 321.5Q641.0 331.0 644.5 339.0Q648.0 347.0 662.0 343.5Q676.0 340.0 673.0 353.0Q670.0 366.0 675.0 371.5Q680.0 377.0 691.5 380.5Q703.0 384.0 693.5 395.5Q684.0 407.0 693.0 413.0Q702.0 419.0 705.5 427.0Q709.0 435.0 697.0 442.0Q685.0 449.0 695.0 458.5Q705.0 468.0 699.5 475.0Q694.0 482.0 684.0 485.5Q674.0 489.0 680.5 503.0Q687.0 517.0 675.0 517.5Q663.0 518.0 656.5 522.0Q650.0 526.0 650.0 539.5Q650.0 553.0 637.0 546.0Q624.0 539.0 619.0 546.5Q614.0 554.0 607.5 562.0Q601.0 570.0 591.5 558.5Q582.0 547.0 574.5 557.0Q567.0 567.0 558.5 566.0Q550.0 565.0 545.0 553.5Q540.0 542.0 528.0 551.0Q516.0 560.0 512.0 550.5Q508.0 541.0 504.5 533.0Q501.0 525.0 486.5 528.5Q472.0 532.0 475.5 518.5Q479.0 505.0 473.0 499.5Q467.0 494.0 455.5 490.5Q444.0 487.0 454.0 475.5Q464.0 464.0 455.0 457.5Q446.0 451.0 442.0 443.0Q438.0 435.0 450.5 428.0Q463.0 421.0 452.5 411.0Q442.0 401.0 448.0 394.0Q454.0 387.0 464.0 383.0Q474.0 379.0 467.5 365.5Q461.0 352.0 473.0 351.0Q485.0 350.0 491.5 346.0Q498.0 342.0 498.5 328.5Q499.0 315.0 512.0 321.5Q525.0 328.0 530.5 321.0Q536.0 314.0 542.5 305.5Q549.0 297.0 558.5 309.0Q568.0 321.0 575.5 310.5Q583.0 300.0 591.5 301.0Q600.0 302.0 605.5 314.0Q611.0 326.0 623.0 316.5Q635.0 307.0 639.5 317.0Q644.0 327.0 647.5 335.5Q651.0 344.0 665.5 340.0Q680.0 336.0 676.5 350.0Q673.0 364.0 679.0 369.5Q685.0 375.0 696.5 378.5Q708.0 382.0 698.0 394.0Q688.0 406.0 697.5 412.0Q707.0 418.0 710.5 426.5Q714.0 435.0 701.5 442.0Q689.0 449.0 699.5 459.5Q710.0 470.0 704.5 477.0Q699.0 484.0 688.5 488.0Q678.0 492.0 685.0 506.0Q692.0 520.0 679.5 520.5Q667.0 521.0 660.0 525.5Q653.0 530.0 653.0 544.0Q653.0 558.0 639.5 551.0Q626.0 544.0 620.5 551.5Q615.0 559.0 608.5 567.0Q602.0 575.0 592.0 563.5Q582.0 552.0 574.0 562.0Q566.0 572.0 557.5 571.0Q549.0 570.0 544.0 558.0Q539.0 546.0 526.5 555.5Q514.0 565.0 509.5 555.0Q505.0 545.0 501.5 536.5Q498.0 528.0 483.0 531.5Q468.0 535.0 471.5 521.5Q475.0 508.0 469.0 502.0Q463.0 496.0 451.0 492.5Q439.0 489.0 449.5 477.0Q460.0 465.0 450.5 458.5Q441.0 452.0 437.0 443.5Q433.0 435.0 445.5 427.5Q458.0 420.0 447.5 410.0Q437.0 400.0 443.0 392.5Q449.0 385.0 459.5 381.0Q470.0 377.0 463.0 363.0Q456.0 349.0 468.5 348.0Q481.0 347.0 488.0 342.5Q495.0 338.0 495.5 324.0Q496.0 310.0 509.5 317.0Q523.0 324.0 528.5 316.5Q534.0 309.0 541.0 300.5Q548.0 292.0 558.0 304.0Q568.0 316.0 576.0 305.5Q584.0 295.0 592.5 296.0Q601.0 297.0 606.5 309.0Q612.0 321.0 624.5 312.0Q637.0 303.0 641.5 313.0Q646.0 323.0 650.0 331.5Q654.0 340.0 669.0 336.5Q684.0 333.0 680.5 347.0Q677.0 361.0 683.0 366.5Q689.0 372.0 701.0 376.0Q713.0 380.0 703.0 392.5Q693.0 405.0 702.5 411.5Q712.0 418.0 716.0 426.5Q720.0 435.0 707.0 442.5Q694.0 450.0 704.5 460.5Q715.0 471.0 709.0 478.5Q703.0 486.0 692.5 490.0Q682.0 494.0 689.0 508.5Q696.0 523.0 683.0 523.5Q670.0 524.0 663.0 528.5Q656.0 533.0 656.0 547.5Q656.0 562.0 642.0 555.0Q628.0 548.0 622.5 556.0Q617.0 564.0 610.0 572.5Q603.0 581.0 593.0 568.5Q583.0 556.0 574.5 567.0Q566.0 578.0 557.0 576.5Q548.0 575.0 542.5 563.0Q537.0 551.0 524.0 560.5Q511.0 570.0 506.5 559.5Q502.0 549.0 498.5 540.5Q495.0 532.0 479.5 535.5Q464.0 539.0 467.5 525.0Q471.0 511.0 465.0 505.0Q459.0 499.0 446.5 495.0Q434.0 491.0 444.5 478.5Q455.0 466.0 445.5 459.5Q436.0 453.0 432.0 444.0Q428.0 435.0 441.0 427.5Q454.0 420.0 443.0 409.0Q432.0 398.0 438.0 390.5Q444.0 383.0 455.0 379.0Q466.0 375.0 459.0 360.0Q452.0 345.0 465.0 344.5Q478.0 344.0 485.0 339.5Q492.0 335.0 492.5 320.0Q493.0 305.0 507.0 312.5Q521.0 320.0 526.5 312.0Q532.0 304.0 539.5 295.5Q547.0 287.0 557.0 299.5Q567.0 312.0 575.5 301.0Q584.0 290.0 593.0 291.0Q602.0 292.0 607.5 304.5Q613.0 317.0 626.5 307.5Q640.0 298.0 644.5 308.0Q649.0 318.0 653.0 327.0Q657.0 336.0 672.5 332.5Q688.0 329.0 684.5 343.5Q681.0 358.0 687.0 364.0Q693.0 370.0 705.5 374.0Q718.0 378.0 707.5 391.0Q697.0 404.0 707.0 410.5Q717.0 417.0 721.0 426.0Q725.0 435.0 711.5 443.0Q698.0 451.0 709.5 461.5Q721.0 472.0 714.5 480.0Q708.0 488.0 697.0 492.0Q686.0 496.0 693.5 511.0Q701.0 526.0 687.5 527.0Q674.0 528.0 666.5 532.5Q659.0 537.0 659.0 552.0Q659.0 567.0 644.5 559.5Q630.0 552.0 624.0 560.0Q618.0 568.0 611.0 577.0Q604.0 586.0 593.5 573.0Q583.0 560.0 574.5 571.5Q566.0 583.0 556.5 581.5Q547.0 580.0 541.5 567.5Q536.0 555.0 522.5 565.0Q509.0 575.0 504.5 564.5Q500.0 554.0 496.0 544.5Q492.0 535.0 476.0 539.0Q460.0 543.0 463.5 528.0Q467.0 513.0 461.0 507.0Q455.0 501.0 442.0 497.0Q429.0 493.0 440.0 480.0Q451.0 467.0 441.0 460.0Q431.0 453.0 426.5 444.0Q422.0 435.0 436.0 427.0Q450.0 419.0 438.5 408.0Q427.0 397.0 433.5 389.0Q440.0 381.0 451.0 377.0Q462.0 373.0 454.5 357.5Q447.0 342.0 460.5 341.5Q474.0 341.0 481.5 336.0Q489.0 331.0 489.5 315.5Q490.0 300.0 504.5 308.0Q519.0 316.0 525.0 307.5Q531.0 299.0 538.5 290.0Q546.0 281.0 556.5 294.0Q567.0 307.0 575.5 295.5Q584.0 284.0 593.5 285.5Q603.0 287.0 609.0 300.0Q615.0 313.0 628.5 303.0Q642.0 293.0 647.0 303.5Q652.0 314.0 655.5 323.5Q659.0 333.0 675.5 329.0Q692.0 325.0 688.5 340.0Q685.0 355.0 691.0 361.5Q697.0 368.0 710.5 372.0Q724.0 376.0 712.5 389.5Q701.0 403.0 711.5 409.5Q722.0 416.0 726.0 425.5Q730.0 435.0 716.5 443.0Q703.0 451.0 714.5 462.5Q726.0 474.0 719.5 482.0Q713.0 490.0 701.5 494.0Q690.0 498.0 697.5 514.0Q705.0 530.0 691.0 530.5Q677.0 531.0 669.5 536.0Q662.0 541.0 662.0 556.5Q662.0 572.0 647.0 564.0Q632.0 556.0 626.0 564.5Q620.0 573.0 612.5 582.5Q605.0 592.0 594.0 578.5Q583.0 565.0 574.0 576.5Q565.0 588.0 555.5 587.0Q546.0 586.0 540.5 572.5Q535.0 559.0 521.0 569.5Q507.0 580.0 502.0 569.0Q497.0 558.0 493.0 548.5Q489.0 539.0 472.5 543.0Q456.0 547.0 459.5 531.5Q463.0 516.0 456.5 509.5Q450.0 503.0 437.0 499.0Q424.0 495.0 435.5 481.5Q447.0 468.0 436.5 461.0Q426.0 454.0 421.5 444.5Q417.0 435.0 431.0 427.0Q445.0 419.0 433.5 407.5Q422.0 396.0 428.5 387.5Q435.0 379.0 446.5 375.0Q458.0 371.0 450.5 355.0Q443.0 339.0 457.0 338.0Q471.0 337.0 478.5 332.5Q486.0 328.0 486.5 312.0Q487.0 296.0 502.0 304.0Q517.0 312.0 523.0 303.5Q529.0 295.0 537.0 285.5Q545.0 276.0 556.0 289.5Q567.0 303.0 576.0 291.0Q585.0 279.0 594.5 280.5Q604.0 282.0 610.0 295.5Q616.0 309.0 630.0 298.5Q644.0 288.0 649.0 299.0Q654.0 310.0 658.0 319.5Q662.0 329.0 679.0 325.0Q696.0 321.0 692.5 337.0Q689.0 353.0 695.5 359.0Q702.0 365.0 715.5 369.5Q729.0 374.0 717.5 387.5Q706.0 401.0 716.5 408.5Q727.0 416.0 731.5 425.5Q736.0 435.0 721.5 443.5Q707.0 452.0 719.0 463.5Q731.0 475.0 724.5 483.0Q718.0 491.0 706.0 495.5Q694.0 500.0 702.0 516.5Q710.0 533.0 695.5 533.5Q681.0 534.0 673.0 539.0Q665.0 544.0 665.0 560.5Q665.0 577.0 649.5 568.5Q634.0 560.0 627.5 569.0Q621.0 578.0 613.5 587.5Q606.0 597.0 594.5 583.0Q583.0 569.0 574.0 581.0Q565.0 593.0 555.0 592.0Q545.0 591.0 539.0 577.0Q533.0 563.0 519.0 574.0Q505.0 585.0 499.5 573.5Q494.0 562.0 490.0 552.0Q486.0 542.0 469.0 546.5Q452.0 551.0 456.0 535.0Q460.0 519.0 453.0 512.5Q446.0 506.0 432.5 501.5Q419.0 497.0 430.5 483.0Q442.0 469.0 431.0 462.0Q420.0 455.0 416.0 445.0Q412.0 435.0 426.5 426.5Q441.0 418.0 428.5 406.0Q416.0 394.0 423.0 386.0Q430.0 378.0 442.0 373.5Q454.0 369.0 446.0 352.5Q438.0 336.0 452.5 335.0Q467.0 334.0 475.0 329.0Q483.0 324.0 483.5 307.5Q484.0 291.0 499.5 299.5Q515.0 308.0 521.5 299.0Q528.0 290.0 536.0 280.0Q544.0 270.0 555.0 284.0Q566.0 298.0 575.5 286.0Q585.0 274.0 595.0 275.5Q605.0 277.0 611.0 291.0Q617.0 305.0 632.0 294.0Q647.0 283.0 652.0 294.5Q657.0 306.0 661.0 316.0Q665.0 326.0 682.5 321.5Q700.0 317.0 696.0 333.5Q692.0 350.0 699.0 356.5Q706.0 363.0 720.0 367.5Q734.0 372.0 722.0 386.0Q710.0 400.0 721.0 407.5Q732.0 415.0 736.5 425.0Q741.0 435.0 726.0 443.5Q711.0 452.0 723.5 464.0Q736.0 476.0 729.0 484.5Q722.0 493.0 710.0 497.5Q698.0 502.0 706.0 519.0Q714.0 536.0 699.0 537.0Q684.0 538.0 676.0 543.0Q668.0 548.0 668.0 564.5Q668.0 581.0 652.0 572.5Q636.0 564.0 629.5 573.0Q623.0 582.0 615.0 592.0Q607.0 602.0 595.5 588.0Q584.0 574.0 574.5 586.5Q565.0 599.0 554.5 597.5Q544.0 596.0 538.0 582.0Q532.0 568.0 517.0 579.0Q502.0 590.0 497.0 578.0Q492.0 566.0 487.5 556.0Q483.0 546.0 465.5 550.0Q448.0 554.0 452.0 538.0Q456.0 522.0 449.0 515.0Q442.0 508.0 428.0 503.5Q414.0 499.0 426.0 484.5Q438.0 470.0 426.5 462.5Q415.0 455.0 410.5 445.0Q406.0 435.0 421.0 426.0Q436.0 417.0 423.5 405.0Q411.0 393.0 418.0 384.5Q425.0 376.0 437.5 371.0Q450.0 366.0 442.0 349.0Q434.0 332.0 449.0 331.5Q464.0 331.0 472.0 325.5Q480.0 320.0 480.5 303.0Q481.0 286.0 497.0 295.0Q513.0 304.0 519.5 294.5Q526.0 285.0 534.5 275.0Q543.0 265.0 554.5 279.5Q566.0 294.0 575.5 281.5Q585.0 269.0 595.5 270.5Q606.0 272.0 612.5 286.0Q619.0 300.0 634.0 289.0Q649.0 278.0 654.5 290.0Q660.0 302.0 664.0 312.0Q668.0 322.0 686.0 318.0Q704.0 314.0 700.0 330.5Q696.0 347.0 703.0 354.0Q710.0 361.0 724.5 365.5Q739.0 370.0 726.5 384.5Q714.0 399.0 725.5 407.0Q737.0 415.0 741.5 425.0Q746.0 435.0 731.0 444.0Q716.0 453.0 728.5 465.5Q741.0 478.0 734.0 486.5Q727.0 495.0 714.5 500.0Q702.0 505.0 710.5 522.0Q719.0 539.0 703.5 540.0Q688.0 541.0 679.5 546.0Q671.0 551.0 671.0 568.5Q671.0 586.0 654.5 577.0Q638.0 568.0 631.0 577.5Q624.0 587.0 616.0 597.5Q608.0 608.0 596.0 593.0Q584.0 578.0 574.0 591.0Q564.0 604.0 553.5 602.5Q543.0 601.0 537.0 586.5Q531.0 572.0 515.5 583.5Q500.0 595.0 494.5 582.5Q489.0 570.0 484.5 559.5Q480.0 549.0 462.0 553.5Q444.0 558.0 448.0 541.0Q452.0 524.0 445.0 517.0Q438.0 510.0 423.0 505.5Q408.0 501.0 420.5 486.0Q433.0 471.0 421.5 463.5Q410.0 456.0 405.5 445.5Q401.0 435.0 416.5 426.0Q432.0 417.0 419.0 404.5Q406.0 392.0 413.5 383.0Q421.0 374.0 433.5 369.0Q446.0 364.0 437.5 346.5Q429.0 329.0 444.5 328.0Q460.0 327.0 468.5 322.0Q477.0 317.0 477.5 299.5Q478.0 282.0 494.5 290.5Q511.0 299.0 518.0 289.5Q525.0 280.0 533.5 270.0Q542.0 260.0 554.0 275.0Q566.0 290.0 576.0 277.0Q586.0 264.0 596.5 265.0Q607.0 266.0 613.5 281.0Q620.0 296.0 635.5 284.5Q651.0 273.0 656.5 285.0Q662.0 297.0 666.5 308.0Q671.0 319.0 689.5 314.5Q708.0 310.0 704.0 327.0Q700.0 344.0 707.0 351.0Q714.0 358.0 729.0 363.0Q744.0 368.0 731.5 383.0Q719.0 398.0 730.5 406.0Q742.0 414.0 747.0 424.5Q752.0 435.0 736.0 444.0Q720.0 453.0 733.5 466.0Q747.0 479.0 739.5 488.0Q732.0 497.0 719.0 502.0Q706.0 507.0 714.5 525.0Q723.0 543.0 707.0 543.5Q691.0 544.0 682.5 549.5Q674.0 555.0 674.0 573.0Q674.0 591.0 657.0 582.0Q640.0 573.0 633.0 582.5Q626.0 592.0 617.5 602.5Q609.0 613.0 596.5 598.0Q584.0 583.0 574.0 596.0Q564.0 609.0 553.0 607.5Q542.0 606.0 535.5 591.0Q529.0 576.0 513.5 588.0Q498.0 600.0 492.0 587.5Q486.0 575.0 481.5 564.0Q477.0 553.0 458.5 557.5Q440.0 562.0 444.0 544.5Q448.0 527.0 441.0 520.0Q434.0 513.0 418.5 508.0Q403.0 503.0 416.0 487.5Q429.0 472.0 417.0 464.0Q405.0 456.0 400.5 445.5Q396.0 435.0 411.5 425.5Q427.0 416.0 414.0 403.0Q401.0 390.0 408.5 381.0Q416.0 372.0 429.0 367.0Q442.0 362.0 433.5 344.0Q425.0 326.0 441.0 325.0Q457.0 324.0 465.5 318.5Q474.0 313.0 474.5 295.0Q475.0 277.0 492.0 286.0Q509.0 295.0 516.0 285.5Q523.0 276.0 532.0 265.0Q541.0 254.0 553.5 269.5Q566.0 285.0 576.0 271.5Q586.0 258.0 597.0 259.5Q608.0 261.0 615.0 276.5Q622.0 292.0 638.0 280.0Q654.0 268.0 659.5 280.5Q665.0 293.0 669.5 304.0Q674.0 315.0 693.0 310.5Q712.0 306.0 708.0 323.5Q704.0 341.0 711.5 348.5Q719.0 356.0 734.0 361.0Q749.0 366.0 736.0 381.5Q723.0 397.0 735.0 405.0Q747.0 413.0 752.0 424.0Q757.0 435.0 741.0 444.5Q725.0 454.0 738.5 467.0Q752.0 480.0 744.5 489.5Q737.0 499.0 723.5 504.0Q710.0 509.0 718.5 527.5Q727.0 546.0 711.0 547.0Q695.0 548.0 686.0 553.5Q677.0 559.0 677.0 577.0Q677.0 595.0 659.5 586.0Q642.0 577.0 635.0 587.0Q628.0 597.0 619.0 607.5Q610.0 618.0 597.5 602.5Q585.0 587.0 574.5 600.5Q564.0 614.0 552.5 612.5Q541.0 611.0 534.5 595.5Q528.0 580.0 511.5 592.5Q495.0 605.0 489.5 592.0Q484.0 579.0 479.0 568.0Q474.0 557.0 455.0 561.5Q436.0 566.0 440.0 548.0Q444.0 530.0 436.5 522.5Q429.0 515.0 413.5 510.0Q398.0 505.0 411.5 489.5Q425.0 474.0 412.5 465.5Q400.0 457.0 395.0 446.0Q390.0 435.0 406.5 425.5Q423.0 416.0 409.5 402.5Q396.0 389.0 403.5 379.5Q411.0 370.0 424.5 365.0Q438.0 360.0 429.0 341.5Q420.0 323.0 436.5 322.0Q453.0 321.0 462.0 315.5Q471.0 310.0 471.5 291.0Q472.0 272.0 489.5 281.5Q507.0 291.0 514.5 281.0Q522.0 271.0 531.0 260.0Q540.0 249.0 552.5 265.0Q565.0 281.0 575.5 267.0Q586.0 253.0 597.5 254.5Q609.0 256.0 616.0 272.0Q623.0 288.0 639.5 275.5Q656.0 263.0 662.0 276.0Q668.0 289.0 672.5 300.5Q677.0 312.0 696.5 307.0Q716.0 302.0 712.0 320.5Q708.0 339.0 715.5 346.5Q723.0 354.0 738.5 359.0Q754.0 364.0 740.5 380.0Q727.0 396.0 739.5 404.5Q752.0 413.0 757.0 424.0Q762.0 435.0 745.5 444.5Q729.0 454.0 743.0 468.0Q757.0 482.0 749.0 491.5Q741.0 501.0 727.5 506.0Q714.0 511.0 723.0 530.0Q732.0 549.0 715.0 550.0Q698.0 551.0 689.0 556.5Q680.0 562.0 680.0 581.0Q680.0 600.0 662.0 590.5Q644.0 581.0 636.5 591.0Q629.0 601.0 620.0 612.5Q611.0 624.0 598.0 608.0Q585.0 592.0 574.0 606.0Q563.0 620.0 551.5 618.0Q540.0 616.0 533.0 600.5Q526.0 585.0 509.5 597.0Q493.0 609.0 487.0 596.0Q481.0 583.0 476.0 571.5Q471.0 560.0 451.5 565.0Q432.0 570.0 436.5 551.5Q441.0 533.0 433.0 525.0Q425.0 517.0 409.0 512.0Q393.0 507.0 406.5 491.0Q420.0 475.0 407.5 466.5Q395.0 458.0 390.0 446.5Q385.0 435.0 402.0 425.0Q419.0 415.0 404.5 401.5Q390.0 388.0 398.0 378.0Q406.0 368.0 420.0 363.0Q434.0 358.0 425.0 338.5Q416.0 319.0 433.0 318.0Q450.0 317.0 459.0 311.5Q468.0 306.0 468.5 287.0Q469.0 268.0 487.0 277.5Q505.0 287.0 512.5 276.5Q520.0 266.0 529.0 255.0Q538.0 244.0 551.5 260.0Q565.0 276.0 576.0 262.0Q587.0 248.0 598.5 249.5Q610.0 251.0 617.0 267.0Q624.0 283.0 641.0 270.5Q658.0 258.0 664.0 271.5Q670.0 285.0 675.0 296.5Q680.0 308.0 700.0 303.0Q720.0 298.0 715.5 317.0Q711.0 336.0 719.0 343.5Q727.0 351.0 743.5 356.5Q760.0 362.0 746.0 378.5Q732.0 395.0 744.5 403.5Q757.0 412.0 762.5 423.5Q768.0 435.0 751.0 445.0Q734.0 455.0 748.0 469.0Q762.0 483.0 754.0 493.0Q746.0 503.0 732.0 508.0Q718.0 513.0 727.0 532.5Q736.0 552.0 719.0 553.0Q702.0 554.0 692.5 560.0Q683.0 566.0 683.0 585.5Q683.0 605.0 664.5 595.0Q646.0 585.0 638.5 595.5Q631.0 606.0 621.5 617.5Q612.0 629.0 598.5 612.5Q585.0 596.0 574.0 610.5Q563.0 625.0 551.0 623.5Q539.0 622.0 532.0 605.5Q525.0 589.0 508.0 601.5Q491.0 614.0 484.5 600.5Q478.0 587.0 473.5 575.5Q469.0 564.0 448.5 568.5Q428.0 573.0 432.5 554.0Q437.0 535.0 429.0 527.5Q421.0 520.0 404.5 514.5Q388.0 509.0 402.0 492.5Q416.0 476.0 403.0 467.0Q390.0 458.0 385.0 446.5Q380.0 435.0 397.0 425.0Q414.0 415.0 399.5 400.5Q385.0 386.0 393.5 376.0Q402.0 366.0 416.5 361.0Q431.0 356.0 421.0 336.0Q411.0 316.0 428.5 315.0Q446.0 314.0 455.5 308.0Q465.0 302.0 465.5 282.5Q466.0 263.0 484.5 273.0Q503.0 283.0 511.0 272.5Q519.0 262.0 528.0 250.0Q537.0 238.0 551.0 255.0Q565.0 272.0 576.0 257.5Q587.0 243.0 599.0 244.5Q611.0 246.0 618.5 262.5Q626.0 279.0 643.5 266.0Q661.0 253.0 667.0 267.0Q673.0 281.0 678.0 293.0Q683.0 305.0 704.0 300.0Q725.0 295.0 720.0 314.0Q715.0 333.0 723.0 341.0Q731.0 349.0 748.0 354.5Q765.0 360.0 750.5 377.0Q736.0 394.0 749.5 402.5Q763.0 411.0 768.0 423.0Q773.0 435.0 755.5 445.5Q738.0 456.0 752.5 470.0Q767.0 484.0 759.0 494.5Q751.0 505.0 736.0 510.5Q721.0 516.0 731.0 536.0Q741.0 556.0 723.0 556.5Q705.0 557.0 695.5 563.5Q686.0 570.0 686.0 589.5Q686.0 609.0 667.0 599.0Q648.0 589.0 640.0 600.0Q632.0 611.0 622.5 622.5Q613.0 634.0 599.0 617.0Q585.0 600.0 574.0 615.0Q563.0 630.0 550.5 628.5Q538.0 627.0 531.0 610.0Q524.0 593.0 506.0 606.0Q488.0 619.0 482.0 605.0Q476.0 591.0 471.0 579.0Q466.0 567.0 444.5 572.0Q423.0 577.0 428.0 557.5Q433.0 538.0 425.0 530.0Q417.0 522.0 400.0 516.5Q383.0 511.0 397.5 494.0Q412.0 477.0 398.5 468.0Q385.0 459.0 379.5 447.0Q374.0 435.0 392.0 424.5Q410.0 414.0 395.0 399.5Q380.0 385.0 388.5 374.5Q397.0 364.0 412.0 358.5Q427.0 353.0 417.0 333.0Q407.0 313.0 425.0 312.0Q443.0 311.0 452.5 305.0Q462.0 299.0 462.5 278.5Q463.0 258.0 482.0 268.5Q501.0 279.0 509.0 268.0Q517.0 257.0 526.5 245.0Q536.0 233.0 550.0 250.0Q564.0 267.0 575.5 252.0Q587.0 237.0 599.5 239.0Q612.0 241.0 619.5 258.0Q627.0 275.0 645.0 261.5Q663.0 248.0 669.5 262.5Q676.0 277.0 681.0 289.0Q686.0 301.0 707.5 296.0Q729.0 291.0 724.0 310.5Q719.0 330.0 727.5 338.5Q736.0 347.0 753.0 352.5Q770.0 358.0 755.5 375.0Q741.0 392.0 754.5 401.5Q768.0 411.0 773.5 423.0Q779.0 435.0 760.5 445.5Q742.0 456.0 757.5 471.0Q773.0 486.0 764.0 496.0Q755.0 506.0 740.0 512.0Q725.0 518.0 735.0 538.5Q745.0 559.0 727.0 560.0Q709.0 561.0 699.0 567.0Q689.0 573.0 689.0 593.5Q689.0 614.0 669.5 603.5Q650.0 593.0 642.0 604.5Q634.0 616.0 624.0 628.0Q614.0 640.0 600.0 622.5Q586.0 605.0 574.0 620.0Q562.0 635.0 549.5 633.5Q537.0 632.0 529.5 614.5Q522.0 597.0 504.0 610.5Q486.0 624.0 479.5 610.0Q473.0 596.0 468.0 583.5Q463.0 571.0 441.0 576.0Q419.0 581.0 424.0 561.0Q429.0 541.0 420.5 532.5Q412.0 524.0 395.0 518.5Q378.0 513.0 392.5 495.5Q407.0 478.0 393.5 469.0Q380.0 460.0 374.5 447.5Q369.0 435.0 387.0 424.5Q405.0 414.0 390.0 399.0Q375.0 384.0 383.5 373.5Q392.0 363.0 407.5 357.0Q423.0 351.0 412.5 330.5Q402.0 310.0 420.5 309.0Q439.0 308.0 449.0 301.5Q459.0 295.0 459.5 274.5Q460.0 254.0 479.5 264.5Q499.0 275.0 507.5 263.5Q516.0 252.0 525.5 240.0Q535.0 228.0 549.5 245.5Q564.0 263.0 576.0 247.5Q588.0 232.0 600.5 234.0Q613.0 236.0 620.5 253.5Q628.0 271.0 646.5 257.0Q665.0 243.0 671.5 257.5Q678.0 272.0 683.5 285.0Q689.0 298.0 711.0 292.5Q733.0 287.0 728.0 307.5Q723.0 328.0 731.5 336.0Q740.0 344.0 757.5 350.0Q775.0 356.0 760.0 373.5Q745.0 391.0 759.0 400.5Q773.0 410.0 778.5 422.5Q784.0 435.0 765.5 446.0Q747.0 457.0 762.5 472.0Q778.0 487.0 769.0 497.5Q760.0 508.0 744.5 514.0Q729.0 520.0 739.5 541.0Q750.0 562.0 731.0 563.0Q712.0 564.0 702.0 570.5Q692.0 577.0 692.0 598.0Q692.0 619.0 671.5 608.5Q651.0 598.0 643.0 609.0Q635.0 620.0 625.0 632.5Q615.0 645.0 600.5 627.0Q586.0 609.0 574.0 625.0Q562.0 641.0 549.0 639.0Q536.0 637.0 528.5 619.0Q521.0 601.0 502.5 615.0Q484.0 629.0 477.0 614.5Q470.0 600.0 465.0 587.0Q460.0 574.0 437.5 579.5Q415.0 585.0 420.0 564.5Q425.0 544.0 416.5 535.5Q408.0 527.0 390.0 521.0Q372.0 515.0 387.5 497.0Q403.0 479.0 389.0 469.5Q375.0 460.0 369.0 447.5Q363.0 435.0 382.0 424.0Q401.0 413.0 385.5 397.5Q370.0 382.0 378.5 371.5Q387.0 361.0 403.0 355.0Q419.0 349.0 408.5 327.5Q398.0 306.0 417.0 305.0Q436.0 304.0 446.0 297.5Q456.0 291.0 456.5 270.0Q457.0 249.0 477.5 259.5Q498.0 270.0 506.0 258.5Q514.0 247.0 524.0 234.5Q534.0 222.0 549.0 240.0Q564.0 258.0 576.0 242.5Q588.0 227.0 601.0 228.5Q614.0 230.0 622.0 248.0Q630.0 266.0 649.0 252.0Q668.0 238.0 674.5 253.0Q681.0 268.0 686.5 281.0Q692.0 294.0 714.5 288.5Q737.0 283.0 731.5 304.0Q726.0 325.0 735.0 333.5Q744.0 342.0 762.0 348.0Q780.0 354.0 764.5 372.0Q749.0 390.0 763.5 399.5Q778.0 409.0 783.5 422.0Q789.0 435.0 770.0 446.0Q751.0 457.0 767.0 472.5Q783.0 488.0 774.0 499.0Q765.0 510.0 749.0 516.0Q733.0 522.0 743.5 543.5Q754.0 565.0 735.0 566.0Q716.0 567.0 705.5 573.5Q695.0 580.0 695.0 602.0Q695.0 624.0 674.0 613.0Q653.0 602.0 645.0 613.5Q637.0 625.0 626.5 637.5Q616.0 650.0 601.0 632.0Q586.0 614.0 574.0 630.0Q562.0 646.0 548.5 644.0Q535.0 642.0 527.5 624.0Q520.0 606.0 500.5 620.0Q481.0 634.0 474.5 619.0Q468.0 604.0 462.5 591.0Q457.0 578.0 434.0 583.5Q411.0 589.0 416.5 567.5Q422.0 546.0 413.0 537.5Q404.0 529.0 385.5 523.0Q367.0 517.0 383.0 498.5Q399.0 480.0 384.5 470.5Q370.0 461.0 364.0 448.0Q358.0 435.0 377.5 423.5Q397.0 412.0 380.5 396.5Q364.0 381.0 373.5 370.0Q383.0 359.0 399.0 353.0Q415.0 347.0 404.0 325.0Q393.0 303.0 412.5 302.0Q432.0 301.0 442.5 294.5Q453.0 288.0 453.5 266.0Q454.0 244.0 475.0 255.0Q496.0 266.0 504.0 254.5Q512.0 243.0 522.5 230.0Q533.0 217.0 548.5 235.5Q564.0 254.0 576.0 238.0Q588.0 222.0 601.5 223.5Q615.0 225.0 623.0 243.5Q631.0 262.0 650.5 247.5Q670.0 233.0 677.0 248.5Q684.0 264.0 689.5 277.0Q695.0 290.0 718.0 284.5Q741.0 279.0 735.5 300.5Q730.0 322.0 739.0 331.0Q748.0 340.0 766.5 346.0Q785.0 352.0 769.5 370.5Q754.0 389.0 768.5 399.0Q783.0 409.0 789.0 422.0Q795.0 435.0 775.5 446.5Q756.0 458.0 772.0 474.0Q788.0 490.0 779.0 501.0Q770.0 512.0 753.5 518.0Q737.0 524.0 748.0 546.5Q759.0 569.0 739.0 570.0Q719.0 571.0 708.5 577.5Q698.0 584.0 698.0 606.0Q698.0 628.0 676.5 617.0Q655.0 606.0 646.5 618.0Q638.0 630.0 627.5 643.0Q617.0 656.0 602.0 637.0Q587.0 618.0 574.0 634.5Q561.0 651.0 548.0 649.0Q535.0 647.0 526.5 628.5Q518.0 610.0 498.5 624.5Q479.0 639.0 472.0 623.5Q465.0 608.0 459.5 594.5Q454.0 581.0 430.5 587.0Q407.0 593.0 412.5 571.0Q418.0 549.0 409.0 540.0Q400.0 531.0 381.0 525.0Q362.0 519.0 378.0 500.0Q394.0 481.0 379.5 471.5Q365.0 462.0 359.0 448.5Q353.0 435.0 372.5 423.5Q392.0 412.0 375.5 396.0Q359.0 380.0 368.5 368.5Q378.0 357.0 394.5 351.0Q411.0 345.0 400.0 322.5Q389.0 300.0 409.0 299.0Q429.0 298.0 439.5 291.0Q450.0 284.0 450.5 261.5Q451.0 239.0 472.5 250.5Q494.0 262.0 502.5 250.0Q511.0 238.0 521.5 225.0Q532.0 212.0 547.5 231.0Q563.0 250.0 576.0 233.0Q589.0 216.0 602.5 218.0Q616.0 220.0 624.5 239.0Q633.0 258.0 652.5 243.0Q672.0 228.0 679.0 244.0Q686.0 260.0 692.0 273.5Q698.0 287.0 721.5 281.5Q745.0 276.0 739.5 297.5Q734.0 319.0 743.0 328.0Q752.0 337.0 771.0 343.5Q790.0 350.0 774.0 369.0Q758.0 388.0 773.0 398.0Q788.0 408.0 794.0 421.5Q800.0 435.0 780.0 446.5Q760.0 458.0 776.5 474.5Q793.0 491.0 783.5 502.5Q774.0 514.0 757.5 520.0Q741.0 526.0 752.0 549.0Q763.0 572.0 743.0 573.0Q723.0 574.0 712.0 581.0Q701.0 588.0 701.0 610.5Q701.0 633.0 679.0 621.5Q657.0 610.0 648.5 622.0Q640.0 634.0 629.0 647.5Q618.0 661.0 602.5 642.0Q587.0 623.0 574.0 639.5Q561.0 656.0 547.5 654.0Q534.0 652.0 525.5 633.0Q517.0 614.0 497.0 629.0Q477.0 644.0 469.5 628.0Q462.0 612.0 456.5 598.5Q451.0 585.0 427.0 590.5Q403.0 596.0 408.5 574.0Q414.0 552.0 404.5 543.0Q395.0 534.0 376.0 527.5Q357.0 521.0 373.5 502.0Q390.0 483.0 375.0 472.5Q360.0 462.0 353.5 448.5Q347.0 435.0 367.5 423.0Q388.0 411.0 371.0 394.5Q354.0 378.0 363.5 366.5Q373.0 355.0 390.0 349.0Q407.0 343.0 396.0 320.0Q385.0 297.0 405.0 295.5Q425.0 294.0 436.0 287.5Q447.0 281.0 447.5 258.0Q448.0 235.0 470.0 246.5Q492.0 258.0 500.5 245.5Q509.0 233.0 520.0 219.5Q531.0 206.0 547.0 225.5Q563.0 245.0 576.0 228.0Q589.0 211.0 603.0 213.0Q617.0 215.0 625.5 234.5Q634.0 254.0 654.5 238.5Q675.0 223.0 682.0 239.5Q689.0 256.0 694.5 269.5Q700.0 283.0 724.5 277.5Q749.0 272.0 743.5 294.5Q738.0 317.0 747.5 326.0Q757.0 335.0 776.5 341.5Q796.0 348.0 779.0 367.5Q762.0 387.0 777.5 397.0Q793.0 407.0 799.0 421.0Q805.0 435.0 784.5 447.0Q764.0 459.0 781.5 475.5Q799.0 492.0 789.0 504.0Q779.0 516.0 762.0 522.5Q745.0 529.0 756.5 552.0Q768.0 575.0 747.5 576.0Q727.0 577.0 715.5 584.0Q704.0 591.0 704.0 614.5Q704.0 638.0 681.5 626.0Q659.0 614.0 650.0 626.5Q641.0 639.0 630.0 653.0Q619.0 667.0 603.0 647.0Q587.0 627.0 574.0 644.0Q561.0 661.0 547.0 659.5Q533.0 658.0 524.0 638.0Q515.0 618.0 494.5 633.5Q474.0 649.0 467.0 632.5Q460.0 616.0 454.0 602.0Q448.0 588.0 423.5 594.0Q399.0 600.0 404.5 577.5Q410.0 555.0 400.5 545.5Q391.0 536.0 371.5 529.5Q352.0 523.0 368.5 503.5Q385.0 484.0 370.0 473.5Q355.0 463.0 348.5 449.0Q342.0 435.0 362.5 423.0Q383.0 411.0 366.0 394.0Q349.0 377.0 358.5 365.0Q368.0 353.0 385.5 346.5Q403.0 340.0 391.5 316.5Q380.0 293.0 401.0 292.0Q422.0 291.0 433.0 284.0Q444.0 277.0 444.5 253.5Q445.0 230.0 467.5 242.0Q490.0 254.0 499.0 241.0Q508.0 228.0 519.0 214.5Q530.0 201.0 546.5 221.0Q563.0 241.0 576.0 223.5Q589.0 206.0 603.5 208.0Q618.0 210.0 626.5 229.5Q635.0 249.0 656.0 234.0Q677.0 219.0 684.0 235.0Q691.0 251.0 697.0 265.5Q703.0 280.0 728.0 274.0Q753.0 268.0 747.5 291.0Q742.0 314.0 751.5 323.5Q761.0 333.0 781.0 339.5Q801.0 346.0 784.0 366.0Q767.0 386.0 782.5 396.5Q798.0 407.0 804.5 421.0Q811.0 435.0 790.0 447.0Q769.0 459.0 786.5 476.5Q804.0 494.0 794.0 506.0Q784.0 518.0 766.5 524.5Q749.0 531.0 760.5 554.5Q772.0 578.0 751.0 579.5Q730.0 581.0 718.5 588.0Q707.0 595.0 707.0 618.5Q707.0 642.0 684.0 630.0Q661.0 618.0 652.0 631.0Q643.0 644.0 631.5 658.0Q620.0 672.0 603.5 652.0Q587.0 632.0 573.5 649.5Q560.0 667.0 546.0 665.0Q532.0 663.0 523.0 643.0Q514.0 623.0 493.0 638.5Q472.0 654.0 464.5 637.5Q457.0 621.0 451.0 606.5Q445.0 592.0 420.0 598.0Q395.0 604.0 400.5 580.5Q406.0 557.0 396.5 547.5Q387.0 538.0 367.0 531.5Q347.0 525.0 364.0 505.0Q381.0 485.0 365.0 474.0Q349.0 463.0 343.0 449.0Q337.0 435.0 358.0 422.5Q379.0 410.0 361.5 393.0Q344.0 376.0 354.0 363.5Q364.0 351.0 381.5 344.5Q399.0 338.0 387.5 314.0Q376.0 290.0 397.0 289.0Q418.0 288.0 429.5 280.5Q441.0 273.0 441.5 249.0Q442.0 225.0 465.0 237.5Q488.0 250.0 497.0 237.0Q506.0 224.0 517.5 209.5Q529.0 195.0 545.5 215.5Q562.0 236.0 576.0 218.5Q590.0 201.0 604.5 203.0Q619.0 205.0 628.0 225.0Q637.0 245.0 658.0 229.5Q679.0 214.0 686.5 230.5Q694.0 247.0 700.0 261.5Q706.0 276.0 731.5 270.0Q757.0 264.0 751.0 287.5Q745.0 311.0 755.0 320.5Q765.0 330.0 785.5 337.0Q806.0 344.0 788.5 364.5Q771.0 385.0 787.0 395.5Q803.0 406.0 809.5 420.5Q816.0 435.0 794.5 447.5Q773.0 460.0 791.0 477.5Q809.0 495.0 799.0 507.5Q789.0 520.0 771.0 526.5Q753.0 533.0 765.0 557.5Q777.0 582.0 755.5 583.0Q734.0 584.0 722.0 591.5Q710.0 599.0 710.0 623.0Q710.0 647.0 686.5 634.5Q663.0 622.0 653.5 635.5Q644.0 649.0 632.5 663.0Q621.0 677.0 604.5 656.5Q588.0 636.0 574.0 654.0Q560.0 672.0 545.5 670.0Q531.0 668.0 522.0 647.5Q513.0 627.0 491.5 643.0Q470.0 659.0 462.5 642.0Q455.0 625.0 448.5 610.0Q442.0 595.0 416.5 601.5Q391.0 608.0 397.0 584.0Q403.0 560.0 393.0 550.5Q383.0 541.0 362.5 534.0Q342.0 527.0 359.5 506.5Q377.0 486.0 360.5 475.0Q344.0 464.0 337.5 449.5Q331.0 435.0 353.0 422.5Q375.0 410.0 356.5 392.0Q338.0 374.0 348.5 361.5Q359.0 349.0 377.0 342.5Q395.0 336.0 383.0 311.5Q371.0 287.0 393.0 285.5Q415.0 284.0 426.5 277.0Q438.0 270.0 438.5 245.5Q439.0 221.0 462.5 233.0Q486.0 245.0 495.5 232.0Q505.0 219.0 516.5 204.5Q528.0 190.0 545.0 211.0Q562.0 232.0 576.0 213.5Q590.0 195.0 605.0 197.5Q620.0 200.0 629.0 220.5Q638.0 241.0 660.0 225.0Q682.0 209.0 689.5 226.0Q697.0 243.0 703.0 258.0Q709.0 273.0 735.0 266.5Q761.0 260.0 755.0 284.0Q749.0 308.0 759.0 318.0Q769.0 328.0 790.0 335.0Q811.0 342.0 793.0 363.0Q775.0 384.0 791.5 395.0Q808.0 406.0 814.5 420.5Q821.0 435.0 799.5 448.0Q778.0 461.0 796.0 478.5Q814.0 496.0 803.5 508.5Q793.0 521.0 775.0 528.0Q757.0 535.0 769.0 560.0Q781.0 585.0 759.0 586.0Q737.0 587.0 725.0 594.5Q713.0 602.0 713.0 627.0Q713.0 652.0 689.0 639.5Q665.0 627.0 655.5 640.0Q646.0 653.0 634.0 668.0Q622.0 683.0 605.0 661.5Q588.0 640.0 574.0 658.5Q560.0 677.0 545.0 675.0Q530.0 673.0 520.5 652.0Q511.0 631.0 489.0 647.5Q467.0 664.0 459.5 646.5Q452.0 629.0 445.5 614.0Q439.0 599.0 413.0 605.5Q387.0 612.0 393.0 587.5Q399.0 563.0 389.0 553.0Q379.0 543.0 358.0 536.0Q337.0 529.0 354.5 508.0Q372.0 487.0 355.5 476.0Q339.0 465.0 332.5 450.0Q326.0 435.0 348.0 422.0Q370.0 409.0 351.5 391.0Q333.0 373.0 343.5 360.5Q354.0 348.0 372.5 341.0Q391.0 334.0 379.0 309.0Q367.0 284.0 389.0 282.5Q411.0 281.0 423.0 273.5Q435.0 266.0 435.5 241.0Q436.0 216.0 460.0 228.5Q484.0 241.0 493.5 227.5Q503.0 214.0 515.0 199.5Q527.0 185.0 544.5 206.0Q562.0 227.0 576.0 208.5Q590.0 190.0 605.5 192.0Q621.0 194.0 630.0 215.5Q639.0 237.0 661.5 220.5Q684.0 204.0 691.5 221.5Q699.0 239.0 705.5 254.0Q712.0 269.0 738.5 263.0Q765.0 257.0 759.0 281.5Q753.0 306.0 763.5 316.0Q774.0 326.0 795.0 333.0Q816.0 340.0 798.0 361.0Q780.0 382.0 796.5 393.5Q813.0 405.0 820.0 420.0Q827.0 435.0 804.5 448.0Q782.0 461.0 800.5 479.5Q819.0 498.0 808.5 510.5Q798.0 523.0 779.5 530.0Q761.0 537.0 773.5 562.5Q786.0 588.0 763.5 589.0Q741.0 590.0 728.5 598.0Q716.0 606.0 715.5 631.0Q715.0 656.0 691.0 643.5Q667.0 631.0 657.0 644.5Q647.0 658.0 635.0 673.0Q623.0 688.0 605.5 666.5Q588.0 645.0 573.5 663.5Q559.0 682.0 544.0 680.0Q529.0 678.0 519.5 656.5Q510.0 635.0 487.5 652.0Q465.0 669.0 457.0 651.0Q449.0 633.0 442.5 618.0Q436.0 603.0 409.5 609.0Q383.0 615.0 389.0 590.5Q395.0 566.0 384.5 555.5Q374.0 545.0 352.5 538.0Q331.0 531.0 349.5 509.5Q368.0 488.0 351.0 476.5Q334.0 465.0 327.5 450.0Q321.0 435.0 343.5 422.0Q366.0 409.0 347.0 390.5Q328.0 372.0 338.5 359.0Q349.0 346.0 368.0 339.0Q387.0 332.0 374.5 306.0Q362.0 280.0 385.0 279.0Q408.0 278.0 420.0 270.0Q432.0 262.0 432.5 236.5Q433.0 211.0 457.5 224.0Q482.0 237.0 492.0 223.5Q502.0 210.0 514.0 194.5Q526.0 179.0 544.0 201.0Q562.0 223.0 576.5 204.0Q591.0 185.0 606.5 187.0Q622.0 189.0 631.5 211.0Q641.0 233.0 663.5 216.0Q686.0 199.0 694.0 217.0Q702.0 235.0 708.5 250.5Q715.0 266.0 742.0 259.5Q769.0 253.0 763.0 278.0Q757.0 303.0 767.5 313.0Q778.0 323.0 799.5 330.5Q821.0 338.0 802.5 359.5Q784.0 381.0 801.0 392.5Q818.0 404.0 825.0 419.5Q832.0 435.0 809.0 448.5Q786.0 462.0 805.5 480.5Q825.0 499.0 814.0 512.0Q803.0 525.0 784.0 532.0Q765.0 539.0 777.5 565.0Q790.0 591.0 767.0 592.5Q744.0 594.0 731.5 601.5Q719.0 609.0 718.5 635.0Q718.0 661.0 693.5 648.0Q669.0 635.0 659.0 649.0Q649.0 663.0 636.5 678.0Q624.0 693.0 606.0 671.0Q588.0 649.0 573.5 668.5Q559.0 688.0 543.5 685.5Q528.0 683.0 518.5 661.5Q509.0 640.0 486.0 657.0Q463.0 674.0 455.0 655.5Q447.0 637.0 440.0 621.5Q433.0 606.0 406.0 612.5Q379.0 619.0 385.0 594.0Q391.0 569.0 380.5 558.5Q370.0 548.0 348.0 540.5Q326.0 533.0 345.0 511.0Q364.0 489.0 346.5 477.5Q329.0 466.0 322.0 450.5Q315.0 435.0 338.0 421.5Q361.0 408.0 342.0 389.0Q323.0 370.0 334.0 357.0Q345.0 344.0 364.0 337.0Q383.0 330.0 370.5 303.5Q358.0 277.0 381.0 276.0Q404.0 275.0 416.5 267.0Q429.0 259.0 429.5 233.0Q430.0 207.0 455.0 220.0Q480.0 233.0 490.0 219.0Q500.0 205.0 512.5 189.5Q525.0 174.0 543.0 196.0Q561.0 218.0 576.0 199.0Q591.0 180.0 607.0 182.0Q623.0 184.0 632.5 206.0Q642.0 228.0 665.0 211.0Q688.0 194.0 696.5 212.0Q705.0 230.0 711.5 246.0Q718.0 262.0 745.5 255.5Q773.0 249.0 767.0 274.5Q761.0 300.0 771.5 310.5Q782.0 321.0 804.0 328.0Q826.0 335.0 807.5 357.5Q789.0 380.0 806.0 392.0Q823.0 404.0 830.0 419.5Q837.0 435.0 814.0 448.5Q791.0 462.0 810.5 481.0Q830.0 500.0 819.0 513.5Q808.0 527.0 788.5 534.5Q769.0 542.0 782.0 568.5Q795.0 595.0 771.5 596.0Q748.0 597.0 735.0 605.0Q722.0 613.0 721.5 639.5Q721.0 666.0 696.0 652.5Q671.0 639.0 661.0 653.5Q651.0 668.0 638.0 683.5Q625.0 699.0 607.0 676.5Q589.0 654.0 574.0 673.5Q559.0 693.0 543.0 690.5Q527.0 688.0 517.0 666.0Q507.0 644.0 483.5 661.5Q460.0 679.0 452.0 660.5Q444.0 642.0 437.5 626.0Q431.0 610.0 403.0 616.5Q375.0 623.0 381.0 597.0Q387.0 571.0 376.5 560.5Q366.0 550.0 343.5 543.0Q321.0 536.0 340.0 513.0Q359.0 490.0 341.5 478.5Q324.0 467.0 317.0 451.0Q310.0 435.0 333.5 421.0Q357.0 407.0 337.5 388.0Q318.0 369.0 329.0 355.5Q340.0 342.0 359.5 334.5Q379.0 327.0 366.0 300.5Q353.0 274.0 377.0 272.5Q401.0 271.0 413.5 263.0Q426.0 255.0 426.5 228.5Q427.0 202.0 452.5 215.5Q478.0 229.0 488.5 214.5Q499.0 200.0 511.5 184.5Q524.0 169.0 542.5 191.5Q561.0 214.0 576.0 194.5Q591.0 175.0 607.5 177.0Q624.0 179.0 634.0 201.5Q644.0 224.0 667.5 206.5Q691.0 189.0 699.0 207.5Q707.0 226.0 714.0 242.5Q721.0 259.0 749.0 252.0Q777.0 245.0 770.5 271.0Q764.0 297.0 775.0 308.0Q786.0 319.0 808.5 326.0Q831.0 333.0 812.0 356.0Q793.0 379.0 810.5 391.0Q828.0 403.0 835.5 419.0Q843.0 435.0 819.0 449.0Q795.0 463.0 815.0 482.5Q835.0 502.0 823.5 515.5Q812.0 529.0 792.5 536.5Q773.0 544.0 786.0 571.0Q799.0 598.0 775.0 599.0Q751.0 600.0 738.0 608.5Q725.0 617.0 724.5 643.5Q724.0 670.0 698.5 656.5Q673.0 643.0 662.5 657.5Q652.0 672.0 639.0 688.0Q626.0 704.0 607.5 681.0Q589.0 658.0 573.5 678.0Q558.0 698.0 542.0 696.0Q526.0 694.0 516.0 671.0Q506.0 648.0 482.0 666.0Q458.0 684.0 449.5 665.0Q441.0 646.0 434.5 629.5Q428.0 613.0 399.5 620.0Q371.0 627.0 377.5 600.5Q384.0 574.0 373.0 563.0Q362.0 552.0 339.0 545.0Q316.0 538.0 335.5 515.0Q355.0 492.0 337.0 479.5Q319.0 467.0 312.0 451.0Q305.0 435.0 329.0 421.0Q353.0 407.0 332.5 387.5Q312.0 368.0 323.5 354.0Q335.0 340.0 355.0 332.5Q375.0 325.0 362.0 298.0Q349.0 271.0 373.0 269.5Q397.0 268.0 410.0 260.0Q423.0 252.0 423.5 224.5Q424.0 197.0 450.0 211.0Q476.0 225.0 486.5 210.0Q497.0 195.0 510.0 179.0Q523.0 163.0 542.0 186.5Q561.0 210.0 576.5 189.5Q592.0 169.0 608.5 171.5Q625.0 174.0 635.0 197.0Q645.0 220.0 669.0 202.0Q693.0 184.0 701.5 203.0Q710.0 222.0 717.0 238.5Q724.0 255.0 752.5 248.0Q781.0 241.0 774.5 268.0Q768.0 295.0 779.5 306.0Q791.0 317.0 814.0 324.0Q837.0 331.0 817.0 354.5Q797.0 378.0 815.5 390.0Q834.0 402.0 841.0 418.5Q848.0 435.0 824.0 449.0Q800.0 463.0 820.0 483.0Q840.0 503.0 828.5 517.0Q817.0 531.0 797.0 538.5Q777.0 546.0 790.0 573.5Q803.0 601.0 779.0 602.5Q755.0 604.0 741.5 612.0Q728.0 620.0 727.5 647.5Q727.0 675.0 701.0 661.0Q675.0 647.0 664.5 662.0Q654.0 677.0 640.5 693.0Q627.0 709.0 608.0 686.0Q589.0 663.0 573.5 683.0Q558.0 703.0 541.5 701.0Q525.0 699.0 514.5 675.5Q504.0 652.0 480.0 670.5Q456.0 689.0 447.5 669.5Q439.0 650.0 432.0 633.5Q425.0 617.0 396.0 624.0Q367.0 631.0 373.5 604.0Q380.0 577.0 368.5 566.0Q357.0 555.0 334.0 547.5Q311.0 540.0 331.0 516.5Q351.0 493.0 332.5 480.5Q314.0 468.0 306.5 451.5Q299.0 435.0 323.5 420.5Q348.0 406.0 327.5 386.0Q307.0 366.0 318.5 352.0Q330.0 338.0 350.5 330.5Q371.0 323.0 357.5 295.0Q344.0 267.0 369.0 266.0Q394.0 265.0 407.0 256.5Q420.0 248.0 420.5 220.5Q421.0 193.0 447.5 207.0Q474.0 221.0 485.0 206.0Q496.0 191.0 509.0 174.5Q522.0 158.0 541.5 181.5Q561.0 205.0 576.5 184.5Q592.0 164.0 609.0 166.5Q626.0 169.0 636.0 192.5Q646.0 216.0 670.5 197.5Q695.0 179.0 704.0 198.5Q713.0 218.0 720.0 235.0Q727.0 252.0 756.0 245.0Q785.0 238.0 778.5 265.0Q772.0 292.0 783.5 303.0Q795.0 314.0 818.5 321.5Q842.0 329.0 822.0 353.0Q802.0 377.0 820.5 389.5Q839.0 402.0 846.5 418.5Q854.0 435.0 829.0 449.5Q804.0 464.0 824.5 484.0Q845.0 504.0 833.5 518.5Q822.0 533.0 801.5 540.5Q781.0 548.0 794.5 576.0Q808.0 604.0 783.0 605.5Q758.0 607.0 744.5 615.5Q731.0 624.0 730.5 652.0Q730.0 680.0 703.5 665.5Q677.0 651.0 666.0 666.5Q655.0 682.0 641.5 698.5Q628.0 715.0 609.0 691.0Q590.0 667.0 574.0 688.0Q558.0 709.0 541.0 706.5Q524.0 704.0 513.5 680.5Q503.0 657.0 478.0 675.0Q453.0 693.0 444.5 673.5Q436.0 654.0 429.0 637.0Q422.0 620.0 392.5 627.0Q363.0 634.0 369.5 607.0Q376.0 580.0 364.5 568.5Q353.0 557.0 329.5 549.5Q306.0 542.0 326.0 518.0Q346.0 494.0 327.5 481.5Q309.0 469.0 301.5 452.0Q294.0 435.0 319.0 420.5Q344.0 406.0 323.0 385.5Q302.0 365.0 314.0 350.5Q326.0 336.0 346.5 328.5Q367.0 321.0 353.5 292.5Q340.0 264.0 365.0 262.5Q390.0 261.0 403.5 252.5Q417.0 244.0 417.5 216.0Q418.0 188.0 445.0 202.0Q472.0 216.0 483.0 201.0Q494.0 186.0 507.5 169.5Q521.0 153.0 540.5 177.0Q560.0 201.0 576.0 180.0Q592.0 159.0 609.5 161.5Q627.0 164.0 637.5 187.5Q648.0 211.0 673.0 192.5Q698.0 174.0 706.5 194.0Q715.0 214.0 722.5 231.0Q730.0 248.0 759.5 241.0Q789.0 234.0 782.5 261.5Q776.0 289.0 787.5 300.5Q799.0 312.0 823.0 319.5Q847.0 327.0 826.5 351.5Q806.0 376.0 825.0 388.5Q844.0 401.0 851.5 418.0Q859.0 435.0 833.5 449.5Q808.0 464.0 829.5 485.0Q851.0 506.0 839.0 520.5Q827.0 535.0 806.0 542.5Q785.0 550.0 798.5 579.0Q812.0 608.0 787.0 609.0Q762.0 610.0 748.0 619.0Q734.0 628.0 733.5 656.5Q733.0 685.0 706.0 670.5Q679.0 656.0 668.0 671.0Q657.0 686.0 643.0 703.0Q629.0 720.0 609.5 696.0Q590.0 672.0 573.5 693.0Q557.0 714.0 540.0 711.5Q523.0 709.0 512.5 685.0Q502.0 661.0 476.5 679.5Q451.0 698.0 442.0 678.0Q433.0 658.0 426.0 641.0Q419.0 624.0 389.0 631.0Q359.0 638.0 365.5 610.0Q372.0 582.0 360.5 570.5Q349.0 559.0 325.0 551.5Q301.0 544.0 321.5 519.5Q342.0 495.0 323.0 482.0Q304.0 469.0 296.0 452.0Q288.0 435.0 313.5 420.0Q339.0 405.0 318.0 384.5Q297.0 364.0 309.0 349.0Q321.0 334.0 342.0 326.5Q363.0 319.0 349.0 290.0Q335.0 261.0 361.0 259.5Q387.0 258.0 400.5 249.5Q414.0 241.0 414.5 212.0Q415.0 183.0 442.5 197.5Q470.0 212.0 481.5 196.5Q493.0 181.0 506.5 164.0Q520.0 147.0 540.0 171.5Q560.0 196.0 576.5 175.0Q593.0 154.0 610.5 156.0Q628.0 158.0 638.5 182.5Q649.0 207.0 674.5 188.0Q700.0 169.0 709.0 189.5Q718.0 210.0 725.5 227.0Q733.0 244.0 763.0 237.0Q793.0 230.0 786.5 258.0Q780.0 286.0 791.5 298.0Q803.0 310.0 827.5 317.5Q852.0 325.0 831.0 350.0Q810.0 375.0 829.5 387.5Q849.0 400.0 856.5 417.5Q864.0 435.0 838.5 450.0Q813.0 465.0 834.5 486.0Q856.0 507.0 843.5 522.0Q831.0 537.0 810.0 544.5Q789.0 552.0 803.0 581.5Q817.0 611.0 791.0 612.5Q765.0 614.0 751.0 622.5Q737.0 631.0 736.5 660.0Q736.0 689.0 708.5 674.5Q681.0 660.0 669.5 675.5Q658.0 691.0 644.0 708.0Q630.0 725.0 610.0 700.5Q590.0 676.0 573.5 697.5Q557.0 719.0 539.5 716.5Q522.0 714.0 511.0 689.5Q500.0 665.0 474.5 684.0Q449.0 703.0 440.0 683.0Q431.0 663.0 423.5 645.0Q416.0 627.0 385.5 634.5Q355.0 642.0 361.5 613.5Q368.0 585.0 356.5 573.5Q345.0 562.0 320.0 554.0Q295.0 546.0 316.0 521.0Q337.0 496.0 318.0 483.0Q299.0 470.0 291.0 452.5Q283.0 435.0 309.0 420.0Q335.0 405.0 313.5 383.5Q292.0 362.0 304.0 347.5Q316.0 333.0 337.5 324.5Q359.0 316.0 345.0 287.0Q331.0 258.0 357.0 256.5Q383.0 255.0 397.0 246.0Q411.0 237.0 411.5 207.5Q412.0 178.0 440.0 193.0Q468.0 208.0 479.5 192.0Q491.0 176.0 505.0 159.0Q519.0 142.0 539.5 167.0Q560.0 192.0 576.5 170.0Q593.0 148.0 611.0 150.5Q629.0 153.0 639.5 178.0Q650.0 203.0 676.0 183.5Q702.0 164.0 711.5 184.5Q721.0 205.0 728.5 223.0Q736.0 241.0 766.5 233.5Q797.0 226.0 790.0 255.0Q783.0 284.0 795.0 295.5Q807.0 307.0 832.0 315.0Q857.0 323.0 836.0 348.0Q815.0 373.0 834.5 386.5Q854.0 400.0 862.0 417.5Q870.0 435.0 843.5 450.5Q817.0 466.0 839.0 487.0Q861.0 508.0 848.5 523.0Q836.0 538.0 814.5 546.5Q793.0 555.0 807.0 584.5Q821.0 614.0 795.0 615.5Q769.0 617.0 754.5 626.0Q740.0 635.0 739.5 664.5Q739.0 694.0 711.0 679.0Q683.0 664.0 671.5 680.0Q660.0 696.0 645.5 713.5Q631.0 731.0 610.5 705.5Q590.0 680.0 573.5 702.0Q557.0 724.0 539.0 721.5Q521.0 719.0 510.0 694.0Q499.0 669.0 472.5 688.5Q446.0 708.0 437.0 687.5Q428.0 667.0 420.5 649.0Q413.0 631.0 382.0 638.5Q351.0 646.0 358.0 617.0Q365.0 588.0 352.5 576.0Q340.0 564.0 315.0 556.0Q290.0 548.0 311.5 522.5Q333.0 497.0 313.5 484.0Q294.0 471.0 286.0 453.0Q278.0 435.0 304.5 419.5Q331.0 404.0 308.5 382.5Q286.0 361.0 299.0 346.0Q312.0 331.0 333.5 322.5Q355.0 314.0 340.5 284.0Q326.0 254.0 353.0 252.5Q380.0 251.0 394.0 242.0Q408.0 233.0 408.5 203.5Q409.0 174.0 437.5 189.0Q466.0 204.0 477.5 188.0Q489.0 172.0 503.5 154.5Q518.0 137.0 538.5 162.0Q559.0 187.0 576.0 165.0Q593.0 143.0 611.5 145.5Q630.0 148.0 641.0 173.5Q652.0 199.0 678.5 179.0Q705.0 159.0 714.0 180.0Q723.0 201.0 731.0 219.0Q739.0 237.0 770.5 229.5Q802.0 222.0 794.5 251.5Q787.0 281.0 799.5 293.0Q812.0 305.0 837.0 313.0Q862.0 321.0 840.5 346.5Q819.0 372.0 839.0 385.5Q859.0 399.0 867.0 417.0Q875.0 435.0 848.5 450.5Q822.0 466.0 844.0 488.0Q866.0 510.0 853.5 525.0Q841.0 540.0 819.0 548.5Q797.0 557.0 811.5 587.0Q826.0 617.0 799.0 618.5Q772.0 620.0 757.5 629.0Q743.0 638.0 742.5 668.5Q742.0 699.0 713.5 683.5Q685.0 668.0 673.0 684.5Q661.0 701.0 646.5 718.5Q632.0 736.0 611.5 710.5Q591.0 685.0 573.5 707.5Q556.0 730.0 538.0 727.0Q520.0 724.0 509.0 699.0Q498.0 674.0 471.0 693.5Q444.0 713.0 434.5 692.0Q425.0 671.0 417.5 652.5Q410.0 634.0 378.0 642.0Q346.0 650.0 353.5 620.5Q361.0 591.0 348.5 578.5Q336.0 566.0 310.5 558.0Q285.0 550.0 307.0 524.0Q329.0 498.0 309.0 484.5Q289.0 471.0 280.5 453.0Q272.0 435.0 299.0 419.5Q326.0 404.0 303.5 382.0Q281.0 360.0 294.0 344.5Q307.0 329.0 329.5 320.5Q352.0 312.0 337.0 281.5Q322.0 251.0 349.0 249.5Q376.0 248.0 390.5 239.0Q405.0 230.0 405.5 199.5Q406.0 169.0 435.0 184.5Q464.0 200.0 476.0 183.5Q488.0 167.0 502.5 149.0Q517.0 131.0 538.0 157.0Q559.0 183.0 576.5 160.5Q594.0 138.0 612.5 140.5Q631.0 143.0 642.0 168.5Q653.0 194.0 680.0 174.0Q707.0 154.0 716.5 175.5Q726.0 197.0 733.5 215.5Q741.0 234.0 773.5 226.0Q806.0 218.0 798.5 248.0Q791.0 278.0 803.5 290.5Q816.0 303.0 841.5 311.0Q867.0 319.0 845.0 345.0Q823.0 371.0 843.5 385.0Q864.0 399.0 872.0 417.0Q880.0 435.0 853.0 451.0Q826.0 467.0 848.5 489.0Q871.0 511.0 858.5 526.5Q846.0 542.0 823.0 550.5Q800.0 559.0 815.0 589.5Q830.0 620.0 803.0 621.5Q776.0 623.0 761.0 632.5Q746.0 642.0 745.5 672.5Q745.0 703.0 716.0 687.5Q687.0 672.0 675.0 688.5Q663.0 705.0 648.0 723.5Q633.0 742.0 612.0 715.5Q591.0 689.0 573.5 712.0Q556.0 735.0 537.5 732.5Q519.0 730.0 507.5 704.0Q496.0 678.0 469.0 698.0Q442.0 718.0 432.5 696.5Q423.0 675.0 415.0 656.5Q407.0 638.0 374.5 645.5Q342.0 653.0 349.5 623.0Q357.0 593.0 344.5 581.0Q332.0 569.0 306.0 560.5Q280.0 552.0 302.0 525.5Q324.0 499.0 304.0 485.5Q284.0 472.0 275.5 453.5Q267.0 435.0 294.5 419.0Q322.0 403.0 299.0 380.5Q276.0 358.0 289.0 342.5Q302.0 327.0 325.0 318.5Q348.0 310.0 332.5 279.0Q317.0 248.0 345.0 246.5Q373.0 245.0 387.5 235.5Q402.0 226.0 402.5 195.0Q403.0 164.0 432.5 180.0Q462.0 196.0 474.0 179.0Q486.0 162.0 501.0 144.0Q516.0 126.0 537.5 152.0Q559.0 178.0 576.5 155.5Q594.0 133.0 613.0 135.5Q632.0 138.0 643.5 164.0Q655.0 190.0 682.0 169.5Q709.0 149.0 719.0 171.0Q729.0 193.0 736.5 211.5Q744.0 230.0 777.0 222.5Q810.0 215.0 802.5 245.0Q795.0 275.0 807.5 287.5Q820.0 300.0 846.5 308.5Q873.0 317.0 850.5 343.5Q828.0 370.0 848.5 384.0Q869.0 398.0 877.5 416.5Q886.0 435.0 858.0 451.0Q830.0 467.0 853.5 489.5Q877.0 512.0 863.5 528.0Q850.0 544.0 827.0 552.5Q804.0 561.0 819.5 592.5Q835.0 624.0 807.0 625.5Q779.0 627.0 764.0 636.5Q749.0 646.0 748.5 677.0Q748.0 708.0 718.5 692.0Q689.0 676.0 676.5 693.0Q664.0 710.0 649.0 728.5Q634.0 747.0 612.5 720.5Q591.0 694.0 573.5 717.0Q556.0 740.0 537.0 737.5Q518.0 735.0 506.5 708.5Q495.0 682.0 467.0 702.5Q439.0 723.0 429.5 701.0Q420.0 679.0 412.0 660.0Q404.0 641.0 371.0 649.0Q338.0 657.0 345.5 626.5Q353.0 596.0 340.5 583.5Q328.0 571.0 301.5 562.5Q275.0 554.0 297.5 527.0Q320.0 500.0 299.0 486.0Q278.0 472.0 270.0 453.5Q262.0 435.0 289.5 418.5Q317.0 402.0 294.0 379.5Q271.0 357.0 284.0 341.0Q297.0 325.0 320.5 316.5Q344.0 308.0 328.5 276.5Q313.0 245.0 341.0 243.5Q369.0 242.0 384.0 232.5Q399.0 223.0 399.5 191.5Q400.0 160.0 430.0 176.0Q460.0 192.0 472.5 175.0Q485.0 158.0 500.0 139.0Q515.0 120.0 537.0 147.0Q559.0 174.0 576.5 150.5Q594.0 127.0 613.5 130.0Q633.0 133.0 644.5 159.5Q656.0 186.0 684.0 165.0Q712.0 144.0 721.5 166.5Q731.0 189.0 739.0 208.0Q747.0 227.0 780.5 219.0Q814.0 211.0 806.5 242.0Q799.0 273.0 811.5 285.5Q824.0 298.0 851.0 306.5Q878.0 315.0 855.0 342.0Q832.0 369.0 853.0 383.0Q874.0 397.0 882.5 416.0Q891.0 435.0 863.0 451.5Q835.0 468.0 858.5 491.0Q882.0 514.0 868.5 530.0Q855.0 546.0 831.5 554.5Q808.0 563.0 823.5 595.0Q839.0 627.0 811.0 628.5Q783.0 630.0 767.5 639.5Q752.0 649.0 751.5 681.0Q751.0 713.0 721.0 697.0Q691.0 681.0 678.5 698.0Q666.0 715.0 651.0 733.5Q636.0 752.0 614.0 725.0Q592.0 698.0 573.5 721.5Q555.0 745.0 536.0 742.5Q517.0 740.0 505.0 713.0Q493.0 686.0 465.0 707.0Q437.0 728.0 427.0 705.5Q417.0 683.0 409.0 664.0Q401.0 645.0 367.5 653.0Q334.0 661.0 341.5 630.0Q349.0 599.0 336.0 586.0Q323.0 573.0 296.5 564.5Q270.0 556.0 293.0 529.0Q316.0 502.0 294.5 487.5Q273.0 473.0 264.5 454.0Q256.0 435.0 284.5 418.5Q313.0 402.0 289.5 379.0Q266.0 356.0 279.5 339.5Q293.0 323.0 316.5 314.5Q340.0 306.0 324.5 273.5Q309.0 241.0 337.0 239.5Q365.0 238.0 380.5 228.5Q396.0 219.0 396.5 187.0Q397.0 155.0 427.5 171.0Q458.0 187.0 470.5 170.0Q483.0 153.0 498.5 134.0Q514.0 115.0 536.0 142.5Q558.0 170.0 576.5 146.0Q595.0 122.0 614.5 125.0Q634.0 128.0 645.5 155.0Q657.0 182.0 685.5 160.5Q714.0 139.0 724.0 161.5Q734.0 184.0 742.0 203.5Q750.0 223.0 784.0 215.0Q818.0 207.0 810.0 238.5Q802.0 270.0 815.5 283.0Q829.0 296.0 856.0 304.5Q883.0 313.0 859.5 340.5Q836.0 368.0 857.5 382.5Q879.0 397.0 887.5 416.0Q896.0 435.0 867.5 451.5Q839.0 468.0 863.0 491.5Q887.0 515.0 873.5 531.5Q860.0 548.0 836.0 556.5Q812.0 565.0 828.0 597.5Q844.0 630.0 815.0 631.5Q786.0 633.0 770.5 643.0Q755.0 653.0 754.5 685.0Q754.0 717.0 723.0 701.0Q692.0 685.0 679.5 702.5Q667.0 720.0 652.0 739.0Q637.0 758.0 614.5 730.5Q592.0 703.0 573.5 726.5Q555.0 750.0 535.5 747.5Q516.0 745.0 504.0 717.5Q492.0 690.0 463.5 711.5Q435.0 733.0 425.0 710.5Q415.0 688.0 406.5 668.5Q398.0 649.0 364.0 657.0Q330.0 665.0 338.0 633.5Q346.0 602.0 332.5 589.0Q319.0 576.0 292.0 567.0Q265.0 558.0 288.0 530.5Q311.0 503.0 289.5 488.5Q268.0 474.0 259.5 454.5Q251.0 435.0 280.0 418.0Q309.0 401.0 284.5 377.5Q260.0 354.0 274.0 337.5Q288.0 321.0 312.0 312.0Q336.0 303.0 320.0 270.5Q304.0 238.0 333.0 236.5Q362.0 235.0 377.5 225.0Q393.0 215.0 393.5 182.5Q394.0 150.0 425.5 166.5Q457.0 183.0 469.5 165.5Q482.0 148.0 497.5 129.0Q513.0 110.0 535.5 137.5Q558.0 165.0 576.5 141.0Q595.0 117.0 615.0 119.5Q635.0 122.0 647.0 149.5Q659.0 177.0 687.5 156.0Q716.0 135.0 726.5 157.5Q737.0 180.0 745.0 200.0Q753.0 220.0 787.5 211.5Q822.0 203.0 814.0 235.0Q806.0 267.0 819.5 280.0Q833.0 293.0 860.5 302.0Q888.0 311.0 864.5 339.0Q841.0 367.0 862.5 381.5Q884.0 396.0 893.0 415.5Q902.0 435.0 873.0 452.0Q844.0 469.0 868.0 492.5Q892.0 516.0 878.5 533.0Q865.0 550.0 840.5 559.0Q816.0 568.0 832.0 600.5Q848.0 633.0 819.0 635.0Q790.0 637.0 774.0 647.0Q758.0 657.0 757.5 689.5Q757.0 722.0 725.5 705.5Q694.0 689.0 681.5 706.5Q669.0 724.0 653.5 743.5Q638.0 763.0 615.0 735.0Q592.0 707.0 573.5 731.5Q555.0 756.0 535.0 753.0Q515.0 750.0 503.0 722.5Q491.0 695.0 461.5 716.5Q432.0 738.0 422.0 715.0Q412.0 692.0 403.5 672.0Q395.0 652.0 360.5 660.5Q326.0 669.0 334.0 636.5Q342.0 604.0 328.5 591.0Q315.0 578.0 287.0 569.0Q259.0 560.0 283.0 532.0Q307.0 504.0 285.0 489.0Q263.0 474.0 254.5 454.5Q246.0 435.0 275.0 418.0Q304.0 401.0 279.5 377.0Q255.0 353.0 269.0 336.0Q283.0 319.0 307.5 310.0Q332.0 301.0 316.0 268.0Q300.0 235.0 329.0 233.5Q358.0 232.0 374.0 222.0Q390.0 212.0 390.5 179.0Q391.0 146.0 423.0 162.5Q455.0 179.0 467.5 161.0Q480.0 143.0 496.0 123.5Q512.0 104.0 535.0 132.5Q558.0 161.0 576.5 136.5Q595.0 112.0 615.5 114.5Q636.0 117.0 648.0 145.0Q660.0 173.0 689.5 151.5Q719.0 130.0 729.0 153.0Q739.0 176.0 747.5 196.0Q756.0 216.0 791.0 207.5Q826.0 199.0 818.0 231.5Q810.0 264.0 823.5 277.5Q837.0 291.0 865.0 300.0Q893.0 309.0 869.0 337.5Q845.0 366.0 867.0 380.5Q889.0 395.0 898.0 415.0Q907.0 435.0 877.5 452.0Q848.0 469.0 872.5 493.5Q897.0 518.0 883.0 535.0Q869.0 552.0 844.5 561.0Q820.0 570.0 836.5 603.5Q853.0 637.0 823.0 638.5Q793.0 640.0 777.0 650.0Q761.0 660.0 760.5 693.5Q760.0 727.0 728.0 710.0Q696.0 693.0 683.5 711.0Q671.0 729.0 655.0 748.5Q639.0 768.0 615.5 740.0Q592.0 712.0 573.0 736.5Q554.0 761.0 534.0 758.0Q514.0 755.0 501.5 727.0Q489.0 699.0 459.5 721.0Q430.0 743.0 419.5 719.5Q409.0 696.0 400.5 676.0Q392.0 656.0 357.0 664.0Q322.0 672.0 330.0 639.5Q338.0 607.0 324.5 593.5Q311.0 580.0 282.5 571.0Q254.0 562.0 278.5 533.5Q303.0 505.0 280.5 490.0Q258.0 475.0 249.0 455.0Q240.0 435.0 270.0 417.5Q300.0 400.0 275.0 376.0Q250.0 352.0 264.0 335.0Q278.0 318.0 303.0 308.5Q328.0 299.0 311.5 265.5Q295.0 232.0 325.0 230.0Q355.0 228.0 371.0 218.0Q387.0 208.0 387.5 174.5Q388.0 141.0 420.5 158.0Q453.0 175.0 466.0 157.0Q479.0 139.0 495.0 119.0Q511.0 99.0 534.0 127.5Q557.0 156.0 576.5 131.0Q596.0 106.0 616.5 109.0Q637.0 112.0 649.0 140.5Q661.0 169.0 691.0 147.0Q721.0 125.0 731.5 148.5Q742.0 172.0 750.5 192.5Q759.0 213.0 794.5 204.5Q830.0 196.0 822.0 228.5Q814.0 261.0 827.5 275.0Q841.0 289.0 869.5 298.0Q898.0 307.0 874.0 335.5Q850.0 364.0 872.0 379.5Q894.0 395.0 903.0 415.0Q912.0 435.0 882.0 452.5Q852.0 470.0 877.5 494.5Q903.0 519.0 888.5 536.0Q874.0 553.0 849.0 562.5Q824.0 572.0 840.5 606.0Q857.0 640.0 827.0 641.5Q797.0 643.0 780.5 653.5Q764.0 664.0 763.5 697.5Q763.0 731.0 730.5 714.0Q698.0 697.0 685.0 715.5Q672.0 734.0 656.0 754.0Q640.0 774.0 616.5 745.0Q593.0 716.0 573.5 741.0Q554.0 766.0 533.5 763.0Q513.0 760.0 500.5 731.5Q488.0 703.0 458.0 725.5Q428.0 748.0 417.5 724.0Q407.0 700.0 398.5 679.5Q390.0 659.0 354.0 667.5Q318.0 676.0 326.0 643.0Q334.0 610.0 320.5 596.5Q307.0 583.0 278.0 573.5Q249.0 564.0 273.5 535.0Q298.0 506.0 275.5 491.0Q253.0 476.0 244.0 455.5Q235.0 435.0 265.0 417.5Q295.0 400.0 270.0 375.0Q245.0 350.0 259.5 333.0Q274.0 316.0 299.0 306.5Q324.0 297.0 307.5 262.5Q291.0 228.0 321.0 226.5Q351.0 225.0 367.5 214.5Q384.0 204.0 384.5 170.0Q385.0 136.0 418.0 153.5Q451.0 171.0 464.0 152.5Q477.0 134.0 493.5 114.0Q510.0 94.0 533.5 123.0Q557.0 152.0 576.5 126.5Q596.0 101.0 617.0 104.0Q638.0 107.0 650.5 136.0Q663.0 165.0 693.0 142.5Q723.0 120.0 734.0 144.0Q745.0 168.0 753.5 188.5Q762.0 209.0 798.0 200.5Q834.0 192.0 826.0 225.5Q818.0 259.0 832.0 272.5Q846.0 286.0 874.5 295.5Q903.0 305.0 878.5 334.0Q854.0 363.0 876.5 378.5Q899.0 394.0 908.5 414.5Q918.0 435.0 887.5 453.0Q857.0 471.0 882.5 495.5Q908.0 520.0 893.5 537.5Q879.0 555.0 853.5 564.5Q828.0 574.0 845.0 608.5Q862.0 643.0 831.0 645.0Q800.0 647.0 783.5 657.0Q767.0 667.0 766.5 701.5Q766.0 736.0 733.0 718.5Q700.0 701.0 687.0 719.5Q674.0 738.0 657.5 758.5Q641.0 779.0 617.0 749.5Q593.0 720.0 573.5 745.5Q554.0 771.0 533.0 768.5Q512.0 766.0 499.0 736.5Q486.0 707.0 455.5 730.0Q425.0 753.0 414.5 728.5Q404.0 704.0 395.5 683.5Q387.0 663.0 350.5 671.5Q314.0 680.0 322.0 646.5Q330.0 613.0 316.0 599.0Q302.0 585.0 273.0 575.5Q244.0 566.0 269.0 536.5Q294.0 507.0 271.0 491.5Q248.0 476.0 239.0 455.5Q230.0 435.0 260.5 417.0Q291.0 399.0 265.5 374.0Q240.0 349.0 254.5 331.5Q269.0 314.0 294.5 304.5Q320.0 295.0 303.0 260.0Q286.0 225.0 317.0 223.5Q348.0 222.0 364.5 211.5Q381.0 201.0 381.5 166.0Q382.0 131.0 415.5 149.0Q449.0 167.0 462.5 148.0Q476.0 129.0 492.5 108.5Q509.0 88.0 533.0 117.5Q557.0 147.0 576.5 121.5Q596.0 96.0 617.5 99.0Q639.0 102.0 651.5 131.0Q664.0 160.0 695.0 137.5Q726.0 115.0 736.5 139.0Q747.0 163.0 756.0 184.5Q765.0 206.0 801.5 197.0Q838.0 188.0 829.5 222.0Q821.0 256.0 835.5 270.0Q850.0 284.0 879.0 293.5Q908.0 303.0 883.0 332.5Q858.0 362.0 881.0 377.5Q904.0 393.0 913.5 414.0Q923.0 435.0 892.0 453.0Q861.0 471.0 887.0 496.5Q913.0 522.0 898.5 539.5Q884.0 557.0 858.0 566.5Q832.0 576.0 849.0 611.0Q866.0 646.0 835.0 648.0Q804.0 650.0 787.0 660.5Q770.0 671.0 769.5 706.0Q769.0 741.0 735.5 723.0Q702.0 705.0 688.5 724.0Q675.0 743.0 658.5 763.5Q642.0 784.0 617.5 754.5Q593.0 725.0 573.5 751.0Q554.0 777.0 532.5 774.0Q511.0 771.0 498.0 741.5Q485.0 712.0 454.0 735.0Q423.0 758.0 412.0 733.5Q401.0 709.0 392.5 687.5Q384.0 666.0 347.0 675.0Q310.0 684.0 318.5 649.5Q327.0 615.0 312.5 601.0Q298.0 587.0 268.5 577.5Q239.0 568.0 264.5 538.0Q290.0 508.0 266.5 492.5Q243.0 477.0 233.5 456.0Q224.0 435.0 255.5 417.0Q287.0 399.0 260.5 373.5Q234.0 348.0 249.0 330.0Q264.0 312.0 290.0 302.5Q316.0 293.0 299.0 257.5Q282.0 222.0 313.0 220.0Q344.0 218.0 361.0 207.5Q378.0 197.0 378.5 162.0Q379.0 127.0 413.0 145.0Q447.0 163.0 460.5 143.5Q474.0 124.0 491.0 103.5Q508.0 83.0 532.5 113.0Q557.0 143.0 577.0 117.0Q597.0 91.0 618.5 94.0Q640.0 97.0 653.0 126.5Q666.0 156.0 697.0 133.0Q728.0 110.0 739.0 134.5Q750.0 159.0 759.0 180.5Q768.0 202.0 805.0 193.0Q842.0 184.0 833.5 218.5Q825.0 253.0 839.5 267.5Q854.0 282.0 884.0 291.5Q914.0 301.0 888.5 331.0Q863.0 361.0 886.5 377.0Q910.0 393.0 919.0 414.0Q928.0 435.0 897.0 453.5Q866.0 472.0 892.0 497.5Q918.0 523.0 903.0 541.0Q888.0 559.0 862.0 569.0Q836.0 579.0 853.5 614.5Q871.0 650.0 839.0 651.5Q807.0 653.0 790.0 664.0Q773.0 675.0 772.5 710.5Q772.0 746.0 738.0 728.0Q704.0 710.0 690.5 729.0Q677.0 748.0 660.0 769.0Q643.0 790.0 618.5 759.5Q594.0 729.0 573.5 755.5Q553.0 782.0 531.5 779.0Q510.0 776.0 497.0 746.0Q484.0 716.0 452.5 739.5Q421.0 763.0 410.0 738.0Q399.0 713.0 390.0 691.5Q381.0 670.0 343.5 679.0Q306.0 688.0 314.5 653.0Q323.0 618.0 308.5 604.0Q294.0 590.0 264.0 580.0Q234.0 570.0 259.5 539.5Q285.0 509.0 261.5 493.5Q238.0 478.0 228.5 456.5Q219.0 435.0 250.5 416.5Q282.0 398.0 255.5 372.0Q229.0 346.0 244.0 328.0Q259.0 310.0 285.5 300.0Q312.0 290.0 294.5 254.5Q277.0 219.0 309.0 217.0Q341.0 215.0 358.0 204.5Q375.0 194.0 375.5 158.0Q376.0 122.0 410.5 140.0Q445.0 158.0 459.0 139.0Q473.0 120.0 490.0 99.0Q507.0 78.0 531.5 108.0Q556.0 138.0 576.5 112.0Q597.0 86.0 619.0 89.0Q641.0 92.0 654.0 122.0Q667.0 152.0 698.5 128.5Q730.0 105.0 741.5 130.0Q753.0 155.0 762.0 176.5Q771.0 198.0 808.5 189.0Q846.0 180.0 837.5 215.0Q829.0 250.0 843.5 264.5Q858.0 279.0 888.5 289.0Q919.0 299.0 893.0 329.5Q867.0 360.0 891.0 376.0Q915.0 392.0 924.5 413.5Q934.0 435.0 902.0 453.5Q870.0 472.0 896.5 498.0Q923.0 524.0 908.0 542.5Q893.0 561.0 866.5 571.0Q840.0 581.0 857.5 617.0Q875.0 653.0 843.0 654.5Q811.0 656.0 793.5 667.0Q776.0 678.0 775.5 714.0Q775.0 750.0 740.5 732.0Q706.0 714.0 692.0 733.5Q678.0 753.0 661.0 774.0Q644.0 795.0 619.0 764.5Q594.0 734.0 573.5 760.5Q553.0 787.0 531.0 784.0Q509.0 781.0 495.5 750.5Q482.0 720.0 450.5 744.0Q419.0 768.0 407.5 742.5Q396.0 717.0 387.0 695.0Q378.0 673.0 340.0 682.0Q302.0 691.0 310.5 656.0Q319.0 621.0 304.5 606.5Q290.0 592.0 259.5 582.0Q229.0 572.0 255.0 541.5Q281.0 511.0 257.0 494.5Q233.0 478.0 223.0 456.5Q213.0 435.0 245.5 416.0Q278.0 397.0 251.0 371.0Q224.0 345.0 239.5 326.5Q255.0 308.0 281.5 298.0Q308.0 288.0 290.5 251.5Q273.0 215.0 305.0 213.5Q337.0 212.0 354.5 201.0Q372.0 190.0 372.5 153.5Q373.0 117.0 408.0 135.5Q443.0 154.0 457.0 134.5Q471.0 115.0 488.5 93.5Q506.0 72.0 531.0 103.0Q556.0 134.0 576.5 107.0Q597.0 80.0 619.0 83.0Q641.0 86.0 654.5 117.0Q668.0 148.0 700.5 124.0Q733.0 100.0 744.0 125.5Q755.0 151.0 764.5 173.0Q774.0 195.0 812.0 186.0Q850.0 177.0 841.5 212.5Q833.0 248.0 848.0 262.5Q863.0 277.0 893.5 287.0Q924.0 297.0 897.5 328.0Q871.0 359.0 895.5 375.0Q920.0 391.0 929.5 413.0Q939.0 435.0 906.5 454.0Q874.0 473.0 901.0 499.5Q928.0 526.0 913.0 544.5Q898.0 563.0 871.0 573.0Q844.0 583.0 862.0 619.5Q880.0 656.0 847.0 658.0Q814.0 660.0 796.5 671.0Q779.0 682.0 778.5 718.5Q778.0 755.0 743.0 736.5Q708.0 718.0 694.0 737.5Q680.0 757.0 662.5 778.5Q645.0 800.0 619.5 769.0Q594.0 738.0 573.5 765.0Q553.0 792.0 530.5 789.0Q508.0 786.0 494.5 755.0Q481.0 724.0 448.5 748.5Q416.0 773.0 404.5 747.0Q393.0 721.0 384.0 699.0Q375.0 677.0 336.5 686.0Q298.0 695.0 306.5 659.5Q315.0 624.0 300.0 609.0Q285.0 594.0 254.5 584.0Q224.0 574.0 250.0 543.0Q276.0 512.0 252.0 495.5Q228.0 479.0 218.0 457.0Q208.0 435.0 240.5 416.0Q273.0 397.0 246.0 370.5Q219.0 344.0 234.5 325.0Q250.0 306.0 277.0 296.0Q304.0 286.0 286.0 249.0Q268.0 212.0 301.0 210.5Q334.0 209.0 351.5 197.5Q369.0 186.0 369.5 149.5Q370.0 113.0 405.5 131.5Q441.0 150.0 455.0 130.0Q469.0 110.0 487.0 88.5Q505.0 67.0 530.5 98.5Q556.0 130.0 577.0 102.5Q598.0 75.0 620.0 78.0Q642.0 81.0 656.0 112.5Q670.0 144.0 702.5 119.5Q735.0 95.0 746.5 121.0Q758.0 147.0 767.5 169.0Q777.0 191.0 815.5 182.0Q854.0 173.0 845.5 209.0Q837.0 245.0 852.0 260.0Q867.0 275.0 898.0 285.0Q929.0 295.0 902.5 326.5Q876.0 358.0 900.5 374.5Q925.0 391.0 935.0 413.0Q945.0 435.0 912.0 454.0Q879.0 473.0 906.5 500.0Q934.0 527.0 918.5 546.0Q903.0 565.0 875.5 575.0Q848.0 585.0 866.0 622.0Q884.0 659.0 851.0 661.0Q818.0 663.0 800.0 674.0Q782.0 685.0 781.5 722.5Q781.0 760.0 745.5 741.0Q710.0 722.0 695.5 742.0Q681.0 762.0 663.5 784.0Q646.0 806.0 620.0 774.5Q594.0 743.0 573.0 770.5Q552.0 798.0 529.5 794.5Q507.0 791.0 493.5 760.0Q480.0 729.0 447.0 753.0Q414.0 777.0 402.5 751.0Q391.0 725.0 381.5 702.5Q372.0 680.0 333.0 689.5Q294.0 699.0 303.0 662.5Q312.0 626.0 296.5 611.5Q281.0 597.0 249.5 586.5Q218.0 576.0 245.0 544.5Q272.0 513.0 247.5 496.5Q223.0 480.0 213.0 457.5Q203.0 435.0 236.0 415.5Q269.0 396.0 241.5 369.0Q214.0 342.0 229.5 323.0Q245.0 304.0 272.5 294.0Q300.0 284.0 282.0 246.5Q264.0 209.0 297.0 207.0Q330.0 205.0 348.0 194.0Q366.0 183.0 366.5 145.5Q367.0 108.0 403.0 127.0Q439.0 146.0 453.5 126.0Q468.0 106.0 486.0 84.0Q504.0 62.0 530.0 93.5Q556.0 125.0 577.0 97.5Q598.0 70.0 620.5 73.0Q643.0 76.0 657.0 107.5Q671.0 139.0 704.0 114.5Q737.0 90.0 749.0 116.5Q761.0 143.0 770.0 165.5Q779.0 188.0 818.5 178.5Q858.0 169.0 849.0 205.5Q840.0 242.0 855.5 257.0Q871.0 272.0 902.5 282.5Q934.0 293.0 907.0 325.0Q880.0 357.0 905.0 373.5Q930.0 390.0 940.0 412.5Q950.0 435.0 916.5 454.5Q883.0 474.0 911.0 501.0Q939.0 528.0 923.0 547.5Q907.0 567.0 879.5 577.0Q852.0 587.0 870.0 625.0Q888.0 663.0 854.5 664.5Q821.0 666.0 803.0 677.5Q785.0 689.0 784.5 726.5Q784.0 764.0 748.0 745.0Q712.0 726.0 697.5 746.5Q683.0 767.0 665.0 789.0Q647.0 811.0 621.0 779.0Q595.0 747.0 573.5 775.0Q552.0 803.0 529.0 799.5Q506.0 796.0 492.0 764.5Q478.0 733.0 445.0 757.5Q412.0 782.0 400.0 756.0Q388.0 730.0 378.5 707.0Q369.0 684.0 329.5 693.5Q290.0 703.0 299.0 666.0Q308.0 629.0 292.5 614.0Q277.0 599.0 245.0 588.5Q213.0 578.0 240.5 546.0Q268.0 514.0 243.0 497.0Q218.0 480.0 207.5 457.5Q197.0 435.0 231.0 415.5Q265.0 396.0 237.0 368.5Q209.0 341.0 224.5 322.0Q240.0 303.0 268.0 292.5Q296.0 282.0 277.5 244.0Q259.0 206.0 293.0 204.0Q327.0 202.0 345.0 190.5Q363.0 179.0 364.0 141.0Q365.0 103.0 401.0 122.5Q437.0 142.0 451.5 121.5Q466.0 101.0 484.5 78.5Q503.0 56.0 529.0 88.5Q555.0 121.0 576.5 93.0Q598.0 65.0 621.0 68.0Q644.0 71.0 658.0 103.0Q672.0 135.0 706.0 110.0Q740.0 85.0 751.5 111.5Q763.0 138.0 772.5 161.0Q782.0 184.0 822.0 174.5Q862.0 165.0 853.0 202.0Q844.0 239.0 859.5 254.5Q875.0 270.0 907.0 280.5Q939.0 291.0 911.5 323.5Q884.0 356.0 909.5 373.0Q935.0 390.0 945.0 412.5Q955.0 435.0 921.5 454.5Q888.0 474.0 916.0 502.0Q944.0 530.0 928.0 549.0Q912.0 568.0 884.0 578.5Q856.0 589.0 874.5 627.5Q893.0 666.0 859.0 668.0Q825.0 670.0 806.5 681.5Q788.0 693.0 787.5 731.0Q787.0 769.0 750.5 749.5Q714.0 730.0 699.0 751.0Q684.0 772.0 666.0 794.5Q648.0 817.0 621.5 784.5Q595.0 752.0 573.5 780.0Q552.0 808.0 528.5 805.0Q505.0 802.0 491.0 769.5Q477.0 737.0 443.0 762.0Q409.0 787.0 397.0 760.5Q385.0 734.0 375.5 710.5Q366.0 687.0 326.0 697.0Q286.0 707.0 295.0 669.5Q304.0 632.0 288.5 616.5Q273.0 601.0 240.5 590.5Q208.0 580.0 235.5 547.5Q263.0 515.0 238.0 498.0Q213.0 481.0 202.5 458.0Q192.0 435.0 226.0 415.0Q260.0 395.0 231.5 367.5Q203.0 340.0 219.5 320.5Q236.0 301.0 264.0 290.5Q292.0 280.0 273.5 241.0Q255.0 202.0 289.0 200.5Q323.0 199.0 341.5 187.0Q360.0 175.0 361.0 137.0Q362.0 99.0 398.5 118.5Q435.0 138.0 450.0 117.0Q465.0 96.0 483.5 73.5Q502.0 51.0 528.5 83.5Q555.0 116.0 577.0 87.5Q599.0 59.0 622.0 62.5Q645.0 66.0 659.5 98.5Q674.0 131.0 708.0 105.5Q742.0 80.0 754.0 107.0Q766.0 134.0 775.5 157.5Q785.0 181.0 825.5 171.0Q866.0 161.0 857.0 199.0Q848.0 237.0 863.5 252.5Q879.0 268.0 911.5 278.5Q944.0 289.0 916.5 321.5Q889.0 354.0 914.5 371.5Q940.0 389.0 950.5 412.0Q961.0 435.0 926.5 455.0Q892.0 475.0 920.5 503.0Q949.0 531.0 933.0 550.5Q917.0 570.0 888.5 581.0Q860.0 592.0 878.5 630.5Q897.0 669.0 862.5 671.0Q828.0 673.0 809.5 684.5Q791.0 696.0 790.5 735.0Q790.0 774.0 753.0 754.0Q716.0 734.0 701.0 755.0"/>
  </g>
</svg>
