<svg version="1.1" width="1150" height="870" xmlns="http://www.w3.org/2000/svg">
  <!-- Seed: 5996094548269664410 -->
  <!-- Size: SvgSize.Size9x12 -->
  <!-- Params:
    draw: True
    padding: 0
    spacing: 5
    points_per_step_ring: 50
    bump_range: [RangeFloat] min: 0 max: 0.1
    bump_mult: [RangeInt] min: 2 max: 20
  -->
  <g stroke="black" fill="none">
    <path d="M575.5 435.5Q576.0 436.0 575.5 436.0Q575.0 436.0 574.5 436.0Q574.0 436.0 573.5 436.0Q573.0 436.0 572.5 436.0Q572.0 436.0 571.5 435.5Q571.0 435.0 571.0 434.5Q571.0 434.0 571.5 434.0Q572.0 434.0 572.5 434.0Q573.0 434.0 573.5 434.0Q574.0 434.0 574.0 433.5Q574.0 433.0 574.5 433.0Q575.0 433.0 575.0 432.5Q575.0 432.0 575.0 431.5Q575.0 431.0 575.5 430.5Q576.0 430.0 576.5 429.5Q577.0 429.0 577.5 429.0Q578.0 429.0 578.5 429.0Q579.0 429.0 579.0 429.5Q579.0 430.0 579.5 430.5Q580.0 431.0 579.5 431.5Q579.0 432.0 579.0 432.5Q579.0 433.0 578.5 433.5Q578.0 434.0 577.5 434.0Q577.0 434.0 577.0 434.5Q577.0 435.0 577.5 435.5Q578.0 436.0 578.5 436.0Q579.0 436.0 579.5 437.0Q580.0 438.0 580.0 438.5Q580.0 439.0 580.5 439.5Q581.0 440.0 581.0 441.0Q581.0 442.0 580.5 442.5Q580.0 443.0 579.5 443.5Q579.0 444.0 578.5 444.0Q578.0 444.0 577.5 443.5Q577.0 443.0 576.0 442.5Q575.0 442.0 575.0 441.0Q575.0 440.0 574.5 439.5Q574.0 439.0 574.0 438.5Q574.0 438.0 574.0 437.5Q574.0 437.0 573.5 437.0Q573.0 437.0 572.5 437.5Q572.0 438.0 571.0 438.0Q570.0 438.0 569.0 438.5Q568.0 439.0 567.0 438.5Q566.0 438.0 565.5 438.0Q565.0 438.0 564.0 437.0Q563.0 436.0 563.0 435.5Q563.0 435.0 563.0 434.0Q563.0 433.0 563.5 432.5Q564.0 432.0 565.0 431.5Q566.0 431.0 567.0 431.0Q568.0 431.0 569.0 431.0Q570.0 431.0 571.0 431.5Q572.0 432.0 572.5 432.0Q573.0 432.0 573.0 432.5Q573.0 433.0 573.5 432.5Q574.0 432.0 574.0 431.5Q574.0 431.0 574.0 430.0Q574.0 429.0 574.5 428.0Q575.0 427.0 575.5 426.0Q576.0 425.0 576.5 424.0Q577.0 423.0 578.0 422.5Q579.0 422.0 580.0 422.0Q581.0 422.0 582.0 422.0Q583.0 422.0 583.5 423.0Q584.0 424.0 584.5 425.0Q585.0 426.0 584.5 427.0Q584.0 428.0 583.5 429.5Q583.0 431.0 582.0 431.5Q581.0 432.0 580.5 433.0Q580.0 434.0 579.5 434.5Q579.0 435.0 578.5 435.0Q578.0 435.0 579.0 435.5Q580.0 436.0 581.0 437.0Q582.0 438.0 583.0 439.0Q584.0 440.0 584.5 441.0Q585.0 442.0 585.5 443.5Q586.0 445.0 586.0 446.5Q586.0 448.0 585.5 449.0Q585.0 450.0 584.0 450.5Q583.0 451.0 581.5 451.0Q580.0 451.0 579.0 450.5Q578.0 450.0 577.0 448.5Q576.0 447.0 575.0 446.0Q574.0 445.0 574.0 443.5Q574.0 442.0 573.5 441.0Q573.0 440.0 573.0 439.5Q573.0 439.0 573.0 438.5Q573.0 438.0 572.5 438.5Q572.0 439.0 571.0 439.5Q570.0 440.0 568.5 440.5Q567.0 441.0 565.5 441.0Q564.0 441.0 562.0 441.0Q560.0 441.0 558.5 440.5Q557.0 440.0 556.0 439.0Q555.0 438.0 554.5 436.5Q554.0 435.0 554.5 433.5Q555.0 432.0 556.0 431.0Q557.0 430.0 558.5 429.5Q560.0 429.0 561.5 429.0Q563.0 429.0 565.0 429.0Q567.0 429.0 568.5 429.5Q570.0 430.0 570.5 430.5Q571.0 431.0 572.0 431.0Q573.0 431.0 573.0 430.0Q573.0 429.0 573.0 427.5Q573.0 426.0 573.5 424.5Q574.0 423.0 575.0 421.0Q576.0 419.0 577.5 417.5Q579.0 416.0 580.5 415.5Q582.0 415.0 583.5 414.5Q585.0 414.0 586.5 414.5Q588.0 415.0 588.5 416.5Q589.0 418.0 589.5 419.5Q590.0 421.0 589.5 423.0Q589.0 425.0 588.0 426.5Q587.0 428.0 586.0 429.5Q585.0 431.0 583.5 432.0Q582.0 433.0 581.5 433.5Q581.0 434.0 580.5 434.5Q580.0 435.0 580.5 435.5Q581.0 436.0 582.0 436.5Q583.0 437.0 584.0 438.0Q585.0 439.0 586.5 440.5Q588.0 442.0 589.0 444.0Q590.0 446.0 590.5 448.0Q591.0 450.0 591.0 452.0Q591.0 454.0 590.0 455.5Q589.0 457.0 587.5 458.0Q586.0 459.0 584.5 458.5Q583.0 458.0 581.0 457.0Q579.0 456.0 577.5 454.5Q576.0 453.0 575.0 451.0Q574.0 449.0 573.5 447.0Q573.0 445.0 573.0 443.5Q573.0 442.0 572.5 441.0Q572.0 440.0 571.0 440.5Q570.0 441.0 569.0 441.5Q568.0 442.0 566.0 442.5Q564.0 443.0 561.5 443.5Q559.0 444.0 556.5 443.5Q554.0 443.0 552.0 442.0Q550.0 441.0 548.5 440.0Q547.0 439.0 546.5 437.0Q546.0 435.0 546.5 433.0Q547.0 431.0 548.5 430.0Q550.0 429.0 552.0 428.0Q554.0 427.0 556.5 426.5Q559.0 426.0 561.0 426.5Q563.0 427.0 565.0 427.5Q567.0 428.0 568.5 428.5Q570.0 429.0 571.0 429.5Q572.0 430.0 572.0 429.5Q572.0 429.0 572.0 428.0Q572.0 427.0 572.5 425.0Q573.0 423.0 573.5 421.0Q574.0 419.0 575.0 416.5Q576.0 414.0 578.0 412.0Q580.0 410.0 582.0 408.5Q584.0 407.0 586.0 407.0Q588.0 407.0 590.0 407.5Q592.0 408.0 593.0 410.0Q594.0 412.0 594.5 414.0Q595.0 416.0 594.5 418.5Q594.0 421.0 592.5 423.5Q591.0 426.0 589.5 428.0Q588.0 430.0 586.5 431.0Q585.0 432.0 584.0 433.0Q583.0 434.0 582.5 434.5Q582.0 435.0 582.5 435.5Q583.0 436.0 584.0 437.0Q585.0 438.0 587.0 439.0Q589.0 440.0 590.5 442.0Q592.0 444.0 593.5 447.0Q595.0 450.0 595.5 452.5Q596.0 455.0 596.0 457.5Q596.0 460.0 594.5 462.0Q593.0 464.0 591.5 465.0Q590.0 466.0 587.5 466.0Q585.0 466.0 582.5 464.5Q580.0 463.0 578.0 461.0Q576.0 459.0 575.0 456.5Q574.0 454.0 573.0 451.5Q572.0 449.0 572.0 446.5Q572.0 444.0 572.0 443.0Q572.0 442.0 571.5 441.5Q571.0 441.0 570.0 441.5Q569.0 442.0 567.5 443.0Q566.0 444.0 563.5 444.5Q561.0 445.0 558.0 445.5Q555.0 446.0 551.5 446.0Q548.0 446.0 545.5 444.5Q543.0 443.0 541.0 441.5Q539.0 440.0 538.5 437.5Q538.0 435.0 538.5 432.5Q539.0 430.0 541.0 428.5Q543.0 427.0 545.5 425.5Q548.0 424.0 551.0 424.0Q554.0 424.0 557.0 424.0Q560.0 424.0 562.5 425.0Q565.0 426.0 567.0 426.5Q569.0 427.0 570.0 427.5Q571.0 428.0 571.0 427.5Q571.0 427.0 571.5 425.5Q572.0 424.0 572.0 422.0Q572.0 420.0 573.0 417.0Q574.0 414.0 575.5 411.0Q577.0 408.0 579.0 405.5Q581.0 403.0 583.5 401.5Q586.0 400.0 589.0 399.5Q592.0 399.0 594.0 400.0Q596.0 401.0 597.5 403.5Q599.0 406.0 599.5 408.5Q600.0 411.0 599.5 414.5Q599.0 418.0 597.5 421.0Q596.0 424.0 593.5 426.5Q591.0 429.0 589.0 430.5Q587.0 432.0 586.0 433.0Q585.0 434.0 584.5 434.5Q584.0 435.0 584.5 435.5Q585.0 436.0 586.5 437.0Q588.0 438.0 590.0 440.0Q592.0 442.0 594.0 444.5Q596.0 447.0 598.0 450.0Q600.0 453.0 601.0 456.5Q602.0 460.0 601.5 463.0Q601.0 466.0 599.5 468.5Q598.0 471.0 595.5 472.0Q593.0 473.0 590.0 473.0Q587.0 473.0 584.5 471.5Q582.0 470.0 579.5 467.0Q577.0 464.0 575.5 461.0Q574.0 458.0 573.0 455.0Q572.0 452.0 571.5 449.5Q571.0 447.0 571.0 445.5Q571.0 444.0 570.5 443.5Q570.0 443.0 569.0 443.5Q568.0 444.0 566.0 445.0Q564.0 446.0 560.5 447.0Q557.0 448.0 553.5 448.5Q550.0 449.0 546.0 448.5Q542.0 448.0 539.0 446.5Q536.0 445.0 533.5 443.0Q531.0 441.0 530.0 438.0Q529.0 435.0 530.0 432.0Q531.0 429.0 533.0 427.0Q535.0 425.0 538.5 423.5Q542.0 422.0 546.0 421.5Q550.0 421.0 553.5 421.5Q557.0 422.0 560.0 423.0Q563.0 424.0 565.0 425.0Q567.0 426.0 568.5 426.5Q570.0 427.0 570.5 426.5Q571.0 426.0 571.0 424.0Q571.0 422.0 571.5 419.5Q572.0 417.0 572.5 413.5Q573.0 410.0 575.0 406.5Q577.0 403.0 579.5 399.5Q582.0 396.0 585.5 394.5Q589.0 393.0 592.0 392.5Q595.0 392.0 598.0 393.0Q601.0 394.0 602.5 396.5Q604.0 399.0 604.5 403.0Q605.0 407.0 604.5 410.5Q604.0 414.0 602.0 417.5Q600.0 421.0 597.5 424.0Q595.0 427.0 592.5 429.0Q590.0 431.0 588.0 432.5Q586.0 434.0 585.5 434.5Q585.0 435.0 586.0 435.5Q587.0 436.0 588.5 437.5Q590.0 439.0 592.5 441.0Q595.0 443.0 598.0 446.0Q601.0 449.0 603.0 453.0Q605.0 457.0 606.0 461.0Q607.0 465.0 606.5 468.5Q606.0 472.0 604.0 475.0Q602.0 478.0 599.5 479.5Q597.0 481.0 593.5 480.5Q590.0 480.0 586.5 478.0Q583.0 476.0 580.0 473.0Q577.0 470.0 575.0 466.0Q573.0 462.0 572.0 458.5Q571.0 455.0 570.5 452.0Q570.0 449.0 570.0 447.0Q570.0 445.0 569.5 444.5Q569.0 444.0 567.5 444.5Q566.0 445.0 563.5 446.5Q561.0 448.0 557.5 449.0Q554.0 450.0 550.0 450.5Q546.0 451.0 541.5 450.5Q537.0 450.0 533.0 448.5Q529.0 447.0 526.0 444.5Q523.0 442.0 522.0 438.5Q521.0 435.0 522.0 431.5Q523.0 428.0 525.5 425.5Q528.0 423.0 532.0 421.5Q536.0 420.0 540.5 419.5Q545.0 419.0 549.5 419.5Q554.0 420.0 557.5 421.0Q561.0 422.0 563.5 423.0Q566.0 424.0 567.5 424.5Q569.0 425.0 569.5 424.5Q570.0 424.0 570.0 422.0Q570.0 420.0 570.5 416.5Q571.0 413.0 572.0 409.0Q573.0 405.0 575.0 401.0Q577.0 397.0 580.5 393.5Q584.0 390.0 587.5 387.5Q591.0 385.0 595.0 384.5Q599.0 384.0 602.0 385.5Q605.0 387.0 607.0 390.0Q609.0 393.0 609.5 397.5Q610.0 402.0 609.0 406.5Q608.0 411.0 606.0 415.0Q604.0 419.0 601.0 422.5Q598.0 426.0 595.0 428.5Q592.0 431.0 590.0 432.0Q588.0 433.0 587.5 434.0Q587.0 435.0 588.0 436.0Q589.0 437.0 591.0 438.5Q593.0 440.0 596.0 442.0Q599.0 444.0 602.0 447.5Q605.0 451.0 607.5 455.5Q610.0 460.0 611.0 465.0Q612.0 470.0 611.5 474.0Q611.0 478.0 609.0 481.5Q607.0 485.0 603.5 486.5Q600.0 488.0 596.0 487.5Q592.0 487.0 588.0 485.0Q584.0 483.0 581.0 479.0Q578.0 475.0 575.5 471.0Q573.0 467.0 572.0 462.5Q571.0 458.0 570.5 454.5Q570.0 451.0 569.5 449.0Q569.0 447.0 568.5 446.5Q568.0 446.0 566.5 446.5Q565.0 447.0 562.0 448.5Q559.0 450.0 555.0 451.0Q551.0 452.0 546.0 453.0Q541.0 454.0 536.0 453.5Q531.0 453.0 526.0 451.0Q521.0 449.0 518.0 446.0Q515.0 443.0 514.0 439.0Q513.0 435.0 514.0 431.0Q515.0 427.0 518.0 424.0Q521.0 421.0 525.5 419.0Q530.0 417.0 535.5 416.5Q541.0 416.0 546.0 416.5Q551.0 417.0 555.0 418.5Q559.0 420.0 562.0 421.5Q565.0 423.0 566.5 423.5Q568.0 424.0 568.5 423.0Q569.0 422.0 569.0 420.0Q569.0 418.0 569.5 414.0Q570.0 410.0 571.5 405.5Q573.0 401.0 575.5 396.0Q578.0 391.0 581.5 387.0Q585.0 383.0 589.5 380.5Q594.0 378.0 598.0 377.5Q602.0 377.0 606.0 378.5Q610.0 380.0 612.0 383.5Q614.0 387.0 615.0 392.0Q616.0 397.0 614.5 402.0Q613.0 407.0 610.5 412.0Q608.0 417.0 604.5 421.0Q601.0 425.0 598.0 427.5Q595.0 430.0 592.5 431.5Q590.0 433.0 589.5 434.0Q589.0 435.0 590.0 436.0Q591.0 437.0 593.0 438.5Q595.0 440.0 598.5 443.0Q602.0 446.0 605.5 450.0Q609.0 454.0 612.0 459.0Q615.0 464.0 616.0 469.5Q617.0 475.0 616.5 480.0Q616.0 485.0 613.5 488.5Q611.0 492.0 607.0 494.0Q603.0 496.0 598.5 495.5Q594.0 495.0 589.5 492.0Q585.0 489.0 581.5 485.0Q578.0 481.0 575.5 476.0Q573.0 471.0 571.5 466.0Q570.0 461.0 569.5 457.0Q569.0 453.0 569.0 451.0Q569.0 449.0 568.0 448.0Q567.0 447.0 565.5 448.0Q564.0 449.0 560.5 450.5Q557.0 452.0 552.5 453.5Q548.0 455.0 542.0 455.5Q536.0 456.0 530.5 455.5Q525.0 455.0 519.5 453.0Q514.0 451.0 510.5 447.5Q507.0 444.0 506.0 439.5Q505.0 435.0 506.0 430.5Q507.0 426.0 510.5 422.5Q514.0 419.0 519.0 417.0Q524.0 415.0 530.0 414.5Q536.0 414.0 541.5 414.5Q547.0 415.0 552.0 416.5Q557.0 418.0 560.0 419.5Q563.0 421.0 565.0 421.5Q567.0 422.0 567.5 421.5Q568.0 421.0 568.5 418.5Q569.0 416.0 569.5 411.5Q570.0 407.0 571.5 402.0Q573.0 397.0 575.5 391.5Q578.0 386.0 582.0 381.0Q586.0 376.0 591.0 373.5Q596.0 371.0 601.0 370.5Q606.0 370.0 610.0 371.5Q614.0 373.0 616.5 377.0Q619.0 381.0 620.0 386.5Q621.0 392.0 619.5 398.0Q618.0 404.0 615.0 409.5Q612.0 415.0 608.5 419.0Q605.0 423.0 601.0 426.0Q597.0 429.0 594.5 431.0Q592.0 433.0 591.0 434.0Q590.0 435.0 591.0 436.0Q592.0 437.0 595.0 439.0Q598.0 441.0 602.0 444.0Q606.0 447.0 609.5 451.5Q613.0 456.0 616.5 461.5Q620.0 467.0 621.0 473.0Q622.0 479.0 621.5 485.0Q621.0 491.0 618.5 495.0Q616.0 499.0 611.5 501.0Q607.0 503.0 602.0 502.5Q597.0 502.0 592.0 499.0Q587.0 496.0 582.5 491.5Q578.0 487.0 575.0 481.0Q572.0 475.0 570.5 469.5Q569.0 464.0 568.5 460.0Q568.0 456.0 568.0 453.0Q568.0 450.0 567.0 449.5Q566.0 449.0 564.0 449.5Q562.0 450.0 558.5 452.0Q555.0 454.0 550.0 455.5Q545.0 457.0 538.5 458.0Q532.0 459.0 525.5 458.0Q519.0 457.0 513.0 454.5Q507.0 452.0 503.0 448.5Q499.0 445.0 497.5 440.0Q496.0 435.0 497.5 430.0Q499.0 425.0 503.0 421.0Q507.0 417.0 512.5 415.0Q518.0 413.0 525.0 412.0Q532.0 411.0 538.0 412.0Q544.0 413.0 549.5 414.5Q555.0 416.0 558.5 417.5Q562.0 419.0 564.0 420.0Q566.0 421.0 567.0 420.0Q568.0 419.0 568.0 416.0Q568.0 413.0 568.5 408.5Q569.0 404.0 570.5 398.0Q572.0 392.0 575.0 386.0Q578.0 380.0 582.5 375.0Q587.0 370.0 592.5 366.5Q598.0 363.0 603.5 362.5Q609.0 362.0 614.0 364.0Q619.0 366.0 621.5 370.5Q624.0 375.0 625.0 381.0Q626.0 387.0 624.5 393.5Q623.0 400.0 619.5 406.0Q616.0 412.0 612.0 417.0Q608.0 422.0 604.0 425.5Q600.0 429.0 597.0 431.0Q594.0 433.0 593.0 434.0Q592.0 435.0 593.0 436.0Q594.0 437.0 597.0 439.5Q600.0 442.0 604.5 445.0Q609.0 448.0 613.5 453.0Q618.0 458.0 621.0 464.5Q624.0 471.0 626.0 477.5Q628.0 484.0 627.0 490.5Q626.0 497.0 623.0 501.5Q620.0 506.0 615.0 508.0Q610.0 510.0 604.5 509.5Q599.0 509.0 593.5 506.0Q588.0 503.0 583.5 497.5Q579.0 492.0 575.5 486.0Q572.0 480.0 570.5 473.5Q569.0 467.0 568.5 462.5Q568.0 458.0 567.5 455.0Q567.0 452.0 566.0 451.0Q565.0 450.0 563.0 451.0Q561.0 452.0 557.0 454.0Q553.0 456.0 547.0 458.0Q541.0 460.0 534.0 460.5Q527.0 461.0 520.0 460.5Q513.0 460.0 506.5 457.0Q500.0 454.0 495.5 450.0Q491.0 446.0 489.5 440.5Q488.0 435.0 489.5 429.5Q491.0 424.0 495.5 420.0Q500.0 416.0 506.0 413.0Q512.0 410.0 519.5 409.5Q527.0 409.0 534.0 409.5Q541.0 410.0 547.0 412.0Q553.0 414.0 557.0 416.0Q561.0 418.0 563.0 418.5Q565.0 419.0 566.0 418.0Q567.0 417.0 567.0 414.0Q567.0 411.0 567.5 406.0Q568.0 401.0 570.0 394.5Q572.0 388.0 575.5 381.0Q579.0 374.0 584.0 368.5Q589.0 363.0 595.0 359.5Q601.0 356.0 607.0 355.5Q613.0 355.0 618.0 357.0Q623.0 359.0 626.0 364.0Q629.0 369.0 630.0 375.5Q631.0 382.0 629.5 389.5Q628.0 397.0 624.5 403.5Q621.0 410.0 616.0 415.5Q611.0 421.0 606.5 424.5Q602.0 428.0 599.0 430.0Q596.0 432.0 595.0 433.5Q594.0 435.0 595.0 436.5Q596.0 438.0 599.5 440.0Q603.0 442.0 607.5 446.0Q612.0 450.0 617.0 455.5Q622.0 461.0 625.5 467.5Q629.0 474.0 631.0 481.5Q633.0 489.0 632.0 496.0Q631.0 503.0 627.5 508.0Q624.0 513.0 619.0 515.5Q614.0 518.0 607.5 517.0Q601.0 516.0 595.0 512.5Q589.0 509.0 584.0 503.5Q579.0 498.0 575.5 491.0Q572.0 484.0 570.0 477.5Q568.0 471.0 567.5 465.5Q567.0 460.0 566.5 456.5Q566.0 453.0 565.0 452.5Q564.0 452.0 562.0 453.0Q560.0 454.0 555.5 456.0Q551.0 458.0 544.5 460.0Q538.0 462.0 530.5 463.0Q523.0 464.0 515.0 463.0Q507.0 462.0 500.0 459.0Q493.0 456.0 488.0 451.5Q483.0 447.0 481.5 441.0Q480.0 435.0 481.5 429.0Q483.0 423.0 488.0 418.5Q493.0 414.0 499.5 411.0Q506.0 408.0 514.0 407.0Q522.0 406.0 530.0 407.0Q538.0 408.0 544.5 410.0Q551.0 412.0 555.0 414.0Q559.0 416.0 561.5 417.0Q564.0 418.0 565.0 417.0Q566.0 416.0 566.0 412.5Q566.0 409.0 567.0 403.0Q568.0 397.0 570.0 390.0Q572.0 383.0 575.5 376.0Q579.0 369.0 584.5 362.5Q590.0 356.0 596.5 352.5Q603.0 349.0 609.5 348.0Q616.0 347.0 621.5 349.5Q627.0 352.0 631.0 357.5Q635.0 363.0 635.5 370.0Q636.0 377.0 634.5 385.0Q633.0 393.0 629.0 400.5Q625.0 408.0 620.0 413.5Q615.0 419.0 610.0 423.0Q605.0 427.0 601.5 429.5Q598.0 432.0 596.5 433.5Q595.0 435.0 596.5 436.5Q598.0 438.0 602.0 440.5Q606.0 443.0 611.0 447.0Q616.0 451.0 621.0 457.0Q626.0 463.0 630.0 470.5Q634.0 478.0 636.0 486.0Q638.0 494.0 637.0 501.5Q636.0 509.0 632.5 514.5Q629.0 520.0 623.0 522.5Q617.0 525.0 610.5 524.5Q604.0 524.0 597.0 520.0Q590.0 516.0 584.5 509.5Q579.0 503.0 575.5 495.5Q572.0 488.0 570.0 481.0Q568.0 474.0 567.0 468.0Q566.0 462.0 566.0 458.5Q566.0 455.0 565.0 454.0Q564.0 453.0 561.0 454.0Q558.0 455.0 553.5 457.5Q549.0 460.0 542.0 462.0Q535.0 464.0 526.5 465.0Q518.0 466.0 509.5 465.0Q501.0 464.0 493.0 461.0Q485.0 458.0 480.0 453.0Q475.0 448.0 473.0 441.5Q471.0 435.0 473.0 428.5Q475.0 422.0 480.0 417.0Q485.0 412.0 493.0 409.0Q501.0 406.0 509.5 405.0Q518.0 404.0 526.5 405.0Q535.0 406.0 542.0 408.0Q549.0 410.0 553.5 412.5Q558.0 415.0 560.5 416.0Q563.0 417.0 564.0 415.5Q565.0 414.0 565.5 410.5Q566.0 407.0 566.5 400.5Q567.0 394.0 569.0 386.5Q571.0 379.0 575.5 371.0Q580.0 363.0 585.5 356.5Q591.0 350.0 598.0 346.0Q605.0 342.0 612.5 341.0Q620.0 340.0 626.0 342.5Q632.0 345.0 636.0 351.0Q640.0 357.0 640.5 365.0Q641.0 373.0 639.5 381.5Q638.0 390.0 633.5 397.5Q629.0 405.0 623.5 411.5Q618.0 418.0 612.5 422.5Q607.0 427.0 603.5 429.5Q600.0 432.0 598.5 433.5Q597.0 435.0 598.5 436.5Q600.0 438.0 604.0 440.5Q608.0 443.0 613.5 447.5Q619.0 452.0 624.5 458.5Q630.0 465.0 634.5 473.5Q639.0 482.0 641.0 490.5Q643.0 499.0 642.0 507.0Q641.0 515.0 637.0 521.0Q633.0 527.0 627.0 530.0Q621.0 533.0 613.5 532.0Q606.0 531.0 599.0 527.0Q592.0 523.0 586.0 516.0Q580.0 509.0 575.5 501.0Q571.0 493.0 569.0 485.0Q567.0 477.0 566.0 470.5Q565.0 464.0 565.0 460.5Q565.0 457.0 564.0 456.0Q563.0 455.0 560.0 456.0Q557.0 457.0 551.5 459.5Q546.0 462.0 539.0 464.5Q532.0 467.0 522.5 468.0Q513.0 469.0 504.0 468.0Q495.0 467.0 486.5 463.5Q478.0 460.0 472.5 454.5Q467.0 449.0 465.0 442.0Q463.0 435.0 465.0 428.0Q467.0 421.0 472.5 415.5Q478.0 410.0 486.5 406.5Q495.0 403.0 504.0 402.0Q513.0 401.0 522.0 402.0Q531.0 403.0 538.5 405.5Q546.0 408.0 551.5 410.5Q557.0 413.0 559.5 414.0Q562.0 415.0 563.0 413.5Q564.0 412.0 564.5 408.0Q565.0 404.0 566.0 397.5Q567.0 391.0 569.0 383.0Q571.0 375.0 575.5 366.0Q580.0 357.0 586.5 350.0Q593.0 343.0 600.5 338.5Q608.0 334.0 615.5 333.5Q623.0 333.0 629.5 335.5Q636.0 338.0 640.5 344.5Q645.0 351.0 646.0 359.5Q647.0 368.0 644.5 377.0Q642.0 386.0 637.5 394.5Q633.0 403.0 627.0 410.0Q621.0 417.0 615.5 421.5Q610.0 426.0 606.0 429.0Q602.0 432.0 600.5 433.5Q599.0 435.0 600.5 436.5Q602.0 438.0 606.5 441.0Q611.0 444.0 616.5 449.0Q622.0 454.0 628.0 461.0Q634.0 468.0 639.0 476.5Q644.0 485.0 646.0 494.5Q648.0 504.0 647.0 512.5Q646.0 521.0 642.0 527.5Q638.0 534.0 631.0 537.0Q624.0 540.0 616.5 539.0Q609.0 538.0 601.0 533.5Q593.0 529.0 586.5 521.5Q580.0 514.0 575.5 505.5Q571.0 497.0 568.5 488.5Q566.0 480.0 565.5 473.5Q565.0 467.0 564.5 462.5Q564.0 458.0 563.0 457.0Q562.0 456.0 559.0 457.5Q556.0 459.0 550.0 461.5Q544.0 464.0 536.0 466.5Q528.0 469.0 518.5 470.0Q509.0 471.0 499.0 470.0Q489.0 469.0 480.0 465.5Q471.0 462.0 465.0 456.0Q459.0 450.0 457.0 442.5Q455.0 435.0 457.0 427.5Q459.0 420.0 465.0 414.0Q471.0 408.0 480.0 404.5Q489.0 401.0 499.0 400.0Q509.0 399.0 518.5 400.0Q528.0 401.0 536.0 403.5Q544.0 406.0 549.5 408.5Q555.0 411.0 558.0 412.5Q561.0 414.0 562.5 412.5Q564.0 411.0 564.0 406.5Q564.0 402.0 565.0 395.0Q566.0 388.0 568.5 379.0Q571.0 370.0 575.5 361.0Q580.0 352.0 587.0 344.0Q594.0 336.0 602.0 331.5Q610.0 327.0 618.5 326.0Q627.0 325.0 634.0 328.0Q641.0 331.0 645.5 338.0Q650.0 345.0 651.0 354.0Q652.0 363.0 649.5 373.0Q647.0 383.0 642.0 392.0Q637.0 401.0 631.0 408.0Q625.0 415.0 618.5 420.0Q612.0 425.0 608.0 428.0Q604.0 431.0 602.5 433.0Q601.0 435.0 602.5 437.0Q604.0 439.0 608.5 442.0Q613.0 445.0 619.5 450.0Q626.0 455.0 632.5 462.5Q639.0 470.0 644.0 479.5Q649.0 489.0 651.0 499.0Q653.0 509.0 652.0 518.0Q651.0 527.0 646.5 534.0Q642.0 541.0 635.0 544.0Q628.0 547.0 619.5 546.5Q611.0 546.0 602.5 541.0Q594.0 536.0 587.0 528.0Q580.0 520.0 575.5 510.5Q571.0 501.0 568.5 492.0Q566.0 483.0 565.0 476.0Q564.0 469.0 563.5 464.5Q563.0 460.0 562.0 458.5Q561.0 457.0 557.5 458.5Q554.0 460.0 548.0 463.0Q542.0 466.0 533.5 468.5Q525.0 471.0 514.5 472.5Q504.0 474.0 493.5 473.0Q483.0 472.0 473.5 468.0Q464.0 464.0 457.5 457.5Q451.0 451.0 448.5 443.0Q446.0 435.0 448.5 427.0Q451.0 419.0 457.5 412.5Q464.0 406.0 473.5 402.0Q483.0 398.0 493.5 397.0Q504.0 396.0 514.5 397.5Q525.0 399.0 533.5 401.5Q542.0 404.0 548.0 407.0Q554.0 410.0 557.0 411.0Q560.0 412.0 561.5 410.5Q563.0 409.0 563.5 404.5Q564.0 400.0 564.5 392.5Q565.0 385.0 568.0 375.5Q571.0 366.0 576.0 356.0Q581.0 346.0 588.0 338.0Q595.0 330.0 604.0 325.0Q613.0 320.0 621.5 319.0Q630.0 318.0 637.5 321.0Q645.0 324.0 650.0 331.5Q655.0 339.0 656.0 348.5Q657.0 358.0 654.5 368.5Q652.0 379.0 646.5 388.5Q641.0 398.0 634.5 406.0Q628.0 414.0 621.5 419.5Q615.0 425.0 610.5 428.0Q606.0 431.0 604.0 433.0Q602.0 435.0 604.0 437.0Q606.0 439.0 611.0 442.0Q616.0 445.0 622.5 450.5Q629.0 456.0 636.0 464.0Q643.0 472.0 648.5 482.0Q654.0 492.0 656.5 503.0Q659.0 514.0 657.5 523.5Q656.0 533.0 651.5 540.5Q647.0 548.0 639.0 551.5Q631.0 555.0 622.0 554.0Q613.0 553.0 604.0 547.5Q595.0 542.0 588.0 534.0Q581.0 526.0 576.0 516.0Q571.0 506.0 568.0 496.0Q565.0 486.0 564.0 478.5Q563.0 471.0 562.5 466.5Q562.0 462.0 561.0 460.5Q560.0 459.0 556.5 460.5Q553.0 462.0 546.5 465.0Q540.0 468.0 531.0 471.0Q522.0 474.0 511.0 475.0Q500.0 476.0 488.5 475.0Q477.0 474.0 467.0 469.5Q457.0 465.0 450.0 458.5Q443.0 452.0 440.5 443.5Q438.0 435.0 440.5 426.5Q443.0 418.0 450.0 411.5Q457.0 405.0 467.0 400.5Q477.0 396.0 488.5 395.0Q500.0 394.0 511.0 395.0Q522.0 396.0 531.0 399.0Q540.0 402.0 546.5 405.0Q553.0 408.0 556.5 409.5Q560.0 411.0 561.0 409.5Q562.0 408.0 562.5 403.0Q563.0 398.0 564.0 389.5Q565.0 381.0 567.5 371.0Q570.0 361.0 575.5 351.0Q581.0 341.0 588.5 332.0Q596.0 323.0 605.5 317.5Q615.0 312.0 624.5 311.0Q634.0 310.0 642.0 314.0Q650.0 318.0 655.0 325.5Q660.0 333.0 661.0 343.0Q662.0 353.0 659.5 364.0Q657.0 375.0 651.5 385.5Q646.0 396.0 638.5 404.5Q631.0 413.0 624.0 418.5Q617.0 424.0 612.0 427.5Q607.0 431.0 605.5 433.0Q604.0 435.0 606.0 437.0Q608.0 439.0 613.0 442.5Q618.0 446.0 625.0 452.0Q632.0 458.0 639.5 466.5Q647.0 475.0 653.0 485.5Q659.0 496.0 661.5 507.0Q664.0 518.0 662.5 528.5Q661.0 539.0 656.0 547.0Q651.0 555.0 643.0 558.5Q635.0 562.0 625.5 561.0Q616.0 560.0 606.5 554.5Q597.0 549.0 589.0 540.0Q581.0 531.0 575.5 520.5Q570.0 510.0 567.5 500.0Q565.0 490.0 564.0 481.5Q563.0 473.0 562.5 468.0Q562.0 463.0 560.5 461.5Q559.0 460.0 555.0 461.5Q551.0 463.0 544.5 466.5Q538.0 470.0 528.5 473.0Q519.0 476.0 507.0 477.5Q495.0 479.0 483.0 477.5Q471.0 476.0 460.5 471.5Q450.0 467.0 442.5 460.0Q435.0 453.0 432.5 444.0Q430.0 435.0 432.5 426.0Q435.0 417.0 442.5 410.0Q450.0 403.0 460.5 398.5Q471.0 394.0 483.0 392.5Q495.0 391.0 507.0 392.5Q519.0 394.0 528.5 397.0Q538.0 400.0 544.5 403.0Q551.0 406.0 555.0 407.5Q559.0 409.0 560.0 407.5Q561.0 406.0 561.5 400.5Q562.0 395.0 563.0 386.5Q564.0 378.0 567.0 367.5Q570.0 357.0 575.5 346.0Q581.0 335.0 589.5 325.5Q598.0 316.0 607.5 310.5Q617.0 305.0 627.0 304.0Q637.0 303.0 645.5 307.0Q654.0 311.0 659.5 319.0Q665.0 327.0 666.0 337.5Q667.0 348.0 664.5 360.0Q662.0 372.0 656.0 383.0Q650.0 394.0 642.5 402.5Q635.0 411.0 627.5 417.0Q620.0 423.0 614.5 427.0Q609.0 431.0 607.5 433.0Q606.0 435.0 608.0 437.0Q610.0 439.0 615.5 443.0Q621.0 447.0 628.5 453.0Q636.0 459.0 643.5 468.0Q651.0 477.0 657.5 488.0Q664.0 499.0 666.5 511.0Q669.0 523.0 667.5 534.0Q666.0 545.0 660.5 553.5Q655.0 562.0 646.5 566.0Q638.0 570.0 628.0 568.5Q618.0 567.0 608.0 561.5Q598.0 556.0 589.5 546.5Q581.0 537.0 575.5 525.5Q570.0 514.0 567.0 503.5Q564.0 493.0 563.0 484.0Q562.0 475.0 561.5 470.0Q561.0 465.0 559.5 463.5Q558.0 462.0 554.0 463.5Q550.0 465.0 543.0 468.5Q536.0 472.0 525.5 475.0Q515.0 478.0 502.5 479.5Q490.0 481.0 477.5 480.0Q465.0 479.0 453.5 474.0Q442.0 469.0 434.5 461.5Q427.0 454.0 424.5 444.5Q422.0 435.0 424.5 425.5Q427.0 416.0 434.5 408.5Q442.0 401.0 453.5 396.0Q465.0 391.0 478.0 390.0Q491.0 389.0 503.0 390.5Q515.0 392.0 525.5 395.0Q536.0 398.0 543.0 401.5Q550.0 405.0 554.0 406.5Q558.0 408.0 559.5 406.0Q561.0 404.0 561.0 398.5Q561.0 393.0 562.5 384.0Q564.0 375.0 567.0 363.5Q570.0 352.0 576.0 340.5Q582.0 329.0 590.5 319.5Q599.0 310.0 609.5 304.0Q620.0 298.0 630.5 296.5Q641.0 295.0 649.5 299.5Q658.0 304.0 664.0 312.5Q670.0 321.0 671.0 332.5Q672.0 344.0 669.5 356.0Q667.0 368.0 660.5 380.0Q654.0 392.0 646.0 401.0Q638.0 410.0 630.0 416.5Q622.0 423.0 616.5 426.5Q611.0 430.0 609.0 432.5Q607.0 435.0 609.5 437.5Q612.0 440.0 617.5 443.5Q623.0 447.0 631.0 453.5Q639.0 460.0 647.5 469.5Q656.0 479.0 662.0 491.0Q668.0 503.0 671.0 515.5Q674.0 528.0 672.5 539.5Q671.0 551.0 665.5 560.0Q660.0 569.0 651.0 573.0Q642.0 577.0 631.0 576.0Q620.0 575.0 609.5 568.5Q599.0 562.0 590.5 552.0Q582.0 542.0 576.0 530.5Q570.0 519.0 566.5 507.5Q563.0 496.0 562.0 487.0Q561.0 478.0 560.5 472.5Q560.0 467.0 558.5 465.0Q557.0 463.0 553.0 465.0Q549.0 467.0 541.5 470.5Q534.0 474.0 523.0 477.5Q512.0 481.0 499.0 482.5Q486.0 484.0 472.5 482.5Q459.0 481.0 447.0 476.0Q435.0 471.0 427.0 463.0Q419.0 455.0 416.0 445.0Q413.0 435.0 416.0 425.0Q419.0 415.0 427.0 407.0Q435.0 399.0 447.0 394.0Q459.0 389.0 472.5 387.5Q486.0 386.0 499.0 387.5Q512.0 389.0 523.0 392.5Q534.0 396.0 541.5 399.5Q549.0 403.0 553.0 404.5Q557.0 406.0 558.5 404.5Q560.0 403.0 560.5 397.0Q561.0 391.0 562.0 381.5Q563.0 372.0 566.5 360.0Q570.0 348.0 576.0 336.0Q582.0 324.0 591.0 313.5Q600.0 303.0 611.0 296.5Q622.0 290.0 633.0 289.0Q644.0 288.0 653.5 292.5Q663.0 297.0 669.0 306.0Q675.0 315.0 676.5 327.0Q678.0 339.0 674.5 352.0Q671.0 365.0 664.5 377.0Q658.0 389.0 649.5 399.0Q641.0 409.0 633.0 415.5Q625.0 422.0 619.0 426.0Q613.0 430.0 611.0 432.5Q609.0 435.0 611.5 437.5Q614.0 440.0 620.0 444.0Q626.0 448.0 634.5 455.0Q643.0 462.0 651.5 472.0Q660.0 482.0 666.5 494.0Q673.0 506.0 676.0 519.5Q679.0 533.0 677.5 545.5Q676.0 558.0 670.0 567.0Q664.0 576.0 654.5 580.0Q645.0 584.0 634.0 583.0Q623.0 582.0 612.0 575.5Q601.0 569.0 591.5 558.5Q582.0 548.0 575.5 535.5Q569.0 523.0 566.0 511.0Q563.0 499.0 561.5 489.5Q560.0 480.0 559.5 474.0Q559.0 468.0 557.5 466.5Q556.0 465.0 551.5 466.5Q547.0 468.0 539.5 472.0Q532.0 476.0 520.5 479.5Q509.0 483.0 495.0 485.0Q481.0 487.0 467.0 485.0Q453.0 483.0 440.5 478.0Q428.0 473.0 419.5 464.5Q411.0 456.0 408.0 445.5Q405.0 435.0 408.0 424.5Q411.0 414.0 419.5 405.5Q428.0 397.0 440.5 392.0Q453.0 387.0 467.5 385.5Q482.0 384.0 495.5 385.5Q509.0 387.0 520.5 390.5Q532.0 394.0 539.5 398.0Q547.0 402.0 551.5 403.5Q556.0 405.0 557.5 403.0Q559.0 401.0 559.5 395.0Q560.0 389.0 561.0 379.0Q562.0 369.0 565.5 356.5Q569.0 344.0 575.5 331.0Q582.0 318.0 591.5 307.0Q601.0 296.0 612.5 289.5Q624.0 283.0 636.0 282.0Q648.0 281.0 657.5 285.5Q667.0 290.0 673.5 299.0Q680.0 308.0 681.5 321.0Q683.0 334.0 679.5 347.5Q676.0 361.0 669.0 374.0Q662.0 387.0 653.5 397.0Q645.0 407.0 636.0 414.5Q627.0 422.0 621.0 426.0Q615.0 430.0 613.0 432.5Q611.0 435.0 613.5 437.5Q616.0 440.0 622.0 444.5Q628.0 449.0 637.0 456.0Q646.0 463.0 655.0 473.5Q664.0 484.0 671.0 497.0Q678.0 510.0 681.5 524.0Q685.0 538.0 683.0 551.0Q681.0 564.0 675.0 573.5Q669.0 583.0 659.0 587.5Q649.0 592.0 637.0 590.5Q625.0 589.0 613.5 582.0Q602.0 575.0 592.0 564.0Q582.0 553.0 575.5 540.0Q569.0 527.0 565.5 514.5Q562.0 502.0 561.0 492.0Q560.0 482.0 559.5 476.0Q559.0 470.0 557.0 468.0Q555.0 466.0 550.5 468.0Q546.0 470.0 537.5 474.0Q529.0 478.0 517.5 481.5Q506.0 485.0 491.5 487.0Q477.0 489.0 462.0 487.5Q447.0 486.0 434.0 480.5Q421.0 475.0 412.0 466.0Q403.0 457.0 400.0 446.0Q397.0 435.0 400.0 424.0Q403.0 413.0 412.0 404.0Q421.0 395.0 434.0 389.5Q447.0 384.0 462.0 382.5Q477.0 381.0 491.5 383.0Q506.0 385.0 518.0 388.5Q530.0 392.0 538.0 396.0Q546.0 400.0 550.5 401.5Q555.0 403.0 556.5 401.0Q558.0 399.0 558.5 392.5Q559.0 386.0 560.5 375.5Q562.0 365.0 565.5 352.0Q569.0 339.0 576.0 325.5Q583.0 312.0 593.0 301.0Q603.0 290.0 615.0 283.0Q627.0 276.0 639.0 274.5Q651.0 273.0 661.5 278.0Q672.0 283.0 678.5 292.5Q685.0 302.0 686.5 315.5Q688.0 329.0 684.5 343.5Q681.0 358.0 674.0 371.5Q667.0 385.0 657.5 395.5Q648.0 406.0 639.0 413.5Q630.0 421.0 623.5 425.5Q617.0 430.0 615.0 432.5Q613.0 435.0 615.5 437.5Q618.0 440.0 624.5 444.5Q631.0 449.0 640.0 456.5Q649.0 464.0 658.5 475.0Q668.0 486.0 675.5 500.0Q683.0 514.0 686.5 528.5Q690.0 543.0 688.0 556.5Q686.0 570.0 679.5 580.0Q673.0 590.0 662.5 594.5Q652.0 599.0 639.5 597.5Q627.0 596.0 615.0 589.0Q603.0 582.0 593.0 570.5Q583.0 559.0 576.0 545.5Q569.0 532.0 565.5 518.5Q562.0 505.0 560.5 494.5Q559.0 484.0 558.5 477.5Q558.0 471.0 556.0 469.5Q554.0 468.0 549.5 470.0Q545.0 472.0 536.0 476.0Q527.0 480.0 514.5 484.0Q502.0 488.0 487.0 490.0Q472.0 492.0 456.5 490.0Q441.0 488.0 427.5 482.0Q414.0 476.0 404.5 467.0Q395.0 458.0 391.5 446.5Q388.0 435.0 391.5 423.5Q395.0 412.0 404.5 403.0Q414.0 394.0 427.5 388.0Q441.0 382.0 457.0 380.5Q473.0 379.0 488.0 380.5Q503.0 382.0 515.5 386.0Q528.0 390.0 536.5 394.0Q545.0 398.0 549.5 400.0Q554.0 402.0 555.5 400.0Q557.0 398.0 557.5 391.0Q558.0 384.0 559.5 373.0Q561.0 362.0 565.0 348.5Q569.0 335.0 576.0 321.0Q583.0 307.0 593.5 295.0Q604.0 283.0 616.5 275.5Q629.0 268.0 642.0 267.0Q655.0 266.0 665.5 271.0Q676.0 276.0 683.0 286.0Q690.0 296.0 691.5 310.0Q693.0 324.0 689.5 339.0Q686.0 354.0 678.5 368.0Q671.0 382.0 661.0 393.5Q651.0 405.0 641.5 412.5Q632.0 420.0 625.5 424.5Q619.0 429.0 616.5 432.0Q614.0 435.0 617.0 438.0Q620.0 441.0 626.5 445.5Q633.0 450.0 643.0 458.0Q653.0 466.0 663.0 477.5Q673.0 489.0 680.5 503.0Q688.0 517.0 691.5 532.5Q695.0 548.0 693.5 562.0Q692.0 576.0 685.0 586.5Q678.0 597.0 667.0 602.0Q656.0 607.0 643.0 605.5Q630.0 604.0 617.0 596.5Q604.0 589.0 593.5 577.0Q583.0 565.0 576.0 550.5Q569.0 536.0 565.0 522.0Q561.0 508.0 559.5 497.0Q558.0 486.0 557.5 479.5Q557.0 473.0 555.0 471.0Q553.0 469.0 548.0 471.0Q543.0 473.0 534.0 477.5Q525.0 482.0 512.0 486.0Q499.0 490.0 483.5 492.0Q468.0 494.0 451.5 492.0Q435.0 490.0 420.5 484.0Q406.0 478.0 396.5 468.5Q387.0 459.0 383.5 447.0Q380.0 435.0 383.5 423.0Q387.0 411.0 397.0 401.5Q407.0 392.0 421.0 386.0Q435.0 380.0 451.5 378.0Q468.0 376.0 483.5 378.0Q499.0 380.0 512.0 384.0Q525.0 388.0 534.0 392.5Q543.0 397.0 548.0 398.5Q553.0 400.0 555.0 398.0Q557.0 396.0 557.5 389.0Q558.0 382.0 559.5 370.5Q561.0 359.0 564.5 344.5Q568.0 330.0 575.5 315.5Q583.0 301.0 594.0 288.5Q605.0 276.0 618.0 268.5Q631.0 261.0 644.5 259.5Q658.0 258.0 669.5 263.5Q681.0 269.0 688.0 279.5Q695.0 290.0 696.5 304.5Q698.0 319.0 694.5 335.0Q691.0 351.0 683.0 365.5Q675.0 380.0 665.0 392.0Q655.0 404.0 645.0 412.0Q635.0 420.0 628.0 424.5Q621.0 429.0 618.5 432.0Q616.0 435.0 618.5 438.0Q621.0 441.0 628.5 446.0Q636.0 451.0 646.0 459.0Q656.0 467.0 666.5 479.0Q677.0 491.0 685.0 506.0Q693.0 521.0 696.5 537.0Q700.0 553.0 698.5 567.5Q697.0 582.0 689.5 593.0Q682.0 604.0 670.5 609.0Q659.0 614.0 645.5 612.5Q632.0 611.0 619.0 603.0Q606.0 595.0 595.0 582.5Q584.0 570.0 576.0 555.0Q568.0 540.0 564.0 526.0Q560.0 512.0 559.0 500.5Q558.0 489.0 557.0 482.0Q556.0 475.0 554.0 473.0Q552.0 471.0 547.0 473.0Q542.0 475.0 532.5 479.5Q523.0 484.0 509.5 488.5Q496.0 493.0 479.5 495.0Q463.0 497.0 446.0 495.0Q429.0 493.0 414.0 486.5Q399.0 480.0 389.0 470.0Q379.0 460.0 375.5 447.5Q372.0 435.0 375.5 422.5Q379.0 410.0 389.5 400.0Q400.0 390.0 414.5 383.5Q429.0 377.0 446.0 375.5Q463.0 374.0 479.5 376.0Q496.0 378.0 509.5 382.0Q523.0 386.0 532.5 390.5Q542.0 395.0 547.0 397.0Q552.0 399.0 554.0 396.5Q556.0 394.0 556.5 387.0Q557.0 380.0 558.5 368.0Q560.0 356.0 564.0 341.0Q568.0 326.0 576.0 311.0Q584.0 296.0 595.5 283.0Q607.0 270.0 620.5 262.0Q634.0 254.0 648.0 252.5Q662.0 251.0 673.5 256.5Q685.0 262.0 692.5 273.0Q700.0 284.0 701.5 299.0Q703.0 314.0 699.5 330.5Q696.0 347.0 687.5 362.5Q679.0 378.0 668.5 390.0Q658.0 402.0 647.5 410.5Q637.0 419.0 630.0 424.0Q623.0 429.0 620.5 432.0Q618.0 435.0 620.5 438.0Q623.0 441.0 631.0 446.0Q639.0 451.0 649.0 459.5Q659.0 468.0 670.0 480.5Q681.0 493.0 689.5 508.5Q698.0 524.0 701.5 540.5Q705.0 557.0 703.5 572.5Q702.0 588.0 694.0 599.5Q686.0 611.0 674.5 616.0Q663.0 621.0 649.0 619.5Q635.0 618.0 621.0 610.0Q607.0 602.0 595.5 589.0Q584.0 576.0 576.0 560.5Q568.0 545.0 564.0 530.0Q560.0 515.0 558.5 503.0Q557.0 491.0 556.5 483.5Q556.0 476.0 553.5 474.0Q551.0 472.0 546.0 474.5Q541.0 477.0 531.0 481.5Q521.0 486.0 507.0 490.5Q493.0 495.0 475.5 497.0Q458.0 499.0 440.5 497.0Q423.0 495.0 407.5 488.5Q392.0 482.0 381.5 471.5Q371.0 461.0 367.5 448.0Q364.0 435.0 367.5 422.0Q371.0 409.0 381.5 398.5Q392.0 388.0 407.5 381.5Q423.0 375.0 441.0 373.0Q459.0 371.0 476.0 373.0Q493.0 375.0 507.0 380.0Q521.0 385.0 531.0 389.0Q541.0 393.0 546.0 395.5Q551.0 398.0 553.0 395.5Q555.0 393.0 555.5 385.0Q556.0 377.0 557.5 365.0Q559.0 353.0 563.5 337.5Q568.0 322.0 576.0 306.0Q584.0 290.0 596.0 276.5Q608.0 263.0 622.0 255.0Q636.0 247.0 650.5 245.5Q665.0 244.0 677.0 249.5Q689.0 255.0 697.0 266.5Q705.0 278.0 707.0 294.0Q709.0 310.0 705.0 327.0Q701.0 344.0 692.0 360.0Q683.0 376.0 672.0 388.5Q661.0 401.0 650.5 409.5Q640.0 418.0 632.5 423.5Q625.0 429.0 622.0 432.0Q619.0 435.0 622.0 438.0Q625.0 441.0 633.0 446.5Q641.0 452.0 652.0 461.0Q663.0 470.0 674.0 483.0Q685.0 496.0 694.0 512.0Q703.0 528.0 707.0 545.0Q711.0 562.0 709.0 578.0Q707.0 594.0 699.0 606.0Q691.0 618.0 678.5 623.5Q666.0 629.0 651.5 627.5Q637.0 626.0 622.5 617.5Q608.0 609.0 596.0 595.0Q584.0 581.0 576.0 565.0Q568.0 549.0 563.5 533.5Q559.0 518.0 557.5 505.5Q556.0 493.0 555.5 485.5Q555.0 478.0 552.5 476.0Q550.0 474.0 544.5 476.0Q539.0 478.0 529.0 483.0Q519.0 488.0 504.0 492.5Q489.0 497.0 471.5 499.5Q454.0 502.0 435.5 500.0Q417.0 498.0 401.0 491.0Q385.0 484.0 374.0 473.0Q363.0 462.0 359.0 448.5Q355.0 435.0 359.0 421.5Q363.0 408.0 374.0 397.0Q385.0 386.0 401.5 379.5Q418.0 373.0 436.0 371.0Q454.0 369.0 472.0 371.0Q490.0 373.0 504.5 378.0Q519.0 383.0 529.0 387.5Q539.0 392.0 544.5 394.0Q550.0 396.0 552.0 393.5Q554.0 391.0 555.0 383.0Q556.0 375.0 557.5 362.0Q559.0 349.0 563.5 333.0Q568.0 317.0 576.0 300.5Q584.0 284.0 596.5 270.0Q609.0 256.0 624.0 247.5Q639.0 239.0 654.0 237.5Q669.0 236.0 681.5 242.0Q694.0 248.0 702.0 260.0Q710.0 272.0 712.0 288.5Q714.0 305.0 709.5 322.5Q705.0 340.0 696.0 356.5Q687.0 373.0 675.5 386.5Q664.0 400.0 653.0 409.0Q642.0 418.0 634.5 423.0Q627.0 428.0 624.0 431.5Q621.0 435.0 624.0 438.5Q627.0 442.0 635.5 447.5Q644.0 453.0 655.0 462.0Q666.0 471.0 677.5 484.5Q689.0 498.0 698.5 514.5Q708.0 531.0 712.0 549.0Q716.0 567.0 714.0 583.5Q712.0 600.0 703.5 612.5Q695.0 625.0 682.5 630.5Q670.0 636.0 654.5 634.5Q639.0 633.0 624.0 624.0Q609.0 615.0 597.0 601.0Q585.0 587.0 576.5 570.0Q568.0 553.0 563.5 537.0Q559.0 521.0 557.0 508.0Q555.0 495.0 554.5 487.5Q554.0 480.0 552.0 477.5Q550.0 475.0 544.0 477.5Q538.0 480.0 527.5 485.0Q517.0 490.0 501.5 495.0Q486.0 500.0 467.5 502.0Q449.0 504.0 430.0 502.0Q411.0 500.0 394.5 493.0Q378.0 486.0 366.5 474.5Q355.0 463.0 351.0 449.0Q347.0 435.0 351.0 421.0Q355.0 407.0 366.5 395.5Q378.0 384.0 395.0 377.0Q412.0 370.0 431.0 368.0Q450.0 366.0 468.5 368.5Q487.0 371.0 502.0 376.0Q517.0 381.0 527.5 385.5Q538.0 390.0 543.5 392.5Q549.0 395.0 551.5 392.0Q554.0 389.0 554.5 381.0Q555.0 373.0 556.5 359.5Q558.0 346.0 562.5 329.5Q567.0 313.0 576.0 296.0Q585.0 279.0 597.5 264.5Q610.0 250.0 625.5 241.0Q641.0 232.0 656.5 230.5Q672.0 229.0 685.0 235.0Q698.0 241.0 706.5 253.5Q715.0 266.0 717.0 283.0Q719.0 300.0 714.5 318.5Q710.0 337.0 701.0 354.0Q692.0 371.0 680.0 384.5Q668.0 398.0 656.5 407.5Q645.0 417.0 637.0 422.5Q629.0 428.0 626.0 431.5Q623.0 435.0 626.0 438.5Q629.0 442.0 637.5 447.5Q646.0 453.0 658.0 462.5Q670.0 472.0 682.0 486.0Q694.0 500.0 703.0 517.5Q712.0 535.0 716.5 553.5Q721.0 572.0 719.0 589.0Q717.0 606.0 708.5 619.0Q700.0 632.0 686.5 638.0Q673.0 644.0 657.5 642.0Q642.0 640.0 626.5 631.0Q611.0 622.0 598.0 607.5Q585.0 593.0 576.0 575.5Q567.0 558.0 562.5 541.0Q558.0 524.0 556.5 510.5Q555.0 497.0 554.0 489.0Q553.0 481.0 551.0 479.0Q549.0 477.0 543.0 479.5Q537.0 482.0 526.0 487.0Q515.0 492.0 499.0 497.0Q483.0 502.0 464.0 504.5Q445.0 507.0 425.0 504.5Q405.0 502.0 387.5 495.0Q370.0 488.0 358.5 476.0Q347.0 464.0 343.0 449.5Q339.0 435.0 343.0 420.5Q347.0 406.0 359.0 394.5Q371.0 383.0 388.5 375.5Q406.0 368.0 425.5 366.0Q445.0 364.0 464.0 366.5Q483.0 369.0 499.0 374.0Q515.0 379.0 526.0 384.0Q537.0 389.0 542.5 391.0Q548.0 393.0 550.5 390.5Q553.0 388.0 553.5 379.5Q554.0 371.0 555.5 357.0Q557.0 343.0 562.0 325.5Q567.0 308.0 576.0 290.5Q585.0 273.0 598.5 258.0Q612.0 243.0 627.5 234.0Q643.0 225.0 659.5 223.0Q676.0 221.0 689.5 227.5Q703.0 234.0 711.5 247.0Q720.0 260.0 722.0 277.5Q724.0 295.0 719.5 314.0Q715.0 333.0 705.5 351.0Q696.0 369.0 683.5 383.0Q671.0 397.0 659.0 406.5Q647.0 416.0 638.5 422.0Q630.0 428.0 627.5 431.5Q625.0 435.0 628.0 438.5Q631.0 442.0 640.0 448.0Q649.0 454.0 661.0 464.0Q673.0 474.0 685.5 488.5Q698.0 503.0 707.5 520.5Q717.0 538.0 721.5 557.5Q726.0 577.0 724.0 594.5Q722.0 612.0 713.0 625.5Q704.0 639.0 690.5 645.0Q677.0 651.0 660.5 649.0Q644.0 647.0 628.0 637.5Q612.0 628.0 598.5 613.0Q585.0 598.0 576.0 580.0Q567.0 562.0 562.0 544.5Q557.0 527.0 555.5 513.5Q554.0 500.0 553.0 491.5Q552.0 483.0 550.0 480.5Q548.0 478.0 541.5 480.5Q535.0 483.0 523.5 488.5Q512.0 494.0 496.0 499.0Q480.0 504.0 460.0 506.5Q440.0 509.0 419.5 507.0Q399.0 505.0 381.0 497.0Q363.0 489.0 351.0 477.0Q339.0 465.0 334.5 450.0Q330.0 435.0 334.5 420.0Q339.0 405.0 351.5 393.0Q364.0 381.0 382.0 373.5Q400.0 366.0 420.5 363.5Q441.0 361.0 460.5 363.5Q480.0 366.0 496.5 371.5Q513.0 377.0 524.0 382.0Q535.0 387.0 541.5 389.5Q548.0 392.0 550.0 389.0Q552.0 386.0 552.5 377.5Q553.0 369.0 555.0 354.5Q557.0 340.0 562.0 322.0Q567.0 304.0 576.5 285.5Q586.0 267.0 599.5 251.5Q613.0 236.0 629.5 226.5Q646.0 217.0 662.5 215.5Q679.0 214.0 693.0 220.5Q707.0 227.0 716.0 240.5Q725.0 254.0 727.0 272.0Q729.0 290.0 724.5 310.0Q720.0 330.0 710.0 348.0Q700.0 366.0 687.0 381.0Q674.0 396.0 662.0 406.0Q650.0 416.0 641.0 422.0Q632.0 428.0 629.0 431.5Q626.0 435.0 629.5 438.5Q633.0 442.0 642.0 448.5Q651.0 455.0 663.5 465.0Q676.0 475.0 689.0 490.0Q702.0 505.0 712.0 523.5Q722.0 542.0 726.5 562.0Q731.0 582.0 729.0 600.0Q727.0 618.0 718.0 632.0Q709.0 646.0 694.5 652.0Q680.0 658.0 663.0 656.5Q646.0 655.0 629.5 645.0Q613.0 635.0 599.5 619.5Q586.0 604.0 576.5 585.5Q567.0 567.0 562.0 549.0Q557.0 531.0 555.0 516.5Q553.0 502.0 552.5 493.0Q552.0 484.0 549.5 481.5Q547.0 479.0 540.5 482.0Q534.0 485.0 522.0 490.5Q510.0 496.0 493.0 501.5Q476.0 507.0 455.5 509.5Q435.0 512.0 414.0 509.5Q393.0 507.0 374.5 499.0Q356.0 491.0 343.5 478.5Q331.0 466.0 326.5 450.5Q322.0 435.0 326.5 419.5Q331.0 404.0 344.0 391.5Q357.0 379.0 375.5 371.0Q394.0 363.0 415.0 361.0Q436.0 359.0 456.5 361.5Q477.0 364.0 494.0 369.5Q511.0 375.0 522.5 380.0Q534.0 385.0 540.5 387.5Q547.0 390.0 549.0 387.5Q551.0 385.0 552.0 375.5Q553.0 366.0 554.5 351.5Q556.0 337.0 561.0 318.5Q566.0 300.0 576.0 281.0Q586.0 262.0 600.0 246.0Q614.0 230.0 631.0 220.0Q648.0 210.0 665.5 208.0Q683.0 206.0 697.5 213.0Q712.0 220.0 721.0 234.0Q730.0 248.0 732.0 266.5Q734.0 285.0 729.5 305.5Q725.0 326.0 714.5 345.0Q704.0 364.0 691.0 379.0Q678.0 394.0 665.0 404.5Q652.0 415.0 643.0 421.5Q634.0 428.0 631.0 431.5Q628.0 435.0 631.5 439.0Q635.0 443.0 644.5 449.0Q654.0 455.0 667.0 465.5Q680.0 476.0 693.0 491.5Q706.0 507.0 716.5 526.0Q727.0 545.0 732.0 566.0Q737.0 587.0 734.5 606.0Q732.0 625.0 722.5 639.0Q713.0 653.0 698.5 659.5Q684.0 666.0 666.5 664.0Q649.0 662.0 631.5 652.0Q614.0 642.0 600.0 625.5Q586.0 609.0 576.0 590.0Q566.0 571.0 561.0 552.5Q556.0 534.0 554.5 519.0Q553.0 504.0 552.0 495.0Q551.0 486.0 548.5 483.5Q546.0 481.0 539.0 483.5Q532.0 486.0 520.0 492.0Q508.0 498.0 490.5 503.5Q473.0 509.0 452.0 511.5Q431.0 514.0 409.0 511.5Q387.0 509.0 368.0 501.0Q349.0 493.0 336.0 480.0Q323.0 467.0 318.5 451.0Q314.0 435.0 318.5 419.0Q323.0 403.0 336.5 390.0Q350.0 377.0 369.0 369.0Q388.0 361.0 410.0 358.5Q432.0 356.0 453.0 359.0Q474.0 362.0 491.5 367.5Q509.0 373.0 521.0 378.5Q533.0 384.0 539.5 386.5Q546.0 389.0 548.0 386.0Q550.0 383.0 551.0 373.5Q552.0 364.0 554.0 348.5Q556.0 333.0 561.0 314.0Q566.0 295.0 576.0 275.5Q586.0 256.0 600.5 239.5Q615.0 223.0 632.5 213.0Q650.0 203.0 668.0 201.0Q686.0 199.0 701.0 206.0Q716.0 213.0 725.5 227.5Q735.0 242.0 737.0 261.5Q739.0 281.0 734.5 302.0Q730.0 323.0 719.0 342.5Q708.0 362.0 694.5 377.5Q681.0 393.0 668.0 403.5Q655.0 414.0 645.5 420.5Q636.0 427.0 633.0 431.0Q630.0 435.0 633.5 439.0Q637.0 443.0 646.5 449.5Q656.0 456.0 669.5 467.0Q683.0 478.0 697.0 494.0Q711.0 510.0 721.5 529.5Q732.0 549.0 737.0 570.5Q742.0 592.0 739.5 611.5Q737.0 631.0 727.5 645.5Q718.0 660.0 702.5 666.5Q687.0 673.0 669.0 671.0Q651.0 669.0 633.5 658.5Q616.0 648.0 601.0 631.5Q586.0 615.0 576.0 595.0Q566.0 575.0 561.0 556.0Q556.0 537.0 554.0 521.5Q552.0 506.0 551.0 497.0Q550.0 488.0 547.5 485.0Q545.0 482.0 538.0 485.0Q531.0 488.0 518.5 494.0Q506.0 500.0 488.0 505.5Q470.0 511.0 448.0 514.0Q426.0 517.0 403.5 514.5Q381.0 512.0 361.5 503.5Q342.0 495.0 328.5 481.5Q315.0 468.0 310.0 451.5Q305.0 435.0 310.0 418.5Q315.0 402.0 328.5 388.5Q342.0 375.0 362.0 367.0Q382.0 359.0 404.5 356.5Q427.0 354.0 449.0 356.5Q471.0 359.0 489.0 365.0Q507.0 371.0 519.0 376.5Q531.0 382.0 538.0 384.5Q545.0 387.0 547.5 384.0Q550.0 381.0 550.5 371.5Q551.0 362.0 553.0 346.0Q555.0 330.0 560.5 310.5Q566.0 291.0 576.5 270.5Q587.0 250.0 602.0 233.0Q617.0 216.0 635.0 205.5Q653.0 195.0 671.5 193.5Q690.0 192.0 705.0 199.0Q720.0 206.0 730.0 221.0Q740.0 236.0 742.5 256.0Q745.0 276.0 739.5 297.5Q734.0 319.0 723.0 339.0Q712.0 359.0 698.0 375.5Q684.0 392.0 670.5 403.0Q657.0 414.0 647.5 420.5Q638.0 427.0 634.5 431.0Q631.0 435.0 635.0 439.0Q639.0 443.0 649.0 450.0Q659.0 457.0 672.5 468.0Q686.0 479.0 700.5 495.5Q715.0 512.0 726.0 532.5Q737.0 553.0 742.0 574.5Q747.0 596.0 744.5 616.5Q742.0 637.0 732.0 652.0Q722.0 667.0 706.5 674.0Q691.0 681.0 672.0 678.5Q653.0 676.0 635.0 665.5Q617.0 655.0 602.0 637.5Q587.0 620.0 576.5 600.0Q566.0 580.0 560.5 560.0Q555.0 540.0 553.0 524.0Q551.0 508.0 550.0 498.5Q549.0 489.0 546.5 486.5Q544.0 484.0 537.0 487.0Q530.0 490.0 517.0 496.0Q504.0 502.0 485.5 508.0Q467.0 514.0 444.5 516.5Q422.0 519.0 398.5 516.5Q375.0 514.0 355.0 505.5Q335.0 497.0 321.0 483.0Q307.0 469.0 302.0 452.0Q297.0 435.0 302.0 418.0Q307.0 401.0 321.0 387.0Q335.0 373.0 355.5 364.5Q376.0 356.0 399.5 353.5Q423.0 351.0 445.0 354.0Q467.0 357.0 485.5 363.0Q504.0 369.0 517.0 375.0Q530.0 381.0 537.0 383.5Q544.0 386.0 546.5 383.0Q549.0 380.0 549.5 370.0Q550.0 360.0 552.0 343.5Q554.0 327.0 560.0 306.5Q566.0 286.0 576.5 265.5Q587.0 245.0 602.5 227.5Q618.0 210.0 636.5 199.0Q655.0 188.0 674.0 186.0Q693.0 184.0 709.0 191.5Q725.0 199.0 735.0 214.5Q745.0 230.0 747.5 250.5Q750.0 271.0 744.5 293.5Q739.0 316.0 728.0 336.5Q717.0 357.0 702.5 373.5Q688.0 390.0 674.0 401.5Q660.0 413.0 650.0 420.0Q640.0 427.0 636.5 431.0Q633.0 435.0 637.0 439.0Q641.0 443.0 651.0 450.0Q661.0 457.0 675.5 468.5Q690.0 480.0 704.5 497.0Q719.0 514.0 730.5 535.0Q742.0 556.0 747.0 578.5Q752.0 601.0 749.5 622.0Q747.0 643.0 736.5 658.5Q726.0 674.0 710.0 681.0Q694.0 688.0 675.0 686.0Q656.0 684.0 637.0 673.0Q618.0 662.0 602.5 644.0Q587.0 626.0 576.5 605.0Q566.0 584.0 560.0 563.5Q554.0 543.0 552.0 527.0Q550.0 511.0 549.5 501.0Q549.0 491.0 546.0 488.0Q543.0 485.0 535.5 488.0Q528.0 491.0 515.0 497.5Q502.0 504.0 482.5 510.0Q463.0 516.0 440.0 519.0Q417.0 522.0 393.0 519.0Q369.0 516.0 348.0 507.5Q327.0 499.0 313.0 484.5Q299.0 470.0 294.0 452.5Q289.0 435.0 294.0 417.5Q299.0 400.0 313.5 386.0Q328.0 372.0 349.0 363.0Q370.0 354.0 394.0 351.5Q418.0 349.0 441.0 352.0Q464.0 355.0 483.0 361.0Q502.0 367.0 515.5 373.0Q529.0 379.0 536.0 381.5Q543.0 384.0 545.5 381.0Q548.0 378.0 549.0 367.5Q550.0 357.0 552.0 340.5Q554.0 324.0 559.5 303.0Q565.0 282.0 576.0 260.5Q587.0 239.0 603.0 221.0Q619.0 203.0 638.5 192.0Q658.0 181.0 677.5 179.0Q697.0 177.0 713.0 184.5Q729.0 192.0 739.5 208.0Q750.0 224.0 752.5 245.0Q755.0 266.0 749.5 289.0Q744.0 312.0 732.5 333.5Q721.0 355.0 706.0 372.0Q691.0 389.0 676.5 401.0Q662.0 413.0 652.0 420.0Q642.0 427.0 638.5 431.0Q635.0 435.0 639.0 439.5Q643.0 444.0 653.5 451.0Q664.0 458.0 678.5 470.0Q693.0 482.0 708.0 499.0Q723.0 516.0 735.0 538.0Q747.0 560.0 752.0 583.0Q757.0 606.0 754.5 627.5Q752.0 649.0 741.5 665.0Q731.0 681.0 714.5 688.0Q698.0 695.0 678.0 693.0Q658.0 691.0 638.5 679.5Q619.0 668.0 603.0 650.0Q587.0 632.0 576.0 610.0Q565.0 588.0 559.5 567.0Q554.0 546.0 552.0 529.5Q550.0 513.0 549.0 503.0Q548.0 493.0 545.0 490.0Q542.0 487.0 534.5 490.0Q527.0 493.0 513.5 499.5Q500.0 506.0 480.0 512.0Q460.0 518.0 436.5 521.0Q413.0 524.0 388.0 521.5Q363.0 519.0 341.5 509.5Q320.0 500.0 305.5 485.5Q291.0 471.0 286.0 453.0Q281.0 435.0 286.0 417.0Q291.0 399.0 306.0 384.5Q321.0 370.0 342.5 361.0Q364.0 352.0 389.0 349.0Q414.0 346.0 437.5 349.0Q461.0 352.0 480.5 358.5Q500.0 365.0 513.5 371.0Q527.0 377.0 534.5 380.0Q542.0 383.0 544.5 379.5Q547.0 376.0 548.0 365.5Q549.0 355.0 551.0 338.0Q553.0 321.0 559.0 299.5Q565.0 278.0 576.5 256.0Q588.0 234.0 604.5 215.0Q621.0 196.0 640.5 184.5Q660.0 173.0 680.0 171.0Q700.0 169.0 717.0 177.0Q734.0 185.0 744.5 201.5Q755.0 218.0 757.5 239.5Q760.0 261.0 754.5 285.0Q749.0 309.0 737.0 331.0Q725.0 353.0 709.5 370.5Q694.0 388.0 679.5 400.0Q665.0 412.0 654.5 419.0Q644.0 426.0 640.0 430.5Q636.0 435.0 640.5 439.5Q645.0 444.0 655.5 451.0Q666.0 458.0 681.5 470.5Q697.0 483.0 712.0 501.0Q727.0 519.0 739.5 541.0Q752.0 563.0 757.0 587.0Q762.0 611.0 759.5 633.0Q757.0 655.0 746.0 671.0Q735.0 687.0 718.0 695.0Q701.0 703.0 681.0 700.5Q661.0 698.0 641.0 686.5Q621.0 675.0 604.5 656.0Q588.0 637.0 576.5 615.0Q565.0 593.0 559.0 571.0Q553.0 549.0 551.0 532.0Q549.0 515.0 548.0 504.5Q547.0 494.0 544.0 491.0Q541.0 488.0 533.5 491.5Q526.0 495.0 511.5 501.5Q497.0 508.0 477.0 514.5Q457.0 521.0 432.5 524.0Q408.0 527.0 382.5 524.0Q357.0 521.0 335.0 511.5Q313.0 502.0 298.0 487.0Q283.0 472.0 277.5 453.5Q272.0 435.0 277.5 416.5Q283.0 398.0 298.5 383.0Q314.0 368.0 336.0 358.5Q358.0 349.0 383.5 346.5Q409.0 344.0 433.5 347.0Q458.0 350.0 478.0 356.5Q498.0 363.0 512.0 369.5Q526.0 376.0 533.5 378.5Q541.0 381.0 544.0 378.0Q547.0 375.0 547.5 364.0Q548.0 353.0 550.5 335.0Q553.0 317.0 559.0 295.0Q565.0 273.0 576.5 250.5Q588.0 228.0 605.0 209.0Q622.0 190.0 642.0 178.0Q662.0 166.0 682.5 164.0Q703.0 162.0 720.5 170.0Q738.0 178.0 749.0 194.5Q760.0 211.0 762.5 233.5Q765.0 256.0 759.5 280.5Q754.0 305.0 741.5 327.5Q729.0 350.0 713.5 368.0Q698.0 386.0 682.5 398.5Q667.0 411.0 656.5 418.5Q646.0 426.0 642.0 430.5Q638.0 435.0 642.5 439.5Q647.0 444.0 658.0 451.5Q669.0 459.0 684.5 471.5Q700.0 484.0 716.0 502.5Q732.0 521.0 744.0 544.0Q756.0 567.0 762.0 591.5Q768.0 616.0 765.0 638.5Q762.0 661.0 751.0 677.5Q740.0 694.0 722.5 702.0Q705.0 710.0 684.0 708.0Q663.0 706.0 642.5 693.5Q622.0 681.0 605.0 662.0Q588.0 643.0 576.5 620.0Q565.0 597.0 559.0 575.0Q553.0 553.0 550.5 535.0Q548.0 517.0 547.0 506.5Q546.0 496.0 543.0 493.0Q540.0 490.0 532.0 493.0Q524.0 496.0 509.5 503.0Q495.0 510.0 474.5 516.5Q454.0 523.0 428.5 526.0Q403.0 529.0 377.0 526.5Q351.0 524.0 328.5 514.0Q306.0 504.0 290.5 488.5Q275.0 473.0 269.5 454.0Q264.0 435.0 269.5 416.0Q275.0 397.0 291.0 381.5Q307.0 366.0 329.5 356.5Q352.0 347.0 378.0 344.0Q404.0 341.0 429.5 344.5Q455.0 348.0 475.5 354.5Q496.0 361.0 510.5 367.5Q525.0 374.0 532.5 377.0Q540.0 380.0 543.0 376.5Q546.0 373.0 547.0 362.0Q548.0 351.0 550.0 332.5Q552.0 314.0 558.5 291.5Q565.0 269.0 576.5 245.5Q588.0 222.0 605.5 202.5Q623.0 183.0 644.0 171.0Q665.0 159.0 686.0 157.0Q707.0 155.0 725.0 163.0Q743.0 171.0 754.0 188.0Q765.0 205.0 767.5 228.0Q770.0 251.0 764.5 276.5Q759.0 302.0 746.0 325.0Q733.0 348.0 717.0 366.5Q701.0 385.0 685.5 398.0Q670.0 411.0 659.0 418.5Q648.0 426.0 644.0 430.5Q640.0 435.0 644.5 439.5Q649.0 444.0 660.5 452.0Q672.0 460.0 687.5 473.0Q703.0 486.0 719.5 504.5Q736.0 523.0 748.5 546.5Q761.0 570.0 767.0 595.5Q773.0 621.0 770.0 644.0Q767.0 667.0 755.5 684.0Q744.0 701.0 726.0 709.5Q708.0 718.0 686.5 715.5Q665.0 713.0 644.0 700.5Q623.0 688.0 605.5 668.0Q588.0 648.0 576.5 624.5Q565.0 601.0 558.5 578.5Q552.0 556.0 550.0 537.5Q548.0 519.0 547.0 508.5Q546.0 498.0 542.5 494.5Q539.0 491.0 531.0 494.5Q523.0 498.0 508.0 505.0Q493.0 512.0 471.5 519.0Q450.0 526.0 424.5 529.0Q399.0 532.0 372.0 529.0Q345.0 526.0 322.0 516.0Q299.0 506.0 283.0 490.0Q267.0 474.0 261.5 454.5Q256.0 435.0 261.5 415.5Q267.0 396.0 283.0 380.0Q299.0 364.0 322.5 354.0Q346.0 344.0 373.0 341.5Q400.0 339.0 425.5 342.0Q451.0 345.0 472.5 352.0Q494.0 359.0 508.5 365.5Q523.0 372.0 531.0 375.5Q539.0 379.0 542.0 375.0Q545.0 371.0 546.0 359.5Q547.0 348.0 549.0 329.5Q551.0 311.0 557.5 287.5Q564.0 264.0 576.5 240.5Q589.0 217.0 606.5 196.5Q624.0 176.0 645.5 164.0Q667.0 152.0 688.5 149.5Q710.0 147.0 728.5 155.5Q747.0 164.0 758.5 181.5Q770.0 199.0 773.0 223.0Q776.0 247.0 770.0 272.5Q764.0 298.0 751.0 322.0Q738.0 346.0 721.0 365.0Q704.0 384.0 688.0 397.0Q672.0 410.0 661.0 418.0Q650.0 426.0 646.0 430.5Q642.0 435.0 646.0 440.0Q650.0 445.0 662.0 452.5Q674.0 460.0 690.5 473.5Q707.0 487.0 723.5 506.5Q740.0 526.0 753.0 550.0Q766.0 574.0 772.0 600.0Q778.0 626.0 775.0 649.5Q772.0 673.0 760.5 690.5Q749.0 708.0 730.0 716.5Q711.0 725.0 689.5 722.5Q668.0 720.0 646.5 707.5Q625.0 695.0 607.0 674.5Q589.0 654.0 576.5 630.0Q564.0 606.0 557.5 582.5Q551.0 559.0 549.0 540.5Q547.0 522.0 546.0 510.5Q545.0 499.0 541.5 496.0Q538.0 493.0 530.0 496.5Q522.0 500.0 506.5 507.0Q491.0 514.0 469.0 521.0Q447.0 528.0 420.5 531.0Q394.0 534.0 366.5 531.0Q339.0 528.0 315.0 518.0Q291.0 508.0 275.0 491.5Q259.0 475.0 253.0 455.0Q247.0 435.0 253.0 415.0Q259.0 395.0 275.5 378.5Q292.0 362.0 316.0 352.0Q340.0 342.0 367.5 339.0Q395.0 336.0 421.5 339.5Q448.0 343.0 470.0 350.0Q492.0 357.0 507.0 364.0Q522.0 371.0 530.0 374.0Q538.0 377.0 541.0 373.5Q544.0 370.0 545.0 358.0Q546.0 346.0 548.5 327.0Q551.0 308.0 557.5 284.0Q564.0 260.0 576.5 235.5Q589.0 211.0 607.5 190.5Q626.0 170.0 647.5 157.0Q669.0 144.0 691.5 142.0Q714.0 140.0 732.5 148.5Q751.0 157.0 763.0 175.0Q775.0 193.0 778.0 217.5Q781.0 242.0 774.5 268.5Q768.0 295.0 755.0 319.0Q742.0 343.0 725.0 362.5Q708.0 382.0 691.5 395.5Q675.0 409.0 663.0 417.0Q651.0 425.0 647.0 430.0Q643.0 435.0 647.5 440.0Q652.0 445.0 664.5 453.0Q677.0 461.0 693.5 474.5Q710.0 488.0 727.0 508.0Q744.0 528.0 757.5 552.5Q771.0 577.0 777.0 604.0Q783.0 631.0 780.0 655.0Q777.0 679.0 765.0 697.0Q753.0 715.0 734.0 723.5Q715.0 732.0 692.5 729.5Q670.0 727.0 648.0 714.0Q626.0 701.0 607.5 680.0Q589.0 659.0 576.5 634.5Q564.0 610.0 557.5 586.0Q551.0 562.0 548.5 543.0Q546.0 524.0 545.0 512.5Q544.0 501.0 540.5 497.5Q537.0 494.0 528.5 497.5Q520.0 501.0 504.5 508.5Q489.0 516.0 466.5 523.0Q444.0 530.0 417.0 533.5Q390.0 537.0 361.5 534.0Q333.0 531.0 308.5 520.5Q284.0 510.0 267.5 493.0Q251.0 476.0 245.0 455.5Q239.0 435.0 245.0 414.5Q251.0 394.0 268.0 377.5Q285.0 361.0 310.0 350.5Q335.0 340.0 363.0 337.0Q391.0 334.0 418.0 337.5Q445.0 341.0 467.5 348.0Q490.0 355.0 505.5 362.0Q521.0 369.0 529.0 372.5Q537.0 376.0 540.5 372.0Q544.0 368.0 544.5 356.0Q545.0 344.0 547.5 324.5Q550.0 305.0 557.0 280.5Q564.0 256.0 576.5 230.5Q589.0 205.0 608.0 184.0Q627.0 163.0 649.5 150.0Q672.0 137.0 694.5 134.5Q717.0 132.0 736.5 141.0Q756.0 150.0 768.0 168.5Q780.0 187.0 783.0 212.0Q786.0 237.0 779.5 264.0Q773.0 291.0 759.5 316.0Q746.0 341.0 728.5 361.0Q711.0 381.0 694.0 395.0Q677.0 409.0 665.0 417.0Q653.0 425.0 649.0 430.0Q645.0 435.0 649.5 440.0Q654.0 445.0 666.5 453.5Q679.0 462.0 696.0 476.0Q713.0 490.0 731.0 510.0Q749.0 530.0 762.5 555.5Q776.0 581.0 782.0 608.0Q788.0 635.0 785.0 660.0Q782.0 685.0 769.5 703.5Q757.0 722.0 737.5 731.0Q718.0 740.0 695.0 737.5Q672.0 735.0 649.5 721.5Q627.0 708.0 608.0 686.5Q589.0 665.0 576.5 639.5Q564.0 614.0 557.0 589.5Q550.0 565.0 547.5 545.5Q545.0 526.0 544.0 514.0Q543.0 502.0 540.0 499.0Q537.0 496.0 528.0 499.5Q519.0 503.0 503.0 510.5Q487.0 518.0 464.0 525.5Q441.0 533.0 413.0 536.0Q385.0 539.0 356.0 536.0Q327.0 533.0 302.0 522.5Q277.0 512.0 260.0 494.5Q243.0 477.0 237.0 456.0Q231.0 435.0 237.0 414.0Q243.0 393.0 260.5 376.0Q278.0 359.0 303.5 348.0Q329.0 337.0 357.5 334.0Q386.0 331.0 414.0 334.5Q442.0 338.0 465.0 345.5Q488.0 353.0 503.5 360.5Q519.0 368.0 527.5 371.0Q536.0 374.0 539.5 370.0Q543.0 366.0 544.0 354.0Q545.0 342.0 547.5 321.5Q550.0 301.0 556.5 276.0Q563.0 251.0 576.5 225.5Q590.0 200.0 609.0 178.0Q628.0 156.0 651.0 143.0Q674.0 130.0 697.5 127.5Q721.0 125.0 740.5 134.0Q760.0 143.0 772.5 162.0Q785.0 181.0 788.0 206.5Q791.0 232.0 784.5 259.5Q778.0 287.0 764.0 313.0Q750.0 339.0 732.0 359.5Q714.0 380.0 697.0 394.0Q680.0 408.0 667.5 416.5Q655.0 425.0 651.0 430.0Q647.0 435.0 651.5 440.0Q656.0 445.0 669.0 453.5Q682.0 462.0 699.5 476.5Q717.0 491.0 735.0 512.0Q753.0 533.0 767.0 559.0Q781.0 585.0 787.5 612.5Q794.0 640.0 790.5 665.5Q787.0 691.0 774.5 710.0Q762.0 729.0 742.0 738.0Q722.0 747.0 698.5 744.5Q675.0 742.0 651.5 728.5Q628.0 715.0 609.0 693.0Q590.0 671.0 576.5 645.0Q563.0 619.0 556.5 593.5Q550.0 568.0 547.5 548.0Q545.0 528.0 543.5 516.0Q542.0 504.0 539.0 500.5Q536.0 497.0 527.0 500.5Q518.0 504.0 501.5 512.0Q485.0 520.0 461.0 527.5Q437.0 535.0 408.5 538.5Q380.0 542.0 350.5 538.5Q321.0 535.0 295.5 524.0Q270.0 513.0 252.5 495.5Q235.0 478.0 229.0 456.5Q223.0 435.0 229.0 413.5Q235.0 392.0 253.0 374.5Q271.0 357.0 297.0 346.0Q323.0 335.0 352.5 332.0Q382.0 329.0 410.5 332.5Q439.0 336.0 462.5 343.5Q486.0 351.0 502.0 358.5Q518.0 366.0 526.5 369.5Q535.0 373.0 538.5 369.0Q542.0 365.0 543.0 352.0Q544.0 339.0 546.5 318.5Q549.0 298.0 556.0 272.5Q563.0 247.0 576.5 220.5Q590.0 194.0 609.5 172.0Q629.0 150.0 653.0 136.0Q677.0 122.0 700.5 119.5Q724.0 117.0 744.5 126.5Q765.0 136.0 777.5 155.5Q790.0 175.0 793.0 201.0Q796.0 227.0 789.5 255.5Q783.0 284.0 768.5 310.0Q754.0 336.0 736.0 357.5Q718.0 379.0 700.0 393.0Q682.0 407.0 669.5 416.0Q657.0 425.0 652.5 430.0Q648.0 435.0 653.0 440.5Q658.0 446.0 671.0 454.5Q684.0 463.0 702.0 477.5Q720.0 492.0 738.5 513.5Q757.0 535.0 771.5 561.5Q786.0 588.0 792.5 616.5Q799.0 645.0 795.5 671.5Q792.0 698.0 779.0 717.0Q766.0 736.0 745.5 745.5Q725.0 755.0 701.0 752.0Q677.0 749.0 653.5 735.0Q630.0 721.0 610.0 698.5Q590.0 676.0 576.5 649.5Q563.0 623.0 556.0 597.5Q549.0 572.0 546.5 551.5Q544.0 531.0 543.0 518.5Q542.0 506.0 538.5 502.5Q535.0 499.0 525.5 502.5Q516.0 506.0 499.5 514.0Q483.0 522.0 458.5 529.5Q434.0 537.0 405.0 541.0Q376.0 545.0 345.5 541.5Q315.0 538.0 289.0 526.5Q263.0 515.0 245.0 497.0Q227.0 479.0 220.5 457.0Q214.0 435.0 220.5 413.0Q227.0 391.0 245.5 373.0Q264.0 355.0 290.5 344.0Q317.0 333.0 347.0 329.5Q377.0 326.0 406.0 330.0Q435.0 334.0 459.0 341.5Q483.0 349.0 500.0 356.5Q517.0 364.0 526.0 367.5Q535.0 371.0 538.0 367.0Q541.0 363.0 542.0 350.0Q543.0 337.0 545.5 316.0Q548.0 295.0 555.5 268.5Q563.0 242.0 577.0 215.0Q591.0 188.0 611.0 165.5Q631.0 143.0 655.0 129.0Q679.0 115.0 703.5 112.5Q728.0 110.0 748.5 119.5Q769.0 129.0 782.0 149.0Q795.0 169.0 798.0 195.5Q801.0 222.0 794.5 251.0Q788.0 280.0 773.0 307.0Q758.0 334.0 739.5 355.5Q721.0 377.0 703.0 392.0Q685.0 407.0 672.0 415.5Q659.0 424.0 654.5 429.5Q650.0 435.0 655.0 440.5Q660.0 446.0 673.5 455.0Q687.0 464.0 705.0 479.0Q723.0 494.0 742.0 515.5Q761.0 537.0 776.0 564.5Q791.0 592.0 797.5 621.0Q804.0 650.0 800.5 677.0Q797.0 704.0 784.0 723.5Q771.0 743.0 750.0 752.5Q729.0 762.0 704.0 759.0Q679.0 756.0 655.0 742.0Q631.0 728.0 611.0 705.0Q591.0 682.0 577.0 654.5Q563.0 627.0 555.5 601.0Q548.0 575.0 545.5 554.0Q543.0 533.0 542.0 520.0Q541.0 507.0 537.5 503.5Q534.0 500.0 524.5 504.0Q515.0 508.0 497.5 516.0Q480.0 524.0 455.5 532.0Q431.0 540.0 401.0 543.5Q371.0 547.0 340.0 543.5Q309.0 540.0 282.0 528.5Q255.0 517.0 237.0 498.5Q219.0 480.0 212.5 457.5Q206.0 435.0 212.5 412.5Q219.0 390.0 238.0 371.5Q257.0 353.0 284.0 341.5Q311.0 330.0 342.0 327.0Q373.0 324.0 402.5 327.5Q432.0 331.0 456.5 339.0Q481.0 347.0 498.0 355.0Q515.0 363.0 524.5 366.5Q534.0 370.0 537.0 366.0Q540.0 362.0 541.0 348.5Q542.0 335.0 545.0 313.5Q548.0 292.0 555.5 265.0Q563.0 238.0 577.0 210.5Q591.0 183.0 611.5 159.5Q632.0 136.0 656.5 122.0Q681.0 108.0 706.0 105.5Q731.0 103.0 752.5 112.5Q774.0 122.0 787.0 142.5Q800.0 163.0 803.5 190.5Q807.0 218.0 800.0 247.5Q793.0 277.0 778.0 304.5Q763.0 332.0 743.5 354.0Q724.0 376.0 705.5 391.0Q687.0 406.0 674.0 415.0Q661.0 424.0 656.5 429.5Q652.0 435.0 657.0 440.5Q662.0 446.0 675.5 455.0Q689.0 464.0 708.0 479.5Q727.0 495.0 746.0 517.5Q765.0 540.0 780.5 567.5Q796.0 595.0 802.5 625.0Q809.0 655.0 805.5 682.5Q802.0 710.0 788.5 730.0Q775.0 750.0 753.5 759.5Q732.0 769.0 707.0 766.5Q682.0 764.0 657.0 749.0Q632.0 734.0 611.5 710.5Q591.0 687.0 577.0 659.5Q563.0 632.0 555.5 605.0Q548.0 578.0 545.5 556.5Q543.0 535.0 541.5 522.0Q540.0 509.0 536.5 505.0Q533.0 501.0 523.0 505.0Q513.0 509.0 495.5 517.5Q478.0 526.0 453.0 534.0Q428.0 542.0 397.5 546.0Q367.0 550.0 335.0 546.5Q303.0 543.0 275.5 531.0Q248.0 519.0 229.5 500.0Q211.0 481.0 204.5 458.0Q198.0 435.0 204.5 412.0Q211.0 389.0 230.0 370.0Q249.0 351.0 277.0 339.5Q305.0 328.0 336.5 324.5Q368.0 321.0 398.5 325.0Q429.0 329.0 454.0 337.0Q479.0 345.0 496.5 353.0Q514.0 361.0 523.5 364.5Q533.0 368.0 536.5 364.0Q540.0 360.0 541.0 346.5Q542.0 333.0 544.5 311.0Q547.0 289.0 554.5 261.5Q562.0 234.0 576.5 205.5Q591.0 177.0 612.0 153.5Q633.0 130.0 658.5 115.0Q684.0 100.0 709.5 97.5Q735.0 95.0 756.5 105.0Q778.0 115.0 791.5 136.0Q805.0 157.0 808.5 185.0Q812.0 213.0 804.5 243.0Q797.0 273.0 782.0 301.5Q767.0 330.0 747.5 352.5Q728.0 375.0 709.0 390.5Q690.0 406.0 676.5 415.0Q663.0 424.0 658.5 429.5Q654.0 435.0 659.0 440.5Q664.0 446.0 678.0 455.5Q692.0 465.0 711.0 480.5Q730.0 496.0 750.0 519.0Q770.0 542.0 785.0 570.5Q800.0 599.0 807.0 629.5Q814.0 660.0 810.5 688.0Q807.0 716.0 793.5 736.5Q780.0 757.0 758.0 767.0Q736.0 777.0 710.0 774.0Q684.0 771.0 658.5 756.0Q633.0 741.0 612.0 717.0Q591.0 693.0 576.5 664.5Q562.0 636.0 554.5 608.5Q547.0 581.0 544.5 559.0Q542.0 537.0 540.5 524.0Q539.0 511.0 535.5 507.0Q532.0 503.0 522.0 507.0Q512.0 511.0 494.0 519.5Q476.0 528.0 450.0 536.0Q424.0 544.0 393.0 548.0Q362.0 552.0 329.5 548.5Q297.0 545.0 269.0 533.0Q241.0 521.0 222.0 501.5Q203.0 482.0 196.0 458.5Q189.0 435.0 196.0 411.5Q203.0 388.0 222.5 369.0Q242.0 350.0 270.5 338.0Q299.0 326.0 331.5 322.5Q364.0 319.0 395.0 323.0Q426.0 327.0 451.5 335.0Q477.0 343.0 495.0 351.5Q513.0 360.0 522.5 363.5Q532.0 367.0 535.5 362.5Q539.0 358.0 540.0 344.0Q541.0 330.0 543.5 307.5Q546.0 285.0 554.0 257.0Q562.0 229.0 577.0 200.5Q592.0 172.0 613.5 147.5Q635.0 123.0 660.5 108.0Q686.0 93.0 712.0 90.5Q738.0 88.0 760.0 98.0Q782.0 108.0 796.0 129.5Q810.0 151.0 813.5 179.5Q817.0 208.0 809.5 239.0Q802.0 270.0 786.5 298.5Q771.0 327.0 751.0 350.0Q731.0 373.0 711.5 389.0Q692.0 405.0 678.5 414.5Q665.0 424.0 660.0 429.5Q655.0 435.0 660.5 440.5Q666.0 446.0 680.0 456.0Q694.0 466.0 714.0 482.0Q734.0 498.0 754.0 521.0Q774.0 544.0 789.5 573.0Q805.0 602.0 812.5 633.5Q820.0 665.0 816.0 693.5Q812.0 722.0 798.0 743.0Q784.0 764.0 761.5 774.0Q739.0 784.0 713.0 781.0Q687.0 778.0 661.0 763.0Q635.0 748.0 613.5 723.0Q592.0 698.0 577.0 669.0Q562.0 640.0 554.5 612.0Q547.0 584.0 544.0 561.5Q541.0 539.0 540.0 525.5Q539.0 512.0 535.0 508.0Q531.0 504.0 521.0 508.5Q511.0 513.0 492.5 521.5Q474.0 530.0 447.5 538.5Q421.0 547.0 389.0 551.0Q357.0 555.0 324.0 551.0Q291.0 547.0 262.5 535.0Q234.0 523.0 214.5 503.0Q195.0 483.0 188.0 459.0Q181.0 435.0 188.0 411.0Q195.0 387.0 215.0 367.5Q235.0 348.0 264.0 335.5Q293.0 323.0 326.0 319.5Q359.0 316.0 391.0 320.0Q423.0 324.0 449.0 332.5Q475.0 341.0 493.0 349.5Q511.0 358.0 521.0 361.5Q531.0 365.0 534.5 361.0Q538.0 357.0 539.0 342.5Q540.0 328.0 543.0 305.0Q546.0 282.0 554.0 253.5Q562.0 225.0 577.0 195.5Q592.0 166.0 614.0 141.0Q636.0 116.0 662.0 101.0Q688.0 86.0 715.0 83.0Q742.0 80.0 764.5 90.5Q787.0 101.0 801.0 123.0Q815.0 145.0 818.5 174.0Q822.0 203.0 814.5 234.5Q807.0 266.0 791.0 295.5Q775.0 325.0 754.5 348.5Q734.0 372.0 714.5 388.0Q695.0 404.0 681.0 413.5Q667.0 423.0 662.0 429.0Q657.0 435.0 662.5 441.0Q668.0 447.0 682.5 456.5Q697.0 466.0 717.0 482.5Q737.0 499.0 757.5 523.0Q778.0 547.0 794.0 576.5Q810.0 606.0 817.5 638.0Q825.0 670.0 821.0 699.0Q817.0 728.0 802.5 749.5Q788.0 771.0 765.5 781.5Q743.0 792.0 716.0 789.0Q689.0 786.0 662.5 770.0Q636.0 754.0 614.0 729.0Q592.0 704.0 577.0 674.5Q562.0 645.0 554.0 616.0Q546.0 587.0 543.0 564.5Q540.0 542.0 539.0 528.0Q538.0 514.0 534.0 510.0Q530.0 506.0 519.5 510.0Q509.0 514.0 490.5 523.0Q472.0 532.0 445.0 540.5Q418.0 549.0 385.5 553.0Q353.0 557.0 319.5 553.5Q286.0 550.0 256.5 537.0Q227.0 524.0 207.0 504.0Q187.0 484.0 180.0 459.5Q173.0 435.0 180.0 410.5Q187.0 386.0 207.5 366.0Q228.0 346.0 257.5 333.5Q287.0 321.0 321.0 317.5Q355.0 314.0 387.0 318.0Q419.0 322.0 446.0 330.5Q473.0 339.0 491.5 347.5Q510.0 356.0 520.0 360.0Q530.0 364.0 533.5 359.5Q537.0 355.0 538.5 340.5Q540.0 326.0 542.5 302.5Q545.0 279.0 553.5 249.5Q562.0 220.0 577.0 190.0Q592.0 160.0 614.5 135.0Q637.0 110.0 664.0 94.5Q691.0 79.0 718.0 76.0Q745.0 73.0 768.0 83.5Q791.0 94.0 805.5 116.5Q820.0 139.0 823.5 168.5Q827.0 198.0 819.5 230.5Q812.0 263.0 795.5 293.0Q779.0 323.0 758.5 347.0Q738.0 371.0 717.5 387.5Q697.0 404.0 683.0 413.5Q669.0 423.0 664.0 429.0Q659.0 435.0 664.5 441.0Q670.0 447.0 684.5 457.0Q699.0 467.0 719.5 483.5Q740.0 500.0 761.0 524.5Q782.0 549.0 798.5 579.0Q815.0 609.0 822.5 641.5Q830.0 674.0 826.0 704.0Q822.0 734.0 807.5 756.0Q793.0 778.0 769.5 788.5Q746.0 799.0 718.5 796.0Q691.0 793.0 664.0 777.0Q637.0 761.0 614.5 735.5Q592.0 710.0 577.0 679.5Q562.0 649.0 553.5 619.5Q545.0 590.0 542.5 567.0Q540.0 544.0 538.5 529.5Q537.0 515.0 533.0 511.0Q529.0 507.0 518.5 511.5Q508.0 516.0 489.0 525.0Q470.0 534.0 442.5 542.5Q415.0 551.0 381.5 555.5Q348.0 560.0 314.0 556.0Q280.0 552.0 250.0 539.0Q220.0 526.0 199.5 505.5Q179.0 485.0 172.0 460.0Q165.0 435.0 172.0 410.0Q179.0 385.0 200.0 364.5Q221.0 344.0 251.0 331.5Q281.0 319.0 315.5 315.0Q350.0 311.0 383.0 315.5Q416.0 320.0 443.5 328.5Q471.0 337.0 490.0 346.0Q509.0 355.0 519.0 358.5Q529.0 362.0 533.0 357.5Q537.0 353.0 538.0 338.5Q539.0 324.0 542.0 300.0Q545.0 276.0 553.0 246.0Q561.0 216.0 577.0 185.5Q593.0 155.0 615.5 129.0Q638.0 103.0 665.5 87.0Q693.0 71.0 721.0 68.5Q749.0 66.0 772.5 76.5Q796.0 87.0 810.5 110.0Q825.0 133.0 828.5 163.0Q832.0 193.0 824.5 226.0Q817.0 259.0 800.0 289.5Q783.0 320.0 762.0 344.5Q741.0 369.0 720.5 386.0Q700.0 403.0 685.5 413.0Q671.0 423.0 665.5 429.0Q660.0 435.0 666.0 441.0Q672.0 447.0 687.0 457.5Q702.0 468.0 723.0 485.0Q744.0 502.0 765.5 526.5Q787.0 551.0 803.5 582.0Q820.0 613.0 827.5 646.0Q835.0 679.0 831.0 709.5Q827.0 740.0 812.0 762.5Q797.0 785.0 773.5 795.5Q750.0 806.0 722.0 803.0Q694.0 800.0 666.0 783.5Q638.0 767.0 615.5 741.0Q593.0 715.0 577.0 684.0Q561.0 653.0 553.0 623.5Q545.0 594.0 542.0 570.0Q539.0 546.0 537.5 531.5Q536.0 517.0 532.0 513.0Q528.0 509.0 517.5 513.5Q507.0 518.0 487.5 527.0Q468.0 536.0 440.0 545.0Q412.0 554.0 378.0 558.0Q344.0 562.0 309.0 558.0Q274.0 554.0 243.0 541.0Q212.0 528.0 191.5 507.0Q171.0 486.0 163.5 460.5Q156.0 435.0 163.5 409.5Q171.0 384.0 192.5 363.0Q214.0 342.0 244.5 329.0Q275.0 316.0 310.0 312.5Q345.0 309.0 379.0 313.0Q413.0 317.0 441.0 326.0Q469.0 335.0 488.0 344.0Q507.0 353.0 517.5 357.0Q528.0 361.0 532.0 356.5Q536.0 352.0 537.0 337.0Q538.0 322.0 541.0 297.5Q544.0 273.0 552.5 242.5Q561.0 212.0 577.0 180.5Q593.0 149.0 616.5 122.5Q640.0 96.0 668.0 80.0Q696.0 64.0 724.0 61.0Q752.0 58.0 776.0 69.0Q800.0 80.0 815.0 103.5Q830.0 127.0 833.5 158.0Q837.0 189.0 829.5 222.5Q822.0 256.0 805.0 287.0Q788.0 318.0 766.0 343.0Q744.0 368.0 723.0 385.0Q702.0 402.0 687.5 412.5Q673.0 423.0 667.5 429.0Q662.0 435.0 668.0 441.0Q674.0 447.0 689.0 457.5Q704.0 468.0 725.5 485.5Q747.0 503.0 769.0 528.5Q791.0 554.0 808.0 585.5Q825.0 617.0 832.5 650.5Q840.0 684.0 836.0 715.0Q832.0 746.0 817.0 769.0Q802.0 792.0 777.5 803.0Q753.0 814.0 724.5 810.5Q696.0 807.0 668.0 790.5Q640.0 774.0 616.5 747.5Q593.0 721.0 577.0 689.5Q561.0 658.0 552.5 627.5Q544.0 597.0 541.0 572.5Q538.0 548.0 537.0 533.5Q536.0 519.0 531.5 514.5Q527.0 510.0 516.0 514.5Q505.0 519.0 485.5 528.5Q466.0 538.0 437.0 547.0Q408.0 556.0 373.5 560.5Q339.0 565.0 303.5 561.0Q268.0 557.0 236.5 543.5Q205.0 530.0 184.0 508.5Q163.0 487.0 155.5 461.0Q148.0 435.0 155.5 409.0Q163.0 383.0 185.0 361.5Q207.0 340.0 238.0 327.0Q269.0 314.0 305.0 310.0Q341.0 306.0 375.5 310.5Q410.0 315.0 438.5 324.0Q467.0 333.0 486.5 342.0Q506.0 351.0 516.5 355.5Q527.0 360.0 531.0 355.0Q535.0 350.0 536.0 334.5Q537.0 319.0 540.0 294.0Q543.0 269.0 552.0 238.0Q561.0 207.0 577.0 175.0Q593.0 143.0 617.0 116.5Q641.0 90.0 669.5 73.5Q698.0 57.0 727.0 54.0Q756.0 51.0 780.5 62.0Q805.0 73.0 820.0 96.5Q835.0 120.0 839.0 152.0Q843.0 184.0 835.0 218.0Q827.0 252.0 809.5 284.0Q792.0 316.0 770.0 341.5Q748.0 367.0 726.5 384.5Q705.0 402.0 689.5 412.0Q674.0 422.0 669.0 428.5Q664.0 435.0 670.0 441.5Q676.0 448.0 691.5 458.5Q707.0 469.0 728.5 486.5Q750.0 504.0 772.5 530.0Q795.0 556.0 812.5 588.0Q830.0 620.0 838.0 654.5Q846.0 689.0 842.0 720.5Q838.0 752.0 822.0 775.5"/>
  </g>
</svg>
