<svg version="1.1" width="1150" height="870" xmlns="http://www.w3.org/2000/svg">
  <!-- Seed: 4715592042874271903 -->
  <!-- Size: SvgSize.Size9x12 -->
  <!-- Params:
    draw: True
    padding: 0
    spacing: 5
    points_per_step_ring: 50
    bump_range: [RangeFloat] min: 0 max: 0.1
    bump_mult: [RangeInt] min: 2 max: 20
  -->
  <g stroke="black" fill="none">
    <path d="M575.0 435.5Q575.0 436.0 574.5 436.0Q574.0 436.0 573.5 436.0Q573.0 436.0 573.0 435.5Q573.0 435.0 573.0 434.5Q573.0 434.0 572.5 434.0Q572.0 434.0 572.0 433.5Q572.0 433.0 572.0 432.5Q572.0 432.0 572.5 432.0Q573.0 432.0 573.5 432.0Q574.0 432.0 574.5 432.0Q575.0 432.0 575.0 431.5Q575.0 431.0 575.5 431.0Q576.0 431.0 576.5 431.0Q577.0 431.0 577.5 431.0Q578.0 431.0 578.0 431.5Q578.0 432.0 578.0 432.5Q578.0 433.0 578.5 433.5Q579.0 434.0 579.5 434.0Q580.0 434.0 580.5 434.5Q581.0 435.0 581.0 435.5Q581.0 436.0 580.5 436.5Q580.0 437.0 579.5 437.0Q579.0 437.0 579.0 437.5Q579.0 438.0 578.5 438.0Q578.0 438.0 578.0 438.5Q578.0 439.0 578.0 439.5Q578.0 440.0 578.0 440.5Q578.0 441.0 577.5 441.5Q577.0 442.0 576.5 442.0Q576.0 442.0 575.5 442.0Q575.0 442.0 574.5 441.5Q574.0 441.0 573.5 440.5Q573.0 440.0 572.5 440.0Q572.0 440.0 571.5 440.0Q571.0 440.0 570.5 440.0Q570.0 440.0 569.0 440.0Q568.0 440.0 568.0 439.5Q568.0 439.0 567.5 438.5Q567.0 438.0 567.5 437.5Q568.0 437.0 568.0 436.5Q568.0 436.0 568.5 435.5Q569.0 435.0 569.0 434.5Q569.0 434.0 569.0 433.5Q569.0 433.0 568.5 432.5Q568.0 432.0 568.0 431.5Q568.0 431.0 567.5 430.5Q567.0 430.0 567.5 429.0Q568.0 428.0 568.5 428.0Q569.0 428.0 569.5 428.0Q570.0 428.0 571.0 428.0Q572.0 428.0 572.5 428.0Q573.0 428.0 573.5 428.0Q574.0 428.0 574.5 428.0Q575.0 428.0 575.5 427.5Q576.0 427.0 576.5 426.5Q577.0 426.0 577.5 425.5Q578.0 425.0 579.0 425.0Q580.0 425.0 580.5 425.5Q581.0 426.0 581.0 426.5Q581.0 427.0 581.0 428.0Q581.0 429.0 581.0 429.5Q581.0 430.0 581.5 430.5Q582.0 431.0 582.5 431.5Q583.0 432.0 583.5 432.5Q584.0 433.0 584.5 433.5Q585.0 434.0 586.0 434.5Q587.0 435.0 587.0 436.0Q587.0 437.0 586.5 437.5Q586.0 438.0 585.5 438.5Q585.0 439.0 584.0 439.5Q583.0 440.0 582.5 440.0Q582.0 440.0 581.5 440.5Q581.0 441.0 581.0 441.5Q581.0 442.0 580.5 443.0Q580.0 444.0 580.0 445.0Q580.0 446.0 579.5 446.5Q579.0 447.0 578.0 447.5Q577.0 448.0 576.5 448.0Q576.0 448.0 575.0 447.5Q574.0 447.0 573.5 446.0Q573.0 445.0 572.5 444.5Q572.0 444.0 571.5 443.5Q571.0 443.0 570.5 443.0Q570.0 443.0 569.0 443.5Q568.0 444.0 567.0 444.0Q566.0 444.0 565.0 443.5Q564.0 443.0 563.0 442.5Q562.0 442.0 562.0 441.0Q562.0 440.0 562.0 439.0Q562.0 438.0 563.0 437.0Q564.0 436.0 564.5 435.5Q565.0 435.0 565.0 434.5Q565.0 434.0 565.0 433.0Q565.0 432.0 564.5 431.5Q564.0 431.0 563.5 429.5Q563.0 428.0 563.0 427.0Q563.0 426.0 563.5 425.0Q564.0 424.0 564.5 423.5Q565.0 423.0 566.5 423.0Q568.0 423.0 569.0 423.5Q570.0 424.0 571.0 424.0Q572.0 424.0 572.5 424.0Q573.0 424.0 573.5 423.5Q574.0 423.0 575.0 422.5Q576.0 422.0 577.0 421.0Q578.0 420.0 579.0 420.0Q580.0 420.0 581.0 420.0Q582.0 420.0 583.0 420.5Q584.0 421.0 584.5 422.0Q585.0 423.0 585.0 424.5Q585.0 426.0 585.0 427.0Q585.0 428.0 585.0 428.5Q585.0 429.0 586.0 429.5Q587.0 430.0 588.0 431.0Q589.0 432.0 590.0 432.5Q591.0 433.0 591.5 434.0Q592.0 435.0 592.5 436.0Q593.0 437.0 592.5 438.0Q592.0 439.0 591.0 440.0Q590.0 441.0 589.0 441.5Q588.0 442.0 587.0 442.5Q586.0 443.0 585.0 443.5Q584.0 444.0 584.0 444.5Q584.0 445.0 583.5 446.5Q583.0 448.0 582.5 449.0Q582.0 450.0 581.5 451.5Q581.0 453.0 580.0 453.5Q579.0 454.0 577.5 454.0Q576.0 454.0 575.0 453.0Q574.0 452.0 573.0 451.0Q572.0 450.0 571.5 449.0Q571.0 448.0 570.0 447.5Q569.0 447.0 568.0 447.0Q567.0 447.0 566.0 447.0Q565.0 447.0 563.5 447.0Q562.0 447.0 560.5 447.0Q559.0 447.0 558.0 446.0Q557.0 445.0 557.0 443.5Q557.0 442.0 557.0 441.0Q557.0 440.0 558.0 438.5Q559.0 437.0 559.5 436.0Q560.0 435.0 560.5 434.0Q561.0 433.0 560.5 432.0Q560.0 431.0 559.5 430.0Q559.0 429.0 558.5 427.5Q558.0 426.0 558.0 424.5Q558.0 423.0 558.5 421.5Q559.0 420.0 560.5 419.5Q562.0 419.0 563.5 419.0Q565.0 419.0 566.5 419.0Q568.0 419.0 569.0 419.5Q570.0 420.0 571.0 420.0Q572.0 420.0 573.0 419.5Q574.0 419.0 575.0 418.0Q576.0 417.0 577.5 416.0Q579.0 415.0 580.5 414.5Q582.0 414.0 583.5 414.0Q585.0 414.0 586.0 415.0Q587.0 416.0 587.5 417.5Q588.0 419.0 588.0 421.0Q588.0 423.0 588.0 424.0Q588.0 425.0 588.5 426.0Q589.0 427.0 590.0 428.0Q591.0 429.0 592.0 429.5Q593.0 430.0 594.5 431.0Q596.0 432.0 597.0 433.5Q598.0 435.0 598.5 436.5Q599.0 438.0 598.0 439.5Q597.0 441.0 596.0 442.0Q595.0 443.0 593.5 443.5Q592.0 444.0 590.5 444.5Q589.0 445.0 588.0 445.5Q587.0 446.0 586.5 447.5Q586.0 449.0 586.0 450.5Q586.0 452.0 585.5 453.5Q585.0 455.0 584.0 456.5Q583.0 458.0 581.5 459.0Q580.0 460.0 578.5 459.5Q577.0 459.0 575.5 458.0Q574.0 457.0 572.5 456.0Q571.0 455.0 570.0 453.5Q569.0 452.0 568.5 451.5Q568.0 451.0 566.5 451.0Q565.0 451.0 563.5 451.0Q562.0 451.0 560.0 451.0Q558.0 451.0 556.0 450.5Q554.0 450.0 553.0 449.0Q552.0 448.0 551.5 446.0Q551.0 444.0 551.5 442.5Q552.0 441.0 553.0 439.5Q554.0 438.0 555.0 436.5Q556.0 435.0 556.5 434.0Q557.0 433.0 556.5 431.5Q556.0 430.0 555.5 428.5Q555.0 427.0 554.5 425.0Q554.0 423.0 553.5 421.0Q553.0 419.0 554.0 417.5Q555.0 416.0 556.5 415.0Q558.0 414.0 560.0 414.0Q562.0 414.0 564.0 414.5Q566.0 415.0 567.5 415.5Q569.0 416.0 570.0 416.0Q571.0 416.0 572.5 415.5Q574.0 415.0 575.0 413.5Q576.0 412.0 578.0 411.0Q580.0 410.0 582.0 409.0Q584.0 408.0 585.5 408.5Q587.0 409.0 588.5 410.5Q590.0 412.0 590.5 413.5Q591.0 415.0 591.5 417.0Q592.0 419.0 592.0 421.0Q592.0 423.0 592.0 424.0Q592.0 425.0 593.5 426.0Q595.0 427.0 596.5 428.0Q598.0 429.0 599.5 430.5Q601.0 432.0 602.5 433.5Q604.0 435.0 604.5 437.0Q605.0 439.0 604.0 440.5Q603.0 442.0 601.5 443.5Q600.0 445.0 598.0 445.5Q596.0 446.0 594.0 447.0Q592.0 448.0 591.0 448.5Q590.0 449.0 589.5 450.5Q589.0 452.0 588.5 454.0Q588.0 456.0 587.5 458.0Q587.0 460.0 585.5 462.0Q584.0 464.0 582.5 465.0Q581.0 466.0 579.0 465.5Q577.0 465.0 575.0 464.0Q573.0 463.0 571.5 461.0Q570.0 459.0 569.0 457.5Q568.0 456.0 567.0 455.0Q566.0 454.0 564.5 454.0Q563.0 454.0 561.0 454.5Q559.0 455.0 556.5 455.0Q554.0 455.0 552.0 454.0Q550.0 453.0 548.5 452.0Q547.0 451.0 546.5 449.0Q546.0 447.0 546.5 444.5Q547.0 442.0 548.5 440.0Q550.0 438.0 551.0 436.5Q552.0 435.0 552.5 433.5Q553.0 432.0 552.5 430.5Q552.0 429.0 551.0 427.0Q550.0 425.0 549.5 423.0Q549.0 421.0 549.0 418.5Q549.0 416.0 550.0 414.0Q551.0 412.0 552.5 411.0Q554.0 410.0 556.5 410.0Q559.0 410.0 561.5 410.5Q564.0 411.0 566.0 411.5Q568.0 412.0 569.5 412.0Q571.0 412.0 572.0 411.5Q573.0 411.0 575.0 409.5Q577.0 408.0 579.0 406.5Q581.0 405.0 583.0 404.0Q585.0 403.0 587.5 403.5Q590.0 404.0 591.5 405.5Q593.0 407.0 594.0 409.0Q595.0 411.0 595.0 413.5Q595.0 416.0 595.0 418.0Q595.0 420.0 595.5 421.5Q596.0 423.0 597.0 424.5Q598.0 426.0 600.0 427.0Q602.0 428.0 604.5 429.5Q607.0 431.0 608.5 433.0Q610.0 435.0 610.5 437.0Q611.0 439.0 610.0 441.5Q609.0 444.0 607.0 445.5Q605.0 447.0 602.5 448.0Q600.0 449.0 598.0 449.5Q596.0 450.0 594.5 451.0Q593.0 452.0 592.5 453.5Q592.0 455.0 591.5 457.5Q591.0 460.0 590.0 462.5Q589.0 465.0 587.5 467.0Q586.0 469.0 584.0 470.0Q582.0 471.0 579.5 471.0Q577.0 471.0 575.0 469.5Q573.0 468.0 571.5 466.0Q570.0 464.0 568.5 462.0Q567.0 460.0 565.5 459.0Q564.0 458.0 562.5 458.0Q561.0 458.0 558.5 458.0Q556.0 458.0 553.0 458.0Q550.0 458.0 547.5 457.5Q545.0 457.0 543.0 455.0Q541.0 453.0 541.0 451.0Q541.0 449.0 541.5 446.0Q542.0 443.0 543.5 441.0Q545.0 439.0 546.5 437.0Q548.0 435.0 548.5 433.5Q549.0 432.0 548.5 430.0Q548.0 428.0 547.0 426.0Q546.0 424.0 545.0 421.0Q544.0 418.0 544.0 415.0Q544.0 412.0 545.0 410.0Q546.0 408.0 548.5 407.0Q551.0 406.0 553.5 405.5Q556.0 405.0 559.0 406.0Q562.0 407.0 564.0 407.5Q566.0 408.0 568.0 408.0Q570.0 408.0 571.5 407.0Q573.0 406.0 575.0 404.5Q577.0 403.0 579.5 401.0Q582.0 399.0 584.5 398.0Q587.0 397.0 589.5 397.5Q592.0 398.0 594.0 400.0Q596.0 402.0 597.0 404.5Q598.0 407.0 598.0 410.0Q598.0 413.0 598.0 415.5Q598.0 418.0 599.0 420.0Q600.0 422.0 601.0 423.0Q602.0 424.0 604.5 425.5Q607.0 427.0 609.5 428.5Q612.0 430.0 614.0 432.5Q616.0 435.0 616.5 437.5Q617.0 440.0 615.5 442.5Q614.0 445.0 611.5 447.0Q609.0 449.0 606.5 450.0Q604.0 451.0 601.5 452.0Q599.0 453.0 597.5 454.0Q596.0 455.0 595.0 456.5Q594.0 458.0 593.5 461.0Q593.0 464.0 592.0 467.0Q591.0 470.0 589.5 472.5Q588.0 475.0 585.5 476.0Q583.0 477.0 580.5 477.0Q578.0 477.0 575.5 475.0Q573.0 473.0 571.0 470.5Q569.0 468.0 567.5 466.0Q566.0 464.0 564.0 463.0Q562.0 462.0 560.0 461.5Q558.0 461.0 555.5 461.5Q553.0 462.0 549.5 462.0Q546.0 462.0 543.0 461.0Q540.0 460.0 538.0 458.0Q536.0 456.0 535.5 453.5Q535.0 451.0 536.0 448.0Q537.0 445.0 538.5 442.0Q540.0 439.0 542.0 437.0Q544.0 435.0 544.5 433.0Q545.0 431.0 544.5 429.0Q544.0 427.0 543.0 424.5Q542.0 422.0 541.0 418.5Q540.0 415.0 539.5 412.0Q539.0 409.0 540.5 406.5Q542.0 404.0 544.5 402.5Q547.0 401.0 550.0 401.0Q553.0 401.0 556.5 402.0Q560.0 403.0 562.5 403.5Q565.0 404.0 567.0 404.0Q569.0 404.0 571.0 403.0Q573.0 402.0 575.0 400.0Q577.0 398.0 580.0 396.0Q583.0 394.0 586.0 393.0Q589.0 392.0 592.0 392.5Q595.0 393.0 597.0 395.0Q599.0 397.0 600.0 400.0Q601.0 403.0 601.5 406.5Q602.0 410.0 602.0 413.0Q602.0 416.0 602.5 418.0Q603.0 420.0 604.5 421.5Q606.0 423.0 609.0 424.5Q612.0 426.0 614.5 428.0Q617.0 430.0 619.0 432.5Q621.0 435.0 621.5 438.0Q622.0 441.0 621.0 443.5Q620.0 446.0 617.0 448.5Q614.0 451.0 611.0 452.0Q608.0 453.0 605.0 454.0Q602.0 455.0 600.5 456.0Q599.0 457.0 598.0 459.5Q597.0 462.0 596.5 465.0Q596.0 468.0 595.0 471.5Q594.0 475.0 592.0 477.5Q590.0 480.0 587.0 481.5Q584.0 483.0 581.0 482.5Q578.0 482.0 575.0 480.0Q572.0 478.0 570.0 475.5Q568.0 473.0 566.0 470.5Q564.0 468.0 562.5 466.5Q561.0 465.0 558.5 465.0Q556.0 465.0 553.0 465.5Q550.0 466.0 546.0 466.0Q542.0 466.0 539.0 465.0Q536.0 464.0 533.5 461.5Q531.0 459.0 530.5 456.0Q530.0 453.0 531.0 449.5Q532.0 446.0 534.0 443.0Q536.0 440.0 537.5 437.5Q539.0 435.0 540.0 433.0Q541.0 431.0 540.5 428.5Q540.0 426.0 538.5 423.0Q537.0 420.0 536.0 416.5Q535.0 413.0 535.0 409.5Q535.0 406.0 536.5 403.0Q538.0 400.0 540.5 398.5Q543.0 397.0 547.0 397.0Q551.0 397.0 554.5 397.5Q558.0 398.0 561.0 399.0Q564.0 400.0 566.0 400.0Q568.0 400.0 570.5 399.0Q573.0 398.0 575.5 395.5Q578.0 393.0 581.0 391.0Q584.0 389.0 587.5 387.5Q591.0 386.0 594.0 386.5Q597.0 387.0 599.5 389.5Q602.0 392.0 603.5 395.5Q605.0 399.0 605.0 403.0Q605.0 407.0 605.0 410.0Q605.0 413.0 606.0 415.5Q607.0 418.0 608.5 419.5Q610.0 421.0 613.0 422.5Q616.0 424.0 619.5 426.5Q623.0 429.0 625.0 432.0Q627.0 435.0 627.5 438.5Q628.0 442.0 626.5 445.0Q625.0 448.0 622.0 450.5Q619.0 453.0 615.5 454.0Q612.0 455.0 609.0 456.0Q606.0 457.0 604.0 458.5Q602.0 460.0 601.0 462.5Q600.0 465.0 599.0 468.5Q598.0 472.0 597.0 475.5Q596.0 479.0 594.0 482.5Q592.0 486.0 588.5 487.5Q585.0 489.0 581.5 488.5Q578.0 488.0 575.0 486.0Q572.0 484.0 569.5 480.5Q567.0 477.0 565.0 474.5Q563.0 472.0 561.0 470.5Q559.0 469.0 556.5 469.0Q554.0 469.0 550.5 469.0Q547.0 469.0 542.5 469.0Q538.0 469.0 534.5 468.0Q531.0 467.0 528.5 464.5Q526.0 462.0 525.5 458.5Q525.0 455.0 526.0 451.0Q527.0 447.0 529.0 444.0Q531.0 441.0 533.0 438.0Q535.0 435.0 536.0 432.5Q537.0 430.0 536.5 427.5Q536.0 425.0 534.5 421.5Q533.0 418.0 531.5 414.0Q530.0 410.0 530.0 406.0Q530.0 402.0 531.5 399.0Q533.0 396.0 536.5 394.0Q540.0 392.0 544.0 392.0Q548.0 392.0 552.0 393.0Q556.0 394.0 559.0 395.0Q562.0 396.0 565.0 396.0Q568.0 396.0 570.0 395.0Q572.0 394.0 575.0 391.5Q578.0 389.0 581.5 386.5Q585.0 384.0 589.0 382.5Q593.0 381.0 596.5 381.5Q600.0 382.0 602.5 384.5Q605.0 387.0 606.5 391.0Q608.0 395.0 608.5 399.5Q609.0 404.0 609.0 407.5Q609.0 411.0 609.5 413.5Q610.0 416.0 612.0 417.5Q614.0 419.0 617.5 421.0Q621.0 423.0 624.5 425.5Q628.0 428.0 630.5 431.5Q633.0 435.0 633.5 438.5Q634.0 442.0 632.5 445.5Q631.0 449.0 627.5 451.5Q624.0 454.0 620.0 456.0Q616.0 458.0 612.5 459.0Q609.0 460.0 607.0 461.5Q605.0 463.0 603.5 465.5Q602.0 468.0 601.5 472.0Q601.0 476.0 599.5 480.0Q598.0 484.0 595.5 487.5Q593.0 491.0 589.5 493.0Q586.0 495.0 582.5 494.5Q579.0 494.0 575.5 491.5Q572.0 489.0 569.0 485.5Q566.0 482.0 564.0 479.0Q562.0 476.0 559.5 474.5Q557.0 473.0 554.0 472.5Q551.0 472.0 547.5 472.5Q544.0 473.0 539.5 473.0Q535.0 473.0 530.5 471.5Q526.0 470.0 523.5 467.5Q521.0 465.0 520.0 461.0Q519.0 457.0 520.5 453.0Q522.0 449.0 524.5 445.0Q527.0 441.0 529.0 438.0Q531.0 435.0 532.0 432.5Q533.0 430.0 532.5 427.0Q532.0 424.0 530.0 420.5Q528.0 417.0 526.5 412.5Q525.0 408.0 525.0 403.5Q525.0 399.0 527.0 395.5Q529.0 392.0 532.5 390.0Q536.0 388.0 540.5 388.0Q545.0 388.0 549.5 389.0Q554.0 390.0 557.5 391.0Q561.0 392.0 564.0 392.0Q567.0 392.0 569.5 390.5Q572.0 389.0 575.0 386.5Q578.0 384.0 582.0 381.0Q586.0 378.0 590.0 376.5Q594.0 375.0 598.0 376.0Q602.0 377.0 605.0 379.5Q608.0 382.0 609.5 386.5Q611.0 391.0 611.5 395.5Q612.0 400.0 612.0 404.0Q612.0 408.0 613.0 411.0Q614.0 414.0 616.0 416.0Q618.0 418.0 621.5 420.0Q625.0 422.0 629.0 425.0Q633.0 428.0 636.0 431.5Q639.0 435.0 639.5 439.0Q640.0 443.0 638.0 447.0Q636.0 451.0 632.5 453.5Q629.0 456.0 624.5 458.0Q620.0 460.0 616.5 461.0Q613.0 462.0 610.5 464.0Q608.0 466.0 606.5 469.0Q605.0 472.0 604.0 476.0Q603.0 480.0 601.5 484.5Q600.0 489.0 597.5 493.0Q595.0 497.0 591.5 499.0Q588.0 501.0 583.5 500.0Q579.0 499.0 575.0 496.5Q571.0 494.0 568.0 490.5Q565.0 487.0 562.5 483.5Q560.0 480.0 558.0 478.0Q556.0 476.0 552.5 476.0Q549.0 476.0 545.0 476.5Q541.0 477.0 536.0 477.0Q531.0 477.0 526.0 475.5Q521.0 474.0 518.0 471.0Q515.0 468.0 514.5 463.5Q514.0 459.0 515.5 454.5Q517.0 450.0 519.5 446.0Q522.0 442.0 524.5 438.5Q527.0 435.0 528.0 432.0Q529.0 429.0 528.0 426.0Q527.0 423.0 525.5 419.0Q524.0 415.0 522.5 410.0Q521.0 405.0 521.0 400.0Q521.0 395.0 523.0 391.5Q525.0 388.0 528.5 385.5Q532.0 383.0 537.0 383.0Q542.0 383.0 547.0 384.5Q552.0 386.0 556.0 387.0Q560.0 388.0 563.0 388.0Q566.0 388.0 569.0 386.5Q572.0 385.0 575.5 382.0Q579.0 379.0 583.0 376.0Q587.0 373.0 591.5 371.5Q596.0 370.0 600.5 370.5Q605.0 371.0 608.0 374.5Q611.0 378.0 613.0 382.5Q615.0 387.0 615.0 392.0Q615.0 397.0 615.0 401.5Q615.0 406.0 616.0 409.0Q617.0 412.0 619.5 414.0Q622.0 416.0 626.0 418.5Q630.0 421.0 634.5 424.0Q639.0 427.0 642.0 431.0Q645.0 435.0 645.5 439.5Q646.0 444.0 644.0 448.0Q642.0 452.0 638.0 455.0Q634.0 458.0 629.0 460.0Q624.0 462.0 620.0 463.5Q616.0 465.0 613.5 467.0Q611.0 469.0 609.5 472.0Q608.0 475.0 607.0 479.5Q606.0 484.0 604.5 489.0Q603.0 494.0 600.0 498.0Q597.0 502.0 593.0 504.5Q589.0 507.0 584.0 506.0Q579.0 505.0 575.0 502.0Q571.0 499.0 567.5 495.0Q564.0 491.0 561.5 487.5Q559.0 484.0 556.5 482.0Q554.0 480.0 550.5 479.5Q547.0 479.0 542.5 479.5Q538.0 480.0 532.5 480.0Q527.0 480.0 522.0 478.5Q517.0 477.0 513.5 474.0Q510.0 471.0 509.5 466.0Q509.0 461.0 510.5 456.0Q512.0 451.0 514.5 446.5Q517.0 442.0 520.0 438.5Q523.0 435.0 524.0 432.0Q525.0 429.0 524.0 425.5Q523.0 422.0 521.5 417.5Q520.0 413.0 518.0 408.0Q516.0 403.0 516.0 397.5Q516.0 392.0 518.0 388.0Q520.0 384.0 524.5 381.5Q529.0 379.0 534.0 379.0Q539.0 379.0 544.5 380.5Q550.0 382.0 554.5 383.0Q559.0 384.0 562.0 384.5Q565.0 385.0 568.5 383.0Q572.0 381.0 575.5 378.0Q579.0 375.0 583.5 371.5Q588.0 368.0 593.0 366.0Q598.0 364.0 603.0 365.0Q608.0 366.0 611.5 369.5Q615.0 373.0 616.5 378.0Q618.0 383.0 618.5 388.5Q619.0 394.0 619.0 398.5Q619.0 403.0 620.0 406.5Q621.0 410.0 623.5 412.5Q626.0 415.0 630.5 417.5Q635.0 420.0 639.5 423.0Q644.0 426.0 647.0 430.5Q650.0 435.0 651.0 440.0Q652.0 445.0 650.0 449.5Q648.0 454.0 643.5 457.0Q639.0 460.0 633.5 462.0Q628.0 464.0 623.5 465.5Q619.0 467.0 616.5 469.0Q614.0 471.0 612.5 474.5Q611.0 478.0 609.5 483.0Q608.0 488.0 606.5 493.5Q605.0 499.0 602.0 503.5Q599.0 508.0 594.5 510.0Q590.0 512.0 585.0 511.5Q580.0 511.0 575.5 507.5Q571.0 504.0 567.0 500.0Q563.0 496.0 560.5 492.0Q558.0 488.0 555.0 486.0Q552.0 484.0 548.5 483.5Q545.0 483.0 540.0 483.5Q535.0 484.0 529.0 484.0Q523.0 484.0 517.5 482.5Q512.0 481.0 508.5 477.5Q505.0 474.0 504.0 468.5Q503.0 463.0 505.0 458.0Q507.0 453.0 510.0 448.0Q513.0 443.0 515.5 439.0Q518.0 435.0 519.5 431.5Q521.0 428.0 520.0 424.5Q519.0 421.0 517.0 416.0Q515.0 411.0 513.0 405.5Q511.0 400.0 511.0 394.5Q511.0 389.0 513.5 384.0Q516.0 379.0 520.5 377.0Q525.0 375.0 531.0 374.5Q537.0 374.0 542.5 375.5Q548.0 377.0 552.5 378.5Q557.0 380.0 561.0 380.5Q565.0 381.0 568.0 379.0Q571.0 377.0 575.0 373.5Q579.0 370.0 584.0 366.5Q589.0 363.0 594.5 361.0Q600.0 359.0 605.0 359.5Q610.0 360.0 614.0 364.0Q618.0 368.0 619.5 373.5Q621.0 379.0 621.5 385.0Q622.0 391.0 622.0 396.0Q622.0 401.0 623.0 404.5Q624.0 408.0 627.0 410.5Q630.0 413.0 634.5 416.0Q639.0 419.0 644.0 422.5Q649.0 426.0 652.5 430.5Q656.0 435.0 657.0 440.0Q658.0 445.0 655.5 450.0Q653.0 455.0 648.5 458.5Q644.0 462.0 638.0 464.5Q632.0 467.0 627.5 468.5Q623.0 470.0 620.0 472.0Q617.0 474.0 615.0 477.5Q613.0 481.0 612.0 486.5Q611.0 492.0 609.0 498.0Q607.0 504.0 603.5 508.5Q600.0 513.0 595.5 515.5Q591.0 518.0 585.5 517.5Q580.0 517.0 575.0 513.5Q570.0 510.0 566.5 505.0Q563.0 500.0 559.5 496.0Q556.0 492.0 553.0 489.5Q550.0 487.0 546.0 486.5Q542.0 486.0 537.0 487.0Q532.0 488.0 525.5 488.0Q519.0 488.0 513.0 486.0Q507.0 484.0 503.5 480.0Q500.0 476.0 499.0 471.0Q498.0 466.0 499.5 460.0Q501.0 454.0 504.5 448.5Q508.0 443.0 511.0 439.0Q514.0 435.0 515.5 431.5Q517.0 428.0 516.0 424.0Q515.0 420.0 513.0 415.0Q511.0 410.0 509.0 403.5Q507.0 397.0 506.5 391.0Q506.0 385.0 508.5 380.0Q511.0 375.0 516.0 372.5Q521.0 370.0 527.5 370.0Q534.0 370.0 540.0 371.5Q546.0 373.0 551.0 374.5Q556.0 376.0 560.0 376.5Q564.0 377.0 567.5 374.5Q571.0 372.0 575.0 368.5Q579.0 365.0 584.5 361.0Q590.0 357.0 596.0 355.0Q602.0 353.0 607.5 354.0Q613.0 355.0 617.0 359.0Q621.0 363.0 623.0 369.0Q625.0 375.0 625.5 381.5Q626.0 388.0 626.0 393.0Q626.0 398.0 627.0 402.0Q628.0 406.0 631.0 409.0Q634.0 412.0 639.0 414.5Q644.0 417.0 649.0 421.0Q654.0 425.0 658.0 430.0Q662.0 435.0 663.0 440.5Q664.0 446.0 661.5 451.0Q659.0 456.0 654.0 460.0Q649.0 464.0 643.0 466.5Q637.0 469.0 631.5 470.5Q626.0 472.0 623.0 474.5Q620.0 477.0 618.0 481.0Q616.0 485.0 615.0 490.5Q614.0 496.0 612.0 502.0Q610.0 508.0 606.0 513.5Q602.0 519.0 597.0 521.5Q592.0 524.0 586.0 523.0Q580.0 522.0 575.0 518.5Q570.0 515.0 566.0 510.0Q562.0 505.0 558.5 500.5Q555.0 496.0 552.0 493.5Q549.0 491.0 544.5 490.5Q540.0 490.0 534.0 490.5Q528.0 491.0 521.5 491.0Q515.0 491.0 509.0 489.5Q503.0 488.0 498.5 483.5Q494.0 479.0 493.0 473.5Q492.0 468.0 494.0 461.5Q496.0 455.0 499.5 449.5Q503.0 444.0 506.5 439.5Q510.0 435.0 511.5 431.0Q513.0 427.0 512.0 423.0Q511.0 419.0 508.5 413.5Q506.0 408.0 504.0 401.5Q502.0 395.0 502.0 388.5Q502.0 382.0 504.5 376.5Q507.0 371.0 512.5 368.5Q518.0 366.0 524.5 366.0Q531.0 366.0 537.5 367.5Q544.0 369.0 549.5 370.5Q555.0 372.0 559.0 372.5Q563.0 373.0 567.0 370.5Q571.0 368.0 575.5 364.0Q580.0 360.0 585.5 356.0Q591.0 352.0 597.0 350.0Q603.0 348.0 609.0 349.0Q615.0 350.0 619.5 354.0Q624.0 358.0 626.0 364.5Q628.0 371.0 628.5 377.5Q629.0 384.0 629.0 390.0Q629.0 396.0 630.0 400.0Q631.0 404.0 634.5 407.0Q638.0 410.0 643.0 413.0Q648.0 416.0 654.0 420.0Q660.0 424.0 664.0 429.5Q668.0 435.0 669.0 441.0Q670.0 447.0 667.0 452.5Q664.0 458.0 658.5 462.0Q653.0 466.0 647.0 468.5Q641.0 471.0 635.5 473.0Q630.0 475.0 626.0 477.5Q622.0 480.0 620.5 484.0Q619.0 488.0 617.5 494.0Q616.0 500.0 614.0 506.5Q612.0 513.0 608.0 518.5Q604.0 524.0 598.5 527.0Q593.0 530.0 587.0 529.0Q581.0 528.0 575.5 524.0Q570.0 520.0 565.5 514.5Q561.0 509.0 557.5 504.5Q554.0 500.0 550.5 497.5Q547.0 495.0 542.5 494.5Q538.0 494.0 531.5 494.5Q525.0 495.0 518.0 495.0Q511.0 495.0 504.5 493.0Q498.0 491.0 493.5 486.5Q489.0 482.0 488.0 476.0Q487.0 470.0 489.0 463.0Q491.0 456.0 495.0 450.5Q499.0 445.0 502.5 440.0Q506.0 435.0 507.5 431.0Q509.0 427.0 508.0 422.5Q507.0 418.0 504.5 412.0Q502.0 406.0 499.5 399.0Q497.0 392.0 497.0 385.0Q497.0 378.0 500.0 372.5Q503.0 367.0 508.5 364.0Q514.0 361.0 521.0 361.0Q528.0 361.0 535.0 363.0Q542.0 365.0 547.5 366.5Q553.0 368.0 557.5 368.5Q562.0 369.0 566.5 366.5Q571.0 364.0 575.5 360.0Q580.0 356.0 586.0 351.5Q592.0 347.0 598.5 344.5Q605.0 342.0 611.5 343.0Q618.0 344.0 622.5 348.5Q627.0 353.0 629.0 360.0Q631.0 367.0 631.5 374.0Q632.0 381.0 632.0 387.0Q632.0 393.0 633.5 397.5Q635.0 402.0 638.5 405.0Q642.0 408.0 647.5 411.5Q653.0 415.0 659.0 419.5Q665.0 424.0 669.5 429.5Q674.0 435.0 675.0 441.5Q676.0 448.0 673.0 453.5Q670.0 459.0 664.0 463.5Q658.0 468.0 651.5 470.5Q645.0 473.0 639.0 475.0Q633.0 477.0 629.0 479.5Q625.0 482.0 623.0 486.5Q621.0 491.0 620.0 497.5Q619.0 504.0 616.5 511.0Q614.0 518.0 610.0 524.0Q606.0 530.0 600.0 533.0Q594.0 536.0 587.5 535.0Q581.0 534.0 575.0 529.5Q569.0 525.0 564.5 519.5Q560.0 514.0 556.5 509.0Q553.0 504.0 549.0 501.0Q545.0 498.0 540.0 497.5Q535.0 497.0 528.5 498.0Q522.0 499.0 514.5 499.0Q507.0 499.0 500.0 496.5Q493.0 494.0 488.5 489.5Q484.0 485.0 483.0 478.5Q482.0 472.0 484.0 465.0Q486.0 458.0 490.0 451.5Q494.0 445.0 498.0 440.0Q502.0 435.0 503.5 430.5Q505.0 426.0 504.0 421.0Q503.0 416.0 500.0 410.0Q497.0 404.0 495.0 397.0Q493.0 390.0 492.5 382.5Q492.0 375.0 495.0 369.0Q498.0 363.0 504.0 360.0Q510.0 357.0 517.5 357.0Q525.0 357.0 532.5 359.0Q540.0 361.0 546.0 362.5Q552.0 364.0 557.0 364.5Q562.0 365.0 566.0 362.5Q570.0 360.0 575.0 355.5Q580.0 351.0 586.5 346.5Q593.0 342.0 600.0 339.5Q607.0 337.0 613.5 338.0Q620.0 339.0 625.0 343.5Q630.0 348.0 632.5 355.5Q635.0 363.0 635.5 370.5Q636.0 378.0 636.0 384.5Q636.0 391.0 637.0 395.5Q638.0 400.0 642.0 403.5Q646.0 407.0 652.0 410.5Q658.0 414.0 664.0 418.5Q670.0 423.0 674.5 429.0Q679.0 435.0 680.5 441.5Q682.0 448.0 678.5 454.5Q675.0 461.0 669.0 465.5Q663.0 470.0 656.0 473.0Q649.0 476.0 642.5 478.0Q636.0 480.0 632.0 482.5Q628.0 485.0 626.0 489.5Q624.0 494.0 622.5 501.0Q621.0 508.0 618.5 515.5Q616.0 523.0 612.0 529.0Q608.0 535.0 601.5 538.5Q595.0 542.0 588.5 541.0Q582.0 540.0 575.5 535.5Q569.0 531.0 564.0 525.0Q559.0 519.0 555.0 513.5Q551.0 508.0 547.0 505.0Q543.0 502.0 538.0 501.5Q533.0 501.0 526.0 501.5Q519.0 502.0 511.0 502.0Q503.0 502.0 496.0 500.0Q489.0 498.0 484.0 493.0Q479.0 488.0 477.5 481.0Q476.0 474.0 478.5 466.5Q481.0 459.0 485.5 452.5Q490.0 446.0 493.5 440.5Q497.0 435.0 499.0 430.5Q501.0 426.0 500.0 420.5Q499.0 415.0 496.0 409.0Q493.0 403.0 490.5 395.0Q488.0 387.0 488.0 379.5Q488.0 372.0 491.0 365.5Q494.0 359.0 500.5 355.5Q507.0 352.0 515.0 352.0Q523.0 352.0 530.5 354.0Q538.0 356.0 544.5 358.0Q551.0 360.0 556.0 360.5Q561.0 361.0 565.5 358.0Q570.0 355.0 575.5 350.5Q581.0 346.0 587.5 341.0Q594.0 336.0 601.5 333.5Q609.0 331.0 616.0 332.5Q623.0 334.0 628.0 339.0Q633.0 344.0 635.5 351.5Q638.0 359.0 638.5 367.0Q639.0 375.0 639.0 381.5Q639.0 388.0 640.5 393.0Q642.0 398.0 646.0 401.5Q650.0 405.0 656.0 409.0Q662.0 413.0 669.0 417.5Q676.0 422.0 680.5 428.5Q685.0 435.0 686.0 442.0Q687.0 449.0 684.0 455.5Q681.0 462.0 674.5 467.0Q668.0 472.0 660.5 475.0Q653.0 478.0 646.5 480.0Q640.0 482.0 635.5 485.0Q631.0 488.0 629.0 493.0Q627.0 498.0 625.5 505.0Q624.0 512.0 621.5 520.0Q619.0 528.0 614.0 534.5Q609.0 541.0 602.5 544.5Q596.0 548.0 589.0 546.5Q582.0 545.0 575.5 540.5Q569.0 536.0 563.5 529.5Q558.0 523.0 554.0 517.5Q550.0 512.0 546.0 509.0Q542.0 506.0 536.5 505.0Q531.0 504.0 523.5 505.0Q516.0 506.0 508.0 506.0Q500.0 506.0 492.0 503.5Q484.0 501.0 479.0 496.0Q474.0 491.0 472.5 483.5Q471.0 476.0 473.5 468.0Q476.0 460.0 480.5 453.0Q485.0 446.0 489.0 440.5Q493.0 435.0 495.0 430.0Q497.0 425.0 496.0 419.5Q495.0 414.0 492.0 407.5Q489.0 401.0 486.0 393.0Q483.0 385.0 483.0 376.5Q483.0 368.0 486.5 361.5Q490.0 355.0 496.5 351.5Q503.0 348.0 511.5 348.0Q520.0 348.0 528.0 350.0Q536.0 352.0 542.5 354.0Q549.0 356.0 554.5 356.5Q560.0 357.0 565.0 354.0Q570.0 351.0 575.5 346.0Q581.0 341.0 588.0 336.0Q595.0 331.0 603.0 328.5Q611.0 326.0 618.0 327.0Q625.0 328.0 630.5 333.5Q636.0 339.0 638.5 347.0Q641.0 355.0 641.5 363.5Q642.0 372.0 642.5 379.0Q643.0 386.0 644.5 391.0Q646.0 396.0 650.0 400.0Q654.0 404.0 660.5 407.5Q667.0 411.0 674.0 416.5Q681.0 422.0 686.0 428.5Q691.0 435.0 692.0 442.5Q693.0 450.0 690.0 457.0Q687.0 464.0 680.0 469.0Q673.0 474.0 665.0 477.0Q657.0 480.0 650.0 482.5Q643.0 485.0 638.5 488.0Q634.0 491.0 632.0 496.0Q630.0 501.0 628.0 508.5Q626.0 516.0 623.5 524.5Q621.0 533.0 616.0 540.0Q611.0 547.0 604.5 550.0Q598.0 553.0 590.0 552.0Q582.0 551.0 575.0 546.0Q568.0 541.0 562.5 534.5Q557.0 528.0 553.0 522.0Q549.0 516.0 544.5 512.5Q540.0 509.0 534.5 508.5Q529.0 508.0 521.0 509.0Q513.0 510.0 504.5 510.0Q496.0 510.0 487.5 507.5Q479.0 505.0 473.5 499.5Q468.0 494.0 467.0 486.0Q466.0 478.0 468.5 470.0Q471.0 462.0 475.5 454.5Q480.0 447.0 484.5 441.0Q489.0 435.0 491.0 430.0Q493.0 425.0 491.5 419.0Q490.0 413.0 487.0 406.0Q484.0 399.0 481.5 390.5Q479.0 382.0 478.5 373.5Q478.0 365.0 481.5 358.0Q485.0 351.0 492.0 347.5Q499.0 344.0 508.0 343.5Q517.0 343.0 525.5 345.5Q534.0 348.0 541.0 350.0Q548.0 352.0 553.5 352.5Q559.0 353.0 564.0 350.0Q569.0 347.0 575.0 342.0Q581.0 337.0 588.5 331.5Q596.0 326.0 604.0 323.0Q612.0 320.0 620.0 321.5Q628.0 323.0 633.5 328.5Q639.0 334.0 642.0 342.5Q645.0 351.0 645.5 359.5Q646.0 368.0 646.0 375.5Q646.0 383.0 647.5 388.5Q649.0 394.0 653.5 398.0Q658.0 402.0 664.5 406.0Q671.0 410.0 678.5 415.5Q686.0 421.0 691.5 428.0Q697.0 435.0 698.0 443.0Q699.0 451.0 695.5 458.0Q692.0 465.0 685.0 470.5Q678.0 476.0 669.5 479.0Q661.0 482.0 654.0 484.5Q647.0 487.0 642.0 490.0Q637.0 493.0 634.5 498.5Q632.0 504.0 630.5 512.0Q629.0 520.0 626.0 528.5Q623.0 537.0 618.0 544.5Q613.0 552.0 606.0 555.5Q599.0 559.0 591.0 558.0Q583.0 557.0 575.5 551.5Q568.0 546.0 562.0 539.0Q556.0 532.0 551.5 526.0Q547.0 520.0 542.5 516.5Q538.0 513.0 532.0 512.5Q526.0 512.0 518.0 512.5Q510.0 513.0 501.0 513.0Q492.0 513.0 483.0 510.5Q474.0 508.0 468.5 502.0Q463.0 496.0 461.5 488.0Q460.0 480.0 463.0 471.5Q466.0 463.0 471.0 455.5Q476.0 448.0 480.5 441.5Q485.0 435.0 487.0 429.5Q489.0 424.0 487.5 418.0Q486.0 412.0 483.0 404.5Q480.0 397.0 477.0 388.0Q474.0 379.0 474.0 370.0Q474.0 361.0 477.5 354.0Q481.0 347.0 488.5 343.0Q496.0 339.0 505.0 339.0Q514.0 339.0 523.0 341.5Q532.0 344.0 539.5 346.0Q547.0 348.0 553.0 348.5Q559.0 349.0 564.0 346.0Q569.0 343.0 575.0 337.5Q581.0 332.0 589.0 326.5Q597.0 321.0 605.5 318.0Q614.0 315.0 622.0 316.0Q630.0 317.0 636.0 323.0Q642.0 329.0 645.0 338.0Q648.0 347.0 648.5 356.0Q649.0 365.0 649.0 373.0Q649.0 381.0 651.0 386.5Q653.0 392.0 657.5 396.5Q662.0 401.0 669.0 405.0Q676.0 409.0 684.0 414.5Q692.0 420.0 697.5 427.5Q703.0 435.0 704.0 443.0Q705.0 451.0 701.5 459.0Q698.0 467.0 690.5 472.5Q683.0 478.0 674.0 481.5Q665.0 485.0 657.5 487.0Q650.0 489.0 645.0 492.5Q640.0 496.0 637.5 502.0Q635.0 508.0 633.0 516.0Q631.0 524.0 628.0 533.0Q625.0 542.0 620.0 550.0Q615.0 558.0 607.5 561.5Q600.0 565.0 591.5 564.0Q583.0 563.0 575.5 557.5Q568.0 552.0 562.0 544.5Q556.0 537.0 551.0 530.5Q546.0 524.0 541.5 520.5Q537.0 517.0 530.5 516.0Q524.0 515.0 515.5 516.0Q507.0 517.0 497.5 517.0Q488.0 517.0 479.0 514.0Q470.0 511.0 464.0 505.0Q458.0 499.0 456.5 490.5Q455.0 482.0 458.0 473.0Q461.0 464.0 466.0 456.0Q471.0 448.0 476.0 441.5Q481.0 435.0 483.0 429.5Q485.0 424.0 483.5 417.5Q482.0 411.0 478.5 403.5Q475.0 396.0 472.0 386.5Q469.0 377.0 469.0 367.5Q469.0 358.0 473.0 350.5Q477.0 343.0 484.5 339.0Q492.0 335.0 501.5 335.0Q511.0 335.0 520.5 337.0Q530.0 339.0 538.0 341.5Q546.0 344.0 552.0 344.5Q558.0 345.0 563.5 341.5Q569.0 338.0 575.5 332.5Q582.0 327.0 590.0 321.0Q598.0 315.0 607.0 312.0Q616.0 309.0 624.5 310.5Q633.0 312.0 639.0 318.0Q645.0 324.0 648.0 333.5Q651.0 343.0 652.0 352.5Q653.0 362.0 653.0 370.5Q653.0 379.0 654.5 384.5Q656.0 390.0 661.0 394.5Q666.0 399.0 673.5 403.5Q681.0 408.0 689.0 414.0Q697.0 420.0 703.0 427.5Q709.0 435.0 710.0 443.5Q711.0 452.0 707.0 460.0Q703.0 468.0 695.5 474.0Q688.0 480.0 678.5 483.5Q669.0 487.0 661.0 489.5Q653.0 492.0 648.0 495.5Q643.0 499.0 640.5 505.0Q638.0 511.0 636.0 519.5Q634.0 528.0 631.0 537.5Q628.0 547.0 622.5 555.0Q617.0 563.0 609.0 567.0Q601.0 571.0 592.0 569.5Q583.0 568.0 575.0 562.5Q567.0 557.0 561.0 549.0Q555.0 541.0 550.0 534.5Q545.0 528.0 540.0 524.0Q535.0 520.0 528.5 519.5Q522.0 519.0 513.0 520.0Q504.0 521.0 494.0 521.0Q484.0 521.0 474.5 518.0Q465.0 515.0 459.0 508.5Q453.0 502.0 451.5 493.5Q450.0 485.0 453.0 475.5Q456.0 466.0 461.5 457.5Q467.0 449.0 471.5 442.0Q476.0 435.0 478.5 429.0Q481.0 423.0 479.5 416.5Q478.0 410.0 474.5 402.0Q471.0 394.0 468.0 384.0Q465.0 374.0 464.5 364.0Q464.0 354.0 468.0 346.5Q472.0 339.0 480.0 334.5Q488.0 330.0 498.0 330.0Q508.0 330.0 518.0 332.5Q528.0 335.0 536.0 337.5Q544.0 340.0 550.5 340.5Q557.0 341.0 563.0 337.5Q569.0 334.0 575.5 328.0Q582.0 322.0 590.5 316.0Q599.0 310.0 608.5 307.0Q618.0 304.0 626.5 305.5Q635.0 307.0 641.5 313.0Q648.0 319.0 651.5 328.5Q655.0 338.0 655.5 348.5Q656.0 359.0 656.0 367.5Q656.0 376.0 658.0 382.0Q660.0 388.0 665.0 393.0Q670.0 398.0 677.5 402.5Q685.0 407.0 693.5 413.0Q702.0 419.0 708.0 427.0Q714.0 435.0 715.5 444.0Q717.0 453.0 713.0 461.0Q709.0 469.0 700.5 475.0Q692.0 481.0 682.5 485.0Q673.0 489.0 665.0 491.5Q657.0 494.0 651.5 498.0Q646.0 502.0 643.0 508.0Q640.0 514.0 638.0 523.0Q636.0 532.0 633.0 542.0Q630.0 552.0 624.0 560.5Q618.0 569.0 610.0 573.0Q602.0 577.0 593.0 575.5Q584.0 574.0 575.5 568.0Q567.0 562.0 560.5 554.0Q554.0 546.0 549.0 539.0Q544.0 532.0 538.5 528.0Q533.0 524.0 526.5 523.0Q520.0 522.0 510.5 523.0Q501.0 524.0 490.5 524.0Q480.0 524.0 470.0 521.0Q460.0 518.0 453.5 511.5Q447.0 505.0 445.5 496.0Q444.0 487.0 447.5 477.0Q451.0 467.0 456.5 458.0Q462.0 449.0 467.0 442.0Q472.0 435.0 474.5 429.0Q477.0 423.0 475.5 416.0Q474.0 409.0 470.5 400.5Q467.0 392.0 463.5 382.0Q460.0 372.0 459.5 361.5Q459.0 351.0 463.5 343.0Q468.0 335.0 476.5 330.5Q485.0 326.0 495.5 326.0Q506.0 326.0 516.0 328.5Q526.0 331.0 534.5 333.5Q543.0 336.0 549.5 336.5Q556.0 337.0 562.0 333.5Q568.0 330.0 575.0 324.0Q582.0 318.0 591.0 311.5Q600.0 305.0 609.5 301.5Q619.0 298.0 628.5 299.5Q638.0 301.0 644.5 307.5Q651.0 314.0 654.5 324.0Q658.0 334.0 658.5 345.0Q659.0 356.0 659.5 365.0Q660.0 374.0 661.5 380.0Q663.0 386.0 668.5 391.0Q674.0 396.0 682.0 401.0Q690.0 406.0 698.5 412.0Q707.0 418.0 713.5 426.5Q720.0 435.0 721.5 444.5Q723.0 454.0 718.5 462.5Q714.0 471.0 705.5 477.0Q697.0 483.0 687.0 487.0Q677.0 491.0 668.5 494.0Q660.0 497.0 654.5 500.5Q649.0 504.0 646.0 510.5Q643.0 517.0 641.0 526.5Q639.0 536.0 635.5 546.5Q632.0 557.0 626.0 565.5Q620.0 574.0 611.5 578.5Q603.0 583.0 593.5 581.5Q584.0 580.0 575.5 573.5Q567.0 567.0 560.0 559.0Q553.0 551.0 547.5 543.5Q542.0 536.0 536.5 532.0Q531.0 528.0 524.0 527.0Q517.0 526.0 507.5 527.0Q498.0 528.0 487.0 528.0Q476.0 528.0 466.0 525.0Q456.0 522.0 449.0 515.0Q442.0 508.0 440.5 498.5Q439.0 489.0 442.5 478.5Q446.0 468.0 451.5 459.0Q457.0 450.0 462.5 442.5Q468.0 435.0 470.5 428.5Q473.0 422.0 471.5 415.0Q470.0 408.0 466.0 399.0Q462.0 390.0 458.5 379.5Q455.0 369.0 455.0 358.5Q455.0 348.0 459.5 339.0Q464.0 330.0 472.5 325.5Q481.0 321.0 492.0 321.0Q503.0 321.0 513.5 324.0Q524.0 327.0 533.0 329.5Q542.0 332.0 549.0 332.5Q556.0 333.0 562.0 329.5Q568.0 326.0 575.5 319.5Q583.0 313.0 592.0 306.5Q601.0 300.0 611.0 296.5Q621.0 293.0 631.0 294.5Q641.0 296.0 648.0 303.0Q655.0 310.0 658.5 320.0Q662.0 330.0 662.5 341.5Q663.0 353.0 663.0 362.0Q663.0 371.0 665.0 378.0Q667.0 385.0 672.5 389.5Q678.0 394.0 686.0 399.0Q694.0 404.0 703.5 411.0Q713.0 418.0 719.5 426.5Q726.0 435.0 727.5 444.5Q729.0 454.0 724.5 463.0Q720.0 472.0 711.0 478.5Q702.0 485.0 691.5 489.5Q681.0 494.0 672.5 496.5Q664.0 499.0 658.0 503.0Q652.0 507.0 649.0 514.0Q646.0 521.0 644.0 530.5Q642.0 540.0 638.5 551.0Q635.0 562.0 628.5 571.0Q622.0 580.0 613.0 584.0Q604.0 588.0 594.0 587.0Q584.0 586.0 575.0 579.5Q566.0 573.0 559.0 564.0Q552.0 555.0 546.5 547.5Q541.0 540.0 535.5 535.5Q530.0 531.0 522.5 530.5Q515.0 530.0 505.0 530.5Q495.0 531.0 483.5 531.0Q472.0 531.0 461.5 528.0Q451.0 525.0 444.0 518.0Q437.0 511.0 435.5 501.0Q434.0 491.0 437.0 480.5Q440.0 470.0 446.5 460.0Q453.0 450.0 458.5 442.5Q464.0 435.0 466.5 428.5Q469.0 422.0 467.5 414.5Q466.0 407.0 462.0 398.0Q458.0 389.0 454.5 378.0Q451.0 367.0 450.5 355.5Q450.0 344.0 454.5 335.0Q459.0 326.0 468.0 321.5Q477.0 317.0 488.5 317.0Q500.0 317.0 511.0 320.0Q522.0 323.0 531.0 325.5Q540.0 328.0 547.5 328.5Q555.0 329.0 561.5 325.5Q568.0 322.0 575.5 315.0Q583.0 308.0 592.5 301.0Q602.0 294.0 612.5 290.5Q623.0 287.0 633.0 288.5Q643.0 290.0 650.5 297.5Q658.0 305.0 661.5 315.5Q665.0 326.0 665.5 337.5Q666.0 349.0 666.0 359.0Q666.0 369.0 668.0 376.0Q670.0 383.0 676.0 388.0Q682.0 393.0 690.5 398.0Q699.0 403.0 708.5 410.0Q718.0 417.0 725.0 426.0Q732.0 435.0 733.5 445.0Q735.0 455.0 730.5 464.5Q726.0 474.0 716.5 480.5Q707.0 487.0 696.5 491.5Q686.0 496.0 676.5 499.0Q667.0 502.0 661.0 506.0Q655.0 510.0 652.0 517.0Q649.0 524.0 646.5 534.0Q644.0 544.0 640.5 555.0Q637.0 566.0 630.5 575.5Q624.0 585.0 614.5 589.5Q605.0 594.0 595.0 592.5Q585.0 591.0 575.5 584.5Q566.0 578.0 558.5 569.0Q551.0 560.0 545.5 552.0Q540.0 544.0 534.0 539.5Q528.0 535.0 520.5 534.0Q513.0 533.0 502.5 534.0Q492.0 535.0 480.0 535.0Q468.0 535.0 457.0 531.5Q446.0 528.0 439.0 521.0Q432.0 514.0 430.0 503.5Q428.0 493.0 431.5 482.0Q435.0 471.0 441.5 461.0Q448.0 451.0 454.0 443.0Q460.0 435.0 462.5 428.0Q465.0 421.0 463.5 413.5Q462.0 406.0 457.5 396.5Q453.0 387.0 449.5 375.5Q446.0 364.0 445.5 352.5Q445.0 341.0 450.0 331.5Q455.0 322.0 464.5 317.5Q474.0 313.0 485.5 312.5Q497.0 312.0 508.5 315.0Q520.0 318.0 529.5 321.0Q539.0 324.0 546.5 324.5Q554.0 325.0 561.0 321.0Q568.0 317.0 575.5 310.0Q583.0 303.0 593.0 296.0Q603.0 289.0 614.0 285.5Q625.0 282.0 635.5 283.5Q646.0 285.0 653.5 292.5Q661.0 300.0 664.5 311.0Q668.0 322.0 669.0 334.0Q670.0 346.0 670.0 356.0Q670.0 366.0 672.0 373.5Q674.0 381.0 679.5 386.0Q685.0 391.0 694.5 396.5Q704.0 402.0 713.5 409.0Q723.0 416.0 730.5 425.5Q738.0 435.0 739.5 445.5Q741.0 456.0 736.0 465.5Q731.0 475.0 721.5 482.0Q712.0 489.0 701.0 493.5Q690.0 498.0 680.0 501.0Q670.0 504.0 664.0 508.5Q658.0 513.0 654.5 520.0Q651.0 527.0 649.0 537.5Q647.0 548.0 643.0 559.5Q639.0 571.0 632.5 581.0Q626.0 591.0 616.5 595.5Q607.0 600.0 596.0 598.5Q585.0 597.0 575.5 590.0Q566.0 583.0 558.0 573.5Q550.0 564.0 544.0 556.0Q538.0 548.0 532.0 543.5Q526.0 539.0 518.0 538.0Q510.0 537.0 499.5 538.0Q489.0 539.0 476.5 539.0Q464.0 539.0 453.0 535.5Q442.0 532.0 434.5 524.5Q427.0 517.0 425.0 506.0Q423.0 495.0 426.5 483.5Q430.0 472.0 436.5 462.0Q443.0 452.0 449.0 443.5Q455.0 435.0 458.0 428.0Q461.0 421.0 459.0 413.0Q457.0 405.0 453.0 395.0Q449.0 385.0 445.0 373.0Q441.0 361.0 441.0 349.0Q441.0 337.0 446.0 327.5Q451.0 318.0 460.5 313.0Q470.0 308.0 482.0 308.0Q494.0 308.0 506.0 311.0Q518.0 314.0 528.0 317.5Q538.0 321.0 545.5 321.0Q553.0 321.0 560.0 317.0Q567.0 313.0 575.5 306.0Q584.0 299.0 594.0 291.5Q604.0 284.0 615.5 280.0Q627.0 276.0 637.5 278.0Q648.0 280.0 656.0 287.5Q664.0 295.0 668.0 306.5Q672.0 318.0 672.5 330.5Q673.0 343.0 673.0 353.5Q673.0 364.0 675.0 371.5Q677.0 379.0 683.0 384.5Q689.0 390.0 698.5 395.5Q708.0 401.0 718.5 408.5Q729.0 416.0 736.0 425.5Q743.0 435.0 745.0 446.0Q747.0 457.0 742.0 467.0Q737.0 477.0 727.0 484.0Q717.0 491.0 705.5 495.5Q694.0 500.0 684.0 503.5Q674.0 507.0 667.5 511.5Q661.0 516.0 657.5 523.0Q654.0 530.0 651.5 541.0Q649.0 552.0 645.0 564.0Q641.0 576.0 634.0 586.0Q627.0 596.0 617.5 601.0Q608.0 606.0 597.0 604.5Q586.0 603.0 575.5 595.5Q565.0 588.0 557.0 578.5Q549.0 569.0 543.0 560.5Q537.0 552.0 531.0 547.0Q525.0 542.0 516.5 541.0Q508.0 540.0 497.0 541.0Q486.0 542.0 473.5 542.0Q461.0 542.0 449.0 538.5Q437.0 535.0 429.0 527.0Q421.0 519.0 419.5 508.0Q418.0 497.0 421.5 485.0Q425.0 473.0 432.0 462.5Q439.0 452.0 445.0 443.5Q451.0 435.0 454.0 427.5Q457.0 420.0 455.0 412.0Q453.0 404.0 448.5 393.5Q444.0 383.0 440.0 371.0Q436.0 359.0 436.0 346.5Q436.0 334.0 441.0 324.0Q446.0 314.0 456.0 309.0Q466.0 304.0 479.0 304.0Q492.0 304.0 504.0 307.0Q516.0 310.0 526.5 313.5Q537.0 317.0 544.5 317.0Q552.0 317.0 559.5 313.0Q567.0 309.0 575.5 301.5Q584.0 294.0 594.5 286.5Q605.0 279.0 616.5 274.5Q628.0 270.0 639.5 272.0Q651.0 274.0 659.0 282.0Q667.0 290.0 671.0 302.0Q675.0 314.0 675.5 327.0Q676.0 340.0 676.0 350.5Q676.0 361.0 678.5 369.0Q681.0 377.0 687.0 382.5Q693.0 388.0 703.0 394.0Q713.0 400.0 723.5 407.5Q734.0 415.0 741.5 425.0Q749.0 435.0 750.5 446.0Q752.0 457.0 747.0 467.5Q742.0 478.0 732.0 485.5Q722.0 493.0 710.0 497.5Q698.0 502.0 687.5 505.5Q677.0 509.0 670.5 513.5Q664.0 518.0 660.5 526.0Q657.0 534.0 654.5 545.0Q652.0 556.0 648.0 568.5Q644.0 581.0 636.5 591.5Q629.0 602.0 619.0 607.0Q609.0 612.0 597.5 610.0Q586.0 608.0 575.5 601.0Q565.0 594.0 557.0 584.0Q549.0 574.0 542.5 565.0Q536.0 556.0 529.5 551.0Q523.0 546.0 514.5 545.0Q506.0 544.0 494.5 545.0Q483.0 546.0 470.0 546.0Q457.0 546.0 444.5 542.5Q432.0 539.0 424.0 530.5Q416.0 522.0 414.0 510.5Q412.0 499.0 416.0 487.0Q420.0 475.0 427.0 464.0Q434.0 453.0 440.5 444.0Q447.0 435.0 450.0 427.5Q453.0 420.0 451.0 411.5Q449.0 403.0 444.5 392.5Q440.0 382.0 436.0 369.0Q432.0 356.0 431.5 343.5Q431.0 331.0 436.5 320.5Q442.0 310.0 452.5 304.5Q463.0 299.0 476.0 299.0Q489.0 299.0 501.5 302.5Q514.0 306.0 524.5 309.5Q535.0 313.0 543.5 313.0Q552.0 313.0 559.5 309.0Q567.0 305.0 575.5 297.0Q584.0 289.0 595.0 281.0Q606.0 273.0 618.0 269.0Q630.0 265.0 641.5 267.0Q653.0 269.0 661.5 277.0Q670.0 285.0 674.0 297.5Q678.0 310.0 679.0 323.5Q680.0 337.0 680.0 348.0Q680.0 359.0 682.0 367.0Q684.0 375.0 690.5 381.0Q697.0 387.0 707.0 392.5Q717.0 398.0 728.0 406.0Q739.0 414.0 747.0 424.5Q755.0 435.0 756.5 446.5Q758.0 458.0 753.0 468.5Q748.0 479.0 737.5 487.0Q727.0 495.0 714.5 500.0Q702.0 505.0 691.5 508.5Q681.0 512.0 674.0 516.5Q667.0 521.0 663.0 529.0Q659.0 537.0 656.5 548.5Q654.0 560.0 650.0 573.0Q646.0 586.0 638.5 596.5Q631.0 607.0 620.5 612.5Q610.0 618.0 598.0 616.0Q586.0 614.0 575.5 606.5Q565.0 599.0 556.5 588.5Q548.0 578.0 541.0 569.0Q534.0 560.0 527.5 555.0Q521.0 550.0 512.5 549.0Q504.0 548.0 492.0 549.0Q480.0 550.0 466.5 550.0Q453.0 550.0 440.5 546.0Q428.0 542.0 419.5 533.5Q411.0 525.0 409.0 513.5Q407.0 502.0 411.0 489.0Q415.0 476.0 422.5 464.5Q430.0 453.0 436.5 444.0Q443.0 435.0 446.0 427.0Q449.0 419.0 447.0 410.5Q445.0 402.0 440.5 391.0Q436.0 380.0 431.5 367.0Q427.0 354.0 427.0 340.5Q427.0 327.0 432.5 316.5Q438.0 306.0 448.5 300.5Q459.0 295.0 472.5 295.0Q486.0 295.0 499.0 298.5Q512.0 302.0 523.0 305.5Q534.0 309.0 542.5 309.0Q551.0 309.0 559.0 304.5Q567.0 300.0 575.5 292.0Q584.0 284.0 595.5 276.0Q607.0 268.0 619.5 263.5Q632.0 259.0 644.0 261.0Q656.0 263.0 664.5 271.5Q673.0 280.0 677.5 293.0Q682.0 306.0 682.5 319.5Q683.0 333.0 683.0 344.5Q683.0 356.0 685.5 364.5Q688.0 373.0 694.5 379.0Q701.0 385.0 711.5 391.0Q722.0 397.0 733.5 405.5Q745.0 414.0 753.0 424.5Q761.0 435.0 762.5 447.0Q764.0 459.0 758.5 470.0Q753.0 481.0 742.0 489.0Q731.0 497.0 718.5 502.0Q706.0 507.0 695.0 510.5Q684.0 514.0 677.0 519.0Q670.0 524.0 666.0 532.0Q662.0 540.0 659.5 552.0Q657.0 564.0 652.5 577.5Q648.0 591.0 640.5 602.0Q633.0 613.0 622.0 618.5Q611.0 624.0 599.0 622.0Q587.0 620.0 575.5 612.0Q564.0 604.0 555.5 593.5Q547.0 583.0 540.0 573.5Q533.0 564.0 526.0 558.5Q519.0 553.0 510.0 552.0Q501.0 551.0 489.0 552.0Q477.0 553.0 463.0 553.0Q449.0 553.0 436.0 549.5Q423.0 546.0 414.5 537.0Q406.0 528.0 404.0 516.0Q402.0 504.0 406.0 490.5Q410.0 477.0 417.5 465.5Q425.0 454.0 432.0 444.5Q439.0 435.0 442.0 427.0Q445.0 419.0 443.0 410.0Q441.0 401.0 436.0 389.5Q431.0 378.0 426.5 364.5Q422.0 351.0 422.0 337.5Q422.0 324.0 427.5 313.0Q433.0 302.0 444.0 296.0Q455.0 290.0 469.0 290.0Q483.0 290.0 496.5 293.5Q510.0 297.0 521.5 301.0Q533.0 305.0 541.5 305.0Q550.0 305.0 558.0 300.5Q566.0 296.0 575.5 288.0Q585.0 280.0 596.5 271.5Q608.0 263.0 621.0 258.5Q634.0 254.0 646.0 256.0Q658.0 258.0 667.0 267.0Q676.0 276.0 680.5 289.0Q685.0 302.0 686.0 316.0Q687.0 330.0 687.0 342.0Q687.0 354.0 689.5 362.5Q692.0 371.0 698.5 377.0Q705.0 383.0 716.0 389.5Q727.0 396.0 738.5 404.5Q750.0 413.0 758.5 424.0Q767.0 435.0 768.5 447.5Q770.0 460.0 764.5 471.0Q759.0 482.0 747.5 490.5Q736.0 499.0 723.0 504.0Q710.0 509.0 698.5 513.0Q687.0 517.0 680.0 522.0Q673.0 527.0 669.0 535.5Q665.0 544.0 662.0 556.0Q659.0 568.0 654.5 581.5Q650.0 595.0 642.5 606.5Q635.0 618.0 623.5 623.5Q612.0 629.0 599.5 627.5Q587.0 626.0 575.5 617.5Q564.0 609.0 555.0 598.0Q546.0 587.0 539.0 577.5Q532.0 568.0 525.0 562.5Q518.0 557.0 508.5 556.0Q499.0 555.0 486.5 556.0Q474.0 557.0 459.5 557.0Q445.0 557.0 431.5 553.0Q418.0 549.0 409.0 540.0Q400.0 531.0 398.0 518.5Q396.0 506.0 400.5 492.5Q405.0 479.0 412.5 467.0Q420.0 455.0 427.0 445.0Q434.0 435.0 437.5 426.5Q441.0 418.0 439.0 409.0Q437.0 400.0 432.0 388.0Q427.0 376.0 422.5 362.5Q418.0 349.0 417.5 334.5Q417.0 320.0 423.0 309.0Q429.0 298.0 440.5 292.0Q452.0 286.0 466.0 286.0Q480.0 286.0 494.0 289.5Q508.0 293.0 519.5 297.0Q531.0 301.0 540.0 301.0Q549.0 301.0 557.5 296.5Q566.0 292.0 575.5 283.5Q585.0 275.0 597.0 266.5Q609.0 258.0 622.5 253.0Q636.0 248.0 648.5 250.5Q661.0 253.0 670.0 262.0Q679.0 271.0 683.5 284.5Q688.0 298.0 689.0 312.5Q690.0 327.0 690.0 339.0Q690.0 351.0 692.5 360.0Q695.0 369.0 702.0 375.5Q709.0 382.0 720.0 388.5Q731.0 395.0 743.0 403.5Q755.0 412.0 763.5 423.5Q772.0 435.0 774.0 447.5Q776.0 460.0 770.0 472.0Q764.0 484.0 752.5 492.5Q741.0 501.0 727.5 506.0Q714.0 511.0 702.5 515.0Q691.0 519.0 683.0 524.0Q675.0 529.0 671.5 538.0Q668.0 547.0 665.0 559.5Q662.0 572.0 657.5 586.0Q653.0 600.0 644.5 612.0Q636.0 624.0 624.5 629.5Q613.0 635.0 600.0 633.0Q587.0 631.0 575.5 622.5Q564.0 614.0 554.5 603.0Q545.0 592.0 538.0 582.0Q531.0 572.0 523.5 566.0Q516.0 560.0 506.5 559.0Q497.0 558.0 484.0 559.5Q471.0 561.0 456.0 561.0Q441.0 561.0 427.0 556.5Q413.0 552.0 404.0 543.0Q395.0 534.0 393.0 521.0Q391.0 508.0 395.5 494.0Q400.0 480.0 408.0 467.5Q416.0 455.0 423.0 445.0Q430.0 435.0 433.5 426.5Q437.0 418.0 435.0 408.0Q433.0 398.0 427.5 386.5Q422.0 375.0 417.5 360.5Q413.0 346.0 412.5 331.5Q412.0 317.0 418.5 305.5Q425.0 294.0 436.5 288.0Q448.0 282.0 463.0 281.5Q478.0 281.0 492.0 285.0Q506.0 289.0 518.0 293.0Q530.0 297.0 539.5 297.0Q549.0 297.0 557.5 292.5Q566.0 288.0 575.5 279.0Q585.0 270.0 597.5 261.0Q610.0 252.0 623.5 247.5Q637.0 243.0 650.0 245.0Q663.0 247.0 672.5 256.5Q682.0 266.0 687.0 280.0Q692.0 294.0 692.5 309.0Q693.0 324.0 693.0 336.5Q693.0 349.0 696.0 358.0Q699.0 367.0 706.0 373.5Q713.0 380.0 724.5 387.0Q736.0 394.0 748.0 403.0Q760.0 412.0 769.0 423.5Q778.0 435.0 780.0 448.0Q782.0 461.0 776.0 473.0Q770.0 485.0 758.0 494.0Q746.0 503.0 732.0 508.5Q718.0 514.0 706.0 518.0Q694.0 522.0 686.0 527.0Q678.0 532.0 674.0 541.0Q670.0 550.0 667.0 563.0Q664.0 576.0 659.5 590.5Q655.0 605.0 646.5 617.0Q638.0 629.0 626.0 635.0Q614.0 641.0 601.0 639.0Q588.0 637.0 575.5 628.5Q563.0 620.0 553.5 608.0Q544.0 596.0 536.5 586.0Q529.0 576.0 521.5 570.0Q514.0 564.0 504.0 563.0Q494.0 562.0 481.0 563.0Q468.0 564.0 452.5 564.0Q437.0 564.0 423.0 560.0Q409.0 556.0 399.5 546.5Q390.0 537.0 388.0 523.5Q386.0 510.0 390.5 495.5Q395.0 481.0 403.0 468.5Q411.0 456.0 418.5 445.5Q426.0 435.0 429.5 426.0Q433.0 417.0 431.0 407.0Q429.0 397.0 423.5 385.0Q418.0 373.0 413.0 358.0Q408.0 343.0 408.0 328.5Q408.0 314.0 414.0 302.0Q420.0 290.0 432.0 283.5Q444.0 277.0 459.5 277.0Q475.0 277.0 489.5 281.0Q504.0 285.0 516.5 289.0Q529.0 293.0 538.5 293.0Q548.0 293.0 556.5 288.0Q565.0 283.0 575.5 274.0Q586.0 265.0 598.5 256.0Q611.0 247.0 625.0 242.0Q639.0 237.0 652.5 239.5Q666.0 242.0 675.5 251.5Q685.0 261.0 690.0 275.5Q695.0 290.0 696.0 305.5Q697.0 321.0 697.0 333.5Q697.0 346.0 699.5 355.5Q702.0 365.0 709.5 372.0Q717.0 379.0 728.5 386.0Q740.0 393.0 753.0 402.0Q766.0 411.0 775.0 423.0Q784.0 435.0 786.0 448.5Q788.0 462.0 782.0 474.5Q776.0 487.0 763.5 496.0Q751.0 505.0 736.5 510.5Q722.0 516.0 710.0 520.0Q698.0 524.0 689.5 529.5Q681.0 535.0 677.0 544.0Q673.0 553.0 670.0 566.5Q667.0 580.0 662.0 595.0Q657.0 610.0 648.5 622.5Q640.0 635.0 627.5 641.0Q615.0 647.0 601.5 645.0Q588.0 643.0 575.5 634.0Q563.0 625.0 553.0 613.0Q543.0 601.0 535.5 590.5Q528.0 580.0 520.5 574.0Q513.0 568.0 502.5 566.5Q492.0 565.0 478.5 566.5Q465.0 568.0 449.0 568.0Q433.0 568.0 418.5 563.5Q404.0 559.0 394.5 549.5Q385.0 540.0 382.5 526.0Q380.0 512.0 385.0 497.5Q390.0 483.0 398.0 469.5Q406.0 456.0 414.0 445.5Q422.0 435.0 425.5 426.0Q429.0 417.0 426.5 406.5Q424.0 396.0 419.0 383.5Q414.0 371.0 409.0 356.0Q404.0 341.0 403.5 325.5Q403.0 310.0 409.5 298.0Q416.0 286.0 428.5 279.5Q441.0 273.0 456.5 273.0Q472.0 273.0 487.0 276.5Q502.0 280.0 514.5 284.5Q527.0 289.0 537.0 289.0Q547.0 289.0 556.0 284.0Q565.0 279.0 575.5 270.0Q586.0 261.0 599.0 251.5Q612.0 242.0 626.5 237.0Q641.0 232.0 654.5 234.0Q668.0 236.0 678.0 246.0Q688.0 256.0 693.0 271.0Q698.0 286.0 699.0 301.5Q700.0 317.0 700.0 330.5Q700.0 344.0 703.0 353.5Q706.0 363.0 713.5 370.0Q721.0 377.0 733.0 384.0Q745.0 391.0 758.0 400.5Q771.0 410.0 780.5 422.5Q790.0 435.0 792.0 449.0Q794.0 463.0 787.5 475.5Q781.0 488.0 768.5 497.5Q756.0 507.0 741.0 512.5Q726.0 518.0 713.5 522.0Q701.0 526.0 692.5 532.0Q684.0 538.0 680.0 547.5Q676.0 557.0 673.0 570.5Q670.0 584.0 665.0 599.5Q660.0 615.0 651.0 627.5Q642.0 640.0 629.5 646.5Q617.0 653.0 602.5 651.0Q588.0 649.0 575.5 639.5Q563.0 630.0 552.5 618.0Q542.0 606.0 534.5 595.0Q527.0 584.0 519.0 577.5Q511.0 571.0 500.5 570.0Q490.0 569.0 476.0 570.5Q462.0 572.0 445.5 572.0Q429.0 572.0 414.0 567.5Q399.0 563.0 389.5 552.5Q380.0 542.0 377.5 528.0Q375.0 514.0 380.0 499.0Q385.0 484.0 393.5 470.5Q402.0 457.0 410.0 446.0Q418.0 435.0 421.5 425.5Q425.0 416.0 422.5 405.5Q420.0 395.0 414.5 382.0Q409.0 369.0 404.0 353.5Q399.0 338.0 398.5 322.5Q398.0 307.0 405.0 294.5Q412.0 282.0 424.5 275.0Q437.0 268.0 453.0 268.0Q469.0 268.0 484.5 272.0Q500.0 276.0 513.0 280.5Q526.0 285.0 536.0 285.0Q546.0 285.0 555.5 280.0Q565.0 275.0 575.5 265.5Q586.0 256.0 599.5 246.5Q613.0 237.0 628.0 231.5Q643.0 226.0 657.0 228.5Q671.0 231.0 681.5 241.0Q692.0 251.0 697.0 266.5Q702.0 282.0 703.0 298.0Q704.0 314.0 704.0 328.0Q704.0 342.0 706.5 351.5Q709.0 361.0 717.0 368.5Q725.0 376.0 737.5 383.0Q750.0 390.0 763.0 400.0Q776.0 410.0 786.0 422.5Q796.0 435.0 798.0 449.0Q800.0 463.0 793.5 476.0Q787.0 489.0 774.0 499.0Q761.0 509.0 745.5 514.5Q730.0 520.0 717.0 524.5Q704.0 529.0 695.5 534.5Q687.0 540.0 682.5 550.0Q678.0 560.0 675.0 574.0Q672.0 588.0 667.0 604.0Q662.0 620.0 653.0 633.0Q644.0 646.0 631.0 652.5Q618.0 659.0 603.5 656.5Q589.0 654.0 575.5 644.5Q562.0 635.0 552.0 622.5Q542.0 610.0 533.5 599.0Q525.0 588.0 517.0 581.5Q509.0 575.0 498.5 574.0Q488.0 573.0 473.5 574.0Q459.0 575.0 442.5 575.0Q426.0 575.0 410.5 570.5Q395.0 566.0 384.5 555.5Q374.0 545.0 372.0 530.5Q370.0 516.0 374.5 500.5Q379.0 485.0 388.0 471.0Q397.0 457.0 405.5 446.0Q414.0 435.0 417.5 425.0Q421.0 415.0 418.5 404.5Q416.0 394.0 410.5 381.0Q405.0 368.0 399.5 352.0Q394.0 336.0 394.0 319.5Q394.0 303.0 400.5 290.0Q407.0 277.0 420.0 270.5Q433.0 264.0 449.5 264.0Q466.0 264.0 482.0 268.0Q498.0 272.0 511.5 276.5Q525.0 281.0 535.5 281.0Q546.0 281.0 555.5 276.0Q565.0 271.0 576.0 261.0Q587.0 251.0 600.5 241.0Q614.0 231.0 629.5 226.0Q645.0 221.0 659.5 223.5Q674.0 226.0 684.5 236.5Q695.0 247.0 700.0 262.5Q705.0 278.0 706.0 294.5Q707.0 311.0 707.0 325.0Q707.0 339.0 710.0 349.0Q713.0 359.0 721.0 366.5Q729.0 374.0 741.5 381.5Q754.0 389.0 768.0 399.0Q782.0 409.0 791.5 422.0Q801.0 435.0 803.5 449.5Q806.0 464.0 799.0 477.5Q792.0 491.0 779.0 500.5Q766.0 510.0 750.0 516.5Q734.0 523.0 721.0 527.0Q708.0 531.0 699.0 537.0Q690.0 543.0 685.5 553.0Q681.0 563.0 678.0 577.5Q675.0 592.0 669.5 608.0Q664.0 624.0 654.5 637.5Q645.0 651.0 632.0 658.0Q619.0 665.0 604.0 662.5Q589.0 660.0 575.5 650.5Q562.0 641.0 551.5 628.0Q541.0 615.0 532.5 603.5Q524.0 592.0 515.5 585.5Q507.0 579.0 496.0 577.5Q485.0 576.0 470.5 577.5Q456.0 579.0 439.0 579.0Q422.0 579.0 406.0 574.0Q390.0 569.0 379.5 558.5Q369.0 548.0 366.5 533.0Q364.0 518.0 369.0 502.5Q374.0 487.0 383.5 472.5Q393.0 458.0 401.0 446.5Q409.0 435.0 413.0 425.0Q417.0 415.0 414.5 404.0Q412.0 393.0 406.0 379.5Q400.0 366.0 395.0 349.5Q390.0 333.0 389.5 316.5Q389.0 300.0 396.0 286.5Q403.0 273.0 416.5 266.0Q430.0 259.0 446.5 259.0Q463.0 259.0 479.5 263.5Q496.0 268.0 510.0 272.5Q524.0 277.0 534.5 277.0Q545.0 277.0 554.5 271.5Q564.0 266.0 575.5 256.0Q587.0 246.0 601.0 236.0Q615.0 226.0 630.5 220.5Q646.0 215.0 661.0 217.5Q676.0 220.0 687.0 231.0Q698.0 242.0 703.0 258.0Q708.0 274.0 709.0 291.0Q710.0 308.0 710.0 322.5Q710.0 337.0 713.0 347.0Q716.0 357.0 724.5 364.5Q733.0 372.0 746.0 380.0Q759.0 388.0 773.0 398.0Q787.0 408.0 797.0 421.5Q807.0 435.0 809.5 450.0Q812.0 465.0 805.0 478.5Q798.0 492.0 784.5 502.0Q771.0 512.0 755.0 518.5Q739.0 525.0 725.0 529.5Q711.0 534.0 702.0 540.0Q693.0 546.0 688.5 556.5Q684.0 567.0 680.5 581.5Q677.0 596.0 671.5 612.5Q666.0 629.0 656.5 643.0Q647.0 657.0 633.5 663.5Q620.0 670.0 605.0 668.0Q590.0 666.0 576.0 656.0Q562.0 646.0 551.0 632.5Q540.0 619.0 531.5 607.5Q523.0 596.0 514.5 589.0Q506.0 582.0 494.5 581.0Q483.0 580.0 468.0 581.5Q453.0 583.0 435.5 583.0Q418.0 583.0 401.5 578.0Q385.0 573.0 374.5 562.0Q364.0 551.0 361.5 536.0Q359.0 521.0 364.0 504.5Q369.0 488.0 378.5 473.5Q388.0 459.0 396.5 447.0Q405.0 435.0 409.0 424.5Q413.0 414.0 410.5 403.0Q408.0 392.0 402.0 378.0Q396.0 364.0 390.5 347.5Q385.0 331.0 384.5 313.5Q384.0 296.0 391.5 282.5Q399.0 269.0 412.5 262.0Q426.0 255.0 443.5 255.0Q461.0 255.0 477.5 259.5Q494.0 264.0 508.0 268.5Q522.0 273.0 533.0 273.0Q544.0 273.0 554.0 267.5Q564.0 262.0 575.5 252.0Q587.0 242.0 601.5 231.5Q616.0 221.0 632.0 215.5Q648.0 210.0 663.5 212.5Q679.0 215.0 690.0 226.0Q701.0 237.0 706.5 253.5Q712.0 270.0 713.0 287.5Q714.0 305.0 714.0 319.5Q714.0 334.0 717.0 344.5Q720.0 355.0 728.5 363.0Q737.0 371.0 750.0 379.0Q763.0 387.0 777.5 397.5Q792.0 408.0 802.5 421.5Q813.0 435.0 815.5 450.5Q818.0 466.0 810.5 480.0Q803.0 494.0 789.0 504.0Q775.0 514.0 759.0 520.5Q743.0 527.0 728.5 531.5Q714.0 536.0 705.0 542.5Q696.0 549.0 691.5 559.5Q687.0 570.0 683.5 585.0Q680.0 600.0 674.5 617.0Q669.0 634.0 659.0 648.0Q649.0 662.0 635.0 669.0Q621.0 676.0 605.5 674.0Q590.0 672.0 575.5 661.5Q561.0 651.0 550.0 637.5Q539.0 624.0 530.0 612.0Q521.0 600.0 512.5 593.0Q504.0 586.0 492.5 584.5Q481.0 583.0 465.5 584.5Q450.0 586.0 432.0 586.0Q414.0 586.0 397.5 581.0Q381.0 576.0 370.0 565.0Q359.0 554.0 356.5 538.5Q354.0 523.0 359.0 506.0Q364.0 489.0 373.5 474.0Q383.0 459.0 392.0 447.0Q401.0 435.0 405.0 424.5Q409.0 414.0 406.5 402.5Q404.0 391.0 397.5 376.5Q391.0 362.0 385.5 345.0Q380.0 328.0 380.0 310.5Q380.0 293.0 387.0 279.0Q394.0 265.0 408.0 258.0Q422.0 251.0 440.0 250.5Q458.0 250.0 475.0 254.5Q492.0 259.0 506.5 264.0Q521.0 269.0 532.0 269.0Q543.0 269.0 553.5 263.5Q564.0 258.0 575.5 247.5Q587.0 237.0 602.0 226.5Q617.0 216.0 633.5 210.0Q650.0 204.0 665.5 206.5Q681.0 209.0 692.5 220.5Q704.0 232.0 709.5 249.0Q715.0 266.0 716.0 284.0Q717.0 302.0 717.0 317.0Q717.0 332.0 720.0 342.5Q723.0 353.0 732.0 361.0Q741.0 369.0 754.5 377.0Q768.0 385.0 783.0 396.0Q798.0 407.0 808.5 421.0Q819.0 435.0 821.0 450.5Q823.0 466.0 816.0 480.5Q809.0 495.0 794.5 505.5Q780.0 516.0 763.5 522.5Q747.0 529.0 732.5 534.0Q718.0 539.0 708.5 545.5Q699.0 552.0 694.0 562.5Q689.0 573.0 685.5 588.5Q682.0 604.0 676.5 621.5Q671.0 639.0 661.0 653.5Q651.0 668.0 636.5 675.0Q622.0 682.0 606.0 679.5Q590.0 677.0 575.5 666.5Q561.0 656.0 549.5 642.0Q538.0 628.0 529.0 616.0Q520.0 604.0 511.0 597.0Q502.0 590.0 490.5 588.5Q479.0 587.0 463.0 588.5Q447.0 590.0 428.5 590.0Q410.0 590.0 393.0 585.0Q376.0 580.0 364.5 568.5Q353.0 557.0 350.5 541.0Q348.0 525.0 353.5 507.5Q359.0 490.0 369.0 475.0Q379.0 460.0 388.0 447.5Q397.0 435.0 401.0 424.0Q405.0 413.0 402.5 401.5Q400.0 390.0 393.5 375.5Q387.0 361.0 381.5 343.0Q376.0 325.0 375.5 307.5Q375.0 290.0 382.5 275.5Q390.0 261.0 404.5 253.5Q419.0 246.0 437.0 246.0Q455.0 246.0 472.5 250.5Q490.0 255.0 505.0 260.0Q520.0 265.0 531.5 265.0Q543.0 265.0 553.5 259.5Q564.0 254.0 576.0 243.0Q588.0 232.0 603.0 221.0Q618.0 210.0 635.0 204.5Q652.0 199.0 668.0 201.5Q684.0 204.0 695.5 215.5Q707.0 227.0 712.5 244.5Q718.0 262.0 719.5 280.0Q721.0 298.0 721.0 313.5Q721.0 329.0 724.0 340.0Q727.0 351.0 736.0 359.5Q745.0 368.0 759.0 376.0Q773.0 384.0 788.0 395.0Q803.0 406.0 814.0 420.5Q825.0 435.0 827.0 451.0Q829.0 467.0 822.0 482.0Q815.0 497.0 800.0 507.5Q785.0 518.0 768.0 525.0Q751.0 532.0 736.0 536.5Q721.0 541.0 711.5 547.5Q702.0 554.0 697.0 565.0Q692.0 576.0 688.5 592.0Q685.0 608.0 679.0 626.0Q673.0 644.0 662.5 659.0Q652.0 674.0 637.5 681.0Q623.0 688.0 607.0 685.5Q591.0 683.0 576.0 672.5Q561.0 662.0 549.0 647.5Q537.0 633.0 528.0 620.5Q519.0 608.0 509.5 600.5Q500.0 593.0 488.0 592.0Q476.0 591.0 460.0 592.5Q444.0 594.0 425.0 594.0Q406.0 594.0 388.5 588.5Q371.0 583.0 359.5 571.5Q348.0 560.0 345.5 543.5Q343.0 527.0 348.5 509.5Q354.0 492.0 364.0 476.0Q374.0 460.0 383.5 447.5Q393.0 435.0 397.0 424.0Q401.0 413.0 398.5 401.0Q396.0 389.0 389.5 374.0Q383.0 359.0 377.0 341.0Q371.0 323.0 370.5 304.5Q370.0 286.0 378.0 271.5Q386.0 257.0 400.5 249.5Q415.0 242.0 433.5 241.5Q452.0 241.0 470.0 246.0Q488.0 251.0 503.0 256.0Q518.0 261.0 530.0 261.0Q542.0 261.0 552.5 255.0Q563.0 249.0 575.5 238.5Q588.0 228.0 603.5 216.5Q619.0 205.0 636.5 199.0Q654.0 193.0 670.0 196.0Q686.0 199.0 698.0 210.5Q710.0 222.0 716.0 240.0Q722.0 258.0 723.0 276.5Q724.0 295.0 724.0 311.0Q724.0 327.0 727.5 338.5Q731.0 350.0 740.0 358.0Q749.0 366.0 763.0 374.5Q777.0 383.0 792.5 394.5Q808.0 406.0 819.0 420.5Q830.0 435.0 832.5 451.5Q835.0 468.0 827.5 483.0Q820.0 498.0 805.0 509.0Q790.0 520.0 772.5 527.0Q755.0 534.0 740.0 539.0Q725.0 544.0 715.0 550.5Q705.0 557.0 700.0 568.5Q695.0 580.0 691.0 596.0Q687.0 612.0 681.5 630.5Q676.0 649.0 665.0 664.0Q654.0 679.0 639.0 686.5Q624.0 694.0 607.5 691.5Q591.0 689.0 575.5 678.0Q560.0 667.0 548.0 652.5Q536.0 638.0 527.0 625.0Q518.0 612.0 508.5 604.5Q499.0 597.0 486.5 595.5Q474.0 594.0 457.5 595.5Q441.0 597.0 421.5 597.0Q402.0 597.0 384.0 592.0Q366.0 587.0 354.5 575.0Q343.0 563.0 340.5 546.0Q338.0 529.0 343.5 511.0Q349.0 493.0 359.5 477.0Q370.0 461.0 379.0 448.0Q388.0 435.0 392.5 423.5Q397.0 412.0 394.5 400.0Q392.0 388.0 385.0 372.5Q378.0 357.0 372.0 338.5Q366.0 320.0 366.0 301.5Q366.0 283.0 373.5 268.0Q381.0 253.0 396.0 245.0Q411.0 237.0 430.0 237.0Q449.0 237.0 467.5 242.0Q486.0 247.0 501.5 252.0Q517.0 257.0 529.0 257.5Q541.0 258.0 552.0 251.5Q563.0 245.0 575.5 234.0Q588.0 223.0 604.0 211.5Q620.0 200.0 637.5 194.0Q655.0 188.0 672.0 190.5Q689.0 193.0 701.0 205.0Q713.0 217.0 719.0 235.5Q725.0 254.0 726.0 273.0Q727.0 292.0 727.0 308.0Q727.0 324.0 730.5 336.0Q734.0 348.0 743.5 356.5Q753.0 365.0 767.5 373.5Q782.0 382.0 797.5 393.5Q813.0 405.0 824.5 420.0Q836.0 435.0 838.5 452.0Q841.0 469.0 833.5 484.0Q826.0 499.0 810.5 510.5Q795.0 522.0 777.0 529.0Q759.0 536.0 743.5 541.0Q728.0 546.0 718.0 553.0Q708.0 560.0 702.5 571.5Q697.0 583.0 693.5 599.5Q690.0 616.0 684.0 634.5Q678.0 653.0 667.0 669.0Q656.0 685.0 640.5 692.5Q625.0 700.0 608.0 697.0Q591.0 694.0 575.5 683.0Q560.0 672.0 547.5 657.0Q535.0 642.0 525.5 629.0Q516.0 616.0 506.5 608.5Q497.0 601.0 484.5 599.5Q472.0 598.0 455.0 599.5Q438.0 601.0 418.0 601.0Q398.0 601.0 380.0 595.5Q362.0 590.0 350.0 577.5Q338.0 565.0 335.0 548.0Q332.0 531.0 338.0 512.5Q344.0 494.0 354.5 478.0Q365.0 462.0 374.5 448.5Q384.0 435.0 388.5 423.5Q393.0 412.0 390.0 399.5Q387.0 387.0 380.5 371.0Q374.0 355.0 368.0 336.5Q362.0 318.0 361.5 298.5Q361.0 279.0 369.0 264.0Q377.0 249.0 392.5 241.0Q408.0 233.0 427.5 233.0Q447.0 233.0 465.5 238.0Q484.0 243.0 500.0 248.0Q516.0 253.0 528.0 253.5Q540.0 254.0 551.5 247.5Q563.0 241.0 576.0 229.5Q589.0 218.0 605.0 206.5Q621.0 195.0 639.0 188.5Q657.0 182.0 674.0 185.0Q691.0 188.0 703.5 200.5Q716.0 213.0 722.0 231.5Q728.0 250.0 729.5 269.5Q731.0 289.0 731.0 305.5Q731.0 322.0 734.5 334.0Q738.0 346.0 747.5 354.5Q757.0 363.0 771.5 372.0Q786.0 381.0 802.5 392.5Q819.0 404.0 830.5 419.5Q842.0 435.0 844.5 452.0Q847.0 469.0 839.0 485.0Q831.0 501.0 815.5 512.5Q800.0 524.0 781.5 531.0Q763.0 538.0 747.0 543.5Q731.0 549.0 721.0 556.0Q711.0 563.0 705.5 574.5Q700.0 586.0 696.0 603.0Q692.0 620.0 686.0 639.0Q680.0 658.0 669.0 674.0Q658.0 690.0 642.5 698.0Q627.0 706.0 609.5 703.0Q592.0 700.0 576.0 688.5Q560.0 677.0 547.5 662.0Q535.0 647.0 525.0 633.5Q515.0 620.0 505.0 612.0Q495.0 604.0 482.0 602.5Q469.0 601.0 452.0 603.0Q435.0 605.0 414.5 605.0Q394.0 605.0 375.5 599.0Q357.0 593.0 345.0 580.5Q333.0 568.0 330.0 550.5Q327.0 533.0 333.0 514.5Q339.0 496.0 349.5 479.0Q360.0 462.0 370.0 448.5Q380.0 435.0 384.5 423.0Q389.0 411.0 386.0 398.5Q383.0 386.0 376.0 370.0Q369.0 354.0 363.0 334.5Q357.0 315.0 356.5 295.5Q356.0 276.0 364.0 260.5Q372.0 245.0 388.0 236.5Q404.0 228.0 424.0 228.0Q444.0 228.0 463.0 233.0Q482.0 238.0 498.0 243.5Q514.0 249.0 527.0 249.5Q540.0 250.0 551.5 243.5Q563.0 237.0 576.0 225.0Q589.0 213.0 605.5 201.0Q622.0 189.0 640.5 183.0Q659.0 177.0 676.5 180.0Q694.0 183.0 706.5 195.5Q719.0 208.0 725.5 226.5Q732.0 245.0 733.0 265.5Q734.0 286.0 734.0 302.5Q734.0 319.0 737.5 331.5Q741.0 344.0 751.0 353.0Q761.0 362.0 776.0 371.0Q791.0 380.0 807.5 392.0Q824.0 404.0 836.0 419.5Q848.0 435.0 850.5 452.5Q853.0 470.0 845.0 486.0Q837.0 502.0 821.0 514.0Q805.0 526.0 786.0 533.5Q767.0 541.0 751.0 546.0Q735.0 551.0 724.5 558.0Q714.0 565.0 708.5 577.0Q703.0 589.0 699.0 606.5Q695.0 624.0 688.5 643.5Q682.0 663.0 671.0 679.5Q660.0 696.0 644.0 703.5Q628.0 711.0 610.0 708.5Q592.0 706.0 575.5 694.5Q559.0 683.0 546.5 667.0Q534.0 651.0 524.0 637.5Q514.0 624.0 504.0 616.0Q494.0 608.0 480.5 606.5Q467.0 605.0 449.5 606.5Q432.0 608.0 411.0 608.0Q390.0 608.0 371.0 602.5Q352.0 597.0 339.5 584.0Q327.0 571.0 324.5 553.0Q322.0 535.0 328.0 516.0Q334.0 497.0 345.0 480.0Q356.0 463.0 366.0 449.0Q376.0 435.0 380.5 423.0Q385.0 411.0 382.0 398.0Q379.0 385.0 372.0 368.5Q365.0 352.0 358.5 332.5Q352.0 313.0 351.5 293.0Q351.0 273.0 359.5 257.0Q368.0 241.0 384.0 232.5Q400.0 224.0 420.5 224.0Q441.0 224.0 460.5 229.0Q480.0 234.0 496.5 239.5Q513.0 245.0 526.0 245.5Q539.0 246.0 550.5 239.0Q562.0 232.0 575.5 220.5Q589.0 209.0 606.0 196.5Q623.0 184.0 642.0 177.5Q661.0 171.0 678.5 174.0Q696.0 177.0 709.0 190.0Q722.0 203.0 728.5 222.0Q735.0 241.0 736.5 261.5Q738.0 282.0 738.0 299.5Q738.0 317.0 741.5 329.5Q745.0 342.0 755.0 351.0Q765.0 360.0 780.5 369.0Q796.0 378.0 812.5 390.5Q829.0 403.0 841.5 419.0Q854.0 435.0 856.5 453.0Q859.0 471.0 850.5 487.5Q842.0 504.0 826.0 516.0Q810.0 528.0 790.5 535.5Q771.0 543.0 754.5 548.5Q738.0 554.0 727.5 561.0Q717.0 568.0 711.5 580.5Q706.0 593.0 702.0 610.5Q698.0 628.0 691.5 648.0Q685.0 668.0 673.0 684.5Q661.0 701.0 645.0 709.0Q629.0 717.0 610.5 714.5Q592.0 712.0 575.5 700.0Q559.0 688.0 546.0 672.0Q533.0 656.0 522.5 642.0Q512.0 628.0 502.0 620.0Q492.0 612.0 478.5 610.5Q465.0 609.0 447.0 610.5Q429.0 612.0 408.0 612.0Q387.0 612.0 367.5 606.0Q348.0 600.0 335.0 587.0Q322.0 574.0 319.0 555.5Q316.0 537.0 322.5 517.5Q329.0 498.0 340.0 480.5Q351.0 463.0 361.5 449.0Q372.0 435.0 376.0 422.5Q380.0 410.0 377.5 397.0Q375.0 384.0 368.0 367.0Q361.0 350.0 354.5 330.0Q348.0 310.0 347.5 289.5Q347.0 269.0 355.5 253.0Q364.0 237.0 380.5 228.5Q397.0 220.0 417.5 219.5Q438.0 219.0 458.0 224.5Q478.0 230.0 495.0 235.5Q512.0 241.0 525.0 241.5Q538.0 242.0 550.0 235.0Q562.0 228.0 576.0 216.0Q590.0 204.0 607.0 191.5Q624.0 179.0 643.5 172.5Q663.0 166.0 681.0 169.0Q699.0 172.0 712.0 185.0Q725.0 198.0 731.5 217.5Q738.0 237.0 739.5 258.0Q741.0 279.0 741.0 296.5Q741.0 314.0 744.5 327.0Q748.0 340.0 758.5 349.0Q769.0 358.0 784.5 367.5Q800.0 377.0 817.5 389.5Q835.0 402.0 847.0 418.5Q859.0 435.0 862.0 453.5Q865.0 472.0 856.5 488.5Q848.0 505.0 831.0 517.5Q814.0 530.0 794.5 537.5Q775.0 545.0 758.5 550.5Q742.0 556.0 731.0 563.5Q720.0 571.0 714.0 583.5Q708.0 596.0 704.0 614.0Q700.0 632.0 693.5 652.5Q687.0 673.0 675.0 690.0Q663.0 707.0 646.5 715.0Q630.0 723.0 611.5 720.0Q593.0 717.0 576.0 705.0Q559.0 693.0 545.5 676.5Q532.0 660.0 521.5 646.0Q511.0 632.0 500.5 623.5Q490.0 615.0 476.5 613.5Q463.0 612.0 444.5 614.0Q426.0 616.0 404.5 616.0Q383.0 616.0 363.0 610.0Q343.0 604.0 330.0 590.5Q317.0 577.0 314.0 558.5Q311.0 540.0 317.5 520.0Q324.0 500.0 335.0 482.0Q346.0 464.0 356.5 449.5Q367.0 435.0 371.5 422.5Q376.0 410.0 373.5 396.5Q371.0 383.0 363.5 365.5Q356.0 348.0 349.5 327.5Q343.0 307.0 342.5 286.5Q342.0 266.0 350.5 249.5Q359.0 233.0 376.0 224.0Q393.0 215.0 414.0 215.0Q435.0 215.0 456.0 220.5Q477.0 226.0 494.0 231.5Q511.0 237.0 524.0 237.5Q537.0 238.0 549.5 231.0Q562.0 224.0 576.0 211.5Q590.0 199.0 607.5 186.5Q625.0 174.0 644.5 167.0Q664.0 160.0 682.5 163.0Q701.0 166.0 714.5 179.5Q728.0 193.0 735.0 213.0Q742.0 233.0 743.0 254.5Q744.0 276.0 744.0 294.0Q744.0 312.0 748.0 325.0Q752.0 338.0 762.0 347.5Q772.0 357.0 788.5 366.5Q805.0 376.0 822.5 389.0Q840.0 402.0 852.5 418.5Q865.0 435.0 868.0 453.5Q871.0 472.0 862.5 489.5Q854.0 507.0 836.5 519.5Q819.0 532.0 799.0 539.5Q779.0 547.0 762.0 553.0Q745.0 559.0 734.0 566.5Q723.0 574.0 717.0 586.5Q711.0 599.0 707.0 617.5Q703.0 636.0 696.0 657.0Q689.0 678.0 677.0 695.0Q665.0 712.0 648.0 720.5Q631.0 729.0 612.0 726.0Q593.0 723.0 575.5 710.5Q558.0 698.0 544.5 681.5Q531.0 665.0 520.5 650.5Q510.0 636.0 499.0 627.5Q488.0 619.0 474.0 617.5Q460.0 616.0 441.5 617.5Q423.0 619.0 401.0 619.0Q379.0 619.0 358.5 613.0Q338.0 607.0 325.0 593.5Q312.0 580.0 308.5 561.0Q305.0 542.0 311.5 521.5Q318.0 501.0 330.0 482.5Q342.0 464.0 352.5 449.5Q363.0 435.0 367.5 422.0Q372.0 409.0 369.5 395.5Q367.0 382.0 359.5 364.5Q352.0 347.0 345.0 326.0Q338.0 305.0 337.5 283.5Q337.0 262.0 346.0 245.0Q355.0 228.0 372.0 219.5Q389.0 211.0 411.0 210.5Q433.0 210.0 454.0 215.5Q475.0 221.0 492.0 227.0Q509.0 233.0 523.0 233.5Q537.0 234.0 549.0 227.0Q561.0 220.0 575.5 207.0Q590.0 194.0 608.0 181.0Q626.0 168.0 646.0 161.5Q666.0 155.0 685.0 158.0Q704.0 161.0 718.0 174.5Q732.0 188.0 738.5 208.5Q745.0 229.0 746.5 251.0Q748.0 273.0 748.0 291.5Q748.0 310.0 751.5 323.0Q755.0 336.0 765.5 345.5Q776.0 355.0 792.5 365.0Q809.0 375.0 827.0 388.0Q845.0 401.0 858.0 418.0Q871.0 435.0 874.0 454.0Q877.0 473.0 868.0 490.5Q859.0 508.0 841.5 521.0Q824.0 534.0 803.5 542.0Q783.0 550.0 765.5 555.5Q748.0 561.0 737.0 568.5Q726.0 576.0 720.0 589.5Q714.0 603.0 709.5 621.5Q705.0 640.0 698.0 661.0Q691.0 682.0 679.0 700.0Q667.0 718.0 649.5 726.5Q632.0 735.0 612.5 732.0Q593.0 729.0 575.5 716.5Q558.0 704.0 544.0 687.0Q530.0 670.0 519.5 655.0Q509.0 640.0 498.0 631.5Q487.0 623.0 472.5 621.0Q458.0 619.0 438.5 621.0Q419.0 623.0 397.0 623.0Q375.0 623.0 354.5 616.5Q334.0 610.0 320.0 596.5Q306.0 583.0 303.0 563.5Q300.0 544.0 306.5 523.0Q313.0 502.0 325.0 483.5Q337.0 465.0 348.0 450.0Q359.0 435.0 363.5 422.0Q368.0 409.0 365.5 394.5Q363.0 380.0 355.0 362.5Q347.0 345.0 340.0 323.5Q333.0 302.0 333.0 280.5Q333.0 259.0 342.0 241.5Q351.0 224.0 368.5 215.0Q386.0 206.0 408.0 206.0Q430.0 206.0 451.5 211.5Q473.0 217.0 490.5 223.0Q508.0 229.0 522.0 229.5Q536.0 230.0 548.5 222.5Q561.0 215.0 575.5 202.5Q590.0 190.0 608.5 176.5Q627.0 163.0 647.5 156.0Q668.0 149.0 687.0 152.5Q706.0 156.0 720.5 169.5Q735.0 183.0 742.0 204.0Q749.0 225.0 750.0 247.5Q751.0 270.0 751.0 288.5Q751.0 307.0 755.0 320.5Q759.0 334.0 769.5 344.0Q780.0 354.0 797.0 364.0Q814.0 374.0 832.5 387.0Q851.0 400.0 864.0 417.5Q877.0 435.0 880.0 454.5Q883.0 474.0 874.0 491.5Q865.0 509.0 847.0 522.5Q829.0 536.0 808.5 544.0Q788.0 552.0 770.0 557.5Q752.0 563.0 740.5 571.0Q729.0 579.0 722.5 592.5Q716.0 606.0 712.0 625.0Q708.0 644.0 701.0 665.5Q694.0 687.0 681.5 705.0Q669.0 723.0 651.0 732.0Q633.0 741.0 613.5 738.0Q594.0 735.0 576.0 722.0Q558.0 709.0 543.5 691.5Q529.0 674.0 518.0 659.0Q507.0 644.0 496.0 635.0Q485.0 626.0 470.5 624.5Q456.0 623.0 436.0 625.0Q416.0 627.0 393.5 627.0Q371.0 627.0 350.0 620.5Q329.0 614.0 315.0 599.5Q301.0 585.0 298.0 565.5Q295.0 546.0 301.5 524.5Q308.0 503.0 320.5 484.5Q333.0 466.0 344.0 450.5Q355.0 435.0 359.5 421.5Q364.0 408.0 361.5 393.5Q359.0 379.0 351.0 361.0Q343.0 343.0 336.0 321.5Q329.0 300.0 328.5 278.0Q328.0 256.0 337.0 238.0Q346.0 220.0 364.0 211.0Q382.0 202.0 404.5 202.0Q427.0 202.0 449.0 207.5Q471.0 213.0 489.0 219.0Q507.0 225.0 521.0 225.5Q535.0 226.0 548.0 218.5Q561.0 211.0 576.0 198.0Q591.0 185.0 609.5 171.5Q628.0 158.0 649.0 150.5Q670.0 143.0 689.5 146.5Q709.0 150.0 723.5 164.5Q738.0 179.0 745.0 200.0Q752.0 221.0 753.0 243.5Q754.0 266.0 754.5 285.5Q755.0 305.0 758.5 318.5Q762.0 332.0 773.0 342.0Q784.0 352.0 801.5 362.0Q819.0 372.0 837.5 386.0Q856.0 400.0 869.5 417.5Q883.0 435.0 885.5 455.0Q888.0 475.0 879.0 493.0Q870.0 511.0 852.0 524.5Q834.0 538.0 813.0 546.0Q792.0 554.0 773.5 560.0Q755.0 566.0 743.0 574.0Q731.0 582.0 725.0 595.5Q719.0 609.0 714.5 628.5Q710.0 648.0 703.0 670.0Q696.0 692.0 683.0 710.5Q670.0 729.0 652.0 738.0Q634.0 747.0 614.0 743.5Q594.0 740.0 575.5 727.0Q557.0 714.0 543.0 696.5Q529.0 679.0 517.5 663.5Q506.0 648.0 494.5 639.0Q483.0 630.0 468.0 628.5Q453.0 627.0 433.0 628.5Q413.0 630.0 390.0 630.0Q367.0 630.0 345.5 623.5Q324.0 617.0 310.0 602.5Q296.0 588.0 292.5 568.0Q289.0 548.0 296.0 526.5Q303.0 505.0 315.5 485.5Q328.0 466.0 339.5 450.5Q351.0 435.0 355.5 421.5Q360.0 408.0 357.0 393.0Q354.0 378.0 346.0 359.5Q338.0 341.0 331.0 319.0Q324.0 297.0 323.5 274.5Q323.0 252.0 332.5 234.0Q342.0 216.0 360.0 206.5Q378.0 197.0 401.0 197.0Q424.0 197.0 446.5 203.0Q469.0 209.0 487.0 215.0Q505.0 221.0 519.5 221.5Q534.0 222.0 547.5 214.5Q561.0 207.0 576.0 193.5Q591.0 180.0 610.0 166.5Q629.0 153.0 650.5 145.5Q672.0 138.0 692.0 141.5Q712.0 145.0 726.5 159.5Q741.0 174.0 748.0 195.5Q755.0 217.0 756.5 240.0Q758.0 263.0 758.0 282.5Q758.0 302.0 762.0 316.0Q766.0 330.0 777.0 340.5Q788.0 351.0 805.5 361.0Q823.0 371.0 842.0 385.0Q861.0 399.0 874.5 417.0Q888.0 435.0 891.0 455.0Q894.0 475.0 885.0 493.5Q876.0 512.0 857.5 525.5Q839.0 539.0 817.5 547.5Q796.0 556.0 777.5 562.0Q759.0 568.0 746.5 576.5Q734.0 585.0 728.0 598.5Q722.0 612.0 717.5 632.0Q713.0 652.0 705.5 674.5Q698.0 697.0 685.0 715.5Q672.0 734.0 654.0 743.0Q636.0 752.0 615.5 749.0Q595.0 746.0 576.0 732.5Q557.0 719.0 542.5 701.0Q528.0 683.0 516.5 667.5Q505.0 652.0 493.5 643.0Q482.0 634.0 466.5 632.0Q451.0 630.0 430.5 632.0Q410.0 634.0 386.5 634.0Q363.0 634.0 341.5 627.5Q320.0 621.0 305.5 606.0Q291.0 591.0 287.5 570.5Q284.0 550.0 291.0 528.0Q298.0 506.0 310.5 486.5Q323.0 467.0 334.5 451.0Q346.0 435.0 351.0 421.0Q356.0 407.0 353.0 392.0Q350.0 377.0 342.0 358.5Q334.0 340.0 326.5 317.0Q319.0 294.0 319.0 271.5Q319.0 249.0 328.5 230.5Q338.0 212.0 356.5 202.5Q375.0 193.0 398.0 193.0Q421.0 193.0 444.0 199.0Q467.0 205.0 485.5 211.0Q504.0 217.0 519.0 217.5Q534.0 218.0 547.0 210.5Q560.0 203.0 575.5 189.0Q591.0 175.0 610.5 161.0Q630.0 147.0 651.5 139.5Q673.0 132.0 693.5 135.5Q714.0 139.0 729.0 154.0Q744.0 169.0 751.5 191.0Q759.0 213.0 760.0 236.5Q761.0 260.0 761.0 280.0Q761.0 300.0 765.0 314.0Q769.0 328.0 780.5 338.5Q792.0 349.0 810.0 359.5Q828.0 370.0 847.0 384.0Q866.0 398.0 880.0 416.5Q894.0 435.0 897.0 455.5Q900.0 476.0 890.5 495.0Q881.0 514.0 862.5 527.5Q844.0 541.0 822.0 550.0Q800.0 559.0 781.0 565.0Q762.0 571.0 749.5 579.0Q737.0 587.0 730.5 601.5Q724.0 616.0 719.5 636.0Q715.0 656.0 708.0 679.0Q701.0 702.0 687.5 721.0Q674.0 740.0 655.5 749.0Q637.0 758.0 616.0 755.0Q595.0 752.0 576.0 738.5Q557.0 725.0 542.0 706.5Q527.0 688.0 515.0 672.0Q503.0 656.0 491.5 646.5Q480.0 637.0 464.5 635.5Q449.0 634.0 428.0 636.0Q407.0 638.0 383.0 638.0Q359.0 638.0 337.0 631.0Q315.0 624.0 300.5 609.0Q286.0 594.0 282.5 573.0Q279.0 552.0 286.0 529.5Q293.0 507.0 306.0 487.0Q319.0 467.0 330.5 451.0Q342.0 435.0 347.0 421.0Q352.0 407.0 349.0 391.5Q346.0 376.0 338.0 357.0Q330.0 338.0 322.5 315.0Q315.0 292.0 314.5 268.5Q314.0 245.0 323.5 226.5Q333.0 208.0 352.0 198.5Q371.0 189.0 394.5 188.5Q418.0 188.0 441.5 194.0Q465.0 200.0 484.0 206.5Q503.0 213.0 518.0 213.5Q533.0 214.0 546.5 206.0Q560.0 198.0 576.0 184.5Q592.0 171.0 611.5 156.5Q631.0 142.0 653.0 134.5Q675.0 127.0 696.0 130.5Q717.0 134.0 732.0 149.0Q747.0 164.0 754.5 186.5Q762.0 209.0 763.5 233.0Q765.0 257.0 765.0 277.0Q765.0 297.0 769.0 311.5Q773.0 326.0 784.5 336.5Q796.0 347.0 814.0 358.0Q832.0 369.0 852.0 383.5Q872.0 398.0 886.0 416.5Q900.0 435.0 903.0 456.0Q906.0 477.0 896.5 496.0Q887.0 515.0 868.0 529.0Q849.0 543.0 826.5 552.0Q804.0 561.0 784.5 567.0Q765.0 573.0 752.5 581.5Q740.0 590.0 733.5 604.5Q727.0 619.0 722.5 639.5Q718.0 660.0 710.5 683.5Q703.0 707.0 689.5 726.0Q676.0 745.0 657.0 754.5Q638.0 764.0 616.5 761.0Q595.0 758.0 575.5 744.0Q556.0 730.0 541.0 711.0Q526.0 692.0 514.0 676.0Q502.0 660.0 490.0 650.5Q478.0 641.0 462.5 639.0Q447.0 637.0 425.5 639.0Q404.0 641.0 379.5 641.0Q355.0 641.0 332.5 634.0Q310.0 627.0 295.0 612.0Q280.0 597.0 276.5 575.5Q273.0 554.0 280.5 531.5Q288.0 509.0 301.0 488.5Q314.0 468.0 326.0 451.5Q338.0 435.0 343.0 420.5Q348.0 406.0 345.0 390.5Q342.0 375.0 333.5 355.5Q325.0 336.0 317.5 312.5Q310.0 289.0 309.5 265.5Q309.0 242.0 319.0 223.0Q329.0 204.0 348.5 194.0Q368.0 184.0 392.0 184.0Q416.0 184.0 439.5 190.0Q463.0 196.0 482.5 202.5Q502.0 209.0 517.0 209.5Q532.0 210.0 546.0 202.0Q560.0 194.0 576.0 180.0Q592.0 166.0 612.0 151.5Q632.0 137.0 654.5 129.0Q677.0 121.0 698.0 125.0Q719.0 129.0 734.5 144.0Q750.0 159.0 757.5 182.0Q765.0 205.0 766.5 229.5Q768.0 254.0 768.0 274.5Q768.0 295.0 772.5 309.5Q777.0 324.0 788.5 335.0Q800.0 346.0 818.5 357.0Q837.0 368.0 857.0 382.5Q877.0 397.0 891.5 416.0Q906.0 435.0 909.0 456.5Q912.0 478.0 902.5 497.5Q893.0 517.0 873.5 531.0Q854.0 545.0 831.0 554.0Q808.0 563.0 788.5 569.5Q769.0 576.0 756.0 584.5Q743.0 593.0 736.5 607.5Q730.0 622.0 725.0 643.0Q720.0 664.0 712.5 687.5Q705.0 711.0 691.5 731.0Q678.0 751.0 658.5 760.5Q639.0 770.0 617.5 766.5Q596.0 763.0 576.0 749.0Q556.0 735.0 540.5 716.0Q525.0 697.0 513.0 680.5Q501.0 664.0 488.5 654.5Q476.0 645.0 460.0 643.0Q444.0 641.0 422.5 643.0Q401.0 645.0 376.0 645.0Q351.0 645.0 328.0 638.0Q305.0 631.0 290.0 615.5Q275.0 600.0 271.5 578.5Q268.0 557.0 275.5 533.5Q283.0 510.0 296.0 489.5Q309.0 469.0 321.5 452.0Q334.0 435.0 339.0 420.5Q344.0 406.0 341.0 390.0Q338.0 374.0 329.5 354.0Q321.0 334.0 313.0 310.5Q305.0 287.0 304.5 262.5Q304.0 238.0 314.5 219.0Q325.0 200.0 344.5 190.0Q364.0 180.0 388.5 179.5Q413.0 179.0 437.0 185.5Q461.0 192.0 480.5 198.5Q500.0 205.0 515.5 205.5Q531.0 206.0 545.5 198.0Q560.0 190.0 576.0 175.5Q592.0 161.0 612.5 146.5Q633.0 132.0 656.0 124.0Q679.0 116.0 700.5 119.5Q722.0 123.0 737.5 138.5Q753.0 154.0 761.0 177.5Q769.0 201.0 770.0 226.0Q771.0 251.0 771.0 271.5Q771.0 292.0 775.5 307.0Q780.0 322.0 792.0 333.0Q804.0 344.0 823.0 355.5Q842.0 367.0 862.0 381.5Q882.0 396.0 897.0 415.5Q912.0 435.0 915.0 456.5Q918.0 478.0 908.0 498.0Q898.0 518.0 878.0 532.5Q858.0 547.0 835.0 556.0Q812.0 565.0 792.0 571.5Q772.0 578.0 759.0 587.0Q746.0 596.0 739.5 611.0Q733.0 626.0 728.0 647.0Q723.0 668.0 715.0 692.0Q707.0 716.0 693.0 736.0Q679.0 756.0 659.5 766.0Q640.0 776.0 618.0 772.5Q596.0 769.0 576.0 754.5Q556.0 740.0 540.0 721.0Q524.0 702.0 511.5 685.0Q499.0 668.0 487.0 658.0Q475.0 648.0 458.5 646.0Q442.0 644.0 420.0 646.5Q398.0 649.0 373.0 649.0Q348.0 649.0 324.5 641.5Q301.0 634.0 285.5 618.5Q270.0 603.0 266.5 581.0Q263.0 559.0 270.5 535.0Q278.0 511.0 291.5 490.0Q305.0 469.0 317.5 452.0Q330.0 435.0 335.0 420.0Q340.0 405.0 337.0 389.0Q334.0 373.0 325.0 353.0Q316.0 333.0 308.5 308.5Q301.0 284.0 300.5 259.5Q300.0 235.0 310.0 215.5Q320.0 196.0 340.0 185.5Q360.0 175.0 385.0 175.0Q410.0 175.0 434.5 181.5Q459.0 188.0 479.0 194.5Q499.0 201.0 515.0 201.5Q531.0 202.0 545.0 194.0Q559.0 186.0 576.0 171.0Q593.0 156.0 613.5 141.0Q634.0 126.0 657.0 118.0Q680.0 110.0 702.0 114.0Q724.0 118.0 740.0 133.5Q756.0 149.0 764.0 173.0Q772.0 197.0 773.5 222.0Q775.0 247.0 775.0 268.5Q775.0 290.0 779.5 305.0Q784.0 320.0 796.0 331.5Q808.0 343.0 827.0 354.0Q846.0 365.0 867.0 380.5Q888.0 396.0 903.0 415.5Q918.0 435.0 921.0 457.0Q924.0 479.0 914.0 499.0Q904.0 519.0 883.5 534.0Q863.0 549.0 839.5 558.5Q816.0 568.0 796.0 574.5Q776.0 581.0 762.5 590.0Q749.0 599.0 742.0 614.0Q735.0 629.0 730.5 650.5Q726.0 672.0 718.0 696.5Q710.0 721.0 695.5 741.5Q681.0 762.0 661.0 772.0Q641.0 782.0 618.5 778.5Q596.0 775.0 575.5 760.0Q555.0 745.0 539.0 725.5Q523.0 706.0 510.5 689.0Q498.0 672.0 485.5 662.0Q473.0 652.0 456.5 650.0Q440.0 648.0 417.5 650.0Q395.0 652.0 369.5 652.0Q344.0 652.0 320.0 645.0Q296.0 638.0 280.5 622.0Q265.0 606.0 261.0 583.5Q257.0 561.0 265.0 537.0Q273.0 513.0 286.5 491.5Q300.0 470.0 312.5 452.5Q325.0 435.0 330.5 420.0Q336.0 405.0 333.0 388.5Q330.0 372.0 321.0 351.5Q312.0 331.0 304.0 306.5Q296.0 282.0 295.5 257.0Q295.0 232.0 305.5 212.0Q316.0 192.0 336.5 181.5Q357.0 171.0 382.0 171.0Q407.0 171.0 432.0 177.5Q457.0 184.0 477.5 190.5Q498.0 197.0 514.0 197.5Q530.0 198.0 544.5 189.5Q559.0 181.0 576.0 166.5Q593.0 152.0 614.0 136.5Q635.0 121.0 658.5 113.0Q682.0 105.0 704.5 108.5Q727.0 112.0 743.0 128.5Q759.0 145.0 767.0 169.0Q775.0 193.0 776.5 218.5Q778.0 244.0 778.0 265.5Q778.0 287.0 782.5 302.5Q787.0 318.0 799.5 329.5Q812.0 341.0 831.5 352.5Q851.0 364.0 872.0 379.5Q893.0 395.0 908.0 415.0Q923.0 435.0 926.5 457.5Q930.0 480.0 919.5 500.5Q909.0 521.0 888.5 536.0Q868.0 551.0 844.0 560.5Q820.0 570.0 799.5 576.5Q779.0 583.0 765.5 592.0Q752.0 601.0 745.0 616.5Q738.0 632.0 733.0 654.0Q728.0 676.0 720.0 701.0Q712.0 726.0 697.5 746.5Q683.0 767.0 662.5 777.5Q642.0 788.0 619.5 784.5Q597.0 781.0 576.0 766.0Q555.0 751.0 538.5 731.0Q522.0 711.0 509.5 693.5Q497.0 676.0 484.0 666.0Q471.0 656.0 454.0 654.0Q437.0 652.0 414.5 654.0Q392.0 656.0 366.0 656.0Q340.0 656.0 315.5 648.5Q291.0 641.0 275.0 624.5Q259.0 608.0 255.5 585.5Q252.0 563.0 260.0 538.5Q268.0 514.0 282.0 492.0Q296.0 470.0 308.5 452.5Q321.0 435.0 326.5 419.5Q332.0 404.0 329.0 387.5Q326.0 371.0 317.0 350.0Q308.0 329.0 299.5 304.0Q291.0 279.0 290.5 253.5Q290.0 228.0 301.0 208.0Q312.0 188.0 332.5 177.0Q353.0 166.0 378.5 166.0Q404.0 166.0 429.5 172.5Q455.0 179.0 475.5 186.0Q496.0 193.0 512.5 193.5Q529.0 194.0 544.0 185.5Q559.0 177.0 576.0 162.0Q593.0 147.0 614.5 131.5Q636.0 116.0 660.0 107.5Q684.0 99.0 706.5 103.0Q729.0 107.0 745.5 123.5Q762.0 140.0 770.5 164.5Q779.0 189.0 780.5 215.0Q782.0 241.0 782.0 263.0Q782.0 285.0 786.5 300.5Q791.0 316.0 803.5 328.0Q816.0 340.0 835.5 351.5Q855.0 363.0 876.5 378.5Q898.0 394.0 913.5 414.5Q929.0 435.0 932.5 458.0Q936.0 481.0 925.5 501.5Q915.0 522.0 894.0 537.5Q873.0 553.0 848.5 562.5Q824.0 572.0 803.0 579.0Q782.0 586.0 768.5 595.0Q755.0 604.0 748.0 619.5Q741.0 635.0 736.0 657.5Q731.0 680.0 722.5 705.5Q714.0 731.0 699.5 752.0Q685.0 773.0 664.0 783.0Q643.0 793.0 620.0 789.5Q597.0 786.0 576.0 771.0Q555.0 756.0 538.5 735.5Q522.0 715.0 509.0 697.5Q496.0 680.0 483.0 669.5Q470.0 659.0 452.5 657.0Q435.0 655.0 412.0 657.5Q389.0 660.0 362.5 660.0Q336.0 660.0 311.5 652.5Q287.0 645.0 270.5 628.0Q254.0 611.0 250.5 588.0Q247.0 565.0 255.0 540.0Q263.0 515.0 277.0 493.0Q291.0 471.0 304.0 453.0Q317.0 435.0 322.5 419.5Q328.0 404.0 325.0 387.0Q322.0 370.0 312.5 348.5Q303.0 327.0 295.0 301.5Q287.0 276.0 286.5 250.5Q286.0 225.0 296.5 204.5Q307.0 184.0 328.0 173.0Q349.0 162.0 375.5 162.0Q402.0 162.0 427.5 168.5Q453.0 175.0 474.0 182.0Q495.0 189.0 511.5 189.5Q528.0 190.0 543.5 181.5Q559.0 173.0 576.0 157.5Q593.0 142.0 615.0 126.5Q637.0 111.0 661.5 102.5Q686.0 94.0 709.0 98.0Q732.0 102.0 748.5 118.5Q765.0 135.0 773.5 160.0Q782.0 185.0 783.5 211.5Q785.0 238.0 785.0 260.0Q785.0 282.0 789.5 298.0Q794.0 314.0 807.0 326.0Q820.0 338.0 840.0 350.0Q860.0 362.0 882.0 377.5Q904.0 393.0 919.5 414.0Q935.0 435.0 938.5 458.0Q942.0 481.0 931.0 502.5Q920.0 524.0 899.0 539.5Q878.0 555.0 853.0 564.5Q828.0 574.0 807.0 581.0Q786.0 588.0 772.0 597.5Q758.0 607.0 750.5 623.0Q743.0 639.0 738.0 661.5Q733.0 684.0 724.5 710.0Q716.0 736.0 701.5 757.0Q687.0 778.0 665.5 788.5Q644.0 799.0 620.5 795.5Q597.0 792.0 575.5 776.5Q554.0 761.0 537.5 740.5Q521.0 720.0 507.5 702.0Q494.0 684.0 481.0 673.5Q468.0 663.0 450.5 661.0Q433.0 659.0 409.5 661.0Q386.0 663.0 359.0 663.0Q332.0 663.0 307.0 655.5Q282.0 648.0 265.5 631.0Q249.0 614.0 245.0 590.5Q241.0 567.0 249.0 542.0Q257.0 517.0 271.5 494.0Q286.0 471.0 299.5 453.0Q313.0 435.0 318.5 419.0Q324.0 403.0 320.5 386.0Q317.0 369.0 308.0 347.5Q299.0 326.0 290.5 300.0Q282.0 274.0 281.5 247.5Q281.0 221.0 292.0 200.5Q303.0 180.0 324.5 169.0Q346.0 158.0 372.5 157.5Q399.0 157.0 425.0 164.0Q451.0 171.0 472.5 178.0Q494.0 185.0 511.0 185.5Q528.0 186.0 543.0 177.5Q558.0 169.0 576.0 153.0Q594.0 137.0 616.0 121.0Q638.0 105.0 663.0 96.5Q688.0 88.0 711.0 92.0Q734.0 96.0 751.5 113.0Q769.0 130.0 777.0 155.5Q785.0 181.0 786.5 208.0Q788.0 235.0 788.0 257.5Q788.0 280.0 793.0 296.5Q798.0 313.0 811.0 324.5Q824.0 336.0 844.5 348.5Q865.0 361.0 887.0 377.0Q909.0 393.0 925.0 414.0Q941.0 435.0 944.5 458.5Q948.0 482.0 937.0 503.5Q926.0 525.0 904.5 541.0Q883.0 557.0 857.5 567.0Q832.0 577.0 810.5 584.0Q789.0 591.0 775.0 600.5Q761.0 610.0 753.5 626.0Q746.0 642.0 741.0 665.0Q736.0 688.0 727.5 714.0Q719.0 740.0 703.5 762.0Q688.0 784.0 667.0 794.5Q646.0 805.0 622.0 801.5Q598.0 798.0 576.0 782.0Q554.0 766.0 537.0 745.0Q520.0 724.0 506.5 706.0Q493.0 688.0 479.5 677.0Q466.0 666.0 448.5 664.0Q431.0 662.0 407.0 664.5Q383.0 667.0 355.5 667.0Q328.0 667.0 302.5 659.0Q277.0 651.0 260.5 634.0Q244.0 617.0 240.0 593.0Q236.0 569.0 244.0 543.5Q252.0 518.0 267.0 495.0Q282.0 472.0 295.5 453.5Q309.0 435.0 314.5 419.0Q320.0 403.0 316.5 385.5Q313.0 368.0 303.5 346.0Q294.0 324.0 285.5 297.5Q277.0 271.0 276.5 244.5Q276.0 218.0 287.5 196.5Q299.0 175.0 320.5 164.0Q342.0 153.0 369.0 153.0Q396.0 153.0 422.5 160.0Q449.0 167.0 470.5 174.0Q492.0 181.0 509.5 181.5Q527.0 182.0 542.5 173.0Q558.0 164.0 576.0 148.5Q594.0 133.0 616.5 116.5Q639.0 100.0 664.0 91.5Q689.0 83.0 713.0 87.0Q737.0 91.0 754.5 108.0Q772.0 125.0 780.5 151.0Q789.0 177.0 790.5 204.0Q792.0 231.0 792.0 254.0Q792.0 277.0 796.5 294.0Q801.0 311.0 814.5 323.0Q828.0 335.0 848.5 347.0Q869.0 359.0 891.5 375.5Q914.0 392.0 930.5 413.5Q947.0 435.0 950.5 459.0Q954.0 483.0 942.5 505.0Q931.0 527.0 909.5 543.0Q888.0 559.0 862.0 569.0Q836.0 579.0 814.5 586.0Q793.0 593.0 778.5 602.5Q764.0 612.0 756.5 628.5Q749.0 645.0 743.5 668.5Q738.0 692.0 729.5 718.5Q721.0 745.0 705.5 767.0Q690.0 789.0 668.5 800.0Q647.0 811.0 622.5 807.0Q598.0 803.0 576.0 787.5Q554.0 772.0 536.5 750.5Q519.0 729.0 505.5 710.5Q492.0 692.0 478.0 681.0Q464.0 670.0 446.0 668.0Q428.0 666.0 404.0 668.5Q380.0 671.0 352.0 670.5Q324.0 670.0 298.5 662.5Q273.0 655.0 256.0 637.5Q239.0 620.0 235.0 595.5Q231.0 571.0 239.0 545.0Q247.0 519.0 262.0 496.0Q277.0 473.0 290.5 454.0Q304.0 435.0 310.0 418.5Q316.0 402.0 312.5 384.5Q309.0 367.0 299.5 344.5Q290.0 322.0 281.5 295.5Q273.0 269.0 272.5 242.0Q272.0 215.0 283.0 193.0Q294.0 171.0 316.0 160.0Q338.0 149.0 365.5 148.5Q393.0 148.0 420.0 155.0Q447.0 162.0 469.0 169.5Q491.0 177.0 508.5 177.5Q526.0 178.0 542.0 169.0Q558.0 160.0 576.0 144.0Q594.0 128.0 617.0 111.5Q640.0 95.0 665.5 86.0Q691.0 77.0 715.0 81.0Q739.0 85.0 757.0 102.5Q775.0 120.0 783.5 146.5Q792.0 173.0 793.5 200.5Q795.0 228.0 795.0 251.5Q795.0 275.0 800.0 292.0Q805.0 309.0 818.5 321.0Q832.0 333.0 853.0 345.5Q874.0 358.0 896.5 374.5Q919.0 391.0 935.5 413.0Q952.0 435.0 955.5 459.5Q959.0 484.0 948.0 506.0Q937.0 528.0 915.0 544.5Q893.0 561.0 867.0 571.0Q841.0 581.0 818.5 588.5Q796.0 596.0 781.5 605.5Q767.0 615.0 759.5 631.5Q752.0 648.0 746.5 672.0Q741.0 696.0 732.0 723.0Q723.0 750.0 707.5 772.5Q692.0 795.0 670.0 806.0Q648.0 817.0 623.5 813.0Q599.0 809.0 576.0 793.0Q553.0 777.0 535.5 755.5Q518.0 734.0 504.0 715.0Q490.0 696.0 476.5 685.0Q463.0 674.0 444.5 672.0Q426.0 670.0 401.5 672.0Q377.0 674.0 348.5 674.0Q320.0 674.0 294.0 666.0Q268.0 658.0 250.5 640.5Q233.0 623.0 229.0 598.0Q225.0 573.0 233.5 546.5Q242.0 520.0 257.0 496.5Q272.0 473.0 286.0 454.0Q300.0 435.0 306.0 418.5Q312.0 402.0 308.5 384.0Q305.0 366.0 295.0 343.0Q285.0 320.0 276.5 293.0Q268.0 266.0 267.5 238.5Q267.0 211.0 278.5 189.0Q290.0 167.0 312.5 155.5Q335.0 144.0 362.5 144.0Q390.0 144.0 417.5 151.0Q445.0 158.0 467.5 165.5Q490.0 173.0 507.5 173.5Q525.0 174.0 541.0 165.0Q557.0 156.0 576.0 139.5Q595.0 123.0 618.0 106.5Q641.0 90.0 667.0 81.0Q693.0 72.0 717.5 76.0Q742.0 80.0 760.0 98.0Q778.0 116.0 786.5 142.5Q795.0 169.0 797.0 197.0Q799.0 225.0 799.0 249.0Q799.0 273.0 803.5 290.0Q808.0 307.0 822.0 319.5Q836.0 332.0 857.5 344.5Q879.0 357.0 902.0 374.0Q925.0 391.0 941.5 413.0Q958.0 435.0 961.5 459.5Q965.0 484.0 954.0 506.5Q943.0 529.0 920.0 546.0Q897.0 563.0 871.0 573.0Q845.0 583.0 822.0 590.5Q799.0 598.0 784.5 608.0Q770.0 618.0 762.0 635.0Q754.0 652.0 748.5 676.0Q743.0 700.0 734.5 727.5Q726.0 755.0 710.0 777.5"/>
  </g>
</svg>
