<svg version="1.1" width="1150" height="870" xmlns="http://www.w3.org/2000/svg">
  <!-- Seed: 307947687546219303 -->
  <!-- Size: SvgSize.Size9x12 -->
  <!-- Params:
    draw: True
    padding: 0
    spacing: 5
    points_per_step_ring: 50
    bump_range: [RangeFloat] min: 0 max: 0.1
    bump_mult: [RangeInt] min: 2 max: 20
  -->
  <g stroke="black" fill="none">
    <path d="M575.0 435.5Q575.0 436.0 574.5 436.0Q574.0 436.0 573.5 436.0Q573.0 436.0 573.0 435.5Q573.0 435.0 572.5 435.0Q572.0 435.0 572.0 434.5Q572.0 434.0 572.5 433.5Q573.0 433.0 573.0 432.5Q573.0 432.0 573.5 432.0Q574.0 432.0 574.0 431.5Q574.0 431.0 574.5 431.0Q575.0 431.0 575.5 431.0Q576.0 431.0 576.5 431.0Q577.0 431.0 577.5 431.5Q578.0 432.0 578.5 432.0Q579.0 432.0 579.0 432.5Q579.0 433.0 579.5 433.5Q580.0 434.0 580.0 434.5Q580.0 435.0 580.0 435.5Q580.0 436.0 580.0 436.5Q580.0 437.0 580.0 437.5Q580.0 438.0 579.5 438.5Q579.0 439.0 578.5 439.5Q578.0 440.0 577.5 440.5Q577.0 441.0 576.5 441.0Q576.0 441.0 575.5 441.0Q575.0 441.0 574.5 441.0Q574.0 441.0 573.5 441.0Q573.0 441.0 572.5 441.0Q572.0 441.0 571.5 441.0Q571.0 441.0 571.0 440.5Q571.0 440.0 570.5 440.0Q570.0 440.0 569.5 439.5Q569.0 439.0 569.0 438.5Q569.0 438.0 568.5 438.0Q568.0 438.0 568.0 437.5Q568.0 437.0 568.0 436.5Q568.0 436.0 567.5 435.5Q567.0 435.0 567.0 434.5Q567.0 434.0 567.5 433.5Q568.0 433.0 568.0 432.5Q568.0 432.0 568.0 431.5Q568.0 431.0 568.5 430.5Q569.0 430.0 569.0 429.5Q569.0 429.0 569.5 429.0Q570.0 429.0 570.5 428.5Q571.0 428.0 571.0 427.5Q571.0 427.0 571.5 427.0Q572.0 427.0 572.5 427.0Q573.0 427.0 573.5 426.5Q574.0 426.0 575.0 426.0Q576.0 426.0 576.5 426.0Q577.0 426.0 577.5 426.5Q578.0 427.0 578.5 427.0Q579.0 427.0 579.5 427.0Q580.0 427.0 580.5 427.5Q581.0 428.0 581.5 428.5Q582.0 429.0 582.5 429.0Q583.0 429.0 583.0 429.5Q583.0 430.0 583.5 430.5Q584.0 431.0 584.5 432.0Q585.0 433.0 585.0 433.5Q585.0 434.0 585.0 434.5Q585.0 435.0 585.0 435.5Q585.0 436.0 585.0 437.0Q585.0 438.0 584.5 438.5Q584.0 439.0 584.0 439.5Q584.0 440.0 584.0 440.5Q584.0 441.0 583.5 441.5Q583.0 442.0 582.5 442.5Q582.0 443.0 581.5 443.5Q581.0 444.0 580.5 444.5Q580.0 445.0 579.0 445.0Q578.0 445.0 577.5 445.5Q577.0 446.0 576.5 446.0Q576.0 446.0 575.0 446.0Q574.0 446.0 573.5 446.0Q573.0 446.0 572.0 446.0Q571.0 446.0 570.5 445.5Q570.0 445.0 569.5 445.0Q569.0 445.0 568.0 444.5Q567.0 444.0 566.5 443.5Q566.0 443.0 565.5 442.5Q565.0 442.0 564.5 441.5Q564.0 441.0 563.5 440.5Q563.0 440.0 563.0 439.0Q563.0 438.0 563.0 437.5Q563.0 437.0 562.5 436.0Q562.0 435.0 562.5 434.0Q563.0 433.0 563.0 432.5Q563.0 432.0 563.0 431.0Q563.0 430.0 563.5 429.5Q564.0 429.0 564.5 428.0Q565.0 427.0 565.0 426.5Q565.0 426.0 565.5 425.5Q566.0 425.0 567.0 424.5Q568.0 424.0 568.5 423.5Q569.0 423.0 570.0 422.5Q571.0 422.0 571.5 422.0Q572.0 422.0 573.0 422.0Q574.0 422.0 575.0 421.5Q576.0 421.0 577.0 421.0Q578.0 421.0 578.5 421.5Q579.0 422.0 580.0 422.0Q581.0 422.0 582.0 422.5Q583.0 423.0 583.5 423.5Q584.0 424.0 584.5 424.5Q585.0 425.0 586.0 425.5Q587.0 426.0 587.5 427.0Q588.0 428.0 588.0 429.0Q588.0 430.0 589.0 430.5Q590.0 431.0 590.0 432.0Q590.0 433.0 590.0 434.0Q590.0 435.0 590.0 436.0Q590.0 437.0 590.0 438.0Q590.0 439.0 589.5 440.0Q589.0 441.0 588.5 441.5Q588.0 442.0 588.0 443.0Q588.0 444.0 587.0 445.0Q586.0 446.0 585.5 446.5Q585.0 447.0 584.5 448.0Q584.0 449.0 583.0 449.0Q582.0 449.0 581.0 449.5Q580.0 450.0 579.0 450.5Q578.0 451.0 577.0 451.0Q576.0 451.0 575.0 451.0Q574.0 451.0 573.0 451.0Q572.0 451.0 571.0 451.0Q570.0 451.0 569.0 450.5Q568.0 450.0 567.0 449.5Q566.0 449.0 565.0 448.5Q564.0 448.0 563.5 447.5Q563.0 447.0 562.0 446.0Q561.0 445.0 560.5 444.0Q560.0 443.0 559.5 442.0Q559.0 441.0 558.5 440.0Q558.0 439.0 558.0 438.0Q558.0 437.0 557.5 436.0Q557.0 435.0 557.5 434.0Q558.0 433.0 558.0 432.0Q558.0 431.0 558.0 429.5Q558.0 428.0 558.5 427.0Q559.0 426.0 560.0 425.5Q561.0 425.0 561.5 424.0Q562.0 423.0 562.5 422.0Q563.0 421.0 564.0 420.5Q565.0 420.0 566.0 419.0Q567.0 418.0 568.0 417.5Q569.0 417.0 570.5 417.0Q572.0 417.0 573.0 417.0Q574.0 417.0 575.0 416.5Q576.0 416.0 577.5 416.0Q579.0 416.0 580.0 416.5Q581.0 417.0 582.0 417.5Q583.0 418.0 584.0 418.5Q585.0 419.0 586.0 419.5Q587.0 420.0 588.0 421.0Q589.0 422.0 590.0 422.5Q591.0 423.0 591.5 424.5Q592.0 426.0 592.5 427.0Q593.0 428.0 593.5 429.0Q594.0 430.0 594.5 431.0Q595.0 432.0 595.0 433.5Q595.0 435.0 595.0 436.5Q595.0 438.0 595.0 439.0Q595.0 440.0 594.5 441.0Q594.0 442.0 593.5 443.5Q593.0 445.0 592.5 446.0Q592.0 447.0 591.0 448.0Q590.0 449.0 589.0 450.0Q588.0 451.0 587.0 452.0Q586.0 453.0 585.0 453.5Q584.0 454.0 582.5 454.5Q581.0 455.0 580.0 455.5Q579.0 456.0 577.5 456.0Q576.0 456.0 575.0 456.0Q574.0 456.0 572.5 456.0Q571.0 456.0 569.5 456.0Q568.0 456.0 567.0 455.0Q566.0 454.0 565.0 453.5Q564.0 453.0 562.5 452.5Q561.0 452.0 560.0 451.0Q559.0 450.0 558.0 449.0Q557.0 448.0 556.5 447.0Q556.0 446.0 555.0 444.5Q554.0 443.0 554.0 441.5Q554.0 440.0 553.5 439.0Q553.0 438.0 552.5 436.5Q552.0 435.0 552.5 433.5Q553.0 432.0 553.0 430.5Q553.0 429.0 553.5 428.0Q554.0 427.0 554.5 425.5Q555.0 424.0 556.0 423.0Q557.0 422.0 557.5 420.5Q558.0 419.0 559.0 418.0Q560.0 417.0 561.5 416.5Q563.0 416.0 564.0 415.0Q565.0 414.0 566.5 413.0Q568.0 412.0 569.5 412.0Q571.0 412.0 572.5 412.0Q574.0 412.0 575.5 411.5Q577.0 411.0 578.5 411.0Q580.0 411.0 581.0 412.0Q582.0 413.0 583.5 413.0Q585.0 413.0 586.5 413.5Q588.0 414.0 589.0 415.5Q590.0 417.0 591.5 417.5Q593.0 418.0 594.0 419.0Q595.0 420.0 595.5 421.5Q596.0 423.0 597.0 424.5Q598.0 426.0 598.5 427.5Q599.0 429.0 599.5 430.5Q600.0 432.0 600.0 433.5Q600.0 435.0 600.0 436.5Q600.0 438.0 600.0 439.5Q600.0 441.0 599.0 442.5Q598.0 444.0 597.5 445.5Q597.0 447.0 596.5 448.5Q596.0 450.0 595.0 451.0Q594.0 452.0 592.5 453.5Q591.0 455.0 590.0 456.0Q589.0 457.0 587.5 458.0Q586.0 459.0 584.5 459.0Q583.0 459.0 581.5 460.0Q580.0 461.0 578.5 461.5Q577.0 462.0 575.0 461.5Q573.0 461.0 571.5 461.0Q570.0 461.0 568.5 461.0Q567.0 461.0 565.5 460.0Q564.0 459.0 562.5 458.0Q561.0 457.0 559.5 456.5Q558.0 456.0 556.5 455.0Q555.0 454.0 554.5 452.5Q554.0 451.0 552.5 449.5Q551.0 448.0 550.0 446.5Q549.0 445.0 549.0 443.5Q549.0 442.0 548.5 440.0Q548.0 438.0 547.5 436.5Q547.0 435.0 547.5 433.5Q548.0 432.0 548.5 430.0Q549.0 428.0 549.0 426.5Q549.0 425.0 549.5 423.0Q550.0 421.0 551.5 420.0Q553.0 419.0 553.5 417.5Q554.0 416.0 555.5 414.5Q557.0 413.0 558.5 412.0Q560.0 411.0 561.5 410.0Q563.0 409.0 564.5 408.0Q566.0 407.0 568.0 407.0Q570.0 407.0 571.5 407.0Q573.0 407.0 575.0 406.5Q577.0 406.0 578.5 406.0Q580.0 406.0 582.0 407.0Q584.0 408.0 585.5 408.5Q587.0 409.0 589.0 409.5Q591.0 410.0 592.0 411.5Q593.0 413.0 594.5 414.0Q596.0 415.0 597.5 416.0Q599.0 417.0 600.0 419.0Q601.0 421.0 601.5 422.5Q602.0 424.0 603.0 425.5Q604.0 427.0 604.5 429.0Q605.0 431.0 605.0 433.0Q605.0 435.0 605.0 437.0Q605.0 439.0 605.0 441.0Q605.0 443.0 604.0 444.5Q603.0 446.0 602.0 448.0Q601.0 450.0 600.5 451.5Q600.0 453.0 598.5 454.5Q597.0 456.0 595.5 457.0Q594.0 458.0 593.0 459.5Q592.0 461.0 590.0 462.0Q588.0 463.0 586.0 463.5Q584.0 464.0 582.5 465.0Q581.0 466.0 579.0 466.5Q577.0 467.0 575.0 466.5Q573.0 466.0 571.0 466.0Q569.0 466.0 567.0 465.5Q565.0 465.0 563.5 464.0Q562.0 463.0 560.0 462.0Q558.0 461.0 556.0 460.5Q554.0 460.0 553.0 458.5Q552.0 457.0 551.0 455.0Q550.0 453.0 548.5 452.0Q547.0 451.0 546.0 449.0Q545.0 447.0 544.5 445.0Q544.0 443.0 543.5 441.0Q543.0 439.0 542.5 437.0Q542.0 435.0 542.5 433.0Q543.0 431.0 543.5 429.0Q544.0 427.0 544.0 425.0Q544.0 423.0 545.0 421.0Q546.0 419.0 547.5 417.5Q549.0 416.0 550.0 414.0Q551.0 412.0 552.5 410.5Q554.0 409.0 555.5 408.0Q557.0 407.0 559.0 406.0Q561.0 405.0 562.5 404.0Q564.0 403.0 566.5 402.5Q569.0 402.0 571.0 402.0Q573.0 402.0 575.0 401.5Q577.0 401.0 579.0 401.0Q581.0 401.0 583.0 402.0Q585.0 403.0 587.5 403.5Q590.0 404.0 592.0 405.0Q594.0 406.0 595.5 407.5Q597.0 409.0 598.5 410.5Q600.0 412.0 601.5 413.0Q603.0 414.0 604.0 416.0Q605.0 418.0 606.0 420.0Q607.0 422.0 608.0 424.0Q609.0 426.0 609.5 428.5Q610.0 431.0 609.5 433.0Q609.0 435.0 609.5 437.0Q610.0 439.0 610.0 441.5Q610.0 444.0 608.5 446.0Q607.0 448.0 606.5 450.0Q606.0 452.0 605.0 454.0Q604.0 456.0 602.5 457.5Q601.0 459.0 599.0 460.5Q597.0 462.0 595.5 464.0Q594.0 466.0 592.0 467.0Q590.0 468.0 588.0 468.5Q586.0 469.0 584.0 470.0Q582.0 471.0 579.5 471.5Q577.0 472.0 575.0 471.5Q573.0 471.0 570.5 471.0Q568.0 471.0 566.0 470.5Q564.0 470.0 561.5 469.0Q559.0 468.0 557.5 467.0Q556.0 466.0 553.5 465.0Q551.0 464.0 549.5 462.0Q548.0 460.0 547.0 458.0Q546.0 456.0 544.0 454.5Q542.0 453.0 541.0 451.0Q540.0 449.0 539.5 446.5Q539.0 444.0 538.5 442.0Q538.0 440.0 537.5 437.5Q537.0 435.0 537.5 432.5Q538.0 430.0 538.5 428.0Q539.0 426.0 539.0 423.5Q539.0 421.0 540.5 419.0Q542.0 417.0 543.5 415.0Q545.0 413.0 546.0 411.0Q547.0 409.0 548.5 407.0Q550.0 405.0 552.5 404.0Q555.0 403.0 557.0 401.5Q559.0 400.0 561.0 399.0Q563.0 398.0 565.5 397.5Q568.0 397.0 570.5 397.0Q573.0 397.0 575.0 396.5Q577.0 396.0 579.5 396.5Q582.0 397.0 584.5 398.0Q587.0 399.0 589.5 399.0Q592.0 399.0 594.0 400.0Q596.0 401.0 598.0 403.0Q600.0 405.0 602.0 406.5Q604.0 408.0 605.5 409.5Q607.0 411.0 608.5 413.5Q610.0 416.0 610.5 418.5Q611.0 421.0 612.5 423.0Q614.0 425.0 614.5 427.5Q615.0 430.0 614.5 432.5Q614.0 435.0 614.5 437.5Q615.0 440.0 615.0 442.5Q615.0 445.0 613.5 447.5Q612.0 450.0 611.0 452.0Q610.0 454.0 609.0 456.5Q608.0 459.0 606.0 461.0Q604.0 463.0 602.5 464.5Q601.0 466.0 599.0 468.0Q597.0 470.0 595.0 471.0Q593.0 472.0 590.0 472.5Q587.0 473.0 585.0 474.5Q583.0 476.0 580.5 476.5Q578.0 477.0 575.0 476.5Q572.0 476.0 569.5 475.5Q567.0 475.0 564.5 475.0Q562.0 475.0 559.5 474.0Q557.0 473.0 555.0 471.5Q553.0 470.0 550.5 469.0Q548.0 468.0 546.0 466.0Q544.0 464.0 543.0 461.5Q542.0 459.0 540.0 457.0Q538.0 455.0 536.5 453.0Q535.0 451.0 535.0 448.0Q535.0 445.0 534.0 442.5Q533.0 440.0 532.5 437.5Q532.0 435.0 532.5 432.5Q533.0 430.0 533.5 427.5Q534.0 425.0 534.5 422.0Q535.0 419.0 536.0 416.5Q537.0 414.0 539.0 412.0Q541.0 410.0 542.0 407.5Q543.0 405.0 545.0 403.0Q547.0 401.0 549.5 400.0Q552.0 399.0 554.5 397.5Q557.0 396.0 559.0 394.5Q561.0 393.0 564.0 392.5Q567.0 392.0 569.5 392.0Q572.0 392.0 575.0 391.5Q578.0 391.0 580.5 391.5Q583.0 392.0 585.5 393.0Q588.0 394.0 591.0 394.5Q594.0 395.0 596.5 396.0Q599.0 397.0 601.0 399.0Q603.0 401.0 605.0 403.0Q607.0 405.0 609.5 406.5Q612.0 408.0 613.0 411.0Q614.0 414.0 615.0 416.5Q616.0 419.0 617.5 421.5Q619.0 424.0 619.5 426.5Q620.0 429.0 619.5 432.0Q619.0 435.0 619.5 438.0Q620.0 441.0 619.5 443.5Q619.0 446.0 618.0 448.5Q617.0 451.0 616.0 454.0Q615.0 457.0 613.5 459.5Q612.0 462.0 610.0 464.0Q608.0 466.0 606.0 468.0Q604.0 470.0 602.0 472.0Q600.0 474.0 597.5 475.5Q595.0 477.0 592.0 477.5Q589.0 478.0 586.5 479.0Q584.0 480.0 581.0 481.0Q578.0 482.0 575.0 481.5Q572.0 481.0 569.0 480.5Q566.0 480.0 563.0 480.0Q560.0 480.0 557.5 478.5Q555.0 477.0 552.5 475.5Q550.0 474.0 547.5 473.0Q545.0 472.0 543.0 469.5Q541.0 467.0 539.5 464.5Q538.0 462.0 536.0 460.0Q534.0 458.0 532.0 455.5Q530.0 453.0 530.0 450.0Q530.0 447.0 529.0 444.0Q528.0 441.0 527.5 438.0Q527.0 435.0 527.5 432.0Q528.0 429.0 528.5 426.0Q529.0 423.0 529.5 420.0Q530.0 417.0 531.5 414.5Q533.0 412.0 535.0 409.5Q537.0 407.0 538.5 404.5Q540.0 402.0 542.0 399.5Q544.0 397.0 546.5 396.0Q549.0 395.0 552.0 393.5Q555.0 392.0 557.5 390.0Q560.0 388.0 563.0 387.5Q566.0 387.0 569.0 387.0Q572.0 387.0 575.0 386.5Q578.0 386.0 581.0 386.5Q584.0 387.0 587.0 388.0Q590.0 389.0 593.0 389.5Q596.0 390.0 599.0 391.5Q602.0 393.0 604.0 395.0Q606.0 397.0 608.5 399.0Q611.0 401.0 613.5 403.0Q616.0 405.0 617.0 408.0Q618.0 411.0 619.5 414.0Q621.0 417.0 622.5 419.5Q624.0 422.0 624.5 425.5Q625.0 429.0 624.5 432.0Q624.0 435.0 624.5 438.0Q625.0 441.0 624.5 444.5Q624.0 448.0 622.5 450.5Q621.0 453.0 620.0 456.0Q619.0 459.0 618.0 462.0Q617.0 465.0 614.5 467.5Q612.0 470.0 609.5 471.5Q607.0 473.0 605.0 475.5Q603.0 478.0 600.0 479.5Q597.0 481.0 593.5 482.0Q590.0 483.0 587.5 484.0Q585.0 485.0 581.5 486.0Q578.0 487.0 575.0 486.5Q572.0 486.0 568.5 485.5Q565.0 485.0 562.0 485.0Q559.0 485.0 556.0 483.5Q553.0 482.0 550.5 480.0Q548.0 478.0 545.0 476.5Q542.0 475.0 539.5 473.0Q537.0 471.0 535.5 468.0Q534.0 465.0 531.5 462.5Q529.0 460.0 527.5 457.0Q526.0 454.0 525.5 451.0Q525.0 448.0 524.0 445.0Q523.0 442.0 522.5 438.5Q522.0 435.0 522.5 431.5Q523.0 428.0 524.0 425.0Q525.0 422.0 525.0 418.5Q525.0 415.0 526.5 412.0Q528.0 409.0 530.5 406.5Q533.0 404.0 534.5 401.5Q536.0 399.0 538.5 396.0Q541.0 393.0 544.0 392.0Q547.0 391.0 549.5 389.0Q552.0 387.0 555.0 385.0Q558.0 383.0 561.5 383.0Q565.0 383.0 568.5 382.5Q572.0 382.0 575.0 381.5Q578.0 381.0 581.5 381.5Q585.0 382.0 588.0 383.0Q591.0 384.0 594.5 385.0Q598.0 386.0 601.0 387.5Q604.0 389.0 606.5 391.5Q609.0 394.0 611.5 396.0Q614.0 398.0 617.0 400.0Q620.0 402.0 621.5 405.5Q623.0 409.0 624.0 412.0Q625.0 415.0 627.0 418.0Q629.0 421.0 629.5 424.5Q630.0 428.0 629.5 431.5Q629.0 435.0 629.5 438.5Q630.0 442.0 629.5 445.5Q629.0 449.0 627.5 452.0Q626.0 455.0 624.5 458.5Q623.0 462.0 622.0 465.0Q621.0 468.0 618.0 470.5Q615.0 473.0 612.5 475.0Q610.0 477.0 607.5 480.0Q605.0 483.0 602.0 484.5Q599.0 486.0 595.5 486.5Q592.0 487.0 589.0 488.5Q586.0 490.0 582.5 491.0Q579.0 492.0 575.5 491.0Q572.0 490.0 568.5 490.0Q565.0 490.0 561.0 490.0Q557.0 490.0 554.0 488.0Q551.0 486.0 548.0 484.0Q545.0 482.0 541.5 480.5Q538.0 479.0 535.5 476.5Q533.0 474.0 531.5 471.0Q530.0 468.0 527.5 465.5Q525.0 463.0 523.0 459.5Q521.0 456.0 520.5 452.5Q520.0 449.0 519.0 445.5Q518.0 442.0 517.5 438.5Q517.0 435.0 517.5 431.5Q518.0 428.0 519.0 424.5Q520.0 421.0 520.5 417.0Q521.0 413.0 522.5 410.0Q524.0 407.0 526.5 404.0Q529.0 401.0 530.5 398.0Q532.0 395.0 534.5 392.5Q537.0 390.0 540.5 388.0Q544.0 386.0 547.0 384.5Q550.0 383.0 553.5 380.5Q557.0 378.0 560.5 378.0Q564.0 378.0 567.5 377.5Q571.0 377.0 575.0 376.5Q579.0 376.0 582.5 376.5Q586.0 377.0 589.5 378.5Q593.0 380.0 596.5 380.5Q600.0 381.0 603.5 382.5Q607.0 384.0 609.5 387.0Q612.0 390.0 615.0 392.5Q618.0 395.0 621.0 397.0Q624.0 399.0 625.5 402.5Q627.0 406.0 628.5 409.5Q630.0 413.0 632.0 416.5Q634.0 420.0 634.5 423.5Q635.0 427.0 634.5 431.0Q634.0 435.0 634.5 439.0Q635.0 443.0 634.5 446.5Q634.0 450.0 632.0 453.5Q630.0 457.0 629.0 460.5Q628.0 464.0 626.5 467.5Q625.0 471.0 622.0 473.5Q619.0 476.0 616.0 478.5Q613.0 481.0 610.5 484.0Q608.0 487.0 604.5 488.5Q601.0 490.0 597.5 491.0Q594.0 492.0 590.0 493.5Q586.0 495.0 582.5 496.0Q579.0 497.0 575.0 496.0Q571.0 495.0 567.5 495.0Q564.0 495.0 560.0 494.5Q556.0 494.0 552.5 492.5Q549.0 491.0 545.5 488.5Q542.0 486.0 538.5 484.5Q535.0 483.0 532.5 480.5Q530.0 478.0 528.0 474.5Q526.0 471.0 523.0 468.0Q520.0 465.0 518.0 461.5Q516.0 458.0 515.5 454.0Q515.0 450.0 514.5 446.5Q514.0 443.0 512.5 439.0Q511.0 435.0 512.0 431.0Q513.0 427.0 514.0 423.5Q515.0 420.0 515.5 416.0Q516.0 412.0 518.0 408.0Q520.0 404.0 522.5 401.5Q525.0 399.0 527.0 395.5Q529.0 392.0 531.5 389.0Q534.0 386.0 538.0 384.0Q542.0 382.0 545.0 380.0Q548.0 378.0 551.5 376.0Q555.0 374.0 559.0 373.5Q563.0 373.0 567.0 372.5Q571.0 372.0 575.0 371.5Q579.0 371.0 583.0 371.5Q587.0 372.0 590.5 373.5Q594.0 375.0 598.0 376.0Q602.0 377.0 606.0 378.5Q610.0 380.0 612.5 383.0Q615.0 386.0 618.5 388.5Q622.0 391.0 625.0 393.5Q628.0 396.0 629.5 400.0Q631.0 404.0 632.5 408.0Q634.0 412.0 636.5 415.5Q639.0 419.0 639.5 423.0Q640.0 427.0 639.5 431.0Q639.0 435.0 639.5 439.0Q640.0 443.0 639.5 447.0Q639.0 451.0 637.0 455.0Q635.0 459.0 633.5 462.5Q632.0 466.0 630.5 470.0Q629.0 474.0 626.0 477.0Q623.0 480.0 619.5 482.5Q616.0 485.0 613.5 488.0Q611.0 491.0 607.0 493.0Q603.0 495.0 599.0 496.0Q595.0 497.0 591.0 498.5Q587.0 500.0 583.0 501.0Q579.0 502.0 575.0 501.0Q571.0 500.0 567.0 500.0Q563.0 500.0 558.5 499.5Q554.0 499.0 550.5 497.0Q547.0 495.0 543.5 492.5Q540.0 490.0 536.0 488.5Q532.0 487.0 529.0 484.0Q526.0 481.0 524.0 477.5Q522.0 474.0 519.0 470.5Q516.0 467.0 514.0 463.5Q512.0 460.0 511.5 456.0Q511.0 452.0 510.0 447.5Q509.0 443.0 507.5 439.0Q506.0 435.0 507.0 431.0Q508.0 427.0 509.0 422.5Q510.0 418.0 510.5 414.0Q511.0 410.0 513.0 406.0Q515.0 402.0 518.0 399.0Q521.0 396.0 523.0 392.0Q525.0 388.0 528.0 385.0Q531.0 382.0 535.0 380.0Q539.0 378.0 542.5 376.0Q546.0 374.0 549.5 371.5Q553.0 369.0 557.5 368.5Q562.0 368.0 566.5 367.5Q571.0 367.0 575.0 366.0Q579.0 365.0 583.5 366.0Q588.0 367.0 592.0 368.5Q596.0 370.0 600.5 371.0Q605.0 372.0 609.0 374.0Q613.0 376.0 616.0 379.0Q619.0 382.0 622.0 385.0Q625.0 388.0 628.5 390.5Q632.0 393.0 634.0 397.5Q636.0 402.0 637.5 406.0Q639.0 410.0 641.0 413.5Q643.0 417.0 644.0 421.5Q645.0 426.0 644.5 430.5Q644.0 435.0 644.5 439.5Q645.0 444.0 644.5 448.5Q644.0 453.0 642.0 457.0Q640.0 461.0 638.0 465.0Q636.0 469.0 634.5 473.0Q633.0 477.0 629.5 480.0Q626.0 483.0 622.5 486.0Q619.0 489.0 616.0 492.5Q613.0 496.0 609.0 498.0Q605.0 500.0 601.0 500.5Q597.0 501.0 592.5 503.0Q588.0 505.0 584.0 506.0Q580.0 507.0 575.5 506.0Q571.0 505.0 566.5 505.0Q562.0 505.0 557.5 504.5Q553.0 504.0 549.0 502.0Q545.0 500.0 541.0 497.5Q537.0 495.0 533.0 493.0Q529.0 491.0 525.5 488.0Q522.0 485.0 520.0 481.0Q518.0 477.0 515.0 473.5Q512.0 470.0 509.5 466.0Q507.0 462.0 506.5 457.5Q506.0 453.0 505.0 448.5Q504.0 444.0 502.5 439.5Q501.0 435.0 502.0 430.5Q503.0 426.0 504.5 421.5Q506.0 417.0 506.0 412.5Q506.0 408.0 508.5 404.0Q511.0 400.0 514.0 396.5Q517.0 393.0 519.5 389.0Q522.0 385.0 525.0 381.5Q528.0 378.0 532.0 376.0Q536.0 374.0 540.0 371.5Q544.0 369.0 548.0 366.5Q552.0 364.0 556.5 363.5Q561.0 363.0 565.5 363.0Q570.0 363.0 575.0 361.5Q580.0 360.0 584.5 361.0Q589.0 362.0 593.0 364.0Q597.0 366.0 602.0 367.0Q607.0 368.0 611.0 369.5Q615.0 371.0 618.5 374.5Q622.0 378.0 625.5 381.0Q629.0 384.0 632.5 387.0Q636.0 390.0 638.0 394.5Q640.0 399.0 641.5 403.5Q643.0 408.0 645.5 412.0Q648.0 416.0 649.0 421.0Q650.0 426.0 649.5 430.5Q649.0 435.0 649.5 439.5Q650.0 444.0 649.5 449.0Q649.0 454.0 646.5 458.0Q644.0 462.0 642.5 466.5Q641.0 471.0 639.0 475.5Q637.0 480.0 633.5 483.5Q630.0 487.0 626.5 489.5Q623.0 492.0 619.5 496.0Q616.0 500.0 612.0 502.0Q608.0 504.0 603.0 505.0Q598.0 506.0 593.5 508.0Q589.0 510.0 584.5 511.0Q580.0 512.0 575.0 511.0Q570.0 510.0 565.5 510.0Q561.0 510.0 556.0 509.5Q551.0 509.0 546.5 506.5Q542.0 504.0 538.0 501.5Q534.0 499.0 529.5 497.0Q525.0 495.0 522.0 491.5Q519.0 488.0 516.5 484.0Q514.0 480.0 510.5 476.0Q507.0 472.0 504.5 468.0Q502.0 464.0 501.5 459.0Q501.0 454.0 500.0 449.5Q499.0 445.0 497.5 440.0Q496.0 435.0 497.0 430.0Q498.0 425.0 499.5 420.5Q501.0 416.0 501.5 411.0Q502.0 406.0 504.0 401.5Q506.0 397.0 509.5 393.5Q513.0 390.0 515.5 385.5Q518.0 381.0 521.0 377.5Q524.0 374.0 529.0 372.0Q534.0 370.0 538.0 367.5Q542.0 365.0 546.0 362.0Q550.0 359.0 555.0 358.5Q560.0 358.0 565.0 358.0Q570.0 358.0 575.0 356.5Q580.0 355.0 585.0 356.0Q590.0 357.0 594.5 359.0Q599.0 361.0 604.0 362.0Q609.0 363.0 613.5 365.0Q618.0 367.0 621.5 371.0Q625.0 375.0 628.5 378.0Q632.0 381.0 636.0 384.0Q640.0 387.0 642.5 392.0Q645.0 397.0 646.5 401.5Q648.0 406.0 650.5 410.5Q653.0 415.0 654.0 420.0Q655.0 425.0 654.5 430.0Q654.0 435.0 654.5 440.0Q655.0 445.0 654.5 450.0Q654.0 455.0 651.5 459.5Q649.0 464.0 647.0 468.5Q645.0 473.0 643.0 478.0Q641.0 483.0 637.5 486.5Q634.0 490.0 630.0 493.0Q626.0 496.0 622.5 500.0Q619.0 504.0 614.5 506.5Q610.0 509.0 605.0 510.0Q600.0 511.0 595.0 513.0Q590.0 515.0 585.0 516.0Q580.0 517.0 575.0 516.0Q570.0 515.0 565.0 514.5Q560.0 514.0 554.5 514.0Q549.0 514.0 544.5 511.5Q540.0 509.0 536.0 506.0Q532.0 503.0 527.0 501.0Q522.0 499.0 518.5 495.0Q515.0 491.0 512.5 486.5Q510.0 482.0 506.5 478.5Q503.0 475.0 500.0 470.5Q497.0 466.0 496.5 460.5Q496.0 455.0 495.0 450.0Q494.0 445.0 492.5 440.0Q491.0 435.0 492.0 430.0Q493.0 425.0 494.5 420.0Q496.0 415.0 496.5 409.5Q497.0 404.0 499.5 399.5Q502.0 395.0 505.5 391.0Q509.0 387.0 511.5 382.5Q514.0 378.0 517.5 374.0Q521.0 370.0 526.0 368.0Q531.0 366.0 535.5 363.0Q540.0 360.0 544.5 357.0Q549.0 354.0 554.0 353.5Q559.0 353.0 564.5 353.0Q570.0 353.0 575.0 351.5Q580.0 350.0 585.5 351.0Q591.0 352.0 596.0 354.0Q601.0 356.0 606.0 357.5Q611.0 359.0 616.0 361.0Q621.0 363.0 624.5 367.0Q628.0 371.0 632.0 374.5Q636.0 378.0 640.5 381.5Q645.0 385.0 647.0 389.5Q649.0 394.0 651.0 399.0Q653.0 404.0 655.5 409.0Q658.0 414.0 659.0 419.0Q660.0 424.0 659.5 429.5Q659.0 435.0 659.5 440.5Q660.0 446.0 659.5 451.0Q659.0 456.0 656.0 461.0Q653.0 466.0 651.0 471.0Q649.0 476.0 647.0 481.0Q645.0 486.0 641.0 489.5Q637.0 493.0 633.0 496.5Q629.0 500.0 625.5 504.0Q622.0 508.0 617.0 510.5Q612.0 513.0 606.5 514.0Q601.0 515.0 596.0 517.5Q591.0 520.0 585.5 521.0Q580.0 522.0 575.0 521.0Q570.0 520.0 564.5 519.5Q559.0 519.0 553.5 519.0Q548.0 519.0 543.0 516.0Q538.0 513.0 533.5 510.0Q529.0 507.0 524.0 505.0Q519.0 503.0 515.0 499.0Q511.0 495.0 508.5 490.0Q506.0 485.0 502.0 481.0Q498.0 477.0 495.5 472.5Q493.0 468.0 492.0 462.0Q491.0 456.0 490.0 451.0Q489.0 446.0 487.5 440.5Q486.0 435.0 487.0 429.5Q488.0 424.0 489.5 419.0Q491.0 414.0 491.5 408.0Q492.0 402.0 494.5 397.0Q497.0 392.0 501.0 388.0Q505.0 384.0 508.0 379.0Q511.0 374.0 514.5 370.0Q518.0 366.0 523.0 363.5Q528.0 361.0 533.0 358.5Q538.0 356.0 542.5 352.5Q547.0 349.0 552.5 348.5Q558.0 348.0 564.0 348.0Q570.0 348.0 575.5 346.5Q581.0 345.0 586.5 346.0Q592.0 347.0 597.0 349.5Q602.0 352.0 607.5 353.0Q613.0 354.0 618.0 356.5Q623.0 359.0 627.0 363.0Q631.0 367.0 635.5 370.5Q640.0 374.0 644.5 378.0Q649.0 382.0 651.0 387.0Q653.0 392.0 655.0 397.0Q657.0 402.0 660.0 407.0Q663.0 412.0 664.0 418.0Q665.0 424.0 664.5 429.5Q664.0 435.0 664.5 440.5Q665.0 446.0 664.5 452.0Q664.0 458.0 661.0 463.0Q658.0 468.0 656.0 473.0Q654.0 478.0 651.5 483.5Q649.0 489.0 645.0 493.0Q641.0 497.0 636.5 500.5Q632.0 504.0 628.0 508.5Q624.0 513.0 619.0 515.5Q614.0 518.0 608.5 519.0Q603.0 520.0 597.5 522.5Q592.0 525.0 586.5 526.0Q581.0 527.0 575.0 526.0Q569.0 525.0 563.5 524.5Q558.0 524.0 552.0 523.5Q546.0 523.0 541.0 520.5Q536.0 518.0 531.5 514.5Q527.0 511.0 521.5 509.0Q516.0 507.0 512.0 502.5Q508.0 498.0 505.0 493.0Q502.0 488.0 498.0 484.0Q494.0 480.0 491.0 474.5Q488.0 469.0 487.5 463.5Q487.0 458.0 485.5 452.5Q484.0 447.0 482.5 441.0Q481.0 435.0 482.0 429.0Q483.0 423.0 485.0 417.5Q487.0 412.0 487.5 406.0Q488.0 400.0 490.5 395.0Q493.0 390.0 497.0 385.5Q501.0 381.0 504.0 376.0Q507.0 371.0 511.0 366.5Q515.0 362.0 520.5 359.5Q526.0 357.0 531.0 354.0Q536.0 351.0 541.0 348.0Q546.0 345.0 552.0 344.0Q558.0 343.0 563.5 343.0Q569.0 343.0 575.0 341.5Q581.0 340.0 587.0 341.0Q593.0 342.0 598.5 344.5Q604.0 347.0 609.5 348.5Q615.0 350.0 620.5 352.0Q626.0 354.0 630.0 358.5Q634.0 363.0 638.5 367.0Q643.0 371.0 648.0 375.0Q653.0 379.0 655.5 384.5Q658.0 390.0 660.0 395.5Q662.0 401.0 665.0 406.0Q668.0 411.0 669.0 417.0Q670.0 423.0 669.0 429.0Q668.0 435.0 669.0 441.0Q670.0 447.0 669.5 453.0Q669.0 459.0 666.0 464.5Q663.0 470.0 660.5 475.5Q658.0 481.0 656.0 486.5Q654.0 492.0 649.0 496.0Q644.0 500.0 639.5 504.0Q635.0 508.0 631.0 512.5Q627.0 517.0 621.5 519.5Q616.0 522.0 610.0 523.5Q604.0 525.0 598.5 527.5Q593.0 530.0 587.0 531.0Q581.0 532.0 575.0 531.0Q569.0 530.0 563.0 529.5Q557.0 529.0 551.0 528.5Q545.0 528.0 539.5 525.0Q534.0 522.0 529.0 518.5Q524.0 515.0 518.5 513.0Q513.0 511.0 508.5 506.5Q504.0 502.0 501.0 496.5Q498.0 491.0 494.0 486.5Q490.0 482.0 486.5 476.5Q483.0 471.0 482.5 465.0Q482.0 459.0 480.5 453.0Q479.0 447.0 477.5 441.0Q476.0 435.0 477.5 429.0Q479.0 423.0 480.5 417.0Q482.0 411.0 482.5 405.0Q483.0 399.0 486.0 393.5Q489.0 388.0 493.0 383.0Q497.0 378.0 500.0 373.0Q503.0 368.0 507.0 363.0Q511.0 358.0 517.0 355.5Q523.0 353.0 528.0 350.0Q533.0 347.0 538.5 343.5Q544.0 340.0 550.5 339.0Q557.0 338.0 563.0 338.0Q569.0 338.0 575.0 336.5Q581.0 335.0 587.5 336.0Q594.0 337.0 599.5 339.5Q605.0 342.0 611.0 343.5Q617.0 345.0 623.0 347.5Q629.0 350.0 633.5 354.5Q638.0 359.0 642.5 363.0Q647.0 367.0 652.0 371.5Q657.0 376.0 659.5 381.5Q662.0 387.0 664.0 393.0Q666.0 399.0 669.5 404.5Q673.0 410.0 674.0 416.0Q675.0 422.0 674.0 428.5Q673.0 435.0 674.0 441.5Q675.0 448.0 674.0 454.0Q673.0 460.0 670.0 465.5Q667.0 471.0 664.5 477.0Q662.0 483.0 660.0 489.0Q658.0 495.0 653.0 499.5Q648.0 504.0 643.0 507.5Q638.0 511.0 634.0 516.0Q630.0 521.0 624.0 524.0Q618.0 527.0 612.0 528.0Q606.0 529.0 600.0 532.0Q594.0 535.0 587.5 536.0Q581.0 537.0 575.0 536.0Q569.0 535.0 562.5 534.5Q556.0 534.0 549.5 533.5Q543.0 533.0 537.5 530.0Q532.0 527.0 526.5 523.5Q521.0 520.0 515.0 517.0Q509.0 514.0 504.5 509.5Q500.0 505.0 497.0 499.5Q494.0 494.0 489.5 489.0Q485.0 484.0 482.0 478.5Q479.0 473.0 478.0 466.5Q477.0 460.0 475.5 454.0Q474.0 448.0 472.5 441.5Q471.0 435.0 472.5 428.5Q474.0 422.0 475.5 416.0Q477.0 410.0 477.5 403.5Q478.0 397.0 481.0 391.0Q484.0 385.0 488.5 380.0Q493.0 375.0 496.5 369.5Q500.0 364.0 504.0 359.0Q508.0 354.0 514.0 351.5Q520.0 349.0 525.5 345.5Q531.0 342.0 536.5 338.5Q542.0 335.0 549.0 334.5Q556.0 334.0 562.5 333.5Q569.0 333.0 575.5 331.5Q582.0 330.0 588.5 331.0Q595.0 332.0 601.0 335.0Q607.0 338.0 613.0 339.0Q619.0 340.0 625.5 343.0Q632.0 346.0 636.5 351.0Q641.0 356.0 646.0 360.0Q651.0 364.0 656.0 368.5Q661.0 373.0 663.5 379.0Q666.0 385.0 668.5 391.0Q671.0 397.0 674.5 403.0Q678.0 409.0 679.0 415.5Q680.0 422.0 679.0 428.5Q678.0 435.0 679.0 441.5Q680.0 448.0 679.0 455.0Q678.0 462.0 675.0 467.5Q672.0 473.0 669.5 479.0Q667.0 485.0 664.5 491.5Q662.0 498.0 657.0 502.5Q652.0 507.0 646.5 511.0Q641.0 515.0 636.5 520.0Q632.0 525.0 626.0 528.0Q620.0 531.0 613.5 532.5Q607.0 534.0 601.0 537.0Q595.0 540.0 588.5 541.5Q582.0 543.0 575.0 541.5Q568.0 540.0 561.5 539.5Q555.0 539.0 548.5 538.5Q542.0 538.0 536.0 534.5Q530.0 531.0 524.5 527.5Q519.0 524.0 512.5 521.0Q506.0 518.0 501.5 513.5Q497.0 509.0 493.5 503.0Q490.0 497.0 485.5 492.0Q481.0 487.0 477.5 481.0Q474.0 475.0 473.0 468.0Q472.0 461.0 470.5 454.5Q469.0 448.0 467.5 441.5Q466.0 435.0 467.5 428.5Q469.0 422.0 470.5 415.5Q472.0 409.0 473.0 402.0Q474.0 395.0 477.0 389.0Q480.0 383.0 484.5 378.0Q489.0 373.0 492.5 367.0Q496.0 361.0 500.5 355.5Q505.0 350.0 511.5 347.5Q518.0 345.0 523.5 341.5Q529.0 338.0 535.0 334.0Q541.0 330.0 548.0 329.5Q555.0 329.0 561.5 328.5Q568.0 328.0 575.0 326.5Q582.0 325.0 589.0 326.0Q596.0 327.0 602.0 330.0Q608.0 333.0 615.0 334.5Q622.0 336.0 628.0 338.5Q634.0 341.0 639.0 346.5Q644.0 352.0 649.0 356.5Q654.0 361.0 659.5 365.5Q665.0 370.0 668.0 376.0Q671.0 382.0 673.5 388.5Q676.0 395.0 679.5 401.0Q683.0 407.0 684.0 414.0Q685.0 421.0 684.0 428.0Q683.0 435.0 684.0 442.0Q685.0 449.0 684.0 456.0Q683.0 463.0 679.5 469.0Q676.0 475.0 673.5 481.5Q671.0 488.0 668.5 494.5Q666.0 501.0 660.5 505.5Q655.0 510.0 650.0 514.5Q645.0 519.0 640.0 524.5Q635.0 530.0 629.0 533.0Q623.0 536.0 616.0 537.5Q609.0 539.0 602.5 542.0Q596.0 545.0 589.0 546.5Q582.0 548.0 575.0 546.5Q568.0 545.0 561.0 544.5Q554.0 544.0 547.0 543.5Q540.0 543.0 534.0 539.5Q528.0 536.0 522.0 532.0Q516.0 528.0 509.5 525.0Q503.0 522.0 498.0 517.0Q493.0 512.0 489.5 506.0Q486.0 500.0 481.0 494.5Q476.0 489.0 472.5 483.0Q469.0 477.0 468.5 470.0Q468.0 463.0 466.0 456.0Q464.0 449.0 462.5 442.0Q461.0 435.0 462.5 428.0Q464.0 421.0 465.5 414.0Q467.0 407.0 468.0 400.0Q469.0 393.0 472.0 386.5Q475.0 380.0 480.0 375.0Q485.0 370.0 488.5 363.5Q492.0 357.0 497.0 352.0Q502.0 347.0 508.5 344.0Q515.0 341.0 521.0 337.0Q527.0 333.0 533.0 329.0Q539.0 325.0 546.5 324.5Q554.0 324.0 561.0 323.5Q568.0 323.0 575.0 321.5Q582.0 320.0 589.0 321.0Q596.0 322.0 603.0 325.0Q610.0 328.0 617.0 329.5Q624.0 331.0 630.5 334.0Q637.0 337.0 642.0 342.5Q647.0 348.0 652.5 352.5Q658.0 357.0 663.5 362.0Q669.0 367.0 672.0 373.5Q675.0 380.0 677.5 386.5Q680.0 393.0 684.0 399.5Q688.0 406.0 689.0 413.5Q690.0 421.0 689.0 428.0Q688.0 435.0 689.0 442.0Q690.0 449.0 689.0 456.5Q688.0 464.0 684.5 470.5Q681.0 477.0 678.0 483.5Q675.0 490.0 672.5 497.0Q670.0 504.0 664.5 509.0Q659.0 514.0 653.5 518.5Q648.0 523.0 643.0 528.5Q638.0 534.0 631.5 537.5Q625.0 541.0 617.5 542.0Q610.0 543.0 603.5 546.0Q597.0 549.0 589.5 551.0Q582.0 553.0 575.0 551.5Q568.0 550.0 560.5 549.5Q553.0 549.0 545.5 548.5Q538.0 548.0 532.0 544.0Q526.0 540.0 519.5 536.0Q513.0 532.0 506.5 529.0Q500.0 526.0 494.5 521.0Q489.0 516.0 485.5 509.5Q482.0 503.0 477.0 497.5Q472.0 492.0 468.0 485.5Q464.0 479.0 463.5 471.5Q463.0 464.0 461.0 457.0Q459.0 450.0 457.5 442.5Q456.0 435.0 457.5 427.5Q459.0 420.0 461.0 413.0Q463.0 406.0 463.5 398.5Q464.0 391.0 467.5 384.5Q471.0 378.0 476.0 372.5Q481.0 367.0 485.0 360.5Q489.0 354.0 494.0 348.5Q499.0 343.0 505.5 339.5Q512.0 336.0 518.5 332.5Q525.0 329.0 531.5 324.5Q538.0 320.0 545.5 319.5Q553.0 319.0 560.5 318.5Q568.0 318.0 575.5 316.5Q583.0 315.0 590.0 316.0Q597.0 317.0 604.0 320.5Q611.0 324.0 618.5 325.5Q626.0 327.0 633.0 330.0Q640.0 333.0 645.0 338.5Q650.0 344.0 655.5 349.0Q661.0 354.0 667.0 359.0Q673.0 364.0 676.0 371.0Q679.0 378.0 682.0 385.0Q685.0 392.0 688.5 398.5Q692.0 405.0 693.5 412.5Q695.0 420.0 694.0 427.5Q693.0 435.0 694.0 442.5Q695.0 450.0 694.0 457.5Q693.0 465.0 689.0 472.0Q685.0 479.0 682.5 486.0Q680.0 493.0 677.0 500.0Q674.0 507.0 668.5 512.0Q663.0 517.0 657.0 522.0Q651.0 527.0 646.0 532.5Q641.0 538.0 634.0 541.5Q627.0 545.0 619.5 546.5Q612.0 548.0 605.0 551.0Q598.0 554.0 590.5 556.0Q583.0 558.0 575.0 556.5Q567.0 555.0 559.5 554.0Q552.0 553.0 544.5 552.5Q537.0 552.0 530.0 548.5Q523.0 545.0 517.0 540.5Q511.0 536.0 503.5 533.0Q496.0 530.0 491.0 524.5Q486.0 519.0 482.0 512.5Q478.0 506.0 473.0 500.0Q468.0 494.0 464.0 487.5Q460.0 481.0 459.0 473.0Q458.0 465.0 456.0 457.5Q454.0 450.0 452.0 442.5Q450.0 435.0 452.0 427.5Q454.0 420.0 456.0 412.5Q458.0 405.0 458.5 397.0Q459.0 389.0 463.0 382.0Q467.0 375.0 472.0 369.5Q477.0 364.0 481.0 357.0Q485.0 350.0 490.0 344.5Q495.0 339.0 502.5 335.5Q510.0 332.0 516.5 328.0Q523.0 324.0 529.5 320.0Q536.0 316.0 544.0 315.0Q552.0 314.0 559.5 313.5Q567.0 313.0 575.0 311.5Q583.0 310.0 590.5 311.0Q598.0 312.0 605.5 315.5Q613.0 319.0 620.5 320.5Q628.0 322.0 635.5 325.5Q643.0 329.0 648.0 334.5Q653.0 340.0 659.0 345.0Q665.0 350.0 671.0 355.5Q677.0 361.0 680.5 368.0Q684.0 375.0 686.5 382.5Q689.0 390.0 693.0 397.0Q697.0 404.0 698.5 411.5Q700.0 419.0 699.0 427.0Q698.0 435.0 699.0 443.0Q700.0 451.0 699.0 459.0Q698.0 467.0 694.0 474.0Q690.0 481.0 687.0 488.0Q684.0 495.0 681.0 502.5Q678.0 510.0 672.0 515.5Q666.0 521.0 660.0 525.5Q654.0 530.0 648.5 536.5Q643.0 543.0 636.0 546.5Q629.0 550.0 621.0 551.5Q613.0 553.0 606.0 556.0Q599.0 559.0 591.0 561.0Q583.0 563.0 575.0 561.0Q567.0 559.0 559.0 558.5Q551.0 558.0 543.0 557.5Q535.0 557.0 528.0 553.0Q521.0 549.0 514.5 544.5Q508.0 540.0 500.5 537.0Q493.0 534.0 487.5 528.0Q482.0 522.0 478.0 515.0Q474.0 508.0 468.5 502.0Q463.0 496.0 459.0 489.5Q455.0 483.0 454.0 474.5Q453.0 466.0 451.0 458.5Q449.0 451.0 447.0 443.0Q445.0 435.0 447.0 427.0Q449.0 419.0 451.0 411.5Q453.0 404.0 454.0 395.5Q455.0 387.0 458.5 380.0Q462.0 373.0 467.5 367.0Q473.0 361.0 477.0 354.0Q481.0 347.0 486.5 341.0Q492.0 335.0 499.5 331.5Q507.0 328.0 514.0 324.0Q521.0 320.0 528.0 315.5Q535.0 311.0 543.0 310.0Q551.0 309.0 559.0 308.5Q567.0 308.0 575.0 306.5Q583.0 305.0 591.0 306.5Q599.0 308.0 606.5 311.0Q614.0 314.0 622.0 316.0Q630.0 318.0 637.5 321.0Q645.0 324.0 650.5 330.5Q656.0 337.0 662.5 342.0Q669.0 347.0 675.5 352.5Q682.0 358.0 685.0 365.5Q688.0 373.0 691.0 380.5Q694.0 388.0 698.0 395.0Q702.0 402.0 703.5 410.5Q705.0 419.0 704.0 427.0Q703.0 435.0 704.0 443.0Q705.0 451.0 704.0 459.5Q703.0 468.0 699.0 475.0Q695.0 482.0 691.5 489.5Q688.0 497.0 685.0 505.0Q682.0 513.0 676.0 518.5Q670.0 524.0 663.5 529.0Q657.0 534.0 651.5 540.5Q646.0 547.0 638.5 550.5Q631.0 554.0 623.0 556.0Q615.0 558.0 607.5 561.0Q600.0 564.0 591.5 566.0Q583.0 568.0 575.0 566.0Q567.0 564.0 559.0 563.5Q551.0 563.0 542.5 562.5Q534.0 562.0 526.5 558.0Q519.0 554.0 512.0 549.5Q505.0 545.0 497.5 541.5Q490.0 538.0 484.0 532.0Q478.0 526.0 474.0 518.5Q470.0 511.0 464.5 505.0Q459.0 499.0 454.5 491.5Q450.0 484.0 449.0 475.5Q448.0 467.0 446.5 459.0Q445.0 451.0 442.5 443.0Q440.0 435.0 442.0 426.5Q444.0 418.0 446.0 410.0Q448.0 402.0 449.0 394.0Q450.0 386.0 454.0 378.5Q458.0 371.0 463.5 364.5Q469.0 358.0 473.5 351.0Q478.0 344.0 483.5 337.5Q489.0 331.0 496.5 327.5Q504.0 324.0 511.5 319.5Q519.0 315.0 526.0 310.5Q533.0 306.0 541.5 305.0Q550.0 304.0 558.5 304.0Q567.0 304.0 575.5 302.0Q584.0 300.0 592.0 301.5Q600.0 303.0 608.0 306.5Q616.0 310.0 624.0 311.5Q632.0 313.0 640.0 316.5Q648.0 320.0 654.0 326.5Q660.0 333.0 666.0 338.5Q672.0 344.0 679.0 349.5Q686.0 355.0 689.5 362.5Q693.0 370.0 695.5 378.0Q698.0 386.0 702.5 393.5Q707.0 401.0 708.5 409.5Q710.0 418.0 709.0 426.5Q708.0 435.0 708.5 443.5Q709.0 452.0 708.5 460.5Q708.0 469.0 703.5 476.5Q699.0 484.0 696.0 492.0Q693.0 500.0 689.5 508.0Q686.0 516.0 680.0 522.0Q674.0 528.0 667.0 533.0Q660.0 538.0 654.5 544.5Q649.0 551.0 641.0 555.0Q633.0 559.0 624.5 560.5Q616.0 562.0 608.5 565.5Q601.0 569.0 592.5 571.0Q584.0 573.0 575.5 571.0Q567.0 569.0 558.5 568.5Q550.0 568.0 541.0 567.5Q532.0 567.0 524.5 562.5Q517.0 558.0 510.0 553.5Q503.0 549.0 495.0 545.5Q487.0 542.0 481.0 535.5Q475.0 529.0 470.5 521.5Q466.0 514.0 460.0 507.5Q454.0 501.0 450.0 493.5Q446.0 486.0 445.0 477.5Q444.0 469.0 442.0 460.5Q440.0 452.0 437.5 443.5Q435.0 435.0 437.0 426.5Q439.0 418.0 441.5 409.5Q444.0 401.0 444.5 392.5Q445.0 384.0 449.0 376.0Q453.0 368.0 459.0 361.5Q465.0 355.0 469.5 347.5Q474.0 340.0 480.0 333.5Q486.0 327.0 494.0 323.5Q502.0 320.0 509.0 315.5Q516.0 311.0 523.5 306.0Q531.0 301.0 540.0 300.0Q549.0 299.0 557.5 299.0Q566.0 299.0 575.0 297.0Q584.0 295.0 592.5 296.5Q601.0 298.0 609.0 301.5Q617.0 305.0 625.5 307.0Q634.0 309.0 642.5 312.5Q651.0 316.0 657.0 322.5Q663.0 329.0 669.5 334.5Q676.0 340.0 683.0 346.0Q690.0 352.0 693.5 360.0Q697.0 368.0 700.0 376.0Q703.0 384.0 707.5 392.0Q712.0 400.0 713.5 408.5Q715.0 417.0 714.0 426.0Q713.0 435.0 713.5 444.0Q714.0 453.0 713.5 461.5Q713.0 470.0 708.5 478.0Q704.0 486.0 700.5 494.0Q697.0 502.0 694.0 510.5Q691.0 519.0 684.0 525.0Q677.0 531.0 670.0 536.5Q663.0 542.0 657.0 548.5Q651.0 555.0 643.0 559.0Q635.0 563.0 626.5 565.0Q618.0 567.0 610.0 570.5Q602.0 574.0 593.0 576.0Q584.0 578.0 575.0 576.0Q566.0 574.0 557.5 573.5Q549.0 573.0 540.0 572.5Q531.0 572.0 523.0 567.5Q515.0 563.0 507.5 558.0Q500.0 553.0 491.5 549.5Q483.0 546.0 477.0 539.5Q471.0 533.0 466.5 525.0Q462.0 517.0 456.0 510.5Q450.0 504.0 445.5 496.0Q441.0 488.0 440.0 479.0Q439.0 470.0 437.0 461.5Q435.0 453.0 432.5 444.0Q430.0 435.0 432.0 426.0Q434.0 417.0 436.5 408.5Q439.0 400.0 440.0 391.0Q441.0 382.0 445.0 374.0Q449.0 366.0 455.0 359.0Q461.0 352.0 465.5 344.5Q470.0 337.0 476.0 330.0Q482.0 323.0 490.5 319.5Q499.0 316.0 506.5 311.0Q514.0 306.0 522.0 301.0Q530.0 296.0 539.0 295.0Q548.0 294.0 557.0 294.0Q566.0 294.0 575.0 292.0Q584.0 290.0 593.0 291.5Q602.0 293.0 610.5 296.5Q619.0 300.0 628.0 302.0Q637.0 304.0 645.0 307.5Q653.0 311.0 659.5 318.0Q666.0 325.0 673.0 331.0Q680.0 337.0 687.0 343.0Q694.0 349.0 697.5 357.5Q701.0 366.0 704.5 374.5Q708.0 383.0 712.5 391.0Q717.0 399.0 718.5 408.0Q720.0 417.0 719.0 426.0Q718.0 435.0 718.5 444.0Q719.0 453.0 718.5 462.5Q718.0 472.0 713.0 480.0Q708.0 488.0 705.0 496.5Q702.0 505.0 698.5 513.5Q695.0 522.0 688.0 528.0Q681.0 534.0 674.0 540.0Q667.0 546.0 660.5 553.0Q654.0 560.0 646.0 564.0Q638.0 568.0 628.5 570.0Q619.0 572.0 610.5 575.5Q602.0 579.0 593.0 581.0Q584.0 583.0 575.0 581.0Q566.0 579.0 557.0 578.5Q548.0 578.0 538.5 577.5Q529.0 577.0 521.0 572.0Q513.0 567.0 505.5 562.0Q498.0 557.0 489.0 553.5Q480.0 550.0 473.5 543.0Q467.0 536.0 462.5 528.0Q458.0 520.0 452.0 513.0Q446.0 506.0 441.0 498.0Q436.0 490.0 435.0 480.5Q434.0 471.0 432.0 462.0Q430.0 453.0 427.5 444.0Q425.0 435.0 427.0 426.0Q429.0 417.0 431.5 408.0Q434.0 399.0 435.0 389.5Q436.0 380.0 440.5 371.5Q445.0 363.0 451.0 356.0Q457.0 349.0 462.0 341.0Q467.0 333.0 473.0 326.0Q479.0 319.0 488.0 315.0Q497.0 311.0 504.5 306.5Q512.0 302.0 520.0 296.5Q528.0 291.0 537.5 290.5Q547.0 290.0 556.5 289.5Q566.0 289.0 575.0 287.0Q584.0 285.0 593.5 286.5Q603.0 288.0 611.5 292.0Q620.0 296.0 629.5 298.0Q639.0 300.0 647.5 303.5Q656.0 307.0 662.5 314.0Q669.0 321.0 676.0 327.0Q683.0 333.0 690.5 339.5Q698.0 346.0 702.0 354.5Q706.0 363.0 709.0 372.0Q712.0 381.0 717.0 389.0Q722.0 397.0 723.5 406.5Q725.0 416.0 724.0 425.5Q723.0 435.0 723.5 444.5Q724.0 454.0 723.5 463.5Q723.0 473.0 718.0 481.5Q713.0 490.0 709.5 498.5Q706.0 507.0 702.5 516.0Q699.0 525.0 691.5 531.5Q684.0 538.0 677.0 543.5Q670.0 549.0 663.5 556.5Q657.0 564.0 648.5 568.0Q640.0 572.0 630.5 574.0Q621.0 576.0 612.0 580.0Q603.0 584.0 594.0 586.0Q585.0 588.0 575.5 586.0Q566.0 584.0 556.5 583.5Q547.0 583.0 537.0 582.0Q527.0 581.0 519.0 576.5Q511.0 572.0 503.0 566.5Q495.0 561.0 486.0 557.0Q477.0 553.0 470.5 546.5Q464.0 540.0 459.0 531.5Q454.0 523.0 447.5 516.0Q441.0 509.0 436.0 500.5Q431.0 492.0 430.0 482.0Q429.0 472.0 427.0 463.0Q425.0 454.0 422.5 444.5Q420.0 435.0 422.0 425.5Q424.0 416.0 426.5 407.0Q429.0 398.0 430.0 388.0Q431.0 378.0 435.5 369.5Q440.0 361.0 446.5 354.0Q453.0 347.0 458.0 338.5Q463.0 330.0 469.5 322.5Q476.0 315.0 485.0 311.0Q494.0 307.0 502.0 302.0Q510.0 297.0 518.5 292.0Q527.0 287.0 536.5 286.0Q546.0 285.0 555.5 284.5Q565.0 284.0 575.0 282.0Q585.0 280.0 594.5 281.5Q604.0 283.0 613.0 287.0Q622.0 291.0 631.5 293.0Q641.0 295.0 650.0 299.0Q659.0 303.0 665.5 310.5Q672.0 318.0 679.5 324.0Q687.0 330.0 694.5 336.5Q702.0 343.0 706.0 352.0Q710.0 361.0 713.5 370.0Q717.0 379.0 722.0 387.5Q727.0 396.0 728.5 405.5Q730.0 415.0 728.5 425.0Q727.0 435.0 728.0 445.0Q729.0 455.0 728.5 464.5Q728.0 474.0 723.0 482.5Q718.0 491.0 714.0 500.0Q710.0 509.0 706.5 518.5Q703.0 528.0 695.5 534.5Q688.0 541.0 680.5 547.0Q673.0 553.0 666.5 560.5Q660.0 568.0 651.0 572.5Q642.0 577.0 632.0 579.0Q622.0 581.0 613.0 585.0Q604.0 589.0 594.5 591.0Q585.0 593.0 575.0 591.0Q565.0 589.0 555.5 588.5Q546.0 588.0 536.0 587.0Q526.0 586.0 517.5 581.0Q509.0 576.0 500.5 570.5Q492.0 565.0 483.0 561.0Q474.0 557.0 467.0 550.0Q460.0 543.0 455.0 534.5Q450.0 526.0 443.5 518.5Q437.0 511.0 432.0 502.5Q427.0 494.0 426.0 484.0Q425.0 474.0 422.5 464.5Q420.0 455.0 417.5 445.0Q415.0 435.0 417.0 425.0Q419.0 415.0 421.5 405.5Q424.0 396.0 425.0 386.0Q426.0 376.0 431.0 367.0Q436.0 358.0 442.5 351.0Q449.0 344.0 454.0 335.0Q459.0 326.0 466.0 318.5Q473.0 311.0 482.0 307.0Q491.0 303.0 499.5 298.0Q508.0 293.0 516.5 287.5Q525.0 282.0 535.0 281.0Q545.0 280.0 555.0 279.5Q565.0 279.0 575.0 277.0Q585.0 275.0 595.0 276.5Q605.0 278.0 614.0 282.0Q623.0 286.0 633.0 288.5Q643.0 291.0 652.5 295.0Q662.0 299.0 668.5 306.5Q675.0 314.0 682.5 320.5Q690.0 327.0 698.0 333.5Q706.0 340.0 710.0 349.0Q714.0 358.0 717.5 367.5Q721.0 377.0 726.5 386.0Q732.0 395.0 733.5 405.0Q735.0 415.0 733.5 425.0Q732.0 435.0 733.0 445.0Q734.0 455.0 733.0 465.0Q732.0 475.0 727.0 484.0Q722.0 493.0 718.5 502.5Q715.0 512.0 711.0 521.5Q707.0 531.0 699.5 538.0Q692.0 545.0 684.0 551.0Q676.0 557.0 669.0 564.5Q662.0 572.0 653.0 577.0Q644.0 582.0 634.0 584.0Q624.0 586.0 614.5 590.0Q605.0 594.0 595.0 596.0Q585.0 598.0 575.0 596.0Q565.0 594.0 555.0 593.0Q545.0 592.0 534.5 591.5Q524.0 591.0 515.0 586.0Q506.0 581.0 498.0 575.5Q490.0 570.0 480.5 565.5Q471.0 561.0 463.5 554.0Q456.0 547.0 451.0 538.0Q446.0 529.0 439.0 521.0Q432.0 513.0 427.0 504.5Q422.0 496.0 421.0 485.5Q420.0 475.0 417.5 465.0Q415.0 455.0 412.5 445.0Q410.0 435.0 412.0 425.0Q414.0 415.0 417.0 405.0Q420.0 395.0 421.0 384.5Q422.0 374.0 426.5 365.0Q431.0 356.0 438.0 348.5Q445.0 341.0 450.5 332.0Q456.0 323.0 462.5 315.0Q469.0 307.0 479.0 303.0Q489.0 299.0 497.5 293.5Q506.0 288.0 515.0 282.5Q524.0 277.0 534.0 276.0Q544.0 275.0 554.5 274.5Q565.0 274.0 575.0 271.5Q585.0 269.0 595.5 271.0Q606.0 273.0 615.5 277.5Q625.0 282.0 635.0 284.0Q645.0 286.0 654.5 290.0Q664.0 294.0 671.0 302.0Q678.0 310.0 686.0 316.5Q694.0 323.0 702.0 330.0Q710.0 337.0 714.5 346.5Q719.0 356.0 722.5 365.5Q726.0 375.0 731.5 384.5Q737.0 394.0 738.5 404.0Q740.0 414.0 738.5 424.5Q737.0 435.0 738.0 445.5Q739.0 456.0 738.0 466.5Q737.0 477.0 732.0 486.0Q727.0 495.0 723.0 504.5Q719.0 514.0 715.0 524.0Q711.0 534.0 703.0 541.0Q695.0 548.0 687.0 554.5Q679.0 561.0 672.0 569.0Q665.0 577.0 655.5 581.5Q646.0 586.0 635.5 588.0Q625.0 590.0 615.5 594.5Q606.0 599.0 596.0 601.0Q586.0 603.0 575.5 601.0Q565.0 599.0 554.5 598.0Q544.0 597.0 533.5 596.5Q523.0 596.0 513.5 590.5Q504.0 585.0 495.5 579.5Q487.0 574.0 477.0 569.5Q467.0 565.0 460.0 557.5Q453.0 550.0 447.5 541.0Q442.0 532.0 435.0 524.0Q428.0 516.0 422.5 506.5Q417.0 497.0 416.0 486.5Q415.0 476.0 412.5 466.0Q410.0 456.0 407.5 445.5Q405.0 435.0 407.0 424.5Q409.0 414.0 412.0 404.0Q415.0 394.0 416.0 383.0Q417.0 372.0 422.0 363.0Q427.0 354.0 434.0 346.0Q441.0 338.0 446.5 329.0Q452.0 320.0 459.0 312.0Q466.0 304.0 476.0 299.5Q486.0 295.0 495.0 289.5Q504.0 284.0 513.0 278.0Q522.0 272.0 533.0 271.0Q544.0 270.0 554.5 269.5Q565.0 269.0 575.5 266.5Q586.0 264.0 596.5 266.0Q607.0 268.0 616.5 272.5Q626.0 277.0 636.5 279.0Q647.0 281.0 657.0 285.5Q667.0 290.0 674.5 298.0Q682.0 306.0 690.0 313.0Q698.0 320.0 706.0 327.0Q714.0 334.0 718.5 344.0Q723.0 354.0 726.5 363.5Q730.0 373.0 736.0 382.5Q742.0 392.0 743.5 403.0Q745.0 414.0 743.5 424.5Q742.0 435.0 743.0 445.5Q744.0 456.0 743.0 467.0Q742.0 478.0 736.5 487.5Q731.0 497.0 727.0 507.0Q723.0 517.0 719.0 527.0Q715.0 537.0 707.0 544.0Q699.0 551.0 690.5 558.0Q682.0 565.0 675.0 573.0Q668.0 581.0 658.0 586.0Q648.0 591.0 637.5 593.0Q627.0 595.0 617.0 599.5Q607.0 604.0 596.5 606.0Q586.0 608.0 575.0 606.0Q564.0 604.0 553.5 603.0Q543.0 602.0 532.0 601.5Q521.0 601.0 511.5 595.5Q502.0 590.0 493.0 584.0Q484.0 578.0 474.0 573.5Q464.0 569.0 456.5 561.0Q449.0 553.0 443.5 543.5Q438.0 534.0 431.0 526.0Q424.0 518.0 418.5 508.5Q413.0 499.0 411.5 488.0Q410.0 477.0 407.5 466.5Q405.0 456.0 402.5 445.5Q400.0 435.0 402.0 424.0Q404.0 413.0 407.0 403.0Q410.0 393.0 411.0 382.0Q412.0 371.0 417.0 361.0Q422.0 351.0 429.5 343.0Q437.0 335.0 442.5 325.5Q448.0 316.0 455.5 308.0Q463.0 300.0 473.0 295.0Q483.0 290.0 492.5 284.5Q502.0 279.0 511.0 273.0Q520.0 267.0 531.5 266.0Q543.0 265.0 553.5 264.5Q564.0 264.0 575.0 261.5Q586.0 259.0 597.0 261.0Q608.0 263.0 618.0 267.5Q628.0 272.0 638.5 274.5Q649.0 277.0 659.5 281.5Q670.0 286.0 677.5 294.0Q685.0 302.0 693.0 309.0Q701.0 316.0 710.0 323.5Q719.0 331.0 723.0 341.0Q727.0 351.0 731.0 361.5Q735.0 372.0 740.5 381.5Q746.0 391.0 748.0 402.0Q750.0 413.0 748.5 424.0Q747.0 435.0 748.0 446.0Q749.0 457.0 748.0 468.0Q747.0 479.0 741.5 489.0Q736.0 499.0 732.0 509.0Q728.0 519.0 723.5 529.5Q719.0 540.0 711.0 547.5Q703.0 555.0 694.0 561.5Q685.0 568.0 677.5 576.5Q670.0 585.0 660.0 590.0Q650.0 595.0 639.0 597.5Q628.0 600.0 618.0 604.5Q608.0 609.0 597.0 611.0Q586.0 613.0 575.0 611.0Q564.0 609.0 553.0 608.0Q542.0 607.0 531.0 606.5Q520.0 606.0 510.0 600.0Q500.0 594.0 491.0 588.0Q482.0 582.0 471.5 577.5Q461.0 573.0 453.0 565.0Q445.0 557.0 439.5 547.0Q434.0 537.0 426.5 529.0Q419.0 521.0 413.5 511.0Q408.0 501.0 406.5 490.0Q405.0 479.0 402.5 468.0Q400.0 457.0 397.5 446.0Q395.0 435.0 397.0 424.0Q399.0 413.0 402.0 402.0Q405.0 391.0 406.5 380.0Q408.0 369.0 413.0 359.0Q418.0 349.0 425.5 340.5Q433.0 332.0 439.0 322.5Q445.0 313.0 452.5 304.5Q460.0 296.0 470.5 291.0Q481.0 286.0 490.5 280.5Q500.0 275.0 509.5 268.5Q519.0 262.0 530.5 261.0Q542.0 260.0 553.0 259.5Q564.0 259.0 575.0 256.5Q586.0 254.0 597.5 256.0Q609.0 258.0 619.0 263.0Q629.0 268.0 640.5 270.0Q652.0 272.0 662.0 276.5Q672.0 281.0 680.0 290.0Q688.0 299.0 696.5 306.0Q705.0 313.0 714.0 320.5Q723.0 328.0 727.5 338.5Q732.0 349.0 736.0 359.5Q740.0 370.0 745.5 380.0Q751.0 390.0 753.0 401.0Q755.0 412.0 753.5 423.5Q752.0 435.0 753.0 446.5Q754.0 458.0 753.0 469.0Q752.0 480.0 746.5 490.5Q741.0 501.0 736.5 511.0Q732.0 521.0 727.5 532.0Q723.0 543.0 714.5 550.5Q706.0 558.0 697.5 565.0Q689.0 572.0 681.0 581.0Q673.0 590.0 663.0 595.0Q653.0 600.0 641.5 602.0Q630.0 604.0 619.5 609.0Q609.0 614.0 598.0 616.0Q587.0 618.0 575.5 616.0Q564.0 614.0 552.5 613.0Q541.0 612.0 529.5 611.0Q518.0 610.0 508.0 604.5Q498.0 599.0 488.5 592.5Q479.0 586.0 468.5 581.5Q458.0 577.0 449.5 568.5Q441.0 560.0 435.5 550.0Q430.0 540.0 422.5 531.5Q415.0 523.0 409.0 513.0Q403.0 503.0 402.0 491.5Q401.0 480.0 398.0 469.0Q395.0 458.0 392.0 446.5Q389.0 435.0 391.5 423.5Q394.0 412.0 397.5 401.0Q401.0 390.0 402.0 378.5Q403.0 367.0 408.5 356.5Q414.0 346.0 421.5 337.5Q429.0 329.0 435.0 319.0Q441.0 309.0 449.0 300.5Q457.0 292.0 467.5 287.0Q478.0 282.0 487.5 276.0Q497.0 270.0 507.0 264.0Q517.0 258.0 529.0 256.5Q541.0 255.0 552.5 254.5Q564.0 254.0 575.5 251.5Q587.0 249.0 598.5 251.0Q610.0 253.0 620.5 258.0Q631.0 263.0 642.5 265.5Q654.0 268.0 664.5 272.5Q675.0 277.0 683.0 286.0Q691.0 295.0 700.0 302.5Q709.0 310.0 718.0 317.5Q727.0 325.0 731.5 335.5Q736.0 346.0 740.0 357.0Q744.0 368.0 750.0 378.0Q756.0 388.0 758.0 400.0Q760.0 412.0 758.5 423.5Q757.0 435.0 758.0 446.5Q759.0 458.0 758.0 470.0Q757.0 482.0 751.0 492.0Q745.0 502.0 740.5 513.0Q736.0 524.0 732.0 535.0Q728.0 546.0 719.0 554.0Q710.0 562.0 701.0 569.0Q692.0 576.0 684.0 585.0Q676.0 594.0 665.5 599.0Q655.0 604.0 643.5 606.5Q632.0 609.0 621.0 613.5Q610.0 618.0 598.5 621.0Q587.0 624.0 575.0 621.5Q563.0 619.0 551.5 618.0Q540.0 617.0 528.0 616.0Q516.0 615.0 506.0 609.0Q496.0 603.0 486.0 596.5Q476.0 590.0 465.0 585.5Q454.0 581.0 446.0 572.5Q438.0 564.0 432.0 553.5Q426.0 543.0 418.0 534.0Q410.0 525.0 404.0 515.0Q398.0 505.0 397.0 493.0Q396.0 481.0 393.0 469.5Q390.0 458.0 387.0 446.5Q384.0 435.0 387.0 423.5Q390.0 412.0 393.0 400.5Q396.0 389.0 397.0 377.0Q398.0 365.0 403.5 354.5Q409.0 344.0 417.0 335.0Q425.0 326.0 431.0 316.0Q437.0 306.0 445.0 297.0Q453.0 288.0 464.0 283.0Q475.0 278.0 485.0 272.0Q495.0 266.0 505.5 259.5Q516.0 253.0 528.0 251.5Q540.0 250.0 551.5 249.5Q563.0 249.0 575.0 246.5Q587.0 244.0 599.0 246.0Q611.0 248.0 621.5 253.0Q632.0 258.0 644.0 260.5Q656.0 263.0 667.0 268.0Q678.0 273.0 686.0 282.0Q694.0 291.0 703.0 298.5Q712.0 306.0 721.5 314.0Q731.0 322.0 736.0 333.0Q741.0 344.0 745.0 355.0Q749.0 366.0 755.0 376.5Q761.0 387.0 763.0 399.0Q765.0 411.0 763.5 423.0Q762.0 435.0 763.0 447.0Q764.0 459.0 763.0 471.0Q762.0 483.0 756.0 493.5Q750.0 504.0 745.5 515.0Q741.0 526.0 736.5 537.5Q732.0 549.0 722.5 557.0Q713.0 565.0 704.0 572.5Q695.0 580.0 687.0 589.0Q679.0 598.0 668.0 603.5Q657.0 609.0 645.0 611.5Q633.0 614.0 622.0 618.5Q611.0 623.0 599.0 626.0Q587.0 629.0 575.0 626.5Q563.0 624.0 551.0 623.0Q539.0 622.0 527.0 621.0Q515.0 620.0 504.5 614.0Q494.0 608.0 484.0 601.5Q474.0 595.0 462.5 590.0Q451.0 585.0 442.5 576.0Q434.0 567.0 428.0 556.5Q422.0 546.0 414.0 537.0Q406.0 528.0 400.0 517.5Q394.0 507.0 392.5 494.5Q391.0 482.0 388.0 470.5Q385.0 459.0 382.0 447.0Q379.0 435.0 382.0 423.0Q385.0 411.0 388.0 399.5Q391.0 388.0 392.5 375.5Q394.0 363.0 399.5 352.0Q405.0 341.0 413.0 332.0Q421.0 323.0 427.5 312.5Q434.0 302.0 442.0 293.0Q450.0 284.0 461.5 279.0Q473.0 274.0 483.0 267.5Q493.0 261.0 503.5 254.5Q514.0 248.0 526.5 246.5Q539.0 245.0 551.0 244.5Q563.0 244.0 575.0 241.5Q587.0 239.0 599.5 241.0Q612.0 243.0 623.0 248.5Q634.0 254.0 646.0 256.5Q658.0 259.0 669.5 264.0Q681.0 269.0 689.0 278.0Q697.0 287.0 706.5 295.0Q716.0 303.0 725.5 311.0Q735.0 319.0 740.0 330.5Q745.0 342.0 749.0 353.0Q753.0 364.0 759.5 375.0Q766.0 386.0 768.0 398.0Q770.0 410.0 768.5 422.5Q767.0 435.0 768.0 447.5Q769.0 460.0 768.0 472.0Q767.0 484.0 760.5 495.0Q754.0 506.0 749.5 517.0Q745.0 528.0 740.5 540.0Q736.0 552.0 726.5 560.0Q717.0 568.0 707.5 576.0Q698.0 584.0 689.5 593.0Q681.0 602.0 670.0 607.5Q659.0 613.0 647.0 615.5Q635.0 618.0 623.5 623.0Q612.0 628.0 599.5 631.0Q587.0 634.0 575.0 631.0Q563.0 628.0 550.5 627.5Q538.0 627.0 525.5 626.0Q513.0 625.0 502.5 618.5Q492.0 612.0 481.5 605.5Q471.0 599.0 459.5 594.0Q448.0 589.0 439.0 580.0Q430.0 571.0 424.0 560.0Q418.0 549.0 410.0 539.5Q402.0 530.0 395.5 519.5Q389.0 509.0 387.5 496.0Q386.0 483.0 383.0 471.5Q380.0 460.0 377.0 447.5Q374.0 435.0 377.0 422.5Q380.0 410.0 383.0 398.5Q386.0 387.0 387.5 374.0Q389.0 361.0 394.5 350.0Q400.0 339.0 408.5 330.0Q417.0 321.0 423.5 310.0Q430.0 299.0 438.5 289.5Q447.0 280.0 458.5 275.0Q470.0 270.0 480.5 263.5Q491.0 257.0 502.0 250.0Q513.0 243.0 525.5 242.0Q538.0 241.0 550.5 240.5Q563.0 240.0 575.5 237.0Q588.0 234.0 600.5 236.0Q613.0 238.0 624.0 243.5Q635.0 249.0 647.5 251.5Q660.0 254.0 671.5 259.0Q683.0 264.0 691.5 273.5Q700.0 283.0 709.5 291.0Q719.0 299.0 729.0 307.5Q739.0 316.0 744.0 327.5Q749.0 339.0 753.5 351.0Q758.0 363.0 764.5 374.0Q771.0 385.0 773.0 397.5Q775.0 410.0 773.5 422.5Q772.0 435.0 773.0 447.5Q774.0 460.0 773.0 473.0Q772.0 486.0 765.5 497.0Q759.0 508.0 754.0 519.5Q749.0 531.0 744.5 543.0Q740.0 555.0 730.5 563.5Q721.0 572.0 711.0 579.5Q701.0 587.0 692.5 597.0Q684.0 607.0 672.5 612.5Q661.0 618.0 648.5 620.5Q636.0 623.0 624.5 628.0Q613.0 633.0 600.5 636.0Q588.0 639.0 575.5 636.0Q563.0 633.0 550.5 632.0Q538.0 631.0 525.0 630.5Q512.0 630.0 500.5 623.5Q489.0 617.0 478.5 610.0Q468.0 603.0 456.5 597.5Q445.0 592.0 436.0 583.0Q427.0 574.0 420.5 563.0Q414.0 552.0 405.5 542.5Q397.0 533.0 390.5 522.0Q384.0 511.0 382.5 498.0Q381.0 485.0 378.5 472.5Q376.0 460.0 372.5 447.5Q369.0 435.0 372.0 422.5Q375.0 410.0 378.5 397.5Q382.0 385.0 383.0 372.0Q384.0 359.0 390.0 348.0Q396.0 337.0 405.0 327.5Q414.0 318.0 420.0 306.5Q426.0 295.0 435.0 285.5Q444.0 276.0 455.5 270.5Q467.0 265.0 478.0 258.5Q489.0 252.0 500.0 245.0Q511.0 238.0 524.0 237.0Q537.0 236.0 549.5 235.5Q562.0 235.0 575.0 232.0Q588.0 229.0 600.5 231.0Q613.0 233.0 625.0 238.5Q637.0 244.0 649.5 247.0Q662.0 250.0 674.0 255.0Q686.0 260.0 695.0 270.0Q704.0 280.0 713.5 288.0Q723.0 296.0 733.0 304.5Q743.0 313.0 748.5 325.0Q754.0 337.0 758.5 349.0Q763.0 361.0 769.5 372.0Q776.0 383.0 778.0 396.0Q780.0 409.0 778.5 422.0Q777.0 435.0 778.0 448.0Q779.0 461.0 778.0 474.0Q777.0 487.0 770.5 498.5Q764.0 510.0 759.0 521.5Q754.0 533.0 749.0 545.5Q744.0 558.0 734.0 566.5Q724.0 575.0 714.0 583.0Q704.0 591.0 695.5 601.0Q687.0 611.0 675.0 617.0Q663.0 623.0 650.5 625.5Q638.0 628.0 626.0 633.0Q614.0 638.0 601.0 641.0Q588.0 644.0 575.0 641.0Q562.0 638.0 549.5 637.0Q537.0 636.0 523.5 635.5Q510.0 635.0 498.5 628.0Q487.0 621.0 476.5 614.0Q466.0 607.0 454.0 601.5Q442.0 596.0 432.5 587.0Q423.0 578.0 416.5 566.5Q410.0 555.0 401.5 545.0Q393.0 535.0 386.5 523.5Q380.0 512.0 378.5 499.0Q377.0 486.0 374.0 473.5Q371.0 461.0 367.5 448.0Q364.0 435.0 367.0 422.0Q370.0 409.0 373.5 396.5Q377.0 384.0 378.0 371.0Q379.0 358.0 385.5 346.0Q392.0 334.0 401.0 324.5Q410.0 315.0 416.5 303.5Q423.0 292.0 431.5 282.0Q440.0 272.0 452.5 266.5Q465.0 261.0 476.0 254.5Q487.0 248.0 498.0 240.5Q509.0 233.0 522.5 232.0Q536.0 231.0 549.0 230.5Q562.0 230.0 575.0 227.0Q588.0 224.0 601.0 226.0Q614.0 228.0 626.5 234.0Q639.0 240.0 651.5 242.5Q664.0 245.0 676.5 250.5Q689.0 256.0 698.0 266.0Q707.0 276.0 717.0 284.5Q727.0 293.0 737.0 301.5Q747.0 310.0 752.5 322.0Q758.0 334.0 762.5 346.5Q767.0 359.0 774.0 370.5Q781.0 382.0 783.0 395.5Q785.0 409.0 783.5 422.0Q782.0 435.0 783.0 448.0Q784.0 461.0 783.0 474.5Q782.0 488.0 775.0 499.5Q768.0 511.0 763.0 523.5Q758.0 536.0 753.0 548.5Q748.0 561.0 738.0 570.0Q728.0 579.0 717.5 587.0Q707.0 595.0 698.0 605.0Q689.0 615.0 677.0 621.0Q665.0 627.0 652.0 629.5Q639.0 632.0 627.0 637.5Q615.0 643.0 601.5 646.0Q588.0 649.0 575.0 646.0Q562.0 643.0 549.0 642.0Q536.0 641.0 522.5 640.5Q509.0 640.0 497.0 633.0Q485.0 626.0 474.0 618.5Q463.0 611.0 450.5 605.5Q438.0 600.0 428.5 590.5Q419.0 581.0 412.5 569.5Q406.0 558.0 397.0 548.0Q388.0 538.0 381.5 526.0Q375.0 514.0 373.5 500.5Q372.0 487.0 369.0 474.0Q366.0 461.0 362.5 448.0Q359.0 435.0 362.0 421.5Q365.0 408.0 368.5 395.5Q372.0 383.0 373.5 369.5Q375.0 356.0 381.0 344.0Q387.0 332.0 396.5 322.0Q406.0 312.0 412.5 300.5Q419.0 289.0 428.0 278.5Q437.0 268.0 449.5 262.5Q462.0 257.0 473.5 250.0Q485.0 243.0 496.5 236.0Q508.0 229.0 521.5 227.5Q535.0 226.0 548.5 225.5Q562.0 225.0 575.5 222.0Q589.0 219.0 602.0 221.0Q615.0 223.0 627.5 229.0Q640.0 235.0 653.0 238.0Q666.0 241.0 678.5 246.5Q691.0 252.0 700.5 262.0Q710.0 272.0 720.0 280.5Q730.0 289.0 740.5 298.0Q751.0 307.0 756.5 319.5Q762.0 332.0 767.0 344.5Q772.0 357.0 779.0 369.0Q786.0 381.0 788.0 394.5Q790.0 408.0 788.0 421.5Q786.0 435.0 787.5 448.5Q789.0 462.0 787.5 475.5Q786.0 489.0 779.5 501.0Q773.0 513.0 767.5 525.5Q762.0 538.0 757.0 551.0Q752.0 564.0 742.0 573.0Q732.0 582.0 721.0 590.5Q710.0 599.0 701.0 609.0Q692.0 619.0 680.0 625.5Q668.0 632.0 654.5 634.5Q641.0 637.0 628.5 642.5Q616.0 648.0 602.5 651.0Q589.0 654.0 575.5 651.0Q562.0 648.0 548.5 647.0Q535.0 646.0 521.0 645.0Q507.0 644.0 495.0 637.0Q483.0 630.0 472.0 622.5Q461.0 615.0 448.0 609.5Q435.0 604.0 425.5 594.0Q416.0 584.0 409.0 572.0Q402.0 560.0 393.0 550.0Q384.0 540.0 377.0 528.0Q370.0 516.0 368.5 502.0Q367.0 488.0 364.0 475.0Q361.0 462.0 357.5 448.5Q354.0 435.0 357.0 421.5Q360.0 408.0 363.5 395.0Q367.0 382.0 368.5 368.0Q370.0 354.0 376.5 341.5Q383.0 329.0 392.5 319.0Q402.0 309.0 408.5 297.0Q415.0 285.0 424.5 274.5Q434.0 264.0 446.5 258.5Q459.0 253.0 471.0 246.0Q483.0 239.0 494.5 231.5Q506.0 224.0 520.0 222.5Q534.0 221.0 547.5 220.5Q561.0 220.0 575.0 217.0Q589.0 214.0 602.5 216.5Q616.0 219.0 629.0 224.5Q642.0 230.0 655.5 233.0Q669.0 236.0 681.5 241.5Q694.0 247.0 703.5 257.5Q713.0 268.0 723.5 277.0Q734.0 286.0 745.0 295.0Q756.0 304.0 761.5 317.0Q767.0 330.0 771.5 342.5Q776.0 355.0 783.5 367.5Q791.0 380.0 793.0 393.5Q795.0 407.0 793.0 421.0Q791.0 435.0 792.5 449.0Q794.0 463.0 792.5 477.0Q791.0 491.0 784.0 503.0Q777.0 515.0 772.0 527.5Q767.0 540.0 761.5 553.5Q756.0 567.0 745.5 576.0Q735.0 585.0 724.5 594.0Q714.0 603.0 704.5 613.5Q695.0 624.0 682.5 630.0Q670.0 636.0 656.0 639.0Q642.0 642.0 629.5 647.5Q617.0 653.0 603.0 656.0Q589.0 659.0 575.0 656.0Q561.0 653.0 547.5 652.0Q534.0 651.0 519.5 650.0Q505.0 649.0 493.0 642.0Q481.0 635.0 469.5 627.0Q458.0 619.0 445.0 613.5Q432.0 608.0 422.0 598.0Q412.0 588.0 405.0 575.5Q398.0 563.0 389.0 552.5Q380.0 542.0 372.5 530.0Q365.0 518.0 363.5 504.0Q362.0 490.0 359.0 476.5Q356.0 463.0 352.5 449.0Q349.0 435.0 352.0 421.0Q355.0 407.0 358.5 393.5Q362.0 380.0 363.5 366.0Q365.0 352.0 371.5 339.5Q378.0 327.0 388.0 316.5Q398.0 306.0 405.0 294.0Q412.0 282.0 421.5 271.5Q431.0 261.0 444.0 255.0Q457.0 249.0 469.0 241.5Q481.0 234.0 493.0 226.5Q505.0 219.0 519.0 217.5Q533.0 216.0 547.0 215.5Q561.0 215.0 575.0 212.0Q589.0 209.0 603.0 211.5Q617.0 214.0 630.0 220.0Q643.0 226.0 657.0 229.0Q671.0 232.0 684.0 237.5Q697.0 243.0 706.5 253.5Q716.0 264.0 726.5 273.0Q737.0 282.0 748.5 291.5Q760.0 301.0 765.5 314.0Q771.0 327.0 776.0 340.0Q781.0 353.0 788.0 365.5Q795.0 378.0 797.5 392.5Q800.0 407.0 798.0 421.0Q796.0 435.0 797.5 449.0Q799.0 463.0 797.5 477.5Q796.0 492.0 789.0 504.5Q782.0 517.0 776.5 530.0Q771.0 543.0 765.5 556.5Q760.0 570.0 749.5 579.5Q739.0 589.0 728.0 597.5Q717.0 606.0 707.0 617.0Q697.0 628.0 684.5 634.5Q672.0 641.0 658.0 643.5Q644.0 646.0 631.0 652.0Q618.0 658.0 603.5 661.0Q589.0 664.0 575.0 661.0Q561.0 658.0 547.0 657.0Q533.0 656.0 518.5 655.0Q504.0 654.0 491.5 646.5Q479.0 639.0 467.0 631.5Q455.0 624.0 442.0 618.0Q429.0 612.0 418.5 601.5Q408.0 591.0 401.0 578.5Q394.0 566.0 384.5 555.5Q375.0 545.0 368.0 532.5Q361.0 520.0 359.5 505.5Q358.0 491.0 354.5 477.0Q351.0 463.0 347.5 449.0Q344.0 435.0 347.0 421.0Q350.0 407.0 354.0 393.0Q358.0 379.0 359.5 364.5Q361.0 350.0 367.5 337.0Q374.0 324.0 384.0 313.5Q394.0 303.0 401.0 290.5Q408.0 278.0 417.5 267.5Q427.0 257.0 440.5 251.0Q454.0 245.0 466.0 237.5Q478.0 230.0 490.5 222.0Q503.0 214.0 517.5 212.5Q532.0 211.0 546.5 210.5Q561.0 210.0 575.5 207.0Q590.0 204.0 604.0 206.5Q618.0 209.0 631.5 215.0Q645.0 221.0 659.0 224.0Q673.0 227.0 686.5 233.0Q700.0 239.0 709.5 250.0Q719.0 261.0 730.0 270.0Q741.0 279.0 752.5 288.5Q764.0 298.0 770.0 311.5Q776.0 325.0 780.5 338.5Q785.0 352.0 792.5 364.5Q800.0 377.0 802.5 391.5Q805.0 406.0 803.0 420.5Q801.0 435.0 802.5 449.5Q804.0 464.0 802.5 478.5Q801.0 493.0 793.5 506.0Q786.0 519.0 781.0 532.0Q776.0 545.0 770.5 559.0Q765.0 573.0 754.0 582.5Q743.0 592.0 731.5 601.0Q720.0 610.0 710.0 621.0Q700.0 632.0 687.0 638.5Q674.0 645.0 659.5 648.0Q645.0 651.0 631.5 657.0Q618.0 663.0 604.0 666.0Q590.0 669.0 575.5 666.0Q561.0 663.0 546.5 662.0Q532.0 661.0 517.0 660.0Q502.0 659.0 489.5 651.5Q477.0 644.0 465.0 636.0Q453.0 628.0 439.0 622.0Q425.0 616.0 415.0 605.5Q405.0 595.0 397.5 582.0Q390.0 569.0 380.5 558.0Q371.0 547.0 363.5 534.5Q356.0 522.0 354.5 507.0Q353.0 492.0 349.5 478.0Q346.0 464.0 342.5 449.5Q339.0 435.0 342.0 420.5Q345.0 406.0 349.0 392.0Q353.0 378.0 354.5 363.0Q356.0 348.0 363.0 335.0Q370.0 322.0 380.0 311.0Q390.0 300.0 397.0 287.5Q404.0 275.0 414.0 264.0Q424.0 253.0 438.0 246.5Q452.0 240.0 464.0 232.5Q476.0 225.0 489.0 217.0Q502.0 209.0 516.5 207.5Q531.0 206.0 546.0 205.5Q561.0 205.0 575.5 202.0Q590.0 199.0 604.5 201.5Q619.0 204.0 632.5 210.0Q646.0 216.0 660.5 219.0Q675.0 222.0 688.5 228.0Q702.0 234.0 712.0 245.5Q722.0 257.0 733.5 266.5Q745.0 276.0 756.5 285.5Q768.0 295.0 774.0 308.5Q780.0 322.0 785.0 336.0Q790.0 350.0 797.5 363.0Q805.0 376.0 807.5 390.5Q810.0 405.0 808.0 420.0Q806.0 435.0 807.5 450.0Q809.0 465.0 807.5 479.5Q806.0 494.0 798.5 507.5Q791.0 521.0 785.5 534.5Q780.0 548.0 774.5 562.0Q769.0 576.0 757.5 586.0Q746.0 596.0 734.5 605.0Q723.0 614.0 713.0 625.5Q703.0 637.0 689.5 643.5Q676.0 650.0 661.5 653.0Q647.0 656.0 633.0 662.0Q619.0 668.0 604.5 671.0Q590.0 674.0 575.0 671.0Q560.0 668.0 545.5 667.0Q531.0 666.0 516.0 665.0Q501.0 664.0 488.0 656.0Q475.0 648.0 462.5 640.0Q450.0 632.0 436.0 626.0Q422.0 620.0 411.5 609.0Q401.0 598.0 393.5 585.0Q386.0 572.0 376.5 561.0Q367.0 550.0 359.0 537.0Q351.0 524.0 349.5 508.5Q348.0 493.0 344.5 479.0Q341.0 465.0 337.5 450.0Q334.0 435.0 337.0 420.0Q340.0 405.0 344.0 391.0Q348.0 377.0 349.5 361.5Q351.0 346.0 358.0 333.0Q365.0 320.0 375.5 308.5Q386.0 297.0 393.5 284.0Q401.0 271.0 411.0 260.0Q421.0 249.0 435.0 242.5Q449.0 236.0 461.5 228.5Q474.0 221.0 487.0 212.5Q500.0 204.0 515.0 202.5Q530.0 201.0 545.0 200.5Q560.0 200.0 575.0 197.0Q590.0 194.0 605.0 196.5Q620.0 199.0 634.0 205.0Q648.0 211.0 662.5 214.5Q677.0 218.0 691.0 224.0Q705.0 230.0 715.5 241.5Q726.0 253.0 737.0 262.5Q748.0 272.0 760.0 282.0Q772.0 292.0 778.0 306.0Q784.0 320.0 789.5 334.0Q795.0 348.0 802.5 361.5Q810.0 375.0 812.5 390.0Q815.0 405.0 813.0 420.0Q811.0 435.0 812.5 450.0Q814.0 465.0 812.5 480.5Q811.0 496.0 803.5 509.0Q796.0 522.0 790.0 536.0Q784.0 550.0 778.5 564.5Q773.0 579.0 761.5 589.0Q750.0 599.0 738.0 608.5Q726.0 618.0 716.0 629.5Q706.0 641.0 692.0 647.5Q678.0 654.0 663.0 657.0Q648.0 660.0 634.0 666.5Q620.0 673.0 605.0 676.0Q590.0 679.0 575.0 676.0Q560.0 673.0 545.0 672.0Q530.0 671.0 514.5 670.0Q499.0 669.0 485.5 661.0Q472.0 653.0 459.5 644.5Q447.0 636.0 433.0 630.0Q419.0 624.0 408.0 613.0Q397.0 602.0 389.5 588.5Q382.0 575.0 372.0 563.5Q362.0 552.0 354.5 538.5Q347.0 525.0 345.0 510.0Q343.0 495.0 339.5 480.0Q336.0 465.0 332.0 450.0Q328.0 435.0 331.5 420.0Q335.0 405.0 339.0 390.5Q343.0 376.0 344.5 360.5Q346.0 345.0 353.5 331.0Q361.0 317.0 371.5 306.0Q382.0 295.0 389.5 281.5Q397.0 268.0 407.5 256.5Q418.0 245.0 432.0 238.5Q446.0 232.0 459.0 224.0Q472.0 216.0 485.5 208.0Q499.0 200.0 514.5 198.5Q530.0 197.0 545.0 196.0Q560.0 195.0 575.0 192.0Q590.0 189.0 605.5 191.5Q621.0 194.0 635.0 200.5Q649.0 207.0 664.0 210.0Q679.0 213.0 693.5 219.5Q708.0 226.0 718.5 237.5Q729.0 249.0 740.5 259.0Q752.0 269.0 764.0 279.0Q776.0 289.0 782.5 303.5Q789.0 318.0 794.0 332.0Q799.0 346.0 807.0 359.5Q815.0 373.0 817.5 388.5Q820.0 404.0 818.0 419.5Q816.0 435.0 817.5 450.5Q819.0 466.0 817.5 481.5Q816.0 497.0 808.0 510.5Q800.0 524.0 794.5 538.0Q789.0 552.0 783.0 567.0Q777.0 582.0 765.0 592.5Q753.0 603.0 741.0 612.5Q729.0 622.0 718.5 633.5Q708.0 645.0 694.0 652.0Q680.0 659.0 665.0 662.0Q650.0 665.0 635.5 671.5Q621.0 678.0 606.0 681.0Q591.0 684.0 575.5 681.0Q560.0 678.0 544.5 676.5Q529.0 675.0 513.5 674.0Q498.0 673.0 484.0 665.0Q470.0 657.0 457.5 648.5Q445.0 640.0 430.5 634.0Q416.0 628.0 405.0 616.5Q394.0 605.0 386.5 591.5Q379.0 578.0 368.5 566.0Q358.0 554.0 350.0 540.5Q342.0 527.0 340.0 511.5Q338.0 496.0 334.5 481.0Q331.0 466.0 327.0 450.5Q323.0 435.0 326.5 419.5Q330.0 404.0 334.5 389.0Q339.0 374.0 340.5 358.5Q342.0 343.0 349.0 329.0Q356.0 315.0 367.0 303.5Q378.0 292.0 386.0 278.5Q394.0 265.0 404.0 253.0Q414.0 241.0 429.0 234.5Q444.0 228.0 457.0 220.0Q470.0 212.0 483.5 203.5Q497.0 195.0 513.0 193.5Q529.0 192.0 544.5 191.0Q560.0 190.0 575.5 187.0Q591.0 184.0 606.5 186.5Q622.0 189.0 636.5 195.5Q651.0 202.0 666.0 205.5Q681.0 209.0 695.5 215.5Q710.0 222.0 721.0 233.5Q732.0 245.0 744.0 255.0Q756.0 265.0 768.0 275.5Q780.0 286.0 786.5 300.5Q793.0 315.0 798.5 329.5Q804.0 344.0 812.0 358.0Q820.0 372.0 822.5 387.5Q825.0 403.0 823.0 419.0Q821.0 435.0 822.5 450.5Q824.0 466.0 822.5 482.0Q821.0 498.0 813.0 512.0Q805.0 526.0 799.0 540.5Q793.0 555.0 787.0 570.0Q781.0 585.0 769.0 595.5Q757.0 606.0 744.5 615.5Q732.0 625.0 721.5 637.0Q711.0 649.0 697.0 656.5Q683.0 664.0 667.0 667.0Q651.0 670.0 636.5 676.5Q622.0 683.0 606.5 686.0Q591.0 689.0 575.0 686.0Q559.0 683.0 543.5 681.5Q528.0 680.0 512.0 679.0Q496.0 678.0 482.0 670.0Q468.0 662.0 455.0 653.0Q442.0 644.0 427.0 637.5Q412.0 631.0 401.0 620.0Q390.0 609.0 382.5 595.0Q375.0 581.0 364.0 569.0Q353.0 557.0 345.0 543.0Q337.0 529.0 335.5 513.0Q334.0 497.0 330.0 481.5Q326.0 466.0 322.0 450.5Q318.0 435.0 321.5 419.0Q325.0 403.0 329.5 388.0Q334.0 373.0 335.5 357.0Q337.0 341.0 344.5 326.5Q352.0 312.0 363.0 300.5Q374.0 289.0 382.0 275.0Q390.0 261.0 400.5 249.0Q411.0 237.0 426.0 230.5Q441.0 224.0 454.5 215.5Q468.0 207.0 481.5 198.5Q495.0 190.0 511.5 188.5Q528.0 187.0 543.5 186.0Q559.0 185.0 575.0 182.0Q591.0 179.0 607.0 181.5Q623.0 184.0 637.5 190.5Q652.0 197.0 668.0 200.5Q684.0 204.0 698.5 210.5Q713.0 217.0 724.0 229.0Q735.0 241.0 747.0 251.5Q759.0 262.0 771.5 272.5Q784.0 283.0 790.5 298.0Q797.0 313.0 802.5 328.0Q808.0 343.0 816.5 357.0Q825.0 371.0 827.5 387.0Q830.0 403.0 828.0 419.0Q826.0 435.0 827.5 451.0Q829.0 467.0 827.5 483.0Q826.0 499.0 817.5 513.5Q809.0 528.0 803.0 542.5Q797.0 557.0 791.0 572.5Q785.0 588.0 773.0 598.5Q761.0 609.0 748.5 619.0Q736.0 629.0 725.0 641.5Q714.0 654.0 699.5 661.0Q685.0 668.0 669.0 671.0Q653.0 674.0 638.0 680.5Q623.0 687.0 607.0 690.5Q591.0 694.0 575.0 691.0Q559.0 688.0 543.0 686.5Q527.0 685.0 510.5 684.0Q494.0 683.0 480.0 674.5Q466.0 666.0 452.5 657.5Q439.0 649.0 424.0 642.0Q409.0 635.0 397.5 623.5Q386.0 612.0 378.5 598.0Q371.0 584.0 360.0 571.5Q349.0 559.0 340.5 545.0Q332.0 531.0 330.5 514.5Q329.0 498.0 325.0 482.5Q321.0 467.0 317.0 451.0Q313.0 435.0 316.5 419.0Q320.0 403.0 324.5 387.5Q329.0 372.0 330.5 355.5Q332.0 339.0 339.5 324.5Q347.0 310.0 358.5 298.0Q370.0 286.0 378.0 272.0Q386.0 258.0 397.0 245.5Q408.0 233.0 423.0 226.5Q438.0 220.0 452.0 211.5Q466.0 203.0 480.0 194.0Q494.0 185.0 510.5 183.5Q527.0 182.0 543.0 181.5Q559.0 181.0 575.0 177.0Q591.0 173.0 607.5 176.0Q624.0 179.0 639.0 186.0Q654.0 193.0 670.0 196.5Q686.0 200.0 701.0 206.5Q716.0 213.0 727.0 225.5Q738.0 238.0 750.5 248.5Q763.0 259.0 775.5 269.5Q788.0 280.0 795.0 295.0Q802.0 310.0 807.5 325.5Q813.0 341.0 821.5 355.5Q830.0 370.0 832.5 386.0Q835.0 402.0 833.0 418.5Q831.0 435.0 832.5 451.5Q834.0 468.0 832.5 484.5Q831.0 501.0 822.5 515.5Q814.0 530.0 808.0 545.0Q802.0 560.0 795.5 575.5Q789.0 591.0 776.5 602.0Q764.0 613.0 751.5 623.0Q739.0 633.0 727.5 645.5Q716.0 658.0 701.5 665.5Q687.0 673.0 670.5 676.0Q654.0 679.0 639.0 685.5Q624.0 692.0 608.0 695.5Q592.0 699.0 575.5 696.0Q559.0 693.0 542.5 691.5Q526.0 690.0 509.5 689.0Q493.0 688.0 478.5 679.5Q464.0 671.0 450.5 662.0Q437.0 653.0 421.5 646.0Q406.0 639.0 394.5 627.5Q383.0 616.0 375.0 601.0Q367.0 586.0 356.0 574.0Q345.0 562.0 336.5 547.5Q328.0 533.0 326.0 516.0Q324.0 499.0 320.0 483.5Q316.0 468.0 312.0 451.5Q308.0 435.0 311.5 418.5Q315.0 402.0 319.5 386.5Q324.0 371.0 326.0 354.0Q328.0 337.0 335.5 322.0Q343.0 307.0 354.5 295.0Q366.0 283.0 374.5 268.5Q383.0 254.0 394.0 241.5Q405.0 229.0 420.5 222.0Q436.0 215.0 450.0 206.5Q464.0 198.0 478.0 189.0Q492.0 180.0 509.0 178.5Q526.0 177.0 542.5 176.5Q559.0 176.0 575.5 172.0Q592.0 168.0 608.5 171.0Q625.0 174.0 640.0 181.0Q655.0 188.0 671.5 191.5Q688.0 195.0 703.5 202.0Q719.0 209.0 730.0 221.5Q741.0 234.0 753.5 244.5Q766.0 255.0 779.5 266.0Q793.0 277.0 799.5 292.5Q806.0 308.0 812.0 323.5Q818.0 339.0 826.5 353.5Q835.0 368.0 837.5 385.0Q840.0 402.0 838.0 418.5Q836.0 435.0 837.5 451.5Q839.0 468.0 837.5 485.0Q836.0 502.0 827.5 516.5Q819.0 531.0 812.5 546.5Q806.0 562.0 799.5 578.0Q793.0 594.0 780.5 605.0Q768.0 616.0 755.0 626.5Q742.0 637.0 730.5 649.5Q719.0 662.0 704.0 669.5Q689.0 677.0 672.5 680.5Q656.0 684.0 640.5 690.5Q625.0 697.0 608.5 701.0Q592.0 705.0 575.0 701.0Q558.0 697.0 541.5 696.0Q525.0 695.0 508.0 694.0Q491.0 693.0 476.5 684.0Q462.0 675.0 448.0 666.0Q434.0 657.0 418.5 650.0Q403.0 643.0 391.0 631.0Q379.0 619.0 371.0 604.0Q363.0 589.0 351.5 576.5Q340.0 564.0 331.5 549.5Q323.0 535.0 321.0 518.0Q319.0 501.0 315.5 484.5Q312.0 468.0 307.5 451.5Q303.0 435.0 306.5 418.5Q310.0 402.0 314.5 385.5Q319.0 369.0 321.0 352.0Q323.0 335.0 331.0 320.0Q339.0 305.0 350.5 292.5Q362.0 280.0 370.5 265.5Q379.0 251.0 390.5 238.0Q402.0 225.0 417.5 218.0Q433.0 211.0 447.5 202.5Q462.0 194.0 476.5 184.5Q491.0 175.0 508.0 173.5Q525.0 172.0 541.5 171.5Q558.0 171.0 575.0 167.0Q592.0 163.0 609.0 166.0Q626.0 169.0 641.5 176.0Q657.0 183.0 673.5 187.0Q690.0 191.0 705.5 197.5Q721.0 204.0 733.0 217.0Q745.0 230.0 757.5 241.0Q770.0 252.0 783.5 263.0Q797.0 274.0 803.5 290.0Q810.0 306.0 816.0 321.5Q822.0 337.0 831.0 352.0Q840.0 367.0 842.5 384.0Q845.0 401.0 843.0 418.0Q841.0 435.0 842.5 452.0Q844.0 469.0 842.5 486.0Q841.0 503.0 832.0 518.0Q823.0 533.0 816.5 548.5Q810.0 564.0 803.5 580.5Q797.0 597.0 784.5 608.5Q772.0 620.0 758.5 630.5Q745.0 641.0 733.5 653.5Q722.0 666.0 706.5 674.0Q691.0 682.0 674.0 685.0Q657.0 688.0 641.5 695.0Q626.0 702.0 609.0 706.0Q592.0 710.0 575.0 706.0Q558.0 702.0 541.0 701.0Q524.0 700.0 507.0 699.0Q490.0 698.0 475.0 689.0Q460.0 680.0 446.0 670.5Q432.0 661.0 416.0 654.0Q400.0 647.0 387.5 634.5Q375.0 622.0 367.0 607.0Q359.0 592.0 347.5 579.5Q336.0 567.0 327.0 552.0Q318.0 537.0 316.5 519.5Q315.0 502.0 311.0 485.5Q307.0 469.0 302.5 452.0Q298.0 435.0 301.5 418.0Q305.0 401.0 310.0 384.5Q315.0 368.0 316.5 350.5Q318.0 333.0 326.0 318.0Q334.0 303.0 346.0 290.0Q358.0 277.0 366.5 262.0Q375.0 247.0 386.5 234.0Q398.0 221.0 414.0 214.0Q430.0 207.0 444.5 198.0Q459.0 189.0 474.0 180.0Q489.0 171.0 506.5 169.0Q524.0 167.0 541.0 166.5Q558.0 166.0 575.0 162.0Q592.0 158.0 609.5 161.0Q627.0 164.0 642.5 171.5Q658.0 179.0 675.0 182.5Q692.0 186.0 708.0 193.0Q724.0 200.0 736.0 213.0Q748.0 226.0 761.0 237.0Q774.0 248.0 787.5 259.5Q801.0 271.0 808.0 287.0Q815.0 303.0 821.0 319.0Q827.0 335.0 835.5 350.5Q844.0 366.0 847.0 383.0Q850.0 400.0 847.5 417.5Q845.0 435.0 847.0 452.5Q849.0 470.0 847.0 487.0Q845.0 504.0 836.5 519.5Q828.0 535.0 821.5 551.0Q815.0 567.0 808.5 583.5Q802.0 600.0 788.5 611.5Q775.0 623.0 761.5 633.5Q748.0 644.0 736.5 657.5Q725.0 671.0 709.0 678.5Q693.0 686.0 676.0 689.5Q659.0 693.0 643.0 700.0Q627.0 707.0 610.0 711.0Q593.0 715.0 575.5 711.0Q558.0 707.0 541.0 706.0Q524.0 705.0 506.0 703.5Q488.0 702.0 473.0 693.0Q458.0 684.0 443.5 674.5Q429.0 665.0 412.5 658.0Q396.0 651.0 384.0 638.5Q372.0 626.0 363.5 610.5Q355.0 595.0 343.0 582.0Q331.0 569.0 322.5 554.0Q314.0 539.0 312.0 521.0Q310.0 503.0 306.0 486.5Q302.0 470.0 297.5 452.5Q293.0 435.0 297.0 417.5Q301.0 400.0 305.5 383.5Q310.0 367.0 311.5 349.0Q313.0 331.0 321.5 315.5Q330.0 300.0 342.0 287.0Q354.0 274.0 363.0 259.0Q372.0 244.0 383.5 231.0Q395.0 218.0 411.5 210.5Q428.0 203.0 442.5 194.0Q457.0 185.0 472.5 175.5Q488.0 166.0 505.5 164.0Q523.0 162.0 540.5 161.5Q558.0 161.0 575.5 157.0Q593.0 153.0 610.5 156.0Q628.0 159.0 644.0 166.5Q660.0 174.0 677.0 178.0Q694.0 182.0 710.5 189.0Q727.0 196.0 739.0 209.0Q751.0 222.0 764.0 233.5Q777.0 245.0 791.0 256.5Q805.0 268.0 812.0 284.5Q819.0 301.0 825.0 317.5Q831.0 334.0 840.0 349.5Q849.0 365.0 852.0 382.5Q855.0 400.0 852.5 417.5Q850.0 435.0 852.0 452.5Q854.0 470.0 852.0 488.0Q850.0 506.0 841.0 521.5Q832.0 537.0 825.5 553.0Q819.0 569.0 812.5 586.0Q806.0 603.0 792.5 614.5Q779.0 626.0 765.0 637.0Q751.0 648.0 739.0 661.5Q727.0 675.0 711.0 683.0Q695.0 691.0 677.5 694.5Q660.0 698.0 644.0 705.0Q628.0 712.0 610.5 716.0Q593.0 720.0 575.5 716.0Q558.0 712.0 540.5 711.0Q523.0 710.0 505.0 708.5Q487.0 707.0 471.5 698.0Q456.0 689.0 441.0 679.0Q426.0 669.0 409.5 662.0Q393.0 655.0 380.5 642.0Q368.0 629.0 359.5 613.5Q351.0 598.0 339.0 584.5Q327.0 571.0 318.0 555.5Q309.0 540.0 307.0 522.0Q305.0 504.0 301.0 487.0Q297.0 470.0 292.5 452.5Q288.0 435.0 292.0 417.5Q296.0 400.0 300.5 383.0Q305.0 366.0 307.0 348.0Q309.0 330.0 317.0 314.0Q325.0 298.0 337.5 284.5Q350.0 271.0 359.0 256.0Q368.0 241.0 380.0 227.5Q392.0 214.0 408.5 206.5Q425.0 199.0 440.0 189.5Q455.0 180.0 470.5 170.5Q486.0 161.0 504.0 159.0Q522.0 157.0 539.5 156.5Q557.0 156.0 575.0 152.0Q593.0 148.0 611.0 151.0Q629.0 154.0 645.0 161.5Q661.0 169.0 678.5 173.0Q696.0 177.0 712.5 184.5Q729.0 192.0 741.5 205.5Q754.0 219.0 767.5 230.5Q781.0 242.0 795.0 253.5Q809.0 265.0 816.5 281.5Q824.0 298.0 830.0 315.0Q836.0 332.0 845.0 347.5Q854.0 363.0 857.0 381.0Q860.0 399.0 857.5 417.0Q855.0 435.0 857.0 453.0Q859.0 471.0 857.0 489.0Q855.0 507.0 846.0 523.0Q837.0 539.0 830.0 555.5Q823.0 572.0 816.5 589.0Q810.0 606.0 796.0 618.0Q782.0 630.0 768.0 641.0Q754.0 652.0 742.0 665.5Q730.0 679.0 714.0 687.0Q698.0 695.0 680.0 698.5Q662.0 702.0 645.5 709.5Q629.0 717.0 611.0 721.0Q593.0 725.0 575.0 721.0Q557.0 717.0 539.5 715.5Q522.0 714.0 503.5 713.0Q485.0 712.0 469.0 702.5Q453.0 693.0 438.5 683.5Q424.0 674.0 407.0 666.5Q390.0 659.0 377.0 646.0Q364.0 633.0 355.5 617.0Q347.0 601.0 335.0 587.5Q323.0 574.0 313.5 558.0Q304.0 542.0 302.0 524.0Q300.0 506.0 296.0 488.5Q292.0 471.0 287.5 453.0Q283.0 435.0 287.0 417.0Q291.0 399.0 295.5 381.5Q300.0 364.0 302.0 346.0Q304.0 328.0 312.5 311.5Q321.0 295.0 333.5 282.0Q346.0 269.0 355.0 253.0Q364.0 237.0 376.5 223.5Q389.0 210.0 405.5 202.5Q422.0 195.0 437.5 185.5Q453.0 176.0 468.5 166.0Q484.0 156.0 502.5 154.0Q521.0 152.0 539.0 151.5Q557.0 151.0 575.0 147.0Q593.0 143.0 611.5 146.0Q630.0 149.0 646.5 157.0Q663.0 165.0 681.0 169.0Q699.0 173.0 715.5 180.0Q732.0 187.0 744.5 201.0Q757.0 215.0 771.0 226.5Q785.0 238.0 799.0 250.0Q813.0 262.0 820.5 279.0Q828.0 296.0 834.0 313.0Q840.0 330.0 849.5 346.0Q859.0 362.0 862.0 380.0Q865.0 398.0 862.5 416.5Q860.0 435.0 862.0 453.0Q864.0 471.0 862.0 489.5Q860.0 508.0 851.0 524.5Q842.0 541.0 835.0 557.5Q828.0 574.0 821.0 591.5Q814.0 609.0 800.0 621.0Q786.0 633.0 772.0 644.5Q758.0 656.0 745.5 670.0Q733.0 684.0 716.5 692.0Q700.0 700.0 681.5 703.5Q663.0 707.0 646.5 714.5Q630.0 722.0 612.0 726.0Q594.0 730.0 575.5 726.0Q557.0 722.0 539.0 720.5Q521.0 719.0 502.0 718.0Q483.0 717.0 467.0 707.5Q451.0 698.0 436.0 688.0Q421.0 678.0 404.0 670.5Q387.0 663.0 374.0 649.5Q361.0 636.0 352.0 620.0Q343.0 604.0 330.5 590.0Q318.0 576.0 308.5 560.0Q299.0 544.0 297.0 525.5Q295.0 507.0 291.0 489.0Q287.0 471.0 282.5 453.0Q278.0 435.0 282.0 416.5Q286.0 398.0 291.0 380.5Q296.0 363.0 297.5 344.5Q299.0 326.0 308.0 309.5Q317.0 293.0 329.5 279.5Q342.0 266.0 351.5 250.0Q361.0 234.0 373.0 220.0Q385.0 206.0 402.5 198.0Q420.0 190.0 435.5 180.5Q451.0 171.0 467.0 161.0Q483.0 151.0 501.5 149.5Q520.0 148.0 538.5 147.0Q557.0 146.0 575.5 142.0Q594.0 138.0 612.0 141.0Q630.0 144.0 647.0 152.0Q664.0 160.0 682.5 164.0Q701.0 168.0 718.0 175.5Q735.0 183.0 747.5 197.0Q760.0 211.0 774.0 223.0Q788.0 235.0 802.5 247.0Q817.0 259.0 824.5 276.5Q832.0 294.0 838.5 311.0Q845.0 328.0 854.5 344.5Q864.0 361.0 867.0 379.5Q870.0 398.0 867.5 416.5Q865.0 435.0 867.0 453.5Q869.0 472.0 867.0 490.5Q865.0 509.0 855.5 525.5Q846.0 542.0 839.0 559.0Q832.0 576.0 825.0 594.0Q818.0 612.0 804.0 624.5Q790.0 637.0 775.5 648.5Q761.0 660.0 748.0 674.0Q735.0 688.0 718.5 696.5Q702.0 705.0 683.5 708.5Q665.0 712.0 648.0 719.5Q631.0 727.0 612.5 731.0Q594.0 735.0 575.5 731.0Q557.0 727.0 538.5 725.5Q520.0 724.0 501.0 723.0Q482.0 722.0 465.5 712.0Q449.0 702.0 433.5 692.0Q418.0 682.0 400.5 674.5Q383.0 667.0 370.0 653.5Q357.0 640.0 348.0 623.5Q339.0 607.0 326.5 593.0Q314.0 579.0 304.5 562.5Q295.0 546.0 293.0 527.0Q291.0 508.0 286.5 490.0Q282.0 472.0 277.5 453.5Q273.0 435.0 277.0 416.5Q281.0 398.0 286.0 380.0Q291.0 362.0 293.0 343.0Q295.0 324.0 303.5 307.5Q312.0 291.0 325.0 277.0Q338.0 263.0 347.5 246.5Q357.0 230.0 369.5 216.0Q382.0 202.0 399.5 194.0Q417.0 186.0 433.0 176.5Q449.0 167.0 465.0 156.5Q481.0 146.0 500.0 144.5Q519.0 143.0 538.0 142.0Q557.0 141.0 575.5 137.0Q594.0 133.0 612.5 136.0Q631.0 139.0 648.5 147.0Q666.0 155.0 684.5 159.0Q703.0 163.0 720.5 171.0Q738.0 179.0 750.5 193.0Q763.0 207.0 777.5 219.0Q792.0 231.0 806.5 243.5Q821.0 256.0 829.0 273.5Q837.0 291.0 843.5 308.5Q850.0 326.0 859.5 343.0Q869.0 360.0 872.0 378.5Q875.0 397.0 872.5 416.0Q870.0 435.0 872.0 454.0Q874.0 473.0 872.0 492.0Q870.0 511.0 860.5 527.5Q851.0 544.0 843.5 561.5Q836.0 579.0 829.0 597.0Q822.0 615.0 807.5 627.5Q793.0 640.0 778.5 651.5Q764.0 663.0 751.0 677.5Q738.0 692.0 721.0 700.5Q704.0 709.0 685.0 712.5Q666.0 716.0 649.0 724.0Q632.0 732.0 613.0 736.0Q594.0 740.0 575.0 736.0Q556.0 732.0 537.5 730.5Q519.0 729.0 499.5 728.0Q480.0 727.0 463.5 717.0Q447.0 707.0 431.5 696.5Q416.0 686.0 398.0 678.0Q380.0 670.0 366.5 656.5Q353.0 643.0 344.0 626.5Q335.0 610.0 322.0 595.5Q309.0 581.0 299.5 564.5Q290.0 548.0 288.0 528.5Q286.0 509.0 281.5 491.0Q277.0 473.0 272.0 454.0Q267.0 435.0 271.5 416.0Q276.0 397.0 281.0 379.0Q286.0 361.0 288.0 341.5Q290.0 322.0 299.0 305.0Q308.0 288.0 321.0 274.0Q334.0 260.0 343.5 243.5Q353.0 227.0 366.0 212.5Q379.0 198.0 397.0 190.0Q415.0 182.0 431.0 172.0Q447.0 162.0 463.5 152.0Q480.0 142.0 499.0 140.0Q518.0 138.0 537.0 137.0Q556.0 136.0 575.0 132.0Q594.0 128.0 613.0 131.0Q632.0 134.0 649.5 142.5Q667.0 151.0 686.0 155.0Q705.0 159.0 722.5 166.5Q740.0 174.0 753.5 188.5Q767.0 203.0 781.0 215.5Q795.0 228.0 810.0 240.5Q825.0 253.0 833.0 271.0Q841.0 289.0 847.5 306.5Q854.0 324.0 864.0 341.0Q874.0 358.0 877.0 377.5Q880.0 397.0 877.5 416.0Q875.0 435.0 877.0 454.0Q879.0 473.0 877.0 492.5Q875.0 512.0 865.0 529.0Q855.0 546.0 848.0 563.5Q841.0 581.0 833.5 599.5Q826.0 618.0 811.5 630.5Q797.0 643.0 782.0 655.0Q767.0 667.0 754.0 681.5Q741.0 696.0 723.5 705.0Q706.0 714.0 687.0 717.5Q668.0 721.0 650.5 729.0Q633.0 737.0 614.0 741.0Q595.0 745.0 575.5 741.0Q556.0 737.0 537.0 735.5Q518.0 734.0 498.5 732.5Q479.0 731.0 462.0 721.0Q445.0 711.0 429.0 700.5Q413.0 690.0 395.0 682.0Q377.0 674.0 363.5 660.5Q350.0 647.0 340.5 629.5Q331.0 612.0 318.0 597.5Q305.0 583.0 295.0 566.5Q285.0 550.0 283.0 530.0Q281.0 510.0 276.5 491.5Q272.0 473.0 267.0 454.0Q262.0 435.0 266.5 416.0Q271.0 397.0 276.0 378.5Q281.0 360.0 283.0 340.0Q285.0 320.0 294.0 303.0Q303.0 286.0 316.5 271.5Q330.0 257.0 340.0 240.0Q350.0 223.0 363.0 208.5Q376.0 194.0 394.0 186.0Q412.0 178.0 428.5 168.0Q445.0 158.0 461.5 147.5Q478.0 137.0 497.5 135.0Q517.0 133.0 536.5 132.0Q556.0 131.0 575.5 127.0Q595.0 123.0 614.0 126.0Q633.0 129.0 651.0 137.5Q669.0 146.0 688.0 150.0Q707.0 154.0 725.0 162.0Q743.0 170.0 756.5 185.0Q770.0 200.0 784.5 212.5Q799.0 225.0 814.5 237.5Q830.0 250.0 837.5 268.0Q845.0 286.0 852.0 304.5Q859.0 323.0 869.0 340.0Q879.0 357.0 882.0 376.5Q885.0 396.0 882.5 415.5Q880.0 435.0 882.0 454.5Q884.0 474.0 882.0 493.5Q880.0 513.0 870.0 530.5Q860.0 548.0 852.5 566.0Q845.0 584.0 837.5 602.5Q830.0 621.0 815.5 634.0Q801.0 647.0 785.5 659.0Q770.0 671.0 757.0 686.0Q744.0 701.0 726.0 709.5Q708.0 718.0 689.0 722.0Q670.0 726.0 651.5 734.0Q633.0 742.0 614.0 746.0Q595.0 750.0 575.5 746.0Q556.0 742.0 536.5 740.5Q517.0 739.0 497.0 737.5Q477.0 736.0 460.0 726.0Q443.0 716.0 426.5 705.0Q410.0 694.0 392.0 686.0Q374.0 678.0 360.0 664.0Q346.0 650.0 336.5 632.5Q327.0 615.0 314.0 600.5Q301.0 586.0 291.0 569.0Q281.0 552.0 278.5 532.0Q276.0 512.0 271.5 493.0Q267.0 474.0 262.0 454.5Q257.0 435.0 261.5 415.5Q266.0 396.0 271.5 377.0Q277.0 358.0 279.0 338.0Q281.0 318.0 290.0 300.5Q299.0 283.0 312.5 268.5Q326.0 254.0 336.0 237.0Q346.0 220.0 359.0 205.0Q372.0 190.0 390.5 182.0Q409.0 174.0 425.5 163.5Q442.0 153.0 459.5 142.5Q477.0 132.0 496.5 130.0Q516.0 128.0 536.0 127.0Q556.0 126.0 575.5 122.0Q595.0 118.0 614.5 121.5Q634.0 125.0 652.0 133.0Q670.0 141.0 689.5 145.5Q709.0 150.0 727.5 158.0Q746.0 166.0 759.5 181.0Q773.0 196.0 788.0 208.5Q803.0 221.0 818.5 234.0Q834.0 247.0 842.0 265.5Q850.0 284.0 856.5 302.5Q863.0 321.0 873.5 338.5Q884.0 356.0 887.0 375.5Q890.0 395.0 887.5 415.0Q885.0 435.0 887.0 455.0Q889.0 475.0 887.0 495.0Q885.0 515.0 875.0 532.5Q865.0 550.0 857.0 568.0Q849.0 586.0 841.5 605.0Q834.0 624.0 819.0 637.0Q804.0 650.0 788.5 662.5Q773.0 675.0 759.5 690.0Q746.0 705.0 728.0 714.0Q710.0 723.0 690.5 727.0Q671.0 731.0 652.5 739.0Q634.0 747.0 614.5 751.0Q595.0 755.0 575.0 751.0Q555.0 747.0 535.5 745.5Q516.0 744.0 496.0 742.5Q476.0 741.0 458.5 730.5Q441.0 720.0 424.5 709.5Q408.0 699.0 389.5 690.5Q371.0 682.0 356.5 667.5Q342.0 653.0 332.5 635.5Q323.0 618.0 309.5 603.0Q296.0 588.0 286.0 570.5Q276.0 553.0 273.5 533.0Q271.0 513.0 266.5 494.0Q262.0 475.0 257.0 455.0Q252.0 435.0 256.5 415.0Q261.0 395.0 266.5 376.0Q272.0 357.0 274.0 337.0Q276.0 317.0 285.5 299.0Q295.0 281.0 308.5 266.0Q322.0 251.0 332.0 233.5Q342.0 216.0 355.5 201.0Q369.0 186.0 388.0 178.0Q407.0 170.0 423.5 159.5Q440.0 149.0 457.5 138.0Q475.0 127.0 495.5 125.0Q516.0 123.0 535.5 122.5Q555.0 122.0 575.0 117.5Q595.0 113.0 615.0 116.5Q635.0 120.0 653.5 128.5Q672.0 137.0 691.5 141.0Q711.0 145.0 730.0 153.5Q749.0 162.0 762.5 177.0Q776.0 192.0 791.0 205.0Q806.0 218.0 822.0 231.0Q838.0 244.0 846.0 263.0Q854.0 282.0 861.0 300.5Q868.0 319.0 878.5 336.5Q889.0 354.0 892.0 374.5Q895.0 395.0 892.5 415.0Q890.0 435.0 892.0 455.0Q894.0 475.0 892.0 495.5Q890.0 516.0 879.5 533.5Q869.0 551.0 861.5 569.5Q854.0 588.0 846.5 607.5Q839.0 627.0 823.5 640.5Q808.0 654.0 792.0 666.5Q776.0 679.0 762.5 694.0Q749.0 709.0 731.0 718.0Q713.0 727.0 693.0 731.0Q673.0 735.0 654.0 743.5Q635.0 752.0 615.0 756.0Q595.0 760.0 575.0 756.0Q555.0 752.0 535.0 750.5Q515.0 749.0 494.5 747.5Q474.0 746.0 456.5 735.5Q439.0 725.0 422.0 714.0Q405.0 703.0 386.0 694.5Q367.0 686.0 353.0 671.5Q339.0 657.0 329.0 639.0Q319.0 621.0 305.5 606.0Q292.0 591.0 281.5 573.0Q271.0 555.0 269.0 534.5Q267.0 514.0 262.0 494.5Q257.0 475.0 252.0 455.0Q247.0 435.0 251.5 415.0Q256.0 395.0 261.5 375.5Q267.0 356.0 269.0 335.5Q271.0 315.0 280.5 296.5Q290.0 278.0 304.0 263.0Q318.0 248.0 328.5 230.5Q339.0 213.0 352.5 197.5Q366.0 182.0 385.0 173.5Q404.0 165.0 421.0 154.5Q438.0 144.0 455.5 133.0Q473.0 122.0 494.0 120.0Q515.0 118.0 535.0 117.5Q555.0 117.0 575.5 112.5Q596.0 108.0 616.0 111.5Q636.0 115.0 654.5 123.5Q673.0 132.0 693.0 136.5Q713.0 141.0 732.0 149.0Q751.0 157.0 765.0 172.5Q779.0 188.0 794.5 201.0Q810.0 214.0 826.0 227.5Q842.0 241.0 850.0 260.0Q858.0 279.0 865.5 298.0Q873.0 317.0 883.5 335.0Q894.0 353.0 897.0 373.5Q900.0 394.0 897.5 414.5Q895.0 435.0 897.0 455.5Q899.0 476.0 897.0 496.5Q895.0 517.0 884.5 535.0Q874.0 553.0 866.0 572.0Q858.0 591.0 850.5 610.5Q843.0 630.0 827.5 643.5Q812.0 657.0 796.0 669.5Q780.0 682.0 766.0 698.0Q752.0 714.0 733.5 723.0Q715.0 732.0 694.5 736.0Q674.0 740.0 655.0 748.0Q636.0 756.0 616.0 760.5Q596.0 765.0 575.5 761.0Q555.0 757.0 534.5 755.0Q514.0 753.0 493.0 752.0Q472.0 751.0 454.0 740.0Q436.0 729.0 419.0 718.0Q402.0 707.0 383.0 698.5Q364.0 690.0 349.5 675.0Q335.0 660.0 325.0 642.0Q315.0 624.0 301.0 608.5Q287.0 593.0 276.5 575.0Q266.0 557.0 264.0 536.0Q262.0 515.0 257.0 495.5Q252.0 476.0 247.0 455.5Q242.0 435.0 246.5 414.5Q251.0 394.0 256.5 374.5Q262.0 355.0 264.0 334.0Q266.0 313.0 276.0 294.5Q286.0 276.0 300.0 260.5Q314.0 245.0 324.5 227.5Q335.0 210.0 349.0 194.0Q363.0 178.0 382.0 169.5Q401.0 161.0 418.5 150.5Q436.0 140.0 454.0 128.5Q472.0 117.0 493.0 115.0Q514.0 113.0 534.5 112.5Q555.0 112.0 575.5 107.5Q596.0 103.0 616.5 106.5Q637.0 110.0 656.0 118.5Q675.0 127.0 695.5 131.5Q716.0 136.0 735.0 144.5Q754.0 153.0 768.0 168.5Q782.0 184.0 797.5 197.5Q813.0 211.0 829.5 224.5Q846.0 238.0 854.5 257.5Q863.0 277.0 870.0 296.0Q877.0 315.0 887.5 333.5Q898.0 352.0 901.5 372.5Q905.0 393.0 902.5 414.0Q900.0 435.0 902.0 456.0Q904.0 477.0 901.5 497.5Q899.0 518.0 888.5 536.5Q878.0 555.0 870.5 574.0Q863.0 593.0 855.0 613.0Q847.0 633.0 831.0 647.0Q815.0 661.0 799.0 673.5Q783.0 686.0 768.5 702.0Q754.0 718.0 735.5 727.0Q717.0 736.0 696.5 740.5Q676.0 745.0 656.5 753.0Q637.0 761.0 616.5 765.5Q596.0 770.0 575.0 766.0Q554.0 762.0 533.5 760.0Q513.0 758.0 492.0 757.0Q471.0 756.0 452.5 745.0Q434.0 734.0 417.0 722.5Q400.0 711.0 380.5 702.5Q361.0 694.0 346.0 679.0Q331.0 664.0 321.0 645.5Q311.0 627.0 297.0 611.5Q283.0 596.0 272.5 577.5Q262.0 559.0 259.5 538.0Q257.0 517.0 252.0 496.5Q247.0 476.0 242.0 455.5Q237.0 435.0 241.5 414.0Q246.0 393.0 251.5 373.0Q257.0 353.0 259.5 332.0Q262.0 311.0 271.5 292.5Q281.0 274.0 295.5 258.5Q310.0 243.0 320.5 224.5Q331.0 206.0 345.5 190.5Q360.0 175.0 379.5 166.0Q399.0 157.0 416.5 146.0Q434.0 135.0 452.0 124.0Q470.0 113.0 491.5 110.5Q513.0 108.0 533.5 107.5Q554.0 107.0 575.0 102.5Q596.0 98.0 617.0 101.5Q638.0 105.0 657.0 114.0Q676.0 123.0 697.0 127.5Q718.0 132.0 737.5 140.5Q757.0 149.0 771.0 165.0Q785.0 181.0 801.0 194.5Q817.0 208.0 833.5 221.5Q850.0 235.0 858.5 254.5Q867.0 274.0 874.5 294.0Q882.0 314.0 892.5 332.5Q903.0 351.0 906.5 372.0Q910.0 393.0 907.0 414.0Q904.0 435.0 906.5 456.0Q909.0 477.0 906.5 498.5Q904.0 520.0 893.5 538.5Q883.0 557.0 875.0 576.0Q867.0 595.0 859.0 615.0Q851.0 635.0 835.0 649.5Q819.0 664.0 802.5 677.0Q786.0 690.0 771.5 706.0Q757.0 722.0 738.0 731.5Q719.0 741.0 698.0 745.0Q677.0 749.0 657.5 757.5Q638.0 766.0 617.0 770.5Q596.0 775.0 575.0 770.5Q554.0 766.0 533.0 764.5Q512.0 763.0 490.5 761.5Q469.0 760.0 450.5 749.5Q432.0 739.0 414.5 727.0Q397.0 715.0 377.5 706.5Q358.0 698.0 343.0 682.5Q328.0 667.0 317.5 648.5Q307.0 630.0 293.0 614.0Q279.0 598.0 268.0 579.5Q257.0 561.0 254.5 539.5Q252.0 518.0 247.5 497.5Q243.0 477.0 237.5 456.0Q232.0 435.0 236.5 414.0Q241.0 393.0 247.0 372.5Q253.0 352.0 255.0 330.5Q257.0 309.0 267.0 290.0Q277.0 271.0 291.5 255.5Q306.0 240.0 317.0 221.5Q328.0 203.0 342.0 187.0Q356.0 171.0 376.0 162.0Q396.0 153.0 414.0 142.0Q432.0 131.0 450.5 119.5Q469.0 108.0 490.5 106.0Q512.0 104.0 533.0 103.0Q554.0 102.0 575.5 97.5Q597.0 93.0 618.0 96.5Q639.0 100.0 658.5 109.0Q678.0 118.0 699.0 122.5Q720.0 127.0 739.5 135.5Q759.0 144.0 774.0 160.5Q789.0 177.0 805.0 190.5Q821.0 204.0 837.5 218.0Q854.0 232.0 863.0 252.0Q872.0 272.0 879.0 292.0Q886.0 312.0 897.0 330.5Q908.0 349.0 911.5 370.5Q915.0 392.0 912.0 413.5Q909.0 435.0 911.5 456.5Q914.0 478.0 911.5 499.5Q909.0 521.0 898.0 540.0Q887.0 559.0 879.0 578.5Q871.0 598.0 863.0 618.0Q855.0 638.0 838.5 652.5Q822.0 667.0 805.5 680.5Q789.0 694.0 774.5 710.0Q760.0 726.0 740.5 736.0Q721.0 746.0 700.0 750.0Q679.0 754.0 659.0 762.5Q639.0 771.0 618.0 775.5Q597.0 780.0 575.5 775.5Q554.0 771.0 532.5 769.5Q511.0 768.0 489.5 766.5Q468.0 765.0 449.0 754.0Q430.0 743.0 412.5 731.0Q395.0 719.0 374.5 710.5Q354.0 702.0 339.0 686.5Q324.0 671.0 313.5 652.0Q303.0 633.0 288.5 616.5Q274.0 600.0 263.0 581.5Q252.0 563.0 250.0 541.0Q248.0 519.0 243.0 498.5Q238.0 478.0 232.5 456.5Q227.0 435.0 231.5 413.5Q236.0 392.0 242.0 371.5Q248.0 351.0 250.0 329.0Q252.0 307.0 262.0 288.0Q272.0 269.0 287.0 253.0Q302.0 237.0 313.0 218.0Q324.0 199.0 338.5 183.0Q353.0 167.0 373.0 158.0Q393.0 149.0 411.5 137.5Q430.0 126.0 448.5 114.5Q467.0 103.0 489.0 101.0Q511.0 99.0 532.5 98.0Q554.0 97.0 575.5 92.5Q597.0 88.0 618.5 91.5Q640.0 95.0 660.0 104.0Q680.0 113.0 701.0 118.0Q722.0 123.0 742.0 131.5Q762.0 140.0 777.0 156.5Q792.0 173.0 808.0 187.0Q824.0 201.0 841.0 215.0Q858.0 229.0 867.0 249.5Q876.0 270.0 883.5 290.0Q891.0 310.0 902.0 329.0Q913.0 348.0 916.5 369.5Q920.0 391.0 917.0 413.0Q914.0 435.0 916.5 456.5Q919.0 478.0 916.5 500.0Q914.0 522.0 903.0 541.5Q892.0 561.0 884.0 580.5Q876.0 600.0 867.5 620.5Q859.0 641.0 842.5 656.0Q826.0 671.0 809.0 684.0Q792.0 697.0 777.5 714.0Q763.0 731.0 743.0 740.5Q723.0 750.0 701.5 754.5Q680.0 759.0 660.0 767.5Q640.0 776.0 618.5 781.0Q597.0 786.0 575.5 781.0Q554.0 776.0 532.5 774.5Q511.0 773.0 488.5 771.5Q466.0 770.0 447.0 759.0Q428.0 748.0 410.0 735.5Q392.0 723.0 371.5 714.5Q351.0 706.0 335.5 690.0Q320.0 674.0 309.5 655.0Q299.0 636.0 284.5 619.5Q270.0 603.0 258.5 584.0Q247.0 565.0 245.0 542.5Q243.0 520.0 238.0 499.0Q233.0 478.0 227.5 456.5Q222.0 435.0 226.5 413.5Q231.0 392.0 237.0 371.0Q243.0 350.0 245.5 327.5Q248.0 305.0 258.0 285.5Q268.0 266.0 283.0 250.0Q298.0 234.0 309.0 215.0Q320.0 196.0 335.0 179.5Q350.0 163.0 370.5 154.0Q391.0 145.0 409.5 133.5Q428.0 122.0 447.0 110.0Q466.0 98.0 488.0 96.0Q510.0 94.0 531.5 93.0Q553.0 92.0 575.0 87.5Q597.0 83.0 619.0 86.5Q641.0 90.0 661.0 99.5Q681.0 109.0 702.5 113.5Q724.0 118.0 744.5 127.0Q765.0 136.0 780.0 152.5Q795.0 169.0 811.5 183.0Q828.0 197.0 845.0 211.5Q862.0 226.0 871.0 246.5Q880.0 267.0 887.5 287.5Q895.0 308.0 906.5 327.5Q918.0 347.0 921.5 369.0Q925.0 391.0 922.0 413.0Q919.0 435.0 921.5 457.0Q924.0 479.0 921.5 501.0Q919.0 523.0 908.0 542.5Q897.0 562.0 888.5 582.5Q880.0 603.0 871.5 623.5Q863.0 644.0 846.5 659.0Q830.0 674.0 812.5 687.5Q795.0 701.0 780.0 718.0Q765.0 735.0 745.0 745.0Q725.0 755.0 703.5 759.0Q682.0 763.0 661.5 772.0Q641.0 781.0 619.0 786.0Q597.0 791.0 575.0 786.0Q553.0 781.0 531.5 779.5Q510.0 778.0 487.5 776.5Q465.0 775.0 445.5 763.5Q426.0 752.0 407.5 740.0Q389.0 728.0 368.5 718.5Q348.0 709.0 332.5 693.5Q317.0 678.0 306.0 658.0Q295.0 638.0 280.0 621.5Q265.0 605.0 254.0 586.0Q243.0 567.0 240.5 544.5Q238.0 522.0 233.0 500.5Q228.0 479.0 222.5 457.0Q217.0 435.0 221.5 413.0Q226.0 391.0 232.0 370.0Q238.0 349.0 240.5 326.5Q243.0 304.0 253.5 284.0Q264.0 264.0 279.0 247.5Q294.0 231.0 305.5 211.5Q317.0 192.0 332.0 175.5Q347.0 159.0 367.5 149.5Q388.0 140.0 407.0 128.5Q426.0 117.0 445.0 105.0Q464.0 93.0 486.5 91.0Q509.0 89.0 531.0 88.0Q553.0 87.0 575.0 82.5Q597.0 78.0 619.5 81.5Q642.0 85.0 662.5 94.5Q683.0 104.0 704.5 108.5Q726.0 113.0 747.0 122.5Q768.0 132.0 783.0 148.5Q798.0 165.0 815.0 179.5Q832.0 194.0 849.5 208.5Q867.0 223.0 876.0 244.0Q885.0 265.0 892.5 285.5Q900.0 306.0 911.5 326.0Q923.0 346.0 926.5 368.0Q930.0 390.0 927.0 412.5Q924.0 435.0 926.5 457.5Q929.0 480.0 926.5 502.5Q924.0 525.0 912.5 544.5Q901.0 564.0 892.5 584.5Q884.0 605.0 875.5 626.0Q867.0 647.0 850.0 662.5Q833.0 678.0 815.5 691.5Q798.0 705.0 783.0 722.0Q768.0 739.0 748.0 749.0Q728.0 759.0 705.5 763.5Q683.0 768.0 662.5 777.0Q642.0 786.0 620.0 791.0Q598.0 796.0 575.5 791.0Q553.0 786.0 531.0 784.5Q509.0 783.0 486.0 781.5Q463.0 780.0 443.5 768.5Q424.0 757.0 405.5 744.5Q387.0 732.0 366.0 722.5Q345.0 713.0 329.0 697.0Q313.0 681.0 302.0 661.0Q291.0 641.0 276.0 624.5Q261.0 608.0 249.5 588.0Q238.0 568.0 235.5 545.5Q233.0 523.0 228.0 501.0Q223.0 479.0 217.5 457.0Q212.0 435.0 216.5 412.5Q221.0 390.0 227.5 368.5Q234.0 347.0 236.0 324.5Q238.0 302.0 248.5 281.5Q259.0 261.0 274.5 244.5Q290.0 228.0 301.5 208.5Q313.0 189.0 328.0 172.0Q343.0 155.0 364.0 145.5Q385.0 136.0 404.0 124.5Q423.0 113.0 442.5 100.5Q462.0 88.0 485.0 86.0Q508.0 84.0 530.5 83.0Q553.0 82.0 575.5 77.0Q598.0 72.0 620.5 76.0Q643.0 80.0 663.5 89.5Q684.0 99.0 706.0 104.0Q728.0 109.0 749.0 118.0Q770.0 127.0 785.5 144.5Q801.0 162.0 818.0 176.5Q835.0 191.0 853.0 205.5Q871.0 220.0 880.0 241.0Q889.0 262.0 897.0 283.5Q905.0 305.0 916.5 324.5Q928.0 344.0 931.5 367.0Q935.0 390.0 932.0 412.5Q929.0 435.0 931.5 457.5Q934.0 480.0 931.5 503.0Q929.0 526.0 917.5 546.0Q906.0 566.0 897.5 586.5Q889.0 607.0 880.5 628.5Q872.0 650.0 854.5 665.5Q837.0 681.0 819.5 695.0Q802.0 709.0 786.5 726.0Q771.0 743.0 750.5 753.5Q730.0 764.0 707.5 768.5Q685.0 773.0 664.0 782.0Q643.0 791.0 620.5 796.0Q598.0 801.0 575.5 796.0Q553.0 791.0 530.5 789.5Q508.0 788.0 484.5 786.5Q461.0 785.0 441.5 773.0Q422.0 761.0 403.0 748.5Q384.0 736.0 363.0 726.5Q342.0 717.0 325.5 700.5Q309.0 684.0 298.0 664.0Q287.0 644.0 272.0 627.0Q257.0 610.0 245.0 590.0Q233.0 570.0 230.5 547.0Q228.0 524.0 223.0 502.0Q218.0 480.0 212.0 457.5Q206.0 435.0 211.5 412.5Q217.0 390.0 223.0 368.0Q229.0 346.0 231.0 323.0Q233.0 300.0 244.0 279.5Q255.0 259.0 270.5 242.0Q286.0 225.0 297.5 205.5Q309.0 186.0 324.5 168.5Q340.0 151.0 361.5 141.5Q383.0 132.0 402.0 120.0Q421.0 108.0 441.0 96.0Q461.0 84.0 484.0 81.5Q507.0 79.0 529.5 78.0Q552.0 77.0 575.0 72.0Q598.0 67.0 621.0 71.0Q644.0 75.0 665.0 85.0Q686.0 95.0 708.5 99.5Q731.0 104.0 752.0 113.5Q773.0 123.0 788.5 140.5Q804.0 158.0 821.5 172.5Q839.0 187.0 857.0 202.0Q875.0 217.0 884.0 238.5Q893.0 260.0 901.0 281.5Q909.0 303.0 921.0 323.0Q933.0 343.0 936.0 366.0Q939.0 389.0 936.5 412.0Q934.0 435.0 936.0 458.0Q938.0 481.0 936.0 504.0Q934.0 527.0 922.0 547.5Q910.0 568.0 901.5 589.0Q893.0 610.0 884.5 631.5Q876.0 653.0 858.5 668.5Q841.0 684.0 823.0 698.5Q805.0 713.0 789.0 730.5Q773.0 748.0 752.5 758.0Q732.0 768.0 709.0 772.5Q686.0 777.0 665.0 786.5Q644.0 796.0 621.0 801.0Q598.0 806.0 575.0 801.0Q552.0 796.0 529.5 794.0Q507.0 792.0 483.5 790.5Q460.0 789.0 439.5 777.5Q419.0 766.0 400.0 753.0Q381.0 740.0 359.5 730.5Q338.0 721.0 322.0 704.5Q306.0 688.0 294.5 667.5Q283.0 647.0 267.5 629.5Q252.0 612.0 240.5 592.0Q229.0 572.0 226.5 548.5Q224.0 525.0 218.5 503.0Q213.0 481.0 207.0 458.0Q201.0 435.0 206.5 412.0Q212.0 389.0 218.0 367.0Q224.0 345.0 226.5 321.5Q229.0 298.0 239.5 277.5Q250.0 257.0 266.0 239.5Q282.0 222.0 294.0 202.0Q306.0 182.0 321.5 164.5Q337.0 147.0 358.5 137.5Q380.0 128.0 399.5 116.0Q419.0 104.0 439.0 91.5Q459.0 79.0 482.5 76.5Q506.0 74.0 529.0 73.0Q552.0 72.0 575.0 67.0Q598.0 62.0 621.5 66.0Q645.0 70.0 666.0 80.0Q687.0 90.0 710.0 95.0Q733.0 100.0 754.5 109.5Q776.0 119.0 791.5 136.5Q807.0 154.0 824.5 169.0Q842.0 184.0 860.5 199.0Q879.0 214.0 888.5 236.0Q898.0 258.0 906.0 279.5Q914.0 301.0 926.0 321.5Q938.0 342.0 941.0 365.0Q944.0 388.0 941.5 411.5Q939.0 435.0 941.0 458.5Q943.0 482.0 941.0 505.0Q939.0 528.0 927.0 549.0Q915.0 570.0 906.0 591.0Q897.0 612.0 888.5 634.0Q880.0 656.0 862.0 672.0Q844.0 688.0 826.0 702.0Q808.0 716.0 792.0 734.0Q776.0 752.0 755.0 762.5Q734.0 773.0 711.0 777.5Q688.0 782.0 666.5 791.5Q645.0 801.0 622.0 806.0Q599.0 811.0 575.5 806.0Q552.0 801.0 529.0 799.0Q506.0 797.0 482.0 795.5Q458.0 794.0 437.5 782.0Q417.0 770.0 398.0 757.0Q379.0 744.0 357.0 734.5Q335.0 725.0 318.5 708.0Q302.0 691.0 290.5 670.5Q279.0 650.0 263.5 632.5Q248.0 615.0 236.0 594.5Q224.0 574.0 221.5 550.0Q219.0 526.0 213.5 503.5Q208.0 481.0 202.0 458.0Q196.0 435.0 201.5 411.5Q207.0 388.0 213.0 366.0Q219.0 344.0 221.5 320.0Q224.0 296.0 235.0 275.0Q246.0 254.0 262.0 236.5Q278.0 219.0 290.0 199.0Q302.0 179.0 318.0 161.0Q334.0 143.0 355.5 133.5Q377.0 124.0 397.0 111.5Q417.0 99.0 437.5 86.5Q458.0 74.0 481.5 71.5Q505.0 69.0 528.5 68.0Q552.0 67.0 575.5 62.0Q599.0 57.0 622.5 61.0Q646.0 65.0 667.5 75.0Q689.0 85.0 712.0 90.0Q735.0 95.0 756.5 104.5Q778.0 114.0 794.5 132.0Q811.0 150.0 828.5 165.0Q846.0 180.0 864.5 195.5Q883.0 211.0 892.5 233.0Q902.0 255.0 910.0 277.0Q918.0 299.0 930.5 320.0Q943.0 341.0 946.0 364.5Q949.0 388.0 946.5 411.5Q944.0 435.0 946.0 458.5Q948.0 482.0 946.0 506.0Q944.0 530.0 932.0 550.5Q920.0 571.0 911.0 593.0Q902.0 615.0 893.0 637.0Q884.0 659.0 866.0 675.0Q848.0 691.0 829.5 705.5Q811.0 720.0 795.0 738.0Q779.0 756.0 757.5 766.5Q736.0 777.0 712.5 782.0Q689.0 787.0 667.5 796.5Q646.0 806.0 622.5 811.0Q599.0 816.0 575.5 811.0Q552.0 806.0 528.5 804.0Q505.0 802.0 481.0 800.5Q457.0 799.0 436.0 787.0Q415.0 775.0 395.5 761.5Q376.0 748.0 354.0 738.5Q332.0 729.0 315.0 712.0Q298.0 695.0 286.5 674.0Q275.0 653.0 259.0 635.0Q243.0 617.0 231.0 596.5Q219.0 576.0 216.5 552.0Q214.0 528.0 208.5 505.0Q203.0 482.0 197.0 458.5Q191.0 435.0 196.5 411.5Q202.0 388.0 208.0 365.0Q214.0 342.0 216.5 318.0Q219.0 294.0 230.5 273.0Q242.0 252.0 258.0 234.5Q274.0 217.0 286.0 196.0Q298.0 175.0 314.0 157.0Q330.0 139.0 352.5 129.5Q375.0 120.0 395.0 107.5Q415.0 95.0 435.5 82.0Q456.0 69.0 480.0 66.5Q504.0 64.0 528.0 63.5Q552.0 63.0 575.5 57.5Q599.0 52.0 622.5 56.0Q646.0 60.0 668.0 70.5Q690.0 81.0 713.5 86.0Q737.0 91.0 759.0 100.5Q781.0 110.0 797.5 128.0Q814.0 146.0 832.0 161.5Q850.0 177.0 868.5 192.5Q887.0 208.0 896.5 230.5Q906.0 253.0 914.5 275.0Q923.0 297.0 935.0 318.0Q947.0 339.0 950.5 363.0Q954.0 387.0 951.5 411.0Q949.0 435.0 951.0 459.0Q953.0 483.0 951.0 507.0Q949.0 531.0 936.5 552.0Q924.0 573.0 915.0 595.0Q906.0 617.0 897.0 639.5Q888.0 662.0 869.5 678.5Q851.0 695.0 832.5 709.5Q814.0 724.0 798.0 742.5Q782.0 761.0 760.0 771.5Q738.0 782.0 714.5 786.5Q691.0 791.0 669.0 801.0"/>
  </g>
</svg>
