<svg version="1.1" width="1150" height="870" xmlns="http://www.w3.org/2000/svg">
  <!-- Seed: 3600955436855134434 -->
  <!-- Size: SvgSize.Size9x12 -->
  <!-- Params:
    draw: True
    padding: 0
    spacing: 5
    points_per_step_ring: 50
    bump_range: [RangeFloat] min: 0 max: 0.1
    bump_mult: [RangeInt] min: 2 max: 20
  -->
  <g stroke="black" fill="none">
    <path d="M575.5 435.0Q576.0 435.0 576.0 435.5Q576.0 436.0 575.5 436.0Q575.0 436.0 574.5 436.5Q574.0 437.0 573.5 437.0Q573.0 437.0 572.5 437.0Q572.0 437.0 572.5 436.5Q573.0 436.0 573.5 435.5Q574.0 435.0 573.5 435.0Q573.0 435.0 572.5 434.5Q572.0 434.0 571.5 433.5Q571.0 433.0 571.0 432.5Q571.0 432.0 571.0 431.5Q571.0 431.0 571.5 431.0Q572.0 431.0 572.5 431.5Q573.0 432.0 573.5 432.5Q574.0 433.0 574.5 433.5Q575.0 434.0 575.0 433.5Q575.0 433.0 575.5 432.5Q576.0 432.0 576.5 431.0Q577.0 430.0 578.0 429.5Q579.0 429.0 579.5 429.0Q580.0 429.0 580.5 429.5Q581.0 430.0 581.0 430.5Q581.0 431.0 580.5 431.5Q580.0 432.0 579.5 433.0Q579.0 434.0 578.0 434.0Q577.0 434.0 577.0 434.5Q577.0 435.0 577.5 435.5Q578.0 436.0 579.0 436.5Q580.0 437.0 581.0 438.0Q582.0 439.0 582.5 440.0Q583.0 441.0 582.5 441.5Q582.0 442.0 581.5 442.5Q581.0 443.0 580.0 442.5Q579.0 442.0 578.5 441.5Q578.0 441.0 577.0 440.0Q576.0 439.0 575.5 438.0Q575.0 437.0 574.5 437.5Q574.0 438.0 573.5 439.0Q573.0 440.0 572.0 441.0Q571.0 442.0 570.0 443.0Q569.0 444.0 568.0 444.0Q567.0 444.0 566.5 443.5Q566.0 443.0 566.0 442.5Q566.0 442.0 566.5 440.5Q567.0 439.0 568.0 438.0Q569.0 437.0 570.5 436.5Q572.0 436.0 572.0 435.5Q572.0 435.0 571.0 434.5Q570.0 434.0 568.5 433.0Q567.0 432.0 566.0 431.0Q565.0 430.0 564.5 428.5Q564.0 427.0 564.0 426.0Q564.0 425.0 565.0 424.5Q566.0 424.0 567.5 424.5Q569.0 425.0 570.0 426.0Q571.0 427.0 572.0 428.5Q573.0 430.0 573.5 431.0Q574.0 432.0 575.0 431.5Q576.0 431.0 576.5 429.5Q577.0 428.0 578.5 426.5Q580.0 425.0 581.5 424.0Q583.0 423.0 584.5 422.5Q586.0 422.0 586.5 423.0Q587.0 424.0 587.0 425.0Q587.0 426.0 586.5 427.5Q586.0 429.0 584.5 430.5Q583.0 432.0 581.5 433.0Q580.0 434.0 579.0 434.5Q578.0 435.0 579.5 436.0Q581.0 437.0 583.0 438.0Q585.0 439.0 586.5 440.5Q588.0 442.0 589.0 444.0Q590.0 446.0 589.5 447.0Q589.0 448.0 588.0 448.5Q587.0 449.0 585.0 448.5Q583.0 448.0 581.5 446.5Q580.0 445.0 578.5 443.5Q577.0 442.0 576.0 440.0Q575.0 438.0 574.5 439.0Q574.0 440.0 573.0 442.0Q572.0 444.0 570.5 446.0Q569.0 448.0 567.0 449.5Q565.0 451.0 563.5 451.0Q562.0 451.0 561.0 450.5Q560.0 450.0 560.0 448.0Q560.0 446.0 561.0 444.0Q562.0 442.0 563.5 440.5Q565.0 439.0 567.0 437.5Q569.0 436.0 570.0 435.0Q571.0 434.0 569.0 433.5Q567.0 433.0 565.0 431.5Q563.0 430.0 561.0 428.0Q559.0 426.0 558.0 424.0Q557.0 422.0 557.5 420.5Q558.0 419.0 559.5 418.5Q561.0 418.0 563.0 418.5Q565.0 419.0 567.0 420.5Q569.0 422.0 570.5 424.5Q572.0 427.0 573.0 428.5Q574.0 430.0 574.5 431.0Q575.0 432.0 575.5 430.0Q576.0 428.0 577.5 426.0Q579.0 424.0 580.5 421.5Q582.0 419.0 584.5 417.5Q587.0 416.0 589.0 415.5Q591.0 415.0 592.5 416.0Q594.0 417.0 594.0 419.0Q594.0 421.0 592.5 423.5Q591.0 426.0 589.0 428.0Q587.0 430.0 584.5 431.5Q582.0 433.0 580.5 434.0Q579.0 435.0 579.5 435.5Q580.0 436.0 582.5 436.5Q585.0 437.0 587.5 439.0Q590.0 441.0 592.0 443.5Q594.0 446.0 595.0 448.5Q596.0 451.0 596.0 452.5Q596.0 454.0 594.0 455.0Q592.0 456.0 589.5 455.0Q587.0 454.0 584.5 452.0Q582.0 450.0 580.0 447.5Q578.0 445.0 577.0 442.5Q576.0 440.0 575.5 439.5Q575.0 439.0 574.5 441.0Q574.0 443.0 572.5 445.5Q571.0 448.0 568.5 451.0Q566.0 454.0 563.5 455.5Q561.0 457.0 558.5 457.5Q556.0 458.0 554.5 457.0Q553.0 456.0 553.0 453.5Q553.0 451.0 554.5 448.0Q556.0 445.0 558.5 442.5Q561.0 440.0 564.0 438.5Q567.0 437.0 569.0 436.5Q571.0 436.0 570.0 435.0Q569.0 434.0 566.5 433.0Q564.0 432.0 561.0 430.0Q558.0 428.0 555.5 425.5Q553.0 423.0 551.5 420.0Q550.0 417.0 550.5 415.0Q551.0 413.0 553.0 412.0Q555.0 411.0 558.0 412.0Q561.0 413.0 564.0 415.0Q567.0 417.0 569.0 420.0Q571.0 423.0 572.5 426.0Q574.0 429.0 574.5 430.0Q575.0 431.0 575.0 430.5Q575.0 430.0 576.0 428.0Q577.0 426.0 578.5 423.0Q580.0 420.0 582.5 416.5Q585.0 413.0 588.0 411.0Q591.0 409.0 594.0 408.5Q597.0 408.0 598.5 409.5Q600.0 411.0 600.0 414.0Q600.0 417.0 598.5 420.0Q597.0 423.0 594.0 426.0Q591.0 429.0 587.5 431.0Q584.0 433.0 583.0 434.5Q582.0 436.0 585.0 437.0Q588.0 438.0 591.5 440.5Q595.0 443.0 598.0 446.0Q601.0 449.0 602.0 452.5Q603.0 456.0 602.5 458.5Q602.0 461.0 600.0 461.5Q598.0 462.0 594.5 461.0Q591.0 460.0 587.5 457.5Q584.0 455.0 581.5 451.5Q579.0 448.0 577.5 445.0Q576.0 442.0 575.5 441.0Q575.0 440.0 574.0 442.5Q573.0 445.0 571.0 448.5Q569.0 452.0 566.5 455.5Q564.0 459.0 560.5 461.5Q557.0 464.0 553.5 464.5Q550.0 465.0 548.0 463.5Q546.0 462.0 546.5 459.0Q547.0 456.0 549.0 452.0Q551.0 448.0 554.0 445.0Q557.0 442.0 561.0 440.0Q565.0 438.0 567.5 437.0Q570.0 436.0 570.5 435.5Q571.0 435.0 569.0 434.5Q567.0 434.0 564.0 432.5Q561.0 431.0 557.0 428.5Q553.0 426.0 549.5 422.5Q546.0 419.0 544.5 415.5Q543.0 412.0 544.0 409.0Q545.0 406.0 547.5 405.0Q550.0 404.0 553.5 405.5Q557.0 407.0 560.5 410.0Q564.0 413.0 567.0 416.5Q570.0 420.0 571.5 423.5Q573.0 427.0 574.0 428.0Q575.0 429.0 576.0 426.5Q577.0 424.0 579.0 420.0Q581.0 416.0 584.5 412.0Q588.0 408.0 592.0 405.5Q596.0 403.0 599.5 402.5Q603.0 402.0 605.0 403.5Q607.0 405.0 607.0 408.5Q607.0 412.0 604.5 416.0Q602.0 420.0 598.5 423.5Q595.0 427.0 591.0 429.5Q587.0 432.0 584.0 433.0Q581.0 434.0 580.5 434.5Q580.0 435.0 582.0 435.5Q584.0 436.0 587.5 437.5Q591.0 439.0 595.5 442.0Q600.0 445.0 603.5 449.0Q607.0 453.0 608.5 457.0Q610.0 461.0 609.5 464.0Q609.0 467.0 606.0 468.0Q603.0 469.0 599.0 467.5Q595.0 466.0 591.0 463.0Q587.0 460.0 583.5 455.5Q580.0 451.0 578.5 447.5Q577.0 444.0 576.0 442.5Q575.0 441.0 574.0 444.0Q573.0 447.0 570.5 451.5Q568.0 456.0 564.5 460.5Q561.0 465.0 556.5 468.0Q552.0 471.0 548.5 471.5Q545.0 472.0 542.5 470.0Q540.0 468.0 540.0 464.0Q540.0 460.0 542.5 455.5Q545.0 451.0 549.0 447.5Q553.0 444.0 557.5 441.0Q562.0 438.0 565.0 437.0Q568.0 436.0 569.0 435.5Q570.0 435.0 568.0 434.5Q566.0 434.0 562.0 432.5Q558.0 431.0 553.0 427.5Q548.0 424.0 544.0 420.0Q540.0 416.0 538.0 411.5Q536.0 407.0 537.0 403.5Q538.0 400.0 541.0 399.0Q544.0 398.0 548.5 399.5Q553.0 401.0 557.5 404.5Q562.0 408.0 565.5 412.5Q569.0 417.0 571.0 421.0Q573.0 425.0 574.0 426.5Q575.0 428.0 576.5 424.5Q578.0 421.0 580.5 416.5Q583.0 412.0 586.5 407.0Q590.0 402.0 595.0 399.0Q600.0 396.0 604.0 395.5Q608.0 395.0 610.5 397.0Q613.0 399.0 613.0 403.0Q613.0 407.0 610.5 412.0Q608.0 417.0 603.5 421.5Q599.0 426.0 594.0 428.5Q589.0 431.0 585.5 432.5Q582.0 434.0 581.5 434.5Q581.0 435.0 583.0 435.5Q585.0 436.0 589.5 438.0Q594.0 440.0 599.5 443.5Q605.0 447.0 609.0 451.5Q613.0 456.0 615.0 461.0Q617.0 466.0 616.0 469.5Q615.0 473.0 612.0 474.5Q609.0 476.0 604.0 474.0Q599.0 472.0 594.0 468.0Q589.0 464.0 585.0 459.0Q581.0 454.0 579.0 450.0Q577.0 446.0 576.0 444.5Q575.0 443.0 573.5 446.5Q572.0 450.0 569.5 455.0Q567.0 460.0 562.5 465.5Q558.0 471.0 553.0 474.5Q548.0 478.0 543.5 478.5Q539.0 479.0 536.0 476.5Q533.0 474.0 533.5 469.5Q534.0 465.0 537.0 459.5Q540.0 454.0 545.0 449.5Q550.0 445.0 555.0 442.0Q560.0 439.0 563.5 437.5Q567.0 436.0 568.0 435.5Q569.0 435.0 566.5 434.5Q564.0 434.0 559.0 432.0Q554.0 430.0 548.5 426.0Q543.0 422.0 538.5 417.0Q534.0 412.0 531.5 407.0Q529.0 402.0 530.0 398.0Q531.0 394.0 535.0 392.5Q539.0 391.0 544.0 393.0Q549.0 395.0 554.5 399.0Q560.0 403.0 564.0 408.5Q568.0 414.0 570.5 419.0Q573.0 424.0 574.5 425.5Q576.0 427.0 577.0 423.0Q578.0 419.0 581.0 413.5Q584.0 408.0 588.5 402.5Q593.0 397.0 598.5 393.0Q604.0 389.0 609.0 388.5Q614.0 388.0 617.0 390.5Q620.0 393.0 619.5 398.0Q619.0 403.0 616.0 408.5Q613.0 414.0 607.5 419.0Q602.0 424.0 596.5 427.5Q591.0 431.0 587.5 432.5Q584.0 434.0 583.0 434.5Q582.0 435.0 584.5 436.0Q587.0 437.0 592.0 439.0Q597.0 441.0 603.0 445.0Q609.0 449.0 614.0 454.0Q619.0 459.0 621.5 465.0Q624.0 471.0 623.0 475.0Q622.0 479.0 618.0 480.5Q614.0 482.0 608.5 480.0Q603.0 478.0 597.0 473.5Q591.0 469.0 586.5 463.5Q582.0 458.0 579.5 452.5Q577.0 447.0 576.0 444.5Q575.0 442.0 574.5 443.0Q574.0 444.0 573.0 448.0Q572.0 452.0 568.5 458.0Q565.0 464.0 560.5 470.0Q556.0 476.0 550.0 480.0Q544.0 484.0 538.5 485.0Q533.0 486.0 530.0 483.0Q527.0 480.0 527.0 475.0Q527.0 470.0 530.5 463.5Q534.0 457.0 540.0 452.0Q546.0 447.0 551.5 443.5Q557.0 440.0 561.5 438.0Q566.0 436.0 567.0 435.5Q568.0 435.0 565.0 434.0Q562.0 433.0 556.5 431.0Q551.0 429.0 544.5 424.5Q538.0 420.0 532.5 414.5Q527.0 409.0 524.5 403.0Q522.0 397.0 523.5 392.5Q525.0 388.0 529.0 386.5Q533.0 385.0 539.5 387.0Q546.0 389.0 552.0 393.5Q558.0 398.0 562.5 404.5Q567.0 411.0 569.5 416.5Q572.0 422.0 573.5 424.5Q575.0 427.0 575.5 426.5Q576.0 426.0 577.5 421.5Q579.0 417.0 582.0 410.5Q585.0 404.0 590.5 397.5Q596.0 391.0 602.0 386.5Q608.0 382.0 614.0 381.5Q620.0 381.0 623.0 384.0Q626.0 387.0 626.0 392.5Q626.0 398.0 622.5 404.5Q619.0 411.0 612.5 417.0Q606.0 423.0 600.0 426.5Q594.0 430.0 589.5 432.0Q585.0 434.0 584.0 434.5Q583.0 435.0 586.0 436.0Q589.0 437.0 594.5 439.5Q600.0 442.0 607.0 446.5Q614.0 451.0 620.0 457.0Q626.0 463.0 628.5 469.5Q631.0 476.0 630.0 480.5Q629.0 485.0 624.0 487.0Q619.0 489.0 612.5 487.0Q606.0 485.0 599.5 479.5Q593.0 474.0 588.0 467.5Q583.0 461.0 580.5 455.0Q578.0 449.0 577.0 446.0Q576.0 443.0 575.0 444.0Q574.0 445.0 572.5 450.0Q571.0 455.0 567.5 461.5Q564.0 468.0 558.5 475.0Q553.0 482.0 546.0 486.5Q539.0 491.0 533.0 491.5Q527.0 492.0 523.5 489.0Q520.0 486.0 520.5 480.0Q521.0 474.0 525.0 467.0Q529.0 460.0 535.5 454.0Q542.0 448.0 548.5 444.0Q555.0 440.0 560.0 438.0Q565.0 436.0 566.0 435.5Q567.0 435.0 564.0 434.0Q561.0 433.0 554.5 430.5Q548.0 428.0 540.5 423.0Q533.0 418.0 527.0 411.5Q521.0 405.0 518.5 398.5Q516.0 392.0 517.0 387.0Q518.0 382.0 523.0 380.0Q528.0 378.0 535.0 380.0Q542.0 382.0 549.0 388.0Q556.0 394.0 561.0 401.0Q566.0 408.0 569.0 414.0Q572.0 420.0 573.0 423.0Q574.0 426.0 575.0 425.0Q576.0 424.0 577.5 419.0Q579.0 414.0 582.5 407.0Q586.0 400.0 592.0 392.5Q598.0 385.0 605.5 380.5Q613.0 376.0 619.0 375.0Q625.0 374.0 629.0 377.5Q633.0 381.0 632.5 387.0Q632.0 393.0 628.0 400.5Q624.0 408.0 617.0 414.5Q610.0 421.0 603.0 425.5Q596.0 430.0 591.0 432.0Q586.0 434.0 585.0 434.5Q584.0 435.0 587.0 436.0Q590.0 437.0 597.0 439.5Q604.0 442.0 611.5 447.0Q619.0 452.0 625.5 459.0Q632.0 466.0 635.0 473.5Q638.0 481.0 636.5 486.5Q635.0 492.0 630.0 493.5Q625.0 495.0 617.5 493.0Q610.0 491.0 603.0 485.0Q596.0 479.0 590.0 471.5Q584.0 464.0 581.0 457.5Q578.0 451.0 577.0 447.5Q576.0 444.0 575.0 445.0Q574.0 446.0 572.5 451.5Q571.0 457.0 567.0 464.5Q563.0 472.0 556.5 480.0Q550.0 488.0 542.5 493.0Q535.0 498.0 528.5 498.5Q522.0 499.0 518.0 495.5Q514.0 492.0 514.0 485.5Q514.0 479.0 518.5 471.0Q523.0 463.0 530.5 456.5Q538.0 450.0 545.5 445.5Q553.0 441.0 558.0 438.5Q563.0 436.0 564.5 435.5Q566.0 435.0 562.5 434.0Q559.0 433.0 552.0 430.0Q545.0 427.0 536.5 422.0Q528.0 417.0 521.5 409.5Q515.0 402.0 512.0 394.5Q509.0 387.0 510.0 381.0Q511.0 375.0 516.5 373.0Q522.0 371.0 530.0 373.5Q538.0 376.0 545.5 382.5Q553.0 389.0 559.0 397.0Q565.0 405.0 568.5 411.5Q572.0 418.0 573.0 421.5Q574.0 425.0 575.0 424.0Q576.0 423.0 577.5 417.5Q579.0 412.0 583.5 404.0Q588.0 396.0 594.5 388.0Q601.0 380.0 609.0 374.5Q617.0 369.0 624.0 368.0Q631.0 367.0 635.0 371.0Q639.0 375.0 639.0 382.0Q639.0 389.0 634.0 397.0Q629.0 405.0 621.5 412.0Q614.0 419.0 606.0 424.0Q598.0 429.0 592.5 431.0Q587.0 433.0 586.0 434.0Q585.0 435.0 588.5 436.0Q592.0 437.0 599.5 440.0Q607.0 443.0 615.5 448.5Q624.0 454.0 631.0 462.0Q638.0 470.0 641.5 478.0Q645.0 486.0 643.5 492.0Q642.0 498.0 636.0 500.0Q630.0 502.0 622.0 499.5Q614.0 497.0 606.0 490.5Q598.0 484.0 591.5 475.5Q585.0 467.0 581.5 459.5Q578.0 452.0 577.0 448.5Q576.0 445.0 575.0 446.5Q574.0 448.0 572.0 453.5Q570.0 459.0 566.0 467.5Q562.0 476.0 555.0 484.5Q548.0 493.0 539.5 498.5Q531.0 504.0 523.5 505.0Q516.0 506.0 511.5 502.0Q507.0 498.0 507.5 491.0Q508.0 484.0 513.0 475.0Q518.0 466.0 526.0 458.5Q534.0 451.0 542.0 446.0Q550.0 441.0 556.0 439.0Q562.0 437.0 563.5 436.0Q565.0 435.0 561.0 434.0Q557.0 433.0 549.5 429.5Q542.0 426.0 533.0 420.5Q524.0 415.0 516.5 407.0Q509.0 399.0 505.5 390.5Q502.0 382.0 503.5 375.5Q505.0 369.0 511.0 367.0Q517.0 365.0 525.5 367.5Q534.0 370.0 542.5 377.0Q551.0 384.0 557.5 393.0Q564.0 402.0 568.0 409.5Q572.0 417.0 574.0 419.5Q576.0 422.0 578.0 416.0Q580.0 410.0 584.5 401.0Q589.0 392.0 596.5 383.0Q604.0 374.0 612.5 368.0Q621.0 362.0 629.0 361.0Q637.0 360.0 641.5 364.0Q646.0 368.0 645.5 376.0Q645.0 384.0 640.0 393.0Q635.0 402.0 626.5 410.0Q618.0 418.0 609.5 423.0Q601.0 428.0 594.5 430.5Q588.0 433.0 587.0 434.0Q586.0 435.0 590.0 436.0Q594.0 437.0 602.0 440.5Q610.0 444.0 619.5 450.0Q629.0 456.0 637.0 464.5Q645.0 473.0 648.5 482.0Q652.0 491.0 650.0 497.5Q648.0 504.0 642.0 506.0Q636.0 508.0 627.0 505.5Q618.0 503.0 609.0 495.5Q600.0 488.0 593.0 479.0Q586.0 470.0 582.5 462.0Q579.0 454.0 577.5 450.0Q576.0 446.0 575.0 447.5Q574.0 449.0 572.0 455.5Q570.0 462.0 565.0 471.0Q560.0 480.0 552.5 489.5Q545.0 499.0 536.0 505.0Q527.0 511.0 518.5 512.0Q510.0 513.0 505.5 509.0Q501.0 505.0 501.5 496.5Q502.0 488.0 507.0 478.5Q512.0 469.0 521.0 461.0Q530.0 453.0 539.0 447.5Q548.0 442.0 554.5 439.5Q561.0 437.0 562.5 436.0Q564.0 435.0 559.5 434.0Q555.0 433.0 547.0 429.5Q539.0 426.0 529.0 419.5Q519.0 413.0 510.5 404.0Q502.0 395.0 498.5 386.0Q495.0 377.0 496.5 370.0Q498.0 363.0 504.5 360.5Q511.0 358.0 520.5 361.0Q530.0 364.0 539.5 371.5Q549.0 379.0 556.0 388.5Q563.0 398.0 567.0 406.5Q571.0 415.0 572.5 419.5Q574.0 424.0 575.0 422.5Q576.0 421.0 578.0 414.0Q580.0 407.0 585.0 397.5Q590.0 388.0 598.0 378.0Q606.0 368.0 615.5 362.0Q625.0 356.0 633.5 354.5Q642.0 353.0 647.0 357.5Q652.0 362.0 652.0 370.5Q652.0 379.0 646.0 389.0Q640.0 399.0 631.0 407.5Q622.0 416.0 612.5 422.0Q603.0 428.0 596.5 430.5Q590.0 433.0 588.5 434.0Q587.0 435.0 591.0 436.5Q595.0 438.0 604.0 441.5Q613.0 445.0 623.5 451.5Q634.0 458.0 642.5 467.5Q651.0 477.0 655.0 486.5Q659.0 496.0 657.0 503.0Q655.0 510.0 648.0 512.5Q641.0 515.0 631.5 512.0Q622.0 509.0 612.0 501.0Q602.0 493.0 594.5 483.0Q587.0 473.0 583.0 464.5Q579.0 456.0 577.5 451.5Q576.0 447.0 575.0 448.5Q574.0 450.0 571.5 457.0Q569.0 464.0 564.0 474.0Q559.0 484.0 550.5 494.5Q542.0 505.0 532.0 511.5Q522.0 518.0 513.5 519.0Q505.0 520.0 499.5 515.5Q494.0 511.0 494.5 502.0Q495.0 493.0 501.0 483.0Q507.0 473.0 516.5 463.5Q526.0 454.0 536.0 448.5Q546.0 443.0 553.0 440.0Q560.0 437.0 561.5 436.0Q563.0 435.0 558.5 433.5Q554.0 432.0 544.5 428.5Q535.0 425.0 524.5 418.0Q514.0 411.0 505.0 401.5Q496.0 392.0 492.0 382.0Q488.0 372.0 490.0 364.5Q492.0 357.0 499.0 354.5Q506.0 352.0 516.0 355.0Q526.0 358.0 536.5 366.5Q547.0 375.0 554.5 385.0Q562.0 395.0 566.5 404.0Q571.0 413.0 572.5 418.0Q574.0 423.0 575.0 421.0Q576.0 419.0 578.5 412.0Q581.0 405.0 586.5 394.5Q592.0 384.0 600.5 373.5Q609.0 363.0 619.5 356.0Q630.0 349.0 639.0 348.0Q648.0 347.0 653.5 351.5Q659.0 356.0 658.5 365.5Q658.0 375.0 652.0 385.5Q646.0 396.0 636.0 405.5Q626.0 415.0 615.5 421.0Q605.0 427.0 598.0 430.0Q591.0 433.0 589.5 434.0Q588.0 435.0 592.5 436.5Q597.0 438.0 606.5 442.0Q616.0 446.0 627.5 453.0Q639.0 460.0 648.0 470.0Q657.0 480.0 661.5 490.5Q666.0 501.0 664.0 508.5Q662.0 516.0 654.5 519.0Q647.0 522.0 636.5 518.5Q626.0 515.0 615.5 506.5Q605.0 498.0 596.5 487.0Q588.0 476.0 583.5 466.5Q579.0 457.0 577.5 452.5Q576.0 448.0 575.0 449.5Q574.0 451.0 571.5 458.5Q569.0 466.0 563.5 477.0Q558.0 488.0 549.0 499.0Q540.0 510.0 529.0 517.0Q518.0 524.0 508.5 525.5Q499.0 527.0 493.5 522.0Q488.0 517.0 488.5 507.5Q489.0 498.0 495.0 487.0Q501.0 476.0 511.5 466.0Q522.0 456.0 532.5 449.5Q543.0 443.0 550.5 440.0Q558.0 437.0 560.0 436.0Q562.0 435.0 557.0 433.5Q552.0 432.0 542.0 428.0Q532.0 424.0 520.5 416.5Q509.0 409.0 499.5 398.5Q490.0 388.0 485.5 377.5Q481.0 367.0 483.0 359.0Q485.0 351.0 493.0 348.0Q501.0 345.0 511.5 348.5Q522.0 352.0 533.0 361.0Q544.0 370.0 552.5 381.0Q561.0 392.0 566.0 402.0Q571.0 412.0 572.5 417.0Q574.0 422.0 575.0 420.0Q576.0 418.0 578.5 410.0Q581.0 402.0 587.0 391.0Q593.0 380.0 602.5 368.5Q612.0 357.0 623.0 349.5Q634.0 342.0 644.0 341.0Q654.0 340.0 659.5 345.0Q665.0 350.0 665.0 360.0Q665.0 370.0 658.0 381.5Q651.0 393.0 640.5 403.0Q630.0 413.0 619.0 420.0Q608.0 427.0 600.0 430.0Q592.0 433.0 590.5 434.0Q589.0 435.0 594.0 436.5Q599.0 438.0 609.0 442.0Q619.0 446.0 631.0 454.0Q643.0 462.0 653.0 473.0Q663.0 484.0 667.5 495.0Q672.0 506.0 670.0 514.5Q668.0 523.0 660.0 525.5Q652.0 528.0 641.0 524.5Q630.0 521.0 618.5 512.0Q607.0 503.0 598.0 491.0Q589.0 479.0 584.5 469.0Q580.0 459.0 578.0 454.0Q576.0 449.0 575.0 450.5Q574.0 452.0 571.5 460.5Q569.0 469.0 562.5 480.5Q556.0 492.0 546.5 504.0Q537.0 516.0 525.5 523.5Q514.0 531.0 503.5 532.5Q493.0 534.0 487.0 528.5Q481.0 523.0 481.5 512.5Q482.0 502.0 489.0 490.5Q496.0 479.0 507.0 468.5Q518.0 458.0 529.5 451.0Q541.0 444.0 549.0 440.5Q557.0 437.0 559.0 436.0Q561.0 435.0 555.5 433.5Q550.0 432.0 539.5 427.5Q529.0 423.0 516.5 415.0Q504.0 407.0 494.0 396.0Q484.0 385.0 479.0 373.5Q474.0 362.0 476.0 353.0Q478.0 344.0 486.5 341.0Q495.0 338.0 507.0 342.0Q519.0 346.0 530.5 355.5Q542.0 365.0 551.0 377.0Q560.0 389.0 565.0 399.5Q570.0 410.0 572.0 415.5Q574.0 421.0 575.0 419.0Q576.0 417.0 579.0 408.5Q582.0 400.0 588.0 388.0Q594.0 376.0 604.0 363.5Q614.0 351.0 626.0 343.0Q638.0 335.0 649.0 334.0Q660.0 333.0 666.0 338.5Q672.0 344.0 671.5 354.5Q671.0 365.0 664.0 377.5Q657.0 390.0 645.5 401.0Q634.0 412.0 622.0 419.0Q610.0 426.0 601.5 429.5Q593.0 433.0 591.5 434.0Q590.0 435.0 595.0 436.5Q600.0 438.0 611.0 442.5Q622.0 447.0 635.0 455.5Q648.0 464.0 659.0 475.5Q670.0 487.0 674.5 499.0Q679.0 511.0 677.0 520.0Q675.0 529.0 666.5 532.0Q658.0 535.0 645.5 531.0Q633.0 527.0 621.0 517.0Q609.0 507.0 599.5 495.0Q590.0 483.0 585.0 472.0Q580.0 461.0 578.0 455.5Q576.0 450.0 575.0 452.0Q574.0 454.0 571.0 462.5Q568.0 471.0 561.5 483.5Q555.0 496.0 544.5 508.5Q534.0 521.0 522.0 529.5Q510.0 538.0 499.0 539.5Q488.0 541.0 481.5 535.0Q475.0 529.0 475.5 518.0Q476.0 507.0 483.0 494.5Q490.0 482.0 502.0 470.5Q514.0 459.0 526.5 451.5Q539.0 444.0 547.5 440.5Q556.0 437.0 558.0 436.0Q560.0 435.0 554.5 433.5Q549.0 432.0 537.5 427.0Q526.0 422.0 512.5 413.5Q499.0 405.0 488.0 393.0Q477.0 381.0 472.0 369.0Q467.0 357.0 469.5 347.5Q472.0 338.0 481.0 335.0Q490.0 332.0 502.5 336.0Q515.0 340.0 527.5 350.0Q540.0 360.0 549.5 373.0Q559.0 386.0 564.5 397.0Q570.0 408.0 572.0 414.0Q574.0 420.0 575.0 418.0Q576.0 416.0 579.0 407.0Q582.0 398.0 589.0 385.0Q596.0 372.0 606.5 359.0Q617.0 346.0 629.5 337.5Q642.0 329.0 653.5 327.5Q665.0 326.0 671.5 332.0Q678.0 338.0 677.5 349.5Q677.0 361.0 669.5 374.0Q662.0 387.0 650.0 398.5Q638.0 410.0 625.5 417.5Q613.0 425.0 604.0 429.0Q595.0 433.0 593.0 434.0Q591.0 435.0 596.5 436.5Q602.0 438.0 614.0 443.0Q626.0 448.0 639.5 457.0Q653.0 466.0 664.5 478.0Q676.0 490.0 681.0 503.0Q686.0 516.0 683.5 525.5Q681.0 535.0 672.0 538.0Q663.0 541.0 650.0 537.0Q637.0 533.0 624.0 522.5Q611.0 512.0 601.0 499.0Q591.0 486.0 585.5 474.5Q580.0 463.0 578.0 457.0Q576.0 451.0 575.0 453.0Q574.0 455.0 571.0 464.0Q568.0 473.0 561.0 486.5Q554.0 500.0 543.0 513.5Q532.0 527.0 518.5 536.0Q505.0 545.0 493.5 546.0Q482.0 547.0 475.0 541.0Q468.0 535.0 468.5 523.5Q469.0 512.0 477.0 498.5Q485.0 485.0 497.5 473.0Q510.0 461.0 523.0 453.0Q536.0 445.0 545.5 441.5Q555.0 438.0 557.0 436.5Q559.0 435.0 553.0 433.0Q547.0 431.0 535.0 426.5Q523.0 422.0 508.5 412.5Q494.0 403.0 482.5 390.5Q471.0 378.0 465.5 365.0Q460.0 352.0 462.5 342.0Q465.0 332.0 474.5 328.5Q484.0 325.0 497.5 329.5Q511.0 334.0 524.5 344.5Q538.0 355.0 548.0 369.0Q558.0 383.0 564.0 395.0Q570.0 407.0 572.0 413.0Q574.0 419.0 575.0 417.0Q576.0 415.0 579.5 405.0Q583.0 395.0 590.0 381.5Q597.0 368.0 608.5 354.0Q620.0 340.0 633.5 331.0Q647.0 322.0 659.0 320.5Q671.0 319.0 678.0 325.5Q685.0 332.0 684.5 344.0Q684.0 356.0 676.0 370.0Q668.0 384.0 655.0 396.0Q642.0 408.0 628.5 416.5Q615.0 425.0 605.5 428.5Q596.0 432.0 594.0 433.5Q592.0 435.0 598.0 437.0Q604.0 439.0 616.5 444.0Q629.0 449.0 643.5 458.5Q658.0 468.0 670.0 481.0Q682.0 494.0 687.5 507.5Q693.0 521.0 690.5 531.0Q688.0 541.0 678.5 544.5Q669.0 548.0 655.0 543.5Q641.0 539.0 627.5 528.0Q614.0 517.0 603.0 503.0Q592.0 489.0 586.5 476.5Q581.0 464.0 578.5 458.0Q576.0 452.0 575.0 454.0Q574.0 456.0 570.5 466.0Q567.0 476.0 559.5 490.0Q552.0 504.0 540.5 518.5Q529.0 533.0 515.0 542.0Q501.0 551.0 488.5 552.5Q476.0 554.0 469.0 547.5Q462.0 541.0 462.5 528.5Q463.0 516.0 471.0 502.0Q479.0 488.0 492.5 475.0Q506.0 462.0 520.0 454.0Q534.0 446.0 544.0 442.0Q554.0 438.0 556.0 436.5Q558.0 435.0 551.5 433.0Q545.0 431.0 532.5 426.0Q520.0 421.0 504.5 411.0Q489.0 401.0 477.0 387.5Q465.0 374.0 459.0 360.5Q453.0 347.0 456.0 336.5Q459.0 326.0 469.0 322.5Q479.0 319.0 493.0 323.5Q507.0 328.0 521.0 339.5Q535.0 351.0 546.0 365.5Q557.0 380.0 563.0 392.5Q569.0 405.0 571.5 411.5Q574.0 418.0 575.0 415.5Q576.0 413.0 579.5 403.0Q583.0 393.0 590.5 378.0Q598.0 363.0 610.0 348.5Q622.0 334.0 636.5 324.5Q651.0 315.0 664.0 313.5Q677.0 312.0 684.0 319.0Q691.0 326.0 690.5 338.5Q690.0 351.0 681.5 366.0Q673.0 381.0 659.5 394.0Q646.0 407.0 631.5 415.5Q617.0 424.0 607.0 428.0Q597.0 432.0 595.0 433.5Q593.0 435.0 599.5 437.0Q606.0 439.0 619.0 444.5Q632.0 450.0 647.5 460.0Q663.0 470.0 675.5 483.5Q688.0 497.0 694.0 511.5Q700.0 526.0 697.5 536.5Q695.0 547.0 684.5 551.0Q674.0 555.0 659.5 550.0Q645.0 545.0 630.5 533.5Q616.0 522.0 604.5 507.0Q593.0 492.0 587.0 479.0Q581.0 466.0 578.5 459.5Q576.0 453.0 575.0 455.0Q574.0 457.0 570.5 467.5Q567.0 478.0 559.0 493.5Q551.0 509.0 538.5 523.5Q526.0 538.0 511.5 548.0Q497.0 558.0 484.0 559.5Q471.0 561.0 463.0 554.0Q455.0 547.0 455.5 534.0Q456.0 521.0 465.0 506.0Q474.0 491.0 488.0 477.5Q502.0 464.0 517.0 455.0Q532.0 446.0 542.0 442.0Q552.0 438.0 554.5 436.5Q557.0 435.0 550.5 433.0Q544.0 431.0 530.0 425.5Q516.0 420.0 500.5 409.5Q485.0 399.0 471.5 385.0Q458.0 371.0 452.0 356.5Q446.0 342.0 449.0 331.0Q452.0 320.0 462.5 316.0Q473.0 312.0 488.0 317.0Q503.0 322.0 518.0 334.0Q533.0 346.0 544.5 361.5Q556.0 377.0 562.5 390.0Q569.0 403.0 571.5 410.0Q574.0 417.0 575.0 414.5Q576.0 412.0 579.5 401.5Q583.0 391.0 591.5 375.0Q600.0 359.0 612.5 344.0Q625.0 329.0 640.0 319.0Q655.0 309.0 668.5 307.0Q682.0 305.0 690.0 312.5Q698.0 320.0 697.5 333.0Q697.0 346.0 688.0 362.0Q679.0 378.0 664.5 391.5Q650.0 405.0 635.0 414.5Q620.0 424.0 609.0 428.0Q598.0 432.0 596.0 433.5Q594.0 435.0 600.5 437.0Q607.0 439.0 621.0 444.5Q635.0 450.0 651.5 461.0Q668.0 472.0 681.5 486.5Q695.0 501.0 701.0 516.0Q707.0 531.0 704.0 542.5Q701.0 554.0 690.0 557.5Q679.0 561.0 664.0 556.0Q649.0 551.0 633.5 538.5Q618.0 526.0 606.5 510.5Q595.0 495.0 588.0 481.5Q581.0 468.0 578.5 461.0Q576.0 454.0 575.0 456.5Q574.0 459.0 570.0 469.5Q566.0 480.0 558.0 496.5Q550.0 513.0 537.0 528.5Q524.0 544.0 508.5 554.5Q493.0 565.0 479.0 566.5Q465.0 568.0 457.0 561.0Q449.0 554.0 449.5 540.0Q450.0 526.0 459.0 510.0Q468.0 494.0 483.0 479.5Q498.0 465.0 513.5 456.0Q529.0 447.0 540.0 442.5Q551.0 438.0 553.5 436.5Q556.0 435.0 549.0 433.0Q542.0 431.0 527.5 425.0Q513.0 419.0 496.5 408.0Q480.0 397.0 466.0 382.0Q452.0 367.0 445.5 352.0Q439.0 337.0 442.0 325.0Q445.0 313.0 456.5 309.0Q468.0 305.0 483.5 310.5Q499.0 316.0 515.0 328.5Q531.0 341.0 543.0 357.0Q555.0 373.0 562.0 387.5Q569.0 402.0 571.5 409.0Q574.0 416.0 575.5 413.5Q577.0 411.0 580.5 399.5Q584.0 388.0 592.5 371.5Q601.0 355.0 614.5 339.0Q628.0 323.0 643.5 312.5Q659.0 302.0 673.5 300.0Q688.0 298.0 696.0 305.5Q704.0 313.0 703.5 327.5Q703.0 342.0 693.5 358.5Q684.0 375.0 669.0 389.5Q654.0 404.0 638.0 413.5Q622.0 423.0 610.5 427.5Q599.0 432.0 604.0 435.5Q609.0 439.0 623.5 445.0Q638.0 451.0 655.5 462.5Q673.0 474.0 687.0 489.0Q701.0 504.0 707.5 520.0Q714.0 536.0 711.0 548.0Q708.0 560.0 696.5 564.0Q685.0 568.0 669.0 562.5Q653.0 557.0 636.5 544.0Q620.0 531.0 608.0 514.5Q596.0 498.0 589.0 483.5Q582.0 469.0 579.0 462.0Q576.0 455.0 574.5 457.5Q573.0 460.0 569.5 471.5Q566.0 483.0 557.5 500.0Q549.0 517.0 535.0 533.5Q521.0 550.0 504.5 560.5Q488.0 571.0 473.5 573.0Q459.0 575.0 450.5 567.5Q442.0 560.0 442.5 545.5Q443.0 531.0 453.0 514.0Q463.0 497.0 478.5 482.0Q494.0 467.0 510.5 457.0Q527.0 447.0 538.5 442.5Q550.0 438.0 552.5 436.5Q555.0 435.0 547.5 433.0Q540.0 431.0 525.0 424.5Q510.0 418.0 492.5 406.5Q475.0 395.0 460.5 379.5Q446.0 364.0 439.5 348.0Q433.0 332.0 436.0 319.5Q439.0 307.0 450.5 303.0Q462.0 299.0 478.5 304.5Q495.0 310.0 512.0 323.0Q529.0 336.0 541.5 353.0Q554.0 370.0 561.0 385.0Q568.0 400.0 571.0 407.5Q574.0 415.0 575.5 412.5Q577.0 410.0 580.5 398.0Q584.0 386.0 593.0 368.5Q602.0 351.0 616.0 334.0Q630.0 317.0 647.0 306.0Q664.0 295.0 679.0 293.5Q694.0 292.0 702.5 299.5Q711.0 307.0 710.5 322.0Q710.0 337.0 700.0 354.5Q690.0 372.0 674.0 387.0Q658.0 402.0 641.0 412.0Q624.0 422.0 612.5 427.0Q601.0 432.0 598.0 433.5Q595.0 435.0 603.0 437.5Q611.0 440.0 626.0 446.0Q641.0 452.0 659.5 464.0Q678.0 476.0 692.5 492.0Q707.0 508.0 714.0 524.5Q721.0 541.0 717.5 553.5Q714.0 566.0 702.0 570.0Q690.0 574.0 673.0 568.5Q656.0 563.0 639.5 549.5Q623.0 536.0 610.0 518.5Q597.0 501.0 589.5 486.0Q582.0 471.0 579.0 463.5Q576.0 456.0 574.5 458.5Q573.0 461.0 569.0 473.0Q565.0 485.0 556.0 503.0Q547.0 521.0 532.5 538.0Q518.0 555.0 501.0 566.5Q484.0 578.0 468.5 580.0Q453.0 582.0 444.5 574.0Q436.0 566.0 436.5 550.5Q437.0 535.0 447.0 517.5Q457.0 500.0 473.5 484.5Q490.0 469.0 507.5 458.5Q525.0 448.0 537.0 443.0Q549.0 438.0 551.5 436.5Q554.0 435.0 546.5 432.5Q539.0 430.0 523.0 424.0Q507.0 418.0 488.5 405.5Q470.0 393.0 455.0 377.0Q440.0 361.0 433.0 343.5Q426.0 326.0 429.0 313.5Q432.0 301.0 444.5 296.5Q457.0 292.0 474.5 298.0Q492.0 304.0 509.0 318.0Q526.0 332.0 539.5 349.5Q553.0 367.0 560.5 382.5Q568.0 398.0 571.0 406.0Q574.0 414.0 575.5 411.0Q577.0 408.0 581.0 396.0Q585.0 384.0 594.0 365.5Q603.0 347.0 618.0 329.5Q633.0 312.0 650.5 300.0Q668.0 288.0 683.5 286.5Q699.0 285.0 708.0 293.0Q717.0 301.0 716.5 316.5Q716.0 332.0 705.5 350.5Q695.0 369.0 678.5 385.0Q662.0 401.0 644.5 411.5Q627.0 422.0 614.5 427.0Q602.0 432.0 599.0 433.5Q596.0 435.0 604.0 437.5Q612.0 440.0 628.5 446.5Q645.0 453.0 663.5 465.5Q682.0 478.0 698.0 494.5Q714.0 511.0 721.0 528.5Q728.0 546.0 724.5 559.0Q721.0 572.0 708.5 576.5Q696.0 581.0 678.0 575.0Q660.0 569.0 642.5 555.0Q625.0 541.0 611.5 522.5Q598.0 504.0 590.0 488.5Q582.0 473.0 579.0 465.0Q576.0 457.0 574.5 459.5Q573.0 462.0 569.0 475.0Q565.0 488.0 555.5 506.5Q546.0 525.0 531.0 543.0Q516.0 561.0 498.0 573.0Q480.0 585.0 464.0 587.0Q448.0 589.0 438.5 580.5Q429.0 572.0 430.0 556.0Q431.0 540.0 441.5 521.5Q452.0 503.0 469.0 486.5Q486.0 470.0 504.0 459.5Q522.0 449.0 534.5 443.5Q547.0 438.0 550.0 436.5Q553.0 435.0 545.0 432.5Q537.0 430.0 520.5 423.5Q504.0 417.0 484.5 404.0Q465.0 391.0 449.0 374.0Q433.0 357.0 426.0 339.0Q419.0 321.0 422.5 308.0Q426.0 295.0 438.5 290.5Q451.0 286.0 469.5 291.5Q488.0 297.0 506.0 312.0Q524.0 327.0 538.0 345.5Q552.0 364.0 560.0 380.0Q568.0 396.0 571.0 404.5Q574.0 413.0 575.5 410.0Q577.0 407.0 581.0 394.0Q585.0 381.0 595.0 362.0Q605.0 343.0 620.5 324.5Q636.0 306.0 654.0 294.0Q672.0 282.0 688.5 280.0Q705.0 278.0 714.5 286.5Q724.0 295.0 723.5 311.5Q723.0 328.0 712.0 347.0Q701.0 366.0 683.5 382.5Q666.0 399.0 647.5 410.0Q629.0 421.0 616.0 426.0Q603.0 431.0 600.0 433.0Q597.0 435.0 605.5 437.5Q614.0 440.0 631.0 447.0Q648.0 454.0 667.5 466.5Q687.0 479.0 703.5 497.0Q720.0 515.0 727.5 533.0Q735.0 551.0 731.5 564.5Q728.0 578.0 714.5 583.0Q701.0 588.0 682.5 582.0Q664.0 576.0 645.5 561.0Q627.0 546.0 613.0 527.0Q599.0 508.0 591.0 491.0Q583.0 474.0 579.5 466.0Q576.0 458.0 574.5 460.5Q573.0 463.0 569.0 476.5Q565.0 490.0 555.0 509.5Q545.0 529.0 529.0 548.0Q513.0 567.0 494.5 579.5Q476.0 592.0 459.0 594.0Q442.0 596.0 432.5 587.0Q423.0 578.0 423.5 561.5Q424.0 545.0 435.0 525.5Q446.0 506.0 464.0 489.0Q482.0 472.0 501.0 460.5Q520.0 449.0 533.0 444.0Q546.0 439.0 549.0 437.0Q552.0 435.0 543.5 432.5Q535.0 430.0 518.0 423.0Q501.0 416.0 480.5 403.0Q460.0 390.0 443.5 372.0Q427.0 354.0 419.5 335.0Q412.0 316.0 415.5 302.5Q419.0 289.0 432.5 284.0Q446.0 279.0 465.0 285.0Q484.0 291.0 503.0 306.5Q522.0 322.0 536.5 341.5Q551.0 361.0 559.0 378.0Q567.0 395.0 570.5 403.5Q574.0 412.0 575.5 409.0Q577.0 406.0 581.5 392.5Q586.0 379.0 596.0 359.0Q606.0 339.0 622.0 320.0Q638.0 301.0 657.0 288.0Q676.0 275.0 693.5 273.0Q711.0 271.0 720.5 280.0Q730.0 289.0 729.5 306.0Q729.0 323.0 717.5 343.0Q706.0 363.0 688.0 380.0Q670.0 397.0 650.5 409.0Q631.0 421.0 617.5 426.0Q604.0 431.0 601.0 433.0Q598.0 435.0 607.0 437.5Q616.0 440.0 633.5 447.0Q651.0 454.0 671.5 467.5Q692.0 481.0 709.0 499.5Q726.0 518.0 734.0 537.0Q742.0 556.0 738.0 570.5Q734.0 585.0 720.5 589.5Q707.0 594.0 687.5 588.0Q668.0 582.0 648.5 566.0Q629.0 550.0 614.5 530.5Q600.0 511.0 591.5 493.5Q583.0 476.0 579.5 467.5Q576.0 459.0 574.5 462.0Q573.0 465.0 568.5 478.5Q564.0 492.0 553.5 512.5Q543.0 533.0 526.5 552.5Q510.0 572.0 490.5 585.0Q471.0 598.0 453.5 600.5Q436.0 603.0 426.0 593.5Q416.0 584.0 417.0 566.5Q418.0 549.0 429.5 529.0Q441.0 509.0 459.5 491.0Q478.0 473.0 497.5 461.5Q517.0 450.0 531.0 444.5Q545.0 439.0 548.0 437.0Q551.0 435.0 542.0 432.5Q533.0 430.0 515.5 422.5Q498.0 415.0 476.5 401.5Q455.0 388.0 438.0 369.0Q421.0 350.0 413.0 330.5Q405.0 311.0 408.5 296.5Q412.0 282.0 426.5 277.0Q441.0 272.0 460.5 278.5Q480.0 285.0 500.0 301.0Q520.0 317.0 535.0 337.5Q550.0 358.0 558.5 375.5Q567.0 393.0 570.0 402.0Q573.0 411.0 575.0 408.0Q577.0 405.0 581.5 391.0Q586.0 377.0 596.5 356.0Q607.0 335.0 624.0 315.0Q641.0 295.0 661.0 281.5Q681.0 268.0 698.5 266.0Q716.0 264.0 726.5 273.5Q737.0 283.0 736.5 300.5Q736.0 318.0 724.0 339.0Q712.0 360.0 693.0 378.0Q674.0 396.0 654.0 408.0Q634.0 420.0 620.0 425.5Q606.0 431.0 602.5 433.0Q599.0 435.0 608.0 437.5Q617.0 440.0 635.5 447.5Q654.0 455.0 675.5 469.0Q697.0 483.0 714.5 502.5Q732.0 522.0 740.5 541.5Q749.0 561.0 745.0 576.0Q741.0 591.0 726.5 596.0Q712.0 601.0 692.0 594.5Q672.0 588.0 652.0 571.5Q632.0 555.0 616.5 534.5Q601.0 514.0 592.0 496.0Q583.0 478.0 580.0 469.0Q577.0 460.0 575.0 463.0Q573.0 466.0 568.5 480.5Q564.0 495.0 553.0 516.0Q542.0 537.0 525.0 557.5Q508.0 578.0 487.5 591.5Q467.0 605.0 449.0 607.0Q431.0 609.0 420.5 599.5Q410.0 590.0 410.5 572.0Q411.0 554.0 423.0 533.0Q435.0 512.0 454.5 493.5Q474.0 475.0 494.5 462.5Q515.0 450.0 529.5 444.5Q544.0 439.0 547.0 437.0Q550.0 435.0 541.0 432.5Q532.0 430.0 513.0 422.0Q494.0 414.0 472.5 400.0Q451.0 386.0 433.0 366.5Q415.0 347.0 406.5 326.5Q398.0 306.0 402.0 291.0Q406.0 276.0 420.5 271.0Q435.0 266.0 455.5 272.5Q476.0 279.0 496.5 296.0Q517.0 313.0 533.0 334.0Q549.0 355.0 558.0 373.0Q567.0 391.0 570.0 400.5Q573.0 410.0 575.0 407.0Q577.0 404.0 582.0 389.0Q587.0 374.0 598.0 352.5Q609.0 331.0 626.5 310.0Q644.0 289.0 664.5 275.5Q685.0 262.0 703.5 259.5Q722.0 257.0 733.0 267.0Q744.0 277.0 743.0 295.5Q742.0 314.0 729.5 335.5Q717.0 357.0 697.5 375.5Q678.0 394.0 657.0 406.5Q636.0 419.0 621.5 425.0Q607.0 431.0 603.5 433.0Q600.0 435.0 609.5 438.0Q619.0 441.0 638.0 448.5Q657.0 456.0 679.5 470.5Q702.0 485.0 720.5 505.0Q739.0 525.0 747.0 545.5Q755.0 566.0 751.0 581.5Q747.0 597.0 732.5 602.0Q718.0 607.0 697.0 600.5Q676.0 594.0 655.0 577.0Q634.0 560.0 618.0 538.5Q602.0 517.0 592.5 498.5Q583.0 480.0 580.0 470.5Q577.0 461.0 575.0 464.0Q573.0 467.0 568.0 482.0Q563.0 497.0 552.0 519.0Q541.0 541.0 523.0 562.5Q505.0 584.0 484.0 598.0Q463.0 612.0 444.0 614.0Q425.0 616.0 414.0 606.0Q403.0 596.0 404.0 577.5Q405.0 559.0 417.5 537.0Q430.0 515.0 450.0 495.5Q470.0 476.0 491.5 463.5Q513.0 451.0 528.0 445.0Q543.0 439.0 546.0 437.0Q549.0 435.0 539.5 432.0Q530.0 429.0 510.5 421.0Q491.0 413.0 468.5 398.5Q446.0 384.0 427.0 363.5Q408.0 343.0 399.5 322.0Q391.0 301.0 395.0 285.5Q399.0 270.0 414.5 264.5Q430.0 259.0 451.0 266.0Q472.0 273.0 493.5 290.5Q515.0 308.0 531.5 330.0Q548.0 352.0 557.0 371.0Q566.0 390.0 569.5 399.5Q573.0 409.0 575.0 405.5Q577.0 402.0 582.0 387.0Q587.0 372.0 598.5 349.5Q610.0 327.0 628.0 305.5Q646.0 284.0 667.5 269.5Q689.0 255.0 708.5 252.5Q728.0 250.0 739.0 260.5Q750.0 271.0 749.0 290.0Q748.0 309.0 735.5 331.5Q723.0 354.0 702.5 373.5Q682.0 393.0 660.0 406.0Q638.0 419.0 623.0 425.0Q608.0 431.0 604.5 433.0Q601.0 435.0 611.0 438.0Q621.0 441.0 640.5 449.0Q660.0 457.0 683.5 472.0Q707.0 487.0 726.0 507.5Q745.0 528.0 753.5 549.5Q762.0 571.0 758.0 587.0Q754.0 603.0 738.5 608.5Q723.0 614.0 701.5 607.0Q680.0 600.0 658.0 582.5Q636.0 565.0 619.5 542.5Q603.0 520.0 593.5 500.5Q584.0 481.0 580.5 471.5Q577.0 462.0 575.0 465.0Q573.0 468.0 568.0 483.5Q563.0 499.0 551.0 522.0Q539.0 545.0 520.5 567.0Q502.0 589.0 480.5 603.5Q459.0 618.0 439.0 620.5Q419.0 623.0 408.0 612.5Q397.0 602.0 397.5 582.5Q398.0 563.0 411.0 540.5Q424.0 518.0 445.0 498.0Q466.0 478.0 488.0 465.0Q510.0 452.0 525.5 445.5Q541.0 439.0 544.5 437.0Q548.0 435.0 538.0 432.0Q528.0 429.0 508.0 421.0Q488.0 413.0 464.5 397.5Q441.0 382.0 421.5 361.0Q402.0 340.0 393.0 318.0Q384.0 296.0 388.5 280.0Q393.0 264.0 408.5 258.5Q424.0 253.0 446.0 260.0Q468.0 267.0 490.5 285.0Q513.0 303.0 530.0 325.5Q547.0 348.0 556.5 368.0Q566.0 388.0 569.5 398.0Q573.0 408.0 575.0 404.5Q577.0 401.0 582.5 385.0Q588.0 369.0 599.5 346.0Q611.0 323.0 630.0 300.5Q649.0 278.0 671.5 263.0Q694.0 248.0 713.5 245.5Q733.0 243.0 745.0 254.0Q757.0 265.0 756.0 284.5Q755.0 304.0 741.5 327.5Q728.0 351.0 707.0 371.0Q686.0 391.0 663.5 404.5Q641.0 418.0 625.0 424.5Q609.0 431.0 605.5 433.0Q602.0 435.0 612.5 438.0Q623.0 441.0 643.0 449.5Q663.0 458.0 687.5 473.5Q712.0 489.0 731.5 510.5Q751.0 532.0 760.0 554.0Q769.0 576.0 765.0 592.5Q761.0 609.0 745.0 615.0Q729.0 621.0 706.0 613.5Q683.0 606.0 660.5 587.5Q638.0 569.0 621.0 546.0Q604.0 523.0 594.0 503.0Q584.0 483.0 580.5 473.0Q577.0 463.0 575.0 466.0Q573.0 469.0 567.5 485.5Q562.0 502.0 550.0 525.5Q538.0 549.0 519.0 572.0Q500.0 595.0 477.0 610.0Q454.0 625.0 434.0 627.5Q414.0 630.0 402.0 619.5Q390.0 609.0 391.0 588.5Q392.0 568.0 405.5 544.5Q419.0 521.0 440.5 500.5Q462.0 480.0 485.0 466.0Q508.0 452.0 524.0 445.5Q540.0 439.0 543.5 437.0Q547.0 435.0 537.0 432.0Q527.0 429.0 506.0 420.5Q485.0 412.0 460.5 396.0Q436.0 380.0 416.0 358.0Q396.0 336.0 386.5 313.5Q377.0 291.0 381.5 274.5Q386.0 258.0 402.5 252.0Q419.0 246.0 442.0 253.5Q465.0 261.0 488.0 279.5Q511.0 298.0 528.5 321.5Q546.0 345.0 556.0 365.5Q566.0 386.0 569.5 396.5Q573.0 407.0 575.0 403.5Q577.0 400.0 582.5 383.5Q588.0 367.0 600.5 343.0Q613.0 319.0 632.5 295.5Q652.0 272.0 675.0 257.0Q698.0 242.0 718.5 239.5Q739.0 237.0 751.0 247.5Q763.0 258.0 762.0 279.0Q761.0 300.0 747.5 324.0Q734.0 348.0 712.0 369.0Q690.0 390.0 666.5 404.0Q643.0 418.0 627.0 424.5Q611.0 431.0 607.0 433.0Q603.0 435.0 613.5 438.0Q624.0 441.0 645.5 450.0Q667.0 459.0 692.0 475.0Q717.0 491.0 737.0 513.0Q757.0 535.0 766.5 558.0Q776.0 581.0 771.5 598.5Q767.0 616.0 750.5 621.5Q734.0 627.0 710.5 619.5Q687.0 612.0 663.5 593.0Q640.0 574.0 622.5 550.0Q605.0 526.0 594.5 505.5Q584.0 485.0 580.5 474.5Q577.0 464.0 575.0 467.5Q573.0 471.0 567.5 487.5Q562.0 504.0 549.5 528.5Q537.0 553.0 517.0 576.5Q497.0 600.0 473.5 616.0Q450.0 632.0 429.0 634.5Q408.0 637.0 396.0 626.0Q384.0 615.0 384.5 594.0Q385.0 573.0 399.0 548.5Q413.0 524.0 435.5 502.5Q458.0 481.0 482.0 467.0Q506.0 453.0 522.5 446.5Q539.0 440.0 542.5 437.5Q546.0 435.0 535.5 432.0Q525.0 429.0 503.5 420.0Q482.0 411.0 456.5 394.5Q431.0 378.0 410.0 355.5Q389.0 333.0 379.5 309.5Q370.0 286.0 374.5 268.5Q379.0 251.0 396.0 245.0Q413.0 239.0 437.0 247.0Q461.0 255.0 484.5 274.0Q508.0 293.0 526.5 317.5Q545.0 342.0 555.0 363.5Q565.0 385.0 569.0 395.5Q573.0 406.0 575.0 402.5Q577.0 399.0 582.5 382.0Q588.0 365.0 601.0 340.0Q614.0 315.0 634.0 291.0Q654.0 267.0 678.0 251.0Q702.0 235.0 723.5 232.5Q745.0 230.0 757.5 241.0Q770.0 252.0 769.0 273.5Q768.0 295.0 753.5 320.0Q739.0 345.0 716.0 366.5Q693.0 388.0 669.0 402.5Q645.0 417.0 628.5 423.5Q612.0 430.0 608.0 432.5Q604.0 435.0 615.0 438.0Q626.0 441.0 648.0 450.0Q670.0 459.0 695.5 476.0Q721.0 493.0 742.5 516.0Q764.0 539.0 773.5 562.5Q783.0 586.0 778.5 604.0Q774.0 622.0 756.5 628.0Q739.0 634.0 715.0 626.0Q691.0 618.0 667.0 598.5Q643.0 579.0 624.5 554.0Q606.0 529.0 595.5 507.5Q585.0 486.0 581.0 475.5Q577.0 465.0 575.0 468.5Q573.0 472.0 567.0 489.0Q561.0 506.0 548.0 531.5Q535.0 557.0 514.5 581.5Q494.0 606.0 470.0 622.5Q446.0 639.0 424.0 641.5Q402.0 644.0 389.5 632.5Q377.0 621.0 378.0 599.0Q379.0 577.0 393.5 552.0Q408.0 527.0 431.5 505.0Q455.0 483.0 479.0 468.0Q503.0 453.0 520.5 446.5Q538.0 440.0 541.5 437.5Q545.0 435.0 534.0 431.5Q523.0 428.0 501.0 419.0Q479.0 410.0 452.5 393.0Q426.0 376.0 404.5 353.0Q383.0 330.0 373.0 305.5Q363.0 281.0 368.0 263.0Q373.0 245.0 390.5 239.0Q408.0 233.0 432.5 241.0Q457.0 249.0 481.5 269.0Q506.0 289.0 525.0 314.0Q544.0 339.0 554.5 361.0Q565.0 383.0 569.0 394.0Q573.0 405.0 575.0 401.0Q577.0 397.0 583.0 379.5Q589.0 362.0 602.0 336.5Q615.0 311.0 636.0 286.0Q657.0 261.0 681.5 244.5Q706.0 228.0 728.5 225.5Q751.0 223.0 763.5 234.5Q776.0 246.0 775.0 268.0Q774.0 290.0 759.5 316.0Q745.0 342.0 721.0 364.5Q697.0 387.0 672.5 401.5Q648.0 416.0 630.5 423.0Q613.0 430.0 609.0 432.5Q605.0 435.0 616.5 438.5Q628.0 442.0 650.5 451.0Q673.0 460.0 699.5 477.5Q726.0 495.0 748.0 518.5Q770.0 542.0 780.0 566.5Q790.0 591.0 785.0 609.5Q780.0 628.0 762.5 634.0Q745.0 640.0 720.0 632.0Q695.0 624.0 670.0 604.0Q645.0 584.0 626.0 558.5Q607.0 533.0 596.0 510.5Q585.0 488.0 579.0 480.5Q573.0 473.0 567.0 491.0Q561.0 509.0 547.5 535.0Q534.0 561.0 513.0 586.5Q492.0 612.0 467.0 628.5Q442.0 645.0 419.5 648.0Q397.0 651.0 384.0 639.0Q371.0 627.0 372.0 604.5Q373.0 582.0 387.5 556.0Q402.0 530.0 426.5 507.0Q451.0 484.0 476.0 469.0Q501.0 454.0 518.5 447.0Q536.0 440.0 540.0 437.5Q544.0 435.0 533.0 431.5Q522.0 428.0 498.5 418.5Q475.0 409.0 448.0 391.5Q421.0 374.0 399.0 350.0Q377.0 326.0 367.0 301.0Q357.0 276.0 361.5 257.5Q366.0 239.0 384.0 232.5Q402.0 226.0 427.5 234.5Q453.0 243.0 478.5 263.5Q504.0 284.0 523.5 310.0Q543.0 336.0 554.0 358.5Q565.0 381.0 569.0 392.5Q573.0 404.0 575.0 400.0Q577.0 396.0 583.0 378.0Q589.0 360.0 603.0 333.5Q617.0 307.0 638.5 281.0Q660.0 255.0 685.5 238.0Q711.0 221.0 733.5 218.5Q756.0 216.0 769.5 228.0Q783.0 240.0 782.0 263.0Q781.0 286.0 765.5 312.5Q750.0 339.0 725.5 362.0Q701.0 385.0 675.5 400.5Q650.0 416.0 632.0 423.0Q614.0 430.0 610.0 432.5Q606.0 435.0 617.5 438.5Q629.0 442.0 652.5 451.5Q676.0 461.0 703.5 479.0Q731.0 497.0 753.5 521.5Q776.0 546.0 786.5 571.0Q797.0 596.0 792.0 615.0Q787.0 634.0 768.5 640.5Q750.0 647.0 724.5 638.5Q699.0 630.0 673.0 609.0Q647.0 588.0 627.5 562.0Q608.0 536.0 596.5 513.0Q585.0 490.0 581.0 478.0Q577.0 466.0 575.0 470.0Q573.0 474.0 566.5 492.5Q560.0 511.0 546.5 538.0Q533.0 565.0 511.0 591.0Q489.0 617.0 463.0 634.5Q437.0 652.0 414.0 655.0Q391.0 658.0 377.5 645.5Q364.0 633.0 365.0 610.0Q366.0 587.0 381.5 560.0Q397.0 533.0 422.0 509.5Q447.0 486.0 473.0 470.5Q499.0 455.0 517.0 447.5Q535.0 440.0 539.0 437.5Q543.0 435.0 531.5 431.5Q520.0 428.0 496.0 418.5Q472.0 409.0 444.0 390.5Q416.0 372.0 393.5 347.5Q371.0 323.0 360.5 297.0Q350.0 271.0 355.0 252.0Q360.0 233.0 378.5 226.5Q397.0 220.0 423.0 228.5Q449.0 237.0 475.5 258.0Q502.0 279.0 522.0 306.0Q542.0 333.0 553.0 356.0Q564.0 379.0 568.5 391.0Q573.0 403.0 575.5 399.0Q578.0 395.0 584.0 376.5Q590.0 358.0 604.0 330.5Q618.0 303.0 640.0 276.5Q662.0 250.0 688.5 232.5Q715.0 215.0 738.5 212.0Q762.0 209.0 775.5 221.5Q789.0 234.0 788.0 257.5Q787.0 281.0 771.5 308.5Q756.0 336.0 730.5 359.5Q705.0 383.0 678.5 399.0Q652.0 415.0 633.5 422.5Q615.0 430.0 611.0 432.5Q607.0 435.0 619.0 438.5Q631.0 442.0 655.0 452.0Q679.0 462.0 707.5 480.5Q736.0 499.0 759.5 524.0Q783.0 549.0 793.5 575.0Q804.0 601.0 799.0 620.5Q794.0 640.0 775.0 647.0Q756.0 654.0 729.5 645.0Q703.0 636.0 676.0 614.5Q649.0 593.0 629.0 566.0Q609.0 539.0 597.5 515.0Q586.0 491.0 581.5 479.0Q577.0 467.0 574.5 471.5Q572.0 476.0 566.0 495.0Q560.0 514.0 546.0 541.5Q532.0 569.0 509.5 596.0Q487.0 623.0 460.0 641.0Q433.0 659.0 409.0 661.5Q385.0 664.0 371.5 651.5Q358.0 639.0 359.0 615.0Q360.0 591.0 375.5 563.5Q391.0 536.0 417.0 511.5Q443.0 487.0 469.5 471.0Q496.0 455.0 515.0 447.5Q534.0 440.0 538.0 437.5Q542.0 435.0 530.0 431.5Q518.0 428.0 493.5 418.0Q469.0 408.0 440.5 389.0Q412.0 370.0 388.0 344.5Q364.0 319.0 353.5 292.5Q343.0 266.0 348.0 246.5Q353.0 227.0 372.0 220.0Q391.0 213.0 418.0 222.0Q445.0 231.0 472.0 252.5Q499.0 274.0 520.0 302.0Q541.0 330.0 552.5 354.0Q564.0 378.0 568.5 390.0Q573.0 402.0 575.5 398.0Q578.0 394.0 584.0 374.5Q590.0 355.0 604.5 327.0Q619.0 299.0 642.0 271.5Q665.0 244.0 692.0 226.0Q719.0 208.0 743.5 205.0Q768.0 202.0 782.0 215.0Q796.0 228.0 795.0 252.0Q794.0 276.0 777.5 304.5Q761.0 333.0 735.0 357.5Q709.0 382.0 682.0 398.0Q655.0 414.0 636.0 422.0Q617.0 430.0 612.5 432.5Q608.0 435.0 620.5 438.5Q633.0 442.0 657.5 452.5Q682.0 463.0 711.5 482.0Q741.0 501.0 765.0 527.0Q789.0 553.0 800.0 579.5Q811.0 606.0 805.5 626.5Q800.0 647.0 780.5 653.5Q761.0 660.0 734.0 651.0Q707.0 642.0 679.5 620.0Q652.0 598.0 631.0 570.0Q610.0 542.0 598.0 517.5Q586.0 493.0 581.5 480.5Q577.0 468.0 574.5 472.5Q572.0 477.0 566.0 496.5Q560.0 516.0 545.0 544.5Q530.0 573.0 507.0 601.0Q484.0 629.0 456.5 647.0Q429.0 665.0 404.5 668.0Q380.0 671.0 365.5 658.0Q351.0 645.0 352.0 620.5Q353.0 596.0 369.5 567.5Q386.0 539.0 412.5 514.0Q439.0 489.0 466.5 472.5Q494.0 456.0 513.5 448.0Q533.0 440.0 537.0 437.5Q541.0 435.0 528.5 431.5Q516.0 428.0 491.0 417.5Q466.0 407.0 436.5 387.5Q407.0 368.0 382.5 342.0Q358.0 316.0 347.0 288.5Q336.0 261.0 341.0 240.5Q346.0 220.0 366.0 213.0Q386.0 206.0 414.0 215.5Q442.0 225.0 469.5 247.5Q497.0 270.0 518.5 298.0Q540.0 326.0 552.0 351.0Q564.0 376.0 568.5 388.5Q573.0 401.0 575.5 397.0Q578.0 393.0 584.5 373.0Q591.0 353.0 605.5 324.0Q620.0 295.0 643.5 266.5Q667.0 238.0 695.0 219.5Q723.0 201.0 748.0 198.0Q773.0 195.0 787.5 208.5Q802.0 222.0 801.0 247.0Q800.0 272.0 783.5 301.0Q767.0 330.0 740.0 355.0Q713.0 380.0 685.0 397.0Q657.0 414.0 637.5 422.0Q618.0 430.0 613.5 432.5Q609.0 435.0 621.5 439.0Q634.0 443.0 660.0 453.0Q686.0 463.0 716.0 483.0Q746.0 503.0 770.5 529.5Q795.0 556.0 806.5 583.5Q818.0 611.0 812.5 632.0Q807.0 653.0 787.0 660.0Q767.0 667.0 738.5 657.5Q710.0 648.0 682.0 625.5Q654.0 603.0 632.5 574.0Q611.0 545.0 598.5 520.0Q586.0 495.0 581.5 482.0Q577.0 469.0 574.5 473.5Q572.0 478.0 565.5 498.0Q559.0 518.0 544.0 547.5Q529.0 577.0 505.0 605.5Q481.0 634.0 453.0 653.0Q425.0 672.0 399.5 675.0Q374.0 678.0 359.5 664.5Q345.0 651.0 346.0 626.0Q347.0 601.0 363.5 571.5Q380.0 542.0 407.5 516.5Q435.0 491.0 463.5 473.5Q492.0 456.0 512.0 448.0Q532.0 440.0 536.0 437.5Q540.0 435.0 527.5 431.0Q515.0 427.0 489.0 416.5Q463.0 406.0 432.5 386.0Q402.0 366.0 377.0 339.0Q352.0 312.0 340.5 284.0Q329.0 256.0 334.5 235.0Q340.0 214.0 360.0 207.0Q380.0 200.0 409.0 209.5Q438.0 219.0 466.5 242.0Q495.0 265.0 517.0 294.0Q539.0 323.0 551.0 348.5Q563.0 374.0 568.0 387.0Q573.0 400.0 575.5 395.5Q578.0 391.0 584.5 371.0Q591.0 351.0 606.5 321.0Q622.0 291.0 646.0 262.0Q670.0 233.0 699.0 214.0Q728.0 195.0 753.5 191.5Q779.0 188.0 794.0 202.0Q809.0 216.0 807.5 241.5Q806.0 267.0 789.0 297.0Q772.0 327.0 744.5 353.0Q717.0 379.0 688.5 396.0Q660.0 413.0 639.5 421.0Q619.0 429.0 614.5 432.0Q610.0 435.0 623.0 439.0Q636.0 443.0 662.5 453.5Q689.0 464.0 720.0 484.5Q751.0 505.0 776.0 532.0Q801.0 559.0 813.0 587.5Q825.0 616.0 819.0 637.5Q813.0 659.0 792.5 666.0Q772.0 673.0 743.0 663.5Q714.0 654.0 685.0 631.0Q656.0 608.0 634.0 578.0Q612.0 548.0 599.5 522.0Q587.0 496.0 582.0 483.0Q577.0 470.0 574.5 474.5Q572.0 479.0 565.5 500.0Q559.0 521.0 543.5 551.0Q528.0 581.0 503.5 610.5Q479.0 640.0 449.5 659.5Q420.0 679.0 394.0 682.0Q368.0 685.0 353.0 671.0Q338.0 657.0 339.0 631.0Q340.0 605.0 357.5 575.0Q375.0 545.0 403.0 518.5Q431.0 492.0 460.0 474.5Q489.0 457.0 509.5 449.0Q530.0 441.0 534.5 438.0Q539.0 435.0 526.0 431.0Q513.0 427.0 486.5 416.0Q460.0 405.0 428.5 385.0Q397.0 365.0 371.5 337.0Q346.0 309.0 334.0 280.0Q322.0 251.0 327.5 229.5Q333.0 208.0 354.0 200.5Q375.0 193.0 404.5 203.0Q434.0 213.0 463.5 236.5Q493.0 260.0 515.5 290.0Q538.0 320.0 550.5 346.5Q563.0 373.0 568.0 386.0Q573.0 399.0 575.5 394.5Q578.0 390.0 585.0 369.0Q592.0 348.0 607.5 317.5Q623.0 287.0 648.0 257.0Q673.0 227.0 702.5 207.5Q732.0 188.0 758.5 185.0Q785.0 182.0 800.0 195.5Q815.0 209.0 814.0 235.5Q813.0 262.0 795.5 292.5Q778.0 323.0 749.5 350.0Q721.0 377.0 691.5 395.0Q662.0 413.0 641.0 421.0Q620.0 429.0 615.5 432.0Q611.0 435.0 624.5 439.0Q638.0 443.0 665.0 454.0Q692.0 465.0 723.5 485.5Q755.0 506.0 781.5 534.5Q808.0 563.0 820.0 592.0Q832.0 621.0 826.0 643.0Q820.0 665.0 799.0 672.5Q778.0 680.0 748.0 670.0Q718.0 660.0 688.0 636.0Q658.0 612.0 635.5 581.5Q613.0 551.0 600.0 524.5Q587.0 498.0 582.0 484.5Q577.0 471.0 574.5 475.5Q572.0 480.0 565.0 501.5Q558.0 523.0 542.0 554.0Q526.0 585.0 501.0 615.5Q476.0 646.0 446.0 665.5Q416.0 685.0 389.0 688.5Q362.0 692.0 347.0 678.0Q332.0 664.0 333.0 637.0Q334.0 610.0 351.5 579.0Q369.0 548.0 398.0 521.0Q427.0 494.0 457.0 476.0Q487.0 458.0 508.0 449.5Q529.0 441.0 533.5 438.0Q538.0 435.0 524.5 431.0Q511.0 427.0 484.0 416.0Q457.0 405.0 424.5 384.0Q392.0 363.0 365.5 334.0Q339.0 305.0 327.0 275.5Q315.0 246.0 321.0 224.0Q327.0 202.0 348.5 194.5Q370.0 187.0 400.0 196.5Q430.0 206.0 460.0 230.5Q490.0 255.0 513.5 286.0Q537.0 317.0 550.0 344.0Q563.0 371.0 568.0 384.5Q573.0 398.0 575.5 393.5Q578.0 389.0 585.0 367.5Q592.0 346.0 608.0 314.5Q624.0 283.0 649.5 252.5Q675.0 222.0 705.5 201.5Q736.0 181.0 763.0 178.0Q790.0 175.0 806.0 189.0Q822.0 203.0 820.5 230.0Q819.0 257.0 801.0 288.5Q783.0 320.0 754.0 348.0Q725.0 376.0 694.5 394.0Q664.0 412.0 643.0 420.5Q622.0 429.0 617.0 432.0Q612.0 435.0 625.5 439.0Q639.0 443.0 667.0 454.5Q695.0 466.0 727.5 487.0Q760.0 508.0 787.0 537.0Q814.0 566.0 826.0 596.0Q838.0 626.0 832.5 648.5Q827.0 671.0 805.0 679.0Q783.0 687.0 752.5 677.0Q722.0 667.0 691.5 642.0Q661.0 617.0 637.5 585.5Q614.0 554.0 600.5 527.0Q587.0 500.0 582.0 486.0Q577.0 472.0 574.5 477.0Q572.0 482.0 565.0 503.5Q558.0 525.0 541.5 557.0Q525.0 589.0 499.0 620.0Q473.0 651.0 442.5 671.5Q412.0 692.0 384.5 695.5Q357.0 699.0 341.0 684.5Q325.0 670.0 326.0 642.5Q327.0 615.0 345.5 583.0Q364.0 551.0 393.5 523.0Q423.0 495.0 454.0 476.5Q485.0 458.0 506.5 449.5Q528.0 441.0 519.0 434.0Q510.0 427.0 481.5 415.5Q453.0 404.0 420.0 382.5Q387.0 361.0 360.0 331.5Q333.0 302.0 320.5 271.5Q308.0 241.0 314.0 218.5Q320.0 196.0 342.0 188.0Q364.0 180.0 395.0 190.0Q426.0 200.0 457.0 225.5Q488.0 251.0 512.0 282.5Q536.0 314.0 549.0 341.5Q562.0 369.0 567.5 383.0Q573.0 397.0 575.5 392.5Q578.0 388.0 585.0 366.0Q592.0 344.0 609.0 311.5Q626.0 279.0 652.0 247.5Q678.0 216.0 709.0 195.0Q740.0 174.0 768.0 171.0Q796.0 168.0 812.0 182.5Q828.0 197.0 827.0 225.0Q826.0 253.0 807.5 285.0Q789.0 317.0 759.0 345.5Q729.0 374.0 698.0 392.5Q667.0 411.0 645.0 420.0Q623.0 429.0 618.0 432.0Q613.0 435.0 627.0 439.0Q641.0 443.0 669.5 455.0Q698.0 467.0 731.5 488.5Q765.0 510.0 792.5 540.0Q820.0 570.0 832.5 600.5Q845.0 631.0 839.0 654.5Q833.0 678.0 811.0 685.5Q789.0 693.0 757.5 683.0Q726.0 673.0 694.5 647.5Q663.0 622.0 639.0 590.0Q615.0 558.0 601.5 530.0Q588.0 502.0 582.5 487.5Q577.0 473.0 574.5 478.0Q572.0 483.0 564.5 505.5Q557.0 528.0 540.5 560.5Q524.0 593.0 497.5 625.0Q471.0 657.0 439.5 678.0Q408.0 699.0 379.5 702.5Q351.0 706.0 335.0 691.0Q319.0 676.0 320.0 648.0Q321.0 620.0 339.5 587.0Q358.0 554.0 388.5 525.5Q419.0 497.0 450.5 478.0Q482.0 459.0 504.5 450.0Q527.0 441.0 532.0 438.0Q537.0 435.0 522.5 431.0Q508.0 427.0 479.0 415.0Q450.0 403.0 416.0 381.0Q382.0 359.0 354.5 328.5Q327.0 298.0 314.0 267.0Q301.0 236.0 307.0 212.5Q313.0 189.0 336.0 181.0Q359.0 173.0 390.5 183.5Q422.0 194.0 454.0 220.0Q486.0 246.0 510.5 278.5Q535.0 311.0 548.5 339.5Q562.0 368.0 567.5 382.0Q573.0 396.0 575.5 391.0Q578.0 386.0 585.5 363.5Q593.0 341.0 610.0 308.0Q627.0 275.0 654.0 242.5Q681.0 210.0 713.0 189.0Q745.0 168.0 773.5 164.5Q802.0 161.0 818.5 176.0Q835.0 191.0 833.5 219.5Q832.0 248.0 813.0 281.0Q794.0 314.0 763.5 343.0Q733.0 372.0 701.0 391.5Q669.0 411.0 646.5 420.0Q624.0 429.0 619.0 432.0Q614.0 435.0 628.5 439.5Q643.0 444.0 672.0 455.5Q701.0 467.0 735.5 489.5Q770.0 512.0 798.0 542.5Q826.0 573.0 839.0 604.5Q852.0 636.0 846.0 660.0Q840.0 684.0 817.0 692.0Q794.0 700.0 762.0 689.5Q730.0 679.0 697.5 653.0Q665.0 627.0 640.5 594.0Q616.0 561.0 602.0 532.0Q588.0 503.0 582.5 488.5Q577.0 474.0 574.5 479.0Q572.0 484.0 564.5 507.0Q557.0 530.0 539.5 563.5Q522.0 597.0 495.0 630.0Q468.0 663.0 435.5 684.5Q403.0 706.0 374.0 709.5Q345.0 713.0 328.5 697.5Q312.0 682.0 313.5 653.0Q315.0 624.0 334.0 590.5Q353.0 557.0 384.0 527.5Q415.0 498.0 447.5 478.5Q480.0 459.0 502.5 450.0Q525.0 441.0 530.5 438.0Q536.0 435.0 521.0 430.5Q506.0 426.0 476.5 414.0Q447.0 402.0 412.0 379.5Q377.0 357.0 348.5 326.0Q320.0 295.0 307.0 263.0Q294.0 231.0 300.5 207.0Q307.0 183.0 330.0 175.0Q353.0 167.0 385.5 177.5Q418.0 188.0 451.0 214.5Q484.0 241.0 509.0 274.5Q534.0 308.0 548.0 337.0Q562.0 366.0 567.0 380.5Q572.0 395.0 575.0 390.0Q578.0 385.0 585.5 362.0Q593.0 339.0 610.5 305.0Q628.0 271.0 655.5 238.0Q683.0 205.0 716.0 183.0Q749.0 161.0 778.0 157.5Q807.0 154.0 824.0 169.5Q841.0 185.0 840.0 214.0Q839.0 243.0 819.5 277.0Q800.0 311.0 768.5 341.0Q737.0 371.0 704.0 390.5Q671.0 410.0 648.0 419.5Q625.0 429.0 620.0 432.0Q615.0 435.0 630.0 439.5Q645.0 444.0 675.0 456.0Q705.0 468.0 740.0 491.0Q775.0 514.0 804.0 545.5Q833.0 577.0 846.0 609.0Q859.0 641.0 852.5 665.5Q846.0 690.0 823.0 698.0Q800.0 706.0 767.0 695.5Q734.0 685.0 700.5 658.0Q667.0 631.0 642.0 597.5Q617.0 564.0 602.5 534.5Q588.0 505.0 583.0 490.0Q578.0 475.0 575.0 480.0Q572.0 485.0 564.0 508.5Q556.0 532.0 538.5 566.5Q521.0 601.0 493.0 634.5Q465.0 668.0 432.0 690.0Q399.0 712.0 369.5 715.5Q340.0 719.0 323.0 703.5Q306.0 688.0 307.0 658.5Q308.0 629.0 327.5 594.5Q347.0 560.0 379.0 530.0Q411.0 500.0 444.5 480.0Q478.0 460.0 501.0 450.5Q524.0 441.0 529.5 438.0Q535.0 435.0 520.0 430.5Q505.0 426.0 474.5 413.5Q444.0 401.0 408.5 378.0Q373.0 355.0 343.5 323.5Q314.0 292.0 300.5 259.0Q287.0 226.0 293.5 201.5Q300.0 177.0 324.0 168.5Q348.0 160.0 381.5 171.0Q415.0 182.0 448.0 209.0Q481.0 236.0 507.0 270.5Q533.0 305.0 547.0 334.5Q561.0 364.0 566.5 379.0Q572.0 394.0 575.0 389.0Q578.0 384.0 586.0 360.0Q594.0 336.0 612.0 301.5Q630.0 267.0 658.0 233.0Q686.0 199.0 719.5 176.5Q753.0 154.0 783.0 150.5Q813.0 147.0 830.5 163.0Q848.0 179.0 846.5 209.0Q845.0 239.0 825.0 273.5Q805.0 308.0 773.0 338.5Q741.0 369.0 707.5 389.5Q674.0 410.0 650.0 419.5Q626.0 429.0 621.0 432.0Q616.0 435.0 631.0 439.5Q646.0 444.0 677.0 456.5Q708.0 469.0 744.0 492.5Q780.0 516.0 809.5 548.0Q839.0 580.0 852.5 613.0Q866.0 646.0 859.5 671.0Q853.0 696.0 829.0 704.5Q805.0 713.0 771.0 702.0Q737.0 691.0 703.5 663.5Q670.0 636.0 644.0 601.5Q618.0 567.0 603.5 537.0Q589.0 507.0 583.5 491.5Q578.0 476.0 575.0 481.5Q572.0 487.0 564.0 511.0Q556.0 535.0 538.0 570.0Q520.0 605.0 491.5 639.5Q463.0 674.0 429.0 696.5Q395.0 719.0 364.5 722.5Q334.0 726.0 316.5 710.0Q299.0 694.0 300.5 664.0Q302.0 634.0 322.0 598.5Q342.0 563.0 374.5 532.0Q407.0 501.0 441.0 481.0Q475.0 461.0 499.0 451.5Q523.0 442.0 528.5 438.5Q534.0 435.0 518.5 430.5Q503.0 426.0 472.0 413.5Q441.0 401.0 404.5 377.0Q368.0 353.0 338.0 320.5Q308.0 288.0 294.0 254.5Q280.0 221.0 287.0 196.0Q294.0 171.0 318.0 162.5Q342.0 154.0 376.5 165.0Q411.0 176.0 445.0 203.5Q479.0 231.0 505.5 266.0Q532.0 301.0 546.5 331.5Q561.0 362.0 566.5 377.5Q572.0 393.0 575.0 388.0Q578.0 383.0 586.0 358.5Q594.0 334.0 612.5 298.5Q631.0 263.0 660.0 228.0Q689.0 193.0 723.0 170.5Q757.0 148.0 788.0 144.0Q819.0 140.0 836.5 156.5Q854.0 173.0 853.0 203.5Q852.0 234.0 831.5 269.5Q811.0 305.0 778.0 336.5Q745.0 368.0 710.5 388.5Q676.0 409.0 652.0 418.5Q628.0 428.0 622.5 431.5Q617.0 435.0 632.5 439.5Q648.0 444.0 679.5 457.0Q711.0 470.0 748.0 494.0Q785.0 518.0 815.0 551.0Q845.0 584.0 859.0 618.0Q873.0 652.0 866.5 677.0Q860.0 702.0 835.0 711.0Q810.0 720.0 775.5 708.5Q741.0 697.0 706.5 669.0Q672.0 641.0 645.5 605.5Q619.0 570.0 604.0 539.0Q589.0 508.0 583.5 492.5Q578.0 477.0 575.0 482.5Q572.0 488.0 564.0 512.5Q556.0 537.0 537.0 573.0Q518.0 609.0 489.0 644.0Q460.0 679.0 425.0 702.5Q390.0 726.0 359.0 729.5Q328.0 733.0 310.5 716.5Q293.0 700.0 294.0 669.0Q295.0 638.0 315.5 602.0Q336.0 566.0 369.5 534.5Q403.0 503.0 438.0 482.0Q473.0 461.0 497.5 451.5Q522.0 442.0 527.5 438.5Q533.0 435.0 517.0 430.5Q501.0 426.0 469.5 413.0Q438.0 400.0 400.5 375.5Q363.0 351.0 332.5 318.0Q302.0 285.0 288.0 250.5Q274.0 216.0 280.5 190.5Q287.0 165.0 312.0 156.0Q337.0 147.0 372.0 158.5Q407.0 170.0 442.0 198.5Q477.0 227.0 504.0 262.5Q531.0 298.0 546.0 329.5Q561.0 361.0 566.5 376.5Q572.0 392.0 575.0 387.0Q578.0 382.0 586.5 357.0Q595.0 332.0 613.5 295.5Q632.0 259.0 661.5 223.5Q691.0 188.0 726.5 164.5Q762.0 141.0 793.5 137.0Q825.0 133.0 843.0 150.0Q861.0 167.0 859.5 198.0Q858.0 229.0 837.0 265.5Q816.0 302.0 782.5 334.0Q749.0 366.0 713.5 387.0Q678.0 408.0 653.5 418.0Q629.0 428.0 623.5 431.5Q618.0 435.0 634.0 439.5Q650.0 444.0 682.0 457.5Q714.0 471.0 752.0 495.5Q790.0 520.0 821.0 553.5Q852.0 587.0 866.0 622.0Q880.0 657.0 873.0 683.0Q866.0 709.0 841.0 717.5Q816.0 726.0 780.5 714.5Q745.0 703.0 709.5 674.5Q674.0 646.0 647.0 609.5Q620.0 573.0 604.5 541.5Q589.0 510.0 583.5 494.0Q578.0 478.0 575.0 483.5Q572.0 489.0 563.5 514.0Q555.0 539.0 536.0 576.0Q517.0 613.0 487.0 649.0Q457.0 685.0 421.5 708.5Q386.0 732.0 354.5 736.0Q323.0 740.0 304.5 723.0Q286.0 706.0 287.5 674.5Q289.0 643.0 310.0 606.0Q331.0 569.0 365.0 537.0Q399.0 505.0 434.5 483.5Q470.0 462.0 495.5 452.0Q521.0 442.0 526.5 438.5Q532.0 435.0 516.0 430.0Q500.0 425.0 467.0 412.0Q434.0 399.0 396.0 374.0Q358.0 349.0 326.5 315.0Q295.0 281.0 281.0 246.0Q267.0 211.0 273.5 184.5Q280.0 158.0 305.5 149.0Q331.0 140.0 367.0 152.0Q403.0 164.0 439.0 193.0Q475.0 222.0 502.5 258.5Q530.0 295.0 545.5 327.0Q561.0 359.0 566.5 375.0Q572.0 391.0 575.0 385.5Q578.0 380.0 586.5 354.5Q595.0 329.0 614.0 292.0Q633.0 255.0 663.5 218.5Q694.0 182.0 730.0 158.0Q766.0 134.0 798.0 130.5Q830.0 127.0 848.5 144.0Q867.0 161.0 865.5 193.0Q864.0 225.0 843.0 262.0Q822.0 299.0 787.5 332.0Q753.0 365.0 717.0 386.5Q681.0 408.0 655.5 418.0Q630.0 428.0 624.5 431.5Q619.0 435.0 635.0 440.0Q651.0 445.0 684.0 458.0Q717.0 471.0 755.5 496.5Q794.0 522.0 826.0 556.0Q858.0 590.0 872.5 626.0Q887.0 662.0 880.0 688.5Q873.0 715.0 847.0 724.0Q821.0 733.0 785.0 721.0Q749.0 709.0 712.5 679.5Q676.0 650.0 648.5 613.0Q621.0 576.0 605.5 544.0Q590.0 512.0 584.0 495.5Q578.0 479.0 575.0 484.5Q572.0 490.0 563.5 516.0Q555.0 542.0 535.5 579.5Q516.0 617.0 485.5 654.0Q455.0 691.0 418.5 715.0Q382.0 739.0 349.5 743.0Q317.0 747.0 298.5 729.5Q280.0 712.0 281.0 680.0Q282.0 648.0 303.5 610.0Q325.0 572.0 360.0 539.0Q395.0 506.0 431.5 484.0Q468.0 462.0 493.5 452.0Q519.0 442.0 525.0 438.5Q531.0 435.0 514.5 430.0Q498.0 425.0 464.5 411.5Q431.0 398.0 392.0 372.5Q353.0 347.0 321.0 312.5Q289.0 278.0 274.5 242.0Q260.0 206.0 267.0 179.0Q274.0 152.0 300.0 143.0Q326.0 134.0 362.5 146.0Q399.0 158.0 435.5 187.5Q472.0 217.0 500.5 254.5Q529.0 292.0 544.5 324.5Q560.0 357.0 566.0 373.5Q572.0 390.0 575.5 384.5Q579.0 379.0 587.5 353.0Q596.0 327.0 615.5 289.0Q635.0 251.0 666.0 213.5Q697.0 176.0 733.5 151.5Q770.0 127.0 803.0 123.5Q836.0 120.0 855.0 137.0Q874.0 154.0 872.5 187.0Q871.0 220.0 849.0 258.0Q827.0 296.0 792.0 329.5Q757.0 363.0 720.0 385.0Q683.0 407.0 657.0 417.5Q631.0 428.0 625.5 431.5Q620.0 435.0 636.5 440.0Q653.0 445.0 686.5 458.5Q720.0 472.0 759.5 498.0Q799.0 524.0 831.5 559.0Q864.0 594.0 879.0 630.5Q894.0 667.0 886.5 694.0Q879.0 721.0 853.0 730.0Q827.0 739.0 790.0 727.0Q753.0 715.0 716.0 685.0Q679.0 655.0 650.5 617.0Q622.0 579.0 606.0 546.0Q590.0 513.0 584.0 496.5Q578.0 480.0 574.5 485.5Q571.0 491.0 562.5 517.5Q554.0 544.0 534.5 582.5Q515.0 621.0 483.5 658.5Q452.0 696.0 415.0 721.0Q378.0 746.0 344.5 750.0Q311.0 754.0 292.0 736.5Q273.0 719.0 274.5 685.5Q276.0 652.0 298.0 613.5Q320.0 575.0 355.5 541.5Q391.0 508.0 428.5 485.5Q466.0 463.0 492.0 452.5Q518.0 442.0 524.0 438.5Q530.0 435.0 513.0 430.0Q496.0 425.0 462.0 411.0Q428.0 397.0 388.0 371.0Q348.0 345.0 315.5 309.5Q283.0 274.0 268.0 237.5Q253.0 201.0 260.0 173.5Q267.0 146.0 293.5 136.5Q320.0 127.0 357.5 139.5Q395.0 152.0 432.5 182.0Q470.0 212.0 499.0 250.5Q528.0 289.0 544.0 322.5Q560.0 356.0 566.0 372.5Q572.0 389.0 575.5 383.5Q579.0 378.0 587.5 351.5Q596.0 325.0 616.0 286.0Q636.0 247.0 667.5 209.0Q699.0 171.0 736.5 146.0Q774.0 121.0 808.0 117.0Q842.0 113.0 861.0 130.5Q880.0 148.0 878.5 181.5Q877.0 215.0 855.0 254.0Q833.0 293.0 797.0 327.0Q761.0 361.0 723.0 384.0Q685.0 407.0 659.0 417.5Q633.0 428.0 627.0 431.5Q621.0 435.0 638.0 440.0Q655.0 445.0 689.0 459.0Q723.0 473.0 763.5 499.5Q804.0 526.0 837.0 561.5Q870.0 597.0 885.5 634.5Q901.0 672.0 893.5 699.5Q886.0 727.0 859.0 736.5Q832.0 746.0 794.5 733.5Q757.0 721.0 719.0 690.5Q681.0 660.0 652.0 621.5Q623.0 583.0 606.5 549.0Q590.0 515.0 584.0 498.0Q578.0 481.0 574.5 487.0Q571.0 493.0 562.5 520.0Q554.0 547.0 533.5 586.0Q513.0 625.0 481.0 663.5Q449.0 702.0 411.0 727.5Q373.0 753.0 339.5 757.0Q306.0 761.0 286.0 743.0Q266.0 725.0 267.5 691.0Q269.0 657.0 291.5 617.5Q314.0 578.0 350.5 543.5Q387.0 509.0 425.0 486.5Q463.0 464.0 490.0 453.0Q517.0 442.0 523.0 438.5Q529.0 435.0 511.5 430.0Q494.0 425.0 459.5 410.5Q425.0 396.0 384.0 369.5Q343.0 343.0 309.5 307.0Q276.0 271.0 261.0 233.5Q246.0 196.0 253.5 168.0Q261.0 140.0 288.0 130.5Q315.0 121.0 353.0 133.5Q391.0 146.0 429.5 177.0Q468.0 208.0 497.5 247.0Q527.0 286.0 543.5 320.0Q560.0 354.0 566.0 371.0Q572.0 388.0 575.5 382.5Q579.0 377.0 588.0 349.5Q597.0 322.0 617.0 282.5Q637.0 243.0 669.5 204.0Q702.0 165.0 740.5 139.5Q779.0 114.0 813.0 110.0Q847.0 106.0 867.0 124.0Q887.0 142.0 885.5 176.5Q884.0 211.0 861.0 250.5Q838.0 290.0 801.5 325.0Q765.0 360.0 726.5 383.0Q688.0 406.0 661.0 417.0Q634.0 428.0 628.0 431.5Q622.0 435.0 639.0 440.0Q656.0 445.0 691.5 459.5Q727.0 474.0 768.0 501.0Q809.0 528.0 843.0 564.5Q877.0 601.0 892.5 639.0Q908.0 677.0 900.5 705.0Q893.0 733.0 865.5 743.0Q838.0 753.0 799.0 740.0Q760.0 727.0 721.5 696.0Q683.0 665.0 653.5 625.5Q624.0 586.0 607.5 551.5Q591.0 517.0 584.5 499.5Q578.0 482.0 574.5 488.0Q571.0 494.0 562.0 521.5Q553.0 549.0 532.5 589.0Q512.0 629.0 479.5 668.5Q447.0 708.0 408.0 733.5Q369.0 759.0 334.5 763.5Q300.0 768.0 280.0 749.5Q260.0 731.0 261.5 696.5Q263.0 662.0 286.0 621.5Q309.0 581.0 346.0 546.0Q383.0 511.0 422.0 487.5Q461.0 464.0 488.5 453.5Q516.0 443.0 522.0 439.0Q528.0 435.0 510.5 430.0Q493.0 425.0 457.5 410.5Q422.0 396.0 380.0 368.5Q338.0 341.0 304.0 304.0Q270.0 267.0 254.5 229.0Q239.0 191.0 246.5 162.5Q254.0 134.0 282.0 124.0Q310.0 114.0 349.0 127.0Q388.0 140.0 427.0 171.5Q466.0 203.0 496.0 243.0Q526.0 283.0 542.5 317.5Q559.0 352.0 565.5 369.5Q572.0 387.0 575.5 381.0Q579.0 375.0 588.0 347.5Q597.0 320.0 618.0 279.5Q639.0 239.0 672.0 199.0Q705.0 159.0 744.0 133.0Q783.0 107.0 818.0 103.0Q853.0 99.0 873.0 117.5Q893.0 136.0 891.5 171.0Q890.0 206.0 867.0 246.5Q844.0 287.0 806.5 322.5Q769.0 358.0 729.5 381.5Q690.0 405.0 662.5 416.0Q635.0 427.0 629.0 431.0Q623.0 435.0 640.5 440.0Q658.0 445.0 694.0 460.0Q730.0 475.0 772.0 502.5Q814.0 530.0 848.5 567.0Q883.0 604.0 898.5 643.0Q914.0 682.0 906.5 711.0Q899.0 740.0 871.0 749.5Q843.0 759.0 803.5 746.0Q764.0 733.0 724.5 701.5Q685.0 670.0 655.0 629.5Q625.0 589.0 608.0 554.0Q591.0 519.0 584.5 501.0Q578.0 483.0 574.5 489.0Q571.0 495.0 562.0 523.0Q553.0 551.0 532.0 592.0Q511.0 633.0 477.5 673.0Q444.0 713.0 404.5 739.5Q365.0 766.0 329.5 770.0Q294.0 774.0 273.5 755.5Q253.0 737.0 255.0 701.5Q257.0 666.0 280.5 625.0Q304.0 584.0 341.5 548.0Q379.0 512.0 419.0 488.5Q459.0 465.0 486.5 454.0Q514.0 443.0 520.5 439.0Q527.0 435.0 509.0 429.5Q491.0 424.0 455.0 409.5Q419.0 395.0 376.5 367.0Q334.0 339.0 299.0 301.5Q264.0 264.0 248.0 225.0Q232.0 186.0 239.5 156.5Q247.0 127.0 275.5 117.5Q304.0 108.0 344.0 121.0Q384.0 134.0 424.0 166.0Q464.0 198.0 494.5 239.0Q525.0 280.0 542.0 315.5Q559.0 351.0 565.5 368.5Q572.0 386.0 575.5 380.0Q579.0 374.0 588.0 346.0Q597.0 318.0 618.5 276.5Q640.0 235.0 673.5 194.5Q707.0 154.0 747.0 127.5Q787.0 101.0 823.0 96.5Q859.0 92.0 879.5 111.0Q900.0 130.0 898.5 165.5Q897.0 201.0 873.0 242.5Q849.0 284.0 811.0 320.5Q773.0 357.0 732.5 381.0Q692.0 405.0 664.0 416.0Q636.0 427.0 630.0 431.0Q624.0 435.0 642.0 440.5Q660.0 446.0 696.5 461.0Q733.0 476.0 776.0 504.0Q819.0 532.0 854.0 570.0Q889.0 608.0 905.0 647.5Q921.0 687.0 913.5 716.5Q906.0 746.0 877.5 756.0Q849.0 766.0 808.5 752.5Q768.0 739.0 728.0 706.5Q688.0 674.0 657.0 633.0Q626.0 592.0 608.5 556.0Q591.0 520.0 584.5 502.0Q578.0 484.0 574.5 490.0Q571.0 496.0 561.5 525.0Q552.0 554.0 530.5 595.5Q509.0 637.0 475.0 678.0Q441.0 719.0 401.0 746.0Q361.0 773.0 325.0 777.0Q289.0 781.0 268.0 762.0Q247.0 743.0 248.5 707.0Q250.0 671.0 274.0 629.0Q298.0 587.0 336.5 550.5Q375.0 514.0 415.5 489.5Q456.0 465.0 484.5 454.0Q513.0 443.0 519.5 439.0Q526.0 435.0 507.5 429.5Q489.0 424.0 452.5 409.0Q416.0 394.0 372.5 366.0Q329.0 338.0 293.5 299.5Q258.0 261.0 241.5 221.0Q225.0 181.0 233.0 151.0Q241.0 121.0 270.0 111.0Q299.0 101.0 339.5 114.5Q380.0 128.0 420.5 160.5Q461.0 193.0 492.0 234.5Q523.0 276.0 541.0 312.5Q559.0 349.0 565.5 367.0Q572.0 385.0 575.5 379.0Q579.0 373.0 588.5 344.0Q598.0 315.0 619.5 273.0Q641.0 231.0 675.5 189.5Q710.0 148.0 750.5 121.0Q791.0 94.0 827.5 89.5Q864.0 85.0 885.0 104.5Q906.0 124.0 904.5 160.5Q903.0 197.0 879.0 239.0Q855.0 281.0 816.0 318.0Q777.0 355.0 736.0 379.5Q695.0 404.0 666.0 415.5Q637.0 427.0 631.0 431.0Q625.0 435.0 643.5 440.5Q662.0 446.0 699.0 461.0Q736.0 476.0 780.0 504.5Q824.0 533.0 859.5 572.0Q895.0 611.0 911.5 651.5Q928.0 692.0 920.0 722.0Q912.0 752.0 883.0 762.0Q854.0 772.0 813.0 758.5Q772.0 745.0 731.0 712.0Q690.0 679.0 658.5 637.0Q627.0 595.0 609.5 558.5Q592.0 522.0 585.0 503.5Q578.0 485.0 574.5 491.5Q571.0 498.0 561.5 527.0Q552.0 556.0 530.0 598.5Q508.0 641.0 473.5 683.0Q439.0 725.0 397.5 752.0Q356.0 779.0 319.5 783.5Q283.0 788.0 261.5 768.5Q240.0 749.0 242.0 712.5Q244.0 676.0 268.5 633.0Q293.0 590.0 332.0 553.0Q371.0 516.0 412.5 491.0Q454.0 466.0 483.0 454.5Q512.0 443.0 518.5 439.0Q525.0 435.0 506.5 429.5Q488.0 424.0 450.0 408.5Q412.0 393.0 368.0 364.5Q324.0 336.0 287.5 296.5Q251.0 257.0 234.5 216.5Q218.0 176.0 226.0 145.5Q234.0 115.0 263.5 104.5Q293.0 94.0 334.5 108.0Q376.0 122.0 417.5 155.5Q459.0 189.0 490.5 231.0Q522.0 273.0 540.0 310.0Q558.0 347.0 565.0 365.5Q572.0 384.0 575.5 378.0Q579.0 372.0 588.5 342.5Q598.0 313.0 620.5 270.0Q643.0 227.0 678.0 185.0Q713.0 143.0 754.5 115.0Q796.0 87.0 833.0 82.5Q870.0 78.0 891.5 98.0Q913.0 118.0 911.5 155.0Q910.0 192.0 885.0 235.0Q860.0 278.0 820.5 316.0Q781.0 354.0 739.0 379.0Q697.0 404.0 668.0 415.5Q639.0 427.0 632.5 431.0Q626.0 435.0 644.5 440.5Q663.0 446.0 701.0 461.5Q739.0 477.0 784.0 506.0Q829.0 535.0 865.5 575.0Q902.0 615.0 918.5 656.0Q935.0 697.0 927.0 727.5Q919.0 758.0 889.5 768.5Q860.0 779.0 818.0 765.5Q776.0 752.0 734.0 718.0Q692.0 684.0 660.0 641.0Q628.0 598.0 610.0 561.0Q592.0 524.0 585.0 505.0Q578.0 486.0 574.5 492.5Q571.0 499.0 561.0 528.5Q551.0 558.0 529.0 601.5Q507.0 645.0 471.5 687.5Q436.0 730.0 394.0 758.0Q352.0 786.0 314.5 790.5Q277.0 795.0 255.5 775.0Q234.0 755.0 235.5 717.5Q237.0 680.0 262.0 636.5Q287.0 593.0 327.0 555.0Q367.0 517.0 409.5 492.0Q452.0 467.0 481.5 455.0Q511.0 443.0 517.5 439.0Q524.0 435.0 505.0 429.5Q486.0 424.0 447.5 408.0Q409.0 392.0 364.0 363.0Q319.0 334.0 282.0 294.0Q245.0 254.0 228.0 212.5Q211.0 171.0 219.5 140.0Q228.0 109.0 258.0 98.5Q288.0 88.0 330.0 101.5Q372.0 115.0 414.5 149.5Q457.0 184.0 489.0 227.0Q521.0 270.0 539.5 307.5Q558.0 345.0 568.5 358.0Q579.0 371.0 589.0 340.5Q599.0 310.0 621.5 266.5Q644.0 223.0 679.5 180.0Q715.0 137.0 757.5 109.0Q800.0 81.0 838.0 76.5Q876.0 72.0 897.5 92.0Q919.0 112.0 917.5 149.5Q916.0 187.0 891.0 231.0Q866.0 275.0 825.0 313.5Q784.0 352.0 742.0 377.5Q700.0 403.0 670.0 415.0Q640.0 427.0 633.5 431.0Q627.0 435.0 646.0 440.5Q665.0 446.0 703.5 462.0Q742.0 478.0 787.5 507.5Q833.0 537.0 870.5 577.5Q908.0 618.0 925.0 660.0Q942.0 702.0 934.0 733.0Q926.0 764.0 895.5 775.0Q865.0 786.0 822.5 772.0Q780.0 758.0 737.0 723.5Q694.0 689.0 661.5 645.0Q629.0 601.0 610.5 563.0Q592.0 525.0 585.0 506.0Q578.0 487.0 574.5 493.5Q571.0 500.0 561.0 530.5Q551.0 561.0 528.0 605.0Q505.0 649.0 469.0 692.5Q433.0 736.0 390.5 764.5Q348.0 793.0 309.5 797.5Q271.0 802.0 249.0 781.5Q227.0 761.0 229.0 723.0Q231.0 685.0 256.5 640.5Q282.0 596.0 323.0 557.5Q364.0 519.0 406.5 493.0Q449.0 467.0 479.0 455.0Q509.0 443.0 516.0 439.0Q523.0 435.0 503.5 429.5Q484.0 424.0 445.0 408.0Q406.0 392.0 360.0 362.0Q314.0 332.0 276.5 291.0Q239.0 250.0 221.5 208.0Q204.0 166.0 212.5 134.5Q221.0 103.0 251.5 92.0Q282.0 81.0 325.0 95.0Q368.0 109.0 411.5 144.0Q455.0 179.0 487.5 223.0Q520.0 267.0 539.0 305.5Q558.0 344.0 565.0 363.5Q572.0 383.0 575.5 376.0Q579.0 369.0 589.0 338.5Q599.0 308.0 622.0 263.5Q645.0 219.0 681.5 175.0Q718.0 131.0 761.0 102.5Q804.0 74.0 842.5 69.5Q881.0 65.0 903.5 85.5Q926.0 106.0 924.0 144.5Q922.0 183.0 896.5 227.5Q871.0 272.0 829.5 311.0Q788.0 350.0 745.0 376.0Q702.0 402.0 671.5 414.5Q641.0 427.0 634.5 431.0Q628.0 435.0 647.5 441.0Q667.0 447.0 706.5 463.0Q746.0 479.0 792.0 509.0Q838.0 539.0 876.0 580.5Q914.0 622.0 931.5 664.5Q949.0 707.0 940.5 739.0Q932.0 771.0 901.0 781.5Q870.0 792.0 827.0 778.0Q784.0 764.0 740.5 728.5Q697.0 693.0 663.5 648.5Q630.0 604.0 611.5 565.5Q593.0 527.0 585.5 507.5Q578.0 488.0 574.5 494.5Q571.0 501.0 561.0 532.0Q551.0 563.0 527.5 608.0Q504.0 653.0 467.5 697.5Q431.0 742.0 387.5 771.0Q344.0 800.0 305.0 804.5Q266.0 809.0 243.5 788.5Q221.0 768.0 222.5 729.0Q224.0 690.0 250.0 644.5Q276.0 599.0 318.0 559.5Q360.0 520.0 403.5 494.0Q447.0 468.0 477.5 455.5Q508.0 443.0 515.0 439.0Q522.0 435.0 502.5 429.0Q483.0 423.0 443.0 407.0Q403.0 391.0 356.0 360.5Q309.0 330.0 271.0 288.5Q233.0 247.0 215.0 204.0Q197.0 161.0 205.5 128.5Q214.0 96.0 245.5 85.5Q277.0 75.0 320.5 89.0Q364.0 103.0 408.0 138.5Q452.0 174.0 485.5 219.0Q519.0 264.0 538.0 303.0Q557.0 342.0 564.5 362.0Q572.0 382.0 575.5 375.0Q579.0 368.0 589.5 337.0Q600.0 306.0 623.5 260.5Q647.0 215.0 684.0 170.5Q721.0 126.0 764.5 96.5Q808.0 67.0 847.5 62.5Q887.0 58.0 909.5 78.5Q932.0 99.0 930.5 138.5Q929.0 178.0 903.0 223.5Q877.0 269.0 834.5 309.0Q792.0 349.0 748.0 375.5Q704.0 402.0 673.0 414.0Q642.0 426.0 635.5 430.5Q629.0 435.0 648.5 441.0Q668.0 447.0 708.5 463.5Q749.0 480.0 796.0 510.5Q843.0 541.0 882.0 583.0Q921.0 625.0 938.5 668.5Q956.0 712.0 947.5 744.5Q939.0 777.0 907.5 788.0Q876.0 799.0 831.5 784.5Q787.0 770.0 743.0 734.0Q699.0 698.0 665.0 653.0Q631.0 608.0 612.0 568.5Q593.0 529.0 585.5 509.0Q578.0 489.0 574.5 495.5Q571.0 502.0 560.5 533.5Q550.0 565.0 526.5 611.0Q503.0 657.0 465.5 702.0Q428.0 747.0 383.5 776.5Q339.0 806.0 299.5 811.0Q260.0 816.0 237.0 795.0Q214.0 774.0 216.0 734.0Q218.0 694.0 244.5 648.0Q271.0 602.0 313.5 562.0Q356.0 522.0 400.5 495.0Q445.0 468.0 476.0 456.0Q507.0 444.0 514.0 439.5Q521.0 435.0 501.0 429.0Q481.0 423.0 440.5 406.5Q400.0 390.0 352.0 359.0Q304.0 328.0 265.0 285.5Q226.0 243.0 208.5 199.5Q191.0 156.0 199.5 123.0Q208.0 90.0 239.5 79.0Q271.0 68.0 316.0 82.5Q361.0 97.0 405.5 133.0Q450.0 169.0 484.0 215.0Q518.0 261.0 537.5 300.5Q557.0 340.0 564.5 360.5Q572.0 381.0 575.5 374.0Q579.0 367.0 589.5 335.0Q600.0 303.0 624.0 257.0Q648.0 211.0 685.5 165.5Q723.0 120.0 768.0 90.0Q813.0 60.0 853.0 55.5Q893.0 51.0 916.0 72.0Q939.0 93.0 937.0 133.0Q935.0 173.0 908.5 219.5Q882.0 266.0 839.0 306.5Q796.0 347.0 751.5 374.0Q707.0 401.0 675.5 413.5Q644.0 426.0 637.0 430.5Q630.0 435.0 650.0 441.0Q670.0 447.0 711.0 463.5Q752.0 480.0 800.0 511.5Q848.0 543.0 887.5 585.5Q927.0 628.0 945.0 672.5Q963.0 717.0 954.0 750.0Q945.0 783.0 913.0 794.0Q881.0 805.0 836.0 790.5Q791.0 776.0 746.0 739.5Q701.0 703.0 666.5 657.0Q632.0 611.0 612.5 570.5Q593.0 530.0 585.5 510.0Q578.0 490.0 574.5 497.0Q571.0 504.0 560.5 536.0Q550.0 568.0 526.0 614.5Q502.0 661.0 463.5 707.0Q425.0 753.0 380.0 783.0"/>
  </g>
</svg>
