<svg version="1.1" width="1630" height="1060" xmlns="http://www.w3.org/2000/svg">
  <!-- Seed: 2250394840744675409 -->
  <!-- Size: SvgSize.Size11x17 -->
  <!-- Params:
    draw: True
    padding: 0
    spacing: 20
    points_per_step_ring: 50
    bump_range: [RangeFloat] min: 0 max: 0.1
    bump_mult: [RangeInt] min: 2 max: 20
  -->
  <g stroke="black" fill="none">
    <path d="M815.5 530.0Q816.0 530.0 816.0 530.5Q816.0 531.0 816.5 531.0Q817.0 531.0 817.0 531.5Q817.0 532.0 817.0 532.5Q817.0 533.0 816.5 533.0Q816.0 533.0 816.0 533.5Q816.0 534.0 815.5 534.5Q815.0 535.0 814.5 535.5Q814.0 536.0 813.5 535.5Q813.0 535.0 812.5 535.5Q812.0 536.0 811.5 536.0Q811.0 536.0 811.0 535.5Q811.0 535.0 810.0 535.0Q809.0 535.0 808.5 534.5Q808.0 534.0 807.0 533.5Q806.0 533.0 806.0 532.5Q806.0 532.0 805.5 531.5Q805.0 531.0 805.0 530.5Q805.0 530.0 805.0 529.5Q805.0 529.0 804.5 528.0Q804.0 527.0 804.5 526.5Q805.0 526.0 805.0 525.5Q805.0 525.0 805.0 524.0Q805.0 523.0 805.5 522.5Q806.0 522.0 806.5 521.0Q807.0 520.0 807.5 519.0Q808.0 518.0 808.5 518.0Q809.0 518.0 810.0 517.5Q811.0 517.0 811.5 516.0Q812.0 515.0 813.0 515.5Q814.0 516.0 815.0 515.0Q816.0 514.0 817.0 514.0Q818.0 514.0 819.0 514.5Q820.0 515.0 821.0 515.0Q822.0 515.0 823.0 515.5Q824.0 516.0 825.0 516.5Q826.0 517.0 827.0 517.0Q828.0 517.0 828.5 518.5Q829.0 520.0 830.0 520.5Q831.0 521.0 832.0 522.0Q833.0 523.0 833.0 524.0Q833.0 525.0 834.0 526.5Q835.0 528.0 835.5 529.0Q836.0 530.0 835.0 531.0Q834.0 532.0 835.0 533.5Q836.0 535.0 835.5 536.5Q835.0 538.0 834.0 539.0Q833.0 540.0 833.5 542.0Q834.0 544.0 832.5 544.5Q831.0 545.0 830.0 546.0Q829.0 547.0 828.5 549.0Q828.0 551.0 826.5 551.0Q825.0 551.0 823.5 552.0Q822.0 553.0 821.0 554.0Q820.0 555.0 818.0 554.5Q816.0 554.0 814.5 555.0Q813.0 556.0 811.5 556.0Q810.0 556.0 808.5 555.0Q807.0 554.0 805.0 554.5Q803.0 555.0 802.0 553.5Q801.0 552.0 799.5 551.0Q798.0 550.0 796.0 550.0Q794.0 550.0 793.5 548.0Q793.0 546.0 791.5 545.0Q790.0 544.0 788.5 542.5Q787.0 541.0 787.5 539.0Q788.0 537.0 786.5 535.5Q785.0 534.0 784.5 532.0Q784.0 530.0 785.0 528.0Q786.0 526.0 785.0 524.0Q784.0 522.0 785.0 520.0Q786.0 518.0 787.0 516.5Q788.0 515.0 788.0 512.5Q788.0 510.0 790.0 509.0Q792.0 508.0 793.5 506.5Q795.0 505.0 795.5 503.0Q796.0 501.0 798.5 501.0Q801.0 501.0 802.5 499.5Q804.0 498.0 806.0 496.5Q808.0 495.0 810.5 496.0Q813.0 497.0 815.0 495.5Q817.0 494.0 819.5 494.0Q822.0 494.0 824.0 495.5Q826.0 497.0 828.5 496.5Q831.0 496.0 833.0 497.5Q835.0 499.0 836.5 500.5Q838.0 502.0 841.0 502.5Q844.0 503.0 844.5 505.5Q845.0 508.0 846.5 510.0Q848.0 512.0 850.5 513.5Q853.0 515.0 852.0 518.0Q851.0 521.0 853.0 523.0Q855.0 525.0 855.5 527.5Q856.0 530.0 854.5 532.5Q853.0 535.0 854.5 537.5Q856.0 540.0 854.5 542.5Q853.0 545.0 851.5 547.0Q850.0 549.0 850.5 552.5Q851.0 556.0 848.0 557.0Q845.0 558.0 843.5 560.0Q842.0 562.0 840.5 565.0Q839.0 568.0 836.0 568.0Q833.0 568.0 831.0 570.0Q829.0 572.0 826.5 573.5Q824.0 575.0 821.0 574.0Q818.0 573.0 815.0 574.5Q812.0 576.0 809.0 576.0Q806.0 576.0 803.5 574.0Q801.0 572.0 797.5 573.0Q794.0 574.0 792.0 571.5Q790.0 569.0 788.0 567.0Q786.0 565.0 782.5 564.5Q779.0 564.0 778.0 560.5Q777.0 557.0 775.0 555.0Q773.0 553.0 770.5 551.0Q768.0 549.0 768.5 545.5Q769.0 542.0 767.0 539.0Q765.0 536.0 764.5 533.0Q764.0 530.0 765.5 527.0Q767.0 524.0 765.5 520.5Q764.0 517.0 765.5 514.0Q767.0 511.0 769.5 508.5Q772.0 506.0 771.5 502.0Q771.0 498.0 774.5 496.5Q778.0 495.0 780.0 492.5Q782.0 490.0 783.5 486.5Q785.0 483.0 789.0 483.0Q793.0 483.0 795.5 481.0Q798.0 479.0 801.0 477.0Q804.0 475.0 808.0 476.5Q812.0 478.0 815.5 476.0Q819.0 474.0 822.5 474.0Q826.0 474.0 829.0 476.5Q832.0 479.0 836.0 478.0Q840.0 477.0 842.5 479.5Q845.0 482.0 847.5 484.5Q850.0 487.0 854.5 488.0Q859.0 489.0 860.0 493.0Q861.0 497.0 863.5 499.5Q866.0 502.0 869.0 504.5Q872.0 507.0 871.0 511.5Q870.0 516.0 872.5 519.0Q875.0 522.0 876.0 526.0Q877.0 530.0 874.5 533.5Q872.0 537.0 874.0 541.5Q876.0 546.0 874.0 549.5Q872.0 553.0 869.5 555.5Q867.0 558.0 867.0 563.0Q867.0 568.0 863.5 570.0Q860.0 572.0 857.0 574.5Q854.0 577.0 852.0 581.5Q850.0 586.0 845.5 585.5Q841.0 585.0 838.0 588.0Q835.0 591.0 831.5 593.5Q828.0 596.0 823.5 594.0Q819.0 592.0 815.0 594.5Q811.0 597.0 807.0 596.5Q803.0 596.0 799.5 593.0Q796.0 590.0 791.0 591.5Q786.0 593.0 782.5 589.5Q779.0 586.0 776.5 583.0Q774.0 580.0 768.5 579.5Q763.0 579.0 762.5 574.0Q762.0 569.0 759.0 566.0Q756.0 563.0 752.0 559.5Q748.0 556.0 749.5 551.0Q751.0 546.0 748.0 542.5Q745.0 539.0 744.0 534.5Q743.0 530.0 746.0 526.0Q749.0 522.0 746.5 517.0Q744.0 512.0 746.0 508.0Q748.0 504.0 751.5 500.5Q755.0 497.0 754.5 491.5Q754.0 486.0 758.5 483.5Q763.0 481.0 766.5 478.0Q770.0 475.0 772.0 470.0Q774.0 465.0 779.5 465.5Q785.0 466.0 788.5 463.0Q792.0 460.0 796.5 457.0Q801.0 454.0 806.0 456.5Q811.0 459.0 815.5 456.0Q820.0 453.0 824.5 453.5Q829.0 454.0 833.0 457.5Q837.0 461.0 843.0 459.5Q849.0 458.0 852.5 462.0Q856.0 466.0 859.5 469.0Q863.0 472.0 868.5 473.0Q874.0 474.0 875.0 479.5Q876.0 485.0 879.5 489.0Q883.0 493.0 887.0 496.5Q891.0 500.0 889.5 505.5Q888.0 511.0 891.5 515.5Q895.0 520.0 896.0 525.0Q897.0 530.0 894.0 535.0Q891.0 540.0 893.5 545.5Q896.0 551.0 893.5 555.5Q891.0 560.0 887.5 564.0Q884.0 568.0 884.0 574.0Q884.0 580.0 879.0 582.5Q874.0 585.0 870.5 588.5Q867.0 592.0 864.5 598.0Q862.0 604.0 855.5 603.5Q849.0 603.0 845.0 606.5Q841.0 610.0 836.0 613.0Q831.0 616.0 825.5 613.5Q820.0 611.0 815.0 614.0Q810.0 617.0 804.5 616.0Q799.0 615.0 794.5 611.5Q790.0 608.0 783.5 609.5Q777.0 611.0 773.0 607.0Q769.0 603.0 765.0 599.0Q761.0 595.0 754.5 594.0Q748.0 593.0 747.0 586.5Q746.0 580.0 742.0 576.0Q738.0 572.0 733.5 568.0Q729.0 564.0 730.5 557.5Q732.0 551.0 728.5 546.0Q725.0 541.0 724.0 535.5Q723.0 530.0 726.5 524.5Q730.0 519.0 727.0 513.0Q724.0 507.0 727.0 501.5Q730.0 496.0 734.0 492.0Q738.0 488.0 737.5 480.5Q737.0 473.0 743.0 470.5Q749.0 468.0 753.0 464.0Q757.0 460.0 760.0 454.0Q763.0 448.0 770.0 448.5Q777.0 449.0 781.5 445.0Q786.0 441.0 791.5 437.5Q797.0 434.0 803.0 437.0Q809.0 440.0 815.0 436.5Q821.0 433.0 827.0 434.0Q833.0 435.0 838.0 439.0Q843.0 443.0 850.5 441.0Q858.0 439.0 862.0 444.0Q866.0 449.0 870.5 453.5Q875.0 458.0 882.5 459.0Q890.0 460.0 891.0 467.0Q892.0 474.0 896.0 478.5Q900.0 483.0 905.5 487.5Q911.0 492.0 909.0 499.0Q907.0 506.0 911.0 511.5Q915.0 517.0 916.5 523.5Q918.0 530.0 914.0 536.0Q910.0 542.0 913.0 549.0Q916.0 556.0 913.0 561.5Q910.0 567.0 905.0 572.0Q900.0 577.0 900.5 585.0Q901.0 593.0 894.5 596.0Q888.0 599.0 883.5 603.0Q879.0 607.0 876.0 614.0Q873.0 621.0 865.0 620.5Q857.0 620.0 852.0 624.5Q847.0 629.0 841.0 632.5Q835.0 636.0 828.0 633.0Q821.0 630.0 814.5 634.0Q808.0 638.0 801.5 636.5Q795.0 635.0 789.5 630.5Q784.0 626.0 776.0 628.0Q768.0 630.0 763.0 625.0Q758.0 620.0 753.5 615.0Q749.0 610.0 741.0 608.5Q733.0 607.0 731.5 599.5Q730.0 592.0 725.5 587.0Q721.0 582.0 715.0 577.0Q709.0 572.0 711.5 564.0Q714.0 556.0 709.5 550.0Q705.0 544.0 703.5 537.0Q702.0 530.0 706.5 523.5Q711.0 517.0 707.5 509.5Q704.0 502.0 707.5 495.5Q711.0 489.0 716.0 483.5Q721.0 478.0 720.5 469.5Q720.0 461.0 727.5 458.0Q735.0 455.0 740.0 450.0Q745.0 445.0 748.0 437.5Q751.0 430.0 759.5 430.5Q768.0 431.0 774.0 426.0Q780.0 421.0 786.5 417.5Q793.0 414.0 800.5 417.5Q808.0 421.0 815.0 416.5Q822.0 412.0 829.5 413.5Q837.0 415.0 843.0 420.0Q849.0 425.0 858.0 422.5Q867.0 420.0 872.0 426.0Q877.0 432.0 882.0 437.5Q887.0 443.0 896.0 444.5Q905.0 446.0 906.5 454.5Q908.0 463.0 913.0 468.5Q918.0 474.0 924.0 479.0Q930.0 484.0 927.5 493.0Q925.0 502.0 930.0 508.5Q935.0 515.0 936.5 522.5Q938.0 530.0 933.5 537.0Q929.0 544.0 932.5 552.5Q936.0 561.0 932.0 568.0Q928.0 575.0 922.5 580.5Q917.0 586.0 917.5 595.5Q918.0 605.0 910.5 608.5Q903.0 612.0 897.5 617.5Q892.0 623.0 888.0 631.0Q884.0 639.0 875.0 638.5Q866.0 638.0 859.5 643.0Q853.0 648.0 846.0 652.5Q839.0 657.0 830.5 653.0Q822.0 649.0 814.5 653.5Q807.0 658.0 799.0 656.5Q791.0 655.0 784.5 649.5Q778.0 644.0 768.5 646.5Q759.0 649.0 753.5 642.5Q748.0 636.0 742.5 630.5Q737.0 625.0 727.0 623.5Q717.0 622.0 715.5 612.5Q714.0 603.0 709.0 597.0Q704.0 591.0 697.0 585.0Q690.0 579.0 692.5 570.0Q695.0 561.0 690.0 553.5Q685.0 546.0 683.0 538.0Q681.0 530.0 686.5 522.0Q692.0 514.0 688.0 505.0Q684.0 496.0 688.0 488.5Q692.0 481.0 698.0 475.0Q704.0 469.0 703.5 459.0Q703.0 449.0 711.5 445.0Q720.0 441.0 726.0 435.5Q732.0 430.0 736.0 421.0Q740.0 412.0 750.0 413.0Q760.0 414.0 767.0 408.0Q774.0 402.0 781.5 397.5Q789.0 393.0 798.0 397.5Q807.0 402.0 815.5 397.0Q824.0 392.0 832.5 393.5Q841.0 395.0 848.0 401.0Q855.0 407.0 865.0 404.0Q875.0 401.0 881.5 408.0Q888.0 415.0 894.0 421.5Q900.0 428.0 910.0 429.5Q920.0 431.0 921.5 441.0Q923.0 451.0 929.0 457.5Q935.0 464.0 942.5 470.5Q950.0 477.0 947.0 487.0Q944.0 497.0 949.5 504.5Q955.0 512.0 957.0 521.0Q959.0 530.0 953.5 538.5Q948.0 547.0 952.0 556.5Q956.0 566.0 951.5 574.0Q947.0 582.0 940.5 588.5Q934.0 595.0 934.5 606.0Q935.0 617.0 926.0 621.5Q917.0 626.0 910.5 632.0Q904.0 638.0 899.5 647.5Q895.0 657.0 884.5 656.0Q874.0 655.0 867.0 661.0Q860.0 667.0 851.5 672.0Q843.0 677.0 833.5 672.5Q824.0 668.0 815.0 673.0Q806.0 678.0 796.5 676.5Q787.0 675.0 779.5 669.0Q772.0 663.0 761.0 665.5Q750.0 668.0 743.5 660.5Q737.0 653.0 730.5 646.5Q724.0 640.0 713.0 638.0Q702.0 636.0 700.5 625.0Q699.0 614.0 692.5 607.5Q686.0 601.0 678.5 594.0Q671.0 587.0 674.0 576.0Q677.0 565.0 671.0 557.0Q665.0 549.0 663.0 539.5Q661.0 530.0 667.0 521.0Q673.0 512.0 668.5 501.5Q664.0 491.0 669.0 482.5Q674.0 474.0 680.5 467.0Q687.0 460.0 686.5 448.5Q686.0 437.0 696.0 432.5Q706.0 428.0 713.0 421.5Q720.0 415.0 724.5 405.0Q729.0 395.0 740.5 395.5Q752.0 396.0 759.5 389.5Q767.0 383.0 776.0 378.0Q785.0 373.0 795.5 378.0Q806.0 383.0 815.5 377.0Q825.0 371.0 835.0 373.0Q845.0 375.0 853.0 381.5Q861.0 388.0 872.5 385.5Q884.0 383.0 891.0 391.0Q898.0 399.0 905.0 406.0Q912.0 413.0 923.5 415.0Q935.0 417.0 937.0 428.5Q939.0 440.0 945.5 447.5Q952.0 455.0 960.5 462.0Q969.0 469.0 965.5 480.5Q962.0 492.0 968.5 501.0Q975.0 510.0 977.0 520.0Q979.0 530.0 972.5 539.5Q966.0 549.0 971.0 560.0Q976.0 571.0 971.0 580.5Q966.0 590.0 958.5 597.5Q951.0 605.0 951.5 617.5Q952.0 630.0 941.5 634.5Q931.0 639.0 923.5 646.0Q916.0 653.0 911.5 663.5Q907.0 674.0 894.5 673.0Q882.0 672.0 874.0 679.0Q866.0 686.0 856.5 691.5Q847.0 697.0 836.0 692.0Q825.0 687.0 814.5 693.0Q804.0 699.0 793.5 697.0Q783.0 695.0 774.5 688.0Q766.0 681.0 753.5 684.0Q741.0 687.0 733.5 678.5Q726.0 670.0 719.0 662.5Q712.0 655.0 699.5 652.5Q687.0 650.0 685.0 638.0Q683.0 626.0 676.0 618.0Q669.0 610.0 660.0 602.5Q651.0 595.0 654.5 582.5Q658.0 570.0 651.5 561.0Q645.0 552.0 642.5 541.0Q640.0 530.0 647.0 520.0Q654.0 510.0 649.0 498.0Q644.0 486.0 649.5 476.5Q655.0 467.0 663.0 459.0Q671.0 451.0 670.0 437.5Q669.0 424.0 680.5 419.0Q692.0 414.0 699.5 407.0Q707.0 400.0 712.5 388.5Q718.0 377.0 731.0 378.0Q744.0 379.0 752.5 371.5Q761.0 364.0 771.0 358.0Q781.0 352.0 793.0 358.0Q805.0 364.0 815.5 357.5Q826.0 351.0 837.0 353.0Q848.0 355.0 857.5 362.5Q867.0 370.0 880.0 367.0Q893.0 364.0 901.0 373.0Q909.0 382.0 916.5 390.0Q924.0 398.0 937.5 400.5Q951.0 403.0 953.0 415.5Q955.0 428.0 962.5 436.5Q970.0 445.0 979.0 453.0Q988.0 461.0 984.5 474.0Q981.0 487.0 988.5 497.0Q996.0 507.0 998.0 518.5Q1000.0 530.0 992.5 541.0Q985.0 552.0 990.5 564.0Q996.0 576.0 990.0 586.5Q984.0 597.0 976.0 605.5Q968.0 614.0 968.5 628.0Q969.0 642.0 957.0 647.5Q945.0 653.0 937.0 660.5Q929.0 668.0 923.5 680.0Q918.0 692.0 904.0 691.0Q890.0 690.0 881.0 697.5Q872.0 705.0 861.5 711.5Q851.0 718.0 838.5 712.0Q826.0 706.0 814.5 712.5Q803.0 719.0 791.5 717.0Q780.0 715.0 770.0 707.0Q760.0 699.0 746.0 702.5Q732.0 706.0 724.0 696.5Q716.0 687.0 708.0 678.5Q700.0 670.0 686.0 667.5Q672.0 665.0 669.5 651.0Q667.0 637.0 659.5 628.5Q652.0 620.0 642.0 611.5Q632.0 603.0 636.0 589.0Q640.0 575.0 632.0 564.5Q624.0 554.0 622.0 542.0Q620.0 530.0 627.5 518.5Q635.0 507.0 629.5 494.0Q624.0 481.0 630.0 470.0Q636.0 459.0 645.0 450.0Q654.0 441.0 653.0 426.5Q652.0 412.0 664.5 406.5Q677.0 401.0 686.0 393.0Q695.0 385.0 701.0 372.0Q707.0 359.0 721.5 360.0Q736.0 361.0 745.5 353.0Q755.0 345.0 766.0 338.5Q777.0 332.0 790.0 338.5Q803.0 345.0 815.5 337.5Q828.0 330.0 840.0 332.5Q852.0 335.0 862.5 343.5Q873.0 352.0 887.5 348.5Q902.0 345.0 911.0 355.0Q920.0 365.0 928.5 374.0Q937.0 383.0 951.5 385.5Q966.0 388.0 968.0 402.5Q970.0 417.0 978.5 426.0Q987.0 435.0 997.5 444.5Q1008.0 454.0 1003.5 468.5Q999.0 483.0 1007.5 494.0Q1016.0 505.0 1018.5 517.5Q1021.0 530.0 1012.5 542.0Q1004.0 554.0 1010.0 568.0Q1016.0 582.0 1009.5 593.0Q1003.0 604.0 994.0 613.5Q985.0 623.0 985.5 638.5Q986.0 654.0 973.0 660.0Q960.0 666.0 950.5 674.5Q941.0 683.0 935.0 696.5Q929.0 710.0 913.5 708.5Q898.0 707.0 888.0 715.5Q878.0 724.0 866.5 731.0Q855.0 738.0 841.0 731.5Q827.0 725.0 814.5 732.5Q802.0 740.0 789.0 737.5Q776.0 735.0 765.0 726.0Q754.0 717.0 738.5 720.5Q723.0 724.0 714.0 713.5Q705.0 703.0 696.0 693.5Q687.0 684.0 671.5 681.5Q656.0 679.0 654.0 664.0Q652.0 649.0 643.0 639.0Q634.0 629.0 623.0 619.5Q612.0 610.0 616.5 595.0Q621.0 580.0 612.5 568.5Q604.0 557.0 601.5 543.5Q599.0 530.0 607.5 517.5Q616.0 505.0 610.0 490.5Q604.0 476.0 611.0 464.0Q618.0 452.0 627.5 442.0Q637.0 432.0 636.5 416.0Q636.0 400.0 649.5 393.5Q663.0 387.0 672.5 378.5Q682.0 370.0 688.5 355.5Q695.0 341.0 711.5 342.5Q728.0 344.0 738.5 335.0Q749.0 326.0 761.0 319.0Q773.0 312.0 787.5 319.0Q802.0 326.0 815.5 318.0Q829.0 310.0 842.5 312.5Q856.0 315.0 867.5 324.5Q879.0 334.0 895.0 330.0Q911.0 326.0 920.5 337.0Q930.0 348.0 939.5 358.0Q949.0 368.0 965.0 371.0Q981.0 374.0 983.5 390.0Q986.0 406.0 995.0 416.0Q1004.0 426.0 1015.5 436.0Q1027.0 446.0 1022.5 462.0Q1018.0 478.0 1027.0 490.0Q1036.0 502.0 1038.5 516.0Q1041.0 530.0 1032.0 543.0Q1023.0 556.0 1029.5 571.5Q1036.0 587.0 1029.0 599.5Q1022.0 612.0 1011.5 622.0Q1001.0 632.0 1002.0 649.5Q1003.0 667.0 988.5 673.0Q974.0 679.0 964.0 688.5Q954.0 698.0 947.0 712.5Q940.0 727.0 923.5 726.0Q907.0 725.0 895.5 734.0Q884.0 743.0 871.5 750.5Q859.0 758.0 843.5 751.0Q828.0 744.0 814.5 752.0Q801.0 760.0 786.5 757.5Q772.0 755.0 760.0 745.0Q748.0 735.0 731.5 739.0Q715.0 743.0 704.5 731.5Q694.0 720.0 684.5 709.5Q675.0 699.0 658.0 696.0Q641.0 693.0 638.5 676.5Q636.0 660.0 626.5 649.5Q617.0 639.0 605.0 628.5Q593.0 618.0 598.0 601.0Q603.0 584.0 593.5 571.5Q584.0 559.0 581.5 544.5Q579.0 530.0 588.0 516.5Q597.0 503.0 590.5 487.0Q584.0 471.0 591.5 457.5Q599.0 444.0 609.5 433.5Q620.0 423.0 619.5 405.0Q619.0 387.0 634.0 380.5Q649.0 374.0 659.5 364.5Q670.0 355.0 677.0 339.5Q684.0 324.0 701.5 325.5Q719.0 327.0 731.0 317.0Q743.0 307.0 756.0 299.0Q769.0 291.0 785.0 299.0Q801.0 307.0 815.5 298.5Q830.0 290.0 845.0 292.5Q860.0 295.0 872.5 305.5Q885.0 316.0 902.5 311.5Q920.0 307.0 930.5 319.0Q941.0 331.0 951.0 342.0Q961.0 353.0 979.0 356.0Q997.0 359.0 999.5 376.5Q1002.0 394.0 1012.0 405.0Q1022.0 416.0 1034.5 427.0Q1047.0 438.0 1041.5 455.5Q1036.0 473.0 1046.0 486.5Q1056.0 500.0 1059.0 515.0Q1062.0 530.0 1052.0 544.5Q1042.0 559.0 1049.0 575.5Q1056.0 592.0 1048.0 605.5Q1040.0 619.0 1029.0 630.5Q1018.0 642.0 1019.0 660.5Q1020.0 679.0 1004.0 686.0Q988.0 693.0 977.0 703.0Q966.0 713.0 958.5 729.0Q951.0 745.0 933.0 743.5Q915.0 742.0 902.5 752.0Q890.0 762.0 876.0 770.5Q862.0 779.0 846.0 771.0Q830.0 763.0 814.5 772.0Q799.0 781.0 783.5 778.0Q768.0 775.0 755.0 764.0Q742.0 753.0 724.0 757.5Q706.0 762.0 695.0 749.5Q684.0 737.0 673.5 725.5Q663.0 714.0 644.5 711.0Q626.0 708.0 623.0 690.0Q620.0 672.0 610.0 660.0Q600.0 648.0 587.0 637.0Q574.0 626.0 579.0 607.5Q584.0 589.0 574.0 575.5Q564.0 562.0 561.0 546.0Q558.0 530.0 568.5 515.0Q579.0 500.0 571.5 483.0Q564.0 466.0 572.0 451.5Q580.0 437.0 591.5 425.5Q603.0 414.0 602.5 394.5Q602.0 375.0 618.0 367.5Q634.0 360.0 645.5 350.0Q657.0 340.0 665.0 323.0Q673.0 306.0 692.0 307.5Q711.0 309.0 723.5 298.5Q736.0 288.0 751.0 279.5Q766.0 271.0 783.0 279.5Q800.0 288.0 815.5 278.5Q831.0 269.0 847.5 272.0Q864.0 275.0 877.0 286.5Q890.0 298.0 909.5 293.0Q929.0 288.0 940.5 301.5Q952.0 315.0 963.0 326.5Q974.0 338.0 993.0 341.5Q1012.0 345.0 1015.0 364.0Q1018.0 383.0 1028.5 395.0Q1039.0 407.0 1052.5 419.0Q1066.0 431.0 1060.5 449.5Q1055.0 468.0 1065.5 482.5Q1076.0 497.0 1079.0 513.5Q1082.0 530.0 1071.5 545.5Q1061.0 561.0 1068.5 579.0Q1076.0 597.0 1067.5 612.0Q1059.0 627.0 1047.0 639.0Q1035.0 651.0 1036.0 671.0Q1037.0 691.0 1020.0 698.5Q1003.0 706.0 991.0 717.0Q979.0 728.0 971.0 745.5Q963.0 763.0 943.0 761.0Q923.0 759.0 910.0 770.0Q897.0 781.0 881.5 790.0Q866.0 799.0 848.5 790.5Q831.0 782.0 814.5 791.5Q798.0 801.0 781.0 798.0Q764.0 795.0 750.5 783.0Q737.0 771.0 717.0 776.0Q697.0 781.0 685.0 767.5Q673.0 754.0 661.5 741.5Q650.0 729.0 630.5 725.5Q611.0 722.0 608.0 702.5Q605.0 683.0 593.5 670.5Q582.0 658.0 568.0 645.5Q554.0 633.0 560.0 613.5Q566.0 594.0 555.0 579.0Q544.0 564.0 541.0 547.0Q538.0 530.0 549.0 514.0Q560.0 498.0 552.0 479.0Q544.0 460.0 553.0 445.0Q562.0 430.0 574.5 417.0Q587.0 404.0 586.0 383.5Q585.0 363.0 602.5 355.0Q620.0 347.0 632.5 335.5Q645.0 324.0 653.5 306.0Q662.0 288.0 682.5 290.0Q703.0 292.0 716.5 280.5Q730.0 269.0 746.0 260.0Q762.0 251.0 780.5 260.0Q799.0 269.0 816.0 259.0Q833.0 249.0 850.5 252.0Q868.0 255.0 882.0 267.0Q896.0 279.0 917.0 274.5Q938.0 270.0 950.0 284.0Q962.0 298.0 974.0 310.5Q986.0 323.0 1006.5 327.0Q1027.0 331.0 1030.0 351.0Q1033.0 371.0 1044.5 384.0Q1056.0 397.0 1070.5 410.0Q1085.0 423.0 1079.0 443.5Q1073.0 464.0 1084.5 479.0Q1096.0 494.0 1099.5 512.0Q1103.0 530.0 1091.5 546.5Q1080.0 563.0 1088.0 582.5Q1096.0 602.0 1087.0 618.0Q1078.0 634.0 1065.0 647.0Q1052.0 660.0 1053.0 681.5Q1054.0 703.0 1035.5 711.5Q1017.0 720.0 1004.0 731.5Q991.0 743.0 982.5 761.5Q974.0 780.0 952.5 778.5Q931.0 777.0 917.0 788.5Q903.0 800.0 886.5 810.0Q870.0 820.0 851.0 810.5Q832.0 801.0 814.5 811.5Q797.0 822.0 779.0 818.5Q761.0 815.0 746.0 802.5Q731.0 790.0 709.5 795.0Q688.0 800.0 675.0 785.0Q662.0 770.0 650.0 757.0Q638.0 744.0 616.5 740.0Q595.0 736.0 592.0 715.0Q589.0 694.0 577.0 680.5Q565.0 667.0 550.0 654.0Q535.0 641.0 541.0 620.0Q547.0 599.0 535.5 583.0Q524.0 567.0 520.5 548.5Q517.0 530.0 529.0 512.5Q541.0 495.0 532.5 475.0Q524.0 455.0 533.5 438.5Q543.0 422.0 556.5 408.5Q570.0 395.0 569.0 372.5Q568.0 350.0 587.0 342.0Q606.0 334.0 619.5 321.5Q633.0 309.0 641.5 290.0Q650.0 271.0 672.5 272.5Q695.0 274.0 709.5 262.0Q724.0 250.0 741.0 240.0Q758.0 230.0 777.5 240.0Q797.0 250.0 815.5 239.0Q834.0 228.0 852.5 231.5Q871.0 235.0 886.5 248.0Q902.0 261.0 924.0 256.0Q946.0 251.0 959.5 266.0Q973.0 281.0 985.5 294.5Q998.0 308.0 1020.0 312.0Q1042.0 316.0 1045.5 338.0Q1049.0 360.0 1061.5 374.0Q1074.0 388.0 1089.5 401.5Q1105.0 415.0 1098.5 437.0Q1092.0 459.0 1104.0 475.5Q1116.0 492.0 1119.5 511.0Q1123.0 530.0 1111.0 548.0Q1099.0 566.0 1107.5 586.5Q1116.0 607.0 1106.0 624.0Q1096.0 641.0 1082.5 655.0Q1069.0 669.0 1070.0 692.5Q1071.0 716.0 1051.0 724.5Q1031.0 733.0 1017.5 745.5Q1004.0 758.0 994.5 778.0Q985.0 798.0 962.0 796.0Q939.0 794.0 924.0 806.5Q909.0 819.0 891.5 829.5Q874.0 840.0 853.5 830.0Q833.0 820.0 814.0 831.0Q795.0 842.0 776.0 838.5Q757.0 835.0 741.0 821.5Q725.0 808.0 702.0 813.5Q679.0 819.0 665.5 803.0Q652.0 787.0 639.0 773.0Q626.0 759.0 603.0 755.0Q580.0 751.0 576.5 728.5Q573.0 706.0 560.5 691.5Q548.0 677.0 531.5 663.0Q515.0 649.0 522.0 626.0Q529.0 603.0 516.5 586.0Q504.0 569.0 500.0 549.5Q496.0 530.0 509.0 511.5Q522.0 493.0 513.0 471.5Q504.0 450.0 514.0 432.5Q524.0 415.0 538.5 400.5Q553.0 386.0 552.0 362.0Q551.0 338.0 571.5 329.0Q592.0 320.0 606.0 307.0Q620.0 294.0 629.5 273.5Q639.0 253.0 663.0 255.0Q687.0 257.0 702.5 244.0Q718.0 231.0 736.0 220.5Q754.0 210.0 775.0 220.5Q796.0 231.0 815.5 219.5Q835.0 208.0 855.0 211.5Q875.0 215.0 891.5 229.0Q908.0 243.0 931.5 237.5Q955.0 232.0 969.5 248.0Q984.0 264.0 997.5 278.5Q1011.0 293.0 1034.5 297.5Q1058.0 302.0 1061.5 325.5Q1065.0 349.0 1078.0 363.5Q1091.0 378.0 1107.5 393.0Q1124.0 408.0 1117.5 431.0Q1111.0 454.0 1123.5 471.5Q1136.0 489.0 1140.0 509.5Q1144.0 530.0 1131.0 549.0Q1118.0 568.0 1127.0 590.0Q1136.0 612.0 1125.5 630.5Q1115.0 649.0 1100.0 664.0Q1085.0 679.0 1086.5 703.5Q1088.0 728.0 1067.0 737.5Q1046.0 747.0 1031.0 760.0Q1016.0 773.0 1006.0 794.5Q996.0 816.0 972.0 814.0Q948.0 812.0 931.5 825.0Q915.0 838.0 896.5 849.0Q878.0 860.0 856.0 849.5Q834.0 839.0 814.0 850.5Q794.0 862.0 773.5 858.5Q753.0 855.0 736.0 840.5Q719.0 826.0 694.5 832.0Q670.0 838.0 655.5 821.0Q641.0 804.0 627.0 789.0Q613.0 774.0 589.0 769.5Q565.0 765.0 561.0 741.0Q557.0 717.0 543.5 701.5Q530.0 686.0 513.0 671.0Q496.0 656.0 503.0 632.0Q510.0 608.0 497.0 590.0Q484.0 572.0 480.0 551.0Q476.0 530.0 489.5 510.5Q503.0 491.0 493.5 468.0Q484.0 445.0 495.0 426.0Q506.0 407.0 521.0 392.0Q536.0 377.0 535.0 351.5Q534.0 326.0 555.5 316.5Q577.0 307.0 592.5 293.0Q608.0 279.0 618.0 257.0Q628.0 235.0 653.0 237.5Q678.0 240.0 695.0 226.0Q712.0 212.0 731.0 201.0Q750.0 190.0 772.5 201.0Q795.0 212.0 816.0 199.5Q837.0 187.0 858.0 191.0Q879.0 195.0 896.5 210.0Q914.0 225.0 939.0 219.0Q964.0 213.0 979.0 230.5Q994.0 248.0 1008.5 263.5Q1023.0 279.0 1048.0 283.5Q1073.0 288.0 1076.5 312.5Q1080.0 337.0 1094.0 353.0Q1108.0 369.0 1126.0 384.5Q1144.0 400.0 1136.5 424.5Q1129.0 449.0 1142.5 468.0Q1156.0 487.0 1160.0 508.5Q1164.0 530.0 1150.0 550.5Q1136.0 571.0 1146.0 594.5Q1156.0 618.0 1145.0 637.0Q1134.0 656.0 1118.0 672.0Q1102.0 688.0 1103.0 714.0Q1104.0 740.0 1082.0 750.0Q1060.0 760.0 1044.5 774.0Q1029.0 788.0 1018.5 810.5Q1008.0 833.0 982.0 831.0Q956.0 829.0 938.5 843.5Q921.0 858.0 901.5 869.5Q882.0 881.0 859.0 869.5Q836.0 858.0 814.5 870.5Q793.0 883.0 771.0 879.0Q749.0 875.0 731.0 859.5Q713.0 844.0 687.0 850.0Q661.0 856.0 645.5 838.5Q630.0 821.0 615.5 805.0Q601.0 789.0 575.0 784.0Q549.0 779.0 545.5 754.0Q542.0 729.0 527.5 712.5Q513.0 696.0 495.0 680.0Q477.0 664.0 484.5 638.5Q492.0 613.0 478.0 593.5Q464.0 574.0 459.5 552.0Q455.0 530.0 469.5 509.0Q484.0 488.0 474.0 464.0Q464.0 440.0 475.5 420.0Q487.0 400.0 503.0 383.5Q519.0 367.0 518.0 340.5Q517.0 314.0 540.0 303.5Q563.0 293.0 579.0 278.5Q595.0 264.0 606.0 241.0Q617.0 218.0 643.5 220.0Q670.0 222.0 687.5 207.5Q705.0 193.0 725.5 181.0Q746.0 169.0 770.0 181.0Q794.0 193.0 816.0 180.0Q838.0 167.0 860.5 171.0Q883.0 175.0 901.5 191.0Q920.0 207.0 946.5 200.5Q973.0 194.0 989.0 212.5Q1005.0 231.0 1020.0 247.5Q1035.0 264.0 1061.5 268.5Q1088.0 273.0 1092.0 299.5Q1096.0 326.0 1111.0 342.5Q1126.0 359.0 1144.5 375.5Q1163.0 392.0 1155.5 418.5Q1148.0 445.0 1162.0 464.5Q1176.0 484.0 1180.5 507.0Q1185.0 530.0 1170.0 551.5Q1155.0 573.0 1165.5 598.0Q1176.0 623.0 1164.5 643.5Q1153.0 664.0 1136.0 680.5Q1119.0 697.0 1120.0 725.0Q1121.0 753.0 1097.5 763.0Q1074.0 773.0 1057.5 788.0Q1041.0 803.0 1030.0 827.0Q1019.0 851.0 991.5 849.0Q964.0 847.0 946.0 862.0Q928.0 877.0 907.0 889.0Q886.0 901.0 861.5 889.0Q837.0 877.0 814.5 890.0Q792.0 903.0 768.5 899.0Q745.0 895.0 726.0 878.5Q707.0 862.0 680.0 868.5Q653.0 875.0 636.5 856.0Q620.0 837.0 604.0 820.5Q588.0 804.0 561.0 799.0Q534.0 794.0 530.0 767.0Q526.0 740.0 511.0 723.0Q496.0 706.0 476.5 689.0Q457.0 672.0 465.0 645.0Q473.0 618.0 458.5 597.5Q444.0 577.0 439.5 553.5Q435.0 530.0 450.0 508.0Q465.0 486.0 454.5 460.5Q444.0 435.0 456.0 414.0Q468.0 393.0 485.0 375.5Q502.0 358.0 501.0 329.5Q500.0 301.0 524.5 290.5Q549.0 280.0 566.0 264.5Q583.0 249.0 594.5 224.5Q606.0 200.0 634.0 202.5Q662.0 205.0 680.5 189.5Q699.0 174.0 720.5 161.5Q742.0 149.0 767.5 161.5Q793.0 174.0 816.0 160.0Q839.0 146.0 863.0 150.5Q887.0 155.0 906.5 172.0Q926.0 189.0 954.0 182.0Q982.0 175.0 998.5 194.5Q1015.0 214.0 1031.5 231.5Q1048.0 249.0 1076.0 254.0Q1104.0 259.0 1108.0 286.5Q1112.0 314.0 1127.5 332.0Q1143.0 350.0 1162.5 367.5Q1182.0 385.0 1174.0 412.5Q1166.0 440.0 1181.5 461.0Q1197.0 482.0 1201.0 506.0Q1205.0 530.0 1189.5 552.5Q1174.0 575.0 1185.0 601.5Q1196.0 628.0 1183.5 649.5Q1171.0 671.0 1153.5 688.5Q1136.0 706.0 1137.0 735.5Q1138.0 765.0 1113.5 776.0Q1089.0 787.0 1071.5 802.5Q1054.0 818.0 1042.0 843.5Q1030.0 869.0 1001.0 866.5Q972.0 864.0 953.0 880.0Q934.0 896.0 912.0 908.5Q890.0 921.0 864.0 908.5Q838.0 896.0 814.0 910.0Q790.0 924.0 766.0 919.5Q742.0 915.0 721.5 897.5Q701.0 880.0 672.5 887.0Q644.0 894.0 626.5 874.0Q609.0 854.0 592.5 836.5Q576.0 819.0 547.5 813.5Q519.0 808.0 514.5 779.5Q510.0 751.0 494.0 733.0Q478.0 715.0 458.0 697.0Q438.0 679.0 446.5 651.0Q455.0 623.0 439.0 601.0Q423.0 579.0 418.5 554.5Q414.0 530.0 430.0 506.5Q446.0 483.0 435.0 456.5Q424.0 430.0 436.5 407.5Q449.0 385.0 467.5 367.0Q486.0 349.0 484.5 319.0Q483.0 289.0 508.5 277.5Q534.0 266.0 552.0 250.0Q570.0 234.0 582.0 208.0Q594.0 182.0 624.0 184.5Q654.0 187.0 673.5 171.0Q693.0 155.0 715.5 141.5Q738.0 128.0 764.5 141.5Q791.0 155.0 815.5 140.5Q840.0 126.0 865.0 130.5Q890.0 135.0 911.0 153.0Q932.0 171.0 961.5 163.5Q991.0 156.0 1008.5 176.5Q1026.0 197.0 1043.0 215.5Q1060.0 234.0 1089.5 239.5Q1119.0 245.0 1123.5 274.0Q1128.0 303.0 1144.0 321.5Q1160.0 340.0 1181.0 358.5Q1202.0 377.0 1193.5 406.0Q1185.0 435.0 1201.0 457.0Q1217.0 479.0 1221.5 504.5Q1226.0 530.0 1209.5 554.0Q1193.0 578.0 1204.5 605.5Q1216.0 633.0 1203.0 655.5Q1190.0 678.0 1171.5 697.0Q1153.0 716.0 1154.0 746.5Q1155.0 777.0 1129.0 788.5Q1103.0 800.0 1084.5 816.5Q1066.0 833.0 1053.5 860.0Q1041.0 887.0 1010.5 884.0Q980.0 881.0 960.0 898.0Q940.0 915.0 917.0 928.5Q894.0 942.0 866.5 928.5Q839.0 915.0 814.0 929.5Q789.0 944.0 763.5 939.5Q738.0 935.0 716.5 917.0Q695.0 899.0 665.0 906.0Q635.0 913.0 617.0 892.0Q599.0 871.0 581.5 852.5Q564.0 834.0 534.0 828.0Q504.0 822.0 499.5 792.5Q495.0 763.0 478.0 744.0Q461.0 725.0 439.5 706.0Q418.0 687.0 427.0 657.0Q436.0 627.0 419.5 604.5Q403.0 582.0 398.5 556.0Q394.0 530.0 410.5 505.5Q427.0 481.0 415.5 452.5Q404.0 424.0 417.5 401.0Q431.0 378.0 450.0 359.0Q469.0 340.0 467.5 308.5Q466.0 277.0 493.0 265.0Q520.0 253.0 539.0 236.0Q558.0 219.0 570.5 192.0Q583.0 165.0 614.5 167.5Q646.0 170.0 666.5 153.0Q687.0 136.0 711.0 122.0Q735.0 108.0 762.5 122.0Q790.0 136.0 816.0 121.0Q842.0 106.0 868.0 110.5Q894.0 115.0 916.0 133.5Q938.0 152.0 969.0 145.0Q1000.0 138.0 1018.5 159.5Q1037.0 181.0 1054.5 200.0Q1072.0 219.0 1103.0 224.5Q1134.0 230.0 1138.5 260.5Q1143.0 291.0 1160.5 311.0Q1178.0 331.0 1199.5 350.0Q1221.0 369.0 1212.0 399.5Q1203.0 430.0 1220.0 453.5Q1237.0 477.0 1242.0 503.5Q1247.0 530.0 1229.5 555.0Q1212.0 580.0 1224.0 609.0Q1236.0 638.0 1222.5 662.0Q1209.0 686.0 1189.5 705.5Q1170.0 725.0 1171.0 757.5Q1172.0 790.0 1144.5 802.0Q1117.0 814.0 1097.5 831.0Q1078.0 848.0 1065.0 876.0Q1052.0 904.0 1020.5 901.5Q989.0 899.0 967.5 916.5Q946.0 934.0 921.5 948.0Q897.0 962.0 868.5 948.0Q840.0 934.0 814.0 949.5Q788.0 965.0 761.0 960.0Q734.0 955.0 711.5 936.0Q689.0 917.0 657.5 924.5Q626.0 932.0 607.0 910.0Q588.0 888.0 569.5 868.5Q551.0 849.0 519.5 843.0Q488.0 837.0 483.5 805.5Q479.0 774.0 461.5 754.0Q444.0 734.0 421.5 714.5Q399.0 695.0 408.5 663.5Q418.0 632.0 400.5 608.5Q383.0 585.0 378.0 557.5Q373.0 530.0 391.0 504.5Q409.0 479.0 396.5 449.0Q384.0 419.0 398.0 394.5Q412.0 370.0 432.0 350.0Q452.0 330.0 450.5 297.0Q449.0 264.0 477.5 252.0Q506.0 240.0 525.5 222.0Q545.0 204.0 558.5 175.5Q572.0 147.0 604.5 150.0Q637.0 153.0 659.0 135.0Q681.0 117.0 706.0 102.5Q731.0 88.0 760.0 102.5Q789.0 117.0 816.0 101.0Q843.0 85.0 870.5 90.0Q898.0 95.0 921.0 114.5Q944.0 134.0 976.0 126.5Q1008.0 119.0 1027.5 141.5Q1047.0 164.0 1066.0 184.0Q1085.0 204.0 1117.0 210.0Q1149.0 216.0 1154.0 248.0Q1159.0 280.0 1177.0 300.5Q1195.0 321.0 1218.0 341.0Q1241.0 361.0 1231.5 393.5Q1222.0 426.0 1239.5 450.0Q1257.0 474.0 1262.0 502.0Q1267.0 530.0 1249.0 556.5Q1231.0 583.0 1243.5 613.0Q1256.0 643.0 1241.5 668.0Q1227.0 693.0 1206.5 713.5Q1186.0 734.0 1187.5 768.0Q1189.0 802.0 1160.0 814.5Q1131.0 827.0 1111.0 845.5Q1091.0 864.0 1077.5 893.0Q1064.0 922.0 1030.5 919.0Q997.0 916.0 974.5 934.5Q952.0 953.0 926.5 967.5Q901.0 982.0 871.5 967.5Q842.0 953.0 814.0 969.0Q786.0 985.0 758.0 980.0Q730.0 975.0 706.5 955.0Q683.0 935.0 650.0 943.0Q617.0 951.0 597.0 928.0Q577.0 905.0 558.0 884.0Q539.0 863.0 506.0 857.0Q473.0 851.0 468.0 818.5Q463.0 786.0 444.5 765.0Q426.0 744.0 403.0 723.0Q380.0 702.0 389.5 669.5Q399.0 637.0 381.0 612.0Q363.0 587.0 358.0 558.5Q353.0 530.0 371.5 503.0Q390.0 476.0 377.0 445.0Q364.0 414.0 378.5 388.5Q393.0 363.0 414.0 342.0Q435.0 321.0 433.5 286.5Q432.0 252.0 461.5 239.0Q491.0 226.0 512.0 207.5Q533.0 189.0 547.0 159.0Q561.0 129.0 595.0 132.0Q629.0 135.0 652.0 116.5Q675.0 98.0 701.0 82.5Q727.0 67.0 757.5 82.5Q788.0 98.0 816.0 81.5Q844.0 65.0 873.0 70.0Q902.0 75.0 925.5 95.5Q949.0 116.0 983.0 108.0Q1017.0 100.0 1037.5 123.5Q1058.0 147.0 1077.5 168.0Q1097.0 189.0 1131.0 195.5Q1165.0 202.0 1170.0 235.5Q1175.0 269.0 1193.5 290.5Q1212.0 312.0 1236.0 333.0Q1260.0 354.0 1250.0 387.5Q1240.0 421.0 1258.5 446.5Q1277.0 472.0 1282.5 501.0Q1288.0 530.0 1269.0 557.5Q1250.0 585.0 1263.0 616.5Q1276.0 648.0 1261.0 674.5Q1246.0 701.0 1224.5 722.0Q1203.0 743.0 1204.5 778.5Q1206.0 814.0 1176.0 827.5Q1146.0 841.0 1124.5 860.0Q1103.0 879.0 1089.0 909.5Q1075.0 940.0 1040.0 937.0Q1005.0 934.0 982.0 953.0Q959.0 972.0 932.0 987.5Q905.0 1003.0 874.0 987.5Q843.0 972.0 814.0 989.0Q785.0 1006.0 755.5 1000.5Q726.0 995.0 702.0 974.0Q678.0 953.0 643.0 961.0Q608.0 969.0 587.5 945.0Q567.0 921.0 547.0 899.5Q527.0 878.0 492.5 872.0Q458.0 866.0 452.5 831.5Q447.0 797.0 428.0 775.0Q409.0 753.0 384.5 731.5Q360.0 710.0 370.5 676.0Q381.0 642.0 362.0 616.0Q343.0 590.0 337.5 560.0Q332.0 530.0 351.5 502.0Q371.0 474.0 357.5 441.5Q344.0 409.0 359.5 382.5Q375.0 356.0 396.5 334.0Q418.0 312.0 416.5 276.0Q415.0 240.0 446.0 226.5Q477.0 213.0 498.5 193.5Q520.0 174.0 534.5 143.0Q549.0 112.0 585.0 115.0Q621.0 118.0 644.5 98.5"/>
  </g>
</svg>
