<svg version="1.1" width="1630" height="1060" xmlns="http://www.w3.org/2000/svg">
  <!-- Seed: 1541812824947633747 -->
  <g stroke="black" fill="none">
    <path d="M100 839 L116 885 L119 917 L134 952 L143 952 L146 916 L153 867 L170 831 L183 791 L189 745 L206 710 L217 679 L222 649 L230 609 L248 573 L267 540 L285 492 L291 445 L310 411 L319 366 L325 328 L330 284 L345 244 L360 199 L370 152 L382 107 L386 107 L404 139 L415 188 L431 229 L439 271 L442 303 L451 348 L463 392 L470 422 L473 463 L479 509 L498 552 L512 594 L525 642 L543 685 L548 717 L551 752 L558 789 L569 838 L584 885 L603 915 L608 954 L611 954 L613 911 L627 870 L632 837 L645 790 L651 743 L666 701 L671 657 L681 626 L683 577 L694 535 L698 492 L715 445 L724 397 L743 364 L758 322 L760 275 L770 228 L781 185 L795 151 L814 106 L825 106 L830 152 L839 189 L847 235 L849 273 L863 313 L871 359 L886 405 L888 443 L901 487 L915 518 L917 562 L931 608 L946 641 L963 680 L970 715 L987 762 L995 804 L1008 845 L1013 876 L1023 913 L1037 913 L1048 866 L1064 817 L1077 778 L1094 732 L1097 702 L1111 659 L1127 613 L1144 580 L1157 546 L1163 509 L1171 473 L1176 428 L1186 394 L1195 352 L1202 317 L1213 277 L1224 241 L1232 199 L1236 160 L1244 118 L1250 118 L1258 162 L1264 193 L1281 225 L1285 265 L1304 302 L1317 334 L1319 378 L1326 426 L1330 471 L1343 514 L1348 558 L1351 601 L1364 639 L1375 686 L1377 731 L1390 769 L1396 802 L1409 850 L1420 896 L1424 932 L1443 932 L1446 894 L1458 852 L1461 803 L1479 760 L1487 730 L1498 685 L1512 639 L1530 605"/>
    <g stroke="red">
      <rect x="50" y="50" width="1530" height="960"/>
    </g>
  </g>
</svg>
