<svg version="1.1" width="1150" height="870" xmlns="http://www.w3.org/2000/svg">
  <!-- Seed: 970286904953085993 -->
  <!-- Size: SvgSize.Size9x12 -->
  <!-- Params:
    draw_circles: True
    draw_border: True
    rotate_range: 0.3141592653589793
    ring_pad: 5
    ring_weights: [(0, 5), (1, 2), (2, 1), (3, 0.5)]
    border_weights: [(<BorderType.Empty: 0>, 5), (<BorderType.Circles: 1>, 1), (<BorderType.Starburst: 2>, 2)]
    padding: 0
    size_range: [RangeInt] min: 20 max: 350
    size_pad: 20
    origin_shuffle_range: 0
  -->
  <g stroke="black" fill="none">
    <path d="M585.0 403.4Q594.95 401.96 604.0 403.0Q613.32 410.69 623.0 403.0Q632.35 394.75 642.0 403.0Q648.52 426.28 661.0 403.0Q670.99 404.52 680.0 403.0Q689.02 388.38 699.0 403.0Q703.58 365.66 718.0 403.0Q725.57 376.25 738.0 403.0Q745.62 425.12 757.0 403.0Q764.49 379.43 776.0 403.0Q776.69 461.9 795.0 403.0Q803.69 415.35 814.0 403.0Q821.12 433.84 833.0 403.0Q834.12 467.81 852.0 403.0Q856.82 452.1 871.0 403.0"/>
    <path d="M584.99 403.82Q595.0 402.8 603.99 404.23Q612.97 412.3 622.97 405.04Q632.67 397.19 641.96 405.84Q647.48 429.38 660.94 406.65Q670.86 408.59 679.92 407.46Q689.55 393.23 698.91 408.26Q705.06 371.15 717.89 409.07Q726.59 382.67 737.87 409.92Q744.55 432.34 756.85 410.72Q765.34 387.49 775.84 411.53Q774.02 470.41 794.82 412.34Q802.97 425.05 813.8 413.14Q819.61 444.26 832.78 413.95Q831.15 478.75 851.77 414.76Q854.5 464.02 870.75 415.56"/>
    <path d="M584.96 404.25Q595.0 403.65 603.93 405.46Q612.56 413.91 622.86 407.07Q632.88 399.64 641.79 408.68Q646.32 432.44 660.72 410.29Q670.55 412.66 679.66 411.91Q689.88 398.1 698.59 413.52Q706.31 376.7 717.52 415.13Q727.33 389.12 737.45 416.82Q743.17 439.51 756.38 418.44Q765.84 395.58 775.31 420.05Q771.0 478.79 794.24 421.66Q801.85 434.7 813.17 423.27Q817.66 454.6 832.1 424.88Q827.72 489.55 851.04 426.49Q851.68 475.83 869.97 428.1"/>
    <path d="M584.92 404.67Q594.97 404.5 603.82 406.69Q612.08 415.49 622.66 409.1Q632.99 402.1 641.51 411.51Q645.02 435.44 660.35 413.93Q670.07 416.7 679.2 416.34Q690.0 402.98 698.05 418.75Q707.33 382.29 716.89 421.17Q727.8 395.6 736.73 423.71Q741.48 446.61 755.58 426.12Q766.0 403.69 774.42 428.53Q767.62 487.04 793.27 430.95Q800.32 444.3 812.12 433.36Q815.26 464.86 830.96 435.77Q823.84 500.2 849.81 438.19Q848.35 487.5 868.65 440.6"/>
    <path d="M584.86 405.09Q594.91 405.35 603.65 407.91Q611.53 417.06 622.38 411.12Q632.99 404.57 641.1 414.33Q643.6 438.38 659.83 417.54Q669.42 420.73 678.56 420.75Q689.91 407.87 697.28 423.96Q708.1 387.93 716.01 427.17Q727.99 402.09 735.72 430.55Q739.5 453.64 754.45 433.76Q765.82 411.8 773.18 436.97Q763.9 495.14 791.9 440.19Q798.38 453.83 810.63 443.4Q812.44 475.0 829.36 446.61Q819.5 510.67 848.08 449.82Q844.54 499.03 866.81 453.03"/>
    <path d="M584.78 405.51Q594.81 406.19 603.43 409.12Q610.92 418.59 622.01 413.12Q632.89 407.03 640.58 417.12Q642.05 441.26 659.15 421.13Q668.6 424.72 677.73 425.13Q689.62 412.74 696.3 429.13Q708.64 393.59 714.87 433.14Q727.91 408.58 734.43 437.35Q737.22 460.58 753.0 441.35Q765.29 419.89 771.57 445.36Q759.84 503.08 790.15 449.36Q796.04 463.27 808.72 453.36Q809.19 485.01 827.29 457.36Q814.73 520.95 845.87 461.37Q840.24 510.38 864.44 465.37"/>
    <path d="M584.68 405.92Q594.67 407.03 603.17 410.32Q610.24 420.1 621.55 415.11Q632.68 409.48 639.94 419.9Q640.38 444.07 658.33 424.68Q667.61 428.67 676.71 429.47Q689.12 417.6 695.1 434.26Q708.94 399.27 713.49 439.05Q727.55 415.07 732.84 444.09Q734.65 467.41 751.23 448.87Q764.42 427.95 769.62 453.66Q755.44 510.83 788.0 458.45Q793.3 472.59 806.39 463.24Q805.51 494.88 824.78 468.02Q809.53 531.02 843.16 472.81Q835.46 521.54 861.55 477.6"/>
    <path d="M584.56 406.33Q594.5 407.86 602.85 411.51Q609.5 421.59 621.01 417.07Q632.37 411.92 639.18 422.64Q638.6 446.81 657.35 428.2Q666.46 432.58 675.51 433.76Q688.42 422.43 693.68 439.33Q708.99 404.96 711.85 444.89Q726.92 421.53 730.97 450.75Q731.79 474.13 749.14 456.31Q763.2 435.97 767.31 461.87Q750.72 518.39 785.47 467.44Q790.16 481.79 803.64 473.0Q801.42 504.58 821.81 478.57Q803.9 540.86 839.98 484.13Q830.21 532.49 858.14 489.69"/>
    <path d="M584.43 406.73Q594.29 408.69 602.48 412.68Q608.7 423.03 620.39 419.01Q631.96 414.35 638.31 425.34Q636.7 449.47 656.22 431.67Q665.14 436.44 674.14 438.0Q687.51 427.22 692.05 444.33Q708.8 410.65 709.96 450.66Q726.02 427.96 728.82 457.32Q728.64 480.72 746.74 463.65Q761.65 443.92 764.65 469.98Q745.68 525.75 782.57 476.31Q786.64 490.86 800.48 482.64Q796.92 514.1 818.4 488.97Q797.86 550.45 836.31 495.3Q824.5 543.21 854.22 501.63"/>
    <path d="M584.28 407.13Q594.05 409.5 602.06 413.84Q607.84 424.45 619.69 420.93Q631.44 416.76 637.32 428.01Q634.69 452.05 654.95 435.09Q663.65 440.23 672.58 442.18Q686.39 431.98 690.21 449.26Q708.38 416.32 707.84 456.35Q724.84 434.35 726.4 463.8Q725.22 487.17 744.02 470.89Q759.76 451.81 761.65 477.97Q740.33 532.88 779.28 485.06Q782.74 499.76 796.91 492.14Q792.03 523.42 814.54 499.23Q791.42 559.78 832.17 506.31Q818.34 553.67 849.8 513.39"/>
    <path d="M584.11 407.52Q593.78 410.3 601.59 414.98Q606.91 425.82 618.9 422.81Q630.82 419.14 636.22 430.63Q632.57 454.54 653.53 438.46Q662.01 443.96 670.84 446.29Q685.08 436.68 688.16 454.11Q707.71 421.97 705.47 461.94Q723.39 440.68 723.7 470.18Q721.53 493.47 741.01 478.0Q757.54 459.61 758.32 485.83Q734.69 539.78 775.64 493.65Q778.46 508.49 792.95 501.48Q786.74 532.52 810.26 509.31Q784.58 568.82 827.58 517.13Q811.75 563.86 844.89 524.96"/>
    <path d="M583.93 407.9Q593.47 411.09 601.07 416.1Q605.93 427.15 618.04 424.65Q630.11 421.5 635.01 433.21Q630.35 456.93 651.97 441.76Q660.21 447.62 668.94 450.31Q683.57 441.32 685.9 458.87Q706.8 427.58 702.87 467.42Q721.67 446.95 720.73 476.43Q717.58 499.61 737.69 484.98Q754.99 467.3 754.66 493.53Q728.76 546.44 771.62 502.09Q773.82 517.03 788.59 510.64Q781.07 541.39 805.55 519.2Q777.37 577.57 822.52 527.75Q804.72 573.76 839.49 536.3"/>
    <path d="M583.73 408.28Q593.12 411.87 600.51 417.19Q604.9 428.45 617.1 426.46Q629.29 423.82 633.69 435.73Q628.03 459.23 650.27 444.99Q658.26 451.19 666.86 454.26Q681.86 445.89 683.45 463.52Q705.66 433.16 700.04 472.79Q719.69 453.13 717.5 482.55Q713.37 505.57 734.08 491.81Q752.12 474.89 750.67 501.08Q722.55 552.83 767.26 510.34Q768.82 525.37 783.85 519.61Q775.02 550.01 800.43 528.88Q769.8 586.0 817.02 538.14Q797.28 583.36 833.61 547.41"/>
    <path d="M583.52 408.64Q592.75 412.63 599.9 418.26Q603.81 429.69 616.08 428.23Q628.37 426.1 632.26 438.19Q625.61 461.43 648.44 448.15Q656.15 454.69 664.62 458.11Q679.96 450.39 680.8 468.07Q704.27 438.67 696.98 478.04Q717.45 459.23 714.01 488.52Q708.9 511.35 730.19 498.48Q748.92 482.34 746.37 508.45Q716.07 558.96 762.55 518.41Q763.47 533.48 778.73 528.37Q768.62 558.37 794.9 538.33Q761.88 594.1 811.08 548.29Q789.45 592.63 827.26 558.25"/>
    <path d="M583.29 409.0Q592.34 413.38 599.25 419.31Q602.67 430.89 614.99 429.95Q627.36 428.35 630.73 440.59Q623.1 463.53 646.48 451.23Q653.9 458.08 662.22 461.87Q677.87 454.8 677.96 472.51Q702.66 444.13 693.7 483.14Q714.95 465.22 710.27 494.34Q704.2 516.94 726.01 504.98Q745.42 489.65 741.75 515.62Q709.34 564.81 757.5 526.26Q757.78 541.36 773.24 536.9Q761.87 566.45 788.98 547.54Q753.61 601.86 804.72 558.18Q781.22 601.56 820.46 568.82"/>
    <path d="M583.04 409.35Q591.9 414.1 598.55 420.32Q601.47 432.04 613.83 431.62Q626.26 430.55 629.11 442.92Q620.5 465.52 644.38 454.22Q651.51 461.38 659.66 465.51Q675.6 459.12 674.93 476.81Q700.82 449.51 690.21 488.11Q712.2 471.11 706.29 500.0Q699.27 522.32 721.57 511.3Q741.6 496.8 736.84 522.6Q702.37 570.36 752.12 533.9Q751.76 549.0 767.39 545.2Q754.78 574.23 782.67 556.49Q745.03 609.26 797.95 567.79Q772.63 610.14 813.22 579.09"/>
    <path d="M582.78 409.68Q591.43 414.81 597.81 421.31Q600.23 433.14 612.6 433.24Q625.06 432.7 627.38 445.18Q617.83 467.39 642.16 457.12Q648.98 464.58 656.95 469.05Q673.14 463.34 671.73 480.99Q698.75 454.81 686.51 492.92Q709.21 476.87 702.07 505.49Q694.11 527.49 716.85 517.42Q737.49 503.79 731.64 529.36Q695.17 575.62 746.42 541.3Q745.42 556.37 761.2 553.23Q747.37 581.71 775.98 565.17Q736.14 616.29 790.77 577.11Q763.67 618.34 805.55 589.04"/>
    <path d="M582.51 410.01Q590.93 415.5 597.03 422.26Q598.95 434.18 611.3 434.81Q623.77 434.8 625.56 447.36Q615.07 469.15 639.82 459.92Q646.32 467.66 654.08 472.47Q670.51 467.45 668.35 485.02Q696.45 460.01 682.61 497.58Q705.97 482.5 697.62 510.79Q688.73 532.43 711.89 523.34Q733.08 510.6 726.15 535.9Q687.75 580.56 740.41 548.45Q738.77 563.46 754.67 561.0Q739.65 588.86 768.94 573.55Q726.96 622.94 783.2 586.11Q754.38 626.15 797.46 598.66"/>
    <path d="M582.22 410.32Q590.4 416.16 596.21 423.18Q597.62 435.17 609.93 436.32Q622.39 436.84 623.65 449.47Q612.25 470.79 637.36 462.62Q643.53 470.63 651.08 475.76Q667.71 471.45 664.8 488.91Q693.94 465.12 678.52 502.06Q702.49 487.99 692.96 515.9Q683.16 537.14 706.67 529.04Q728.39 517.21 720.39 542.19Q680.13 585.19 734.11 555.34Q731.83 570.27 747.82 568.48Q731.63 595.68 761.54 581.63Q717.5 629.19 775.26 594.78Q744.77 633.56 788.98 607.93"/>
    <path d="M581.92 410.62Q589.85 416.81 595.36 424.06Q596.25 436.1 608.5 437.78Q620.93 438.82 621.65 451.49Q609.35 472.31 634.8 465.21Q640.61 473.48 647.94 478.93Q664.73 475.32 661.09 492.65Q691.21 470.11 674.24 506.36Q698.79 493.32 688.07 520.8Q677.38 541.61 701.22 534.52Q723.42 523.62 714.37 548.24Q672.32 589.49 727.52 561.95Q724.61 576.77 740.66 575.67Q723.33 602.16 753.81 589.39Q707.79 635.04 766.96 603.11Q734.84 640.56 780.1 616.82"/>
    <path d="M581.61 410.91Q589.27 417.42 594.46 424.91Q594.85 436.98 607.01 439.17Q619.38 440.74 619.57 453.43Q606.4 473.71 632.12 467.69Q637.58 476.2 644.67 481.96Q661.6 479.07 657.22 496.22Q688.28 474.98 669.78 510.48Q694.86 498.49 682.99 525.5Q671.42 545.83 695.54 539.76Q718.19 529.81 708.1 554.02Q664.34 593.45 720.65 568.28Q717.12 582.97 733.2 582.55Q714.76 608.27 745.75 596.81Q697.84 640.46 758.31 611.07Q724.64 647.13 770.86 625.33"/>
    <path d="M581.28 411.18Q588.66 418.02 593.53 425.71Q593.4 437.79 605.47 440.49Q617.76 442.59 617.4 455.28Q603.38 474.98 629.34 470.06Q634.43 478.79 641.27 484.84Q658.31 482.67 653.21 499.63Q685.14 479.73 665.15 514.41Q690.72 503.5 677.71 529.97Q665.29 549.79 689.65 544.75Q712.69 535.77 701.58 559.53Q656.19 597.07 713.52 574.32Q709.37 588.84 725.46 589.1Q705.94 614.02 737.39 603.88Q687.67 645.46 749.33 618.66Q714.16 653.26 761.26 633.45"/>
    <path d="M580.95 411.44Q588.02 418.58 592.57 426.48Q591.93 438.54 603.86 441.75Q616.06 444.37 615.16 457.03Q600.32 476.12 626.46 472.31Q631.18 481.25 637.76 487.58Q654.87 486.14 649.06 502.86Q681.8 484.33 660.35 518.13Q686.36 508.32 672.25 534.21Q659.0 553.49 683.54 549.49Q706.95 541.5 694.84 564.77Q647.9 600.34 706.14 580.04Q701.37 594.37 717.44 595.32Q696.88 619.39 728.74 610.59Q677.3 650.03 740.03 625.87Q703.43 658.94 751.33 641.15"/>
    <path d="M580.6 411.69Q587.37 419.12 591.57 427.2Q590.42 439.22 602.21 442.94Q614.28 446.07 612.85 458.69Q597.21 477.13 623.49 474.43Q627.83 483.56 634.13 490.17Q651.29 489.45 644.77 505.91Q678.27 488.79 655.41 521.65Q681.81 512.95 666.61 538.22Q652.55 556.92 677.25 553.96Q700.97 546.97 687.89 569.71Q639.47 603.26 698.53 585.45Q693.16 599.56 709.17 601.19Q687.6 624.36 719.8 616.93Q666.74 654.15 730.44 632.67Q692.46 664.16 741.08 648.41"/>
    <path d="M580.24 411.92Q586.69 419.63 590.55 427.88Q588.89 439.85 600.51 444.06Q612.44 447.7 610.47 460.24Q594.06 478.0 620.43 476.42Q624.38 485.73 630.39 492.6Q647.57 492.61 640.35 508.78Q674.55 493.1 650.32 524.96Q677.06 517.38 660.8 541.99Q645.97 560.08 670.76 558.17Q694.76 552.19 680.73 574.35Q630.93 605.81 690.69 590.53Q684.72 604.4 700.65 606.71Q678.12 628.94 710.61 622.88Q656.01 657.81 720.57 639.06Q681.29 668.91 730.54 655.24"/>
    <path d="M579.88 412.13Q585.99 420.11 589.49 428.52Q587.33 440.4 598.76 445.11Q610.52 449.25 608.02 461.7Q590.88 478.75 617.29 478.28Q620.84 487.75 626.56 494.87Q643.72 495.61 635.82 511.46Q670.66 497.24 645.09 528.05Q672.13 521.61 654.84 545.51Q639.25 562.95 664.11 562.09Q688.34 557.14 673.38 578.68Q622.29 608.01 682.64 595.27Q676.09 608.88 691.91 611.86Q668.46 633.12 701.17 628.44Q645.14 661.02 710.44 645.03Q669.93 673.19 719.71 661.62"/>
    <path d="M579.5 412.33Q585.27 420.57 588.41 429.11Q585.74 440.89 596.97 446.08Q608.54 450.72 605.52 463.05Q587.67 479.35 614.07 480.01Q617.22 489.62 622.63 496.98Q639.74 498.45 631.18 513.94Q666.59 501.22 639.74 530.91Q667.03 525.63 648.74 548.77Q632.42 565.53 657.29 565.73Q681.71 561.81 665.85 582.7Q613.57 609.83 674.4 599.66Q667.28 612.98 682.96 616.63Q658.62 636.88 691.51 633.59Q634.14 663.77 700.06 650.56Q658.39 676.97 708.62 667.53"/>
    <path d="M579.12 412.51Q584.53 420.99 587.31 429.66Q584.14 441.32 595.14 446.97Q606.51 452.1 602.96 464.29Q584.43 479.82 610.79 481.6Q613.52 491.33 618.61 498.91Q635.65 501.11 626.44 516.23Q662.35 505.02 634.27 533.54Q661.76 529.42 642.5 551.77Q625.49 567.82 650.33 569.08Q674.89 566.2 658.16 586.39Q604.77 611.28 665.98 603.71Q658.3 616.71 673.81 621.02Q648.64 640.22 681.64 638.33Q623.04 666.04 689.46 655.65Q646.71 680.27 697.29 672.96"/>
    <path d="M578.73 412.68Q583.78 421.37 586.18 430.16Q582.53 441.67 593.27 447.79Q604.41 453.39 600.35 465.42Q581.18 480.15 607.44 483.05Q609.75 492.89 614.52 500.68Q631.45 503.59 621.61 518.31Q657.96 508.63 628.69 535.94Q656.33 532.99 636.15 554.5Q618.47 569.82 643.23 572.13Q667.9 570.29 650.32 589.76Q595.92 612.36 657.4 607.39Q649.18 620.05 664.48 625.02Q638.52 643.13 671.57 642.65Q611.85 667.85 678.65 660.28Q634.89 683.06 685.74 677.91"/>
    <path d="M578.33 412.83Q583.01 421.73 585.04 430.61Q580.9 441.95 591.37 448.52Q602.26 454.59 597.7 466.44Q577.92 480.35 604.03 484.35Q605.92 494.28 610.36 502.27Q627.14 505.9 616.69 520.18Q653.42 512.06 623.02 538.1Q650.76 536.33 629.68 556.96Q611.37 571.51 636.01 574.87Q660.73 574.08 642.34 592.79Q587.03 613.06 648.67 610.7Q639.91 623.01 655.0 628.61Q628.29 645.61 661.33 646.53Q600.59 669.17 667.66 664.44Q622.97 685.35 673.99 682.36"/>
    <path d="M577.93 412.96Q582.22 422.05 583.87 431.01Q579.25 442.17 589.44 449.18Q600.07 455.71 595.0 467.35Q574.65 480.4 600.57 485.51Q602.04 495.51 606.13 503.68Q622.75 508.02 611.69 521.85Q648.74 515.29 617.26 540.01Q645.05 539.42 623.11 559.14Q604.2 572.9 628.68 577.31Q653.41 577.56 634.24 595.47Q578.12 613.38 639.8 613.64Q630.54 625.56 645.37 631.81Q617.96 647.65 650.93 649.97Q589.29 670.02 656.49 668.14Q610.96 687.13 662.06 686.31"/>
    <path d="M577.52 413.08Q581.42 422.34 582.69 431.36Q577.6 442.31 587.48 449.75Q597.82 456.72 592.27 468.14Q571.38 480.32 597.06 486.52Q598.1 496.58 601.84 504.91Q618.26 509.95 606.63 523.3Q643.92 518.32 611.42 541.69Q639.21 542.27 616.46 561.04Q596.98 573.99 621.25 579.43Q645.95 580.74 626.03 597.81Q569.21 613.32 630.82 616.2Q621.06 627.72 635.61 634.59Q607.56 649.25 640.4 652.97Q577.96 670.38 645.19 671.36Q598.88 688.4 649.97 689.75"/>
    <path d="M577.11 413.18Q580.62 422.6 581.5 431.66Q575.95 442.39 585.5 450.24Q595.54 457.64 589.51 468.81Q568.12 480.09 593.51 487.39Q594.13 497.48 597.51 505.96Q613.7 511.69 601.52 524.53Q638.98 521.14 605.52 543.11Q633.26 544.87 609.73 562.66Q589.72 574.77 613.73 581.23Q638.36 583.59 617.74 599.8Q560.31 612.89 621.74 618.38Q611.49 629.47 625.74 636.95Q597.09 650.41 629.75 655.52Q566.63 670.27 633.75 674.1Q586.77 689.16 637.75 692.67"/>
    <path d="M576.69 413.26Q579.8 422.82 580.3 431.92Q574.3 442.4 583.51 450.64Q593.22 458.47 586.72 469.37Q564.87 479.73 589.93 488.1Q590.12 498.2 593.14 506.82Q609.07 513.24 596.35 525.55Q633.93 523.75 599.56 544.28Q627.2 547.22 602.94 563.99Q582.43 575.24 606.15 582.71Q630.65 586.11 609.36 601.44Q551.43 612.07 612.57 620.17Q601.87 630.82 615.79 638.89Q586.59 651.13 619.0 657.62Q555.31 669.67 622.21 676.35Q574.63 689.4 625.42 695.07"/>
    <path d="M576.27 413.32Q578.97 423.01 579.08 432.11Q572.64 442.33 581.49 450.96Q590.86 459.19 583.91 469.81Q561.64 479.23 586.32 488.65Q586.08 498.76 588.73 507.5Q604.38 514.58 591.15 526.34Q628.77 526.14 593.56 545.19Q621.05 549.3 596.1 565.03Q575.13 575.4 598.51 583.88Q622.85 588.31 600.93 602.72Q542.59 610.88 603.34 621.57Q592.19 631.75 605.75 640.41Q576.07 651.4 608.17 659.26Q544.03 668.6 610.58 678.11Q562.49 689.13 612.99 696.95"/>
    <path d="M575.85 413.36Q578.13 423.16 577.86 432.26Q570.99 442.2 579.47 451.19Q588.48 459.81 581.08 470.12Q558.43 478.6 582.69 489.06Q582.02 499.14 584.3 507.99Q599.63 515.73 585.91 526.92Q623.51 528.31 587.53 545.85Q614.82 551.13 589.22 565.78Q567.83 575.25 590.83 584.71Q614.95 590.17 592.44 603.64Q533.82 609.32 594.06 622.57Q582.48 632.28 595.67 641.51Q565.54 651.22 597.28 660.44Q532.8 667.04 598.89 679.37Q550.38 688.34 600.5 698.3"/>
    <path d="M575.42 413.39Q577.29 423.27 576.63 432.36Q569.35 441.99 577.44 451.34Q586.08 460.33 578.24 470.32Q555.26 477.83 579.05 489.31Q577.95 499.36 579.86 508.29Q594.84 516.68 580.66 527.27Q618.17 530.26 581.47 546.25Q608.51 552.68 582.32 566.24Q560.54 574.79 583.12 585.22Q606.99 591.7 583.93 604.2Q525.11 607.39 584.74 623.18Q572.76 632.39 585.54 642.17Q555.03 650.6 586.35 661.15Q521.65 665.02 587.16 680.13Q538.3 687.04 587.96 699.12"/>
    <path d="M575.0 413.4Q576.44 423.35 575.4 432.4Q567.71 441.72 575.4 451.4Q583.65 460.75 575.4 470.4Q552.12 476.92 575.4 489.4Q573.88 499.39 575.4 508.4Q590.02 517.42 575.4 527.4Q612.74 531.98 575.4 546.4Q602.15 553.97 575.4 566.4Q553.28 574.02 575.4 585.4Q598.97 592.89 575.4 604.4Q516.5 605.09 575.4 623.4Q563.05 632.09 575.4 642.4Q544.56 649.52 575.4 661.4Q510.59 662.52 575.4 680.4Q526.3 685.22 575.4 699.4"/>
    <path d="M574.58 413.39Q575.6 423.4 574.17 432.39Q566.1 441.37 573.36 451.37Q581.21 461.07 572.56 470.36Q549.02 475.88 571.75 489.34Q569.81 499.26 570.94 508.32Q585.17 517.95 570.14 527.31Q607.25 533.46 569.33 546.29Q595.73 554.99 568.48 566.27Q546.06 572.95 567.68 585.25Q590.91 593.74 566.87 604.24Q507.99 602.42 566.06 623.22Q553.35 631.37 565.26 642.2Q534.14 648.01 564.45 661.18Q499.65 659.55 563.64 680.17Q514.38 682.9 562.84 699.15"/>
    <path d="M574.15 413.36Q574.75 423.4 572.94 432.33Q564.49 440.96 571.33 451.26Q578.76 461.28 569.72 470.19Q545.96 474.72 568.11 489.12Q565.74 498.95 566.49 508.06Q580.3 518.28 564.88 526.99Q601.7 534.71 563.27 545.92Q589.28 555.73 561.58 565.85Q538.89 571.57 559.96 584.78Q582.82 594.24 558.35 603.71Q499.61 599.4 556.74 622.64Q543.7 630.25 555.13 641.57Q523.8 646.06 553.52 660.5Q488.85 656.12 551.91 679.44Q502.57 680.08 550.3 698.37"/>
    <path d="M573.73 413.32Q573.9 423.37 571.71 432.22Q562.91 440.48 569.3 451.06Q576.3 461.39 566.89 469.91Q542.96 473.42 564.47 488.75Q561.7 498.47 562.06 507.6Q575.42 518.4 559.65 526.45Q596.11 535.73 557.23 545.29Q582.8 556.2 554.69 565.13Q531.79 569.88 552.28 583.98Q574.71 594.4 549.87 602.82Q491.36 596.02 547.45 621.67Q534.1 628.72 545.04 640.52Q513.54 643.66 542.63 659.36Q478.2 652.24 540.21 678.21Q490.9 676.75 537.8 697.05"/>
    <path d="M573.31 413.26Q573.05 423.31 570.49 432.05Q561.34 439.93 567.28 450.78Q573.83 461.39 564.07 469.5Q540.02 472.0 560.86 488.23Q557.67 497.82 557.65 506.96Q570.53 518.31 554.44 525.68Q590.47 536.5 551.23 544.41Q576.31 556.39 547.85 564.12Q524.76 567.9 544.64 582.85Q566.6 594.22 541.43 601.58Q483.26 592.3 538.21 620.3Q524.57 626.78 535.0 639.03Q503.4 640.84 531.79 657.76Q467.73 647.9 528.58 676.48Q479.37 672.94 525.37 695.21"/>
    <path d="M572.89 413.18Q572.21 423.21 569.28 431.83Q559.81 439.32 565.28 450.41Q571.37 461.29 561.28 468.98Q537.14 470.45 557.27 487.55Q553.68 497.0 553.27 506.13Q565.66 518.02 549.27 524.7Q584.81 537.04 545.26 543.27Q569.82 556.31 541.05 562.83Q517.82 565.62 537.05 581.4Q558.51 593.69 533.04 599.97Q475.32 588.24 529.04 618.55Q515.13 624.44 525.04 637.12Q493.39 637.59 521.04 655.69Q457.45 643.13 517.03 674.27Q468.02 668.64 513.03 692.84"/>
    <path d="M572.48 413.08Q571.37 423.07 568.08 431.57Q558.3 438.64 563.29 449.95Q568.92 461.08 558.5 468.34Q534.33 468.78 553.72 486.73Q549.73 496.01 548.93 505.11Q560.8 517.52 544.14 523.5Q579.13 537.34 539.35 541.89Q563.33 555.95 534.31 561.24Q510.99 563.05 529.53 579.63Q550.45 592.82 524.74 598.02Q467.57 583.84 519.95 616.4Q505.81 621.7 515.16 634.79Q483.52 633.91 510.38 653.18Q447.38 637.93 505.59 671.56Q456.86 663.86 500.8 689.95"/>
    <path d="M572.07 412.96Q570.54 422.9 566.89 431.25Q556.81 437.9 561.33 449.41Q566.48 460.77 555.76 467.58Q531.59 467.0 550.2 485.75Q545.82 494.86 544.64 503.91Q555.97 516.82 539.07 522.08Q573.44 537.39 533.51 540.25Q556.87 555.32 527.65 559.37Q504.27 560.19 522.09 577.54Q542.43 591.6 516.53 595.71Q460.01 579.12 510.96 613.87Q496.61 618.56 505.4 632.04Q473.82 629.82 499.83 650.21Q437.54 632.3 494.27 668.38Q445.91 658.61 488.71 686.54"/>
    <path d="M571.67 412.83Q569.71 422.69 565.72 430.88Q555.37 437.1 559.39 448.79Q564.05 460.36 553.06 466.71Q528.93 465.1 546.73 484.62Q541.96 493.54 540.4 502.54Q551.18 515.91 534.07 520.45Q567.75 537.2 527.74 538.36Q550.44 554.42 521.08 557.22Q497.68 557.04 514.75 575.14Q534.48 590.05 508.42 593.05Q452.65 574.08 502.09 610.97Q487.54 615.04 495.76 628.88Q464.3 625.32 489.43 646.8Q427.95 626.26 483.1 664.71Q435.19 652.9 476.77 682.62"/>
    <path d="M571.27 412.68Q568.9 422.45 564.56 430.46Q553.95 436.24 557.47 448.09Q561.64 459.84 550.39 465.72Q526.35 463.09 543.31 483.35Q538.17 492.05 536.22 500.98Q546.42 514.79 529.14 518.61Q562.08 536.78 522.05 536.24Q544.05 553.24 514.6 554.8Q491.23 553.62 507.51 572.42Q526.59 588.16 500.43 590.05Q445.52 568.73 493.34 607.68Q478.64 611.14 486.26 625.31Q454.98 620.43 479.17 642.94Q418.62 619.82 472.09 660.57Q424.73 646.74 465.01 678.2"/>
    <path d="M570.88 412.51Q568.1 422.18 563.42 429.99Q552.58 435.31 555.59 447.3Q559.26 459.22 547.77 464.62Q523.86 460.97 539.94 481.93Q534.44 490.41 532.11 499.24Q541.72 513.48 524.29 516.56Q556.43 536.11 516.46 533.87Q537.72 551.79 508.22 552.1Q484.93 549.93 500.4 569.41Q518.79 585.94 492.57 586.72Q438.62 563.09 484.75 604.04Q469.91 606.86 476.92 621.35Q445.88 615.14 469.09 638.66Q409.58 612.98 461.27 655.98Q414.54 640.15 453.44 673.29"/>
    <path d="M570.5 412.33Q567.31 421.87 562.3 429.47Q551.25 434.33 553.75 446.44Q556.9 458.51 545.19 463.41Q521.47 458.75 536.64 480.37Q530.78 488.61 528.09 497.34Q537.08 511.97 519.53 514.3Q550.82 535.2 510.98 531.27Q531.45 550.07 501.97 549.13Q478.79 545.98 493.42 566.09Q511.1 583.39 484.87 583.06Q431.96 557.16 476.31 600.02Q461.37 602.22 467.76 616.99Q437.01 609.47 459.2 633.95Q400.83 605.77 450.65 650.92Q404.64 633.12 442.1 667.89"/>
    <path d="M570.12 412.13Q566.53 421.52 561.21 428.91Q549.95 433.3 551.94 445.5Q554.58 457.69 542.67 462.09Q519.17 456.43 533.41 478.67Q527.21 486.66 524.14 495.26Q532.51 510.26 514.88 511.85Q545.24 534.06 505.61 528.44Q525.27 548.09 495.85 545.9Q472.83 541.77 486.59 562.48Q503.51 580.52 477.32 579.07Q425.57 550.95 468.06 595.66Q453.03 597.22 458.79 612.25Q428.39 603.42 449.52 628.83Q392.4 598.2 440.26 645.42Q395.04 625.68 430.99 662.01"/>
    <path d="M569.76 411.92Q565.77 421.15 560.14 428.3Q548.71 432.21 550.17 444.48Q552.3 456.77 540.21 460.66Q516.97 454.01 530.25 476.84Q523.71 484.55 520.29 493.02Q528.01 508.36 510.33 509.2Q539.73 532.67 500.36 525.38Q519.17 545.85 489.88 542.41Q467.05 537.3 479.92 558.59Q496.06 577.32 469.95 574.77Q419.44 544.47 459.99 590.95Q444.92 591.87 450.03 607.13Q420.03 597.02 440.07 623.3Q384.3 590.28 430.11 639.48Q385.77 617.85 420.15 655.66"/>
    <path d="M569.4 411.69Q565.02 420.74 559.09 427.65Q547.51 431.07 548.45 443.39Q550.05 455.76 537.81 459.13Q514.87 451.5 527.17 474.88Q520.32 482.3 516.53 490.62Q523.6 506.27 505.89 506.36Q534.27 531.06 495.26 522.1Q513.18 543.35 484.06 538.67Q461.46 532.6 473.42 554.41Q488.75 573.82 462.78 570.15Q413.59 537.74 452.14 585.9Q437.04 586.18 441.5 601.64Q411.95 590.27 430.86 617.38Q376.54 582.01 420.22 633.12Q376.84 609.62 409.58 648.86"/>
    <path d="M569.05 411.44Q564.3 420.3 558.08 426.95Q546.36 429.87 546.78 442.23Q547.85 454.66 535.48 457.51Q512.88 448.9 524.18 472.78Q517.02 479.91 512.89 488.06Q519.28 504.0 501.59 503.33Q528.89 529.22 490.29 518.61Q507.29 540.6 478.4 534.69Q456.08 527.67 467.1 549.97Q481.6 570.0 455.8 565.24Q408.04 530.77 444.5 580.52Q429.4 580.16 433.2 595.79Q404.17 583.18 421.91 611.07Q369.14 573.43 410.61 626.35Q368.26 601.03 399.31 641.62"/>
    <path d="M568.72 411.18Q563.59 419.83 557.09 426.21Q545.26 428.63 545.16 441.0Q545.7 453.46 533.22 455.78Q511.01 446.23 521.28 470.56Q513.82 477.38 509.35 485.35Q515.06 501.54 497.41 500.13Q523.59 527.15 485.48 514.91Q501.53 537.61 472.91 530.47Q450.91 522.51 460.98 545.25Q474.61 565.89 449.04 560.04Q402.78 523.57 437.1 574.82Q422.03 573.82 425.17 589.6Q396.69 575.77 413.23 604.38Q362.11 564.54 401.29 619.17Q360.06 592.07 389.36 633.95"/>
    <path d="M568.39 410.91Q562.9 419.33 556.14 425.43Q544.22 427.35 543.59 439.7Q543.6 452.17 531.04 453.96Q509.25 443.47 518.48 468.22Q510.74 474.72 505.93 482.48Q510.95 498.91 493.38 496.75Q518.39 524.85 480.82 511.01Q495.9 534.37 467.61 526.02Q445.97 517.13 455.06 540.29Q467.8 561.48 442.5 554.55Q397.84 516.15 429.95 568.81Q414.94 567.17 417.4 583.07Q389.54 568.05 404.85 597.34Q355.46 555.36 392.29 611.6Q352.25 582.78 379.74 625.86"/>
    <path d="M568.08 410.62Q562.24 418.8 555.22 424.61Q543.23 426.02 542.08 438.33Q541.56 450.79 528.93 452.05Q507.61 440.65 515.78 465.76Q507.77 471.93 502.64 479.48Q506.95 496.11 489.49 493.2Q513.28 522.34 476.34 506.92Q490.41 530.89 462.5 521.36Q441.26 511.56 449.36 535.07Q461.19 556.79 436.21 548.79Q393.21 508.53 423.06 562.51Q408.13 560.23 409.92 576.22Q382.72 560.03 396.77 589.94Q349.21 545.9 383.62 603.66Q344.84 573.17 370.47 617.38"/>
    <path d="M567.78 410.32Q561.59 418.25 554.34 423.76Q542.3 424.65 540.62 436.9Q539.58 449.33 526.91 450.05Q506.09 437.75 513.19 463.2Q504.92 469.01 499.47 476.34Q503.08 493.13 485.75 489.49Q508.29 519.61 472.04 502.64Q485.08 527.19 457.6 516.47Q436.79 505.78 443.88 529.62Q454.78 551.82 430.16 542.77Q388.91 500.72 416.45 555.92Q401.63 553.01 402.73 569.06Q376.24 551.73 389.01 582.21Q343.36 536.19 375.29 595.36Q337.84 563.24 361.58 608.5"/>
    <path d="M567.49 410.01Q560.98 417.67 553.49 422.86Q541.42 423.25 539.23 435.41Q537.66 447.78 524.97 447.97Q504.69 434.8 510.71 460.52Q502.2 465.98 496.44 473.07Q499.33 490.0 482.18 485.62Q503.42 516.68 467.92 498.18Q479.91 523.26 452.9 511.39Q432.57 499.82 438.64 523.94Q448.59 546.59 424.38 536.5Q384.95 492.74 410.12 549.05Q395.43 545.52 395.85 561.6Q370.13 543.16 381.59 574.15Q337.94 526.24 367.33 586.71Q331.27 553.04 353.07 599.26"/>
    <path d="M567.22 409.68Q560.38 417.06 552.69 421.93Q540.61 421.8 537.91 433.87Q535.81 446.16 523.12 445.8Q503.42 431.78 508.34 457.74Q499.61 462.83 493.56 469.67Q495.73 486.71 478.77 481.61Q498.67 513.54 463.99 493.55Q474.9 519.12 448.43 506.11Q428.61 493.69 433.65 518.05Q442.63 541.09 418.87 529.98Q381.33 484.59 404.08 541.92Q389.56 537.77 389.3 553.86Q364.38 534.34 374.52 565.79Q332.94 516.07 359.74 577.73Q325.14 542.56 344.95 589.66"/>
    <path d="M566.96 409.35Q559.82 416.42 551.92 420.97Q539.86 420.33 536.65 432.26Q534.03 444.46 521.37 443.56Q502.28 428.72 506.09 454.86Q497.15 459.58 490.82 466.16Q492.26 483.27 475.54 477.46Q494.07 510.2 460.27 488.75Q470.08 514.76 444.19 500.65Q424.91 487.4 428.91 511.94Q436.9 535.35 413.63 523.24Q378.06 476.3 398.36 534.54Q384.03 529.77 383.08 545.84Q359.01 525.28 367.81 557.14Q328.37 505.7 352.53 568.43Q319.46 531.83 337.25 579.73"/>
    <path d="M566.71 409.0Q559.28 415.77 551.2 419.97Q539.18 418.82 535.46 430.61Q532.33 442.68 519.71 441.25Q501.27 425.61 503.97 451.89Q494.84 456.23 488.23 462.53Q488.95 479.69 472.49 473.17Q489.61 506.67 456.75 483.81Q465.45 510.21 440.18 495.01Q421.48 480.95 424.44 505.65Q431.43 529.37 408.69 516.29Q375.14 467.87 392.95 526.93Q378.84 521.56 377.21 537.57Q354.04 516.0 361.47 548.2Q324.25 495.14 345.73 558.84Q314.24 520.86 329.99 569.48"/>
    <path d="M566.48 408.64Q558.77 415.09 550.52 418.95Q538.55 417.29 534.34 428.91Q530.7 440.84 518.16 438.87Q500.4 422.46 501.98 448.83Q492.67 452.78 485.8 458.79Q485.79 475.97 469.62 468.75Q485.3 502.95 453.44 478.72Q461.02 505.46 436.41 489.2Q418.32 474.37 420.23 499.16Q426.21 523.16 404.05 509.13Q372.59 459.33 387.87 519.09Q374.0 513.12 371.69 529.05Q349.46 506.52 355.52 539.01Q320.59 484.41 339.34 548.97Q309.49 509.69 323.16 558.94"/>
    <path d="M566.27 408.28Q558.29 414.39 549.88 417.89Q538.0 415.73 533.29 427.16Q529.15 438.92 516.7 436.42Q499.65 419.28 500.12 445.69Q490.65 449.24 483.53 454.96Q482.79 472.12 466.94 464.22Q481.16 499.06 450.35 473.49Q456.79 500.53 432.89 483.24Q415.45 467.65 416.31 492.51Q421.26 516.74 399.72 501.78Q370.39 450.69 383.13 511.04Q369.52 504.49 366.54 520.31Q345.28 496.86 349.96 529.57Q317.38 473.54 333.37 538.84Q305.21 498.33 316.78 548.11"/>
    <path d="M566.07 407.9Q557.83 413.67 549.29 416.81Q537.51 414.14 532.32 425.37Q527.68 436.94 515.35 433.92Q499.05 416.07 498.39 442.47Q488.78 445.62 481.42 451.03Q479.95 468.14 464.46 459.58Q477.18 494.99 447.49 468.14Q452.77 495.43 429.63 477.14Q412.87 460.82 412.67 485.69Q416.59 510.11 395.7 494.25Q368.57 441.97 378.74 502.8Q365.42 495.68 361.77 511.36Q341.52 487.02 344.81 519.91Q314.63 462.54 327.84 528.46Q301.43 486.79 310.87 537.02"/>
    <path d="M565.89 407.52Q557.41 412.93 548.74 415.71Q537.08 412.54 531.43 423.54Q526.3 434.91 514.11 431.36Q498.58 412.83 496.8 439.19Q487.07 441.92 479.49 447.01Q477.29 464.05 462.17 454.84Q473.38 490.75 444.86 462.67Q448.98 490.16 426.63 470.9Q410.58 453.89 409.32 478.73Q412.2 503.29 392.01 486.56Q367.12 433.17 374.69 494.38Q361.69 486.7 357.38 502.21Q338.18 477.04 340.07 510.04Q312.36 451.44 322.75 517.86Q298.13 475.11 305.44 525.69"/>
    <path d="M565.72 407.13Q557.03 412.18 548.24 414.58Q536.73 410.93 530.61 421.67Q525.01 432.81 512.98 428.75Q498.25 409.58 495.35 435.84Q485.51 438.15 477.72 442.92Q474.81 459.85 460.09 450.01Q469.77 486.36 442.46 457.09Q445.41 484.73 423.9 464.55Q408.58 446.87 406.27 471.63Q408.11 496.3 388.64 478.72Q366.04 424.32 371.01 485.8Q358.35 477.58 353.38 492.88Q335.27 466.92 335.75 499.97Q310.55 440.25 318.12 507.05Q295.34 463.29 300.49 514.14"/>
    <path d="M565.57 406.73Q556.67 411.41 547.79 413.44Q536.45 409.3 529.88 419.77Q523.81 430.66 511.96 426.1Q498.05 406.32 494.05 432.43Q484.12 434.32 476.13 438.76Q472.5 455.54 458.22 445.09Q466.34 481.82 440.3 451.42Q442.07 479.16 421.44 458.08Q406.89 439.77 403.53 464.41Q404.32 489.13 385.61 470.74Q365.34 415.43 367.7 477.07Q355.39 468.31 349.79 483.4Q332.79 456.69 331.87 489.73Q309.23 428.99 313.96 496.06Q293.05 451.37 296.04 502.39"/>
    <path d="M565.44 406.33Q556.35 410.62 547.39 412.27Q536.23 407.65 529.22 417.84Q522.69 428.47 511.05 423.4Q498.0 403.05 492.89 428.97Q482.89 430.44 474.72 434.53Q470.38 451.15 456.55 440.09Q463.11 477.14 438.39 445.66Q438.98 473.45 419.26 451.51Q405.5 432.6 401.09 457.08Q400.84 481.81 382.93 462.64Q365.02 406.52 364.76 468.2Q352.84 458.94 346.59 473.77Q330.75 446.36 328.43 479.33Q308.38 417.69 310.26 484.89Q291.27 439.36 292.09 490.46"/>
    <path d="M565.32 405.92Q556.06 409.82 547.04 411.09Q536.09 406.0 528.65 415.88Q521.68 426.22 510.26 420.67Q498.08 399.78 491.88 425.46Q481.82 426.5 473.49 430.24Q468.45 446.66 455.1 435.03Q460.08 472.32 436.71 439.82Q436.13 467.61 417.36 444.86Q404.41 425.38 398.97 449.65Q397.66 474.35 380.59 454.43Q365.08 397.61 362.2 459.22Q350.68 449.46 343.81 464.01Q329.15 435.96 325.43 468.8Q308.02 406.36 307.04 473.59Q290.0 427.28 288.65 478.37"/>
    <path d="M565.22 405.51Q555.8 409.02 546.74 409.9Q536.01 404.35 528.16 413.9Q520.76 423.94 509.59 417.91Q498.31 396.52 491.01 421.91Q480.92 422.53 472.44 425.91Q466.71 442.1 453.87 429.92Q457.26 467.38 435.29 433.92Q433.53 461.66 415.74 438.13Q403.63 418.12 397.17 442.13Q394.81 466.76 378.6 446.14Q365.51 388.71 360.02 450.14Q348.93 439.89 341.45 454.14Q327.99 425.49 322.88 458.15Q308.13 395.03 304.3 462.15Q289.24 415.17 285.73 466.15"/>
    <path d="M565.14 405.09Q555.58 408.2 546.48 408.7Q536.0 402.7 527.76 411.91Q519.93 421.62 509.03 415.12Q498.67 393.27 490.3 418.33Q480.2 418.52 471.58 421.54Q465.16 437.47 452.85 424.75Q454.65 462.33 434.12 427.96Q431.18 455.6 414.41 431.34Q403.16 410.83 395.69 434.55Q392.29 459.05 376.96 437.76Q366.33 379.83 358.23 440.97Q347.58 430.27 339.51 444.19Q327.27 414.99 320.78 447.4Q308.73 383.71 302.05 450.61Q289.0 403.03 283.33 453.82"/>
    <path d="M565.08 404.67Q555.39 407.37 546.29 407.48Q536.07 401.04 527.44 409.89Q519.21 419.26 508.59 412.31Q499.17 390.04 489.75 414.72Q479.64 414.48 470.9 417.13Q463.82 432.78 452.06 419.55Q452.26 457.17 433.21 421.96Q429.1 449.45 413.37 424.5Q403.0 403.53 394.52 426.91Q390.09 451.25 375.68 429.33Q367.52 370.99 356.83 431.74Q346.65 420.59 337.99 434.15Q327.0 404.47 319.14 436.57Q309.8 372.43 300.29 438.98Q289.27 390.89 281.45 441.39"/>
    <path d="M565.04 404.25Q555.24 406.53 546.14 406.26Q536.2 399.39 527.21 407.87Q518.59 416.88 508.28 409.48Q499.8 386.83 489.34 411.09Q479.26 410.42 470.41 412.7Q462.67 428.03 451.48 414.31Q450.09 451.91 432.55 415.93Q427.27 443.22 412.62 417.62Q403.15 396.23 393.69 419.23Q388.23 443.35 374.76 420.84Q369.08 362.22 355.83 422.46Q346.12 410.88 336.89 424.07Q327.18 393.94 317.96 425.68Q311.36 361.2 299.03 427.29Q290.06 378.78 280.1 428.9"/>
    <path d="M565.01 403.82Q555.13 405.69 546.04 405.03Q536.41 397.75 527.06 405.84Q518.07 414.48 508.08 406.64Q500.57 383.66 489.09 407.45Q479.04 406.35 470.11 408.26Q461.72 423.24 451.13 409.06Q448.14 446.57 432.15 409.87Q425.72 436.91 412.16 410.72Q403.61 388.94 393.18 411.52Q386.7 435.39 374.2 412.33Q371.01 353.51 355.22 413.14Q346.01 401.16 336.23 413.94Q327.8 383.43 317.25 414.75Q313.38 350.05 298.27 415.56Q291.36 366.7 279.28 416.36"/>
    <path d="M565.0 403.4Q555.05 404.84 546.0 403.8Q536.68 396.11 527.0 403.8Q517.65 412.05 508.0 403.8Q501.48 380.52 489.0 403.8Q479.01 402.28 470.0 403.8Q460.98 418.42 451.0 403.8Q446.42 441.14 432.0 403.8Q424.43 430.55 412.0 403.8Q404.38 381.68 393.0 403.8Q385.51 427.37 374.0 403.8Q373.31 344.9 355.0 403.8Q346.31 391.45 336.0 403.8Q328.88 372.96 317.0 403.8Q315.88 338.99 298.0 403.8Q293.18 354.7 279.0 403.8"/>
    <path d="M565.01 402.98Q555.0 404.0 546.01 402.57Q537.03 394.5 527.03 401.76Q517.33 409.61 508.04 400.96Q502.52 377.42 489.06 400.15Q479.14 398.21 470.08 399.34Q460.45 413.57 451.09 398.54Q444.94 435.65 432.11 397.73Q423.41 424.13 412.13 396.88Q405.45 374.46 393.15 396.08Q384.66 419.31 374.16 395.27Q375.98 336.39 355.18 394.46Q347.03 381.75 336.2 393.66Q330.39 362.54 317.22 392.85Q318.85 328.05 298.23 392.04Q295.5 342.78 279.25 391.24"/>
    <path d="M565.04 402.55Q555.0 403.15 546.07 401.34Q537.44 392.89 527.14 399.73Q517.12 407.16 508.21 398.12Q503.68 374.36 489.28 396.51Q479.45 394.14 470.34 394.89Q460.12 408.7 451.41 393.28Q443.69 430.1 432.48 391.67Q422.67 417.68 412.55 389.98Q406.83 367.29 393.62 388.36Q384.16 411.22 374.69 386.75Q379.0 328.01 355.76 385.14Q348.15 372.1 336.83 383.53Q332.34 352.2 317.9 381.92Q322.28 317.25 298.96 380.31Q298.32 330.97 280.03 378.7"/>
    <path d="M565.08 402.13Q555.03 402.3 546.18 400.11Q537.92 391.31 527.34 397.7Q517.01 404.7 508.49 395.29Q504.98 371.36 489.65 392.87Q479.93 390.1 470.8 390.46Q460.0 403.82 451.95 388.05Q442.67 424.51 433.11 385.63Q422.2 411.2 413.27 383.09Q408.52 360.19 394.42 380.68Q384.0 403.11 375.58 378.27Q382.38 319.76 356.73 375.85Q349.68 362.5 337.88 373.44Q334.74 341.94 319.04 371.03Q326.16 306.6 300.19 368.61Q301.65 319.3 281.35 366.2"/>
    <path d="M565.14 401.71Q555.09 401.45 546.35 398.89Q538.47 389.74 527.62 395.68Q517.01 402.23 508.9 392.47Q506.4 368.42 490.17 389.26Q480.58 386.07 471.44 386.05Q460.09 398.93 452.72 382.84Q441.9 418.87 433.99 379.63Q422.01 404.71 414.28 376.25Q410.5 353.16 395.55 373.04Q384.18 395.0 376.82 369.83Q386.1 311.66 358.1 366.61Q351.62 352.97 339.37 363.4Q337.56 331.8 320.64 360.19Q330.5 296.13 301.92 356.98Q305.46 307.77 283.19 353.77"/>
    <path d="M565.22 401.29Q555.19 400.61 546.57 397.68Q539.08 388.21 527.99 393.68Q517.11 399.77 509.42 389.68Q507.95 365.54 490.85 385.67Q481.4 382.08 472.27 381.67Q460.38 394.06 453.7 377.67Q441.36 413.21 435.13 373.66Q422.09 398.22 415.57 369.45Q412.78 346.22 397.0 365.45Q384.71 386.91 378.43 361.44Q390.16 303.72 359.85 357.44Q353.96 343.53 341.28 353.44Q340.81 321.79 322.71 349.44Q335.27 285.85 304.13 345.43Q309.76 296.42 285.56 341.43"/>
    <path d="M565.32 400.88Q555.33 399.77 546.83 396.48Q539.76 386.7 528.45 391.69Q517.32 397.32 510.06 386.9Q509.62 362.73 491.67 382.12Q482.39 378.13 473.29 377.33Q460.88 389.2 454.9 372.54Q441.06 407.53 436.51 367.75Q422.45 391.73 417.16 362.71Q415.35 339.39 398.77 357.93Q385.58 378.85 380.38 353.14Q394.56 295.97 362.0 348.35Q356.7 334.21 343.61 343.56Q344.49 311.92 325.22 338.78Q340.47 275.78 306.84 333.99Q314.54 285.26 288.45 329.2"/>
    <path d="M565.44 400.47Q555.5 398.94 547.15 395.29Q540.5 385.21 528.99 389.73Q517.63 394.88 510.82 384.16Q511.4 359.99 492.65 378.6Q483.54 374.22 474.49 373.04Q461.58 384.37 456.32 367.47Q441.01 401.84 438.15 361.91Q423.08 385.27 419.03 356.05Q418.21 332.67 400.86 350.49Q386.8 370.83 382.69 344.93Q399.28 288.41 364.53 339.36Q359.84 325.01 346.36 333.8Q348.58 302.22 328.19 328.23Q346.1 265.94 310.02 322.67Q319.79 274.31 291.86 317.11"/>
    <path d="M565.57 400.07Q555.71 398.11 547.52 394.12Q541.3 383.77 529.61 387.79Q518.04 392.45 511.69 381.46Q513.3 357.33 493.78 375.13Q484.86 370.36 475.86 368.8Q462.49 379.58 457.95 362.47Q441.2 396.15 440.04 356.14Q423.98 378.84 421.18 349.48Q421.36 326.08 403.26 343.15Q388.35 362.88 385.35 336.82Q404.32 281.05 367.43 330.49Q363.36 315.94 349.52 324.16Q353.08 292.7 331.6 317.83Q352.14 256.35 313.69 311.5Q325.5 263.59 295.78 305.17"/>
    <path d="M565.72 399.67Q555.95 397.3 547.94 392.96Q542.16 382.35 530.31 385.87Q518.56 390.04 512.68 378.79Q515.31 354.75 495.05 371.71Q486.35 366.57 477.42 364.62Q463.61 374.82 459.79 357.54Q441.62 390.48 442.16 350.45Q425.16 372.45 423.6 343.0Q424.78 319.63 405.98 335.91Q390.24 354.99 388.35 328.83Q409.67 273.92 370.72 321.74Q367.26 307.04 353.09 314.66Q357.97 283.38 335.46 307.57Q358.58 247.02 317.83 300.49Q331.66 253.13 300.2 293.41"/>
    <path d="M565.89 399.28Q556.22 396.5 548.41 391.82Q543.09 380.98 531.1 383.99Q519.18 387.66 513.78 376.17Q517.43 352.26 496.47 368.34Q487.99 362.84 479.16 360.51Q464.92 370.12 461.84 352.69Q442.29 384.83 444.53 344.86Q426.61 366.12 426.3 336.62Q428.47 313.33 408.99 328.8Q392.46 347.19 391.68 320.97Q415.31 267.02 374.36 313.15Q371.54 298.31 357.05 305.32Q363.26 274.28 339.74 297.49Q365.42 237.98 322.42 289.67Q338.25 242.94 305.11 281.84"/>
    <path d="M566.07 398.9Q556.53 395.71 548.93 390.7Q544.07 379.65 531.96 382.15Q519.89 385.3 514.99 373.59Q519.65 349.87 498.03 365.04Q489.79 359.18 481.06 356.49Q466.43 365.48 464.1 347.93Q443.2 379.22 447.13 339.38Q428.33 359.85 429.27 330.37Q432.42 307.19 412.31 321.82Q395.01 339.5 395.34 313.27Q421.24 260.36 378.38 304.71Q376.18 289.77 361.41 296.16Q368.93 265.41 344.45 287.6Q372.63 229.23 327.48 279.05Q345.28 233.04 310.51 270.5"/>
    <path d="M566.27 398.52Q556.88 394.93 549.49 389.61Q545.1 378.35 532.9 380.34Q520.71 382.98 516.31 371.07Q521.97 347.57 499.73 361.81Q491.74 355.61 483.14 352.54Q468.14 360.91 466.55 343.28Q444.34 373.64 449.96 334.01Q430.31 353.67 432.5 324.25Q436.63 301.23 415.92 314.99Q397.88 331.91 399.33 305.72Q427.45 253.97 382.74 296.46Q381.18 281.43 366.15 287.19Q374.98 256.79 349.57 277.92Q380.2 220.8 332.98 268.66Q352.72 223.44 316.39 259.39"/>
    <path d="M566.48 398.16Q557.25 394.17 550.1 388.54Q546.19 377.11 533.92 378.57Q521.63 380.7 517.74 368.61Q524.39 345.37 501.56 358.65Q493.85 352.11 485.38 348.69Q470.04 356.41 469.2 338.73Q445.73 368.13 453.02 328.76Q432.55 347.57 435.99 318.28Q441.1 295.45 419.81 308.32Q401.08 324.46 403.63 298.35Q433.93 247.84 387.45 288.39Q386.53 273.32 371.27 278.43Q381.38 248.43 355.1 268.47Q388.12 212.7 338.92 258.51Q360.55 214.17 322.74 248.55"/>
    <path d="M566.71 397.8Q557.66 393.42 550.75 387.49Q547.33 375.91 535.01 376.85Q522.64 378.45 519.27 366.21Q526.9 343.27 503.52 355.57Q496.1 348.72 487.78 344.93Q472.13 352.0 472.04 334.29Q447.34 362.67 456.3 323.66Q435.05 341.58 439.73 312.46Q445.8 289.86 423.99 301.82Q404.58 317.15 408.25 291.18Q440.66 241.99 392.5 280.54Q392.22 265.44 376.76 269.9Q388.13 240.35 361.02 259.26Q396.39 204.94 345.28 248.62Q368.78 205.24 329.54 237.98"/>
    <path d="M566.96 397.45Q558.1 392.7 551.45 386.48Q548.53 374.76 536.17 375.18Q523.74 376.25 520.89 363.88Q529.5 341.28 505.62 352.58Q498.49 345.42 490.34 341.29Q474.4 347.68 475.07 329.99Q449.18 357.29 459.79 318.69Q437.8 335.69 443.71 306.8Q450.73 284.48 428.43 295.5Q408.4 310.0 413.16 284.2Q447.63 236.44 397.88 272.9Q398.24 257.8 382.61 261.6Q395.22 232.57 367.33 250.31Q404.97 197.54 352.05 239.01Q377.37 196.66 336.78 227.71"/>
    <path d="M567.22 397.12Q558.57 391.99 552.19 385.49Q549.77 373.66 537.4 373.56Q524.94 374.1 522.62 361.62Q532.17 339.41 507.84 349.68Q501.02 342.22 493.05 337.75Q476.86 343.46 478.27 325.81Q451.25 351.99 463.49 313.88Q440.79 329.93 447.93 301.31Q455.89 279.31 433.15 289.38Q412.51 303.01 418.36 277.44Q454.83 231.18 403.58 265.5Q404.58 250.43 388.8 253.57Q402.63 225.09 374.02 241.63Q413.86 190.51 359.23 229.69Q386.33 188.46 344.45 217.76"/>
    <path d="M567.49 396.79Q559.07 391.3 552.97 384.54Q551.05 372.62 538.7 371.99Q526.23 372.0 524.44 359.44Q534.93 337.65 510.18 346.88Q503.68 339.14 495.92 334.33Q479.49 339.35 481.65 321.78Q453.55 346.79 467.39 309.22Q444.03 324.3 452.38 296.01Q461.27 274.37 438.11 283.46Q416.92 296.2 423.85 270.9Q462.25 226.24 409.59 258.35Q411.23 243.34 395.33 245.8Q410.35 217.94 381.06 233.25Q423.04 183.86 366.8 220.69Q395.62 180.65 352.54 208.14"/>
    <path d="M567.78 396.48Q559.6 390.64 553.79 383.62Q552.38 371.63 540.07 370.48Q527.61 369.96 526.35 357.33Q537.75 336.01 512.64 344.18Q506.47 336.17 498.92 331.04Q482.29 335.35 485.2 317.89Q456.06 341.68 471.48 304.74Q447.51 318.81 457.04 290.9Q466.84 269.66 443.33 277.76Q421.61 289.59 429.61 264.61Q469.87 221.61 415.89 251.46Q418.17 236.53 402.18 238.32Q418.37 211.12 388.46 225.17Q432.5 177.61 374.74 212.02Q405.23 173.24 361.02 198.87"/>
    <path d="M568.08 396.18Q560.15 389.99 554.64 382.74Q553.75 370.7 541.5 369.02Q529.07 367.98 528.35 355.31Q540.65 334.49 515.2 341.59Q509.39 333.32 502.06 327.87Q485.27 331.48 488.91 314.15Q458.79 336.69 475.76 300.44Q451.21 313.48 461.93 286.0Q472.62 265.19 448.78 272.28Q426.58 283.18 435.63 258.56Q477.68 217.31 422.48 244.85Q425.39 230.03 409.34 231.13Q426.67 204.64 396.19 217.41Q442.21 171.76 383.04 203.69Q415.16 166.24 369.9 189.98"/>
    <path d="M568.39 395.89Q560.73 389.38 555.54 381.89Q555.15 369.82 542.99 367.63Q530.62 366.06 530.43 353.37Q543.6 333.09 517.88 339.11Q512.42 330.6 505.33 324.84Q488.4 327.73 492.78 310.58Q461.72 331.82 480.22 296.32Q455.14 308.31 467.01 281.3Q478.58 260.97 454.46 267.04Q431.81 276.99 441.9 252.78Q485.66 213.35 429.35 238.52Q432.88 223.83 416.8 224.25Q435.24 198.53 404.25 209.99Q452.16 166.34 391.69 195.73Q425.36 159.67 379.14 181.47"/>
    <path d="M568.72 395.62Q561.34 388.78 556.47 381.09Q556.6 369.01 544.53 366.31Q532.24 364.21 532.6 351.52Q546.62 331.82 520.66 336.74Q515.57 328.01 508.73 321.96Q491.69 324.13 496.79 307.17Q464.86 327.07 484.85 292.39Q459.28 303.3 472.29 276.83Q484.71 257.01 460.35 262.05Q437.31 271.03 448.42 247.27Q493.81 209.73 436.48 232.48Q440.63 217.96 424.54 217.7Q444.06 192.78 412.61 202.92Q462.33 161.34 400.67 188.14Q435.84 153.54 388.74 173.35"/>
    <path d="M569.05 395.36Q561.98 388.22 557.43 380.32Q558.07 368.26 546.14 365.05Q533.94 362.43 534.84 349.77Q549.68 330.68 523.54 334.49Q518.82 325.55 512.24 319.22Q495.13 320.66 500.94 303.94Q468.2 322.47 489.65 288.67Q463.64 298.48 477.75 272.59Q491.0 253.31 466.46 257.31Q443.05 265.3 455.16 242.03Q502.1 206.46 443.86 226.76Q448.63 212.43 432.56 211.48Q453.12 187.41 421.26 196.21Q472.7 156.77 409.97 180.93Q446.57 147.86 398.67 165.65"/>
    <path d="M569.4 395.11Q562.63 387.68 558.43 379.6Q559.58 367.58 547.79 363.86Q535.72 360.73 537.15 348.11Q552.79 329.67 526.51 332.37Q522.17 323.24 515.87 316.63Q498.71 317.35 505.23 300.89Q471.73 318.01 494.59 285.15Q468.19 293.85 483.39 268.58Q497.45 249.88 472.75 252.84Q449.03 259.83 462.11 237.09Q510.53 203.54 451.47 221.35Q456.84 207.24 440.83 205.61Q462.4 182.44 430.2 189.87Q483.26 152.65 419.56 174.13Q457.54 142.64 408.92 158.39"/>
    <path d="M569.76 394.88Q563.31 387.17 559.45 378.92Q561.11 366.95 549.49 362.74Q537.56 359.1 539.53 346.56Q555.94 328.8 529.57 330.38Q525.62 321.07 519.61 314.2Q502.43 314.19 509.65 298.02Q475.45 313.7 499.68 281.84Q472.94 289.42 489.2 264.81Q504.03 246.72 479.24 248.63Q455.24 254.61 469.27 232.45Q519.07 200.99 459.31 216.27Q465.28 202.4 449.35 200.09Q471.88 177.86 439.39 183.92Q493.99 148.99 429.43 167.74Q468.71 137.89 419.46 151.56"/>
    <path d="M570.12 394.67Q564.01 386.69 560.51 378.28Q562.67 366.4 551.24 361.69Q539.48 357.55 541.98 345.1Q559.12 328.05 532.71 328.52Q529.16 319.05 523.44 311.93Q506.28 311.19 514.18 295.34Q479.34 309.56 504.91 278.75Q477.87 285.19 495.16 261.29Q510.75 243.85 485.89 244.71Q461.66 249.66 476.62 228.12Q527.71 198.79 467.36 211.53Q473.91 197.92 458.09 194.94Q481.54 173.68 448.83 178.36Q504.86 145.78 439.56 161.77Q480.07 133.61 430.29 145.18"/>
    <path d="M570.5 394.47Q564.73 386.23 561.59 377.69Q564.26 365.91 553.03 360.72Q541.46 356.08 544.48 343.75Q562.33 327.45 535.93 326.79Q532.78 317.18 527.37 309.82Q510.26 308.35 518.82 292.86Q483.41 305.58 510.26 275.89Q482.97 281.17 501.26 258.03Q517.58 241.27 492.71 241.07Q468.29 244.99 484.15 224.1Q536.43 196.97 475.6 207.14Q482.72 193.82 467.04 190.17Q491.38 169.92 458.49 173.21Q515.86 143.03 449.94 156.24Q491.61 129.83 441.38 139.27"/>
    <path d="M570.88 394.29Q565.47 385.81 562.69 377.14Q565.86 365.48 554.86 359.83Q543.49 354.7 547.04 342.51Q565.57 326.98 539.21 325.2Q536.48 315.47 531.39 307.89Q514.35 305.69 523.56 290.57Q487.65 301.78 515.73 273.26Q488.24 277.38 507.5 255.03Q524.51 238.98 499.67 237.72Q475.11 240.6 491.84 220.41Q545.23 195.52 484.02 203.09Q491.7 190.09 476.19 185.78Q501.36 166.58 468.36 168.47Q526.96 140.76 460.54 151.15Q503.29 126.53 452.71 133.84"/>
    <path d="M571.27 394.12Q566.22 385.43 563.82 376.64Q567.47 365.13 556.73 359.01Q545.59 353.41 549.65 341.38Q568.82 326.65 542.56 323.75Q540.25 313.91 535.48 306.12Q518.55 303.21 528.39 288.49Q492.04 298.17 521.31 270.86Q493.67 273.81 513.85 252.3Q531.53 236.98 506.77 234.67Q482.1 236.51 499.68 217.04Q554.08 194.44 492.6 199.41Q500.82 186.75 485.52 181.78Q511.48 163.67 478.43 164.15Q538.15 138.95 471.35 146.52Q515.11 123.74 464.26 128.89"/>
    <path d="M571.67 393.97Q566.99 385.07 564.96 376.19Q569.1 364.85 558.63 358.28Q547.74 352.21 552.3 340.36Q572.08 326.45 545.97 322.45Q544.08 312.52 539.64 304.53Q522.86 300.9 533.31 286.62Q496.58 294.74 526.98 268.7Q499.24 270.47 520.32 249.84Q538.63 235.29 513.99 231.93Q489.27 232.72 507.66 214.01Q562.97 193.74 501.33 196.1Q510.09 183.79 495.0 178.19Q521.71 161.19 488.67 160.27Q549.41 137.63 482.34 142.36Q527.03 121.45 476.01 124.44"/>
    <path d="M572.07 393.84Q567.78 384.75 566.13 375.79Q570.75 364.63 560.56 357.62Q549.93 351.09 555.0 339.45Q575.35 326.4 549.43 321.29Q547.96 311.29 543.87 303.12Q527.25 298.78 538.31 284.95Q501.26 291.51 532.74 266.79Q504.95 267.38 526.89 247.66Q545.8 233.9 521.32 229.49Q496.59 229.24 515.76 211.33Q571.88 193.42 510.2 193.16Q519.46 181.24 504.63 174.99Q532.04 159.15 499.07 156.83Q560.71 136.78 493.51 138.66Q539.04 119.67 487.94 120.49"/>
    <path d="M572.48 393.72Q568.58 384.46 567.31 375.44Q572.4 364.49 562.52 357.05Q552.18 350.08 557.73 338.66Q578.62 326.48 552.94 320.28Q551.9 310.22 548.16 301.89Q531.74 296.85 543.37 283.5Q506.08 288.48 538.58 265.11Q510.79 264.53 533.54 245.76Q553.02 232.81 528.75 227.37Q504.05 226.06 523.97 208.99Q580.79 193.48 519.18 190.6Q528.94 179.08 514.39 172.21Q542.44 157.55 509.6 153.83Q572.04 136.42 504.81 135.44Q551.12 118.4 500.03 117.05"/>
    <path d="M572.89 393.62Q569.38 384.2 568.5 375.14Q574.05 364.41 564.5 356.56Q554.46 349.16 560.49 337.99Q581.88 326.71 556.49 319.41Q555.87 309.32 552.49 300.84Q536.3 295.11 548.48 282.27Q511.02 285.66 544.48 263.69Q516.74 261.93 540.27 244.14Q560.28 232.03 536.27 225.57Q511.64 223.21 532.26 207.0Q589.69 193.91 528.26 188.42Q538.51 177.33 524.26 169.85Q552.91 156.39 520.25 151.28Q583.37 136.53 516.25 132.7Q563.23 117.64 512.25 114.13"/>
    <path d="M573.31 393.54Q570.2 383.98 569.7 374.88Q575.7 364.4 566.49 356.16Q556.78 348.33 563.28 337.43Q585.13 327.07 560.07 318.7Q559.88 308.6 556.86 299.98Q540.93 293.56 553.65 281.25Q516.07 283.05 550.44 262.52Q522.8 259.58 547.06 242.81Q567.57 231.56 543.85 224.09Q519.35 220.69 540.64 205.36Q598.57 194.73 537.43 186.63Q548.13 175.98 534.21 167.91Q563.41 155.67 531.0 149.18Q594.69 137.13 527.79 130.45Q575.37 117.4 524.58 111.73"/>
    <path d="M573.73 393.48Q571.03 383.79 570.92 374.69Q577.36 364.47 568.51 355.84Q559.14 347.61 566.09 336.99Q588.36 327.57 563.68 318.15Q563.92 308.04 561.27 299.3Q545.62 292.22 558.85 280.46Q521.23 280.66 556.44 261.61Q528.95 257.5 553.9 241.77Q574.87 231.4 551.49 222.92Q527.15 218.49 549.07 204.08Q607.41 195.92 546.66 185.23Q557.81 175.05 544.25 166.39Q573.93 155.4 541.83 147.54Q605.97 138.2 539.42 128.69Q587.51 117.67 537.01 109.85"/>
    <path d="M574.15 393.44Q571.87 383.64 572.14 374.54Q579.01 364.6 570.53 355.61Q561.52 346.99 568.92 336.68Q591.57 328.2 567.31 317.74Q567.98 307.66 565.7 298.81Q550.37 291.07 564.09 279.88Q526.49 278.49 562.47 260.95Q535.18 255.67 560.78 241.02Q582.17 231.55 559.17 222.09Q535.05 216.63 557.56 203.16Q616.18 197.48 555.94 184.23Q567.52 174.52 554.33 165.29Q584.46 155.58 552.72 146.36Q617.2 139.76 551.11 127.43Q599.62 118.46 549.5 108.5"/>
    <path d="M574.58 393.41Q572.71 383.53 573.37 374.44Q580.65 364.81 572.56 355.46Q563.92 346.47 571.76 336.48Q594.74 328.97 570.95 317.49Q572.05 307.44 570.14 298.51Q555.16 290.12 569.34 279.53Q531.83 276.54 568.53 260.55Q541.49 254.12 567.68 240.56Q589.46 232.01 566.88 221.58Q543.01 215.1 566.07 202.6Q624.89 199.41 565.26 183.62Q577.24 174.41 564.46 164.63Q594.97 156.2 563.65 145.65Q628.35 141.78 562.84 126.67Q611.7 119.76 562.04 107.68"/>
    <path d="M575.0 393.4Q573.56 383.45 574.6 374.4Q582.29 365.08 574.6 355.4Q566.35 346.05 574.6 336.4Q597.88 329.88 574.6 317.4Q576.12 307.41 574.6 298.4Q559.98 289.38 574.6 279.4Q537.26 274.82 574.6 260.4Q547.85 252.83 574.6 240.4Q596.72 232.78 574.6 221.4Q551.03 213.91 574.6 202.4Q633.5 201.71 574.6 183.4Q586.95 174.71 574.6 164.4Q605.44 157.28 574.6 145.4Q639.41 144.28 574.6 126.4Q623.7 121.58 574.6 107.4"/>
    <path d="M575.42 393.41Q574.4 383.4 575.83 374.41Q583.9 365.43 576.64 355.43Q568.79 345.73 577.44 336.44Q600.98 330.92 578.25 317.46Q580.19 307.54 579.06 298.48Q564.83 288.85 579.86 279.49Q542.75 273.34 580.67 260.51Q554.27 251.81 581.52 240.53Q603.94 233.85 582.32 221.55Q559.09 213.06 583.13 202.56Q642.01 204.38 583.94 183.58Q596.65 175.43 584.74 164.6Q615.86 158.79 585.55 145.62Q650.35 147.25 586.36 126.63Q635.62 123.9 587.16 107.65"/>
    <path d="M575.85 393.44Q575.25 383.4 577.06 374.47Q585.51 365.84 578.67 355.54Q571.24 345.52 580.28 336.61Q604.04 332.08 581.89 317.68Q584.26 307.85 583.51 298.74Q569.7 288.52 585.12 279.81Q548.3 272.09 586.73 260.88Q560.72 251.07 588.42 240.95Q611.11 235.23 590.04 222.02Q567.18 212.56 591.65 203.09Q650.39 207.4 593.26 184.16Q606.3 176.55 594.87 165.23Q626.2 160.74 596.48 146.3Q661.15 150.68 598.09 127.36Q647.43 126.72 599.7 108.43"/>
    <path d="M576.27 393.48Q576.1 383.43 578.29 374.58Q587.09 366.32 580.7 355.74Q573.7 345.41 583.11 336.89Q607.04 333.38 585.53 318.05Q588.3 308.33 587.94 299.2Q574.58 288.4 590.35 280.35Q553.89 271.07 592.77 261.51Q567.2 250.6 595.31 241.67Q618.21 236.92 597.72 222.82Q575.29 212.4 600.13 203.98Q658.64 210.78 602.55 185.13Q615.9 178.08 604.96 166.28Q636.46 163.14 607.37 147.44Q671.8 154.56 609.79 128.59Q659.1 130.05 612.2 109.75"/>
    <path d="M576.69 393.54Q576.95 383.49 579.51 374.75Q588.66 366.87 582.72 356.02Q576.17 345.41 585.93 337.3Q609.98 334.8 589.14 318.57Q592.33 308.98 592.35 299.84Q579.47 288.49 595.56 281.12Q559.53 270.3 598.77 262.39Q573.69 250.41 602.15 242.68Q625.24 238.9 605.36 223.95Q583.4 212.58 608.57 205.22Q666.74 214.5 611.79 186.5Q625.43 180.02 615.0 167.77Q646.6 165.96 618.21 149.04Q682.27 158.9 621.42 130.32Q670.63 133.86 624.63 111.59"/>
    <path d="M577.11 393.62Q577.79 383.59 580.72 374.97Q590.19 367.48 584.72 356.39Q578.63 345.51 588.72 337.82Q612.86 336.35 592.73 319.25Q596.32 309.8 596.73 300.67Q584.34 288.78 600.73 282.1Q565.19 269.76 604.74 263.53Q580.18 250.49 608.95 243.97Q632.18 241.18 612.95 225.4Q591.49 213.11 616.96 206.83Q674.68 218.56 620.96 188.25Q634.87 182.36 624.96 169.68Q656.61 169.21 628.96 151.11Q692.55 163.67 632.97 132.53Q681.98 138.16 636.97 113.96"/>
    <path d="M577.52 393.72Q578.63 383.73 581.92 375.23Q591.7 368.16 586.71 356.85Q581.08 345.72 591.5 338.46Q615.67 338.02 596.28 320.07Q600.27 310.79 601.07 301.69Q589.2 289.28 605.86 283.3Q570.87 269.46 610.65 264.91Q586.67 250.85 615.69 245.56Q639.01 243.75 620.47 227.17Q599.55 213.98 625.26 208.78Q682.43 222.96 630.05 190.4Q644.19 185.1 634.84 172.01Q666.48 172.89 639.62 153.62Q702.62 168.87 644.41 135.24Q693.14 142.94 649.2 116.85"/>
    <path d="M577.93 393.84Q579.46 383.9 583.11 375.55Q593.19 368.9 588.67 357.39Q583.52 346.03 594.24 339.22Q618.41 339.8 599.8 321.05Q604.18 311.94 605.36 302.89Q594.03 289.98 610.93 284.72Q576.56 269.41 616.49 266.55Q593.13 251.48 622.35 247.43Q645.73 246.61 627.91 229.26Q607.57 215.2 633.47 211.09Q689.99 227.68 639.04 192.93Q653.39 188.24 644.6 174.76Q676.18 176.98 650.17 156.59Q712.46 174.5 655.73 138.42Q704.09 148.19 661.29 120.26"/>
    <path d="M578.33 393.97Q580.29 384.11 584.28 375.92Q594.63 369.7 590.61 358.01Q585.95 346.44 596.94 340.09Q621.07 341.7 603.27 322.18Q608.04 313.26 609.6 304.26Q598.82 290.89 615.93 286.35Q582.25 269.6 622.26 268.44Q599.56 252.38 628.92 249.58Q652.32 249.76 635.25 231.66Q615.52 216.75 641.58 213.75Q697.35 232.72 647.91 195.83Q662.46 191.76 654.24 177.92Q685.7 181.48 660.57 160.0Q722.05 180.54 666.9 142.09Q714.81 153.9 673.23 124.18"/>
    <path d="M578.73 394.12Q581.1 384.35 585.44 376.34Q596.05 370.56 592.53 358.71Q588.36 346.96 599.61 341.08Q623.65 343.71 606.69 323.45Q611.83 314.75 613.78 305.82Q603.58 292.01 620.86 288.19Q587.92 270.02 627.95 270.56Q605.95 253.56 635.4 252.0Q658.77 253.18 642.49 234.38Q623.41 218.64 649.57 216.75Q704.48 238.07 656.66 199.12Q671.36 195.66 663.74 181.49Q695.02 186.37 670.83 163.86Q731.38 186.98 677.91 146.23Q725.27 160.06 684.99 128.6"/>
    <path d="M579.12 394.29Q581.9 384.62 586.58 376.81Q597.42 371.49 594.41 359.5Q590.74 347.58 602.23 342.18Q626.14 345.83 610.06 324.87Q615.56 316.39 617.89 307.56Q608.28 293.32 625.71 290.24Q593.57 270.69 633.54 272.93Q612.28 255.01 641.78 254.7Q665.07 256.87 649.6 237.39Q631.21 220.86 657.43 220.08Q711.38 243.71 665.25 202.76Q680.09 199.94 673.08 185.45Q704.12 191.66 680.91 168.14Q740.42 193.82 688.73 150.82Q735.46 166.65 696.56 133.51"/>
    <path d="M579.5 394.47Q582.69 384.93 587.7 377.33Q598.75 372.47 596.25 360.36Q593.1 348.29 604.81 343.39Q628.53 348.05 613.36 326.43Q619.22 318.19 621.91 309.46Q612.92 294.83 630.47 292.5Q599.18 271.6 639.02 275.53Q618.55 256.73 648.03 257.67Q671.21 260.82 656.58 240.71Q638.9 223.41 665.13 223.74Q718.04 249.64 673.69 206.78Q688.63 204.58 682.24 189.81Q712.99 197.33 690.8 172.85Q749.17 201.03 699.35 155.88Q745.36 173.68 707.9 138.91"/>
    <path d="M579.88 394.67Q583.47 385.28 588.79 377.89Q600.05 373.5 598.06 361.3Q595.42 349.11 607.33 344.71Q630.83 350.37 616.59 328.13Q622.79 320.14 625.86 311.54Q617.49 296.54 635.12 294.95Q604.76 272.74 644.39 278.36Q624.73 258.71 654.15 260.9Q677.17 265.03 663.41 244.32Q646.49 226.28 672.68 227.73Q724.43 255.85 681.94 211.14Q696.97 209.58 691.21 194.55Q721.61 203.38 700.48 177.97Q757.6 208.6 709.74 161.38Q754.96 181.12 719.01 144.79"/>
    <path d="M580.24 394.88Q584.23 385.65 589.86 378.5Q601.29 374.59 599.83 362.32Q597.7 350.03 609.79 346.14Q633.03 352.79 619.75 329.96Q626.29 322.25 629.71 313.78Q621.99 298.44 639.67 297.6Q610.27 274.13 649.64 281.42Q630.83 260.95 660.12 264.39Q682.95 269.5 670.08 248.21Q653.94 229.48 680.05 232.03Q730.56 262.33 690.01 215.85Q705.08 214.93 699.97 199.67Q729.97 209.78 709.93 183.5Q765.7 216.52 719.89 167.32Q764.23 188.95 729.85 151.14"/>
    <path d="M580.6 395.11Q584.98 386.06 590.91 379.15Q602.49 375.73 601.55 363.41Q599.95 351.04 612.19 347.67Q635.13 355.3 622.83 331.92Q629.68 324.5 633.47 316.18Q626.4 300.53 644.11 300.44Q615.73 275.74 654.74 284.7Q636.82 263.45 665.94 268.13Q688.54 274.2 676.58 252.39Q661.25 232.98 687.22 236.65Q736.41 269.06 697.86 220.9Q712.96 220.62 708.5 205.16Q738.05 216.53 719.14 189.42Q773.46 224.79 729.78 173.68Q773.16 197.18 740.42 157.94"/>
    <path d="M580.95 395.36Q585.7 386.5 591.92 379.85Q603.64 376.93 603.22 364.57Q602.15 352.14 614.52 349.29Q637.12 357.9 625.82 334.02Q632.98 326.89 637.11 318.74Q630.72 302.8 648.41 303.47Q621.11 277.58 659.71 288.19Q642.71 266.2 671.6 272.11Q693.92 279.13 682.9 256.83Q668.4 236.8 694.2 241.56Q741.96 276.03 705.5 226.28Q720.6 226.64 716.8 211.01Q745.83 223.62 728.09 195.73Q780.86 233.37 739.39 180.45Q781.74 205.77 750.69 165.18"/>
    <path d="M581.28 395.62Q586.41 386.97 592.91 380.59Q604.74 378.17 604.84 365.8Q604.3 353.34 616.78 351.02Q638.99 360.57 628.72 336.24Q636.18 329.42 640.65 321.45Q634.94 305.26 652.59 306.67Q626.41 279.65 664.52 291.89Q648.47 269.19 677.09 276.33Q699.09 284.29 689.02 261.55Q675.39 240.91 700.96 246.76Q747.22 283.23 712.9 231.98Q727.97 232.98 724.83 217.2Q753.31 231.03 736.77 202.42Q787.89 242.26 748.71 187.63Q789.94 214.73 760.64 172.85"/>
    <path d="M581.61 395.89Q587.1 387.47 593.86 381.37Q605.78 379.45 606.41 367.1Q606.4 354.63 618.96 352.84Q640.75 363.33 631.52 338.58Q639.26 332.08 644.07 324.32Q639.05 307.89 656.62 310.05Q631.61 281.95 669.18 295.79Q654.1 272.43 682.39 280.78Q704.03 289.67 694.94 266.51Q682.2 245.32 707.5 252.25Q752.16 290.65 720.05 237.99Q735.06 239.63 732.6 223.73Q760.46 238.75 745.15 209.46Q794.54 251.44 757.71 195.2Q797.75 224.02 770.26 180.94"/>
    <path d="M581.92 396.18Q587.76 388.0 594.78 382.19Q606.77 380.78 607.92 368.47Q608.44 356.01 621.07 354.75Q642.39 366.15 634.22 341.04Q642.23 334.87 647.36 327.32Q643.05 310.69 660.51 313.6Q636.72 284.46 673.66 299.88Q659.59 275.91 687.5 285.44Q708.74 295.24 700.64 271.73Q688.81 250.01 713.79 258.01Q756.79 298.27 726.94 244.29Q741.87 246.57 740.08 230.58Q767.28 246.77 753.23 216.86Q800.79 260.9 766.38 203.14Q805.16 233.63 779.53 189.42"/>
    <path d="M582.22 396.48Q588.41 388.55 595.66 383.04Q607.7 382.15 609.38 369.9Q610.42 357.47 623.09 356.75Q643.91 369.05 636.81 343.6Q645.08 337.79 650.53 330.46Q646.92 313.67 664.25 317.31Q641.71 287.19 677.96 304.16Q664.92 279.61 692.4 290.33Q713.21 301.02 706.12 277.18Q695.22 254.98 719.84 264.03Q761.09 306.08 733.55 250.88Q748.37 253.79 747.27 237.74Q773.76 255.07 760.99 224.59Q806.64 270.61 774.71 211.44Q812.16 243.56 788.42 198.3"/>
    <path d="M582.51 396.79Q589.02 389.13 596.51 383.94Q608.58 383.55 610.77 371.39Q612.34 359.02 625.03 358.83Q645.31 372.0 639.29 346.28Q647.8 340.82 653.56 333.73Q650.67 316.8 667.82 321.18Q646.58 290.12 682.08 308.62Q670.09 283.54 697.1 295.41Q717.43 306.98 711.36 282.86Q701.41 260.21 725.62 270.3Q765.05 314.06 739.88 257.75Q754.57 261.28 754.15 245.2Q779.87 263.64 768.41 232.65Q812.06 280.56 782.67 220.09Q818.73 253.76 796.93 207.54"/>
    <path d="M582.78 397.12Q589.62 389.74 597.31 384.87Q609.39 385.0 612.09 372.93Q614.19 360.64 626.88 361.0Q646.58 375.02 641.66 349.06Q650.39 343.97 656.44 337.13Q654.27 320.09 671.23 325.19Q651.33 293.26 686.01 313.25Q675.1 287.68 701.57 300.69Q721.39 313.11 716.35 288.75Q707.37 265.71 731.13 276.82Q768.67 322.21 745.92 264.88Q760.44 269.03 760.7 252.94Q785.62 272.46 775.48 241.01Q817.06 290.73 790.26 229.07Q824.86 264.24 805.05 217.14"/>
    <path d="M583.04 397.45Q590.18 390.38 598.08 385.83Q610.14 386.47 613.35 374.54Q615.97 362.34 628.63 363.24Q647.72 378.08 643.91 351.94Q652.85 347.22 659.18 340.64Q657.74 323.53 674.46 329.34Q655.93 296.6 689.73 318.05Q679.92 292.04 705.81 306.15Q725.09 319.4 721.09 294.86Q713.1 271.45 736.37 283.56Q771.94 330.5 751.64 272.26Q765.97 277.03 766.92 260.96Q790.99 281.52 782.19 249.66Q821.63 301.1 797.47 238.37Q830.54 274.97 812.75 227.07"/>
    <path d="M583.29 397.8Q590.72 391.03 598.8 386.83Q610.82 387.98 614.54 376.19Q617.67 364.12 630.29 365.55Q648.73 381.19 646.03 354.91Q655.16 350.57 661.77 344.27Q661.05 327.11 677.51 333.63Q660.39 300.13 693.25 322.99Q684.55 296.59 709.82 311.79Q728.52 325.85 725.56 301.15Q718.57 277.43 741.31 290.51Q774.86 338.93 757.05 279.87Q771.16 285.24 772.79 269.23Q795.96 290.8 788.53 258.6Q825.75 311.66 804.27 247.96Q835.76 285.94 820.01 237.32"/>
    <path d="M583.52 398.16Q591.23 391.71 599.48 387.85Q611.45 389.51 615.66 377.89Q619.3 365.96 631.84 367.93Q649.6 384.34 648.02 357.97Q657.33 354.02 664.2 348.01Q664.21 330.83 680.38 338.05Q664.7 303.85 696.56 328.08Q688.98 301.34 713.59 317.6Q731.68 332.43 729.77 307.64Q723.79 283.64 745.95 297.67Q777.41 347.47 762.13 287.71Q776.0 293.68 778.31 277.75Q800.54 300.28 794.48 267.79Q829.41 322.39 810.66 257.83Q840.51 297.11 826.84 247.86"/>
    <path d="M583.73 398.52Q591.71 392.41 600.12 388.91Q612.0 391.07 616.71 379.64Q620.85 367.88 633.3 370.38Q650.35 387.52 649.88 361.11Q659.35 357.56 666.47 351.84Q667.21 334.68 683.06 342.58Q668.84 307.74 699.65 333.31Q693.21 306.27 717.11 323.56Q734.55 339.15 733.69 314.29Q728.74 290.06 750.28 305.02Q779.61 356.11 766.87 295.76Q780.48 302.31 783.46 286.49Q804.72 309.94 800.04 277.23Q832.62 333.26 816.63 267.96Q844.79 308.47 833.22 258.69"/>
    <path d="M583.93 398.9Q592.17 393.13 600.71 389.99Q612.49 392.66 617.68 381.43Q622.32 369.86 634.65 372.88Q650.95 390.73 651.61 364.33Q661.22 361.18 668.58 355.77Q670.05 338.66 685.54 347.22Q672.82 311.81 702.51 338.66Q697.23 311.37 720.37 329.66Q737.13 345.98 737.33 321.11Q733.41 296.69 754.3 312.55Q781.43 364.83 771.26 304.0Q784.58 311.12 788.23 295.44Q808.48 319.78 805.19 286.89Q835.37 344.26 822.16 278.34Q848.57 320.01 839.13 269.78"/>
    <path d="M584.11 399.28Q592.59 393.87 601.26 391.09Q612.92 394.26 618.57 383.26Q623.7 371.89 635.89 375.44Q651.42 393.97 653.2 367.61Q662.93 364.88 670.51 359.79Q672.71 342.75 687.83 351.96Q676.62 316.05 705.14 344.13Q701.02 316.64 723.37 335.9Q739.42 352.91 740.68 328.07Q737.8 303.51 757.99 320.24Q782.88 373.63 775.31 312.42Q788.31 320.1 792.62 304.59Q811.82 329.76 809.93 296.76Q837.64 355.36 827.25 288.94Q851.87 331.69 844.56 281.11"/>
    <path d="M584.28 399.67Q592.97 394.62 601.76 392.22Q613.27 395.87 619.39 385.13Q624.99 373.99 637.02 378.05Q651.75 397.22 654.65 370.96Q664.49 368.65 672.28 363.88Q675.19 346.95 689.91 356.79Q680.23 320.44 707.54 349.71Q704.59 322.07 726.1 342.25Q741.42 359.93 743.73 335.17Q741.89 310.5 761.36 328.08Q783.96 382.48 778.99 321.0Q791.65 329.22 796.62 313.92Q814.73 339.88 814.25 306.83Q839.45 366.55 831.88 299.75Q854.66 343.51 849.51 292.66"/>
    <path d="M584.43 400.07Q593.33 395.39 602.21 393.36Q613.55 397.5 620.12 387.03Q626.19 376.14 638.04 380.7Q651.95 400.48 655.95 374.37Q665.88 372.48 673.87 368.04Q677.5 351.26 691.78 361.71Q683.66 324.98 709.7 355.38Q707.93 327.64 728.56 348.72Q743.11 367.03 746.47 342.39Q745.68 317.67 764.39 336.06Q784.66 391.37 782.3 329.73Q794.61 338.49 800.21 323.4Q817.21 350.11 818.13 317.07Q840.77 377.81 836.04 310.74Q856.95 355.43 853.96 304.41"/>
    <path d="M584.56 400.47Q593.65 396.18 602.61 394.53Q613.77 399.15 620.78 388.96Q627.31 378.33 638.95 383.4Q652.0 403.75 657.11 377.83Q667.11 376.36 675.28 372.27Q679.62 355.65 693.45 366.71Q686.89 329.66 711.61 361.14Q711.02 333.35 730.74 355.29Q744.5 374.2 748.91 349.72Q749.16 324.99 767.07 344.16Q784.98 400.28 785.24 338.6Q797.16 347.86 803.41 333.03Q819.25 360.44 821.57 327.47Q841.62 389.11 839.74 321.91Q858.73 367.44 857.91 316.34"/>
    <path d="M584.68 400.88Q593.94 396.98 602.96 395.71Q613.91 400.8 621.35 390.92Q628.32 380.58 639.74 386.13Q651.92 407.02 658.12 381.34Q668.18 380.3 676.51 376.56Q681.55 360.14 694.9 371.77Q689.92 334.48 713.29 366.98Q713.87 339.19 732.64 361.94Q745.59 381.42 751.03 357.15Q752.34 332.45 769.41 352.37Q784.92 409.19 787.8 347.58Q799.32 357.34 806.19 342.79Q820.85 370.84 824.57 338.0Q841.98 400.44 842.96 333.21Q860.0 379.52 861.35 328.43"/>
    <path d="M584.78 401.29Q594.2 397.78 603.26 396.9Q613.99 402.45 621.84 392.9Q629.24 382.86 640.41 388.89Q651.69 410.28 658.99 384.89Q669.08 384.27 677.56 380.89Q683.29 364.7 696.13 376.88Q692.74 339.42 714.71 372.88Q716.47 345.14 734.26 368.67Q746.37 388.68 752.83 364.67Q755.19 340.04 771.4 360.66Q784.49 418.09 789.98 356.66Q801.07 366.91 808.55 352.66Q822.01 381.31 827.12 348.65Q841.87 411.77 845.7 344.65Q860.76 391.63 864.27 340.65"/>
    <path d="M584.86 401.71Q594.42 398.6 603.52 398.1Q614.0 404.1 622.24 394.89Q630.07 385.18 640.97 391.68Q651.33 413.53 659.7 388.47Q669.8 388.28 678.42 385.26Q684.84 369.33 697.15 382.05Q695.35 344.47 715.88 378.84Q718.82 351.2 735.59 375.46Q746.84 395.97 754.31 372.25Q757.71 347.75 773.04 369.04Q783.67 426.97 791.77 365.83Q802.42 376.53 810.49 362.61Q822.73 391.81 829.22 359.4Q841.27 423.09 847.95 356.19Q861.0 403.77 866.67 352.98"/>
    <path d="M584.92 402.13Q594.61 399.43 603.71 399.32Q613.93 405.76 622.56 396.91Q630.79 387.54 641.41 394.49Q650.83 416.76 660.25 392.08Q670.36 392.32 679.1 389.67Q686.18 374.02 697.94 387.25Q697.74 349.63 716.79 384.84Q720.9 357.35 736.63 382.3Q747.0 403.27 755.48 379.89Q759.91 355.55 774.32 377.47Q782.48 435.81 793.17 375.06Q803.35 386.21 812.01 372.65Q823.0 402.33 830.86 370.23Q840.2 434.37 849.71 367.82Q860.73 415.91 868.55 365.41"/>
    <path d="M584.96 402.55Q594.76 400.27 603.86 400.54Q613.8 407.41 622.79 398.93Q631.41 389.92 641.72 397.32Q650.2 419.97 660.66 395.71Q670.74 396.38 679.59 394.1Q687.33 378.77 698.52 392.49Q699.91 354.89 717.45 390.87Q722.73 363.58 737.38 389.18Q746.85 410.57 756.31 387.57Q761.77 363.45 775.24 385.96Q780.92 444.58 794.17 384.34Q803.88 395.92 813.11 382.73Q822.82 412.86 832.04 381.12Q838.64 445.6 850.97 379.51Q859.94 428.02 869.9 377.9"/>
    <path d="M584.99 402.98Q594.87 401.11 603.96 401.77Q613.59 409.05 622.94 400.96Q631.93 392.32 641.92 400.16Q649.43 423.14 660.91 399.35Q670.96 400.45 679.89 398.54Q688.28 383.56 698.87 397.74Q701.86 360.23 717.85 396.93Q724.28 369.89 737.84 396.08Q746.39 417.86 756.82 395.28Q763.3 371.41 775.8 394.47Q778.99 453.29 794.78 393.66Q803.99 405.64 813.77 392.86Q822.2 423.37 832.75 392.05Q836.62 456.75 851.73 391.24Q858.64 440.1 870.72 390.44"/>
    <g stroke="blue">
      <circle cx="575.0" cy="403.4" r="301"/>
      <circle cx="575.0" cy="403.4" r="306"/>
      <circle cx="575.0" cy="403.4" r="311"/>
    </g>
  </g>
</svg>
