<svg version="1.1" width="1150" height="870" xmlns="http://www.w3.org/2000/svg">
  <!-- Seed: 1246427788291650641 -->
  <!-- Size: SvgSize.Size9x12 -->
  <!-- Params:
    draw_worm: True
    draw_highlight: True
    step_dist: 5
    circle: True
    peaks: [RangeInt] min: 3 max: 7
    shuffle_large_max_x: 80
    shuffle_large_max_y: 100
    shuffle_small_max_x: 30
    shuffle_small_max_y: 30
    rough_subdivisions: [RangeInt] min: 1 max: 10
    padding: 100
    size_end: 1
    size_range: [RangeInt] min: 5 max: 60
    highlight_end_circle_radius: 30
    highlight_end_points: 10
    highlight_end_point_radius: 5
    highlight_sunburst_ray_len: 10
    highlights: [RangeInt] min: 3 max: 5
    highlight_padding: 20
    consumed_check_radius: 50
    highlight_spacing: 10
    highlight_text_weight: [(0, 1), (1, 3)]
    highlight_text_num_range: [RangeInt] min: 200 max: 50000
    connect_highlight_weight: [(0, 1), (1, 3)]
  -->
  <g stroke="black" fill="none">
    <circle cx="136.0" cy="419.0" r="1"/>
    <circle cx="140.0" cy="422.0" r="1.12"/>
    <circle cx="144.0" cy="425.0" r="1.48"/>
    <circle cx="148.0" cy="428.0" r="2.08"/>
    <circle cx="152.0" cy="431.0" r="2.91"/>
    <circle cx="156.0" cy="434.0" r="3.96"/>
    <circle cx="160.0" cy="437.0" r="5.22"/>
    <circle cx="164.0" cy="440.0" r="6.67"/>
    <circle cx="168.0" cy="443.0" r="8.31"/>
    <circle cx="172.0" cy="446.0" r="10.11"/>
    <circle cx="176.0" cy="449.0" r="12.05"/>
    <circle cx="180.0" cy="452.0" r="14.12"/>
    <circle cx="184.0" cy="455.0" r="16.29"/>
    <circle cx="188.0" cy="458.0" r="18.53"/>
    <circle cx="192.0" cy="461.0" r="20.83"/>
    <circle cx="196.0" cy="464.0" r="23.16"/>
    <circle cx="200.0" cy="467.0" r="25.49"/>
    <circle cx="204.0" cy="470.0" r="27.8"/>
    <circle cx="208.0" cy="472.0" r="30.06"/>
    <circle cx="212.0" cy="475.0" r="32.25"/>
    <circle cx="216.0" cy="478.0" r="34.35"/>
    <circle cx="220.0" cy="481.0" r="36.33"/>
    <circle cx="224.0" cy="484.0" r="38.18"/>
    <circle cx="228.0" cy="487.0" r="39.86"/>
    <circle cx="232.0" cy="490.0" r="41.37"/>
    <circle cx="236.0" cy="493.0" r="42.69"/>
    <circle cx="240.0" cy="496.0" r="43.81"/>
    <circle cx="244.0" cy="499.0" r="44.7"/>
    <circle cx="248.0" cy="502.0" r="45.37"/>
    <circle cx="252.0" cy="505.0" r="45.8"/>
    <circle cx="256.0" cy="508.0" r="45.99"/>
    <circle cx="258.0" cy="509.0" r="46"/>
    <circle cx="263.0" cy="513.0" r="45.99"/>
    <circle cx="268.0" cy="517.0" r="45.94"/>
    <circle cx="273.0" cy="520.0" r="45.87"/>
    <circle cx="278.0" cy="524.0" r="45.77"/>
    <circle cx="283.0" cy="527.0" r="45.64"/>
    <circle cx="288.0" cy="530.0" r="45.48"/>
    <circle cx="293.0" cy="533.0" r="45.3"/>
    <circle cx="298.0" cy="536.0" r="45.09"/>
    <circle cx="302.0" cy="538.0" r="44.85"/>
    <circle cx="306.0" cy="541.0" r="44.6"/>
    <circle cx="311.0" cy="543.0" r="44.32"/>
    <circle cx="315.0" cy="545.0" r="44.01"/>
    <circle cx="319.0" cy="547.0" r="43.69"/>
    <circle cx="323.0" cy="549.0" r="43.36"/>
    <circle cx="327.0" cy="551.0" r="43.0"/>
    <circle cx="331.0" cy="552.0" r="42.63"/>
    <circle cx="334.0" cy="554.0" r="42.25"/>
    <circle cx="338.0" cy="555.0" r="41.85"/>
    <circle cx="341.0" cy="556.0" r="41.45"/>
    <circle cx="344.0" cy="557.0" r="41.04"/>
    <circle cx="348.0" cy="557.0" r="40.63"/>
    <circle cx="351.0" cy="558.0" r="40.21"/>
    <circle cx="354.0" cy="558.0" r="39.79"/>
    <circle cx="357.0" cy="558.0" r="39.37"/>
    <circle cx="359.0" cy="558.0" r="38.96"/>
    <circle cx="362.0" cy="558.0" r="38.55"/>
    <circle cx="365.0" cy="558.0" r="38.15"/>
    <circle cx="367.0" cy="558.0" r="37.75"/>
    <circle cx="369.0" cy="557.0" r="37.37"/>
    <circle cx="372.0" cy="556.0" r="37.0"/>
    <circle cx="374.0" cy="555.0" r="36.64"/>
    <circle cx="376.0" cy="554.0" r="36.31"/>
    <circle cx="378.0" cy="553.0" r="35.99"/>
    <circle cx="379.0" cy="552.0" r="35.68"/>
    <circle cx="381.0" cy="550.0" r="35.4"/>
    <circle cx="383.0" cy="548.0" r="35.15"/>
    <circle cx="384.0" cy="546.0" r="34.91"/>
    <circle cx="386.0" cy="544.0" r="34.7"/>
    <circle cx="387.0" cy="542.0" r="34.52"/>
    <circle cx="388.0" cy="540.0" r="34.36"/>
    <circle cx="389.0" cy="537.0" r="34.23"/>
    <circle cx="390.0" cy="534.0" r="34.13"/>
    <circle cx="391.0" cy="532.0" r="34.06"/>
    <circle cx="392.0" cy="529.0" r="34.01"/>
    <circle cx="392.0" cy="525.0" r="34"/>
    <circle cx="393.0" cy="520.0" r="33.97"/>
    <circle cx="394.0" cy="516.0" r="33.89"/>
    <circle cx="395.0" cy="511.0" r="33.76"/>
    <circle cx="395.0" cy="506.0" r="33.57"/>
    <circle cx="396.0" cy="501.0" r="33.33"/>
    <circle cx="397.0" cy="496.0" r="33.05"/>
    <circle cx="397.0" cy="491.0" r="32.72"/>
    <circle cx="398.0" cy="486.0" r="32.35"/>
    <circle cx="399.0" cy="481.0" r="31.94"/>
    <circle cx="399.0" cy="476.0" r="31.5"/>
    <circle cx="400.0" cy="471.0" r="31.03"/>
    <circle cx="401.0" cy="466.0" r="30.55"/>
    <circle cx="401.0" cy="461.0" r="30.04"/>
    <circle cx="402.0" cy="456.0" r="29.52"/>
    <circle cx="402.0" cy="451.0" r="29.0"/>
    <circle cx="403.0" cy="446.0" r="28.48"/>
    <circle cx="403.0" cy="441.0" r="27.96"/>
    <circle cx="404.0" cy="436.0" r="27.45"/>
    <circle cx="404.0" cy="430.0" r="26.97"/>
    <circle cx="404.0" cy="425.0" r="26.5"/>
    <circle cx="405.0" cy="420.0" r="26.06"/>
    <circle cx="405.0" cy="415.0" r="25.65"/>
    <circle cx="406.0" cy="410.0" r="25.28"/>
    <circle cx="406.0" cy="405.0" r="24.95"/>
    <circle cx="406.0" cy="400.0" r="24.67"/>
    <circle cx="406.0" cy="395.0" r="24.43"/>
    <circle cx="407.0" cy="389.0" r="24.24"/>
    <circle cx="407.0" cy="384.0" r="24.11"/>
    <circle cx="407.0" cy="379.0" r="24.03"/>
    <circle cx="407.0" cy="374.0" r="24"/>
    <circle cx="407.0" cy="369.0" r="24.03"/>
    <circle cx="407.0" cy="364.0" r="24.13"/>
    <circle cx="408.0" cy="360.0" r="24.28"/>
    <circle cx="408.0" cy="355.0" r="24.5"/>
    <circle cx="408.0" cy="350.0" r="24.78"/>
    <circle cx="408.0" cy="345.0" r="25.11"/>
    <circle cx="408.0" cy="340.0" r="25.5"/>
    <circle cx="408.0" cy="336.0" r="25.93"/>
    <circle cx="407.0" cy="331.0" r="26.42"/>
    <circle cx="407.0" cy="326.0" r="26.94"/>
    <circle cx="407.0" cy="321.0" r="27.5"/>
    <circle cx="407.0" cy="316.0" r="28.09"/>
    <circle cx="407.0" cy="311.0" r="28.71"/>
    <circle cx="407.0" cy="306.0" r="29.35"/>
    <circle cx="406.0" cy="301.0" r="30.0"/>
    <circle cx="406.0" cy="296.0" r="30.67"/>
    <circle cx="406.0" cy="291.0" r="31.33"/>
    <circle cx="405.0" cy="286.0" r="32.0"/>
    <circle cx="405.0" cy="281.0" r="32.65"/>
    <circle cx="405.0" cy="276.0" r="33.29"/>
    <circle cx="404.0" cy="271.0" r="33.91"/>
    <circle cx="404.0" cy="266.0" r="34.5"/>
    <circle cx="403.0" cy="261.0" r="35.06"/>
    <circle cx="403.0" cy="256.0" r="35.58"/>
    <circle cx="402.0" cy="251.0" r="36.07"/>
    <circle cx="402.0" cy="246.0" r="36.5"/>
    <circle cx="401.0" cy="241.0" r="36.89"/>
    <circle cx="400.0" cy="236.0" r="37.22"/>
    <circle cx="400.0" cy="230.0" r="37.5"/>
    <circle cx="399.0" cy="225.0" r="37.72"/>
    <circle cx="398.0" cy="220.0" r="37.87"/>
    <circle cx="398.0" cy="215.0" r="37.97"/>
    <circle cx="397.0" cy="210.0" r="38"/>
    <circle cx="396.0" cy="206.0" r="37.97"/>
    <circle cx="396.0" cy="203.0" r="37.86"/>
    <circle cx="395.0" cy="200.0" r="37.7"/>
    <circle cx="395.0" cy="197.0" r="37.46"/>
    <circle cx="395.0" cy="195.0" r="37.16"/>
    <circle cx="394.0" cy="192.0" r="36.79"/>
    <circle cx="394.0" cy="190.0" r="36.37"/>
    <circle cx="394.0" cy="188.0" r="35.88"/>
    <circle cx="394.0" cy="186.0" r="35.33"/>
    <circle cx="394.0" cy="184.0" r="34.72"/>
    <circle cx="394.0" cy="183.0" r="34.06"/>
    <circle cx="394.0" cy="182.0" r="33.35"/>
    <circle cx="394.0" cy="181.0" r="32.59"/>
    <circle cx="394.0" cy="180.0" r="31.79"/>
    <circle cx="394.0" cy="179.0" r="30.94"/>
    <circle cx="394.0" cy="179.0" r="30.05"/>
    <circle cx="394.0" cy="179.0" r="29.13"/>
    <circle cx="395.0" cy="179.0" r="28.18"/>
    <circle cx="395.0" cy="179.0" r="27.2"/>
    <circle cx="395.0" cy="179.0" r="26.19"/>
    <circle cx="396.0" cy="180.0" r="25.17"/>
    <circle cx="396.0" cy="181.0" r="24.13"/>
    <circle cx="397.0" cy="182.0" r="23.08"/>
    <circle cx="397.0" cy="183.0" r="22.03"/>
    <circle cx="398.0" cy="184.0" r="20.97"/>
    <circle cx="398.0" cy="186.0" r="19.92"/>
    <circle cx="399.0" cy="188.0" r="18.87"/>
    <circle cx="400.0" cy="190.0" r="17.83"/>
    <circle cx="401.0" cy="192.0" r="16.81"/>
    <circle cx="401.0" cy="194.0" r="15.8"/>
    <circle cx="402.0" cy="197.0" r="14.82"/>
    <circle cx="403.0" cy="200.0" r="13.87"/>
    <circle cx="404.0" cy="203.0" r="12.95"/>
    <circle cx="405.0" cy="206.0" r="12.06"/>
    <circle cx="406.0" cy="209.0" r="11.21"/>
    <circle cx="407.0" cy="213.0" r="10.41"/>
    <circle cx="408.0" cy="217.0" r="9.65"/>
    <circle cx="409.0" cy="221.0" r="8.94"/>
    <circle cx="411.0" cy="225.0" r="8.28"/>
    <circle cx="412.0" cy="229.0" r="7.67"/>
    <circle cx="413.0" cy="234.0" r="7.12"/>
    <circle cx="415.0" cy="239.0" r="6.63"/>
    <circle cx="416.0" cy="244.0" r="6.21"/>
    <circle cx="417.0" cy="249.0" r="5.84"/>
    <circle cx="419.0" cy="254.0" r="5.54"/>
    <circle cx="421.0" cy="260.0" r="5.3"/>
    <circle cx="422.0" cy="266.0" r="5.14"/>
    <circle cx="424.0" cy="272.0" r="5.03"/>
    <circle cx="425.0" cy="278.0" r="5"/>
    <circle cx="427.0" cy="283.0" r="5.01"/>
    <circle cx="428.0" cy="288.0" r="5.05"/>
    <circle cx="429.0" cy="293.0" r="5.12"/>
    <circle cx="431.0" cy="298.0" r="5.22"/>
    <circle cx="432.0" cy="302.0" r="5.34"/>
    <circle cx="434.0" cy="307.0" r="5.49"/>
    <circle cx="435.0" cy="312.0" r="5.66"/>
    <circle cx="436.0" cy="317.0" r="5.86"/>
    <circle cx="438.0" cy="322.0" r="6.09"/>
    <circle cx="439.0" cy="327.0" r="6.34"/>
    <circle cx="441.0" cy="332.0" r="6.61"/>
    <circle cx="442.0" cy="337.0" r="6.91"/>
    <circle cx="443.0" cy="341.0" r="7.23"/>
    <circle cx="445.0" cy="346.0" r="7.57"/>
    <circle cx="446.0" cy="351.0" r="7.94"/>
    <circle cx="448.0" cy="356.0" r="8.32"/>
    <circle cx="449.0" cy="361.0" r="8.72"/>
    <circle cx="451.0" cy="366.0" r="9.14"/>
    <circle cx="452.0" cy="371.0" r="9.58"/>
    <circle cx="454.0" cy="375.0" r="10.03"/>
    <circle cx="455.0" cy="380.0" r="10.5"/>
    <circle cx="457.0" cy="385.0" r="10.98"/>
    <circle cx="458.0" cy="390.0" r="11.48"/>
    <circle cx="460.0" cy="395.0" r="11.98"/>
    <circle cx="461.0" cy="400.0" r="12.5"/>
    <circle cx="463.0" cy="404.0" r="13.02"/>
    <circle cx="465.0" cy="409.0" r="13.55"/>
    <circle cx="466.0" cy="414.0" r="14.09"/>
    <circle cx="468.0" cy="419.0" r="14.63"/>
    <circle cx="469.0" cy="424.0" r="15.18"/>
    <circle cx="471.0" cy="428.0" r="15.73"/>
    <circle cx="473.0" cy="433.0" r="16.27"/>
    <circle cx="474.0" cy="438.0" r="16.82"/>
    <circle cx="476.0" cy="443.0" r="17.37"/>
    <circle cx="477.0" cy="448.0" r="17.91"/>
    <circle cx="479.0" cy="452.0" r="18.45"/>
    <circle cx="481.0" cy="457.0" r="18.98"/>
    <circle cx="482.0" cy="462.0" r="19.5"/>
    <circle cx="484.0" cy="467.0" r="20.02"/>
    <circle cx="486.0" cy="471.0" r="20.52"/>
    <circle cx="488.0" cy="476.0" r="21.02"/>
    <circle cx="489.0" cy="481.0" r="21.5"/>
    <circle cx="491.0" cy="486.0" r="21.97"/>
    <circle cx="493.0" cy="490.0" r="22.42"/>
    <circle cx="494.0" cy="495.0" r="22.86"/>
    <circle cx="496.0" cy="500.0" r="23.28"/>
    <circle cx="498.0" cy="505.0" r="23.68"/>
    <circle cx="500.0" cy="509.0" r="24.06"/>
    <circle cx="501.0" cy="514.0" r="24.43"/>
    <circle cx="503.0" cy="519.0" r="24.77"/>
    <circle cx="505.0" cy="524.0" r="25.09"/>
    <circle cx="507.0" cy="528.0" r="25.39"/>
    <circle cx="509.0" cy="533.0" r="25.66"/>
    <circle cx="510.0" cy="538.0" r="25.91"/>
    <circle cx="512.0" cy="543.0" r="26.14"/>
    <circle cx="514.0" cy="547.0" r="26.34"/>
    <circle cx="516.0" cy="552.0" r="26.51"/>
    <circle cx="518.0" cy="557.0" r="26.66"/>
    <circle cx="520.0" cy="561.0" r="26.78"/>
    <circle cx="522.0" cy="566.0" r="26.88"/>
    <circle cx="523.0" cy="571.0" r="26.95"/>
    <circle cx="525.0" cy="575.0" r="26.99"/>
    <circle cx="527.0" cy="580.0" r="27"/>
    <circle cx="530.0" cy="588.0" r="27.05"/>
    <circle cx="534.0" cy="595.0" r="27.2"/>
    <circle cx="537.0" cy="602.0" r="27.46"/>
    <circle cx="539.0" cy="609.0" r="27.81"/>
    <circle cx="542.0" cy="616.0" r="28.26"/>
    <circle cx="545.0" cy="622.0" r="28.81"/>
    <circle cx="548.0" cy="629.0" r="29.44"/>
    <circle cx="551.0" cy="635.0" r="30.16"/>
    <circle cx="553.0" cy="640.0" r="30.96"/>
    <circle cx="556.0" cy="646.0" r="31.84"/>
    <circle cx="559.0" cy="651.0" r="32.79"/>
    <circle cx="561.0" cy="656.0" r="33.8"/>
    <circle cx="564.0" cy="661.0" r="34.86"/>
    <circle cx="566.0" cy="665.0" r="35.97"/>
    <circle cx="568.0" cy="670.0" r="37.13"/>
    <circle cx="570.0" cy="674.0" r="38.32"/>
    <circle cx="573.0" cy="678.0" r="39.53"/>
    <circle cx="575.0" cy="681.0" r="40.76"/>
    <circle cx="577.0" cy="684.0" r="42.0"/>
    <circle cx="579.0" cy="688.0" r="43.24"/>
    <circle cx="581.0" cy="690.0" r="44.47"/>
    <circle cx="583.0" cy="693.0" r="45.68"/>
    <circle cx="585.0" cy="695.0" r="46.87"/>
    <circle cx="586.0" cy="698.0" r="48.03"/>
    <circle cx="588.0" cy="699.0" r="49.14"/>
    <circle cx="590.0" cy="701.0" r="50.2"/>
    <circle cx="591.0" cy="703.0" r="51.21"/>
    <circle cx="593.0" cy="704.0" r="52.16"/>
    <circle cx="595.0" cy="705.0" r="53.04"/>
    <circle cx="596.0" cy="705.0" r="53.84"/>
    <circle cx="597.0" cy="706.0" r="54.56"/>
    <circle cx="599.0" cy="706.0" r="55.19"/>
    <circle cx="600.0" cy="706.0" r="55.74"/>
    <circle cx="601.0" cy="706.0" r="56.19"/>
    <circle cx="602.0" cy="705.0" r="56.54"/>
    <circle cx="603.0" cy="705.0" r="56.8"/>
    <circle cx="604.0" cy="704.0" r="56.95"/>
    <circle cx="605.0" cy="702.0" r="57"/>
    <circle cx="608.0" cy="698.0" r="56.28"/>
    <circle cx="610.0" cy="694.0" r="54.19"/>
    <circle cx="612.0" cy="690.0" r="50.85"/>
    <circle cx="613.0" cy="686.0" r="46.5"/>
    <circle cx="614.0" cy="682.0" r="41.44"/>
    <circle cx="615.0" cy="677.0" r="36.0"/>
    <circle cx="614.0" cy="673.0" r="30.56"/>
    <circle cx="614.0" cy="669.0" r="25.5"/>
    <circle cx="613.0" cy="665.0" r="21.15"/>
    <circle cx="611.0" cy="661.0" r="17.81"/>
    <circle cx="609.0" cy="657.0" r="15.72"/>
    <circle cx="606.0" cy="653.0" r="15"/>
    <circle cx="603.0" cy="648.0" r="15.72"/>
    <circle cx="600.0" cy="642.0" r="17.78"/>
    <circle cx="598.0" cy="637.0" r="20.86"/>
    <circle cx="596.0" cy="633.0" r="24.5"/>
    <circle cx="596.0" cy="629.0" r="28.14"/>
    <circle cx="597.0" cy="625.0" r="31.22"/>
    <circle cx="598.0" cy="622.0" r="33.28"/>
    <circle cx="601.0" cy="619.0" r="34"/>
    <circle cx="603.0" cy="617.0" r="33.92"/>
    <circle cx="605.0" cy="614.0" r="33.68"/>
    <circle cx="606.0" cy="611.0" r="33.31"/>
    <circle cx="608.0" cy="607.0" r="32.83"/>
    <circle cx="609.0" cy="603.0" r="32.28"/>
    <circle cx="610.0" cy="598.0" r="31.72"/>
    <circle cx="611.0" cy="593.0" r="31.17"/>
    <circle cx="612.0" cy="587.0" r="30.69"/>
    <circle cx="612.0" cy="580.0" r="30.32"/>
    <circle cx="613.0" cy="574.0" r="30.08"/>
    <circle cx="613.0" cy="566.0" r="30"/>
    <circle cx="613.0" cy="560.0" r="30.03"/>
    <circle cx="613.0" cy="554.0" r="30.11"/>
    <circle cx="614.0" cy="548.0" r="30.25"/>
    <circle cx="615.0" cy="542.0" r="30.43"/>
    <circle cx="615.0" cy="537.0" r="30.65"/>
    <circle cx="616.0" cy="532.0" r="30.88"/>
    <circle cx="617.0" cy="527.0" r="31.12"/>
    <circle cx="619.0" cy="522.0" r="31.35"/>
    <circle cx="620.0" cy="518.0" r="31.57"/>
    <circle cx="622.0" cy="513.0" r="31.75"/>
    <circle cx="623.0" cy="509.0" r="31.89"/>
    <circle cx="625.0" cy="506.0" r="31.97"/>
    <circle cx="627.0" cy="502.0" r="32"/>
    <circle cx="629.0" cy="499.0" r="32.25"/>
    <circle cx="631.0" cy="495.0" r="32.97"/>
    <circle cx="633.0" cy="491.0" r="34.14"/>
    <circle cx="635.0" cy="487.0" r="35.67"/>
    <circle cx="636.0" cy="482.0" r="37.49"/>
    <circle cx="638.0" cy="477.0" r="39.48"/>
    <circle cx="639.0" cy="472.0" r="41.52"/>
    <circle cx="640.0" cy="467.0" r="43.51"/>
    <circle cx="641.0" cy="462.0" r="45.33"/>
    <circle cx="642.0" cy="456.0" r="46.86"/>
    <circle cx="643.0" cy="450.0" r="48.03"/>
    <circle cx="643.0" cy="444.0" r="48.75"/>
    <circle cx="644.0" cy="438.0" r="49"/>
    <circle cx="644.0" cy="430.0" r="48.13"/>
    <circle cx="644.0" cy="423.0" r="45.59"/>
    <circle cx="645.0" cy="417.0" r="41.58"/>
    <circle cx="645.0" cy="411.0" r="36.43"/>
    <circle cx="644.0" cy="406.0" r="30.56"/>
    <circle cx="644.0" cy="401.0" r="24.44"/>
    <circle cx="643.0" cy="397.0" r="18.57"/>
    <circle cx="643.0" cy="393.0" r="13.42"/>
    <circle cx="642.0" cy="390.0" r="9.41"/>
    <circle cx="641.0" cy="387.0" r="6.87"/>
    <circle cx="639.0" cy="385.0" r="6"/>
    <circle cx="638.0" cy="383.0" r="6.32"/>
    <circle cx="637.0" cy="380.0" r="7.24"/>
    <circle cx="635.0" cy="376.0" r="8.68"/>
    <circle cx="634.0" cy="372.0" r="10.49"/>
    <circle cx="633.0" cy="367.0" r="12.5"/>
    <circle cx="632.0" cy="362.0" r="14.51"/>
    <circle cx="631.0" cy="356.0" r="16.32"/>
    <circle cx="631.0" cy="349.0" r="17.76"/>
    <circle cx="630.0" cy="342.0" r="18.68"/>
    <circle cx="629.0" cy="335.0" r="19"/>
    <circle cx="629.0" cy="328.0" r="18.88"/>
    <circle cx="629.0" cy="323.0" r="18.54"/>
    <circle cx="629.0" cy="317.0" r="17.99"/>
    <circle cx="629.0" cy="311.0" r="17.27"/>
    <circle cx="630.0" cy="306.0" r="16.42"/>
    <circle cx="631.0" cy="301.0" r="15.48"/>
    <circle cx="632.0" cy="296.0" r="14.52"/>
    <circle cx="633.0" cy="291.0" r="13.58"/>
    <circle cx="634.0" cy="286.0" r="12.73"/>
    <circle cx="635.0" cy="282.0" r="12.01"/>
    <circle cx="637.0" cy="277.0" r="11.46"/>
    <circle cx="639.0" cy="273.0" r="11.12"/>
    <circle cx="641.0" cy="269.0" r="11"/>
    <circle cx="644.0" cy="264.0" r="11.83"/>
    <circle cx="646.0" cy="259.0" r="14.25"/>
    <circle cx="649.0" cy="254.0" r="18.01"/>
    <circle cx="651.0" cy="249.0" r="22.75"/>
    <circle cx="653.0" cy="245.0" r="28.0"/>
    <circle cx="654.0" cy="240.0" r="33.25"/>
    <circle cx="656.0" cy="235.0" r="37.99"/>
    <circle cx="657.0" cy="230.0" r="41.75"/>
    <circle cx="659.0" cy="225.0" r="44.17"/>
    <circle cx="660.0" cy="221.0" r="45"/>
    <circle cx="660.0" cy="220.0" r="44.99"/>
    <circle cx="660.0" cy="220.0" r="44.95"/>
    <circle cx="660.0" cy="219.0" r="44.89"/>
    <circle cx="660.0" cy="219.0" r="44.81"/>
    <circle cx="661.0" cy="219.0" r="44.7"/>
    <circle cx="661.0" cy="219.0" r="44.57"/>
    <circle cx="661.0" cy="219.0" r="44.42"/>
    <circle cx="662.0" cy="220.0" r="44.24"/>
    <circle cx="662.0" cy="220.0" r="44.04"/>
    <circle cx="663.0" cy="221.0" r="43.82"/>
    <circle cx="663.0" cy="222.0" r="43.58"/>
    <circle cx="664.0" cy="223.0" r="43.32"/>
    <circle cx="665.0" cy="225.0" r="43.04"/>
    <circle cx="665.0" cy="226.0" r="42.75"/>
    <circle cx="666.0" cy="228.0" r="42.43"/>
    <circle cx="667.0" cy="229.0" r="42.1"/>
    <circle cx="667.0" cy="231.0" r="41.75"/>
    <circle cx="668.0" cy="233.0" r="41.39"/>
    <circle cx="669.0" cy="236.0" r="41.01"/>
    <circle cx="670.0" cy="238.0" r="40.62"/>
    <circle cx="671.0" cy="241.0" r="40.22"/>
    <circle cx="671.0" cy="244.0" r="39.81"/>
    <circle cx="672.0" cy="246.0" r="39.38"/>
    <circle cx="673.0" cy="250.0" r="38.95"/>
    <circle cx="674.0" cy="253.0" r="38.52"/>
    <circle cx="676.0" cy="256.0" r="38.07"/>
    <circle cx="677.0" cy="260.0" r="37.63"/>
    <circle cx="678.0" cy="264.0" r="37.18"/>
    <circle cx="679.0" cy="268.0" r="36.73"/>
    <circle cx="680.0" cy="272.0" r="36.27"/>
    <circle cx="681.0" cy="276.0" r="35.82"/>
    <circle cx="683.0" cy="280.0" r="35.37"/>
    <circle cx="684.0" cy="285.0" r="34.93"/>
    <circle cx="685.0" cy="290.0" r="34.48"/>
    <circle cx="687.0" cy="295.0" r="34.05"/>
    <circle cx="688.0" cy="300.0" r="33.62"/>
    <circle cx="690.0" cy="305.0" r="33.19"/>
    <circle cx="691.0" cy="310.0" r="32.78"/>
    <circle cx="693.0" cy="316.0" r="32.38"/>
    <circle cx="694.0" cy="322.0" r="31.99"/>
    <circle cx="696.0" cy="328.0" r="31.61"/>
    <circle cx="697.0" cy="334.0" r="31.25"/>
    <circle cx="699.0" cy="340.0" r="30.9"/>
    <circle cx="701.0" cy="346.0" r="30.57"/>
    <circle cx="702.0" cy="353.0" r="30.25"/>
    <circle cx="704.0" cy="360.0" r="29.96"/>
    <circle cx="706.0" cy="367.0" r="29.68"/>
    <circle cx="708.0" cy="374.0" r="29.42"/>
    <circle cx="710.0" cy="381.0" r="29.18"/>
    <circle cx="712.0" cy="388.0" r="28.96"/>
    <circle cx="714.0" cy="396.0" r="28.76"/>
    <circle cx="716.0" cy="404.0" r="28.58"/>
    <circle cx="718.0" cy="412.0" r="28.43"/>
    <circle cx="720.0" cy="420.0" r="28.3"/>
    <circle cx="722.0" cy="428.0" r="28.19"/>
    <circle cx="724.0" cy="436.0" r="28.11"/>
    <circle cx="726.0" cy="445.0" r="28.05"/>
    <circle cx="728.0" cy="454.0" r="28.01"/>
    <circle cx="730.0" cy="463.0" r="28"/>
    <circle cx="733.0" cy="472.0" r="28.01"/>
    <circle cx="735.0" cy="481.0" r="28.03"/>
    <circle cx="737.0" cy="490.0" r="28.07"/>
    <circle cx="740.0" cy="499.0" r="28.12"/>
    <circle cx="742.0" cy="507.0" r="28.19"/>
    <circle cx="744.0" cy="515.0" r="28.27"/>
    <circle cx="746.0" cy="524.0" r="28.37"/>
    <circle cx="748.0" cy="532.0" r="28.48"/>
    <circle cx="750.0" cy="539.0" r="28.6"/>
    <circle cx="752.0" cy="547.0" r="28.74"/>
    <circle cx="754.0" cy="555.0" r="28.89"/>
    <circle cx="756.0" cy="562.0" r="29.05"/>
    <circle cx="758.0" cy="569.0" r="29.23"/>
    <circle cx="760.0" cy="576.0" r="29.42"/>
    <circle cx="761.0" cy="583.0" r="29.61"/>
    <circle cx="763.0" cy="590.0" r="29.82"/>
    <circle cx="765.0" cy="596.0" r="30.04"/>
    <circle cx="767.0" cy="602.0" r="30.27"/>
    <circle cx="768.0" cy="608.0" r="30.5"/>
    <circle cx="770.0" cy="614.0" r="30.74"/>
    <circle cx="772.0" cy="620.0" r="30.99"/>
    <circle cx="773.0" cy="626.0" r="31.25"/>
    <circle cx="775.0" cy="631.0" r="31.51"/>
    <circle cx="776.0" cy="637.0" r="31.77"/>
    <circle cx="778.0" cy="642.0" r="32.04"/>
    <circle cx="779.0" cy="647.0" r="32.31"/>
    <circle cx="780.0" cy="651.0" r="32.59"/>
    <circle cx="782.0" cy="656.0" r="32.86"/>
    <circle cx="783.0" cy="660.0" r="33.14"/>
    <circle cx="784.0" cy="665.0" r="33.41"/>
    <circle cx="786.0" cy="669.0" r="33.69"/>
    <circle cx="787.0" cy="673.0" r="33.96"/>
    <circle cx="788.0" cy="676.0" r="34.23"/>
    <circle cx="789.0" cy="680.0" r="34.49"/>
    <circle cx="790.0" cy="683.0" r="34.75"/>
    <circle cx="791.0" cy="686.0" r="35.01"/>
    <circle cx="792.0" cy="689.0" r="35.26"/>
    <circle cx="793.0" cy="692.0" r="35.5"/>
    <circle cx="794.0" cy="695.0" r="35.73"/>
    <circle cx="795.0" cy="697.0" r="35.96"/>
    <circle cx="796.0" cy="700.0" r="36.18"/>
    <circle cx="797.0" cy="702.0" r="36.39"/>
    <circle cx="798.0" cy="704.0" r="36.58"/>
    <circle cx="799.0" cy="706.0" r="36.77"/>
    <circle cx="799.0" cy="707.0" r="36.95"/>
    <circle cx="800.0" cy="709.0" r="37.11"/>
    <circle cx="801.0" cy="710.0" r="37.26"/>
    <circle cx="801.0" cy="711.0" r="37.4"/>
    <circle cx="802.0" cy="712.0" r="37.52"/>
    <circle cx="802.0" cy="713.0" r="37.63"/>
    <circle cx="803.0" cy="714.0" r="37.73"/>
    <circle cx="803.0" cy="714.0" r="37.81"/>
    <circle cx="804.0" cy="715.0" r="37.88"/>
    <circle cx="804.0" cy="715.0" r="37.93"/>
    <circle cx="805.0" cy="715.0" r="37.97"/>
    <circle cx="805.0" cy="714.0" r="37.99"/>
    <circle cx="805.0" cy="714.0" r="38"/>
    <circle cx="807.0" cy="712.0" r="38.04"/>
    <circle cx="808.0" cy="709.0" r="38.17"/>
    <circle cx="810.0" cy="706.0" r="38.38"/>
    <circle cx="812.0" cy="702.0" r="38.65"/>
    <circle cx="813.0" cy="698.0" r="38.97"/>
    <circle cx="815.0" cy="694.0" r="39.32"/>
    <circle cx="817.0" cy="690.0" r="39.68"/>
    <circle cx="819.0" cy="684.0" r="40.03"/>
    <circle cx="822.0" cy="679.0" r="40.35"/>
    <circle cx="824.0" cy="673.0" r="40.62"/>
    <circle cx="826.0" cy="667.0" r="40.83"/>
    <circle cx="829.0" cy="660.0" r="40.96"/>
    <circle cx="832.0" cy="653.0" r="41"/>
    <circle cx="835.0" cy="644.0" r="40.54"/>
    <circle cx="838.0" cy="636.0" r="39.19"/>
    <circle cx="841.0" cy="629.0" r="37.08"/>
    <circle cx="843.0" cy="623.0" r="34.44"/>
    <circle cx="844.0" cy="618.0" r="31.5"/>
    <circle cx="846.0" cy="613.0" r="28.56"/>
    <circle cx="846.0" cy="610.0" r="25.92"/>
    <circle cx="847.0" cy="607.0" r="23.81"/>
    <circle cx="847.0" cy="605.0" r="22.46"/>
    <circle cx="847.0" cy="604.0" r="22"/>
    <circle cx="846.0" cy="603.0" r="21.89"/>
    <circle cx="845.0" cy="601.0" r="21.56"/>
    <circle cx="845.0" cy="598.0" r="21.07"/>
    <circle cx="844.0" cy="593.0" r="20.5"/>
    <circle cx="844.0" cy="588.0" r="19.93"/>
    <circle cx="844.0" cy="581.0" r="19.44"/>
    <circle cx="844.0" cy="574.0" r="19.11"/>
    <circle cx="844.0" cy="565.0" r="19"/>
    <circle cx="844.0" cy="559.0" r="19.61"/>
    <circle cx="844.0" cy="553.0" r="21.41"/>
    <circle cx="844.0" cy="547.0" r="24.27"/>
    <circle cx="844.0" cy="542.0" r="28.0"/>
    <circle cx="843.0" cy="536.0" r="32.34"/>
    <circle cx="843.0" cy="531.0" r="37.0"/>
    <circle cx="842.0" cy="526.0" r="41.66"/>
    <circle cx="841.0" cy="522.0" r="46.0"/>
    <circle cx="840.0" cy="517.0" r="49.73"/>
    <circle cx="839.0" cy="513.0" r="52.59"/>
    <circle cx="838.0" cy="509.0" r="54.39"/>
    <circle cx="837.0" cy="505.0" r="55"/>
    <circle cx="835.0" cy="499.0" r="55.0"/>
    <circle cx="833.0" cy="493.0" r="55.0"/>
    <circle cx="831.0" cy="488.0" r="55.0"/>
    <circle cx="829.0" cy="483.0" r="55.0"/>
    <circle cx="827.0" cy="478.0" r="55.0"/>
    <circle cx="825.0" cy="473.0" r="55.0"/>
    <circle cx="823.0" cy="469.0" r="55.0"/>
    <circle cx="821.0" cy="464.0" r="55"/>
    <circle cx="819.0" cy="461.0" r="54.46"/>
    <circle cx="818.0" cy="458.0" r="52.88"/>
    <circle cx="817.0" cy="454.0" r="50.35"/>
    <circle cx="816.0" cy="450.0" r="47.01"/>
    <circle cx="815.0" cy="446.0" r="43.06"/>
    <circle cx="814.0" cy="441.0" r="38.73"/>
    <circle cx="813.0" cy="436.0" r="34.27"/>
    <circle cx="812.0" cy="431.0" r="29.94"/>
    <circle cx="811.0" cy="425.0" r="25.99"/>
    <circle cx="811.0" cy="419.0" r="22.65"/>
    <circle cx="810.0" cy="413.0" r="20.12"/>
    <circle cx="810.0" cy="406.0" r="18.54"/>
    <circle cx="809.0" cy="399.0" r="18"/>
    <circle cx="809.0" cy="392.0" r="18.06"/>
    <circle cx="808.0" cy="386.0" r="18.25"/>
    <circle cx="808.0" cy="380.0" r="18.55"/>
    <circle cx="807.0" cy="374.0" r="18.94"/>
    <circle cx="807.0" cy="368.0" r="19.42"/>
    <circle cx="806.0" cy="362.0" r="19.94"/>
    <circle cx="805.0" cy="357.0" r="20.5"/>
    <circle cx="804.0" cy="352.0" r="21.06"/>
    <circle cx="804.0" cy="347.0" r="21.58"/>
    <circle cx="803.0" cy="343.0" r="22.06"/>
    <circle cx="802.0" cy="339.0" r="22.45"/>
    <circle cx="801.0" cy="335.0" r="22.75"/>
    <circle cx="799.0" cy="331.0" r="22.94"/>
    <circle cx="798.0" cy="327.0" r="23"/>
    <circle cx="797.0" cy="323.0" r="22.9"/>
    <circle cx="796.0" cy="318.0" r="22.62"/>
    <circle cx="796.0" cy="315.0" r="22.18"/>
    <circle cx="797.0" cy="311.0" r="21.62"/>
    <circle cx="798.0" cy="308.0" r="21.0"/>
    <circle cx="800.0" cy="305.0" r="20.38"/>
    <circle cx="803.0" cy="302.0" r="19.82"/>
    <circle cx="807.0" cy="300.0" r="19.38"/>
    <circle cx="811.0" cy="298.0" r="19.1"/>
    <circle cx="816.0" cy="296.0" r="19"/>
    <circle cx="820.0" cy="295.0" r="18.83"/>
    <circle cx="823.0" cy="293.0" r="18.31"/>
    <circle cx="826.0" cy="291.0" r="17.49"/>
    <circle cx="829.0" cy="289.0" r="16.41"/>
    <circle cx="830.0" cy="286.0" r="15.13"/>
    <circle cx="832.0" cy="283.0" r="13.72"/>
    <circle cx="833.0" cy="280.0" r="12.28"/>
    <circle cx="834.0" cy="276.0" r="10.87"/>
    <circle cx="834.0" cy="271.0" r="9.59"/>
    <circle cx="833.0" cy="267.0" r="8.51"/>
    <circle cx="832.0" cy="262.0" r="7.69"/>
    <circle cx="831.0" cy="257.0" r="7.17"/>
    <circle cx="829.0" cy="251.0" r="7"/>
    <circle cx="828.0" cy="249.0" r="7.03"/>
    <circle cx="828.0" cy="247.0" r="7.1"/>
    <circle cx="827.0" cy="246.0" r="7.23"/>
    <circle cx="827.0" cy="245.0" r="7.41"/>
    <circle cx="827.0" cy="244.0" r="7.63"/>
    <circle cx="827.0" cy="243.0" r="7.9"/>
    <circle cx="827.0" cy="243.0" r="8.22"/>
    <circle cx="827.0" cy="243.0" r="8.58"/>
    <circle cx="827.0" cy="243.0" r="8.98"/>
    <circle cx="827.0" cy="243.0" r="9.42"/>
    <circle cx="827.0" cy="244.0" r="9.89"/>
    <circle cx="828.0" cy="245.0" r="10.4"/>
    <circle cx="828.0" cy="246.0" r="10.93"/>
    <circle cx="829.0" cy="247.0" r="11.49"/>
    <circle cx="829.0" cy="248.0" r="12.06"/>
    <circle cx="830.0" cy="250.0" r="12.66"/>
    <circle cx="831.0" cy="252.0" r="13.27"/>
    <circle cx="832.0" cy="255.0" r="13.88"/>
    <circle cx="833.0" cy="257.0" r="14.5"/>
    <circle cx="834.0" cy="260.0" r="15.12"/>
    <circle cx="836.0" cy="263.0" r="15.73"/>
    <circle cx="837.0" cy="266.0" r="16.34"/>
    <circle cx="838.0" cy="270.0" r="16.94"/>
    <circle cx="840.0" cy="274.0" r="17.51"/>
    <circle cx="842.0" cy="278.0" r="18.07"/>
    <circle cx="843.0" cy="282.0" r="18.6"/>
    <circle cx="845.0" cy="286.0" r="19.11"/>
    <circle cx="847.0" cy="291.0" r="19.58"/>
    <circle cx="849.0" cy="296.0" r="20.02"/>
    <circle cx="851.0" cy="301.0" r="20.42"/>
    <circle cx="854.0" cy="307.0" r="20.78"/>
    <circle cx="856.0" cy="312.0" r="21.1"/>
    <circle cx="858.0" cy="318.0" r="21.37"/>
    <circle cx="861.0" cy="325.0" r="21.59"/>
    <circle cx="864.0" cy="331.0" r="21.77"/>
    <circle cx="866.0" cy="338.0" r="21.9"/>
    <circle cx="869.0" cy="345.0" r="21.97"/>
    <circle cx="872.0" cy="352.0" r="22"/>
    <circle cx="874.0" cy="357.0" r="21.94"/>
    <circle cx="876.0" cy="361.0" r="21.77"/>
    <circle cx="878.0" cy="366.0" r="21.49"/>
    <circle cx="880.0" cy="371.0" r="21.09"/>
    <circle cx="881.0" cy="375.0" r="20.6"/>
    <circle cx="883.0" cy="380.0" r="20.0"/>
    <circle cx="885.0" cy="384.0" r="19.31"/>
    <circle cx="887.0" cy="389.0" r="18.54"/>
    <circle cx="889.0" cy="394.0" r="17.68"/>
    <circle cx="891.0" cy="398.0" r="16.76"/>
    <circle cx="893.0" cy="403.0" r="15.79"/>
    <circle cx="895.0" cy="408.0" r="14.76"/>
    <circle cx="896.0" cy="412.0" r="13.7"/>
    <circle cx="898.0" cy="417.0" r="12.62"/>
    <circle cx="900.0" cy="422.0" r="11.52"/>
    <circle cx="902.0" cy="426.0" r="10.43"/>
    <circle cx="904.0" cy="431.0" r="9.34"/>
    <circle cx="906.0" cy="435.0" r="8.28"/>
    <circle cx="908.0" cy="440.0" r="7.26"/>
    <circle cx="910.0" cy="445.0" r="6.28"/>
    <circle cx="911.0" cy="449.0" r="5.36"/>
    <circle cx="913.0" cy="454.0" r="4.5"/>
    <circle cx="915.0" cy="459.0" r="3.72"/>
    <circle cx="917.0" cy="463.0" r="3.03"/>
    <circle cx="919.0" cy="468.0" r="2.43"/>
    <circle cx="921.0" cy="473.0" r="1.93"/>
    <circle cx="923.0" cy="477.0" r="1.53"/>
    <circle cx="925.0" cy="482.0" r="1.24"/>
    <circle cx="926.0" cy="486.0" r="1.06"/>
    <circle cx="928.0" cy="491.0" r="1.0"/>
    <g stroke="blue">
      <circle cx="166.0" cy="419.0" r="5"/>
      <circle cx="160.27050983124843" cy="436.6335575687742" r="5"/>
      <circle cx="145.27050983124843" cy="447.5316954888546" r="5"/>
      <circle cx="126.72949016875158" cy="447.5316954888546" r="5"/>
      <circle cx="111.72949016875158" cy="436.6335575687742" r="5"/>
      <circle cx="106.0" cy="419.0" r="5"/>
      <circle cx="111.72949016875157" cy="401.36644243122583" r="5"/>
      <circle cx="126.72949016875157" cy="390.4683045111454" r="5"/>
      <circle cx="145.2705098312484" cy="390.4683045111454" r="5"/>
      <circle cx="160.27050983124843" cy="401.3664424312258" r="5"/>
      <path d="M928.0 521.0 L928.0 531.0"/>
      <path d="M945.63 515.27 L951.51 523.36"/>
      <path d="M956.53 500.27 L966.04 503.36"/>
      <path d="M956.53 481.73 L966.04 478.64"/>
      <path d="M945.63 466.73 L951.51 458.64"/>
      <path d="M928.0 461.0 L928.0 451.0"/>
      <path d="M910.37 466.73 L904.49 458.64"/>
      <path d="M899.47 481.73 L889.96 478.64"/>
      <path d="M899.47 500.27 L889.96 503.36"/>
      <path d="M910.37 515.27 L904.49 523.36"/>
      <circle cx="824.0" cy="673.0" r="60.62"/>
      <path d="M824.0 743.62 L824.0 753.62"/>
      <path d="M845.82 740.16 L848.91 749.67"/>
      <path d="M865.51 730.13 L871.39 738.22"/>
      <path d="M881.13 714.51 L889.22 720.39"/>
      <path d="M891.16 694.82 L900.67 697.91"/>
      <path d="M894.62 673.0 L904.62 673.0"/>
      <path d="M891.16 651.18 L900.67 648.09"/>
      <path d="M881.13 631.49 L889.22 625.61"/>
      <path d="M865.51 615.87 L871.39 607.78"/>
      <path d="M845.82 605.84 L848.91 596.33"/>
      <path d="M824.0 602.38 L824.0 592.38"/>
      <path d="M802.18 605.84 L799.09 596.33"/>
      <path d="M782.49 615.87 L776.61 607.78"/>
      <path d="M766.87 631.49 L758.78 625.61"/>
      <path d="M756.84 651.18 L747.33 648.09"/>
      <path d="M753.38 673.0 L743.38 673.0"/>
      <path d="M756.84 694.82 L747.33 697.91"/>
      <path d="M766.87 714.51 L758.78 720.39"/>
      <path d="M782.49 730.13 L776.61 738.22"/>
      <path d="M802.18 740.16 L799.09 749.67"/>
      <circle cx="394.0" cy="190.0" r="56.37"/>
      <path d="M394.0 256.37 L394.0 266.37"/>
      <path d="M414.51 253.12 L417.6 262.63"/>
      <path d="M433.01 243.69 L438.89 251.78"/>
      <path d="M447.69 229.01 L455.78 234.89"/>
      <path d="M457.12 210.51 L466.63 213.6"/>
      <path d="M460.37 190.0 L470.37 190.0"/>
      <path d="M457.12 169.49 L466.63 166.4"/>
      <path d="M447.69 150.99 L455.78 145.11"/>
      <path d="M433.01 136.31 L438.89 128.22"/>
      <path d="M414.51 126.88 L417.6 117.37"/>
      <path d="M394.0 123.63 L394.0 113.63"/>
      <path d="M373.49 126.88 L370.4 117.37"/>
      <path d="M354.99 136.31 L349.11 128.22"/>
      <path d="M340.31 150.99 L332.22 145.11"/>
      <path d="M330.88 169.49 L321.37 166.4"/>
      <path d="M327.63 190.0 L317.63 190.0"/>
      <path d="M330.88 210.51 L321.37 213.6"/>
      <path d="M340.31 229.01 L332.22 234.89"/>
      <path d="M354.99 243.69 L349.11 251.78"/>
      <path d="M373.49 253.12 L370.4 262.63"/>
      <circle cx="503.0" cy="519.0" r="44.769999999999996"/>
      <circle cx="503.0" cy="519.0" r="54.769999999999996"/>
      <circle cx="273.0" cy="520.0" r="65.87"/>
      <path d="M273.0 595.87 L273.0 605.87"/>
      <path d="M296.45 592.16 L299.54 601.67"/>
      <path d="M317.6 581.38 L323.48 589.47"/>
      <path d="M334.38 564.6 L342.47 570.48"/>
      <path d="M345.16 543.45 L354.67 546.54"/>
      <path d="M348.87 520.0 L358.87 520.0"/>
      <path d="M345.16 496.55 L354.67 493.46"/>
      <path d="M334.38 475.4 L342.47 469.52"/>
      <path d="M317.6 458.62 L323.48 450.53"/>
      <path d="M296.45 447.84 L299.54 438.33"/>
      <path d="M273.0 444.13 L273.0 434.13"/>
      <path d="M249.55 447.84 L246.46 438.33"/>
      <path d="M228.4 458.62 L222.52 450.53"/>
      <path d="M211.62 475.4 L203.53 469.52"/>
      <path d="M200.84 496.55 L191.33 493.46"/>
      <path d="M197.13 520.0 L187.13 520.0"/>
      <path d="M200.84 543.45 L191.33 546.54"/>
      <path d="M211.62 564.6 L203.53 570.48"/>
      <path d="M228.4 581.38 L222.52 589.47"/>
      <path d="M249.55 592.16 L246.46 601.67"/>
      <circle cx="660.0" cy="219.0" r="64.81"/>
      <g transform="translate(914.93,673.0) scale(0.5,0.5)">
        <path d="M0 0h25.0m-12.5 0v-50l-12.5 12.5"/>
        <path d="M47.5 -50q12.5 0 12.5 12.5q0 12.5 -12.5 12.5q-12.5 0 -12.5 12.5q0 12.5 12.5 12.5q12.5 0 12.5 -12.5q0 -12.5 -12.5 -12.5q-12.5 0 -12.5 -12.5q0 -12.5 12.5 -12.5"/>
        <path d="M70.0 0h25.0m-12.5 0v-50l-12.5 12.5"/>
        <path d="M130.0 -50h-12.5q-12.5 0 -12.5 12.5v25.0q0 12.5 12.5 12.5q12.5 0 12.5 -12.5q0 -12.5 -12.5 -12.5h-12.5"/>
        <path d="M165.0 -50h-25.0v25.0h12.5q12.5 0 12.5 12.5q0 12.5 -12.5 12.5h-12.5"/>
      </g>
      <g transform="translate(757.215,219.0) scale(0.5,0.5)">
        <path d="M25.0 0h-25.0v-12.5q0 -12.5 12.5 -12.5q12.5 0 12.5 -12.5q0 -12.5 -12.5 -12.5q-12.5 0 -12.5 12.5"/>
        <path d="M35.0 -50h25.0l-25.0 50"/>
        <path d="M95.0 -50h-25.0v25.0h12.5q12.5 0 12.5 12.5q0 12.5 -12.5 12.5h-12.5"/>
        <path d="M105.0 -50h25.0l-25.0 50"/>
      </g>
    </g>
  </g>
</svg>
