<svg version="1.1" width="1630" height="1060" xmlns="http://www.w3.org/2000/svg">
  <!-- Seed: 2178464751640050325 -->
  <g stroke="black" fill="none">
    <circle cx="194" cy="505.0" r="1"/>
    <circle cx="197.67772552579544" cy="501.61262122624106" r="2.935645013576544"/>
    <circle cx="201.35545105159088" cy="498.2252424524821" r="4.871290027153088"/>
    <circle cx="205.0331765773863" cy="494.8378636787231" r="6.806935040729633"/>
    <circle cx="208.71090210318172" cy="491.4504849049642" r="8.742580054306176"/>
    <circle cx="212.38862762897716" cy="488.06310613120525" r="10.678225067882721"/>
    <circle cx="213.0" cy="487.5" r="11"/>
    <circle cx="216.19201388888885" cy="484.5402777777777" r="11.255556302831987"/>
    <circle cx="219.43472222222226" cy="481.4944444444445" r="12.00480947161671"/>
    <circle cx="222.728125" cy="478.3625" r="13.196699141100893"/>
    <circle cx="226.07222222222225" cy="475.14444444444456" r="14.75"/>
    <circle cx="229.46701388888886" cy="471.8402777777777" r="16.558857161731094"/>
    <circle cx="232.9125" cy="468.45" r="18.5"/>
    <circle cx="236.40868055555558" cy="464.97361111111115" r="20.441142838268906"/>
    <circle cx="239.95555555555558" cy="461.41111111111115" r="22.25"/>
    <circle cx="243.553125" cy="457.76250000000005" r="23.803300858899107"/>
    <circle cx="247.20138888888889" cy="454.0277777777778" r="24.99519052838329"/>
    <circle cx="250.9003472222222" cy="450.2069444444444" r="25.74444369716801"/>
    <circle cx="254.65" cy="446.3" r="26"/>
    <circle cx="258.3902777777777" cy="442.3916666666666" r="25.76148078402348"/>
    <circle cx="262.06111111111113" cy="438.5666666666667" r="25.06217782649107"/>
    <circle cx="265.6625" cy="434.82500000000005" r="23.949747468305834"/>
    <circle cx="269.1944444444445" cy="431.16666666666674" r="22.5"/>
    <circle cx="272.65694444444443" cy="427.59166666666664" r="20.811733315717646"/>
    <circle cx="276.05" cy="424.1" r="19.0"/>
    <circle cx="279.37361111111113" cy="420.6916666666667" r="17.188266684282354"/>
    <circle cx="282.6277777777778" cy="417.3666666666667" r="15.500000000000002"/>
    <circle cx="285.8125" cy="414.12500000000006" r="14.050252531694168"/>
    <circle cx="288.9277777777778" cy="410.9666666666667" r="12.937822173508929"/>
    <circle cx="291.97361111111115" cy="407.89166666666665" r="12.238519215976522"/>
    <circle cx="294.95000000000005" cy="404.90000000000003" r="12"/>
    <circle cx="296.890997229917" cy="402.97728531855967" r="12.034096741493194"/>
    <circle cx="298.9981994459834" cy="400.9354570637119" r="12.135456895748414"/>
    <circle cx="301.27160664819945" cy="398.7745152354571" r="12.301315621983777"/>
    <circle cx="303.71121883656514" cy="396.494459833795" r="12.527148726509015"/>
    <circle cx="306.31703601108046" cy="394.0952908587259" r="12.806796070935647"/>
    <circle cx="309.08905817174514" cy="391.5770083102493" r="13.132629604693932"/>
    <circle cx="312.02728531855956" cy="388.9396121883657" r="13.495761438367577"/>
    <circle cx="315.13171745152357" cy="386.18310249307484" r="13.886286282148003"/>
    <circle cx="318.40235457063716" cy="383.30747922437683" r="14.293551636319169"/>
    <circle cx="321.8391966759003" cy="380.3127423822715" r="14.706448363680831"/>
    <circle cx="325.442243767313" cy="377.19889196675905" r="15.113713717851997"/>
    <circle cx="329.21149584487534" cy="373.96592797783944" r="15.504238561632423"/>
    <circle cx="333.14695290858725" cy="370.6138504155125" r="15.867370395306066"/>
    <circle cx="337.24861495844874" cy="367.1426592797784" r="16.193203929064353"/>
    <circle cx="341.51648199445987" cy="363.5523545706372" r="16.472851273490985"/>
    <circle cx="345.9505540166205" cy="359.8429362880887" r="16.698684378016225"/>
    <circle cx="350.55083102493074" cy="356.014404432133" r="16.864543104251588"/>
    <circle cx="355.31731301939055" cy="352.06675900277014" r="16.965903258506806"/>
    <circle cx="360.25" cy="348.00000000000006" r="17"/>
    <circle cx="365.196537396122" cy="343.93185595567877" r="17.047735438090474"/>
    <circle cx="370.0045706371191" cy="339.9800554016621" r="17.189639654047777"/>
    <circle cx="374.6740997229916" cy="336.1445983379502" r="17.42184187077729"/>
    <circle cx="379.20512465373963" cy="332.425484764543" r="17.738008217112622"/>
    <circle cx="383.59764542936296" cy="328.8227146814406" r="18.129514499309906"/>
    <circle cx="387.85166204986155" cy="325.33628808864273" r="18.585681446571506"/>
    <circle cx="391.96717451523546" cy="321.96620498614965" r="19.094066013714606"/>
    <circle cx="395.9441828254848" cy="318.71246537396127" r="19.640800795007202"/>
    <circle cx="399.7826869806095" cy="315.5750692520777" r="20.210972290846836"/>
    <circle cx="403.48268698060946" cy="312.5540166204987" r="20.789027709153164"/>
    <circle cx="407.0441828254848" cy="309.6493074792245" r="21.359199204992798"/>
    <circle cx="410.46717451523546" cy="306.8609418282549" r="21.905933986285394"/>
    <circle cx="413.7516620498615" cy="304.1889196675901" r="22.414318553428494"/>
    <circle cx="416.8976454293629" cy="301.63324099722996" r="22.870485500690094"/>
    <circle cx="419.9051246537397" cy="299.1939058171746" r="23.261991782887378"/>
    <circle cx="422.7740997229917" cy="296.87091412742393" r="23.57815812922271"/>
    <circle cx="425.5045706371192" cy="294.6642659279779" r="23.81036034595222"/>
    <circle cx="428.0965373961219" cy="292.57396121883664" r="23.95226456190953"/>
    <circle cx="430.55000000000007" cy="290.6000000000001" r="24"/>
    <circle cx="433.07746913580246" cy="288.4743827160495" r="23.86326977710987"/>
    <circle cx="435.6265432098766" cy="286.1419753086421" r="23.457233587073176"/>
    <circle cx="438.19722222222236" cy="283.6027777777779" r="22.794228634059948"/>
    <circle cx="440.7895061728396" cy="280.8567901234569" r="21.894399988070802"/>
    <circle cx="443.4033950617284" cy="277.90401234567906" r="20.785088487178854"/>
    <circle cx="446.03888888888895" cy="274.7444444444446" r="19.5"/>
    <circle cx="448.6959876543211" cy="271.37808641975323" r="18.07818128993102"/>
    <circle cx="451.37469135802473" cy="267.804938271605" r="16.562833599002374"/>
    <circle cx="454.07500000000005" cy="264.0250000000001" r="15.000000000000002"/>
    <circle cx="456.79691358024695" cy="260.03827160493836" r="13.437166400997627"/>
    <circle cx="459.54043209876545" cy="255.84475308641981" r="11.921818710068981"/>
    <circle cx="462.3055555555556" cy="251.44444444444454" r="10.500000000000002"/>
    <circle cx="465.09228395061734" cy="246.83734567901243" r="9.214911512821146"/>
    <circle cx="467.9006172839506" cy="242.02345679012356" r="8.105600011929198"/>
    <circle cx="470.7305555555556" cy="237.00277777777788" r="7.205771365940052"/>
    <circle cx="473.5820987654322" cy="231.7753086419754" r="6.542766412926824"/>
    <circle cx="476.45524691358025" cy="226.34104938271614" r="6.136730222890126"/>
    <circle cx="479.35" cy="220.7000000000001" r="6"/>
    <circle cx="483.3573964497042" cy="213.14970414201198" r="5.985470908713026"/>
    <circle cx="487.33343195266275" cy="206.40650887573975" r="5.942728012826605"/>
    <circle cx="491.2781065088757" cy="200.47041420118353" r="5.874255374085551"/>
    <circle cx="495.1914201183432" cy="195.3414201183433" r="5.784032373365578"/>
    <circle cx="499.07337278106513" cy="191.01952662721905" r="5.677302443521268"/>
    <circle cx="502.9239644970415" cy="187.50473372781073" r="5.560268340127662"/>
    <circle cx="506.7431952662722" cy="184.79704142011843" r="5.439731659872338"/>
    <circle cx="510.5310650887574" cy="182.89644970414207" r="5.322697556478732"/>
    <circle cx="514.287573964497" cy="181.80295857988176" r="5.215967626634422"/>
    <circle cx="518.0127218934911" cy="181.51656804733733" r="5.125744625914449"/>
    <circle cx="521.7065088757397" cy="182.03727810650895" r="5.0572719871733955"/>
    <circle cx="525.3689349112426" cy="183.3650887573965" r="5.014529091286974"/>
    <circle cx="529.0" cy="185.50000000000006" r="5"/>
    <circle cx="531.8251953125" cy="187.71191406250006" r="5.01921471959677"/>
    <circle cx="534.42578125" cy="190.22265625000006" r="5.076120467488713"/>
    <circle cx="536.8017578125" cy="193.03222656250006" r="5.168530387697455"/>
    <circle cx="538.953125" cy="196.14062500000003" r="5.292893218813452"/>
    <circle cx="540.8798828125" cy="199.54785156250003" r="5.444429766980398"/>
    <circle cx="542.58203125" cy="203.25390625000003" r="5.61731656763491"/>
    <circle cx="544.0595703125" cy="207.25878906250003" r="5.804909677983872"/>
    <circle cx="545.3125" cy="211.5625" r="6.0"/>
    <circle cx="546.3408203125" cy="216.1650390625" r="6.195090322016128"/>
    <circle cx="547.14453125" cy="221.06640625" r="6.38268343236509"/>
    <circle cx="547.7236328125" cy="226.2666015625" r="6.555570233019602"/>
    <circle cx="548.078125" cy="231.765625" r="6.707106781186548"/>
    <circle cx="548.2080078125" cy="237.5634765625" r="6.831469612302545"/>
    <circle cx="548.11328125" cy="243.66015625" r="6.923879532511287"/>
    <circle cx="547.7939453125" cy="250.0556640625" r="6.98078528040323"/>
    <circle cx="547.25" cy="256.75" r="7"/>
    <circle cx="546.8425925925926" cy="260.8206447187929" r="7.077758885967655"/>
    <circle cx="546.3981481481482" cy="264.9214677640604" r="7.309983988332026"/>
    <circle cx="545.9166666666667" cy="269.0524691358024" r="7.693534860962053"/>
    <circle cx="545.3981481481482" cy="273.2136488340192" r="8.223224636280758"/>
    <circle cx="544.8425925925927" cy="277.40500685871064" r="8.89189016875123"/>
    <circle cx="544.25" cy="281.6265432098765" r="9.690488904131753"/>
    <circle cx="543.6203703703703" cy="285.8782578875171" r="10.608221164509564"/>
    <circle cx="542.9537037037037" cy="290.1601508916324" r="11.632676195417957"/>
    <circle cx="542.2500000000001" cy="294.4722222222223" r="12.75"/>
    <circle cx="541.5092592592594" cy="298.8144718792867" r="13.945082690549697"/>
    <circle cx="540.7314814814814" cy="303.1868998628257" r="15.201762823822461"/>
    <circle cx="539.9166666666667" cy="307.58950617283955" r="16.5030459568303"/>
    <circle cx="539.0648148148149" cy="312.02229080932784" r="17.83133446752953"/>
    <circle cx="538.175925925926" cy="316.4852537722908" r="19.16866553247047"/>
    <circle cx="537.25" cy="320.9783950617284" r="20.496954043169698"/>
    <circle cx="536.2870370370371" cy="325.5017146776406" r="21.798237176177533"/>
    <circle cx="535.2870370370371" cy="330.0552126200274" r="23.054917309450303"/>
    <circle cx="534.25" cy="334.6388888888889" r="24.249999999999996"/>
    <circle cx="533.175925925926" cy="339.252743484225" r="25.36732380458204"/>
    <circle cx="532.0648148148148" cy="343.89677640603566" r="26.391778835490435"/>
    <circle cx="530.9166666666666" cy="348.570987654321" r="27.309511095868245"/>
    <circle cx="529.7314814814814" cy="353.2753772290809" r="28.10810983124877"/>
    <circle cx="528.5092592592592" cy="358.0099451303155" r="28.776775363719242"/>
    <circle cx="527.25" cy="362.7746913580247" r="29.306465139037947"/>
    <circle cx="525.9537037037037" cy="367.5696159122086" r="29.690016011667975"/>
    <circle cx="524.6203703703703" cy="372.3947187928669" r="29.922241114032346"/>
    <circle cx="523.25" cy="377.25" r="30"/>
    <circle cx="521.9830558858503" cy="381.7868608799049" r="29.953103657234877"/>
    <circle cx="520.7684304399525" cy="386.3284780023782" r="29.81296444568069"/>
    <circle cx="519.6061236623068" cy="390.8748513674198" r="29.58122536946242"/>
    <circle cx="518.4961355529131" cy="395.42598097502963" r="29.260603357367657"/>
    <circle cx="517.4384661117716" cy="399.9818668252081" r="28.854857409340713"/>
    <circle cx="516.4331153388823" cy="404.5425089179548" r="28.36874452564515"/>
    <circle cx="515.480083234245" cy="409.1079072532699" r="27.807963935385047"/>
    <circle cx="514.5793697978597" cy="413.6780618311534" r="27.17909027825462"/>
    <circle cx="513.7309750297266" cy="418.25297265160526" r="26.48949652289906"/>
    <circle cx="512.9348989298454" cy="422.83263971462543" r="25.74726752559832"/>
    <circle cx="512.1911414982164" cy="427.417063020214" r="24.961105242719317"/>
    <circle cx="511.49970273483956" cy="432.006242568371" r="24.14022670823377"/>
    <circle cx="510.8605826397146" cy="436.6001783590963" r="23.294255972422118"/>
    <circle cx="510.2737812128418" cy="441.19887039238995" r="22.43311126868334"/>
    <circle cx="509.73929845422117" cy="445.8023186682521" r="21.56688873131666"/>
    <circle cx="509.2571343638525" cy="450.41052318668255" r="20.705744027577882"/>
    <circle cx="508.827288941736" cy="455.02348394768137" r="19.859773291766235"/>
    <circle cx="508.4497621878716" cy="459.6412009512485" r="19.038894757280683"/>
    <circle cx="508.12455410225914" cy="464.26367419738403" r="18.25273247440168"/>
    <circle cx="507.85166468489894" cy="468.890903686088" r="17.51050347710094"/>
    <circle cx="507.6310939357908" cy="473.5228894173603" r="16.82090972174538"/>
    <circle cx="507.4628418549346" cy="478.15963139120095" r="16.192036064614957"/>
    <circle cx="507.3469084423306" cy="482.80112960761" r="15.63125547435485"/>
    <circle cx="507.2832936979786" cy="487.44738406658735" r="15.145142590659287"/>
    <circle cx="507.2719976218787" cy="492.0983947681332" r="14.739396642632345"/>
    <circle cx="507.3130202140309" cy="496.75416171224737" r="14.41877463053758"/>
    <circle cx="507.4063614744352" cy="501.41468489892986" r="14.187035554319307"/>
    <circle cx="507.55202140309154" cy="506.0799643281807" r="14.046896342765123"/>
    <circle cx="507.75" cy="510.75" r="14"/>
    <circle cx="508.0132" cy="516.1347999999999" r="14.011827948028284"/>
    <circle cx="508.2828" cy="521.4492" r="14.047125258307053"/>
    <circle cx="508.5588" cy="526.6931999999999" r="14.105335271167624"/>
    <circle cx="508.84119999999996" cy="531.8668" r="14.185539979934205"/>
    <circle cx="509.1300000000001" cy="536.9700000000001" r="14.286474508437578"/>
    <circle cx="509.4252" cy="542.0028000000001" r="14.406547058867883"/>
    <circle cx="509.72679999999997" cy="546.9652" r="14.543864015376965"/>
    <circle cx="510.0347999999999" cy="551.8571999999999" r="14.696259807531504"/>
    <circle cx="510.3492" cy="556.6787999999999" r="14.861331062652392"/>
    <circle cx="510.67" cy="561.4300000000001" r="15.036474508437578"/>
    <circle cx="510.99720000000013" cy="566.1108" r="15.218928028121413"/>
    <circle cx="511.3308" cy="570.7212" r="15.40581422070603"/>
    <circle cx="511.6708" cy="575.2612" r="15.59418577929397"/>
    <circle cx="512.0172" cy="579.7308" r="15.781071971878587"/>
    <circle cx="512.37" cy="584.13" r="15.963525491562422"/>
    <circle cx="512.7292" cy="588.4588" r="16.13866893734761"/>
    <circle cx="513.0948000000001" cy="592.7172" r="16.303740192468496"/>
    <circle cx="513.4667999999999" cy="596.9052" r="16.456135984623035"/>
    <circle cx="513.8452" cy="601.0228" r="16.593452941132117"/>
    <circle cx="514.23" cy="605.07" r="16.71352549156242"/>
    <circle cx="514.6212" cy="609.0468" r="16.814460020065795"/>
    <circle cx="515.0187999999999" cy="612.9531999999999" r="16.894664728832378"/>
    <circle cx="515.4227999999999" cy="616.7892" r="16.952874741692945"/>
    <circle cx="515.8332" cy="620.5548000000001" r="16.988172051971716"/>
    <circle cx="516.25" cy="624.25" r="17"/>
    <circle cx="516.7303719008265" cy="628.4328512396695" r="17.066160627773936"/>
    <circle cx="517.2169421487604" cy="632.6632231404958" r="17.263295671505766"/>
    <circle cx="517.7097107438017" cy="636.9411157024794" r="17.58739203019563"/>
    <circle cx="518.2086776859503" cy="641.2665289256198" r="18.03185203659732"/>
    <circle cx="518.7138429752065" cy="645.6394628099174" r="18.58762776669732"/>
    <circle cx="519.2252066115702" cy="650.0599173553719" r="19.24340522935565"/>
    <circle cx="519.7427685950414" cy="654.5278925619835" r="19.985834686538617"/>
    <circle cx="520.2665289256198" cy="659.043388429752" r="20.79980241548774"/>
    <circle cx="520.7964876033056" cy="663.6064049586776" r="21.66873838053071"/>
    <circle cx="521.3326446280992" cy="668.2169421487602" r="22.574953551223643"/>
    <circle cx="521.875" cy="672.875" r="23.5"/>
    <circle cx="522.4235537190083" cy="677.5805785123966" r="24.425046448776353"/>
    <circle cx="522.978305785124" cy="682.3336776859504" r="25.331261619469295"/>
    <circle cx="523.5392561983472" cy="687.1342975206612" r="26.20019758451226"/>
    <circle cx="524.1064049586778" cy="691.9824380165289" r="27.014165313461383"/>
    <circle cx="524.6797520661157" cy="696.8780991735537" r="27.756594770644355"/>
    <circle cx="525.2592975206612" cy="701.8212809917355" r="28.412372233302676"/>
    <circle cx="525.845041322314" cy="706.8119834710744" r="28.96814796340268"/>
    <circle cx="526.4369834710744" cy="711.8502066115702" r="29.41260796980437"/>
    <circle cx="527.0351239669421" cy="716.9359504132232" r="29.736704328494234"/>
    <circle cx="527.6394628099174" cy="722.0692148760331" r="29.933839372226064"/>
    <circle cx="528.25" cy="727.25" r="30"/>
    <circle cx="528.6881688466112" cy="731.2214625445898" r="30.02051714995974"/>
    <circle cx="529.071640903686" cy="735.2392984542212" r="30.081828055014697"/>
    <circle cx="529.4004161712248" cy="739.3035077288943" r="30.183213900860192"/>
    <circle cx="529.6744946492271" cy="743.4140903686088" r="30.32348603115165"/>
    <circle cx="529.8938763376932" cy="747.571046373365" r="30.50099988341344"/>
    <circle cx="530.0585612366232" cy="751.774375743163" r="30.713674270030246"/>
    <circle cx="530.1685493460166" cy="756.0240784780023" r="30.95901577826904"/>
    <circle cx="530.223840665874" cy="760.3201545778835" r="31.234148003263602"/>
    <circle cx="530.224435196195" cy="764.6626040428063" r="31.53584527123166"/>
    <circle cx="530.1703329369798" cy="769.0514268727705" r="31.860570457550736"/>
    <circle cx="530.0615338882283" cy="773.4866230677766" r="32.2045164563103"/>
    <circle cx="529.8980380499406" cy="777.9681926278242" r="32.563650815147724"/>
    <circle cx="529.6798454221165" cy="782.4961355529131" r="32.93376301206532"/>
    <circle cx="529.4069560047561" cy="787.0704518430439" r="33.31051381995104"/>
    <circle cx="529.0793697978597" cy="791.6911414982164" r="33.68948618004896"/>
    <circle cx="528.6970868014268" cy="796.3582045184304" r="34.06623698793467"/>
    <circle cx="528.2601070154577" cy="801.0716409036861" r="34.436349184852276"/>
    <circle cx="527.7684304399525" cy="805.8314506539834" r="34.7954835436897"/>
    <circle cx="527.2220570749108" cy="810.6376337693223" r="35.139429542449264"/>
    <circle cx="526.6209869203329" cy="815.4901902497027" r="35.464154728768335"/>
    <circle cx="525.9652199762188" cy="820.3891200951249" r="35.765851996736394"/>
    <circle cx="525.2547562425684" cy="825.3344233055885" r="36.04098422173096"/>
    <circle cx="524.4895957193817" cy="830.326099881094" r="36.286325729969754"/>
    <circle cx="523.6697384066588" cy="835.3641498216409" r="36.499000116586565"/>
    <circle cx="522.7951843043995" cy="840.4485731272295" r="36.67651396884835"/>
    <circle cx="521.865933412604" cy="845.5793697978597" r="36.81678609913981"/>
    <circle cx="520.8819857312723" cy="850.7565398335315" r="36.9181719449853"/>
    <circle cx="519.8433412604043" cy="855.9800832342451" r="36.979482850040256"/>
    <circle cx="518.75" cy="861.25" r="37"/>
    <circle cx="516.6733333333333" cy="871.1" r="36.87981180403593"/>
    <circle cx="514.7766666666666" cy="880.1833333333334" r="36.524500017034306"/>
    <circle cx="513.0600000000001" cy="888.5000000000002" r="35.94959346906221"/>
    <circle cx="511.52333333333337" cy="896.0500000000001" r="35.18021833497372"/>
    <circle cx="510.1666666666667" cy="902.8333333333334" r="34.25"/>
    <circle cx="508.99" cy="908.85" r="33.19959346906221"/>
    <circle cx="507.99333333333334" cy="914.1" r="32.07490654797209"/>
    <circle cx="507.1766666666667" cy="918.5833333333334" r="30.92509345202791"/>
    <circle cx="506.53999999999996" cy="922.3000000000001" r="29.80040653093779"/>
    <circle cx="506.0833333333333" cy="925.25" r="28.75"/>
    <circle cx="505.8066666666667" cy="927.4333333333334" r="27.819781665026284"/>
    <circle cx="505.71000000000004" cy="928.8500000000001" r="27.05040653093779"/>
    <circle cx="505.7933333333333" cy="929.5" r="26.475499982965694"/>
    <circle cx="506.05666666666673" cy="929.3833333333333" r="26.12018819596407"/>
    <circle cx="506.5" cy="928.5" r="26"/>
    <circle cx="506.95216942148767" cy="927.4896694214876" r="25.933839372226064"/>
    <circle cx="507.58140495867764" cy="926.1859504132232" r="25.736704328494234"/>
    <circle cx="508.38770661157025" cy="924.5888429752067" r="25.41260796980437"/>
    <circle cx="509.3710743801652" cy="922.6983471074378" r="24.96814796340268"/>
    <circle cx="510.5315082644628" cy="920.5144628099173" r="24.41237223330268"/>
    <circle cx="511.86900826446276" cy="918.0371900826445" r="23.75659477064435"/>
    <circle cx="513.3835743801653" cy="915.2665289256199" r="23.014165313461383"/>
    <circle cx="515.0752066115703" cy="912.202479338843" r="22.20019758451226"/>
    <circle cx="516.9439049586776" cy="908.8450413223138" r="21.33126161946929"/>
    <circle cx="518.9896694214875" cy="905.194214876033" r="20.425046448776357"/>
    <circle cx="521.2125" cy="901.25" r="19.5"/>
    <circle cx="523.6123966942149" cy="897.0123966942149" r="18.574953551223647"/>
    <circle cx="526.1893595041323" cy="892.4814049586777" r="17.668738380530705"/>
    <circle cx="528.9433884297521" cy="887.6570247933885" r="16.79980241548774"/>
    <circle cx="531.8744834710744" cy="882.5392561983472" r="15.985834686538618"/>
    <circle cx="534.9826446280991" cy="877.1280991735537" r="15.243405229355647"/>
    <circle cx="538.2678719008264" cy="871.4235537190083" r="14.587627766697322"/>
    <circle cx="541.7301652892562" cy="865.4256198347108" r="14.031852036597321"/>
    <circle cx="545.3695247933885" cy="859.1342975206612" r="13.58739203019563"/>
    <circle cx="549.1859504132232" cy="852.5495867768595" r="13.263295671505768"/>
    <circle cx="553.1794421487604" cy="845.6714876033058" r="13.066160627773936"/>
    <circle cx="557.35" cy="838.5" r="13"/>
    <circle cx="559.9292438271605" cy="834.033950617284" r="13.0418583209908"/>
    <circle cx="562.4614197530864" cy="829.5802469135803" r="13.167114716865711"/>
    <circle cx="564.9465277777779" cy="825.1388888888888" r="13.37481591082025"/>
    <circle cx="567.3845679012346" cy="820.7098765432098" r="13.663381171355008"/>
    <circle cx="569.7755401234568" cy="816.2932098765434" r="14.03061434259685"/>
    <circle cx="572.1194444444445" cy="811.8888888888889" r="14.473720558371173"/>
    <circle cx="574.4162808641976" cy="807.4969135802471" r="14.98932751282109"/>
    <circle cx="576.666049382716" cy="803.1172839506172" r="15.573511125691242"/>
    <circle cx="578.86875" cy="798.75" r="16.22182540694798"/>
    <circle cx="581.0243827160494" cy="794.3950617283949" r="16.929336293448067"/>
    <circle cx="583.1329475308642" cy="790.0524691358024" r="17.690659200138494"/>
    <circle cx="585.1944444444446" cy="785.7222222222223" r="18.5"/>
    <circle cx="587.2088734567901" cy="781.4043209876543" r="19.351199120852307"/>
    <circle cx="589.1762345679014" cy="777.0987654320988" r="20.237778423417645"/>
    <circle cx="591.0965277777777" cy="772.8055555555554" r="21.15299050387227"/>
    <circle cx="592.9697530864198" cy="768.5246913580247" r="22.089870045663766"/>
    <circle cx="594.7959104938273" cy="764.2561728395061" r="23.041286829775757"/>
    <circle cx="596.575" cy="760.0" r="24.0"/>
    <circle cx="598.3070216049383" cy="755.7561728395061" r="24.95871317022424"/>
    <circle cx="599.991975308642" cy="751.5246913580247" r="25.910129954336234"/>
    <circle cx="601.6298611111113" cy="747.3055555555557" r="26.84700949612773"/>
    <circle cx="603.2206790123457" cy="743.0987654320988" r="27.762221576582355"/>
    <circle cx="604.7644290123458" cy="738.9043209876544" r="28.648800879147693"/>
    <circle cx="606.2611111111112" cy="734.7222222222222" r="29.499999999999996"/>
    <circle cx="607.7107253086419" cy="730.5524691358024" r="30.309340799861506"/>
    <circle cx="609.1132716049383" cy="726.395061728395" r="31.070663706551933"/>
    <circle cx="610.46875" cy="722.25" r="31.77817459305202"/>
    <circle cx="611.7771604938272" cy="718.1172839506173" r="32.42648887430876"/>
    <circle cx="613.0385030864197" cy="713.9969135802469" r="33.01067248717891"/>
    <circle cx="614.2527777777779" cy="709.8888888888889" r="33.52627944162883"/>
    <circle cx="615.4199845679013" cy="705.7932098765432" r="33.96938565740315"/>
    <circle cx="616.5401234567902" cy="701.7098765432099" r="34.336618828644994"/>
    <circle cx="617.6131944444445" cy="697.6388888888889" r="34.625184089179754"/>
    <circle cx="618.6391975308643" cy="693.5802469135803" r="34.83288528313429"/>
    <circle cx="619.6181327160494" cy="689.533950617284" r="34.9581416790092"/>
    <circle cx="620.5500000000001" cy="685.5" r="35"/>
    <circle cx="621.4101577909271" cy="681.7689020381329" r="34.965951735409206"/>
    <circle cx="622.3137080867851" cy="678.0115055884286" r="34.86402775769808"/>
    <circle cx="623.2606508875741" cy="674.2278106508877" r="34.694889082973546"/>
    <circle cx="624.250986193294" cy="670.4178172255096" r="34.45963264044503"/>
    <circle cx="625.2847140039448" cy="666.5815253122945" r="34.15978415841766"/>
    <circle cx="626.3618343195267" cy="662.7189349112426" r="33.7972882693587"/>
    <circle cx="627.4823471400395" cy="658.8300460223537" r="33.374495898209844"/>
    <circle cx="628.6462524654834" cy="654.9148586456279" r="32.894149015736765"/>
    <circle cx="629.8535502958581" cy="650.973372781065" r="32.35936285579656"/>
    <circle cx="631.1042406311637" cy="647.0055884286653" r="31.773605711850795"/>
    <circle cx="632.3983234714005" cy="643.0115055884287" r="31.14067644375146"/>
    <circle cx="633.735798816568" cy="638.991124260355" r="30.464679840677135"/>
    <circle cx="635.1166666666668" cy="634.9444444444446" r="29.75"/>
    <circle cx="636.5409270216962" cy="630.8714661406968" r="29.00127189473207"/>
    <circle cx="638.0085798816569" cy="626.7721893491124" r="28.223351313946623"/>
    <circle cx="639.5196252465485" cy="622.646614069691" r="27.421283371122755"/>
    <circle cx="641.0740631163709" cy="618.4947403024327" r="26.600269784648468"/>
    <circle cx="642.6718934911244" cy="614.3165680473372" r="25.765635142680892"/>
    <circle cx="644.3131163708086" cy="610.1120973044049" r="24.92279237114886"/>
    <circle cx="645.9977317554242" cy="605.8813280736358" r="24.07720762885114"/>
    <circle cx="647.7257396449705" cy="601.6242603550296" r="23.234364857319108"/>
    <circle cx="649.4971400394478" cy="597.3408941485865" r="22.399730215351536"/>
    <circle cx="651.3119329388562" cy="593.0312294543064" r="21.57871662887725"/>
    <circle cx="653.1701183431953" cy="588.6952662721893" r="20.776648686053377"/>
    <circle cx="655.0716962524655" cy="584.3330046022354" r="19.99872810526793"/>
    <circle cx="657.0166666666669" cy="579.9444444444445" r="19.25"/>
    <circle cx="659.0050295857989" cy="575.5295857988166" r="18.535320159322865"/>
    <circle cx="661.0367850098621" cy="571.0884286653518" r="17.85932355624854"/>
    <circle cx="663.1119329388562" cy="566.6209730440501" r="17.226394288149205"/>
    <circle cx="665.2304733727813" cy="562.1272189349113" r="16.64063714420344"/>
    <circle cx="667.3924063116372" cy="557.6071663379355" r="16.105850984263242"/>
    <circle cx="669.5977317554241" cy="553.060815253123" r="15.625504101790156"/>
    <circle cx="671.8464497041421" cy="548.4881656804735" r="15.202711730641298"/>
    <circle cx="674.1385601577911" cy="543.8892176199869" r="14.840215841582346"/>
    <circle cx="676.4740631163709" cy="539.2639710716634" r="14.540367359554974"/>
    <circle cx="678.8529585798818" cy="534.612426035503" r="14.305110917026454"/>
    <circle cx="681.2752465483236" cy="529.9345825115056" r="14.135972242301918"/>
    <circle cx="683.7409270216964" cy="525.2304404996713" r="14.034048264590798"/>
    <circle cx="686.2500000000001" cy="520.5" r="14"/>
    <circle cx="689.0475510204083" cy="515.2485714285715" r="14.026167089030945"/>
    <circle cx="691.8002040816328" cy="510.06571428571425" r="14.104457674108907"/>
    <circle cx="694.5079591836735" cy="504.9514285714285" r="14.234241405476954"/>
    <circle cx="697.1708163265307" cy="499.9057142857143" r="14.414473340841708"/>
    <circle cx="699.7887755102042" cy="494.9285714285715" r="14.643702358634275"/>
    <circle cx="702.3618367346938" cy="490.0199999999999" r="14.92008284158787"/>
    <circle cx="704.8900000000002" cy="485.1800000000001" r="15.241389536562842"/>
    <circle cx="707.3732653061227" cy="480.40857142857146" r="15.605035470976528"/>
    <circle cx="709.8116326530613" cy="475.70571428571435" r="16.00809278158538"/>
    <circle cx="712.2051020408165" cy="471.07142857142856" r="16.44731628791823"/>
    <circle cx="714.5536734693878" cy="466.5057142857143" r="16.919169620561334"/>
    <circle cx="716.8573469387758" cy="462.00857142857143" r="17.41985369392551"/>
    <circle cx="719.1161224489797" cy="457.58" r="17.945337294249498"/>
    <circle cx="721.3300000000002" cy="453.22" r="18.491389536562842"/>
    <circle cx="723.4989795918368" cy="448.9285714285714" r="19.053613929283955"/>
    <circle cx="725.62306122449" cy="444.7057142857143" r="19.62748377218524"/>
    <circle cx="727.7022448979593" cy="440.5514285714286" r="20.208378602721652"/>
    <circle cx="729.7365306122451" cy="436.4657142857143" r="20.791621397278345"/>
    <circle cx="731.725918367347" cy="432.4485714285715" r="21.37251622781476"/>
    <circle cx="733.6704081632654" cy="428.5" r="21.946386070716045"/>
    <circle cx="735.5700000000002" cy="424.62" r="22.508610463437158"/>
    <circle cx="737.4246938775511" cy="420.80857142857144" r="23.054662705750502"/>
    <circle cx="739.2344897959185" cy="417.0657142857143" r="23.58014630607449"/>
    <circle cx="740.9993877551022" cy="413.3914285714286" r="24.080830379438666"/>
    <circle cx="742.7193877551022" cy="409.78571428571433" r="24.552683712081766"/>
    <circle cx="744.3944897959186" cy="406.24857142857144" r="24.99190721841462"/>
    <circle cx="746.0246938775512" cy="402.78" r="25.39496452902347"/>
    <circle cx="747.6100000000001" cy="399.38" r="25.758610463437158"/>
    <circle cx="749.1504081632654" cy="396.04857142857145" r="26.07991715841213"/>
    <circle cx="750.6459183673471" cy="392.7857142857143" r="26.356297641365725"/>
    <circle cx="752.096530612245" cy="389.5914285714286" r="26.58552665915829"/>
    <circle cx="753.5022448979594" cy="386.4657142857143" r="26.765758594523046"/>
    <circle cx="754.86306122449" cy="383.40857142857146" r="26.895542325891093"/>
    <circle cx="756.1789795918369" cy="380.42" r="26.973832910969055"/>
    <circle cx="757.4500000000002" cy="377.5" r="27"/>
    <circle cx="758.8031680440774" cy="374.41276400367315" r="26.986415767719254"/>
    <circle cx="760.2141873278239" cy="371.2722681359046" r="26.94578609178812"/>
    <circle cx="761.6830578512397" cy="368.0785123966942" r="26.87847892084349"/>
    <circle cx="763.2097796143253" cy="364.8314967860422" r="26.78510379904822"/>
    <circle cx="764.7943526170801" cy="361.5312213039486" r="26.66650634596477"/>
    <circle cx="766.4367768595042" cy="358.1776859504132" r="26.523760598493542"/>
    <circle cx="768.137052341598" cy="354.7708907254362" r="26.358159284228364"/>
    <circle cx="769.8951790633611" cy="351.31083562901745" r="26.17120211431521"/>
    <circle cx="771.7111570247936" cy="347.797520661157" r="25.964582201835857"/>
    <circle cx="773.5849862258956" cy="344.23094582185496" r="25.740170728713593"/>
    <circle cx="775.5166666666669" cy="340.61111111111114" r="25.5"/>
    <circle cx="777.5061983471076" cy="336.93801652892563" r="25.246245039005657"/>
    <circle cx="779.5535812672179" cy="333.2116620752985" r="24.981203889952265"/>
    <circle cx="781.6588154269974" cy="329.4320477502296" r="24.70727680652828"/>
    <circle cx="783.8219008264464" cy="325.59917355371897" r="24.426944514819855"/>
    <circle cx="786.0428374655648" cy="321.7130394857667" r="24.142745747471228"/>
    <circle cx="788.3216253443528" cy="317.7736455463728" r="23.857254252528772"/>
    <circle cx="790.65826446281" cy="313.7809917355372" r="23.573055485180145"/>
    <circle cx="793.0527548209368" cy="309.7350780532599" r="23.29272319347172"/>
    <circle cx="795.505096418733" cy="305.63590449954086" r="23.018796110047735"/>
    <circle cx="798.0152892561985" cy="301.4834710743802" r="22.753754960994343"/>
    <circle cx="800.5833333333335" cy="297.2777777777778" r="22.5"/>
    <circle cx="803.2092286501379" cy="293.01882460973366" r="22.259829271286407"/>
    <circle cx="805.8929752066117" cy="288.7066115702479" r="22.035417798164143"/>
    <circle cx="808.634573002755" cy="284.34113865932045" r="21.82879788568479"/>
    <circle cx="811.4340220385677" cy="279.9224058769513" r="21.641840715771636"/>
    <circle cx="814.2913223140498" cy="275.4504132231405" r="21.476239401506454"/>
    <circle cx="817.2064738292014" cy="270.925160697888" r="21.33349365403523"/>
    <circle cx="820.1794765840222" cy="266.34664830119374" r="21.214896200951785"/>
    <circle cx="823.2103305785125" cy="261.71487603305786" r="21.12152107915651"/>
    <circle cx="826.2990358126724" cy="257.02984389348023" r="21.054213908211878"/>
    <circle cx="829.4455922865016" cy="252.29155188246096" r="21.013584232280746"/>
    <circle cx="832.6500000000002" cy="247.5" r="21"/>
    <circle cx="837.393904958678" cy="240.42252066115702" r="21.0"/>
    <circle cx="841.9256198347108" cy="233.64462809917353" r="21.0"/>
    <circle cx="846.2451446280994" cy="227.16632231404958" r="21.0"/>
    <circle cx="850.3524793388431" cy="220.9876033057851" r="21.0"/>
    <circle cx="854.2476239669422" cy="215.1084710743802" r="21.0"/>
    <circle cx="857.930578512397" cy="209.52892561983472" r="21.0"/>
    <circle cx="861.401342975207" cy="204.2489669421488" r="21.0"/>
    <circle cx="864.659917355372" cy="199.26859504132233" r="21.0"/>
    <circle cx="867.7063016528928" cy="194.58780991735534" r="21.0"/>
    <circle cx="870.5404958677686" cy="190.2066115702479" r="21.0"/>
    <circle cx="873.1625000000001" cy="186.125" r="21.0"/>
    <circle cx="875.572314049587" cy="182.34297520661158" r="21.0"/>
    <circle cx="877.7699380165291" cy="178.86053719008265" r="21.0"/>
    <circle cx="879.7553719008266" cy="175.6776859504132" r="21.0"/>
    <circle cx="881.5286157024796" cy="172.7944214876033" r="21.0"/>
    <circle cx="883.0896694214878" cy="170.21074380165288" r="21.0"/>
    <circle cx="884.4385330578514" cy="167.92665289256198" r="21.0"/>
    <circle cx="885.5752066115704" cy="165.94214876033058" r="21.0"/>
    <circle cx="886.4996900826447" cy="164.25723140495867" r="21.0"/>
    <circle cx="887.2119834710745" cy="162.87190082644628" r="21.0"/>
    <circle cx="887.7120867768597" cy="161.7861570247934" r="21.0"/>
    <circle cx="888.0000000000001" cy="161.0" r="21"/>
    <circle cx="888.0848126232743" cy="160.76660092044708" r="21.01945615119474"/>
    <circle cx="888.1341222879685" cy="160.784352399737" r="21.077698424172524"/>
    <circle cx="888.147928994083" cy="161.05325443786984" r="21.174349095443688"/>
    <circle cx="888.1262327416174" cy="161.5733070348455" r="21.308781348317126"/>
    <circle cx="888.069033530572" cy="162.34451019066404" r="21.480123338047054"/>
    <circle cx="887.9763313609468" cy="163.36686390532543" r="21.68726384608074"/>
    <circle cx="887.8481262327416" cy="164.6403681788297" r="21.92885948673723"/>
    <circle cx="887.6844181459568" cy="166.16502301117686" r="22.203343419578992"/>
    <circle cx="887.4852071005918" cy="167.94082840236683" r="22.508935510973394"/>
    <circle cx="887.2504930966471" cy="169.96778435239975" r="22.843653878942405"/>
    <circle cx="886.9802761341223" cy="172.24589086127548" r="23.205327746427734"/>
    <circle cx="886.6745562130178" cy="174.77514792899407" r="23.591611519613064"/>
    <circle cx="886.3333333333335" cy="177.55555555555554" r="24.0"/>
    <circle cx="885.956607495069" cy="180.58711374095986" r="24.427844631581674"/>
    <circle cx="885.5443786982249" cy="183.86982248520712" r="24.872370677744787"/>
    <circle cx="885.0966469428008" cy="187.40368178829718" r="25.330695216501283"/>
    <circle cx="884.6134122287968" cy="191.1886916502301" r="25.79984583734373"/>
    <circle cx="884.0946745562131" cy="195.22485207100593" r="26.276779918468062"/>
    <circle cx="883.5404339250492" cy="199.51216305062457" r="26.75840435934351"/>
    <circle cx="882.9506903353058" cy="204.0506245890861" r="27.24159564065649"/>
    <circle cx="882.3254437869822" cy="208.84023668639054" r="27.723220081531938"/>
    <circle cx="881.664694280079" cy="213.8809993425378" r="28.200154162656265"/>
    <circle cx="880.9684418145957" cy="219.17291255752798" r="28.669304783498717"/>
    <circle cx="880.2366863905327" cy="224.71597633136096" r="29.127629322255213"/>
    <circle cx="879.4694280078895" cy="230.51019066403683" r="29.572155368418326"/>
    <circle cx="878.6666666666667" cy="236.55555555555554" r="30.0"/>
    <circle cx="877.8284023668639" cy="242.85207100591714" r="30.408388480386932"/>
    <circle cx="876.9546351084813" cy="249.39973701512162" r="30.794672253572262"/>
    <circle cx="876.0453648915188" cy="256.198553583169" r="31.156346121057595"/>
    <circle cx="875.1005917159763" cy="263.24852071005915" r="31.491064489026606"/>
    <circle cx="874.1203155818541" cy="270.5496383957922" r="31.796656580421004"/>
    <circle cx="873.1045364891518" cy="278.10190664036816" r="32.07114051326277"/>
    <circle cx="872.0532544378698" cy="285.905325443787" r="32.31273615391926"/>
    <circle cx="870.9664694280078" cy="293.9598948060487" r="32.51987666195295"/>
    <circle cx="869.844181459566" cy="302.2656147271532" r="32.691218651682874"/>
    <circle cx="868.6863905325445" cy="310.8224852071006" r="32.82565090455631"/>
    <circle cx="867.4930966469428" cy="319.6305062458909" r="32.922301575827476"/>
    <circle cx="866.2642998027613" cy="328.689677843524" r="32.980543848805254"/>
    <circle cx="865.0" cy="338.0" r="33"/>
    <circle cx="864.3905413444378" cy="342.4881023200476" r="32.995963995779455"/>
    <circle cx="863.7816775728731" cy="346.97679952409277" r="32.98386190651057"/>
    <circle cx="863.1734086853063" cy="351.4660916121356" r="32.96371149367821"/>
    <circle cx="862.5657346817371" cy="355.9559785841761" r="32.93554233079192"/>
    <circle cx="861.9586555621652" cy="360.44646044021414" r="32.8993957599827"/>
    <circle cx="861.3521713265914" cy="364.9375371802499" r="32.855324831327785"/>
    <circle cx="860.746281975015" cy="369.4292088042832" r="32.803394224992275"/>
    <circle cx="860.1409875074361" cy="373.92147531231416" r="32.74368015630212"/>
    <circle cx="859.5362879238548" cy="378.4143367043427" r="32.67627026388759"/>
    <circle cx="858.9321832242713" cy="382.90779298036887" r="32.60126348106152"/>
    <circle cx="858.3286734086853" cy="387.40184414039265" r="32.51876989062102"/>
    <circle cx="857.725758477097" cy="391.89649018441406" r="32.428910563285804"/>
    <circle cx="857.1234384295062" cy="396.39173111243304" r="32.331817380010186"/>
    <circle cx="856.5217132659131" cy="400.8875669244497" r="32.22763283842961"/>
    <circle cx="855.9205829863178" cy="405.3839976204641" r="32.11650984372572"/>
    <circle cx="855.3200475907198" cy="409.88102320047597" r="31.998611484216948"/>
    <circle cx="854.7201070791197" cy="414.3786436644855" r="31.874110792003847"/>
    <circle cx="854.120761451517" cy="418.8768590124926" r="31.743190489020687"/>
    <circle cx="853.522010707912" cy="423.3756692444974" r="31.606042718865794"/>
    <circle cx="852.9238548483046" cy="427.8750743604997" r="31.46286876480433"/>
    <circle cx="852.3262938726948" cy="432.3750743604997" r="31.31387875435733"/>
    <circle cx="851.7293277810827" cy="436.8756692444973" r="31.15929135091061"/>
    <circle cx="851.1329565734682" cy="441.3768590124926" r="30.999333432796078"/>
    <circle cx="850.5371802498513" cy="445.8786436644854" r="30.83423976031651"/>
    <circle cx="849.941998810232" cy="450.38102320047585" r="30.664252631202412"/>
    <circle cx="849.3474122546103" cy="454.8839976204639" r="30.489621525006715"/>
    <circle cx="848.7534205829862" cy="459.3875669244497" r="30.31060273695911"/>
    <circle cx="848.1600237953597" cy="463.89173111243304" r="30.127459001817446"/>
    <circle cx="847.5672218917312" cy="468.396490184414" r="29.94045910826828"/>
    <circle cx="846.9750148721" cy="472.9018441403926" r="29.74987750444237"/>
    <circle cx="846.3834027364665" cy="477.40779298036887" r="29.555993895124228"/>
    <circle cx="845.7923854848306" cy="481.91433670434265" r="29.359092831246766"/>
    <circle cx="845.2019631171921" cy="486.4214753123141" r="29.159463292273557"/>
    <circle cx="844.6121356335517" cy="490.92920880428323" r="28.95739826208164"/>
    <circle cx="844.0229030339085" cy="495.43753718024993" r="28.75319429896726"/>
    <circle cx="843.4342653182631" cy="499.9464604402142" r="28.547151100405678"/>
    <circle cx="842.8462224866151" cy="504.45597858417614" r="28.33957106320381"/>
    <circle cx="842.2587745389651" cy="508.9660916121357" r="28.130758839691204"/>
    <circle cx="841.6719214753124" cy="513.4767995240927" r="27.92102089060073"/>
    <circle cx="841.0856632956575" cy="517.9881023200476" r="27.710665035295193"/>
    <circle cx="840.5" cy="522.5" r="27.5"/>
    <circle cx="839.9149315883402" cy="527.01249256395" r="27.289334964704807"/>
    <circle cx="839.3304580606782" cy="531.5255800118977" r="27.078979109399274"/>
    <circle cx="838.7465794170137" cy="536.039262343843" r="26.869241160308796"/>
    <circle cx="838.1632956573468" cy="540.5535395597858" r="26.66042893679619"/>
    <circle cx="837.5806067816776" cy="545.0684116597264" r="26.452848899594322"/>
    <circle cx="836.998512790006" cy="549.5838786436644" r="26.246805701032745"/>
    <circle cx="836.4170136823319" cy="554.0999405116002" r="26.04260173791836"/>
    <circle cx="835.8361094586555" cy="558.6165972635335" r="25.840536707726443"/>
    <circle cx="835.2558001189768" cy="563.1338488994646" r="25.640907168753237"/>
    <circle cx="834.6760856632957" cy="567.6516954193933" r="25.444006104875772"/>
    <circle cx="834.0969660916121" cy="572.1701368233195" r="25.25012249555763"/>
    <circle cx="833.5184414039262" cy="576.6891731112432" r="25.05954089173172"/>
    <circle cx="832.940511600238" cy="581.2088042831649" r="24.87254099818255"/>
    <circle cx="832.3631766805472" cy="585.7290303390839" r="24.68939726304089"/>
    <circle cx="831.7864366448543" cy="590.2498512790006" r="24.510378474993285"/>
    <circle cx="831.2102914931588" cy="594.7712671029149" r="24.335747368797588"/>
    <circle cx="830.6347412254611" cy="599.2932778108269" r="24.165760239683493"/>
    <circle cx="830.0597858417609" cy="603.8158834027365" r="24.000666567203922"/>
    <circle cx="829.4854253420583" cy="608.3390838786437" r="23.840708649089393"/>
    <circle cx="828.9116597263535" cy="612.8628792385485" r="23.686121245642674"/>
    <circle cx="828.338488994646" cy="617.387269482451" r="23.537131235195673"/>
    <circle cx="827.7659131469363" cy="621.912254610351" r="23.393957281134206"/>
    <circle cx="827.1939321832242" cy="626.4378346222486" r="23.256809510979313"/>
    <circle cx="826.6225461035099" cy="630.9640095181439" r="23.125889207996153"/>
    <circle cx="826.0517549077929" cy="635.4907792980368" r="23.001388515783052"/>
    <circle cx="825.4815585960739" cy="640.0181439619274" r="22.883490156274274"/>
    <circle cx="824.9119571683523" cy="644.5461035098156" r="22.772367161570394"/>
    <circle cx="824.3429506246282" cy="649.0746579417014" r="22.668182619989818"/>
    <circle cx="823.7745389649018" cy="653.6038072575848" r="22.571089436714196"/>
    <circle cx="823.2067221891732" cy="658.1335514574658" r="22.481230109378977"/>
    <circle cx="822.639500297442" cy="662.6638905413445" r="22.398736518938478"/>
    <circle cx="822.0728732897086" cy="667.1948245092208" r="22.323729736112412"/>
    <circle cx="821.5068411659727" cy="671.7263533610947" r="22.25631984369788"/>
    <circle cx="820.9414039262344" cy="676.2584770969662" r="22.196605775007725"/>
    <circle cx="820.3765615704938" cy="680.7911957168352" r="22.144675168672215"/>
    <circle cx="819.8123140987507" cy="685.3245092207019" r="22.100604240017297"/>
    <circle cx="819.2486615110054" cy="689.8584176085664" r="22.064457669208082"/>
    <circle cx="818.6856038072576" cy="694.3929208804283" r="22.03628850632179"/>
    <circle cx="818.1231409875074" cy="698.9280190362879" r="22.016138093489428"/>
    <circle cx="817.5612730517549" cy="703.4637120761452" r="22.004036004220545"/>
    <circle cx="817.0" cy="708.0" r="22"/>
    <circle cx="815.9378042184965" cy="716.5548945375879" r="21.994664567327103"/>
    <circle cx="814.890751757707" cy="724.9172525689562" r="21.97868673615022"/>
    <circle cx="813.8588426176312" cy="733.0870740941048" r="21.952151755111853"/>
    <circle cx="812.8420767982694" cy="741.0643591130341" r="21.915201199816813"/>
    <circle cx="811.8404542996215" cy="748.8491076257436" r="21.868032217465096"/>
    <circle cx="810.8539751216873" cy="756.4413196322336" r="21.810896474986293"/>
    <circle cx="809.8826392644672" cy="763.840995132504" r="21.744098816287615"/>
    <circle cx="808.9264467279611" cy="771.0481341265549" r="21.667995635779757"/>
    <circle cx="807.9853975121688" cy="778.0627366143862" r="21.58299297685851"/>
    <circle cx="807.0594916170903" cy="784.8848025959978" r="21.489544365487564"/>
    <circle cx="806.1487290427258" cy="791.5143320713898" r="21.388148390441266"/>
    <circle cx="805.2531097890751" cy="797.9513250405624" r="21.279346043117783"/>
    <circle cx="804.3726338561385" cy="804.1957815035154" r="21.163717831115907"/>
    <circle cx="803.5073012439157" cy="810.2477014602489" r="21.04188068097586"/>
    <circle cx="802.6571119524068" cy="816.1070849107628" r="20.914484646609278"/>
    <circle cx="801.8220659816117" cy="821.7739318550568" r="20.782209440980314"/>
    <circle cx="801.0021633315305" cy="827.2482422931314" r="20.645760809542892"/>
    <circle cx="800.1974040021631" cy="832.5300162249864" r="20.505866764783363"/>
    <circle cx="799.40778799351" cy="837.6192536506219" r="20.363273701958875"/>
    <circle cx="798.6333153055707" cy="842.5159545700379" r="20.21874241675575"/>
    <circle cx="797.8739859383451" cy="847.2201189832341" r="20.073044046115317"/>
    <circle cx="797.1297998918335" cy="851.731746890211" r="19.926955953884683"/>
    <circle cx="796.4007571660356" cy="856.0508382909682" r="19.78125758324425"/>
    <circle cx="795.686857760952" cy="860.1773931855057" r="19.636726298041125"/>
    <circle cx="794.9881016765819" cy="864.1114115738236" r="19.494133235216637"/>
    <circle cx="794.3044889129259" cy="867.8528934559221" r="19.354239190457108"/>
    <circle cx="793.6360194699837" cy="871.4018388318009" r="19.21779055901969"/>
    <circle cx="792.9826933477555" cy="874.7582477014603" r="19.085515353390722"/>
    <circle cx="792.3445105462413" cy="877.9221200648999" r="18.95811931902414"/>
    <circle cx="791.7214710654408" cy="880.8934559221201" r="18.836282168884097"/>
    <circle cx="791.1135749053542" cy="883.6722552731205" r="18.720653956882217"/>
    <circle cx="790.5208220659815" cy="886.2585181179015" r="18.611851609558734"/>
    <circle cx="789.9432125473229" cy="888.6522444564629" r="18.510455634512436"/>
    <circle cx="789.380746349378" cy="890.8534342888047" r="18.417007023141494"/>
    <circle cx="788.8334234721472" cy="892.8620876149271" r="18.332004364220246"/>
    <circle cx="788.30124391563" cy="894.6782044348297" r="18.255901183712385"/>
    <circle cx="787.784207679827" cy="896.3017847485127" r="18.189103525013707"/>
    <circle cx="787.2823147647376" cy="897.7328285559762" r="18.131967782534904"/>
    <circle cx="786.7955651703624" cy="898.9713358572202" r="18.084798800183187"/>
    <circle cx="786.3239588967009" cy="900.0173066522444" r="18.047848244888147"/>
    <circle cx="785.8674959437534" cy="900.8707409410492" r="18.02131326384978"/>
    <circle cx="785.4261763115197" cy="901.5316387236344" r="18.005335432672897"/>
    <circle cx="785.0" cy="902.0" r="18"/>
    <circle cx="784.8142110020661" cy="902.1306172520661" r="18.0"/>
    <circle cx="784.6659349173553" cy="902.1588326446281" r="18.0"/>
    <circle cx="784.5551717458678" cy="902.084646177686" r="18.0"/>
    <circle cx="784.4819214876035" cy="901.9080578512398" r="18.0"/>
    <circle cx="784.4461841425621" cy="901.6290676652894" r="18.0"/>
    <circle cx="784.4479597107439" cy="901.2476756198347" r="18.0"/>
    <circle cx="784.4872481921487" cy="900.763881714876" r="18.0"/>
    <circle cx="784.5640495867768" cy="900.1776859504132" r="18.0"/>
    <circle cx="784.6783638946281" cy="899.4890883264463" r="18.0"/>
    <circle cx="784.8301911157025" cy="898.6980888429752" r="18.0"/>
    <circle cx="785.01953125" cy="897.8046875" r="18.0"/>
    <circle cx="785.2463842975206" cy="896.8088842975206" r="18.0"/>
    <circle cx="785.5107502582646" cy="895.7106792355372" r="18.0"/>
    <circle cx="785.8126291322316" cy="894.5100723140496" r="18.0"/>
    <circle cx="786.1520209194216" cy="893.207063533058" r="18.0"/>
    <circle cx="786.5289256198347" cy="891.801652892562" r="18.0"/>
    <circle cx="786.9433432334712" cy="890.2938403925622" r="18.0"/>
    <circle cx="787.3952737603306" cy="888.6836260330579" r="18.0"/>
    <circle cx="787.8847172004132" cy="886.9710098140497" r="18.0"/>
    <circle cx="788.4116735537189" cy="885.1559917355371" r="18.0"/>
    <circle cx="788.9761428202479" cy="883.2385717975208" r="18.0"/>
    <circle cx="789.578125" cy="881.21875" r="18.0"/>
    <circle cx="790.2176200929752" cy="879.0965263429752" r="18.0"/>
    <circle cx="790.8946280991736" cy="876.8719008264462" r="18.0"/>
    <circle cx="791.609149018595" cy="874.5448734504131" r="18.0"/>
    <circle cx="792.3611828512396" cy="872.1154442148761" r="18.0"/>
    <circle cx="793.1507295971073" cy="869.5836131198345" r="18.0"/>
    <circle cx="793.9777892561984" cy="866.9493801652893" r="18.0"/>
    <circle cx="794.8423618285123" cy="864.2127453512395" r="18.0"/>
    <circle cx="795.7444473140497" cy="861.3737086776862" r="18.0"/>
    <circle cx="796.6840457128098" cy="858.4322701446281" r="18.0"/>
    <circle cx="797.6611570247933" cy="855.3884297520661" r="18.0"/>
    <circle cx="798.67578125" cy="852.2421875" r="18.0"/>
    <circle cx="799.7279183884298" cy="848.9935433884298" r="18.0"/>
    <circle cx="800.8175684400826" cy="845.6424974173555" r="18.0"/>
    <circle cx="801.9447314049585" cy="842.1890495867768" r="18.0"/>
    <circle cx="803.1094072830579" cy="838.6331998966944" r="18.0"/>
    <circle cx="804.31159607438" cy="834.9749483471073" r="18.0"/>
    <circle cx="805.5512977789257" cy="831.2142949380167" r="18.0"/>
    <circle cx="806.8285123966941" cy="827.3512396694214" r="18.0"/>
    <circle cx="808.143239927686" cy="823.3857825413223" r="18.0"/>
    <circle cx="809.4954803719007" cy="819.317923553719" r="18.0"/>
    <circle cx="810.8852337293388" cy="815.1476627066115" r="18.0"/>
    <circle cx="812.3125" cy="810.875" r="18.0"/>
    <circle cx="813.7772791838843" cy="806.4999354338843" r="18.0"/>
    <circle cx="815.2795712809916" cy="802.0224690082644" r="18.0"/>
    <circle cx="816.8193762913224" cy="797.4426007231406" r="18.0"/>
    <circle cx="818.396694214876" cy="792.7603305785124" r="18.0"/>
    <circle cx="820.0115250516528" cy="787.9756585743802" r="18.0"/>
    <circle cx="821.6638688016529" cy="783.0885847107438" r="18.0"/>
    <circle cx="823.3537254648761" cy="778.0991089876034" r="18.0"/>
    <circle cx="825.0810950413224" cy="773.0072314049587" r="18.0"/>
    <circle cx="826.8459775309917" cy="767.8129519628098" r="18.0"/>
    <circle cx="828.6483729338843" cy="762.516270661157" r="18.0"/>
    <circle cx="830.48828125" cy="757.1171875" r="18.0"/>
    <circle cx="832.3657024793388" cy="751.6157024793389" r="18.0"/>
    <circle cx="834.2806366219008" cy="746.0118155991736" r="18.0"/>
    <circle cx="836.233083677686" cy="740.3055268595042" r="18.0"/>
    <circle cx="838.2230436466942" cy="734.4968362603306" r="18.0"/>
    <circle cx="840.2505165289256" cy="728.5857438016529" r="18.0"/>
    <circle cx="842.3155023243802" cy="722.5722494834711" r="18.0"/>
    <circle cx="844.4180010330579" cy="716.4563533057851" r="18.0"/>
    <circle cx="846.5580126549587" cy="710.2380552685951" r="18.0"/>
    <circle cx="848.7355371900826" cy="703.9173553719008" r="18.0"/>
    <circle cx="850.9505746384297" cy="697.4942536157024" r="18.0"/>
    <circle cx="853.203125" cy="690.96875" r="18.0"/>
    <circle cx="855.4931882747933" cy="684.3408445247935" r="18.0"/>
    <circle cx="857.8207644628098" cy="677.6105371900826" r="18.0"/>
    <circle cx="860.1858535640497" cy="670.7778279958678" r="18.0"/>
    <circle cx="862.5884555785125" cy="663.8427169421489" r="18.0"/>
    <circle cx="865.0285705061983" cy="656.8052040289256" r="18.0"/>
    <circle cx="867.5061983471076" cy="649.6652892561983" r="18.0"/>
    <circle cx="870.0213391012398" cy="642.4229726239669" r="18.0"/>
    <circle cx="872.5739927685951" cy="635.0782541322315" r="18.0"/>
    <circle cx="875.1641593491736" cy="627.6311337809917" r="18.0"/>
    <circle cx="877.7918388429752" cy="620.0816115702479" r="18.0"/>
    <circle cx="880.45703125" cy="612.4296875" r="18.0"/>
    <circle cx="883.159736570248" cy="604.675361570248" r="18.0"/>
    <circle cx="885.8999548037191" cy="596.8186337809917" r="18.0"/>
    <circle cx="888.6776859504132" cy="588.8595041322315" r="18.0"/>
    <circle cx="891.4929300103306" cy="580.797972623967" r="18.0"/>
    <circle cx="894.3456869834711" cy="572.6340392561983" r="18.0"/>
    <circle cx="897.2359568698348" cy="564.3677040289256" r="18.0"/>
    <circle cx="900.1637396694215" cy="555.9989669421487" r="18.0"/>
    <circle cx="903.1290353822313" cy="547.5278279958677" r="18.0"/>
    <circle cx="906.1318440082645" cy="538.9542871900826" r="18.0"/>
    <circle cx="909.1721655475206" cy="530.2783445247934" r="18.0"/>
    <circle cx="912.25" cy="521.5" r="18"/>
    <circle cx="915.2613888888891" cy="512.914938271605" r="17.99878165403819"/>
    <circle cx="918.24" cy="504.4264197530864" r="17.995128100519647"/>
    <circle cx="921.1858333333332" cy="496.03444444444443" r="17.989043790736545"/>
    <circle cx="924.098888888889" cy="487.73901234567904" r="17.980536137483142"/>
    <circle cx="926.9791666666665" cy="479.5401234567901" r="17.969615506024414"/>
    <circle cx="929.8266666666667" cy="471.43777777777785" r="17.95629520146761"/>
    <circle cx="932.6413888888891" cy="463.43197530864205" r="17.940591452551992"/>
    <circle cx="935.4233333333333" cy="455.5227160493827" r="17.922523391876638"/>
    <circle cx="938.1725" cy="447.71000000000004" r="17.902113032590307"/>
    <circle cx="940.8888888888888" cy="439.9938271604938" r="17.879385241571818"/>
    <circle cx="943.5725" cy="432.3741975308642" r="17.854367709133577"/>
    <circle cx="946.2233333333334" cy="424.8511111111112" r="17.8270909152852"/>
    <circle cx="948.8413888888891" cy="417.42456790123464" r="17.797588092598335"/>
    <circle cx="951.4266666666667" cy="410.09456790123454" r="17.765895185717852"/>
    <circle cx="953.9791666666667" cy="402.8611111111112" r="17.73205080756888"/>
    <circle cx="956.4988888888888" cy="395.72419753086416" r="17.69609619231285"/>
    <circle cx="958.9858333333333" cy="388.6838271604938" r="17.658075145110082"/>
    <circle cx="961.4400000000002" cy="381.74000000000007" r="17.618033988749893"/>
    <circle cx="963.8613888888889" cy="374.89271604938267" r="17.576021507213444"/>
    <circle cx="966.25" cy="368.141975308642" r="17.532088886237958"/>
    <circle cx="968.6058333333333" cy="361.48777777777775" r="17.486289650954788"/>
    <circle cx="970.9288888888889" cy="354.93012345679006" r="17.438679600677304"/>
    <circle cx="973.2191666666666" cy="348.469012345679" r="17.389316740917995"/>
    <circle cx="975.4766666666668" cy="342.10444444444454" r="17.33826121271772"/>
    <circle cx="977.7013888888889" cy="335.83641975308643" r="17.28557521937308"/>
    <circle cx="979.8933333333333" cy="329.6649382716049" r="17.231322950651318"/>
    <circle cx="982.0524999999999" cy="323.59" r="17.175570504584947"/>
    <circle cx="984.1788888888889" cy="317.6116049382716" r="17.118385806941493"/>
    <circle cx="986.2725000000002" cy="311.7297530864198" r="17.05983852846641"/>
    <circle cx="988.3333333333335" cy="305.94444444444446" r="17.0"/>
    <circle cx="990.3613888888888" cy="300.2556790123457" r="16.938943125571782"/>
    <circle cx="992.3566666666666" cy="294.6634567901234" r="16.876742293578154"/>
    <circle cx="994.3191666666665" cy="289.16777777777776" r="16.813473286151602"/>
    <circle cx="996.2488888888889" cy="283.76864197530864" r="16.749213186831824"/>
    <circle cx="998.1458333333334" cy="278.46604938271605" r="16.68404028665134"/>
    <circle cx="1000.01" cy="273.26" r="16.618033988749893"/>
    <circle cx="1001.841388888889" cy="268.1504938271605" r="16.551274711633997"/>
    <circle cx="1003.6399999999999" cy="263.13753086419746" r="16.483843791199334"/>
    <circle cx="1005.4058333333332" cy="258.2211111111111" r="16.41582338163552"/>
    <circle cx="1007.1388888888888" cy="253.40123456790127" r="16.34729635533386"/>
    <circle cx="1008.8391666666669" cy="248.67790123456797" r="16.27834620192013"/>
    <circle cx="1010.5066666666667" cy="244.0511111111111" r="16.209056926535307"/>
    <circle cx="1012.1413888888889" cy="239.52086419753084" r="16.13951294748825"/>
    <circle cx="1013.7433333333331" cy="235.08716049382713" r="16.069798993405"/>
    <circle cx="1015.3125" cy="230.75" r="16.0"/>
    <circle cx="1016.8488888888887" cy="226.50938271604937" r="15.930201006594999"/>
    <circle cx="1018.3525" cy="222.3653086419753" r="15.860487052511749"/>
    <circle cx="1019.8233333333333" cy="218.3177777777778" r="15.790943073464693"/>
    <circle cx="1021.2613888888889" cy="214.36679012345678" r="15.72165379807987"/>
    <circle cx="1022.6666666666667" cy="210.51234567901233" r="15.65270364466614"/>
    <circle cx="1024.0391666666665" cy="206.75444444444446" r="15.58417661836448"/>
    <circle cx="1025.378888888889" cy="203.0930864197531" r="15.516156208800664"/>
    <circle cx="1026.6858333333334" cy="199.52827160493825" r="15.448725288366003"/>
    <circle cx="1027.96" cy="196.06" r="15.381966011250105"/>
    <circle cx="1029.201388888889" cy="192.68827160493828" r="15.315959713348663"/>
    <circle cx="1030.41" cy="189.41308641975309" r="15.250786813168176"/>
    <circle cx="1031.5858333333333" cy="186.23444444444448" r="15.1865267138484"/>
    <circle cx="1032.7288888888888" cy="183.15234567901234" r="15.123257706421846"/>
    <circle cx="1033.8391666666666" cy="180.1667901234568" r="15.06105687442822"/>
    <circle cx="1034.9166666666667" cy="177.2777777777778" r="15.0"/>
    <circle cx="1035.961388888889" cy="174.48530864197528" r="14.94016147153359"/>
    <circle cx="1036.9733333333334" cy="171.78938271604937" r="14.881614193058507"/>
    <circle cx="1037.9524999999999" cy="169.19" r="14.824429495415053"/>
    <circle cx="1038.898888888889" cy="166.68716049382715" r="14.768677049348684"/>
    <circle cx="1039.8125" cy="164.2808641975309" r="14.71442478062692"/>
    <circle cx="1040.6933333333334" cy="161.97111111111113" r="14.661738787282285"/>
    <circle cx="1041.5413888888888" cy="159.7579012345679" r="14.610683259082005"/>
    <circle cx="1042.3566666666666" cy="157.64123456790122" r="14.561320399322698"/>
    <circle cx="1043.1391666666668" cy="155.6211111111111" r="14.513710349045212"/>
    <circle cx="1043.8888888888887" cy="153.69753086419752" r="14.467911113762044"/>
    <circle cx="1044.6058333333333" cy="151.8704938271605" r="14.423978492786556"/>
    <circle cx="1045.29" cy="150.14" r="14.381966011250105"/>
    <circle cx="1045.941388888889" cy="148.50604938271604" r="14.341924854889918"/>
    <circle cx="1046.56" cy="146.96864197530863" r="14.30390380768715"/>
    <circle cx="1047.1458333333335" cy="145.52777777777777" r="14.267949192431121"/>
    <circle cx="1047.6988888888889" cy="144.18345679012344" r="14.234104814282146"/>
    <circle cx="1048.2191666666668" cy="142.9356790123457" r="14.202411907401666"/>
    <circle cx="1048.7066666666667" cy="141.78444444444443" r="14.172909084714798"/>
    <circle cx="1049.161388888889" cy="140.72975308641975" r="14.145632290866425"/>
    <circle cx="1049.5833333333335" cy="139.77160493827162" r="14.120614758428182"/>
    <circle cx="1049.9724999999999" cy="138.91" r="14.097886967409693"/>
    <circle cx="1050.328888888889" cy="138.14493827160493" r="14.077476608123362"/>
    <circle cx="1050.6525" cy="137.47641975308642" r="14.059408547448008"/>
    <circle cx="1050.9433333333334" cy="136.90444444444444" r="14.043704798532389"/>
    <circle cx="1051.201388888889" cy="136.429012345679" r="14.030384493975584"/>
    <circle cx="1051.4266666666665" cy="136.05012345679012" r="14.01946386251686"/>
    <circle cx="1051.6191666666666" cy="135.76777777777778" r="14.010956209263453"/>
    <circle cx="1051.7788888888888" cy="135.58197530864197" r="14.004871899480351"/>
    <circle cx="1051.9058333333335" cy="135.49271604938272" r="14.001218345961808"/>
    <circle cx="1052.0" cy="135.5" r="14"/>
    <circle cx="1052.1029948867788" cy="135.62801314828343" r="13.998197932409363"/>
    <circle cx="1052.2227903579255" cy="135.87691745799856" r="13.992794977085053"/>
    <circle cx="1052.3593864134405" cy="136.24671292914536" r="13.983800870517754"/>
    <circle cx="1052.5127830533236" cy="136.7373995617239" r="13.971231820695417"/>
    <circle cx="1052.6829802775749" cy="137.34897735573412" r="13.955110477895373"/>
    <circle cx="1052.8699780861941" cy="138.08144631117602" r="13.935465893866997"/>
    <circle cx="1053.0737764791818" cy="138.93480642804965" r="13.912333469478503"/>
    <circle cx="1053.2943754565376" cy="139.90905770635501" r="13.885754890922168"/>
    <circle cx="1053.5317750182617" cy="141.00420014609205" r="13.855778054593019"/>
    <circle cx="1053.7859751643537" cy="142.2202337472608" r="13.822456980776272"/>
    <circle cx="1054.0569758948138" cy="143.5571585098612" r="13.785851716299137"/>
    <circle cx="1054.344777209642" cy="145.01497443389337" r="13.746028226322377"/>
    <circle cx="1054.6493791088385" cy="146.59368151935718" r="13.703058275466622"/>
    <circle cx="1054.970781592403" cy="148.2932797662527" r="13.657019298487684"/>
    <circle cx="1055.308984660336" cy="150.11376917458" r="13.60799426073388"/>
    <circle cx="1055.663988312637" cy="152.05514974433893" r="13.55607150863688"/>
    <circle cx="1056.035792549306" cy="154.1174214755296" r="13.501344610505448"/>
    <circle cx="1056.4243973703435" cy="156.30058436815193" r="13.44391218790905"/>
    <circle cx="1056.8298027757487" cy="158.60463842220597" r="13.383877737955093"/>
    <circle cx="1057.2520087655223" cy="161.02958363769176" r="13.321349446780163"/>
    <circle cx="1057.691015339664" cy="163.57542001460922" r="13.256439994591284"/>
    <circle cx="1058.1468224981736" cy="166.24214755295836" r="13.189266352608573"/>
    <circle cx="1058.619430241052" cy="169.02976625273925" r="13.11994957227519"/>
    <circle cx="1059.1088385682979" cy="171.9382761139518" r="13.048614567114463"/>
    <circle cx="1059.6150474799124" cy="174.96767713659605" r="12.97538988762727"/>
    <circle cx="1060.1380569758949" cy="178.11796932067205" r="12.900407489635347"/>
    <circle cx="1060.6778670562453" cy="181.38915266617965" r="12.823802496487986"/>
    <circle cx="1061.2344777209642" cy="184.78122717311908" r="12.745712955560617"/>
    <circle cx="1061.8078889700512" cy="188.29419284149014" r="12.666279589484116"/>
    <circle cx="1062.398100803506" cy="191.9280496712929" r="12.5856455425531"/>
    <circle cx="1063.0051132213296" cy="195.6827976625274" r="12.50395612277025"/>
    <circle cx="1063.628926223521" cy="199.5584368151936" r="12.421358539991452"/>
    <circle cx="1064.2695398100802" cy="203.55496712929147" r="12.338001640643698"/>
    <circle cx="1064.9269539810082" cy="207.67238860482104" r="12.254035639493758"/>
    <circle cx="1065.6011687363039" cy="211.9107012417823" r="12.169611848951018"/>
    <circle cx="1066.292184075968" cy="216.26990504017533" r="12.084882406392296"/>
    <circle cx="1067.0" cy="220.75" r="12.0"/>
    <circle cx="1067.7246165084002" cy="225.35098612125637" r="11.915117593607704"/>
    <circle cx="1068.4660336011689" cy="230.07286340394444" r="11.830388151048982"/>
    <circle cx="1069.2242512783052" cy="234.91563184806427" r="11.745964360506242"/>
    <circle cx="1069.99926953981" cy="239.8792914536158" r="11.661998359356302"/>
    <circle cx="1070.791088385683" cy="244.963842220599" r="11.578641460008548"/>
    <circle cx="1071.599707815924" cy="250.1692841490139" r="11.49604387722975"/>
    <circle cx="1072.4251278305333" cy="255.49561723886052" r="11.4143544574469"/>
    <circle cx="1073.2673484295105" cy="260.9428414901388" r="11.333720410515884"/>
    <circle cx="1074.126369612856" cy="266.51095690284876" r="11.254287044439383"/>
    <circle cx="1075.0021913805697" cy="272.19996347699043" r="11.176197503512014"/>
    <circle cx="1075.8948137326515" cy="278.0098612125639" r="11.099592510364653"/>
    <circle cx="1076.8042366691016" cy="283.94065010956905" r="11.02461011237273"/>
    <circle cx="1077.7304601899195" cy="289.9923301680058" r="10.951385432885537"/>
    <circle cx="1078.673484295106" cy="296.16490138787435" r="10.88005042772481"/>
    <circle cx="1079.6333089846603" cy="302.4583637691746" r="10.810733647391427"/>
    <circle cx="1080.609934258583" cy="308.8727173119065" r="10.743560005408716"/>
    <circle cx="1081.6033601168738" cy="315.40796201607014" r="10.678650553219837"/>
    <circle cx="1082.6135865595325" cy="322.06409788166536" r="10.616122262044907"/>
    <circle cx="1083.6406135865595" cy="328.84112490869245" r="10.55608781209095"/>
    <circle cx="1084.6844411979546" cy="335.73904309715124" r="10.498655389494552"/>
    <circle cx="1085.745069393718" cy="342.75785244704167" r="10.44392849136312"/>
    <circle cx="1086.8224981738497" cy="349.8975529583638" r="10.39200573926612"/>
    <circle cx="1087.9167275383493" cy="357.1581446311176" r="10.342980701512316"/>
    <circle cx="1089.0277574872168" cy="364.53962746530317" r="10.296941724533378"/>
    <circle cx="1090.1555880204528" cy="372.04200146092035" r="10.253971773677623"/>
    <circle cx="1091.300219138057" cy="379.66526661796934" r="10.214148283700863"/>
    <circle cx="1092.4616508400293" cy="387.40942293644997" r="10.177543019223728"/>
    <circle cx="1093.6398831263696" cy="395.2744704163623" r="10.144221945406981"/>
    <circle cx="1094.8349159970783" cy="403.26040905770634" r="10.114245109077832"/>
    <circle cx="1096.046749452155" cy="411.3672388604821" r="10.0876665305215"/>
    <circle cx="1097.2753834915998" cy="419.59495982468957" r="10.064534106133003"/>
    <circle cx="1098.5208181154128" cy="427.9435719503287" r="10.044889522104627"/>
    <circle cx="1099.7830533235938" cy="436.4130752373996" r="10.028768179304583"/>
    <circle cx="1101.0620891161432" cy="445.0034696859021" r="10.016199129482246"/>
    <circle cx="1102.3579254930607" cy="453.7147552958364" r="10.007205022914947"/>
    <circle cx="1103.6705624543463" cy="462.54693206720236" r="10.001802067590637"/>
    <circle cx="1105.0" cy="471.5" r="10"/>
    <circle cx="1106.330898466034" cy="480.45270270270277" r="10.00630723656723"/>
    <circle cx="1107.6479181884588" cy="489.28378378378386" r="10.025217580202314"/>
    <circle cx="1108.9510591672754" cy="497.9932432432432" r="10.056696953187862"/>
    <circle cx="1110.2403214024837" cy="506.5810810810811" r="10.10068862756604"/>
    <circle cx="1111.5157048940835" cy="515.0472972972973" r="10.157113327366197"/>
    <circle cx="1112.7772096420742" cy="523.3918918918918" r="10.225869371465508"/>
    <circle cx="1114.0248356464572" cy="531.6148648648648" r="10.306832856825244"/>
    <circle cx="1115.2585829072316" cy="539.7162162162163" r="10.39985788177241"/>
    <circle cx="1116.4784514243975" cy="547.695945945946" r="10.504776808924435"/>
    <circle cx="1117.6844411979548" cy="555.5540540540542" r="10.62140056728305"/>
    <circle cx="1118.8765522279034" cy="563.2905405405405" r="10.749518992953021"/>
    <circle cx="1120.0547845142441" cy="570.9054054054054" r="10.888901207871683"/>
    <circle cx="1121.219138056976" cy="578.3986486486488" r="11.03929603586682"/>
    <circle cx="1122.3696128560991" cy="585.7702702702702" r="11.200432455293104"/>
    <circle cx="1123.5062089116143" cy="593.0202702702702" r="11.372020087431416"/>
    <circle cx="1124.628926223521" cy="600.1486486486486" r="11.553749719770924"/>
    <circle cx="1125.737764791819" cy="607.1554054054055" r="11.74529386323093"/>
    <circle cx="1126.8327246165084" cy="614.0405405405406" r="11.94630734231833"/>
    <circle cx="1127.9138056975894" cy="620.804054054054" r="12.156427917157176"/>
    <circle cx="1128.9810080350621" cy="627.4459459459459" r="12.37527693626943"/>
    <circle cx="1130.034331628926" cy="633.9662162162161" r="12.602460018930504"/>
    <circle cx="1131.0737764791816" cy="640.3648648648648" r="12.837567765869993"/>
    <circle cx="1132.0993425858292" cy="646.641891891892" r="13.080176497036831"/>
    <circle cx="1133.1110299488678" cy="652.7972972972973" r="13.329849015099379"/>
    <circle cx="1134.108838568298" cy="658.8310810810812" r="13.586135393304557"/>
    <circle cx="1135.0927684441199" cy="664.7432432432433" r="13.848573786276287"/>
    <circle cx="1136.062819576333" cy="670.5337837837837" r="14.11669126229205"/>
    <circle cx="1137.0189919649379" cy="676.2027027027027" r="14.39000465553784"/>
    <circle cx="1137.9612856099343" cy="681.75" r="14.668021436805596"/>
    <circle cx="1138.889700511322" cy="687.1756756756756" r="14.950240601064147"/>
    <circle cx="1139.8042366691018" cy="692.4797297297297" r="15.236153570304124"/>
    <circle cx="1140.7048940832724" cy="697.6621621621622" r="15.525245110029918"/>
    <circle cx="1141.591672753835" cy="702.7229729729729" r="15.816994257747057"/>
    <circle cx="1142.464572680789" cy="707.6621621621623" r="16.11087526177185"/>
    <circle cx="1143.3235938641342" cy="712.4797297297297" r="16.406358528671433"/>
    <circle cx="1144.1687363038714" cy="717.1756756756756" r="16.702911577626963"/>
    <circle cx="1145.0" cy="721.75" r="17.0"/>
    <circle cx="1145.8173849525201" cy="726.2027027027027" r="17.297088422373037"/>
    <circle cx="1146.6208911614317" cy="730.5337837837837" r="17.59364147132856"/>
    <circle cx="1147.4105186267348" cy="734.7432432432433" r="17.88912473822815"/>
    <circle cx="1148.1862673484295" cy="738.831081081081" r="18.183005742252945"/>
    <circle cx="1148.9481373265157" cy="742.7972972972973" r="18.474754889970082"/>
    <circle cx="1149.6961285609934" cy="746.6418918918919" r="18.763846429695874"/>
    <circle cx="1150.4302410518628" cy="750.3648648648649" r="19.04975939893585"/>
    <circle cx="1151.1504747991235" cy="753.9662162162163" r="19.331978563194404"/>
    <circle cx="1151.8568298027758" cy="757.4459459459459" r="19.60999534446216"/>
    <circle cx="1152.5493060628196" cy="760.8040540540541" r="19.88330873770795"/>
    <circle cx="1153.2279035792549" cy="764.0405405405406" r="20.151426213723713"/>
    <circle cx="1153.8926223520818" cy="767.1554054054054" r="20.41386460669544"/>
    <circle cx="1154.5434623813003" cy="770.1486486486485" r="20.670150984900623"/>
    <circle cx="1155.1804236669102" cy="773.0202702702702" r="20.91982350296317"/>
    <circle cx="1155.8035062089116" cy="775.7702702702702" r="21.16243223413001"/>
    <circle cx="1156.4127100073047" cy="778.3986486486486" r="21.397539981069496"/>
    <circle cx="1157.0080350620892" cy="780.9054054054054" r="21.62472306373057"/>
    <circle cx="1157.589481373265" cy="783.2905405405404" r="21.843572082842822"/>
    <circle cx="1158.1570489408327" cy="785.554054054054" r="22.053692657681673"/>
    <circle cx="1158.7107377647917" cy="787.6959459459459" r="22.25470613676907"/>
    <circle cx="1159.2505478451424" cy="789.7162162162163" r="22.446250280229073"/>
    <circle cx="1159.7764791818847" cy="791.6148648648648" r="22.627979912568584"/>
    <circle cx="1160.2885317750183" cy="793.3918918918919" r="22.799567544706896"/>
    <circle cx="1160.7867056245434" cy="795.0472972972973" r="22.960703964133177"/>
    <circle cx="1161.2710007304602" cy="796.581081081081" r="23.111098792128317"/>
    <circle cx="1161.7414170927684" cy="797.9932432432433" r="23.25048100704698"/>
    <circle cx="1162.1979547114684" cy="799.2837837837839" r="23.37859943271695"/>
    <circle cx="1162.6406135865595" cy="800.4527027027027" r="23.495223191075567"/>
    <circle cx="1163.0693937180424" cy="801.5" r="23.600142118227588"/>
    <circle cx="1163.4842951059168" cy="802.4256756756756" r="23.693167143174755"/>
    <circle cx="1163.8853177501826" cy="803.2297297297297" r="23.774130628534493"/>
    <circle cx="1164.2724616508401" cy="803.9121621621621" r="23.842886672633803"/>
    <circle cx="1164.6457268078889" cy="804.4729729729729" r="23.89931137243396"/>
    <circle cx="1165.0051132213296" cy="804.9121621621622" r="23.943303046812137"/>
    <circle cx="1165.3506208911615" cy="805.2297297297297" r="23.974782419797684"/>
    <circle cx="1165.6822498173851" cy="805.4256756756757" r="23.99369276343277"/>
    <circle cx="1166.0" cy="805.5" r="24"/>
    <circle cx="1172.5104166666667" cy="804.4930555555557" r="23.5"/>
    <circle cx="1176.7083333333335" cy="800.8055555555555" r="22.5"/>
    <circle cx="1178.59375" cy="794.4375" r="22"/>
    <circle cx="1178.9124483471073" cy="792.1286157024792" r="22.243042158313017"/>
    <circle cx="1179.4708161157023" cy="789.4065082644627" r="22.952478803012912"/>
    <circle cx="1180.268853305785" cy="786.2711776859504" r="24.07083559632829"/>
    <circle cx="1181.3065599173553" cy="782.7226239669423" r="25.50750992198868"/>
    <circle cx="1182.5839359504132" cy="778.7608471074378" r="27.14611097036029"/>
    <circle cx="1184.1009814049585" cy="774.3858471074379" r="28.85388902963971"/>
    <circle cx="1185.8576962809918" cy="769.5976239669421" r="30.49249007801132"/>
    <circle cx="1187.8540805785124" cy="764.3961776859504" r="31.929164403671713"/>
    <circle cx="1190.0901342975208" cy="758.7815082644629" r="33.04752119698709"/>
    <circle cx="1192.5658574380166" cy="752.7536157024792" r="33.75695784168698"/>
    <circle cx="1195.28125" cy="746.3125" r="34"/>
    <circle cx="1197.4093055555556" cy="741.5108333333334" r="34.04370479853239"/>
    <circle cx="1199.635138888889" cy="736.8558333333334" r="34.172909084714796"/>
    <circle cx="1201.9587500000002" cy="732.3475000000001" r="34.38196601125011"/>
    <circle cx="1204.3801388888892" cy="727.9858333333334" r="34.66173878728228"/>
    <circle cx="1206.8993055555557" cy="723.7708333333334" r="35.0"/>
    <circle cx="1209.5162500000001" cy="719.7025" r="35.38196601125011"/>
    <circle cx="1212.2309722222224" cy="715.7808333333332" r="35.790943073464696"/>
    <circle cx="1215.0434722222224" cy="712.0058333333334" r="36.209056926535304"/>
    <circle cx="1217.9537500000001" cy="708.3775" r="36.61803398874989"/>
    <circle cx="1220.9618055555557" cy="704.8958333333334" r="37.0"/>
    <circle cx="1224.0676388888887" cy="701.5608333333333" r="37.33826121271772"/>
    <circle cx="1227.27125" cy="698.3725000000001" r="37.61803398874989"/>
    <circle cx="1230.5726388888888" cy="695.3308333333333" r="37.827090915285204"/>
    <circle cx="1233.9718055555554" cy="692.4358333333333" r="37.95629520146761"/>
    <circle cx="1237.46875" cy="689.6875" r="38"/>
    <circle cx="1241.8142361111109" cy="686.3541666666666" r="37.829629131445344"/>
    <circle cx="1245.9861111111113" cy="683.0416666666667" r="37.33012701892219"/>
    <circle cx="1249.984375" cy="679.75" r="36.53553390593274"/>
    <circle cx="1253.8090277777778" cy="676.4791666666667" r="35.5"/>
    <circle cx="1257.4600694444441" cy="673.2291666666665" r="34.294095225512606"/>
    <circle cx="1260.9375" cy="670.0" r="33.0"/>
    <circle cx="1264.2413194444446" cy="666.7916666666666" r="31.705904774487397"/>
    <circle cx="1267.3715277777778" cy="663.6041666666667" r="30.5"/>
    <circle cx="1270.328125" cy="660.4375" r="29.464466094067262"/>
    <circle cx="1273.1111111111113" cy="657.2916666666667" r="28.669872981077805"/>
    <circle cx="1275.720486111111" cy="654.1666666666666" r="28.17037086855466"/>
    <circle cx="1278.15625" cy="651.0625" r="28"/>
    <circle cx="1280.5920138888887" cy="647.9583333333333" r="27.880740392011738"/>
    <circle cx="1283.201388888889" cy="644.8333333333335" r="27.531088913245537"/>
    <circle cx="1285.984375" cy="641.6875" r="26.974873734152915"/>
    <circle cx="1288.9409722222222" cy="638.5208333333334" r="26.25"/>
    <circle cx="1292.0711805555554" cy="635.3333333333331" r="25.405866657858823"/>
    <circle cx="1295.375" cy="632.125" r="24.5"/>
    <circle cx="1298.8524305555557" cy="628.8958333333334" r="23.594133342141177"/>
    <circle cx="1302.5034722222222" cy="625.6458333333334" r="22.75"/>
    <circle cx="1306.328125" cy="622.375" r="22.025126265847085"/>
    <circle cx="1310.326388888889" cy="619.0833333333334" r="21.468911086754463"/>
    <circle cx="1314.498263888889" cy="615.7708333333333" r="21.119259607988262"/>
    <circle cx="1318.84375" cy="612.4375" r="21"/>
    <circle cx="1323.189236111111" cy="609.1006944444443" r="20.96592582628907"/>
    <circle cx="1327.3611111111113" cy="605.7777777777778" r="20.866025403784437"/>
    <circle cx="1331.359375" cy="602.46875" r="20.707106781186546"/>
    <circle cx="1335.184027777778" cy="599.1736111111112" r="20.5"/>
    <circle cx="1338.8350694444443" cy="595.892361111111" r="20.25881904510252"/>
    <circle cx="1342.3125" cy="592.625" r="20.0"/>
    <circle cx="1345.6163194444446" cy="589.3715277777778" r="19.74118095489748"/>
    <circle cx="1348.7465277777778" cy="586.1319444444445" r="19.5"/>
    <circle cx="1351.703125" cy="582.90625" r="19.292893218813454"/>
    <circle cx="1354.486111111111" cy="579.6944444444445" r="19.133974596215563"/>
    <circle cx="1357.095486111111" cy="576.4965277777778" r="19.03407417371093"/>
    <circle cx="1359.53125" cy="573.3125" r="19"/>
    <circle cx="1362.38" cy="569.505" r="19.489434837048464"/>
    <circle cx="1365.2887500000004" cy="565.7075000000001" r="20.909830056250527"/>
    <circle cx="1368.2575" cy="561.92" r="23.122147477075266"/>
    <circle cx="1371.28625" cy="558.1424999999999" r="25.909830056250527"/>
    <circle cx="1374.375" cy="554.375" r="29.0"/>
    <circle cx="1377.52375" cy="550.6175" r="32.09016994374947"/>
    <circle cx="1380.7325" cy="546.87" r="34.87785252292473"/>
    <circle cx="1384.00125" cy="543.1325" r="37.09016994374947"/>
    <circle cx="1387.33" cy="539.405" r="38.510565162951536"/>
    <circle cx="1390.71875" cy="535.6875" r="39"/>
    <circle cx="1394.4988425925926" cy="531.7168209876543" r="38.87938524157182"/>
    <circle cx="1398.2418981481483" cy="528.0547839506173" r="38.53208888623796"/>
    <circle cx="1401.947916666667" cy="524.7013888888889" r="38.0"/>
    <circle cx="1405.6168981481483" cy="521.6566358024692" r="37.34729635533386"/>
    <circle cx="1409.2488425925926" cy="518.920524691358" r="36.65270364466614"/>
    <circle cx="1412.84375" cy="516.4930555555555" r="36.0"/>
    <circle cx="1416.4016203703704" cy="514.3742283950617" r="35.46791111376204"/>
    <circle cx="1419.9224537037037" cy="512.5640432098766" r="35.12061475842818"/>
    <circle cx="1423.40625" cy="511.0625" r="35"/>
    <circle cx="1428.0664486000621" cy="509.25071938193975" r="24.839086018301355"/>
    <circle cx="1432.7266472001243" cy="507.43893876387955" r="14.678172036602705"/>
    <circle cx="1437.3868458001864" cy="505.6271581458193" r="4.51725805490406"/>
    <circle cx="1439.0" cy="505.0" r="1"/>
    <circle cx="224.0" cy="505.0" r="5"/>
    <circle cx="218.27050983124843" cy="522.6335575687742" r="5"/>
    <circle cx="203.27050983124843" cy="533.5316954888546" r="5"/>
    <circle cx="184.72949016875157" cy="533.5316954888547" r="5"/>
    <circle cx="169.72949016875157" cy="522.6335575687742" r="5"/>
    <circle cx="164.0" cy="505.0" r="5"/>
    <circle cx="169.72949016875157" cy="487.36644243122583" r="5"/>
    <circle cx="184.72949016875157" cy="476.4683045111454" r="5"/>
    <circle cx="203.2705098312484" cy="476.4683045111454" r="5"/>
    <circle cx="218.27050983124843" cy="487.3664424312258" r="5"/>
    <circle cx="1469.0" cy="505.0" r="5"/>
    <circle cx="1463.2705098312483" cy="522.6335575687742" r="5"/>
    <circle cx="1448.2705098312483" cy="533.5316954888546" r="5"/>
    <circle cx="1429.7294901687517" cy="533.5316954888547" r="5"/>
    <circle cx="1414.7294901687517" cy="522.6335575687742" r="5"/>
    <circle cx="1409.0" cy="505.0" r="5"/>
    <circle cx="1414.7294901687517" cy="487.36644243122583" r="5"/>
    <circle cx="1429.7294901687517" cy="476.4683045111454" r="5"/>
    <circle cx="1448.2705098312483" cy="476.4683045111454" r="5"/>
    <circle cx="1463.2705098312483" cy="487.3664424312258" r="5"/>
    <circle cx="505.5" cy="169.0000000000001" r="50"/>
    <path d="M 505.5 229.0000000000001 L505.5 239.0000000000001"/>
    <path d="M 524.0410196624969 226.06339097770933 L527.1311896062464 235.57395614066087"/>
    <path d="M 540.7671151375484 217.54101966249698 L546.6449676604732 225.63118960624644"/>
    <path d="M 554.0410196624969 204.2671151375485 L562.1311896062464 210.14496766047324"/>
    <path d="M 562.5633909777092 187.54101966249695 L572.0739561406608 190.63118960624644"/>
    <path d="M 565.5 169.0000000000001 L575.5 169.0000000000001"/>
    <path d="M 562.5633909777092 150.45898033750328 L572.0739561406608 147.3688103937538"/>
    <path d="M 554.0410196624969 133.73288486245173 L562.1311896062464 127.855032339527"/>
    <path d="M 540.7671151375484 120.45898033750328 L546.6449676604732 112.3688103937538"/>
    <path d="M 524.0410196624969 111.9366090222909 L527.1311896062464 102.42604385933936"/>
    <path d="M 505.5 109.00000000000011 L505.5 99.00000000000011"/>
    <path d="M 486.95898033750314 111.9366090222909 L483.8688103937537 102.42604385933936"/>
    <path d="M 470.2328848624516 120.45898033750326 L464.3550323395269 112.36881039375379"/>
    <path d="M 456.95898033750314 133.73288486245173 L448.8688103937537 127.855032339527"/>
    <path d="M 448.4366090222908 150.45898033750325 L438.92604385933925 147.36881039375376"/>
    <path d="M 445.5 169.0000000000001 L435.5 169.0000000000001"/>
    <path d="M 448.4366090222908 187.54101966249695 L438.92604385933925 190.63118960624644"/>
    <path d="M 456.95898033750314 204.2671151375485 L448.8688103937537 210.14496766047324"/>
    <path d="M 470.2328848624516 217.54101966249695 L464.3550323395269 225.63118960624644"/>
    <path d="M 486.95898033750314 226.06339097770933 L483.8688103937537 235.57395614066087"/>
    <circle cx="511.0" cy="578.5" r="50"/>
    <circle cx="604.2" cy="758.0" r="50"/>
    <path d="M 604.2 818.0 L604.2 828.0"/>
    <path d="M 622.7410196624969 815.0633909777092 L625.8311896062464 824.5739561406607"/>
    <path d="M 639.4671151375485 806.5410196624969 L645.3449676604732 814.6311896062464"/>
    <path d="M 652.7410196624969 793.2671151375484 L660.8311896062464 799.1449676604732"/>
    <path d="M 661.2633909777093 776.5410196624969 L670.7739561406607 779.6311896062464"/>
    <path d="M 664.2 758.0 L674.2 758.0"/>
    <path d="M 661.2633909777093 739.4589803375031 L670.7739561406607 736.3688103937536"/>
    <path d="M 652.7410196624969 722.7328848624517 L660.8311896062464 716.8550323395269"/>
    <path d="M 639.4671151375485 709.4589803375031 L645.3449676604732 701.3688103937536"/>
    <path d="M 622.7410196624969 700.9366090222908 L625.8311896062464 691.4260438593393"/>
    <path d="M 604.2 698.0 L604.2 688.0"/>
    <path d="M 585.6589803375032 700.9366090222908 L582.5688103937537 691.4260438593393"/>
    <path d="M 568.9328848624517 709.4589803375031 L563.055032339527 701.3688103937536"/>
    <path d="M 555.6589803375032 722.7328848624516 L547.5688103937537 716.8550323395268"/>
    <path d="M 547.1366090222908 739.4589803375031 L537.6260438593393 736.3688103937536"/>
    <path d="M 544.2 758.0 L534.2 758.0"/>
    <path d="M 547.1366090222908 776.5410196624969 L537.6260438593393 779.6311896062464"/>
    <path d="M 555.6589803375032 793.2671151375483 L547.5688103937537 799.1449676604731"/>
    <path d="M 568.9328848624516 806.5410196624969 L563.0550323395269 814.6311896062464"/>
    <path d="M 585.6589803375032 815.0633909777092 L582.5688103937537 824.5739561406607"/>
    <path d="M 604.2 758.0 L1210.875 709.75"/>
    <circle cx="1210.875" cy="709.75" r="50"/>
    <path d="M 1210.875 769.75 L1210.875 779.75"/>
    <path d="M 1229.4160196624969 766.8133909777092 L1232.5061896062464 776.3239561406607"/>
    <path d="M 1246.1421151375484 758.2910196624969 L1252.0199676604732 766.3811896062464"/>
    <path d="M 1259.4160196624969 745.0171151375484 L1267.5061896062464 750.8949676604732"/>
    <path d="M 1267.938390977709 728.2910196624969 L1277.4489561406606 731.3811896062464"/>
    <path d="M 1270.875 709.75 L1280.875 709.75"/>
    <path d="M 1267.9383909777093 691.2089803375031 L1277.4489561406608 688.1188103937536"/>
    <path d="M 1259.4160196624969 674.4828848624517 L1267.5061896062464 668.6050323395269"/>
    <path d="M 1246.1421151375484 661.2089803375031 L1252.0199676604732 653.1188103937536"/>
    <path d="M 1229.4160196624969 652.6866090222908 L1232.5061896062464 643.1760438593393"/>
    <path d="M 1210.875 649.75 L1210.875 639.75"/>
    <path d="M 1192.3339803375031 652.6866090222908 L1189.2438103937536 643.1760438593393"/>
    <path d="M 1175.6078848624516 661.2089803375031 L1169.7300323395268 653.1188103937536"/>
    <path d="M 1162.3339803375031 674.4828848624516 L1154.2438103937536 668.6050323395268"/>
    <path d="M 1153.811609022291 691.2089803375031 L1144.3010438593394 688.1188103937536"/>
    <path d="M 1150.875 709.75 L1140.875 709.75"/>
    <path d="M 1153.8116090222907 728.2910196624969 L1144.3010438593392 731.3811896062464"/>
    <path d="M 1162.3339803375031 745.0171151375483 L1154.2438103937536 750.8949676604731"/>
    <path d="M 1175.6078848624516 758.2910196624969 L1169.7300323395268 766.3811896062464"/>
    <path d="M 1192.3339803375031 766.8133909777092 L1189.2438103937536 776.3239561406607"/>
  </g>
</svg>
