<svg version="1.1" width="1150" height="870" xmlns="http://www.w3.org/2000/svg">
  <!-- Seed: 3849663458625158165 -->
  <g stroke="black" fill="none">
    <circle cx="146.0" cy="357.0" r="1"/>
    <circle cx="149.0" cy="353.0" r="1.01"/>
    <circle cx="152.0" cy="349.0" r="1.04"/>
    <circle cx="155.0" cy="345.0" r="1.09"/>
    <circle cx="158.0" cy="341.0" r="1.16"/>
    <circle cx="161.0" cy="337.0" r="1.25"/>
    <circle cx="164.0" cy="333.0" r="1.35"/>
    <circle cx="167.0" cy="329.0" r="1.47"/>
    <circle cx="170.0" cy="325.0" r="1.61"/>
    <circle cx="173.0" cy="320.0" r="1.76"/>
    <circle cx="176.0" cy="316.0" r="1.92"/>
    <circle cx="178.0" cy="312.0" r="2.1"/>
    <circle cx="181.0" cy="308.0" r="2.28"/>
    <circle cx="184.0" cy="304.0" r="2.47"/>
    <circle cx="187.0" cy="300.0" r="2.67"/>
    <circle cx="190.0" cy="296.0" r="2.87"/>
    <circle cx="193.0" cy="292.0" r="3.07"/>
    <circle cx="196.0" cy="288.0" r="3.27"/>
    <circle cx="199.0" cy="284.0" r="3.46"/>
    <circle cx="202.0" cy="280.0" r="3.66"/>
    <circle cx="205.0" cy="276.0" r="3.84"/>
    <circle cx="208.0" cy="272.0" r="4.02"/>
    <circle cx="211.0" cy="268.0" r="4.19"/>
    <circle cx="214.0" cy="264.0" r="4.34"/>
    <circle cx="216.0" cy="260.0" r="4.48"/>
    <circle cx="219.0" cy="256.0" r="4.61"/>
    <circle cx="222.0" cy="252.0" r="4.72"/>
    <circle cx="225.0" cy="247.0" r="4.81"/>
    <circle cx="228.0" cy="243.0" r="4.89"/>
    <circle cx="231.0" cy="239.0" r="4.95"/>
    <circle cx="234.0" cy="235.0" r="4.98"/>
    <circle cx="237.0" cy="231.0" r="5.0"/>
    <circle cx="238.0" cy="230.0" r="5"/>
    <circle cx="247.0" cy="218.0" r="5.22"/>
    <circle cx="255.0" cy="208.0" r="5.88"/>
    <circle cx="263.0" cy="199.0" r="6.96"/>
    <circle cx="271.0" cy="191.0" r="8.44"/>
    <circle cx="278.0" cy="185.0" r="10.27"/>
    <circle cx="284.0" cy="181.0" r="12.42"/>
    <circle cx="290.0" cy="178.0" r="14.83"/>
    <circle cx="295.0" cy="176.0" r="17.44"/>
    <circle cx="300.0" cy="176.0" r="20.18"/>
    <circle cx="305.0" cy="178.0" r="23.0"/>
    <circle cx="309.0" cy="181.0" r="25.82"/>
    <circle cx="312.0" cy="185.0" r="28.56"/>
    <circle cx="315.0" cy="191.0" r="31.17"/>
    <circle cx="317.0" cy="199.0" r="33.58"/>
    <circle cx="319.0" cy="208.0" r="35.73"/>
    <circle cx="321.0" cy="218.0" r="37.56"/>
    <circle cx="322.0" cy="230.0" r="39.04"/>
    <circle cx="322.0" cy="244.0" r="40.12"/>
    <circle cx="322.0" cy="259.0" r="40.78"/>
    <circle cx="322.0" cy="275.0" r="41"/>
    <circle cx="321.0" cy="280.0" r="41.01"/>
    <circle cx="321.0" cy="285.0" r="41.04"/>
    <circle cx="321.0" cy="290.0" r="41.08"/>
    <circle cx="321.0" cy="295.0" r="41.14"/>
    <circle cx="320.0" cy="300.0" r="41.23"/>
    <circle cx="320.0" cy="305.0" r="41.32"/>
    <circle cx="320.0" cy="309.0" r="41.44"/>
    <circle cx="320.0" cy="314.0" r="41.57"/>
    <circle cx="320.0" cy="319.0" r="41.72"/>
    <circle cx="319.0" cy="324.0" r="41.89"/>
    <circle cx="319.0" cy="329.0" r="42.07"/>
    <circle cx="319.0" cy="333.0" r="42.27"/>
    <circle cx="318.0" cy="338.0" r="42.49"/>
    <circle cx="318.0" cy="343.0" r="42.72"/>
    <circle cx="318.0" cy="348.0" r="42.96"/>
    <circle cx="318.0" cy="353.0" r="43.22"/>
    <circle cx="317.0" cy="357.0" r="43.49"/>
    <circle cx="317.0" cy="362.0" r="43.78"/>
    <circle cx="317.0" cy="367.0" r="44.08"/>
    <circle cx="317.0" cy="371.0" r="44.39"/>
    <circle cx="316.0" cy="376.0" r="44.71"/>
    <circle cx="316.0" cy="381.0" r="45.04"/>
    <circle cx="316.0" cy="386.0" r="45.38"/>
    <circle cx="315.0" cy="390.0" r="45.74"/>
    <circle cx="315.0" cy="395.0" r="46.1"/>
    <circle cx="315.0" cy="399.0" r="46.46"/>
    <circle cx="314.0" cy="404.0" r="46.84"/>
    <circle cx="314.0" cy="409.0" r="47.22"/>
    <circle cx="314.0" cy="413.0" r="47.61"/>
    <circle cx="314.0" cy="418.0" r="48.0"/>
    <circle cx="313.0" cy="423.0" r="48.39"/>
    <circle cx="313.0" cy="427.0" r="48.79"/>
    <circle cx="313.0" cy="432.0" r="49.19"/>
    <circle cx="312.0" cy="436.0" r="49.6"/>
    <circle cx="312.0" cy="441.0" r="50.0"/>
    <circle cx="312.0" cy="445.0" r="50.4"/>
    <circle cx="311.0" cy="450.0" r="50.81"/>
    <circle cx="311.0" cy="454.0" r="51.21"/>
    <circle cx="311.0" cy="459.0" r="51.61"/>
    <circle cx="310.0" cy="463.0" r="52.0"/>
    <circle cx="310.0" cy="468.0" r="52.39"/>
    <circle cx="310.0" cy="472.0" r="52.78"/>
    <circle cx="309.0" cy="477.0" r="53.16"/>
    <circle cx="309.0" cy="481.0" r="53.54"/>
    <circle cx="309.0" cy="486.0" r="53.9"/>
    <circle cx="308.0" cy="490.0" r="54.26"/>
    <circle cx="308.0" cy="494.0" r="54.62"/>
    <circle cx="307.0" cy="499.0" r="54.96"/>
    <circle cx="307.0" cy="503.0" r="55.29"/>
    <circle cx="307.0" cy="508.0" r="55.61"/>
    <circle cx="306.0" cy="512.0" r="55.92"/>
    <circle cx="306.0" cy="516.0" r="56.22"/>
    <circle cx="306.0" cy="521.0" r="56.51"/>
    <circle cx="305.0" cy="525.0" r="56.78"/>
    <circle cx="305.0" cy="529.0" r="57.04"/>
    <circle cx="304.0" cy="534.0" r="57.28"/>
    <circle cx="304.0" cy="538.0" r="57.51"/>
    <circle cx="304.0" cy="542.0" r="57.73"/>
    <circle cx="303.0" cy="547.0" r="57.93"/>
    <circle cx="303.0" cy="551.0" r="58.11"/>
    <circle cx="302.0" cy="555.0" r="58.28"/>
    <circle cx="302.0" cy="559.0" r="58.43"/>
    <circle cx="302.0" cy="564.0" r="58.56"/>
    <circle cx="301.0" cy="568.0" r="58.68"/>
    <circle cx="301.0" cy="572.0" r="58.77"/>
    <circle cx="300.0" cy="576.0" r="58.86"/>
    <circle cx="300.0" cy="580.0" r="58.92"/>
    <circle cx="299.0" cy="585.0" r="58.96"/>
    <circle cx="299.0" cy="589.0" r="58.99"/>
    <circle cx="299.0" cy="593.0" r="59"/>
    <circle cx="297.0" cy="609.0" r="58.94"/>
    <circle cx="297.0" cy="623.0" r="58.76"/>
    <circle cx="297.0" cy="636.0" r="58.48"/>
    <circle cx="298.0" cy="646.0" r="58.09"/>
    <circle cx="299.0" cy="655.0" r="57.61"/>
    <circle cx="302.0" cy="662.0" r="57.06"/>
    <circle cx="305.0" cy="666.0" r="56.46"/>
    <circle cx="309.0" cy="669.0" r="55.82"/>
    <circle cx="313.0" cy="670.0" r="55.18"/>
    <circle cx="319.0" cy="670.0" r="54.54"/>
    <circle cx="325.0" cy="667.0" r="53.94"/>
    <circle cx="332.0" cy="662.0" r="53.39"/>
    <circle cx="340.0" cy="656.0" r="52.91"/>
    <circle cx="348.0" cy="648.0" r="52.52"/>
    <circle cx="357.0" cy="637.0" r="52.24"/>
    <circle cx="367.0" cy="625.0" r="52.06"/>
    <circle cx="378.0" cy="611.0" r="52"/>
    <circle cx="381.0" cy="608.0" r="51.98"/>
    <circle cx="384.0" cy="604.0" r="51.91"/>
    <circle cx="386.0" cy="600.0" r="51.81"/>
    <circle cx="389.0" cy="597.0" r="51.66"/>
    <circle cx="391.0" cy="593.0" r="51.46"/>
    <circle cx="394.0" cy="590.0" r="51.23"/>
    <circle cx="397.0" cy="586.0" r="50.95"/>
    <circle cx="399.0" cy="582.0" r="50.64"/>
    <circle cx="402.0" cy="579.0" r="50.28"/>
    <circle cx="405.0" cy="575.0" r="49.88"/>
    <circle cx="407.0" cy="571.0" r="49.45"/>
    <circle cx="410.0" cy="568.0" r="48.97"/>
    <circle cx="412.0" cy="564.0" r="48.46"/>
    <circle cx="415.0" cy="560.0" r="47.91"/>
    <circle cx="417.0" cy="557.0" r="47.33"/>
    <circle cx="420.0" cy="553.0" r="46.71"/>
    <circle cx="423.0" cy="549.0" r="46.06"/>
    <circle cx="425.0" cy="546.0" r="45.38"/>
    <circle cx="428.0" cy="542.0" r="44.67"/>
    <circle cx="430.0" cy="538.0" r="43.93"/>
    <circle cx="433.0" cy="534.0" r="43.17"/>
    <circle cx="435.0" cy="531.0" r="42.37"/>
    <circle cx="438.0" cy="527.0" r="41.56"/>
    <circle cx="440.0" cy="523.0" r="40.72"/>
    <circle cx="443.0" cy="519.0" r="39.86"/>
    <circle cx="445.0" cy="516.0" r="38.98"/>
    <circle cx="448.0" cy="512.0" r="38.08"/>
    <circle cx="450.0" cy="508.0" r="37.17"/>
    <circle cx="453.0" cy="504.0" r="36.24"/>
    <circle cx="455.0" cy="500.0" r="35.3"/>
    <circle cx="458.0" cy="497.0" r="34.35"/>
    <circle cx="460.0" cy="493.0" r="33.39"/>
    <circle cx="462.0" cy="489.0" r="32.43"/>
    <circle cx="465.0" cy="485.0" r="31.46"/>
    <circle cx="467.0" cy="481.0" r="30.49"/>
    <circle cx="470.0" cy="477.0" r="29.51"/>
    <circle cx="472.0" cy="474.0" r="28.54"/>
    <circle cx="475.0" cy="470.0" r="27.57"/>
    <circle cx="477.0" cy="466.0" r="26.61"/>
    <circle cx="479.0" cy="462.0" r="25.65"/>
    <circle cx="482.0" cy="458.0" r="24.7"/>
    <circle cx="484.0" cy="454.0" r="23.76"/>
    <circle cx="486.0" cy="450.0" r="22.83"/>
    <circle cx="489.0" cy="446.0" r="21.92"/>
    <circle cx="491.0" cy="442.0" r="21.02"/>
    <circle cx="493.0" cy="438.0" r="20.14"/>
    <circle cx="496.0" cy="435.0" r="19.28"/>
    <circle cx="498.0" cy="431.0" r="18.44"/>
    <circle cx="500.0" cy="427.0" r="17.63"/>
    <circle cx="503.0" cy="423.0" r="16.83"/>
    <circle cx="505.0" cy="419.0" r="16.07"/>
    <circle cx="507.0" cy="415.0" r="15.33"/>
    <circle cx="510.0" cy="411.0" r="14.62"/>
    <circle cx="512.0" cy="407.0" r="13.94"/>
    <circle cx="514.0" cy="403.0" r="13.29"/>
    <circle cx="517.0" cy="399.0" r="12.67"/>
    <circle cx="519.0" cy="395.0" r="12.09"/>
    <circle cx="521.0" cy="391.0" r="11.54"/>
    <circle cx="523.0" cy="387.0" r="11.03"/>
    <circle cx="526.0" cy="383.0" r="10.55"/>
    <circle cx="528.0" cy="379.0" r="10.12"/>
    <circle cx="530.0" cy="375.0" r="9.72"/>
    <circle cx="532.0" cy="371.0" r="9.36"/>
    <circle cx="535.0" cy="366.0" r="9.05"/>
    <circle cx="537.0" cy="362.0" r="8.77"/>
    <circle cx="539.0" cy="358.0" r="8.54"/>
    <circle cx="541.0" cy="354.0" r="8.34"/>
    <circle cx="543.0" cy="350.0" r="8.19"/>
    <circle cx="546.0" cy="346.0" r="8.09"/>
    <circle cx="548.0" cy="342.0" r="8.02"/>
    <circle cx="550.0" cy="338.0" r="8"/>
    <circle cx="556.0" cy="326.0" r="8.13"/>
    <circle cx="562.0" cy="316.0" r="8.52"/>
    <circle cx="567.0" cy="305.0" r="9.16"/>
    <circle cx="572.0" cy="296.0" r="10.04"/>
    <circle cx="577.0" cy="287.0" r="11.15"/>
    <circle cx="582.0" cy="279.0" r="12.47"/>
    <circle cx="586.0" cy="271.0" r="13.98"/>
    <circle cx="590.0" cy="264.0" r="15.66"/>
    <circle cx="594.0" cy="258.0" r="17.47"/>
    <circle cx="597.0" cy="252.0" r="19.4"/>
    <circle cx="600.0" cy="247.0" r="21.41"/>
    <circle cx="603.0" cy="242.0" r="23.46"/>
    <circle cx="606.0" cy="239.0" r="25.54"/>
    <circle cx="608.0" cy="235.0" r="27.59"/>
    <circle cx="610.0" cy="233.0" r="29.6"/>
    <circle cx="612.0" cy="231.0" r="31.53"/>
    <circle cx="613.0" cy="229.0" r="33.34"/>
    <circle cx="615.0" cy="229.0" r="35.02"/>
    <circle cx="615.0" cy="228.0" r="36.53"/>
    <circle cx="616.0" cy="229.0" r="37.85"/>
    <circle cx="616.0" cy="230.0" r="38.96"/>
    <circle cx="616.0" cy="232.0" r="39.84"/>
    <circle cx="616.0" cy="234.0" r="40.48"/>
    <circle cx="616.0" cy="237.0" r="40.87"/>
    <circle cx="615.0" cy="241.0" r="41"/>
    <circle cx="614.0" cy="245.0" r="41.06"/>
    <circle cx="613.0" cy="250.0" r="41.24"/>
    <circle cx="612.0" cy="254.0" r="41.54"/>
    <circle cx="611.0" cy="259.0" r="41.95"/>
    <circle cx="611.0" cy="263.0" r="42.46"/>
    <circle cx="610.0" cy="268.0" r="43.06"/>
    <circle cx="610.0" cy="272.0" r="43.75"/>
    <circle cx="610.0" cy="277.0" r="44.51"/>
    <circle cx="609.0" cy="281.0" r="45.32"/>
    <circle cx="609.0" cy="286.0" r="46.18"/>
    <circle cx="609.0" cy="290.0" r="47.06"/>
    <circle cx="609.0" cy="295.0" r="47.94"/>
    <circle cx="610.0" cy="300.0" r="48.82"/>
    <circle cx="610.0" cy="304.0" r="49.68"/>
    <circle cx="610.0" cy="309.0" r="50.49"/>
    <circle cx="611.0" cy="314.0" r="51.25"/>
    <circle cx="612.0" cy="319.0" r="51.94"/>
    <circle cx="612.0" cy="324.0" r="52.54"/>
    <circle cx="613.0" cy="329.0" r="53.05"/>
    <circle cx="614.0" cy="333.0" r="53.46"/>
    <circle cx="615.0" cy="338.0" r="53.76"/>
    <circle cx="616.0" cy="343.0" r="53.94"/>
    <circle cx="618.0" cy="348.0" r="54"/>
    <circle cx="619.0" cy="353.0" r="53.85"/>
    <circle cx="620.0" cy="357.0" r="53.4"/>
    <circle cx="621.0" cy="362.0" r="52.67"/>
    <circle cx="622.0" cy="366.0" r="51.65"/>
    <circle cx="623.0" cy="371.0" r="50.37"/>
    <circle cx="624.0" cy="375.0" r="48.84"/>
    <circle cx="625.0" cy="380.0" r="47.09"/>
    <circle cx="626.0" cy="384.0" r="45.15"/>
    <circle cx="626.0" cy="389.0" r="43.03"/>
    <circle cx="627.0" cy="393.0" r="40.77"/>
    <circle cx="628.0" cy="398.0" r="38.41"/>
    <circle cx="629.0" cy="402.0" r="35.97"/>
    <circle cx="629.0" cy="407.0" r="33.5"/>
    <circle cx="630.0" cy="412.0" r="31.03"/>
    <circle cx="631.0" cy="416.0" r="28.59"/>
    <circle cx="631.0" cy="421.0" r="26.23"/>
    <circle cx="632.0" cy="426.0" r="23.97"/>
    <circle cx="632.0" cy="430.0" r="21.85"/>
    <circle cx="633.0" cy="435.0" r="19.91"/>
    <circle cx="633.0" cy="440.0" r="18.16"/>
    <circle cx="634.0" cy="444.0" r="16.63"/>
    <circle cx="634.0" cy="449.0" r="15.35"/>
    <circle cx="634.0" cy="454.0" r="14.33"/>
    <circle cx="634.0" cy="459.0" r="13.6"/>
    <circle cx="635.0" cy="464.0" r="13.15"/>
    <circle cx="635.0" cy="468.0" r="13"/>
    <circle cx="635.0" cy="474.0" r="13.24"/>
    <circle cx="635.0" cy="480.0" r="13.95"/>
    <circle cx="635.0" cy="485.0" r="15.12"/>
    <circle cx="635.0" cy="490.0" r="16.73"/>
    <circle cx="635.0" cy="496.0" r="18.74"/>
    <circle cx="635.0" cy="501.0" r="21.11"/>
    <circle cx="635.0" cy="506.0" r="23.79"/>
    <circle cx="634.0" cy="511.0" r="26.74"/>
    <circle cx="634.0" cy="515.0" r="29.88"/>
    <circle cx="634.0" cy="520.0" r="33.16"/>
    <circle cx="633.0" cy="525.0" r="36.5"/>
    <circle cx="633.0" cy="529.0" r="39.84"/>
    <circle cx="632.0" cy="534.0" r="43.12"/>
    <circle cx="631.0" cy="538.0" r="46.26"/>
    <circle cx="631.0" cy="542.0" r="49.21"/>
    <circle cx="630.0" cy="546.0" r="51.89"/>
    <circle cx="629.0" cy="550.0" r="54.26"/>
    <circle cx="628.0" cy="554.0" r="56.27"/>
    <circle cx="627.0" cy="558.0" r="57.88"/>
    <circle cx="626.0" cy="561.0" r="59.05"/>
    <circle cx="625.0" cy="565.0" r="59.76"/>
    <circle cx="623.0" cy="568.0" r="60"/>
    <circle cx="622.0" cy="572.0" r="59.81"/>
    <circle cx="621.0" cy="576.0" r="59.24"/>
    <circle cx="620.0" cy="580.0" r="58.31"/>
    <circle cx="619.0" cy="584.0" r="57.04"/>
    <circle cx="619.0" cy="588.0" r="55.46"/>
    <circle cx="618.0" cy="592.0" r="53.61"/>
    <circle cx="618.0" cy="596.0" r="51.54"/>
    <circle cx="618.0" cy="601.0" r="49.29"/>
    <circle cx="618.0" cy="605.0" r="46.92"/>
    <circle cx="618.0" cy="610.0" r="44.5"/>
    <circle cx="619.0" cy="614.0" r="42.08"/>
    <circle cx="619.0" cy="619.0" r="39.71"/>
    <circle cx="620.0" cy="624.0" r="37.46"/>
    <circle cx="621.0" cy="629.0" r="35.39"/>
    <circle cx="622.0" cy="634.0" r="33.54"/>
    <circle cx="624.0" cy="639.0" r="31.96"/>
    <circle cx="625.0" cy="644.0" r="30.69"/>
    <circle cx="627.0" cy="649.0" r="29.76"/>
    <circle cx="629.0" cy="654.0" r="29.19"/>
    <circle cx="631.0" cy="660.0" r="29"/>
    <circle cx="637.0" cy="676.0" r="27.79"/>
    <circle cx="643.0" cy="686.0" r="24.5"/>
    <circle cx="648.0" cy="691.0" r="20.0"/>
    <circle cx="652.0" cy="690.0" r="15.5"/>
    <circle cx="655.0" cy="685.0" r="12.21"/>
    <circle cx="657.0" cy="674.0" r="11"/>
    <circle cx="658.0" cy="667.0" r="10.98"/>
    <circle cx="659.0" cy="661.0" r="10.93"/>
    <circle cx="660.0" cy="655.0" r="10.85"/>
    <circle cx="660.0" cy="649.0" r="10.75"/>
    <circle cx="661.0" cy="644.0" r="10.63"/>
    <circle cx="661.0" cy="639.0" r="10.5"/>
    <circle cx="661.0" cy="634.0" r="10.37"/>
    <circle cx="662.0" cy="630.0" r="10.25"/>
    <circle cx="662.0" cy="626.0" r="10.15"/>
    <circle cx="662.0" cy="622.0" r="10.07"/>
    <circle cx="661.0" cy="619.0" r="10.02"/>
    <circle cx="661.0" cy="616.0" r="10"/>
    <circle cx="661.0" cy="613.0" r="10.34"/>
    <circle cx="661.0" cy="611.0" r="11.34"/>
    <circle cx="662.0" cy="608.0" r="12.95"/>
    <circle cx="663.0" cy="604.0" r="15.08"/>
    <circle cx="665.0" cy="601.0" r="17.64"/>
    <circle cx="667.0" cy="597.0" r="20.5"/>
    <circle cx="669.0" cy="594.0" r="23.5"/>
    <circle cx="672.0" cy="590.0" r="26.5"/>
    <circle cx="675.0" cy="585.0" r="29.36"/>
    <circle cx="678.0" cy="581.0" r="31.92"/>
    <circle cx="682.0" cy="576.0" r="34.05"/>
    <circle cx="686.0" cy="572.0" r="35.66"/>
    <circle cx="691.0" cy="567.0" r="36.66"/>
    <circle cx="696.0" cy="561.0" r="37"/>
    <circle cx="700.0" cy="557.0" r="37.17"/>
    <circle cx="704.0" cy="553.0" r="37.68"/>
    <circle cx="708.0" cy="548.0" r="38.5"/>
    <circle cx="711.0" cy="544.0" r="39.61"/>
    <circle cx="714.0" cy="539.0" r="40.97"/>
    <circle cx="717.0" cy="535.0" r="42.54"/>
    <circle cx="719.0" cy="531.0" r="44.26"/>
    <circle cx="721.0" cy="526.0" r="46.08"/>
    <circle cx="723.0" cy="522.0" r="47.92"/>
    <circle cx="725.0" cy="517.0" r="49.74"/>
    <circle cx="726.0" cy="513.0" r="51.46"/>
    <circle cx="727.0" cy="509.0" r="53.03"/>
    <circle cx="728.0" cy="504.0" r="54.39"/>
    <circle cx="728.0" cy="500.0" r="55.5"/>
    <circle cx="729.0" cy="496.0" r="56.32"/>
    <circle cx="728.0" cy="491.0" r="56.83"/>
    <circle cx="728.0" cy="487.0" r="57"/>
    <circle cx="728.0" cy="482.0" r="56.46"/>
    <circle cx="727.0" cy="476.0" r="54.87"/>
    <circle cx="727.0" cy="471.0" r="52.31"/>
    <circle cx="726.0" cy="466.0" r="48.91"/>
    <circle cx="726.0" cy="461.0" r="44.83"/>
    <circle cx="726.0" cy="457.0" r="40.28"/>
    <circle cx="726.0" cy="452.0" r="35.5"/>
    <circle cx="727.0" cy="447.0" r="30.72"/>
    <circle cx="727.0" cy="443.0" r="26.17"/>
    <circle cx="727.0" cy="439.0" r="22.09"/>
    <circle cx="728.0" cy="434.0" r="18.69"/>
    <circle cx="728.0" cy="430.0" r="16.13"/>
    <circle cx="729.0" cy="426.0" r="14.54"/>
    <circle cx="730.0" cy="422.0" r="14"/>
    <circle cx="732.0" cy="416.0" r="14.87"/>
    <circle cx="733.0" cy="411.0" r="17.39"/>
    <circle cx="735.0" cy="405.0" r="21.25"/>
    <circle cx="737.0" cy="401.0" r="25.98"/>
    <circle cx="739.0" cy="396.0" r="31.02"/>
    <circle cx="742.0" cy="392.0" r="35.75"/>
    <circle cx="744.0" cy="388.0" r="39.61"/>
    <circle cx="747.0" cy="385.0" r="42.13"/>
    <circle cx="749.0" cy="382.0" r="43"/>
    <circle cx="752.0" cy="379.0" r="43.16"/>
    <circle cx="755.0" cy="377.0" r="43.63"/>
    <circle cx="757.0" cy="374.0" r="44.38"/>
    <circle cx="760.0" cy="371.0" r="45.34"/>
    <circle cx="764.0" cy="368.0" r="46.43"/>
    <circle cx="767.0" cy="365.0" r="47.57"/>
    <circle cx="771.0" cy="362.0" r="48.66"/>
    <circle cx="774.0" cy="358.0" r="49.62"/>
    <circle cx="778.0" cy="355.0" r="50.37"/>
    <circle cx="783.0" cy="351.0" r="50.84"/>
    <circle cx="787.0" cy="347.0" r="51"/>
    <circle cx="790.0" cy="345.0" r="50.93"/>
    <circle cx="793.0" cy="342.0" r="50.73"/>
    <circle cx="796.0" cy="339.0" r="50.41"/>
    <circle cx="799.0" cy="335.0" r="49.97"/>
    <circle cx="801.0" cy="332.0" r="49.44"/>
    <circle cx="804.0" cy="328.0" r="48.84"/>
    <circle cx="806.0" cy="324.0" r="48.18"/>
    <circle cx="809.0" cy="320.0" r="47.5"/>
    <circle cx="811.0" cy="316.0" r="46.82"/>
    <circle cx="813.0" cy="311.0" r="46.16"/>
    <circle cx="815.0" cy="306.0" r="45.56"/>
    <circle cx="817.0" cy="301.0" r="45.03"/>
    <circle cx="819.0" cy="296.0" r="44.59"/>
    <circle cx="820.0" cy="291.0" r="44.27"/>
    <circle cx="822.0" cy="286.0" r="44.07"/>
    <circle cx="823.0" cy="280.0" r="44"/>
    <circle cx="825.0" cy="273.0" r="43.66"/>
    <circle cx="826.0" cy="267.0" r="42.66"/>
    <circle cx="828.0" cy="261.0" r="41.05"/>
    <circle cx="829.0" cy="256.0" r="38.92"/>
    <circle cx="830.0" cy="250.0" r="36.36"/>
    <circle cx="831.0" cy="245.0" r="33.5"/>
    <circle cx="831.0" cy="240.0" r="30.5"/>
    <circle cx="832.0" cy="236.0" r="27.5"/>
    <circle cx="832.0" cy="232.0" r="24.64"/>
    <circle cx="833.0" cy="228.0" r="22.08"/>
    <circle cx="833.0" cy="225.0" r="19.95"/>
    <circle cx="833.0" cy="221.0" r="18.34"/>
    <circle cx="833.0" cy="218.0" r="17.34"/>
    <circle cx="833.0" cy="216.0" r="17"/>
    <circle cx="832.0" cy="209.0" r="12"/>
    <circle cx="833.0" cy="211.0" r="12.54"/>
    <circle cx="833.0" cy="214.0" r="14.12"/>
    <circle cx="833.0" cy="217.0" r="16.65"/>
    <circle cx="834.0" cy="220.0" r="19.99"/>
    <circle cx="835.0" cy="224.0" r="23.94"/>
    <circle cx="835.0" cy="228.0" r="28.27"/>
    <circle cx="836.0" cy="233.0" r="32.73"/>
    <circle cx="837.0" cy="238.0" r="37.06"/>
    <circle cx="838.0" cy="244.0" r="41.01"/>
    <circle cx="838.0" cy="250.0" r="44.35"/>
    <circle cx="839.0" cy="257.0" r="46.88"/>
    <circle cx="840.0" cy="264.0" r="48.46"/>
    <circle cx="842.0" cy="272.0" r="49"/>
    <circle cx="842.0" cy="278.0" r="49.09"/>
    <circle cx="843.0" cy="284.0" r="49.34"/>
    <circle cx="843.0" cy="289.0" r="49.75"/>
    <circle cx="844.0" cy="295.0" r="50.3"/>
    <circle cx="844.0" cy="300.0" r="50.99"/>
    <circle cx="844.0" cy="305.0" r="51.77"/>
    <circle cx="843.0" cy="310.0" r="52.63"/>
    <circle cx="843.0" cy="315.0" r="53.54"/>
    <circle cx="842.0" cy="319.0" r="54.46"/>
    <circle cx="841.0" cy="324.0" r="55.37"/>
    <circle cx="840.0" cy="328.0" r="56.23"/>
    <circle cx="839.0" cy="332.0" r="57.01"/>
    <circle cx="837.0" cy="336.0" r="57.7"/>
    <circle cx="836.0" cy="340.0" r="58.25"/>
    <circle cx="834.0" cy="344.0" r="58.66"/>
    <circle cx="832.0" cy="347.0" r="58.91"/>
    <circle cx="830.0" cy="350.0" r="59"/>
    <circle cx="827.0" cy="354.0" r="58.34"/>
    <circle cx="824.0" cy="358.0" r="56.38"/>
    <circle cx="821.0" cy="362.0" r="53.22"/>
    <circle cx="819.0" cy="366.0" r="49.02"/>
    <circle cx="816.0" cy="370.0" r="44.0"/>
    <circle cx="813.0" cy="374.0" r="38.4"/>
    <circle cx="810.0" cy="378.0" r="32.5"/>
    <circle cx="807.0" cy="381.0" r="26.6"/>
    <circle cx="804.0" cy="385.0" r="21.0"/>
    <circle cx="801.0" cy="389.0" r="15.98"/>
    <circle cx="798.0" cy="393.0" r="11.78"/>
    <circle cx="795.0" cy="397.0" r="8.62"/>
    <circle cx="792.0" cy="401.0" r="6.66"/>
    <circle cx="789.0" cy="405.0" r="6"/>
    <circle cx="786.0" cy="408.0" r="6.21"/>
    <circle cx="784.0" cy="412.0" r="6.82"/>
    <circle cx="782.0" cy="416.0" r="7.81"/>
    <circle cx="780.0" cy="420.0" r="9.14"/>
    <circle cx="779.0" cy="424.0" r="10.75"/>
    <circle cx="778.0" cy="429.0" r="12.56"/>
    <circle cx="777.0" cy="434.0" r="14.51"/>
    <circle cx="776.0" cy="438.0" r="16.49"/>
    <circle cx="776.0" cy="443.0" r="18.44"/>
    <circle cx="777.0" cy="448.0" r="20.25"/>
    <circle cx="777.0" cy="454.0" r="21.86"/>
    <circle cx="778.0" cy="459.0" r="23.19"/>
    <circle cx="779.0" cy="465.0" r="24.18"/>
    <circle cx="781.0" cy="470.0" r="24.79"/>
    <circle cx="783.0" cy="476.0" r="25"/>
    <circle cx="784.0" cy="481.0" r="25.2"/>
    <circle cx="786.0" cy="487.0" r="25.81"/>
    <circle cx="787.0" cy="492.0" r="26.8"/>
    <circle cx="789.0" cy="497.0" r="28.13"/>
    <circle cx="790.0" cy="501.0" r="29.77"/>
    <circle cx="791.0" cy="506.0" r="31.65"/>
    <circle cx="792.0" cy="511.0" r="33.72"/>
    <circle cx="792.0" cy="516.0" r="35.89"/>
    <circle cx="793.0" cy="520.0" r="38.11"/>
    <circle cx="793.0" cy="525.0" r="40.28"/>
    <circle cx="794.0" cy="529.0" r="42.35"/>
    <circle cx="794.0" cy="533.0" r="44.23"/>
    <circle cx="794.0" cy="538.0" r="45.87"/>
    <circle cx="794.0" cy="542.0" r="47.2"/>
    <circle cx="793.0" cy="546.0" r="48.19"/>
    <circle cx="793.0" cy="550.0" r="48.8"/>
    <circle cx="792.0" cy="554.0" r="49"/>
    <circle cx="791.0" cy="558.0" r="48.55"/>
    <circle cx="791.0" cy="562.0" r="47.23"/>
    <circle cx="790.0" cy="567.0" r="45.08"/>
    <circle cx="789.0" cy="571.0" r="42.22"/>
    <circle cx="788.0" cy="576.0" r="38.75"/>
    <circle cx="787.0" cy="580.0" r="34.83"/>
    <circle cx="785.0" cy="585.0" r="30.64"/>
    <circle cx="784.0" cy="589.0" r="26.36"/>
    <circle cx="783.0" cy="594.0" r="22.17"/>
    <circle cx="781.0" cy="598.0" r="18.25"/>
    <circle cx="780.0" cy="603.0" r="14.78"/>
    <circle cx="778.0" cy="608.0" r="11.92"/>
    <circle cx="777.0" cy="612.0" r="9.77"/>
    <circle cx="775.0" cy="617.0" r="8.45"/>
    <circle cx="773.0" cy="622.0" r="8"/>
    <circle cx="771.0" cy="627.0" r="8.54"/>
    <circle cx="770.0" cy="632.0" r="10.12"/>
    <circle cx="768.0" cy="637.0" r="12.65"/>
    <circle cx="766.0" cy="642.0" r="15.99"/>
    <circle cx="765.0" cy="647.0" r="19.94"/>
    <circle cx="763.0" cy="652.0" r="24.27"/>
    <circle cx="762.0" cy="656.0" r="28.73"/>
    <circle cx="761.0" cy="660.0" r="33.06"/>
    <circle cx="760.0" cy="664.0" r="37.01"/>
    <circle cx="759.0" cy="668.0" r="40.35"/>
    <circle cx="759.0" cy="672.0" r="42.88"/>
    <circle cx="758.0" cy="676.0" r="44.46"/>
    <circle cx="758.0" cy="679.0" r="45"/>
    <circle cx="757.0" cy="682.0" r="44.6"/>
    <circle cx="756.0" cy="686.0" r="43.42"/>
    <circle cx="755.0" cy="689.0" r="41.51"/>
    <circle cx="754.0" cy="693.0" r="38.98"/>
    <circle cx="752.0" cy="696.0" r="35.94"/>
    <circle cx="750.0" cy="700.0" r="32.56"/>
    <circle cx="747.0" cy="703.0" r="29.0"/>
    <circle cx="745.0" cy="707.0" r="25.44"/>
    <circle cx="741.0" cy="711.0" r="22.06"/>
    <circle cx="738.0" cy="715.0" r="19.02"/>
    <circle cx="734.0" cy="719.0" r="16.49"/>
    <circle cx="730.0" cy="723.0" r="14.58"/>
    <circle cx="726.0" cy="727.0" r="13.4"/>
    <circle cx="721.0" cy="731.0" r="13"/>
    <circle cx="720.0" cy="733.0" r="13.01"/>
    <circle cx="719.0" cy="734.0" r="13.03"/>
    <circle cx="718.0" cy="734.0" r="13.06"/>
    <circle cx="717.0" cy="735.0" r="13.1"/>
    <circle cx="716.0" cy="735.0" r="13.16"/>
    <circle cx="716.0" cy="735.0" r="13.23"/>
    <circle cx="716.0" cy="735.0" r="13.31"/>
    <circle cx="716.0" cy="735.0" r="13.4"/>
    <circle cx="716.0" cy="735.0" r="13.51"/>
    <circle cx="716.0" cy="734.0" r="13.62"/>
    <circle cx="717.0" cy="733.0" r="13.74"/>
    <circle cx="717.0" cy="732.0" r="13.88"/>
    <circle cx="718.0" cy="731.0" r="14.02"/>
    <circle cx="719.0" cy="730.0" r="14.17"/>
    <circle cx="720.0" cy="728.0" r="14.33"/>
    <circle cx="722.0" cy="726.0" r="14.5"/>
    <circle cx="723.0" cy="724.0" r="14.67"/>
    <circle cx="725.0" cy="722.0" r="14.85"/>
    <circle cx="727.0" cy="719.0" r="15.04"/>
    <circle cx="729.0" cy="717.0" r="15.22"/>
    <circle cx="731.0" cy="714.0" r="15.41"/>
    <circle cx="734.0" cy="711.0" r="15.61"/>
    <circle cx="737.0" cy="708.0" r="15.8"/>
    <circle cx="740.0" cy="704.0" r="16.0"/>
    <circle cx="743.0" cy="701.0" r="16.2"/>
    <circle cx="746.0" cy="697.0" r="16.39"/>
    <circle cx="749.0" cy="693.0" r="16.59"/>
    <circle cx="753.0" cy="689.0" r="16.78"/>
    <circle cx="757.0" cy="685.0" r="16.96"/>
    <circle cx="760.0" cy="680.0" r="17.15"/>
    <circle cx="765.0" cy="675.0" r="17.33"/>
    <circle cx="769.0" cy="670.0" r="17.5"/>
    <circle cx="773.0" cy="665.0" r="17.67"/>
    <circle cx="778.0" cy="660.0" r="17.83"/>
    <circle cx="783.0" cy="654.0" r="17.98"/>
    <circle cx="788.0" cy="648.0" r="18.12"/>
    <circle cx="793.0" cy="642.0" r="18.26"/>
    <circle cx="799.0" cy="636.0" r="18.38"/>
    <circle cx="804.0" cy="630.0" r="18.49"/>
    <circle cx="810.0" cy="623.0" r="18.6"/>
    <circle cx="816.0" cy="616.0" r="18.69"/>
    <circle cx="822.0" cy="609.0" r="18.77"/>
    <circle cx="828.0" cy="602.0" r="18.84"/>
    <circle cx="835.0" cy="595.0" r="18.9"/>
    <circle cx="842.0" cy="587.0" r="18.94"/>
    <circle cx="848.0" cy="580.0" r="18.97"/>
    <circle cx="855.0" cy="572.0" r="18.99"/>
    <circle cx="863.0" cy="563.0" r="19"/>
    <circle cx="866.0" cy="560.0" r="18.98"/>
    <circle cx="869.0" cy="556.0" r="18.94"/>
    <circle cx="873.0" cy="552.0" r="18.86"/>
    <circle cx="876.0" cy="549.0" r="18.75"/>
    <circle cx="879.0" cy="545.0" r="18.61"/>
    <circle cx="883.0" cy="541.0" r="18.44"/>
    <circle cx="886.0" cy="537.0" r="18.23"/>
    <circle cx="889.0" cy="534.0" r="18.0"/>
    <circle cx="893.0" cy="530.0" r="17.75"/>
    <circle cx="896.0" cy="526.0" r="17.46"/>
    <circle cx="899.0" cy="522.0" r="17.15"/>
    <circle cx="903.0" cy="519.0" r="16.81"/>
    <circle cx="906.0" cy="515.0" r="16.45"/>
    <circle cx="909.0" cy="511.0" r="16.07"/>
    <circle cx="912.0" cy="507.0" r="15.66"/>
    <circle cx="916.0" cy="504.0" r="15.24"/>
    <circle cx="919.0" cy="500.0" r="14.79"/>
    <circle cx="922.0" cy="496.0" r="14.33"/>
    <circle cx="926.0" cy="492.0" r="13.86"/>
    <circle cx="929.0" cy="489.0" r="13.37"/>
    <circle cx="932.0" cy="485.0" r="12.87"/>
    <circle cx="936.0" cy="481.0" r="12.36"/>
    <circle cx="939.0" cy="477.0" r="11.84"/>
    <circle cx="942.0" cy="474.0" r="11.31"/>
    <circle cx="946.0" cy="470.0" r="10.78"/>
    <circle cx="949.0" cy="466.0" r="10.25"/>
    <circle cx="952.0" cy="462.0" r="9.72"/>
    <circle cx="956.0" cy="459.0" r="9.18"/>
    <circle cx="959.0" cy="455.0" r="8.65"/>
    <circle cx="962.0" cy="451.0" r="8.13"/>
    <circle cx="966.0" cy="448.0" r="7.61"/>
    <circle cx="969.0" cy="444.0" r="7.1"/>
    <circle cx="972.0" cy="440.0" r="6.6"/>
    <circle cx="976.0" cy="436.0" r="6.11"/>
    <circle cx="979.0" cy="433.0" r="5.63"/>
    <circle cx="982.0" cy="429.0" r="5.18"/>
    <circle cx="985.0" cy="425.0" r="4.73"/>
    <circle cx="989.0" cy="421.0" r="4.31"/>
    <circle cx="992.0" cy="418.0" r="3.91"/>
    <circle cx="995.0" cy="414.0" r="3.52"/>
    <circle cx="999.0" cy="410.0" r="3.16"/>
    <circle cx="1002.0" cy="406.0" r="2.83"/>
    <circle cx="1005.0" cy="403.0" r="2.52"/>
    <circle cx="1009.0" cy="399.0" r="2.24"/>
    <circle cx="1012.0" cy="395.0" r="1.98"/>
    <circle cx="1015.0" cy="391.0" r="1.75"/>
    <circle cx="1019.0" cy="388.0" r="1.55"/>
    <circle cx="1022.0" cy="384.0" r="1.38"/>
    <circle cx="1025.0" cy="380.0" r="1.24"/>
    <circle cx="1029.0" cy="376.0" r="1.14"/>
    <circle cx="1032.0" cy="373.0" r="1.06"/>
    <circle cx="1035.0" cy="369.0" r="1.01"/>
    <circle cx="1038.0" cy="365.0" r="1"/>
    <g stroke="blue">
      <circle cx="176.0" cy="357.0" r="5"/>
      <circle cx="170.27050983124843" cy="374.6335575687742" r="5"/>
      <circle cx="155.27050983124843" cy="385.5316954888546" r="5"/>
      <circle cx="136.72949016875157" cy="385.5316954888546" r="5"/>
      <circle cx="121.72949016875158" cy="374.6335575687742" r="5"/>
      <circle cx="116.0" cy="357.0" r="5"/>
      <circle cx="121.72949016875157" cy="339.36644243122583" r="5"/>
      <circle cx="136.72949016875157" cy="328.4683045111454" r="5"/>
      <circle cx="155.2705098312484" cy="328.4683045111454" r="5"/>
      <circle cx="170.27050983124843" cy="339.3664424312258" r="5"/>
      <path d="M1038.0 395.0 L1038.0 405.0"/>
      <path d="M1055.63 389.27 L1061.51 397.36"/>
      <path d="M1066.53 374.27 L1076.04 377.36"/>
      <path d="M1066.53 355.73 L1076.04 352.64"/>
      <path d="M1055.63 340.73 L1061.51 332.64"/>
      <path d="M1038.0 335.0 L1038.0 325.0"/>
      <path d="M1020.37 340.73 L1014.49 332.64"/>
      <path d="M1009.47 355.73 L999.96 352.64"/>
      <path d="M1009.47 374.27 L999.96 377.36"/>
      <path d="M1020.37 389.27 L1014.49 397.36"/>
      <circle cx="312.0" cy="441.0" r="70.0"/>
      <path d="M312.0 521.0 L312.0 531.0"/>
      <path d="M336.72 517.08 L339.81 526.59"/>
      <path d="M359.02 505.72 L364.9 513.81"/>
      <path d="M376.72 488.02 L384.81 493.9"/>
      <path d="M388.08 465.72 L397.59 468.81"/>
      <path d="M392.0 441.0 L402.0 441.0"/>
      <path d="M388.08 416.28 L397.59 413.19"/>
      <path d="M376.72 393.98 L384.81 388.1"/>
      <path d="M359.02 376.28 L364.9 368.19"/>
      <path d="M336.72 364.92 L339.81 355.41"/>
      <path d="M312.0 361.0 L312.0 351.0"/>
      <path d="M287.28 364.92 L284.19 355.41"/>
      <path d="M264.98 376.28 L259.1 368.19"/>
      <path d="M247.28 393.98 L239.19 388.1"/>
      <path d="M235.92 416.28 L226.41 413.19"/>
      <path d="M232.0 441.0 L222.0 441.0"/>
      <path d="M235.92 465.72 L226.41 468.81"/>
      <path d="M247.28 488.02 L239.19 493.9"/>
      <path d="M264.98 505.72 L259.1 513.81"/>
      <path d="M287.28 517.08 L284.19 526.59"/>
      <path d="M 312.0 441.0L899.0 522.0"/>
      <circle cx="899.0" cy="522.0" r="37.15"/>
      <path d="M899.0 569.15 L899.0 579.15"/>
      <path d="M913.57 566.84 L916.66 576.35"/>
      <path d="M926.71 560.15 L932.59 568.24"/>
      <path d="M937.15 549.71 L945.24 555.59"/>
      <path d="M943.84 536.57 L953.35 539.66"/>
      <path d="M946.15 522.0 L956.15 522.0"/>
      <path d="M943.84 507.43 L953.35 504.34"/>
      <path d="M937.15 494.29 L945.24 488.41"/>
      <path d="M926.71 483.85 L932.59 475.76"/>
      <path d="M913.57 477.16 L916.66 467.65"/>
      <path d="M899.0 474.85 L899.0 464.85"/>
      <path d="M884.43 477.16 L881.34 467.65"/>
      <path d="M871.29 483.85 L865.41 475.76"/>
      <path d="M860.85 494.29 L852.76 488.41"/>
      <path d="M854.16 507.43 L844.65 504.34"/>
      <path d="M851.85 522.0 L841.85 522.0"/>
      <path d="M854.16 536.57 L844.65 539.66"/>
      <path d="M860.85 549.71 L852.76 555.59"/>
      <path d="M871.29 560.15 L865.41 568.24"/>
      <path d="M884.43 566.84 L881.34 576.35"/>
      <circle cx="815.0" cy="306.0" r="65.56"/>
      <path d="M815.0 381.56 L815.0 391.56"/>
      <path d="M838.35 377.86 L841.44 387.37"/>
      <path d="M859.41 367.13 L865.29 375.22"/>
      <path d="M876.13 350.41 L884.22 356.29"/>
      <path d="M886.86 329.35 L896.37 332.44"/>
      <path d="M890.56 306.0 L900.56 306.0"/>
      <path d="M886.86 282.65 L896.37 279.56"/>
      <path d="M876.13 261.59 L884.22 255.71"/>
      <path d="M859.41 244.87 L865.29 236.78"/>
      <path d="M838.35 234.14 L841.44 224.63"/>
      <path d="M815.0 230.44 L815.0 220.44"/>
      <path d="M791.65 234.14 L788.56 224.63"/>
      <path d="M770.59 244.87 L764.71 236.78"/>
      <path d="M753.87 261.59 L745.78 255.71"/>
      <path d="M743.14 282.65 L733.63 279.56"/>
      <path d="M739.44 306.0 L729.44 306.0"/>
      <path d="M743.14 329.35 L733.63 332.44"/>
      <path d="M753.87 350.41 L745.78 356.29"/>
      <path d="M770.59 367.13 L764.71 375.22"/>
      <path d="M791.65 377.86 L788.56 387.37"/>
      <g transform="translate(417.0,441.0) scale(0.5,0.5)">
        <path d="M0 0h25.0m-12.5 0v-50l-12.5 12.5"/>
        <path d="M35.0 -50v25.0h25.0m0 25.0v-50"/>
        <path d="M70.0 0h12.5q12.5 0 12.5 -12.5v-25.0q0 -12.5 -12.5 -12.5q-12.5 0 -12.5 12.5q0 12.5 12.5 12.5h12.5"/>
        <path d="M105.0 -50h25.0l-25.0 50"/>
        <path d="M140.0 -50h25.0l-25.0 50"/>
      </g>
    </g>
  </g>
</svg>
