<svg version="1.1" width="1150" height="870" xmlns="http://www.w3.org/2000/svg">
  <!-- Seed: 6982368708215057029 -->
  <!-- Size: SvgSize.Size9x12 -->
  <!-- Params:
    draw_worm: True
    draw_highlight: True
    step_dist: 5
    circle: True
    peaks: [RangeInt] min: 3 max: 7
    shuffle_large_max_x: 80
    shuffle_large_max_y: 100
    shuffle_small_max_x: 30
    shuffle_small_max_y: 30
    rough_subdivisions: [RangeInt] min: 1 max: 10
    padding: 100
    size_end: 1
    size_range: [RangeInt] min: 5 max: 60
    highlight_end_circle_radius: 30
    highlight_end_points: 10
    highlight_end_point_radius: 5
    highlight_sunburst_ray_len: 10
    highlights: [RangeInt] min: 3 max: 5
    highlight_padding: 20
    consumed_check_radius: 50
    highlight_spacing: 10
    highlight_text_weight: [(0, 1), (1, 3)]
    highlight_text_num_range: [RangeInt] min: 200 max: 50000
    connect_highlight_weight: [(0, 1), (1, 3)]
  -->
  <g stroke="black" fill="none">
    <circle cx="185.0" cy="440.0" r="1"/>
    <circle cx="188.0" cy="436.0" r="1.11"/>
    <circle cx="191.0" cy="433.0" r="1.42"/>
    <circle cx="194.0" cy="429.0" r="1.94"/>
    <circle cx="197.0" cy="425.0" r="2.66"/>
    <circle cx="201.0" cy="421.0" r="3.56"/>
    <circle cx="204.0" cy="417.0" r="4.63"/>
    <circle cx="207.0" cy="413.0" r="5.86"/>
    <circle cx="210.0" cy="409.0" r="7.23"/>
    <circle cx="213.0" cy="405.0" r="8.7"/>
    <circle cx="216.0" cy="402.0" r="10.27"/>
    <circle cx="220.0" cy="398.0" r="11.91"/>
    <circle cx="223.0" cy="394.0" r="13.58"/>
    <circle cx="226.0" cy="390.0" r="15.27"/>
    <circle cx="229.0" cy="386.0" r="16.95"/>
    <circle cx="232.0" cy="382.0" r="18.59"/>
    <circle cx="235.0" cy="378.0" r="20.16"/>
    <circle cx="239.0" cy="375.0" r="21.65"/>
    <circle cx="242.0" cy="371.0" r="23.02"/>
    <circle cx="245.0" cy="367.0" r="24.26"/>
    <circle cx="248.0" cy="363.0" r="25.35"/>
    <circle cx="251.0" cy="359.0" r="26.27"/>
    <circle cx="254.0" cy="355.0" r="27.0"/>
    <circle cx="258.0" cy="351.0" r="27.54"/>
    <circle cx="261.0" cy="347.0" r="27.88"/>
    <circle cx="264.0" cy="344.0" r="28.0"/>
    <circle cx="264.0" cy="343.0" r="28"/>
    <circle cx="269.0" cy="337.0" r="28.0"/>
    <circle cx="274.0" cy="332.0" r="28.01"/>
    <circle cx="278.0" cy="326.0" r="28.02"/>
    <circle cx="282.0" cy="321.0" r="28.04"/>
    <circle cx="287.0" cy="316.0" r="28.06"/>
    <circle cx="290.0" cy="311.0" r="28.08"/>
    <circle cx="294.0" cy="307.0" r="28.11"/>
    <circle cx="298.0" cy="303.0" r="28.15"/>
    <circle cx="301.0" cy="299.0" r="28.18"/>
    <circle cx="304.0" cy="295.0" r="28.22"/>
    <circle cx="307.0" cy="292.0" r="28.26"/>
    <circle cx="310.0" cy="289.0" r="28.31"/>
    <circle cx="312.0" cy="286.0" r="28.35"/>
    <circle cx="315.0" cy="283.0" r="28.4"/>
    <circle cx="317.0" cy="281.0" r="28.45"/>
    <circle cx="319.0" cy="279.0" r="28.5"/>
    <circle cx="321.0" cy="277.0" r="28.55"/>
    <circle cx="322.0" cy="275.0" r="28.6"/>
    <circle cx="324.0" cy="274.0" r="28.65"/>
    <circle cx="325.0" cy="273.0" r="28.69"/>
    <circle cx="326.0" cy="272.0" r="28.74"/>
    <circle cx="327.0" cy="271.0" r="28.78"/>
    <circle cx="327.0" cy="271.0" r="28.82"/>
    <circle cx="328.0" cy="271.0" r="28.85"/>
    <circle cx="328.0" cy="271.0" r="28.89"/>
    <circle cx="328.0" cy="271.0" r="28.92"/>
    <circle cx="328.0" cy="272.0" r="28.94"/>
    <circle cx="327.0" cy="273.0" r="28.96"/>
    <circle cx="327.0" cy="274.0" r="28.98"/>
    <circle cx="326.0" cy="275.0" r="28.99"/>
    <circle cx="325.0" cy="277.0" r="29.0"/>
    <circle cx="324.0" cy="279.0" r="29"/>
    <circle cx="320.0" cy="285.0" r="29.56"/>
    <circle cx="317.0" cy="291.0" r="31.2"/>
    <circle cx="313.0" cy="297.0" r="33.74"/>
    <circle cx="310.0" cy="302.0" r="36.95"/>
    <circle cx="307.0" cy="307.0" r="40.5"/>
    <circle cx="304.0" cy="311.0" r="44.05"/>
    <circle cx="302.0" cy="315.0" r="47.26"/>
    <circle cx="299.0" cy="319.0" r="49.8"/>
    <circle cx="297.0" cy="322.0" r="51.44"/>
    <circle cx="295.0" cy="325.0" r="52"/>
    <circle cx="294.0" cy="327.0" r="52.01"/>
    <circle cx="293.0" cy="330.0" r="52.06"/>
    <circle cx="291.0" cy="333.0" r="52.13"/>
    <circle cx="290.0" cy="336.0" r="52.22"/>
    <circle cx="289.0" cy="340.0" r="52.32"/>
    <circle cx="288.0" cy="345.0" r="52.44"/>
    <circle cx="287.0" cy="350.0" r="52.56"/>
    <circle cx="286.0" cy="355.0" r="52.68"/>
    <circle cx="285.0" cy="361.0" r="52.78"/>
    <circle cx="284.0" cy="367.0" r="52.87"/>
    <circle cx="283.0" cy="374.0" r="52.94"/>
    <circle cx="283.0" cy="381.0" r="52.99"/>
    <circle cx="282.0" cy="388.0" r="53"/>
    <circle cx="282.0" cy="395.0" r="52.61"/>
    <circle cx="282.0" cy="401.0" r="51.44"/>
    <circle cx="281.0" cy="407.0" r="49.56"/>
    <circle cx="281.0" cy="413.0" r="47.04"/>
    <circle cx="282.0" cy="419.0" r="44.0"/>
    <circle cx="282.0" cy="424.0" r="40.56"/>
    <circle cx="282.0" cy="429.0" r="36.88"/>
    <circle cx="283.0" cy="434.0" r="33.12"/>
    <circle cx="284.0" cy="439.0" r="29.44"/>
    <circle cx="285.0" cy="443.0" r="26.0"/>
    <circle cx="286.0" cy="448.0" r="22.96"/>
    <circle cx="287.0" cy="452.0" r="20.44"/>
    <circle cx="288.0" cy="455.0" r="18.56"/>
    <circle cx="290.0" cy="459.0" r="17.39"/>
    <circle cx="291.0" cy="462.0" r="17"/>
    <circle cx="294.0" cy="467.0" r="17.0"/>
    <circle cx="296.0" cy="472.0" r="17.0"/>
    <circle cx="297.0" cy="477.0" r="17.0"/>
    <circle cx="297.0" cy="481.0" r="17.0"/>
    <circle cx="296.0" cy="484.0" r="17.0"/>
    <circle cx="294.0" cy="487.0" r="17.0"/>
    <circle cx="291.0" cy="489.0" r="17.0"/>
    <circle cx="287.0" cy="491.0" r="17"/>
    <circle cx="284.0" cy="493.0" r="16.95"/>
    <circle cx="280.0" cy="495.0" r="16.81"/>
    <circle cx="278.0" cy="497.0" r="16.59"/>
    <circle cx="275.0" cy="500.0" r="16.31"/>
    <circle cx="272.0" cy="503.0" r="16.0"/>
    <circle cx="270.0" cy="507.0" r="15.69"/>
    <circle cx="267.0" cy="512.0" r="15.41"/>
    <circle cx="265.0" cy="517.0" r="15.19"/>
    <circle cx="264.0" cy="522.0" r="15.05"/>
    <circle cx="262.0" cy="528.0" r="15"/>
    <circle cx="261.0" cy="533.0" r="15.68"/>
    <circle cx="260.0" cy="538.0" r="17.68"/>
    <circle cx="259.0" cy="543.0" r="20.86"/>
    <circle cx="258.0" cy="548.0" r="25.0"/>
    <circle cx="258.0" cy="554.0" r="29.82"/>
    <circle cx="258.0" cy="559.0" r="35.0"/>
    <circle cx="258.0" cy="564.0" r="40.18"/>
    <circle cx="258.0" cy="569.0" r="45.0"/>
    <circle cx="258.0" cy="574.0" r="49.14"/>
    <circle cx="259.0" cy="579.0" r="52.32"/>
    <circle cx="260.0" cy="584.0" r="54.32"/>
    <circle cx="261.0" cy="589.0" r="55"/>
    <circle cx="262.0" cy="594.0" r="54.62"/>
    <circle cx="263.0" cy="599.0" r="53.51"/>
    <circle cx="263.0" cy="604.0" r="51.73"/>
    <circle cx="264.0" cy="609.0" r="49.38"/>
    <circle cx="264.0" cy="614.0" r="46.61"/>
    <circle cx="264.0" cy="619.0" r="43.57"/>
    <circle cx="264.0" cy="624.0" r="40.43"/>
    <circle cx="264.0" cy="629.0" r="37.39"/>
    <circle cx="264.0" cy="634.0" r="34.62"/>
    <circle cx="263.0" cy="640.0" r="32.27"/>
    <circle cx="263.0" cy="645.0" r="30.49"/>
    <circle cx="262.0" cy="650.0" r="29.38"/>
    <circle cx="261.0" cy="656.0" r="29"/>
    <circle cx="260.0" cy="662.0" r="29.12"/>
    <circle cx="259.0" cy="667.0" r="29.46"/>
    <circle cx="257.0" cy="672.0" r="30.01"/>
    <circle cx="256.0" cy="678.0" r="30.73"/>
    <circle cx="255.0" cy="683.0" r="31.58"/>
    <circle cx="254.0" cy="688.0" r="32.52"/>
    <circle cx="253.0" cy="692.0" r="33.48"/>
    <circle cx="251.0" cy="697.0" r="34.42"/>
    <circle cx="250.0" cy="702.0" r="35.27"/>
    <circle cx="249.0" cy="706.0" r="35.99"/>
    <circle cx="247.0" cy="711.0" r="36.54"/>
    <circle cx="246.0" cy="715.0" r="36.88"/>
    <circle cx="245.0" cy="719.0" r="37"/>
    <circle cx="243.0" cy="724.0" r="36.84"/>
    <circle cx="242.0" cy="728.0" r="36.37"/>
    <circle cx="242.0" cy="731.0" r="35.62"/>
    <circle cx="242.0" cy="733.0" r="34.66"/>
    <circle cx="243.0" cy="734.0" r="33.57"/>
    <circle cx="244.0" cy="735.0" r="32.43"/>
    <circle cx="246.0" cy="735.0" r="31.34"/>
    <circle cx="248.0" cy="734.0" r="30.38"/>
    <circle cx="250.0" cy="733.0" r="29.63"/>
    <circle cx="254.0" cy="730.0" r="29.16"/>
    <circle cx="257.0" cy="727.0" r="29"/>
    <circle cx="261.0" cy="724.0" r="29.29"/>
    <circle cx="264.0" cy="721.0" r="30.14"/>
    <circle cx="267.0" cy="717.0" r="31.49"/>
    <circle cx="271.0" cy="713.0" r="33.25"/>
    <circle cx="274.0" cy="710.0" r="35.3"/>
    <circle cx="277.0" cy="706.0" r="37.5"/>
    <circle cx="279.0" cy="701.0" r="39.7"/>
    <circle cx="282.0" cy="697.0" r="41.75"/>
    <circle cx="285.0" cy="692.0" r="43.51"/>
    <circle cx="287.0" cy="688.0" r="44.86"/>
    <circle cx="290.0" cy="683.0" r="45.71"/>
    <circle cx="292.0" cy="678.0" r="46"/>
    <circle cx="294.0" cy="674.0" r="45.85"/>
    <circle cx="295.0" cy="671.0" r="45.39"/>
    <circle cx="297.0" cy="667.0" r="44.65"/>
    <circle cx="298.0" cy="663.0" r="43.65"/>
    <circle cx="300.0" cy="658.0" r="42.42"/>
    <circle cx="301.0" cy="654.0" r="41.01"/>
    <circle cx="302.0" cy="649.0" r="39.46"/>
    <circle cx="304.0" cy="645.0" r="37.83"/>
    <circle cx="305.0" cy="640.0" r="36.17"/>
    <circle cx="306.0" cy="635.0" r="34.54"/>
    <circle cx="307.0" cy="630.0" r="32.99"/>
    <circle cx="308.0" cy="624.0" r="31.58"/>
    <circle cx="310.0" cy="619.0" r="30.35"/>
    <circle cx="311.0" cy="613.0" r="29.35"/>
    <circle cx="312.0" cy="608.0" r="28.61"/>
    <circle cx="313.0" cy="602.0" r="28.15"/>
    <circle cx="314.0" cy="596.0" r="28"/>
    <circle cx="315.0" cy="588.0" r="27.72"/>
    <circle cx="316.0" cy="582.0" r="26.91"/>
    <circle cx="318.0" cy="575.0" r="25.6"/>
    <circle cx="319.0" cy="569.0" r="23.86"/>
    <circle cx="320.0" cy="563.0" r="21.77"/>
    <circle cx="322.0" cy="558.0" r="19.45"/>
    <circle cx="323.0" cy="553.0" r="17.0"/>
    <circle cx="325.0" cy="548.0" r="14.55"/>
    <circle cx="327.0" cy="544.0" r="12.23"/>
    <circle cx="328.0" cy="540.0" r="10.14"/>
    <circle cx="330.0" cy="537.0" r="8.4"/>
    <circle cx="332.0" cy="534.0" r="7.09"/>
    <circle cx="334.0" cy="531.0" r="6.28"/>
    <circle cx="335.0" cy="529.0" r="6"/>
    <circle cx="338.0" cy="526.0" r="6.75"/>
    <circle cx="340.0" cy="523.0" r="8.94"/>
    <circle cx="342.0" cy="519.0" r="12.39"/>
    <circle cx="345.0" cy="515.0" r="16.81"/>
    <circle cx="347.0" cy="511.0" r="21.87"/>
    <circle cx="348.0" cy="506.0" r="27.13"/>
    <circle cx="350.0" cy="502.0" r="32.19"/>
    <circle cx="352.0" cy="497.0" r="36.61"/>
    <circle cx="354.0" cy="491.0" r="40.06"/>
    <circle cx="355.0" cy="485.0" r="42.25"/>
    <circle cx="357.0" cy="479.0" r="43"/>
    <circle cx="358.0" cy="475.0" r="43.02"/>
    <circle cx="359.0" cy="470.0" r="43.08"/>
    <circle cx="360.0" cy="466.0" r="43.17"/>
    <circle cx="362.0" cy="462.0" r="43.29"/>
    <circle cx="364.0" cy="457.0" r="43.44"/>
    <circle cx="365.0" cy="453.0" r="43.62"/>
    <circle cx="367.0" cy="448.0" r="43.8"/>
    <circle cx="369.0" cy="444.0" r="44.0"/>
    <circle cx="371.0" cy="440.0" r="44.2"/>
    <circle cx="374.0" cy="435.0" r="44.38"/>
    <circle cx="376.0" cy="431.0" r="44.56"/>
    <circle cx="379.0" cy="426.0" r="44.71"/>
    <circle cx="382.0" cy="422.0" r="44.83"/>
    <circle cx="385.0" cy="417.0" r="44.92"/>
    <circle cx="388.0" cy="412.0" r="44.98"/>
    <circle cx="391.0" cy="408.0" r="45"/>
    <circle cx="394.0" cy="404.0" r="44.7"/>
    <circle cx="397.0" cy="400.0" r="43.82"/>
    <circle cx="399.0" cy="395.0" r="42.39"/>
    <circle cx="402.0" cy="391.0" r="40.44"/>
    <circle cx="404.0" cy="387.0" r="38.03"/>
    <circle cx="406.0" cy="382.0" r="35.25"/>
    <circle cx="409.0" cy="378.0" r="32.17"/>
    <circle cx="411.0" cy="373.0" r="28.89"/>
    <circle cx="413.0" cy="369.0" r="25.5"/>
    <circle cx="415.0" cy="364.0" r="22.11"/>
    <circle cx="416.0" cy="359.0" r="18.83"/>
    <circle cx="418.0" cy="354.0" r="15.75"/>
    <circle cx="419.0" cy="349.0" r="12.97"/>
    <circle cx="421.0" cy="345.0" r="10.56"/>
    <circle cx="422.0" cy="340.0" r="8.61"/>
    <circle cx="423.0" cy="334.0" r="7.18"/>
    <circle cx="424.0" cy="329.0" r="6.3"/>
    <circle cx="425.0" cy="324.0" r="6"/>
    <circle cx="426.0" cy="318.0" r="6.47"/>
    <circle cx="427.0" cy="312.0" r="7.86"/>
    <circle cx="428.0" cy="306.0" r="10.11"/>
    <circle cx="429.0" cy="300.0" r="13.11"/>
    <circle cx="431.0" cy="295.0" r="16.75"/>
    <circle cx="432.0" cy="290.0" r="20.86"/>
    <circle cx="433.0" cy="285.0" r="25.25"/>
    <circle cx="434.0" cy="280.0" r="29.75"/>
    <circle cx="435.0" cy="275.0" r="34.14"/>
    <circle cx="437.0" cy="271.0" r="38.25"/>
    <circle cx="438.0" cy="266.0" r="41.89"/>
    <circle cx="439.0" cy="262.0" r="44.89"/>
    <circle cx="441.0" cy="258.0" r="47.14"/>
    <circle cx="442.0" cy="254.0" r="48.53"/>
    <circle cx="443.0" cy="251.0" r="49"/>
    <circle cx="444.0" cy="248.0" r="49.05"/>
    <circle cx="446.0" cy="246.0" r="49.2"/>
    <circle cx="447.0" cy="244.0" r="49.45"/>
    <circle cx="449.0" cy="243.0" r="49.78"/>
    <circle cx="450.0" cy="243.0" r="50.19"/>
    <circle cx="451.0" cy="243.0" r="50.66"/>
    <circle cx="453.0" cy="243.0" r="51.18"/>
    <circle cx="455.0" cy="244.0" r="51.72"/>
    <circle cx="456.0" cy="246.0" r="52.28"/>
    <circle cx="458.0" cy="248.0" r="52.82"/>
    <circle cx="460.0" cy="251.0" r="53.34"/>
    <circle cx="461.0" cy="254.0" r="53.81"/>
    <circle cx="463.0" cy="258.0" r="54.22"/>
    <circle cx="465.0" cy="263.0" r="54.55"/>
    <circle cx="467.0" cy="268.0" r="54.8"/>
    <circle cx="469.0" cy="274.0" r="54.95"/>
    <circle cx="471.0" cy="280.0" r="55"/>
    <circle cx="472.0" cy="285.0" r="54.75"/>
    <circle cx="474.0" cy="290.0" r="54.01"/>
    <circle cx="475.0" cy="295.0" r="52.79"/>
    <circle cx="477.0" cy="300.0" r="51.11"/>
    <circle cx="478.0" cy="305.0" r="49.02"/>
    <circle cx="480.0" cy="310.0" r="46.54"/>
    <circle cx="481.0" cy="315.0" r="43.75"/>
    <circle cx="482.0" cy="320.0" r="40.68"/>
    <circle cx="484.0" cy="325.0" r="37.4"/>
    <circle cx="485.0" cy="330.0" r="33.99"/>
    <circle cx="486.0" cy="335.0" r="30.5"/>
    <circle cx="488.0" cy="340.0" r="27.01"/>
    <circle cx="489.0" cy="344.0" r="23.6"/>
    <circle cx="490.0" cy="349.0" r="20.32"/>
    <circle cx="491.0" cy="354.0" r="17.25"/>
    <circle cx="492.0" cy="359.0" r="14.46"/>
    <circle cx="493.0" cy="364.0" r="11.98"/>
    <circle cx="494.0" cy="369.0" r="9.89"/>
    <circle cx="495.0" cy="374.0" r="8.21"/>
    <circle cx="496.0" cy="379.0" r="6.99"/>
    <circle cx="497.0" cy="384.0" r="6.25"/>
    <circle cx="498.0" cy="389.0" r="6"/>
    <circle cx="499.0" cy="395.0" r="6.0"/>
    <circle cx="500.0" cy="400.0" r="6.0"/>
    <circle cx="501.0" cy="406.0" r="6.0"/>
    <circle cx="501.0" cy="411.0" r="6.0"/>
    <circle cx="502.0" cy="417.0" r="6.0"/>
    <circle cx="502.0" cy="422.0" r="6.0"/>
    <circle cx="502.0" cy="427.0" r="6.0"/>
    <circle cx="503.0" cy="432.0" r="6.0"/>
    <circle cx="503.0" cy="437.0" r="6.0"/>
    <circle cx="502.0" cy="442.0" r="6.0"/>
    <circle cx="502.0" cy="447.0" r="6.0"/>
    <circle cx="502.0" cy="452.0" r="6.0"/>
    <circle cx="501.0" cy="457.0" r="6.0"/>
    <circle cx="501.0" cy="461.0" r="6.0"/>
    <circle cx="500.0" cy="466.0" r="6.0"/>
    <circle cx="499.0" cy="470.0" r="6.0"/>
    <circle cx="498.0" cy="475.0" r="6.0"/>
    <circle cx="497.0" cy="479.0" r="6.0"/>
    <circle cx="496.0" cy="483.0" r="6"/>
    <circle cx="495.0" cy="486.0" r="6.16"/>
    <circle cx="494.0" cy="490.0" r="6.63"/>
    <circle cx="493.0" cy="494.0" r="7.41"/>
    <circle cx="492.0" cy="497.0" r="8.48"/>
    <circle cx="492.0" cy="501.0" r="9.82"/>
    <circle cx="491.0" cy="505.0" r="11.42"/>
    <circle cx="491.0" cy="509.0" r="13.24"/>
    <circle cx="490.0" cy="514.0" r="15.25"/>
    <circle cx="490.0" cy="518.0" r="17.42"/>
    <circle cx="489.0" cy="523.0" r="19.71"/>
    <circle cx="489.0" cy="527.0" r="22.09"/>
    <circle cx="489.0" cy="532.0" r="24.5"/>
    <circle cx="489.0" cy="537.0" r="26.91"/>
    <circle cx="489.0" cy="542.0" r="29.29"/>
    <circle cx="489.0" cy="548.0" r="31.58"/>
    <circle cx="490.0" cy="553.0" r="33.75"/>
    <circle cx="490.0" cy="559.0" r="35.76"/>
    <circle cx="490.0" cy="564.0" r="37.58"/>
    <circle cx="491.0" cy="570.0" r="39.18"/>
    <circle cx="491.0" cy="576.0" r="40.52"/>
    <circle cx="492.0" cy="582.0" r="41.59"/>
    <circle cx="493.0" cy="588.0" r="42.37"/>
    <circle cx="493.0" cy="595.0" r="42.84"/>
    <circle cx="494.0" cy="601.0" r="43"/>
    <circle cx="495.0" cy="607.0" r="42.97"/>
    <circle cx="496.0" cy="613.0" r="42.88"/>
    <circle cx="497.0" cy="619.0" r="42.74"/>
    <circle cx="498.0" cy="625.0" r="42.54"/>
    <circle cx="499.0" cy="630.0" r="42.29"/>
    <circle cx="500.0" cy="636.0" r="41.99"/>
    <circle cx="501.0" cy="641.0" r="41.65"/>
    <circle cx="502.0" cy="646.0" r="41.27"/>
    <circle cx="504.0" cy="652.0" r="40.86"/>
    <circle cx="505.0" cy="657.0" r="40.42"/>
    <circle cx="506.0" cy="662.0" r="39.96"/>
    <circle cx="507.0" cy="667.0" r="39.48"/>
    <circle cx="509.0" cy="672.0" r="39.0"/>
    <circle cx="510.0" cy="676.0" r="38.52"/>
    <circle cx="512.0" cy="681.0" r="38.04"/>
    <circle cx="513.0" cy="686.0" r="37.58"/>
    <circle cx="515.0" cy="690.0" r="37.14"/>
    <circle cx="516.0" cy="695.0" r="36.73"/>
    <circle cx="518.0" cy="699.0" r="36.35"/>
    <circle cx="519.0" cy="703.0" r="36.01"/>
    <circle cx="521.0" cy="707.0" r="35.71"/>
    <circle cx="523.0" cy="711.0" r="35.46"/>
    <circle cx="525.0" cy="715.0" r="35.26"/>
    <circle cx="526.0" cy="719.0" r="35.12"/>
    <circle cx="528.0" cy="723.0" r="35.03"/>
    <circle cx="530.0" cy="726.0" r="35"/>
    <circle cx="532.0" cy="730.0" r="35.04"/>
    <circle cx="534.0" cy="734.0" r="35.15"/>
    <circle cx="536.0" cy="737.0" r="35.33"/>
    <circle cx="538.0" cy="740.0" r="35.58"/>
    <circle cx="540.0" cy="742.0" r="35.9"/>
    <circle cx="542.0" cy="744.0" r="36.27"/>
    <circle cx="544.0" cy="745.0" r="36.69"/>
    <circle cx="546.0" cy="746.0" r="37.16"/>
    <circle cx="547.0" cy="747.0" r="37.66"/>
    <circle cx="549.0" cy="747.0" r="38.19"/>
    <circle cx="551.0" cy="746.0" r="38.73"/>
    <circle cx="552.0" cy="746.0" r="39.27"/>
    <circle cx="554.0" cy="745.0" r="39.81"/>
    <circle cx="555.0" cy="743.0" r="40.34"/>
    <circle cx="557.0" cy="741.0" r="40.84"/>
    <circle cx="558.0" cy="739.0" r="41.31"/>
    <circle cx="559.0" cy="736.0" r="41.73"/>
    <circle cx="561.0" cy="733.0" r="42.1"/>
    <circle cx="562.0" cy="730.0" r="42.42"/>
    <circle cx="563.0" cy="726.0" r="42.67"/>
    <circle cx="564.0" cy="721.0" r="42.85"/>
    <circle cx="565.0" cy="717.0" r="42.96"/>
    <circle cx="566.0" cy="711.0" r="43"/>
    <circle cx="567.0" cy="706.0" r="42.93"/>
    <circle cx="568.0" cy="702.0" r="42.7"/>
    <circle cx="569.0" cy="697.0" r="42.33"/>
    <circle cx="570.0" cy="692.0" r="41.82"/>
    <circle cx="571.0" cy="687.0" r="41.19"/>
    <circle cx="572.0" cy="682.0" r="40.43"/>
    <circle cx="572.0" cy="677.0" r="39.56"/>
    <circle cx="573.0" cy="672.0" r="38.59"/>
    <circle cx="574.0" cy="667.0" r="37.54"/>
    <circle cx="575.0" cy="662.0" r="36.44"/>
    <circle cx="576.0" cy="657.0" r="35.28"/>
    <circle cx="577.0" cy="652.0" r="34.1"/>
    <circle cx="578.0" cy="647.0" r="32.9"/>
    <circle cx="579.0" cy="642.0" r="31.72"/>
    <circle cx="579.0" cy="637.0" r="30.56"/>
    <circle cx="580.0" cy="632.0" r="29.46"/>
    <circle cx="581.0" cy="627.0" r="28.41"/>
    <circle cx="582.0" cy="622.0" r="27.44"/>
    <circle cx="583.0" cy="617.0" r="26.57"/>
    <circle cx="584.0" cy="612.0" r="25.81"/>
    <circle cx="585.0" cy="607.0" r="25.18"/>
    <circle cx="585.0" cy="603.0" r="24.67"/>
    <circle cx="586.0" cy="598.0" r="24.3"/>
    <circle cx="587.0" cy="593.0" r="24.07"/>
    <circle cx="588.0" cy="588.0" r="24"/>
    <circle cx="589.0" cy="582.0" r="23.91"/>
    <circle cx="590.0" cy="576.0" r="23.64"/>
    <circle cx="590.0" cy="571.0" r="23.21"/>
    <circle cx="591.0" cy="565.0" r="22.61"/>
    <circle cx="591.0" cy="560.0" r="21.86"/>
    <circle cx="592.0" cy="554.0" r="20.99"/>
    <circle cx="592.0" cy="549.0" r="20.0"/>
    <circle cx="592.0" cy="544.0" r="18.92"/>
    <circle cx="592.0" cy="539.0" r="17.78"/>
    <circle cx="592.0" cy="534.0" r="16.6"/>
    <circle cx="592.0" cy="529.0" r="15.4"/>
    <circle cx="592.0" cy="524.0" r="14.22"/>
    <circle cx="592.0" cy="519.0" r="13.08"/>
    <circle cx="591.0" cy="515.0" r="12.0"/>
    <circle cx="591.0" cy="510.0" r="11.01"/>
    <circle cx="590.0" cy="506.0" r="10.14"/>
    <circle cx="589.0" cy="502.0" r="9.39"/>
    <circle cx="588.0" cy="497.0" r="8.79"/>
    <circle cx="587.0" cy="493.0" r="8.36"/>
    <circle cx="586.0" cy="489.0" r="8.09"/>
    <circle cx="585.0" cy="485.0" r="8"/>
    <circle cx="584.0" cy="482.0" r="8.2"/>
    <circle cx="583.0" cy="478.0" r="8.8"/>
    <circle cx="582.0" cy="474.0" r="9.78"/>
    <circle cx="582.0" cy="470.0" r="11.13"/>
    <circle cx="581.0" cy="466.0" r="12.82"/>
    <circle cx="581.0" cy="462.0" r="14.83"/>
    <circle cx="581.0" cy="458.0" r="17.1"/>
    <circle cx="581.0" cy="454.0" r="19.61"/>
    <circle cx="582.0" cy="450.0" r="22.3"/>
    <circle cx="582.0" cy="445.0" r="25.13"/>
    <circle cx="583.0" cy="441.0" r="28.03"/>
    <circle cx="584.0" cy="436.0" r="30.97"/>
    <circle cx="585.0" cy="431.0" r="33.87"/>
    <circle cx="586.0" cy="426.0" r="36.7"/>
    <circle cx="588.0" cy="421.0" r="39.39"/>
    <circle cx="590.0" cy="416.0" r="41.9"/>
    <circle cx="592.0" cy="411.0" r="44.17"/>
    <circle cx="594.0" cy="406.0" r="46.18"/>
    <circle cx="596.0" cy="401.0" r="47.87"/>
    <circle cx="598.0" cy="395.0" r="49.22"/>
    <circle cx="601.0" cy="390.0" r="50.2"/>
    <circle cx="604.0" cy="384.0" r="50.8"/>
    <circle cx="607.0" cy="379.0" r="51"/>
    <circle cx="610.0" cy="373.0" r="50.95"/>
    <circle cx="613.0" cy="367.0" r="50.82"/>
    <circle cx="616.0" cy="361.0" r="50.59"/>
    <circle cx="619.0" cy="355.0" r="50.29"/>
    <circle cx="622.0" cy="350.0" r="49.9"/>
    <circle cx="624.0" cy="345.0" r="49.45"/>
    <circle cx="627.0" cy="339.0" r="48.93"/>
    <circle cx="629.0" cy="334.0" r="48.37"/>
    <circle cx="631.0" cy="329.0" r="47.77"/>
    <circle cx="633.0" cy="324.0" r="47.14"/>
    <circle cx="635.0" cy="320.0" r="46.5"/>
    <circle cx="637.0" cy="315.0" r="45.86"/>
    <circle cx="639.0" cy="311.0" r="45.23"/>
    <circle cx="641.0" cy="306.0" r="44.63"/>
    <circle cx="642.0" cy="302.0" r="44.07"/>
    <circle cx="644.0" cy="298.0" r="43.55"/>
    <circle cx="645.0" cy="294.0" r="43.1"/>
    <circle cx="646.0" cy="290.0" r="42.71"/>
    <circle cx="647.0" cy="286.0" r="42.41"/>
    <circle cx="648.0" cy="282.0" r="42.18"/>
    <circle cx="649.0" cy="279.0" r="42.05"/>
    <circle cx="650.0" cy="275.0" r="42"/>
    <circle cx="650.0" cy="274.0" r="41.99"/>
    <circle cx="650.0" cy="273.0" r="41.98"/>
    <circle cx="651.0" cy="272.0" r="41.94"/>
    <circle cx="651.0" cy="272.0" r="41.9"/>
    <circle cx="651.0" cy="271.0" r="41.85"/>
    <circle cx="651.0" cy="271.0" r="41.78"/>
    <circle cx="651.0" cy="271.0" r="41.7"/>
    <circle cx="651.0" cy="271.0" r="41.61"/>
    <circle cx="652.0" cy="271.0" r="41.51"/>
    <circle cx="652.0" cy="271.0" r="41.4"/>
    <circle cx="652.0" cy="272.0" r="41.27"/>
    <circle cx="652.0" cy="272.0" r="41.14"/>
    <circle cx="652.0" cy="273.0" r="41.0"/>
    <circle cx="652.0" cy="274.0" r="40.84"/>
    <circle cx="652.0" cy="275.0" r="40.68"/>
    <circle cx="652.0" cy="277.0" r="40.51"/>
    <circle cx="652.0" cy="278.0" r="40.33"/>
    <circle cx="652.0" cy="280.0" r="40.15"/>
    <circle cx="652.0" cy="282.0" r="39.95"/>
    <circle cx="652.0" cy="284.0" r="39.75"/>
    <circle cx="652.0" cy="286.0" r="39.54"/>
    <circle cx="652.0" cy="288.0" r="39.33"/>
    <circle cx="652.0" cy="291.0" r="39.11"/>
    <circle cx="652.0" cy="293.0" r="38.89"/>
    <circle cx="652.0" cy="296.0" r="38.66"/>
    <circle cx="652.0" cy="299.0" r="38.44"/>
    <circle cx="652.0" cy="302.0" r="38.2"/>
    <circle cx="652.0" cy="306.0" r="37.97"/>
    <circle cx="651.0" cy="309.0" r="37.74"/>
    <circle cx="651.0" cy="313.0" r="37.5"/>
    <circle cx="651.0" cy="316.0" r="37.26"/>
    <circle cx="651.0" cy="320.0" r="37.03"/>
    <circle cx="651.0" cy="325.0" r="36.8"/>
    <circle cx="651.0" cy="329.0" r="36.56"/>
    <circle cx="650.0" cy="333.0" r="36.34"/>
    <circle cx="650.0" cy="338.0" r="36.11"/>
    <circle cx="650.0" cy="343.0" r="35.89"/>
    <circle cx="650.0" cy="348.0" r="35.67"/>
    <circle cx="649.0" cy="353.0" r="35.46"/>
    <circle cx="649.0" cy="358.0" r="35.25"/>
    <circle cx="649.0" cy="364.0" r="35.05"/>
    <circle cx="648.0" cy="369.0" r="34.85"/>
    <circle cx="648.0" cy="375.0" r="34.67"/>
    <circle cx="648.0" cy="381.0" r="34.49"/>
    <circle cx="647.0" cy="387.0" r="34.32"/>
    <circle cx="647.0" cy="394.0" r="34.16"/>
    <circle cx="647.0" cy="400.0" r="34.0"/>
    <circle cx="646.0" cy="407.0" r="33.86"/>
    <circle cx="646.0" cy="414.0" r="33.73"/>
    <circle cx="645.0" cy="421.0" r="33.6"/>
    <circle cx="645.0" cy="428.0" r="33.49"/>
    <circle cx="645.0" cy="435.0" r="33.39"/>
    <circle cx="644.0" cy="442.0" r="33.3"/>
    <circle cx="644.0" cy="450.0" r="33.22"/>
    <circle cx="643.0" cy="458.0" r="33.15"/>
    <circle cx="643.0" cy="466.0" r="33.1"/>
    <circle cx="642.0" cy="474.0" r="33.06"/>
    <circle cx="642.0" cy="482.0" r="33.02"/>
    <circle cx="641.0" cy="491.0" r="33.01"/>
    <circle cx="641.0" cy="499.0" r="33"/>
    <circle cx="640.0" cy="506.0" r="33.0"/>
    <circle cx="640.0" cy="513.0" r="33.01"/>
    <circle cx="639.0" cy="519.0" r="33.02"/>
    <circle cx="639.0" cy="526.0" r="33.04"/>
    <circle cx="639.0" cy="532.0" r="33.06"/>
    <circle cx="638.0" cy="538.0" r="33.09"/>
    <circle cx="638.0" cy="544.0" r="33.12"/>
    <circle cx="638.0" cy="550.0" r="33.16"/>
    <circle cx="637.0" cy="556.0" r="33.21"/>
    <circle cx="637.0" cy="562.0" r="33.25"/>
    <circle cx="637.0" cy="567.0" r="33.3"/>
    <circle cx="637.0" cy="573.0" r="33.36"/>
    <circle cx="636.0" cy="578.0" r="33.42"/>
    <circle cx="636.0" cy="583.0" r="33.49"/>
    <circle cx="636.0" cy="588.0" r="33.56"/>
    <circle cx="636.0" cy="593.0" r="33.63"/>
    <circle cx="636.0" cy="598.0" r="33.71"/>
    <circle cx="636.0" cy="602.0" r="33.79"/>
    <circle cx="636.0" cy="607.0" r="33.88"/>
    <circle cx="636.0" cy="611.0" r="33.97"/>
    <circle cx="636.0" cy="615.0" r="34.06"/>
    <circle cx="636.0" cy="619.0" r="34.16"/>
    <circle cx="636.0" cy="623.0" r="34.26"/>
    <circle cx="636.0" cy="627.0" r="34.36"/>
    <circle cx="636.0" cy="631.0" r="34.46"/>
    <circle cx="636.0" cy="635.0" r="34.57"/>
    <circle cx="636.0" cy="638.0" r="34.68"/>
    <circle cx="636.0" cy="641.0" r="34.79"/>
    <circle cx="636.0" cy="645.0" r="34.91"/>
    <circle cx="636.0" cy="648.0" r="35.03"/>
    <circle cx="636.0" cy="651.0" r="35.14"/>
    <circle cx="637.0" cy="653.0" r="35.26"/>
    <circle cx="637.0" cy="656.0" r="35.38"/>
    <circle cx="637.0" cy="659.0" r="35.51"/>
    <circle cx="637.0" cy="661.0" r="35.63"/>
    <circle cx="638.0" cy="663.0" r="35.75"/>
    <circle cx="638.0" cy="665.0" r="35.88"/>
    <circle cx="638.0" cy="667.0" r="36.0"/>
    <circle cx="638.0" cy="669.0" r="36.12"/>
    <circle cx="639.0" cy="671.0" r="36.25"/>
    <circle cx="639.0" cy="673.0" r="36.37"/>
    <circle cx="640.0" cy="674.0" r="36.49"/>
    <circle cx="640.0" cy="676.0" r="36.62"/>
    <circle cx="640.0" cy="677.0" r="36.74"/>
    <circle cx="641.0" cy="678.0" r="36.86"/>
    <circle cx="641.0" cy="679.0" r="36.97"/>
    <circle cx="642.0" cy="680.0" r="37.09"/>
    <circle cx="642.0" cy="681.0" r="37.21"/>
    <circle cx="643.0" cy="681.0" r="37.32"/>
    <circle cx="643.0" cy="682.0" r="37.43"/>
    <circle cx="644.0" cy="682.0" r="37.54"/>
    <circle cx="645.0" cy="682.0" r="37.64"/>
    <circle cx="645.0" cy="682.0" r="37.74"/>
    <circle cx="646.0" cy="682.0" r="37.84"/>
    <circle cx="647.0" cy="682.0" r="37.94"/>
    <circle cx="647.0" cy="682.0" r="38.03"/>
    <circle cx="648.0" cy="681.0" r="38.12"/>
    <circle cx="649.0" cy="681.0" r="38.21"/>
    <circle cx="649.0" cy="680.0" r="38.29"/>
    <circle cx="650.0" cy="679.0" r="38.37"/>
    <circle cx="651.0" cy="678.0" r="38.44"/>
    <circle cx="652.0" cy="677.0" r="38.51"/>
    <circle cx="652.0" cy="676.0" r="38.58"/>
    <circle cx="653.0" cy="675.0" r="38.64"/>
    <circle cx="654.0" cy="673.0" r="38.7"/>
    <circle cx="655.0" cy="672.0" r="38.75"/>
    <circle cx="656.0" cy="670.0" r="38.79"/>
    <circle cx="657.0" cy="668.0" r="38.84"/>
    <circle cx="658.0" cy="666.0" r="38.88"/>
    <circle cx="659.0" cy="664.0" r="38.91"/>
    <circle cx="660.0" cy="662.0" r="38.94"/>
    <circle cx="661.0" cy="659.0" r="38.96"/>
    <circle cx="662.0" cy="657.0" r="38.98"/>
    <circle cx="663.0" cy="654.0" r="38.99"/>
    <circle cx="664.0" cy="651.0" r="39.0"/>
    <circle cx="665.0" cy="649.0" r="39"/>
    <circle cx="667.0" cy="643.0" r="39.0"/>
    <circle cx="669.0" cy="638.0" r="38.98"/>
    <circle cx="671.0" cy="632.0" r="38.96"/>
    <circle cx="673.0" cy="627.0" r="38.93"/>
    <circle cx="674.0" cy="622.0" r="38.89"/>
    <circle cx="676.0" cy="616.0" r="38.84"/>
    <circle cx="678.0" cy="611.0" r="38.79"/>
    <circle cx="680.0" cy="606.0" r="38.73"/>
    <circle cx="681.0" cy="601.0" r="38.66"/>
    <circle cx="683.0" cy="595.0" r="38.58"/>
    <circle cx="684.0" cy="590.0" r="38.5"/>
    <circle cx="686.0" cy="585.0" r="38.41"/>
    <circle cx="687.0" cy="580.0" r="38.32"/>
    <circle cx="689.0" cy="575.0" r="38.22"/>
    <circle cx="690.0" cy="570.0" r="38.11"/>
    <circle cx="691.0" cy="565.0" r="38.01"/>
    <circle cx="692.0" cy="560.0" r="37.9"/>
    <circle cx="694.0" cy="555.0" r="37.79"/>
    <circle cx="695.0" cy="550.0" r="37.67"/>
    <circle cx="696.0" cy="545.0" r="37.56"/>
    <circle cx="697.0" cy="540.0" r="37.44"/>
    <circle cx="698.0" cy="536.0" r="37.33"/>
    <circle cx="699.0" cy="531.0" r="37.21"/>
    <circle cx="700.0" cy="526.0" r="37.1"/>
    <circle cx="701.0" cy="521.0" r="36.99"/>
    <circle cx="701.0" cy="517.0" r="36.89"/>
    <circle cx="702.0" cy="512.0" r="36.78"/>
    <circle cx="703.0" cy="507.0" r="36.68"/>
    <circle cx="704.0" cy="503.0" r="36.59"/>
    <circle cx="704.0" cy="498.0" r="36.5"/>
    <circle cx="705.0" cy="494.0" r="36.42"/>
    <circle cx="705.0" cy="489.0" r="36.34"/>
    <circle cx="706.0" cy="485.0" r="36.27"/>
    <circle cx="706.0" cy="480.0" r="36.21"/>
    <circle cx="707.0" cy="476.0" r="36.16"/>
    <circle cx="707.0" cy="471.0" r="36.11"/>
    <circle cx="707.0" cy="467.0" r="36.07"/>
    <circle cx="708.0" cy="463.0" r="36.04"/>
    <circle cx="708.0" cy="458.0" r="36.02"/>
    <circle cx="708.0" cy="454.0" r="36.0"/>
    <circle cx="708.0" cy="450.0" r="36"/>
    <circle cx="708.0" cy="445.0" r="36.0"/>
    <circle cx="708.0" cy="441.0" r="36.01"/>
    <circle cx="709.0" cy="436.0" r="36.02"/>
    <circle cx="709.0" cy="432.0" r="36.03"/>
    <circle cx="709.0" cy="427.0" r="36.04"/>
    <circle cx="710.0" cy="422.0" r="36.06"/>
    <circle cx="710.0" cy="418.0" r="36.08"/>
    <circle cx="711.0" cy="413.0" r="36.11"/>
    <circle cx="711.0" cy="408.0" r="36.13"/>
    <circle cx="712.0" cy="404.0" r="36.16"/>
    <circle cx="713.0" cy="399.0" r="36.19"/>
    <circle cx="713.0" cy="394.0" r="36.23"/>
    <circle cx="714.0" cy="390.0" r="36.26"/>
    <circle cx="715.0" cy="385.0" r="36.3"/>
    <circle cx="716.0" cy="380.0" r="36.34"/>
    <circle cx="717.0" cy="375.0" r="36.38"/>
    <circle cx="718.0" cy="371.0" r="36.42"/>
    <circle cx="719.0" cy="366.0" r="36.46"/>
    <circle cx="720.0" cy="361.0" r="36.5"/>
    <circle cx="721.0" cy="356.0" r="36.54"/>
    <circle cx="723.0" cy="351.0" r="36.58"/>
    <circle cx="724.0" cy="347.0" r="36.62"/>
    <circle cx="725.0" cy="342.0" r="36.66"/>
    <circle cx="727.0" cy="337.0" r="36.7"/>
    <circle cx="728.0" cy="332.0" r="36.74"/>
    <circle cx="730.0" cy="327.0" r="36.77"/>
    <circle cx="731.0" cy="322.0" r="36.81"/>
    <circle cx="733.0" cy="317.0" r="36.84"/>
    <circle cx="735.0" cy="312.0" r="36.87"/>
    <circle cx="736.0" cy="307.0" r="36.89"/>
    <circle cx="738.0" cy="302.0" r="36.92"/>
    <circle cx="740.0" cy="297.0" r="36.94"/>
    <circle cx="742.0" cy="292.0" r="36.96"/>
    <circle cx="744.0" cy="287.0" r="36.97"/>
    <circle cx="746.0" cy="282.0" r="36.98"/>
    <circle cx="748.0" cy="277.0" r="36.99"/>
    <circle cx="750.0" cy="272.0" r="37.0"/>
    <circle cx="753.0" cy="267.0" r="37"/>
    <circle cx="755.0" cy="261.0" r="37.01"/>
    <circle cx="758.0" cy="255.0" r="37.05"/>
    <circle cx="760.0" cy="249.0" r="37.11"/>
    <circle cx="763.0" cy="244.0" r="37.2"/>
    <circle cx="765.0" cy="239.0" r="37.31"/>
    <circle cx="767.0" cy="235.0" r="37.45"/>
    <circle cx="769.0" cy="231.0" r="37.6"/>
    <circle cx="771.0" cy="227.0" r="37.78"/>
    <circle cx="773.0" cy="223.0" r="37.97"/>
    <circle cx="775.0" cy="220.0" r="38.18"/>
    <circle cx="776.0" cy="217.0" r="38.4"/>
    <circle cx="778.0" cy="214.0" r="38.63"/>
    <circle cx="779.0" cy="211.0" r="38.87"/>
    <circle cx="781.0" cy="209.0" r="39.12"/>
    <circle cx="782.0" cy="208.0" r="39.37"/>
    <circle cx="783.0" cy="206.0" r="39.63"/>
    <circle cx="784.0" cy="205.0" r="39.88"/>
    <circle cx="785.0" cy="204.0" r="40.13"/>
    <circle cx="786.0" cy="203.0" r="40.37"/>
    <circle cx="786.0" cy="203.0" r="40.6"/>
    <circle cx="787.0" cy="203.0" r="40.82"/>
    <circle cx="787.0" cy="203.0" r="41.03"/>
    <circle cx="788.0" cy="204.0" r="41.22"/>
    <circle cx="788.0" cy="205.0" r="41.4"/>
    <circle cx="788.0" cy="206.0" r="41.55"/>
    <circle cx="788.0" cy="208.0" r="41.69"/>
    <circle cx="788.0" cy="209.0" r="41.8"/>
    <circle cx="788.0" cy="212.0" r="41.89"/>
    <circle cx="787.0" cy="214.0" r="41.95"/>
    <circle cx="787.0" cy="217.0" r="41.99"/>
    <circle cx="786.0" cy="220.0" r="42"/>
    <circle cx="786.0" cy="224.0" r="41.96"/>
    <circle cx="785.0" cy="229.0" r="41.85"/>
    <circle cx="784.0" cy="233.0" r="41.67"/>
    <circle cx="784.0" cy="238.0" r="41.42"/>
    <circle cx="783.0" cy="242.0" r="41.1"/>
    <circle cx="783.0" cy="247.0" r="40.73"/>
    <circle cx="783.0" cy="251.0" r="40.31"/>
    <circle cx="782.0" cy="256.0" r="39.84"/>
    <circle cx="782.0" cy="261.0" r="39.34"/>
    <circle cx="782.0" cy="266.0" r="38.81"/>
    <circle cx="782.0" cy="271.0" r="38.27"/>
    <circle cx="782.0" cy="276.0" r="37.73"/>
    <circle cx="782.0" cy="281.0" r="37.19"/>
    <circle cx="782.0" cy="286.0" r="36.66"/>
    <circle cx="783.0" cy="291.0" r="36.16"/>
    <circle cx="783.0" cy="296.0" r="35.69"/>
    <circle cx="783.0" cy="301.0" r="35.27"/>
    <circle cx="784.0" cy="307.0" r="34.9"/>
    <circle cx="784.0" cy="312.0" r="34.58"/>
    <circle cx="785.0" cy="317.0" r="34.33"/>
    <circle cx="785.0" cy="323.0" r="34.15"/>
    <circle cx="786.0" cy="328.0" r="34.04"/>
    <circle cx="787.0" cy="334.0" r="34"/>
    <circle cx="787.0" cy="339.0" r="33.94"/>
    <circle cx="788.0" cy="344.0" r="33.76"/>
    <circle cx="789.0" cy="349.0" r="33.47"/>
    <circle cx="789.0" cy="354.0" r="33.07"/>
    <circle cx="789.0" cy="359.0" r="32.57"/>
    <circle cx="789.0" cy="364.0" r="31.97"/>
    <circle cx="790.0" cy="369.0" r="31.28"/>
    <circle cx="790.0" cy="374.0" r="30.52"/>
    <circle cx="789.0" cy="379.0" r="29.69"/>
    <circle cx="789.0" cy="384.0" r="28.82"/>
    <circle cx="789.0" cy="389.0" r="27.91"/>
    <circle cx="789.0" cy="394.0" r="26.97"/>
    <circle cx="788.0" cy="399.0" r="26.03"/>
    <circle cx="788.0" cy="404.0" r="25.09"/>
    <circle cx="787.0" cy="408.0" r="24.18"/>
    <circle cx="786.0" cy="413.0" r="23.31"/>
    <circle cx="785.0" cy="418.0" r="22.48"/>
    <circle cx="784.0" cy="423.0" r="21.72"/>
    <circle cx="783.0" cy="427.0" r="21.03"/>
    <circle cx="782.0" cy="432.0" r="20.43"/>
    <circle cx="781.0" cy="436.0" r="19.93"/>
    <circle cx="780.0" cy="441.0" r="19.53"/>
    <circle cx="778.0" cy="446.0" r="19.24"/>
    <circle cx="777.0" cy="450.0" r="19.06"/>
    <circle cx="775.0" cy="455.0" r="19"/>
    <circle cx="773.0" cy="460.0" r="19.0"/>
    <circle cx="771.0" cy="465.0" r="19.0"/>
    <circle cx="770.0" cy="471.0" r="19.0"/>
    <circle cx="768.0" cy="476.0" r="19.0"/>
    <circle cx="767.0" cy="481.0" r="19.0"/>
    <circle cx="765.0" cy="486.0" r="19.0"/>
    <circle cx="764.0" cy="492.0" r="19.0"/>
    <circle cx="763.0" cy="497.0" r="19.0"/>
    <circle cx="762.0" cy="502.0" r="19.0"/>
    <circle cx="761.0" cy="507.0" r="19.0"/>
    <circle cx="760.0" cy="512.0" r="19.0"/>
    <circle cx="759.0" cy="517.0" r="19.0"/>
    <circle cx="759.0" cy="522.0" r="19.0"/>
    <circle cx="758.0" cy="526.0" r="19.0"/>
    <circle cx="758.0" cy="531.0" r="19.0"/>
    <circle cx="758.0" cy="536.0" r="19.0"/>
    <circle cx="758.0" cy="541.0" r="19.0"/>
    <circle cx="758.0" cy="546.0" r="19.0"/>
    <circle cx="758.0" cy="550.0" r="19.0"/>
    <circle cx="758.0" cy="555.0" r="19.0"/>
    <circle cx="758.0" cy="560.0" r="19"/>
    <circle cx="759.0" cy="564.0" r="18.93"/>
    <circle cx="759.0" cy="569.0" r="18.71"/>
    <circle cx="760.0" cy="574.0" r="18.35"/>
    <circle cx="761.0" cy="579.0" r="17.85"/>
    <circle cx="762.0" cy="584.0" r="17.24"/>
    <circle cx="763.0" cy="589.0" r="16.53"/>
    <circle cx="764.0" cy="593.0" r="15.72"/>
    <circle cx="766.0" cy="598.0" r="14.85"/>
    <circle cx="767.0" cy="603.0" r="13.94"/>
    <circle cx="769.0" cy="608.0" r="13.0"/>
    <circle cx="770.0" cy="612.0" r="12.06"/>
    <circle cx="772.0" cy="617.0" r="11.15"/>
    <circle cx="774.0" cy="622.0" r="10.28"/>
    <circle cx="777.0" cy="627.0" r="9.47"/>
    <circle cx="779.0" cy="631.0" r="8.76"/>
    <circle cx="781.0" cy="636.0" r="8.15"/>
    <circle cx="784.0" cy="641.0" r="7.65"/>
    <circle cx="786.0" cy="646.0" r="7.29"/>
    <circle cx="789.0" cy="650.0" r="7.07"/>
    <circle cx="792.0" cy="655.0" r="7"/>
    <circle cx="796.0" cy="661.0" r="7.4"/>
    <circle cx="799.0" cy="666.0" r="8.59"/>
    <circle cx="801.0" cy="671.0" r="10.52"/>
    <circle cx="803.0" cy="676.0" r="13.13"/>
    <circle cx="805.0" cy="681.0" r="16.34"/>
    <circle cx="807.0" cy="685.0" r="20.03"/>
    <circle cx="808.0" cy="690.0" r="24.07"/>
    <circle cx="809.0" cy="694.0" r="28.33"/>
    <circle cx="810.0" cy="698.0" r="32.67"/>
    <circle cx="810.0" cy="703.0" r="36.93"/>
    <circle cx="810.0" cy="706.0" r="40.97"/>
    <circle cx="809.0" cy="710.0" r="44.66"/>
    <circle cx="808.0" cy="714.0" r="47.87"/>
    <circle cx="807.0" cy="717.0" r="50.48"/>
    <circle cx="805.0" cy="720.0" r="52.41"/>
    <circle cx="803.0" cy="724.0" r="53.6"/>
    <circle cx="801.0" cy="726.0" r="54"/>
    <circle cx="800.0" cy="727.0" r="53.99"/>
    <circle cx="800.0" cy="728.0" r="53.97"/>
    <circle cx="799.0" cy="728.0" r="53.94"/>
    <circle cx="799.0" cy="729.0" r="53.9"/>
    <circle cx="799.0" cy="729.0" r="53.84"/>
    <circle cx="799.0" cy="729.0" r="53.78"/>
    <circle cx="799.0" cy="729.0" r="53.7"/>
    <circle cx="799.0" cy="729.0" r="53.6"/>
    <circle cx="799.0" cy="729.0" r="53.5"/>
    <circle cx="799.0" cy="728.0" r="53.39"/>
    <circle cx="800.0" cy="727.0" r="53.26"/>
    <circle cx="800.0" cy="727.0" r="53.13"/>
    <circle cx="801.0" cy="726.0" r="52.98"/>
    <circle cx="802.0" cy="725.0" r="52.83"/>
    <circle cx="803.0" cy="723.0" r="52.67"/>
    <circle cx="804.0" cy="722.0" r="52.49"/>
    <circle cx="805.0" cy="721.0" r="52.31"/>
    <circle cx="806.0" cy="719.0" r="52.13"/>
    <circle cx="807.0" cy="717.0" r="51.93"/>
    <circle cx="809.0" cy="715.0" r="51.74"/>
    <circle cx="810.0" cy="713.0" r="51.53"/>
    <circle cx="812.0" cy="711.0" r="51.32"/>
    <circle cx="814.0" cy="709.0" r="51.11"/>
    <circle cx="815.0" cy="706.0" r="50.89"/>
    <circle cx="817.0" cy="704.0" r="50.67"/>
    <circle cx="819.0" cy="701.0" r="50.45"/>
    <circle cx="822.0" cy="698.0" r="50.22"/>
    <circle cx="824.0" cy="695.0" r="50.0"/>
    <circle cx="826.0" cy="692.0" r="49.78"/>
    <circle cx="829.0" cy="688.0" r="49.55"/>
    <circle cx="832.0" cy="685.0" r="49.33"/>
    <circle cx="834.0" cy="681.0" r="49.11"/>
    <circle cx="837.0" cy="677.0" r="48.89"/>
    <circle cx="840.0" cy="673.0" r="48.68"/>
    <circle cx="843.0" cy="669.0" r="48.47"/>
    <circle cx="847.0" cy="665.0" r="48.26"/>
    <circle cx="850.0" cy="661.0" r="48.07"/>
    <circle cx="853.0" cy="656.0" r="47.87"/>
    <circle cx="857.0" cy="652.0" r="47.69"/>
    <circle cx="861.0" cy="647.0" r="47.51"/>
    <circle cx="864.0" cy="642.0" r="47.33"/>
    <circle cx="868.0" cy="637.0" r="47.17"/>
    <circle cx="872.0" cy="632.0" r="47.02"/>
    <circle cx="876.0" cy="626.0" r="46.87"/>
    <circle cx="881.0" cy="621.0" r="46.74"/>
    <circle cx="885.0" cy="615.0" r="46.61"/>
    <circle cx="889.0" cy="609.0" r="46.5"/>
    <circle cx="894.0" cy="603.0" r="46.4"/>
    <circle cx="899.0" cy="597.0" r="46.3"/>
    <circle cx="903.0" cy="591.0" r="46.22"/>
    <circle cx="908.0" cy="585.0" r="46.16"/>
    <circle cx="913.0" cy="578.0" r="46.1"/>
    <circle cx="918.0" cy="571.0" r="46.06"/>
    <circle cx="924.0" cy="565.0" r="46.03"/>
    <circle cx="929.0" cy="558.0" r="46.01"/>
    <circle cx="934.0" cy="551.0" r="46"/>
    <circle cx="937.0" cy="547.0" r="45.96"/>
    <circle cx="941.0" cy="543.0" r="45.83"/>
    <circle cx="944.0" cy="539.0" r="45.61"/>
    <circle cx="947.0" cy="535.0" r="45.31"/>
    <circle cx="950.0" cy="531.0" r="44.92"/>
    <circle cx="953.0" cy="527.0" r="44.45"/>
    <circle cx="956.0" cy="523.0" r="43.9"/>
    <circle cx="959.0" cy="519.0" r="43.28"/>
    <circle cx="962.0" cy="515.0" r="42.57"/>
    <circle cx="965.0" cy="511.0" r="41.79"/>
    <circle cx="968.0" cy="507.0" r="40.95"/>
    <circle cx="971.0" cy="503.0" r="40.03"/>
    <circle cx="974.0" cy="499.0" r="39.05"/>
    <circle cx="977.0" cy="495.0" r="38.01"/>
    <circle cx="980.0" cy="491.0" r="36.91"/>
    <circle cx="983.0" cy="487.0" r="35.77"/>
    <circle cx="986.0" cy="483.0" r="34.57"/>
    <circle cx="989.0" cy="479.0" r="33.33"/>
    <circle cx="992.0" cy="475.0" r="32.06"/>
    <circle cx="995.0" cy="471.0" r="30.75"/>
    <circle cx="999.0" cy="467.0" r="29.41"/>
    <circle cx="1002.0" cy="463.0" r="28.05"/>
    <circle cx="1005.0" cy="460.0" r="26.68"/>
    <circle cx="1008.0" cy="456.0" r="25.29"/>
    <circle cx="1011.0" cy="452.0" r="23.89"/>
    <circle cx="1014.0" cy="448.0" r="22.49"/>
    <circle cx="1017.0" cy="444.0" r="21.1"/>
    <circle cx="1020.0" cy="440.0" r="19.71"/>
    <circle cx="1023.0" cy="436.0" r="18.34"/>
    <circle cx="1026.0" cy="432.0" r="16.99"/>
    <circle cx="1029.0" cy="428.0" r="15.67"/>
    <circle cx="1032.0" cy="424.0" r="14.37"/>
    <circle cx="1035.0" cy="420.0" r="13.11"/>
    <circle cx="1038.0" cy="416.0" r="11.89"/>
    <circle cx="1041.0" cy="412.0" r="10.72"/>
    <circle cx="1044.0" cy="408.0" r="9.59"/>
    <circle cx="1047.0" cy="404.0" r="8.52"/>
    <circle cx="1050.0" cy="400.0" r="7.51"/>
    <circle cx="1053.0" cy="396.0" r="6.56"/>
    <circle cx="1056.0" cy="392.0" r="5.67"/>
    <circle cx="1060.0" cy="388.0" r="4.85"/>
    <circle cx="1063.0" cy="384.0" r="4.11"/>
    <circle cx="1066.0" cy="380.0" r="3.44"/>
    <circle cx="1069.0" cy="376.0" r="2.84"/>
    <circle cx="1072.0" cy="372.0" r="2.33"/>
    <circle cx="1075.0" cy="368.0" r="1.9"/>
    <circle cx="1078.0" cy="364.0" r="1.55"/>
    <circle cx="1081.0" cy="360.0" r="1.28"/>
    <circle cx="1084.0" cy="357.0" r="1.11"/>
    <circle cx="1087.0" cy="353.0" r="1.01"/>
    <circle cx="1089.0" cy="350.0" r="1"/>
    <g stroke="blue">
      <circle cx="215.0" cy="440.0" r="5"/>
      <circle cx="209.27" cy="457.63" r="5"/>
      <circle cx="194.27" cy="468.53" r="5"/>
      <circle cx="175.73" cy="468.53" r="5"/>
      <circle cx="160.73" cy="457.63" r="5"/>
      <circle cx="155.0" cy="440.0" r="5"/>
      <circle cx="160.73" cy="422.37" r="5"/>
      <circle cx="175.73" cy="411.47" r="5"/>
      <circle cx="194.27" cy="411.47" r="5"/>
      <circle cx="209.27" cy="422.37" r="5"/>
      <path d="M1089.0 380.0 L1089.0 390.0"/>
      <path d="M1106.63 374.27 L1112.51 382.36"/>
      <path d="M1117.53 359.27 L1127.04 362.36"/>
      <path d="M1117.53 340.73 L1127.04 337.64"/>
      <path d="M1106.63 325.73 L1112.51 317.64"/>
      <path d="M1089.0 320.0 L1089.0 310.0"/>
      <path d="M1071.37 325.73 L1065.49 317.64"/>
      <path d="M1060.47 340.73 L1050.96 337.64"/>
      <path d="M1060.47 359.27 L1050.96 362.36"/>
      <path d="M1071.37 374.27 L1065.49 382.36"/>
      <circle cx="640.0" cy="677.0" r="56.74"/>
      <circle cx="642.0" cy="482.0" r="53.02"/>
      <circle cx="424.0" cy="329.0" r="26.3"/>
      <path d="M424.0 365.3 L424.0 375.3"/>
      <path d="M435.22 363.52 L438.31 373.03"/>
      <path d="M445.34 358.37 L451.22 366.46"/>
      <path d="M453.37 350.34 L461.46 356.22"/>
      <path d="M458.52 340.22 L468.03 343.31"/>
      <path d="M460.3 329.0 L470.3 329.0"/>
      <path d="M458.52 317.78 L468.03 314.69"/>
      <path d="M453.37 307.66 L461.46 301.78"/>
      <path d="M445.34 299.63 L451.22 291.54"/>
      <path d="M435.22 294.48 L438.31 284.97"/>
      <path d="M424.0 292.7 L424.0 282.7"/>
      <path d="M412.78 294.48 L409.69 284.97"/>
      <path d="M402.66 299.63 L396.78 291.54"/>
      <path d="M394.63 307.66 L386.54 301.78"/>
      <path d="M389.48 317.78 L379.97 314.69"/>
      <path d="M387.7 329.0 L377.7 329.0"/>
      <path d="M389.48 340.22 L379.97 343.31"/>
      <path d="M394.63 350.34 L386.54 356.22"/>
      <path d="M402.66 358.37 L396.78 366.46"/>
      <path d="M412.78 363.52 L409.69 373.03"/>
    </g>
  </g>
</svg>
