<svg version="1.1" width="1150" height="870" xmlns="http://www.w3.org/2000/svg">
  <!-- Seed: 136942926160812745 -->
  <!-- Size: SvgSize.Size9x12 -->
  <!-- Params:
    draw_lines: True
    draw_aligned_vertical: True
    draw_aligned_horizontal: True
    draw_filled_checkers: True
    pad: 0
    size: [RangeInt] min: 10 max: 150
    skew_vert_degs: [RangeFloat] min: 0 max: 45
    skew_horiz_degs: [RangeFloat] min: 0 max: 45
    interior_space_aligned: 5
    interior_space_filled: 5
  -->
  <g stroke="black" fill="none">
    <path d="M181.0 50.0L50.0 330.73M50.0 611.46L312.0 50.0M443.0 50.0L83.69 820.0M214.69 820.0L574.0 50.0M705.0 50.0L345.69 820.0M476.69 820.0L836.0 50.0M967.0 50.0L607.69 820.0M738.69 820.0L1098.0 50.0M1100.0 326.44L869.69 820.0M1000.69 820.0L1100.0 607.17M967.15 50.0L1100.0 125.9M1100.0 256.9L737.86 50.0M508.57 50.0L1100.0 387.9M1100.0 518.9L279.29 50.0M50.0 50.0L1100.0 649.9M1100.0 780.9L50.0 181.0M50.0 312.0L939.14 820.0M709.86 820.0L50.0 443.0M50.0 574.0L480.57 820.0M251.28 820.0L50.0 705.0"/>
    <g stroke="red">
      <path d="M186.04 50.0L50.0 341.53M50.0 352.32L191.08 50.0M196.12 50.0L50.0 363.12M50.0 373.92L201.15 50.0M206.19 50.0L50.0 384.72M50.0 395.51L211.23 50.0M216.27 50.0L50.0 406.31M50.0 417.11L221.31 50.0M226.35 50.0L50.0 427.9M50.0 438.7L231.38 50.0M236.42 50.0L50.0 449.5M50.0 460.3L241.46 50.0M246.5 50.0L50.0 471.09M50.0 481.89L251.54 50.0M256.58 50.0L50.0 492.69M50.0 503.49L261.62 50.0M266.65 50.0L50.0 514.28M50.0 525.08L271.69 50.0M276.73 50.0L50.0 535.88M50.0 546.67L281.77 50.0M286.81 50.0L50.0 557.47M50.0 568.27L291.85 50.0M296.88 50.0L50.0 579.07M50.0 589.86L301.92 50.0M306.96 50.0L50.0 600.66M88.72 820.0L448.04 50.0M453.08 50.0L93.76 820.0M98.8 820.0L458.12 50.0M463.15 50.0L103.84 820.0M108.88 820.0L468.19 50.0M473.23 50.0L113.92 820.0M118.95 820.0L478.27 50.0M483.31 50.0L123.99 820.0M129.03 820.0L488.35 50.0M493.38 50.0L134.07 820.0M139.11 820.0L498.42 50.0M503.46 50.0L144.15 820.0M149.19 820.0L508.5 50.0M513.54 50.0L154.22 820.0M159.26 820.0L518.58 50.0M523.62 50.0L164.3 820.0M169.34 820.0L528.65 50.0M533.69 50.0L174.38 820.0M179.42 820.0L538.73 50.0M543.77 50.0L184.45 820.0M189.49 820.0L548.81 50.0M553.85 50.0L194.53 820.0M199.57 820.0L558.88 50.0M563.92 50.0L204.61 820.0M209.65 820.0L568.96 50.0M710.04 50.0L350.72 820.0M355.76 820.0L715.08 50.0M720.12 50.0L360.8 820.0M365.84 820.0L725.15 50.0M730.19 50.0L370.88 820.0M375.92 820.0L735.23 50.0M740.27 50.0L380.95 820.0M385.99 820.0L745.31 50.0M750.35 50.0L391.03 820.0M396.07 820.0L755.38 50.0M760.42 50.0L401.11 820.0M406.15 820.0L765.46 50.0M770.5 50.0L411.19 820.0M416.22 820.0L775.54 50.0M780.58 50.0L421.26 820.0M426.3 820.0L785.62 50.0M790.65 50.0L431.34 820.0M436.38 820.0L795.69 50.0M800.73 50.0L441.42 820.0M446.45 820.0L805.77 50.0M810.81 50.0L451.49 820.0M456.53 820.0L815.85 50.0M820.88 50.0L461.57 820.0M466.61 820.0L825.92 50.0M830.96 50.0L471.65 820.0M612.72 820.0L972.04 50.0M977.08 50.0L617.76 820.0M622.8 820.0L982.12 50.0M987.15 50.0L627.84 820.0M632.88 820.0L992.19 50.0M997.23 50.0L637.92 820.0M642.95 820.0L1002.27 50.0M1007.31 50.0L647.99 820.0M653.03 820.0L1012.35 50.0M1017.38 50.0L658.07 820.0M663.11 820.0L1022.42 50.0M1027.46 50.0L668.15 820.0M673.19 820.0L1032.5 50.0M1037.54 50.0L678.22 820.0M683.26 820.0L1042.58 50.0M1047.62 50.0L688.3 820.0M693.34 820.0L1052.65 50.0M1057.69 50.0L698.38 820.0M703.42 820.0L1062.73 50.0M1067.77 50.0L708.45 820.0M713.49 820.0L1072.81 50.0M1077.85 50.0L718.53 820.0M723.57 820.0L1082.88 50.0M1087.92 50.0L728.61 820.0M733.65 820.0L1092.96 50.0M1100.0 337.24L874.72 820.0M879.76 820.0L1100.0 348.04M1100.0 358.83L884.8 820.0M889.84 820.0L1100.0 369.63M1100.0 380.43L894.88 820.0M899.92 820.0L1100.0 391.23M1100.0 402.02L904.95 820.0M909.99 820.0L1100.0 412.82M1100.0 423.62L915.03 820.0M920.07 820.0L1100.0 434.42M1100.0 445.21L925.11 820.0M930.15 820.0L1100.0 456.01M1100.0 466.81L935.19 820.0M940.22 820.0L1100.0 477.6M1100.0 488.4L945.26 820.0M950.3 820.0L1100.0 499.2M1100.0 510.0L955.34 820.0M960.38 820.0L1100.0 520.79M1100.0 531.59L965.42 820.0M970.45 820.0L1100.0 542.39M1100.0 553.19L975.49 820.0M980.53 820.0L1100.0 563.98M1100.0 574.78L985.57 820.0M990.61 820.0L1100.0 585.58M1100.0 596.37L995.65 820.0"/>
    </g>
    <g stroke="blue">
      <path d="M958.33 50.0L1100.0 130.94M1100.0 135.98L949.51 50.0M940.69 50.0L1100.0 141.02M1100.0 146.06L931.87 50.0M923.06 50.0L1100.0 151.09M1100.0 156.13L914.24 50.0M905.42 50.0L1100.0 161.17M1100.0 166.21L896.6 50.0M887.78 50.0L1100.0 171.25M1100.0 176.29L878.96 50.0M870.14 50.0L1100.0 181.33M1100.0 186.36L861.32 50.0M852.51 50.0L1100.0 191.4M1100.0 196.44L843.69 50.0M834.87 50.0L1100.0 201.48M1100.0 206.52L826.05 50.0M817.23 50.0L1100.0 211.56M1100.0 216.59L808.41 50.0M799.59 50.0L1100.0 221.63M1100.0 226.67L790.77 50.0M781.96 50.0L1100.0 231.71M1100.0 236.75L773.14 50.0M764.32 50.0L1100.0 241.79M1100.0 246.83L755.5 50.0M746.68 50.0L1100.0 251.86M1100.0 392.94L499.76 50.0M490.94 50.0L1100.0 397.98M1100.0 403.02L482.12 50.0M473.3 50.0L1100.0 408.06M1100.0 413.09L464.48 50.0M455.66 50.0L1100.0 418.13M1100.0 423.17L446.84 50.0M438.02 50.0L1100.0 428.21M1100.0 433.25L429.21 50.0M420.39 50.0L1100.0 438.29M1100.0 443.33L411.57 50.0M402.75 50.0L1100.0 448.36M1100.0 453.4L393.93 50.0M385.11 50.0L1100.0 458.44M1100.0 463.48L376.29 50.0M367.47 50.0L1100.0 468.52M1100.0 473.56L358.66 50.0M349.84 50.0L1100.0 478.59M1100.0 483.63L341.02 50.0M332.2 50.0L1100.0 488.67M1100.0 493.71L323.38 50.0M314.56 50.0L1100.0 498.75M1100.0 503.79L305.74 50.0M296.92 50.0L1100.0 508.83M1100.0 513.86L288.11 50.0M50.0 55.04L1100.0 654.94M1100.0 659.98L50.0 60.08M50.0 65.12L1100.0 665.02M1100.0 670.06L50.0 70.15M50.0 75.19L1100.0 675.09M1100.0 680.13L50.0 80.23M50.0 85.27L1100.0 685.17M1100.0 690.21L50.0 90.31M50.0 95.35L1100.0 695.25M1100.0 700.29L50.0 100.38M50.0 105.42L1100.0 705.33M1100.0 710.36L50.0 110.46M50.0 115.5L1100.0 715.4M1100.0 720.44L50.0 120.54M50.0 125.58L1100.0 725.48M1100.0 730.52L50.0 130.62M50.0 135.65L1100.0 735.56M1100.0 740.59L50.0 140.69M50.0 145.73L1100.0 745.63M1100.0 750.67L50.0 150.77M50.0 155.81L1100.0 755.71M1100.0 760.75L50.0 160.85M50.0 165.88L1100.0 765.79M1100.0 770.83L50.0 170.92M50.0 175.96L1100.0 775.86M930.33 820.0L50.0 317.04M50.0 322.08L921.51 820.0M912.69 820.0L50.0 327.12M50.0 332.15L903.87 820.0M895.05 820.0L50.0 337.19M50.0 342.23L886.23 820.0M877.41 820.0L50.0 347.27M50.0 352.31L868.6 820.0M859.78 820.0L50.0 357.35M50.0 362.38L850.96 820.0M842.14 820.0L50.0 367.42M50.0 372.46L833.32 820.0M824.5 820.0L50.0 377.5M50.0 382.54L815.68 820.0M806.86 820.0L50.0 387.58M50.0 392.62L798.05 820.0M789.23 820.0L50.0 397.65M50.0 402.69L780.41 820.0M771.59 820.0L50.0 407.73M50.0 412.77L762.77 820.0M753.95 820.0L50.0 417.81M50.0 422.85L745.13 820.0M736.31 820.0L50.0 427.88M50.0 432.92L727.5 820.0M718.68 820.0L50.0 437.96M50.0 579.04L471.75 820.0M462.93 820.0L50.0 584.08M50.0 589.12L454.11 820.0M445.3 820.0L50.0 594.15M50.0 599.19L436.48 820.0M427.66 820.0L50.0 604.23M50.0 609.27L418.84 820.0M410.02 820.0L50.0 614.31M50.0 619.35L401.2 820.0M392.38 820.0L50.0 624.38M50.0 629.42L383.56 820.0M374.75 820.0L50.0 634.46M50.0 639.5L365.93 820.0M357.11 820.0L50.0 644.54M50.0 649.58L348.29 820.0M339.47 820.0L50.0 654.62M50.0 659.65L330.65 820.0M321.83 820.0L50.0 664.69M50.0 669.73L313.01 820.0M304.2 820.0L50.0 674.77M50.0 679.81L295.38 820.0M286.56 820.0L50.0 684.85M50.0 689.88L277.74 820.0M268.92 820.0L50.0 694.92M50.0 699.96L260.1 820.0"/>
    </g>
    <g stroke="green">
      <path d="M52.3 51.31L52.3 182.31M57.36 185.2L57.36 54.2M62.41 57.09L62.41 188.09M67.47 190.98L67.47 59.98M72.53 62.87L72.53 193.87M77.58 196.76L77.58 65.76M82.64 68.65L82.64 199.65M87.69 202.54L87.69 71.54M92.75 74.42L92.75 205.42M97.81 208.31L97.81 77.31M102.86 80.2L102.86 211.2M107.92 206.61L107.92 83.09M112.98 85.98L112.98 195.77M118.03 184.94L118.03 88.87M123.09 91.76L123.09 174.1M128.14 163.27L128.14 94.65M133.2 97.54L133.2 152.43M138.26 141.6L138.26 100.42M143.31 103.31L143.31 130.76M148.37 119.93L148.37 106.2M51.84 313.05L51.84 326.78M310.17 67.64L310.17 53.92M315.23 50.0L315.23 70.53M320.28 73.42L320.28 50.0M325.34 50.0L325.34 76.31M330.4 79.2L330.4 50.0M335.45 50.0L335.45 82.09M340.51 84.98L340.51 50.0M345.56 50.0L345.56 87.87M350.62 90.76L350.62 50.0M355.68 50.0L355.68 93.64M360.73 96.53L360.73 50.0M365.79 50.0L365.79 99.42M370.85 102.31L370.85 50.0M375.9 50.0L375.9 105.2M380.96 108.09L380.96 50.0M386.01 50.0L386.01 110.98M391.07 113.87L391.07 50.0M396.13 50.0L396.13 116.75M401.18 119.64L401.18 50.0M406.24 50.0L406.24 122.53M411.3 117.94L411.3 50.0M416.35 50.0L416.35 107.1M421.41 96.27L421.41 50.0M426.47 50.0L426.47 85.43M431.52 74.6L431.52 50.0M436.58 50.0L436.58 63.76M441.63 52.93L441.63 50.0M213.64 260.77L213.64 274.5M218.7 277.38L218.7 249.94M223.76 239.1L223.76 280.27M228.81 283.16L228.81 228.27M233.87 217.43L233.87 286.05M238.93 288.94L238.93 206.59M243.98 195.76L243.98 291.83M249.04 294.72L249.04 184.92M254.1 174.09L254.1 297.61M259.15 300.5L259.15 169.5M264.21 172.38L264.21 303.38M269.26 306.27L269.26 175.27M274.32 178.16L274.32 309.16M279.38 312.05L279.38 181.05M284.43 183.94L284.43 314.94M289.49 317.83L289.49 186.83M294.55 189.72L294.55 320.72M299.6 323.61L299.6 192.61M304.66 195.5L304.66 326.5M309.71 329.38L309.71 198.38M314.77 201.27L314.77 324.79M319.83 313.96L319.83 204.16M324.88 207.05L324.88 303.12M329.94 292.29L329.94 209.94M335.0 212.83L335.0 281.45M340.05 270.61L340.05 215.72M345.11 218.61L345.11 259.78M350.16 248.94L350.16 221.49M355.22 224.38L355.22 238.11M117.12 481.35L117.12 467.62M122.18 456.79L122.18 484.24M127.23 487.13L127.23 445.95M132.29 435.12L132.29 490.01M137.34 492.9L137.34 424.28M142.4 413.45L142.4 495.79M147.46 498.68L147.46 402.61M152.51 391.78L152.51 501.57M157.57 504.46L157.57 380.94M162.63 376.35L162.63 507.35M167.68 510.24L167.68 379.24M172.74 382.12L172.74 513.12M177.79 516.01L177.79 385.01M182.85 387.9L182.85 518.9M187.91 521.79L187.91 390.79M192.96 393.68L192.96 524.68M198.02 527.57L198.02 396.57M203.08 399.46L203.08 530.46M208.13 533.35L208.13 402.35M213.19 405.24L213.19 536.24M218.25 531.64L218.25 408.12M223.3 411.01L223.3 520.81M228.36 509.97L228.36 413.9M233.41 416.79L233.41 499.14M238.47 488.3L238.47 419.68M243.53 422.57L243.53 477.47M248.58 466.63L248.58 425.46M253.64 428.35L253.64 455.79M258.7 444.96L258.7 431.24M50.93 609.46L50.93 705.53M55.99 708.42L55.99 598.63M61.04 587.79L61.04 711.31M66.1 714.2L66.1 583.2M71.16 586.09L71.16 717.09M76.21 719.98L76.21 588.98M81.27 591.87L81.27 722.87M86.33 725.75L86.33 594.75M91.38 597.64L91.38 728.64M96.44 731.53L96.44 600.53M101.49 603.42L101.49 734.42M106.55 737.31L106.55 606.31M111.61 609.2L111.61 740.2M116.66 743.09L116.66 612.09M121.72 614.98L121.72 738.49M126.78 727.66L126.78 617.86M131.83 620.75L131.83 716.82M136.89 705.99L136.89 623.64M141.94 626.53L141.94 695.15M147.0 684.32L147.0 629.42M152.06 632.31L152.06 673.48M157.11 662.65L157.11 635.2M162.17 638.09L162.17 651.81M517.02 185.83L517.02 172.1M522.08 161.27L522.08 188.72M527.13 191.6L527.13 150.43M532.19 139.6L532.19 194.49M537.25 197.38L537.25 128.76M542.3 117.92L542.3 200.27M547.36 203.16L547.36 107.09M552.42 96.25L552.42 206.05M557.47 208.94L557.47 85.42M562.53 80.83L562.53 211.83M567.58 214.71L567.58 83.71M572.64 86.6L572.64 217.6M577.7 220.49L577.7 89.49M582.75 92.38L582.75 223.38M587.81 226.27L587.81 95.27M592.87 98.16L592.87 229.16M597.92 232.05L597.92 101.05M602.98 103.94L602.98 234.94M608.04 237.83L608.04 106.83M613.09 109.71L613.09 240.71M618.15 236.12L618.15 112.6M623.2 115.49L623.2 225.29M628.26 214.45L628.26 118.38M633.32 121.27L633.32 203.62M638.37 192.78L638.37 124.16M643.43 127.05L643.43 181.94M648.49 171.11L648.49 129.94M653.54 132.82L653.54 160.27M658.6 149.44L658.6 135.71M420.5 378.95L420.5 392.68M425.55 395.57L425.55 368.12M430.61 357.28L430.61 398.46M435.67 401.34L435.67 346.45M440.72 335.61L440.72 404.23M445.78 407.12L445.78 324.78M450.83 313.94L450.83 410.01M455.89 412.9L455.89 303.11M460.95 292.27L460.95 415.79M466.0 418.68L466.0 287.68M471.06 290.57L471.06 421.57M476.12 424.45L476.12 293.45M481.17 296.34L481.17 427.34M486.23 430.23L486.23 299.23M491.28 302.12L491.28 433.12M496.34 436.01L496.34 305.01M501.4 307.9L501.4 438.9M506.45 441.79L506.45 310.79M511.51 313.68L511.51 444.68M516.57 447.57L516.57 316.57M521.62 319.45L521.62 442.97M526.68 432.14L526.68 322.34M531.73 325.23L531.73 421.3M536.79 410.47L536.79 328.12M541.85 331.01L541.85 399.63M546.9 388.8L546.9 333.9M551.96 336.79L551.96 377.96M557.02 367.12L557.02 339.68M562.07 342.57L562.07 356.29M323.97 599.53L323.97 585.8M329.03 574.97L329.03 602.42M334.08 605.31L334.08 564.13M339.14 553.3L339.14 608.2M344.2 611.08L344.2 542.46M349.25 531.63L349.25 613.97M354.31 616.86L354.31 520.79M359.36 509.96L359.36 619.75M364.42 622.64L364.42 499.12M369.48 494.53L369.48 625.53M374.53 628.42L374.53 497.42M379.59 500.31L379.59 631.31M384.65 634.2L384.65 503.2M389.7 506.08L389.7 637.08M394.76 639.97L394.76 508.97M399.82 511.86L399.82 642.86M404.87 645.75L404.87 514.75M409.93 517.64L409.93 648.64M414.98 651.53L414.98 520.53M420.04 523.42L420.04 654.42M425.1 649.82L425.1 526.31M430.15 529.19L430.15 638.99M435.21 628.15L435.21 532.08M440.27 534.97L440.27 617.32M445.32 606.48L445.32 537.86M450.38 540.75L450.38 595.65M455.43 584.81L455.43 543.64M460.49 546.53L460.49 573.98M465.55 563.14L465.55 549.42M227.45 792.66L227.45 806.38M232.5 809.27L232.5 781.82M237.56 770.99L237.56 812.16M242.61 815.05L242.61 760.15M247.67 749.31L247.67 817.94M252.73 820.0L252.73 738.48M257.78 727.64L257.78 820.0M262.84 820.0L262.84 716.81M267.9 705.97L267.9 820.0M272.95 820.0L272.95 701.38M278.01 704.27L278.01 820.0M283.06 820.0L283.06 707.16M288.12 710.05L288.12 820.0M293.18 820.0L293.18 712.94M298.23 715.82L298.23 820.0M303.29 820.0L303.29 718.71M308.35 721.6L308.35 820.0M313.4 820.0L313.4 724.49M318.46 727.38L318.46 820.0M323.51 820.0L323.51 730.27M328.57 733.16L328.57 820.0M333.63 820.0L333.63 736.05M338.68 738.94L338.68 820.0M343.74 820.0L343.74 741.82M348.8 744.71L348.8 813.33M353.85 802.5L353.85 747.6M358.91 750.49L358.91 791.66M363.96 780.83L363.96 753.38M369.02 756.27L369.02 769.99M820.4 97.16L820.4 83.43M825.46 72.6L825.46 100.05M830.51 102.93L830.51 61.76M835.57 50.93L835.57 105.82M840.62 108.71L840.62 50.0M845.68 50.0L845.68 111.6M850.74 114.49L850.74 50.0M855.79 50.0L855.79 117.38M860.85 120.27L860.85 50.0M865.91 50.0L865.91 123.16M870.96 126.04L870.96 50.0M876.02 50.0L876.02 128.93M881.07 131.82L881.07 50.0M886.13 50.0L886.13 134.71M891.19 137.6L891.19 50.0M896.24 50.0L896.24 140.49M901.3 143.38L901.3 50.0M906.36 50.0L906.36 146.27M911.41 149.16L911.41 50.0M916.47 50.0L916.47 152.04M921.52 147.45L921.52 50.0M926.58 50.0L926.58 136.62M931.64 125.78L931.64 50.0M936.69 50.0L936.69 114.95M941.75 104.11L941.75 50.0M946.81 50.0L946.81 93.27M951.86 82.44L951.86 50.0M956.92 50.0L956.92 71.6M961.98 60.77L961.98 50.0M723.87 290.28L723.87 304.01M728.93 306.9L728.93 279.45M733.99 268.61L733.99 309.79M739.04 312.67L739.04 257.78M744.1 246.94L744.1 315.56M749.16 318.45L749.16 236.11M754.21 225.27L754.21 321.34M759.27 324.23L759.27 214.44M764.32 203.6L764.32 327.12M769.38 330.01L769.38 199.01M774.44 201.9L774.44 332.9M779.49 335.79L779.49 204.79M784.55 207.67L784.55 338.67M789.61 341.56L789.61 210.56M794.66 213.45L794.66 344.45M799.72 347.34L799.72 216.34M804.77 219.23L804.77 350.23M809.83 353.12L809.83 222.12M814.89 225.01L814.89 356.01M819.94 358.9L819.94 227.9M825.0 230.78L825.0 354.3M830.06 343.47L830.06 233.67M835.11 236.56L835.11 332.63M840.17 321.8L840.17 239.45M845.22 242.34L845.22 310.96M850.28 300.13L850.28 245.23M855.34 248.12L855.34 289.29M860.39 278.45L860.39 251.01M865.45 253.9L865.45 267.62M627.35 510.86L627.35 497.14M632.4 486.3L632.4 513.75M637.46 516.64L637.46 475.46M642.52 464.63L642.52 519.53M647.57 522.41L647.57 453.79M652.63 442.96L652.63 525.3M657.69 528.19L657.69 432.12M662.74 421.29L662.74 531.08M667.8 533.97L667.8 410.45M672.85 405.86L672.85 536.86M677.91 539.75L677.91 408.75M682.97 411.64L682.97 542.64M688.02 545.53L688.02 414.53M693.08 417.41L693.08 548.41M698.14 551.3L698.14 420.3M703.19 423.19L703.19 554.19M708.25 557.08L708.25 426.08M713.3 428.97L713.3 559.97M718.36 562.86L718.36 431.86M723.42 434.75L723.42 565.75M728.47 561.15L728.47 437.64M733.53 440.52L733.53 550.32M738.59 539.48L738.59 443.41M743.64 446.3L743.64 528.65M748.7 517.81L748.7 449.19M753.76 452.08L753.76 506.98M758.81 496.14L758.81 454.97M763.87 457.86L763.87 485.31M768.92 474.47L768.92 460.75M530.82 703.99L530.82 717.71M535.88 720.6L535.88 693.15M540.93 682.32L540.93 723.49M545.99 726.38L545.99 671.48M551.05 660.64L551.05 729.27M556.1 732.15L556.1 649.81M561.16 638.97L561.16 735.04M566.22 737.93L566.22 628.14M571.27 617.3L571.27 740.82M576.33 743.71L576.33 612.71M581.39 615.6L581.39 746.6M586.44 749.49L586.44 618.49M591.5 621.38L591.5 752.38M596.55 755.27L596.55 624.27M601.61 627.15L601.61 758.15M606.67 761.04L606.67 630.04M611.72 632.93L611.72 763.93M616.78 766.82L616.78 635.82M621.84 638.71L621.84 769.71M626.89 772.6L626.89 641.6M631.95 644.49L631.95 768.01M637.0 757.17L637.0 647.38M642.06 650.27L642.06 746.34M647.12 735.5L647.12 653.15M652.17 656.04L652.17 724.66M657.23 713.83L657.23 658.93M662.29 661.82L662.29 702.99M667.34 692.16L667.34 664.71M672.4 667.6L672.4 681.32M479.8 820.0L479.8 819.56M1027.25 201.61L1027.25 215.34M1032.31 218.23L1032.31 190.78M1037.36 179.94L1037.36 221.12M1042.42 224.0L1042.42 169.11M1047.48 158.27L1047.48 226.89M1052.53 229.78L1052.53 147.44M1057.59 136.6L1057.59 232.67M1062.64 235.56L1062.64 125.77M1067.7 114.93L1067.7 238.45M1072.76 241.34L1072.76 110.34M1077.81 113.23L1077.81 244.23M1082.87 247.12L1082.87 116.12M1087.93 119.0L1087.93 250.0M1092.98 252.89L1092.98 121.89M1098.04 124.78L1098.04 255.78M930.73 422.19L930.73 408.47M935.78 397.63L935.78 425.08M940.84 427.97L940.84 386.79M945.89 375.96L945.89 430.86M950.95 433.74L950.95 365.12M956.01 354.29L956.01 436.63M961.06 439.52L961.06 343.45M966.12 332.62L966.12 442.41M971.18 445.3L971.18 321.78M976.23 317.19L976.23 448.19M981.29 451.08L981.29 320.08M986.34 322.97L986.34 453.97M991.4 456.86L991.4 325.86M996.46 328.74L996.46 459.74M1001.51 462.63L1001.51 331.63M1006.57 334.52L1006.57 465.52M1011.63 468.41L1011.63 337.41M1016.68 340.3L1016.68 471.3M1021.74 474.19L1021.74 343.19M1026.79 346.08L1026.79 477.08M1031.85 472.48L1031.85 348.97M1036.91 351.85L1036.91 461.65M1041.96 450.81L1041.96 354.74M1047.02 357.63L1047.02 439.98M1052.08 429.14L1052.08 360.52M1057.13 363.41L1057.13 418.31M1062.19 407.47L1062.19 366.3M1067.24 369.19L1067.24 396.64M1072.3 385.8L1072.3 372.08M834.2 615.32L834.2 629.04M839.26 631.93L839.26 604.48M844.31 593.65L844.31 634.82M849.37 637.71L849.37 582.81M854.42 571.97L854.42 640.6M859.48 643.49L859.48 561.14M864.54 550.3L864.54 646.37M869.59 649.26L869.59 539.47M874.65 528.63L874.65 652.15M879.71 655.04L879.71 524.04M884.76 526.93L884.76 657.93M889.82 660.82L889.82 529.82M894.87 532.71L894.87 663.71M899.93 666.6L899.93 535.6M904.99 538.48L904.99 669.48M910.04 672.37L910.04 541.37M915.1 544.26L915.1 675.26M920.16 678.15L920.16 547.15M925.21 550.04L925.21 681.04M930.27 683.93L930.27 552.93M935.33 555.82L935.33 679.34M940.38 668.5L940.38 558.71M945.44 561.6L945.44 657.67M950.49 646.83L950.49 564.48M955.55 567.37L955.55 635.99M960.61 625.16L960.61 570.26M965.66 573.15L965.66 614.32M970.72 603.49L970.72 576.04M975.78 578.93L975.78 592.65M742.73 820.0L742.73 811.33M747.79 800.5L747.79 820.0M752.84 820.0L752.84 789.66M757.9 778.83L757.9 820.0M762.96 820.0L762.96 767.99M768.01 757.16L768.01 820.0M773.07 820.0L773.07 746.32M778.12 735.48L778.12 820.0M783.18 820.0L783.18 730.89M788.24 733.78L788.24 820.0M793.29 820.0L793.29 736.67M798.35 739.56L798.35 820.0M803.41 820.0L803.41 742.45M808.46 745.34L808.46 820.0M813.52 820.0L813.52 748.22M818.57 751.11L818.57 820.0M823.63 820.0L823.63 754.0M828.69 756.89L828.69 820.0M833.74 820.0L833.74 759.78M838.8 762.67L838.8 820.0M843.86 820.0L843.86 765.56M848.91 768.45L848.91 820.0M853.97 820.0L853.97 771.34M859.02 774.22L859.02 820.0M864.08 820.0L864.08 777.11M869.14 780.0L869.14 820.0M874.19 810.34L874.19 782.89M879.25 785.78L879.25 799.5M1041.05 747.22L1041.05 733.5M1046.11 722.66L1046.11 750.11M1051.16 753.0L1051.16 711.83M1056.22 700.99L1056.22 755.89M1061.28 758.78L1061.28 690.16M1066.33 679.32L1066.33 761.67M1071.39 764.56L1071.39 668.49M1076.44 657.65L1076.44 767.44M1081.5 770.33L1081.5 646.81M1086.56 642.22L1086.56 773.22M1091.61 776.11L1091.61 645.11M1096.67 648.0L1096.67 779.0M972.09 52.82L972.09 50.0M977.14 50.0L977.14 55.71M982.2 58.6L982.2 50.0M987.26 50.0L987.26 61.49M992.31 64.38L992.31 50.0M997.37 50.0L997.37 67.27M1002.43 70.15L1002.43 50.0M1007.48 50.0L1007.48 73.04M1012.54 75.93L1012.54 50.0M1017.59 50.0L1017.59 78.82M1022.65 81.71L1022.65 50.0M1027.71 50.0L1027.71 84.6M1032.76 87.49L1032.76 50.0M1037.82 50.0L1037.82 90.38M1042.88 93.27L1042.88 50.0M1047.93 50.0L1047.93 96.15M1052.99 99.04L1052.99 50.0M1058.04 50.0L1058.04 101.93M1063.1 104.82L1063.1 50.0M1068.16 50.0L1068.16 107.71M1073.21 103.12L1073.21 50.0M1078.27 50.0L1078.27 92.28M1083.33 81.45L1083.33 50.0M1088.38 50.0L1088.38 70.61M1093.44 59.77L1093.44 50.0M512.42 50.0L512.42 52.2M517.48 55.09L517.48 50.0M522.53 50.0L522.53 57.98M527.59 60.86L527.59 50.0M532.65 50.0L532.65 63.75M537.7 66.64L537.7 50.0M542.76 50.0L542.76 69.53M547.82 72.42L547.82 50.0M552.87 50.0L552.87 75.31M557.93 78.2L557.93 50.0M562.98 50.0L562.98 73.61M568.04 62.77L568.04 50.0M573.1 50.0L573.1 51.93M668.71 141.49L668.71 127.77M673.77 116.93L673.77 144.38M678.82 147.27L678.82 106.1M683.88 95.26L683.88 150.16M688.94 153.05L688.94 84.43M693.99 73.59L693.99 155.94M699.05 158.82L699.05 62.75M704.1 51.92L704.1 161.71M709.16 164.6L709.16 50.0M714.22 50.0L714.22 167.49M719.27 170.38L719.27 50.0M724.33 50.0L724.33 173.27M729.39 176.16L729.39 50.0M734.44 50.0L734.44 179.05M739.5 181.93L739.5 50.93M744.55 53.82L744.55 184.82M749.61 187.71L749.61 56.71M754.67 59.6L754.67 190.6M759.72 193.49L759.72 62.49M764.78 65.38L764.78 196.38M769.84 191.79L769.84 68.27M774.89 71.16L774.89 180.95M779.95 170.12L779.95 74.05M785.01 76.93L785.01 159.28M790.06 148.44L790.06 79.82M795.12 82.71L795.12 137.61M800.17 126.77L800.17 85.6M805.23 88.49L805.23 115.94M810.29 105.1L810.29 91.38M875.56 245.95L875.56 259.67M880.62 262.56L880.62 235.11M885.67 224.28L885.67 265.45M890.73 268.34L890.73 213.44M895.79 202.61L895.79 271.23M900.84 274.12L900.84 191.77M905.9 180.94L905.9 277.01M910.96 279.89L910.96 170.1M916.01 159.26L916.01 282.78M921.07 285.67L921.07 154.67M926.12 157.56L926.12 288.56M931.18 291.45L931.18 160.45M936.24 163.34L936.24 294.34M941.29 297.23L941.29 166.23M946.35 169.12L946.35 300.12M951.41 303.01L951.41 172.01M956.46 174.89L956.46 305.89M961.52 308.78L961.52 177.78M966.58 180.67L966.58 311.67M971.63 314.56L971.63 183.56M976.69 186.45L976.69 309.97M981.74 299.13L981.74 189.34M986.8 192.23L986.8 288.3M991.86 277.46L991.86 195.12M996.91 198.0L996.91 266.63M1001.97 255.79L1001.97 200.89M1007.03 203.78L1007.03 244.96M1012.08 234.12L1012.08 206.67M1017.14 209.56L1017.14 223.28M1082.41 377.85L1082.41 364.13M1087.47 353.29L1087.47 380.74M1092.53 383.63L1092.53 342.46M1097.58 331.62L1097.58 386.52M158.48 111.98L158.48 98.26M163.54 87.42L163.54 114.87M168.59 117.76L168.59 76.58M173.65 65.75L173.65 120.65M178.71 123.53L178.71 54.91M183.76 50.0L183.76 126.42M188.82 129.31L188.82 50.0M193.88 50.0L193.88 132.2M198.93 135.09L198.93 50.0M203.99 50.0L203.99 137.98M209.04 140.87L209.04 50.0M214.1 50.0L214.1 143.76M219.16 146.65L219.16 50.0M224.21 50.0L224.21 149.53M229.27 152.42L229.27 50.0M234.33 50.0L234.33 155.31M239.38 158.2L239.38 50.0M244.44 50.0L244.44 161.09M249.5 163.98L249.5 50.0M254.55 50.0L254.55 166.87M259.61 162.28L259.61 50.0M264.66 50.0L264.66 151.44M269.72 140.6L269.72 50.0M274.78 50.0L274.78 129.77M279.83 118.93L279.83 50.31M284.89 53.2L284.89 108.1M289.95 97.26L289.95 56.09M295.0 58.98L295.0 86.43M300.06 75.59L300.06 61.87M365.33 216.44L365.33 230.16M370.39 233.05L370.39 205.6M375.45 194.77L375.45 235.94M380.5 238.83L380.5 183.93M385.56 173.1L385.56 241.72M390.61 244.61L390.61 162.26M395.67 151.42L395.67 247.49M400.73 250.38L400.73 140.59M405.78 129.75L405.78 253.27M410.84 256.16L410.84 125.16M415.9 128.05L415.9 259.05M420.95 261.94L420.95 130.94M426.01 133.83L426.01 264.83M431.07 267.72L431.07 136.72M436.12 139.6L436.12 270.6M441.18 273.49L441.18 142.49M446.23 145.38L446.23 276.38M451.29 279.27L451.29 148.27M456.35 151.16L456.35 282.16M461.4 285.05L461.4 154.05M466.46 156.94L466.46 280.46M471.52 269.62L471.52 159.83M476.57 162.72L476.57 258.79M481.63 247.95L481.63 165.6M486.68 168.49L486.68 237.11M491.74 226.28L491.74 171.38M496.8 174.27L496.8 215.44M501.85 204.61L501.85 177.16M506.91 180.05L506.91 193.77M572.19 348.34L572.19 334.62M577.24 323.78L577.24 351.23M582.3 354.12L582.3 312.95M587.35 302.11L587.35 357.01M592.41 359.9L592.41 291.28M597.47 280.44L597.47 362.79M602.52 365.68L602.52 269.61M607.58 258.77L607.58 368.56M612.64 371.45L612.64 247.93M617.69 243.34L617.69 374.34M622.75 377.23L622.75 246.23M627.8 249.12L627.8 380.12M632.86 383.01L632.86 252.01M637.92 254.9L637.92 385.9M642.97 388.79L642.97 257.79M648.03 260.68L648.03 391.68M653.09 394.56L653.09 263.56M658.14 266.45L658.14 397.45M663.2 400.34L663.2 269.34M668.25 272.23L668.25 403.23M673.31 398.64L673.31 275.12M678.37 278.01L678.37 387.8M683.42 376.97L683.42 280.9M688.48 283.79L688.48 366.13M693.54 355.3L693.54 286.67M698.59 289.56L698.59 344.46M703.65 333.63L703.65 292.45M708.7 295.34L708.7 322.79M713.76 311.95L713.76 298.23M779.04 452.8L779.04 466.52M784.09 469.41L784.09 441.96M789.15 431.13L789.15 472.3M794.21 475.19L794.21 420.29M799.26 409.46L799.26 478.08M804.32 480.97L804.32 398.62M809.37 387.79L809.37 483.86M814.43 486.75L814.43 376.95M819.49 366.12L819.49 489.64M824.54 492.52L824.54 361.52M829.6 364.41L829.6 495.41M834.66 498.3L834.66 367.3M839.71 370.19L839.71 501.19M844.77 504.08L844.77 373.08M849.82 375.97L849.82 506.97M854.88 509.86L854.88 378.86M859.94 381.75L859.94 512.75M864.99 515.63L864.99 384.63M870.05 387.52L870.05 518.52M875.11 521.41L875.11 390.41M880.16 393.3L880.16 516.82M885.22 505.98L885.22 396.19M890.27 399.08L890.27 495.15M895.33 484.31L895.33 401.97M900.39 404.86L900.39 473.48M905.44 462.64L905.44 407.75M910.5 410.63L910.5 451.81M915.56 440.97L915.56 413.52M920.61 416.41L920.61 430.14M985.89 584.71L985.89 570.98M990.94 560.15L990.94 587.59M996.0 590.48L996.0 549.31M1001.06 538.48L1001.06 593.37M1006.11 596.26L1006.11 527.64M1011.17 516.8L1011.17 599.15M1016.23 602.04L1016.23 505.97M1021.28 495.13L1021.28 604.93M1026.34 607.82L1026.34 484.3M1031.39 479.71L1031.39 610.71M1036.45 613.59L1036.45 482.59M1041.51 485.48L1041.51 616.48M1046.56 619.37L1046.56 488.37M1051.62 491.26L1051.62 622.26M1056.68 625.15L1056.68 494.15M1061.73 497.04L1061.73 628.04M1066.79 630.93L1066.79 499.93M1071.84 502.82L1071.84 633.82M1076.9 636.7L1076.9 505.7M1081.96 508.59L1081.96 639.59M1087.01 635.0L1087.01 511.48M1092.07 514.37L1092.07 624.17M1097.13 613.33L1097.13 517.26M61.96 305.11L61.96 318.83M67.01 321.72L67.01 294.27M72.07 283.44L72.07 324.61M77.13 327.5L77.13 272.6M82.18 261.76L82.18 330.39M87.24 333.28L87.24 250.93M92.29 240.09L92.29 336.16M97.35 339.05L97.35 229.26M102.41 218.42L102.41 341.94M107.46 344.83L107.46 213.83M112.52 216.72L112.52 347.72M117.58 350.61L117.58 219.61M122.63 222.5L122.63 353.5M127.69 356.39L127.69 225.39M132.74 228.27L132.74 359.27M137.8 362.16L137.8 231.16M142.86 234.05L142.86 365.05M147.91 367.94L147.91 236.94M152.97 239.83L152.97 370.83M158.03 373.72L158.03 242.72M163.08 245.61L163.08 369.13M168.14 358.29L168.14 248.5M173.19 251.39L173.19 347.46M178.25 336.62L178.25 254.27M183.31 257.16L183.31 325.78M188.36 314.95L188.36 260.05M193.42 262.94L193.42 304.11M198.48 293.28L198.48 265.83M203.53 268.72L203.53 282.44M268.81 437.01L268.81 423.29M273.86 412.45L273.86 439.9M278.92 442.79L278.92 401.62M283.98 390.78L283.98 445.68M289.03 448.57L289.03 379.95M294.09 369.11L294.09 451.46M299.15 454.35L299.15 358.28M304.2 347.44L304.2 457.23M309.26 460.12L309.26 336.6M314.31 332.01L314.31 463.01M319.37 465.9L319.37 334.9M324.43 337.79L324.43 468.79M329.48 471.68L329.48 340.68M334.54 343.57L334.54 474.57M339.6 477.46L339.6 346.46M344.65 349.35L344.65 480.35M349.71 483.23L349.71 352.23M354.76 355.12L354.76 486.12M359.82 489.01L359.82 358.01M364.88 360.9L364.88 491.9M369.93 487.31L369.93 363.79M374.99 366.68L374.99 476.47M380.05 465.64L380.05 369.57M385.1 372.46L385.1 454.8M390.16 443.97L390.16 375.34M395.22 378.23L395.22 433.13M400.27 422.3L400.27 381.12M405.33 384.01L405.33 411.46M410.38 400.62L410.38 386.9M475.66 541.47L475.66 555.19M480.72 558.08L480.72 530.63M485.77 519.8L485.77 560.97M490.83 563.86L490.83 508.96M495.88 498.13L495.88 566.75M500.94 569.64L500.94 487.29M506.0 476.46L506.0 572.53M511.05 575.42L511.05 465.62M516.11 454.79L516.11 578.3M521.17 581.19L521.17 450.19M526.22 453.08L526.22 584.08M531.28 586.97L531.28 455.97M536.33 458.86L536.33 589.86M541.39 592.75L541.39 461.75M546.45 464.64L546.45 595.64M551.5 598.53L551.5 467.53M556.56 470.42L556.56 601.42M561.62 604.3L561.62 473.3M566.67 476.19L566.67 607.19M571.73 610.08L571.73 479.08M576.79 481.97L576.79 605.49M581.84 594.65L581.84 484.86M586.9 487.75L586.9 583.82M591.95 572.98L591.95 490.64M597.01 493.53L597.01 562.15M602.07 551.31L602.07 496.42M607.12 499.3L607.12 540.48M612.18 529.64L612.18 502.19M617.24 505.08L617.24 518.81M682.51 673.38L682.51 659.65M687.57 648.82L687.57 676.26M692.62 679.15L692.62 637.98M697.68 627.15L697.68 682.04M702.74 684.93L702.74 616.31M707.79 605.47L707.79 687.82M712.85 690.71L712.85 594.64M717.9 583.8L717.9 693.6M722.96 696.49L722.96 572.97M728.02 568.38L728.02 699.38M733.07 702.26L733.07 571.26M738.13 574.15L738.13 705.15M743.19 708.04L743.19 577.04M748.24 579.93L748.24 710.93M753.3 713.82L753.3 582.82M758.36 585.71L758.36 716.71M763.41 719.6L763.41 588.6M768.47 591.49L768.47 722.49M773.52 725.37L773.52 594.37M778.58 597.26L778.58 728.26M783.64 723.67L783.64 600.15M788.69 603.04L788.69 712.84M793.75 702.0L793.75 605.93M798.81 608.82L798.81 691.16M803.86 680.33L803.86 611.71M808.92 614.6L808.92 669.49M813.97 658.66L813.97 617.49M819.03 620.37L819.03 647.82M824.09 636.99L824.09 623.26M889.36 777.83L889.36 791.56M894.42 794.45L894.42 767.0M899.47 756.16L899.47 797.34M904.53 800.22L904.53 745.33M909.59 734.49L909.59 803.11M914.64 806.0L914.64 723.66M919.7 712.82L919.7 808.89M924.76 811.78L924.76 701.98M929.81 691.15L929.81 814.67M934.87 817.56L934.87 686.56M939.93 689.45L939.93 820.0M944.98 820.0L944.98 692.33M950.04 695.22L950.04 820.0M955.09 820.0L955.09 698.11M960.15 701.0L960.15 820.0M965.21 820.0L965.21 703.89M970.26 706.78L970.26 820.0M975.32 820.0L975.32 709.67M980.38 712.56L980.38 820.0M985.43 820.0L985.43 715.45M990.49 718.33L990.49 820.0M995.54 820.0L995.54 721.22M1000.6 724.11L1000.6 820.0M1005.66 809.35L1005.66 727.0M1010.71 729.89L1010.71 798.51M1015.77 787.68L1015.77 732.78M1020.83 735.67L1020.83 776.84M1025.88 766.0L1025.88 738.56M1030.94 741.44L1030.94 755.17M51.39 574.79L51.39 443.79M56.44 446.68L56.44 577.68M61.5 580.57L61.5 449.57M66.56 452.46L66.56 575.98M71.61 565.14L71.61 455.35M76.67 458.24L76.67 554.31M81.73 543.47L81.73 461.13M86.78 464.01L86.78 532.64M91.84 521.8L91.84 466.9M96.89 469.79L96.89 510.97M101.95 500.13L101.95 472.68M107.01 475.57L107.01 489.29M172.28 643.86L172.28 630.14M177.34 619.3L177.34 646.75M182.39 649.64L182.39 608.47M187.45 597.63L187.45 652.53M192.51 655.42L192.51 586.8M197.56 575.96L197.56 658.31M202.62 661.2L202.62 565.13M207.68 554.29L207.68 664.09M212.73 666.97L212.73 543.46M217.79 538.86L217.79 669.86M222.85 672.75L222.85 541.75M227.9 544.64L227.9 675.64M232.96 678.53L232.96 547.53M238.01 550.42L238.01 681.42M243.07 684.31L243.07 553.31M248.13 556.2L248.13 687.2M253.18 690.09L253.18 559.09M258.24 561.97L258.24 692.97M263.3 695.86L263.3 564.86M268.35 567.75L268.35 698.75M273.41 694.16L273.41 570.64M278.46 573.53L278.46 683.32M283.52 672.49L283.52 576.42M288.58 579.31L288.58 661.65M293.63 650.82L293.63 582.2M298.69 585.09L298.69 639.98M303.75 629.15L303.75 587.97M308.8 590.86L308.8 618.31M313.86 607.48L313.86 593.75M379.13 748.32L379.13 762.05M384.19 764.93L384.19 737.49M389.25 726.65L389.25 767.82M394.3 770.71L394.3 715.82M399.36 704.98L399.36 773.6M404.42 776.49L404.42 694.14M409.47 683.31L409.47 779.38M414.53 782.27L414.53 672.47M419.58 661.64L419.58 785.16M424.64 788.05L424.64 657.05M429.7 659.93L429.7 790.93M434.75 793.82L434.75 662.82M439.81 665.71L439.81 796.71M444.87 799.6L444.87 668.6M449.92 671.49L449.92 802.49M454.98 805.38L454.98 674.38M460.03 677.27L460.03 808.27M465.09 811.16L465.09 680.16M470.15 683.04L470.15 814.04M475.2 816.93L475.2 685.93M480.26 688.82L480.26 812.34M485.32 801.51L485.32 691.71M490.37 694.6L490.37 790.67M495.43 779.83L495.43 697.49M500.48 700.38L500.48 769.0M505.54 758.16L505.54 703.27M510.6 706.16L510.6 747.33M515.65 736.49L515.65 709.04M520.71 711.93L520.71 725.66M611.27 820.0L611.27 812.33M616.32 801.49L616.32 820.0M621.38 820.0L621.38 790.65M626.44 779.82L626.44 820.0M631.49 820.0L631.49 775.23M636.55 778.12L636.55 820.0M641.6 820.0L641.6 781.0M646.66 783.89L646.66 820.0M651.72 820.0L651.72 786.78M656.77 789.67L656.77 820.0M661.83 820.0L661.83 792.56M666.89 795.45L666.89 820.0M671.94 820.0L671.94 798.34M677.0 801.23L677.0 820.0M682.05 820.0L682.05 804.12M687.11 807.0L687.11 820.0M692.17 820.0L692.17 809.89M697.22 812.78L697.22 820.0M702.28 820.0L702.28 815.67M707.34 818.56L707.34 820.0M85.87 820.0L85.87 815.32M90.93 804.48L90.93 820.0M95.98 820.0L95.98 793.65M101.04 782.81L101.04 820.0M106.09 820.0L106.09 771.98M111.15 761.14L111.15 820.0M116.21 820.0L116.21 750.31M121.26 745.72L121.26 820.0M126.32 820.0L126.32 748.6M131.38 751.49L131.38 820.0M136.43 820.0L136.43 754.38M141.49 757.27L141.49 820.0M146.54 820.0L146.54 760.16M151.6 763.05L151.6 820.0M156.66 820.0L156.66 765.94M161.71 768.83L161.71 820.0M166.77 820.0L166.77 771.71M171.83 774.6L171.83 820.0M176.88 820.0L176.88 777.49M181.94 780.38L181.94 820.0M186.99 820.0L186.99 783.27M192.05 786.16L192.05 820.0M197.11 820.0L197.11 789.05M202.16 791.94L202.16 820.0M207.22 820.0L207.22 794.83M212.28 797.71L212.28 820.0M217.33 814.33L217.33 800.6"/>
    </g>
  </g>
</svg>
