<svg version="1.1" width="1150" height="870" xmlns="http://www.w3.org/2000/svg">
  <!-- Seed: 5893366671987551668 -->
  <!-- Size: SvgSize.Size9x12 -->
  <!-- Params:
    draw_lines: True
    draw_aligned_vertical: True
    draw_aligned_horizontal: True
    draw_filled_checkers: True
    pad: 0
    size: [RangeInt] min: 10 max: 150
    skew_vert_degs: [RangeFloat] min: 0 max: 45
    skew_horiz_degs: [RangeFloat] min: 0 max: 45
    interior_space_aligned: 5
    interior_space_filled: 5
  -->
  <g stroke="black" fill="none">
    <path d="M50.0 50.0L50.0 50.0M50.0 361.64L151.0 50.0M252.0 50.0L50.0 673.29M103.45 820.0L353.0 50.0M454.0 50.0L204.45 820.0M305.45 820.0L555.0 50.0M656.0 50.0L406.45 820.0M507.45 820.0L757.0 50.0M858.0 50.0L608.45 820.0M709.45 820.0L959.0 50.0M1060.0 50.0L810.45 820.0M911.45 820.0L1100.0 238.22M1100.0 549.86L1012.45 820.0M1077.42 50.0L1100.0 63.32M1100.0 164.32L906.19 50.0M734.95 50.0L1100.0 265.32M1100.0 366.32L563.71 50.0M392.47 50.0L1100.0 467.32M1100.0 568.32L221.24 50.0M50.0 50.0L1100.0 669.32M1100.0 770.32L50.0 151.0M50.0 252.0L1013.0 820.0M841.76 820.0L50.0 353.0M50.0 454.0L670.52 820.0M499.29 820.0L50.0 555.0M50.0 656.0L328.05 820.0M156.81 820.0L50.0 757.0"/>
    <g stroke="red">
      <path d="M55.05 50.0L50.0 65.58M50.0 81.16L60.1 50.0M65.15 50.0L50.0 96.75M50.0 112.33L70.2 50.0M75.25 50.0L50.0 127.91M50.0 143.49L80.3 50.0M85.35 50.0L50.0 159.07M50.0 174.66L90.4 50.0M95.45 50.0L50.0 190.24M50.0 205.82L100.5 50.0M105.55 50.0L50.0 221.4M50.0 236.99L110.6 50.0M115.65 50.0L50.0 252.57M50.0 268.15L120.7 50.0M125.75 50.0L50.0 283.73M50.0 299.31L130.8 50.0M135.85 50.0L50.0 314.9M50.0 330.48L140.9 50.0M145.95 50.0L50.0 346.06M50.0 688.87L257.05 50.0M262.1 50.0L50.0 704.45M50.0 720.03L267.15 50.0M272.2 50.0L50.0 735.61M50.0 751.2L277.25 50.0M282.3 50.0L50.0 766.78M50.0 782.36L287.35 50.0M292.4 50.0L50.0 797.94M50.0 813.52L297.45 50.0M302.5 50.0L52.95 820.0M58.0 820.0L307.55 50.0M312.6 50.0L63.05 820.0M68.1 820.0L317.65 50.0M322.7 50.0L73.15 820.0M78.2 820.0L327.75 50.0M332.8 50.0L83.25 820.0M88.3 820.0L337.85 50.0M342.9 50.0L93.35 820.0M98.4 820.0L347.95 50.0M459.05 50.0L209.5 820.0M214.55 820.0L464.1 50.0M469.15 50.0L219.6 820.0M224.65 820.0L474.2 50.0M479.25 50.0L229.7 820.0M234.75 820.0L484.3 50.0M489.35 50.0L239.8 820.0M244.85 820.0L494.4 50.0M499.45 50.0L249.9 820.0M254.95 820.0L504.5 50.0M509.55 50.0L260.0 820.0M265.05 820.0L514.6 50.0M519.65 50.0L270.1 820.0M275.15 820.0L524.7 50.0M529.75 50.0L280.2 820.0M285.25 820.0L534.8 50.0M539.85 50.0L290.3 820.0M295.35 820.0L544.9 50.0M549.95 50.0L300.4 820.0M411.5 820.0L661.05 50.0M666.1 50.0L416.55 820.0M421.6 820.0L671.15 50.0M676.2 50.0L426.65 820.0M431.7 820.0L681.25 50.0M686.3 50.0L436.75 820.0M441.8 820.0L691.35 50.0M696.4 50.0L446.85 820.0M451.9 820.0L701.45 50.0M706.5 50.0L456.95 820.0M462.0 820.0L711.55 50.0M716.6 50.0L467.05 820.0M472.1 820.0L721.65 50.0M726.7 50.0L477.15 820.0M482.2 820.0L731.75 50.0M736.8 50.0L487.25 820.0M492.3 820.0L741.85 50.0M746.9 50.0L497.35 820.0M502.4 820.0L751.95 50.0M863.05 50.0L613.5 820.0M618.55 820.0L868.1 50.0M873.15 50.0L623.6 820.0M628.65 820.0L878.2 50.0M883.25 50.0L633.7 820.0M638.75 820.0L888.3 50.0M893.35 50.0L643.8 820.0M648.85 820.0L898.4 50.0M903.45 50.0L653.9 820.0M658.95 820.0L908.5 50.0M913.55 50.0L664.0 820.0M669.05 820.0L918.6 50.0M923.65 50.0L674.1 820.0M679.15 820.0L928.7 50.0M933.75 50.0L684.2 820.0M689.25 820.0L938.8 50.0M943.85 50.0L694.3 820.0M699.35 820.0L948.9 50.0M953.95 50.0L704.4 820.0M815.5 820.0L1065.05 50.0M1070.1 50.0L820.55 820.0M825.6 820.0L1075.15 50.0M1080.2 50.0L830.65 820.0M835.7 820.0L1085.25 50.0M1090.3 50.0L840.75 820.0M845.8 820.0L1095.35 50.0M1100.0 51.23L850.85 820.0M855.9 820.0L1100.0 66.82M1100.0 82.4L860.95 820.0M866.0 820.0L1100.0 97.98M1100.0 113.56L871.05 820.0M876.1 820.0L1100.0 129.14M1100.0 144.73L881.15 820.0M886.2 820.0L1100.0 160.31M1100.0 175.89L891.25 820.0M896.3 820.0L1100.0 191.47M1100.0 207.06L901.35 820.0M906.4 820.0L1100.0 222.64M1100.0 565.44L1017.5 820.0M1022.55 820.0L1100.0 581.03M1100.0 596.61L1027.6 820.0M1032.65 820.0L1100.0 612.19M1100.0 627.77L1037.7 820.0M1042.75 820.0L1100.0 643.36M1100.0 658.94L1047.8 820.0M1052.85 820.0L1100.0 674.52M1100.0 690.1L1057.9 820.0M1062.95 820.0L1100.0 705.68M1100.0 721.27L1068.0 820.0M1073.05 820.0L1100.0 736.85M1100.0 752.43L1078.1 820.0M1083.15 820.0L1100.0 768.01M1100.0 783.59L1088.2 820.0M1093.25 820.0L1100.0 799.18M1100.0 814.76L1098.3 820.0"/>
    </g>
    <g stroke="blue">
      <path d="M1068.86 50.0L1100.0 68.37M1100.0 73.42L1060.3 50.0M1051.74 50.0L1100.0 78.47M1100.0 83.52L1043.18 50.0M1034.61 50.0L1100.0 88.57M1100.0 93.62L1026.05 50.0M1017.49 50.0L1100.0 98.67M1100.0 103.72L1008.93 50.0M1000.37 50.0L1100.0 108.77M1100.0 113.82L991.8 50.0M983.24 50.0L1100.0 118.87M1100.0 123.92L974.68 50.0M966.12 50.0L1100.0 128.97M1100.0 134.02L957.56 50.0M948.99 50.0L1100.0 139.07M1100.0 144.12L940.43 50.0M931.87 50.0L1100.0 149.17M1100.0 154.22L923.31 50.0M914.75 50.0L1100.0 159.27M1100.0 270.37L726.39 50.0M717.82 50.0L1100.0 275.42M1100.0 280.47L709.26 50.0M700.7 50.0L1100.0 285.52M1100.0 290.57L692.14 50.0M683.58 50.0L1100.0 295.62M1100.0 300.67L675.02 50.0M666.45 50.0L1100.0 305.72M1100.0 310.77L657.89 50.0M649.33 50.0L1100.0 315.82M1100.0 320.87L640.77 50.0M632.21 50.0L1100.0 325.92M1100.0 330.97L623.64 50.0M615.08 50.0L1100.0 336.02M1100.0 341.07L606.52 50.0M597.96 50.0L1100.0 346.12M1100.0 351.17L589.4 50.0M580.84 50.0L1100.0 356.22M1100.0 361.27L572.27 50.0M383.91 50.0L1100.0 472.37M1100.0 477.42L375.35 50.0M366.79 50.0L1100.0 482.47M1100.0 487.52L358.23 50.0M349.66 50.0L1100.0 492.57M1100.0 497.62L341.1 50.0M332.54 50.0L1100.0 502.67M1100.0 507.72L323.98 50.0M315.42 50.0L1100.0 512.77M1100.0 517.82L306.86 50.0M298.29 50.0L1100.0 522.87M1100.0 527.92L289.73 50.0M281.17 50.0L1100.0 532.97M1100.0 538.02L272.61 50.0M264.05 50.0L1100.0 543.07M1100.0 548.12L255.48 50.0M246.92 50.0L1100.0 553.17M1100.0 558.22L238.36 50.0M229.8 50.0L1100.0 563.27M1100.0 674.37L50.0 55.05M50.0 60.1L1100.0 679.42M1100.0 684.47L50.0 65.15M50.0 70.2L1100.0 689.52M1100.0 694.57L50.0 75.25M50.0 80.3L1100.0 699.62M1100.0 704.67L50.0 85.35M50.0 90.4L1100.0 709.72M1100.0 714.77L50.0 95.45M50.0 100.5L1100.0 719.82M1100.0 724.87L50.0 105.55M50.0 110.6L1100.0 729.92M1100.0 734.97L50.0 115.65M50.0 120.7L1100.0 740.02M1100.0 745.07L50.0 125.75M50.0 130.8L1100.0 750.12M1100.0 755.17L50.0 135.85M50.0 140.9L1100.0 760.22M1100.0 765.27L50.0 145.95M50.0 257.05L1004.44 820.0M995.87 820.0L50.0 262.1M50.0 267.15L987.31 820.0M978.75 820.0L50.0 272.2M50.0 277.25L970.19 820.0M961.63 820.0L50.0 282.3M50.0 287.35L953.06 820.0M944.5 820.0L50.0 292.4M50.0 297.45L935.94 820.0M927.38 820.0L50.0 302.5M50.0 307.55L918.82 820.0M910.25 820.0L50.0 312.6M50.0 317.65L901.69 820.0M893.13 820.0L50.0 322.7M50.0 327.75L884.57 820.0M876.01 820.0L50.0 332.8M50.0 337.85L867.45 820.0M858.88 820.0L50.0 342.9M50.0 347.95L850.32 820.0M661.96 820.0L50.0 459.05M50.0 464.1L653.4 820.0M644.84 820.0L50.0 469.15M50.0 474.2L636.28 820.0M627.71 820.0L50.0 479.25M50.0 484.3L619.15 820.0M610.59 820.0L50.0 489.35M50.0 494.4L602.03 820.0M593.47 820.0L50.0 499.45M50.0 504.5L584.9 820.0M576.34 820.0L50.0 509.55M50.0 514.6L567.78 820.0M559.22 820.0L50.0 519.65M50.0 524.7L550.66 820.0M542.09 820.0L50.0 529.75M50.0 534.8L533.53 820.0M524.97 820.0L50.0 539.85M50.0 544.9L516.41 820.0M507.85 820.0L50.0 549.95M50.0 661.05L319.49 820.0M310.92 820.0L50.0 666.1M50.0 671.15L302.36 820.0M293.8 820.0L50.0 676.2M50.0 681.25L285.24 820.0M276.68 820.0L50.0 686.3M50.0 691.35L268.12 820.0M259.55 820.0L50.0 696.4M50.0 701.45L250.99 820.0M242.43 820.0L50.0 706.5M50.0 711.55L233.87 820.0M225.31 820.0L50.0 716.6M50.0 721.65L216.74 820.0M208.18 820.0L50.0 726.7M50.0 731.75L199.62 820.0M191.06 820.0L50.0 736.8M50.0 741.85L182.5 820.0M173.94 820.0L50.0 746.9M50.0 751.95L165.37 820.0"/>
    </g>
    <g stroke="green">
      <path d="M53.14 51.85L53.14 152.85M58.24 155.86L58.24 54.86M63.35 57.87L63.35 158.87M68.45 161.88L68.45 60.88M73.55 63.89L73.55 164.89M78.66 167.9L78.66 66.9M83.76 69.91L83.76 170.91M88.86 173.92L88.86 72.92M93.97 75.93L93.97 176.93M99.07 179.94L99.07 78.94M104.17 81.95L104.17 182.95M109.28 178.74L109.28 84.96M114.38 87.97L114.38 163.0M119.48 147.25L119.48 90.98M124.59 93.99L124.59 131.51M129.69 115.76L129.69 97.0M54.32 254.55L54.32 348.33M59.42 332.58L59.42 257.56M64.52 260.57L64.52 316.83M69.62 301.09L69.62 263.58M74.73 266.59L74.73 285.34M252.17 68.24L252.17 50.0M257.27 50.0L257.27 71.25M262.37 74.26L262.37 50.0M267.48 50.0L267.48 77.27M272.58 80.28L272.58 50.0M277.68 50.0L277.68 83.29M282.79 86.3L282.79 50.0M287.89 50.0L287.89 89.31M292.99 92.32L292.99 50.0M298.1 50.0L298.1 95.33M303.2 98.34L303.2 50.0M308.3 50.0L308.3 101.35M313.41 104.36L313.41 50.0M318.51 50.0L318.51 107.37M323.61 110.38L323.61 50.0M328.72 50.0L328.72 113.39M333.82 109.19L333.82 50.0M338.92 50.0L338.92 93.44M344.03 77.69L344.03 50.0M349.13 50.0L349.13 61.95M197.21 237.83L197.21 219.07M202.31 203.32L202.31 240.84M207.41 243.85L207.41 187.58M212.52 171.83L212.52 246.86M217.62 249.87L217.62 156.08M222.72 151.88L222.72 252.88M227.83 255.89L227.83 154.89M232.93 157.9L232.93 258.9M238.03 261.91L238.03 160.91M243.14 163.92L243.14 264.92M248.24 267.93L248.24 166.93M253.34 169.94L253.34 270.94M258.45 273.95L258.45 172.95M263.55 175.96L263.55 276.96M268.65 279.97L268.65 178.97M273.76 181.98L273.76 282.98M278.86 278.77L278.86 184.99M283.96 188.0L283.96 263.02M289.06 247.28L289.06 191.01M294.17 194.02L294.17 231.53M299.27 215.78L299.27 197.03M142.25 388.65L142.25 407.41M147.35 410.42L147.35 372.91M152.45 357.16L152.45 413.43M157.56 416.44L157.56 341.41M162.66 325.67L162.66 419.45M167.76 422.46L167.76 321.46M172.87 324.47L172.87 425.47M177.97 428.48L177.97 327.48M183.07 330.49L183.07 431.49M188.18 434.5L188.18 333.5M193.28 336.51L193.28 437.51M198.38 440.52L198.38 339.52M203.49 342.53L203.49 443.53M208.59 446.54L208.59 345.54M213.69 348.55L213.69 449.55M218.8 452.56L218.8 351.56M223.9 354.57L223.9 448.35M229.0 432.61L229.0 357.58M234.1 360.59L234.1 416.86M239.21 401.11L239.21 363.6M244.31 366.61L244.31 385.37M87.29 576.99L87.29 558.24M92.39 542.49L92.39 580.0M97.49 583.01L97.49 526.74M102.6 511.0L102.6 586.02M107.7 589.03L107.7 495.25M112.8 491.04L112.8 592.04M117.91 595.05L117.91 494.05M123.01 497.06L123.01 598.06M128.11 601.07L128.11 500.07M133.22 503.08L133.22 604.08M138.32 607.09L138.32 506.09M143.42 509.1L143.42 610.1M148.53 613.11L148.53 512.11M153.63 515.12L153.63 616.12M158.73 619.13L158.73 518.13M163.84 521.14L163.84 622.14M168.94 617.94L168.94 524.15M174.04 527.16L174.04 602.19M179.14 586.44L179.14 530.17M184.25 533.18L184.25 570.7M189.35 554.95L189.35 536.19M52.74 664.83L52.74 758.62M57.84 761.63L57.84 660.63M62.95 663.64L62.95 764.64M68.05 767.65L68.05 666.65M73.15 669.66L73.15 770.66M78.26 773.67L78.26 672.67M83.36 675.68L83.36 776.68M88.46 779.69L88.46 678.69M93.57 681.7L93.57 782.7M98.67 785.71L98.67 684.71M103.77 687.72L103.77 788.72M108.87 791.73L108.87 690.73M113.98 693.74L113.98 787.52M119.08 771.77L119.08 696.75M124.18 699.76L124.18 756.03M129.29 740.28L129.29 702.77M134.39 705.78L134.39 724.53M421.75 168.27L421.75 149.51M426.85 133.76L426.85 171.28M431.96 174.29L431.96 118.02M437.06 102.27L437.06 177.3M442.16 180.31L442.16 86.53M447.27 82.32L447.27 183.32M452.37 186.33L452.37 85.33M457.47 88.34L457.47 189.34M462.58 192.35L462.58 91.35M467.68 94.36L467.68 195.36M472.78 198.37L472.78 97.37M477.89 100.38L477.89 201.38M482.99 204.39L482.99 103.39M488.09 106.4L488.09 207.4M493.2 210.41L493.2 109.41M498.3 112.42L498.3 213.42M503.4 209.21L503.4 115.43M508.5 118.44L508.5 193.46M513.61 177.72L513.61 121.45M518.71 124.46L518.71 161.97M523.81 146.22L523.81 127.47M366.79 319.09L366.79 337.85M371.89 340.86L371.89 303.35M377.0 287.6L377.0 343.87M382.1 346.88L382.1 271.85M387.2 256.11L387.2 349.89M392.31 352.9L392.31 251.9M397.41 254.91L397.41 355.91M402.51 358.92L402.51 257.92M407.62 260.93L407.62 361.93M412.72 364.94L412.72 263.94M417.82 266.95L417.82 367.95M422.93 370.96L422.93 269.96M428.03 272.97L428.03 373.97M433.13 376.98L433.13 275.98M438.24 278.99L438.24 379.99M443.34 383.0L443.34 282.0M448.44 285.01L448.44 378.79M453.54 363.05L453.54 288.02M458.65 291.03L458.65 347.3M463.75 331.55L463.75 294.04M468.85 297.05L468.85 315.81M311.83 507.43L311.83 488.68M316.93 472.93L316.93 510.44M322.04 513.45L322.04 457.18M327.14 441.44L327.14 516.46M332.24 519.47L332.24 425.69M337.35 421.48L337.35 522.48M342.45 525.49L342.45 424.49M347.55 427.5L347.55 528.5M352.66 531.51L352.66 430.51M357.76 433.52L357.76 534.52M362.86 537.53L362.86 436.53M367.97 439.54L367.97 540.54M373.07 543.55L373.07 442.55M378.17 445.56L378.17 546.56M383.28 549.57L383.28 448.57M388.38 451.58L388.38 552.58M393.48 548.38L393.48 454.59M398.58 457.6L398.58 532.63M403.69 516.88L403.69 460.61M408.79 463.62L408.79 501.14M413.89 485.39L413.89 466.63M256.87 658.26L256.87 677.02M261.97 680.03L261.97 642.51M267.08 626.77L267.08 683.04M272.18 686.05L272.18 611.02M277.28 595.27L277.28 689.06M282.39 692.07L282.39 591.07M287.49 594.08L287.49 695.08M292.59 698.09L292.59 597.09M297.7 600.1L297.7 701.1M302.8 704.11L302.8 603.11M307.9 606.12L307.9 707.12M313.01 710.13L313.01 609.13M318.11 612.14L318.11 713.14M323.21 716.15L323.21 615.15M328.31 618.16L328.31 719.16M333.42 722.17L333.42 621.17M338.52 624.18L338.52 717.96M343.62 702.21L343.62 627.19M348.73 630.2L348.73 686.47M353.83 670.72L353.83 633.21M358.93 636.22L358.93 654.97M207.01 820.0L207.01 812.1M212.12 796.35L212.12 820.0M217.22 820.0L217.22 780.6M222.32 764.86L222.32 820.0M227.43 820.0L227.43 760.65M232.53 763.66L232.53 820.0M237.63 820.0L237.63 766.67M242.74 769.68L242.74 820.0M247.84 820.0L247.84 772.69M252.94 775.7L252.94 820.0M258.05 820.0L258.05 778.71M263.15 781.72L263.15 820.0M268.25 820.0L268.25 784.73M273.35 787.74L273.35 820.0M278.46 820.0L278.46 790.75M283.56 793.76L283.56 820.0M288.66 820.0L288.66 796.77M293.77 799.78L293.77 820.0M298.87 820.0L298.87 802.79M303.97 805.8L303.97 820.0M646.29 98.71L646.29 79.95M651.4 64.21L651.4 101.72M656.5 104.73L656.5 50.0M661.6 50.0L661.6 107.74M666.71 110.75L666.71 50.0M671.81 50.0L671.81 113.76M676.91 116.77L676.91 50.0M682.02 50.0L682.02 119.78M687.12 122.79L687.12 50.0M692.22 50.0L692.22 125.8M697.33 128.81L697.33 50.0M702.43 50.0L702.43 131.82M707.53 134.83L707.53 50.0M712.64 50.0L712.64 137.84M717.74 140.85L717.74 50.0M722.84 50.0L722.84 143.86M727.94 139.65L727.94 50.0M733.05 50.0L733.05 123.91M738.15 108.16L738.15 51.89M743.25 54.9L743.25 92.41M748.36 76.67L748.36 57.91M591.33 249.54L591.33 268.29M596.44 271.3L596.44 233.79M601.54 218.04L601.54 274.31M606.64 277.32L606.64 202.3M611.75 186.55L611.75 280.33M616.85 283.34L616.85 182.34M621.95 185.35L621.95 286.35M627.06 289.36L627.06 188.36M632.16 191.37L632.16 292.37M637.26 295.38L637.26 194.38M642.37 197.39L642.37 298.39M647.47 301.4L647.47 200.4M652.57 203.41L652.57 304.41M657.68 307.42L657.68 206.42M662.78 209.43L662.78 310.43M667.88 313.44L667.88 212.44M672.98 215.45L672.98 309.23M678.09 293.49L678.09 218.46M683.19 221.47L683.19 277.74M688.29 262.0L688.29 224.48M693.4 227.49L693.4 246.25M536.37 437.87L536.37 419.12M541.48 403.37L541.48 440.88M546.58 443.89L546.58 387.63M551.68 371.88L551.68 446.9M556.79 449.92L556.79 356.13M561.89 351.93L561.89 452.93M566.99 455.94L566.99 354.94M572.1 357.95L572.1 458.95M577.2 461.96L577.2 360.96M582.3 363.97L582.3 464.97M587.41 467.98L587.41 366.98M592.51 369.99L592.51 470.99M597.61 474.0L597.61 373.0M602.71 376.01L602.71 477.01M607.82 480.02L607.82 379.02M612.92 382.03L612.92 483.03M618.02 478.82L618.02 385.04M623.13 388.05L623.13 463.07M628.23 447.32L628.23 391.06M633.33 394.07L633.33 431.58M638.44 415.83L638.44 397.08M481.41 588.7L481.41 607.46M486.52 610.47L486.52 572.96M491.62 557.21L491.62 613.48M496.72 616.49L496.72 541.46M501.83 525.72L501.83 619.5M506.93 622.51L506.93 521.51M512.03 524.52L512.03 625.52M517.14 628.53L517.14 527.53M522.24 530.54L522.24 631.54M527.34 634.55L527.34 533.55M532.45 536.56L532.45 637.56M537.55 640.57L537.55 539.57M542.65 542.58L542.65 643.58M547.75 646.59L547.75 545.59M552.86 548.6L552.86 649.6M557.96 652.61L557.96 551.61M563.06 554.62L563.06 648.4M568.17 632.65L568.17 557.63M573.27 560.64L573.27 616.91M578.37 601.16L578.37 563.65M583.48 566.66L583.48 585.42M426.45 777.04L426.45 758.28M431.56 742.54L431.56 780.05M436.66 783.06L436.66 726.79M441.76 711.05L441.76 786.07M446.87 789.08L446.87 695.3M451.97 691.09L451.97 792.09M457.07 795.1L457.07 694.1M462.18 697.11L462.18 798.11M467.28 801.12L467.28 700.12M472.38 703.13L472.38 804.13M477.49 807.14L477.49 706.14M482.59 709.15L482.59 810.15M487.69 813.16L487.69 712.16M492.79 715.17L492.79 816.17M497.9 819.18L497.9 718.18M503.0 721.19L503.0 820.0M508.1 817.98L508.1 724.2M513.21 727.21L513.21 802.24M518.31 786.49L518.31 730.22M523.41 733.23L523.41 770.74M528.52 755.0L528.52 736.24M906.56 50.0L906.56 50.22M911.66 53.23L911.66 50.0M916.77 50.0L916.77 56.24M921.87 59.25L921.87 50.0M926.97 50.0L926.97 62.26M932.08 65.27L932.08 50.0M937.18 50.0L937.18 68.28M942.28 71.29L942.28 50.0M947.38 50.0L947.38 74.3M952.49 70.09L952.49 50.0M957.59 50.0L957.59 54.35M815.88 198.73L815.88 179.98M820.98 164.23L820.98 201.74M826.08 204.75L826.08 148.48M831.19 132.74L831.19 207.76M836.29 210.77L836.29 116.99M841.39 112.78L841.39 213.78M846.5 216.79L846.5 115.79M851.6 118.8L851.6 219.8M856.7 222.81L856.7 121.81M861.81 124.82L861.81 225.82M866.91 228.83L866.91 127.83M872.01 130.84L872.01 231.84M877.12 234.85L877.12 133.85M882.22 136.86L882.22 237.86M887.32 240.87L887.32 139.87M892.42 142.88L892.42 243.88M897.53 239.68L897.53 145.89M902.63 148.9L902.63 223.93M907.73 208.18L907.73 151.91M912.84 154.92L912.84 192.44M917.94 176.69L917.94 157.93M760.92 349.56L760.92 368.32M766.02 371.33L766.02 333.81M771.12 318.07L771.12 374.34M776.23 377.35L776.23 302.32M781.33 286.57L781.33 380.36M786.43 383.37L786.43 282.37M791.54 285.38L791.54 386.38M796.64 389.39L796.64 288.39M801.74 291.4L801.74 392.4M806.85 395.41L806.85 294.41M811.95 297.42L811.95 398.42M817.05 401.43L817.05 300.43M822.15 303.44L822.15 404.44M827.26 407.45L827.26 306.45M832.36 309.46L832.36 410.46M837.46 413.47L837.46 312.47M842.57 315.48L842.57 409.26M847.67 393.51L847.67 318.49M852.77 321.5L852.77 377.77M857.88 362.02L857.88 324.51M862.98 327.52L862.98 346.27M705.96 537.9L705.96 519.14M711.06 503.4L711.06 540.91M716.16 543.92L716.16 487.65M721.27 471.9L721.27 546.93M726.37 549.94L726.37 456.16M731.47 451.95L731.47 552.95M736.58 555.96L736.58 454.96M741.68 457.97L741.68 558.97M746.78 561.98L746.78 460.98M751.89 463.99L751.89 564.99M756.99 568.0L756.99 467.0M762.09 470.01L762.09 571.01M767.19 574.02L767.19 473.02M772.3 476.03L772.3 577.03M777.4 580.04L777.4 479.04M782.5 482.05L782.5 583.05M787.61 578.84L787.61 485.06M792.71 488.07L792.71 563.1M797.81 547.35L797.81 491.08M802.92 494.09L802.92 531.6M808.02 515.86L808.02 497.1M651.0 688.73L651.0 707.48M656.1 710.49L656.1 672.98M661.2 657.23L661.2 713.5M666.31 716.51L666.31 641.49M671.41 625.74L671.41 719.52M676.51 722.53L676.51 621.53M681.62 624.54L681.62 725.54M686.72 728.55L686.72 627.55M691.82 630.56L691.82 731.56M696.93 734.57L696.93 633.57M702.03 636.58L702.03 737.58M707.13 740.59L707.13 639.59M712.23 642.6L712.23 743.6M717.34 746.61L717.34 645.61M722.44 648.62L722.44 749.62M727.54 752.63L727.54 651.63M732.65 654.64L732.65 748.43M737.75 732.68L737.75 657.65M742.85 660.66L742.85 716.93M747.96 701.19L747.96 663.67M753.06 666.68L753.06 685.44M611.35 820.0L611.35 811.07M616.45 795.32L616.45 820.0M621.55 820.0L621.55 791.12M626.66 794.13L626.66 820.0M631.76 820.0L631.76 797.14M636.86 800.15L636.86 820.0M641.96 820.0L641.96 803.16M647.07 806.17L647.07 820.0M652.17 820.0L652.17 809.18M657.27 812.19L657.27 820.0M662.38 820.0L662.38 815.2M667.48 818.21L667.48 820.0M1040.42 129.17L1040.42 110.42M1045.52 94.67L1045.52 132.18M1050.63 135.19L1050.63 78.92M1055.73 63.18L1055.73 138.2M1060.83 141.21L1060.83 50.0M1065.94 50.0L1065.94 144.22M1071.04 147.23L1071.04 50.0M1076.14 50.0L1076.14 150.24M1081.25 153.25L1081.25 52.25M1086.35 55.26L1086.35 156.26M1091.45 159.27L1091.45 58.27M1096.56 61.28L1096.56 162.28M985.46 298.76L985.46 280.0M990.56 264.25L990.56 301.77M995.67 304.78L995.67 248.51M1000.77 232.76L1000.77 307.79M1005.87 310.8L1005.87 217.02M1010.98 212.81L1010.98 313.81M1016.08 316.82L1016.08 215.82M1021.18 218.83L1021.18 319.83M1026.29 322.84L1026.29 221.84M1031.39 224.85L1031.39 325.85M1036.49 328.86L1036.49 227.86M1041.59 230.87L1041.59 331.87M1046.7 334.88L1046.7 233.88M1051.8 236.89L1051.8 337.89M1056.9 340.9L1056.9 239.9M1062.01 242.91L1062.01 343.91M1067.11 339.7L1067.11 245.92M1072.21 248.93L1072.21 323.95M1077.32 308.21L1077.32 251.94M1082.42 254.95L1082.42 292.46M1087.52 276.71L1087.52 257.96M930.5 449.58L930.5 468.34M935.6 471.35L935.6 433.84M940.71 418.09L940.71 474.36M945.81 477.37L945.81 402.34M950.91 386.6L950.91 480.38M956.02 483.39L956.02 382.39M961.12 385.4L961.12 486.4M966.22 489.41L966.22 388.41M971.33 391.42L971.33 492.42M976.43 495.43L976.43 394.43M981.53 397.44L981.53 498.44M986.63 501.45L986.63 400.45M991.74 403.46L991.74 504.46M996.84 507.47L996.84 406.47M1001.94 409.48L1001.94 510.48M1007.05 513.49L1007.05 412.49M1012.15 415.5L1012.15 509.28M1017.25 493.54L1017.25 418.51M1022.36 421.52L1022.36 477.79M1027.46 462.04L1027.46 424.53M1032.56 427.54L1032.56 446.3M875.54 637.92L875.54 619.17M880.64 603.42L880.64 640.93M885.75 643.94L885.75 587.67M890.85 571.93L890.85 646.95M895.95 649.96L895.95 556.18M901.06 551.97L901.06 652.97M906.16 655.98L906.16 554.98M911.26 557.99L911.26 658.99M916.37 662.0L916.37 561.0M921.47 564.01L921.47 665.01M926.57 668.02L926.57 567.02M931.67 570.03L931.67 671.03M936.78 674.04L936.78 573.04M941.88 576.05L941.88 677.05M946.98 680.06L946.98 579.06M952.09 582.07L952.09 683.07M957.19 678.87L957.19 585.08M962.29 588.09L962.29 663.12M967.4 647.37L967.4 591.1M972.5 594.11L972.5 631.63M977.6 615.88L977.6 597.12M820.58 788.75L820.58 807.51M825.68 810.52L825.68 773.0M830.79 757.26L830.79 813.53M835.89 816.54L835.89 741.51M840.99 725.76L840.99 819.55M846.1 820.0L846.1 721.56M851.2 724.57L851.2 820.0M856.3 820.0L856.3 727.58M861.4 730.59L861.4 820.0M866.51 820.0L866.51 733.6M871.61 736.61L871.61 820.0M876.71 820.0L876.71 739.62M881.82 742.63L881.82 820.0M886.92 820.0L886.92 745.64M892.02 748.65L892.02 820.0M897.13 820.0L897.13 751.66M902.23 754.67L902.23 820.0M907.33 820.0L907.33 757.68M912.44 760.69L912.44 816.96M917.54 801.21L917.54 763.7M922.64 766.71L922.64 785.46M1045.12 737.95L1045.12 719.19M1050.23 703.45L1050.23 740.96M1055.33 743.97L1055.33 687.7M1060.43 671.95L1060.43 746.98M1065.54 749.99L1065.54 656.21M1070.64 652.0L1070.64 753.0M1075.74 756.01L1075.74 655.01M1080.84 658.02L1080.84 759.02M1085.95 762.03L1085.95 661.03M1091.05 664.04L1091.05 765.04M1096.15 768.05L1096.15 667.05M758.56 50.0L758.56 63.93M763.67 66.94L763.67 50.0M768.77 50.0L768.77 69.95M773.87 72.96L773.87 50.0M778.98 50.0L778.98 75.97M784.08 78.98L784.08 50.0M789.18 50.0L789.18 81.99M794.29 85.0L794.29 50.0M799.39 50.0L799.39 88.01M804.49 91.02L804.49 50.0M809.6 50.0L809.6 94.03M814.7 97.04L814.7 50.0M819.8 50.0L819.8 100.05M824.91 103.06L824.91 50.0M830.01 50.0L830.01 106.07M835.11 109.08L835.11 50.0M840.22 50.0L840.22 104.87M845.32 89.13L845.32 50.0M850.42 50.0L850.42 73.38M855.53 57.63L855.53 50.0M928.15 145.2L928.15 163.95M933.25 166.96L933.25 129.45M938.35 113.7L938.35 169.97M943.46 172.98L943.46 97.96M948.56 82.21L948.56 175.99M953.66 179.0L953.66 78.0M958.77 81.01L958.77 182.01M963.87 185.02L963.87 84.02M968.97 87.03L968.97 188.03M974.08 191.04L974.08 90.04M979.18 93.05L979.18 194.05M984.28 197.06L984.28 96.06M989.39 99.07L989.39 200.07M994.49 203.08L994.49 102.08M999.59 105.09L999.59 206.09M1004.7 209.1L1004.7 108.1M1009.8 111.11L1009.8 204.9M1014.9 189.15L1014.9 114.12M1020.01 117.13L1020.01 173.4M1025.11 157.66L1025.11 120.14M1030.21 123.15L1030.21 141.91M1097.73 263.98L1097.73 245.22M395.06 50.0L395.06 51.52M400.16 54.53L400.16 50.0M405.26 50.0L405.26 57.54M410.37 60.55L410.37 50.0M415.47 50.0L415.47 63.56M420.57 66.57L420.57 50.0M425.68 50.0L425.68 69.58M430.78 72.59L430.78 50.0M435.88 50.0L435.88 75.6M440.99 78.61L440.99 50.0M446.09 50.0L446.09 74.41M451.19 58.66L451.19 50.0M534.02 114.73L534.02 133.49M539.12 136.5L539.12 98.99M544.23 83.24L544.23 139.51M549.33 142.52L549.33 67.49M554.43 51.75L554.43 145.53M559.54 148.54L559.54 50.0M564.64 50.55L564.64 151.55M569.74 154.56L569.74 53.56M574.85 56.57L574.85 157.57M579.95 160.58L579.95 59.58M585.05 62.59L585.05 163.59M590.16 166.6L590.16 65.6M595.26 68.61L595.26 169.61M600.36 172.62L600.36 71.62M605.47 74.63L605.47 175.63M610.57 178.64L610.57 77.64M615.67 80.65L615.67 174.43M620.78 158.68L620.78 83.66M625.88 86.67L625.88 142.94M630.98 127.19L630.98 89.68M636.09 92.69L636.09 111.45M703.6 233.51L703.6 214.76M708.71 199.01L708.71 236.52M713.81 239.53L713.81 183.26M718.91 167.52L718.91 242.54M724.02 245.55L724.02 151.77M729.12 147.56L729.12 248.56M734.22 251.57L734.22 150.57M739.33 153.58L739.33 254.58M744.43 257.59L744.43 156.59M749.53 159.6L749.53 260.6M754.64 263.61L754.64 162.61M759.74 165.62L759.74 266.62M764.84 269.63L764.84 168.63M769.95 171.64L769.95 272.64M775.05 275.65L775.05 174.65M780.15 177.66L780.15 278.66M785.26 274.46L785.26 180.67M790.36 183.68L790.36 258.71M795.46 242.96L795.46 186.69M800.57 189.7L800.57 227.22M805.67 211.47L805.67 192.71M873.19 314.78L873.19 333.54M878.29 336.55L878.29 299.03M883.39 283.29L883.39 339.56M888.5 342.57L888.5 267.54M893.6 251.79L893.6 345.58M898.7 348.59L898.7 247.59M903.81 250.6L903.81 351.6M908.91 354.61L908.91 253.61M914.01 256.62L914.01 357.62M919.12 360.63L919.12 259.63M924.22 262.64L924.22 363.64M929.32 366.65L929.32 265.65M934.43 268.66L934.43 369.66M939.53 372.67L939.53 271.67M944.63 274.68L944.63 375.68M949.74 378.69L949.74 277.69M954.84 280.7L954.84 374.48M959.94 358.73L959.94 283.71M965.05 286.72L965.05 342.99M970.15 327.24L970.15 289.73M975.25 292.74L975.25 311.49M1042.77 433.56L1042.77 414.8M1047.87 399.06L1047.87 436.57M1052.98 439.58L1052.98 383.31M1058.08 367.57L1058.08 442.59M1063.18 445.6L1063.18 351.82M1068.29 347.61L1068.29 448.61M1073.39 451.62L1073.39 350.62M1078.49 353.63L1078.49 454.63M1083.6 457.64L1083.6 356.64M1088.7 359.65L1088.7 460.65M1093.8 463.66L1093.8 362.66M1098.91 365.67L1098.91 466.67M139.89 103.02L139.89 84.27M145.0 68.52L145.0 106.03M150.1 109.04L150.1 52.77M155.2 50.0L155.2 112.05M160.31 115.06L160.31 50.0M165.41 50.0L165.41 118.07M170.51 121.08L170.51 50.0M175.62 50.0L175.62 124.09M180.72 127.1L180.72 50.0M185.82 50.0L185.82 130.11M190.93 133.12L190.93 50.0M196.03 50.0L196.03 136.13M201.13 139.14L201.13 50.0M206.24 50.0L206.24 142.15M211.34 145.16L211.34 50.0M216.44 50.0L216.44 148.17M221.55 143.97L221.55 50.18M226.65 53.19L226.65 128.22M231.75 112.47L231.75 56.2M236.86 59.21L236.86 96.73M241.96 80.98L241.96 62.22M309.48 184.29L309.48 203.05M314.58 206.06L314.58 168.54M319.68 152.8L319.68 209.07M324.79 212.08L324.79 137.05M329.89 121.3L329.89 215.09M334.99 218.1L334.99 117.1M340.1 120.11L340.1 221.11M345.2 224.12L345.2 123.12M350.3 126.13L350.3 227.13M355.41 230.14L355.41 129.14M360.51 132.15L360.51 233.15M365.61 236.16L365.61 135.16M370.72 138.17L370.72 239.17M375.82 242.18L375.82 141.18M380.92 144.19L380.92 245.19M386.03 248.2L386.03 147.2M391.13 150.21L391.13 243.99M396.23 228.24L396.23 153.22M401.34 156.23L401.34 212.5M406.44 196.75L406.44 159.24M411.54 162.25L411.54 181.0M479.06 303.07L479.06 284.31M484.16 268.57L484.16 306.08M489.27 309.09L489.27 252.82M494.37 237.08L494.37 312.1M499.47 315.11L499.47 221.33M504.58 217.12L504.58 318.12M509.68 321.13L509.68 220.13M514.78 223.14L514.78 324.14M519.89 327.15L519.89 226.15M524.99 229.16L524.99 330.16M530.09 333.17L530.09 232.17M535.2 235.18L535.2 336.18M540.3 339.19L540.3 238.19M545.4 241.2L545.4 342.2M550.51 345.21L550.51 244.21M555.61 247.22L555.61 348.22M560.71 344.01L560.71 250.23M565.82 253.24L565.82 328.27M570.92 312.52L570.92 256.25M576.02 259.26L576.02 296.77M581.13 281.03L581.13 262.27M648.64 384.34L648.64 403.1M653.75 406.11L653.75 368.59M658.85 352.85L658.85 409.12M663.95 412.13L663.95 337.1M669.06 321.35L669.06 415.14M674.16 418.15L674.16 317.15M679.26 320.16L679.26 421.16M684.37 424.17L684.37 323.17M689.47 326.18L689.47 427.18M694.57 430.19L694.57 329.19M699.68 332.2L699.68 433.2M704.78 436.21L704.78 335.21M709.88 338.22L709.88 439.22M714.99 442.23L714.99 341.23M720.09 344.24L720.09 445.24M725.19 448.25L725.19 347.25M730.3 350.26L730.3 444.04M735.4 428.29L735.4 353.27M740.5 356.28L740.5 412.55M745.61 396.8L745.61 359.29M750.71 362.3L750.71 381.05M818.23 503.12L818.23 484.36M823.33 468.62L823.33 506.13M828.43 509.14L828.43 452.87M833.54 437.12L833.54 512.15M838.64 515.16L838.64 421.38M843.74 417.17L843.74 518.17M848.85 521.18L848.85 420.18M853.95 423.19L853.95 524.19M859.05 527.2L859.05 426.2M864.16 429.21L864.16 530.21M869.26 533.22L869.26 432.22M874.36 435.23L874.36 536.23M879.47 539.24L879.47 438.24M884.57 441.25L884.57 542.25M889.67 545.26L889.67 444.26M894.78 447.27L894.78 548.27M899.88 544.06L899.88 450.28M904.98 453.29L904.98 528.32M910.09 512.57L910.09 456.3M915.19 459.31L915.19 496.82M920.29 481.08L920.29 462.32M987.81 584.39L987.81 603.14M992.91 606.15L992.91 568.64M998.02 552.9L998.02 609.16M1003.12 612.17L1003.12 537.15M1008.22 521.4L1008.22 615.18M1013.33 618.19L1013.33 517.19M1018.43 520.2L1018.43 621.2M1023.53 624.21L1023.53 523.21M1028.64 526.22L1028.64 627.22M1033.74 630.23L1033.74 529.23M1038.84 532.24L1038.84 633.24M1043.95 636.25L1043.95 535.25M1049.05 538.26L1049.05 639.26M1054.15 642.27L1054.15 541.27M1059.26 544.28L1059.26 645.28M1064.36 648.29L1064.36 547.29M1069.46 550.3L1069.46 644.09M1074.57 628.34L1074.57 553.31M1079.67 556.32L1079.67 612.59M1084.77 596.85L1084.77 559.33M1089.88 562.35L1089.88 581.1M84.93 272.61L84.93 253.85M90.04 238.1L90.04 275.62M95.14 278.63L95.14 222.36M100.24 206.61L100.24 281.64M105.35 284.65L105.35 190.86M110.45 186.66L110.45 287.66M115.55 290.67L115.55 189.67M120.66 192.68L120.66 293.68M125.76 296.69L125.76 195.69M130.86 198.7L130.86 299.7M135.97 302.71L135.97 201.71M141.07 204.72L141.07 305.72M146.17 308.73L146.17 207.73M151.28 210.74L151.28 311.74M156.38 314.75L156.38 213.75M161.48 216.76L161.48 317.76M166.59 313.55L166.59 219.77M171.69 222.78L171.69 297.8M176.79 282.06L176.79 225.79M181.9 228.8L181.9 266.31M187.0 250.56L187.0 231.81M254.52 353.87L254.52 372.63M259.62 375.64L259.62 338.13M264.72 322.38L264.72 378.65M269.83 381.66L269.83 306.63M274.93 290.89L274.93 384.67M280.03 387.68L280.03 286.68M285.14 289.69L285.14 390.69M290.24 393.7L290.24 292.7M295.34 295.71L295.34 396.71M300.45 399.72L300.45 298.72M305.55 301.73L305.55 402.73M310.65 405.74L310.65 304.74M315.76 307.75L315.76 408.75M320.86 411.76L320.86 310.76M325.96 313.77L325.96 414.77M331.07 417.78L331.07 316.78M336.17 319.79L336.17 413.57M341.27 397.83L341.27 322.8M346.38 325.81L346.38 382.08M351.48 366.33L351.48 328.82M356.58 331.83L356.58 350.59M424.1 472.65L424.1 453.9M429.2 438.15L429.2 475.66M434.31 478.67L434.31 422.4M439.41 406.66L439.41 481.68M444.51 484.69L444.51 390.91M449.62 386.7L449.62 487.7M454.72 490.71L454.72 389.71M459.82 392.72L459.82 493.72M464.93 496.73L464.93 395.73M470.03 398.74L470.03 499.74M475.13 502.75L475.13 401.75M480.24 404.76L480.24 505.76M485.34 508.77L485.34 407.77M490.44 410.78L490.44 511.78M495.55 514.79L495.55 413.79M500.65 416.8L500.65 517.8M505.75 513.6L505.75 419.81M510.86 422.82L510.86 497.85M515.96 482.1L515.96 425.83M521.06 428.84L521.06 466.36M526.17 450.61L526.17 431.85M593.68 553.92L593.68 572.68M598.79 575.69L598.79 538.18M603.89 522.43L603.89 578.7M608.99 581.71L608.99 506.68M614.1 490.94L614.1 584.72M619.2 587.73L619.2 486.73M624.3 489.74L624.3 590.74M629.41 593.75L629.41 492.75M634.51 495.76L634.51 596.76M639.61 599.77L639.61 498.77M644.72 501.78L644.72 602.78M649.82 605.79L649.82 504.79M654.92 507.8L654.92 608.8M660.03 611.81L660.03 510.81M665.13 513.82L665.13 614.82M670.23 617.83L670.23 516.83M675.34 519.84L675.34 613.62M680.44 597.88L680.44 522.85M685.54 525.86L685.54 582.13M690.65 566.38L690.65 528.87M695.75 531.88L695.75 550.64M763.27 672.7L763.27 653.95M768.37 638.2L768.37 675.71M773.47 678.72L773.47 622.45M778.58 606.71L778.58 681.73M783.68 684.74L783.68 590.96M788.78 586.75L788.78 687.75M793.89 690.76L793.89 589.76M798.99 592.77L798.99 693.77M804.09 696.78L804.09 595.78M809.2 598.79L809.2 699.79M814.3 702.8L814.3 601.8M819.4 604.81L819.4 705.81M824.51 708.82L824.51 607.82M829.61 610.83L829.61 711.83M834.71 714.84L834.71 613.84M839.82 616.85L839.82 717.85M844.92 713.65L844.92 619.86M850.02 622.87L850.02 697.9M855.13 682.15L855.13 625.88M860.23 628.89L860.23 666.41M865.33 650.66L865.33 631.9M932.85 753.97L932.85 772.73M937.95 775.74L937.95 738.22M943.06 722.48L943.06 778.75M948.16 781.76L948.16 706.73M953.26 690.99L953.26 784.77M958.37 787.78L958.37 686.78M963.47 689.79L963.47 790.79M968.57 793.8L968.57 692.8M973.68 695.81L973.68 796.81M978.78 799.82L978.78 698.82M983.88 701.83L983.88 802.83M988.99 805.84L988.99 704.84M994.09 707.85L994.09 808.85M999.19 811.86L999.19 710.86M1004.3 713.87L1004.3 814.87M1009.4 817.88L1009.4 716.88M1014.5 719.89L1014.5 813.67M1019.61 797.92L1019.61 722.9M1024.71 725.91L1024.71 782.18M1029.81 766.43L1029.81 728.92M1034.92 731.93L1034.92 750.68M50.39 454.23L50.39 360.45M55.49 356.24L55.49 457.24M60.59 460.25L60.59 359.25M65.7 362.26L65.7 463.26M70.8 466.27L70.8 365.27M75.9 368.28L75.9 469.28M81.01 472.29L81.01 371.29M86.11 374.3L86.11 475.3M91.21 478.31L91.21 377.31M96.32 380.32L96.32 481.32M101.42 484.33L101.42 383.33M106.52 386.34L106.52 487.34M111.63 483.13L111.63 389.35M116.73 392.36L116.73 467.38M121.83 451.64L121.83 395.37M126.94 398.38L126.94 435.89M132.04 420.15L132.04 401.39M199.56 523.46L199.56 542.21M204.66 545.22L204.66 507.71M209.76 491.96L209.76 548.23M214.87 551.24L214.87 476.22M219.97 460.47L219.97 554.25M225.07 557.26L225.07 456.26M230.18 459.27L230.18 560.27M235.28 563.28L235.28 462.28M240.38 465.29L240.38 566.29M245.49 569.3L245.49 468.3M250.59 471.31L250.59 572.31M255.69 575.32L255.69 474.32M260.8 477.33L260.8 578.33M265.9 581.34L265.9 480.34M271.0 483.35L271.0 584.35M276.11 587.36L276.11 486.36M281.21 489.37L281.21 583.16M286.31 567.41L286.31 492.38M291.42 495.39L291.42 551.66M296.52 535.92L296.52 498.4M301.62 501.41L301.62 520.17M369.14 642.24L369.14 623.48M374.24 607.73L374.24 645.25M379.35 648.26L379.35 591.99M384.45 576.24L384.45 651.27M389.55 654.28L389.55 560.5M394.66 556.29L394.66 657.29M399.76 660.3L399.76 559.3M404.86 562.31L404.86 663.31M409.97 666.32L409.97 565.32M415.07 568.33L415.07 669.33M420.17 672.34L420.17 571.34M425.28 574.35L425.28 675.35M430.38 678.36L430.38 577.36M435.48 580.37L435.48 681.37M440.59 684.38L440.59 583.38M445.69 586.39L445.69 687.39M450.79 683.18L450.79 589.4M455.9 592.41L455.9 667.43M461.0 651.69L461.0 595.42M466.1 598.43L466.1 635.94M471.21 620.19L471.21 601.44M538.72 723.51L538.72 742.26M543.83 745.27L543.83 707.76M548.93 692.01L548.93 748.28M554.03 751.29L554.03 676.27M559.14 660.52L559.14 754.3M564.24 757.31L564.24 656.31M569.34 659.32L569.34 760.32M574.45 763.33L574.45 662.33M579.55 665.34L579.55 766.34M584.65 769.35L584.65 668.35M589.76 671.36L589.76 772.36M594.86 775.37L594.86 674.37M599.96 677.38L599.96 778.38M605.07 781.39L605.07 680.39M610.17 683.4L610.17 784.4M615.27 787.41L615.27 686.41M620.38 689.42L620.38 783.2M625.48 767.46L625.48 692.43M630.58 695.44L630.58 751.71M635.69 735.97L635.69 698.45M640.79 701.46L640.79 720.22M713.41 820.0L713.41 807.78M718.51 792.04L718.51 820.0M723.62 820.0L723.62 776.29M728.72 760.54L728.72 820.0M733.82 820.0L733.82 756.34M738.93 759.35L738.93 820.0M744.03 820.0L744.03 762.36M749.13 765.37L749.13 820.0M754.24 820.0L754.24 768.38M759.34 771.39L759.34 820.0M764.44 820.0L764.44 774.4M769.55 777.41L769.55 820.0M774.65 820.0L774.65 780.42M779.75 783.43L779.75 820.0M784.86 820.0L784.86 786.44M789.96 789.45L789.96 820.0M795.06 820.0L795.06 792.46M800.17 795.47L800.17 820.0M805.27 820.0L805.27 798.48M810.37 801.49L810.37 820.0M51.56 656.92L51.56 555.92M56.67 558.93L56.67 652.71M61.77 636.97L61.77 561.94M66.87 564.95L66.87 621.22M71.98 605.48L71.98 567.96M77.08 570.97L77.08 589.73M144.6 711.8L144.6 693.04M149.7 677.29L149.7 714.81M154.8 717.82L154.8 661.55M159.91 645.8L159.91 720.83M165.01 723.84L165.01 630.05M170.11 625.85L170.11 726.85M175.22 729.86L175.22 628.86M180.32 631.87L180.32 732.87M185.42 735.88L185.42 634.88M190.53 637.89L190.53 738.89M195.63 741.9L195.63 640.9M200.73 643.91L200.73 744.91M205.84 747.92L205.84 646.92M210.94 649.93L210.94 750.93M216.04 753.94L216.04 652.94M221.15 655.95L221.15 756.95M226.25 752.74L226.25 658.96M231.35 661.97L231.35 736.99M236.46 721.25L236.46 664.98M241.56 667.99L241.56 705.5M246.66 689.75L246.66 671.0M314.18 793.06L314.18 811.82M319.28 814.83L319.28 777.32M324.39 761.57L324.39 817.84M329.49 820.0L329.49 745.82M334.59 730.08L334.59 820.0M339.7 820.0L339.7 725.87M344.8 728.88L344.8 820.0M349.9 820.0L349.9 731.89M355.01 734.9L355.01 820.0M360.11 820.0L360.11 737.91M365.21 740.92L365.21 820.0M370.32 820.0L370.32 743.93M375.42 746.94L375.42 820.0M380.52 820.0L380.52 749.95M385.63 752.96L385.63 820.0M390.73 820.0L390.73 755.97M395.83 758.98L395.83 820.0M400.94 820.0L400.94 761.99M406.04 765.0L406.04 820.0M411.14 805.52L411.14 768.01M416.25 771.02L416.25 789.78M104.95 820.0L104.95 815.38M110.05 799.64L110.05 820.0M115.15 820.0L115.15 795.43M120.26 798.44L120.26 820.0M125.36 820.0L125.36 801.45M130.46 804.46L130.46 820.0M135.57 820.0L135.57 807.47M140.67 810.48L140.67 820.0M145.77 820.0L145.77 813.49M150.88 816.5L150.88 820.0M155.98 820.0L155.98 819.51"/>
    </g>
  </g>
</svg>
