<svg version="1.1" width="1150" height="870" xmlns="http://www.w3.org/2000/svg">
  <!-- Seed: 1507223702445015245 -->
  <rect x="50" y="640" width="100" height="100" stroke="black" fill-opacity="0"/>
  <rect x="60" y="150" width="100" height="100" stroke="black" fill-opacity="0"/>
  <rect x="60" y="650" width="100" height="100" stroke="black" fill-opacity="0"/>
  <rect x="70" y="160" width="100" height="100" stroke="black" fill-opacity="0"/>
  <rect x="70" y="660" width="100" height="100" stroke="black" fill-opacity="0"/>
  <rect x="80" y="170" width="100" height="100" stroke="black" fill-opacity="0"/>
  <rect x="90" y="170" width="100" height="100" stroke="black" fill-opacity="0"/>
  <rect x="90" y="280" width="100" height="100" stroke="black" fill-opacity="0"/>
  <rect x="90" y="620" width="100" height="100" stroke="black" fill-opacity="0"/>
  <rect x="100" y="180" width="100" height="100" stroke="black" fill-opacity="0"/>
  <rect x="100" y="290" width="100" height="100" stroke="black" fill-opacity="0"/>
  <rect x="100" y="630" width="100" height="100" stroke="black" fill-opacity="0"/>
  <rect x="110" y="190" width="100" height="100" stroke="black" fill-opacity="0"/>
  <rect x="110" y="230" width="100" height="100" stroke="black" fill-opacity="0"/>
  <rect x="110" y="300" width="100" height="100" stroke="black" fill-opacity="0"/>
  <rect x="110" y="640" width="100" height="100" stroke="black" fill-opacity="0"/>
  <rect x="120" y="240" width="100" height="100" stroke="black" fill-opacity="0"/>
  <rect x="130" y="140" width="100" height="100" stroke="black" fill-opacity="0"/>
  <rect x="130" y="250" width="100" height="100" stroke="black" fill-opacity="0"/>
  <rect x="130" y="340" width="100" height="100" stroke="black" fill-opacity="0"/>
  <rect x="140" y="150" width="100" height="100" stroke="black" fill-opacity="0"/>
  <rect x="140" y="350" width="100" height="100" stroke="black" fill-opacity="0"/>
  <rect x="140" y="560" width="100" height="100" stroke="black" fill-opacity="0"/>
  <rect x="140" y="680" width="100" height="100" stroke="black" fill-opacity="0"/>
  <rect x="150" y="160" width="100" height="100" stroke="black" fill-opacity="0"/>
  <rect x="150" y="320" width="100" height="100" stroke="black" fill-opacity="0"/>
  <rect x="150" y="360" width="100" height="100" stroke="black" fill-opacity="0"/>
  <rect x="150" y="530" width="100" height="100" stroke="black" fill-opacity="0"/>
  <rect x="150" y="570" width="100" height="100" stroke="black" fill-opacity="0"/>
  <rect x="150" y="690" width="100" height="100" stroke="black" fill-opacity="0"/>
  <rect x="160" y="170" width="100" height="100" stroke="black" fill-opacity="0"/>
  <rect x="160" y="330" width="100" height="100" stroke="black" fill-opacity="0"/>
  <rect x="160" y="540" width="100" height="100" stroke="black" fill-opacity="0"/>
  <rect x="160" y="580" width="100" height="100" stroke="black" fill-opacity="0"/>
  <rect x="160" y="700" width="100" height="100" stroke="black" fill-opacity="0"/>
  <rect x="170" y="70" width="100" height="100" stroke="black" fill-opacity="0"/>
  <rect x="170" y="180" width="100" height="100" stroke="black" fill-opacity="0"/>
  <rect x="170" y="340" width="100" height="100" stroke="black" fill-opacity="0"/>
  <rect x="170" y="430" width="100" height="100" stroke="black" fill-opacity="0"/>
  <rect x="170" y="550" width="100" height="100" stroke="black" fill-opacity="0"/>
  <rect x="180" y="80" width="100" height="100" stroke="black" fill-opacity="0"/>
  <rect x="180" y="440" width="100" height="100" stroke="black" fill-opacity="0"/>
  <rect x="190" y="90" width="100" height="100" stroke="black" fill-opacity="0"/>
  <rect x="190" y="240" width="100" height="100" stroke="black" fill-opacity="0"/>
  <rect x="190" y="450" width="100" height="100" stroke="black" fill-opacity="0"/>
  <rect x="200" y="250" width="100" height="100" stroke="black" fill-opacity="0"/>
  <rect x="200" y="320" width="100" height="100" stroke="black" fill-opacity="0"/>
  <rect x="210" y="60" width="100" height="100" stroke="black" fill-opacity="0"/>
  <rect x="210" y="260" width="100" height="100" stroke="black" fill-opacity="0"/>
  <rect x="210" y="330" width="100" height="100" stroke="black" fill-opacity="0"/>
  <rect x="210" y="660" width="100" height="100" stroke="black" fill-opacity="0"/>
  <rect x="220" y="70" width="100" height="100" stroke="black" fill-opacity="0"/>
  <rect x="220" y="340" width="100" height="100" stroke="black" fill-opacity="0"/>
  <rect x="220" y="670" width="100" height="100" stroke="black" fill-opacity="0"/>
  <rect x="230" y="80" width="100" height="100" stroke="black" fill-opacity="0"/>
  <rect x="230" y="680" width="100" height="100" stroke="black" fill-opacity="0"/>
  <rect x="260" y="60" width="100" height="100" stroke="black" fill-opacity="0"/>
  <rect x="260" y="580" width="100" height="100" stroke="black" fill-opacity="0"/>
  <rect x="260" y="600" width="100" height="100" stroke="black" fill-opacity="0"/>
  <rect x="270" y="70" width="100" height="100" stroke="black" fill-opacity="0"/>
  <rect x="270" y="590" width="100" height="100" stroke="black" fill-opacity="0"/>
  <rect x="270" y="610" width="100" height="100" stroke="black" fill-opacity="0"/>
  <rect x="280" y="80" width="100" height="100" stroke="black" fill-opacity="0"/>
  <rect x="280" y="600" width="100" height="100" stroke="black" fill-opacity="0"/>
  <rect x="280" y="620" width="100" height="100" stroke="black" fill-opacity="0"/>
  <rect x="300" y="50" width="100" height="100" stroke="black" fill-opacity="0"/>
  <rect x="300" y="640" width="100" height="100" stroke="black" fill-opacity="0"/>
  <rect x="310" y="60" width="100" height="100" stroke="black" fill-opacity="0"/>
  <rect x="310" y="310" width="100" height="100" stroke="black" fill-opacity="0"/>
  <rect x="310" y="370" width="100" height="100" stroke="black" fill-opacity="0"/>
  <rect x="310" y="650" width="100" height="100" stroke="black" fill-opacity="0"/>
  <rect x="320" y="70" width="100" height="100" stroke="black" fill-opacity="0"/>
  <rect x="320" y="320" width="100" height="100" stroke="black" fill-opacity="0"/>
  <rect x="320" y="380" width="100" height="100" stroke="black" fill-opacity="0"/>
  <rect x="320" y="660" width="100" height="100" stroke="black" fill-opacity="0"/>
  <rect x="330" y="330" width="100" height="100" stroke="black" fill-opacity="0"/>
  <rect x="330" y="390" width="100" height="100" stroke="black" fill-opacity="0"/>
  <rect x="330" y="690" width="100" height="100" stroke="black" fill-opacity="0"/>
  <rect x="340" y="700" width="100" height="100" stroke="black" fill-opacity="0"/>
  <rect x="350" y="60" width="100" height="100" stroke="black" fill-opacity="0"/>
  <rect x="350" y="710" width="100" height="100" stroke="black" fill-opacity="0"/>
  <rect x="360" y="70" width="100" height="100" stroke="black" fill-opacity="0"/>
  <rect x="360" y="200" width="100" height="100" stroke="black" fill-opacity="0"/>
  <rect x="360" y="550" width="100" height="100" stroke="black" fill-opacity="0"/>
  <rect x="370" y="80" width="100" height="100" stroke="black" fill-opacity="0"/>
  <rect x="370" y="210" width="100" height="100" stroke="black" fill-opacity="0"/>
  <rect x="370" y="390" width="100" height="100" stroke="black" fill-opacity="0"/>
  <rect x="370" y="560" width="100" height="100" stroke="black" fill-opacity="0"/>
  <rect x="380" y="220" width="100" height="100" stroke="black" fill-opacity="0"/>
  <rect x="380" y="240" width="100" height="100" stroke="black" fill-opacity="0"/>
  <rect x="380" y="400" width="100" height="100" stroke="black" fill-opacity="0"/>
  <rect x="380" y="570" width="100" height="100" stroke="black" fill-opacity="0"/>
  <rect x="380" y="620" width="100" height="100" stroke="black" fill-opacity="0"/>
  <rect x="380" y="690" width="100" height="100" stroke="black" fill-opacity="0"/>
  <rect x="390" y="250" width="100" height="100" stroke="black" fill-opacity="0"/>
  <rect x="390" y="340" width="100" height="100" stroke="black" fill-opacity="0"/>
  <rect x="390" y="370" width="100" height="100" stroke="black" fill-opacity="0"/>
  <rect x="390" y="410" width="100" height="100" stroke="black" fill-opacity="0"/>
  <rect x="390" y="630" width="100" height="100" stroke="black" fill-opacity="0"/>
  <rect x="390" y="700" width="100" height="100" stroke="black" fill-opacity="0"/>
  <rect x="400" y="260" width="100" height="100" stroke="black" fill-opacity="0"/>
  <rect x="400" y="350" width="100" height="100" stroke="black" fill-opacity="0"/>
  <rect x="400" y="380" width="100" height="100" stroke="black" fill-opacity="0"/>
  <rect x="400" y="590" width="100" height="100" stroke="black" fill-opacity="0"/>
  <rect x="400" y="640" width="100" height="100" stroke="black" fill-opacity="0"/>
  <rect x="400" y="710" width="100" height="100" stroke="black" fill-opacity="0"/>
  <rect x="410" y="140" width="100" height="100" stroke="black" fill-opacity="0"/>
  <rect x="410" y="360" width="100" height="100" stroke="black" fill-opacity="0"/>
  <rect x="410" y="390" width="100" height="100" stroke="black" fill-opacity="0"/>
  <rect x="410" y="600" width="100" height="100" stroke="black" fill-opacity="0"/>
  <rect x="410" y="690" width="100" height="100" stroke="black" fill-opacity="0"/>
  <rect x="420" y="150" width="100" height="100" stroke="black" fill-opacity="0"/>
  <rect x="420" y="410" width="100" height="100" stroke="black" fill-opacity="0"/>
  <rect x="420" y="610" width="100" height="100" stroke="black" fill-opacity="0"/>
  <rect x="420" y="700" width="100" height="100" stroke="black" fill-opacity="0"/>
  <rect x="430" y="160" width="100" height="100" stroke="black" fill-opacity="0"/>
  <rect x="430" y="420" width="100" height="100" stroke="black" fill-opacity="0"/>
  <rect x="430" y="710" width="100" height="100" stroke="black" fill-opacity="0"/>
  <rect x="440" y="430" width="100" height="100" stroke="black" fill-opacity="0"/>
  <rect x="490" y="180" width="100" height="100" stroke="black" fill-opacity="0"/>
  <rect x="500" y="190" width="100" height="100" stroke="black" fill-opacity="0"/>
  <rect x="500" y="480" width="100" height="100" stroke="black" fill-opacity="0"/>
  <rect x="500" y="620" width="100" height="100" stroke="black" fill-opacity="0"/>
  <rect x="510" y="200" width="100" height="100" stroke="black" fill-opacity="0"/>
  <rect x="510" y="430" width="100" height="100" stroke="black" fill-opacity="0"/>
  <rect x="510" y="440" width="100" height="100" stroke="black" fill-opacity="0"/>
  <rect x="510" y="490" width="100" height="100" stroke="black" fill-opacity="0"/>
  <rect x="510" y="600" width="100" height="100" stroke="black" fill-opacity="0"/>
  <rect x="510" y="630" width="100" height="100" stroke="black" fill-opacity="0"/>
  <rect x="510" y="690" width="100" height="100" stroke="black" fill-opacity="0"/>
  <rect x="520" y="340" width="100" height="100" stroke="black" fill-opacity="0"/>
  <rect x="520" y="440" width="100" height="100" stroke="black" fill-opacity="0"/>
  <rect x="520" y="450" width="100" height="100" stroke="black" fill-opacity="0"/>
  <rect x="520" y="500" width="100" height="100" stroke="black" fill-opacity="0"/>
  <rect x="520" y="610" width="100" height="100" stroke="black" fill-opacity="0"/>
  <rect x="520" y="640" width="100" height="100" stroke="black" fill-opacity="0"/>
  <rect x="520" y="700" width="100" height="100" stroke="black" fill-opacity="0"/>
  <rect x="530" y="350" width="100" height="100" stroke="black" fill-opacity="0"/>
  <rect x="530" y="450" width="100" height="100" stroke="black" fill-opacity="0"/>
  <rect x="530" y="460" width="100" height="100" stroke="black" fill-opacity="0"/>
  <rect x="530" y="620" width="100" height="100" stroke="black" fill-opacity="0"/>
  <rect x="530" y="710" width="100" height="100" stroke="black" fill-opacity="0"/>
  <rect x="540" y="360" width="100" height="100" stroke="black" fill-opacity="0"/>
  <rect x="550" y="150" width="100" height="100" stroke="black" fill-opacity="0"/>
  <rect x="550" y="270" width="100" height="100" stroke="black" fill-opacity="0"/>
  <rect x="550" y="540" width="100" height="100" stroke="black" fill-opacity="0"/>
  <rect x="560" y="160" width="100" height="100" stroke="black" fill-opacity="0"/>
  <rect x="560" y="280" width="100" height="100" stroke="black" fill-opacity="0"/>
  <rect x="560" y="550" width="100" height="100" stroke="black" fill-opacity="0"/>
  <rect x="570" y="140" width="100" height="100" stroke="black" fill-opacity="0"/>
  <rect x="570" y="170" width="100" height="100" stroke="black" fill-opacity="0"/>
  <rect x="570" y="210" width="100" height="100" stroke="black" fill-opacity="0"/>
  <rect x="570" y="290" width="100" height="100" stroke="black" fill-opacity="0"/>
  <rect x="570" y="410" width="100" height="100" stroke="black" fill-opacity="0"/>
  <rect x="570" y="540" width="100" height="100" stroke="black" fill-opacity="0"/>
  <rect x="570" y="560" width="100" height="100" stroke="black" fill-opacity="0"/>
  <rect x="580" y="150" width="100" height="100" stroke="black" fill-opacity="0"/>
  <rect x="580" y="220" width="100" height="100" stroke="black" fill-opacity="0"/>
  <rect x="580" y="420" width="100" height="100" stroke="black" fill-opacity="0"/>
  <rect x="580" y="550" width="100" height="100" stroke="black" fill-opacity="0"/>
  <rect x="590" y="160" width="100" height="100" stroke="black" fill-opacity="0"/>
  <rect x="590" y="230" width="100" height="100" stroke="black" fill-opacity="0"/>
  <rect x="590" y="430" width="100" height="100" stroke="black" fill-opacity="0"/>
  <rect x="590" y="520" width="100" height="100" stroke="black" fill-opacity="0"/>
  <rect x="590" y="560" width="100" height="100" stroke="black" fill-opacity="0"/>
  <rect x="590" y="640" width="100" height="100" stroke="black" fill-opacity="0"/>
  <rect x="600" y="450" width="100" height="100" stroke="black" fill-opacity="0"/>
  <rect x="600" y="480" width="100" height="100" stroke="black" fill-opacity="0"/>
  <rect x="600" y="530" width="100" height="100" stroke="black" fill-opacity="0"/>
  <rect x="600" y="650" width="100" height="100" stroke="black" fill-opacity="0"/>
  <rect x="610" y="310" width="100" height="100" stroke="black" fill-opacity="0"/>
  <rect x="610" y="460" width="100" height="100" stroke="black" fill-opacity="0"/>
  <rect x="610" y="490" width="100" height="100" stroke="black" fill-opacity="0"/>
  <rect x="610" y="540" width="100" height="100" stroke="black" fill-opacity="0"/>
  <rect x="610" y="660" width="100" height="100" stroke="black" fill-opacity="0"/>
  <rect x="620" y="320" width="100" height="100" stroke="black" fill-opacity="0"/>
  <rect x="620" y="350" width="100" height="100" stroke="black" fill-opacity="0"/>
  <rect x="620" y="470" width="100" height="100" stroke="black" fill-opacity="0"/>
  <rect x="620" y="500" width="100" height="100" stroke="black" fill-opacity="0"/>
  <rect x="620" y="510" width="100" height="100" stroke="black" fill-opacity="0"/>
  <rect x="620" y="560" width="100" height="100" stroke="black" fill-opacity="0"/>
  <rect x="630" y="330" width="100" height="100" stroke="black" fill-opacity="0"/>
  <rect x="630" y="360" width="100" height="100" stroke="black" fill-opacity="0"/>
  <rect x="630" y="520" width="100" height="100" stroke="black" fill-opacity="0"/>
  <rect x="630" y="570" width="100" height="100" stroke="black" fill-opacity="0"/>
  <rect x="630" y="640" width="100" height="100" stroke="black" fill-opacity="0"/>
  <rect x="630" y="690" width="100" height="100" stroke="black" fill-opacity="0"/>
  <rect x="640" y="90" width="100" height="100" stroke="black" fill-opacity="0"/>
  <rect x="640" y="110" width="100" height="100" stroke="black" fill-opacity="0"/>
  <rect x="640" y="360" width="100" height="100" stroke="black" fill-opacity="0"/>
  <rect x="640" y="370" width="100" height="100" stroke="black" fill-opacity="0"/>
  <rect x="640" y="530" width="100" height="100" stroke="black" fill-opacity="0"/>
  <rect x="640" y="580" width="100" height="100" stroke="black" fill-opacity="0"/>
  <rect x="640" y="650" width="100" height="100" stroke="black" fill-opacity="0"/>
  <rect x="640" y="700" width="100" height="100" stroke="black" fill-opacity="0"/>
  <rect x="650" y="100" width="100" height="100" stroke="black" fill-opacity="0"/>
  <rect x="650" y="120" width="100" height="100" stroke="black" fill-opacity="0"/>
  <rect x="650" y="370" width="100" height="100" stroke="black" fill-opacity="0"/>
  <rect x="650" y="660" width="100" height="100" stroke="black" fill-opacity="0"/>
  <rect x="650" y="710" width="100" height="100" stroke="black" fill-opacity="0"/>
  <rect x="660" y="90" width="100" height="100" stroke="black" fill-opacity="0"/>
  <rect x="660" y="110" width="100" height="100" stroke="black" fill-opacity="0"/>
  <rect x="660" y="130" width="100" height="100" stroke="black" fill-opacity="0"/>
  <rect x="660" y="380" width="100" height="100" stroke="black" fill-opacity="0"/>
  <rect x="670" y="100" width="100" height="100" stroke="black" fill-opacity="0"/>
  <rect x="670" y="240" width="100" height="100" stroke="black" fill-opacity="0"/>
  <rect x="680" y="110" width="100" height="100" stroke="black" fill-opacity="0"/>
  <rect x="680" y="250" width="100" height="100" stroke="black" fill-opacity="0"/>
  <rect x="680" y="680" width="100" height="100" stroke="black" fill-opacity="0"/>
  <rect x="690" y="260" width="100" height="100" stroke="black" fill-opacity="0"/>
  <rect x="690" y="360" width="100" height="100" stroke="black" fill-opacity="0"/>
  <rect x="690" y="690" width="100" height="100" stroke="black" fill-opacity="0"/>
  <rect x="700" y="290" width="100" height="100" stroke="black" fill-opacity="0"/>
  <rect x="700" y="370" width="100" height="100" stroke="black" fill-opacity="0"/>
  <rect x="700" y="380" width="100" height="100" stroke="black" fill-opacity="0"/>
  <rect x="700" y="440" width="100" height="100" stroke="black" fill-opacity="0"/>
  <rect x="700" y="700" width="100" height="100" stroke="black" fill-opacity="0"/>
  <rect x="710" y="300" width="100" height="100" stroke="black" fill-opacity="0"/>
  <rect x="710" y="380" width="100" height="100" stroke="black" fill-opacity="0"/>
  <rect x="710" y="390" width="100" height="100" stroke="black" fill-opacity="0"/>
  <rect x="710" y="450" width="100" height="100" stroke="black" fill-opacity="0"/>
  <rect x="720" y="310" width="100" height="100" stroke="black" fill-opacity="0"/>
  <rect x="720" y="400" width="100" height="100" stroke="black" fill-opacity="0"/>
  <rect x="720" y="460" width="100" height="100" stroke="black" fill-opacity="0"/>
  <rect x="730" y="490" width="100" height="100" stroke="black" fill-opacity="0"/>
  <rect x="740" y="370" width="100" height="100" stroke="black" fill-opacity="0"/>
  <rect x="740" y="500" width="100" height="100" stroke="black" fill-opacity="0"/>
  <rect x="750" y="320" width="100" height="100" stroke="black" fill-opacity="0"/>
  <rect x="750" y="380" width="100" height="100" stroke="black" fill-opacity="0"/>
  <rect x="750" y="510" width="100" height="100" stroke="black" fill-opacity="0"/>
  <rect x="760" y="120" width="100" height="100" stroke="black" fill-opacity="0"/>
  <rect x="760" y="330" width="100" height="100" stroke="black" fill-opacity="0"/>
  <rect x="760" y="390" width="100" height="100" stroke="black" fill-opacity="0"/>
  <rect x="770" y="130" width="100" height="100" stroke="black" fill-opacity="0"/>
  <rect x="770" y="340" width="100" height="100" stroke="black" fill-opacity="0"/>
  <rect x="780" y="140" width="100" height="100" stroke="black" fill-opacity="0"/>
  <rect x="780" y="270" width="100" height="100" stroke="black" fill-opacity="0"/>
  <rect x="780" y="350" width="100" height="100" stroke="black" fill-opacity="0"/>
  <rect x="790" y="280" width="100" height="100" stroke="black" fill-opacity="0"/>
  <rect x="790" y="500" width="100" height="100" stroke="black" fill-opacity="0"/>
  <rect x="790" y="670" width="100" height="100" stroke="black" fill-opacity="0"/>
  <rect x="800" y="120" width="100" height="100" stroke="black" fill-opacity="0"/>
  <rect x="800" y="290" width="100" height="100" stroke="black" fill-opacity="0"/>
  <rect x="800" y="320" width="100" height="100" stroke="black" fill-opacity="0"/>
  <rect x="800" y="510" width="100" height="100" stroke="black" fill-opacity="0"/>
  <rect x="800" y="680" width="100" height="100" stroke="black" fill-opacity="0"/>
  <rect x="810" y="130" width="100" height="100" stroke="black" fill-opacity="0"/>
  <rect x="810" y="330" width="100" height="100" stroke="black" fill-opacity="0"/>
  <rect x="810" y="520" width="100" height="100" stroke="black" fill-opacity="0"/>
  <rect x="810" y="610" width="100" height="100" stroke="black" fill-opacity="0"/>
  <rect x="810" y="690" width="100" height="100" stroke="black" fill-opacity="0"/>
  <rect x="820" y="140" width="100" height="100" stroke="black" fill-opacity="0"/>
  <rect x="820" y="340" width="100" height="100" stroke="black" fill-opacity="0"/>
  <rect x="820" y="620" width="100" height="100" stroke="black" fill-opacity="0"/>
  <rect x="830" y="60" width="100" height="100" stroke="black" fill-opacity="0"/>
  <rect x="830" y="100" width="100" height="100" stroke="black" fill-opacity="0"/>
  <rect x="830" y="630" width="100" height="100" stroke="black" fill-opacity="0"/>
  <rect x="840" y="70" width="100" height="100" stroke="black" fill-opacity="0"/>
  <rect x="840" y="110" width="100" height="100" stroke="black" fill-opacity="0"/>
  <rect x="850" y="80" width="100" height="100" stroke="black" fill-opacity="0"/>
  <rect x="850" y="120" width="100" height="100" stroke="black" fill-opacity="0"/>
  <rect x="850" y="420" width="100" height="100" stroke="black" fill-opacity="0"/>
  <rect x="860" y="430" width="100" height="100" stroke="black" fill-opacity="0"/>
  <rect x="870" y="70" width="100" height="100" stroke="black" fill-opacity="0"/>
  <rect x="870" y="440" width="100" height="100" stroke="black" fill-opacity="0"/>
  <rect x="870" y="580" width="100" height="100" stroke="black" fill-opacity="0"/>
  <rect x="870" y="650" width="100" height="100" stroke="black" fill-opacity="0"/>
  <rect x="880" y="80" width="100" height="100" stroke="black" fill-opacity="0"/>
  <rect x="880" y="590" width="100" height="100" stroke="black" fill-opacity="0"/>
  <rect x="880" y="640" width="100" height="100" stroke="black" fill-opacity="0"/>
  <rect x="880" y="660" width="100" height="100" stroke="black" fill-opacity="0"/>
  <rect x="890" y="90" width="100" height="100" stroke="black" fill-opacity="0"/>
  <rect x="890" y="600" width="100" height="100" stroke="black" fill-opacity="0"/>
  <rect x="890" y="650" width="100" height="100" stroke="black" fill-opacity="0"/>
  <rect x="890" y="670" width="100" height="100" stroke="black" fill-opacity="0"/>
  <rect x="900" y="660" width="100" height="100" stroke="black" fill-opacity="0"/>
  <rect x="920" y="60" width="100" height="100" stroke="black" fill-opacity="0"/>
  <rect x="930" y="70" width="100" height="100" stroke="black" fill-opacity="0"/>
  <rect x="940" y="80" width="100" height="100" stroke="black" fill-opacity="0"/>
  <rect x="940" y="510" width="100" height="100" stroke="black" fill-opacity="0"/>
  <rect x="940" y="690" width="100" height="100" stroke="black" fill-opacity="0"/>
  <rect x="950" y="390" width="100" height="100" stroke="black" fill-opacity="0"/>
  <rect x="950" y="520" width="100" height="100" stroke="black" fill-opacity="0"/>
  <rect x="950" y="700" width="100" height="100" stroke="black" fill-opacity="0"/>
  <rect x="960" y="400" width="100" height="100" stroke="black" fill-opacity="0"/>
  <rect x="960" y="530" width="100" height="100" stroke="black" fill-opacity="0"/>
  <rect x="960" y="710" width="100" height="100" stroke="black" fill-opacity="0"/>
  <rect x="970" y="190" width="100" height="100" stroke="black" fill-opacity="0"/>
  <rect x="970" y="410" width="100" height="100" stroke="black" fill-opacity="0"/>
  <rect x="980" y="200" width="100" height="100" stroke="black" fill-opacity="0"/>
  <rect x="990" y="210" width="100" height="100" stroke="black" fill-opacity="0"/>
</svg>
