<svg version="1.1" width="1150" height="870" xmlns="http://www.w3.org/2000/svg">
  <!-- Seed: 2268002433840340890 -->
  <rect x="50" y="440" width="100" height="100" stroke="black" fill-opacity="0"/>
  <rect x="60" y="450" width="100" height="100" stroke="black" fill-opacity="0"/>
  <rect x="70" y="80" width="100" height="100" stroke="black" fill-opacity="0"/>
  <rect x="70" y="240" width="100" height="100" stroke="black" fill-opacity="0"/>
  <rect x="70" y="460" width="100" height="100" stroke="black" fill-opacity="0"/>
  <rect x="80" y="90" width="100" height="100" stroke="black" fill-opacity="0"/>
  <rect x="80" y="250" width="100" height="100" stroke="black" fill-opacity="0"/>
  <rect x="90" y="100" width="100" height="100" stroke="black" fill-opacity="0"/>
  <rect x="90" y="260" width="100" height="100" stroke="black" fill-opacity="0"/>
  <rect x="90" y="300" width="100" height="100" stroke="black" fill-opacity="0"/>
  <rect x="90" y="690" width="100" height="100" stroke="black" fill-opacity="0"/>
  <rect x="100" y="50" width="100" height="100" stroke="black" fill-opacity="0"/>
  <rect x="100" y="310" width="100" height="100" stroke="black" fill-opacity="0"/>
  <rect x="100" y="390" width="100" height="100" stroke="black" fill-opacity="0"/>
  <rect x="100" y="700" width="100" height="100" stroke="black" fill-opacity="0"/>
  <rect x="110" y="60" width="100" height="100" stroke="black" fill-opacity="0"/>
  <rect x="110" y="320" width="100" height="100" stroke="black" fill-opacity="0"/>
  <rect x="110" y="400" width="100" height="100" stroke="black" fill-opacity="0"/>
  <rect x="110" y="710" width="100" height="100" stroke="black" fill-opacity="0"/>
  <rect x="120" y="70" width="100" height="100" stroke="black" fill-opacity="0"/>
  <rect x="120" y="410" width="100" height="100" stroke="black" fill-opacity="0"/>
  <rect x="120" y="580" width="100" height="100" stroke="black" fill-opacity="0"/>
  <rect x="130" y="450" width="100" height="100" stroke="black" fill-opacity="0"/>
  <rect x="130" y="590" width="100" height="100" stroke="black" fill-opacity="0"/>
  <rect x="140" y="460" width="100" height="100" stroke="black" fill-opacity="0"/>
  <rect x="140" y="600" width="100" height="100" stroke="black" fill-opacity="0"/>
  <rect x="150" y="250" width="100" height="100" stroke="black" fill-opacity="0"/>
  <rect x="150" y="470" width="100" height="100" stroke="black" fill-opacity="0"/>
  <rect x="160" y="260" width="100" height="100" stroke="black" fill-opacity="0"/>
  <rect x="160" y="400" width="100" height="100" stroke="black" fill-opacity="0"/>
  <rect x="160" y="610" width="100" height="100" stroke="black" fill-opacity="0"/>
  <rect x="170" y="270" width="100" height="100" stroke="black" fill-opacity="0"/>
  <rect x="170" y="410" width="100" height="100" stroke="black" fill-opacity="0"/>
  <rect x="170" y="620" width="100" height="100" stroke="black" fill-opacity="0"/>
  <rect x="180" y="420" width="100" height="100" stroke="black" fill-opacity="0"/>
  <rect x="180" y="470" width="100" height="100" stroke="black" fill-opacity="0"/>
  <rect x="180" y="630" width="100" height="100" stroke="black" fill-opacity="0"/>
  <rect x="180" y="650" width="100" height="100" stroke="black" fill-opacity="0"/>
  <rect x="190" y="480" width="100" height="100" stroke="black" fill-opacity="0"/>
  <rect x="190" y="660" width="100" height="100" stroke="black" fill-opacity="0"/>
  <rect x="200" y="490" width="100" height="100" stroke="black" fill-opacity="0"/>
  <rect x="200" y="670" width="100" height="100" stroke="black" fill-opacity="0"/>
  <rect x="220" y="580" width="100" height="100" stroke="black" fill-opacity="0"/>
  <rect x="230" y="390" width="100" height="100" stroke="black" fill-opacity="0"/>
  <rect x="230" y="590" width="100" height="100" stroke="black" fill-opacity="0"/>
  <rect x="240" y="400" width="100" height="100" stroke="black" fill-opacity="0"/>
  <rect x="240" y="600" width="100" height="100" stroke="black" fill-opacity="0"/>
  <rect x="250" y="410" width="100" height="100" stroke="black" fill-opacity="0"/>
  <rect x="260" y="110" width="100" height="100" stroke="black" fill-opacity="0"/>
  <rect x="260" y="380" width="100" height="100" stroke="black" fill-opacity="0"/>
  <rect x="270" y="120" width="100" height="100" stroke="black" fill-opacity="0"/>
  <rect x="270" y="180" width="100" height="100" stroke="black" fill-opacity="0"/>
  <rect x="270" y="390" width="100" height="100" stroke="black" fill-opacity="0"/>
  <rect x="280" y="130" width="100" height="100" stroke="black" fill-opacity="0"/>
  <rect x="280" y="190" width="100" height="100" stroke="black" fill-opacity="0"/>
  <rect x="280" y="400" width="100" height="100" stroke="black" fill-opacity="0"/>
  <rect x="290" y="200" width="100" height="100" stroke="black" fill-opacity="0"/>
  <rect x="290" y="380" width="100" height="100" stroke="black" fill-opacity="0"/>
  <rect x="290" y="390" width="100" height="100" stroke="black" fill-opacity="0"/>
  <rect x="290" y="450" width="100" height="100" stroke="black" fill-opacity="0"/>
  <rect x="300" y="390" width="100" height="100" stroke="black" fill-opacity="0"/>
  <rect x="300" y="400" width="100" height="100" stroke="black" fill-opacity="0"/>
  <rect x="300" y="460" width="100" height="100" stroke="black" fill-opacity="0"/>
  <rect x="310" y="400" width="100" height="100" stroke="black" fill-opacity="0"/>
  <rect x="310" y="410" width="100" height="100" stroke="black" fill-opacity="0"/>
  <rect x="310" y="470" width="100" height="100" stroke="black" fill-opacity="0"/>
  <rect x="320" y="280" width="100" height="100" stroke="black" fill-opacity="0"/>
  <rect x="320" y="360" width="100" height="100" stroke="black" fill-opacity="0"/>
  <rect x="320" y="420" width="100" height="100" stroke="black" fill-opacity="0"/>
  <rect x="330" y="290" width="100" height="100" stroke="black" fill-opacity="0"/>
  <rect x="330" y="370" width="100" height="100" stroke="black" fill-opacity="0"/>
  <rect x="330" y="430" width="100" height="100" stroke="black" fill-opacity="0"/>
  <rect x="330" y="520" width="100" height="100" stroke="black" fill-opacity="0"/>
  <rect x="330" y="640" width="100" height="100" stroke="black" fill-opacity="0"/>
  <rect x="340" y="300" width="100" height="100" stroke="black" fill-opacity="0"/>
  <rect x="340" y="340" width="100" height="100" stroke="black" fill-opacity="0"/>
  <rect x="340" y="380" width="100" height="100" stroke="black" fill-opacity="0"/>
  <rect x="340" y="440" width="100" height="100" stroke="black" fill-opacity="0"/>
  <rect x="340" y="530" width="100" height="100" stroke="black" fill-opacity="0"/>
  <rect x="340" y="650" width="100" height="100" stroke="black" fill-opacity="0"/>
  <rect x="350" y="350" width="100" height="100" stroke="black" fill-opacity="0"/>
  <rect x="350" y="540" width="100" height="100" stroke="black" fill-opacity="0"/>
  <rect x="350" y="660" width="100" height="100" stroke="black" fill-opacity="0"/>
  <rect x="350" y="700" width="100" height="100" stroke="black" fill-opacity="0"/>
  <rect x="360" y="360" width="100" height="100" stroke="black" fill-opacity="0"/>
  <rect x="360" y="410" width="100" height="100" stroke="black" fill-opacity="0"/>
  <rect x="360" y="710" width="100" height="100" stroke="black" fill-opacity="0"/>
  <rect x="370" y="420" width="100" height="100" stroke="black" fill-opacity="0"/>
  <rect x="370" y="670" width="100" height="100" stroke="black" fill-opacity="0"/>
  <rect x="370" y="720" width="100" height="100" stroke="black" fill-opacity="0"/>
  <rect x="380" y="320" width="100" height="100" stroke="black" fill-opacity="0"/>
  <rect x="380" y="430" width="100" height="100" stroke="black" fill-opacity="0"/>
  <rect x="380" y="460" width="100" height="100" stroke="black" fill-opacity="0"/>
  <rect x="380" y="680" width="100" height="100" stroke="black" fill-opacity="0"/>
  <rect x="390" y="60" width="100" height="100" stroke="black" fill-opacity="0"/>
  <rect x="390" y="330" width="100" height="100" stroke="black" fill-opacity="0"/>
  <rect x="390" y="470" width="100" height="100" stroke="black" fill-opacity="0"/>
  <rect x="390" y="640" width="100" height="100" stroke="black" fill-opacity="0"/>
  <rect x="390" y="690" width="100" height="100" stroke="black" fill-opacity="0"/>
  <rect x="400" y="70" width="100" height="100" stroke="black" fill-opacity="0"/>
  <rect x="400" y="340" width="100" height="100" stroke="black" fill-opacity="0"/>
  <rect x="400" y="480" width="100" height="100" stroke="black" fill-opacity="0"/>
  <rect x="400" y="650" width="100" height="100" stroke="black" fill-opacity="0"/>
  <rect x="400" y="660" width="100" height="100" stroke="black" fill-opacity="0"/>
  <rect x="400" y="670" width="100" height="100" stroke="black" fill-opacity="0"/>
  <rect x="410" y="80" width="100" height="100" stroke="black" fill-opacity="0"/>
  <rect x="410" y="230" width="100" height="100" stroke="black" fill-opacity="0"/>
  <rect x="410" y="660" width="100" height="100" stroke="black" fill-opacity="0"/>
  <rect x="410" y="670" width="100" height="100" stroke="black" fill-opacity="0"/>
  <rect x="410" y="680" width="100" height="100" stroke="black" fill-opacity="0"/>
  <rect x="420" y="240" width="100" height="100" stroke="black" fill-opacity="0"/>
  <rect x="420" y="680" width="100" height="100" stroke="black" fill-opacity="0"/>
  <rect x="420" y="690" width="100" height="100" stroke="black" fill-opacity="0"/>
  <rect x="430" y="160" width="100" height="100" stroke="black" fill-opacity="0"/>
  <rect x="430" y="250" width="100" height="100" stroke="black" fill-opacity="0"/>
  <rect x="430" y="420" width="100" height="100" stroke="black" fill-opacity="0"/>
  <rect x="440" y="100" width="100" height="100" stroke="black" fill-opacity="0"/>
  <rect x="440" y="170" width="100" height="100" stroke="black" fill-opacity="0"/>
  <rect x="440" y="430" width="100" height="100" stroke="black" fill-opacity="0"/>
  <rect x="450" y="110" width="100" height="100" stroke="black" fill-opacity="0"/>
  <rect x="450" y="180" width="100" height="100" stroke="black" fill-opacity="0"/>
  <rect x="450" y="440" width="100" height="100" stroke="black" fill-opacity="0"/>
  <rect x="460" y="110" width="100" height="100" stroke="black" fill-opacity="0"/>
  <rect x="460" y="120" width="100" height="100" stroke="black" fill-opacity="0"/>
  <rect x="460" y="360" width="100" height="100" stroke="black" fill-opacity="0"/>
  <rect x="460" y="590" width="100" height="100" stroke="black" fill-opacity="0"/>
  <rect x="460" y="600" width="100" height="100" stroke="black" fill-opacity="0"/>
  <rect x="470" y="120" width="100" height="100" stroke="black" fill-opacity="0"/>
  <rect x="470" y="370" width="100" height="100" stroke="black" fill-opacity="0"/>
  <rect x="470" y="400" width="100" height="100" stroke="black" fill-opacity="0"/>
  <rect x="470" y="600" width="100" height="100" stroke="black" fill-opacity="0"/>
  <rect x="470" y="610" width="100" height="100" stroke="black" fill-opacity="0"/>
  <rect x="480" y="130" width="100" height="100" stroke="black" fill-opacity="0"/>
  <rect x="480" y="220" width="100" height="100" stroke="black" fill-opacity="0"/>
  <rect x="480" y="380" width="100" height="100" stroke="black" fill-opacity="0"/>
  <rect x="480" y="410" width="100" height="100" stroke="black" fill-opacity="0"/>
  <rect x="480" y="610" width="100" height="100" stroke="black" fill-opacity="0"/>
  <rect x="480" y="620" width="100" height="100" stroke="black" fill-opacity="0"/>
  <rect x="490" y="230" width="100" height="100" stroke="black" fill-opacity="0"/>
  <rect x="490" y="390" width="100" height="100" stroke="black" fill-opacity="0"/>
  <rect x="490" y="420" width="100" height="100" stroke="black" fill-opacity="0"/>
  <rect x="500" y="220" width="100" height="100" stroke="black" fill-opacity="0"/>
  <rect x="500" y="240" width="100" height="100" stroke="black" fill-opacity="0"/>
  <rect x="500" y="400" width="100" height="100" stroke="black" fill-opacity="0"/>
  <rect x="510" y="230" width="100" height="100" stroke="black" fill-opacity="0"/>
  <rect x="510" y="410" width="100" height="100" stroke="black" fill-opacity="0"/>
  <rect x="520" y="90" width="100" height="100" stroke="black" fill-opacity="0"/>
  <rect x="520" y="240" width="100" height="100" stroke="black" fill-opacity="0"/>
  <rect x="520" y="440" width="100" height="100" stroke="black" fill-opacity="0"/>
  <rect x="530" y="100" width="100" height="100" stroke="black" fill-opacity="0"/>
  <rect x="530" y="450" width="100" height="100" stroke="black" fill-opacity="0"/>
  <rect x="540" y="110" width="100" height="100" stroke="black" fill-opacity="0"/>
  <rect x="540" y="460" width="100" height="100" stroke="black" fill-opacity="0"/>
  <rect x="540" y="580" width="100" height="100" stroke="black" fill-opacity="0"/>
  <rect x="550" y="270" width="100" height="100" stroke="black" fill-opacity="0"/>
  <rect x="550" y="530" width="100" height="100" stroke="black" fill-opacity="0"/>
  <rect x="550" y="590" width="100" height="100" stroke="black" fill-opacity="0"/>
  <rect x="560" y="280" width="100" height="100" stroke="black" fill-opacity="0"/>
  <rect x="560" y="540" width="100" height="100" stroke="black" fill-opacity="0"/>
  <rect x="560" y="600" width="100" height="100" stroke="black" fill-opacity="0"/>
  <rect x="570" y="290" width="100" height="100" stroke="black" fill-opacity="0"/>
  <rect x="570" y="550" width="100" height="100" stroke="black" fill-opacity="0"/>
  <rect x="580" y="50" width="100" height="100" stroke="black" fill-opacity="0"/>
  <rect x="590" y="60" width="100" height="100" stroke="black" fill-opacity="0"/>
  <rect x="590" y="190" width="100" height="100" stroke="black" fill-opacity="0"/>
  <rect x="600" y="70" width="100" height="100" stroke="black" fill-opacity="0"/>
  <rect x="600" y="200" width="100" height="100" stroke="black" fill-opacity="0"/>
  <rect x="600" y="440" width="100" height="100" stroke="black" fill-opacity="0"/>
  <rect x="610" y="210" width="100" height="100" stroke="black" fill-opacity="0"/>
  <rect x="610" y="450" width="100" height="100" stroke="black" fill-opacity="0"/>
  <rect x="620" y="80" width="100" height="100" stroke="black" fill-opacity="0"/>
  <rect x="620" y="210" width="100" height="100" stroke="black" fill-opacity="0"/>
  <rect x="620" y="460" width="100" height="100" stroke="black" fill-opacity="0"/>
  <rect x="630" y="90" width="100" height="100" stroke="black" fill-opacity="0"/>
  <rect x="630" y="220" width="100" height="100" stroke="black" fill-opacity="0"/>
  <rect x="630" y="650" width="100" height="100" stroke="black" fill-opacity="0"/>
  <rect x="640" y="100" width="100" height="100" stroke="black" fill-opacity="0"/>
  <rect x="640" y="230" width="100" height="100" stroke="black" fill-opacity="0"/>
  <rect x="640" y="280" width="100" height="100" stroke="black" fill-opacity="0"/>
  <rect x="640" y="330" width="100" height="100" stroke="black" fill-opacity="0"/>
  <rect x="640" y="460" width="100" height="100" stroke="black" fill-opacity="0"/>
  <rect x="640" y="660" width="100" height="100" stroke="black" fill-opacity="0"/>
  <rect x="650" y="50" width="100" height="100" stroke="black" fill-opacity="0"/>
  <rect x="650" y="290" width="100" height="100" stroke="black" fill-opacity="0"/>
  <rect x="650" y="340" width="100" height="100" stroke="black" fill-opacity="0"/>
  <rect x="650" y="470" width="100" height="100" stroke="black" fill-opacity="0"/>
  <rect x="650" y="670" width="100" height="100" stroke="black" fill-opacity="0"/>
  <rect x="660" y="60" width="100" height="100" stroke="black" fill-opacity="0"/>
  <rect x="660" y="130" width="100" height="100" stroke="black" fill-opacity="0"/>
  <rect x="660" y="300" width="100" height="100" stroke="black" fill-opacity="0"/>
  <rect x="660" y="350" width="100" height="100" stroke="black" fill-opacity="0"/>
  <rect x="660" y="480" width="100" height="100" stroke="black" fill-opacity="0"/>
  <rect x="670" y="70" width="100" height="100" stroke="black" fill-opacity="0"/>
  <rect x="670" y="140" width="100" height="100" stroke="black" fill-opacity="0"/>
  <rect x="680" y="150" width="100" height="100" stroke="black" fill-opacity="0"/>
  <rect x="680" y="200" width="100" height="100" stroke="black" fill-opacity="0"/>
  <rect x="680" y="290" width="100" height="100" stroke="black" fill-opacity="0"/>
  <rect x="680" y="400" width="100" height="100" stroke="black" fill-opacity="0"/>
  <rect x="680" y="500" width="100" height="100" stroke="black" fill-opacity="0"/>
  <rect x="690" y="140" width="100" height="100" stroke="black" fill-opacity="0"/>
  <rect x="690" y="210" width="100" height="100" stroke="black" fill-opacity="0"/>
  <rect x="690" y="230" width="100" height="100" stroke="black" fill-opacity="0"/>
  <rect x="690" y="300" width="100" height="100" stroke="black" fill-opacity="0"/>
  <rect x="690" y="360" width="100" height="100" stroke="black" fill-opacity="0"/>
  <rect x="690" y="410" width="100" height="100" stroke="black" fill-opacity="0"/>
  <rect x="690" y="510" width="100" height="100" stroke="black" fill-opacity="0"/>
  <rect x="700" y="100" width="100" height="100" stroke="black" fill-opacity="0"/>
  <rect x="700" y="150" width="100" height="100" stroke="black" fill-opacity="0"/>
  <rect x="700" y="220" width="100" height="100" stroke="black" fill-opacity="0"/>
  <rect x="700" y="240" width="100" height="100" stroke="black" fill-opacity="0"/>
  <rect x="700" y="310" width="100" height="100" stroke="black" fill-opacity="0"/>
  <rect x="700" y="370" width="100" height="100" stroke="black" fill-opacity="0"/>
  <rect x="700" y="420" width="100" height="100" stroke="black" fill-opacity="0"/>
  <rect x="700" y="520" width="100" height="100" stroke="black" fill-opacity="0"/>
  <rect x="710" y="110" width="100" height="100" stroke="black" fill-opacity="0"/>
  <rect x="710" y="160" width="100" height="100" stroke="black" fill-opacity="0"/>
  <rect x="710" y="250" width="100" height="100" stroke="black" fill-opacity="0"/>
  <rect x="710" y="380" width="100" height="100" stroke="black" fill-opacity="0"/>
  <rect x="720" y="120" width="100" height="100" stroke="black" fill-opacity="0"/>
  <rect x="720" y="150" width="100" height="100" stroke="black" fill-opacity="0"/>
  <rect x="730" y="160" width="100" height="100" stroke="black" fill-opacity="0"/>
  <rect x="740" y="170" width="100" height="100" stroke="black" fill-opacity="0"/>
  <rect x="740" y="560" width="100" height="100" stroke="black" fill-opacity="0"/>
  <rect x="750" y="180" width="100" height="100" stroke="black" fill-opacity="0"/>
  <rect x="750" y="280" width="100" height="100" stroke="black" fill-opacity="0"/>
  <rect x="750" y="520" width="100" height="100" stroke="black" fill-opacity="0"/>
  <rect x="750" y="570" width="100" height="100" stroke="black" fill-opacity="0"/>
  <rect x="760" y="190" width="100" height="100" stroke="black" fill-opacity="0"/>
  <rect x="760" y="290" width="100" height="100" stroke="black" fill-opacity="0"/>
  <rect x="760" y="390" width="100" height="100" stroke="black" fill-opacity="0"/>
  <rect x="760" y="530" width="100" height="100" stroke="black" fill-opacity="0"/>
  <rect x="760" y="580" width="100" height="100" stroke="black" fill-opacity="0"/>
  <rect x="770" y="90" width="100" height="100" stroke="black" fill-opacity="0"/>
  <rect x="770" y="200" width="100" height="100" stroke="black" fill-opacity="0"/>
  <rect x="770" y="300" width="100" height="100" stroke="black" fill-opacity="0"/>
  <rect x="770" y="400" width="100" height="100" stroke="black" fill-opacity="0"/>
  <rect x="770" y="540" width="100" height="100" stroke="black" fill-opacity="0"/>
  <rect x="770" y="620" width="100" height="100" stroke="black" fill-opacity="0"/>
  <rect x="780" y="100" width="100" height="100" stroke="black" fill-opacity="0"/>
  <rect x="780" y="410" width="100" height="100" stroke="black" fill-opacity="0"/>
  <rect x="780" y="630" width="100" height="100" stroke="black" fill-opacity="0"/>
  <rect x="790" y="110" width="100" height="100" stroke="black" fill-opacity="0"/>
  <rect x="790" y="640" width="100" height="100" stroke="black" fill-opacity="0"/>
  <rect x="800" y="450" width="100" height="100" stroke="black" fill-opacity="0"/>
  <rect x="810" y="460" width="100" height="100" stroke="black" fill-opacity="0"/>
  <rect x="810" y="510" width="100" height="100" stroke="black" fill-opacity="0"/>
  <rect x="820" y="190" width="100" height="100" stroke="black" fill-opacity="0"/>
  <rect x="820" y="240" width="100" height="100" stroke="black" fill-opacity="0"/>
  <rect x="820" y="470" width="100" height="100" stroke="black" fill-opacity="0"/>
  <rect x="820" y="520" width="100" height="100" stroke="black" fill-opacity="0"/>
  <rect x="820" y="570" width="100" height="100" stroke="black" fill-opacity="0"/>
  <rect x="830" y="200" width="100" height="100" stroke="black" fill-opacity="0"/>
  <rect x="830" y="250" width="100" height="100" stroke="black" fill-opacity="0"/>
  <rect x="830" y="530" width="100" height="100" stroke="black" fill-opacity="0"/>
  <rect x="830" y="580" width="100" height="100" stroke="black" fill-opacity="0"/>
  <rect x="840" y="210" width="100" height="100" stroke="black" fill-opacity="0"/>
  <rect x="840" y="260" width="100" height="100" stroke="black" fill-opacity="0"/>
  <rect x="840" y="590" width="100" height="100" stroke="black" fill-opacity="0"/>
  <rect x="850" y="220" width="100" height="100" stroke="black" fill-opacity="0"/>
  <rect x="880" y="230" width="100" height="100" stroke="black" fill-opacity="0"/>
  <rect x="890" y="110" width="100" height="100" stroke="black" fill-opacity="0"/>
  <rect x="890" y="120" width="100" height="100" stroke="black" fill-opacity="0"/>
  <rect x="890" y="150" width="100" height="100" stroke="black" fill-opacity="0"/>
  <rect x="890" y="240" width="100" height="100" stroke="black" fill-opacity="0"/>
  <rect x="890" y="320" width="100" height="100" stroke="black" fill-opacity="0"/>
  <rect x="900" y="120" width="100" height="100" stroke="black" fill-opacity="0"/>
  <rect x="900" y="130" width="100" height="100" stroke="black" fill-opacity="0"/>
  <rect x="900" y="140" width="100" height="100" stroke="black" fill-opacity="0"/>
  <rect x="900" y="160" width="100" height="100" stroke="black" fill-opacity="0"/>
  <rect x="900" y="250" width="100" height="100" stroke="black" fill-opacity="0"/>
  <rect x="900" y="330" width="100" height="100" stroke="black" fill-opacity="0"/>
  <rect x="910" y="130" width="100" height="100" stroke="black" fill-opacity="0"/>
  <rect x="910" y="140" width="100" height="100" stroke="black" fill-opacity="0"/>
  <rect x="910" y="150" width="100" height="100" stroke="black" fill-opacity="0"/>
  <rect x="910" y="170" width="100" height="100" stroke="black" fill-opacity="0"/>
  <rect x="910" y="210" width="100" height="100" stroke="black" fill-opacity="0"/>
  <rect x="910" y="340" width="100" height="100" stroke="black" fill-opacity="0"/>
  <rect x="920" y="160" width="100" height="100" stroke="black" fill-opacity="0"/>
  <rect x="920" y="220" width="100" height="100" stroke="black" fill-opacity="0"/>
  <rect x="930" y="230" width="100" height="100" stroke="black" fill-opacity="0"/>
  <rect x="940" y="90" width="100" height="100" stroke="black" fill-opacity="0"/>
  <rect x="950" y="100" width="100" height="100" stroke="black" fill-opacity="0"/>
  <rect x="950" y="350" width="100" height="100" stroke="black" fill-opacity="0"/>
  <rect x="960" y="110" width="100" height="100" stroke="black" fill-opacity="0"/>
  <rect x="960" y="360" width="100" height="100" stroke="black" fill-opacity="0"/>
  <rect x="970" y="370" width="100" height="100" stroke="black" fill-opacity="0"/>
  <rect x="970" y="420" width="100" height="100" stroke="black" fill-opacity="0"/>
  <rect x="970" y="450" width="100" height="100" stroke="black" fill-opacity="0"/>
  <rect x="980" y="190" width="100" height="100" stroke="black" fill-opacity="0"/>
  <rect x="980" y="430" width="100" height="100" stroke="black" fill-opacity="0"/>
  <rect x="980" y="460" width="100" height="100" stroke="black" fill-opacity="0"/>
  <rect x="990" y="200" width="100" height="100" stroke="black" fill-opacity="0"/>
  <rect x="990" y="440" width="100" height="100" stroke="black" fill-opacity="0"/>
  <rect x="990" y="470" width="100" height="100" stroke="black" fill-opacity="0"/>
  <rect x="1000" y="210" width="100" height="100" stroke="black" fill-opacity="0"/>
</svg>
