<svg version="1.1" width="1150" height="870" xmlns="http://www.w3.org/2000/svg">
  <!-- Seed: 2549841790939047372 -->
  <rect x="50" y="440" width="100" height="100" stroke="black" fill-opacity="0"/>
  <rect x="50" y="660" width="100" height="100" stroke="black" fill-opacity="0"/>
  <rect x="60" y="230" width="100" height="100" stroke="black" fill-opacity="0"/>
  <rect x="60" y="450" width="100" height="100" stroke="black" fill-opacity="0"/>
  <rect x="60" y="480" width="100" height="100" stroke="black" fill-opacity="0"/>
  <rect x="60" y="670" width="100" height="100" stroke="black" fill-opacity="0"/>
  <rect x="70" y="80" width="100" height="100" stroke="black" fill-opacity="0"/>
  <rect x="70" y="240" width="100" height="100" stroke="black" fill-opacity="0"/>
  <rect x="70" y="460" width="100" height="100" stroke="black" fill-opacity="0"/>
  <rect x="70" y="490" width="100" height="100" stroke="black" fill-opacity="0"/>
  <rect x="70" y="680" width="100" height="100" stroke="black" fill-opacity="0"/>
  <rect x="80" y="90" width="100" height="100" stroke="black" fill-opacity="0"/>
  <rect x="80" y="250" width="100" height="100" stroke="black" fill-opacity="0"/>
  <rect x="80" y="260" width="100" height="100" stroke="black" fill-opacity="0"/>
  <rect x="80" y="500" width="100" height="100" stroke="black" fill-opacity="0"/>
  <rect x="90" y="100" width="100" height="100" stroke="black" fill-opacity="0"/>
  <rect x="90" y="270" width="100" height="100" stroke="black" fill-opacity="0"/>
  <rect x="100" y="280" width="100" height="100" stroke="black" fill-opacity="0"/>
  <rect x="110" y="200" width="100" height="100" stroke="black" fill-opacity="0"/>
  <rect x="120" y="210" width="100" height="100" stroke="black" fill-opacity="0"/>
  <rect x="130" y="220" width="100" height="100" stroke="black" fill-opacity="0"/>
  <rect x="130" y="670" width="100" height="100" stroke="black" fill-opacity="0"/>
  <rect x="140" y="680" width="100" height="100" stroke="black" fill-opacity="0"/>
  <rect x="150" y="690" width="100" height="100" stroke="black" fill-opacity="0"/>
  <rect x="160" y="610" width="100" height="100" stroke="black" fill-opacity="0"/>
  <rect x="160" y="690" width="100" height="100" stroke="black" fill-opacity="0"/>
  <rect x="170" y="140" width="100" height="100" stroke="black" fill-opacity="0"/>
  <rect x="170" y="290" width="100" height="100" stroke="black" fill-opacity="0"/>
  <rect x="170" y="620" width="100" height="100" stroke="black" fill-opacity="0"/>
  <rect x="170" y="700" width="100" height="100" stroke="black" fill-opacity="0"/>
  <rect x="180" y="150" width="100" height="100" stroke="black" fill-opacity="0"/>
  <rect x="180" y="300" width="100" height="100" stroke="black" fill-opacity="0"/>
  <rect x="180" y="630" width="100" height="100" stroke="black" fill-opacity="0"/>
  <rect x="180" y="710" width="100" height="100" stroke="black" fill-opacity="0"/>
  <rect x="190" y="110" width="100" height="100" stroke="black" fill-opacity="0"/>
  <rect x="190" y="160" width="100" height="100" stroke="black" fill-opacity="0"/>
  <rect x="190" y="250" width="100" height="100" stroke="black" fill-opacity="0"/>
  <rect x="190" y="280" width="100" height="100" stroke="black" fill-opacity="0"/>
  <rect x="190" y="310" width="100" height="100" stroke="black" fill-opacity="0"/>
  <rect x="200" y="120" width="100" height="100" stroke="black" fill-opacity="0"/>
  <rect x="200" y="170" width="100" height="100" stroke="black" fill-opacity="0"/>
  <rect x="200" y="260" width="100" height="100" stroke="black" fill-opacity="0"/>
  <rect x="200" y="290" width="100" height="100" stroke="black" fill-opacity="0"/>
  <rect x="210" y="130" width="100" height="100" stroke="black" fill-opacity="0"/>
  <rect x="210" y="180" width="100" height="100" stroke="black" fill-opacity="0"/>
  <rect x="210" y="270" width="100" height="100" stroke="black" fill-opacity="0"/>
  <rect x="210" y="300" width="100" height="100" stroke="black" fill-opacity="0"/>
  <rect x="210" y="340" width="100" height="100" stroke="black" fill-opacity="0"/>
  <rect x="220" y="190" width="100" height="100" stroke="black" fill-opacity="0"/>
  <rect x="220" y="200" width="100" height="100" stroke="black" fill-opacity="0"/>
  <rect x="220" y="350" width="100" height="100" stroke="black" fill-opacity="0"/>
  <rect x="220" y="700" width="100" height="100" stroke="black" fill-opacity="0"/>
  <rect x="230" y="210" width="100" height="100" stroke="black" fill-opacity="0"/>
  <rect x="230" y="360" width="100" height="100" stroke="black" fill-opacity="0"/>
  <rect x="230" y="690" width="100" height="100" stroke="black" fill-opacity="0"/>
  <rect x="230" y="710" width="100" height="100" stroke="black" fill-opacity="0"/>
  <rect x="240" y="220" width="100" height="100" stroke="black" fill-opacity="0"/>
  <rect x="240" y="700" width="100" height="100" stroke="black" fill-opacity="0"/>
  <rect x="240" y="720" width="100" height="100" stroke="black" fill-opacity="0"/>
  <rect x="250" y="260" width="100" height="100" stroke="black" fill-opacity="0"/>
  <rect x="250" y="420" width="100" height="100" stroke="black" fill-opacity="0"/>
  <rect x="250" y="570" width="100" height="100" stroke="black" fill-opacity="0"/>
  <rect x="250" y="600" width="100" height="100" stroke="black" fill-opacity="0"/>
  <rect x="250" y="690" width="100" height="100" stroke="black" fill-opacity="0"/>
  <rect x="250" y="710" width="100" height="100" stroke="black" fill-opacity="0"/>
  <rect x="260" y="270" width="100" height="100" stroke="black" fill-opacity="0"/>
  <rect x="260" y="430" width="100" height="100" stroke="black" fill-opacity="0"/>
  <rect x="260" y="580" width="100" height="100" stroke="black" fill-opacity="0"/>
  <rect x="260" y="610" width="100" height="100" stroke="black" fill-opacity="0"/>
  <rect x="260" y="700" width="100" height="100" stroke="black" fill-opacity="0"/>
  <rect x="270" y="280" width="100" height="100" stroke="black" fill-opacity="0"/>
  <rect x="270" y="440" width="100" height="100" stroke="black" fill-opacity="0"/>
  <rect x="270" y="590" width="100" height="100" stroke="black" fill-opacity="0"/>
  <rect x="270" y="620" width="100" height="100" stroke="black" fill-opacity="0"/>
  <rect x="270" y="710" width="100" height="100" stroke="black" fill-opacity="0"/>
  <rect x="280" y="110" width="100" height="100" stroke="black" fill-opacity="0"/>
  <rect x="280" y="170" width="100" height="100" stroke="black" fill-opacity="0"/>
  <rect x="280" y="410" width="100" height="100" stroke="black" fill-opacity="0"/>
  <rect x="280" y="450" width="100" height="100" stroke="black" fill-opacity="0"/>
  <rect x="290" y="120" width="100" height="100" stroke="black" fill-opacity="0"/>
  <rect x="290" y="180" width="100" height="100" stroke="black" fill-opacity="0"/>
  <rect x="290" y="420" width="100" height="100" stroke="black" fill-opacity="0"/>
  <rect x="290" y="460" width="100" height="100" stroke="black" fill-opacity="0"/>
  <rect x="300" y="130" width="100" height="100" stroke="black" fill-opacity="0"/>
  <rect x="300" y="190" width="100" height="100" stroke="black" fill-opacity="0"/>
  <rect x="300" y="430" width="100" height="100" stroke="black" fill-opacity="0"/>
  <rect x="300" y="530" width="100" height="100" stroke="black" fill-opacity="0"/>
  <rect x="300" y="560" width="100" height="100" stroke="black" fill-opacity="0"/>
  <rect x="310" y="540" width="100" height="100" stroke="black" fill-opacity="0"/>
  <rect x="310" y="560" width="100" height="100" stroke="black" fill-opacity="0"/>
  <rect x="310" y="570" width="100" height="100" stroke="black" fill-opacity="0"/>
  <rect x="320" y="270" width="100" height="100" stroke="black" fill-opacity="0"/>
  <rect x="320" y="330" width="100" height="100" stroke="black" fill-opacity="0"/>
  <rect x="320" y="550" width="100" height="100" stroke="black" fill-opacity="0"/>
  <rect x="320" y="570" width="100" height="100" stroke="black" fill-opacity="0"/>
  <rect x="320" y="580" width="100" height="100" stroke="black" fill-opacity="0"/>
  <rect x="330" y="70" width="100" height="100" stroke="black" fill-opacity="0"/>
  <rect x="330" y="280" width="100" height="100" stroke="black" fill-opacity="0"/>
  <rect x="330" y="340" width="100" height="100" stroke="black" fill-opacity="0"/>
  <rect x="330" y="580" width="100" height="100" stroke="black" fill-opacity="0"/>
  <rect x="340" y="80" width="100" height="100" stroke="black" fill-opacity="0"/>
  <rect x="340" y="290" width="100" height="100" stroke="black" fill-opacity="0"/>
  <rect x="340" y="350" width="100" height="100" stroke="black" fill-opacity="0"/>
  <rect x="340" y="590" width="100" height="100" stroke="black" fill-opacity="0"/>
  <rect x="350" y="90" width="100" height="100" stroke="black" fill-opacity="0"/>
  <rect x="360" y="440" width="100" height="100" stroke="black" fill-opacity="0"/>
  <rect x="370" y="450" width="100" height="100" stroke="black" fill-opacity="0"/>
  <rect x="370" y="540" width="100" height="100" stroke="black" fill-opacity="0"/>
  <rect x="380" y="460" width="100" height="100" stroke="black" fill-opacity="0"/>
  <rect x="380" y="550" width="100" height="100" stroke="black" fill-opacity="0"/>
  <rect x="390" y="190" width="100" height="100" stroke="black" fill-opacity="0"/>
  <rect x="390" y="560" width="100" height="100" stroke="black" fill-opacity="0"/>
  <rect x="390" y="570" width="100" height="100" stroke="black" fill-opacity="0"/>
  <rect x="400" y="60" width="100" height="100" stroke="black" fill-opacity="0"/>
  <rect x="400" y="180" width="100" height="100" stroke="black" fill-opacity="0"/>
  <rect x="400" y="200" width="100" height="100" stroke="black" fill-opacity="0"/>
  <rect x="400" y="580" width="100" height="100" stroke="black" fill-opacity="0"/>
  <rect x="410" y="70" width="100" height="100" stroke="black" fill-opacity="0"/>
  <rect x="410" y="190" width="100" height="100" stroke="black" fill-opacity="0"/>
  <rect x="410" y="210" width="100" height="100" stroke="black" fill-opacity="0"/>
  <rect x="410" y="590" width="100" height="100" stroke="black" fill-opacity="0"/>
  <rect x="420" y="80" width="100" height="100" stroke="black" fill-opacity="0"/>
  <rect x="420" y="200" width="100" height="100" stroke="black" fill-opacity="0"/>
  <rect x="420" y="280" width="100" height="100" stroke="black" fill-opacity="0"/>
  <rect x="420" y="420" width="100" height="100" stroke="black" fill-opacity="0"/>
  <rect x="430" y="290" width="100" height="100" stroke="black" fill-opacity="0"/>
  <rect x="430" y="430" width="100" height="100" stroke="black" fill-opacity="0"/>
  <rect x="430" y="700" width="100" height="100" stroke="black" fill-opacity="0"/>
  <rect x="440" y="270" width="100" height="100" stroke="black" fill-opacity="0"/>
  <rect x="440" y="300" width="100" height="100" stroke="black" fill-opacity="0"/>
  <rect x="440" y="440" width="100" height="100" stroke="black" fill-opacity="0"/>
  <rect x="440" y="650" width="100" height="100" stroke="black" fill-opacity="0"/>
  <rect x="440" y="710" width="100" height="100" stroke="black" fill-opacity="0"/>
  <rect x="450" y="100" width="100" height="100" stroke="black" fill-opacity="0"/>
  <rect x="450" y="280" width="100" height="100" stroke="black" fill-opacity="0"/>
  <rect x="450" y="660" width="100" height="100" stroke="black" fill-opacity="0"/>
  <rect x="450" y="720" width="100" height="100" stroke="black" fill-opacity="0"/>
  <rect x="460" y="110" width="100" height="100" stroke="black" fill-opacity="0"/>
  <rect x="460" y="290" width="100" height="100" stroke="black" fill-opacity="0"/>
  <rect x="460" y="670" width="100" height="100" stroke="black" fill-opacity="0"/>
  <rect x="470" y="120" width="100" height="100" stroke="black" fill-opacity="0"/>
  <rect x="480" y="180" width="100" height="100" stroke="black" fill-opacity="0"/>
  <rect x="490" y="50" width="100" height="100" stroke="black" fill-opacity="0"/>
  <rect x="490" y="190" width="100" height="100" stroke="black" fill-opacity="0"/>
  <rect x="500" y="60" width="100" height="100" stroke="black" fill-opacity="0"/>
  <rect x="500" y="200" width="100" height="100" stroke="black" fill-opacity="0"/>
  <rect x="510" y="70" width="100" height="100" stroke="black" fill-opacity="0"/>
  <rect x="510" y="300" width="100" height="100" stroke="black" fill-opacity="0"/>
  <rect x="520" y="310" width="100" height="100" stroke="black" fill-opacity="0"/>
  <rect x="530" y="320" width="100" height="100" stroke="black" fill-opacity="0"/>
  <rect x="550" y="560" width="100" height="100" stroke="black" fill-opacity="0"/>
  <rect x="560" y="110" width="100" height="100" stroke="black" fill-opacity="0"/>
  <rect x="560" y="570" width="100" height="100" stroke="black" fill-opacity="0"/>
  <rect x="570" y="120" width="100" height="100" stroke="black" fill-opacity="0"/>
  <rect x="570" y="290" width="100" height="100" stroke="black" fill-opacity="0"/>
  <rect x="570" y="580" width="100" height="100" stroke="black" fill-opacity="0"/>
  <rect x="580" y="110" width="100" height="100" stroke="black" fill-opacity="0"/>
  <rect x="580" y="130" width="100" height="100" stroke="black" fill-opacity="0"/>
  <rect x="580" y="300" width="100" height="100" stroke="black" fill-opacity="0"/>
  <rect x="590" y="120" width="100" height="100" stroke="black" fill-opacity="0"/>
  <rect x="590" y="310" width="100" height="100" stroke="black" fill-opacity="0"/>
  <rect x="600" y="130" width="100" height="100" stroke="black" fill-opacity="0"/>
  <rect x="600" y="270" width="100" height="100" stroke="black" fill-opacity="0"/>
  <rect x="600" y="320" width="100" height="100" stroke="black" fill-opacity="0"/>
  <rect x="610" y="280" width="100" height="100" stroke="black" fill-opacity="0"/>
  <rect x="610" y="330" width="100" height="100" stroke="black" fill-opacity="0"/>
  <rect x="620" y="290" width="100" height="100" stroke="black" fill-opacity="0"/>
  <rect x="630" y="110" width="100" height="100" stroke="black" fill-opacity="0"/>
  <rect x="640" y="120" width="100" height="100" stroke="black" fill-opacity="0"/>
  <rect x="650" y="130" width="100" height="100" stroke="black" fill-opacity="0"/>
  <rect x="650" y="220" width="100" height="100" stroke="black" fill-opacity="0"/>
  <rect x="650" y="450" width="100" height="100" stroke="black" fill-opacity="0"/>
  <rect x="650" y="570" width="100" height="100" stroke="black" fill-opacity="0"/>
  <rect x="650" y="680" width="100" height="100" stroke="black" fill-opacity="0"/>
  <rect x="660" y="230" width="100" height="100" stroke="black" fill-opacity="0"/>
  <rect x="660" y="460" width="100" height="100" stroke="black" fill-opacity="0"/>
  <rect x="660" y="580" width="100" height="100" stroke="black" fill-opacity="0"/>
  <rect x="660" y="600" width="100" height="100" stroke="black" fill-opacity="0"/>
  <rect x="660" y="690" width="100" height="100" stroke="black" fill-opacity="0"/>
  <rect x="670" y="120" width="100" height="100" stroke="black" fill-opacity="0"/>
  <rect x="670" y="240" width="100" height="100" stroke="black" fill-opacity="0"/>
  <rect x="670" y="470" width="100" height="100" stroke="black" fill-opacity="0"/>
  <rect x="670" y="590" width="100" height="100" stroke="black" fill-opacity="0"/>
  <rect x="670" y="610" width="100" height="100" stroke="black" fill-opacity="0"/>
  <rect x="670" y="700" width="100" height="100" stroke="black" fill-opacity="0"/>
  <rect x="680" y="110" width="100" height="100" stroke="black" fill-opacity="0"/>
  <rect x="680" y="130" width="100" height="100" stroke="black" fill-opacity="0"/>
  <rect x="680" y="160" width="100" height="100" stroke="black" fill-opacity="0"/>
  <rect x="680" y="620" width="100" height="100" stroke="black" fill-opacity="0"/>
  <rect x="680" y="700" width="100" height="100" stroke="black" fill-opacity="0"/>
  <rect x="690" y="120" width="100" height="100" stroke="black" fill-opacity="0"/>
  <rect x="690" y="140" width="100" height="100" stroke="black" fill-opacity="0"/>
  <rect x="690" y="170" width="100" height="100" stroke="black" fill-opacity="0"/>
  <rect x="690" y="280" width="100" height="100" stroke="black" fill-opacity="0"/>
  <rect x="690" y="710" width="100" height="100" stroke="black" fill-opacity="0"/>
  <rect x="700" y="130" width="100" height="100" stroke="black" fill-opacity="0"/>
  <rect x="700" y="180" width="100" height="100" stroke="black" fill-opacity="0"/>
  <rect x="700" y="290" width="100" height="100" stroke="black" fill-opacity="0"/>
  <rect x="700" y="300" width="100" height="100" stroke="black" fill-opacity="0"/>
  <rect x="700" y="470" width="100" height="100" stroke="black" fill-opacity="0"/>
  <rect x="700" y="720" width="100" height="100" stroke="black" fill-opacity="0"/>
  <rect x="710" y="210" width="100" height="100" stroke="black" fill-opacity="0"/>
  <rect x="710" y="300" width="100" height="100" stroke="black" fill-opacity="0"/>
  <rect x="710" y="310" width="100" height="100" stroke="black" fill-opacity="0"/>
  <rect x="710" y="480" width="100" height="100" stroke="black" fill-opacity="0"/>
  <rect x="710" y="590" width="100" height="100" stroke="black" fill-opacity="0"/>
  <rect x="720" y="220" width="100" height="100" stroke="black" fill-opacity="0"/>
  <rect x="720" y="320" width="100" height="100" stroke="black" fill-opacity="0"/>
  <rect x="720" y="480" width="100" height="100" stroke="black" fill-opacity="0"/>
  <rect x="720" y="490" width="100" height="100" stroke="black" fill-opacity="0"/>
  <rect x="720" y="600" width="100" height="100" stroke="black" fill-opacity="0"/>
  <rect x="730" y="230" width="100" height="100" stroke="black" fill-opacity="0"/>
  <rect x="730" y="490" width="100" height="100" stroke="black" fill-opacity="0"/>
  <rect x="730" y="610" width="100" height="100" stroke="black" fill-opacity="0"/>
  <rect x="740" y="500" width="100" height="100" stroke="black" fill-opacity="0"/>
  <rect x="750" y="160" width="100" height="100" stroke="black" fill-opacity="0"/>
  <rect x="750" y="610" width="100" height="100" stroke="black" fill-opacity="0"/>
  <rect x="760" y="170" width="100" height="100" stroke="black" fill-opacity="0"/>
  <rect x="760" y="620" width="100" height="100" stroke="black" fill-opacity="0"/>
  <rect x="770" y="180" width="100" height="100" stroke="black" fill-opacity="0"/>
  <rect x="770" y="490" width="100" height="100" stroke="black" fill-opacity="0"/>
  <rect x="770" y="630" width="100" height="100" stroke="black" fill-opacity="0"/>
  <rect x="770" y="690" width="100" height="100" stroke="black" fill-opacity="0"/>
  <rect x="770" y="700" width="100" height="100" stroke="black" fill-opacity="0"/>
  <rect x="780" y="330" width="100" height="100" stroke="black" fill-opacity="0"/>
  <rect x="780" y="500" width="100" height="100" stroke="black" fill-opacity="0"/>
  <rect x="780" y="700" width="100" height="100" stroke="black" fill-opacity="0"/>
  <rect x="780" y="710" width="100" height="100" stroke="black" fill-opacity="0"/>
  <rect x="790" y="340" width="100" height="100" stroke="black" fill-opacity="0"/>
  <rect x="790" y="510" width="100" height="100" stroke="black" fill-opacity="0"/>
  <rect x="790" y="710" width="100" height="100" stroke="black" fill-opacity="0"/>
  <rect x="790" y="720" width="100" height="100" stroke="black" fill-opacity="0"/>
  <rect x="800" y="350" width="100" height="100" stroke="black" fill-opacity="0"/>
  <rect x="810" y="390" width="100" height="100" stroke="black" fill-opacity="0"/>
  <rect x="810" y="610" width="100" height="100" stroke="black" fill-opacity="0"/>
  <rect x="820" y="400" width="100" height="100" stroke="black" fill-opacity="0"/>
  <rect x="820" y="480" width="100" height="100" stroke="black" fill-opacity="0"/>
  <rect x="820" y="620" width="100" height="100" stroke="black" fill-opacity="0"/>
  <rect x="830" y="290" width="100" height="100" stroke="black" fill-opacity="0"/>
  <rect x="830" y="410" width="100" height="100" stroke="black" fill-opacity="0"/>
  <rect x="830" y="490" width="100" height="100" stroke="black" fill-opacity="0"/>
  <rect x="830" y="600" width="100" height="100" stroke="black" fill-opacity="0"/>
  <rect x="830" y="630" width="100" height="100" stroke="black" fill-opacity="0"/>
  <rect x="830" y="700" width="100" height="100" stroke="black" fill-opacity="0"/>
  <rect x="840" y="300" width="100" height="100" stroke="black" fill-opacity="0"/>
  <rect x="840" y="500" width="100" height="100" stroke="black" fill-opacity="0"/>
  <rect x="840" y="610" width="100" height="100" stroke="black" fill-opacity="0"/>
  <rect x="840" y="710" width="100" height="100" stroke="black" fill-opacity="0"/>
  <rect x="850" y="310" width="100" height="100" stroke="black" fill-opacity="0"/>
  <rect x="850" y="620" width="100" height="100" stroke="black" fill-opacity="0"/>
  <rect x="850" y="720" width="100" height="100" stroke="black" fill-opacity="0"/>
  <rect x="870" y="500" width="100" height="100" stroke="black" fill-opacity="0"/>
  <rect x="880" y="450" width="100" height="100" stroke="black" fill-opacity="0"/>
  <rect x="880" y="510" width="100" height="100" stroke="black" fill-opacity="0"/>
  <rect x="890" y="460" width="100" height="100" stroke="black" fill-opacity="0"/>
  <rect x="890" y="510" width="100" height="100" stroke="black" fill-opacity="0"/>
  <rect x="890" y="520" width="100" height="100" stroke="black" fill-opacity="0"/>
  <rect x="900" y="470" width="100" height="100" stroke="black" fill-opacity="0"/>
  <rect x="900" y="520" width="100" height="100" stroke="black" fill-opacity="0"/>
  <rect x="900" y="620" width="100" height="100" stroke="black" fill-opacity="0"/>
  <rect x="910" y="370" width="100" height="100" stroke="black" fill-opacity="0"/>
  <rect x="910" y="530" width="100" height="100" stroke="black" fill-opacity="0"/>
  <rect x="910" y="630" width="100" height="100" stroke="black" fill-opacity="0"/>
  <rect x="920" y="380" width="100" height="100" stroke="black" fill-opacity="0"/>
  <rect x="920" y="520" width="100" height="100" stroke="black" fill-opacity="0"/>
  <rect x="920" y="630" width="100" height="100" stroke="black" fill-opacity="0"/>
  <rect x="920" y="640" width="100" height="100" stroke="black" fill-opacity="0"/>
  <rect x="930" y="190" width="100" height="100" stroke="black" fill-opacity="0"/>
  <rect x="930" y="390" width="100" height="100" stroke="black" fill-opacity="0"/>
  <rect x="930" y="530" width="100" height="100" stroke="black" fill-opacity="0"/>
  <rect x="930" y="640" width="100" height="100" stroke="black" fill-opacity="0"/>
  <rect x="940" y="200" width="100" height="100" stroke="black" fill-opacity="0"/>
  <rect x="940" y="540" width="100" height="100" stroke="black" fill-opacity="0"/>
  <rect x="940" y="650" width="100" height="100" stroke="black" fill-opacity="0"/>
  <rect x="950" y="210" width="100" height="100" stroke="black" fill-opacity="0"/>
  <rect x="960" y="400" width="100" height="100" stroke="black" fill-opacity="0"/>
  <rect x="960" y="600" width="100" height="100" stroke="black" fill-opacity="0"/>
  <rect x="970" y="410" width="100" height="100" stroke="black" fill-opacity="0"/>
  <rect x="970" y="550" width="100" height="100" stroke="black" fill-opacity="0"/>
  <rect x="970" y="610" width="100" height="100" stroke="black" fill-opacity="0"/>
  <rect x="970" y="650" width="100" height="100" stroke="black" fill-opacity="0"/>
  <rect x="980" y="210" width="100" height="100" stroke="black" fill-opacity="0"/>
  <rect x="980" y="420" width="100" height="100" stroke="black" fill-opacity="0"/>
  <rect x="980" y="560" width="100" height="100" stroke="black" fill-opacity="0"/>
  <rect x="980" y="620" width="100" height="100" stroke="black" fill-opacity="0"/>
  <rect x="980" y="660" width="100" height="100" stroke="black" fill-opacity="0"/>
  <rect x="980" y="680" width="100" height="100" stroke="black" fill-opacity="0"/>
  <rect x="990" y="220" width="100" height="100" stroke="black" fill-opacity="0"/>
  <rect x="990" y="570" width="100" height="100" stroke="black" fill-opacity="0"/>
  <rect x="990" y="670" width="100" height="100" stroke="black" fill-opacity="0"/>
  <rect x="990" y="690" width="100" height="100" stroke="black" fill-opacity="0"/>
  <rect x="1000" y="230" width="100" height="100" stroke="black" fill-opacity="0"/>
  <rect x="1000" y="700" width="100" height="100" stroke="black" fill-opacity="0"/>
</svg>
