<svg version="1.1" width="1150" height="870" xmlns="http://www.w3.org/2000/svg">
  <!-- Seed: 6812483452566261751 -->
  <!-- Size: SvgSize.Size9x12 -->
  <!-- Params:
    draw: True
    slope: 100
    skew_height: [RangeFloat] min: 0.1 max: 0.3
    perspective_skew: [RangeFloat] min: 0.2 max: 0.5
    wall_width: [RangeFloat] min: 0.1 max: 0.8
    wall_inset_left: [RangeFloat] min: 0.01 max: 0.1
    wall_inset_right: [RangeFloat] min: 0.01 max: 0.2
    wall_bottom_inset: [RangeFloat] min: 0.01 max: 0.4
    row: [RangeInt] min: 1 max: 20
    col: [RangeInt] min: 1 max: 30
    height_adjust: [RangeFloat] min: -0.2 max: 0.1
    split_pad_x: [RangeFloat] min: -0.05 max: 0.2
    split_pad_y: [RangeInt] min: -10 max: 10
  -->
  <g stroke="black" fill="none">
    <path d="M50.0 681.0 L116.0 681.0"/>
    <path d="M116.0 681.0 L123.0 715.0"/>
    <path d="M123.0 715.0 L123.0 820.0"/>
    <path d="M123.0 820.0 L57.0 820.0"/>
    <path d="M57.0 820.0 L50.0 786.0"/>
    <path d="M50.0 786.0 L50.0 681.0"/>
    <path d="M50.0 681.0 L53.0 694.0"/>
    <path d="M53.0 694.0 L75.0 694.0"/>
    <path d="M75.0 694.0 L75.0 693.0"/>
    <path d="M75.0 693.0 L96.0 693.0"/>
    <path d="M96.0 693.0 L98.0 703.0"/>
    <path d="M98.0 703.0 L88.0 703.0"/>
    <path d="M88.0 703.0 L90.0 715.0"/>
    <path d="M90.0 715.0 L123.0 715.0"/>
    <path d="M90.0 715.0 L90.0 801.0"/>
    <path d="M90.0 801.0 L57.0 801.0"/>
    <path d="M57.0 801.0 L53.0 781.0"/>
    <path d="M53.0 781.0 L53.0 694.0"/>
    <path d="M75.0 694.0 L75.0 781.0"/>
    <path d="M75.0 781.0 L53.0 781.0"/>
    <path d="M75.0 781.0 L77.0 789.0"/>
    <path d="M77.0 789.0 L88.0 789.0"/>
    <path d="M88.0 789.0 L90.0 801.0"/>
    <path d="M88.0 789.0 L88.0 703.0"/>
    <path d="M96.0 695.0 L96.0 703.0"/>
    <path d="M57.0 801.0 L57.0 820.0"/>
    <path d="M139.0 702.0 L205.0 702.0"/>
    <path d="M205.0 702.0 L211.0 736.0"/>
    <path d="M211.0 736.0 L211.0 820.0"/>
    <path d="M211.0 820.0 L146.0 820.0"/>
    <path d="M146.0 820.0 L139.0 786.0"/>
    <path d="M139.0 786.0 L139.0 702.0"/>
    <path d="M139.0 702.0 L139.0 705.0"/>
    <path d="M139.0 705.0 L144.0 705.0"/>
    <path d="M144.0 705.0 L144.0 704.0"/>
    <path d="M144.0 704.0 L201.0 704.0"/>
    <path d="M201.0 704.0 L207.0 734.0"/>
    <path d="M207.0 734.0 L205.0 734.0"/>
    <path d="M205.0 734.0 L205.0 736.0"/>
    <path d="M205.0 736.0 L211.0 736.0"/>
    <path d="M205.0 736.0 L205.0 813.0"/>
    <path d="M205.0 813.0 L146.0 813.0"/>
    <path d="M146.0 813.0 L139.0 782.0"/>
    <path d="M139.0 782.0 L139.0 705.0"/>
    <path d="M144.0 705.0 L144.0 782.0"/>
    <path d="M144.0 782.0 L139.0 782.0"/>
    <path d="M144.0 782.0 L149.0 811.0"/>
    <path d="M149.0 811.0 L205.0 811.0"/>
    <path d="M205.0 811.0 L205.0 813.0"/>
    <path d="M205.0 811.0 L205.0 734.0"/>
    <path d="M201.0 705.0 L201.0 789.0"/>
    <path d="M145.0 789.0 L201.0 789.0"/>
    <path d="M205.0 809.0 L201.0 789.0"/>
    <path d="M146.0 813.0 L146.0 820.0"/>
    <path d="M228.0 696.0 L294.0 696.0"/>
    <path d="M294.0 696.0 L300.0 730.0"/>
    <path d="M300.0 730.0 L300.0 820.0"/>
    <path d="M300.0 820.0 L234.0 820.0"/>
    <path d="M234.0 820.0 L228.0 786.0"/>
    <path d="M228.0 786.0 L228.0 696.0"/>
    <path d="M228.0 696.0 L230.0 706.0"/>
    <path d="M230.0 706.0 L244.0 706.0"/>
    <path d="M244.0 706.0 L243.0 703.0"/>
    <path d="M243.0 703.0 L281.0 703.0"/>
    <path d="M281.0 703.0 L285.0 722.0"/>
    <path d="M285.0 722.0 L278.0 722.0"/>
    <path d="M278.0 722.0 L280.0 730.0"/>
    <path d="M280.0 730.0 L300.0 730.0"/>
    <path d="M280.0 730.0 L280.0 808.0"/>
    <path d="M280.0 808.0 L234.0 808.0"/>
    <path d="M234.0 808.0 L230.0 785.0"/>
    <path d="M230.0 785.0 L230.0 706.0"/>
    <path d="M244.0 706.0 L244.0 785.0"/>
    <path d="M244.0 785.0 L230.0 785.0"/>
    <path d="M244.0 785.0 L247.0 801.0"/>
    <path d="M247.0 801.0 L278.0 801.0"/>
    <path d="M278.0 801.0 L280.0 808.0"/>
    <path d="M278.0 801.0 L278.0 722.0"/>
    <path d="M281.0 705.0 L281.0 722.0"/>
    <path d="M246.0 794.0 L278.0 794.0"/>
    <path d="M234.0 808.0 L234.0 820.0"/>
    <path d="M317.0 707.0 L382.0 707.0"/>
    <path d="M382.0 707.0 L389.0 741.0"/>
    <path d="M389.0 741.0 L389.0 820.0"/>
    <path d="M389.0 820.0 L323.0 820.0"/>
    <path d="M323.0 820.0 L317.0 786.0"/>
    <path d="M317.0 786.0 L317.0 707.0"/>
    <path d="M317.0 707.0 L320.0 722.0"/>
    <path d="M320.0 722.0 L345.0 722.0"/>
    <path d="M345.0 722.0 L344.0 720.0"/>
    <path d="M344.0 720.0 L360.0 720.0"/>
    <path d="M360.0 720.0 L361.0 728.0"/>
    <path d="M361.0 728.0 L357.0 728.0"/>
    <path d="M357.0 728.0 L360.0 741.0"/>
    <path d="M360.0 741.0 L389.0 741.0"/>
    <path d="M360.0 741.0 L360.0 816.0"/>
    <path d="M360.0 816.0 L323.0 816.0"/>
    <path d="M323.0 816.0 L320.0 798.0"/>
    <path d="M320.0 798.0 L320.0 722.0"/>
    <path d="M345.0 722.0 L345.0 798.0"/>
    <path d="M345.0 798.0 L320.0 798.0"/>
    <path d="M345.0 798.0 L346.0 803.0"/>
    <path d="M346.0 803.0 L357.0 803.0"/>
    <path d="M357.0 803.0 L360.0 816.0"/>
    <path d="M357.0 803.0 L357.0 728.0"/>
    <path d="M360.0 720.0 L360.0 728.0"/>
    <path d="M345.0 799.0 L357.0 799.0"/>
    <path d="M323.0 816.0 L323.0 820.0"/>
    <path d="M405.0 706.0 L471.0 706.0"/>
    <path d="M471.0 706.0 L478.0 740.0"/>
    <path d="M478.0 740.0 L478.0 820.0"/>
    <path d="M478.0 820.0 L412.0 820.0"/>
    <path d="M412.0 820.0 L405.0 786.0"/>
    <path d="M405.0 786.0 L405.0 706.0"/>
    <path d="M405.0 706.0 L407.0 717.0"/>
    <path d="M407.0 717.0 L423.0 717.0"/>
    <path d="M423.0 717.0 L423.0 715.0"/>
    <path d="M423.0 715.0 L457.0 715.0"/>
    <path d="M457.0 715.0 L460.0 732.0"/>
    <path d="M460.0 732.0 L449.0 732.0"/>
    <path d="M449.0 732.0 L451.0 740.0"/>
    <path d="M451.0 740.0 L478.0 740.0"/>
    <path d="M451.0 740.0 L451.0 809.0"/>
    <path d="M451.0 809.0 L412.0 809.0"/>
    <path d="M412.0 809.0 L407.0 786.0"/>
    <path d="M407.0 786.0 L407.0 717.0"/>
    <path d="M423.0 717.0 L423.0 786.0"/>
    <path d="M423.0 786.0 L407.0 786.0"/>
    <path d="M423.0 786.0 L426.0 801.0"/>
    <path d="M426.0 801.0 L449.0 801.0"/>
    <path d="M449.0 801.0 L451.0 809.0"/>
    <path d="M449.0 801.0 L449.0 732.0"/>
    <path d="M457.0 715.0 L457.0 732.0"/>
    <path d="M425.0 795.0 L449.0 795.0"/>
    <path d="M412.0 809.0 L412.0 820.0"/>
    <path d="M494.0 687.0 L560.0 687.0"/>
    <path d="M560.0 687.0 L567.0 721.0"/>
    <path d="M567.0 721.0 L567.0 820.0"/>
    <path d="M567.0 820.0 L501.0 820.0"/>
    <path d="M501.0 820.0 L494.0 786.0"/>
    <path d="M494.0 786.0 L494.0 687.0"/>
    <path d="M494.0 687.0 L497.0 699.0"/>
    <path d="M497.0 699.0 L515.0 699.0"/>
    <path d="M515.0 699.0 L515.0 697.0"/>
    <path d="M515.0 697.0 L543.0 697.0"/>
    <path d="M543.0 697.0 L546.0 711.0"/>
    <path d="M546.0 711.0 L537.0 711.0"/>
    <path d="M537.0 711.0 L539.0 721.0"/>
    <path d="M539.0 721.0 L567.0 721.0"/>
    <path d="M539.0 721.0 L539.0 801.0"/>
    <path d="M539.0 801.0 L501.0 801.0"/>
    <path d="M501.0 801.0 L497.0 779.0"/>
    <path d="M497.0 779.0 L497.0 699.0"/>
    <path d="M515.0 699.0 L515.0 779.0"/>
    <path d="M515.0 779.0 L497.0 779.0"/>
    <path d="M515.0 779.0 L518.0 791.0"/>
    <path d="M518.0 791.0 L537.0 791.0"/>
    <path d="M537.0 791.0 L539.0 801.0"/>
    <path d="M537.0 791.0 L537.0 711.0"/>
    <path d="M543.0 697.0 L543.0 711.0"/>
    <path d="M501.0 801.0 L501.0 820.0"/>
    <path d="M583.0 695.0 L649.0 695.0"/>
    <path d="M649.0 695.0 L656.0 728.0"/>
    <path d="M656.0 728.0 L656.0 820.0"/>
    <path d="M656.0 820.0 L590.0 820.0"/>
    <path d="M590.0 820.0 L583.0 786.0"/>
    <path d="M583.0 786.0 L583.0 695.0"/>
    <path d="M583.0 695.0 L586.0 710.0"/>
    <path d="M586.0 710.0 L609.0 710.0"/>
    <path d="M609.0 710.0 L609.0 707.0"/>
    <path d="M609.0 707.0 L628.0 707.0"/>
    <path d="M628.0 707.0 L630.0 717.0"/>
    <path d="M630.0 717.0 L619.0 717.0"/>
    <path d="M619.0 717.0 L621.0 728.0"/>
    <path d="M621.0 728.0 L656.0 728.0"/>
    <path d="M621.0 728.0 L621.0 806.0"/>
    <path d="M621.0 806.0 L590.0 806.0"/>
    <path d="M590.0 806.0 L586.0 787.0"/>
    <path d="M586.0 787.0 L586.0 710.0"/>
    <path d="M609.0 710.0 L609.0 787.0"/>
    <path d="M609.0 787.0 L586.0 787.0"/>
    <path d="M609.0 787.0 L611.0 794.0"/>
    <path d="M611.0 794.0 L619.0 794.0"/>
    <path d="M619.0 794.0 L621.0 806.0"/>
    <path d="M619.0 794.0 L619.0 717.0"/>
    <path d="M628.0 707.0 L628.0 717.0"/>
    <path d="M590.0 806.0 L590.0 820.0"/>
    <path d="M672.0 698.0 L738.0 698.0"/>
    <path d="M738.0 698.0 L745.0 732.0"/>
    <path d="M745.0 732.0 L745.0 820.0"/>
    <path d="M745.0 820.0 L679.0 820.0"/>
    <path d="M679.0 820.0 L672.0 786.0"/>
    <path d="M672.0 786.0 L672.0 698.0"/>
    <path d="M672.0 698.0 L674.0 709.0"/>
    <path d="M674.0 709.0 L690.0 709.0"/>
    <path d="M690.0 709.0 L690.0 707.0"/>
    <path d="M690.0 707.0 L723.0 707.0"/>
    <path d="M723.0 707.0 L727.0 724.0"/>
    <path d="M727.0 724.0 L721.0 724.0"/>
    <path d="M721.0 724.0 L723.0 732.0"/>
    <path d="M723.0 732.0 L745.0 732.0"/>
    <path d="M723.0 732.0 L723.0 816.0"/>
    <path d="M723.0 816.0 L679.0 816.0"/>
    <path d="M679.0 816.0 L674.0 793.0"/>
    <path d="M674.0 793.0 L674.0 709.0"/>
    <path d="M690.0 709.0 L690.0 793.0"/>
    <path d="M690.0 793.0 L674.0 793.0"/>
    <path d="M690.0 793.0 L693.0 808.0"/>
    <path d="M693.0 808.0 L721.0 808.0"/>
    <path d="M721.0 808.0 L723.0 816.0"/>
    <path d="M721.0 808.0 L721.0 724.0"/>
    <path d="M723.0 707.0 L723.0 724.0"/>
    <path d="M690.0 795.0 L721.0 795.0"/>
    <path d="M679.0 816.0 L679.0 820.0"/>
    <path d="M761.0 697.0 L827.0 697.0"/>
    <path d="M827.0 697.0 L833.0 731.0"/>
    <path d="M833.0 731.0 L833.0 820.0"/>
    <path d="M833.0 820.0 L768.0 820.0"/>
    <path d="M768.0 820.0 L761.0 786.0"/>
    <path d="M761.0 786.0 L761.0 697.0"/>
    <path d="M761.0 697.0 L764.0 710.0"/>
    <path d="M764.0 710.0 L787.0 710.0"/>
    <path d="M787.0 710.0 L786.0 709.0"/>
    <path d="M786.0 709.0 L806.0 709.0"/>
    <path d="M806.0 709.0 L808.0 719.0"/>
    <path d="M808.0 719.0 L801.0 719.0"/>
    <path d="M801.0 719.0 L804.0 731.0"/>
    <path d="M804.0 731.0 L833.0 731.0"/>
    <path d="M804.0 731.0 L804.0 787.0"/>
    <path d="M804.0 787.0 L768.0 787.0"/>
    <path d="M768.0 787.0 L764.0 767.0"/>
    <path d="M764.0 767.0 L764.0 710.0"/>
    <path d="M787.0 710.0 L787.0 767.0"/>
    <path d="M787.0 767.0 L764.0 767.0"/>
    <path d="M787.0 767.0 L788.0 776.0"/>
    <path d="M788.0 776.0 L801.0 776.0"/>
    <path d="M801.0 776.0 L804.0 787.0"/>
    <path d="M801.0 776.0 L801.0 719.0"/>
    <path d="M806.0 709.0 L806.0 719.0"/>
    <path d="M768.0 787.0 L768.0 820.0"/>
    <path d="M850.0 695.0 L916.0 695.0"/>
    <path d="M916.0 695.0 L922.0 729.0"/>
    <path d="M922.0 729.0 L922.0 820.0"/>
    <path d="M922.0 820.0 L856.0 820.0"/>
    <path d="M856.0 820.0 L850.0 786.0"/>
    <path d="M850.0 786.0 L850.0 695.0"/>
    <path d="M850.0 695.0 L852.0 708.0"/>
    <path d="M852.0 708.0 L871.0 708.0"/>
    <path d="M871.0 708.0 L870.0 705.0"/>
    <path d="M870.0 705.0 L899.0 705.0"/>
    <path d="M899.0 705.0 L902.0 719.0"/>
    <path d="M902.0 719.0 L889.0 719.0"/>
    <path d="M889.0 719.0 L891.0 729.0"/>
    <path d="M891.0 729.0 L922.0 729.0"/>
    <path d="M891.0 729.0 L891.0 803.0"/>
    <path d="M891.0 803.0 L856.0 803.0"/>
    <path d="M856.0 803.0 L852.0 782.0"/>
    <path d="M852.0 782.0 L852.0 708.0"/>
    <path d="M871.0 708.0 L871.0 782.0"/>
    <path d="M871.0 782.0 L852.0 782.0"/>
    <path d="M871.0 782.0 L873.0 793.0"/>
    <path d="M873.0 793.0 L889.0 793.0"/>
    <path d="M889.0 793.0 L891.0 803.0"/>
    <path d="M889.0 793.0 L889.0 719.0"/>
    <path d="M899.0 706.0 L899.0 719.0"/>
    <path d="M856.0 803.0 L856.0 820.0"/>
    <path d="M939.0 701.0 L1004.0 701.0"/>
    <path d="M1004.0 701.0 L1011.0 735.0"/>
    <path d="M1011.0 735.0 L1011.0 820.0"/>
    <path d="M1011.0 820.0 L945.0 820.0"/>
    <path d="M945.0 820.0 L939.0 786.0"/>
    <path d="M939.0 786.0 L939.0 701.0"/>
    <path d="M939.0 701.0 L941.0 714.0"/>
    <path d="M941.0 714.0 L962.0 714.0"/>
    <path d="M962.0 714.0 L962.0 712.0"/>
    <path d="M962.0 712.0 L986.0 712.0"/>
    <path d="M986.0 712.0 L988.0 724.0"/>
    <path d="M988.0 724.0 L984.0 724.0"/>
    <path d="M984.0 724.0 L986.0 735.0"/>
    <path d="M986.0 735.0 L1011.0 735.0"/>
    <path d="M986.0 735.0 L986.0 816.0"/>
    <path d="M986.0 816.0 L945.0 816.0"/>
    <path d="M945.0 816.0 L941.0 796.0"/>
    <path d="M941.0 796.0 L941.0 714.0"/>
    <path d="M962.0 714.0 L962.0 796.0"/>
    <path d="M962.0 796.0 L941.0 796.0"/>
    <path d="M962.0 796.0 L964.0 806.0"/>
    <path d="M964.0 806.0 L984.0 806.0"/>
    <path d="M984.0 806.0 L986.0 816.0"/>
    <path d="M984.0 806.0 L984.0 724.0"/>
    <path d="M986.0 714.0 L986.0 724.0"/>
    <path d="M962.0 797.0 L984.0 797.0"/>
    <path d="M945.0 816.0 L945.0 820.0"/>
    <path d="M1027.0 691.0 L1093.0 691.0"/>
    <path d="M1093.0 691.0 L1100.0 724.0"/>
    <path d="M1100.0 724.0 L1100.0 820.0"/>
    <path d="M1100.0 820.0 L1034.0 820.0"/>
    <path d="M1034.0 820.0 L1027.0 786.0"/>
    <path d="M1027.0 786.0 L1027.0 691.0"/>
    <path d="M1027.0 691.0 L1029.0 699.0"/>
    <path d="M1029.0 699.0 L1040.0 699.0"/>
    <path d="M1040.0 699.0 L1039.0 696.0"/>
    <path d="M1039.0 696.0 L1084.0 696.0"/>
    <path d="M1084.0 696.0 L1088.0 719.0"/>
    <path d="M1088.0 719.0 L1086.0 719.0"/>
    <path d="M1086.0 719.0 L1087.0 724.0"/>
    <path d="M1087.0 724.0 L1100.0 724.0"/>
    <path d="M1087.0 724.0 L1087.0 799.0"/>
    <path d="M1087.0 799.0 L1034.0 799.0"/>
    <path d="M1034.0 799.0 L1029.0 774.0"/>
    <path d="M1029.0 774.0 L1029.0 699.0"/>
    <path d="M1040.0 699.0 L1040.0 774.0"/>
    <path d="M1040.0 774.0 L1029.0 774.0"/>
    <path d="M1040.0 774.0 L1044.0 794.0"/>
    <path d="M1044.0 794.0 L1086.0 794.0"/>
    <path d="M1086.0 794.0 L1087.0 799.0"/>
    <path d="M1086.0 794.0 L1086.0 719.0"/>
    <path d="M1084.0 697.0 L1084.0 792.0"/>
    <path d="M1043.0 792.0 L1084.0 792.0"/>
    <path d="M1084.0 794.0 L1084.0 792.0"/>
    <path d="M1034.0 799.0 L1034.0 820.0"/>
    <path d="M50.0 555.0 L116.0 555.0"/>
    <path d="M116.0 555.0 L123.0 589.0"/>
    <path d="M123.0 589.0 L123.0 692.0"/>
    <path d="M123.0 692.0 L118.0 692.0"/>
    <path d="M55.0 681.0 L50.0 658.0"/>
    <path d="M50.0 658.0 L50.0 555.0"/>
    <path d="M50.0 555.0 L52.0 564.0"/>
    <path d="M52.0 564.0 L64.0 564.0"/>
    <path d="M64.0 564.0 L64.0 562.0"/>
    <path d="M64.0 562.0 L104.0 562.0"/>
    <path d="M104.0 562.0 L109.0 582.0"/>
    <path d="M109.0 582.0 L96.0 582.0"/>
    <path d="M96.0 582.0 L98.0 589.0"/>
    <path d="M98.0 589.0 L123.0 589.0"/>
    <path d="M98.0 589.0 L98.0 679.0"/>
    <path d="M98.0 679.0 L57.0 679.0"/>
    <path d="M57.0 679.0 L52.0 654.0"/>
    <path d="M52.0 654.0 L52.0 564.0"/>
    <path d="M64.0 564.0 L64.0 654.0"/>
    <path d="M64.0 654.0 L52.0 654.0"/>
    <path d="M64.0 654.0 L68.0 673.0"/>
    <path d="M68.0 673.0 L96.0 673.0"/>
    <path d="M96.0 673.0 L98.0 679.0"/>
    <path d="M96.0 673.0 L96.0 582.0"/>
    <path d="M104.0 562.0 L104.0 582.0"/>
    <path d="M67.0 665.0 L96.0 665.0"/>
    <path d="M57.0 679.0 L57.0 681.0"/>
    <path d="M139.0 550.0 L205.0 550.0"/>
    <path d="M205.0 550.0 L211.0 584.0"/>
    <path d="M211.0 584.0 L211.0 692.0"/>
    <path d="M211.0 692.0 L146.0 692.0"/>
    <path d="M146.0 692.0 L139.0 658.0"/>
    <path d="M139.0 658.0 L139.0 550.0"/>
    <path d="M139.0 550.0 L140.0 557.0"/>
    <path d="M140.0 557.0 L150.0 557.0"/>
    <path d="M150.0 557.0 L150.0 555.0"/>
    <path d="M150.0 555.0 L196.0 555.0"/>
    <path d="M196.0 555.0 L200.0 579.0"/>
    <path d="M200.0 579.0 L194.0 579.0"/>
    <path d="M194.0 579.0 L195.0 584.0"/>
    <path d="M195.0 584.0 L211.0 584.0"/>
    <path d="M195.0 584.0 L195.0 676.0"/>
    <path d="M195.0 676.0 L146.0 676.0"/>
    <path d="M146.0 676.0 L140.0 649.0"/>
    <path d="M140.0 649.0 L140.0 557.0"/>
    <path d="M150.0 557.0 L150.0 649.0"/>
    <path d="M150.0 649.0 L140.0 649.0"/>
    <path d="M150.0 649.0 L155.0 671.0"/>
    <path d="M155.0 671.0 L194.0 671.0"/>
    <path d="M194.0 671.0 L195.0 676.0"/>
    <path d="M194.0 671.0 L194.0 579.0"/>
    <path d="M196.0 556.0 L196.0 579.0"/>
    <path d="M153.0 663.0 L194.0 663.0"/>
    <path d="M146.0 676.0 L146.0 692.0"/>
    <path d="M228.0 577.0 L294.0 577.0"/>
    <path d="M294.0 577.0 L300.0 611.0"/>
    <path d="M300.0 611.0 L300.0 692.0"/>
    <path d="M300.0 692.0 L234.0 692.0"/>
    <path d="M234.0 692.0 L228.0 658.0"/>
    <path d="M228.0 658.0 L228.0 577.0"/>
    <path d="M228.0 577.0 L230.0 588.0"/>
    <path d="M230.0 588.0 L249.0 588.0"/>
    <path d="M249.0 588.0 L249.0 587.0"/>
    <path d="M249.0 587.0 L277.0 587.0"/>
    <path d="M277.0 587.0 L279.0 601.0"/>
    <path d="M279.0 601.0 L275.0 601.0"/>
    <path d="M275.0 601.0 L277.0 611.0"/>
    <path d="M277.0 611.0 L300.0 611.0"/>
    <path d="M277.0 611.0 L277.0 676.0"/>
    <path d="M277.0 676.0 L234.0 676.0"/>
    <path d="M234.0 676.0 L230.0 653.0"/>
    <path d="M230.0 653.0 L230.0 588.0"/>
    <path d="M249.0 588.0 L249.0 653.0"/>
    <path d="M249.0 653.0 L230.0 653.0"/>
    <path d="M249.0 653.0 L251.0 666.0"/>
    <path d="M251.0 666.0 L275.0 666.0"/>
    <path d="M275.0 666.0 L277.0 676.0"/>
    <path d="M275.0 666.0 L275.0 601.0"/>
    <path d="M277.0 589.0 L277.0 601.0"/>
    <path d="M234.0 676.0 L234.0 692.0"/>
    <path d="M317.0 552.0 L382.0 552.0"/>
    <path d="M382.0 552.0 L389.0 586.0"/>
    <path d="M389.0 586.0 L389.0 692.0"/>
    <path d="M389.0 692.0 L323.0 692.0"/>
    <path d="M323.0 692.0 L317.0 658.0"/>
    <path d="M317.0 658.0 L317.0 552.0"/>
    <path d="M317.0 552.0 L319.0 567.0"/>
    <path d="M319.0 567.0 L343.0 567.0"/>
    <path d="M343.0 567.0 L342.0 564.0"/>
    <path d="M342.0 564.0 L362.0 564.0"/>
    <path d="M362.0 564.0 L364.0 574.0"/>
    <path d="M364.0 574.0 L362.0 574.0"/>
    <path d="M362.0 574.0 L365.0 586.0"/>
    <path d="M365.0 586.0 L389.0 586.0"/>
    <path d="M365.0 586.0 L365.0 679.0"/>
    <path d="M365.0 679.0 L323.0 679.0"/>
    <path d="M323.0 679.0 L319.0 659.0"/>
    <path d="M319.0 659.0 L319.0 567.0"/>
    <path d="M343.0 567.0 L343.0 659.0"/>
    <path d="M343.0 659.0 L319.0 659.0"/>
    <path d="M343.0 659.0 L344.0 667.0"/>
    <path d="M344.0 667.0 L362.0 667.0"/>
    <path d="M362.0 667.0 L365.0 679.0"/>
    <path d="M362.0 667.0 L362.0 574.0"/>
    <path d="M362.0 565.0 L362.0 667.0"/>
    <path d="M323.0 679.0 L323.0 692.0"/>
    <path d="M405.0 573.0 L471.0 573.0"/>
    <path d="M471.0 573.0 L478.0 606.0"/>
    <path d="M478.0 606.0 L478.0 692.0"/>
    <path d="M478.0 692.0 L412.0 692.0"/>
    <path d="M412.0 692.0 L405.0 658.0"/>
    <path d="M405.0 658.0 L405.0 573.0"/>
    <path d="M405.0 573.0 L408.0 585.0"/>
    <path d="M408.0 585.0 L428.0 585.0"/>
    <path d="M428.0 585.0 L428.0 583.0"/>
    <path d="M428.0 583.0 L453.0 583.0"/>
    <path d="M453.0 583.0 L456.0 596.0"/>
    <path d="M456.0 596.0 L453.0 596.0"/>
    <path d="M453.0 596.0 L455.0 606.0"/>
    <path d="M455.0 606.0 L478.0 606.0"/>
    <path d="M455.0 606.0 L455.0 674.0"/>
    <path d="M455.0 674.0 L412.0 674.0"/>
    <path d="M412.0 674.0 L408.0 652.0"/>
    <path d="M408.0 652.0 L408.0 585.0"/>
    <path d="M428.0 585.0 L428.0 652.0"/>
    <path d="M428.0 652.0 L408.0 652.0"/>
    <path d="M428.0 652.0 L430.0 664.0"/>
    <path d="M430.0 664.0 L453.0 664.0"/>
    <path d="M453.0 664.0 L455.0 674.0"/>
    <path d="M453.0 664.0 L453.0 596.0"/>
    <path d="M453.0 583.0 L453.0 596.0"/>
    <path d="M412.0 674.0 L412.0 692.0"/>
    <path d="M494.0 557.0 L560.0 557.0"/>
    <path d="M560.0 557.0 L567.0 590.0"/>
    <path d="M567.0 590.0 L567.0 692.0"/>
    <path d="M567.0 692.0 L561.0 692.0"/>
    <path d="M500.0 687.0 L494.0 658.0"/>
    <path d="M494.0 658.0 L494.0 557.0"/>
    <path d="M494.0 557.0 L497.0 568.0"/>
    <path d="M497.0 568.0 L514.0 568.0"/>
    <path d="M514.0 568.0 L513.0 565.0"/>
    <path d="M513.0 565.0 L545.0 565.0"/>
    <path d="M545.0 565.0 L548.0 581.0"/>
    <path d="M548.0 581.0 L545.0 581.0"/>
    <path d="M545.0 581.0 L547.0 590.0"/>
    <path d="M547.0 590.0 L567.0 590.0"/>
    <path d="M547.0 590.0 L547.0 654.0"/>
    <path d="M547.0 654.0 L501.0 654.0"/>
    <path d="M501.0 654.0 L497.0 632.0"/>
    <path d="M497.0 632.0 L497.0 568.0"/>
    <path d="M514.0 568.0 L514.0 632.0"/>
    <path d="M514.0 632.0 L497.0 632.0"/>
    <path d="M514.0 632.0 L516.0 645.0"/>
    <path d="M516.0 645.0 L545.0 645.0"/>
    <path d="M545.0 645.0 L547.0 654.0"/>
    <path d="M545.0 645.0 L545.0 581.0"/>
    <path d="M545.0 565.0 L545.0 645.0"/>
    <path d="M501.0 654.0 L501.0 687.0"/>
    <path d="M583.0 559.0 L649.0 559.0"/>
    <path d="M649.0 559.0 L656.0 592.0"/>
    <path d="M656.0 592.0 L656.0 692.0"/>
    <path d="M656.0 692.0 L590.0 692.0"/>
    <path d="M590.0 692.0 L583.0 658.0"/>
    <path d="M583.0 658.0 L583.0 559.0"/>
    <path d="M583.0 559.0 L586.0 572.0"/>
    <path d="M586.0 572.0 L605.0 572.0"/>
    <path d="M605.0 572.0 L604.0 568.0"/>
    <path d="M604.0 568.0 L632.0 568.0"/>
    <path d="M632.0 568.0 L635.0 582.0"/>
    <path d="M635.0 582.0 L628.0 582.0"/>
    <path d="M628.0 582.0 L630.0 592.0"/>
    <path d="M630.0 592.0 L656.0 592.0"/>
    <path d="M630.0 592.0 L630.0 685.0"/>
    <path d="M630.0 685.0 L590.0 685.0"/>
    <path d="M590.0 685.0 L586.0 664.0"/>
    <path d="M586.0 664.0 L586.0 572.0"/>
    <path d="M605.0 572.0 L605.0 664.0"/>
    <path d="M605.0 664.0 L586.0 664.0"/>
    <path d="M605.0 664.0 L607.0 675.0"/>
    <path d="M607.0 675.0 L628.0 675.0"/>
    <path d="M628.0 675.0 L630.0 685.0"/>
    <path d="M628.0 675.0 L628.0 582.0"/>
    <path d="M632.0 570.0 L632.0 582.0"/>
    <path d="M606.0 668.0 L628.0 668.0"/>
    <path d="M590.0 685.0 L590.0 692.0"/>
    <path d="M672.0 568.0 L738.0 568.0"/>
    <path d="M738.0 568.0 L745.0 602.0"/>
    <path d="M745.0 602.0 L745.0 692.0"/>
    <path d="M745.0 692.0 L679.0 692.0"/>
    <path d="M679.0 692.0 L672.0 658.0"/>
    <path d="M672.0 658.0 L672.0 568.0"/>
    <path d="M672.0 568.0 L673.0 573.0"/>
    <path d="M673.0 573.0 L680.0 573.0"/>
    <path d="M680.0 573.0 L680.0 572.0"/>
    <path d="M680.0 572.0 L731.0 572.0"/>
    <path d="M731.0 572.0 L737.0 598.0"/>
    <path d="M737.0 598.0 L733.0 598.0"/>
    <path d="M733.0 598.0 L733.0 602.0"/>
    <path d="M733.0 602.0 L745.0 602.0"/>
    <path d="M733.0 602.0 L733.0 675.0"/>
    <path d="M733.0 675.0 L679.0 675.0"/>
    <path d="M679.0 675.0 L673.0 646.0"/>
    <path d="M673.0 646.0 L673.0 573.0"/>
    <path d="M680.0 573.0 L680.0 646.0"/>
    <path d="M680.0 646.0 L673.0 646.0"/>
    <path d="M680.0 646.0 L685.0 672.0"/>
    <path d="M685.0 672.0 L733.0 672.0"/>
    <path d="M733.0 672.0 L733.0 675.0"/>
    <path d="M733.0 672.0 L733.0 598.0"/>
    <path d="M731.0 572.0 L731.0 662.0"/>
    <path d="M683.0 662.0 L731.0 662.0"/>
    <path d="M733.0 669.0 L731.0 662.0"/>
    <path d="M679.0 675.0 L679.0 692.0"/>
    <path d="M761.0 577.0 L827.0 577.0"/>
    <path d="M827.0 577.0 L833.0 610.0"/>
    <path d="M833.0 610.0 L833.0 692.0"/>
    <path d="M833.0 692.0 L768.0 692.0"/>
    <path d="M768.0 692.0 L761.0 658.0"/>
    <path d="M761.0 658.0 L761.0 577.0"/>
    <path d="M761.0 577.0 L763.0 588.0"/>
    <path d="M763.0 588.0 L781.0 588.0"/>
    <path d="M781.0 588.0 L781.0 586.0"/>
    <path d="M781.0 586.0 L810.0 586.0"/>
    <path d="M810.0 586.0 L813.0 601.0"/>
    <path d="M813.0 601.0 L812.0 601.0"/>
    <path d="M812.0 601.0 L813.0 610.0"/>
    <path d="M813.0 610.0 L833.0 610.0"/>
    <path d="M813.0 610.0 L813.0 690.0"/>
    <path d="M813.0 690.0 L768.0 690.0"/>
    <path d="M768.0 690.0 L763.0 667.0"/>
    <path d="M763.0 667.0 L763.0 588.0"/>
    <path d="M781.0 588.0 L781.0 667.0"/>
    <path d="M781.0 667.0 L763.0 667.0"/>
    <path d="M781.0 667.0 L784.0 681.0"/>
    <path d="M784.0 681.0 L812.0 681.0"/>
    <path d="M812.0 681.0 L813.0 690.0"/>
    <path d="M812.0 681.0 L812.0 601.0"/>
    <path d="M810.0 586.0 L810.0 668.0"/>
    <path d="M781.0 668.0 L810.0 668.0"/>
    <path d="M812.0 674.0 L810.0 668.0"/>
    <path d="M768.0 690.0 L768.0 692.0"/>
    <path d="M850.0 564.0 L916.0 564.0"/>
    <path d="M916.0 564.0 L922.0 598.0"/>
    <path d="M922.0 598.0 L922.0 692.0"/>
    <path d="M922.0 692.0 L856.0 692.0"/>
    <path d="M856.0 692.0 L850.0 658.0"/>
    <path d="M850.0 658.0 L850.0 564.0"/>
    <path d="M850.0 564.0 L852.0 578.0"/>
    <path d="M852.0 578.0 L873.0 578.0"/>
    <path d="M873.0 578.0 L873.0 575.0"/>
    <path d="M873.0 575.0 L897.0 575.0"/>
    <path d="M897.0 575.0 L899.0 587.0"/>
    <path d="M899.0 587.0 L893.0 587.0"/>
    <path d="M893.0 587.0 L895.0 598.0"/>
    <path d="M895.0 598.0 L922.0 598.0"/>
    <path d="M895.0 598.0 L895.0 674.0"/>
    <path d="M895.0 674.0 L856.0 674.0"/>
    <path d="M856.0 674.0 L852.0 654.0"/>
    <path d="M852.0 654.0 L852.0 578.0"/>
    <path d="M873.0 578.0 L873.0 654.0"/>
    <path d="M873.0 654.0 L852.0 654.0"/>
    <path d="M873.0 654.0 L875.0 664.0"/>
    <path d="M875.0 664.0 L893.0 664.0"/>
    <path d="M893.0 664.0 L895.0 674.0"/>
    <path d="M893.0 664.0 L893.0 587.0"/>
    <path d="M897.0 575.0 L897.0 587.0"/>
    <path d="M856.0 674.0 L856.0 692.0"/>
    <path d="M939.0 585.0 L1004.0 585.0"/>
    <path d="M1004.0 585.0 L1011.0 619.0"/>
    <path d="M1011.0 619.0 L1011.0 692.0"/>
    <path d="M1011.0 692.0 L945.0 692.0"/>
    <path d="M945.0 692.0 L939.0 658.0"/>
    <path d="M939.0 658.0 L939.0 585.0"/>
    <path d="M939.0 585.0 L941.0 596.0"/>
    <path d="M941.0 596.0 L959.0 596.0"/>
    <path d="M959.0 596.0 L959.0 595.0"/>
    <path d="M959.0 595.0 L988.0 595.0"/>
    <path d="M988.0 595.0 L991.0 610.0"/>
    <path d="M991.0 610.0 L980.0 610.0"/>
    <path d="M980.0 610.0 L982.0 619.0"/>
    <path d="M982.0 619.0 L1011.0 619.0"/>
    <path d="M982.0 619.0 L982.0 681.0"/>
    <path d="M982.0 681.0 L945.0 681.0"/>
    <path d="M945.0 681.0 L941.0 659.0"/>
    <path d="M941.0 659.0 L941.0 596.0"/>
    <path d="M959.0 596.0 L959.0 659.0"/>
    <path d="M959.0 659.0 L941.0 659.0"/>
    <path d="M959.0 659.0 L962.0 672.0"/>
    <path d="M962.0 672.0 L980.0 672.0"/>
    <path d="M980.0 672.0 L982.0 681.0"/>
    <path d="M980.0 672.0 L980.0 610.0"/>
    <path d="M988.0 595.0 L988.0 610.0"/>
    <path d="M961.0 668.0 L980.0 668.0"/>
    <path d="M945.0 681.0 L945.0 692.0"/>
    <path d="M1027.0 556.0 L1093.0 556.0"/>
    <path d="M1093.0 556.0 L1100.0 590.0"/>
    <path d="M1100.0 590.0 L1100.0 692.0"/>
    <path d="M1100.0 692.0 L1094.0 692.0"/>
    <path d="M1034.0 691.0 L1027.0 658.0"/>
    <path d="M1027.0 658.0 L1027.0 556.0"/>
    <path d="M1027.0 556.0 L1030.0 567.0"/>
    <path d="M1030.0 567.0 L1050.0 567.0"/>
    <path d="M1050.0 567.0 L1050.0 566.0"/>
    <path d="M1050.0 566.0 L1075.0 566.0"/>
    <path d="M1075.0 566.0 L1078.0 579.0"/>
    <path d="M1078.0 579.0 L1070.0 579.0"/>
    <path d="M1070.0 579.0 L1072.0 590.0"/>
    <path d="M1072.0 590.0 L1100.0 590.0"/>
    <path d="M1072.0 590.0 L1072.0 655.0"/>
    <path d="M1072.0 655.0 L1034.0 655.0"/>
    <path d="M1034.0 655.0 L1030.0 632.0"/>
    <path d="M1030.0 632.0 L1030.0 567.0"/>
    <path d="M1050.0 567.0 L1050.0 632.0"/>
    <path d="M1050.0 632.0 L1030.0 632.0"/>
    <path d="M1050.0 632.0 L1052.0 644.0"/>
    <path d="M1052.0 644.0 L1070.0 644.0"/>
    <path d="M1070.0 644.0 L1072.0 655.0"/>
    <path d="M1070.0 644.0 L1070.0 579.0"/>
    <path d="M1075.0 566.0 L1075.0 579.0"/>
    <path d="M1034.0 655.0 L1034.0 691.0"/>
    <path d="M50.0 425.0 L116.0 425.0"/>
    <path d="M116.0 425.0 L123.0 458.0"/>
    <path d="M123.0 458.0 L123.0 564.0"/>
    <path d="M123.0 564.0 L118.0 564.0"/>
    <path d="M55.0 555.0 L50.0 530.0"/>
    <path d="M50.0 530.0 L50.0 425.0"/>
    <path d="M50.0 425.0 L51.0 431.0"/>
    <path d="M51.0 431.0 L59.0 431.0"/>
    <path d="M59.0 431.0 L59.0 429.0"/>
    <path d="M59.0 429.0 L109.0 429.0"/>
    <path d="M109.0 429.0 L114.0 454.0"/>
    <path d="M114.0 454.0 L110.0 454.0"/>
    <path d="M110.0 454.0 L110.0 458.0"/>
    <path d="M110.0 458.0 L123.0 458.0"/>
    <path d="M110.0 458.0 L110.0 528.0"/>
    <path d="M110.0 528.0 L57.0 528.0"/>
    <path d="M57.0 528.0 L51.0 500.0"/>
    <path d="M51.0 500.0 L51.0 431.0"/>
    <path d="M59.0 431.0 L59.0 500.0"/>
    <path d="M59.0 500.0 L51.0 500.0"/>
    <path d="M59.0 500.0 L64.0 524.0"/>
    <path d="M64.0 524.0 L110.0 524.0"/>
    <path d="M110.0 524.0 L110.0 528.0"/>
    <path d="M110.0 524.0 L110.0 454.0"/>
    <path d="M109.0 429.0 L109.0 524.0"/>
    <path d="M57.0 528.0 L57.0 555.0"/>
    <path d="M139.0 423.0 L205.0 423.0"/>
    <path d="M205.0 423.0 L211.0 457.0"/>
    <path d="M211.0 457.0 L211.0 564.0"/>
    <path d="M211.0 564.0 L207.0 564.0"/>
    <path d="M143.0 550.0 L139.0 530.0"/>
    <path d="M139.0 530.0 L139.0 423.0"/>
    <path d="M139.0 423.0 L140.0 428.0"/>
    <path d="M140.0 428.0 L145.0 428.0"/>
    <path d="M145.0 428.0 L144.0 426.0"/>
    <path d="M144.0 426.0 L200.0 426.0"/>
    <path d="M200.0 426.0 L206.0 454.0"/>
    <path d="M206.0 454.0 L194.0 454.0"/>
    <path d="M194.0 454.0 L194.0 457.0"/>
    <path d="M194.0 457.0 L211.0 457.0"/>
    <path d="M194.0 457.0 L194.0 550.0"/>
    <path d="M145.0 550.0 L140.0 525.0"/>
    <path d="M140.0 525.0 L140.0 428.0"/>
    <path d="M145.0 428.0 L145.0 525.0"/>
    <path d="M145.0 525.0 L140.0 525.0"/>
    <path d="M145.0 525.0 L150.0 550.0"/>
    <path d="M194.0 550.0 L194.0 454.0"/>
    <path d="M200.0 426.0 L200.0 454.0"/>
    <path d="M146.0 533.0 L194.0 533.0"/>
    <path d="M228.0 455.0 L294.0 455.0"/>
    <path d="M294.0 455.0 L300.0 489.0"/>
    <path d="M300.0 489.0 L300.0 564.0"/>
    <path d="M300.0 564.0 L234.0 564.0"/>
    <path d="M234.0 564.0 L228.0 530.0"/>
    <path d="M228.0 530.0 L228.0 455.0"/>
    <path d="M228.0 455.0 L231.0 469.0"/>
    <path d="M231.0 469.0 L256.0 469.0"/>
    <path d="M256.0 469.0 L256.0 468.0"/>
    <path d="M256.0 468.0 L271.0 468.0"/>
    <path d="M271.0 468.0 L272.0 476.0"/>
    <path d="M272.0 476.0 L266.0 476.0"/>
    <path d="M266.0 476.0 L268.0 489.0"/>
    <path d="M268.0 489.0 L300.0 489.0"/>
    <path d="M268.0 489.0 L268.0 535.0"/>
    <path d="M268.0 535.0 L234.0 535.0"/>
    <path d="M234.0 535.0 L231.0 516.0"/>
    <path d="M231.0 516.0 L231.0 469.0"/>
    <path d="M256.0 469.0 L256.0 516.0"/>
    <path d="M256.0 516.0 L231.0 516.0"/>
    <path d="M256.0 516.0 L257.0 522.0"/>
    <path d="M257.0 522.0 L266.0 522.0"/>
    <path d="M266.0 522.0 L268.0 535.0"/>
    <path d="M266.0 522.0 L266.0 476.0"/>
    <path d="M271.0 469.0 L271.0 476.0"/>
    <path d="M234.0 535.0 L234.0 564.0"/>
    <path d="M317.0 427.0 L382.0 427.0"/>
    <path d="M382.0 427.0 L389.0 460.0"/>
    <path d="M389.0 460.0 L389.0 564.0"/>
    <path d="M389.0 564.0 L385.0 564.0"/>
    <path d="M321.0 552.0 L317.0 530.0"/>
    <path d="M317.0 530.0 L317.0 427.0"/>
    <path d="M317.0 427.0 L319.0 439.0"/>
    <path d="M319.0 439.0 L336.0 439.0"/>
    <path d="M336.0 439.0 L336.0 436.0"/>
    <path d="M336.0 436.0 L367.0 436.0"/>
    <path d="M367.0 436.0 L370.0 452.0"/>
    <path d="M370.0 452.0 L366.0 452.0"/>
    <path d="M366.0 452.0 L368.0 460.0"/>
    <path d="M368.0 460.0 L389.0 460.0"/>
    <path d="M368.0 460.0 L368.0 549.0"/>
    <path d="M368.0 549.0 L323.0 549.0"/>
    <path d="M323.0 549.0 L319.0 528.0"/>
    <path d="M319.0 528.0 L319.0 439.0"/>
    <path d="M336.0 439.0 L336.0 528.0"/>
    <path d="M336.0 528.0 L319.0 528.0"/>
    <path d="M336.0 528.0 L339.0 540.0"/>
    <path d="M339.0 540.0 L366.0 540.0"/>
    <path d="M366.0 540.0 L368.0 549.0"/>
    <path d="M366.0 540.0 L366.0 452.0"/>
    <path d="M367.0 436.0 L367.0 452.0"/>
    <path d="M339.0 539.0 L366.0 539.0"/>
    <path d="M323.0 549.0 L323.0 552.0"/>
    <path d="M405.0 439.0 L471.0 439.0"/>
    <path d="M471.0 439.0 L478.0 472.0"/>
    <path d="M478.0 472.0 L478.0 564.0"/>
    <path d="M478.0 564.0 L412.0 564.0"/>
    <path d="M412.0 564.0 L405.0 530.0"/>
    <path d="M405.0 530.0 L405.0 439.0"/>
    <path d="M405.0 439.0 L407.0 449.0"/>
    <path d="M407.0 449.0 L424.0 449.0"/>
    <path d="M424.0 449.0 L424.0 447.0"/>
    <path d="M424.0 447.0 L456.0 447.0"/>
    <path d="M456.0 447.0 L460.0 464.0"/>
    <path d="M460.0 464.0 L453.0 464.0"/>
    <path d="M453.0 464.0 L454.0 472.0"/>
    <path d="M454.0 472.0 L478.0 472.0"/>
    <path d="M454.0 472.0 L454.0 557.0"/>
    <path d="M454.0 557.0 L412.0 557.0"/>
    <path d="M412.0 557.0 L407.0 534.0"/>
    <path d="M407.0 534.0 L407.0 449.0"/>
    <path d="M424.0 449.0 L424.0 534.0"/>
    <path d="M424.0 534.0 L407.0 534.0"/>
    <path d="M424.0 534.0 L427.0 549.0"/>
    <path d="M427.0 549.0 L453.0 549.0"/>
    <path d="M453.0 549.0 L454.0 557.0"/>
    <path d="M453.0 549.0 L453.0 464.0"/>
    <path d="M456.0 447.0 L456.0 464.0"/>
    <path d="M425.0 539.0 L453.0 539.0"/>
    <path d="M412.0 557.0 L412.0 564.0"/>
    <path d="M494.0 424.0 L560.0 424.0"/>
    <path d="M560.0 424.0 L567.0 457.0"/>
    <path d="M567.0 457.0 L567.0 564.0"/>
    <path d="M567.0 564.0 L562.0 564.0"/>
    <path d="M500.0 557.0 L494.0 530.0"/>
    <path d="M494.0 530.0 L494.0 424.0"/>
    <path d="M494.0 424.0 L497.0 438.0"/>
    <path d="M497.0 438.0 L520.0 438.0"/>
    <path d="M520.0 438.0 L520.0 435.0"/>
    <path d="M520.0 435.0 L539.0 435.0"/>
    <path d="M539.0 435.0 L541.0 446.0"/>
    <path d="M541.0 446.0 L538.0 446.0"/>
    <path d="M538.0 446.0 L540.0 457.0"/>
    <path d="M540.0 457.0 L567.0 457.0"/>
    <path d="M540.0 457.0 L540.0 540.0"/>
    <path d="M540.0 540.0 L501.0 540.0"/>
    <path d="M501.0 540.0 L497.0 521.0"/>
    <path d="M497.0 521.0 L497.0 438.0"/>
    <path d="M520.0 438.0 L520.0 521.0"/>
    <path d="M520.0 521.0 L497.0 521.0"/>
    <path d="M520.0 521.0 L522.0 528.0"/>
    <path d="M522.0 528.0 L538.0 528.0"/>
    <path d="M538.0 528.0 L540.0 540.0"/>
    <path d="M538.0 528.0 L538.0 446.0"/>
    <path d="M539.0 435.0 L539.0 446.0"/>
    <path d="M501.0 540.0 L501.0 557.0"/>
    <path d="M583.0 428.0 L649.0 428.0"/>
    <path d="M649.0 428.0 L656.0 462.0"/>
    <path d="M656.0 462.0 L656.0 564.0"/>
    <path d="M656.0 564.0 L650.0 564.0"/>
    <path d="M589.0 559.0 L583.0 530.0"/>
    <path d="M583.0 530.0 L583.0 428.0"/>
    <path d="M583.0 428.0 L586.0 443.0"/>
    <path d="M586.0 443.0 L612.0 443.0"/>
    <path d="M612.0 443.0 L612.0 442.0"/>
    <path d="M612.0 442.0 L626.0 442.0"/>
    <path d="M626.0 442.0 L627.0 449.0"/>
    <path d="M627.0 449.0 L623.0 449.0"/>
    <path d="M623.0 449.0 L625.0 462.0"/>
    <path d="M625.0 462.0 L656.0 462.0"/>
    <path d="M625.0 462.0 L625.0 526.0"/>
    <path d="M625.0 526.0 L590.0 526.0"/>
    <path d="M590.0 526.0 L586.0 507.0"/>
    <path d="M586.0 507.0 L586.0 443.0"/>
    <path d="M612.0 443.0 L612.0 507.0"/>
    <path d="M612.0 507.0 L586.0 507.0"/>
    <path d="M612.0 507.0 L613.0 513.0"/>
    <path d="M613.0 513.0 L623.0 513.0"/>
    <path d="M623.0 513.0 L625.0 526.0"/>
    <path d="M623.0 513.0 L623.0 449.0"/>
    <path d="M626.0 442.0 L626.0 449.0"/>
    <path d="M590.0 526.0 L590.0 559.0"/>
    <path d="M672.0 422.0 L738.0 422.0"/>
    <path d="M738.0 422.0 L745.0 456.0"/>
    <path d="M745.0 456.0 L745.0 564.0"/>
    <path d="M745.0 564.0 L679.0 564.0"/>
    <path d="M679.0 564.0 L672.0 530.0"/>
    <path d="M672.0 530.0 L672.0 422.0"/>
    <path d="M672.0 422.0 L675.0 438.0"/>
    <path d="M675.0 438.0 L700.0 438.0"/>
    <path d="M700.0 438.0 L699.0 435.0"/>
    <path d="M699.0 435.0 L716.0 435.0"/>
    <path d="M716.0 435.0 L718.0 443.0"/>
    <path d="M718.0 443.0 L706.0 443.0"/>
    <path d="M706.0 443.0 L708.0 456.0"/>
    <path d="M708.0 456.0 L745.0 456.0"/>
    <path d="M708.0 456.0 L708.0 558.0"/>
    <path d="M708.0 558.0 L679.0 558.0"/>
    <path d="M679.0 558.0 L675.0 540.0"/>
    <path d="M675.0 540.0 L675.0 438.0"/>
    <path d="M700.0 438.0 L700.0 540.0"/>
    <path d="M700.0 540.0 L675.0 540.0"/>
    <path d="M700.0 540.0 L701.0 545.0"/>
    <path d="M701.0 545.0 L706.0 545.0"/>
    <path d="M706.0 545.0 L708.0 558.0"/>
    <path d="M706.0 545.0 L706.0 443.0"/>
    <path d="M716.0 436.0 L716.0 443.0"/>
    <path d="M700.0 543.0 L706.0 543.0"/>
    <path d="M679.0 558.0 L679.0 564.0"/>
    <path d="M761.0 447.0 L827.0 447.0"/>
    <path d="M827.0 447.0 L833.0 481.0"/>
    <path d="M833.0 481.0 L833.0 564.0"/>
    <path d="M833.0 564.0 L768.0 564.0"/>
    <path d="M768.0 564.0 L761.0 530.0"/>
    <path d="M761.0 530.0 L761.0 447.0"/>
    <path d="M761.0 447.0 L762.0 455.0"/>
    <path d="M762.0 455.0 L773.0 455.0"/>
    <path d="M773.0 455.0 L772.0 452.0"/>
    <path d="M772.0 452.0 L818.0 452.0"/>
    <path d="M818.0 452.0 L822.0 475.0"/>
    <path d="M822.0 475.0 L820.0 475.0"/>
    <path d="M820.0 475.0 L821.0 481.0"/>
    <path d="M821.0 481.0 L833.0 481.0"/>
    <path d="M821.0 481.0 L821.0 535.0"/>
    <path d="M821.0 535.0 L768.0 535.0"/>
    <path d="M768.0 535.0 L762.0 509.0"/>
    <path d="M762.0 509.0 L762.0 455.0"/>
    <path d="M773.0 455.0 L773.0 509.0"/>
    <path d="M773.0 509.0 L762.0 509.0"/>
    <path d="M773.0 509.0 L777.0 529.0"/>
    <path d="M777.0 529.0 L820.0 529.0"/>
    <path d="M820.0 529.0 L821.0 535.0"/>
    <path d="M820.0 529.0 L820.0 475.0"/>
    <path d="M818.0 454.0 L818.0 529.0"/>
    <path d="M768.0 535.0 L768.0 564.0"/>
    <path d="M850.0 446.0 L916.0 446.0"/>
    <path d="M916.0 446.0 L922.0 480.0"/>
    <path d="M922.0 480.0 L922.0 564.0"/>
    <path d="M922.0 564.0 L856.0 564.0"/>
    <path d="M856.0 564.0 L850.0 530.0"/>
    <path d="M850.0 530.0 L850.0 446.0"/>
    <path d="M850.0 446.0 L851.0 450.0"/>
    <path d="M851.0 450.0 L855.0 450.0"/>
    <path d="M855.0 450.0 L854.0 448.0"/>
    <path d="M854.0 448.0 L912.0 448.0"/>
    <path d="M912.0 448.0 L918.0 477.0"/>
    <path d="M918.0 477.0 L906.0 477.0"/>
    <path d="M906.0 477.0 L906.0 480.0"/>
    <path d="M906.0 480.0 L922.0 480.0"/>
    <path d="M906.0 480.0 L906.0 553.0"/>
    <path d="M906.0 553.0 L856.0 553.0"/>
    <path d="M856.0 553.0 L851.0 524.0"/>
    <path d="M851.0 524.0 L851.0 450.0"/>
    <path d="M855.0 450.0 L855.0 524.0"/>
    <path d="M855.0 524.0 L851.0 524.0"/>
    <path d="M855.0 524.0 L860.0 551.0"/>
    <path d="M860.0 551.0 L906.0 551.0"/>
    <path d="M906.0 551.0 L906.0 553.0"/>
    <path d="M906.0 551.0 L906.0 477.0"/>
    <path d="M912.0 449.0 L912.0 477.0"/>
    <path d="M856.0 532.0 L906.0 532.0"/>
    <path d="M856.0 553.0 L856.0 564.0"/>
    <path d="M939.0 455.0 L1004.0 455.0"/>
    <path d="M1004.0 455.0 L1011.0 489.0"/>
    <path d="M1011.0 489.0 L1011.0 564.0"/>
    <path d="M1011.0 564.0 L945.0 564.0"/>
    <path d="M945.0 564.0 L939.0 530.0"/>
    <path d="M939.0 530.0 L939.0 455.0"/>
    <path d="M939.0 455.0 L941.0 468.0"/>
    <path d="M941.0 468.0 L962.0 468.0"/>
    <path d="M962.0 468.0 L962.0 466.0"/>
    <path d="M962.0 466.0 L986.0 466.0"/>
    <path d="M986.0 466.0 L988.0 478.0"/>
    <path d="M988.0 478.0 L983.0 478.0"/>
    <path d="M983.0 478.0 L985.0 489.0"/>
    <path d="M985.0 489.0 L1011.0 489.0"/>
    <path d="M985.0 489.0 L985.0 547.0"/>
    <path d="M985.0 547.0 L945.0 547.0"/>
    <path d="M945.0 547.0 L941.0 526.0"/>
    <path d="M941.0 526.0 L941.0 468.0"/>
    <path d="M962.0 468.0 L962.0 526.0"/>
    <path d="M962.0 526.0 L941.0 526.0"/>
    <path d="M962.0 526.0 L964.0 536.0"/>
    <path d="M964.0 536.0 L983.0 536.0"/>
    <path d="M983.0 536.0 L985.0 547.0"/>
    <path d="M983.0 536.0 L983.0 478.0"/>
    <path d="M986.0 468.0 L986.0 478.0"/>
    <path d="M945.0 547.0 L945.0 564.0"/>
    <path d="M1027.0 454.0 L1093.0 454.0"/>
    <path d="M1093.0 454.0 L1100.0 488.0"/>
    <path d="M1100.0 488.0 L1100.0 564.0"/>
    <path d="M1100.0 564.0 L1095.0 564.0"/>
    <path d="M1033.0 556.0 L1027.0 530.0"/>
    <path d="M1027.0 530.0 L1027.0 454.0"/>
    <path d="M1027.0 454.0 L1030.0 467.0"/>
    <path d="M1030.0 467.0 L1051.0 467.0"/>
    <path d="M1051.0 467.0 L1051.0 465.0"/>
    <path d="M1051.0 465.0 L1074.0 465.0"/>
    <path d="M1074.0 465.0 L1076.0 477.0"/>
    <path d="M1076.0 477.0 L1076.0 477.0"/>
    <path d="M1076.0 477.0 L1078.0 488.0"/>
    <path d="M1078.0 488.0 L1100.0 488.0"/>
    <path d="M1078.0 488.0 L1078.0 556.0"/>
    <path d="M1078.0 556.0 L1034.0 556.0"/>
    <path d="M1034.0 556.0 L1030.0 535.0"/>
    <path d="M1030.0 535.0 L1030.0 467.0"/>
    <path d="M1051.0 467.0 L1051.0 535.0"/>
    <path d="M1051.0 535.0 L1030.0 535.0"/>
    <path d="M1051.0 535.0 L1053.0 545.0"/>
    <path d="M1053.0 545.0 L1076.0 545.0"/>
    <path d="M1076.0 545.0 L1078.0 556.0"/>
    <path d="M1076.0 545.0 L1076.0 477.0"/>
    <path d="M1074.0 465.0 L1074.0 541.0"/>
    <path d="M1053.0 541.0 L1074.0 541.0"/>
    <path d="M1075.0 545.0 L1074.0 541.0"/>
    <path d="M1034.0 556.0 L1034.0 556.0"/>
    <path d="M50.0 324.0 L116.0 324.0"/>
    <path d="M116.0 324.0 L123.0 357.0"/>
    <path d="M123.0 357.0 L123.0 436.0"/>
    <path d="M123.0 436.0 L118.0 436.0"/>
    <path d="M55.0 425.0 L50.0 402.0"/>
    <path d="M50.0 402.0 L50.0 324.0"/>
    <path d="M50.0 324.0 L51.0 329.0"/>
    <path d="M51.0 329.0 L54.0 329.0"/>
    <path d="M54.0 329.0 L54.0 326.0"/>
    <path d="M54.0 326.0 L113.0 326.0"/>
    <path d="M113.0 326.0 L119.0 356.0"/>
    <path d="M119.0 356.0 L118.0 356.0"/>
    <path d="M118.0 356.0 L118.0 357.0"/>
    <path d="M118.0 357.0 L123.0 357.0"/>
    <path d="M118.0 357.0 L118.0 412.0"/>
    <path d="M118.0 412.0 L57.0 412.0"/>
    <path d="M57.0 412.0 L51.0 384.0"/>
    <path d="M51.0 384.0 L51.0 329.0"/>
    <path d="M54.0 329.0 L54.0 384.0"/>
    <path d="M54.0 384.0 L51.0 384.0"/>
    <path d="M54.0 384.0 L60.0 410.0"/>
    <path d="M60.0 410.0 L118.0 410.0"/>
    <path d="M118.0 410.0 L118.0 412.0"/>
    <path d="M118.0 410.0 L118.0 356.0"/>
    <path d="M113.0 326.0 L113.0 404.0"/>
    <path d="M58.0 404.0 L113.0 404.0"/>
    <path d="M114.0 410.0 L113.0 404.0"/>
    <path d="M57.0 412.0 L57.0 425.0"/>
    <path d="M139.0 298.0 L205.0 298.0"/>
    <path d="M205.0 298.0 L211.0 332.0"/>
    <path d="M211.0 332.0 L211.0 436.0"/>
    <path d="M211.0 436.0 L207.0 436.0"/>
    <path d="M143.0 423.0 L139.0 402.0"/>
    <path d="M139.0 402.0 L139.0 298.0"/>
    <path d="M139.0 298.0 L141.0 310.0"/>
    <path d="M141.0 310.0 L162.0 310.0"/>
    <path d="M162.0 310.0 L162.0 309.0"/>
    <path d="M162.0 309.0 L186.0 309.0"/>
    <path d="M186.0 309.0 L189.0 321.0"/>
    <path d="M189.0 321.0 L178.0 321.0"/>
    <path d="M178.0 321.0 L180.0 332.0"/>
    <path d="M180.0 332.0 L211.0 332.0"/>
    <path d="M180.0 332.0 L180.0 403.0"/>
    <path d="M180.0 403.0 L146.0 403.0"/>
    <path d="M146.0 403.0 L141.0 382.0"/>
    <path d="M141.0 382.0 L141.0 310.0"/>
    <path d="M162.0 310.0 L162.0 382.0"/>
    <path d="M162.0 382.0 L141.0 382.0"/>
    <path d="M162.0 382.0 L164.0 393.0"/>
    <path d="M164.0 393.0 L178.0 393.0"/>
    <path d="M178.0 393.0 L180.0 403.0"/>
    <path d="M178.0 393.0 L178.0 321.0"/>
    <path d="M186.0 309.0 L186.0 321.0"/>
    <path d="M146.0 403.0 L146.0 423.0"/>
    <path d="M228.0 330.0 L294.0 330.0"/>
    <path d="M294.0 330.0 L300.0 364.0"/>
    <path d="M300.0 364.0 L300.0 436.0"/>
    <path d="M300.0 436.0 L234.0 436.0"/>
    <path d="M234.0 436.0 L228.0 402.0"/>
    <path d="M228.0 402.0 L228.0 330.0"/>
    <path d="M228.0 330.0 L229.0 335.0"/>
    <path d="M229.0 335.0 L235.0 335.0"/>
    <path d="M235.0 335.0 L234.0 333.0"/>
    <path d="M234.0 333.0 L288.0 333.0"/>
    <path d="M288.0 333.0 L294.0 361.0"/>
    <path d="M294.0 361.0 L281.0 361.0"/>
    <path d="M281.0 361.0 L281.0 364.0"/>
    <path d="M281.0 364.0 L300.0 364.0"/>
    <path d="M281.0 364.0 L281.0 431.0"/>
    <path d="M281.0 431.0 L234.0 431.0"/>
    <path d="M234.0 431.0 L229.0 403.0"/>
    <path d="M229.0 403.0 L229.0 335.0"/>
    <path d="M235.0 335.0 L235.0 403.0"/>
    <path d="M235.0 403.0 L229.0 403.0"/>
    <path d="M235.0 403.0 L240.0 428.0"/>
    <path d="M240.0 428.0 L281.0 428.0"/>
    <path d="M281.0 428.0 L281.0 431.0"/>
    <path d="M281.0 428.0 L281.0 361.0"/>
    <path d="M288.0 333.0 L288.0 361.0"/>
    <path d="M235.0 405.0 L281.0 405.0"/>
    <path d="M234.0 431.0 L234.0 436.0"/>
    <path d="M317.0 295.0 L382.0 295.0"/>
    <path d="M382.0 295.0 L389.0 329.0"/>
    <path d="M389.0 329.0 L389.0 435.0"/>
    <path d="M389.0 435.0 L384.0 435.0"/>
    <path d="M322.0 427.0 L317.0 402.0"/>
    <path d="M317.0 402.0 L317.0 295.0"/>
    <path d="M317.0 295.0 L318.0 303.0"/>
    <path d="M318.0 303.0 L330.0 303.0"/>
    <path d="M330.0 303.0 L330.0 301.0"/>
    <path d="M330.0 301.0 L372.0 301.0"/>
    <path d="M372.0 301.0 L376.0 323.0"/>
    <path d="M376.0 323.0 L367.0 323.0"/>
    <path d="M367.0 323.0 L368.0 329.0"/>
    <path d="M368.0 329.0 L389.0 329.0"/>
    <path d="M368.0 329.0 L368.0 411.0"/>
    <path d="M368.0 411.0 L323.0 411.0"/>
    <path d="M323.0 411.0 L318.0 385.0"/>
    <path d="M318.0 385.0 L318.0 303.0"/>
    <path d="M330.0 303.0 L330.0 385.0"/>
    <path d="M330.0 385.0 L318.0 385.0"/>
    <path d="M330.0 385.0 L334.0 405.0"/>
    <path d="M334.0 405.0 L367.0 405.0"/>
    <path d="M367.0 405.0 L368.0 411.0"/>
    <path d="M367.0 405.0 L367.0 323.0"/>
    <path d="M372.0 301.0 L372.0 323.0"/>
    <path d="M323.0 411.0 L323.0 427.0"/>
    <path d="M405.0 310.0 L471.0 310.0"/>
    <path d="M471.0 310.0 L478.0 344.0"/>
    <path d="M478.0 344.0 L478.0 436.0"/>
    <path d="M478.0 436.0 L412.0 436.0"/>
    <path d="M412.0 436.0 L405.0 402.0"/>
    <path d="M405.0 402.0 L405.0 310.0"/>
    <path d="M405.0 310.0 L407.0 320.0"/>
    <path d="M407.0 320.0 L422.0 320.0"/>
    <path d="M422.0 320.0 L422.0 318.0"/>
    <path d="M422.0 318.0 L458.0 318.0"/>
    <path d="M458.0 318.0 L461.0 336.0"/>
    <path d="M461.0 336.0 L457.0 336.0"/>
    <path d="M457.0 336.0 L458.0 344.0"/>
    <path d="M458.0 344.0 L478.0 344.0"/>
    <path d="M458.0 344.0 L458.0 426.0"/>
    <path d="M458.0 426.0 L412.0 426.0"/>
    <path d="M412.0 426.0 L407.0 402.0"/>
    <path d="M407.0 402.0 L407.0 320.0"/>
    <path d="M422.0 320.0 L422.0 402.0"/>
    <path d="M422.0 402.0 L407.0 402.0"/>
    <path d="M422.0 402.0 L426.0 418.0"/>
    <path d="M426.0 418.0 L457.0 418.0"/>
    <path d="M457.0 418.0 L458.0 426.0"/>
    <path d="M457.0 418.0 L457.0 336.0"/>
    <path d="M458.0 319.0 L458.0 336.0"/>
    <path d="M424.0 410.0 L457.0 410.0"/>
    <path d="M412.0 426.0 L412.0 436.0"/>
    <path d="M494.0 306.0 L560.0 306.0"/>
    <path d="M560.0 306.0 L567.0 339.0"/>
    <path d="M567.0 339.0 L567.0 435.0"/>
    <path d="M567.0 435.0 L563.0 435.0"/>
    <path d="M499.0 424.0 L494.0 402.0"/>
    <path d="M494.0 402.0 L494.0 306.0"/>
    <path d="M494.0 306.0 L496.0 312.0"/>
    <path d="M496.0 312.0 L507.0 312.0"/>
    <path d="M507.0 312.0 L507.0 312.0"/>
    <path d="M507.0 312.0 L549.0 312.0"/>
    <path d="M549.0 312.0 L554.0 333.0"/>
    <path d="M554.0 333.0 L549.0 333.0"/>
    <path d="M549.0 333.0 L550.0 339.0"/>
    <path d="M550.0 339.0 L567.0 339.0"/>
    <path d="M550.0 339.0 L550.0 424.0"/>
    <path d="M499.0 424.0 L496.0 407.0"/>
    <path d="M496.0 407.0 L496.0 312.0"/>
    <path d="M507.0 312.0 L507.0 407.0"/>
    <path d="M507.0 407.0 L496.0 407.0"/>
    <path d="M507.0 407.0 L511.0 424.0"/>
    <path d="M549.0 424.0 L549.0 333.0"/>
    <path d="M549.0 312.0 L549.0 333.0"/>
    <path d="M508.0 408.0 L549.0 408.0"/>
    <path d="M583.0 323.0 L649.0 323.0"/>
    <path d="M649.0 323.0 L656.0 356.0"/>
    <path d="M656.0 356.0 L656.0 435.0"/>
    <path d="M656.0 435.0 L650.0 435.0"/>
    <path d="M588.0 428.0 L583.0 402.0"/>
    <path d="M583.0 402.0 L583.0 323.0"/>
    <path d="M583.0 323.0 L585.0 330.0"/>
    <path d="M585.0 330.0 L593.0 330.0"/>
    <path d="M593.0 330.0 L593.0 327.0"/>
    <path d="M593.0 327.0 L641.0 327.0"/>
    <path d="M641.0 327.0 L646.0 352.0"/>
    <path d="M646.0 352.0 L643.0 352.0"/>
    <path d="M643.0 352.0 L644.0 356.0"/>
    <path d="M644.0 356.0 L656.0 356.0"/>
    <path d="M644.0 356.0 L644.0 423.0"/>
    <path d="M644.0 423.0 L590.0 423.0"/>
    <path d="M590.0 423.0 L585.0 397.0"/>
    <path d="M585.0 397.0 L585.0 330.0"/>
    <path d="M593.0 330.0 L593.0 397.0"/>
    <path d="M593.0 397.0 L585.0 397.0"/>
    <path d="M593.0 397.0 L598.0 418.0"/>
    <path d="M598.0 418.0 L643.0 418.0"/>
    <path d="M643.0 418.0 L644.0 423.0"/>
    <path d="M643.0 418.0 L643.0 352.0"/>
    <path d="M641.0 327.0 L641.0 406.0"/>
    <path d="M595.0 406.0 L641.0 406.0"/>
    <path d="M643.0 414.0 L641.0 406.0"/>
    <path d="M590.0 423.0 L590.0 428.0"/>
    <path d="M672.0 318.0 L738.0 318.0"/>
    <path d="M738.0 318.0 L745.0 352.0"/>
    <path d="M745.0 352.0 L745.0 436.0"/>
    <path d="M745.0 436.0 L741.0 436.0"/>
    <path d="M676.0 422.0 L672.0 402.0"/>
    <path d="M672.0 402.0 L672.0 318.0"/>
    <path d="M672.0 318.0 L674.0 329.0"/>
    <path d="M674.0 329.0 L692.0 329.0"/>
    <path d="M692.0 329.0 L692.0 328.0"/>
    <path d="M692.0 328.0 L722.0 328.0"/>
    <path d="M722.0 328.0 L725.0 343.0"/>
    <path d="M725.0 343.0 L724.0 343.0"/>
    <path d="M724.0 343.0 L726.0 352.0"/>
    <path d="M726.0 352.0 L745.0 352.0"/>
    <path d="M726.0 352.0 L726.0 410.0"/>
    <path d="M726.0 410.0 L679.0 410.0"/>
    <path d="M679.0 410.0 L674.0 387.0"/>
    <path d="M674.0 387.0 L674.0 329.0"/>
    <path d="M692.0 329.0 L692.0 387.0"/>
    <path d="M692.0 387.0 L674.0 387.0"/>
    <path d="M692.0 387.0 L695.0 401.0"/>
    <path d="M695.0 401.0 L724.0 401.0"/>
    <path d="M724.0 401.0 L726.0 410.0"/>
    <path d="M724.0 401.0 L724.0 343.0"/>
    <path d="M722.0 328.0 L722.0 401.0"/>
    <path d="M679.0 410.0 L679.0 422.0"/>
    <path d="M761.0 310.0 L827.0 310.0"/>
    <path d="M827.0 310.0 L833.0 343.0"/>
    <path d="M833.0 343.0 L833.0 436.0"/>
    <path d="M833.0 436.0 L768.0 436.0"/>
    <path d="M768.0 436.0 L761.0 402.0"/>
    <path d="M761.0 402.0 L761.0 310.0"/>
    <path d="M761.0 310.0 L763.0 318.0"/>
    <path d="M763.0 318.0 L778.0 318.0"/>
    <path d="M778.0 318.0 L778.0 318.0"/>
    <path d="M778.0 318.0 L812.0 318.0"/>
    <path d="M812.0 318.0 L816.0 335.0"/>
    <path d="M816.0 335.0 L811.0 335.0"/>
    <path d="M811.0 335.0 L813.0 343.0"/>
    <path d="M813.0 343.0 L833.0 343.0"/>
    <path d="M813.0 343.0 L813.0 411.0"/>
    <path d="M813.0 411.0 L768.0 411.0"/>
    <path d="M768.0 411.0 L763.0 386.0"/>
    <path d="M763.0 386.0 L763.0 318.0"/>
    <path d="M778.0 318.0 L778.0 386.0"/>
    <path d="M778.0 386.0 L763.0 386.0"/>
    <path d="M778.0 386.0 L782.0 403.0"/>
    <path d="M782.0 403.0 L811.0 403.0"/>
    <path d="M811.0 403.0 L813.0 411.0"/>
    <path d="M811.0 403.0 L811.0 335.0"/>
    <path d="M812.0 318.0 L812.0 335.0"/>
    <path d="M768.0 411.0 L768.0 436.0"/>
    <path d="M850.0 317.0 L916.0 317.0"/>
    <path d="M916.0 317.0 L922.0 351.0"/>
    <path d="M922.0 351.0 L922.0 436.0"/>
    <path d="M922.0 436.0 L856.0 436.0"/>
    <path d="M856.0 436.0 L850.0 402.0"/>
    <path d="M850.0 402.0 L850.0 317.0"/>
    <path d="M850.0 317.0 L851.0 324.0"/>
    <path d="M851.0 324.0 L861.0 324.0"/>
    <path d="M861.0 324.0 L861.0 322.0"/>
    <path d="M861.0 322.0 L906.0 322.0"/>
    <path d="M906.0 322.0 L911.0 346.0"/>
    <path d="M911.0 346.0 L906.0 346.0"/>
    <path d="M906.0 346.0 L907.0 351.0"/>
    <path d="M907.0 351.0 L922.0 351.0"/>
    <path d="M907.0 351.0 L907.0 432.0"/>
    <path d="M907.0 432.0 L856.0 432.0"/>
    <path d="M856.0 432.0 L851.0 405.0"/>
    <path d="M851.0 405.0 L851.0 324.0"/>
    <path d="M861.0 324.0 L861.0 405.0"/>
    <path d="M861.0 405.0 L851.0 405.0"/>
    <path d="M861.0 405.0 L866.0 427.0"/>
    <path d="M866.0 427.0 L906.0 427.0"/>
    <path d="M906.0 427.0 L907.0 432.0"/>
    <path d="M906.0 427.0 L906.0 346.0"/>
    <path d="M906.0 322.0 L906.0 346.0"/>
    <path d="M862.0 407.0 L906.0 407.0"/>
    <path d="M856.0 432.0 L856.0 436.0"/>
    <path d="M939.0 320.0 L1004.0 320.0"/>
    <path d="M1004.0 320.0 L1011.0 353.0"/>
    <path d="M1011.0 353.0 L1011.0 435.0"/>
    <path d="M1011.0 435.0 L945.0 435.0"/>
    <path d="M945.0 435.0 L939.0 402.0"/>
    <path d="M939.0 402.0 L939.0 320.0"/>
    <path d="M939.0 320.0 L940.0 326.0"/>
    <path d="M940.0 326.0 L949.0 326.0"/>
    <path d="M949.0 326.0 L949.0 325.0"/>
    <path d="M949.0 325.0 L996.0 325.0"/>
    <path d="M996.0 325.0 L1001.0 348.0"/>
    <path d="M1001.0 348.0 L994.0 348.0"/>
    <path d="M994.0 348.0 L995.0 353.0"/>
    <path d="M995.0 353.0 L1011.0 353.0"/>
    <path d="M995.0 353.0 L995.0 428.0"/>
    <path d="M995.0 428.0 L945.0 428.0"/>
    <path d="M945.0 428.0 L940.0 401.0"/>
    <path d="M940.0 401.0 L940.0 326.0"/>
    <path d="M949.0 326.0 L949.0 401.0"/>
    <path d="M949.0 401.0 L940.0 401.0"/>
    <path d="M949.0 401.0 L954.0 423.0"/>
    <path d="M954.0 423.0 L994.0 423.0"/>
    <path d="M994.0 423.0 L995.0 428.0"/>
    <path d="M994.0 423.0 L994.0 348.0"/>
    <path d="M996.0 326.0 L996.0 348.0"/>
    <path d="M951.0 407.0 L994.0 407.0"/>
    <path d="M945.0 428.0 L945.0 435.0"/>
    <path d="M1027.0 299.0 L1093.0 299.0"/>
    <path d="M1093.0 299.0 L1100.0 332.0"/>
    <path d="M1100.0 332.0 L1100.0 436.0"/>
    <path d="M1100.0 436.0 L1034.0 436.0"/>
    <path d="M1034.0 436.0 L1027.0 402.0"/>
    <path d="M1027.0 402.0 L1027.0 299.0"/>
    <path d="M1027.0 299.0 L1029.0 308.0"/>
    <path d="M1029.0 308.0 L1045.0 308.0"/>
    <path d="M1045.0 308.0 L1045.0 307.0"/>
    <path d="M1045.0 307.0 L1079.0 307.0"/>
    <path d="M1079.0 307.0 L1082.0 324.0"/>
    <path d="M1082.0 324.0 L1074.0 324.0"/>
    <path d="M1074.0 324.0 L1076.0 332.0"/>
    <path d="M1076.0 332.0 L1100.0 332.0"/>
    <path d="M1076.0 332.0 L1076.0 413.0"/>
    <path d="M1076.0 413.0 L1034.0 413.0"/>
    <path d="M1034.0 413.0 L1029.0 389.0"/>
    <path d="M1029.0 389.0 L1029.0 308.0"/>
    <path d="M1045.0 308.0 L1045.0 389.0"/>
    <path d="M1045.0 389.0 L1029.0 389.0"/>
    <path d="M1045.0 389.0 L1048.0 405.0"/>
    <path d="M1048.0 405.0 L1074.0 405.0"/>
    <path d="M1074.0 405.0 L1076.0 413.0"/>
    <path d="M1074.0 405.0 L1074.0 324.0"/>
    <path d="M1079.0 307.0 L1079.0 324.0"/>
    <path d="M1034.0 413.0 L1034.0 436.0"/>
    <path d="M50.0 200.0 L116.0 200.0"/>
    <path d="M116.0 200.0 L123.0 234.0"/>
    <path d="M123.0 234.0 L123.0 307.0"/>
    <path d="M123.0 307.0 L57.0 307.0"/>
    <path d="M57.0 307.0 L50.0 274.0"/>
    <path d="M50.0 274.0 L50.0 200.0"/>
    <path d="M50.0 200.0 L52.0 211.0"/>
    <path d="M52.0 211.0 L66.0 211.0"/>
    <path d="M66.0 211.0 L66.0 207.0"/>
    <path d="M66.0 207.0 L103.0 207.0"/>
    <path d="M103.0 207.0 L107.0 227.0"/>
    <path d="M107.0 227.0 L96.0 227.0"/>
    <path d="M96.0 227.0 L98.0 234.0"/>
    <path d="M98.0 234.0 L123.0 234.0"/>
    <path d="M98.0 234.0 L98.0 298.0"/>
    <path d="M98.0 298.0 L57.0 298.0"/>
    <path d="M57.0 298.0 L52.0 275.0"/>
    <path d="M52.0 275.0 L52.0 211.0"/>
    <path d="M66.0 211.0 L66.0 275.0"/>
    <path d="M66.0 275.0 L52.0 275.0"/>
    <path d="M66.0 275.0 L69.0 291.0"/>
    <path d="M69.0 291.0 L96.0 291.0"/>
    <path d="M96.0 291.0 L98.0 298.0"/>
    <path d="M96.0 291.0 L96.0 227.0"/>
    <path d="M103.0 207.0 L103.0 227.0"/>
    <path d="M67.0 281.0 L96.0 281.0"/>
    <path d="M57.0 298.0 L57.0 307.0"/>
    <path d="M139.0 189.0 L205.0 189.0"/>
    <path d="M205.0 189.0 L211.0 222.0"/>
    <path d="M211.0 222.0 L211.0 307.0"/>
    <path d="M211.0 307.0 L207.0 307.0"/>
    <path d="M144.0 298.0 L139.0 274.0"/>
    <path d="M139.0 274.0 L139.0 189.0"/>
    <path d="M139.0 189.0 L141.0 197.0"/>
    <path d="M141.0 197.0 L153.0 197.0"/>
    <path d="M153.0 197.0 L152.0 195.0"/>
    <path d="M152.0 195.0 L194.0 195.0"/>
    <path d="M194.0 195.0 L198.0 216.0"/>
    <path d="M198.0 216.0 L195.0 216.0"/>
    <path d="M195.0 216.0 L196.0 222.0"/>
    <path d="M196.0 222.0 L211.0 222.0"/>
    <path d="M196.0 222.0 L196.0 289.0"/>
    <path d="M196.0 289.0 L146.0 289.0"/>
    <path d="M146.0 289.0 L141.0 264.0"/>
    <path d="M141.0 264.0 L141.0 197.0"/>
    <path d="M153.0 197.0 L153.0 264.0"/>
    <path d="M153.0 264.0 L141.0 264.0"/>
    <path d="M153.0 264.0 L156.0 283.0"/>
    <path d="M156.0 283.0 L195.0 283.0"/>
    <path d="M195.0 283.0 L196.0 289.0"/>
    <path d="M195.0 283.0 L195.0 216.0"/>
    <path d="M194.0 195.0 L194.0 280.0"/>
    <path d="M156.0 280.0 L194.0 280.0"/>
    <path d="M195.0 283.0 L194.0 280.0"/>
    <path d="M146.0 289.0 L146.0 298.0"/>
    <path d="M228.0 197.0 L294.0 197.0"/>
    <path d="M294.0 197.0 L300.0 230.0"/>
    <path d="M300.0 230.0 L300.0 307.0"/>
    <path d="M300.0 307.0 L234.0 307.0"/>
    <path d="M234.0 307.0 L228.0 274.0"/>
    <path d="M228.0 274.0 L228.0 197.0"/>
    <path d="M228.0 197.0 L230.0 206.0"/>
    <path d="M230.0 206.0 L241.0 206.0"/>
    <path d="M241.0 206.0 L240.0 203.0"/>
    <path d="M240.0 203.0 L284.0 203.0"/>
    <path d="M284.0 203.0 L288.0 225.0"/>
    <path d="M288.0 225.0 L284.0 225.0"/>
    <path d="M284.0 225.0 L285.0 230.0"/>
    <path d="M285.0 230.0 L300.0 230.0"/>
    <path d="M285.0 230.0 L285.0 290.0"/>
    <path d="M285.0 290.0 L234.0 290.0"/>
    <path d="M234.0 290.0 L230.0 266.0"/>
    <path d="M230.0 266.0 L230.0 206.0"/>
    <path d="M241.0 206.0 L241.0 266.0"/>
    <path d="M241.0 266.0 L230.0 266.0"/>
    <path d="M241.0 266.0 L244.0 284.0"/>
    <path d="M244.0 284.0 L284.0 284.0"/>
    <path d="M284.0 284.0 L285.0 290.0"/>
    <path d="M284.0 284.0 L284.0 225.0"/>
    <path d="M284.0 205.0 L284.0 279.0"/>
    <path d="M243.0 279.0 L284.0 279.0"/>
    <path d="M284.0 282.0 L284.0 279.0"/>
    <path d="M234.0 290.0 L234.0 307.0"/>
    <path d="M317.0 201.0 L382.0 201.0"/>
    <path d="M382.0 201.0 L389.0 235.0"/>
    <path d="M389.0 235.0 L389.0 307.0"/>
    <path d="M389.0 307.0 L385.0 307.0"/>
    <path d="M321.0 295.0 L317.0 274.0"/>
    <path d="M317.0 274.0 L317.0 201.0"/>
    <path d="M317.0 201.0 L318.0 207.0"/>
    <path d="M318.0 207.0 L328.0 207.0"/>
    <path d="M328.0 207.0 L328.0 206.0"/>
    <path d="M328.0 206.0 L373.0 206.0"/>
    <path d="M373.0 206.0 L378.0 230.0"/>
    <path d="M378.0 230.0 L377.0 230.0"/>
    <path d="M377.0 230.0 L378.0 235.0"/>
    <path d="M378.0 235.0 L389.0 235.0"/>
    <path d="M378.0 235.0 L378.0 295.0"/>
    <path d="M323.0 295.0 L318.0 269.0"/>
    <path d="M318.0 269.0 L318.0 207.0"/>
    <path d="M328.0 207.0 L328.0 269.0"/>
    <path d="M328.0 269.0 L318.0 269.0"/>
    <path d="M328.0 269.0 L332.0 292.0"/>
    <path d="M332.0 292.0 L377.0 292.0"/>
    <path d="M377.0 292.0 L378.0 295.0"/>
    <path d="M377.0 292.0 L377.0 230.0"/>
    <path d="M373.0 206.0 L373.0 279.0"/>
    <path d="M330.0 279.0 L373.0 279.0"/>
    <path d="M376.0 292.0 L373.0 279.0"/>
    <path d="M405.0 198.0 L471.0 198.0"/>
    <path d="M471.0 198.0 L478.0 231.0"/>
    <path d="M478.0 231.0 L478.0 307.0"/>
    <path d="M478.0 307.0 L412.0 307.0"/>
    <path d="M412.0 307.0 L405.0 274.0"/>
    <path d="M405.0 274.0 L405.0 198.0"/>
    <path d="M405.0 198.0 L407.0 207.0"/>
    <path d="M407.0 207.0 L420.0 207.0"/>
    <path d="M420.0 207.0 L419.0 204.0"/>
    <path d="M419.0 204.0 L460.0 204.0"/>
    <path d="M460.0 204.0 L464.0 225.0"/>
    <path d="M464.0 225.0 L454.0 225.0"/>
    <path d="M454.0 225.0 L455.0 231.0"/>
    <path d="M455.0 231.0 L478.0 231.0"/>
    <path d="M455.0 231.0 L455.0 299.0"/>
    <path d="M455.0 299.0 L412.0 299.0"/>
    <path d="M412.0 299.0 L407.0 275.0"/>
    <path d="M407.0 275.0 L407.0 207.0"/>
    <path d="M420.0 207.0 L420.0 275.0"/>
    <path d="M420.0 275.0 L407.0 275.0"/>
    <path d="M420.0 275.0 L423.0 293.0"/>
    <path d="M423.0 293.0 L454.0 293.0"/>
    <path d="M454.0 293.0 L455.0 299.0"/>
    <path d="M454.0 293.0 L454.0 225.0"/>
    <path d="M460.0 204.0 L460.0 225.0"/>
    <path d="M421.0 280.0 L454.0 280.0"/>
    <path d="M412.0 299.0 L412.0 307.0"/>
    <path d="M494.0 182.0 L560.0 182.0"/>
    <path d="M560.0 182.0 L567.0 215.0"/>
    <path d="M567.0 215.0 L567.0 307.0"/>
    <path d="M567.0 307.0 L560.0 307.0"/>
    <path d="M501.0 306.0 L494.0 274.0"/>
    <path d="M494.0 274.0 L494.0 182.0"/>
    <path d="M494.0 182.0 L497.0 197.0"/>
    <path d="M497.0 197.0 L522.0 197.0"/>
    <path d="M522.0 197.0 L522.0 194.0"/>
    <path d="M522.0 194.0 L538.0 194.0"/>
    <path d="M538.0 194.0 L539.0 202.0"/>
    <path d="M539.0 202.0 L527.0 202.0"/>
    <path d="M527.0 202.0 L529.0 215.0"/>
    <path d="M529.0 215.0 L567.0 215.0"/>
    <path d="M529.0 215.0 L529.0 285.0"/>
    <path d="M529.0 285.0 L501.0 285.0"/>
    <path d="M501.0 285.0 L497.0 267.0"/>
    <path d="M497.0 267.0 L497.0 197.0"/>
    <path d="M522.0 197.0 L522.0 267.0"/>
    <path d="M522.0 267.0 L497.0 267.0"/>
    <path d="M522.0 267.0 L523.0 273.0"/>
    <path d="M523.0 273.0 L527.0 273.0"/>
    <path d="M527.0 273.0 L529.0 285.0"/>
    <path d="M527.0 273.0 L527.0 202.0"/>
    <path d="M538.0 194.0 L538.0 202.0"/>
    <path d="M501.0 285.0 L501.0 306.0"/>
    <path d="M583.0 197.0 L649.0 197.0"/>
    <path d="M649.0 197.0 L656.0 231.0"/>
    <path d="M656.0 231.0 L656.0 307.0"/>
    <path d="M656.0 307.0 L590.0 307.0"/>
    <path d="M590.0 307.0 L583.0 274.0"/>
    <path d="M583.0 274.0 L583.0 197.0"/>
    <path d="M583.0 197.0 L585.0 207.0"/>
    <path d="M585.0 207.0 L598.0 207.0"/>
    <path d="M598.0 207.0 L597.0 204.0"/>
    <path d="M597.0 204.0 L638.0 204.0"/>
    <path d="M638.0 204.0 L642.0 224.0"/>
    <path d="M642.0 224.0 L630.0 224.0"/>
    <path d="M630.0 224.0 L631.0 231.0"/>
    <path d="M631.0 231.0 L656.0 231.0"/>
    <path d="M631.0 231.0 L631.0 291.0"/>
    <path d="M631.0 291.0 L590.0 291.0"/>
    <path d="M590.0 291.0 L585.0 267.0"/>
    <path d="M585.0 267.0 L585.0 207.0"/>
    <path d="M598.0 207.0 L598.0 267.0"/>
    <path d="M598.0 267.0 L585.0 267.0"/>
    <path d="M598.0 267.0 L601.0 284.0"/>
    <path d="M601.0 284.0 L630.0 284.0"/>
    <path d="M630.0 284.0 L631.0 291.0"/>
    <path d="M630.0 284.0 L630.0 224.0"/>
    <path d="M638.0 206.0 L638.0 224.0"/>
    <path d="M600.0 280.0 L630.0 280.0"/>
    <path d="M590.0 291.0 L590.0 307.0"/>
    <path d="M672.0 191.0 L738.0 191.0"/>
    <path d="M738.0 191.0 L745.0 225.0"/>
    <path d="M745.0 225.0 L745.0 307.0"/>
    <path d="M745.0 307.0 L679.0 307.0"/>
    <path d="M679.0 307.0 L672.0 274.0"/>
    <path d="M672.0 274.0 L672.0 191.0"/>
    <path d="M672.0 191.0 L673.0 199.0"/>
    <path d="M673.0 199.0 L683.0 199.0"/>
    <path d="M683.0 199.0 L683.0 196.0"/>
    <path d="M683.0 196.0 L729.0 196.0"/>
    <path d="M729.0 196.0 L734.0 220.0"/>
    <path d="M734.0 220.0 L731.0 220.0"/>
    <path d="M731.0 220.0 L732.0 225.0"/>
    <path d="M732.0 225.0 L745.0 225.0"/>
    <path d="M732.0 225.0 L732.0 280.0"/>
    <path d="M732.0 280.0 L679.0 280.0"/>
    <path d="M679.0 280.0 L673.0 254.0"/>
    <path d="M673.0 254.0 L673.0 199.0"/>
    <path d="M683.0 199.0 L683.0 254.0"/>
    <path d="M683.0 254.0 L673.0 254.0"/>
    <path d="M683.0 254.0 L687.0 275.0"/>
    <path d="M687.0 275.0 L731.0 275.0"/>
    <path d="M731.0 275.0 L732.0 280.0"/>
    <path d="M731.0 275.0 L731.0 220.0"/>
    <path d="M729.0 196.0 L729.0 275.0"/>
    <path d="M679.0 280.0 L679.0 307.0"/>
    <path d="M761.0 175.0 L827.0 175.0"/>
    <path d="M827.0 175.0 L833.0 209.0"/>
    <path d="M833.0 209.0 L833.0 307.0"/>
    <path d="M833.0 307.0 L768.0 307.0"/>
    <path d="M768.0 307.0 L761.0 274.0"/>
    <path d="M761.0 274.0 L761.0 175.0"/>
    <path d="M761.0 175.0 L764.0 189.0"/>
    <path d="M764.0 189.0 L787.0 189.0"/>
    <path d="M787.0 189.0 L787.0 187.0"/>
    <path d="M787.0 187.0 L806.0 187.0"/>
    <path d="M806.0 187.0 L808.0 197.0"/>
    <path d="M808.0 197.0 L799.0 197.0"/>
    <path d="M799.0 197.0 L801.0 209.0"/>
    <path d="M801.0 209.0 L833.0 209.0"/>
    <path d="M801.0 209.0 L801.0 299.0"/>
    <path d="M801.0 299.0 L768.0 299.0"/>
    <path d="M768.0 299.0 L764.0 279.0"/>
    <path d="M764.0 279.0 L764.0 189.0"/>
    <path d="M787.0 189.0 L787.0 279.0"/>
    <path d="M787.0 279.0 L764.0 279.0"/>
    <path d="M787.0 279.0 L788.0 287.0"/>
    <path d="M788.0 287.0 L799.0 287.0"/>
    <path d="M799.0 287.0 L801.0 299.0"/>
    <path d="M799.0 287.0 L799.0 197.0"/>
    <path d="M806.0 188.0 L806.0 197.0"/>
    <path d="M788.0 286.0 L799.0 286.0"/>
    <path d="M768.0 299.0 L768.0 307.0"/>
    <path d="M850.0 184.0 L916.0 184.0"/>
    <path d="M916.0 184.0 L922.0 217.0"/>
    <path d="M922.0 217.0 L922.0 307.0"/>
    <path d="M922.0 307.0 L856.0 307.0"/>
    <path d="M856.0 307.0 L850.0 274.0"/>
    <path d="M850.0 274.0 L850.0 184.0"/>
    <path d="M850.0 184.0 L852.0 195.0"/>
    <path d="M852.0 195.0 L867.0 195.0"/>
    <path d="M867.0 195.0 L866.0 191.0"/>
    <path d="M866.0 191.0 L902.0 191.0"/>
    <path d="M902.0 191.0 L906.0 210.0"/>
    <path d="M906.0 210.0 L899.0 210.0"/>
    <path d="M899.0 210.0 L901.0 217.0"/>
    <path d="M901.0 217.0 L922.0 217.0"/>
    <path d="M901.0 217.0 L901.0 301.0"/>
    <path d="M901.0 301.0 L856.0 301.0"/>
    <path d="M856.0 301.0 L852.0 279.0"/>
    <path d="M852.0 279.0 L852.0 195.0"/>
    <path d="M867.0 195.0 L867.0 279.0"/>
    <path d="M867.0 279.0 L852.0 279.0"/>
    <path d="M867.0 279.0 L870.0 294.0"/>
    <path d="M870.0 294.0 L899.0 294.0"/>
    <path d="M899.0 294.0 L901.0 301.0"/>
    <path d="M899.0 294.0 L899.0 210.0"/>
    <path d="M902.0 191.0 L902.0 210.0"/>
    <path d="M868.0 281.0 L899.0 281.0"/>
    <path d="M856.0 301.0 L856.0 307.0"/>
    <path d="M939.0 186.0 L1004.0 186.0"/>
    <path d="M1004.0 186.0 L1011.0 220.0"/>
    <path d="M1011.0 220.0 L1011.0 307.0"/>
    <path d="M1011.0 307.0 L945.0 307.0"/>
    <path d="M945.0 307.0 L939.0 274.0"/>
    <path d="M939.0 274.0 L939.0 186.0"/>
    <path d="M939.0 186.0 L940.0 192.0"/>
    <path d="M940.0 192.0 L946.0 192.0"/>
    <path d="M946.0 192.0 L946.0 190.0"/>
    <path d="M946.0 190.0 L998.0 190.0"/>
    <path d="M998.0 190.0 L1004.0 217.0"/>
    <path d="M1004.0 217.0 L996.0 217.0"/>
    <path d="M996.0 217.0 L997.0 220.0"/>
    <path d="M997.0 220.0 L1011.0 220.0"/>
    <path d="M997.0 220.0 L997.0 286.0"/>
    <path d="M997.0 286.0 L945.0 286.0"/>
    <path d="M945.0 286.0 L940.0 259.0"/>
    <path d="M940.0 259.0 L940.0 192.0"/>
    <path d="M946.0 192.0 L946.0 259.0"/>
    <path d="M946.0 259.0 L940.0 259.0"/>
    <path d="M946.0 259.0 L951.0 283.0"/>
    <path d="M951.0 283.0 L996.0 283.0"/>
    <path d="M996.0 283.0 L997.0 286.0"/>
    <path d="M996.0 283.0 L996.0 217.0"/>
    <path d="M998.0 190.0 L998.0 217.0"/>
    <path d="M950.0 277.0 L996.0 277.0"/>
    <path d="M945.0 286.0 L945.0 307.0"/>
    <path d="M1027.0 183.0 L1093.0 183.0"/>
    <path d="M1093.0 183.0 L1100.0 216.0"/>
    <path d="M1100.0 216.0 L1100.0 307.0"/>
    <path d="M1100.0 307.0 L1095.0 307.0"/>
    <path d="M1032.0 299.0 L1027.0 274.0"/>
    <path d="M1027.0 274.0 L1027.0 183.0"/>
    <path d="M1027.0 183.0 L1030.0 195.0"/>
    <path d="M1030.0 195.0 L1049.0 195.0"/>
    <path d="M1049.0 195.0 L1048.0 192.0"/>
    <path d="M1048.0 192.0 L1076.0 192.0"/>
    <path d="M1076.0 192.0 L1079.0 207.0"/>
    <path d="M1079.0 207.0 L1069.0 207.0"/>
    <path d="M1069.0 207.0 L1071.0 216.0"/>
    <path d="M1071.0 216.0 L1100.0 216.0"/>
    <path d="M1071.0 216.0 L1071.0 299.0"/>
    <path d="M1033.0 299.0 L1030.0 283.0"/>
    <path d="M1030.0 283.0 L1030.0 195.0"/>
    <path d="M1049.0 195.0 L1049.0 283.0"/>
    <path d="M1049.0 283.0 L1030.0 283.0"/>
    <path d="M1049.0 283.0 L1051.0 294.0"/>
    <path d="M1051.0 294.0 L1069.0 294.0"/>
    <path d="M1069.0 294.0 L1070.0 299.0"/>
    <path d="M1069.0 294.0 L1069.0 207.0"/>
    <path d="M1076.0 192.0 L1076.0 207.0"/>
    <path d="M1049.0 283.0 L1069.0 283.0"/>
    <path d="M50.0 62.0 L116.0 62.0"/>
    <path d="M116.0 62.0 L123.0 96.0"/>
    <path d="M123.0 96.0 L123.0 179.0"/>
    <path d="M123.0 179.0 L57.0 179.0"/>
    <path d="M57.0 179.0 L50.0 146.0"/>
    <path d="M50.0 146.0 L50.0 62.0"/>
    <path d="M50.0 62.0 L53.0 76.0"/>
    <path d="M53.0 76.0 L78.0 76.0"/>
    <path d="M78.0 76.0 L78.0 75.0"/>
    <path d="M78.0 75.0 L93.0 75.0"/>
    <path d="M93.0 75.0 L95.0 83.0"/>
    <path d="M95.0 83.0 L93.0 83.0"/>
    <path d="M93.0 83.0 L95.0 96.0"/>
    <path d="M95.0 96.0 L123.0 96.0"/>
    <path d="M95.0 96.0 L95.0 178.0"/>
    <path d="M95.0 178.0 L57.0 178.0"/>
    <path d="M57.0 178.0 L53.0 158.0"/>
    <path d="M53.0 158.0 L53.0 76.0"/>
    <path d="M78.0 76.0 L78.0 158.0"/>
    <path d="M78.0 158.0 L53.0 158.0"/>
    <path d="M78.0 158.0 L79.0 165.0"/>
    <path d="M79.0 165.0 L93.0 165.0"/>
    <path d="M93.0 165.0 L95.0 178.0"/>
    <path d="M93.0 165.0 L93.0 83.0"/>
    <path d="M93.0 75.0 L93.0 83.0"/>
    <path d="M78.0 158.0 L93.0 158.0"/>
    <path d="M57.0 178.0 L57.0 179.0"/>
    <path d="M139.0 63.0 L205.0 63.0"/>
    <path d="M205.0 63.0 L211.0 96.0"/>
    <path d="M211.0 96.0 L211.0 179.0"/>
    <path d="M211.0 179.0 L146.0 179.0"/>
    <path d="M146.0 179.0 L139.0 146.0"/>
    <path d="M139.0 146.0 L139.0 63.0"/>
    <path d="M139.0 63.0 L141.0 73.0"/>
    <path d="M141.0 73.0 L159.0 73.0"/>
    <path d="M159.0 73.0 L159.0 72.0"/>
    <path d="M159.0 72.0 L188.0 72.0"/>
    <path d="M188.0 72.0 L191.0 87.0"/>
    <path d="M191.0 87.0 L188.0 87.0"/>
    <path d="M188.0 87.0 L190.0 96.0"/>
    <path d="M190.0 96.0 L211.0 96.0"/>
    <path d="M190.0 96.0 L190.0 172.0"/>
    <path d="M190.0 172.0 L146.0 172.0"/>
    <path d="M146.0 172.0 L141.0 149.0"/>
    <path d="M141.0 149.0 L141.0 73.0"/>
    <path d="M159.0 73.0 L159.0 149.0"/>
    <path d="M159.0 149.0 L141.0 149.0"/>
    <path d="M159.0 149.0 L162.0 163.0"/>
    <path d="M162.0 163.0 L188.0 163.0"/>
    <path d="M188.0 163.0 L190.0 172.0"/>
    <path d="M188.0 163.0 L188.0 87.0"/>
    <path d="M188.0 72.0 L188.0 87.0"/>
    <path d="M160.0 155.0 L188.0 155.0"/>
    <path d="M146.0 172.0 L146.0 179.0"/>
    <path d="M228.0 62.0 L294.0 62.0"/>
    <path d="M294.0 62.0 L300.0 95.0"/>
    <path d="M300.0 95.0 L300.0 179.0"/>
    <path d="M300.0 179.0 L234.0 179.0"/>
    <path d="M234.0 179.0 L228.0 146.0"/>
    <path d="M228.0 146.0 L228.0 62.0"/>
    <path d="M228.0 62.0 L229.0 69.0"/>
    <path d="M229.0 69.0 L238.0 69.0"/>
    <path d="M238.0 69.0 L238.0 67.0"/>
    <path d="M238.0 67.0 L285.0 67.0"/>
    <path d="M285.0 67.0 L290.0 91.0"/>
    <path d="M290.0 91.0 L277.0 91.0"/>
    <path d="M277.0 91.0 L278.0 95.0"/>
    <path d="M278.0 95.0 L300.0 95.0"/>
    <path d="M278.0 95.0 L278.0 170.0"/>
    <path d="M278.0 170.0 L234.0 170.0"/>
    <path d="M234.0 170.0 L229.0 143.0"/>
    <path d="M229.0 143.0 L229.0 69.0"/>
    <path d="M238.0 69.0 L238.0 143.0"/>
    <path d="M238.0 143.0 L229.0 143.0"/>
    <path d="M238.0 143.0 L243.0 165.0"/>
    <path d="M243.0 165.0 L277.0 165.0"/>
    <path d="M277.0 165.0 L278.0 170.0"/>
    <path d="M277.0 165.0 L277.0 91.0"/>
    <path d="M285.0 67.0 L285.0 91.0"/>
    <path d="M240.0 150.0 L277.0 150.0"/>
    <path d="M234.0 170.0 L234.0 179.0"/>
    <path d="M317.0 68.0 L382.0 68.0"/>
    <path d="M382.0 68.0 L389.0 102.0"/>
    <path d="M389.0 102.0 L389.0 179.0"/>
    <path d="M389.0 179.0 L323.0 179.0"/>
    <path d="M323.0 179.0 L317.0 146.0"/>
    <path d="M317.0 146.0 L317.0 68.0"/>
    <path d="M317.0 68.0 L318.0 74.0"/>
    <path d="M318.0 74.0 L324.0 74.0"/>
    <path d="M324.0 74.0 L324.0 72.0"/>
    <path d="M324.0 72.0 L376.0 72.0"/>
    <path d="M376.0 72.0 L382.0 98.0"/>
    <path d="M382.0 98.0 L379.0 98.0"/>
    <path d="M379.0 98.0 L380.0 102.0"/>
    <path d="M380.0 102.0 L389.0 102.0"/>
    <path d="M380.0 102.0 L380.0 169.0"/>
    <path d="M380.0 169.0 L323.0 169.0"/>
    <path d="M323.0 169.0 L318.0 141.0"/>
    <path d="M318.0 141.0 L318.0 74.0"/>
    <path d="M324.0 74.0 L324.0 141.0"/>
    <path d="M324.0 141.0 L318.0 141.0"/>
    <path d="M324.0 141.0 L329.0 166.0"/>
    <path d="M329.0 166.0 L379.0 166.0"/>
    <path d="M379.0 166.0 L380.0 169.0"/>
    <path d="M379.0 166.0 L379.0 98.0"/>
    <path d="M376.0 72.0 L376.0 149.0"/>
    <path d="M326.0 149.0 L376.0 149.0"/>
    <path d="M379.0 162.0 L376.0 149.0"/>
    <path d="M323.0 169.0 L323.0 179.0"/>
    <path d="M405.0 58.0 L471.0 58.0"/>
    <path d="M471.0 58.0 L478.0 92.0"/>
    <path d="M478.0 92.0 L478.0 179.0"/>
    <path d="M478.0 179.0 L412.0 179.0"/>
    <path d="M412.0 179.0 L405.0 146.0"/>
    <path d="M405.0 146.0 L405.0 58.0"/>
    <path d="M405.0 58.0 L408.0 69.0"/>
    <path d="M408.0 69.0 L423.0 69.0"/>
    <path d="M423.0 69.0 L422.0 66.0"/>
    <path d="M422.0 66.0 L458.0 66.0"/>
    <path d="M458.0 66.0 L461.0 84.0"/>
    <path d="M461.0 84.0 L453.0 84.0"/>
    <path d="M453.0 84.0 L454.0 92.0"/>
    <path d="M454.0 92.0 L478.0 92.0"/>
    <path d="M454.0 92.0 L454.0 153.0"/>
    <path d="M454.0 153.0 L412.0 153.0"/>
    <path d="M412.0 153.0 L408.0 130.0"/>
    <path d="M408.0 130.0 L408.0 69.0"/>
    <path d="M423.0 69.0 L423.0 130.0"/>
    <path d="M423.0 130.0 L408.0 130.0"/>
    <path d="M423.0 130.0 L426.0 145.0"/>
    <path d="M426.0 145.0 L453.0 145.0"/>
    <path d="M453.0 145.0 L454.0 153.0"/>
    <path d="M453.0 145.0 L453.0 84.0"/>
    <path d="M458.0 68.0 L458.0 84.0"/>
    <path d="M412.0 153.0 L412.0 179.0"/>
    <path d="M494.0 50.0 L560.0 50.0"/>
    <path d="M560.0 50.0 L567.0 84.0"/>
    <path d="M567.0 84.0 L567.0 200.0"/>
    <path d="M567.0 200.0 L564.0 200.0"/>
    <path d="M497.0 182.0 L494.0 167.0"/>
    <path d="M494.0 167.0 L494.0 50.0"/>
    <path d="M494.0 50.0 L497.0 65.0"/>
    <path d="M497.0 65.0 L520.0 65.0"/>
    <path d="M520.0 65.0 L519.0 61.0"/>
    <path d="M519.0 61.0 L540.0 61.0"/>
    <path d="M540.0 61.0 L542.0 72.0"/>
    <path d="M542.0 72.0 L534.0 72.0"/>
    <path d="M534.0 72.0 L536.0 84.0"/>
    <path d="M536.0 84.0 L567.0 84.0"/>
    <path d="M536.0 84.0 L536.0 182.0"/>
    <path d="M499.0 182.0 L497.0 174.0"/>
    <path d="M497.0 174.0 L497.0 65.0"/>
    <path d="M520.0 65.0 L520.0 174.0"/>
    <path d="M520.0 174.0 L497.0 174.0"/>
    <path d="M520.0 174.0 L521.0 182.0"/>
    <path d="M534.0 182.0 L534.0 72.0"/>
    <path d="M540.0 61.0 L540.0 72.0"/>
    <path d="M520.0 178.0 L534.0 178.0"/>
    <path d="M583.0 58.0 L649.0 58.0"/>
    <path d="M649.0 58.0 L656.0 91.0"/>
    <path d="M656.0 91.0 L656.0 179.0"/>
    <path d="M656.0 179.0 L590.0 179.0"/>
    <path d="M590.0 179.0 L583.0 146.0"/>
    <path d="M583.0 146.0 L583.0 58.0"/>
    <path d="M583.0 58.0 L585.0 66.0"/>
    <path d="M585.0 66.0 L596.0 66.0"/>
    <path d="M596.0 66.0 L595.0 63.0"/>
    <path d="M595.0 63.0 L639.0 63.0"/>
    <path d="M639.0 63.0 L643.0 86.0"/>
    <path d="M643.0 86.0 L632.0 86.0"/>
    <path d="M632.0 86.0 L634.0 91.0"/>
    <path d="M634.0 91.0 L656.0 91.0"/>
    <path d="M634.0 91.0 L634.0 152.0"/>
    <path d="M634.0 152.0 L590.0 152.0"/>
    <path d="M590.0 152.0 L585.0 126.0"/>
    <path d="M585.0 126.0 L585.0 66.0"/>
    <path d="M596.0 66.0 L596.0 126.0"/>
    <path d="M596.0 126.0 L585.0 126.0"/>
    <path d="M596.0 126.0 L600.0 146.0"/>
    <path d="M600.0 146.0 L632.0 146.0"/>
    <path d="M632.0 146.0 L634.0 152.0"/>
    <path d="M632.0 146.0 L632.0 86.0"/>
    <path d="M639.0 63.0 L639.0 86.0"/>
    <path d="M590.0 152.0 L590.0 179.0"/>
    <path d="M672.0 50.0 L738.0 50.0"/>
    <path d="M738.0 50.0 L745.0 84.0"/>
    <path d="M745.0 84.0 L745.0 204.0"/>
    <path d="M745.0 204.0 L740.0 204.0"/>
    <path d="M676.0 191.0 L672.0 170.0"/>
    <path d="M672.0 170.0 L672.0 50.0"/>
    <path d="M672.0 50.0 L673.0 57.0"/>
    <path d="M673.0 57.0 L683.0 57.0"/>
    <path d="M683.0 57.0 L683.0 55.0"/>
    <path d="M683.0 55.0 L729.0 55.0"/>
    <path d="M729.0 55.0 L734.0 79.0"/>
    <path d="M734.0 79.0 L721.0 79.0"/>
    <path d="M721.0 79.0 L722.0 84.0"/>
    <path d="M722.0 84.0 L745.0 84.0"/>
    <path d="M722.0 84.0 L722.0 183.0"/>
    <path d="M722.0 183.0 L679.0 183.0"/>
    <path d="M679.0 183.0 L673.0 157.0"/>
    <path d="M673.0 157.0 L673.0 57.0"/>
    <path d="M683.0 57.0 L683.0 157.0"/>
    <path d="M683.0 157.0 L673.0 157.0"/>
    <path d="M683.0 157.0 L687.0 178.0"/>
    <path d="M687.0 178.0 L721.0 178.0"/>
    <path d="M721.0 178.0 L722.0 183.0"/>
    <path d="M721.0 178.0 L721.0 79.0"/>
    <path d="M729.0 55.0 L729.0 79.0"/>
    <path d="M687.0 175.0 L721.0 175.0"/>
    <path d="M679.0 183.0 L679.0 191.0"/>
    <path d="M761.0 50.0 L827.0 50.0"/>
    <path d="M827.0 50.0 L833.0 84.0"/>
    <path d="M833.0 84.0 L833.0 186.0"/>
    <path d="M833.0 186.0 L829.0 186.0"/>
    <path d="M766.0 175.0 L761.0 152.0"/>
    <path d="M761.0 152.0 L761.0 50.0"/>
    <path d="M761.0 50.0 L762.0 58.0"/>
    <path d="M762.0 58.0 L773.0 58.0"/>
    <path d="M773.0 58.0 L772.0 55.0"/>
    <path d="M772.0 55.0 L817.0 55.0"/>
    <path d="M817.0 55.0 L822.0 78.0"/>
    <path d="M822.0 78.0 L821.0 78.0"/>
    <path d="M821.0 78.0 L822.0 84.0"/>
    <path d="M822.0 84.0 L833.0 84.0"/>
    <path d="M822.0 84.0 L822.0 153.0"/>
    <path d="M822.0 153.0 L768.0 153.0"/>
    <path d="M768.0 153.0 L762.0 127.0"/>
    <path d="M762.0 127.0 L762.0 58.0"/>
    <path d="M773.0 58.0 L773.0 127.0"/>
    <path d="M773.0 127.0 L762.0 127.0"/>
    <path d="M773.0 127.0 L777.0 148.0"/>
    <path d="M777.0 148.0 L821.0 148.0"/>
    <path d="M821.0 148.0 L822.0 153.0"/>
    <path d="M821.0 148.0 L821.0 78.0"/>
    <path d="M817.0 55.0 L817.0 148.0"/>
    <path d="M768.0 153.0 L768.0 175.0"/>
    <path d="M850.0 50.0 L916.0 50.0"/>
    <path d="M916.0 50.0 L922.0 84.0"/>
    <path d="M922.0 84.0 L922.0 199.0"/>
    <path d="M922.0 199.0 L919.0 199.0"/>
    <path d="M853.0 184.0 L850.0 165.0"/>
    <path d="M850.0 165.0 L850.0 50.0"/>
    <path d="M850.0 50.0 L851.0 56.0"/>
    <path d="M851.0 56.0 L857.0 56.0"/>
    <path d="M857.0 56.0 L857.0 53.0"/>
    <path d="M857.0 53.0 L910.0 53.0"/>
    <path d="M910.0 53.0 L915.0 80.0"/>
    <path d="M915.0 80.0 L903.0 80.0"/>
    <path d="M903.0 80.0 L903.0 84.0"/>
    <path d="M903.0 84.0 L922.0 84.0"/>
    <path d="M903.0 84.0 L903.0 184.0"/>
    <path d="M856.0 184.0 L851.0 157.0"/>
    <path d="M851.0 157.0 L851.0 56.0"/>
    <path d="M857.0 56.0 L857.0 157.0"/>
    <path d="M857.0 157.0 L851.0 157.0"/>
    <path d="M857.0 157.0 L862.0 182.0"/>
    <path d="M862.0 182.0 L903.0 182.0"/>
    <path d="M903.0 182.0 L903.0 184.0"/>
    <path d="M903.0 182.0 L903.0 80.0"/>
    <path d="M910.0 53.0 L910.0 80.0"/>
    <path d="M859.0 168.0 L903.0 168.0"/>
    <path d="M939.0 50.0 L1004.0 50.0"/>
    <path d="M1004.0 50.0 L1011.0 84.0"/>
    <path d="M1011.0 84.0 L1011.0 202.0"/>
    <path d="M1011.0 202.0 L1008.0 202.0"/>
    <path d="M942.0 186.0 L939.0 169.0"/>
    <path d="M939.0 169.0 L939.0 50.0"/>
    <path d="M939.0 50.0 L941.0 63.0"/>
    <path d="M941.0 63.0 L964.0 63.0"/>
    <path d="M964.0 63.0 L964.0 62.0"/>
    <path d="M964.0 62.0 L984.0 62.0"/>
    <path d="M984.0 62.0 L986.0 72.0"/>
    <path d="M986.0 72.0 L975.0 72.0"/>
    <path d="M975.0 72.0 L977.0 84.0"/>
    <path d="M977.0 84.0 L1011.0 84.0"/>
    <path d="M977.0 84.0 L977.0 186.0"/>
    <path d="M943.0 186.0 L941.0 179.0"/>
    <path d="M941.0 179.0 L941.0 63.0"/>
    <path d="M964.0 63.0 L964.0 179.0"/>
    <path d="M964.0 179.0 L941.0 179.0"/>
    <path d="M964.0 179.0 L965.0 186.0"/>
    <path d="M975.0 186.0 L975.0 72.0"/>
    <path d="M984.0 62.0 L984.0 72.0"/>
    <path d="M964.0 180.0 L975.0 180.0"/>
    <path d="M1027.0 59.0 L1093.0 59.0"/>
    <path d="M1093.0 59.0 L1100.0 93.0"/>
    <path d="M1100.0 93.0 L1100.0 179.0"/>
    <path d="M1100.0 179.0 L1034.0 179.0"/>
    <path d="M1034.0 179.0 L1027.0 146.0"/>
    <path d="M1027.0 146.0 L1027.0 59.0"/>
    <path d="M1027.0 59.0 L1030.0 71.0"/>
    <path d="M1030.0 71.0 L1050.0 71.0"/>
    <path d="M1050.0 71.0 L1049.0 69.0"/>
    <path d="M1049.0 69.0 L1075.0 69.0"/>
    <path d="M1075.0 69.0 L1078.0 83.0"/>
    <path d="M1078.0 83.0 L1068.0 83.0"/>
    <path d="M1068.0 83.0 L1070.0 93.0"/>
    <path d="M1070.0 93.0 L1100.0 93.0"/>
    <path d="M1070.0 93.0 L1070.0 159.0"/>
    <path d="M1070.0 159.0 L1034.0 159.0"/>
    <path d="M1034.0 159.0 L1030.0 137.0"/>
    <path d="M1030.0 137.0 L1030.0 71.0"/>
    <path d="M1050.0 71.0 L1050.0 137.0"/>
    <path d="M1050.0 137.0 L1030.0 137.0"/>
    <path d="M1050.0 137.0 L1052.0 149.0"/>
    <path d="M1052.0 149.0 L1068.0 149.0"/>
    <path d="M1068.0 149.0 L1070.0 159.0"/>
    <path d="M1068.0 149.0 L1068.0 83.0"/>
    <path d="M1075.0 69.0 L1075.0 83.0"/>
    <path d="M1034.0 159.0 L1034.0 179.0"/>
  </g>
</svg>
