<svg version="1.1" width="1150" height="870" xmlns="http://www.w3.org/2000/svg">
  <!-- Seed: 1166602106187027915 -->
  <!-- Size: SvgSize.Size9x12 -->
  <!-- Params:
    draw: True
    slope: 100
    perspective_skew: [RangeFloat] min: 0.1 max: 0.3
    height: [RangeFloat] min: 0.5 max: 0.8
    wall_width: [RangeFloat] min: 0.1 max: 0.8
    wall_inset_left: [RangeFloat] min: 0.01 max: 0.1
    wall_inset_right: [RangeFloat] min: 0.01 max: 0.2
    wall_bottom_inset: [RangeFloat] min: 0.01 max: 0.4
    row: [RangeInt] min: 1 max: 30
    col: [RangeInt] min: 1 max: 40
    split_pad: [RangeInt] min: 5 max: 10
  -->
  <g stroke="black" fill="none">
    <path d="M50.0 50.0 L571.8801242391929 49.99999999999999 L1100.0 236.4135122443067 L1100.0 431.5 L578.1198757608072 431.50000000000006 L50.0 245.0864877556933 L50.0 50.0"/>
    <path d="M50.0 50.0 L325.35367068983794 147.1931699951827 L510.74115630068246 147.1931699951827 L422.99151826324373 116.2196751969407 L574.0966712807473 116.2196751969407 L727.0084817367563 170.19383704736597 L695.5026352623883 170.19383704736597 L883.1066679147876 236.41351224430673 L1100.0 236.4135122443067"/>
    <path d="M883.1066679147876 236.41351224430673 L883.1066679147876 389.969183840077 L578.1198757608072 389.969183840077 L325.3536706898377 300.7488415909529 L325.35367068983794 147.1931699951827"/>
    <path d="M510.74115630068246 147.1931699951827 L510.74115630068246 300.7488415909529 L325.3536706898377 300.7488415909529"/>
    <path d="M510.74115630068246 300.7488415909529 L575.9033287192524 323.7495086431362 L695.5026352623883 323.7495086431362 L883.1066679147876 389.969183840077"/>
    <path d="M695.5026352623883 323.7495086431362 L695.5026352623883 170.19383704736597"/>
    <path d="M574.0966712807473 116.2196751969407 L574.0966712807473 311.306162952634"/>
    <path d="M540.65063645999 311.306162952634 L574.0966712807473 311.306162952634"/>
    <path d="M609.3493635400098 323.7495086431362 L574.0966712807473 311.306162952634"/>
    <path d="M578.1198757608072 389.969183840077 L578.1198757608072 431.50000000000006"/>
    <path d="M50.0 438.5 L571.8801242391938 438.5 L1100.0 624.9135122443067 L1100.0 820.0 L578.1198757608071 820.0 L50.0 633.5864877556933 L50.0 438.5"/>
    <path d="M50.0 438.5 L369.5302535596903 551.286432717699 L568.1691589274906 551.286432717699 L449.65279563050774 509.45302982070393 L574.2551091341011 509.45302982070393 L700.3472043694923 553.9604824236028 L676.6868805937764 553.9604824236028 L877.700770856485 624.9135122443067 L1100.0 624.9135122443067"/>
    <path d="M877.700770856485 624.9135122443067 L877.7007708564837 806.2937565745186 L578.1198757608071 806.2937565745186 L369.5302535596907 732.6666770479109 L369.5302535596903 551.286432717699"/>
    <path d="M568.1691589274906 551.286432717699 L568.1691589274908 732.6666770479109 L369.5302535596907 732.6666770479109"/>
    <path d="M568.1691589274908 732.6666770479109 L575.7448908658996 735.3407267538146 L676.6868805937764 735.3407267538147 L877.7007708564837 806.2937565745186"/>
    <path d="M676.6868805937764 735.3407267538147 L676.6868805937764 553.9604824236028"/>
    <path d="M574.2551091341011 509.45302982070393 L574.2551091341011 704.5395175763972"/>
    <path d="M568.1691589274908 704.5395175763972 L574.2551091341011 704.5395175763972"/>
    <path d="M661.5166524000298 735.3407267538147 L574.2551091341011 704.5395175763972"/>
    <path d="M578.1198757608071 806.2937565745186 L578.1198757608071 820.0"/>
  </g>
</svg>
