<svg version="1.1" width="1150" height="870" xmlns="http://www.w3.org/2000/svg">
  <!-- Seed: 6140547271184272629 -->
  <!-- Size: SvgSize.Size9x12 -->
  <!-- Params:
    draw: True
    slope: 100
    perspective_skew: [RangeFloat] min: 0.1 max: 0.3
    height: [RangeFloat] min: 0.5 max: 0.8
    wall_width: [RangeFloat] min: 0.1 max: 0.6
    wall_inset: [RangeFloat] min: 0.01 max: 0.4
    wall_bottom_inset: [RangeFloat] min: 0.01 max: 0.4
    row: [RangeInt] min: 1 max: 20
    col: [RangeInt] min: 1 max: 30
    split_pad: 10
  -->
  <g stroke="black" fill="none">
    <path d="M50.0 50.0 L95.3275662911684 50.0 L128.33333333333331 239.95180793378904 L128.33333333333331 820.0 L83.00576704216492 820.0 L50.0 630.048192066211 L50.0 50.0"/>
    <path d="M50.0 50.0 L58.66659018941952 99.87717670667708 L67.49609231443036 99.87717670667708 L65.25880142522914 87.00132235265903 L92.92736346637584 87.00132235265892 L113.07453190810415 202.95048558113 L97.28832346856886 202.95048558113 L103.71762276878718 239.951807933789 L128.33333333333331 239.95180793378904"/>
    <path d="M103.71762276878718 239.951807933789 L103.7176227687872 644.9328514422375 L83.00576704216492 644.9328514422375 L58.66659018941954 504.85822021512547 L58.66659018941952 99.87717670667708"/>
    <path d="M67.49609231443036 99.87717670667708 L67.49609231443034 504.85822021512547 L58.66659018941954 504.85822021512547"/>
    <path d="M67.49609231443034 504.85822021512547 L85.4059698669575 607.9315290895784 L97.28832346856886 607.9315290895784 L103.7176227687872 644.9328514422375"/>
    <path d="M97.28832346856886 607.9315290895784 L97.28832346856886 202.95048558113"/>
    <path d="M92.92736346637584 87.00132235265892 L92.92736346637584 667.0495144188699"/>
    <path d="M82.65510297564732 607.9315290895785 L92.92736346637584 667.0495144188699"/>
    <path d="M83.00576704216492 644.9328514422375 L83.00576704216492 820.0"/>
    <path d="M138.33333333333331 50.0 L183.66089962450178 50.0 L216.66666666666663 239.95180793378904 L216.66666666666663 820.0 L171.33910037549833 820.0 L138.33333333333331 630.048192066211 L138.33333333333331 50.0"/>
    <path d="M138.33333333333331 50.0 L146.3360422587989 96.05646724762032 L152.78134312779346 96.05646724762032 L149.47185107684925 77.00997765638431 L181.90881563002824 77.0099776563842 L205.5281489231507 212.94183027740473 L197.37829894021803 212.94183027740473 L202.0715158147394 239.951807933789 L216.66666666666663 239.95180793378904"/>
    <path d="M202.0715158147394 239.951807933789 L202.0715158147393 698.8641894375972 L171.33910037549833 698.8641894375972 L146.33604225879884 554.9688487514284 L146.3360422587989 96.05646724762032"/>
    <path d="M152.78134312779346 96.05646724762032 L152.78134312779343 554.9688487514285 L146.33604225879884 554.9688487514284"/>
    <path d="M152.78134312779343 554.9688487514285 L173.0911843699715 671.8542117812129 L197.37829894021803 671.8542117812129 L202.0715158147393 698.8641894375972"/>
    <path d="M197.37829894021803 671.8542117812129 L197.37829894021803 212.94183027740473"/>
    <path d="M181.90881563002824 77.0099776563842 L181.90881563002824 657.0581697225952"/>
    <path d="M184.47975571554213 671.8542117812129 L181.90881563002824 657.0581697225952"/>
    <path d="M181.90881563002824 657.0581697225952 L170.52024428445756 657.0581697225952"/>
    <path d="M171.33910037549833 698.8641894375972 L171.33910037549833 820.0"/>
    <path d="M226.66666666666666 50.0 L271.9942329578352 50.0 L305.0 239.95180793378904 L305.0 820.0 L259.67243370883165 820.0 L226.66666666666666 630.048192066211 L226.66666666666666 50.0"/>
    <path d="M226.66666666666666 50.0 L246.31120652553506 163.05648062814 L256.3529210538504 163.05648062814 L244.0203663189237 92.08127604195124 L269.2645035534614 92.08127604195136 L287.646300347743 197.8705318918378 L283.2901817713278 197.8705318918378 L290.6021668952694 239.951807933789 L305.0 239.95180793378904"/>
    <path d="M290.6021668952694 239.951807933789 L290.60216689526936 610.1985552347006 L259.67243370883165 610.1985552347006 L246.31120652553494 533.3032279290516 L246.31120652553506 163.05648062814"/>
    <path d="M256.3529210538504 163.05648062814 L256.3529210538505 533.3032279290516 L246.31120652553494 533.3032279290516"/>
    <path d="M256.3529210538505 533.3032279290516 L262.40216311320535 568.1172791927494 L283.2901817713278 568.1172791927494 L290.60216689526936 610.1985552347006"/>
    <path d="M283.2901817713278 568.1172791927494 L283.2901817713278 197.8705318918378"/>
    <path d="M269.2645035534614 92.08127604195136 L269.2645035534614 672.1294681081623"/>
    <path d="M251.19148748569964 568.1172791927494 L269.2645035534614 672.1294681081623"/>
    <path d="M259.67243370883165 610.1985552347006 L259.67243370883165 820.0"/>
    <path d="M315.0 50.0 L360.32756629116835 50.0 L393.3333333333333 239.95180793378904 L393.3333333333333 820.0 L348.00576704216485 820.0 L315.0 630.048192066211 L315.0 50.0"/>
    <path d="M315.0 50.0 L330.73874164260644 140.57818367913342 L335.86540722270405 140.57818367913342 L323.8597036336487 71.48404327194635 L358.93393876462176 71.48404327194635 L384.4736296996846 218.4677646618427 L378.9662774170288 218.4677646618427 L382.69931547057985 239.951807933789 L393.3333333333333 239.95180793378904"/>
    <path d="M382.69931547057985 239.951807933789 L382.6993154705796 630.8941929499409 L348.00576704216485 630.8941929499409 L330.7387416426063 531.5205686952853 L330.73874164260644 140.57818367913342"/>
    <path d="M335.86540722270405 140.57818367913342 L335.86540722270405 531.5205686952853 L330.7387416426063 531.5205686952853"/>
    <path d="M335.86540722270405 531.5205686952853 L349.39939456871156 609.4101496779947 L378.9662774170288 609.4101496779946 L382.6993154705796 630.8941929499409"/>
    <path d="M378.9662774170288 609.4101496779946 L378.9662774170288 218.4677646618427"/>
    <path d="M358.93393876462176 71.48404327194635 L358.93393876462176 651.5322353381573"/>
    <path d="M351.61486261708626 609.4101496779946 L358.93393876462176 651.5322353381573"/>
    <path d="M348.00576704216485 630.8941929499409 L348.00576704216485 820.0"/>
    <path d="M403.3333333333333 50.0 L448.6608996245017 50.0 L481.66666666666663 239.95180793378904 L481.66666666666663 820.0 L436.33910037549856 820.0 L403.3333333333333 630.048192066211 L403.3333333333333 50.0"/>
    <path d="M403.3333333333333 50.0 L422.9575841141143 162.9397147593424 L435.4172664030641 162.9397147593424 L424.8656706244687 102.21412422329308 L445.27387233773766 102.21412422329308 L460.13432937553137 187.73768371049584 L452.36126178234986 187.73768371049584 L461.43391678453537 239.951807933789 L481.66666666666663 239.95180793378904"/>
    <path d="M461.43391678453537 239.951807933789 L461.4339167845357 701.4360945184368 L436.33910037549856 701.4360945184367 L422.95758411411424 624.4240013439901 L422.9575841141143 162.9397147593424"/>
    <path d="M435.4172664030641 162.9397147593424 L435.4172664030641 624.4240013439901 L422.95758411411424 624.4240013439901"/>
    <path d="M435.4172664030641 624.4240013439901 L439.72612766226223 649.2219702951435 L452.36126178234986 649.2219702951435 L461.4339167845357 701.4360945184368"/>
    <path d="M452.36126178234986 649.2219702951435 L452.36126178234986 187.73768371049584"/>
    <path d="M445.27387233773766 102.21412422329308 L445.27387233773766 682.262316289504"/>
    <path d="M439.53282688655395 649.2219702951435 L445.27387233773766 682.262316289504"/>
    <path d="M436.33910037549856 701.4360945184367 L436.33910037549856 820.0"/>
    <path d="M491.66666666666663 50.0 L536.9942329578353 50.0 L570.0 239.95180793378904 L570.0 820.0 L524.6724337088317 820.0 L491.66666666666663 630.048192066211 L491.66666666666663 50.0"/>
    <path d="M491.66666666666663 50.0 L502.6115389036035 112.98893967089327 L507.830479272581 112.98893967089327 L500.68583599386614 71.87073429484076 L535.5755215470796 71.87073429484076 L560.9808306728005 218.08107363894828 L544.3157845025825 218.08107363894828 L548.1160134608043 239.951807933789 L570.0 239.95180793378904"/>
    <path d="M548.1160134608043 239.951807933789 L548.1160134608043 629.5686148601071 L524.6724337088317 629.5686148601071 L502.61153890360345 502.60574659721135 L502.6115389036035 112.98893967089327"/>
    <path d="M507.830479272581 112.98893967089327 L507.830479272581 502.60574659721135 L502.61153890360345 502.60574659721135"/>
    <path d="M507.830479272581 502.60574659721135 L526.0911451195873 607.6978805652664 L544.3157845025825 607.6978805652664 L548.1160134608043 629.5686148601071"/>
    <path d="M544.3157845025825 607.6978805652664 L544.3157845025825 218.08107363894828"/>
    <path d="M535.5755215470796 71.87073429484076 L535.5755215470796 651.9189263610517"/>
    <path d="M527.8917329494719 607.6978805652664 L535.5755215470796 651.9189263610517"/>
    <path d="M524.6724337088317 629.5686148601071 L524.6724337088317 820.0"/>
    <path d="M580.0 50.0 L625.3275662911683 50.0 L658.3333333333334 239.95180793378904 L658.3333333333334 820.0 L613.0057670421648 820.0 L580.0 630.048192066211 L580.0 50.0"/>
    <path d="M580.0 50.0 L593.8121235144221 129.4902851255532 L596.6402821162966 129.4902851255532 L584.8875134627145 61.85181300268118 L624.5587625501331 61.85181300268118 L653.4458198706188 228.09999493110786 L644.1672936477321 228.09999493110786 L646.226648508572 239.951807933789 L658.3333333333334 239.95180793378904"/>
    <path d="M646.226648508572 239.951807933789 L646.226648508572 601.7967508637589 L613.0057670421648 601.7967508637589 L593.8121235144218 491.33522805552315 L593.8121235144221 129.4902851255532"/>
    <path d="M596.6402821162966 129.4902851255532 L596.6402821162964 491.33522805552315 L593.8121235144218 491.33522805552315"/>
    <path d="M596.6402821162964 491.33522805552315 L613.7745707831994 589.9449378610777 L644.1672936477321 589.9449378610777 L646.226648508572 601.7967508637589"/>
    <path d="M644.1672936477321 589.9449378610777 L644.1672936477321 228.09999493110786"/>
    <path d="M624.5587625501331 61.85181300268118 L624.5587625501331 641.9000050688921"/>
    <path d="M615.5311209415896 589.9449378610776 L624.5587625501331 641.9000050688921"/>
    <path d="M613.0057670421648 601.7967508637589 L613.0057670421648 820.0"/>
    <path d="M668.3333333333333 50.0 L713.6608996245018 50.0 L746.6666666666666 239.95180793378904 L746.6666666666666 820.0 L701.3391003754979 820.0 L668.3333333333333 630.048192066211 L668.3333333333333 50.0"/>
    <path d="M668.3333333333333 50.0 L677.5115524574801 102.82165731876472 L680.9195565244918 102.82165731876472 L674.2229131282799 64.28174038323948 L712.7344712854255 64.28174038323948 L740.7770868717199 225.67006755054956 L724.8028653746061 225.67006755054956 L727.2844411025412 239.951807933789 L746.6666666666666 239.95180793378904"/>
    <path d="M727.2844411025412 239.951807933789 L727.2844411025418 655.8727370732596 L701.3391003754979 655.8727370732596 L677.5115524574802 518.7425864582353 L677.5115524574801 102.82165731876472"/>
    <path d="M680.9195565244918 102.82165731876472 L680.9195565244918 518.7425864582353 L677.5115524574802 518.7425864582353"/>
    <path d="M680.9195565244918 518.7425864582353 L702.2655287145745 641.59099669002 L724.8028653746061 641.5909966900201 L727.2844411025418 655.8727370732596"/>
    <path d="M724.8028653746061 641.5909966900201 L724.8028653746061 225.67006755054956"/>
    <path d="M712.7344712854255 64.28174038323948 L712.7344712854255 644.3299324494504"/>
    <path d="M712.2585575439215 641.5909966900201 L712.7344712854255 644.3299324494504"/>
    <path d="M701.3391003754979 655.8727370732596 L701.3391003754979 820.0"/>
    <path d="M756.6666666666666 50.0 L801.9942329578353 50.0 L835.0 239.95180793378904 L835.0 820.0 L789.6724337088323 820.0 L756.6666666666666 630.048192066211 L756.6666666666666 50.0"/>
    <path d="M756.6666666666666 50.0 L768.3639655620128 117.31923758276531 L780.7603366747953 117.31923758276531 L778.0895920508273 101.94880946321655 L798.6244161164312 101.94880946321655 L813.5770746158395 188.0029984705725 L805.5960025415334 188.0029984705725 L814.6225568129117 239.951807933789 L835.0 239.95180793378904"/>
    <path d="M814.6225568129117 239.951807933789 L814.6225568129113 780.695148762755 L789.6724337088323 780.695148762755 L768.3639655620129 658.0625784117314 L768.3639655620128 117.31923758276531"/>
    <path d="M780.7603366747953 117.31923758276531 L780.7603366747954 658.0625784117314 L768.3639655620129 658.0625784117314"/>
    <path d="M780.7603366747954 658.0625784117314 L793.0422505502366 728.7463392995384 L805.5960025415334 728.7463392995385 L814.6225568129113 780.695148762755"/>
    <path d="M805.5960025415334 728.7463392995385 L805.5960025415334 188.0029984705725"/>
    <path d="M798.6244161164312 101.94880946321655 L798.6244161164312 681.9970015294275"/>
    <path d="M805.5960025415334 722.1192457397511 L798.6244161164312 681.9970015294275"/>
    <path d="M798.6244161164312 681.9970015294275 L784.919149387895 681.9970015294275"/>
    <path d="M789.6724337088323 780.695148762755 L789.6724337088323 820.0"/>
    <path d="M845.0 50.0 L890.3275662911683 50.0 L923.3333333333334 239.95180793378904 L923.3333333333334 820.0 L878.0057670421648 820.0 L845.0 630.048192066211 L845.0 50.0"/>
    <path d="M845.0 50.0 L857.1135949837158 119.71506721219201 L870.2339439446642 119.71506721219201 L867.6740756829006 104.9827447131214 L886.7609440521708 104.98274471312152 L900.659257650433 184.96906322066764 L894.2055826283572 184.96906322066764 L903.7593093503092 239.951807933789 L923.3333333333334 239.95180793378904"/>
    <path d="M903.7593093503092 239.951807933789 L903.7593093503093 802.6544149492008 L878.0057670421648 802.6544149492009 L857.1135949837161 682.4176742276039 L857.1135949837158 119.71506721219201"/>
    <path d="M870.2339439446642 119.71506721219201 L870.2339439446642 682.4176742276039 L857.1135949837161 682.4176742276039"/>
    <path d="M870.2339439446642 682.4176742276039 L881.5723892811611 747.6716702360795 L894.2055826283572 747.6716702360795 L903.7593093503093 802.6544149492008"/>
    <path d="M894.2055826283572 747.6716702360795 L894.2055826283572 184.96906322066764"/>
    <path d="M886.7609440521708 104.98274471312152 L886.7609440521708 685.0309367793325"/>
    <path d="M894.2055826283572 727.8756479824901 L886.7609440521708 685.0309367793325"/>
    <path d="M886.7609440521708 685.0309367793325 L870.688020881023 685.0309367793325"/>
    <path d="M878.0057670421648 802.6544149492009 L878.0057670421648 820.0"/>
    <path d="M933.3333333333333 50.0 L978.6608996245019 50.0 L1011.6666666666666 239.95180793378904 L1011.6666666666666 820.0 L966.3391003754984 820.0 L933.3333333333333 630.048192066211 L933.3333333333333 50.0"/>
    <path d="M933.3333333333333 50.0 L941.1281212584374 94.85985909500205 L947.3216664982643 94.85985909500205 L944.0367768111928 75.95495880514738 L976.9772526227072 75.95495880514738 L1000.963223188807 213.99684912864166 L989.753982079023 213.99684912864166 L994.2638803170553 239.951807933789 L1011.6666666666666 239.95180793378904"/>
    <path d="M994.2638803170553 239.951807933789 L994.2638803170553 684.5130901603815 L966.3391003754984 684.5130901603814 L941.1281212584378 539.4211413215945 L941.1281212584374 94.85985909500205"/>
    <path d="M947.3216664982643 94.85985909500205 L947.3216664982641 539.4211413215945 L941.1281212584378 539.4211413215945"/>
    <path d="M947.3216664982641 539.4211413215945 L968.0227473772923 658.5581313552341 L989.753982079023 658.5581313552341 L994.2638803170553 684.5130901603815"/>
    <path d="M989.753982079023 658.5581313552341 L989.753982079023 213.99684912864166"/>
    <path d="M976.9772526227072 75.95495880514738 L976.9772526227072 656.0031508713583"/>
    <path d="M977.4212025464557 658.5581313552341 L976.9772526227072 656.0031508713583"/>
    <path d="M976.9772526227072 656.0031508713583 L967.5787974535441 656.0031508713583"/>
    <path d="M966.3391003754984 684.5130901603814 L966.3391003754984 820.0"/>
    <path d="M1021.6666666666666 50.0 L1066.9942329578348 50.0 L1100.0 239.95180793378904 L1100.0 820.0 L1054.672433708831 820.0 L1021.6666666666666 630.048192066211 L1021.6666666666666 50.0"/>
    <path d="M1021.6666666666666 50.0 L1036.2497141832998 133.92703727897114 L1043.1313353215685 133.92703727897114 L1033.5592160931012 78.8384416743811 L1065.1235401077329 78.8384416743811 L1088.1074505735655 211.11336625940794 L1074.0016594910458 211.11336625940794 L1079.0125877792123 239.951807933789 L1100.0 239.95180793378904"/>
    <path d="M1079.0125877792123 239.951807933789 L1079.012587779211 800.9811785144848 L1054.672433708831 800.9811785144848 L1036.2497141832991 694.9564078596669 L1036.2497141832998 133.92703727897114"/>
    <path d="M1043.1313353215685 133.92703727897114 L1043.1313353215683 694.9564078596669 L1036.2497141832991 694.9564078596669"/>
    <path d="M1043.1313353215683 694.9564078596669 L1056.5431265589345 772.1427368401038 L1074.0016594910458 772.1427368401037 L1079.012587779211 800.9811785144848"/>
    <path d="M1074.0016594910458 772.1427368401037 L1074.0016594910458 211.11336625940794"/>
    <path d="M1065.1235401077329 78.8384416743811 L1065.1235401077329 658.8866337405921"/>
    <path d="M1074.0016594910458 709.9811841492494 L1065.1235401077329 658.8866337405921"/>
    <path d="M1065.1235401077329 658.8866337405921 L1043.1313353215683 658.8866337405922"/>
    <path d="M1054.672433708831 800.9811785144848 L1054.672433708831 820.0"/>
  </g>
</svg>
