<svg version="1.1" width="1150" height="870" xmlns="http://www.w3.org/2000/svg">
  <!-- Seed: 6107685916892265858 -->
  <!-- Size: SvgSize.Size9x12 -->
  <!-- Params:
    draw: True
    slope: 100
    perspective_skew: [RangeFloat] min: 0.1 max: 0.3
    height: [RangeFloat] min: 0.5 max: 0.8
    wall_width: [RangeFloat] min: 0.1 max: 0.8
    wall_inset_left: [RangeFloat] min: 0.01 max: 0.1
    wall_inset_right: [RangeFloat] min: 0.01 max: 0.2
    wall_bottom_inset: [RangeFloat] min: 0.01 max: 0.4
    row: [RangeInt] min: 1 max: 30
    col: [RangeInt] min: 1 max: 40
    split_pad: [RangeInt] min: 5 max: 10
  -->
  <g stroke="black" fill="none">
    <path d="M50.0 50.0 L198.57070560533842 50.0 L218.33333333333334 114.29084698060174 L218.33333333333334 301.33333333333337 L69.76262772799488 301.3333333333333 L50.0 237.04248635273163 L50.0 50.0"/>
    <path d="M50.0 50.0 L57.514429174992706 74.44558602658257 L101.56756869213545 74.44558602658257 L99.91301473937787 69.06306926504865 L160.37744131043078 69.06306926504865 L168.4203185939555 95.22777771555306 L150.4660186628267 95.22777771555306 L156.32589388506184 114.29084698060174 L218.33333333333334 114.29084698060174"/>
    <path d="M156.32589388506184 114.29084698060174 L156.3258938850619 266.9090431077958 L69.76262772799488 266.9090431077957 L57.514429174992706 227.0637821537766 L57.514429174992706 74.44558602658257"/>
    <path d="M101.56756869213545 74.44558602658257 L101.56756869213547 227.06378215377663 L57.514429174992706 227.0637821537766"/>
    <path d="M101.56756869213547 227.06378215377663 L107.95589202290256 247.84597384274716 L150.4660186628267 247.8459738427471 L156.3258938850619 266.9090431077958"/>
    <path d="M150.4660186628267 247.8459738427471 L150.4660186628267 95.22777771555306"/>
    <path d="M160.37744131043078 69.06306926504865 L160.37744131043078 95.22777771555306"/>
    <path d="M69.76262772799488 266.9090431077957 L69.76262772799488 301.3333333333333"/>
    <path d="M226.33333333333334 50.0 L374.90403893867176 50.0 L394.6666666666667 114.29084698060174 L394.6666666666667 301.33333333333337 L246.09596106132824 301.3333333333333 L226.33333333333334 237.04248635273163 L226.33333333333334 50.0"/>
    <path d="M226.33333333333334 50.0 L233.03708528622255 71.80832918228735 L274.9010836705074 71.80832918228735 L273.76601103365863 68.11576449848599 L338.6087198704278 68.11576449848599 L347.2339889663414 96.1750824821157 L324.51417683891805 96.1750824821157 L330.0828561549586 114.29084698060174 L394.6666666666667 114.29084698060174"/>
    <path d="M330.0828561549586 114.29084698060174 L330.0828561549587 267.43842773034095 L246.09596106132824 267.4384277303409 L233.03708528622258 224.95590993202654 L233.03708528622255 71.80832918228735"/>
    <path d="M274.9010836705074 71.80832918228735 L274.9010836705074 224.95590993202654 L233.03708528622258 224.95590993202654"/>
    <path d="M274.9010836705074 224.95590993202654 L282.39128012957246 249.32266323185482 L324.51417683891805 249.32266323185488 L330.0828561549587 267.43842773034095"/>
    <path d="M324.51417683891805 249.32266323185488 L324.51417683891805 96.1750824821157"/>
    <path d="M338.6087198704278 68.11576449848599 L338.6087198704278 96.1750824821157"/>
    <path d="M246.09596106132824 267.4384277303409 L246.09596106132824 301.3333333333333"/>
    <path d="M402.6666666666667 50.0 L551.2373722720051 50.0 L571.0 114.29084698060174 L571.0 301.33333333333337 L422.4292943946615 301.3333333333333 L402.6666666666667 237.04248635273163 L402.6666666666667 50.0"/>
    <path d="M402.6666666666667 50.0 L406.3571706829397 62.00577333425158 L425.7149496470729 62.00577333425158 L424.5993851368773 58.37667156655601 L534.4545328139492 58.37667156655601 L549.0672815297894 105.91417541404573 L545.5462241574962 105.91417541404573 L548.1211636635736 114.29084698060174 L571.0 114.29084698060174"/>
    <path d="M548.1211636635736 114.29084698060174 L548.121163663574 292.7553813650732 L422.4292943946615 292.75538136507316 L406.3571706829395 240.47030771872306 L406.3571706829397 62.00577333425158"/>
    <path d="M425.7149496470729 62.00577333425158 L425.7149496470729 240.47030771872303 L406.3571706829395 240.47030771872306"/>
    <path d="M425.7149496470729 240.47030771872303 L439.2121338527176 284.37870979851726 L545.5462241574962 284.3787097985172 L548.121163663574 292.7553813650732"/>
    <path d="M545.5462241574962 284.3787097985172 L545.5462241574962 105.91417541404573"/>
    <path d="M534.4545328139492 58.37667156655601 L534.4545328139492 245.41915791928764"/>
    <path d="M427.23619705301985 245.41915791928764 L534.4545328139492 245.41915791928764"/>
    <path d="M545.5462241574962 281.5021242504252 L534.4545328139492 245.41915791928764"/>
    <path d="M422.4292943946615 292.75538136507316 L422.4292943946615 301.3333333333333"/>
    <path d="M579.0 50.0 L727.5707056053385 50.0 L747.3333333333334 114.29084698060174 L747.3333333333334 301.33333333333337 L598.762627727995 301.3333333333333 L579.0 237.04248635273163 L579.0 50.0"/>
    <path d="M579.0 50.0 L586.8276440083899 75.46452172699396 L634.8501553061535 75.46452172699396 L633.4103857409407 70.78073138906726 L685.9360687507523 70.78073138906726 L692.9229475923927 93.5101155915344 L681.2646956562093 93.5101155915344 L687.6525700993861 114.29084698060174 L747.3333333333334 114.29084698060174"/>
    <path d="M687.6525700993861 114.29084698060174 L687.6525700993864 270.5166601179372 L598.762627727995 270.51666011793714 L586.8276440083899 231.6903348643294 L586.8276440083899 75.46452172699396"/>
    <path d="M634.8501553061535 75.46452172699396 L634.8501553061534 231.69033486432943 L586.8276440083899 231.6903348643294"/>
    <path d="M634.8501553061534 231.69033486432943 L640.3972645825813 249.73592872886988 L681.2646956562093 249.73592872886988 L687.6525700993864 270.5166601179372"/>
    <path d="M681.2646956562093 249.73592872886988 L681.2646956562093 93.5101155915344"/>
    <path d="M685.9360687507523 70.78073138906726 L685.9360687507523 93.5101155915344"/>
    <path d="M598.762627727995 270.51666011793714 L598.762627727995 301.3333333333333"/>
    <path d="M755.3333333333334 50.0 L903.9040389386718 50.0 L923.6666666666667 114.29084698060174 L923.6666666666667 301.33333333333337 L775.0959610613282 301.3333333333333 L755.3333333333334 237.04248635273163 L755.3333333333334 50.0"/>
    <path d="M755.3333333333334 50.0 L760.8640884265058 67.99239120811075 L798.3074269326911 67.99239120811075 L797.7573223437754 66.2028169452102 L871.4413509367434 66.20281694521017 L881.2426776562247 98.08803003539143 L861.569400450903 98.08803003539143 L866.5500509551599 114.29084698060174 L923.6666666666667 114.29084698060174"/>
    <path d="M866.5500509551599 114.29084698060174 L866.5500509551599 295.0732779211413 L775.0959610613282 295.07327792114125 L760.864088426506 248.7748221486503 L760.8640884265058 67.99239120811075"/>
    <path d="M798.3074269326911 67.99239120811075 L798.3074269326908 248.7748221486503 L760.864088426506 248.7748221486503"/>
    <path d="M798.3074269326908 248.7748221486503 L807.5586490632562 278.870460975931 L861.569400450903 278.870460975931 L866.5500509551599 295.0732779211413"/>
    <path d="M861.569400450903 278.870460975931 L861.569400450903 98.08803003539143"/>
    <path d="M871.4413509367434 66.20281694521017 L871.4413509367434 98.08803003539143"/>
    <path d="M799.681626509578 253.24530329794183 L861.569400450903 253.2453032979418"/>
    <path d="M775.0959610613282 295.07327792114125 L775.0959610613282 301.3333333333333"/>
    <path d="M931.6666666666667 50.0 L1080.237372272005 50.0 L1100.0 114.29084698060174 L1100.0 301.33333333333337 L951.4292943946617 301.3333333333333 L931.6666666666667 237.04248635273163 L931.6666666666667 50.0"/>
    <path d="M931.6666666666667 50.0 L937.6249498651825 69.38320544490284 L978.1687114505409 69.38320544490284 L977.6034918687013 67.5444598010217 L1045.0866743033223 67.5444598010217 L1054.0631747979655 96.74638717958001 L1040.084877429333 96.74638717958001 L1045.4779410460087 114.29084698060174 L1100.0 114.29084698060174"/>
    <path d="M1045.4779410460087 114.29084698060174 L1045.4779410460087 240.38482317067852 L951.4292943946617 240.38482317067843 L937.6249498651825 195.4771816349796 L937.6249498651825 69.38320544490284"/>
    <path d="M978.1687114505409 69.38320544490284 L978.168711450541 195.4771816349796 L937.6249498651825 195.4771816349796"/>
    <path d="M978.168711450541 195.4771816349796 L986.5799923633441 222.84036336965676 L1040.084877429333 222.84036336965676 L1045.4779410460087 240.38482317067852"/>
    <path d="M1040.084877429333 222.84036336965676 L1040.084877429333 96.74638717958001"/>
    <path d="M1045.0866743033223 67.5444598010217 L1045.0866743033223 96.74638717958001"/>
    <path d="M951.4292943946617 240.38482317067843 L951.4292943946617 301.3333333333333"/>
    <path d="M50.0 309.33333333333337 L198.5707056053385 309.33333333333337 L218.33333333333334 373.6241803139351 L218.33333333333334 560.6666666666667 L69.76262772799488 560.6666666666667 L50.0 496.37581968606503 L50.0 309.33333333333337"/>
    <path d="M50.0 309.33333333333337 L57.53944390152668 333.8602960866343 L104.5884121955443 333.8602960866343 L103.30734366884323 329.6927844704975 L157.7801126861463 329.6927844704975 L165.02598966449008 353.2647291767711 L142.32998759397984 353.2647291767711 L148.58836296880534 373.6241803139351 L218.33333333333334 373.6241803139351"/>
    <path d="M148.58836296880534 373.6241803139351 L148.5883629688054 527.6914993634693 L69.76262772799488 527.6914993634693 L57.53944390152666 487.92761513616864 L57.53944390152668 333.8602960866343"/>
    <path d="M104.5884121955443 333.8602960866343 L104.5884121955444 487.92761513616864 L57.53944390152666 487.92761513616864"/>
    <path d="M104.5884121955444 487.92761513616864 L110.55322064718706 507.33204822630535 L142.32998759397984 507.33204822630535 L148.5883629688054 527.6914993634693"/>
    <path d="M142.32998759397984 507.33204822630535 L142.32998759397984 353.2647291767711"/>
    <path d="M157.7801126861463 329.6927844704975 L157.7801126861463 353.2647291767711"/>
    <path d="M69.76262772799488 527.6914993634693 L69.76262772799488 560.6666666666667"/>
    <path d="M226.33333333333334 309.33333333333337 L374.9040389386718 309.33333333333337 L394.6666666666667 373.6241803139351 L394.6666666666667 560.6666666666667 L246.09596106132827 560.6666666666667 L226.33333333333334 496.37581968606503 L226.33333333333334 309.33333333333337"/>
    <path d="M226.33333333333334 309.33333333333337 L229.64095021967628 320.09351634326254 L242.5439286898102 320.09351634326254 L240.95264450208805 314.91682579261385 L363.7173931671583 314.91682579261396 L380.047355497912 368.0406878546546 L350.4108430352473 368.0406878546546 L352.12717573386806 373.6241803139351 L394.6666666666667 373.6241803139351"/>
    <path d="M352.12717573386806 373.6241803139351 L352.12717573386817 545.2312729778358 L246.09596106132827 545.2312729778359 L229.64095021967614 491.70060900716334 L229.64095021967628 320.09351634326254"/>
    <path d="M242.5439286898102 320.09351634326254 L242.54392868981023 491.70060900716334 L229.64095021967614 491.70060900716334"/>
    <path d="M242.54392868981023 491.70060900716334 L257.28260683284157 539.6477805185555 L350.4108430352473 539.6477805185555 L352.12717573386817 545.2312729778358"/>
    <path d="M350.4108430352473 539.6477805185555 L350.4108430352473 368.0406878546546"/>
    <path d="M363.7173931671583 314.91682579261396 L363.7173931671583 368.0406878546546"/>
    <path d="M245.69739361698842 501.9593121453455 L350.4108430352473 501.95931214534556"/>
    <path d="M246.09596106132827 545.2312729778359 L246.09596106132827 560.6666666666667"/>
    <path d="M402.6666666666667 309.33333333333337 L551.2373722720048 309.33333333333337 L571.0 373.6241803139351 L571.0 560.6666666666667 L422.4292943946615 560.6666666666667 L402.6666666666667 496.37581968606503 L402.6666666666667 309.33333333333337"/>
    <path d="M402.6666666666667 309.33333333333337 L410.6413567041262 335.27621825595844 L461.85061262225696 335.27621825595844 L460.6876924879839 331.49306140899193 L506.8398862570614 331.49306140899193 L512.9789741786827 351.46445223827664 L510.46181262478456 351.46445223827664 L517.2735825279709 373.6241803139351 L571.0 373.6241803139351"/>
    <path d="M517.2735825279709 373.6241803139351 L517.2735825279706 520.8104118723645 L422.4292943946615 520.8104118723645 L410.6413567041263 482.46244981438787 L410.6413567041262 335.27621825595844"/>
    <path d="M461.85061262225696 335.27621825595844 L461.85061262225713 482.46244981438787 L410.6413567041263 482.46244981438787"/>
    <path d="M461.85061262225713 482.46244981438787 L466.8267804096057 498.65068379670606 L510.46181262478456 498.65068379670606 L517.2735825279706 520.8104118723645"/>
    <path d="M510.46181262478456 498.65068379670606 L510.46181262478456 351.46445223827664"/>
    <path d="M506.8398862570614 331.49306140899193 L506.8398862570614 498.65068379670606"/>
    <path d="M422.4292943946615 520.8104118723645 L422.4292943946615 560.6666666666667"/>
    <path d="M579.0 309.33333333333337 L727.5707056053387 309.33333333333337 L747.3333333333334 373.6241803139351 L747.3333333333334 560.6666666666667 L598.7626277279949 560.6666666666667 L579.0 496.37581968606503 L579.0 309.33333333333337"/>
    <path d="M579.0 309.33333333333337 L588.6573235825998 340.750082221011 L646.3616836685071 340.750082221011 L644.3800979240874 334.3036810831211 L677.5420833576102 334.3036810831212 L681.953235409246 348.6538325641475 L660.4430411942176 348.6538325641475 L668.1187790323975 373.6241803139351 L747.3333333333334 373.6241803139351"/>
    <path d="M668.1187790323975 373.6241803139351 L668.1187790323975 521.2164498286523 L598.7626277279949 521.2164498286522 L588.6573235826 488.34235173572813 L588.6573235825998 340.750082221011"/>
    <path d="M646.3616836685071 340.750082221011 L646.3616836685069 488.34235173572813 L588.6573235826 488.34235173572813"/>
    <path d="M646.3616836685069 488.34235173572813 L648.7912499757225 496.2461020788646 L660.4430411942176 496.2461020788646 L668.1187790323975 521.2164498286523"/>
    <path d="M660.4430411942176 496.2461020788646 L660.4430411942176 348.6538325641475"/>
    <path d="M677.5420833576102 334.3036810831212 L677.5420833576102 348.6538325641475"/>
    <path d="M598.7626277279949 521.2164498286522 L598.7626277279949 560.6666666666667"/>
    <path d="M755.3333333333334 309.33333333333337 L903.9040389386718 309.33333333333337 L923.6666666666667 373.6241803139351 L923.6666666666667 560.6666666666667 L775.0959610613286 560.6666666666667 L755.3333333333334 496.37581968606503 L755.3333333333334 309.33333333333337"/>
    <path d="M755.3333333333334 309.33333333333337 L763.7682007715218 336.7732456382154 L820.7600126744858 336.7732456382154 L819.906101102349 333.99534084869015 L854.4931829017587 333.99534084869015 L859.0938988976511 348.9621727985784 L835.2078904577364 348.9621727985784 L842.7888463237882 373.6241803139351 L923.6666666666667 373.6241803139351"/>
    <path d="M842.7888463237882 373.6241803139351 L842.7888463237881 488.05108819498037 L775.0959610613286 488.0510881949804 L763.7682007715213 451.2001535192608 L763.7682007715218 336.7732456382154"/>
    <path d="M820.7600126744858 336.7732456382154 L820.7600126744852 451.20015351926077 L763.7682007715213 451.2001535192608"/>
    <path d="M820.7600126744852 451.20015351926077 L824.5068170982408 463.38908067962365 L835.2078904577364 463.38908067962376 L842.7888463237881 488.05108819498037"/>
    <path d="M835.2078904577364 463.38908067962376 L835.2078904577364 348.9621727985784"/>
    <path d="M854.4931829017587 333.99534084869015 L854.4931829017587 348.9621727985784"/>
    <path d="M775.0959610613286 488.0510881949804 L775.0959610613286 560.6666666666667"/>
    <path d="M931.6666666666667 309.33333333333337 L1080.2373722720047 309.33333333333337 L1100.0 373.6241803139351 L1100.0 560.6666666666667 L951.4292943946622 560.6666666666667 L931.6666666666667 496.37581968606503 L931.6666666666667 309.33333333333337"/>
    <path d="M931.6666666666667 309.33333333333337 L937.5355426730782 328.4256835242856 L973.5477847884649 328.4256835242856 L972.4691972287371 324.9168734251398 L1049.0154186033005 324.91687342513967 L1059.1974694379296 358.0406402221288 L1050.012684537613 358.0406402221288 L1054.8029729842963 373.6241803139351 L1100.0 373.6241803139351"/>
    <path d="M1054.8029729842963 373.6241803139351 L1054.8029729842965 531.0554376692417 L951.4292943946622 531.0554376692417 L937.5355426730783 485.8569408795921 L937.5355426730782 328.4256835242856"/>
    <path d="M973.5477847884649 328.4256835242856 L973.5477847884652 485.8569408795921 L937.5355426730783 485.8569408795921"/>
    <path d="M973.5477847884652 485.8569408795921 L982.651248063366 515.4718975774354 L1050.012684537613 515.4718975774354 L1054.8029729842965 531.0554376692417"/>
    <path d="M1050.012684537613 515.4718975774354 L1050.012684537613 358.0406402221288"/>
    <path d="M1049.0154186033005 324.91687342513967 L1049.0154186033005 511.9593597778713"/>
    <path d="M981.5715146304834 511.9593597778714 L1049.0154186033005 511.9593597778713"/>
    <path d="M1050.012684537613 515.2036182066746 L1049.0154186033005 511.9593597778713"/>
    <path d="M951.4292943946622 531.0554376692417 L951.4292943946622 560.6666666666667"/>
    <path d="M50.0 568.6666666666667 L198.57070560533842 568.6666666666667 L218.33333333333334 632.9575136472685 L218.33333333333334 820.0000000000001 L69.76262772799491 820.0000000000002 L50.0 755.7091530193984 L50.0 568.6666666666667"/>
    <path d="M50.0 568.6666666666667 L55.82413360888231 587.6134630035132 L90.79001108186283 587.6134630035132 L89.61698023826457 583.7974144745783 L168.25593089764195 583.7974144745784 L178.71635309506877 617.8267658393568 L168.06285173445877 617.8267658393568 L172.71395449974287 632.9575136472685 L218.33333333333334 632.9575136472685"/>
    <path d="M172.71395449974287 632.9575136472685 L172.71395449974284 784.1226501004878 L69.76262772799491 784.1226501004879 L55.82413360888231 738.7785994567324 L55.82413360888231 587.6134630035132"/>
    <path d="M90.79001108186283 587.6134630035132 L90.79001108186289 738.7785994567324 L55.82413360888231 738.7785994567324"/>
    <path d="M90.79001108186289 738.7785994567324 L100.07740243569137 768.9919022925762 L168.06285173445877 768.9919022925761 L172.71395449974284 784.1226501004878"/>
    <path d="M168.06285173445877 768.9919022925761 L168.06285173445877 617.8267658393568"/>
    <path d="M168.25593089764195 583.7974144745784 L168.25593089764195 617.8267658393568"/>
    <path d="M69.76262772799491 784.1226501004879 L69.76262772799491 820.0000000000002"/>
    <path d="M226.33333333333334 568.6666666666667 L374.9040389386719 568.6666666666667 L394.6666666666667 632.9575136472685 L394.6666666666667 820.0000000000001 L246.09596106132818 820.0000000000002 L226.33333333333334 755.7091530193984 L226.33333333333334 568.6666666666667"/>
    <path d="M226.33333333333334 568.6666666666667 L228.37069274193226 575.294508054235 L238.60310194954667 575.294508054235 L237.92684056566725 573.094526465335 L366.0327277557762 573.094526465335 L383.0731594343328 628.5296538486002 L372.1167713801595 628.5296538486002 L373.4778694048791 632.9575136472685 L394.6666666666667 632.9575136472685"/>
    <path d="M373.4778694048791 632.9575136472685 L373.4778694048792 772.9254632706622 L246.09596106132818 772.9254632706625 L228.37069274193212 715.2624576776291 L228.37069274193226 575.294508054235"/>
    <path d="M238.60310194954667 575.294508054235 L238.60310194954658 715.2624576776291 L228.37069274193212 715.2624576776291"/>
    <path d="M238.60310194954658 715.2624576776291 L254.9672722442235 768.4976034719942 L372.1167713801595 768.4976034719941 L373.4778694048792 772.9254632706622"/>
    <path d="M372.1167713801595 768.4976034719941 L372.1167713801595 628.5296538486002"/>
    <path d="M366.0327277557762 573.094526465335 L366.0327277557762 760.1370128180666"/>
    <path d="M252.3972759159813 760.1370128180666 L366.0327277557762 760.1370128180666"/>
    <path d="M368.6027240840184 768.4976034719941 L366.0327277557762 760.1370128180666"/>
    <path d="M246.09596106132818 772.9254632706625 L246.09596106132818 820.0000000000002"/>
    <path d="M402.6666666666667 568.6666666666667 L551.2373722720048 568.6666666666667 L571.0 632.9575136472685 L571.0 820.0000000000001 L422.42929439466184 820.0000000000002 L402.6666666666667 755.7091530193984 L402.6666666666667 568.6666666666667"/>
    <path d="M402.6666666666667 568.6666666666667 L410.9185591610972 595.5113335278606 L467.27769434732943 595.5113335278606 L466.5226001161843 593.0548966441305 L502.3750353490593 593.0548966441304 L507.1440665504824 608.5692836698045 L496.369858267627 608.5692836698045 L503.86665653091296 632.9575136472685 L571.0 632.9575136472685"/>
    <path d="M503.86665653091296 632.9575136472685 L503.8666565309125 748.8107587949171 L422.42929439466184 748.8107587949172 L410.91855916109716 711.3645786755093 L410.9185591610972 595.5113335278606"/>
    <path d="M467.27769434732943 595.5113335278606 L467.2776943473294 711.3645786755093 L410.91855916109716 711.3645786755093"/>
    <path d="M467.2776943473294 711.3645786755093 L471.2916313176076 724.4225288174531 L496.369858267627 724.4225288174531 L503.8666565309125 748.8107587949171"/>
    <path d="M496.369858267627 724.4225288174531 L496.369858267627 608.5692836698045"/>
    <path d="M502.3750353490593 593.0548966441304 L502.3750353490593 608.5692836698045"/>
    <path d="M422.42929439466184 748.8107587949172 L422.42929439466184 820.0000000000002"/>
    <path d="M579.0 568.6666666666667 L727.570705605339 568.6666666666667 L747.3333333333334 632.9575136472685 L747.3333333333334 820.0000000000001 L598.7626277279949 820.0000000000002 L579.0 755.7091530193984 L579.0 568.6666666666667"/>
    <path d="M579.0 568.6666666666667 L587.3344932894892 595.7800465324606 L643.6848968365723 595.7800465324606 L642.846040342277 593.0511182109992 L678.7159388534492 593.0511182109993 L683.4872929910565 608.5730621029359 L669.9504459907535 608.5730621029359 L677.446082785947 632.9575136472685 L747.3333333333334 632.9575136472685"/>
    <path d="M677.446082785947 632.9575136472685 L677.4460827859469 798.1743995363768 L598.7626277279949 798.1743995363769 L587.3344932894892 760.996932421569 L587.3344932894892 595.7800465324606"/>
    <path d="M643.6848968365723 595.7800465324606 L643.6848968365726 760.996932421569 L587.3344932894892 760.996932421569"/>
    <path d="M643.6848968365726 760.996932421569 L647.6173944798838 773.7899479920442 L669.9504459907535 773.7899479920442 L677.4460827859469 798.1743995363768"/>
    <path d="M669.9504459907535 773.7899479920442 L669.9504459907535 608.5730621029359"/>
    <path d="M678.7159388534492 593.0511182109993 L678.7159388534492 608.5730621029359"/>
    <path d="M598.7626277279949 798.1743995363769 L598.7626277279949 820.0000000000002"/>
    <path d="M755.3333333333334 568.6666666666667 L903.9040389386715 568.6666666666667 L923.6666666666667 632.9575136472685 L923.6666666666667 820.0000000000001 L775.0959610613282 820.0000000000002 L755.3333333333334 755.7091530193984 L755.3333333333334 568.6666666666667"/>
    <path d="M755.3333333333334 568.6666666666667 L757.0565772447209 574.2726423568502 L768.371198735702 574.2726423568502 L768.1530069239077 573.5628310616343 L894.0944695472855 573.5628310616343 L910.8469930760924 628.0613492523009 L883.5813339436455 628.0613492523009 L885.086386043239 632.9575136472685 L923.6666666666667 632.9575136472685"/>
    <path d="M885.086386043239 632.9575136472685 L885.0863860432394 755.4495742400602 L775.0959610613282 755.4495742400603 L757.0565772447211 696.7647029496419 L757.0565772447209 574.2726423568502"/>
    <path d="M768.371198735702 574.2726423568502 L768.3711987357024 696.7647029496419 L757.0565772447211 696.7647029496419"/>
    <path d="M768.3711987357024 696.7647029496419 L784.905530452716 750.5534098450927 L883.5813339436455 750.5534098450927 L885.0863860432394 755.4495742400602"/>
    <path d="M883.5813339436455 750.5534098450927 L883.5813339436455 628.0613492523009"/>
    <path d="M894.0944695472855 573.5628310616343 L894.0944695472855 628.0613492523009"/>
    <path d="M775.0959610613282 755.4495742400603 L775.0959610613282 820.0000000000002"/>
    <path d="M931.6666666666667 568.6666666666667 L1080.2373722720054 568.6666666666667 L1100.0 632.9575136472685 L1100.0 820.0000000000001 L951.4292943946617 820.0000000000002 L931.6666666666667 755.7091530193984 L931.6666666666667 568.6666666666667"/>
    <path d="M931.6666666666667 568.6666666666667 L939.3043288719656 593.5131485661752 L989.2600865493658 593.5131485661752 L988.2674559997085 590.2839697517669 L1036.9266462502453 590.2839697517669 L1043.3992106669582 611.3402105621683 L1023.4665768260136 611.3402105621683 L1030.1116084816542 632.9575136472685 L1100.0 632.9575136472685"/>
    <path d="M1030.1116084816542 632.9575136472685 L1030.111608481655 805.8569277439075 L951.4292943946617 805.8569277439075 L939.304328871965 766.4125626628141 L939.3043288719656 593.5131485661752"/>
    <path d="M989.2600865493658 593.5131485661752 L989.2600865493664 766.4125626628141 L939.304328871965 766.4125626628141"/>
    <path d="M989.2600865493664 766.4125626628141 L994.7400204164211 784.2396246588072 L1023.4665768260136 784.2396246588072 L1030.111608481655 805.8569277439075"/>
    <path d="M1023.4665768260136 784.2396246588072 L1023.4665768260136 611.3402105621683"/>
    <path d="M1036.9266462502453 590.2839697517669 L1036.9266462502453 611.3402105621683"/>
    <path d="M992.6149531171696 777.3264561044986 L1023.4665768260136 777.3264561044986"/>
    <path d="M951.4292943946617 805.8569277439075 L951.4292943946617 820.0000000000002"/>
  </g>
</svg>
