<svg version="1.1" width="1150" height="870" xmlns="http://www.w3.org/2000/svg">
  <!-- Seed: 5449679546512980259 -->
  <!-- Size: SvgSize.Size9x12 -->
  <!-- Params:
    draw: True
    slope: 100
    skew_height: [RangeFloat] min: 0.1 max: 0.3
    perspective_skew: [RangeFloat] min: 0.2 max: 0.5
    wall_width: [RangeFloat] min: 0.1 max: 0.8
    wall_inset_left: [RangeFloat] min: 0.01 max: 0.1
    wall_inset_right: [RangeFloat] min: 0.01 max: 0.2
    wall_bottom_inset: [RangeFloat] min: 0.01 max: 0.4
    row: [RangeInt] min: 1 max: 20
    col: [RangeInt] min: 1 max: 30
    height_adjust: [RangeFloat] min: -0.2 max: 0.1
    split_pad_x: [RangeFloat] min: -0.05 max: 0.2
    split_pad_y: [RangeInt] min: -10 max: 10
  -->
  <g stroke="black" fill="none">
    <path d="M50.0 611.0 L116.0 611.0"/>
    <path d="M116.0 611.0 L126.0 658.0"/>
    <path d="M126.0 658.0 L126.0 820.0"/>
    <path d="M126.0 820.0 L61.0 820.0"/>
    <path d="M61.0 820.0 L50.0 773.0"/>
    <path d="M50.0 773.0 L50.0 611.0"/>
    <path d="M50.0 611.0 L52.0 621.0"/>
    <path d="M52.0 621.0 L61.0 621.0"/>
    <path d="M61.0 621.0 L60.0 618.0"/>
    <path d="M60.0 618.0 L108.0 618.0"/>
    <path d="M108.0 618.0 L116.0 652.0"/>
    <path d="M116.0 652.0 L104.0 652.0"/>
    <path d="M104.0 652.0 L106.0 658.0"/>
    <path d="M106.0 658.0 L126.0 658.0"/>
    <path d="M106.0 658.0 L106.0 781.0"/>
    <path d="M106.0 781.0 L61.0 781.0"/>
    <path d="M61.0 781.0 L52.0 744.0"/>
    <path d="M52.0 744.0 L52.0 621.0"/>
    <path d="M61.0 621.0 L61.0 744.0"/>
    <path d="M61.0 744.0 L52.0 744.0"/>
    <path d="M61.0 744.0 L68.0 775.0"/>
    <path d="M68.0 775.0 L104.0 775.0"/>
    <path d="M104.0 775.0 L106.0 781.0"/>
    <path d="M104.0 775.0 L104.0 652.0"/>
    <path d="M108.0 618.0 L108.0 652.0"/>
    <path d="M61.0 781.0 L61.0 820.0"/>
    <path d="M125.0 640.0 L191.0 640.0"/>
    <path d="M191.0 640.0 L201.0 686.0"/>
    <path d="M201.0 686.0 L201.0 820.0"/>
    <path d="M201.0 820.0 L136.0 820.0"/>
    <path d="M136.0 820.0 L126.0 780.0"/>
    <path d="M125.0 652.0 L125.0 640.0"/>
    <path d="M125.0 640.0 L130.0 662.0"/>
    <path d="M130.0 662.0 L155.0 662.0"/>
    <path d="M155.0 662.0 L155.0 658.0"/>
    <path d="M155.0 658.0 L169.0 658.0"/>
    <path d="M169.0 658.0 L172.0 668.0"/>
    <path d="M172.0 668.0 L165.0 668.0"/>
    <path d="M165.0 668.0 L169.0 686.0"/>
    <path d="M169.0 686.0 L201.0 686.0"/>
    <path d="M169.0 686.0 L169.0 815.0"/>
    <path d="M169.0 815.0 L136.0 815.0"/>
    <path d="M136.0 815.0 L130.0 790.0"/>
    <path d="M130.0 790.0 L130.0 662.0"/>
    <path d="M155.0 662.0 L155.0 790.0"/>
    <path d="M155.0 790.0 L130.0 790.0"/>
    <path d="M155.0 790.0 L157.0 797.0"/>
    <path d="M157.0 797.0 L165.0 797.0"/>
    <path d="M165.0 797.0 L169.0 815.0"/>
    <path d="M165.0 797.0 L165.0 668.0"/>
    <path d="M169.0 658.0 L169.0 668.0"/>
    <path d="M156.0 791.0 L165.0 791.0"/>
    <path d="M136.0 815.0 L136.0 820.0"/>
    <path d="M200.0 643.0 L266.0 643.0"/>
    <path d="M266.0 643.0 L276.0 690.0"/>
    <path d="M276.0 690.0 L276.0 820.0"/>
    <path d="M276.0 820.0 L210.0 820.0"/>
    <path d="M210.0 820.0 L201.0 780.0"/>
    <path d="M200.0 680.0 L200.0 643.0"/>
    <path d="M200.0 643.0 L202.0 653.0"/>
    <path d="M202.0 653.0 L214.0 653.0"/>
    <path d="M214.0 653.0 L214.0 652.0"/>
    <path d="M214.0 652.0 L256.0 652.0"/>
    <path d="M256.0 652.0 L262.0 681.0"/>
    <path d="M262.0 681.0 L251.0 681.0"/>
    <path d="M251.0 681.0 L253.0 690.0"/>
    <path d="M253.0 690.0 L276.0 690.0"/>
    <path d="M253.0 690.0 L253.0 789.0"/>
    <path d="M253.0 789.0 L210.0 789.0"/>
    <path d="M210.0 789.0 L202.0 752.0"/>
    <path d="M202.0 752.0 L202.0 653.0"/>
    <path d="M214.0 653.0 L214.0 752.0"/>
    <path d="M214.0 752.0 L202.0 752.0"/>
    <path d="M214.0 752.0 L220.0 780.0"/>
    <path d="M220.0 780.0 L251.0 780.0"/>
    <path d="M251.0 780.0 L253.0 789.0"/>
    <path d="M251.0 780.0 L251.0 681.0"/>
    <path d="M256.0 652.0 L256.0 681.0"/>
    <path d="M210.0 789.0 L210.0 820.0"/>
    <path d="M275.0 637.0 L340.0 637.0"/>
    <path d="M340.0 637.0 L351.0 684.0"/>
    <path d="M351.0 684.0 L351.0 820.0"/>
    <path d="M351.0 820.0 L285.0 820.0"/>
    <path d="M285.0 820.0 L276.0 780.0"/>
    <path d="M275.0 683.0 L275.0 637.0"/>
    <path d="M275.0 637.0 L279.0 656.0"/>
    <path d="M279.0 656.0 L298.0 656.0"/>
    <path d="M298.0 656.0 L297.0 651.0"/>
    <path d="M297.0 651.0 L324.0 651.0"/>
    <path d="M324.0 651.0 L328.0 670.0"/>
    <path d="M328.0 670.0 L322.0 670.0"/>
    <path d="M322.0 670.0 L325.0 684.0"/>
    <path d="M325.0 684.0 L351.0 684.0"/>
    <path d="M325.0 684.0 L325.0 789.0"/>
    <path d="M325.0 789.0 L285.0 789.0"/>
    <path d="M285.0 789.0 L279.0 760.0"/>
    <path d="M279.0 760.0 L279.0 656.0"/>
    <path d="M298.0 656.0 L298.0 760.0"/>
    <path d="M298.0 760.0 L279.0 760.0"/>
    <path d="M298.0 760.0 L302.0 775.0"/>
    <path d="M302.0 775.0 L322.0 775.0"/>
    <path d="M322.0 775.0 L325.0 789.0"/>
    <path d="M322.0 775.0 L322.0 670.0"/>
    <path d="M324.0 651.0 L324.0 670.0"/>
    <path d="M285.0 789.0 L285.0 820.0"/>
    <path d="M350.0 665.0 L415.0 665.0"/>
    <path d="M415.0 665.0 L426.0 712.0"/>
    <path d="M426.0 712.0 L426.0 820.0"/>
    <path d="M426.0 820.0 L360.0 820.0"/>
    <path d="M360.0 820.0 L351.0 780.0"/>
    <path d="M350.0 677.0 L350.0 665.0"/>
    <path d="M350.0 665.0 L351.0 671.0"/>
    <path d="M351.0 671.0 L355.0 671.0"/>
    <path d="M355.0 671.0 L354.0 668.0"/>
    <path d="M354.0 668.0 L412.0 668.0"/>
    <path d="M412.0 668.0 L421.0 709.0"/>
    <path d="M421.0 709.0 L414.0 709.0"/>
    <path d="M414.0 709.0 L415.0 712.0"/>
    <path d="M415.0 712.0 L426.0 712.0"/>
    <path d="M415.0 712.0 L415.0 782.0"/>
    <path d="M415.0 782.0 L360.0 782.0"/>
    <path d="M360.0 782.0 L351.0 742.0"/>
    <path d="M351.0 683.0 L351.0 671.0"/>
    <path d="M355.0 671.0 L355.0 740.0"/>
    <path d="M355.0 740.0 L351.0 740.0"/>
    <path d="M355.0 740.0 L363.0 779.0"/>
    <path d="M363.0 779.0 L414.0 779.0"/>
    <path d="M414.0 779.0 L415.0 782.0"/>
    <path d="M414.0 779.0 L414.0 709.0"/>
    <path d="M412.0 668.0 L412.0 776.0"/>
    <path d="M363.0 776.0 L412.0 776.0"/>
    <path d="M413.0 779.0 L412.0 776.0"/>
    <path d="M360.0 782.0 L360.0 820.0"/>
    <path d="M424.0 630.0 L490.0 630.0"/>
    <path d="M490.0 630.0 L501.0 677.0"/>
    <path d="M501.0 677.0 L501.0 820.0"/>
    <path d="M501.0 820.0 L435.0 820.0"/>
    <path d="M435.0 820.0 L426.0 780.0"/>
    <path d="M424.0 706.0 L424.0 630.0"/>
    <path d="M424.0 630.0 L426.0 636.0"/>
    <path d="M426.0 636.0 L433.0 636.0"/>
    <path d="M433.0 636.0 L432.0 635.0"/>
    <path d="M432.0 635.0 L485.0 635.0"/>
    <path d="M485.0 635.0 L493.0 672.0"/>
    <path d="M493.0 672.0 L489.0 672.0"/>
    <path d="M489.0 672.0 L490.0 677.0"/>
    <path d="M490.0 677.0 L501.0 677.0"/>
    <path d="M490.0 677.0 L490.0 817.0"/>
    <path d="M490.0 817.0 L435.0 817.0"/>
    <path d="M435.0 817.0 L426.0 777.0"/>
    <path d="M426.0 712.0 L426.0 636.0"/>
    <path d="M433.0 636.0 L433.0 777.0"/>
    <path d="M433.0 777.0 L426.0 777.0"/>
    <path d="M433.0 777.0 L441.0 813.0"/>
    <path d="M441.0 813.0 L489.0 813.0"/>
    <path d="M489.0 813.0 L490.0 817.0"/>
    <path d="M489.0 813.0 L489.0 672.0"/>
    <path d="M485.0 635.0 L485.0 778.0"/>
    <path d="M433.0 778.0 L485.0 778.0"/>
    <path d="M489.0 799.0 L485.0 778.0"/>
    <path d="M435.0 817.0 L435.0 820.0"/>
    <path d="M499.0 660.0 L565.0 660.0"/>
    <path d="M565.0 660.0 L576.0 707.0"/>
    <path d="M576.0 707.0 L576.0 820.0"/>
    <path d="M576.0 820.0 L510.0 820.0"/>
    <path d="M510.0 820.0 L501.0 780.0"/>
    <path d="M499.0 670.0 L499.0 660.0"/>
    <path d="M499.0 660.0 L501.0 666.0"/>
    <path d="M501.0 666.0 L507.0 666.0"/>
    <path d="M507.0 666.0 L507.0 665.0"/>
    <path d="M507.0 665.0 L560.0 665.0"/>
    <path d="M560.0 665.0 L568.0 702.0"/>
    <path d="M568.0 702.0 L562.0 702.0"/>
    <path d="M562.0 702.0 L563.0 707.0"/>
    <path d="M563.0 707.0 L576.0 707.0"/>
    <path d="M563.0 707.0 L563.0 813.0"/>
    <path d="M563.0 813.0 L510.0 813.0"/>
    <path d="M510.0 813.0 L501.0 773.0"/>
    <path d="M501.0 676.0 L501.0 666.0"/>
    <path d="M507.0 666.0 L507.0 772.0"/>
    <path d="M507.0 772.0 L501.0 772.0"/>
    <path d="M507.0 772.0 L515.0 809.0"/>
    <path d="M515.0 809.0 L562.0 809.0"/>
    <path d="M562.0 809.0 L563.0 813.0"/>
    <path d="M562.0 809.0 L562.0 702.0"/>
    <path d="M560.0 665.0 L560.0 778.0"/>
    <path d="M509.0 778.0 L560.0 778.0"/>
    <path d="M562.0 789.0 L560.0 778.0"/>
    <path d="M510.0 813.0 L510.0 820.0"/>
    <path d="M574.0 639.0 L640.0 639.0"/>
    <path d="M640.0 639.0 L651.0 686.0"/>
    <path d="M651.0 686.0 L651.0 820.0"/>
    <path d="M651.0 820.0 L585.0 820.0"/>
    <path d="M585.0 820.0 L576.0 780.0"/>
    <path d="M574.0 701.0 L574.0 639.0"/>
    <path d="M574.0 639.0 L578.0 656.0"/>
    <path d="M578.0 656.0 L601.0 656.0"/>
    <path d="M601.0 656.0 L601.0 655.0"/>
    <path d="M601.0 655.0 L621.0 655.0"/>
    <path d="M621.0 655.0 L624.0 670.0"/>
    <path d="M624.0 670.0 L618.0 670.0"/>
    <path d="M618.0 670.0 L621.0 686.0"/>
    <path d="M621.0 686.0 L651.0 686.0"/>
    <path d="M621.0 686.0 L621.0 799.0"/>
    <path d="M621.0 799.0 L585.0 799.0"/>
    <path d="M585.0 799.0 L578.0 769.0"/>
    <path d="M578.0 769.0 L578.0 656.0"/>
    <path d="M601.0 656.0 L601.0 769.0"/>
    <path d="M601.0 769.0 L578.0 769.0"/>
    <path d="M601.0 769.0 L604.0 783.0"/>
    <path d="M604.0 783.0 L618.0 783.0"/>
    <path d="M618.0 783.0 L621.0 799.0"/>
    <path d="M618.0 783.0 L618.0 670.0"/>
    <path d="M621.0 655.0 L621.0 670.0"/>
    <path d="M585.0 799.0 L585.0 820.0"/>
    <path d="M649.0 616.0 L715.0 616.0"/>
    <path d="M715.0 616.0 L726.0 662.0"/>
    <path d="M726.0 662.0 L726.0 820.0"/>
    <path d="M726.0 820.0 L660.0 820.0"/>
    <path d="M660.0 820.0 L651.0 780.0"/>
    <path d="M649.0 679.0 L649.0 616.0"/>
    <path d="M649.0 616.0 L651.0 623.0"/>
    <path d="M651.0 623.0 L660.0 623.0"/>
    <path d="M660.0 623.0 L659.0 622.0"/>
    <path d="M659.0 622.0 L708.0 622.0"/>
    <path d="M708.0 622.0 L716.0 656.0"/>
    <path d="M716.0 656.0 L714.0 656.0"/>
    <path d="M714.0 656.0 L715.0 662.0"/>
    <path d="M715.0 662.0 L726.0 662.0"/>
    <path d="M715.0 662.0 L715.0 762.0"/>
    <path d="M715.0 762.0 L660.0 762.0"/>
    <path d="M660.0 762.0 L651.0 723.0"/>
    <path d="M651.0 723.0 L651.0 623.0"/>
    <path d="M660.0 623.0 L660.0 723.0"/>
    <path d="M660.0 723.0 L651.0 723.0"/>
    <path d="M660.0 723.0 L667.0 756.0"/>
    <path d="M667.0 756.0 L714.0 756.0"/>
    <path d="M714.0 756.0 L715.0 762.0"/>
    <path d="M714.0 756.0 L714.0 656.0"/>
    <path d="M708.0 622.0 L708.0 756.0"/>
    <path d="M660.0 762.0 L660.0 820.0"/>
    <path d="M724.0 649.0 L790.0 649.0"/>
    <path d="M790.0 649.0 L800.0 696.0"/>
    <path d="M800.0 696.0 L800.0 820.0"/>
    <path d="M800.0 820.0 L735.0 820.0"/>
    <path d="M735.0 820.0 L726.0 780.0"/>
    <path d="M724.0 656.0 L724.0 649.0"/>
    <path d="M724.0 649.0 L727.0 663.0"/>
    <path d="M727.0 663.0 L744.0 663.0"/>
    <path d="M744.0 663.0 L744.0 661.0"/>
    <path d="M744.0 661.0 L776.0 661.0"/>
    <path d="M776.0 661.0 L781.0 684.0"/>
    <path d="M781.0 684.0 L779.0 684.0"/>
    <path d="M779.0 684.0 L782.0 696.0"/>
    <path d="M782.0 696.0 L800.0 696.0"/>
    <path d="M782.0 696.0 L782.0 816.0"/>
    <path d="M782.0 816.0 L735.0 816.0"/>
    <path d="M735.0 816.0 L727.0 782.0"/>
    <path d="M727.0 782.0 L727.0 663.0"/>
    <path d="M744.0 663.0 L744.0 782.0"/>
    <path d="M744.0 782.0 L727.0 782.0"/>
    <path d="M744.0 782.0 L749.0 804.0"/>
    <path d="M749.0 804.0 L779.0 804.0"/>
    <path d="M779.0 804.0 L782.0 816.0"/>
    <path d="M779.0 804.0 L779.0 684.0"/>
    <path d="M776.0 661.0 L776.0 785.0"/>
    <path d="M745.0 785.0 L776.0 785.0"/>
    <path d="M779.0 802.0 L776.0 785.0"/>
    <path d="M735.0 816.0 L735.0 820.0"/>
    <path d="M799.0 649.0 L865.0 649.0"/>
    <path d="M865.0 649.0 L875.0 696.0"/>
    <path d="M875.0 696.0 L875.0 820.0"/>
    <path d="M875.0 820.0 L810.0 820.0"/>
    <path d="M810.0 820.0 L800.0 780.0"/>
    <path d="M799.0 690.0 L799.0 649.0"/>
    <path d="M799.0 649.0 L800.0 652.0"/>
    <path d="M800.0 652.0 L803.0 652.0"/>
    <path d="M803.0 652.0 L803.0 652.0"/>
    <path d="M803.0 652.0 L862.0 652.0"/>
    <path d="M862.0 652.0 L871.0 693.0"/>
    <path d="M871.0 693.0 L863.0 693.0"/>
    <path d="M863.0 693.0 L864.0 696.0"/>
    <path d="M864.0 696.0 L875.0 696.0"/>
    <path d="M864.0 696.0 L864.0 783.0"/>
    <path d="M864.0 783.0 L810.0 783.0"/>
    <path d="M810.0 783.0 L800.0 743.0"/>
    <path d="M800.0 693.0 L800.0 652.0"/>
    <path d="M803.0 652.0 L803.0 740.0"/>
    <path d="M803.0 740.0 L800.0 740.0"/>
    <path d="M803.0 740.0 L813.0 781.0"/>
    <path d="M813.0 781.0 L863.0 781.0"/>
    <path d="M863.0 781.0 L864.0 783.0"/>
    <path d="M863.0 781.0 L863.0 693.0"/>
    <path d="M862.0 652.0 L862.0 776.0"/>
    <path d="M812.0 776.0 L862.0 776.0"/>
    <path d="M863.0 781.0 L862.0 776.0"/>
    <path d="M810.0 783.0 L810.0 820.0"/>
    <path d="M874.0 610.0 L940.0 610.0"/>
    <path d="M940.0 610.0 L950.0 657.0"/>
    <path d="M950.0 657.0 L950.0 820.0"/>
    <path d="M950.0 820.0 L884.0 820.0"/>
    <path d="M884.0 820.0 L875.0 780.0"/>
    <path d="M874.0 689.0 L874.0 610.0"/>
    <path d="M874.0 610.0 L877.0 622.0"/>
    <path d="M877.0 622.0 L893.0 622.0"/>
    <path d="M893.0 622.0 L893.0 621.0"/>
    <path d="M893.0 621.0 L926.0 621.0"/>
    <path d="M926.0 621.0 L931.0 645.0"/>
    <path d="M931.0 645.0 L928.0 645.0"/>
    <path d="M928.0 645.0 L930.0 657.0"/>
    <path d="M930.0 657.0 L950.0 657.0"/>
    <path d="M930.0 657.0 L930.0 778.0"/>
    <path d="M930.0 778.0 L884.0 778.0"/>
    <path d="M884.0 778.0 L877.0 743.0"/>
    <path d="M877.0 743.0 L877.0 622.0"/>
    <path d="M893.0 622.0 L893.0 743.0"/>
    <path d="M893.0 743.0 L877.0 743.0"/>
    <path d="M893.0 743.0 L898.0 766.0"/>
    <path d="M898.0 766.0 L928.0 766.0"/>
    <path d="M928.0 766.0 L930.0 778.0"/>
    <path d="M928.0 766.0 L928.0 645.0"/>
    <path d="M926.0 621.0 L926.0 766.0"/>
    <path d="M884.0 778.0 L884.0 820.0"/>
    <path d="M950.0 664.0 L1014.0 664.0"/>
    <path d="M1014.0 664.0 L1025.0 710.0"/>
    <path d="M1025.0 710.0 L1025.0 820.0"/>
    <path d="M1025.0 820.0 L959.0 820.0"/>
    <path d="M959.0 820.0 L950.0 780.0"/>
    <path d="M950.0 669.0 L955.0 669.0"/>
    <path d="M955.0 669.0 L955.0 667.0"/>
    <path d="M955.0 667.0 L1010.0 667.0"/>
    <path d="M1010.0 667.0 L1019.0 707.0"/>
    <path d="M1019.0 707.0 L1012.0 707.0"/>
    <path d="M1012.0 707.0 L1012.0 710.0"/>
    <path d="M1012.0 710.0 L1025.0 710.0"/>
    <path d="M1012.0 710.0 L1012.0 805.0"/>
    <path d="M1012.0 805.0 L959.0 805.0"/>
    <path d="M959.0 805.0 L950.0 764.0"/>
    <path d="M955.0 669.0 L955.0 763.0"/>
    <path d="M955.0 763.0 L950.0 763.0"/>
    <path d="M955.0 763.0 L964.0 801.0"/>
    <path d="M964.0 801.0 L1012.0 801.0"/>
    <path d="M1012.0 801.0 L1012.0 805.0"/>
    <path d="M1012.0 801.0 L1012.0 707.0"/>
    <path d="M1010.0 667.0 L1010.0 777.0"/>
    <path d="M958.0 777.0 L1010.0 777.0"/>
    <path d="M1012.0 782.0 L1010.0 777.0"/>
    <path d="M959.0 805.0 L959.0 820.0"/>
    <path d="M1024.0 646.0 L1089.0 646.0"/>
    <path d="M1089.0 646.0 L1100.0 693.0"/>
    <path d="M1100.0 693.0 L1100.0 820.0"/>
    <path d="M1100.0 820.0 L1034.0 820.0"/>
    <path d="M1034.0 820.0 L1025.0 780.0"/>
    <path d="M1024.0 704.0 L1024.0 646.0"/>
    <path d="M1024.0 646.0 L1029.0 669.0"/>
    <path d="M1029.0 669.0 L1055.0 669.0"/>
    <path d="M1055.0 669.0 L1054.0 665.0"/>
    <path d="M1054.0 665.0 L1067.0 665.0"/>
    <path d="M1067.0 665.0 L1070.0 674.0"/>
    <path d="M1070.0 674.0 L1064.0 674.0"/>
    <path d="M1064.0 674.0 L1068.0 693.0"/>
    <path d="M1068.0 693.0 L1100.0 693.0"/>
    <path d="M1068.0 693.0 L1068.0 811.0"/>
    <path d="M1068.0 811.0 L1034.0 811.0"/>
    <path d="M1034.0 811.0 L1029.0 787.0"/>
    <path d="M1029.0 787.0 L1029.0 669.0"/>
    <path d="M1055.0 669.0 L1055.0 787.0"/>
    <path d="M1055.0 787.0 L1029.0 787.0"/>
    <path d="M1055.0 787.0 L1056.0 793.0"/>
    <path d="M1056.0 793.0 L1064.0 793.0"/>
    <path d="M1064.0 793.0 L1068.0 811.0"/>
    <path d="M1064.0 793.0 L1064.0 674.0"/>
    <path d="M1067.0 665.0 L1067.0 674.0"/>
    <path d="M1056.0 792.0 L1064.0 792.0"/>
    <path d="M1034.0 811.0 L1034.0 820.0"/>
    <path d="M50.0 430.0 L116.0 430.0"/>
    <path d="M116.0 430.0 L126.0 476.0"/>
    <path d="M126.0 476.0 L126.0 628.0"/>
    <path d="M126.0 628.0 L120.0 628.0"/>
    <path d="M57.0 611.0 L50.0 581.0"/>
    <path d="M50.0 581.0 L50.0 430.0"/>
    <path d="M50.0 430.0 L53.0 444.0"/>
    <path d="M53.0 444.0 L68.0 444.0"/>
    <path d="M68.0 444.0 L67.0 440.0"/>
    <path d="M67.0 440.0 L104.0 440.0"/>
    <path d="M104.0 440.0 L110.0 466.0"/>
    <path d="M110.0 466.0 L104.0 466.0"/>
    <path d="M104.0 466.0 L107.0 476.0"/>
    <path d="M107.0 476.0 L126.0 476.0"/>
    <path d="M107.0 476.0 L107.0 571.0"/>
    <path d="M107.0 571.0 L61.0 571.0"/>
    <path d="M61.0 571.0 L53.0 538.0"/>
    <path d="M53.0 538.0 L53.0 444.0"/>
    <path d="M68.0 444.0 L68.0 538.0"/>
    <path d="M68.0 538.0 L53.0 538.0"/>
    <path d="M68.0 538.0 L73.0 561.0"/>
    <path d="M73.0 561.0 L104.0 561.0"/>
    <path d="M104.0 561.0 L107.0 571.0"/>
    <path d="M104.0 561.0 L104.0 466.0"/>
    <path d="M104.0 440.0 L104.0 561.0"/>
    <path d="M61.0 571.0 L61.0 611.0"/>
    <path d="M125.0 423.0 L191.0 423.0"/>
    <path d="M191.0 423.0 L201.0 470.0"/>
    <path d="M201.0 470.0 L201.0 628.0"/>
    <path d="M201.0 628.0 L136.0 628.0"/>
    <path d="M136.0 628.0 L126.0 587.0"/>
    <path d="M125.0 470.0 L125.0 423.0"/>
    <path d="M125.0 423.0 L128.0 435.0"/>
    <path d="M128.0 435.0 L139.0 435.0"/>
    <path d="M139.0 435.0 L138.0 431.0"/>
    <path d="M138.0 431.0 L181.0 431.0"/>
    <path d="M181.0 431.0 L188.0 462.0"/>
    <path d="M188.0 462.0 L187.0 462.0"/>
    <path d="M187.0 462.0 L189.0 470.0"/>
    <path d="M189.0 470.0 L201.0 470.0"/>
    <path d="M189.0 470.0 L189.0 570.0"/>
    <path d="M189.0 570.0 L136.0 570.0"/>
    <path d="M136.0 570.0 L128.0 536.0"/>
    <path d="M128.0 536.0 L128.0 435.0"/>
    <path d="M139.0 435.0 L139.0 536.0"/>
    <path d="M139.0 536.0 L128.0 536.0"/>
    <path d="M139.0 536.0 L145.0 562.0"/>
    <path d="M145.0 562.0 L187.0 562.0"/>
    <path d="M187.0 562.0 L189.0 570.0"/>
    <path d="M187.0 562.0 L187.0 462.0"/>
    <path d="M181.0 431.0 L181.0 562.0"/>
    <path d="M136.0 570.0 L136.0 628.0"/>
    <path d="M200.0 458.0 L266.0 458.0"/>
    <path d="M266.0 458.0 L276.0 505.0"/>
    <path d="M276.0 505.0 L276.0 628.0"/>
    <path d="M276.0 628.0 L210.0 628.0"/>
    <path d="M210.0 628.0 L201.0 587.0"/>
    <path d="M200.0 464.0 L200.0 458.0"/>
    <path d="M200.0 458.0 L203.0 472.0"/>
    <path d="M203.0 472.0 L220.0 472.0"/>
    <path d="M220.0 472.0 L220.0 470.0"/>
    <path d="M220.0 470.0 L251.0 470.0"/>
    <path d="M251.0 470.0 L256.0 493.0"/>
    <path d="M256.0 493.0 L247.0 493.0"/>
    <path d="M247.0 493.0 L250.0 505.0"/>
    <path d="M250.0 505.0 L276.0 505.0"/>
    <path d="M250.0 505.0 L250.0 580.0"/>
    <path d="M250.0 580.0 L210.0 580.0"/>
    <path d="M210.0 580.0 L203.0 547.0"/>
    <path d="M203.0 547.0 L203.0 472.0"/>
    <path d="M220.0 472.0 L220.0 547.0"/>
    <path d="M220.0 547.0 L203.0 547.0"/>
    <path d="M220.0 547.0 L225.0 567.0"/>
    <path d="M225.0 567.0 L247.0 567.0"/>
    <path d="M247.0 567.0 L250.0 580.0"/>
    <path d="M247.0 567.0 L247.0 493.0"/>
    <path d="M251.0 470.0 L251.0 493.0"/>
    <path d="M210.0 580.0 L210.0 628.0"/>
    <path d="M275.0 448.0 L340.0 448.0"/>
    <path d="M340.0 448.0 L351.0 495.0"/>
    <path d="M351.0 495.0 L351.0 628.0"/>
    <path d="M351.0 628.0 L285.0 628.0"/>
    <path d="M285.0 628.0 L276.0 587.0"/>
    <path d="M275.0 498.0 L275.0 448.0"/>
    <path d="M275.0 448.0 L279.0 465.0"/>
    <path d="M279.0 465.0 L297.0 465.0"/>
    <path d="M297.0 465.0 L296.0 461.0"/>
    <path d="M296.0 461.0 L325.0 461.0"/>
    <path d="M325.0 461.0 L329.0 482.0"/>
    <path d="M329.0 482.0 L317.0 482.0"/>
    <path d="M317.0 482.0 L320.0 495.0"/>
    <path d="M320.0 495.0 L351.0 495.0"/>
    <path d="M320.0 495.0 L320.0 583.0"/>
    <path d="M320.0 583.0 L285.0 583.0"/>
    <path d="M285.0 583.0 L279.0 553.0"/>
    <path d="M279.0 553.0 L279.0 465.0"/>
    <path d="M297.0 465.0 L297.0 553.0"/>
    <path d="M297.0 553.0 L279.0 553.0"/>
    <path d="M297.0 553.0 L301.0 570.0"/>
    <path d="M301.0 570.0 L317.0 570.0"/>
    <path d="M317.0 570.0 L320.0 583.0"/>
    <path d="M317.0 570.0 L317.0 482.0"/>
    <path d="M325.0 461.0 L325.0 482.0"/>
    <path d="M285.0 583.0 L285.0 628.0"/>
    <path d="M350.0 469.0 L415.0 469.0"/>
    <path d="M415.0 469.0 L426.0 516.0"/>
    <path d="M426.0 516.0 L426.0 628.0"/>
    <path d="M426.0 628.0 L360.0 628.0"/>
    <path d="M360.0 628.0 L351.0 587.0"/>
    <path d="M350.0 488.0 L350.0 469.0"/>
    <path d="M350.0 469.0 L351.0 477.0"/>
    <path d="M351.0 477.0 L361.0 477.0"/>
    <path d="M361.0 477.0 L360.0 476.0"/>
    <path d="M360.0 476.0 L408.0 476.0"/>
    <path d="M408.0 476.0 L415.0 510.0"/>
    <path d="M415.0 510.0 L412.0 510.0"/>
    <path d="M412.0 510.0 L414.0 516.0"/>
    <path d="M414.0 516.0 L426.0 516.0"/>
    <path d="M414.0 516.0 L414.0 591.0"/>
    <path d="M414.0 591.0 L360.0 591.0"/>
    <path d="M360.0 591.0 L351.0 551.0"/>
    <path d="M351.0 551.0 L351.0 477.0"/>
    <path d="M361.0 477.0 L361.0 551.0"/>
    <path d="M361.0 551.0 L351.0 551.0"/>
    <path d="M361.0 551.0 L368.0 584.0"/>
    <path d="M368.0 584.0 L412.0 584.0"/>
    <path d="M412.0 584.0 L414.0 591.0"/>
    <path d="M412.0 584.0 L412.0 510.0"/>
    <path d="M408.0 476.0 L408.0 584.0"/>
    <path d="M360.0 591.0 L360.0 628.0"/>
    <path d="M424.0 451.0 L490.0 451.0"/>
    <path d="M490.0 451.0 L501.0 497.0"/>
    <path d="M501.0 497.0 L501.0 628.0"/>
    <path d="M501.0 628.0 L435.0 628.0"/>
    <path d="M435.0 628.0 L426.0 587.0"/>
    <path d="M424.0 510.0 L424.0 451.0"/>
    <path d="M424.0 451.0 L428.0 466.0"/>
    <path d="M428.0 466.0 L444.0 466.0"/>
    <path d="M444.0 466.0 L443.0 462.0"/>
    <path d="M443.0 462.0 L477.0 462.0"/>
    <path d="M477.0 462.0 L482.0 486.0"/>
    <path d="M482.0 486.0 L478.0 486.0"/>
    <path d="M478.0 486.0 L480.0 497.0"/>
    <path d="M480.0 497.0 L501.0 497.0"/>
    <path d="M480.0 497.0 L480.0 619.0"/>
    <path d="M480.0 619.0 L435.0 619.0"/>
    <path d="M435.0 619.0 L428.0 588.0"/>
    <path d="M428.0 588.0 L428.0 466.0"/>
    <path d="M444.0 466.0 L444.0 588.0"/>
    <path d="M444.0 588.0 L428.0 588.0"/>
    <path d="M444.0 588.0 L448.0 607.0"/>
    <path d="M448.0 607.0 L478.0 607.0"/>
    <path d="M478.0 607.0 L480.0 619.0"/>
    <path d="M478.0 607.0 L478.0 486.0"/>
    <path d="M477.0 462.0 L477.0 592.0"/>
    <path d="M445.0 592.0 L477.0 592.0"/>
    <path d="M478.0 595.0 L477.0 592.0"/>
    <path d="M435.0 619.0 L435.0 628.0"/>
    <path d="M499.0 471.0 L565.0 471.0"/>
    <path d="M565.0 471.0 L576.0 518.0"/>
    <path d="M576.0 518.0 L576.0 628.0"/>
    <path d="M576.0 628.0 L510.0 628.0"/>
    <path d="M510.0 628.0 L501.0 587.0"/>
    <path d="M499.0 491.0 L499.0 471.0"/>
    <path d="M499.0 471.0 L501.0 477.0"/>
    <path d="M501.0 477.0 L508.0 477.0"/>
    <path d="M508.0 477.0 L507.0 475.0"/>
    <path d="M507.0 475.0 L559.0 475.0"/>
    <path d="M559.0 475.0 L568.0 513.0"/>
    <path d="M568.0 513.0 L563.0 513.0"/>
    <path d="M563.0 513.0 L565.0 518.0"/>
    <path d="M565.0 518.0 L576.0 518.0"/>
    <path d="M565.0 518.0 L565.0 600.0"/>
    <path d="M565.0 600.0 L510.0 600.0"/>
    <path d="M510.0 600.0 L501.0 560.0"/>
    <path d="M501.0 560.0 L501.0 477.0"/>
    <path d="M508.0 477.0 L508.0 560.0"/>
    <path d="M508.0 560.0 L501.0 560.0"/>
    <path d="M508.0 560.0 L516.0 595.0"/>
    <path d="M516.0 595.0 L563.0 595.0"/>
    <path d="M563.0 595.0 L565.0 600.0"/>
    <path d="M563.0 595.0 L563.0 513.0"/>
    <path d="M559.0 475.0 L559.0 586.0"/>
    <path d="M513.0 586.0 L559.0 586.0"/>
    <path d="M562.0 595.0 L559.0 586.0"/>
    <path d="M510.0 600.0 L510.0 628.0"/>
    <path d="M574.0 425.0 L640.0 425.0"/>
    <path d="M640.0 425.0 L651.0 472.0"/>
    <path d="M651.0 472.0 L651.0 616.0"/>
    <path d="M649.0 628.0 L585.0 628.0"/>
    <path d="M585.0 628.0 L576.0 587.0"/>
    <path d="M574.0 511.0 L574.0 425.0"/>
    <path d="M574.0 425.0 L579.0 446.0"/>
    <path d="M579.0 446.0 L605.0 446.0"/>
    <path d="M605.0 446.0 L604.0 443.0"/>
    <path d="M604.0 443.0 L618.0 443.0"/>
    <path d="M618.0 443.0 L621.0 453.0"/>
    <path d="M621.0 453.0 L612.0 453.0"/>
    <path d="M612.0 453.0 L616.0 472.0"/>
    <path d="M616.0 472.0 L651.0 472.0"/>
    <path d="M616.0 472.0 L616.0 575.0"/>
    <path d="M616.0 575.0 L585.0 575.0"/>
    <path d="M585.0 575.0 L579.0 550.0"/>
    <path d="M579.0 550.0 L579.0 446.0"/>
    <path d="M605.0 446.0 L605.0 550.0"/>
    <path d="M605.0 550.0 L579.0 550.0"/>
    <path d="M605.0 550.0 L606.0 557.0"/>
    <path d="M606.0 557.0 L612.0 557.0"/>
    <path d="M612.0 557.0 L616.0 575.0"/>
    <path d="M612.0 557.0 L612.0 453.0"/>
    <path d="M618.0 443.0 L618.0 453.0"/>
    <path d="M585.0 575.0 L585.0 628.0"/>
    <path d="M649.0 433.0 L715.0 433.0"/>
    <path d="M715.0 433.0 L726.0 480.0"/>
    <path d="M726.0 480.0 L726.0 628.0"/>
    <path d="M726.0 628.0 L718.0 628.0"/>
    <path d="M657.0 616.0 L651.0 587.0"/>
    <path d="M649.0 465.0 L649.0 433.0"/>
    <path d="M649.0 433.0 L653.0 451.0"/>
    <path d="M653.0 451.0 L676.0 451.0"/>
    <path d="M676.0 451.0 L676.0 449.0"/>
    <path d="M676.0 449.0 L696.0 449.0"/>
    <path d="M696.0 449.0 L699.0 463.0"/>
    <path d="M699.0 463.0 L687.0 463.0"/>
    <path d="M687.0 463.0 L691.0 480.0"/>
    <path d="M691.0 480.0 L726.0 480.0"/>
    <path d="M691.0 480.0 L691.0 572.0"/>
    <path d="M691.0 572.0 L660.0 572.0"/>
    <path d="M660.0 572.0 L653.0 543.0"/>
    <path d="M653.0 543.0 L653.0 451.0"/>
    <path d="M676.0 451.0 L676.0 543.0"/>
    <path d="M676.0 543.0 L653.0 543.0"/>
    <path d="M676.0 543.0 L679.0 556.0"/>
    <path d="M679.0 556.0 L687.0 556.0"/>
    <path d="M687.0 556.0 L691.0 572.0"/>
    <path d="M687.0 556.0 L687.0 463.0"/>
    <path d="M696.0 449.0 L696.0 463.0"/>
    <path d="M660.0 572.0 L660.0 616.0"/>
    <path d="M724.0 450.0 L790.0 450.0"/>
    <path d="M790.0 450.0 L800.0 497.0"/>
    <path d="M800.0 497.0 L800.0 628.0"/>
    <path d="M800.0 628.0 L735.0 628.0"/>
    <path d="M735.0 628.0 L726.0 587.0"/>
    <path d="M724.0 473.0 L724.0 450.0"/>
    <path d="M724.0 450.0 L726.0 457.0"/>
    <path d="M726.0 457.0 L730.0 457.0"/>
    <path d="M730.0 457.0 L729.0 453.0"/>
    <path d="M729.0 453.0 L786.0 453.0"/>
    <path d="M786.0 453.0 L795.0 494.0"/>
    <path d="M795.0 494.0 L785.0 494.0"/>
    <path d="M785.0 494.0 L785.0 497.0"/>
    <path d="M785.0 497.0 L800.0 497.0"/>
    <path d="M785.0 497.0 L785.0 591.0"/>
    <path d="M785.0 591.0 L735.0 591.0"/>
    <path d="M735.0 591.0 L726.0 551.0"/>
    <path d="M726.0 551.0 L726.0 457.0"/>
    <path d="M730.0 457.0 L730.0 551.0"/>
    <path d="M730.0 551.0 L726.0 551.0"/>
    <path d="M730.0 551.0 L738.0 588.0"/>
    <path d="M738.0 588.0 L785.0 588.0"/>
    <path d="M785.0 588.0 L785.0 591.0"/>
    <path d="M785.0 588.0 L785.0 494.0"/>
    <path d="M786.0 453.0 L786.0 494.0"/>
    <path d="M738.0 584.0 L785.0 584.0"/>
    <path d="M735.0 591.0 L735.0 628.0"/>
    <path d="M799.0 431.0 L865.0 431.0"/>
    <path d="M865.0 431.0 L875.0 478.0"/>
    <path d="M875.0 478.0 L875.0 610.0"/>
    <path d="M874.0 628.0 L810.0 628.0"/>
    <path d="M810.0 628.0 L800.0 587.0"/>
    <path d="M799.0 491.0 L799.0 431.0"/>
    <path d="M799.0 431.0 L802.0 444.0"/>
    <path d="M802.0 444.0 L815.0 444.0"/>
    <path d="M815.0 444.0 L815.0 441.0"/>
    <path d="M815.0 441.0 L853.0 441.0"/>
    <path d="M853.0 441.0 L860.0 468.0"/>
    <path d="M860.0 468.0 L854.0 468.0"/>
    <path d="M854.0 468.0 L856.0 478.0"/>
    <path d="M856.0 478.0 L875.0 478.0"/>
    <path d="M856.0 478.0 L856.0 619.0"/>
    <path d="M856.0 619.0 L810.0 619.0"/>
    <path d="M810.0 619.0 L802.0 585.0"/>
    <path d="M802.0 585.0 L802.0 444.0"/>
    <path d="M815.0 444.0 L815.0 585.0"/>
    <path d="M815.0 585.0 L802.0 585.0"/>
    <path d="M815.0 585.0 L821.0 609.0"/>
    <path d="M821.0 609.0 L854.0 609.0"/>
    <path d="M854.0 609.0 L856.0 619.0"/>
    <path d="M854.0 609.0 L854.0 468.0"/>
    <path d="M853.0 441.0 L853.0 590.0"/>
    <path d="M817.0 590.0 L853.0 590.0"/>
    <path d="M854.0 594.0 L853.0 590.0"/>
    <path d="M810.0 619.0 L810.0 628.0"/>
    <path d="M874.0 428.0 L940.0 428.0"/>
    <path d="M940.0 428.0 L950.0 475.0"/>
    <path d="M950.0 475.0 L950.0 628.0"/>
    <path d="M950.0 628.0 L944.0 628.0"/>
    <path d="M880.0 610.0 L875.0 587.0"/>
    <path d="M874.0 471.0 L874.0 428.0"/>
    <path d="M874.0 428.0 L877.0 442.0"/>
    <path d="M877.0 442.0 L891.0 442.0"/>
    <path d="M891.0 442.0 L890.0 438.0"/>
    <path d="M890.0 438.0 L928.0 438.0"/>
    <path d="M928.0 438.0 L934.0 465.0"/>
    <path d="M934.0 465.0 L933.0 465.0"/>
    <path d="M933.0 465.0 L936.0 475.0"/>
    <path d="M936.0 475.0 L950.0 475.0"/>
    <path d="M936.0 475.0 L936.0 605.0"/>
    <path d="M936.0 605.0 L884.0 605.0"/>
    <path d="M884.0 605.0 L877.0 571.0"/>
    <path d="M877.0 571.0 L877.0 442.0"/>
    <path d="M891.0 442.0 L891.0 571.0"/>
    <path d="M891.0 571.0 L877.0 571.0"/>
    <path d="M891.0 571.0 L896.0 595.0"/>
    <path d="M896.0 595.0 L933.0 595.0"/>
    <path d="M933.0 595.0 L936.0 605.0"/>
    <path d="M933.0 595.0 L933.0 465.0"/>
    <path d="M928.0 438.0 L928.0 591.0"/>
    <path d="M895.0 591.0 L928.0 591.0"/>
    <path d="M929.0 595.0 L928.0 591.0"/>
    <path d="M884.0 605.0 L884.0 610.0"/>
    <path d="M949.0 431.0 L1014.0 431.0"/>
    <path d="M1014.0 431.0 L1025.0 478.0"/>
    <path d="M1025.0 478.0 L1025.0 628.0"/>
    <path d="M1025.0 628.0 L959.0 628.0"/>
    <path d="M959.0 628.0 L950.0 587.0"/>
    <path d="M949.0 469.0 L949.0 431.0"/>
    <path d="M949.0 431.0 L951.0 443.0"/>
    <path d="M951.0 443.0 L961.0 443.0"/>
    <path d="M961.0 443.0 L960.0 439.0"/>
    <path d="M960.0 439.0 L1006.0 439.0"/>
    <path d="M1006.0 439.0 L1013.0 471.0"/>
    <path d="M1013.0 471.0 L1008.0 471.0"/>
    <path d="M1008.0 471.0 L1009.0 478.0"/>
    <path d="M1009.0 478.0 L1025.0 478.0"/>
    <path d="M1009.0 478.0 L1009.0 574.0"/>
    <path d="M1009.0 574.0 L959.0 574.0"/>
    <path d="M959.0 574.0 L951.0 539.0"/>
    <path d="M951.0 539.0 L951.0 443.0"/>
    <path d="M961.0 443.0 L961.0 539.0"/>
    <path d="M961.0 539.0 L951.0 539.0"/>
    <path d="M961.0 539.0 L968.0 567.0"/>
    <path d="M968.0 567.0 L1008.0 567.0"/>
    <path d="M1008.0 567.0 L1009.0 574.0"/>
    <path d="M1008.0 567.0 L1008.0 471.0"/>
    <path d="M1006.0 439.0 L1006.0 567.0"/>
    <path d="M959.0 574.0 L959.0 628.0"/>
    <path d="M1024.0 428.0 L1089.0 428.0"/>
    <path d="M1089.0 428.0 L1100.0 475.0"/>
    <path d="M1100.0 475.0 L1100.0 628.0"/>
    <path d="M1100.0 628.0 L1034.0 628.0"/>
    <path d="M1034.0 628.0 L1025.0 587.0"/>
    <path d="M1024.0 472.0 L1024.0 428.0"/>
    <path d="M1024.0 428.0 L1025.0 436.0"/>
    <path d="M1025.0 436.0 L1035.0 436.0"/>
    <path d="M1035.0 436.0 L1035.0 435.0"/>
    <path d="M1035.0 435.0 L1081.0 435.0"/>
    <path d="M1081.0 435.0 L1089.0 468.0"/>
    <path d="M1089.0 468.0 L1075.0 468.0"/>
    <path d="M1075.0 468.0 L1077.0 475.0"/>
    <path d="M1077.0 475.0 L1100.0 475.0"/>
    <path d="M1077.0 475.0 L1077.0 591.0"/>
    <path d="M1077.0 591.0 L1034.0 591.0"/>
    <path d="M1034.0 591.0 L1025.0 552.0"/>
    <path d="M1025.0 552.0 L1025.0 436.0"/>
    <path d="M1035.0 436.0 L1035.0 552.0"/>
    <path d="M1035.0 552.0 L1025.0 552.0"/>
    <path d="M1035.0 552.0 L1042.0 584.0"/>
    <path d="M1042.0 584.0 L1075.0 584.0"/>
    <path d="M1075.0 584.0 L1077.0 591.0"/>
    <path d="M1075.0 584.0 L1075.0 468.0"/>
    <path d="M1081.0 435.0 L1081.0 468.0"/>
    <path d="M1034.0 591.0 L1034.0 628.0"/>
    <path d="M50.0 224.0 L116.0 224.0"/>
    <path d="M116.0 224.0 L126.0 271.0"/>
    <path d="M126.0 271.0 L126.0 423.0"/>
    <path d="M125.0 436.0 L117.0 436.0"/>
    <path d="M59.0 430.0 L50.0 389.0"/>
    <path d="M50.0 389.0 L50.0 224.0"/>
    <path d="M50.0 224.0 L53.0 236.0"/>
    <path d="M53.0 236.0 L67.0 236.0"/>
    <path d="M67.0 236.0 L67.0 234.0"/>
    <path d="M67.0 234.0 L104.0 234.0"/>
    <path d="M104.0 234.0 L110.0 261.0"/>
    <path d="M110.0 261.0 L100.0 261.0"/>
    <path d="M100.0 261.0 L102.0 271.0"/>
    <path d="M102.0 271.0 L126.0 271.0"/>
    <path d="M102.0 271.0 L102.0 406.0"/>
    <path d="M102.0 406.0 L61.0 406.0"/>
    <path d="M61.0 406.0 L53.0 371.0"/>
    <path d="M53.0 371.0 L53.0 236.0"/>
    <path d="M67.0 236.0 L67.0 371.0"/>
    <path d="M67.0 371.0 L53.0 371.0"/>
    <path d="M67.0 371.0 L73.0 396.0"/>
    <path d="M73.0 396.0 L100.0 396.0"/>
    <path d="M100.0 396.0 L102.0 406.0"/>
    <path d="M100.0 396.0 L100.0 261.0"/>
    <path d="M104.0 234.0 L104.0 261.0"/>
    <path d="M61.0 406.0 L61.0 430.0"/>
    <path d="M125.0 247.0 L191.0 247.0"/>
    <path d="M191.0 247.0 L201.0 294.0"/>
    <path d="M201.0 294.0 L201.0 436.0"/>
    <path d="M201.0 436.0 L193.0 436.0"/>
    <path d="M133.0 423.0 L126.0 395.0"/>
    <path d="M125.0 264.0 L125.0 247.0"/>
    <path d="M125.0 247.0 L126.0 253.0"/>
    <path d="M126.0 253.0 L132.0 253.0"/>
    <path d="M132.0 253.0 L131.0 251.0"/>
    <path d="M131.0 251.0 L186.0 251.0"/>
    <path d="M186.0 251.0 L195.0 290.0"/>
    <path d="M195.0 290.0 L192.0 290.0"/>
    <path d="M192.0 290.0 L193.0 294.0"/>
    <path d="M193.0 294.0 L201.0 294.0"/>
    <path d="M193.0 294.0 L193.0 396.0"/>
    <path d="M193.0 396.0 L136.0 396.0"/>
    <path d="M136.0 396.0 L126.0 356.0"/>
    <path d="M126.0 270.0 L126.0 253.0"/>
    <path d="M132.0 253.0 L132.0 355.0"/>
    <path d="M132.0 355.0 L126.0 355.0"/>
    <path d="M132.0 355.0 L140.0 392.0"/>
    <path d="M140.0 392.0 L192.0 392.0"/>
    <path d="M192.0 392.0 L193.0 396.0"/>
    <path d="M192.0 392.0 L192.0 290.0"/>
    <path d="M186.0 251.0 L186.0 392.0"/>
    <path d="M136.0 396.0 L136.0 423.0"/>
    <path d="M200.0 270.0 L266.0 270.0"/>
    <path d="M266.0 270.0 L276.0 317.0"/>
    <path d="M276.0 317.0 L276.0 436.0"/>
    <path d="M276.0 436.0 L210.0 436.0"/>
    <path d="M210.0 436.0 L201.0 395.0"/>
    <path d="M200.0 288.0 L200.0 270.0"/>
    <path d="M200.0 270.0 L203.0 283.0"/>
    <path d="M203.0 283.0 L215.0 283.0"/>
    <path d="M215.0 283.0 L215.0 279.0"/>
    <path d="M215.0 279.0 L255.0 279.0"/>
    <path d="M255.0 279.0 L261.0 308.0"/>
    <path d="M261.0 308.0 L259.0 308.0"/>
    <path d="M259.0 308.0 L261.0 317.0"/>
    <path d="M261.0 317.0 L276.0 317.0"/>
    <path d="M261.0 317.0 L261.0 407.0"/>
    <path d="M261.0 407.0 L210.0 407.0"/>
    <path d="M210.0 407.0 L203.0 373.0"/>
    <path d="M203.0 373.0 L203.0 283.0"/>
    <path d="M215.0 283.0 L215.0 373.0"/>
    <path d="M215.0 373.0 L203.0 373.0"/>
    <path d="M215.0 373.0 L221.0 398.0"/>
    <path d="M221.0 398.0 L259.0 398.0"/>
    <path d="M259.0 398.0 L261.0 407.0"/>
    <path d="M259.0 398.0 L259.0 308.0"/>
    <path d="M255.0 279.0 L255.0 398.0"/>
    <path d="M221.0 398.0 L255.0 398.0"/>
    <path d="M255.0 398.0 L255.0 398.0"/>
    <path d="M210.0 407.0 L210.0 436.0"/>
    <path d="M275.0 254.0 L340.0 254.0"/>
    <path d="M340.0 254.0 L351.0 301.0"/>
    <path d="M351.0 301.0 L351.0 436.0"/>
    <path d="M351.0 436.0 L285.0 436.0"/>
    <path d="M285.0 436.0 L276.0 395.0"/>
    <path d="M275.0 311.0 L275.0 254.0"/>
    <path d="M275.0 254.0 L279.0 275.0"/>
    <path d="M279.0 275.0 L301.0 275.0"/>
    <path d="M301.0 275.0 L300.0 270.0"/>
    <path d="M300.0 270.0 L322.0 270.0"/>
    <path d="M322.0 270.0 L325.0 286.0"/>
    <path d="M325.0 286.0 L314.0 286.0"/>
    <path d="M314.0 286.0 L317.0 301.0"/>
    <path d="M317.0 301.0 L351.0 301.0"/>
    <path d="M317.0 301.0 L317.0 406.0"/>
    <path d="M317.0 406.0 L285.0 406.0"/>
    <path d="M285.0 406.0 L279.0 380.0"/>
    <path d="M279.0 380.0 L279.0 275.0"/>
    <path d="M301.0 275.0 L301.0 380.0"/>
    <path d="M301.0 380.0 L279.0 380.0"/>
    <path d="M301.0 380.0 L304.0 390.0"/>
    <path d="M304.0 390.0 L314.0 390.0"/>
    <path d="M314.0 390.0 L317.0 406.0"/>
    <path d="M314.0 390.0 L314.0 286.0"/>
    <path d="M322.0 270.0 L322.0 286.0"/>
    <path d="M285.0 406.0 L285.0 436.0"/>
    <path d="M350.0 275.0 L415.0 275.0"/>
    <path d="M415.0 275.0 L426.0 322.0"/>
    <path d="M426.0 322.0 L426.0 436.0"/>
    <path d="M426.0 436.0 L360.0 436.0"/>
    <path d="M360.0 436.0 L351.0 395.0"/>
    <path d="M350.0 295.0 L350.0 275.0"/>
    <path d="M350.0 275.0 L353.0 289.0"/>
    <path d="M353.0 289.0 L366.0 289.0"/>
    <path d="M366.0 289.0 L365.0 285.0"/>
    <path d="M365.0 285.0 L404.0 285.0"/>
    <path d="M404.0 285.0 L410.0 312.0"/>
    <path d="M410.0 312.0 L402.0 312.0"/>
    <path d="M402.0 312.0 L404.0 322.0"/>
    <path d="M404.0 322.0 L426.0 322.0"/>
    <path d="M404.0 322.0 L404.0 395.0"/>
    <path d="M404.0 395.0 L360.0 395.0"/>
    <path d="M360.0 395.0 L353.0 363.0"/>
    <path d="M353.0 363.0 L353.0 289.0"/>
    <path d="M366.0 289.0 L366.0 363.0"/>
    <path d="M366.0 363.0 L353.0 363.0"/>
    <path d="M366.0 363.0 L372.0 386.0"/>
    <path d="M372.0 386.0 L402.0 386.0"/>
    <path d="M402.0 386.0 L404.0 395.0"/>
    <path d="M402.0 386.0 L402.0 312.0"/>
    <path d="M404.0 285.0 L404.0 312.0"/>
    <path d="M360.0 395.0 L360.0 436.0"/>
    <path d="M424.0 226.0 L490.0 226.0"/>
    <path d="M490.0 226.0 L501.0 273.0"/>
    <path d="M501.0 273.0 L501.0 436.0"/>
    <path d="M501.0 436.0 L435.0 436.0"/>
    <path d="M435.0 436.0 L426.0 395.0"/>
    <path d="M424.0 316.0 L424.0 226.0"/>
    <path d="M424.0 226.0 L428.0 244.0"/>
    <path d="M428.0 244.0 L448.0 244.0"/>
    <path d="M448.0 244.0 L448.0 241.0"/>
    <path d="M448.0 241.0 L473.0 241.0"/>
    <path d="M473.0 241.0 L478.0 259.0"/>
    <path d="M478.0 259.0 L467.0 259.0"/>
    <path d="M467.0 259.0 L470.0 273.0"/>
    <path d="M470.0 273.0 L501.0 273.0"/>
    <path d="M470.0 273.0 L470.0 395.0"/>
    <path d="M470.0 395.0 L435.0 395.0"/>
    <path d="M435.0 395.0 L428.0 366.0"/>
    <path d="M428.0 366.0 L428.0 244.0"/>
    <path d="M448.0 244.0 L448.0 366.0"/>
    <path d="M448.0 366.0 L428.0 366.0"/>
    <path d="M448.0 366.0 L452.0 381.0"/>
    <path d="M452.0 381.0 L467.0 381.0"/>
    <path d="M467.0 381.0 L470.0 395.0"/>
    <path d="M467.0 381.0 L467.0 259.0"/>
    <path d="M473.0 241.0 L473.0 259.0"/>
    <path d="M435.0 395.0 L435.0 436.0"/>
    <path d="M499.0 235.0 L565.0 235.0"/>
    <path d="M565.0 235.0 L576.0 282.0"/>
    <path d="M576.0 282.0 L576.0 425.0"/>
    <path d="M574.0 436.0 L510.0 436.0"/>
    <path d="M510.0 436.0 L501.0 395.0"/>
    <path d="M499.0 267.0 L499.0 235.0"/>
    <path d="M499.0 235.0 L501.0 241.0"/>
    <path d="M501.0 241.0 L507.0 241.0"/>
    <path d="M507.0 241.0 L507.0 239.0"/>
    <path d="M507.0 239.0 L560.0 239.0"/>
    <path d="M560.0 239.0 L569.0 277.0"/>
    <path d="M569.0 277.0 L556.0 277.0"/>
    <path d="M556.0 277.0 L557.0 282.0"/>
    <path d="M557.0 282.0 L576.0 282.0"/>
    <path d="M557.0 282.0 L557.0 375.0"/>
    <path d="M557.0 375.0 L510.0 375.0"/>
    <path d="M510.0 375.0 L501.0 335.0"/>
    <path d="M501.0 273.0 L501.0 241.0"/>
    <path d="M507.0 241.0 L507.0 334.0"/>
    <path d="M507.0 334.0 L501.0 334.0"/>
    <path d="M507.0 334.0 L515.0 371.0"/>
    <path d="M515.0 371.0 L556.0 371.0"/>
    <path d="M556.0 371.0 L557.0 375.0"/>
    <path d="M556.0 371.0 L556.0 277.0"/>
    <path d="M560.0 239.0 L560.0 277.0"/>
    <path d="M510.0 375.0 L510.0 436.0"/>
    <path d="M574.0 254.0 L640.0 254.0"/>
    <path d="M640.0 254.0 L651.0 301.0"/>
    <path d="M651.0 301.0 L651.0 433.0"/>
    <path d="M649.0 436.0 L642.0 436.0"/>
    <path d="M582.0 425.0 L576.0 395.0"/>
    <path d="M574.0 275.0 L574.0 254.0"/>
    <path d="M574.0 254.0 L576.0 261.0"/>
    <path d="M576.0 261.0 L583.0 261.0"/>
    <path d="M583.0 261.0 L583.0 259.0"/>
    <path d="M583.0 259.0 L634.0 259.0"/>
    <path d="M634.0 259.0 L642.0 295.0"/>
    <path d="M642.0 295.0 L636.0 295.0"/>
    <path d="M636.0 295.0 L637.0 301.0"/>
    <path d="M637.0 301.0 L651.0 301.0"/>
    <path d="M637.0 301.0 L637.0 414.0"/>
    <path d="M637.0 414.0 L585.0 414.0"/>
    <path d="M585.0 414.0 L576.0 374.0"/>
    <path d="M576.0 374.0 L576.0 261.0"/>
    <path d="M583.0 261.0 L583.0 374.0"/>
    <path d="M583.0 374.0 L576.0 374.0"/>
    <path d="M583.0 374.0 L591.0 409.0"/>
    <path d="M591.0 409.0 L636.0 409.0"/>
    <path d="M636.0 409.0 L637.0 414.0"/>
    <path d="M636.0 409.0 L636.0 295.0"/>
    <path d="M634.0 259.0 L634.0 394.0"/>
    <path d="M588.0 394.0 L634.0 394.0"/>
    <path d="M636.0 405.0 L634.0 394.0"/>
    <path d="M585.0 414.0 L585.0 425.0"/>
    <path d="M649.0 240.0 L715.0 240.0"/>
    <path d="M715.0 240.0 L726.0 287.0"/>
    <path d="M726.0 287.0 L726.0 436.0"/>
    <path d="M726.0 436.0 L716.0 436.0"/>
    <path d="M659.0 433.0 L651.0 395.0"/>
    <path d="M649.0 294.0 L649.0 240.0"/>
    <path d="M649.0 240.0 L650.0 245.0"/>
    <path d="M650.0 245.0 L654.0 245.0"/>
    <path d="M654.0 245.0 L654.0 243.0"/>
    <path d="M654.0 243.0 L712.0 243.0"/>
    <path d="M712.0 243.0 L721.0 284.0"/>
    <path d="M721.0 284.0 L719.0 284.0"/>
    <path d="M719.0 284.0 L720.0 287.0"/>
    <path d="M720.0 287.0 L726.0 287.0"/>
    <path d="M720.0 287.0 L720.0 410.0"/>
    <path d="M720.0 410.0 L660.0 410.0"/>
    <path d="M660.0 410.0 L651.0 370.0"/>
    <path d="M650.0 299.0 L650.0 245.0"/>
    <path d="M654.0 245.0 L654.0 368.0"/>
    <path d="M654.0 368.0 L651.0 368.0"/>
    <path d="M654.0 368.0 L663.0 407.0"/>
    <path d="M663.0 407.0 L719.0 407.0"/>
    <path d="M719.0 407.0 L720.0 410.0"/>
    <path d="M719.0 407.0 L719.0 284.0"/>
    <path d="M712.0 243.0 L712.0 391.0"/>
    <path d="M660.0 391.0 L712.0 391.0"/>
    <path d="M715.0 407.0 L712.0 391.0"/>
    <path d="M660.0 410.0 L660.0 433.0"/>
    <path d="M724.0 270.0 L790.0 270.0"/>
    <path d="M790.0 270.0 L800.0 317.0"/>
    <path d="M800.0 317.0 L800.0 431.0"/>
    <path d="M799.0 436.0 L735.0 436.0"/>
    <path d="M735.0 436.0 L726.0 395.0"/>
    <path d="M724.0 280.0 L724.0 270.0"/>
    <path d="M724.0 270.0 L725.0 274.0"/>
    <path d="M725.0 274.0 L729.0 274.0"/>
    <path d="M729.0 274.0 L729.0 273.0"/>
    <path d="M729.0 273.0 L786.0 273.0"/>
    <path d="M786.0 273.0 L796.0 314.0"/>
    <path d="M796.0 314.0 L788.0 314.0"/>
    <path d="M788.0 314.0 L788.0 317.0"/>
    <path d="M788.0 317.0 L800.0 317.0"/>
    <path d="M788.0 317.0 L788.0 403.0"/>
    <path d="M788.0 403.0 L735.0 403.0"/>
    <path d="M735.0 403.0 L726.0 362.0"/>
    <path d="M725.0 284.0 L725.0 274.0"/>
    <path d="M729.0 274.0 L729.0 360.0"/>
    <path d="M729.0 360.0 L726.0 360.0"/>
    <path d="M729.0 360.0 L738.0 400.0"/>
    <path d="M738.0 400.0 L788.0 400.0"/>
    <path d="M788.0 400.0 L788.0 403.0"/>
    <path d="M788.0 400.0 L788.0 314.0"/>
    <path d="M786.0 273.0 L786.0 391.0"/>
    <path d="M736.0 391.0 L786.0 391.0"/>
    <path d="M788.0 396.0 L786.0 391.0"/>
    <path d="M735.0 403.0 L735.0 436.0"/>
    <path d="M799.0 265.0 L865.0 265.0"/>
    <path d="M865.0 265.0 L875.0 312.0"/>
    <path d="M875.0 312.0 L875.0 428.0"/>
    <path d="M874.0 436.0 L866.0 436.0"/>
    <path d="M809.0 431.0 L800.0 395.0"/>
    <path d="M799.0 311.0 L799.0 265.0"/>
    <path d="M799.0 265.0 L802.0 278.0"/>
    <path d="M802.0 278.0 L818.0 278.0"/>
    <path d="M818.0 278.0 L817.0 276.0"/>
    <path d="M817.0 276.0 L851.0 276.0"/>
    <path d="M851.0 276.0 L857.0 301.0"/>
    <path d="M857.0 301.0 L849.0 301.0"/>
    <path d="M849.0 301.0 L852.0 312.0"/>
    <path d="M852.0 312.0 L875.0 312.0"/>
    <path d="M852.0 312.0 L852.0 404.0"/>
    <path d="M852.0 404.0 L810.0 404.0"/>
    <path d="M810.0 404.0 L802.0 371.0"/>
    <path d="M802.0 371.0 L802.0 278.0"/>
    <path d="M818.0 278.0 L818.0 371.0"/>
    <path d="M818.0 371.0 L802.0 371.0"/>
    <path d="M818.0 371.0 L823.0 393.0"/>
    <path d="M823.0 393.0 L849.0 393.0"/>
    <path d="M849.0 393.0 L852.0 404.0"/>
    <path d="M849.0 393.0 L849.0 301.0"/>
    <path d="M851.0 276.0 L851.0 301.0"/>
    <path d="M810.0 404.0 L810.0 431.0"/>
    <path d="M874.0 231.0 L940.0 231.0"/>
    <path d="M940.0 231.0 L950.0 278.0"/>
    <path d="M950.0 278.0 L950.0 431.0"/>
    <path d="M949.0 436.0 L941.0 436.0"/>
    <path d="M883.0 428.0 L875.0 395.0"/>
    <path d="M874.0 305.0 L874.0 231.0"/>
    <path d="M874.0 231.0 L876.0 241.0"/>
    <path d="M876.0 241.0 L885.0 241.0"/>
    <path d="M885.0 241.0 L884.0 238.0"/>
    <path d="M884.0 238.0 L932.0 238.0"/>
    <path d="M932.0 238.0 L940.0 272.0"/>
    <path d="M940.0 272.0 L934.0 272.0"/>
    <path d="M934.0 272.0 L935.0 278.0"/>
    <path d="M935.0 278.0 L950.0 278.0"/>
    <path d="M935.0 278.0 L935.0 386.0"/>
    <path d="M935.0 386.0 L884.0 386.0"/>
    <path d="M884.0 386.0 L876.0 348.0"/>
    <path d="M876.0 348.0 L876.0 241.0"/>
    <path d="M885.0 241.0 L885.0 348.0"/>
    <path d="M885.0 348.0 L876.0 348.0"/>
    <path d="M885.0 348.0 L892.0 380.0"/>
    <path d="M892.0 380.0 L934.0 380.0"/>
    <path d="M934.0 380.0 L935.0 386.0"/>
    <path d="M934.0 380.0 L934.0 272.0"/>
    <path d="M932.0 238.0 L932.0 380.0"/>
    <path d="M884.0 386.0 L884.0 428.0"/>
    <path d="M949.0 270.0 L1014.0 270.0"/>
    <path d="M1014.0 270.0 L1025.0 317.0"/>
    <path d="M1025.0 317.0 L1025.0 428.0"/>
    <path d="M1024.0 436.0 L1015.0 436.0"/>
    <path d="M958.0 431.0 L950.0 395.0"/>
    <path d="M949.0 272.0 L949.0 270.0"/>
    <path d="M949.0 270.0 L951.0 281.0"/>
    <path d="M951.0 281.0 L963.0 281.0"/>
    <path d="M963.0 281.0 L962.0 278.0"/>
    <path d="M962.0 278.0 L1005.0 278.0"/>
    <path d="M1005.0 278.0 L1012.0 309.0"/>
    <path d="M1012.0 309.0 L1011.0 309.0"/>
    <path d="M1011.0 309.0 L1013.0 317.0"/>
    <path d="M1013.0 317.0 L1025.0 317.0"/>
    <path d="M1013.0 317.0 L1013.0 398.0"/>
    <path d="M1013.0 398.0 L959.0 398.0"/>
    <path d="M959.0 398.0 L951.0 362.0"/>
    <path d="M951.0 362.0 L951.0 281.0"/>
    <path d="M963.0 281.0 L963.0 362.0"/>
    <path d="M963.0 362.0 L951.0 362.0"/>
    <path d="M963.0 362.0 L969.0 390.0"/>
    <path d="M969.0 390.0 L1011.0 390.0"/>
    <path d="M1011.0 390.0 L1013.0 398.0"/>
    <path d="M1011.0 390.0 L1011.0 309.0"/>
    <path d="M1005.0 278.0 L1005.0 390.0"/>
    <path d="M959.0 398.0 L959.0 431.0"/>
    <path d="M1024.0 231.0 L1089.0 231.0"/>
    <path d="M1089.0 231.0 L1100.0 278.0"/>
    <path d="M1100.0 278.0 L1100.0 436.0"/>
    <path d="M1100.0 436.0 L1091.0 436.0"/>
    <path d="M1033.0 428.0 L1025.0 395.0"/>
    <path d="M1024.0 310.0 L1024.0 231.0"/>
    <path d="M1024.0 231.0 L1028.0 253.0"/>
    <path d="M1028.0 253.0 L1053.0 253.0"/>
    <path d="M1053.0 253.0 L1053.0 249.0"/>
    <path d="M1053.0 249.0 L1069.0 249.0"/>
    <path d="M1069.0 249.0 L1071.0 261.0"/>
    <path d="M1071.0 261.0 L1066.0 261.0"/>
    <path d="M1066.0 261.0 L1070.0 278.0"/>
    <path d="M1070.0 278.0 L1100.0 278.0"/>
    <path d="M1070.0 278.0 L1070.0 378.0"/>
    <path d="M1070.0 378.0 L1034.0 378.0"/>
    <path d="M1034.0 378.0 L1028.0 352.0"/>
    <path d="M1028.0 352.0 L1028.0 253.0"/>
    <path d="M1053.0 253.0 L1053.0 352.0"/>
    <path d="M1053.0 352.0 L1028.0 352.0"/>
    <path d="M1053.0 352.0 L1055.0 360.0"/>
    <path d="M1055.0 360.0 L1066.0 360.0"/>
    <path d="M1066.0 360.0 L1070.0 378.0"/>
    <path d="M1066.0 360.0 L1066.0 261.0"/>
    <path d="M1069.0 249.0 L1069.0 261.0"/>
    <path d="M1034.0 378.0 L1034.0 428.0"/>
    <path d="M50.0 80.0 L116.0 80.0"/>
    <path d="M116.0 80.0 L126.0 127.0"/>
    <path d="M126.0 127.0 L126.0 243.0"/>
    <path d="M126.0 243.0 L120.0 243.0"/>
    <path d="M56.0 224.0 L50.0 196.0"/>
    <path d="M50.0 196.0 L50.0 80.0"/>
    <path d="M50.0 80.0 L54.0 97.0"/>
    <path d="M54.0 97.0 L72.0 97.0"/>
    <path d="M72.0 97.0 L71.0 93.0"/>
    <path d="M71.0 93.0 L100.0 93.0"/>
    <path d="M100.0 93.0 L105.0 114.0"/>
    <path d="M105.0 114.0 L102.0 114.0"/>
    <path d="M102.0 114.0 L105.0 127.0"/>
    <path d="M105.0 127.0 L126.0 127.0"/>
    <path d="M105.0 127.0 L105.0 201.0"/>
    <path d="M105.0 201.0 L61.0 201.0"/>
    <path d="M61.0 201.0 L54.0 171.0"/>
    <path d="M54.0 171.0 L54.0 97.0"/>
    <path d="M72.0 97.0 L72.0 171.0"/>
    <path d="M72.0 171.0 L54.0 171.0"/>
    <path d="M72.0 171.0 L76.0 188.0"/>
    <path d="M76.0 188.0 L102.0 188.0"/>
    <path d="M102.0 188.0 L105.0 201.0"/>
    <path d="M102.0 188.0 L102.0 114.0"/>
    <path d="M100.0 93.0 L100.0 188.0"/>
    <path d="M61.0 201.0 L61.0 224.0"/>
    <path d="M125.0 50.0 L191.0 50.0"/>
    <path d="M191.0 50.0 L201.0 97.0"/>
    <path d="M201.0 97.0 L201.0 249.0"/>
    <path d="M201.0 249.0 L191.0 249.0"/>
    <path d="M135.0 247.0 L126.0 209.0"/>
    <path d="M125.0 120.0 L125.0 50.0"/>
    <path d="M125.0 50.0 L128.0 62.0"/>
    <path d="M128.0 62.0 L140.0 62.0"/>
    <path d="M140.0 62.0 L139.0 59.0"/>
    <path d="M139.0 59.0 L180.0 59.0"/>
    <path d="M180.0 59.0 L187.0 88.0"/>
    <path d="M187.0 88.0 L185.0 88.0"/>
    <path d="M185.0 88.0 L187.0 97.0"/>
    <path d="M187.0 97.0 L201.0 97.0"/>
    <path d="M187.0 97.0 L187.0 212.0"/>
    <path d="M187.0 212.0 L136.0 212.0"/>
    <path d="M136.0 212.0 L128.0 177.0"/>
    <path d="M128.0 177.0 L128.0 62.0"/>
    <path d="M140.0 62.0 L140.0 177.0"/>
    <path d="M140.0 177.0 L128.0 177.0"/>
    <path d="M140.0 177.0 L146.0 203.0"/>
    <path d="M146.0 203.0 L185.0 203.0"/>
    <path d="M185.0 203.0 L187.0 212.0"/>
    <path d="M185.0 203.0 L185.0 88.0"/>
    <path d="M180.0 59.0 L180.0 203.0"/>
    <path d="M136.0 212.0 L136.0 247.0"/>
    <path d="M200.0 50.0 L266.0 50.0"/>
    <path d="M266.0 50.0 L276.0 97.0"/>
    <path d="M276.0 97.0 L276.0 254.0"/>
    <path d="M276.0 254.0 L210.0 254.0"/>
    <path d="M210.0 254.0 L201.0 214.0"/>
    <path d="M200.0 90.0 L200.0 50.0"/>
    <path d="M200.0 50.0 L201.0 56.0"/>
    <path d="M201.0 56.0 L206.0 56.0"/>
    <path d="M206.0 56.0 L205.0 53.0"/>
    <path d="M205.0 53.0 L262.0 53.0"/>
    <path d="M262.0 53.0 L271.0 94.0"/>
    <path d="M271.0 94.0 L269.0 94.0"/>
    <path d="M269.0 94.0 L269.0 97.0"/>
    <path d="M269.0 97.0 L276.0 97.0"/>
    <path d="M269.0 97.0 L269.0 196.0"/>
    <path d="M269.0 196.0 L210.0 196.0"/>
    <path d="M210.0 196.0 L201.0 156.0"/>
    <path d="M201.0 96.0 L201.0 56.0"/>
    <path d="M206.0 56.0 L206.0 155.0"/>
    <path d="M206.0 155.0 L201.0 155.0"/>
    <path d="M206.0 155.0 L214.0 193.0"/>
    <path d="M214.0 193.0 L269.0 193.0"/>
    <path d="M269.0 193.0 L269.0 196.0"/>
    <path d="M269.0 193.0 L269.0 94.0"/>
    <path d="M262.0 53.0 L262.0 193.0"/>
    <path d="M210.0 196.0 L210.0 254.0"/>
    <path d="M275.0 50.0 L340.0 50.0"/>
    <path d="M340.0 50.0 L351.0 97.0"/>
    <path d="M351.0 97.0 L351.0 261.0"/>
    <path d="M351.0 261.0 L342.0 261.0"/>
    <path d="M284.0 254.0 L276.0 220.0"/>
    <path d="M275.0 90.0 L275.0 50.0"/>
    <path d="M275.0 50.0 L276.0 54.0"/>
    <path d="M276.0 54.0 L279.0 54.0"/>
    <path d="M279.0 54.0 L279.0 52.0"/>
    <path d="M279.0 52.0 L338.0 52.0"/>
    <path d="M338.0 52.0 L347.0 95.0"/>
    <path d="M347.0 95.0 L345.0 95.0"/>
    <path d="M345.0 95.0 L346.0 97.0"/>
    <path d="M346.0 97.0 L351.0 97.0"/>
    <path d="M346.0 97.0 L346.0 248.0"/>
    <path d="M346.0 248.0 L285.0 248.0"/>
    <path d="M285.0 248.0 L276.0 208.0"/>
    <path d="M276.0 95.0 L276.0 54.0"/>
    <path d="M279.0 54.0 L279.0 205.0"/>
    <path d="M279.0 205.0 L276.0 205.0"/>
    <path d="M279.0 205.0 L288.0 246.0"/>
    <path d="M288.0 246.0 L345.0 246.0"/>
    <path d="M345.0 246.0 L346.0 248.0"/>
    <path d="M345.0 246.0 L345.0 95.0"/>
    <path d="M338.0 52.0 L338.0 216.0"/>
    <path d="M281.0 216.0 L338.0 216.0"/>
    <path d="M344.0 246.0 L338.0 216.0"/>
    <path d="M285.0 248.0 L285.0 254.0"/>
    <path d="M350.0 63.0 L415.0 63.0"/>
    <path d="M415.0 63.0 L426.0 110.0"/>
    <path d="M426.0 110.0 L426.0 226.0"/>
    <path d="M424.0 243.0 L360.0 243.0"/>
    <path d="M360.0 243.0 L351.0 203.0"/>
    <path d="M350.0 90.0 L350.0 63.0"/>
    <path d="M350.0 63.0 L352.0 75.0"/>
    <path d="M352.0 75.0 L366.0 75.0"/>
    <path d="M366.0 75.0 L366.0 73.0"/>
    <path d="M366.0 73.0 L404.0 73.0"/>
    <path d="M404.0 73.0 L410.0 100.0"/>
    <path d="M410.0 100.0 L398.0 100.0"/>
    <path d="M398.0 100.0 L400.0 110.0"/>
    <path d="M400.0 110.0 L426.0 110.0"/>
    <path d="M400.0 110.0 L400.0 232.0"/>
    <path d="M400.0 232.0 L360.0 232.0"/>
    <path d="M360.0 232.0 L352.0 197.0"/>
    <path d="M352.0 197.0 L352.0 75.0"/>
    <path d="M366.0 75.0 L366.0 197.0"/>
    <path d="M366.0 197.0 L352.0 197.0"/>
    <path d="M366.0 197.0 L372.0 223.0"/>
    <path d="M372.0 223.0 L398.0 223.0"/>
    <path d="M398.0 223.0 L400.0 232.0"/>
    <path d="M398.0 223.0 L398.0 100.0"/>
    <path d="M404.0 73.0 L404.0 100.0"/>
    <path d="M368.0 206.0 L398.0 206.0"/>
    <path d="M360.0 232.0 L360.0 243.0"/>
    <path d="M424.0 68.0 L490.0 68.0"/>
    <path d="M490.0 68.0 L501.0 115.0"/>
    <path d="M501.0 115.0 L501.0 235.0"/>
    <path d="M499.0 243.0 L494.0 243.0"/>
    <path d="M431.0 226.0 L426.0 203.0"/>
    <path d="M424.0 103.0 L424.0 68.0"/>
    <path d="M424.0 68.0 L425.0 71.0"/>
    <path d="M425.0 71.0 L429.0 71.0"/>
    <path d="M429.0 71.0 L429.0 70.0"/>
    <path d="M429.0 70.0 L487.0 70.0"/>
    <path d="M487.0 70.0 L497.0 112.0"/>
    <path d="M497.0 112.0 L489.0 112.0"/>
    <path d="M489.0 112.0 L490.0 115.0"/>
    <path d="M490.0 115.0 L501.0 115.0"/>
    <path d="M490.0 115.0 L490.0 226.0"/>
    <path d="M432.0 226.0 L426.0 201.0"/>
    <path d="M425.0 107.0 L425.0 71.0"/>
    <path d="M429.0 71.0 L429.0 197.0"/>
    <path d="M429.0 197.0 L426.0 197.0"/>
    <path d="M429.0 197.0 L436.0 226.0"/>
    <path d="M489.0 226.0 L489.0 112.0"/>
    <path d="M487.0 70.0 L487.0 199.0"/>
    <path d="M429.0 199.0 L487.0 199.0"/>
    <path d="M489.0 208.0 L487.0 199.0"/>
    <path d="M499.0 88.0 L565.0 88.0"/>
    <path d="M565.0 88.0 L576.0 135.0"/>
    <path d="M576.0 135.0 L576.0 243.0"/>
    <path d="M576.0 243.0 L567.0 243.0"/>
    <path d="M508.0 235.0 L501.0 203.0"/>
    <path d="M499.0 108.0 L499.0 88.0"/>
    <path d="M499.0 88.0 L503.0 102.0"/>
    <path d="M503.0 102.0 L519.0 102.0"/>
    <path d="M519.0 102.0 L518.0 100.0"/>
    <path d="M518.0 100.0 L552.0 100.0"/>
    <path d="M552.0 100.0 L557.0 124.0"/>
    <path d="M557.0 124.0 L554.0 124.0"/>
    <path d="M554.0 124.0 L556.0 135.0"/>
    <path d="M556.0 135.0 L576.0 135.0"/>
    <path d="M556.0 135.0 L556.0 231.0"/>
    <path d="M556.0 231.0 L510.0 231.0"/>
    <path d="M510.0 231.0 L503.0 198.0"/>
    <path d="M503.0 198.0 L503.0 102.0"/>
    <path d="M519.0 102.0 L519.0 198.0"/>
    <path d="M519.0 198.0 L503.0 198.0"/>
    <path d="M519.0 198.0 L523.0 220.0"/>
    <path d="M523.0 220.0 L554.0 220.0"/>
    <path d="M554.0 220.0 L556.0 231.0"/>
    <path d="M554.0 220.0 L554.0 124.0"/>
    <path d="M552.0 100.0 L552.0 208.0"/>
    <path d="M521.0 208.0 L552.0 208.0"/>
    <path d="M554.0 217.0 L552.0 208.0"/>
    <path d="M510.0 231.0 L510.0 235.0"/>
    <path d="M574.0 88.0 L640.0 88.0"/>
    <path d="M640.0 88.0 L651.0 134.0"/>
    <path d="M651.0 134.0 L651.0 240.0"/>
    <path d="M649.0 243.0 L585.0 243.0"/>
    <path d="M585.0 243.0 L576.0 203.0"/>
    <path d="M574.0 129.0 L574.0 88.0"/>
    <path d="M574.0 88.0 L579.0 107.0"/>
    <path d="M579.0 107.0 L602.0 107.0"/>
    <path d="M602.0 107.0 L601.0 104.0"/>
    <path d="M601.0 104.0 L621.0 104.0"/>
    <path d="M621.0 104.0 L624.0 118.0"/>
    <path d="M624.0 118.0 L613.0 118.0"/>
    <path d="M613.0 118.0 L617.0 134.0"/>
    <path d="M617.0 134.0 L651.0 134.0"/>
    <path d="M617.0 134.0 L617.0 220.0"/>
    <path d="M617.0 220.0 L585.0 220.0"/>
    <path d="M585.0 220.0 L579.0 193.0"/>
    <path d="M579.0 193.0 L579.0 107.0"/>
    <path d="M602.0 107.0 L602.0 193.0"/>
    <path d="M602.0 193.0 L579.0 193.0"/>
    <path d="M602.0 193.0 L604.0 204.0"/>
    <path d="M604.0 204.0 L613.0 204.0"/>
    <path d="M613.0 204.0 L617.0 220.0"/>
    <path d="M613.0 204.0 L613.0 118.0"/>
    <path d="M621.0 104.0 L621.0 118.0"/>
    <path d="M585.0 220.0 L585.0 243.0"/>
    <path d="M649.0 88.0 L715.0 88.0"/>
    <path d="M715.0 88.0 L726.0 134.0"/>
    <path d="M726.0 134.0 L726.0 243.0"/>
    <path d="M726.0 243.0 L716.0 243.0"/>
    <path d="M659.0 240.0 L651.0 203.0"/>
    <path d="M649.0 128.0 L649.0 88.0"/>
    <path d="M649.0 88.0 L652.0 102.0"/>
    <path d="M652.0 102.0 L670.0 102.0"/>
    <path d="M670.0 102.0 L670.0 100.0"/>
    <path d="M670.0 100.0 L700.0 100.0"/>
    <path d="M700.0 100.0 L705.0 122.0"/>
    <path d="M705.0 122.0 L693.0 122.0"/>
    <path d="M693.0 122.0 L696.0 134.0"/>
    <path d="M696.0 134.0 L726.0 134.0"/>
    <path d="M696.0 134.0 L696.0 233.0"/>
    <path d="M696.0 233.0 L660.0 233.0"/>
    <path d="M660.0 233.0 L652.0 201.0"/>
    <path d="M652.0 201.0 L652.0 102.0"/>
    <path d="M670.0 102.0 L670.0 201.0"/>
    <path d="M670.0 201.0 L652.0 201.0"/>
    <path d="M670.0 201.0 L675.0 220.0"/>
    <path d="M675.0 220.0 L693.0 220.0"/>
    <path d="M693.0 220.0 L696.0 233.0"/>
    <path d="M693.0 220.0 L693.0 122.0"/>
    <path d="M700.0 100.0 L700.0 122.0"/>
    <path d="M672.0 209.0 L693.0 209.0"/>
    <path d="M660.0 233.0 L660.0 240.0"/>
    <path d="M724.0 50.0 L790.0 50.0"/>
    <path d="M790.0 50.0 L800.0 97.0"/>
    <path d="M800.0 97.0 L800.0 265.0"/>
    <path d="M799.0 275.0 L791.0 275.0"/>
    <path d="M734.0 270.0 L726.0 235.0"/>
    <path d="M724.0 128.0 L724.0 50.0"/>
    <path d="M724.0 50.0 L726.0 60.0"/>
    <path d="M726.0 60.0 L736.0 60.0"/>
    <path d="M736.0 60.0 L735.0 57.0"/>
    <path d="M735.0 57.0 L782.0 57.0"/>
    <path d="M782.0 57.0 L790.0 90.0"/>
    <path d="M790.0 90.0 L778.0 90.0"/>
    <path d="M778.0 90.0 L779.0 97.0"/>
    <path d="M779.0 97.0 L800.0 97.0"/>
    <path d="M779.0 97.0 L779.0 235.0"/>
    <path d="M779.0 235.0 L735.0 235.0"/>
    <path d="M735.0 235.0 L726.0 199.0"/>
    <path d="M726.0 199.0 L726.0 60.0"/>
    <path d="M736.0 60.0 L736.0 199.0"/>
    <path d="M736.0 199.0 L726.0 199.0"/>
    <path d="M736.0 199.0 L742.0 229.0"/>
    <path d="M742.0 229.0 L778.0 229.0"/>
    <path d="M778.0 229.0 L779.0 235.0"/>
    <path d="M778.0 229.0 L778.0 90.0"/>
    <path d="M782.0 57.0 L782.0 90.0"/>
    <path d="M735.0 235.0 L735.0 270.0"/>
    <path d="M799.0 74.0 L865.0 74.0"/>
    <path d="M865.0 74.0 L875.0 121.0"/>
    <path d="M875.0 121.0 L875.0 231.0"/>
    <path d="M874.0 243.0 L810.0 243.0"/>
    <path d="M810.0 243.0 L800.0 203.0"/>
    <path d="M799.0 90.0 L799.0 74.0"/>
    <path d="M799.0 74.0 L803.0 91.0"/>
    <path d="M803.0 91.0 L823.0 91.0"/>
    <path d="M823.0 91.0 L823.0 89.0"/>
    <path d="M823.0 89.0 L847.0 89.0"/>
    <path d="M847.0 89.0 L851.0 106.0"/>
    <path d="M851.0 106.0 L848.0 106.0"/>
    <path d="M848.0 106.0 L851.0 121.0"/>
    <path d="M851.0 121.0 L875.0 121.0"/>
    <path d="M851.0 121.0 L851.0 211.0"/>
    <path d="M851.0 211.0 L810.0 211.0"/>
    <path d="M810.0 211.0 L803.0 181.0"/>
    <path d="M803.0 181.0 L803.0 91.0"/>
    <path d="M823.0 91.0 L823.0 181.0"/>
    <path d="M823.0 181.0 L803.0 181.0"/>
    <path d="M823.0 181.0 L827.0 196.0"/>
    <path d="M827.0 196.0 L848.0 196.0"/>
    <path d="M848.0 196.0 L851.0 211.0"/>
    <path d="M848.0 196.0 L848.0 106.0"/>
    <path d="M847.0 89.0 L847.0 196.0"/>
    <path d="M810.0 211.0 L810.0 243.0"/>
    <path d="M874.0 50.0 L940.0 50.0"/>
    <path d="M940.0 50.0 L950.0 97.0"/>
    <path d="M950.0 97.0 L950.0 246.0"/>
    <path d="M950.0 246.0 L943.0 246.0"/>
    <path d="M881.0 231.0 L875.0 205.0"/>
    <path d="M874.0 114.0 L874.0 50.0"/>
    <path d="M874.0 50.0 L878.0 70.0"/>
    <path d="M878.0 70.0 L904.0 70.0"/>
    <path d="M904.0 70.0 L904.0 68.0"/>
    <path d="M904.0 68.0 L918.0 68.0"/>
    <path d="M918.0 68.0 L920.0 78.0"/>
    <path d="M920.0 78.0 L915.0 78.0"/>
    <path d="M915.0 78.0 L919.0 97.0"/>
    <path d="M919.0 97.0 L950.0 97.0"/>
    <path d="M919.0 97.0 L919.0 189.0"/>
    <path d="M919.0 189.0 L884.0 189.0"/>
    <path d="M884.0 189.0 L878.0 162.0"/>
    <path d="M878.0 162.0 L878.0 70.0"/>
    <path d="M904.0 70.0 L904.0 162.0"/>
    <path d="M904.0 162.0 L878.0 162.0"/>
    <path d="M904.0 162.0 L906.0 170.0"/>
    <path d="M906.0 170.0 L915.0 170.0"/>
    <path d="M915.0 170.0 L919.0 189.0"/>
    <path d="M915.0 170.0 L915.0 78.0"/>
    <path d="M918.0 68.0 L918.0 78.0"/>
    <path d="M884.0 189.0 L884.0 231.0"/>
    <path d="M949.0 76.0 L1014.0 76.0"/>
    <path d="M1014.0 76.0 L1025.0 123.0"/>
    <path d="M1025.0 123.0 L1025.0 231.0"/>
    <path d="M1024.0 243.0 L959.0 243.0"/>
    <path d="M959.0 243.0 L950.0 203.0"/>
    <path d="M949.0 90.0 L949.0 76.0"/>
    <path d="M949.0 76.0 L952.0 90.0"/>
    <path d="M952.0 90.0 L968.0 90.0"/>
    <path d="M968.0 90.0 L967.0 88.0"/>
    <path d="M967.0 88.0 L1001.0 88.0"/>
    <path d="M1001.0 88.0 L1007.0 112.0"/>
    <path d="M1007.0 112.0 L1004.0 112.0"/>
    <path d="M1004.0 112.0 L1006.0 123.0"/>
    <path d="M1006.0 123.0 L1025.0 123.0"/>
    <path d="M1006.0 123.0 L1006.0 201.0"/>
    <path d="M1006.0 201.0 L959.0 201.0"/>
    <path d="M959.0 201.0 L952.0 168.0"/>
    <path d="M952.0 168.0 L952.0 90.0"/>
    <path d="M968.0 90.0 L968.0 168.0"/>
    <path d="M968.0 168.0 L952.0 168.0"/>
    <path d="M968.0 168.0 L973.0 190.0"/>
    <path d="M973.0 190.0 L1004.0 190.0"/>
    <path d="M1004.0 190.0 L1006.0 201.0"/>
    <path d="M1004.0 190.0 L1004.0 112.0"/>
    <path d="M1001.0 88.0 L1001.0 190.0"/>
    <path d="M959.0 201.0 L959.0 243.0"/>
    <path d="M1024.0 75.0 L1089.0 75.0"/>
    <path d="M1089.0 75.0 L1100.0 122.0"/>
    <path d="M1100.0 122.0 L1100.0 243.0"/>
    <path d="M1100.0 243.0 L1092.0 243.0"/>
    <path d="M1032.0 231.0 L1025.0 203.0"/>
    <path d="M1024.0 117.0 L1024.0 75.0"/>
    <path d="M1024.0 75.0 L1026.0 86.0"/>
    <path d="M1026.0 86.0 L1040.0 86.0"/>
    <path d="M1040.0 86.0 L1040.0 85.0"/>
    <path d="M1040.0 85.0 L1078.0 85.0"/>
    <path d="M1078.0 85.0 L1084.0 112.0"/>
    <path d="M1084.0 112.0 L1072.0 112.0"/>
    <path d="M1072.0 112.0 L1074.0 122.0"/>
    <path d="M1074.0 122.0 L1100.0 122.0"/>
    <path d="M1074.0 122.0 L1074.0 222.0"/>
    <path d="M1074.0 222.0 L1034.0 222.0"/>
    <path d="M1034.0 222.0 L1026.0 186.0"/>
    <path d="M1026.0 186.0 L1026.0 86.0"/>
    <path d="M1040.0 86.0 L1040.0 186.0"/>
    <path d="M1040.0 186.0 L1026.0 186.0"/>
    <path d="M1040.0 186.0 L1046.0 212.0"/>
    <path d="M1046.0 212.0 L1072.0 212.0"/>
    <path d="M1072.0 212.0 L1074.0 222.0"/>
    <path d="M1072.0 212.0 L1072.0 112.0"/>
    <path d="M1078.0 85.0 L1078.0 112.0"/>
    <path d="M1045.0 206.0 L1072.0 206.0"/>
    <path d="M1034.0 222.0 L1034.0 231.0"/>
  </g>
</svg>
