<svg version="1.1" width="1150" height="870" xmlns="http://www.w3.org/2000/svg">
  <!-- Seed: 6038661876639075519 -->
  <g stroke="black" fill="none">
    <path d="M625.0 435.0Q629.97 436.91 635.0 435.0Q639.96 437.14 645.0 435.0Q649.93 438.29 655.0 435.0Q660.0 435.56 665.0 435.0Q669.87 439.9 675.0 435.0Q679.88 440.08 685.0 435.0Q689.85 440.92 695.0 435.0Q700.0 434.83 705.0 435.0Q710.0 434.32 715.0 435.0Q719.9 429.72 725.0 435.0Q729.99 432.95 735.0 435.0Q739.94 439.41 745.0 435.0Q749.88 441.51 755.0 435.0Q759.91 429.25 765.0 435.0Q769.99 436.95 775.0 435.0Q779.8 426.06 785.0 435.0Q789.98 431.84 795.0 435.0Q799.99 436.91 805.0 435.0Q809.9 428.13 815.0 435.0Q819.88 427.44 825.0 435.0Q829.99 432.56 835.0 435.0Q839.79 445.56 845.0 435.0Q849.95 440.35 855.0 435.0Q859.66 421.18 865.0 435.0Q869.87 426.36 875.0 435.0Q879.9 427.21 885.0 435.0Q889.97 439.49 895.0 435.0Q900.0 434.49 905.0 435.0Q909.68 449.65 915.0 435.0Q919.87 444.4 925.0 435.0Q929.72 449.06 935.0 435.0Q939.8 447.14 945.0 435.0"/>
    <path d="M624.9 438.14Q629.98 436.58 634.88 438.77Q639.99 436.33 644.86 439.4Q649.65 442.23 654.84 440.02Q659.56 443.67 664.82 440.65Q669.84 440.51 674.8 441.28Q679.96 437.93 684.78 441.91Q689.84 441.03 694.76 442.53Q699.74 443.04 704.74 443.16Q709.82 442.05 714.72 443.79Q719.39 448.25 724.7 444.42Q729.98 437.51 734.68 445.05Q739.63 445.99 744.66 445.67Q749.99 437.01 754.64 446.3Q759.21 452.11 764.63 446.93Q769.97 438.45 774.61 447.56Q778.84 456.79 784.59 448.19Q789.85 443.08 794.57 448.81Q799.7 446.61 804.55 449.44Q809.5 450.25 814.53 450.07Q819.16 455.26 824.51 450.7Q829.98 437.92 834.49 451.33Q839.47 451.71 844.47 451.95Q849.89 442.95 854.45 452.58Q859.94 440.65 864.43 453.21Q869.78 446.32 874.41 453.84Q878.04 469.48 884.39 454.47Q889.92 442.01 894.37 455.09Q899.01 460.38 904.35 455.72Q907.96 471.96 914.33 456.35Q918.0 472.09 924.31 456.98Q929.85 445.29 934.29 457.6Q939.65 450.88 944.27 458.23"/>
    <path d="M624.61 441.27Q629.4 443.08 634.53 442.52Q639.01 446.29 644.45 443.77Q649.64 442.39 654.37 445.03Q658.74 449.58 664.29 446.28Q668.74 450.39 674.21 447.53Q679.61 444.0 684.13 448.79Q689.06 449.66 694.05 450.04Q698.89 451.64 703.97 451.29Q708.81 452.92 713.9 452.55Q718.15 458.08 723.82 453.8Q729.39 448.72 733.74 455.05Q738.71 455.63 743.66 456.31Q748.57 457.3 753.58 457.56Q759.5 448.62 763.5 458.81Q767.81 464.15 773.42 460.07Q777.66 465.92 783.34 461.32Q788.83 457.37 793.27 462.57Q796.98 471.73 803.19 463.83Q808.61 460.55 813.11 465.08Q819.13 455.63 823.03 466.33Q827.67 469.43 832.95 467.59Q838.94 458.64 842.87 468.84Q846.99 475.56 852.79 470.09Q859.05 458.23 862.71 471.35Q866.6 479.69 872.63 472.6Q875.51 487.16 882.56 473.85Q889.11 458.62 892.48 475.11Q898.15 469.62 902.4 476.36Q907.52 475.65 912.32 477.61Q918.22 470.04 922.24 478.87Q928.53 467.23 932.16 480.12Q934.3 499.26 942.08 481.37"/>
    <path d="M624.11 444.37Q629.37 443.28 633.94 446.24Q639.25 444.85 643.76 448.12Q648.47 450.1 653.58 449.99Q658.27 452.08 663.41 451.86Q669.03 448.54 673.23 453.74Q678.24 454.17 683.05 455.61Q687.96 456.56 692.87 457.49Q696.71 463.48 702.7 459.36Q707.98 458.27 712.52 461.23Q718.63 454.9 722.34 463.11Q726.86 466.03 732.17 464.98Q735.47 473.4 741.99 466.85Q747.38 465.18 751.81 468.73Q757.91 462.74 761.63 470.6Q767.73 464.69 771.46 472.48Q775.94 475.6 781.28 474.35Q785.81 477.26 791.1 476.22Q794.1 486.19 800.93 478.1Q803.53 489.76 810.75 479.97Q813.98 488.99 820.57 481.85Q826.77 475.46 830.39 483.72Q834.14 490.4 840.22 485.59Q842.4 499.2 850.04 487.47Q855.73 484.18 859.86 489.34Q861.6 504.88 869.69 491.21Q875.35 488.05 879.51 493.09Q886.92 478.94 889.33 494.96Q894.66 493.67 899.15 496.84Q906.35 484.35 908.98 498.71Q910.94 513.55 918.8 500.58Q926.25 486.49 928.62 502.46Q929.79 520.72 938.45 504.33"/>
    <path d="M623.43 447.43Q627.68 450.81 633.11 449.92Q638.18 450.29 642.8 452.41Q647.71 453.39 652.49 454.9Q656.57 458.89 662.17 457.38Q666.48 460.63 671.86 459.87Q676.56 461.64 681.54 462.36Q687.64 458.2 691.23 464.84Q695.0 470.0 700.92 467.33Q707.15 462.59 710.6 469.82Q713.94 476.49 720.29 472.3Q725.81 470.81 729.97 474.79Q733.13 482.13 739.66 477.28Q745.22 475.63 749.34 479.76Q755.29 476.47 759.03 482.25Q763.0 486.79 768.72 484.74Q774.97 480.15 778.4 487.22Q781.06 496.34 788.09 489.71Q793.77 487.58 797.77 492.2Q803.95 488.0 807.46 494.69Q813.48 491.15 817.15 497.17Q821.83 499.03 826.83 499.66Q828.79 511.27 836.52 502.15Q839.82 509.14 846.2 504.63Q848.64 514.68 855.89 507.12Q857.89 518.66 865.57 509.61Q871.48 506.58 875.26 512.09Q877.03 524.46 884.95 514.58Q887.86 523.0 894.63 517.07Q899.41 518.57 904.32 519.55Q911.47 511.22 914.0 522.04Q914.23 539.65 923.69 524.53Q923.39 543.84 933.38 527.02"/>
    <path d="M622.55 450.45Q627.72 450.67 632.06 453.54Q637.45 453.03 641.57 456.63Q645.88 459.51 651.08 459.72Q657.02 457.32 660.6 462.81Q665.87 462.71 670.11 465.9Q674.79 467.67 679.62 468.99Q684.04 471.55 689.13 472.08Q692.88 476.59 698.64 475.17Q701.23 482.85 708.15 478.26Q712.3 481.62 717.66 481.35Q724.12 477.3 727.17 484.44Q733.57 480.61 736.68 487.53Q743.69 481.56 746.19 490.62Q751.46 490.57 755.7 493.71Q762.02 490.2 765.21 496.8Q768.18 503.61 774.72 499.89Q778.07 505.61 784.23 502.98Q785.93 513.31 793.74 506.07Q798.91 506.33 803.25 509.16Q807.52 512.2 812.76 512.25Q817.2 514.79 822.27 515.34Q823.48 527.11 831.79 518.43Q837.54 516.84 841.3 521.52Q848.5 515.13 850.81 524.61Q854.58 529.13 860.32 527.71Q861.83 538.71 869.83 530.8Q871.11 542.45 879.34 533.89Q886.51 527.67 888.85 536.98Q895.34 533.03 898.36 540.07Q905.02 535.55 907.87 543.16Q915.11 536.72 917.38 546.25Q924.54 540.09 926.89 549.34"/>
    <path d="M621.49 453.41Q625.28 457.3 630.79 457.09Q634.81 460.45 640.08 460.77Q644.16 464.02 649.38 464.45Q654.77 464.36 658.68 468.13Q664.96 465.53 667.98 471.81Q672.55 473.85 677.28 475.49Q682.38 476.17 686.57 479.17Q690.22 483.48 695.87 482.86Q702.53 479.28 705.17 486.54Q710.34 487.03 714.47 490.22Q720.03 489.68 723.76 493.9Q726.06 501.37 733.06 497.58Q737.22 500.65 742.36 501.26Q746.84 503.52 751.66 504.94Q754.15 512.02 760.96 508.62Q766.87 507.2 770.25 512.31Q772.21 520.63 779.55 515.99Q782.02 523.13 788.85 519.67Q793.93 520.4 798.15 523.35Q804.37 521.1 807.44 527.03Q814.79 521.74 816.74 530.71Q819.04 538.3 826.04 534.39Q827.11 544.84 835.34 538.07Q843.64 530.17 844.64 541.76Q846.82 549.61 853.93 545.44Q863.64 533.54 863.23 549.12Q873.45 535.76 872.53 552.8Q875.82 558.02 881.83 556.48Q880.31 572.88 891.12 560.16Q889.3 577.26 900.42 563.84Q904.1 568.11 909.72 567.52Q911.23 577.04 919.02 571.21"/>
    <path d="M620.24 456.29Q624.65 458.66 629.29 460.55Q632.31 465.68 638.34 464.8Q642.78 467.1 647.39 469.06Q653.06 468.64 656.43 473.32Q660.08 477.26 665.48 477.58Q671.14 477.21 674.53 481.84Q676.96 488.19 683.58 486.09Q690.23 483.44 692.63 490.35Q695.68 495.51 701.68 494.61Q703.81 501.58 710.72 498.87Q716.51 498.24 719.77 503.12Q721.93 510.08 728.82 507.38Q735.66 504.37 737.87 511.64Q743.38 511.63 746.92 515.9Q747.2 526.51 755.97 520.16Q759.61 524.12 765.01 524.41Q768.0 529.73 774.06 528.67Q779.43 528.99 783.11 532.93Q783.5 543.41 792.16 537.19Q798.32 535.76 801.21 541.44Q801.98 551.21 810.26 545.7Q819.39 537.45 819.3 549.96Q828.5 541.6 828.35 554.22Q829.44 563.4 837.4 558.48Q839.4 565.83 846.45 562.73Q854.45 557.2 855.5 566.99Q857.6 574.15 864.54 571.25Q868.53 574.52 873.59 575.51Q877.27 579.42 882.64 579.76Q892.12 570.86 891.69 584.02Q903.35 569.94 900.74 588.28Q900.09 600.95 909.79 592.54"/>
    <path d="M618.82 459.09Q624.1 459.78 627.58 463.91Q631.7 466.79 636.34 468.72Q642.43 467.84 645.1 473.54Q649.74 475.48 653.87 478.36Q655.75 485.04 662.63 483.18Q668.14 483.48 671.39 487.99Q673.66 494.09 680.16 492.81Q686.05 492.38 688.92 497.63Q692.84 500.87 697.68 502.45Q703.05 503.03 706.45 507.26Q711.02 509.33 715.21 512.08Q718.9 515.74 723.97 516.9Q731.35 513.6 732.74 521.72Q736.77 524.76 741.5 526.53Q741.32 536.8 750.26 531.35Q758.77 525.84 759.02 536.17Q762.84 539.59 767.79 540.99Q776.46 535.19 776.55 545.8Q784.06 542.32 785.31 550.62Q787.62 556.72 794.08 555.44Q802.7 549.79 802.84 560.26Q801.03 573.33 811.6 565.07Q809.71 578.3 820.37 569.89Q820.64 579.53 829.13 574.71Q833.49 577.16 837.89 579.53Q836.82 591.45 846.66 584.34Q854.96 579.38 855.42 589.16Q865.3 581.13 864.18 593.98Q868.67 596.19 872.94 598.8Q879.15 597.84 881.71 603.61Q888.51 601.54 890.47 608.43Q894.66 611.18 899.23 613.25"/>
    <path d="M617.22 461.79Q620.94 465.24 625.66 467.15Q628.32 472.18 634.1 472.51Q636.99 477.22 642.55 477.87Q648.02 478.51 650.99 483.22Q652.61 489.78 659.43 488.58Q661.82 494.05 667.88 493.94Q674.06 493.42 676.32 499.3Q679.42 503.72 684.76 504.66Q688.99 507.33 693.21 510.02Q700.83 507.05 701.65 515.37Q704.24 520.57 710.09 520.73Q718.63 516.21 718.54 526.09Q718.33 535.41 726.98 531.45Q731.79 533.19 735.42 536.81Q737.45 542.87 743.87 542.17Q744.39 550.47 752.31 547.52Q757.29 549.0 760.75 552.88Q767.0 552.31 769.2 558.24Q768.11 568.92 777.64 563.6Q777.38 573.09 786.08 568.96Q797.1 560.29 794.53 574.31Q795.32 582.26 802.97 579.67Q811.78 574.85 811.41 585.03Q812.18 593.02 819.86 590.39Q823.06 594.66 828.3 595.75Q829.01 603.83 836.74 601.11Q835.25 612.47 845.18 606.46Q857.48 595.72 853.63 611.82Q855.03 618.86 862.07 617.18Q870.75 612.64 870.51 622.54Q865.85 638.55 878.96 627.9Q874.34 643.86 887.4 633.26"/>
    <path d="M615.45 464.39Q619.35 467.53 623.54 470.27Q625.94 475.37 631.63 476.14Q637.08 477.08 639.72 482.02Q642.98 486.02 647.81 487.9Q651.4 491.46 655.9 493.78Q662.67 492.79 663.99 499.66Q665.67 505.73 672.08 505.53Q673.75 511.63 680.17 511.41Q687.29 509.94 688.26 517.29Q688.78 524.89 696.35 523.17Q697.46 530.02 704.44 529.05Q705.18 536.38 712.53 534.92Q719.92 533.1 720.62 540.8Q727.43 539.84 728.71 546.68Q737.11 543.38 736.8 552.56Q738.09 559.2 744.89 558.43Q748.62 561.81 752.98 564.31Q754.02 571.3 761.07 570.19Q759.16 580.98 769.16 576.07Q777.03 573.6 777.25 581.95Q782.62 583.04 785.34 587.82Q786.11 595.18 793.43 593.7Q790.14 606.28 801.52 599.58Q807.97 599.16 809.61 605.46Q814.45 607.3 817.71 611.34Q814.79 623.48 825.8 617.21Q824.71 627.01 833.89 623.09Q844.55 616.58 841.98 628.97Q850.9 625.01 850.07 634.85Q848.81 644.89 858.16 640.72Q858.19 649.08 866.25 646.6Q874.62 643.46 874.34 652.48"/>
    <path d="M613.53 466.87Q617.67 469.7 621.23 473.25Q626.21 475.03 628.94 479.62Q631.39 484.45 636.64 485.99Q639.11 490.81 644.35 492.37Q648.59 495.09 652.05 498.74Q658.94 498.08 659.76 505.12Q665.3 506.21 667.46 511.49Q674.77 510.3 675.17 517.87Q674.82 525.89 682.87 524.24Q682.43 532.38 690.58 530.61Q692.41 536.19 698.28 536.99Q702.15 540.15 705.99 543.36Q710.66 545.55 713.69 549.74Q721.77 547.63 721.4 556.11Q720.79 564.5 729.1 562.48Q739.14 557.81 736.81 568.86Q738.51 574.6 744.51 575.23Q746.44 580.72 752.22 581.61Q763.27 575.64 759.92 587.98Q766.52 587.79 767.63 594.36Q773.95 594.52 775.33 600.73Q772.97 611.16 783.04 607.1Q789.76 606.76 790.74 613.48Q790.5 621.51 798.45 619.85Q793.83 632.83 806.15 626.23Q806.34 633.76 813.86 632.6Q813.48 640.79 821.56 638.98Q835.25 629.67 829.27 645.35Q832.0 649.89 836.97 651.72Q835.09 661.67 844.68 658.1Q845.32 665.11 852.38 664.47Q856.39 667.48 860.09 670.85"/>
    <path d="M611.45 469.23Q615.93 471.74 618.74 476.07Q620.6 481.32 626.03 482.92Q630.69 485.24 633.32 489.76Q636.66 493.51 640.61 496.61Q642.56 501.79 647.9 503.45Q654.76 503.28 655.19 510.3Q656.72 515.92 662.48 517.15Q668.72 517.72 669.77 523.99Q671.53 529.38 677.06 530.84Q683.07 531.68 684.35 537.68Q686.15 543.03 691.63 544.53Q690.63 552.71 698.92 551.37Q699.66 557.82 706.21 558.22Q704.83 566.79 713.5 565.06Q717.73 567.86 720.79 571.91Q729.35 569.92 728.08 578.75Q732.8 581.03 735.37 585.6Q733.47 594.72 742.66 592.45Q744.0 598.3 749.95 599.29Q750.62 605.83 757.24 606.14Q752.42 618.16 764.53 612.98Q763.73 621.03 771.82 619.83Q772.04 626.84 779.11 626.67Q774.03 638.99 786.4 633.52Q781.08 646.08 793.69 640.36Q803.6 636.91 800.98 647.21Q798.58 656.89 808.27 654.06Q801.05 668.51 815.56 660.9Q808.33 675.38 822.85 667.75Q824.43 673.35 830.14 674.59Q843.2 667.58 837.43 681.44Q845.41 680.16 844.72 688.28"/>
    <path d="M609.23 471.45Q611.22 476.39 616.07 478.74Q617.31 484.34 622.92 486.03Q625.99 490.0 629.76 493.32Q633.68 496.49 636.61 500.61Q639.29 504.94 643.45 507.9Q642.92 515.07 650.3 515.19Q649.26 522.81 657.15 522.48Q657.5 528.91 663.99 529.77Q669.21 531.69 670.84 537.06Q671.42 543.3 677.68 544.35Q675.31 553.16 684.53 551.63Q688.5 554.76 691.37 558.92Q700.11 557.37 698.22 566.21Q696.66 574.37 705.06 573.5Q706.06 579.39 711.91 580.79Q713.83 585.84 718.75 588.08Q714.01 599.01 725.6 595.37Q729.67 598.41 732.45 602.66Q734.2 607.86 739.29 609.95Q746.87 609.61 746.14 617.24Q757.64 612.95 752.98 624.53Q765.94 618.75 759.83 631.82Q768.73 630.17 766.67 639.11Q770.88 642.02 773.52 646.4Q782.61 644.58 780.36 653.69Q780.4 660.47 787.21 660.98Q796.44 659.03 794.06 668.27Q798.31 671.13 800.9 675.56Q797.79 685.18 807.75 682.85Q823.22 674.61 814.59 690.14Q817.24 694.51 821.44 697.43Q837.47 688.65 828.28 704.72"/>
    <path d="M606.87 473.53Q609.26 478.03 613.25 481.23Q617.4 484.26 619.62 488.94Q624.4 491.43 625.99 496.64Q630.95 498.98 632.37 504.35Q631.98 511.02 638.74 512.05Q642.27 515.62 645.12 519.76Q651.51 520.86 651.49 527.46Q653.36 532.39 657.87 535.17Q665.0 535.62 664.24 542.87Q664.43 549.14 670.61 550.58Q673.43 554.73 676.99 558.28Q684.72 558.23 683.36 565.99Q689.39 567.44 689.74 573.69Q692.73 577.71 696.11 581.4Q704.82 580.5 702.48 589.1Q709.06 590.09 708.86 596.81Q717.84 595.69 715.23 604.51Q721.86 605.46 721.61 612.22Q729.51 612.06 727.98 619.92Q731.13 623.81 734.36 627.63Q747.49 622.81 740.73 635.33Q742.18 640.61 747.1 643.04Q754.93 642.97 753.48 650.74Q756.49 654.74 759.85 658.45Q755.05 668.68 766.23 666.15Q762.39 675.64 772.6 673.86Q786.0 668.89 778.98 681.56Q772.93 692.78 785.35 689.27Q791.93 690.28 791.72 696.97Q790.36 704.53 798.1 704.68Q787.21 719.59 804.47 712.38Q814.26 710.65 810.85 720.09"/>
    <path d="M604.39 475.45Q605.28 480.92 610.27 483.54Q615.33 485.97 616.14 491.63Q621.4 493.93 622.02 499.72Q624.65 503.99 627.9 507.81Q633.61 509.76 633.78 515.9Q636.09 520.4 639.66 523.99Q641.04 529.15 645.53 532.08Q643.85 539.33 651.41 540.17Q654.93 543.79 657.29 548.26Q665.68 548.15 663.17 556.35Q666.17 560.35 669.05 564.44Q676.04 565.44 674.92 572.53Q673.52 579.63 680.8 580.62Q685.19 583.61 686.68 588.71Q688.86 593.3 692.56 596.8Q687.73 606.22 698.43 604.89Q707.41 604.39 704.31 612.98Q715.63 610.64 710.19 621.07Q704.32 631.22 716.07 629.16Q716.49 635.01 721.95 637.25Q717.74 646.31 727.82 645.34Q741.06 641.51 733.7 653.43Q747.68 649.02 739.58 661.52Q748.83 660.85 745.46 669.61Q737.58 681.15 751.34 677.71Q758.2 678.85 757.21 685.8Q760.24 689.77 763.09 693.89Q761.56 701.12 768.97 701.98Q768.52 708.45 774.85 710.07Q776.21 715.25 780.72 718.16Q776.45 727.3 786.6 726.25Q790.36 729.69 792.48 734.34"/>
    <path d="M601.79 477.22Q602.73 482.49 607.15 485.66Q609.55 490.06 612.51 494.1Q616.98 497.15 617.87 502.55Q619.9 507.18 623.22 510.99Q625.96 515.17 628.58 519.43Q629.35 524.84 633.94 527.88Q633.05 534.28 639.3 536.32Q642.58 540.16 644.66 544.76Q643.24 551.49 650.02 553.21Q657.78 554.05 655.37 561.65Q655.76 567.3 660.73 570.09Q666.9 572.04 666.09 578.54Q665.56 584.75 671.45 586.98Q679.85 587.42 676.81 595.42Q674.74 602.56 682.17 603.87Q687.33 606.48 687.52 612.31Q690.28 616.48 692.88 620.75Q690.34 628.19 698.24 629.2Q700.68 633.57 703.6 637.64Q702.16 644.41 708.96 646.08Q702.09 656.07 714.31 654.53Q721.71 655.68 719.67 662.97Q710.97 674.04 725.03 671.41Q739.07 668.03 730.39 679.86Q742.39 677.91 735.75 688.3Q738.73 692.33 741.11 696.74Q753.32 694.66 746.46 705.18Q758.19 703.45 751.82 713.63Q763.0 712.28 757.18 722.07Q754.57 729.58 762.54 730.51Q776.02 727.6 767.9 738.96Q781.59 735.91 773.26 747.4"/>
    <path d="M599.09 478.82Q603.82 481.84 603.91 487.58Q606.91 491.63 608.72 496.34Q609.46 501.61 613.54 505.1Q617.22 508.77 618.36 513.87Q617.44 519.99 623.18 522.63Q627.16 526.13 627.99 531.39Q625.17 538.48 632.81 540.16Q634.27 545.06 637.63 548.92Q643.25 551.48 642.45 557.68Q648.71 559.87 647.26 566.45Q652.83 569.04 652.08 575.21Q648.02 582.97 656.9 583.97Q657.34 589.42 661.72 592.74Q670.41 593.5 666.53 601.5Q676.63 601.42 671.35 610.26Q669.77 616.78 676.17 619.02Q669.72 628.01 680.99 627.79Q677.74 635.17 685.8 636.55Q691.22 639.25 690.62 645.31Q698.15 646.8 695.44 654.08Q695.68 659.63 700.26 662.84Q706.07 665.32 705.07 671.6Q703.69 678.03 709.89 680.37Q705.83 688.2 714.71 689.13Q729.81 686.11 719.53 697.89Q731.23 696.95 724.34 706.66Q720.24 714.52 729.16 715.42Q724.26 723.7 733.98 724.18Q740.45 726.29 738.8 732.94Q738.36 738.87 743.61 741.71Q747.18 745.45 748.43 750.47Q745.8 757.57 753.25 759.23"/>
    <path d="M596.29 480.24Q598.9 484.54 600.55 489.29Q603.77 493.29 604.8 498.34Q607.1 502.79 609.06 507.39Q612.83 511.12 613.32 516.43Q617.1 520.16 617.58 525.48Q617.86 530.86 621.84 534.53Q627.14 537.5 626.09 543.58Q622.6 550.58 630.35 552.63Q631.89 557.43 634.61 561.68Q634.22 567.36 638.87 570.72Q638.89 576.22 643.12 579.77Q647.08 583.42 647.38 588.82Q647.13 594.44 651.64 597.87Q647.16 605.35 655.9 606.92Q662.62 609.21 660.16 615.97Q663.89 619.73 664.41 625.01Q664.19 630.63 668.67 634.06Q666.1 640.73 672.93 643.11Q682.78 643.83 677.19 652.16Q669.69 660.96 681.44 661.21Q686.49 664.34 685.7 670.26Q694.0 671.78 689.96 679.3Q681.05 688.73 694.22 688.35Q706.75 687.72 698.48 697.4Q692.13 705.75 702.73 706.45Q711.94 707.53 706.99 715.5Q696.04 725.82 711.25 724.54Q721.64 725.04 715.51 733.59Q706.67 743.04 719.76 742.64Q715.32 750.17 724.02 751.69Q719.4 759.31 728.28 760.74Q713.04 772.89 732.54 769.79"/>
    <path d="M593.41 481.49Q594.93 486.26 597.09 490.79Q597.64 495.93 600.77 500.08Q606.16 503.22 604.45 509.38Q608.83 512.98 608.13 518.68Q607.22 524.37 611.81 527.98Q617.65 530.95 615.49 537.28Q613.57 543.34 619.17 546.57Q616.87 552.78 622.86 555.87Q625.84 560.06 626.54 565.17Q633.29 567.77 630.22 574.47Q629.16 580.23 633.9 583.76Q637.7 587.62 637.58 593.06Q642.24 596.57 641.26 602.36Q646.25 605.73 644.94 611.66Q646.02 616.61 648.62 620.96Q659.63 621.72 652.31 630.25Q645.47 638.12 655.99 639.55Q659.54 643.51 659.67 648.85Q669.23 650.28 663.35 658.15Q675.25 658.55 667.03 667.44Q674.17 669.93 670.71 676.74Q661.77 685.39 674.39 686.04Q667.93 693.82 678.07 695.34Q669.3 703.95 681.76 704.64Q671.02 713.93 685.44 713.93Q701.26 712.64 689.12 723.23Q679.13 732.29 692.8 732.53Q696.14 736.58 696.48 741.83Q699.48 746.01 700.16 751.12Q689.82 760.33 703.84 760.42Q696.69 768.49 707.52 769.72Q705.29 775.95 711.21 779.02"/>
    <path d="M590.45 482.55Q593.54 486.78 593.54 492.06Q597.68 495.91 596.63 501.57Q599.44 505.91 599.72 511.08Q598.76 516.61 602.81 520.6Q603.52 525.62 605.9 530.11Q605.05 535.61 608.99 539.62Q605.25 545.95 612.08 549.13Q607.47 555.71 615.17 558.64Q613.06 564.52 618.26 568.15Q618.04 573.47 621.35 577.66Q622.11 582.67 624.44 587.17Q624.45 592.42 627.53 596.68Q621.53 603.7 630.62 606.19Q634.01 610.34 633.71 615.7Q636.22 620.14 636.8 625.21Q644.81 627.75 639.89 634.72Q641.35 639.51 642.98 644.23Q638.27 650.92 646.07 653.74Q651.14 657.32 649.16 663.25Q658.48 665.34 652.25 672.76Q645.41 680.09 655.34 682.27Q655.81 687.38 658.43 691.79Q673.23 691.86 661.52 701.3Q663.44 705.93 664.61 710.81Q678.34 711.31 667.71 720.32Q657.33 728.68 670.8 729.83Q684.74 730.27 673.89 739.34Q677.67 743.36 676.98 748.85Q663.63 758.06 680.07 758.36Q680.61 763.44 683.16 767.87Q670.47 776.92 686.25 777.38Q692.05 780.72 689.34 786.89"/>
    <path d="M587.43 483.43Q590.84 487.67 589.92 493.11Q588.61 498.56 592.41 502.8Q593.12 507.78 594.9 512.49Q600.09 516.21 597.38 522.17Q598.25 527.11 599.87 531.86Q604.79 535.68 602.36 541.54Q605.57 545.86 604.84 551.23Q607.82 555.61 607.33 560.92Q601.88 567.3 609.82 570.6Q612.82 574.98 612.3 580.29Q617.28 584.12 614.79 589.97Q614.33 595.25 617.28 599.66Q624.51 602.85 619.76 609.34Q628.89 611.98 622.25 619.03Q627.02 622.93 624.74 628.72Q619.74 635.06 627.22 638.4Q631.36 642.48 629.71 648.09Q634.14 652.09 632.2 657.77Q626.56 664.27 634.69 667.46Q630.91 673.54 637.17 677.15Q628.19 684.39 639.66 686.83Q646.14 690.27 642.15 696.52Q642.45 701.6 644.63 706.2Q647.13 710.72 647.12 715.89Q654.66 719.04 649.61 725.57Q658.66 728.3 652.09 735.26Q654.52 739.8 654.58 744.95Q659.14 748.92 657.07 754.63Q659.61 759.14 659.55 764.32Q666.53 767.64 662.04 774.0Q651.55 781.65 664.53 783.69Q663.25 789.17 667.02 793.38"/>
    <path d="M584.37 484.11Q587.56 488.55 586.24 493.94Q590.26 498.18 588.12 503.76Q585.5 509.26 589.99 513.58Q591.89 518.3 591.86 523.41Q588.56 529.03 593.74 533.23Q591.65 538.67 595.61 543.05Q598.13 547.65 597.49 552.87Q601.74 557.11 599.36 562.7Q596.33 568.3 601.23 572.52Q605.56 576.74 603.11 582.34Q606.09 586.85 604.98 592.17Q605.58 597.14 606.85 601.99Q614.8 605.41 608.73 611.81Q612.4 616.18 610.6 621.63Q604.08 627.82 612.48 631.46Q622.02 634.54 614.35 641.28Q620.82 645.06 616.22 651.1Q627.39 653.82 618.1 660.93Q623.04 665.04 619.97 670.75Q616.55 676.45 621.85 680.57Q616.06 686.67 623.72 690.39Q623.4 695.54 625.59 700.22Q612.47 707.44 627.47 710.04Q639.67 712.56 629.34 719.86Q618.71 726.74 631.21 729.69Q616.76 737.13 633.09 739.51Q633.25 744.57 634.96 749.33Q649.65 751.31 636.84 759.15Q654.17 760.51 638.71 768.98Q645.93 772.63 640.58 778.8Q626.77 786.2 642.46 788.62Q642.5 793.7 644.33 798.45"/>
    <path d="M581.27 484.61Q584.22 489.22 582.52 494.53Q585.45 499.15 583.77 504.45Q586.67 509.09 585.03 514.37Q589.3 518.79 586.28 524.29Q584.82 529.49 587.53 534.21Q591.1 538.76 588.79 544.13Q592.43 548.67 590.04 554.05Q585.22 559.58 591.29 563.97Q593.59 568.71 592.55 573.9Q588.56 579.36 593.8 583.82Q592.21 589.04 595.05 593.74Q600.57 598.01 596.31 603.66Q599.11 608.33 597.56 613.58Q588.94 619.47 598.81 623.5Q594.96 628.98 600.07 633.42Q604.49 637.87 601.32 643.34Q604.69 647.94 602.57 653.27Q595.02 659.11 603.83 663.19Q607.83 667.7 605.08 673.11Q607.26 677.87 606.33 683.03Q594.48 689.26 607.59 692.95Q614.49 697.04 608.84 702.87Q616.04 706.92 610.09 712.79Q596.97 719.15 611.35 722.71Q614.85 727.3 612.6 732.63Q625.17 735.85 613.85 742.56Q627.39 745.61 615.11 752.48Q628.33 755.59 616.36 762.4Q629.03 765.61 617.61 772.32Q628.7 775.79 618.87 782.24Q619.56 787.19 620.12 792.16Q634.96 795.04 621.37 802.08"/>
    <path d="M578.14 484.9Q577.07 489.96 578.77 494.88Q577.7 499.94 579.4 504.86Q582.02 509.67 580.02 514.84Q581.99 519.71 580.65 524.82Q583.89 529.58 581.28 534.8Q579.05 539.92 581.91 544.78Q578.11 549.96 582.53 554.76Q581.54 559.83 583.16 564.74Q589.56 569.21 583.79 574.72Q591.07 579.11 584.42 584.7Q588.95 589.37 585.05 594.68Q590.4 599.28 585.67 604.66Q584.77 609.73 586.3 614.64Q581.86 619.87 586.93 624.63Q589.91 629.43 587.56 634.61Q582.59 639.86 588.19 644.59Q588.71 649.56 588.81 654.57Q591.8 659.37 589.44 664.55Q586.58 669.71 590.07 674.53Q581.52 679.91 590.7 684.51Q590.47 689.53 591.33 694.49Q590.1 699.57 591.95 704.47Q602.53 708.62 592.58 714.45Q606.48 718.26 593.21 724.43Q585.04 729.83 593.84 734.41Q601.72 738.83 594.47 744.39Q583.5 749.89 595.09 754.37Q610.81 758.02 595.72 764.35Q595.8 769.35 596.35 774.33Q612.91 777.91 596.98 784.31Q593.79 789.5 597.6 794.29Q611.0 798.22 598.23 804.27"/>
    <path d="M575.0 485.0Q574.94 490.0 575.0 495.0Q576.14 499.99 575.0 505.0Q573.59 509.99 575.0 515.0Q573.97 519.99 575.0 525.0Q575.31 530.0 575.0 535.0Q571.55 539.94 575.0 545.0Q576.31 549.99 575.0 555.0Q573.25 559.99 575.0 565.0Q571.2 569.95 575.0 575.0Q573.61 579.99 575.0 585.0Q580.3 589.91 575.0 595.0Q569.59 599.91 575.0 605.0Q582.69 609.83 575.0 615.0Q581.69 619.88 575.0 625.0Q571.77 629.97 575.0 635.0Q581.69 639.89 575.0 645.0Q566.03 649.81 575.0 655.0Q575.07 660.0 575.0 665.0Q565.77 669.82 575.0 675.0Q579.71 679.95 575.0 685.0Q580.93 689.93 575.0 695.0Q587.03 699.73 575.0 705.0Q574.85 710.0 575.0 715.0Q577.61 719.99 575.0 725.0Q587.34 729.74 575.0 735.0Q569.87 739.96 575.0 745.0Q581.18 749.94 575.0 755.0Q580.28 759.96 575.0 765.0Q558.36 769.59 575.0 775.0Q571.15 779.98 575.0 785.0Q585.92 789.83 575.0 795.0Q577.36 799.99 575.0 805.0"/>
    <path d="M571.86 484.9Q570.03 489.78 571.23 494.88Q573.1 499.97 570.6 504.86Q573.97 509.99 569.98 514.84Q570.81 519.9 569.35 524.82Q565.86 529.56 568.72 534.8Q564.38 539.46 568.09 544.78Q571.51 549.95 567.47 554.76Q567.66 559.78 566.84 564.74Q566.65 569.74 566.21 574.72Q559.65 579.19 565.58 584.7Q572.99 589.99 564.95 594.68Q557.4 599.06 564.33 604.66Q559.28 609.29 563.7 614.64Q568.57 619.89 563.07 624.63Q556.69 629.14 562.44 634.61Q565.52 639.78 561.81 644.59Q559.52 649.44 561.19 654.57Q559.33 659.45 560.56 664.55Q548.25 668.47 559.93 674.53Q565.01 679.8 559.3 684.51Q550.95 688.86 558.67 694.49Q568.95 699.93 558.05 704.47Q555.37 709.3 557.42 714.45Q564.1 719.79 556.79 724.43Q551.58 729.07 556.16 734.41Q552.75 739.19 555.53 744.39Q546.65 748.72 554.91 754.37Q561.16 759.71 554.28 764.35Q568.86 769.94 553.65 774.33Q552.59 779.27 553.02 784.31Q562.7 789.79 552.4 794.29Q536.0 797.91 551.77 804.27"/>
    <path d="M568.73 484.61Q565.65 489.2 567.48 494.53Q570.08 499.81 566.23 504.45Q568.43 509.71 564.97 514.37Q563.91 519.27 563.72 524.29Q558.3 528.52 562.47 534.21Q560.73 539.03 561.21 544.13Q565.9 549.64 559.96 554.05Q563.51 559.47 558.71 563.97Q563.78 569.53 557.45 573.9Q562.54 579.46 556.2 583.82Q549.55 587.9 554.95 593.74Q547.38 597.67 553.69 603.66Q547.79 607.87 552.44 613.58Q549.48 618.23 551.19 623.5Q557.16 629.18 549.93 633.42Q538.98 636.81 548.68 643.34Q541.52 647.38 547.43 653.27Q539.86 657.24 546.17 663.19Q551.09 668.78 544.92 673.11Q548.28 678.54 543.67 683.03Q533.85 686.66 542.41 692.95Q551.18 698.93 541.16 702.87Q529.7 706.24 539.91 712.79Q545.76 718.5 538.65 722.71Q526.04 725.91 537.4 732.63Q543.9 738.41 536.15 742.56Q533.28 747.23 534.89 752.48Q550.66 759.09 533.64 762.4Q535.18 767.62 532.39 772.32Q519.74 775.54 531.13 782.24Q541.61 788.43 529.88 792.16Q520.49 795.91 528.63 802.08"/>
    <path d="M565.63 484.11Q564.14 488.92 563.76 493.94Q565.23 499.26 561.88 503.76Q558.09 508.07 560.01 513.58Q561.3 518.89 558.14 523.41Q553.3 527.49 556.26 533.23Q552.14 537.48 554.39 543.05Q550.37 547.33 552.51 552.87Q556.42 558.61 550.64 562.7Q554.07 568.37 548.77 572.52Q548.22 577.5 546.89 582.34Q543.71 586.81 545.02 592.17Q549.93 598.08 543.15 601.99Q538.08 606.06 541.27 611.81Q549.16 618.19 539.4 621.63Q540.65 626.95 537.52 631.46Q538.34 636.7 535.65 641.28Q544.89 647.88 533.78 651.1Q537.86 656.91 531.9 660.93Q533.8 666.36 530.03 670.75Q519.84 673.71 528.15 680.57Q520.41 684.09 526.28 690.39Q537.26 697.3 524.41 700.22Q531.46 706.53 522.53 710.04Q529.55 716.35 520.66 719.86Q507.34 722.14 518.79 729.69Q508.98 732.77 516.91 739.51Q516.28 744.48 515.04 749.33Q519.39 755.21 513.16 759.15Q516.6 764.87 511.29 768.98Q519.61 775.52 509.42 778.8Q521.6 785.96 507.54 788.62Q488.59 789.62 505.67 798.45"/>
    <path d="M562.57 483.43Q560.45 488.04 560.08 493.11Q561.43 498.57 557.59 502.8Q555.13 507.32 555.1 512.49Q553.67 517.28 552.62 522.17Q555.35 527.94 550.13 531.86Q549.52 536.86 547.64 541.54Q541.84 545.12 545.16 551.23Q545.11 556.37 542.67 560.92Q543.98 566.39 540.18 570.6Q543.7 576.58 537.7 580.29Q541.86 586.42 535.21 589.97Q532.56 594.45 532.72 599.66Q527.83 603.52 530.24 609.34Q533.99 615.4 527.75 619.03Q534.08 625.66 525.26 628.72Q526.62 634.21 522.78 638.4Q530.68 645.38 520.29 648.09Q508.64 649.99 517.8 657.77Q514.87 662.18 515.31 667.46Q524.66 674.77 512.83 677.15Q516.76 683.26 510.34 686.83Q517.92 693.78 507.85 696.52Q504.81 700.89 505.37 706.2Q497.03 709.13 502.88 715.89Q488.62 717.07 500.39 725.57Q514.13 733.87 497.91 735.26Q496.07 739.95 495.42 744.95Q496.71 750.43 492.93 754.63Q497.71 760.96 490.45 764.32Q477.09 765.81 487.96 774.0Q498.89 781.74 485.47 783.69Q480.95 787.68 482.98 793.38"/>
    <path d="M559.55 482.55Q558.03 487.32 556.46 492.06Q552.63 496.03 553.37 501.57Q553.23 506.77 550.28 511.08Q552.68 517.02 547.19 520.6Q543.38 524.59 544.1 530.11Q543.82 535.26 541.01 539.62Q544.93 546.0 537.92 549.13Q530.9 551.96 534.83 558.64Q535.33 564.04 531.74 568.15Q527.12 571.87 528.65 577.66Q520.43 580.08 525.56 587.17Q527.2 592.92 522.47 596.68Q528.53 603.72 519.38 606.19Q522.79 612.48 516.29 615.7Q507.13 617.81 513.2 625.21Q519.51 632.35 510.11 634.72Q518.81 642.53 507.02 644.23Q499.86 647.08 503.93 653.74Q498.39 657.16 500.84 663.25Q489.74 664.69 497.75 672.76Q499.89 678.69 494.66 682.27Q492.42 686.81 491.57 691.79Q476.96 691.93 488.48 701.3Q496.3 708.92 485.39 710.81Q489.86 717.45 482.29 720.32Q470.3 721.47 479.2 729.83Q485.01 736.87 476.11 739.34Q461.67 739.6 473.02 748.85Q463.29 750.83 469.93 758.36Q484.83 768.01 466.84 767.87Q464.35 772.32 463.75 777.38Q464.2 782.78 460.66 786.89"/>
    <path d="M556.59 481.49Q555.53 486.44 552.91 490.79Q553.63 496.39 549.23 500.08Q545.76 504.06 545.55 509.38Q546.12 514.94 541.87 518.68Q536.25 521.74 538.19 527.98Q534.33 531.8 534.51 537.28Q527.78 539.86 530.83 546.57Q529.28 551.34 527.14 555.87Q530.95 562.61 523.46 565.17Q523.03 570.37 519.78 574.47Q518.85 579.47 516.1 583.76Q508.03 585.8 512.42 593.06Q513.77 598.94 508.74 602.36Q499.35 603.82 505.06 611.66Q500.39 615.16 501.38 620.96Q502.55 626.77 497.69 630.25Q506.23 638.71 494.01 639.55Q502.58 648.03 490.33 648.85Q479.96 649.92 486.65 658.15Q481.84 661.6 482.97 667.44Q470.33 667.53 479.29 676.74Q482.9 683.48 475.61 686.04Q469.15 688.81 471.93 695.34Q474.91 701.85 468.24 704.64Q452.27 703.26 464.56 713.93Q463.05 718.71 460.88 723.23Q465.78 730.46 457.2 732.53Q448.09 734.2 453.52 741.83Q453.21 747.08 449.84 751.12Q433.98 749.86 446.16 760.42Q455.08 769.13 442.48 769.72Q423.75 767.19 438.79 779.02"/>
    <path d="M553.71 480.24Q549.33 483.64 549.45 489.29Q545.73 493.04 545.2 498.34Q540.87 501.78 540.94 507.39Q539.33 512.15 536.68 516.43Q536.09 521.67 532.42 525.48Q530.66 530.18 528.16 534.53Q523.51 537.83 523.91 543.58Q523.33 548.82 519.65 552.63Q522.12 559.21 515.39 561.68Q520.14 569.22 511.13 570.72Q513.07 577.09 506.88 579.77Q502.81 583.37 502.62 588.82Q492.33 589.24 498.36 597.87Q489.21 598.9 494.1 606.92Q485.16 608.07 489.84 615.97Q492.24 622.55 485.59 625.01Q491.26 633.02 481.33 634.06Q475.82 636.96 477.07 643.11Q472.15 646.3 472.81 652.16Q481.91 661.63 468.56 661.21Q468.12 666.52 464.3 670.26Q464.35 675.79 460.04 679.3Q459.54 684.59 455.78 688.35Q466.54 698.56 451.52 697.4Q443.91 699.28 447.27 706.45Q451.01 713.66 443.01 715.5Q427.98 713.58 438.75 724.54Q451.02 735.42 434.49 733.59Q425.07 734.58 430.24 742.64Q430.52 748.29 425.98 751.69Q436.74 761.97 421.72 760.74Q424.94 767.73 417.46 769.79"/>
    <path d="M550.91 478.82Q549.82 483.9 546.09 487.58Q544.3 492.29 541.28 496.34Q538.68 500.62 536.46 505.1Q530.75 507.57 531.64 513.87Q528.64 517.92 526.82 522.63Q519.98 524.43 522.01 531.39Q522.12 537.12 517.19 540.16Q510.21 541.9 512.37 548.92Q505.39 550.67 507.55 557.68Q500.6 559.46 502.74 566.45Q503.22 572.38 497.92 575.21Q493.75 578.61 493.1 583.97Q485.21 585.21 488.28 592.74Q483.43 595.75 483.47 601.5Q487.67 609.35 478.65 610.26Q481.44 617.4 473.83 619.02Q473.47 624.51 469.01 627.79Q465.16 631.37 464.2 636.55Q460.53 640.23 459.38 645.31Q452.38 647.11 454.56 654.08Q463.26 664.21 449.74 662.84Q459.46 673.49 444.93 671.6Q442.45 675.95 440.11 680.37Q426.76 678.42 435.29 689.13Q422.48 687.51 430.47 697.89Q416.2 695.4 425.66 706.66Q427.64 713.4 420.84 715.42Q410.75 715.44 416.02 724.18Q415.2 729.43 411.2 732.94Q424.0 745.2 406.39 741.71Q412.11 750.42 401.57 750.47Q385.41 746.9 396.75 759.23"/>
    <path d="M548.21 477.22Q546.62 482.11 542.85 485.66Q540.5 490.09 537.49 494.1Q532.52 496.81 532.13 502.55Q532.73 508.74 526.78 510.99Q522.67 514.29 521.42 519.43Q517.11 522.6 516.06 527.88Q511.37 530.79 510.7 536.32Q509.13 541.24 505.34 544.76Q506.85 551.54 499.98 553.21Q494.01 555.27 494.63 561.65Q496.18 568.46 489.27 570.09Q479.72 569.71 483.91 578.54Q481.3 582.8 478.55 586.98Q474.33 590.21 473.19 595.42Q478.86 604.65 467.83 603.87Q459.9 604.64 462.48 612.31Q456.05 614.1 457.12 620.75Q447.23 620.2 451.76 629.2Q452.71 635.67 446.4 637.64Q440.77 639.96 441.04 646.08Q443.94 653.74 435.69 654.53Q421.82 651.24 430.33 662.97Q424.99 665.48 424.97 671.41Q416.81 672.07 419.61 679.86Q428.25 690.91 414.25 688.3Q417.64 696.27 408.89 696.74Q395.55 693.89 403.54 705.18Q404.14 711.46 398.18 713.63Q391.43 715.23 392.82 722.07Q382.7 721.44 387.46 730.51Q389.64 737.76 382.1 738.96Q384.87 746.57 376.74 747.4"/>
    <path d="M545.61 475.45Q543.15 479.84 539.73 483.54Q534.73 486.02 533.86 491.63Q529.76 494.82 527.98 499.72Q523.83 502.87 522.1 507.81Q518.24 511.18 516.22 515.9Q511.56 518.66 510.34 523.99Q505.44 526.58 504.47 532.08Q499.67 534.75 498.59 540.17Q498.02 545.9 492.71 548.26Q492.3 554.1 486.83 556.35Q486.49 562.24 480.95 564.44Q474.6 565.94 475.08 572.53Q467.09 572.77 469.2 580.62Q462.4 581.79 463.32 588.71Q465.07 596.06 457.44 596.8Q459.5 604.36 451.57 604.89Q441.26 603.34 445.69 612.98Q444.42 618.23 439.81 621.07Q434.27 623.2 433.93 629.16Q421.91 626.28 428.05 637.25Q418.84 636.59 422.18 645.34Q418.86 649.12 416.3 653.43Q410.6 655.45 410.42 661.52Q418.51 673.19 404.54 669.61Q413.09 681.6 398.66 677.71Q388.61 676.42 392.79 685.8Q392.49 691.74 386.91 693.89Q390.26 702.39 381.03 701.98Q369.31 699.42 375.15 710.07Q374.09 715.46 369.28 718.16Q361.05 718.29 363.4 726.25Q358.49 728.85 357.52 734.34"/>
    <path d="M543.13 473.53Q537.99 475.68 536.75 481.23Q533.24 484.81 530.38 488.94Q525.2 491.08 524.01 496.64Q518.82 498.78 517.63 504.35Q517.21 510.4 511.26 512.05Q506.01 514.16 504.88 519.76Q498.26 520.65 498.51 527.46Q496.72 532.46 492.13 535.17Q490.47 540.26 485.76 542.87Q485.5 549.08 479.39 550.58Q475.49 553.84 473.01 558.28Q475.39 566.54 466.64 565.99Q470.04 575.03 460.26 573.69Q453.45 574.46 453.89 581.4Q446.72 581.86 447.52 589.1Q444.6 593.18 441.14 596.81Q438.95 601.48 434.77 604.51Q438.44 613.82 428.39 612.22Q424.21 615.24 422.02 619.92Q409.67 615.8 415.64 627.63Q421.66 638.74 409.27 635.33Q398.83 632.96 402.9 643.04Q407.1 652.8 396.52 650.74Q390.46 652.19 390.15 658.45Q377.39 654.04 383.77 666.15Q388.3 676.18 377.4 673.86Q372.76 676.51 371.02 681.56Q357.26 676.27 364.65 689.27Q355.82 688.35 358.28 696.97Q353.4 699.42 351.9 704.68Q359.67 717.23 345.53 712.38Q344.27 717.83 339.15 720.09"/>
    <path d="M540.77 471.45Q539.4 476.92 533.93 478.74Q531.03 482.88 527.08 486.03Q523.13 489.17 520.24 493.32Q518.35 498.37 513.39 500.61Q511.47 505.63 506.55 507.9Q503.27 511.68 499.7 515.19Q496.43 518.98 492.85 522.48Q492.11 528.56 486.01 529.77Q487.46 537.77 479.16 537.06Q475.35 540.33 472.32 544.35Q473.46 552.11 465.47 551.63Q465.08 558.06 458.63 558.92Q449.93 557.4 451.78 566.21Q448.27 569.78 444.94 573.5Q441.48 577.12 438.09 580.79Q432.76 582.62 431.25 588.08Q433.04 596.47 424.4 595.37Q421.12 599.15 417.55 602.66Q412.28 604.55 410.71 609.95Q410.49 616.56 403.86 617.24Q398.32 618.87 397.02 624.53Q388.28 623.05 390.17 631.82Q377.36 626.21 383.33 639.11Q379.22 642.12 376.48 646.4Q370.16 647.28 369.64 653.69Q377.53 667.44 362.79 660.98Q363.79 668.7 355.94 668.27Q347.86 667.45 349.1 675.56Q345.71 679.24 342.25 682.85Q332.11 680.01 335.41 690.14Q344.38 704.89 328.56 697.43Q317.26 693.45 321.72 704.72"/>
    <path d="M538.55 469.23Q536.91 474.68 531.26 476.07Q528.81 480.73 523.97 482.92Q523.09 489.13 516.68 489.76Q511.74 491.78 509.39 496.61Q504.0 498.12 502.1 503.45Q500.26 508.75 494.81 510.3Q494.84 517.46 487.52 517.15Q481.98 518.5 480.23 523.99Q473.23 523.7 472.94 530.84Q468.44 533.33 465.65 537.68Q464.24 543.43 458.37 544.53Q457.84 551.18 451.08 551.37Q450.34 557.82 443.79 558.22Q444.49 566.12 436.5 565.06Q432.62 568.24 429.21 571.91Q432.83 582.69 421.92 578.75Q426.14 590.13 414.63 585.6Q406.28 583.85 407.34 592.45Q406.09 598.38 400.05 599.29Q403.25 609.72 392.76 606.14Q393.51 614.13 385.47 612.98Q377.98 612.23 378.18 619.83Q380.57 629.48 370.89 626.67Q371.08 634.11 363.6 633.52Q364.75 641.93 356.31 640.36Q362.93 654.21 349.02 647.21Q355.67 661.09 341.73 654.06Q343.07 662.66 334.44 660.9Q328.1 661.42 327.15 667.75Q319.04 666.33 319.86 674.59Q319.97 681.95 312.57 681.44Q296.36 670.77 305.28 688.28"/>
    <path d="M536.47 466.87Q532.46 469.86 528.77 473.25Q524.94 476.46 521.06 479.62Q517.06 482.63 513.36 485.99Q511.52 491.53 505.65 492.37Q499.4 492.53 497.95 498.74Q493.32 500.99 490.24 505.12Q484.47 505.91 482.54 511.49Q475.64 510.85 474.83 517.87Q467.49 516.64 467.13 524.24Q467.26 532.04 459.42 530.61Q452.17 529.54 451.72 536.99Q448.74 541.22 444.01 543.36Q444.72 551.84 436.31 549.74Q430.17 550.1 428.6 556.11Q425.03 559.63 420.9 562.48Q415.78 564.13 413.19 568.86Q408.29 570.77 405.49 575.23Q402.34 579.27 397.78 581.61Q387.43 576.57 390.08 587.98Q378.38 581.17 382.37 594.36Q373.47 591.24 374.67 600.73Q371.05 604.2 366.96 607.1Q354.37 599.16 359.26 613.48Q349.19 608.88 351.55 619.85Q345.44 620.28 343.85 626.23Q340.0 629.43 336.14 632.6Q322.9 623.86 328.44 638.98Q327.11 645.18 320.73 645.35Q317.42 649.19 313.03 651.72Q308.0 653.49 305.32 658.1Q307.08 667.9 297.62 664.47Q284.78 656.36 289.91 670.85"/>
    <path d="M534.55 464.39Q532.17 469.5 526.46 470.27Q520.73 470.77 518.37 476.14Q514.83 479.77 510.28 482.02Q506.93 485.91 502.19 487.9Q499.22 492.29 494.1 493.78Q489.81 496.38 486.01 499.66Q480.07 499.91 477.92 505.53Q473.45 507.89 469.83 511.41Q466.72 515.63 461.74 517.29Q460.7 524.22 453.65 523.17Q448.29 524.27 445.56 529.05Q442.55 533.4 437.47 534.92Q432.08 536.0 429.38 540.8Q426.24 544.98 421.29 546.68Q422.39 556.39 413.2 552.56Q412.58 560.08 405.11 558.43Q404.46 565.93 397.02 564.31Q394.48 569.31 388.93 570.19Q385.13 573.47 380.84 576.07Q372.12 572.35 372.75 581.95Q366.5 581.81 364.66 587.82Q359.26 588.88 356.57 593.7Q344.6 585.13 348.48 599.58Q349.03 608.68 340.39 605.46Q337.0 609.3 332.29 611.34Q332.45 619.92 324.2 617.21Q314.29 611.79 316.11 623.09Q314.82 629.76 308.02 628.97Q296.41 621.05 299.93 634.85Q287.83 626.21 291.84 640.72Q282.87 636.71 283.75 646.6Q285.64 657.47 275.66 652.48"/>
    <path d="M532.78 461.79Q528.33 464.11 524.34 467.15Q521.97 472.59 515.9 472.51Q509.96 472.35 507.45 477.87Q502.51 479.39 499.01 483.22Q496.67 488.75 490.57 488.58Q486.9 492.13 482.12 493.94Q477.5 495.98 473.68 499.3Q466.72 497.45 465.24 504.66Q457.72 501.85 456.79 510.02Q448.87 506.53 448.35 515.37Q447.18 522.67 439.91 520.73Q438.25 527.33 431.46 526.09Q428.1 530.11 423.02 531.45Q414.56 527.1 414.58 536.81Q408.59 536.64 406.13 542.17Q405.89 550.88 397.69 547.52Q390.71 545.73 389.25 552.88Q388.72 561.2 380.8 558.24Q379.26 565.04 372.36 563.6Q361.76 555.64 363.92 568.96Q365.56 580.46 355.47 574.31Q349.86 574.77 347.03 579.67Q339.97 577.78 338.59 585.03Q334.01 587.15 330.14 590.39Q328.02 596.32 321.7 595.75Q312.68 590.6 313.26 601.11Q317.34 616.21 304.82 606.46Q306.85 618.64 296.37 611.82Q286.47 605.22 287.93 617.18Q292.89 633.6 279.49 622.54Q269.17 615.26 271.04 627.9Q265.26 628.1 262.6 633.26"/>
    <path d="M531.18 459.09Q525.55 459.07 522.42 463.91Q517.38 465.08 513.66 468.72Q511.2 474.43 504.9 473.54Q502.45 479.29 496.13 478.36Q490.18 477.79 487.37 483.18Q482.62 484.91 478.61 487.99Q476.3 494.01 469.84 492.81Q463.5 491.51 461.08 497.63Q455.06 496.96 452.32 502.45Q445.02 499.27 443.55 507.26Q441.64 513.99 434.79 512.08Q427.52 509.0 426.03 516.9Q418.32 512.95 417.26 521.72Q409.25 517.18 408.5 526.53Q400.42 521.87 399.74 531.35Q396.73 536.22 390.98 536.17Q386.21 537.87 382.21 540.99Q377.83 543.4 373.45 545.8Q372.3 553.89 364.69 550.62Q359.38 551.33 355.92 555.44Q357.61 568.3 347.16 560.26Q343.14 563.32 338.4 565.07Q339.68 577.3 329.63 569.89Q327.93 577.06 320.87 574.71Q316.89 577.85 312.11 579.53Q304.83 576.54 303.34 584.34Q303.47 594.68 294.58 589.16Q285.99 583.65 285.82 593.98Q283.63 600.31 277.06 598.8Q280.25 614.29 268.29 603.61Q270.06 616.76 259.53 608.43Q258.83 617.38 250.77 613.25"/>
    <path d="M529.76 456.29Q525.03 457.99 520.71 460.55Q516.76 463.87 511.66 464.8Q508.79 470.23 502.61 469.06Q497.35 469.59 493.57 473.32Q491.08 479.52 484.52 477.58Q481.11 482.02 475.47 481.84Q469.62 481.04 466.42 486.09Q464.4 493.24 457.37 490.35Q455.57 497.94 448.32 494.61Q447.0 503.12 439.28 498.87Q437.79 507.09 430.23 503.12Q426.11 506.11 421.18 507.38Q415.53 507.08 412.13 511.64Q410.73 520.08 403.08 515.9Q397.49 515.71 394.03 520.16Q391.94 527.27 384.99 524.41Q378.86 523.07 375.94 528.67Q371.04 530.01 366.89 532.93Q362.36 535.04 357.84 537.19Q349.42 530.59 348.79 541.44Q343.97 542.93 339.74 545.7Q331.53 539.62 330.7 549.96Q331.9 563.55 321.65 554.22Q319.91 562.1 312.6 558.48Q309.23 563.04 303.55 562.73Q306.06 578.86 294.5 566.99Q287.47 563.65 285.46 571.25Q275.06 560.15 276.41 575.51Q272.29 578.5 267.36 579.76Q258.73 572.83 258.31 584.02Q247.6 572.25 249.26 588.28Q238.09 575.41 240.21 592.54"/>
    <path d="M528.51 453.41Q523.42 454.1 519.21 457.09Q514.3 458.25 509.92 460.77Q504.97 461.84 500.62 464.45Q495.31 464.57 491.32 468.13Q485.94 468.06 482.02 471.81Q477.03 472.78 472.72 475.49Q469.7 481.22 463.43 479.17Q459.49 482.78 454.13 482.86Q447.59 479.62 444.83 486.54Q437.78 481.86 435.53 490.22Q429.95 489.65 426.24 493.9Q423.62 500.65 416.94 497.58Q410.5 494.72 407.64 501.26Q405.48 509.09 398.34 504.94Q391.97 502.27 389.04 508.62Q381.09 501.5 379.75 512.31Q372.53 507.33 370.45 515.99Q362.87 510.0 361.15 519.67Q359.35 528.38 351.85 523.35Q344.54 518.15 342.56 527.03Q334.98 521.11 333.26 530.71Q328.93 533.35 323.96 534.39Q323.33 545.86 314.66 538.07Q305.48 527.65 305.36 541.76Q295.64 529.77 296.07 545.44Q297.46 561.48 286.77 549.12Q277.98 539.91 277.47 552.8Q279.23 569.71 268.17 556.48Q259.69 548.14 258.88 560.16Q257.65 570.34 249.58 563.84Q251.45 581.07 240.28 567.52Q230.78 556.41 230.98 571.21"/>
    <path d="M527.45 450.45Q523.15 453.36 517.94 453.54Q512.31 452.16 508.43 456.63Q504.32 460.08 498.92 459.72Q493.75 459.98 489.4 462.81Q485.94 468.06 479.89 465.9Q475.09 467.31 470.38 468.99Q464.63 467.29 460.87 472.08Q457.21 476.83 451.36 475.17Q448.66 482.58 441.85 478.26Q436.73 478.66 432.34 481.35Q427.13 481.47 422.83 484.44Q415.85 478.55 413.32 487.53Q411.59 497.63 403.81 490.62Q398.27 489.7 394.3 493.71Q391.85 501.93 384.79 496.8Q379.11 495.45 375.28 499.89Q371.48 504.31 365.77 502.98Q364.74 515.09 356.26 506.07Q349.14 499.92 346.75 509.16Q340.37 505.53 337.24 512.25Q333.91 518.08 327.73 515.34Q321.81 513.23 318.21 518.43Q310.49 510.22 308.7 521.52Q303.77 522.51 299.19 524.61Q292.97 521.52 289.68 527.71Q284.65 528.38 280.17 530.8Q272.88 524.16 270.66 533.89Q270.55 548.72 261.15 536.98Q261.4 552.82 251.64 540.07Q243.25 529.68 242.13 543.16Q236.35 541.49 232.62 546.25Q227.75 547.44 223.11 549.34"/>
    <path d="M526.57 447.43Q521.8 448.94 516.89 449.92Q512.16 451.62 507.2 452.41Q501.95 452.0 497.51 454.9Q493.4 458.8 487.83 457.38Q482.03 454.55 478.14 459.87Q474.66 465.94 468.46 462.36Q464.91 468.25 458.77 464.84Q454.44 468.01 449.08 467.33Q442.97 463.15 439.4 469.82Q434.53 470.97 429.71 472.3Q426.3 478.74 420.03 474.79Q415.18 476.02 410.34 477.28Q405.68 479.24 400.66 479.76Q396.95 485.23 390.97 482.25Q385.04 479.03 381.28 484.74Q375.47 482.02 371.6 487.22Q365.1 481.57 361.91 489.71Q356.46 488.53 352.23 492.2Q345.88 487.24 342.54 494.69Q335.47 486.48 332.85 497.17Q327.38 495.92 323.17 499.66Q315.78 490.07 313.48 502.15Q305.93 491.8 303.8 504.63Q302.86 519.63 294.11 507.12Q292.49 519.92 284.43 509.61Q283.91 526.05 274.74 512.09Q268.3 506.85 265.05 514.58Q261.79 521.76 255.37 517.07Q247.02 503.24 245.68 519.55Q237.06 504.43 236.0 522.04Q230.3 519.91 226.31 524.53Q220.79 523.1 216.62 527.02"/>
    <path d="M525.89 444.37Q521.13 446.1 516.06 446.24Q510.64 444.1 506.24 448.12Q501.06 447.57 496.42 449.99Q492.27 454.52 486.59 451.86Q481.37 451.08 476.77 453.74Q471.87 454.71 466.95 455.61Q461.31 452.33 457.13 457.49Q452.25 458.62 447.3 459.36Q442.95 463.05 437.48 461.23Q433.72 467.61 427.66 463.11Q422.14 460.65 417.83 464.98Q413.42 468.43 408.01 466.85Q403.73 470.95 398.19 468.73Q392.33 464.26 388.37 470.6Q384.86 478.26 378.54 472.48Q373.68 473.66 368.72 474.35Q362.84 469.82 358.9 476.22Q353.81 476.23 349.07 478.1Q343.24 473.9 339.25 479.97Q332.34 468.76 329.43 481.85Q322.73 472.22 319.61 483.72Q313.3 476.72 309.78 485.59Q303.04 475.79 299.96 487.47Q294.97 488.0 290.14 489.34Q284.35 485.49 280.31 491.21Q277.58 502.6 270.49 493.09Q267.81 504.72 260.67 494.96Q255.51 494.59 250.85 496.84Q244.84 491.74 241.02 498.71Q234.57 490.97 231.2 500.58Q226.22 501.14 221.38 502.46Q216.25 502.28 211.55 504.33"/>
    <path d="M525.39 441.27Q520.54 442.66 515.47 442.52Q510.77 444.97 505.55 443.77Q500.41 442.82 495.63 445.03Q490.42 443.44 485.71 446.28Q480.6 445.63 475.79 447.53Q470.53 445.49 465.87 448.79Q461.27 452.04 455.95 450.04Q450.97 450.51 446.03 451.29Q440.43 445.78 436.1 452.55Q430.89 451.05 426.18 453.8Q420.42 446.38 416.26 455.05Q410.46 447.35 406.34 456.31Q401.38 456.95 396.42 457.56Q390.81 452.34 386.5 458.81Q380.77 452.34 376.58 460.07Q372.14 464.57 366.66 461.32Q362.26 466.11 356.73 462.57Q351.06 456.83 346.81 463.83Q343.31 474.31 336.89 465.08Q332.82 472.05 326.97 466.33Q322.58 471.2 317.05 467.59Q314.16 481.77 307.13 468.84Q301.9 467.27 297.21 470.09Q292.44 472.23 287.29 471.35Q281.83 467.84 277.37 472.6Q271.16 461.55 267.44 473.85Q264.73 489.4 257.52 475.11Q253.86 484.94 247.6 476.36Q242.43 475.28 237.68 477.61Q233.53 484.2 227.76 478.87Q221.15 463.54 217.84 480.12Q212.37 476.55 207.92 481.37"/>
    <path d="M525.1 438.14Q520.3 440.75 515.12 438.77Q510.05 437.48 505.14 439.4Q500.1 438.93 495.16 440.02Q490.21 440.93 485.18 440.65Q480.55 445.17 475.2 441.28Q470.49 445.12 465.22 441.91Q460.01 436.26 455.24 442.53Q450.4 444.94 445.26 443.16Q440.42 445.66 435.28 443.79Q430.77 449.93 425.3 444.42Q420.44 446.67 415.32 445.05Q410.2 443.12 405.34 445.67Q401.04 454.04 395.36 446.3Q390.69 450.93 385.37 446.93Q380.71 451.63 375.39 447.56Q370.69 451.85 365.41 448.19Q360.12 442.11 355.43 448.81Q350.71 452.87 345.45 449.44Q340.51 450.43 335.47 450.07Q330.04 439.51 325.49 450.7Q320.25 446.34 315.51 451.33Q310.18 444.8 305.53 451.95Q300.4 449.8 295.55 452.58Q290.09 442.23 285.57 453.21Q281.72 466.78 275.59 453.84Q270.77 456.63 265.61 454.47Q261.11 461.38 255.63 455.09Q250.61 454.96 245.65 455.72Q240.71 456.84 235.67 456.35Q231.41 466.11 225.69 456.98Q221.18 463.96 215.71 457.6Q210.82 459.42 205.73 458.23"/>
    <path d="M525.0 435.0Q520.03 433.16 515.0 435.0Q510.04 432.59 505.0 435.0Q500.0 434.45 495.0 435.0Q490.0 435.65 485.0 435.0Q480.03 432.8 475.0 435.0Q470.1 439.66 465.0 435.0Q460.01 433.36 455.0 435.0Q450.06 438.99 445.0 435.0Q440.06 439.02 435.0 435.0Q430.09 440.02 425.0 435.0Q420.18 442.54 415.0 435.0Q410.02 432.19 405.0 435.0Q400.02 437.91 395.0 435.0Q390.0 436.21 385.0 435.0Q380.09 440.94 375.0 435.0Q370.21 425.78 365.0 435.0Q360.22 425.27 355.0 435.0Q350.04 430.97 345.0 435.0Q340.11 427.71 335.0 435.0Q330.07 429.14 325.0 435.0Q320.08 441.32 315.0 435.0Q310.0 435.71 305.0 435.0Q300.05 429.97 295.0 435.0Q290.03 438.88 285.0 435.0Q280.02 438.2 275.0 435.0Q270.17 424.7 265.0 435.0Q260.28 448.32 255.0 435.0Q250.01 433.07 245.0 435.0Q240.1 426.89 235.0 435.0Q230.02 431.05 225.0 435.0Q220.03 430.31 215.0 435.0Q210.14 425.0 205.0 435.0"/>
    <path d="M525.1 431.86Q520.22 430.13 515.12 431.23Q510.1 431.36 505.14 430.6Q500.43 426.96 495.16 429.98Q490.52 425.59 485.18 429.35Q480.51 425.15 475.2 428.72Q470.36 426.35 465.22 428.09Q460.57 423.59 455.24 427.47Q450.2 428.01 445.26 426.84Q440.44 424.15 435.28 426.21Q430.02 432.79 425.3 425.58Q420.55 421.99 415.32 424.95Q410.56 421.42 405.34 424.33Q400.47 422.14 395.36 423.7Q390.96 416.18 385.37 423.07Q380.76 417.85 375.39 422.44Q370.33 423.46 365.41 421.81Q360.82 416.19 355.43 421.19Q350.03 431.43 345.45 420.56Q341.07 412.62 335.47 419.93Q330.74 415.99 325.49 419.3Q320.87 413.96 315.51 418.67Q311.75 404.63 305.53 418.05Q300.93 412.41 295.55 417.42Q290.05 429.82 285.57 416.79Q281.6 404.32 275.59 416.16Q272.0 400.17 265.61 415.53Q261.45 404.86 255.63 414.91Q250.59 415.42 245.65 414.28Q241.1 407.84 235.67 413.65Q230.46 417.26 225.69 413.02Q220.19 423.49 215.71 412.4Q211.55 401.36 205.73 411.77"/>
    <path d="M525.39 428.73Q520.86 425.33 515.47 427.48Q510.86 424.44 505.55 426.23Q500.22 429.21 495.63 424.97Q491.29 420.24 485.71 423.72Q481.34 419.12 475.79 422.47Q471.1 419.86 465.87 421.21Q461.55 416.21 455.95 419.96Q451.53 415.5 446.03 418.71Q440.53 423.03 436.1 417.45Q431.22 416.22 426.18 416.2Q421.45 413.82 416.26 414.95Q412.05 409.08 406.34 413.69Q400.89 417.4 396.42 412.44Q392.19 406.64 386.5 411.19Q381.04 414.88 376.58 409.93Q370.73 417.7 366.66 408.68Q361.19 412.44 356.73 407.43Q353.33 396.42 346.81 406.17Q341.07 412.6 336.89 404.92Q331.44 408.47 326.97 403.67Q323.17 394.92 317.05 402.41Q313.41 392.61 307.13 401.16Q301.71 404.37 297.21 399.91Q292.13 400.24 287.29 398.65Q280.8 413.29 277.37 397.4Q273.61 388.24 267.44 396.15Q264.58 381.45 257.52 394.89Q254.44 381.48 247.6 393.64Q240.99 409.25 237.68 392.39Q233.57 385.5 227.76 391.13Q224.84 376.55 217.84 389.88Q211.4 403.04 207.92 388.63"/>
    <path d="M525.89 425.63Q520.64 426.63 516.06 423.76Q511.23 422.41 506.24 421.88Q500.96 423.04 496.42 420.01Q491.24 420.54 486.59 418.14Q481.58 417.75 476.77 416.26Q472.32 413.05 466.95 414.39Q461.62 415.75 457.13 412.51Q451.56 415.33 447.3 410.64Q441.41 415.54 437.48 408.77Q433.24 404.52 427.66 406.89Q422.59 406.79 417.83 405.02Q412.91 404.14 408.01 403.15Q403.43 400.52 398.19 401.27Q391.87 408.76 388.37 399.4Q385.47 389.13 378.54 397.52Q372.85 400.96 368.72 395.65Q363.35 397.2 358.9 393.78Q352.95 398.69 349.07 391.9Q345.25 385.62 339.25 390.03Q333.44 394.1 329.43 388.15Q322.8 397.32 319.61 386.28Q316.05 378.69 309.78 384.41Q305.89 378.39 299.96 382.53Q296.67 373.72 290.14 380.66Q283.7 388.43 280.31 378.79Q273.89 386.42 270.49 376.91Q265.64 375.65 260.67 375.04Q258.8 359.88 250.85 373.16Q244.6 379.68 241.02 371.29Q234.23 381.15 231.2 369.42Q224.79 376.9 221.38 367.54Q220.47 348.2 211.55 365.67"/>
    <path d="M526.57 422.57Q522.17 419.71 516.89 420.08Q512.93 415.7 507.2 417.59Q501.6 419.61 497.51 415.1Q491.72 417.99 487.83 412.62Q482.63 412.81 478.14 410.13Q472.61 411.75 468.46 407.64Q463.21 408.02 458.77 405.16Q454.88 400.42 449.08 402.67Q443.28 405.41 439.4 400.18Q434.69 398.41 429.71 397.7Q426.45 390.75 420.03 395.21Q413.76 399.98 410.34 392.72Q405.72 390.62 400.66 390.24Q396.23 387.39 390.97 387.75Q388.04 379.59 381.28 385.26Q375.19 389.18 371.6 382.78Q369.06 373.24 361.91 380.29Q355.52 385.45 352.23 377.8Q345.08 386.39 342.54 375.31Q336.06 380.84 332.85 372.83Q328.47 369.81 323.17 370.34Q317.8 371.19 313.48 367.85Q312.0 354.66 303.8 365.37Q296.8 373.11 294.11 362.88Q292.16 351.16 284.43 360.39Q283.31 345.89 274.74 357.91Q274.11 341.77 265.05 355.42Q259.52 356.93 255.37 352.93Q252.94 342.78 245.68 350.45Q241.16 347.97 236.0 347.96Q232.43 341.87 226.31 345.47Q222.19 341.46 216.62 342.98"/>
    <path d="M527.45 419.55Q523.14 416.68 517.94 416.46Q513.02 415.41 508.43 413.37Q502.84 414.57 498.92 410.28Q493.06 412.38 489.4 407.19Q483.25 410.36 479.89 404.1Q473.98 406.35 470.38 401.01Q466.38 397.24 460.87 397.92Q457.38 392.68 451.36 394.83Q445.42 397.15 441.85 391.74Q437.32 389.5 432.34 388.65Q428.73 383.7 422.83 385.56Q416.18 390.27 413.32 382.47Q409.29 378.74 403.81 379.38Q399.95 375.15 394.3 376.29Q392.62 366.0 384.79 373.2Q378.0 378.3 375.28 370.11Q368.84 373.98 365.77 367.02Q359.66 369.8 356.26 363.93Q351.99 360.9 346.75 360.84Q341.47 360.9 337.24 357.75Q330.43 362.8 327.73 354.66Q321.4 358.11 318.21 351.57Q310.44 359.94 308.7 348.48Q308.49 334.03 299.19 345.39Q292.85 348.89 289.68 342.29Q280.52 355.59 280.17 339.2Q274.8 339.58 270.66 336.11Q267.38 330.14 261.15 333.02Q253.24 341.77 251.64 329.93Q243.35 339.96 242.13 326.84Q234.17 335.71 232.62 323.75Q229.57 317.1 223.11 320.66"/>
    <path d="M528.51 416.59Q523.88 414.7 519.21 412.91Q515.74 408.3 509.92 409.23Q504.85 408.48 500.62 405.55Q494.88 406.61 491.32 401.87Q485.38 403.49 482.02 398.19Q478.96 392.57 472.72 394.51Q468.7 391.13 463.43 390.83Q461.0 383.73 454.13 387.14Q447.93 389.41 444.83 383.46Q438.75 385.39 435.53 379.78Q431.15 377.28 426.24 376.1Q421.51 374.46 416.94 372.42Q409.31 378.67 407.64 368.74Q404.65 362.85 398.34 365.06Q390.34 372.34 389.04 361.38Q384.79 358.56 379.75 357.69Q371.29 366.24 370.45 354.01Q368.84 344.87 361.15 350.33Q360.2 339.69 351.85 346.65Q343.65 354.36 342.56 342.97Q334.23 350.99 333.26 339.29Q331.43 330.61 323.96 335.61Q322.59 325.84 314.66 331.93Q309.71 330.86 305.36 328.24Q297.18 335.79 296.07 324.56Q286.82 335.12 286.77 320.88Q286.58 308.36 277.47 317.2Q271.9 317.72 268.17 313.52Q257.7 327.55 258.88 309.84Q248.76 322.79 249.58 306.16Q242.47 310.72 240.28 302.48Q238.74 293.02 230.98 298.79"/>
    <path d="M529.76 413.71Q526.1 409.82 520.71 409.45Q515.4 409.07 511.66 405.2Q508.14 401.03 502.61 400.94Q497.9 399.21 493.57 396.68Q488.29 396.2 484.52 392.42Q479.75 390.81 475.47 388.16Q472.03 383.79 466.42 383.91Q463.19 379.11 457.37 379.65Q450.23 383.45 448.32 375.39Q441.94 377.39 439.28 371.13Q436.78 364.85 430.23 366.88Q428.66 358.77 421.18 362.62Q413.31 368.07 412.13 358.36Q408.12 355.14 403.08 354.1Q397.21 354.91 394.03 349.84Q391.68 343.24 384.99 345.59Q376.37 352.7 375.94 341.33Q372.35 337.24 366.89 337.07Q365.78 327.98 357.84 332.81Q356.08 325.01 348.79 328.56Q340.32 335.25 339.74 324.3Q333.15 326.67 330.7 320.04Q321.51 328.37 321.65 315.78Q320.11 307.51 312.6 311.52Q302.63 321.68 303.55 307.27Q297.62 308.16 294.5 303.01Q286.55 308.43 285.46 298.75Q288.57 281.43 276.41 294.49Q269.18 298.25 267.36 290.24Q264.06 285.53 258.31 285.98Q248.65 295.28 249.26 281.72Q251.81 265.38 240.21 277.46"/>
    <path d="M531.18 410.91Q525.6 410.82 522.42 406.09Q516.64 406.38 513.66 401.28Q508.24 400.82 504.9 396.46Q499.18 396.59 496.13 391.64Q493.69 385.87 487.37 386.82Q480.66 388.9 478.61 382.01Q472.18 383.49 469.84 377.19Q466.97 372.11 461.08 372.37Q457.98 367.69 452.32 367.55Q446.85 367.16 443.55 362.74Q436.45 365.51 434.79 357.92Q429.02 358.1 426.03 353.1Q422.68 348.83 417.26 348.28Q412.62 346.36 408.5 343.47Q404.02 341.24 399.74 338.65Q398.9 330.05 390.98 333.83Q383.15 337.96 382.21 329.01Q372.64 336.63 373.45 324.2Q370.05 320.01 364.69 319.38Q355.86 325.43 355.92 314.56Q346.15 322.51 347.16 309.74Q348.69 297.13 338.4 304.93Q336.0 298.98 329.63 300.11Q328.75 291.51 320.87 295.29Q319.01 288.39 312.11 290.47Q305.98 291.28 303.34 285.66Q291.82 297.04 294.58 280.84Q289.21 280.24 285.82 276.02Q285.67 266.14 277.06 271.2Q268.62 276.39 268.29 266.39Q269.75 253.77 259.53 261.57Q248.93 270.97 250.77 256.75"/>
    <path d="M532.78 408.21Q528.61 405.46 524.34 402.85Q521.98 397.4 515.9 397.49Q510.02 397.54 507.45 392.13Q504.22 387.94 499.01 386.78Q494.52 384.52 490.57 381.42Q487.51 376.94 482.12 376.06Q479.29 371.25 473.68 370.7Q466.41 373.08 465.24 365.34Q458.12 367.44 456.79 359.98Q451.94 358.32 448.35 354.63Q448.64 345.23 439.91 349.27Q434.2 348.97 431.46 343.91Q424.95 344.95 423.02 338.55Q414.31 343.32 414.58 333.19Q406.72 336.48 406.13 327.83Q400.57 327.3 397.69 322.48Q398.24 312.6 389.25 317.12Q380.88 321.23 380.8 311.76Q377.9 307.03 372.36 306.4Q369.94 300.92 363.92 301.04Q355.45 305.3 355.47 295.69Q355.56 286.43 347.03 290.33Q341.83 289.2 338.59 284.97Q327.13 294.34 330.14 279.61Q319.18 288.1 321.7 274.25Q310.43 283.25 313.26 268.89Q315.7 256.14 304.82 263.54Q309.75 247.21 296.37 258.18Q286.18 265.28 287.93 252.82Q282.81 251.56 279.49 247.46Q280.41 236.91 271.04 242.1Q268.19 237.28 262.6 236.74"/>
    <path d="M534.55 405.61Q532.06 400.63 526.46 399.73Q521.14 398.61 518.37 393.86Q513.21 392.5 510.28 387.98Q504.17 388.02 502.19 382.1Q496.9 380.92 494.1 376.22Q491.37 371.5 486.01 370.34Q480.73 369.13 477.92 364.47Q474.33 360.9 469.83 358.59Q462.62 360.2 461.74 352.71Q455.15 353.38 453.65 346.83Q445.12 350.41 445.56 340.95Q438.64 342.1 437.47 335.08Q431.48 334.87 429.38 329.2Q424.12 327.95 421.29 323.32Q415.01 323.52 413.2 317.44Q414.49 307.49 405.11 311.57Q397.42 313.8 397.02 305.69Q390.04 306.88 388.93 299.81Q388.58 291.91 380.84 293.93Q378.56 288.59 372.75 288.05Q367.68 286.52 364.66 282.18Q353.02 290.26 356.57 276.3Q347.24 280.89 348.48 270.42Q340.37 273.22 340.39 264.54Q337.8 259.61 332.29 258.66Q323.94 261.81 324.2 252.79Q313.23 259.78 316.11 246.91Q313.59 241.89 308.02 241.03Q310.63 229.25 299.93 235.15Q290.79 239.42 291.84 229.28Q280.19 237.24 283.75 223.4Q272.29 231.06 275.66 217.52"/>
    <path d="M536.47 403.13Q534.07 398.26 528.77 396.75Q526.88 391.31 521.06 390.38Q516.79 387.71 513.36 384.01Q510.4 379.76 505.65 377.63Q501.59 374.7 497.95 371.26Q491.31 371.58 490.24 364.88Q485.67 362.58 482.54 358.51Q477.25 357.09 474.83 352.13Q467.74 353.02 467.13 345.76Q464.93 340.61 459.42 339.39Q456.52 335.06 451.72 333.01Q444.68 333.8 444.01 326.64Q437.07 327.29 436.31 320.26Q436.2 312.69 428.6 313.89Q426.16 309.02 420.9 307.52Q420.1 300.72 413.19 301.14Q405.65 302.54 405.49 294.77Q402.69 290.32 397.78 288.39Q389.24 291.06 390.08 282.02Q394.03 269.85 382.37 275.64Q380.05 270.63 374.67 269.27Q376.5 259.43 366.96 262.9Q364.53 258.0 359.26 256.52Q346.25 265.0 351.55 250.15Q354.59 238.93 343.85 243.77Q335.95 245.57 336.14 237.4Q332.34 234.15 328.44 231.02Q319.2 234.53 320.73 224.65Q322.41 214.95 313.03 218.28Q314.23 209.11 305.32 211.9Q292.43 220.11 297.62 205.53Q288.6 208.72 289.91 199.15"/>
    <path d="M538.55 400.77Q533.01 399.48 531.26 393.93Q529.64 388.44 523.97 387.08Q521.48 382.46 516.68 380.24Q510.51 379.62 509.39 373.39Q502.93 373.11 502.1 366.55Q499.24 362.3 494.81 359.7Q487.25 360.67 487.52 352.85Q481.07 352.53 480.23 346.01Q473.72 345.73 472.94 339.16Q471.37 333.59 465.65 332.32Q463.84 326.97 458.37 325.47Q449.87 327.44 451.08 318.63Q443.87 319.12 443.79 311.78Q443.24 305.14 436.5 304.94Q438.39 295.85 429.21 298.09Q426.65 293.52 421.92 291.25Q414.41 292.04 414.63 284.4Q407.24 285.06 407.34 277.55Q401.68 276.31 400.05 270.71Q402.97 260.55 392.76 263.86Q393.06 256.33 385.47 257.02Q380.35 255.18 378.18 250.17Q378.71 242.4 370.89 243.33Q365.65 241.61 363.6 236.48Q354.88 238.6 356.31 229.64Q362.61 216.1 349.02 222.79Q343.79 221.07 341.73 215.94Q339.47 211.05 334.44 209.1Q342.8 193.53 327.15 202.25Q329.9 192.2 319.86 195.41Q315.43 192.83 312.57 188.56Q310.41 183.57 305.28 181.72"/>
    <path d="M540.77 398.55Q538.32 394.01 533.93 391.26Q528.8 389.28 527.08 383.97Q525.07 379.04 520.24 376.68Q515.43 374.37 513.39 369.39Q513.34 362.73 506.55 362.1Q507.14 354.88 499.7 354.81Q499.03 348.66 492.85 347.52Q490.89 342.53 486.01 340.23Q485.2 334.2 479.16 332.94Q479.83 325.6 472.32 325.65Q472.26 318.94 465.47 318.37Q457.5 319.17 458.63 311.08Q453.78 308.78 451.78 303.79Q447.5 300.95 444.94 296.5Q434.96 299.3 438.09 289.21Q441.62 279.33 431.25 281.92Q422.48 283.46 424.4 274.63Q420.99 270.97 417.55 267.34Q406.62 271.07 410.71 260.05Q410.9 253.07 403.86 252.76Q402.65 247.06 397.02 245.47Q397.93 237.84 390.17 238.18Q385.88 235.35 383.33 230.89Q373.1 233.85 376.48 223.6Q379.94 213.69 369.64 216.31Q369.18 209.91 362.79 209.02Q357.12 207.51 355.94 201.73Q359.17 192.01 349.1 194.44Q346.04 190.46 342.25 187.15Q346.57 176.46 335.41 179.86Q332.97 175.3 328.56 172.57Q326.67 167.49 321.72 165.28"/>
    <path d="M543.13 396.47Q538.74 393.65 536.75 388.77Q531.9 386.34 530.38 381.06Q528.11 376.46 524.01 373.36Q522.82 367.9 517.63 365.65Q512.02 363.88 511.26 357.95Q505.18 356.58 504.88 350.24Q497.49 350.04 498.51 342.54Q494.38 339.48 492.13 334.83Q491.73 328.74 485.76 327.13Q480.61 324.93 479.39 319.42Q470.44 320.58 473.01 311.72Q467.7 309.65 466.64 304.01Q463.2 300.37 460.26 296.31Q458.88 290.98 453.89 288.6Q445.65 289.08 447.52 280.9Q440.9 279.95 441.14 273.19Q438.14 269.19 434.77 265.49Q430.93 262.17 428.39 257.78Q419.07 259.19 422.02 250.08Q420.19 245.11 415.64 242.37Q417.28 234.63 409.27 234.67Q402.52 233.81 402.9 226.96Q397.43 225.01 396.52 219.26Q385.55 222.08 390.15 211.55Q385.18 209.18 383.77 203.85Q387.65 194.32 377.4 196.14Q378.13 189.1 371.02 188.44Q377.34 177.02 364.65 180.73Q364.94 174.04 358.28 173.03Q352.33 171.48 351.9 165.32Q338.38 170.36 345.53 157.62Q351.24 146.63 339.15 149.91"/>
    <path d="M545.61 394.55Q544.48 389.24 539.73 386.46Q538.87 380.97 533.86 378.37Q529.56 375.33 527.98 370.28Q525.6 365.83 522.1 362.19Q515.4 361.02 516.22 354.1Q510.5 352.15 510.34 346.01Q502.72 345.55 504.47 337.92Q502.97 332.84 498.59 329.83Q493.22 327.59 492.71 321.74Q486.41 320.21 486.83 313.65Q485.91 308.16 480.95 305.56Q476.03 302.98 475.08 297.47Q468.54 296.1 469.2 289.38Q461.49 288.92 463.32 281.29Q467.11 272.57 457.44 273.2Q456.32 267.85 451.57 265.11Q457.73 254.8 445.69 257.02Q437.14 257.18 439.81 248.93Q443.2 240.44 433.93 240.84Q424.78 241.46 428.05 232.75Q422.78 230.42 422.18 224.66Q414.09 224.44 416.3 216.57Q412.05 213.47 410.42 208.48Q415.94 198.52 404.54 200.39Q399.83 197.64 398.66 192.29Q394.5 189.15 392.79 184.2Q400.96 172.45 386.91 176.11Q377.64 176.79 381.03 168.02Q384.87 159.18 375.15 159.93Q361.31 164.15 369.28 151.84Q365.76 148.22 363.4 143.75Q374.14 130.24 357.52 135.66"/>
    <path d="M548.21 392.78Q544.44 389.27 542.85 384.34Q538.59 381.16 537.49 375.9Q534.91 371.61 532.13 367.45Q530.56 362.55 526.78 359.01Q520.85 356.94 521.42 350.57Q517.52 347.13 516.06 342.12Q517.0 335.7 510.7 333.68Q508.05 329.44 505.34 325.24Q504.63 319.79 499.98 316.79Q502.73 309.29 494.63 308.35Q495.7 301.82 489.27 299.91Q483.88 297.44 483.91 291.46Q485.18 284.81 478.55 283.02Q477.57 277.74 473.19 274.58Q465.75 273.48 467.83 266.13Q458.7 266.18 462.48 257.69Q459.99 253.35 457.12 249.25Q451.71 246.79 451.76 240.8Q439.78 242.8 446.4 232.36Q444.09 227.91 441.04 223.92Q449.59 212.97 435.69 215.47Q442.17 205.69 430.33 207.03Q439.39 195.76 424.97 198.59Q413.67 200.06 419.61 190.14Q421.35 183.18 414.25 181.7Q423.0 170.57 408.89 173.26Q419.85 160.86 403.54 164.82Q408.13 156.11 398.18 156.37Q387.46 157.42 392.82 147.93Q394.06 141.26 387.46 139.49Q391.27 131.24 382.1 131.04Q370.8 132.47 376.74 122.6"/>
    <path d="M550.91 391.18Q547.69 387.26 546.09 382.42Q545.4 377.13 541.28 373.66Q538.77 369.33 536.46 364.9Q534.11 360.48 531.64 356.13Q525.12 354.15 526.82 347.37Q521.94 344.39 522.01 338.61Q520.53 333.72 517.19 329.84Q516.53 324.52 512.37 321.08Q514.54 314.3 507.55 312.32Q506.98 306.94 502.74 303.55Q496.92 301.1 497.92 294.79Q497.06 289.57 493.1 286.03Q489.33 282.4 488.28 277.26Q488.21 271.62 483.47 268.5Q488.16 260.4 478.65 259.74Q481.32 252.66 473.83 250.98Q472.37 246.08 469.01 242.21Q469.19 236.43 464.2 233.45Q471.7 223.92 459.38 224.69Q450.55 223.96 454.56 215.92Q441.64 217.65 449.74 207.16Q451.1 200.75 444.93 198.4Q438.59 196.22 440.11 189.63Q450.94 178.42 435.29 180.87Q431.6 177.2 430.47 172.11Q436.88 163.07 425.66 163.34Q413.78 164.38 420.84 154.58Q428.3 144.99 416.02 145.82Q403.14 147.45 411.2 137.06Q399.62 137.91 406.39 128.29Q399.86 126.21 401.57 119.53Q412.51 108.16 396.75 110.77"/>
    <path d="M553.71 389.76Q552.09 385.0 549.45 380.71Q546.22 376.72 545.2 371.66Q546.17 365.76 540.94 362.61Q541.91 356.7 536.68 353.57Q532.1 350.24 532.42 344.52Q533.64 338.49 528.16 335.47Q525.98 330.97 523.91 326.42Q521.84 321.87 519.65 317.37Q516.29 313.43 515.39 308.32Q508.42 306.19 511.13 299.28Q508.66 294.91 506.88 290.23Q504.27 285.93 502.62 281.18Q495.89 278.9 498.36 272.13Q493.5 268.92 494.1 263.08Q496.24 256.61 489.84 254.03Q478.39 254.19 485.59 244.99Q473.52 245.45 481.33 235.94Q471.81 235.06 477.07 226.89Q471.5 224.02 472.81 217.84Q466.86 215.16 468.56 208.79Q455.4 209.78 464.3 199.74Q465.47 193.7 460.04 190.7Q455.23 187.45 455.78 181.65Q449.46 179.14 451.52 172.6Q436.4 174.58 447.27 163.55Q440.97 161.03 443.01 154.5Q426.85 157.01 438.75 145.46Q431.33 143.48 434.49 136.41Q442.77 127.2 430.24 127.36Q417.19 128.21 425.98 118.31Q424.38 113.53 421.72 109.26Q419.3 104.88 417.46 100.21"/>
    <path d="M556.59 388.51Q553.97 384.18 552.91 379.21Q550.76 374.69 549.23 369.92Q544.02 366.7 545.55 360.62Q545.17 355.41 541.87 351.32Q539.8 346.76 538.19 342.02Q540.27 335.91 534.51 332.72Q528.12 329.99 530.83 323.43Q524.99 320.44 527.14 314.13Q521.12 311.22 523.46 304.83Q523.51 299.45 519.78 295.53Q513.66 292.66 516.1 286.24Q508.53 283.98 512.42 276.94Q515.91 270.28 508.74 267.64Q502.49 264.8 505.06 258.34Q504.11 253.34 501.38 249.04Q506.95 241.63 497.69 239.75Q489.83 237.59 494.01 230.45Q490.56 226.44 490.33 221.15Q482.59 218.93 486.65 211.85Q477.31 210.32 482.97 202.56Q484.39 196.64 479.29 193.26Q470.62 191.42 475.61 183.96Q467.63 181.83 471.93 174.66Q459.17 174.6 468.24 165.36Q461.11 162.87 464.56 156.07Q457.99 153.34 460.88 146.77Q445.95 147.65 457.2 137.47Q459.63 131.17 453.52 128.17Q443.55 126.87 449.84 118.88Q441.58 116.84 446.16 109.58Q450.34 102.61 442.48 100.28Q423.64 102.86 438.79 90.98"/>
    <path d="M559.55 387.45Q557.4 382.89 556.46 377.94Q558.05 372.25 553.37 368.43Q549.62 364.42 550.28 358.92Q549.69 353.85 547.19 349.4Q546.27 344.45 544.1 339.89Q544.19 334.62 541.01 330.38Q536.38 326.68 537.92 320.87Q532.15 317.57 534.83 311.36Q533.81 306.44 531.74 301.85Q537.13 295.03 528.65 292.34Q534.39 285.41 525.56 282.83Q527.92 276.86 522.47 273.32Q516.17 270.18 519.38 263.81Q508.94 262.2 516.29 254.3Q510.74 250.89 513.2 244.79Q508.43 241.11 510.11 235.28Q512.43 229.31 507.02 225.77Q495.25 224.61 503.93 216.26Q506.01 210.35 500.84 206.75Q493.76 203.86 497.75 197.24Q487.02 195.66 494.66 187.73Q505.42 179.3 491.57 178.21Q499.62 170.53 488.48 168.7Q476.37 167.61 485.39 159.19Q472.51 158.38 482.29 149.68Q482.64 144.32 479.2 140.17Q468.84 138.43 476.11 130.66Q480.45 124.06 473.02 121.15Q477.07 114.63 469.93 111.64Q469.82 106.42 466.84 102.13Q459.82 99.2 463.75 92.62Q474.49 84.11 460.66 83.11"/>
    <path d="M562.57 386.57Q559.09 382.35 560.08 376.89Q560.27 371.69 557.59 367.2Q553.69 363.09 555.1 357.51Q556.79 351.97 552.62 347.83Q554.86 342.16 550.13 338.14Q549.33 333.19 547.64 328.46Q543.87 324.29 545.16 318.77Q543.88 313.94 542.67 309.08Q542.45 303.98 540.18 299.4Q532.42 296.39 537.7 289.71Q531.92 286.11 535.21 280.03Q533.21 275.38 532.72 270.34Q527.04 266.7 530.24 260.66Q520.17 258.31 527.75 250.97Q531.38 244.94 525.26 241.28Q522.69 236.79 522.78 231.6Q513.39 229.02 520.29 221.91Q522.72 216.16 517.8 212.23Q521.37 206.2 515.31 202.54Q515.56 197.32 512.83 192.85Q505.63 189.62 510.34 183.17Q512.43 177.49 507.85 173.48Q511.95 167.33 505.37 163.8Q512.89 156.85 502.88 154.11Q507.5 147.83 500.39 144.43Q504.73 138.21 497.91 134.74Q501.02 128.81 495.42 125.05Q499.86 118.8 492.93 115.37Q507.88 106.79 490.45 105.68Q496.48 99.05 487.96 96.0Q480.6 92.78 485.47 86.31Q469.13 85.69 482.98 76.62"/>
    <path d="M565.63 385.89Q564.46 381.02 563.76 376.06Q563.3 371.06 561.88 366.24Q562.12 361.11 560.01 356.42Q563.33 350.8 558.14 346.59Q561.31 340.99 556.26 336.77Q552.63 332.41 554.39 326.95Q555.71 321.63 552.51 317.13Q549.5 312.63 550.64 307.3Q553.33 301.75 548.77 297.48Q550.37 292.11 546.89 287.66Q540.42 283.91 545.02 277.83Q550.53 271.82 543.15 268.01Q550.42 261.74 541.27 258.19Q545.16 252.42 539.4 248.37Q537.7 243.6 537.52 238.54Q539.95 233.02 535.65 228.72Q529.82 224.8 533.78 218.9Q532.77 214.0 531.9 209.07Q527.75 204.8 530.03 199.25Q536.47 193.05 528.15 189.43Q537.71 182.74 526.28 179.61Q536.53 172.81 524.41 169.78Q532.95 163.23 522.53 159.96Q508.24 157.93 520.66 150.14Q529.83 143.48 518.79 140.31Q531.03 133.19 516.91 130.49Q519.76 124.88 515.04 120.67Q527.44 113.5 513.16 110.85Q518.93 104.73 511.29 101.02Q500.02 98.25 509.42 91.2Q524.56 83.6 507.54 81.38Q515.69 74.85 505.67 71.55"/>
    <path d="M568.73 385.39Q568.71 380.36 567.48 375.47Q564.82 370.8 566.23 365.55Q565.68 360.58 564.97 355.63Q567.3 350.35 563.72 345.71Q567.54 340.29 562.47 335.79Q561.08 330.93 561.21 325.87Q564.35 320.49 559.96 315.95Q554.57 311.68 558.71 306.03Q551.28 302.1 557.45 296.1Q560.92 290.69 556.2 286.18Q562.04 280.54 554.95 276.26Q558.01 270.88 553.69 266.34Q555.14 261.13 552.44 256.42Q543.24 252.75 551.19 246.5Q558.67 240.68 549.93 236.58Q559.09 230.62 548.68 226.66Q550.0 221.46 547.43 216.73Q550.13 211.38 546.17 206.81Q539.27 202.73 544.92 196.89Q532.81 193.66 543.67 186.97Q536.02 183.0 542.41 177.05Q547.96 171.38 541.16 167.13Q529.69 163.76 539.91 157.21Q552.02 150.93 538.65 147.29Q529.97 143.46 537.4 137.37Q545.32 131.45 536.15 127.44Q533.88 122.7 534.89 117.52Q539.53 111.94 533.64 107.6Q520.5 104.46 532.39 97.68Q537.24 92.07 531.13 87.76Q531.15 82.72 529.88 77.84Q523.33 73.68 528.63 67.92"/>
    <path d="M571.86 385.1Q569.61 380.26 571.23 375.12Q568.28 370.35 570.6 365.14Q572.43 360.04 569.98 355.16Q569.44 350.18 569.35 345.18Q565.69 340.46 568.72 335.2Q569.47 330.15 568.09 325.22Q568.77 320.17 567.47 315.24Q565.72 310.35 566.84 305.26Q570.89 300.06 566.21 295.28Q564.09 290.41 565.58 285.3Q567.1 280.2 564.95 275.32Q571.13 270.05 564.33 265.34Q560.2 260.63 563.7 255.36Q566.56 250.19 563.07 245.37Q561.95 240.44 562.44 235.39Q552.45 231.24 561.81 225.41Q555.56 220.88 561.19 215.43Q559.75 210.52 560.56 205.45Q569.19 200.07 559.93 195.47Q567.03 190.13 559.3 185.49Q546.96 181.55 558.67 175.51Q551.07 171.08 558.05 165.53Q564.71 160.19 557.42 155.55Q551.84 150.94 556.79 145.57Q556.3 140.59 556.16 135.59Q557.15 130.52 555.53 125.61Q552.58 120.8 554.91 115.63Q562.95 110.22 554.28 105.65Q541.51 101.68 553.65 95.67Q549.25 90.96 553.02 85.69Q534.42 82.33 552.4 75.71Q541.92 71.5 551.77 65.73"/>
    <path d="M575.0 385.0Q575.7 380.0 575.0 375.0Q577.79 370.06 575.0 365.0Q572.6 360.04 575.0 355.0Q572.86 350.03 575.0 345.0Q579.45 340.1 575.0 335.0Q575.48 330.0 575.0 325.0Q574.92 320.0 575.0 315.0Q574.68 310.0 575.0 305.0Q571.77 300.04 575.0 295.0Q569.78 290.09 575.0 285.0Q582.88 280.2 575.0 275.0Q577.84 270.02 575.0 265.0Q573.58 260.01 575.0 255.0Q569.94 250.07 575.0 245.0Q566.92 240.17 575.0 235.0Q570.99 230.04 575.0 225.0Q573.15 220.01 575.0 215.0Q566.08 210.18 575.0 205.0Q569.93 200.05 575.0 195.0Q586.66 190.28 575.0 185.0Q562.67 180.3 575.0 175.0Q588.08 170.32 575.0 165.0Q580.9 160.06 575.0 155.0Q560.56 150.37 575.0 145.0Q587.96 140.28 575.0 135.0Q590.18 130.38 575.0 125.0Q565.8 120.13 575.0 115.0Q586.31 110.2 575.0 105.0Q570.72 100.03 575.0 95.0Q562.17 90.24 575.0 85.0Q556.44 80.49 575.0 75.0Q583.24 70.09 575.0 65.0"/>
    <path d="M578.14 385.1Q580.2 380.25 578.77 375.12Q576.36 370.01 579.4 365.14Q583.21 360.45 580.02 355.16Q578.43 350.07 580.65 345.18Q578.56 340.07 581.28 335.2Q583.26 330.33 581.91 325.22Q584.45 320.39 582.53 315.24Q583.23 310.27 583.16 305.26Q580.78 300.12 583.79 295.28Q580.07 290.09 584.42 285.3Q591.02 280.83 585.05 275.32Q577.4 270.02 585.67 265.34Q585.14 260.29 586.3 255.36Q587.92 250.45 586.93 245.37Q591.93 240.74 587.56 235.39Q587.44 230.38 588.19 225.41Q591.44 220.63 588.81 215.43Q600.84 211.49 589.44 205.45Q587.65 200.34 590.07 195.47Q591.65 190.57 590.7 185.49Q577.95 180.02 591.33 175.51Q600.81 171.26 591.95 165.53Q603.97 161.53 592.58 155.55Q578.53 150.02 593.21 145.57Q594.44 140.64 593.84 135.59Q581.0 130.06 594.47 125.61Q598.06 120.85 595.09 115.63Q600.7 111.02 595.72 105.65Q600.69 100.99 596.35 95.67Q591.06 90.37 596.98 85.69Q605.2 81.29 597.6 75.71Q580.29 70.04 598.23 65.73"/>
    <path d="M581.27 385.39Q579.22 380.16 582.52 375.47Q585.33 370.83 583.77 365.55Q580.97 360.24 585.03 355.63Q586.29 350.75 586.28 345.71Q590.96 341.35 587.53 335.79Q587.44 330.74 588.79 325.87Q588.54 320.8 590.04 315.95Q587.42 310.62 591.29 306.03Q595.12 301.51 592.55 296.1Q589.24 290.7 593.8 286.18Q590.0 280.73 595.05 276.26Q589.62 270.65 596.31 266.34Q603.23 262.29 597.56 256.42Q590.16 250.62 598.81 246.5Q591.76 240.72 600.07 236.58Q604.87 232.19 601.32 226.66Q593.9 220.83 602.57 216.73Q595.52 210.94 603.83 206.81Q606.46 202.12 605.08 196.89Q603.82 191.7 606.33 186.97Q609.4 182.33 607.59 177.05Q612.78 172.71 608.84 167.13Q600.95 161.23 610.09 157.21Q625.2 154.46 611.35 147.29Q611.61 142.28 612.6 137.37Q620.04 133.34 613.85 127.44Q615.2 122.58 615.11 117.52Q623.05 113.57 616.36 107.6Q607.94 101.62 617.61 97.68Q621.69 93.17 618.87 87.76Q628.93 84.12 620.12 77.84Q614.99 72.2 621.37 67.92"/>
    <path d="M584.37 385.89Q587.37 381.41 586.24 376.06Q588.67 371.45 588.12 366.24Q589.75 361.46 589.99 356.42Q592.97 351.92 591.86 346.59Q595.76 342.3 593.74 336.77Q592.71 331.51 595.61 326.95Q593.05 321.43 597.49 317.13Q604.06 313.43 599.36 307.3Q598.59 302.08 601.23 297.48Q603.09 292.75 603.11 287.66Q602.89 282.53 604.98 277.83Q607.89 273.31 606.85 268.01Q599.57 261.73 608.73 258.19Q618.38 255.16 610.6 248.37Q616.68 244.51 612.48 238.54Q623.37 235.79 614.35 228.72Q605.87 222.23 616.22 218.9Q608.69 212.54 618.1 209.07Q616.95 203.77 619.97 199.25Q615.35 193.35 621.85 189.43Q628.02 185.57 623.72 179.61Q616.15 173.21 625.59 169.78Q612.49 162.57 627.47 159.96Q633.51 156.07 629.34 150.14Q630.11 145.19 631.21 140.31Q646.71 138.55 633.09 130.49Q635.44 125.85 634.96 120.67Q629.69 114.63 636.84 110.85Q627.19 104.09 638.71 101.02Q627.72 94.05 640.58 91.2Q625.51 83.61 642.46 81.38Q635.33 75.02 644.33 71.55"/>
    <path d="M587.43 386.57Q590.05 382.1 589.92 376.89Q590.75 371.94 592.41 367.2Q591.31 361.8 594.9 357.51Q595.27 352.45 597.38 347.83Q595.12 342.15 599.87 338.14Q600.93 333.25 602.36 328.46Q606.48 324.39 604.84 318.77Q605.54 313.79 607.33 309.08Q610.12 304.65 609.82 299.4Q616.01 295.92 612.3 289.71Q611.66 284.4 614.79 280.03Q618.14 275.74 617.28 270.34Q612.74 264.12 619.76 260.66Q614.32 254.23 622.25 250.97Q622.32 245.83 624.74 241.28Q618.81 234.74 627.22 231.6Q625.18 225.94 629.71 221.91Q637.04 218.72 632.2 212.23Q627.08 205.84 634.69 202.54Q628.23 195.85 637.17 192.85Q641.19 188.74 639.66 183.17Q647.95 180.24 642.15 173.48Q654.34 171.69 644.63 163.8Q654.94 161.44 647.12 154.11Q644.12 148.21 649.61 144.43Q662.96 142.96 652.09 134.74Q645.65 128.03 654.58 125.05Q650.85 118.97 657.07 115.37Q671.71 114.26 659.55 105.68Q651.78 98.65 662.04 96.0Q645.72 87.12 664.53 86.31Q653.7 78.58 667.02 76.62"/>
    <path d="M590.45 387.45Q591.41 382.51 593.54 377.94Q595.38 373.28 596.63 368.43Q598.15 363.66 599.72 358.92Q604.89 355.43 602.81 349.4Q603.24 344.29 605.9 339.89Q611.6 336.58 608.99 330.38Q611.41 325.91 612.08 320.87Q611.28 315.38 615.17 311.36Q621.51 308.26 618.26 301.85Q624.66 298.77 621.35 292.34Q628.74 289.61 624.44 282.83Q626.52 278.25 627.53 273.32Q624.53 267.15 630.62 263.81Q630.1 258.4 633.71 254.3Q640.88 251.47 636.8 244.79Q630.8 237.74 639.89 235.28Q633.2 228.03 642.98 225.77Q647.77 222.09 646.07 216.26Q640.3 209.26 649.16 206.75Q643.46 199.76 652.25 197.24Q653.23 192.3 655.34 187.73Q664.05 185.41 658.43 178.21Q660.41 173.6 661.52 168.7Q671.52 166.84 664.61 159.19Q654.54 150.93 667.71 149.68Q670.47 145.33 670.8 140.17Q686.82 140.51 673.89 130.66Q678.89 127.05 676.98 121.15Q680.62 117.09 680.07 111.64Q681.7 106.91 683.16 102.13Q677.36 95.08 686.25 92.62Q704.36 93.69 689.34 83.11"/>
    <path d="M593.41 388.51Q596.75 384.48 597.09 379.21Q600.5 375.21 600.77 369.92Q604.3 365.96 604.45 360.62Q605.0 355.47 608.13 351.32Q613.08 347.96 611.81 342.02Q609.67 335.89 615.49 332.72Q622.25 330.16 619.17 323.43Q618.73 317.9 622.86 314.13Q623.24 308.91 626.54 304.83Q629.12 300.48 630.22 295.53Q637.24 293.05 633.9 286.24Q629.12 279.13 637.58 276.94Q636.31 271.09 641.26 267.64Q647.8 264.93 644.94 258.34Q647.48 253.97 648.62 249.04Q654.4 246.0 652.31 239.75Q658.52 236.88 655.99 230.45Q660.39 226.83 659.67 221.15Q665.74 218.23 663.35 211.85Q664.02 206.75 667.03 202.56Q660.67 194.82 670.71 193.26Q675.54 189.81 674.39 183.96Q675.57 179.05 678.07 174.66Q689.77 174.13 681.76 165.36Q696.77 166.31 685.44 156.07Q691.02 152.93 689.12 146.77Q700.26 145.98 692.8 137.47Q701.54 135.65 696.48 128.17Q693.09 121.51 700.16 118.88Q694.77 111.46 703.84 109.58Q689.28 98.9 707.52 100.28Q712.98 97.09 711.21 90.98"/>
    <path d="M596.29 389.76Q600.43 386.23 600.55 380.71Q604.78 377.23 604.8 371.66Q603.5 365.63 609.06 362.61Q609.14 357.16 613.32 353.57Q612.35 347.65 617.58 344.52Q619.13 339.72 621.84 335.47Q626.17 332.01 626.09 326.42Q627.66 321.63 630.35 317.37Q637.14 315.15 634.61 308.32Q643.06 306.96 638.87 299.28Q637.78 293.28 643.12 290.23Q643.61 284.94 647.38 281.18Q645.39 274.78 651.64 272.13Q652.24 266.9 655.9 263.08Q666.26 262.67 660.16 254.03Q656.85 247.05 664.41 244.99Q668.7 241.49 668.67 235.94Q663.7 228.22 672.93 226.89Q665.93 218.31 677.19 217.84Q686.11 216.64 681.44 208.79Q693.0 208.95 685.7 199.74Q692.36 197.4 689.96 190.7Q704.01 192.14 694.22 181.65Q691.12 174.73 698.48 172.6Q691.84 164.13 702.73 163.55Q702.85 158.09 706.99 154.5Q720.38 155.56 711.25 145.46Q702.29 135.97 715.51 136.41Q721.9 133.92 719.76 127.36Q723.59 123.64 724.02 118.31Q738.76 120.03 728.28 109.26Q733.85 106.38 732.54 100.21"/>
    <path d="M599.09 391.18Q600.22 386.12 603.91 382.42Q607.66 378.8 608.72 373.66Q610.41 368.89 613.54 364.9Q617.33 361.29 618.36 356.13Q616.92 349.75 623.18 347.37Q621.87 341.04 627.99 338.61Q631.84 335.03 632.81 329.84Q629.67 322.59 637.63 321.08Q644.48 319.25 642.45 312.32Q646.21 308.69 647.26 303.55Q655.13 302.32 652.08 294.79Q659.16 293.07 656.9 286.03Q655.92 279.83 661.72 277.26Q656.16 268.75 666.53 268.5Q663.28 261.13 671.35 259.74Q667.18 251.9 676.17 250.98Q678.95 246.8 680.99 242.21Q686.06 239.32 685.8 233.45Q690.24 230.2 690.62 224.69Q692.84 220.2 695.44 215.92Q703.33 214.64 700.26 207.16Q701.02 201.88 705.07 198.4Q698.5 189.29 709.89 189.63Q716.32 187.5 714.71 180.87Q715.73 175.73 719.53 172.11Q730.85 172.83 724.34 163.34Q723.02 156.95 729.16 154.58Q730.8 149.78 733.98 145.82Q743.88 145.68 738.8 137.06Q736.14 129.95 743.61 128.29Q750.98 126.69 748.43 119.53Q751.29 115.4 753.25 110.77"/>
    <path d="M601.79 392.78Q606.23 389.73 607.15 384.34Q610.29 380.41 612.51 375.9Q615.17 371.66 617.87 367.45Q620.47 363.18 623.22 359.01Q628.1 356.22 628.58 350.57Q629.01 344.95 633.94 342.12Q631.71 334.96 639.3 333.68Q638.28 327.2 644.66 325.24Q643.33 318.57 650.02 316.79Q653.07 312.81 655.37 308.35Q664.25 308.28 660.73 299.91Q656.45 291.5 666.09 291.46Q670.06 288.07 671.45 283.02Q676.11 280.07 676.81 274.58Q679.33 270.26 682.17 266.13Q679.16 258.44 687.52 257.69Q686.97 251.46 692.88 249.25Q698.56 246.96 698.24 240.8Q699.63 235.77 703.6 232.36Q696.94 222.5 708.96 223.92Q718.11 223.95 714.31 215.47Q709.41 206.62 719.67 207.03Q720.18 201.45 725.03 198.59Q728.4 194.8 730.39 190.14Q744.24 193.37 735.75 181.7Q729.94 172.29 741.11 173.26Q746.97 171.09 746.46 164.82Q747.69 159.67 751.82 156.37Q757.52 154.09 757.18 147.93Q747.98 136.5 762.54 139.49Q749.61 125.91 767.9 131.04Q772.67 128.16 773.26 122.6"/>
    <path d="M604.39 394.55Q607.27 390.46 610.27 386.46Q612.54 381.94 616.14 378.37Q617.84 373.44 622.02 370.28Q626.49 367.37 627.9 362.19Q632.77 359.59 633.78 354.1Q635.62 349.27 639.66 346.01Q638.1 338.86 645.53 337.92Q643.3 330.31 651.41 329.83Q652.0 324.12 657.29 321.74Q658.38 316.37 663.17 313.65Q663.71 307.89 669.05 305.56Q671.18 300.93 674.92 297.47Q678.23 293.69 680.8 289.38Q686.94 287.71 686.68 281.29Q692.56 279.42 692.56 273.2Q691.79 266.52 698.43 265.11Q692.83 255.16 704.31 257.02Q703.0 249.96 710.19 248.93Q704.03 238.59 716.07 240.84Q720.58 237.94 721.95 232.75Q729.64 232.24 727.82 224.66Q730.73 220.59 733.7 216.57Q746.38 219.93 739.58 208.48Q733.74 198.3 745.46 200.39Q760.17 205.35 751.34 192.29Q742.09 179.84 757.21 184.2Q766.39 184.81 763.09 176.11Q752.18 162.54 768.97 168.02Q784.71 173.76 774.85 159.93Q784.51 160.9 780.72 151.84Q777.15 143.18 786.6 143.75Q788.17 138.71 792.48 135.66"/>
    <path d="M606.87 396.47Q610.99 393.41 613.25 388.77Q614.99 383.76 619.62 381.06Q625.59 379.63 625.99 373.36Q631.16 371.2 632.37 365.65Q638.81 364.62 638.74 357.95Q639.1 351.84 645.12 350.24Q644.18 343.13 651.49 342.54Q658.33 341.83 657.87 334.83Q657.63 328.24 664.24 327.13Q662.24 319.18 670.61 319.42Q675.39 316.91 676.99 311.72Q681.52 308.99 683.36 304.01Q689.44 302.6 689.74 296.31Q693.73 293.13 696.11 288.6Q701.72 286.79 702.48 280.9Q699.35 272.02 708.86 273.19Q711.51 268.9 715.23 265.49Q710.97 255.73 721.61 257.78Q732.97 261.02 727.98 250.08Q728.39 243.96 734.36 242.37Q746.95 246.69 740.73 234.67Q746.21 232.73 747.1 226.96Q747.89 221.15 753.48 219.26Q759.42 217.71 759.85 211.55Q758.37 203.91 766.23 203.85Q773.24 203.21 772.6 196.14Q782.32 197.84 778.98 188.44Q785.49 187.38 785.35 180.73Q782.19 171.75 791.72 173.03Q793.94 168.37 798.1 165.32Q798.29 159.01 804.47 157.62Q819.62 164.1 810.85 149.91"/>
    <path d="M609.23 398.55Q613.25 395.48 616.07 391.26Q621.12 389.19 622.92 383.97Q624.42 378.59 629.76 376.68Q633.32 373.16 636.61 369.39Q642.72 368.38 643.45 362.1Q643.22 355.18 650.3 354.81Q652.23 349.79 657.15 347.52Q661.91 345.16 663.99 340.23Q669.76 338.85 670.84 332.94Q679.4 334.37 677.68 325.65Q678.89 319.97 684.53 318.37Q692.34 319.0 691.37 311.08Q692.3 305.13 698.22 303.79Q696.44 295.44 705.06 296.5Q713.54 297.77 711.91 289.21Q710.08 280.79 718.75 281.92Q729.56 285.55 725.6 274.63Q722.98 265.51 732.45 267.34Q727.15 255.9 739.29 260.05Q744.52 258.11 746.14 252.76Q741.72 242.05 752.98 245.47Q751.73 237.54 759.83 238.18Q773.24 244.4 766.67 230.89Q761.9 219.84 773.52 223.6Q775.97 219.05 780.36 216.31Q776.66 206.18 787.21 209.02Q781.37 197.02 794.06 201.73Q797.8 198.39 800.9 194.44Q808.08 194.38 807.75 187.15Q814.82 186.98 814.59 179.86Q821.33 179.38 821.44 172.57Q831.66 175.48 828.28 165.28"/>
    <path d="M611.45 400.77Q616.12 398.47 618.74 393.93Q623.4 391.62 626.03 387.08Q631.06 385.17 633.32 380.24Q637.02 376.88 640.61 373.39Q642.34 367.99 647.9 366.55Q654.92 366.9 655.19 359.7Q656.06 353.43 662.48 352.85Q665.5 348.77 669.77 346.01Q670.26 339.34 677.06 339.16Q676.08 331.04 684.35 332.32Q692.72 334.17 691.63 325.47Q696.4 323.26 698.92 318.63Q708.15 321.44 706.21 311.78Q707.9 306.3 713.5 304.94Q713.25 297.48 720.79 298.09Q726.28 296.65 728.08 291.25Q738.68 295.6 735.37 284.4Q746.06 288.83 742.66 277.55Q752.5 280.99 749.95 270.71Q760.56 275.02 757.24 263.86Q756.79 256.18 764.53 257.02Q774.8 260.91 771.82 250.17Q776.39 247.74 779.11 243.33Q791.06 249.15 786.4 236.48Q798.95 242.99 793.69 229.64Q795.66 224.44 800.98 222.79Q793.78 208.37 808.27 215.94Q822.37 224.21 815.56 209.1Q815.38 201.67 822.85 202.25Q836.01 209.39 830.14 195.41Q839.76 198.52 837.43 188.56Q828.77 172.65 844.72 181.72"/>
    <path d="M613.53 403.13Q618.86 401.82 621.23 396.75Q623.83 392.1 628.94 390.38Q633.3 387.82 636.64 384.01Q637.91 377.84 644.35 377.63Q646.81 372.81 652.05 371.26Q658.59 371.46 659.76 364.88Q660.63 358.24 667.46 358.51Q668.4 351.92 675.17 352.13Q675.97 345.39 682.87 345.76Q685.03 340.56 690.58 339.39Q693.97 335.65 698.28 333.01Q706.4 335.2 705.99 326.64Q705.52 318.42 713.69 320.26Q713.6 312.46 721.4 313.89Q719.89 304.49 729.1 307.52Q732.33 303.57 736.81 301.14Q742.98 300.8 744.51 294.77Q749.74 293.26 752.22 288.39Q749.32 277.4 759.92 282.02Q760.3 274.72 767.63 275.64Q775.5 277.44 775.33 269.27Q782.17 269.76 783.04 262.9Q791.59 265.54 790.74 256.52Q786.06 243.48 798.45 250.15Q792.24 235.42 806.15 243.77Q802.88 232.28 813.86 237.4Q813.01 228.66 821.56 231.02Q827.98 230.98 829.27 224.65Q832.12 220.26 836.97 218.28Q837.32 210.91 844.68 211.9Q853.71 215.12 852.38 205.53Q850.52 195.6 860.09 199.15"/>
    <path d="M615.45 405.61Q619.33 402.44 623.54 399.73Q628.88 398.64 631.63 393.86Q637.06 392.88 639.72 387.98Q642.54 383.4 647.81 382.1Q649.54 376.1 655.9 376.22Q658.8 371.73 663.99 370.34Q664.71 363.04 672.08 364.47Q672.34 356.57 680.17 358.59Q686.97 359.58 688.26 352.71Q693.09 350.86 696.35 346.83Q696.14 338.3 704.44 340.95Q707.57 336.76 712.53 335.08Q720.01 337.03 720.62 329.2Q726.42 328.71 728.71 323.32Q735.95 324.91 736.8 317.44Q742.95 317.45 744.89 311.57Q745.98 304.65 752.98 305.69Q754.2 298.94 761.07 299.81Q766.22 298.39 769.16 293.93Q774.32 292.54 777.25 288.05Q775.24 277.11 785.34 282.18Q789.47 279.35 793.43 276.3Q804.64 283.7 801.52 270.42Q799.02 258.81 809.61 264.54Q821.68 273.22 817.71 258.66Q823.12 257.63 825.8 252.79Q820.06 237.08 833.89 246.91Q834.88 239.85 841.98 241.03Q849.18 242.51 850.07 235.15Q849.05 225.42 858.16 229.28Q865.61 231.12 866.25 223.4Q863.16 210.98 874.34 217.52"/>
    <path d="M617.22 408.21Q621.64 405.85 625.66 402.85Q628.15 397.59 634.1 397.49Q639.18 396.2 642.55 392.13Q646.19 388.56 650.99 386.78Q655.95 385.28 659.43 381.42Q662.83 377.46 667.88 376.06Q671.75 372.83 676.32 370.7Q681.72 369.92 684.76 365.34Q689.7 363.8 693.21 359.98Q694.86 353.4 701.65 354.63Q707.02 353.78 710.09 349.27Q711.96 342.99 718.54 343.91Q723.99 343.21 726.98 338.55Q733.72 339.96 735.42 333.19Q735.83 324.74 743.87 327.83Q744.39 319.54 752.31 322.48Q750.39 310.65 760.75 317.12Q768.01 319.36 769.2 311.76Q774.51 310.82 777.64 306.4Q783.4 306.19 786.08 301.04Q792.3 301.56 794.53 295.69Q798.01 291.84 802.97 290.33Q805.58 285.14 811.41 284.97Q811.1 275.37 819.86 279.61Q822.05 273.78 828.3 274.25Q836.74 278.42 836.74 268.89Q837.9 261.49 845.18 263.54Q841.07 248.37 853.63 258.18Q858.78 256.97 862.07 252.82Q865.78 249.34 870.51 247.46Q882.13 256.96 878.96 242.1Q890.96 252.27 887.4 236.74"/>
    <path d="M618.82 410.91Q622.4 407.11 627.58 406.09Q630.86 401.77 636.34 401.28Q640.03 397.64 645.1 396.46Q649.03 393.23 653.87 391.64Q657.48 387.86 662.63 386.82Q667.82 385.92 671.39 382.01Q675.41 378.94 680.16 377.19Q683.23 372.46 688.92 372.37Q691.46 366.72 697.68 367.55Q701.52 364.16 706.45 362.74Q712.92 364.26 715.21 357.92Q720.71 357.59 723.97 353.1Q729.8 353.39 732.74 348.28Q732.98 338.74 741.5 343.47Q749.41 347.8 750.26 338.65Q756.07 338.87 759.02 333.83Q764.19 332.87 767.79 329.01Q768.76 320.63 776.55 324.2Q775.16 311.87 785.31 319.38Q792.32 321.88 794.08 314.56Q801.81 318.45 802.84 309.74Q803.15 300.19 811.6 304.93Q810.66 293.26 820.37 300.11Q817.23 284.84 829.13 295.29Q833.63 293.09 837.89 290.47Q844.71 292.6 846.66 285.66Q848.02 277.88 855.42 280.84Q862.85 284.12 864.18 276.02Q873.59 283.12 872.94 271.2Q874.9 264.45 881.71 266.39Q884.07 260.36 890.47 261.57Q897.89 264.8 899.23 256.75"/>
    <path d="M620.24 413.71Q623.64 409.33 629.29 409.45Q634.36 408.53 638.34 405.2Q641.58 400.48 647.39 400.94Q651.72 398.41 656.43 396.68Q662.17 397.24 665.48 392.42Q670.31 390.93 674.53 388.16Q681.19 390.85 683.58 383.91Q686.52 378.53 692.63 379.65Q695.9 374.92 701.68 375.39Q706.46 373.81 710.72 371.13Q712.86 364.15 719.77 366.88Q725.11 366.51 728.82 362.62Q732.98 359.71 737.87 358.36Q743.45 358.51 746.92 354.1Q750.04 349.06 755.97 349.84Q758.8 344.21 765.01 345.59Q766.82 337.89 774.06 341.33Q779.67 341.53 783.11 337.07Q784.44 328.42 792.16 332.81Q797.32 332.05 801.21 328.56Q810.64 337.53 810.26 324.3Q816.47 325.84 819.3 320.04Q817.7 305.69 828.35 315.78Q830.75 309.23 837.4 311.52Q836.67 298.78 846.45 307.27Q846.4 295.84 855.5 303.01Q859.51 299.79 864.54 298.75Q874.7 309.29 873.59 294.49Q878.84 293.9 882.64 290.24Q893.45 302.29 891.69 285.98Q902.87 298.88 900.74 281.72Q907.31 284.02 909.79 277.46"/>
    <path d="M621.49 416.59Q625.11 412.34 630.79 412.91Q636.26 413.28 640.08 409.23Q643.88 405.32 649.38 405.55Q654.66 405.34 658.68 401.87Q661.62 395.98 667.98 398.19Q673.83 399.55 677.28 394.51Q679.69 387.41 686.57 390.83Q691.68 390.15 695.87 387.14Q698.16 379.72 705.17 383.46Q708.64 378.74 714.47 379.78Q719.97 380.14 723.76 376.1Q727.15 371.17 733.06 372.42Q735.94 366.28 742.36 368.74Q749.67 374.03 751.66 365.06Q757.66 366.75 760.96 361.38Q766.12 360.84 770.25 357.69Q774.68 355.29 779.55 354.01Q780.23 342.78 788.85 350.33Q791.82 344.38 798.15 346.65Q800.47 339.14 807.44 342.97Q807.24 329.7 816.74 339.29Q822.68 340.77 826.04 335.61Q833.21 340.37 835.34 331.93Q837.42 323.81 844.64 328.24Q853.05 336.44 853.93 324.56Q855.24 314.63 863.23 320.88Q866.06 314.54 872.53 317.2Q871.91 302.84 881.83 313.52Q885.71 309.77 891.12 309.84Q893.76 303.03 900.42 306.16Q902.12 297.11 909.72 302.48Q910.63 291.56 919.02 298.79"/>
    <path d="M622.55 419.55Q627.3 417.99 632.06 416.46Q635.72 411.8 641.57 413.37Q647.36 415.28 651.08 410.28Q656.41 410.56 660.6 407.19Q664.84 404.12 670.11 404.1Q675.03 403.09 679.62 401.01Q683.37 396.52 689.13 397.92Q695.59 402.08 698.64 394.83Q703.16 392.58 708.15 391.74Q712.55 389.11 717.66 388.65Q722.12 386.2 727.17 385.56Q733.74 389.98 736.68 382.47Q741.53 381.21 746.19 379.38Q751.13 378.4 755.7 376.29Q759.65 372.32 765.21 373.2Q772.44 379.86 774.72 370.11Q781.43 374.9 784.23 367.02Q789.92 368.4 793.74 363.93Q795.68 354.22 803.25 360.84Q810.92 368.93 812.76 357.75Q817.92 357.43 822.27 354.66Q822.76 340.99 831.79 351.57Q834.32 343.47 841.3 348.48Q847.55 351.69 850.81 345.39Q852.0 333.53 860.32 342.29Q869.24 354.7 869.83 339.2Q878.49 350.64 879.34 336.11Q886.79 343.29 888.85 333.02Q893.33 330.64 898.36 329.93Q903.48 329.51 907.87 326.84Q913.21 327.11 917.38 323.75Q921.99 321.77 926.89 320.66"/>
    <path d="M623.43 422.57Q628.69 423.06 633.11 420.08Q638.37 420.53 642.8 417.59Q646.94 413.8 652.49 415.1Q657.44 414.28 662.17 412.62Q667.49 413.33 671.86 410.13Q677.56 412.49 681.54 407.64Q687.68 412.04 691.23 405.16Q695.9 403.25 700.92 402.67Q703.86 394.76 710.6 400.18Q715.49 399.12 720.29 397.7Q724.95 395.77 729.97 395.21Q736.7 402.16 739.66 392.72Q746.14 398.45 749.34 390.24Q755.74 395.52 759.03 387.75Q765.23 392.15 768.72 385.26Q772.44 379.83 778.4 382.78Q782.91 380.23 788.09 380.29Q792.29 376.6 797.77 377.8Q801.65 372.91 807.46 375.31Q814.26 382.27 817.15 372.83Q820.74 366.91 826.83 370.34Q832.29 371.55 836.52 367.85Q837.86 354.21 846.2 365.37Q848.88 356.16 855.89 362.88Q861.19 363.43 865.57 360.39Q868.83 353.22 875.26 357.91Q883.33 370.52 884.95 355.42Q891.32 360.38 894.63 352.93Q901.63 360.58 904.32 350.45Q908.23 345.65 914.0 347.96Q915.83 335.72 923.69 345.47Q930.17 350.84 933.38 342.98"/>
    <path d="M624.11 425.63Q629.37 426.68 633.94 423.76Q639.29 425.44 643.76 421.88Q649.15 423.74 653.58 420.01Q658.85 421.08 663.41 418.14Q668.33 417.27 673.23 416.26Q678.68 418.41 683.05 414.39Q686.99 408.85 692.87 412.51Q698.41 415.14 702.7 410.64Q706.13 402.9 712.52 408.77Q718.47 414.01 722.34 406.89Q726.7 403.21 732.17 405.02Q738.36 411.81 741.99 403.15Q745.67 396.33 751.81 401.27Q756.34 398.38 761.63 399.4Q765.12 391.66 771.46 397.52Q777.61 403.78 781.28 395.65Q787.08 399.69 791.1 393.78Q797.55 401.87 800.93 391.9Q807.83 403.11 810.75 390.03Q815.66 389.1 820.57 388.15Q823.31 376.97 830.39 386.28Q836.9 394.58 840.22 384.41Q844.45 380.01 850.04 382.53Q852.36 369.43 859.86 380.66Q867.05 393.39 869.69 378.79Q876.75 390.61 879.51 376.91Q886.4 387.55 889.33 375.04Q896.39 386.67 899.15 373.16Q901.81 361.36 908.98 371.29Q910.54 354.75 918.8 369.42Q926.14 382.78 928.62 367.54Q935.33 376.8 938.45 365.67"/>
    <path d="M624.61 428.73Q629.83 430.66 634.53 427.48Q639.75 429.34 644.45 426.23Q649.47 426.06 654.37 424.97Q659.57 426.43 664.29 423.72Q669.7 427.41 674.21 422.47Q679.2 422.1 684.13 421.21Q689.09 420.6 694.05 419.96Q698.54 415.96 703.97 418.71Q709.11 419.5 713.9 417.45Q718.76 416.04 723.82 416.2Q727.57 407.64 733.74 414.95Q738.98 416.64 743.66 413.69Q748.5 412.16 753.58 412.44Q757.45 404.42 763.5 411.19Q768.33 409.56 773.42 409.93Q777.87 405.52 783.34 408.68Q787.25 400.7 793.27 407.43Q798.39 408.12 803.19 406.17Q807.38 399.98 813.11 404.92Q816.97 396.57 823.03 403.67Q828.83 410.58 832.95 402.41Q838.06 403.02 842.87 401.16Q848.0 401.91 852.79 399.91Q857.41 396.66 862.71 398.65Q867.24 394.71 872.63 397.4Q878.98 410.13 882.56 396.15Q888.02 399.69 892.48 394.89Q896.79 389.47 902.4 393.64Q905.95 383.06 912.32 392.39Q916.05 382.95 922.24 391.13Q924.9 375.05 932.16 389.88Q937.26 390.35 942.08 388.63"/>
    <path d="M624.9 431.86Q629.9 431.62 634.88 431.23Q639.92 431.76 644.86 430.6Q649.75 428.87 654.84 429.98Q659.83 429.64 664.82 429.35Q669.87 429.99 674.8 428.72Q679.55 425.29 684.78 428.09Q689.94 431.2 694.76 427.47Q699.88 429.46 704.74 426.84Q709.85 428.65 714.72 426.21Q719.99 433.06 724.7 425.58Q729.85 428.29 734.68 424.95Q739.98 432.57 744.66 424.33Q749.87 428.35 754.64 423.7Q759.97 431.88 764.63 423.07Q769.68 423.76 774.61 422.44Q779.71 424.12 784.59 421.81Q789.28 417.41 794.57 421.19Q799.32 417.56 804.55 420.56Q808.83 411.63 814.53 419.93Q819.52 419.65 824.51 419.3Q828.95 411.84 834.49 418.67Q838.94 411.28 844.47 418.05Q849.95 429.97 854.45 417.42Q859.87 426.37 864.43 416.79Q869.76 423.07 874.41 416.16Q879.21 413.11 884.39 415.53Q889.75 422.43 894.37 414.91Q899.93 428.11 904.35 414.28Q909.98 431.27 914.33 413.65Q919.93 428.06 924.31 413.02Q927.82 395.7 934.29 412.4Q939.28 412.14 944.27 411.77"/>
  </g>
</svg>
