<svg version="1.1" width="1150" height="870" xmlns="http://www.w3.org/2000/svg">
  <!-- Seed: 6259262556457727170 -->
  <!-- Size: SvgSize.Size9x12 -->
  <!-- Params:
    draw_worm: False
    draw_highlight: True
    step_dist: 5
    circle: True
    peaks: [RangeInt] min: 3 max: 7
    shuffle_large_max_x: 80
    shuffle_large_max_y: 100
    shuffle_small_max_x: 30
    shuffle_small_max_y: 30
    rough_subdivisions: [RangeInt] min: 1 max: 10
    padding: 100
    size_end: 1
    size_range: [RangeInt] min: 5 max: 60
    highlight_end_circle_radius: 30
    highlight_end_points: 10
    highlight_end_point_radius: 5
    highlight_sunburst_ray_len: 10
    highlights: [RangeInt] min: 3 max: 5
    highlight_padding: 20
    consumed_check_radius: 50
    highlight_spacing: 10
    highlight_text_weight: [(0, 1), (1, 3)]
    highlight_text_num_range: [RangeInt] min: 200 max: 50000
    connect_highlight_weight: [(0, 1), (1, 3)]
  -->
  <g stroke="black" fill="none">
    <g stroke="blue">
      <circle cx="117.0" cy="472.0" r="5"/>
      <circle cx="111.27" cy="489.63" r="5"/>
      <circle cx="96.27" cy="500.53" r="5"/>
      <circle cx="77.73" cy="500.53" r="5"/>
      <circle cx="62.73" cy="489.63" r="5"/>
      <circle cx="57.0" cy="472.0" r="5"/>
      <circle cx="62.73" cy="454.37" r="5"/>
      <circle cx="77.73" cy="443.47" r="5"/>
      <circle cx="96.27" cy="443.47" r="5"/>
      <circle cx="111.27" cy="454.37" r="5"/>
      <path d="M1031.0 462.0 L1031.0 472.0"/>
      <path d="M1048.63 456.27 L1054.51 464.36"/>
      <path d="M1059.53 441.27 L1069.04 444.36"/>
      <path d="M1059.53 422.73 L1069.04 419.64"/>
      <path d="M1048.63 407.73 L1054.51 399.64"/>
      <path d="M1031.0 402.0 L1031.0 392.0"/>
      <path d="M1013.37 407.73 L1007.49 399.64"/>
      <path d="M1002.47 422.73 L992.96 419.64"/>
      <path d="M1002.47 441.27 L992.96 444.36"/>
      <path d="M1013.37 456.27 L1007.49 464.36"/>
      <circle cx="846.0" cy="146.0" r="50.98"/>
      <circle cx="846.0" cy="146.0" r="60.98"/>
      <circle cx="214.0" cy="271.0" r="29.81"/>
      <path d="M214.0 310.81 L214.0 320.81"/>
      <path d="M226.3 308.86 L229.39 318.37"/>
      <path d="M237.4 303.21 L243.28 311.3"/>
      <path d="M246.21 294.4 L254.3 300.28"/>
      <path d="M251.86 283.3 L261.37 286.39"/>
      <path d="M253.81 271.0 L263.81 271.0"/>
      <path d="M251.86 258.7 L261.37 255.61"/>
      <path d="M246.21 247.6 L254.3 241.72"/>
      <path d="M237.4 238.79 L243.28 230.7"/>
      <path d="M226.3 233.14 L229.39 223.63"/>
      <path d="M214.0 231.19 L214.0 221.19"/>
      <path d="M201.7 233.14 L198.61 223.63"/>
      <path d="M190.6 238.79 L184.72 230.7"/>
      <path d="M181.79 247.6 L173.7 241.72"/>
      <path d="M176.14 258.7 L166.63 255.61"/>
      <path d="M174.19 271.0 L164.19 271.0"/>
      <path d="M176.14 283.3 L166.63 286.39"/>
      <path d="M181.79 294.4 L173.7 300.28"/>
      <path d="M190.6 303.21 L184.72 311.3"/>
      <path d="M201.7 308.86 L198.61 318.37"/>
      <circle cx="759.0" cy="450.0" r="26.71"/>
      <path d="M759.0 486.71 L759.0 496.71"/>
      <path d="M770.34 484.91 L773.43 494.42"/>
      <path d="M780.58 479.7 L786.46 487.79"/>
      <path d="M788.7 471.58 L796.79 477.46"/>
      <path d="M793.91 461.34 L803.42 464.43"/>
      <path d="M795.71 450.0 L805.71 450.0"/>
      <path d="M793.91 438.66 L803.42 435.57"/>
      <path d="M788.7 428.42 L796.79 422.54"/>
      <path d="M780.58 420.3 L786.46 412.21"/>
      <path d="M770.34 415.09 L773.43 405.58"/>
      <path d="M759.0 413.29 L759.0 403.29"/>
      <path d="M747.66 415.09 L744.57 405.58"/>
      <path d="M737.42 420.3 L731.54 412.21"/>
      <path d="M729.3 428.42 L721.21 422.54"/>
      <path d="M724.09 438.66 L714.58 435.57"/>
      <path d="M722.29 450.0 L712.29 450.0"/>
      <path d="M724.09 461.34 L714.58 464.43"/>
      <path d="M729.3 471.58 L721.21 477.46"/>
      <path d="M737.42 479.7 L731.54 487.79"/>
      <path d="M747.66 484.91 L744.57 494.42"/>
    </g>
  </g>
</svg>
