<svg version="1.1" width="1150" height="870" xmlns="http://www.w3.org/2000/svg">
  <!-- Seed: 1873179768197986865 -->
  <g stroke="black" fill="none">
    <g stroke="blue">
      <circle cx="133.0" cy="432.0" r="5"/>
      <circle cx="127.27050983124843" cy="449.6335575687742" r="5"/>
      <circle cx="112.27050983124842" cy="460.5316954888546" r="5"/>
      <circle cx="93.72949016875158" cy="460.5316954888546" r="5"/>
      <circle cx="78.72949016875158" cy="449.6335575687742" r="5"/>
      <circle cx="73.0" cy="432.0" r="5"/>
      <circle cx="78.72949016875157" cy="414.36644243122583" r="5"/>
      <circle cx="93.72949016875157" cy="403.4683045111454" r="5"/>
      <circle cx="112.27050983124842" cy="403.4683045111454" r="5"/>
      <circle cx="127.27050983124842" cy="414.3664424312258" r="5"/>
      <path d="M944.0 576.0 L944.0 586.0"/>
      <path d="M961.63 570.27 L967.51 578.36"/>
      <path d="M972.53 555.27 L982.04 558.36"/>
      <path d="M972.53 536.73 L982.04 533.64"/>
      <path d="M961.63 521.73 L967.51 513.64"/>
      <path d="M944.0 516.0 L944.0 506.0"/>
      <path d="M926.37 521.73 L920.49 513.64"/>
      <path d="M915.47 536.73 L905.96 533.64"/>
      <path d="M915.47 555.27 L905.96 558.36"/>
      <path d="M926.37 570.27 L920.49 578.36"/>
      <circle cx="473.0" cy="471.0" r="38.0"/>
      <circle cx="473.0" cy="471.0" r="48.0"/>
      <circle cx="585.0" cy="622.0" r="52.61"/>
      <path d="M585.0 684.61 L585.0 694.61"/>
      <path d="M604.35 681.55 L607.44 691.06"/>
      <path d="M621.8 672.65 L627.68 680.74"/>
      <path d="M635.65 658.8 L643.74 664.68"/>
      <path d="M644.55 641.35 L654.06 644.44"/>
      <path d="M647.61 622.0 L657.61 622.0"/>
      <path d="M644.55 602.65 L654.06 599.56"/>
      <path d="M635.65 585.2 L643.74 579.32"/>
      <path d="M621.8 571.35 L627.68 563.26"/>
      <path d="M604.35 562.45 L607.44 552.94"/>
      <path d="M585.0 559.39 L585.0 549.39"/>
      <path d="M565.65 562.45 L562.56 552.94"/>
      <path d="M548.2 571.35 L542.32 563.26"/>
      <path d="M534.35 585.2 L526.26 579.32"/>
      <path d="M525.45 602.65 L515.94 599.56"/>
      <path d="M522.39 622.0 L512.39 622.0"/>
      <path d="M525.45 641.35 L515.94 644.44"/>
      <path d="M534.35 658.8 L526.26 664.68"/>
      <path d="M548.2 672.65 L542.32 680.74"/>
      <path d="M565.65 681.55 L562.56 691.06"/>
      <path d="M 585.0 622.0L568.0 290.0"/>
      <circle cx="568.0" cy="290.0" r="50.09"/>
      <circle cx="568.0" cy="290.0" r="60.09"/>
    </g>
  </g>
</svg>
