<svg version="1.1" width="1150" height="870" xmlns="http://www.w3.org/2000/svg">
  <!-- Seed: 3849663458625158165 -->
  <g stroke="black" fill="none">
    <g stroke="blue">
      <circle cx="176.0" cy="357.0" r="5"/>
      <circle cx="170.27050983124843" cy="374.6335575687742" r="5"/>
      <circle cx="155.27050983124843" cy="385.5316954888546" r="5"/>
      <circle cx="136.72949016875157" cy="385.5316954888546" r="5"/>
      <circle cx="121.72949016875158" cy="374.6335575687742" r="5"/>
      <circle cx="116.0" cy="357.0" r="5"/>
      <circle cx="121.72949016875157" cy="339.36644243122583" r="5"/>
      <circle cx="136.72949016875157" cy="328.4683045111454" r="5"/>
      <circle cx="155.2705098312484" cy="328.4683045111454" r="5"/>
      <circle cx="170.27050983124843" cy="339.3664424312258" r="5"/>
      <path d="M1038.0 395.0 L1038.0 405.0"/>
      <path d="M1055.63 389.27 L1061.51 397.36"/>
      <path d="M1066.53 374.27 L1076.04 377.36"/>
      <path d="M1066.53 355.73 L1076.04 352.64"/>
      <path d="M1055.63 340.73 L1061.51 332.64"/>
      <path d="M1038.0 335.0 L1038.0 325.0"/>
      <path d="M1020.37 340.73 L1014.49 332.64"/>
      <path d="M1009.47 355.73 L999.96 352.64"/>
      <path d="M1009.47 374.27 L999.96 377.36"/>
      <path d="M1020.37 389.27 L1014.49 397.36"/>
      <circle cx="312.0" cy="441.0" r="70.0"/>
      <path d="M312.0 521.0 L312.0 531.0"/>
      <path d="M336.72 517.08 L339.81 526.59"/>
      <path d="M359.02 505.72 L364.9 513.81"/>
      <path d="M376.72 488.02 L384.81 493.9"/>
      <path d="M388.08 465.72 L397.59 468.81"/>
      <path d="M392.0 441.0 L402.0 441.0"/>
      <path d="M388.08 416.28 L397.59 413.19"/>
      <path d="M376.72 393.98 L384.81 388.1"/>
      <path d="M359.02 376.28 L364.9 368.19"/>
      <path d="M336.72 364.92 L339.81 355.41"/>
      <path d="M312.0 361.0 L312.0 351.0"/>
      <path d="M287.28 364.92 L284.19 355.41"/>
      <path d="M264.98 376.28 L259.1 368.19"/>
      <path d="M247.28 393.98 L239.19 388.1"/>
      <path d="M235.92 416.28 L226.41 413.19"/>
      <path d="M232.0 441.0 L222.0 441.0"/>
      <path d="M235.92 465.72 L226.41 468.81"/>
      <path d="M247.28 488.02 L239.19 493.9"/>
      <path d="M264.98 505.72 L259.1 513.81"/>
      <path d="M287.28 517.08 L284.19 526.59"/>
      <path d="M 312.0 441.0L899.0 522.0"/>
      <circle cx="899.0" cy="522.0" r="37.15"/>
      <path d="M899.0 569.15 L899.0 579.15"/>
      <path d="M913.57 566.84 L916.66 576.35"/>
      <path d="M926.71 560.15 L932.59 568.24"/>
      <path d="M937.15 549.71 L945.24 555.59"/>
      <path d="M943.84 536.57 L953.35 539.66"/>
      <path d="M946.15 522.0 L956.15 522.0"/>
      <path d="M943.84 507.43 L953.35 504.34"/>
      <path d="M937.15 494.29 L945.24 488.41"/>
      <path d="M926.71 483.85 L932.59 475.76"/>
      <path d="M913.57 477.16 L916.66 467.65"/>
      <path d="M899.0 474.85 L899.0 464.85"/>
      <path d="M884.43 477.16 L881.34 467.65"/>
      <path d="M871.29 483.85 L865.41 475.76"/>
      <path d="M860.85 494.29 L852.76 488.41"/>
      <path d="M854.16 507.43 L844.65 504.34"/>
      <path d="M851.85 522.0 L841.85 522.0"/>
      <path d="M854.16 536.57 L844.65 539.66"/>
      <path d="M860.85 549.71 L852.76 555.59"/>
      <path d="M871.29 560.15 L865.41 568.24"/>
      <path d="M884.43 566.84 L881.34 576.35"/>
      <circle cx="815.0" cy="306.0" r="65.56"/>
      <path d="M815.0 381.56 L815.0 391.56"/>
      <path d="M838.35 377.86 L841.44 387.37"/>
      <path d="M859.41 367.13 L865.29 375.22"/>
      <path d="M876.13 350.41 L884.22 356.29"/>
      <path d="M886.86 329.35 L896.37 332.44"/>
      <path d="M890.56 306.0 L900.56 306.0"/>
      <path d="M886.86 282.65 L896.37 279.56"/>
      <path d="M876.13 261.59 L884.22 255.71"/>
      <path d="M859.41 244.87 L865.29 236.78"/>
      <path d="M838.35 234.14 L841.44 224.63"/>
      <path d="M815.0 230.44 L815.0 220.44"/>
      <path d="M791.65 234.14 L788.56 224.63"/>
      <path d="M770.59 244.87 L764.71 236.78"/>
      <path d="M753.87 261.59 L745.78 255.71"/>
      <path d="M743.14 282.65 L733.63 279.56"/>
      <path d="M739.44 306.0 L729.44 306.0"/>
      <path d="M743.14 329.35 L733.63 332.44"/>
      <path d="M753.87 350.41 L745.78 356.29"/>
      <path d="M770.59 367.13 L764.71 375.22"/>
      <path d="M791.65 377.86 L788.56 387.37"/>
      <g transform="translate(417.0,441.0) scale(0.5,0.5)">
        <path d="M0 0h25.0m-12.5 0v-50l-12.5 12.5"/>
        <path d="M35.0 -50v25.0h25.0m0 25.0v-50"/>
        <path d="M70.0 0h12.5q12.5 0 12.5 -12.5v-25.0q0 -12.5 -12.5 -12.5q-12.5 0 -12.5 12.5q0 12.5 12.5 12.5h12.5"/>
        <path d="M105.0 -50h25.0l-25.0 50"/>
        <path d="M140.0 -50h25.0l-25.0 50"/>
      </g>
    </g>
  </g>
</svg>
