<svg version="1.1" width="1150" height="870" xmlns="http://www.w3.org/2000/svg">
  <!-- Seed: 6982368708215057029 -->
  <!-- Size: SvgSize.Size9x12 -->
  <!-- Params:
    draw_worm: False
    draw_highlight: True
    step_dist: 5
    circle: True
    peaks: [RangeInt] min: 3 max: 7
    shuffle_large_max_x: 80
    shuffle_large_max_y: 100
    shuffle_small_max_x: 30
    shuffle_small_max_y: 30
    rough_subdivisions: [RangeInt] min: 1 max: 10
    padding: 100
    size_end: 1
    size_range: [RangeInt] min: 5 max: 60
    highlight_end_circle_radius: 30
    highlight_end_points: 10
    highlight_end_point_radius: 5
    highlight_sunburst_ray_len: 10
    highlights: [RangeInt] min: 3 max: 5
    highlight_padding: 20
    consumed_check_radius: 50
    highlight_spacing: 10
    highlight_text_weight: [(0, 1), (1, 3)]
    highlight_text_num_range: [RangeInt] min: 200 max: 50000
    connect_highlight_weight: [(0, 1), (1, 3)]
  -->
  <g stroke="black" fill="none">
    <g stroke="blue">
      <circle cx="215.0" cy="440.0" r="5"/>
      <circle cx="209.27" cy="457.63" r="5"/>
      <circle cx="194.27" cy="468.53" r="5"/>
      <circle cx="175.73" cy="468.53" r="5"/>
      <circle cx="160.73" cy="457.63" r="5"/>
      <circle cx="155.0" cy="440.0" r="5"/>
      <circle cx="160.73" cy="422.37" r="5"/>
      <circle cx="175.73" cy="411.47" r="5"/>
      <circle cx="194.27" cy="411.47" r="5"/>
      <circle cx="209.27" cy="422.37" r="5"/>
      <path d="M1089.0 380.0 L1089.0 390.0"/>
      <path d="M1106.63 374.27 L1112.51 382.36"/>
      <path d="M1117.53 359.27 L1127.04 362.36"/>
      <path d="M1117.53 340.73 L1127.04 337.64"/>
      <path d="M1106.63 325.73 L1112.51 317.64"/>
      <path d="M1089.0 320.0 L1089.0 310.0"/>
      <path d="M1071.37 325.73 L1065.49 317.64"/>
      <path d="M1060.47 340.73 L1050.96 337.64"/>
      <path d="M1060.47 359.27 L1050.96 362.36"/>
      <path d="M1071.37 374.27 L1065.49 382.36"/>
      <circle cx="640.0" cy="677.0" r="56.74"/>
      <circle cx="642.0" cy="482.0" r="53.02"/>
      <circle cx="424.0" cy="329.0" r="26.3"/>
      <path d="M424.0 365.3 L424.0 375.3"/>
      <path d="M435.22 363.52 L438.31 373.03"/>
      <path d="M445.34 358.37 L451.22 366.46"/>
      <path d="M453.37 350.34 L461.46 356.22"/>
      <path d="M458.52 340.22 L468.03 343.31"/>
      <path d="M460.3 329.0 L470.3 329.0"/>
      <path d="M458.52 317.78 L468.03 314.69"/>
      <path d="M453.37 307.66 L461.46 301.78"/>
      <path d="M445.34 299.63 L451.22 291.54"/>
      <path d="M435.22 294.48 L438.31 284.97"/>
      <path d="M424.0 292.7 L424.0 282.7"/>
      <path d="M412.78 294.48 L409.69 284.97"/>
      <path d="M402.66 299.63 L396.78 291.54"/>
      <path d="M394.63 307.66 L386.54 301.78"/>
      <path d="M389.48 317.78 L379.97 314.69"/>
      <path d="M387.7 329.0 L377.7 329.0"/>
      <path d="M389.48 340.22 L379.97 343.31"/>
      <path d="M394.63 350.34 L386.54 356.22"/>
      <path d="M402.66 358.37 L396.78 366.46"/>
      <path d="M412.78 363.52 L409.69 373.03"/>
    </g>
  </g>
</svg>
