<svg version="1.1" width="1630" height="1060" xmlns="http://www.w3.org/2000/svg">
  <!-- Seed: 1624883201496291275 -->
  <!-- Size: SvgSize.Size11x17 -->
  <!-- Params:
    draw_worm: False
    draw_highlight: True
    step_dist: 5
    circle: True
    peaks: [RangeInt] min: 3 max: 7
    shuffle_large_max_x: 80
    shuffle_large_max_y: 100
    shuffle_small_max_x: 30
    shuffle_small_max_y: 30
    rough_subdivisions: [RangeInt] min: 1 max: 10
    padding: 100
    size_end: 1
    size_range: [RangeInt] min: 5 max: 60
    highlight_end_circle_radius: 30
    highlight_end_points: 10
    highlight_end_point_radius: 5
    highlight_sunburst_ray_len: 10
    highlights: [RangeInt] min: 3 max: 5
    highlight_padding: 20
    consumed_check_radius: 50
    highlight_spacing: 10
    highlight_text_weight: [(0, 1), (1, 3)]
    highlight_text_num_range: [RangeInt] min: 200 max: 50000
    connect_highlight_weight: [(0, 1), (1, 3)]
  -->
  <g stroke="black" fill="none">
    <g stroke="blue">
      <circle cx="207.0" cy="606.0" r="5"/>
      <circle cx="201.27" cy="623.63" r="5"/>
      <circle cx="186.27" cy="634.53" r="5"/>
      <circle cx="167.73" cy="634.53" r="5"/>
      <circle cx="152.73" cy="623.63" r="5"/>
      <circle cx="147.0" cy="606.0" r="5"/>
      <circle cx="152.73" cy="588.37" r="5"/>
      <circle cx="167.73" cy="577.47" r="5"/>
      <circle cx="186.27" cy="577.47" r="5"/>
      <circle cx="201.27" cy="588.37" r="5"/>
      <path d="M1422.0 539.0 L1422.0 549.0"/>
      <path d="M1439.63 533.27 L1445.51 541.36"/>
      <path d="M1450.53 518.27 L1460.04 521.36"/>
      <path d="M1450.53 499.73 L1460.04 496.64"/>
      <path d="M1439.63 484.73 L1445.51 476.64"/>
      <path d="M1422.0 479.0 L1422.0 469.0"/>
      <path d="M1404.37 484.73 L1398.49 476.64"/>
      <path d="M1393.47 499.73 L1383.96 496.64"/>
      <path d="M1393.47 518.27 L1383.96 521.36"/>
      <path d="M1404.37 533.27 L1398.49 541.36"/>
      <circle cx="1251.0" cy="806.0" r="59.79"/>
      <circle cx="1251.0" cy="806.0" r="69.79"/>
      <circle cx="844.0" cy="940.0" r="41.46"/>
      <path d="M844.0 991.46 L844.0 1001.46"/>
      <path d="M859.9 988.94 L862.99 998.45"/>
      <path d="M874.25 981.63 L880.13 989.72"/>
      <path d="M885.63 970.25 L893.72 976.13"/>
      <path d="M892.94 955.9 L902.45 958.99"/>
      <path d="M895.46 940.0 L905.46 940.0"/>
      <path d="M892.94 924.1 L902.45 921.01"/>
      <path d="M885.63 909.75 L893.72 903.87"/>
      <path d="M874.25 898.37 L880.13 890.28"/>
      <path d="M859.9 891.06 L862.99 881.55"/>
      <path d="M844.0 888.54 L844.0 878.54"/>
      <path d="M828.1 891.06 L825.01 881.55"/>
      <path d="M813.75 898.37 L807.87 890.28"/>
      <path d="M802.37 909.75 L794.28 903.87"/>
      <path d="M795.06 924.1 L785.55 921.01"/>
      <path d="M792.54 940.0 L782.54 940.0"/>
      <path d="M795.06 955.9 L785.55 958.99"/>
      <path d="M802.37 970.25 L794.28 976.13"/>
      <path d="M813.75 981.63 L807.87 989.72"/>
      <path d="M828.1 988.94 L825.01 998.45"/>
      <circle cx="798.0" cy="401.0" r="72.98"/>
      <path d="M798.0 483.98 L798.0 493.98"/>
      <path d="M823.64 479.92 L826.73 489.43"/>
      <path d="M846.77 468.13 L852.65 476.22"/>
      <path d="M865.13 449.77 L873.22 455.65"/>
      <path d="M876.92 426.64 L886.43 429.73"/>
      <path d="M880.98 401.0 L890.98 401.0"/>
      <path d="M876.92 375.36 L886.43 372.27"/>
      <path d="M865.13 352.23 L873.22 346.35"/>
      <path d="M846.77 333.87 L852.65 325.78"/>
      <path d="M823.64 322.08 L826.73 312.57"/>
      <path d="M798.0 318.02 L798.0 308.02"/>
      <path d="M772.36 322.08 L769.27 312.57"/>
      <path d="M749.23 333.87 L743.35 325.78"/>
      <path d="M730.87 352.23 L722.78 346.35"/>
      <path d="M719.08 375.36 L709.57 372.27"/>
      <path d="M715.02 401.0 L705.02 401.0"/>
      <path d="M719.08 426.64 L709.57 429.73"/>
      <path d="M730.87 449.77 L722.78 455.65"/>
      <path d="M749.23 468.13 L743.35 476.22"/>
      <path d="M772.36 479.92 L769.27 489.43"/>
      <circle cx="387.0" cy="267.0" r="66.97"/>
      <path d="M387.0 343.97 L387.0 353.97"/>
      <path d="M410.79 340.2 L413.88 349.71"/>
      <path d="M432.24 329.27 L438.12 337.36"/>
      <path d="M449.27 312.24 L457.36 318.12"/>
      <path d="M460.2 290.79 L469.71 293.88"/>
      <path d="M463.97 267.0 L473.97 267.0"/>
      <path d="M460.2 243.21 L469.71 240.12"/>
      <path d="M449.27 221.76 L457.36 215.88"/>
      <path d="M432.24 204.73 L438.12 196.64"/>
      <path d="M410.79 193.8 L413.88 184.29"/>
      <path d="M387.0 190.03 L387.0 180.03"/>
      <path d="M363.21 193.8 L360.12 184.29"/>
      <path d="M341.76 204.73 L335.88 196.64"/>
      <path d="M324.73 221.76 L316.64 215.88"/>
      <path d="M313.8 243.21 L304.29 240.12"/>
      <path d="M310.03 267.0 L300.03 267.0"/>
      <path d="M313.8 290.79 L304.29 293.88"/>
      <path d="M324.73 312.24 L316.64 318.12"/>
      <path d="M341.76 329.27 L335.88 337.36"/>
      <path d="M363.21 340.2 L360.12 349.71"/>
      <path d="M 387.0 267.0L763.0 191.0"/>
      <circle cx="763.0" cy="191.0" r="49.5"/>
      <path d="M763.0 250.5 L763.0 260.5"/>
      <path d="M781.39 247.59 L784.48 257.1"/>
      <path d="M797.97 239.14 L803.85 247.23"/>
      <path d="M811.14 225.97 L819.23 231.85"/>
      <path d="M819.59 209.39 L829.1 212.48"/>
      <path d="M822.5 191.0 L832.5 191.0"/>
      <path d="M819.59 172.61 L829.1 169.52"/>
      <path d="M811.14 156.03 L819.23 150.15"/>
      <path d="M797.97 142.86 L803.85 134.77"/>
      <path d="M781.39 134.41 L784.48 124.9"/>
      <path d="M763.0 131.5 L763.0 121.5"/>
      <path d="M744.61 134.41 L741.52 124.9"/>
      <path d="M728.03 142.86 L722.15 134.77"/>
      <path d="M714.86 156.03 L706.77 150.15"/>
      <path d="M706.41 172.61 L696.9 169.52"/>
      <path d="M703.5 191.0 L693.5 191.0"/>
      <path d="M706.41 209.39 L696.9 212.48"/>
      <path d="M714.86 225.97 L706.77 231.85"/>
      <path d="M728.03 239.14 L722.15 247.23"/>
      <path d="M744.61 247.59 L741.52 257.1"/>
      <g transform="translate(1340.685,806.0) scale(0.5,0.5)">
        <path d="M0 0h12.5q12.5 0 12.5 -12.5v-25.0q0 -12.5 -12.5 -12.5q-12.5 0 -12.5 12.5q0 12.5 12.5 12.5h12.5"/>
        <path d="M35.0 0h12.5q12.5 0 12.5 -12.5v-25.0q0 -12.5 -12.5 -12.5q-12.5 0 -12.5 12.5q0 12.5 12.5 12.5h12.5"/>
        <path d="M82.5 -50q12.5 0 12.5 12.5q0 12.5 -12.5 12.5q-12.5 0 -12.5 12.5q0 12.5 12.5 12.5q12.5 0 12.5 -12.5q0 -12.5 -12.5 -12.5q-12.5 0 -12.5 -12.5q0 -12.5 12.5 -12.5"/>
        <path d="M105.0 -50v25.0h25.0m0 25.0v-50"/>
      </g>
      <g transform="translate(907.47,401.0) scale(0.5,0.5)">
        <path d="M0 0h25.0m-12.5 0v-50l-12.5 12.5"/>
        <path d="M60.0 0h-25.0v-12.5q0 -12.5 12.5 -12.5q12.5 0 12.5 -12.5q0 -12.5 -12.5 -12.5q-12.5 0 -12.5 12.5"/>
        <path d="M95.0 0h-25.0v-12.5q0 -12.5 12.5 -12.5q12.5 0 12.5 -12.5q0 -12.5 -12.5 -12.5q-12.5 0 -12.5 12.5"/>
        <path d="M117.5 0q-12.5 0 -12.5 -12.5v-25.0q0 -12.5 12.5 -12.5q12.5 0 12.5 12.5v25.0q0 12.5 -12.5 12.5m-12.5 -12.5l25.0 -25.0"/>
        <path d="M165.0 0h-25.0v-12.5q0 -12.5 12.5 -12.5q12.5 0 12.5 -12.5q0 -12.5 -12.5 -12.5q-12.5 0 -12.5 12.5"/>
      </g>
      <g transform="translate(487.455,267.0) scale(0.5,0.5)">
        <path d="M0 0h12.5q12.5 0 12.5 -12.5q0 -12.5 -12.5 -12.5h-6.25m6.25 0q12.5 0 12.5 -12.5q0 -12.5 -12.5 -12.5h-12.5"/>
        <path d="M60.0 -50h-12.5q-12.5 0 -12.5 12.5v25.0q0 12.5 12.5 12.5q12.5 0 12.5 -12.5q0 -12.5 -12.5 -12.5h-12.5"/>
        <path d="M70.0 0h12.5q12.5 0 12.5 -12.5v-25.0q0 -12.5 -12.5 -12.5q-12.5 0 -12.5 12.5q0 12.5 12.5 12.5h12.5"/>
        <path d="M130.0 -50h-25.0v25.0h12.5q12.5 0 12.5 12.5q0 12.5 -12.5 12.5h-12.5"/>
        <path d="M165.0 -50h-12.5q-12.5 0 -12.5 12.5v25.0q0 12.5 12.5 12.5q12.5 0 12.5 -12.5q0 -12.5 -12.5 -12.5h-12.5"/>
      </g>
    </g>
  </g>
</svg>
