<svg version="1.1" width="1150" height="870" xmlns="http://www.w3.org/2000/svg">
  <!-- Seed: 3827536220875093276 -->
  <g stroke="black" fill="none">
    <g stroke="blue">
      <circle cx="110.0" cy="387.0" r="5"/>
      <circle cx="104.27050983124843" cy="404.6335575687742" r="5"/>
      <circle cx="89.27050983124842" cy="415.5316954888546" r="5"/>
      <circle cx="70.72949016875158" cy="415.5316954888546" r="5"/>
      <circle cx="55.72949016875158" cy="404.6335575687742" r="5"/>
      <circle cx="50.0" cy="387.0" r="5"/>
      <circle cx="55.729490168751575" cy="369.36644243122583" r="5"/>
      <circle cx="70.72949016875157" cy="358.4683045111454" r="5"/>
      <circle cx="89.27050983124842" cy="358.4683045111454" r="5"/>
      <circle cx="104.27050983124842" cy="369.3664424312258" r="5"/>
      <path d="M980.0 394.0 L980.0 404.0"/>
      <path d="M997.63 388.27 L1003.51 396.36"/>
      <path d="M1008.53 373.27 L1018.04 376.36"/>
      <path d="M1008.53 354.73 L1018.04 351.64"/>
      <path d="M997.63 339.73 L1003.51 331.64"/>
      <path d="M980.0 334.0 L980.0 324.0"/>
      <path d="M962.37 339.73 L956.49 331.64"/>
      <path d="M951.47 354.73 L941.96 351.64"/>
      <path d="M951.47 373.27 L941.96 376.36"/>
      <path d="M962.37 388.27 L956.49 396.36"/>
      <circle cx="410.0" cy="666.0" r="62.1"/>
      <path d="M410.0 738.1 L410.0 748.1"/>
      <path d="M432.28 734.57 L435.37 744.08"/>
      <path d="M452.38 724.33 L458.26 732.42"/>
      <path d="M468.33 708.38 L476.42 714.26"/>
      <path d="M478.57 688.28 L488.08 691.37"/>
      <path d="M482.1 666.0 L492.1 666.0"/>
      <path d="M478.57 643.72 L488.08 640.63"/>
      <path d="M468.33 623.62 L476.42 617.74"/>
      <path d="M452.38 607.67 L458.26 599.58"/>
      <path d="M432.28 597.43 L435.37 587.92"/>
      <path d="M410.0 593.9 L410.0 583.9"/>
      <path d="M387.72 597.43 L384.63 587.92"/>
      <path d="M367.62 607.67 L361.74 599.58"/>
      <path d="M351.67 623.62 L343.58 617.74"/>
      <path d="M341.43 643.72 L331.92 640.63"/>
      <path d="M337.9 666.0 L327.9 666.0"/>
      <path d="M341.43 688.28 L331.92 691.37"/>
      <path d="M351.67 708.38 L343.58 714.26"/>
      <path d="M367.62 724.33 L361.74 732.42"/>
      <path d="M387.72 734.57 L384.63 744.08"/>
      <circle cx="875.0" cy="724.0" r="61.15"/>
      <circle cx="875.0" cy="724.0" r="71.15"/>
      <circle cx="810.0" cy="395.0" r="37.489999999999995"/>
      <circle cx="810.0" cy="395.0" r="47.489999999999995"/>
      <circle cx="776.0" cy="529.0" r="49.96"/>
      <g transform="translate(866.235,395.0) scale(0.5,0.5)">
        <path d="M25.0 0h-25.0v-12.5q0 -12.5 12.5 -12.5q12.5 0 12.5 -12.5q0 -12.5 -12.5 -12.5q-12.5 0 -12.5 12.5"/>
        <path d="M60.0 0h-25.0v-12.5q0 -12.5 12.5 -12.5q12.5 0 12.5 -12.5q0 -12.5 -12.5 -12.5q-12.5 0 -12.5 12.5"/>
        <path d="M70.0 0h25.0m-12.5 0v-50l-12.5 12.5"/>
        <path d="M105.0 0h12.5q12.5 0 12.5 -12.5v-25.0q0 -12.5 -12.5 -12.5q-12.5 0 -12.5 12.5q0 12.5 12.5 12.5h12.5"/>
        <path d="M140.0 0h25.0m-12.5 0v-50l-12.5 12.5"/>
      </g>
    </g>
  </g>
</svg>
