<svg version="1.1" width="1150" height="870" xmlns="http://www.w3.org/2000/svg">
  <!-- Seed: 1246427788291650641 -->
  <!-- Size: SvgSize.Size9x12 -->
  <!-- Params:
    draw_worm: False
    draw_highlight: True
    step_dist: 5
    circle: True
    peaks: [RangeInt] min: 3 max: 7
    shuffle_large_max_x: 80
    shuffle_large_max_y: 100
    shuffle_small_max_x: 30
    shuffle_small_max_y: 30
    rough_subdivisions: [RangeInt] min: 1 max: 10
    padding: 100
    size_end: 1
    size_range: [RangeInt] min: 5 max: 60
    highlight_end_circle_radius: 30
    highlight_end_points: 10
    highlight_end_point_radius: 5
    highlight_sunburst_ray_len: 10
    highlights: [RangeInt] min: 3 max: 5
    highlight_padding: 20
    consumed_check_radius: 50
    highlight_spacing: 10
    highlight_text_weight: [(0, 1), (1, 3)]
    highlight_text_num_range: [RangeInt] min: 200 max: 50000
    connect_highlight_weight: [(0, 1), (1, 3)]
  -->
  <g stroke="black" fill="none">
    <g stroke="blue">
      <circle cx="166.0" cy="419.0" r="5"/>
      <circle cx="160.27050983124843" cy="436.6335575687742" r="5"/>
      <circle cx="145.27050983124843" cy="447.5316954888546" r="5"/>
      <circle cx="126.72949016875158" cy="447.5316954888546" r="5"/>
      <circle cx="111.72949016875158" cy="436.6335575687742" r="5"/>
      <circle cx="106.0" cy="419.0" r="5"/>
      <circle cx="111.72949016875157" cy="401.36644243122583" r="5"/>
      <circle cx="126.72949016875157" cy="390.4683045111454" r="5"/>
      <circle cx="145.2705098312484" cy="390.4683045111454" r="5"/>
      <circle cx="160.27050983124843" cy="401.3664424312258" r="5"/>
      <path d="M928.0 521.0 L928.0 531.0"/>
      <path d="M945.63 515.27 L951.51 523.36"/>
      <path d="M956.53 500.27 L966.04 503.36"/>
      <path d="M956.53 481.73 L966.04 478.64"/>
      <path d="M945.63 466.73 L951.51 458.64"/>
      <path d="M928.0 461.0 L928.0 451.0"/>
      <path d="M910.37 466.73 L904.49 458.64"/>
      <path d="M899.47 481.73 L889.96 478.64"/>
      <path d="M899.47 500.27 L889.96 503.36"/>
      <path d="M910.37 515.27 L904.49 523.36"/>
      <circle cx="824.0" cy="673.0" r="60.62"/>
      <path d="M824.0 743.62 L824.0 753.62"/>
      <path d="M845.82 740.16 L848.91 749.67"/>
      <path d="M865.51 730.13 L871.39 738.22"/>
      <path d="M881.13 714.51 L889.22 720.39"/>
      <path d="M891.16 694.82 L900.67 697.91"/>
      <path d="M894.62 673.0 L904.62 673.0"/>
      <path d="M891.16 651.18 L900.67 648.09"/>
      <path d="M881.13 631.49 L889.22 625.61"/>
      <path d="M865.51 615.87 L871.39 607.78"/>
      <path d="M845.82 605.84 L848.91 596.33"/>
      <path d="M824.0 602.38 L824.0 592.38"/>
      <path d="M802.18 605.84 L799.09 596.33"/>
      <path d="M782.49 615.87 L776.61 607.78"/>
      <path d="M766.87 631.49 L758.78 625.61"/>
      <path d="M756.84 651.18 L747.33 648.09"/>
      <path d="M753.38 673.0 L743.38 673.0"/>
      <path d="M756.84 694.82 L747.33 697.91"/>
      <path d="M766.87 714.51 L758.78 720.39"/>
      <path d="M782.49 730.13 L776.61 738.22"/>
      <path d="M802.18 740.16 L799.09 749.67"/>
      <circle cx="394.0" cy="190.0" r="56.37"/>
      <path d="M394.0 256.37 L394.0 266.37"/>
      <path d="M414.51 253.12 L417.6 262.63"/>
      <path d="M433.01 243.69 L438.89 251.78"/>
      <path d="M447.69 229.01 L455.78 234.89"/>
      <path d="M457.12 210.51 L466.63 213.6"/>
      <path d="M460.37 190.0 L470.37 190.0"/>
      <path d="M457.12 169.49 L466.63 166.4"/>
      <path d="M447.69 150.99 L455.78 145.11"/>
      <path d="M433.01 136.31 L438.89 128.22"/>
      <path d="M414.51 126.88 L417.6 117.37"/>
      <path d="M394.0 123.63 L394.0 113.63"/>
      <path d="M373.49 126.88 L370.4 117.37"/>
      <path d="M354.99 136.31 L349.11 128.22"/>
      <path d="M340.31 150.99 L332.22 145.11"/>
      <path d="M330.88 169.49 L321.37 166.4"/>
      <path d="M327.63 190.0 L317.63 190.0"/>
      <path d="M330.88 210.51 L321.37 213.6"/>
      <path d="M340.31 229.01 L332.22 234.89"/>
      <path d="M354.99 243.69 L349.11 251.78"/>
      <path d="M373.49 253.12 L370.4 262.63"/>
      <circle cx="503.0" cy="519.0" r="44.769999999999996"/>
      <circle cx="503.0" cy="519.0" r="54.769999999999996"/>
      <circle cx="273.0" cy="520.0" r="65.87"/>
      <path d="M273.0 595.87 L273.0 605.87"/>
      <path d="M296.45 592.16 L299.54 601.67"/>
      <path d="M317.6 581.38 L323.48 589.47"/>
      <path d="M334.38 564.6 L342.47 570.48"/>
      <path d="M345.16 543.45 L354.67 546.54"/>
      <path d="M348.87 520.0 L358.87 520.0"/>
      <path d="M345.16 496.55 L354.67 493.46"/>
      <path d="M334.38 475.4 L342.47 469.52"/>
      <path d="M317.6 458.62 L323.48 450.53"/>
      <path d="M296.45 447.84 L299.54 438.33"/>
      <path d="M273.0 444.13 L273.0 434.13"/>
      <path d="M249.55 447.84 L246.46 438.33"/>
      <path d="M228.4 458.62 L222.52 450.53"/>
      <path d="M211.62 475.4 L203.53 469.52"/>
      <path d="M200.84 496.55 L191.33 493.46"/>
      <path d="M197.13 520.0 L187.13 520.0"/>
      <path d="M200.84 543.45 L191.33 546.54"/>
      <path d="M211.62 564.6 L203.53 570.48"/>
      <path d="M228.4 581.38 L222.52 589.47"/>
      <path d="M249.55 592.16 L246.46 601.67"/>
      <circle cx="660.0" cy="219.0" r="64.81"/>
      <g transform="translate(914.93,673.0) scale(0.5,0.5)">
        <path d="M0 0h25.0m-12.5 0v-50l-12.5 12.5"/>
        <path d="M47.5 -50q12.5 0 12.5 12.5q0 12.5 -12.5 12.5q-12.5 0 -12.5 12.5q0 12.5 12.5 12.5q12.5 0 12.5 -12.5q0 -12.5 -12.5 -12.5q-12.5 0 -12.5 -12.5q0 -12.5 12.5 -12.5"/>
        <path d="M70.0 0h25.0m-12.5 0v-50l-12.5 12.5"/>
        <path d="M130.0 -50h-12.5q-12.5 0 -12.5 12.5v25.0q0 12.5 12.5 12.5q12.5 0 12.5 -12.5q0 -12.5 -12.5 -12.5h-12.5"/>
        <path d="M165.0 -50h-25.0v25.0h12.5q12.5 0 12.5 12.5q0 12.5 -12.5 12.5h-12.5"/>
      </g>
      <g transform="translate(757.215,219.0) scale(0.5,0.5)">
        <path d="M25.0 0h-25.0v-12.5q0 -12.5 12.5 -12.5q12.5 0 12.5 -12.5q0 -12.5 -12.5 -12.5q-12.5 0 -12.5 12.5"/>
        <path d="M35.0 -50h25.0l-25.0 50"/>
        <path d="M95.0 -50h-25.0v25.0h12.5q12.5 0 12.5 12.5q0 12.5 -12.5 12.5h-12.5"/>
        <path d="M105.0 -50h25.0l-25.0 50"/>
      </g>
    </g>
  </g>
</svg>
