<svg version="1.1" width="1150" height="870" xmlns="http://www.w3.org/2000/svg">
  <!-- Seed: 2635912871271133362 -->
  <g stroke="black" fill="none">
    <g stroke="blue">
      <circle cx="194.0" cy="345.0" r="5"/>
      <circle cx="188.27050983124843" cy="362.6335575687742" r="5"/>
      <circle cx="173.27050983124843" cy="373.5316954888546" r="5"/>
      <circle cx="154.72949016875157" cy="373.5316954888546" r="5"/>
      <circle cx="139.72949016875157" cy="362.6335575687742" r="5"/>
      <circle cx="134.0" cy="345.0" r="5"/>
      <circle cx="139.72949016875157" cy="327.36644243122583" r="5"/>
      <circle cx="154.72949016875157" cy="316.4683045111454" r="5"/>
      <circle cx="173.2705098312484" cy="316.4683045111454" r="5"/>
      <circle cx="188.27050983124843" cy="327.3664424312258" r="5"/>
      <path d="M1002.0 408.0 L1002.0 418.0"/>
      <path d="M1019.63 402.27 L1025.51 410.36"/>
      <path d="M1030.53 387.27 L1040.04 390.36"/>
      <path d="M1030.53 368.73 L1040.04 365.64"/>
      <path d="M1019.63 353.73 L1025.51 345.64"/>
      <path d="M1002.0 348.0 L1002.0 338.0"/>
      <path d="M984.37 353.73 L978.49 345.64"/>
      <path d="M973.47 368.73 L963.96 365.64"/>
      <path d="M973.47 387.27 L963.96 390.36"/>
      <path d="M984.37 402.27 L978.49 410.36"/>
      <circle cx="929.0" cy="550.0" r="49.81"/>
      <path d="M929.0 609.81 L929.0 619.81"/>
      <path d="M947.48 606.88 L950.57 616.39"/>
      <path d="M964.16 598.39 L970.04 606.48"/>
      <path d="M977.39 585.16 L985.48 591.04"/>
      <path d="M985.88 568.48 L995.39 571.57"/>
      <path d="M988.81 550.0 L998.81 550.0"/>
      <path d="M985.88 531.52 L995.39 528.43"/>
      <path d="M977.39 514.84 L985.48 508.96"/>
      <path d="M964.16 501.61 L970.04 493.52"/>
      <path d="M947.48 493.12 L950.57 483.61"/>
      <path d="M929.0 490.19 L929.0 480.19"/>
      <path d="M910.52 493.12 L907.43 483.61"/>
      <path d="M893.84 501.61 L887.96 493.52"/>
      <path d="M880.61 514.84 L872.52 508.96"/>
      <path d="M872.12 531.52 L862.61 528.43"/>
      <path d="M869.19 550.0 L859.19 550.0"/>
      <path d="M872.12 568.48 L862.61 571.57"/>
      <path d="M880.61 585.16 L872.52 591.04"/>
      <path d="M893.84 598.39 L887.96 606.48"/>
      <path d="M910.52 606.88 L907.43 616.39"/>
      <circle cx="455.0" cy="486.0" r="51.57"/>
      <path d="M455.0 547.57 L455.0 557.57"/>
      <path d="M474.03 544.56 L477.12 554.07"/>
      <path d="M491.19 535.81 L497.07 543.9"/>
      <path d="M504.81 522.19 L512.9 528.07"/>
      <path d="M513.56 505.03 L523.07 508.12"/>
      <path d="M516.57 486.0 L526.57 486.0"/>
      <path d="M513.56 466.97 L523.07 463.88"/>
      <path d="M504.81 449.81 L512.9 443.93"/>
      <path d="M491.19 436.19 L497.07 428.1"/>
      <path d="M474.03 427.44 L477.12 417.93"/>
      <path d="M455.0 424.43 L455.0 414.43"/>
      <path d="M435.97 427.44 L432.88 417.93"/>
      <path d="M418.81 436.19 L412.93 428.1"/>
      <path d="M405.19 449.81 L397.1 443.93"/>
      <path d="M396.44 466.97 L386.93 463.88"/>
      <path d="M393.43 486.0 L383.43 486.0"/>
      <path d="M396.44 505.03 L386.93 508.12"/>
      <path d="M405.19 522.19 L397.1 528.07"/>
      <path d="M418.81 535.81 L412.93 543.9"/>
      <path d="M435.97 544.56 L432.88 554.07"/>
      <path d="M 455.0 486.0L459.0 218.0"/>
      <circle cx="459.0" cy="218.0" r="41.0"/>
      <circle cx="459.0" cy="218.0" r="51.0"/>
    </g>
  </g>
</svg>
