<svg version="1.1" width="1630" height="1060" xmlns="http://www.w3.org/2000/svg">
  <!-- Seed: 4544542243542050250 -->
  <g stroke="black" fill="none">
    <circle cx="204.0" cy="597.0" r="5"/>
    <circle cx="198.27050983124843" cy="614.6335575687742" r="5"/>
    <circle cx="183.27050983124843" cy="625.5316954888546" r="5"/>
    <circle cx="164.72949016875157" cy="625.5316954888547" r="5"/>
    <circle cx="149.72949016875157" cy="614.6335575687742" r="5"/>
    <circle cx="144.0" cy="597.0" r="5"/>
    <circle cx="149.72949016875157" cy="579.3664424312258" r="5"/>
    <circle cx="164.72949016875157" cy="568.4683045111454" r="5"/>
    <circle cx="183.2705098312484" cy="568.4683045111453" r="5"/>
    <circle cx="198.27050983124843" cy="579.3664424312258" r="5"/>
    <circle cx="1491.0" cy="548.0000000000001" r="5"/>
    <circle cx="1485.2705098312483" cy="565.6335575687743" r="5"/>
    <circle cx="1470.2705098312483" cy="576.5316954888547" r="5"/>
    <circle cx="1451.7294901687517" cy="576.5316954888547" r="5"/>
    <circle cx="1436.7294901687517" cy="565.6335575687743" r="5"/>
    <circle cx="1431.0" cy="548.0000000000001" r="5"/>
    <circle cx="1436.7294901687517" cy="530.3664424312259" r="5"/>
    <circle cx="1451.7294901687517" cy="519.4683045111456" r="5"/>
    <circle cx="1470.2705098312483" cy="519.4683045111456" r="5"/>
    <circle cx="1485.2705098312483" cy="530.3664424312259" r="5"/>
    <circle cx="1240.1538461538462" cy="739.0" r="50"/>
    <circle cx="717.5384615384615" cy="145" r="50"/>
  </g>
</svg>
