<svg version="1.1" width="1150" height="870" xmlns="http://www.w3.org/2000/svg">
  <!-- Seed: 2498084237726629520 -->
  <!-- Size: SvgSize.Size9x12 -->
  <!-- Params:
    draw_worm: False
    draw_highlight: True
    step_dist: 5
    circle: True
    peaks: [RangeInt] min: 3 max: 7
    shuffle_large_max_x: 80
    shuffle_large_max_y: 100
    shuffle_small_max_x: 30
    shuffle_small_max_y: 30
    rough_subdivisions: [RangeInt] min: 1 max: 10
    padding: 100
    size_end: 1
    size_range: [RangeInt] min: 5 max: 60
    highlight_end_circle_radius: 30
    highlight_end_points: 10
    highlight_end_point_radius: 5
    highlight_sunburst_ray_len: 10
    highlights: [RangeInt] min: 3 max: 5
    highlight_padding: 20
    consumed_check_radius: 50
    highlight_spacing: 10
    highlight_text_weight: [(0, 1), (1, 3)]
    highlight_text_num_range: [RangeInt] min: 200 max: 50000
    connect_highlight_weight: [(0, 1), (1, 3)]
  -->
  <g stroke="black" fill="none">
    <g stroke="blue">
      <circle cx="116.0" cy="560.0" r="5"/>
      <circle cx="110.27" cy="577.63" r="5"/>
      <circle cx="95.27" cy="588.53" r="5"/>
      <circle cx="76.73" cy="588.53" r="5"/>
      <circle cx="61.73" cy="577.63" r="5"/>
      <circle cx="56.0" cy="560.0" r="5"/>
      <circle cx="61.73" cy="542.37" r="5"/>
      <circle cx="76.73" cy="531.47" r="5"/>
      <circle cx="95.27" cy="531.47" r="5"/>
      <circle cx="110.27" cy="542.37" r="5"/>
      <path d="M975.0 520.0 L975.0 530.0"/>
      <path d="M992.63 514.27 L998.51 522.36"/>
      <path d="M1003.53 499.27 L1013.04 502.36"/>
      <path d="M1003.53 480.73 L1013.04 477.64"/>
      <path d="M992.63 465.73 L998.51 457.64"/>
      <path d="M975.0 460.0 L975.0 450.0"/>
      <path d="M957.37 465.73 L951.49 457.64"/>
      <path d="M946.47 480.73 L936.96 477.64"/>
      <path d="M946.47 499.27 L936.96 502.36"/>
      <path d="M957.37 514.27 L951.49 522.36"/>
      <circle cx="438.0" cy="283.0" r="47.29"/>
      <path d="M438.0 340.29 L438.0 350.29"/>
      <path d="M455.7 337.49 L458.79 347.0"/>
      <path d="M471.67 329.35 L477.55 337.44"/>
      <path d="M484.35 316.67 L492.44 322.55"/>
      <path d="M492.49 300.7 L502.0 303.79"/>
      <path d="M495.29 283.0 L505.29 283.0"/>
      <path d="M492.49 265.3 L502.0 262.21"/>
      <path d="M484.35 249.33 L492.44 243.45"/>
      <path d="M471.67 236.65 L477.55 228.56"/>
      <path d="M455.7 228.51 L458.79 219.0"/>
      <path d="M438.0 225.71 L438.0 215.71"/>
      <path d="M420.3 228.51 L417.21 219.0"/>
      <path d="M404.33 236.65 L398.45 228.56"/>
      <path d="M391.65 249.33 L383.56 243.45"/>
      <path d="M383.51 265.3 L374.0 262.21"/>
      <path d="M380.71 283.0 L370.71 283.0"/>
      <path d="M383.51 300.7 L374.0 303.79"/>
      <path d="M391.65 316.67 L383.56 322.55"/>
      <path d="M404.33 329.35 L398.45 337.44"/>
      <path d="M420.3 337.49 L417.21 347.0"/>
      <circle cx="815.0" cy="434.0" r="35.04"/>
      <circle cx="815.0" cy="434.0" r="45.04"/>
      <circle cx="394.0" cy="626.0" r="33.0"/>
      <circle cx="394.0" cy="626.0" r="43.0"/>
      <circle cx="912.0" cy="331.0" r="54.5"/>
      <path d="M912.0 395.5 L912.0 405.5"/>
      <path d="M931.93 392.34 L935.02 401.85"/>
      <path d="M949.91 383.18 L955.79 391.27"/>
      <path d="M964.18 368.91 L972.27 374.79"/>
      <path d="M973.34 350.93 L982.85 354.02"/>
      <path d="M976.5 331.0 L986.5 331.0"/>
      <path d="M973.34 311.07 L982.85 307.98"/>
      <path d="M964.18 293.09 L972.27 287.21"/>
      <path d="M949.91 278.82 L955.79 270.73"/>
      <path d="M931.93 269.66 L935.02 260.15"/>
      <path d="M912.0 266.5 L912.0 256.5"/>
      <path d="M892.07 269.66 L888.98 260.15"/>
      <path d="M874.09 278.82 L868.21 270.73"/>
      <path d="M859.82 293.09 L851.73 287.21"/>
      <path d="M850.66 311.07 L841.15 307.98"/>
      <path d="M847.5 331.0 L837.5 331.0"/>
      <path d="M850.66 350.93 L841.15 354.02"/>
      <path d="M859.82 368.91 L851.73 374.79"/>
      <path d="M874.09 383.18 L868.21 391.27"/>
      <path d="M892.07 392.34 L888.98 401.85"/>
      <g transform="translate(508.935,283.0) scale(0.5,0.5)">
        <path d="M25.0 -50h-12.5q-12.5 0 -12.5 12.5v25.0q0 12.5 12.5 12.5q12.5 0 12.5 -12.5q0 -12.5 -12.5 -12.5h-12.5"/>
        <path d="M47.5 0q-12.5 0 -12.5 -12.5v-25.0q0 -12.5 12.5 -12.5q12.5 0 12.5 12.5v25.0q0 12.5 -12.5 12.5m-12.5 -12.5l25.0 -25.0"/>
        <path d="M70.0 0h12.5q12.5 0 12.5 -12.5q0 -12.5 -12.5 -12.5h-6.25m6.25 0q12.5 0 12.5 -12.5q0 -12.5 -12.5 -12.5h-12.5"/>
        <path d="M117.5 0q-12.5 0 -12.5 -12.5v-25.0q0 -12.5 12.5 -12.5q12.5 0 12.5 12.5v25.0q0 12.5 -12.5 12.5m-12.5 -12.5l25.0 -25.0"/>
      </g>
    </g>
  </g>
</svg>
