<svg version="1.1" width="1150" height="870" xmlns="http://www.w3.org/2000/svg">
  <!-- Seed: 1549232824620374358 -->
  <g stroke="black" fill="none">
    <circle cx="162.0" cy="550.0" r="5"/>
    <circle cx="156.27050983124843" cy="567.6335575687742" r="5"/>
    <circle cx="141.27050983124843" cy="578.5316954888546" r="5"/>
    <circle cx="122.72949016875158" cy="578.5316954888547" r="5"/>
    <circle cx="107.72949016875158" cy="567.6335575687742" r="5"/>
    <circle cx="102.0" cy="550.0" r="5"/>
    <circle cx="107.72949016875157" cy="532.3664424312258" r="5"/>
    <circle cx="122.72949016875157" cy="521.4683045111454" r="5"/>
    <circle cx="141.2705098312484" cy="521.4683045111453" r="5"/>
    <circle cx="156.27050983124843" cy="532.3664424312258" r="5"/>
    <circle cx="1005.0000000000001" cy="546.0" r="5"/>
    <circle cx="999.2705098312485" cy="563.6335575687742" r="5"/>
    <circle cx="984.2705098312485" cy="574.5316954888546" r="5"/>
    <circle cx="965.7294901687517" cy="574.5316954888547" r="5"/>
    <circle cx="950.7294901687517" cy="563.6335575687742" r="5"/>
    <circle cx="945.0000000000001" cy="546.0" r="5"/>
    <circle cx="950.7294901687517" cy="528.3664424312258" r="5"/>
    <circle cx="965.7294901687517" cy="517.4683045111454" r="5"/>
    <circle cx="984.2705098312485" cy="517.4683045111453" r="5"/>
    <circle cx="999.2705098312485" cy="528.3664424312258" r="5"/>
    <circle cx="622.8" cy="586.6" r="50"/>
    <circle cx="476.99999999999994" cy="284.5" r="50"/>
    <circle cx="264.46666666666664" cy="687.2999999999998" r="50"/>
  </g>
</svg>
