<svg version="1.1" width="1150" height="870" xmlns="http://www.w3.org/2000/svg">
  <!-- Seed: 4750089840855242233 -->
  <g stroke="black" fill="none">
    <g stroke="blue">
      <circle cx="219.0" cy="199.15000000000003" r="59"/>
      <circle cx="288.0" cy="199.15000000000003" r="5"/>
      <circle cx="283.83879083422767" cy="222.74938988947116" r="5"/>
      <circle cx="271.8570665752095" cy="243.50234506837126" r="5"/>
      <circle cx="253.5" cy="258.9057528611263" r="5"/>
      <circle cx="230.9817242590182" cy="267.1017349578424" r="5"/>
      <circle cx="207.0182757409818" cy="267.1017349578424" r="5"/>
      <circle cx="184.5" cy="258.9057528611263" r="5"/>
      <circle cx="166.14293342479053" cy="243.50234506837126" r="5"/>
      <circle cx="154.16120916577233" cy="222.7493898894712" r="5"/>
      <circle cx="150.0" cy="199.15000000000003" r="5"/>
      <circle cx="154.16120916577233" cy="175.5506101105289" r="5"/>
      <circle cx="166.14293342479053" cy="154.7976549316288" r="5"/>
      <circle cx="184.49999999999997" cy="139.3942471388738" r="5"/>
      <circle cx="207.0182757409818" cy="131.1982650421577" r="5"/>
      <circle cx="230.98172425901816" cy="131.1982650421577" r="5"/>
      <circle cx="253.5" cy="139.39424713887377" r="5"/>
      <circle cx="271.85706657520944" cy="154.7976549316288" r="5"/>
      <circle cx="283.83879083422767" cy="175.55061011052885" r="5"/>
      <circle cx="397.0" cy="199.15000000000003" r="59"/>
      <circle cx="397.0" cy="199.15000000000003" r="64"/>
      <circle cx="397.0" cy="199.15000000000003" r="69"/>
      <circle cx="476.0" cy="199.15000000000003" r="5"/>
      <circle cx="471.2357170420868" cy="226.16959132272785" r="5"/>
      <circle cx="457.5175110063993" cy="249.93022116523665" r="5"/>
      <circle cx="436.5" cy="267.56600689897067" r="5"/>
      <circle cx="410.7182060356875" cy="276.94981248796444" r="5"/>
      <circle cx="383.2817939643125" cy="276.94981248796444" r="5"/>
      <circle cx="357.5" cy="267.5660068989707" r="5"/>
      <circle cx="336.4824889936007" cy="249.93022116523665" r="5"/>
      <circle cx="322.7642829579132" cy="226.16959132272788" r="5"/>
      <circle cx="318.0" cy="199.15000000000003" r="5"/>
      <circle cx="322.7642829579132" cy="172.13040867727221" r="5"/>
      <circle cx="336.4824889936007" cy="148.36977883476342" r="5"/>
      <circle cx="357.49999999999994" cy="130.7339931010294" r="5"/>
      <circle cx="383.2817939643125" cy="121.3501875120356" r="5"/>
      <circle cx="410.71820603568744" cy="121.35018751203559" r="5"/>
      <circle cx="436.5" cy="130.7339931010294" r="5"/>
      <circle cx="457.5175110063992" cy="148.3697788347634" r="5"/>
      <circle cx="471.2357170420867" cy="172.13040867727216" r="5"/>
      <circle cx="575.0" cy="199.15000000000003" r="59"/>
      <circle cx="575.0" cy="199.15000000000003" r="64"/>
      <circle cx="575.0" cy="199.15000000000003" r="69"/>
      <circle cx="753.0" cy="199.15000000000003" r="59"/>
      <circle cx="753.0" cy="199.15000000000003" r="64"/>
      <path d="M 753.0 273.15000000000003 L753.0 278.15000000000003"/>
      <path d="M 778.3094906060995 268.68725393815726 L780.0195913227278 273.3857170420868"/>
      <path d="M 800.5662831168039 255.8372887908044 L803.7802211652366 259.6675110063993"/>
      <path d="M 817.0858798800484 236.15000000000003 L821.4160068989706 238.65000000000003"/>
      <path d="M 825.8757737229034 211.9999651473529 L830.7998124879645 212.86820603568754"/>
      <path d="M 825.8757737229034 186.3000348526472 L830.7998124879645 185.43179396431256"/>
      <path d="M 817.0858798800484 162.15000000000003 L821.4160068989706 159.65000000000003"/>
      <path d="M 800.5662831168039 142.46271120919567 L803.7802211652366 138.6324889936008"/>
      <path d="M 778.3094906060995 129.6127460618428 L780.0195913227278 124.91428295791327"/>
      <path d="M 753.0 125.15000000000003 L753.0 120.15000000000003"/>
      <path d="M 727.6905093939005 129.6127460618428 L725.9804086772722 124.91428295791327"/>
      <path d="M 705.4337168831961 142.46271120919567 L702.2197788347634 138.6324889936008"/>
      <path d="M 688.9141201199516 162.15 L684.5839931010294 159.65"/>
      <path d="M 680.1242262770966 186.3000348526472 L675.2001875120355 185.43179396431256"/>
      <path d="M 680.1242262770966 211.99996514735284 L675.2001875120355 212.86820603568748"/>
      <path d="M 688.9141201199516 236.15000000000003 L684.5839931010294 238.65000000000003"/>
      <path d="M 705.4337168831961 255.8372887908044 L702.2197788347634 259.6675110063993"/>
      <path d="M 727.6905093939005 268.68725393815726 L725.9804086772722 273.3857170420868"/>
      <circle cx="931.0" cy="199.15000000000003" r="59"/>
      <circle cx="931.0" cy="199.15000000000003" r="64"/>
      <circle cx="1005.0" cy="199.15000000000003" r="5"/>
      <circle cx="1000.5372539381572" cy="224.4594906060995" r="5"/>
      <circle cx="987.6872887908044" cy="246.71628311680394" r="5"/>
      <circle cx="968.0" cy="263.2358798800485" r="5"/>
      <circle cx="943.8499651473528" cy="272.0257737229034" r="5"/>
      <circle cx="918.1500348526472" cy="272.0257737229034" r="5"/>
      <circle cx="894.0" cy="263.2358798800485" r="5"/>
      <circle cx="874.3127112091956" cy="246.71628311680396" r="5"/>
      <circle cx="861.4627460618428" cy="224.45949060609954" r="5"/>
      <circle cx="857.0" cy="199.15000000000003" r="5"/>
      <circle cx="861.4627460618428" cy="173.84050939390056" r="5"/>
      <circle cx="874.3127112091956" cy="151.58371688319613" r="5"/>
      <circle cx="894.0" cy="135.0641201199516" r="5"/>
      <circle cx="918.1500348526472" cy="126.27422627709664" r="5"/>
      <circle cx="943.8499651473528" cy="126.27422627709663" r="5"/>
      <circle cx="968.0" cy="135.06412011995158" r="5"/>
      <circle cx="987.6872887908044" cy="151.5837168831961" r="5"/>
      <circle cx="1000.5372539381572" cy="173.8405093939005" r="5"/>
      <circle cx="486.0" cy="350.45000000000005" r="59"/>
      <circle cx="486.0" cy="350.45000000000005" r="64"/>
      <path d="M 486.0 424.45000000000005 L486.0 429.45000000000005"/>
      <path d="M 511.3094906060995 419.98725393815727 L513.0195913227278 424.6857170420868"/>
      <path d="M 533.5662831168039 407.1372887908044 L536.7802211652366 410.9675110063993"/>
      <path d="M 550.0858798800484 387.45000000000005 L554.4160068989706 389.95000000000005"/>
      <path d="M 558.8757737229034 363.2999651473529 L563.7998124879645 364.16820603568755"/>
      <path d="M 558.8757737229034 337.6000348526472 L563.7998124879645 336.73179396431254"/>
      <path d="M 550.0858798800484 313.45000000000005 L554.4160068989706 310.95000000000005"/>
      <path d="M 533.5662831168039 293.7627112091957 L536.7802211652366 289.93248899360077"/>
      <path d="M 511.3094906060995 280.9127460618428 L513.0195913227278 276.21428295791327"/>
      <path d="M 486.0 276.45000000000005 L486.0 271.45000000000005"/>
      <path d="M 460.6905093939005 280.9127460618428 L458.9804086772722 276.21428295791327"/>
      <path d="M 438.4337168831961 293.7627112091957 L435.2197788347634 289.93248899360077"/>
      <path d="M 421.9141201199516 313.45 L417.58399310102936 310.95"/>
      <path d="M 413.1242262770966 337.6000348526472 L408.2001875120356 336.73179396431254"/>
      <path d="M 413.12422627709657 363.29996514735285 L408.20018751203554 364.1682060356875"/>
      <path d="M 421.9141201199516 387.45000000000005 L417.58399310102936 389.95000000000005"/>
      <path d="M 438.4337168831961 407.1372887908044 L435.2197788347634 410.9675110063993"/>
      <path d="M 460.69050939390047 419.9872539381572 L458.9804086772721 424.68571704208676"/>
      <circle cx="664.0" cy="350.45000000000005" r="59"/>
      <path d="M 664.0 419.45000000000005 L664.0 424.45000000000005"/>
      <path d="M 687.5993898894711 415.2887908342277 L689.3094906060994 419.98725393815727"/>
      <path d="M 708.3523450683712 403.30706657520955 L711.5662831168039 407.13728879080446"/>
      <path d="M 723.7557528611262 384.95000000000005 L728.0858798800484 387.45000000000005"/>
      <path d="M 731.9517349578423 362.43172425901827 L736.8757737229033 363.2999651473529"/>
      <path d="M 731.9517349578423 338.4682757409819 L736.8757737229033 337.60003485264724"/>
      <path d="M 723.7557528611262 315.95000000000005 L728.0858798800484 313.45000000000005"/>
      <path d="M 708.3523450683713 297.59293342479054 L711.566283116804 293.76271120919563"/>
      <path d="M 687.5993898894711 285.6112091657724 L689.3094906060994 280.9127460618428"/>
      <path d="M 664.0 281.45000000000005 L664.0 276.45000000000005"/>
      <path d="M 640.4006101105289 285.6112091657724 L638.6905093939006 280.9127460618428"/>
      <path d="M 619.6476549316288 297.59293342479054 L616.4337168831961 293.76271120919563"/>
      <path d="M 604.2442471388738 315.95000000000005 L599.9141201199516 313.45000000000005"/>
      <path d="M 596.0482650421577 338.4682757409819 L591.1242262770967 337.60003485264724"/>
      <path d="M 596.0482650421576 362.4317242590182 L591.1242262770966 363.29996514735285"/>
      <path d="M 604.2442471388738 384.95000000000005 L599.9141201199516 387.45000000000005"/>
      <path d="M 619.6476549316287 403.3070665752095 L616.433716883196 407.1372887908044"/>
      <path d="M 640.4006101105288 415.2887908342277 L638.6905093939004 419.98725393815727"/>
      <circle cx="842.0" cy="350.45000000000005" r="59"/>
      <circle cx="842.0" cy="350.45000000000005" r="64"/>
      <circle cx="842.0" cy="350.45000000000005" r="69"/>
      <path d="M 842.0 429.45000000000005 L842.0 434.45000000000005"/>
      <path d="M 869.0195913227278 424.6857170420868 L870.7296920393561 429.3841801460164"/>
      <path d="M 892.7802211652366 410.9675110063993 L895.9941592136694 414.79773322199424"/>
      <path d="M 910.4160068989706 389.95000000000005 L914.7461339178928 392.45000000000005"/>
      <path d="M 919.7998124879645 364.16820603568755 L924.7238512530255 365.0364469240222"/>
      <path d="M 919.7998124879645 336.73179396431254 L924.7238512530255 335.8635530759779"/>
      <path d="M 910.4160068989706 310.95000000000005 L914.7461339178928 308.45000000000005"/>
      <path d="M 892.7802211652366 289.93248899360077 L895.9941592136694 286.10226677800586"/>
      <path d="M 869.0195913227278 276.21428295791327 L870.7296920393561 271.5158198539837"/>
      <path d="M 842.0 271.45000000000005 L842.0 266.45000000000005"/>
      <path d="M 814.9804086772722 276.21428295791327 L813.2703079606439 271.5158198539837"/>
      <path d="M 791.2197788347634 289.93248899360077 L788.0058407863306 286.10226677800586"/>
      <path d="M 773.5839931010294 310.95 L769.2538660821072 308.45"/>
      <path d="M 764.2001875120355 336.73179396431254 L759.2761487469745 335.8635530759779"/>
      <path d="M 764.2001875120355 364.1682060356875 L759.2761487469745 365.03644692402213"/>
      <path d="M 773.5839931010294 389.95000000000005 L769.2538660821072 392.45000000000005"/>
      <path d="M 791.2197788347634 410.96751100639926 L788.0058407863306 414.7977332219942"/>
      <path d="M 814.9804086772721 424.68571704208676 L813.2703079606437 429.3841801460163"/>
      <circle cx="219.0" cy="501.75" r="59"/>
      <circle cx="219.0" cy="501.75" r="64"/>
      <path d="M 219.0 575.75 L219.0 580.75"/>
      <path d="M 244.30949060609947 571.2872539381572 L246.01959132272782 575.9857170420867"/>
      <path d="M 266.5662831168039 558.4372887908044 L269.7802211652366 562.2675110063992"/>
      <path d="M 283.0858798800484 538.75 L287.41600689897064 541.25"/>
      <path d="M 291.8757737229034 514.5999651473528 L296.7998124879644 515.4682060356874"/>
      <path d="M 291.8757737229034 488.90003485264714 L296.7998124879644 488.0317939643125"/>
      <path d="M 283.0858798800485 464.75 L287.4160068989707 462.25"/>
      <path d="M 266.5662831168039 445.06271120919564 L269.7802211652366 441.2324889936007"/>
      <path d="M 244.3094906060995 432.2127460618428 L246.01959132272785 427.5142829579132"/>
      <path d="M 219.0 427.75 L219.0 422.75"/>
      <path d="M 193.69050939390053 432.2127460618428 L191.98040867727218 427.5142829579132"/>
      <path d="M 171.4337168831961 445.06271120919564 L168.2197788347634 441.2324889936007"/>
      <path d="M 154.91412011995158 464.74999999999994 L150.5839931010294 462.24999999999994"/>
      <path d="M 146.12422627709662 488.90003485264714 L141.2001875120356 488.0317939643125"/>
      <path d="M 146.1242262770966 514.5999651473528 L141.20018751203557 515.4682060356874"/>
      <path d="M 154.91412011995155 538.75 L150.58399310102936 541.25"/>
      <path d="M 171.43371688319607 558.4372887908044 L168.21977883476336 562.2675110063992"/>
      <path d="M 193.69050939390047 571.2872539381572 L191.98040867727212 575.9857170420867"/>
      <circle cx="397.0" cy="501.75" r="59"/>
      <circle cx="397.0" cy="501.75" r="64"/>
      <circle cx="471.0" cy="501.75" r="5"/>
      <circle cx="466.5372539381572" cy="527.0594906060995" r="5"/>
      <circle cx="453.68728879080436" cy="549.3162831168039" r="5"/>
      <circle cx="434.0" cy="565.8358798800484" r="5"/>
      <circle cx="409.84996514735286" cy="574.6257737229034" r="5"/>
      <circle cx="384.15003485264714" cy="574.6257737229034" r="5"/>
      <circle cx="360.0" cy="565.8358798800484" r="5"/>
      <circle cx="340.31271120919564" cy="549.3162831168039" r="5"/>
      <circle cx="327.4627460618428" cy="527.0594906060995" r="5"/>
      <circle cx="323.0" cy="501.75" r="5"/>
      <circle cx="327.4627460618428" cy="476.4405093939005" r="5"/>
      <circle cx="340.31271120919564" cy="454.1837168831961" r="5"/>
      <circle cx="359.99999999999994" cy="437.6641201199516" r="5"/>
      <circle cx="384.15003485264714" cy="428.8742262770966" r="5"/>
      <circle cx="409.8499651473528" cy="428.87422627709657" r="5"/>
      <circle cx="434.0" cy="437.6641201199516" r="5"/>
      <circle cx="453.68728879080436" cy="454.1837168831961" r="5"/>
      <circle cx="466.53725393815716" cy="476.44050939390047" r="5"/>
      <circle cx="575.0" cy="501.75" r="59"/>
      <path d="M 575.0 570.75 L575.0 575.75"/>
      <path d="M 598.5993898894711 566.5887908342277 L600.3094906060994 571.2872539381572"/>
      <path d="M 619.3523450683712 554.6070665752095 L622.5662831168039 558.4372887908044"/>
      <path d="M 634.7557528611262 536.25 L639.0858798800484 538.75"/>
      <path d="M 642.9517349578423 513.7317242590182 L647.8757737229033 514.5999651473528"/>
      <path d="M 642.9517349578423 489.76827574098184 L647.8757737229033 488.9000348526472"/>
      <path d="M 634.7557528611262 467.25 L639.0858798800484 464.75"/>
      <path d="M 619.3523450683713 448.8929334247905 L622.566283116804 445.0627112091956"/>
      <path d="M 598.5993898894711 436.91120916577233 L600.3094906060994 432.2127460618428"/>
      <path d="M 575.0 432.75 L575.0 427.75"/>
      <path d="M 551.4006101105289 436.91120916577233 L549.6905093939006 432.2127460618428"/>
      <path d="M 530.6476549316288 448.8929334247905 L527.4337168831961 445.0627112091956"/>
      <path d="M 515.2442471388738 467.25 L510.9141201199516 464.75"/>
      <path d="M 507.04826504215765 489.76827574098184 L502.1242262770966 488.9000348526472"/>
      <path d="M 507.04826504215765 513.7317242590182 L502.1242262770966 514.5999651473528"/>
      <path d="M 515.2442471388738 536.25 L510.9141201199516 538.75"/>
      <path d="M 530.6476549316287 554.6070665752095 L527.433716883196 558.4372887908044"/>
      <path d="M 551.4006101105288 566.5887908342277 L549.6905093939004 571.2872539381572"/>
      <circle cx="753.0" cy="501.75" r="59"/>
      <circle cx="753.0" cy="501.75" r="64"/>
      <circle cx="486.0" cy="653.05" r="59"/>
      <circle cx="486.0" cy="653.05" r="64"/>
      <circle cx="486.0" cy="653.05" r="69"/>
      <path d="M 486.0 732.05 L486.0 737.05"/>
      <path d="M 513.0195913227278 727.2857170420867 L514.7296920393561 731.9841801460162"/>
      <path d="M 536.7802211652366 713.5675110063992 L539.9941592136694 717.397733221994"/>
      <path d="M 554.4160068989706 692.55 L558.7461339178928 695.05"/>
      <path d="M 563.7998124879645 666.7682060356875 L568.7238512530255 667.6364469240222"/>
      <path d="M 563.7998124879645 639.3317939643125 L568.7238512530255 638.4635530759779"/>
      <path d="M 554.4160068989706 613.55 L558.7461339178928 611.05"/>
      <path d="M 536.7802211652366 592.5324889936007 L539.9941592136694 588.7022667780059"/>
      <path d="M 513.0195913227278 578.8142829579132 L514.7296920393561 574.1158198539837"/>
      <path d="M 486.0 574.05 L486.0 569.05"/>
      <path d="M 458.9804086772722 578.8142829579132 L457.27030796064383 574.1158198539837"/>
      <path d="M 435.2197788347634 592.5324889936007 L432.00584078633074 588.7022667780059"/>
      <path d="M 417.58399310102936 613.55 L413.25386608210715 611.05"/>
      <path d="M 408.20018751203554 639.3317939643125 L403.2761487469745 638.4635530759779"/>
      <path d="M 408.20018751203554 666.7682060356874 L403.2761487469745 667.636446924022"/>
      <path d="M 417.58399310102936 692.55 L413.25386608210715 695.05"/>
      <path d="M 435.21977883476336 713.5675110063992 L432.0058407863307 717.397733221994"/>
      <path d="M 458.9804086772721 727.2857170420867 L457.2703079606438 731.9841801460162"/>
      <path d="M 664.0 717.05 L664.0 722.05"/>
      <path d="M 685.8892891728428 713.1903277302981 L687.5993898894711 717.8887908342276"/>
      <path d="M 705.1384070199385 702.0768443596146 L708.3523450683713 705.9070665752095"/>
      <path d="M 719.4256258422041 685.05 L723.7557528611263 687.55"/>
      <path d="M 727.0276961927813 664.1634833706835 L731.9517349578423 665.0317242590181"/>
      <path d="M 727.0276961927813 641.9365166293164 L731.9517349578423 641.0682757409818"/>
      <path d="M 719.4256258422041 621.05 L723.7557528611263 618.55"/>
      <path d="M 705.1384070199385 604.0231556403853 L708.3523450683713 600.1929334247905"/>
      <path d="M 685.8892891728428 592.9096722697018 L687.5993898894711 588.2112091657723"/>
      <path d="M 664.0 589.05 L664.0 584.05"/>
      <path d="M 642.1107108271572 592.9096722697018 L640.4006101105289 588.2112091657723"/>
      <path d="M 622.8615929800615 604.0231556403853 L619.6476549316287 600.1929334247905"/>
      <path d="M 608.574374157796 621.05 L604.2442471388738 618.55"/>
      <path d="M 600.9723038072187 641.9365166293164 L596.0482650421577 641.0682757409818"/>
      <path d="M 600.9723038072186 664.1634833706835 L596.0482650421576 665.0317242590181"/>
      <path d="M 608.5743741577959 685.05 L604.2442471388737 687.55"/>
      <path d="M 622.8615929800615 702.0768443596145 L619.6476549316287 705.9070665752093"/>
      <path d="M 642.1107108271572 713.1903277302981 L640.4006101105289 717.8887908342276"/>
      <circle cx="842.0" cy="653.05" r="59"/>
      <circle cx="842.0" cy="653.05" r="64"/>
      <circle cx="842.0" cy="653.05" r="69"/>
      <path d="M 842.0 732.05 L842.0 737.05"/>
      <path d="M 869.0195913227278 727.2857170420867 L870.7296920393561 731.9841801460162"/>
      <path d="M 892.7802211652366 713.5675110063992 L895.9941592136694 717.397733221994"/>
      <path d="M 910.4160068989706 692.55 L914.7461339178928 695.05"/>
      <path d="M 919.7998124879645 666.7682060356875 L924.7238512530255 667.6364469240222"/>
      <path d="M 919.7998124879645 639.3317939643125 L924.7238512530255 638.4635530759779"/>
      <path d="M 910.4160068989706 613.55 L914.7461339178928 611.05"/>
      <path d="M 892.7802211652366 592.5324889936007 L895.9941592136694 588.7022667780059"/>
      <path d="M 869.0195913227278 578.8142829579132 L870.7296920393561 574.1158198539837"/>
      <path d="M 842.0 574.05 L842.0 569.05"/>
      <path d="M 814.9804086772722 578.8142829579132 L813.2703079606439 574.1158198539837"/>
      <path d="M 791.2197788347634 592.5324889936007 L788.0058407863306 588.7022667780059"/>
      <path d="M 773.5839931010294 613.55 L769.2538660821072 611.05"/>
      <path d="M 764.2001875120355 639.3317939643125 L759.2761487469745 638.4635530759779"/>
      <path d="M 764.2001875120355 666.7682060356874 L759.2761487469745 667.636446924022"/>
      <path d="M 773.5839931010294 692.55 L769.2538660821072 695.05"/>
      <path d="M 791.2197788347634 713.5675110063992 L788.0058407863306 717.397733221994"/>
      <path d="M 814.9804086772721 727.2857170420867 L813.2703079606437 731.9841801460162"/>
    </g>
  </g>
</svg>
