<svg version="1.1" width="1150" height="870" xmlns="http://www.w3.org/2000/svg">
  <!-- Seed: 2045667034724665042 -->
  <!-- Size: SvgSize.Size9x12 -->
  <!-- Params:
    draw_circles: False
    draw_border: True
    rotate_range: 0.3141592653589793
    ring_pad: 5
    ring_weights: [(0, 5), (1, 2), (2, 1), (3, 0.5)]
    border_weights: [(<BorderType.Empty: 0>, 5), (<BorderType.Circles: 1>, 1), (<BorderType.Starburst: 2>, 2)]
    padding: 0
    size_range: [RangeInt] min: 20 max: 350
    size_pad: 20
    origin_shuffle_range: 0
  -->
  <g stroke="black" fill="none">
    <g stroke="blue">
      <path d="M233.0 234.05 L233.0 239.05"/>
      <path d="M256.5 227.75 L259.0 232.08"/>
      <path d="M273.7 210.55 L278.03 213.05"/>
      <path d="M280.0 187.05 L285.0 187.05"/>
      <path d="M273.7 163.55 L278.03 161.05"/>
      <path d="M256.5 146.35 L259.0 142.02"/>
      <path d="M233.0 140.05 L233.0 135.05"/>
      <path d="M209.5 146.35 L207.0 142.02"/>
      <path d="M192.3 163.55 L187.97 161.05"/>
      <path d="M186.0 187.05 L181.0 187.05"/>
      <path d="M192.3 210.55 L187.97 213.05"/>
      <path d="M209.5 227.75 L207.0 232.08"/>
      <circle cx="347.0" cy="187.05" r="42"/>
      <circle cx="347.0" cy="187.05" r="47"/>
      <circle cx="347.0" cy="187.05" r="52"/>
      <path d="M347.0 249.05 L347.0 254.05"/>
      <path d="M378.0 240.74 L380.5 245.07"/>
      <path d="M400.69 218.05 L405.02 220.55"/>
      <path d="M409.0 187.05 L414.0 187.05"/>
      <path d="M400.69 156.05 L405.02 153.55"/>
      <path d="M378.0 133.36 L380.5 129.03"/>
      <path d="M347.0 125.05 L347.0 120.05"/>
      <path d="M316.0 133.36 L313.5 129.03"/>
      <path d="M293.31 156.05 L288.98 153.55"/>
      <path d="M285.0 187.05 L280.0 187.05"/>
      <path d="M293.31 218.05 L288.98 220.55"/>
      <path d="M316.0 240.74 L313.5 245.07"/>
      <circle cx="461.0" cy="187.05" r="42"/>
      <circle cx="461.0" cy="187.05" r="47"/>
      <circle cx="575.0" cy="187.05" r="42"/>
      <circle cx="575.0" cy="187.05" r="47"/>
      <circle cx="689.0" cy="187.05" r="42"/>
      <circle cx="741.0" cy="187.05" r="5"/>
      <circle cx="734.03" cy="213.05" r="5"/>
      <circle cx="715.0" cy="232.08" r="5"/>
      <circle cx="689.0" cy="239.05" r="5"/>
      <circle cx="663.0" cy="232.08" r="5"/>
      <circle cx="643.97" cy="213.05" r="5"/>
      <circle cx="637.0" cy="187.05" r="5"/>
      <circle cx="643.97" cy="161.05" r="5"/>
      <circle cx="663.0" cy="142.02" r="5"/>
      <circle cx="689.0" cy="135.05" r="5"/>
      <circle cx="715.0" cy="142.02" r="5"/>
      <circle cx="734.03" cy="161.05" r="5"/>
      <circle cx="803.0" cy="187.05" r="42"/>
      <path d="M803.0 239.05 L803.0 244.05"/>
      <path d="M829.0 232.08 L831.5 236.41"/>
      <path d="M848.03 213.05 L852.36 215.55"/>
      <path d="M855.0 187.05 L860.0 187.05"/>
      <path d="M848.03 161.05 L852.36 158.55"/>
      <path d="M829.0 142.02 L831.5 137.69"/>
      <path d="M803.0 135.05 L803.0 130.05"/>
      <path d="M777.0 142.02 L774.5 137.69"/>
      <path d="M757.97 161.05 L753.64 158.55"/>
      <path d="M751.0 187.05 L746.0 187.05"/>
      <path d="M757.97 213.05 L753.64 215.55"/>
      <path d="M777.0 232.08 L774.5 236.41"/>
      <path d="M1031.0 234.05 L1031.0 239.05"/>
      <path d="M1054.5 227.75 L1057.0 232.08"/>
      <path d="M1071.7 210.55 L1076.03 213.05"/>
      <path d="M1078.0 187.05 L1083.0 187.05"/>
      <path d="M1071.7 163.55 L1076.03 161.05"/>
      <path d="M1054.5 146.35 L1057.0 142.02"/>
      <path d="M1031.0 140.05 L1031.0 135.05"/>
      <path d="M1007.5 146.35 L1005.0 142.02"/>
      <path d="M990.3 163.55 L985.97 161.05"/>
      <path d="M984.0 187.05 L979.0 187.05"/>
      <path d="M990.3 210.55 L985.97 213.05"/>
      <path d="M1007.5 227.75 L1005.0 232.08"/>
      <circle cx="404.0" cy="283.95" r="42"/>
      <circle cx="404.0" cy="283.95" r="47"/>
      <circle cx="404.0" cy="283.95" r="52"/>
      <circle cx="518.0" cy="283.95" r="42"/>
      <circle cx="518.0" cy="283.95" r="47"/>
      <path d="M518.0 340.95 L518.0 345.95"/>
      <path d="M546.5 333.31 L549.0 337.64"/>
      <path d="M567.36 312.45 L571.69 314.95"/>
      <path d="M575.0 283.95 L580.0 283.95"/>
      <path d="M567.36 255.45 L571.69 252.95"/>
      <path d="M546.5 234.59 L549.0 230.26"/>
      <path d="M518.0 226.95 L518.0 221.95"/>
      <path d="M489.5 234.59 L487.0 230.26"/>
      <path d="M468.64 255.45 L464.31 252.95"/>
      <path d="M461.0 283.95 L456.0 283.95"/>
      <path d="M468.64 312.45 L464.31 314.95"/>
      <path d="M489.5 333.31 L487.0 337.64"/>
      <circle cx="632.0" cy="283.95" r="42"/>
      <path d="M632.0 335.95 L632.0 340.95"/>
      <path d="M658.0 328.98 L660.5 333.31"/>
      <path d="M677.03 309.95 L681.36 312.45"/>
      <path d="M684.0 283.95 L689.0 283.95"/>
      <path d="M677.03 257.95 L681.36 255.45"/>
      <path d="M658.0 238.92 L660.5 234.59"/>
      <path d="M632.0 231.95 L632.0 226.95"/>
      <path d="M606.0 238.92 L603.5 234.59"/>
      <path d="M586.97 257.95 L582.64 255.45"/>
      <path d="M580.0 283.95 L575.0 283.95"/>
      <path d="M586.97 309.95 L582.64 312.45"/>
      <path d="M606.0 328.98 L603.5 333.31"/>
      <circle cx="746.0" cy="283.95" r="42"/>
      <circle cx="746.0" cy="283.95" r="47"/>
      <circle cx="746.0" cy="283.95" r="52"/>
      <path d="M746.0 345.95 L746.0 350.95"/>
      <path d="M777.0 337.64 L779.5 341.97"/>
      <path d="M799.69 314.95 L804.02 317.45"/>
      <path d="M808.0 283.95 L813.0 283.95"/>
      <path d="M799.69 252.95 L804.02 250.45"/>
      <path d="M777.0 230.26 L779.5 225.93"/>
      <path d="M746.0 221.95 L746.0 216.95"/>
      <path d="M715.0 230.26 L712.5 225.93"/>
      <path d="M692.31 252.95 L687.98 250.45"/>
      <path d="M684.0 283.95 L679.0 283.95"/>
      <path d="M692.31 314.95 L687.98 317.45"/>
      <path d="M715.0 337.64 L712.5 341.97"/>
      <path d="M860.0 330.95 L860.0 335.95"/>
      <path d="M883.5 324.65 L886.0 328.98"/>
      <path d="M900.7 307.45 L905.03 309.95"/>
      <path d="M907.0 283.95 L912.0 283.95"/>
      <path d="M900.7 260.45 L905.03 257.95"/>
      <path d="M883.5 243.25 L886.0 238.92"/>
      <path d="M860.0 236.95 L860.0 231.95"/>
      <path d="M836.5 243.25 L834.0 238.92"/>
      <path d="M819.3 260.45 L814.97 257.95"/>
      <path d="M813.0 283.95 L808.0 283.95"/>
      <path d="M819.3 307.45 L814.97 309.95"/>
      <path d="M836.5 324.65 L834.0 328.98"/>
      <circle cx="974.0" cy="283.95" r="42"/>
      <circle cx="119.0" cy="380.85" r="42"/>
      <path d="M347.0 427.85 L347.0 432.85"/>
      <path d="M370.5 421.55 L373.0 425.88"/>
      <path d="M387.7 404.35 L392.03 406.85"/>
      <path d="M394.0 380.85 L399.0 380.85"/>
      <path d="M387.7 357.35 L392.03 354.85"/>
      <path d="M370.5 340.15 L373.0 335.82"/>
      <path d="M347.0 333.85 L347.0 328.85"/>
      <path d="M323.5 340.15 L321.0 335.82"/>
      <path d="M306.3 357.35 L301.97 354.85"/>
      <path d="M300.0 380.85 L295.0 380.85"/>
      <path d="M306.3 404.35 L301.97 406.85"/>
      <path d="M323.5 421.55 L321.0 425.88"/>
      <circle cx="461.0" cy="380.85" r="42"/>
      <circle cx="575.0" cy="380.85" r="42"/>
      <circle cx="575.0" cy="380.85" r="47"/>
      <circle cx="632.0" cy="380.85" r="5"/>
      <circle cx="624.36" cy="409.35" r="5"/>
      <circle cx="603.5" cy="430.21" r="5"/>
      <circle cx="575.0" cy="437.85" r="5"/>
      <circle cx="546.5" cy="430.21" r="5"/>
      <circle cx="525.64" cy="409.35" r="5"/>
      <circle cx="518.0" cy="380.85" r="5"/>
      <circle cx="525.64" cy="352.35" r="5"/>
      <circle cx="546.5" cy="331.49" r="5"/>
      <circle cx="575.0" cy="323.85" r="5"/>
      <circle cx="603.5" cy="331.49" r="5"/>
      <circle cx="624.36" cy="352.35" r="5"/>
      <circle cx="803.0" cy="380.85" r="42"/>
      <circle cx="803.0" cy="380.85" r="47"/>
      <path d="M803.0 437.85 L803.0 442.85"/>
      <path d="M831.5 430.21 L834.0 434.54"/>
      <path d="M852.36 409.35 L856.69 411.85"/>
      <path d="M860.0 380.85 L865.0 380.85"/>
      <path d="M852.36 352.35 L856.69 349.85"/>
      <path d="M831.5 331.49 L834.0 327.16"/>
      <path d="M803.0 323.85 L803.0 318.85"/>
      <path d="M774.5 331.49 L772.0 327.16"/>
      <path d="M753.64 352.35 L749.31 349.85"/>
      <path d="M746.0 380.85 L741.0 380.85"/>
      <path d="M753.64 409.35 L749.31 411.85"/>
      <path d="M774.5 430.21 L772.0 434.54"/>
      <circle cx="917.0" cy="380.85" r="42"/>
      <circle cx="917.0" cy="380.85" r="47"/>
      <path d="M917.0 437.85 L917.0 442.85"/>
      <path d="M945.5 430.21 L948.0 434.54"/>
      <path d="M966.36 409.35 L970.69 411.85"/>
      <path d="M974.0 380.85 L979.0 380.85"/>
      <path d="M966.36 352.35 L970.69 349.85"/>
      <path d="M945.5 331.49 L948.0 327.16"/>
      <path d="M917.0 323.85 L917.0 318.85"/>
      <path d="M888.5 331.49 L886.0 327.16"/>
      <path d="M867.64 352.35 L863.31 349.85"/>
      <path d="M860.0 380.85 L855.0 380.85"/>
      <path d="M867.64 409.35 L863.31 411.85"/>
      <path d="M888.5 430.21 L886.0 434.54"/>
      <circle cx="1031.0" cy="380.85" r="42"/>
      <circle cx="176.0" cy="477.75" r="42"/>
      <path d="M176.0 529.75 L176.0 534.75"/>
      <path d="M202.0 522.78 L204.5 527.11"/>
      <path d="M221.03 503.75 L225.36 506.25"/>
      <path d="M228.0 477.75 L233.0 477.75"/>
      <path d="M221.03 451.75 L225.36 449.25"/>
      <path d="M202.0 432.72 L204.5 428.39"/>
      <path d="M176.0 425.75 L176.0 420.75"/>
      <path d="M150.0 432.72 L147.5 428.39"/>
      <path d="M130.97 451.75 L126.64 449.25"/>
      <path d="M124.0 477.75 L119.0 477.75"/>
      <path d="M130.97 503.75 L126.64 506.25"/>
      <path d="M150.0 522.78 L147.5 527.11"/>
      <circle cx="451.0" cy="477.75" r="5"/>
      <circle cx="444.7" cy="501.25" r="5"/>
      <circle cx="427.5" cy="518.45" r="5"/>
      <circle cx="404.0" cy="524.75" r="5"/>
      <circle cx="380.5" cy="518.45" r="5"/>
      <circle cx="363.3" cy="501.25" r="5"/>
      <circle cx="357.0" cy="477.75" r="5"/>
      <circle cx="363.3" cy="454.25" r="5"/>
      <circle cx="380.5" cy="437.05" r="5"/>
      <circle cx="404.0" cy="430.75" r="5"/>
      <circle cx="427.5" cy="437.05" r="5"/>
      <circle cx="444.7" cy="454.25" r="5"/>
      <path d="M632.0 524.75 L632.0 529.75"/>
      <path d="M655.5 518.45 L658.0 522.78"/>
      <path d="M672.7 501.25 L677.03 503.75"/>
      <path d="M679.0 477.75 L684.0 477.75"/>
      <path d="M672.7 454.25 L677.03 451.75"/>
      <path d="M655.5 437.05 L658.0 432.72"/>
      <path d="M632.0 430.75 L632.0 425.75"/>
      <path d="M608.5 437.05 L606.0 432.72"/>
      <path d="M591.3 454.25 L586.97 451.75"/>
      <path d="M585.0 477.75 L580.0 477.75"/>
      <path d="M591.3 501.25 L586.97 503.75"/>
      <path d="M608.5 518.45 L606.0 522.78"/>
      <circle cx="793.0" cy="477.75" r="5"/>
      <circle cx="786.7" cy="501.25" r="5"/>
      <circle cx="769.5" cy="518.45" r="5"/>
      <circle cx="746.0" cy="524.75" r="5"/>
      <circle cx="722.5" cy="518.45" r="5"/>
      <circle cx="705.3" cy="501.25" r="5"/>
      <circle cx="699.0" cy="477.75" r="5"/>
      <circle cx="705.3" cy="454.25" r="5"/>
      <circle cx="722.5" cy="437.05" r="5"/>
      <circle cx="746.0" cy="430.75" r="5"/>
      <circle cx="769.5" cy="437.05" r="5"/>
      <circle cx="786.7" cy="454.25" r="5"/>
      <path d="M860.0 524.75 L860.0 529.75"/>
      <path d="M883.5 518.45 L886.0 522.78"/>
      <path d="M900.7 501.25 L905.03 503.75"/>
      <path d="M907.0 477.75 L912.0 477.75"/>
      <path d="M900.7 454.25 L905.03 451.75"/>
      <path d="M883.5 437.05 L886.0 432.72"/>
      <path d="M860.0 430.75 L860.0 425.75"/>
      <path d="M836.5 437.05 L834.0 432.72"/>
      <path d="M819.3 454.25 L814.97 451.75"/>
      <path d="M813.0 477.75 L808.0 477.75"/>
      <path d="M819.3 501.25 L814.97 503.75"/>
      <path d="M836.5 518.45 L834.0 522.78"/>
      <circle cx="119.0" cy="574.65" r="42"/>
      <circle cx="119.0" cy="574.65" r="47"/>
      <circle cx="119.0" cy="574.65" r="52"/>
      <circle cx="233.0" cy="574.65" r="42"/>
      <circle cx="347.0" cy="574.65" r="42"/>
      <path d="M347.0 626.65 L347.0 631.65"/>
      <path d="M373.0 619.68 L375.5 624.01"/>
      <path d="M392.03 600.65 L396.36 603.15"/>
      <path d="M399.0 574.65 L404.0 574.65"/>
      <path d="M392.03 548.65 L396.36 546.15"/>
      <path d="M373.0 529.62 L375.5 525.29"/>
      <path d="M347.0 522.65 L347.0 517.65"/>
      <path d="M321.0 529.62 L318.5 525.29"/>
      <path d="M301.97 548.65 L297.64 546.15"/>
      <path d="M295.0 574.65 L290.0 574.65"/>
      <path d="M301.97 600.65 L297.64 603.15"/>
      <path d="M321.0 619.68 L318.5 624.01"/>
      <path d="M575.0 621.65 L575.0 626.65"/>
      <path d="M598.5 615.35 L601.0 619.68"/>
      <path d="M615.7 598.15 L620.03 600.65"/>
      <path d="M622.0 574.65 L627.0 574.65"/>
      <path d="M615.7 551.15 L620.03 548.65"/>
      <path d="M598.5 533.95 L601.0 529.62"/>
      <path d="M575.0 527.65 L575.0 522.65"/>
      <path d="M551.5 533.95 L549.0 529.62"/>
      <path d="M534.3 551.15 L529.97 548.65"/>
      <path d="M528.0 574.65 L523.0 574.65"/>
      <path d="M534.3 598.15 L529.97 600.65"/>
      <path d="M551.5 615.35 L549.0 619.68"/>
      <path d="M689.0 621.65 L689.0 626.65"/>
      <path d="M712.5 615.35 L715.0 619.68"/>
      <path d="M729.7 598.15 L734.03 600.65"/>
      <path d="M736.0 574.65 L741.0 574.65"/>
      <path d="M729.7 551.15 L734.03 548.65"/>
      <path d="M712.5 533.95 L715.0 529.62"/>
      <path d="M689.0 527.65 L689.0 522.65"/>
      <path d="M665.5 533.95 L663.0 529.62"/>
      <path d="M648.3 551.15 L643.97 548.65"/>
      <path d="M642.0 574.65 L637.0 574.65"/>
      <path d="M648.3 598.15 L643.97 600.65"/>
      <path d="M665.5 615.35 L663.0 619.68"/>
      <circle cx="850.0" cy="574.65" r="5"/>
      <circle cx="843.7" cy="598.15" r="5"/>
      <circle cx="826.5" cy="615.35" r="5"/>
      <circle cx="803.0" cy="621.65" r="5"/>
      <circle cx="779.5" cy="615.35" r="5"/>
      <circle cx="762.3" cy="598.15" r="5"/>
      <circle cx="756.0" cy="574.65" r="5"/>
      <circle cx="762.3" cy="551.15" r="5"/>
      <circle cx="779.5" cy="533.95" r="5"/>
      <circle cx="803.0" cy="527.65" r="5"/>
      <circle cx="826.5" cy="533.95" r="5"/>
      <circle cx="843.7" cy="551.15" r="5"/>
      <circle cx="404.0" cy="671.55" r="42"/>
      <path d="M404.0 723.55 L404.0 728.55"/>
      <path d="M430.0 716.58 L432.5 720.91"/>
      <path d="M449.03 697.55 L453.36 700.05"/>
      <path d="M456.0 671.55 L461.0 671.55"/>
      <path d="M449.03 645.55 L453.36 643.05"/>
      <path d="M430.0 626.52 L432.5 622.19"/>
      <path d="M404.0 619.55 L404.0 614.55"/>
      <path d="M378.0 626.52 L375.5 622.19"/>
      <path d="M358.97 645.55 L354.64 643.05"/>
      <path d="M352.0 671.55 L347.0 671.55"/>
      <path d="M358.97 697.55 L354.64 700.05"/>
      <path d="M378.0 716.58 L375.5 720.91"/>
      <circle cx="632.0" cy="671.55" r="42"/>
      <circle cx="632.0" cy="671.55" r="47"/>
      <circle cx="746.0" cy="671.55" r="42"/>
      <circle cx="907.0" cy="671.55" r="5"/>
      <circle cx="900.7" cy="695.05" r="5"/>
      <circle cx="883.5" cy="712.25" r="5"/>
      <circle cx="860.0" cy="718.55" r="5"/>
      <circle cx="836.5" cy="712.25" r="5"/>
      <circle cx="819.3" cy="695.05" r="5"/>
      <circle cx="813.0" cy="671.55" r="5"/>
      <circle cx="819.3" cy="648.05" r="5"/>
      <circle cx="836.5" cy="630.85" r="5"/>
      <circle cx="860.0" cy="624.55" r="5"/>
      <circle cx="883.5" cy="630.85" r="5"/>
      <circle cx="900.7" cy="648.05" r="5"/>
      <circle cx="974.0" cy="671.55" r="42"/>
      <circle cx="974.0" cy="671.55" r="47"/>
      <path d="M974.0 728.55 L974.0 733.55"/>
      <path d="M1002.5 720.91 L1005.0 725.24"/>
      <path d="M1023.36 700.05 L1027.69 702.55"/>
      <path d="M1031.0 671.55 L1036.0 671.55"/>
      <path d="M1023.36 643.05 L1027.69 640.55"/>
      <path d="M1002.5 622.19 L1005.0 617.86"/>
      <path d="M974.0 614.55 L974.0 609.55"/>
      <path d="M945.5 622.19 L943.0 617.86"/>
      <path d="M924.64 643.05 L920.31 640.55"/>
      <path d="M917.0 671.55 L912.0 671.55"/>
      <path d="M924.64 700.05 L920.31 702.55"/>
      <path d="M945.5 720.91 L943.0 725.24"/>
    </g>
  </g>
</svg>
