<svg version="1.1" width="1150" height="870" xmlns="http://www.w3.org/2000/svg">
  <!-- Seed: 1 -->
  <!-- Size: SvgSize.Size9x12 -->
  <!-- No params -->
  <g stroke="black" fill="none">
    <path d="M100 100L108.23507601010236 105.67305236251497M112.35261401515353 108.50957854377245L120.5876900252559 114.18263090628741M124.70522803030707 117.0191570875449L132.94030404040944 122.69220945005986M137.05784204546063 125.52873563131735L145.292918055563 131.2017879938323M149.4104560606142 134.0383141750898L157.64553207071657 139.71136653760476M161.76307007576776 142.54789271886224L169.99814608587013 148.2209450813772M174.11568409092132 151.0574712626347L182.3507601010237 156.73052362514966M186.46829810607488 159.56704980640714L194.70337411617726 165.2401021689221M198.82091212122845 168.0766283501796L207.05598813133082 173.74968071269456M211.173526136382 176.58620689395204L219.40860214648438 182.259259256467M223.52614015153557 185.0957854377245L231.76121616163795 190.76883780023945M235.87875416668913 193.60536398149694L244.1138301767915 199.2784163440119M248.2313681818427 202.11494252526938L256.4664441919451 207.78799488778435M260.58398219699626 210.62452106904183L268.81905820709864 216.2975734315568M272.9365962121498 219.13409961281428L281.1716722222522 224.80715197532925M285.2892102273034 227.64367815658673L293.52428623740576 233.3167305191017M297.64182424245695 236.15325670035918L305.8769002525593 241.82630906287415M309.9944382576105 244.66283524413163L318.2295142677129 250.3358876066466M322.3470522727641 253.17241378790408L330.58212828286645 258.84546615041904M334.69966628791764 261.6819923316765L342.93474229802 267.35504469419146M347.0522803030712 270.1915708754489L355.2873563131736 275.8646232379639M359.40489431822476 278.70114941922134L367.63997032832714 284.3742017817363M371.7575083333783 287.21072796299376L379.9925843434807 292.8837803255087M384.1101223485319 295.7203065067662L392.34519835863426 301.39335886928114M396.46273636368545 304.2298850505386L404.6978123737878 309.90293741305356M408.815350378839 312.739463594311L417.0504263889414 318.412515956826M421.1679643939926 321.24904213808344L429.40304040409495 326.9220945005984M433.52057840914614 329.75862068185586L441.7556544192485 335.4316730443708M445.8731924242997 338.2681992256283L454.1082684344021 343.94125158814325M458.22580643945327 346.7777777694007L466.46088244955564 352.45083013191567M470.5784204546068 355.2873563131731L478.8134964647092 360.9604086756881M482.9310344697604 363.79693485694554L491.16611047986277 369.4699872194605M495.28364848491395 372.30651340071796L503.51872449501633 377.9795657632329M507.6362625000675 380.8160919444904L515.8713385101698 386.48914430700535M519.988876515221 389.3256704882628L528.2239525253234 394.99872285077777M532.3414905303746 397.8352490320352L540.576566540477 403.5083013945502M544.6941045455281 406.34482757580764L552.9291805556305 412.0178799383226M557.0467185606817 414.85440611958006L565.2817945707841 420.527458482095M569.3993325758353 423.3639846633525L577.6344085859376 429.03703702586745M581.7519465909888 431.8735632071249L589.9870226010912 437.54661556963987M594.1045606061424 440.3831417508973L602.3396366162448 446.0561941134123M606.457174621296 448.89272029466974L614.6922506313983 454.5657726571847M618.8097886364495 457.40229883844216L627.0448646465519 463.07535120095713M631.1624026516031 465.9118773822146L639.3974786617055 471.58492974472955M643.5150166667567 474.421455925987L651.750092676859 480.09450828850197M655.8676306819102 482.9310344697594L664.1027066920126 488.6040868322744M668.2202446970638 491.44061301353184L676.4553207071662 497.1136653760468M680.5728587122173 499.95019155730427L688.8079347223197 505.62324391981923M692.9254727273709 508.4597701010767L701.1605487374733 514.1328224635917M705.2780867425245 516.9693486448491L713.5131627526268 522.642401007364M717.630700757678 525.4789271886215L725.8657767677804 531.1519795511364M729.9833147728316 533.9885057323938L738.218390782934 539.6615580949087M742.3359287879852 542.4980842761662L750.5710047980875 548.1711366386811M754.6885428031387 551.0076628199386L762.9236188132411 556.6807151824535M767.0411568182923 559.5172413637109L775.2762328283947 565.1902937262258M779.3937708334458 568.0268199074833L787.6288468435482 573.6998722699982M791.7463848485994 576.5363984512556L799.9814608587018 582.2094508137706M804.098998863753 585.045976995028L812.3340748738553 590.7190293575429M816.4516128789065 593.5555555388004L824.6866888890089 599.2286079013153M828.8042268940601 602.0651340825727L837.0393029041625 607.7381864450876M841.1568409092137 610.5747126263451L849.391916919316 616.24776498886M853.5094549243672 619.0842911701175L861.7445309344696 624.7573435326324M865.8620689395208 627.5938697138898L874.0971449496232 633.2669220764047M878.2146829546743 636.1034482576622L886.4497589647767 641.7765006201771M890.5672969698279 644.6130268014346L898.8023729799303 650.2860791639495M902.9199109849815 653.1226053452069L911.1549869950838 658.7956577077218M915.272525000135 661.6321838889793L923.5076010102374 667.3052362514942M927.6251390152886 670.1417624327516L935.860215025391 675.8148147952666M939.9777530304422 678.651340976524L948.2128290405445 684.3243933390389M952.3303670455957 687.1609195202964L960.5654430556981 692.8339718828113M964.6829810607493 695.6704980640687L972.9180570708517 701.3435504265836M977.0355950759028 704.1800766078411L985.2706710860052 709.853128970356M989.3882090910564 712.6896551516135L997.6232851011588 718.3627075141284"/>
    <g stroke="red">
      <rect x="50" y="50" width="1050" height="770"/>
    </g>
  </g>
</svg>
