<svg version="1.1" width="1150" height="870" xmlns="http://www.w3.org/2000/svg">
  <!-- Seed: 9147861020069358857 -->
  <g stroke="black" fill="none">
    <path d="M212.5 200v-50m-12.5 0h25.0"/>
    <path d="M230.0 187.5h25.0q0 -12.5 -12.5 -12.5q-12.5 0 -12.5 12.5q0 12.5 12.5 12.5h12.5"/>
    <path d="M260.0 200h18.75q6.25 0 6.25 -6.25q0 -6.25 -6.25 -6.25h-12.5q-6.25 0 -6.25 -6.25q0 -6.25 6.25 -6.25h18.75"/>
    <path d="M302.5 200v-37.5m-12.5 12.5h25.0"/>
    <path d="M362.5 200v-50m-12.5 0h25.0"/>
    <path d="M380.0 187.5h25.0q0 -12.5 -12.5 -12.5q-12.5 0 -12.5 12.5q0 12.5 12.5 12.5h12.5"/>
    <path d="M410.0 175.0l25.0 25.0m0 -25.0l-25.0 25.0"/>
    <path d="M452.5 200v-37.5m-12.5 12.5h25.0"/>
    <g stroke="red">
      <rect x="50" y="50" width="1050" height="770"/>
    </g>
  </g>
</svg>
