<svg version="1.1" width="1150" height="870" xmlns="http://www.w3.org/2000/svg">
  <!-- Seed: 2045667034724665042 -->
  <!-- Size: SvgSize.Size9x12 -->
  <!-- Params:
    draw_circles: True
    draw_border: False
    rotate_range: 0.3141592653589793
    ring_pad: 5
    ring_weights: [(0, 5), (1, 2), (2, 1), (3, 0.5)]
    border_weights: [(<BorderType.Empty: 0>, 5), (<BorderType.Circles: 1>, 1), (<BorderType.Starburst: 2>, 2)]
    padding: 0
    size_range: [RangeInt] min: 20 max: 350
    size_pad: 20
    origin_shuffle_range: 0
  -->
  <g stroke="black" fill="none">
    <path d="M129.0 187.05Q135.98 187.91 142.0 187.0Q147.77 195.54 156.0 187.0"/>
    <path d="M128.4 190.47Q134.66 193.67 140.63 194.87Q143.13 204.87 153.79 199.66"/>
    <path d="M126.66 193.48Q131.45 198.62 136.65 201.8Q135.58 212.05 147.38 210.79"/>
    <path d="M124.0 195.71Q126.74 202.18 130.54 206.94Q126.03 216.21 137.54 219.07"/>
    <path d="M120.74 196.9Q121.1 203.92 123.04 209.69Q115.63 216.86 125.47 223.48"/>
    <path d="M117.26 196.9Q115.2 203.62 115.06 209.71Q105.64 213.91 112.62 223.5"/>
    <path d="M114.0 195.71Q109.76 201.32 107.54 206.99Q97.26 207.72 100.54 219.12"/>
    <path d="M111.34 193.48Q105.44 197.3 101.41 201.87Q91.5 199.04 90.69 210.87"/>
    <path d="M109.6 190.47Q102.75 192.05 97.4 194.96Q89.06 188.91 84.25 199.75"/>
    <path d="M109.0 187.05Q102.02 186.19 96.0 187.1Q90.23 178.56 82.0 187.1"/>
    <path d="M109.6 183.63Q103.34 180.43 97.37 179.23Q94.87 169.23 84.21 174.44"/>
    <path d="M111.34 180.62Q106.55 175.48 101.35 172.3Q102.42 162.05 90.62 163.31"/>
    <path d="M114.0 178.39Q111.26 171.92 107.46 167.16Q111.97 157.89 100.46 155.03"/>
    <path d="M117.26 177.2Q116.9 170.18 114.96 164.41Q122.37 157.24 112.53 150.62"/>
    <path d="M120.74 177.2Q122.8 170.48 122.94 164.39Q132.36 160.19 125.38 150.6"/>
    <path d="M124.0 178.39Q128.24 172.78 130.46 167.11Q140.74 166.38 137.46 154.98"/>
    <path d="M126.66 180.62Q132.56 176.8 136.59 172.23Q146.5 175.06 147.31 163.23"/>
    <path d="M128.4 183.63Q135.25 182.05 140.6 179.14Q148.94 185.19 153.75 174.35"/>
    <path d="M243.0 187.05Q249.98 186.23 256.0 187.0Q262.99 187.62 270.0 187.0"/>
    <path d="M242.4 190.47Q249.24 192.08 254.63 194.87Q260.99 197.85 267.79 199.66"/>
    <path d="M240.66 193.48Q246.54 197.33 250.65 201.8Q255.61 206.77 261.38 210.79"/>
    <path d="M238.0 195.71Q242.2 201.34 244.54 206.94Q247.5 213.31 251.54 219.07"/>
    <path d="M234.74 196.9Q236.76 203.63 237.04 209.69Q237.64 216.69 239.47 223.48"/>
    <path d="M231.26 196.9Q230.86 203.92 229.06 209.71Q227.23 216.49 226.62 223.5"/>
    <path d="M228.0 195.71Q225.22 202.17 221.54 206.99Q217.51 212.74 214.54 219.12"/>
    <path d="M225.34 193.48Q220.52 198.59 215.41 201.87Q209.65 205.89 204.69 210.87"/>
    <path d="M223.6 190.47Q217.33 193.63 211.4 194.96Q204.62 196.77 198.25 199.75"/>
    <path d="M223.0 187.05Q216.02 187.87 210.0 187.1Q203.01 186.48 196.0 187.1"/>
    <path d="M223.6 183.63Q216.76 182.02 211.37 179.23Q205.01 176.25 198.21 174.44"/>
    <path d="M225.34 180.62Q219.46 176.77 215.35 172.3Q210.39 167.33 204.62 163.31"/>
    <path d="M228.0 178.39Q223.8 172.76 221.46 167.16Q218.5 160.79 214.46 155.03"/>
    <path d="M231.26 177.2Q229.24 170.47 228.96 164.41Q228.36 157.41 226.53 150.62"/>
    <path d="M234.74 177.2Q235.14 170.18 236.94 164.39Q238.77 157.61 239.38 150.6"/>
    <path d="M238.0 178.39Q240.78 171.93 244.46 167.11Q248.49 161.36 251.46 154.98"/>
    <path d="M240.66 180.62Q245.48 175.51 250.59 172.23Q256.35 168.21 261.31 163.23"/>
    <path d="M242.4 183.63Q248.67 180.47 254.6 179.14Q261.38 177.33 267.75 174.35"/>
    <path d="M357.0 187.05Q363.67 190.37 370.0 187.0Q375.64 195.99 384.0 187.0"/>
    <path d="M356.4 190.47Q361.53 195.87 368.63 194.87Q370.85 205.25 381.79 199.66"/>
    <path d="M354.66 193.48Q357.64 200.31 364.65 201.8Q363.19 212.31 375.38 210.79"/>
    <path d="M352.0 195.71Q352.46 203.15 358.54 206.94Q353.57 216.32 365.54 219.07"/>
    <path d="M348.74 196.9Q346.63 204.05 351.04 209.69Q343.17 216.8 353.47 223.48"/>
    <path d="M345.26 196.9Q340.84 202.89 343.06 209.71Q333.22 213.7 340.62 223.5"/>
    <path d="M342.0 195.71Q335.79 199.83 335.54 206.99Q324.94 207.38 328.54 219.12"/>
    <path d="M339.34 193.48Q332.09 195.23 329.41 201.87Q319.31 198.61 318.69 210.87"/>
    <path d="M337.6 190.47Q330.2 189.63 325.4 194.96Q317.03 188.44 312.25 199.75"/>
    <path d="M337.0 187.05Q330.33 183.73 324.0 187.1Q318.36 178.11 310.0 187.1"/>
    <path d="M337.6 183.63Q332.47 178.23 325.37 179.23Q323.15 168.85 312.21 174.44"/>
    <path d="M339.34 180.62Q336.36 173.79 329.35 172.3Q330.81 161.79 318.62 163.31"/>
    <path d="M342.0 178.39Q341.54 170.95 335.46 167.16Q340.43 157.78 328.46 155.03"/>
    <path d="M345.26 177.2Q347.37 170.05 342.96 164.41Q350.83 157.3 340.53 150.62"/>
    <path d="M348.74 177.2Q353.16 171.21 350.94 164.39Q360.78 160.4 353.38 150.6"/>
    <path d="M352.0 178.39Q358.21 174.27 358.46 167.11Q369.06 166.72 365.46 154.98"/>
    <path d="M354.66 180.62Q361.91 178.87 364.59 172.23Q374.69 175.49 375.31 163.23"/>
    <path d="M356.4 183.63Q363.8 184.47 368.6 179.14Q376.97 185.66 381.75 174.35"/>
    <path d="M471.0 187.05Q478.0 186.86 484.0 187.0Q490.54 181.84 498.0 187.0"/>
    <path d="M470.4 190.47Q477.04 192.69 482.63 194.87Q490.55 192.25 495.79 199.66"/>
    <path d="M468.66 193.48Q474.14 197.83 478.65 201.8Q486.98 202.05 489.38 210.79"/>
    <path d="M466.0 195.71Q469.66 201.68 472.54 206.94Q480.29 210.03 479.54 219.07"/>
    <path d="M462.74 196.9Q464.14 203.76 465.04 209.69Q471.27 215.24 467.47 223.48"/>
    <path d="M459.26 196.9Q458.23 203.82 457.06 209.71Q461.0 217.05 454.62 223.5"/>
    <path d="M456.0 195.71Q452.66 201.87 449.54 206.99Q450.74 215.24 442.54 219.12"/>
    <path d="M453.34 193.48Q448.1 198.12 443.41 201.87Q441.72 210.03 432.69 210.87"/>
    <path d="M451.6 190.47Q445.09 193.04 439.4 194.96Q435.02 202.05 426.25 199.75"/>
    <path d="M451.0 187.05Q444.0 187.24 438.0 187.1Q431.46 192.26 424.0 187.1"/>
    <path d="M451.6 183.63Q444.96 181.41 439.37 179.23Q431.45 181.85 426.21 174.44"/>
    <path d="M453.34 180.62Q447.86 176.27 443.35 172.3Q435.02 172.05 432.62 163.31"/>
    <path d="M456.0 178.39Q452.34 172.42 449.46 167.16Q441.71 164.07 442.46 155.03"/>
    <path d="M459.26 177.2Q457.86 170.34 456.96 164.41Q450.73 158.86 454.53 150.62"/>
    <path d="M462.74 177.2Q463.77 170.28 464.94 164.39Q461.0 157.05 467.38 150.6"/>
    <path d="M466.0 178.39Q469.34 172.23 472.46 167.11Q471.26 158.86 479.46 154.98"/>
    <path d="M468.66 180.62Q473.9 175.98 478.59 172.23Q480.28 164.07 489.31 163.23"/>
    <path d="M470.4 183.63Q476.91 181.06 482.6 179.14Q486.98 172.05 495.75 174.35"/>
    <path d="M585.0 187.05Q591.7 183.86 598.0 187.0Q604.73 191.1 612.0 187.0"/>
    <path d="M584.4 190.47Q591.78 189.76 596.63 194.87Q601.55 201.02 609.79 199.66"/>
    <path d="M582.66 193.48Q589.84 195.34 592.65 201.8Q595.17 209.26 603.38 210.79"/>
    <path d="M580.0 195.71Q586.11 199.91 586.54 206.94Q586.36 214.82 593.54 219.07"/>
    <path d="M576.74 196.9Q581.04 202.94 579.04 209.69Q576.18 217.03 581.47 223.48"/>
    <path d="M573.26 196.9Q575.24 204.05 571.06 209.71Q565.85 215.62 568.62 223.5"/>
    <path d="M570.0 195.71Q569.42 203.11 563.54 206.99Q556.63 210.77 556.54 219.12"/>
    <path d="M567.34 193.48Q564.26 200.23 557.41 201.87Q549.63 203.06 546.69 210.87"/>
    <path d="M565.6 190.47Q560.4 195.76 553.4 194.96Q545.68 193.42 540.25 199.75"/>
    <path d="M565.0 187.05Q558.3 190.24 552.0 187.1Q545.27 183.0 538.0 187.1"/>
    <path d="M565.6 183.63Q558.22 184.34 553.37 179.23Q548.45 173.08 540.21 174.44"/>
    <path d="M567.34 180.62Q560.16 178.76 557.35 172.3Q554.83 164.84 546.62 163.31"/>
    <path d="M570.0 178.39Q563.89 174.19 563.46 167.16Q563.64 159.28 556.46 155.03"/>
    <path d="M573.26 177.2Q568.96 171.16 570.96 164.41Q573.82 157.07 568.53 150.62"/>
    <path d="M576.74 177.2Q574.76 170.05 578.94 164.39Q584.15 158.48 581.38 150.6"/>
    <path d="M580.0 178.39Q580.58 170.99 586.46 167.11Q593.37 163.33 593.46 154.98"/>
    <path d="M582.66 180.62Q585.74 173.87 592.59 172.23Q600.37 171.04 603.31 163.23"/>
    <path d="M584.4 183.63Q589.6 178.34 596.6 179.14Q604.32 180.68 609.75 174.35"/>
    <path d="M699.0 187.05Q705.79 189.72 712.0 187.0Q717.73 195.69 726.0 187.0"/>
    <path d="M698.4 190.47Q703.87 195.3 710.63 194.87Q713.04 205.0 723.79 199.66"/>
    <path d="M696.66 193.48Q700.15 199.88 706.65 201.8Q705.45 212.14 717.38 210.79"/>
    <path d="M694.0 195.71Q695.09 202.92 700.54 206.94Q695.88 216.25 707.54 219.07"/>
    <path d="M690.74 196.9Q689.29 204.05 693.04 209.69Q685.48 216.84 695.47 223.48"/>
    <path d="M687.26 196.9Q683.46 203.12 685.06 209.71Q675.5 213.84 682.62 223.5"/>
    <path d="M684.0 195.71Q678.3 200.26 677.54 206.99Q667.15 207.61 670.54 219.12"/>
    <path d="M681.34 193.48Q674.42 195.8 671.41 201.87Q661.44 198.9 660.69 210.87"/>
    <path d="M679.6 190.47Q672.31 190.29 667.4 194.96Q659.05 188.75 654.25 199.75"/>
    <path d="M679.0 187.05Q672.21 184.38 666.0 187.1Q660.27 178.41 652.0 187.1"/>
    <path d="M679.6 183.63Q674.13 178.8 667.37 179.23Q664.96 169.1 654.21 174.44"/>
    <path d="M681.34 180.62Q677.85 174.22 671.35 172.3Q672.55 161.96 660.62 163.31"/>
    <path d="M684.0 178.39Q682.91 171.18 677.46 167.16Q682.12 157.85 670.46 155.03"/>
    <path d="M687.26 177.2Q688.71 170.05 684.96 164.41Q692.52 157.26 682.53 150.62"/>
    <path d="M690.74 177.2Q694.54 170.98 692.94 164.39Q702.5 160.26 695.38 150.6"/>
    <path d="M694.0 178.39Q699.7 173.84 700.46 167.11Q710.85 166.49 707.46 154.98"/>
    <path d="M696.66 180.62Q703.58 178.3 706.59 172.23Q716.56 175.2 717.31 163.23"/>
    <path d="M698.4 183.63Q705.69 183.81 710.6 179.14Q718.95 185.35 723.75 174.35"/>
    <path d="M813.0 187.05Q819.58 190.8 826.0 187.0Q832.76 190.84 840.0 187.0"/>
    <path d="M812.4 190.47Q817.3 196.25 824.63 194.87Q829.67 200.79 837.79 199.66"/>
    <path d="M810.66 193.48Q813.29 200.58 820.65 201.8Q823.36 209.08 831.38 210.79"/>
    <path d="M808.0 195.71Q808.04 203.29 814.54 206.94Q814.6 214.72 821.54 219.07"/>
    <path d="M804.74 196.9Q802.19 204.03 807.04 209.69Q804.44 217.02 809.47 223.48"/>
    <path d="M801.26 196.9Q796.43 202.73 799.06 209.71Q794.1 215.7 796.62 223.5"/>
    <path d="M798.0 195.71Q791.46 199.53 791.54 206.99Q784.84 210.93 784.54 219.12"/>
    <path d="M795.34 193.48Q787.89 194.83 785.41 201.87Q777.77 203.28 774.69 210.87"/>
    <path d="M793.6 190.47Q786.14 189.2 781.4 194.96Q773.74 193.67 768.25 199.75"/>
    <path d="M793.0 187.05Q786.42 183.3 780.0 187.1Q773.24 183.26 766.0 187.1"/>
    <path d="M793.6 183.63Q788.7 177.85 781.37 179.23Q776.33 173.31 768.21 174.44"/>
    <path d="M795.34 180.62Q792.71 173.52 785.35 172.3Q782.64 165.02 774.62 163.31"/>
    <path d="M798.0 178.39Q797.96 170.81 791.46 167.16Q791.4 159.38 784.46 155.03"/>
    <path d="M801.26 177.2Q803.81 170.07 798.96 164.41Q801.56 157.08 796.53 150.62"/>
    <path d="M804.74 177.2Q809.57 171.37 806.94 164.39Q811.9 158.4 809.38 150.6"/>
    <path d="M808.0 178.39Q814.54 174.57 814.46 167.11Q821.16 163.17 821.46 154.98"/>
    <path d="M810.66 180.62Q818.11 179.27 820.59 172.23Q828.23 170.82 831.31 163.23"/>
    <path d="M812.4 183.63Q819.86 184.9 824.6 179.14Q832.26 180.43 837.75 174.35"/>
    <path d="M927.0 187.05Q933.9 188.91 940.0 187.0Q946.01 179.42 954.0 187.0"/>
    <path d="M926.4 190.47Q932.24 194.58 938.63 194.87Q946.87 189.8 951.79 199.66"/>
    <path d="M924.66 193.48Q928.75 199.34 934.65 201.8Q944.13 199.85 945.38 210.79"/>
    <path d="M922.0 195.71Q923.84 202.61 928.54 206.94Q938.12 208.36 935.54 219.07"/>
    <path d="M918.74 196.9Q918.1 204.01 921.04 209.69Q929.55 214.3 923.47 223.48"/>
    <path d="M915.26 196.9Q912.23 203.37 913.06 209.71Q919.48 216.95 910.62 223.5"/>
    <path d="M912.0 195.71Q906.94 200.75 905.54 206.99Q909.1 215.99 898.54 219.12"/>
    <path d="M909.34 193.48Q902.86 196.49 899.41 201.87Q899.68 211.55 888.69 210.87"/>
    <path d="M907.6 190.47Q900.48 191.08 895.4 194.96Q892.35 204.14 882.25 199.75"/>
    <path d="M907.0 187.05Q900.1 185.19 894.0 187.1Q887.99 194.68 880.0 187.1"/>
    <path d="M907.6 183.63Q901.76 179.52 895.37 179.23Q887.13 184.3 882.21 174.44"/>
    <path d="M909.34 180.62Q905.25 174.76 899.35 172.3Q889.87 174.25 888.62 163.31"/>
    <path d="M912.0 178.39Q910.16 171.49 905.46 167.16Q895.88 165.74 898.46 155.03"/>
    <path d="M915.26 177.2Q915.9 170.09 912.96 164.41Q904.45 159.8 910.53 150.62"/>
    <path d="M918.74 177.2Q921.77 170.73 920.94 164.39Q914.52 157.15 923.38 150.6"/>
    <path d="M922.0 178.39Q927.06 173.35 928.46 167.11Q924.9 158.11 935.46 154.98"/>
    <path d="M924.66 180.62Q931.14 177.61 934.59 172.23Q934.32 162.55 945.31 163.23"/>
    <path d="M926.4 183.63Q933.52 183.02 938.6 179.14Q941.65 169.96 951.75 174.35"/>
    <path d="M1041.0 187.05Q1047.58 190.81 1054.0 187.0Q1060.87 189.87 1068.0 187.0"/>
    <path d="M1040.4 190.47Q1045.29 196.25 1052.63 194.87Q1058.1 199.92 1065.79 199.66"/>
    <path d="M1038.66 193.48Q1041.29 200.59 1048.65 201.8Q1052.07 208.41 1059.38 210.79"/>
    <path d="M1036.0 195.71Q1036.04 203.29 1042.54 206.94Q1043.49 214.33 1049.54 219.07"/>
    <path d="M1032.74 196.9Q1030.18 204.03 1035.04 209.69Q1033.41 216.95 1037.47 223.48"/>
    <path d="M1029.26 196.9Q1024.42 202.73 1027.06 209.71Q1023.04 215.97 1024.62 223.5"/>
    <path d="M1026.0 195.71Q1019.46 199.53 1019.54 206.99Q1013.62 211.5 1012.54 219.12"/>
    <path d="M1023.34 193.48Q1015.88 194.83 1013.41 201.87Q1006.31 204.09 1002.69 210.87"/>
    <path d="M1021.6 190.47Q1014.14 189.19 1009.4 194.96Q1001.97 194.61 996.25 199.75"/>
    <path d="M1021.0 187.05Q1014.42 183.29 1008.0 187.1Q1001.13 184.23 994.0 187.1"/>
    <path d="M1021.6 183.63Q1016.71 177.85 1009.37 179.23Q1003.9 174.18 996.21 174.44"/>
    <path d="M1023.34 180.62Q1020.71 173.51 1013.35 172.3Q1009.93 165.69 1002.62 163.31"/>
    <path d="M1026.0 178.39Q1025.96 170.81 1019.46 167.16Q1018.51 159.77 1012.46 155.03"/>
    <path d="M1029.26 177.2Q1031.82 170.07 1026.96 164.41Q1028.59 157.15 1024.53 150.62"/>
    <path d="M1032.74 177.2Q1037.58 171.37 1034.94 164.39Q1038.96 158.13 1037.38 150.6"/>
    <path d="M1036.0 178.39Q1042.54 174.57 1042.46 167.11Q1048.38 162.6 1049.46 154.98"/>
    <path d="M1038.66 180.62Q1046.12 179.27 1048.59 172.23Q1055.69 170.01 1059.31 163.23"/>
    <path d="M1040.4 183.63Q1047.86 184.91 1052.6 179.14Q1060.03 179.49 1065.75 174.35"/>
    <path d="M186.0 283.95Q192.99 283.39 200.0 284.0Q205.1 276.65 213.0 284.0"/>
    <path d="M185.4 287.37Q192.16 289.23 198.54 292.21Q205.84 287.05 210.75 296.65"/>
    <path d="M183.66 290.38Q189.38 294.44 194.35 299.42Q202.98 297.07 204.31 307.77"/>
    <path d="M181.0 292.61Q184.98 298.38 187.96 304.76Q196.87 305.5 194.46 316.02"/>
    <path d="M177.74 293.8Q179.5 300.59 180.12 307.59Q188.24 311.34 182.38 320.4"/>
    <path d="M174.26 293.8Q173.6 300.78 171.78 307.58Q178.13 313.87 169.53 320.38"/>
    <path d="M171.0 292.61Q167.99 298.95 163.96 304.71Q167.77 312.8 157.46 315.97"/>
    <path d="M168.34 290.38Q163.35 295.3 157.58 299.34Q158.4 308.24 147.62 307.69"/>
    <path d="M166.6 287.37Q160.23 290.29 153.43 292.11Q151.15 300.76 141.21 296.56"/>
    <path d="M166.0 283.95Q159.01 284.51 152.0 283.9Q146.9 291.25 139.0 283.9"/>
    <path d="M166.6 280.53Q159.84 278.67 153.46 275.69Q146.16 280.85 141.25 271.25"/>
    <path d="M168.34 277.52Q162.62 273.46 157.65 268.48Q149.02 270.83 147.69 260.13"/>
    <path d="M171.0 275.29Q167.02 269.52 164.04 263.14Q155.13 262.4 157.54 251.88"/>
    <path d="M174.26 274.1Q172.5 267.31 171.88 260.31Q163.76 256.56 169.62 247.5"/>
    <path d="M177.74 274.1Q178.4 267.12 180.22 260.32Q173.87 254.03 182.47 247.52"/>
    <path d="M181.0 275.29Q184.01 268.95 188.04 263.19Q184.23 255.1 194.54 251.93"/>
    <path d="M183.66 277.52Q188.65 272.6 194.42 268.56Q193.6 259.66 204.38 260.21"/>
    <path d="M185.4 280.53Q191.77 277.61 198.57 275.79Q200.85 267.14 210.79 271.34"/>
    <path d="M300.0 283.95Q306.59 280.23 314.0 284.0Q318.57 293.09 327.0 284.0"/>
    <path d="M299.4 287.37Q306.86 286.13 312.54 292.21Q313.72 302.31 324.75 296.65"/>
    <path d="M297.66 290.38Q305.1 291.76 308.35 299.42Q306.01 309.32 318.31 307.77"/>
    <path d="M295.0 292.61Q301.52 296.46 301.96 304.76Q296.37 313.27 308.46 316.02"/>
    <path d="M291.74 293.8Q296.54 299.64 294.12 307.59Q285.96 313.68 296.38 320.4"/>
    <path d="M288.26 293.8Q290.78 300.93 285.78 307.58Q276.04 310.5 283.53 320.38"/>
    <path d="M285.0 292.61Q284.93 300.18 277.96 304.71Q267.8 304.12 271.46 315.97"/>
    <path d="M282.34 290.38Q279.68 297.46 271.58 299.34Q262.24 295.31 261.62 307.69"/>
    <path d="M280.6 287.37Q275.68 293.12 267.43 292.11Q260.02 285.13 255.21 296.56"/>
    <path d="M280.0 283.95Q273.41 287.67 266.0 283.9Q261.43 274.81 253.0 283.9"/>
    <path d="M280.6 280.53Q273.14 281.77 267.46 275.69Q266.28 265.59 255.25 271.25"/>
    <path d="M282.34 277.52Q274.9 276.14 271.65 268.48Q273.99 258.58 261.69 260.13"/>
    <path d="M285.0 275.29Q278.48 271.44 278.04 263.14Q283.63 254.63 271.54 251.88"/>
    <path d="M288.26 274.1Q283.46 268.26 285.88 260.31Q294.04 254.22 283.62 247.5"/>
    <path d="M291.74 274.1Q289.22 266.97 294.22 260.32Q303.96 257.4 296.47 247.52"/>
    <path d="M295.0 275.29Q295.07 267.72 302.04 263.19Q312.2 263.78 308.54 251.93"/>
    <path d="M297.66 277.52Q300.32 270.44 308.42 268.56Q317.76 272.59 318.38 260.21"/>
    <path d="M299.4 280.53Q304.32 274.78 312.57 275.79Q319.98 282.77 324.79 271.34"/>
    <path d="M414.0 283.95Q421.0 283.82 428.0 284.0Q433.69 279.67 441.0 284.0"/>
    <path d="M413.4 287.37Q420.02 289.64 426.54 292.21Q433.37 290.08 438.75 296.65"/>
    <path d="M411.66 290.38Q417.1 294.78 422.35 299.42Q429.5 299.76 432.31 307.77"/>
    <path d="M409.0 292.61Q412.61 298.61 415.96 304.76Q422.55 307.53 422.46 316.02"/>
    <path d="M405.74 293.8Q407.08 300.67 408.12 307.59Q413.37 312.45 410.38 320.4"/>
    <path d="M402.26 293.8Q401.17 300.71 399.78 307.58Q403.06 313.94 397.53 320.38"/>
    <path d="M399.0 292.61Q395.61 298.74 391.96 304.71Q392.86 311.8 385.46 315.97"/>
    <path d="M396.34 290.38Q391.06 294.98 385.58 299.34Q384.0 306.31 375.62 307.69"/>
    <path d="M394.6 287.37Q388.07 289.88 381.43 292.11Q377.56 298.13 369.21 296.56"/>
    <path d="M394.0 283.95Q387.0 284.08 380.0 283.9Q374.31 288.23 367.0 283.9"/>
    <path d="M394.6 280.53Q387.98 278.26 381.46 275.69Q374.63 277.82 369.25 271.25"/>
    <path d="M396.34 277.52Q390.9 273.12 385.65 268.48Q378.5 268.14 375.69 260.13"/>
    <path d="M399.0 275.29Q395.39 269.29 392.04 263.14Q385.45 260.37 385.54 251.88"/>
    <path d="M402.26 274.1Q400.92 267.23 399.88 260.31Q394.63 255.45 397.62 247.5"/>
    <path d="M405.74 274.1Q406.83 267.19 408.22 260.32Q404.94 253.96 410.47 247.52"/>
    <path d="M409.0 275.29Q412.39 269.16 416.04 263.19Q415.14 256.1 422.54 251.93"/>
    <path d="M411.66 277.52Q416.94 272.92 422.42 268.56Q424.0 261.59 432.38 260.21"/>
    <path d="M413.4 280.53Q419.93 278.02 426.57 275.79Q430.44 269.77 438.79 271.34"/>
    <path d="M528.0 283.95Q534.72 287.01 542.0 284.0Q547.96 282.48 555.0 284.0"/>
    <path d="M527.4 287.37Q532.67 292.55 540.54 292.21Q546.66 292.82 552.75 296.65"/>
    <path d="M525.66 290.38Q528.84 297.04 536.35 299.42Q541.9 302.08 546.31 307.77"/>
    <path d="M523.0 292.61Q523.71 299.96 529.96 304.76Q534.26 309.16 536.46 316.02"/>
    <path d="M519.74 293.8Q517.89 300.95 522.12 307.59Q524.65 313.2 524.38 320.4"/>
    <path d="M516.26 293.8Q512.08 299.89 513.78 307.58Q514.24 313.71 511.53 320.38"/>
    <path d="M513.0 292.61Q506.99 296.9 505.96 304.71Q504.29 310.63 499.46 315.97"/>
    <path d="M510.34 290.38Q503.22 292.35 499.58 299.34Q495.99 304.34 489.62 307.69"/>
    <path d="M508.6 287.37Q501.24 286.79 495.43 292.11Q490.35 295.58 483.21 296.56"/>
    <path d="M508.0 283.95Q501.28 280.89 494.0 283.9Q488.04 285.42 481.0 283.9"/>
    <path d="M508.6 280.53Q503.33 275.35 495.46 275.69Q489.34 275.08 483.25 271.25"/>
    <path d="M510.34 277.52Q507.16 270.86 499.65 268.48Q494.1 265.82 489.69 260.13"/>
    <path d="M513.0 275.29Q512.29 267.94 506.04 263.14Q501.74 258.74 499.54 251.88"/>
    <path d="M516.26 274.1Q518.11 266.95 513.88 260.31Q511.35 254.7 511.62 247.5"/>
    <path d="M519.74 274.1Q523.92 268.01 522.22 260.32Q521.76 254.19 524.47 247.52"/>
    <path d="M523.0 275.29Q529.01 271.0 530.04 263.19Q531.71 257.27 536.54 251.93"/>
    <path d="M525.66 277.52Q532.78 275.55 536.42 268.56Q540.01 263.56 546.38 260.21"/>
    <path d="M527.4 280.53Q534.76 281.11 540.57 275.79Q545.65 272.32 552.79 271.34"/>
    <path d="M642.0 283.95Q648.37 279.38 656.0 284.0Q660.57 293.1 669.0 284.0"/>
    <path d="M641.4 287.37Q648.95 285.26 654.54 292.21Q655.72 302.32 666.75 296.65"/>
    <path d="M639.66 290.38Q647.48 290.98 650.35 299.42Q648.01 309.32 660.31 307.77"/>
    <path d="M637.0 292.61Q644.14 295.85 643.96 304.76Q638.36 313.27 650.46 316.02"/>
    <path d="M633.74 293.8Q639.34 299.28 636.12 307.59Q627.95 313.68 638.38 320.4"/>
    <path d="M630.26 293.8Q633.65 300.87 627.78 307.58Q618.03 310.5 625.53 320.38"/>
    <path d="M627.0 292.61Q627.77 300.41 619.96 304.71Q609.79 304.12 613.46 315.97"/>
    <path d="M624.34 290.38Q622.39 297.97 613.58 299.34Q604.23 295.31 603.62 307.69"/>
    <path d="M622.6 287.37Q618.17 293.84 609.43 292.11Q602.02 285.12 597.21 296.56"/>
    <path d="M622.0 283.95Q615.63 288.52 608.0 283.9Q603.43 274.8 595.0 283.9"/>
    <path d="M622.6 280.53Q615.05 282.64 609.46 275.69Q608.28 265.58 597.25 271.25"/>
    <path d="M624.34 277.52Q616.52 276.92 613.65 268.48Q615.99 258.58 603.69 260.13"/>
    <path d="M627.0 275.29Q619.86 272.05 620.04 263.14Q625.64 254.63 613.54 251.88"/>
    <path d="M630.26 274.1Q624.66 268.62 627.88 260.31Q636.05 254.22 625.62 247.5"/>
    <path d="M633.74 274.1Q630.35 267.03 636.22 260.32Q645.97 257.4 638.47 247.52"/>
    <path d="M637.0 275.29Q636.23 267.49 644.04 263.19Q654.21 263.78 650.54 251.93"/>
    <path d="M639.66 277.52Q641.61 269.93 650.42 268.56Q659.77 272.59 660.38 260.21"/>
    <path d="M641.4 280.53Q645.83 274.06 654.57 275.79Q661.98 282.78 666.79 271.34"/>
    <path d="M756.0 283.95Q762.94 282.57 770.0 284.0Q775.97 285.3 783.0 284.0"/>
    <path d="M755.4 287.37Q762.39 288.45 768.54 292.21Q773.7 295.47 780.75 296.65"/>
    <path d="M753.66 290.38Q759.86 293.79 764.35 299.42Q768.09 304.25 774.31 307.77"/>
    <path d="M751.0 292.61Q755.66 297.94 757.96 304.76Q759.81 310.58 764.46 316.02"/>
    <path d="M747.74 293.8Q750.3 300.4 750.12 307.59Q749.87 313.7 752.38 320.4"/>
    <path d="M744.26 293.8Q744.41 300.88 741.78 307.58Q739.46 313.23 739.53 320.38"/>
    <path d="M741.0 292.61Q738.72 299.31 733.96 304.71Q729.84 309.23 727.46 315.97"/>
    <path d="M738.34 290.38Q733.9 295.9 727.58 299.34Q722.17 302.18 717.62 307.69"/>
    <path d="M736.6 287.37Q730.55 291.04 723.43 292.11Q717.37 292.93 711.21 296.56"/>
    <path d="M736.0 283.95Q729.06 285.33 722.0 283.9Q716.03 282.6 709.0 283.9"/>
    <path d="M736.6 280.53Q729.61 279.45 723.46 275.69Q718.3 272.43 711.25 271.25"/>
    <path d="M738.34 277.52Q732.14 274.11 727.65 268.48Q723.91 263.65 717.69 260.13"/>
    <path d="M741.0 275.29Q736.34 269.96 734.04 263.14Q732.19 257.32 727.54 251.88"/>
    <path d="M744.26 274.1Q741.7 267.5 741.88 260.31Q742.13 254.2 739.62 247.5"/>
    <path d="M747.74 274.1Q747.59 267.02 750.22 260.32Q752.54 254.67 752.47 247.52"/>
    <path d="M751.0 275.29Q753.28 268.59 758.04 263.19Q762.16 258.67 764.54 251.93"/>
    <path d="M753.66 277.52Q758.1 272.0 764.42 268.56Q769.83 265.72 774.38 260.21"/>
    <path d="M755.4 280.53Q761.45 276.86 768.57 275.79Q774.63 274.97 780.79 271.34"/>
    <path d="M870.0 283.95Q876.27 288.89 884.0 284.0Q889.66 279.42 897.0 284.0"/>
    <path d="M869.4 287.37Q873.6 294.15 882.54 292.21Q889.42 289.83 894.75 296.65"/>
    <path d="M867.66 290.38Q869.29 298.19 878.35 299.42Q885.63 299.54 888.31 307.77"/>
    <path d="M865.0 292.61Q863.86 300.51 871.96 304.76Q878.75 307.37 878.46 316.02"/>
    <path d="M861.74 293.8Q857.96 300.83 864.12 307.59Q869.61 312.37 866.38 320.4"/>
    <path d="M858.26 293.8Q852.31 299.11 855.78 307.58Q859.31 313.94 853.53 320.38"/>
    <path d="M855.0 292.61Q847.59 295.57 847.96 304.71Q849.1 311.9 841.46 315.97"/>
    <path d="M852.34 290.38Q844.37 290.63 841.58 299.34Q840.2 306.48 831.62 307.69"/>
    <path d="M850.6 287.37Q843.03 284.88 837.43 292.11Q833.68 298.35 825.21 296.56"/>
    <path d="M850.0 283.95Q843.73 279.01 836.0 283.9Q830.34 288.48 823.0 283.9"/>
    <path d="M850.6 280.53Q846.4 273.75 837.46 275.69Q830.58 278.07 825.25 271.25"/>
    <path d="M852.34 277.52Q850.71 269.71 841.65 268.48Q834.37 268.36 831.69 260.13"/>
    <path d="M855.0 275.29Q856.14 267.39 848.04 263.14Q841.25 260.53 841.54 251.88"/>
    <path d="M858.26 274.1Q862.04 267.07 855.88 260.31Q850.39 255.53 853.62 247.5"/>
    <path d="M861.74 274.1Q867.69 268.79 864.22 260.32Q860.69 253.96 866.47 247.52"/>
    <path d="M865.0 275.29Q872.41 272.33 872.04 263.19Q870.9 256.0 878.54 251.93"/>
    <path d="M867.66 277.52Q875.63 277.27 878.42 268.56Q879.8 261.42 888.38 260.21"/>
    <path d="M869.4 280.53Q876.97 283.02 882.57 275.79Q886.32 269.55 894.79 271.34"/>
    <path d="M984.0 283.95Q990.26 278.99 998.0 284.0Q1002.7 292.68 1011.0 284.0"/>
    <path d="M983.4 287.37Q990.98 284.85 996.54 292.21Q997.98 301.97 1008.75 296.65"/>
    <path d="M981.66 290.38Q989.65 290.6 992.35 299.42Q990.37 309.09 1002.31 307.77"/>
    <path d="M979.0 292.61Q986.43 295.55 985.96 304.76Q980.79 313.17 992.46 316.02"/>
    <path d="M975.74 293.8Q981.71 299.1 978.12 307.59Q970.38 313.73 980.38 320.4"/>
    <path d="M972.26 293.8Q976.07 300.82 969.78 307.58Q960.42 310.7 967.53 320.38"/>
    <path d="M969.0 292.61Q970.17 300.51 961.96 304.71Q952.09 304.44 955.46 315.97"/>
    <path d="M966.34 290.38Q964.74 298.2 955.58 299.34Q946.4 295.71 945.62 307.69"/>
    <path d="M964.6 287.37Q960.42 294.18 951.43 292.11Q944.04 285.56 939.21 296.56"/>
    <path d="M964.0 283.95Q957.74 288.91 950.0 283.9Q945.3 275.22 937.0 283.9"/>
    <path d="M964.6 280.53Q957.02 283.05 951.46 275.69Q950.02 265.93 939.25 271.25"/>
    <path d="M966.34 277.52Q958.35 277.3 955.65 268.48Q957.63 258.81 945.69 260.13"/>
    <path d="M969.0 275.29Q961.57 272.35 962.04 263.14Q967.21 254.73 955.54 251.88"/>
    <path d="M972.26 274.1Q966.29 268.8 969.88 260.31Q977.62 254.17 967.62 247.5"/>
    <path d="M975.74 274.1Q971.93 267.08 978.22 260.32Q987.58 257.2 980.47 247.52"/>
    <path d="M979.0 275.29Q977.83 267.39 986.04 263.19Q995.91 263.46 992.54 251.93"/>
    <path d="M981.66 277.52Q983.26 269.7 992.42 268.56Q1001.6 272.19 1002.38 260.21"/>
    <path d="M983.4 280.53Q987.58 273.72 996.57 275.79Q1003.96 282.34 1008.79 271.34"/>
    <path d="M129.0 380.85Q135.75 383.75 142.0 381.0Q148.79 384.39 156.0 381.0"/>
    <path d="M128.4 384.27Q133.75 389.31 140.56 388.86Q145.78 394.37 153.72 393.65"/>
    <path d="M126.66 387.28Q129.97 393.84 136.52 395.75Q139.55 402.71 147.25 404.75"/>
    <path d="M124.0 389.51Q124.86 396.81 130.37 400.84Q130.83 408.42 137.37 412.97"/>
    <path d="M120.74 390.7Q119.05 397.85 122.85 403.53Q120.69 410.8 125.28 417.31"/>
    <path d="M117.26 390.7Q113.23 396.84 114.86 403.47Q110.34 409.57 112.43 417.26"/>
    <path d="M114.0 389.51Q108.11 393.91 107.37 400.69Q101.04 404.88 100.37 412.82"/>
    <path d="M111.34 387.28Q104.3 389.39 101.28 395.52Q93.9 397.29 90.56 404.52"/>
    <path d="M109.6 384.27Q102.27 383.85 97.34 388.58Q89.79 387.71 84.18 393.36"/>
    <path d="M109.0 380.85Q102.25 377.95 96.0 380.7Q89.21 377.31 82.0 380.7"/>
    <path d="M109.6 377.43Q104.25 372.39 97.44 372.84Q92.22 367.33 84.28 368.05"/>
    <path d="M111.34 374.42Q108.03 367.86 101.48 365.95Q98.45 358.99 90.75 356.95"/>
    <path d="M114.0 372.19Q113.14 364.89 107.63 360.86Q107.17 353.28 100.63 348.73"/>
    <path d="M117.26 371.0Q118.95 363.85 115.15 358.17Q117.31 350.9 112.72 344.39"/>
    <path d="M120.74 371.0Q124.77 364.86 123.14 358.23Q127.66 352.13 125.57 344.44"/>
    <path d="M124.0 372.19Q129.89 367.79 130.63 361.01Q136.96 356.82 137.63 348.88"/>
    <path d="M126.66 374.42Q133.7 372.31 136.72 366.18Q144.1 364.41 147.44 357.18"/>
    <path d="M128.4 377.43Q135.73 377.85 140.66 373.12Q148.21 373.99 153.82 368.34"/>
    <path d="M243.0 380.85Q249.38 385.4 256.0 381.0Q261.95 388.7 270.0 381.0"/>
    <path d="M242.4 384.27Q246.84 390.73 254.56 388.86Q257.52 398.13 267.72 393.65"/>
    <path d="M240.66 387.28Q242.62 394.87 250.52 395.75Q250.13 405.48 261.25 404.75"/>
    <path d="M238.0 389.51Q237.25 397.31 244.37 400.84Q240.68 409.85 251.37 412.97"/>
    <path d="M234.74 390.7Q231.36 397.77 236.85 403.53Q230.29 410.73 239.28 417.31"/>
    <path d="M231.26 390.7Q225.67 396.19 228.86 403.47Q220.24 408.0 226.43 417.26"/>
    <path d="M228.0 389.51Q220.87 392.76 221.37 400.69Q211.72 402.0 214.37 412.82"/>
    <path d="M225.34 387.28Q217.53 387.89 215.28 395.52Q205.77 393.45 204.56 404.52"/>
    <path d="M223.6 384.27Q216.05 382.18 211.34 388.58Q203.11 383.37 198.18 393.36"/>
    <path d="M223.0 380.85Q216.62 376.3 210.0 380.7Q204.05 373.0 196.0 380.7"/>
    <path d="M223.6 377.43Q219.16 370.97 211.44 372.84Q208.48 363.57 198.28 368.05"/>
    <path d="M225.34 374.42Q223.38 366.83 215.48 365.95Q215.87 356.22 204.75 356.95"/>
    <path d="M228.0 372.19Q228.75 364.39 221.63 360.86Q225.32 351.85 214.63 348.73"/>
    <path d="M231.26 371.0Q234.64 363.93 229.15 358.17Q235.71 350.97 226.72 344.39"/>
    <path d="M234.74 371.0Q240.33 365.51 237.14 358.23Q245.76 353.7 239.57 344.44"/>
    <path d="M238.0 372.19Q245.13 368.94 244.63 361.01Q254.28 359.7 251.63 348.88"/>
    <path d="M240.66 374.42Q248.47 373.81 250.72 366.18Q260.23 368.25 261.44 357.18"/>
    <path d="M242.4 377.43Q249.95 379.52 254.66 373.12Q262.89 378.33 267.82 368.34"/>
    <path d="M357.0 380.85Q363.89 382.76 370.0 381.0Q376.63 385.58 384.0 381.0"/>
    <path d="M356.4 384.27Q362.22 388.42 368.56 388.86Q373.22 395.43 381.72 393.65"/>
    <path d="M354.66 387.28Q358.71 393.17 364.52 395.75Q366.66 403.51 375.25 404.75"/>
    <path d="M352.0 389.51Q353.79 396.44 358.37 400.84Q357.72 408.87 365.37 412.97"/>
    <path d="M348.74 390.7Q348.05 397.82 350.85 403.53Q347.49 410.85 353.28 417.31"/>
    <path d="M345.26 390.7Q342.18 397.15 342.86 403.47Q337.2 409.2 340.43 417.26"/>
    <path d="M342.0 389.51Q336.9 394.52 335.37 400.69Q328.09 404.14 328.37 412.82"/>
    <path d="M339.34 387.28Q332.83 390.24 329.28 395.52Q321.27 396.27 318.56 404.52"/>
    <path d="M337.6 384.27Q330.47 384.83 325.34 388.58Q317.54 386.54 312.18 393.36"/>
    <path d="M337.0 380.85Q330.11 378.94 324.0 380.7Q317.37 376.12 310.0 380.7"/>
    <path d="M337.6 377.43Q331.78 373.28 325.44 372.84Q320.78 366.27 312.28 368.05"/>
    <path d="M339.34 374.42Q335.29 368.53 329.48 365.95Q327.34 358.19 318.75 356.95"/>
    <path d="M342.0 372.19Q340.21 365.26 335.63 360.86Q336.28 352.83 328.63 348.73"/>
    <path d="M345.26 371.0Q345.95 363.88 343.15 358.17Q346.51 350.85 340.72 344.39"/>
    <path d="M348.74 371.0Q351.82 364.55 351.14 358.23Q356.8 352.5 353.57 344.44"/>
    <path d="M352.0 372.19Q357.1 367.18 358.63 361.01Q365.91 357.56 365.63 348.88"/>
    <path d="M354.66 374.42Q361.17 371.46 364.72 366.18Q372.73 365.43 375.44 357.18"/>
    <path d="M356.4 377.43Q363.53 376.87 368.66 373.12Q376.46 375.16 381.82 368.34"/>
    <path d="M471.0 380.85Q477.5 376.76 484.0 381.0Q490.71 385.02 498.0 381.0"/>
    <path d="M470.4 384.27Q477.9 382.65 482.56 388.86Q487.49 394.93 495.72 393.65"/>
    <path d="M468.66 387.28Q476.27 388.33 478.52 395.75Q481.08 403.14 489.25 404.75"/>
    <path d="M466.0 389.51Q472.79 393.1 472.37 400.84Q472.25 408.66 479.37 412.97"/>
    <path d="M462.74 390.7Q467.89 396.39 464.85 403.53Q462.06 410.83 467.28 417.31"/>
    <path d="M459.26 390.7Q462.16 397.81 456.86 403.47Q451.74 409.38 454.43 417.26"/>
    <path d="M456.0 389.51Q456.29 397.18 449.37 400.69Q442.54 404.5 442.37 412.82"/>
    <path d="M453.34 387.28Q450.99 394.59 443.28 395.52Q435.56 396.76 432.56 404.52"/>
    <path d="M451.6 384.27Q446.89 390.33 439.34 388.58Q431.66 387.1 426.18 393.36"/>
    <path d="M451.0 380.85Q444.5 384.94 438.0 380.7Q431.29 376.68 424.0 380.7"/>
    <path d="M451.6 377.43Q444.1 379.05 439.44 372.84Q434.51 366.77 426.28 368.05"/>
    <path d="M453.34 374.42Q445.73 373.37 443.48 365.95Q440.92 358.56 432.75 356.95"/>
    <path d="M456.0 372.19Q449.21 368.6 449.63 360.86Q449.75 353.04 442.63 348.73"/>
    <path d="M459.26 371.0Q454.11 365.31 457.15 358.17Q459.94 350.87 454.72 344.39"/>
    <path d="M462.74 371.0Q459.84 363.89 465.14 358.23Q470.26 352.32 467.57 344.44"/>
    <path d="M466.0 372.19Q465.71 364.52 472.63 361.01Q479.46 357.2 479.63 348.88"/>
    <path d="M468.66 374.42Q471.01 367.11 478.72 366.18Q486.44 364.94 489.44 357.18"/>
    <path d="M470.4 377.43Q475.11 371.37 482.66 373.12Q490.34 374.6 495.82 368.34"/>
    <path d="M585.0 380.85Q591.75 383.76 598.0 381.0Q604.37 374.72 612.0 381.0"/>
    <path d="M584.4 384.27Q589.74 389.31 596.56 388.86Q604.69 385.14 609.72 393.65"/>
    <path d="M582.66 387.28Q585.96 393.85 592.52 395.75Q601.44 395.03 603.25 404.75"/>
    <path d="M580.0 389.51Q580.85 396.81 586.37 400.84Q594.99 403.22 593.37 412.97"/>
    <path d="M576.74 390.7Q575.04 397.85 578.85 403.53Q586.13 408.71 581.28 417.31"/>
    <path d="M573.26 390.7Q569.23 396.84 570.86 403.47Q575.93 410.84 568.43 417.26"/>
    <path d="M570.0 389.51Q564.1 393.9 563.37 400.69Q565.62 409.35 556.37 412.82"/>
    <path d="M567.34 387.28Q560.3 389.39 557.28 395.52Q556.44 404.42 546.56 404.52"/>
    <path d="M565.6 384.27Q558.27 383.84 553.34 388.58Q549.5 396.65 540.18 393.36"/>
    <path d="M565.0 380.85Q558.25 377.94 552.0 380.7Q545.63 386.98 538.0 380.7"/>
    <path d="M565.6 377.43Q560.26 372.39 553.44 372.84Q545.31 376.56 540.28 368.05"/>
    <path d="M567.34 374.42Q564.04 367.85 557.48 365.95Q548.56 366.67 546.75 356.95"/>
    <path d="M570.0 372.19Q569.15 364.89 563.63 360.86Q555.01 358.48 556.63 348.73"/>
    <path d="M573.26 371.0Q574.96 363.85 571.15 358.17Q563.87 352.99 568.72 344.39"/>
    <path d="M576.74 371.0Q580.77 364.86 579.14 358.23Q574.07 350.86 581.57 344.44"/>
    <path d="M580.0 372.19Q585.9 367.8 586.63 361.01Q584.38 352.35 593.63 348.88"/>
    <path d="M582.66 374.42Q589.7 372.31 592.72 366.18Q593.56 357.28 603.44 357.18"/>
    <path d="M584.4 377.43Q591.73 377.86 596.66 373.12Q600.5 365.05 609.82 368.34"/>
    <path d="M699.0 380.85Q705.57 384.65 712.0 381.0Q718.47 386.44 726.0 381.0"/>
    <path d="M698.4 384.27Q703.27 390.09 710.56 388.86Q714.78 396.19 723.72 393.65"/>
    <path d="M696.66 387.28Q699.25 394.41 706.52 395.75Q707.98 404.08 717.25 404.75"/>
    <path d="M694.0 389.51Q694.0 397.1 700.37 400.84Q698.9 409.17 707.37 412.97"/>
    <path d="M690.74 390.7Q688.14 397.83 692.85 403.53Q688.61 410.85 695.28 417.31"/>
    <path d="M687.26 390.7Q682.38 396.51 684.86 403.47Q678.38 408.91 682.43 417.26"/>
    <path d="M684.0 389.51Q677.43 393.3 677.37 400.69Q669.42 403.58 670.37 412.82"/>
    <path d="M681.34 387.28Q673.86 388.59 671.28 395.52Q662.83 395.51 660.56 404.52"/>
    <path d="M679.6 384.27Q672.13 382.95 667.34 388.58Q659.39 385.68 654.18 393.36"/>
    <path d="M679.0 380.85Q672.43 377.05 666.0 380.7Q659.53 375.26 652.0 380.7"/>
    <path d="M679.6 377.43Q674.73 371.61 667.44 372.84Q663.22 365.51 654.28 368.05"/>
    <path d="M681.34 374.42Q678.75 367.29 671.48 365.95Q670.02 357.62 660.75 356.95"/>
    <path d="M684.0 372.19Q684.0 364.6 677.63 360.86Q679.1 352.53 670.63 348.73"/>
    <path d="M687.26 371.0Q689.86 363.87 685.15 358.17Q689.39 350.85 682.72 344.39"/>
    <path d="M690.74 371.0Q695.62 365.19 693.14 358.23Q699.62 352.79 695.57 344.44"/>
    <path d="M694.0 372.19Q700.57 368.4 700.63 361.01Q708.58 358.12 707.63 348.88"/>
    <path d="M696.66 374.42Q704.14 373.11 706.72 366.18Q715.17 366.19 717.44 357.18"/>
    <path d="M698.4 377.43Q705.87 378.75 710.66 373.12Q718.61 376.02 723.82 368.34"/>
    <path d="M813.0 380.85Q820.0 380.74 826.0 381.0Q832.63 385.55 840.0 381.0"/>
    <path d="M812.4 384.27Q819.01 386.56 824.56 388.86Q829.23 395.4 837.72 393.65"/>
    <path d="M810.66 387.28Q816.09 391.69 820.52 395.75Q822.67 403.5 831.25 404.75"/>
    <path d="M808.0 389.51Q811.59 395.52 814.37 400.84Q813.74 408.86 821.37 412.97"/>
    <path d="M804.74 390.7Q806.06 397.57 806.85 403.53Q803.51 410.85 809.28 417.31"/>
    <path d="M801.26 390.7Q800.15 397.61 798.86 403.47Q793.22 409.21 796.43 417.26"/>
    <path d="M798.0 389.51Q794.59 395.63 791.37 400.69Q784.11 404.16 784.37 412.82"/>
    <path d="M795.34 387.28Q790.05 391.86 785.28 395.52Q777.28 396.29 774.56 404.52"/>
    <path d="M793.6 384.27Q787.06 386.77 781.34 388.58Q773.55 386.57 768.18 393.36"/>
    <path d="M793.0 380.85Q786.0 380.96 780.0 380.7Q773.37 376.15 766.0 380.7"/>
    <path d="M793.6 377.43Q786.99 375.14 781.44 372.84Q776.77 366.3 768.28 368.05"/>
    <path d="M795.34 374.42Q789.91 370.01 785.48 365.95Q783.33 358.2 774.75 356.95"/>
    <path d="M798.0 372.19Q794.41 366.18 791.63 360.86Q792.26 352.84 784.63 348.73"/>
    <path d="M801.26 371.0Q799.94 364.13 799.15 358.17Q802.49 350.85 796.72 344.39"/>
    <path d="M804.74 371.0Q805.85 364.09 807.14 358.23Q812.78 352.49 809.57 344.44"/>
    <path d="M808.0 372.19Q811.41 366.07 814.63 361.01Q821.89 357.54 821.63 348.88"/>
    <path d="M810.66 374.42Q815.95 369.84 820.72 366.18Q828.72 365.41 831.44 357.18"/>
    <path d="M812.4 377.43Q818.94 374.93 824.66 373.12Q832.45 375.13 837.82 368.34"/>
    <path d="M927.0 380.85Q933.93 379.25 940.0 381.0Q946.21 374.02 954.0 381.0"/>
    <path d="M926.4 384.27Q933.45 385.14 938.56 388.86Q946.79 384.42 951.72 393.65"/>
    <path d="M924.66 387.28Q930.99 390.5 934.52 395.75Q943.77 394.4 945.25 404.75"/>
    <path d="M922.0 389.51Q926.85 394.71 928.37 400.84Q937.52 402.73 935.37 412.97"/>
    <path d="M918.74 390.7Q921.51 397.24 920.85 403.53Q928.8 408.43 923.28 417.31"/>
    <path d="M915.26 390.7Q915.64 397.8 912.86 403.47Q918.65 410.8 910.43 417.26"/>
    <path d="M912.0 389.51Q909.92 396.31 905.37 400.69Q908.31 409.56 898.37 412.82"/>
    <path d="M909.34 387.28Q905.06 392.95 899.28 395.52Q899.01 404.86 888.56 404.52"/>
    <path d="M907.6 384.27Q901.64 388.14 895.34 388.58Q891.89 397.26 882.18 393.36"/>
    <path d="M907.0 380.85Q900.07 382.45 894.0 380.7Q887.79 387.68 880.0 380.7"/>
    <path d="M907.6 377.43Q900.55 376.56 895.44 372.84Q887.21 377.28 882.28 368.05"/>
    <path d="M909.34 374.42Q903.01 371.2 899.48 365.95Q890.23 367.3 888.75 356.95"/>
    <path d="M912.0 372.19Q907.15 366.99 905.63 360.86Q896.48 358.97 898.63 348.73"/>
    <path d="M915.26 371.0Q912.49 364.46 913.15 358.17Q905.2 353.27 910.72 344.39"/>
    <path d="M918.74 371.0Q918.36 363.9 921.14 358.23Q915.35 350.9 923.57 344.44"/>
    <path d="M922.0 372.19Q924.08 365.39 928.63 361.01Q925.69 352.14 935.63 348.88"/>
    <path d="M924.66 374.42Q928.94 368.75 934.72 366.18Q934.99 356.84 945.44 357.18"/>
    <path d="M926.4 377.43Q932.36 373.56 938.66 373.12Q942.11 364.44 951.82 368.34"/>
    <path d="M1041.0 380.85Q1047.99 380.25 1054.0 381.0Q1060.35 387.06 1068.0 381.0"/>
    <path d="M1040.4 384.27Q1047.17 386.1 1052.56 388.86Q1056.46 396.72 1065.72 393.65"/>
    <path d="M1038.66 387.28Q1044.4 391.31 1048.52 395.75Q1049.5 404.47 1059.25 404.75"/>
    <path d="M1036.0 389.51Q1040.02 395.26 1042.37 400.84Q1040.3 409.37 1049.37 412.97"/>
    <path d="M1032.74 390.7Q1034.54 397.48 1034.85 403.53Q1029.99 410.83 1037.28 417.31"/>
    <path d="M1029.26 390.7Q1028.64 397.69 1026.86 403.47Q1019.79 408.68 1024.43 417.26"/>
    <path d="M1026.0 389.51Q1023.03 395.86 1019.37 400.69Q1010.95 403.17 1012.37 412.82"/>
    <path d="M1023.34 387.28Q1018.37 392.23 1013.28 395.52Q1004.53 394.96 1002.56 404.52"/>
    <path d="M1021.6 384.27Q1015.24 387.23 1009.34 388.58Q1001.3 385.06 996.18 393.36"/>
    <path d="M1021.0 380.85Q1014.01 381.45 1008.0 380.7Q1001.65 374.64 994.0 380.7"/>
    <path d="M1021.6 377.43Q1014.83 375.6 1009.44 372.84Q1005.54 364.98 996.28 368.05"/>
    <path d="M1023.34 374.42Q1017.6 370.39 1013.48 365.95Q1012.5 357.23 1002.75 356.95"/>
    <path d="M1026.0 372.19Q1021.98 366.44 1019.63 360.86Q1021.7 352.33 1012.63 348.73"/>
    <path d="M1029.26 371.0Q1027.46 364.22 1027.15 358.17Q1032.01 350.87 1024.72 344.39"/>
    <path d="M1032.74 371.0Q1033.36 364.01 1035.14 358.23Q1042.21 353.02 1037.57 344.44"/>
    <path d="M1036.0 372.19Q1038.97 365.84 1042.63 361.01Q1051.05 358.53 1049.63 348.88"/>
    <path d="M1038.66 374.42Q1043.63 369.47 1048.72 366.18Q1057.47 366.74 1059.44 357.18"/>
    <path d="M1040.4 377.43Q1046.76 374.47 1052.66 373.12Q1060.7 376.64 1065.82 368.34"/>
    <path d="M186.0 477.75Q192.49 481.89 200.0 478.0Q205.8 481.23 213.0 478.0"/>
    <path d="M185.4 481.17Q190.08 487.28 198.47 486.19Q202.81 491.21 210.68 490.64"/>
    <path d="M183.66 484.18Q185.97 491.52 194.22 493.37Q196.59 499.57 204.18 501.72"/>
    <path d="M181.0 486.41Q180.66 494.1 187.78 498.66Q187.89 505.29 194.28 509.92"/>
    <path d="M177.74 487.6Q174.79 494.71 179.92 501.43Q177.75 507.7 182.18 514.23"/>
    <path d="M174.26 487.6Q169.06 493.27 171.59 501.34Q167.4 506.49 169.33 514.14"/>
    <path d="M171.0 486.41Q164.17 489.96 163.78 498.41Q158.09 501.82 157.28 509.67"/>
    <path d="M168.34 484.18Q160.71 485.18 157.45 492.99Q150.94 494.24 147.5 501.34"/>
    <path d="M166.6 481.17Q159.09 479.5 153.36 485.72Q146.81 484.67 141.15 490.17"/>
    <path d="M166.0 477.75Q159.51 473.61 152.0 477.5Q146.2 474.27 139.0 477.5"/>
    <path d="M166.6 474.33Q161.92 468.22 153.53 469.31Q149.19 464.29 141.32 464.86"/>
    <path d="M168.34 471.32Q166.03 463.98 157.78 462.13Q155.41 455.93 147.82 453.78"/>
    <path d="M171.0 469.09Q171.34 461.4 164.22 456.84Q164.11 450.21 157.72 445.58"/>
    <path d="M174.26 467.9Q177.21 460.79 172.08 454.07Q174.25 447.8 169.82 441.27"/>
    <path d="M177.74 467.9Q182.94 462.23 180.41 454.16Q184.6 449.01 182.67 441.36"/>
    <path d="M181.0 469.09Q187.83 465.54 188.22 457.09Q193.91 453.68 194.72 445.83"/>
    <path d="M183.66 471.32Q191.29 470.32 194.55 462.51Q201.06 461.26 204.5 454.16"/>
    <path d="M185.4 474.33Q192.91 476.0 198.64 469.78Q205.19 470.83 210.85 465.33"/>
    <path d="M300.0 477.75Q306.46 473.47 314.0 478.0Q319.76 473.95 327.0 478.0"/>
    <path d="M299.4 481.17Q306.93 479.36 312.47 486.19Q319.27 484.35 324.68 490.64"/>
    <path d="M297.66 484.18Q305.35 485.05 308.22 493.37Q315.24 493.97 318.18 501.72"/>
    <path d="M295.0 486.41Q301.93 489.86 301.78 498.66Q308.17 501.62 308.28 509.92"/>
    <path d="M291.74 487.6Q297.07 493.21 293.92 501.43Q298.91 506.4 296.18 514.23"/>
    <path d="M288.26 487.6Q291.35 494.7 285.59 501.34Q288.58 507.72 283.33 514.14"/>
    <path d="M285.0 486.41Q285.48 494.14 277.78 498.41Q278.41 505.42 271.28 509.67"/>
    <path d="M282.34 484.18Q280.14 491.6 271.45 492.99Q269.65 499.79 261.5 501.34"/>
    <path d="M280.6 481.17Q276.0 487.4 267.36 485.72Q263.34 491.5 255.15 490.17"/>
    <path d="M280.0 477.75Q273.54 482.03 266.0 477.5Q260.24 481.55 253.0 477.5"/>
    <path d="M280.6 474.33Q273.07 476.14 267.53 469.31Q260.73 471.15 255.32 464.86"/>
    <path d="M282.34 471.32Q274.65 470.45 271.78 462.13Q264.76 461.53 261.82 453.78"/>
    <path d="M285.0 469.09Q278.07 465.64 278.22 456.84Q271.83 453.88 271.72 445.58"/>
    <path d="M288.26 467.9Q282.93 462.29 286.08 454.07Q281.09 449.1 283.82 441.27"/>
    <path d="M291.74 467.9Q288.65 460.8 294.41 454.16Q291.42 447.78 296.67 441.36"/>
    <path d="M295.0 469.09Q294.52 461.36 302.22 457.09Q301.59 450.08 308.72 445.83"/>
    <path d="M297.66 471.32Q299.86 463.9 308.55 462.51Q310.35 455.71 318.5 454.16"/>
    <path d="M299.4 474.33Q304.0 468.1 312.64 469.78Q316.66 464.0 324.85 465.33"/>
    <path d="M414.0 477.75Q420.76 480.59 428.0 478.0Q434.0 477.97 441.0 478.0"/>
    <path d="M413.4 481.17Q418.78 486.15 426.47 486.19Q432.12 488.21 438.68 490.64"/>
    <path d="M411.66 484.18Q415.02 490.7 422.22 493.37Q426.84 497.2 432.18 501.72"/>
    <path d="M409.0 486.41Q409.93 493.69 415.78 498.66Q418.81 503.84 422.28 509.92"/>
    <path d="M405.74 487.6Q404.12 494.75 407.92 501.43Q409.0 507.33 410.18 514.23"/>
    <path d="M402.26 487.6Q398.3 493.77 399.59 501.34Q398.58 507.26 397.33 514.14"/>
    <path d="M399.0 486.41Q393.16 490.85 391.78 498.41Q388.81 503.62 385.28 509.67"/>
    <path d="M396.34 484.18Q389.34 486.35 385.45 492.99Q380.88 496.87 375.5 501.34"/>
    <path d="M394.6 481.17Q387.28 480.82 381.36 485.72Q375.73 487.81 369.15 490.17"/>
    <path d="M394.0 477.75Q387.24 474.91 380.0 477.5Q374.0 477.53 367.0 477.5"/>
    <path d="M394.6 474.33Q389.22 469.35 381.53 469.31Q375.88 467.29 369.32 464.86"/>
    <path d="M396.34 471.32Q392.98 464.8 385.78 462.13Q381.16 458.3 375.82 453.78"/>
    <path d="M399.0 469.09Q398.07 461.81 392.22 456.84Q389.19 451.66 385.72 445.58"/>
    <path d="M402.26 467.9Q403.88 460.75 400.08 454.07Q399.0 448.17 397.82 441.27"/>
    <path d="M405.74 467.9Q409.7 461.73 408.41 454.16Q409.42 448.24 410.67 441.36"/>
    <path d="M409.0 469.09Q414.84 464.65 416.22 457.09Q419.19 451.88 422.72 445.83"/>
    <path d="M411.66 471.32Q418.66 469.15 422.55 462.51Q427.12 458.63 432.5 454.16"/>
    <path d="M413.4 474.33Q420.72 474.68 426.64 469.78Q432.27 467.69 438.85 465.33"/>
    <path d="M528.0 477.75Q534.96 478.92 542.0 478.0Q546.9 485.82 555.0 478.0"/>
    <path d="M527.4 481.17Q533.54 484.65 540.47 486.19Q542.39 495.21 552.68 490.64"/>
    <path d="M525.66 484.18Q530.24 489.55 536.22 493.37Q534.95 502.5 546.18 501.72"/>
    <path d="M523.0 486.41Q525.47 493.02 529.78 498.66Q525.46 506.81 536.28 509.92"/>
    <path d="M519.74 487.6Q519.8 494.66 521.92 501.43Q515.07 507.61 524.18 514.23"/>
    <path d="M516.26 487.6Q513.91 494.25 513.59 501.34Q505.04 504.81 511.33 514.14"/>
    <path d="M513.0 486.41Q508.51 491.86 505.78 498.41Q496.57 498.74 499.28 509.67"/>
    <path d="M510.34 484.18Q504.26 487.76 499.45 492.99Q490.68 490.14 489.5 501.34"/>
    <path d="M508.6 481.17Q501.66 482.46 495.36 485.72Q488.09 480.05 483.15 490.17"/>
    <path d="M508.0 477.75Q501.04 476.58 494.0 477.5Q489.1 469.68 481.0 477.5"/>
    <path d="M508.6 474.33Q502.46 470.85 495.53 469.31Q493.61 460.29 483.32 464.86"/>
    <path d="M510.34 471.32Q505.76 465.95 499.78 462.13Q501.05 453.0 489.82 453.78"/>
    <path d="M513.0 469.09Q510.53 462.48 506.22 456.84Q510.54 448.69 499.72 445.58"/>
    <path d="M516.26 467.9Q516.2 460.84 514.08 454.07Q520.93 447.89 511.82 441.27"/>
    <path d="M519.74 467.9Q522.09 461.25 522.41 454.16Q530.96 450.69 524.67 441.36"/>
    <path d="M523.0 469.09Q527.49 463.64 530.22 457.09Q539.43 456.76 536.72 445.83"/>
    <path d="M525.66 471.32Q531.74 467.74 536.55 462.51Q545.32 465.36 546.5 454.16"/>
    <path d="M527.4 474.33Q534.34 473.04 540.64 469.78Q547.91 475.45 552.85 465.33"/>
    <path d="M642.0 477.75Q648.87 479.89 656.0 478.0Q660.85 485.99 669.0 478.0"/>
    <path d="M641.4 481.17Q647.12 485.53 654.47 486.19Q656.29 495.36 666.68 490.64"/>
    <path d="M639.66 484.18Q643.55 490.23 650.22 493.37Q648.8 502.6 660.18 501.72"/>
    <path d="M637.0 486.41Q638.58 493.43 643.78 498.66Q639.29 506.85 650.28 509.92"/>
    <path d="M633.74 487.6Q632.82 494.73 635.92 501.43Q628.89 507.59 638.18 514.23"/>
    <path d="M630.26 487.6Q626.97 493.99 627.59 501.34Q618.88 504.73 625.33 514.14"/>
    <path d="M627.0 486.41Q621.71 491.29 619.78 498.41Q610.44 498.61 613.28 509.67"/>
    <path d="M624.34 484.18Q617.7 486.95 613.45 492.99Q604.61 489.98 603.5 501.34"/>
    <path d="M622.6 481.17Q615.42 481.51 609.36 485.72Q602.07 479.87 597.15 490.17"/>
    <path d="M622.0 477.75Q615.13 475.61 608.0 477.5Q603.15 469.51 595.0 477.5"/>
    <path d="M622.6 474.33Q616.88 469.97 609.53 469.31Q607.71 460.14 597.32 464.86"/>
    <path d="M624.34 471.32Q620.45 465.27 613.78 462.13Q615.2 452.9 603.82 453.78"/>
    <path d="M627.0 469.09Q625.42 462.07 620.22 456.84Q624.71 448.65 613.72 445.58"/>
    <path d="M630.26 467.9Q631.18 460.77 628.08 454.07Q635.11 447.91 625.82 441.27"/>
    <path d="M633.74 467.9Q637.03 461.51 636.41 454.16Q645.12 450.77 638.67 441.36"/>
    <path d="M637.0 469.09Q642.29 464.21 644.22 457.09Q653.56 456.89 650.72 445.83"/>
    <path d="M639.66 471.32Q646.3 468.55 650.55 462.51Q659.39 465.52 660.5 454.16"/>
    <path d="M641.4 474.33Q648.58 473.99 654.64 469.78Q661.93 475.63 666.85 465.33"/>
    <path d="M756.0 477.75Q762.98 478.55 770.0 478.0Q775.81 474.41 783.0 478.0"/>
    <path d="M755.4 481.17Q761.69 484.31 768.47 486.19Q775.16 484.81 780.68 490.64"/>
    <path d="M753.66 484.18Q758.5 489.28 764.22 493.37Q770.98 494.36 774.18 501.72"/>
    <path d="M751.0 486.41Q753.8 492.86 757.78 498.66Q763.8 501.9 764.28 509.92"/>
    <path d="M747.74 487.6Q748.16 494.61 749.92 501.43Q754.46 506.53 752.18 514.23"/>
    <path d="M744.26 487.6Q742.26 494.34 741.59 501.34Q744.11 507.69 739.33 514.14"/>
    <path d="M741.0 486.41Q736.82 492.06 733.78 498.41Q733.98 505.24 727.28 509.67"/>
    <path d="M738.34 484.18Q732.48 488.05 727.45 492.99Q725.3 499.47 717.5 501.34"/>
    <path d="M736.6 481.17Q729.77 482.81 723.36 485.72Q719.12 491.08 711.15 490.17"/>
    <path d="M736.0 477.75Q729.02 476.95 722.0 477.5Q716.19 481.09 709.0 477.5"/>
    <path d="M736.6 474.33Q730.31 471.19 723.53 469.31Q716.84 470.69 711.32 464.86"/>
    <path d="M738.34 471.32Q733.5 466.22 727.78 462.13Q721.02 461.14 717.82 453.78"/>
    <path d="M741.0 469.09Q738.2 462.64 734.22 456.84Q728.2 453.6 727.72 445.58"/>
    <path d="M744.26 467.9Q743.84 460.89 742.08 454.07Q737.54 448.97 739.82 441.27"/>
    <path d="M747.74 467.9Q749.74 461.16 750.41 454.16Q747.89 447.81 752.67 441.36"/>
    <path d="M751.0 469.09Q755.18 463.44 758.22 457.09Q758.02 450.26 764.72 445.83"/>
    <path d="M753.66 471.32Q759.52 467.45 764.55 462.51Q766.7 456.03 774.5 454.16"/>
    <path d="M755.4 474.33Q762.23 472.69 768.64 469.78Q772.88 464.42 780.85 465.33"/>
    <path d="M870.0 477.75Q876.72 474.65 884.0 478.0Q889.73 473.72 897.0 478.0"/>
    <path d="M869.4 481.17Q876.77 480.55 882.47 486.19Q889.31 484.13 894.68 490.64"/>
    <path d="M867.66 484.18Q874.8 486.12 878.22 493.37Q885.36 493.77 888.18 501.72"/>
    <path d="M865.0 486.41Q871.04 490.68 871.78 498.66Q878.36 501.48 878.28 509.92"/>
    <path d="M861.74 487.6Q865.96 493.67 863.92 501.43Q869.13 506.33 866.18 514.23"/>
    <path d="M858.26 487.6Q860.15 494.75 855.59 501.34Q858.81 507.73 853.33 514.14"/>
    <path d="M855.0 486.41Q854.33 493.78 847.78 498.41Q848.63 505.51 841.28 509.67"/>
    <path d="M852.34 484.18Q849.19 490.87 841.45 492.99Q839.82 499.95 831.5 501.34"/>
    <path d="M850.6 481.17Q845.35 486.38 837.36 485.72Q833.44 491.71 825.15 490.17"/>
    <path d="M850.0 477.75Q843.28 480.85 836.0 477.5Q830.27 481.78 823.0 477.5"/>
    <path d="M850.6 474.33Q843.23 474.95 837.53 469.31Q830.69 471.37 825.32 464.86"/>
    <path d="M852.34 471.32Q845.2 469.38 841.78 462.13Q834.64 461.73 831.82 453.78"/>
    <path d="M855.0 469.09Q848.96 464.82 848.22 456.84Q841.64 454.02 841.72 445.58"/>
    <path d="M858.26 467.9Q854.04 461.83 856.08 454.07Q850.87 449.17 853.82 441.27"/>
    <path d="M861.74 467.9Q859.85 460.75 864.41 454.16Q861.19 447.77 866.67 441.36"/>
    <path d="M865.0 469.09Q865.67 461.72 872.22 457.09Q871.37 449.99 878.72 445.83"/>
    <path d="M867.66 471.32Q870.81 464.63 878.55 462.51Q880.18 455.55 888.5 454.16"/>
    <path d="M869.4 474.33Q874.65 469.12 882.64 469.78Q886.56 463.79 894.85 465.33"/>
    <path d="M984.0 477.75Q990.56 481.58 998.0 478.0Q1003.34 484.0 1011.0 478.0"/>
    <path d="M983.4 481.17Q988.25 487.02 996.47 486.19Q999.44 493.66 1008.68 490.64"/>
    <path d="M981.66 484.18Q984.22 491.33 992.22 493.37Q992.46 501.4 1002.18 501.72"/>
    <path d="M979.0 486.41Q978.96 494.01 985.78 498.66Q983.26 506.29 992.28 509.92"/>
    <path d="M975.74 487.6Q973.1 494.73 977.92 501.43Q972.94 507.73 980.18 514.23"/>
    <path d="M972.26 487.6Q967.35 493.4 969.59 501.34Q962.75 505.56 967.33 514.14"/>
    <path d="M969.0 486.41Q962.4 490.18 961.78 498.41Q953.92 500.04 955.28 509.67"/>
    <path d="M966.34 484.18Q958.85 485.46 955.45 492.99Q947.5 491.82 945.5 501.34"/>
    <path d="M964.6 481.17Q957.12 479.81 951.36 485.72Q944.29 481.91 939.15 490.17"/>
    <path d="M964.0 477.75Q957.44 473.92 950.0 477.5Q944.66 471.5 937.0 477.5"/>
    <path d="M964.6 474.33Q959.75 468.48 951.53 469.31Q948.56 461.84 939.32 464.86"/>
    <path d="M966.34 471.32Q963.78 464.17 955.78 462.13Q955.54 454.1 945.82 453.78"/>
    <path d="M969.0 469.09Q969.04 461.49 962.22 456.84Q964.74 449.21 955.72 445.58"/>
    <path d="M972.26 467.9Q974.9 460.77 970.08 454.07Q975.06 447.77 967.82 441.27"/>
    <path d="M975.74 467.9Q980.65 462.1 978.41 454.16Q985.25 449.94 980.67 441.36"/>
    <path d="M979.0 469.09Q985.6 465.32 986.22 457.09Q994.08 455.46 992.72 445.83"/>
    <path d="M981.66 471.32Q989.15 470.04 992.55 462.51Q1000.5 463.68 1002.5 454.16"/>
    <path d="M983.4 474.33Q990.88 475.69 996.64 469.78Q1003.71 473.59 1008.85 465.33"/>
    <path d="M129.0 574.65Q135.96 573.49 142.0 575.0Q148.7 570.39 156.0 575.0"/>
    <path d="M128.4 578.07Q135.34 579.36 140.49 582.85Q148.37 580.8 153.65 587.63"/>
    <path d="M126.66 581.08Q132.74 584.67 136.39 589.7Q144.49 590.47 147.12 598.7"/>
    <path d="M124.0 583.31Q128.48 588.76 130.2 594.74Q137.54 598.24 137.2 606.87"/>
    <path d="M120.74 584.5Q123.09 591.16 122.65 597.36Q128.36 603.16 125.08 611.15"/>
    <path d="M117.26 584.5Q117.19 591.56 114.66 597.24Q118.04 604.64 112.23 611.03"/>
    <path d="M114.0 583.31Q111.52 589.92 107.2 594.39Q107.84 602.5 100.2 606.52"/>
    <path d="M111.34 581.08Q106.75 586.44 101.16 589.17Q98.99 597.01 90.43 598.17"/>
    <path d="M109.6 578.07Q103.45 581.54 97.27 582.19Q92.55 588.81 84.11 586.98"/>
    <path d="M109.0 574.65Q102.04 575.81 96.0 574.3Q89.3 578.91 82.0 574.3"/>
    <path d="M109.6 571.23Q102.66 569.94 97.51 566.45Q89.63 568.5 84.35 561.67"/>
    <path d="M111.34 568.22Q105.26 564.63 101.61 559.6Q93.51 558.83 90.88 550.6"/>
    <path d="M114.0 565.99Q109.52 560.54 107.8 554.56Q100.46 551.06 100.8 542.43"/>
    <path d="M117.26 564.8Q114.91 558.14 115.35 551.94Q109.64 546.14 112.92 538.15"/>
    <path d="M120.74 564.8Q120.81 557.74 123.34 552.06Q119.96 544.66 125.77 538.27"/>
    <path d="M124.0 565.99Q126.48 559.38 130.8 554.91Q130.16 546.8 137.8 542.78"/>
    <path d="M126.66 568.22Q131.25 562.86 136.84 560.13Q139.01 552.29 147.57 551.13"/>
    <path d="M128.4 571.23Q134.55 567.76 140.73 567.11Q145.45 560.49 153.89 562.32"/>
    <path d="M243.0 574.65Q249.86 572.46 256.0 575.0Q262.4 568.67 270.0 575.0"/>
    <path d="M242.4 578.07Q249.59 578.36 254.49 582.85Q262.67 579.08 267.65 587.63"/>
    <path d="M240.66 581.08Q247.32 583.81 250.39 589.7Q259.37 588.96 261.12 598.7"/>
    <path d="M238.0 583.31Q243.33 588.16 244.2 594.74Q252.88 597.12 251.2 606.87"/>
    <path d="M234.74 584.5Q238.08 590.88 236.65 597.36Q244.0 602.56 239.08 611.15"/>
    <path d="M231.26 584.5Q232.23 591.64 228.66 597.24Q233.79 604.64 226.23 611.03"/>
    <path d="M228.0 583.31Q226.46 590.35 221.2 594.39Q223.48 603.1 214.2 606.52"/>
    <path d="M225.34 581.08Q221.49 587.17 215.16 589.17Q214.33 598.13 204.43 598.17"/>
    <path d="M223.6 578.07Q217.9 582.47 211.27 582.19Q207.42 590.33 198.11 586.98"/>
    <path d="M223.0 574.65Q216.14 576.84 210.0 574.3Q203.6 580.63 196.0 574.3"/>
    <path d="M223.6 571.23Q216.41 570.94 211.51 566.45Q203.33 570.22 198.35 561.67"/>
    <path d="M225.34 568.22Q218.68 565.49 215.61 559.6Q206.63 560.34 204.88 550.6"/>
    <path d="M228.0 565.99Q222.67 561.14 221.8 554.56Q213.12 552.18 214.8 542.43"/>
    <path d="M231.26 564.8Q227.92 558.42 229.35 551.94Q222.0 546.74 226.92 538.15"/>
    <path d="M234.74 564.8Q233.77 557.66 237.34 552.06Q232.21 544.66 239.77 538.27"/>
    <path d="M238.0 565.99Q239.54 558.95 244.8 554.91Q242.52 546.2 251.8 542.78"/>
    <path d="M240.66 568.22Q244.51 562.13 250.84 560.13Q251.67 551.17 261.57 551.13"/>
    <path d="M242.4 571.23Q248.1 566.83 254.73 567.11Q258.58 558.97 267.89 562.32"/>
    <path d="M357.0 574.65Q363.71 577.8 370.0 575.0Q376.83 577.85 384.0 575.0"/>
    <path d="M356.4 578.07Q361.63 583.32 368.49 582.85Q373.94 587.86 381.65 587.63"/>
    <path d="M354.66 581.08Q357.78 587.8 364.39 589.7Q367.79 596.28 375.12 598.7"/>
    <path d="M352.0 583.31Q352.63 590.7 358.2 594.74Q359.14 602.08 365.2 606.87"/>
    <path d="M348.74 584.5Q346.8 591.65 350.65 597.36Q349.03 604.58 353.08 611.15"/>
    <path d="M345.26 584.5Q341.0 590.56 342.66 597.24Q338.67 603.47 340.23 611.03"/>
    <path d="M342.0 583.31Q335.92 587.55 335.2 594.39Q329.31 598.88 328.2 606.52"/>
    <path d="M339.34 581.08Q332.18 582.98 329.16 589.17Q322.09 591.37 318.43 598.17"/>
    <path d="M337.6 578.07Q330.22 577.41 325.27 582.19Q317.87 581.85 312.11 586.98"/>
    <path d="M337.0 574.65Q330.29 571.5 324.0 574.3Q317.17 571.45 310.0 574.3"/>
    <path d="M337.6 571.23Q332.37 565.98 325.51 566.45Q320.06 561.44 312.35 561.67"/>
    <path d="M339.34 568.22Q336.22 561.5 329.61 559.6Q326.21 553.02 318.88 550.6"/>
    <path d="M342.0 565.99Q341.37 558.6 335.8 554.56Q334.86 547.22 328.8 542.43"/>
    <path d="M345.26 564.8Q347.2 557.65 343.35 551.94Q344.97 544.72 340.92 538.15"/>
    <path d="M348.74 564.8Q353.0 558.74 351.34 552.06Q355.33 545.83 353.77 538.27"/>
    <path d="M352.0 565.99Q358.08 561.75 358.8 554.91Q364.69 550.42 365.8 542.78"/>
    <path d="M354.66 568.22Q361.82 566.32 364.84 560.13Q371.91 557.93 375.57 551.13"/>
    <path d="M356.4 571.23Q363.78 571.89 368.73 567.11Q376.13 567.45 381.89 562.32"/>
    <path d="M471.0 574.65Q477.59 578.4 484.0 575.0Q491.0 574.23 498.0 575.0"/>
    <path d="M470.4 578.07Q475.3 583.84 482.49 582.85Q489.33 584.51 495.65 587.63"/>
    <path d="M468.66 581.08Q471.3 588.18 478.39 589.7Q484.25 593.61 489.12 598.7"/>
    <path d="M466.0 583.31Q466.05 590.89 472.2 594.74Q476.37 600.42 479.2 606.87"/>
    <path d="M462.74 584.5Q460.19 591.63 464.65 597.36Q466.63 604.12 467.08 611.15"/>
    <path d="M459.26 584.5Q454.43 590.33 456.66 597.24Q456.21 604.27 454.23 611.03"/>
    <path d="M456.0 583.31Q449.46 587.14 449.2 594.39Q446.37 600.84 442.2 606.52"/>
    <path d="M453.34 581.08Q445.89 582.44 443.16 589.17Q438.29 594.26 432.43 598.17"/>
    <path d="M451.6 578.07Q444.13 576.8 439.27 582.19Q432.96 585.31 426.11 586.98"/>
    <path d="M451.0 574.65Q444.41 570.9 438.0 574.3Q431.0 575.07 424.0 574.3"/>
    <path d="M451.6 571.23Q446.7 565.46 439.51 566.45Q432.67 564.79 426.35 561.67"/>
    <path d="M453.34 568.22Q450.7 561.12 443.61 559.6Q437.75 555.69 432.88 550.6"/>
    <path d="M456.0 565.99Q455.95 558.41 449.8 554.56Q445.63 548.88 442.8 542.43"/>
    <path d="M459.26 564.8Q461.81 557.67 457.35 551.94Q455.37 545.18 454.92 538.15"/>
    <path d="M462.74 564.8Q467.57 558.97 465.34 552.06Q465.79 545.03 467.77 538.27"/>
    <path d="M466.0 565.99Q472.54 562.16 472.8 554.91Q475.63 548.46 479.8 542.78"/>
    <path d="M468.66 568.22Q476.11 566.86 478.84 560.13Q483.71 555.04 489.57 551.13"/>
    <path d="M470.4 571.23Q477.87 572.5 482.73 567.11Q489.04 563.99 495.89 562.32"/>
    <path d="M585.0 574.65Q591.3 569.79 598.0 575.0Q605.0 575.13 612.0 575.0"/>
    <path d="M584.4 578.07Q591.97 575.66 596.49 582.85Q603.03 585.36 609.65 587.63"/>
    <path d="M582.66 581.08Q590.6 581.4 592.39 589.7Q597.67 594.3 603.12 598.7"/>
    <path d="M580.0 583.31Q587.35 586.33 586.2 594.74Q589.58 600.87 593.2 606.87"/>
    <path d="M576.74 584.5Q582.61 589.85 578.65 597.36Q579.74 604.28 581.08 611.15"/>
    <path d="M573.26 584.5Q576.95 591.54 570.66 597.24Q569.32 604.11 568.23 611.03"/>
    <path d="M570.0 583.31Q571.06 591.19 563.2 594.39Q559.59 600.39 556.2 606.52"/>
    <path d="M567.34 581.08Q565.64 588.84 557.16 589.17Q551.71 593.57 546.43 598.17"/>
    <path d="M565.6 578.07Q561.35 584.79 553.27 582.19Q546.65 584.46 540.11 586.98"/>
    <path d="M565.0 574.65Q558.7 579.51 552.0 574.3Q545.0 574.17 538.0 574.3"/>
    <path d="M565.6 571.23Q558.03 573.64 553.51 566.45Q546.97 563.94 540.35 561.67"/>
    <path d="M567.34 568.22Q559.4 567.9 557.61 559.6Q552.33 555.0 546.88 550.6"/>
    <path d="M570.0 565.99Q562.65 562.97 563.8 554.56Q560.42 548.43 556.8 542.43"/>
    <path d="M573.26 564.8Q567.39 559.45 571.35 551.94Q570.26 545.02 568.92 538.15"/>
    <path d="M576.74 564.8Q573.05 557.76 579.34 552.06Q580.68 545.19 581.77 538.27"/>
    <path d="M580.0 565.99Q578.94 558.11 586.8 554.91Q590.41 548.91 593.8 542.78"/>
    <path d="M582.66 568.22Q584.36 560.46 592.84 560.13Q598.29 555.73 603.57 551.13"/>
    <path d="M584.4 571.23Q588.65 564.51 596.73 567.11Q603.35 564.84 609.89 562.32"/>
    <path d="M699.0 574.65Q705.55 570.73 712.0 575.0Q717.8 566.24 726.0 575.0"/>
    <path d="M698.4 578.07Q705.89 576.63 710.49 582.85Q718.94 576.59 723.65 587.63"/>
    <path d="M696.66 581.08Q704.19 582.28 706.39 589.7Q716.47 586.71 717.12 598.7"/>
    <path d="M694.0 583.31Q700.67 587.02 700.2 594.74Q710.69 595.38 707.2 606.87"/>
    <path d="M690.74 584.5Q695.73 590.26 692.65 597.36Q702.29 601.55 695.08 611.15"/>
    <path d="M687.26 584.5Q689.99 591.62 684.66 597.24Q692.29 604.47 682.23 611.03"/>
    <path d="M684.0 583.31Q684.12 590.94 677.2 594.39Q681.89 603.8 670.2 606.52"/>
    <path d="M681.34 581.08Q678.84 588.29 671.16 589.17Q672.35 599.61 660.43 598.17"/>
    <path d="M679.6 578.07Q674.79 583.99 667.27 582.19Q664.82 592.41 654.11 586.98"/>
    <path d="M679.0 574.65Q672.45 578.57 666.0 574.3Q660.2 583.06 652.0 574.3"/>
    <path d="M679.6 571.23Q672.11 572.67 667.51 566.45Q659.06 572.71 654.35 561.67"/>
    <path d="M681.34 568.22Q673.81 567.02 671.61 559.6Q661.53 562.59 660.88 550.6"/>
    <path d="M684.0 565.99Q677.33 562.28 677.8 554.56Q667.31 553.92 670.8 542.43"/>
    <path d="M687.26 564.8Q682.27 559.04 685.35 551.94Q675.71 547.75 682.92 538.15"/>
    <path d="M690.74 564.8Q688.01 557.68 693.34 552.06Q685.71 544.83 695.77 538.27"/>
    <path d="M694.0 565.99Q693.88 558.36 700.8 554.91Q696.11 545.5 707.8 542.78"/>
    <path d="M696.66 568.22Q699.16 561.01 706.84 560.13Q705.65 549.69 717.57 551.13"/>
    <path d="M698.4 571.23Q703.21 565.31 710.73 567.11Q713.18 556.89 723.89 562.32"/>
    <path d="M813.0 574.65Q819.93 576.27 826.0 575.0Q832.67 579.12 840.0 575.0"/>
    <path d="M812.4 578.07Q818.35 581.96 824.49 582.85Q829.35 589.0 837.65 587.63"/>
    <path d="M810.66 581.08Q814.92 586.77 820.39 589.7Q822.85 597.14 831.12 598.7"/>
    <path d="M808.0 583.31Q810.06 590.12 814.2 594.74Q813.96 602.58 821.2 606.87"/>
    <path d="M804.74 584.5Q804.34 591.6 806.65 597.36Q803.75 604.64 809.08 611.15"/>
    <path d="M801.26 584.5Q798.46 591.04 798.66 597.24Q793.45 603.09 796.23 611.03"/>
    <path d="M798.0 583.31Q793.13 588.5 791.2 594.39Q784.3 598.11 784.2 606.52"/>
    <path d="M795.34 581.08Q788.99 584.29 785.16 589.17Q777.4 590.3 774.43 598.17"/>
    <path d="M793.6 578.07Q786.54 578.91 781.27 582.19Q773.59 580.6 768.11 586.98"/>
    <path d="M793.0 574.65Q786.07 573.03 780.0 574.3Q773.33 570.18 766.0 574.3"/>
    <path d="M793.6 571.23Q787.65 567.34 781.51 566.45Q776.65 560.3 768.35 561.67"/>
    <path d="M795.34 568.22Q791.08 562.53 785.61 559.6Q783.15 552.16 774.88 550.6"/>
    <path d="M798.0 565.99Q795.94 559.18 791.8 554.56Q792.04 546.72 784.8 542.43"/>
    <path d="M801.26 564.8Q801.66 557.7 799.35 551.94Q802.25 544.66 796.92 538.15"/>
    <path d="M804.74 564.8Q807.54 558.26 807.34 552.06Q812.55 546.21 809.77 538.27"/>
    <path d="M808.0 565.99Q812.87 560.8 814.8 554.91Q821.7 551.19 821.8 542.78"/>
    <path d="M810.66 568.22Q817.01 565.01 820.84 560.13Q828.6 559.0 831.57 551.13"/>
    <path d="M812.4 571.23Q819.46 570.39 824.73 567.11Q832.41 568.7 837.89 562.32"/>
    <path d="M927.0 574.65Q933.41 570.2 940.0 575.0Q947.0 575.16 954.0 575.0"/>
    <path d="M926.4 578.07Q933.94 576.08 938.49 582.85Q945.02 585.39 951.65 587.63"/>
    <path d="M924.66 581.08Q932.43 581.79 934.39 589.7Q939.65 594.32 945.12 598.7"/>
    <path d="M922.0 583.31Q929.06 586.64 928.2 594.74Q931.56 600.88 935.2 606.87"/>
    <path d="M918.74 584.5Q924.23 590.04 920.65 597.36Q921.71 604.28 923.08 611.15"/>
    <path d="M915.26 584.5Q918.53 591.58 912.66 597.24Q911.29 604.1 910.23 611.03"/>
    <path d="M912.0 583.31Q912.65 591.09 905.2 594.39Q901.56 600.38 898.2 606.52"/>
    <path d="M909.34 581.08Q907.29 588.61 899.16 589.17Q893.7 593.54 888.43 598.17"/>
    <path d="M907.6 578.07Q903.1 584.44 895.27 582.19Q888.64 584.43 882.11 586.98"/>
    <path d="M907.0 574.65Q900.59 579.1 894.0 574.3Q887.0 574.14 880.0 574.3"/>
    <path d="M907.6 571.23Q900.06 573.22 895.51 566.45Q888.98 563.91 882.35 561.67"/>
    <path d="M909.34 568.22Q901.57 567.51 899.61 559.6Q894.35 554.98 888.88 550.6"/>
    <path d="M912.0 565.99Q904.94 562.66 905.8 554.56Q902.44 548.42 898.8 542.43"/>
    <path d="M915.26 564.8Q909.77 559.26 913.35 551.94Q912.29 545.02 910.92 538.15"/>
    <path d="M918.74 564.8Q915.47 557.72 921.34 552.06Q922.71 545.2 923.77 538.27"/>
    <path d="M922.0 565.99Q921.35 558.21 928.8 554.91Q932.44 548.92 935.8 542.78"/>
    <path d="M924.66 568.22Q926.71 560.69 934.84 560.13Q940.3 555.76 945.57 551.13"/>
    <path d="M926.4 571.23Q930.9 564.86 938.73 567.11Q945.36 564.87 951.89 562.32"/>
    <path d="M1041.0 574.65Q1047.33 579.4 1054.0 575.0Q1060.03 582.22 1068.0 575.0"/>
    <path d="M1040.4 578.07Q1044.72 584.69 1052.49 582.85Q1055.69 591.7 1065.65 587.63"/>
    <path d="M1038.66 581.08Q1040.46 588.78 1048.39 589.7Q1048.37 599.11 1059.12 598.7"/>
    <path d="M1036.0 583.31Q1035.05 591.16 1042.2 594.74Q1038.96 603.58 1049.2 606.87"/>
    <path d="M1032.74 584.5Q1029.16 591.55 1034.65 597.36Q1028.58 604.55 1037.08 611.15"/>
    <path d="M1029.26 584.5Q1023.49 589.91 1026.66 597.24Q1018.5 601.92 1024.23 611.03"/>
    <path d="M1026.0 583.31Q1018.73 586.42 1019.2 594.39Q1009.93 596.0 1012.2 606.52"/>
    <path d="M1023.34 581.08Q1015.44 581.51 1013.16 589.17Q1003.89 587.51 1002.43 598.17"/>
    <path d="M1021.6 578.07Q1014.03 575.78 1009.27 582.19Q1001.13 577.46 996.11 586.98"/>
    <path d="M1021.0 574.65Q1014.67 569.9 1008.0 574.3Q1001.97 567.08 994.0 574.3"/>
    <path d="M1021.6 571.23Q1017.28 564.61 1009.51 566.45Q1006.31 557.6 996.35 561.67"/>
    <path d="M1023.34 568.22Q1021.54 560.52 1013.61 559.6Q1013.63 550.19 1002.88 550.6"/>
    <path d="M1026.0 565.99Q1026.95 558.14 1019.8 554.56Q1023.04 545.72 1012.8 542.43"/>
    <path d="M1029.26 564.8Q1032.84 557.75 1027.35 551.94Q1033.42 544.75 1024.92 538.15"/>
    <path d="M1032.74 564.8Q1038.51 559.39 1035.34 552.06Q1043.5 547.38 1037.77 538.27"/>
    <path d="M1036.0 565.99Q1043.27 562.88 1042.8 554.91Q1052.07 553.3 1049.8 542.78"/>
    <path d="M1038.66 568.22Q1046.56 567.79 1048.84 560.13Q1058.11 561.79 1059.57 551.13"/>
    <path d="M1040.4 571.23Q1047.97 573.52 1052.73 567.11Q1060.87 571.84 1065.89 562.32"/>
    <path d="M186.0 671.55Q192.92 673.27 200.0 672.0Q205.29 678.04 213.0 672.0"/>
    <path d="M185.4 674.97Q191.31 678.96 198.4 680.18Q201.31 687.67 210.61 684.63"/>
    <path d="M183.66 677.98Q187.85 683.75 194.1 687.32Q194.27 695.35 204.05 695.68"/>
    <path d="M181.0 680.21Q182.97 687.06 187.61 692.56Q185.03 700.16 194.11 703.82"/>
    <path d="M177.74 681.4Q177.24 688.51 179.72 695.26Q174.69 701.52 181.98 708.07"/>
    <path d="M174.26 681.4Q171.36 687.91 171.39 695.11Q164.52 699.27 169.13 707.91"/>
    <path d="M171.0 680.21Q166.05 685.34 163.61 692.11Q155.73 693.67 157.11 703.37"/>
    <path d="M168.34 677.98Q161.93 681.1 157.33 686.63Q149.39 685.41 147.37 694.99"/>
    <path d="M166.6 674.97Q159.51 675.72 153.29 679.34Q146.25 675.47 141.08 683.78"/>
    <path d="M166.0 671.55Q159.08 669.83 152.0 671.1Q146.71 665.06 139.0 671.1"/>
    <path d="M166.6 668.13Q160.69 664.14 153.6 662.92Q150.69 655.43 141.39 658.47"/>
    <path d="M168.34 665.12Q164.15 659.35 157.9 655.78Q157.73 647.75 147.95 647.42"/>
    <path d="M171.0 662.89Q169.03 656.04 164.39 650.54Q166.97 642.94 157.89 639.28"/>
    <path d="M174.26 661.7Q174.76 654.59 172.28 647.84Q177.31 641.58 170.02 635.03"/>
    <path d="M177.74 661.7Q180.64 655.19 180.61 647.99Q187.48 643.83 182.87 635.19"/>
    <path d="M181.0 662.89Q185.95 657.76 188.39 650.99Q196.27 649.43 194.89 639.73"/>
    <path d="M183.66 665.12Q190.07 662.0 194.67 656.47Q202.61 657.69 204.63 648.11"/>
    <path d="M185.4 668.13Q192.49 667.38 198.71 663.76Q205.75 667.63 210.92 659.32"/>
    <path d="M300.0 671.55Q306.59 667.83 314.0 672.0Q319.82 674.87 327.0 672.0"/>
    <path d="M299.4 674.97Q306.87 673.73 312.4 680.18Q316.88 684.87 324.61 684.63"/>
    <path d="M297.66 677.98Q305.1 679.37 308.1 687.32Q310.71 693.26 318.05 695.68"/>
    <path d="M295.0 680.21Q301.52 684.06 301.61 692.56Q302.03 699.03 308.11 703.82"/>
    <path d="M291.74 681.4Q296.55 687.25 293.72 695.26Q291.91 701.49 295.98 708.07"/>
    <path d="M288.26 681.4Q290.78 688.54 285.39 695.11Q281.55 700.34 283.13 707.91"/>
    <path d="M285.0 680.21Q284.93 687.78 277.61 692.11Q272.21 695.71 271.11 703.37"/>
    <path d="M282.34 677.98Q279.68 685.07 271.33 686.63Q265.02 688.17 261.37 694.99"/>
    <path d="M280.6 674.97Q275.68 680.72 267.29 679.34Q260.84 678.63 255.08 683.78"/>
    <path d="M280.0 671.55Q273.41 675.27 266.0 671.1Q260.18 668.23 253.0 671.1"/>
    <path d="M280.6 668.13Q273.13 669.37 267.6 662.92Q263.12 658.23 255.39 658.47"/>
    <path d="M282.34 665.12Q274.9 663.73 271.9 655.78Q269.29 649.84 261.95 647.42"/>
    <path d="M285.0 662.89Q278.48 659.04 278.39 650.54Q277.97 644.07 271.89 639.28"/>
    <path d="M288.26 661.7Q283.45 655.85 286.28 647.84Q288.09 641.61 284.02 635.03"/>
    <path d="M291.74 661.7Q289.22 654.56 294.61 647.99Q298.45 642.76 296.87 635.19"/>
    <path d="M295.0 662.89Q295.07 655.32 302.39 650.99Q307.79 647.39 308.89 639.73"/>
    <path d="M297.66 665.12Q300.32 658.03 308.67 656.47Q314.98 654.93 318.63 648.11"/>
    <path d="M299.4 668.13Q304.32 662.38 312.71 663.76Q319.16 664.47 324.92 659.32"/>
    <path d="M414.0 671.55Q420.98 672.57 428.0 672.0Q433.83 668.36 441.0 672.0"/>
    <path d="M413.4 674.97Q419.6 678.32 426.4 680.18Q433.13 678.75 438.61 684.63"/>
    <path d="M411.66 677.98Q416.35 683.24 422.1 687.32Q428.91 688.28 432.05 695.68"/>
    <path d="M409.0 680.21Q411.6 686.76 415.61 692.56Q421.68 695.79 422.11 703.82"/>
    <path d="M405.74 681.4Q405.94 688.44 407.72 695.26Q412.32 700.38 409.98 708.07"/>
    <path d="M402.26 681.4Q400.05 688.09 399.39 695.11Q401.96 701.48 397.13 707.91"/>
    <path d="M399.0 680.21Q394.63 685.74 391.61 692.11Q391.85 698.98 385.11 703.37"/>
    <path d="M396.34 677.98Q390.34 681.68 385.33 686.63Q383.2 693.17 375.37 694.99"/>
    <path d="M394.6 674.97Q387.7 676.4 381.29 679.34Q377.06 684.75 369.08 683.78"/>
    <path d="M394.0 671.55Q387.02 670.53 380.0 671.1Q374.17 674.74 367.0 671.1"/>
    <path d="M394.6 668.13Q388.4 664.78 381.6 662.92Q374.87 664.35 369.39 658.47"/>
    <path d="M396.34 665.12Q391.65 659.86 385.9 655.78Q379.09 654.82 375.95 647.42"/>
    <path d="M399.0 662.89Q396.4 656.34 392.39 650.54Q386.32 647.31 385.89 639.28"/>
    <path d="M402.26 661.7Q402.06 654.66 400.28 647.84Q395.68 642.72 398.02 635.03"/>
    <path d="M405.74 661.7Q407.95 655.01 408.61 647.99Q406.04 641.62 410.87 635.19"/>
    <path d="M409.0 662.89Q413.37 657.36 416.39 650.99Q416.15 644.12 422.89 639.73"/>
    <path d="M411.66 665.12Q417.66 661.42 422.67 656.47Q424.8 649.93 432.63 648.11"/>
    <path d="M413.4 668.13Q420.3 666.7 426.71 663.76Q430.94 658.35 438.92 659.32"/>
    <path d="M528.0 671.55Q534.69 668.29 542.0 672.0Q548.0 671.83 555.0 672.0"/>
    <path d="M527.4 674.97Q534.8 674.2 540.4 680.18Q546.1 682.07 552.61 684.63"/>
    <path d="M525.66 677.98Q532.88 679.78 536.1 687.32Q540.8 691.05 546.05 695.68"/>
    <path d="M523.0 680.21Q529.17 684.38 529.61 692.56Q532.76 697.67 536.11 703.82"/>
    <path d="M519.74 681.4Q524.11 687.42 521.72 695.26Q522.93 701.14 523.98 708.07"/>
    <path d="M516.26 681.4Q518.31 688.55 513.39 695.11Q512.52 701.05 511.13 707.91"/>
    <path d="M513.0 680.21Q512.48 687.63 505.61 692.11Q502.76 697.39 499.11 703.37"/>
    <path d="M510.34 677.98Q507.31 684.77 499.33 686.63Q494.84 690.62 489.37 694.99"/>
    <path d="M508.6 674.97Q503.43 680.32 495.29 679.34Q489.71 681.55 483.08 683.78"/>
    <path d="M508.0 671.55Q501.31 674.81 494.0 671.1Q488.0 671.27 481.0 671.1"/>
    <path d="M508.6 668.13Q501.2 668.9 495.6 662.92Q489.9 661.03 483.39 658.47"/>
    <path d="M510.34 665.12Q503.12 663.32 499.9 655.78Q495.2 652.05 489.95 647.42"/>
    <path d="M513.0 662.89Q506.83 658.72 506.39 650.54Q503.24 645.43 499.89 639.28"/>
    <path d="M516.26 661.7Q511.89 655.68 514.28 647.84Q513.07 641.96 512.02 635.03"/>
    <path d="M519.74 661.7Q517.69 654.55 522.61 647.99Q523.48 642.05 524.87 635.19"/>
    <path d="M523.0 662.89Q523.52 655.47 530.39 650.99Q533.24 645.71 536.89 639.73"/>
    <path d="M525.66 665.12Q528.69 658.33 536.67 656.47Q541.16 652.48 546.63 648.11"/>
    <path d="M527.4 668.13Q532.57 662.78 540.71 663.76Q546.29 661.55 552.92 659.32"/>
    <path d="M642.0 671.55Q648.99 672.33 656.0 672.0Q661.96 673.25 669.0 672.0"/>
    <path d="M641.4 674.97Q647.7 678.09 654.4 680.18Q659.57 683.39 666.61 684.63"/>
    <path d="M639.66 677.98Q644.51 683.07 650.1 687.32Q653.85 692.11 660.05 695.68"/>
    <path d="M637.0 680.21Q639.82 686.65 643.61 692.56Q645.51 698.34 650.11 703.82"/>
    <path d="M633.74 681.4Q634.18 688.42 635.72 695.26Q635.53 701.35 637.98 708.07"/>
    <path d="M630.26 681.4Q628.28 688.14 627.39 695.11Q625.12 700.76 625.13 707.91"/>
    <path d="M627.0 680.21Q622.83 685.87 619.61 692.11Q615.55 696.64 613.11 703.37"/>
    <path d="M624.34 677.98Q618.49 681.87 613.33 686.63Q607.96 689.5 603.37 694.99"/>
    <path d="M622.6 674.97Q615.77 676.63 609.29 679.34Q603.27 680.2 597.08 683.78"/>
    <path d="M622.0 671.55Q615.01 670.77 608.0 671.1Q602.04 669.85 595.0 671.1"/>
    <path d="M622.6 668.13Q616.3 665.01 609.6 662.92Q604.43 659.71 597.39 658.47"/>
    <path d="M624.34 665.12Q619.49 660.03 613.9 655.78Q610.15 650.99 603.95 647.42"/>
    <path d="M627.0 662.89Q624.18 656.45 620.39 650.54Q618.49 644.76 613.89 639.28"/>
    <path d="M630.26 661.7Q629.82 654.68 628.28 647.84Q628.47 641.75 626.02 635.03"/>
    <path d="M633.74 661.7Q635.72 654.96 636.61 647.99Q638.88 642.34 638.87 635.19"/>
    <path d="M637.0 662.89Q641.17 657.23 644.39 650.99Q648.45 646.46 650.89 639.73"/>
    <path d="M639.66 665.12Q645.51 661.23 650.67 656.47Q656.04 653.6 660.63 648.11"/>
    <path d="M641.4 668.13Q648.23 666.47 654.71 663.76Q660.73 662.9 666.92 659.32"/>
    <path d="M756.0 671.55Q762.8 668.93 770.0 672.0Q775.7 675.81 783.0 672.0"/>
    <path d="M755.4 674.97Q762.69 674.83 768.4 680.18Q772.45 685.71 780.61 684.63"/>
    <path d="M753.66 677.98Q760.56 680.34 764.1 687.32Q766.02 693.9 774.05 695.68"/>
    <path d="M751.0 680.21Q756.67 684.79 757.61 692.56Q757.16 699.4 764.11 703.82"/>
    <path d="M747.74 681.4Q751.5 687.64 749.72 695.26Q746.97 701.54 751.98 708.07"/>
    <path d="M744.26 681.4Q745.67 688.55 741.39 695.11Q736.65 700.06 739.13 707.91"/>
    <path d="M741.0 680.21Q739.87 687.41 733.61 692.11Q727.46 695.14 727.11 703.37"/>
    <path d="M738.34 677.98Q734.81 684.36 727.33 686.63Q720.51 687.38 717.37 694.99"/>
    <path d="M736.6 674.97Q731.11 679.76 723.29 679.34Q716.64 677.71 711.08 683.78"/>
    <path d="M736.0 671.55Q729.2 674.17 722.0 671.1Q716.3 667.29 709.0 671.1"/>
    <path d="M736.6 668.13Q729.31 668.27 723.6 662.92Q719.55 657.39 711.39 658.47"/>
    <path d="M738.34 665.12Q731.44 662.76 727.9 655.78Q725.98 649.2 717.95 647.42"/>
    <path d="M741.0 662.89Q735.33 658.31 734.39 650.54Q734.84 643.7 727.89 639.28"/>
    <path d="M744.26 661.7Q740.5 655.46 742.28 647.84Q745.03 641.56 740.02 635.03"/>
    <path d="M747.74 661.7Q746.33 654.55 750.61 647.99Q755.35 643.04 752.87 635.19"/>
    <path d="M751.0 662.89Q752.13 655.69 758.39 650.99Q764.54 647.96 764.89 639.73"/>
    <path d="M753.66 665.12Q757.19 658.74 764.67 656.47Q771.49 655.72 774.63 648.11"/>
    <path d="M755.4 668.13Q760.89 663.34 768.71 663.76Q775.36 665.39 780.92 659.32"/>
    <path d="M870.0 671.55Q877.0 671.99 884.0 672.0Q889.91 673.95 897.0 672.0"/>
    <path d="M869.4 674.97Q875.83 677.78 882.4 680.18Q887.28 684.04 894.61 684.63"/>
    <path d="M867.66 677.98Q872.74 682.81 878.1 687.32Q881.37 692.61 888.05 695.68"/>
    <path d="M865.0 680.21Q868.12 686.49 871.61 692.56Q872.87 698.65 878.11 703.82"/>
    <path d="M861.74 681.4Q862.52 688.37 863.72 695.26Q862.83 701.42 865.98 708.07"/>
    <path d="M858.26 681.4Q856.62 688.22 855.39 695.11Q852.44 700.59 853.13 707.91"/>
    <path d="M855.0 680.21Q851.12 686.05 847.61 692.11Q842.97 696.25 841.11 703.37"/>
    <path d="M852.34 677.98Q846.7 682.14 841.33 686.63Q835.55 688.93 831.37 694.99"/>
    <path d="M850.6 674.97Q843.88 676.95 837.29 679.34Q831.07 679.52 825.08 683.78"/>
    <path d="M850.0 671.55Q843.0 671.11 836.0 671.1Q830.09 669.15 823.0 671.1"/>
    <path d="M850.6 668.13Q844.17 665.32 837.6 662.92Q832.72 659.06 825.39 658.47"/>
    <path d="M852.34 665.12Q847.26 660.29 841.9 655.78Q838.63 650.49 831.95 647.42"/>
    <path d="M855.0 662.89Q851.88 656.61 848.39 650.54Q847.13 644.45 841.89 639.28"/>
    <path d="M858.26 661.7Q857.48 654.73 856.28 647.84Q857.17 641.68 854.02 635.03"/>
    <path d="M861.74 661.7Q863.38 654.88 864.61 647.99Q867.56 642.51 866.87 635.19"/>
    <path d="M865.0 662.89Q868.88 657.05 872.39 650.99Q877.03 646.85 878.89 639.73"/>
    <path d="M867.66 665.12Q873.3 660.96 878.67 656.47Q884.45 654.17 888.63 648.11"/>
    <path d="M869.4 668.13Q876.12 666.15 882.71 663.76Q888.93 663.58 894.92 659.32"/>
    <path d="M984.0 671.55Q990.84 669.15 998.0 672.0Q1003.65 676.16 1011.0 672.0"/>
    <path d="M983.4 674.97Q990.64 675.05 996.4 680.18Q1000.28 686.02 1008.61 684.63"/>
    <path d="M981.66 677.98Q988.44 680.53 992.1 687.32Q993.75 694.14 1002.05 695.68"/>
    <path d="M979.0 680.21Q984.5 684.93 985.61 692.56Q984.84 699.53 992.11 703.82"/>
    <path d="M975.74 681.4Q979.29 687.71 977.72 695.26Q974.61 701.55 979.98 708.07"/>
    <path d="M972.26 681.4Q973.44 688.55 969.39 695.11Q964.32 699.95 967.13 707.91"/>
    <path d="M969.0 680.21Q967.66 687.33 961.61 692.11Q955.19 694.92 955.11 703.37"/>
    <path d="M966.34 677.98Q962.65 684.21 955.33 686.63Q948.33 687.08 945.37 694.99"/>
    <path d="M964.6 674.97Q959.0 679.57 951.29 679.34Q944.56 677.36 939.08 683.78"/>
    <path d="M964.0 671.55Q957.16 673.95 950.0 671.1Q944.35 666.94 937.0 671.1"/>
    <path d="M964.6 668.13Q957.36 668.05 951.6 662.92Q947.72 657.08 939.39 658.47"/>
    <path d="M966.34 665.12Q959.56 662.57 955.9 655.78Q954.25 648.96 945.95 647.42"/>
    <path d="M969.0 662.89Q963.5 658.17 962.39 650.54Q963.16 643.57 955.89 639.28"/>
    <path d="M972.26 661.7Q968.71 655.39 970.28 647.84Q973.39 641.55 968.02 635.03"/>
    <path d="M975.74 661.7Q974.56 654.55 978.61 647.99Q983.68 643.15 980.87 635.19"/>
    <path d="M979.0 662.89Q980.34 655.77 986.39 650.99Q992.81 648.18 992.89 639.73"/>
    <path d="M981.66 665.12Q985.35 658.89 992.67 656.47Q999.67 656.02 1002.63 648.11"/>
    <path d="M983.4 668.13Q989.0 663.53 996.71 663.76Q1003.44 665.74 1008.92 659.32"/>
    <g stroke="blue">
    </g>
  </g>
</svg>
