<svg version="1.1" width="1150" height="870" xmlns="http://www.w3.org/2000/svg">
  <!-- Seed: 1336255967936472970 -->
  <g stroke="black" fill="none">
    <circle cx="203" cy="461.0" r="1"/>
    <circle cx="206.0" cy="465.0" r="1.04"/>
    <circle cx="210.0" cy="469.0" r="1.16"/>
    <circle cx="213.0" cy="472.0" r="1.35"/>
    <circle cx="216.0" cy="476.0" r="1.62"/>
    <circle cx="219.0" cy="480.0" r="1.95"/>
    <circle cx="223.0" cy="484.0" r="2.34"/>
    <circle cx="226.0" cy="487.0" r="2.79"/>
    <circle cx="229.0" cy="491.0" r="3.28"/>
    <circle cx="233.0" cy="495.0" r="3.8"/>
    <circle cx="236.0" cy="499.0" r="4.35"/>
    <circle cx="239.0" cy="502.0" r="4.91"/>
    <circle cx="243.0" cy="506.0" r="5.47"/>
    <circle cx="246.0" cy="510.0" r="6.02"/>
    <circle cx="249.0" cy="514.0" r="6.56"/>
    <circle cx="252.0" cy="517.0" r="7.06"/>
    <circle cx="256.0" cy="521.0" r="7.52"/>
    <circle cx="259.0" cy="525.0" r="7.93"/>
    <circle cx="262.0" cy="529.0" r="8.28"/>
    <circle cx="266.0" cy="532.0" r="8.57"/>
    <circle cx="269.0" cy="536.0" r="8.79"/>
    <circle cx="272.0" cy="540.0" r="8.93"/>
    <circle cx="275.0" cy="544.0" r="9.0"/>
    <circle cx="276.0" cy="545.0" r="9"/>
    <circle cx="285.0" cy="555.0" r="9.2"/>
    <circle cx="294.0" cy="564.0" r="9.8"/>
    <circle cx="301.0" cy="572.0" r="10.77"/>
    <circle cx="308.0" cy="579.0" r="12.08"/>
    <circle cx="314.0" cy="585.0" r="13.67"/>
    <circle cx="320.0" cy="590.0" r="15.48"/>
    <circle cx="325.0" cy="595.0" r="17.45"/>
    <circle cx="329.0" cy="598.0" r="19.5"/>
    <circle cx="333.0" cy="600.0" r="21.55"/>
    <circle cx="336.0" cy="601.0" r="23.52"/>
    <circle cx="338.0" cy="602.0" r="25.33"/>
    <circle cx="340.0" cy="601.0" r="26.92"/>
    <circle cx="340.0" cy="599.0" r="28.23"/>
    <circle cx="341.0" cy="597.0" r="29.2"/>
    <circle cx="340.0" cy="593.0" r="29.8"/>
    <circle cx="340.0" cy="588.0" r="30"/>
    <circle cx="338.0" cy="583.0" r="30.25"/>
    <circle cx="337.0" cy="578.0" r="30.99"/>
    <circle cx="336.0" cy="574.0" r="32.19"/>
    <circle cx="336.0" cy="569.0" r="33.81"/>
    <circle cx="335.0" cy="564.0" r="35.78"/>
    <circle cx="335.0" cy="559.0" r="38.03"/>
    <circle cx="335.0" cy="554.0" r="40.46"/>
    <circle cx="335.0" cy="550.0" r="43.0"/>
    <circle cx="335.0" cy="545.0" r="45.54"/>
    <circle cx="335.0" cy="540.0" r="47.97"/>
    <circle cx="336.0" cy="536.0" r="50.22"/>
    <circle cx="336.0" cy="531.0" r="52.19"/>
    <circle cx="337.0" cy="527.0" r="53.81"/>
    <circle cx="338.0" cy="523.0" r="55.01"/>
    <circle cx="340.0" cy="518.0" r="55.75"/>
    <circle cx="341.0" cy="514.0" r="56"/>
    <circle cx="343.0" cy="508.0" r="55.73"/>
    <circle cx="344.0" cy="503.0" r="54.93"/>
    <circle cx="345.0" cy="498.0" r="53.66"/>
    <circle cx="346.0" cy="493.0" r="52.0"/>
    <circle cx="346.0" cy="488.0" r="50.07"/>
    <circle cx="346.0" cy="483.0" r="48.0"/>
    <circle cx="346.0" cy="478.0" r="45.93"/>
    <circle cx="345.0" cy="474.0" r="44.0"/>
    <circle cx="344.0" cy="470.0" r="42.34"/>
    <circle cx="342.0" cy="466.0" r="41.07"/>
    <circle cx="340.0" cy="462.0" r="40.27"/>
    <circle cx="338.0" cy="458.0" r="40"/>
    <circle cx="335.0" cy="454.0" r="39.64"/>
    <circle cx="333.0" cy="450.0" r="38.57"/>
    <circle cx="331.0" cy="445.0" r="36.89"/>
    <circle cx="329.0" cy="441.0" r="34.74"/>
    <circle cx="328.0" cy="436.0" r="32.28"/>
    <circle cx="328.0" cy="431.0" r="29.72"/>
    <circle cx="328.0" cy="426.0" r="27.26"/>
    <circle cx="328.0" cy="421.0" r="25.11"/>
    <circle cx="329.0" cy="416.0" r="23.43"/>
    <circle cx="330.0" cy="411.0" r="22.36"/>
    <circle cx="331.0" cy="405.0" r="22"/>
    <circle cx="332.0" cy="401.0" r="22.22"/>
    <circle cx="333.0" cy="397.0" r="22.88"/>
    <circle cx="333.0" cy="394.0" r="23.95"/>
    <circle cx="334.0" cy="389.0" r="25.39"/>
    <circle cx="334.0" cy="385.0" r="27.17"/>
    <circle cx="334.0" cy="381.0" r="29.21"/>
    <circle cx="334.0" cy="377.0" r="31.44"/>
    <circle cx="333.0" cy="372.0" r="33.8"/>
    <circle cx="333.0" cy="367.0" r="36.2"/>
    <circle cx="332.0" cy="363.0" r="38.56"/>
    <circle cx="331.0" cy="358.0" r="40.79"/>
    <circle cx="330.0" cy="353.0" r="42.83"/>
    <circle cx="329.0" cy="348.0" r="44.61"/>
    <circle cx="328.0" cy="342.0" r="46.05"/>
    <circle cx="326.0" cy="337.0" r="47.12"/>
    <circle cx="324.0" cy="332.0" r="47.78"/>
    <circle cx="322.0" cy="326.0" r="48"/>
    <circle cx="320.0" cy="320.0" r="47.78"/>
    <circle cx="318.0" cy="314.0" r="47.12"/>
    <circle cx="316.0" cy="309.0" r="46.06"/>
    <circle cx="314.0" cy="304.0" r="44.63"/>
    <circle cx="312.0" cy="299.0" r="42.89"/>
    <circle cx="310.0" cy="294.0" r="40.9"/>
    <circle cx="309.0" cy="289.0" r="38.74"/>
    <circle cx="308.0" cy="284.0" r="36.5"/>
    <circle cx="306.0" cy="280.0" r="34.26"/>
    <circle cx="305.0" cy="276.0" r="32.1"/>
    <circle cx="304.0" cy="272.0" r="30.11"/>
    <circle cx="303.0" cy="269.0" r="28.37"/>
    <circle cx="302.0" cy="265.0" r="26.94"/>
    <circle cx="301.0" cy="262.0" r="25.88"/>
    <circle cx="301.0" cy="259.0" r="25.22"/>
    <circle cx="300.0" cy="256.0" r="25"/>
    <circle cx="299.0" cy="253.0" r="24.79"/>
    <circle cx="299.0" cy="249.0" r="24.16"/>
    <circle cx="298.0" cy="246.0" r="23.15"/>
    <circle cx="298.0" cy="242.0" r="21.8"/>
    <circle cx="297.0" cy="238.0" r="20.19"/>
    <circle cx="297.0" cy="233.0" r="18.39"/>
    <circle cx="296.0" cy="229.0" r="16.5"/>
    <circle cx="296.0" cy="224.0" r="14.61"/>
    <circle cx="295.0" cy="219.0" r="12.81"/>
    <circle cx="295.0" cy="214.0" r="11.2"/>
    <circle cx="294.0" cy="208.0" r="9.85"/>
    <circle cx="294.0" cy="203.0" r="8.84"/>
    <circle cx="293.0" cy="197.0" r="8.21"/>
    <circle cx="293.0" cy="191.0" r="8"/>
    <circle cx="293.0" cy="181.0" r="9.49"/>
    <circle cx="294.0" cy="174.0" r="13.65"/>
    <circle cx="298.0" cy="172.0" r="19.66"/>
    <circle cx="302.0" cy="173.0" r="26.34"/>
    <circle cx="309.0" cy="179.0" r="32.35"/>
    <circle cx="317.0" cy="188.0" r="36.51"/>
    <circle cx="326.0" cy="202.0" r="38"/>
    <circle cx="330.0" cy="208.0" r="37.95"/>
    <circle cx="334.0" cy="214.0" r="37.8"/>
    <circle cx="338.0" cy="219.0" r="37.55"/>
    <circle cx="341.0" cy="225.0" r="37.22"/>
    <circle cx="344.0" cy="230.0" r="36.81"/>
    <circle cx="347.0" cy="235.0" r="36.34"/>
    <circle cx="350.0" cy="240.0" r="35.82"/>
    <circle cx="352.0" cy="244.0" r="35.28"/>
    <circle cx="354.0" cy="248.0" r="34.72"/>
    <circle cx="356.0" cy="253.0" r="34.18"/>
    <circle cx="358.0" cy="256.0" r="33.66"/>
    <circle cx="359.0" cy="260.0" r="33.19"/>
    <circle cx="360.0" cy="263.0" r="32.78"/>
    <circle cx="361.0" cy="266.0" r="32.45"/>
    <circle cx="362.0" cy="269.0" r="32.2"/>
    <circle cx="362.0" cy="272.0" r="32.05"/>
    <circle cx="362.0" cy="274.0" r="32"/>
    <circle cx="362.0" cy="277.0" r="32.12"/>
    <circle cx="362.0" cy="280.0" r="32.46"/>
    <circle cx="363.0" cy="284.0" r="33.01"/>
    <circle cx="363.0" cy="288.0" r="33.73"/>
    <circle cx="364.0" cy="292.0" r="34.58"/>
    <circle cx="365.0" cy="296.0" r="35.52"/>
    <circle cx="366.0" cy="301.0" r="36.48"/>
    <circle cx="367.0" cy="305.0" r="37.42"/>
    <circle cx="369.0" cy="310.0" r="38.27"/>
    <circle cx="370.0" cy="316.0" r="38.99"/>
    <circle cx="372.0" cy="321.0" r="39.54"/>
    <circle cx="374.0" cy="327.0" r="39.88"/>
    <circle cx="376.0" cy="333.0" r="40"/>
    <circle cx="378.0" cy="338.0" r="39.75"/>
    <circle cx="380.0" cy="343.0" r="39.01"/>
    <circle cx="381.0" cy="348.0" r="37.8"/>
    <circle cx="383.0" cy="353.0" r="36.2"/>
    <circle cx="384.0" cy="358.0" r="34.25"/>
    <circle cx="386.0" cy="363.0" r="32.05"/>
    <circle cx="387.0" cy="367.0" r="29.7"/>
    <circle cx="389.0" cy="372.0" r="27.3"/>
    <circle cx="390.0" cy="376.0" r="24.95"/>
    <circle cx="391.0" cy="380.0" r="22.75"/>
    <circle cx="392.0" cy="384.0" r="20.8"/>
    <circle cx="393.0" cy="388.0" r="19.2"/>
    <circle cx="394.0" cy="392.0" r="17.99"/>
    <circle cx="395.0" cy="395.0" r="17.25"/>
    <circle cx="396.0" cy="399.0" r="17"/>
    <circle cx="396.0" cy="402.0" r="17.24"/>
    <circle cx="397.0" cy="405.0" r="17.95"/>
    <circle cx="398.0" cy="409.0" r="19.1"/>
    <circle cx="398.0" cy="413.0" r="20.65"/>
    <circle cx="399.0" cy="416.0" r="22.56"/>
    <circle cx="400.0" cy="421.0" r="24.76"/>
    <circle cx="401.0" cy="425.0" r="27.17"/>
    <circle cx="401.0" cy="429.0" r="29.71"/>
    <circle cx="402.0" cy="434.0" r="32.29"/>
    <circle cx="403.0" cy="438.0" r="34.83"/>
    <circle cx="404.0" cy="443.0" r="37.24"/>
    <circle cx="405.0" cy="448.0" r="39.44"/>
    <circle cx="406.0" cy="454.0" r="41.35"/>
    <circle cx="407.0" cy="459.0" r="42.9"/>
    <circle cx="408.0" cy="465.0" r="44.05"/>
    <circle cx="409.0" cy="471.0" r="44.76"/>
    <circle cx="410.0" cy="476.0" r="45"/>
    <circle cx="411.0" cy="482.0" r="44.74"/>
    <circle cx="412.0" cy="488.0" r="43.95"/>
    <circle cx="413.0" cy="494.0" r="42.68"/>
    <circle cx="415.0" cy="499.0" r="40.95"/>
    <circle cx="416.0" cy="504.0" r="38.84"/>
    <circle cx="418.0" cy="509.0" r="36.41"/>
    <circle cx="420.0" cy="513.0" r="33.74"/>
    <circle cx="422.0" cy="518.0" r="30.93"/>
    <circle cx="424.0" cy="522.0" r="28.07"/>
    <circle cx="427.0" cy="526.0" r="25.26"/>
    <circle cx="429.0" cy="530.0" r="22.59"/>
    <circle cx="432.0" cy="533.0" r="20.16"/>
    <circle cx="435.0" cy="536.0" r="18.05"/>
    <circle cx="438.0" cy="539.0" r="16.32"/>
    <circle cx="441.0" cy="542.0" r="15.05"/>
    <circle cx="444.0" cy="545.0" r="14.26"/>
    <circle cx="448.0" cy="547.0" r="14"/>
    <circle cx="451.0" cy="550.0" r="13.92"/>
    <circle cx="455.0" cy="553.0" r="13.7"/>
    <circle cx="458.0" cy="556.0" r="13.33"/>
    <circle cx="461.0" cy="559.0" r="12.84"/>
    <circle cx="464.0" cy="563.0" r="12.25"/>
    <circle cx="466.0" cy="566.0" r="11.58"/>
    <circle cx="468.0" cy="570.0" r="10.87"/>
    <circle cx="470.0" cy="575.0" r="10.13"/>
    <circle cx="472.0" cy="579.0" r="9.42"/>
    <circle cx="474.0" cy="584.0" r="8.75"/>
    <circle cx="475.0" cy="589.0" r="8.16"/>
    <circle cx="476.0" cy="594.0" r="7.67"/>
    <circle cx="476.0" cy="599.0" r="7.3"/>
    <circle cx="476.0" cy="605.0" r="7.08"/>
    <circle cx="476.0" cy="611.0" r="7"/>
    <circle cx="476.0" cy="617.0" r="7.48"/>
    <circle cx="476.0" cy="623.0" r="8.9"/>
    <circle cx="477.0" cy="628.0" r="11.2"/>
    <circle cx="477.0" cy="634.0" r="14.28"/>
    <circle cx="477.0" cy="639.0" r="18.0"/>
    <circle cx="477.0" cy="644.0" r="22.2"/>
    <circle cx="477.0" cy="649.0" r="26.7"/>
    <circle cx="477.0" cy="653.0" r="31.3"/>
    <circle cx="478.0" cy="658.0" r="35.8"/>
    <circle cx="478.0" cy="662.0" r="40.0"/>
    <circle cx="478.0" cy="666.0" r="43.72"/>
    <circle cx="479.0" cy="670.0" r="46.8"/>
    <circle cx="479.0" cy="674.0" r="49.1"/>
    <circle cx="480.0" cy="677.0" r="50.52"/>
    <circle cx="480.0" cy="680.0" r="51"/>
    <circle cx="481.0" cy="685.0" r="50.39"/>
    <circle cx="482.0" cy="689.0" r="48.59"/>
    <circle cx="484.0" cy="693.0" r="45.73"/>
    <circle cx="485.0" cy="697.0" r="42.0"/>
    <circle cx="487.0" cy="701.0" r="37.66"/>
    <circle cx="489.0" cy="705.0" r="33.0"/>
    <circle cx="491.0" cy="709.0" r="28.34"/>
    <circle cx="494.0" cy="713.0" r="24.0"/>
    <circle cx="496.0" cy="717.0" r="20.27"/>
    <circle cx="499.0" cy="721.0" r="17.41"/>
    <circle cx="502.0" cy="725.0" r="15.61"/>
    <circle cx="506.0" cy="730.0" r="15"/>
    <circle cx="511.0" cy="736.0" r="16.63"/>
    <circle cx="517.0" cy="740.0" r="21.21"/>
    <circle cx="522.0" cy="741.0" r="27.83"/>
    <circle cx="527.0" cy="742.0" r="35.17"/>
    <circle cx="531.0" cy="740.0" r="41.79"/>
    <circle cx="536.0" cy="736.0" r="46.37"/>
    <circle cx="540.0" cy="730.0" r="48"/>
    <circle cx="543.0" cy="724.0" r="46.9"/>
    <circle cx="545.0" cy="718.0" r="43.75"/>
    <circle cx="547.0" cy="713.0" r="39.05"/>
    <circle cx="547.0" cy="708.0" r="33.5"/>
    <circle cx="547.0" cy="703.0" r="27.95"/>
    <circle cx="546.0" cy="699.0" r="23.25"/>
    <circle cx="543.0" cy="695.0" r="20.1"/>
    <circle cx="540.0" cy="692.0" r="19"/>
    <circle cx="538.0" cy="688.0" r="20.06"/>
    <circle cx="535.0" cy="685.0" r="23.09"/>
    <circle cx="533.0" cy="681.0" r="27.75"/>
    <circle cx="531.0" cy="677.0" r="33.46"/>
    <circle cx="530.0" cy="672.0" r="39.54"/>
    <circle cx="528.0" cy="667.0" r="45.25"/>
    <circle cx="527.0" cy="661.0" r="49.91"/>
    <circle cx="527.0" cy="656.0" r="52.94"/>
    <circle cx="526.0" cy="650.0" r="54"/>
    <circle cx="526.0" cy="646.0" r="54.0"/>
    <circle cx="526.0" cy="642.0" r="54.0"/>
    <circle cx="525.0" cy="638.0" r="54.0"/>
    <circle cx="525.0" cy="635.0" r="54.0"/>
    <circle cx="524.0" cy="631.0" r="54.0"/>
    <circle cx="522.0" cy="627.0" r="54.0"/>
    <circle cx="521.0" cy="623.0" r="54.0"/>
    <circle cx="519.0" cy="618.0" r="54.0"/>
    <circle cx="517.0" cy="614.0" r="54.0"/>
    <circle cx="515.0" cy="610.0" r="54.0"/>
    <circle cx="513.0" cy="606.0" r="54.0"/>
    <circle cx="510.0" cy="601.0" r="54.0"/>
    <circle cx="508.0" cy="597.0" r="54.0"/>
    <circle cx="505.0" cy="592.0" r="54.0"/>
    <circle cx="501.0" cy="587.0" r="54.0"/>
    <circle cx="498.0" cy="582.0" r="54"/>
    <circle cx="494.0" cy="577.0" r="53.62"/>
    <circle cx="491.0" cy="572.0" r="52.51"/>
    <circle cx="487.0" cy="567.0" r="50.73"/>
    <circle cx="485.0" cy="562.0" r="48.35"/>
    <circle cx="482.0" cy="557.0" r="45.51"/>
    <circle cx="480.0" cy="553.0" r="42.34"/>
    <circle cx="478.0" cy="548.0" r="39.0"/>
    <circle cx="476.0" cy="544.0" r="35.66"/>
    <circle cx="475.0" cy="540.0" r="32.49"/>
    <circle cx="474.0" cy="536.0" r="29.65"/>
    <circle cx="473.0" cy="532.0" r="27.27"/>
    <circle cx="473.0" cy="529.0" r="25.49"/>
    <circle cx="473.0" cy="525.0" r="24.38"/>
    <circle cx="474.0" cy="522.0" r="24"/>
    <circle cx="474.0" cy="519.0" r="23.94"/>
    <circle cx="475.0" cy="515.0" r="23.75"/>
    <circle cx="475.0" cy="512.0" r="23.45"/>
    <circle cx="476.0" cy="508.0" r="23.06"/>
    <circle cx="476.0" cy="503.0" r="22.58"/>
    <circle cx="477.0" cy="499.0" r="22.06"/>
    <circle cx="478.0" cy="494.0" r="21.5"/>
    <circle cx="478.0" cy="490.0" r="20.94"/>
    <circle cx="479.0" cy="485.0" r="20.42"/>
    <circle cx="480.0" cy="479.0" r="19.94"/>
    <circle cx="481.0" cy="474.0" r="19.55"/>
    <circle cx="482.0" cy="468.0" r="19.25"/>
    <circle cx="483.0" cy="462.0" r="19.06"/>
    <circle cx="484.0" cy="456.0" r="19"/>
    <circle cx="484.0" cy="450.0" r="19.45"/>
    <circle cx="485.0" cy="444.0" r="20.78"/>
    <circle cx="485.0" cy="438.0" r="22.93"/>
    <circle cx="485.0" cy="433.0" r="25.78"/>
    <circle cx="484.0" cy="428.0" r="29.19"/>
    <circle cx="483.0" cy="423.0" r="32.99"/>
    <circle cx="482.0" cy="418.0" r="37.0"/>
    <circle cx="481.0" cy="414.0" r="41.01"/>
    <circle cx="479.0" cy="410.0" r="44.81"/>
    <circle cx="477.0" cy="406.0" r="48.22"/>
    <circle cx="475.0" cy="403.0" r="51.07"/>
    <circle cx="472.0" cy="400.0" r="53.22"/>
    <circle cx="469.0" cy="397.0" r="54.55"/>
    <circle cx="466.0" cy="394.0" r="55"/>
    <circle cx="463.0" cy="392.0" r="54.82"/>
    <circle cx="461.0" cy="389.0" r="54.29"/>
    <circle cx="458.0" cy="386.0" r="53.43"/>
    <circle cx="456.0" cy="383.0" r="52.26"/>
    <circle cx="453.0" cy="380.0" r="50.83"/>
    <circle cx="451.0" cy="377.0" r="49.18"/>
    <circle cx="449.0" cy="373.0" r="47.37"/>
    <circle cx="447.0" cy="369.0" r="45.47"/>
    <circle cx="445.0" cy="364.0" r="43.53"/>
    <circle cx="444.0" cy="360.0" r="41.63"/>
    <circle cx="442.0" cy="355.0" r="39.82"/>
    <circle cx="441.0" cy="350.0" r="38.17"/>
    <circle cx="439.0" cy="344.0" r="36.74"/>
    <circle cx="438.0" cy="339.0" r="35.57"/>
    <circle cx="437.0" cy="333.0" r="34.71"/>
    <circle cx="436.0" cy="326.0" r="34.18"/>
    <circle cx="435.0" cy="320.0" r="34"/>
    <circle cx="434.0" cy="312.0" r="33.71"/>
    <circle cx="433.0" cy="304.0" r="32.85"/>
    <circle cx="432.0" cy="297.0" r="31.49"/>
    <circle cx="432.0" cy="290.0" r="29.68"/>
    <circle cx="431.0" cy="284.0" r="27.55"/>
    <circle cx="431.0" cy="279.0" r="25.21"/>
    <circle cx="430.0" cy="274.0" r="22.79"/>
    <circle cx="430.0" cy="269.0" r="20.45"/>
    <circle cx="430.0" cy="266.0" r="18.32"/>
    <circle cx="430.0" cy="263.0" r="16.51"/>
    <circle cx="430.0" cy="260.0" r="15.15"/>
    <circle cx="431.0" cy="258.0" r="14.29"/>
    <circle cx="431.0" cy="256.0" r="14"/>
    <circle cx="432.0" cy="255.0" r="14.83"/>
    <circle cx="432.0" cy="252.0" r="17.25"/>
    <circle cx="433.0" cy="249.0" r="21.01"/>
    <circle cx="434.0" cy="245.0" r="25.75"/>
    <circle cx="436.0" cy="241.0" r="31.0"/>
    <circle cx="437.0" cy="236.0" r="36.25"/>
    <circle cx="438.0" cy="230.0" r="40.99"/>
    <circle cx="440.0" cy="224.0" r="44.75"/>
    <circle cx="441.0" cy="217.0" r="47.17"/>
    <circle cx="443.0" cy="210.0" r="48"/>
    <circle cx="448.0" cy="195.0" r="47.27"/>
    <circle cx="452.0" cy="192.0" r="45.5"/>
    <circle cx="456.0" cy="199.0" r="43.73"/>
    <circle cx="461.0" cy="217.0" r="43"/>
    <circle cx="462.0" cy="224.0" r="42.88"/>
    <circle cx="463.0" cy="231.0" r="42.54"/>
    <circle cx="464.0" cy="237.0" r="41.99"/>
    <circle cx="465.0" cy="243.0" r="41.27"/>
    <circle cx="466.0" cy="248.0" r="40.42"/>
    <circle cx="466.0" cy="253.0" r="39.48"/>
    <circle cx="466.0" cy="257.0" r="38.52"/>
    <circle cx="467.0" cy="262.0" r="37.58"/>
    <circle cx="467.0" cy="265.0" r="36.73"/>
    <circle cx="466.0" cy="269.0" r="36.01"/>
    <circle cx="466.0" cy="271.0" r="35.46"/>
    <circle cx="465.0" cy="274.0" r="35.12"/>
    <circle cx="464.0" cy="276.0" r="35"/>
    <circle cx="464.0" cy="279.0" r="34.28"/>
    <circle cx="463.0" cy="282.0" r="32.19"/>
    <circle cx="463.0" cy="286.0" r="29.0"/>
    <circle cx="464.0" cy="290.0" r="25.08"/>
    <circle cx="465.0" cy="295.0" r="20.92"/>
    <circle cx="467.0" cy="300.0" r="17.0"/>
    <circle cx="469.0" cy="306.0" r="13.81"/>
    <circle cx="472.0" cy="312.0" r="11.72"/>
    <circle cx="475.0" cy="319.0" r="11"/>
    <circle cx="477.0" cy="322.0" r="10.98"/>
    <circle cx="478.0" cy="325.0" r="10.9"/>
    <circle cx="480.0" cy="329.0" r="10.78"/>
    <circle cx="482.0" cy="332.0" r="10.62"/>
    <circle cx="484.0" cy="335.0" r="10.41"/>
    <circle cx="487.0" cy="339.0" r="10.18"/>
    <circle cx="489.0" cy="342.0" r="9.91"/>
    <circle cx="492.0" cy="346.0" r="9.62"/>
    <circle cx="494.0" cy="350.0" r="9.31"/>
    <circle cx="497.0" cy="353.0" r="9.0"/>
    <circle cx="500.0" cy="357.0" r="8.69"/>
    <circle cx="503.0" cy="361.0" r="8.38"/>
    <circle cx="506.0" cy="365.0" r="8.09"/>
    <circle cx="509.0" cy="369.0" r="7.82"/>
    <circle cx="512.0" cy="373.0" r="7.59"/>
    <circle cx="516.0" cy="377.0" r="7.38"/>
    <circle cx="519.0" cy="381.0" r="7.22"/>
    <circle cx="523.0" cy="385.0" r="7.1"/>
    <circle cx="527.0" cy="390.0" r="7.02"/>
    <circle cx="530.0" cy="394.0" r="7"/>
    <circle cx="535.0" cy="399.0" r="7.44"/>
    <circle cx="539.0" cy="404.0" r="8.76"/>
    <circle cx="543.0" cy="409.0" r="10.89"/>
    <circle cx="547.0" cy="414.0" r="13.79"/>
    <circle cx="550.0" cy="419.0" r="17.33"/>
    <circle cx="553.0" cy="423.0" r="21.41"/>
    <circle cx="556.0" cy="428.0" r="25.88"/>
    <circle cx="558.0" cy="432.0" r="30.6"/>
    <circle cx="560.0" cy="436.0" r="35.4"/>
    <circle cx="562.0" cy="440.0" r="40.12"/>
    <circle cx="563.0" cy="444.0" r="44.59"/>
    <circle cx="564.0" cy="448.0" r="48.67"/>
    <circle cx="565.0" cy="452.0" r="52.21"/>
    <circle cx="566.0" cy="456.0" r="55.11"/>
    <circle cx="566.0" cy="460.0" r="57.24"/>
    <circle cx="566.0" cy="463.0" r="58.56"/>
    <circle cx="566.0" cy="466.0" r="59"/>
    <circle cx="565.0" cy="470.0" r="58.82"/>
    <circle cx="565.0" cy="473.0" r="58.29"/>
    <circle cx="565.0" cy="477.0" r="57.43"/>
    <circle cx="565.0" cy="481.0" r="56.26"/>
    <circle cx="565.0" cy="485.0" r="54.83"/>
    <circle cx="566.0" cy="489.0" r="53.18"/>
    <circle cx="566.0" cy="493.0" r="51.37"/>
    <circle cx="567.0" cy="498.0" r="49.47"/>
    <circle cx="568.0" cy="502.0" r="47.53"/>
    <circle cx="569.0" cy="507.0" r="45.63"/>
    <circle cx="571.0" cy="511.0" r="43.82"/>
    <circle cx="572.0" cy="516.0" r="42.17"/>
    <circle cx="574.0" cy="521.0" r="40.74"/>
    <circle cx="576.0" cy="526.0" r="39.57"/>
    <circle cx="578.0" cy="532.0" r="38.71"/>
    <circle cx="581.0" cy="537.0" r="38.18"/>
    <circle cx="583.0" cy="542.0" r="38"/>
    <circle cx="586.0" cy="548.0" r="37.95"/>
    <circle cx="588.0" cy="553.0" r="37.8"/>
    <circle cx="590.0" cy="559.0" r="37.55"/>
    <circle cx="593.0" cy="564.0" r="37.22"/>
    <circle cx="595.0" cy="568.0" r="36.81"/>
    <circle cx="597.0" cy="573.0" r="36.34"/>
    <circle cx="600.0" cy="578.0" r="35.82"/>
    <circle cx="602.0" cy="582.0" r="35.28"/>
    <circle cx="604.0" cy="586.0" r="34.72"/>
    <circle cx="606.0" cy="590.0" r="34.18"/>
    <circle cx="608.0" cy="594.0" r="33.66"/>
    <circle cx="610.0" cy="598.0" r="33.19"/>
    <circle cx="612.0" cy="601.0" r="32.78"/>
    <circle cx="613.0" cy="604.0" r="32.45"/>
    <circle cx="615.0" cy="608.0" r="32.2"/>
    <circle cx="617.0" cy="611.0" r="32.05"/>
    <circle cx="618.0" cy="614.0" r="32"/>
    <circle cx="620.0" cy="617.0" r="31.77"/>
    <circle cx="622.0" cy="620.0" r="31.09"/>
    <circle cx="623.0" cy="623.0" r="29.98"/>
    <circle cx="625.0" cy="627.0" r="28.49"/>
    <circle cx="626.0" cy="631.0" r="26.67"/>
    <circle cx="627.0" cy="635.0" r="24.59"/>
    <circle cx="628.0" cy="639.0" r="22.34"/>
    <circle cx="630.0" cy="644.0" r="20.0"/>
    <circle cx="631.0" cy="648.0" r="17.66"/>
    <circle cx="632.0" cy="653.0" r="15.41"/>
    <circle cx="633.0" cy="659.0" r="13.33"/>
    <circle cx="633.0" cy="664.0" r="11.51"/>
    <circle cx="634.0" cy="670.0" r="10.02"/>
    <circle cx="635.0" cy="675.0" r="8.91"/>
    <circle cx="635.0" cy="681.0" r="8.23"/>
    <circle cx="636.0" cy="688.0" r="8"/>
    <circle cx="637.0" cy="695.0" r="8.59"/>
    <circle cx="637.0" cy="701.0" r="10.33"/>
    <circle cx="638.0" cy="708.0" r="13.13"/>
    <circle cx="639.0" cy="714.0" r="16.85"/>
    <circle cx="639.0" cy="719.0" r="21.3"/>
    <circle cx="640.0" cy="724.0" r="26.27"/>
    <circle cx="641.0" cy="729.0" r="31.5"/>
    <circle cx="642.0" cy="734.0" r="36.73"/>
    <circle cx="643.0" cy="738.0" r="41.7"/>
    <circle cx="644.0" cy="742.0" r="46.15"/>
    <circle cx="644.0" cy="746.0" r="49.87"/>
    <circle cx="645.0" cy="749.0" r="52.67"/>
    <circle cx="646.0" cy="752.0" r="54.41"/>
    <circle cx="648.0" cy="754.0" r="55"/>
    <circle cx="652.0" cy="759.0" r="48.5"/>
    <circle cx="652.0" cy="742.0" r="42"/>
    <circle cx="652.0" cy="738.0" r="41.94"/>
    <circle cx="652.0" cy="735.0" r="41.77"/>
    <circle cx="652.0" cy="731.0" r="41.49"/>
    <circle cx="652.0" cy="727.0" r="41.12"/>
    <circle cx="652.0" cy="723.0" r="40.67"/>
    <circle cx="652.0" cy="719.0" r="40.15"/>
    <circle cx="653.0" cy="714.0" r="39.59"/>
    <circle cx="654.0" cy="710.0" r="39.0"/>
    <circle cx="654.0" cy="705.0" r="38.41"/>
    <circle cx="655.0" cy="701.0" r="37.85"/>
    <circle cx="656.0" cy="696.0" r="37.33"/>
    <circle cx="658.0" cy="691.0" r="36.88"/>
    <circle cx="659.0" cy="686.0" r="36.51"/>
    <circle cx="661.0" cy="680.0" r="36.23"/>
    <circle cx="662.0" cy="675.0" r="36.06"/>
    <circle cx="664.0" cy="670.0" r="36"/>
    <circle cx="665.0" cy="665.0" r="36.09"/>
    <circle cx="667.0" cy="661.0" r="36.36"/>
    <circle cx="668.0" cy="657.0" r="36.79"/>
    <circle cx="669.0" cy="652.0" r="37.39"/>
    <circle cx="671.0" cy="648.0" r="38.14"/>
    <circle cx="672.0" cy="644.0" r="39.01"/>
    <circle cx="673.0" cy="639.0" r="40.0"/>
    <circle cx="674.0" cy="635.0" r="41.08"/>
    <circle cx="675.0" cy="630.0" r="42.22"/>
    <circle cx="676.0" cy="626.0" r="43.4"/>
    <circle cx="677.0" cy="621.0" r="44.6"/>
    <circle cx="678.0" cy="617.0" r="45.78"/>
    <circle cx="679.0" cy="612.0" r="46.92"/>
    <circle cx="679.0" cy="607.0" r="48.0"/>
    <circle cx="680.0" cy="603.0" r="48.99"/>
    <circle cx="681.0" cy="598.0" r="49.86"/>
    <circle cx="681.0" cy="593.0" r="50.61"/>
    <circle cx="682.0" cy="588.0" r="51.21"/>
    <circle cx="683.0" cy="584.0" r="51.64"/>
    <circle cx="683.0" cy="579.0" r="51.91"/>
    <circle cx="684.0" cy="574.0" r="52"/>
    <circle cx="684.0" cy="568.0" r="51.99"/>
    <circle cx="684.0" cy="563.0" r="51.97"/>
    <circle cx="684.0" cy="558.0" r="51.93"/>
    <circle cx="685.0" cy="552.0" r="51.88"/>
    <circle cx="685.0" cy="547.0" r="51.82"/>
    <circle cx="684.0" cy="542.0" r="51.75"/>
    <circle cx="684.0" cy="537.0" r="51.67"/>
    <circle cx="684.0" cy="533.0" r="51.59"/>
    <circle cx="683.0" cy="528.0" r="51.5"/>
    <circle cx="683.0" cy="524.0" r="51.41"/>
    <circle cx="682.0" cy="519.0" r="51.33"/>
    <circle cx="681.0" cy="515.0" r="51.25"/>
    <circle cx="680.0" cy="511.0" r="51.18"/>
    <circle cx="679.0" cy="507.0" r="51.12"/>
    <circle cx="678.0" cy="503.0" r="51.07"/>
    <circle cx="676.0" cy="499.0" r="51.03"/>
    <circle cx="675.0" cy="496.0" r="51.01"/>
    <circle cx="674.0" cy="492.0" r="51"/>
    <circle cx="672.0" cy="488.0" r="50.86"/>
    <circle cx="670.0" cy="485.0" r="50.43"/>
    <circle cx="668.0" cy="481.0" r="49.73"/>
    <circle cx="667.0" cy="477.0" r="48.78"/>
    <circle cx="665.0" cy="473.0" r="47.62"/>
    <circle cx="663.0" cy="469.0" r="46.29"/>
    <circle cx="661.0" cy="464.0" r="44.83"/>
    <circle cx="660.0" cy="460.0" r="43.28"/>
    <circle cx="658.0" cy="456.0" r="41.72"/>
    <circle cx="656.0" cy="451.0" r="40.17"/>
    <circle cx="654.0" cy="447.0" r="38.71"/>
    <circle cx="653.0" cy="442.0" r="37.38"/>
    <circle cx="651.0" cy="437.0" r="36.22"/>
    <circle cx="649.0" cy="432.0" r="35.27"/>
    <circle cx="647.0" cy="428.0" r="34.57"/>
    <circle cx="645.0" cy="423.0" r="34.14"/>
    <circle cx="644.0" cy="418.0" r="34"/>
    <circle cx="642.0" cy="413.0" r="33.93"/>
    <circle cx="640.0" cy="409.0" r="33.71"/>
    <circle cx="639.0" cy="404.0" r="33.35"/>
    <circle cx="638.0" cy="400.0" r="32.85"/>
    <circle cx="636.0" cy="396.0" r="32.24"/>
    <circle cx="635.0" cy="391.0" r="31.53"/>
    <circle cx="634.0" cy="387.0" r="30.72"/>
    <circle cx="632.0" cy="383.0" r="29.85"/>
    <circle cx="631.0" cy="378.0" r="28.94"/>
    <circle cx="630.0" cy="374.0" r="28.0"/>
    <circle cx="629.0" cy="369.0" r="27.06"/>
    <circle cx="628.0" cy="365.0" r="26.15"/>
    <circle cx="627.0" cy="361.0" r="25.28"/>
    <circle cx="625.0" cy="356.0" r="24.47"/>
    <circle cx="624.0" cy="352.0" r="23.76"/>
    <circle cx="624.0" cy="347.0" r="23.15"/>
    <circle cx="623.0" cy="343.0" r="22.65"/>
    <circle cx="622.0" cy="338.0" r="22.29"/>
    <circle cx="621.0" cy="334.0" r="22.07"/>
    <circle cx="620.0" cy="330.0" r="22"/>
    <circle cx="619.0" cy="324.0" r="22.28"/>
    <circle cx="618.0" cy="319.0" r="23.1"/>
    <circle cx="618.0" cy="313.0" r="24.44"/>
    <circle cx="617.0" cy="308.0" r="26.25"/>
    <circle cx="617.0" cy="303.0" r="28.44"/>
    <circle cx="616.0" cy="298.0" r="30.95"/>
    <circle cx="616.0" cy="293.0" r="33.67"/>
    <circle cx="616.0" cy="288.0" r="36.5"/>
    <circle cx="616.0" cy="284.0" r="39.33"/>
    <circle cx="616.0" cy="279.0" r="42.05"/>
    <circle cx="617.0" cy="275.0" r="44.56"/>
    <circle cx="617.0" cy="271.0" r="46.75"/>
    <circle cx="618.0" cy="266.0" r="48.56"/>
    <circle cx="619.0" cy="262.0" r="49.9"/>
    <circle cx="620.0" cy="258.0" r="50.72"/>
    <circle cx="620.0" cy="254.0" r="51"/>
    <circle cx="622.0" cy="249.0" r="50.28"/>
    <circle cx="623.0" cy="244.0" r="48.19"/>
    <circle cx="624.0" cy="239.0" r="44.85"/>
    <circle cx="624.0" cy="234.0" r="40.5"/>
    <circle cx="625.0" cy="230.0" r="35.44"/>
    <circle cx="625.0" cy="225.0" r="30.0"/>
    <circle cx="624.0" cy="220.0" r="24.56"/>
    <circle cx="624.0" cy="215.0" r="19.5"/>
    <circle cx="623.0" cy="210.0" r="15.15"/>
    <circle cx="623.0" cy="205.0" r="11.81"/>
    <circle cx="621.0" cy="201.0" r="9.72"/>
    <circle cx="620.0" cy="196.0" r="9"/>
    <circle cx="619.0" cy="192.0" r="9.22"/>
    <circle cx="618.0" cy="189.0" r="9.88"/>
    <circle cx="617.0" cy="185.0" r="10.94"/>
    <circle cx="616.0" cy="181.0" r="12.37"/>
    <circle cx="615.0" cy="177.0" r="14.11"/>
    <circle cx="614.0" cy="173.0" r="16.1"/>
    <circle cx="613.0" cy="168.0" r="18.26"/>
    <circle cx="613.0" cy="164.0" r="20.5"/>
    <circle cx="612.0" cy="159.0" r="22.74"/>
    <circle cx="611.0" cy="154.0" r="24.9"/>
    <circle cx="611.0" cy="149.0" r="26.89"/>
    <circle cx="610.0" cy="144.0" r="28.63"/>
    <circle cx="610.0" cy="139.0" r="30.06"/>
    <circle cx="609.0" cy="134.0" r="31.12"/>
    <circle cx="609.0" cy="129.0" r="31.78"/>
    <circle cx="608.0" cy="123.0" r="32"/>
    <circle cx="608.0" cy="102.0" r="31.75"/>
    <circle cx="609.0" cy="97.0" r="31.25"/>
    <circle cx="613.0" cy="110.0" r="31"/>
    <circle cx="614.0" cy="114.0" r="31.15"/>
    <circle cx="615.0" cy="118.0" r="31.61"/>
    <circle cx="616.0" cy="122.0" r="32.35"/>
    <circle cx="617.0" cy="127.0" r="33.34"/>
    <circle cx="618.0" cy="131.0" r="34.56"/>
    <circle cx="620.0" cy="135.0" r="35.94"/>
    <circle cx="621.0" cy="140.0" r="37.44"/>
    <circle cx="622.0" cy="144.0" r="39.0"/>
    <circle cx="624.0" cy="149.0" r="40.56"/>
    <circle cx="625.0" cy="154.0" r="42.06"/>
    <circle cx="627.0" cy="158.0" r="43.44"/>
    <circle cx="629.0" cy="163.0" r="44.66"/>
    <circle cx="630.0" cy="168.0" r="45.65"/>
    <circle cx="632.0" cy="173.0" r="46.39"/>
    <circle cx="634.0" cy="178.0" r="46.85"/>
    <circle cx="636.0" cy="184.0" r="47"/>
    <circle cx="638.0" cy="189.0" r="46.66"/>
    <circle cx="640.0" cy="194.0" r="45.67"/>
    <circle cx="642.0" cy="198.0" r="44.05"/>
    <circle cx="644.0" cy="203.0" r="41.87"/>
    <circle cx="647.0" cy="207.0" r="39.22"/>
    <circle cx="649.0" cy="212.0" r="36.2"/>
    <circle cx="651.0" cy="216.0" r="32.91"/>
    <circle cx="654.0" cy="220.0" r="29.5"/>
    <circle cx="656.0" cy="224.0" r="26.09"/>
    <circle cx="659.0" cy="228.0" r="22.8"/>
    <circle cx="661.0" cy="231.0" r="19.78"/>
    <circle cx="664.0" cy="234.0" r="17.13"/>
    <circle cx="667.0" cy="238.0" r="14.95"/>
    <circle cx="669.0" cy="241.0" r="13.33"/>
    <circle cx="672.0" cy="244.0" r="12.34"/>
    <circle cx="675.0" cy="246.0" r="12"/>
    <circle cx="678.0" cy="250.0" r="12.26"/>
    <circle cx="681.0" cy="253.0" r="13.04"/>
    <circle cx="684.0" cy="257.0" r="14.29"/>
    <circle cx="686.0" cy="260.0" r="15.95"/>
    <circle cx="688.0" cy="265.0" r="17.94"/>
    <circle cx="690.0" cy="269.0" r="20.16"/>
    <circle cx="692.0" cy="273.0" r="22.5"/>
    <circle cx="693.0" cy="278.0" r="24.84"/>
    <circle cx="694.0" cy="283.0" r="27.06"/>
    <circle cx="695.0" cy="288.0" r="29.05"/>
    <circle cx="696.0" cy="293.0" r="30.71"/>
    <circle cx="696.0" cy="299.0" r="31.96"/>
    <circle cx="697.0" cy="305.0" r="32.74"/>
    <circle cx="696.0" cy="310.0" r="33"/>
    <circle cx="696.0" cy="316.0" r="32.84"/>
    <circle cx="696.0" cy="322.0" r="32.35"/>
    <circle cx="696.0" cy="327.0" r="31.57"/>
    <circle cx="696.0" cy="332.0" r="30.52"/>
    <circle cx="696.0" cy="337.0" r="29.25"/>
    <circle cx="697.0" cy="342.0" r="27.82"/>
    <circle cx="697.0" cy="347.0" r="26.28"/>
    <circle cx="697.0" cy="352.0" r="24.72"/>
    <circle cx="698.0" cy="357.0" r="23.18"/>
    <circle cx="698.0" cy="361.0" r="21.75"/>
    <circle cx="699.0" cy="366.0" r="20.48"/>
    <circle cx="699.0" cy="370.0" r="19.43"/>
    <circle cx="700.0" cy="374.0" r="18.65"/>
    <circle cx="701.0" cy="379.0" r="18.16"/>
    <circle cx="702.0" cy="382.0" r="18"/>
    <circle cx="703.0" cy="387.0" r="18.37"/>
    <circle cx="704.0" cy="392.0" r="19.47"/>
    <circle cx="706.0" cy="397.0" r="21.22"/>
    <circle cx="707.0" cy="401.0" r="23.5"/>
    <circle cx="709.0" cy="405.0" r="26.15"/>
    <circle cx="711.0" cy="409.0" r="29.0"/>
    <circle cx="714.0" cy="413.0" r="31.85"/>
    <circle cx="716.0" cy="417.0" r="34.5"/>
    <circle cx="719.0" cy="421.0" r="36.78"/>
    <circle cx="721.0" cy="424.0" r="38.53"/>
    <circle cx="724.0" cy="427.0" r="39.63"/>
    <circle cx="728.0" cy="430.0" r="40"/>
    <circle cx="730.0" cy="433.0" r="39.76"/>
    <circle cx="732.0" cy="436.0" r="39.05"/>
    <circle cx="735.0" cy="438.0" r="37.89"/>
    <circle cx="737.0" cy="442.0" r="36.34"/>
    <circle cx="739.0" cy="445.0" r="34.44"/>
    <circle cx="742.0" cy="448.0" r="32.28"/>
    <circle cx="744.0" cy="452.0" r="29.94"/>
    <circle cx="746.0" cy="456.0" r="27.5"/>
    <circle cx="748.0" cy="460.0" r="25.06"/>
    <circle cx="750.0" cy="465.0" r="22.72"/>
    <circle cx="752.0" cy="470.0" r="20.56"/>
    <circle cx="754.0" cy="475.0" r="18.66"/>
    <circle cx="757.0" cy="480.0" r="17.11"/>
    <circle cx="759.0" cy="485.0" r="15.95"/>
    <circle cx="761.0" cy="491.0" r="15.24"/>
    <circle cx="762.0" cy="496.0" r="15"/>
    <circle cx="764.0" cy="501.0" r="15.06"/>
    <circle cx="766.0" cy="506.0" r="15.24"/>
    <circle cx="767.0" cy="511.0" r="15.54"/>
    <circle cx="769.0" cy="516.0" r="15.95"/>
    <circle cx="770.0" cy="521.0" r="16.45"/>
    <circle cx="772.0" cy="525.0" r="17.04"/>
    <circle cx="773.0" cy="530.0" r="17.69"/>
    <circle cx="774.0" cy="535.0" r="18.4"/>
    <circle cx="776.0" cy="539.0" r="19.13"/>
    <circle cx="777.0" cy="543.0" r="19.87"/>
    <circle cx="778.0" cy="548.0" r="20.6"/>
    <circle cx="780.0" cy="552.0" r="21.31"/>
    <circle cx="781.0" cy="556.0" r="21.96"/>
    <circle cx="782.0" cy="561.0" r="22.55"/>
    <circle cx="783.0" cy="565.0" r="23.05"/>
    <circle cx="784.0" cy="569.0" r="23.46"/>
    <circle cx="785.0" cy="573.0" r="23.76"/>
    <circle cx="786.0" cy="577.0" r="23.94"/>
    <circle cx="788.0" cy="580.0" r="24"/>
    <circle cx="789.0" cy="585.0" r="24.01"/>
    <circle cx="790.0" cy="590.0" r="24.04"/>
    <circle cx="791.0" cy="595.0" r="24.1"/>
    <circle cx="792.0" cy="600.0" r="24.17"/>
    <circle cx="793.0" cy="604.0" r="24.25"/>
    <circle cx="794.0" cy="609.0" r="24.35"/>
    <circle cx="794.0" cy="614.0" r="24.45"/>
    <circle cx="795.0" cy="618.0" r="24.55"/>
    <circle cx="796.0" cy="623.0" r="24.65"/>
    <circle cx="796.0" cy="627.0" r="24.75"/>
    <circle cx="797.0" cy="632.0" r="24.83"/>
    <circle cx="797.0" cy="636.0" r="24.9"/>
    <circle cx="797.0" cy="641.0" r="24.96"/>
    <circle cx="797.0" cy="645.0" r="24.99"/>
    <circle cx="798.0" cy="650.0" r="25"/>
    <circle cx="798.0" cy="655.0" r="25.34"/>
    <circle cx="799.0" cy="661.0" r="26.35"/>
    <circle cx="800.0" cy="665.0" r="27.93"/>
    <circle cx="802.0" cy="670.0" r="29.97"/>
    <circle cx="804.0" cy="674.0" r="32.29"/>
    <circle cx="806.0" cy="678.0" r="34.71"/>
    <circle cx="809.0" cy="681.0" r="37.03"/>
    <circle cx="813.0" cy="684.0" r="39.07"/>
    <circle cx="817.0" cy="687.0" r="40.65"/>
    <circle cx="822.0" cy="689.0" r="41.66"/>
    <circle cx="826.0" cy="691.0" r="42"/>
    <circle cx="835.0" cy="693.0" r="40.06"/>
    <circle cx="840.0" cy="692.0" r="34.75"/>
    <circle cx="842.0" cy="688.0" r="27.5"/>
    <circle cx="842.0" cy="681.0" r="20.25"/>
    <circle cx="839.0" cy="672.0" r="14.94"/>
    <circle cx="833.0" cy="660.0" r="13"/>
    <circle cx="830.0" cy="655.0" r="13.34"/>
    <circle cx="827.0" cy="650.0" r="14.34"/>
    <circle cx="825.0" cy="645.0" r="15.96"/>
    <circle cx="823.0" cy="640.0" r="18.13"/>
    <circle cx="821.0" cy="636.0" r="20.75"/>
    <circle cx="819.0" cy="631.0" r="23.71"/>
    <circle cx="817.0" cy="627.0" r="26.88"/>
    <circle cx="815.0" cy="622.0" r="30.12"/>
    <circle cx="814.0" cy="618.0" r="33.29"/>
    <circle cx="812.0" cy="614.0" r="36.25"/>
    <circle cx="811.0" cy="610.0" r="38.87"/>
    <circle cx="810.0" cy="606.0" r="41.04"/>
    <circle cx="810.0" cy="602.0" r="42.66"/>
    <circle cx="809.0" cy="599.0" r="43.66"/>
    <circle cx="808.0" cy="595.0" r="44"/>
    <circle cx="808.0" cy="591.0" r="43.61"/>
    <circle cx="808.0" cy="587.0" r="42.47"/>
    <circle cx="808.0" cy="583.0" r="40.62"/>
    <circle cx="808.0" cy="579.0" r="38.16"/>
    <circle cx="809.0" cy="575.0" r="35.23"/>
    <circle cx="809.0" cy="571.0" r="31.95"/>
    <circle cx="810.0" cy="566.0" r="28.5"/>
    <circle cx="811.0" cy="562.0" r="25.05"/>
    <circle cx="811.0" cy="557.0" r="21.77"/>
    <circle cx="813.0" cy="552.0" r="18.84"/>
    <circle cx="814.0" cy="547.0" r="16.38"/>
    <circle cx="815.0" cy="542.0" r="14.53"/>
    <circle cx="817.0" cy="537.0" r="13.39"/>
    <circle cx="818.0" cy="532.0" r="13"/>
    <circle cx="820.0" cy="526.0" r="13.05"/>
    <circle cx="822.0" cy="520.0" r="13.2"/>
    <circle cx="823.0" cy="515.0" r="13.44"/>
    <circle cx="824.0" cy="509.0" r="13.75"/>
    <circle cx="825.0" cy="504.0" r="14.11"/>
    <circle cx="825.0" cy="499.0" r="14.5"/>
    <circle cx="825.0" cy="494.0" r="14.89"/>
    <circle cx="824.0" cy="490.0" r="15.25"/>
    <circle cx="823.0" cy="486.0" r="15.56"/>
    <circle cx="822.0" cy="482.0" r="15.8"/>
    <circle cx="821.0" cy="478.0" r="15.95"/>
    <circle cx="819.0" cy="474.0" r="16"/>
    <circle cx="817.0" cy="471.0" r="16.43"/>
    <circle cx="815.0" cy="467.0" r="17.67"/>
    <circle cx="814.0" cy="463.0" r="19.66"/>
    <circle cx="813.0" cy="459.0" r="22.25"/>
    <circle cx="812.0" cy="455.0" r="25.26"/>
    <circle cx="811.0" cy="451.0" r="28.5"/>
    <circle cx="811.0" cy="446.0" r="31.74"/>
    <circle cx="811.0" cy="441.0" r="34.75"/>
    <circle cx="811.0" cy="436.0" r="37.34"/>
    <circle cx="811.0" cy="431.0" r="39.33"/>
    <circle cx="812.0" cy="426.0" r="40.57"/>
    <circle cx="812.0" cy="420.0" r="41"/>
    <circle cx="813.0" cy="416.0" r="40.99"/>
    <circle cx="813.0" cy="413.0" r="40.97"/>
    <circle cx="814.0" cy="409.0" r="40.94"/>
    <circle cx="814.0" cy="405.0" r="40.89"/>
    <circle cx="814.0" cy="401.0" r="40.84"/>
    <circle cx="814.0" cy="396.0" r="40.77"/>
    <circle cx="814.0" cy="392.0" r="40.7"/>
    <circle cx="814.0" cy="388.0" r="40.62"/>
    <circle cx="814.0" cy="383.0" r="40.54"/>
    <circle cx="814.0" cy="379.0" r="40.46"/>
    <circle cx="814.0" cy="374.0" r="40.38"/>
    <circle cx="813.0" cy="369.0" r="40.3"/>
    <circle cx="813.0" cy="364.0" r="40.23"/>
    <circle cx="812.0" cy="359.0" r="40.16"/>
    <circle cx="812.0" cy="354.0" r="40.11"/>
    <circle cx="811.0" cy="348.0" r="40.06"/>
    <circle cx="810.0" cy="343.0" r="40.03"/>
    <circle cx="809.0" cy="337.0" r="40.01"/>
    <circle cx="808.0" cy="332.0" r="40"/>
    <circle cx="807.0" cy="326.0" r="39.97"/>
    <circle cx="806.0" cy="321.0" r="39.87"/>
    <circle cx="806.0" cy="316.0" r="39.7"/>
    <circle cx="805.0" cy="311.0" r="39.48"/>
    <circle cx="804.0" cy="306.0" r="39.2"/>
    <circle cx="804.0" cy="301.0" r="38.87"/>
    <circle cx="804.0" cy="297.0" r="38.5"/>
    <circle cx="803.0" cy="292.0" r="38.1"/>
    <circle cx="803.0" cy="287.0" r="37.67"/>
    <circle cx="803.0" cy="283.0" r="37.22"/>
    <circle cx="803.0" cy="278.0" r="36.78"/>
    <circle cx="803.0" cy="274.0" r="36.33"/>
    <circle cx="804.0" cy="269.0" r="35.9"/>
    <circle cx="804.0" cy="265.0" r="35.5"/>
    <circle cx="804.0" cy="261.0" r="35.13"/>
    <circle cx="805.0" cy="256.0" r="34.8"/>
    <circle cx="806.0" cy="252.0" r="34.52"/>
    <circle cx="806.0" cy="248.0" r="34.3"/>
    <circle cx="807.0" cy="244.0" r="34.13"/>
    <circle cx="808.0" cy="240.0" r="34.03"/>
    <circle cx="809.0" cy="236.0" r="34"/>
    <circle cx="810.0" cy="233.0" r="34.06"/>
    <circle cx="811.0" cy="231.0" r="34.23"/>
    <circle cx="812.0" cy="229.0" r="34.51"/>
    <circle cx="814.0" cy="227.0" r="34.89"/>
    <circle cx="816.0" cy="226.0" r="35.38"/>
    <circle cx="818.0" cy="226.0" r="35.96"/>
    <circle cx="820.0" cy="225.0" r="36.64"/>
    <circle cx="822.0" cy="225.0" r="37.39"/>
    <circle cx="825.0" cy="226.0" r="38.21"/>
    <circle cx="828.0" cy="227.0" r="39.1"/>
    <circle cx="831.0" cy="228.0" r="40.03"/>
    <circle cx="834.0" cy="229.0" r="41.0"/>
    <circle cx="838.0" cy="231.0" r="41.99"/>
    <circle cx="842.0" cy="234.0" r="43.0"/>
    <circle cx="846.0" cy="237.0" r="44.01"/>
    <circle cx="850.0" cy="240.0" r="45.0"/>
    <circle cx="854.0" cy="244.0" r="45.97"/>
    <circle cx="859.0" cy="248.0" r="46.9"/>
    <circle cx="864.0" cy="252.0" r="47.79"/>
    <circle cx="869.0" cy="257.0" r="48.61"/>
    <circle cx="874.0" cy="262.0" r="49.36"/>
    <circle cx="880.0" cy="268.0" r="50.04"/>
    <circle cx="886.0" cy="274.0" r="50.62"/>
    <circle cx="892.0" cy="280.0" r="51.11"/>
    <circle cx="898.0" cy="287.0" r="51.49"/>
    <circle cx="904.0" cy="294.0" r="51.77"/>
    <circle cx="911.0" cy="302.0" r="51.94"/>
    <circle cx="918.0" cy="310.0" r="52"/>
    <circle cx="921.0" cy="313.0" r="51.86"/>
    <circle cx="925.0" cy="317.0" r="51.45"/>
    <circle cx="928.0" cy="321.0" r="50.76"/>
    <circle cx="931.0" cy="325.0" r="49.82"/>
    <circle cx="934.0" cy="328.0" r="48.62"/>
    <circle cx="938.0" cy="332.0" r="47.17"/>
    <circle cx="941.0" cy="336.0" r="45.51"/>
    <circle cx="944.0" cy="340.0" r="43.64"/>
    <circle cx="947.0" cy="344.0" r="41.58"/>
    <circle cx="951.0" cy="347.0" r="39.36"/>
    <circle cx="954.0" cy="351.0" r="37.0"/>
    <circle cx="957.0" cy="355.0" r="34.52"/>
    <circle cx="960.0" cy="359.0" r="31.96"/>
    <circle cx="964.0" cy="363.0" r="29.34"/>
    <circle cx="967.0" cy="366.0" r="26.69"/>
    <circle cx="970.0" cy="370.0" r="24.04"/>
    <circle cx="973.0" cy="374.0" r="21.41"/>
    <circle cx="977.0" cy="378.0" r="18.84"/>
    <circle cx="980.0" cy="382.0" r="16.35"/>
    <circle cx="983.0" cy="385.0" r="13.97"/>
    <circle cx="986.0" cy="389.0" r="11.73"/>
    <circle cx="990.0" cy="393.0" r="9.64"/>
    <circle cx="993.0" cy="397.0" r="7.75"/>
    <circle cx="996.0" cy="401.0" r="6.05"/>
    <circle cx="999.0" cy="404.0" r="4.58"/>
    <circle cx="1003.0" cy="408.0" r="3.34"/>
    <circle cx="1006.0" cy="412.0" r="2.36"/>
    <circle cx="1009.0" cy="416.0" r="1.63"/>
    <circle cx="1012.0" cy="420.0" r="1.18"/>
    <circle cx="1016.0" cy="423.0" r="1.0"/>
    <circle cx="1016.0" cy="424.0" r="1"/>
    <g stroke="blue">
    </g>
  </g>
</svg>
