<svg version="1.1" width="1150" height="870" xmlns="http://www.w3.org/2000/svg">
  <!-- Seed: 9170564232020965529 -->
  <!-- Size: SvgSize.Size9x12 -->
  <!-- Params:
    draw_circles: False
    draw_border: True
    rotate_range: 0.3141592653589793
    ring_pad: 5
    ring_weights: [(0, 5), (1, 2), (2, 1), (3, 0.5)]
    border_weights: [(<BorderType.Empty: 0>, 5), (<BorderType.Circles: 1>, 1), (<BorderType.Starburst: 2>, 2)]
    padding: 0
    size_range: [RangeInt] min: 20 max: 350
    size_pad: 20
    origin_shuffle_range: 0
  -->
  <g stroke="black" fill="none">
    <g stroke="blue">
      <circle cx="565.0" cy="411.9" r="5"/>
      <circle cx="564.1103189729479" cy="431.71028726765877" r="5"/>
      <circle cx="561.4484390802971" cy="451.3610737504987" r="5"/>
      <circle cx="557.0357922137836" cy="470.69414287023517" r="5"/>
      <circle cx="550.9079064113819" cy="489.5538361219767" r="5"/>
      <circle cx="543.1141198064347" cy="507.78830634498036" r="5"/>
      <circle cx="533.7171833860124" cy="525.2507403067052" r="5"/>
      <circle cx="522.7927557568634" cy="541.8005407566366" r="5"/>
      <circle cx="510.42879398679804" cy="557.3044584326765" r="5"/>
      <circle cx="496.7248454260971" cy="571.6376649058535" r="5"/>
      <circle cx="481.7912462107801" cy="584.6847576254346" r="5"/>
      <circle cx="465.7482329009147" cy="596.3406890724078" r="5"/>
      <circle cx="448.72497440653274" cy="606.5116125403391" r="5"/>
      <circle cx="430.8585319955171" cy="615.1156377338706" r="5"/>
      <circle cx="412.29275575686336" cy="622.0834901012289" r="5"/>
      <circle cx="393.1771264043455" cy="627.359068592183" r="5"/>
      <circle cx="373.66555174570186" cy="630.8998973507136" r="5"/>
      <circle cx="353.9151275074638" cy="632.6774677056305" r="5"/>
      <circle cx="334.08487249253625" cy="632.6774677056305" r="5"/>
      <circle cx="314.3344482542982" cy="630.8998973507136" r="5"/>
      <circle cx="294.8228735956545" cy="627.359068592183" r="5"/>
      <circle cx="275.70724424313664" cy="622.0834901012289" r="5"/>
      <circle cx="257.1414680044829" cy="615.1156377338706" r="5"/>
      <circle cx="239.27502559346732" cy="606.5116125403391" r="5"/>
      <circle cx="222.25176709908538" cy="596.3406890724079" r="5"/>
      <circle cx="206.2087537892199" cy="584.6847576254346" r="5"/>
      <circle cx="191.2751545739029" cy="571.6376649058535" r="5"/>
      <circle cx="177.571206013202" cy="557.3044584326765" r="5"/>
      <circle cx="165.20724424313664" cy="541.8005407566366" r="5"/>
      <circle cx="154.2828166139876" cy="525.2507403067052" r="5"/>
      <circle cx="144.88588019356538" cy="507.78830634498036" r="5"/>
      <circle cx="137.09209358861807" cy="489.5538361219767" r="5"/>
      <circle cx="130.96420778621643" cy="470.6941428702352" r="5"/>
      <circle cx="126.55156091970284" cy="451.3610737504987" r="5"/>
      <circle cx="123.88968102705218" cy="431.7102872676588" r="5"/>
      <circle cx="123.0" cy="411.9" r="5"/>
      <circle cx="123.88968102705218" cy="392.0897127323413" r="5"/>
      <circle cx="126.55156091970284" cy="372.4389262495013" r="5"/>
      <circle cx="130.96420778621638" cy="353.1058571297649" r="5"/>
      <circle cx="137.09209358861807" cy="334.24616387802325" r="5"/>
      <circle cx="144.88588019356536" cy="316.01169365501966" r="5"/>
      <circle cx="154.28281661398756" cy="298.54925969329474" r="5"/>
      <circle cx="165.2072442431366" cy="281.99945924336345" r="5"/>
      <circle cx="177.57120601320202" cy="266.49554156732347" r="5"/>
      <circle cx="191.27515457390288" cy="252.16233509414647" r="5"/>
      <circle cx="206.20875378921988" cy="239.1152423745654" r="5"/>
      <circle cx="222.25176709908533" cy="227.45931092759213" r="5"/>
      <circle cx="239.27502559346726" cy="217.2883874596609" r="5"/>
      <circle cx="257.1414680044828" cy="208.6843622661294" r="5"/>
      <circle cx="275.7072442431366" cy="201.71650989877105" r="5"/>
      <circle cx="294.82287359565447" cy="196.44093140781695" r="5"/>
      <circle cx="314.3344482542981" cy="192.9001026492864" r="5"/>
      <circle cx="334.08487249253614" cy="191.12253229436945" r="5"/>
      <circle cx="353.91512750746375" cy="191.12253229436942" r="5"/>
      <circle cx="373.6655517457018" cy="192.9001026492864" r="5"/>
      <circle cx="393.1771264043455" cy="196.44093140781695" r="5"/>
      <circle cx="412.29275575686336" cy="201.71650989877102" r="5"/>
      <circle cx="430.85853199551707" cy="208.68436226612937" r="5"/>
      <circle cx="448.7249744065327" cy="217.28838745966087" r="5"/>
      <circle cx="465.7482329009146" cy="227.45931092759207" r="5"/>
      <circle cx="481.79124621078006" cy="239.11524237456536" r="5"/>
      <circle cx="496.7248454260971" cy="252.1623350941464" r="5"/>
      <circle cx="510.428793986798" cy="266.49554156732347" r="5"/>
      <circle cx="522.7927557568634" cy="281.9994592433634" r="5"/>
      <circle cx="533.7171833860124" cy="298.5492596932947" r="5"/>
      <circle cx="543.1141198064346" cy="316.0116936550196" r="5"/>
      <circle cx="550.9079064113819" cy="334.2461638780232" r="5"/>
      <circle cx="557.0357922137836" cy="353.10585712976473" r="5"/>
      <circle cx="561.4484390802971" cy="372.4389262495012" r="5"/>
      <circle cx="564.1103189729479" cy="392.0897127323411" r="5"/>
    </g>
  </g>
</svg>
