<svg version="1.1" width="1150" height="870" xmlns="http://www.w3.org/2000/svg">
  <!-- Seed: 3689662645907748008 -->
  <!-- Size: SvgSize.Size9x12 -->
  <!-- Params:
    draw_circles: False
    draw_border: True
    rotate_range: 0.3141592653589793
    ring_pad: 5
    ring_weights: [(0, 5), (1, 2), (2, 1), (3, 0.5)]
    border_weights: [(<BorderType.Empty: 0>, 5), (<BorderType.Circles: 1>, 1), (<BorderType.Starburst: 2>, 2)]
    padding: 0
    size_range: [RangeInt] min: 20 max: 350
    size_pad: 20
    origin_shuffle_range: 0
  -->
  <g stroke="black" fill="none">
    <g stroke="blue">
      <circle cx="418.0" cy="295.35" r="5"/>
      <circle cx="416.47" cy="315.77" r="5"/>
      <circle cx="411.91" cy="335.73" r="5"/>
      <circle cx="404.43" cy="354.79" r="5"/>
      <circle cx="394.19" cy="372.52" r="5"/>
      <circle cx="381.43" cy="388.53" r="5"/>
      <circle cx="366.42" cy="402.46" r="5"/>
      <circle cx="349.5" cy="414.0" r="5"/>
      <circle cx="331.05" cy="422.88" r="5"/>
      <circle cx="311.49" cy="428.92" r="5"/>
      <circle cx="291.24" cy="431.97" r="5"/>
      <circle cx="270.76" cy="431.97" r="5"/>
      <circle cx="250.51" cy="428.92" r="5"/>
      <circle cx="230.95" cy="422.88" r="5"/>
      <circle cx="212.5" cy="414.0" r="5"/>
      <circle cx="195.58" cy="402.46" r="5"/>
      <circle cx="180.57" cy="388.53" r="5"/>
      <circle cx="167.81" cy="372.52" r="5"/>
      <circle cx="157.57" cy="354.79" r="5"/>
      <circle cx="150.09" cy="335.73" r="5"/>
      <circle cx="145.53" cy="315.77" r="5"/>
      <circle cx="144.0" cy="295.35" r="5"/>
      <circle cx="145.53" cy="274.93" r="5"/>
      <circle cx="150.09" cy="254.97" r="5"/>
      <circle cx="157.57" cy="235.91" r="5"/>
      <circle cx="167.81" cy="218.18" r="5"/>
      <circle cx="180.57" cy="202.17" r="5"/>
      <circle cx="195.58" cy="188.24" r="5"/>
      <circle cx="212.5" cy="176.7" r="5"/>
      <circle cx="230.95" cy="167.82" r="5"/>
      <circle cx="250.51" cy="161.78" r="5"/>
      <circle cx="270.76" cy="158.73" r="5"/>
      <circle cx="291.24" cy="158.73" r="5"/>
      <circle cx="311.49" cy="161.78" r="5"/>
      <circle cx="331.05" cy="167.82" r="5"/>
      <circle cx="349.5" cy="176.7" r="5"/>
      <circle cx="366.42" cy="188.24" r="5"/>
      <circle cx="381.43" cy="202.17" r="5"/>
      <circle cx="394.19" cy="218.18" r="5"/>
      <circle cx="404.43" cy="235.91" r="5"/>
      <circle cx="411.91" cy="254.97" r="5"/>
      <circle cx="416.47" cy="274.93" r="5"/>
      <circle cx="575.0" cy="295.35" r="132"/>
      <circle cx="428.0" cy="545.25" r="132"/>
    </g>
  </g>
</svg>
