<svg version="1.1" width="1150" height="870" xmlns="http://www.w3.org/2000/svg">
  <!-- Seed: 4447666951987690051 -->
  <!-- Size: SvgSize.Size9x12 -->
  <!-- Params:
    draw_circles: False
    draw_border: True
    rotate_range: 0.3141592653589793
    ring_pad: 5
    ring_weights: [(0, 5), (1, 2), (2, 1), (3, 0.5)]
    border_weights: [(<BorderType.Empty: 0>, 5), (<BorderType.Circles: 1>, 1), (<BorderType.Starburst: 2>, 2)]
    padding: 0
    size_range: [RangeInt] min: 20 max: 350
    size_pad: 20
    origin_shuffle_range: 0
  -->
  <g stroke="black" fill="none">
    <g stroke="blue">
      <circle cx="465.0" cy="237.0" r="95"/>
      <path d="M465.0 342.0 L465.0 347.0"/>
      <path d="M486.83 339.71 L487.87 344.6"/>
      <path d="M507.71 332.92 L509.74 337.49"/>
      <path d="M526.72 321.95 L529.66 326.0"/>
      <path d="M543.03 307.26 L546.75 310.61"/>
      <path d="M555.93 289.5 L560.26 292.0"/>
      <path d="M564.86 269.45 L569.62 271.0"/>
      <path d="M569.42 247.98 L574.39 248.5"/>
      <path d="M569.42 226.02 L574.39 225.5"/>
      <path d="M564.86 204.55 L569.62 203.0"/>
      <path d="M555.93 184.5 L560.26 182.0"/>
      <path d="M543.03 166.74 L546.75 163.39"/>
      <path d="M526.72 152.05 L529.66 148.0"/>
      <path d="M507.71 141.08 L509.74 136.51"/>
      <path d="M486.83 134.29 L487.87 129.4"/>
      <path d="M465.0 132.0 L465.0 127.0"/>
      <path d="M443.17 134.29 L442.13 129.4"/>
      <path d="M422.29 141.08 L420.26 136.51"/>
      <path d="M403.28 152.05 L400.34 148.0"/>
      <path d="M386.97 166.74 L383.25 163.39"/>
      <path d="M374.07 184.5 L369.74 182.0"/>
      <path d="M365.14 204.55 L360.38 203.0"/>
      <path d="M360.58 226.02 L355.61 225.5"/>
      <path d="M360.58 247.98 L355.61 248.5"/>
      <path d="M365.14 269.45 L360.38 271.0"/>
      <path d="M374.07 289.5 L369.74 292.0"/>
      <path d="M386.97 307.26 L383.25 310.61"/>
      <path d="M403.28 321.95 L400.34 326.0"/>
      <path d="M422.29 332.92 L420.26 337.49"/>
      <path d="M443.17 339.71 L442.13 344.6"/>
      <circle cx="685.0" cy="237.0" r="95"/>
      <circle cx="685.0" cy="237.0" r="100"/>
      <circle cx="905.0" cy="237.0" r="95"/>
      <circle cx="1010.0" cy="237.0" r="5"/>
      <circle cx="1007.71" cy="258.83" r="5"/>
      <circle cx="1000.92" cy="279.71" r="5"/>
      <circle cx="989.95" cy="298.72" r="5"/>
      <circle cx="975.26" cy="315.03" r="5"/>
      <circle cx="957.5" cy="327.93" r="5"/>
      <circle cx="937.45" cy="336.86" r="5"/>
      <circle cx="915.98" cy="341.42" r="5"/>
      <circle cx="894.02" cy="341.42" r="5"/>
      <circle cx="872.55" cy="336.86" r="5"/>
      <circle cx="852.5" cy="327.93" r="5"/>
      <circle cx="834.74" cy="315.03" r="5"/>
      <circle cx="820.05" cy="298.72" r="5"/>
      <circle cx="809.08" cy="279.71" r="5"/>
      <circle cx="802.29" cy="258.83" r="5"/>
      <circle cx="800.0" cy="237.0" r="5"/>
      <circle cx="802.29" cy="215.17" r="5"/>
      <circle cx="809.08" cy="194.29" r="5"/>
      <circle cx="820.05" cy="175.28" r="5"/>
      <circle cx="834.74" cy="158.97" r="5"/>
      <circle cx="852.5" cy="146.07" r="5"/>
      <circle cx="872.55" cy="137.14" r="5"/>
      <circle cx="894.02" cy="132.58" r="5"/>
      <circle cx="915.98" cy="132.58" r="5"/>
      <circle cx="937.45" cy="137.14" r="5"/>
      <circle cx="957.5" cy="146.07" r="5"/>
      <circle cx="975.26" cy="158.97" r="5"/>
      <circle cx="989.95" cy="175.28" r="5"/>
      <circle cx="1000.92" cy="194.29" r="5"/>
      <circle cx="1007.71" cy="215.17" r="5"/>
      <path d="M355.0 524.0 L355.0 529.0"/>
      <path d="M375.79 521.81 L376.83 526.7"/>
      <path d="M395.67 515.35 L397.7 519.92"/>
      <path d="M413.78 504.9 L416.72 508.95"/>
      <path d="M429.31 490.91 L433.03 494.26"/>
      <path d="M441.6 474.0 L445.93 476.5"/>
      <path d="M450.11 454.9 L454.87 456.44"/>
      <path d="M454.45 434.45 L459.42 434.97"/>
      <path d="M454.45 413.55 L459.42 413.03"/>
      <path d="M450.11 393.1 L454.87 391.56"/>
      <path d="M441.6 374.0 L445.93 371.5"/>
      <path d="M429.31 357.09 L433.03 353.74"/>
      <path d="M413.78 343.1 L416.72 339.05"/>
      <path d="M395.67 332.65 L397.7 328.08"/>
      <path d="M375.79 326.19 L376.83 321.3"/>
      <path d="M355.0 324.0 L355.0 319.0"/>
      <path d="M334.21 326.19 L333.17 321.3"/>
      <path d="M314.33 332.65 L312.3 328.08"/>
      <path d="M296.22 343.1 L293.28 339.05"/>
      <path d="M280.69 357.09 L276.97 353.74"/>
      <path d="M268.4 374.0 L264.07 371.5"/>
      <path d="M259.89 393.1 L255.13 391.56"/>
      <path d="M255.55 413.55 L250.58 413.03"/>
      <path d="M255.55 434.45 L250.58 434.97"/>
      <path d="M259.89 454.9 L255.13 456.44"/>
      <path d="M268.4 474.0 L264.07 476.5"/>
      <path d="M280.69 490.91 L276.97 494.26"/>
      <path d="M296.22 504.9 L293.28 508.95"/>
      <path d="M314.33 515.35 L312.3 519.92"/>
      <path d="M334.21 521.81 L333.17 526.7"/>
      <path d="M575.0 524.0 L575.0 529.0"/>
      <path d="M595.79 521.81 L596.83 526.7"/>
      <path d="M615.67 515.35 L617.7 519.92"/>
      <path d="M633.78 504.9 L636.72 508.95"/>
      <path d="M649.31 490.91 L653.03 494.26"/>
      <path d="M661.6 474.0 L665.93 476.5"/>
      <path d="M670.11 454.9 L674.87 456.44"/>
      <path d="M674.45 434.45 L679.42 434.97"/>
      <path d="M674.45 413.55 L679.42 413.03"/>
      <path d="M670.11 393.1 L674.87 391.56"/>
      <path d="M661.6 374.0 L665.93 371.5"/>
      <path d="M649.31 357.09 L653.03 353.74"/>
      <path d="M633.78 343.1 L636.72 339.05"/>
      <path d="M615.67 332.65 L617.7 328.08"/>
      <path d="M595.79 326.19 L596.83 321.3"/>
      <path d="M575.0 324.0 L575.0 319.0"/>
      <path d="M554.21 326.19 L553.17 321.3"/>
      <path d="M534.33 332.65 L532.3 328.08"/>
      <path d="M516.22 343.1 L513.28 339.05"/>
      <path d="M500.69 357.09 L496.97 353.74"/>
      <path d="M488.4 374.0 L484.07 371.5"/>
      <path d="M479.89 393.1 L475.13 391.56"/>
      <path d="M475.55 413.55 L470.58 413.03"/>
      <path d="M475.55 434.45 L470.58 434.97"/>
      <path d="M479.89 454.9 L475.13 456.44"/>
      <path d="M488.4 474.0 L484.07 476.5"/>
      <path d="M500.69 490.91 L496.97 494.26"/>
      <path d="M516.22 504.9 L513.28 508.95"/>
      <path d="M534.33 515.35 L532.3 519.92"/>
      <path d="M554.21 521.81 L553.17 526.7"/>
      <path d="M795.0 524.0 L795.0 529.0"/>
      <path d="M815.79 521.81 L816.83 526.7"/>
      <path d="M835.67 515.35 L837.7 519.92"/>
      <path d="M853.78 504.9 L856.72 508.95"/>
      <path d="M869.31 490.91 L873.03 494.26"/>
      <path d="M881.6 474.0 L885.93 476.5"/>
      <path d="M890.11 454.9 L894.87 456.44"/>
      <path d="M894.45 434.45 L899.42 434.97"/>
      <path d="M894.45 413.55 L899.42 413.03"/>
      <path d="M890.11 393.1 L894.87 391.56"/>
      <path d="M881.6 374.0 L885.93 371.5"/>
      <path d="M869.31 357.09 L873.03 353.74"/>
      <path d="M853.78 343.1 L856.72 339.05"/>
      <path d="M835.67 332.65 L837.7 328.08"/>
      <path d="M815.79 326.19 L816.83 321.3"/>
      <path d="M795.0 324.0 L795.0 319.0"/>
      <path d="M774.21 326.19 L773.17 321.3"/>
      <path d="M754.33 332.65 L752.3 328.08"/>
      <path d="M736.22 343.1 L733.28 339.05"/>
      <path d="M720.69 357.09 L716.97 353.74"/>
      <path d="M708.4 374.0 L704.07 371.5"/>
      <path d="M699.89 393.1 L695.13 391.56"/>
      <path d="M695.55 413.55 L690.58 413.03"/>
      <path d="M695.55 434.45 L690.58 434.97"/>
      <path d="M699.89 454.9 L695.13 456.44"/>
      <path d="M708.4 474.0 L704.07 476.5"/>
      <path d="M720.69 490.91 L716.97 494.26"/>
      <path d="M736.22 504.9 L733.28 508.95"/>
      <path d="M754.33 515.35 L752.3 519.92"/>
      <path d="M774.21 521.81 L773.17 526.7"/>
      <circle cx="345.0" cy="611.0" r="5"/>
      <circle cx="342.81" cy="631.79" r="5"/>
      <circle cx="336.35" cy="651.67" r="5"/>
      <circle cx="325.9" cy="669.78" r="5"/>
      <circle cx="311.91" cy="685.31" r="5"/>
      <circle cx="295.0" cy="697.6" r="5"/>
      <circle cx="275.9" cy="706.11" r="5"/>
      <circle cx="255.45" cy="710.45" r="5"/>
      <circle cx="234.55" cy="710.45" r="5"/>
      <circle cx="214.1" cy="706.11" r="5"/>
      <circle cx="195.0" cy="697.6" r="5"/>
      <circle cx="178.09" cy="685.31" r="5"/>
      <circle cx="164.1" cy="669.78" r="5"/>
      <circle cx="153.65" cy="651.67" r="5"/>
      <circle cx="147.19" cy="631.79" r="5"/>
      <circle cx="145.0" cy="611.0" r="5"/>
      <circle cx="147.19" cy="590.21" r="5"/>
      <circle cx="153.65" cy="570.33" r="5"/>
      <circle cx="164.1" cy="552.22" r="5"/>
      <circle cx="178.09" cy="536.69" r="5"/>
      <circle cx="195.0" cy="524.4" r="5"/>
      <circle cx="214.1" cy="515.89" r="5"/>
      <circle cx="234.55" cy="511.55" r="5"/>
      <circle cx="255.45" cy="511.55" r="5"/>
      <circle cx="275.9" cy="515.89" r="5"/>
      <circle cx="295.0" cy="524.4" r="5"/>
      <circle cx="311.91" cy="536.69" r="5"/>
      <circle cx="325.9" cy="552.22" r="5"/>
      <circle cx="336.35" cy="570.33" r="5"/>
      <circle cx="342.81" cy="590.21" r="5"/>
      <circle cx="685.0" cy="611.0" r="95"/>
    </g>
  </g>
</svg>
