<svg version="1.1" width="1150" height="870" xmlns="http://www.w3.org/2000/svg">
  <!-- Seed: 5525175529930277449 -->
  <g stroke="black" fill="none">
    <g stroke="blue">
      <circle cx="389.0" cy="165.3" r="47"/>
      <circle cx="389.0" cy="165.3" r="52"/>
      <circle cx="1009.0" cy="165.3" r="47"/>
      <path d="M203.0 322.7 L203.0 327.7"/>
      <path d="M225.56 317.55 L227.73 322.05"/>
      <path d="M243.66 303.12 L247.57 306.24"/>
      <path d="M253.7 282.27 L258.57 283.38"/>
      <path d="M253.7 259.13 L258.57 258.02"/>
      <path d="M243.66 238.28 L247.57 235.16"/>
      <path d="M225.56 223.85 L227.73 219.35"/>
      <path d="M203.0 218.7 L203.0 213.7"/>
      <path d="M180.44 223.85 L178.27 219.35"/>
      <path d="M162.34 238.28 L158.43 235.16"/>
      <path d="M152.3 259.13 L147.43 258.02"/>
      <path d="M152.3 282.27 L147.43 283.38"/>
      <path d="M162.34 303.12 L158.43 306.24"/>
      <path d="M180.44 317.55 L178.27 322.05"/>
      <circle cx="327.0" cy="270.7" r="47"/>
      <circle cx="327.0" cy="270.7" r="52"/>
      <circle cx="451.0" cy="270.7" r="47"/>
      <path d="M451.0 327.7 L451.0 332.7"/>
      <path d="M475.73 322.06 L477.9 326.56"/>
      <path d="M495.56 306.24 L499.47 309.36"/>
      <path d="M506.57 283.38 L511.44 284.49"/>
      <path d="M506.57 258.02 L511.44 256.91"/>
      <path d="M495.56 235.16 L499.47 232.04"/>
      <path d="M475.73 219.34 L477.9 214.84"/>
      <path d="M451.0 213.7 L451.0 208.7"/>
      <path d="M426.27 219.34 L424.1 214.84"/>
      <path d="M406.44 235.16 L402.53 232.04"/>
      <path d="M395.43 258.02 L390.56 256.91"/>
      <path d="M395.43 283.38 L390.56 284.49"/>
      <path d="M406.44 306.24 L402.53 309.36"/>
      <path d="M426.27 322.06 L424.1 326.56"/>
      <circle cx="575.0" cy="270.7" r="47"/>
      <circle cx="575.0" cy="270.7" r="52"/>
      <circle cx="699.0" cy="270.7" r="47"/>
      <circle cx="699.0" cy="270.7" r="52"/>
      <circle cx="823.0" cy="270.7" r="47"/>
      <path d="M947.0 322.7 L947.0 327.7"/>
      <path d="M969.56 317.55 L971.73 322.05"/>
      <path d="M987.66 303.12 L991.57 306.24"/>
      <path d="M997.7 282.27 L1002.57 283.38"/>
      <path d="M997.7 259.13 L1002.57 258.02"/>
      <path d="M987.66 238.28 L991.57 235.16"/>
      <path d="M969.56 223.85 L971.73 219.35"/>
      <path d="M947.0 218.7 L947.0 213.7"/>
      <path d="M924.44 223.85 L922.27 219.35"/>
      <path d="M906.34 238.28 L902.43 235.16"/>
      <path d="M896.3 259.13 L891.43 258.02"/>
      <path d="M896.3 282.27 L891.43 283.38"/>
      <path d="M906.34 303.12 L902.43 306.24"/>
      <path d="M924.44 317.55 L922.27 322.05"/>
      <circle cx="141.0" cy="376.1" r="47"/>
      <circle cx="141.0" cy="376.1" r="52"/>
      <circle cx="265.0" cy="376.1" r="47"/>
      <circle cx="265.0" cy="376.1" r="52"/>
      <path d="M265.0 438.1 L265.0 443.1"/>
      <path d="M291.9 431.96 L294.07 436.46"/>
      <path d="M313.47 414.76 L317.38 417.88"/>
      <path d="M325.45 389.9 L330.32 391.01"/>
      <path d="M325.45 362.3 L330.32 361.19"/>
      <path d="M313.47 337.44 L317.38 334.32"/>
      <path d="M291.9 320.24 L294.07 315.74"/>
      <path d="M265.0 314.1 L265.0 309.1"/>
      <path d="M238.1 320.24 L235.93 315.74"/>
      <path d="M216.53 337.44 L212.62 334.32"/>
      <path d="M204.55 362.3 L199.68 361.19"/>
      <path d="M204.55 389.9 L199.68 391.01"/>
      <path d="M216.53 414.76 L212.62 417.88"/>
      <path d="M238.1 431.96 L235.93 436.46"/>
      <circle cx="389.0" cy="376.1" r="47"/>
      <circle cx="446.0" cy="376.1" r="5"/>
      <circle cx="440.3552254704379" cy="400.83137312970086" r="5"/>
      <circle cx="424.5389187059478" cy="420.6643945006777" r="5"/>
      <circle cx="401.6836932355099" cy="431.67089099436396" r="5"/>
      <circle cx="376.3163067644901" cy="431.67089099436396" r="5"/>
      <circle cx="353.4610812940522" cy="420.66439450067776" r="5"/>
      <circle cx="337.64477452956214" cy="400.83137312970086" r="5"/>
      <circle cx="332.0" cy="376.1" r="5"/>
      <circle cx="337.6447745295621" cy="351.36862687029924" r="5"/>
      <circle cx="353.4610812940522" cy="331.53560549932234" r="5"/>
      <circle cx="376.3163067644901" cy="320.5291090056361" r="5"/>
      <circle cx="401.6836932355099" cy="320.5291090056361" r="5"/>
      <circle cx="424.5389187059478" cy="331.5356054993223" r="5"/>
      <circle cx="440.35522547043786" cy="351.3686268702992" r="5"/>
      <circle cx="513.0" cy="376.1" r="47"/>
      <path d="M513.0 433.1 L513.0 438.1"/>
      <path d="M537.73 427.46 L539.9 431.96"/>
      <path d="M557.56 411.64 L561.47 414.76"/>
      <path d="M568.57 388.78 L573.44 389.89"/>
      <path d="M568.57 363.42 L573.44 362.31"/>
      <path d="M557.56 340.56 L561.47 337.44"/>
      <path d="M537.73 324.74 L539.9 320.24"/>
      <path d="M513.0 319.1 L513.0 314.1"/>
      <path d="M488.27 324.74 L486.1 320.24"/>
      <path d="M468.44 340.56 L464.53 337.44"/>
      <path d="M457.43 363.42 L452.56 362.31"/>
      <path d="M457.43 388.78 L452.56 389.89"/>
      <path d="M468.44 411.64 L464.53 414.76"/>
      <path d="M488.27 427.46 L486.1 431.96"/>
      <circle cx="885.0" cy="376.1" r="47"/>
      <circle cx="885.0" cy="376.1" r="52"/>
      <circle cx="885.0" cy="376.1" r="57"/>
      <circle cx="203.0" cy="481.5" r="47"/>
      <circle cx="203.0" cy="481.5" r="52"/>
      <path d="M203.0 543.5 L203.0 548.5"/>
      <path d="M229.9 537.36 L232.07 541.86"/>
      <path d="M251.47 520.16 L255.38 523.28"/>
      <path d="M263.45 495.3 L268.32 496.41"/>
      <path d="M263.45 467.7 L268.32 466.59"/>
      <path d="M251.47 442.84 L255.38 439.72"/>
      <path d="M229.9 425.64 L232.07 421.14"/>
      <path d="M203.0 419.5 L203.0 414.5"/>
      <path d="M176.1 425.64 L173.93 421.14"/>
      <path d="M154.53 442.84 L150.62 439.72"/>
      <path d="M142.55 467.7 L137.68 466.59"/>
      <path d="M142.55 495.3 L137.68 496.41"/>
      <path d="M154.53 520.16 L150.62 523.28"/>
      <path d="M176.1 537.36 L173.93 541.86"/>
      <circle cx="327.0" cy="481.5" r="47"/>
      <circle cx="575.0" cy="481.5" r="47"/>
      <circle cx="575.0" cy="481.5" r="52"/>
      <circle cx="637.0" cy="481.5" r="5"/>
      <circle cx="630.86006980995" cy="508.4007918252886" r="5"/>
      <circle cx="613.6563677152415" cy="529.9735519130179" r="5"/>
      <circle cx="588.7962979052915" cy="541.9455305552731" r="5"/>
      <circle cx="561.2037020947085" cy="541.9455305552731" r="5"/>
      <circle cx="536.3436322847585" cy="529.9735519130179" r="5"/>
      <circle cx="519.13993019005" cy="508.4007918252886" r="5"/>
      <circle cx="513.0" cy="481.5" r="5"/>
      <circle cx="519.13993019005" cy="454.5992081747114" r="5"/>
      <circle cx="536.3436322847585" cy="433.02644808698216" r="5"/>
      <circle cx="561.2037020947085" cy="421.0544694447269" r="5"/>
      <circle cx="588.7962979052915" cy="421.0544694447269" r="5"/>
      <circle cx="613.6563677152415" cy="433.02644808698216" r="5"/>
      <circle cx="630.86006980995" cy="454.5992081747114" r="5"/>
      <path d="M699.0 533.5 L699.0 538.5"/>
      <path d="M721.56 528.35 L723.73 532.85"/>
      <path d="M739.66 513.92 L743.57 517.04"/>
      <path d="M749.7 493.07 L754.57 494.18"/>
      <path d="M749.7 469.93 L754.57 468.82"/>
      <path d="M739.66 449.08 L743.57 445.96"/>
      <path d="M721.56 434.65 L723.73 430.15"/>
      <path d="M699.0 429.5 L699.0 424.5"/>
      <path d="M676.44 434.65 L674.27 430.15"/>
      <path d="M658.34 449.08 L654.43 445.96"/>
      <path d="M648.3 469.93 L643.43 468.82"/>
      <path d="M648.3 493.07 L643.43 494.18"/>
      <path d="M658.34 513.92 L654.43 517.04"/>
      <path d="M676.44 528.35 L674.27 532.85"/>
      <circle cx="823.0" cy="481.5" r="47"/>
      <path d="M823.0 538.5 L823.0 543.5"/>
      <path d="M847.73 532.86 L849.9 537.36"/>
      <path d="M867.56 517.04 L871.47 520.16"/>
      <path d="M878.57 494.18 L883.44 495.29"/>
      <path d="M878.57 468.82 L883.44 467.71"/>
      <path d="M867.56 445.96 L871.47 442.84"/>
      <path d="M847.73 430.14 L849.9 425.64"/>
      <path d="M823.0 424.5 L823.0 419.5"/>
      <path d="M798.27 430.14 L796.1 425.64"/>
      <path d="M778.44 445.96 L774.53 442.84"/>
      <path d="M767.43 468.82 L762.56 467.71"/>
      <path d="M767.43 494.18 L762.56 495.29"/>
      <path d="M778.44 517.04 L774.53 520.16"/>
      <path d="M798.27 532.86 L796.1 537.36"/>
      <path d="M947.0 533.5 L947.0 538.5"/>
      <path d="M969.56 528.35 L971.73 532.85"/>
      <path d="M987.66 513.92 L991.57 517.04"/>
      <path d="M997.7 493.07 L1002.57 494.18"/>
      <path d="M997.7 469.93 L1002.57 468.82"/>
      <path d="M987.66 449.08 L991.57 445.96"/>
      <path d="M969.56 434.65 L971.73 430.15"/>
      <path d="M947.0 429.5 L947.0 424.5"/>
      <path d="M924.44 434.65 L922.27 430.15"/>
      <path d="M906.34 449.08 L902.43 445.96"/>
      <path d="M896.3 469.93 L891.43 468.82"/>
      <path d="M896.3 493.07 L891.43 494.18"/>
      <path d="M906.34 513.92 L902.43 517.04"/>
      <path d="M924.44 528.35 L922.27 532.85"/>
      <circle cx="141.0" cy="586.9" r="47"/>
      <circle cx="141.0" cy="586.9" r="52"/>
      <path d="M141.0 648.9 L141.0 653.9"/>
      <path d="M167.9 642.76 L170.07 647.26"/>
      <path d="M189.47 625.56 L193.38 628.68"/>
      <path d="M201.45 600.7 L206.32 601.81"/>
      <path d="M201.45 573.1 L206.32 571.99"/>
      <path d="M189.47 548.24 L193.38 545.12"/>
      <path d="M167.9 531.04 L170.07 526.54"/>
      <path d="M141.0 524.9 L141.0 519.9"/>
      <path d="M114.1 531.04 L111.93 526.54"/>
      <path d="M92.53 548.24 L88.62 545.12"/>
      <path d="M80.55 573.1 L75.68 571.99"/>
      <path d="M80.55 600.7 L75.68 601.81"/>
      <path d="M92.53 625.56 L88.62 628.68"/>
      <path d="M114.1 642.76 L111.93 647.26"/>
      <path d="M513.0 638.9 L513.0 643.9"/>
      <path d="M535.56 633.75 L537.73 638.25"/>
      <path d="M553.66 619.32 L557.57 622.44"/>
      <path d="M563.7 598.47 L568.57 599.58"/>
      <path d="M563.7 575.33 L568.57 574.22"/>
      <path d="M553.66 554.48 L557.57 551.36"/>
      <path d="M535.56 540.05 L537.73 535.55"/>
      <path d="M513.0 534.9 L513.0 529.9"/>
      <path d="M490.44 540.05 L488.27 535.55"/>
      <path d="M472.34 554.48 L468.43 551.36"/>
      <path d="M462.3 575.33 L457.43 574.22"/>
      <path d="M462.3 598.47 L457.43 599.58"/>
      <path d="M472.34 619.32 L468.43 622.44"/>
      <path d="M490.44 633.75 L488.27 638.25"/>
      <circle cx="637.0" cy="586.9" r="47"/>
      <circle cx="937.0" cy="586.9" r="5"/>
      <circle cx="931.8503811309258" cy="609.461954434113" r="5"/>
      <circle cx="917.4214696966542" cy="627.5552370883375" r="5"/>
      <circle cx="896.5710885657284" cy="637.5962514334548" r="5"/>
      <circle cx="873.4289114342716" cy="637.5962514334548" r="5"/>
      <circle cx="852.5785303033458" cy="627.5552370883375" r="5"/>
      <circle cx="838.1496188690742" cy="609.461954434113" r="5"/>
      <circle cx="833.0" cy="586.9" r="5"/>
      <circle cx="838.1496188690742" cy="564.338045565887" r="5"/>
      <circle cx="852.5785303033458" cy="546.2447629116624" r="5"/>
      <circle cx="873.4289114342716" cy="536.2037485665452" r="5"/>
      <circle cx="896.5710885657284" cy="536.2037485665452" r="5"/>
      <circle cx="917.4214696966542" cy="546.2447629116624" r="5"/>
      <circle cx="931.8503811309258" cy="564.3380455658869" r="5"/>
      <circle cx="1009.0" cy="586.9" r="47"/>
      <circle cx="203.0" cy="692.3" r="47"/>
      <circle cx="327.0" cy="692.3" r="47"/>
      <circle cx="575.0" cy="692.3" r="47"/>
      <circle cx="575.0" cy="692.3" r="52"/>
      <circle cx="575.0" cy="692.3" r="57"/>
      <circle cx="875.0" cy="692.3" r="5"/>
      <circle cx="869.8503811309258" cy="714.8619544341129" r="5"/>
      <circle cx="855.4214696966542" cy="732.9552370883375" r="5"/>
      <circle cx="834.5710885657284" cy="742.9962514334547" r="5"/>
      <circle cx="811.4289114342716" cy="742.9962514334547" r="5"/>
      <circle cx="790.5785303033458" cy="732.9552370883375" r="5"/>
      <circle cx="776.1496188690742" cy="714.8619544341129" r="5"/>
      <circle cx="771.0" cy="692.3" r="5"/>
      <circle cx="776.1496188690742" cy="669.738045565887" r="5"/>
      <circle cx="790.5785303033458" cy="651.6447629116624" r="5"/>
      <circle cx="811.4289114342716" cy="641.6037485665452" r="5"/>
      <circle cx="834.5710885657284" cy="641.6037485665452" r="5"/>
      <circle cx="855.4214696966542" cy="651.6447629116624" r="5"/>
      <circle cx="869.8503811309258" cy="669.738045565887" r="5"/>
    </g>
  </g>
</svg>
