<svg version="1.1" width="1150" height="870" xmlns="http://www.w3.org/2000/svg">
  <!-- Seed: 8830340313678968352 -->
  <g stroke="black" fill="none">
    <g stroke="blue">
      <circle cx="867.0" cy="404.8" r="5"/>
      <circle cx="866.3479285579607" cy="424.3034490535755" r="5"/>
      <circle cx="864.3946265411957" cy="443.71979096914345" r="5"/>
      <circle cx="861.1488178706834" cy="462.96230765032016" r="5"/>
      <circle cx="856.6249991158779" cy="481.9450573464155" r="5"/>
      <circle cx="850.8433747495123" cy="500.5832584891542" r="5"/>
      <circle cx="843.8297669095173" cy="518.7936683477404" r="5"/>
      <circle cx="835.6155000710853" cy="536.4949548111017" r="5"/>
      <circle cx="826.2372611439607" cy="553.6080596368399" r="5"/>
      <circle cx="815.7369356197939" cy="570.0565515445338" r="5"/>
      <circle cx="804.161420501369" cy="585.7669675763915" r="5"/>
      <circle cx="791.5624148492036" cy="600.6691412006533" r="5"/>
      <circle cx="777.9961888809955" cy="614.6965156923553" r="5"/>
      <circle cx="763.5233326551703" cy="627.786441391821" r="5"/>
      <circle cx="748.2084854609718" cy="639.8804555132483" r="5"/>
      <circle cx="732.1200471237048" cy="650.9245432537048" r="5"/>
      <circle cx="715.3298725145116" cy="660.8693790363482" r="5"/>
      <circle cx="697.9129506290739" cy="669.6705468104275" r="5"/>
      <circle cx="679.9470696685537" cy="677.2887384241479" r="5"/>
      <circle cx="661.5124696186052" cy="683.6899291844184" r="5"/>
      <circle cx="642.6914838781183" cy="688.8455298193909" r="5"/>
      <circle cx="623.568171538274" cy="692.7325141650883" r="5"/>
      <circle cx="604.2279419542367" cy="695.3335220058432" r="5"/>
      <circle cx="584.757173286241" cy="696.6369366092343" r="5"/>
      <circle cx="565.2428267137591" cy="696.6369366092343" r="5"/>
      <circle cx="545.7720580457633" cy="695.3335220058432" r="5"/>
      <circle cx="526.431828461726" cy="692.7325141650883" r="5"/>
      <circle cx="507.3085161218817" cy="688.8455298193909" r="5"/>
      <circle cx="488.4875303813949" cy="683.6899291844184" r="5"/>
      <circle cx="470.0529303314463" cy="677.288738424148" r="5"/>
      <circle cx="452.0870493709262" cy="669.6705468104276" r="5"/>
      <circle cx="434.67012748548836" cy="660.8693790363482" r="5"/>
      <circle cx="417.8799528762952" cy="650.9245432537048" r="5"/>
      <circle cx="401.7915145390283" cy="639.8804555132484" r="5"/>
      <circle cx="386.4766673448297" cy="627.786441391821" r="5"/>
      <circle cx="372.00381111900447" cy="614.6965156923554" r="5"/>
      <circle cx="358.4375851507964" cy="600.6691412006533" r="5"/>
      <circle cx="345.838579498631" cy="585.7669675763915" r="5"/>
      <circle cx="334.26306438020606" cy="570.0565515445339" r="5"/>
      <circle cx="323.7627388560394" cy="553.6080596368399" r="5"/>
      <circle cx="314.3844999289147" cy="536.4949548111018" r="5"/>
      <circle cx="306.1702330904828" cy="518.7936683477404" r="5"/>
      <circle cx="299.15662525048776" cy="500.5832584891543" r="5"/>
      <circle cx="293.3750008841221" cy="481.9450573464156" r="5"/>
      <circle cx="288.85118212931667" cy="462.9623076503202" r="5"/>
      <circle cx="285.60537345880425" cy="443.7197909691435" r="5"/>
      <circle cx="283.6520714420393" cy="424.30344905357555" r="5"/>
      <circle cx="283.0" cy="404.80000000000007" r="5"/>
      <circle cx="283.6520714420393" cy="385.2965509464247" r="5"/>
      <circle cx="285.6053734588042" cy="365.88020903085663" r="5"/>
      <circle cx="288.8511821293166" cy="346.63769234967987" r="5"/>
      <circle cx="293.375000884122" cy="327.6549426535846" r="5"/>
      <circle cx="299.1566252504877" cy="309.0167415108458" r="5"/>
      <circle cx="306.1702330904828" cy="290.80633165225964" r="5"/>
      <circle cx="314.3844999289147" cy="273.10504518889826" r="5"/>
      <circle cx="323.76273885603933" cy="255.9919403631601" r="5"/>
      <circle cx="334.26306438020595" cy="239.54344845546632" r="5"/>
      <circle cx="345.838579498631" cy="223.83303242360847" r="5"/>
      <circle cx="358.4375851507963" cy="208.93085879934682" r="5"/>
      <circle cx="372.0038111190044" cy="194.9034843076447" r="5"/>
      <circle cx="386.47666734482965" cy="181.8135586081791" r="5"/>
      <circle cx="401.79151453902836" cy="169.7195444867516" r="5"/>
      <circle cx="417.87995287629514" cy="158.67545674629528" r="5"/>
      <circle cx="434.6701274854884" cy="148.73062096365192" r="5"/>
      <circle cx="452.08704937092614" cy="139.92945318957254" r="5"/>
      <circle cx="470.05293033144636" cy="132.31126157585203" r="5"/>
      <circle cx="488.4875303813949" cy="125.9100708155816" r="5"/>
      <circle cx="507.3085161218816" cy="120.75447018060919" r="5"/>
      <circle cx="526.431828461726" cy="116.86748583491169" r="5"/>
      <circle cx="545.7720580457632" cy="114.26647799415684" r="5"/>
      <circle cx="565.2428267137591" cy="112.96306339076568" r="5"/>
      <circle cx="584.7571732862409" cy="112.96306339076568" r="5"/>
      <circle cx="604.2279419542367" cy="114.26647799415684" r="5"/>
      <circle cx="623.5681715382739" cy="116.86748583491169" r="5"/>
      <circle cx="642.6914838781183" cy="120.75447018060913" r="5"/>
      <circle cx="661.512469618605" cy="125.91007081558155" r="5"/>
      <circle cx="679.9470696685536" cy="132.31126157585197" r="5"/>
      <circle cx="697.9129506290737" cy="139.92945318957248" r="5"/>
      <circle cx="715.3298725145115" cy="148.73062096365186" r="5"/>
      <circle cx="732.1200471237048" cy="158.67545674629525" r="5"/>
      <circle cx="748.2084854609716" cy="169.71954448675152" r="5"/>
      <circle cx="763.5233326551703" cy="181.81355860817905" r="5"/>
      <circle cx="777.9961888809956" cy="194.9034843076447" r="5"/>
      <circle cx="791.5624148492036" cy="208.93085879934674" r="5"/>
      <circle cx="804.1614205013689" cy="223.8330324236084" r="5"/>
      <circle cx="815.7369356197939" cy="239.5434484554662" r="5"/>
      <circle cx="826.2372611439606" cy="255.99194036315998" r="5"/>
      <circle cx="835.6155000710852" cy="273.10504518889803" r="5"/>
      <circle cx="843.8297669095172" cy="290.8063316522594" r="5"/>
      <circle cx="850.8433747495123" cy="309.01674151084586" r="5"/>
      <circle cx="856.6249991158779" cy="327.6549426535844" r="5"/>
      <circle cx="861.1488178706834" cy="346.6376923496799" r="5"/>
      <circle cx="864.3946265411957" cy="365.8802090308565" r="5"/>
      <circle cx="866.3479285579607" cy="385.2965509464246" r="5"/>
    </g>
  </g>
</svg>
