<svg version="1.1" width="1150" height="870" xmlns="http://www.w3.org/2000/svg">
  <!-- Seed: 1971966222503271104 -->
  <g stroke="black" fill="none">
    <g stroke="blue">
      <circle cx="379.0" cy="415.4" r="181"/>
      <circle cx="771.0" cy="415.4" r="181"/>
      <path d="M771.0 606.4 L771.0 611.4"/>
      <path d="M791.65 605.28 L792.19 610.25"/>
      <path d="M812.06 601.93 L813.13 606.81"/>
      <path d="M831.99 596.4 L833.59 601.14"/>
      <path d="M851.2 588.75 L853.3 593.29"/>
      <path d="M869.47 579.06 L872.05 583.34"/>
      <path d="M886.59 567.45 L889.62 571.43"/>
      <path d="M902.35 554.07 L905.79 557.7"/>
      <path d="M916.57 539.05 L920.38 542.29"/>
      <path d="M929.09 522.59 L933.23 525.4"/>
      <path d="M939.75 504.87 L944.17 507.21"/>
      <path d="M948.43 486.1 L953.07 487.95"/>
      <path d="M955.04 466.5 L959.86 467.84"/>
      <path d="M959.48 446.3 L964.41 447.11"/>
      <path d="M961.72 425.74 L966.71 426.01"/>
      <path d="M961.72 405.06 L966.71 404.79"/>
      <path d="M959.48 384.5 L964.41 383.69"/>
      <path d="M955.04 364.3 L959.86 362.96"/>
      <path d="M948.43 344.7 L953.07 342.85"/>
      <path d="M939.75 325.93 L944.17 323.59"/>
      <path d="M929.09 308.21 L933.23 305.4"/>
      <path d="M916.57 291.75 L920.38 288.51"/>
      <path d="M902.35 276.73 L905.79 273.1"/>
      <path d="M886.59 263.35 L889.62 259.37"/>
      <path d="M869.47 251.74 L872.05 247.46"/>
      <path d="M851.2 242.05 L853.3 237.51"/>
      <path d="M831.99 234.4 L833.59 229.66"/>
      <path d="M812.06 228.87 L813.13 223.99"/>
      <path d="M791.65 225.52 L792.19 220.55"/>
      <path d="M771.0 224.4 L771.0 219.4"/>
      <path d="M750.35 225.52 L749.81 220.55"/>
      <path d="M729.94 228.87 L728.87 223.99"/>
      <path d="M710.01 234.4 L708.41 229.66"/>
      <path d="M690.8 242.05 L688.7 237.51"/>
      <path d="M672.53 251.74 L669.95 247.46"/>
      <path d="M655.41 263.35 L652.38 259.37"/>
      <path d="M639.65 276.73 L636.21 273.1"/>
      <path d="M625.43 291.75 L621.62 288.51"/>
      <path d="M612.91 308.21 L608.77 305.4"/>
      <path d="M602.25 325.93 L597.83 323.59"/>
      <path d="M593.57 344.7 L588.93 342.85"/>
      <path d="M586.96 364.3 L582.14 362.96"/>
      <path d="M582.52 384.5 L577.59 383.69"/>
      <path d="M580.28 405.06 L575.29 404.79"/>
      <path d="M580.28 425.74 L575.29 426.01"/>
      <path d="M582.52 446.3 L577.59 447.11"/>
      <path d="M586.96 466.5 L582.14 467.84"/>
      <path d="M593.57 486.1 L588.93 487.95"/>
      <path d="M602.25 504.87 L597.83 507.21"/>
      <path d="M612.91 522.59 L608.77 525.4"/>
      <path d="M625.43 539.05 L621.62 542.29"/>
      <path d="M639.65 554.07 L636.21 557.7"/>
      <path d="M655.41 567.45 L652.38 571.43"/>
      <path d="M672.53 579.06 L669.95 583.34"/>
      <path d="M690.8 588.75 L688.7 593.29"/>
      <path d="M710.01 596.4 L708.41 601.14"/>
      <path d="M729.94 601.93 L728.87 606.81"/>
      <path d="M750.35 605.28 L749.81 610.25"/>
    </g>
  </g>
</svg>
