<svg version="1.1" width="1150" height="870" xmlns="http://www.w3.org/2000/svg">
  <!-- Seed: 2635912871271133362 -->
  <g stroke="black" fill="none">
    <circle cx="164.0" cy="345.0" r="1"/>
    <circle cx="167.0" cy="341.0" r="1.06"/>
    <circle cx="170.0" cy="337.0" r="1.23"/>
    <circle cx="173.0" cy="333.0" r="1.52"/>
    <circle cx="176.0" cy="329.0" r="1.91"/>
    <circle cx="179.0" cy="325.0" r="2.42"/>
    <circle cx="182.0" cy="321.0" r="3.02"/>
    <circle cx="185.0" cy="317.0" r="3.71"/>
    <circle cx="188.0" cy="313.0" r="4.48"/>
    <circle cx="191.0" cy="309.0" r="5.33"/>
    <circle cx="194.0" cy="305.0" r="6.24"/>
    <circle cx="197.0" cy="301.0" r="7.2"/>
    <circle cx="200.0" cy="297.0" r="8.21"/>
    <circle cx="203.0" cy="293.0" r="9.24"/>
    <circle cx="206.0" cy="289.0" r="10.28"/>
    <circle cx="209.0" cy="285.0" r="11.33"/>
    <circle cx="212.0" cy="281.0" r="12.37"/>
    <circle cx="215.0" cy="277.0" r="13.39"/>
    <circle cx="218.0" cy="273.0" r="14.37"/>
    <circle cx="221.0" cy="269.0" r="15.3"/>
    <circle cx="224.0" cy="265.0" r="16.18"/>
    <circle cx="227.0" cy="261.0" r="16.99"/>
    <circle cx="230.0" cy="257.0" r="17.71"/>
    <circle cx="233.0" cy="253.0" r="18.35"/>
    <circle cx="236.0" cy="249.0" r="18.89"/>
    <circle cx="239.0" cy="245.0" r="19.33"/>
    <circle cx="242.0" cy="241.0" r="19.66"/>
    <circle cx="245.0" cy="237.0" r="19.88"/>
    <circle cx="248.0" cy="233.0" r="19.99"/>
    <circle cx="249.0" cy="232.0" r="20"/>
    <circle cx="252.0" cy="228.0" r="20.0"/>
    <circle cx="255.0" cy="224.0" r="19.98"/>
    <circle cx="258.0" cy="221.0" r="19.96"/>
    <circle cx="261.0" cy="217.0" r="19.93"/>
    <circle cx="263.0" cy="214.0" r="19.89"/>
    <circle cx="266.0" cy="211.0" r="19.85"/>
    <circle cx="268.0" cy="208.0" r="19.79"/>
    <circle cx="271.0" cy="206.0" r="19.73"/>
    <circle cx="273.0" cy="203.0" r="19.66"/>
    <circle cx="276.0" cy="201.0" r="19.58"/>
    <circle cx="278.0" cy="199.0" r="19.5"/>
    <circle cx="280.0" cy="197.0" r="19.41"/>
    <circle cx="283.0" cy="195.0" r="19.31"/>
    <circle cx="285.0" cy="193.0" r="19.2"/>
    <circle cx="287.0" cy="191.0" r="19.09"/>
    <circle cx="289.0" cy="190.0" r="18.98"/>
    <circle cx="291.0" cy="189.0" r="18.85"/>
    <circle cx="293.0" cy="187.0" r="18.72"/>
    <circle cx="295.0" cy="186.0" r="18.59"/>
    <circle cx="297.0" cy="186.0" r="18.45"/>
    <circle cx="299.0" cy="185.0" r="18.31"/>
    <circle cx="301.0" cy="184.0" r="18.17"/>
    <circle cx="302.0" cy="184.0" r="18.02"/>
    <circle cx="304.0" cy="184.0" r="17.87"/>
    <circle cx="306.0" cy="184.0" r="17.71"/>
    <circle cx="307.0" cy="184.0" r="17.56"/>
    <circle cx="309.0" cy="184.0" r="17.4"/>
    <circle cx="310.0" cy="185.0" r="17.24"/>
    <circle cx="312.0" cy="185.0" r="17.08"/>
    <circle cx="313.0" cy="186.0" r="16.92"/>
    <circle cx="314.0" cy="187.0" r="16.76"/>
    <circle cx="315.0" cy="188.0" r="16.6"/>
    <circle cx="317.0" cy="189.0" r="16.44"/>
    <circle cx="318.0" cy="190.0" r="16.29"/>
    <circle cx="319.0" cy="192.0" r="16.13"/>
    <circle cx="320.0" cy="194.0" r="15.98"/>
    <circle cx="321.0" cy="195.0" r="15.83"/>
    <circle cx="322.0" cy="197.0" r="15.69"/>
    <circle cx="323.0" cy="199.0" r="15.55"/>
    <circle cx="324.0" cy="202.0" r="15.41"/>
    <circle cx="324.0" cy="204.0" r="15.28"/>
    <circle cx="325.0" cy="207.0" r="15.15"/>
    <circle cx="326.0" cy="209.0" r="15.02"/>
    <circle cx="326.0" cy="212.0" r="14.91"/>
    <circle cx="327.0" cy="215.0" r="14.8"/>
    <circle cx="328.0" cy="219.0" r="14.69"/>
    <circle cx="328.0" cy="222.0" r="14.59"/>
    <circle cx="328.0" cy="225.0" r="14.5"/>
    <circle cx="329.0" cy="229.0" r="14.42"/>
    <circle cx="329.0" cy="233.0" r="14.34"/>
    <circle cx="329.0" cy="237.0" r="14.27"/>
    <circle cx="330.0" cy="241.0" r="14.21"/>
    <circle cx="330.0" cy="245.0" r="14.15"/>
    <circle cx="330.0" cy="250.0" r="14.11"/>
    <circle cx="330.0" cy="254.0" r="14.07"/>
    <circle cx="330.0" cy="259.0" r="14.04"/>
    <circle cx="330.0" cy="264.0" r="14.02"/>
    <circle cx="330.0" cy="269.0" r="14.0"/>
    <circle cx="330.0" cy="274.0" r="14"/>
    <circle cx="329.0" cy="280.0" r="14.01"/>
    <circle cx="329.0" cy="286.0" r="14.05"/>
    <circle cx="329.0" cy="291.0" r="14.1"/>
    <circle cx="329.0" cy="297.0" r="14.18"/>
    <circle cx="329.0" cy="302.0" r="14.28"/>
    <circle cx="328.0" cy="308.0" r="14.41"/>
    <circle cx="328.0" cy="313.0" r="14.55"/>
    <circle cx="328.0" cy="319.0" r="14.72"/>
    <circle cx="328.0" cy="324.0" r="14.9"/>
    <circle cx="327.0" cy="330.0" r="15.11"/>
    <circle cx="327.0" cy="335.0" r="15.34"/>
    <circle cx="327.0" cy="341.0" r="15.58"/>
    <circle cx="327.0" cy="346.0" r="15.84"/>
    <circle cx="326.0" cy="351.0" r="16.12"/>
    <circle cx="326.0" cy="357.0" r="16.42"/>
    <circle cx="326.0" cy="362.0" r="16.73"/>
    <circle cx="326.0" cy="367.0" r="17.05"/>
    <circle cx="325.0" cy="373.0" r="17.39"/>
    <circle cx="325.0" cy="378.0" r="17.73"/>
    <circle cx="325.0" cy="383.0" r="18.09"/>
    <circle cx="324.0" cy="388.0" r="18.46"/>
    <circle cx="324.0" cy="394.0" r="18.84"/>
    <circle cx="324.0" cy="399.0" r="19.22"/>
    <circle cx="324.0" cy="404.0" r="19.61"/>
    <circle cx="323.0" cy="409.0" r="20.0"/>
    <circle cx="323.0" cy="414.0" r="20.4"/>
    <circle cx="323.0" cy="419.0" r="20.8"/>
    <circle cx="322.0" cy="424.0" r="21.2"/>
    <circle cx="322.0" cy="429.0" r="21.6"/>
    <circle cx="322.0" cy="434.0" r="22.0"/>
    <circle cx="321.0" cy="439.0" r="22.39"/>
    <circle cx="321.0" cy="444.0" r="22.78"/>
    <circle cx="321.0" cy="449.0" r="23.16"/>
    <circle cx="320.0" cy="454.0" r="23.54"/>
    <circle cx="320.0" cy="459.0" r="23.91"/>
    <circle cx="320.0" cy="464.0" r="24.27"/>
    <circle cx="319.0" cy="468.0" r="24.61"/>
    <circle cx="319.0" cy="473.0" r="24.95"/>
    <circle cx="318.0" cy="478.0" r="25.27"/>
    <circle cx="318.0" cy="483.0" r="25.58"/>
    <circle cx="318.0" cy="488.0" r="25.88"/>
    <circle cx="317.0" cy="492.0" r="26.16"/>
    <circle cx="317.0" cy="497.0" r="26.42"/>
    <circle cx="317.0" cy="502.0" r="26.66"/>
    <circle cx="316.0" cy="506.0" r="26.89"/>
    <circle cx="316.0" cy="511.0" r="27.1"/>
    <circle cx="315.0" cy="515.0" r="27.28"/>
    <circle cx="315.0" cy="520.0" r="27.45"/>
    <circle cx="314.0" cy="525.0" r="27.59"/>
    <circle cx="314.0" cy="529.0" r="27.72"/>
    <circle cx="314.0" cy="534.0" r="27.82"/>
    <circle cx="313.0" cy="538.0" r="27.9"/>
    <circle cx="313.0" cy="543.0" r="27.95"/>
    <circle cx="312.0" cy="547.0" r="27.99"/>
    <circle cx="312.0" cy="551.0" r="28"/>
    <circle cx="311.0" cy="560.0" r="28.03"/>
    <circle cx="310.0" cy="568.0" r="28.14"/>
    <circle cx="310.0" cy="576.0" r="28.31"/>
    <circle cx="309.0" cy="583.0" r="28.54"/>
    <circle cx="308.0" cy="590.0" r="28.84"/>
    <circle cx="308.0" cy="597.0" r="29.2"/>
    <circle cx="308.0" cy="604.0" r="29.61"/>
    <circle cx="307.0" cy="610.0" r="30.07"/>
    <circle cx="307.0" cy="616.0" r="30.57"/>
    <circle cx="307.0" cy="621.0" r="31.11"/>
    <circle cx="307.0" cy="626.0" r="31.68"/>
    <circle cx="307.0" cy="631.0" r="32.28"/>
    <circle cx="307.0" cy="635.0" r="32.88"/>
    <circle cx="308.0" cy="639.0" r="33.5"/>
    <circle cx="308.0" cy="643.0" r="34.12"/>
    <circle cx="308.0" cy="647.0" r="34.72"/>
    <circle cx="309.0" cy="650.0" r="35.32"/>
    <circle cx="310.0" cy="653.0" r="35.89"/>
    <circle cx="310.0" cy="655.0" r="36.43"/>
    <circle cx="311.0" cy="657.0" r="36.93"/>
    <circle cx="312.0" cy="659.0" r="37.39"/>
    <circle cx="313.0" cy="660.0" r="37.8"/>
    <circle cx="314.0" cy="661.0" r="38.16"/>
    <circle cx="315.0" cy="662.0" r="38.46"/>
    <circle cx="316.0" cy="663.0" r="38.69"/>
    <circle cx="317.0" cy="663.0" r="38.86"/>
    <circle cx="319.0" cy="662.0" r="38.97"/>
    <circle cx="320.0" cy="662.0" r="39"/>
    <circle cx="324.0" cy="660.0" r="38.31"/>
    <circle cx="327.0" cy="657.0" r="36.3"/>
    <circle cx="330.0" cy="654.0" r="33.13"/>
    <circle cx="332.0" cy="651.0" r="29.06"/>
    <circle cx="334.0" cy="647.0" r="24.42"/>
    <circle cx="336.0" cy="643.0" r="19.58"/>
    <circle cx="337.0" cy="638.0" r="14.94"/>
    <circle cx="338.0" cy="633.0" r="10.87"/>
    <circle cx="338.0" cy="628.0" r="7.7"/>
    <circle cx="338.0" cy="622.0" r="5.69"/>
    <circle cx="337.0" cy="616.0" r="5"/>
    <circle cx="337.0" cy="610.0" r="5.32"/>
    <circle cx="336.0" cy="605.0" r="6.26"/>
    <circle cx="336.0" cy="600.0" r="7.77"/>
    <circle cx="336.0" cy="594.0" r="9.75"/>
    <circle cx="335.0" cy="589.0" r="12.1"/>
    <circle cx="335.0" cy="584.0" r="14.67"/>
    <circle cx="335.0" cy="579.0" r="17.33"/>
    <circle cx="335.0" cy="573.0" r="19.9"/>
    <circle cx="335.0" cy="568.0" r="22.25"/>
    <circle cx="335.0" cy="563.0" r="24.23"/>
    <circle cx="336.0" cy="558.0" r="25.74"/>
    <circle cx="336.0" cy="553.0" r="26.68"/>
    <circle cx="336.0" cy="548.0" r="27"/>
    <circle cx="337.0" cy="543.0" r="27.09"/>
    <circle cx="338.0" cy="538.0" r="27.34"/>
    <circle cx="339.0" cy="534.0" r="27.75"/>
    <circle cx="340.0" cy="529.0" r="28.3"/>
    <circle cx="341.0" cy="524.0" r="28.94"/>
    <circle cx="343.0" cy="519.0" r="29.64"/>
    <circle cx="344.0" cy="515.0" r="30.36"/>
    <circle cx="346.0" cy="510.0" r="31.06"/>
    <circle cx="348.0" cy="506.0" r="31.7"/>
    <circle cx="351.0" cy="501.0" r="32.25"/>
    <circle cx="353.0" cy="497.0" r="32.66"/>
    <circle cx="356.0" cy="493.0" r="32.91"/>
    <circle cx="359.0" cy="489.0" r="33"/>
    <circle cx="362.0" cy="484.0" r="33.55"/>
    <circle cx="365.0" cy="479.0" r="35.14"/>
    <circle cx="368.0" cy="474.0" r="37.66"/>
    <circle cx="371.0" cy="469.0" r="40.89"/>
    <circle cx="373.0" cy="465.0" r="44.58"/>
    <circle cx="374.0" cy="460.0" r="48.42"/>
    <circle cx="376.0" cy="455.0" r="52.11"/>
    <circle cx="377.0" cy="451.0" r="55.34"/>
    <circle cx="378.0" cy="446.0" r="57.86"/>
    <circle cx="378.0" cy="442.0" r="59.45"/>
    <circle cx="378.0" cy="438.0" r="60"/>
    <circle cx="378.0" cy="434.0" r="59.38"/>
    <circle cx="379.0" cy="430.0" r="57.54"/>
    <circle cx="379.0" cy="426.0" r="54.59"/>
    <circle cx="380.0" cy="421.0" r="50.71"/>
    <circle cx="381.0" cy="417.0" r="46.12"/>
    <circle cx="382.0" cy="412.0" r="41.09"/>
    <circle cx="383.0" cy="407.0" r="35.91"/>
    <circle cx="385.0" cy="402.0" r="30.88"/>
    <circle cx="386.0" cy="397.0" r="26.29"/>
    <circle cx="388.0" cy="392.0" r="22.41"/>
    <circle cx="390.0" cy="386.0" r="19.46"/>
    <circle cx="392.0" cy="380.0" r="17.62"/>
    <circle cx="395.0" cy="374.0" r="17"/>
    <circle cx="399.0" cy="366.0" r="18.03"/>
    <circle cx="402.0" cy="359.0" r="20.98"/>
    <circle cx="405.0" cy="352.0" r="25.5"/>
    <circle cx="407.0" cy="346.0" r="31.05"/>
    <circle cx="409.0" cy="342.0" r="36.95"/>
    <circle cx="411.0" cy="338.0" r="42.5"/>
    <circle cx="413.0" cy="334.0" r="47.02"/>
    <circle cx="414.0" cy="332.0" r="49.97"/>
    <circle cx="415.0" cy="331.0" r="51"/>
    <circle cx="415.0" cy="330.0" r="50.27"/>
    <circle cx="416.0" cy="328.0" r="48.14"/>
    <circle cx="417.0" cy="325.0" r="44.82"/>
    <circle cx="419.0" cy="321.0" r="40.64"/>
    <circle cx="420.0" cy="317.0" r="36.0"/>
    <circle cx="422.0" cy="311.0" r="31.36"/>
    <circle cx="424.0" cy="305.0" r="27.18"/>
    <circle cx="427.0" cy="299.0" r="23.86"/>
    <circle cx="429.0" cy="291.0" r="21.73"/>
    <circle cx="432.0" cy="282.0" r="21"/>
    <circle cx="434.0" cy="277.0" r="21.0"/>
    <circle cx="436.0" cy="271.0" r="21.0"/>
    <circle cx="438.0" cy="265.0" r="21.0"/>
    <circle cx="440.0" cy="260.0" r="21.0"/>
    <circle cx="442.0" cy="255.0" r="21.0"/>
    <circle cx="444.0" cy="250.0" r="21.0"/>
    <circle cx="446.0" cy="245.0" r="21.0"/>
    <circle cx="448.0" cy="240.0" r="21.0"/>
    <circle cx="450.0" cy="235.0" r="21.0"/>
    <circle cx="452.0" cy="231.0" r="21.0"/>
    <circle cx="454.0" cy="227.0" r="21.0"/>
    <circle cx="456.0" cy="222.0" r="21.0"/>
    <circle cx="459.0" cy="218.0" r="21.0"/>
    <circle cx="461.0" cy="215.0" r="21.0"/>
    <circle cx="463.0" cy="211.0" r="21"/>
    <circle cx="464.0" cy="208.0" r="20.93"/>
    <circle cx="466.0" cy="205.0" r="20.74"/>
    <circle cx="467.0" cy="203.0" r="20.43"/>
    <circle cx="468.0" cy="201.0" r="20.01"/>
    <circle cx="468.0" cy="200.0" r="19.5"/>
    <circle cx="468.0" cy="199.0" r="18.93"/>
    <circle cx="468.0" cy="199.0" r="18.31"/>
    <circle cx="467.0" cy="200.0" r="17.69"/>
    <circle cx="466.0" cy="201.0" r="17.07"/>
    <circle cx="465.0" cy="203.0" r="16.5"/>
    <circle cx="463.0" cy="206.0" r="15.99"/>
    <circle cx="461.0" cy="208.0" r="15.57"/>
    <circle cx="459.0" cy="212.0" r="15.26"/>
    <circle cx="456.0" cy="216.0" r="15.07"/>
    <circle cx="453.0" cy="221.0" r="15"/>
    <circle cx="450.0" cy="225.0" r="15.38"/>
    <circle cx="448.0" cy="230.0" r="16.52"/>
    <circle cx="446.0" cy="234.0" r="18.37"/>
    <circle cx="444.0" cy="238.0" r="20.87"/>
    <circle cx="443.0" cy="243.0" r="23.94"/>
    <circle cx="441.0" cy="247.0" r="27.47"/>
    <circle cx="441.0" cy="251.0" r="31.34"/>
    <circle cx="440.0" cy="256.0" r="35.42"/>
    <circle cx="440.0" cy="260.0" r="39.58"/>
    <circle cx="440.0" cy="264.0" r="43.66"/>
    <circle cx="440.0" cy="269.0" r="47.53"/>
    <circle cx="441.0" cy="273.0" r="51.06"/>
    <circle cx="442.0" cy="277.0" r="54.13"/>
    <circle cx="443.0" cy="281.0" r="56.63"/>
    <circle cx="445.0" cy="286.0" r="58.48"/>
    <circle cx="447.0" cy="290.0" r="59.62"/>
    <circle cx="449.0" cy="294.0" r="60"/>
    <circle cx="451.0" cy="299.0" r="59.48"/>
    <circle cx="454.0" cy="303.0" r="57.94"/>
    <circle cx="456.0" cy="308.0" r="55.45"/>
    <circle cx="458.0" cy="313.0" r="52.09"/>
    <circle cx="460.0" cy="318.0" r="48.0"/>
    <circle cx="462.0" cy="322.0" r="43.33"/>
    <circle cx="463.0" cy="327.0" r="38.27"/>
    <circle cx="465.0" cy="332.0" r="33.0"/>
    <circle cx="466.0" cy="337.0" r="27.73"/>
    <circle cx="467.0" cy="342.0" r="22.67"/>
    <circle cx="468.0" cy="347.0" r="18.0"/>
    <circle cx="469.0" cy="352.0" r="13.91"/>
    <circle cx="470.0" cy="357.0" r="10.55"/>
    <circle cx="470.0" cy="363.0" r="8.06"/>
    <circle cx="471.0" cy="368.0" r="6.52"/>
    <circle cx="471.0" cy="373.0" r="6"/>
    <circle cx="471.0" cy="380.0" r="6.13"/>
    <circle cx="471.0" cy="386.0" r="6.52"/>
    <circle cx="471.0" cy="392.0" r="7.13"/>
    <circle cx="471.0" cy="398.0" r="7.94"/>
    <circle cx="471.0" cy="404.0" r="8.9"/>
    <circle cx="471.0" cy="409.0" r="9.96"/>
    <circle cx="471.0" cy="414.0" r="11.04"/>
    <circle cx="470.0" cy="419.0" r="12.1"/>
    <circle cx="470.0" cy="424.0" r="13.06"/>
    <circle cx="469.0" cy="429.0" r="13.87"/>
    <circle cx="469.0" cy="433.0" r="14.48"/>
    <circle cx="468.0" cy="438.0" r="14.87"/>
    <circle cx="467.0" cy="442.0" r="15"/>
    <circle cx="466.0" cy="447.0" r="15.36"/>
    <circle cx="465.0" cy="451.0" r="16.43"/>
    <circle cx="463.0" cy="456.0" r="18.11"/>
    <circle cx="462.0" cy="461.0" r="20.26"/>
    <circle cx="461.0" cy="466.0" r="22.72"/>
    <circle cx="459.0" cy="471.0" r="25.28"/>
    <circle cx="458.0" cy="476.0" r="27.74"/>
    <circle cx="457.0" cy="481.0" r="29.89"/>
    <circle cx="455.0" cy="486.0" r="31.57"/>
    <circle cx="453.0" cy="491.0" r="32.64"/>
    <circle cx="452.0" cy="497.0" r="33"/>
    <circle cx="450.0" cy="502.0" r="33.12"/>
    <circle cx="449.0" cy="507.0" r="33.48"/>
    <circle cx="447.0" cy="512.0" r="34.04"/>
    <circle cx="445.0" cy="518.0" r="34.75"/>
    <circle cx="444.0" cy="523.0" r="35.57"/>
    <circle cx="442.0" cy="528.0" r="36.43"/>
    <circle cx="440.0" cy="533.0" r="37.25"/>
    <circle cx="439.0" cy="538.0" r="37.96"/>
    <circle cx="437.0" cy="543.0" r="38.52"/>
    <circle cx="435.0" cy="548.0" r="38.88"/>
    <circle cx="434.0" cy="553.0" r="39"/>
    <circle cx="432.0" cy="558.0" r="39.12"/>
    <circle cx="431.0" cy="563.0" r="39.47"/>
    <circle cx="431.0" cy="567.0" r="40.03"/>
    <circle cx="430.0" cy="572.0" r="40.75"/>
    <circle cx="430.0" cy="577.0" r="41.59"/>
    <circle cx="430.0" cy="582.0" r="42.5"/>
    <circle cx="431.0" cy="587.0" r="43.41"/>
    <circle cx="432.0" cy="592.0" r="44.25"/>
    <circle cx="433.0" cy="597.0" r="44.97"/>
    <circle cx="435.0" cy="603.0" r="45.53"/>
    <circle cx="436.0" cy="608.0" r="45.88"/>
    <circle cx="439.0" cy="613.0" r="46"/>
    <circle cx="440.0" cy="617.0" r="45.72"/>
    <circle cx="442.0" cy="621.0" r="44.89"/>
    <circle cx="443.0" cy="625.0" r="43.53"/>
    <circle cx="444.0" cy="630.0" r="41.69"/>
    <circle cx="446.0" cy="634.0" r="39.44"/>
    <circle cx="447.0" cy="639.0" r="36.85"/>
    <circle cx="448.0" cy="643.0" r="34.02"/>
    <circle cx="449.0" cy="648.0" r="31.02"/>
    <circle cx="449.0" cy="653.0" r="27.98"/>
    <circle cx="450.0" cy="658.0" r="24.98"/>
    <circle cx="451.0" cy="664.0" r="22.15"/>
    <circle cx="451.0" cy="669.0" r="19.56"/>
    <circle cx="451.0" cy="675.0" r="17.31"/>
    <circle cx="452.0" cy="680.0" r="15.47"/>
    <circle cx="452.0" cy="686.0" r="14.11"/>
    <circle cx="452.0" cy="692.0" r="13.28"/>
    <circle cx="452.0" cy="698.0" r="13"/>
    <circle cx="452.0" cy="706.0" r="13.19"/>
    <circle cx="452.0" cy="713.0" r="13.74"/>
    <circle cx="452.0" cy="720.0" r="14.63"/>
    <circle cx="452.0" cy="727.0" r="15.81"/>
    <circle cx="453.0" cy="733.0" r="17.2"/>
    <circle cx="453.0" cy="738.0" r="18.72"/>
    <circle cx="454.0" cy="743.0" r="20.28"/>
    <circle cx="454.0" cy="748.0" r="21.8"/>
    <circle cx="455.0" cy="752.0" r="23.19"/>
    <circle cx="456.0" cy="756.0" r="24.37"/>
    <circle cx="457.0" cy="759.0" r="25.26"/>
    <circle cx="458.0" cy="762.0" r="25.81"/>
    <circle cx="459.0" cy="764.0" r="26"/>
    <circle cx="460.0" cy="764.0" r="25.99"/>
    <circle cx="460.0" cy="764.0" r="25.96"/>
    <circle cx="460.0" cy="764.0" r="25.92"/>
    <circle cx="461.0" cy="764.0" r="25.86"/>
    <circle cx="461.0" cy="764.0" r="25.77"/>
    <circle cx="462.0" cy="764.0" r="25.68"/>
    <circle cx="462.0" cy="763.0" r="25.56"/>
    <circle cx="463.0" cy="762.0" r="25.43"/>
    <circle cx="463.0" cy="762.0" r="25.28"/>
    <circle cx="464.0" cy="761.0" r="25.11"/>
    <circle cx="464.0" cy="759.0" r="24.93"/>
    <circle cx="465.0" cy="758.0" r="24.73"/>
    <circle cx="465.0" cy="757.0" r="24.52"/>
    <circle cx="466.0" cy="755.0" r="24.29"/>
    <circle cx="467.0" cy="753.0" r="24.05"/>
    <circle cx="468.0" cy="751.0" r="23.79"/>
    <circle cx="468.0" cy="749.0" r="23.52"/>
    <circle cx="469.0" cy="747.0" r="23.24"/>
    <circle cx="470.0" cy="745.0" r="22.95"/>
    <circle cx="471.0" cy="742.0" r="22.64"/>
    <circle cx="472.0" cy="740.0" r="22.33"/>
    <circle cx="473.0" cy="737.0" r="22.0"/>
    <circle cx="474.0" cy="734.0" r="21.67"/>
    <circle cx="475.0" cy="731.0" r="21.32"/>
    <circle cx="476.0" cy="728.0" r="20.97"/>
    <circle cx="477.0" cy="724.0" r="20.62"/>
    <circle cx="478.0" cy="721.0" r="20.25"/>
    <circle cx="479.0" cy="717.0" r="19.89"/>
    <circle cx="480.0" cy="713.0" r="19.51"/>
    <circle cx="481.0" cy="709.0" r="19.14"/>
    <circle cx="483.0" cy="705.0" r="18.76"/>
    <circle cx="484.0" cy="701.0" r="18.38"/>
    <circle cx="485.0" cy="696.0" r="18.0"/>
    <circle cx="487.0" cy="692.0" r="17.62"/>
    <circle cx="488.0" cy="687.0" r="17.24"/>
    <circle cx="489.0" cy="682.0" r="16.86"/>
    <circle cx="491.0" cy="677.0" r="16.49"/>
    <circle cx="492.0" cy="672.0" r="16.11"/>
    <circle cx="494.0" cy="667.0" r="15.75"/>
    <circle cx="495.0" cy="661.0" r="15.38"/>
    <circle cx="497.0" cy="656.0" r="15.03"/>
    <circle cx="498.0" cy="650.0" r="14.68"/>
    <circle cx="500.0" cy="644.0" r="14.33"/>
    <circle cx="501.0" cy="638.0" r="14.0"/>
    <circle cx="503.0" cy="632.0" r="13.67"/>
    <circle cx="505.0" cy="625.0" r="13.36"/>
    <circle cx="507.0" cy="619.0" r="13.05"/>
    <circle cx="508.0" cy="612.0" r="12.76"/>
    <circle cx="510.0" cy="605.0" r="12.48"/>
    <circle cx="512.0" cy="599.0" r="12.21"/>
    <circle cx="514.0" cy="591.0" r="11.95"/>
    <circle cx="516.0" cy="584.0" r="11.71"/>
    <circle cx="518.0" cy="577.0" r="11.48"/>
    <circle cx="520.0" cy="569.0" r="11.27"/>
    <circle cx="522.0" cy="562.0" r="11.07"/>
    <circle cx="524.0" cy="554.0" r="10.89"/>
    <circle cx="526.0" cy="546.0" r="10.72"/>
    <circle cx="528.0" cy="538.0" r="10.57"/>
    <circle cx="530.0" cy="529.0" r="10.44"/>
    <circle cx="532.0" cy="521.0" r="10.32"/>
    <circle cx="534.0" cy="512.0" r="10.23"/>
    <circle cx="536.0" cy="504.0" r="10.14"/>
    <circle cx="539.0" cy="495.0" r="10.08"/>
    <circle cx="541.0" cy="486.0" r="10.04"/>
    <circle cx="543.0" cy="477.0" r="10.01"/>
    <circle cx="546.0" cy="467.0" r="10"/>
    <circle cx="548.0" cy="459.0" r="10.0"/>
    <circle cx="550.0" cy="450.0" r="10.0"/>
    <circle cx="552.0" cy="442.0" r="10.01"/>
    <circle cx="554.0" cy="434.0" r="10.02"/>
    <circle cx="556.0" cy="425.0" r="10.02"/>
    <circle cx="558.0" cy="417.0" r="10.04"/>
    <circle cx="560.0" cy="410.0" r="10.05"/>
    <circle cx="562.0" cy="402.0" r="10.06"/>
    <circle cx="564.0" cy="394.0" r="10.08"/>
    <circle cx="566.0" cy="387.0" r="10.1"/>
    <circle cx="568.0" cy="380.0" r="10.12"/>
    <circle cx="570.0" cy="373.0" r="10.14"/>
    <circle cx="572.0" cy="366.0" r="10.16"/>
    <circle cx="574.0" cy="359.0" r="10.19"/>
    <circle cx="576.0" cy="352.0" r="10.21"/>
    <circle cx="578.0" cy="345.0" r="10.24"/>
    <circle cx="579.0" cy="339.0" r="10.27"/>
    <circle cx="581.0" cy="333.0" r="10.3"/>
    <circle cx="583.0" cy="326.0" r="10.33"/>
    <circle cx="584.0" cy="320.0" r="10.37"/>
    <circle cx="586.0" cy="314.0" r="10.4"/>
    <circle cx="588.0" cy="309.0" r="10.44"/>
    <circle cx="589.0" cy="303.0" r="10.47"/>
    <circle cx="591.0" cy="298.0" r="10.51"/>
    <circle cx="593.0" cy="292.0" r="10.55"/>
    <circle cx="594.0" cy="287.0" r="10.59"/>
    <circle cx="596.0" cy="282.0" r="10.63"/>
    <circle cx="597.0" cy="277.0" r="10.67"/>
    <circle cx="599.0" cy="272.0" r="10.72"/>
    <circle cx="600.0" cy="268.0" r="10.76"/>
    <circle cx="602.0" cy="263.0" r="10.8"/>
    <circle cx="603.0" cy="259.0" r="10.85"/>
    <circle cx="604.0" cy="254.0" r="10.89"/>
    <circle cx="606.0" cy="250.0" r="10.93"/>
    <circle cx="607.0" cy="246.0" r="10.98"/>
    <circle cx="608.0" cy="242.0" r="11.02"/>
    <circle cx="610.0" cy="239.0" r="11.07"/>
    <circle cx="611.0" cy="235.0" r="11.11"/>
    <circle cx="612.0" cy="232.0" r="11.15"/>
    <circle cx="613.0" cy="228.0" r="11.2"/>
    <circle cx="614.0" cy="225.0" r="11.24"/>
    <circle cx="616.0" cy="222.0" r="11.28"/>
    <circle cx="617.0" cy="219.0" r="11.33"/>
    <circle cx="618.0" cy="217.0" r="11.37"/>
    <circle cx="619.0" cy="214.0" r="11.41"/>
    <circle cx="620.0" cy="212.0" r="11.45"/>
    <circle cx="621.0" cy="209.0" r="11.49"/>
    <circle cx="622.0" cy="207.0" r="11.53"/>
    <circle cx="623.0" cy="205.0" r="11.56"/>
    <circle cx="624.0" cy="203.0" r="11.6"/>
    <circle cx="625.0" cy="201.0" r="11.63"/>
    <circle cx="626.0" cy="200.0" r="11.67"/>
    <circle cx="626.0" cy="198.0" r="11.7"/>
    <circle cx="627.0" cy="197.0" r="11.73"/>
    <circle cx="628.0" cy="196.0" r="11.76"/>
    <circle cx="629.0" cy="194.0" r="11.79"/>
    <circle cx="630.0" cy="193.0" r="11.81"/>
    <circle cx="630.0" cy="193.0" r="11.84"/>
    <circle cx="631.0" cy="192.0" r="11.86"/>
    <circle cx="632.0" cy="191.0" r="11.88"/>
    <circle cx="632.0" cy="191.0" r="11.9"/>
    <circle cx="633.0" cy="191.0" r="11.92"/>
    <circle cx="634.0" cy="191.0" r="11.94"/>
    <circle cx="634.0" cy="191.0" r="11.95"/>
    <circle cx="635.0" cy="191.0" r="11.96"/>
    <circle cx="635.0" cy="191.0" r="11.98"/>
    <circle cx="636.0" cy="192.0" r="11.98"/>
    <circle cx="636.0" cy="192.0" r="11.99"/>
    <circle cx="637.0" cy="193.0" r="12.0"/>
    <circle cx="637.0" cy="194.0" r="12.0"/>
    <circle cx="638.0" cy="195.0" r="12"/>
    <circle cx="639.0" cy="199.0" r="12.25"/>
    <circle cx="641.0" cy="203.0" r="13.0"/>
    <circle cx="642.0" cy="207.0" r="14.23"/>
    <circle cx="643.0" cy="211.0" r="15.9"/>
    <circle cx="645.0" cy="216.0" r="17.97"/>
    <circle cx="646.0" cy="220.0" r="20.38"/>
    <circle cx="647.0" cy="225.0" r="23.07"/>
    <circle cx="648.0" cy="230.0" r="25.96"/>
    <circle cx="649.0" cy="235.0" r="28.97"/>
    <circle cx="651.0" cy="240.0" r="32.03"/>
    <circle cx="652.0" cy="245.0" r="35.04"/>
    <circle cx="653.0" cy="250.0" r="37.93"/>
    <circle cx="654.0" cy="256.0" r="40.62"/>
    <circle cx="655.0" cy="261.0" r="43.03"/>
    <circle cx="655.0" cy="267.0" r="45.1"/>
    <circle cx="656.0" cy="273.0" r="46.77"/>
    <circle cx="657.0" cy="279.0" r="48.0"/>
    <circle cx="658.0" cy="285.0" r="48.75"/>
    <circle cx="658.0" cy="291.0" r="49"/>
    <circle cx="659.0" cy="296.0" r="48.86"/>
    <circle cx="659.0" cy="301.0" r="48.45"/>
    <circle cx="660.0" cy="305.0" r="47.77"/>
    <circle cx="660.0" cy="310.0" r="46.82"/>
    <circle cx="660.0" cy="315.0" r="45.64"/>
    <circle cx="661.0" cy="320.0" r="44.22"/>
    <circle cx="661.0" cy="324.0" r="42.6"/>
    <circle cx="661.0" cy="329.0" r="40.79"/>
    <circle cx="661.0" cy="334.0" r="38.83"/>
    <circle cx="661.0" cy="339.0" r="36.74"/>
    <circle cx="661.0" cy="344.0" r="34.55"/>
    <circle cx="661.0" cy="349.0" r="32.29"/>
    <circle cx="661.0" cy="354.0" r="30.0"/>
    <circle cx="661.0" cy="359.0" r="27.71"/>
    <circle cx="661.0" cy="364.0" r="25.45"/>
    <circle cx="660.0" cy="369.0" r="23.26"/>
    <circle cx="660.0" cy="374.0" r="21.17"/>
    <circle cx="660.0" cy="380.0" r="19.21"/>
    <circle cx="660.0" cy="385.0" r="17.4"/>
    <circle cx="659.0" cy="390.0" r="15.78"/>
    <circle cx="659.0" cy="395.0" r="14.36"/>
    <circle cx="658.0" cy="401.0" r="13.18"/>
    <circle cx="658.0" cy="406.0" r="12.23"/>
    <circle cx="657.0" cy="411.0" r="11.55"/>
    <circle cx="656.0" cy="417.0" r="11.14"/>
    <circle cx="656.0" cy="422.0" r="11"/>
    <circle cx="655.0" cy="428.0" r="11.04"/>
    <circle cx="654.0" cy="433.0" r="11.17"/>
    <circle cx="654.0" cy="439.0" r="11.39"/>
    <circle cx="653.0" cy="445.0" r="11.68"/>
    <circle cx="652.0" cy="450.0" r="12.05"/>
    <circle cx="652.0" cy="455.0" r="12.49"/>
    <circle cx="651.0" cy="461.0" r="12.99"/>
    <circle cx="650.0" cy="466.0" r="13.55"/>
    <circle cx="650.0" cy="471.0" r="14.16"/>
    <circle cx="649.0" cy="476.0" r="14.8"/>
    <circle cx="649.0" cy="482.0" r="15.47"/>
    <circle cx="648.0" cy="487.0" r="16.15"/>
    <circle cx="648.0" cy="492.0" r="16.85"/>
    <circle cx="647.0" cy="497.0" r="17.53"/>
    <circle cx="647.0" cy="502.0" r="18.2"/>
    <circle cx="646.0" cy="506.0" r="18.84"/>
    <circle cx="646.0" cy="511.0" r="19.45"/>
    <circle cx="645.0" cy="516.0" r="20.01"/>
    <circle cx="645.0" cy="521.0" r="20.51"/>
    <circle cx="644.0" cy="525.0" r="20.95"/>
    <circle cx="644.0" cy="530.0" r="21.32"/>
    <circle cx="644.0" cy="535.0" r="21.61"/>
    <circle cx="643.0" cy="539.0" r="21.83"/>
    <circle cx="643.0" cy="544.0" r="21.96"/>
    <circle cx="643.0" cy="548.0" r="22"/>
    <circle cx="643.0" cy="553.0" r="21.96"/>
    <circle cx="642.0" cy="559.0" r="21.83"/>
    <circle cx="642.0" cy="564.0" r="21.62"/>
    <circle cx="642.0" cy="569.0" r="21.33"/>
    <circle cx="642.0" cy="575.0" r="20.97"/>
    <circle cx="642.0" cy="580.0" r="20.56"/>
    <circle cx="642.0" cy="585.0" r="20.09"/>
    <circle cx="642.0" cy="590.0" r="19.58"/>
    <circle cx="643.0" cy="595.0" r="19.05"/>
    <circle cx="643.0" cy="600.0" r="18.5"/>
    <circle cx="643.0" cy="605.0" r="17.95"/>
    <circle cx="644.0" cy="610.0" r="17.42"/>
    <circle cx="644.0" cy="615.0" r="16.91"/>
    <circle cx="645.0" cy="620.0" r="16.44"/>
    <circle cx="645.0" cy="625.0" r="16.03"/>
    <circle cx="646.0" cy="630.0" r="15.67"/>
    <circle cx="647.0" cy="634.0" r="15.38"/>
    <circle cx="648.0" cy="639.0" r="15.17"/>
    <circle cx="649.0" cy="644.0" r="15.04"/>
    <circle cx="650.0" cy="648.0" r="15"/>
    <circle cx="651.0" cy="653.0" r="15.07"/>
    <circle cx="651.0" cy="657.0" r="15.29"/>
    <circle cx="652.0" cy="662.0" r="15.65"/>
    <circle cx="653.0" cy="667.0" r="16.15"/>
    <circle cx="653.0" cy="671.0" r="16.76"/>
    <circle cx="653.0" cy="676.0" r="17.47"/>
    <circle cx="653.0" cy="681.0" r="18.28"/>
    <circle cx="653.0" cy="685.0" r="19.15"/>
    <circle cx="653.0" cy="690.0" r="20.06"/>
    <circle cx="653.0" cy="695.0" r="21.0"/>
    <circle cx="653.0" cy="700.0" r="21.94"/>
    <circle cx="652.0" cy="705.0" r="22.85"/>
    <circle cx="651.0" cy="710.0" r="23.72"/>
    <circle cx="650.0" cy="715.0" r="24.53"/>
    <circle cx="649.0" cy="720.0" r="25.24"/>
    <circle cx="648.0" cy="725.0" r="25.85"/>
    <circle cx="647.0" cy="730.0" r="26.35"/>
    <circle cx="646.0" cy="735.0" r="26.71"/>
    <circle cx="644.0" cy="740.0" r="26.93"/>
    <circle cx="642.0" cy="746.0" r="27"/>
    <circle cx="641.0" cy="748.0" r="27.06"/>
    <circle cx="640.0" cy="751.0" r="27.22"/>
    <circle cx="640.0" cy="754.0" r="27.5"/>
    <circle cx="639.0" cy="756.0" r="27.88"/>
    <circle cx="639.0" cy="758.0" r="28.36"/>
    <circle cx="638.0" cy="759.0" r="28.95"/>
    <circle cx="638.0" cy="761.0" r="29.63"/>
    <circle cx="638.0" cy="762.0" r="30.39"/>
    <circle cx="638.0" cy="762.0" r="31.24"/>
    <circle cx="638.0" cy="763.0" r="32.17"/>
    <circle cx="639.0" cy="763.0" r="33.16"/>
    <circle cx="639.0" cy="763.0" r="34.21"/>
    <circle cx="640.0" cy="763.0" r="35.3"/>
    <circle cx="640.0" cy="763.0" r="36.44"/>
    <circle cx="641.0" cy="762.0" r="37.61"/>
    <circle cx="642.0" cy="761.0" r="38.8"/>
    <circle cx="643.0" cy="759.0" r="40.0"/>
    <circle cx="645.0" cy="758.0" r="41.2"/>
    <circle cx="646.0" cy="756.0" r="42.39"/>
    <circle cx="648.0" cy="754.0" r="43.56"/>
    <circle cx="649.0" cy="752.0" r="44.7"/>
    <circle cx="651.0" cy="749.0" r="45.79"/>
    <circle cx="653.0" cy="746.0" r="46.84"/>
    <circle cx="655.0" cy="743.0" r="47.83"/>
    <circle cx="657.0" cy="739.0" r="48.76"/>
    <circle cx="659.0" cy="736.0" r="49.61"/>
    <circle cx="662.0" cy="732.0" r="50.37"/>
    <circle cx="664.0" cy="728.0" r="51.05"/>
    <circle cx="667.0" cy="723.0" r="51.64"/>
    <circle cx="670.0" cy="718.0" r="52.12"/>
    <circle cx="673.0" cy="713.0" r="52.5"/>
    <circle cx="676.0" cy="708.0" r="52.78"/>
    <circle cx="679.0" cy="703.0" r="52.94"/>
    <circle cx="682.0" cy="697.0" r="53"/>
    <circle cx="685.0" cy="692.0" r="52.96"/>
    <circle cx="687.0" cy="688.0" r="52.83"/>
    <circle cx="690.0" cy="683.0" r="52.61"/>
    <circle cx="692.0" cy="679.0" r="52.31"/>
    <circle cx="695.0" cy="675.0" r="51.93"/>
    <circle cx="697.0" cy="670.0" r="51.47"/>
    <circle cx="700.0" cy="666.0" r="50.93"/>
    <circle cx="702.0" cy="661.0" r="50.31"/>
    <circle cx="704.0" cy="657.0" r="49.61"/>
    <circle cx="707.0" cy="652.0" r="48.85"/>
    <circle cx="709.0" cy="648.0" r="48.02"/>
    <circle cx="711.0" cy="644.0" r="47.13"/>
    <circle cx="714.0" cy="639.0" r="46.18"/>
    <circle cx="716.0" cy="635.0" r="45.17"/>
    <circle cx="718.0" cy="630.0" r="44.11"/>
    <circle cx="720.0" cy="626.0" r="43.01"/>
    <circle cx="723.0" cy="621.0" r="41.87"/>
    <circle cx="725.0" cy="617.0" r="40.7"/>
    <circle cx="727.0" cy="612.0" r="39.49"/>
    <circle cx="729.0" cy="608.0" r="38.26"/>
    <circle cx="731.0" cy="603.0" r="37.02"/>
    <circle cx="734.0" cy="599.0" r="35.76"/>
    <circle cx="736.0" cy="594.0" r="34.5"/>
    <circle cx="738.0" cy="589.0" r="33.24"/>
    <circle cx="740.0" cy="585.0" r="31.98"/>
    <circle cx="742.0" cy="580.0" r="30.74"/>
    <circle cx="744.0" cy="576.0" r="29.51"/>
    <circle cx="746.0" cy="571.0" r="28.3"/>
    <circle cx="748.0" cy="567.0" r="27.13"/>
    <circle cx="750.0" cy="562.0" r="25.99"/>
    <circle cx="752.0" cy="557.0" r="24.89"/>
    <circle cx="754.0" cy="553.0" r="23.83"/>
    <circle cx="756.0" cy="548.0" r="22.82"/>
    <circle cx="758.0" cy="544.0" r="21.87"/>
    <circle cx="760.0" cy="539.0" r="20.98"/>
    <circle cx="762.0" cy="534.0" r="20.15"/>
    <circle cx="763.0" cy="530.0" r="19.39"/>
    <circle cx="765.0" cy="525.0" r="18.69"/>
    <circle cx="767.0" cy="521.0" r="18.07"/>
    <circle cx="769.0" cy="516.0" r="17.53"/>
    <circle cx="771.0" cy="511.0" r="17.07"/>
    <circle cx="772.0" cy="507.0" r="16.69"/>
    <circle cx="774.0" cy="502.0" r="16.39"/>
    <circle cx="776.0" cy="497.0" r="16.17"/>
    <circle cx="778.0" cy="493.0" r="16.04"/>
    <circle cx="779.0" cy="488.0" r="16"/>
    <circle cx="781.0" cy="483.0" r="16.01"/>
    <circle cx="783.0" cy="478.0" r="16.04"/>
    <circle cx="785.0" cy="473.0" r="16.09"/>
    <circle cx="786.0" cy="468.0" r="16.16"/>
    <circle cx="788.0" cy="463.0" r="16.25"/>
    <circle cx="790.0" cy="459.0" r="16.36"/>
    <circle cx="792.0" cy="454.0" r="16.49"/>
    <circle cx="793.0" cy="449.0" r="16.63"/>
    <circle cx="795.0" cy="444.0" r="16.8"/>
    <circle cx="797.0" cy="439.0" r="16.98"/>
    <circle cx="799.0" cy="434.0" r="17.17"/>
    <circle cx="801.0" cy="429.0" r="17.38"/>
    <circle cx="802.0" cy="425.0" r="17.6"/>
    <circle cx="804.0" cy="420.0" r="17.84"/>
    <circle cx="806.0" cy="415.0" r="18.08"/>
    <circle cx="808.0" cy="410.0" r="18.34"/>
    <circle cx="809.0" cy="405.0" r="18.6"/>
    <circle cx="811.0" cy="401.0" r="18.87"/>
    <circle cx="813.0" cy="396.0" r="19.15"/>
    <circle cx="815.0" cy="391.0" r="19.43"/>
    <circle cx="816.0" cy="386.0" r="19.71"/>
    <circle cx="818.0" cy="381.0" r="20.0"/>
    <circle cx="820.0" cy="377.0" r="20.29"/>
    <circle cx="822.0" cy="372.0" r="20.57"/>
    <circle cx="823.0" cy="367.0" r="20.85"/>
    <circle cx="825.0" cy="362.0" r="21.13"/>
    <circle cx="827.0" cy="358.0" r="21.4"/>
    <circle cx="829.0" cy="353.0" r="21.66"/>
    <circle cx="830.0" cy="348.0" r="21.92"/>
    <circle cx="832.0" cy="343.0" r="22.16"/>
    <circle cx="834.0" cy="339.0" r="22.4"/>
    <circle cx="835.0" cy="334.0" r="22.62"/>
    <circle cx="837.0" cy="329.0" r="22.83"/>
    <circle cx="839.0" cy="325.0" r="23.02"/>
    <circle cx="841.0" cy="320.0" r="23.2"/>
    <circle cx="842.0" cy="315.0" r="23.37"/>
    <circle cx="844.0" cy="310.0" r="23.51"/>
    <circle cx="846.0" cy="306.0" r="23.64"/>
    <circle cx="848.0" cy="301.0" r="23.75"/>
    <circle cx="849.0" cy="296.0" r="23.84"/>
    <circle cx="851.0" cy="292.0" r="23.91"/>
    <circle cx="853.0" cy="287.0" r="23.96"/>
    <circle cx="854.0" cy="282.0" r="23.99"/>
    <circle cx="856.0" cy="278.0" r="24"/>
    <circle cx="859.0" cy="271.0" r="23.99"/>
    <circle cx="861.0" cy="264.0" r="23.95"/>
    <circle cx="864.0" cy="258.0" r="23.9"/>
    <circle cx="866.0" cy="252.0" r="23.82"/>
    <circle cx="868.0" cy="247.0" r="23.71"/>
    <circle cx="870.0" cy="242.0" r="23.59"/>
    <circle cx="872.0" cy="237.0" r="23.45"/>
    <circle cx="874.0" cy="232.0" r="23.29"/>
    <circle cx="876.0" cy="228.0" r="23.12"/>
    <circle cx="877.0" cy="224.0" r="22.94"/>
    <circle cx="879.0" cy="221.0" r="22.74"/>
    <circle cx="880.0" cy="218.0" r="22.54"/>
    <circle cx="882.0" cy="215.0" r="22.32"/>
    <circle cx="883.0" cy="212.0" r="22.11"/>
    <circle cx="884.0" cy="210.0" r="21.89"/>
    <circle cx="885.0" cy="208.0" r="21.68"/>
    <circle cx="886.0" cy="207.0" r="21.46"/>
    <circle cx="887.0" cy="206.0" r="21.26"/>
    <circle cx="888.0" cy="205.0" r="21.06"/>
    <circle cx="889.0" cy="205.0" r="20.88"/>
    <circle cx="889.0" cy="205.0" r="20.71"/>
    <circle cx="890.0" cy="205.0" r="20.55"/>
    <circle cx="890.0" cy="205.0" r="20.41"/>
    <circle cx="891.0" cy="206.0" r="20.29"/>
    <circle cx="891.0" cy="208.0" r="20.18"/>
    <circle cx="891.0" cy="209.0" r="20.1"/>
    <circle cx="891.0" cy="211.0" r="20.05"/>
    <circle cx="891.0" cy="213.0" r="20.01"/>
    <circle cx="891.0" cy="216.0" r="20"/>
    <circle cx="890.0" cy="222.0" r="20.46"/>
    <circle cx="889.0" cy="227.0" r="21.83"/>
    <circle cx="889.0" cy="233.0" r="24.04"/>
    <circle cx="888.0" cy="238.0" r="26.97"/>
    <circle cx="887.0" cy="243.0" r="30.47"/>
    <circle cx="885.0" cy="248.0" r="34.38"/>
    <circle cx="884.0" cy="253.0" r="38.5"/>
    <circle cx="883.0" cy="258.0" r="42.62"/>
    <circle cx="881.0" cy="262.0" r="46.53"/>
    <circle cx="879.0" cy="267.0" r="50.03"/>
    <circle cx="877.0" cy="271.0" r="52.96"/>
    <circle cx="876.0" cy="275.0" r="55.17"/>
    <circle cx="873.0" cy="280.0" r="56.54"/>
    <circle cx="871.0" cy="283.0" r="57"/>
    <circle cx="869.0" cy="287.0" r="56.39"/>
    <circle cx="867.0" cy="291.0" r="54.57"/>
    <circle cx="866.0" cy="295.0" r="51.65"/>
    <circle cx="865.0" cy="300.0" r="47.78"/>
    <circle cx="864.0" cy="304.0" r="43.13"/>
    <circle cx="864.0" cy="309.0" r="37.95"/>
    <circle cx="864.0" cy="313.0" r="32.5"/>
    <circle cx="864.0" cy="318.0" r="27.05"/>
    <circle cx="864.0" cy="323.0" r="21.87"/>
    <circle cx="865.0" cy="328.0" r="17.22"/>
    <circle cx="867.0" cy="333.0" r="13.35"/>
    <circle cx="868.0" cy="338.0" r="10.43"/>
    <circle cx="870.0" cy="343.0" r="8.61"/>
    <circle cx="872.0" cy="348.0" r="8"/>
    <circle cx="874.0" cy="353.0" r="8.19"/>
    <circle cx="876.0" cy="357.0" r="8.74"/>
    <circle cx="877.0" cy="362.0" r="9.65"/>
    <circle cx="878.0" cy="366.0" r="10.87"/>
    <circle cx="879.0" cy="371.0" r="12.37"/>
    <circle cx="880.0" cy="375.0" r="14.1"/>
    <circle cx="880.0" cy="380.0" r="15.99"/>
    <circle cx="880.0" cy="384.0" r="17.99"/>
    <circle cx="880.0" cy="389.0" r="20.01"/>
    <circle cx="880.0" cy="393.0" r="22.01"/>
    <circle cx="879.0" cy="398.0" r="23.9"/>
    <circle cx="878.0" cy="403.0" r="25.63"/>
    <circle cx="877.0" cy="407.0" r="27.13"/>
    <circle cx="875.0" cy="412.0" r="28.35"/>
    <circle cx="873.0" cy="416.0" r="29.26"/>
    <circle cx="871.0" cy="421.0" r="29.81"/>
    <circle cx="869.0" cy="425.0" r="30"/>
    <circle cx="867.0" cy="429.0" r="30.09"/>
    <circle cx="865.0" cy="434.0" r="30.37"/>
    <circle cx="863.0" cy="438.0" r="30.82"/>
    <circle cx="861.0" cy="442.0" r="31.43"/>
    <circle cx="860.0" cy="446.0" r="32.2"/>
    <circle cx="858.0" cy="451.0" r="33.09"/>
    <circle cx="857.0" cy="456.0" r="34.1"/>
    <circle cx="855.0" cy="460.0" r="35.18"/>
    <circle cx="854.0" cy="465.0" r="36.33"/>
    <circle cx="853.0" cy="470.0" r="37.5"/>
    <circle cx="852.0" cy="475.0" r="38.67"/>
    <circle cx="851.0" cy="480.0" r="39.82"/>
    <circle cx="850.0" cy="485.0" r="40.9"/>
    <circle cx="849.0" cy="491.0" r="41.91"/>
    <circle cx="849.0" cy="496.0" r="42.8"/>
    <circle cx="848.0" cy="502.0" r="43.57"/>
    <circle cx="847.0" cy="508.0" r="44.18"/>
    <circle cx="847.0" cy="513.0" r="44.63"/>
    <circle cx="847.0" cy="519.0" r="44.91"/>
    <circle cx="846.0" cy="525.0" r="45"/>
    <circle cx="846.0" cy="533.0" r="44.65"/>
    <circle cx="846.0" cy="541.0" r="43.62"/>
    <circle cx="845.0" cy="548.0" r="41.94"/>
    <circle cx="845.0" cy="554.0" r="39.71"/>
    <circle cx="844.0" cy="560.0" r="37.0"/>
    <circle cx="844.0" cy="566.0" r="33.94"/>
    <circle cx="843.0" cy="572.0" r="30.67"/>
    <circle cx="843.0" cy="576.0" r="27.33"/>
    <circle cx="842.0" cy="581.0" r="24.06"/>
    <circle cx="841.0" cy="585.0" r="21.0"/>
    <circle cx="841.0" cy="589.0" r="18.29"/>
    <circle cx="840.0" cy="592.0" r="16.06"/>
    <circle cx="839.0" cy="595.0" r="14.38"/>
    <circle cx="838.0" cy="597.0" r="13.35"/>
    <circle cx="837.0" cy="599.0" r="13"/>
    <circle cx="836.0" cy="601.0" r="13.5"/>
    <circle cx="835.0" cy="604.0" r="14.99"/>
    <circle cx="835.0" cy="607.0" r="17.39"/>
    <circle cx="834.0" cy="610.0" r="20.61"/>
    <circle cx="834.0" cy="614.0" r="24.5"/>
    <circle cx="834.0" cy="618.0" r="28.89"/>
    <circle cx="834.0" cy="623.0" r="33.6"/>
    <circle cx="834.0" cy="628.0" r="38.4"/>
    <circle cx="834.0" cy="633.0" r="43.11"/>
    <circle cx="834.0" cy="639.0" r="47.5"/>
    <circle cx="835.0" cy="646.0" r="51.39"/>
    <circle cx="836.0" cy="653.0" r="54.61"/>
    <circle cx="836.0" cy="660.0" r="57.01"/>
    <circle cx="837.0" cy="668.0" r="58.5"/>
    <circle cx="839.0" cy="676.0" r="59"/>
    <circle cx="839.0" cy="679.0" r="58.97"/>
    <circle cx="839.0" cy="681.0" r="58.89"/>
    <circle cx="840.0" cy="683.0" r="58.76"/>
    <circle cx="840.0" cy="684.0" r="58.58"/>
    <circle cx="841.0" cy="686.0" r="58.34"/>
    <circle cx="842.0" cy="688.0" r="58.06"/>
    <circle cx="842.0" cy="689.0" r="57.72"/>
    <circle cx="843.0" cy="690.0" r="57.34"/>
    <circle cx="844.0" cy="691.0" r="56.91"/>
    <circle cx="845.0" cy="692.0" r="56.43"/>
    <circle cx="846.0" cy="692.0" r="55.91"/>
    <circle cx="846.0" cy="692.0" r="55.35"/>
    <circle cx="847.0" cy="693.0" r="54.75"/>
    <circle cx="848.0" cy="693.0" r="54.12"/>
    <circle cx="850.0" cy="692.0" r="53.44"/>
    <circle cx="851.0" cy="692.0" r="52.74"/>
    <circle cx="852.0" cy="692.0" r="52.0"/>
    <circle cx="853.0" cy="691.0" r="51.24"/>
    <circle cx="854.0" cy="690.0" r="50.45"/>
    <circle cx="856.0" cy="689.0" r="49.64"/>
    <circle cx="857.0" cy="688.0" r="48.81"/>
    <circle cx="859.0" cy="686.0" r="47.97"/>
    <circle cx="860.0" cy="685.0" r="47.11"/>
    <circle cx="862.0" cy="683.0" r="46.25"/>
    <circle cx="863.0" cy="681.0" r="45.38"/>
    <circle cx="865.0" cy="679.0" r="44.5"/>
    <circle cx="866.0" cy="676.0" r="43.62"/>
    <circle cx="868.0" cy="674.0" r="42.75"/>
    <circle cx="870.0" cy="671.0" r="41.89"/>
    <circle cx="872.0" cy="668.0" r="41.03"/>
    <circle cx="874.0" cy="665.0" r="40.19"/>
    <circle cx="876.0" cy="662.0" r="39.36"/>
    <circle cx="878.0" cy="658.0" r="38.55"/>
    <circle cx="880.0" cy="655.0" r="37.76"/>
    <circle cx="882.0" cy="651.0" r="37.0"/>
    <circle cx="884.0" cy="647.0" r="36.26"/>
    <circle cx="886.0" cy="643.0" r="35.56"/>
    <circle cx="888.0" cy="639.0" r="34.88"/>
    <circle cx="891.0" cy="634.0" r="34.25"/>
    <circle cx="893.0" cy="629.0" r="33.65"/>
    <circle cx="895.0" cy="624.0" r="33.09"/>
    <circle cx="898.0" cy="619.0" r="32.57"/>
    <circle cx="900.0" cy="614.0" r="32.09"/>
    <circle cx="903.0" cy="609.0" r="31.66"/>
    <circle cx="905.0" cy="603.0" r="31.28"/>
    <circle cx="908.0" cy="597.0" r="30.94"/>
    <circle cx="911.0" cy="591.0" r="30.66"/>
    <circle cx="913.0" cy="585.0" r="30.42"/>
    <circle cx="916.0" cy="579.0" r="30.24"/>
    <circle cx="919.0" cy="573.0" r="30.11"/>
    <circle cx="922.0" cy="566.0" r="30.03"/>
    <circle cx="925.0" cy="559.0" r="30"/>
    <circle cx="927.0" cy="554.0" r="29.95"/>
    <circle cx="929.0" cy="550.0" r="29.81"/>
    <circle cx="931.0" cy="545.0" r="29.58"/>
    <circle cx="933.0" cy="541.0" r="29.26"/>
    <circle cx="935.0" cy="536.0" r="28.85"/>
    <circle cx="937.0" cy="531.0" r="28.36"/>
    <circle cx="939.0" cy="527.0" r="27.78"/>
    <circle cx="940.0" cy="522.0" r="27.13"/>
    <circle cx="942.0" cy="518.0" r="26.4"/>
    <circle cx="944.0" cy="513.0" r="25.6"/>
    <circle cx="946.0" cy="508.0" r="24.74"/>
    <circle cx="948.0" cy="504.0" r="23.81"/>
    <circle cx="950.0" cy="499.0" r="22.84"/>
    <circle cx="952.0" cy="495.0" r="21.81"/>
    <circle cx="954.0" cy="490.0" r="20.75"/>
    <circle cx="956.0" cy="485.0" r="19.65"/>
    <circle cx="958.0" cy="481.0" r="18.53"/>
    <circle cx="960.0" cy="476.0" r="17.39"/>
    <circle cx="962.0" cy="472.0" r="16.23"/>
    <circle cx="964.0" cy="467.0" r="15.07"/>
    <circle cx="966.0" cy="462.0" r="13.91"/>
    <circle cx="968.0" cy="458.0" r="12.77"/>
    <circle cx="970.0" cy="453.0" r="11.64"/>
    <circle cx="972.0" cy="449.0" r="10.53"/>
    <circle cx="974.0" cy="444.0" r="9.46"/>
    <circle cx="976.0" cy="439.0" r="8.43"/>
    <circle cx="978.0" cy="435.0" r="7.44"/>
    <circle cx="980.0" cy="430.0" r="6.5"/>
    <circle cx="982.0" cy="426.0" r="5.62"/>
    <circle cx="984.0" cy="421.0" r="4.8"/>
    <circle cx="986.0" cy="416.0" r="4.05"/>
    <circle cx="988.0" cy="412.0" r="3.38"/>
    <circle cx="990.0" cy="407.0" r="2.78"/>
    <circle cx="991.0" cy="403.0" r="2.27"/>
    <circle cx="993.0" cy="398.0" r="1.83"/>
    <circle cx="995.0" cy="393.0" r="1.49"/>
    <circle cx="997.0" cy="389.0" r="1.24"/>
    <circle cx="999.0" cy="384.0" r="1.07"/>
    <circle cx="1001.0" cy="380.0" r="1.0"/>
    <circle cx="1002.0" cy="378.0" r="1"/>
    <g stroke="blue">
    </g>
  </g>
</svg>
