<svg version="1.1" width="1150" height="870" xmlns="http://www.w3.org/2000/svg">
  <!-- Seed: 748063167887971523 -->
  <!-- Size: SvgSize.Size9x12 -->
  <!-- Params:
    draw: True
    pad_x: 50
    pad_y: 0
    row_range: [RangeInt] min: 3 max: 10
    col_range: [RangeInt] min: 5 max: 10
    wave_range: 100
    wave_y_range: 30
    step_size: 5
  -->
  <g stroke="black" fill="none">
    <path d="M100.0 820.0Q94.0 746.0 100.0 672.0Q106.0 581.0 100.0 490.0Q94.0 437.0 100.0 383.0Q106.0 292.0 100.0 200.0Q94.0 125.0 100.0 50.0"/>
    <path d="M105.0 50.0Q99.0 125.0 105.0 200.0Q111.0 292.0 105.0 383.0Q99.0 437.0 105.0 490.0Q111.0 581.0 105.0 672.0Q99.0 746.0 105.0 820.0"/>
    <path d="M110.0 820.0Q104.0 746.0 110.0 672.0Q116.0 581.0 110.0 490.0Q104.0 436.0 110.0 383.0Q116.0 292.0 110.0 200.0Q104.0 125.0 110.0 50.0"/>
    <path d="M115.0 50.0Q110.0 125.0 115.0 201.0Q121.0 292.0 115.0 383.0Q109.0 436.0 115.0 490.0Q121.0 581.0 115.0 672.0Q108.0 746.0 115.0 820.0"/>
    <path d="M120.0 820.0Q113.0 746.0 120.0 672.0Q126.0 581.0 120.0 490.0Q114.0 436.0 120.0 382.0Q125.0 291.0 120.0 201.0Q115.0 125.0 120.0 50.0"/>
    <path d="M125.0 50.0Q121.0 125.0 125.0 201.0Q130.0 291.0 125.0 382.0Q119.0 436.0 125.0 490.0Q130.0 581.0 125.0 672.0Q117.0 746.0 125.0 820.0"/>
    <path d="M130.0 820.0Q121.0 746.0 130.0 672.0Q135.0 581.0 130.0 490.0Q125.0 436.0 130.0 381.0Q134.0 291.0 130.0 201.0Q127.0 126.0 130.0 50.0"/>
    <path d="M135.0 50.0Q133.0 126.0 135.0 201.0Q139.0 291.0 135.0 381.0Q130.0 436.0 135.0 490.0Q139.0 582.0 135.0 673.0Q125.0 746.0 135.0 820.0"/>
    <path d="M140.0 820.0Q129.0 746.0 140.0 673.0Q144.0 582.0 140.0 491.0Q135.0 435.0 140.0 380.0Q143.0 291.0 140.0 202.0Q139.0 126.0 140.0 50.0"/>
    <path d="M145.0 50.0Q145.0 126.0 145.0 202.0Q147.0 291.0 145.0 379.0Q140.0 435.0 145.0 491.0Q148.0 582.0 145.0 673.0Q133.0 747.0 145.0 820.0"/>
    <path d="M150.0 820.0Q137.0 747.0 150.0 674.0Q153.0 582.0 150.0 491.0Q146.0 435.0 150.0 378.0Q151.0 290.0 150.0 202.0Q152.0 126.0 150.0 50.0"/>
    <path d="M155.0 50.0Q159.0 126.0 155.0 203.0Q155.0 290.0 155.0 377.0Q151.0 434.0 155.0 491.0Q157.0 582.0 155.0 674.0Q140.0 747.0 155.0 820.0"/>
    <path d="M160.0 820.0Q144.0 747.0 160.0 674.0Q161.0 583.0 160.0 491.0Q157.0 434.0 160.0 376.0Q159.0 290.0 160.0 203.0Q165.0 126.0 160.0 50.0"/>
    <path d="M165.0 50.0Q172.0 127.0 165.0 203.0Q163.0 289.0 165.0 375.0Q162.0 433.0 165.0 491.0Q165.0 583.0 165.0 675.0Q147.0 747.0 165.0 820.0"/>
    <path d="M170.0 820.0Q151.0 748.0 170.0 675.0Q170.0 583.0 170.0 491.0Q168.0 433.0 170.0 374.0Q167.0 289.0 170.0 204.0Q179.0 127.0 170.0 50.0"/>
    <path d="M175.0 50.0Q186.0 127.0 175.0 204.0Q170.0 289.0 175.0 373.0Q173.0 432.0 175.0 492.0Q174.0 584.0 175.0 676.0Q154.0 748.0 175.0 820.0"/>
    <path d="M180.0 820.0Q157.0 748.0 180.0 676.0Q178.0 584.0 180.0 492.0Q179.0 432.0 180.0 372.0Q174.0 288.0 180.0 205.0Q193.0 127.0 180.0 50.0"/>
    <path d="M185.0 50.0Q201.0 128.0 185.0 205.0Q178.0 288.0 185.0 371.0Q184.0 431.0 185.0 492.0Q182.0 584.0 185.0 677.0Q160.0 748.0 185.0 820.0"/>
    <path d="M190.0 820.0Q163.0 749.0 190.0 677.0Q186.0 585.0 190.0 492.0Q190.0 431.0 190.0 369.0Q181.0 288.0 190.0 206.0Q208.0 128.0 190.0 50.0"/>
    <path d="M195.0 50.0Q215.0 128.0 195.0 206.0Q185.0 287.0 195.0 368.0Q196.0 430.0 195.0 492.0Q190.0 585.0 195.0 678.0Q166.0 749.0 195.0 820.0"/>
    <path d="M200.0 820.0Q169.0 749.0 200.0 678.0Q194.0 585.0 200.0 493.0Q201.0 430.0 200.0 367.0Q188.0 287.0 200.0 207.0Q223.0 128.0 200.0 50.0"/>
    <path d="M205.0 50.0Q230.0 129.0 205.0 208.0Q192.0 286.0 205.0 365.0Q207.0 429.0 205.0 493.0Q198.0 586.0 205.0 679.0Q172.0 750.0 205.0 820.0"/>
    <path d="M210.0 820.0Q175.0 750.0 210.0 680.0Q202.0 586.0 210.0 493.0Q212.0 428.0 210.0 364.0Q195.0 286.0 210.0 208.0Q238.0 129.0 210.0 50.0"/>
    <path d="M215.0 50.0Q245.0 129.0 215.0 209.0Q199.0 286.0 215.0 362.0Q218.0 428.0 215.0 493.0Q205.0 587.0 215.0 680.0Q178.0 750.0 215.0 820.0"/>
    <path d="M220.0 820.0Q181.0 750.0 220.0 681.0Q209.0 587.0 220.0 493.0Q224.0 427.0 220.0 361.0Q202.0 285.0 220.0 209.0Q253.0 130.0 220.0 50.0"/>
    <path d="M225.0 50.0Q260.0 130.0 225.0 210.0Q206.0 285.0 225.0 360.0Q229.0 427.0 225.0 494.0Q213.0 587.0 225.0 681.0Q184.0 751.0 225.0 820.0"/>
    <path d="M230.0 820.0Q187.0 751.0 230.0 682.0Q217.0 588.0 230.0 494.0Q235.0 426.0 230.0 358.0Q209.0 284.0 230.0 210.0Q268.0 130.0 230.0 50.0"/>
    <path d="M235.0 50.0Q275.0 130.0 235.0 211.0Q213.0 284.0 235.0 357.0Q240.0 425.0 235.0 494.0Q221.0 588.0 235.0 682.0Q190.0 751.0 235.0 820.0"/>
    <path d="M240.0 820.0Q193.0 752.0 240.0 683.0Q225.0 589.0 240.0 494.0Q246.0 425.0 240.0 356.0Q216.0 283.0 240.0 211.0Q282.0 131.0 240.0 50.0"/>
    <path d="M245.0 50.0Q290.0 131.0 245.0 212.0Q220.0 283.0 245.0 354.0Q252.0 424.0 245.0 494.0Q229.0 589.0 245.0 684.0Q196.0 752.0 245.0 820.0"/>
    <path d="M250.0 820.0Q199.0 752.0 250.0 684.0Q233.0 589.0 250.0 494.0Q257.0 424.0 250.0 353.0Q223.0 283.0 250.0 212.0Q297.0 131.0 250.0 50.0"/>
    <path d="M255.0 50.0Q304.0 131.0 255.0 213.0Q227.0 282.0 255.0 352.0Q263.0 423.0 255.0 495.0Q237.0 590.0 255.0 685.0Q202.0 752.0 255.0 820.0"/>
    <path d="M260.0 820.0Q205.0 753.0 260.0 685.0Q241.0 590.0 260.0 495.0Q268.0 423.0 260.0 351.0Q231.0 282.0 260.0 213.0Q311.0 132.0 260.0 50.0"/>
    <path d="M265.0 50.0Q318.0 132.0 265.0 214.0Q235.0 282.0 265.0 349.0Q274.0 422.0 265.0 495.0Q246.0 590.0 265.0 686.0Q208.0 753.0 265.0 820.0"/>
    <path d="M270.0 820.0Q212.0 753.0 270.0 686.0Q250.0 591.0 270.0 495.0Q279.0 422.0 270.0 348.0Q238.0 281.0 270.0 214.0Q325.0 132.0 270.0 50.0"/>
    <path d="M275.0 50.0Q332.0 132.0 275.0 215.0Q242.0 281.0 275.0 347.0Q285.0 421.0 275.0 495.0Q254.0 591.0 275.0 686.0Q215.0 753.0 275.0 820.0"/>
    <path d="M280.0 820.0Q219.0 753.0 280.0 687.0Q258.0 591.0 280.0 495.0Q290.0 421.0 280.0 347.0Q246.0 281.0 280.0 215.0Q338.0 133.0 280.0 50.0"/>
    <path d="M285.0 50.0Q345.0 133.0 285.0 215.0Q250.0 281.0 285.0 346.0Q296.0 421.0 285.0 496.0Q263.0 591.0 285.0 687.0Q223.0 754.0 285.0 820.0"/>
    <path d="M290.0 820.0Q227.0 754.0 290.0 688.0Q267.0 592.0 290.0 496.0Q301.0 420.0 290.0 345.0Q255.0 280.0 290.0 216.0Q351.0 133.0 290.0 50.0"/>
    <path d="M295.0 50.0Q358.0 133.0 295.0 216.0Q259.0 280.0 295.0 344.0Q306.0 420.0 295.0 496.0Q272.0 592.0 295.0 688.0Q231.0 754.0 295.0 820.0"/>
    <path d="M300.0 820.0Q235.0 754.0 300.0 688.0Q276.0 592.0 300.0 496.0Q311.0 420.0 300.0 344.0Q263.0 280.0 300.0 216.0Q364.0 133.0 300.0 50.0"/>
    <path d="M305.0 50.0Q369.0 133.0 305.0 216.0Q268.0 280.0 305.0 343.0Q317.0 420.0 305.0 496.0Q281.0 592.0 305.0 688.0Q239.0 754.0 305.0 820.0"/>
    <path d="M310.0 820.0Q243.0 754.0 310.0 688.0Q285.0 592.0 310.0 496.0Q322.0 419.0 310.0 343.0Q272.0 280.0 310.0 217.0Q375.0 133.0 310.0 50.0"/>
    <path d="M315.0 50.0Q381.0 133.0 315.0 217.0Q277.0 280.0 315.0 342.0Q327.0 419.0 315.0 496.0Q290.0 592.0 315.0 689.0Q248.0 754.0 315.0 820.0"/>
    <path d="M320.0 820.0Q252.0 754.0 320.0 689.0Q295.0 592.0 320.0 496.0Q332.0 419.0 320.0 342.0Q282.0 279.0 320.0 217.0Q386.0 133.0 320.0 50.0"/>
    <path d="M325.0 50.0Q392.0 133.0 325.0 217.0Q286.0 279.0 325.0 342.0Q337.0 419.0 325.0 496.0Q300.0 592.0 325.0 689.0Q257.0 754.0 325.0 820.0"/>
    <path d="M330.0 820.0Q262.0 754.0 330.0 689.0Q305.0 592.0 330.0 496.0Q342.0 419.0 330.0 342.0Q291.0 279.0 330.0 217.0Q397.0 133.0 330.0 50.0"/>
    <path d="M335.0 50.0Q402.0 133.0 335.0 217.0Q296.0 279.0 335.0 342.0Q347.0 419.0 335.0 496.0Q310.0 592.0 335.0 689.0Q267.0 754.0 335.0 820.0"/>
    <path d="M340.0 820.0Q272.0 754.0 340.0 689.0Q315.0 592.0 340.0 496.0Q352.0 419.0 340.0 342.0Q301.0 279.0 340.0 217.0Q407.0 133.0 340.0 50.0"/>
    <path d="M345.0 50.0Q412.0 133.0 345.0 217.0Q306.0 279.0 345.0 342.0Q358.0 419.0 345.0 496.0Q320.0 592.0 345.0 689.0Q278.0 754.0 345.0 820.0"/>
    <path d="M350.0 820.0Q283.0 754.0 350.0 688.0Q325.0 592.0 350.0 496.0Q363.0 419.0 350.0 342.0Q311.0 279.0 350.0 217.0Q417.0 133.0 350.0 50.0"/>
    <path d="M355.0 50.0Q422.0 133.0 355.0 217.0Q315.0 279.0 355.0 342.0Q368.0 419.0 355.0 496.0Q330.0 592.0 355.0 688.0Q289.0 754.0 355.0 820.0"/>
    <path d="M360.0 820.0Q295.0 754.0 360.0 687.0Q335.0 592.0 360.0 496.0Q374.0 419.0 360.0 342.0Q320.0 279.0 360.0 217.0Q427.0 133.0 360.0 50.0"/>
    <path d="M365.0 50.0Q432.0 133.0 365.0 217.0Q324.0 279.0 365.0 342.0Q380.0 419.0 365.0 497.0Q340.0 592.0 365.0 687.0Q301.0 753.0 365.0 820.0"/>
    <path d="M370.0 820.0Q307.0 753.0 370.0 686.0Q344.0 591.0 370.0 497.0Q386.0 419.0 370.0 341.0Q328.0 279.0 370.0 217.0Q437.0 133.0 370.0 50.0"/>
    <path d="M375.0 50.0Q442.0 133.0 375.0 216.0Q333.0 279.0 375.0 341.0Q392.0 419.0 375.0 497.0Q349.0 591.0 375.0 685.0Q314.0 753.0 375.0 820.0"/>
    <path d="M380.0 820.0Q320.0 752.0 380.0 684.0Q354.0 591.0 380.0 497.0Q398.0 419.0 380.0 341.0Q337.0 279.0 380.0 216.0Q447.0 133.0 380.0 50.0"/>
    <path d="M385.0 50.0Q452.0 133.0 385.0 216.0Q341.0 278.0 385.0 341.0Q404.0 419.0 385.0 498.0Q359.0 590.0 385.0 683.0Q327.0 752.0 385.0 820.0"/>
    <path d="M390.0 820.0Q334.0 751.0 390.0 682.0Q364.0 590.0 390.0 498.0Q411.0 419.0 390.0 341.0Q344.0 278.0 390.0 216.0Q457.0 133.0 390.0 50.0"/>
    <path d="M395.0 50.0Q462.0 133.0 395.0 216.0Q348.0 278.0 395.0 340.0Q417.0 419.0 395.0 498.0Q369.0 590.0 395.0 681.0Q341.0 751.0 395.0 820.0"/>
    <path d="M400.0 820.0Q349.0 750.0 400.0 680.0Q374.0 589.0 400.0 499.0Q424.0 419.0 400.0 340.0Q352.0 278.0 400.0 216.0Q467.0 133.0 400.0 50.0"/>
    <path d="M405.0 50.0Q472.0 133.0 405.0 215.0Q355.0 278.0 405.0 340.0Q431.0 419.0 405.0 499.0Q379.0 589.0 405.0 679.0Q356.0 749.0 405.0 820.0"/>
    <path d="M410.0 820.0Q364.0 749.0 410.0 677.0Q383.0 588.0 410.0 499.0Q437.0 419.0 410.0 340.0Q359.0 277.0 410.0 215.0Q477.0 133.0 410.0 50.0"/>
    <path d="M415.0 50.0Q482.0 132.0 415.0 215.0Q362.0 277.0 415.0 339.0Q444.0 420.0 415.0 500.0Q388.0 588.0 415.0 676.0Q371.0 748.0 415.0 820.0"/>
    <path d="M420.0 820.0Q379.0 747.0 420.0 674.0Q393.0 587.0 420.0 500.0Q451.0 420.0 420.0 339.0Q366.0 277.0 420.0 215.0Q487.0 132.0 420.0 50.0"/>
    <path d="M425.0 50.0Q492.0 132.0 425.0 214.0Q369.0 277.0 425.0 339.0Q458.0 420.0 425.0 501.0Q398.0 587.0 425.0 673.0Q387.0 746.0 425.0 820.0"/>
    <path d="M430.0 820.0Q395.0 746.0 430.0 671.0Q403.0 586.0 430.0 501.0Q465.0 420.0 430.0 338.0Q372.0 276.0 430.0 214.0Q497.0 132.0 430.0 50.0"/>
    <path d="M435.0 50.0Q502.0 132.0 435.0 214.0Q376.0 276.0 435.0 338.0Q472.0 420.0 435.0 501.0Q408.0 585.0 435.0 669.0Q403.0 745.0 435.0 820.0"/>
    <path d="M440.0 820.0Q411.0 744.0 440.0 668.0Q412.0 585.0 440.0 502.0Q479.0 420.0 440.0 338.0Q379.0 276.0 440.0 214.0Q508.0 132.0 440.0 50.0"/>
    <path d="M445.0 50.0Q513.0 132.0 445.0 213.0Q382.0 275.0 445.0 338.0Q487.0 420.0 445.0 502.0Q417.0 584.0 445.0 666.0Q419.0 743.0 445.0 820.0"/>
    <path d="M450.0 820.0Q427.0 742.0 450.0 665.0Q422.0 584.0 450.0 503.0Q494.0 420.0 450.0 337.0Q385.0 275.0 450.0 213.0Q518.0 132.0 450.0 50.0"/>
    <path d="M455.0 50.0Q523.0 131.0 455.0 213.0Q389.0 275.0 455.0 337.0Q501.0 420.0 455.0 503.0Q427.0 583.0 455.0 663.0Q435.0 741.0 455.0 820.0"/>
    <path d="M460.0 820.0Q443.0 741.0 460.0 661.0Q432.0 582.0 460.0 504.0Q508.0 420.0 460.0 337.0Q392.0 275.0 460.0 213.0Q528.0 131.0 460.0 50.0"/>
    <path d="M465.0 50.0Q533.0 131.0 465.0 212.0Q395.0 274.0 465.0 336.0Q515.0 420.0 465.0 504.0Q436.0 582.0 465.0 660.0Q451.0 740.0 465.0 820.0"/>
    <path d="M470.0 820.0Q459.0 739.0 470.0 658.0Q441.0 581.0 470.0 505.0Q522.0 420.0 470.0 336.0Q398.0 274.0 470.0 212.0Q538.0 131.0 470.0 50.0"/>
    <path d="M475.0 50.0Q543.0 131.0 475.0 212.0Q402.0 274.0 475.0 336.0Q529.0 420.0 475.0 505.0Q446.0 581.0 475.0 656.0Q467.0 738.0 475.0 820.0"/>
    <path d="M480.0 820.0Q475.0 737.0 480.0 655.0Q451.0 580.0 480.0 505.0Q536.0 420.0 480.0 335.0Q405.0 273.0 480.0 212.0Q548.0 131.0 480.0 50.0"/>
    <path d="M485.0 50.0Q553.0 131.0 485.0 211.0Q408.0 273.0 485.0 335.0Q543.0 420.0 485.0 506.0Q456.0 580.0 485.0 653.0Q483.0 737.0 485.0 820.0"/>
    <path d="M490.0 820.0Q490.0 736.0 490.0 652.0Q461.0 579.0 490.0 506.0Q550.0 420.0 490.0 335.0Q412.0 273.0 490.0 211.0Q558.0 131.0 490.0 50.0"/>
    <path d="M495.0 50.0Q563.0 131.0 495.0 211.0Q415.0 273.0 495.0 334.0Q557.0 421.0 495.0 507.0Q465.0 579.0 495.0 651.0Q498.0 735.0 495.0 820.0"/>
    <path d="M500.0 820.0Q505.0 735.0 500.0 649.0Q470.0 578.0 500.0 507.0Q564.0 421.0 500.0 334.0Q419.0 273.0 500.0 211.0Q568.0 130.0 500.0 50.0"/>
    <path d="M505.0 50.0Q573.0 130.0 505.0 211.0Q423.0 272.0 505.0 334.0Q570.0 421.0 505.0 507.0Q475.0 578.0 505.0 648.0Q513.0 734.0 505.0 820.0"/>
    <path d="M510.0 820.0Q520.0 733.0 510.0 647.0Q480.0 577.0 510.0 508.0Q577.0 421.0 510.0 334.0Q426.0 272.0 510.0 210.0Q578.0 130.0 510.0 50.0"/>
    <path d="M515.0 50.0Q583.0 130.0 515.0 210.0Q430.0 272.0 515.0 334.0Q583.0 421.0 515.0 508.0Q485.0 577.0 515.0 646.0Q527.0 733.0 515.0 820.0"/>
    <path d="M520.0 820.0Q534.0 732.0 520.0 645.0Q490.0 576.0 520.0 508.0Q590.0 421.0 520.0 333.0Q434.0 272.0 520.0 210.0Q588.0 130.0 520.0 50.0"/>
    <path d="M525.0 50.0Q594.0 130.0 525.0 210.0Q438.0 272.0 525.0 333.0Q596.0 421.0 525.0 508.0Q495.0 576.0 525.0 644.0Q540.0 732.0 525.0 820.0"/>
    <path d="M530.0 820.0Q547.0 732.0 530.0 643.0Q499.0 576.0 530.0 509.0Q602.0 421.0 530.0 333.0Q442.0 271.0 530.0 210.0Q599.0 130.0 530.0 50.0"/>
    <path d="M535.0 50.0Q604.0 130.0 535.0 210.0Q447.0 271.0 535.0 333.0Q608.0 421.0 535.0 509.0Q504.0 576.0 535.0 642.0Q553.0 731.0 535.0 820.0"/>
    <path d="M540.0 820.0Q559.0 731.0 540.0 642.0Q509.0 575.0 540.0 509.0Q614.0 421.0 540.0 333.0Q451.0 271.0 540.0 210.0Q609.0 130.0 540.0 50.0"/>
    <path d="M545.0 50.0Q614.0 130.0 545.0 210.0Q455.0 271.0 545.0 333.0Q619.0 421.0 545.0 509.0Q514.0 575.0 545.0 641.0Q565.0 731.0 545.0 820.0"/>
    <path d="M550.0 820.0Q571.0 730.0 550.0 641.0Q519.0 575.0 550.0 509.0Q625.0 421.0 550.0 333.0Q460.0 271.0 550.0 210.0Q619.0 130.0 550.0 50.0"/>
    <path d="M555.0 50.0Q624.0 130.0 555.0 209.0Q465.0 271.0 555.0 332.0Q630.0 421.0 555.0 509.0Q524.0 575.0 555.0 641.0Q577.0 730.0 555.0 820.0"/>
    <path d="M560.0 820.0Q582.0 730.0 560.0 640.0Q529.0 575.0 560.0 509.0Q635.0 421.0 560.0 332.0Q470.0 271.0 560.0 209.0Q629.0 130.0 560.0 50.0"/>
    <path d="M565.0 50.0Q634.0 130.0 565.0 209.0Q474.0 271.0 565.0 332.0Q640.0 421.0 565.0 509.0Q534.0 575.0 565.0 640.0Q587.0 730.0 565.0 820.0"/>
    <path d="M570.0 820.0Q592.0 730.0 570.0 640.0Q539.0 575.0 570.0 509.0Q645.0 421.0 570.0 332.0Q479.0 271.0 570.0 209.0Q639.0 130.0 570.0 50.0"/>
    <path d="M575.0 50.0Q644.0 130.0 575.0 209.0Q484.0 271.0 575.0 332.0Q650.0 421.0 575.0 509.0Q544.0 575.0 575.0 640.0Q597.0 730.0 575.0 820.0"/>
    <path d="M580.0 820.0Q602.0 730.0 580.0 641.0Q549.0 575.0 580.0 509.0Q655.0 421.0 580.0 333.0Q489.0 271.0 580.0 209.0Q648.0 130.0 580.0 50.0"/>
    <path d="M585.0 50.0Q652.0 130.0 585.0 209.0Q494.0 271.0 585.0 333.0Q659.0 421.0 585.0 509.0Q555.0 575.0 585.0 641.0Q607.0 730.0 585.0 820.0"/>
    <path d="M590.0 820.0Q612.0 731.0 590.0 641.0Q560.0 575.0 590.0 509.0Q663.0 421.0 590.0 333.0Q499.0 271.0 590.0 209.0Q656.0 130.0 590.0 50.0"/>
    <path d="M595.0 50.0Q660.0 130.0 595.0 209.0Q504.0 271.0 595.0 333.0Q667.0 421.0 595.0 509.0Q565.0 576.0 595.0 642.0Q617.0 731.0 595.0 820.0"/>
    <path d="M600.0 820.0Q621.0 731.0 600.0 643.0Q571.0 576.0 600.0 509.0Q670.0 421.0 600.0 333.0Q509.0 271.0 600.0 209.0Q664.0 130.0 600.0 50.0"/>
    <path d="M605.0 50.0Q667.0 129.0 605.0 209.0Q514.0 271.0 605.0 333.0Q673.0 421.0 605.0 509.0Q576.0 576.0 605.0 643.0Q626.0 732.0 605.0 820.0"/>
    <path d="M610.0 820.0Q631.0 732.0 610.0 644.0Q582.0 577.0 610.0 509.0Q676.0 421.0 610.0 334.0Q519.0 271.0 610.0 209.0Q670.0 129.0 610.0 50.0"/>
    <path d="M615.0 50.0Q673.0 129.0 615.0 209.0Q524.0 271.0 615.0 334.0Q678.0 421.0 615.0 509.0Q588.0 577.0 615.0 645.0Q635.0 733.0 615.0 820.0"/>
    <path d="M620.0 820.0Q640.0 733.0 620.0 646.0Q594.0 578.0 620.0 509.0Q681.0 422.0 620.0 334.0Q529.0 271.0 620.0 208.0Q675.0 129.0 620.0 50.0"/>
    <path d="M625.0 50.0Q677.0 129.0 625.0 208.0Q534.0 271.0 625.0 335.0Q683.0 422.0 625.0 509.0Q600.0 578.0 625.0 648.0Q645.0 734.0 625.0 820.0"/>
    <path d="M630.0 820.0Q649.0 735.0 630.0 649.0Q606.0 579.0 630.0 509.0Q684.0 422.0 630.0 335.0Q538.0 272.0 630.0 208.0Q679.0 129.0 630.0 50.0"/>
    <path d="M635.0 50.0Q681.0 129.0 635.0 208.0Q543.0 272.0 635.0 335.0Q686.0 422.0 635.0 509.0Q612.0 580.0 635.0 650.0Q654.0 735.0 635.0 820.0"/>
    <path d="M640.0 820.0Q658.0 736.0 640.0 652.0Q618.0 580.0 640.0 509.0Q687.0 422.0 640.0 336.0Q548.0 272.0 640.0 208.0Q683.0 129.0 640.0 50.0"/>
    <path d="M645.0 50.0Q684.0 129.0 645.0 207.0Q553.0 272.0 645.0 336.0Q689.0 422.0 645.0 509.0Q624.0 581.0 645.0 653.0Q663.0 737.0 645.0 820.0"/>
    <path d="M650.0 820.0Q667.0 738.0 650.0 655.0Q630.0 582.0 650.0 509.0Q690.0 423.0 650.0 337.0Q558.0 272.0 650.0 207.0Q686.0 129.0 650.0 50.0"/>
    <path d="M655.0 50.0Q687.0 128.0 655.0 207.0Q563.0 272.0 655.0 337.0Q691.0 423.0 655.0 508.0Q637.0 583.0 655.0 657.0Q672.0 738.0 655.0 820.0"/>
    <path d="M660.0 820.0Q676.0 739.0 660.0 658.0Q643.0 583.0 660.0 508.0Q691.0 423.0 660.0 338.0Q567.0 272.0 660.0 207.0Q688.0 128.0 660.0 50.0"/>
    <path d="M665.0 50.0Q689.0 128.0 665.0 206.0Q572.0 272.0 665.0 338.0Q692.0 423.0 665.0 508.0Q649.0 584.0 665.0 660.0Q681.0 740.0 665.0 820.0"/>
    <path d="M670.0 820.0Q685.0 741.0 670.0 662.0Q656.0 585.0 670.0 508.0Q693.0 423.0 670.0 339.0Q577.0 272.0 670.0 206.0Q690.0 128.0 670.0 50.0"/>
    <path d="M675.0 50.0Q691.0 128.0 675.0 206.0Q582.0 273.0 675.0 339.0Q693.0 424.0 675.0 508.0Q662.0 586.0 675.0 664.0Q689.0 742.0 675.0 820.0"/>
    <path d="M680.0 820.0Q694.0 743.0 680.0 666.0Q669.0 587.0 680.0 508.0Q694.0 424.0 680.0 340.0Q587.0 273.0 680.0 205.0Q692.0 128.0 680.0 50.0"/>
    <path d="M685.0 50.0Q693.0 128.0 685.0 205.0Q591.0 273.0 685.0 340.0Q694.0 424.0 685.0 508.0Q675.0 588.0 685.0 668.0Q698.0 744.0 685.0 820.0"/>
    <path d="M690.0 820.0Q703.0 745.0 690.0 669.0Q681.0 589.0 690.0 508.0Q695.0 424.0 690.0 341.0Q596.0 273.0 690.0 205.0Q693.0 127.0 690.0 50.0"/>
    <path d="M695.0 50.0Q694.0 127.0 695.0 204.0Q601.0 273.0 695.0 342.0Q695.0 425.0 695.0 508.0Q688.0 589.0 695.0 671.0Q707.0 746.0 695.0 820.0"/>
    <path d="M700.0 820.0Q711.0 747.0 700.0 673.0Q694.0 590.0 700.0 507.0Q696.0 425.0 700.0 342.0Q606.0 273.0 700.0 204.0Q695.0 127.0 700.0 50.0"/>
    <path d="M705.0 50.0Q696.0 127.0 705.0 204.0Q611.0 273.0 705.0 343.0Q697.0 425.0 705.0 507.0Q701.0 591.0 705.0 675.0Q716.0 747.0 705.0 820.0"/>
    <path d="M710.0 820.0Q720.0 748.0 710.0 677.0Q707.0 592.0 710.0 507.0Q697.0 425.0 710.0 343.0Q615.0 273.0 710.0 204.0Q697.0 127.0 710.0 50.0"/>
    <path d="M715.0 50.0Q698.0 127.0 715.0 203.0Q620.0 273.0 715.0 344.0Q698.0 425.0 715.0 507.0Q713.0 593.0 715.0 678.0Q725.0 749.0 715.0 820.0"/>
    <path d="M720.0 820.0Q729.0 750.0 720.0 680.0Q720.0 594.0 720.0 507.0Q699.0 426.0 720.0 344.0Q625.0 274.0 720.0 203.0Q700.0 127.0 720.0 50.0"/>
    <path d="M725.0 50.0Q701.0 126.0 725.0 203.0Q630.0 274.0 725.0 345.0Q700.0 426.0 725.0 507.0Q726.0 594.0 725.0 682.0Q734.0 751.0 725.0 820.0"/>
    <path d="M730.0 820.0Q738.0 752.0 730.0 683.0Q732.0 595.0 730.0 507.0Q701.0 426.0 730.0 345.0Q635.0 274.0 730.0 203.0Q702.0 126.0 730.0 50.0"/>
    <path d="M735.0 50.0Q704.0 126.0 735.0 202.0Q639.0 274.0 735.0 345.0Q703.0 426.0 735.0 507.0Q738.0 596.0 735.0 685.0Q743.0 752.0 735.0 820.0"/>
    <path d="M740.0 820.0Q747.0 753.0 740.0 686.0Q744.0 596.0 740.0 507.0Q704.0 426.0 740.0 346.0Q644.0 274.0 740.0 202.0Q706.0 126.0 740.0 50.0"/>
    <path d="M745.0 50.0Q708.0 126.0 745.0 202.0Q649.0 274.0 745.0 346.0Q706.0 426.0 745.0 507.0Q750.0 597.0 745.0 688.0Q752.0 754.0 745.0 820.0"/>
    <path d="M750.0 820.0Q756.0 754.0 750.0 689.0Q756.0 598.0 750.0 507.0Q708.0 427.0 750.0 347.0Q654.0 274.0 750.0 202.0Q710.0 126.0 750.0 50.0"/>
    <path d="M755.0 50.0Q713.0 126.0 755.0 202.0Q659.0 274.0 755.0 347.0Q710.0 427.0 755.0 507.0Q762.0 598.0 755.0 690.0Q761.0 755.0 755.0 820.0"/>
    <path d="M760.0 820.0Q766.0 755.0 760.0 691.0Q768.0 599.0 760.0 506.0Q713.0 427.0 760.0 347.0Q664.0 274.0 760.0 201.0Q715.0 126.0 760.0 50.0"/>
    <path d="M765.0 50.0Q718.0 126.0 765.0 201.0Q669.0 274.0 765.0 348.0Q716.0 427.0 765.0 506.0Q774.0 599.0 765.0 692.0Q770.0 756.0 765.0 820.0"/>
    <path d="M770.0 820.0Q775.0 756.0 770.0 693.0Q779.0 599.0 770.0 506.0Q719.0 427.0 770.0 348.0Q674.0 274.0 770.0 201.0Q722.0 126.0 770.0 50.0"/>
    <path d="M775.0 50.0Q725.0 126.0 775.0 201.0Q678.0 274.0 775.0 348.0Q722.0 427.0 775.0 506.0Q785.0 600.0 775.0 693.0Q780.0 757.0 775.0 820.0"/>
    <path d="M780.0 820.0Q785.0 757.0 780.0 694.0Q790.0 600.0 780.0 506.0Q726.0 427.0 780.0 348.0Q683.0 275.0 780.0 201.0Q729.0 125.0 780.0 50.0"/>
    <path d="M785.0 50.0Q733.0 125.0 785.0 201.0Q688.0 275.0 785.0 348.0Q730.0 427.0 785.0 506.0Q796.0 600.0 785.0 694.0Q789.0 757.0 785.0 820.0"/>
    <path d="M790.0 820.0Q794.0 757.0 790.0 695.0Q801.0 600.0 790.0 506.0Q734.0 427.0 790.0 348.0Q693.0 275.0 790.0 201.0Q737.0 125.0 790.0 50.0"/>
    <path d="M795.0 50.0Q742.0 125.0 795.0 201.0Q698.0 275.0 795.0 348.0Q738.0 427.0 795.0 506.0Q806.0 601.0 795.0 695.0Q799.0 757.0 795.0 820.0"/>
    <path d="M800.0 820.0Q804.0 757.0 800.0 695.0Q811.0 601.0 800.0 506.0Q743.0 427.0 800.0 348.0Q703.0 275.0 800.0 201.0Q747.0 125.0 800.0 50.0"/>
    <path d="M805.0 50.0Q752.0 125.0 805.0 201.0Q708.0 275.0 805.0 348.0Q748.0 427.0 805.0 506.0Q816.0 601.0 805.0 695.0Q809.0 757.0 805.0 820.0"/>
    <path d="M810.0 820.0Q814.0 757.0 810.0 695.0Q821.0 601.0 810.0 506.0Q753.0 427.0 810.0 348.0Q713.0 275.0 810.0 201.0Q757.0 125.0 810.0 50.0"/>
    <path d="M815.0 50.0Q762.0 125.0 815.0 201.0Q718.0 275.0 815.0 349.0Q759.0 427.0 815.0 506.0Q826.0 601.0 815.0 695.0Q820.0 757.0 815.0 820.0"/>
    <path d="M820.0 820.0Q825.0 757.0 820.0 695.0Q830.0 601.0 820.0 506.0Q765.0 428.0 820.0 349.0Q724.0 275.0 820.0 201.0Q768.0 125.0 820.0 50.0"/>
    <path d="M825.0 50.0Q774.0 125.0 825.0 200.0Q729.0 275.0 825.0 349.0Q771.0 428.0 825.0 507.0Q835.0 601.0 825.0 695.0Q830.0 757.0 825.0 820.0"/>
    <path d="M830.0 820.0Q836.0 757.0 830.0 695.0Q839.0 601.0 830.0 507.0Q777.0 428.0 830.0 349.0Q734.0 275.0 830.0 200.0Q780.0 125.0 830.0 50.0"/>
    <path d="M835.0 50.0Q786.0 125.0 835.0 200.0Q740.0 275.0 835.0 350.0Q783.0 428.0 835.0 507.0Q843.0 601.0 835.0 695.0Q842.0 757.0 835.0 820.0"/>
    <path d="M840.0 820.0Q848.0 757.0 840.0 694.0Q847.0 601.0 840.0 507.0Q790.0 429.0 840.0 350.0Q745.0 275.0 840.0 200.0Q793.0 125.0 840.0 50.0"/>
    <path d="M845.0 50.0Q800.0 125.0 845.0 200.0Q751.0 275.0 845.0 351.0Q797.0 429.0 845.0 508.0Q850.0 601.0 845.0 694.0Q854.0 757.0 845.0 820.0"/>
    <path d="M850.0 820.0Q860.0 757.0 850.0 694.0Q854.0 601.0 850.0 508.0Q804.0 430.0 850.0 352.0Q756.0 275.0 850.0 199.0Q807.0 125.0 850.0 50.0"/>
    <path d="M855.0 50.0Q815.0 124.0 855.0 199.0Q762.0 276.0 855.0 352.0Q812.0 430.0 855.0 508.0Q858.0 601.0 855.0 694.0Q866.0 757.0 855.0 820.0"/>
    <path d="M860.0 820.0Q872.0 757.0 860.0 694.0Q861.0 601.0 860.0 509.0Q820.0 431.0 860.0 353.0Q768.0 276.0 860.0 199.0Q822.0 124.0 860.0 50.0"/>
    <path d="M865.0 50.0Q830.0 124.0 865.0 198.0Q773.0 276.0 865.0 354.0Q828.0 432.0 865.0 509.0Q864.0 602.0 865.0 694.0Q879.0 757.0 865.0 820.0"/>
    <path d="M870.0 820.0Q885.0 757.0 870.0 693.0Q867.0 602.0 870.0 510.0Q836.0 432.0 870.0 355.0Q779.0 276.0 870.0 198.0Q838.0 124.0 870.0 50.0"/>
    <path d="M875.0 50.0Q846.0 124.0 875.0 197.0Q785.0 276.0 875.0 356.0Q844.0 433.0 875.0 510.0Q870.0 602.0 875.0 693.0Q892.0 757.0 875.0 820.0"/>
    <path d="M880.0 820.0Q899.0 757.0 880.0 693.0Q873.0 602.0 880.0 511.0Q852.0 434.0 880.0 357.0Q791.0 277.0 880.0 197.0Q855.0 123.0 880.0 50.0"/>
    <path d="M885.0 50.0Q863.0 123.0 885.0 196.0Q797.0 277.0 885.0 358.0Q861.0 435.0 885.0 512.0Q876.0 602.0 885.0 693.0Q905.0 756.0 885.0 820.0"/>
    <path d="M890.0 820.0Q912.0 756.0 890.0 693.0Q878.0 602.0 890.0 512.0Q870.0 436.0 890.0 359.0Q803.0 277.0 890.0 196.0Q872.0 123.0 890.0 50.0"/>
    <path d="M895.0 50.0Q881.0 123.0 895.0 195.0Q809.0 278.0 895.0 360.0Q879.0 436.0 895.0 513.0Q881.0 603.0 895.0 692.0Q919.0 756.0 895.0 820.0"/>
    <path d="M900.0 820.0Q926.0 756.0 900.0 692.0Q884.0 603.0 900.0 513.0Q887.0 437.0 900.0 361.0Q815.0 278.0 900.0 195.0Q890.0 122.0 900.0 50.0"/>
    <path d="M905.0 50.0Q898.0 122.0 905.0 194.0Q821.0 278.0 905.0 362.0Q896.0 438.0 905.0 514.0Q886.0 603.0 905.0 692.0Q933.0 756.0 905.0 820.0"/>
    <path d="M910.0 820.0Q940.0 756.0 910.0 692.0Q888.0 603.0 910.0 515.0Q906.0 439.0 910.0 363.0Q827.0 278.0 910.0 194.0Q907.0 122.0 910.0 50.0"/>
    <path d="M915.0 50.0Q916.0 122.0 915.0 193.0Q833.0 279.0 915.0 365.0Q915.0 440.0 915.0 515.0Q891.0 603.0 915.0 691.0Q947.0 756.0 915.0 820.0"/>
    <path d="M920.0 820.0Q954.0 756.0 920.0 691.0Q893.0 604.0 920.0 516.0Q924.0 441.0 920.0 366.0Q840.0 279.0 920.0 192.0Q925.0 121.0 920.0 50.0"/>
    <path d="M925.0 50.0Q934.0 121.0 925.0 192.0Q846.0 279.0 925.0 367.0Q933.0 442.0 925.0 517.0Q896.0 604.0 925.0 691.0Q961.0 755.0 925.0 820.0"/>
    <path d="M930.0 820.0Q968.0 755.0 930.0 691.0Q898.0 604.0 930.0 517.0Q942.0 443.0 930.0 368.0Q852.0 280.0 930.0 191.0Q943.0 121.0 930.0 50.0"/>
    <path d="M935.0 50.0Q952.0 120.0 935.0 191.0Q858.0 280.0 935.0 369.0Q951.0 444.0 935.0 518.0Q901.0 604.0 935.0 690.0Q975.0 755.0 935.0 820.0"/>
    <path d="M940.0 820.0Q982.0 755.0 940.0 690.0Q903.0 604.0 940.0 519.0Q960.0 445.0 940.0 370.0Q864.0 280.0 940.0 190.0Q961.0 120.0 940.0 50.0"/>
    <path d="M945.0 50.0Q970.0 120.0 945.0 190.0Q870.0 281.0 945.0 372.0Q969.0 445.0 945.0 519.0Q906.0 605.0 945.0 690.0Q989.0 755.0 945.0 820.0"/>
    <path d="M950.0 820.0Q996.0 755.0 950.0 690.0Q908.0 605.0 950.0 520.0Q978.0 446.0 950.0 373.0Q876.0 281.0 950.0 189.0Q979.0 120.0 950.0 50.0"/>
    <path d="M955.0 50.0Q987.0 119.0 955.0 189.0Q882.0 281.0 955.0 374.0Q987.0 447.0 955.0 521.0Q911.0 605.0 955.0 689.0Q1003.0 755.0 955.0 820.0"/>
    <path d="M960.0 820.0Q1010.0 755.0 960.0 689.0Q914.0 605.0 960.0 521.0Q995.0 448.0 960.0 375.0Q888.0 281.0 960.0 188.0Q996.0 119.0 960.0 50.0"/>
    <path d="M965.0 50.0Q1004.0 119.0 965.0 188.0Q894.0 282.0 965.0 376.0Q1004.0 449.0 965.0 522.0Q917.0 605.0 965.0 689.0Q1017.0 754.0 965.0 820.0"/>
    <path d="M970.0 820.0Q1023.0 754.0 970.0 689.0Q920.0 605.0 970.0 522.0Q1012.0 450.0 970.0 377.0Q900.0 282.0 970.0 187.0Q1013.0 119.0 970.0 50.0"/>
    <path d="M975.0 50.0Q1021.0 118.0 975.0 187.0Q906.0 282.0 975.0 378.0Q1020.0 450.0 975.0 523.0Q923.0 606.0 975.0 688.0Q1030.0 754.0 975.0 820.0"/>
    <path d="M980.0 820.0Q1036.0 754.0 980.0 688.0Q926.0 606.0 980.0 523.0Q1028.0 451.0 980.0 378.0Q911.0 282.0 980.0 186.0Q1028.0 118.0 980.0 50.0"/>
    <path d="M985.0 50.0Q1036.0 118.0 985.0 186.0Q917.0 283.0 985.0 379.0Q1036.0 451.0 985.0 524.0Q929.0 606.0 985.0 688.0Q1043.0 754.0 985.0 820.0"/>
    <path d="M990.0 820.0Q1049.0 754.0 990.0 688.0Q933.0 606.0 990.0 524.0Q1043.0 452.0 990.0 380.0Q923.0 283.0 990.0 186.0Q1043.0 118.0 990.0 50.0"/>
    <path d="M995.0 50.0Q1051.0 118.0 995.0 185.0Q928.0 283.0 995.0 381.0Q1050.0 453.0 995.0 525.0Q936.0 606.0 995.0 688.0Q1055.0 754.0 995.0 820.0"/>
    <path d="M1000.0 820.0Q1061.0 754.0 1000.0 688.0Q940.0 606.0 1000.0 525.0Q1057.0 453.0 1000.0 381.0Q934.0 283.0 1000.0 185.0Q1058.0 118.0 1000.0 50.0"/>
    <path d="M1005.0 50.0Q1064.0 117.0 1005.0 185.0Q939.0 283.0 1005.0 382.0Q1064.0 453.0 1005.0 525.0Q944.0 606.0 1005.0 688.0Q1067.0 754.0 1005.0 820.0"/>
    <path d="M1010.0 820.0Q1072.0 754.0 1010.0 687.0Q948.0 606.0 1010.0 525.0Q1071.0 454.0 1010.0 382.0Q945.0 283.0 1010.0 185.0Q1071.0 117.0 1010.0 50.0"/>
    <path d="M1015.0 50.0Q1077.0 117.0 1015.0 185.0Q950.0 283.0 1015.0 382.0Q1077.0 454.0 1015.0 526.0Q952.0 606.0 1015.0 687.0Q1078.0 754.0 1015.0 820.0"/>
    <path d="M1020.0 820.0Q1084.0 754.0 1020.0 687.0Q957.0 607.0 1020.0 526.0Q1083.0 454.0 1020.0 383.0Q955.0 284.0 1020.0 184.0Q1083.0 117.0 1020.0 50.0"/>
    <path d="M1025.0 50.0Q1089.0 117.0 1025.0 184.0Q961.0 284.0 1025.0 383.0Q1089.0 454.0 1025.0 526.0Q961.0 607.0 1025.0 687.0Q1089.0 754.0 1025.0 820.0"/>
    <path d="M1030.0 820.0Q1094.0 754.0 1030.0 687.0Q966.0 607.0 1030.0 526.0Q1094.0 455.0 1030.0 383.0Q966.0 284.0 1030.0 184.0Q1094.0 117.0 1030.0 50.0"/>
    <path d="M1035.0 50.0Q1099.0 117.0 1035.0 184.0Q971.0 284.0 1035.0 383.0Q1099.0 455.0 1035.0 526.0Q971.0 607.0 1035.0 687.0Q1099.0 754.0 1035.0 820.0"/>
  </g>
</svg>
