<svg version="1.1" width="1150" height="870" xmlns="http://www.w3.org/2000/svg">
  <!-- Seed: 3749742411804450896 -->
  <!-- Size: SvgSize.Size9x12 -->
  <!-- Params:
    draw: True
    pad_x: 50
    pad_y: 0
    row_range: [RangeInt] min: 3 max: 10
    col_range: [RangeInt] min: 5 max: 10
    wave_range: 100
    wave_y_range: 30
    step_size: 5
  -->
  <g stroke="black" fill="none">
    <path d="M100.0 820.0Q167.0 772.0 100.0 724.0Q33.0 686.0 100.0 648.0Q167.0 579.0 100.0 510.0Q33.0 479.0 100.0 447.0Q167.0 402.0 100.0 358.0Q33.0 303.0 100.0 248.0Q167.0 191.0 100.0 135.0Q33.0 92.0 100.0 50.0"/>
    <path d="M105.0 50.0Q39.0 92.0 105.0 135.0Q172.0 191.0 105.0 248.0Q38.0 303.0 105.0 358.0Q171.0 402.0 105.0 447.0Q38.0 479.0 105.0 511.0Q172.0 579.0 105.0 648.0Q39.0 686.0 105.0 724.0Q172.0 772.0 105.0 820.0"/>
    <path d="M110.0 820.0Q177.0 772.0 110.0 724.0Q46.0 686.0 110.0 648.0Q178.0 579.0 110.0 511.0Q43.0 479.0 110.0 447.0Q174.0 402.0 110.0 357.0Q44.0 302.0 110.0 247.0Q176.0 191.0 110.0 135.0Q46.0 93.0 110.0 50.0"/>
    <path d="M115.0 50.0Q54.0 93.0 115.0 136.0Q179.0 192.0 115.0 247.0Q49.0 302.0 115.0 356.0Q174.0 401.0 115.0 447.0Q48.0 480.0 115.0 513.0Q183.0 580.0 115.0 647.0Q54.0 686.0 115.0 725.0Q181.0 772.0 115.0 820.0"/>
    <path d="M120.0 820.0Q186.0 773.0 120.0 726.0Q64.0 686.0 120.0 647.0Q189.0 581.0 120.0 515.0Q53.0 481.0 120.0 447.0Q174.0 401.0 120.0 355.0Q55.0 300.0 120.0 246.0Q181.0 192.0 120.0 138.0Q64.0 94.0 120.0 50.0"/>
    <path d="M125.0 50.0Q75.0 95.0 125.0 139.0Q183.0 192.0 125.0 246.0Q62.0 299.0 125.0 353.0Q171.0 400.0 125.0 447.0Q58.0 482.0 125.0 517.0Q195.0 582.0 125.0 646.0Q74.0 687.0 125.0 727.0Q190.0 774.0 125.0 820.0"/>
    <path d="M130.0 820.0Q194.0 774.0 130.0 729.0Q86.0 687.0 130.0 646.0Q201.0 583.0 130.0 519.0Q63.0 483.0 130.0 446.0Q168.0 399.0 130.0 351.0Q68.0 298.0 130.0 245.0Q184.0 193.0 130.0 141.0Q87.0 95.0 130.0 50.0"/>
    <path d="M135.0 50.0Q100.0 96.0 135.0 143.0Q184.0 193.0 135.0 244.0Q75.0 296.0 135.0 348.0Q163.0 397.0 135.0 446.0Q67.0 484.0 135.0 522.0Q207.0 584.0 135.0 645.0Q99.0 688.0 135.0 731.0Q198.0 775.0 135.0 820.0"/>
    <path d="M140.0 820.0Q203.0 776.0 140.0 732.0Q112.0 688.0 140.0 645.0Q214.0 585.0 140.0 525.0Q72.0 486.0 140.0 446.0Q158.0 396.0 140.0 346.0Q82.0 294.0 140.0 243.0Q185.0 194.0 140.0 145.0Q114.0 98.0 140.0 50.0"/>
    <path d="M145.0 50.0Q128.0 99.0 145.0 147.0Q185.0 195.0 145.0 242.0Q89.0 292.0 145.0 343.0Q152.0 395.0 145.0 446.0Q77.0 487.0 145.0 529.0Q220.0 586.0 145.0 644.0Q126.0 689.0 145.0 734.0Q206.0 777.0 145.0 820.0"/>
    <path d="M150.0 820.0Q210.0 778.0 150.0 736.0Q140.0 690.0 150.0 643.0Q226.0 588.0 150.0 532.0Q82.0 489.0 150.0 446.0Q146.0 393.0 150.0 340.0Q96.0 291.0 150.0 241.0Q185.0 195.0 150.0 150.0Q142.0 100.0 150.0 50.0"/>
    <path d="M155.0 50.0Q157.0 101.0 155.0 152.0Q185.0 196.0 155.0 240.0Q103.0 289.0 155.0 338.0Q140.0 392.0 155.0 446.0Q87.0 491.0 155.0 535.0Q233.0 589.0 155.0 642.0Q153.0 690.0 155.0 738.0Q214.0 779.0 155.0 820.0"/>
    <path d="M160.0 820.0Q218.0 780.0 160.0 740.0Q167.0 691.0 160.0 642.0Q239.0 590.0 160.0 539.0Q92.0 492.0 160.0 446.0Q134.0 391.0 160.0 335.0Q110.0 287.0 160.0 239.0Q185.0 196.0 160.0 154.0Q171.0 102.0 160.0 50.0"/>
    <path d="M165.0 50.0Q184.0 103.0 165.0 157.0Q185.0 197.0 165.0 238.0Q117.0 285.0 165.0 332.0Q129.0 389.0 165.0 446.0Q97.0 494.0 165.0 542.0Q246.0 591.0 165.0 641.0Q180.0 691.0 165.0 742.0Q222.0 781.0 165.0 820.0"/>
    <path d="M170.0 820.0Q227.0 782.0 170.0 744.0Q193.0 692.0 170.0 640.0Q252.0 593.0 170.0 545.0Q102.0 495.0 170.0 446.0Q124.0 388.0 170.0 330.0Q124.0 283.0 170.0 237.0Q186.0 198.0 170.0 159.0Q197.0 104.0 170.0 50.0"/>
    <path d="M175.0 50.0Q209.0 105.0 175.0 160.0Q187.0 198.0 175.0 236.0Q130.0 282.0 175.0 328.0Q121.0 387.0 175.0 446.0Q106.0 497.0 175.0 547.0Q258.0 594.0 175.0 640.0Q205.0 692.0 175.0 745.0Q231.0 783.0 175.0 820.0"/>
    <path d="M180.0 820.0Q235.0 783.0 180.0 746.0Q215.0 693.0 180.0 639.0Q264.0 594.0 180.0 550.0Q111.0 498.0 180.0 446.0Q118.0 386.0 180.0 326.0Q137.0 281.0 180.0 235.0Q189.0 198.0 180.0 162.0Q220.0 106.0 180.0 50.0"/>
    <path d="M185.0 50.0Q230.0 107.0 185.0 163.0Q191.0 199.0 185.0 235.0Q143.0 280.0 185.0 325.0Q118.0 385.0 185.0 446.0Q116.0 499.0 185.0 551.0Q270.0 595.0 185.0 639.0Q225.0 693.0 185.0 747.0Q240.0 784.0 185.0 820.0"/>
    <path d="M190.0 820.0Q244.0 784.0 190.0 748.0Q233.0 693.0 190.0 639.0Q275.0 596.0 190.0 553.0Q121.0 499.0 190.0 446.0Q118.0 385.0 190.0 324.0Q149.0 279.0 190.0 234.0Q194.0 199.0 190.0 164.0Q239.0 107.0 190.0 50.0"/>
    <path d="M195.0 50.0Q246.0 107.0 195.0 165.0Q198.0 199.0 195.0 234.0Q154.0 278.0 195.0 323.0Q121.0 384.0 195.0 446.0Q126.0 500.0 195.0 553.0Q281.0 596.0 195.0 638.0Q241.0 694.0 195.0 749.0Q249.0 784.0 195.0 820.0"/>
    <path d="M200.0 820.0Q254.0 784.0 200.0 749.0Q246.0 694.0 200.0 638.0Q286.0 596.0 200.0 554.0Q131.0 500.0 200.0 446.0Q125.0 384.0 200.0 323.0Q159.0 278.0 200.0 234.0Q203.0 199.0 200.0 165.0Q252.0 107.0 200.0 50.0"/>
    <path d="M205.0 50.0Q257.0 107.0 205.0 165.0Q208.0 199.0 205.0 234.0Q164.0 278.0 205.0 323.0Q130.0 384.0 205.0 446.0Q136.0 500.0 205.0 554.0Q291.0 596.0 205.0 638.0Q251.0 694.0 205.0 749.0Q259.0 784.0 205.0 820.0"/>
    <path d="M210.0 820.0Q263.0 784.0 210.0 749.0Q256.0 694.0 210.0 638.0Q295.0 596.0 210.0 553.0Q142.0 500.0 210.0 446.0Q135.0 384.0 210.0 323.0Q169.0 278.0 210.0 234.0Q213.0 199.0 210.0 165.0Q262.0 107.0 210.0 50.0"/>
    <path d="M215.0 50.0Q267.0 107.0 215.0 164.0Q219.0 199.0 215.0 234.0Q174.0 279.0 215.0 323.0Q142.0 384.0 215.0 445.0Q148.0 499.0 215.0 553.0Q298.0 596.0 215.0 638.0Q262.0 694.0 215.0 749.0Q266.0 784.0 215.0 820.0"/>
    <path d="M220.0 820.0Q268.0 784.0 220.0 749.0Q268.0 693.0 220.0 638.0Q299.0 595.0 220.0 552.0Q156.0 498.0 220.0 445.0Q149.0 384.0 220.0 324.0Q179.0 279.0 220.0 235.0Q225.0 199.0 220.0 163.0Q271.0 107.0 220.0 50.0"/>
    <path d="M225.0 50.0Q276.0 106.0 225.0 162.0Q232.0 199.0 225.0 236.0Q184.0 280.0 225.0 324.0Q157.0 384.0 225.0 444.0Q164.0 497.0 225.0 550.0Q300.0 594.0 225.0 638.0Q275.0 693.0 225.0 749.0Q269.0 784.0 225.0 820.0"/>
    <path d="M230.0 820.0Q269.0 784.0 230.0 749.0Q282.0 693.0 230.0 638.0Q299.0 593.0 230.0 548.0Q173.0 496.0 230.0 443.0Q166.0 384.0 230.0 325.0Q189.0 281.0 230.0 237.0Q239.0 199.0 230.0 161.0Q281.0 106.0 230.0 50.0"/>
    <path d="M235.0 50.0Q286.0 105.0 235.0 160.0Q247.0 199.0 235.0 239.0Q194.0 282.0 235.0 325.0Q176.0 384.0 235.0 442.0Q183.0 494.0 235.0 546.0Q297.0 592.0 235.0 637.0Q289.0 693.0 235.0 749.0Q268.0 784.0 235.0 820.0"/>
    <path d="M240.0 820.0Q266.0 784.0 240.0 749.0Q297.0 693.0 240.0 637.0Q294.0 590.0 240.0 544.0Q194.0 492.0 240.0 441.0Q186.0 384.0 240.0 326.0Q199.0 283.0 240.0 240.0Q255.0 199.0 240.0 158.0Q291.0 104.0 240.0 50.0"/>
    <path d="M245.0 50.0Q296.0 103.0 245.0 156.0Q264.0 199.0 245.0 242.0Q204.0 285.0 245.0 327.0Q196.0 384.0 245.0 440.0Q205.0 490.0 245.0 541.0Q290.0 589.0 245.0 636.0Q305.0 693.0 245.0 749.0Q263.0 784.0 245.0 820.0"/>
    <path d="M250.0 820.0Q261.0 784.0 250.0 749.0Q312.0 692.0 250.0 636.0Q286.0 587.0 250.0 538.0Q216.0 488.0 250.0 439.0Q207.0 383.0 250.0 328.0Q209.0 286.0 250.0 244.0Q272.0 199.0 250.0 155.0Q300.0 102.0 250.0 50.0"/>
    <path d="M255.0 50.0Q305.0 101.0 255.0 153.0Q281.0 199.0 255.0 246.0Q214.0 287.0 255.0 329.0Q218.0 383.0 255.0 437.0Q228.0 486.0 255.0 535.0Q282.0 586.0 255.0 636.0Q320.0 692.0 255.0 749.0Q258.0 784.0 255.0 820.0"/>
    <path d="M260.0 820.0Q254.0 784.0 260.0 748.0Q328.0 692.0 260.0 635.0Q278.0 584.0 260.0 533.0Q240.0 484.0 260.0 436.0Q229.0 383.0 260.0 330.0Q218.0 289.0 260.0 248.0Q290.0 199.0 260.0 151.0Q310.0 100.0 260.0 50.0"/>
    <path d="M265.0 50.0Q315.0 99.0 265.0 149.0Q298.0 199.0 265.0 250.0Q223.0 290.0 265.0 331.0Q240.0 383.0 265.0 434.0Q251.0 482.0 265.0 530.0Q274.0 582.0 265.0 635.0Q336.0 692.0 265.0 748.0Q252.0 784.0 265.0 820.0"/>
    <path d="M270.0 820.0Q249.0 784.0 270.0 748.0Q344.0 691.0 270.0 634.0Q270.0 581.0 270.0 527.0Q262.0 480.0 270.0 433.0Q251.0 383.0 270.0 332.0Q228.0 292.0 270.0 251.0Q307.0 199.0 270.0 147.0Q320.0 99.0 270.0 50.0"/>
    <path d="M275.0 50.0Q324.0 98.0 275.0 146.0Q315.0 199.0 275.0 253.0Q233.0 293.0 275.0 333.0Q261.0 382.0 275.0 432.0Q273.0 478.0 275.0 525.0Q267.0 579.0 275.0 634.0Q352.0 691.0 275.0 748.0Q247.0 784.0 275.0 820.0"/>
    <path d="M280.0 820.0Q246.0 784.0 280.0 748.0Q359.0 691.0 280.0 634.0Q265.0 578.0 280.0 523.0Q283.0 477.0 280.0 431.0Q271.0 382.0 280.0 333.0Q238.0 294.0 280.0 254.0Q323.0 199.0 280.0 144.0Q329.0 97.0 280.0 50.0"/>
    <path d="M285.0 50.0Q334.0 96.0 285.0 143.0Q330.0 199.0 285.0 256.0Q243.0 295.0 285.0 334.0Q280.0 382.0 285.0 430.0Q292.0 475.0 285.0 521.0Q264.0 577.0 285.0 633.0Q366.0 691.0 285.0 748.0Q246.0 784.0 285.0 820.0"/>
    <path d="M290.0 820.0Q247.0 784.0 290.0 748.0Q373.0 691.0 290.0 633.0Q264.0 576.0 290.0 519.0Q300.0 474.0 290.0 429.0Q288.0 382.0 290.0 335.0Q248.0 296.0 290.0 257.0Q337.0 199.0 290.0 142.0Q339.0 96.0 290.0 50.0"/>
    <path d="M295.0 50.0Q344.0 96.0 295.0 141.0Q343.0 199.0 295.0 257.0Q253.0 296.0 295.0 335.0Q295.0 382.0 295.0 429.0Q308.0 474.0 295.0 518.0Q266.0 576.0 295.0 633.0Q379.0 691.0 295.0 748.0Q249.0 784.0 295.0 820.0"/>
    <path d="M300.0 820.0Q252.0 784.0 300.0 748.0Q384.0 690.0 300.0 633.0Q268.0 575.0 300.0 518.0Q314.0 473.0 300.0 429.0Q302.0 382.0 300.0 335.0Q258.0 296.0 300.0 258.0Q349.0 199.0 300.0 141.0Q349.0 95.0 300.0 50.0"/>
    <path d="M305.0 50.0Q354.0 95.0 305.0 141.0Q354.0 199.0 305.0 258.0Q263.0 297.0 305.0 335.0Q307.0 382.0 305.0 428.0Q320.0 473.0 305.0 517.0Q273.0 575.0 305.0 633.0Q390.0 690.0 305.0 748.0Q256.0 784.0 305.0 820.0"/>
    <path d="M310.0 820.0Q261.0 784.0 310.0 748.0Q395.0 690.0 310.0 633.0Q278.0 575.0 310.0 517.0Q325.0 473.0 310.0 428.0Q312.0 382.0 310.0 335.0Q268.0 297.0 310.0 258.0Q359.0 199.0 310.0 141.0Q359.0 95.0 310.0 50.0"/>
    <path d="M315.0 50.0Q364.0 95.0 315.0 141.0Q364.0 199.0 315.0 258.0Q273.0 296.0 315.0 335.0Q317.0 382.0 315.0 428.0Q330.0 473.0 315.0 517.0Q283.0 575.0 315.0 633.0Q399.0 690.0 315.0 748.0Q267.0 784.0 315.0 820.0"/>
    <path d="M320.0 820.0Q274.0 784.0 320.0 748.0Q403.0 690.0 320.0 632.0Q289.0 575.0 320.0 517.0Q334.0 473.0 320.0 428.0Q321.0 382.0 320.0 335.0Q279.0 296.0 320.0 257.0Q366.0 199.0 320.0 140.0Q369.0 95.0 320.0 50.0"/>
    <path d="M325.0 50.0Q375.0 95.0 325.0 140.0Q367.0 198.0 325.0 256.0Q286.0 295.0 325.0 335.0Q325.0 381.0 325.0 428.0Q338.0 472.0 325.0 517.0Q296.0 574.0 325.0 632.0Q406.0 690.0 325.0 748.0Q283.0 784.0 325.0 820.0"/>
    <path d="M330.0 820.0Q294.0 784.0 330.0 748.0Q409.0 689.0 330.0 631.0Q303.0 573.0 330.0 516.0Q341.0 471.0 330.0 427.0Q329.0 381.0 330.0 335.0Q293.0 295.0 330.0 254.0Q367.0 197.0 330.0 139.0Q382.0 95.0 330.0 50.0"/>
    <path d="M335.0 50.0Q388.0 94.0 335.0 139.0Q366.0 195.0 335.0 252.0Q300.0 294.0 335.0 336.0Q332.0 381.0 335.0 426.0Q345.0 471.0 335.0 515.0Q311.0 573.0 335.0 630.0Q411.0 689.0 335.0 748.0Q306.0 784.0 335.0 820.0"/>
    <path d="M340.0 820.0Q318.0 784.0 340.0 748.0Q412.0 688.0 340.0 628.0Q319.0 572.0 340.0 515.0Q347.0 470.0 340.0 425.0Q334.0 380.0 340.0 336.0Q309.0 292.0 340.0 249.0Q363.0 194.0 340.0 138.0Q395.0 94.0 340.0 50.0"/>
    <path d="M345.0 50.0Q402.0 94.0 345.0 137.0Q359.0 192.0 345.0 246.0Q317.0 291.0 345.0 336.0Q337.0 380.0 345.0 424.0Q350.0 469.0 345.0 514.0Q327.0 570.0 345.0 627.0Q413.0 687.0 345.0 748.0Q332.0 784.0 345.0 820.0"/>
    <path d="M350.0 820.0Q347.0 784.0 350.0 748.0Q413.0 687.0 350.0 625.0Q336.0 569.0 350.0 513.0Q352.0 468.0 350.0 423.0Q339.0 379.0 350.0 336.0Q326.0 290.0 350.0 243.0Q355.0 190.0 350.0 136.0Q409.0 93.0 350.0 50.0"/>
    <path d="M355.0 50.0Q416.0 93.0 355.0 136.0Q350.0 188.0 355.0 240.0Q335.0 288.0 355.0 336.0Q342.0 379.0 355.0 421.0Q355.0 467.0 355.0 512.0Q345.0 568.0 355.0 624.0Q414.0 686.0 355.0 748.0Q362.0 784.0 355.0 820.0"/>
    <path d="M360.0 820.0Q377.0 784.0 360.0 748.0Q414.0 685.0 360.0 622.0Q355.0 567.0 360.0 511.0Q357.0 466.0 360.0 420.0Q344.0 378.0 360.0 336.0Q344.0 287.0 360.0 237.0Q345.0 186.0 360.0 135.0Q423.0 92.0 360.0 50.0"/>
    <path d="M365.0 50.0Q430.0 92.0 365.0 134.0Q340.0 184.0 365.0 234.0Q353.0 285.0 365.0 336.0Q346.0 378.0 365.0 419.0Q359.0 464.0 365.0 510.0Q364.0 565.0 365.0 621.0Q414.0 684.0 365.0 747.0Q393.0 784.0 365.0 820.0"/>
    <path d="M370.0 820.0Q408.0 784.0 370.0 747.0Q414.0 683.0 370.0 619.0Q373.0 564.0 370.0 509.0Q361.0 463.0 370.0 417.0Q348.0 377.0 370.0 337.0Q362.0 283.0 370.0 230.0Q336.0 182.0 370.0 133.0Q438.0 91.0 370.0 50.0"/>
    <path d="M375.0 50.0Q445.0 91.0 375.0 132.0Q331.0 180.0 375.0 227.0Q370.0 282.0 375.0 337.0Q350.0 376.0 375.0 416.0Q364.0 462.0 375.0 508.0Q382.0 563.0 375.0 617.0Q415.0 682.0 375.0 747.0Q422.0 784.0 375.0 820.0"/>
    <path d="M380.0 820.0Q436.0 784.0 380.0 747.0Q416.0 682.0 380.0 616.0Q390.0 562.0 380.0 507.0Q366.0 461.0 380.0 415.0Q353.0 376.0 380.0 337.0Q379.0 281.0 380.0 224.0Q328.0 178.0 380.0 131.0Q452.0 91.0 380.0 50.0"/>
    <path d="M385.0 50.0Q458.0 90.0 385.0 130.0Q325.0 176.0 385.0 222.0Q387.0 279.0 385.0 337.0Q356.0 375.0 385.0 414.0Q369.0 460.0 385.0 507.0Q399.0 561.0 385.0 615.0Q417.0 681.0 385.0 747.0Q449.0 784.0 385.0 820.0"/>
    <path d="M390.0 820.0Q461.0 784.0 390.0 747.0Q419.0 680.0 390.0 614.0Q406.0 560.0 390.0 506.0Q372.0 460.0 390.0 413.0Q359.0 375.0 390.0 337.0Q394.0 278.0 390.0 220.0Q324.0 175.0 390.0 130.0Q465.0 90.0 390.0 50.0"/>
    <path d="M395.0 50.0Q471.0 90.0 395.0 129.0Q323.0 174.0 395.0 218.0Q402.0 278.0 395.0 337.0Q362.0 375.0 395.0 412.0Q376.0 459.0 395.0 506.0Q414.0 559.0 395.0 613.0Q421.0 680.0 395.0 747.0Q471.0 784.0 395.0 820.0"/>
    <path d="M400.0 820.0Q480.0 783.0 400.0 747.0Q425.0 680.0 400.0 612.0Q420.0 559.0 400.0 505.0Q380.0 459.0 400.0 412.0Q366.0 375.0 400.0 337.0Q408.0 277.0 400.0 217.0Q324.0 173.0 400.0 129.0Q477.0 89.0 400.0 50.0"/>
    <path d="M405.0 50.0Q482.0 89.0 405.0 129.0Q327.0 172.0 405.0 216.0Q414.0 277.0 405.0 337.0Q370.0 374.0 405.0 412.0Q384.0 458.0 405.0 505.0Q426.0 558.0 405.0 612.0Q428.0 679.0 405.0 747.0Q488.0 783.0 405.0 820.0"/>
    <path d="M410.0 820.0Q493.0 783.0 410.0 747.0Q433.0 679.0 410.0 612.0Q431.0 558.0 410.0 505.0Q389.0 458.0 410.0 411.0Q375.0 374.0 410.0 337.0Q419.0 277.0 410.0 216.0Q331.0 172.0 410.0 129.0Q488.0 89.0 410.0 50.0"/>
    <path d="M415.0 50.0Q493.0 89.0 415.0 129.0Q336.0 172.0 415.0 216.0Q424.0 277.0 415.0 337.0Q380.0 374.0 415.0 411.0Q394.0 458.0 415.0 505.0Q436.0 558.0 415.0 612.0Q438.0 679.0 415.0 747.0Q498.0 783.0 415.0 820.0"/>
    <path d="M420.0 820.0Q503.0 783.0 420.0 747.0Q443.0 679.0 420.0 612.0Q441.0 558.0 420.0 505.0Q399.0 458.0 420.0 411.0Q386.0 374.0 420.0 337.0Q429.0 276.0 420.0 216.0Q342.0 172.0 420.0 129.0Q497.0 89.0 420.0 50.0"/>
    <path d="M425.0 50.0Q500.0 89.0 425.0 129.0Q349.0 172.0 425.0 216.0Q434.0 276.0 425.0 337.0Q391.0 374.0 425.0 411.0Q404.0 459.0 425.0 506.0Q446.0 559.0 425.0 611.0Q447.0 679.0 425.0 747.0Q506.0 783.0 425.0 820.0"/>
    <path d="M430.0 820.0Q509.0 783.0 430.0 747.0Q452.0 679.0 430.0 611.0Q450.0 559.0 430.0 507.0Q409.0 459.0 430.0 412.0Q398.0 374.0 430.0 336.0Q439.0 276.0 430.0 217.0Q358.0 173.0 430.0 129.0Q501.0 90.0 430.0 50.0"/>
    <path d="M435.0 50.0Q501.0 90.0 435.0 129.0Q368.0 173.0 435.0 217.0Q443.0 276.0 435.0 335.0Q405.0 373.0 435.0 412.0Q413.0 460.0 435.0 509.0Q453.0 560.0 435.0 611.0Q456.0 679.0 435.0 747.0Q510.0 783.0 435.0 820.0"/>
    <path d="M440.0 820.0Q510.0 783.0 440.0 747.0Q459.0 679.0 440.0 610.0Q456.0 561.0 440.0 511.0Q418.0 461.0 440.0 412.0Q412.0 373.0 440.0 333.0Q447.0 276.0 440.0 218.0Q379.0 174.0 440.0 130.0Q500.0 90.0 440.0 50.0"/>
    <path d="M445.0 50.0Q497.0 90.0 445.0 130.0Q391.0 175.0 445.0 219.0Q452.0 276.0 445.0 332.0Q419.0 372.0 445.0 412.0Q423.0 462.0 445.0 513.0Q459.0 561.0 445.0 610.0Q463.0 678.0 445.0 747.0Q510.0 783.0 445.0 820.0"/>
    <path d="M450.0 820.0Q509.0 783.0 450.0 747.0Q466.0 678.0 450.0 609.0Q462.0 563.0 450.0 516.0Q427.0 464.0 450.0 412.0Q428.0 371.0 450.0 330.0Q456.0 275.0 450.0 221.0Q404.0 176.0 450.0 131.0Q494.0 91.0 450.0 50.0"/>
    <path d="M455.0 50.0Q490.0 91.0 455.0 132.0Q418.0 177.0 455.0 222.0Q460.0 275.0 455.0 328.0Q436.0 370.0 455.0 412.0Q432.0 465.0 455.0 519.0Q464.0 564.0 455.0 609.0Q469.0 678.0 455.0 747.0Q508.0 783.0 455.0 820.0"/>
    <path d="M460.0 820.0Q506.0 783.0 460.0 746.0Q472.0 677.0 460.0 608.0Q466.0 565.0 460.0 522.0Q437.0 467.0 460.0 412.0Q444.0 369.0 460.0 326.0Q464.0 275.0 460.0 223.0Q432.0 178.0 460.0 132.0Q486.0 91.0 460.0 50.0"/>
    <path d="M465.0 50.0Q482.0 92.0 465.0 133.0Q447.0 179.0 465.0 225.0Q468.0 274.0 465.0 324.0Q453.0 368.0 465.0 412.0Q441.0 468.0 465.0 525.0Q468.0 566.0 465.0 608.0Q475.0 677.0 465.0 746.0Q504.0 783.0 465.0 820.0"/>
    <path d="M470.0 820.0Q502.0 783.0 470.0 746.0Q478.0 677.0 470.0 607.0Q470.0 567.0 470.0 528.0Q446.0 470.0 470.0 412.0Q461.0 367.0 470.0 322.0Q472.0 274.0 470.0 226.0Q461.0 180.0 470.0 134.0Q477.0 92.0 470.0 50.0"/>
    <path d="M475.0 50.0Q473.0 92.0 475.0 134.0Q476.0 181.0 475.0 227.0Q476.0 274.0 475.0 320.0Q470.0 366.0 475.0 412.0Q451.0 471.0 475.0 531.0Q473.0 569.0 475.0 606.0Q482.0 676.0 475.0 746.0Q500.0 783.0 475.0 820.0"/>
    <path d="M480.0 820.0Q499.0 783.0 480.0 746.0Q485.0 676.0 480.0 606.0Q475.0 570.0 480.0 534.0Q455.0 473.0 480.0 412.0Q478.0 365.0 480.0 318.0Q480.0 274.0 480.0 229.0Q489.0 182.0 480.0 135.0Q469.0 93.0 480.0 50.0"/>
    <path d="M485.0 50.0Q466.0 93.0 485.0 136.0Q503.0 183.0 485.0 230.0Q484.0 273.0 485.0 317.0Q486.0 364.0 485.0 412.0Q460.0 474.0 485.0 536.0Q478.0 571.0 485.0 605.0Q488.0 676.0 485.0 746.0Q498.0 783.0 485.0 820.0"/>
    <path d="M490.0 820.0Q497.0 783.0 490.0 746.0Q492.0 675.0 490.0 605.0Q480.0 572.0 490.0 539.0Q465.0 475.0 490.0 412.0Q494.0 364.0 490.0 315.0Q488.0 273.0 490.0 231.0Q515.0 183.0 490.0 136.0Q464.0 93.0 490.0 50.0"/>
    <path d="M495.0 50.0Q462.0 93.0 495.0 137.0Q526.0 184.0 495.0 232.0Q492.0 273.0 495.0 314.0Q501.0 363.0 495.0 412.0Q469.0 476.0 495.0 541.0Q484.0 573.0 495.0 604.0Q495.0 675.0 495.0 746.0Q498.0 783.0 495.0 820.0"/>
    <path d="M500.0 820.0Q499.0 783.0 500.0 746.0Q499.0 675.0 500.0 604.0Q487.0 573.0 500.0 542.0Q474.0 477.0 500.0 412.0Q508.0 362.0 500.0 313.0Q497.0 273.0 500.0 232.0Q536.0 185.0 500.0 137.0Q462.0 94.0 500.0 50.0"/>
    <path d="M505.0 50.0Q464.0 94.0 505.0 137.0Q545.0 185.0 505.0 233.0Q501.0 272.0 505.0 312.0Q514.0 362.0 505.0 412.0Q479.0 478.0 505.0 543.0Q491.0 574.0 505.0 604.0Q503.0 675.0 505.0 746.0Q501.0 783.0 505.0 820.0"/>
    <path d="M510.0 820.0Q505.0 783.0 510.0 746.0Q508.0 675.0 510.0 604.0Q495.0 574.0 510.0 544.0Q484.0 478.0 510.0 412.0Q520.0 362.0 510.0 312.0Q506.0 272.0 510.0 233.0Q552.0 185.0 510.0 137.0Q467.0 94.0 510.0 50.0"/>
    <path d="M515.0 50.0Q471.0 94.0 515.0 138.0Q558.0 185.0 515.0 233.0Q511.0 272.0 515.0 311.0Q525.0 362.0 515.0 412.0Q489.0 478.0 515.0 544.0Q500.0 574.0 515.0 604.0Q513.0 675.0 515.0 746.0Q509.0 783.0 515.0 820.0"/>
    <path d="M520.0 820.0Q514.0 783.0 520.0 746.0Q518.0 675.0 520.0 604.0Q505.0 574.0 520.0 544.0Q494.0 478.0 520.0 412.0Q530.0 362.0 520.0 311.0Q516.0 272.0 520.0 233.0Q563.0 185.0 520.0 138.0Q476.0 94.0 520.0 50.0"/>
    <path d="M525.0 50.0Q481.0 94.0 525.0 138.0Q567.0 185.0 525.0 233.0Q521.0 272.0 525.0 312.0Q535.0 362.0 525.0 412.0Q499.0 478.0 525.0 545.0Q510.0 574.0 525.0 604.0Q523.0 675.0 525.0 746.0Q520.0 783.0 525.0 820.0"/>
    <path d="M530.0 820.0Q526.0 783.0 530.0 746.0Q527.0 675.0 530.0 605.0Q515.0 575.0 530.0 545.0Q504.0 479.0 530.0 413.0Q540.0 363.0 530.0 312.0Q528.0 273.0 530.0 233.0Q570.0 186.0 530.0 138.0Q487.0 94.0 530.0 50.0"/>
    <path d="M535.0 50.0Q494.0 94.0 535.0 139.0Q572.0 186.0 535.0 233.0Q536.0 273.0 535.0 314.0Q546.0 364.0 535.0 415.0Q510.0 480.0 535.0 545.0Q520.0 576.0 535.0 606.0Q532.0 676.0 535.0 745.0Q533.0 783.0 535.0 820.0"/>
    <path d="M540.0 820.0Q541.0 782.0 540.0 745.0Q536.0 676.0 540.0 608.0Q524.0 577.0 540.0 546.0Q515.0 481.0 540.0 417.0Q551.0 366.0 540.0 315.0Q544.0 274.0 540.0 232.0Q573.0 186.0 540.0 140.0Q502.0 95.0 540.0 50.0"/>
    <path d="M545.0 50.0Q511.0 96.0 545.0 141.0Q572.0 186.0 545.0 231.0Q554.0 274.0 545.0 317.0Q556.0 368.0 545.0 419.0Q521.0 483.0 545.0 546.0Q529.0 578.0 545.0 610.0Q540.0 677.0 545.0 744.0Q549.0 782.0 545.0 820.0"/>
    <path d="M550.0 820.0Q558.0 782.0 550.0 744.0Q544.0 678.0 550.0 613.0Q533.0 580.0 550.0 547.0Q526.0 484.0 550.0 422.0Q562.0 371.0 550.0 320.0Q564.0 275.0 550.0 230.0Q571.0 186.0 550.0 142.0Q520.0 96.0 550.0 50.0"/>
    <path d="M555.0 50.0Q529.0 97.0 555.0 144.0Q569.0 187.0 555.0 229.0Q575.0 276.0 555.0 323.0Q567.0 374.0 555.0 425.0Q532.0 486.0 555.0 547.0Q538.0 582.0 555.0 616.0Q548.0 680.0 555.0 743.0Q568.0 782.0 555.0 820.0"/>
    <path d="M560.0 820.0Q578.0 781.0 560.0 743.0Q552.0 681.0 560.0 619.0Q542.0 584.0 560.0 548.0Q538.0 489.0 560.0 429.0Q572.0 377.0 560.0 326.0Q586.0 277.0 560.0 228.0Q566.0 187.0 560.0 146.0Q539.0 98.0 560.0 50.0"/>
    <path d="M565.0 50.0Q550.0 99.0 565.0 148.0Q563.0 187.0 565.0 227.0Q598.0 278.0 565.0 329.0Q578.0 381.0 565.0 433.0Q544.0 491.0 565.0 549.0Q547.0 586.0 565.0 623.0Q555.0 682.0 565.0 742.0Q588.0 781.0 565.0 820.0"/>
    <path d="M570.0 820.0Q599.0 781.0 570.0 741.0Q559.0 684.0 570.0 626.0Q551.0 588.0 570.0 550.0Q550.0 493.0 570.0 437.0Q583.0 384.0 570.0 332.0Q609.0 279.0 570.0 226.0Q560.0 188.0 570.0 149.0Q560.0 100.0 570.0 50.0"/>
    <path d="M575.0 50.0Q570.0 101.0 575.0 151.0Q557.0 188.0 575.0 225.0Q621.0 280.0 575.0 335.0Q589.0 388.0 575.0 441.0Q556.0 496.0 575.0 551.0Q555.0 590.0 575.0 630.0Q562.0 685.0 575.0 741.0Q609.0 780.0 575.0 820.0"/>
    <path d="M580.0 820.0Q619.0 780.0 580.0 740.0Q566.0 686.0 580.0 633.0Q560.0 592.0 580.0 552.0Q562.0 498.0 580.0 444.0Q594.0 391.0 580.0 338.0Q633.0 281.0 580.0 224.0Q554.0 188.0 580.0 153.0Q581.0 102.0 580.0 50.0"/>
    <path d="M585.0 50.0Q590.0 102.0 585.0 155.0Q551.0 189.0 585.0 223.0Q644.0 282.0 585.0 341.0Q600.0 394.0 585.0 448.0Q568.0 500.0 585.0 552.0Q564.0 594.0 585.0 636.0Q570.0 688.0 585.0 739.0Q629.0 780.0 585.0 820.0"/>
    <path d="M590.0 820.0Q639.0 779.0 590.0 739.0Q573.0 689.0 590.0 639.0Q569.0 596.0 590.0 553.0Q574.0 502.0 590.0 451.0Q605.0 398.0 590.0 344.0Q655.0 283.0 590.0 222.0Q549.0 189.0 590.0 156.0Q600.0 103.0 590.0 50.0"/>
    <path d="M595.0 50.0Q609.0 104.0 595.0 158.0Q548.0 189.0 595.0 221.0Q665.0 284.0 595.0 346.0Q611.0 400.0 595.0 454.0Q580.0 504.0 595.0 554.0Q573.0 598.0 595.0 642.0Q577.0 690.0 595.0 738.0Q648.0 779.0 595.0 820.0"/>
    <path d="M600.0 820.0Q656.0 779.0 600.0 738.0Q581.0 691.0 600.0 644.0Q578.0 599.0 600.0 554.0Q586.0 505.0 600.0 457.0Q616.0 402.0 600.0 348.0Q674.0 284.0 600.0 220.0Q548.0 190.0 600.0 159.0Q618.0 104.0 600.0 50.0"/>
    <path d="M605.0 50.0Q625.0 105.0 605.0 160.0Q548.0 190.0 605.0 220.0Q683.0 285.0 605.0 350.0Q621.0 404.0 605.0 459.0Q591.0 507.0 605.0 555.0Q582.0 601.0 605.0 646.0Q586.0 692.0 605.0 737.0Q664.0 779.0 605.0 820.0"/>
    <path d="M610.0 820.0Q671.0 778.0 610.0 737.0Q590.0 692.0 610.0 648.0Q587.0 601.0 610.0 555.0Q597.0 508.0 610.0 460.0Q627.0 406.0 610.0 351.0Q691.0 285.0 610.0 219.0Q550.0 190.0 610.0 161.0Q632.0 105.0 610.0 50.0"/>
    <path d="M615.0 50.0Q639.0 106.0 615.0 161.0Q553.0 190.0 615.0 219.0Q697.0 286.0 615.0 352.0Q632.0 407.0 615.0 461.0Q602.0 508.0 615.0 555.0Q592.0 602.0 615.0 648.0Q595.0 693.0 615.0 737.0Q678.0 778.0 615.0 820.0"/>
    <path d="M620.0 820.0Q683.0 778.0 620.0 737.0Q600.0 693.0 620.0 649.0Q597.0 602.0 620.0 555.0Q607.0 508.0 620.0 461.0Q637.0 407.0 620.0 352.0Q703.0 286.0 620.0 219.0Q558.0 190.0 620.0 161.0Q644.0 106.0 620.0 50.0"/>
    <path d="M625.0 50.0Q649.0 106.0 625.0 161.0Q563.0 190.0 625.0 219.0Q708.0 286.0 625.0 352.0Q642.0 407.0 625.0 461.0Q612.0 508.0 625.0 555.0Q602.0 602.0 625.0 649.0Q605.0 693.0 625.0 737.0Q688.0 778.0 625.0 820.0"/>
    <path d="M630.0 820.0Q693.0 778.0 630.0 736.0Q610.0 693.0 630.0 649.0Q607.0 602.0 630.0 555.0Q617.0 508.0 630.0 461.0Q647.0 407.0 630.0 352.0Q712.0 286.0 630.0 219.0Q568.0 190.0 630.0 161.0Q654.0 106.0 630.0 50.0"/>
    <path d="M635.0 50.0Q660.0 105.0 635.0 161.0Q576.0 190.0 635.0 220.0Q717.0 286.0 635.0 352.0Q653.0 406.0 635.0 461.0Q622.0 508.0 635.0 555.0Q613.0 602.0 635.0 649.0Q616.0 692.0 635.0 736.0Q697.0 778.0 635.0 820.0"/>
    <path d="M640.0 820.0Q702.0 777.0 640.0 735.0Q622.0 692.0 640.0 649.0Q620.0 601.0 640.0 554.0Q627.0 507.0 640.0 460.0Q660.0 406.0 640.0 352.0Q721.0 287.0 640.0 222.0Q584.0 191.0 640.0 160.0Q666.0 105.0 640.0 50.0"/>
    <path d="M645.0 50.0Q673.0 104.0 645.0 159.0Q595.0 191.0 645.0 224.0Q724.0 288.0 645.0 352.0Q668.0 405.0 645.0 459.0Q632.0 506.0 645.0 553.0Q627.0 601.0 645.0 649.0Q629.0 691.0 645.0 733.0Q706.0 776.0 645.0 820.0"/>
    <path d="M650.0 820.0Q709.0 775.0 650.0 731.0Q637.0 690.0 650.0 649.0Q634.0 600.0 650.0 551.0Q637.0 504.0 650.0 457.0Q676.0 405.0 650.0 352.0Q727.0 289.0 650.0 226.0Q606.0 192.0 650.0 158.0Q680.0 104.0 650.0 50.0"/>
    <path d="M655.0 50.0Q687.0 103.0 655.0 156.0Q618.0 193.0 655.0 230.0Q730.0 291.0 655.0 352.0Q685.0 404.0 655.0 456.0Q642.0 503.0 655.0 549.0Q642.0 599.0 655.0 649.0Q645.0 689.0 655.0 729.0Q713.0 774.0 655.0 820.0"/>
    <path d="M660.0 820.0Q716.0 773.0 660.0 726.0Q653.0 688.0 660.0 649.0Q651.0 598.0 660.0 547.0Q647.0 501.0 660.0 454.0Q695.0 403.0 660.0 352.0Q732.0 293.0 660.0 233.0Q632.0 194.0 660.0 154.0Q695.0 102.0 660.0 50.0"/>
    <path d="M665.0 50.0Q703.0 101.0 665.0 153.0Q646.0 195.0 665.0 237.0Q734.0 294.0 665.0 352.0Q704.0 402.0 665.0 452.0Q652.0 499.0 665.0 545.0Q659.0 597.0 665.0 650.0Q662.0 686.0 665.0 723.0Q719.0 772.0 665.0 820.0"/>
    <path d="M670.0 820.0Q722.0 770.0 670.0 720.0Q671.0 685.0 670.0 650.0Q668.0 596.0 670.0 543.0Q657.0 496.0 670.0 450.0Q715.0 401.0 670.0 352.0Q736.0 296.0 670.0 241.0Q660.0 196.0 670.0 151.0Q711.0 100.0 670.0 50.0"/>
    <path d="M675.0 50.0Q719.0 99.0 675.0 149.0Q675.0 197.0 675.0 245.0Q738.0 298.0 675.0 352.0Q725.0 400.0 675.0 448.0Q662.0 494.0 675.0 541.0Q677.0 595.0 675.0 650.0Q679.0 683.0 675.0 717.0Q725.0 768.0 675.0 820.0"/>
    <path d="M680.0 820.0Q728.0 767.0 680.0 714.0Q688.0 682.0 680.0 650.0Q686.0 594.0 680.0 538.0Q667.0 492.0 680.0 446.0Q735.0 399.0 680.0 352.0Q740.0 300.0 680.0 249.0Q690.0 198.0 680.0 147.0Q727.0 98.0 680.0 50.0"/>
    <path d="M685.0 50.0Q735.0 97.0 685.0 145.0Q704.0 199.0 685.0 253.0Q742.0 302.0 685.0 352.0Q745.0 398.0 685.0 443.0Q672.0 490.0 685.0 536.0Q694.0 593.0 685.0 650.0Q697.0 681.0 685.0 711.0Q731.0 765.0 685.0 820.0"/>
    <path d="M690.0 820.0Q734.0 764.0 690.0 708.0Q706.0 679.0 690.0 650.0Q703.0 592.0 690.0 534.0Q677.0 488.0 690.0 441.0Q755.0 397.0 690.0 352.0Q744.0 304.0 690.0 257.0Q718.0 200.0 690.0 143.0Q743.0 97.0 690.0 50.0"/>
    <path d="M695.0 50.0Q751.0 96.0 695.0 141.0Q732.0 201.0 695.0 260.0Q746.0 306.0 695.0 352.0Q764.0 396.0 695.0 440.0Q682.0 486.0 695.0 532.0Q711.0 591.0 695.0 651.0Q714.0 678.0 695.0 705.0Q737.0 763.0 695.0 820.0"/>
    <path d="M700.0 820.0Q741.0 762.0 700.0 703.0Q722.0 677.0 700.0 651.0Q719.0 591.0 700.0 530.0Q687.0 484.0 700.0 438.0Q773.0 395.0 700.0 352.0Q749.0 308.0 700.0 263.0Q744.0 201.0 700.0 140.0Q758.0 95.0 700.0 50.0"/>
    <path d="M705.0 50.0Q765.0 94.0 705.0 139.0Q756.0 202.0 705.0 266.0Q752.0 309.0 705.0 352.0Q781.0 394.0 705.0 437.0Q692.0 483.0 705.0 529.0Q727.0 590.0 705.0 651.0Q730.0 676.0 705.0 701.0Q744.0 760.0 705.0 820.0"/>
    <path d="M710.0 820.0Q748.0 760.0 710.0 699.0Q737.0 675.0 710.0 651.0Q734.0 589.0 710.0 528.0Q697.0 482.0 710.0 435.0Q789.0 394.0 710.0 352.0Q755.0 310.0 710.0 268.0Q766.0 203.0 710.0 138.0Q772.0 94.0 710.0 50.0"/>
    <path d="M715.0 50.0Q778.0 93.0 715.0 137.0Q774.0 203.0 715.0 269.0Q759.0 311.0 715.0 352.0Q796.0 393.0 715.0 435.0Q702.0 481.0 715.0 527.0Q740.0 589.0 715.0 651.0Q743.0 675.0 715.0 698.0Q753.0 759.0 715.0 820.0"/>
    <path d="M720.0 820.0Q757.0 759.0 720.0 697.0Q749.0 674.0 720.0 651.0Q746.0 589.0 720.0 526.0Q707.0 480.0 720.0 434.0Q802.0 393.0 720.0 352.0Q763.0 311.0 720.0 270.0Q782.0 203.0 720.0 136.0Q784.0 93.0 720.0 50.0"/>
    <path d="M725.0 50.0Q789.0 93.0 725.0 136.0Q787.0 203.0 725.0 271.0Q768.0 311.0 725.0 352.0Q808.0 393.0 725.0 434.0Q712.0 480.0 725.0 526.0Q752.0 589.0 725.0 651.0Q754.0 674.0 725.0 697.0Q762.0 759.0 725.0 820.0"/>
    <path d="M730.0 820.0Q767.0 759.0 730.0 697.0Q759.0 674.0 730.0 651.0Q757.0 589.0 730.0 526.0Q717.0 480.0 730.0 434.0Q813.0 393.0 730.0 352.0Q773.0 311.0 730.0 271.0Q792.0 203.0 730.0 136.0Q794.0 93.0 730.0 50.0"/>
    <path d="M735.0 50.0Q799.0 93.0 735.0 136.0Q797.0 203.0 735.0 271.0Q778.0 311.0 735.0 352.0Q818.0 393.0 735.0 434.0Q722.0 480.0 735.0 526.0Q762.0 588.0 735.0 651.0Q764.0 674.0 735.0 697.0Q772.0 759.0 735.0 820.0"/>
    <path d="M740.0 820.0Q775.0 759.0 740.0 698.0Q769.0 674.0 740.0 650.0Q766.0 588.0 740.0 525.0Q726.0 480.0 740.0 434.0Q823.0 393.0 740.0 352.0Q781.0 311.0 740.0 270.0Q799.0 203.0 740.0 137.0Q803.0 93.0 740.0 50.0"/>
    <path d="M745.0 50.0Q807.0 94.0 745.0 137.0Q801.0 203.0 745.0 269.0Q784.0 310.0 745.0 351.0Q828.0 393.0 745.0 435.0Q730.0 480.0 745.0 525.0Q771.0 587.0 745.0 649.0Q774.0 674.0 745.0 698.0Q778.0 759.0 745.0 820.0"/>
    <path d="M750.0 820.0Q780.0 760.0 750.0 699.0Q779.0 674.0 750.0 648.0Q775.0 586.0 750.0 524.0Q734.0 480.0 750.0 436.0Q833.0 393.0 750.0 351.0Q787.0 309.0 750.0 268.0Q801.0 203.0 750.0 138.0Q810.0 94.0 750.0 50.0"/>
    <path d="M755.0 50.0Q812.0 94.0 755.0 139.0Q799.0 203.0 755.0 267.0Q788.0 309.0 755.0 350.0Q838.0 393.0 755.0 437.0Q737.0 480.0 755.0 523.0Q779.0 584.0 755.0 646.0Q784.0 673.0 755.0 700.0Q781.0 760.0 755.0 820.0"/>
    <path d="M760.0 820.0Q781.0 761.0 760.0 701.0Q790.0 673.0 760.0 644.0Q784.0 583.0 760.0 521.0Q741.0 479.0 760.0 438.0Q844.0 393.0 760.0 349.0Q790.0 307.0 760.0 266.0Q797.0 203.0 760.0 140.0Q815.0 95.0 760.0 50.0"/>
    <path d="M765.0 50.0Q816.0 95.0 765.0 141.0Q793.0 202.0 765.0 264.0Q790.0 306.0 765.0 348.0Q849.0 393.0 765.0 439.0Q743.0 479.0 765.0 520.0Q788.0 581.0 765.0 642.0Q795.0 672.0 765.0 702.0Q781.0 761.0 765.0 820.0"/>
    <path d="M770.0 820.0Q780.0 762.0 770.0 704.0Q800.0 672.0 770.0 640.0Q791.0 579.0 770.0 518.0Q746.0 479.0 770.0 440.0Q855.0 394.0 770.0 347.0Q790.0 305.0 770.0 262.0Q789.0 202.0 770.0 142.0Q818.0 96.0 770.0 50.0"/>
    <path d="M775.0 50.0Q819.0 97.0 775.0 143.0Q785.0 202.0 775.0 260.0Q790.0 303.0 775.0 346.0Q860.0 394.0 775.0 441.0Q749.0 479.0 775.0 516.0Q795.0 577.0 775.0 637.0Q805.0 671.0 775.0 705.0Q779.0 763.0 775.0 820.0"/>
    <path d="M780.0 820.0Q778.0 763.0 780.0 707.0Q810.0 671.0 780.0 635.0Q799.0 575.0 780.0 514.0Q751.0 479.0 780.0 443.0Q866.0 394.0 780.0 345.0Q790.0 302.0 780.0 258.0Q780.0 202.0 780.0 145.0Q821.0 97.0 780.0 50.0"/>
    <path d="M785.0 50.0Q822.0 98.0 785.0 146.0Q775.0 201.0 785.0 257.0Q790.0 300.0 785.0 344.0Q871.0 394.0 785.0 444.0Q754.0 478.0 785.0 513.0Q803.0 572.0 785.0 632.0Q815.0 670.0 785.0 708.0Q777.0 764.0 785.0 820.0"/>
    <path d="M790.0 820.0Q776.0 765.0 790.0 710.0Q820.0 670.0 790.0 630.0Q807.0 570.0 790.0 511.0Q756.0 478.0 790.0 446.0Q877.0 394.0 790.0 343.0Q790.0 299.0 790.0 255.0Q771.0 201.0 790.0 147.0Q823.0 99.0 790.0 50.0"/>
    <path d="M795.0 50.0Q825.0 99.0 795.0 149.0Q766.0 201.0 795.0 253.0Q791.0 297.0 795.0 342.0Q882.0 394.0 795.0 447.0Q759.0 478.0 795.0 509.0Q811.0 568.0 795.0 628.0Q825.0 669.0 795.0 711.0Q775.0 765.0 795.0 820.0"/>
    <path d="M800.0 820.0Q775.0 766.0 800.0 712.0Q830.0 669.0 800.0 625.0Q815.0 566.0 800.0 508.0Q762.0 478.0 800.0 448.0Q888.0 394.0 800.0 341.0Q791.0 296.0 800.0 251.0Q763.0 201.0 800.0 150.0Q827.0 100.0 800.0 50.0"/>
    <path d="M805.0 50.0Q829.0 100.0 805.0 151.0Q761.0 200.0 805.0 250.0Q792.0 295.0 805.0 340.0Q893.0 395.0 805.0 449.0Q765.0 478.0 805.0 506.0Q819.0 565.0 805.0 624.0Q835.0 668.0 805.0 713.0Q775.0 767.0 805.0 820.0"/>
    <path d="M810.0 820.0Q776.0 767.0 810.0 714.0Q840.0 668.0 810.0 622.0Q823.0 563.0 810.0 505.0Q768.0 478.0 810.0 450.0Q898.0 395.0 810.0 339.0Q794.0 294.0 810.0 249.0Q759.0 200.0 810.0 152.0Q832.0 101.0 810.0 50.0"/>
    <path d="M815.0 50.0Q835.0 101.0 815.0 152.0Q759.0 200.0 815.0 248.0Q796.0 293.0 815.0 339.0Q904.0 395.0 815.0 451.0Q772.0 477.0 815.0 504.0Q827.0 562.0 815.0 621.0Q845.0 668.0 815.0 715.0Q778.0 768.0 815.0 820.0"/>
    <path d="M820.0 820.0Q781.0 768.0 820.0 716.0Q850.0 668.0 820.0 620.0Q832.0 561.0 820.0 503.0Q776.0 477.0 820.0 451.0Q909.0 395.0 820.0 338.0Q799.0 293.0 820.0 247.0Q760.0 200.0 820.0 153.0Q838.0 101.0 820.0 50.0"/>
    <path d="M825.0 50.0Q843.0 102.0 825.0 153.0Q763.0 200.0 825.0 246.0Q803.0 292.0 825.0 338.0Q914.0 395.0 825.0 452.0Q780.0 477.0 825.0 503.0Q837.0 561.0 825.0 619.0Q855.0 667.0 825.0 716.0Q784.0 768.0 825.0 820.0"/>
    <path d="M830.0 820.0Q789.0 768.0 830.0 716.0Q860.0 667.0 830.0 619.0Q841.0 561.0 830.0 503.0Q785.0 477.0 830.0 452.0Q919.0 395.0 830.0 338.0Q808.0 292.0 830.0 246.0Q767.0 200.0 830.0 153.0Q847.0 102.0 830.0 50.0"/>
    <path d="M835.0 50.0Q852.0 102.0 835.0 153.0Q772.0 200.0 835.0 246.0Q813.0 292.0 835.0 338.0Q924.0 395.0 835.0 452.0Q790.0 477.0 835.0 503.0Q846.0 561.0 835.0 619.0Q865.0 667.0 835.0 716.0Q794.0 768.0 835.0 820.0"/>
    <path d="M840.0 820.0Q799.0 768.0 840.0 716.0Q870.0 667.0 840.0 619.0Q852.0 561.0 840.0 503.0Q795.0 477.0 840.0 452.0Q929.0 395.0 840.0 338.0Q817.0 292.0 840.0 246.0Q778.0 200.0 840.0 153.0Q857.0 102.0 840.0 50.0"/>
    <path d="M845.0 50.0Q863.0 102.0 845.0 154.0Q785.0 200.0 845.0 246.0Q821.0 292.0 845.0 338.0Q933.0 395.0 845.0 452.0Q801.0 477.0 845.0 503.0Q858.0 561.0 845.0 618.0Q874.0 667.0 845.0 716.0Q805.0 768.0 845.0 820.0"/>
    <path d="M850.0 820.0Q811.0 768.0 850.0 716.0Q876.0 667.0 850.0 618.0Q864.0 560.0 850.0 503.0Q807.0 477.0 850.0 452.0Q938.0 395.0 850.0 339.0Q824.0 292.0 850.0 245.0Q794.0 200.0 850.0 154.0Q870.0 102.0 850.0 50.0"/>
    <path d="M855.0 50.0Q876.0 102.0 855.0 155.0Q804.0 199.0 855.0 244.0Q826.0 292.0 855.0 339.0Q941.0 396.0 855.0 452.0Q813.0 478.0 855.0 503.0Q871.0 560.0 855.0 617.0Q878.0 666.0 855.0 716.0Q818.0 768.0 855.0 820.0"/>
    <path d="M860.0 820.0Q825.0 768.0 860.0 715.0Q879.0 666.0 860.0 617.0Q879.0 560.0 860.0 503.0Q819.0 478.0 860.0 453.0Q945.0 397.0 860.0 340.0Q828.0 292.0 860.0 243.0Q815.0 199.0 860.0 155.0Q883.0 103.0 860.0 50.0"/>
    <path d="M865.0 50.0Q891.0 103.0 865.0 156.0Q827.0 199.0 865.0 241.0Q829.0 291.0 865.0 341.0Q948.0 397.0 865.0 453.0Q826.0 478.0 865.0 503.0Q887.0 559.0 865.0 616.0Q879.0 665.0 865.0 715.0Q832.0 768.0 865.0 820.0"/>
    <path d="M870.0 820.0Q840.0 767.0 870.0 715.0Q879.0 665.0 870.0 615.0Q895.0 559.0 870.0 503.0Q833.0 478.0 870.0 454.0Q951.0 398.0 870.0 342.0Q829.0 291.0 870.0 240.0Q840.0 199.0 870.0 157.0Q899.0 104.0 870.0 50.0"/>
    <path d="M875.0 50.0Q907.0 104.0 875.0 158.0Q853.0 198.0 875.0 238.0Q829.0 291.0 875.0 343.0Q954.0 399.0 875.0 454.0Q840.0 478.0 875.0 503.0Q904.0 558.0 875.0 613.0Q878.0 664.0 875.0 714.0Q848.0 767.0 875.0 820.0"/>
    <path d="M880.0 820.0Q856.0 767.0 880.0 714.0Q877.0 663.0 880.0 612.0Q913.0 557.0 880.0 503.0Q847.0 479.0 880.0 455.0Q957.0 400.0 880.0 345.0Q829.0 290.0 880.0 236.0Q867.0 198.0 880.0 159.0Q915.0 105.0 880.0 50.0"/>
    <path d="M885.0 50.0Q923.0 105.0 885.0 161.0Q882.0 197.0 885.0 234.0Q829.0 290.0 885.0 346.0Q960.0 401.0 885.0 455.0Q854.0 479.0 885.0 503.0Q921.0 557.0 885.0 611.0Q876.0 662.0 885.0 713.0Q864.0 767.0 885.0 820.0"/>
    <path d="M890.0 820.0Q872.0 767.0 890.0 713.0Q875.0 661.0 890.0 610.0Q930.0 556.0 890.0 503.0Q861.0 479.0 890.0 456.0Q963.0 402.0 890.0 347.0Q829.0 290.0 890.0 232.0Q896.0 197.0 890.0 162.0Q932.0 106.0 890.0 50.0"/>
    <path d="M895.0 50.0Q940.0 106.0 895.0 163.0Q910.0 197.0 895.0 231.0Q828.0 290.0 895.0 348.0Q966.0 402.0 895.0 456.0Q868.0 480.0 895.0 503.0Q939.0 556.0 895.0 609.0Q874.0 661.0 895.0 713.0Q880.0 766.0 895.0 820.0"/>
    <path d="M900.0 820.0Q888.0 766.0 900.0 712.0Q873.0 660.0 900.0 608.0Q948.0 555.0 900.0 503.0Q875.0 480.0 900.0 457.0Q969.0 403.0 900.0 350.0Q828.0 289.0 900.0 229.0Q923.0 196.0 900.0 164.0Q948.0 107.0 900.0 50.0"/>
    <path d="M905.0 50.0Q956.0 107.0 905.0 165.0Q936.0 196.0 905.0 227.0Q829.0 289.0 905.0 351.0Q972.0 404.0 905.0 458.0Q882.0 480.0 905.0 503.0Q956.0 555.0 905.0 607.0Q873.0 659.0 905.0 712.0Q895.0 766.0 905.0 820.0"/>
    <path d="M910.0 820.0Q903.0 766.0 910.0 712.0Q873.0 659.0 910.0 606.0Q964.0 554.0 910.0 503.0Q889.0 480.0 910.0 458.0Q975.0 405.0 910.0 352.0Q830.0 289.0 910.0 226.0Q948.0 196.0 910.0 166.0Q963.0 108.0 910.0 50.0"/>
    <path d="M915.0 50.0Q970.0 108.0 915.0 166.0Q959.0 196.0 915.0 225.0Q831.0 289.0 915.0 352.0Q979.0 405.0 915.0 458.0Q895.0 480.0 915.0 502.0Q972.0 554.0 915.0 605.0Q874.0 658.0 915.0 711.0Q910.0 766.0 915.0 820.0"/>
    <path d="M920.0 820.0Q917.0 766.0 920.0 711.0Q876.0 658.0 920.0 604.0Q979.0 553.0 920.0 502.0Q901.0 481.0 920.0 459.0Q983.0 406.0 920.0 353.0Q834.0 288.0 920.0 224.0Q969.0 195.0 920.0 167.0Q977.0 108.0 920.0 50.0"/>
    <path d="M925.0 50.0Q983.0 109.0 925.0 167.0Q978.0 195.0 925.0 223.0Q837.0 288.0 925.0 354.0Q987.0 406.0 925.0 459.0Q907.0 481.0 925.0 502.0Q985.0 553.0 925.0 604.0Q879.0 657.0 925.0 711.0Q923.0 765.0 925.0 820.0"/>
    <path d="M930.0 820.0Q928.0 765.0 930.0 711.0Q882.0 657.0 930.0 603.0Q991.0 553.0 930.0 502.0Q912.0 481.0 930.0 459.0Q991.0 406.0 930.0 354.0Q840.0 288.0 930.0 223.0Q985.0 195.0 930.0 168.0Q989.0 109.0 930.0 50.0"/>
    <path d="M935.0 50.0Q994.0 109.0 935.0 168.0Q991.0 195.0 935.0 222.0Q845.0 288.0 935.0 354.0Q996.0 407.0 935.0 459.0Q918.0 481.0 935.0 502.0Q996.0 553.0 935.0 603.0Q887.0 657.0 935.0 711.0Q934.0 765.0 935.0 820.0"/>
    <path d="M940.0 820.0Q939.0 765.0 940.0 711.0Q892.0 657.0 940.0 603.0Q1002.0 553.0 940.0 502.0Q923.0 481.0 940.0 459.0Q1001.0 407.0 940.0 354.0Q850.0 288.0 940.0 222.0Q996.0 195.0 940.0 168.0Q999.0 109.0 940.0 50.0"/>
    <path d="M945.0 50.0Q1004.0 109.0 945.0 168.0Q1001.0 195.0 945.0 223.0Q855.0 288.0 945.0 354.0Q1006.0 406.0 945.0 459.0Q928.0 481.0 945.0 503.0Q1006.0 553.0 945.0 604.0Q897.0 657.0 945.0 711.0Q944.0 766.0 945.0 820.0"/>
    <path d="M950.0 820.0Q950.0 766.0 950.0 712.0Q902.0 658.0 950.0 604.0Q1011.0 554.0 950.0 503.0Q932.0 481.0 950.0 458.0Q1011.0 406.0 950.0 354.0Q861.0 288.0 950.0 223.0Q1005.0 195.0 950.0 167.0Q1007.0 109.0 950.0 50.0"/>
    <path d="M955.0 50.0Q1009.0 108.0 955.0 167.0Q1010.0 195.0 955.0 224.0Q868.0 288.0 955.0 353.0Q1015.0 405.0 955.0 457.0Q937.0 480.0 955.0 504.0Q1015.0 554.0 955.0 605.0Q907.0 659.0 955.0 713.0Q956.0 766.0 955.0 820.0"/>
    <path d="M960.0 820.0Q962.0 767.0 960.0 714.0Q913.0 660.0 960.0 607.0Q1019.0 556.0 960.0 504.0Q941.0 480.0 960.0 456.0Q1018.0 404.0 960.0 352.0Q875.0 289.0 960.0 225.0Q1014.0 195.0 960.0 166.0Q1011.0 108.0 960.0 50.0"/>
    <path d="M965.0 50.0Q1011.0 108.0 965.0 166.0Q1017.0 196.0 965.0 226.0Q883.0 289.0 965.0 352.0Q1022.0 403.0 965.0 454.0Q945.0 480.0 965.0 505.0Q1022.0 557.0 965.0 609.0Q919.0 662.0 965.0 716.0Q969.0 768.0 965.0 820.0"/>
    <path d="M970.0 820.0Q976.0 769.0 970.0 718.0Q925.0 664.0 970.0 611.0Q1026.0 559.0 970.0 507.0Q949.0 480.0 970.0 453.0Q1025.0 402.0 970.0 351.0Q892.0 289.0 970.0 227.0Q1021.0 196.0 970.0 165.0Q1010.0 107.0 970.0 50.0"/>
    <path d="M975.0 50.0Q1009.0 107.0 975.0 164.0Q1024.0 196.0 975.0 228.0Q901.0 289.0 975.0 350.0Q1028.0 400.0 975.0 451.0Q953.0 479.0 975.0 508.0Q1029.0 560.0 975.0 613.0Q931.0 667.0 975.0 720.0Q983.0 770.0 975.0 820.0"/>
    <path d="M980.0 820.0Q990.0 771.0 980.0 723.0Q937.0 669.0 980.0 616.0Q1032.0 562.0 980.0 509.0Q957.0 479.0 980.0 448.0Q1031.0 398.0 980.0 348.0Q910.0 289.0 980.0 230.0Q1028.0 196.0 980.0 163.0Q1008.0 106.0 980.0 50.0"/>
    <path d="M985.0 50.0Q1006.0 106.0 985.0 162.0Q1031.0 197.0 985.0 232.0Q919.0 290.0 985.0 347.0Q1034.0 397.0 985.0 446.0Q961.0 478.0 985.0 511.0Q1034.0 565.0 985.0 618.0Q943.0 672.0 985.0 725.0Q998.0 773.0 985.0 820.0"/>
    <path d="M990.0 820.0Q1006.0 774.0 990.0 728.0Q950.0 675.0 990.0 621.0Q1037.0 567.0 990.0 512.0Q965.0 478.0 990.0 444.0Q1037.0 395.0 990.0 346.0Q929.0 290.0 990.0 234.0Q1034.0 197.0 990.0 161.0Q1003.0 105.0 990.0 50.0"/>
    <path d="M995.0 50.0Q1001.0 105.0 995.0 159.0Q1037.0 197.0 995.0 235.0Q938.0 290.0 995.0 345.0Q1040.0 393.0 995.0 441.0Q969.0 478.0 995.0 514.0Q1040.0 569.0 995.0 624.0Q956.0 677.0 995.0 731.0Q1013.0 775.0 995.0 820.0"/>
    <path d="M1000.0 820.0Q1021.0 777.0 1000.0 733.0Q962.0 680.0 1000.0 626.0Q1043.0 571.0 1000.0 516.0Q973.0 477.0 1000.0 439.0Q1042.0 391.0 1000.0 343.0Q948.0 290.0 1000.0 237.0Q1041.0 198.0 1000.0 158.0Q999.0 104.0 1000.0 50.0"/>
    <path d="M1005.0 50.0Q998.0 104.0 1005.0 157.0Q1044.0 198.0 1005.0 239.0Q957.0 290.0 1005.0 342.0Q1045.0 389.0 1005.0 436.0Q977.0 477.0 1005.0 517.0Q1045.0 573.0 1005.0 629.0Q968.0 682.0 1005.0 736.0Q1028.0 778.0 1005.0 820.0"/>
    <path d="M1010.0 820.0Q1036.0 779.0 1010.0 738.0Q974.0 685.0 1010.0 631.0Q1049.0 575.0 1010.0 518.0Q981.0 476.0 1010.0 434.0Q1048.0 388.0 1010.0 341.0Q966.0 291.0 1010.0 240.0Q1047.0 198.0 1010.0 156.0Q996.0 103.0 1010.0 50.0"/>
    <path d="M1015.0 50.0Q996.0 103.0 1015.0 155.0Q1051.0 198.0 1015.0 241.0Q974.0 291.0 1015.0 340.0Q1052.0 386.0 1015.0 433.0Q985.0 476.0 1015.0 520.0Q1052.0 576.0 1015.0 633.0Q980.0 687.0 1015.0 740.0Q1043.0 780.0 1015.0 820.0"/>
    <path d="M1020.0 820.0Q1049.0 781.0 1020.0 742.0Q986.0 689.0 1020.0 635.0Q1055.0 578.0 1020.0 521.0Q989.0 476.0 1020.0 431.0Q1055.0 385.0 1020.0 339.0Q982.0 291.0 1020.0 243.0Q1055.0 199.0 1020.0 155.0Q996.0 102.0 1020.0 50.0"/>
    <path d="M1025.0 50.0Q997.0 102.0 1025.0 154.0Q1059.0 199.0 1025.0 244.0Q989.0 291.0 1025.0 339.0Q1059.0 384.0 1025.0 430.0Q993.0 476.0 1025.0 521.0Q1059.0 579.0 1025.0 637.0Q992.0 690.0 1025.0 743.0Q1056.0 782.0 1025.0 820.0"/>
    <path d="M1030.0 820.0Q1062.0 782.0 1030.0 744.0Q997.0 691.0 1030.0 638.0Q1063.0 580.0 1030.0 522.0Q998.0 475.0 1030.0 429.0Q1063.0 384.0 1030.0 338.0Q996.0 291.0 1030.0 244.0Q1063.0 199.0 1030.0 154.0Q1000.0 102.0 1030.0 50.0"/>
    <path d="M1035.0 50.0Q1003.0 102.0 1035.0 153.0Q1068.0 199.0 1035.0 245.0Q1002.0 291.0 1035.0 338.0Q1068.0 383.0 1035.0 428.0Q1003.0 475.0 1035.0 522.0Q1068.0 580.0 1035.0 638.0Q1002.0 692.0 1035.0 745.0Q1067.0 783.0 1035.0 820.0"/>
    <path d="M1040.0 820.0Q1073.0 783.0 1040.0 745.0Q1007.0 692.0 1040.0 639.0Q1073.0 581.0 1040.0 522.0Q1007.0 475.0 1040.0 428.0Q1073.0 383.0 1040.0 338.0Q1007.0 291.0 1040.0 245.0Q1073.0 199.0 1040.0 153.0Q1007.0 102.0 1040.0 50.0"/>
  </g>
</svg>
