<svg version="1.1" width="1630" height="1060" xmlns="http://www.w3.org/2000/svg">
  <!-- Seed: 6000212137154250982 -->
  <!-- Size: SvgSize.Size11x17 -->
  <!-- Params:
    draw: True
    pad_x: 50
    pad_y: 0
    row_range: [RangeInt] min: 3 max: 10
    col_range: [RangeInt] min: 5 max: 10
    wave_range: 100
    wave_y_range: 30
    step_size: 5
  -->
  <g stroke="black" fill="none">
    <path d="M100.0 1010.0Q161.0 899.0 100.0 789.0Q39.0 716.0 100.0 643.0Q161.0 544.0 100.0 446.0Q39.0 336.0 100.0 227.0Q161.0 138.0 100.0 50.0"/>
    <path d="M105.0 50.0Q166.0 138.0 105.0 227.0Q44.0 336.0 105.0 446.0Q166.0 544.0 105.0 643.0Q44.0 716.0 105.0 789.0Q166.0 899.0 105.0 1010.0"/>
    <path d="M110.0 1010.0Q171.0 900.0 110.0 789.0Q49.0 716.0 110.0 643.0Q171.0 544.0 110.0 446.0Q50.0 336.0 110.0 227.0Q171.0 138.0 110.0 50.0"/>
    <path d="M115.0 50.0Q175.0 138.0 115.0 227.0Q55.0 336.0 115.0 446.0Q176.0 544.0 115.0 643.0Q54.0 716.0 115.0 789.0Q175.0 900.0 115.0 1010.0"/>
    <path d="M120.0 1010.0Q180.0 900.0 120.0 790.0Q59.0 716.0 120.0 643.0Q180.0 544.0 120.0 446.0Q61.0 336.0 120.0 227.0Q179.0 138.0 120.0 50.0"/>
    <path d="M125.0 50.0Q183.0 138.0 125.0 227.0Q67.0 336.0 125.0 446.0Q185.0 544.0 125.0 643.0Q63.0 717.0 125.0 790.0Q184.0 900.0 125.0 1010.0"/>
    <path d="M130.0 1010.0Q188.0 900.0 130.0 791.0Q68.0 717.0 130.0 643.0Q189.0 544.0 130.0 446.0Q74.0 336.0 130.0 227.0Q186.0 138.0 130.0 50.0"/>
    <path d="M135.0 50.0Q190.0 138.0 135.0 227.0Q80.0 336.0 135.0 446.0Q194.0 544.0 135.0 643.0Q73.0 717.0 135.0 792.0Q192.0 901.0 135.0 1010.0"/>
    <path d="M140.0 1010.0Q196.0 901.0 140.0 793.0Q77.0 718.0 140.0 642.0Q198.0 544.0 140.0 446.0Q87.0 336.0 140.0 227.0Q193.0 138.0 140.0 50.0"/>
    <path d="M145.0 50.0Q196.0 139.0 145.0 227.0Q95.0 336.0 145.0 446.0Q202.0 544.0 145.0 642.0Q82.0 718.0 145.0 794.0Q199.0 902.0 145.0 1010.0"/>
    <path d="M150.0 1010.0Q203.0 902.0 150.0 795.0Q86.0 718.0 150.0 642.0Q206.0 544.0 150.0 446.0Q102.0 337.0 150.0 227.0Q199.0 139.0 150.0 50.0"/>
    <path d="M155.0 50.0Q201.0 139.0 155.0 227.0Q110.0 337.0 155.0 446.0Q210.0 544.0 155.0 642.0Q91.0 719.0 155.0 796.0Q206.0 903.0 155.0 1010.0"/>
    <path d="M160.0 1010.0Q210.0 904.0 160.0 797.0Q95.0 720.0 160.0 642.0Q214.0 544.0 160.0 446.0Q117.0 337.0 160.0 228.0Q204.0 139.0 160.0 50.0"/>
    <path d="M165.0 50.0Q206.0 139.0 165.0 228.0Q125.0 337.0 165.0 446.0Q218.0 544.0 165.0 642.0Q100.0 720.0 165.0 799.0Q213.0 904.0 165.0 1010.0"/>
    <path d="M170.0 1010.0Q216.0 905.0 170.0 800.0Q104.0 721.0 170.0 642.0Q221.0 544.0 170.0 446.0Q133.0 337.0 170.0 228.0Q208.0 139.0 170.0 50.0"/>
    <path d="M175.0 50.0Q210.0 139.0 175.0 228.0Q142.0 337.0 175.0 446.0Q225.0 544.0 175.0 641.0Q108.0 721.0 175.0 802.0Q219.0 906.0 175.0 1010.0"/>
    <path d="M180.0 1010.0Q222.0 907.0 180.0 803.0Q113.0 722.0 180.0 641.0Q229.0 543.0 180.0 446.0Q150.0 337.0 180.0 228.0Q211.0 139.0 180.0 50.0"/>
    <path d="M185.0 50.0Q213.0 139.0 185.0 228.0Q159.0 337.0 185.0 446.0Q232.0 543.0 185.0 641.0Q117.0 723.0 185.0 805.0Q224.0 907.0 185.0 1010.0"/>
    <path d="M190.0 1010.0Q227.0 908.0 190.0 807.0Q121.0 724.0 190.0 641.0Q236.0 543.0 190.0 446.0Q167.0 337.0 190.0 229.0Q214.0 139.0 190.0 50.0"/>
    <path d="M195.0 50.0Q216.0 139.0 195.0 229.0Q176.0 337.0 195.0 446.0Q239.0 543.0 195.0 640.0Q126.0 724.0 195.0 808.0Q230.0 909.0 195.0 1010.0"/>
    <path d="M200.0 1010.0Q232.0 910.0 200.0 810.0Q130.0 725.0 200.0 640.0Q243.0 543.0 200.0 446.0Q185.0 337.0 200.0 229.0Q217.0 140.0 200.0 50.0"/>
    <path d="M205.0 50.0Q218.0 140.0 205.0 229.0Q194.0 337.0 205.0 446.0Q246.0 543.0 205.0 640.0Q134.0 726.0 205.0 812.0Q235.0 911.0 205.0 1010.0"/>
    <path d="M210.0 1010.0Q237.0 912.0 210.0 814.0Q138.0 727.0 210.0 640.0Q250.0 543.0 210.0 446.0Q203.0 337.0 210.0 229.0Q220.0 140.0 210.0 50.0"/>
    <path d="M215.0 50.0Q221.0 140.0 215.0 230.0Q212.0 338.0 215.0 445.0Q253.0 543.0 215.0 640.0Q142.0 728.0 215.0 816.0Q240.0 913.0 215.0 1010.0"/>
    <path d="M220.0 1010.0Q242.0 914.0 220.0 817.0Q147.0 728.0 220.0 639.0Q257.0 542.0 220.0 445.0Q221.0 338.0 220.0 230.0Q222.0 140.0 220.0 50.0"/>
    <path d="M225.0 50.0Q223.0 140.0 225.0 230.0Q230.0 338.0 225.0 445.0Q260.0 542.0 225.0 639.0Q151.0 729.0 225.0 819.0Q245.0 915.0 225.0 1010.0"/>
    <path d="M230.0 1010.0Q248.0 916.0 230.0 821.0Q155.0 730.0 230.0 639.0Q264.0 542.0 230.0 445.0Q239.0 338.0 230.0 230.0Q225.0 140.0 230.0 50.0"/>
    <path d="M235.0 50.0Q226.0 140.0 235.0 230.0Q247.0 338.0 235.0 445.0Q267.0 542.0 235.0 639.0Q159.0 731.0 235.0 823.0Q250.0 916.0 235.0 1010.0"/>
    <path d="M240.0 1010.0Q253.0 917.0 240.0 825.0Q164.0 731.0 240.0 638.0Q271.0 542.0 240.0 445.0Q256.0 338.0 240.0 231.0Q228.0 140.0 240.0 50.0"/>
    <path d="M245.0 50.0Q229.0 140.0 245.0 231.0Q265.0 338.0 245.0 445.0Q274.0 542.0 245.0 638.0Q168.0 732.0 245.0 826.0Q255.0 918.0 245.0 1010.0"/>
    <path d="M250.0 1010.0Q258.0 919.0 250.0 828.0Q172.0 733.0 250.0 638.0Q278.0 542.0 250.0 445.0Q273.0 338.0 250.0 231.0Q231.0 141.0 250.0 50.0"/>
    <path d="M255.0 50.0Q232.0 141.0 255.0 231.0Q282.0 338.0 255.0 445.0Q282.0 541.0 255.0 638.0Q177.0 734.0 255.0 830.0Q261.0 920.0 255.0 1010.0"/>
    <path d="M260.0 1010.0Q264.0 921.0 260.0 831.0Q181.0 734.0 260.0 638.0Q285.0 541.0 260.0 445.0Q290.0 338.0 260.0 231.0Q234.0 141.0 260.0 50.0"/>
    <path d="M265.0 50.0Q236.0 141.0 265.0 232.0Q298.0 338.0 265.0 445.0Q289.0 541.0 265.0 637.0Q185.0 735.0 265.0 833.0Q267.0 921.0 265.0 1010.0"/>
    <path d="M270.0 1010.0Q270.0 922.0 270.0 834.0Q190.0 736.0 270.0 637.0Q293.0 541.0 270.0 445.0Q306.0 338.0 270.0 232.0Q238.0 141.0 270.0 50.0"/>
    <path d="M275.0 50.0Q241.0 141.0 275.0 232.0Q314.0 339.0 275.0 445.0Q297.0 541.0 275.0 637.0Q194.0 736.0 275.0 835.0Q273.0 923.0 275.0 1010.0"/>
    <path d="M280.0 1010.0Q277.0 923.0 280.0 836.0Q199.0 737.0 280.0 637.0Q301.0 541.0 280.0 445.0Q322.0 339.0 280.0 232.0Q243.0 141.0 280.0 50.0"/>
    <path d="M285.0 50.0Q246.0 141.0 285.0 232.0Q329.0 339.0 285.0 445.0Q305.0 541.0 285.0 637.0Q203.0 737.0 285.0 837.0Q280.0 924.0 285.0 1010.0"/>
    <path d="M290.0 1010.0Q284.0 924.0 290.0 838.0Q208.0 738.0 290.0 637.0Q309.0 541.0 290.0 445.0Q336.0 339.0 290.0 232.0Q249.0 141.0 290.0 50.0"/>
    <path d="M295.0 50.0Q252.0 141.0 295.0 232.0Q343.0 339.0 295.0 445.0Q313.0 541.0 295.0 636.0Q212.0 738.0 295.0 839.0Q288.0 925.0 295.0 1010.0"/>
    <path d="M300.0 1010.0Q292.0 925.0 300.0 840.0Q217.0 738.0 300.0 636.0Q318.0 541.0 300.0 445.0Q350.0 339.0 300.0 232.0Q255.0 141.0 300.0 50.0"/>
    <path d="M305.0 50.0Q259.0 141.0 305.0 233.0Q356.0 339.0 305.0 445.0Q322.0 541.0 305.0 636.0Q222.0 739.0 305.0 841.0Q296.0 925.0 305.0 1010.0"/>
    <path d="M310.0 1010.0Q300.0 926.0 310.0 841.0Q226.0 739.0 310.0 636.0Q326.0 541.0 310.0 445.0Q362.0 339.0 310.0 233.0Q263.0 141.0 310.0 50.0"/>
    <path d="M315.0 50.0Q267.0 141.0 315.0 233.0Q368.0 339.0 315.0 445.0Q331.0 541.0 315.0 636.0Q231.0 739.0 315.0 842.0Q304.0 926.0 315.0 1010.0"/>
    <path d="M320.0 1010.0Q309.0 926.0 320.0 842.0Q236.0 739.0 320.0 636.0Q336.0 541.0 320.0 445.0Q374.0 339.0 320.0 233.0Q271.0 141.0 320.0 50.0"/>
    <path d="M325.0 50.0Q276.0 141.0 325.0 233.0Q379.0 339.0 325.0 445.0Q341.0 541.0 325.0 636.0Q241.0 739.0 325.0 842.0Q314.0 926.0 325.0 1010.0"/>
    <path d="M330.0 1010.0Q319.0 926.0 330.0 842.0Q246.0 739.0 330.0 636.0Q346.0 541.0 330.0 445.0Q385.0 339.0 330.0 233.0Q281.0 141.0 330.0 50.0"/>
    <path d="M335.0 50.0Q286.0 141.0 335.0 233.0Q390.0 339.0 335.0 445.0Q351.0 541.0 335.0 636.0Q251.0 739.0 335.0 842.0Q324.0 926.0 335.0 1010.0"/>
    <path d="M340.0 1010.0Q329.0 926.0 340.0 842.0Q256.0 739.0 340.0 636.0Q356.0 541.0 340.0 445.0Q394.0 339.0 340.0 233.0Q291.0 141.0 340.0 50.0"/>
    <path d="M345.0 50.0Q296.0 141.0 345.0 233.0Q399.0 339.0 345.0 445.0Q360.0 541.0 345.0 636.0Q261.0 739.0 345.0 842.0Q334.0 926.0 345.0 1010.0"/>
    <path d="M350.0 1010.0Q340.0 926.0 350.0 842.0Q267.0 739.0 350.0 636.0Q365.0 541.0 350.0 445.0Q404.0 339.0 350.0 233.0Q301.0 141.0 350.0 50.0"/>
    <path d="M355.0 50.0Q306.0 141.0 355.0 233.0Q409.0 339.0 355.0 445.0Q370.0 541.0 355.0 636.0Q273.0 739.0 355.0 842.0Q346.0 926.0 355.0 1010.0"/>
    <path d="M360.0 1010.0Q352.0 926.0 360.0 842.0Q279.0 739.0 360.0 636.0Q375.0 541.0 360.0 445.0Q413.0 339.0 360.0 233.0Q310.0 141.0 360.0 50.0"/>
    <path d="M365.0 50.0Q315.0 141.0 365.0 233.0Q418.0 339.0 365.0 445.0Q379.0 541.0 365.0 637.0Q285.0 740.0 365.0 842.0Q358.0 926.0 365.0 1010.0"/>
    <path d="M370.0 1010.0Q364.0 926.0 370.0 842.0Q292.0 740.0 370.0 637.0Q384.0 541.0 370.0 446.0Q422.0 339.0 370.0 233.0Q320.0 141.0 370.0 50.0"/>
    <path d="M375.0 50.0Q325.0 141.0 375.0 233.0Q427.0 339.0 375.0 446.0Q388.0 541.0 375.0 637.0Q298.0 740.0 375.0 842.0Q371.0 926.0 375.0 1010.0"/>
    <path d="M380.0 1010.0Q378.0 926.0 380.0 842.0Q305.0 740.0 380.0 637.0Q392.0 542.0 380.0 446.0Q431.0 339.0 380.0 233.0Q329.0 141.0 380.0 50.0"/>
    <path d="M385.0 50.0Q334.0 141.0 385.0 233.0Q435.0 339.0 385.0 446.0Q397.0 542.0 385.0 638.0Q312.0 740.0 385.0 842.0Q384.0 926.0 385.0 1010.0"/>
    <path d="M390.0 1010.0Q392.0 926.0 390.0 842.0Q320.0 740.0 390.0 638.0Q401.0 542.0 390.0 446.0Q439.0 340.0 390.0 233.0Q339.0 141.0 390.0 50.0"/>
    <path d="M395.0 50.0Q343.0 141.0 395.0 233.0Q443.0 340.0 395.0 447.0Q405.0 542.0 395.0 638.0Q327.0 740.0 395.0 842.0Q399.0 926.0 395.0 1010.0"/>
    <path d="M400.0 1010.0Q406.0 926.0 400.0 842.0Q335.0 740.0 400.0 638.0Q409.0 543.0 400.0 447.0Q448.0 340.0 400.0 233.0Q348.0 141.0 400.0 50.0"/>
    <path d="M405.0 50.0Q353.0 141.0 405.0 233.0Q451.0 340.0 405.0 447.0Q413.0 543.0 405.0 639.0Q342.0 741.0 405.0 842.0Q414.0 926.0 405.0 1010.0"/>
    <path d="M410.0 1010.0Q422.0 926.0 410.0 842.0Q350.0 741.0 410.0 639.0Q417.0 543.0 410.0 447.0Q455.0 340.0 410.0 233.0Q357.0 141.0 410.0 50.0"/>
    <path d="M415.0 50.0Q362.0 141.0 415.0 233.0Q459.0 340.0 415.0 448.0Q421.0 544.0 415.0 640.0Q358.0 741.0 415.0 842.0Q430.0 926.0 415.0 1010.0"/>
    <path d="M420.0 1010.0Q438.0 926.0 420.0 842.0Q367.0 741.0 420.0 640.0Q425.0 544.0 420.0 448.0Q463.0 340.0 420.0 233.0Q366.0 141.0 420.0 50.0"/>
    <path d="M425.0 50.0Q371.0 141.0 425.0 233.0Q467.0 340.0 425.0 448.0Q429.0 544.0 425.0 640.0Q375.0 741.0 425.0 842.0Q446.0 926.0 425.0 1010.0"/>
    <path d="M430.0 1010.0Q454.0 926.0 430.0 842.0Q383.0 742.0 430.0 641.0Q433.0 545.0 430.0 449.0Q471.0 341.0 430.0 233.0Q375.0 141.0 430.0 50.0"/>
    <path d="M435.0 50.0Q380.0 141.0 435.0 233.0Q474.0 341.0 435.0 449.0Q437.0 545.0 435.0 641.0Q391.0 742.0 435.0 842.0Q462.0 926.0 435.0 1010.0"/>
    <path d="M440.0 1010.0Q470.0 926.0 440.0 842.0Q400.0 742.0 440.0 642.0Q440.0 545.0 440.0 449.0Q478.0 341.0 440.0 233.0Q384.0 141.0 440.0 50.0"/>
    <path d="M445.0 50.0Q389.0 141.0 445.0 233.0Q482.0 341.0 445.0 450.0Q444.0 546.0 445.0 642.0Q408.0 742.0 445.0 842.0Q478.0 926.0 445.0 1010.0"/>
    <path d="M450.0 1010.0Q487.0 926.0 450.0 842.0Q417.0 742.0 450.0 643.0Q448.0 546.0 450.0 450.0Q485.0 341.0 450.0 233.0Q393.0 141.0 450.0 50.0"/>
    <path d="M455.0 50.0Q398.0 141.0 455.0 233.0Q489.0 341.0 455.0 450.0Q452.0 547.0 455.0 643.0Q425.0 743.0 455.0 842.0Q495.0 926.0 455.0 1010.0"/>
    <path d="M460.0 1010.0Q503.0 926.0 460.0 842.0Q434.0 743.0 460.0 643.0Q456.0 547.0 460.0 451.0Q493.0 342.0 460.0 233.0Q402.0 141.0 460.0 50.0"/>
    <path d="M465.0 50.0Q407.0 141.0 465.0 233.0Q497.0 342.0 465.0 451.0Q460.0 547.0 465.0 644.0Q442.0 743.0 465.0 842.0Q511.0 926.0 465.0 1010.0"/>
    <path d="M470.0 1010.0Q520.0 926.0 470.0 842.0Q450.0 743.0 470.0 644.0Q463.0 548.0 470.0 451.0Q500.0 342.0 470.0 233.0Q411.0 141.0 470.0 50.0"/>
    <path d="M475.0 50.0Q416.0 141.0 475.0 233.0Q504.0 342.0 475.0 452.0Q467.0 548.0 475.0 645.0Q459.0 743.0 475.0 842.0Q528.0 926.0 475.0 1010.0"/>
    <path d="M480.0 1010.0Q536.0 926.0 480.0 842.0Q467.0 744.0 480.0 645.0Q471.0 548.0 480.0 452.0Q508.0 342.0 480.0 233.0Q420.0 141.0 480.0 50.0"/>
    <path d="M485.0 50.0Q425.0 141.0 485.0 233.0Q512.0 342.0 485.0 452.0Q475.0 549.0 485.0 646.0Q475.0 744.0 485.0 842.0Q544.0 926.0 485.0 1010.0"/>
    <path d="M490.0 1010.0Q552.0 926.0 490.0 842.0Q483.0 744.0 490.0 646.0Q479.0 549.0 490.0 452.0Q516.0 343.0 490.0 233.0Q429.0 141.0 490.0 50.0"/>
    <path d="M495.0 50.0Q434.0 141.0 495.0 233.0Q519.0 343.0 495.0 453.0Q483.0 549.0 495.0 646.0Q491.0 744.0 495.0 842.0Q559.0 926.0 495.0 1010.0"/>
    <path d="M500.0 1010.0Q567.0 926.0 500.0 842.0Q499.0 744.0 500.0 647.0Q487.0 550.0 500.0 453.0Q523.0 343.0 500.0 233.0Q438.0 141.0 500.0 50.0"/>
    <path d="M505.0 50.0Q443.0 141.0 505.0 233.0Q527.0 343.0 505.0 453.0Q491.0 550.0 505.0 647.0Q506.0 745.0 505.0 842.0Q574.0 926.0 505.0 1010.0"/>
    <path d="M510.0 1010.0Q582.0 926.0 510.0 842.0Q514.0 745.0 510.0 647.0Q495.0 550.0 510.0 453.0Q531.0 343.0 510.0 233.0Q447.0 141.0 510.0 50.0"/>
    <path d="M515.0 50.0Q452.0 141.0 515.0 233.0Q536.0 343.0 515.0 454.0Q499.0 551.0 515.0 648.0Q521.0 745.0 515.0 842.0Q589.0 926.0 515.0 1010.0"/>
    <path d="M520.0 1010.0Q596.0 926.0 520.0 842.0Q528.0 745.0 520.0 648.0Q504.0 551.0 520.0 454.0Q540.0 343.0 520.0 233.0Q457.0 141.0 520.0 50.0"/>
    <path d="M525.0 50.0Q462.0 141.0 525.0 233.0Q544.0 343.0 525.0 454.0Q508.0 551.0 525.0 648.0Q535.0 745.0 525.0 842.0Q603.0 926.0 525.0 1010.0"/>
    <path d="M530.0 1010.0Q609.0 926.0 530.0 842.0Q542.0 745.0 530.0 648.0Q512.0 551.0 530.0 454.0Q548.0 343.0 530.0 233.0Q466.0 141.0 530.0 50.0"/>
    <path d="M535.0 50.0Q471.0 141.0 535.0 233.0Q553.0 343.0 535.0 454.0Q517.0 551.0 535.0 648.0Q548.0 745.0 535.0 842.0Q616.0 926.0 535.0 1010.0"/>
    <path d="M540.0 1010.0Q622.0 926.0 540.0 842.0Q554.0 745.0 540.0 649.0Q522.0 552.0 540.0 454.0Q557.0 344.0 540.0 233.0Q476.0 141.0 540.0 50.0"/>
    <path d="M545.0 50.0Q481.0 141.0 545.0 233.0Q562.0 344.0 545.0 455.0Q526.0 552.0 545.0 649.0Q561.0 745.0 545.0 842.0Q628.0 926.0 545.0 1010.0"/>
    <path d="M550.0 1010.0Q634.0 926.0 550.0 842.0Q566.0 746.0 550.0 649.0Q531.0 552.0 550.0 455.0Q567.0 344.0 550.0 233.0Q486.0 141.0 550.0 50.0"/>
    <path d="M555.0 50.0Q490.0 141.0 555.0 233.0Q572.0 344.0 555.0 455.0Q536.0 552.0 555.0 649.0Q572.0 746.0 555.0 842.0Q639.0 926.0 555.0 1010.0"/>
    <path d="M560.0 1010.0Q644.0 926.0 560.0 842.0Q577.0 746.0 560.0 649.0Q541.0 552.0 560.0 455.0Q576.0 344.0 560.0 233.0Q495.0 141.0 560.0 50.0"/>
    <path d="M565.0 50.0Q500.0 141.0 565.0 233.0Q581.0 344.0 565.0 455.0Q546.0 552.0 565.0 649.0Q582.0 746.0 565.0 842.0Q650.0 926.0 565.0 1010.0"/>
    <path d="M570.0 1010.0Q655.0 926.0 570.0 842.0Q587.0 746.0 570.0 649.0Q551.0 552.0 570.0 455.0Q586.0 344.0 570.0 233.0Q505.0 141.0 570.0 50.0"/>
    <path d="M575.0 50.0Q510.0 141.0 575.0 233.0Q591.0 344.0 575.0 455.0Q556.0 552.0 575.0 649.0Q592.0 746.0 575.0 842.0Q659.0 926.0 575.0 1010.0"/>
    <path d="M580.0 1010.0Q664.0 926.0 580.0 842.0Q597.0 745.0 580.0 649.0Q561.0 552.0 580.0 455.0Q597.0 344.0 580.0 233.0Q515.0 141.0 580.0 50.0"/>
    <path d="M585.0 50.0Q521.0 141.0 585.0 233.0Q602.0 344.0 585.0 455.0Q566.0 552.0 585.0 649.0Q601.0 745.0 585.0 842.0Q669.0 926.0 585.0 1010.0"/>
    <path d="M590.0 1010.0Q673.0 926.0 590.0 842.0Q606.0 745.0 590.0 648.0Q571.0 552.0 590.0 455.0Q607.0 344.0 590.0 233.0Q526.0 141.0 590.0 50.0"/>
    <path d="M595.0 50.0Q531.0 141.0 595.0 233.0Q613.0 344.0 595.0 455.0Q576.0 551.0 595.0 648.0Q610.0 745.0 595.0 842.0Q677.0 926.0 595.0 1010.0"/>
    <path d="M600.0 1010.0Q681.0 926.0 600.0 841.0Q614.0 744.0 600.0 648.0Q581.0 551.0 600.0 455.0Q618.0 344.0 600.0 233.0Q536.0 141.0 600.0 50.0"/>
    <path d="M605.0 50.0Q541.0 142.0 605.0 233.0Q624.0 344.0 605.0 455.0Q587.0 551.0 605.0 647.0Q617.0 744.0 605.0 841.0Q685.0 925.0 605.0 1010.0"/>
    <path d="M610.0 1010.0Q688.0 925.0 610.0 841.0Q621.0 744.0 610.0 647.0Q592.0 551.0 610.0 455.0Q630.0 344.0 610.0 233.0Q546.0 142.0 610.0 50.0"/>
    <path d="M615.0 50.0Q552.0 142.0 615.0 233.0Q636.0 344.0 615.0 455.0Q598.0 551.0 615.0 646.0Q624.0 743.0 615.0 840.0Q692.0 925.0 615.0 1010.0"/>
    <path d="M620.0 1010.0Q695.0 925.0 620.0 840.0Q627.0 743.0 620.0 645.0Q603.0 550.0 620.0 455.0Q642.0 344.0 620.0 233.0Q557.0 142.0 620.0 50.0"/>
    <path d="M625.0 50.0Q562.0 142.0 625.0 234.0Q648.0 344.0 625.0 455.0Q609.0 550.0 625.0 645.0Q630.0 742.0 625.0 839.0Q698.0 925.0 625.0 1010.0"/>
    <path d="M630.0 1010.0Q701.0 924.0 630.0 839.0Q633.0 741.0 630.0 644.0Q614.0 550.0 630.0 455.0Q654.0 345.0 630.0 234.0Q568.0 142.0 630.0 50.0"/>
    <path d="M635.0 50.0Q573.0 142.0 635.0 234.0Q661.0 345.0 635.0 456.0Q620.0 549.0 635.0 643.0Q635.0 741.0 635.0 838.0Q703.0 924.0 635.0 1010.0"/>
    <path d="M640.0 1010.0Q706.0 924.0 640.0 838.0Q638.0 740.0 640.0 642.0Q625.0 549.0 640.0 456.0Q667.0 345.0 640.0 234.0Q578.0 142.0 640.0 50.0"/>
    <path d="M645.0 50.0Q584.0 142.0 645.0 234.0Q674.0 345.0 645.0 456.0Q631.0 548.0 645.0 641.0Q640.0 739.0 645.0 837.0Q708.0 924.0 645.0 1010.0"/>
    <path d="M650.0 1010.0Q711.0 923.0 650.0 837.0Q643.0 738.0 650.0 640.0Q637.0 548.0 650.0 456.0Q680.0 345.0 650.0 235.0Q589.0 142.0 650.0 50.0"/>
    <path d="M655.0 50.0Q595.0 142.0 655.0 235.0Q687.0 345.0 655.0 456.0Q642.0 548.0 655.0 639.0Q645.0 737.0 655.0 836.0Q713.0 923.0 655.0 1010.0"/>
    <path d="M660.0 1010.0Q715.0 923.0 660.0 835.0Q647.0 737.0 660.0 638.0Q648.0 547.0 660.0 456.0Q693.0 346.0 660.0 235.0Q600.0 143.0 660.0 50.0"/>
    <path d="M665.0 50.0Q606.0 143.0 665.0 235.0Q700.0 346.0 665.0 456.0Q654.0 547.0 665.0 637.0Q649.0 736.0 665.0 835.0Q717.0 922.0 665.0 1010.0"/>
    <path d="M670.0 1010.0Q719.0 922.0 670.0 834.0Q651.0 735.0 670.0 636.0Q660.0 546.0 670.0 456.0Q707.0 346.0 670.0 235.0Q611.0 143.0 670.0 50.0"/>
    <path d="M675.0 50.0Q617.0 143.0 675.0 236.0Q713.0 346.0 675.0 457.0Q665.0 546.0 675.0 635.0Q653.0 734.0 675.0 833.0Q721.0 922.0 675.0 1010.0"/>
    <path d="M680.0 1010.0Q723.0 921.0 680.0 832.0Q655.0 733.0 680.0 634.0Q671.0 545.0 680.0 457.0Q720.0 346.0 680.0 236.0Q622.0 143.0 680.0 50.0"/>
    <path d="M685.0 50.0Q628.0 143.0 685.0 236.0Q727.0 347.0 685.0 457.0Q677.0 545.0 685.0 632.0Q656.0 732.0 685.0 832.0Q725.0 921.0 685.0 1010.0"/>
    <path d="M690.0 1010.0Q727.0 921.0 690.0 831.0Q658.0 731.0 690.0 631.0Q683.0 544.0 690.0 457.0Q734.0 347.0 690.0 236.0Q633.0 143.0 690.0 50.0"/>
    <path d="M695.0 50.0Q639.0 143.0 695.0 237.0Q740.0 347.0 695.0 457.0Q688.0 544.0 695.0 630.0Q660.0 730.0 695.0 830.0Q729.0 920.0 695.0 1010.0"/>
    <path d="M700.0 1010.0Q731.0 920.0 700.0 830.0Q662.0 729.0 700.0 629.0Q694.0 543.0 700.0 457.0Q747.0 347.0 700.0 237.0Q644.0 143.0 700.0 50.0"/>
    <path d="M705.0 50.0Q650.0 144.0 705.0 237.0Q754.0 347.0 705.0 457.0Q700.0 543.0 705.0 628.0Q664.0 728.0 705.0 829.0Q734.0 919.0 705.0 1010.0"/>
    <path d="M710.0 1010.0Q736.0 919.0 710.0 828.0Q666.0 728.0 710.0 627.0Q706.0 542.0 710.0 458.0Q760.0 347.0 710.0 237.0Q655.0 144.0 710.0 50.0"/>
    <path d="M715.0 50.0Q660.0 144.0 715.0 238.0Q767.0 348.0 715.0 458.0Q711.0 542.0 715.0 626.0Q668.0 727.0 715.0 828.0Q738.0 919.0 715.0 1010.0"/>
    <path d="M720.0 1010.0Q740.0 918.0 720.0 827.0Q670.0 726.0 720.0 625.0Q717.0 541.0 720.0 458.0Q774.0 348.0 720.0 238.0Q666.0 144.0 720.0 50.0"/>
    <path d="M725.0 50.0Q671.0 144.0 725.0 238.0Q780.0 348.0 725.0 458.0Q723.0 541.0 725.0 624.0Q673.0 725.0 725.0 826.0Q743.0 918.0 725.0 1010.0"/>
    <path d="M730.0 1010.0Q745.0 918.0 730.0 826.0Q675.0 724.0 730.0 623.0Q728.0 541.0 730.0 458.0Q787.0 348.0 730.0 238.0Q677.0 144.0 730.0 50.0"/>
    <path d="M735.0 50.0Q682.0 144.0 735.0 239.0Q793.0 348.0 735.0 458.0Q734.0 540.0 735.0 622.0Q677.0 724.0 735.0 825.0Q748.0 918.0 735.0 1010.0"/>
    <path d="M740.0 1010.0Q750.0 917.0 740.0 825.0Q680.0 723.0 740.0 621.0Q740.0 540.0 740.0 458.0Q799.0 348.0 740.0 239.0Q687.0 144.0 740.0 50.0"/>
    <path d="M745.0 50.0Q693.0 144.0 745.0 239.0Q806.0 349.0 745.0 458.0Q745.0 539.0 745.0 620.0Q683.0 722.0 745.0 824.0Q753.0 917.0 745.0 1010.0"/>
    <path d="M750.0 1010.0Q756.0 917.0 750.0 824.0Q686.0 722.0 750.0 620.0Q751.0 539.0 750.0 458.0Q812.0 349.0 750.0 239.0Q698.0 145.0 750.0 50.0"/>
    <path d="M755.0 50.0Q703.0 145.0 755.0 239.0Q818.0 349.0 755.0 459.0Q756.0 539.0 755.0 619.0Q689.0 721.0 755.0 823.0Q759.0 917.0 755.0 1010.0"/>
    <path d="M760.0 1010.0Q763.0 916.0 760.0 823.0Q692.0 721.0 760.0 618.0Q761.0 539.0 760.0 459.0Q824.0 349.0 760.0 239.0Q709.0 145.0 760.0 50.0"/>
    <path d="M765.0 50.0Q714.0 145.0 765.0 239.0Q830.0 349.0 765.0 459.0Q767.0 538.0 765.0 618.0Q696.0 720.0 765.0 823.0Q766.0 916.0 765.0 1010.0"/>
    <path d="M770.0 1010.0Q770.0 916.0 770.0 822.0Q699.0 720.0 770.0 617.0Q772.0 538.0 770.0 459.0Q835.0 349.0 770.0 240.0Q719.0 145.0 770.0 50.0"/>
    <path d="M775.0 50.0Q724.0 145.0 775.0 240.0Q841.0 349.0 775.0 459.0Q777.0 538.0 775.0 617.0Q703.0 719.0 775.0 822.0Q774.0 916.0 775.0 1010.0"/>
    <path d="M780.0 1010.0Q778.0 916.0 780.0 822.0Q707.0 719.0 780.0 617.0Q783.0 538.0 780.0 459.0Q846.0 349.0 780.0 240.0Q730.0 145.0 780.0 50.0"/>
    <path d="M785.0 50.0Q735.0 145.0 785.0 240.0Q852.0 349.0 785.0 459.0Q788.0 538.0 785.0 616.0Q711.0 719.0 785.0 822.0Q782.0 916.0 785.0 1010.0"/>
    <path d="M790.0 1010.0Q787.0 916.0 790.0 821.0Q716.0 719.0 790.0 616.0Q793.0 538.0 790.0 459.0Q857.0 349.0 790.0 240.0Q740.0 145.0 790.0 50.0"/>
    <path d="M795.0 50.0Q745.0 145.0 795.0 240.0Q862.0 349.0 795.0 459.0Q798.0 537.0 795.0 616.0Q721.0 719.0 795.0 821.0Q791.0 916.0 795.0 1010.0"/>
    <path d="M800.0 1010.0Q796.0 916.0 800.0 821.0Q725.0 719.0 800.0 616.0Q803.0 537.0 800.0 459.0Q867.0 349.0 800.0 240.0Q750.0 145.0 800.0 50.0"/>
    <path d="M805.0 50.0Q755.0 145.0 805.0 240.0Q872.0 349.0 805.0 459.0Q808.0 537.0 805.0 616.0Q730.0 719.0 805.0 821.0Q801.0 916.0 805.0 1010.0"/>
    <path d="M810.0 1010.0Q806.0 916.0 810.0 821.0Q736.0 719.0 810.0 616.0Q813.0 537.0 810.0 459.0Q877.0 349.0 810.0 240.0Q760.0 145.0 810.0 50.0"/>
    <path d="M815.0 50.0Q765.0 145.0 815.0 240.0Q882.0 349.0 815.0 459.0Q818.0 537.0 815.0 616.0Q741.0 719.0 815.0 821.0Q811.0 916.0 815.0 1010.0"/>
    <path d="M820.0 1010.0Q817.0 916.0 820.0 821.0Q747.0 719.0 820.0 616.0Q823.0 538.0 820.0 459.0Q886.0 349.0 820.0 240.0Q769.0 145.0 820.0 50.0"/>
    <path d="M825.0 50.0Q774.0 145.0 825.0 240.0Q890.0 349.0 825.0 459.0Q828.0 538.0 825.0 616.0Q753.0 719.0 825.0 821.0Q822.0 915.0 825.0 1010.0"/>
    <path d="M830.0 1010.0Q827.0 915.0 830.0 821.0Q759.0 719.0 830.0 616.0Q833.0 538.0 830.0 459.0Q894.0 349.0 830.0 240.0Q778.0 145.0 830.0 50.0"/>
    <path d="M835.0 50.0Q783.0 145.0 835.0 240.0Q898.0 349.0 835.0 459.0Q837.0 538.0 835.0 617.0Q766.0 719.0 835.0 820.0Q832.0 915.0 835.0 1010.0"/>
    <path d="M840.0 1010.0Q837.0 915.0 840.0 820.0Q773.0 719.0 840.0 617.0Q842.0 538.0 840.0 459.0Q901.0 349.0 840.0 240.0Q787.0 145.0 840.0 50.0"/>
    <path d="M845.0 50.0Q791.0 145.0 845.0 240.0Q904.0 350.0 845.0 459.0Q847.0 538.0 845.0 617.0Q780.0 718.0 845.0 820.0Q843.0 915.0 845.0 1010.0"/>
    <path d="M850.0 1010.0Q848.0 915.0 850.0 819.0Q787.0 718.0 850.0 617.0Q852.0 538.0 850.0 458.0Q907.0 350.0 850.0 241.0Q796.0 145.0 850.0 50.0"/>
    <path d="M855.0 50.0Q800.0 145.0 855.0 241.0Q910.0 350.0 855.0 458.0Q856.0 538.0 855.0 618.0Q795.0 718.0 855.0 819.0Q854.0 914.0 855.0 1010.0"/>
    <path d="M860.0 1010.0Q859.0 914.0 860.0 818.0Q802.0 718.0 860.0 618.0Q861.0 538.0 860.0 458.0Q912.0 350.0 860.0 241.0Q804.0 146.0 860.0 50.0"/>
    <path d="M865.0 50.0Q807.0 146.0 865.0 241.0Q915.0 350.0 865.0 458.0Q865.0 538.0 865.0 618.0Q810.0 718.0 865.0 818.0Q865.0 914.0 865.0 1010.0"/>
    <path d="M870.0 1010.0Q870.0 914.0 870.0 817.0Q819.0 718.0 870.0 619.0Q870.0 538.0 870.0 458.0Q917.0 350.0 870.0 241.0Q811.0 146.0 870.0 50.0"/>
    <path d="M875.0 50.0Q815.0 146.0 875.0 242.0Q919.0 350.0 875.0 458.0Q875.0 539.0 875.0 619.0Q827.0 718.0 875.0 817.0Q876.0 913.0 875.0 1010.0"/>
    <path d="M880.0 1010.0Q881.0 913.0 880.0 816.0Q836.0 718.0 880.0 620.0Q879.0 539.0 880.0 458.0Q921.0 350.0 880.0 242.0Q819.0 146.0 880.0 50.0"/>
    <path d="M885.0 50.0Q822.0 146.0 885.0 242.0Q922.0 350.0 885.0 458.0Q884.0 539.0 885.0 620.0Q844.0 718.0 885.0 816.0Q887.0 913.0 885.0 1010.0"/>
    <path d="M890.0 1010.0Q892.0 912.0 890.0 815.0Q853.0 718.0 890.0 621.0Q888.0 539.0 890.0 458.0Q924.0 350.0 890.0 242.0Q826.0 146.0 890.0 50.0"/>
    <path d="M895.0 50.0Q829.0 146.0 895.0 243.0Q925.0 350.0 895.0 457.0Q893.0 539.0 895.0 621.0Q862.0 718.0 895.0 814.0Q898.0 912.0 895.0 1010.0"/>
    <path d="M900.0 1010.0Q904.0 912.0 900.0 813.0Q871.0 718.0 900.0 622.0Q897.0 539.0 900.0 457.0Q927.0 350.0 900.0 243.0Q833.0 147.0 900.0 50.0"/>
    <path d="M905.0 50.0Q836.0 147.0 905.0 243.0Q928.0 350.0 905.0 457.0Q901.0 540.0 905.0 622.0Q880.0 718.0 905.0 813.0Q909.0 911.0 905.0 1010.0"/>
    <path d="M910.0 1010.0Q915.0 911.0 910.0 812.0Q890.0 717.0 910.0 623.0Q906.0 540.0 910.0 457.0Q929.0 350.0 910.0 244.0Q840.0 147.0 910.0 50.0"/>
    <path d="M915.0 50.0Q843.0 147.0 915.0 244.0Q930.0 350.0 915.0 457.0Q910.0 540.0 915.0 623.0Q899.0 717.0 915.0 811.0Q921.0 911.0 915.0 1010.0"/>
    <path d="M920.0 1010.0Q926.0 910.0 920.0 811.0Q908.0 717.0 920.0 624.0Q915.0 540.0 920.0 457.0Q932.0 350.0 920.0 244.0Q846.0 147.0 920.0 50.0"/>
    <path d="M925.0 50.0Q850.0 147.0 925.0 244.0Q933.0 350.0 925.0 456.0Q919.0 540.0 925.0 624.0Q917.0 717.0 925.0 810.0Q932.0 910.0 925.0 1010.0"/>
    <path d="M930.0 1010.0Q938.0 910.0 930.0 809.0Q927.0 717.0 930.0 625.0Q924.0 541.0 930.0 456.0Q934.0 351.0 930.0 245.0Q853.0 147.0 930.0 50.0"/>
    <path d="M935.0 50.0Q857.0 148.0 935.0 245.0Q935.0 351.0 935.0 456.0Q928.0 541.0 935.0 625.0Q936.0 717.0 935.0 808.0Q944.0 909.0 935.0 1010.0"/>
    <path d="M940.0 1010.0Q949.0 909.0 940.0 808.0Q945.0 717.0 940.0 626.0Q933.0 541.0 940.0 456.0Q936.0 351.0 940.0 245.0Q860.0 148.0 940.0 50.0"/>
    <path d="M945.0 50.0Q864.0 148.0 945.0 246.0Q938.0 351.0 945.0 456.0Q937.0 541.0 945.0 626.0Q954.0 717.0 945.0 807.0Q955.0 908.0 945.0 1010.0"/>
    <path d="M950.0 1010.0Q960.0 908.0 950.0 806.0Q963.0 717.0 950.0 627.0Q942.0 541.0 950.0 456.0Q939.0 351.0 950.0 246.0Q867.0 148.0 950.0 50.0"/>
    <path d="M955.0 50.0Q871.0 148.0 955.0 246.0Q941.0 351.0 955.0 456.0Q946.0 542.0 955.0 627.0Q972.0 717.0 955.0 806.0Q966.0 908.0 955.0 1010.0"/>
    <path d="M960.0 1010.0Q972.0 907.0 960.0 805.0Q981.0 716.0 960.0 628.0Q950.0 542.0 960.0 455.0Q942.0 351.0 960.0 246.0Q874.0 148.0 960.0 50.0"/>
    <path d="M965.0 50.0Q878.0 148.0 965.0 247.0Q944.0 351.0 965.0 455.0Q955.0 542.0 965.0 628.0Q989.0 716.0 965.0 804.0Q977.0 907.0 965.0 1010.0"/>
    <path d="M970.0 1010.0Q983.0 907.0 970.0 804.0Q998.0 716.0 970.0 629.0Q960.0 542.0 970.0 455.0Q946.0 351.0 970.0 247.0Q882.0 148.0 970.0 50.0"/>
    <path d="M975.0 50.0Q886.0 149.0 975.0 247.0Q948.0 351.0 975.0 455.0Q964.0 542.0 975.0 629.0Q1006.0 716.0 975.0 803.0Q988.0 907.0 975.0 1010.0"/>
    <path d="M980.0 1010.0Q994.0 906.0 980.0 803.0Q1014.0 716.0 980.0 630.0Q969.0 542.0 980.0 455.0Q951.0 351.0 980.0 247.0Q889.0 149.0 980.0 50.0"/>
    <path d="M985.0 50.0Q893.0 149.0 985.0 248.0Q953.0 351.0 985.0 455.0Q973.0 542.0 985.0 630.0Q1022.0 716.0 985.0 802.0Q999.0 906.0 985.0 1010.0"/>
    <path d="M990.0 1010.0Q1005.0 906.0 990.0 802.0Q1029.0 716.0 990.0 630.0Q978.0 542.0 990.0 455.0Q956.0 351.0 990.0 248.0Q897.0 149.0 990.0 50.0"/>
    <path d="M995.0 50.0Q902.0 149.0 995.0 248.0Q959.0 351.0 995.0 455.0Q983.0 543.0 995.0 631.0Q1037.0 716.0 995.0 801.0Q1010.0 906.0 995.0 1010.0"/>
    <path d="M1000.0 1010.0Q1015.0 905.0 1000.0 801.0Q1044.0 716.0 1000.0 631.0Q987.0 543.0 1000.0 455.0Q962.0 351.0 1000.0 248.0Q906.0 149.0 1000.0 50.0"/>
    <path d="M1005.0 50.0Q910.0 149.0 1005.0 248.0Q965.0 351.0 1005.0 455.0Q992.0 543.0 1005.0 631.0Q1051.0 716.0 1005.0 801.0Q1021.0 905.0 1005.0 1010.0"/>
    <path d="M1010.0 1010.0Q1026.0 905.0 1010.0 800.0Q1057.0 716.0 1010.0 631.0Q997.0 543.0 1010.0 454.0Q969.0 351.0 1010.0 248.0Q915.0 149.0 1010.0 50.0"/>
    <path d="M1015.0 50.0Q919.0 149.0 1015.0 248.0Q973.0 351.0 1015.0 454.0Q1002.0 543.0 1015.0 631.0Q1064.0 716.0 1015.0 800.0Q1031.0 905.0 1015.0 1010.0"/>
    <path d="M1020.0 1010.0Q1036.0 905.0 1020.0 800.0Q1070.0 716.0 1020.0 632.0Q1007.0 543.0 1020.0 454.0Q977.0 351.0 1020.0 248.0Q924.0 149.0 1020.0 50.0"/>
    <path d="M1025.0 50.0Q928.0 149.0 1025.0 248.0Q981.0 351.0 1025.0 454.0Q1012.0 543.0 1025.0 632.0Q1075.0 716.0 1025.0 800.0Q1041.0 905.0 1025.0 1010.0"/>
    <path d="M1030.0 1010.0Q1047.0 905.0 1030.0 800.0Q1081.0 716.0 1030.0 632.0Q1017.0 543.0 1030.0 454.0Q986.0 351.0 1030.0 249.0Q933.0 149.0 1030.0 50.0"/>
    <path d="M1035.0 50.0Q938.0 149.0 1035.0 249.0Q991.0 351.0 1035.0 454.0Q1022.0 543.0 1035.0 632.0Q1086.0 716.0 1035.0 800.0Q1052.0 905.0 1035.0 1010.0"/>
    <path d="M1040.0 1010.0Q1057.0 905.0 1040.0 800.0Q1091.0 716.0 1040.0 632.0Q1027.0 543.0 1040.0 454.0Q996.0 351.0 1040.0 249.0Q943.0 149.0 1040.0 50.0"/>
    <path d="M1045.0 50.0Q948.0 149.0 1045.0 249.0Q1001.0 351.0 1045.0 454.0Q1031.0 543.0 1045.0 632.0Q1096.0 716.0 1045.0 800.0Q1062.0 905.0 1045.0 1010.0"/>
    <path d="M1050.0 1010.0Q1066.0 905.0 1050.0 800.0Q1101.0 716.0 1050.0 632.0Q1036.0 543.0 1050.0 454.0Q1006.0 351.0 1050.0 249.0Q954.0 149.0 1050.0 50.0"/>
    <path d="M1055.0 50.0Q959.0 149.0 1055.0 249.0Q1011.0 351.0 1055.0 454.0Q1041.0 543.0 1055.0 632.0Q1106.0 716.0 1055.0 800.0Q1071.0 905.0 1055.0 1010.0"/>
    <path d="M1060.0 1010.0Q1076.0 905.0 1060.0 800.0Q1110.0 716.0 1060.0 632.0Q1045.0 543.0 1060.0 454.0Q1016.0 351.0 1060.0 249.0Q965.0 149.0 1060.0 50.0"/>
    <path d="M1065.0 50.0Q971.0 149.0 1065.0 249.0Q1021.0 351.0 1065.0 453.0Q1049.0 542.0 1065.0 631.0Q1115.0 716.0 1065.0 800.0Q1080.0 905.0 1065.0 1010.0"/>
    <path d="M1070.0 1010.0Q1085.0 905.0 1070.0 800.0Q1120.0 716.0 1070.0 631.0Q1053.0 542.0 1070.0 453.0Q1026.0 351.0 1070.0 249.0Q977.0 150.0 1070.0 50.0"/>
    <path d="M1075.0 50.0Q984.0 150.0 1075.0 249.0Q1031.0 351.0 1075.0 452.0Q1057.0 542.0 1075.0 631.0Q1125.0 716.0 1075.0 801.0Q1089.0 905.0 1075.0 1010.0"/>
    <path d="M1080.0 1010.0Q1094.0 905.0 1080.0 801.0Q1129.0 716.0 1080.0 631.0Q1061.0 541.0 1080.0 452.0Q1036.0 351.0 1080.0 249.0Q991.0 150.0 1080.0 50.0"/>
    <path d="M1085.0 50.0Q998.0 150.0 1085.0 250.0Q1042.0 350.0 1085.0 451.0Q1065.0 541.0 1085.0 631.0Q1134.0 716.0 1085.0 801.0Q1098.0 906.0 1085.0 1010.0"/>
    <path d="M1090.0 1010.0Q1102.0 906.0 1090.0 801.0Q1138.0 716.0 1090.0 631.0Q1068.0 541.0 1090.0 451.0Q1047.0 350.0 1090.0 250.0Q1005.0 150.0 1090.0 50.0"/>
    <path d="M1095.0 50.0Q1012.0 150.0 1095.0 250.0Q1052.0 350.0 1095.0 450.0Q1071.0 540.0 1095.0 630.0Q1143.0 716.0 1095.0 802.0Q1106.0 906.0 1095.0 1010.0"/>
    <path d="M1100.0 1010.0Q1110.0 906.0 1100.0 802.0Q1147.0 716.0 1100.0 630.0Q1074.0 540.0 1100.0 449.0Q1057.0 350.0 1100.0 251.0Q1020.0 150.0 1100.0 50.0"/>
    <path d="M1105.0 50.0Q1027.0 150.0 1105.0 251.0Q1063.0 350.0 1105.0 448.0Q1078.0 539.0 1105.0 630.0Q1152.0 716.0 1105.0 802.0Q1114.0 906.0 1105.0 1010.0"/>
    <path d="M1110.0 1010.0Q1118.0 906.0 1110.0 803.0Q1156.0 716.0 1110.0 630.0Q1080.0 538.0 1110.0 447.0Q1068.0 349.0 1110.0 251.0Q1035.0 151.0 1110.0 50.0"/>
    <path d="M1115.0 50.0Q1043.0 151.0 1115.0 252.0Q1073.0 349.0 1115.0 446.0Q1083.0 538.0 1115.0 629.0Q1160.0 716.0 1115.0 803.0Q1122.0 907.0 1115.0 1010.0"/>
    <path d="M1120.0 1010.0Q1125.0 907.0 1120.0 804.0Q1165.0 716.0 1120.0 629.0Q1086.0 537.0 1120.0 445.0Q1079.0 349.0 1120.0 252.0Q1051.0 151.0 1120.0 50.0"/>
    <path d="M1125.0 50.0Q1059.0 151.0 1125.0 252.0Q1084.0 348.0 1125.0 444.0Q1089.0 536.0 1125.0 629.0Q1169.0 716.0 1125.0 804.0Q1129.0 907.0 1125.0 1010.0"/>
    <path d="M1130.0 1010.0Q1133.0 907.0 1130.0 804.0Q1173.0 716.0 1130.0 628.0Q1091.0 536.0 1130.0 443.0Q1090.0 348.0 1130.0 253.0Q1068.0 151.0 1130.0 50.0"/>
    <path d="M1135.0 50.0Q1076.0 152.0 1135.0 253.0Q1095.0 348.0 1135.0 442.0Q1094.0 535.0 1135.0 628.0Q1178.0 716.0 1135.0 805.0Q1136.0 907.0 1135.0 1010.0"/>
    <path d="M1140.0 1010.0Q1140.0 908.0 1140.0 805.0Q1182.0 717.0 1140.0 628.0Q1096.0 534.0 1140.0 441.0Q1100.0 347.0 1140.0 254.0Q1085.0 152.0 1140.0 50.0"/>
    <path d="M1145.0 50.0Q1093.0 152.0 1145.0 254.0Q1106.0 347.0 1145.0 440.0Q1099.0 534.0 1145.0 627.0Q1186.0 717.0 1145.0 806.0Q1144.0 908.0 1145.0 1010.0"/>
    <path d="M1150.0 1010.0Q1147.0 908.0 1150.0 806.0Q1190.0 717.0 1150.0 627.0Q1101.0 533.0 1150.0 439.0Q1111.0 347.0 1150.0 255.0Q1102.0 152.0 1150.0 50.0"/>
    <path d="M1155.0 50.0Q1110.0 153.0 1155.0 255.0Q1117.0 346.0 1155.0 438.0Q1104.0 532.0 1155.0 627.0Q1194.0 717.0 1155.0 807.0Q1151.0 908.0 1155.0 1010.0"/>
    <path d="M1160.0 1010.0Q1154.0 909.0 1160.0 807.0Q1199.0 717.0 1160.0 626.0Q1106.0 531.0 1160.0 436.0Q1122.0 346.0 1160.0 255.0Q1119.0 153.0 1160.0 50.0"/>
    <path d="M1165.0 50.0Q1127.0 153.0 1165.0 256.0Q1127.0 346.0 1165.0 435.0Q1108.0 531.0 1165.0 626.0Q1203.0 717.0 1165.0 808.0Q1158.0 909.0 1165.0 1010.0"/>
    <path d="M1170.0 1010.0Q1162.0 909.0 1170.0 808.0Q1207.0 717.0 1170.0 626.0Q1111.0 530.0 1170.0 434.0Q1133.0 345.0 1170.0 256.0Q1136.0 153.0 1170.0 50.0"/>
    <path d="M1175.0 50.0Q1144.0 153.0 1175.0 257.0Q1138.0 345.0 1175.0 433.0Q1113.0 529.0 1175.0 625.0Q1211.0 717.0 1175.0 809.0Q1165.0 909.0 1175.0 1010.0"/>
    <path d="M1180.0 1010.0Q1169.0 910.0 1180.0 809.0Q1216.0 717.0 1180.0 625.0Q1116.0 529.0 1180.0 432.0Q1144.0 345.0 1180.0 257.0Q1153.0 154.0 1180.0 50.0"/>
    <path d="M1185.0 50.0Q1161.0 154.0 1185.0 258.0Q1149.0 344.0 1185.0 431.0Q1118.0 528.0 1185.0 625.0Q1220.0 717.0 1185.0 809.0Q1173.0 910.0 1185.0 1010.0"/>
    <path d="M1190.0 1010.0Q1176.0 910.0 1190.0 810.0Q1224.0 717.0 1190.0 625.0Q1121.0 527.0 1190.0 430.0Q1154.0 344.0 1190.0 258.0Q1169.0 154.0 1190.0 50.0"/>
    <path d="M1195.0 50.0Q1177.0 154.0 1195.0 258.0Q1160.0 344.0 1195.0 429.0Q1124.0 527.0 1195.0 624.0Q1229.0 717.0 1195.0 810.0Q1180.0 910.0 1195.0 1010.0"/>
    <path d="M1200.0 1010.0Q1184.0 910.0 1200.0 811.0Q1233.0 717.0 1200.0 624.0Q1127.0 526.0 1200.0 428.0Q1165.0 343.0 1200.0 259.0Q1185.0 154.0 1200.0 50.0"/>
    <path d="M1205.0 50.0Q1193.0 155.0 1205.0 259.0Q1170.0 343.0 1205.0 427.0Q1130.0 525.0 1205.0 624.0Q1237.0 717.0 1205.0 811.0Q1188.0 911.0 1205.0 1010.0"/>
    <path d="M1210.0 1010.0Q1192.0 911.0 1210.0 811.0Q1242.0 717.0 1210.0 623.0Q1133.0 525.0 1210.0 426.0Q1176.0 343.0 1210.0 259.0Q1201.0 155.0 1210.0 50.0"/>
    <path d="M1215.0 50.0Q1208.0 155.0 1215.0 260.0Q1181.0 343.0 1215.0 425.0Q1136.0 524.0 1215.0 623.0Q1246.0 718.0 1215.0 812.0Q1196.0 911.0 1215.0 1010.0"/>
    <path d="M1220.0 1010.0Q1200.0 911.0 1220.0 812.0Q1251.0 718.0 1220.0 623.0Q1139.0 524.0 1220.0 425.0Q1186.0 342.0 1220.0 260.0Q1215.0 155.0 1220.0 50.0"/>
    <path d="M1225.0 50.0Q1223.0 155.0 1225.0 260.0Q1191.0 342.0 1225.0 424.0Q1143.0 523.0 1225.0 623.0Q1255.0 718.0 1225.0 812.0Q1204.0 911.0 1225.0 1010.0"/>
    <path d="M1230.0 1010.0Q1208.0 911.0 1230.0 813.0Q1260.0 718.0 1230.0 623.0Q1146.0 523.0 1230.0 423.0Q1197.0 342.0 1230.0 261.0Q1230.0 155.0 1230.0 50.0"/>
    <path d="M1235.0 50.0Q1236.0 155.0 1235.0 261.0Q1202.0 342.0 1235.0 423.0Q1150.0 523.0 1235.0 622.0Q1264.0 718.0 1235.0 813.0Q1213.0 911.0 1235.0 1010.0"/>
    <path d="M1240.0 1010.0Q1217.0 912.0 1240.0 813.0Q1269.0 718.0 1240.0 622.0Q1154.0 522.0 1240.0 422.0Q1207.0 342.0 1240.0 261.0Q1243.0 156.0 1240.0 50.0"/>
    <path d="M1245.0 50.0Q1249.0 156.0 1245.0 261.0Q1212.0 341.0 1245.0 422.0Q1158.0 522.0 1245.0 622.0Q1274.0 718.0 1245.0 813.0Q1221.0 912.0 1245.0 1010.0"/>
    <path d="M1250.0 1010.0Q1226.0 912.0 1250.0 813.0Q1279.0 718.0 1250.0 622.0Q1162.0 522.0 1250.0 421.0Q1217.0 341.0 1250.0 261.0Q1255.0 156.0 1250.0 50.0"/>
    <path d="M1255.0 50.0Q1261.0 156.0 1255.0 261.0Q1222.0 341.0 1255.0 421.0Q1166.0 522.0 1255.0 622.0Q1283.0 718.0 1255.0 814.0Q1231.0 912.0 1255.0 1010.0"/>
    <path d="M1260.0 1010.0Q1235.0 912.0 1260.0 814.0Q1288.0 718.0 1260.0 622.0Q1171.0 521.0 1260.0 421.0Q1227.0 341.0 1260.0 261.0Q1267.0 156.0 1260.0 50.0"/>
    <path d="M1265.0 50.0Q1272.0 156.0 1265.0 262.0Q1233.0 341.0 1265.0 421.0Q1176.0 521.0 1265.0 622.0Q1293.0 718.0 1265.0 814.0Q1240.0 912.0 1265.0 1010.0"/>
    <path d="M1270.0 1010.0Q1245.0 912.0 1270.0 814.0Q1298.0 718.0 1270.0 622.0Q1181.0 521.0 1270.0 421.0Q1238.0 341.0 1270.0 262.0Q1277.0 156.0 1270.0 50.0"/>
    <path d="M1275.0 50.0Q1282.0 156.0 1275.0 262.0Q1243.0 341.0 1275.0 421.0Q1186.0 521.0 1275.0 622.0Q1303.0 718.0 1275.0 814.0Q1250.0 912.0 1275.0 1010.0"/>
    <path d="M1280.0 1010.0Q1255.0 912.0 1280.0 814.0Q1308.0 718.0 1280.0 622.0Q1191.0 521.0 1280.0 421.0Q1248.0 341.0 1280.0 262.0Q1287.0 156.0 1280.0 50.0"/>
    <path d="M1285.0 50.0Q1292.0 156.0 1285.0 261.0Q1252.0 341.0 1285.0 421.0Q1196.0 521.0 1285.0 622.0Q1313.0 718.0 1285.0 814.0Q1261.0 912.0 1285.0 1010.0"/>
    <path d="M1290.0 1010.0Q1266.0 912.0 1290.0 814.0Q1317.0 718.0 1290.0 622.0Q1202.0 521.0 1290.0 421.0Q1257.0 341.0 1290.0 261.0Q1298.0 156.0 1290.0 50.0"/>
    <path d="M1295.0 50.0Q1303.0 155.0 1295.0 261.0Q1262.0 341.0 1295.0 421.0Q1208.0 521.0 1295.0 622.0Q1321.0 718.0 1295.0 814.0Q1272.0 912.0 1295.0 1010.0"/>
    <path d="M1300.0 1010.0Q1278.0 912.0 1300.0 814.0Q1325.0 718.0 1300.0 622.0Q1215.0 521.0 1300.0 420.0Q1267.0 340.0 1300.0 260.0Q1309.0 155.0 1300.0 50.0"/>
    <path d="M1305.0 50.0Q1314.0 155.0 1305.0 260.0Q1271.0 340.0 1305.0 420.0Q1222.0 521.0 1305.0 622.0Q1329.0 718.0 1305.0 815.0Q1284.0 912.0 1305.0 1010.0"/>
    <path d="M1310.0 1010.0Q1290.0 912.0 1310.0 815.0Q1333.0 718.0 1310.0 622.0Q1229.0 521.0 1310.0 420.0Q1276.0 340.0 1310.0 259.0Q1320.0 155.0 1310.0 50.0"/>
    <path d="M1315.0 50.0Q1326.0 154.0 1315.0 258.0Q1280.0 339.0 1315.0 420.0Q1237.0 521.0 1315.0 622.0Q1336.0 718.0 1315.0 815.0Q1297.0 913.0 1315.0 1010.0"/>
    <path d="M1320.0 1010.0Q1303.0 913.0 1320.0 816.0Q1340.0 719.0 1320.0 621.0Q1245.0 521.0 1320.0 420.0Q1285.0 339.0 1320.0 257.0Q1332.0 154.0 1320.0 50.0"/>
    <path d="M1325.0 50.0Q1338.0 153.0 1325.0 256.0Q1289.0 338.0 1325.0 419.0Q1253.0 520.0 1325.0 621.0Q1343.0 719.0 1325.0 816.0Q1310.0 913.0 1325.0 1010.0"/>
    <path d="M1330.0 1010.0Q1317.0 913.0 1330.0 817.0Q1346.0 719.0 1330.0 621.0Q1261.0 520.0 1330.0 419.0Q1293.0 337.0 1330.0 255.0Q1345.0 153.0 1330.0 50.0"/>
    <path d="M1335.0 50.0Q1351.0 152.0 1335.0 254.0Q1298.0 337.0 1335.0 419.0Q1270.0 520.0 1335.0 621.0Q1349.0 719.0 1335.0 817.0Q1324.0 914.0 1335.0 1010.0"/>
    <path d="M1340.0 1010.0Q1331.0 914.0 1340.0 818.0Q1351.0 719.0 1340.0 621.0Q1279.0 520.0 1340.0 418.0Q1302.0 336.0 1340.0 253.0Q1357.0 152.0 1340.0 50.0"/>
    <path d="M1345.0 50.0Q1364.0 151.0 1345.0 252.0Q1306.0 335.0 1345.0 418.0Q1288.0 519.0 1345.0 621.0Q1354.0 720.0 1345.0 818.0Q1339.0 914.0 1345.0 1010.0"/>
    <path d="M1350.0 1010.0Q1346.0 914.0 1350.0 819.0Q1356.0 720.0 1350.0 621.0Q1297.0 519.0 1350.0 418.0Q1310.0 334.0 1350.0 251.0Q1371.0 150.0 1350.0 50.0"/>
    <path d="M1355.0 50.0Q1377.0 150.0 1355.0 249.0Q1314.0 333.0 1355.0 417.0Q1307.0 519.0 1355.0 620.0Q1358.0 720.0 1355.0 820.0Q1354.0 915.0 1355.0 1010.0"/>
    <path d="M1360.0 1010.0Q1362.0 915.0 1360.0 820.0Q1361.0 720.0 1360.0 620.0Q1316.0 519.0 1360.0 417.0Q1318.0 332.0 1360.0 248.0Q1384.0 149.0 1360.0 50.0"/>
    <path d="M1365.0 50.0Q1391.0 148.0 1365.0 246.0Q1322.0 332.0 1365.0 417.0Q1326.0 518.0 1365.0 620.0Q1363.0 721.0 1365.0 821.0Q1369.0 916.0 1365.0 1010.0"/>
    <path d="M1370.0 1010.0Q1377.0 916.0 1370.0 822.0Q1365.0 721.0 1370.0 620.0Q1336.0 518.0 1370.0 416.0Q1326.0 331.0 1370.0 245.0Q1398.0 148.0 1370.0 50.0"/>
    <path d="M1375.0 50.0Q1404.0 147.0 1375.0 244.0Q1330.0 330.0 1375.0 416.0Q1346.0 518.0 1375.0 620.0Q1367.0 721.0 1375.0 822.0Q1385.0 916.0 1375.0 1010.0"/>
    <path d="M1380.0 1010.0Q1393.0 917.0 1380.0 823.0Q1369.0 721.0 1380.0 620.0Q1356.0 517.0 1380.0 415.0Q1334.0 329.0 1380.0 242.0Q1411.0 146.0 1380.0 50.0"/>
    <path d="M1385.0 50.0Q1418.0 145.0 1385.0 240.0Q1338.0 328.0 1385.0 415.0Q1367.0 517.0 1385.0 619.0Q1371.0 722.0 1385.0 824.0Q1401.0 917.0 1385.0 1010.0"/>
    <path d="M1390.0 1010.0Q1409.0 917.0 1390.0 825.0Q1373.0 722.0 1390.0 619.0Q1377.0 517.0 1390.0 414.0Q1342.0 327.0 1390.0 239.0Q1425.0 144.0 1390.0 50.0"/>
    <path d="M1395.0 50.0Q1432.0 144.0 1395.0 237.0Q1346.0 326.0 1395.0 414.0Q1387.0 517.0 1395.0 619.0Q1374.0 722.0 1395.0 825.0Q1417.0 918.0 1395.0 1010.0"/>
    <path d="M1400.0 1010.0Q1425.0 918.0 1400.0 826.0Q1376.0 723.0 1400.0 619.0Q1397.0 516.0 1400.0 414.0Q1350.0 325.0 1400.0 236.0Q1439.0 143.0 1400.0 50.0"/>
    <path d="M1405.0 50.0Q1446.0 142.0 1405.0 234.0Q1354.0 324.0 1405.0 413.0Q1407.0 516.0 1405.0 619.0Q1378.0 723.0 1405.0 827.0Q1433.0 918.0 1405.0 1010.0"/>
    <path d="M1410.0 1010.0Q1441.0 919.0 1410.0 828.0Q1380.0 723.0 1410.0 618.0Q1417.0 516.0 1410.0 413.0Q1358.0 323.0 1410.0 233.0Q1453.0 141.0 1410.0 50.0"/>
    <path d="M1415.0 50.0Q1459.0 141.0 1415.0 231.0Q1362.0 322.0 1415.0 412.0Q1427.0 515.0 1415.0 618.0Q1382.0 723.0 1415.0 828.0Q1449.0 919.0 1415.0 1010.0"/>
    <path d="M1420.0 1010.0Q1457.0 920.0 1420.0 829.0Q1384.0 724.0 1420.0 618.0Q1437.0 515.0 1420.0 412.0Q1366.0 321.0 1420.0 230.0Q1466.0 140.0 1420.0 50.0"/>
    <path d="M1425.0 50.0Q1473.0 139.0 1425.0 228.0Q1370.0 320.0 1425.0 412.0Q1447.0 515.0 1425.0 618.0Q1387.0 724.0 1425.0 830.0Q1464.0 920.0 1425.0 1010.0"/>
    <path d="M1430.0 1010.0Q1472.0 920.0 1430.0 830.0Q1389.0 724.0 1430.0 618.0Q1456.0 514.0 1430.0 411.0Q1374.0 319.0 1430.0 227.0Q1480.0 139.0 1430.0 50.0"/>
    <path d="M1435.0 50.0Q1486.0 138.0 1435.0 226.0Q1378.0 318.0 1435.0 411.0Q1466.0 514.0 1435.0 618.0Q1391.0 724.0 1435.0 831.0Q1479.0 921.0 1435.0 1010.0"/>
    <path d="M1440.0 1010.0Q1487.0 921.0 1440.0 832.0Q1394.0 725.0 1440.0 618.0Q1475.0 514.0 1440.0 410.0Q1383.0 318.0 1440.0 225.0Q1493.0 137.0 1440.0 50.0"/>
    <path d="M1445.0 50.0Q1499.0 137.0 1445.0 223.0Q1387.0 317.0 1445.0 410.0Q1484.0 514.0 1445.0 617.0Q1396.0 725.0 1445.0 832.0Q1494.0 921.0 1445.0 1010.0"/>
    <path d="M1450.0 1010.0Q1501.0 921.0 1450.0 833.0Q1399.0 725.0 1450.0 617.0Q1492.0 514.0 1450.0 410.0Q1391.0 316.0 1450.0 222.0Q1506.0 136.0 1450.0 50.0"/>
    <path d="M1455.0 50.0Q1512.0 136.0 1455.0 221.0Q1395.0 315.0 1455.0 410.0Q1501.0 513.0 1455.0 617.0Q1402.0 725.0 1455.0 833.0Q1508.0 922.0 1455.0 1010.0"/>
    <path d="M1460.0 1010.0Q1515.0 922.0 1460.0 834.0Q1405.0 725.0 1460.0 617.0Q1509.0 513.0 1460.0 409.0Q1400.0 315.0 1460.0 220.0Q1518.0 135.0 1460.0 50.0"/>
    <path d="M1465.0 50.0Q1524.0 135.0 1465.0 220.0Q1404.0 314.0 1465.0 409.0Q1517.0 513.0 1465.0 617.0Q1409.0 726.0 1465.0 834.0Q1522.0 922.0 1465.0 1010.0"/>
    <path d="M1470.0 1010.0Q1528.0 922.0 1470.0 834.0Q1412.0 726.0 1470.0 617.0Q1524.0 513.0 1470.0 409.0Q1409.0 314.0 1470.0 219.0Q1530.0 134.0 1470.0 50.0"/>
    <path d="M1475.0 50.0Q1536.0 134.0 1475.0 218.0Q1413.0 313.0 1475.0 409.0Q1532.0 513.0 1475.0 617.0Q1416.0 726.0 1475.0 835.0Q1534.0 922.0 1475.0 1010.0"/>
    <path d="M1480.0 1010.0Q1540.0 923.0 1480.0 835.0Q1420.0 726.0 1480.0 617.0Q1539.0 513.0 1480.0 408.0Q1418.0 313.0 1480.0 218.0Q1541.0 134.0 1480.0 50.0"/>
    <path d="M1485.0 50.0Q1547.0 134.0 1485.0 217.0Q1423.0 313.0 1485.0 408.0Q1545.0 512.0 1485.0 617.0Q1424.0 726.0 1485.0 835.0Q1546.0 923.0 1485.0 1010.0"/>
    <path d="M1490.0 1010.0Q1552.0 923.0 1490.0 835.0Q1428.0 726.0 1490.0 617.0Q1551.0 512.0 1490.0 408.0Q1427.0 312.0 1490.0 217.0Q1552.0 133.0 1490.0 50.0"/>
    <path d="M1495.0 50.0Q1558.0 133.0 1495.0 216.0Q1432.0 312.0 1495.0 408.0Q1557.0 512.0 1495.0 617.0Q1432.0 726.0 1495.0 836.0Q1558.0 923.0 1495.0 1010.0"/>
    <path d="M1500.0 1010.0Q1563.0 923.0 1500.0 836.0Q1437.0 726.0 1500.0 617.0Q1563.0 512.0 1500.0 408.0Q1437.0 312.0 1500.0 216.0Q1563.0 133.0 1500.0 50.0"/>
    <path d="M1505.0 50.0Q1568.0 133.0 1505.0 216.0Q1442.0 312.0 1505.0 408.0Q1568.0 512.0 1505.0 617.0Q1442.0 726.0 1505.0 836.0Q1568.0 923.0 1505.0 1010.0"/>
  </g>
</svg>
