<svg version="1.1" width="1150" height="870" xmlns="http://www.w3.org/2000/svg">
  <!-- Seed: 7411706431419562480 -->
  <!-- Size: SvgSize.Size9x12 -->
  <!-- Params:
    draw: True
    pad_x: 50
    pad_y: 0
    row_range: [RangeInt] min: 3 max: 10
    col_range: [RangeInt] min: 5 max: 10
    wave_range: 100
    wave_y_range: 30
    step_size: 5
  -->
  <g stroke="black" fill="none">
    <path d="M100.0 50.0Q105.0 232.0 100.0 413.0Q95.0 617.0 100.0 820.0"/>
    <path d="M105.0 820.0Q100.0 617.0 105.0 413.0Q111.0 232.0 105.0 50.0"/>
    <path d="M110.0 50.0Q116.0 232.0 110.0 414.0Q105.0 617.0 110.0 820.0"/>
    <path d="M115.0 820.0Q110.0 617.0 115.0 415.0Q123.0 232.0 115.0 50.0"/>
    <path d="M120.0 50.0Q130.0 233.0 120.0 416.0Q116.0 618.0 120.0 820.0"/>
    <path d="M125.0 820.0Q121.0 618.0 125.0 417.0Q137.0 233.0 125.0 50.0"/>
    <path d="M130.0 50.0Q145.0 234.0 130.0 418.0Q127.0 619.0 130.0 820.0"/>
    <path d="M135.0 820.0Q133.0 620.0 135.0 420.0Q154.0 235.0 135.0 50.0"/>
    <path d="M140.0 50.0Q162.0 236.0 140.0 422.0Q139.0 621.0 140.0 820.0"/>
    <path d="M145.0 820.0Q144.0 622.0 145.0 424.0Q171.0 237.0 145.0 50.0"/>
    <path d="M150.0 50.0Q180.0 238.0 150.0 426.0Q150.0 623.0 150.0 820.0"/>
    <path d="M155.0 820.0Q156.0 624.0 155.0 428.0Q189.0 239.0 155.0 50.0"/>
    <path d="M160.0 50.0Q198.0 240.0 160.0 431.0Q162.0 625.0 160.0 820.0"/>
    <path d="M165.0 820.0Q168.0 626.0 165.0 433.0Q207.0 241.0 165.0 50.0"/>
    <path d="M170.0 50.0Q216.0 242.0 170.0 435.0Q174.0 627.0 170.0 820.0"/>
    <path d="M175.0 820.0Q180.0 628.0 175.0 437.0Q225.0 243.0 175.0 50.0"/>
    <path d="M180.0 50.0Q233.0 244.0 180.0 439.0Q186.0 629.0 180.0 820.0"/>
    <path d="M185.0 820.0Q191.0 630.0 185.0 440.0Q241.0 245.0 185.0 50.0"/>
    <path d="M190.0 50.0Q248.0 246.0 190.0 441.0Q197.0 631.0 190.0 820.0"/>
    <path d="M195.0 820.0Q202.0 631.0 195.0 442.0Q255.0 246.0 195.0 50.0"/>
    <path d="M200.0 50.0Q262.0 247.0 200.0 443.0Q208.0 632.0 200.0 820.0"/>
    <path d="M205.0 820.0Q213.0 632.0 205.0 444.0Q268.0 247.0 205.0 50.0"/>
    <path d="M210.0 50.0Q273.0 247.0 210.0 444.0Q218.0 632.0 210.0 820.0"/>
    <path d="M215.0 820.0Q223.0 632.0 215.0 444.0Q278.0 247.0 215.0 50.0"/>
    <path d="M220.0 50.0Q283.0 247.0 220.0 444.0Q228.0 632.0 220.0 820.0"/>
    <path d="M225.0 820.0Q235.0 632.0 225.0 443.0Q288.0 247.0 225.0 50.0"/>
    <path d="M230.0 50.0Q294.0 247.0 230.0 443.0Q242.0 632.0 230.0 820.0"/>
    <path d="M235.0 820.0Q249.0 631.0 235.0 442.0Q299.0 246.0 235.0 50.0"/>
    <path d="M240.0 50.0Q305.0 246.0 240.0 442.0Q258.0 631.0 240.0 820.0"/>
    <path d="M245.0 820.0Q267.0 630.0 245.0 441.0Q311.0 245.0 245.0 50.0"/>
    <path d="M250.0 50.0Q317.0 245.0 250.0 440.0Q277.0 630.0 250.0 820.0"/>
    <path d="M255.0 820.0Q287.0 629.0 255.0 439.0Q323.0 244.0 255.0 50.0"/>
    <path d="M260.0 50.0Q329.0 244.0 260.0 437.0Q297.0 629.0 260.0 820.0"/>
    <path d="M265.0 820.0Q308.0 628.0 265.0 436.0Q335.0 243.0 265.0 50.0"/>
    <path d="M270.0 50.0Q341.0 242.0 270.0 435.0Q319.0 627.0 270.0 820.0"/>
    <path d="M275.0 820.0Q330.0 627.0 275.0 434.0Q347.0 242.0 275.0 50.0"/>
    <path d="M280.0 50.0Q354.0 241.0 280.0 432.0Q340.0 626.0 280.0 820.0"/>
    <path d="M285.0 820.0Q351.0 626.0 285.0 431.0Q360.0 241.0 285.0 50.0"/>
    <path d="M290.0 50.0Q366.0 240.0 290.0 430.0Q361.0 625.0 290.0 820.0"/>
    <path d="M295.0 820.0Q371.0 624.0 295.0 429.0Q372.0 239.0 295.0 50.0"/>
    <path d="M300.0 50.0Q377.0 239.0 300.0 428.0Q380.0 624.0 300.0 820.0"/>
    <path d="M305.0 820.0Q388.0 624.0 305.0 427.0Q383.0 239.0 305.0 50.0"/>
    <path d="M310.0 50.0Q389.0 238.0 310.0 427.0Q396.0 623.0 310.0 820.0"/>
    <path d="M315.0 820.0Q403.0 623.0 315.0 426.0Q394.0 238.0 315.0 50.0"/>
    <path d="M320.0 50.0Q399.0 238.0 320.0 426.0Q409.0 623.0 320.0 820.0"/>
    <path d="M325.0 820.0Q415.0 623.0 325.0 426.0Q405.0 238.0 325.0 50.0"/>
    <path d="M330.0 50.0Q410.0 238.0 330.0 426.0Q420.0 623.0 330.0 820.0"/>
    <path d="M335.0 820.0Q424.0 623.0 335.0 426.0Q414.0 238.0 335.0 50.0"/>
    <path d="M340.0 50.0Q417.0 238.0 340.0 426.0Q428.0 623.0 340.0 820.0"/>
    <path d="M345.0 820.0Q431.0 623.0 345.0 425.0Q418.0 238.0 345.0 50.0"/>
    <path d="M350.0 50.0Q418.0 237.0 350.0 425.0Q434.0 622.0 350.0 820.0"/>
    <path d="M355.0 820.0Q435.0 622.0 355.0 424.0Q417.0 237.0 355.0 50.0"/>
    <path d="M360.0 50.0Q414.0 237.0 360.0 424.0Q436.0 622.0 360.0 820.0"/>
    <path d="M365.0 820.0Q437.0 622.0 365.0 423.0Q411.0 237.0 365.0 50.0"/>
    <path d="M370.0 50.0Q407.0 236.0 370.0 422.0Q437.0 621.0 370.0 820.0"/>
    <path d="M375.0 820.0Q436.0 621.0 375.0 422.0Q402.0 236.0 375.0 50.0"/>
    <path d="M380.0 50.0Q397.0 235.0 380.0 421.0Q436.0 620.0 380.0 820.0"/>
    <path d="M385.0 820.0Q435.0 620.0 385.0 420.0Q391.0 235.0 385.0 50.0"/>
    <path d="M390.0 50.0Q386.0 235.0 390.0 419.0Q435.0 620.0 390.0 820.0"/>
    <path d="M395.0 820.0Q434.0 619.0 395.0 418.0Q381.0 234.0 395.0 50.0"/>
    <path d="M400.0 50.0Q376.0 234.0 400.0 418.0Q434.0 619.0 400.0 820.0"/>
    <path d="M405.0 820.0Q434.0 618.0 405.0 417.0Q372.0 233.0 405.0 50.0"/>
    <path d="M410.0 50.0Q369.0 233.0 410.0 416.0Q434.0 618.0 410.0 820.0"/>
    <path d="M415.0 820.0Q435.0 618.0 415.0 416.0Q366.0 233.0 415.0 50.0"/>
    <path d="M420.0 50.0Q365.0 233.0 420.0 415.0Q437.0 618.0 420.0 820.0"/>
    <path d="M425.0 820.0Q439.0 617.0 425.0 415.0Q365.0 232.0 425.0 50.0"/>
    <path d="M430.0 50.0Q366.0 232.0 430.0 414.0Q442.0 617.0 430.0 820.0"/>
    <path d="M435.0 820.0Q446.0 617.0 435.0 414.0Q369.0 232.0 435.0 50.0"/>
    <path d="M440.0 50.0Q373.0 232.0 440.0 414.0Q451.0 617.0 440.0 820.0"/>
    <path d="M445.0 820.0Q456.0 617.0 445.0 414.0Q378.0 232.0 445.0 50.0"/>
    <path d="M450.0 50.0Q384.0 232.0 450.0 414.0Q461.0 617.0 450.0 820.0"/>
    <path d="M455.0 820.0Q466.0 617.0 455.0 414.0Q389.0 232.0 455.0 50.0"/>
    <path d="M460.0 50.0Q395.0 232.0 460.0 414.0Q472.0 617.0 460.0 820.0"/>
    <path d="M465.0 820.0Q478.0 617.0 465.0 414.0Q401.0 232.0 465.0 50.0"/>
    <path d="M470.0 50.0Q407.0 232.0 470.0 413.0Q484.0 617.0 470.0 820.0"/>
    <path d="M475.0 820.0Q490.0 617.0 475.0 413.0Q414.0 232.0 475.0 50.0"/>
    <path d="M480.0 50.0Q420.0 231.0 480.0 413.0Q497.0 616.0 480.0 820.0"/>
    <path d="M485.0 820.0Q504.0 616.0 485.0 412.0Q427.0 231.0 485.0 50.0"/>
    <path d="M490.0 50.0Q434.0 231.0 490.0 412.0Q511.0 616.0 490.0 820.0"/>
    <path d="M495.0 820.0Q517.0 616.0 495.0 411.0Q441.0 231.0 495.0 50.0"/>
    <path d="M500.0 50.0Q449.0 230.0 500.0 411.0Q524.0 615.0 500.0 820.0"/>
    <path d="M505.0 820.0Q531.0 615.0 505.0 410.0Q456.0 230.0 505.0 50.0"/>
    <path d="M510.0 50.0Q463.0 230.0 510.0 410.0Q538.0 615.0 510.0 820.0"/>
    <path d="M515.0 820.0Q545.0 615.0 515.0 410.0Q470.0 230.0 515.0 50.0"/>
    <path d="M520.0 50.0Q477.0 230.0 520.0 409.0Q552.0 615.0 520.0 820.0"/>
    <path d="M525.0 820.0Q559.0 614.0 525.0 409.0Q484.0 229.0 525.0 50.0"/>
    <path d="M530.0 50.0Q490.0 229.0 530.0 408.0Q565.0 614.0 530.0 820.0"/>
    <path d="M535.0 820.0Q571.0 614.0 535.0 408.0Q496.0 229.0 535.0 50.0"/>
    <path d="M540.0 50.0Q502.0 229.0 540.0 408.0Q577.0 614.0 540.0 820.0"/>
    <path d="M545.0 820.0Q583.0 614.0 545.0 408.0Q508.0 229.0 545.0 50.0"/>
    <path d="M550.0 50.0Q514.0 229.0 550.0 408.0Q588.0 614.0 550.0 820.0"/>
    <path d="M555.0 820.0Q593.0 614.0 555.0 408.0Q519.0 229.0 555.0 50.0"/>
    <path d="M560.0 50.0Q524.0 229.0 560.0 408.0Q598.0 614.0 560.0 820.0"/>
    <path d="M565.0 820.0Q603.0 614.0 565.0 408.0Q529.0 229.0 565.0 50.0"/>
    <path d="M570.0 50.0Q535.0 229.0 570.0 408.0Q607.0 614.0 570.0 820.0"/>
    <path d="M575.0 820.0Q611.0 614.0 575.0 408.0Q542.0 229.0 575.0 50.0"/>
    <path d="M580.0 50.0Q550.0 229.0 580.0 409.0Q615.0 614.0 580.0 820.0"/>
    <path d="M585.0 820.0Q618.0 615.0 585.0 410.0Q559.0 230.0 585.0 50.0"/>
    <path d="M590.0 50.0Q568.0 230.0 590.0 410.0Q621.0 615.0 590.0 820.0"/>
    <path d="M595.0 820.0Q623.0 616.0 595.0 411.0Q577.0 231.0 595.0 50.0"/>
    <path d="M600.0 50.0Q587.0 231.0 600.0 412.0Q625.0 616.0 600.0 820.0"/>
    <path d="M605.0 820.0Q627.0 617.0 605.0 413.0Q598.0 232.0 605.0 50.0"/>
    <path d="M610.0 50.0Q608.0 232.0 610.0 415.0Q629.0 617.0 610.0 820.0"/>
    <path d="M615.0 820.0Q631.0 618.0 615.0 416.0Q619.0 233.0 615.0 50.0"/>
    <path d="M620.0 50.0Q630.0 233.0 620.0 417.0Q633.0 618.0 620.0 820.0"/>
    <path d="M625.0 820.0Q635.0 619.0 625.0 418.0Q641.0 234.0 625.0 50.0"/>
    <path d="M630.0 50.0Q651.0 235.0 630.0 419.0Q637.0 620.0 630.0 820.0"/>
    <path d="M635.0 820.0Q639.0 620.0 635.0 420.0Q661.0 235.0 635.0 50.0"/>
    <path d="M640.0 50.0Q671.0 236.0 640.0 421.0Q642.0 621.0 640.0 820.0"/>
    <path d="M645.0 820.0Q644.0 621.0 645.0 422.0Q680.0 236.0 645.0 50.0"/>
    <path d="M650.0 50.0Q688.0 236.0 650.0 423.0Q648.0 621.0 650.0 820.0"/>
    <path d="M655.0 820.0Q651.0 622.0 655.0 423.0Q696.0 237.0 655.0 50.0"/>
    <path d="M660.0 50.0Q703.0 237.0 660.0 424.0Q655.0 622.0 660.0 820.0"/>
    <path d="M665.0 820.0Q659.0 622.0 665.0 424.0Q709.0 237.0 665.0 50.0"/>
    <path d="M670.0 50.0Q715.0 237.0 670.0 424.0Q664.0 622.0 670.0 820.0"/>
    <path d="M675.0 820.0Q669.0 622.0 675.0 424.0Q720.0 237.0 675.0 50.0"/>
    <path d="M680.0 50.0Q724.0 237.0 680.0 424.0Q674.0 622.0 680.0 820.0"/>
    <path d="M685.0 820.0Q680.0 622.0 685.0 424.0Q728.0 237.0 685.0 50.0"/>
    <path d="M690.0 50.0Q732.0 237.0 690.0 424.0Q686.0 622.0 690.0 820.0"/>
    <path d="M695.0 820.0Q693.0 622.0 695.0 423.0Q735.0 237.0 695.0 50.0"/>
    <path d="M700.0 50.0Q738.0 237.0 700.0 423.0Q700.0 622.0 700.0 820.0"/>
    <path d="M705.0 820.0Q707.0 622.0 705.0 423.0Q740.0 237.0 705.0 50.0"/>
    <path d="M710.0 50.0Q741.0 236.0 710.0 423.0Q714.0 621.0 710.0 820.0"/>
    <path d="M715.0 820.0Q722.0 621.0 715.0 422.0Q743.0 236.0 715.0 50.0"/>
    <path d="M720.0 50.0Q744.0 236.0 720.0 422.0Q730.0 621.0 720.0 820.0"/>
    <path d="M725.0 820.0Q738.0 621.0 725.0 422.0Q745.0 236.0 725.0 50.0"/>
    <path d="M730.0 50.0Q746.0 236.0 730.0 422.0Q747.0 621.0 730.0 820.0"/>
    <path d="M735.0 820.0Q755.0 621.0 735.0 421.0Q747.0 236.0 735.0 50.0"/>
    <path d="M740.0 50.0Q748.0 235.0 740.0 421.0Q763.0 620.0 740.0 820.0"/>
    <path d="M745.0 820.0Q771.0 620.0 745.0 421.0Q749.0 235.0 745.0 50.0"/>
    <path d="M750.0 50.0Q750.0 235.0 750.0 420.0Q779.0 620.0 750.0 820.0"/>
    <path d="M755.0 820.0Q786.0 620.0 755.0 420.0Q752.0 235.0 755.0 50.0"/>
    <path d="M760.0 50.0Q754.0 235.0 760.0 420.0Q794.0 620.0 760.0 820.0"/>
    <path d="M765.0 820.0Q800.0 620.0 765.0 420.0Q757.0 235.0 765.0 50.0"/>
    <path d="M770.0 50.0Q760.0 235.0 770.0 419.0Q807.0 620.0 770.0 820.0"/>
    <path d="M775.0 820.0Q813.0 620.0 775.0 419.0Q763.0 235.0 775.0 50.0"/>
    <path d="M780.0 50.0Q768.0 235.0 780.0 419.0Q819.0 620.0 780.0 820.0"/>
    <path d="M785.0 820.0Q824.0 620.0 785.0 419.0Q772.0 235.0 785.0 50.0"/>
    <path d="M790.0 50.0Q777.0 235.0 790.0 419.0Q829.0 620.0 790.0 820.0"/>
    <path d="M795.0 820.0Q834.0 620.0 795.0 419.0Q782.0 235.0 795.0 50.0"/>
    <path d="M800.0 50.0Q786.0 235.0 800.0 419.0Q840.0 620.0 800.0 820.0"/>
    <path d="M805.0 820.0Q846.0 620.0 805.0 419.0Q788.0 235.0 805.0 50.0"/>
    <path d="M810.0 50.0Q790.0 235.0 810.0 419.0Q852.0 620.0 810.0 820.0"/>
    <path d="M815.0 820.0Q858.0 619.0 815.0 419.0Q792.0 234.0 815.0 50.0"/>
    <path d="M820.0 50.0Q792.0 234.0 820.0 419.0Q865.0 619.0 820.0 820.0"/>
    <path d="M825.0 820.0Q872.0 619.0 825.0 419.0Q792.0 234.0 825.0 50.0"/>
    <path d="M830.0 50.0Q792.0 234.0 830.0 418.0Q879.0 619.0 830.0 820.0"/>
    <path d="M835.0 820.0Q886.0 619.0 835.0 418.0Q791.0 234.0 835.0 50.0"/>
    <path d="M840.0 50.0Q790.0 234.0 840.0 418.0Q893.0 619.0 840.0 820.0"/>
    <path d="M845.0 820.0Q900.0 619.0 845.0 418.0Q789.0 234.0 845.0 50.0"/>
    <path d="M850.0 50.0Q788.0 234.0 850.0 418.0Q908.0 619.0 850.0 820.0"/>
    <path d="M855.0 820.0Q915.0 619.0 855.0 417.0Q787.0 234.0 855.0 50.0"/>
    <path d="M860.0 50.0Q786.0 234.0 860.0 417.0Q922.0 619.0 860.0 820.0"/>
    <path d="M865.0 820.0Q929.0 619.0 865.0 417.0Q785.0 234.0 865.0 50.0"/>
    <path d="M870.0 50.0Q786.0 233.0 870.0 417.0Q936.0 618.0 870.0 820.0"/>
    <path d="M875.0 820.0Q943.0 618.0 875.0 417.0Q786.0 233.0 875.0 50.0"/>
    <path d="M880.0 50.0Q787.0 233.0 880.0 417.0Q949.0 618.0 880.0 820.0"/>
    <path d="M885.0 820.0Q955.0 618.0 885.0 416.0Q789.0 233.0 885.0 50.0"/>
    <path d="M890.0 50.0Q792.0 233.0 890.0 416.0Q961.0 618.0 890.0 820.0"/>
    <path d="M895.0 820.0Q966.0 618.0 895.0 416.0Q796.0 233.0 895.0 50.0"/>
    <path d="M900.0 50.0Q801.0 233.0 900.0 416.0Q972.0 618.0 900.0 820.0"/>
    <path d="M905.0 820.0Q977.0 618.0 905.0 416.0Q806.0 233.0 905.0 50.0"/>
    <path d="M910.0 50.0Q811.0 233.0 910.0 416.0Q981.0 618.0 910.0 820.0"/>
    <path d="M915.0 820.0Q985.0 618.0 915.0 417.0Q818.0 233.0 915.0 50.0"/>
    <path d="M920.0 50.0Q826.0 233.0 920.0 417.0Q988.0 618.0 920.0 820.0"/>
    <path d="M925.0 820.0Q990.0 618.0 925.0 417.0Q834.0 234.0 925.0 50.0"/>
    <path d="M930.0 50.0Q844.0 234.0 930.0 417.0Q991.0 619.0 930.0 820.0"/>
    <path d="M935.0 820.0Q992.0 619.0 935.0 418.0Q855.0 234.0 935.0 50.0"/>
    <path d="M940.0 50.0Q866.0 234.0 940.0 418.0Q992.0 619.0 940.0 820.0"/>
    <path d="M945.0 820.0Q992.0 619.0 945.0 419.0Q878.0 234.0 945.0 50.0"/>
    <path d="M950.0 50.0Q890.0 235.0 950.0 419.0Q992.0 620.0 950.0 820.0"/>
    <path d="M955.0 820.0Q991.0 620.0 955.0 420.0Q903.0 235.0 955.0 50.0"/>
    <path d="M960.0 50.0Q916.0 235.0 960.0 421.0Q990.0 620.0 960.0 820.0"/>
    <path d="M965.0 820.0Q989.0 621.0 965.0 421.0Q929.0 236.0 965.0 50.0"/>
    <path d="M970.0 50.0Q942.0 236.0 970.0 422.0Q988.0 621.0 970.0 820.0"/>
    <path d="M975.0 820.0Q988.0 621.0 975.0 422.0Q954.0 236.0 975.0 50.0"/>
    <path d="M980.0 50.0Q966.0 236.0 980.0 423.0Q988.0 621.0 980.0 820.0"/>
    <path d="M985.0 820.0Q988.0 622.0 985.0 423.0Q977.0 237.0 985.0 50.0"/>
    <path d="M990.0 50.0Q988.0 237.0 990.0 424.0Q989.0 622.0 990.0 820.0"/>
    <path d="M995.0 820.0Q990.0 622.0 995.0 424.0Q998.0 237.0 995.0 50.0"/>
    <path d="M1000.0 50.0Q1007.0 237.0 1000.0 424.0Q992.0 622.0 1000.0 820.0"/>
    <path d="M1005.0 820.0Q995.0 622.0 1005.0 425.0Q1014.0 237.0 1005.0 50.0"/>
    <path d="M1010.0 50.0Q1021.0 237.0 1010.0 425.0Q999.0 622.0 1010.0 820.0"/>
    <path d="M1015.0 820.0Q1003.0 622.0 1015.0 425.0Q1027.0 237.0 1015.0 50.0"/>
  </g>
</svg>
