<svg version="1.1" width="1150" height="870" xmlns="http://www.w3.org/2000/svg">
  <!-- Seed: 4809257655751552385 -->
  <!-- Size: SvgSize.Size9x12 -->
  <!-- Params:
    draw: True
    pad_x: 50
    pad_y: 0
    row_range: [RangeInt] min: 3 max: 10
    col_range: [RangeInt] min: 5 max: 10
    wave_range: 100
    wave_y_range: 30
    step_size: 5
  -->
  <g stroke="black" fill="none">
    <path d="M100.0 820.0Q140.0 765.0 100.0 710.0Q60.0 664.0 100.0 618.0Q140.0 545.0 100.0 473.0Q60.0 431.0 100.0 389.0Q140.0 316.0 100.0 244.0Q60.0 208.0 100.0 171.0Q140.0 111.0 100.0 50.0"/>
    <path d="M105.0 50.0Q145.0 111.0 105.0 171.0Q65.0 208.0 105.0 244.0Q145.0 316.0 105.0 389.0Q65.0 431.0 105.0 473.0Q145.0 545.0 105.0 618.0Q65.0 664.0 105.0 710.0Q145.0 765.0 105.0 820.0"/>
    <path d="M110.0 820.0Q150.0 765.0 110.0 710.0Q71.0 664.0 110.0 617.0Q150.0 545.0 110.0 473.0Q70.0 431.0 110.0 389.0Q149.0 317.0 110.0 244.0Q70.0 208.0 110.0 171.0Q150.0 111.0 110.0 50.0"/>
    <path d="M115.0 50.0Q155.0 111.0 115.0 171.0Q76.0 208.0 115.0 244.0Q153.0 317.0 115.0 389.0Q74.0 431.0 115.0 473.0Q154.0 545.0 115.0 617.0Q77.0 664.0 115.0 710.0Q155.0 765.0 115.0 820.0"/>
    <path d="M120.0 820.0Q160.0 765.0 120.0 711.0Q83.0 664.0 120.0 617.0Q158.0 545.0 120.0 473.0Q79.0 431.0 120.0 389.0Q157.0 317.0 120.0 245.0Q82.0 208.0 120.0 171.0Q159.0 111.0 120.0 50.0"/>
    <path d="M125.0 50.0Q164.0 111.0 125.0 171.0Q88.0 208.0 125.0 246.0Q161.0 317.0 125.0 389.0Q83.0 431.0 125.0 474.0Q162.0 545.0 125.0 616.0Q90.0 663.0 125.0 711.0Q166.0 765.0 125.0 820.0"/>
    <path d="M130.0 820.0Q171.0 766.0 130.0 711.0Q97.0 663.0 130.0 615.0Q166.0 545.0 130.0 474.0Q88.0 432.0 130.0 389.0Q164.0 318.0 130.0 246.0Q94.0 209.0 130.0 171.0Q168.0 111.0 130.0 50.0"/>
    <path d="M135.0 50.0Q173.0 110.0 135.0 171.0Q101.0 209.0 135.0 247.0Q167.0 318.0 135.0 389.0Q92.0 432.0 135.0 475.0Q169.0 544.0 135.0 614.0Q104.0 663.0 135.0 712.0Q176.0 766.0 135.0 820.0"/>
    <path d="M140.0 820.0Q182.0 766.0 140.0 712.0Q112.0 663.0 140.0 613.0Q173.0 544.0 140.0 475.0Q96.0 432.0 140.0 389.0Q169.0 319.0 140.0 248.0Q107.0 210.0 140.0 171.0Q177.0 110.0 140.0 50.0"/>
    <path d="M145.0 50.0Q181.0 110.0 145.0 171.0Q114.0 210.0 145.0 250.0Q171.0 319.0 145.0 389.0Q100.0 432.0 145.0 476.0Q176.0 544.0 145.0 612.0Q120.0 662.0 145.0 713.0Q187.0 766.0 145.0 820.0"/>
    <path d="M150.0 820.0Q193.0 767.0 150.0 713.0Q129.0 662.0 150.0 611.0Q179.0 544.0 150.0 476.0Q104.0 433.0 150.0 389.0Q173.0 320.0 150.0 251.0Q121.0 211.0 150.0 170.0Q186.0 110.0 150.0 50.0"/>
    <path d="M155.0 50.0Q190.0 110.0 155.0 170.0Q128.0 211.0 155.0 252.0Q175.0 321.0 155.0 389.0Q108.0 433.0 155.0 477.0Q181.0 543.0 155.0 610.0Q137.0 662.0 155.0 714.0Q199.0 767.0 155.0 820.0"/>
    <path d="M160.0 820.0Q204.0 767.0 160.0 715.0Q146.0 661.0 160.0 608.0Q184.0 543.0 160.0 478.0Q112.0 434.0 160.0 389.0Q177.0 322.0 160.0 254.0Q136.0 212.0 160.0 170.0Q194.0 110.0 160.0 50.0"/>
    <path d="M165.0 50.0Q198.0 110.0 165.0 170.0Q143.0 213.0 165.0 255.0Q178.0 322.0 165.0 389.0Q115.0 434.0 165.0 479.0Q187.0 543.0 165.0 607.0Q155.0 661.0 165.0 715.0Q210.0 768.0 165.0 820.0"/>
    <path d="M170.0 820.0Q216.0 768.0 170.0 716.0Q164.0 661.0 170.0 605.0Q189.0 542.0 170.0 479.0Q119.0 434.0 170.0 389.0Q179.0 323.0 170.0 257.0Q150.0 213.0 170.0 170.0Q202.0 110.0 170.0 50.0"/>
    <path d="M175.0 50.0Q206.0 110.0 175.0 169.0Q158.0 214.0 175.0 259.0Q180.0 324.0 175.0 389.0Q123.0 435.0 175.0 480.0Q191.0 542.0 175.0 604.0Q174.0 660.0 175.0 717.0Q221.0 768.0 175.0 820.0"/>
    <path d="M180.0 820.0Q227.0 769.0 180.0 718.0Q183.0 660.0 180.0 602.0Q194.0 541.0 180.0 481.0Q126.0 435.0 180.0 389.0Q181.0 325.0 180.0 260.0Q166.0 215.0 180.0 169.0Q210.0 110.0 180.0 50.0"/>
    <path d="M185.0 50.0Q214.0 109.0 185.0 169.0Q173.0 216.0 185.0 262.0Q182.0 326.0 185.0 389.0Q130.0 436.0 185.0 482.0Q196.0 541.0 185.0 600.0Q193.0 659.0 185.0 719.0Q233.0 769.0 185.0 820.0"/>
    <path d="M190.0 820.0Q238.0 770.0 190.0 719.0Q203.0 659.0 190.0 598.0Q198.0 541.0 190.0 483.0Q133.0 436.0 190.0 389.0Q183.0 327.0 190.0 264.0Q181.0 216.0 190.0 169.0Q218.0 109.0 190.0 50.0"/>
    <path d="M195.0 50.0Q222.0 109.0 195.0 168.0Q189.0 217.0 195.0 266.0Q184.0 328.0 195.0 389.0Q137.0 437.0 195.0 484.0Q200.0 540.0 195.0 597.0Q212.0 659.0 195.0 720.0Q244.0 770.0 195.0 820.0"/>
    <path d="M200.0 820.0Q250.0 771.0 200.0 721.0Q222.0 658.0 200.0 595.0Q202.0 540.0 200.0 485.0Q140.0 437.0 200.0 389.0Q185.0 329.0 200.0 268.0Q197.0 218.0 200.0 168.0Q226.0 109.0 200.0 50.0"/>
    <path d="M205.0 50.0Q230.0 109.0 205.0 168.0Q204.0 219.0 205.0 269.0Q186.0 329.0 205.0 389.0Q144.0 437.0 205.0 485.0Q205.0 539.0 205.0 593.0Q231.0 658.0 205.0 722.0Q256.0 771.0 205.0 820.0"/>
    <path d="M210.0 820.0Q261.0 771.0 210.0 723.0Q241.0 657.0 210.0 592.0Q207.0 539.0 210.0 486.0Q147.0 438.0 210.0 389.0Q187.0 330.0 210.0 271.0Q212.0 219.0 210.0 168.0Q234.0 109.0 210.0 50.0"/>
    <path d="M215.0 50.0Q237.0 109.0 215.0 167.0Q220.0 220.0 215.0 273.0Q188.0 331.0 215.0 389.0Q151.0 438.0 215.0 487.0Q209.0 539.0 215.0 590.0Q250.0 657.0 215.0 724.0Q267.0 772.0 215.0 820.0"/>
    <path d="M220.0 820.0Q273.0 772.0 220.0 724.0Q260.0 656.0 220.0 589.0Q212.0 538.0 220.0 488.0Q154.0 439.0 220.0 389.0Q189.0 332.0 220.0 275.0Q227.0 221.0 220.0 167.0Q242.0 109.0 220.0 50.0"/>
    <path d="M225.0 50.0Q246.0 108.0 225.0 167.0Q235.0 222.0 225.0 276.0Q190.0 333.0 225.0 389.0Q158.0 439.0 225.0 489.0Q214.0 538.0 225.0 587.0Q269.0 656.0 225.0 725.0Q279.0 773.0 225.0 820.0"/>
    <path d="M230.0 820.0Q284.0 773.0 230.0 726.0Q277.0 656.0 230.0 586.0Q217.0 538.0 230.0 489.0Q162.0 439.0 230.0 389.0Q192.0 334.0 230.0 278.0Q242.0 222.0 230.0 167.0Q250.0 108.0 230.0 50.0"/>
    <path d="M235.0 50.0Q254.0 108.0 235.0 167.0Q249.0 223.0 235.0 279.0Q194.0 334.0 235.0 389.0Q166.0 440.0 235.0 490.0Q220.0 537.0 235.0 584.0Q286.0 655.0 235.0 726.0Q290.0 773.0 235.0 820.0"/>
    <path d="M240.0 820.0Q295.0 773.0 240.0 727.0Q294.0 655.0 240.0 583.0Q223.0 537.0 240.0 491.0Q170.0 440.0 240.0 389.0Q196.0 335.0 240.0 280.0Q256.0 223.0 240.0 166.0Q258.0 108.0 240.0 50.0"/>
    <path d="M245.0 50.0Q262.0 108.0 245.0 166.0Q263.0 224.0 245.0 282.0Q198.0 336.0 245.0 390.0Q174.0 440.0 245.0 491.0Q226.0 537.0 245.0 582.0Q303.0 655.0 245.0 727.0Q301.0 774.0 245.0 820.0"/>
    <path d="M250.0 820.0Q306.0 774.0 250.0 728.0Q310.0 654.0 250.0 581.0Q229.0 536.0 250.0 492.0Q178.0 441.0 250.0 390.0Q200.0 336.0 250.0 283.0Q270.0 224.0 250.0 166.0Q267.0 108.0 250.0 50.0"/>
    <path d="M255.0 50.0Q271.0 108.0 255.0 166.0Q276.0 225.0 255.0 284.0Q203.0 337.0 255.0 390.0Q182.0 441.0 255.0 492.0Q233.0 536.0 255.0 580.0Q318.0 654.0 255.0 728.0Q312.0 774.0 255.0 820.0"/>
    <path d="M260.0 820.0Q317.0 774.0 260.0 729.0Q325.0 654.0 260.0 579.0Q236.0 536.0 260.0 493.0Q186.0 441.0 260.0 390.0Q206.0 337.0 260.0 284.0Q282.0 225.0 260.0 166.0Q276.0 108.0 260.0 50.0"/>
    <path d="M265.0 50.0Q280.0 108.0 265.0 166.0Q288.0 225.0 265.0 285.0Q210.0 337.0 265.0 390.0Q191.0 441.0 265.0 493.0Q240.0 536.0 265.0 579.0Q332.0 654.0 265.0 729.0Q322.0 775.0 265.0 820.0"/>
    <path d="M270.0 820.0Q327.0 775.0 270.0 729.0Q338.0 654.0 270.0 578.0Q245.0 536.0 270.0 493.0Q195.0 441.0 270.0 390.0Q214.0 338.0 270.0 286.0Q294.0 226.0 270.0 166.0Q285.0 108.0 270.0 50.0"/>
    <path d="M275.0 50.0Q290.0 108.0 275.0 166.0Q300.0 226.0 275.0 286.0Q218.0 338.0 275.0 390.0Q200.0 442.0 275.0 494.0Q249.0 536.0 275.0 578.0Q344.0 654.0 275.0 730.0Q333.0 775.0 275.0 820.0"/>
    <path d="M280.0 820.0Q338.0 775.0 280.0 730.0Q350.0 654.0 280.0 578.0Q254.0 536.0 280.0 494.0Q205.0 442.0 280.0 390.0Q222.0 338.0 280.0 286.0Q305.0 226.0 280.0 166.0Q295.0 108.0 280.0 50.0"/>
    <path d="M285.0 50.0Q299.0 108.0 285.0 166.0Q310.0 226.0 285.0 286.0Q227.0 338.0 285.0 390.0Q210.0 442.0 285.0 494.0Q258.0 536.0 285.0 577.0Q355.0 654.0 285.0 730.0Q343.0 775.0 285.0 820.0"/>
    <path d="M290.0 820.0Q348.0 775.0 290.0 730.0Q360.0 654.0 290.0 577.0Q263.0 536.0 290.0 494.0Q215.0 442.0 290.0 390.0Q232.0 338.0 290.0 286.0Q315.0 226.0 290.0 166.0Q304.0 108.0 290.0 50.0"/>
    <path d="M295.0 50.0Q310.0 108.0 295.0 166.0Q320.0 226.0 295.0 286.0Q237.0 338.0 295.0 390.0Q220.0 442.0 295.0 494.0Q268.0 536.0 295.0 577.0Q365.0 654.0 295.0 730.0Q353.0 775.0 295.0 820.0"/>
    <path d="M300.0 820.0Q357.0 775.0 300.0 729.0Q370.0 653.0 300.0 577.0Q273.0 536.0 300.0 494.0Q225.0 442.0 300.0 390.0Q243.0 338.0 300.0 286.0Q324.0 226.0 300.0 165.0Q315.0 108.0 300.0 50.0"/>
    <path d="M305.0 50.0Q320.0 108.0 305.0 165.0Q329.0 226.0 305.0 286.0Q249.0 338.0 305.0 390.0Q231.0 442.0 305.0 494.0Q278.0 536.0 305.0 578.0Q374.0 653.0 305.0 729.0Q361.0 774.0 305.0 820.0"/>
    <path d="M310.0 820.0Q364.0 774.0 310.0 728.0Q379.0 653.0 310.0 578.0Q283.0 536.0 310.0 494.0Q237.0 442.0 310.0 390.0Q256.0 338.0 310.0 286.0Q332.0 226.0 310.0 165.0Q325.0 107.0 310.0 50.0"/>
    <path d="M315.0 50.0Q330.0 107.0 315.0 164.0Q336.0 225.0 315.0 286.0Q263.0 338.0 315.0 390.0Q243.0 442.0 315.0 494.0Q288.0 536.0 315.0 578.0Q383.0 653.0 315.0 727.0Q367.0 774.0 315.0 820.0"/>
    <path d="M320.0 820.0Q370.0 773.0 320.0 727.0Q388.0 652.0 320.0 578.0Q293.0 536.0 320.0 495.0Q250.0 442.0 320.0 390.0Q270.0 338.0 320.0 286.0Q339.0 225.0 320.0 164.0Q335.0 107.0 320.0 50.0"/>
    <path d="M325.0 50.0Q340.0 107.0 325.0 163.0Q342.0 225.0 325.0 286.0Q278.0 338.0 325.0 390.0Q257.0 443.0 325.0 495.0Q298.0 537.0 325.0 578.0Q392.0 652.0 325.0 725.0Q372.0 773.0 325.0 820.0"/>
    <path d="M330.0 820.0Q374.0 772.0 330.0 724.0Q397.0 651.0 330.0 578.0Q302.0 537.0 330.0 495.0Q264.0 443.0 330.0 391.0Q286.0 339.0 330.0 286.0Q345.0 224.0 330.0 162.0Q346.0 106.0 330.0 50.0"/>
    <path d="M335.0 50.0Q351.0 106.0 335.0 162.0Q347.0 224.0 335.0 286.0Q294.0 339.0 335.0 391.0Q271.0 443.0 335.0 496.0Q307.0 537.0 335.0 579.0Q401.0 651.0 335.0 723.0Q375.0 771.0 335.0 820.0"/>
    <path d="M340.0 820.0Q376.0 771.0 340.0 721.0Q405.0 650.0 340.0 579.0Q312.0 538.0 340.0 496.0Q278.0 444.0 340.0 391.0Q303.0 339.0 340.0 286.0Q349.0 224.0 340.0 161.0Q356.0 105.0 340.0 50.0"/>
    <path d="M345.0 50.0Q361.0 105.0 345.0 160.0Q351.0 223.0 345.0 286.0Q312.0 339.0 345.0 392.0Q286.0 444.0 345.0 497.0Q316.0 538.0 345.0 579.0Q409.0 649.0 345.0 720.0Q377.0 770.0 345.0 820.0"/>
    <path d="M350.0 820.0Q377.0 769.0 350.0 718.0Q413.0 649.0 350.0 579.0Q321.0 539.0 350.0 498.0Q294.0 445.0 350.0 392.0Q321.0 339.0 350.0 287.0Q353.0 223.0 350.0 159.0Q367.0 104.0 350.0 50.0"/>
    <path d="M355.0 50.0Q372.0 104.0 355.0 158.0Q354.0 222.0 355.0 287.0Q331.0 340.0 355.0 392.0Q302.0 445.0 355.0 498.0Q326.0 539.0 355.0 580.0Q417.0 648.0 355.0 716.0Q378.0 768.0 355.0 820.0"/>
    <path d="M360.0 820.0Q378.0 767.0 360.0 714.0Q421.0 647.0 360.0 580.0Q330.0 539.0 360.0 499.0Q310.0 446.0 360.0 393.0Q341.0 340.0 360.0 287.0Q356.0 222.0 360.0 157.0Q378.0 103.0 360.0 50.0"/>
    <path d="M365.0 50.0Q383.0 103.0 365.0 155.0Q357.0 221.0 365.0 287.0Q351.0 340.0 365.0 393.0Q318.0 446.0 365.0 499.0Q335.0 540.0 365.0 580.0Q425.0 646.0 365.0 712.0Q377.0 766.0 365.0 820.0"/>
    <path d="M370.0 820.0Q377.0 765.0 370.0 710.0Q429.0 645.0 370.0 581.0Q339.0 540.0 370.0 500.0Q326.0 447.0 370.0 394.0Q361.0 340.0 370.0 287.0Q358.0 221.0 370.0 154.0Q388.0 102.0 370.0 50.0"/>
    <path d="M375.0 50.0Q394.0 102.0 375.0 153.0Q359.0 220.0 375.0 287.0Q371.0 341.0 375.0 394.0Q335.0 447.0 375.0 501.0Q344.0 541.0 375.0 581.0Q433.0 645.0 375.0 708.0Q377.0 764.0 375.0 820.0"/>
    <path d="M380.0 820.0Q376.0 763.0 380.0 706.0Q436.0 644.0 380.0 582.0Q348.0 541.0 380.0 501.0Q343.0 448.0 380.0 395.0Q381.0 341.0 380.0 287.0Q360.0 219.0 380.0 152.0Q399.0 101.0 380.0 50.0"/>
    <path d="M385.0 50.0Q405.0 100.0 385.0 151.0Q361.0 219.0 385.0 287.0Q391.0 341.0 385.0 395.0Q352.0 449.0 385.0 502.0Q353.0 542.0 385.0 582.0Q440.0 643.0 385.0 704.0Q376.0 762.0 385.0 820.0"/>
    <path d="M390.0 820.0Q376.0 761.0 390.0 702.0Q444.0 642.0 390.0 582.0Q358.0 543.0 390.0 503.0Q360.0 449.0 390.0 396.0Q401.0 341.0 390.0 287.0Q362.0 218.0 390.0 149.0Q410.0 100.0 390.0 50.0"/>
    <path d="M395.0 50.0Q415.0 99.0 395.0 148.0Q363.0 218.0 395.0 287.0Q412.0 342.0 395.0 396.0Q368.0 450.0 395.0 503.0Q362.0 543.0 395.0 583.0Q448.0 641.0 395.0 700.0Q375.0 760.0 395.0 820.0"/>
    <path d="M400.0 820.0Q375.0 759.0 400.0 698.0Q452.0 640.0 400.0 583.0Q367.0 544.0 400.0 504.0Q377.0 450.0 400.0 397.0Q422.0 342.0 400.0 287.0Q364.0 217.0 400.0 147.0Q421.0 99.0 400.0 50.0"/>
    <path d="M405.0 50.0Q426.0 98.0 405.0 146.0Q365.0 217.0 405.0 287.0Q431.0 342.0 405.0 397.0Q385.0 451.0 405.0 505.0Q371.0 544.0 405.0 583.0Q456.0 639.0 405.0 696.0Q375.0 758.0 405.0 820.0"/>
    <path d="M410.0 820.0Q375.0 757.0 410.0 694.0Q459.0 639.0 410.0 584.0Q376.0 545.0 410.0 505.0Q393.0 451.0 410.0 397.0Q441.0 342.0 410.0 287.0Q367.0 216.0 410.0 145.0Q432.0 97.0 410.0 50.0"/>
    <path d="M415.0 50.0Q437.0 97.0 415.0 144.0Q368.0 215.0 415.0 287.0Q451.0 342.0 415.0 398.0Q401.0 452.0 415.0 506.0Q380.0 545.0 415.0 584.0Q463.0 638.0 415.0 692.0Q375.0 756.0 415.0 820.0"/>
    <path d="M420.0 820.0Q376.0 755.0 420.0 690.0Q467.0 637.0 420.0 584.0Q385.0 545.0 420.0 506.0Q409.0 452.0 420.0 398.0Q460.0 343.0 420.0 287.0Q370.0 215.0 420.0 143.0Q442.0 96.0 420.0 50.0"/>
    <path d="M425.0 50.0Q448.0 96.0 425.0 142.0Q372.0 215.0 425.0 287.0Q469.0 343.0 425.0 398.0Q416.0 453.0 425.0 507.0Q390.0 546.0 425.0 585.0Q472.0 637.0 425.0 688.0Q376.0 754.0 425.0 820.0"/>
    <path d="M430.0 820.0Q377.0 753.0 430.0 687.0Q476.0 636.0 430.0 585.0Q394.0 546.0 430.0 508.0Q424.0 453.0 430.0 399.0Q478.0 343.0 430.0 287.0Q374.0 214.0 430.0 141.0Q453.0 95.0 430.0 50.0"/>
    <path d="M435.0 50.0Q458.0 95.0 435.0 140.0Q376.0 214.0 435.0 287.0Q486.0 343.0 435.0 399.0Q431.0 454.0 435.0 508.0Q399.0 547.0 435.0 585.0Q480.0 635.0 435.0 686.0Q379.0 753.0 435.0 820.0"/>
    <path d="M440.0 820.0Q381.0 752.0 440.0 684.0Q484.0 635.0 440.0 585.0Q404.0 547.0 440.0 508.0Q438.0 454.0 440.0 399.0Q494.0 343.0 440.0 287.0Q379.0 213.0 440.0 139.0Q463.0 95.0 440.0 50.0"/>
    <path d="M445.0 50.0Q469.0 94.0 445.0 139.0Q382.0 213.0 445.0 287.0Q502.0 344.0 445.0 400.0Q445.0 454.0 445.0 509.0Q409.0 547.0 445.0 586.0Q489.0 634.0 445.0 683.0Q383.0 752.0 445.0 820.0"/>
    <path d="M450.0 820.0Q385.0 751.0 450.0 682.0Q493.0 634.0 450.0 586.0Q413.0 547.0 450.0 509.0Q451.0 454.0 450.0 400.0Q510.0 344.0 450.0 287.0Q385.0 213.0 450.0 138.0Q474.0 94.0 450.0 50.0"/>
    <path d="M455.0 50.0Q479.0 94.0 455.0 138.0Q389.0 213.0 455.0 287.0Q517.0 344.0 455.0 400.0Q458.0 455.0 455.0 509.0Q418.0 548.0 455.0 586.0Q498.0 634.0 455.0 681.0Q388.0 751.0 455.0 820.0"/>
    <path d="M460.0 820.0Q392.0 750.0 460.0 681.0Q502.0 633.0 460.0 586.0Q423.0 548.0 460.0 509.0Q464.0 455.0 460.0 400.0Q523.0 344.0 460.0 287.0Q392.0 212.0 460.0 137.0Q484.0 94.0 460.0 50.0"/>
    <path d="M465.0 50.0Q489.0 94.0 465.0 137.0Q397.0 212.0 465.0 287.0Q529.0 344.0 465.0 400.0Q469.0 455.0 465.0 510.0Q428.0 548.0 465.0 586.0Q507.0 633.0 465.0 680.0Q395.0 750.0 465.0 820.0"/>
    <path d="M470.0 820.0Q400.0 750.0 470.0 680.0Q512.0 633.0 470.0 586.0Q433.0 548.0 470.0 510.0Q475.0 455.0 470.0 400.0Q535.0 344.0 470.0 287.0Q401.0 212.0 470.0 137.0Q494.0 94.0 470.0 50.0"/>
    <path d="M475.0 50.0Q499.0 93.0 475.0 137.0Q406.0 212.0 475.0 287.0Q540.0 344.0 475.0 400.0Q480.0 455.0 475.0 510.0Q438.0 548.0 475.0 586.0Q517.0 633.0 475.0 680.0Q405.0 750.0 475.0 820.0"/>
    <path d="M480.0 820.0Q410.0 750.0 480.0 680.0Q522.0 633.0 480.0 586.0Q443.0 548.0 480.0 510.0Q485.0 455.0 480.0 400.0Q545.0 344.0 480.0 287.0Q411.0 212.0 480.0 137.0Q504.0 93.0 480.0 50.0"/>
    <path d="M485.0 50.0Q509.0 94.0 485.0 137.0Q416.0 212.0 485.0 287.0Q550.0 344.0 485.0 400.0Q490.0 455.0 485.0 510.0Q448.0 548.0 485.0 586.0Q527.0 633.0 485.0 680.0Q414.0 750.0 485.0 820.0"/>
    <path d="M490.0 820.0Q419.0 750.0 490.0 680.0Q532.0 633.0 490.0 586.0Q454.0 548.0 490.0 510.0Q495.0 455.0 490.0 400.0Q554.0 344.0 490.0 287.0Q422.0 212.0 490.0 137.0Q514.0 94.0 490.0 50.0"/>
    <path d="M495.0 50.0Q519.0 94.0 495.0 137.0Q428.0 212.0 495.0 287.0Q558.0 343.0 495.0 400.0Q500.0 455.0 495.0 510.0Q460.0 548.0 495.0 586.0Q537.0 633.0 495.0 681.0Q424.0 750.0 495.0 820.0"/>
    <path d="M500.0 820.0Q429.0 751.0 500.0 681.0Q543.0 634.0 500.0 586.0Q467.0 548.0 500.0 510.0Q506.0 455.0 500.0 400.0Q562.0 343.0 500.0 287.0Q435.0 212.0 500.0 138.0Q524.0 94.0 500.0 50.0"/>
    <path d="M505.0 50.0Q530.0 94.0 505.0 138.0Q442.0 212.0 505.0 286.0Q565.0 343.0 505.0 399.0Q511.0 454.0 505.0 509.0Q474.0 548.0 505.0 586.0Q548.0 634.0 505.0 682.0Q433.0 751.0 505.0 820.0"/>
    <path d="M510.0 820.0Q438.0 752.0 510.0 683.0Q553.0 635.0 510.0 586.0Q481.0 548.0 510.0 509.0Q516.0 454.0 510.0 399.0Q567.0 342.0 510.0 286.0Q449.0 212.0 510.0 138.0Q535.0 94.0 510.0 50.0"/>
    <path d="M515.0 50.0Q540.0 94.0 515.0 139.0Q457.0 212.0 515.0 285.0Q570.0 342.0 515.0 399.0Q522.0 454.0 515.0 509.0Q489.0 548.0 515.0 587.0Q559.0 635.0 515.0 684.0Q442.0 752.0 515.0 820.0"/>
    <path d="M520.0 820.0Q446.0 753.0 520.0 685.0Q565.0 636.0 520.0 587.0Q497.0 548.0 520.0 509.0Q527.0 454.0 520.0 398.0Q572.0 341.0 520.0 284.0Q466.0 212.0 520.0 139.0Q545.0 95.0 520.0 50.0"/>
    <path d="M525.0 50.0Q550.0 95.0 525.0 140.0Q475.0 211.0 525.0 283.0Q573.0 340.0 525.0 397.0Q533.0 453.0 525.0 509.0Q506.0 548.0 525.0 587.0Q570.0 637.0 525.0 687.0Q450.0 753.0 525.0 820.0"/>
    <path d="M530.0 820.0Q455.0 754.0 530.0 688.0Q576.0 638.0 530.0 587.0Q515.0 548.0 530.0 509.0Q539.0 453.0 530.0 397.0Q575.0 339.0 530.0 282.0Q484.0 211.0 530.0 140.0Q556.0 95.0 530.0 50.0"/>
    <path d="M535.0 50.0Q561.0 96.0 535.0 141.0Q493.0 211.0 535.0 281.0Q576.0 339.0 535.0 396.0Q544.0 452.0 535.0 509.0Q524.0 548.0 535.0 587.0Q582.0 638.0 535.0 690.0Q459.0 755.0 535.0 820.0"/>
    <path d="M540.0 820.0Q463.0 756.0 540.0 691.0Q588.0 639.0 540.0 587.0Q533.0 548.0 540.0 508.0Q550.0 452.0 540.0 395.0Q576.0 338.0 540.0 280.0Q503.0 211.0 540.0 142.0Q566.0 96.0 540.0 50.0"/>
    <path d="M545.0 50.0Q572.0 96.0 545.0 143.0Q513.0 211.0 545.0 279.0Q577.0 337.0 545.0 395.0Q556.0 451.0 545.0 508.0Q543.0 548.0 545.0 587.0Q594.0 640.0 545.0 693.0Q467.0 757.0 545.0 820.0"/>
    <path d="M550.0 820.0Q470.0 758.0 550.0 695.0Q600.0 641.0 550.0 588.0Q553.0 548.0 550.0 508.0Q562.0 451.0 550.0 394.0Q577.0 336.0 550.0 278.0Q523.0 210.0 550.0 143.0Q577.0 97.0 550.0 50.0"/>
    <path d="M555.0 50.0Q582.0 97.0 555.0 144.0Q533.0 210.0 555.0 276.0Q577.0 335.0 555.0 393.0Q568.0 450.0 555.0 508.0Q563.0 548.0 555.0 588.0Q606.0 642.0 555.0 697.0Q474.0 758.0 555.0 820.0"/>
    <path d="M560.0 820.0Q478.0 759.0 560.0 699.0Q612.0 643.0 560.0 588.0Q573.0 548.0 560.0 507.0Q574.0 450.0 560.0 392.0Q577.0 334.0 560.0 275.0Q544.0 210.0 560.0 145.0Q588.0 97.0 560.0 50.0"/>
    <path d="M565.0 50.0Q593.0 98.0 565.0 146.0Q554.0 210.0 565.0 274.0Q577.0 332.0 565.0 391.0Q579.0 449.0 565.0 507.0Q584.0 548.0 565.0 588.0Q618.0 645.0 565.0 701.0Q482.0 760.0 565.0 820.0"/>
    <path d="M570.0 820.0Q486.0 761.0 570.0 703.0Q624.0 646.0 570.0 588.0Q594.0 548.0 570.0 507.0Q585.0 449.0 570.0 390.0Q577.0 331.0 570.0 273.0Q565.0 210.0 570.0 147.0Q599.0 98.0 570.0 50.0"/>
    <path d="M575.0 50.0Q604.0 99.0 575.0 148.0Q576.0 209.0 575.0 271.0Q577.0 330.0 575.0 389.0Q591.0 448.0 575.0 507.0Q604.0 548.0 575.0 589.0Q631.0 647.0 575.0 705.0Q489.0 763.0 575.0 820.0"/>
    <path d="M580.0 820.0Q493.0 764.0 580.0 707.0Q637.0 648.0 580.0 589.0Q615.0 548.0 580.0 506.0Q597.0 447.0 580.0 388.0Q577.0 329.0 580.0 270.0Q586.0 209.0 580.0 148.0Q609.0 99.0 580.0 50.0"/>
    <path d="M585.0 50.0Q615.0 100.0 585.0 149.0Q597.0 209.0 585.0 269.0Q577.0 328.0 585.0 388.0Q603.0 447.0 585.0 506.0Q625.0 548.0 585.0 589.0Q643.0 649.0 585.0 709.0Q497.0 765.0 585.0 820.0"/>
    <path d="M590.0 820.0Q501.0 766.0 590.0 711.0Q649.0 650.0 590.0 589.0Q635.0 548.0 590.0 506.0Q609.0 446.0 590.0 387.0Q577.0 327.0 590.0 267.0Q607.0 209.0 590.0 150.0Q620.0 100.0 590.0 50.0"/>
    <path d="M595.0 50.0Q625.0 100.0 595.0 151.0Q618.0 208.0 595.0 266.0Q577.0 326.0 595.0 386.0Q615.0 446.0 595.0 506.0Q645.0 547.0 595.0 589.0Q655.0 651.0 595.0 713.0Q504.0 766.0 595.0 820.0"/>
    <path d="M600.0 820.0Q508.0 767.0 600.0 715.0Q661.0 652.0 600.0 590.0Q655.0 547.0 600.0 505.0Q621.0 445.0 600.0 385.0Q578.0 325.0 600.0 265.0Q628.0 208.0 600.0 152.0Q631.0 101.0 600.0 50.0"/>
    <path d="M605.0 50.0Q636.0 101.0 605.0 152.0Q638.0 208.0 605.0 264.0Q578.0 324.0 605.0 384.0Q627.0 445.0 605.0 505.0Q665.0 547.0 605.0 590.0Q667.0 653.0 605.0 717.0Q512.0 768.0 605.0 820.0"/>
    <path d="M610.0 820.0Q516.0 769.0 610.0 718.0Q673.0 654.0 610.0 590.0Q675.0 547.0 610.0 505.0Q632.0 444.0 610.0 384.0Q579.0 323.0 610.0 263.0Q648.0 208.0 610.0 153.0Q641.0 102.0 610.0 50.0"/>
    <path d="M615.0 50.0Q647.0 102.0 615.0 154.0Q657.0 208.0 615.0 262.0Q580.0 322.0 615.0 383.0Q638.0 444.0 615.0 505.0Q684.0 547.0 615.0 590.0Q679.0 655.0 615.0 720.0Q520.0 770.0 615.0 820.0"/>
    <path d="M620.0 820.0Q524.0 771.0 620.0 721.0Q685.0 656.0 620.0 590.0Q693.0 547.0 620.0 505.0Q644.0 443.0 620.0 382.0Q581.0 321.0 620.0 261.0Q666.0 207.0 620.0 154.0Q652.0 102.0 620.0 50.0"/>
    <path d="M625.0 50.0Q657.0 102.0 625.0 155.0Q675.0 207.0 625.0 260.0Q583.0 321.0 625.0 382.0Q649.0 443.0 625.0 504.0Q701.0 547.0 625.0 590.0Q690.0 656.0 625.0 723.0Q529.0 771.0 625.0 820.0"/>
    <path d="M630.0 820.0Q533.0 772.0 630.0 724.0Q696.0 657.0 630.0 590.0Q709.0 547.0 630.0 504.0Q655.0 443.0 630.0 381.0Q585.0 320.0 630.0 259.0Q683.0 207.0 630.0 155.0Q662.0 103.0 630.0 50.0"/>
    <path d="M635.0 50.0Q668.0 103.0 635.0 156.0Q691.0 207.0 635.0 258.0Q587.0 319.0 635.0 381.0Q660.0 442.0 635.0 504.0Q717.0 547.0 635.0 591.0Q702.0 658.0 635.0 725.0Q537.0 772.0 635.0 820.0"/>
    <path d="M640.0 820.0Q542.0 773.0 640.0 726.0Q707.0 658.0 640.0 591.0Q725.0 547.0 640.0 504.0Q666.0 442.0 640.0 380.0Q590.0 319.0 640.0 258.0Q699.0 207.0 640.0 156.0Q673.0 103.0 640.0 50.0"/>
    <path d="M645.0 50.0Q678.0 103.0 645.0 157.0Q706.0 207.0 645.0 257.0Q593.0 318.0 645.0 380.0Q671.0 442.0 645.0 504.0Q732.0 547.0 645.0 591.0Q712.0 659.0 645.0 727.0Q546.0 773.0 645.0 820.0"/>
    <path d="M650.0 820.0Q551.0 774.0 650.0 727.0Q718.0 659.0 650.0 591.0Q738.0 547.0 650.0 504.0Q676.0 442.0 650.0 380.0Q596.0 318.0 650.0 257.0Q713.0 207.0 650.0 157.0Q683.0 103.0 650.0 50.0"/>
    <path d="M655.0 50.0Q688.0 104.0 655.0 157.0Q719.0 207.0 655.0 256.0Q600.0 318.0 655.0 379.0Q682.0 442.0 655.0 504.0Q744.0 547.0 655.0 591.0Q723.0 659.0 655.0 728.0Q556.0 774.0 655.0 820.0"/>
    <path d="M660.0 820.0Q560.0 774.0 660.0 728.0Q728.0 659.0 660.0 591.0Q750.0 547.0 660.0 504.0Q687.0 442.0 660.0 379.0Q605.0 318.0 660.0 256.0Q724.0 207.0 660.0 157.0Q693.0 104.0 660.0 50.0"/>
    <path d="M665.0 50.0Q698.0 104.0 665.0 157.0Q730.0 207.0 665.0 256.0Q609.0 318.0 665.0 379.0Q692.0 441.0 665.0 504.0Q755.0 547.0 665.0 591.0Q733.0 659.0 665.0 728.0Q565.0 774.0 665.0 820.0"/>
    <path d="M670.0 820.0Q570.0 774.0 670.0 728.0Q738.0 659.0 670.0 591.0Q760.0 547.0 670.0 504.0Q697.0 441.0 670.0 379.0Q614.0 318.0 670.0 256.0Q735.0 207.0 670.0 157.0Q703.0 104.0 670.0 50.0"/>
    <path d="M675.0 50.0Q708.0 104.0 675.0 157.0Q740.0 207.0 675.0 256.0Q619.0 318.0 675.0 379.0Q702.0 441.0 675.0 504.0Q765.0 547.0 675.0 591.0Q743.0 659.0 675.0 728.0Q575.0 774.0 675.0 820.0"/>
    <path d="M680.0 820.0Q581.0 774.0 680.0 728.0Q747.0 659.0 680.0 591.0Q770.0 547.0 680.0 503.0Q707.0 441.0 680.0 379.0Q624.0 318.0 680.0 256.0Q744.0 207.0 680.0 157.0Q714.0 104.0 680.0 50.0"/>
    <path d="M685.0 50.0Q719.0 104.0 685.0 158.0Q749.0 207.0 685.0 256.0Q629.0 318.0 685.0 380.0Q711.0 441.0 685.0 503.0Q774.0 547.0 685.0 591.0Q751.0 659.0 685.0 728.0Q586.0 774.0 685.0 820.0"/>
    <path d="M690.0 820.0Q592.0 774.0 690.0 728.0Q754.0 659.0 690.0 590.0Q777.0 546.0 690.0 502.0Q716.0 441.0 690.0 380.0Q635.0 318.0 690.0 256.0Q753.0 207.0 690.0 158.0Q725.0 104.0 690.0 50.0"/>
    <path d="M695.0 50.0Q731.0 104.0 695.0 158.0Q758.0 207.0 695.0 256.0Q640.0 318.0 695.0 380.0Q720.0 441.0 695.0 502.0Q781.0 546.0 695.0 590.0Q757.0 659.0 695.0 728.0Q598.0 774.0 695.0 820.0"/>
    <path d="M700.0 820.0Q605.0 774.0 700.0 728.0Q759.0 659.0 700.0 590.0Q784.0 545.0 700.0 501.0Q725.0 441.0 700.0 381.0Q645.0 318.0 700.0 256.0Q762.0 207.0 700.0 159.0Q737.0 105.0 700.0 50.0"/>
    <path d="M705.0 50.0Q743.0 105.0 705.0 160.0Q766.0 207.0 705.0 255.0Q650.0 318.0 705.0 381.0Q729.0 441.0 705.0 500.0Q786.0 545.0 705.0 589.0Q761.0 659.0 705.0 728.0Q611.0 774.0 705.0 820.0"/>
    <path d="M710.0 820.0Q618.0 774.0 710.0 728.0Q763.0 658.0 710.0 589.0Q789.0 544.0 710.0 499.0Q733.0 440.0 710.0 382.0Q655.0 318.0 710.0 255.0Q770.0 208.0 710.0 160.0Q749.0 105.0 710.0 50.0"/>
    <path d="M715.0 50.0Q756.0 106.0 715.0 161.0Q774.0 208.0 715.0 255.0Q660.0 319.0 715.0 383.0Q737.0 440.0 715.0 498.0Q791.0 543.0 715.0 588.0Q764.0 658.0 715.0 728.0Q625.0 774.0 715.0 820.0"/>
    <path d="M720.0 820.0Q632.0 774.0 720.0 728.0Q764.0 658.0 720.0 588.0Q793.0 542.0 720.0 497.0Q741.0 440.0 720.0 383.0Q665.0 319.0 720.0 254.0Q777.0 208.0 720.0 162.0Q762.0 106.0 720.0 50.0"/>
    <path d="M725.0 50.0Q769.0 107.0 725.0 163.0Q781.0 209.0 725.0 254.0Q670.0 319.0 725.0 384.0Q745.0 440.0 725.0 495.0Q794.0 541.0 725.0 587.0Q765.0 658.0 725.0 728.0Q639.0 774.0 725.0 820.0"/>
    <path d="M730.0 820.0Q647.0 774.0 730.0 728.0Q765.0 657.0 730.0 587.0Q795.0 540.0 730.0 494.0Q749.0 439.0 730.0 385.0Q676.0 319.0 730.0 254.0Q784.0 209.0 730.0 164.0Q776.0 107.0 730.0 50.0"/>
    <path d="M735.0 50.0Q783.0 108.0 735.0 165.0Q788.0 209.0 735.0 253.0Q681.0 320.0 735.0 386.0Q753.0 439.0 735.0 492.0Q796.0 539.0 735.0 586.0Q764.0 657.0 735.0 728.0Q654.0 774.0 735.0 820.0"/>
    <path d="M740.0 820.0Q662.0 774.0 740.0 728.0Q764.0 657.0 740.0 585.0Q797.0 538.0 740.0 490.0Q757.0 439.0 740.0 387.0Q686.0 320.0 740.0 253.0Q791.0 210.0 740.0 166.0Q790.0 108.0 740.0 50.0"/>
    <path d="M745.0 50.0Q797.0 109.0 745.0 168.0Q794.0 210.0 745.0 252.0Q691.0 320.0 745.0 388.0Q761.0 438.0 745.0 489.0Q798.0 537.0 745.0 584.0Q763.0 656.0 745.0 728.0Q669.0 774.0 745.0 820.0"/>
    <path d="M750.0 820.0Q677.0 774.0 750.0 728.0Q763.0 656.0 750.0 584.0Q799.0 535.0 750.0 487.0Q764.0 438.0 750.0 389.0Q696.0 320.0 750.0 252.0Q797.0 210.0 750.0 169.0Q804.0 109.0 750.0 50.0"/>
    <path d="M755.0 50.0Q811.0 110.0 755.0 170.0Q801.0 211.0 755.0 251.0Q702.0 321.0 755.0 390.0Q768.0 438.0 755.0 485.0Q799.0 534.0 755.0 583.0Q762.0 655.0 755.0 728.0Q685.0 774.0 755.0 820.0"/>
    <path d="M760.0 820.0Q693.0 774.0 760.0 728.0Q761.0 655.0 760.0 582.0Q800.0 533.0 760.0 483.0Q772.0 437.0 760.0 391.0Q707.0 321.0 760.0 251.0Q804.0 211.0 760.0 171.0Q818.0 111.0 760.0 50.0"/>
    <path d="M765.0 50.0Q826.0 111.0 765.0 172.0Q807.0 211.0 765.0 250.0Q712.0 321.0 765.0 392.0Q775.0 437.0 765.0 482.0Q801.0 531.0 765.0 581.0Q760.0 655.0 765.0 728.0Q701.0 774.0 765.0 820.0"/>
    <path d="M770.0 820.0Q709.0 774.0 770.0 728.0Q759.0 654.0 770.0 581.0Q801.0 530.0 770.0 480.0Q779.0 436.0 770.0 393.0Q717.0 321.0 770.0 250.0Q810.0 212.0 770.0 174.0Q833.0 112.0 770.0 50.0"/>
    <path d="M775.0 50.0Q840.0 112.0 775.0 175.0Q813.0 212.0 775.0 249.0Q723.0 322.0 775.0 394.0Q783.0 436.0 775.0 478.0Q802.0 529.0 775.0 580.0Q758.0 654.0 775.0 728.0Q716.0 774.0 775.0 820.0"/>
    <path d="M780.0 820.0Q724.0 774.0 780.0 728.0Q757.0 654.0 780.0 579.0Q802.0 528.0 780.0 476.0Q786.0 436.0 780.0 395.0Q728.0 322.0 780.0 249.0Q816.0 212.0 780.0 176.0Q847.0 113.0 780.0 50.0"/>
    <path d="M785.0 50.0Q854.0 114.0 785.0 177.0Q820.0 213.0 785.0 248.0Q733.0 322.0 785.0 396.0Q790.0 435.0 785.0 475.0Q803.0 526.0 785.0 578.0Q756.0 653.0 785.0 728.0Q732.0 774.0 785.0 820.0"/>
    <path d="M790.0 820.0Q740.0 774.0 790.0 728.0Q756.0 653.0 790.0 578.0Q804.0 525.0 790.0 473.0Q794.0 435.0 790.0 397.0Q738.0 323.0 790.0 248.0Q823.0 213.0 790.0 178.0Q861.0 114.0 790.0 50.0"/>
    <path d="M795.0 50.0Q868.0 115.0 795.0 180.0Q826.0 214.0 795.0 248.0Q743.0 323.0 795.0 398.0Q798.0 435.0 795.0 471.0Q805.0 524.0 795.0 577.0Q756.0 653.0 795.0 728.0Q747.0 774.0 795.0 820.0"/>
    <path d="M800.0 820.0Q755.0 774.0 800.0 728.0Q756.0 652.0 800.0 576.0Q807.0 523.0 800.0 470.0Q801.0 434.0 800.0 399.0Q749.0 323.0 800.0 247.0Q830.0 214.0 800.0 181.0Q875.0 115.0 800.0 50.0"/>
    <path d="M805.0 50.0Q882.0 116.0 805.0 182.0Q833.0 214.0 805.0 247.0Q754.0 323.0 805.0 400.0Q805.0 434.0 805.0 468.0Q808.0 522.0 805.0 576.0Q756.0 652.0 805.0 728.0Q762.0 774.0 805.0 820.0"/>
    <path d="M810.0 820.0Q769.0 774.0 810.0 728.0Q757.0 652.0 810.0 575.0Q810.0 521.0 810.0 467.0Q809.0 434.0 810.0 401.0Q759.0 323.0 810.0 246.0Q837.0 214.0 810.0 182.0Q888.0 116.0 810.0 50.0"/>
    <path d="M815.0 50.0Q895.0 117.0 815.0 183.0Q841.0 215.0 815.0 246.0Q764.0 324.0 815.0 401.0Q814.0 434.0 815.0 466.0Q812.0 520.0 815.0 575.0Q758.0 651.0 815.0 728.0Q776.0 774.0 815.0 820.0"/>
    <path d="M820.0 820.0Q783.0 774.0 820.0 728.0Q759.0 651.0 820.0 574.0Q814.0 520.0 820.0 465.0Q818.0 433.0 820.0 402.0Q769.0 324.0 820.0 246.0Q845.0 215.0 820.0 184.0Q901.0 117.0 820.0 50.0"/>
    <path d="M825.0 50.0Q907.0 117.0 825.0 185.0Q849.0 215.0 825.0 246.0Q774.0 324.0 825.0 402.0Q822.0 433.0 825.0 464.0Q817.0 519.0 825.0 574.0Q761.0 651.0 825.0 728.0Q789.0 774.0 825.0 820.0"/>
    <path d="M830.0 820.0Q795.0 774.0 830.0 728.0Q763.0 651.0 830.0 573.0Q820.0 518.0 830.0 463.0Q826.0 433.0 830.0 403.0Q779.0 324.0 830.0 245.0Q853.0 215.0 830.0 185.0Q913.0 118.0 830.0 50.0"/>
    <path d="M835.0 50.0Q919.0 118.0 835.0 186.0Q857.0 215.0 835.0 245.0Q785.0 324.0 835.0 403.0Q831.0 433.0 835.0 462.0Q823.0 518.0 835.0 573.0Q766.0 651.0 835.0 728.0Q801.0 774.0 835.0 820.0"/>
    <path d="M840.0 820.0Q807.0 774.0 840.0 728.0Q769.0 651.0 840.0 573.0Q827.0 517.0 840.0 462.0Q836.0 433.0 840.0 404.0Q790.0 324.0 840.0 245.0Q862.0 215.0 840.0 186.0Q925.0 118.0 840.0 50.0"/>
    <path d="M845.0 50.0Q930.0 118.0 845.0 186.0Q866.0 216.0 845.0 245.0Q795.0 324.0 845.0 404.0Q840.0 433.0 845.0 462.0Q831.0 517.0 845.0 573.0Q773.0 650.0 845.0 728.0Q813.0 774.0 845.0 820.0"/>
    <path d="M850.0 820.0Q818.0 774.0 850.0 728.0Q777.0 650.0 850.0 573.0Q835.0 517.0 850.0 461.0Q845.0 433.0 850.0 404.0Q800.0 324.0 850.0 245.0Q871.0 216.0 850.0 186.0Q936.0 118.0 850.0 50.0"/>
    <path d="M855.0 50.0Q941.0 118.0 855.0 186.0Q876.0 216.0 855.0 245.0Q805.0 324.0 855.0 404.0Q850.0 433.0 855.0 461.0Q840.0 517.0 855.0 573.0Q782.0 650.0 855.0 728.0Q823.0 774.0 855.0 820.0"/>
    <path d="M860.0 820.0Q828.0 774.0 860.0 728.0Q787.0 650.0 860.0 573.0Q845.0 517.0 860.0 461.0Q855.0 433.0 860.0 404.0Q810.0 324.0 860.0 245.0Q881.0 216.0 860.0 186.0Q946.0 118.0 860.0 50.0"/>
    <path d="M865.0 50.0Q950.0 118.0 865.0 186.0Q886.0 216.0 865.0 245.0Q815.0 324.0 865.0 404.0Q860.0 433.0 865.0 461.0Q850.0 517.0 865.0 573.0Q792.0 650.0 865.0 728.0Q833.0 774.0 865.0 820.0"/>
    <path d="M870.0 820.0Q838.0 774.0 870.0 728.0Q798.0 651.0 870.0 573.0Q855.0 517.0 870.0 461.0Q866.0 433.0 870.0 404.0Q819.0 324.0 870.0 245.0Q891.0 216.0 870.0 186.0Q954.0 118.0 870.0 50.0"/>
    <path d="M875.0 50.0Q958.0 118.0 875.0 186.0Q897.0 215.0 875.0 245.0Q824.0 324.0 875.0 404.0Q872.0 433.0 875.0 461.0Q859.0 517.0 875.0 573.0Q805.0 651.0 875.0 728.0Q842.0 774.0 875.0 820.0"/>
    <path d="M880.0 820.0Q847.0 774.0 880.0 728.0Q812.0 651.0 880.0 574.0Q863.0 518.0 880.0 462.0Q878.0 433.0 880.0 404.0Q829.0 324.0 880.0 245.0Q903.0 215.0 880.0 186.0Q961.0 118.0 880.0 50.0"/>
    <path d="M885.0 50.0Q963.0 118.0 885.0 185.0Q909.0 215.0 885.0 245.0Q833.0 324.0 885.0 404.0Q884.0 433.0 885.0 462.0Q867.0 518.0 885.0 574.0Q819.0 651.0 885.0 728.0Q851.0 774.0 885.0 820.0"/>
    <path d="M890.0 820.0Q855.0 774.0 890.0 729.0Q828.0 652.0 890.0 575.0Q870.0 518.0 890.0 462.0Q891.0 433.0 890.0 403.0Q837.0 324.0 890.0 245.0Q915.0 215.0 890.0 185.0Q964.0 117.0 890.0 50.0"/>
    <path d="M895.0 50.0Q966.0 117.0 895.0 184.0Q922.0 215.0 895.0 245.0Q841.0 324.0 895.0 403.0Q898.0 433.0 895.0 462.0Q874.0 519.0 895.0 576.0Q836.0 652.0 895.0 729.0Q858.0 774.0 895.0 820.0"/>
    <path d="M900.0 820.0Q862.0 774.0 900.0 729.0Q845.0 653.0 900.0 577.0Q877.0 519.0 900.0 462.0Q906.0 433.0 900.0 403.0Q845.0 324.0 900.0 246.0Q929.0 215.0 900.0 184.0Q966.0 117.0 900.0 50.0"/>
    <path d="M905.0 50.0Q966.0 116.0 905.0 183.0Q936.0 214.0 905.0 246.0Q849.0 324.0 905.0 402.0Q913.0 433.0 905.0 463.0Q880.0 520.0 905.0 578.0Q855.0 653.0 905.0 729.0Q865.0 775.0 905.0 820.0"/>
    <path d="M910.0 820.0Q868.0 775.0 910.0 729.0Q865.0 654.0 910.0 579.0Q882.0 521.0 910.0 463.0Q921.0 433.0 910.0 402.0Q853.0 324.0 910.0 246.0Q943.0 214.0 910.0 182.0Q966.0 116.0 910.0 50.0"/>
    <path d="M915.0 50.0Q965.0 116.0 915.0 181.0Q950.0 214.0 915.0 246.0Q856.0 324.0 915.0 402.0Q930.0 432.0 915.0 463.0Q885.0 522.0 915.0 580.0Q875.0 655.0 915.0 730.0Q871.0 775.0 915.0 820.0"/>
    <path d="M920.0 820.0Q874.0 775.0 920.0 730.0Q886.0 656.0 920.0 581.0Q887.0 522.0 920.0 464.0Q938.0 432.0 920.0 401.0Q860.0 324.0 920.0 247.0Q958.0 213.0 920.0 180.0Q964.0 115.0 920.0 50.0"/>
    <path d="M925.0 50.0Q962.0 115.0 925.0 179.0Q965.0 213.0 925.0 247.0Q863.0 324.0 925.0 401.0Q947.0 432.0 925.0 464.0Q889.0 523.0 925.0 583.0Q897.0 656.0 925.0 730.0Q877.0 775.0 925.0 820.0"/>
    <path d="M930.0 820.0Q880.0 775.0 930.0 731.0Q909.0 657.0 930.0 584.0Q891.0 524.0 930.0 464.0Q955.0 432.0 930.0 401.0Q867.0 324.0 930.0 247.0Q973.0 213.0 930.0 178.0Q960.0 114.0 930.0 50.0"/>
    <path d="M935.0 50.0Q958.0 114.0 935.0 177.0Q981.0 212.0 935.0 247.0Q870.0 324.0 935.0 400.0Q964.0 432.0 935.0 465.0Q893.0 525.0 935.0 585.0Q920.0 658.0 935.0 731.0Q882.0 775.0 935.0 820.0"/>
    <path d="M940.0 820.0Q885.0 776.0 940.0 731.0Q932.0 659.0 940.0 587.0Q895.0 526.0 940.0 465.0Q973.0 432.0 940.0 400.0Q873.0 324.0 940.0 248.0Q989.0 212.0 940.0 176.0Q956.0 113.0 940.0 50.0"/>
    <path d="M945.0 50.0Q953.0 112.0 945.0 175.0Q997.0 212.0 945.0 248.0Q877.0 324.0 945.0 399.0Q982.0 432.0 945.0 465.0Q897.0 527.0 945.0 588.0Q944.0 660.0 945.0 732.0Q887.0 776.0 945.0 820.0"/>
    <path d="M950.0 820.0Q890.0 776.0 950.0 732.0Q956.0 661.0 950.0 590.0Q899.0 528.0 950.0 466.0Q991.0 432.0 950.0 399.0Q880.0 324.0 950.0 248.0Q1005.0 211.0 950.0 174.0Q951.0 112.0 950.0 50.0"/>
    <path d="M955.0 50.0Q948.0 111.0 955.0 173.0Q1013.0 211.0 955.0 249.0Q883.0 324.0 955.0 398.0Q1000.0 432.0 955.0 466.0Q900.0 529.0 955.0 591.0Q968.0 662.0 955.0 732.0Q892.0 776.0 955.0 820.0"/>
    <path d="M960.0 820.0Q895.0 776.0 960.0 733.0Q980.0 663.0 960.0 593.0Q902.0 530.0 960.0 467.0Q1009.0 432.0 960.0 398.0Q887.0 324.0 960.0 249.0Q1021.0 210.0 960.0 172.0Q946.0 111.0 960.0 50.0"/>
    <path d="M965.0 50.0Q943.0 110.0 965.0 171.0Q1029.0 210.0 965.0 249.0Q890.0 323.0 965.0 398.0Q1018.0 432.0 965.0 467.0Q904.0 531.0 965.0 594.0Q992.0 664.0 965.0 733.0Q897.0 776.0 965.0 820.0"/>
    <path d="M970.0 820.0Q900.0 777.0 970.0 733.0Q1003.0 665.0 970.0 596.0Q906.0 532.0 970.0 467.0Q1027.0 432.0 970.0 397.0Q893.0 323.0 970.0 250.0Q1037.0 210.0 970.0 169.0Q941.0 110.0 970.0 50.0"/>
    <path d="M975.0 50.0Q939.0 109.0 975.0 168.0Q1044.0 209.0 975.0 250.0Q896.0 323.0 975.0 397.0Q1036.0 432.0 975.0 468.0Q908.0 533.0 975.0 597.0Q1015.0 665.0 975.0 734.0Q902.0 777.0 975.0 820.0"/>
    <path d="M980.0 820.0Q905.0 777.0 980.0 734.0Q1026.0 666.0 980.0 599.0Q910.0 533.0 980.0 468.0Q1045.0 432.0 980.0 396.0Q900.0 323.0 980.0 250.0Q1052.0 209.0 980.0 167.0Q937.0 109.0 980.0 50.0"/>
    <path d="M985.0 50.0Q936.0 108.0 985.0 166.0Q1060.0 209.0 985.0 251.0Q903.0 323.0 985.0 396.0Q1054.0 432.0 985.0 468.0Q912.0 534.0 985.0 600.0Q1037.0 667.0 985.0 734.0Q908.0 777.0 985.0 820.0"/>
    <path d="M990.0 820.0Q911.0 777.0 990.0 734.0Q1048.0 668.0 990.0 601.0Q914.0 535.0 990.0 469.0Q1062.0 432.0 990.0 395.0Q907.0 323.0 990.0 251.0Q1067.0 208.0 990.0 165.0Q934.0 108.0 990.0 50.0"/>
    <path d="M995.0 50.0Q934.0 107.0 995.0 165.0Q1074.0 208.0 995.0 251.0Q911.0 323.0 995.0 395.0Q1070.0 432.0 995.0 469.0Q917.0 536.0 995.0 602.0Q1059.0 669.0 995.0 735.0Q914.0 777.0 995.0 820.0"/>
    <path d="M1000.0 820.0Q917.0 777.0 1000.0 735.0Q1069.0 669.0 1000.0 604.0Q919.0 536.0 1000.0 469.0Q1078.0 432.0 1000.0 395.0Q914.0 323.0 1000.0 251.0Q1082.0 208.0 1000.0 164.0Q933.0 107.0 1000.0 50.0"/>
    <path d="M1005.0 50.0Q933.0 107.0 1005.0 163.0Q1089.0 207.0 1005.0 252.0Q918.0 323.0 1005.0 395.0Q1086.0 432.0 1005.0 470.0Q922.0 537.0 1005.0 605.0Q1078.0 670.0 1005.0 735.0Q920.0 778.0 1005.0 820.0"/>
    <path d="M1010.0 820.0Q924.0 778.0 1010.0 735.0Q1087.0 670.0 1010.0 606.0Q925.0 538.0 1010.0 470.0Q1093.0 432.0 1010.0 394.0Q922.0 323.0 1010.0 252.0Q1095.0 207.0 1010.0 162.0Q934.0 106.0 1010.0 50.0"/>
    <path d="M1015.0 50.0Q935.0 106.0 1015.0 162.0Q1102.0 207.0 1015.0 252.0Q926.0 323.0 1015.0 394.0Q1100.0 432.0 1015.0 470.0Q928.0 538.0 1015.0 606.0Q1096.0 671.0 1015.0 736.0Q927.0 778.0 1015.0 820.0"/>
    <path d="M1020.0 820.0Q931.0 778.0 1020.0 736.0Q1104.0 671.0 1020.0 607.0Q932.0 539.0 1020.0 470.0Q1107.0 432.0 1020.0 394.0Q930.0 323.0 1020.0 252.0Q1108.0 207.0 1020.0 161.0Q936.0 106.0 1020.0 50.0"/>
    <path d="M1025.0 50.0Q939.0 105.0 1025.0 161.0Q1114.0 207.0 1025.0 252.0Q935.0 323.0 1025.0 394.0Q1114.0 432.0 1025.0 470.0Q936.0 539.0 1025.0 608.0Q1112.0 672.0 1025.0 736.0Q935.0 778.0 1025.0 820.0"/>
    <path d="M1030.0 820.0Q940.0 778.0 1030.0 736.0Q1119.0 672.0 1030.0 608.0Q940.0 539.0 1030.0 471.0Q1120.0 432.0 1030.0 394.0Q939.0 323.0 1030.0 252.0Q1120.0 206.0 1030.0 161.0Q941.0 105.0 1030.0 50.0"/>
    <path d="M1035.0 50.0Q945.0 105.0 1035.0 160.0Q1126.0 206.0 1035.0 252.0Q944.0 323.0 1035.0 393.0Q1126.0 432.0 1035.0 471.0Q944.0 539.0 1035.0 608.0Q1125.0 672.0 1035.0 736.0Q944.0 778.0 1035.0 820.0"/>
    <path d="M1040.0 820.0Q949.0 778.0 1040.0 736.0Q1131.0 672.0 1040.0 609.0Q949.0 540.0 1040.0 471.0Q1131.0 432.0 1040.0 393.0Q949.0 323.0 1040.0 252.0Q1131.0 206.0 1040.0 160.0Q949.0 105.0 1040.0 50.0"/>
    <path d="M1045.0 50.0Q954.0 105.0 1045.0 160.0Q1136.0 206.0 1045.0 252.0Q954.0 323.0 1045.0 393.0Q1136.0 432.0 1045.0 471.0Q954.0 540.0 1045.0 609.0Q1136.0 672.0 1045.0 736.0Q954.0 778.0 1045.0 820.0"/>
  </g>
</svg>
