<svg version="1.1" width="1150" height="870" xmlns="http://www.w3.org/2000/svg">
  <!-- Seed: 7411706431419562480 -->
  <!-- Size: SvgSize.Size9x12 -->
  <!-- Params:
    draw: True
    pad_x: 50
    pad_y: 0
    row_range: [RangeInt] min: 3 max: 10
    col_range: [RangeInt] min: 5 max: 10
    wave_range: 100
    wave_y_range: 30
    step_size: 5
  -->
  <g stroke="black" fill="none">
    <path d="M100.0 50.0Q105.29 231.58 100.0 413.16Q94.71 616.58 100.0 820.0"/>
    <path d="M105.0 50.0Q110.58 231.66 105.0 413.32Q99.78 616.66 105.0 820.0"/>
    <path d="M110.0 50.0Q116.45 231.89 110.0 413.78Q104.98 616.89 110.0 820.0"/>
    <path d="M115.0 50.0Q122.89 232.275 115.0 414.55Q110.31 617.275 115.0 820.0"/>
    <path d="M120.0 50.0Q129.86 232.8 120.0 415.6Q115.77 617.8 120.0 820.0"/>
    <path d="M125.0 50.0Q137.33 233.455 125.0 416.91Q121.33 618.455 125.0 820.0"/>
    <path d="M130.0 50.0Q145.23 234.23 130.0 418.46Q127.0 619.23 130.0 820.0"/>
    <path d="M135.0 50.0Q153.52 235.105 135.0 420.21Q132.76 620.105 135.0 820.0"/>
    <path d="M140.0 50.0Q162.13 236.065 140.0 422.13Q138.59 621.065 140.0 820.0"/>
    <path d="M145.0 50.0Q170.99 237.09 145.0 424.18Q144.47 622.09 145.0 820.0"/>
    <path d="M150.0 50.0Q180.0 238.16 150.0 426.32Q150.4 623.16 150.0 820.0"/>
    <path d="M155.0 50.0Q189.1 239.25 155.0 428.5Q156.34 624.25 155.0 820.0"/>
    <path d="M160.0 50.0Q198.2 240.345 160.0 430.69Q162.28 625.345 160.0 820.0"/>
    <path d="M165.0 50.0Q207.22 241.415 165.0 432.83Q168.21 626.415 165.0 820.0"/>
    <path d="M170.0 50.0Q216.07 242.44 170.0 434.88Q174.09 627.44 170.0 820.0"/>
    <path d="M175.0 50.0Q224.68 243.4 175.0 436.8Q179.92 628.4 175.0 820.0"/>
    <path d="M180.0 50.0Q232.97 244.275 180.0 438.55Q185.68 629.275 180.0 820.0"/>
    <path d="M185.0 50.0Q240.88 245.05 185.0 440.1Q191.35 630.05 185.0 820.0"/>
    <path d="M190.0 50.0Q248.35 245.705 190.0 441.41Q196.91 630.705 190.0 820.0"/>
    <path d="M195.0 50.0Q255.32 246.23 195.0 442.46Q202.37 631.23 195.0 820.0"/>
    <path d="M200.0 50.0Q261.75 246.61 200.0 443.22Q207.7 631.61 200.0 820.0"/>
    <path d="M205.0 50.0Q267.63 246.845 205.0 443.69Q212.9 631.845 205.0 820.0"/>
    <path d="M210.0 50.0Q272.92 246.92 210.0 443.84Q217.97 631.92 210.0 820.0"/>
    <path d="M215.0 50.0Q277.92 246.92 215.0 443.84Q222.97 631.92 215.0 820.0"/>
    <path d="M220.0 50.0Q283.0 246.875 220.0 443.75Q228.38 631.875 220.0 820.0"/>
    <path d="M225.0 50.0Q288.26 246.74 225.0 443.48Q234.62 631.74 225.0 820.0"/>
    <path d="M230.0 50.0Q293.67 246.515 230.0 443.03Q241.66 631.515 230.0 820.0"/>
    <path d="M235.0 50.0Q299.24 246.205 235.0 442.41Q249.46 631.205 235.0 820.0"/>
    <path d="M240.0 50.0Q304.95 245.82 240.0 441.64Q257.96 630.8199999999999 240.0 820.0"/>
    <path d="M245.0 50.0Q310.78 245.36 245.0 440.72Q267.09 630.36 245.0 820.0"/>
    <path d="M250.0 50.0Q316.73 244.845 250.0 439.69Q276.76 629.845 250.0 820.0"/>
    <path d="M255.0 50.0Q322.77 244.28 255.0 438.56Q286.89 629.28 255.0 820.0"/>
    <path d="M260.0 50.0Q328.88 243.675 260.0 437.35Q297.36 628.675 260.0 820.0"/>
    <path d="M265.0 50.0Q335.03 243.045 265.0 436.09Q308.06 628.045 265.0 820.0"/>
    <path d="M270.0 50.0Q341.21 242.4 270.0 434.8Q318.89 627.4 270.0 820.0"/>
    <path d="M275.0 50.0Q347.39 241.76 275.0 433.52Q329.71 626.76 275.0 820.0"/>
    <path d="M280.0 50.0Q353.55 241.13 280.0 432.26Q340.42 626.13 280.0 820.0"/>
    <path d="M285.0 50.0Q359.66 240.525 285.0 431.05Q350.89 625.525 285.0 820.0"/>
    <path d="M290.0 50.0Q365.7 239.96 290.0 429.92Q361.01 624.96 290.0 820.0"/>
    <path d="M295.0 50.0Q371.65 239.44 295.0 428.88Q370.69 624.44 295.0 820.0"/>
    <path d="M300.0 50.0Q377.48 238.985 300.0 427.97Q379.82 623.985 300.0 820.0"/>
    <path d="M305.0 50.0Q383.19 238.6 305.0 427.2Q388.32 623.6 305.0 820.0"/>
    <path d="M310.0 50.0Q388.76 238.29 310.0 426.58Q396.11 623.29 310.0 820.0"/>
    <path d="M315.0 50.0Q394.17 238.065 315.0 426.13Q403.15 623.065 315.0 820.0"/>
    <path d="M320.0 50.0Q399.42 237.925 320.0 425.85Q409.4 622.925 320.0 820.0"/>
    <path d="M325.0 50.0Q404.51 237.88 325.0 425.76Q414.81 622.88 325.0 820.0"/>
    <path d="M330.0 50.0Q409.51 237.88 330.0 425.76Q419.81 622.88 330.0 820.0"/>
    <path d="M335.0 50.0Q413.76 237.85 335.0 425.7Q424.41 622.85 335.0 820.0"/>
    <path d="M340.0 50.0Q416.55 237.765 340.0 425.53Q428.21 622.765 340.0 820.0"/>
    <path d="M345.0 50.0Q417.91 237.62 345.0 425.24Q431.23 622.62 345.0 820.0"/>
    <path d="M350.0 50.0Q417.91 237.425 350.0 424.85Q433.52 622.425 350.0 820.0"/>
    <path d="M355.0 50.0Q416.66 237.175 355.0 424.35Q435.14 622.175 355.0 820.0"/>
    <path d="M360.0 50.0Q414.29 236.885 360.0 423.77Q436.14 621.885 360.0 820.0"/>
    <path d="M365.0 50.0Q410.95 236.555 365.0 423.11Q436.62 621.5550000000001 365.0 820.0"/>
    <path d="M370.0 50.0Q406.8 236.195 370.0 422.39Q436.66 621.1949999999999 370.0 820.0"/>
    <path d="M375.0 50.0Q402.03 235.81 375.0 421.62Q436.36 620.81 375.0 820.0"/>
    <path d="M380.0 50.0Q396.84 235.41 380.0 420.82Q435.84 620.41 380.0 820.0"/>
    <path d="M385.0 50.0Q391.45 235.0 385.0 420.0Q435.2 620.0 385.0 820.0"/>
    <path d="M390.0 50.0Q386.05 234.585 390.0 419.17Q434.57 619.585 390.0 820.0"/>
    <path d="M395.0 50.0Q380.86 234.185 395.0 418.37Q434.04 619.185 395.0 820.0"/>
    <path d="M400.0 50.0Q376.1 233.8 400.0 417.6Q433.75 618.8 400.0 820.0"/>
    <path d="M405.0 50.0Q371.95 233.44 405.0 416.88Q433.79 618.44 405.0 820.0"/>
    <path d="M410.0 50.0Q368.6 233.11 410.0 416.22Q434.27 618.11 410.0 820.0"/>
    <path d="M415.0 50.0Q366.23 232.82 415.0 415.64Q435.27 617.8199999999999 415.0 820.0"/>
    <path d="M420.0 50.0Q364.98 232.57 420.0 415.14Q436.88 617.5699999999999 420.0 820.0"/>
    <path d="M425.0 50.0Q364.99 232.375 425.0 414.75Q439.17 617.375 425.0 820.0"/>
    <path d="M430.0 50.0Q366.34 232.23 430.0 414.46Q442.2 617.23 430.0 820.0"/>
    <path d="M435.0 50.0Q369.13 232.145 435.0 414.29Q446.0 617.145 435.0 820.0"/>
    <path d="M440.0 50.0Q373.38 232.115 440.0 414.23Q450.59 617.115 440.0 820.0"/>
    <path d="M445.0 50.0Q378.38 232.115 445.0 414.23Q455.59 617.115 445.0 820.0"/>
    <path d="M450.0 50.0Q383.54 232.1 450.0 414.2Q460.74 617.1 450.0 820.0"/>
    <path d="M455.0 50.0Q389.0 232.05 455.0 414.1Q466.16 617.05 455.0 820.0"/>
    <path d="M460.0 50.0Q394.76 231.965 460.0 413.93Q471.85 616.965 460.0 820.0"/>
    <path d="M465.0 50.0Q400.8 231.855 465.0 413.71Q477.8 616.855 465.0 820.0"/>
    <path d="M470.0 50.0Q407.1 231.715 470.0 413.43Q483.98 616.715 470.0 820.0"/>
    <path d="M475.0 50.0Q413.64 231.55 475.0 413.1Q490.38 616.55 475.0 820.0"/>
    <path d="M480.0 50.0Q420.38 231.36 480.0 412.72Q496.97 616.36 480.0 820.0"/>
    <path d="M485.0 50.0Q427.28 231.155 485.0 412.31Q503.7 616.155 485.0 820.0"/>
    <path d="M490.0 50.0Q434.32 230.94 490.0 411.88Q510.56 615.94 490.0 820.0"/>
    <path d="M495.0 50.0Q441.44 230.71 495.0 411.42Q517.49 615.71 495.0 820.0"/>
    <path d="M500.0 50.0Q448.61 230.475 500.0 410.95Q524.46 615.475 500.0 820.0"/>
    <path d="M505.0 50.0Q455.77 230.245 505.0 410.49Q531.44 615.245 505.0 820.0"/>
    <path d="M510.0 50.0Q462.9 230.015 510.0 410.03Q538.37 615.015 510.0 820.0"/>
    <path d="M515.0 50.0Q469.93 229.795 515.0 409.59Q545.23 614.795 515.0 820.0"/>
    <path d="M520.0 50.0Q476.84 229.59 520.0 409.18Q551.96 614.59 520.0 820.0"/>
    <path d="M525.0 50.0Q483.58 229.405 525.0 408.81Q558.55 614.405 525.0 820.0"/>
    <path d="M530.0 50.0Q490.11 229.24 530.0 408.48Q564.95 614.24 530.0 820.0"/>
    <path d="M535.0 50.0Q496.42 229.1 535.0 408.2Q571.13 614.1 535.0 820.0"/>
    <path d="M540.0 50.0Q502.46 228.99 540.0 407.98Q577.08 613.99 540.0 820.0"/>
    <path d="M545.0 50.0Q508.22 228.905 545.0 407.81Q582.77 613.905 545.0 820.0"/>
    <path d="M550.0 50.0Q513.68 228.855 550.0 407.71Q588.19 613.855 550.0 820.0"/>
    <path d="M555.0 50.0Q518.83 228.84 555.0 407.68Q593.33 613.84 555.0 820.0"/>
    <path d="M560.0 50.0Q523.83 228.84 560.0 407.68Q598.33 613.84 560.0 820.0"/>
    <path d="M565.0 50.0Q529.24 228.88 565.0 407.76Q603.11 613.88 565.0 820.0"/>
    <path d="M570.0 50.0Q535.47 229.005 570.0 408.01Q607.44 614.005 570.0 820.0"/>
    <path d="M575.0 50.0Q542.48 229.205 575.0 408.41Q611.33 614.205 575.0 820.0"/>
    <path d="M580.0 50.0Q550.24 229.48 580.0 408.96Q614.82 614.48 580.0 820.0"/>
    <path d="M585.0 50.0Q558.69 229.825 585.0 409.65Q617.93 614.825 585.0 820.0"/>
    <path d="M590.0 50.0Q567.76 230.235 590.0 410.47Q620.7 615.235 590.0 820.0"/>
    <path d="M595.0 50.0Q577.36 230.695 595.0 411.39Q623.17 615.6949999999999 595.0 820.0"/>
    <path d="M600.0 50.0Q587.42 231.2 600.0 412.4Q625.4 616.2 600.0 820.0"/>
    <path d="M605.0 50.0Q597.81 231.74 605.0 413.48Q627.44 616.74 605.0 820.0"/>
    <path d="M610.0 50.0Q608.43 232.3 610.0 414.6Q629.35 617.3 610.0 820.0"/>
    <path d="M615.0 50.0Q619.17 232.875 615.0 415.75Q631.21 617.875 615.0 820.0"/>
    <path d="M620.0 50.0Q629.92 233.45 620.0 416.9Q633.06 618.45 620.0 820.0"/>
    <path d="M625.0 50.0Q640.54 234.015 625.0 418.03Q634.97 619.015 625.0 820.0"/>
    <path d="M630.0 50.0Q650.93 234.555 630.0 419.11Q637.01 619.5550000000001 630.0 820.0"/>
    <path d="M635.0 50.0Q660.98 235.06 635.0 420.12Q639.24 620.06 635.0 820.0"/>
    <path d="M640.0 50.0Q670.59 235.52 640.0 421.04Q641.71 620.52 640.0 820.0"/>
    <path d="M645.0 50.0Q679.66 235.93 645.0 421.86Q644.48 620.9300000000001 645.0 820.0"/>
    <path d="M650.0 50.0Q688.11 236.275 650.0 422.55Q647.59 621.275 650.0 820.0"/>
    <path d="M655.0 50.0Q695.87 236.55 655.0 423.1Q651.08 621.55 655.0 820.0"/>
    <path d="M660.0 50.0Q702.88 236.75 660.0 423.5Q654.97 621.75 660.0 820.0"/>
    <path d="M665.0 50.0Q709.11 236.875 665.0 423.75Q659.3 621.875 665.0 820.0"/>
    <path d="M670.0 50.0Q714.52 236.915 670.0 423.83Q664.08 621.915 670.0 820.0"/>
    <path d="M675.0 50.0Q719.52 236.915 675.0 423.83Q669.08 621.915 675.0 820.0"/>
    <path d="M680.0 50.0Q724.23 236.9 680.0 423.8Q674.31 621.9 680.0 820.0"/>
    <path d="M685.0 50.0Q728.36 236.87 685.0 423.74Q679.99 621.87 685.0 820.0"/>
    <path d="M690.0 50.0Q731.93 236.81 690.0 423.62Q686.11 621.81 690.0 820.0"/>
    <path d="M695.0 50.0Q734.98 236.735 695.0 423.47Q692.65 621.735 695.0 820.0"/>
    <path d="M700.0 50.0Q737.53 236.635 700.0 423.27Q699.57 621.635 700.0 820.0"/>
    <path d="M705.0 50.0Q739.65 236.52 705.0 423.04Q706.84 621.52 705.0 820.0"/>
    <path d="M710.0 50.0Q741.38 236.39 710.0 422.78Q714.4 621.39 710.0 820.0"/>
    <path d="M715.0 50.0Q742.8 236.245 715.0 422.49Q722.22 621.245 715.0 820.0"/>
    <path d="M720.0 50.0Q743.98 236.095 720.0 422.19Q730.22 621.095 720.0 820.0"/>
    <path d="M725.0 50.0Q744.99 235.935 725.0 421.87Q738.36 620.935 725.0 820.0"/>
    <path d="M730.0 50.0Q745.92 235.775 730.0 421.55Q746.56 620.775 730.0 820.0"/>
    <path d="M735.0 50.0Q746.85 235.61 735.0 421.22Q754.76 620.61 735.0 820.0"/>
    <path d="M740.0 50.0Q747.86 235.45 740.0 420.9Q762.89 620.45 740.0 820.0"/>
    <path d="M745.0 50.0Q749.04 235.3 745.0 420.6Q770.9 620.3 745.0 820.0"/>
    <path d="M750.0 50.0Q750.46 235.155 750.0 420.31Q778.71 620.155 750.0 820.0"/>
    <path d="M755.0 50.0Q752.19 235.025 755.0 420.05Q786.28 620.025 755.0 820.0"/>
    <path d="M760.0 50.0Q754.31 234.91 760.0 419.82Q793.55 619.91 760.0 820.0"/>
    <path d="M765.0 50.0Q756.86 234.815 765.0 419.63Q800.47 619.815 765.0 820.0"/>
    <path d="M770.0 50.0Q759.91 234.735 770.0 419.47Q807.01 619.735 770.0 820.0"/>
    <path d="M775.0 50.0Q763.48 234.68 775.0 419.36Q813.13 619.6800000000001 775.0 820.0"/>
    <path d="M780.0 50.0Q767.61 234.645 780.0 419.29Q818.81 619.645 780.0 820.0"/>
    <path d="M785.0 50.0Q772.32 234.63 785.0 419.26Q824.04 619.63 785.0 820.0"/>
    <path d="M790.0 50.0Q777.32 234.63 790.0 419.26Q829.04 619.63 790.0 820.0"/>
    <path d="M795.0 50.0Q781.88 234.625 795.0 419.25Q834.2 619.625 795.0 820.0"/>
    <path d="M800.0 50.0Q785.57 234.6 800.0 419.2Q839.7 619.6 800.0 820.0"/>
    <path d="M805.0 50.0Q788.4 234.565 805.0 419.13Q845.51 619.565 805.0 820.0"/>
    <path d="M810.0 50.0Q790.44 234.515 810.0 419.03Q851.62 619.515 810.0 820.0"/>
    <path d="M815.0 50.0Q791.73 234.455 815.0 418.91Q858.0 619.455 815.0 820.0"/>
    <path d="M820.0 50.0Q792.35 234.38 820.0 418.76Q864.64 619.38 820.0 820.0"/>
    <path d="M825.0 50.0Q792.39 234.295 825.0 418.59Q871.5 619.295 825.0 820.0"/>
    <path d="M830.0 50.0Q791.96 234.205 830.0 418.41Q878.53 619.205 830.0 820.0"/>
    <path d="M835.0 50.0Q791.16 234.105 835.0 418.21Q885.7 619.105 835.0 820.0"/>
    <path d="M840.0 50.0Q790.11 234.005 840.0 418.01Q892.96 619.005 840.0 820.0"/>
    <path d="M845.0 50.0Q788.93 233.9 845.0 417.8Q900.27 618.9 845.0 820.0"/>
    <path d="M850.0 50.0Q787.76 233.795 850.0 417.59Q907.58 618.795 850.0 820.0"/>
    <path d="M855.0 50.0Q786.71 233.695 855.0 417.39Q914.85 618.6949999999999 855.0 820.0"/>
    <path d="M860.0 50.0Q785.91 233.595 860.0 417.19Q922.02 618.595 860.0 820.0"/>
    <path d="M865.0 50.0Q785.47 233.505 865.0 417.01Q929.05 618.505 865.0 820.0"/>
    <path d="M870.0 50.0Q785.52 233.42 870.0 416.84Q935.91 618.42 870.0 820.0"/>
    <path d="M875.0 50.0Q786.14 233.345 875.0 416.69Q942.54 618.345 875.0 820.0"/>
    <path d="M880.0 50.0Q787.43 233.285 880.0 416.57Q948.93 618.285 880.0 820.0"/>
    <path d="M885.0 50.0Q789.46 233.235 885.0 416.47Q955.04 618.235 885.0 820.0"/>
    <path d="M890.0 50.0Q792.3 233.2 890.0 416.4Q960.85 618.2 890.0 820.0"/>
    <path d="M895.0 50.0Q795.98 233.175 895.0 416.35Q966.34 618.175 895.0 820.0"/>
    <path d="M900.0 50.0Q800.54 233.17 900.0 416.34Q971.51 618.17 900.0 820.0"/>
    <path d="M905.0 50.0Q805.54 233.17 905.0 416.34Q976.51 618.17 905.0 820.0"/>
    <path d="M910.0 50.0Q811.11 233.19 910.0 416.38Q981.09 618.19 910.0 820.0"/>
    <path d="M915.0 50.0Q817.79 233.255 915.0 416.51Q984.83 618.255 915.0 820.0"/>
    <path d="M920.0 50.0Q825.56 233.36 920.0 416.72Q987.76 618.36 920.0 820.0"/>
    <path d="M925.0 50.0Q834.36 233.5 925.0 417.0Q989.92 618.5 925.0 820.0"/>
    <path d="M930.0 50.0Q844.1 233.68 930.0 417.36Q991.36 618.6800000000001 930.0 820.0"/>
    <path d="M935.0 50.0Q854.7 233.895 935.0 417.79Q992.17 618.895 935.0 820.0"/>
    <path d="M940.0 50.0Q866.04 234.135 940.0 418.27Q992.43 619.135 940.0 820.0"/>
    <path d="M945.0 50.0Q877.99 234.4 945.0 418.8Q992.23 619.4 945.0 820.0"/>
    <path d="M950.0 50.0Q890.41 234.68 950.0 419.36Q991.68 619.6800000000001 950.0 820.0"/>
    <path d="M955.0 50.0Q903.15 234.97 955.0 419.94Q990.89 619.97 955.0 820.0"/>
    <path d="M960.0 50.0Q916.05 235.27 960.0 420.54Q989.97 620.27 960.0 820.0"/>
    <path d="M965.0 50.0Q928.95 235.57 965.0 421.14Q989.06 620.5699999999999 965.0 820.0"/>
    <path d="M970.0 50.0Q941.69 235.865 970.0 421.73Q988.27 620.865 970.0 820.0"/>
    <path d="M975.0 50.0Q954.11 236.145 975.0 422.29Q987.72 621.145 975.0 820.0"/>
    <path d="M980.0 50.0Q966.06 236.41 980.0 422.82Q987.52 621.41 980.0 820.0"/>
    <path d="M985.0 50.0Q977.4 236.65 985.0 423.3Q987.78 621.65 985.0 820.0"/>
    <path d="M990.0 50.0Q988.0 236.86 990.0 423.72Q988.58 621.86 990.0 820.0"/>
    <path d="M995.0 50.0Q997.75 237.04 995.0 424.08Q990.03 622.04 995.0 820.0"/>
    <path d="M1000.0 50.0Q1006.54 237.185 1000.0 424.37Q992.19 622.185 1000.0 820.0"/>
    <path d="M1005.0 50.0Q1014.31 237.29 1005.0 424.58Q995.12 622.29 1005.0 820.0"/>
    <path d="M1010.0 50.0Q1020.99 237.355 1010.0 424.71Q998.86 622.355 1010.0 820.0"/>
    <path d="M1015.0 50.0Q1026.56 237.375 1015.0 424.75Q1003.44 622.375 1015.0 820.0"/>
  </g>
</svg>
