<svg version="1.1" width="1150" height="870" xmlns="http://www.w3.org/2000/svg">
  <!-- Seed: 2468646262627312560 -->
  <!-- Size: SvgSize.Size9x12 -->
  <!-- Params:
    draw: True
    pad_x: 50
    pad_y: 0
    row_range: [RangeInt] min: 3 max: 10
    col_range: [RangeInt] min: 5 max: 10
    wave_range: 100
    wave_y_range: 30
    step_size: 5
  -->
  <g stroke="black" fill="none">
    <path d="M100.0 820.0Q184.0 781.0 100.0 741.0Q16.0 703.0 100.0 665.0Q184.0 612.0 100.0 558.0Q16.0 528.0 100.0 497.0Q184.0 459.0 100.0 421.0Q16.0 373.0 100.0 325.0Q184.0 262.0 100.0 199.0Q16.0 157.0 100.0 114.0Q184.0 82.0 100.0 50.0"/>
    <path d="M105.0 50.0Q189.0 82.0 105.0 114.0Q21.0 157.0 105.0 199.0Q189.0 262.0 105.0 325.0Q21.0 373.0 105.0 421.0Q189.0 459.0 105.0 497.0Q21.0 528.0 105.0 558.0Q188.0 612.0 105.0 665.0Q22.0 703.0 105.0 741.0Q189.0 781.0 105.0 820.0"/>
    <path d="M110.0 820.0Q194.0 780.0 110.0 741.0Q30.0 702.0 110.0 664.0Q190.0 612.0 110.0 559.0Q27.0 527.0 110.0 496.0Q194.0 458.0 110.0 420.0Q26.0 372.0 110.0 324.0Q194.0 262.0 110.0 200.0Q27.0 157.0 110.0 115.0Q192.0 82.0 110.0 50.0"/>
    <path d="M115.0 50.0Q195.0 83.0 115.0 116.0Q34.0 158.0 115.0 200.0Q200.0 262.0 115.0 323.0Q31.0 371.0 115.0 419.0Q199.0 457.0 115.0 495.0Q33.0 527.0 115.0 559.0Q191.0 611.0 115.0 663.0Q39.0 701.0 115.0 740.0Q199.0 780.0 115.0 820.0"/>
    <path d="M120.0 820.0Q205.0 779.0 120.0 739.0Q50.0 700.0 120.0 662.0Q190.0 611.0 120.0 560.0Q40.0 527.0 120.0 494.0Q205.0 455.0 120.0 417.0Q36.0 369.0 120.0 321.0Q205.0 261.0 120.0 201.0Q41.0 159.0 120.0 117.0Q197.0 83.0 120.0 50.0"/>
    <path d="M125.0 50.0Q199.0 84.0 125.0 118.0Q49.0 160.0 125.0 201.0Q210.0 260.0 125.0 319.0Q40.0 367.0 125.0 415.0Q210.0 454.0 125.0 492.0Q46.0 526.0 125.0 561.0Q187.0 610.0 125.0 660.0Q62.0 698.0 125.0 737.0Q210.0 779.0 125.0 820.0"/>
    <path d="M130.0 820.0Q216.0 778.0 130.0 735.0Q76.0 697.0 130.0 658.0Q183.0 610.0 130.0 562.0Q54.0 526.0 130.0 490.0Q215.0 451.0 130.0 413.0Q45.0 365.0 130.0 317.0Q216.0 260.0 130.0 202.0Q58.0 161.0 130.0 120.0Q199.0 85.0 130.0 50.0"/>
    <path d="M135.0 50.0Q200.0 86.0 135.0 122.0Q67.0 163.0 135.0 203.0Q222.0 259.0 135.0 315.0Q50.0 363.0 135.0 411.0Q221.0 449.0 135.0 487.0Q61.0 525.0 135.0 563.0Q178.0 609.0 135.0 655.0Q91.0 694.0 135.0 733.0Q221.0 777.0 135.0 820.0"/>
    <path d="M140.0 820.0Q227.0 776.0 140.0 731.0Q106.0 692.0 140.0 653.0Q172.0 609.0 140.0 564.0Q69.0 525.0 140.0 485.0Q226.0 446.0 140.0 408.0Q54.0 360.0 140.0 312.0Q227.0 258.0 140.0 204.0Q76.0 164.0 140.0 124.0Q200.0 87.0 140.0 50.0"/>
    <path d="M145.0 50.0Q199.0 88.0 145.0 127.0Q85.0 166.0 145.0 205.0Q233.0 257.0 145.0 309.0Q59.0 357.0 145.0 405.0Q232.0 444.0 145.0 482.0Q77.0 524.0 145.0 566.0Q166.0 608.0 145.0 650.0Q123.0 690.0 145.0 729.0Q232.0 775.0 145.0 820.0"/>
    <path d="M150.0 820.0Q238.0 773.0 150.0 727.0Q139.0 687.0 150.0 647.0Q159.0 607.0 150.0 567.0Q85.0 523.0 150.0 479.0Q237.0 441.0 150.0 402.0Q64.0 354.0 150.0 306.0Q239.0 256.0 150.0 206.0Q95.0 168.0 150.0 129.0Q199.0 90.0 150.0 50.0"/>
    <path d="M155.0 50.0Q198.0 91.0 155.0 131.0Q104.0 169.0 155.0 207.0Q245.0 255.0 155.0 303.0Q68.0 351.0 155.0 399.0Q243.0 438.0 155.0 477.0Q93.0 523.0 155.0 568.0Q152.0 606.0 155.0 644.0Q155.0 685.0 155.0 725.0Q244.0 772.0 155.0 820.0"/>
    <path d="M160.0 820.0Q249.0 771.0 160.0 722.0Q172.0 682.0 160.0 642.0Q146.0 606.0 160.0 570.0Q101.0 522.0 160.0 474.0Q248.0 435.0 160.0 396.0Q73.0 348.0 160.0 300.0Q250.0 254.0 160.0 208.0Q113.0 171.0 160.0 134.0Q198.0 92.0 160.0 50.0"/>
    <path d="M165.0 50.0Q198.0 93.0 165.0 136.0Q122.0 173.0 165.0 209.0Q256.0 253.0 165.0 297.0Q77.0 345.0 165.0 393.0Q254.0 432.0 165.0 471.0Q108.0 521.0 165.0 571.0Q140.0 605.0 165.0 639.0Q187.0 680.0 165.0 720.0Q255.0 770.0 165.0 820.0"/>
    <path d="M170.0 820.0Q260.0 769.0 170.0 718.0Q202.0 678.0 170.0 637.0Q135.0 604.0 170.0 572.0Q116.0 521.0 170.0 469.0Q259.0 430.0 170.0 391.0Q82.0 343.0 170.0 294.0Q262.0 252.0 170.0 210.0Q131.0 174.0 170.0 138.0Q198.0 94.0 170.0 50.0"/>
    <path d="M175.0 50.0Q199.0 95.0 175.0 140.0Q140.0 175.0 175.0 211.0Q267.0 252.0 175.0 292.0Q87.0 340.0 175.0 389.0Q265.0 428.0 175.0 467.0Q123.0 520.0 175.0 573.0Q131.0 604.0 175.0 635.0Q216.0 676.0 175.0 717.0Q266.0 768.0 175.0 820.0"/>
    <path d="M180.0 820.0Q271.0 768.0 180.0 715.0Q228.0 674.0 180.0 633.0Q128.0 603.0 180.0 574.0Q130.0 520.0 180.0 465.0Q270.0 426.0 180.0 387.0Q92.0 338.0 180.0 290.0Q273.0 251.0 180.0 212.0Q148.0 177.0 180.0 141.0Q200.0 96.0 180.0 50.0"/>
    <path d="M185.0 50.0Q202.0 96.0 185.0 142.0Q155.0 177.0 185.0 212.0Q278.0 250.0 185.0 288.0Q96.0 337.0 185.0 385.0Q275.0 425.0 185.0 464.0Q136.0 519.0 185.0 575.0Q127.0 603.0 185.0 631.0Q239.0 673.0 185.0 714.0Q277.0 767.0 185.0 820.0"/>
    <path d="M190.0 820.0Q282.0 767.0 190.0 713.0Q248.0 672.0 190.0 630.0Q127.0 603.0 190.0 575.0Q143.0 519.0 190.0 463.0Q280.0 423.0 190.0 384.0Q101.0 336.0 190.0 287.0Q283.0 250.0 190.0 213.0Q162.0 178.0 190.0 143.0Q205.0 97.0 190.0 50.0"/>
    <path d="M195.0 50.0Q209.0 97.0 195.0 144.0Q168.0 178.0 195.0 213.0Q288.0 250.0 195.0 287.0Q106.0 335.0 195.0 383.0Q286.0 423.0 195.0 462.0Q148.0 519.0 195.0 576.0Q129.0 603.0 195.0 630.0Q256.0 671.0 195.0 713.0Q287.0 766.0 195.0 820.0"/>
    <path d="M200.0 820.0Q292.0 766.0 200.0 712.0Q262.0 671.0 200.0 629.0Q134.0 603.0 200.0 576.0Q153.0 519.0 200.0 462.0Q291.0 423.0 200.0 383.0Q111.0 335.0 200.0 286.0Q294.0 250.0 200.0 213.0Q173.0 179.0 200.0 144.0Q213.0 97.0 200.0 50.0"/>
    <path d="M205.0 50.0Q218.0 97.0 205.0 144.0Q178.0 179.0 205.0 213.0Q299.0 250.0 205.0 286.0Q116.0 335.0 205.0 383.0Q296.0 423.0 205.0 462.0Q158.0 519.0 205.0 576.0Q139.0 603.0 205.0 629.0Q267.0 671.0 205.0 712.0Q297.0 766.0 205.0 820.0"/>
    <path d="M210.0 820.0Q301.0 766.0 210.0 713.0Q272.0 671.0 210.0 630.0Q143.0 603.0 210.0 576.0Q163.0 519.0 210.0 462.0Q299.0 423.0 210.0 383.0Q121.0 335.0 210.0 287.0Q303.0 250.0 210.0 213.0Q183.0 179.0 210.0 144.0Q223.0 97.0 210.0 50.0"/>
    <path d="M215.0 50.0Q229.0 97.0 215.0 144.0Q187.0 179.0 215.0 214.0Q307.0 251.0 215.0 287.0Q127.0 336.0 215.0 384.0Q301.0 423.0 215.0 462.0Q168.0 518.0 215.0 575.0Q148.0 603.0 215.0 630.0Q277.0 672.0 215.0 714.0Q303.0 767.0 215.0 820.0"/>
    <path d="M220.0 820.0Q304.0 767.0 220.0 715.0Q281.0 673.0 220.0 631.0Q152.0 602.0 220.0 574.0Q173.0 518.0 220.0 462.0Q300.0 423.0 220.0 384.0Q132.0 336.0 220.0 288.0Q311.0 252.0 220.0 215.0Q191.0 179.0 220.0 144.0Q234.0 97.0 220.0 50.0"/>
    <path d="M225.0 50.0Q240.0 97.0 225.0 144.0Q195.0 180.0 225.0 216.0Q314.0 253.0 225.0 290.0Q138.0 338.0 225.0 385.0Q298.0 424.0 225.0 462.0Q177.0 517.0 225.0 573.0Q156.0 602.0 225.0 632.0Q286.0 674.0 225.0 717.0Q303.0 768.0 225.0 820.0"/>
    <path d="M230.0 820.0Q300.0 769.0 230.0 719.0Q291.0 676.0 230.0 633.0Q160.0 602.0 230.0 571.0Q182.0 517.0 230.0 462.0Q293.0 424.0 230.0 386.0Q145.0 339.0 230.0 292.0Q316.0 255.0 230.0 217.0Q198.0 180.0 230.0 144.0Q246.0 97.0 230.0 50.0"/>
    <path d="M235.0 50.0Q252.0 97.0 235.0 143.0Q201.0 181.0 235.0 219.0Q318.0 257.0 235.0 294.0Q151.0 341.0 235.0 388.0Q287.0 425.0 235.0 462.0Q186.0 516.0 235.0 570.0Q164.0 602.0 235.0 634.0Q295.0 678.0 235.0 721.0Q296.0 771.0 235.0 820.0"/>
    <path d="M240.0 820.0Q291.0 772.0 240.0 724.0Q300.0 680.0 240.0 636.0Q168.0 602.0 240.0 568.0Q191.0 515.0 240.0 462.0Q279.0 425.0 240.0 389.0Q158.0 343.0 240.0 297.0Q320.0 259.0 240.0 221.0Q204.0 182.0 240.0 143.0Q258.0 97.0 240.0 50.0"/>
    <path d="M245.0 50.0Q264.0 97.0 245.0 143.0Q207.0 183.0 245.0 223.0Q321.0 261.0 245.0 299.0Q165.0 345.0 245.0 391.0Q270.0 426.0 245.0 462.0Q195.0 514.0 245.0 565.0Q171.0 601.0 245.0 637.0Q304.0 682.0 245.0 728.0Q285.0 774.0 245.0 820.0"/>
    <path d="M250.0 820.0Q279.0 775.0 250.0 731.0Q308.0 685.0 250.0 639.0Q174.0 601.0 250.0 563.0Q199.0 512.0 250.0 462.0Q261.0 427.0 250.0 392.0Q172.0 347.0 250.0 302.0Q322.0 264.0 250.0 225.0Q209.0 184.0 250.0 143.0Q270.0 96.0 250.0 50.0"/>
    <path d="M255.0 50.0Q276.0 96.0 255.0 143.0Q212.0 185.0 255.0 227.0Q323.0 266.0 255.0 305.0Q179.0 349.0 255.0 394.0Q251.0 428.0 255.0 462.0Q203.0 511.0 255.0 561.0Q178.0 601.0 255.0 641.0Q313.0 688.0 255.0 734.0Q272.0 777.0 255.0 820.0"/>
    <path d="M260.0 820.0Q265.0 779.0 260.0 738.0Q317.0 690.0 260.0 643.0Q181.0 601.0 260.0 558.0Q207.0 510.0 260.0 462.0Q241.0 429.0 260.0 395.0Q186.0 352.0 260.0 308.0Q325.0 269.0 260.0 229.0Q214.0 186.0 260.0 142.0Q283.0 96.0 260.0 50.0"/>
    <path d="M265.0 50.0Q289.0 96.0 265.0 142.0Q216.0 187.0 265.0 231.0Q326.0 271.0 265.0 311.0Q192.0 354.0 265.0 397.0Q232.0 429.0 265.0 462.0Q211.0 509.0 265.0 556.0Q184.0 600.0 265.0 645.0Q321.0 693.0 265.0 741.0Q259.0 781.0 265.0 820.0"/>
    <path d="M270.0 820.0Q253.0 782.0 270.0 744.0Q326.0 695.0 270.0 646.0Q188.0 600.0 270.0 554.0Q216.0 508.0 270.0 462.0Q223.0 430.0 270.0 399.0Q199.0 356.0 270.0 314.0Q327.0 273.0 270.0 233.0Q219.0 188.0 270.0 142.0Q295.0 96.0 270.0 50.0"/>
    <path d="M275.0 50.0Q301.0 96.0 275.0 142.0Q222.0 188.0 275.0 235.0Q329.0 276.0 275.0 316.0Q206.0 358.0 275.0 400.0Q216.0 431.0 275.0 462.0Q220.0 507.0 275.0 552.0Q191.0 600.0 275.0 648.0Q330.0 698.0 275.0 747.0Q248.0 784.0 275.0 820.0"/>
    <path d="M280.0 820.0Q244.0 785.0 280.0 750.0Q334.0 699.0 280.0 649.0Q195.0 600.0 280.0 550.0Q224.0 506.0 280.0 462.0Q209.0 431.0 280.0 401.0Q212.0 360.0 280.0 318.0Q331.0 278.0 280.0 237.0Q225.0 189.0 280.0 142.0Q307.0 96.0 280.0 50.0"/>
    <path d="M285.0 50.0Q313.0 96.0 285.0 141.0Q228.0 190.0 285.0 238.0Q333.0 279.0 285.0 320.0Q219.0 361.0 285.0 402.0Q205.0 432.0 285.0 462.0Q229.0 505.0 285.0 549.0Q199.0 600.0 285.0 650.0Q339.0 701.0 285.0 752.0Q242.0 786.0 285.0 820.0"/>
    <path d="M290.0 820.0Q240.0 787.0 290.0 754.0Q344.0 703.0 290.0 651.0Q203.0 599.0 290.0 547.0Q233.0 504.0 290.0 462.0Q202.0 432.0 290.0 403.0Q225.0 363.0 290.0 322.0Q336.0 281.0 290.0 239.0Q232.0 190.0 290.0 141.0Q318.0 96.0 290.0 50.0"/>
    <path d="M295.0 50.0Q324.0 96.0 295.0 141.0Q236.0 191.0 295.0 240.0Q340.0 282.0 295.0 323.0Q230.0 363.0 295.0 404.0Q201.0 433.0 295.0 462.0Q238.0 504.0 295.0 547.0Q207.0 599.0 295.0 652.0Q348.0 704.0 295.0 755.0Q241.0 788.0 295.0 820.0"/>
    <path d="M300.0 820.0Q243.0 788.0 300.0 756.0Q353.0 704.0 300.0 652.0Q212.0 599.0 300.0 546.0Q243.0 504.0 300.0 462.0Q203.0 433.0 300.0 404.0Q236.0 364.0 300.0 324.0Q344.0 282.0 300.0 241.0Q240.0 191.0 300.0 141.0Q329.0 96.0 300.0 50.0"/>
    <path d="M305.0 50.0Q334.0 96.0 305.0 141.0Q245.0 191.0 305.0 241.0Q348.0 282.0 305.0 324.0Q241.0 364.0 305.0 404.0Q207.0 433.0 305.0 462.0Q248.0 504.0 305.0 546.0Q217.0 599.0 305.0 653.0Q358.0 704.0 305.0 756.0Q247.0 788.0 305.0 820.0"/>
    <path d="M310.0 820.0Q252.0 788.0 310.0 756.0Q363.0 704.0 310.0 653.0Q222.0 599.0 310.0 546.0Q253.0 504.0 310.0 462.0Q212.0 433.0 310.0 404.0Q246.0 364.0 310.0 324.0Q353.0 282.0 310.0 241.0Q250.0 191.0 310.0 141.0Q339.0 96.0 310.0 50.0"/>
    <path d="M315.0 50.0Q344.0 96.0 315.0 141.0Q255.0 191.0 315.0 241.0Q358.0 282.0 315.0 324.0Q252.0 364.0 315.0 405.0Q217.0 433.0 315.0 462.0Q258.0 504.0 315.0 546.0Q227.0 599.0 315.0 653.0Q368.0 704.0 315.0 756.0Q257.0 788.0 315.0 820.0"/>
    <path d="M320.0 820.0Q262.0 788.0 320.0 756.0Q372.0 705.0 320.0 653.0Q232.0 600.0 320.0 547.0Q263.0 504.0 320.0 462.0Q223.0 433.0 320.0 405.0Q259.0 364.0 320.0 323.0Q361.0 281.0 320.0 240.0Q259.0 191.0 320.0 141.0Q348.0 96.0 320.0 50.0"/>
    <path d="M325.0 50.0Q351.0 96.0 325.0 141.0Q263.0 190.0 325.0 239.0Q364.0 280.0 325.0 321.0Q268.0 363.0 325.0 405.0Q230.0 434.0 325.0 462.0Q269.0 505.0 325.0 548.0Q237.0 601.0 325.0 654.0Q375.0 705.0 325.0 757.0Q267.0 788.0 325.0 820.0"/>
    <path d="M330.0 820.0Q272.0 788.0 330.0 757.0Q377.0 706.0 330.0 654.0Q242.0 602.0 330.0 549.0Q275.0 505.0 330.0 462.0Q237.0 434.0 330.0 406.0Q278.0 363.0 330.0 319.0Q366.0 279.0 330.0 238.0Q267.0 190.0 330.0 142.0Q353.0 96.0 330.0 50.0"/>
    <path d="M335.0 50.0Q355.0 96.0 335.0 142.0Q270.0 189.0 335.0 236.0Q367.0 277.0 335.0 317.0Q290.0 362.0 335.0 407.0Q245.0 434.0 335.0 462.0Q281.0 506.0 335.0 551.0Q246.0 603.0 335.0 655.0Q379.0 706.0 335.0 757.0Q277.0 789.0 335.0 820.0"/>
    <path d="M340.0 820.0Q281.0 789.0 340.0 758.0Q380.0 707.0 340.0 656.0Q251.0 604.0 340.0 553.0Q287.0 507.0 340.0 462.0Q253.0 435.0 340.0 408.0Q302.0 361.0 340.0 314.0Q367.0 274.0 340.0 235.0Q273.0 188.0 340.0 142.0Q356.0 96.0 340.0 50.0"/>
    <path d="M345.0 50.0Q356.0 96.0 345.0 143.0Q275.0 188.0 345.0 232.0Q367.0 272.0 345.0 311.0Q316.0 360.0 345.0 409.0Q262.0 436.0 345.0 462.0Q294.0 508.0 345.0 555.0Q256.0 606.0 345.0 657.0Q381.0 708.0 345.0 758.0Q286.0 789.0 345.0 820.0"/>
    <path d="M350.0 820.0Q291.0 789.0 350.0 759.0Q382.0 709.0 350.0 659.0Q261.0 608.0 350.0 557.0Q300.0 510.0 350.0 462.0Q271.0 436.0 350.0 410.0Q330.0 359.0 350.0 308.0Q367.0 269.0 350.0 230.0Q277.0 187.0 350.0 143.0Q357.0 96.0 350.0 50.0"/>
    <path d="M355.0 50.0Q357.0 97.0 355.0 143.0Q280.0 186.0 355.0 228.0Q366.0 266.0 355.0 304.0Q345.0 358.0 355.0 411.0Q280.0 437.0 355.0 463.0Q307.0 511.0 355.0 560.0Q266.0 610.0 355.0 660.0Q382.0 710.0 355.0 759.0Q295.0 790.0 355.0 820.0"/>
    <path d="M360.0 820.0Q300.0 790.0 360.0 760.0Q382.0 711.0 360.0 661.0Q271.0 612.0 360.0 562.0Q314.0 512.0 360.0 463.0Q289.0 438.0 360.0 413.0Q360.0 357.0 360.0 300.0Q365.0 263.0 360.0 226.0Q282.0 185.0 360.0 144.0Q357.0 97.0 360.0 50.0"/>
    <path d="M365.0 50.0Q357.0 97.0 365.0 144.0Q284.0 184.0 365.0 223.0Q364.0 260.0 365.0 297.0Q375.0 355.0 365.0 414.0Q299.0 438.0 365.0 463.0Q320.0 514.0 365.0 565.0Q275.0 614.0 365.0 663.0Q382.0 712.0 365.0 761.0Q304.0 790.0 365.0 820.0"/>
    <path d="M370.0 820.0Q309.0 791.0 370.0 761.0Q383.0 713.0 370.0 664.0Q280.0 616.0 370.0 567.0Q327.0 515.0 370.0 463.0Q308.0 439.0 370.0 415.0Q390.0 354.0 370.0 293.0Q363.0 257.0 370.0 221.0Q286.0 183.0 370.0 145.0Q357.0 97.0 370.0 50.0"/>
    <path d="M375.0 50.0Q357.0 97.0 375.0 145.0Q289.0 182.0 375.0 219.0Q362.0 254.0 375.0 290.0Q404.0 353.0 375.0 416.0Q317.0 440.0 375.0 463.0Q334.0 516.0 375.0 570.0Q285.0 617.0 375.0 665.0Q383.0 714.0 375.0 762.0Q314.0 791.0 375.0 820.0"/>
    <path d="M380.0 820.0Q318.0 791.0 380.0 762.0Q384.0 714.0 380.0 666.0Q290.0 619.0 380.0 572.0Q340.0 518.0 380.0 463.0Q325.0 441.0 380.0 418.0Q418.0 352.0 380.0 287.0Q362.0 252.0 380.0 216.0Q291.0 181.0 380.0 145.0Q357.0 98.0 380.0 50.0"/>
    <path d="M385.0 50.0Q359.0 98.0 385.0 146.0Q294.0 180.0 385.0 215.0Q362.0 249.0 385.0 284.0Q430.0 351.0 385.0 419.0Q334.0 441.0 385.0 464.0Q346.0 519.0 385.0 574.0Q295.0 621.0 385.0 668.0Q385.0 715.0 385.0 763.0Q323.0 791.0 385.0 820.0"/>
    <path d="M390.0 820.0Q328.0 792.0 390.0 763.0Q387.0 716.0 390.0 668.0Q300.0 622.0 390.0 575.0Q352.0 520.0 390.0 464.0Q341.0 442.0 390.0 419.0Q442.0 350.0 390.0 281.0Q363.0 247.0 390.0 213.0Q297.0 180.0 390.0 146.0Q360.0 98.0 390.0 50.0"/>
    <path d="M395.0 50.0Q363.0 98.0 395.0 146.0Q301.0 179.0 395.0 212.0Q365.0 246.0 395.0 280.0Q452.0 350.0 395.0 420.0Q349.0 442.0 395.0 464.0Q358.0 520.0 395.0 577.0Q304.0 623.0 395.0 669.0Q390.0 716.0 395.0 764.0Q332.0 792.0 395.0 820.0"/>
    <path d="M400.0 820.0Q337.0 792.0 400.0 764.0Q393.0 717.0 400.0 670.0Q309.0 624.0 400.0 578.0Q364.0 521.0 400.0 464.0Q355.0 442.0 400.0 421.0Q461.0 349.0 400.0 278.0Q368.0 245.0 400.0 211.0Q304.0 179.0 400.0 146.0Q366.0 98.0 400.0 50.0"/>
    <path d="M405.0 50.0Q369.0 98.0 405.0 146.0Q309.0 178.0 405.0 210.0Q371.0 244.0 405.0 277.0Q468.0 349.0 405.0 421.0Q361.0 442.0 405.0 464.0Q369.0 521.0 405.0 578.0Q314.0 624.0 405.0 670.0Q397.0 717.0 405.0 764.0Q342.0 792.0 405.0 820.0"/>
    <path d="M410.0 820.0Q347.0 792.0 410.0 764.0Q401.0 717.0 410.0 670.0Q319.0 624.0 410.0 578.0Q375.0 521.0 410.0 464.0Q367.0 442.0 410.0 421.0Q474.0 349.0 410.0 277.0Q376.0 244.0 410.0 210.0Q314.0 178.0 410.0 146.0Q374.0 98.0 410.0 50.0"/>
    <path d="M415.0 50.0Q379.0 98.0 415.0 146.0Q319.0 178.0 415.0 210.0Q381.0 244.0 415.0 277.0Q479.0 349.0 415.0 421.0Q372.0 442.0 415.0 464.0Q380.0 521.0 415.0 578.0Q324.0 624.0 415.0 670.0Q406.0 717.0 415.0 764.0Q352.0 792.0 415.0 820.0"/>
    <path d="M420.0 820.0Q358.0 792.0 420.0 764.0Q412.0 717.0 420.0 670.0Q330.0 624.0 420.0 578.0Q385.0 521.0 420.0 464.0Q378.0 442.0 420.0 421.0Q484.0 349.0 420.0 277.0Q386.0 244.0 420.0 210.0Q324.0 178.0 420.0 146.0Q384.0 98.0 420.0 50.0"/>
    <path d="M425.0 50.0Q389.0 98.0 425.0 146.0Q330.0 178.0 425.0 210.0Q392.0 244.0 425.0 277.0Q487.0 349.0 425.0 420.0Q385.0 442.0 425.0 464.0Q390.0 521.0 425.0 578.0Q338.0 624.0 425.0 669.0Q418.0 716.0 425.0 763.0Q365.0 791.0 425.0 820.0"/>
    <path d="M430.0 820.0Q372.0 791.0 430.0 761.0Q424.0 715.0 430.0 668.0Q347.0 623.0 430.0 577.0Q396.0 521.0 430.0 464.0Q394.0 441.0 430.0 419.0Q490.0 348.0 430.0 277.0Q397.0 244.0 430.0 211.0Q336.0 178.0 430.0 146.0Q394.0 98.0 430.0 50.0"/>
    <path d="M435.0 50.0Q399.0 98.0 435.0 146.0Q343.0 178.0 435.0 211.0Q404.0 244.0 435.0 278.0Q491.0 348.0 435.0 418.0Q404.0 441.0 435.0 464.0Q401.0 520.0 435.0 577.0Q358.0 621.0 435.0 666.0Q432.0 713.0 435.0 760.0Q381.0 790.0 435.0 820.0"/>
    <path d="M440.0 820.0Q391.0 789.0 440.0 757.0Q439.0 711.0 440.0 664.0Q370.0 620.0 440.0 576.0Q407.0 519.0 440.0 463.0Q416.0 440.0 440.0 416.0Q492.0 347.0 440.0 278.0Q410.0 245.0 440.0 211.0Q351.0 178.0 440.0 145.0Q404.0 98.0 440.0 50.0"/>
    <path d="M445.0 50.0Q410.0 98.0 445.0 145.0Q359.0 179.0 445.0 212.0Q417.0 245.0 445.0 278.0Q492.0 346.0 445.0 414.0Q429.0 438.0 445.0 463.0Q413.0 519.0 445.0 574.0Q383.0 618.0 445.0 662.0Q448.0 708.0 445.0 754.0Q402.0 787.0 445.0 820.0"/>
    <path d="M450.0 820.0Q414.0 786.0 450.0 751.0Q456.0 705.0 450.0 659.0Q397.0 616.0 450.0 573.0Q419.0 518.0 450.0 463.0Q443.0 437.0 450.0 411.0Q492.0 345.0 450.0 279.0Q423.0 246.0 450.0 213.0Q367.0 179.0 450.0 145.0Q415.0 97.0 450.0 50.0"/>
    <path d="M455.0 50.0Q420.0 97.0 455.0 144.0Q376.0 179.0 455.0 213.0Q430.0 246.0 455.0 280.0Q491.0 344.0 455.0 409.0Q457.0 436.0 455.0 463.0Q426.0 517.0 455.0 572.0Q413.0 614.0 455.0 656.0Q466.0 702.0 455.0 748.0Q426.0 784.0 455.0 820.0"/>
    <path d="M460.0 820.0Q438.0 782.0 460.0 744.0Q475.0 699.0 460.0 653.0Q428.0 611.0 460.0 570.0Q432.0 516.0 460.0 462.0Q472.0 434.0 460.0 406.0Q489.0 343.0 460.0 280.0Q437.0 247.0 460.0 214.0Q385.0 179.0 460.0 144.0Q425.0 97.0 460.0 50.0"/>
    <path d="M465.0 50.0Q431.0 97.0 465.0 143.0Q394.0 179.0 465.0 215.0Q445.0 248.0 465.0 281.0Q488.0 342.0 465.0 403.0Q488.0 433.0 465.0 462.0Q438.0 515.0 465.0 568.0Q444.0 609.0 465.0 650.0Q484.0 695.0 465.0 741.0Q451.0 780.0 465.0 820.0"/>
    <path d="M470.0 820.0Q463.0 779.0 470.0 737.0Q494.0 692.0 470.0 647.0Q460.0 607.0 470.0 567.0Q445.0 514.0 470.0 462.0Q503.0 431.0 470.0 401.0Q487.0 341.0 470.0 281.0Q452.0 248.0 470.0 215.0Q403.0 179.0 470.0 143.0Q436.0 96.0 470.0 50.0"/>
    <path d="M475.0 50.0Q441.0 96.0 475.0 142.0Q412.0 179.0 475.0 216.0Q459.0 249.0 475.0 282.0Q485.0 340.0 475.0 398.0Q518.0 430.0 475.0 461.0Q451.0 513.0 475.0 565.0Q476.0 604.0 475.0 643.0Q503.0 688.0 475.0 733.0Q476.0 777.0 475.0 820.0"/>
    <path d="M480.0 820.0Q488.0 775.0 480.0 730.0Q512.0 685.0 480.0 640.0Q491.0 602.0 480.0 564.0Q457.0 513.0 480.0 461.0Q532.0 428.0 480.0 395.0Q484.0 339.0 480.0 282.0Q466.0 250.0 480.0 217.0Q421.0 179.0 480.0 142.0Q446.0 96.0 480.0 50.0"/>
    <path d="M485.0 50.0Q451.0 96.0 485.0 141.0Q429.0 179.0 485.0 217.0Q473.0 250.0 485.0 283.0Q484.0 338.0 485.0 393.0Q546.0 427.0 485.0 461.0Q463.0 512.0 485.0 563.0Q505.0 600.0 485.0 638.0Q521.0 682.0 485.0 727.0Q499.0 773.0 485.0 820.0"/>
    <path d="M490.0 820.0Q510.0 772.0 490.0 724.0Q529.0 680.0 490.0 635.0Q519.0 598.0 490.0 561.0Q469.0 511.0 490.0 461.0Q559.0 426.0 490.0 391.0Q484.0 337.0 490.0 283.0Q479.0 251.0 490.0 218.0Q437.0 179.0 490.0 141.0Q457.0 96.0 490.0 50.0"/>
    <path d="M495.0 50.0Q462.0 95.0 495.0 141.0Q445.0 180.0 495.0 218.0Q486.0 251.0 495.0 284.0Q485.0 336.0 495.0 389.0Q571.0 425.0 495.0 460.0Q475.0 510.0 495.0 560.0Q531.0 597.0 495.0 633.0Q537.0 678.0 495.0 722.0Q520.0 771.0 495.0 820.0"/>
    <path d="M500.0 820.0Q529.0 770.0 500.0 720.0Q544.0 676.0 500.0 632.0Q541.0 596.0 500.0 559.0Q481.0 510.0 500.0 460.0Q581.0 424.0 500.0 388.0Q486.0 336.0 500.0 284.0Q492.0 251.0 500.0 219.0Q452.0 180.0 500.0 140.0Q467.0 95.0 500.0 50.0"/>
    <path d="M505.0 50.0Q472.0 95.0 505.0 140.0Q458.0 180.0 505.0 219.0Q497.0 252.0 505.0 284.0Q489.0 335.0 505.0 387.0Q590.0 423.0 505.0 460.0Q487.0 510.0 505.0 559.0Q551.0 595.0 505.0 630.0Q551.0 674.0 505.0 718.0Q537.0 769.0 505.0 820.0"/>
    <path d="M510.0 820.0Q544.0 769.0 510.0 718.0Q557.0 674.0 510.0 630.0Q558.0 594.0 510.0 559.0Q492.0 509.0 510.0 460.0Q598.0 423.0 510.0 386.0Q492.0 335.0 510.0 284.0Q503.0 252.0 510.0 219.0Q464.0 180.0 510.0 140.0Q477.0 95.0 510.0 50.0"/>
    <path d="M515.0 50.0Q482.0 95.0 515.0 140.0Q469.0 180.0 515.0 219.0Q508.0 252.0 515.0 284.0Q497.0 335.0 515.0 386.0Q603.0 423.0 515.0 460.0Q497.0 509.0 515.0 558.0Q564.0 594.0 515.0 629.0Q562.0 673.0 515.0 717.0Q549.0 769.0 515.0 820.0"/>
    <path d="M520.0 820.0Q554.0 769.0 520.0 717.0Q567.0 673.0 520.0 629.0Q569.0 594.0 520.0 558.0Q502.0 509.0 520.0 460.0Q608.0 423.0 520.0 386.0Q502.0 335.0 520.0 284.0Q513.0 252.0 520.0 219.0Q474.0 180.0 520.0 140.0Q487.0 95.0 520.0 50.0"/>
    <path d="M525.0 50.0Q492.0 95.0 525.0 140.0Q480.0 180.0 525.0 219.0Q519.0 252.0 525.0 285.0Q507.0 335.0 525.0 386.0Q612.0 423.0 525.0 460.0Q507.0 509.0 525.0 559.0Q573.0 594.0 525.0 629.0Q572.0 673.0 525.0 717.0Q559.0 769.0 525.0 820.0"/>
    <path d="M530.0 820.0Q562.0 769.0 530.0 718.0Q578.0 674.0 530.0 630.0Q575.0 594.0 530.0 559.0Q512.0 510.0 530.0 460.0Q614.0 423.0 530.0 386.0Q513.0 336.0 530.0 285.0Q525.0 252.0 530.0 219.0Q486.0 180.0 530.0 140.0Q497.0 95.0 530.0 50.0"/>
    <path d="M535.0 50.0Q503.0 95.0 535.0 140.0Q494.0 180.0 535.0 220.0Q533.0 253.0 535.0 286.0Q519.0 337.0 535.0 387.0Q614.0 423.0 535.0 460.0Q518.0 510.0 535.0 560.0Q576.0 595.0 535.0 630.0Q583.0 674.0 535.0 718.0Q565.0 769.0 535.0 820.0"/>
    <path d="M540.0 820.0Q566.0 769.0 540.0 718.0Q589.0 674.0 540.0 630.0Q575.0 596.0 540.0 561.0Q523.0 510.0 540.0 460.0Q613.0 424.0 540.0 388.0Q526.0 338.0 540.0 288.0Q542.0 254.0 540.0 221.0Q502.0 180.0 540.0 140.0Q508.0 95.0 540.0 50.0"/>
    <path d="M545.0 50.0Q514.0 95.0 545.0 139.0Q511.0 180.0 545.0 221.0Q551.0 256.0 545.0 290.0Q533.0 339.0 545.0 389.0Q609.0 424.0 545.0 460.0Q529.0 511.0 545.0 562.0Q573.0 597.0 545.0 631.0Q595.0 675.0 545.0 719.0Q567.0 769.0 545.0 820.0"/>
    <path d="M550.0 820.0Q567.0 770.0 550.0 720.0Q601.0 676.0 550.0 632.0Q569.0 598.0 550.0 564.0Q535.0 512.0 550.0 459.0Q604.0 425.0 550.0 390.0Q541.0 341.0 550.0 292.0Q562.0 257.0 550.0 222.0Q521.0 181.0 550.0 139.0Q520.0 94.0 550.0 50.0"/>
    <path d="M555.0 50.0Q526.0 94.0 555.0 139.0Q532.0 181.0 555.0 223.0Q573.0 259.0 555.0 294.0Q549.0 343.0 555.0 391.0Q598.0 425.0 555.0 459.0Q540.0 512.0 555.0 565.0Q565.0 599.0 555.0 633.0Q607.0 676.0 555.0 720.0Q567.0 770.0 555.0 820.0"/>
    <path d="M560.0 820.0Q566.0 771.0 560.0 721.0Q613.0 677.0 560.0 633.0Q559.0 600.0 560.0 567.0Q546.0 513.0 560.0 459.0Q591.0 426.0 560.0 393.0Q557.0 345.0 560.0 297.0Q584.0 261.0 560.0 224.0Q543.0 181.0 560.0 138.0Q532.0 94.0 560.0 50.0"/>
    <path d="M565.0 50.0Q538.0 94.0 565.0 138.0Q554.0 181.0 565.0 225.0Q596.0 263.0 565.0 300.0Q565.0 347.0 565.0 395.0Q584.0 427.0 565.0 459.0Q552.0 514.0 565.0 569.0Q553.0 602.0 565.0 634.0Q619.0 678.0 565.0 722.0Q564.0 771.0 565.0 820.0"/>
    <path d="M570.0 820.0Q563.0 771.0 570.0 723.0Q626.0 679.0 570.0 635.0Q547.0 603.0 570.0 571.0Q558.0 515.0 570.0 459.0Q576.0 427.0 570.0 396.0Q574.0 350.0 570.0 303.0Q608.0 265.0 570.0 226.0Q565.0 182.0 570.0 137.0Q544.0 94.0 570.0 50.0"/>
    <path d="M575.0 50.0Q550.0 93.0 575.0 137.0Q576.0 182.0 575.0 228.0Q620.0 267.0 575.0 306.0Q582.0 352.0 575.0 398.0Q568.0 428.0 575.0 458.0Q564.0 516.0 575.0 573.0Q540.0 605.0 575.0 636.0Q632.0 680.0 575.0 724.0Q561.0 772.0 575.0 820.0"/>
    <path d="M580.0 820.0Q560.0 772.0 580.0 725.0Q638.0 681.0 580.0 637.0Q534.0 606.0 580.0 575.0Q570.0 517.0 580.0 458.0Q561.0 429.0 580.0 400.0Q590.0 354.0 580.0 309.0Q632.0 269.0 580.0 229.0Q588.0 182.0 580.0 136.0Q557.0 93.0 580.0 50.0"/>
    <path d="M585.0 50.0Q563.0 93.0 585.0 136.0Q599.0 183.0 585.0 230.0Q644.0 271.0 585.0 311.0Q598.0 356.0 585.0 401.0Q554.0 429.0 585.0 458.0Q576.0 518.0 585.0 577.0Q529.0 608.0 585.0 638.0Q645.0 682.0 585.0 725.0Q559.0 773.0 585.0 820.0"/>
    <path d="M590.0 820.0Q558.0 773.0 590.0 726.0Q651.0 682.0 590.0 639.0Q524.0 609.0 590.0 579.0Q582.0 518.0 590.0 458.0Q548.0 430.0 590.0 403.0Q606.0 358.0 590.0 314.0Q655.0 272.0 590.0 231.0Q609.0 183.0 590.0 135.0Q569.0 93.0 590.0 50.0"/>
    <path d="M595.0 50.0Q574.0 93.0 595.0 135.0Q619.0 183.0 595.0 232.0Q665.0 274.0 595.0 316.0Q614.0 360.0 595.0 404.0Q543.0 431.0 595.0 457.0Q588.0 519.0 595.0 581.0Q521.0 610.0 595.0 639.0Q657.0 683.0 595.0 727.0Q558.0 773.0 595.0 820.0"/>
    <path d="M600.0 820.0Q559.0 774.0 600.0 727.0Q663.0 684.0 600.0 640.0Q518.0 611.0 600.0 582.0Q593.0 520.0 600.0 457.0Q539.0 431.0 600.0 405.0Q621.0 361.0 600.0 318.0Q675.0 275.0 600.0 232.0Q628.0 184.0 600.0 135.0Q580.0 92.0 600.0 50.0"/>
    <path d="M605.0 50.0Q586.0 92.0 605.0 135.0Q636.0 184.0 605.0 233.0Q683.0 276.0 605.0 319.0Q628.0 363.0 605.0 406.0Q538.0 431.0 605.0 457.0Q599.0 520.0 605.0 583.0Q517.0 612.0 605.0 640.0Q668.0 684.0 605.0 728.0Q560.0 774.0 605.0 820.0"/>
    <path d="M610.0 820.0Q563.0 774.0 610.0 728.0Q674.0 684.0 610.0 641.0Q518.0 612.0 610.0 584.0Q604.0 520.0 610.0 457.0Q538.0 432.0 610.0 406.0Q634.0 363.0 610.0 320.0Q691.0 277.0 610.0 233.0Q644.0 184.0 610.0 134.0Q591.0 92.0 610.0 50.0"/>
    <path d="M615.0 50.0Q596.0 92.0 615.0 134.0Q650.0 184.0 615.0 234.0Q698.0 277.0 615.0 321.0Q640.0 364.0 615.0 407.0Q540.0 432.0 615.0 457.0Q609.0 521.0 615.0 584.0Q520.0 613.0 615.0 641.0Q679.0 685.0 615.0 728.0Q566.0 774.0 615.0 820.0"/>
    <path d="M620.0 820.0Q571.0 774.0 620.0 728.0Q684.0 685.0 620.0 641.0Q525.0 613.0 620.0 584.0Q614.0 521.0 620.0 457.0Q544.0 432.0 620.0 407.0Q645.0 364.0 620.0 321.0Q703.0 278.0 620.0 234.0Q656.0 184.0 620.0 134.0Q602.0 92.0 620.0 50.0"/>
    <path d="M625.0 50.0Q607.0 92.0 625.0 134.0Q661.0 184.0 625.0 234.0Q708.0 278.0 625.0 321.0Q650.0 364.0 625.0 407.0Q549.0 432.0 625.0 457.0Q619.0 521.0 625.0 584.0Q530.0 613.0 625.0 641.0Q689.0 685.0 625.0 728.0Q576.0 774.0 625.0 820.0"/>
    <path d="M630.0 820.0Q581.0 774.0 630.0 728.0Q694.0 685.0 630.0 641.0Q535.0 613.0 630.0 584.0Q624.0 521.0 630.0 457.0Q554.0 432.0 630.0 407.0Q656.0 364.0 630.0 321.0Q713.0 277.0 630.0 234.0Q665.0 184.0 630.0 134.0Q612.0 92.0 630.0 50.0"/>
    <path d="M635.0 50.0Q619.0 92.0 635.0 134.0Q669.0 184.0 635.0 233.0Q716.0 277.0 635.0 322.0Q662.0 364.0 635.0 407.0Q562.0 432.0 635.0 457.0Q629.0 520.0 635.0 584.0Q543.0 613.0 635.0 642.0Q697.0 685.0 635.0 729.0Q585.0 774.0 635.0 820.0"/>
    <path d="M640.0 820.0Q590.0 775.0 640.0 730.0Q700.0 686.0 640.0 643.0Q551.0 613.0 640.0 583.0Q634.0 520.0 640.0 457.0Q571.0 432.0 640.0 406.0Q669.0 364.0 640.0 322.0Q719.0 277.0 640.0 232.0Q671.0 183.0 640.0 134.0Q628.0 92.0 640.0 50.0"/>
    <path d="M645.0 50.0Q638.0 92.0 645.0 135.0Q673.0 183.0 645.0 231.0Q720.0 276.0 645.0 322.0Q676.0 364.0 645.0 406.0Q582.0 431.0 645.0 457.0Q639.0 520.0 645.0 583.0Q561.0 613.0 645.0 644.0Q701.0 687.0 645.0 731.0Q594.0 775.0 645.0 820.0"/>
    <path d="M650.0 820.0Q597.0 776.0 650.0 732.0Q702.0 689.0 650.0 646.0Q573.0 614.0 650.0 582.0Q644.0 519.0 650.0 456.0Q594.0 431.0 650.0 406.0Q684.0 364.0 650.0 322.0Q721.0 276.0 650.0 229.0Q673.0 182.0 650.0 135.0Q648.0 92.0 650.0 50.0"/>
    <path d="M655.0 50.0Q660.0 92.0 655.0 135.0Q673.0 181.0 655.0 227.0Q721.0 275.0 655.0 323.0Q693.0 364.0 655.0 405.0Q607.0 431.0 655.0 456.0Q649.0 519.0 655.0 581.0Q585.0 614.0 655.0 648.0Q702.0 691.0 655.0 734.0Q601.0 777.0 655.0 820.0"/>
    <path d="M660.0 820.0Q604.0 778.0 660.0 735.0Q701.0 693.0 660.0 650.0Q599.0 615.0 660.0 580.0Q654.0 518.0 660.0 456.0Q621.0 430.0 660.0 404.0Q702.0 364.0 660.0 323.0Q721.0 274.0 660.0 225.0Q673.0 180.0 660.0 135.0Q673.0 92.0 660.0 50.0"/>
    <path d="M665.0 50.0Q686.0 93.0 665.0 135.0Q672.0 179.0 665.0 223.0Q720.0 273.0 665.0 324.0Q712.0 364.0 665.0 404.0Q636.0 430.0 665.0 456.0Q658.0 517.0 665.0 578.0Q613.0 615.0 665.0 652.0Q700.0 695.0 665.0 737.0Q608.0 779.0 665.0 820.0"/>
    <path d="M670.0 820.0Q611.0 780.0 670.0 739.0Q698.0 697.0 670.0 655.0Q627.0 616.0 670.0 577.0Q663.0 516.0 670.0 455.0Q652.0 429.0 670.0 403.0Q722.0 364.0 670.0 324.0Q719.0 272.0 670.0 220.0Q670.0 178.0 670.0 135.0Q700.0 93.0 670.0 50.0"/>
    <path d="M675.0 50.0Q714.0 93.0 675.0 135.0Q669.0 177.0 675.0 218.0Q717.0 271.0 675.0 325.0Q731.0 364.0 675.0 402.0Q667.0 429.0 675.0 455.0Q668.0 515.0 675.0 576.0Q642.0 616.0 675.0 657.0Q697.0 699.0 675.0 741.0Q614.0 781.0 675.0 820.0"/>
    <path d="M680.0 820.0Q617.0 782.0 680.0 743.0Q695.0 701.0 680.0 660.0Q656.0 617.0 680.0 574.0Q673.0 515.0 680.0 455.0Q683.0 428.0 680.0 402.0Q741.0 364.0 680.0 326.0Q716.0 270.0 680.0 215.0Q667.0 176.0 680.0 136.0Q728.0 93.0 680.0 50.0"/>
    <path d="M685.0 50.0Q742.0 93.0 685.0 136.0Q666.0 174.0 685.0 213.0Q715.0 269.0 685.0 326.0Q751.0 364.0 685.0 401.0Q699.0 428.0 685.0 454.0Q678.0 514.0 685.0 573.0Q671.0 618.0 685.0 662.0Q693.0 704.0 685.0 745.0Q620.0 783.0 685.0 820.0"/>
    <path d="M690.0 820.0Q624.0 784.0 690.0 747.0Q692.0 706.0 690.0 664.0Q685.0 618.0 690.0 572.0Q682.0 513.0 690.0 454.0Q714.0 427.0 690.0 400.0Q760.0 363.0 690.0 327.0Q714.0 269.0 690.0 211.0Q665.0 173.0 690.0 136.0Q755.0 93.0 690.0 50.0"/>
    <path d="M695.0 50.0Q768.0 93.0 695.0 136.0Q664.0 172.0 695.0 208.0Q713.0 268.0 695.0 327.0Q770.0 363.0 695.0 400.0Q728.0 427.0 695.0 454.0Q687.0 512.0 695.0 571.0Q698.0 619.0 695.0 666.0Q691.0 708.0 695.0 749.0Q627.0 784.0 695.0 820.0"/>
    <path d="M700.0 820.0Q631.0 785.0 700.0 750.0Q691.0 709.0 700.0 668.0Q711.0 619.0 700.0 570.0Q692.0 512.0 700.0 454.0Q741.0 426.0 700.0 399.0Q778.0 363.0 700.0 328.0Q713.0 267.0 700.0 207.0Q664.0 171.0 700.0 136.0Q780.0 93.0 700.0 50.0"/>
    <path d="M705.0 50.0Q791.0 93.0 705.0 136.0Q665.0 171.0 705.0 205.0Q714.0 266.0 705.0 328.0Q786.0 363.0 705.0 399.0Q753.0 426.0 705.0 453.0Q697.0 511.0 705.0 569.0Q722.0 619.0 705.0 670.0Q692.0 711.0 705.0 752.0Q634.0 786.0 705.0 820.0"/>
    <path d="M710.0 820.0Q638.0 786.0 710.0 753.0Q693.0 712.0 710.0 671.0Q732.0 620.0 710.0 568.0Q702.0 511.0 710.0 453.0Q764.0 426.0 710.0 398.0Q794.0 363.0 710.0 328.0Q716.0 266.0 710.0 204.0Q666.0 170.0 710.0 137.0Q800.0 93.0 710.0 50.0"/>
    <path d="M715.0 50.0Q809.0 93.0 715.0 137.0Q669.0 170.0 715.0 203.0Q718.0 266.0 715.0 328.0Q801.0 363.0 715.0 398.0Q773.0 426.0 715.0 453.0Q707.0 510.0 715.0 568.0Q741.0 620.0 715.0 672.0Q696.0 713.0 715.0 754.0Q643.0 787.0 715.0 820.0"/>
    <path d="M720.0 820.0Q647.0 787.0 720.0 754.0Q699.0 713.0 720.0 673.0Q748.0 620.0 720.0 567.0Q712.0 510.0 720.0 453.0Q780.0 426.0 720.0 398.0Q807.0 363.0 720.0 329.0Q722.0 265.0 720.0 202.0Q672.0 169.0 720.0 137.0Q816.0 93.0 720.0 50.0"/>
    <path d="M725.0 50.0Q822.0 93.0 725.0 137.0Q677.0 169.0 725.0 202.0Q726.0 265.0 725.0 329.0Q812.0 363.0 725.0 398.0Q786.0 426.0 725.0 453.0Q717.0 510.0 725.0 567.0Q754.0 620.0 725.0 673.0Q704.0 714.0 725.0 754.0Q652.0 787.0 725.0 820.0"/>
    <path d="M730.0 820.0Q657.0 787.0 730.0 754.0Q709.0 714.0 730.0 673.0Q759.0 620.0 730.0 567.0Q722.0 510.0 730.0 453.0Q791.0 426.0 730.0 398.0Q817.0 363.0 730.0 329.0Q731.0 265.0 730.0 202.0Q682.0 169.0 730.0 137.0Q827.0 93.0 730.0 50.0"/>
    <path d="M735.0 50.0Q830.0 93.0 735.0 137.0Q687.0 169.0 735.0 202.0Q736.0 265.0 735.0 329.0Q822.0 363.0 735.0 398.0Q796.0 426.0 735.0 453.0Q727.0 510.0 735.0 567.0Q763.0 620.0 735.0 673.0Q714.0 713.0 735.0 754.0Q662.0 787.0 735.0 820.0"/>
    <path d="M740.0 820.0Q667.0 787.0 740.0 754.0Q721.0 713.0 740.0 672.0Q767.0 619.0 740.0 566.0Q733.0 510.0 740.0 453.0Q799.0 426.0 740.0 398.0Q826.0 364.0 740.0 329.0Q741.0 266.0 740.0 203.0Q692.0 170.0 740.0 137.0Q832.0 93.0 740.0 50.0"/>
    <path d="M745.0 50.0Q832.0 94.0 745.0 137.0Q698.0 171.0 745.0 204.0Q746.0 266.0 745.0 329.0Q829.0 364.0 745.0 399.0Q801.0 426.0 745.0 453.0Q740.0 510.0 745.0 566.0Q769.0 618.0 745.0 670.0Q730.0 712.0 745.0 753.0Q673.0 787.0 745.0 820.0"/>
    <path d="M750.0 820.0Q678.0 786.0 750.0 752.0Q739.0 710.0 750.0 668.0Q771.0 616.0 750.0 564.0Q747.0 509.0 750.0 454.0Q801.0 427.0 750.0 399.0Q832.0 364.0 750.0 329.0Q751.0 267.0 750.0 205.0Q704.0 172.0 750.0 138.0Q829.0 94.0 750.0 50.0"/>
    <path d="M755.0 50.0Q825.0 94.0 755.0 138.0Q710.0 173.0 755.0 207.0Q755.0 268.0 755.0 330.0Q834.0 365.0 755.0 400.0Q801.0 427.0 755.0 454.0Q755.0 508.0 755.0 563.0Q772.0 614.0 755.0 665.0Q749.0 708.0 755.0 751.0Q684.0 786.0 755.0 820.0"/>
    <path d="M760.0 820.0Q690.0 785.0 760.0 750.0Q760.0 706.0 760.0 662.0Q771.0 611.0 760.0 561.0Q763.0 508.0 760.0 455.0Q800.0 428.0 760.0 401.0Q836.0 366.0 760.0 330.0Q760.0 270.0 760.0 209.0Q717.0 174.0 760.0 139.0Q819.0 95.0 760.0 50.0"/>
    <path d="M765.0 50.0Q812.0 95.0 765.0 140.0Q724.0 176.0 765.0 212.0Q764.0 271.0 765.0 330.0Q837.0 366.0 765.0 402.0Q798.0 429.0 765.0 455.0Q772.0 507.0 765.0 559.0Q771.0 609.0 765.0 658.0Q772.0 704.0 765.0 749.0Q695.0 784.0 765.0 820.0"/>
    <path d="M770.0 820.0Q701.0 784.0 770.0 747.0Q785.0 701.0 770.0 655.0Q770.0 605.0 770.0 556.0Q781.0 506.0 770.0 456.0Q796.0 429.0 770.0 403.0Q838.0 367.0 770.0 331.0Q768.0 273.0 770.0 215.0Q731.0 178.0 770.0 141.0Q804.0 95.0 770.0 50.0"/>
    <path d="M775.0 50.0Q795.0 96.0 775.0 141.0Q738.0 179.0 775.0 217.0Q773.0 274.0 775.0 331.0Q838.0 368.0 775.0 405.0Q793.0 430.0 775.0 456.0Q790.0 505.0 775.0 554.0Q768.0 602.0 775.0 650.0Q798.0 698.0 775.0 746.0Q707.0 783.0 775.0 820.0"/>
    <path d="M780.0 820.0Q713.0 782.0 780.0 744.0Q811.0 695.0 780.0 646.0Q767.0 599.0 780.0 551.0Q799.0 504.0 780.0 457.0Q790.0 431.0 780.0 406.0Q839.0 369.0 780.0 332.0Q777.0 276.0 780.0 220.0Q745.0 181.0 780.0 142.0Q786.0 96.0 780.0 50.0"/>
    <path d="M785.0 50.0Q776.0 97.0 785.0 143.0Q752.0 183.0 785.0 223.0Q781.0 278.0 785.0 332.0Q839.0 370.0 785.0 407.0Q787.0 432.0 785.0 457.0Q808.0 503.0 785.0 549.0Q765.0 595.0 785.0 642.0Q824.0 692.0 785.0 743.0Q719.0 781.0 785.0 820.0"/>
    <path d="M790.0 820.0Q725.0 781.0 790.0 741.0Q837.0 690.0 790.0 638.0Q764.0 592.0 790.0 546.0Q818.0 502.0 790.0 458.0Q784.0 433.0 790.0 408.0Q840.0 371.0 790.0 333.0Q785.0 279.0 790.0 226.0Q759.0 185.0 790.0 144.0Q768.0 97.0 790.0 50.0"/>
    <path d="M795.0 50.0Q759.0 97.0 795.0 145.0Q766.0 187.0 795.0 229.0Q790.0 281.0 795.0 333.0Q841.0 371.0 795.0 409.0Q782.0 434.0 795.0 458.0Q826.0 501.0 795.0 544.0Q762.0 589.0 795.0 634.0Q850.0 687.0 795.0 740.0Q731.0 780.0 795.0 820.0"/>
    <path d="M800.0 820.0Q736.0 779.0 800.0 739.0Q862.0 684.0 800.0 630.0Q762.0 586.0 800.0 542.0Q835.0 500.0 800.0 459.0Q780.0 435.0 800.0 410.0Q842.0 372.0 800.0 334.0Q794.0 282.0 800.0 231.0Q772.0 188.0 800.0 146.0Q752.0 98.0 800.0 50.0"/>
    <path d="M805.0 50.0Q746.0 98.0 805.0 146.0Q779.0 190.0 805.0 233.0Q799.0 284.0 805.0 334.0Q844.0 373.0 805.0 411.0Q779.0 435.0 805.0 459.0Q843.0 500.0 805.0 540.0Q762.0 584.0 805.0 627.0Q873.0 682.0 805.0 737.0Q742.0 779.0 805.0 820.0"/>
    <path d="M810.0 820.0Q748.0 778.0 810.0 736.0Q884.0 680.0 810.0 624.0Q762.0 582.0 810.0 539.0Q851.0 499.0 810.0 460.0Q779.0 436.0 810.0 412.0Q846.0 373.0 810.0 335.0Q803.0 285.0 810.0 235.0Q785.0 191.0 810.0 147.0Q742.0 98.0 810.0 50.0"/>
    <path d="M815.0 50.0Q740.0 99.0 815.0 147.0Q791.0 192.0 815.0 237.0Q808.0 286.0 815.0 335.0Q848.0 374.0 815.0 413.0Q779.0 436.0 815.0 460.0Q858.0 499.0 815.0 537.0Q764.0 580.0 815.0 622.0Q893.0 679.0 815.0 736.0Q753.0 778.0 815.0 820.0"/>
    <path d="M820.0 820.0Q759.0 777.0 820.0 735.0Q901.0 678.0 820.0 621.0Q766.0 578.0 820.0 536.0Q865.0 498.0 820.0 460.0Q781.0 437.0 820.0 413.0Q852.0 374.0 820.0 335.0Q812.0 286.0 820.0 238.0Q797.0 193.0 820.0 148.0Q739.0 99.0 820.0 50.0"/>
    <path d="M825.0 50.0Q741.0 99.0 825.0 148.0Q803.0 193.0 825.0 238.0Q817.0 287.0 825.0 335.0Q856.0 374.0 825.0 414.0Q784.0 437.0 825.0 460.0Q871.0 498.0 825.0 536.0Q770.0 578.0 825.0 620.0Q908.0 677.0 825.0 735.0Q764.0 777.0 825.0 820.0"/>
    <path d="M830.0 820.0Q769.0 777.0 830.0 734.0Q914.0 677.0 830.0 619.0Q774.0 577.0 830.0 536.0Q876.0 498.0 830.0 460.0Q789.0 437.0 830.0 414.0Q860.0 374.0 830.0 335.0Q822.0 287.0 830.0 239.0Q808.0 193.0 830.0 148.0Q745.0 99.0 830.0 50.0"/>
    <path d="M835.0 50.0Q750.0 99.0 835.0 148.0Q813.0 193.0 835.0 239.0Q827.0 287.0 835.0 335.0Q865.0 374.0 835.0 414.0Q794.0 437.0 835.0 460.0Q881.0 498.0 835.0 536.0Q779.0 577.0 835.0 619.0Q919.0 677.0 835.0 734.0Q774.0 777.0 835.0 820.0"/>
    <path d="M840.0 820.0Q779.0 777.0 840.0 735.0Q923.0 677.0 840.0 619.0Q785.0 578.0 840.0 536.0Q886.0 498.0 840.0 460.0Q799.0 437.0 840.0 414.0Q870.0 374.0 840.0 335.0Q832.0 287.0 840.0 239.0Q818.0 193.0 840.0 148.0Q756.0 99.0 840.0 50.0"/>
    <path d="M845.0 50.0Q764.0 99.0 845.0 147.0Q824.0 193.0 845.0 238.0Q837.0 287.0 845.0 335.0Q872.0 374.0 845.0 414.0Q804.0 437.0 845.0 460.0Q888.0 498.0 845.0 536.0Q792.0 578.0 845.0 620.0Q926.0 677.0 845.0 735.0Q786.0 778.0 845.0 820.0"/>
    <path d="M850.0 820.0Q794.0 778.0 850.0 736.0Q927.0 678.0 850.0 620.0Q801.0 578.0 850.0 536.0Q890.0 498.0 850.0 460.0Q809.0 437.0 850.0 414.0Q874.0 375.0 850.0 335.0Q843.0 287.0 850.0 238.0Q831.0 192.0 850.0 146.0Q775.0 98.0 850.0 50.0"/>
    <path d="M855.0 50.0Q787.0 98.0 855.0 145.0Q839.0 191.0 855.0 238.0Q848.0 286.0 855.0 335.0Q874.0 375.0 855.0 414.0Q814.0 437.0 855.0 459.0Q889.0 498.0 855.0 537.0Q812.0 579.0 855.0 620.0Q927.0 679.0 855.0 737.0Q802.0 779.0 855.0 820.0"/>
    <path d="M860.0 820.0Q811.0 779.0 860.0 738.0Q925.0 680.0 860.0 621.0Q824.0 579.0 860.0 538.0Q888.0 498.0 860.0 459.0Q819.0 437.0 860.0 414.0Q873.0 375.0 860.0 335.0Q853.0 286.0 860.0 238.0Q847.0 191.0 860.0 143.0Q802.0 97.0 860.0 50.0"/>
    <path d="M865.0 50.0Q818.0 96.0 865.0 142.0Q855.0 189.0 865.0 237.0Q859.0 286.0 865.0 335.0Q871.0 375.0 865.0 415.0Q825.0 436.0 865.0 458.0Q886.0 499.0 865.0 539.0Q836.0 580.0 865.0 621.0Q923.0 681.0 865.0 740.0Q821.0 780.0 865.0 820.0"/>
    <path d="M870.0 820.0Q832.0 781.0 870.0 742.0Q919.0 682.0 870.0 622.0Q850.0 581.0 870.0 540.0Q882.0 499.0 870.0 457.0Q830.0 436.0 870.0 415.0Q868.0 375.0 870.0 334.0Q864.0 286.0 870.0 237.0Q865.0 188.0 870.0 140.0Q835.0 95.0 870.0 50.0"/>
    <path d="M875.0 50.0Q853.0 94.0 875.0 137.0Q874.0 187.0 875.0 236.0Q870.0 285.0 875.0 334.0Q864.0 375.0 875.0 415.0Q835.0 436.0 875.0 456.0Q878.0 499.0 875.0 542.0Q865.0 582.0 875.0 623.0Q915.0 683.0 875.0 744.0Q843.0 782.0 875.0 820.0"/>
    <path d="M880.0 820.0Q855.0 783.0 880.0 746.0Q911.0 685.0 880.0 623.0Q880.0 583.0 880.0 543.0Q874.0 499.0 880.0 455.0Q841.0 436.0 880.0 416.0Q860.0 375.0 880.0 334.0Q876.0 285.0 880.0 236.0Q884.0 185.0 880.0 135.0Q872.0 92.0 880.0 50.0"/>
    <path d="M885.0 50.0Q892.0 91.0 885.0 133.0Q893.0 184.0 885.0 235.0Q881.0 284.0 885.0 334.0Q856.0 375.0 885.0 416.0Q846.0 435.0 885.0 454.0Q869.0 499.0 885.0 544.0Q895.0 584.0 885.0 624.0Q906.0 686.0 885.0 748.0Q866.0 784.0 885.0 820.0"/>
    <path d="M890.0 820.0Q878.0 785.0 890.0 750.0Q901.0 687.0 890.0 625.0Q911.0 585.0 890.0 546.0Q864.0 500.0 890.0 453.0Q851.0 435.0 890.0 417.0Q851.0 375.0 890.0 333.0Q887.0 284.0 890.0 235.0Q903.0 182.0 890.0 130.0Q911.0 90.0 890.0 50.0"/>
    <path d="M895.0 50.0Q930.0 89.0 895.0 128.0Q913.0 181.0 895.0 234.0Q893.0 284.0 895.0 333.0Q847.0 375.0 895.0 417.0Q857.0 435.0 895.0 453.0Q860.0 500.0 895.0 547.0Q926.0 586.0 895.0 625.0Q896.0 689.0 895.0 752.0Q890.0 786.0 895.0 820.0"/>
    <path d="M900.0 820.0Q901.0 787.0 900.0 754.0Q892.0 690.0 900.0 626.0Q940.0 587.0 900.0 548.0Q856.0 500.0 900.0 452.0Q862.0 434.0 900.0 417.0Q843.0 375.0 900.0 333.0Q898.0 283.0 900.0 234.0Q922.0 180.0 900.0 126.0Q949.0 88.0 900.0 50.0"/>
    <path d="M905.0 50.0Q966.0 87.0 905.0 123.0Q932.0 178.0 905.0 233.0Q904.0 283.0 905.0 333.0Q840.0 375.0 905.0 418.0Q867.0 434.0 905.0 451.0Q852.0 500.0 905.0 549.0Q954.0 588.0 905.0 627.0Q889.0 691.0 905.0 756.0Q911.0 788.0 905.0 820.0"/>
    <path d="M910.0 820.0Q921.0 789.0 910.0 758.0Q886.0 693.0 910.0 627.0Q967.0 589.0 910.0 550.0Q850.0 500.0 910.0 450.0Q872.0 434.0 910.0 418.0Q838.0 375.0 910.0 332.0Q909.0 283.0 910.0 233.0Q940.0 177.0 910.0 122.0Q982.0 86.0 910.0 50.0"/>
    <path d="M915.0 50.0Q996.0 85.0 915.0 120.0Q948.0 176.0 915.0 232.0Q915.0 282.0 915.0 332.0Q837.0 375.0 915.0 418.0Q878.0 434.0 915.0 450.0Q848.0 500.0 915.0 551.0Q979.0 590.0 915.0 628.0Q885.0 693.0 915.0 759.0Q931.0 790.0 915.0 820.0"/>
    <path d="M920.0 820.0Q939.0 790.0 920.0 760.0Q885.0 694.0 920.0 628.0Q989.0 590.0 920.0 552.0Q848.0 501.0 920.0 449.0Q883.0 434.0 920.0 418.0Q837.0 375.0 920.0 332.0Q920.0 282.0 920.0 232.0Q956.0 175.0 920.0 119.0Q1009.0 84.0 920.0 50.0"/>
    <path d="M925.0 50.0Q1020.0 84.0 925.0 118.0Q963.0 175.0 925.0 232.0Q925.0 282.0 925.0 332.0Q839.0 375.0 925.0 419.0Q888.0 434.0 925.0 449.0Q849.0 501.0 925.0 553.0Q998.0 591.0 925.0 628.0Q886.0 695.0 925.0 761.0Q947.0 791.0 925.0 820.0"/>
    <path d="M930.0 820.0Q953.0 791.0 930.0 762.0Q889.0 695.0 930.0 629.0Q1005.0 591.0 930.0 553.0Q852.0 501.0 930.0 448.0Q893.0 434.0 930.0 419.0Q842.0 375.0 930.0 332.0Q930.0 282.0 930.0 232.0Q969.0 175.0 930.0 117.0Q1028.0 84.0 930.0 50.0"/>
    <path d="M935.0 50.0Q1034.0 84.0 935.0 117.0Q974.0 174.0 935.0 232.0Q935.0 282.0 935.0 332.0Q846.0 375.0 935.0 419.0Q898.0 434.0 935.0 448.0Q856.0 501.0 935.0 553.0Q1011.0 591.0 935.0 629.0Q893.0 695.0 935.0 762.0Q959.0 791.0 935.0 820.0"/>
    <path d="M940.0 820.0Q964.0 791.0 940.0 762.0Q898.0 695.0 940.0 629.0Q1016.0 591.0 940.0 553.0Q861.0 501.0 940.0 448.0Q903.0 434.0 940.0 419.0Q851.0 375.0 940.0 332.0Q940.0 282.0 940.0 232.0Q979.0 174.0 940.0 117.0Q1039.0 84.0 940.0 50.0"/>
    <path d="M945.0 50.0Q1043.0 84.0 945.0 117.0Q984.0 174.0 945.0 232.0Q945.0 282.0 945.0 332.0Q857.0 375.0 945.0 419.0Q908.0 433.0 945.0 448.0Q867.0 501.0 945.0 553.0Q1020.0 591.0 945.0 629.0Q903.0 695.0 945.0 761.0Q968.0 791.0 945.0 820.0"/>
    <path d="M950.0 820.0Q972.0 790.0 950.0 761.0Q910.0 695.0 950.0 630.0Q1023.0 592.0 950.0 553.0Q875.0 501.0 950.0 449.0Q912.0 433.0 950.0 418.0Q864.0 374.0 950.0 331.0Q949.0 281.0 950.0 231.0Q990.0 174.0 950.0 117.0Q1045.0 84.0 950.0 50.0"/>
    <path d="M955.0 50.0Q1045.0 84.0 955.0 117.0Q996.0 174.0 955.0 230.0Q952.0 280.0 955.0 329.0Q874.0 373.0 955.0 417.0Q917.0 433.0 955.0 449.0Q884.0 501.0 955.0 554.0Q1024.0 593.0 955.0 631.0Q918.0 695.0 955.0 759.0Q974.0 790.0 955.0 820.0"/>
    <path d="M960.0 820.0Q976.0 789.0 960.0 757.0Q928.0 695.0 960.0 633.0Q1023.0 594.0 960.0 554.0Q895.0 502.0 960.0 449.0Q921.0 433.0 960.0 416.0Q885.0 372.0 960.0 327.0Q954.0 278.0 960.0 229.0Q1002.0 173.0 960.0 117.0Q1044.0 84.0 960.0 50.0"/>
    <path d="M965.0 50.0Q1040.0 84.0 965.0 117.0Q1008.0 172.0 965.0 227.0Q956.0 276.0 965.0 324.0Q898.0 369.0 965.0 415.0Q924.0 432.0 965.0 450.0Q907.0 502.0 965.0 555.0Q1021.0 595.0 965.0 636.0Q938.0 695.0 965.0 754.0Q976.0 787.0 965.0 820.0"/>
    <path d="M970.0 820.0Q976.0 786.0 970.0 752.0Q949.0 695.0 970.0 639.0Q1018.0 597.0 970.0 555.0Q920.0 503.0 970.0 450.0Q928.0 432.0 970.0 413.0Q912.0 367.0 970.0 321.0Q957.0 273.0 970.0 225.0Q1014.0 171.0 970.0 118.0Q1036.0 84.0 970.0 50.0"/>
    <path d="M975.0 50.0Q1030.0 84.0 975.0 118.0Q1021.0 170.0 975.0 223.0Q958.0 270.0 975.0 318.0Q927.0 364.0 975.0 411.0Q931.0 431.0 975.0 451.0Q935.0 504.0 975.0 556.0Q1013.0 599.0 975.0 642.0Q961.0 695.0 975.0 748.0Q975.0 784.0 975.0 820.0"/>
    <path d="M980.0 820.0Q974.0 782.0 980.0 745.0Q974.0 695.0 980.0 646.0Q1008.0 601.0 980.0 557.0Q950.0 504.0 980.0 452.0Q934.0 431.0 980.0 409.0Q943.0 362.0 980.0 314.0Q959.0 267.0 980.0 221.0Q1027.0 169.0 980.0 118.0Q1023.0 84.0 980.0 50.0"/>
    <path d="M985.0 50.0Q1016.0 84.0 985.0 118.0Q1034.0 168.0 985.0 218.0Q959.0 264.0 985.0 310.0Q960.0 359.0 985.0 407.0Q937.0 430.0 985.0 453.0Q966.0 505.0 985.0 558.0Q1003.0 604.0 985.0 650.0Q987.0 695.0 985.0 741.0Q972.0 780.0 985.0 820.0"/>
    <path d="M990.0 820.0Q971.0 779.0 990.0 737.0Q1000.0 695.0 990.0 654.0Q997.0 606.0 990.0 559.0Q982.0 506.0 990.0 453.0Q940.0 429.0 990.0 405.0Q977.0 355.0 990.0 306.0Q959.0 261.0 990.0 216.0Q1041.0 167.0 990.0 118.0Q1008.0 84.0 990.0 50.0"/>
    <path d="M995.0 50.0Q1000.0 84.0 995.0 118.0Q1048.0 166.0 995.0 213.0Q959.0 257.0 995.0 301.0Q994.0 352.0 995.0 403.0Q943.0 429.0 995.0 454.0Q998.0 507.0 995.0 560.0Q991.0 609.0 995.0 658.0Q1013.0 695.0 995.0 733.0Q969.0 777.0 995.0 820.0"/>
    <path d="M1000.0 820.0Q967.0 775.0 1000.0 729.0Q1026.0 695.0 1000.0 661.0Q985.0 611.0 1000.0 560.0Q1014.0 508.0 1000.0 455.0Q946.0 428.0 1000.0 401.0Q1010.0 349.0 1000.0 297.0Q959.0 254.0 1000.0 211.0Q1055.0 165.0 1000.0 119.0Q993.0 84.0 1000.0 50.0"/>
    <path d="M1005.0 50.0Q986.0 84.0 1005.0 119.0Q1061.0 164.0 1005.0 208.0Q960.0 251.0 1005.0 294.0Q1026.0 346.0 1005.0 399.0Q949.0 427.0 1005.0 456.0Q1029.0 508.0 1005.0 561.0Q980.0 613.0 1005.0 665.0Q1039.0 695.0 1005.0 726.0Q966.0 773.0 1005.0 820.0"/>
    <path d="M1010.0 820.0Q965.0 771.0 1010.0 722.0Q1051.0 695.0 1010.0 668.0Q976.0 615.0 1010.0 562.0Q1044.0 509.0 1010.0 456.0Q953.0 427.0 1010.0 397.0Q1041.0 344.0 1010.0 290.0Q960.0 248.0 1010.0 206.0Q1068.0 163.0 1010.0 119.0Q981.0 84.0 1010.0 50.0"/>
    <path d="M1015.0 50.0Q976.0 85.0 1015.0 119.0Q1074.0 162.0 1015.0 204.0Q962.0 246.0 1015.0 287.0Q1055.0 341.0 1015.0 396.0Q956.0 426.0 1015.0 457.0Q1057.0 510.0 1015.0 563.0Q973.0 617.0 1015.0 671.0Q1062.0 695.0 1015.0 720.0Q965.0 770.0 1015.0 820.0"/>
    <path d="M1020.0 820.0Q966.0 769.0 1020.0 717.0Q1073.0 695.0 1020.0 674.0Q971.0 619.0 1020.0 563.0Q1069.0 510.0 1020.0 457.0Q960.0 426.0 1020.0 394.0Q1068.0 339.0 1020.0 284.0Q963.0 244.0 1020.0 203.0Q1080.0 161.0 1020.0 119.0Q973.0 85.0 1020.0 50.0"/>
    <path d="M1025.0 50.0Q971.0 85.0 1025.0 119.0Q1086.0 160.0 1025.0 201.0Q966.0 242.0 1025.0 282.0Q1079.0 338.0 1025.0 393.0Q964.0 426.0 1025.0 458.0Q1080.0 511.0 1025.0 564.0Q970.0 620.0 1025.0 676.0Q1082.0 695.0 1025.0 715.0Q967.0 767.0 1025.0 820.0"/>
    <path d="M1030.0 820.0Q969.0 767.0 1030.0 714.0Q1090.0 695.0 1030.0 677.0Q971.0 621.0 1030.0 564.0Q1089.0 511.0 1030.0 458.0Q968.0 425.0 1030.0 392.0Q1089.0 336.0 1030.0 281.0Q969.0 241.0 1030.0 200.0Q1092.0 160.0 1030.0 119.0Q971.0 85.0 1030.0 50.0"/>
    <path d="M1035.0 50.0Q973.0 85.0 1035.0 119.0Q1098.0 160.0 1035.0 200.0Q973.0 240.0 1035.0 280.0Q1097.0 336.0 1035.0 392.0Q972.0 425.0 1035.0 458.0Q1097.0 511.0 1035.0 564.0Q973.0 621.0 1035.0 678.0Q1097.0 695.0 1035.0 713.0Q973.0 766.0 1035.0 820.0"/>
    <path d="M1040.0 820.0Q977.0 766.0 1040.0 712.0Q1103.0 695.0 1040.0 679.0Q977.0 621.0 1040.0 564.0Q1103.0 511.0 1040.0 458.0Q977.0 425.0 1040.0 392.0Q1103.0 336.0 1040.0 279.0Q977.0 239.0 1040.0 200.0Q1103.0 160.0 1040.0 119.0Q977.0 85.0 1040.0 50.0"/>
  </g>
</svg>
