<svg version="1.1" width="1150" height="870" xmlns="http://www.w3.org/2000/svg">
  <!-- Seed: 2058807378516672975 -->
  <!-- Size: SvgSize.Size9x12 -->
  <!-- Params:
    draw: True
    pad_x: 50
    pad_y: 0
    row_range: [RangeInt] min: 3 max: 10
    col_range: [RangeInt] min: 5 max: 10
    wave_range: 100
    wave_y_range: 30
    step_size: 10
  -->
  <g stroke="black" fill="none">
    <path d="M100.0 820.0Q83.0 702.0 100.0 584.0Q117.0 440.0 100.0 296.0Q83.0 173.0 100.0 50.0"/>
    <path d="M110.0 50.0Q93.0 173.0 110.0 296.0Q127.0 440.0 110.0 584.0Q93.0 702.0 110.0 820.0"/>
    <path d="M120.0 820.0Q103.0 702.0 120.0 583.0Q137.0 440.0 120.0 296.0Q103.0 173.0 120.0 50.0"/>
    <path d="M130.0 50.0Q113.0 174.0 130.0 297.0Q148.0 440.0 130.0 583.0Q113.0 701.0 130.0 820.0"/>
    <path d="M140.0 820.0Q123.0 701.0 140.0 582.0Q159.0 441.0 140.0 299.0Q123.0 174.0 140.0 50.0"/>
    <path d="M150.0 50.0Q134.0 175.0 150.0 301.0Q170.0 441.0 150.0 581.0Q132.0 701.0 150.0 820.0"/>
    <path d="M160.0 820.0Q142.0 700.0 160.0 580.0Q181.0 442.0 160.0 303.0Q144.0 176.0 160.0 50.0"/>
    <path d="M170.0 50.0Q154.0 177.0 170.0 305.0Q193.0 442.0 170.0 579.0Q152.0 700.0 170.0 820.0"/>
    <path d="M180.0 820.0Q161.0 699.0 180.0 578.0Q204.0 443.0 180.0 307.0Q164.0 179.0 180.0 50.0"/>
    <path d="M190.0 50.0Q174.0 180.0 190.0 310.0Q216.0 443.0 190.0 577.0Q171.0 699.0 190.0 820.0"/>
    <path d="M200.0 820.0Q180.0 698.0 200.0 576.0Q227.0 444.0 200.0 312.0Q184.0 181.0 200.0 50.0"/>
    <path d="M210.0 50.0Q194.0 182.0 210.0 314.0Q239.0 445.0 210.0 575.0Q190.0 697.0 210.0 820.0"/>
    <path d="M220.0 820.0Q199.0 697.0 220.0 574.0Q250.0 445.0 220.0 317.0Q204.0 183.0 220.0 50.0"/>
    <path d="M230.0 50.0Q215.0 184.0 230.0 319.0Q261.0 446.0 230.0 573.0Q209.0 696.0 230.0 820.0"/>
    <path d="M240.0 820.0Q219.0 696.0 240.0 572.0Q272.0 446.0 240.0 320.0Q225.0 185.0 240.0 50.0"/>
    <path d="M250.0 50.0Q235.0 186.0 250.0 322.0Q283.0 446.0 250.0 571.0Q228.0 696.0 250.0 820.0"/>
    <path d="M260.0 820.0Q238.0 695.0 260.0 571.0Q294.0 447.0 260.0 323.0Q245.0 186.0 260.0 50.0"/>
    <path d="M270.0 50.0Q255.0 187.0 270.0 323.0Q304.0 447.0 270.0 570.0Q248.0 695.0 270.0 820.0"/>
    <path d="M280.0 820.0Q258.0 695.0 280.0 570.0Q314.0 447.0 280.0 324.0Q265.0 187.0 280.0 50.0"/>
    <path d="M290.0 50.0Q275.0 187.0 290.0 324.0Q324.0 447.0 290.0 570.0Q268.0 695.0 290.0 820.0"/>
    <path d="M300.0 820.0Q278.0 695.0 300.0 570.0Q335.0 447.0 300.0 323.0Q286.0 187.0 300.0 50.0"/>
    <path d="M310.0 50.0Q298.0 186.0 310.0 323.0Q345.0 446.0 310.0 569.0Q288.0 695.0 310.0 820.0"/>
    <path d="M320.0 820.0Q299.0 694.0 320.0 568.0Q355.0 445.0 320.0 322.0Q312.0 186.0 320.0 50.0"/>
    <path d="M330.0 50.0Q327.0 185.0 330.0 320.0Q366.0 444.0 330.0 567.0Q310.0 694.0 330.0 820.0"/>
    <path d="M340.0 820.0Q321.0 693.0 340.0 565.0Q377.0 442.0 340.0 319.0Q343.0 184.0 340.0 50.0"/>
    <path d="M350.0 50.0Q360.0 183.0 350.0 317.0Q388.0 440.0 350.0 563.0Q332.0 692.0 350.0 820.0"/>
    <path d="M360.0 820.0Q343.0 691.0 360.0 561.0Q399.0 438.0 360.0 315.0Q379.0 182.0 360.0 50.0"/>
    <path d="M370.0 50.0Q397.0 181.0 370.0 312.0Q410.0 436.0 370.0 559.0Q354.0 690.0 370.0 820.0"/>
    <path d="M380.0 820.0Q365.0 688.0 380.0 557.0Q422.0 433.0 380.0 310.0Q416.0 180.0 380.0 50.0"/>
    <path d="M390.0 50.0Q435.0 179.0 390.0 308.0Q433.0 431.0 390.0 554.0Q377.0 687.0 390.0 820.0"/>
    <path d="M400.0 820.0Q388.0 686.0 400.0 552.0Q444.0 429.0 400.0 305.0Q454.0 178.0 400.0 50.0"/>
    <path d="M410.0 50.0Q472.0 177.0 410.0 303.0Q455.0 427.0 410.0 550.0Q399.0 685.0 410.0 820.0"/>
    <path d="M420.0 820.0Q410.0 684.0 420.0 548.0Q466.0 425.0 420.0 301.0Q489.0 176.0 420.0 50.0"/>
    <path d="M430.0 50.0Q506.0 175.0 430.0 300.0Q477.0 423.0 430.0 546.0Q421.0 683.0 430.0 820.0"/>
    <path d="M440.0 820.0Q432.0 682.0 440.0 545.0Q488.0 422.0 440.0 298.0Q521.0 174.0 440.0 50.0"/>
    <path d="M450.0 50.0Q535.0 174.0 450.0 297.0Q498.0 421.0 450.0 544.0Q442.0 682.0 450.0 820.0"/>
    <path d="M460.0 820.0Q453.0 682.0 460.0 543.0Q509.0 420.0 460.0 297.0Q547.0 173.0 460.0 50.0"/>
    <path d="M470.0 50.0Q558.0 173.0 470.0 296.0Q519.0 420.0 470.0 543.0Q463.0 681.0 470.0 820.0"/>
    <path d="M480.0 820.0Q473.0 681.0 480.0 543.0Q529.0 420.0 480.0 296.0Q568.0 173.0 480.0 50.0"/>
    <path d="M490.0 50.0Q577.0 173.0 490.0 297.0Q538.0 420.0 490.0 543.0Q482.0 682.0 490.0 820.0"/>
    <path d="M500.0 820.0Q491.0 682.0 500.0 543.0Q546.0 420.0 500.0 297.0Q586.0 174.0 500.0 50.0"/>
    <path d="M510.0 50.0Q593.0 174.0 510.0 298.0Q552.0 421.0 510.0 544.0Q499.0 682.0 510.0 820.0"/>
    <path d="M520.0 820.0Q507.0 682.0 520.0 544.0Q556.0 422.0 520.0 299.0Q600.0 175.0 520.0 50.0"/>
    <path d="M530.0 50.0Q606.0 175.0 530.0 301.0Q560.0 423.0 530.0 545.0Q514.0 682.0 530.0 820.0"/>
    <path d="M540.0 820.0Q520.0 683.0 540.0 545.0Q562.0 424.0 540.0 303.0Q611.0 176.0 540.0 50.0"/>
    <path d="M550.0 50.0Q616.0 177.0 550.0 305.0Q564.0 425.0 550.0 546.0Q526.0 683.0 550.0 820.0"/>
    <path d="M560.0 820.0Q532.0 683.0 560.0 547.0Q565.0 427.0 560.0 307.0Q620.0 178.0 560.0 50.0"/>
    <path d="M570.0 50.0Q625.0 180.0 570.0 309.0Q565.0 428.0 570.0 548.0Q538.0 684.0 570.0 820.0"/>
    <path d="M580.0 820.0Q544.0 684.0 580.0 549.0Q566.0 430.0 580.0 311.0Q629.0 181.0 580.0 50.0"/>
    <path d="M590.0 50.0Q633.0 182.0 590.0 313.0Q567.0 431.0 590.0 549.0Q549.0 685.0 590.0 820.0"/>
    <path d="M600.0 820.0Q555.0 685.0 600.0 550.0Q569.0 433.0 600.0 315.0Q638.0 183.0 600.0 50.0"/>
    <path d="M610.0 50.0Q643.0 184.0 610.0 317.0Q571.0 434.0 610.0 551.0Q562.0 685.0 610.0 820.0"/>
    <path d="M620.0 820.0Q569.0 686.0 620.0 552.0Q574.0 435.0 620.0 319.0Q649.0 184.0 620.0 50.0"/>
    <path d="M630.0 50.0Q656.0 185.0 630.0 320.0Q579.0 436.0 630.0 552.0Q576.0 686.0 630.0 820.0"/>
    <path d="M640.0 820.0Q584.0 686.0 640.0 552.0Q585.0 437.0 640.0 321.0Q663.0 185.0 640.0 50.0"/>
    <path d="M650.0 50.0Q672.0 186.0 650.0 321.0Q593.0 437.0 650.0 553.0Q593.0 686.0 650.0 820.0"/>
    <path d="M660.0 820.0Q603.0 686.0 660.0 553.0Q602.0 437.0 660.0 322.0Q681.0 186.0 660.0 50.0"/>
    <path d="M670.0 50.0Q691.0 186.0 670.0 322.0Q612.0 437.0 670.0 553.0Q613.0 686.0 670.0 820.0"/>
    <path d="M680.0 820.0Q623.0 686.0 680.0 553.0Q622.0 437.0 680.0 321.0Q701.0 186.0 680.0 50.0"/>
    <path d="M690.0 50.0Q712.0 185.0 690.0 321.0Q631.0 437.0 690.0 553.0Q635.0 686.0 690.0 820.0"/>
    <path d="M700.0 820.0Q647.0 686.0 700.0 552.0Q640.0 436.0 700.0 320.0Q722.0 185.0 700.0 50.0"/>
    <path d="M710.0 50.0Q732.0 184.0 710.0 318.0Q648.0 435.0 710.0 552.0Q661.0 686.0 710.0 820.0"/>
    <path d="M720.0 820.0Q675.0 686.0 720.0 552.0Q655.0 434.0 720.0 317.0Q743.0 183.0 720.0 50.0"/>
    <path d="M730.0 50.0Q753.0 182.0 730.0 315.0Q663.0 433.0 730.0 552.0Q689.0 686.0 730.0 820.0"/>
    <path d="M740.0 820.0Q704.0 686.0 740.0 551.0Q670.0 432.0 740.0 313.0Q764.0 181.0 740.0 50.0"/>
    <path d="M750.0 50.0Q774.0 180.0 750.0 311.0Q677.0 431.0 750.0 551.0Q720.0 685.0 750.0 820.0"/>
    <path d="M760.0 820.0Q735.0 685.0 760.0 550.0Q684.0 429.0 760.0 308.0Q785.0 179.0 760.0 50.0"/>
    <path d="M770.0 50.0Q795.0 178.0 770.0 306.0Q690.0 428.0 770.0 550.0Q751.0 685.0 770.0 820.0"/>
    <path d="M780.0 820.0Q767.0 685.0 780.0 550.0Q697.0 427.0 780.0 304.0Q806.0 177.0 780.0 50.0"/>
    <path d="M790.0 50.0Q816.0 176.0 790.0 302.0Q704.0 425.0 790.0 549.0Q782.0 685.0 790.0 820.0"/>
    <path d="M800.0 820.0Q796.0 684.0 800.0 549.0Q712.0 424.0 800.0 300.0Q827.0 175.0 800.0 50.0"/>
    <path d="M810.0 50.0Q837.0 174.0 810.0 298.0Q719.0 423.0 810.0 549.0Q810.0 684.0 810.0 820.0"/>
    <path d="M820.0 820.0Q824.0 684.0 820.0 548.0Q728.0 422.0 820.0 297.0Q847.0 173.0 820.0 50.0"/>
    <path d="M830.0 50.0Q858.0 173.0 830.0 296.0Q736.0 422.0 830.0 548.0Q836.0 684.0 830.0 820.0"/>
    <path d="M840.0 820.0Q847.0 684.0 840.0 548.0Q745.0 422.0 840.0 295.0Q868.0 173.0 840.0 50.0"/>
    <path d="M850.0 50.0Q878.0 172.0 850.0 295.0Q755.0 421.0 850.0 548.0Q858.0 684.0 850.0 820.0"/>
    <path d="M860.0 820.0Q868.0 684.0 860.0 548.0Q765.0 421.0 860.0 295.0Q888.0 172.0 860.0 50.0"/>
    <path d="M870.0 50.0Q898.0 172.0 870.0 295.0Q776.0 422.0 870.0 548.0Q878.0 684.0 870.0 820.0"/>
    <path d="M880.0 820.0Q887.0 684.0 880.0 549.0Q788.0 422.0 880.0 295.0Q907.0 172.0 880.0 50.0"/>
    <path d="M890.0 50.0Q915.0 172.0 890.0 295.0Q802.0 422.0 890.0 550.0Q897.0 685.0 890.0 820.0"/>
    <path d="M900.0 820.0Q906.0 686.0 900.0 551.0Q817.0 423.0 900.0 295.0Q924.0 173.0 900.0 50.0"/>
    <path d="M910.0 50.0Q932.0 173.0 910.0 295.0Q833.0 424.0 910.0 553.0Q915.0 686.0 910.0 820.0"/>
    <path d="M920.0 820.0Q924.0 687.0 920.0 555.0Q851.0 425.0 920.0 296.0Q939.0 173.0 920.0 50.0"/>
    <path d="M930.0 50.0Q946.0 173.0 930.0 296.0Q869.0 426.0 930.0 557.0Q933.0 689.0 930.0 820.0"/>
    <path d="M940.0 820.0Q942.0 690.0 940.0 559.0Q887.0 428.0 940.0 296.0Q953.0 173.0 940.0 50.0"/>
    <path d="M950.0 50.0Q960.0 173.0 950.0 296.0Q906.0 429.0 950.0 562.0Q950.0 691.0 950.0 820.0"/>
    <path d="M960.0 820.0Q959.0 692.0 960.0 564.0Q925.0 430.0 960.0 296.0Q967.0 173.0 960.0 50.0"/>
    <path d="M970.0 50.0Q974.0 173.0 970.0 297.0Q944.0 432.0 970.0 567.0Q968.0 693.0 970.0 820.0"/>
    <path d="M980.0 820.0Q977.0 694.0 980.0 569.0Q962.0 433.0 980.0 297.0Q982.0 173.0 980.0 50.0"/>
    <path d="M990.0 50.0Q989.0 174.0 990.0 297.0Q979.0 434.0 990.0 571.0Q986.0 695.0 990.0 820.0"/>
    <path d="M1000.0 820.0Q995.0 696.0 1000.0 572.0Q995.0 435.0 1000.0 297.0Q997.0 174.0 1000.0 50.0"/>
    <path d="M1010.0 50.0Q1005.0 174.0 1010.0 297.0Q1010.0 436.0 1010.0 574.0Q1004.0 697.0 1010.0 820.0"/>
    <path d="M1020.0 820.0Q1013.0 697.0 1020.0 575.0Q1024.0 436.0 1020.0 298.0Q1014.0 174.0 1020.0 50.0"/>
    <path d="M1030.0 50.0Q1023.0 174.0 1030.0 298.0Q1036.0 437.0 1030.0 575.0Q1023.0 698.0 1030.0 820.0"/>
    <path d="M1040.0 820.0Q1033.0 698.0 1040.0 576.0Q1047.0 437.0 1040.0 298.0Q1033.0 174.0 1040.0 50.0"/>
  </g>
</svg>
