<svg version="1.1" width="1150" height="870" xmlns="http://www.w3.org/2000/svg">
  <!-- Seed: 8309250133112564396 -->
  <!-- Size: SvgSize.Size9x12 -->
  <!-- Params:
    draw: True
    pad_x: 50
    pad_y: 0
    vert_subdivisions: [RangeInt] min: 3 max: 10
    wave_subdivisions: [RangeInt] min: 5 max: 10
    wave_range: 100
    step_size: 5
  -->
  <g stroke="black" fill="none">
    <path d="M100 50Q58.78 127.0 100 204.0Q141.22 281.0 100 358.0Q58.78 435.0 100 512.0Q141.22 589.0 100 666.0Q58.78 743.0 100 820.0"/>
    <path d="M105 50Q63.71 127.0 105 204.0Q146.38 281.0 105 358.0Q63.67 435.0 105 512.0Q145.73 589.0 105 666.0Q64.23 743.0 105 820.0"/>
    <path d="M110 50Q68.52 127.0 110 204.0Q151.83 281.0 110 358.0Q68.35 435.0 110 512.0Q149.27 589.0 110 666.0Q70.59 743.0 110 820.0"/>
    <path d="M115 50Q73.21 127.0 115 204.0Q157.59 281.0 115 358.0Q72.83 435.0 115 512.0Q151.88 589.0 115 666.0Q77.81 743.0 115 820.0"/>
    <path d="M120 50Q77.78 127.0 120 204.0Q163.61 281.0 120 358.0Q77.12 435.0 120 512.0Q153.61 589.0 120 666.0Q85.85 743.0 120 820.0"/>
    <path d="M125 50Q82.25 127.0 125 204.0Q169.88 281.0 125 358.0Q81.23 435.0 125 512.0Q154.54 589.0 125 666.0Q94.62 743.0 125 820.0"/>
    <path d="M130 50Q86.63 127.0 130 204.0Q176.38 281.0 130 358.0Q85.19 435.0 130 512.0Q154.78 589.0 130 666.0Q104.04 743.0 130 820.0"/>
    <path d="M135 50Q90.94 127.0 135 204.0Q183.05 281.0 135 358.0Q89.03 435.0 135 512.0Q154.45 589.0 135 666.0Q114.0 743.0 135 820.0"/>
    <path d="M140 50Q95.18 127.0 140 204.0Q189.86 281.0 140 358.0Q92.77 435.0 140 512.0Q153.67 589.0 140 666.0Q124.37 743.0 140 820.0"/>
    <path d="M145 50Q99.39 127.0 145 204.0Q196.77 281.0 145 358.0Q96.44 435.0 145 512.0Q152.58 589.0 145 666.0Q135.02 743.0 145 820.0"/>
    <path d="M150 50Q103.58 127.0 150 204.0Q203.73 281.0 150 358.0Q100.08 435.0 150 512.0Q151.34 589.0 150 666.0Q145.81 743.0 150 820.0"/>
    <path d="M155 50Q107.76 127.0 155 204.0Q210.68 281.0 155 358.0Q103.72 435.0 155 512.0Q150.11 589.0 155 666.0Q156.6 743.0 155 820.0"/>
    <path d="M160 50Q111.97 127.0 160 204.0Q217.59 281.0 160 358.0Q107.39 435.0 160 512.0Q149.02 589.0 160 666.0Q167.25 743.0 160 820.0"/>
    <path d="M165 50Q116.22 127.0 165 204.0Q224.4 281.0 165 358.0Q111.13 435.0 165 512.0Q148.24 589.0 165 666.0Q177.62 743.0 165 820.0"/>
    <path d="M170 50Q120.52 127.0 170 204.0Q231.08 281.0 170 358.0Q114.96 435.0 170 512.0Q147.9 589.0 170 666.0Q187.57 743.0 170 820.0"/>
    <path d="M175 50Q124.9 127.0 175 204.0Q237.57 281.0 175 358.0Q118.93 435.0 175 512.0Q148.15 589.0 175 666.0Q196.99 743.0 175 820.0"/>
    <path d="M180 50Q129.37 127.0 180 204.0Q243.84 281.0 180 358.0Q123.04 435.0 180 512.0Q149.08 589.0 180 666.0Q205.77 743.0 180 820.0"/>
    <path d="M185 50Q133.94 127.0 185 204.0Q249.87 281.0 185 358.0Q127.33 435.0 185 512.0Q150.81 589.0 185 666.0Q213.8 743.0 185 820.0"/>
    <path d="M190 50Q138.63 127.0 190 204.0Q255.62 281.0 190 358.0Q131.8 435.0 190 512.0Q153.42 589.0 190 666.0Q221.03 743.0 190 820.0"/>
    <path d="M195 50Q143.44 127.0 195 204.0Q261.08 281.0 195 358.0Q136.49 435.0 195 512.0Q156.96 589.0 195 666.0Q227.38 743.0 195 820.0"/>
    <path d="M200 50Q148.38 127.0 200 204.0Q266.23 281.0 200 358.0Q141.38 435.0 200 512.0Q161.47 589.0 200 666.0Q232.84 743.0 200 820.0"/>
    <path d="M205 50Q153.38 127.0 205 204.0Q271.23 281.0 205 358.0Q146.38 435.0 205 512.0Q166.47 589.0 205 666.0Q237.84 743.0 205 820.0"/>
    <path d="M210 50Q158.18 127.0 210 204.0Q276.01 281.0 210 358.0Q152.23 435.0 210 512.0Q171.71 589.0 210 666.0Q242.3 743.0 210 820.0"/>
    <path d="M215 50Q162.57 127.0 215 204.0Q280.34 281.0 215 358.0Q159.75 435.0 215 512.0Q177.43 589.0 215 666.0Q245.69 743.0 215 820.0"/>
    <path d="M220 50Q166.59 127.0 220 204.0Q284.26 281.0 220 358.0Q168.88 435.0 220 512.0Q183.62 589.0 220 666.0Q248.06 743.0 220 820.0"/>
    <path d="M225 50Q170.24 127.0 225 204.0Q287.77 281.0 225 358.0Q179.52 435.0 225 512.0Q190.24 589.0 225 666.0Q249.46 743.0 225 820.0"/>
    <path d="M230 50Q173.57 127.0 230 204.0Q290.93 281.0 230 358.0Q191.53 435.0 230 512.0Q197.25 589.0 230 666.0Q249.99 743.0 230 820.0"/>
    <path d="M235 50Q176.61 127.0 235 204.0Q293.77 281.0 235 358.0Q204.74 435.0 235 512.0Q204.61 589.0 235 666.0Q249.76 743.0 235 820.0"/>
    <path d="M240 50Q179.41 127.0 240 204.0Q296.35 281.0 240 358.0Q218.95 435.0 240 512.0Q212.25 589.0 240 666.0Q248.89 743.0 240 820.0"/>
    <path d="M245 50Q182.03 127.0 245 204.0Q298.73 281.0 245 358.0Q233.92 435.0 245 512.0Q220.11 589.0 245 666.0Q247.54 743.0 245 820.0"/>
    <path d="M250 50Q184.53 127.0 250 204.0Q300.96 281.0 250 358.0Q249.42 435.0 250 512.0Q228.12 589.0 250 666.0Q245.84 743.0 250 820.0"/>
    <path d="M255 50Q186.96 127.0 255 204.0Q303.13 281.0 255 358.0Q265.19 435.0 255 512.0Q236.21 589.0 255 666.0Q243.98 743.0 255 820.0"/>
    <path d="M260 50Q189.39 127.0 260 204.0Q305.3 281.0 260 358.0Q280.95 435.0 260 512.0Q244.3 589.0 260 666.0Q242.12 743.0 260 820.0"/>
    <path d="M265 50Q191.89 127.0 265 204.0Q307.54 281.0 265 358.0Q296.45 435.0 265 512.0Q252.32 589.0 265 666.0Q240.43 743.0 265 820.0"/>
    <path d="M270 50Q194.51 127.0 270 204.0Q309.92 281.0 270 358.0Q311.43 435.0 270 512.0Q260.18 589.0 270 666.0Q239.07 743.0 270 820.0"/>
    <path d="M275 50Q197.31 127.0 275 204.0Q312.5 281.0 275 358.0Q325.63 435.0 275 512.0Q267.82 589.0 275 666.0Q238.2 743.0 275 820.0"/>
    <path d="M280 50Q200.35 127.0 280 204.0Q315.34 281.0 280 358.0Q338.84 435.0 280 512.0Q275.18 589.0 280 666.0Q237.97 743.0 280 820.0"/>
    <path d="M285 50Q203.68 127.0 285 204.0Q318.49 281.0 285 358.0Q350.85 435.0 285 512.0Q282.19 589.0 285 666.0Q238.5 743.0 285 820.0"/>
    <path d="M290 50Q207.34 127.0 290 204.0Q322.01 281.0 290 358.0Q361.5 435.0 290 512.0Q288.81 589.0 290 666.0Q239.91 743.0 290 820.0"/>
    <path d="M295 50Q211.35 127.0 295 204.0Q325.92 281.0 295 358.0Q370.63 435.0 295 512.0Q295.0 589.0 295 666.0Q242.27 743.0 295 820.0"/>
    <path d="M300 50Q215.75 127.0 300 204.0Q330.26 281.0 300 358.0Q378.15 435.0 300 512.0Q300.72 589.0 300 666.0Q245.66 743.0 300 820.0"/>
    <path d="M305 50Q220.55 127.0 305 204.0Q335.04 281.0 305 358.0Q384.0 435.0 305 512.0Q305.96 589.0 305 666.0Q250.13 743.0 305 820.0"/>
    <path d="M310 50Q225.55 127.0 310 204.0Q340.04 281.0 310 358.0Q389.0 435.0 310 512.0Q310.96 589.0 310 666.0Q255.13 743.0 310 820.0"/>
    <path d="M315 50Q231.1 127.0 315 204.0Q345.18 281.0 315 358.0Q393.9 435.0 315 512.0Q316.12 589.0 315 666.0Q260.71 743.0 315 820.0"/>
    <path d="M320 50Q237.74 127.0 320 204.0Q350.59 281.0 320 358.0Q398.63 435.0 320 512.0Q321.59 589.0 320 666.0Q267.45 743.0 320 820.0"/>
    <path d="M325 50Q245.43 127.0 325 204.0Q356.27 281.0 325 358.0Q403.17 435.0 325 512.0Q327.36 589.0 325 666.0Q275.31 743.0 325 820.0"/>
    <path d="M330 50Q254.11 127.0 330 204.0Q362.19 281.0 330 358.0Q407.55 435.0 330 512.0Q333.42 589.0 330 666.0Q284.2 743.0 330 820.0"/>
    <path d="M335 50Q263.68 127.0 335 204.0Q368.34 281.0 335 358.0Q411.78 435.0 335 512.0Q339.73 589.0 335 666.0Q294.05 743.0 335 820.0"/>
    <path d="M340 50Q274.03 127.0 340 204.0Q374.69 281.0 340 358.0Q415.88 435.0 340 512.0Q346.26 589.0 340 666.0Q304.72 743.0 340 820.0"/>
    <path d="M345 50Q285.03 127.0 345 204.0Q381.2 281.0 345 358.0Q419.87 435.0 345 512.0Q352.98 589.0 345 666.0Q316.08 743.0 345 820.0"/>
    <path d="M350 50Q296.53 127.0 350 204.0Q387.83 281.0 350 358.0Q423.78 435.0 350 512.0Q359.84 589.0 350 666.0Q327.98 743.0 350 820.0"/>
    <path d="M355 50Q308.37 127.0 355 204.0Q394.55 281.0 355 358.0Q427.63 435.0 355 512.0Q366.8 589.0 355 666.0Q340.23 743.0 355 820.0"/>
    <path d="M360 50Q320.38 127.0 360 204.0Q401.32 281.0 360 358.0Q431.45 435.0 360 512.0Q373.81 589.0 360 666.0Q352.67 743.0 360 820.0"/>
    <path d="M365 50Q332.39 127.0 365 204.0Q408.08 281.0 365 358.0Q435.27 435.0 365 512.0Q380.82 589.0 365 666.0Q365.11 743.0 365 820.0"/>
    <path d="M370 50Q344.23 127.0 370 204.0Q414.8 281.0 370 358.0Q439.11 435.0 370 512.0Q387.78 589.0 370 666.0Q377.36 743.0 370 820.0"/>
    <path d="M375 50Q355.73 127.0 375 204.0Q421.44 281.0 375 358.0Q443.02 435.0 375 512.0Q394.65 589.0 375 666.0Q389.25 743.0 375 820.0"/>
    <path d="M380 50Q366.73 127.0 380 204.0Q427.95 281.0 380 358.0Q447.01 435.0 380 512.0Q401.36 589.0 380 666.0Q400.61 743.0 380 820.0"/>
    <path d="M385 50Q377.08 127.0 385 204.0Q434.29 281.0 385 358.0Q451.11 435.0 385 512.0Q407.9 589.0 385 666.0Q411.29 743.0 385 820.0"/>
    <path d="M390 50Q386.65 127.0 390 204.0Q440.44 281.0 390 358.0Q455.34 435.0 390 512.0Q414.21 589.0 390 666.0Q421.13 743.0 390 820.0"/>
    <path d="M395 50Q395.33 127.0 395 204.0Q446.37 281.0 395 358.0Q459.72 435.0 395 512.0Q420.26 589.0 395 666.0Q430.03 743.0 395 820.0"/>
    <path d="M400 50Q403.02 127.0 400 204.0Q452.04 281.0 400 358.0Q464.27 435.0 400 512.0Q426.03 589.0 400 666.0Q437.88 743.0 400 820.0"/>
    <path d="M405 50Q409.66 127.0 405 204.0Q457.46 281.0 405 358.0Q468.99 435.0 405 512.0Q431.5 589.0 405 666.0Q444.63 743.0 405 820.0"/>
    <path d="M410 50Q415.21 127.0 410 204.0Q462.6 281.0 410 358.0Q473.9 435.0 410 512.0Q436.66 589.0 410 666.0Q450.21 743.0 410 820.0"/>
    <path d="M415 50Q420.21 127.0 415 204.0Q467.6 281.0 415 358.0Q478.9 435.0 415 512.0Q441.66 589.0 415 666.0Q455.21 743.0 415 820.0"/>
    <path d="M420 50Q425.41 127.0 420 204.0Q472.84 281.0 420 358.0Q483.64 435.0 420 512.0Q446.82 589.0 420 666.0Q460.28 743.0 420 820.0"/>
    <path d="M425 50Q431.01 127.0 425 204.0Q478.56 281.0 425 358.0Q487.88 435.0 425 512.0Q452.27 589.0 425 666.0Q465.47 743.0 425 820.0"/>
    <path d="M430 50Q436.99 127.0 430 204.0Q484.75 281.0 430 358.0Q491.62 435.0 430 512.0Q458.02 589.0 430 666.0Q470.79 743.0 430 820.0"/>
    <path d="M435 50Q443.32 127.0 435 204.0Q491.37 281.0 435 358.0Q494.91 435.0 435 512.0Q464.05 589.0 435 666.0Q476.23 743.0 435 820.0"/>
    <path d="M440 50Q449.98 127.0 440 204.0Q498.39 281.0 440 358.0Q497.79 435.0 440 512.0Q470.32 589.0 440 666.0Q481.78 743.0 440 820.0"/>
    <path d="M445 50Q456.92 127.0 445 204.0Q505.75 281.0 445 358.0Q500.3 435.0 445 512.0Q476.81 589.0 445 666.0Q487.42 743.0 445 820.0"/>
    <path d="M450 50Q464.09 127.0 450 204.0Q513.4 281.0 450 358.0Q502.51 435.0 450 512.0Q483.48 589.0 450 666.0Q493.13 743.0 450 820.0"/>
    <path d="M455 50Q471.45 127.0 455 204.0Q521.27 281.0 455 358.0Q504.48 435.0 455 512.0Q490.29 589.0 455 666.0Q498.91 743.0 455 820.0"/>
    <path d="M460 50Q478.93 127.0 460 204.0Q529.29 281.0 460 358.0Q506.3 435.0 460 512.0Q497.2 589.0 460 666.0Q504.73 743.0 460 820.0"/>
    <path d="M465 50Q486.47 127.0 465 204.0Q537.39 281.0 465 358.0Q508.04 435.0 465 512.0Q504.15 589.0 465 666.0Q510.56 743.0 465 820.0"/>
    <path d="M470 50Q494.02 127.0 470 204.0Q545.48 281.0 470 358.0Q509.77 435.0 470 512.0Q511.1 589.0 470 666.0Q516.4 743.0 470 820.0"/>
    <path d="M475 50Q501.5 127.0 475 204.0Q553.5 281.0 475 358.0Q511.59 435.0 475 512.0Q518.01 589.0 475 666.0Q522.22 743.0 475 820.0"/>
    <path d="M480 50Q508.86 127.0 480 204.0Q561.37 281.0 480 358.0Q513.57 435.0 480 512.0Q524.82 589.0 480 666.0Q527.99 743.0 480 820.0"/>
    <path d="M485 50Q516.03 127.0 485 204.0Q569.02 281.0 485 358.0Q515.77 435.0 485 512.0Q531.49 589.0 485 666.0Q533.71 743.0 485 820.0"/>
    <path d="M490 50Q522.97 127.0 490 204.0Q576.38 281.0 490 358.0Q518.29 435.0 490 512.0Q537.98 589.0 490 666.0Q539.35 743.0 490 820.0"/>
    <path d="M495 50Q529.63 127.0 495 204.0Q583.4 281.0 495 358.0Q521.16 435.0 495 512.0Q544.25 589.0 495 666.0Q544.89 743.0 495 820.0"/>
    <path d="M500 50Q535.96 127.0 500 204.0Q590.02 281.0 500 358.0Q524.45 435.0 500 512.0Q550.28 589.0 500 666.0Q550.33 743.0 500 820.0"/>
    <path d="M505 50Q541.94 127.0 505 204.0Q596.21 281.0 505 358.0Q528.2 435.0 505 512.0Q556.03 589.0 505 666.0Q555.65 743.0 505 820.0"/>
    <path d="M510 50Q547.54 127.0 510 204.0Q601.93 281.0 510 358.0Q532.43 435.0 510 512.0Q561.49 589.0 510 666.0Q560.85 743.0 510 820.0"/>
    <path d="M515 50Q552.74 127.0 515 204.0Q607.18 281.0 515 358.0Q537.18 435.0 515 512.0Q566.64 589.0 515 666.0Q565.92 743.0 515 820.0"/>
    <path d="M520 50Q557.74 127.0 520 204.0Q612.18 281.0 520 358.0Q542.18 435.0 520 512.0Q571.64 589.0 520 666.0Q570.92 743.0 520 820.0"/>
    <path d="M525 50Q562.73 127.0 525 204.0Q616.24 281.0 525 358.0Q546.72 435.0 525 512.0Q576.27 589.0 525 666.0Q575.42 743.0 525 820.0"/>
    <path d="M530 50Q567.71 127.0 530 204.0Q618.43 281.0 530 358.0Q550.36 435.0 530 512.0Q580.16 589.0 530 666.0Q578.94 743.0 530 820.0"/>
    <path d="M535 50Q572.68 127.0 535 204.0Q618.84 281.0 535 358.0Q553.13 435.0 535 512.0Q583.35 589.0 535 666.0Q581.52 743.0 535 820.0"/>
    <path d="M540 50Q577.64 127.0 540 204.0Q617.58 281.0 540 358.0Q555.09 435.0 540 512.0Q585.87 589.0 540 666.0Q583.21 743.0 540 820.0"/>
    <path d="M545 50Q582.59 127.0 545 204.0Q614.78 281.0 545 358.0Q556.31 435.0 545 512.0Q587.79 589.0 545 666.0Q584.1 743.0 545 820.0"/>
    <path d="M550 50Q587.53 127.0 550 204.0Q610.66 281.0 550 358.0Q556.88 435.0 550 512.0Q589.19 589.0 550 666.0Q584.29 743.0 550 820.0"/>
    <path d="M555 50Q592.47 127.0 555 204.0Q605.43 281.0 555 358.0Q556.92 435.0 555 512.0Q590.15 589.0 555 666.0Q583.89 743.0 555 820.0"/>
    <path d="M560 50Q597.4 127.0 560 204.0Q599.35 281.0 560 358.0Q556.54 435.0 560 512.0Q590.77 589.0 560 666.0Q583.05 743.0 560 820.0"/>
    <path d="M565 50Q602.32 127.0 565 204.0Q592.69 281.0 565 358.0Q555.88 435.0 565 512.0Q591.16 589.0 565 666.0Q581.89 743.0 565 820.0"/>
    <path d="M570 50Q607.25 127.0 570 204.0Q585.73 281.0 570 358.0Q555.07 435.0 570 512.0Q591.44 589.0 570 666.0Q580.58 743.0 570 820.0"/>
    <path d="M575 50Q612.17 127.0 575 204.0Q578.77 281.0 575 358.0Q554.27 435.0 575 512.0Q591.71 589.0 575 666.0Q579.27 743.0 575 820.0"/>
    <path d="M580 50Q617.1 127.0 580 204.0Q572.1 281.0 580 358.0Q553.61 435.0 580 512.0Q592.1 589.0 580 666.0Q578.12 743.0 580 820.0"/>
    <path d="M585 50Q622.03 127.0 585 204.0Q566.02 281.0 585 358.0Q553.23 435.0 585 512.0Q592.72 589.0 585 666.0Q577.27 743.0 585 820.0"/>
    <path d="M590 50Q626.96 127.0 590 204.0Q560.79 281.0 590 358.0Q553.27 435.0 590 512.0Q593.68 589.0 590 666.0Q576.88 743.0 590 820.0"/>
    <path d="M595 50Q631.9 127.0 595 204.0Q556.67 281.0 595 358.0Q553.84 435.0 595 512.0Q595.08 589.0 595 666.0Q577.06 743.0 595 820.0"/>
    <path d="M600 50Q636.85 127.0 600 204.0Q553.88 281.0 600 358.0Q555.06 435.0 600 512.0Q597.0 589.0 600 666.0Q577.95 743.0 600 820.0"/>
    <path d="M605 50Q641.81 127.0 605 204.0Q552.61 281.0 605 358.0Q557.02 435.0 605 512.0Q599.53 589.0 605 666.0Q579.65 743.0 605 820.0"/>
    <path d="M610 50Q646.79 127.0 610 204.0Q553.02 281.0 610 358.0Q559.79 435.0 610 512.0Q602.71 589.0 610 666.0Q582.22 743.0 610 820.0"/>
    <path d="M615 50Q651.77 127.0 615 204.0Q555.22 281.0 615 358.0Q563.43 435.0 615 512.0Q606.61 589.0 615 666.0Q585.75 743.0 615 820.0"/>
    <path d="M620 50Q656.76 127.0 620 204.0Q559.27 281.0 620 358.0Q567.97 435.0 620 512.0Q611.23 589.0 620 666.0Q590.25 743.0 620 820.0"/>
    <path d="M625 50Q661.76 127.0 625 204.0Q564.27 281.0 625 358.0Q572.97 435.0 625 512.0Q616.23 589.0 625 666.0Q595.25 743.0 625 820.0"/>
    <path d="M630 50Q667.0 127.0 630 204.0Q569.5 281.0 630 358.0Q577.74 435.0 630 512.0Q621.62 589.0 630 666.0Q600.18 743.0 630 820.0"/>
    <path d="M635 50Q672.69 127.0 635 204.0Q575.17 281.0 635 358.0Q582.03 435.0 635 512.0Q627.77 589.0 635 666.0Q604.98 743.0 635 820.0"/>
    <path d="M640 50Q678.84 127.0 640 204.0Q581.28 281.0 640 358.0Q585.87 435.0 640 512.0Q634.65 589.0 640 666.0Q609.65 743.0 640 820.0"/>
    <path d="M645 50Q685.4 127.0 645 204.0Q587.78 281.0 645 358.0Q589.29 435.0 645 512.0Q642.22 589.0 645 666.0Q614.2 743.0 645 820.0"/>
    <path d="M650 50Q692.34 127.0 650 204.0Q594.65 281.0 650 358.0Q592.32 435.0 650 512.0Q650.41 589.0 650 666.0Q618.63 743.0 650 820.0"/>
    <path d="M655 50Q699.61 127.0 655 204.0Q601.84 281.0 655 358.0Q595.02 435.0 655 512.0Q659.15 589.0 655 666.0Q622.97 743.0 655 820.0"/>
    <path d="M660 50Q707.15 127.0 660 204.0Q609.3 281.0 660 358.0Q597.43 435.0 660 512.0Q668.35 589.0 660 666.0Q627.24 743.0 660 820.0"/>
    <path d="M665 50Q714.91 127.0 665 204.0Q616.96 281.0 665 358.0Q599.63 435.0 665 512.0Q677.89 589.0 665 666.0Q631.43 743.0 665 820.0"/>
    <path d="M670 50Q722.82 127.0 670 204.0Q624.76 281.0 670 358.0Q601.69 435.0 670 512.0Q687.67 589.0 670 666.0Q635.59 743.0 670 820.0"/>
    <path d="M675 50Q730.79 127.0 675 204.0Q632.63 281.0 675 358.0Q603.67 435.0 675 512.0Q697.58 589.0 675 666.0Q639.73 743.0 675 820.0"/>
    <path d="M680 50Q738.77 127.0 680 204.0Q640.5 281.0 680 358.0Q605.65 435.0 680 512.0Q707.48 589.0 680 666.0Q643.86 743.0 680 820.0"/>
    <path d="M685 50Q746.68 127.0 685 204.0Q648.3 281.0 685 358.0Q607.7 435.0 685 512.0Q717.26 589.0 685 666.0Q648.02 743.0 685 820.0"/>
    <path d="M690 50Q754.44 127.0 690 204.0Q655.97 281.0 690 358.0Q609.9 435.0 690 512.0Q726.81 589.0 690 666.0Q652.22 743.0 690 820.0"/>
    <path d="M695 50Q761.98 127.0 695 204.0Q663.42 281.0 695 358.0Q612.32 435.0 695 512.0Q736.0 589.0 695 666.0Q656.48 743.0 695 820.0"/>
    <path d="M700 50Q769.25 127.0 700 204.0Q670.61 281.0 700 358.0Q615.01 435.0 700 512.0Q744.74 589.0 700 666.0Q660.82 743.0 700 820.0"/>
    <path d="M705 50Q776.19 127.0 705 204.0Q677.48 281.0 705 358.0Q618.05 435.0 705 512.0Q752.93 589.0 705 666.0Q665.26 743.0 705 820.0"/>
    <path d="M710 50Q782.75 127.0 710 204.0Q683.99 281.0 710 358.0Q621.46 435.0 710 512.0Q760.5 589.0 710 666.0Q669.81 743.0 710 820.0"/>
    <path d="M715 50Q788.9 127.0 715 204.0Q690.09 281.0 715 358.0Q625.3 435.0 715 512.0Q767.38 589.0 715 666.0Q674.48 743.0 715 820.0"/>
    <path d="M720 50Q794.59 127.0 720 204.0Q695.76 281.0 720 358.0Q629.6 435.0 720 512.0Q773.53 589.0 720 666.0Q679.27 743.0 720 820.0"/>
    <path d="M725 50Q799.83 127.0 725 204.0Q700.99 281.0 725 358.0Q634.36 435.0 725 512.0Q778.92 589.0 725 666.0Q684.2 743.0 725 820.0"/>
    <path d="M730 50Q804.83 127.0 730 204.0Q705.99 281.0 730 358.0Q639.36 435.0 730 512.0Q783.92 589.0 730 666.0Q689.2 743.0 730 820.0"/>
    <path d="M735 50Q809.72 127.0 735 204.0Q710.78 281.0 735 358.0Q645.14 435.0 735 512.0Q788.12 589.0 735 666.0Q694.26 743.0 735 820.0"/>
    <path d="M740 50Q814.39 127.0 740 204.0Q715.16 281.0 740 358.0Q652.47 435.0 740 512.0Q790.75 589.0 740 666.0Q699.41 743.0 740 820.0"/>
    <path d="M745 50Q818.86 127.0 745 204.0Q719.14 281.0 745 358.0Q661.3 435.0 745 512.0Q791.86 589.0 745 666.0Q704.66 743.0 745 820.0"/>
    <path d="M750 50Q823.14 127.0 750 204.0Q722.75 281.0 750 358.0Q671.51 435.0 750 512.0Q791.55 589.0 750 666.0Q709.99 743.0 750 820.0"/>
    <path d="M755 50Q827.24 127.0 755 204.0Q726.02 281.0 755 358.0Q683.0 435.0 755 512.0Q789.95 589.0 755 666.0Q715.41 743.0 755 820.0"/>
    <path d="M760 50Q831.18 127.0 760 204.0Q729.0 281.0 760 358.0Q695.6 435.0 760 512.0Q787.22 589.0 760 666.0Q720.91 743.0 760 820.0"/>
    <path d="M765 50Q835.0 127.0 765 204.0Q731.73 281.0 765 358.0Q709.11 435.0 765 512.0Q783.55 589.0 765 666.0Q726.46 743.0 765 820.0"/>
    <path d="M770 50Q838.71 127.0 770 204.0Q734.27 281.0 770 358.0Q723.34 435.0 770 512.0Q779.16 589.0 770 666.0Q732.06 743.0 770 820.0"/>
    <path d="M775 50Q842.36 127.0 775 204.0Q736.69 281.0 775 358.0Q738.05 435.0 775 512.0Q774.28 589.0 775 666.0Q737.69 743.0 775 820.0"/>
    <path d="M780 50Q845.98 127.0 780 204.0Q739.04 281.0 780 358.0Q753.0 435.0 780 512.0Q769.14 589.0 780 666.0Q743.34 743.0 780 820.0"/>
    <path d="M785 50Q849.59 127.0 785 204.0Q741.38 281.0 785 358.0Q767.96 435.0 785 512.0Q764.01 589.0 785 666.0Q748.98 743.0 785 820.0"/>
    <path d="M790 50Q853.24 127.0 790 204.0Q743.8 281.0 790 358.0Q782.67 435.0 790 512.0Q759.12 589.0 790 666.0Q754.61 743.0 790 820.0"/>
    <path d="M795 50Q856.96 127.0 795 204.0Q746.34 281.0 795 358.0Q796.9 435.0 795 512.0Q754.73 589.0 795 666.0Q760.21 743.0 795 820.0"/>
    <path d="M800 50Q860.77 127.0 800 204.0Q749.07 281.0 800 358.0Q810.41 435.0 800 512.0Q751.07 589.0 800 666.0Q765.76 743.0 800 820.0"/>
    <path d="M805 50Q864.72 127.0 805 204.0Q752.05 281.0 805 358.0Q823.01 435.0 805 512.0Q748.34 589.0 805 666.0Q771.26 743.0 805 820.0"/>
    <path d="M810 50Q868.82 127.0 810 204.0Q755.32 281.0 810 358.0Q834.49 435.0 810 512.0Q746.74 589.0 810 666.0Q776.68 743.0 810 820.0"/>
    <path d="M815 50Q873.09 127.0 815 204.0Q758.93 281.0 815 358.0Q844.71 435.0 815 512.0Q746.43 589.0 815 666.0Q782.02 743.0 815 820.0"/>
    <path d="M820 50Q877.56 127.0 820 204.0Q762.91 281.0 820 358.0Q853.53 435.0 820 512.0Q747.54 589.0 820 666.0Q787.26 743.0 820 820.0"/>
    <path d="M825 50Q882.23 127.0 825 204.0Q767.29 281.0 825 358.0Q860.86 435.0 825 512.0Q750.16 589.0 825 666.0Q792.42 743.0 825 820.0"/>
    <path d="M830 50Q887.13 127.0 830 204.0Q772.08 281.0 830 358.0Q866.65 435.0 830 512.0Q754.37 589.0 830 666.0Q797.47 743.0 830 820.0"/>
    <path d="M835 50Q892.13 127.0 835 204.0Q777.08 281.0 835 358.0Q871.65 435.0 835 512.0Q759.37 589.0 835 666.0Q802.47 743.0 835 820.0"/>
    <path d="M840 50Q896.94 127.0 840 204.0Q782.06 281.0 840 358.0Q876.26 435.0 840 512.0Q764.66 589.0 840 666.0Q807.61 743.0 840 820.0"/>
    <path d="M845 50Q901.37 127.0 845 204.0Q786.99 281.0 845 358.0Q880.1 435.0 845 512.0Q770.52 589.0 845 666.0Q813.02 743.0 845 820.0"/>
    <path d="M850 50Q905.45 127.0 850 204.0Q791.87 281.0 850 358.0Q883.19 435.0 850 512.0Q776.93 589.0 850 666.0Q818.71 743.0 850 820.0"/>
    <path d="M855 50Q909.18 127.0 855 204.0Q796.71 281.0 855 358.0Q885.59 435.0 855 512.0Q783.87 589.0 855 666.0Q824.64 743.0 855 820.0"/>
    <path d="M860 50Q912.61 127.0 860 204.0Q801.51 281.0 860 358.0Q887.36 435.0 860 512.0Q791.27 589.0 860 666.0Q830.8 743.0 860 820.0"/>
    <path d="M865 50Q915.77 127.0 865 204.0Q806.28 281.0 865 358.0Q888.58 435.0 865 512.0Q799.08 589.0 865 666.0Q837.16 743.0 865 820.0"/>
    <path d="M870 50Q918.71 127.0 870 204.0Q811.02 281.0 870 358.0Q889.34 435.0 870 512.0Q807.23 589.0 870 666.0Q843.68 743.0 870 820.0"/>
    <path d="M875 50Q921.48 127.0 875 204.0Q815.74 281.0 875 358.0Q889.74 435.0 875 512.0Q815.65 589.0 875 666.0Q850.34 743.0 875 820.0"/>
    <path d="M880 50Q924.13 127.0 880 204.0Q820.44 281.0 880 358.0Q889.91 435.0 880 512.0Q824.25 589.0 880 666.0Q857.07 743.0 880 820.0"/>
    <path d="M885 50Q926.72 127.0 885 204.0Q825.14 281.0 885 358.0Q889.95 435.0 885 512.0Q832.94 589.0 885 666.0Q863.85 743.0 885 820.0"/>
    <path d="M890 50Q929.31 127.0 890 204.0Q829.83 281.0 890 358.0Q889.99 435.0 890 512.0Q841.62 589.0 890 666.0Q870.64 743.0 890 820.0"/>
    <path d="M895 50Q931.95 127.0 895 204.0Q834.54 281.0 895 358.0Q890.15 435.0 895 512.0Q850.22 589.0 895 666.0Q877.37 743.0 895 820.0"/>
    <path d="M900 50Q934.72 127.0 900 204.0Q839.25 281.0 900 358.0Q890.55 435.0 900 512.0Q858.64 589.0 900 666.0Q884.03 743.0 900 820.0"/>
    <path d="M905 50Q937.66 127.0 905 204.0Q843.99 281.0 905 358.0Q891.31 435.0 905 512.0Q866.79 589.0 905 666.0Q890.55 743.0 905 820.0"/>
    <path d="M910 50Q940.82 127.0 910 204.0Q848.76 281.0 910 358.0Q892.53 435.0 910 512.0Q874.6 589.0 910 666.0Q896.91 743.0 910 820.0"/>
    <path d="M915 50Q944.25 127.0 915 204.0Q853.56 281.0 915 358.0Q894.3 435.0 915 512.0Q882.0 589.0 915 666.0Q903.07 743.0 915 820.0"/>
    <path d="M920 50Q947.99 127.0 920 204.0Q858.4 281.0 920 358.0Q896.7 435.0 920 512.0Q888.94 589.0 920 666.0Q909.0 743.0 920 820.0"/>
    <path d="M925 50Q952.06 127.0 925 204.0Q863.29 281.0 925 358.0Q899.8 435.0 925 512.0Q895.35 589.0 925 666.0Q914.69 743.0 925 820.0"/>
    <path d="M930 50Q956.5 127.0 930 204.0Q868.22 281.0 930 358.0Q903.63 435.0 930 512.0Q901.22 589.0 930 666.0Q920.1 743.0 930 820.0"/>
    <path d="M935 50Q961.31 127.0 935 204.0Q873.19 281.0 935 358.0Q908.24 435.0 935 512.0Q906.51 589.0 935 666.0Q925.24 743.0 935 820.0"/>
    <path d="M940 50Q966.31 127.0 940 204.0Q878.19 281.0 940 358.0Q913.24 435.0 940 512.0Q911.51 589.0 940 666.0Q930.24 743.0 940 820.0"/>
    <path d="M945 50Q970.66 127.0 945 204.0Q884.06 281.0 945 358.0Q917.92 435.0 945 512.0Q917.17 589.0 945 666.0Q934.81 743.0 945 820.0"/>
    <path d="M950 50Q973.72 127.0 950 204.0Q891.65 281.0 950 358.0Q921.96 435.0 950 512.0Q924.15 589.0 950 666.0Q938.54 743.0 950 820.0"/>
    <path d="M955 50Q975.55 127.0 955 204.0Q900.89 281.0 955 358.0Q925.37 435.0 955 512.0Q932.39 589.0 955 666.0Q941.45 743.0 955 820.0"/>
    <path d="M960 50Q976.21 127.0 960 204.0Q911.68 281.0 960 358.0Q928.22 435.0 960 512.0Q941.81 589.0 960 666.0Q943.59 743.0 960 820.0"/>
    <path d="M965 50Q975.82 127.0 965 204.0Q923.87 281.0 965 358.0Q930.53 435.0 965 512.0Q952.31 589.0 965 666.0Q945.04 743.0 965 820.0"/>
    <path d="M970 50Q974.52 127.0 970 204.0Q937.3 281.0 970 358.0Q932.39 435.0 970 512.0Q963.75 589.0 970 666.0Q945.89 743.0 970 820.0"/>
    <path d="M975 50Q972.44 127.0 975 204.0Q951.75 281.0 975 358.0Q933.87 435.0 975 512.0Q975.97 589.0 975 666.0Q946.23 743.0 975 820.0"/>
    <path d="M980 50Q969.78 127.0 980 204.0Q966.99 281.0 980 358.0Q935.05 435.0 980 512.0Q988.79 589.0 980 666.0Q946.18 743.0 980 820.0"/>
    <path d="M985 50Q966.71 127.0 985 204.0Q982.76 281.0 985 358.0Q936.03 435.0 985 512.0Q1002.02 589.0 985 666.0Q945.86 743.0 985 820.0"/>
    <path d="M990 50Q963.44 127.0 990 204.0Q998.81 281.0 990 358.0Q936.91 435.0 990 512.0Q1015.46 589.0 990 666.0Q945.41 743.0 990 820.0"/>
    <path d="M995 50Q960.17 127.0 995 204.0Q1014.85 281.0 995 358.0Q937.79 435.0 995 512.0Q1028.9 589.0 995 666.0Q944.96 743.0 995 820.0"/>
    <path d="M1000 50Q957.11 127.0 1000 204.0Q1030.63 281.0 1000 358.0Q938.78 435.0 1000 512.0Q1042.14 589.0 1000 666.0Q944.65 743.0 1000 820.0"/>
    <path d="M1005 50Q954.44 127.0 1005 204.0Q1045.86 281.0 1005 358.0Q939.96 435.0 1005 512.0Q1054.96 589.0 1005 666.0Q944.6 743.0 1005 820.0"/>
    <path d="M1010 50Q952.37 127.0 1010 204.0Q1060.31 281.0 1010 358.0Q941.43 435.0 1010 512.0Q1067.18 589.0 1010 666.0Q944.94 743.0 1010 820.0"/>
    <path d="M1015 50Q951.06 127.0 1015 204.0Q1073.74 281.0 1015 358.0Q943.29 435.0 1015 512.0Q1078.62 589.0 1015 666.0Q945.78 743.0 1015 820.0"/>
    <path d="M1020 50Q950.68 127.0 1020 204.0Q1085.93 281.0 1020 358.0Q945.61 435.0 1020 512.0Q1089.11 589.0 1020 666.0Q947.23 743.0 1020 820.0"/>
    <path d="M1025 50Q951.34 127.0 1025 204.0Q1096.72 281.0 1025 358.0Q948.45 435.0 1025 512.0Q1098.54 589.0 1025 666.0Q949.38 743.0 1025 820.0"/>
    <path d="M1030 50Q953.17 127.0 1030 204.0Q1105.96 281.0 1030 358.0Q951.87 435.0 1030 512.0Q1106.78 589.0 1030 666.0Q952.29 743.0 1030 820.0"/>
    <path d="M1035 50Q956.23 127.0 1035 204.0Q1113.55 281.0 1035 358.0Q955.9 435.0 1035 512.0Q1113.76 589.0 1035 666.0Q956.01 743.0 1035 820.0"/>
    <path d="M1040 50Q960.58 127.0 1040 204.0Q1119.42 281.0 1040 358.0Q960.58 435.0 1040 512.0Q1119.42 589.0 1040 666.0Q960.58 743.0 1040 820.0"/>
  </g>
</svg>
