<svg version="1.1" width="1150" height="870" xmlns="http://www.w3.org/2000/svg">
  <!-- Seed: 5073394988251132968 -->
  <g stroke="black" fill="none">
    <g stroke="blue">
      <circle cx="138.0" cy="408.0" r="5"/>
      <circle cx="132.27050983124843" cy="425.6335575687742" r="5"/>
      <circle cx="117.27050983124842" cy="436.5316954888546" r="5"/>
      <circle cx="98.72949016875158" cy="436.5316954888546" r="5"/>
      <circle cx="83.72949016875158" cy="425.6335575687742" r="5"/>
      <circle cx="78.0" cy="408.0" r="5"/>
      <circle cx="83.72949016875157" cy="390.36644243122583" r="5"/>
      <circle cx="98.72949016875157" cy="379.4683045111454" r="5"/>
      <circle cx="117.27050983124842" cy="379.4683045111454" r="5"/>
      <circle cx="132.27050983124843" cy="390.3664424312258" r="5"/>
      <path d="M 1011.0 475.0 L1011.0 485.0"/>
      <path d="M 1028.6335575687742 469.27050983124843 L1034.511410091699 477.3606797749979"/>
      <path d="M 1039.5316954888547 454.27050983124843 L1049.0422606518061 457.3606797749979"/>
      <path d="M 1039.5316954888547 435.72949016875157 L1049.0422606518061 432.6393202250021"/>
      <path d="M 1028.6335575687742 420.72949016875157 L1034.511410091699 412.6393202250021"/>
      <path d="M 1011.0 415.0 L1011.0 405.0"/>
      <path d="M 993.3664424312258 420.72949016875157 L987.488589908301 412.6393202250021"/>
      <path d="M 982.4683045111454 435.72949016875157 L972.957739348194 432.6393202250021"/>
      <path d="M 982.4683045111453 454.27050983124843 L972.9577393481939 457.3606797749979"/>
      <path d="M 993.3664424312258 469.27050983124843 L987.488589908301 477.3606797749979"/>
      <circle cx="634.0" cy="222.0" r="49.22"/>
      <circle cx="455.0" cy="353.0" r="57.82"/>
      <circle cx="455.0" cy="353.0" r="67.82"/>
      <circle cx="725.0" cy="388.0" r="52.75"/>
      <circle cx="725.0" cy="388.0" r="62.75"/>
      <g transform="translate(707.83,222.0) scale(0.5,0.5)">
        <path d="M0 0h12.5q12.5 0 12.5 -12.5q0 -12.5 -12.5 -12.5h-6.25m6.25 0q12.5 0 12.5 -12.5q0 -12.5 -12.5 -12.5h-12.5"/>
        <path d="M35.0 0h12.5q12.5 0 12.5 -12.5q0 -12.5 -12.5 -12.5h-6.25m6.25 0q12.5 0 12.5 -12.5q0 -12.5 -12.5 -12.5h-12.5"/>
        <path d="M95.0 -50h-12.5q-12.5 0 -12.5 12.5v25.0q0 12.5 12.5 12.5q12.5 0 12.5 -12.5q0 -12.5 -12.5 -12.5h-12.5"/>
        <path d="M105.0 0h12.5q12.5 0 12.5 -12.5q0 -12.5 -12.5 -12.5h-6.25m6.25 0q12.5 0 12.5 -12.5q0 -12.5 -12.5 -12.5h-12.5"/>
        <path d="M140.0 0h25.0m-12.5 0v-50l-12.5 12.5"/>
      </g>
      <g transform="translate(541.73,353.0) scale(0.5,0.5)">
        <path d="M0 0h12.5q12.5 0 12.5 -12.5q0 -12.5 -12.5 -12.5h-6.25m6.25 0q12.5 0 12.5 -12.5q0 -12.5 -12.5 -12.5h-12.5"/>
        <path d="M60.0 0h-25.0v-12.5q0 -12.5 12.5 -12.5q12.5 0 12.5 -12.5q0 -12.5 -12.5 -12.5q-12.5 0 -12.5 12.5"/>
        <path d="M70.0 -50h25.0l-25.0 50"/>
        <path d="M105.0 -50v25.0h25.0m0 25.0v-50"/>
        <path d="M165.0 -50h-12.5q-12.5 0 -12.5 12.5v25.0q0 12.5 12.5 12.5q12.5 0 12.5 -12.5q0 -12.5 -12.5 -12.5h-12.5"/>
      </g>
    </g>
  </g>
</svg>
