<svg version="1.1" width="1150" height="870" xmlns="http://www.w3.org/2000/svg">
  <!-- Seed: 8681189903756516533 -->
  <g stroke="black" fill="none">
    <g stroke="blue">
      <circle cx="190.0" cy="425.0" r="5"/>
      <circle cx="184.27050983124843" cy="442.6335575687742" r="5"/>
      <circle cx="169.27050983124843" cy="453.5316954888546" r="5"/>
      <circle cx="150.72949016875157" cy="453.5316954888546" r="5"/>
      <circle cx="135.72949016875157" cy="442.6335575687742" r="5"/>
      <circle cx="130.0" cy="425.0" r="5"/>
      <circle cx="135.72949016875157" cy="407.36644243122583" r="5"/>
      <circle cx="150.72949016875157" cy="396.4683045111454" r="5"/>
      <circle cx="169.2705098312484" cy="396.4683045111454" r="5"/>
      <circle cx="184.27050983124843" cy="407.3664424312258" r="5"/>
      <path d="M 982.0 520.0 L982.0 530.0"/>
      <path d="M 999.6335575687742 514.2705098312484 L1005.511410091699 522.360679774998"/>
      <path d="M 1010.5316954888546 499.27050983124843 L1020.042260651806 502.3606797749979"/>
      <path d="M 1010.5316954888547 480.72949016875157 L1020.0422606518061 477.6393202250021"/>
      <path d="M 999.6335575687742 465.72949016875157 L1005.511410091699 457.6393202250021"/>
      <path d="M 982.0 460.0 L982.0 450.0"/>
      <path d="M 964.3664424312258 465.72949016875157 L958.488589908301 457.6393202250021"/>
      <path d="M 953.4683045111454 480.72949016875157 L943.957739348194 477.6393202250021"/>
      <path d="M 953.4683045111453 499.27050983124843 L943.9577393481939 502.3606797749979"/>
      <path d="M 964.3664424312258 514.2705098312484 L958.488589908301 522.360679774998"/>
      <circle cx="788.0" cy="279.0" r="58.0"/>
      <path d="M 788.0 347.0 L788.0 357.0"/>
      <path d="M 809.0131556174964 343.67184310807045 L812.1033255612459 353.182408271022"/>
      <path d="M 827.9693971558881 334.0131556174964 L833.8472496788129 342.10332556124587"/>
      <path d="M 843.0131556174964 318.96939715588815 L851.1033255612459 324.8472496788129"/>
      <path d="M 852.6718431080704 300.0131556174964 L862.182408271022 303.10332556124587"/>
      <path d="M 856.0 279.0 L866.0 279.0"/>
      <path d="M 852.6718431080704 257.9868443825036 L862.182408271022 254.89667443875413"/>
      <path d="M 843.0131556174964 239.03060284411183 L851.1033255612459 233.15275032118709"/>
      <path d="M 827.9693971558881 223.9868443825036 L833.8472496788129 215.8966744387541"/>
      <path d="M 809.0131556174964 214.32815689192955 L812.1033255612459 204.81759172897802"/>
      <path d="M 788.0 211.0 L788.0 201.0"/>
      <path d="M 766.9868443825036 214.32815689192955 L763.8966744387541 204.81759172897802"/>
      <path d="M 748.0306028441119 223.9868443825036 L742.1527503211871 215.8966744387541"/>
      <path d="M 732.9868443825036 239.03060284411183 L724.8966744387541 233.15275032118709"/>
      <path d="M 723.3281568919296 257.9868443825036 L713.817591728978 254.89667443875413"/>
      <path d="M 720.0 279.0 L710.0 279.0"/>
      <path d="M 723.3281568919296 300.0131556174964 L713.817591728978 303.10332556124587"/>
      <path d="M 732.9868443825036 318.96939715588815 L724.8966744387541 324.8472496788129"/>
      <path d="M 748.0306028441119 334.0131556174964 L742.1527503211871 342.10332556124587"/>
      <path d="M 766.9868443825036 343.67184310807045 L763.8966744387541 353.182408271022"/>
      <path d="M 788.0 279.0 L753.0 640.0"/>
      <circle cx="753.0" cy="640.0" r="41.05"/>
      <circle cx="700.0" cy="457.0" r="71.67"/>
      <circle cx="290.0" cy="649.0" r="52.48"/>
      <g transform="translate(368.72,649.0) scale(0.5,0.5)">
        <path d="M0 -50h25.0l-25.0 50"/>
        <path d="M47.5 0q-12.5 0 -12.5 -12.5v-25.0q0 -12.5 12.5 -12.5q12.5 0 12.5 12.5v25.0q0 12.5 -12.5 12.5m-12.5 -12.5l25.0 -25.0"/>
        <path d="M82.5 0q-12.5 0 -12.5 -12.5v-25.0q0 -12.5 12.5 -12.5q12.5 0 12.5 12.5v25.0q0 12.5 -12.5 12.5m-12.5 -12.5l25.0 -25.0"/>
        <path d="M130.0 -50h-12.5q-12.5 0 -12.5 12.5v25.0q0 12.5 12.5 12.5q12.5 0 12.5 -12.5q0 -12.5 -12.5 -12.5h-12.5"/>
      </g>
    </g>
  </g>
</svg>
