<svg version="1.1" width="1150" height="870" xmlns="http://www.w3.org/2000/svg">
  <!-- Seed: 1336255967936472970 -->
  <g stroke="black" fill="none">
    <g stroke="blue">
      <circle cx="233.0" cy="461.0" r="5"/>
      <circle cx="227.27050983124843" cy="478.6335575687742" r="5"/>
      <circle cx="212.27050983124843" cy="489.5316954888546" r="5"/>
      <circle cx="193.72949016875157" cy="489.5316954888546" r="5"/>
      <circle cx="178.72949016875157" cy="478.6335575687742" r="5"/>
      <circle cx="173.0" cy="461.0" r="5"/>
      <circle cx="178.72949016875157" cy="443.36644243122583" r="5"/>
      <circle cx="193.72949016875157" cy="432.4683045111454" r="5"/>
      <circle cx="212.2705098312484" cy="432.4683045111454" r="5"/>
      <circle cx="227.27050983124843" cy="443.3664424312258" r="5"/>
      <path d="M 1016.0 454.0 L1016.0 464.0"/>
      <path d="M 1033.6335575687742 448.27050983124843 L1039.511410091699 456.3606797749979"/>
      <path d="M 1044.5316954888547 433.27050983124843 L1054.0422606518061 436.3606797749979"/>
      <path d="M 1044.5316954888547 414.72949016875157 L1054.0422606518061 411.6393202250021"/>
      <path d="M 1033.6335575687742 399.72949016875157 L1039.511410091699 391.6393202250021"/>
      <path d="M 1016.0 394.0 L1016.0 384.0"/>
      <path d="M 998.3664424312258 399.72949016875157 L992.488589908301 391.6393202250021"/>
      <path d="M 987.4683045111454 414.72949016875157 L977.957739348194 411.6393202250021"/>
      <path d="M 987.4683045111453 433.27050983124843 L977.9577393481939 436.3606797749979"/>
      <path d="M 998.3664424312258 448.27050983124843 L992.488589908301 456.3606797749979"/>
      <circle cx="526.0" cy="646.0" r="74.0"/>
      <circle cx="527.0" cy="390.0" r="27.02"/>
      <circle cx="746.0" cy="456.0" r="47.5"/>
      <circle cx="746.0" cy="456.0" r="57.5"/>
      <circle cx="336.0" cy="601.0" r="43.519999999999996"/>
      <path d="M 336.0 601.0 L614.0 114.0"/>
      <circle cx="614.0" cy="114.0" r="51.15"/>
      <path d="M 614.0 175.15 L614.0 185.15"/>
      <path d="M 632.8963892060281 172.15710597144863 L635.9865591497776 181.66767113440017"/>
      <path d="M 649.9430681776847 163.47138920602805 L655.8209207006095 171.56155914977754"/>
      <path d="M 663.471389206028 149.94306817768472 L671.5615591497775 155.82092070060946"/>
      <path d="M 672.1571059714487 132.89638920602803 L681.6676711344003 135.9865591497775"/>
      <path d="M 675.15 114.0 L685.15 114.0"/>
      <path d="M 672.1571059714487 95.10361079397197 L681.6676711344003 92.0134408502225"/>
      <path d="M 663.471389206028 78.05693182231528 L671.5615591497775 72.17907929939054"/>
      <path d="M 649.9430681776847 64.52861079397198 L655.8209207006095 56.438440850222506"/>
      <path d="M 632.8963892060281 55.84289402855136 L635.9865591497776 46.33232886559983"/>
      <path d="M 614.0 52.85 L614.0 42.85"/>
      <path d="M 595.1036107939719 55.84289402855136 L592.0134408502224 46.33232886559983"/>
      <path d="M 578.0569318223153 64.52861079397196 L572.1790792993905 56.43844085022249"/>
      <path d="M 564.528610793972 78.05693182231526 L556.4384408502225 72.17907929939052"/>
      <path d="M 555.8428940285513 95.10361079397195 L546.3323288655998 92.01344085022248"/>
      <path d="M 552.85 113.99999999999999 L542.85 113.99999999999999"/>
      <path d="M 555.8428940285513 132.89638920602803 L546.3323288655997 135.9865591497775"/>
      <path d="M 564.528610793972 149.94306817768472 L556.4384408502225 155.82092070060946"/>
      <path d="M 578.0569318223153 163.47138920602802 L572.1790792993905 171.5615591497775"/>
      <path d="M 595.1036107939719 172.15710597144863 L592.0134408502224 181.66767113440017"/>
    </g>
  </g>
</svg>
