<svg version="1.1" width="1630" height="1060" xmlns="http://www.w3.org/2000/svg">
  <!-- Seed: 2178464751640050325 -->
  <g stroke="black" fill="none">
    <circle cx="224.0" cy="505.0" r="5"/>
    <circle cx="218.27050983124843" cy="522.6335575687742" r="5"/>
    <circle cx="203.27050983124843" cy="533.5316954888546" r="5"/>
    <circle cx="184.72949016875157" cy="533.5316954888547" r="5"/>
    <circle cx="169.72949016875157" cy="522.6335575687742" r="5"/>
    <circle cx="164.0" cy="505.0" r="5"/>
    <circle cx="169.72949016875157" cy="487.36644243122583" r="5"/>
    <circle cx="184.72949016875157" cy="476.4683045111454" r="5"/>
    <circle cx="203.2705098312484" cy="476.4683045111454" r="5"/>
    <circle cx="218.27050983124843" cy="487.3664424312258" r="5"/>
    <circle cx="1469.0" cy="505.0" r="5"/>
    <circle cx="1463.2705098312483" cy="522.6335575687742" r="5"/>
    <circle cx="1448.2705098312483" cy="533.5316954888546" r="5"/>
    <circle cx="1429.7294901687517" cy="533.5316954888547" r="5"/>
    <circle cx="1414.7294901687517" cy="522.6335575687742" r="5"/>
    <circle cx="1409.0" cy="505.0" r="5"/>
    <circle cx="1414.7294901687517" cy="487.36644243122583" r="5"/>
    <circle cx="1429.7294901687517" cy="476.4683045111454" r="5"/>
    <circle cx="1448.2705098312483" cy="476.4683045111454" r="5"/>
    <circle cx="1463.2705098312483" cy="487.3664424312258" r="5"/>
    <circle cx="505.5" cy="169.0000000000001" r="50"/>
    <path d="M 505.5 229.0000000000001 L505.5 239.0000000000001"/>
    <path d="M 524.0410196624969 226.06339097770933 L527.1311896062464 235.57395614066087"/>
    <path d="M 540.7671151375484 217.54101966249698 L546.6449676604732 225.63118960624644"/>
    <path d="M 554.0410196624969 204.2671151375485 L562.1311896062464 210.14496766047324"/>
    <path d="M 562.5633909777092 187.54101966249695 L572.0739561406608 190.63118960624644"/>
    <path d="M 565.5 169.0000000000001 L575.5 169.0000000000001"/>
    <path d="M 562.5633909777092 150.45898033750328 L572.0739561406608 147.3688103937538"/>
    <path d="M 554.0410196624969 133.73288486245173 L562.1311896062464 127.855032339527"/>
    <path d="M 540.7671151375484 120.45898033750328 L546.6449676604732 112.3688103937538"/>
    <path d="M 524.0410196624969 111.9366090222909 L527.1311896062464 102.42604385933936"/>
    <path d="M 505.5 109.00000000000011 L505.5 99.00000000000011"/>
    <path d="M 486.95898033750314 111.9366090222909 L483.8688103937537 102.42604385933936"/>
    <path d="M 470.2328848624516 120.45898033750326 L464.3550323395269 112.36881039375379"/>
    <path d="M 456.95898033750314 133.73288486245173 L448.8688103937537 127.855032339527"/>
    <path d="M 448.4366090222908 150.45898033750325 L438.92604385933925 147.36881039375376"/>
    <path d="M 445.5 169.0000000000001 L435.5 169.0000000000001"/>
    <path d="M 448.4366090222908 187.54101966249695 L438.92604385933925 190.63118960624644"/>
    <path d="M 456.95898033750314 204.2671151375485 L448.8688103937537 210.14496766047324"/>
    <path d="M 470.2328848624516 217.54101966249695 L464.3550323395269 225.63118960624644"/>
    <path d="M 486.95898033750314 226.06339097770933 L483.8688103937537 235.57395614066087"/>
    <circle cx="511.0" cy="578.5" r="50"/>
    <circle cx="604.2" cy="758.0" r="50"/>
    <path d="M 604.2 818.0 L604.2 828.0"/>
    <path d="M 622.7410196624969 815.0633909777092 L625.8311896062464 824.5739561406607"/>
    <path d="M 639.4671151375485 806.5410196624969 L645.3449676604732 814.6311896062464"/>
    <path d="M 652.7410196624969 793.2671151375484 L660.8311896062464 799.1449676604732"/>
    <path d="M 661.2633909777093 776.5410196624969 L670.7739561406607 779.6311896062464"/>
    <path d="M 664.2 758.0 L674.2 758.0"/>
    <path d="M 661.2633909777093 739.4589803375031 L670.7739561406607 736.3688103937536"/>
    <path d="M 652.7410196624969 722.7328848624517 L660.8311896062464 716.8550323395269"/>
    <path d="M 639.4671151375485 709.4589803375031 L645.3449676604732 701.3688103937536"/>
    <path d="M 622.7410196624969 700.9366090222908 L625.8311896062464 691.4260438593393"/>
    <path d="M 604.2 698.0 L604.2 688.0"/>
    <path d="M 585.6589803375032 700.9366090222908 L582.5688103937537 691.4260438593393"/>
    <path d="M 568.9328848624517 709.4589803375031 L563.055032339527 701.3688103937536"/>
    <path d="M 555.6589803375032 722.7328848624516 L547.5688103937537 716.8550323395268"/>
    <path d="M 547.1366090222908 739.4589803375031 L537.6260438593393 736.3688103937536"/>
    <path d="M 544.2 758.0 L534.2 758.0"/>
    <path d="M 547.1366090222908 776.5410196624969 L537.6260438593393 779.6311896062464"/>
    <path d="M 555.6589803375032 793.2671151375483 L547.5688103937537 799.1449676604731"/>
    <path d="M 568.9328848624516 806.5410196624969 L563.0550323395269 814.6311896062464"/>
    <path d="M 585.6589803375032 815.0633909777092 L582.5688103937537 824.5739561406607"/>
    <path d="M 604.2 758.0 L1210.875 709.75"/>
    <circle cx="1210.875" cy="709.75" r="50"/>
    <path d="M 1210.875 769.75 L1210.875 779.75"/>
    <path d="M 1229.4160196624969 766.8133909777092 L1232.5061896062464 776.3239561406607"/>
    <path d="M 1246.1421151375484 758.2910196624969 L1252.0199676604732 766.3811896062464"/>
    <path d="M 1259.4160196624969 745.0171151375484 L1267.5061896062464 750.8949676604732"/>
    <path d="M 1267.938390977709 728.2910196624969 L1277.4489561406606 731.3811896062464"/>
    <path d="M 1270.875 709.75 L1280.875 709.75"/>
    <path d="M 1267.9383909777093 691.2089803375031 L1277.4489561406608 688.1188103937536"/>
    <path d="M 1259.4160196624969 674.4828848624517 L1267.5061896062464 668.6050323395269"/>
    <path d="M 1246.1421151375484 661.2089803375031 L1252.0199676604732 653.1188103937536"/>
    <path d="M 1229.4160196624969 652.6866090222908 L1232.5061896062464 643.1760438593393"/>
    <path d="M 1210.875 649.75 L1210.875 639.75"/>
    <path d="M 1192.3339803375031 652.6866090222908 L1189.2438103937536 643.1760438593393"/>
    <path d="M 1175.6078848624516 661.2089803375031 L1169.7300323395268 653.1188103937536"/>
    <path d="M 1162.3339803375031 674.4828848624516 L1154.2438103937536 668.6050323395268"/>
    <path d="M 1153.811609022291 691.2089803375031 L1144.3010438593394 688.1188103937536"/>
    <path d="M 1150.875 709.75 L1140.875 709.75"/>
    <path d="M 1153.8116090222907 728.2910196624969 L1144.3010438593392 731.3811896062464"/>
    <path d="M 1162.3339803375031 745.0171151375483 L1154.2438103937536 750.8949676604731"/>
    <path d="M 1175.6078848624516 758.2910196624969 L1169.7300323395268 766.3811896062464"/>
    <path d="M 1192.3339803375031 766.8133909777092 L1189.2438103937536 776.3239561406607"/>
  </g>
</svg>
