<svg version="1.1" width="1150" height="870" xmlns="http://www.w3.org/2000/svg">
  <!-- Seed: 7378447963931342354 -->
  <g stroke="black" fill="none">
    <g stroke="blue">
      <circle cx="185.0" cy="443.0" r="5"/>
      <circle cx="179.27050983124843" cy="460.6335575687742" r="5"/>
      <circle cx="164.27050983124843" cy="471.5316954888546" r="5"/>
      <circle cx="145.72949016875157" cy="471.5316954888546" r="5"/>
      <circle cx="130.72949016875157" cy="460.6335575687742" r="5"/>
      <circle cx="125.0" cy="443.0" r="5"/>
      <circle cx="130.72949016875157" cy="425.36644243122583" r="5"/>
      <circle cx="145.72949016875157" cy="414.4683045111454" r="5"/>
      <circle cx="164.2705098312484" cy="414.4683045111454" r="5"/>
      <circle cx="179.27050983124843" cy="425.3664424312258" r="5"/>
      <path d="M935.0 530.0 L935.0 540.0"/>
      <path d="M952.63 524.27 L958.51 532.36"/>
      <path d="M963.53 509.27 L973.04 512.36"/>
      <path d="M963.53 490.73 L973.04 487.64"/>
      <path d="M952.63 475.73 L958.51 467.64"/>
      <path d="M935.0 470.0 L935.0 460.0"/>
      <path d="M917.37 475.73 L911.49 467.64"/>
      <path d="M906.47 490.73 L896.96 487.64"/>
      <path d="M906.47 509.27 L896.96 512.36"/>
      <path d="M917.37 524.27 L911.49 532.36"/>
      <circle cx="785.0" cy="523.0" r="49.81"/>
      <path d="M785.0 582.81 L785.0 592.81"/>
      <path d="M803.48 579.88 L806.57 589.39"/>
      <path d="M820.16 571.39 L826.04 579.48"/>
      <path d="M833.39 558.16 L841.48 564.04"/>
      <path d="M841.88 541.48 L851.39 544.57"/>
      <path d="M844.81 523.0 L854.81 523.0"/>
      <path d="M841.88 504.52 L851.39 501.43"/>
      <path d="M833.39 487.84 L841.48 481.96"/>
      <path d="M820.16 474.61 L826.04 466.52"/>
      <path d="M803.48 466.12 L806.57 456.61"/>
      <path d="M785.0 463.19 L785.0 453.19"/>
      <path d="M766.52 466.12 L763.43 456.61"/>
      <path d="M749.84 474.61 L743.96 466.52"/>
      <path d="M736.61 487.84 L728.52 481.96"/>
      <path d="M728.12 504.52 L718.61 501.43"/>
      <path d="M725.19 523.0 L715.19 523.0"/>
      <path d="M728.12 541.48 L718.61 544.57"/>
      <path d="M736.61 558.16 L728.52 564.04"/>
      <path d="M749.84 571.39 L743.96 579.48"/>
      <path d="M766.52 579.88 L763.43 589.39"/>
      <circle cx="713.0" cy="356.0" r="55.75"/>
      <path d="M713.0 421.75 L713.0 431.75"/>
      <path d="M733.32 418.53 L736.41 428.04"/>
      <path d="M751.65 409.19 L757.53 417.28"/>
      <path d="M766.19 394.65 L774.28 400.53"/>
      <path d="M775.53 376.32 L785.04 379.41"/>
      <path d="M778.75 356.0 L788.75 356.0"/>
      <path d="M775.53 335.68 L785.04 332.59"/>
      <path d="M766.19 317.35 L774.28 311.47"/>
      <path d="M751.65 302.81 L757.53 294.72"/>
      <path d="M733.32 293.47 L736.41 283.96"/>
      <path d="M713.0 290.25 L713.0 280.25"/>
      <path d="M692.68 293.47 L689.59 283.96"/>
      <path d="M674.35 302.81 L668.47 294.72"/>
      <path d="M659.81 317.35 L651.72 311.47"/>
      <path d="M650.47 335.68 L640.96 332.59"/>
      <path d="M647.25 356.0 L637.25 356.0"/>
      <path d="M650.47 376.32 L640.96 379.41"/>
      <path d="M659.81 394.65 L651.72 400.53"/>
      <path d="M674.35 409.19 L668.47 417.28"/>
      <path d="M692.68 418.53 L689.59 428.04"/>
      <path d="M 713.0 356.0 L596.0 446.0"/>
      <circle cx="596.0" cy="446.0" r="34.4"/>
      <circle cx="591.0" cy="593.0" r="51.61"/>
      <circle cx="469.0" cy="411.0" r="32.269999999999996"/>
      <g transform="translate(859.715,523.0) scale(0.5,0.5)">
        <path d="M25.0 0h-25.0v-12.5q0 -12.5 12.5 -12.5q12.5 0 12.5 -12.5q0 -12.5 -12.5 -12.5q-12.5 0 -12.5 12.5"/>
        <path d="M35.0 -50v25.0h25.0m0 25.0v-50"/>
        <path d="M70.0 0h12.5q12.5 0 12.5 -12.5q0 -12.5 -12.5 -12.5h-6.25m6.25 0q12.5 0 12.5 -12.5q0 -12.5 -12.5 -12.5h-12.5"/>
        <path d="M130.0 -50h-25.0v25.0h12.5q12.5 0 12.5 12.5q0 12.5 -12.5 12.5h-12.5"/>
        <path d="M165.0 -50h-25.0v25.0h12.5q12.5 0 12.5 12.5q0 12.5 -12.5 12.5h-12.5"/>
      </g>
      <g transform="translate(668.415,593.0) scale(0.5,0.5)">
        <path d="M0 0h12.5q12.5 0 12.5 -12.5q0 -12.5 -12.5 -12.5h-6.25m6.25 0q12.5 0 12.5 -12.5q0 -12.5 -12.5 -12.5h-12.5"/>
        <path d="M60.0 -50h-12.5q-12.5 0 -12.5 12.5v25.0q0 12.5 12.5 12.5q12.5 0 12.5 -12.5q0 -12.5 -12.5 -12.5h-12.5"/>
        <path d="M82.5 0q-12.5 0 -12.5 -12.5v-25.0q0 -12.5 12.5 -12.5q12.5 0 12.5 12.5v25.0q0 12.5 -12.5 12.5m-12.5 -12.5l25.0 -25.0"/>
        <path d="M105.0 -50v25.0h25.0m0 25.0v-50"/>
        <path d="M140.0 -50h25.0l-25.0 50"/>
      </g>
    </g>
  </g>
</svg>
