<svg version="1.1" width="1150" height="870" xmlns="http://www.w3.org/2000/svg">
  <!-- Seed: 1674469926862853286 -->
  <g stroke="black" fill="none">
    <circle cx="192.0" cy="483.0" r="5"/>
    <circle cx="186.27050983124843" cy="500.6335575687742" r="5"/>
    <circle cx="171.27050983124843" cy="511.5316954888546" r="5"/>
    <circle cx="152.72949016875157" cy="511.5316954888546" r="5"/>
    <circle cx="137.72949016875157" cy="500.6335575687742" r="5"/>
    <circle cx="132.0" cy="483.0" r="5"/>
    <circle cx="137.72949016875157" cy="465.36644243122583" r="5"/>
    <circle cx="152.72949016875157" cy="454.4683045111454" r="5"/>
    <circle cx="171.2705098312484" cy="454.4683045111454" r="5"/>
    <circle cx="186.27050983124843" cy="465.3664424312258" r="5"/>
    <circle cx="1057.0000000000002" cy="372.9999999999999" r="5"/>
    <circle cx="1051.2705098312485" cy="390.6335575687741" r="5"/>
    <circle cx="1036.2705098312485" cy="401.5316954888545" r="5"/>
    <circle cx="1017.7294901687518" cy="401.5316954888545" r="5"/>
    <circle cx="1002.7294901687518" cy="390.6335575687741" r="5"/>
    <circle cx="997.0000000000002" cy="372.9999999999999" r="5"/>
    <circle cx="1002.7294901687518" cy="355.3664424312257" r="5"/>
    <circle cx="1017.7294901687518" cy="344.4683045111453" r="5"/>
    <circle cx="1036.2705098312485" cy="344.4683045111453" r="5"/>
    <circle cx="1051.2705098312485" cy="355.36644243122566" r="5"/>
    <circle cx="728.4675324675324" cy="312.14285714285717" r="50"/>
    <circle cx="290.40909090909076" cy="410.0" r="50"/>
    <circle cx="701.1818181818181" cy="683" r="50"/>
  </g>
</svg>
