<svg version="1.1" width="1150" height="870" xmlns="http://www.w3.org/2000/svg">
  <!-- Seed: 6591250000842276946 -->
  <g stroke="black" fill="none">
    <g stroke="blue">
      <circle cx="216.0" cy="484.0" r="5"/>
      <circle cx="210.27050983124843" cy="501.6335575687742" r="5"/>
      <circle cx="195.27050983124843" cy="512.5316954888546" r="5"/>
      <circle cx="176.72949016875157" cy="512.5316954888547" r="5"/>
      <circle cx="161.72949016875157" cy="501.6335575687742" r="5"/>
      <circle cx="156.0" cy="484.0" r="5"/>
      <circle cx="161.72949016875157" cy="466.36644243122583" r="5"/>
      <circle cx="176.72949016875157" cy="455.4683045111454" r="5"/>
      <circle cx="195.2705098312484" cy="455.4683045111454" r="5"/>
      <circle cx="210.27050983124843" cy="466.3664424312258" r="5"/>
      <path d="M1046.0 412.0 L1046.0 422.0"/>
      <path d="M1063.63 406.27 L1069.51 414.36"/>
      <path d="M1074.53 391.27 L1084.04 394.36"/>
      <path d="M1074.53 372.73 L1084.04 369.64"/>
      <path d="M1063.63 357.73 L1069.51 349.64"/>
      <path d="M1046.0 352.0 L1046.0 342.0"/>
      <path d="M1028.37 357.73 L1022.49 349.64"/>
      <path d="M1017.47 372.73 L1007.96 369.64"/>
      <path d="M1017.47 391.27 L1007.96 394.36"/>
      <path d="M1028.37 406.27 L1022.49 414.36"/>
      <circle cx="873.0" cy="528.0" r="37.15"/>
      <path d="M873.0 575.15 L873.0 585.15"/>
      <path d="M887.57 572.84 L890.66 582.35"/>
      <path d="M900.71 566.15 L906.59 574.24"/>
      <path d="M911.15 555.71 L919.24 561.59"/>
      <path d="M917.84 542.57 L927.35 545.66"/>
      <path d="M920.15 528.0 L930.15 528.0"/>
      <path d="M917.84 513.43 L927.35 510.34"/>
      <path d="M911.15 500.29 L919.24 494.41"/>
      <path d="M900.71 489.85 L906.59 481.76"/>
      <path d="M887.57 483.16 L890.66 473.65"/>
      <path d="M873.0 480.85 L873.0 470.85"/>
      <path d="M858.43 483.16 L855.34 473.65"/>
      <path d="M845.29 489.85 L839.41 481.76"/>
      <path d="M834.85 500.29 L826.76 494.41"/>
      <path d="M828.16 513.43 L818.65 510.34"/>
      <path d="M825.85 528.0 L815.85 528.0"/>
      <path d="M828.16 542.57 L818.65 545.66"/>
      <path d="M834.85 555.71 L826.76 561.59"/>
      <path d="M845.29 566.15 L839.41 574.24"/>
      <path d="M858.43 572.84 L855.34 582.35"/>
      <circle cx="641.0" cy="693.0" r="28.77"/>
      <circle cx="641.0" cy="693.0" r="38.769999999999996"/>
      <circle cx="403.0" cy="739.0" r="41.019999999999996"/>
      <path d="M403.0 790.02 L403.0 800.02"/>
      <path d="M418.77 787.52 L421.86 797.03"/>
      <path d="M432.99 780.28 L438.87 788.37"/>
      <path d="M444.28 768.99 L452.37 774.87"/>
      <path d="M451.52 754.77 L461.03 757.86"/>
      <path d="M454.02 739.0 L464.02 739.0"/>
      <path d="M451.52 723.23 L461.03 720.14"/>
      <path d="M444.28 709.01 L452.37 703.13"/>
      <path d="M432.99 697.72 L438.87 689.63"/>
      <path d="M418.77 690.48 L421.86 680.97"/>
      <path d="M403.0 687.98 L403.0 677.98"/>
      <path d="M387.23 690.48 L384.14 680.97"/>
      <path d="M373.01 697.72 L367.13 689.63"/>
      <path d="M361.72 709.01 L353.63 703.13"/>
      <path d="M354.48 723.23 L344.97 720.14"/>
      <path d="M351.98 739.0 L341.98 739.0"/>
      <path d="M354.48 754.77 L344.97 757.86"/>
      <path d="M361.72 768.99 L353.63 774.87"/>
      <path d="M373.01 780.28 L367.13 788.37"/>
      <path d="M387.23 787.52 L384.14 797.03"/>
      <circle cx="348.0" cy="467.0" r="53.08"/>
      <circle cx="348.0" cy="467.0" r="63.08"/>
      <g transform="translate(928.725,528.0) scale(0.5,0.5)">
        <path d="M0 0h12.5q12.5 0 12.5 -12.5q0 -12.5 -12.5 -12.5h-6.25m6.25 0q12.5 0 12.5 -12.5q0 -12.5 -12.5 -12.5h-12.5"/>
        <path d="M35.0 0h12.5q12.5 0 12.5 -12.5v-25.0q0 -12.5 -12.5 -12.5q-12.5 0 -12.5 12.5q0 12.5 12.5 12.5h12.5"/>
        <path d="M95.0 -50h-12.5q-12.5 0 -12.5 12.5v25.0q0 12.5 12.5 12.5q12.5 0 12.5 -12.5q0 -12.5 -12.5 -12.5h-12.5"/>
        <path d="M105.0 0h12.5q12.5 0 12.5 -12.5q0 -12.5 -12.5 -12.5h-6.25m6.25 0q12.5 0 12.5 -12.5q0 -12.5 -12.5 -12.5h-12.5"/>
        <path d="M140.0 -50h25.0l-25.0 50"/>
      </g>
    </g>
  </g>
</svg>
