<svg version="1.1" width="1150" height="870" xmlns="http://www.w3.org/2000/svg">
  <!-- Seed: 5754569612763677565 -->
  <g stroke="black" fill="none">
    <circle cx="180.0" cy="317.0" r="5"/>
    <circle cx="1032.0" cy="348.0" r="5"/>
    <circle cx="174.27050983124843" cy="334.6335575687742" r="5"/>
    <circle cx="1026.2705098312483" cy="365.6335575687742" r="5"/>
    <circle cx="159.27050983124843" cy="345.5316954888546" r="5"/>
    <circle cx="1011.2705098312484" cy="376.5316954888546" r="5"/>
    <circle cx="140.72949016875157" cy="345.5316954888546" r="5"/>
    <circle cx="992.7294901687516" cy="376.5316954888546" r="5"/>
    <circle cx="125.72949016875158" cy="334.6335575687742" r="5"/>
    <circle cx="977.7294901687516" cy="365.6335575687742" r="5"/>
    <circle cx="120.0" cy="317.0" r="5"/>
    <circle cx="972.0" cy="348.0" r="5"/>
    <circle cx="125.72949016875157" cy="299.36644243122583" r="5"/>
    <circle cx="977.7294901687516" cy="330.36644243122583" r="5"/>
    <circle cx="140.72949016875157" cy="288.4683045111454" r="5"/>
    <circle cx="992.7294901687516" cy="319.4683045111454" r="5"/>
    <circle cx="159.2705098312484" cy="288.4683045111454" r="5"/>
    <circle cx="1011.2705098312484" cy="319.4683045111454" r="5"/>
    <circle cx="174.27050983124843" cy="299.3664424312258" r="5"/>
    <circle cx="1026.2705098312483" cy="330.3664424312258" r="5"/>
    <circle cx="608" cy="623" r="50"/>
  </g>
</svg>
