<svg version="1.1" width="1150" height="870" xmlns="http://www.w3.org/2000/svg">
  <!-- Seed: 7659784448012384388 -->
  <g stroke="black" fill="none">
    <g stroke="blue">
      <circle cx="165.0" cy="414.0" r="5"/>
      <circle cx="159.27050983124843" cy="431.6335575687742" r="5"/>
      <circle cx="144.27050983124843" cy="442.5316954888546" r="5"/>
      <circle cx="125.72949016875158" cy="442.5316954888546" r="5"/>
      <circle cx="110.72949016875158" cy="431.6335575687742" r="5"/>
      <circle cx="105.0" cy="414.0" r="5"/>
      <circle cx="110.72949016875157" cy="396.36644243122583" r="5"/>
      <circle cx="125.72949016875157" cy="385.4683045111454" r="5"/>
      <circle cx="144.2705098312484" cy="385.4683045111454" r="5"/>
      <circle cx="159.27050983124843" cy="396.3664424312258" r="5"/>
      <path d="M 1018.0 379.0 L1018.0 389.0"/>
      <path d="M 1035.6335575687742 373.27050983124843 L1041.511410091699 381.3606797749979"/>
      <path d="M 1046.5316954888547 358.27050983124843 L1056.0422606518061 361.3606797749979"/>
      <path d="M 1046.5316954888547 339.72949016875157 L1056.0422606518061 336.6393202250021"/>
      <path d="M 1035.6335575687742 324.72949016875157 L1041.511410091699 316.6393202250021"/>
      <path d="M 1018.0 319.0 L1018.0 309.0"/>
      <path d="M 1000.3664424312258 324.72949016875157 L994.488589908301 316.6393202250021"/>
      <path d="M 989.4683045111454 339.72949016875157 L979.957739348194 336.6393202250021"/>
      <path d="M 989.4683045111453 358.27050983124843 L979.9577393481939 361.3606797749979"/>
      <path d="M 1000.3664424312258 373.27050983124843 L994.488589908301 381.3606797749979"/>
      <circle cx="542.0" cy="316.0" r="26.11"/>
      <path d="M 542.0 352.11 L542.0 362.11"/>
      <path d="M 553.1586036668793 350.342650803418 L556.2487736106289 359.85321596636953"/>
      <path d="M 563.2249254602812 345.21360366687935 L569.1027779832059 353.3037736106288"/>
      <path d="M 571.2136036668794 337.2249254602812 L579.3037736106289 343.10277798320595"/>
      <path d="M 576.342650803418 327.15860366687934 L585.8532159663696 330.2487736106288"/>
      <path d="M 578.11 316.0 L588.11 316.0"/>
      <path d="M 576.342650803418 304.84139633312066 L585.8532159663696 301.7512263893712"/>
      <path d="M 571.2136036668794 294.7750745397188 L579.3037736106289 288.89722201679405"/>
      <path d="M 563.2249254602812 286.78639633312065 L569.1027779832059 278.6962263893712"/>
      <path d="M 553.1586036668793 281.657349196582 L556.2487736106289 272.14678403363047"/>
      <path d="M 542.0 279.89 L542.0 269.89"/>
      <path d="M 530.8413963331207 281.657349196582 L527.7512263893711 272.14678403363047"/>
      <path d="M 520.7750745397188 286.78639633312065 L514.8972220167941 278.6962263893712"/>
      <path d="M 512.7863963331207 294.7750745397188 L504.69622638937125 288.89722201679405"/>
      <path d="M 507.657349196582 304.84139633312066 L498.14678403363047 301.7512263893712"/>
      <path d="M 505.89 316.0 L495.89 316.0"/>
      <path d="M 507.657349196582 327.15860366687934 L498.14678403363047 330.2487736106288"/>
      <path d="M 512.7863963331206 337.2249254602812 L504.69622638937113 343.10277798320595"/>
      <path d="M 520.7750745397188 345.21360366687935 L514.8972220167941 353.3037736106288"/>
      <path d="M 530.8413963331207 350.342650803418 L527.7512263893711 359.85321596636953"/>
      <circle cx="311.0" cy="593.0" r="58.59"/>
      <circle cx="311.0" cy="593.0" r="68.59"/>
      <circle cx="272.0" cy="167.0" r="42.61"/>
      <circle cx="855.0" cy="419.0" r="69.64"/>
      <circle cx="855.0" cy="419.0" r="79.64"/>
      <g transform="translate(335.915,167.0) scale(0.5,0.5)">
        <path d="M25.0 0h-25.0v-12.5q0 -12.5 12.5 -12.5q12.5 0 12.5 -12.5q0 -12.5 -12.5 -12.5q-12.5 0 -12.5 12.5"/>
        <path d="M35.0 -50v25.0h25.0m0 25.0v-50"/>
        <path d="M70.0 -50h25.0l-25.0 50"/>
        <path d="M130.0 0h-25.0v-12.5q0 -12.5 12.5 -12.5q12.5 0 12.5 -12.5q0 -12.5 -12.5 -12.5q-12.5 0 -12.5 12.5"/>
        <path d="M152.5 0q-12.5 0 -12.5 -12.5v-25.0q0 -12.5 12.5 -12.5q12.5 0 12.5 12.5v25.0q0 12.5 -12.5 12.5m-12.5 -12.5l25.0 -25.0"/>
      </g>
    </g>
  </g>
</svg>
