<svg version="1.1" width="1150" height="870" xmlns="http://www.w3.org/2000/svg">
  <!-- Seed: 1565528037561782966 -->
  <g stroke="black" fill="none">
    <circle cx="180.0" cy="490.0" r="5"/>
    <circle cx="174.27050983124843" cy="507.6335575687742" r="5"/>
    <circle cx="159.27050983124843" cy="518.5316954888546" r="5"/>
    <circle cx="140.72949016875157" cy="518.5316954888547" r="5"/>
    <circle cx="125.72949016875158" cy="507.6335575687742" r="5"/>
    <circle cx="120.0" cy="490.0" r="5"/>
    <circle cx="125.72949016875157" cy="472.36644243122583" r="5"/>
    <circle cx="140.72949016875157" cy="461.4683045111454" r="5"/>
    <circle cx="159.2705098312484" cy="461.4683045111454" r="5"/>
    <circle cx="174.27050983124843" cy="472.3664424312258" r="5"/>
    <circle cx="1036.0" cy="691.0" r="5"/>
    <circle cx="1030.2705098312483" cy="708.6335575687742" r="5"/>
    <circle cx="1015.2705098312484" cy="719.5316954888546" r="5"/>
    <circle cx="996.7294901687516" cy="719.5316954888547" r="5"/>
    <circle cx="981.7294901687516" cy="708.6335575687742" r="5"/>
    <circle cx="976.0" cy="691.0" r="5"/>
    <circle cx="981.7294901687516" cy="673.3664424312258" r="5"/>
    <circle cx="996.7294901687516" cy="662.4683045111454" r="5"/>
    <circle cx="1015.2705098312484" cy="662.4683045111453" r="5"/>
    <circle cx="1030.2705098312483" cy="673.3664424312258" r="5"/>
    <circle cx="223" cy="257" r="50"/>
  </g>
</svg>
