<svg version="1.1" width="1150" height="870" xmlns="http://www.w3.org/2000/svg">
  <!-- Seed: 4856782875531384597 -->
  <g stroke="black" fill="none">
    <g stroke="blue">
      <circle cx="111.0" cy="389.0" r="5"/>
      <circle cx="105.27050983124843" cy="406.6335575687742" r="5"/>
      <circle cx="90.27050983124842" cy="417.5316954888546" r="5"/>
      <circle cx="71.72949016875158" cy="417.5316954888546" r="5"/>
      <circle cx="56.72949016875158" cy="406.6335575687742" r="5"/>
      <circle cx="51.0" cy="389.0" r="5"/>
      <circle cx="56.729490168751575" cy="371.36644243122583" r="5"/>
      <circle cx="71.72949016875157" cy="360.4683045111454" r="5"/>
      <circle cx="90.27050983124842" cy="360.4683045111454" r="5"/>
      <circle cx="105.27050983124842" cy="371.3664424312258" r="5"/>
      <path d="M1079.0 354.0 L1079.0 364.0"/>
      <path d="M1096.63 348.27 L1102.51 356.36"/>
      <path d="M1107.53 333.27 L1117.04 336.36"/>
      <path d="M1107.53 314.73 L1117.04 311.64"/>
      <path d="M1096.63 299.73 L1102.51 291.64"/>
      <path d="M1079.0 294.0 L1079.0 284.0"/>
      <path d="M1061.37 299.73 L1055.49 291.64"/>
      <path d="M1050.47 314.73 L1040.96 311.64"/>
      <path d="M1050.47 333.27 L1040.96 336.36"/>
      <path d="M1061.37 348.27 L1055.49 356.36"/>
      <circle cx="905.0" cy="779.0" r="53.41"/>
      <circle cx="905.0" cy="779.0" r="63.41"/>
      <circle cx="317.0" cy="306.0" r="76.14"/>
      <path d="M317.0 392.14 L317.0 402.14"/>
      <path d="M343.62 387.92 L346.71 397.43"/>
      <path d="M367.63 375.69 L373.51 383.78"/>
      <path d="M386.69 356.63 L394.78 362.51"/>
      <path d="M398.92 332.62 L408.43 335.71"/>
      <path d="M403.14 306.0 L413.14 306.0"/>
      <path d="M398.92 279.38 L408.43 276.29"/>
      <path d="M386.69 255.37 L394.78 249.49"/>
      <path d="M367.63 236.31 L373.51 228.22"/>
      <path d="M343.62 224.08 L346.71 214.57"/>
      <path d="M317.0 219.86 L317.0 209.86"/>
      <path d="M290.38 224.08 L287.29 214.57"/>
      <path d="M266.37 236.31 L260.49 228.22"/>
      <path d="M247.31 255.37 L239.22 249.49"/>
      <path d="M235.08 279.38 L225.57 276.29"/>
      <path d="M230.86 306.0 L220.86 306.0"/>
      <path d="M235.08 332.62 L225.57 335.71"/>
      <path d="M247.31 356.63 L239.22 362.51"/>
      <path d="M266.37 375.69 L260.49 383.78"/>
      <path d="M290.38 387.92 L287.29 397.43"/>
      <circle cx="639.0" cy="444.0" r="62.5"/>
      <circle cx="639.0" cy="444.0" r="72.5"/>
      <g transform="translate(431.21000000000004,306.0) scale(0.5,0.5)">
        <path d="M0 -50v25.0h25.0m0 25.0v-50"/>
        <path d="M47.5 0q-12.5 0 -12.5 -12.5v-25.0q0 -12.5 12.5 -12.5q12.5 0 12.5 12.5v25.0q0 12.5 -12.5 12.5m-12.5 -12.5l25.0 -25.0"/>
        <path d="M95.0 -50h-12.5q-12.5 0 -12.5 12.5v25.0q0 12.5 12.5 12.5q12.5 0 12.5 -12.5q0 -12.5 -12.5 -12.5h-12.5"/>
        <path d="M105.0 0h12.5q12.5 0 12.5 -12.5q0 -12.5 -12.5 -12.5h-6.25m6.25 0q12.5 0 12.5 -12.5q0 -12.5 -12.5 -12.5h-12.5"/>
        <path d="M140.0 0h25.0m-12.5 0v-50l-12.5 12.5"/>
      </g>
    </g>
  </g>
</svg>
