<svg version="1.1" width="1630" height="1060" xmlns="http://www.w3.org/2000/svg">
  <!-- Seed: 7327525469434984680 -->
  <g stroke="black" fill="none">
    <g stroke="blue">
      <circle cx="211.0" cy="435.0" r="5"/>
      <circle cx="205.27050983124843" cy="452.6335575687742" r="5"/>
      <circle cx="190.27050983124843" cy="463.5316954888546" r="5"/>
      <circle cx="171.72949016875157" cy="463.5316954888546" r="5"/>
      <circle cx="156.72949016875157" cy="452.6335575687742" r="5"/>
      <circle cx="151.0" cy="435.0" r="5"/>
      <circle cx="156.72949016875157" cy="417.36644243122583" r="5"/>
      <circle cx="171.72949016875157" cy="406.4683045111454" r="5"/>
      <circle cx="190.2705098312484" cy="406.4683045111454" r="5"/>
      <circle cx="205.27050983124843" cy="417.3664424312258" r="5"/>
      <path d="M 1491.0 548.0 L1491.0 558.0"/>
      <path d="M 1508.6335575687742 542.2705098312484 L1514.511410091699 550.360679774998"/>
      <path d="M 1519.5316954888547 527.2705098312484 L1529.0422606518061 530.360679774998"/>
      <path d="M 1519.5316954888547 508.72949016875157 L1529.0422606518061 505.6393202250021"/>
      <path d="M 1508.6335575687742 493.72949016875157 L1514.511410091699 485.6393202250021"/>
      <path d="M 1491.0 488.0 L1491.0 478.0"/>
      <path d="M 1473.3664424312258 493.72949016875157 L1467.488589908301 485.6393202250021"/>
      <path d="M 1462.4683045111453 508.72949016875157 L1452.9577393481939 505.6393202250021"/>
      <path d="M 1462.4683045111453 527.2705098312484 L1452.9577393481939 530.360679774998"/>
      <path d="M 1473.3664424312258 542.2705098312484 L1467.488589908301 550.360679774998"/>
      <circle cx="1110.0" cy="400.0" r="59.68"/>
      <circle cx="1110.0" cy="400.0" r="69.68"/>
      <circle cx="452.0" cy="210.0" r="61.78"/>
      <path d="M 452.0 281.78 L452.0 291.78"/>
      <path d="M 474.18123985623373 278.26683673966613 L477.2714097999832 287.77740190261767"/>
      <path d="M 494.19122540955374 268.0712398562337 L500.0690779324785 276.1614097999832"/>
      <path d="M 510.0712398562337 252.19122540955374 L518.1614097999832 258.0690779324785"/>
      <path d="M 520.2668367396661 232.18123985623373 L529.7774019026176 235.27140979998322"/>
      <path d="M 523.78 210.0 L533.78 210.0"/>
      <path d="M 520.2668367396661 187.81876014376627 L529.7774019026176 184.72859020001678"/>
      <path d="M 510.0712398562337 167.8087745904463 L518.1614097999832 161.93092206752155"/>
      <path d="M 494.19122540955374 151.92876014376628 L500.0690779324785 143.83859020001682"/>
      <path d="M 474.18123985623373 141.73316326033387 L477.2714097999832 132.22259809738233"/>
      <path d="M 452.0 138.22 L452.0 128.22"/>
      <path d="M 429.81876014376627 141.73316326033387 L426.7285902000168 132.22259809738233"/>
      <path d="M 409.80877459044626 151.92876014376628 L403.9309220675215 143.83859020001682"/>
      <path d="M 393.9287601437663 167.80877459044626 L385.8385902000168 161.93092206752152"/>
      <path d="M 383.73316326033387 187.81876014376627 L374.22259809738233 184.72859020001678"/>
      <path d="M 380.22 210.0 L370.22 210.0"/>
      <path d="M 383.73316326033387 232.1812398562337 L374.22259809738233 235.27140979998316"/>
      <path d="M 393.9287601437663 252.1912254095537 L385.8385902000168 258.0690779324784"/>
      <path d="M 409.80877459044626 268.0712398562337 L403.9309220675215 276.1614097999832"/>
      <path d="M 429.81876014376627 278.26683673966613 L426.7285902000168 287.77740190261767"/>
      <circle cx="1122.0" cy="840.0" r="58.79"/>
      <path d="M 1122.0 908.79 L1122.0 918.79"/>
      <path d="M 1143.2572790430527 905.4231777559436 L1146.3474489868022 914.9337429188951"/>
      <path d="M 1162.4337475051993 895.6522790430527 L1168.311600028124 903.7424489868022"/>
      <path d="M 1177.6522790430527 880.4337475051992 L1185.7424489868022 886.311600028124"/>
      <path d="M 1187.4231777559437 861.2572790430527 L1196.9337429188952 864.3474489868022"/>
      <path d="M 1190.79 840.0 L1200.79 840.0"/>
      <path d="M 1187.4231777559437 818.7427209569473 L1196.9337429188952 815.6525510131978"/>
      <path d="M 1177.6522790430527 799.5662524948008 L1185.7424489868022 793.688399971876"/>
      <path d="M 1162.4337475051993 784.3477209569473 L1168.311600028124 776.2575510131978"/>
      <path d="M 1143.2572790430527 774.5768222440564 L1146.3474489868022 765.0662570811049"/>
      <path d="M 1122.0 771.21 L1122.0 761.21"/>
      <path d="M 1100.7427209569473 774.5768222440564 L1097.6525510131978 765.0662570811049"/>
      <path d="M 1081.566252494801 784.3477209569473 L1075.6883999718762 776.2575510131978"/>
      <path d="M 1066.3477209569473 799.5662524948008 L1058.2575510131978 793.688399971876"/>
      <path d="M 1056.5768222440563 818.7427209569473 L1047.0662570811048 815.6525510131978"/>
      <path d="M 1053.21 840.0 L1043.21 840.0"/>
      <path d="M 1056.5768222440563 861.2572790430526 L1047.0662570811048 864.3474489868021"/>
      <path d="M 1066.3477209569473 880.4337475051992 L1058.2575510131978 886.311600028124"/>
      <path d="M 1081.5662524948007 895.6522790430527 L1075.688399971876 903.7424489868022"/>
      <path d="M 1100.7427209569473 905.4231777559436 L1097.6525510131978 914.9337429188951"/>
      <path d="M 1122.0 840.0 L1117.0 577.0"/>
      <circle cx="1117.0" cy="577.0" r="31.23"/>
      <path d="M 1117.0 618.23 L1117.0 628.23"/>
      <path d="M 1129.7407706780791 616.2120601668491 L1132.8309406218286 625.7226253298006"/>
      <path d="M 1141.2343859520188 610.3557706780791 L1147.1122384749435 618.4459406218286"/>
      <path d="M 1150.3557706780791 601.2343859520187 L1158.4459406218286 607.1122384749434"/>
      <path d="M 1156.2120601668491 589.7407706780791 L1165.7226253298006 592.8309406218286"/>
      <path d="M 1158.23 577.0 L1168.23 577.0"/>
      <path d="M 1156.2120601668491 564.2592293219209 L1165.7226253298006 561.1690593781714"/>
      <path d="M 1150.3557706780791 552.7656140479813 L1158.4459406218286 546.8877615250566"/>
      <path d="M 1141.2343859520188 543.6442293219209 L1147.1122384749435 535.5540593781714"/>
      <path d="M 1129.7407706780791 537.7879398331509 L1132.8309406218286 528.2773746701994"/>
      <path d="M 1117.0 535.77 L1117.0 525.77"/>
      <path d="M 1104.2592293219209 537.7879398331509 L1101.1690593781714 528.2773746701994"/>
      <path d="M 1092.7656140479814 543.6442293219209 L1086.8877615250567 535.5540593781714"/>
      <path d="M 1083.6442293219209 552.7656140479813 L1075.5540593781714 546.8877615250566"/>
      <path d="M 1077.7879398331509 564.2592293219209 L1068.2773746701994 561.1690593781714"/>
      <path d="M 1075.77 577.0 L1065.77 577.0"/>
      <path d="M 1077.7879398331509 589.7407706780791 L1068.2773746701994 592.8309406218286"/>
      <path d="M 1083.6442293219209 601.2343859520187 L1075.5540593781714 607.1122384749434"/>
      <path d="M 1092.7656140479812 610.3557706780791 L1086.8877615250565 618.4459406218286"/>
      <path d="M 1104.2592293219209 616.2120601668491 L1101.1690593781714 625.7226253298006"/>
      <path d="M 1117.0 577.0 L624.0 661.0"/>
      <circle cx="624.0" cy="661.0" r="43.83"/>
      <circle cx="624.0" cy="661.0" r="53.83"/>
    </g>
  </g>
</svg>
