<svg version="1.1" width="1630" height="1060" xmlns="http://www.w3.org/2000/svg">
  <!-- Seed: 5214335838530532227 -->
  <g stroke="black" fill="none">
    <circle cx="950.0" cy="100.0" r="5.0"/>
    <circle cx="960.0" cy="110.0" r="9.840522680785408"/>
    <circle cx="970.0" cy="120.0" r="14.64207231912638"/>
    <circle cx="980.0" cy="130.0" r="19.365989660600455"/>
    <circle cx="990.0" cy="140.0" r="23.974240500392504"/>
    <circle cx="1000.0" cy="150.0" r="28.42972191234814"/>
    <circle cx="1010.0" cy="160.0" r="32.69656097991893"/>
    <circle cx="1020.0" cy="170.0" r="36.740403623793554"/>
    <circle cx="1030.0" cy="180.0" r="40.52869120074448"/>
    <circle cx="1040.0" cy="190.0" r="44.03092264667914"/>
    <circle cx="1050.0" cy="200.0" r="47.21890005327361"/>
    <circle cx="1060.0" cy="210.0" r="50.066955700950345"/>
    <circle cx="1070.0" cy="220.0" r="52.552158720263854"/>
    <circle cx="1080.0" cy="230.0" r="54.65449971777833"/>
    <circle cx="1090.0" cy="240.0" r="56.35705187993829"/>
    <circle cx="1100.0" cy="250.0" r="57.64610725781848"/>
    <circle cx="1110.0" cy="260.0" r="58.51128713546847"/>
    <circle cx="1120.0" cy="270.0" r="58.945625593230986"/>
    <circle cx="1130.0" cy="280.0" r="58.94562559323099"/>
    <circle cx="1140.0" cy="290.0" r="58.51128713546848"/>
    <circle cx="1150.0" cy="300.0" r="57.64610725781848"/>
    <circle cx="1160.0" cy="310.0" r="56.3570518799383"/>
    <circle cx="1170.0" cy="320.0" r="54.654499717778336"/>
    <circle cx="1180.0" cy="330.0" r="52.552158720263854"/>
    <circle cx="1190.0" cy="340.0" r="50.06695570095035"/>
    <circle cx="1200.0" cy="350.0" r="47.218900053273615"/>
    <circle cx="1210.0" cy="360.0" r="44.030922646679144"/>
    <circle cx="1220.0" cy="370.0" r="40.52869120074448"/>
    <circle cx="1230.0" cy="380.0" r="36.740403623793554"/>
    <circle cx="1240.0" cy="390.0" r="32.696560979918935"/>
    <circle cx="1250.0" cy="400.0" r="28.429721912348146"/>
    <circle cx="1260.0" cy="410.0" r="23.97424050039251"/>
    <circle cx="1270.0" cy="420.0" r="19.365989660600462"/>
    <circle cx="1280.0" cy="430.0" r="14.642072319126385"/>
    <circle cx="1290.0" cy="440.0" r="9.840522680785416"/>
    <circle cx="1300.0" cy="450.0" r="5.000000000000006"/>
  </g>
</svg>
