<svg version="1.1" width="1150" height="870" xmlns="http://www.w3.org/2000/svg">
  <!-- Seed: 8186896821846437676 -->
  <g stroke="black" fill="none">
    <circle cx="100.0" cy="450.0" r="5.0"/>
    <circle cx="110.0" cy="460.0" r="8.630392010589055"/>
    <circle cx="120.0" cy="470.0" r="12.231554239344785"/>
    <circle cx="130.0" cy="480.0" r="15.774492245450343"/>
    <circle cx="140.0" cy="490.0" r="19.230680375294376"/>
    <circle cx="150.0" cy="500.0" r="22.572291434261103"/>
    <circle cx="160.0" cy="510.0" r="25.7724207349392"/>
    <circle cx="170.0" cy="520.0" r="28.805302717845162"/>
    <circle cx="180.0" cy="530.0" r="31.64651840055836"/>
    <circle cx="190.0" cy="540.0" r="34.273191985009355"/>
    <circle cx="200.0" cy="550.0" r="36.66417503995521"/>
    <circle cx="210.0" cy="560.0" r="38.800216775712755"/>
    <circle cx="220.0" cy="570.0" r="40.66411904019789"/>
    <circle cx="230.0" cy="580.0" r="42.24087478833375"/>
    <circle cx="240.0" cy="590.0" r="43.517788909953715"/>
    <circle cx="250.0" cy="600.0" r="44.48458044336385"/>
    <circle cx="260.0" cy="610.0" r="45.13346535160136"/>
    <circle cx="270.0" cy="620.0" r="45.45921919492324"/>
    <circle cx="280.0" cy="630.0" r="45.45921919492324"/>
    <circle cx="290.0" cy="640.0" r="45.13346535160136"/>
    <circle cx="300.0" cy="650.0" r="44.48458044336385"/>
    <circle cx="310.0" cy="660.0" r="43.51778890995372"/>
    <circle cx="320.0" cy="670.0" r="42.240874788333755"/>
    <circle cx="330.0" cy="680.0" r="40.66411904019789"/>
    <circle cx="340.0" cy="690.0" r="38.80021677571276"/>
    <circle cx="350.0" cy="700.0" r="36.66417503995521"/>
    <circle cx="360.0" cy="710.0" r="34.27319198500936"/>
    <circle cx="370.0" cy="720.0" r="31.646518400558364"/>
    <circle cx="380.0" cy="730.0" r="28.805302717845166"/>
    <circle cx="390.0" cy="740.0" r="25.772420734939203"/>
    <circle cx="400.0" cy="750.0" r="22.572291434261107"/>
    <circle cx="410.0" cy="760.0" r="19.230680375294384"/>
    <circle cx="420.0" cy="770.0" r="15.774492245450347"/>
    <circle cx="430.0" cy="780.0" r="12.231554239344788"/>
    <circle cx="440.0" cy="790.0" r="8.630392010589063"/>
    <circle cx="450.0" cy="800.0" r="5.000000000000005"/>
    <circle cx="100.0" cy="750.0" r="5.0"/>
    <circle cx="110.0" cy="760.0" r="9.750883371881976"/>
    <circle cx="120.0" cy="770.0" r="14.463515424327742"/>
    <circle cx="130.0" cy="780.0" r="19.09995281503378"/>
    <circle cx="140.0" cy="790.0" r="23.62286567631116"/>
    <circle cx="150.0" cy="300.0" r="5.0"/>
    <circle cx="160.0" cy="310.0" r="9.571604754075107"/>
    <circle cx="170.0" cy="320.0" r="14.106401634730469"/>
    <circle cx="180.0" cy="330.0" r="18.567879123900433"/>
    <circle cx="190.0" cy="340.0" r="22.920116028148477"/>
    <circle cx="200.0" cy="350.0" r="27.128070694995465"/>
    <circle cx="210.0" cy="360.0" r="31.157863147701214"/>
    <circle cx="220.0" cy="370.0" r="34.97704786691613"/>
    <circle cx="230.0" cy="380.0" r="38.554875022925344"/>
    <circle cx="240.0" cy="390.0" r="41.862538055196964"/>
    <circle cx="250.0" cy="400.0" r="44.87340560586952"/>
    <circle cx="260.0" cy="410.0" r="47.56323593978644"/>
    <circle cx="270.0" cy="420.0" r="49.91037212469364"/>
    <circle cx="280.0" cy="430.0" r="51.89591640012398"/>
    <circle cx="290.0" cy="440.0" r="53.50388233105283"/>
    <circle cx="300.0" cy="450.0" r="54.72132352127301"/>
    <circle cx="310.0" cy="460.0" r="55.53843785016467"/>
    <circle cx="320.0" cy="470.0" r="55.94864639360704"/>
    <circle cx="330.0" cy="480.0" r="55.94864639360705"/>
    <circle cx="340.0" cy="490.0" r="55.53843785016468"/>
    <circle cx="350.0" cy="500.0" r="54.72132352127301"/>
    <circle cx="360.0" cy="510.0" r="53.503882331052836"/>
    <circle cx="370.0" cy="520.0" r="51.89591640012399"/>
    <circle cx="380.0" cy="530.0" r="49.91037212469364"/>
    <circle cx="390.0" cy="540.0" r="47.56323593978644"/>
    <circle cx="400.0" cy="550.0" r="44.87340560586953"/>
    <circle cx="410.0" cy="560.0" r="41.86253805519697"/>
    <circle cx="420.0" cy="570.0" r="38.554875022925344"/>
    <circle cx="430.0" cy="580.0" r="34.97704786691614"/>
    <circle cx="440.0" cy="590.0" r="31.157863147701217"/>
    <circle cx="450.0" cy="600.0" r="27.12807069499547"/>
    <circle cx="460.0" cy="610.0" r="22.92011602814848"/>
    <circle cx="470.0" cy="620.0" r="18.567879123900436"/>
    <circle cx="480.0" cy="630.0" r="14.106401634730474"/>
    <circle cx="490.0" cy="640.0" r="9.571604754075114"/>
    <circle cx="500.0" cy="650.0" r="5.000000000000006"/>
    <circle cx="150.0" cy="600.0" r="5.0"/>
    <circle cx="160.0" cy="610.0" r="9.840522680785408"/>
    <circle cx="170.0" cy="620.0" r="14.64207231912638"/>
    <circle cx="180.0" cy="630.0" r="19.365989660600455"/>
    <circle cx="190.0" cy="640.0" r="23.974240500392504"/>
    <circle cx="200.0" cy="650.0" r="28.42972191234814"/>
    <circle cx="210.0" cy="660.0" r="32.69656097991893"/>
    <circle cx="220.0" cy="670.0" r="36.740403623793554"/>
    <circle cx="230.0" cy="680.0" r="40.52869120074448"/>
    <circle cx="240.0" cy="690.0" r="44.03092264667914"/>
    <circle cx="250.0" cy="700.0" r="47.21890005327361"/>
    <circle cx="260.0" cy="710.0" r="50.066955700950345"/>
    <circle cx="270.0" cy="720.0" r="52.552158720263854"/>
    <circle cx="280.0" cy="730.0" r="54.65449971777833"/>
    <circle cx="290.0" cy="740.0" r="56.35705187993829"/>
    <circle cx="300.0" cy="750.0" r="57.64610725781848"/>
    <circle cx="310.0" cy="760.0" r="58.51128713546847"/>
    <circle cx="200.0" cy="200.0" r="5.0"/>
    <circle cx="210.0" cy="210.0" r="10.692096115368027"/>
    <circle cx="220.0" cy="220.0" r="16.338362819713428"/>
    <circle cx="230.0" cy="230.0" r="21.89333969348387"/>
    <circle cx="240.0" cy="240.0" r="27.312301329165262"/>
    <circle cx="250.0" cy="250.0" r="32.551617433964935"/>
    <circle cx="260.0" cy="260.0" r="37.56910411527504"/>
    <circle cx="270.0" cy="270.0" r="42.32436352057204"/>
    <circle cx="280.0" cy="280.0" r="46.77910909717175"/>
    <circle cx="290.0" cy="290.0" r="50.89747385303936"/>
    <circle cx="300.0" cy="300.0" r="54.64629913671989"/>
    <circle cx="310.0" cy="310.0" r="57.99540161130272"/>
    <circle cx="320.0" cy="320.0" r="60.91781627290286"/>
    <circle cx="330.0" cy="330.0" r="63.39001355701711"/>
    <circle cx="340.0" cy="340.0" r="65.39208878474224"/>
    <circle cx="350.0" cy="350.0" r="66.9079224235458"/>
    <circle cx="360.0" cy="360.0" r="67.92530987226385"/>
    <circle cx="370.0" cy="370.0" r="68.43605972537347"/>
    <circle cx="380.0" cy="380.0" r="68.43605972537348"/>
    <circle cx="390.0" cy="390.0" r="67.92530987226385"/>
    <circle cx="400.0" cy="400.0" r="66.9079224235458"/>
    <circle cx="410.0" cy="410.0" r="65.39208878474226"/>
    <circle cx="420.0" cy="420.0" r="63.39001355701712"/>
    <circle cx="430.0" cy="430.0" r="60.91781627290286"/>
    <circle cx="440.0" cy="440.0" r="57.995401611302725"/>
    <circle cx="450.0" cy="450.0" r="54.6462991367199"/>
    <circle cx="460.0" cy="460.0" r="50.897473853039365"/>
    <circle cx="470.0" cy="470.0" r="46.779109097171755"/>
    <circle cx="480.0" cy="480.0" r="42.32436352057205"/>
    <circle cx="490.0" cy="490.0" r="37.569104115275046"/>
    <circle cx="500.0" cy="500.0" r="32.55161743396495"/>
    <circle cx="510.0" cy="510.0" r="27.31230132916527"/>
    <circle cx="520.0" cy="520.0" r="21.893339693483878"/>
    <circle cx="530.0" cy="530.0" r="16.338362819713435"/>
    <circle cx="540.0" cy="540.0" r="10.692096115368035"/>
    <circle cx="550.0" cy="550.0" r="5.000000000000008"/>
    <circle cx="400.0" cy="100.0" r="5.0"/>
    <circle cx="410.0" cy="110.0" r="7.465080994844421"/>
    <circle cx="420.0" cy="120.0" r="9.910314606962508"/>
    <circle cx="430.0" cy="130.0" r="12.316013253083565"/>
    <circle cx="440.0" cy="140.0" r="14.662807662236924"/>
    <circle cx="450.0" cy="150.0" r="16.93180282573285"/>
    <circle cx="460.0" cy="160.0" r="19.104730128662418"/>
    <circle cx="470.0" cy="170.0" r="21.164094438043012"/>
    <circle cx="480.0" cy="180.0" r="23.093314963342095"/>
    <circle cx="490.0" cy="190.0" r="24.876858755253263"/>
    <circle cx="500.0" cy="200.0" r="26.500365767870818"/>
    <circle cx="510.0" cy="210.0" r="27.950764477335824"/>
    <circle cx="520.0" cy="220.0" r="29.216377126060294"/>
    <circle cx="530.0" cy="230.0" r="30.28701374516489"/>
    <circle cx="540.0" cy="240.0" r="31.15405419811672"/>
    <circle cx="550.0" cy="250.0" r="31.81051758500015"/>
    <circle cx="560.0" cy="260.0" r="32.2511184486182"/>
    <circle cx="570.0" cy="270.0" r="32.47230932988615"/>
    <circle cx="580.0" cy="280.0" r="32.47230932988616"/>
    <circle cx="590.0" cy="290.0" r="32.25111844861821"/>
    <circle cx="600.0" cy="300.0" r="31.81051758500015"/>
    <circle cx="610.0" cy="310.0" r="31.154054198116725"/>
    <circle cx="620.0" cy="320.0" r="30.287013745164895"/>
    <circle cx="630.0" cy="330.0" r="29.216377126060294"/>
    <circle cx="640.0" cy="340.0" r="27.950764477335827"/>
    <circle cx="650.0" cy="350.0" r="26.50036576787082"/>
    <circle cx="660.0" cy="360.0" r="24.876858755253267"/>
    <circle cx="670.0" cy="370.0" r="23.0933149633421"/>
    <circle cx="680.0" cy="380.0" r="21.164094438043016"/>
    <circle cx="690.0" cy="390.0" r="19.10473012866242"/>
    <circle cx="700.0" cy="400.0" r="16.931802825732852"/>
    <circle cx="710.0" cy="410.0" r="14.662807662236927"/>
    <circle cx="720.0" cy="420.0" r="12.316013253083568"/>
    <circle cx="730.0" cy="430.0" r="9.910314606962512"/>
    <circle cx="740.0" cy="440.0" r="7.465080994844424"/>
    <circle cx="750.0" cy="450.0" r="5.0000000000000036"/>
    <circle cx="400.0" cy="400.0" r="5.0"/>
    <circle cx="410.0" cy="410.0" r="8.72003131949249"/>
    <circle cx="420.0" cy="420.0" r="12.41011113414342"/>
    <circle cx="430.0" cy="430.0" r="16.040529091017017"/>
    <circle cx="440.0" cy="440.0" r="19.582055199375723"/>
    <circle cx="450.0" cy="450.0" r="23.00617517337866"/>
    <circle cx="460.0" cy="460.0" r="26.285320012345103"/>
    <circle cx="470.0" cy="470.0" r="29.393087970137636"/>
    <circle cx="480.0" cy="480.0" r="32.30445712649807"/>
    <circle cx="490.0" cy="490.0" r="34.99598684883674"/>
    <circle cx="500.0" cy="500.0" r="37.44600652242324"/>
    <circle cx="510.0" cy="510.0" r="39.63479002943406"/>
    <circle cx="520.0" cy="520.0" r="41.54471457205463"/>
    <circle cx="530.0" cy="530.0" r="43.160402560885196"/>
    <circle cx="540.0" cy="540.0" r="44.46884542624887"/>
    <circle cx="550.0" cy="550.0" r="45.45950835554568"/>
    <circle cx="560.0" cy="560.0" r="46.12441511336929"/>
    <circle cx="570.0" cy="570.0" r="46.45821226146455"/>
    <circle cx="580.0" cy="580.0" r="46.45821226146456"/>
    <circle cx="590.0" cy="590.0" r="46.124415113369295"/>
    <circle cx="600.0" cy="600.0" r="45.45950835554568"/>
    <circle cx="610.0" cy="610.0" r="44.468845426248876"/>
    <circle cx="620.0" cy="620.0" r="43.1604025608852"/>
    <circle cx="630.0" cy="630.0" r="41.54471457205463"/>
    <circle cx="640.0" cy="640.0" r="39.634790029434065"/>
    <circle cx="650.0" cy="650.0" r="37.44600652242324"/>
    <circle cx="660.0" cy="660.0" r="34.99598684883675"/>
    <circle cx="670.0" cy="670.0" r="32.30445712649808"/>
    <circle cx="680.0" cy="680.0" r="29.39308797013764"/>
    <circle cx="690.0" cy="690.0" r="26.28532001234511"/>
    <circle cx="700.0" cy="700.0" r="23.006175173378665"/>
    <circle cx="710.0" cy="710.0" r="19.582055199375723"/>
    <circle cx="720.0" cy="720.0" r="16.04052909101702"/>
    <circle cx="730.0" cy="730.0" r="12.410111134143426"/>
    <circle cx="740.0" cy="740.0" r="8.720031319492495"/>
    <circle cx="750.0" cy="750.0" r="5.000000000000005"/>
    <circle cx="400.0" cy="700.0" r="5.0"/>
    <circle cx="410.0" cy="710.0" r="9.078588555106224"/>
    <circle cx="420.0" cy="720.0" r="13.124338713337968"/>
    <circle cx="430.0" cy="730.0" r="17.104676473283718"/>
    <circle cx="440.0" cy="740.0" r="20.98755449570109"/>
    <circle cx="450.0" cy="750.0" r="24.741710129848894"/>
    <circle cx="460.0" cy="760.0" r="28.336917121968728"/>
    <circle cx="470.0" cy="770.0" r="31.74422897930753"/>
    <circle cx="480.0" cy="780.0" r="34.936212030256925"/>
    <circle cx="450.0" cy="700.0" r="5.0"/>
    <circle cx="460.0" cy="710.0" r="8.585572356137341"/>
    <circle cx="470.0" cy="720.0" r="12.142275791945465"/>
    <circle cx="480.0" cy="730.0" r="15.641473822667004"/>
    <circle cx="490.0" cy="740.0" r="19.054992963253707"/>
    <circle cx="500.0" cy="750.0" r="22.355349564702326"/>
    <circle cx="510.0" cy="760.0" r="25.515971096236246"/>
    <circle cx="520.0" cy="770.0" r="28.511410091698927"/>
    <circle cx="530.0" cy="780.0" r="31.317549037588503"/>
    <circle cx="500.0" cy="200.0" r="5.0"/>
    <circle cx="510.0" cy="210.0" r="8.630392010589055"/>
    <circle cx="520.0" cy="220.0" r="12.231554239344785"/>
    <circle cx="530.0" cy="230.0" r="15.774492245450343"/>
    <circle cx="540.0" cy="240.0" r="19.230680375294376"/>
    <circle cx="550.0" cy="250.0" r="22.572291434261103"/>
    <circle cx="560.0" cy="260.0" r="25.7724207349392"/>
    <circle cx="570.0" cy="270.0" r="28.805302717845162"/>
    <circle cx="580.0" cy="280.0" r="31.64651840055836"/>
    <circle cx="590.0" cy="290.0" r="34.273191985009355"/>
    <circle cx="600.0" cy="300.0" r="36.66417503995521"/>
    <circle cx="610.0" cy="310.0" r="38.800216775712755"/>
    <circle cx="620.0" cy="320.0" r="40.66411904019789"/>
    <circle cx="630.0" cy="330.0" r="42.24087478833375"/>
    <circle cx="640.0" cy="340.0" r="43.517788909953715"/>
    <circle cx="650.0" cy="350.0" r="44.48458044336385"/>
    <circle cx="660.0" cy="360.0" r="45.13346535160136"/>
    <circle cx="670.0" cy="370.0" r="45.45921919492324"/>
    <circle cx="680.0" cy="380.0" r="45.45921919492324"/>
    <circle cx="690.0" cy="390.0" r="45.13346535160136"/>
    <circle cx="700.0" cy="400.0" r="44.48458044336385"/>
    <circle cx="710.0" cy="410.0" r="43.51778890995372"/>
    <circle cx="720.0" cy="420.0" r="42.240874788333755"/>
    <circle cx="730.0" cy="430.0" r="40.66411904019789"/>
    <circle cx="740.0" cy="440.0" r="38.80021677571276"/>
    <circle cx="750.0" cy="450.0" r="36.66417503995521"/>
    <circle cx="760.0" cy="460.0" r="34.27319198500936"/>
    <circle cx="770.0" cy="470.0" r="31.646518400558364"/>
    <circle cx="780.0" cy="480.0" r="28.805302717845166"/>
    <circle cx="790.0" cy="490.0" r="25.772420734939203"/>
    <circle cx="800.0" cy="500.0" r="22.572291434261107"/>
    <circle cx="810.0" cy="510.0" r="19.230680375294384"/>
    <circle cx="820.0" cy="520.0" r="15.774492245450347"/>
    <circle cx="830.0" cy="530.0" r="12.231554239344788"/>
    <circle cx="840.0" cy="540.0" r="8.630392010589063"/>
    <circle cx="850.0" cy="550.0" r="5.000000000000005"/>
    <circle cx="500.0" cy="350.0" r="5.0"/>
    <circle cx="510.0" cy="360.0" r="8.002916848265022"/>
    <circle cx="520.0" cy="370.0" r="10.981655975754329"/>
    <circle cx="530.0" cy="380.0" r="13.912234326483617"/>
    <circle cx="540.0" cy="390.0" r="16.77105660672498"/>
    <circle cx="550.0" cy="400.0" r="19.535105260438197"/>
    <circle cx="560.0" cy="410.0" r="22.182125793097857"/>
    <circle cx="570.0" cy="420.0" r="24.69080595179785"/>
    <circle cx="580.0" cy="430.0" r="27.040947318980372"/>
    <circle cx="590.0" cy="440.0" r="29.213627938217613"/>
    <circle cx="600.0" cy="450.0" r="31.191354662679"/>
    <circle cx="610.0" cy="460.0" r="32.95820399966364"/>
    <circle cx="620.0" cy="470.0" r="34.49995031720073"/>
    <circle cx="630.0" cy="480.0" r="35.804180380473596"/>
    <circle cx="640.0" cy="490.0" r="36.86039329588765"/>
    <circle cx="650.0" cy="500.0" r="37.66008505809109"/>
    <circle cx="660.0" cy="510.0" r="38.19681701922581"/>
    <circle cx="670.0" cy="520.0" r="38.46626772913404"/>
    <circle cx="680.0" cy="530.0" r="38.466267729134046"/>
    <circle cx="690.0" cy="540.0" r="38.19681701922582"/>
    <circle cx="700.0" cy="550.0" r="37.66008505809109"/>
    <circle cx="710.0" cy="560.0" r="36.86039329588765"/>
    <circle cx="720.0" cy="570.0" r="35.804180380473596"/>
    <circle cx="730.0" cy="580.0" r="34.49995031720073"/>
    <circle cx="740.0" cy="590.0" r="32.95820399966364"/>
    <circle cx="750.0" cy="600.0" r="31.191354662679004"/>
    <circle cx="760.0" cy="610.0" r="29.213627938217616"/>
    <circle cx="770.0" cy="620.0" r="27.040947318980376"/>
    <circle cx="780.0" cy="630.0" r="24.690805951797852"/>
    <circle cx="790.0" cy="640.0" r="22.18212579309786"/>
    <circle cx="800.0" cy="650.0" r="19.5351052604382"/>
    <circle cx="810.0" cy="660.0" r="16.771056606724983"/>
    <circle cx="820.0" cy="670.0" r="13.91223432648362"/>
    <circle cx="830.0" cy="680.0" r="10.981655975754332"/>
    <circle cx="840.0" cy="690.0" r="8.002916848265027"/>
    <circle cx="850.0" cy="700.0" r="5.000000000000004"/>
    <circle cx="650.0" cy="450.0" r="5.0"/>
    <circle cx="660.0" cy="460.0" r="8.182195466071889"/>
    <circle cx="670.0" cy="470.0" r="11.3387697653516"/>
    <circle cx="680.0" cy="480.0" r="14.444308017616967"/>
    <circle cx="690.0" cy="490.0" r="17.473806254887663"/>
    <circle cx="700.0" cy="500.0" r="20.402872738673313"/>
    <circle cx="710.0" cy="510.0" r="23.207924347909668"/>
    <circle cx="720.0" cy="520.0" r="25.866376456382795"/>
    <circle cx="730.0" cy="530.0" r="28.356824770859795"/>
    <circle cx="740.0" cy="540.0" r="30.659217665872397"/>
    <circle cx="750.0" cy="550.0" r="32.75501762761506"/>
    <circle cx="760.0" cy="560.0" r="34.62735050710624"/>
    <circle cx="770.0" cy="570.0" r="36.2611413809142"/>
    <circle cx="780.0" cy="580.0" r="37.6432359255765"/>
    <circle cx="790.0" cy="590.0" r="38.76250632847795"/>
    <circle cx="800.0" cy="600.0" r="39.60994088245474"/>
    <circle cx="810.0" cy="610.0" r="40.178716542761684"/>
    <circle cx="820.0" cy="620.0" r="40.464253862216665"/>
    <circle cx="830.0" cy="630.0" r="40.46425386221667"/>
    <circle cx="840.0" cy="640.0" r="40.178716542761684"/>
    <circle cx="850.0" cy="650.0" r="39.60994088245474"/>
    <circle cx="860.0" cy="660.0" r="38.762506328477954"/>
    <circle cx="870.0" cy="670.0" r="37.6432359255765"/>
    <circle cx="880.0" cy="680.0" r="36.2611413809142"/>
    <circle cx="890.0" cy="690.0" r="34.62735050710624"/>
    <circle cx="900.0" cy="700.0" r="32.75501762761506"/>
    <circle cx="910.0" cy="710.0" r="30.6592176658724"/>
    <circle cx="920.0" cy="720.0" r="28.356824770859802"/>
    <circle cx="930.0" cy="730.0" r="25.8663764563828"/>
    <circle cx="940.0" cy="740.0" r="23.20792434790967"/>
    <circle cx="950.0" cy="750.0" r="20.402872738673317"/>
    <circle cx="960.0" cy="760.0" r="17.47380625488767"/>
    <circle cx="970.0" cy="770.0" r="14.44430801761697"/>
    <circle cx="980.0" cy="780.0" r="11.338769765351605"/>
    <circle cx="990.0" cy="790.0" r="8.182195466071894"/>
    <circle cx="1000.0" cy="800.0" r="5.000000000000004"/>
    <circle cx="700.0" cy="600.0" r="5.0"/>
    <circle cx="710.0" cy="610.0" r="8.72003131949249"/>
    <circle cx="720.0" cy="620.0" r="12.41011113414342"/>
    <circle cx="730.0" cy="630.0" r="16.040529091017017"/>
    <circle cx="740.0" cy="640.0" r="19.582055199375723"/>
    <circle cx="750.0" cy="650.0" r="23.00617517337866"/>
    <circle cx="760.0" cy="660.0" r="26.285320012345103"/>
    <circle cx="770.0" cy="670.0" r="29.393087970137636"/>
    <circle cx="780.0" cy="680.0" r="32.30445712649807"/>
    <circle cx="790.0" cy="690.0" r="34.99598684883674"/>
    <circle cx="800.0" cy="700.0" r="37.44600652242324"/>
    <circle cx="810.0" cy="710.0" r="39.63479002943406"/>
    <circle cx="820.0" cy="720.0" r="41.54471457205463"/>
    <circle cx="830.0" cy="730.0" r="43.160402560885196"/>
    <circle cx="840.0" cy="740.0" r="44.46884542624887"/>
    <circle cx="850.0" cy="750.0" r="45.45950835554568"/>
    <circle cx="860.0" cy="760.0" r="46.12441511336929"/>
    <circle cx="870.0" cy="770.0" r="46.45821226146455"/>
    <circle cx="900.0" cy="300.0" r="5.0"/>
    <circle cx="910.0" cy="310.0" r="11.140292659885194"/>
    <circle cx="920.0" cy="320.0" r="17.231147293706613"/>
    <circle cx="930.0" cy="330.0" r="23.223523921317245"/>
    <circle cx="940.0" cy="340.0" r="29.069175449571976"/>
    <circle cx="950.0" cy="350.0" r="34.72103612955273"/>
    <circle cx="960.0" cy="360.0" r="40.13360050230457"/>
    <circle cx="970.0" cy="370.0" r="45.26328978203441"/>
    <circle cx="980.0" cy="380.0" r="50.06880272687031"/>
    <circle cx="990.0" cy="390.0" r="54.511448172176316"/>
    <circle cx="1000.0" cy="400.0" r="58.55545654906004"/>
    <circle cx="1010.0" cy="410.0" r="62.16826787990923"/>
    <circle cx="1020.0" cy="420.0" r="65.32079393218655"/>
    <circle cx="1030.0" cy="430.0" r="67.98765241977436"/>
    <circle cx="950.0" cy="100.0" r="5.0"/>
    <circle cx="960.0" cy="110.0" r="8.137375811620172"/>
    <circle cx="970.0" cy="120.0" r="11.249491317952284"/>
    <circle cx="980.0" cy="130.0" r="14.31128959483363"/>
    <circle cx="990.0" cy="140.0" r="17.298118842846996"/>
    <circle cx="1000.0" cy="150.0" r="20.185930869114536"/>
    <circle cx="1010.0" cy="160.0" r="22.951474709206714"/>
    <circle cx="1020.0" cy="170.0" r="25.57248383023656"/>
    <circle cx="1030.0" cy="180.0" r="28.02785540788994"/>
    <circle cx="1040.0" cy="190.0" r="30.2978202339587"/>
    <circle cx="1050.0" cy="200.0" r="32.36410188638104"/>
    <circle cx="1060.0" cy="210.0" r="34.21006388024559"/>
    <circle cx="950.0" cy="150.0" r="5.0"/>
    <circle cx="960.0" cy="160.0" r="7.689179267103005"/>
    <circle cx="970.0" cy="170.0" r="10.356706843959099"/>
    <circle cx="980.0" cy="180.0" r="12.981105367000254"/>
    <circle cx="990.0" cy="190.0" r="15.54124472244028"/>
    <circle cx="1000.0" cy="200.0" r="18.016512173526742"/>
    <circle cx="1010.0" cy="210.0" r="20.386978322177185"/>
    <circle cx="1020.0" cy="220.0" r="22.633557568774194"/>
    <circle cx="1030.0" cy="230.0" r="24.738161778191376"/>
    <circle cx="1040.0" cy="240.0" r="26.68384591482174"/>
    <circle cx="1050.0" cy="250.0" r="28.454944474040893"/>
    <circle cx="1060.0" cy="260.0" r="30.03719761163908"/>
    <circle cx="950.0" cy="300.0" r="5.0"/>
    <circle cx="960.0" cy="310.0" r="10.24389957085086"/>
    <circle cx="970.0" cy="320.0" r="15.445578345720245"/>
    <circle cx="980.0" cy="330.0" r="20.563155465650496"/>
    <circle cx="990.0" cy="340.0" r="25.555427208758548"/>
    <circle cx="1000.0" cy="350.0" r="30.38219873837715"/>
    <circle cx="1010.0" cy="360.0" r="35.00460772824551"/>
    <circle cx="1020.0" cy="370.0" r="39.38543725910968"/>
    <circle cx="1030.0" cy="380.0" r="43.48941546747319"/>
    <circle cx="1040.0" cy="390.0" r="47.2834995339024"/>
    <circle cx="950.0" cy="450.0" r="5.0"/>
    <circle cx="960.0" cy="460.0" r="10.24389957085086"/>
    <circle cx="970.0" cy="470.0" r="15.445578345720245"/>
    <circle cx="980.0" cy="480.0" r="20.563155465650496"/>
    <circle cx="990.0" cy="490.0" r="25.555427208758548"/>
    <circle cx="1000.0" cy="500.0" r="30.38219873837715"/>
    <circle cx="1010.0" cy="510.0" r="35.00460772824551"/>
    <circle cx="1020.0" cy="520.0" r="39.38543725910968"/>
    <circle cx="1030.0" cy="530.0" r="43.48941546747319"/>
    <circle cx="1040.0" cy="540.0" r="47.2834995339024"/>
    <circle cx="1050.0" cy="550.0" r="5.0"/>
    <circle cx="1060.0" cy="560.0" r="7.868457884909872"/>
    <circle cx="1070.0" cy="570.0" r="10.713820633556374"/>
    <circle cx="1080.0" cy="580.0" r="13.513179058133604"/>
  </g>
</svg>
