<svg version="1.1" width="1150" height="870" xmlns="http://www.w3.org/2000/svg">
  <!-- Seed: 1974866344808880555 -->
  <g stroke="black" fill="none">
    <rect x="800.0" y="350.0" width="10" height="10"/>
    <rect x="900.0" y="450.0" width="10" height="10"/>
    <rect x="700.0" y="300.0" width="10" height="10"/>
    <rect x="600.0" y="600.0" width="10" height="10"/>
    <rect x="950.0" y="200.0" width="10" height="10"/>
    <rect x="450.0" y="500.0" width="10" height="10"/>
    <rect x="950.0" y="150.0" width="10" height="10"/>
    <rect x="850.0" y="500.0" width="10" height="10"/>
    <rect x="1000.0" y="750.0" width="10" height="10"/>
    <rect x="550.0" y="150.0" width="10" height="10"/>
    <rect x="150.0" y="350.0" width="10" height="10"/>
    <rect x="700.0" y="750.0" width="10" height="10"/>
    <rect x="250.0" y="100.0" width="10" height="10"/>
    <rect x="300.0" y="650.0" width="10" height="10"/>
    <rect x="1000.0" y="100.0" width="10" height="10"/>
    <rect x="850.0" y="250.0" width="10" height="10"/>
    <rect x="850.0" y="650.0" width="10" height="10"/>
    <rect x="750.0" y="450.0" width="10" height="10"/>
    <rect x="400.0" y="200.0" width="10" height="10"/>
    <rect x="850.0" y="50.0" width="10" height="10"/>
    <circle cx="150.0" cy="350.0" r="5.0"/>
    <circle cx="160.0" cy="360.0" r="11.58848920440236"/>
    <circle cx="170.0" cy="370.0" r="18.123931767699794"/>
    <circle cx="180.0" cy="380.0" r="24.553708149150623"/>
    <circle cx="190.0" cy="390.0" r="30.826049569978686"/>
    <circle cx="200.0" cy="400.0" r="36.89045482514052"/>
    <circle cx="210.0" cy="410.0" r="42.6980968893341"/>
    <circle cx="220.0" cy="420.0" r="48.202216043496776"/>
    <circle cx="230.0" cy="430.0" r="53.35849635656888"/>
    <circle cx="240.0" cy="440.0" r="58.12542249131327"/>
    <circle cx="250.0" cy="450.0" r="62.46461396140019"/>
    <circle cx="260.0" cy="460.0" r="66.34113414851575"/>
    <circle cx="270.0" cy="470.0" r="69.72377159147024"/>
    <circle cx="280.0" cy="480.0" r="72.58529128253161"/>
    <circle cx="290.0" cy="490.0" r="74.90265394769378"/>
    <circle cx="300.0" cy="500.0" r="76.65720154536403"/>
    <circle cx="310.0" cy="510.0" r="77.8348074899432"/>
    <circle cx="320.0" cy="520.0" r="78.42599039078662"/>
    <circle cx="330.0" cy="530.0" r="78.42599039078664"/>
    <circle cx="340.0" cy="540.0" r="77.8348074899432"/>
    <circle cx="350.0" cy="550.0" r="76.65720154536403"/>
    <circle cx="360.0" cy="560.0" r="74.90265394769379"/>
    <circle cx="370.0" cy="570.0" r="72.58529128253163"/>
    <circle cx="380.0" cy="580.0" r="69.72377159147024"/>
    <circle cx="390.0" cy="590.0" r="66.34113414851575"/>
    <circle cx="400.0" cy="600.0" r="62.4646139614002"/>
    <circle cx="410.0" cy="610.0" r="58.12542249131328"/>
    <circle cx="420.0" cy="620.0" r="53.358496356568885"/>
    <circle cx="430.0" cy="630.0" r="48.20221604349678"/>
    <circle cx="440.0" cy="640.0" r="42.69809688933411"/>
    <circle cx="450.0" cy="650.0" r="36.89045482514053"/>
    <circle cx="460.0" cy="660.0" r="30.826049569978696"/>
    <circle cx="470.0" cy="670.0" r="24.55370814915063"/>
    <circle cx="480.0" cy="680.0" r="18.1239317676998"/>
    <circle cx="490.0" cy="690.0" r="11.588489204402372"/>
    <circle cx="500.0" cy="700.0" r="5.000000000000009"/>
    <circle cx="250.0" cy="100.0" r="5.0"/>
    <circle cx="260.0" cy="110.0" r="8.630392010589055"/>
    <circle cx="270.0" cy="120.0" r="12.231554239344785"/>
    <circle cx="280.0" cy="130.0" r="15.774492245450343"/>
    <circle cx="290.0" cy="140.0" r="19.230680375294376"/>
    <circle cx="300.0" cy="150.0" r="22.572291434261103"/>
    <circle cx="310.0" cy="160.0" r="25.7724207349392"/>
    <circle cx="320.0" cy="170.0" r="28.805302717845162"/>
    <circle cx="330.0" cy="180.0" r="31.64651840055836"/>
    <circle cx="340.0" cy="190.0" r="34.273191985009355"/>
    <circle cx="350.0" cy="200.0" r="36.66417503995521"/>
    <circle cx="360.0" cy="210.0" r="38.800216775712755"/>
    <circle cx="370.0" cy="220.0" r="40.66411904019789"/>
    <circle cx="380.0" cy="230.0" r="42.24087478833375"/>
    <circle cx="390.0" cy="240.0" r="43.517788909953715"/>
    <circle cx="400.0" cy="250.0" r="44.48458044336385"/>
    <circle cx="410.0" cy="260.0" r="45.13346535160136"/>
    <circle cx="420.0" cy="270.0" r="45.45921919492324"/>
    <circle cx="430.0" cy="280.0" r="45.45921919492324"/>
    <circle cx="440.0" cy="290.0" r="45.13346535160136"/>
    <circle cx="450.0" cy="300.0" r="44.48458044336385"/>
    <circle cx="460.0" cy="310.0" r="43.51778890995372"/>
    <circle cx="470.0" cy="320.0" r="42.240874788333755"/>
    <circle cx="480.0" cy="330.0" r="40.66411904019789"/>
    <circle cx="490.0" cy="340.0" r="38.80021677571276"/>
    <circle cx="500.0" cy="350.0" r="36.66417503995521"/>
    <circle cx="510.0" cy="360.0" r="34.27319198500936"/>
    <circle cx="520.0" cy="370.0" r="31.646518400558364"/>
    <circle cx="530.0" cy="380.0" r="28.805302717845166"/>
    <circle cx="540.0" cy="390.0" r="25.772420734939203"/>
    <circle cx="550.0" cy="400.0" r="22.572291434261107"/>
    <circle cx="560.0" cy="410.0" r="19.230680375294384"/>
    <circle cx="570.0" cy="420.0" r="15.774492245450347"/>
    <circle cx="580.0" cy="430.0" r="12.231554239344788"/>
    <circle cx="590.0" cy="440.0" r="8.630392010589063"/>
    <circle cx="600.0" cy="450.0" r="5.000000000000005"/>
    <circle cx="300.0" cy="650.0" r="5.0"/>
    <circle cx="310.0" cy="660.0" r="10.961014042078327"/>
    <circle cx="320.0" cy="670.0" r="16.874033504109338"/>
    <circle cx="330.0" cy="680.0" r="22.691450230183897"/>
    <circle cx="340.0" cy="690.0" r="28.36642580140929"/>
    <circle cx="350.0" cy="700.0" r="33.85326865131762"/>
    <circle cx="360.0" cy="710.0" r="39.10780194749276"/>
    <circle cx="370.0" cy="720.0" r="44.087719277449466"/>
    <circle cx="380.0" cy="730.0" r="48.752925274990886"/>
    <circle cx="390.0" cy="740.0" r="53.06585844452153"/>
    <circle cx="400.0" cy="750.0" r="56.99179358412398"/>
    <circle cx="400.0" cy="200.0" r="5.0"/>
    <circle cx="410.0" cy="210.0" r="9.526785099623392"/>
    <circle cx="420.0" cy="220.0" r="14.017123187331151"/>
    <circle cx="430.0" cy="230.0" r="18.434860701117096"/>
    <circle cx="440.0" cy="240.0" r="22.744428616107804"/>
    <circle cx="450.0" cy="250.0" r="26.911128825436684"/>
    <circle cx="460.0" cy="260.0" r="30.90141350899826"/>
    <circle cx="470.0" cy="270.0" r="34.68315524076989"/>
    <circle cx="480.0" cy="280.0" r="38.22590565995549"/>
    <circle cx="490.0" cy="290.0" r="41.50114062328327"/>
    <circle cx="500.0" cy="300.0" r="44.482489864635504"/>
    <circle cx="510.0" cy="310.0" r="47.14594931292579"/>
    <circle cx="520.0" cy="320.0" r="49.47007435876527"/>
    <circle cx="530.0" cy="330.0" r="51.436152513848256"/>
    <circle cx="540.0" cy="340.0" r="53.02835407290525"/>
    <circle cx="550.0" cy="350.0" r="54.233859565182094"/>
    <circle cx="560.0" cy="360.0" r="55.0429629692807"/>
    <circle cx="570.0" cy="370.0" r="55.449149860336384"/>
    <circle cx="580.0" cy="380.0" r="55.44914986033639"/>
    <circle cx="590.0" cy="390.0" r="55.04296296928071"/>
    <circle cx="600.0" cy="400.0" r="54.233859565182094"/>
    <circle cx="610.0" cy="410.0" r="53.02835407290526"/>
    <circle cx="620.0" cy="420.0" r="51.436152513848256"/>
    <circle cx="630.0" cy="430.0" r="49.47007435876527"/>
    <circle cx="640.0" cy="440.0" r="47.14594931292579"/>
    <circle cx="650.0" cy="450.0" r="44.48248986463551"/>
    <circle cx="660.0" cy="460.0" r="41.50114062328328"/>
    <circle cx="670.0" cy="470.0" r="38.225905659955494"/>
    <circle cx="680.0" cy="480.0" r="34.6831552407699"/>
    <circle cx="690.0" cy="490.0" r="30.901413508998264"/>
    <circle cx="700.0" cy="500.0" r="26.91112882543669"/>
    <circle cx="710.0" cy="510.0" r="22.74442861610781"/>
    <circle cx="720.0" cy="520.0" r="18.4348607011171"/>
    <circle cx="730.0" cy="530.0" r="14.017123187331157"/>
    <circle cx="740.0" cy="540.0" r="9.526785099623398"/>
    <circle cx="750.0" cy="550.0" r="5.000000000000006"/>
    <circle cx="450.0" cy="500.0" r="5.0"/>
    <circle cx="460.0" cy="510.0" r="7.375441685940988"/>
    <circle cx="470.0" cy="520.0" r="9.731757712163871"/>
    <circle cx="480.0" cy="530.0" r="12.04997640751689"/>
    <circle cx="490.0" cy="540.0" r="14.31143283815558"/>
    <circle cx="500.0" cy="550.0" r="16.49791908661529"/>
    <circle cx="510.0" cy="560.0" r="18.59183085125651"/>
    <circle cx="520.0" cy="570.0" r="20.57630918575054"/>
    <circle cx="530.0" cy="580.0" r="22.435376237402384"/>
    <circle cx="540.0" cy="590.0" r="24.154063891425874"/>
    <circle cx="550.0" cy="600.0" r="25.71853428540279"/>
    <circle cx="560.0" cy="610.0" r="27.11619122361452"/>
    <circle cx="570.0" cy="620.0" r="28.335781594203556"/>
    <circle cx="580.0" cy="630.0" r="29.36748597261344"/>
    <circle cx="590.0" cy="640.0" r="30.202997681821568"/>
    <circle cx="600.0" cy="650.0" r="30.835589672818326"/>
    <circle cx="610.0" cy="660.0" r="31.26016868685027"/>
    <circle cx="620.0" cy="670.0" r="31.473316263344838"/>
    <circle cx="630.0" cy="680.0" r="31.473316263344838"/>
    <circle cx="640.0" cy="690.0" r="31.26016868685027"/>
    <circle cx="650.0" cy="700.0" r="30.835589672818326"/>
    <circle cx="660.0" cy="710.0" r="30.20299768182157"/>
    <circle cx="670.0" cy="720.0" r="29.367485972613444"/>
    <circle cx="680.0" cy="730.0" r="28.335781594203556"/>
    <circle cx="690.0" cy="740.0" r="27.11619122361452"/>
    <circle cx="700.0" cy="750.0" r="25.718534285402793"/>
    <circle cx="710.0" cy="760.0" r="24.154063891425878"/>
    <circle cx="720.0" cy="770.0" r="22.435376237402387"/>
    <circle cx="730.0" cy="780.0" r="20.57630918575054"/>
    <circle cx="740.0" cy="790.0" r="18.591830851256518"/>
    <circle cx="750.0" cy="800.0" r="16.49791908661529"/>
    <circle cx="550.0" cy="150.0" r="5.0"/>
    <circle cx="560.0" cy="160.0" r="10.557637152012877"/>
    <circle cx="570.0" cy="170.0" r="16.070527477515473"/>
    <circle cx="580.0" cy="180.0" r="21.494284425133856"/>
    <circle cx="590.0" cy="190.0" r="26.785239093043245"/>
    <circle cx="600.0" cy="200.0" r="31.900791825288604"/>
    <circle cx="610.0" cy="210.0" r="36.799755199166185"/>
    <circle cx="620.0" cy="220.0" r="41.442685642133334"/>
    <circle cx="630.0" cy="230.0" r="45.79220100826218"/>
    <circle cx="640.0" cy="240.0" r="49.81328155729827"/>
    <circle cx="650.0" cy="250.0" r="53.47355191301785"/>
    <circle cx="660.0" cy="260.0" r="56.743541730720764"/>
    <circle cx="670.0" cy="270.0" r="59.59692297511776"/>
    <circle cx="680.0" cy="280.0" r="62.010721898189935"/>
    <circle cx="690.0" cy="290.0" r="63.96550401029952"/>
    <circle cx="700.0" cy="300.0" r="65.44553055527307"/>
    <circle cx="710.0" cy="310.0" r="66.43888522961194"/>
    <circle cx="720.0" cy="320.0" r="66.9375701255615"/>
    <circle cx="730.0" cy="330.0" r="66.9375701255615"/>
    <circle cx="740.0" cy="340.0" r="66.43888522961196"/>
    <circle cx="750.0" cy="350.0" r="65.44553055527307"/>
    <circle cx="760.0" cy="360.0" r="63.965504010299526"/>
    <circle cx="770.0" cy="370.0" r="62.01072189818994"/>
    <circle cx="780.0" cy="380.0" r="59.59692297511776"/>
    <circle cx="790.0" cy="390.0" r="56.74354173072077"/>
    <circle cx="800.0" cy="400.0" r="53.47355191301786"/>
    <circle cx="810.0" cy="410.0" r="49.813281557298275"/>
    <circle cx="820.0" cy="420.0" r="45.79220100826219"/>
    <circle cx="830.0" cy="430.0" r="41.44268564213334"/>
    <circle cx="840.0" cy="440.0" r="36.799755199166185"/>
    <circle cx="850.0" cy="450.0" r="31.90079182528861"/>
    <circle cx="860.0" cy="460.0" r="26.785239093043252"/>
    <circle cx="870.0" cy="470.0" r="21.494284425133863"/>
    <circle cx="880.0" cy="480.0" r="16.07052747751548"/>
    <circle cx="890.0" cy="490.0" r="10.557637152012884"/>
    <circle cx="900.0" cy="500.0" r="5.000000000000008"/>
    <circle cx="600.0" cy="600.0" r="5.0"/>
    <circle cx="610.0" cy="610.0" r="9.706063717430258"/>
    <circle cx="620.0" cy="620.0" r="14.374236976928424"/>
    <circle cx="630.0" cy="630.0" r="18.966934392250444"/>
    <circle cx="640.0" cy="640.0" r="23.44717826427049"/>
    <circle cx="650.0" cy="650.0" r="27.7788963036718"/>
    <circle cx="660.0" cy="660.0" r="31.92721206381007"/>
    <circle cx="670.0" cy="670.0" r="35.85872574535484"/>
    <circle cx="680.0" cy="680.0" r="39.54178311183491"/>
    <circle cx="690.0" cy="690.0" r="42.946730350938054"/>
    <circle cx="700.0" cy="700.0" r="46.04615282957157"/>
    <circle cx="710.0" cy="710.0" r="48.81509582036839"/>
    <circle cx="720.0" cy="720.0" r="51.23126542247874"/>
    <circle cx="730.0" cy="730.0" r="53.27520805895116"/>
    <circle cx="740.0" cy="740.0" r="54.93046710549556"/>
    <circle cx="750.0" cy="750.0" r="56.18371538954574"/>
    <circle cx="760.0" cy="760.0" r="57.024862492816574"/>
    <circle cx="700.0" cy="300.0" r="5.0"/>
    <circle cx="710.0" cy="310.0" r="10.557637152012877"/>
    <circle cx="720.0" cy="320.0" r="16.070527477515473"/>
    <circle cx="730.0" cy="330.0" r="21.494284425133856"/>
    <circle cx="740.0" cy="340.0" r="26.785239093043245"/>
    <circle cx="750.0" cy="350.0" r="31.900791825288604"/>
    <circle cx="760.0" cy="360.0" r="36.799755199166185"/>
    <circle cx="770.0" cy="370.0" r="41.442685642133334"/>
    <circle cx="780.0" cy="380.0" r="45.79220100826218"/>
    <circle cx="790.0" cy="390.0" r="49.81328155729827"/>
    <circle cx="800.0" cy="400.0" r="53.47355191301785"/>
    <circle cx="810.0" cy="410.0" r="56.743541730720764"/>
    <circle cx="820.0" cy="420.0" r="59.59692297511776"/>
    <circle cx="830.0" cy="430.0" r="62.010721898189935"/>
    <circle cx="840.0" cy="440.0" r="63.96550401029952"/>
    <circle cx="850.0" cy="450.0" r="65.44553055527307"/>
    <circle cx="860.0" cy="460.0" r="66.43888522961194"/>
    <circle cx="870.0" cy="470.0" r="66.9375701255615"/>
    <circle cx="880.0" cy="480.0" r="66.9375701255615"/>
    <circle cx="890.0" cy="490.0" r="66.43888522961196"/>
    <circle cx="900.0" cy="500.0" r="65.44553055527307"/>
    <circle cx="910.0" cy="510.0" r="63.965504010299526"/>
    <circle cx="920.0" cy="520.0" r="62.01072189818994"/>
    <circle cx="930.0" cy="530.0" r="59.59692297511776"/>
    <circle cx="940.0" cy="540.0" r="56.74354173072077"/>
    <circle cx="950.0" cy="550.0" r="53.47355191301786"/>
    <circle cx="960.0" cy="560.0" r="49.813281557298275"/>
    <circle cx="970.0" cy="570.0" r="45.79220100826219"/>
    <circle cx="980.0" cy="580.0" r="41.44268564213334"/>
    <circle cx="990.0" cy="590.0" r="36.799755199166185"/>
    <circle cx="1000.0" cy="600.0" r="31.90079182528861"/>
    <circle cx="1010.0" cy="610.0" r="26.785239093043252"/>
    <circle cx="1020.0" cy="620.0" r="21.494284425133863"/>
    <circle cx="1030.0" cy="630.0" r="16.07052747751548"/>
    <circle cx="1040.0" cy="640.0" r="10.557637152012884"/>
    <circle cx="1050.0" cy="650.0" r="5.000000000000008"/>
    <circle cx="700.0" cy="750.0" r="5.0"/>
    <circle cx="710.0" cy="760.0" r="10.961014042078327"/>
    <circle cx="720.0" cy="770.0" r="16.874033504109338"/>
    <circle cx="730.0" cy="780.0" r="22.691450230183897"/>
    <circle cx="740.0" cy="790.0" r="28.36642580140929"/>
    <circle cx="750.0" cy="450.0" r="5.0"/>
    <circle cx="760.0" cy="460.0" r="7.689179267103005"/>
    <circle cx="770.0" cy="470.0" r="10.356706843959099"/>
    <circle cx="780.0" cy="480.0" r="12.981105367000254"/>
    <circle cx="790.0" cy="490.0" r="15.54124472244028"/>
    <circle cx="800.0" cy="500.0" r="18.016512173526742"/>
    <circle cx="810.0" cy="510.0" r="20.386978322177185"/>
    <circle cx="820.0" cy="520.0" r="22.633557568774194"/>
    <circle cx="830.0" cy="530.0" r="24.738161778191376"/>
    <circle cx="840.0" cy="540.0" r="26.68384591482174"/>
    <circle cx="850.0" cy="550.0" r="28.454944474040893"/>
    <circle cx="860.0" cy="560.0" r="30.03719761163908"/>
    <circle cx="870.0" cy="570.0" r="31.41786595570214"/>
    <circle cx="880.0" cy="580.0" r="32.58583317654352"/>
    <circle cx="890.0" cy="590.0" r="33.53169548885461"/>
    <circle cx="900.0" cy="600.0" r="34.24783736545471"/>
    <circle cx="910.0" cy="610.0" r="34.72849285303804"/>
    <circle cx="920.0" cy="620.0" r="34.96979199623944"/>
    <circle cx="930.0" cy="630.0" r="34.96979199623944"/>
    <circle cx="940.0" cy="640.0" r="34.72849285303805"/>
    <circle cx="950.0" cy="650.0" r="34.24783736545471"/>
    <circle cx="960.0" cy="660.0" r="33.53169548885461"/>
    <circle cx="970.0" cy="670.0" r="32.58583317654352"/>
    <circle cx="980.0" cy="680.0" r="31.41786595570214"/>
    <circle cx="990.0" cy="690.0" r="30.037197611639083"/>
    <circle cx="1000.0" cy="700.0" r="28.454944474040897"/>
    <circle cx="1010.0" cy="710.0" r="26.683845914821745"/>
    <circle cx="1020.0" cy="720.0" r="24.73816177819138"/>
    <circle cx="1030.0" cy="730.0" r="22.633557568774197"/>
    <circle cx="1040.0" cy="740.0" r="20.386978322177185"/>
    <circle cx="1050.0" cy="750.0" r="18.01651217352675"/>
    <circle cx="1060.0" cy="760.0" r="15.541244722440284"/>
    <circle cx="1070.0" cy="770.0" r="12.981105367000257"/>
    <circle cx="1080.0" cy="780.0" r="10.356706843959103"/>
    <circle cx="1090.0" cy="790.0" r="7.689179267103009"/>
    <circle cx="800.0" cy="350.0" r="5.0"/>
    <circle cx="810.0" cy="360.0" r="10.37835853420601"/>
    <circle cx="820.0" cy="370.0" r="15.7134136879182"/>
    <circle cx="830.0" cy="380.0" r="20.962210734000507"/>
    <circle cx="840.0" cy="390.0" r="26.08248944488056"/>
    <circle cx="850.0" cy="400.0" r="31.033024347053487"/>
    <circle cx="860.0" cy="410.0" r="35.77395664435437"/>
    <circle cx="870.0" cy="420.0" r="40.26711513754839"/>
    <circle cx="880.0" cy="430.0" r="44.47632355638275"/>
    <circle cx="890.0" cy="440.0" r="48.36769182964348"/>
    <circle cx="900.0" cy="450.0" r="51.909888948081786"/>
    <circle cx="910.0" cy="460.0" r="55.07439522327816"/>
    <circle cx="920.0" cy="470.0" r="57.83573191140428"/>
    <circle cx="930.0" cy="480.0" r="60.17166635308703"/>
    <circle cx="940.0" cy="490.0" r="62.06339097770921"/>
    <circle cx="950.0" cy="500.0" r="63.495674730909414"/>
    <circle cx="960.0" cy="510.0" r="64.45698570607608"/>
    <circle cx="970.0" cy="520.0" r="64.93958399247887"/>
    <circle cx="980.0" cy="530.0" r="64.93958399247887"/>
    <circle cx="990.0" cy="540.0" r="64.4569857060761"/>
    <circle cx="1000.0" cy="550.0" r="63.495674730909414"/>
    <circle cx="1010.0" cy="560.0" r="62.06339097770922"/>
    <circle cx="1020.0" cy="570.0" r="60.17166635308704"/>
    <circle cx="1030.0" cy="580.0" r="57.83573191140428"/>
    <circle cx="1040.0" cy="590.0" r="55.07439522327817"/>
    <circle cx="860.0" cy="60.0" r="9.213047518461375"/>
    <circle cx="870.0" cy="70.0" r="13.392174055535923"/>
    <circle cx="880.0" cy="80.0" r="17.50373174163373"/>
    <circle cx="890.0" cy="90.0" r="21.514616731823107"/>
    <circle cx="900.0" cy="100.0" r="25.392535738525233"/>
    <circle cx="910.0" cy="110.0" r="29.10626603807759"/>
    <circle cx="920.0" cy="120.0" r="32.62590685774624"/>
    <circle cx="930.0" cy="130.0" r="35.92312011916649"/>
    <circle cx="940.0" cy="140.0" r="38.971358599887395"/>
    <circle cx="950.0" cy="150.0" r="41.7460796759974"/>
    <circle cx="960.0" cy="160.0" r="44.22494292490122"/>
    <circle cx="970.0" cy="170.0" r="46.387989997266686"/>
    <circle cx="980.0" cy="180.0" r="48.21780530991818"/>
    <circle cx="990.0" cy="190.0" r="49.699656265872214"/>
    <circle cx="1000.0" cy="200.0" r="50.82161187254571"/>
    <circle cx="1010.0" cy="210.0" r="51.57463880309293"/>
    <circle cx="1020.0" cy="220.0" r="51.95267412744179"/>
    <circle cx="1030.0" cy="230.0" r="51.95267412744179"/>
    <circle cx="1040.0" cy="240.0" r="51.57463880309294"/>
    <circle cx="850.0" cy="250.0" r="5.0"/>
    <circle cx="860.0" cy="260.0" r="9.257867172913091"/>
    <circle cx="870.0" cy="270.0" r="13.481452502935241"/>
    <circle cx="880.0" cy="280.0" r="17.636750164417066"/>
    <circle cx="890.0" cy="290.0" r="21.690304143863777"/>
    <circle cx="900.0" cy="300.0" r="25.60947760808401"/>
    <circle cx="910.0" cy="310.0" r="29.362715676780542"/>
    <circle cx="920.0" cy="320.0" r="32.919799483892476"/>
    <circle cx="930.0" cy="330.0" r="36.25208948213635"/>
    <circle cx="940.0" cy="340.0" r="39.3327560318011"/>
    <circle cx="950.0" cy="350.0" r="42.13699541723142"/>
    <circle cx="960.0" cy="360.0" r="44.64222955176187"/>
    <circle cx="970.0" cy="370.0" r="46.82828776319506"/>
    <circle cx="980.0" cy="380.0" r="48.6775691961939"/>
    <circle cx="990.0" cy="390.0" r="50.17518452401979"/>
    <circle cx="1000.0" cy="400.0" r="51.30907582863662"/>
    <circle cx="1010.0" cy="410.0" r="52.0701136839769"/>
    <circle cx="1020.0" cy="420.0" r="52.45217066071244"/>
    <circle cx="1030.0" cy="430.0" r="52.45217066071245"/>
    <circle cx="1040.0" cy="440.0" r="52.070113683976906"/>
    <circle cx="850.0" cy="500.0" r="5.0"/>
    <circle cx="860.0" cy="510.0" r="9.168227864009658"/>
    <circle cx="870.0" cy="520.0" r="13.302895608136604"/>
    <circle cx="880.0" cy="530.0" r="17.37071331885039"/>
    <circle cx="890.0" cy="540.0" r="21.338929319782434"/>
    <circle cx="900.0" cy="550.0" r="25.175593868966452"/>
    <circle cx="910.0" cy="560.0" r="28.849816399374635"/>
    <circle cx="920.0" cy="570.0" r="32.3320142316"/>
    <circle cx="930.0" cy="580.0" r="35.59415075619664"/>
    <circle cx="940.0" cy="590.0" r="38.6099611679737"/>
    <circle cx="950.0" cy="600.0" r="41.35516393476338"/>
    <circle cx="960.0" cy="610.0" r="43.80765629804057"/>
    <circle cx="970.0" cy="620.0" r="45.947692231338316"/>
    <circle cx="980.0" cy="630.0" r="47.75804142364245"/>
    <circle cx="990.0" cy="640.0" r="49.22412800772464"/>
    <circle cx="1000.0" cy="650.0" r="50.334147916454796"/>
    <circle cx="1010.0" cy="660.0" r="51.07916392220896"/>
    <circle cx="1020.0" cy="670.0" r="51.45317759417113"/>
    <circle cx="1030.0" cy="680.0" r="51.45317759417113"/>
    <circle cx="1040.0" cy="690.0" r="51.07916392220897"/>
    <circle cx="850.0" cy="650.0" r="5.0"/>
    <circle cx="860.0" cy="660.0" r="9.213047518461375"/>
    <circle cx="870.0" cy="670.0" r="13.392174055535923"/>
    <circle cx="880.0" cy="680.0" r="17.50373174163373"/>
    <circle cx="890.0" cy="690.0" r="21.514616731823107"/>
    <circle cx="900.0" cy="700.0" r="25.392535738525233"/>
    <circle cx="910.0" cy="710.0" r="29.10626603807759"/>
    <circle cx="920.0" cy="720.0" r="32.62590685774624"/>
    <circle cx="930.0" cy="730.0" r="35.92312011916649"/>
    <circle cx="940.0" cy="740.0" r="38.971358599887395"/>
    <circle cx="950.0" cy="750.0" r="41.7460796759974"/>
    <circle cx="960.0" cy="760.0" r="44.22494292490122"/>
    <circle cx="970.0" cy="770.0" r="46.387989997266686"/>
    <circle cx="900.0" cy="450.0" r="5.0"/>
    <circle cx="910.0" cy="460.0" r="9.347506481816524"/>
    <circle cx="920.0" cy="470.0" r="13.660009397733878"/>
    <circle cx="930.0" cy="480.0" r="17.902787009983744"/>
    <circle cx="940.0" cy="490.0" r="22.04167896794512"/>
    <circle cx="950.0" cy="500.0" r="26.043361347201568"/>
    <circle cx="960.0" cy="510.0" r="29.875614954186446"/>
    <circle cx="970.0" cy="520.0" r="33.507584736184945"/>
    <circle cx="980.0" cy="530.0" r="36.910028208076056"/>
    <circle cx="990.0" cy="540.0" r="40.055550895628485"/>
    <circle cx="1000.0" cy="550.0" r="42.91882689969945"/>
    <circle cx="1010.0" cy="560.0" r="45.47680280548318"/>
    <circle cx="1020.0" cy="570.0" r="47.70888329505179"/>
    <circle cx="1030.0" cy="580.0" r="49.597096968745355"/>
    <circle cx="1040.0" cy="590.0" r="51.126241040314945"/>
    <circle cx="950.0" cy="150.0" r="5.0"/>
    <circle cx="960.0" cy="160.0" r="10.423178188657726"/>
    <circle cx="970.0" cy="170.0" r="15.802692135317518"/>
    <circle cx="980.0" cy="180.0" r="21.095229156783844"/>
    <circle cx="990.0" cy="190.0" r="26.25817685692123"/>
    <circle cx="1000.0" cy="200.0" r="31.249966216612265"/>
    <circle cx="1010.0" cy="210.0" r="36.03040628305732"/>
    <circle cx="1020.0" cy="220.0" r="40.561007763694626"/>
    <circle cx="1030.0" cy="230.0" r="44.80529291935261"/>
    <circle cx="1040.0" cy="240.0" r="48.729089261557185"/>
    <circle cx="950.0" cy="200.0" r="5.0"/>
    <circle cx="960.0" cy="210.0" r="7.330622031489271"/>
    <circle cx="970.0" cy="220.0" r="9.642479264764553"/>
    <circle cx="980.0" cy="230.0" r="11.916957984733553"/>
    <circle cx="990.0" cy="240.0" r="14.13574542611491"/>
    <circle cx="1000.0" cy="250.0" r="16.28097721705651"/>
    <circle cx="1010.0" cy="260.0" r="18.335381212553557"/>
    <circle cx="1020.0" cy="270.0" r="20.2824165596043"/>
    <circle cx="1030.0" cy="280.0" r="22.106406874432526"/>
    <circle cx="1040.0" cy="290.0" r="23.792666459512176"/>
    <circle cx="1050.0" cy="300.0" r="25.327618544168775"/>
    <circle cx="1060.0" cy="310.0" r="26.69890459675387"/>
    <circle cx="1070.0" cy="320.0" r="27.89548382827519"/>
    <circle cx="1000.0" cy="100.0" r="5.0"/>
    <circle cx="1010.0" cy="110.0" r="9.571604754075107"/>
    <circle cx="1020.0" cy="120.0" r="14.106401634730469"/>
    <circle cx="1030.0" cy="130.0" r="18.567879123900433"/>
    <circle cx="1040.0" cy="140.0" r="22.920116028148477"/>
    <circle cx="1050.0" cy="150.0" r="27.128070694995465"/>
    <circle cx="1060.0" cy="160.0" r="31.157863147701214"/>
    <circle cx="1000.0" cy="750.0" r="5.0"/>
    <circle cx="1010.0" cy="760.0" r="11.454030241047212"/>
    <circle cx="1020.0" cy="770.0" r="17.85609642550184"/>
    <circle cx="1030.0" cy="780.0" r="24.154652880800608"/>
    <g stroke="red">
      <rect x="50" y="50" width="1050" height="770"/>
    </g>
  </g>
</svg>
