<svg version="1.1" width="1150" height="870" xmlns="http://www.w3.org/2000/svg">
  <!-- Seed: 6984776248710756681 -->
  <!-- Size: SvgSize.Size9x12 -->
  <!-- Params:
    draw_triangles: True
    pad: 0
    top_range_x: 300
    top_range_y: 100
    side_range_x: 300
    side_range_y: 200
    shrink_amt: 10
    rotate_range: [RangeFloat] min: 0 max: 180
  -->
  <g stroke="black" fill="none">
    <path d="M845.0337561923639 50.0 L82.47110690395334 619.9352510428107 L1012.4613807113192 820.0 L845.0337561923639 50.0"/>
    <path d="M840.9746028918422 59.139106875557616 L92.24055926481947 617.8003504435396 L1004.9689489948038 813.3770499795519 L840.9746028918422 59.139106875557616"/>
    <path d="M836.9154495913206 68.27821375111523 L102.01001162568559 615.6654498442687 L997.4765172782884 806.7540999591038 L836.9154495913206 68.27821375111523"/>
    <path d="M832.856296290799 77.41732062667285 L111.77946398655172 613.5305492449976 L989.9840855617729 800.1311499386557 L832.856296290799 77.41732062667285"/>
    <path d="M828.7971429902774 86.55642750223046 L121.54891634741773 611.3956486457266 L982.4916538452575 793.5081999182075 L828.7971429902774 86.55642750223046"/>
    <path d="M824.7379896897558 95.69553437778808 L131.31836870828386 609.2607480464555 L974.9992221287421 786.8852498977594 L824.7379896897558 95.69553437778808"/>
    <path d="M820.6788363892342 104.8346412533457 L141.08782106914998 607.1258474471845 L967.5067904122266 780.2622998773113 L820.6788363892342 104.8346412533457"/>
    <path d="M816.6196830887126 113.97374812890331 L150.85727343001605 604.9909468479135 L960.0143586957112 773.6393498568632 L816.6196830887126 113.97374812890331"/>
    <path d="M812.5605297881909 123.11285500446093 L160.62672579088218 602.8560462486424 L952.5219269791958 767.0163998364151 L812.5605297881909 123.11285500446093"/>
    <path d="M808.5013764876693 132.25196188001854 L170.39617815174824 600.7211456493715 L945.0294952626803 760.393449815967 L808.5013764876693 132.25196188001854"/>
    <path d="M804.4422231871476 141.39106875557616 L180.16563051261437 598.5862450501004 L937.5370635461649 753.7704997955188 L804.4422231871476 141.39106875557616"/>
    <path d="M800.3830698866261 150.53017563113377 L189.93508287348044 596.4513444508294 L930.0446318296495 747.1475497750708 L800.3830698866261 150.53017563113377"/>
    <path d="M796.3239165861045 159.6692825066914 L199.70453523434657 594.3164438515583 L922.552200113134 740.5245997546227 L796.3239165861045 159.6692825066914"/>
    <path d="M792.2647632855828 168.808389382249 L209.4739875952127 592.1815432522874 L915.0597683966186 733.9016497341746 L792.2647632855828 168.808389382249"/>
    <path d="M788.2056099850613 177.94749625780662 L219.24343995607876 590.0466426530163 L907.5673366801032 727.2786997137265 L788.2056099850613 177.94749625780662"/>
    <path d="M784.1464566845397 187.08660313336424 L229.01289231694489 587.9117420537452 L900.0749049635876 720.6557496932784 L784.1464566845397 187.08660313336424"/>
    <path d="M780.087303384018 196.22571000892185 L238.78234467781095 585.7768414544743 L892.5824732470722 714.0327996728303 L780.087303384018 196.22571000892185"/>
    <path d="M776.0281500834965 205.36481688447947 L248.55179703867708 583.6419408552032 L885.0900415305568 707.4098496523821 L776.0281500834965 205.36481688447947"/>
    <path d="M771.9689967829748 214.50392376003708 L258.32124939954315 581.5070402559322 L877.5976098140413 700.786899631934 L771.9689967829748 214.50392376003708"/>
    <path d="M767.9098434824532 223.6430306355947 L268.0907017604093 579.3721396566611 L870.1051780975259 694.1639496114859 L767.9098434824532 223.6430306355947"/>
    <path d="M763.8506901819316 232.7821375111523 L277.86015412127534 577.2372390573901 L862.6127463810105 687.5409995910379 L763.8506901819316 232.7821375111523"/>
    <path d="M759.79153688141 241.92124438670993 L287.62960648214147 575.1023384581191 L855.120314664495 680.9180495705898 L759.79153688141 241.92124438670993"/>
    <path d="M755.7323835808884 251.06035126226755 L297.39905884300754 572.967437858848 L847.6278829479796 674.2950995501417 L755.7323835808884 251.06035126226755"/>
    <path d="M751.6732302803667 260.19945813782516 L307.16851120387366 570.8325372595771 L840.1354512314642 667.6721495296936 L751.6732302803667 260.19945813782516"/>
    <path d="M747.6140769798451 269.3385650133828 L316.9379635647398 568.697636660306 L832.6430195149487 661.0491995092455 L747.6140769798451 269.3385650133828"/>
    <path d="M743.5549236793236 278.4776718889404 L326.70741592560586 566.562736061035 L825.1505877984333 654.4262494887973 L743.5549236793236 278.4776718889404"/>
    <path d="M739.4957703788019 287.616778764498 L336.476868286472 564.427835461764 L817.6581560819179 647.8032994683492 L739.4957703788019 287.616778764498"/>
    <path d="M735.4366170782803 296.7558856400556 L346.24632064733805 562.292934862493 L810.1657243654024 641.1803494479011 L735.4366170782803 296.7558856400556"/>
    <path d="M731.3774637777587 305.89499251561324 L356.0157730082042 560.1580342632219 L802.673292648887 634.557399427453 L731.3774637777587 305.89499251561324"/>
    <path d="M727.3183104772371 315.03409939117086 L365.78522536907025 558.0231336639508 L795.1808609323716 627.9344494070049 L727.3183104772371 315.03409939117086"/>
    <path d="M723.2591571767155 324.17320626672847 L375.5546777299364 555.8882330646799 L787.6884292158561 621.3114993865568 L723.2591571767155 324.17320626672847"/>
    <path d="M719.2000038761938 333.3123131422861 L385.32413009080244 553.7533324654088 L780.1959974993407 614.6885493661086 L719.2000038761938 333.3123131422861"/>
    <path d="M715.1408505756723 342.4514200178437 L395.09358245166857 551.6184318661378 L772.7035657828253 608.0655993456605 L715.1408505756723 342.4514200178437"/>
    <path d="M711.0816972751506 351.5905268934013 L404.8630348125347 549.4835312668667 L765.2111340663098 601.4426493252124 L711.0816972751506 351.5905268934013"/>
    <path d="M707.022543974629 360.72963376895893 L414.63248717340076 547.3486306675958 L757.7187023497944 594.8196993047644 L707.022543974629 360.72963376895893"/>
    <path d="M702.9633906741074 369.86874064451655 L424.40193953426683 545.2137300683247 L750.226270633279 588.1967492843163 L702.9633906741074 369.86874064451655"/>
    <path d="M698.9042373735858 379.00784752007417 L434.17139189513296 543.0788294690536 L742.7338389167635 581.5737992638682 L698.9042373735858 379.00784752007417"/>
    <path d="M694.8450840730642 388.1469543956318 L443.9408442559991 540.9439288697827 L735.2414072002481 574.9508492434201 L694.8450840730642 388.1469543956318"/>
    <path d="M690.7859307725425 397.2860612711894 L453.71029661686515 538.8090282705116 L727.7489754837327 568.327899222972 L690.7859307725425 397.2860612711894"/>
    <path d="M686.726777472021 406.425168146747 L463.4797489777312 536.6741276712406 L720.2565437672172 561.7049492025238 L686.726777472021 406.425168146747"/>
    <path d="M682.6676241714994 415.5642750223046 L473.24920133859735 534.5392270719695 L712.7641120507018 555.0819991820757 L682.6676241714994 415.5642750223046"/>
    <path d="M678.6084708709777 424.70338189786224 L483.01865369946347 532.4043264726986 L705.2716803341864 548.4590491616276 L678.6084708709777 424.70338189786224"/>
    <path d="M674.5493175704561 433.84248877341986 L492.7881060603296 530.2694258734275 L697.7792486176709 541.8360991411795 L674.5493175704561 433.84248877341986"/>
    <path d="M670.4901642699346 442.9815956489775 L502.55755842119567 528.1345252741564 L690.2868169011555 535.2131491207314 L670.4901642699346 442.9815956489775"/>
    <path d="M666.4310109694129 452.1207025245351 L512.3270107820617 525.9996246748855 L682.7943851846401 528.5901991002833 L666.4310109694129 452.1207025245351"/>
    <path d="M662.3718576688913 461.2598094000927 L522.0964631429279 523.8647240756144 L675.3019534681246 521.9672490798351 L662.3718576688913 461.2598094000927"/>
    <path d="M658.3127043683696 470.3989162756503 L531.865915503794 521.7298234763434 L667.8095217516092 515.3442990593871 L658.3127043683696 470.3989162756503"/>
    <path d="M654.2535510678481 479.53802315120794 L541.6353678646601 519.5949228770723 L660.3170900350938 508.72134903893897 L654.2535510678481 479.53802315120794"/>
    <path d="M650.1943977673264 488.67713002676555 L551.4048202255261 517.4600222778014 L652.8246583185783 502.09839901849085 L650.1943977673264 488.67713002676555"/>
  </g>
</svg>
