<svg version="1.1" width="1150" height="870" xmlns="http://www.w3.org/2000/svg">
  <!-- Seed: 5113747375523756029 -->
  <!-- Size: SvgSize.Size9x12 -->
  <!-- Params:
    draw_triangles: True
    pad: 0
    top_range_x: 300
    top_range_y: 100
    side_range_x: 300
    side_range_y: 200
    shrink_amt: 20
    rotate_range: [RangeFloat] min: 0 max: 180
  -->
  <g stroke="black" fill="none">
    <path d="M805.7234929542699 820.0 L756.3421379480005 98.63801664311839 L50.0 50.0 L805.7234929542699 820.0"/>
    <path d="M796.2226218302015 802.4007543376472 L742.3686367692745 112.94679942881132 L67.45072445169211 59.770988492016386 L796.2226218302015 802.4007543376472"/>
    <path d="M786.7217507061332 784.8015086752944 L728.3951355905485 127.25558221450427 L84.90144890338416 69.54197698403277 L786.7217507061332 784.8015086752944"/>
    <path d="M777.2208795820648 767.2022630129416 L714.4216344118225 141.56436500019723 L102.35217335507622 79.31296547604916 L777.2208795820648 767.2022630129416"/>
    <path d="M767.7200084579964 749.6030173505887 L700.4481332330965 155.87314778589018 L119.80289780676827 89.08395396806554 L767.7200084579964 749.6030173505887"/>
    <path d="M758.2191373339281 732.0037716882359 L686.4746320543704 170.1819305715831 L137.25362225846033 98.85494246008196 L758.2191373339281 732.0037716882359"/>
    <path d="M748.7182662098596 714.4045260258831 L672.5011308756445 184.49071335727606 L154.70434671015244 108.62593095209834 L748.7182662098596 714.4045260258831"/>
    <path d="M739.2173950857913 696.8052803635304 L658.5276296969184 198.79949614296902 L172.1550711618445 118.39691944411473 L739.2173950857913 696.8052803635304"/>
    <path d="M729.7165239617229 679.2060347011776 L644.5541285181924 213.10827892866195 L189.60579561353654 128.16790793613112 L729.7165239617229 679.2060347011776"/>
    <path d="M720.2156528376545 661.6067890388248 L630.5806273394664 227.41706171435493 L207.0565200652286 137.9388964281475 L720.2156528376545 661.6067890388248"/>
    <path d="M710.7147817135861 644.0075433764721 L616.6071261607404 241.72584450004786 L224.50724451692065 147.7098849201639 L710.7147817135861 644.0075433764721"/>
    <path d="M701.2139105895178 626.4082977141193 L602.6336249820145 256.03462728574084 L241.95796896861276 157.48087341218027 L701.2139105895178 626.4082977141193"/>
    <path d="M691.7130394654495 608.8090520517665 L588.6601238032885 270.34341007143377 L259.4086934203048 167.25186190419666 L691.7130394654495 608.8090520517665"/>
    <path d="M682.212168341381 591.2098063894136 L574.6866226245625 284.6521928571267 L276.85941787199687 177.02285039621304 L682.212168341381 591.2098063894136"/>
    <path d="M672.7112972173127 573.6105607270608 L560.7131214458365 298.9609756428197 L294.310142323689 186.79383888822943 L672.7112972173127 573.6105607270608"/>
    <path d="M663.2104260932443 556.011315064708 L546.7396202671105 313.2697584285126 L311.76086677538103 196.56482738024584 L663.2104260932443 556.011315064708"/>
  </g>
</svg>
