<svg version="1.1" width="1630" height="1060" xmlns="http://www.w3.org/2000/svg">
  <!-- Seed: 7840282841083530237 -->
  <!-- Size: SvgSize.Size11x17 -->
  <!-- Params:
    draw_worm: False
    draw_highlight: True
    draw_highlight2: False
    ring_distance: 10
    weight_rings: [(0, 1), (1, 1), (2, 0.5), (3, 0.1), (4, 0.05)]
    weight_border: [(<SpiralWormBorderType.Empty: 0>, 1), (<SpiralWormBorderType.Sunburst: 1>, 0.5), (<SpiralWormBorderType.Circles: 2>, 0.5)]
    h2_size: [RangeInt] min: 25 max: 100
    padding: 100
    spiral_rows: 4
    points_per_ring: 10
    rough_shuffle_range: 20
    fine_shuffle_range: 30
    rough_clamp_distance: 30
    subdivision_range: [RangeInt] min: 3 max: 7
    position_range: [RangeInt] min: 1 max: 50
    position_steps: 5
    ring_range: [RangeInt] min: 1 max: 4
  -->
  <g stroke="black" fill="none">
    <g stroke="blue">
      <circle cx="815" cy="530" r="380.0"/>
      <circle cx="1205.0" cy="530.0" r="5"/>
      <circle cx="1204.23" cy="554.49" r="5"/>
      <circle cx="1201.92" cy="578.88" r="5"/>
      <circle cx="1198.09" cy="603.08" r="5"/>
      <circle cx="1192.75" cy="626.99" r="5"/>
      <circle cx="1185.91" cy="650.52" r="5"/>
      <circle cx="1177.61" cy="673.57" r="5"/>
      <circle cx="1167.88" cy="696.05" r="5"/>
      <circle cx="1156.76" cy="717.88" r="5"/>
      <circle cx="1144.29" cy="738.97" r="5"/>
      <circle cx="1130.52" cy="759.24" r="5"/>
      <circle cx="1115.5" cy="778.6" r="5"/>
      <circle cx="1099.3" cy="796.97" r="5"/>
      <circle cx="1081.97" cy="814.3" r="5"/>
      <circle cx="1063.6" cy="830.5" r="5"/>
      <circle cx="1044.24" cy="845.52" r="5"/>
      <circle cx="1023.97" cy="859.29" r="5"/>
      <circle cx="1002.88" cy="871.76" r="5"/>
      <circle cx="981.05" cy="882.88" r="5"/>
      <circle cx="958.57" cy="892.61" r="5"/>
      <circle cx="935.52" cy="900.91" r="5"/>
      <circle cx="911.99" cy="907.75" r="5"/>
      <circle cx="888.08" cy="913.09" r="5"/>
      <circle cx="863.88" cy="916.92" r="5"/>
      <circle cx="839.49" cy="919.23" r="5"/>
      <circle cx="815.0" cy="920.0" r="5"/>
      <circle cx="790.51" cy="919.23" r="5"/>
      <circle cx="766.12" cy="916.92" r="5"/>
      <circle cx="741.92" cy="913.09" r="5"/>
      <circle cx="718.01" cy="907.75" r="5"/>
      <circle cx="694.48" cy="900.91" r="5"/>
      <circle cx="671.43" cy="892.61" r="5"/>
      <circle cx="648.95" cy="882.88" r="5"/>
      <circle cx="627.12" cy="871.76" r="5"/>
      <circle cx="606.03" cy="859.29" r="5"/>
      <circle cx="585.76" cy="845.52" r="5"/>
      <circle cx="566.4" cy="830.5" r="5"/>
      <circle cx="548.03" cy="814.3" r="5"/>
      <circle cx="530.7" cy="796.97" r="5"/>
      <circle cx="514.5" cy="778.6" r="5"/>
      <circle cx="499.48" cy="759.24" r="5"/>
      <circle cx="485.71" cy="738.97" r="5"/>
      <circle cx="473.24" cy="717.88" r="5"/>
      <circle cx="462.12" cy="696.05" r="5"/>
      <circle cx="452.39" cy="673.57" r="5"/>
      <circle cx="444.09" cy="650.52" r="5"/>
      <circle cx="437.25" cy="626.99" r="5"/>
      <circle cx="431.91" cy="603.08" r="5"/>
      <circle cx="428.08" cy="578.88" r="5"/>
      <circle cx="425.77" cy="554.49" r="5"/>
      <circle cx="425.0" cy="530.0" r="5"/>
      <circle cx="425.77" cy="505.51" r="5"/>
      <circle cx="428.08" cy="481.12" r="5"/>
      <circle cx="431.91" cy="456.92" r="5"/>
      <circle cx="437.25" cy="433.01" r="5"/>
      <circle cx="444.09" cy="409.48" r="5"/>
      <circle cx="452.39" cy="386.43" r="5"/>
      <circle cx="462.12" cy="363.95" r="5"/>
      <circle cx="473.24" cy="342.12" r="5"/>
      <circle cx="485.71" cy="321.03" r="5"/>
      <circle cx="499.48" cy="300.76" r="5"/>
      <circle cx="514.5" cy="281.4" r="5"/>
      <circle cx="530.7" cy="263.03" r="5"/>
      <circle cx="548.03" cy="245.7" r="5"/>
      <circle cx="566.4" cy="229.5" r="5"/>
      <circle cx="585.76" cy="214.48" r="5"/>
      <circle cx="606.03" cy="200.71" r="5"/>
      <circle cx="627.12" cy="188.24" r="5"/>
      <circle cx="648.95" cy="177.12" r="5"/>
      <circle cx="671.43" cy="167.39" r="5"/>
      <circle cx="694.48" cy="159.09" r="5"/>
      <circle cx="718.01" cy="152.25" r="5"/>
      <circle cx="741.92" cy="146.91" r="5"/>
      <circle cx="766.12" cy="143.08" r="5"/>
      <circle cx="790.51" cy="140.77" r="5"/>
      <circle cx="815.0" cy="140.0" r="5"/>
      <circle cx="839.49" cy="140.77" r="5"/>
      <circle cx="863.88" cy="143.08" r="5"/>
      <circle cx="888.08" cy="146.91" r="5"/>
      <circle cx="911.99" cy="152.25" r="5"/>
      <circle cx="935.52" cy="159.09" r="5"/>
      <circle cx="958.57" cy="167.39" r="5"/>
      <circle cx="981.05" cy="177.12" r="5"/>
      <circle cx="1002.88" cy="188.24" r="5"/>
      <circle cx="1023.97" cy="200.71" r="5"/>
      <circle cx="1044.24" cy="214.48" r="5"/>
      <circle cx="1063.6" cy="229.5" r="5"/>
      <circle cx="1081.97" cy="245.7" r="5"/>
      <circle cx="1099.3" cy="263.03" r="5"/>
      <circle cx="1115.5" cy="281.4" r="5"/>
      <circle cx="1130.52" cy="300.76" r="5"/>
      <circle cx="1144.29" cy="321.03" r="5"/>
      <circle cx="1156.76" cy="342.12" r="5"/>
      <circle cx="1167.88" cy="363.95" r="5"/>
      <circle cx="1177.61" cy="386.43" r="5"/>
      <circle cx="1185.91" cy="409.48" r="5"/>
      <circle cx="1192.75" cy="433.01" r="5"/>
      <circle cx="1198.09" cy="456.92" r="5"/>
      <circle cx="1201.92" cy="481.12" r="5"/>
      <circle cx="1204.23" cy="505.51" r="5"/>
    </g>
    <g stroke="red">
    </g>
  </g>
</svg>
