<svg version="1.1" width="1630" height="1060" xmlns="http://www.w3.org/2000/svg">
  <!-- Seed: 8570921248159868650 -->
  <g stroke="black" fill="none">
    <g stroke="blue">
      <circle cx="1195.0" cy="530.0" r="5"/>
      <circle cx="1194.2501568027433" cy="553.860397421139" r="5"/>
      <circle cx="1192.0035864995016" cy="577.6266287544356" r="5"/>
      <circle cx="1188.2691552769018" cy="601.2048995425754" r="5"/>
      <circle cx="1183.0616012288797" cy="624.5021571226448" r="5"/>
      <circle cx="1176.4014761921583" cy="647.42645786248" r="5"/>
      <circle cx="1168.3150646375357" cy="669.8873300201776" r="5"/>
      <circle cx="1158.8342799370873" cy="691.7961307947277" r="5"/>
      <circle cx="1147.996538416668" cy="713.0663961586519" r="5"/>
      <circle cx="1135.8446116907658" cy="733.6141820920187" r="5"/>
      <circle cx="1122.42645786248" cy="753.3583958711398" r="5"/>
      <circle cx="1107.7950322548" cy="772.221116104502" r="5"/>
      <circle cx="1092.0080784201364" cy="790.1279002529017" r="5"/>
      <circle cx="1075.1279002529018" cy="807.0080784201364" r="5"/>
      <circle cx="1057.221116104502" cy="822.7950322547999" r="5"/>
      <circle cx="1038.3583958711397" cy="837.42645786248" r="5"/>
      <circle cx="1018.6141820920187" cy="850.8446116907658" r="5"/>
      <circle cx="998.0663961586517" cy="862.9965384166683" r="5"/>
      <circle cx="976.7961307947276" cy="873.8342799370874" r="5"/>
      <circle cx="954.8873300201776" cy="883.3150646375354" r="5"/>
      <circle cx="932.42645786248" cy="891.4014761921583" r="5"/>
      <circle cx="909.5021571226449" cy="898.0616012288798" r="5"/>
      <circle cx="886.2048995425754" cy="903.2691552769018" r="5"/>
      <circle cx="862.6266287544356" cy="907.0035864995016" r="5"/>
      <circle cx="838.8603974211392" cy="909.2501568027433" r="5"/>
      <circle cx="815.0" cy="910.0" r="5"/>
      <circle cx="791.139602578861" cy="909.2501568027433" r="5"/>
      <circle cx="767.3733712455644" cy="907.0035864995016" r="5"/>
      <circle cx="743.7951004574246" cy="903.2691552769018" r="5"/>
      <circle cx="720.4978428773552" cy="898.0616012288799" r="5"/>
      <circle cx="697.57354213752" cy="891.4014761921584" r="5"/>
      <circle cx="675.1126699798224" cy="883.3150646375354" r="5"/>
      <circle cx="653.2038692052723" cy="873.8342799370873" r="5"/>
      <circle cx="631.9336038413481" cy="862.996538416668" r="5"/>
      <circle cx="611.3858179079812" cy="850.8446116907658" r="5"/>
      <circle cx="591.6416041288603" cy="837.42645786248" r="5"/>
      <circle cx="572.7788838954979" cy="822.7950322547999" r="5"/>
      <circle cx="554.8720997470982" cy="807.0080784201364" r="5"/>
      <circle cx="537.9919215798636" cy="790.1279002529018" r="5"/>
      <circle cx="522.2049677452001" cy="772.2211161045021" r="5"/>
      <circle cx="507.57354213752" cy="753.3583958711398" r="5"/>
      <circle cx="494.15538830923435" cy="733.6141820920188" r="5"/>
      <circle cx="482.0034615833319" cy="713.066396158652" r="5"/>
      <circle cx="471.16572006291267" cy="691.7961307947277" r="5"/>
      <circle cx="461.6849353624645" cy="669.8873300201777" r="5"/>
      <circle cx="453.5985238078417" cy="647.42645786248" r="5"/>
      <circle cx="446.9383987711202" cy="624.5021571226448" r="5"/>
      <circle cx="441.7308447230983" cy="601.2048995425755" r="5"/>
      <circle cx="437.9964135004985" cy="577.6266287544357" r="5"/>
      <circle cx="435.7498431972568" cy="553.8603974211392" r="5"/>
      <circle cx="435.0" cy="530.0" r="5"/>
      <circle cx="435.7498431972568" cy="506.13960257886094" r="5"/>
      <circle cx="437.9964135004984" cy="482.3733712455644" r="5"/>
      <circle cx="441.7308447230983" cy="458.7951004574246" r="5"/>
      <circle cx="446.9383987711202" cy="435.4978428773551" r="5"/>
      <circle cx="453.5985238078417" cy="412.5735421375199" r="5"/>
      <circle cx="461.68493536246456" cy="390.1126699798223" r="5"/>
      <circle cx="471.1657200629125" cy="368.20386920527255" r="5"/>
      <circle cx="482.0034615833318" cy="346.9336038413483" r="5"/>
      <circle cx="494.15538830923424" cy="326.3858179079814" r="5"/>
      <circle cx="507.57354213751995" cy="306.64160412886025" r="5"/>
      <circle cx="522.2049677452001" cy="287.7788838954979" r="5"/>
      <circle cx="537.9919215798636" cy="269.8720997470983" r="5"/>
      <circle cx="554.8720997470982" cy="252.99192157986369" r="5"/>
      <circle cx="572.778883895498" cy="237.20496774520007" r="5"/>
      <circle cx="591.6416041288602" cy="222.57354213752" r="5"/>
      <circle cx="611.3858179079814" cy="209.15538830923418" r="5"/>
      <circle cx="631.9336038413483" cy="197.00346158333184" r="5"/>
      <circle cx="653.2038692052726" cy="186.1657200629125" r="5"/>
      <circle cx="675.1126699798222" cy="176.68493536246456" r="5"/>
      <circle cx="697.5735421375199" cy="168.59852380784167" r="5"/>
      <circle cx="720.497842877355" cy="161.9383987711202" r="5"/>
      <circle cx="743.7951004574246" cy="156.7308447230983" r="5"/>
      <circle cx="767.3733712455643" cy="152.99641350049848" r="5"/>
      <circle cx="791.139602578861" cy="150.74984319725678" r="5"/>
      <circle cx="814.9999999999999" cy="150.0" r="5"/>
      <circle cx="838.8603974211388" cy="150.74984319725678" r="5"/>
      <circle cx="862.6266287544356" cy="152.99641350049842" r="5"/>
      <circle cx="886.2048995425753" cy="156.7308447230983" r="5"/>
      <circle cx="909.5021571226449" cy="161.9383987711202" r="5"/>
      <circle cx="932.42645786248" cy="168.59852380784162" r="5"/>
      <circle cx="954.8873300201777" cy="176.68493536246456" r="5"/>
      <circle cx="976.7961307947273" cy="186.16572006291244" r="5"/>
      <circle cx="998.0663961586517" cy="197.00346158333173" r="5"/>
      <circle cx="1018.6141820920185" cy="209.15538830923413" r="5"/>
      <circle cx="1038.3583958711397" cy="222.57354213751995" r="5"/>
      <circle cx="1057.221116104502" cy="237.20496774519995" r="5"/>
      <circle cx="1075.1279002529018" cy="252.99192157986363" r="5"/>
      <circle cx="1092.0080784201364" cy="269.8720997470982" r="5"/>
      <circle cx="1107.7950322548" cy="287.7788838954979" r="5"/>
      <circle cx="1122.42645786248" cy="306.64160412886014" r="5"/>
      <circle cx="1135.8446116907658" cy="326.3858179079814" r="5"/>
      <circle cx="1147.996538416668" cy="346.93360384134814" r="5"/>
      <circle cx="1158.8342799370876" cy="368.20386920527255" r="5"/>
      <circle cx="1168.3150646375354" cy="390.1126699798221" r="5"/>
      <circle cx="1176.4014761921583" cy="412.5735421375199" r="5"/>
      <circle cx="1183.0616012288797" cy="435.49784287735497" r="5"/>
      <circle cx="1188.2691552769018" cy="458.7951004574246" r="5"/>
      <circle cx="1192.0035864995016" cy="482.3733712455642" r="5"/>
      <circle cx="1194.2501568027433" cy="506.13960257886094" r="5"/>
    </g>
    <g stroke="red">
    </g>
  </g>
</svg>
