<svg version="1.1" width="1630" height="1060" xmlns="http://www.w3.org/2000/svg">
  <!-- Seed: 3220008511545649491 -->
  <!-- Size: SvgSize.Size11x17 -->
  <!-- Params:
    draw_worm: False
    draw_highlight: True
    draw_highlight2: False
    ring_distance: 10
    weight_rings: [(0, 1), (1, 1), (2, 0.5), (3, 0.1), (4, 0.05)]
    weight_border: [(<SpiralWormBorderType.Empty: 0>, 1), (<SpiralWormBorderType.Sunburst: 1>, 0.5), (<SpiralWormBorderType.Circles: 2>, 0.5)]
    h2_size: [RangeInt] min: 25 max: 100
    padding: 100
    spiral_rows: 4
    points_per_ring: 10
    rough_shuffle_range: 20
    fine_shuffle_range: 30
    rough_clamp_distance: 30
    subdivision_range: [RangeInt] min: 3 max: 7
    position_range: [RangeInt] min: 1 max: 50
    position_steps: 5
    ring_range: [RangeInt] min: 1 max: 4
  -->
  <g stroke="black" fill="none">
    <g stroke="blue">
      <path d="M815.0 910.0 L815.0 925.0"/>
      <path d="M838.86 909.25 L839.8 924.22"/>
      <path d="M862.63 907.0 L864.51 921.88"/>
      <path d="M886.2 903.27 L889.01 918.0"/>
      <path d="M909.5 898.06 L913.23 912.59"/>
      <path d="M932.43 891.4 L937.07 905.67"/>
      <path d="M954.89 883.32 L960.41 897.27"/>
      <path d="M976.8 873.83 L983.19 887.4"/>
      <path d="M998.07 863.0 L1005.3 876.14"/>
      <path d="M1018.61 850.84 L1026.65 863.5"/>
      <path d="M1038.36 837.43 L1047.18 849.57"/>
      <path d="M1057.22 822.8 L1066.78 834.36"/>
      <path d="M1075.13 807.01 L1085.4 817.94"/>
      <path d="M1092.01 790.13 L1102.94 800.4"/>
      <path d="M1107.8 772.22 L1119.36 781.78"/>
      <path d="M1122.43 753.36 L1134.57 762.18"/>
      <path d="M1135.84 733.61 L1148.5 741.65"/>
      <path d="M1148.0 713.07 L1161.14 720.3"/>
      <path d="M1158.83 691.8 L1172.4 698.19"/>
      <path d="M1168.32 669.89 L1182.27 675.41"/>
      <path d="M1176.4 647.43 L1190.67 652.07"/>
      <path d="M1183.06 624.5 L1197.59 628.23"/>
      <path d="M1188.27 601.2 L1203.0 604.01"/>
      <path d="M1192.0 577.63 L1206.88 579.51"/>
      <path d="M1194.25 553.86 L1209.22 554.8"/>
      <path d="M1195.0 530.0 L1210.0 530.0"/>
      <path d="M1194.25 506.14 L1209.22 505.2"/>
      <path d="M1192.0 482.37 L1206.88 480.49"/>
      <path d="M1188.27 458.8 L1203.0 455.99"/>
      <path d="M1183.06 435.5 L1197.59 431.77"/>
      <path d="M1176.4 412.57 L1190.67 407.93"/>
      <path d="M1168.32 390.11 L1182.27 384.59"/>
      <path d="M1158.83 368.2 L1172.4 361.81"/>
      <path d="M1148.0 346.93 L1161.14 339.7"/>
      <path d="M1135.84 326.39 L1148.5 318.35"/>
      <path d="M1122.43 306.64 L1134.57 297.82"/>
      <path d="M1107.8 287.78 L1119.36 278.22"/>
      <path d="M1092.01 269.87 L1102.94 259.6"/>
      <path d="M1075.13 252.99 L1085.4 242.06"/>
      <path d="M1057.22 237.2 L1066.78 225.64"/>
      <path d="M1038.36 222.57 L1047.18 210.43"/>
      <path d="M1018.61 209.16 L1026.65 196.5"/>
      <path d="M998.07 197.0 L1005.3 183.86"/>
      <path d="M976.8 186.17 L983.19 172.6"/>
      <path d="M954.89 176.68 L960.41 162.73"/>
      <path d="M932.43 168.6 L937.07 154.33"/>
      <path d="M909.5 161.94 L913.23 147.41"/>
      <path d="M886.2 156.73 L889.01 142.0"/>
      <path d="M862.63 153.0 L864.51 138.12"/>
      <path d="M838.86 150.75 L839.8 135.78"/>
      <path d="M815.0 150.0 L815.0 135.0"/>
      <path d="M791.14 150.75 L790.2 135.78"/>
      <path d="M767.37 153.0 L765.49 138.12"/>
      <path d="M743.8 156.73 L740.99 142.0"/>
      <path d="M720.5 161.94 L716.77 147.41"/>
      <path d="M697.57 168.6 L692.93 154.33"/>
      <path d="M675.11 176.68 L669.59 162.73"/>
      <path d="M653.2 186.17 L646.81 172.6"/>
      <path d="M631.93 197.0 L624.7 183.86"/>
      <path d="M611.39 209.16 L603.35 196.5"/>
      <path d="M591.64 222.57 L582.82 210.43"/>
      <path d="M572.78 237.2 L563.22 225.64"/>
      <path d="M554.87 252.99 L544.6 242.06"/>
      <path d="M537.99 269.87 L527.06 259.6"/>
      <path d="M522.2 287.78 L510.64 278.22"/>
      <path d="M507.57 306.64 L495.43 297.82"/>
      <path d="M494.16 326.39 L481.5 318.35"/>
      <path d="M482.0 346.93 L468.86 339.7"/>
      <path d="M471.17 368.2 L457.6 361.81"/>
      <path d="M461.68 390.11 L447.73 384.59"/>
      <path d="M453.6 412.57 L439.33 407.93"/>
      <path d="M446.94 435.5 L432.41 431.77"/>
      <path d="M441.73 458.8 L427.0 455.99"/>
      <path d="M438.0 482.37 L423.12 480.49"/>
      <path d="M435.75 506.14 L420.78 505.2"/>
      <path d="M435.0 530.0 L420.0 530.0"/>
      <path d="M435.75 553.86 L420.78 554.8"/>
      <path d="M438.0 577.63 L423.12 579.51"/>
      <path d="M441.73 601.2 L427.0 604.01"/>
      <path d="M446.94 624.5 L432.41 628.23"/>
      <path d="M453.6 647.43 L439.33 652.07"/>
      <path d="M461.68 669.89 L447.73 675.41"/>
      <path d="M471.17 691.8 L457.6 698.19"/>
      <path d="M482.0 713.07 L468.86 720.3"/>
      <path d="M494.16 733.61 L481.5 741.65"/>
      <path d="M507.57 753.36 L495.43 762.18"/>
      <path d="M522.2 772.22 L510.64 781.78"/>
      <path d="M537.99 790.13 L527.06 800.4"/>
      <path d="M554.87 807.01 L544.6 817.94"/>
      <path d="M572.78 822.8 L563.22 834.36"/>
      <path d="M591.64 837.43 L582.82 849.57"/>
      <path d="M611.39 850.84 L603.35 863.5"/>
      <path d="M631.93 863.0 L624.7 876.14"/>
      <path d="M653.2 873.83 L646.81 887.4"/>
      <path d="M675.11 883.32 L669.59 897.27"/>
      <path d="M697.57 891.4 L692.93 905.67"/>
      <path d="M720.5 898.06 L716.77 912.59"/>
      <path d="M743.8 903.27 L740.99 918.0"/>
      <path d="M767.37 907.0 L765.49 921.88"/>
      <path d="M791.14 909.25 L790.2 924.22"/>
    </g>
    <g stroke="red">
    </g>
  </g>
</svg>
