<svg version="1.1" width="1150" height="870" xmlns="http://www.w3.org/2000/svg">
  <!-- Seed: 5885755377631954245 -->
  <g stroke="black" fill="none">
    <g stroke="blue">
      <circle cx="151.0" cy="159.40000000000003" r="38"/>
      <circle cx="199.0" cy="159.40000000000003" r="5"/>
      <circle cx="191.3801695758967" cy="185.35075923786871" r="5"/>
      <circle cx="170.93992062409055" cy="203.06233577701693" r="5"/>
      <circle cx="144.16888776288232" cy="206.9114292102848" r="5"/>
      <circle cx="119.56668477062632" cy="195.67597956900443" r="5"/>
      <circle cx="104.94433726650414" cy="172.9231627283887" r="5"/>
      <circle cx="104.94433726650412" cy="145.87683727161144" r="5"/>
      <circle cx="119.56668477062631" cy="123.12402043099564" r="5"/>
      <circle cx="144.16888776288232" cy="111.88857078971526" r="5"/>
      <circle cx="170.93992062409058" cy="115.73766422298316" r="5"/>
      <circle cx="191.38016957589667" cy="133.44924076213132" r="5"/>
      <path d="M257.0 202.4 L257.0 207.4"/>
      <path d="M280.25 195.57 L282.95 199.78"/>
      <path d="M296.11 177.26 L300.66 179.34"/>
      <path d="M299.56 153.28 L304.51 152.57"/>
      <path d="M289.5 131.24 L293.28 127.97"/>
      <path d="M269.11 118.14 L270.52 113.34"/>
      <path d="M244.89 118.14 L243.48 113.34"/>
      <path d="M224.5 131.24 L220.72 127.97"/>
      <path d="M214.44 153.28 L209.49 152.57"/>
      <path d="M217.89 177.26 L213.34 179.34"/>
      <path d="M233.75 195.57 L231.05 199.78"/>
      <circle cx="363.0" cy="159.40000000000003" r="38"/>
      <circle cx="363.0" cy="159.40000000000003" r="43"/>
      <circle cx="363.0" cy="159.40000000000003" r="48"/>
      <path d="M363.0 217.4 L363.0 222.4"/>
      <path d="M394.36 208.19 L397.06 212.4"/>
      <path d="M415.76 183.49 L420.31 185.57"/>
      <path d="M420.41 151.15 L425.36 150.44"/>
      <path d="M406.83 121.42 L410.61 118.15"/>
      <path d="M379.34 103.75 L380.75 98.95"/>
      <path d="M346.66 103.75 L345.25 98.95"/>
      <path d="M319.17 121.42 L315.39 118.15"/>
      <path d="M305.59 151.15 L300.64 150.44"/>
      <path d="M310.24 183.49 L305.69 185.57"/>
      <path d="M331.64 208.19 L328.94 212.4"/>
      <circle cx="575.0" cy="159.40000000000003" r="38"/>
      <path d="M999.0 202.4 L999.0 207.4"/>
      <path d="M1022.25 195.57 L1024.95 199.78"/>
      <path d="M1038.11 177.26 L1042.66 179.34"/>
      <path d="M1041.56 153.28 L1046.51 152.57"/>
      <path d="M1031.5 131.24 L1035.28 127.97"/>
      <path d="M1011.11 118.14 L1012.52 113.34"/>
      <path d="M986.89 118.14 L985.48 113.34"/>
      <path d="M966.5 131.24 L962.72 127.97"/>
      <path d="M956.44 153.28 L951.49 152.57"/>
      <path d="M959.89 177.26 L955.34 179.34"/>
      <path d="M975.75 195.57 L973.05 199.78"/>
      <circle cx="522.0" cy="249.50000000000003" r="38"/>
      <circle cx="522.0" cy="249.50000000000003" r="43"/>
      <path d="M734.0 292.5 L734.0 297.5"/>
      <path d="M757.25 285.67 L759.95 289.88"/>
      <path d="M773.11 267.36 L777.66 269.44"/>
      <path d="M776.56 243.38 L781.51 242.67"/>
      <path d="M766.5 221.34 L770.28 218.07"/>
      <path d="M746.11 208.24 L747.52 203.44"/>
      <path d="M721.89 208.24 L720.48 203.44"/>
      <path d="M701.5 221.34 L697.72 218.07"/>
      <path d="M691.44 243.38 L686.49 242.67"/>
      <path d="M694.89 267.36 L690.34 269.44"/>
      <path d="M710.75 285.67 L708.05 289.88"/>
      <path d="M840.0 292.5 L840.0 297.5"/>
      <path d="M863.25 285.67 L865.95 289.88"/>
      <path d="M879.11 267.36 L883.66 269.44"/>
      <path d="M882.56 243.38 L887.51 242.67"/>
      <path d="M872.5 221.34 L876.28 218.07"/>
      <path d="M852.11 208.24 L853.52 203.44"/>
      <path d="M827.89 208.24 L826.48 203.44"/>
      <path d="M807.5 221.34 L803.72 218.07"/>
      <path d="M797.44 243.38 L792.49 242.67"/>
      <path d="M800.89 267.36 L796.34 269.44"/>
      <path d="M816.75 285.67 L814.05 289.88"/>
      <circle cx="946.0" cy="249.50000000000003" r="38"/>
      <path d="M946.0 297.5 L946.0 302.5"/>
      <path d="M971.95 289.88 L974.65 294.09"/>
      <path d="M989.66 269.44 L994.21 271.52"/>
      <path d="M993.51 242.67 L998.46 241.96"/>
      <path d="M982.28 218.07 L986.06 214.8"/>
      <path d="M959.52 203.44 L960.93 198.64"/>
      <path d="M932.48 203.44 L931.07 198.64"/>
      <path d="M909.72 218.07 L905.94 214.8"/>
      <path d="M898.49 242.67 L893.54 241.96"/>
      <path d="M902.34 269.44 L897.79 271.52"/>
      <path d="M920.05 289.88 L917.35 294.09"/>
      <circle cx="257.0" cy="339.6" r="38"/>
      <circle cx="257.0" cy="339.6" r="43"/>
      <path d="M469.0 382.6 L469.0 387.6"/>
      <path d="M492.25 375.77 L494.95 379.98"/>
      <path d="M508.11 357.46 L512.66 359.54"/>
      <path d="M511.56 333.48 L516.51 332.77"/>
      <path d="M501.5 311.44 L505.28 308.17"/>
      <path d="M481.11 298.34 L482.52 293.54"/>
      <path d="M456.89 298.34 L455.48 293.54"/>
      <path d="M436.5 311.44 L432.72 308.17"/>
      <path d="M426.44 333.48 L421.49 332.77"/>
      <path d="M429.89 357.46 L425.34 359.54"/>
      <path d="M445.75 375.77 L443.05 379.98"/>
      <circle cx="575.0" cy="339.6" r="38"/>
      <circle cx="575.0" cy="339.6" r="43"/>
      <circle cx="787.0" cy="339.6" r="38"/>
      <circle cx="835.0" cy="339.6" r="5"/>
      <circle cx="827.3801695758967" cy="365.5507592378687" r="5"/>
      <circle cx="806.9399206240905" cy="383.2623357770169" r="5"/>
      <circle cx="780.1688877628823" cy="387.11142921028477" r="5"/>
      <circle cx="755.5666847706264" cy="375.8759795690044" r="5"/>
      <circle cx="740.9443372665041" cy="353.12316272838865" r="5"/>
      <circle cx="740.9443372665041" cy="326.0768372716114" r="5"/>
      <circle cx="755.5666847706264" cy="303.32402043099563" r="5"/>
      <circle cx="780.1688877628823" cy="292.0885707897153" r="5"/>
      <circle cx="806.9399206240905" cy="295.93766422298313" r="5"/>
      <circle cx="827.3801695758966" cy="313.6492407621313" r="5"/>
      <circle cx="247.0" cy="429.7" r="5"/>
      <circle cx="240.17390191174078" cy="452.9475551505907" r="5"/>
      <circle cx="221.8628455590811" cy="468.8141758002443" r="5"/>
      <circle cx="197.88046195424874" cy="472.2623220008801" r="5"/>
      <circle cx="175.84098844035273" cy="462.19723169723306" r="5"/>
      <circle cx="162.74180213457663" cy="441.8144999441815" r="5"/>
      <circle cx="162.7418021345766" cy="417.5855000558185" r="5"/>
      <circle cx="175.84098844035273" cy="397.2027683027669" r="5"/>
      <circle cx="197.88046195424874" cy="387.1376779991199" r="5"/>
      <circle cx="221.86284555908114" cy="390.58582419975573" r="5"/>
      <circle cx="240.17390191174076" cy="406.4524448494093" r="5"/>
      <circle cx="416.0" cy="429.7" r="38"/>
      <circle cx="565.0" cy="429.7" r="5"/>
      <circle cx="558.1739019117408" cy="452.9475551505907" r="5"/>
      <circle cx="539.8628455590812" cy="468.8141758002443" r="5"/>
      <circle cx="515.8804619542487" cy="472.2623220008801" r="5"/>
      <circle cx="493.84098844035276" cy="462.19723169723306" r="5"/>
      <circle cx="480.74180213457663" cy="441.8144999441815" r="5"/>
      <circle cx="480.74180213457663" cy="417.5855000558185" r="5"/>
      <circle cx="493.84098844035276" cy="397.2027683027669" r="5"/>
      <circle cx="515.8804619542487" cy="387.1376779991199" r="5"/>
      <circle cx="539.8628455590812" cy="390.58582419975573" r="5"/>
      <circle cx="558.1739019117408" cy="406.4524448494093" r="5"/>
      <path d="M628.0 472.7 L628.0 477.7"/>
      <path d="M651.25 465.87 L653.95 470.08"/>
      <path d="M667.11 447.56 L671.66 449.64"/>
      <path d="M670.56 423.58 L675.51 422.87"/>
      <path d="M660.5 401.54 L664.28 398.27"/>
      <path d="M640.11 388.44 L641.52 383.64"/>
      <path d="M615.89 388.44 L614.48 383.64"/>
      <path d="M595.5 401.54 L591.72 398.27"/>
      <path d="M585.44 423.58 L580.49 422.87"/>
      <path d="M588.89 447.56 L584.34 449.64"/>
      <path d="M604.75 465.87 L602.05 470.08"/>
      <circle cx="257.0" cy="519.8" r="38"/>
      <circle cx="257.0" cy="519.8" r="43"/>
      <circle cx="469.0" cy="519.8" r="38"/>
      <circle cx="469.0" cy="519.8" r="43"/>
      <circle cx="469.0" cy="519.8" r="48"/>
      <circle cx="527.0" cy="519.8" r="5"/>
      <circle cx="517.7927049042086" cy="551.1571674124247" r="5"/>
      <circle cx="493.0940707541094" cy="572.558655730562" r="5"/>
      <circle cx="460.7457393801495" cy="577.2096436290941" r="5"/>
      <circle cx="431.0180774311735" cy="563.6334753125469" r="5"/>
      <circle cx="413.34940753035914" cy="536.1404882968029" r="5"/>
      <circle cx="413.34940753035914" cy="503.45951170319705" r="5"/>
      <circle cx="431.0180774311735" cy="475.966524687453" r="5"/>
      <circle cx="460.7457393801495" cy="462.39035637090586" r="5"/>
      <circle cx="493.09407075410945" cy="467.0413442694379" r="5"/>
      <circle cx="517.7927049042084" cy="488.44283258757525" r="5"/>
      <circle cx="575.0" cy="519.8" r="38"/>
      <circle cx="681.0" cy="519.8" r="38"/>
      <circle cx="681.0" cy="519.8" r="43"/>
      <circle cx="681.0" cy="519.8" r="48"/>
      <circle cx="739.0" cy="519.8" r="5"/>
      <circle cx="729.7927049042086" cy="551.1571674124247" r="5"/>
      <circle cx="705.0940707541095" cy="572.558655730562" r="5"/>
      <circle cx="672.7457393801494" cy="577.2096436290941" r="5"/>
      <circle cx="643.0180774311734" cy="563.6334753125469" r="5"/>
      <circle cx="625.3494075303591" cy="536.1404882968029" r="5"/>
      <circle cx="625.3494075303591" cy="503.45951170319705" r="5"/>
      <circle cx="643.0180774311734" cy="475.966524687453" r="5"/>
      <circle cx="672.7457393801494" cy="462.39035637090586" r="5"/>
      <circle cx="705.0940707541095" cy="467.0413442694379" r="5"/>
      <circle cx="729.7927049042084" cy="488.44283258757525" r="5"/>
      <path d="M787.0 562.8 L787.0 567.8"/>
      <path d="M810.25 555.97 L812.95 560.18"/>
      <path d="M826.11 537.66 L830.66 539.74"/>
      <path d="M829.56 513.68 L834.51 512.97"/>
      <path d="M819.5 491.64 L823.28 488.37"/>
      <path d="M799.11 478.54 L800.52 473.74"/>
      <path d="M774.89 478.54 L773.48 473.74"/>
      <path d="M754.5 491.64 L750.72 488.37"/>
      <path d="M744.44 513.68 L739.49 512.97"/>
      <path d="M747.89 537.66 L743.34 539.74"/>
      <path d="M763.75 555.97 L761.05 560.18"/>
      <circle cx="416.0" cy="609.9000000000001" r="38"/>
      <circle cx="522.0" cy="609.9000000000001" r="38"/>
      <circle cx="522.0" cy="609.9000000000001" r="43"/>
      <path d="M734.0 652.9 L734.0 657.9"/>
      <path d="M757.25 646.07 L759.95 650.28"/>
      <path d="M773.11 627.76 L777.66 629.84"/>
      <path d="M776.56 603.78 L781.51 603.07"/>
      <path d="M766.5 581.74 L770.28 578.47"/>
      <path d="M746.11 568.64 L747.52 563.84"/>
      <path d="M721.89 568.64 L720.48 563.84"/>
      <path d="M701.5 581.74 L697.72 578.47"/>
      <path d="M691.44 603.78 L686.49 603.07"/>
      <path d="M694.89 627.76 L690.34 629.84"/>
      <path d="M710.75 646.07 L708.05 650.28"/>
      <circle cx="151.0" cy="700.0" r="38"/>
      <circle cx="199.0" cy="700.0" r="5"/>
      <circle cx="191.3801695758967" cy="725.9507592378686" r="5"/>
      <circle cx="170.93992062409055" cy="743.6623357770169" r="5"/>
      <circle cx="144.16888776288232" cy="747.5114292102847" r="5"/>
      <circle cx="119.56668477062632" cy="736.2759795690044" r="5"/>
      <circle cx="104.94433726650414" cy="713.5231627283887" r="5"/>
      <circle cx="104.94433726650412" cy="686.4768372716114" r="5"/>
      <circle cx="119.56668477062631" cy="663.7240204309956" r="5"/>
      <circle cx="144.16888776288232" cy="652.4885707897153" r="5"/>
      <circle cx="170.93992062409058" cy="656.3376642229831" r="5"/>
      <circle cx="191.38016957589667" cy="674.0492407621313" r="5"/>
      <circle cx="257.0" cy="700.0" r="38"/>
      <circle cx="575.0" cy="700.0" r="38"/>
      <circle cx="681.0" cy="700.0" r="38"/>
      <circle cx="681.0" cy="700.0" r="43"/>
      <path d="M681.0 753.0 L681.0 758.0"/>
      <path d="M709.65 744.59 L712.35 748.8"/>
      <path d="M729.21 722.02 L733.76 724.1"/>
      <path d="M733.46 692.46 L738.41 691.75"/>
      <path d="M721.05 665.29 L724.83 662.02"/>
      <path d="M695.93 649.15 L697.34 644.35"/>
      <path d="M666.07 649.15 L664.66 644.35"/>
      <path d="M640.95 665.29 L637.17 662.02"/>
      <path d="M628.54 692.46 L623.59 691.75"/>
      <path d="M632.79 722.02 L628.24 724.1"/>
      <path d="M652.35 744.59 L649.65 748.8"/>
    </g>
  </g>
</svg>
