<svg version="1.1" width="1150" height="870" xmlns="http://www.w3.org/2000/svg">
  <!-- Seed: 238331024945560281 -->
  <g stroke="black" fill="none">
    <g stroke="blue">
      <circle cx="215.0" cy="219.0" r="90"/>
      <circle cx="215.0" cy="219.0" r="95"/>
      <circle cx="215.0" cy="219.0" r="100"/>
      <path d="M 215.0 329.0 L215.0 334.0"/>
      <path d="M 239.4773027351946 326.2420703400006 L240.58990740497617 331.11670990090977"/>
      <path d="M 262.7272113029314 318.1065754692661 L264.8966299985192 322.6114198087782"/>
      <path d="M 283.5838782044607 305.0014630714833 L286.7013272137544 308.91062048382344"/>
      <path d="M 301.0014630714833 287.5838782044607 L304.91062048382344 290.7013272137544"/>
      <path d="M 314.1065754692661 266.7272113029314 L318.6114198087782 268.8966299985192"/>
      <path d="M 322.2420703400006 243.4773027351946 L327.11670990090977 244.58990740497617"/>
      <path d="M 325.0 219.0 L330.0 219.0"/>
      <path d="M 322.2420703400006 194.52269726480543 L327.11670990090977 193.41009259502385"/>
      <path d="M 314.1065754692661 171.27278869706862 L318.6114198087782 169.10337000148084"/>
      <path d="M 301.0014630714833 150.4161217955393 L304.91062048382344 147.29867278624565"/>
      <path d="M 283.5838782044607 132.99853692851673 L286.7013272137544 129.0893795161766"/>
      <path d="M 262.72721130293144 119.89342453073391 L264.89662999851924 115.38858019122182"/>
      <path d="M 239.4773027351946 111.7579296599994 L240.58990740497617 106.88329009909029"/>
      <path d="M 215.0 109.0 L215.0 104.0"/>
      <path d="M 190.52269726480543 111.7579296599994 L189.41009259502385 106.88329009909029"/>
      <path d="M 167.27278869706862 119.8934245307339 L165.10337000148084 115.3885801912218"/>
      <path d="M 146.41612179553937 132.99853692851667 L143.2986727862457 129.0893795161765"/>
      <path d="M 128.99853692851673 150.4161217955393 L125.08937951617658 147.29867278624565"/>
      <path d="M 115.89342453073391 171.2727886970686 L111.38858019122182 169.1033700014808"/>
      <path d="M 107.7579296599994 194.5226972648054 L102.88329009909029 193.41009259502383"/>
      <path d="M 105.0 218.99999999999997 L100.0 218.99999999999997"/>
      <path d="M 107.7579296599994 243.47730273519457 L102.88329009909029 244.58990740497615"/>
      <path d="M 115.89342453073388 266.7272113029314 L111.38858019122179 268.8966299985192"/>
      <path d="M 128.99853692851673 287.5838782044607 L125.08937951617658 290.7013272137544"/>
      <path d="M 146.4161217955393 305.0014630714833 L143.29867278624565 308.91062048382344"/>
      <path d="M 167.2727886970686 318.1065754692661 L165.1033700014808 322.6114198087782"/>
      <path d="M 190.5226972648054 326.24207034000057 L189.41009259502383 331.1167099009097"/>
      <circle cx="455.0" cy="219.0" r="90"/>
      <path d="M 455.0 319.0 L455.0 324.0"/>
      <path d="M 477.25209339563145 316.49279121818233 L478.364698065413 321.3674307790915"/>
      <path d="M 498.3883739117558 309.0968867902419 L500.55779260734363 313.601731129754"/>
      <path d="M 517.3489801858733 297.183148246803 L520.4664291951669 301.09230565914316"/>
      <path d="M 533.183148246803 281.34898018587336 L537.0923056591431 284.46642919516705"/>
      <path d="M 545.0968867902419 262.3883739117558 L549.6017311297541 264.55779260734363"/>
      <path d="M 552.4927912181823 241.25209339563145 L557.3674307790915 242.36469806541302"/>
      <path d="M 555.0 219.0 L560.0 219.0"/>
      <path d="M 552.4927912181823 196.74790660436855 L557.3674307790915 195.63530193458698"/>
      <path d="M 545.0968867902419 175.61162608824418 L549.6017311297541 173.4422073926564"/>
      <path d="M 533.183148246803 156.65101981412664 L537.0923056591431 153.53357080483298"/>
      <path d="M 517.3489801858734 140.81685175319703 L520.466429195167 136.9076943408569"/>
      <path d="M 498.3883739117558 128.9031132097581 L500.55779260734363 124.398268870246"/>
      <path d="M 477.25209339563145 121.50720878181764 L478.364698065413 116.63256922090852"/>
      <path d="M 455.0 119.0 L455.0 114.0"/>
      <path d="M 432.74790660436855 121.50720878181764 L431.635301934587 116.63256922090852"/>
      <path d="M 411.6116260882442 128.9031132097581 L409.44220739265637 124.398268870246"/>
      <path d="M 392.6510198141267 140.81685175319697 L389.53357080483306 136.9076943408568"/>
      <path d="M 376.81685175319706 156.65101981412664 L372.9076943408569 153.53357080483298"/>
      <path d="M 364.9031132097581 175.61162608824418 L360.398268870246 173.4422073926564"/>
      <path d="M 357.50720878181767 196.74790660436855 L352.6325692209085 195.63530193458698"/>
      <path d="M 355.0 218.99999999999997 L350.0 218.99999999999997"/>
      <path d="M 357.50720878181767 241.25209339563142 L352.6325692209085 242.364698065413"/>
      <path d="M 364.9031132097581 262.3883739117558 L360.398268870246 264.55779260734363"/>
      <path d="M 376.816851753197 281.34898018587336 L372.90769434085684 284.46642919516705"/>
      <path d="M 392.65101981412664 297.18314824680294 L389.53357080483295 301.0923056591431"/>
      <path d="M 411.6116260882442 309.0968867902419 L409.44220739265637 313.601731129754"/>
      <path d="M 432.74790660436855 316.49279121818233 L431.635301934587 321.3674307790915"/>
      <circle cx="790.0" cy="219.0" r="5"/>
      <circle cx="787.6181516572733" cy="240.13948872584987" r="5"/>
      <circle cx="780.5920424507299" cy="260.218955216168" r="5"/>
      <circle cx="769.2739908344629" cy="278.23153117657967" r="5"/>
      <circle cx="754.2315311765797" cy="293.27399083446284" r="5"/>
      <circle cx="736.2189552161681" cy="304.5920424507298" r="5"/>
      <circle cx="716.1394887258499" cy="311.61815165727324" r="5"/>
      <circle cx="695.0" cy="314.0" r="5"/>
      <circle cx="673.8605112741501" cy="311.61815165727324" r="5"/>
      <circle cx="653.7810447838319" cy="304.5920424507298" r="5"/>
      <circle cx="635.7684688234203" cy="293.27399083446284" r="5"/>
      <circle cx="620.7260091655372" cy="278.23153117657967" r="5"/>
      <circle cx="609.4079575492702" cy="260.218955216168" r="5"/>
      <circle cx="602.3818483427267" cy="240.13948872584987" r="5"/>
      <circle cx="600.0" cy="219.0" r="5"/>
      <circle cx="602.3818483427267" cy="197.86051127415016" r="5"/>
      <circle cx="609.4079575492701" cy="177.781044783832" r="5"/>
      <circle cx="620.7260091655371" cy="159.76846882342036" r="5"/>
      <circle cx="635.7684688234203" cy="144.72600916553716" r="5"/>
      <circle cx="653.7810447838319" cy="133.40795754927018" r="5"/>
      <circle cx="673.8605112741501" cy="126.38184834272676" r="5"/>
      <circle cx="695.0" cy="124.0" r="5"/>
      <circle cx="716.1394887258499" cy="126.38184834272676" r="5"/>
      <circle cx="736.218955216168" cy="133.40795754927018" r="5"/>
      <circle cx="754.2315311765797" cy="144.72600916553716" r="5"/>
      <circle cx="769.2739908344628" cy="159.7684688234203" r="5"/>
      <circle cx="780.5920424507298" cy="177.78104478383196" r="5"/>
      <circle cx="787.6181516572732" cy="197.8605112741501" r="5"/>
      <circle cx="335.0" cy="423.0" r="90"/>
      <circle cx="335.0" cy="423.0" r="95"/>
      <path d="M 335.0 528.0 L335.0 533.0"/>
      <path d="M 358.364698065413 525.3674307790915 L359.47730273519454 530.2420703400006"/>
      <path d="M 380.5577926073436 517.6017311297541 L382.7272113029314 522.1065754692662"/>
      <path d="M 400.466429195167 505.0923056591431 L403.5838782044607 509.0014630714833"/>
      <path d="M 417.0923056591431 488.46642919516705 L421.0014630714833 491.58387820446075"/>
      <path d="M 429.601731129754 468.55779260734363 L434.1065754692661 470.72721130293144"/>
      <path d="M 437.3674307790915 446.364698065413 L442.2420703400006 447.47730273519454"/>
      <path d="M 440.0 423.0 L445.0 423.0"/>
      <path d="M 437.3674307790915 399.635301934587 L442.2420703400006 398.52269726480546"/>
      <path d="M 429.601731129754 377.4422073926564 L434.1065754692661 375.2727886970686"/>
      <path d="M 417.0923056591431 357.533570804833 L421.0014630714833 354.4161217955393"/>
      <path d="M 400.46642919516705 340.9076943408569 L403.58387820446075 336.9985369285167"/>
      <path d="M 380.55779260734363 328.398268870246 L382.72721130293144 323.8934245307339"/>
      <path d="M 358.364698065413 320.6325692209085 L359.47730273519454 315.7579296599994"/>
      <path d="M 335.0 318.0 L335.0 313.0"/>
      <path d="M 311.635301934587 320.6325692209085 L310.52269726480546 315.7579296599994"/>
      <path d="M 289.4422073926564 328.398268870246 L287.2727886970686 323.8934245307339"/>
      <path d="M 269.53357080483306 340.90769434085684 L266.4161217955394 336.99853692851667"/>
      <path d="M 252.9076943408569 357.53357080483295 L248.99853692851676 354.41612179553925"/>
      <path d="M 240.398268870246 377.44220739265637 L235.8934245307339 375.27278869706856"/>
      <path d="M 232.63256922090852 399.63530193458695 L227.7579296599994 398.5226972648054"/>
      <path d="M 230.0 423.0 L225.0 423.0"/>
      <path d="M 232.63256922090852 446.364698065413 L227.7579296599994 447.47730273519454"/>
      <path d="M 240.39826887024597 468.5577926073436 L235.89342453073388 470.7272113029314"/>
      <path d="M 252.90769434085686 488.466429195167 L248.99853692851673 491.5838782044607"/>
      <path d="M 269.53357080483295 505.0923056591431 L266.41612179553925 509.0014630714833"/>
      <path d="M 289.44220739265637 517.601731129754 L287.27278869706856 522.1065754692661"/>
      <path d="M 311.63530193458695 525.3674307790915 L310.5226972648054 530.2420703400006"/>
      <circle cx="575.0" cy="423.0" r="90"/>
      <path d="M 575.0 523.0 L575.0 528.0"/>
      <path d="M 597.2520933956314 520.4927912181823 L598.364698065413 525.3674307790915"/>
      <path d="M 618.3883739117558 513.0968867902419 L620.5577926073436 517.6017311297541"/>
      <path d="M 637.3489801858733 501.183148246803 L640.4664291951669 505.09230565914316"/>
      <path d="M 653.183148246803 485.34898018587336 L657.0923056591431 488.46642919516705"/>
      <path d="M 665.0968867902419 466.3883739117558 L669.6017311297541 468.55779260734363"/>
      <path d="M 672.4927912181823 445.25209339563145 L677.3674307790915 446.364698065413"/>
      <path d="M 675.0 423.0 L680.0 423.0"/>
      <path d="M 672.4927912181823 400.74790660436855 L677.3674307790915 399.635301934587"/>
      <path d="M 665.0968867902419 379.6116260882442 L669.6017311297541 377.44220739265637"/>
      <path d="M 653.183148246803 360.65101981412664 L657.0923056591431 357.53357080483295"/>
      <path d="M 637.3489801858734 344.81685175319706 L640.466429195167 340.9076943408569"/>
      <path d="M 618.3883739117558 332.9031132097581 L620.5577926073436 328.398268870246"/>
      <path d="M 597.2520933956315 325.50720878181767 L598.3646980654131 320.6325692209085"/>
      <path d="M 575.0 323.0 L575.0 318.0"/>
      <path d="M 552.7479066043686 325.50720878181767 L551.635301934587 320.6325692209085"/>
      <path d="M 531.6116260882442 332.9031132097581 L529.4422073926564 328.398268870246"/>
      <path d="M 512.6510198141267 344.81685175319694 L509.53357080483306 340.9076943408568"/>
      <path d="M 496.81685175319706 360.65101981412664 L492.9076943408569 357.53357080483295"/>
      <path d="M 484.9031132097581 379.6116260882442 L480.398268870246 377.44220739265637"/>
      <path d="M 477.50720878181767 400.74790660436855 L472.6325692209085 399.635301934587"/>
      <path d="M 475.0 423.0 L470.0 423.0"/>
      <path d="M 477.50720878181767 445.25209339563145 L472.6325692209085 446.364698065413"/>
      <path d="M 484.9031132097581 466.3883739117558 L480.398268870246 468.55779260734363"/>
      <path d="M 496.816851753197 485.34898018587336 L492.90769434085684 488.46642919516705"/>
      <path d="M 512.6510198141266 501.18314824680294 L509.5335708048329 505.0923056591431"/>
      <path d="M 531.6116260882442 513.0968867902419 L529.4422073926564 517.6017311297541"/>
      <path d="M 552.7479066043685 520.4927912181823 L551.6353019345869 525.3674307790915"/>
      <circle cx="815.0" cy="423.0" r="90"/>
      <path d="M 815.0 523.0 L815.0 528.0"/>
      <path d="M 837.2520933956314 520.4927912181823 L838.364698065413 525.3674307790915"/>
      <path d="M 858.3883739117558 513.0968867902419 L860.5577926073436 517.6017311297541"/>
      <path d="M 877.3489801858733 501.183148246803 L880.4664291951669 505.09230565914316"/>
      <path d="M 893.183148246803 485.34898018587336 L897.0923056591431 488.46642919516705"/>
      <path d="M 905.0968867902419 466.3883739117558 L909.6017311297541 468.55779260734363"/>
      <path d="M 912.4927912181823 445.25209339563145 L917.3674307790915 446.364698065413"/>
      <path d="M 915.0 423.0 L920.0 423.0"/>
      <path d="M 912.4927912181823 400.74790660436855 L917.3674307790915 399.635301934587"/>
      <path d="M 905.0968867902419 379.6116260882442 L909.6017311297541 377.44220739265637"/>
      <path d="M 893.183148246803 360.65101981412664 L897.0923056591431 357.53357080483295"/>
      <path d="M 877.3489801858734 344.81685175319706 L880.466429195167 340.9076943408569"/>
      <path d="M 858.3883739117558 332.9031132097581 L860.5577926073436 328.398268870246"/>
      <path d="M 837.2520933956315 325.50720878181767 L838.3646980654131 320.6325692209085"/>
      <path d="M 815.0 323.0 L815.0 318.0"/>
      <path d="M 792.7479066043686 325.50720878181767 L791.635301934587 320.6325692209085"/>
      <path d="M 771.6116260882442 332.9031132097581 L769.4422073926564 328.398268870246"/>
      <path d="M 752.6510198141267 344.81685175319694 L749.5335708048331 340.9076943408568"/>
      <path d="M 736.816851753197 360.65101981412664 L732.9076943408569 357.53357080483295"/>
      <path d="M 724.9031132097581 379.6116260882442 L720.3982688702459 377.44220739265637"/>
      <path d="M 717.5072087818177 400.74790660436855 L712.6325692209085 399.635301934587"/>
      <path d="M 715.0 423.0 L710.0 423.0"/>
      <path d="M 717.5072087818177 445.25209339563145 L712.6325692209085 446.364698065413"/>
      <path d="M 724.9031132097581 466.3883739117558 L720.3982688702459 468.55779260734363"/>
      <path d="M 736.816851753197 485.34898018587336 L732.9076943408569 488.46642919516705"/>
      <path d="M 752.6510198141266 501.18314824680294 L749.533570804833 505.0923056591431"/>
      <path d="M 771.6116260882442 513.0968867902419 L769.4422073926564 517.6017311297541"/>
      <path d="M 792.7479066043685 520.4927912181823 L791.6353019345869 525.3674307790915"/>
      <circle cx="215.0" cy="627.0" r="90"/>
      <path d="M 215.0 727.0 L215.0 732.0"/>
      <path d="M 237.25209339563145 724.4927912181823 L238.36469806541302 729.3674307790915"/>
      <path d="M 258.3883739117558 717.0968867902419 L260.55779260734363 721.6017311297541"/>
      <path d="M 277.34898018587336 705.183148246803 L280.46642919516705 709.0923056591431"/>
      <path d="M 293.183148246803 689.3489801858734 L297.09230565914316 692.466429195167"/>
      <path d="M 305.0968867902419 670.3883739117558 L309.601731129754 672.5577926073436"/>
      <path d="M 312.49279121818233 649.2520933956314 L317.3674307790915 650.364698065413"/>
      <path d="M 315.0 627.0 L320.0 627.0"/>
      <path d="M 312.49279121818233 604.7479066043686 L317.3674307790915 603.635301934587"/>
      <path d="M 305.0968867902419 583.6116260882442 L309.601731129754 581.4422073926564"/>
      <path d="M 293.183148246803 564.6510198141267 L297.09230565914316 561.5335708048331"/>
      <path d="M 277.34898018587336 548.816851753197 L280.46642919516705 544.9076943408569"/>
      <path d="M 258.3883739117558 536.9031132097581 L260.55779260734363 532.3982688702459"/>
      <path d="M 237.25209339563145 529.5072087818177 L238.36469806541302 524.6325692209085"/>
      <path d="M 215.0 527.0 L215.0 522.0"/>
      <path d="M 192.74790660436858 529.5072087818177 L191.635301934587 524.6325692209085"/>
      <path d="M 171.6116260882442 536.9031132097581 L169.44220739265643 532.3982688702459"/>
      <path d="M 152.6510198141267 548.8168517531969 L149.53357080483303 544.9076943408568"/>
      <path d="M 136.81685175319703 564.6510198141266 L132.9076943408569 561.533570804833"/>
      <path d="M 124.90311320975809 583.6116260882442 L120.398268870246 581.4422073926564"/>
      <path d="M 117.50720878181764 604.7479066043685 L112.63256922090852 603.6353019345869"/>
      <path d="M 115.0 627.0 L110.0 627.0"/>
      <path d="M 117.50720878181764 649.2520933956314 L112.63256922090852 650.364698065413"/>
      <path d="M 124.90311320975808 670.3883739117558 L120.39826887024599 672.5577926073436"/>
      <path d="M 136.816851753197 689.3489801858733 L132.90769434085684 692.4664291951669"/>
      <path d="M 152.65101981412664 705.183148246803 L149.53357080483298 709.0923056591431"/>
      <path d="M 171.61162608824418 717.0968867902419 L169.4422073926564 721.6017311297541"/>
      <path d="M 192.74790660436852 724.4927912181823 L191.63530193458695 729.3674307790915"/>
      <circle cx="695.0" cy="627.0" r="90"/>
      <circle cx="695.0" cy="627.0" r="95"/>
      <circle cx="935.0" cy="627.0" r="90"/>
      <circle cx="935.0" cy="627.0" r="95"/>
    </g>
  </g>
</svg>
