<svg version="1.1" width="1150" height="870" xmlns="http://www.w3.org/2000/svg">
  <!-- Seed: 2932255199565203573 -->
  <!-- Size: SvgSize.Size9x12 -->
  <!-- Params:
    draw_lines: False
    draw_aligned_vertical: False
    draw_aligned_horizontal: False
    draw_filled_checkers: True
    pad: 0
    size: [RangeInt] min: 10 max: 150
    skew_vert_degs: [RangeFloat] min: 0 max: 45
    skew_horiz_degs: [RangeFloat] min: 0 max: 45
    interior_space_aligned: 5
    interior_space_filled: 5
  -->
  <g stroke="black" fill="none">
    <g stroke="green">
      <path d="M50.49 50.23L50.49 93.23M55.86 95.81L55.86 52.81M61.23 55.38L61.23 98.38M66.6 100.95L66.6 57.95M71.97 60.53L71.97 103.53M77.34 106.1L77.34 63.1M82.71 65.68L82.71 88.19M51.46 179.7L51.46 136.7M56.83 139.27L56.83 182.27M62.2 164.36L62.2 141.85M141.8 50.0L141.8 50.99M147.17 53.56L147.17 50.0M152.54 50.0L152.54 56.13M157.91 58.71L157.91 50.0M163.28 50.0L163.28 61.28M168.66 63.85L168.66 50.0M174.03 50.0L174.03 66.43M121.28 127.16L121.28 104.64M126.66 86.73L126.66 129.73M132.03 132.3L132.03 89.3M137.4 91.88L137.4 134.88M142.77 137.45L142.77 94.45M148.14 97.03L148.14 140.03M153.51 142.6L153.51 99.6M158.88 102.17L158.88 124.69M100.77 203.33L100.77 180.81M106.14 162.9L106.14 205.9M111.51 208.47L111.51 165.47M116.88 168.05L116.88 211.05M122.26 213.62L122.26 170.62M127.63 173.2L127.63 216.2M133.0 218.77L133.0 175.77M138.37 178.34L138.37 200.86M80.26 279.5L80.26 256.98M85.63 239.07L85.63 282.07M91.0 284.65L91.0 241.65M96.37 244.22L96.37 287.22M101.74 289.79L101.74 246.79M107.11 249.37L107.11 292.37M112.48 294.94L112.48 251.94M117.86 254.51L117.86 277.03M59.74 355.67L59.74 333.15M65.11 315.24L65.11 358.24M70.49 360.82L70.49 317.82M75.86 320.39L75.86 363.39M81.23 365.96L81.23 322.96M86.6 325.54L86.6 368.54M91.97 371.11L91.97 328.11M97.34 330.68L97.34 353.2M55.34 439.56L55.34 396.56M60.71 399.13L60.71 442.13M66.09 444.71L66.09 401.71M71.46 404.28L71.46 447.28M76.83 429.37L76.83 406.85M50.94 480.45L50.94 523.45M56.31 505.54L56.31 483.03M217.97 64.97L217.97 87.48M223.34 90.06L223.34 50.0M228.71 50.0L228.71 92.63M234.08 95.2L234.08 52.2M239.46 54.78L239.46 97.78M244.83 100.35L244.83 57.35M250.2 59.93L250.2 102.93M255.57 85.02L255.57 62.5M197.46 141.14L197.46 163.65M202.83 166.23L202.83 123.23M208.2 125.8L208.2 168.8M213.57 171.38L213.57 128.38M218.94 130.95L218.94 173.95M224.31 176.52L224.31 133.52M229.68 136.1L229.68 179.1M235.06 161.19L235.06 138.67M176.94 217.31L176.94 239.82M182.31 242.4L182.31 199.4M187.68 201.97L187.68 244.97M193.06 247.55L193.06 204.55M198.43 207.12L198.43 250.12M203.8 252.69L203.8 209.69M209.17 212.27L209.17 255.27M214.54 237.36L214.54 214.84M156.43 293.48L156.43 316.0M161.8 318.57L161.8 275.57M167.17 278.14L167.17 321.14M172.54 323.72L172.54 280.72M177.91 283.29L177.91 326.29M183.28 328.86L183.28 285.86M188.66 288.44L188.66 331.44M194.03 313.53L194.03 291.01M135.91 369.65L135.91 392.17M141.28 394.74L141.28 351.74M146.66 354.31L146.66 397.31M152.03 399.89L152.03 356.89M157.4 359.46L157.4 402.46M162.77 405.03L162.77 362.03M168.14 364.61L168.14 407.61M173.51 389.7L173.51 367.18M115.4 445.82L115.4 468.34M120.77 470.91L120.77 427.91M126.14 430.48L126.14 473.48M131.51 476.06L131.51 433.06M136.88 435.63L136.88 478.63M142.26 481.2L142.26 438.2M147.63 440.78L147.63 483.78M153.0 465.87L153.0 443.35M94.88 521.99L94.88 544.51M100.26 547.08L100.26 504.08M105.63 506.65L105.63 549.65M111.0 552.23L111.0 509.23M116.37 511.8L116.37 554.8M121.74 557.38L121.74 514.38M127.11 516.95L127.11 559.95M132.48 542.04L132.48 519.52M74.37 598.16L74.37 620.68M79.74 623.25L79.74 580.25M85.11 582.82L85.11 625.82M90.48 628.4L90.48 585.4M95.86 587.97L95.86 630.97M101.23 633.55L101.23 590.55M106.6 593.12L106.6 636.12M111.97 618.21L111.97 595.69M53.86 674.33L53.86 696.85M59.23 699.42L59.23 656.42M64.6 659.0L64.6 702.0M69.97 704.57L69.97 661.57M75.34 664.14L75.34 707.14M80.71 709.72L80.71 666.72M86.09 669.29L86.09 712.29M91.46 694.38L91.46 671.86M54.83 740.31L54.83 783.31M60.2 785.89L60.2 742.89M65.57 745.46L65.57 788.46M70.94 770.55L70.94 748.03M320.03 50.0L320.03 50.38M325.4 52.96L325.4 50.0M330.77 50.0L330.77 55.53M336.14 58.11L336.14 50.0M341.51 50.0L341.51 60.68M346.88 63.25L346.88 50.0M294.14 101.46L294.14 123.98M299.51 126.55L299.51 83.55M304.88 86.13L304.88 129.13M310.25 131.7L310.25 88.7M315.63 91.28L315.63 134.28M321.0 136.85L321.0 93.85M326.37 96.42L326.37 139.42M331.74 121.52L331.74 99.0M273.63 177.63L273.63 200.15M279.0 202.73L279.0 159.73M284.37 162.3L284.37 205.3M289.74 207.87L289.74 164.87M295.11 167.45L295.11 210.45M300.48 213.02L300.48 170.02M305.85 172.59L305.85 215.59M311.23 197.69L311.23 175.17M253.11 253.8L253.11 276.32M258.48 278.9L258.48 235.9M263.85 238.47L263.85 281.47M269.23 284.04L269.23 241.04M274.6 243.62L274.6 286.62M279.97 289.19L279.97 246.19M285.34 248.76L285.34 291.76M290.71 273.86L290.71 251.34M232.6 329.97L232.6 352.49M237.97 355.07L237.97 312.07M243.34 314.64L243.34 357.64M248.71 360.21L248.71 317.21M254.08 319.79L254.08 362.79M259.45 365.36L259.45 322.36M264.83 324.94L264.83 367.94M270.2 350.03L270.2 327.51M212.08 406.15L212.08 428.66M217.46 431.24L217.46 388.24M222.83 390.81L222.83 433.81M228.2 436.38L228.2 393.38M233.57 395.96L233.57 438.96M238.94 441.53L238.94 398.53M244.31 401.11L244.31 444.11M249.68 426.2L249.68 403.68M191.57 482.32L191.57 504.83M196.94 507.41L196.94 464.41M202.31 466.98L202.31 509.98M207.68 512.56L207.68 469.56M213.06 472.13L213.06 515.13M218.43 517.7L218.43 474.7M223.8 477.28L223.8 520.28M229.17 502.37L229.17 479.85M171.06 558.49L171.06 581.0M176.43 583.58L176.43 540.58M181.8 543.15L181.8 586.15M187.17 588.73L187.17 545.73M192.54 548.3L192.54 591.3M197.91 593.87L197.91 550.87M203.28 553.45L203.28 596.45M208.66 578.54L208.66 556.02M150.54 634.66L150.54 657.18M155.91 659.75L155.91 616.75M161.28 619.32L161.28 662.32M166.66 664.9L166.66 621.9M172.03 624.47L172.03 667.47M177.4 670.04L177.4 627.04M182.77 629.62L182.77 672.62M188.14 654.71L188.14 632.19M130.03 710.83L130.03 733.35M135.4 735.92L135.4 692.92M140.77 695.49L140.77 738.49M146.14 741.07L146.14 698.07M151.51 700.64L151.51 743.64M156.88 746.21L156.88 703.21M162.26 705.79L162.26 748.79M167.63 730.88L167.63 708.36M109.51 787.0L109.51 809.52M114.88 812.09L114.88 769.09M120.26 771.66L120.26 814.66M125.63 817.24L125.63 774.24M131.0 776.81L131.0 819.81M136.37 820.0L136.37 779.38M141.74 781.96L141.74 820.0M147.11 807.05L147.11 784.53M390.82 61.79L390.82 84.31M396.2 86.88L396.2 50.0M401.57 50.0L401.57 89.46M406.94 92.03L406.94 50.0M412.31 51.6L412.31 94.6M417.68 97.18L417.68 54.18M423.05 56.75L423.05 99.75M428.42 81.84L428.42 59.32M370.31 137.96L370.31 160.48M375.68 163.05L375.68 120.05M381.05 122.63L381.05 165.63M386.42 168.2L386.42 125.2M391.8 127.77L391.8 170.77M397.17 173.35L397.17 130.35M402.54 132.92L402.54 175.92M407.91 158.01L407.91 135.49M349.8 214.13L349.8 236.65M355.17 239.22L355.17 196.22M360.54 198.8L360.54 241.8M365.91 244.37L365.91 201.37M371.28 203.94L371.28 246.94M376.65 249.52L376.65 206.52M382.02 209.09L382.02 252.09M387.4 234.18L387.4 211.67M329.28 290.3L329.28 312.82M334.65 315.39L334.65 272.39M340.03 274.97L340.03 317.97M345.4 320.54L345.4 277.54M350.77 280.11L350.77 323.11M356.14 325.69L356.14 282.69M361.51 285.26L361.51 328.26M366.88 310.35L366.88 287.84M308.77 366.47L308.77 388.99M314.14 391.56L314.14 348.56M319.51 351.14L319.51 394.14M324.88 396.71L324.88 353.71M330.25 356.29L330.25 399.29M335.63 401.86L335.63 358.86M341.0 361.43L341.0 404.43M346.37 386.52L346.37 364.01M288.25 442.64L288.25 465.16M293.63 467.73L293.63 424.73M299.0 427.31L299.0 470.31M304.37 472.88L304.37 429.88M309.74 432.46L309.74 475.46M315.11 478.03L315.11 435.03M320.48 437.6L320.48 480.6M325.85 462.7L325.85 440.18M267.74 518.81L267.74 541.33M273.11 543.91L273.11 500.91M278.48 503.48L278.48 546.48M283.85 549.05L283.85 506.05M289.23 508.63L289.23 551.63M294.6 554.2L294.6 511.2M299.97 513.77L299.97 556.77M305.34 538.87L305.34 516.35M247.23 594.98L247.23 617.5M252.6 620.08L252.6 577.08M257.97 579.65L257.97 622.65M263.34 625.22L263.34 582.22M268.71 584.8L268.71 627.8M274.08 630.37L274.08 587.37M279.45 589.94L279.45 632.94M284.83 615.04L284.83 592.52M226.71 671.15L226.71 693.67M232.08 696.25L232.08 653.25M237.45 655.82L237.45 698.82M242.83 701.39L242.83 658.39M248.2 660.97L248.2 703.97M253.57 706.54L253.57 663.54M258.94 666.11L258.94 709.11M264.31 691.21L264.31 668.69M206.2 747.33L206.2 769.84M211.57 772.42L211.57 729.42M216.94 731.99L216.94 774.99M222.31 777.56L222.31 734.56M227.68 737.14L227.68 780.14M233.05 782.71L233.05 739.71M238.43 742.29L238.43 785.29M243.8 767.38L243.8 744.86M191.06 805.59L191.06 820.0M196.43 820.0L196.43 808.16M201.8 810.73L201.8 820.0M207.17 820.0L207.17 813.31M212.54 815.88L212.54 820.0M217.91 820.0L217.91 818.46M503.62 50.0L503.62 52.36M508.99 54.93L508.99 50.0M514.37 50.0L514.37 57.5M519.74 60.08L519.74 50.0M467.0 98.29L467.0 120.81M472.37 123.38L472.37 80.38M477.74 82.95L477.74 125.95M483.11 128.53L483.11 85.53M488.48 88.1L488.48 131.1M493.85 133.67L493.85 90.67M499.22 93.25L499.22 136.25M504.59 118.34L504.59 95.82M446.48 174.46L446.48 196.98M451.85 199.55L451.85 156.55M457.22 159.12L457.22 202.12M462.6 204.7L462.6 161.7M467.97 164.27L467.97 207.27M473.34 209.84L473.34 166.84M478.71 169.42L478.71 212.42M484.08 194.51L484.08 171.99M425.97 250.63L425.97 273.15M431.34 275.72L431.34 232.72M436.71 235.29L436.71 278.29M442.08 280.87L442.08 237.87M447.45 240.44L447.45 283.44M452.82 286.02L452.82 243.02M458.2 245.59L458.2 288.59M463.57 270.68L463.57 248.16M405.45 326.8L405.45 349.32M410.82 351.89L410.82 308.89M416.2 311.46L416.2 354.46M421.57 357.04L421.57 314.04M426.94 316.61L426.94 359.61M432.31 362.19L432.31 319.19M437.68 321.76L437.68 364.76M443.05 346.85L443.05 324.33M384.94 402.97L384.94 425.49M390.31 428.06L390.31 385.06M395.68 387.64L395.68 430.64M401.05 433.21L401.05 390.21M406.42 392.78L406.42 435.78M411.8 438.36L411.8 395.36M417.17 397.93L417.17 440.93M422.54 423.02L422.54 400.5M364.42 479.14L364.42 501.66M369.8 504.23L369.8 461.23M375.17 463.81L375.17 506.81M380.54 509.38L380.54 466.38M385.91 468.95L385.91 511.95M391.28 514.53L391.28 471.53M396.65 474.1L396.65 517.1M402.02 499.19L402.02 476.67M343.91 555.31L343.91 577.83M349.28 580.4L349.28 537.4M354.65 539.98L354.65 582.98M360.02 585.55L360.02 542.55M365.4 545.12L365.4 588.12M370.77 590.7L370.77 547.7M376.14 550.27L376.14 593.27M381.51 575.36L381.51 552.85M323.4 631.48L323.4 654.0M328.77 656.57L328.77 613.57M334.14 616.15L334.14 659.15M339.51 661.72L339.51 618.72M344.88 621.29L344.88 664.29M350.25 666.87L350.25 623.87M355.62 626.44L355.62 669.44M361.0 651.53L361.0 629.02M302.88 707.65L302.88 730.17M308.25 732.74L308.25 689.74M313.63 692.32L313.63 735.32M319.0 737.89L319.0 694.89M324.37 697.47L324.37 740.47M329.74 743.04L329.74 700.04M335.11 702.61L335.11 745.61M340.48 727.7L340.48 705.19M282.37 783.82L282.37 806.34M287.74 808.91L287.74 765.91M293.11 768.49L293.11 811.49M298.48 814.06L298.48 771.06M303.85 773.64L303.85 816.64M309.23 819.21L309.23 776.21M314.6 778.78L314.6 820.0M319.97 803.87L319.97 781.36M563.68 58.61L563.68 81.13M569.05 83.71L569.05 50.0M574.42 50.0L574.42 86.28M579.79 88.85L579.79 50.0M585.17 50.0L585.17 91.43M590.54 94.0L590.54 51.0M595.91 53.58L595.91 96.58M601.28 78.67L601.28 56.15M543.17 134.79L543.17 157.3M548.54 159.88L548.54 116.88M553.91 119.45L553.91 162.45M559.28 165.02L559.28 122.02M564.65 124.6L564.65 167.6M570.02 170.17L570.02 127.17M575.39 129.75L575.39 172.75M580.77 154.84L580.77 132.32M522.65 210.96L522.65 233.47M528.02 236.05L528.02 193.05M533.39 195.62L533.39 238.62M538.77 241.19L538.77 198.19M544.14 200.77L544.14 243.77M549.51 246.34L549.51 203.34M554.88 205.92L554.88 248.92M560.25 231.01L560.25 208.49M502.14 287.13L502.14 309.64M507.51 312.22L507.51 269.22M512.88 271.79L512.88 314.79M518.25 317.37L518.25 274.37M523.62 276.94L523.62 319.94M528.99 322.51L528.99 279.51M534.37 282.09L534.37 325.09M539.74 307.18L539.74 284.66M481.62 363.3L481.62 385.81M486.99 388.39L486.99 345.39M492.37 347.96L492.37 390.96M497.74 393.54L497.74 350.54M503.11 353.11L503.11 396.11M508.48 398.68L508.48 355.68M513.85 358.26L513.85 401.26M519.22 383.35L519.22 360.83M461.11 439.47L461.11 461.99M466.48 464.56L466.48 421.56M471.85 424.13L471.85 467.13M477.22 469.71L477.22 426.71M482.59 429.28L482.59 472.28M487.97 474.85L487.97 431.85M493.34 434.43L493.34 477.43M498.71 459.52L498.71 437.0M440.6 515.64L440.6 538.16M445.97 540.73L445.97 497.73M451.34 500.3L451.34 543.3M456.71 545.88L456.71 502.88M462.08 505.45L462.08 548.45M467.45 551.02L467.45 508.02M472.82 510.6L472.82 553.6M478.19 535.69L478.19 513.17M420.08 591.81L420.08 614.33M425.45 616.9L425.45 573.9M430.82 576.47L430.82 619.47M436.2 622.05L436.2 579.05M441.57 581.62L441.57 624.62M446.94 627.2L446.94 584.2M452.31 586.77L452.31 629.77M457.68 611.86L457.68 589.34M399.57 667.98L399.57 690.5M404.94 693.07L404.94 650.07M410.31 652.64L410.31 695.64M415.68 698.22L415.68 655.22M421.05 657.79L421.05 700.79M426.42 703.37L426.42 660.37M431.8 662.94L431.8 705.94M437.17 688.03L437.17 665.51M379.05 744.15L379.05 766.67M384.42 769.24L384.42 726.24M389.8 728.82L389.8 771.82M395.17 774.39L395.17 731.39M400.54 733.96L400.54 776.96M405.91 779.54L405.91 736.54M411.28 739.11L411.28 782.11M416.65 764.2L416.65 741.68M363.91 802.41L363.91 820.0M369.28 820.0L369.28 804.99M374.65 807.56L374.65 820.0M380.02 820.0L380.02 810.13M385.4 812.71L385.4 820.0M390.77 820.0L390.77 815.28M396.14 817.85L396.14 820.0M681.85 51.75L681.85 50.0M687.22 50.0L687.22 54.33M692.59 56.9L692.59 50.0M639.85 95.11L639.85 117.63M645.22 120.2L645.22 77.2M650.59 79.78L650.59 122.78M655.96 125.35L655.96 82.35M661.34 84.93L661.34 127.93M666.71 130.5L666.71 87.5M672.08 90.07L672.08 133.07M677.45 115.16L677.45 92.65M619.34 171.28L619.34 193.8M624.71 196.37L624.71 153.37M630.08 155.95L630.08 198.95M635.45 201.52L635.45 158.52M640.82 161.1L640.82 204.1M646.19 206.67L646.19 163.67M651.56 166.24L651.56 209.24M656.94 191.33L656.94 168.82M598.82 247.45L598.82 269.97M604.19 272.55L604.19 229.55M609.57 232.12L609.57 275.12M614.94 277.69L614.94 234.69M620.31 237.27L620.31 280.27M625.68 282.84L625.68 239.84M631.05 242.41L631.05 285.41M636.42 267.51L636.42 244.99M578.31 323.62L578.31 346.14M583.68 348.72L583.68 305.72M589.05 308.29L589.05 351.29M594.42 353.86L594.42 310.86M599.79 313.44L599.79 356.44M605.17 359.01L605.17 316.01M610.54 318.58L610.54 361.58M615.91 343.68L615.91 321.16M557.79 399.79L557.79 422.31M563.17 424.89L563.17 381.89M568.54 384.46L568.54 427.46M573.91 430.03L573.91 387.03M579.28 389.61L579.28 432.61M584.65 435.18L584.65 392.18M590.02 394.75L590.02 437.75M595.39 419.85L595.39 397.33M537.28 475.96L537.28 498.48M542.65 501.06L542.65 458.06M548.02 460.63L548.02 503.63M553.39 506.2L553.39 463.2M558.77 465.78L558.77 508.78M564.14 511.35L564.14 468.35M569.51 470.93L569.51 513.93M574.88 496.02L574.88 473.5M516.77 552.14L516.77 574.65M522.14 577.23L522.14 534.23M527.51 536.8L527.51 579.8M532.88 582.37L532.88 539.37M538.25 541.95L538.25 584.95M543.62 587.52L543.62 544.52M548.99 547.1L548.99 590.1M554.37 572.19L554.37 549.67M496.25 628.31L496.25 650.82M501.62 653.4L501.62 610.4M506.99 612.97L506.99 655.97M512.37 658.55L512.37 615.55M517.74 618.12L517.74 661.12M523.11 663.69L523.11 620.69M528.48 623.27L528.48 666.27M533.85 648.36L533.85 625.84M475.74 704.48L475.74 726.99M481.11 729.57L481.11 686.57M486.48 689.14L486.48 732.14M491.85 734.72L491.85 691.72M497.22 694.29L497.22 737.29M502.59 739.86L502.59 696.86M507.97 699.44L507.97 742.44M513.34 724.53L513.34 702.01M455.22 780.65L455.22 803.17M460.6 805.74L460.6 762.74M465.97 765.31L465.97 808.31M471.34 810.89L471.34 767.89M476.71 770.46L476.71 813.46M482.08 816.03L482.08 773.03M487.45 775.61L487.45 818.61M492.82 800.7L492.82 778.18M736.54 55.44L736.54 77.96M741.91 80.53L741.91 50.0M747.28 50.0L747.28 83.1M752.65 85.68L752.65 50.0M758.02 50.0L758.02 88.25M763.39 90.83L763.39 50.0M768.76 50.4L768.76 93.4M774.13 75.49L774.13 52.97M716.02 131.61L716.02 154.13M721.39 156.7L721.39 113.7M726.76 116.28L726.76 159.28M732.14 161.85L732.14 118.85M737.51 121.42L737.51 164.42M742.88 167.0L742.88 124.0M748.25 126.57L748.25 169.57M753.62 151.66L753.62 129.14M695.51 207.78L695.51 230.3M700.88 232.87L700.88 189.87M706.25 192.45L706.25 235.45M711.62 238.02L711.62 195.02M716.99 197.59L716.99 240.59M722.36 243.17L722.36 200.17M727.74 202.74L727.74 245.74M733.11 227.83L733.11 205.31M674.99 283.95L674.99 306.47M680.36 309.04L680.36 266.04M685.74 268.62L685.74 311.62M691.11 314.19L691.11 271.19M696.48 273.76L696.48 316.76M701.85 319.34L701.85 276.34M707.22 278.91L707.22 321.91M712.59 304.0L712.59 281.48M654.48 360.12L654.48 382.64M659.85 385.21L659.85 342.21M665.22 344.79L665.22 387.79M670.59 390.36L670.59 347.36M675.96 349.93L675.96 392.93M681.34 395.51L681.34 352.51M686.71 355.08L686.71 398.08M692.08 380.17L692.08 357.66M633.96 436.29L633.96 458.81M639.34 461.38L639.34 418.38M644.71 420.96L644.71 463.96M650.08 466.53L650.08 423.53M655.45 426.1L655.45 469.1M660.82 471.68L660.82 428.68M666.19 431.25L666.19 474.25M671.56 456.34L671.56 433.83M613.45 512.46L613.45 534.98M618.82 537.55L618.82 494.55M624.19 497.13L624.19 540.13M629.56 542.7L629.56 499.7M634.94 502.28L634.94 545.28M640.31 547.85L640.31 504.85M645.68 507.42L645.68 550.42M651.05 532.51L651.05 510.0M592.94 588.63L592.94 611.15M598.31 613.72L598.31 570.72M603.68 573.3L603.68 616.3M609.05 618.87L609.05 575.87M614.42 578.45L614.42 621.45M619.79 624.02L619.79 581.02M625.16 583.59L625.16 626.59M630.54 608.69L630.54 586.17M572.42 664.8L572.42 687.32M577.79 689.9L577.79 646.9M583.17 649.47L583.17 692.47M588.54 695.04L588.54 652.04M593.91 654.62L593.91 697.62M599.28 700.19L599.28 657.19M604.65 659.76L604.65 702.76M610.02 684.86L610.02 662.34M551.91 740.97L551.91 763.49M557.28 766.07L557.28 723.07M562.65 725.64L562.65 768.64M568.02 771.21L568.02 728.21M573.39 730.79L573.39 773.79M578.77 776.36L578.77 733.36M584.14 735.93L584.14 778.93M589.51 761.03L589.51 738.51M531.39 817.14L531.39 820.0M536.77 820.0L536.77 799.24M542.14 801.81L542.14 820.0M547.51 820.0L547.51 804.38M552.88 806.96L552.88 820.0M558.25 820.0L558.25 809.53M563.62 812.11L563.62 820.0M568.99 820.0L568.99 814.68M860.08 50.0L860.08 51.15M865.45 53.73L865.45 50.0M812.71 91.94L812.71 114.45M818.08 117.03L818.08 74.03M823.45 76.6L823.45 119.6M828.82 122.18L828.82 79.18M834.19 81.75L834.19 124.75M839.56 127.32L839.56 84.32M844.93 86.9L844.93 129.9M850.31 111.99L850.31 89.47M792.19 168.11L792.19 190.63M797.56 193.2L797.56 150.2M802.93 152.77L802.93 195.77M808.31 198.35L808.31 155.35M813.68 157.92L813.68 200.92M819.05 203.49L819.05 160.49M824.42 163.07L824.42 206.07M829.79 188.16L829.79 165.64M771.68 244.28L771.68 266.8M777.05 269.37L777.05 226.37M782.42 228.94L782.42 271.94M787.79 274.52L787.79 231.52M793.16 234.09L793.16 277.09M798.53 279.66L798.53 236.66M803.91 239.24L803.91 282.24M809.28 264.33L809.28 241.81M751.16 320.45L751.16 342.97M756.53 345.54L756.53 302.54M761.91 305.11L761.91 348.11M767.28 350.69L767.28 307.69M772.65 310.26L772.65 353.26M778.02 355.84L778.02 312.84M783.39 315.41L783.39 358.41M788.76 340.5L788.76 317.98M730.65 396.62L730.65 419.14M736.02 421.71L736.02 378.71M741.39 381.28L741.39 424.28M746.76 426.86L746.76 383.86M752.13 386.43L752.13 429.43M757.51 432.01L757.51 389.01M762.88 391.58L762.88 434.58M768.25 416.67L768.25 394.15M710.14 472.79L710.14 495.31M715.51 497.88L715.51 454.88M720.88 457.46L720.88 500.46M726.25 503.03L726.25 460.03M731.62 462.6L731.62 505.6M736.99 508.18L736.99 465.18M742.36 467.75L742.36 510.75M747.73 492.84L747.73 470.32M689.62 548.96L689.62 571.48M694.99 574.05L694.99 531.05M700.36 533.63L700.36 576.63M705.74 579.2L705.74 536.2M711.11 538.77L711.11 581.77M716.48 584.35L716.48 541.35M721.85 543.92L721.85 586.92M727.22 569.01L727.22 546.49M669.11 625.13L669.11 647.65M674.48 650.22L674.48 607.22M679.85 609.8L679.85 652.8M685.22 655.37L685.22 612.37M690.59 614.94L690.59 657.94M695.96 660.52L695.96 617.52M701.34 620.09L701.34 663.09M706.71 645.18L706.71 622.66M648.59 701.3L648.59 723.82M653.96 726.39L653.96 683.39M659.34 685.97L659.34 728.97M664.71 731.54L664.71 688.54M670.08 691.11L670.08 734.11M675.45 736.69L675.45 693.69M680.82 696.26L680.82 739.26M686.19 721.35L686.19 698.84M628.08 777.47L628.08 799.99M633.45 802.56L633.45 759.56M638.82 762.14L638.82 805.14M644.19 807.71L644.19 764.71M649.56 767.28L649.56 810.28M654.94 812.86L654.94 769.86M660.31 772.43L660.31 815.43M665.68 797.52L665.68 775.01M909.39 52.26L909.39 74.78M914.76 77.36L914.76 50.0M920.13 50.0L920.13 79.93M925.5 82.5L925.5 50.0M930.88 50.0L930.88 85.08M936.25 87.65L936.25 50.0M941.62 50.0L941.62 90.22M946.99 72.32L946.99 50.0M888.88 128.43L888.88 150.95M894.25 153.53L894.25 110.53M899.62 113.1L899.62 156.1M904.99 158.67L904.99 115.67M910.36 118.25L910.36 161.25M915.73 163.82L915.73 120.82M921.1 123.39L921.1 166.39M926.48 148.49L926.48 125.97M868.36 204.6L868.36 227.12M873.73 229.7L873.73 186.7M879.1 189.27L879.1 232.27M884.48 234.84L884.48 191.84M889.85 194.42L889.85 237.42M895.22 239.99L895.22 196.99M900.59 199.57L900.59 242.57M905.96 224.66L905.96 202.14M847.85 280.78L847.85 303.29M853.22 305.87L853.22 262.87M858.59 265.44L858.59 308.44M863.96 311.01L863.96 268.01M869.33 270.59L869.33 313.59M874.7 316.16L874.7 273.16M880.08 275.74L880.08 318.74M885.45 300.83L885.45 278.31M827.33 356.95L827.33 379.46M832.71 382.04L832.71 339.04M838.08 341.61L838.08 384.61M843.45 387.19L843.45 344.19M848.82 346.76L848.82 389.76M854.19 392.33L854.19 349.33M859.56 351.91L859.56 394.91M864.93 377.0L864.93 354.48M806.82 433.12L806.82 455.63M812.19 458.21L812.19 415.21M817.56 417.78L817.56 460.78M822.93 463.36L822.93 420.36M828.31 422.93L828.31 465.93M833.68 468.5L833.68 425.5M839.05 428.08L839.05 471.08M844.42 453.17L844.42 430.65M786.31 509.29L786.31 531.81M791.68 534.38L791.68 491.38M797.05 493.95L797.05 536.95M802.42 539.53L802.42 496.53M807.79 499.1L807.79 542.1M813.16 544.67L813.16 501.67M818.53 504.25L818.53 547.25M823.91 529.34L823.91 506.82M765.79 585.46L765.79 607.98M771.16 610.55L771.16 567.55M776.53 570.12L776.53 613.12M781.91 615.7L781.91 572.7M787.28 575.27L787.28 618.27M792.65 620.84L792.65 577.84M798.02 580.42L798.02 623.42M803.39 605.51L803.39 582.99M745.28 661.63L745.28 684.15M750.65 686.72L750.65 643.72M756.02 646.29L756.02 689.29M761.39 691.87L761.39 648.87M766.76 651.44L766.76 694.44M772.13 697.01L772.13 654.01M777.51 656.59L777.51 699.59M782.88 681.68L782.88 659.16M724.76 737.8L724.76 760.32M730.13 762.89L730.13 719.89M735.51 722.46L735.51 765.46M740.88 768.04L740.88 725.04M746.25 727.61L746.25 770.61M751.62 773.19L751.62 730.19M756.99 732.76L756.99 775.76M762.36 757.85L762.36 735.33M704.25 813.97L704.25 820.0M709.62 820.0L709.62 796.06M714.99 798.63L714.99 820.0M720.36 820.0L720.36 801.21M725.73 803.78L725.73 820.0M731.11 820.0L731.11 806.36M736.48 808.93L736.48 820.0M741.85 820.0L741.85 811.5M1038.3 50.0L1038.3 50.55M985.56 111.28L985.56 88.76M990.93 70.85L990.93 113.85M996.3 116.43L996.3 73.43M1001.68 76.0L1001.68 119.0M1007.05 121.57L1007.05 78.57M1012.42 81.15L1012.42 124.15M1017.79 126.72L1017.79 83.72M1023.16 86.3L1023.16 108.81M965.05 187.45L965.05 164.93M970.42 147.02L970.42 190.02M975.79 192.6L975.79 149.6M981.16 152.17L981.16 195.17M986.53 197.74L986.53 154.74M991.9 157.32L991.9 200.32M997.28 202.89L997.28 159.89M1002.65 162.47L1002.65 184.98M944.53 263.62L944.53 241.1M949.9 223.19L949.9 266.19M955.28 268.77L955.28 225.77M960.65 228.34L960.65 271.34M966.02 273.92L966.02 230.92M971.39 233.49L971.39 276.49M976.76 279.06L976.76 236.06M982.13 238.64L982.13 261.15M924.02 339.79L924.02 317.27M929.39 299.36L929.39 342.36M934.76 344.94L934.76 301.94M940.13 304.51L940.13 347.51M945.5 350.09L945.5 307.09M950.88 309.66L950.88 352.66M956.25 355.23L956.25 312.23M961.62 314.81L961.62 337.33M903.5 415.96L903.5 393.44M908.88 375.54L908.88 418.54M914.25 421.11L914.25 378.11M919.62 380.68L919.62 423.68M924.99 426.26L924.99 383.26M930.36 385.83L930.36 428.83M935.73 431.4L935.73 388.4M941.1 390.98L941.1 413.5M882.99 492.13L882.99 469.61M888.36 451.71L888.36 494.71M893.73 497.28L893.73 454.28M899.1 456.85L899.1 499.85M904.48 502.43L904.48 459.43M909.85 462.0L909.85 505.0M915.22 507.57L915.22 464.57M920.59 467.15L920.59 489.67M862.48 568.3L862.48 545.78M867.85 527.88L867.85 570.88M873.22 573.45L873.22 530.45M878.59 533.02L878.59 576.02M883.96 578.6L883.96 535.6M889.33 538.17L889.33 581.17M894.7 583.75L894.7 540.75M900.08 543.32L900.08 565.84M841.96 644.47L841.96 621.96M847.33 604.05L847.33 647.05M852.7 649.62L852.7 606.62M858.08 609.19L858.08 652.19M863.45 654.77L863.45 611.77M868.82 614.34L868.82 657.34M874.19 659.92L874.19 616.92M879.56 619.49L879.56 642.01M821.45 720.64L821.45 698.13M826.82 680.22L826.82 723.22M832.19 725.79L832.19 682.79M837.56 685.36L837.56 728.36M842.93 730.94L842.93 687.94M848.31 690.51L848.31 733.51M853.68 736.09L853.68 693.09M859.05 695.66L859.05 718.18M800.93 796.81L800.93 774.3M806.31 756.39L806.31 799.39M811.68 801.96L811.68 758.96M817.05 761.54L817.05 804.54M822.42 807.11L822.42 764.11M827.79 766.68L827.79 809.68M833.16 812.26L833.16 769.26M838.53 771.83L838.53 794.35M1082.25 71.61L1082.25 50.0M1087.62 50.0L1087.62 74.18M1092.99 76.75L1092.99 50.0M1098.36 50.0L1098.36 79.33M1061.73 147.78L1061.73 125.26M1067.1 107.35L1067.1 150.35M1072.47 152.92L1072.47 109.92M1077.85 112.5L1077.85 155.5M1083.22 158.07L1083.22 115.07M1088.59 117.65L1088.59 160.65M1093.96 163.22L1093.96 120.22M1099.33 122.79L1099.33 145.31M1041.22 223.95L1041.22 201.43M1046.59 183.52L1046.59 226.52M1051.96 229.09L1051.96 186.09M1057.33 188.67L1057.33 231.67M1062.7 234.24L1062.7 191.24M1068.07 193.82L1068.07 236.82M1073.45 239.39L1073.45 196.39M1078.82 198.96L1078.82 221.48M1020.7 300.12L1020.7 277.6M1026.07 259.69L1026.07 302.69M1031.45 305.27L1031.45 262.27M1036.82 264.84L1036.82 307.84M1042.19 310.41L1042.19 267.41M1047.56 269.99L1047.56 312.99M1052.93 315.56L1052.93 272.56M1058.3 275.13L1058.3 297.65M1000.19 376.29L1000.19 353.77M1005.56 335.86L1005.56 378.86M1010.93 381.44L1010.93 338.44M1016.3 341.01L1016.3 384.01M1021.67 386.58L1021.67 343.58M1027.05 346.16L1027.05 389.16M1032.42 391.73L1032.42 348.73M1037.79 351.3L1037.79 373.82M979.68 452.46L979.68 429.94M985.05 412.03L985.05 455.03M990.42 457.61L990.42 414.61M995.79 417.18L995.79 460.18M1001.16 462.75L1001.16 419.75M1006.53 422.33L1006.53 465.33M1011.9 467.9L1011.9 424.9M1017.27 427.48L1017.27 449.99M959.16 528.63L959.16 506.11M964.53 488.2L964.53 531.2M969.9 533.78L969.9 490.78M975.28 493.35L975.28 536.35M980.65 538.92L980.65 495.92M986.02 498.5L986.02 541.5M991.39 544.07L991.39 501.07M996.76 503.65L996.76 526.16M938.65 604.8L938.65 582.28M944.02 564.37L944.02 607.37M949.39 609.95L949.39 566.95M954.76 569.52L954.76 612.52M960.13 615.1L960.13 572.1M965.5 574.67L965.5 617.67M970.88 620.24L970.88 577.24M976.25 579.82L976.25 602.33M918.13 680.97L918.13 658.45M923.5 640.54L923.5 683.54M928.88 686.12L928.88 643.12M934.25 645.69L934.25 688.69M939.62 691.27L939.62 648.27M944.99 650.84L944.99 693.84M950.36 696.41L950.36 653.41M955.73 655.99L955.73 678.5M897.62 757.14L897.62 734.62M902.99 716.72L902.99 759.72M908.36 762.29L908.36 719.29M913.73 721.86L913.73 764.86M919.1 767.44L919.1 724.44M924.48 727.01L924.48 770.01M929.85 772.58L929.85 729.58M935.22 732.16L935.22 754.68M877.1 820.0L877.1 810.79M882.48 792.89L882.48 820.0M887.85 820.0L887.85 795.46M893.22 798.03L893.22 820.0M898.59 820.0L898.59 800.61M903.96 803.18L903.96 820.0M909.33 820.0L909.33 805.75M914.7 808.33L914.7 820.0M1096.87 336.62L1096.87 314.1M1076.36 390.27L1076.36 412.79M1081.73 415.36L1081.73 372.36M1087.1 374.93L1087.1 417.93M1092.47 420.51L1092.47 377.51M1097.85 380.08L1097.85 423.08M1055.85 488.96L1055.85 466.44M1061.22 448.53L1061.22 491.53M1066.59 494.1L1066.59 451.1M1071.96 453.68L1071.96 496.68M1077.33 499.25L1077.33 456.25M1082.7 458.83L1082.7 501.83M1088.07 504.4L1088.07 461.4M1093.45 463.97L1093.45 486.49M1035.33 565.13L1035.33 542.61M1040.7 524.7L1040.7 567.7M1046.07 570.27L1046.07 527.27M1051.45 529.85L1051.45 572.85M1056.82 575.42L1056.82 532.42M1062.19 535.0L1062.19 578.0M1067.56 580.57L1067.56 537.57M1072.93 540.14L1072.93 562.66M1014.82 641.3L1014.82 618.78M1020.19 600.87L1020.19 643.87M1025.56 646.45L1025.56 603.45M1030.93 606.02L1030.93 649.02M1036.3 651.59L1036.3 608.59M1041.67 611.17L1041.67 654.17M1047.05 656.74L1047.05 613.74M1052.42 616.31L1052.42 638.83M994.3 717.47L994.3 694.95M999.67 677.04L999.67 720.04M1005.05 722.62L1005.05 679.62M1010.42 682.19L1010.42 725.19M1015.79 727.76L1015.79 684.76M1021.16 687.34L1021.16 730.34M1026.53 732.91L1026.53 689.91M1031.9 692.48L1031.9 715.0M973.79 793.64L973.79 771.12M979.16 753.21L979.16 796.21M984.53 798.79L984.53 755.79M989.9 758.36L989.9 801.36M995.27 803.93L995.27 760.93M1000.65 763.51L1000.65 806.51M1006.02 809.08L1006.02 766.08M1011.39 768.65L1011.39 791.17M1090.99 677.8L1090.99 655.28M1096.36 637.37L1096.36 680.37M1070.47 753.97L1070.47 731.45M1075.85 713.54L1075.85 756.54M1081.22 759.11L1081.22 716.11M1086.59 718.69L1086.59 761.69M1091.96 764.26L1091.96 721.26M1097.33 723.83L1097.33 766.83M1049.96 820.0L1049.96 807.62M1055.33 789.71L1055.33 820.0M1060.7 820.0L1060.7 792.28M1066.07 794.86L1066.07 820.0M1071.45 820.0L1071.45 797.43M1076.82 800.01L1076.82 820.0M1082.19 820.0L1082.19 802.58M1087.56 805.15L1087.56 820.0M957.73 54.95L957.73 50.0M963.1 50.0L963.1 57.52M968.48 60.09L968.48 50.0M973.85 50.0L973.85 62.67M979.22 65.24L979.22 50.0M984.59 50.0L984.59 67.81M989.96 70.39L989.96 50.0M995.33 50.0L995.33 52.48M1033.9 91.44L1033.9 68.92M1039.27 51.02L1039.27 94.02M1044.65 96.59L1044.65 53.59M1050.02 56.16L1050.02 99.16M1055.39 101.74L1055.39 58.74M1060.76 61.31L1060.76 104.31M1066.13 106.89L1066.13 63.89M1071.5 66.46L1071.5 88.98M784.88 58.12L784.88 50.0M790.25 50.0L790.25 60.69M795.62 63.27L795.62 50.0M800.99 50.0L800.99 65.84M806.36 68.42L806.36 50.0M811.73 50.0L811.73 70.99M817.11 73.56L817.11 50.0M822.48 50.0L822.48 55.65M861.05 94.62L861.05 72.1M866.42 54.19L866.42 97.19M871.79 99.77L871.79 56.77M877.16 59.34L877.16 102.34M882.53 104.91L882.53 61.91M887.9 64.49L887.9 107.49M893.28 110.06L893.28 67.06M898.65 69.63L898.65 92.15M937.22 131.12L937.22 108.6M942.59 90.69L942.59 133.69M947.96 136.26L947.96 93.26M953.33 95.84L953.33 138.84M958.7 141.41L958.7 98.41M964.08 100.98L964.08 143.98M969.45 146.56L969.45 103.56M974.82 106.13L974.82 128.65M1013.39 167.61L1013.39 145.1M1018.76 127.19L1018.76 170.19M1024.13 172.76L1024.13 129.76M1029.5 132.33L1029.5 175.33M1034.87 177.91L1034.87 134.91M1040.25 137.48L1040.25 180.48M1045.62 183.06L1045.62 140.06M1050.99 142.63L1050.99 165.15M1089.56 204.11L1089.56 181.59M1094.93 163.68L1094.93 206.68M612.02 61.3L612.02 50.0M617.39 50.0L617.39 63.87M622.76 66.44L622.76 50.0M628.14 50.0L628.14 69.02M633.51 71.59L633.51 50.0M638.88 50.0L638.88 74.16M644.25 76.74L644.25 50.0M649.62 50.0L649.62 58.83M688.19 97.79L688.19 75.28M693.56 57.37L693.56 100.37M698.94 102.94L698.94 59.94M704.31 62.51L704.31 105.51M709.68 108.09L709.68 65.09M715.05 67.66L715.05 110.66M720.42 113.24L720.42 70.24M725.79 72.81L725.79 95.33M764.36 134.29L764.36 111.77M769.73 93.87L769.73 136.87M775.11 139.44L775.11 96.44M780.48 99.01L780.48 142.01M785.85 144.59L785.85 101.59M791.22 104.16L791.22 147.16M796.59 149.73L796.59 106.73M801.96 109.31L801.96 131.83M840.53 170.79L840.53 148.27M845.91 130.36L845.91 173.36M851.28 175.94L851.28 132.94M856.65 135.51L856.65 178.51M862.02 181.08L862.02 138.08M867.39 140.66L867.39 183.66M872.76 186.23L872.76 143.23M878.13 145.8L878.13 168.32M916.7 207.29L916.7 184.77M922.08 166.86L922.08 209.86M927.45 212.43L927.45 169.43M932.82 172.01L932.82 215.01M938.19 217.58L938.19 174.58M943.56 177.16L943.56 220.16M948.93 222.73L948.93 179.73M954.3 182.3L954.3 204.82M992.88 243.78L992.88 221.27M998.25 203.36L998.25 246.36M1003.62 248.93L1003.62 205.93M1008.99 208.51L1008.99 251.51M1014.36 254.08L1014.36 211.08M1019.73 213.65L1019.73 256.65M1025.1 259.23L1025.1 216.23M1030.47 218.8L1030.47 241.32M1069.05 280.28L1069.05 257.76M1074.42 239.86L1074.42 282.86M1079.79 285.43L1079.79 242.43M1085.16 245.0L1085.16 288.0M1090.53 290.58L1090.53 247.58M1095.9 250.15L1095.9 293.15M439.17 64.47L439.17 50.0M444.54 50.0L444.54 67.05M449.91 69.62L449.91 50.0M455.28 50.0L455.28 72.19M460.65 74.77L460.65 50.0M466.02 50.0L466.02 77.34M471.4 79.91L471.4 50.0M476.77 50.0L476.77 62.01M515.34 100.97L515.34 78.45M520.71 60.54L520.71 103.54M526.08 106.12L526.08 63.12M531.45 65.69L531.45 108.69M536.82 111.26L536.82 68.26M542.19 70.84L542.19 113.84M547.57 116.41L547.57 73.41M552.94 75.99L552.94 98.5M591.51 137.47L591.51 114.95M596.88 97.04L596.88 140.04M602.25 142.61L602.25 99.61M607.62 102.19L607.62 145.19M612.99 147.76L612.99 104.76M618.37 107.34L618.37 150.34M623.74 152.91L623.74 109.91M629.11 112.48L629.11 135.0M667.68 173.96L667.68 151.45M673.05 133.54L673.05 176.54M678.42 179.11L678.42 136.11M683.79 138.69L683.79 181.69M689.16 184.26L689.16 141.26M694.54 143.83L694.54 186.83M699.91 189.41L699.91 146.41M705.28 148.98L705.28 171.5M743.85 210.46L743.85 187.94M749.22 170.04L749.22 213.04M754.59 215.61L754.59 172.61M759.96 175.18L759.96 218.18M765.33 220.76L765.33 177.76M770.71 180.33L770.71 223.33M776.08 225.9L776.08 182.9M781.45 185.48L781.45 208.0M820.02 246.96L820.02 224.44M825.39 206.53L825.39 249.53M830.76 252.11L830.76 209.11M836.13 211.68L836.13 254.68M841.51 257.25L841.51 214.25M846.88 216.83L846.88 259.83M852.25 262.4L852.25 219.4M857.62 221.98L857.62 244.49M896.19 283.46L896.19 260.94M901.56 243.03L901.56 286.03M906.93 288.6L906.93 245.6M912.3 248.18L912.3 291.18M917.68 293.75L917.68 250.75M923.05 253.33L923.05 296.33M928.42 298.9L928.42 255.9M933.79 258.47L933.79 280.99M972.36 319.95L972.36 297.44M977.73 279.53L977.73 322.53M983.1 325.1L983.1 282.1M988.48 284.68L988.48 327.68M993.85 330.25L993.85 287.25M999.22 289.82L999.22 332.82M1004.59 335.4L1004.59 292.4M1009.96 294.97L1009.96 317.49M1048.53 356.45L1048.53 333.93M1053.9 316.03L1053.9 359.03M1059.27 361.6L1059.27 318.6M1064.65 321.17L1064.65 364.17M1070.02 366.75L1070.02 323.75M1075.39 326.32L1075.39 369.32M1080.76 371.89L1080.76 328.89M1086.13 331.47L1086.13 353.99M266.31 67.65L266.31 50.0M271.68 50.0L271.68 70.22M277.05 72.79L277.05 50.0M282.43 50.0L282.43 75.37M287.8 77.94L287.8 50.0M293.17 50.0L293.17 80.52M298.54 83.09L298.54 50.0M303.91 50.0L303.91 65.18M342.48 104.14L342.48 81.63M347.85 63.72L347.85 106.72M353.23 109.29L353.23 66.29M358.6 68.87L358.6 111.87M363.97 114.44L363.97 71.44M369.34 74.01L369.34 117.01M374.71 119.59L374.71 76.59M380.08 79.16L380.08 101.68M418.65 140.64L418.65 118.12M424.02 100.22L424.02 143.22M429.4 145.79L429.4 102.79M434.77 105.36L434.77 148.36M440.14 150.94L440.14 107.94M445.51 110.51L445.51 153.51M450.88 156.08L450.88 113.08M456.25 115.66L456.25 138.18M494.82 177.14L494.82 154.62M500.19 136.71L500.19 179.71M505.57 182.29L505.57 139.29M510.94 141.86L510.94 184.86M516.31 187.43L516.31 144.43M521.68 147.01L521.68 190.01M527.05 192.58L527.05 149.58M532.42 152.16L532.42 174.67M570.99 213.64L570.99 191.12M576.37 173.21L576.37 216.21M581.74 218.78L581.74 175.78M587.11 178.36L587.11 221.36M592.48 223.93L592.48 180.93M597.85 183.51L597.85 226.51M603.22 229.08L603.22 186.08M608.59 188.65L608.59 211.17M647.16 250.13L647.16 227.62M652.54 209.71L652.54 252.71M657.91 255.28L657.91 212.28M663.28 214.86L663.28 257.86M668.65 260.43L668.65 217.43M674.02 220.0L674.02 263.0M679.39 265.58L679.39 222.58M684.76 225.15L684.76 247.67M723.34 286.63L723.34 264.11M728.71 246.21L728.71 289.21M734.08 291.78L734.08 248.78M739.45 251.35L739.45 294.35M744.82 296.93L744.82 253.93M750.19 256.5L750.19 299.5M755.56 302.07L755.56 259.07M760.93 261.65L760.93 284.17M799.51 323.13L799.51 300.61M804.88 282.7L804.88 325.7M810.25 328.28L810.25 285.28M815.62 287.85L815.62 330.85M820.99 333.42L820.99 290.42M826.36 293.0L826.36 336.0M831.73 338.57L831.73 295.57M837.11 298.15L837.11 320.66M875.68 359.63L875.68 337.11M881.05 319.2L881.05 362.2M886.42 364.77L886.42 321.77M891.79 324.35L891.79 367.35M897.16 369.92L897.16 326.92M902.53 329.5L902.53 372.5M907.9 375.07L907.9 332.07M913.28 334.64L913.28 357.16M951.85 396.13L951.85 373.61M957.22 355.7L957.22 398.7M962.59 401.27L962.59 358.27M967.96 360.85L967.96 403.85M973.33 406.42L973.33 363.42M978.7 365.99L978.7 408.99M984.08 411.57L984.08 368.57M989.45 371.14L989.45 393.66M1028.02 432.62L1028.02 410.1M1033.39 392.2L1033.39 435.2M1038.76 437.77L1038.76 394.77M1044.13 397.34L1044.13 440.34M1049.5 442.92L1049.5 399.92M1054.87 402.49L1054.87 445.49M1060.25 448.06L1060.25 405.06M1065.62 407.64L1065.62 430.16M93.46 70.82L93.46 50.0M98.83 50.0L98.83 73.4M104.2 75.97L104.2 50.0M109.57 50.0L109.57 78.54M114.94 81.12L114.94 50.0M120.31 50.0L120.31 83.69M125.68 86.26L125.68 50.0M131.06 50.0L131.06 68.36M169.63 107.32L169.63 84.8M175.0 66.89L175.0 109.89M180.37 112.47L180.37 69.47M185.74 72.04L185.74 115.04M191.11 117.61L191.11 74.61M196.48 77.19L196.48 120.19M201.86 122.76L201.86 79.76M207.23 82.34L207.23 104.85M245.8 143.82L245.8 121.3M251.17 103.39L251.17 146.39M256.54 148.97L256.54 105.97M261.91 108.54L261.91 151.54M267.28 154.11L267.28 111.11M272.65 113.69L272.65 156.69M278.03 159.26L278.03 116.26M283.4 118.83L283.4 141.35M321.97 180.32L321.97 157.8M327.34 139.89L327.34 182.89M332.71 185.46L332.71 142.46M338.08 145.04L338.08 188.04M343.45 190.61L343.45 147.61M348.83 150.18L348.83 193.18M354.2 195.76L354.2 152.76M359.57 155.33L359.57 177.85M398.14 216.81L398.14 194.29M403.51 176.39L403.51 219.39M408.88 221.96L408.88 178.96M414.25 181.53L414.25 224.53M419.62 227.11L419.62 184.11M425.0 186.68L425.0 229.68M430.37 232.26L430.37 189.26M435.74 191.83L435.74 214.35M474.31 253.31L474.31 230.79M479.68 212.88L479.68 255.88M485.05 258.46L485.05 215.46M490.42 218.03L490.42 261.03M495.79 263.61L495.79 220.61M501.17 223.18L501.17 266.18M506.54 268.75L506.54 225.75M511.91 228.33L511.91 250.84M550.48 289.81L550.48 267.29M555.85 249.38L555.85 292.38M561.22 294.96L561.22 251.96M566.59 254.53L566.59 297.53M571.97 300.1L571.97 257.1M577.34 259.68L577.34 302.68M582.71 305.25L582.71 262.25M588.08 264.82L588.08 287.34M626.65 326.31L626.65 303.79M632.02 285.88L632.02 328.88M637.39 331.45L637.39 288.45M642.76 291.03L642.76 334.03M648.14 336.6L648.14 293.6M653.51 296.17L653.51 339.17M658.88 341.75L658.88 298.75M664.25 301.32L664.25 323.84M702.82 362.8L702.82 340.28M708.19 322.38L708.19 365.38M713.56 367.95L713.56 324.95M718.94 327.52L718.94 370.52M724.31 373.1L724.31 330.1M729.68 332.67L729.68 375.67M735.05 378.25L735.05 335.25M740.42 337.82L740.42 360.34M778.99 399.3L778.99 376.78M784.36 358.87L784.36 401.87M789.73 404.45L789.73 361.45M795.11 364.02L795.11 407.02M800.48 409.6L800.48 366.6M805.85 369.17L805.85 412.17M811.22 414.74L811.22 371.74M816.59 374.32L816.59 396.83M855.16 435.8L855.16 413.28M860.53 395.37L860.53 438.37M865.9 440.95L865.9 397.95M871.28 400.52L871.28 443.52M876.65 446.09L876.65 403.09M882.02 405.67L882.02 448.67M887.39 451.24L887.39 408.24M892.76 410.81L892.76 433.33M931.33 472.3L931.33 449.78M936.7 431.87L936.7 474.87M942.08 477.44L942.08 434.44M947.45 437.02L947.45 480.02M952.82 482.59L952.82 439.59M958.19 442.16L958.19 485.16M963.56 487.74L963.56 444.74M968.93 447.31L968.93 469.83M1007.5 508.79L1007.5 486.28M1012.87 468.37L1012.87 511.37M1018.25 513.94L1018.25 470.94M1023.62 473.51L1023.62 516.51M1028.99 519.09L1028.99 476.09M1034.36 478.66L1034.36 521.66M1039.73 524.24L1039.73 481.24M1045.1 483.81L1045.1 506.33M1083.67 545.29L1083.67 522.77M1089.05 504.86L1089.05 547.86M1094.42 550.44L1094.42 507.44M1099.79 510.01L1099.79 553.01M72.94 146.99L72.94 124.47M78.31 106.57L78.31 149.57M83.69 152.14L83.69 109.14M89.06 111.71L89.06 154.71M94.43 157.29L94.43 114.29M99.8 116.86L99.8 159.86M105.17 162.44L105.17 119.44M110.54 122.01L110.54 144.53M149.11 183.49L149.11 160.97M154.48 143.06L154.48 186.06M159.86 188.64L159.86 145.64M165.23 148.21L165.23 191.21M170.6 193.79L170.6 150.79M175.97 153.36L175.97 196.36M181.34 198.93L181.34 155.93M186.71 158.51L186.71 181.02M225.28 219.99L225.28 197.47M230.66 179.56L230.66 222.56M236.03 225.14L236.03 182.14M241.4 184.71L241.4 227.71M246.77 230.28L246.77 187.28M252.14 189.86L252.14 232.86M257.51 235.43L257.51 192.43M262.88 195.0L262.88 217.52M301.45 256.49L301.45 233.97M306.83 216.06L306.83 259.06M312.2 261.63L312.2 218.63M317.57 221.21L317.57 264.21M322.94 266.78L322.94 223.78M328.31 226.35L328.31 269.35M333.68 271.93L333.68 228.93M339.05 231.5L339.05 254.02M377.62 292.98L377.62 270.47M383.0 252.56L383.0 295.56M388.37 298.13L388.37 255.13M393.74 257.7L393.74 300.7M399.11 303.28L399.11 260.28M404.48 262.85L404.48 305.85M409.85 308.43L409.85 265.43M415.22 268.0L415.22 290.52M453.8 329.48L453.8 306.96M459.17 289.05L459.17 332.05M464.54 334.63L464.54 291.63M469.91 294.2L469.91 337.2M475.28 339.78L475.28 296.78M480.65 299.35L480.65 342.35M486.02 344.92L486.02 301.92M491.39 304.5L491.39 327.01M529.97 365.98L529.97 343.46M535.34 325.55L535.34 368.55M540.71 371.13L540.71 328.13M546.08 330.7L546.08 373.7M551.45 376.27L551.45 333.27M556.82 335.85L556.82 378.85M562.19 381.42L562.19 338.42M567.57 340.99L567.57 363.51M606.14 402.48L606.14 379.96M611.51 362.05L611.51 405.05M616.88 407.62L616.88 364.62M622.25 367.2L622.25 410.2M627.62 412.77L627.62 369.77M632.99 372.34L632.99 415.34M638.36 417.92L638.36 374.92M643.74 377.49L643.74 400.01M682.31 438.97L682.31 416.46M687.68 398.55L687.68 441.55M693.05 444.12L693.05 401.12M698.42 403.69L698.42 446.69M703.79 449.27L703.79 406.27M709.16 408.84L709.16 451.84M714.54 454.42L714.54 411.42M719.91 413.99L719.91 436.51M758.48 475.47L758.48 452.95M763.85 435.04L763.85 478.04M769.22 480.62L769.22 437.62M774.59 440.19L774.59 483.19M779.96 485.77L779.96 442.77M785.33 445.34L785.33 488.34M790.71 490.91L790.71 447.91M796.08 450.49L796.08 473.01M834.65 511.97L834.65 489.45M840.02 471.54L840.02 514.54M845.39 517.12L845.39 474.12M850.76 476.69L850.76 519.69M856.13 522.26L856.13 479.26M861.5 481.84L861.5 524.84M866.88 527.41L866.88 484.41M872.25 486.98L872.25 509.5M910.82 548.47L910.82 525.95M916.19 508.04L916.19 551.04M921.56 553.61L921.56 510.61M926.93 513.19L926.93 556.19M932.3 558.76L932.3 515.76M937.68 518.33L937.68 561.33M943.05 563.91L943.05 520.91M948.42 523.48L948.42 546.0M986.99 584.96L986.99 562.45M992.36 544.54L992.36 587.54M997.73 590.11L997.73 547.11M1003.1 549.68L1003.1 592.68M1008.47 595.26L1008.47 552.26M1013.85 554.83L1013.85 597.83M1019.22 600.41L1019.22 557.41M1024.59 559.98L1024.59 582.5M1063.16 621.46L1063.16 598.94M1068.53 581.04L1068.53 624.04M1073.9 626.61L1073.9 583.61M1079.27 586.18L1079.27 629.18M1084.65 631.76L1084.65 588.76M1090.02 591.33L1090.02 634.33M1095.39 636.9L1095.39 593.9M52.43 200.65L52.43 223.16M57.8 225.74L57.8 182.74M63.17 185.31L63.17 228.31M68.54 230.88L68.54 187.88M73.91 190.46L73.91 233.46M79.29 236.03L79.29 193.03M84.66 195.61L84.66 238.61M90.03 220.7L90.03 198.18M128.6 237.14L128.6 259.66M133.97 262.23L133.97 219.23M139.34 221.81L139.34 264.81M144.71 267.38L144.71 224.38M150.08 226.96L150.08 269.96M155.46 272.53L155.46 229.53M160.83 232.1L160.83 275.1M166.2 257.2L166.2 234.68M204.77 273.64L204.77 296.16M210.14 298.73L210.14 255.73M215.51 258.31L215.51 301.31M220.88 303.88L220.88 260.88M226.26 263.45L226.26 306.45M231.63 309.03L231.63 266.03M237.0 268.6L237.0 311.6M242.37 293.69L242.37 271.17M280.94 310.14L280.94 332.66M286.31 335.23L286.31 292.23M291.68 294.8L291.68 337.8M297.05 340.38L297.05 297.38M302.43 299.95L302.43 342.95M307.8 345.52L307.8 302.52M313.17 305.1L313.17 348.1M318.54 330.19L318.54 307.67M357.11 346.64L357.11 369.15M362.48 371.73L362.48 328.73M367.85 331.3L367.85 374.3M373.22 376.88L373.22 333.88M378.6 336.45L378.6 379.45M383.97 382.02L383.97 339.02M389.34 341.6L389.34 384.6M394.71 366.69L394.71 344.17M433.28 383.13L433.28 405.65M438.65 408.23L438.65 365.23M444.02 367.8L444.02 410.8M449.4 413.37L449.4 370.37M454.77 372.95L454.77 415.95M460.14 418.52L460.14 375.52M465.51 378.09L465.51 421.09M470.88 403.19L470.88 380.67M509.45 419.63L509.45 442.15M514.82 444.72L514.82 401.72M520.19 404.3L520.19 447.3M525.57 449.87L525.57 406.87M530.94 409.44L530.94 452.44M536.31 455.02L536.31 412.02M541.68 414.59L541.68 457.59M547.05 439.68L547.05 417.17M585.62 456.13L585.62 478.65M590.99 481.22L590.99 438.22M596.37 440.79L596.37 483.79M601.74 486.37L601.74 443.37M607.11 445.94L607.11 488.94M612.48 491.52L612.48 448.52M617.85 451.09L617.85 494.09M623.22 476.18L623.22 453.66M661.79 492.63L661.79 515.14M667.16 517.72L667.16 474.72M672.54 477.29L672.54 520.29M677.91 522.87L677.91 479.87M683.28 482.44L683.28 525.44M688.65 528.01L688.65 485.01M694.02 487.59L694.02 530.59M699.39 512.68L699.39 490.16M737.96 529.12L737.96 551.64M743.33 554.22L743.33 511.22M748.71 513.79L748.71 556.79M754.08 559.36L754.08 516.36M759.45 518.94L759.45 561.94M764.82 564.51L764.82 521.51M770.19 524.08L770.19 567.08M775.56 549.18L775.56 526.66M814.13 565.62L814.13 588.14M819.51 590.71L819.51 547.71M824.88 550.29L824.88 593.29M830.25 595.86L830.25 552.86M835.62 555.43L835.62 598.43M840.99 601.01L840.99 558.01M846.36 560.58L846.36 603.58M851.73 585.67L851.73 563.16M890.3 602.12L890.3 624.64M895.68 627.21L895.68 584.21M901.05 586.78L901.05 629.78M906.42 632.36L906.42 589.36M911.79 591.93L911.79 634.93M917.16 637.51L917.16 594.51M922.53 597.08L922.53 640.08M927.9 622.17L927.9 599.65M966.48 638.62L966.48 661.13M971.85 663.71L971.85 620.71M977.22 623.28L977.22 666.28M982.59 668.86L982.59 625.86M987.96 628.43L987.96 671.43M993.33 674.0L993.33 631.0M998.7 633.58L998.7 676.58M1004.07 658.67L1004.07 636.15M1042.65 675.11L1042.65 697.63M1048.02 700.21L1048.02 657.21M1053.39 659.78L1053.39 702.78M1058.76 705.35L1058.76 662.35M1064.13 664.93L1064.13 707.93M1069.5 710.5L1069.5 667.5M1074.87 670.07L1074.87 713.07M1080.25 695.17L1080.25 672.65M53.4 266.63L53.4 309.63M58.77 312.2L58.77 269.2M64.14 271.78L64.14 314.78M69.51 296.87L69.51 274.35M108.08 313.31L108.08 335.83M113.46 338.41L113.46 295.41M118.83 297.98L118.83 340.98M124.2 343.55L124.2 300.55M129.57 303.13L129.57 346.13M134.94 348.7L134.94 305.7M140.31 308.27L140.31 351.27M145.68 333.37L145.68 310.85M184.26 349.81L184.26 372.33M189.63 374.9L189.63 331.9M195.0 334.48L195.0 377.48M200.37 380.05L200.37 337.05M205.74 339.62L205.74 382.62M211.11 385.2L211.11 342.2M216.48 344.77L216.48 387.77M221.86 369.86L221.86 347.35M260.43 386.31L260.43 408.83M265.8 411.4L265.8 368.4M271.17 370.97L271.17 413.97M276.54 416.55L276.54 373.55M281.91 376.12L281.91 419.12M287.28 421.7L287.28 378.7M292.65 381.27L292.65 424.27M298.03 406.36L298.03 383.84M336.6 422.81L336.6 445.32M341.97 447.9L341.97 404.9M347.34 407.47L347.34 450.47M352.71 453.05L352.71 410.05M358.08 412.62L358.08 455.62M363.45 458.19L363.45 415.19M368.82 417.77L368.82 460.77M374.2 442.86L374.2 420.34M412.77 459.3L412.77 481.82M418.14 484.4L418.14 441.4M423.51 443.97L423.51 486.97M428.88 489.54L428.88 446.54M434.25 449.12L434.25 492.12M439.62 494.69L439.62 451.69M445.0 454.26L445.0 497.26M450.37 479.36L450.37 456.84M488.94 495.8L488.94 518.32M494.31 520.89L494.31 477.89M499.68 480.47L499.68 523.47M505.05 526.04L505.05 483.04M510.42 485.61L510.42 528.61M515.79 531.19L515.79 488.19M521.17 490.76L521.17 533.76M526.54 515.85L526.54 493.34M565.11 532.3L565.11 554.82M570.48 557.39L570.48 514.39M575.85 516.96L575.85 559.96M581.22 562.54L581.22 519.54M586.59 522.11L586.59 565.11M591.97 567.69L591.97 524.69M597.34 527.26L597.34 570.26M602.71 552.35L602.71 529.83M641.28 568.8L641.28 591.31M646.65 593.89L646.65 550.89M652.02 553.46L652.02 596.46M657.39 599.04L657.39 556.04M662.76 558.61L662.76 601.61M668.14 604.18L668.14 561.18M673.51 563.76L673.51 606.76M678.88 588.85L678.88 566.33M717.45 605.29L717.45 627.81M722.82 630.39L722.82 587.39M728.19 589.96L728.19 632.96M733.56 635.53L733.56 592.53M738.93 595.11L738.93 638.11M744.31 640.68L744.31 597.68M749.68 600.25L749.68 643.25M755.05 625.35L755.05 602.83M793.62 641.79L793.62 664.31M798.99 666.88L798.99 623.88M804.36 626.46L804.36 669.46M809.73 672.03L809.73 629.03M815.11 631.6L815.11 674.6M820.48 677.18L820.48 634.18M825.85 636.75L825.85 679.75M831.22 661.84L831.22 639.33M869.79 678.29L869.79 700.81M875.16 703.38L875.16 660.38M880.53 662.95L880.53 705.95M885.9 708.53L885.9 665.53M891.28 668.1L891.28 711.1M896.65 713.68L896.65 670.68M902.02 673.25L902.02 716.25M907.39 698.34L907.39 675.82M945.96 714.79L945.96 737.3M951.33 739.88L951.33 696.88M956.7 699.45L956.7 742.45M962.08 745.03L962.08 702.03M967.45 704.6L967.45 747.6M972.82 750.17L972.82 707.17M978.19 709.75L978.19 752.75M983.56 734.84L983.56 712.32M1022.13 751.28L1022.13 773.8M1027.5 776.38L1027.5 733.38M1032.87 735.95L1032.87 778.95M1038.25 781.52L1038.25 738.52M1043.62 741.1L1043.62 784.1M1048.99 786.67L1048.99 743.67M1054.36 746.24L1054.36 789.24M1059.73 771.34L1059.73 748.82M1098.3 787.78L1098.3 810.3M87.57 412.0L87.57 389.48M92.94 371.58L92.94 414.58M98.31 417.15L98.31 374.15M103.68 376.72L103.68 419.72M109.06 422.3L109.06 379.3M114.43 381.87L114.43 424.87M119.8 427.44L119.8 384.44M125.17 387.02L125.17 409.54M163.74 448.5L163.74 425.98M169.11 408.07L169.11 451.07M174.48 453.65L174.48 410.65M179.86 413.22L179.86 456.22M185.23 458.79L185.23 415.79M190.6 418.37L190.6 461.37M195.97 463.94L195.97 420.94M201.34 423.52L201.34 446.03M239.91 485.0L239.91 462.48M245.28 444.57L245.28 487.57M250.65 490.14L250.65 447.14M256.03 449.72L256.03 492.72M261.4 495.29L261.4 452.29M266.77 454.87L266.77 497.87M272.14 500.44L272.14 457.44M277.51 460.01L277.51 482.53M316.08 521.49L316.08 498.98M321.45 481.07L321.45 524.07M326.83 526.64L326.83 483.64M332.2 486.22L332.2 529.22M337.57 531.79L337.57 488.79M342.94 491.36L342.94 534.36M348.31 536.94L348.31 493.94M353.68 496.51L353.68 519.03M392.25 557.99L392.25 535.47M397.62 517.57L397.62 560.57M403.0 563.14L403.0 520.14M408.37 522.71L408.37 565.71M413.74 568.29L413.74 525.29M419.11 527.86L419.11 570.86M424.48 573.43L424.48 530.43M429.85 533.01L429.85 555.53M468.42 594.49L468.42 571.97M473.79 554.06L473.79 597.06M479.17 599.64L479.17 556.64M484.54 559.21L484.54 602.21M489.91 604.78L489.91 561.78M495.28 564.36L495.28 607.36M500.65 609.93L500.65 566.93M506.02 569.51L506.02 592.02M544.59 630.99L544.59 608.47M549.97 590.56L549.97 633.56M555.34 636.14L555.34 593.14M560.71 595.71L560.71 638.71M566.08 641.28L566.08 598.28M571.45 600.86L571.45 643.86M576.82 646.43L576.82 603.43M582.19 606.0L582.19 628.52M620.76 667.49L620.76 644.97M626.14 627.06L626.14 670.06M631.51 672.63L631.51 629.63M636.88 632.21L636.88 675.21M642.25 677.78L642.25 634.78M647.62 637.35L647.62 680.35M652.99 682.93L652.99 639.93M658.36 642.5L658.36 665.02M696.94 703.98L696.94 681.46M702.31 663.56L702.31 706.56M707.68 709.13L707.68 666.13M713.05 668.7L713.05 711.7M718.42 714.28L718.42 671.28M723.79 673.85L723.79 716.85M729.16 719.43L729.16 676.43M734.53 679.0L734.53 701.52M773.11 740.48L773.11 717.96M778.48 700.05L778.48 743.05M783.85 745.63L783.85 702.63M789.22 705.2L789.22 748.2M794.59 750.78L794.59 707.78M799.96 710.35L799.96 753.35M805.33 755.92L805.33 712.92M810.71 715.5L810.71 738.01M849.28 776.98L849.28 754.46M854.65 736.55L854.65 779.55M860.02 782.13L860.02 739.13M865.39 741.7L865.39 784.7M870.76 787.27L870.76 744.27M876.13 746.85L876.13 789.85M881.5 792.42L881.5 749.42M886.88 751.99L886.88 774.51M925.45 813.48L925.45 790.96M930.82 773.05L930.82 816.05M936.19 818.62L936.19 775.62M941.56 778.2L941.56 820.0M946.93 820.0L946.93 780.77M952.3 783.34L952.3 820.0M957.68 820.0L957.68 785.92M963.05 788.49L963.05 811.01M1006.99 820.0L1006.99 809.55M1012.36 812.12L1012.36 820.0M1017.73 820.0L1017.73 814.69M1023.1 817.27L1023.1 820.0M1028.47 820.0L1028.47 819.84M67.06 465.65L67.06 488.17M72.43 490.75L72.43 447.75M77.8 450.32L77.8 493.32M83.17 495.89L83.17 452.89M88.54 455.47L88.54 498.47M93.91 501.04L93.91 458.04M99.28 460.62L99.28 503.62M104.66 485.71L104.66 463.19M143.23 502.15L143.23 524.67M148.6 527.24L148.6 484.24M153.97 486.82L153.97 529.82M159.34 532.39L159.34 489.39M164.71 491.97L164.71 534.97M170.08 537.54L170.08 494.54M175.46 497.11L175.46 540.11M180.83 522.2L180.83 499.69M219.4 538.65L219.4 561.17M224.77 563.74L224.77 520.74M230.14 523.32L230.14 566.32M235.51 568.89L235.51 525.89M240.88 528.46L240.88 571.46M246.25 574.04L246.25 531.04M251.63 533.61L251.63 576.61M257.0 558.7L257.0 536.18M295.57 575.15L295.57 597.67M300.94 600.24L300.94 557.24M306.31 559.81L306.31 602.81M311.68 605.39L311.68 562.39M317.05 564.96L317.05 607.96M322.43 610.53L322.43 567.53M327.8 570.11L327.8 613.11M333.17 595.2L333.17 572.68M371.74 611.64L371.74 634.16M377.11 636.74L377.11 593.74M382.48 596.31L382.48 639.31M387.85 641.88L387.85 598.88M393.22 601.46L393.22 644.46M398.6 647.03L398.6 604.03M403.97 606.61L403.97 649.61M409.34 631.7L409.34 609.18M447.91 648.14L447.91 670.66M453.28 673.23L453.28 630.23M458.65 632.81L458.65 675.81M464.02 678.38L464.02 635.38M469.39 637.96L469.39 680.96M474.77 683.53L474.77 640.53M480.14 643.1L480.14 686.1M485.51 668.19L485.51 645.68M524.08 684.64L524.08 707.16M529.45 709.73L529.45 666.73M534.82 669.31L534.82 712.31M540.19 714.88L540.19 671.88M545.57 674.45L545.57 717.45M550.94 720.03L550.94 677.03M556.31 679.6L556.31 722.6M561.68 704.69L561.68 682.17M600.25 721.14L600.25 743.66M605.62 746.23L605.62 703.23M610.99 705.8L610.99 748.8M616.36 751.38L616.36 708.38M621.74 710.95L621.74 753.95M627.11 756.52L627.11 713.52M632.48 716.1L632.48 759.1M637.85 741.19L637.85 718.67M676.42 757.64L676.42 780.15M681.79 782.73L681.79 739.73M687.16 742.3L687.16 785.3M692.54 787.87L692.54 744.87M697.91 747.45L697.91 790.45M703.28 793.02L703.28 750.02M708.65 752.6L708.65 795.6M714.02 777.69L714.02 755.17M752.59 794.13L752.59 816.65M757.96 819.22L757.96 776.22M763.33 778.8L763.33 820.0M768.71 820.0L768.71 781.37M774.08 783.95L774.08 820.0M779.45 820.0L779.45 786.52M784.82 789.09L784.82 820.0M790.19 814.18L790.19 791.67M834.13 812.72L834.13 820.0M839.51 820.0L839.51 815.3M844.88 817.87L844.88 820.0M51.91 566.92L51.91 523.92M57.29 526.49L57.29 569.49M62.66 572.06L62.66 529.06M68.03 531.64L68.03 574.64M73.4 577.21L73.4 534.21M78.77 536.79L78.77 579.79M84.14 561.88L84.14 539.36M122.71 578.32L122.71 600.84M128.08 603.41L128.08 560.41M133.46 562.99L133.46 605.99M138.83 608.56L138.83 565.56M144.2 568.14L144.2 611.14M149.57 613.71L149.57 570.71M154.94 573.28L154.94 616.28M160.31 598.38L160.31 575.86M198.88 614.82L198.88 637.34M204.26 639.91L204.26 596.91M209.63 599.49L209.63 642.49M215.0 645.06L215.0 602.06M220.37 604.63L220.37 647.63M225.74 650.21L225.74 607.21M231.11 609.78L231.11 652.78M236.48 634.87L236.48 612.35M275.05 651.32L275.05 673.84M280.43 676.41L280.43 633.41M285.8 635.98L285.8 678.98M291.17 681.56L291.17 638.56M296.54 641.13L296.54 684.13M301.91 686.7L301.91 643.7M307.28 646.28L307.28 689.28M312.65 671.37L312.65 648.85M351.22 687.82L351.22 710.33M356.6 712.91L356.6 669.91M361.97 672.48L361.97 715.48M367.34 718.05L367.34 675.05M372.71 677.63L372.71 720.63M378.08 723.2L378.08 680.2M383.45 682.78L383.45 725.78M388.82 707.87L388.82 685.35M427.4 724.31L427.4 746.83M432.77 749.4L432.77 706.4M438.14 708.98L438.14 751.98M443.51 754.55L443.51 711.55M448.88 714.13L448.88 757.13M454.25 759.7L454.25 716.7M459.62 719.27L459.62 762.27M465.0 744.37L465.0 721.85M503.57 760.81L503.57 783.33M508.94 785.9L508.94 742.9M514.31 745.48L514.31 788.48M519.68 791.05L519.68 748.05M525.05 750.62L525.05 793.62M530.42 796.2L530.42 753.2M535.79 755.77L535.79 798.77M541.17 780.86L541.17 758.34M579.74 797.31L579.74 819.83M585.11 820.0L585.11 779.4M590.48 781.97L590.48 820.0M595.85 820.0L595.85 784.55M601.22 787.12L601.22 820.0M606.59 820.0L606.59 789.69M611.96 792.27L611.96 820.0M617.34 817.36L617.34 794.84M661.28 815.9L661.28 820.0M666.65 820.0L666.65 818.47M52.89 610.38L52.89 653.38M58.26 655.96L58.26 612.96M63.63 615.53L63.63 638.05M102.2 677.01L102.2 654.49M107.57 636.59L107.57 679.59M112.94 682.16L112.94 639.16M118.31 641.73L118.31 684.73M123.68 687.31L123.68 644.31M129.06 646.88L129.06 689.88M134.43 692.45L134.43 649.45M139.8 652.03L139.8 674.55M178.37 713.51L178.37 690.99M183.74 673.08L183.74 716.08M189.11 718.66L189.11 675.66M194.48 678.23L194.48 721.23M199.86 723.8L199.86 680.8M205.23 683.38L205.23 726.38M210.6 728.95L210.6 685.95M215.97 688.53L215.97 711.04M254.54 750.01L254.54 727.49M259.91 709.58L259.91 752.58M265.28 755.15L265.28 712.15M270.65 714.73L270.65 757.73M276.03 760.3L276.03 717.3M281.4 719.88L281.4 762.88M286.77 765.45L286.77 722.45M292.14 725.02L292.14 747.54M330.71 786.5L330.71 763.99M336.08 746.08L336.08 789.08M341.45 791.65L341.45 748.65M346.82 751.23L346.82 794.23M352.2 796.8L352.2 753.8M357.57 756.37L357.57 799.37M362.94 801.95L362.94 758.95M368.31 761.52L368.31 784.04M406.88 820.0L406.88 800.48M412.25 782.58L412.25 820.0M417.62 820.0L417.62 785.15M423.0 787.72L423.0 820.0M428.37 820.0L428.37 790.3M433.74 792.87L433.74 820.0M439.11 820.0L439.11 795.44M444.48 798.02L444.48 820.0M488.42 820.0L488.42 819.07M81.69 730.66L81.69 753.18M87.06 755.76L87.06 712.76M92.43 715.33L92.43 758.33M97.8 760.9L97.8 717.9M103.17 720.48L103.17 763.48M108.54 766.05L108.54 723.05M113.91 725.62L113.91 768.62M119.28 750.72L119.28 728.2M157.86 767.16L157.86 789.68M163.23 792.25L163.23 749.25M168.6 751.83L168.6 794.83M173.97 797.4L173.97 754.4M179.34 756.97L179.34 799.97M184.71 802.55L184.71 759.55M190.08 762.12L190.08 805.12M195.46 787.21L195.46 764.7M234.03 803.66L234.03 820.0M239.4 820.0L239.4 785.75M244.77 788.32L244.77 820.0M250.14 820.0L250.14 790.9M255.51 793.47L255.51 820.0M260.88 820.0L260.88 796.05M266.25 798.62L266.25 820.0M271.63 820.0L271.63 801.19M61.17 806.83L61.17 820.0M66.54 820.0L66.54 788.93M71.91 791.5L71.91 820.0M77.29 820.0L77.29 794.07M82.66 796.65L82.66 820.0M88.03 820.0L88.03 799.22M93.4 801.79L93.4 820.0M98.77 820.0L98.77 804.37"/>
    </g>
  </g>
</svg>
