<svg version="1.1" width="1150" height="870" xmlns="http://www.w3.org/2000/svg">
  <!-- Seed: 8316051837341584768 -->
  <!-- Size: SvgSize.Size9x12 -->
  <!-- Params:
    draw_lines: False
    draw_aligned_vertical: False
    draw_aligned_horizontal: False
    draw_filled_checkers: True
    pad: 0
    size: [RangeInt] min: 10 max: 150
    skew_vert_degs: [RangeFloat] min: 0 max: 45
    skew_horiz_degs: [RangeFloat] min: 0 max: 45
    interior_space_aligned: 5
    interior_space_filled: 5
  -->
  <g stroke="black" fill="none">
    <g stroke="green">
      <path d="M52.56 50.45L52.56 110.45M57.8 111.36L57.8 51.36M63.04 52.27L63.04 112.27M68.28 113.19L68.28 53.19M73.52 54.1L73.52 114.1M78.76 109.44L78.76 55.01M84.0 55.92L84.0 99.47M89.24 89.5L89.24 56.84M94.49 57.75L94.49 79.52M99.73 69.55L99.73 58.66M136.29 114.15L136.29 125.04M141.53 125.95L141.53 104.18M146.77 94.2L146.77 126.86M152.01 127.77L152.01 84.23M157.25 74.26L157.25 128.69M162.49 129.6L162.49 69.6M167.73 70.51L167.73 130.51M172.97 131.43L172.97 71.43M178.21 72.34L178.21 132.34M183.46 133.25L183.46 73.25M188.7 74.17L188.7 128.6M193.94 118.62L193.94 75.08M199.18 75.99L199.18 108.65M204.42 98.68L204.42 76.91M209.66 77.82L209.66 88.71M78.52 234.97L78.52 224.08M83.76 214.11L83.76 235.88M89.0 236.8L89.0 204.14M94.24 194.17L94.24 237.71M99.48 238.62L99.48 184.19M104.72 179.53L104.72 239.53M109.96 240.45L109.96 180.45M115.2 181.36L115.2 241.36M120.44 242.27L120.44 182.27M125.68 183.19L125.68 243.19M130.92 238.53L130.92 184.1M136.17 185.01L136.17 228.56M141.41 218.58L141.41 185.93M146.65 186.84L146.65 208.61M151.89 198.64L151.89 187.75M52.19 290.38L52.19 350.38M57.43 351.29L57.43 291.29M62.67 292.21L62.67 352.21M67.91 353.12L67.91 293.12M73.15 294.03L73.15 348.46M78.39 338.49L78.39 294.95M83.63 295.86L83.63 328.52M88.88 318.55L88.88 296.77M94.12 297.69L94.12 308.57M246.22 144.19L246.22 133.3M251.46 123.33L251.46 145.1M256.7 146.02L256.7 113.36M261.94 103.39L261.94 146.93M267.19 147.84L267.19 93.41M272.43 88.76L272.43 148.76M277.67 149.67L277.67 89.67M282.91 90.58L282.91 150.58M288.15 151.5L288.15 91.5M293.39 92.41L293.39 152.41M298.63 147.75L298.63 93.32M303.87 94.24L303.87 137.78M309.11 127.81L309.11 95.15M314.35 96.06L314.35 117.83M319.59 107.86L319.59 96.98M188.45 243.24L188.45 254.12M193.69 255.04L193.69 233.27M198.93 223.29L198.93 255.95M204.17 256.86L204.17 213.32M209.41 203.35L209.41 257.78M214.65 258.69L214.65 198.69M219.9 199.6L219.9 259.6M225.14 260.52L225.14 200.52M230.38 201.43L230.38 261.43M235.62 262.34L235.62 202.34M240.86 203.26L240.86 257.69M246.1 247.71L246.1 204.17M251.34 205.08L251.34 237.74M256.58 227.77L256.58 206.0M261.82 206.91L261.82 217.79M130.68 364.06L130.68 353.17M135.92 343.2L135.92 364.97M141.16 365.88L141.16 333.23M146.4 323.25L146.4 366.8M151.64 367.71L151.64 313.28M156.88 308.62L156.88 368.62M162.12 369.54L162.12 309.54M167.36 310.45L167.36 370.45M172.6 371.36L172.6 311.36M177.85 312.28L177.85 372.28M183.09 367.62L183.09 313.19M188.33 314.1L188.33 357.65M193.57 347.67L193.57 315.02M198.81 315.93L198.81 337.7M204.05 327.73L204.05 316.84M72.91 463.11L72.91 473.99M78.15 474.9L78.15 453.13M83.39 443.16L83.39 475.82M88.63 476.73L88.63 433.19M93.87 423.21L93.87 477.64M99.11 478.56L99.11 418.56M104.35 419.47L104.35 479.47M109.59 480.38L109.59 420.38M114.83 421.3L114.83 481.3M120.07 482.21L120.07 422.21M125.31 423.12L125.31 477.55M130.56 467.58L130.56 424.04M135.8 424.95L135.8 457.61M141.04 447.63L141.04 425.86M146.28 426.78L146.28 437.66M51.82 590.32L51.82 530.32M57.06 531.23L57.06 591.23M62.3 592.14L62.3 532.14M67.54 533.06L67.54 587.49M72.78 577.51L72.78 533.97M78.02 534.88L78.02 567.54M83.27 557.57L83.27 535.8M88.51 536.71L88.51 547.6M413.93 53.41L413.93 50.0M419.17 50.0L419.17 54.33M424.41 55.24L424.41 50.0M429.65 50.0L429.65 56.15M434.89 57.07L434.89 50.0M440.13 50.0L440.13 57.98M445.37 58.89L445.37 50.0M450.61 50.0L450.61 59.8M455.85 60.72L455.85 50.0M461.09 50.0L461.09 61.63M466.34 56.97L466.34 50.0M356.16 152.46L356.16 163.35M361.4 164.26L361.4 142.49M366.64 132.51L366.64 165.17M371.88 166.09L371.88 122.54M377.12 112.57L377.12 167.0M382.36 167.91L382.36 107.91M387.6 108.83L387.6 168.83M392.84 169.74L392.84 109.74M398.08 110.65L398.08 170.65M403.32 171.56L403.32 111.56M408.56 112.48L408.56 166.91M413.8 156.93L413.8 113.39M419.05 114.3L419.05 146.96M424.29 136.99L424.29 115.22M429.53 116.13L429.53 127.02M298.38 273.28L298.38 262.39M303.62 252.42L303.62 274.19M308.87 275.11L308.87 242.45M314.11 232.48L314.11 276.02M319.35 276.93L319.35 222.5M324.59 217.85L324.59 277.85M329.83 278.76L329.83 218.76M335.07 219.67L335.07 279.67M340.31 280.59L340.31 220.59M345.55 221.5L345.55 281.5M350.79 276.84L350.79 222.41M356.03 223.32L356.03 266.87M361.27 256.9L361.27 224.24M366.51 225.15L366.51 246.92M371.75 236.95L371.75 226.06M240.61 372.33L240.61 383.21M245.85 384.13L245.85 362.35M251.09 352.38L251.09 385.04M256.33 385.95L256.33 342.41M261.58 332.44L261.58 386.87M266.82 387.78L266.82 327.78M272.06 328.69L272.06 388.69M277.3 389.61L277.3 329.61M282.54 330.52L282.54 390.52M287.78 391.43L287.78 331.43M293.02 332.34L293.02 386.77M298.26 376.8L298.26 333.26M303.5 334.17L303.5 366.83M308.74 356.86L308.74 335.08M313.98 336.0L313.98 346.88M182.84 493.15L182.84 482.26M188.08 472.29L188.08 494.06M193.32 494.97L193.32 462.32M198.56 452.34L198.56 495.89M203.8 496.8L203.8 442.37M209.04 437.71L209.04 497.71M214.29 498.63L214.29 438.63M219.53 439.54L219.53 499.54M224.77 500.45L224.77 440.45M230.01 441.37L230.01 501.37M235.25 496.71L235.25 442.28M240.49 443.19L240.49 486.74M245.73 476.76L245.73 444.1M250.97 445.02L250.97 466.79M256.21 456.82L256.21 445.93M125.07 592.19L125.07 603.08M130.31 603.99L130.31 582.22M135.55 572.25L135.55 604.91M140.79 605.82L140.79 562.28M146.03 552.3L146.03 606.73M151.27 607.65L151.27 547.65M156.51 548.56L156.51 608.56M161.75 609.47L161.75 549.47M166.99 550.39L166.99 610.39M172.24 611.3L172.24 551.3M177.48 552.21L177.48 606.64M182.72 596.67L182.72 553.13M187.96 554.04L187.96 586.7M193.2 576.72L193.2 554.95M198.44 555.86L198.44 566.75M67.3 713.01L67.3 702.13M72.54 692.16L72.54 713.93M77.78 714.84L77.78 682.18M83.02 672.21L83.02 715.75M88.26 716.67L88.26 662.24M93.5 657.58L93.5 717.58M98.74 718.49L98.74 658.49M103.98 659.41L103.98 719.41M109.22 720.32L109.22 660.32M114.46 661.23L114.46 721.23M119.7 716.57L119.7 662.15M124.95 663.06L124.95 706.6M130.19 696.63L130.19 663.97M135.43 664.89L135.43 686.66M140.67 676.68L140.67 665.8M51.45 770.25L51.45 820.0M56.69 820.0L56.69 771.17M61.93 772.08L61.93 820.0M67.17 816.54L67.17 772.99M72.41 773.91L72.41 806.56M77.66 796.59L77.66 774.82M82.9 775.73L82.9 786.62M523.86 72.57L523.86 61.68M529.1 51.71L529.1 73.48M534.34 74.39L534.34 50.0M539.58 50.0L539.58 75.31M544.82 76.22L544.82 50.0M550.06 50.0L550.06 77.13M555.31 78.05L555.31 50.0M560.55 50.0L560.55 78.96M565.79 79.87L565.79 50.0M571.03 50.0L571.03 80.79M576.27 76.13L576.27 50.0M581.51 50.0L581.51 66.16M586.75 56.18L586.75 50.0M466.09 171.62L466.09 182.5M471.33 183.41L471.33 161.64M476.57 151.67L476.57 184.33M481.81 185.24L481.81 141.7M487.05 131.72L487.05 186.15M492.29 187.07L492.29 127.07M497.53 127.98L497.53 187.98M502.77 188.89L502.77 128.89M508.02 129.81L508.02 189.81M513.26 190.72L513.26 130.72M518.5 131.63L518.5 186.06M523.74 176.09L523.74 132.55M528.98 133.46L528.98 166.12M534.22 156.14L534.22 134.37M539.46 135.29L539.46 146.17M408.32 292.43L408.32 281.55M413.56 271.58L413.56 293.35M418.8 294.26L418.8 261.6M424.04 251.63L424.04 295.17M429.28 296.09L429.28 241.66M434.52 237.0L434.52 297.0M439.76 297.91L439.76 237.91M445.0 238.83L445.0 298.83M450.24 299.74L450.24 239.74M455.48 240.65L455.48 300.65M460.73 296.0L460.73 241.57M465.97 242.48L465.97 286.02M471.21 276.05L471.21 243.39M476.45 244.31L476.45 266.08M481.69 256.11L481.69 245.22M350.55 391.48L350.55 402.37M355.79 403.28L355.79 381.51M361.03 371.54L361.03 404.19M366.27 405.11L366.27 361.56M371.51 351.59L371.51 406.02M376.75 406.93L376.75 346.93M381.99 347.85L381.99 407.85M387.23 408.76L387.23 348.76M392.47 349.67L392.47 409.67M397.71 410.59L397.71 350.59M402.95 351.5L402.95 405.93M408.19 395.96L408.19 352.41M413.44 353.33L413.44 385.98M418.68 376.01L418.68 354.24M423.92 355.15L423.92 366.04M292.77 512.3L292.77 501.42M298.01 491.44L298.01 513.22M303.26 514.13L303.26 481.47M308.5 471.5L308.5 515.04M313.74 515.95L313.74 461.53M318.98 456.87L318.98 516.87M324.22 517.78L324.22 457.78M329.46 458.69L329.46 518.69M334.7 519.61L334.7 459.61M339.94 460.52L339.94 520.52M345.18 515.86L345.18 461.43M350.42 462.35L350.42 505.89M355.66 495.92L355.66 463.26M360.9 464.17L360.9 485.95M366.15 475.97L366.15 465.09M235.0 611.35L235.0 622.24M240.24 623.15L240.24 601.38M245.48 591.4L245.48 624.06M250.72 624.98L250.72 581.43M255.97 571.46L255.97 625.89M261.21 626.8L261.21 566.8M266.45 567.71L266.45 627.71M271.69 628.63L271.69 568.63M276.93 569.54L276.93 629.54M282.17 630.45L282.17 570.45M287.41 571.37L287.41 625.8M292.65 615.82L292.65 572.28M297.89 573.19L297.89 605.85M303.13 595.88L303.13 574.11M308.37 575.02L308.37 585.91M177.23 732.17L177.23 721.28M182.47 711.31L182.47 733.08M187.71 734.0L187.71 701.34M192.95 691.37L192.95 734.91M198.19 735.82L198.19 681.39M203.43 676.74L203.43 736.74M208.68 737.65L208.68 677.65M213.92 678.56L213.92 738.56M219.16 739.47L219.16 679.47M224.4 680.39L224.4 740.39M229.64 735.73L229.64 681.3M234.88 682.21L234.88 725.76M240.12 715.78L240.12 683.13M245.36 684.04L245.36 705.81M250.6 695.84L250.6 684.95M129.94 811.27L129.94 820.0M135.18 820.0L135.18 801.3M140.42 791.33L140.42 820.0M145.66 820.0L145.66 786.67M150.9 787.58L150.9 820.0M156.14 820.0L156.14 788.5M161.39 789.41L161.39 820.0M166.63 820.0L166.63 790.32M171.87 791.23L171.87 820.0M177.11 820.0L177.11 792.15M182.35 793.06L182.35 820.0M187.59 815.75L187.59 793.97M192.83 794.89L192.83 805.77M633.79 91.72L633.79 80.84M639.04 70.86L639.04 92.64M644.28 93.55L644.28 60.89M649.52 50.92L649.52 94.46M654.76 95.38L654.76 50.0M660.0 50.0L660.0 96.29M665.24 97.2L665.24 50.0M670.48 50.0L670.48 98.12M675.72 99.03L675.72 50.0M680.96 50.0L680.96 99.94M686.2 95.28L686.2 50.0M691.44 50.0L691.44 85.31M696.68 75.34L696.68 50.0M701.92 50.0L701.92 65.37M707.17 55.39L707.17 50.0M576.02 190.77L576.02 201.66M581.26 202.57L581.26 180.8M586.5 170.83L586.5 203.48M591.75 204.4L591.75 160.85M596.99 150.88L596.99 205.31M602.23 206.22L602.23 146.22M607.47 147.14L607.47 207.14M612.71 208.05L612.71 148.05M617.95 148.96L617.95 208.96M623.19 209.88L623.19 149.88M628.43 150.79L628.43 205.22M633.67 195.25L633.67 151.7M638.91 152.61L638.91 185.27M644.15 175.3L644.15 153.53M649.39 154.44L649.39 165.33M518.25 311.59L518.25 300.7M523.49 290.73L523.49 312.5M528.73 313.42L528.73 280.76M533.97 270.79L533.97 314.33M539.21 315.24L539.21 260.81M544.46 256.16L544.46 316.16M549.7 317.07L549.7 257.07M554.94 257.98L554.94 317.98M560.18 318.9L560.18 258.9M565.42 259.81L565.42 319.81M570.66 315.15L570.66 260.72M575.9 261.64L575.9 305.18M581.14 295.21L581.14 262.55M586.38 263.46L586.38 285.23M591.62 275.26L591.62 264.37M460.48 410.64L460.48 421.52M465.72 422.44L465.72 400.67M470.96 390.69L470.96 423.35M476.2 424.26L476.2 380.72M481.44 370.75L481.44 425.18M486.68 426.09L486.68 366.09M491.92 367.0L491.92 427.0M497.16 427.92L497.16 367.92M502.41 368.83L502.41 428.83M507.65 429.74L507.65 369.74M512.89 370.66L512.89 425.08M518.13 415.11L518.13 371.57M523.37 372.48L523.37 405.14M528.61 395.17L528.61 373.4M533.85 374.31L533.85 385.19M402.71 531.46L402.71 520.57M407.95 510.6L407.95 532.37M413.19 533.28L413.19 500.63M418.43 490.65L418.43 534.2M423.67 535.11L423.67 480.68M428.91 476.02L428.91 536.02M434.15 536.94L434.15 476.94M439.39 477.85L439.39 537.85M444.63 538.76L444.63 478.76M449.87 479.68L449.87 539.68M455.12 535.02L455.12 480.59M460.36 481.5L460.36 525.05M465.6 515.07L465.6 482.42M470.84 483.33L470.84 505.1M476.08 495.13L476.08 484.24M344.94 630.51L344.94 641.39M350.18 642.3L350.18 620.53M355.42 610.56L355.42 643.22M360.66 644.13L360.66 600.59M365.9 590.61L365.9 645.04M371.14 645.96L371.14 585.96M376.38 586.87L376.38 646.87M381.62 647.78L381.62 587.78M386.86 588.7L386.86 648.7M392.1 649.61L392.1 589.61M397.34 590.52L397.34 644.95M402.58 634.98L402.58 591.44M407.83 592.35L407.83 625.01M413.07 615.03L413.07 593.26M418.31 594.18L418.31 605.06M287.16 751.32L287.16 740.44M292.4 730.47L292.4 752.24M297.65 753.15L297.65 720.49M302.89 710.52L302.89 754.06M308.13 754.98L308.13 700.55M313.37 695.89L313.37 755.89M318.61 756.8L318.61 696.8M323.85 697.72L323.85 757.72M329.09 758.63L329.09 698.63M334.33 699.54L334.33 759.54M339.57 754.89L339.57 700.46M344.81 701.37L344.81 744.91M350.05 734.94L350.05 702.28M355.29 703.2L355.29 724.97M360.54 714.99L360.54 704.11M250.36 810.48L250.36 820.0M255.6 820.0L255.6 805.82M260.84 806.74L260.84 820.0M266.08 820.0L266.08 807.65M271.32 808.56L271.32 820.0M276.56 820.0L276.56 809.48M281.8 810.39L281.8 820.0M287.04 820.0L287.04 811.3M292.28 812.22L292.28 820.0M297.52 820.0L297.52 813.13M302.76 814.04L302.76 820.0M743.73 110.88L743.73 99.99M748.97 90.02L748.97 111.79M754.21 112.7L754.21 80.05M759.45 70.07L759.45 113.62M764.69 114.53L764.69 60.1M769.93 55.44L769.93 115.44M775.17 116.36L775.17 56.36M780.41 57.27L780.41 117.27M785.65 118.18L785.65 58.18M790.9 59.1L790.9 119.1M796.14 114.44L796.14 60.01M801.38 60.92L801.38 104.47M806.62 94.49L806.62 61.84M811.86 62.75L811.86 84.52M817.1 74.55L817.1 63.66M685.96 209.93L685.96 220.81M691.2 221.73L691.2 199.95M696.44 189.98L696.44 222.64M701.68 223.55L701.68 180.01M706.92 170.04L706.92 224.46M712.16 225.38L712.16 165.38M717.4 166.29L717.4 226.29M722.64 227.2L722.64 167.2M727.88 168.12L727.88 228.12M733.12 229.03L733.12 169.03M738.36 169.94L738.36 224.37M743.61 214.4L743.61 170.86M748.85 171.77L748.85 204.43M754.09 194.46L754.09 172.68M759.33 173.6L759.33 184.48M628.18 330.75L628.18 319.86M633.43 309.89L633.43 331.66M638.67 332.57L638.67 299.91M643.91 289.94L643.91 333.49M649.15 334.4L649.15 279.97M654.39 275.31L654.39 335.31M659.63 336.22L659.63 276.22M664.87 277.14L664.87 337.14M670.11 338.05L670.11 278.05M675.35 278.96L675.35 338.96M680.59 334.31L680.59 279.88M685.83 280.79L685.83 324.33M691.07 314.36L691.07 281.7M696.31 282.62L696.31 304.39M701.56 294.42L701.56 283.53M570.41 429.79L570.41 440.68M575.65 441.59L575.65 419.82M580.89 409.85L580.89 442.51M586.14 443.42L586.14 399.88M591.38 389.9L591.38 444.33M596.62 445.25L596.62 385.25M601.86 386.16L601.86 446.16M607.1 447.07L607.1 387.07M612.34 387.98L612.34 447.98M617.58 448.9L617.58 388.9M622.82 389.81L622.82 444.24M628.06 434.27L628.06 390.72M633.3 391.64L633.3 424.29M638.54 414.32L638.54 392.55M643.78 393.46L643.78 404.35M512.64 550.61L512.64 539.73M517.88 529.75L517.88 551.53M523.12 552.44L523.12 519.78M528.36 509.81L528.36 553.35M533.6 554.27L533.6 499.84M538.85 495.18L538.85 555.18M544.09 556.09L544.09 496.09M549.33 497.01L549.33 557.01M554.57 557.92L554.57 497.92M559.81 498.83L559.81 558.83M565.05 554.17L565.05 499.74M570.29 500.66L570.29 544.2M575.53 534.23L575.53 501.57M580.77 502.48L580.77 524.26M586.01 514.28L586.01 503.4M454.87 649.66L454.87 660.55M460.11 661.46L460.11 639.69M465.35 629.72L465.35 662.37M470.59 663.29L470.59 619.74M475.83 609.77L475.83 664.2M481.07 665.11L481.07 605.11M486.31 606.03L486.31 666.03M491.55 666.94L491.55 606.94M496.8 607.85L496.8 667.85M502.04 668.76L502.04 608.76M507.28 609.68L507.28 664.11M512.52 654.13L512.52 610.59M517.76 611.5L517.76 644.16M523.0 634.19L523.0 612.42M528.24 613.33L528.24 624.22M397.1 770.48L397.1 759.59M402.34 749.62L402.34 771.39M407.58 772.31L407.58 739.65M412.82 729.68L412.82 773.22M418.06 774.13L418.06 719.7M423.3 715.05L423.3 775.05M428.54 775.96L428.54 715.96M433.78 716.87L433.78 776.87M439.02 777.79L439.02 717.79M444.26 718.7L444.26 778.7M449.51 774.04L449.51 719.61M454.75 720.52L454.75 764.07M459.99 754.1L459.99 721.44M465.23 722.35L465.23 744.12M470.47 734.15L470.47 723.26M853.66 119.15L853.66 130.03M858.9 130.95L858.9 109.18M864.14 99.2L864.14 131.86M869.38 132.77L869.38 89.23M874.62 79.26L874.62 133.69M879.87 134.6L879.87 74.6M885.11 75.51L885.11 135.51M890.35 136.43L890.35 76.43M895.59 77.34L895.59 137.34M900.83 138.25L900.83 78.25M906.07 79.17L906.07 133.59M911.31 123.62L911.31 80.08M916.55 80.99L916.55 113.65M921.79 103.68L921.79 81.91M927.03 82.82L927.03 93.7M795.89 239.97L795.89 229.08M801.13 219.11L801.13 240.88M806.37 241.79L806.37 209.14M811.61 199.16L811.61 242.71M816.85 243.62L816.85 189.19M822.09 184.53L822.09 244.53M827.33 245.45L827.33 185.45M832.58 186.36L832.58 246.36M837.82 247.27L837.82 187.27M843.06 188.19L843.06 248.19M848.3 243.53L848.3 189.1M853.54 190.01L853.54 233.56M858.78 223.58L858.78 190.93M864.02 191.84L864.02 213.61M869.26 203.64L869.26 192.75M738.12 339.02L738.12 349.9M743.36 350.81L743.36 329.04M748.6 319.07L748.6 351.73M753.84 352.64L753.84 309.1M759.08 299.12L759.08 353.55M764.32 354.47L764.32 294.47M769.56 295.38L769.56 355.38M774.8 356.29L774.8 296.29M780.04 297.21L780.04 357.21M785.29 358.12L785.29 298.12M790.53 299.03L790.53 353.46M795.77 343.49L795.77 299.95M801.01 300.86L801.01 333.52M806.25 323.54L806.25 301.77M811.49 302.69L811.49 313.57M680.35 459.83L680.35 448.95M685.59 438.98L685.59 460.75M690.83 461.66L690.83 429.0M696.07 419.03L696.07 462.57M701.31 463.49L701.31 409.06M706.55 404.4L706.55 464.4M711.79 465.31L711.79 405.31M717.03 406.23L717.03 466.23M722.27 467.14L722.27 407.14M727.51 408.05L727.51 468.05M732.75 463.4L732.75 408.97M738.0 409.88L738.0 453.42M743.24 443.45L743.24 410.79M748.48 411.71L748.48 433.48M753.72 423.5L753.72 412.62M622.57 558.88L622.57 569.77M627.82 570.68L627.82 548.91M633.06 538.94L633.06 571.59M638.3 572.51L638.3 528.96M643.54 518.99L643.54 573.42M648.78 574.33L648.78 514.33M654.02 515.25L654.02 575.25M659.26 576.16L659.26 516.16M664.5 517.07L664.5 577.07M669.74 577.99L669.74 517.99M674.98 518.9L674.98 573.33M680.22 563.36L680.22 519.81M685.46 520.73L685.46 553.38M690.71 543.41L690.71 521.64M695.95 522.55L695.95 533.44M564.8 679.7L564.8 668.82M570.04 658.84L570.04 680.61M575.28 681.53L575.28 648.87M580.53 638.9L580.53 682.44M585.77 683.35L585.77 628.93M591.01 624.27L591.01 684.27M596.25 685.18L596.25 625.18M601.49 626.09L601.49 686.09M606.73 687.01L606.73 627.01M611.97 627.92L611.97 687.92M617.21 683.26L617.21 628.83M622.45 629.75L622.45 673.29M627.69 663.32L627.69 630.66M632.93 631.57L632.93 653.34M638.17 643.37L638.17 632.49M507.03 778.75L507.03 789.64M512.27 790.55L512.27 768.78M517.51 758.8L517.51 791.46M522.75 792.37L522.75 748.83M527.99 738.86L527.99 793.29M533.24 794.2L533.24 734.2M538.48 735.11L538.48 795.11M543.72 796.03L543.72 736.03M548.96 736.94L548.96 796.94M554.2 797.85L554.2 737.85M559.44 738.77L559.44 793.2M564.68 783.22L564.68 739.68M569.92 740.59L569.92 773.25M575.16 763.28L575.16 741.51M580.4 742.42L580.4 753.31M963.6 149.19L963.6 138.3M968.84 128.33L968.84 150.1M974.08 151.02L974.08 118.36M979.32 108.39L979.32 151.93M984.56 152.84L984.56 98.41M989.8 93.76L989.8 153.76M995.04 154.67L995.04 94.67M1000.28 95.58L1000.28 155.58M1005.52 156.49L1005.52 96.49M1010.76 97.41L1010.76 157.41M1016.0 152.75L1016.0 98.32M1021.24 99.23L1021.24 142.78M1026.48 132.8L1026.48 100.15M1031.73 101.06L1031.73 122.83M1036.97 112.86L1036.97 101.97M905.82 248.24L905.82 259.12M911.06 260.04L911.06 238.26M916.31 228.29L916.31 260.95M921.55 261.86L921.55 218.32M926.79 208.35L926.79 262.78M932.03 263.69L932.03 203.69M937.27 204.6L937.27 264.6M942.51 265.51L942.51 205.51M947.75 206.43L947.75 266.43M952.99 267.34L952.99 207.34M958.23 208.25L958.23 262.68M963.47 252.71L963.47 209.17M968.71 210.08L968.71 242.74M973.95 232.77L973.95 210.99M979.19 211.91L979.19 222.79M848.05 369.06L848.05 358.17M853.29 348.2L853.29 369.97M858.53 370.88L858.53 338.23M863.77 328.25L863.77 371.8M869.01 372.71L869.01 318.28M874.26 313.62L874.26 373.62M879.5 374.54L879.5 314.54M884.74 315.45L884.74 375.45M889.98 376.36L889.98 316.36M895.22 317.27L895.22 377.27M900.46 372.62L900.46 318.19M905.7 319.1L905.7 362.64M910.94 352.67L910.94 320.01M916.18 320.93L916.18 342.7M921.42 332.73L921.42 321.84M790.28 468.1L790.28 478.99M795.52 479.9L795.52 458.13M800.76 448.16L800.76 480.82M806.0 481.73L806.0 438.19M811.24 428.21L811.24 482.64M816.48 483.56L816.48 423.56M821.72 424.47L821.72 484.47M826.97 485.38L826.97 425.38M832.21 426.3L832.21 486.3M837.45 487.21L837.45 427.21M842.69 428.12L842.69 482.55M847.93 472.58L847.93 429.03M853.17 429.95L853.17 462.61M858.41 452.63L858.41 430.86M863.65 431.77L863.65 442.66M732.51 588.92L732.51 578.04M737.75 568.06L737.75 589.84M742.99 590.75L742.99 558.09M748.23 548.12L748.23 591.66M753.47 592.58L753.47 538.15M758.71 533.49L758.71 593.49M763.95 594.4L763.95 534.4M769.19 535.32L769.19 595.32M774.43 596.23L774.43 536.23M779.68 537.14L779.68 597.14M784.92 592.48L784.92 538.06M790.16 538.97L790.16 582.51M795.4 572.54L795.4 539.88M800.64 540.79L800.64 562.57M805.88 552.59L805.88 541.71M674.74 687.97L674.74 698.86M679.98 699.77L679.98 678.0M685.22 668.03L685.22 700.68M690.46 701.6L690.46 658.05M695.7 648.08L695.7 702.51M700.94 703.42L700.94 643.42M706.18 644.34L706.18 704.34M711.42 705.25L711.42 645.25M716.66 646.16L716.66 706.16M721.9 707.08L721.9 647.08M727.14 647.99L727.14 702.42M732.39 692.45L732.39 648.9M737.63 649.82L737.63 682.47M742.87 672.5L742.87 650.73M748.11 651.64L748.11 662.53M616.96 808.79L616.96 797.9M622.21 787.93L622.21 809.7M627.45 810.62L627.45 777.96M632.69 767.99L632.69 811.53M637.93 812.44L637.93 758.01M643.17 753.36L643.17 813.36M648.41 814.27L648.41 754.27M653.65 755.18L653.65 815.18M658.89 816.1L658.89 756.1M664.13 757.01L664.13 817.01M669.37 812.35L669.37 757.92M674.61 758.84L674.61 802.38M679.85 792.41L679.85 759.75M685.1 760.66L685.1 782.43M690.34 772.46L690.34 761.58M1073.53 157.46L1073.53 168.34M1078.77 169.26L1078.77 147.49M1084.01 137.51L1084.01 170.17M1089.25 171.08L1089.25 127.54M1094.49 117.57L1094.49 172.0M1099.73 172.91L1099.73 112.91M1015.76 267.39L1015.76 278.28M1021.0 279.19L1021.0 257.42M1026.24 247.45L1026.24 280.1M1031.48 281.02L1031.48 237.47M1036.72 227.5L1036.72 281.93M1041.96 282.84L1041.96 222.84M1047.2 223.76L1047.2 283.76M1052.44 284.67L1052.44 224.67M1057.68 225.58L1057.68 285.58M1062.92 286.5L1062.92 226.5M1068.17 227.41L1068.17 281.84M1073.41 271.87L1073.41 228.32M1078.65 229.24L1078.65 261.89M1083.89 251.92L1083.89 230.15M1089.13 231.06L1089.13 241.95M957.99 388.21L957.99 377.33M963.23 367.35L963.23 389.12M968.47 390.04L968.47 357.38M973.71 347.41L973.71 390.95M978.95 391.86L978.95 337.44M984.19 332.78L984.19 392.78M989.43 393.69L989.43 333.69M994.67 334.6L994.67 394.6M999.91 395.52L999.91 335.52M1005.15 336.43L1005.15 396.43M1010.39 391.77L1010.39 337.34M1015.63 338.26L1015.63 381.8M1020.87 371.83L1020.87 339.17M1026.12 340.08L1026.12 361.85M1031.36 351.88L1031.36 341.0M900.21 487.26L900.21 498.15M905.45 499.06L905.45 477.29M910.7 467.31L910.7 499.97M915.94 500.88L915.94 457.34M921.18 447.37L921.18 501.8M926.42 502.71L926.42 442.71M931.66 443.62L931.66 503.62M936.9 504.54L936.9 444.54M942.14 445.45L942.14 505.45M947.38 506.36L947.38 446.36M952.62 447.28L952.62 501.71M957.86 491.73L957.86 448.19M963.1 449.1L963.1 481.76M968.34 471.79L968.34 450.02M973.58 450.93L973.58 461.82M842.44 608.08L842.44 597.19M847.68 587.22L847.68 608.99M852.92 609.91L852.92 577.25M858.16 567.27L858.16 610.82M863.41 611.73L863.41 557.3M868.65 552.64L868.65 612.64M873.89 613.56L873.89 553.56M879.13 554.47L879.13 614.47M884.37 615.38L884.37 555.38M889.61 556.3L889.61 616.3M894.85 611.64L894.85 557.21M900.09 558.12L900.09 601.67M905.33 591.69L905.33 559.04M910.57 559.95L910.57 581.72M915.81 571.75L915.81 560.86M784.67 707.13L784.67 718.01M789.91 718.93L789.91 697.15M795.15 687.18L795.15 719.84M800.39 720.75L800.39 677.21M805.63 667.24L805.63 721.67M810.87 722.58L810.87 662.58M816.11 663.49L816.11 723.49M821.36 724.4L821.36 664.4M826.6 665.32L826.6 725.32M831.84 726.23L831.84 666.23M837.08 667.14L837.08 721.57M842.32 711.6L842.32 668.06M847.56 668.97L847.56 701.63M852.8 691.66L852.8 669.88M858.04 670.8L858.04 681.68M726.9 820.0L726.9 817.06M732.14 807.09L732.14 820.0M737.38 820.0L737.38 797.11M742.62 787.14L742.62 820.0M747.86 820.0L747.86 777.17M753.1 772.51L753.1 820.0M758.34 820.0L758.34 773.43M763.58 774.34L763.58 820.0M768.82 820.0L768.82 775.25M774.07 776.16L774.07 820.0M779.31 820.0L779.31 777.08M784.55 777.99L784.55 820.0M789.79 811.56L789.79 778.9M795.03 779.82L795.03 801.59M800.27 791.62L800.27 780.73M1067.92 396.48L1067.92 407.37M1073.16 408.28L1073.16 386.51M1078.4 376.54L1078.4 409.19M1083.64 410.11L1083.64 366.56M1088.88 356.59L1088.88 411.02M1094.12 411.93L1094.12 351.93M1099.36 352.85L1099.36 412.85M1010.15 517.3L1010.15 506.41M1015.39 496.44L1015.39 518.21M1020.63 519.13L1020.63 486.47M1025.87 476.5L1025.87 520.04M1031.11 520.95L1031.11 466.52M1036.35 461.87L1036.35 521.87M1041.59 522.78L1041.59 462.78M1046.83 463.69L1046.83 523.69M1052.07 524.61L1052.07 464.61M1057.31 465.52L1057.31 525.52M1062.56 520.86L1062.56 466.43M1067.8 467.35L1067.8 510.89M1073.04 500.92L1073.04 468.26M1078.28 469.17L1078.28 490.94M1083.52 480.97L1083.52 470.09M952.38 616.35L952.38 627.23M957.62 628.15L957.62 606.38M962.86 596.4L962.86 629.06M968.1 629.97L968.1 586.43M973.34 576.46L973.34 630.89M978.58 631.8L978.58 571.8M983.82 572.71L983.82 632.71M989.06 633.63L989.06 573.63M994.3 574.54L994.3 634.54M999.54 635.45L999.54 575.45M1004.78 576.37L1004.78 630.8M1010.02 620.82L1010.02 577.28M1015.26 578.19L1015.26 610.85M1020.51 600.88L1020.51 579.11M1025.75 580.02L1025.75 590.9M894.6 737.17L894.6 726.28M899.84 716.31L899.84 738.08M905.09 738.99L905.09 706.34M910.33 696.36L910.33 739.91M915.57 740.82L915.57 686.39M920.81 681.73L920.81 741.73M926.05 742.65L926.05 682.65M931.29 683.56L931.29 743.56M936.53 744.47L936.53 684.47M941.77 685.39L941.77 745.39M947.01 740.73L947.01 686.3M952.25 687.21L952.25 730.76M957.49 720.78L957.49 688.13M962.73 689.04L962.73 710.81M967.97 700.84L967.97 689.95M847.31 816.27L847.31 820.0M852.55 820.0L852.55 806.3M857.8 796.32L857.8 820.0M863.04 820.0L863.04 791.67M868.28 792.58L868.28 820.0M873.52 820.0L873.52 793.49M878.76 794.41L878.76 820.0M884.0 820.0L884.0 795.32M889.24 796.23L889.24 820.0M894.48 820.0L894.48 797.15M899.72 798.06L899.72 820.0M904.96 820.0L904.96 798.97M910.2 799.89L910.2 810.77M1062.31 646.39L1062.31 635.5M1067.55 625.53L1067.55 647.3M1072.79 648.22L1072.79 615.56M1078.03 605.59L1078.03 649.13M1083.27 650.04L1083.27 595.61M1088.51 590.96L1088.51 650.96M1093.75 651.87L1093.75 591.87M1098.99 592.78L1098.99 652.78M1004.54 756.32L1004.54 745.44M1009.78 735.46L1009.78 757.24M1015.02 758.15L1015.02 725.49M1020.26 715.52L1020.26 759.06M1025.5 759.98L1025.5 705.55M1030.74 700.89L1030.74 760.89M1035.98 761.8L1035.98 701.8M1041.22 702.72L1041.22 762.72M1046.46 763.63L1046.46 703.63M1051.7 704.54L1051.7 764.54M1056.95 759.88L1056.95 705.45M1062.19 706.37L1062.19 749.91M1067.43 739.94L1067.43 707.28M1072.67 708.19L1072.67 729.97M1077.91 719.99L1077.91 709.11M967.73 815.48L967.73 820.0M972.97 820.0L972.97 810.82M978.21 811.74L978.21 820.0M983.45 820.0L983.45 812.65M988.69 813.56L988.69 820.0M993.93 820.0L993.93 814.48M999.17 815.39L999.17 820.0M1004.41 820.0L1004.41 816.3M1009.66 817.21L1009.66 820.0M1014.9 820.0L1014.9 818.13M1020.14 819.04L1020.14 820.0M743.85 50.9L743.85 50.0M749.09 50.0L749.09 51.81M754.33 52.73L754.33 50.0M759.57 50.0L759.57 53.64M764.81 54.55L764.81 50.0M827.58 54.6L827.58 65.49M832.82 66.4L832.82 50.0M838.06 50.0L838.06 67.32M843.3 68.23L843.3 50.0M848.54 50.0L848.54 69.14M853.78 70.06L853.78 50.0M859.03 50.0L859.03 70.97M864.27 71.88L864.27 50.0M869.51 50.0L869.51 72.79M874.75 73.71L874.75 50.0M879.99 50.0L879.99 69.05M885.23 59.08L885.23 50.0M937.51 73.76L937.51 84.64M942.76 85.56L942.76 63.79M948.0 53.81L948.0 86.47M953.24 87.38L953.24 50.0M958.48 50.0L958.48 88.3M963.72 89.21L963.72 50.0M968.96 50.0L968.96 90.12M974.2 91.04L974.2 50.0M979.44 50.0L979.44 91.95M984.68 92.86L984.68 50.0M989.92 50.0L989.92 88.21M995.16 78.23L995.16 50.0M1000.4 50.0L1000.4 68.26M1005.64 58.29L1005.64 50.0M1047.45 92.91L1047.45 103.8M1052.69 104.71L1052.69 82.94M1057.93 72.97L1057.93 105.63M1063.17 106.54L1063.17 63.0M1068.41 53.02L1068.41 107.45M1073.65 108.37L1073.65 50.0M1078.89 50.0L1078.89 109.28M1084.13 110.19L1084.13 50.19M1089.37 51.11L1089.37 111.11M1094.62 112.02L1094.62 52.02M1099.86 52.93L1099.86 107.36M110.21 60.49L110.21 50.0M115.45 50.0L115.45 61.4M120.69 62.32L120.69 50.0M125.93 50.0L125.93 63.23M131.17 64.14L131.17 50.0M136.41 50.0L136.41 65.06M141.65 65.97L141.65 50.0M146.89 50.0L146.89 66.88M152.13 67.8L152.13 50.0M157.37 50.0L157.37 68.71M162.62 64.05L162.62 50.0M167.86 50.0L167.86 54.08M220.14 79.65L220.14 68.76M225.38 58.79L225.38 80.56M230.62 81.47L230.62 50.0M235.86 50.0L235.86 82.39M241.1 83.3L241.1 50.0M246.35 50.0L246.35 84.21M251.59 85.13L251.59 50.0M256.83 50.0L256.83 86.04M262.07 86.95L262.07 50.0M267.31 50.0L267.31 87.86M272.55 83.21L272.55 50.0M277.79 50.0L277.79 73.23M283.03 63.26L283.03 50.0M288.27 50.0L288.27 53.29M330.07 98.8L330.07 87.92M335.32 77.94L335.32 99.71M340.56 100.63L340.56 67.97M345.8 58.0L345.8 101.54M351.04 102.45L351.04 50.0M356.28 50.0L356.28 103.37M361.52 104.28L361.52 50.0M366.76 50.0L366.76 105.19M372.0 106.11L372.0 50.0M377.24 50.0L377.24 107.02M382.48 102.36L382.48 50.0M387.72 50.0L387.72 92.39M392.96 82.42L392.96 50.0M398.21 50.67L398.21 72.44M403.45 62.47L403.45 51.59M440.01 107.07L440.01 117.96M445.25 118.87L445.25 97.1M450.49 87.13L450.49 119.78M455.73 120.7L455.73 77.15M460.97 67.18L460.97 121.61M466.21 122.52L466.21 62.52M471.45 63.44L471.45 123.44M476.69 124.35L476.69 64.35M481.93 65.26L481.93 125.26M487.18 126.18L487.18 66.18M492.42 67.09L492.42 121.52M497.66 111.55L497.66 68.0M502.9 68.92L502.9 101.57M508.14 91.6L508.14 69.83M513.38 70.74L513.38 81.63M549.94 137.11L549.94 126.23M555.18 116.25L555.18 138.03M560.42 138.94L560.42 106.28M565.66 96.31L565.66 139.85M570.91 140.76L570.91 86.34M576.15 81.68L576.15 141.68M581.39 142.59L581.39 82.59M586.63 83.5L586.63 143.5M591.87 144.42L591.87 84.42M597.11 85.33L597.11 145.33M602.35 140.67L602.35 86.24M607.59 87.16L607.59 130.7M612.83 120.73L612.83 88.07M618.07 88.98L618.07 110.76M623.31 100.78L623.31 89.9M659.88 145.38L659.88 156.27M665.12 157.18L665.12 135.41M670.36 125.44L670.36 158.09M675.6 159.01L675.6 115.46M680.84 105.49L680.84 159.92M686.08 160.83L686.08 100.83M691.32 101.75L691.32 161.75M696.56 162.66L696.56 102.66M701.8 103.57L701.8 163.57M707.04 164.49L707.04 104.49M712.28 105.4L712.28 159.83M717.52 149.86L717.52 106.31M722.76 107.23L722.76 139.88M728.01 129.91L728.01 108.14M733.25 109.05L733.25 119.94M769.81 175.42L769.81 164.54M775.05 154.56L775.05 176.34M780.29 177.25L780.29 144.59M785.53 134.62L785.53 178.16M790.77 179.08L790.77 124.65M796.01 119.99L796.01 179.99M801.25 180.9L801.25 120.9M806.49 121.82L806.49 181.82M811.74 182.73L811.74 122.73M816.98 123.64L816.98 183.64M822.22 178.98L822.22 124.55M827.46 125.47L827.46 169.01M832.7 159.04L832.7 126.38M837.94 127.29L837.94 149.07M843.18 139.09L843.18 128.21M879.74 183.69L879.74 194.58M884.98 195.49L884.98 173.72M890.22 163.75L890.22 196.4M895.47 197.32L895.47 153.77M900.71 143.8L900.71 198.23M905.95 199.14L905.95 139.14M911.19 140.06L911.19 200.06M916.43 200.97L916.43 140.97M921.67 141.88L921.67 201.88M926.91 202.8L926.91 142.8M932.15 143.71L932.15 198.14M937.39 188.17L937.39 144.62M942.63 145.54L942.63 178.19M947.87 168.22L947.87 146.45M953.11 147.36L953.11 158.25M989.68 213.73L989.68 202.85M994.92 192.88L994.92 214.65M1000.16 215.56L1000.16 182.9M1005.4 172.93L1005.4 216.47M1010.64 217.39L1010.64 162.96M1015.88 158.3L1015.88 218.3M1021.12 219.21L1021.12 159.21M1026.36 160.13L1026.36 220.13M1031.6 221.04L1031.6 161.04M1036.84 161.95L1036.84 221.95M1042.08 217.29L1042.08 162.87M1047.32 163.78L1047.32 207.32M1052.57 197.35L1052.57 164.69M1057.81 165.6L1057.81 187.38M1063.05 177.4L1063.05 166.52M1099.61 222.0L1099.61 232.89M52.44 170.42L52.44 159.54M57.68 149.57L57.68 171.34M62.92 172.25L62.92 139.59M68.16 129.62L68.16 173.16M73.4 174.08L73.4 119.65M78.64 114.99L78.64 174.99M83.88 175.9L83.88 115.9M89.12 116.82L89.12 176.82M94.36 177.73L94.36 117.73M99.6 118.64L99.6 178.64M104.84 173.99L104.84 119.56M110.08 120.47L110.08 164.01M115.33 154.04L115.33 121.38M120.57 122.3L120.57 144.07M125.81 134.09L125.81 123.21M162.37 178.69L162.37 189.58M167.61 190.49L167.61 168.72M172.85 158.75L172.85 191.41M178.09 192.32L178.09 148.78M183.33 138.8L183.33 193.23M188.57 194.15L188.57 134.15M193.81 135.06L193.81 195.06M199.05 195.97L199.05 135.97M204.3 136.89L204.3 196.89M209.54 197.8L209.54 137.8M214.78 138.71L214.78 193.14M220.02 183.17L220.02 139.62M225.26 140.54L225.26 173.2M230.5 163.22L230.5 141.45M235.74 142.36L235.74 153.25M272.3 208.74L272.3 197.85M277.54 187.88L277.54 209.65M282.78 210.56L282.78 177.9M288.03 167.93L288.03 211.47M293.27 212.39L293.27 157.96M298.51 153.3L298.51 213.3M303.75 214.21L303.75 154.21M308.99 155.13L308.99 215.13M314.23 216.04L314.23 156.04M319.47 156.95L319.47 216.95M324.71 212.3L324.71 157.87M329.95 158.78L329.95 202.32M335.19 192.35L335.19 159.69M340.43 160.61L340.43 182.38M345.67 172.41L345.67 161.52M382.24 217.0L382.24 227.89M387.48 228.8L387.48 207.03M392.72 197.06L392.72 229.72M397.96 230.63L397.96 187.09M403.2 177.11L403.2 231.54M408.44 232.46L408.44 172.46M413.68 173.37L413.68 233.37M418.92 234.28L418.92 174.28M424.16 175.2L424.16 235.2M429.4 236.11L429.4 176.11M434.64 177.02L434.64 231.45M439.89 221.48L439.89 177.94M445.13 178.85L445.13 211.51M450.37 201.53L450.37 179.76M455.61 180.67L455.61 191.56M492.17 247.05L492.17 236.16M497.41 226.19L497.41 247.96M502.65 248.87L502.65 216.21M507.89 206.24L507.89 249.79M513.13 250.7L513.13 196.27M518.37 191.61L518.37 251.61M523.61 252.52L523.61 192.52M528.86 193.44L528.86 253.44M534.1 254.35L534.1 194.35M539.34 195.26L539.34 255.26M544.58 250.61L544.58 196.18M549.82 197.09L549.82 240.63M555.06 230.66L555.06 198.0M560.3 198.92L560.3 220.69M565.54 210.72L565.54 199.83M602.1 255.32L602.1 266.2M607.34 267.11L607.34 245.34M612.59 235.37L612.59 268.03M617.83 268.94L617.83 225.4M623.07 215.42L623.07 269.85M628.31 270.77L628.31 210.77M633.55 211.68L633.55 271.68M638.79 272.59L638.79 212.59M644.03 213.51L644.03 273.51M649.27 274.42L649.27 214.42M654.51 215.33L654.51 269.76M659.75 259.79L659.75 216.25M664.99 217.16L664.99 249.82M670.23 239.84L670.23 218.07M675.47 218.99L675.47 229.87M712.04 285.36L712.04 274.47M717.28 264.5L717.28 286.27M722.52 287.18L722.52 254.53M727.76 244.55L727.76 288.1M733.0 289.01L733.0 234.58M738.24 229.92L738.24 289.92M743.48 290.84L743.48 230.84M748.72 231.75L748.72 291.75M753.96 292.66L753.96 232.66M759.2 233.58L759.2 293.58M764.45 288.92L764.45 234.49M769.69 235.4L769.69 278.94M774.93 268.97L774.93 236.31M780.17 237.23L780.17 259.0M785.41 249.03L785.41 238.14M821.97 293.63L821.97 304.51M827.21 305.43L827.21 283.65M832.45 273.68L832.45 306.34M837.69 307.25L837.69 263.71M842.93 253.74L842.93 308.16M848.17 309.08L848.17 249.08M853.42 249.99L853.42 309.99M858.66 310.9L858.66 250.9M863.9 251.82L863.9 311.82M869.14 312.73L869.14 252.73M874.38 253.64L874.38 308.07M879.62 298.1L879.62 254.56M884.86 255.47L884.86 288.13M890.1 278.15L890.1 256.38M895.34 257.3L895.34 268.18M931.9 323.67L931.9 312.78M937.15 302.81L937.15 324.58M942.39 325.49L942.39 292.84M947.63 282.86L947.63 326.41M952.87 327.32L952.87 272.89M958.11 268.23L958.11 328.23M963.35 329.15L963.35 269.15M968.59 270.06L968.59 330.06M973.83 330.97L973.83 270.97M979.07 271.89L979.07 331.89M984.31 327.23L984.31 272.8M989.55 273.71L989.55 317.26M994.79 307.28L994.79 274.63M1000.03 275.54L1000.03 297.31M1005.28 287.34L1005.28 276.45M1041.84 331.94L1041.84 342.82M1047.08 343.74L1047.08 321.96M1052.32 311.99L1052.32 344.65M1057.56 345.56L1057.56 302.02M1062.8 292.05L1062.8 346.48M1068.04 347.39L1068.04 287.39M1073.28 288.3L1073.28 348.3M1078.52 349.21L1078.52 289.21M1083.76 290.13L1083.76 350.13M1089.01 351.04L1089.01 291.04M1094.25 291.95L1094.25 346.38M1099.49 336.41L1099.49 292.87M52.31 230.4L52.31 273.95M57.55 263.97L57.55 231.32M62.79 232.23L62.79 254.0M68.04 244.03L68.04 233.14M104.6 288.63L104.6 299.51M109.84 300.43L109.84 278.65M115.08 268.68L115.08 301.34M120.32 302.25L120.32 258.71M125.56 248.74L125.56 303.17M130.8 304.08L130.8 244.08M136.04 244.99L136.04 304.99M141.28 305.91L141.28 245.91M146.52 246.82L146.52 306.82M151.76 307.73L151.76 247.73M157.01 248.65L157.01 303.07M162.25 293.1L162.25 249.56M167.49 250.47L167.49 283.13M172.73 273.16L172.73 251.38M177.97 252.3L177.97 263.18M214.53 318.67L214.53 307.78M219.77 297.81L219.77 319.58M225.01 320.5L225.01 287.84M230.25 277.86L230.25 321.41M235.49 322.32L235.49 267.89M240.74 263.23L240.74 323.23M245.98 324.15L245.98 264.15M251.22 265.06L251.22 325.06M256.46 325.97L256.46 265.97M261.7 266.89L261.7 326.89M266.94 322.23L266.94 267.8M272.18 268.71L272.18 312.26M277.42 302.28L277.42 269.63M282.66 270.54L282.66 292.31M287.9 282.34L287.9 271.45M324.46 326.94L324.46 337.82M329.71 338.74L329.71 316.97M334.95 306.99L334.95 339.65M340.19 340.56L340.19 297.02M345.43 287.05L345.43 341.48M350.67 342.39L350.67 282.39M355.91 283.3L355.91 343.3M361.15 344.22L361.15 284.22M366.39 285.13L366.39 345.13M371.63 346.04L371.63 286.04M376.87 286.96L376.87 341.39M382.11 331.41L382.11 287.87M387.35 288.78L387.35 321.44M392.6 311.47L392.6 289.7M397.84 290.61L397.84 301.49M434.4 356.98L434.4 346.09M439.64 336.12L439.64 357.89M444.88 358.81L444.88 326.15M450.12 316.18L450.12 359.72M455.36 360.63L455.36 306.2M460.6 301.55L460.6 361.55M465.84 362.46L465.84 302.46M471.08 303.37L471.08 363.37M476.32 364.28L476.32 304.28M481.57 305.2L481.57 365.2M486.81 360.54L486.81 306.11M492.05 307.02L492.05 350.57M497.29 340.6L497.29 307.94M502.53 308.85L502.53 330.62M507.77 320.65L507.77 309.76M544.33 365.25L544.33 376.13M549.57 377.05L549.57 355.28M554.81 345.3L554.81 377.96M560.05 378.87L560.05 335.33M565.3 325.36L565.3 379.79M570.54 380.7L570.54 320.7M575.78 321.61L575.78 381.61M581.02 382.53L581.02 322.53M586.26 323.44L586.26 383.44M591.5 384.35L591.5 324.35M596.74 325.27L596.74 379.7M601.98 369.72L601.98 326.18M607.22 327.09L607.22 359.75M612.46 349.78L612.46 328.01M617.7 328.92L617.7 339.81M654.27 395.29L654.27 384.4M659.51 374.43L659.51 396.2M664.75 397.12L664.75 364.46M669.99 354.49L669.99 398.03M675.23 398.94L675.23 344.51M680.47 339.86L680.47 399.86M685.71 400.77L685.71 340.77M690.95 341.68L690.95 401.68M696.19 402.6L696.19 342.6M701.43 343.51L701.43 403.51M706.67 398.85L706.67 344.42M711.91 345.34L711.91 388.88M717.16 378.91L717.16 346.25M722.4 347.16L722.4 368.93M727.64 358.96L727.64 348.07M764.2 403.56L764.2 414.45M769.44 415.36L769.44 393.59M774.68 383.61L774.68 416.27M779.92 417.18L779.92 373.64M785.16 363.67L785.16 418.1M790.4 419.01L790.4 359.01M795.64 359.92L795.64 419.92M800.88 420.84L800.88 360.84M806.13 361.75L806.13 421.75M811.37 422.66L811.37 362.66M816.61 363.58L816.61 418.01M821.85 408.03L821.85 364.49M827.09 365.4L827.09 398.06M832.33 388.09L832.33 366.32M837.57 367.23L837.57 378.12M874.13 433.6L874.13 422.71M879.37 412.74L879.37 434.51M884.61 435.43L884.61 402.77M889.86 392.8L889.86 436.34M895.1 437.25L895.1 382.82M900.34 378.17L900.34 438.17M905.58 439.08L905.58 379.08M910.82 379.99L910.82 439.99M916.06 440.91L916.06 380.91M921.3 381.82L921.3 441.82M926.54 437.16L926.54 382.73M931.78 383.65L931.78 427.19M937.02 417.22L937.02 384.56M942.26 385.47L942.26 407.24M947.5 397.27L947.5 386.39M984.07 441.87L984.07 452.76M989.31 453.67L989.31 431.9M994.55 421.92L994.55 454.58M999.79 455.5L999.79 411.95M1005.03 401.98L1005.03 456.41M1010.27 457.32L1010.27 397.32M1015.51 398.24L1015.51 458.24M1020.75 459.15L1020.75 399.15M1025.99 400.06L1025.99 460.06M1031.23 460.97L1031.23 400.97M1036.47 401.89L1036.47 456.32M1041.71 446.34L1041.71 402.8M1046.96 403.71L1046.96 436.37M1052.2 426.4L1052.2 404.63M1057.44 405.54L1057.44 416.43M1094.0 471.91L1094.0 461.03M1099.24 451.05L1099.24 472.82M52.07 410.36L52.07 388.59M57.31 378.62L57.31 411.27M62.55 412.19L62.55 368.64M67.79 358.67L67.79 413.1M73.03 414.01L73.03 354.01M78.27 354.93L78.27 414.93M83.51 415.84L83.51 355.84M88.75 356.75L88.75 416.75M93.99 417.67L93.99 357.67M99.23 358.58L99.23 413.01M104.47 403.04L104.47 359.49M109.72 360.41L109.72 393.06M114.96 383.09L114.96 361.32M120.2 362.23L120.2 373.12M156.76 428.6L156.76 417.72M162.0 407.74L162.0 429.52M167.24 430.43L167.24 397.77M172.48 387.8L172.48 431.34M177.72 432.25L177.72 377.83M182.96 373.17L182.96 433.17M188.2 434.08L188.2 374.08M193.45 374.99L193.45 434.99M198.69 435.91L198.69 375.91M203.93 376.82L203.93 436.82M209.17 432.16L209.17 377.73M214.41 378.65L214.41 422.19M219.65 412.22L219.65 379.56M224.89 380.47L224.89 402.25M230.13 392.27L230.13 381.39M266.69 436.87L266.69 447.76M271.93 448.67L271.93 426.9M277.17 416.93L277.17 449.58M282.42 450.5L282.42 406.95M287.66 396.98L287.66 451.41M292.9 452.32L292.9 392.32M298.14 393.24L298.14 453.24M303.38 454.15L303.38 394.15M308.62 395.06L308.62 455.06M313.86 455.98L313.86 395.98M319.1 396.89L319.1 451.32M324.34 441.35L324.34 397.8M329.58 398.72L329.58 431.37M334.82 421.4L334.82 399.63M340.06 400.54L340.06 411.43M376.63 466.91L376.63 456.03M381.87 446.05L381.87 467.83M387.11 468.74L387.11 436.08M392.35 426.11L392.35 469.65M397.59 470.57L397.59 416.14M402.83 411.48L402.83 471.48M408.07 472.39L408.07 412.39M413.31 413.31L413.31 473.31M418.55 474.22L418.55 414.22M423.79 415.13L423.79 475.13M429.03 470.47L429.03 416.04M434.28 416.96L434.28 460.5M439.52 450.53L439.52 417.87M444.76 418.78L444.76 440.56M450.0 430.58L450.0 419.7M486.56 475.18L486.56 486.07M491.8 486.98L491.8 465.21M497.04 455.24L497.04 487.89M502.28 488.81L502.28 445.26M507.52 435.29L507.52 489.72M512.76 490.63L512.76 430.63M518.0 431.55L518.0 491.55M523.25 492.46L523.25 432.46M528.49 433.37L528.49 493.37M533.73 494.29L533.73 434.29M538.97 435.2L538.97 489.63M544.21 479.66L544.21 436.11M549.45 437.03L549.45 469.68M554.69 459.71L554.69 437.94M559.93 438.85L559.93 449.74M596.49 505.22L596.49 494.34M601.73 484.37L601.73 506.14M606.98 507.05L606.98 474.39M612.22 464.42L612.22 507.96M617.46 508.88L617.46 454.45M622.7 449.79L622.7 509.79M627.94 510.7L627.94 450.7M633.18 451.62L633.18 511.62M638.42 512.53L638.42 452.53M643.66 453.44L643.66 513.44M648.9 508.78L648.9 454.36M654.14 455.27L654.14 498.81M659.38 488.84L659.38 456.18M664.62 457.09L664.62 478.87M669.86 468.89L669.86 458.01M706.43 513.49L706.43 524.38M711.67 525.29L711.67 503.52M716.91 493.55L716.91 526.21M722.15 527.12L722.15 483.58M727.39 473.6L727.39 528.03M732.63 528.94L732.63 468.94M737.87 469.86L737.87 529.86M743.11 530.77L743.11 470.77M748.35 471.68L748.35 531.68M753.59 532.6L753.59 472.6M758.84 473.51L758.84 527.94M764.08 517.97L764.08 474.42M769.32 475.34L769.32 507.99M774.56 498.02L774.56 476.25M779.8 477.16L779.8 488.05M816.36 543.53L816.36 532.65M821.6 522.68L821.6 544.45M826.84 545.36L826.84 512.7M832.08 502.73L832.08 546.27M837.32 547.19L837.32 492.76M842.56 488.1L842.56 548.1M847.81 549.01L847.81 489.01M853.05 489.93L853.05 549.93M858.29 550.84L858.29 490.84M863.53 491.75L863.53 551.75M868.77 547.1L868.77 492.67M874.01 493.58L874.01 537.12M879.25 527.15L879.25 494.49M884.49 495.41L884.49 517.18M889.73 507.2L889.73 496.32M926.29 551.8L926.29 562.69M931.54 563.6L931.54 541.83M936.78 531.86L936.78 564.52M942.02 565.43L942.02 521.89M947.26 511.91L947.26 566.34M952.5 567.26L952.5 507.26M957.74 508.17L957.74 568.17M962.98 569.08L962.98 509.08M968.22 510.0L968.22 570.0M973.46 570.91L973.46 510.91M978.7 511.82L978.7 566.25M983.94 556.28L983.94 512.73M989.18 513.65L989.18 546.31M994.42 536.33L994.42 514.56M999.67 515.47L999.67 526.36M1036.23 581.85L1036.23 570.96M1041.47 560.99L1041.47 582.76M1046.71 583.67L1046.71 551.01M1051.95 541.04L1051.95 584.58M1057.19 585.5L1057.19 531.07M1062.43 526.41L1062.43 586.41M1067.67 587.32L1067.67 527.32M1072.91 528.24L1072.91 588.24M1078.15 589.15L1078.15 529.15M1083.4 530.06L1083.4 590.06M1088.64 585.41L1088.64 530.98M1093.88 531.89L1093.88 575.43M1099.12 565.46L1099.12 532.8M51.94 470.34L51.94 503.0M57.18 493.02L57.18 471.25M62.43 472.17L62.43 483.05M98.99 538.54L98.99 527.65M104.23 517.68L104.23 539.45M109.47 540.36L109.47 507.7M114.71 497.73L114.71 541.28M119.95 542.19L119.95 487.76M125.19 483.1L125.19 543.1M130.43 544.01L130.43 484.01M135.67 484.93L135.67 544.93M140.91 545.84L140.91 485.84M146.15 486.75L146.15 546.75M151.4 542.1L151.4 487.67M156.64 488.58L156.64 532.12M161.88 522.15L161.88 489.49M167.12 490.41L167.12 512.18M172.36 502.21L172.36 491.32M208.92 546.81L208.92 557.69M214.16 558.6L214.16 536.83M219.4 526.86L219.4 559.52M224.64 560.43L224.64 516.89M229.88 506.91L229.88 561.34M235.13 562.26L235.13 502.26M240.37 503.17L240.37 563.17M245.61 564.08L245.61 504.08M250.85 505.0L250.85 565.0M256.09 565.91L256.09 505.91M261.33 506.82L261.33 561.25M266.57 551.28L266.57 507.74M271.81 508.65L271.81 541.31M277.05 531.33L277.05 509.56M282.29 510.48L282.29 521.36M318.85 576.85L318.85 565.96M324.1 555.99L324.1 577.76M329.34 578.67L329.34 546.02M334.58 536.04L334.58 579.59M339.82 580.5L339.82 526.07M345.06 521.41L345.06 581.41M350.3 582.33L350.3 522.33M355.54 523.24L355.54 583.24M360.78 584.15L360.78 524.15M366.02 525.07L366.02 585.07M371.26 580.41L371.26 525.98M376.5 526.89L376.5 570.43M381.74 560.46L381.74 527.8M386.99 528.72L386.99 550.49M392.23 540.52L392.23 529.63M428.79 585.12L428.79 596.0M434.03 596.92L434.03 575.14M439.27 565.17L439.27 597.83M444.51 598.74L444.51 555.2M449.75 545.23L449.75 599.65M454.99 600.57L454.99 540.57M460.23 541.48L460.23 601.48M465.47 602.39L465.47 542.39M470.71 543.31L470.71 603.31M475.96 604.22L475.96 544.22M481.2 545.13L481.2 599.56M486.44 589.59L486.44 546.05M491.68 546.96L491.68 579.62M496.92 569.64L496.92 547.87M502.16 548.79L502.16 559.67M538.72 615.16L538.72 604.27M543.96 594.3L543.96 616.07M549.2 616.98L549.2 584.33M554.44 574.35L554.44 617.9M559.69 618.81L559.69 564.38M564.93 559.72L564.93 619.72M570.17 620.64L570.17 560.64M575.41 561.55L575.41 621.55M580.65 622.46L580.65 562.46M585.89 563.38L585.89 623.38M591.13 618.72L591.13 564.29M596.37 565.2L596.37 608.75M601.61 598.77L601.61 566.12M606.85 567.03L606.85 588.8M612.09 578.83L612.09 567.94M648.66 623.43L648.66 634.31M653.9 635.23L653.9 613.45M659.14 603.48L659.14 636.14M664.38 637.05L664.38 593.51M669.62 583.54L669.62 637.97M674.86 638.88L674.86 578.88M680.1 579.79L680.1 639.79M685.34 640.7L685.34 580.7M690.58 581.62L690.58 641.62M695.82 642.53L695.82 582.53M701.06 583.44L701.06 637.87M706.3 627.9L706.3 584.36M711.55 585.27L711.55 617.93M716.79 607.96L716.79 586.18M722.03 587.1L722.03 597.98M758.59 653.47L758.59 642.58M763.83 632.61L763.83 654.38M769.07 655.29L769.07 622.64M774.31 612.66L774.31 656.21M779.55 657.12L779.55 602.69M784.79 598.03L784.79 658.03M790.03 658.95L790.03 598.95M795.27 599.86L795.27 659.86M800.52 660.77L800.52 600.77M805.76 601.69L805.76 661.69M811.0 657.03L811.0 602.6M816.24 603.51L816.24 647.06M821.48 637.08L821.48 604.43M826.72 605.34L826.72 627.11M831.96 617.14L831.96 606.25M868.52 661.74L868.52 672.62M873.76 673.54L873.76 651.76M879.0 641.79L879.0 674.45M884.25 675.36L884.25 631.82M889.49 621.85L889.49 676.28M894.73 677.19L894.73 617.19M899.97 618.1L899.97 678.1M905.21 679.02L905.21 619.02M910.45 619.93L910.45 679.93M915.69 680.84L915.69 620.84M920.93 621.76L920.93 676.18M926.17 666.21L926.17 622.67M931.41 623.58L931.41 656.24M936.65 646.27L936.65 624.49M941.89 625.41L941.89 636.29M978.46 691.78L978.46 680.89M983.7 670.92L983.7 692.69M988.94 693.6L988.94 660.95M994.18 650.97L994.18 694.52M999.42 695.43L999.42 641.0M1004.66 636.34L1004.66 696.34M1009.9 697.26L1009.9 637.26M1015.14 638.17L1015.14 698.17M1020.38 699.08L1020.38 639.08M1025.62 640.0L1025.62 700.0M1030.86 695.34L1030.86 640.91M1036.11 641.82L1036.11 685.37M1041.35 675.39L1041.35 642.74M1046.59 643.65L1046.59 665.42M1051.83 655.45L1051.83 644.56M1088.39 700.05L1088.39 710.93M1093.63 711.85L1093.63 690.08M1098.87 680.1L1098.87 712.76M51.7 650.3L51.7 617.64M56.94 607.67L56.94 651.21M62.18 652.12L62.18 597.69M67.42 593.04L67.42 653.04M72.66 653.95L72.66 593.95M77.9 594.86L77.9 654.86M83.14 655.77L83.14 595.77M88.38 596.69L88.38 656.69M93.62 652.03L93.62 597.6M98.86 598.51L98.86 642.06M104.11 632.09L104.11 599.43M109.35 600.34L109.35 622.11M114.59 612.14L114.59 601.25M151.15 656.74L151.15 667.62M156.39 668.54L156.39 646.77M161.63 636.79L161.63 669.45M166.87 670.36L166.87 626.82M172.11 616.85L172.11 671.28M177.35 672.19L177.35 612.19M182.59 613.1L182.59 673.1M187.84 674.02L187.84 614.02M193.08 614.93L193.08 674.93M198.32 675.84L198.32 615.84M203.56 616.76L203.56 671.19M208.8 661.21L208.8 617.67M214.04 618.58L214.04 651.24M219.28 641.27L219.28 619.5M224.52 620.41L224.52 631.3M261.08 686.78L261.08 675.89M266.32 665.92L266.32 687.69M271.56 688.61L271.56 655.95M276.81 645.98L276.81 689.52M282.05 690.43L282.05 636.0M287.29 631.35L287.29 691.35M292.53 692.26L292.53 632.26M297.77 633.17L297.77 693.17M303.01 694.09L303.01 634.09M308.25 635.0L308.25 695.0M313.49 690.34L313.49 635.91M318.73 636.83L318.73 680.37M323.97 670.4L323.97 637.74M329.21 638.65L329.21 660.42M334.45 650.45L334.45 639.56M371.02 695.05L371.02 705.94M376.26 706.85L376.26 685.08M381.5 675.1L381.5 707.76M386.74 708.68L386.74 665.13M391.98 655.16L391.98 709.59M397.22 710.5L397.22 650.5M402.46 651.41L402.46 711.41M407.7 712.33L407.7 652.33M412.94 653.24L412.94 713.24M418.18 714.15L418.18 654.15M423.42 655.07L423.42 709.5M428.67 699.52L428.67 655.98M433.91 656.89L433.91 689.55M439.15 679.58L439.15 657.81M444.39 658.72L444.39 669.61M480.95 725.09L480.95 714.2M486.19 704.23L486.19 726.0M491.43 726.92L491.43 694.26M496.67 684.29L496.67 727.83M501.91 728.74L501.91 674.31M507.15 669.66L507.15 729.66M512.4 730.57L512.4 670.57M517.64 671.48L517.64 731.48M522.88 732.4L522.88 672.4M528.12 673.31L528.12 733.31M533.36 728.65L533.36 674.22M538.6 675.14L538.6 718.68M543.84 708.71L543.84 676.05M549.08 676.96L549.08 698.73M554.32 688.76L554.32 677.88M590.88 733.36L590.88 744.25M596.12 745.16L596.12 723.39M601.37 713.41L601.37 746.07M606.61 746.99L606.61 703.44M611.85 693.47L611.85 747.9M617.09 748.81L617.09 688.81M622.33 689.73L622.33 749.73M627.57 750.64L627.57 690.64M632.81 691.55L632.81 751.55M638.05 752.46L638.05 692.46M643.29 693.38L643.29 747.81M648.53 737.83L648.53 694.29M653.77 695.2L653.77 727.86M659.01 717.89L659.01 696.12M664.25 697.03L664.25 707.92M700.82 763.4L700.82 752.52M706.06 742.54L706.06 764.31M711.3 765.23L711.3 732.57M716.54 722.6L716.54 766.14M721.78 767.05L721.78 712.62M727.02 707.97L727.02 767.97M732.26 768.88L732.26 708.88M737.5 709.79L737.5 769.79M742.74 770.71L742.74 710.71M747.98 711.62L747.98 771.62M753.23 766.96L753.23 712.53M758.47 713.45L758.47 756.99M763.71 747.02L763.71 714.36M768.95 715.27L768.95 737.04M774.19 727.07L774.19 716.19M810.75 771.67L810.75 782.56M815.99 783.47L815.99 761.7M821.23 751.73L821.23 784.38M826.47 785.3L826.47 741.75M831.71 731.78L831.71 786.21M836.95 787.12L836.95 727.12M842.2 728.04L842.2 788.04M847.44 788.95L847.44 728.95M852.68 729.86L852.68 789.86M857.92 790.78L857.92 730.78M863.16 731.69L863.16 786.12M868.4 776.15L868.4 732.6M873.64 733.51L873.64 766.17M878.88 756.2L878.88 734.43M884.12 735.34L884.12 746.23M920.68 801.71L920.68 790.83M925.93 780.85L925.93 802.63M931.17 803.54L931.17 770.88M936.41 760.91L936.41 804.45M941.65 805.36L941.65 750.94M946.89 746.28L946.89 806.28M952.13 807.19L952.13 747.19M957.37 748.1L957.37 808.1M962.61 809.02L962.61 749.02M967.85 749.93L967.85 809.93M973.09 805.27L973.09 750.84M978.33 751.76L978.33 795.3M983.57 785.33L983.57 752.67M988.81 753.58L988.81 775.36M994.06 765.38L994.06 754.5M1030.62 809.98L1030.62 820.0M1035.86 820.0L1035.86 800.01M1041.1 790.04L1041.1 820.0M1046.34 820.0L1046.34 780.06M1051.58 770.09L1051.58 820.0M1056.82 820.0L1056.82 765.43M1062.06 766.35L1062.06 820.0M1067.3 820.0L1067.3 767.26M1072.54 768.17L1072.54 820.0M1077.79 820.0L1077.79 769.09M1083.03 770.0L1083.03 820.0M1088.27 814.46L1088.27 770.91M1093.51 771.83L1093.51 804.48M1098.75 794.51L1098.75 772.74M51.57 710.27L51.57 732.05M56.82 722.07L56.82 711.19M93.38 766.67L93.38 777.56M98.62 778.47L98.62 756.7M103.86 746.73L103.86 779.38M109.1 780.3L109.1 736.75M114.34 726.78L114.34 781.21M119.58 782.12L119.58 722.12M124.82 723.04L124.82 783.04M130.06 783.95L130.06 723.95M135.3 724.86L135.3 784.86M140.54 785.78L140.54 725.78M145.79 726.69L145.79 781.12M151.03 771.15L151.03 727.6M156.27 728.52L156.27 761.17M161.51 751.2L161.51 729.43M166.75 730.34L166.75 741.23M203.31 796.71L203.31 785.83M208.55 775.86L208.55 797.63M213.79 798.54L213.79 765.88M219.03 755.91L219.03 799.45M224.27 800.37L224.27 745.94M229.52 741.28L229.52 801.28M234.76 802.19L234.76 742.19M240.0 743.11L240.0 803.11M245.24 804.02L245.24 744.02M250.48 744.93L250.48 804.93M255.72 800.27L255.72 745.85M260.96 746.76L260.96 790.3M266.2 780.33L266.2 747.67M271.44 748.59L271.44 770.36M276.68 760.38L276.68 749.5M313.24 804.98L313.24 815.87M318.49 816.78L318.49 795.01M323.73 785.04L323.73 817.7M328.97 818.61L328.97 775.07M334.21 765.09L334.21 819.52M339.45 820.0L339.45 760.43M344.69 761.35L344.69 820.0M349.93 820.0L349.93 762.26M355.17 763.17L355.17 820.0M360.41 820.0L360.41 764.09M365.65 765.0L365.65 819.43M370.89 809.46L370.89 765.91M376.13 766.83L376.13 799.48M381.38 789.51L381.38 767.74M386.62 768.65L386.62 779.54M428.42 820.0L428.42 814.17M433.66 804.19L433.66 820.0M438.9 820.0L438.9 794.22M444.14 784.25L444.14 820.0M449.38 820.0L449.38 779.59M454.62 780.5L454.62 820.0M459.86 820.0L459.86 781.42M465.1 782.33L465.1 820.0M470.35 820.0L470.35 783.24M475.59 784.16L475.59 820.0M480.83 820.0L480.83 785.07M486.07 785.98L486.07 818.64M491.31 808.67L491.31 786.9M496.55 787.81L496.55 798.69M548.83 820.0L548.83 813.38M554.08 803.4L554.08 820.0M559.32 820.0L559.32 798.75M564.56 799.66L564.56 820.0M569.8 820.0L569.8 800.57M575.04 801.49L575.04 820.0M580.28 820.0L580.28 802.4M585.52 803.31L585.52 820.0M590.76 820.0L590.76 804.22M596.0 805.14L596.0 820.0M601.24 820.0L601.24 806.05M606.48 806.96L606.48 817.85M669.25 820.0L669.25 817.9M674.49 818.81L674.49 820.0M679.73 820.0L679.73 819.73"/>
    </g>
  </g>
</svg>
