<svg version="1.1" width="1150" height="870" xmlns="http://www.w3.org/2000/svg">
  <!-- Seed: 1934709873857659625 -->
  <!-- Size: SvgSize.Size9x12 -->
  <!-- Params:
    draw_lines: False
    draw_aligned_vertical: False
    draw_aligned_horizontal: False
    draw_filled_checkers: True
    pad: 0
    size: [RangeInt] min: 10 max: 150
    skew_vert_degs: [RangeFloat] min: 0 max: 45
    skew_horiz_degs: [RangeFloat] min: 0 max: 45
    interior_space_aligned: 5
    interior_space_filled: 5
  -->
  <g stroke="black" fill="none">
    <g stroke="green">
      <path d="M52.93 51.98L52.93 112.98M58.06 116.45L58.06 55.45M63.19 58.92L63.19 119.92M68.32 123.38L68.32 62.38M73.46 65.85L73.46 126.85M78.59 130.32L78.59 69.32M83.72 72.79L83.72 126.16M88.85 111.84L88.85 76.25M93.98 79.72L93.98 97.51M53.66 210.06L53.66 174.48M58.79 177.94L58.79 195.73M170.95 70.73L170.95 52.94M176.08 50.0L176.08 74.2M181.21 77.67L181.21 50.0M186.34 50.0L186.34 81.13M191.47 84.6L191.47 50.0M196.6 50.0L196.6 88.07M201.73 91.54L201.73 50.0M206.86 50.0L206.86 95.0M212.0 98.47L212.0 50.0M217.13 50.0L217.13 94.31M222.26 79.99L222.26 50.0M227.39 50.0L227.39 65.67M135.76 168.95L135.76 151.16M140.89 136.84L140.89 172.42M146.02 175.89L146.02 122.52M151.15 118.36L151.15 179.36M156.28 182.82L156.28 121.82M161.42 125.29L161.42 186.29M166.55 189.76L166.55 128.76M171.68 132.23L171.68 193.23M176.81 196.69L176.81 135.69M181.94 139.16L181.94 192.53M187.07 178.21L187.07 142.63M192.2 146.1L192.2 163.89M100.57 267.18L100.57 249.39M105.71 235.06L105.71 270.64M110.84 274.11L110.84 220.74M115.97 216.58L115.97 277.58M121.1 281.05L121.1 220.05M126.23 223.51L126.23 284.51M131.36 287.98L131.36 226.98M136.49 230.45L136.49 291.45M141.62 294.92L141.62 233.92M146.75 237.38L146.75 290.76M151.89 276.43L151.89 240.85M157.02 244.32L157.02 262.11M65.39 365.4L65.39 347.61M70.52 333.28L70.52 368.87M75.65 372.33L75.65 318.96M80.78 314.8L80.78 375.8M85.91 379.27L85.91 318.27M91.04 321.74L91.04 382.74M96.18 386.2L96.18 325.2M101.31 328.67L101.31 389.67M106.44 393.14L106.44 332.14M111.57 335.61L111.57 388.98M116.7 374.66L116.7 339.07M121.83 342.54L121.83 360.33M50.73 477.49L50.73 416.49M55.86 419.96L55.86 480.96M60.99 484.43L60.99 423.43M66.12 426.89L66.12 487.89M71.25 491.36L71.25 430.36M76.38 433.83L76.38 487.2M81.51 472.88L81.51 437.3M86.64 440.76L86.64 458.55M51.46 556.78L51.46 538.99M324.88 50.0L324.88 52.76M330.01 56.22L330.01 50.0M335.14 50.0L335.14 59.69M340.27 63.16L340.27 50.0M345.4 50.0L345.4 66.63M350.53 62.47L350.53 50.0M269.17 119.32L269.17 137.11M274.3 140.58L274.3 104.99M279.43 90.67L279.43 144.04M284.56 147.51L284.56 86.51M289.69 89.98L289.69 150.98M294.82 154.45L294.82 93.45M299.96 96.91L299.96 157.91M305.09 161.38L305.09 100.38M310.22 103.85L310.22 164.85M315.35 160.69L315.35 107.32M320.48 110.78L320.48 146.36M325.61 132.04L325.61 114.25M233.98 217.54L233.98 235.33M239.11 238.8L239.11 203.22M244.24 188.89L244.24 242.27M249.38 245.73L249.38 184.73M254.51 188.2L254.51 249.2M259.64 252.67L259.64 191.67M264.77 195.14L264.77 256.14M269.9 259.6L269.9 198.6M275.03 202.07L275.03 263.07M280.16 258.91L280.16 205.54M285.29 209.01L285.29 244.59M290.42 230.26L290.42 212.47M198.8 315.76L198.8 333.55M203.93 337.02L203.93 301.44M209.06 287.11L209.06 340.49M214.19 343.96L214.19 282.96M219.32 286.42L219.32 347.42M224.45 350.89L224.45 289.89M229.58 293.36L229.58 354.36M234.71 357.82L234.71 296.82M239.85 300.29L239.85 361.29M244.98 357.13L244.98 303.76M250.11 307.23L250.11 342.81M255.24 328.49L255.24 310.69M163.61 413.98L163.61 431.78M168.74 435.24L168.74 399.66M173.87 385.34L173.87 438.71M179.0 442.18L179.0 381.18M184.14 384.64L184.14 445.64M189.27 449.11L189.27 388.11M194.4 391.58L194.4 452.58M199.53 456.05L199.53 395.05M204.66 398.51L204.66 459.51M209.79 455.36L209.79 401.98M214.92 405.45L214.92 441.03M220.05 426.71L220.05 408.92M128.42 512.21L128.42 530.0M133.56 533.46L133.56 497.88M138.69 483.56L138.69 536.93M143.82 540.4L143.82 479.4M148.95 482.87L148.95 543.87M154.08 547.33L154.08 486.33M159.21 489.8L159.21 550.8M164.34 554.27L164.34 493.27M169.47 496.74L169.47 557.74M174.6 553.58L174.6 500.2M179.74 503.67L179.74 539.25M184.87 524.93L184.87 507.14M93.24 610.43L93.24 628.22M98.37 631.69L98.37 596.11M103.5 581.78L103.5 635.15M108.63 638.62L108.63 577.62M113.76 581.09L113.76 642.09M118.89 645.56L118.89 584.56M124.03 588.02L124.03 649.02M129.16 652.49L129.16 591.49M134.29 594.96L134.29 655.96M139.42 651.8L139.42 598.43M144.55 601.89L144.55 637.48M149.68 623.15L149.68 605.36M58.05 708.65L58.05 726.44M63.18 729.91L63.18 694.33M68.32 680.0L68.32 733.38M73.45 736.84L73.45 675.84M78.58 679.31L78.58 740.31M83.71 743.78L83.71 682.78M88.84 686.25L88.84 747.25M93.97 750.71L93.97 689.71M99.1 693.18L99.1 754.18M104.23 750.02L104.23 696.65M109.36 700.12L109.36 735.7M114.5 721.37L114.5 703.58M53.65 784.47L53.65 820.0M58.78 820.0L58.78 787.94M63.92 791.4L63.92 820.0M69.05 820.0L69.05 794.87M74.18 798.34L74.18 820.0M79.31 819.6L79.31 801.81M402.58 87.47L402.58 105.26M407.71 108.73L407.71 73.15M412.84 58.82L412.84 112.2M417.97 115.66L417.97 54.66M423.1 58.13L423.1 119.13M428.23 122.6L428.23 61.6M433.36 65.07L433.36 126.07M438.49 129.53L438.49 68.53M443.63 72.0L443.63 133.0M448.76 128.84L448.76 75.47M453.89 78.94L453.89 114.52M459.02 100.19L459.02 82.4M367.39 185.69L367.39 203.48M372.52 206.95L372.52 171.37M377.65 157.05L377.65 210.42M382.78 213.89L382.78 152.89M387.92 156.35L387.92 217.35M393.05 220.82L393.05 159.82M398.18 163.29L398.18 224.29M403.31 227.76L403.31 166.76M408.44 170.22L408.44 231.22M413.57 227.06L413.57 173.69M418.7 177.16L418.7 212.74M423.83 198.42L423.83 180.63M332.21 283.92L332.21 301.71M337.34 305.17L337.34 269.59M342.47 255.27L342.47 308.64M347.6 312.11L347.6 251.11M352.73 254.58L352.73 315.58M357.86 319.04L357.86 258.04M362.99 261.51L362.99 322.51M368.12 325.98L368.12 264.98M373.25 268.45L373.25 329.45M378.38 325.29L378.38 271.91M383.52 275.38L383.52 310.96M388.65 296.64L388.65 278.85M297.02 382.14L297.02 399.93M302.15 403.4L302.15 367.81M307.28 353.49L307.28 406.86M312.41 410.33L312.41 349.33M317.54 352.8L317.54 413.8M322.67 417.27L322.67 356.27M327.81 359.73L327.81 420.73M332.94 424.2L332.94 363.2M338.07 366.67L338.07 427.67M343.2 423.51L343.2 370.14M348.33 373.6L348.33 409.19M353.46 394.86L353.46 377.07M261.83 480.36L261.83 498.15M266.96 501.62L266.96 466.04M272.1 451.71L272.1 505.09M277.23 508.55L277.23 447.55M282.36 451.02L282.36 512.02M287.49 515.49L287.49 454.49M292.62 457.96L292.62 518.96M297.75 522.42L297.75 461.42M302.88 464.89L302.88 525.89M308.01 521.73L308.01 468.36M313.14 471.83L313.14 507.41M318.28 493.08L318.28 475.29M226.65 578.58L226.65 596.37M231.78 599.84L231.78 564.26M236.91 549.94L236.91 603.31M242.04 606.78L242.04 545.78M247.17 549.24L247.17 610.24M252.3 613.71L252.3 552.71M257.43 556.18L257.43 617.18M262.56 620.65L262.56 559.65M267.7 563.11L267.7 624.11M272.83 619.95L272.83 566.58M277.96 570.05L277.96 605.63M283.09 591.31L283.09 573.52M191.46 676.8L191.46 694.6M196.59 698.06L196.59 662.48M201.72 648.16L201.72 701.53M206.85 705.0L206.85 644.0M211.99 647.47L211.99 708.47M217.12 711.93L217.12 650.93M222.25 654.4L222.25 715.4M227.38 718.87L227.38 657.87M232.51 661.34L232.51 722.34M237.64 718.18L237.64 664.8M242.77 668.27L242.77 703.85M247.9 689.53L247.9 671.74M156.28 775.03L156.28 792.82M161.41 796.29L161.41 760.7M166.54 746.38L166.54 799.75M171.67 803.22L171.67 742.22M176.8 745.69L176.8 806.69M181.93 810.16L181.93 749.16M187.06 752.62L187.06 813.62M192.19 817.09L192.19 756.09M197.32 759.56L197.32 820.0M202.46 816.4L202.46 763.03M207.59 766.49L207.59 802.07M212.72 787.75L212.72 769.96M535.99 55.62L535.99 73.42M541.12 76.88L541.12 50.0M546.25 50.0L546.25 80.35M551.38 83.82L551.38 50.0M556.51 50.0L556.51 87.29M561.64 90.75L561.64 50.0M566.77 50.0L566.77 94.22M571.9 97.69L571.9 50.0M577.03 50.0L577.03 101.16M582.16 97.0L582.16 50.0M587.3 50.0L587.3 82.67M592.43 68.35L592.43 50.56M500.8 153.85L500.8 171.64M505.93 175.11L505.93 139.52M511.06 125.2L511.06 178.57M516.19 182.04L516.19 121.04M521.32 124.51L521.32 185.51M526.45 188.98L526.45 127.98M531.59 131.44L531.59 192.44M536.72 195.91L536.72 134.91M541.85 138.38L541.85 199.38M546.98 195.22L546.98 141.84M552.11 145.31L552.11 180.89M557.24 166.57L557.24 148.78M465.61 252.07L465.61 269.86M470.74 273.33L470.74 237.75M475.88 223.42L475.88 276.8M481.01 280.26L481.01 219.26M486.14 222.73L486.14 283.73M491.27 287.2L491.27 226.2M496.4 229.66L496.4 290.66M501.53 294.13L501.53 233.13M506.66 236.6L506.66 297.6M511.79 293.44L511.79 240.07M516.92 243.53L516.92 279.12M522.06 264.79L522.06 247.0M430.43 350.29L430.43 368.08M435.56 371.55L435.56 335.97M440.69 321.64L440.69 375.02M445.82 378.48L445.82 317.48M450.95 320.95L450.95 381.95M456.08 385.42L456.08 324.42M461.21 327.89L461.21 388.89M466.34 392.35L466.34 331.35M471.48 334.82L471.48 395.82M476.61 391.66L476.61 338.29M481.74 341.76L481.74 377.34M486.87 363.02L486.87 345.22M395.24 448.51L395.24 466.3M400.37 469.77L400.37 434.19M405.5 419.87L405.5 473.24M410.63 476.71L410.63 415.71M415.77 419.17L415.77 480.17M420.9 483.64L420.9 422.64M426.03 426.11L426.03 487.11M431.16 490.58L431.16 429.58M436.29 433.04L436.29 494.04M441.42 489.88L441.42 436.51M446.55 439.98L446.55 475.56M451.68 461.24L451.68 443.45M360.06 546.74L360.06 564.53M365.19 567.99L365.19 532.41M370.32 518.09L370.32 571.46M375.45 574.93L375.45 513.93M380.58 517.4L380.58 578.4M385.71 581.86L385.71 520.86M390.84 524.33L390.84 585.33M395.97 588.8L395.97 527.8M401.1 531.27L401.1 592.27M406.24 588.11L406.24 534.73M411.37 538.2L411.37 573.78M416.5 559.46L416.5 541.67M324.87 644.96L324.87 662.75M330.0 666.22L330.0 630.63M335.13 616.31L335.13 669.68M340.26 673.15L340.26 612.15M345.39 615.62L345.39 676.62M350.52 680.09L350.52 619.09M355.66 622.55L355.66 683.55M360.79 687.02L360.79 626.02M365.92 629.49L365.92 690.49M371.05 686.33L371.05 632.96M376.18 636.42L376.18 672.01M381.31 657.68L381.31 639.89M289.68 743.18L289.68 760.97M294.81 764.44L294.81 728.86M299.95 714.53L299.95 767.91M305.08 771.37L305.08 710.37M310.21 713.84L310.21 774.84M315.34 778.31L315.34 717.31M320.47 720.78L320.47 781.78M325.6 785.24L325.6 724.24M330.73 727.71L330.73 788.71M335.86 784.55L335.86 731.18M340.99 734.65L340.99 770.23M346.13 755.9L346.13 738.11M264.76 812.76L264.76 820.0M269.89 820.0L269.89 808.6M275.02 812.06L275.02 820.0M280.15 820.0L280.15 815.53M285.28 819.0L285.28 820.0M684.79 51.97L684.79 50.0M689.92 50.0L689.92 55.44M695.05 58.91L695.05 50.0M700.18 50.0L700.18 62.37M705.31 65.84L705.31 50.0M710.44 50.0L710.44 69.31M715.57 65.15L715.57 50.0M720.7 50.0L720.7 50.83M634.21 139.79L634.21 122.0M639.34 107.68L639.34 143.26M644.47 146.73L644.47 93.35M649.6 89.19L649.6 150.19M654.73 153.66L654.73 92.66M659.86 96.13L659.86 157.13M664.99 160.6L664.99 99.6M670.13 103.06L670.13 164.06M675.26 167.53L675.26 106.53M680.39 110.0L680.39 163.37M685.52 149.05L685.52 113.47M690.65 116.93L690.65 134.72M599.02 238.01L599.02 220.22M604.15 205.9L604.15 241.48M609.28 244.95L609.28 191.58M614.41 187.42L614.41 248.42M619.55 251.88L619.55 190.88M624.68 194.35L624.68 255.35M629.81 258.82L629.81 197.82M634.94 201.29L634.94 262.29M640.07 265.75L640.07 204.75M645.2 208.22L645.2 261.59M650.33 247.27L650.33 211.69M655.46 215.16L655.46 232.95M563.84 336.24L563.84 318.45M568.97 304.12L568.97 339.7M574.1 343.17L574.1 289.8M579.23 285.64L579.23 346.64M584.36 350.11L584.36 289.11M589.49 292.57L589.49 353.57M594.62 357.04L594.62 296.04M599.75 299.51L599.75 360.51M604.88 363.98L604.88 302.98M610.02 306.44L610.02 359.82M615.15 345.49L615.15 309.91M620.28 313.38L620.28 331.17M528.65 434.46L528.65 416.67M533.78 402.34L533.78 437.93M538.91 441.39L538.91 388.02M544.04 383.86L544.04 444.86M549.17 448.33L549.17 387.33M554.31 390.8L554.31 451.8M559.44 455.26L559.44 394.26M564.57 397.73L564.57 458.73M569.7 462.2L569.7 401.2M574.83 404.67L574.83 458.04M579.96 443.71L579.96 408.13M585.09 411.6L585.09 429.39M493.46 532.68L493.46 514.89M498.59 500.57L498.59 536.15M503.73 539.62L503.73 486.24M508.86 482.08L508.86 543.08M513.99 546.55L513.99 485.55M519.12 489.02L519.12 550.02M524.25 553.49L524.25 492.49M529.38 495.95L529.38 556.95M534.51 560.42L534.51 499.42M539.64 502.89L539.64 556.26M544.77 541.94L544.77 506.36M549.91 509.82L549.91 527.61M458.28 630.9L458.28 613.11M463.41 598.79L463.41 634.37M468.54 637.84L468.54 584.47M473.67 580.31L473.67 641.31M478.8 644.77L478.8 583.77M483.93 587.24L483.93 648.24M489.06 651.71L489.06 590.71M494.2 594.18L494.2 655.18M499.33 658.64L499.33 597.64M504.46 601.11L504.46 654.48M509.59 640.16L509.59 604.58M514.72 608.05L514.72 625.84M423.09 729.13L423.09 711.33M428.22 697.01L428.22 732.59M433.35 736.06L433.35 682.69M438.49 678.53L438.49 739.53M443.62 743.0L443.62 682.0M448.75 685.46L448.75 746.46M453.88 749.93L453.88 688.93M459.01 692.4L459.01 753.4M464.14 756.86L464.14 695.86M469.27 699.33L469.27 752.71M474.4 738.38L474.4 702.8M479.53 706.27L479.53 724.06M387.91 820.0L387.91 809.56M393.04 795.23L393.04 820.0M398.17 820.0L398.17 780.91M403.3 776.75L403.3 820.0M408.43 820.0L408.43 780.22M413.56 783.68L413.56 820.0M418.69 820.0L418.69 787.15M423.82 790.62L423.82 820.0M428.95 820.0L428.95 794.09M434.09 797.55L434.09 820.0M439.22 820.0L439.22 801.02M444.35 804.49L444.35 820.0M767.62 107.95L767.62 90.15M772.75 75.83L772.75 111.41M777.88 114.88L777.88 61.51M783.01 57.35L783.01 118.35M788.14 121.82L788.14 60.82M793.27 64.28L793.27 125.28M798.4 128.75L798.4 67.75M803.53 71.22L803.53 132.22M808.66 135.68L808.66 74.68M813.8 78.15L813.8 131.53M818.93 117.2L818.93 81.62M824.06 85.09L824.06 102.88M732.43 206.17L732.43 188.38M737.56 174.05L737.56 209.64M742.69 213.1L742.69 159.73M747.82 155.57L747.82 216.57M752.95 220.04L752.95 159.04M758.09 162.5L758.09 223.5M763.22 226.97L763.22 165.97M768.35 169.44L768.35 230.44M773.48 233.91L773.48 172.91M778.61 176.37L778.61 229.75M783.74 215.42L783.74 179.84M788.87 183.31L788.87 201.1M697.24 304.39L697.24 286.6M702.37 272.28L702.37 307.86M707.51 311.32L707.51 257.95M712.64 253.79L712.64 314.79M717.77 318.26L717.77 257.26M722.9 260.73L722.9 321.73M728.03 325.19L728.03 264.19M733.16 267.66L733.16 328.66M738.29 332.13L738.29 271.13M743.42 274.6L743.42 327.97M748.55 313.65L748.55 278.06M753.69 281.53L753.69 299.32M662.06 402.61L662.06 384.82M667.19 370.5L667.19 406.08M672.32 409.55L672.32 356.17M677.45 352.01L677.45 413.01M682.58 416.48L682.58 355.48M687.71 358.95L687.71 419.95M692.84 423.42L692.84 362.42M697.98 365.88L697.98 426.88M703.11 430.35L703.11 369.35M708.24 372.82L708.24 426.19M713.37 411.87L713.37 376.29M718.5 379.75L718.5 397.55M626.87 500.83L626.87 483.04M632.0 468.72L632.0 504.3M637.13 507.77L637.13 454.4M642.27 450.24L642.27 511.24M647.4 514.7L647.4 453.7M652.53 457.17L652.53 518.17M657.66 521.64L657.66 460.64M662.79 464.11L662.79 525.11M667.92 528.57L667.92 467.57M673.05 471.04L673.05 524.41M678.18 510.09L678.18 474.51M683.31 477.98L683.31 495.77M591.69 599.06L591.69 581.27M596.82 566.94L596.82 602.52M601.95 605.99L601.95 552.62M607.08 548.46L607.08 609.46M612.21 612.93L612.21 551.93M617.34 555.39L617.34 616.39M622.47 619.86L622.47 558.86M627.6 562.33L627.6 623.33M632.73 626.8L632.73 565.8M637.87 569.26L637.87 622.64M643.0 608.31L643.0 572.73M648.13 576.2L648.13 593.99M556.5 697.28L556.5 679.49M561.63 665.16L561.63 700.75M566.76 704.21L566.76 650.84M571.89 646.68L571.89 707.68M577.02 711.15L577.02 650.15M582.16 653.62L582.16 714.62M587.29 718.08L587.29 657.08M592.42 660.55L592.42 721.55M597.55 725.02L597.55 664.02M602.68 667.49L602.68 720.86M607.81 706.54L607.81 670.95M612.94 674.42L612.94 692.21M521.31 795.5L521.31 777.71M526.45 763.39L526.45 798.97M531.58 802.44L531.58 749.06M536.71 744.9L536.71 805.9M541.84 809.37L541.84 748.37M546.97 751.84L546.97 812.84M552.1 816.31L552.1 755.31M557.23 758.77L557.23 819.77M562.36 820.0L562.36 762.24M567.49 765.71L567.49 819.08M572.62 804.76L572.62 769.18M577.76 772.64L577.76 790.43M901.02 76.1L901.02 58.31M906.15 50.0L906.15 79.57M911.29 83.03L911.29 50.0M916.42 50.0L916.42 86.5M921.55 89.97L921.55 50.0M926.68 50.0L926.68 93.44M931.81 96.9L931.81 50.0M936.94 50.0L936.94 100.37M942.07 103.84L942.07 50.0M947.2 50.0L947.2 99.68M952.33 85.36L952.33 50.0M957.47 53.24L957.47 71.03M865.84 174.32L865.84 156.53M870.97 142.21L870.97 177.79M876.1 181.26L876.1 127.88M881.23 123.72L881.23 184.72M886.36 188.19L886.36 127.19M891.49 130.66L891.49 191.66M896.62 195.13L896.62 134.13M901.76 137.59L901.76 198.59M906.89 202.06L906.89 141.06M912.02 144.53L912.02 197.9M917.15 183.58L917.15 148.0M922.28 151.46L922.28 169.25M830.65 272.54L830.65 254.75M835.78 240.43L835.78 276.01M840.91 279.48L840.91 226.11M846.05 221.95L846.05 282.95M851.18 286.41L851.18 225.41M856.31 228.88L856.31 289.88M861.44 293.35L861.44 232.35M866.57 235.82L866.57 296.82M871.7 300.28L871.7 239.28M876.83 242.75L876.83 296.12M881.96 281.8L881.96 246.22M887.09 249.69L887.09 267.48M795.47 370.77L795.47 352.97M800.6 338.65L800.6 374.23M805.73 377.7L805.73 324.33M810.86 320.17L810.86 381.17M815.99 384.64L815.99 323.64M821.12 327.1L821.12 388.1M826.25 391.57L826.25 330.57M831.38 334.04L831.38 395.04M836.51 398.51L836.51 337.51M841.65 340.97L841.65 394.35M846.78 380.02L846.78 344.44M851.91 347.91L851.91 365.7M760.28 468.99L760.28 451.2M765.41 436.87L765.41 472.46M770.54 475.92L770.54 422.55M775.67 418.39L775.67 479.39M780.8 482.86L780.8 421.86M785.94 425.33L785.94 486.33M791.07 489.79L791.07 428.79M796.2 432.26L796.2 493.26M801.33 496.73L801.33 435.73M806.46 439.2L806.46 492.57M811.59 478.24L811.59 442.66M816.72 446.13L816.72 463.92M725.09 567.21L725.09 549.42M730.23 535.1L730.23 570.68M735.36 574.15L735.36 520.77M740.49 516.61L740.49 577.61M745.62 581.08L745.62 520.08M750.75 523.55L750.75 584.55M755.88 588.02L755.88 527.02M761.01 530.48L761.01 591.48M766.14 594.95L766.14 533.95M771.27 537.42L771.27 590.79M776.41 576.47L776.41 540.88M781.54 544.35L781.54 562.14M689.91 665.43L689.91 647.64M695.04 633.32L695.04 668.9M700.17 672.37L700.17 618.99M705.3 614.84L705.3 675.84M710.43 679.3L710.43 618.3M715.56 621.77L715.56 682.77M720.69 686.24L720.69 625.24M725.83 628.7L725.83 689.7M730.96 693.17L730.96 632.17M736.09 635.64L736.09 689.01M741.22 674.69L741.22 639.11M746.35 642.57L746.35 660.37M654.72 763.66L654.72 745.86M659.85 731.54L659.85 767.12M664.98 770.59L664.98 717.22M670.12 713.06L670.12 774.06M675.25 777.52L675.25 716.52M680.38 719.99L680.38 780.99M685.51 784.46L685.51 723.46M690.64 726.93L690.64 787.93M695.77 791.39L695.77 730.39M700.9 733.86L700.9 787.24M706.03 772.91L706.03 737.33M711.16 740.8L711.16 758.59M629.8 820.0L629.8 815.44M634.93 811.28L634.93 820.0M640.06 820.0L640.06 814.75M645.19 818.21L645.19 820.0M1044.69 51.19L1044.69 50.0M1049.83 50.0L1049.83 54.65M1054.96 58.12L1054.96 50.0M1060.09 50.0L1060.09 61.59M1065.22 65.06L1065.22 50.0M1070.35 50.0L1070.35 68.52M1075.48 71.99L1075.48 50.0M1080.61 50.0L1080.61 67.83M1085.74 53.51L1085.74 50.0M999.25 124.68L999.25 142.47M1004.38 145.94L1004.38 110.36M1009.51 96.04L1009.51 149.41M1014.64 152.88L1014.64 91.88M1019.77 95.34L1019.77 156.34M1024.9 159.81L1024.9 98.81M1030.03 102.28L1030.03 163.28M1035.16 166.75L1035.16 105.75M1040.29 109.21L1040.29 170.21M1045.43 166.05L1045.43 112.68M1050.56 116.15L1050.56 151.73M1055.69 137.41L1055.69 119.62M964.06 222.91L964.06 240.7M969.19 244.16L969.19 208.58M974.32 194.26L974.32 247.63M979.45 251.1L979.45 190.1M984.58 193.57L984.58 254.57M989.72 258.03L989.72 197.03M994.85 200.5L994.85 261.5M999.98 264.97L999.98 203.97M1005.11 207.44L1005.11 268.44M1010.24 264.28L1010.24 210.9M1015.37 214.37L1015.37 249.95M1020.5 235.63L1020.5 217.84M928.87 321.13L928.87 338.92M934.01 342.39L934.01 306.8M939.14 292.48L939.14 345.85M944.27 349.32L944.27 288.32M949.4 291.79L949.4 352.79M954.53 356.26L954.53 295.26M959.66 298.72L959.66 359.72M964.79 363.19L964.79 302.19M969.92 305.66L969.92 366.66M975.05 362.5L975.05 309.13M980.19 312.59L980.19 348.18M985.32 333.85L985.32 316.06M893.69 419.35L893.69 437.14M898.82 440.61L898.82 405.03M903.95 390.7L903.95 444.08M909.08 447.54L909.08 386.54M914.21 390.01L914.21 451.01M919.34 454.48L919.34 393.48M924.47 396.95L924.47 457.95M929.61 461.41L929.61 400.41M934.74 403.88L934.74 464.88M939.87 460.72L939.87 407.35M945.0 410.82L945.0 446.4M950.13 432.07L950.13 414.28M858.5 517.57L858.5 535.36M863.63 538.83L863.63 503.25M868.76 488.93L868.76 542.3M873.9 545.77L873.9 484.77M879.03 488.23L879.03 549.23M884.16 552.7L884.16 491.7M889.29 495.17L889.29 556.17M894.42 559.64L894.42 498.64M899.55 502.1L899.55 563.1M904.68 558.94L904.68 505.57M909.81 509.04L909.81 544.62M914.94 530.3L914.94 512.51M823.32 615.8L823.32 633.59M828.45 637.05L828.45 601.47M833.58 587.15L833.58 640.52M838.71 643.99L838.71 582.99M843.84 586.46L843.84 647.46M848.97 650.92L848.97 589.92M854.1 593.39L854.1 654.39M859.23 657.86L859.23 596.86M864.37 600.33L864.37 661.33M869.5 657.17L869.5 603.79M874.63 607.26L874.63 642.84M879.76 628.52L879.76 610.73M788.13 714.02L788.13 731.81M793.26 735.28L793.26 699.69M798.39 685.37L798.39 738.74M803.52 742.21L803.52 681.21M808.65 684.68L808.65 745.68M813.79 749.15L813.79 688.15M818.92 691.61L818.92 752.61M824.05 756.08L824.05 695.08M829.18 698.55L829.18 759.55M834.31 755.39L834.31 702.02M839.44 705.48L839.44 741.07M844.57 726.74L844.57 708.95M752.94 812.24L752.94 820.0M758.08 820.0L758.08 797.92M763.21 783.59L763.21 820.0M768.34 820.0L768.34 779.43M773.47 782.9L773.47 820.0M778.6 820.0L778.6 786.37M783.73 789.84L783.73 820.0M788.86 820.0L788.86 793.3M793.99 796.77L793.99 820.0M799.12 820.0L799.12 800.24M804.26 803.71L804.26 820.0M809.39 820.0L809.39 807.17M1097.47 191.06L1097.47 208.85M1062.28 307.07L1062.28 289.28M1067.41 274.96L1067.41 310.54M1072.54 314.01L1072.54 260.64M1077.68 256.48L1077.68 317.48M1082.81 320.94L1082.81 259.94M1087.94 263.41L1087.94 324.41M1093.07 327.88L1093.07 266.88M1098.2 270.35L1098.2 331.35M1027.1 405.3L1027.1 387.5M1032.23 373.18L1032.23 408.76M1037.36 412.23L1037.36 358.86M1042.49 354.7L1042.49 415.7M1047.62 419.17L1047.62 358.17M1052.75 361.63L1052.75 422.63M1057.88 426.1L1057.88 365.1M1063.01 368.57L1063.01 429.57M1068.15 433.04L1068.15 372.04M1073.28 375.5L1073.28 428.88M1078.41 414.55L1078.41 378.97M1083.54 382.44L1083.54 400.23M991.91 503.52L991.91 485.73M997.04 471.4L997.04 506.99M1002.17 510.45L1002.17 457.08M1007.3 452.92L1007.3 513.92M1012.44 517.39L1012.44 456.39M1017.57 459.86L1017.57 520.86M1022.7 524.32L1022.7 463.32M1027.83 466.79L1027.83 527.79M1032.96 531.26L1032.96 470.26M1038.09 473.72L1038.09 527.1M1043.22 512.77L1043.22 477.19M1048.35 480.66L1048.35 498.45M956.72 601.74L956.72 583.95M961.86 569.63L961.86 605.21M966.99 608.67L966.99 555.3M972.12 551.14L972.12 612.14M977.25 615.61L977.25 554.61M982.38 558.08L982.38 619.08M987.51 622.54L987.51 561.54M992.64 565.01L992.64 626.01M997.77 629.48L997.77 568.48M1002.9 571.95L1002.9 625.32M1008.04 611.0L1008.04 575.41M1013.17 578.88L1013.17 596.67M921.54 699.96L921.54 682.17M926.67 667.85L926.67 703.43M931.8 706.9L931.8 653.52M936.93 649.36L936.93 710.36M942.06 713.83L942.06 652.83M947.19 656.3L947.19 717.3M952.33 720.77L952.33 659.77M957.46 663.23L957.46 724.23M962.59 727.7L962.59 666.7M967.72 670.17L967.72 723.54M972.85 709.22L972.85 673.64M977.98 677.1L977.98 694.9M886.35 798.18L886.35 780.39M891.48 766.07L891.48 801.65M896.62 805.12L896.62 751.75M901.75 747.59L901.75 808.59M906.88 812.05L906.88 751.05M912.01 754.52L912.01 815.52M917.14 818.99L917.14 757.99M922.27 761.46L922.27 820.0M927.4 820.0L927.4 764.92M932.53 768.39L932.53 820.0M937.66 807.44L937.66 771.86M942.79 775.33L942.79 793.12M1090.13 569.89L1090.13 552.1M1095.26 537.78L1095.26 573.36M1054.95 668.12L1054.95 650.33M1060.08 636.0L1060.08 671.58M1065.21 675.05L1065.21 621.68M1070.34 617.52L1070.34 678.52M1075.47 681.99L1075.47 620.99M1080.6 624.45L1080.6 685.45M1085.73 688.92L1085.73 627.92M1090.86 631.39L1090.86 692.39M1096.0 695.86L1096.0 634.86M1019.76 748.55L1019.76 766.34M1024.89 769.81L1024.89 734.22M1030.02 719.9L1030.02 773.27M1035.15 776.74L1035.15 715.74M1040.29 719.21L1040.29 780.21M1045.42 783.68L1045.42 722.68M1050.55 726.14L1050.55 787.14M1055.68 790.61L1055.68 729.61M1060.81 733.08L1060.81 794.08M1065.94 789.92L1065.94 736.55M1071.07 740.01L1071.07 775.59M1076.2 761.27L1076.2 743.48M994.84 818.12L994.84 820.0M999.97 820.0L999.97 813.96M1005.1 817.43L1005.1 820.0M967.73 60.18L967.73 50.0M972.86 50.0L972.86 63.64M977.99 67.11L977.99 50.0M983.12 50.0L983.12 70.58M988.25 74.05L988.25 50.0M993.38 50.0L993.38 77.51M998.51 80.98L998.51 50.0M1003.65 50.0L1003.65 84.45M1008.78 87.92L1008.78 50.0M1013.91 50.0L1013.91 83.76M1019.04 69.43L1019.04 50.0M1024.17 50.0L1024.17 55.11M1065.95 126.55L1065.95 108.76M1071.08 94.44L1071.08 130.02M1076.21 133.49L1076.21 80.11M1081.34 75.95L1081.34 136.95M1086.47 140.42L1086.47 79.42M1091.61 82.89L1091.61 143.89M1096.74 147.36L1096.74 86.36M777.15 50.0L777.15 53.39M834.32 92.02L834.32 74.23M839.45 59.91L839.45 95.49M844.58 98.96L844.58 50.0M849.71 50.0L849.71 102.42M854.84 105.89L854.84 50.0M859.98 50.0L859.98 109.36M865.11 112.83L865.11 51.83M870.24 55.29L870.24 116.29M875.37 119.76L875.37 58.76M880.5 62.23L880.5 115.6M885.63 101.28L885.63 65.7M890.76 69.16L890.76 86.96M932.54 158.4L932.54 140.61M937.67 126.28L937.67 161.87M942.8 165.33L942.8 111.96M947.94 107.8L947.94 168.8M953.07 172.27L953.07 111.27M958.2 114.74L958.2 175.74M963.33 179.2L963.33 118.2M968.46 121.67L968.46 182.67M973.59 186.14L973.59 125.14M978.72 128.61L978.72 181.98M983.85 167.65L983.85 132.07M988.98 135.54L988.98 153.33M1030.76 224.77L1030.76 206.98M1035.9 192.66L1035.9 228.24M1041.03 231.71L1041.03 178.34M1046.16 174.18L1046.16 235.18M1051.29 238.64L1051.29 177.64M1056.42 181.11L1056.42 242.11M1061.55 245.58L1061.55 184.58M1066.68 188.05L1066.68 249.05M1071.81 252.51L1071.81 191.51M1076.94 194.98L1076.94 248.35M1082.08 234.03L1082.08 198.45M1087.21 201.92L1087.21 219.71M602.69 57.49L602.69 50.0M607.82 50.0L607.82 60.96M612.95 64.43L612.95 50.0M618.08 50.0L618.08 67.89M623.21 71.36L623.21 50.0M628.34 50.0L628.34 74.83M633.48 78.3L633.48 50.0M638.61 50.0L638.61 81.76M643.74 85.23L643.74 50.0M648.87 50.0L648.87 81.07M654.0 66.75L654.0 50.0M659.13 50.0L659.13 52.43M700.91 123.87L700.91 106.08M706.04 91.75L706.04 127.34M711.17 130.8L711.17 77.43M716.3 73.27L716.3 134.27M721.44 137.74L721.44 76.74M726.57 80.21L726.57 141.21M731.7 144.67L731.7 83.67M736.83 87.14L736.83 148.14M741.96 151.61L741.96 90.61M747.09 94.08L747.09 147.45M752.22 133.12L752.22 97.54M757.35 101.01L757.35 118.8M799.13 190.24L799.13 172.45M804.26 158.13L804.26 193.71M809.4 197.18L809.4 143.81M814.53 139.65L814.53 200.65M819.66 204.11L819.66 143.11M824.79 146.58L824.79 207.58M829.92 211.05L829.92 150.05M835.05 153.52L835.05 214.52M840.18 217.98L840.18 156.98M845.31 160.45L845.31 213.82M850.44 199.5L850.44 163.92M855.58 167.39L855.58 185.18M897.36 256.62L897.36 238.83M902.49 224.51L902.49 260.09M907.62 263.56L907.62 210.18M912.75 206.02L912.75 267.02M917.88 270.49L917.88 209.49M923.01 212.96L923.01 273.96M928.14 277.43L928.14 216.43M933.27 219.89L933.27 280.89M938.4 284.36L938.4 223.36M943.54 226.83L943.54 280.2M948.67 265.88L948.67 230.29M953.8 233.76L953.8 251.55M995.58 323.0L995.58 305.21M1000.71 290.88L1000.71 326.46M1005.84 329.93L1005.84 276.56M1010.97 272.4L1010.97 333.4M1016.1 336.87L1016.1 275.87M1021.23 279.33L1021.23 340.33M1026.36 343.8L1026.36 282.8M1031.5 286.27L1031.5 347.27M1036.63 350.74L1036.63 289.74M1041.76 293.2L1041.76 346.58M1046.89 332.25L1046.89 296.67M1052.02 300.14L1052.02 317.93M1093.8 389.37L1093.8 371.58M1098.93 357.26L1098.93 392.84M412.11 50.7L412.11 50.0M469.28 71.55L469.28 89.34M474.41 92.81L474.41 57.22M479.54 50.0L479.54 96.27M484.67 99.74L484.67 50.0M489.81 50.0L489.81 103.21M494.94 106.68L494.94 50.0M500.07 50.0L500.07 110.14M505.2 113.61L505.2 52.61M510.33 56.08L510.33 117.08M515.46 112.92L515.46 59.55M520.59 63.01L520.59 98.6M525.72 84.27L525.72 66.48M567.5 137.92L567.5 155.71M572.63 159.18L572.63 123.6M577.77 109.28L577.77 162.65M582.9 166.12L582.9 105.12M588.03 108.58L588.03 169.58M593.16 173.05L593.16 112.05M598.29 115.52L598.29 176.52M603.42 179.99L603.42 118.99M608.55 122.45L608.55 183.45M613.68 179.29L613.68 125.92M618.81 129.39L618.81 164.97M623.95 150.65L623.95 132.86M665.73 204.3L665.73 222.09M670.86 225.56L670.86 189.98M675.99 175.65L675.99 229.03M681.12 232.49L681.12 171.49M686.25 174.96L686.25 235.96M691.38 239.43L691.38 178.43M696.51 181.9L696.51 242.9M701.64 246.36L701.64 185.36M706.77 188.83L706.77 249.83M711.91 245.67L711.91 192.3M717.04 195.77L717.04 231.35M722.17 217.02L722.17 199.23M763.95 270.68L763.95 288.47M769.08 291.93L769.08 256.35M774.21 242.03L774.21 295.4M779.34 298.87L779.34 237.87M784.47 241.34L784.47 302.34M789.6 305.8L789.6 244.8M794.73 248.27L794.73 309.27M799.87 312.74L799.87 251.74M805.0 255.21L805.0 316.21M810.13 312.05L810.13 258.67M815.26 262.14L815.26 297.72M820.39 283.4L820.39 265.61M862.17 337.05L862.17 354.84M867.3 358.31L867.3 322.73M872.43 308.4L872.43 361.78M877.56 365.25L877.56 304.25M882.69 307.71L882.69 368.71M887.83 372.18L887.83 311.18M892.96 314.65L892.96 375.65M898.09 379.11L898.09 318.11M903.22 321.58L903.22 382.58M908.35 378.42L908.35 325.05M913.48 328.52L913.48 364.1M918.61 349.78L918.61 331.98M960.39 403.43L960.39 421.22M965.52 424.69L965.52 389.1M970.65 374.78L970.65 428.15M975.79 431.62L975.79 370.62M980.92 374.09L980.92 435.09M986.05 438.56L986.05 377.56M991.18 381.02L991.18 442.02M996.31 445.49L996.31 384.49M1001.44 387.96L1001.44 448.96M1006.57 444.8L1006.57 391.43M1011.7 394.89L1011.7 430.48M1016.83 416.15L1016.83 398.36M1058.61 469.8L1058.61 487.59M1063.75 491.06L1063.75 455.48M1068.88 441.16L1068.88 494.53M1074.01 498.0L1074.01 437.0M1079.14 440.46L1079.14 501.46M1084.27 504.93L1084.27 443.93M1089.4 447.4L1089.4 508.4M1094.53 511.87L1094.53 450.87M1099.66 454.33L1099.66 515.33M237.65 54.81L237.65 50.0M242.78 50.0L242.78 58.28M247.91 61.74L247.91 50.0M253.04 50.0L253.04 65.21M258.17 68.68L258.17 50.0M263.31 50.0L263.31 72.15M268.44 75.61L268.44 50.0M273.57 50.0L273.57 79.08M278.7 82.55L278.7 50.0M283.83 50.0L283.83 78.39M288.96 64.07L288.96 50.0M335.87 103.39L335.87 121.19M341.0 124.65L341.0 89.07M346.13 74.75L346.13 128.12M351.27 131.59L351.27 70.59M356.4 74.05L356.4 135.05M361.53 138.52L361.53 77.52M366.66 80.99L366.66 141.99M371.79 145.46L371.79 84.46M376.92 87.92L376.92 148.92M382.05 144.77L382.05 91.39M387.18 94.86L387.18 130.44M392.31 116.12L392.31 98.33M434.1 169.77L434.1 187.56M439.23 191.03L439.23 155.45M444.36 141.12L444.36 194.5M449.49 197.96L449.49 136.96M454.62 140.43L454.62 201.43M459.75 204.9L459.75 143.9M464.88 147.37L464.88 208.37M470.01 211.83L470.01 150.83M475.14 154.3L475.14 215.3M480.27 211.14L480.27 157.77M485.41 161.24L485.41 196.82M490.54 182.49L490.54 164.7M532.32 236.15L532.32 253.94M537.45 257.4L537.45 221.82M542.58 207.5L542.58 260.87M547.71 264.34L547.71 203.34M552.84 206.81L552.84 267.81M557.97 271.27L557.97 210.27M563.1 213.74L563.1 274.74M568.23 278.21L568.23 217.21M573.37 220.68L573.37 281.68M578.5 277.52L578.5 224.14M583.63 227.61L583.63 263.19M588.76 248.87L588.76 231.08M630.54 302.52L630.54 320.31M635.67 323.78L635.67 288.2M640.8 273.87L640.8 327.25M645.93 330.72L645.93 269.72M651.06 273.18L651.06 334.18M656.2 337.65L656.2 276.65M661.33 280.12L661.33 341.12M666.46 344.59L666.46 283.59M671.59 287.05L671.59 348.05M676.72 343.89L676.72 290.52M681.85 293.99L681.85 329.57M686.98 315.25L686.98 297.45M728.76 368.9L728.76 386.69M733.89 390.16L733.89 354.57M739.02 340.25L739.02 393.62M744.16 397.09L744.16 336.09M749.29 339.56L749.29 400.56M754.42 404.03L754.42 343.03M759.55 346.49L759.55 407.49M764.68 410.96L764.68 349.96M769.81 353.43L769.81 414.43M774.94 410.27L774.94 356.9M780.07 360.36L780.07 395.95M785.2 381.62L785.2 363.83M826.98 435.27L826.98 453.06M832.12 456.53L832.12 420.95M837.25 406.63L837.25 460.0M842.38 463.47L842.38 402.47M847.51 405.93L847.51 466.93M852.64 470.4L852.64 409.4M857.77 412.87L857.77 473.87M862.9 477.34L862.9 416.34M868.03 419.8L868.03 480.8M873.16 476.64L873.16 423.27M878.3 426.74L878.3 462.32M883.43 448.0L883.43 430.21M925.21 501.65L925.21 519.44M930.34 522.91L930.34 487.33M935.47 473.0L935.47 526.38M940.6 529.84L940.6 468.84M945.73 472.31L945.73 533.31M950.86 536.78L950.86 475.78M955.99 479.25L955.99 540.25M961.12 543.71L961.12 482.71M966.26 486.18L966.26 547.18M971.39 543.02L971.39 489.65M976.52 493.12L976.52 528.7M981.65 514.37L981.65 496.58M1023.43 568.03L1023.43 585.82M1028.56 589.28L1028.56 553.7M1033.69 539.38L1033.69 592.75M1038.82 596.22L1038.82 535.22M1043.95 538.69L1043.95 599.69M1049.08 603.15L1049.08 542.15M1054.22 545.62L1054.22 606.62M1059.35 610.09L1059.35 549.09M1064.48 552.56L1064.48 613.56M1069.61 609.4L1069.61 556.02M1074.74 559.49L1074.74 595.07M1079.87 580.75L1079.87 562.96M104.24 68.86L104.24 86.66M109.37 90.12L109.37 54.54M114.5 50.0L114.5 93.59M119.64 97.06L119.64 50.0M124.77 50.0L124.77 100.53M129.9 103.99L129.9 50.0M135.03 50.0L135.03 107.46M140.16 110.93L140.16 50.0M145.29 53.4L145.29 114.4M150.42 110.24L150.42 56.86M155.55 60.33L155.55 95.91M160.68 81.59L160.68 63.8M202.46 135.24L202.46 153.03M207.6 156.5L207.6 120.92M212.73 106.59L212.73 159.97M217.86 163.43L217.86 102.43M222.99 105.9L222.99 166.9M228.12 170.37L228.12 109.37M233.25 112.84L233.25 173.84M238.38 177.3L238.38 116.3M243.51 119.77L243.51 180.77M248.64 176.61L248.64 123.24M253.78 126.71L253.78 162.29M258.91 147.96L258.91 130.17M300.69 201.62L300.69 219.41M305.82 222.87L305.82 187.29M310.95 172.97L310.95 226.34M316.08 229.81L316.08 168.81M321.21 172.28L321.21 233.28M326.34 236.74L326.34 175.74M331.47 179.21L331.47 240.21M336.6 243.68L336.6 182.68M341.74 186.15L341.74 247.15M346.87 242.99L346.87 189.61M352.0 193.08L352.0 228.66M357.13 214.34L357.13 196.55M398.91 267.99L398.91 285.78M404.04 289.25L404.04 253.67M409.17 239.35L409.17 292.72M414.3 296.19L414.3 235.19M419.43 238.65L419.43 299.65M424.56 303.12L424.56 242.12M429.7 245.59L429.7 306.59M434.83 310.06L434.83 249.06M439.96 252.52L439.96 313.52M445.09 309.36L445.09 255.99M450.22 259.46L450.22 295.04M455.35 280.72L455.35 262.93M497.13 334.37L497.13 352.16M502.26 355.63L502.26 320.04M507.39 305.72L507.39 359.09M512.52 362.56L512.52 301.56M517.66 305.03L517.66 366.03M522.79 369.5L522.79 308.5M527.92 311.96L527.92 372.96M533.05 376.43L533.05 315.43M538.18 318.9L538.18 379.9M543.31 375.74L543.31 322.37M548.44 325.83L548.44 361.42M553.57 347.09L553.57 329.3M595.35 400.74L595.35 418.54M600.48 422.0L600.48 386.42M605.62 372.1L605.62 425.47M610.75 428.94L610.75 367.94M615.88 371.41L615.88 432.41M621.01 435.87L621.01 374.87M626.14 378.34L626.14 439.34M631.27 442.81L631.27 381.81M636.4 385.27L636.4 446.27M641.53 442.12L641.53 388.74M646.66 392.21L646.66 427.79M651.8 413.47L651.8 395.68M693.58 467.12L693.58 484.91M698.71 488.38L698.71 452.8M703.84 438.47L703.84 491.85M708.97 495.31L708.97 434.31M714.1 437.78L714.1 498.78M719.23 502.25L719.23 441.25M724.36 444.72L724.36 505.72M729.49 509.18L729.49 448.18M734.62 451.65L734.62 512.65M739.76 508.49L739.76 455.12M744.89 458.59L744.89 494.17M750.02 479.84L750.02 462.05M791.8 533.5L791.8 551.29M796.93 554.75L796.93 519.17M802.06 504.85L802.06 558.22M807.19 561.69L807.19 500.69M812.32 504.16L812.32 565.16M817.45 568.62L817.45 507.62M822.58 511.09L822.58 572.09M827.72 575.56L827.72 514.56M832.85 518.03L832.85 579.03M837.98 574.87L837.98 521.49M843.11 524.96L843.11 560.54M848.24 546.22L848.24 528.43M890.02 599.87L890.02 617.66M895.15 621.13L895.15 585.55M900.28 571.23L900.28 624.6M905.41 628.07L905.41 567.07M910.54 570.53L910.54 631.53M915.68 635.0L915.68 574.0M920.81 577.47L920.81 638.47M925.94 641.94L925.94 580.94M931.07 584.4L931.07 645.4M936.2 641.24L936.2 587.87M941.33 591.34L941.33 626.92M946.46 612.6L946.46 594.81M988.24 666.25L988.24 684.04M993.37 687.51L993.37 651.92M998.51 637.6L998.51 690.97M1003.64 694.44L1003.64 633.44M1008.77 636.91L1008.77 697.91M1013.9 701.38L1013.9 640.38M1019.03 643.84L1019.03 704.84M1024.16 708.31L1024.16 647.31M1029.29 650.78L1029.29 711.78M1034.42 707.62L1034.42 654.25M1039.55 657.71L1039.55 693.3M1044.68 678.97L1044.68 661.18M1086.47 732.62L1086.47 750.42M1091.6 753.88L1091.6 718.3M1096.73 703.98L1096.73 757.35M69.06 184.88L69.06 167.09M74.19 152.76L74.19 188.35M79.32 191.81L79.32 138.44M84.45 134.28L84.45 195.28M89.58 198.75L89.58 137.75M94.71 141.21L94.71 202.21M99.84 205.68L99.84 144.68M104.97 148.15L104.97 209.15M110.1 212.62L110.1 151.62M115.24 155.08L115.24 208.46M120.37 194.13L120.37 158.55M125.5 162.02L125.5 179.81M167.28 251.25L167.28 233.46M172.41 219.14L172.41 254.72M177.54 258.19L177.54 204.82M182.67 200.66L182.67 261.66M187.8 265.12L187.8 204.12M192.93 207.59L192.93 268.59M198.07 272.06L198.07 211.06M203.2 214.53L203.2 275.53M208.33 278.99L208.33 217.99M213.46 221.46L213.46 274.83M218.59 260.51L218.59 224.93M223.72 228.4L223.72 246.19M265.5 317.63L265.5 299.84M270.63 285.52L270.63 321.1M275.76 324.56L275.76 271.19M280.89 267.03L280.89 328.03M286.03 331.5L286.03 270.5M291.16 273.97L291.16 334.97M296.29 338.43L296.29 277.43M301.42 280.9L301.42 341.9M306.55 345.37L306.55 284.37M311.68 287.84L311.68 341.21M316.81 326.89L316.81 291.3M321.94 294.77L321.94 312.56M363.72 384.01L363.72 366.21M368.85 351.89L368.85 387.47M373.99 390.94L373.99 337.57M379.12 333.41L379.12 394.41M384.25 397.88L384.25 336.88M389.38 340.34L389.38 401.34M394.51 404.81L394.51 343.81M399.64 347.28L399.64 408.28M404.77 411.75L404.77 350.75M409.9 354.21L409.9 407.59M415.03 393.26L415.03 357.68M420.17 361.15L420.17 378.94M461.95 450.38L461.95 432.59M467.08 418.27L467.08 453.85M472.21 457.32L472.21 403.94M477.34 399.78L477.34 460.78M482.47 464.25L482.47 403.25M487.6 406.72L487.6 467.72M492.73 471.19L492.73 410.19M497.86 413.65L497.86 474.65M502.99 478.12L502.99 417.12M508.13 420.59L508.13 473.96M513.26 459.64L513.26 424.06M518.39 427.52L518.39 445.31M560.17 516.76L560.17 498.97M565.3 484.64L565.3 520.23M570.43 523.69L570.43 470.32M575.56 466.16L575.56 527.16M580.69 530.63L580.69 469.63M585.82 473.09L585.82 534.09M590.95 537.56L590.95 476.56M596.09 480.03L596.09 541.03M601.22 544.5L601.22 483.5M606.35 486.96L606.35 540.34M611.48 526.01L611.48 490.43M616.61 493.9L616.61 511.69M658.39 583.13L658.39 565.34M663.52 551.02L663.52 586.6M668.65 590.07L668.65 536.7M673.78 532.54L673.78 593.54M678.91 597.0L678.91 536.0M684.05 539.47L684.05 600.47M689.18 603.94L689.18 542.94M694.31 546.41L694.31 607.41M699.44 610.87L699.44 549.87M704.57 553.34L704.57 606.71M709.7 592.39L709.7 556.81M714.83 560.28L714.83 578.07M756.61 649.51L756.61 631.72M761.74 617.4L761.74 652.98M766.87 656.44L766.87 603.07M772.01 598.91L772.01 659.91M777.14 663.38L777.14 602.38M782.27 605.85L782.27 666.85M787.4 670.31L787.4 609.31M792.53 612.78L792.53 673.78M797.66 677.25L797.66 616.25M802.79 619.72L802.79 673.09M807.92 658.77L807.92 623.18M813.05 626.65L813.05 644.44M854.83 715.89L854.83 698.09M859.97 683.77L859.97 719.35M865.1 722.82L865.1 669.45M870.23 665.29L870.23 726.29M875.36 729.76L875.36 668.76M880.49 672.22L880.49 733.22M885.62 736.69L885.62 675.69M890.75 679.16L890.75 740.16M895.88 743.63L895.88 682.63M901.01 686.09L901.01 739.47M906.15 725.14L906.15 689.56M911.28 693.03L911.28 710.82M953.06 782.26L953.06 764.47M958.19 750.15L958.19 785.73M963.32 789.2L963.32 735.82M968.45 731.66L968.45 792.66M973.58 796.13L973.58 735.13M978.71 738.6L978.71 799.6M983.84 803.07L983.84 742.07M988.97 745.53L988.97 806.53M994.11 810.0L994.11 749.0M999.24 752.47L999.24 805.84M1004.37 791.52L1004.37 755.94M1009.5 759.4L1009.5 777.19M1056.41 820.0L1056.41 816.52M1061.54 802.2L1061.54 820.0M1066.67 820.0L1066.67 798.04M1071.8 801.51L1071.8 820.0M1076.93 820.0L1076.93 804.97M1082.07 808.44L1082.07 820.0M1087.2 820.0L1087.2 811.91M1092.33 815.38L1092.33 820.0M1097.46 820.0L1097.46 818.84M54.39 235.97L54.39 296.97M59.53 300.44L59.53 239.44M64.66 242.9L64.66 303.9M69.79 307.37L69.79 246.37M74.92 249.84L74.92 310.84M80.05 306.68L80.05 253.31M85.18 256.77L85.18 292.36M90.31 278.03L90.31 260.24M132.09 331.69L132.09 349.48M137.22 352.94L137.22 317.36M142.35 303.04L142.35 356.41M147.49 359.88L147.49 298.88M152.62 302.35L152.62 363.35M157.75 366.81L157.75 305.81M162.88 309.28L162.88 370.28M168.01 373.75L168.01 312.75M173.14 316.22L173.14 377.22M178.27 373.06L178.27 319.68M183.4 323.15L183.4 358.73M188.53 344.41L188.53 326.62M230.31 398.06L230.31 415.85M235.45 419.32L235.45 383.74M240.58 369.41L240.58 422.79M245.71 426.25L245.71 365.25M250.84 368.72L250.84 429.72M255.97 433.19L255.97 372.19M261.1 375.66L261.1 436.66M266.23 440.12L266.23 379.12M271.36 382.59L271.36 443.59M276.49 439.43L276.49 386.06M281.63 389.53L281.63 425.11M286.76 410.78L286.76 392.99M328.54 464.44L328.54 482.23M333.67 485.7L333.67 450.11M338.8 435.79L338.8 489.16M343.93 492.63L343.93 431.63M349.06 435.1L349.06 496.1M354.19 499.57L354.19 438.57M359.32 442.03L359.32 503.03M364.45 506.5L364.45 445.5M369.59 448.97L369.59 509.97M374.72 505.81L374.72 452.44M379.85 455.9L379.85 491.48M384.98 477.16L384.98 459.37M426.76 530.81L426.76 548.6M431.89 552.07L431.89 516.49M437.02 502.17L437.02 555.54M442.15 559.01L442.15 498.01M447.28 501.47L447.28 562.47M452.41 565.94L452.41 504.94M457.55 508.41L457.55 569.41M462.68 572.88L462.68 511.88M467.81 515.34L467.81 576.34M472.94 572.18L472.94 518.81M478.07 522.28L478.07 557.86M483.2 543.54L483.2 525.75M524.98 597.19L524.98 614.98M530.11 618.45L530.11 582.87M535.24 568.54L535.24 621.91M540.38 625.38L540.38 564.38M545.51 567.85L545.51 628.85M550.64 632.32L550.64 571.32M555.77 574.78L555.77 635.78M560.9 639.25L560.9 578.25M566.03 581.72L566.03 642.72M571.16 638.56L571.16 585.19M576.29 588.65L576.29 624.24M581.42 609.91L581.42 592.12M623.2 663.56L623.2 681.36M628.34 684.82L628.34 649.24M633.47 634.92L633.47 688.29M638.6 691.76L638.6 630.76M643.73 634.23L643.73 695.23M648.86 698.69L648.86 637.69M653.99 641.16L653.99 702.16M659.12 705.63L659.12 644.63M664.25 648.1L664.25 709.1M669.38 704.94L669.38 651.56M674.52 655.03L674.52 690.61M679.65 676.29L679.65 658.5M721.43 729.94L721.43 747.73M726.56 751.2L726.56 715.62M731.69 701.29L731.69 754.67M736.82 758.13L736.82 697.13M741.95 700.6L741.95 761.6M747.08 765.07L747.08 704.07M752.21 707.54L752.21 768.54M757.34 772.0L757.34 711.0M762.48 714.47L762.48 775.47M767.61 771.31L767.61 717.94M772.74 721.41L772.74 756.99M777.87 742.66L777.87 724.87M819.65 796.32L819.65 814.11M824.78 817.58L824.78 781.99M829.91 767.67L829.91 820.0M835.04 820.0L835.04 763.51M840.17 766.98L840.17 820.0M845.3 820.0L845.3 770.45M850.44 773.91L850.44 820.0M855.57 820.0L855.57 777.38M860.7 780.85L860.7 820.0M865.83 820.0L865.83 784.31M870.96 787.78L870.96 820.0M876.09 809.04L876.09 791.25M55.13 358.46L55.13 376.26M96.91 447.7L96.91 429.91M102.04 415.58L102.04 451.17M107.17 454.63L107.17 401.26M112.3 397.1L112.3 458.1M117.43 461.57L117.43 400.57M122.56 404.04L122.56 465.04M127.69 468.5L127.69 407.5M132.82 410.97L132.82 471.97M137.96 475.44L137.96 414.44M143.09 417.91L143.09 471.28M148.22 456.95L148.22 421.37M153.35 424.84L153.35 442.63M195.13 514.07L195.13 496.28M200.26 481.96L200.26 517.54M205.39 521.01L205.39 467.64M210.52 463.48L210.52 524.48M215.65 527.94L215.65 466.94M220.78 470.41L220.78 531.41M225.92 534.88L225.92 473.88M231.05 477.35L231.05 538.35M236.18 541.81L236.18 480.81M241.31 484.28L241.31 537.65M246.44 523.33L246.44 487.75M251.57 491.22L251.57 509.01M293.35 580.45L293.35 562.66M298.48 548.34L298.48 583.92M303.61 587.39L303.61 534.01M308.74 529.85L308.74 590.85M313.88 594.32L313.88 533.32M319.01 536.79L319.01 597.79M324.14 601.25L324.14 540.25M329.27 543.72L329.27 604.72M334.4 608.19L334.4 547.19M339.53 550.66L339.53 604.03M344.66 589.71L344.66 554.12M349.79 557.59L349.79 575.38M391.57 646.83L391.57 629.04M396.7 614.71L396.7 650.29M401.84 653.76L401.84 600.39M406.97 596.23L406.97 657.23M412.1 660.7L412.1 599.7M417.23 603.16L417.23 664.16M422.36 667.63L422.36 606.63M427.49 610.1L427.49 671.1M432.62 674.57L432.62 613.57M437.75 617.03L437.75 670.41M442.88 656.08L442.88 620.5M448.02 623.97L448.02 641.76M489.8 713.2L489.8 695.41M494.93 681.09L494.93 716.67M500.06 720.14L500.06 666.76M505.19 662.6L505.19 723.6M510.32 727.07L510.32 666.07M515.45 669.54L515.45 730.54M520.58 734.01L520.58 673.01M525.71 676.47L525.71 737.47M530.84 740.94L530.84 679.94M535.98 683.41L535.98 736.78M541.11 722.46L541.11 686.88M546.24 690.34L546.24 708.14M588.02 779.58L588.02 761.79M593.15 747.46L593.15 783.05M598.28 786.51L598.28 733.14M603.41 728.98L603.41 789.98M608.54 793.45L608.54 732.45M613.67 735.92L613.67 796.92M618.8 800.38L618.8 739.38M623.94 742.85L623.94 803.85M629.07 807.32L629.07 746.32M634.2 749.79L634.2 803.16M639.33 788.83L639.33 753.25M644.46 756.72L644.46 774.51M691.37 820.0L691.37 813.84M696.5 799.52L696.5 820.0M701.63 820.0L701.63 795.36M706.76 798.82L706.76 820.0M711.9 820.0L711.9 802.29M717.03 805.76L717.03 820.0M722.16 820.0L722.16 809.23M727.29 812.69L727.29 820.0M732.42 820.0L732.42 816.16M737.55 819.63L737.55 820.0M61.72 545.92L61.72 528.13M66.85 513.81L66.85 549.39M71.98 552.86L71.98 499.48M77.11 495.32L77.11 556.32M82.25 559.79L82.25 498.79M87.38 502.26L87.38 563.26M92.51 566.73L92.51 505.73M97.64 509.19L97.64 570.19M102.77 573.66L102.77 512.66M107.9 516.13L107.9 569.5M113.03 555.18L113.03 519.6M118.16 523.06L118.16 540.85M159.94 612.3L159.94 594.51M165.07 580.18L165.07 615.76M170.21 619.23L170.21 565.86M175.34 561.7L175.34 622.7M180.47 626.17L180.47 565.17M185.6 568.63L185.6 629.63M190.73 633.1L190.73 572.1M195.86 575.57L195.86 636.57M200.99 640.04L200.99 579.04M206.12 582.5L206.12 635.88M211.25 621.55L211.25 585.97M216.39 589.44L216.39 607.23M258.17 678.67L258.17 660.88M263.3 646.56L263.3 682.14M268.43 685.61L268.43 632.23M273.56 628.07L273.56 689.07M278.69 692.54L278.69 631.54M283.82 635.01L283.82 696.01M288.95 699.48L288.95 638.48M294.08 641.94L294.08 702.94M299.21 706.41L299.21 645.41M304.35 648.88L304.35 702.25M309.48 687.93L309.48 652.35M314.61 655.81L314.61 673.61M356.39 745.05L356.39 727.26M361.52 712.93L361.52 748.52M366.65 751.98L366.65 698.61M371.78 694.45L371.78 755.45M376.91 758.92L376.91 697.92M382.04 701.39L382.04 762.39M387.17 765.85L387.17 704.85M392.31 708.32L392.31 769.32M397.44 772.79L397.44 711.79M402.57 715.26L402.57 768.63M407.7 754.31L407.7 718.72M412.83 722.19L412.83 739.98M454.61 811.42L454.61 793.63M459.74 779.31L459.74 814.89M464.87 818.36L464.87 764.99M470.0 760.83L470.0 820.0M475.13 820.0L475.13 764.29M480.27 767.76L480.27 820.0M485.4 820.0L485.4 771.23M490.53 774.7L490.53 820.0M495.66 820.0L495.66 778.16M500.79 781.63L500.79 820.0M505.92 820.0L505.92 785.1M511.05 788.57L511.05 806.36M52.19 661.48L52.19 600.48M57.32 603.95L57.32 664.95M62.45 668.42L62.45 607.42M67.58 610.88L67.58 671.88M72.71 667.72L72.71 614.35M77.85 617.82L77.85 653.4M82.98 639.08L82.98 621.28M124.76 692.73L124.76 710.52M129.89 713.99L129.89 678.4M135.02 664.08L135.02 717.45M140.15 720.92L140.15 659.92M145.28 663.39L145.28 724.39M150.41 727.86L150.41 666.86M155.54 670.32L155.54 731.32M160.67 734.79L160.67 673.79M165.81 677.26L165.81 738.26M170.94 734.1L170.94 680.73M176.07 684.19L176.07 719.78M181.2 705.45L181.2 687.66M222.98 759.1L222.98 776.89M228.11 780.36L228.11 744.78M233.24 730.46L233.24 783.83M238.37 787.3L238.37 726.3M243.5 729.76L243.5 790.76M248.63 794.23L248.63 733.23M253.77 736.7L253.77 797.7M258.9 801.17L258.9 740.17M264.03 743.63L264.03 804.63M269.16 800.47L269.16 747.1M274.29 750.57L274.29 786.15M279.42 771.83L279.42 754.04M326.33 811.16L326.33 820.0M331.46 820.0L331.46 796.83M336.6 792.67L336.6 820.0M341.73 820.0L341.73 796.14M346.86 799.61L346.86 820.0M351.99 820.0L351.99 803.08M357.12 806.54L357.12 820.0M362.25 820.0L362.25 810.01M367.38 813.48L367.38 820.0M372.51 820.0L372.51 816.95M89.57 790.95L89.57 808.74M94.7 812.21L94.7 776.63M99.83 762.3L99.83 815.68M104.96 819.14L104.96 758.14M110.1 761.61L110.1 820.0M115.23 820.0L115.23 765.08M120.36 768.55L120.36 820.0M125.49 820.0L125.49 772.01M130.62 775.48L130.62 820.0M135.75 820.0L135.75 778.95M140.88 782.42L140.88 818.0M146.01 803.67L146.01 785.88"/>
    </g>
  </g>
</svg>
